
            <svg xmlns="http://www.w3.org/2000/svg">
              <defs>
                <mask id="path-mask">
                  <g fill="white">
                    <path d="m219.24,45.61c1.12-1.46.19-.72.3-1.11.3-.31.62-.61.91-.94.76-.76,1.61-1.69,2.27-2.49.37-.4.76-.92,1.08-1.54.35-.61.69-1.28.92-1.99.12-.35.23-.7.35-1.03.09-.34.14-.69.2-1,.11-.64.19-1.2.13-1.64.11-.56.18-1.03.22-1.41,0-.39-.04-.69-.08-.93.04-.38.1-.8.08-1.24-.04-.44-.07-.9-.11-1.35-.09-.89-.31-1.72-.27-2.34.08-.35-.21-1.71.35-.67.21.37.35.79.46,1.29.09.49.27,1.05.22,1.73-.01.56.02,1.09.05,1.56,0,.47.02.88.09,1.2-.03.35,0,.71-.08,1.05-.07.65-.25,1.41-.51,2.09-.26.68-.43,1.35-.37,1.9-.15.38-.44,1.07-.44,1.09.08,1.15-1.23,3.26-2.44,4.94l-.12-.05c.29-.49.19-.41-.19.1-.05.09-.12.18-.19.27l-.19-.05c.2-.29.52-.69.45-.73-.02,0-.19.17-.27.28-.35.48-.19.38-.19.46-.38.56-.73,1.15-1.17,1.67-.11.13-.21.26-.32.39.09-.26,1.1-1.57.06-.54-.55.55-.88.94-1.08,1.25-.22.29-.3.5-.35.67-.08.33-.51.85-1.35,1.48-.26-.13-1.3.94-2.12,1.57v-.09c.65-.72.05-.25-.62.24-1,.55-.91.84-1.48,1.26l-.14.05.15-.07c.04.16.51.08-1.22,1.22-1.07.71-1.99,1.31-1.66,1.42l-1.07.71-1.13.28c.6-.35.83-.56.83-.67.66-.52.66-.64-.08-.3-.96.53-1.32.64-1.06.3.12-.16.29-.37-.34-.02-.37.2-1.13.72-1.11.74.32.3-2.22,1.71-3.15,2.4-.19.15-.24.25-.36.37l-.13.2c-2.34,1.17-4.91,2.09-6.97,3.27-.52.29-1.34.49-1.91.64-1.04.26-1.7.53-2.18.9-1.6.51-3.21.96-4.82,1.4l-.13-.11c-.19-.15-.99-.01-1.95.31-.75.25-.46.32-.48.44-2.65.85-5.31,1.67-8.14,2.4l.12.02c-.02.07.21.09-.32.24-.13.12-.16.24-.86.4.17-.37-1.21-.14-2.32.06-2.41.4-5.21.79-7.27,1.4-1.43.41-2.4.61-3.82.86-.86.15-.34.31-.39.45-2.75.49-5.51.97-8.27,1.38l-.03-.27c.52-.23.37-.36.08-.5-.51-.24.18-.47,1.65-.67l1.28-.34c.77-.14,1.72-.23,2.02-.51l-1.44.15c-.2-.1-1.06-.11,0-.39.59.06,1.17-.01,1.74-.27l2.05-.32c.91.29,2.62.28,4.49.2,1.24-.5,3.06-1.09,3.24-1.56,1.79-.31,3.6-.57,5.36-1.12.07.13-.09.34.28.35.49.02-1.33.65.37.28,1.18-.26.9-.4.73-.53-.08-.06-.14-.3.68-.25,1.5.1,1.06-.43,2.28-.65.2.02.36.09.6.04.7-.16.66-.28.83-.41,2.27-.55,4.39-1.34,6.82-1.87,1.27-.26,1.81-.81,2.11-1.14,3.62-1.14,7.2-2.42,10.69-3.9.02.07-.06.18.08.19.39.02-1.15,1.06.66.27,1.6-.7.1-.37.27-.61.05-.07.57-.33.87-.5,2.82-1.54,5.92-3.07,8.74-4.82.41-.26.91-.64,1.41-.99.48-.37.97-.69,1.37-.78.45-.12,1.88-.97,3.33-2.02,1.44-1.05,2.83-2.38,3.43-3.09Zm-8.79,6.64l-.26.27c.14-.08.32-.16.42-.24.1-.07.13-.13.2-.2-.13.06-.24.11-.36.17Zm-16.91,8.48c-.07.02-.16.05-.25.08.03.04.12,0,.25-.08Z"/><path d="m176.5,2.82c2.15.16,4.26.48,6.36.84,2.1.38,4.21.69,6.3,1.11.36,1.32,3.19,1.1,4.92,1.57.29.43.16.86,2.1.82,1.17,0,2.81.31,4.26.62,1.13.4-2.71.99,1.65,1.28.61.17,1.52.2,1.51.66,0,.23.54.61,1.11.66.58.05,1.16-.1,1.41-.28.41-.29-.71-.36-1.03-.53-.62-.35-1.04-.73-1.54-1.1.4-.22,1.9.26,1.92-.21.79.87,4.29.68,4.07,1.59-.11.45-1.56.7-2.25,1.12-.72.44-3.25.02-5.23-.51-.89-.24-1.7-.62-2.59-.84-.86-.23-1.86-.75-2.56-.53-.75.26,1.68.52,1.15.88-1.45.08-2.92-.05-4.47-.61,0-.73-.32-1.33-2.83-1.14-1.86.14-3.95-1.27-5.81-.76l-.67-.07-1.23-.4c-2.02-1.06-4.31-1.49-6.88-1.19-1.4-.8-3.06-1.19-5.26-1.02l-.92-.08c.12-.05.19-.12.35-.14,1.25-.14,2.09-.35.89-.94-.32-.16-1.21-.38-1.08-.15.31.54-3.72.32-.85,1.3-.8,0-1.95-.22-1.98.25l-1.37-.16c-.02-.26,1.1-.4.19-.72-.73-.25-1.54-.22-2.17-.06l-.87-.11c-1.78-.21-1.85-.68-2.07-1.14-.13-.27-.53-.5-1.39-.56-.32-.02-.83.05-.93.14-.3.25.39.35.93.49,1.94.51-1.64.73.04,1.24-.46.4-1.55.29-2.58.24v-.3c.04-.29,1.61-.59-.02-.85-1.2-.19-2.07.12-1.85.62l-1.58-.11-2.16-.57c-.6-.38-.88-.74-.34-1.09.25-.16.2-.34-.5-.41-.84-.06-.98.16-1.12.36l-1.17-.25v-.65c2,.09,4.27-.04,5.56.89.49.35,1.24.22,1.38-.1.1-.23-.04-.51.82-.59,3.51-.35,7.11-.25,10.73.59,2.15,1.09,6.78,1.44,9.67.87Zm22.21,5.57c-.23-.04-.48.01-.72.02.18.1.34.24.55.29.22.05.5,0,.93.03-.35-.17-.55-.31-.76-.35Z"/><path d="m17.25,56.54c1.53.62,2.07,1.26,2.7,1.92.32.33-.12.62,1.16,1.02,1.04.3.94-.1.87-.44-.07-.32-.05-.62-.07-.92,1.21.46,2.4.97,3.62,1.4-.09.28-.66.47,1.01,1.07,1.25.46,1.78.8,1.6,1.16-.22.17-1.71-.34-1.09.24.21.21.76.53,1.15.66,1.31.41.57-.22.92-.31.19-.05.35-.12.62-.12.52,0,1.91.36,1.47-.04-.5-.44-1.6-.4-2.47-.76l.18-.51c3.51,1.12,6.87,2.34,10.22,3.55-.71.4-1.27,1-4.07-.36-.46-.22-1.25-.42-1.52-.26-.28.17.3.42.96.66.13.36.26.71.3,1.08l-1.03-.14.72.48c-2.46-.35-4.63-1.16-6.5-2.34-.41-.53-1.29-1.29-2.47-1.37-2.29-.1-5.44-2.63-7.22-2.25-1.8-1.16-3.87-2.04-5.73-3.21.42-.52-.95-1.47-2.21-2.1-1.12-.59-1.7-1.07-2.31-1.82.61-.24,2.11,1.43,3.05,1.6.34.07.95,1.18,1.6,1.06.39-.07-.41-.81-.84-1.36-.44-.55-.85-.86-1.72-1.25-.56-.23-1.13-.53-1.6-.93-.49-.38-.87-.87-1.04-1.45-.23-.67-1.16-1.28-1.73-1.67-.9-.75-.47.11-.1.71.54.98,1.17,1.91.69,2.12l-.65-.35c-.37-1.42-2.21-2.99-3.17-4.92-.43-.69-1.32-2.41-.45-2.13.13.1-.74-2.24-.86-2.33-.42-.1-.5-.83-.46-1.79l.06-.71c-.02-1.34.27-2.96.82-2.19.25.75.21.68.68-.24.2-.41.56-.91.71-.94.26-.06.17.29.04.71-.09.42-.25.9-.14,1.08-.23.83-.22,1.72-.24,2.54.01.41,0,.82,0,1.21,0,.39-.1.8-.16,1.19-.04.2.08.57.21.86.14.29.34.49.35.45.15-.35,1.12,1.72.79.11.22-.02.25.15.55.73.89,1.91,2.19,3.87,4.14,5.15-.37.65.17,1.18.93,1.67.77.47,1.75.89,2.37,1.35,1.47,1.02,2.88,1.21,4.44,2.25-.56.11-2.04-.03.9,1.2Zm6.55,3.68l-.41.02c.15.08.3.19.43.24.11.04.2,0,.3,0-.11-.08-.22-.16-.33-.24Z"/><path d="m191.98,7.55c-1.15-.02-2.43.02-3.69,0-1.26.04-2.49.16-3.54.33-.94,0-2.13.13-3.35.33-1.2.29-2.46.53-3.55.81-.62.16-.85.25-1.28.41-1.31.5-1.45,1.1.02.72,1.55-.39,2.04-.46,2.48-.38.45.06,1.23.05,2.65-.51.16-.05.77-.16,1.04-.19.65-.06,1.28-.14,1.92-.23.64-.05,1.27-.11,1.9-.16,1.26-.14,2.53-.16,3.82-.16.74-.02,1.48.02,2.21.07.74.05,1.48.07,2.21.14,1.47.18,2.94.29,4.39.58,2.92.45,5.79,1.22,8.59,2.16l.03-.14c-.47-.17-.85-.32-.94-.4-.85-.23-1.87-.5-2.57-.7-1.7-.43-3.83-.78-5.17-1.18-.2-.06-.72-.2-1.41-.34-.7-.11-1.56-.25-2.44-.39-1.76-.24-3.59-.34-4.21-.33-.21.01-.42.05-.39.07.29.19-.85.1-1.37.06-.63-.04-1.01-.14-1.56-.17-.31-.01-1.27.1-1.19.03.06-.05.61-.13,1.36-.2,1.57-.04,3.8-.02,4.01-.22Z"/><path d="m34.25,15.11c-1.45.61-3.25,1.07-4.06,1.91.45-.1,1.04-.14,1.33-.26,1.1-.51,2.11-1.07,3.11-.86.82.17-.08.69-.69,1.18-1.08.87-2.1.94-3.21.97-.69.01-1.76.31-2.21.65-1.52,1.18-2.47.96-3.59,1.11-.66.24-1.45.65-1.74.43-.06-.04.18-.3.31-.35.86-.34,1-.08,1.43-.08l1.47-1.67c-1.51-.29-2.92.84-4.32,1.63.15.24.15.51-.89,1.01.1.17.08.39.31.49.68.29-1.08.99-1.48,1.47-.11.13-.43.35-.6.27-.34-.17.18-.55.75-1.01.33-.26-.1-.46-.19-.69-.46.51-2.28.91-2.19,1.49.24-.04.83-.29.33.12l-.32-.13c-.88.3-.6-.4-1.62.14-.36.19-.46.7-.68,1.06.09.14.04.33-.4.67.05.04.11.08.18.11l.53-.27c1.03-.21,3.92-1.32.33.86-.23.15-.23.41-.33.63,1.55-.88,3.12-1.99,4.85-2.15.2-.03,2.2-1.46,3.7-2.1.32-.39.82-.64,1.71-1.03,2.63-1.13,5.61-1.65,8.05-3.01,1.24.24,2.9-1.01,4.12-1.05,1.18-.03,2.08-.21,3.34-.93,1.71-.98,2.62-.85,2.83-.27l3.03-.89c-.24-.34.53-.8,1.07-1.24-1.53-.11-3.13-.2-.28-1.48.36-.16.07-.26-.33-.23-1.1.71-3.01.65-3.93,1.25-2.12,1.39-1.87.51-2.28.26l-.64.22c0,.23-.31.47-1.04.71,0,.31-.46.56-1.17.81l.15.29c-.71.2-.65,0-.69-.14-1.47.14-3.57.73-4.02.12Z"/><path d="m223.93,22.2c-.45-.71-.8-1.19-1.11-1.5-.7-.64-1.5-1.41-.57.01.68,1.14,1,1.74,1.37,2.14.3.44.56.73.89,1.34.18.39.29.8.4,1.21l.33,1.22c-.04.62.18,1.44.27,2.34.04.45.08.91.11,1.35.02.44-.04.87-.08,1.24l-.21.02c.02-.36.04-.73.04-1.1-.04-.37-.08-.74-.12-1.1-.04-.73-.22-1.38-.23-1.92-.04-1.37-.6-2.72-1.34-4.12-1.5-2.76-3.7-5.11-6.27-6.94-2.58-1.84-5.45-3.28-8.42-4.47-.08-.11-.04-.18.73.05.39.13.76.33,1.13.49l.55.32c.16.11.34.19.53.23,3.64,1.76,4.13,2.09,2.93,1.05-.04-.03-.04-.05-.06-.07-.82-.39-1.47-.74-2.04-1.06-.59-.29-1.09-.57-1.58-.85-.98-.59-2.03-1.04-3.71-1.61-1.43-.38-3.3-.96-3.64-1.24.95.21,2.04.38,2.33.55.54.35,1.54.55,2.47.92,3.33,1.22,6.48,2.72,9.5,4.84,2.15,1.5,4.09,3.45,5.58,5.7,1.5,2.26,2.5,4.9,2.82,7.62.04.54.14,1.25.12,1.83-.04.58-.1,1.03-.23,1.06-.07-.32-.1-.73-.09-1.2-.03-.47-.06-1-.05-1.56.04-.69-.13-1.24-.22-1.73-.11-.49-.25-.91-.46-1.29-.32-1.34-.84-2.67-1.66-3.74Zm-4.48-4.65c.03-.07-.17-.4-1.02-1.02-.79-.64-2.12-1.32-2.2-1.29-.19.08,1.02.63,1.36.96.73.55,1.77,1.57,1.86,1.35Zm-2.02-2.32c-.56-.37-1.57-1.01-1.67-.93-.06.05.27.34.87.72.33.2.65.39.99.61.33.23.68.49,1.08.78-.53-.51-.81-.89-1.27-1.17Zm2.75,2.85l.27.28v-.06c-.22-.2-.24-.2-.27-.22Z"/><path d="m141.91.31c-1.6.15-2.85.01-4.65-.18-2.62-.29-5.89-.03-8.86.06-1.49.04-3.09-.21-4.47.22v.59c.34.26,1.19.65.19.8-2.95.42-2.52,1.47-4.54,2.02,1.09-.06,2.04-.22,2.89-.46.11,0,.2-.03.28-.06.11-.28-.37-.61.81-.79.93-.14,1.59-.05,1.73.29l.15.07-.14-.08c-1.37-.14-1.4.51-2.54.51-.07.03-.1.07-.08.11,1.31.59,2.88-.14,4.3-.02,1.8-.63,3.72-.61,5.66-.09.58.16.96.38,1.6,0,1-.57,2.44-.38,3.83-.19,1.99-.39,1.09-.97.61-1.54-.12-.15-.54-.35.16-.43.6-.06.95.1,1.19.27h.71c-.37-.46,1.54-.63,1.16-1.1Z"/><path d="m62.59,71.51c1.21.49,2.49.9,4.25.88,2.23-.24,4.53-.05,6.93.63.49-.18,1.36-.14,2.15-.16l1.29.27c-.14-.18-.35-.52-.41-.52-2.39-.11-3.91-.95-6.19-1.15-1.66-.15-3.17-.37-3.55-1.01-.01-.02-.18-.05-.27-.07-.32.02-.64.04-.96.06.19.68-1.47.4-2.74.15-4.15-.78-8.4-1.13-12.54-2.31-2.49-.73-2.66-.6-1.31-1.04.41-.13.7-.31,1.04-.47-2.42-.37-5.09-1.33-7.18-1.1.43.17.85.36,1.31.48.76.21,1.95.07,2.19.55.1.2-1.17.22-1.98.22-.43,0-1.19-.21-1.8-.35-.51-.12-1.06-.27-1.34-.16-.37.14.13.38.63.61.78.36.91.81,2.21,1.08,1.53.78,3.29,1.37,5.49,1.62,2.57-.07,5.44.48,8.35.98-.01-.16.15-.33.67-.23.92.16.29.32.47.49,1.31-.32,2.67-.79,3.28.56Z"/><path d="m210.84,12.44l.55.32.26.12.26.12c3.64,1.76,4.13,2.09,2.93,1.05-.04-.03-.04-.05-.06-.07-.82-.39-1.47-.74-2.04-1.06-.59-.29-1.09-.57-1.58-.85-.98-.59-2.03-1.04-3.71-1.61-1.43-.38-3.3-.96-3.64-1.24-1.07-.14-2.92-.66-3.75-.61.98.3-.04.32-.57.22-1.54-.28-.57-.27-.78-.41-.04-.03,0-.04.01-.06-.58-.21-1.39-.3-2.22-.38-.83-.07-1.67-.19-2.34-.27-.84.02-1.57-.03-2.2-.15-.22.2-2.44.18-4.02.22-.75.07-1.31.15-1.36.2-.09.08.88-.04,1.19-.03.55.03.93.13,1.56.17.52.04,1.66.13,1.37-.06-.03-.02.18-.06.39-.07.62-.01,2.45.09,4.21.33.88.14,1.74.28,2.44.39.69.15,1.21.28,1.41.34,1.34.4,3.46.75,5.17,1.18.7.21,1.72.48,2.57.7.83.21.84.31.94.4l-.03.14,1.17.44c-.08-.11-.04-.18.73.05.16.03.29,0,.48.09.62.26.59.32.65.4Z"/><path d="m113.89,3.9l-.05-.24c-.54-.45-.98-.88-1.65-1.28-1.44-.84-3.99-.75-6,.2-.25.12-.37.28-.68.36-1.16.29-1.18.98,0,1.15q.5.07.74-.39c.11-.22.06-.49.94-.57.27-.02.59.2.89.31,1.68.03,1.61.53,2.01.9-1.89.4-3.83.52-5.8.51.76-.7-1.18-.71-2.13-.98l-.96.47-1.98.42c-.04-.05-.05-.1-.04-.16,1.15-.86-.81-1.28-.82-1.97l1.21-.16s.01.08.07.09c.88.13.78.81,1.83.6,1.54-.29-.24-.66.02-1.04l.69-.5c2.96-.15,5.97-.57,8.88-.44l1.25-.1.08.41-.26.13.34-.11.79-.07c.4.01.98.18.95-.15l1.27-.26-.17.07-.2-.06c.9.42,3.07.27,3.72.99.3.34,3.02-.43,4.5-.8.25-.06.4-.16.6-.24.33.26,1.19.65.19.79-2.95.42-2.52,1.47-4.54,2.02-1.95.34-3.85.38-5.69.08Zm-8.54-1.57c-.07-.11-.21-.2-.33-.3-.08.06-.23.13-.22.19,0,.09.1.18.18.29.18-.08.39-.14.37-.17Z"/><path d="m21.19,20.77c1.04-.51,1.04-.78.89-1.01l-1.02.38-.75.37c-1.96.75-3.88,1.48-5.72,2.8-.75.54-1.88,1.21-2.92,1.64-1.15.44-3.06,1.77-3.32,2.07-1.46,1.53-2.95,2.93-4.33,4.5-1.39,1.55-2.7,3.28-3.56,5.39-.61,1.57-.43,2.71-.4,4.06.08,1.75.52,3.46,1.23,4.98.74,1.5,1.66,2.86,2.71,4.06,2.09,2.41,4.55,4.29,7.07,5.96.54.37,1.07.77,1.51.77.42-.52-.95-1.47-2.21-2.1-1.12-.59-1.7-1.07-2.31-1.82-.5-.08-1.13-.66-1.69-1.16l-.65-.35c-.37-1.42-2.21-2.99-3.17-4.92-.43-.69-1.32-2.41-.45-2.13.13.1-.74-2.24-.86-2.33-.42-.1-.5-.83-.46-1.79-.16-.24-.13-.5.07-.72-.03-1.33.26-2.94.81-2.17l.37-.96c.15-1.09.51-2.26,1.68-3.24.35-1.23.77-2.62,2.57-2.98.48-.42.96-.84,1.46-1.23.02-.63,1.13-1.31,1.96-1.91,1.22-.89,1.19-.44,1.42-.29,1.05-1.52,2.67-2.24,4.39-2.64.22-.36.32-.87.68-1.06,1.01-.54.74.16,1.62-.14-.1-.57,1.72-.96,2.18-1.47l1.21-.53Z"/><path d="m87.51,3.49c-.94-.23-1.96-.28-3.24.29.81.21,1.6.45.75.97-.66.41-1.27-.04-2.02.2-1.09-.5-1.61-.03-2.22.41-.7.5-1.42.69-2.01.24-1.78.39-1.42.84-1.68,1.27.34.41,1.81.35,2.57.59,1.26.24,2.84.1,4.32-.3,1.11-.31,2.08-.46,3.18-.53,1.07-.41-.17-.96,1.75-1.26,1.43-.18,1.25.32,1.51.6l1.26-.19c-.13-.28-.33-.55-.35-.84-.01-.19.57-.33,1.12-.39.48-.05.85.02.59.19-.38.25-1.47.56-.27.64.3.02,1.29-.46,1.97-.71.21-.09.31-.29.78-.16l-.79.15c.57.76,2.14.42,3.78.01.44-.73-2.12-.77-2.01-1.43-2.7.67-2.73.14-2.59-.48-1.09.23-2.05-.09-3.17.23.25.69-.9,1.38-2.8,1.57-2.64.27.77-.73-.18-.93-.13-.03-.16-.1-.24-.15Z"/><path d="m132.32,73.59l1.04-.08,2-.31.74-.08s-.04-.08-.07-.12c-.44-.02-.66-.07-.3-.21.05-.02.23-.04.29-.04.58.04-.02.17-.01.25,1.05-.06,1.82-.23,2.28-.49,1.48-.86,3.99-.51,3.96-.34-.1.55,1.55.33,2.77.32,1.49-.36,2.97-.71,4.48-1.07.66-.16,1.96-.28,1.55-.51-.33-.18-1.71.18-2.07.15-1.12-.08-2.74.77-3.42.27-.84.05-1.83.17-1.98-.08-.7.08-1.45.19-1.92.06-1.55.1-3.11.19-4.65.29-3.05.09-5.63.92-8.73.85l.02.35c.76-.05,1.54-.13,1.95.07-.04.2-.05.4-1.21.48l.57.41c.91-.04,1.81-.11,2.71-.17Z"/><path d="m47.87,11.59c.4-.02.7.07.33.23-2.85,1.28-1.25,1.37.28,1.48l1.13-.35-.17-.56-.16-.04.16.04c1.09-.09,3.23-1.13,3.27-.26,1.7-.54,3.46-.13,5.26-1.15.26-.14,1.52-.19,1.65.11l1.84-.34c.69-.65,2.96-1.36,2.37-1.98-.03-.03.38-.18.58-.28,1.6.84,1.89-.66,3.01-.68-.02-.06-.03-.13-.04-.19-3.39-.48-3.93.73-4.9,1.62l-.23.1.25-.1c-.65.05-1.83.24-1.87.14-.63-1.35-2.73.07-4.57.58-.96.27-1.98.58-2.99.84-1,.28-2,.46-2.93.39-.88.07-.88-.46-2.33,0l.07.4Z"/><path d="m149.52,2.05l-1.17-.25c-2.88-.22-2.82-.89-2.49-1.59-.95-.27-.91.13-1.38.19.82.97-.62,1.77-3.24,1.79.59.51.62,1-.03,1.47.65.52,1.21.19,1.79.03-.38-.12-.47-.29.05-.29.71,0,.58.22.65.38,1.49.75,3.74.35,5.36.38,2.65.03,5.5.65,8.04.24v-.3s-1.82-.23-1.82-.23c-.6.34-1.11.11-1.62-.11l-2.16-.57c-.17.28-.32.54-1.5.46-.79-.05-1.24-.27-1.61-.5-.86-.54.36-.79,1.15-1.1Z"/><path d="m145.56,71.34c.68.5,2.3-.35,3.42-.27.36.02,1.74-.34,2.07-.15.4.22-.89.34-1.55.51-1.51.36-2.99.72-4.48,1.07l.58.18.74-.08c2-.64,4.62-.78,6.9-1.22.52-.23.37-.36.08-.5-.51-.24.18-.47,1.65-.67v-.14c0-.19.42-.34,1.33-.46.19-.03.36-.06.54-.11-.2-.1-1.06-.11,0-.39l-.07-.13c-1.8.26-3.61.44-5.41.65-1.8.23-3.61.46-5.41.76.62.25,1.73.45-.38.94Z"/><path d="m93.21,74.48c.76.02.66.72,2.03.24,1.03-.36,1.96.23,2.98.12.31-.65,1.66-.47,3.09-.21,1.21.23,2.22.14,3.14-.06.95-.21,1.38-.46.38-.78-1.35-.06-2.58-.32-4.03-.21-4.51.29-5.02.28-8.6-.44-.09-.02-.26-.04-.28-.04-1.87.54-4.61-.53-6.51-.11.16.32.15.66,1.41.91.06-.22.36-.22,1.23-.14,1.83.18,3.54.41,5.17.72Z"/><path d="m145.56,71.34c2.11-.49,1-.69.38-.94-1.43,0-2.4-.16-4.37.44-1.43.42-4.37.41-6.7.58-1.57.13-3.17.29-4.79.4-1.61.09-3.24.15-4.83.13-1.4-.01-2.32.02-2.15.45.17.42,1.3.37,2.55.22l2.62-.16c3.09.07,5.68-.76,8.73-.85,1.54-.1,3.1-.19,4.65-.29.37-.1.77-.27,1.09-.29.71-.05.79.1.83.24.16.25,1.14.13,1.98.08Z"/><path d="m62.48,9.25c.96-.89,1.51-2.1,4.9-1.62l2.49-.73c.65-.27,1.32-.55,1.09-.83-1.29-.28-2.78.39-4.08.65-2.5.44-4.97,1.03-7.46,1.56-2.48.57-4.98,1.08-7.41,1.9-1.3.44-1.44.67-1.88,1.03.93.07,1.93-.11,2.93-.39,1.01-.26,2.04-.57,2.99-.84,1.84-.51,3.94-1.93,4.57-.58.05.1,1.22-.09,1.85-.14Z"/><path d="m50.3,66.77c-.34.16-.63.34-1.04.47-1.35.44-1.18.31,1.31,1.04,4.14,1.18,8.39,1.53,12.54,2.31,1.26.25,2.93.53,2.74-.15-2.28-.99-4.86-1.29-7.75-1.41-1.86-.08-3.23-.48-2.75-1.12-1.89-.02-3.3-.85-5.04-1.13Z"/><path d="m85.41,72.99c1.91-.42,4.64.65,6.52.11.02,0,.19.02.28.04,3.58.72,4.08.73,8.6.44,1.45-.11,2.68.15,4.03.21-.56-.55-1.18-1.1-3.38-1.42l-1.63.3c-.61.33-1.53.26-2.83.15-1.58-.14-3.51-.15-4.87-.29-2.76-.25-5.26.21-7.87-.38l.64.79c.18.01.35.03.52.06Z"/><path d="m117.88,72.85c-.82.5-1.49,1.01,1.85.95,1.07-.02.4.21.33.34-1.63.38-3.46.23-4.63.04-2.98-.48-3.65-.02-4.29.57l-.61.03c-1.96-.29-5.18-.44-2.12-1.29.55-.15.54-.44.78-.66,1.68,0,3.36-.02,5.04-.03,1.09,0,1.9-.03,2.01-.36l1.87.02c-.07.13-.04.26-.22.38Zm-5.36.53c-.07-.01-.18-.01-.34.04.09,0,.19.01.34-.04Z"/><path d="m205.47,8.26c.79.87,4.29.68,4.07,1.59-.11.45-1.56.7-2.25,1.12-.72.44-3.25.02-5.23-.51-.89-.24-1.7-.62-2.59-.84-.86-.23-1.86-.75-2.56-.53-.75.26,1.68.52,1.15.88,2.78,1.34,6.61,1.31,9.48,2.67.9.43.84-.26,1.64-.18.81-.09-2.46-1.19.34-.79,1.09-.52,3.59-.23,3.46-1.27-.55-.21-1.29-.4-1.63-.63-.84-.56-.56-1.67-3.17-1.15-.01,0-.21-.11-.47-.25-.26-.14-.58-.29-.84-.38-1.5-.52-3-.76-4.37-.68.26.97,2.16.47,2.98.94Z"/><path d="m212.94,13.21c.74.23,1.25.5,1.58.85.41.43,1.04.89,1.78,1.2.74.3,1.57.48,2.35.45,1.4-.04,2.75-.35,3.09-.97.63-1.16-.89-2.02-4.61-2.79-.91-.18-1.94-.8-2.91-1.22-1.25.25-.96.92.14,1.6,1.11.69,2.29.71,3.28.49.36-.08,1.89.05,1.63.5-.23.41.5,1-.14,1.28-.4.17-.65.46-1.65.26-1.04-.2-1.41-.59-1.44-.93-.04-.36-.12-.66-1.26-.93-1.11-.26-1.73-.21-1.82.2Z"/><path d="m84.24,72.14c2.61.59,5.11.13,7.87.38,1.37.14,3.29.15,4.87.29,1.3.11,2.22.18,2.83-.15-2.2-.96-5.53-.58-8.27-.81-4.08-.29-8.3-.2-12.22-1.14l-.35.2c.56.33,2.61.84-.56.66-1.04-.06-1.65.18.12.46,1.9.05,3.33-.56,5.71.11Z"/><path d="m44.39,15.44c-.21-.58-1.12-.7-2.83.27-1.26.72-2.15.9-3.34.93-1.21.03-2.88,1.29-4.12,1.05-2.43,1.36-5.41,1.87-8.05,3.01-.89.39-1.39.64-1.71,1.03,2.62-.51,5.26-1.48,8.14-2.53,1.84-.65,3.72-1.29,5.82-1.72,1.83-.35,4.01-1.44,6.09-2.03Z"/><path d="m167.32,5.04l-1.37-.16-1.98-.79-.87-.11-2.87.25c.79.6,2.02.83,3.35,1.03,1.32.19,2.75.26,3.94.4,2.35.28,4.73.48,7.11.65,2.37.25,4.75.49,7.12.74l1.29-.05c-2.02-1.06-4.31-1.49-6.88-1.19-2.04-.07-4.22.15-5.26-1.02l-.92-.08h-.66c0,.14.01.22.03.29l.18.18-.44-.12-1.78-.03Z"/><path d="m168.35,67.17c1.79-.31,3.6-.57,5.36-1.11,1.42-.32,2.78-.63,3.87-.68.95-.25,1.42-.37,1.9-.49,2.27-.55,4.39-1.34,6.82-1.87,1.27-.26,1.81-.81,2.11-1.14-6.7,2.02-13.51,3.62-20.35,5.13l.3.17Z"/><path d="m120.06,74.14c-1.63.38-3.46.23-4.63.04-2.98-.48-3.65-.02-4.29.57,2.45.06,4.91.11,7.37.09,2.45-.08,4.91-.18,7.35-.56,1.18-.18,1.94.11,2.9,0,1.32-.13,3.38-.11,3.58-.69-.9.06-1.81.14-2.71.17l-4.46.13c-1.7.11-3.4.16-5.09.25Z"/><path d="m213.45,50.97c.04.16.51.08-1.22,1.22-1.07.71-1.99,1.31-1.66,1.42,2.3-1.33,4.51-2.83,6.56-4.61,2.05-1.77,3.95-3.8,5.43-6.19l-.12-.05-.19.1c-.05.09-.12.18-.19.27-.49.79-1.01,1.57-1.36,1.62-.11.13-.21.26-.32.39-.45.48-.88.96-1.37,1.39-.08.33-.51.85-1.35,1.48-.88.74-1.62,1.72-2.57,2.2-.31.16.04-.24.45-.62v-.09s-.62.24-.62.24c-1,.55-.91.84-1.47,1.25Z"/><path d="m110.52,74.78c-1.96-.29-5.18-.44-2.12-1.29.55-.15.54-.44.78-.66-.93-.05-.62-.23-.68-.37l-1.25.03c.38.36-1.23.5-1.28.81l.84.08c-.06.02-.18.06-.18.06-.23-.05-.45-.09-.67-.13-1.11-.24-.42-.55-.65-.83-1.25-.44-2.53-.54-3.87-.12,2.2.32,2.82.87,3.38,1.42,1,.32.58.56-.37.78-.92.2-1.93.29-3.14.06-1.43-.26-2.79-.44-3.09.21,1.61.12,3.25.07,4.88.08,1.63,0,3.25.03,4.85.16,1.26.11,1.92-.07,2.57-.29Z"/><path d="m78.53,72.03c-1.77-.27-1.16-.52-.12-.46,3.18.18,1.13-.33.56-.66-.57.29-1.54-.06-2.3-.09.06.24-.55.5-1.01.36-2.26-.7-3.97-.16-5.97-.47-1.11.16-1.14-.09-1.19-.33-1.05-.43-1.35-.21-1.7-.02.09.02.26.05.27.07.37.64,1.88.86,3.55,1.01,2.28.2,3.8,1.04,6.19,1.15.06,0,.27.34.41.52l2.45.56,1.3.32.2-.48c-2.81-.35-2.92-.91-2.63-1.5Z"/><path d="m44.34,68.1c-1.29-.28-1.42-.72-2.21-1.08-.5-.23-1-.47-.63-.61.29-.1.83.05,1.34.16.61.14,1.37.35,1.8.35.81,0,2.08-.02,1.98-.22-.24-.48-1.43-.34-2.19-.55-.46-.13-.88-.31-1.31-.48-.51-.44-1.11-.29-1.67-.41-.96-.08-2-.14-1.81.24.76,1.47-2.14.73-4.75.06.24.34,1.61.64,1.63.99,1.09.19,2.12.51,3.15.85,1.03.32,2.06.66,3.15.9,1.57.33,1.29-.01,1.52-.21Z"/><path d="m69.69,70.73c2,.31,3.72-.23,5.97.47.46.14,1.07-.12,1.01-.36-4.02-.45-8.02-.9-12.04-1.35-2.01-.24-4.11-.66-6.06-1.12-1.19-.26-2.16-.38-3.23-.47-.48.64.89,1.04,2.75,1.12,2.89.12,5.47.42,7.75,1.41.32-.02.64-.04.96-.06.34-.19.64-.41,1.69.02l1.19.33Z"/><path d="m120.06,74.14c1.7-.08,3.4-.14,5.09-.25l.04-.32c-.69.04-1.31.01-1.21-.19.1-.19.8-.23,1.43-.27.23-.17.24-.33.24-.49-1.26.15-2.39.2-2.55-.22-1.63-.13-3.3-.08-5,.06-.07.13-.04.26-.22.38-.82.5-1.49,1.01,1.85.95,1.07-.02.4.21.33.34Z"/><path d="m69.87,6.89l-2.49.73.04.2.15.05-.15-.05c-1.12.02-1.41,1.52-3.01.68-.2.1-.61.25-.58.28.6.61-1.68,1.33-2.37,1.98.18.19.73.03,1.23-.07.59-.46,1.65-.6,2.57-.84.71,0,.98-.89,1.46-.41.51.51,1.57-.08,2.24-.06,1.02-.6,1.56-.47,2-.18.67-.04,1.51.2,1.82-.41l.22-.37c-.79,0-1.23-.25-2.31-.03-.76,0-.52-.27-.62-.45-3.42.28.31-.78-.2-1.04Z"/><path d="m220.45,43.57c.76-.76,1.61-1.69,2.27-2.49.37-.4.76-.92,1.08-1.54.35-.61.69-1.28.92-1.99.12-.35.23-.7.35-1.03.09-.34.14-.69.2-1,.11-.64.19-1.2.13-1.63-.31,1.53-.85,3.18-.83,2.04-.96,2.8-2.54,5.31-4.12,7.65Z"/><path d="m70.08,7.94c-3.42.28.31-.78-.2-1.04.65-.27,1.32-.55,1.09-.83,1.91-.42,3.85-1.36,5.72-.94.09.03.13.07.1.12-2.42,1.08-2.47,1.99-2.18,2.86l-1.6.32c-.79,0-1.23-.25-2.31-.03.03-.22.02-.43-.62-.45Zm1.89-1.02c-.42-.02-.77.22-.63.31.3.17-.9.85,1.02.48.94-.28.84-.41.11-.45-.16-.12-.18-.33-.51-.34Z"/><path d="m26.4,18.13c.57-.2,1.17-.02,1.7-.57,1.19-1.2,1.54-.65,2.09-.55.45-.1,1.04-.14,1.33-.26,1.1-.51,2.11-1.07,3.11-.86.82.17-.08.69-.69,1.18-1.08.87-2.1.94-3.21.97-.69.01-1.76.31-2.21.65-1.52,1.18-2.47.96-3.59,1.11.49-.56.98-1.11,1.47-1.67Zm7.04-1.65s-.21.09-.21.12c-.01.06.04.09.07.14l.45-.23c-.1-.01-.19-.03-.3-.03Z"/><path d="m202.98,57.63c-2.34,1.17-4.91,2.09-6.97,3.27-.52.29-1.34.49-1.91.64-1.04.26-1.7.53-2.18.9,2.2-.38,4.65-1.48,6.93-2.52,2.94-1.35,5.86-2.33,8.62-4.14.4-.27.9-.56,1.04-.75-.68.15-1.68.66-2.77,1.38-1.3.9-2.04,1.08-2.76,1.23Z"/><path d="m212.94,13.21c.09-.4.71-.46,1.82-.2,1.15.27,1.23.58,1.26.93.03.34.41.73,1.44.93,1,.2,1.25-.09,1.65-.26.65-.28-.09-.87.14-1.28.26-.46-1.27-.59-1.63-.5-.99.23-2.17.2-3.28-.49-1.1-.68-1.39-1.35-.14-1.6-.37-.26-.77-.44-1.24-.33.13,1.04-2.37.75-3.46,1.27.61.33,1.16.69,1.11,1.04l2.31.5Z"/><path d="m15.5,23.98c-1.72.4-3.33,1.12-4.39,2.64-.53,1-3.05,2.77-2.95,3.7l.59.35c.95-.53,1.68-1.16,2.26-1.89.05-.18-.39-.08.11-.52l.37.18c.17-.07.34-.17.51-.3,2.09-1.49,1.09-2.12,3.1-3.48.44-.33.49-.52.4-.67Z"/><path d="m145.6,72.68l-.58-.18c-1.21,0-2.87.23-2.77-.32.03-.17-2.48-.52-3.96.34-.47.27-1.23.44-2.28.49.05.03.07.07.09.11v.45c3.13-.12,6.27-.09,9.5-.89Z"/><path d="m175.33,67.5c.17-.37-1.21-.14-2.32.06-2.41.4-5.21.79-7.27,1.4-1.43.41-2.4.61-3.82.86-.86.15-.34.31-.39.45,1.52-.24,3.02-.47,4.54-.71,1.51-.27,3.03-.62,4.59-1.06,1.35-.37,3.1-.66,4.67-1Z"/><path d="m49.62,12.95l-1.13.35c-.54.44-1.31.9-1.07,1.24,3.14-.53,6.28-2,9.57-2.09,1.32-.06,1.53-.91,2.63-1.36-.13-.3-1.4-.25-1.65-.11-1.79,1.02-3.56.6-5.26,1.15-.82,1.44-2.09.38-3.09.82Z"/><path d="m2.03,36.27l-.37.96c.25.75.21.68.68-.25.2-.41.56-.91.71-.94.26-.06.17.29.04.71-.09.42-.25.9-.14,1.08.25-.37.52-.71.81-1.04.3-.57.65-1.12,1.04-1.65.51-1.24,1.23-2.45,2.05-3.6-1.23.8-1.81,1.26-1.91,1.06-.1-.19.28-1.05,1.33-2.56-1.8.36-2.22,1.75-2.57,2.98-.34.5-.33,1.05-.48,1.55-.13.54-.39,1.03-1.19,1.69Z"/><path d="m34.89,65.56c2.61.67,5.51,1.41,4.75-.06-.19-.38.85-.32,1.81-.24-.13-.68-1.56-.52-2.32-.81-.71.4-1.27,1-4.07-.36-.46-.22-1.25-.42-1.52-.26-.28.17.3.42.93.64l.29.05-.26-.03.39,1.07Z"/><path d="m76.69,5.13c.09.03.13.07.1.12.33.27,2.27-.21,1.98.35.6.46,1.32.26,2.01-.24.61-.44,1.13-.91,2.22-.41.74-.24,1.36.21,2.02-.2.84-.52.05-.76-.75-.97-2.58.32-5.42.14-7.58,1.35Z"/><path d="m115.12,1.05c.9.42,3.07.27,3.72.99.3.34,3.02-.43,4.5-.8.25-.06.4-.16.6-.24V.41c-2.32-.35-4.44.5-6.73.35l-1.68.15c-.22.02-.36.06-.41.13Z"/><path d="m212.49,50.73c.45-.12,1.88-.97,3.33-2.02,1.44-1.05,2.83-2.38,3.43-3.09,1.12-1.46.19-.72.3-1.11-.69.91-1.47,1.78-2.36,2.43-.19.14-.83.63-.85.68-.88,1.23-2.54,2.15-3.84,3.11Z"/><path d="m205.47,8.26c-.81-.47-2.72.03-2.98-.94-.82-.58-1.75-.55-2.68-.58-1.61.32-3.92-.41-5.73-.4.29.43.16.86,2.1.82,1.17,0,2.81.31,4.22.6l.83-.11.22.18-1.01-.05c1.13.4-2.71.99,1.65,1.28.22-.31-.24-.9,1.45-.6.4-.22,1.9.26,1.92-.21Z"/><path d="m176.52,66.87c-.02.07.21.09-.32.24,3.8-.85,7.89-1.58,10.9-3.28l-.13-.11-2.43.74c-2.65.85-5.31,1.67-8.02,2.41Z"/><path d="m194.09,6.35c1.82-.01,4.12.72,5.73.4-.06-.76-1.57-.43-2.27-.63-2.7-.72-5.58-1.04-8.38-1.34.36,1.32,3.19,1.1,4.92,1.57Z"/><path d="m148.35,1.15c2,.09,4.27-.04,5.56.89.49.35,1.24.22,1.38-.1.1-.23-.04-.51.82-.59.32-.65-1.38-.57-2.27-.66-1-.1-2.01-.18-3.02-.25l-3.04-.1c.15.27-.37.57.58.8Z"/><path d="m138.07,3.11c-1.39-.19-2.83-.38-3.83.19-.65.37-1.02.15-1.6,0-1.94-.52-3.86-.54-5.66.09,1.81.57,4.05.47,6.24.4,1.61-.05,3.21-.14,4.82-.21l.02-.46Z"/><path d="m16.35,55.33c-.56.11-2.04-.03.9,1.2,1.53.62,2.07,1.26,2.7,1.92.32.33-.12.62,1.16,1.02,1.04.3.94-.1.87-.44-.07-.32-.05-.62-.07-.92-1.89-.86-3.75-1.78-5.56-2.78Z"/><path d="m93.9,2.76c-.14.62-.11,1.15,2.59.48l1.88-.61,1.21-.16c.5-.26,1.22-.32,1.92-.36l.69-.5c.02-.41-.82-.24-1.49-.12-2.27.42-4.53.84-6.8,1.26Z"/><path d="m3.77,36.79c-.29.32-.56.67-.81,1.04-.23.83-.22,1.72-.24,2.54.01.41,0,.82,0,1.21,0,.39-.1.8-.16,1.19-.04.2.08.57.21.86.14.29.34.49.35.45.15-.35,1.12,1.72.79.11-.3-.57-.43-1.2-.57-1.83-.05-.64-.11-1.27-.06-1.89.07-1.26.36-2.42.47-3.68Z"/><path d="m94.74,4.66c-.68.25-1.67.73-1.97.71-1.2-.08-.11-.39.27-.64.26-.17-.11-.24-.59-.19-.55.06-1.13.19-1.12.39.02.29.22.56.35.84,2.36.31,4.94-.11,7.51-.48l.03-.52c-.04-.05-.05-.1-.04-.16l-.69.06c-1.64.41-3.2.74-3.76,0Z"/><path d="m15.1,24.64c-2.01,1.36-1.01,2-3.1,3.48,1.36-.33,2.67-.65,3.8-2.16.1-.22.1-.48.33-.63,3.59-2.18.7-1.06-.33-.86-.03.17.16.27-.51.62l-.03-.35c-.06-.03-.12-.07-.18-.11Z"/><path d="m27.99,63.56c-.41-.53-1.29-1.29-2.47-1.37-2.29-.1-5.44-2.63-7.22-2.25,3.17,1.6,6.42,2.75,9.68,3.62Z"/><path d="m79.67,73.69l-2.45-.56-1.28-.27c-.04.44-1.11.3-2.15.16-2.41-.68-4.7-.88-6.93-.63.18.21.83.49,1.28.49,3.76,0,7.87,1.12,11.54.82Z"/><path d="m193.59,9.37c0-.73-.32-1.33-2.83-1.14-1.86.14-3.95-1.27-5.81-.76.62.33,1.28.57,1.98.76.69.21,1.42.37,2.16.49,1.48.25,3.03.39,4.51.65Z"/><path d="m160.62,68.53c.91.29,2.62.28,4.49.2-.44-.37.44-.87,1.61-1.44-1.31.03-2.41.4-3.57.7-.57.45-1.63.41-2.53.53Z"/><path d="m166.84,1.95c2.15,1.09,6.78,1.44,9.67.87-2.7-.75-5.52-.61-8.27-.89-.11.42-.77.2-1.39.02Z"/><path d="m38.81,14.83c.7-.25,1.17-.5,1.07-.74l-.82.12-.24-.15.6-.12.55.08c.73-.24,1.04-.47,1.04-.71-2.26.63-4.4.64-6.77,1.79.44.61,2.55.01,4.02-.12l.54-.15Z"/><path d="m58.17,70.7c-2.9-.5-5.77-1.05-8.35-.98.91.51,1.8.82,3.32.78,1.92-.08,4.14.71,6.22.87l-.05-.42c-.37-.08-.75-.16-1.13-.25Z"/><path d="m141.24,2.2c2.62-.02,4.06-.82,3.24-1.79l-2.57-.1c.38.47-1.52.64-1.16,1.11.74.24.42.52.49.78Z"/><path d="m6.86,31.54c-.83,1.15-1.54,2.36-2.05,3.6,1.36-1.51,2.9-2.72,3.95-4.48l-.59-.35c-.44.4-.89.8-1.31,1.22Z"/><path d="m74.61,8.11l-1.6.32-.22.37c2.36-.31,4.78-.46,6.88-1.34-.76-.24-2.23-.18-2.57-.59-.44.16-.81.3-1.18.43-.05.29-.06.59-1.3.82Z"/><path d="m138.07,3.11l-.02.46,3.16.1c.66-.47.63-.96.03-1.47-1.55-.09-1.18-.47-1.2-.78-.24-.17-.59-.33-1.19-.27-.71.07-.29.28-.16.43.48.56,1.38,1.15-.61,1.54Z"/><path d="m47.87,11.59l-.07-.4c-2.12.54-4.6.59-6.15,1.91.41.25.17,1.13,2.28-.26.92-.6,2.83-.54,3.93-1.25Z"/><path d="m81.17,73.53l-.2.48c2.45.52,4.72.36,7.02.32l-1.17-.43c-1.26-.25-1.26-.59-1.41-.91-.17-.03-.34-.05-.52-.06-.05.67-.48,1.2-3.72.6Z"/><path d="m109.18,72.83c1.68,0,3.36-.02,5.04-.03,1.09,0,1.9-.03,2.01-.36-2.25-.38-4.73.05-7.06-.11,0,.16-.01.32.02.49Z"/><path d="m86.82,73.9l1.17.43c1.81.32,3.69.84,5.22.15-1.63-.31-3.34-.54-5.17-.72-.87-.08-1.17-.08-1.23.14Z"/><path d="m87.51,3.49c.08.05.11.12.24.15.95.2-2.46,1.2.18.93,1.9-.2,3.05-.89,2.8-1.57-1.13.02-2.36-.19-3.22.5Z"/><path d="m202.98,57.63c.72-.15,1.46-.33,2.76-1.23,1.09-.72,2.09-1.23,2.77-1.38.38-.25.9-.53.99-.7l-1.14.29c-.88.48-1.75.96-2.63,1.44-.87.49-1.74.96-2.64,1.39l-.13.2Z"/><path d="m224.57,35.92c-.02,1.14.51-.51.83-2.04.11-.56.18-1.03.22-1.41,0-.39-.04-.69-.08-.94l-.21.02c0,1.45-.28,2.9-.76,4.37Z"/><path d="m153.24,71.38c-2.28.44-4.9.58-6.9,1.22,2.35.08,4.62-.64,6.93-.94l-.03-.27Z"/><path d="m8.61,50.07c-.37.65.17,1.18.93,1.67.77.47,1.75.89,2.37,1.35.09-.3.64-.34-.95-1.27-.8-.46-1.59-1.13-2.35-1.75Z"/><path d="m90.42,5.96c-.26-.28-.08-.78-1.51-.6-1.92.3-.67.85-1.75,1.26,1.6.32,2.17-.47,3.26-.66Z"/><path d="m160.23,4.24l2.87-.25c-1.78-.21-1.85-.68-2.07-1.14-.13-.27-.53-.5-1.39-.56-.32-.02-.83.05-.93.14-.3.25.39.35.93.49,1.94.51-1.64.73.04,1.24.18.04.36.07.56.08Z"/><path d="m226.32,32.78c-.07.65-.25,1.41-.51,2.09-.26.68-.43,1.35-.37,1.9.25-.21.34-.33.48-.83.07-.25.14-.6.23-1.1.1-.5.1-1.19.17-2.07Z"/><path d="m108.09,3.44c1.68.03,1.61.53,2.01.9,1.31-.07,2.76.11,3.79-.45l-.05-.24c-.95-.06-2.58.28-2.76-.12-.39-.87-1.71-.39-2.99-.1Z"/><path d="m104.29,4.86c.76-.7-1.18-.71-2.13-.98l-.96.47-.7.91c1.31-.04,2.41-.58,3.79-.41Z"/><path d="m28.73,61.41l.18-.51c-1.07-.53-2.1-1.11-3.39-1.4-.09.28-.66.47,1.01,1.07,1.25.46,1.78.8,1.6,1.16.6.07.49-.17.6-.32Z"/><path d="m166.72,67.29c-1.17.57-2.05,1.07-1.61,1.44,1.24-.5,3.06-1.09,3.24-1.56l-.3-.17-1.34.29Z"/><path d="m148.35,1.15c-.94-.23-.42-.53-.58-.8l-1.92-.14c-.33.7-.39,1.36,2.49,1.59v-.65Z"/><path d="m59.31,70.95l.05.42c1.23.22,2.3.25,3.23.14-.61-1.35-1.97-.88-3.29-.56Z"/><path d="m199.09,57.97c.02.07-.06.18.08.19.39.02-1.15,1.06.66.27,1.6-.7.1-.37.27-.61.05-.07.57-.33.87-.5-.44.05-.85.08-1.87.65Z"/><path d="m160.62,68.53c.9-.12,1.96-.08,2.53-.53l-1.38.18c-.52.11-.96.17-1.22.1l-2.53.52.56.06,2.05-.32Z"/><path d="m198.75,8.35s-.06.03-.01.06c.2.13-.76.13.78.41.52.1,1.55.08.57-.22l-1.33-.24Z"/><path d="m105.98,73.3c.05-.31,1.66-.45,1.28-.81-.65,0-1.3,0-1.95,0,.23.27-.46.58.67.82Z"/><path d="m210.62,12.72c.04-.35-.5-.7-1.11-1.04-2.8-.4.47.7-.34.79.1.09.26.14.46.16.27.06.55.1.82.17.17.02.23,0,.17-.08Z"/><path d="m114.22,1.28l1.27-.26c-.59-.42-2.14-.24-3.11-.36l-.05.4.08.41c.35,0,.61-.03.87-.05.08-.24.52-.19.95-.15Z"/><path d="m36.52,66.55c-.01-.35-1.39-.65-1.72-.99l-1.03-.14.72.48c.62.3,1.29.53,2.03.65Z"/><path d="m70.97,9.2c-.44-.29-.98-.42-2,.18.56.1.87.58,2-.18Z"/><path d="m135.36,73.2l-2,.31c-.06.41,1.04.22,2.03.1l-.03-.41Z"/><path d="m65.26,9.85c-.92.24-1.99.37-2.57.84,1.42.1,2.08-.31,2.57-.84Z"/><path d="m191.99,7.55c.63.12,1.36.17,2.2.15-.7-.07-1.11-.33-2.2-.15Z"/><path d="m158.58,68.85l-.56-.06-1.26.2.07.13c.59.06,1.17-.01,1.74-.27Z"/><path d="m122.68,3.4s.01-.07.08-.11c-.09.03-.18.05-.29.06-.05.15-.11.3-.16.45l.38-.4Z"/><path d="m160.55,68.27c.26.06.7,0,1.22-.1-.02-.22-.44-.18-1.22.1Z"/><path d="m143.69,3.78c-.07-.16.06-.39-.65-.38-.52,0-.42.17-.05.29l.7.08Z"/><path d="m112.33,1.07l.05-.4c-.65.11-1.1.28-1.3.51l1.25-.1Z"/><path d="m115.53.91l1.68-.15c-.72-.23-1.28-.19-1.68.15Z"/><path d="m109.15,72.82l.02-.48c-.42-.03-.64,0-.66.12.06.14-.25.32.65.37Z"/><path d="m11.49,28.43l-.37-.18c-.5.44-.07.34-.11.52.18-.09.34-.21.48-.35Z"/><path d="m166.84,1.95c.62.17,1.28.39,1.39-.02-.57-.12-1.14-.23-1.39.02Z"/><path d="m210.46,12.8c-.27-.07-.55-.11-.82-.17l.44.37.39-.2Z"/><path d="m203.1,57.42c.9-.43,1.77-.9,2.64-1.39.87-.48,1.75-.96,2.63-1.44.6-.36.83-.56.83-.67l-.08-.3c-.96.53-1.32.64-1.06.3.12-.16.29-.37-.34-.02-.37.2-1.13.72-1.11.74.32.3-2.22,1.71-3.15,2.4-.19.15-.24.25-.36.37Z"/><path d="m225.58,25.95c-.32-1.34-.84-2.67-1.66-3.74,1.08,2.04-.07.52.58,1.98.18.39.29.8.4,1.21l.33,1.22c.08-.35-.21-1.71.35-.67Z"/><path d="m177.58,65.37c-1.1.05-2.45.36-3.87.68.07.13-.09.34.28.35.49.02-1.33.65.37.28,1.18-.26.9-.4.73-.53-.08-.06-.14-.3.68-.25,1.5.1,1.06-.43,1.81-.53Z"/><path d="m219.01,46.52c.49-.43.92-.91,1.37-1.39.09-.26,1.1-1.57.06-.54-.55.55-.88.94-1.08,1.25-.22.29-.3.5-.35.67Z"/><path d="m215.54,49.58c-.41.39-.75.79-.45.62.95-.47,1.69-1.46,2.57-2.2-.26-.13-1.3.94-2.12,1.57Z"/><path d="m184.53,64.46l2.43-.74c-.19-.15-.99-.01-1.95.31-.75.25-.46.32-.48.44Z"/><path d="m156.83,69.51c-.17.04-.35.07-.54.11l-.03.26c.76-.14,1.7-.23,2.01-.51l-1.44.15Z"/><path d="m220.7,44.74c.35-.06.87-.83,1.36-1.62l-.18-.05c-.39.57-.74,1.16-1.18,1.68Z"/><path d="m210.82,52.08c-.13.06-.24.11-.36.17l-.26.27c.14-.08.32-.16.42-.24.1-.07.13-.13.2-.2Z"/><path d="m179.48,64.88l-1.43.37c.2.02.36.09.6.04.7-.16.66-.28.83-.41Z"/><path d="m214.92,49.72l.61-.24c.66-.72.07-.25-.61.24Z"/><path d="m221.88,43.07c.2-.29.52-.69.45-.73-.02,0-.19.17-.27.28-.35.48-.19.38-.18.45Z"/><path d="m209.12,53.63l.08.3c.66-.52.66-.64-.08-.3Z"/><path d="m193.3,60.8s.12,0,.21-.02c-.03-.04-.12,0-.21.02Z"/><path d="m154.98,70.07v.14s1.27-.34,1.27-.34c-.42.07-.84.13-1.27.2Z"/><path d="m213.44,50.98l-.14.05c.05-.02.1-.04.14-.05Z"/><path d="m222.25,42.85l.19-.1c.29-.49.19-.41-.19.1Z"/><path d="m149.52,2.05c-.79.31-2.01.56-1.15,1.1.37.23.81.45,1.61.5,1.18.08,1.32-.18,1.5-.46-.6-.38-.88-.74-.34-1.09.25-.16.2-.34-.5-.41-.84-.06-.98.16-1.12.36Z"/><path d="m203.55,8.47c-1.69-.3-1.23.29-1.45.6.61.17,1.52.2,1.51.66,0,.23.54.61,1.11.66.58.05,1.16-.1,1.41-.28.41-.29-.71-.36-1.03-.53-.62-.35-1.04-.73-1.54-1.1Z"/><path d="m170.9,4.8c1.04,1.17,3.22.95,5.26,1.02-1.4-.8-3.06-1.19-5.26-1.02Z"/><path d="m169.32,4.7h.66c.12-.03.19-.11.35-.13,1.25-.14,2.09-.35.89-.94-.32-.16-1.21-.38-1.08-.15.31.54-3.72.32-.82,1.22Z"/><path d="m155.26,3.87l1.83.23c.04-.29,1.6-.59-.02-.85-1.2-.19-2.07.12-1.81.62Z"/><path d="m163.96,4.1l1.98.79c-.03-.26,1.1-.4.18-.73-.73-.25-1.54-.22-2.17-.06Z"/><path d="m199.48,8.74c-.35-.17-.55-.31-.76-.35-.23-.04-.48.01-.72.02.18.1.34.24.55.29.22.05.5,0,.93.03Z"/><path d="m167.32,5.04l1.78.03c.09-.02.17-.04.26-.06l-.06-.22c-.8,0-1.95-.22-1.98.25Z"/><path d="m153.64,3.76c.51.22,1.02.45,1.58.11l-1.58-.11Z"/><path d="m195.48,9.13c-.17-.08-.26-.07-.36-.05.06.03.12.06.36.05Z"/><path d="m6.36,51.65c.56.49,1.19,1.08,1.69,1.16.61-.24,2.11,1.43,3.05,1.6.34.07.95,1.18,1.6,1.06.39-.07-.41-.81-.84-1.36-.44-.55-.85-.86-1.72-1.25-.56-.23-1.13-.53-1.6-.93-.49-.38-.87-.87-1.04-1.45-.23-.67-1.16-1.28-1.73-1.67-.9-.75-.47.11-.1.71.54.98,1.17,1.91.69,2.12Z"/><path d="m28.73,61.41c-.11.15,0,.39-.6.32-.22.17-1.7-.34-1.09.24.21.21.76.53,1.15.66,1.31.41.57-.22.92-.31.19-.05.35-.12.62-.12.52,0,1.91.36,1.47-.04-.5-.44-1.6-.4-2.47-.76Z"/><path d="m24.13,60.46c-.11-.08-.22-.16-.33-.24l-.41.02c.15.08.3.19.43.24.11.04.2,0,.3,0Z"/><path d="m.78,40.13l.06-.71c-.02.23-.04.48-.06.71Z"/><path d="m207.85,11.32c-.1-.09-.11-.19-.94-.4.1.08.48.23.94.4Z"/><path d="m21.19,20.77l-1.21.53c.09.23.51.43.19.69-.57.46-1.09.84-.75,1.01.17.08.49-.14.6-.27.4-.48,2.16-1.18,1.48-1.47-.22-.09-.21-.32-.31-.49Z"/><path d="m24.93,19.81c-.44,0-.57-.26-1.43.08-.12.05-.36.31-.31.35.29.22,1.08-.19,1.74-.43Z"/><path d="m38.81,14.83l-.54.15c.05.14-.02.34.69.14l-.15-.29Z"/><path d="m15.28,24.75l.03.35c.67-.35.48-.46.51-.62l-.53.27Z"/><path d="m17.8,22.78l.32.13c.49-.41-.09-.16-.32-.13Z"/><path d="m224.51,24.18c-.65-1.46.5.06-.58-1.98-.45-.71-.8-1.19-1.11-1.51-.7-.64-1.5-1.41-.57.01.68,1.14,1,1.74,1.37,2.14.3.44.56.73.89,1.34Z"/><path d="m217.59,16.2c.73.55,1.77,1.57,1.86,1.35.03-.07-.17-.4-1.02-1.02-.79-.64-2.12-1.32-2.2-1.29-.19.08,1.02.63,1.36.96Z"/><path d="m218.7,16.41c-.53-.51-.81-.89-1.27-1.17-.56-.37-1.57-1.01-1.67-.93-.06.05.27.34.87.72.33.2.65.39.99.61.33.23.68.49,1.08.78Z"/><path d="m210.84,12.44c-.06-.08-.04-.14-.65-.4-.19-.08-.32-.07-.48-.09.39.13.76.33,1.13.49Z"/><path d="m220.43,18.31c-.17-.13-.08-.04.01.06v-.06Z"/><path d="m211.93,12.99l-.26-.12-.26-.12c.16.11.34.19.53.23Z"/><path d="m125.29,2.79c-.14-.33-.81-.42-1.73-.29-1.18.18-.7.51-.81.79,1.15,0,1.18-.64,2.54-.5Z"/><path d="m140.04,1.41c.03.32-.35.69,1.22.79-.09-.27.23-.55-.51-.78h-.71Z"/><path d="m125.3,2.78l.14.08c-.05-.02-.1-.05-.14-.08Z"/><path d="m58.17,70.7l1.14.25c-.18-.17.45-.33-.47-.49-.52-.09-.68.08-.67.23Z"/><path d="m73.78,73.02c1.04.14,2.12.28,2.15-.16-.79.03-1.67-.02-2.15.16Z"/><path d="m108.09,3.44c1.28-.28,2.59-.76,2.99.1.18.39,1.81.06,2.76.12-.54-.45-.98-.88-1.65-1.28-1.44-.84-3.99-.75-6,.2-.25.12-.37.28-.68.36-1.16.29-1.18.98,0,1.15q.5.07.74-.39c.11-.22.06-.49.94-.57.27-.02.59.2.89.31Z"/><path d="m98.5,4.67l.69-.06c1.15-.86-.81-1.28-.82-1.97l-1.88.61c-.11.65,2.45.7,2.01,1.43Z"/><path d="m101.51,2.12c-.7.03-1.42.1-1.92.36.02.03.01.08.07.09.88.13.78.81,1.83.6,1.54-.29-.24-.66.02-1.04Z"/><path d="m104.97,2.5c.18-.08.39-.14.37-.17-.07-.11-.21-.2-.33-.3-.08.06-.23.13-.22.19,0,.09.1.18.18.29Z"/><path d="m114.22,1.28c-.43-.04-.87-.09-.95.15.41.01.98.18.95-.15Z"/><path d="m112.4,1.48l-.26.13c.11-.04.23-.07.26-.13Z"/><path d="m6.86,31.54c.42-.43.86-.82,1.31-1.22-.1-.93,2.42-2.7,2.95-3.7-.23-.15-.2-.6-1.42.29.73-.07-.06.7-.53,1.21-.58.61-1.06.65-1.43.7-.5.39-.98.81-1.46,1.23-1.06,1.51-1.43,2.37-1.33,2.56.1.2.69-.26,1.91-1.06Z"/><path d="m7.74,28.82c.37-.05.85-.09,1.43-.7.47-.51,1.26-1.28.53-1.21-.83.6-1.94,1.28-1.96,1.91Z"/><path d="m2.03,36.27c.8-.66,1.06-1.15,1.19-1.69.15-.51.15-1.06.48-1.55-1.17.98-1.52,2.15-1.67,3.24Z"/><path d="m.78,40.14l.07-.74c-.2.22-.23.48-.07.74Z"/><path d="m74.61,8.11c1.24-.23,1.25-.52,1.3-.82-.25-.36.41-.39,1.12-.41.32-.45-.03-.9,1.75-1.29.29-.55-1.65-.08-1.98-.35-2.42,1.08-2.47,1.99-2.18,2.86Z"/><path d="m94.72,4.65l.79-.15c-.47-.13-.56.06-.79.15Z"/><path d="m125.63,73.12c-.3.15-.38.31-.45.46,1.29-.08,2.58-.15,3.86-.22,1.16-.08,1.17-.28,1.21-.48-.69,0-1.53.12-1.95-.07l-2.66.31Z"/><path d="m143.57,71.26c-.04-.14-.12-.29-.83-.24-.32.03-.73.19-1.09.29.47.13,1.22.03,1.92-.06Z"/><path d="m128.29,72.81c.42.18,1.26.07,1.95.07-.41-.19-1.19-.12-1.95-.07Z"/><path d="m136.01,73c0-.08.59-.21.01-.25-.06,0-.24.02-.29.04-.36.13-.14.19.28.21Z"/><path d="m49.62,12.95c1-.43,2.27.63,3.09-.82-.03-.87-2.18.18-3.27.26l.18.55Z"/><path d="m62.5,9.25l-.25.1c.08-.03.15-.07.25-.1Z"/><path d="m49.44,12.4l-.16-.04c.05.01.11.03.16.04Z"/><path d="m154.98,70.07l1.28-.2.03-.26c-.9.12-1.33.27-1.32.46Z"/><path d="m81.17,73.53c3.24.6,3.67.07,3.72-.6l-.64-.79c-2.38-.67-3.81-.06-5.71-.11-.29.59-.18,1.15,2.63,1.5Z"/><path d="m112.19,73.42l.28.02c0-.07-.12-.07-.28-.02Z"/><path d="m169.09,5.07l.44.12-.18-.18c-.09.02-.18.04-.26.06Z"/><path d="m105.96,73.31c.22.04.44.09.67.13,0,0,.12-.04.18-.06-.28-.02-.56-.05-.86-.07Z"/><path d="m69.69,70.73l-1.19-.33c.06.24.08.49,1.19.33Z"/><path d="m125.18,73.57l.23-.46c-.63.04-1.33.07-1.43.27-.1.2.51.23,1.2.19Z"/><path d="m70.7,8.39c.03-.22.02-.43-.62-.45.1.18-.13.46.62.45Z"/><path d="m67.43,7.82l.15.05c-.05-.02-.1-.03-.15-.05Z"/><path d="m72.47,7.26c-.16-.12-.18-.33-.51-.34-.42-.02-.77.22-.63.31.3.17-.9.85,1.02.48l.11-.45Z"/><path d="m72.47,7.26l-.11.45c.94-.28.84-.41.11-.45Z"/><path d="m33.75,16.51c-.1-.01-.19-.03-.3-.03-.01,0-.21.09-.21.12-.01.06.04.09.07.14l.45-.23Z"/><path d="m34.5,64.49l.26.03c-.1-.02-.19-.03-.26-.03Z"/><path d="m200.45,7.8l1.01.05-.22-.18c-.28.04-.55.07-.79.13Z"/><path d="m39.06,14.21l.82-.12c-.09-.09-.27-.12-.46-.15l-.37.27Z"/><path d="m77.03,6.88c-.71.01-1.37.05-1.12.41l1.12-.41Z"/>
                  </g>
                </mask>
              </defs>
              <path class="mask" d="m221.97,14.02C162.56-3.21,88.54-1.64,31.38,18.07,16.55,23.18,1.43,31.05,1.96,41.16c.39,7.37,9.29,13.69,19.34,18.08,15.63,6.84,34.7,10.47,53.88,12.44,32.34,3.32,66.28,2.14,97.01-4.68,16.78-3.72,32.96-9.34,43.39-17.93,10.43-8.59,14.06-20.56,5.68-29.9-8.38-9.34-30.28-14.27-45.65-8.83"
                    mask="url(#path-mask)" stroke="black" stroke-width="2" fill="none"
                    stroke-dasharray="544.1162109375" stroke-dashoffset="544.1162109375">
              </path>
            </svg>
        