
            <svg xmlns="http://www.w3.org/2000/svg">
              <defs>
                <mask id="path-mask">
                  <g fill="white">
                    <path d="m270.52,53.76c1.56-1.63.36-.8.57-1.22l1.15-1.12c.51-.43,1.04-.91,1.51-1.44.48-.52,1-1.01,1.43-1.48.43-.49.92-1.12,1.42-1.82.44-.74.88-1.55,1.28-2.37.32-.85.65-1.68.85-2.45.16-.78.27-1.47.32-1.99.18-.68.25-1.26.31-1.73.06-.47.08-.84.01-1.15.36-1.87-.22-4.61-.32-6.06.12-.43-.35-2.07.33-.8.27.46.36.99.53,1.59.07.3.14.62.21.97.04.35.04.74.05,1.15.08,1.38-.08,2.6.08,3.4-.01.43-.13.85-.19,1.28-.04.4-.13.83-.24,1.26-.14.43-.32.85-.47,1.27-.16.42-.29.83-.4,1.22-.13.38-.22.74-.22,1.07-.1.23-.24.56-.36.83-.11.27-.22.49-.22.49-.11.64-.5,1.64-1.15,2.68-.33.51-.7,1.05-1.08,1.59-.37.54-.83,1.03-1.22,1.53l-.12-.05c.39-.58.27-.49-.22.12-.07.1-.15.21-.24.32l-.19-.05c.26-.35.66-.83.59-.87-.01,0-.23.21-.33.34-.44.57-.27.45-.28.55-.49.67-1.06,1.28-1.59,1.92-.14.15-.27.31-.41.46.14-.3,1.45-1.86.15-.62-1.4,1.28-1.79,1.8-1.94,2.21-.13.39-.73.95-1.79,1.67-.13-.06-.54.22-1.03.61-.51.37-1.14.83-1.65,1.2v-.1c.88-.82.11-.29-.72.3-1.23.65-1.21.92-1.93,1.41l-.17.07.19-.08c.01.16.58.09-1.6,1.37-1.37.77-2.5,1.52-2.15,1.6l-1.36.77-1.36.37c.74-.41,1.04-.65,1.06-.77.85-.57.87-.69-.05-.31-1.19.63-1.63.76-1.28.39.16-.17.39-.41-.4,0-.23.11-.6.31-.9.48-.3.17-.54.32-.53.33.17.16-.55.63-1.45,1.18-.92.51-2.02,1.09-2.6,1.49-.24.16-.32.28-.48.41l-.18.21c-2.94,1.28-6.11,2.38-8.72,3.65-.65.34-1.65.57-2.36.73-1.28.3-2.09.63-2.72,1.01-1.98.55-3.96,1.1-5.96,1.59l-.15-.11c-.22-.15-1.19.04-2.39.37-.93.27-.58.34-.62.46-3.28.98-6.59,1.85-10.08,2.69h.15c-.03.08.26.1-.4.26-.17.12-.22.24-1.08.42.23-.39-1.45-.09-2.83.12-2.97.45-6.4.97-8.96,1.59-1.77.45-2.97.68-4.71.97-1.06.16-.43.31-.5.46-3.4.52-6.78,1.11-10.19,1.54l-.02-.28c.65-.24.47-.37.12-.51-.61-.23.24-.48,2.06-.7.53-.11,1.06-.23,1.59-.36.95-.16,2.11-.28,2.5-.56l-1.77.18c-.24-.09-1.29-.08.03-.39.72.04,1.44-.04,2.14-.31l2.52-.37c1.11.31,3.19.23,5.48.11,1.54-.55,3.81-1.14,4.06-1.64,2.21-.37,4.42-.7,6.62-1.27.08.12-.13.35.32.35.6,0-1.66.71.43.27,1.45-.3,1.12-.44.93-.56-.09-.06-.15-.31.84-.27,1.82.07,1.32-.47,2.82-.73.24.01.43.08.73.02.87-.17.83-.3,1.04-.43,2.8-.63,5.45-1.51,8.44-2.12,1.55-.33,2.27-.89,2.66-1.24,4.49-1.3,8.94-2.76,13.3-4.43.01.07-.1.19.07.19.47,0-1.52,1.12.76.25,2-.79.17-.38.4-.64.07-.08.71-.37,1.1-.57,3.57-1.71,7.46-3.44,11.03-5.44,1.04-.59,2.57-1.78,3.53-2.03.52-.19,2.35-1.12,4.17-2.36,1.83-1.21,3.65-2.72,4.42-3.56Zm-11.2,7.65l-.34.31c.18-.09.39-.2.53-.28.13-.08.17-.15.26-.23-.15.07-.3.14-.45.21Zm-21.24,9.56c-.08.02-.2.06-.31.09.03.04.15,0,.31-.09Z"/><path d="m218.76,3.3c2.64.21,5.24.58,7.82.98,2.59.42,5.18.79,7.76,1.27.5,1.34,3.95,1.19,6.09,1.71.37.44.24.87,2.61.89,1.43.02,3.45.39,5.23.76,1.4.44-3.25.91,2.09,1.34.76.2,1.87.26,1.88.71,0,.23.7.64,1.39.7.71.06,1.41-.07,1.7-.24.49-.28-.89-.38-1.29-.57-.78-.37-1.31-.77-1.95-1.16.48-.21,2.33.33,2.32-.15,1.01.9,5.27.82,5.06,1.74-.11.46-1.86.65-2.67,1.06-.85.42-3.97-.08-6.42-.68-1.1-.27-2.12-.69-3.22-.94-1.06-.27-2.32-.82-3.17-.61-.91.24,2.09.57,1.46.92-1.77.04-3.58-.13-5.5-.73-.03-.74-.46-1.35-3.53-1.23-2.28.1-4.9-1.4-7.16-.92l-.83-.08-1.53-.43c-2.52-1.11-5.34-1.59-8.48-1.34-1.75-.84-3.79-1.27-6.5-1.13l-1.13-.09c.14-.05.23-.12.43-.13,1.53-.12,2.56-.31,1.06-.93-.39-.16-1.5-.4-1.33-.17.4.54-4.56.26-1.01,1.29-.98-.01-2.4-.25-2.43.22l-1.69-.18c-.04-.26,1.34-.39.21-.72-.9-.27-1.9-.25-2.66-.09l-1.07-.12c-2.19-.26-2.29-.71-2.57-1.18-.16-.27-.67-.51-1.72-.57-.39-.02-1.01.04-1.14.13-.37.24.48.36,1.15.5,2.4.53-2,.71.07,1.24-.55.4-1.9.28-3.17.21v-.3c.04-.29,1.96-.58-.04-.85-1.48-.2-2.54.09-2.27.6l-1.94-.13-2.67-.59c-.74-.38-1.1-.75-.43-1.09.3-.16.24-.34-.62-.42-1.03-.1-1.2.14-1.37.33l-1.44-.25v-.65c2.45.09,5.24.03,6.84.96.61.36,1.52.24,1.69-.08.12-.23-.06-.51.99-.58,4.3-.33,8.72-.17,13.18.74,2.66,1.13,8.36,1.53,11.88,1.04Zm27.43,6.15c-.29-.05-.58,0-.87,0,.23.11.42.25.69.31.27.05.61.03,1.13.06-.43-.18-.68-.34-.95-.38Z"/><path d="m20.56,65.52c1.88.76,2.6,1.44,3.43,2.18.42.36-.08.63,1.5,1.12,1.27.38,1.12-.04.99-.39-.12-.34-.13-.64-.19-.96,1.5.56,2.98,1.14,4.49,1.66-.09.28-.75.45,1.32,1.15,1.56.54,2.21.93,2.03,1.28-.25.17-2.08-.44-1.29.19.28.23.96.59,1.45.73,1.62.49.66-.2,1.08-.27.23-.04.41-.11.74-.09.62.03,2.34.47,1.78.04-.65-.48-1.97-.49-3.05-.9l.17-.51c4.34,1.34,8.53,2.72,12.68,4.1-.83.38-1.47.96-4.97-.54-.58-.25-1.56-.48-1.86-.34-.33.16.4.45,1.21.72.18.37.37.74.45,1.11l-1.25-.19.91.52c-3-.46-5.68-1.39-8.03-2.69-.54-.55-1.67-1.39-3.09-1.53-2.75-.22-6.78-3.01-8.84-2.74-2.26-1.31-4.8-2.37-7.11-3.75.21-.26-.11-.67-.68-1.1-.56-.45-1.37-.92-2.15-1.3-1.36-.72-2.09-1.29-2.88-2.15.66-.2,2.6,1.72,3.71,1.98.41.09,1.25,1.33,1.99,1.26.44-.03-.58-.9-1.15-1.51-.6-.61-1.1-1-2.16-1.48-1.33-.59-2.79-1.51-3.34-2.83-.18-.38-.54-.77-.95-1.12-.41-.35-.88-.65-1.19-.92-1.11-.91-.49.06-.04.8.38.56.76,1.12.99,1.57.23.44.32.75.06.85-.26-.14-.52-.29-.77-.46-.61-1.58-2.84-3.55-4-5.9-.26-.43-.6-1.19-.83-1.77-.2-.6-.17-1.03.26-.81.12.05-.14-.62-.37-1.35-.17-.74-.41-1.52-.49-1.57-.39-.17-.43-1.05-.27-2.22.04-.29.11-.57.16-.85.17-1.62.78-3.48,1.2-2.56.12.9.07.82.75-.26.28-.48.77-1.05.93-1.09.28-.07.12.35-.11.83-.18.5-.44,1.07-.36,1.29-.4.99-.54,2.08-.65,3.1-.13,1.03-.1,1.99-.32,2.94-.08.25.06.7.23,1.06.16.36.33.64.34.59.07-.39,1.34,2.17.82.22.21.01.33.19.61.93,1.08,2.39,2.81,4.73,5.2,6.32-.65,1.4,2.69,2.51,4.2,3.58,1.85,1.19,3.52,1.54,5.51,2.73-.65.07-2.42-.18,1.21,1.33Zm8.22,4.23h-.49c.18.09.38.21.54.26.14.04.24,0,.36,0-.14-.09-.28-.18-.42-.27Z"/><path d="m237.55,8.54c-1.42,0-2.98,0-4.53,0-1.54.07-3.06.18-4.35.37-1.15.02-2.61.18-4.11.41-1.48.34-3.03.6-4.36.94-.76.19-1.05.29-1.57.47-1.63.57-1.85,1.18-.04.73,1.91-.46,2.52-.57,3.04-.5.54.05,1.5.01,3.28-.61.2-.06.96-.18,1.28-.22.8-.08,1.58-.17,2.36-.27.78-.09,1.57-.12,2.35-.18.78-.05,1.56-.15,2.34-.16.78,0,1.57-.02,2.36-.03.91-.02,1.82.01,2.73.07l2.73.15c1.81.22,3.63.32,5.42.66,3.61.51,7.15,1.4,10.63,2.48l.03-.14c-.58-.21-1.06-.35-1.18-.44-1.05-.27-2.31-.59-3.18-.83-1.06-.22-2.24-.46-3.36-.7-1.12-.23-2.2-.39-3.03-.64-.25-.06-.89-.23-1.74-.37-.86-.12-1.93-.28-3-.43-1.08-.17-2.19-.19-3.12-.27-.93-.05-1.68-.12-2.06-.08-.25.01-.52.05-.48.07.36.19-1.04.1-1.69.06-.77-.04-1.25-.15-1.92-.16-.38-.01-1.57.12-1.46.04.07-.05.75-.14,1.67-.21,1.93-.05,4.66-.04,4.92-.23Z"/><path d="m43.73,17.08c-1.81.68-4.02,1.25-5.07,2.11.55-.1,1.28-.16,1.63-.3,1.37-.57,2.65-1.19,3.83-1.02.97.14-.16.71-.94,1.24-1.38.93-2.62,1.07-3.97,1.11-.84.02-2.15.38-2.73.74-1.96,1.26-3.07,1.09-4.44,1.29-.82.27-1.81.73-2.13.51-.06-.04.26-.32.41-.37,1.07-.38,1.2-.13,1.72-.14l1.95-1.78c-1.78-.24-3.58.97-5.35,1.85.15.24.12.52-1.18,1.08.09.17.05.4.31.49.78.27-1.41,1.07-1.95,1.59-.15.14-.56.38-.75.3-.39-.16.28-.57,1.02-1.08.42-.29-.06-.48-.14-.71-.61.55-2.82,1.04-2.79,1.64.29-.05,1.02-.34.38.11l-.36-.12c-1.08.35-.66-.39-1.93.22-.45.22-.64.75-.94,1.14.09.14,0,.34-.56.72.06.04.12.07.19.11l.67-.31c1.24-.26,4.83-1.56.26.88-.3.16-.33.44-.48.67,1.97-1,3.98-2.23,6.07-2.47.24-.04,2.82-1.61,4.69-2.34.43-.42,1.05-.69,2.17-1.13,1.64-.63,3.38-1.12,5.09-1.63,1.72-.48,3.4-1,4.93-1.76,1.48.19,3.6-1.17,5.07-1.25,1.43-.08,2.53-.32,4.12-1.08,2.18-.98,3.26-.94,3.47-.35l3.75-1.02c-.27-.33.71-.84,1.39-1.3-1.85-.05-3.78-.08-.23-1.49.45-.18.11-.26-.38-.23-1.39.76-3.7.77-4.86,1.42-2.68,1.49-2.31.6-2.79.34l-.8.22c-.02.24-.42.46-1.32.75-.03.31-.61.59-1.48.87l.15.29c-.88.24-.78.03-.82-.11-1.79.21-4.38.91-4.86.3Z"/><path d="m277.27,25.58c-.58-.85-1.01-1.44-1.4-1.82-.85-.78-1.84-1.72-.62-.03.51.64.75,1.22,1.05,1.62.28.41.51.71.72.96.36.54.67.9,1.09,1.65.24.46.35.98.51,1.48.14.5.34.99.42,1.5.1,1.46.69,4.19.32,6.06l-.21.02c.04-.88.12-1.84-.03-2.72-.05-.44-.09-.87-.11-1.28-.06-.4-.13-.76-.15-1.1-.04-.42-.07-.84-.15-1.26-.12-.41-.25-.83-.4-1.25-.24-.87-.73-1.66-1.18-2.54-1.9-3.38-4.76-6.15-8-8.32-3.26-2.16-6.86-3.82-10.56-5.17-.1-.12-.07-.19.88.09.48.15.95.35,1.42.55l.7.36c.21.12.42.22.66.27,1.17.44,2.03.91,2.7,1.22.67.32,1.12.52,1.38.62.52.21.31-.02-.48-.57-.05-.03-.06-.05-.09-.08-1.02-.45-1.81-.89-2.54-1.23-.73-.33-1.36-.65-1.98-.97-.31-.16-.63-.32-.95-.48-.33-.14-.68-.28-1.05-.43-.74-.29-1.58-.6-2.62-.92-1.76-.44-4.07-1.1-4.51-1.39,1.17.22,2.5.46,2.86.64.67.39,1.91.61,3.06,1.03,4.12,1.39,8.04,3.11,11.82,5.58,2.67,1.78,5.15,4.03,7.05,6.75,1.91,2.71,3.19,5.94,3.51,9.29.22,1.33.07,3.47-.17,3.54-.15-.8,0-2.02-.08-3.4,0-.42,0-.8-.05-1.15-.06-.35-.13-.67-.21-.97-.17-.6-.26-1.13-.53-1.59l-.37-1.22c-.12-.41-.25-.81-.46-1.18-.19-.38-.38-.75-.58-1.12-.2-.37-.41-.73-.69-1.04Zm-5.61-5.59c.02-.08-.26-.45-1.32-1.19-.99-.77-2.65-1.54-2.74-1.53-.2.07,1.26.76,1.73,1.11.92.66,2.26,1.84,2.33,1.61Zm-2.66-2.64c-.7-.43-1.96-1.19-2.07-1.11-.06.04.36.38,1.11.83.81.48,1.62.9,2.59,1.62-.67-.6-1.07-1.01-1.63-1.34Zm3.57,3.27l.34.33-.02-.06c-.26-.24-.28-.24-.32-.27Z"/><path d="m176.25.35c-1.97.13-3.5.02-5.71-.22-3.21-.29-7.23-.03-10.88.06-1.83.06-3.79-.25-5.49.2v.59c.4.26,1.45.65.22.79-3.63.44-3.11,1.48-5.61,2.05,1.34-.06,2.52-.23,3.56-.48.13,0,.25-.03.34-.07.13-.28-.45-.61,1-.79,1.14-.14,1.96-.06,2.13.28l.19.08-.18-.08c-1.69-.14-1.73.51-3.12.52-.09.03-.12.07-.1.11,1.61.56,3.55-.13,5.3-.01,2.22-.63,4.58-.61,6.96-.09.71.16,1.18.38,1.97,0,1.23-.56,3.01-.39,4.71-.17,2.45-.37,1.34-.97.75-1.53-.15-.15-.67-.36.2-.43.74-.06,1.17.1,1.47.28h.87c-.45-.46,1.89-.62,1.42-1.09Z"/><path d="m76.73,82.71c1.5.52,3.08.97,5.24.97,2.72-.19,5.55.05,8.52.77.59-.18,1.67-.11,2.64-.12l1.58.29c-.18-.18-.44-.52-.51-.53-2.93-.16-4.82-1.01-7.63-1.27-2.05-.18-3.91-.43-4.39-1.09-.01-.02-.22-.05-.33-.08-.39.01-.78.03-1.18.04.26.69-1.79.37-3.35.09-5.12-.88-10.34-1.35-15.45-2.67-3.08-.82-3.28-.69-1.65-1.1.49-.12.83-.29,1.24-.44-2.98-.44-6.31-1.51-8.83-1.36.54.19,1.05.4,1.63.54.94.24,2.38.14,2.71.63.14.2-1.42.18-2.4.15-.52-.01-1.46-.26-2.21-.43-.63-.14-1.3-.31-1.64-.21-.44.13.18.39.81.64.98.39,1.16.86,2.75,1.18,1.92.84,4.09,1.5,6.78,1.82,3.13.02,6.67.65,10.24,1.23-.02-.16.16-.32.81-.22,1.14.18.37.33.6.5,1.59-.29,3.24-.72,4.03.64Z"/><path d="m260.87,14.01l.7.36.33.14.33.14c1.17.44,2.03.91,2.7,1.22.67.32,1.12.52,1.38.62.52.21.31-.02-.48-.57-.05-.03-.06-.05-.09-.08-1.02-.45-1.81-.89-2.54-1.23-.73-.33-1.36-.65-1.98-.97-.31-.16-.63-.32-.95-.48-.33-.14-.68-.28-1.05-.43-.74-.29-1.58-.6-2.62-.92-1.76-.44-4.07-1.1-4.51-1.39-1.31-.19-3.59-.76-4.6-.73,1.22.33-.03.32-.68.21-1.9-.32-.72-.29-.97-.43-.05-.03,0-.04.01-.06-.71-.23-1.71-.31-2.73-.41-1.02-.1-2.05-.21-2.88-.3-1.02,0-1.92-.05-2.7-.17-.27.19-3,.18-4.93.23-.92.08-1.61.16-1.67.21-.11.08,1.08-.05,1.46-.04.67,0,1.14.12,1.92.16.64.04,2.05.13,1.69-.06-.04-.02.23-.06.48-.07.38-.04,1.13.03,2.06.08.93.08,2.04.11,3.12.27,1.08.15,2.15.31,3,.43.85.14,1.49.31,1.74.37.82.25,1.9.4,3.03.64,1.12.23,2.3.48,3.36.7.87.24,2.12.56,3.17.83,1.03.22,1.04.35,1.18.44l-.03.14,1.46.51c-.1-.12-.07-.19.88.09.19.03.35.03.59.11.77.3.74.36.83.45Z"/><path d="m141.76,3.95l-.06-.24c-.66-.43-1.19-.92-2-1.3-1.75-.83-4.88-.7-7.37.27-.31.12-.46.29-.84.37-1.43.3-1.48.99-.02,1.15q.61.07.92-.4c.15-.22.08-.49,1.17-.58.33-.03.72.19,1.09.3,2.07.01,1.96.51,2.45.88-2.33.42-4.72.56-7.15.58.95-.71-1.43-.7-2.59-.95l-1.19.48c-.82.11-1.63.26-2.45.41-.04-.05-.06-.1-.04-.16,1.44-.88-.95-1.27-.94-1.96l1.49-.18s.01.08.09.08c1.08.11.94.83,2.23.61,1.9-.31-.28-.66.05-1.04l.86-.51c3.64-.18,7.34-.64,10.91-.55l1.54-.12.09.41-.32.13.42-.11.97-.05c.5.02,1.2.17,1.17-.15l1.56-.26-.21.08-.24-.05c1.1.42,3.77.25,4.55.97.37.34,3.71-.45,5.54-.82.3-.06.5-.16.74-.25.41.26,1.45.65.22.79-3.63.44-3.11,1.48-5.61,2.05-2.41.35-4.75.41-7.01.12Zm-10.47-1.51c-.08-.11-.26-.2-.4-.3-.1.06-.28.13-.28.19,0,.09.12.17.22.29.22-.08.48-.15.46-.18Z"/><path d="m27.45,23.4c1.3-.57,1.33-.84,1.18-1.08l-1.26.44-.94.42c-2.42.85-4.77,1.69-7.12,3.14-.95.6-2.38,1.35-3.64,1.84-1.4.5-3.8,1.98-4.15,2.32-1.92,1.69-3.85,3.24-5.67,4.99-1.82,1.73-3.56,3.64-4.83,6.04-.89,1.79-.9,3.16-1,4.8-.13,2.11.35,4.26,1.19,6.11.83,1.87,1.97,3.53,3.27,4.96,2.56,2.93,5.63,5.13,8.76,7.1.67.44,1.34.9,1.85.93.21-.26-.11-.67-.68-1.1-.56-.45-1.37-.92-2.15-1.3-1.36-.72-2.09-1.29-2.88-2.15-.59-.11-1.36-.84-2.06-1.41-.26-.14-.52-.29-.77-.46-.61-1.58-2.84-3.55-4-5.9-.26-.43-.6-1.19-.83-1.77-.2-.6-.17-1.03.26-.81.12.05-.14-.62-.37-1.35-.17-.74-.41-1.52-.49-1.57-.39-.17-.43-1.05-.27-2.22-.14-.31-.06-.61.17-.87.16-1.61.77-3.47,1.19-2.54.19-.37.38-.74.57-1.11.38-1.27.99-2.58,2.45-3.69.64-1.39,1.34-2.9,3.43-3.34.62-.47,1.23-.94,1.87-1.38.13-.68,1.51-1.45,2.56-2.11,1.54-.99,1.45-.52,1.68-.37,1.46-1.65,3.45-2.48,5.53-2.97.3-.39.5-.92.94-1.14,1.27-.61.85.13,1.93-.22-.04-.59,2.16-1.07,2.77-1.62l1.51-.6Z"/><path d="m109.37,3.81c-1.15-.21-2.39-.24-3.98.36.98.19,1.93.41.88.95-.83.43-1.56-.01-2.48.24-1.31-.47-1.97.01-2.73.46-.88.52-1.77.73-2.48.28-2.2.43-1.78.87-2.12,1.31.4.4,2.2.31,3.12.53,1.53.21,3.48.04,5.31-.4,1.38-.33,2.58-.51,3.93-.6,1.33-.42-.17-1,2.2-1.27,1.76-.19,1.52.3,1.83.58l1.56-.21c-.14-.28-.39-.55-.4-.84,0-.19.71-.34,1.38-.41.59-.06,1.04,0,.72.18-.48.26-1.83.59-.36.64.37.01,1.6-.48,2.44-.75.26-.1.39-.29.96-.17l-.98.17c.68.75,2.61.39,4.64-.05.57-.74-2.58-.74-2.42-1.39-3.34.72-3.36.18-3.16-.44-1.35.25-2.51-.06-3.89.29.28.67-1.15,1.43-3.5,1.59-3.24.33.97-.75-.19-.93-.16-.02-.19-.09-.29-.14Z"/><path d="m162.46,85.35l1.28-.09,2.46-.34.91-.09s-.05-.08-.09-.12c-.54-.02-.81-.07-.36-.2.06-.02.29-.05.36-.04.71.03-.03.17-.02.25,1.29-.07,2.24-.22,2.82-.5,1.84-.88,4.92-.57,4.87-.4-.14.54,1.9.34,3.39.3,1.84-.38,3.67-.76,5.53-1.14.82-.16,2.41-.32,1.92-.53-.4-.17-2.1.21-2.55.18-1.38-.08-3.39.81-4.21.32-1.03.07-2.25.21-2.43-.04-.87.08-1.79.18-2.36.06-1.91.12-3.83.27-5.72.35-3.75.12-6.95.97-10.75.91v.35c.95-.06,1.91-.14,2.41.05-.05.2-.07.4-1.49.49l.7.41c1.11-.06,2.23-.1,3.34-.18Z"/><path d="m60.51,12.99c.49-.04.84.04.38.23-3.55,1.41-1.62,1.44.23,1.49l1.4-.4-.17-.56-.2-.03.19.04c1.33-.13,4.01-1.29,3.99-.38,2.13-.53,4.23-.22,6.49-1.3.33-.15,1.87-.25,2.01.05l2.27-.41c.88-.68,3.7-1.48,3.01-2.08-.03-.03.48-.18.73-.28,1.91.85,2.35-.71,3.72-.75-.02-.06-.03-.13-.04-.19-4.11-.37-4.86.77-6.09,1.74l-.29.11.31-.11c-.8.08-2.24.3-2.29.2-.68-1.34-3.33.16-5.61.74-2.37.61-5.07,1.43-7.3,1.4-1.07.1-1.04-.43-2.82.08l.05.41Z"/><path d="m185.62,2.13l-1.44-.25c-3.55-.24-3.48-.9-3.08-1.6-1.16-.28-1.12.13-1.69.18,1.02.98-.75,1.77-3.97,1.78.73.51.77,1-.03,1.47.8.53,1.49.2,2.2.04-.47-.12-.58-.29.06-.29.87,0,.72.23.8.38,1.85.75,4.61.37,6.6.4,3.26.08,6.78.72,9.9.33v-.3s-2.25-.25-2.25-.25c-.73.34-1.36.1-2-.12l-2.67-.59c-.21.27-.39.56-1.83.43-.98-.06-1.53-.27-1.98-.51-1.07-.55.43-.79,1.4-1.1Z"/><path d="m178.78,82.96c.82.49,2.84-.4,4.21-.32.44.03,2.15-.36,2.55-.18.48.21-1.11.37-1.92.53-1.87.38-3.69.76-5.53,1.14l.7.17.91-.09c1.24-.35,2.66-.55,4.13-.72,1.47-.19,2.97-.37,4.38-.61.65-.24.47-.37.12-.51-.61-.23.24-.48,2.06-.7l.02-.14c0-.2.53-.33,1.64-.47.23-.04.45-.07.66-.12-.24-.09-1.29-.08.03-.39l-.09-.13c-4.45.54-8.9.93-13.35,1.59.75.24,2.11.42-.5.95Z"/><path d="m114.38,86.18c.93.03.81.74,2.5.27,1.26-.35,2.41.24,3.66.14.37-.66,2.04-.44,3.8-.18,1.49.23,2.73.15,3.86-.05,1.17-.21,1.69-.46.46-.78-1.66-.06-3.17-.32-4.96-.22-5.55.23-6.17.26-10.58-.52-.11-.02-.32-.05-.34-.04-2.29.53-5.67-.58-8.01-.19.2.33.2.66,1.75.93.07-.22.44-.22,1.5-.12,2.25.19,4.35.44,6.36.77Z"/><path d="m178.78,82.96c2.61-.53,1.25-.71.5-.95-1.75.03-2.94-.12-5.39.49-1.77.45-5.38.46-8.25.66-3.86.33-7.92.63-11.84.61-1.72-.04-2.85.02-2.65.44.2.41,1.59.37,3.14.22l3.23-.18c3.8.05,7-.8,10.75-.91,1.89-.08,3.81-.23,5.72-.35.45-.11.96-.28,1.35-.31.87-.05.97.1,1.01.24.18.25,1.4.11,2.43.04Z"/><path d="m78.46,10.16c1.23-.97,1.98-2.11,6.09-1.74l3.08-.81c.81-.29,1.65-.59,1.38-.86-1.56-.25-3.41.47-5.02.76l-4.61.82-4.59.94c-3.06.63-6.12,1.31-9.15,2.12-1.61.49-1.79.73-2.36,1.11,2.23.03,4.93-.79,7.3-1.4,2.27-.58,4.93-2.08,5.61-.74.05.1,1.49-.13,2.27-.21Z"/><path d="m61.46,77.59c-.41.15-.75.32-1.24.44-1.62.4-1.42.27,1.65,1.1,5.12,1.32,10.34,1.79,15.45,2.67,1.56.28,3.6.6,3.35-.09-2.83-1.05-6.01-1.41-9.56-1.61-2.29-.14-3.98-.58-3.43-1.21-2.31-.08-4.09-.95-6.23-1.3Z"/><path d="m104.77,84.6c2.34-.39,5.72.72,8.01.19.03,0,.24.02.34.04,4.41.78,5.03.75,10.58.52,1.78-.1,3.3.16,4.96.22-.69-.56-1.45-1.11-4.16-1.43l-2,.28c-.75.33-1.88.25-3.48.13-1.95-.14-4.31-.19-6-.34-1.7-.14-3.32-.1-4.91-.1-1.59-.02-3.17-.08-4.78-.38l.81.8c.22.02.43.04.64.07Z"/><path d="m144.71,84.65c-1.01.51-1.84,1,2.27.96,1.32-.03.5.21.4.34-2.01.38-4.25.21-5.7.03-3.67-.46-4.49-.03-5.28.56l-.75.03c-2.41-.29-6.36-.44-2.6-1.29.68-.15.66-.44.97-.66,2.07,0,4.14-.01,6.2-.02,1.34,0,2.34-.04,2.47-.36l2.3.02c-.09.13-.05.26-.28.38Zm-6.59.54c-.08-.01-.22-.02-.41.04.11,0,.23.01.41-.04Z"/><path d="m254.43,9.55c1.01.9,5.27.82,5.06,1.74-.11.46-1.86.65-2.67,1.06-.85.42-3.97-.08-6.42-.68-1.1-.27-2.12-.69-3.22-.94-1.06-.27-2.32-.82-3.17-.61-.91.24,2.09.57,1.46.92,3.48,1.45,8.15,1.55,11.75,3.01,1.13.47,1.01-.24,1.99-.13.98-.07-3.08-1.28.37-.79,1.3-.49,4.35-.09,4.13-1.15-.69-.23-1.6-.46-2.02-.7-1.06-.6-.79-1.71-3.94-1.27-.02,0-.26-.12-.59-.26-.32-.15-.73-.32-1.05-.41-1.87-.58-3.69-.87-5.37-.83.37.99,2.66.54,3.68,1.04Z"/><path d="m263.86,14.82c.92.27,1.56.56,1.98.93.53.46,1.33.95,2.25,1.29.92.33,1.95.55,2.9.55,1.7.02,3.32-.25,3.68-.87.67-1.16-1.24-2.09-5.81-3.01-1.12-.22-2.41-.88-3.62-1.35-1.5.21-1.1.9.28,1.63,1.4.74,2.84.81,4.02.62.43-.07,2.3.12,2.02.57-.25.4.69,1.04-.08,1.29-.47.16-.75.44-1.98.2-1.28-.24-1.76-.65-1.83-1-.07-.36-.19-.67-1.61-.99-1.37-.31-2.12-.28-2.2.13Z"/><path d="m103.32,83.73c1.61.3,3.18.36,4.78.38,1.6,0,3.21-.04,4.91.1,1.68.15,4.05.2,6,.34,1.6.12,2.73.19,3.48-.13-2.71-.97-6.81-.62-10.19-.88-2.52-.17-5.07-.23-7.6-.4-2.53-.16-5.04-.38-7.46-.9l-.42.2c.7.34,3.23.88-.68.65-1.28-.08-2.03.16.16.46,2.33.07,4.08-.5,7.02.19Z"/><path d="m55.98,17.04c-.21-.6-1.29-.63-3.47.35-1.59.76-2.69,1.01-4.12,1.08-1.47.09-3.59,1.45-5.07,1.25-1.53.77-3.21,1.28-4.93,1.76-1.71.51-3.45.99-5.09,1.63-1.12.44-1.74.71-2.17,1.13,3.22-.63,6.49-1.77,10.09-2.91,2.29-.75,4.62-1.49,7.19-2.02,1.12-.23,2.37-.63,3.65-1.07,1.29-.42,2.63-.83,3.91-1.2Z"/><path d="m207.56,5.36l-1.69-.18-2.46-.82c-.35-.04-.71-.08-1.07-.12-1.17.03-2.35.14-3.52.2,1.97,1.15,6.07,1.23,8.99,1.55,2.9.32,5.83.55,8.76.76,2.92.3,5.85.6,8.77.91l1.59-.02c-2.52-1.11-5.34-1.59-8.49-1.34-1.25-.07-2.55-.06-3.7-.16-1.15-.12-2.14-.38-2.8-.96l-1.13-.09-.81-.02c0,.16.02.23.05.31l.23.18-.55-.13-2.18-.06Z"/><path d="m206.92,78.32c2.21-.37,4.42-.7,6.62-1.27,1.75-.38,3.43-.7,4.77-.8,1.17-.27,1.76-.41,2.35-.55,2.8-.63,5.45-1.51,8.44-2.12,1.55-.33,2.27-.89,2.66-1.24-8.31,2.28-16.73,4.12-25.19,5.82l.35.16Z"/><path d="m147.38,85.96c-2.01.38-4.25.21-5.7.03-3.67-.46-4.49-.03-5.28.56,3.02.1,6.04.1,9.06.1,3.02-.06,6.03-.22,9.04-.57,1.45-.19,2.38.09,3.56-.02,1.63-.15,4.15-.11,4.42-.7-1.11.08-2.22.12-3.34.18l-5.48.17-6.26.26Z"/><path d="m263,59.88c.01.16.58.09-1.6,1.37-1.37.77-2.5,1.52-2.15,1.6,2.86-1.55,5.66-3.25,8.31-5.24,2.62-2.03,5.08-4.38,7.12-7.14l-.12-.05-.22.12c-.07.1-.15.21-.24.32-.67.93-1.43,1.77-1.79,1.88-.14.15-.27.31-.41.46-.59.54-1.19,1.06-1.79,1.59-.13.39-.73.95-1.79,1.67-1.08.91-2.16,1.9-3.29,2.52-.38.2.08-.26.61-.71v-.1s-.72.3-.72.3c-1.23.65-1.21.92-1.91,1.4Z"/><path d="m135.65,86.59c-2.41-.29-6.36-.44-2.6-1.29.68-.15.66-.44.97-.66-1.15-.05-.76-.23-.83-.37l-1.53.03c.47.36-1.51.5-1.57.8l1.03.09c-.08.02-.22.06-.22.06-.28-.05-.56-.1-.83-.15-1.36-.25-.52-.55-.8-.83-1.54-.45-3.12-.55-4.76-.13,2.71.33,3.47.88,4.16,1.43,1.23.32.71.57-.46.78-1.13.2-2.37.29-3.86.05-1.76-.26-3.43-.48-3.8.18,1.98.13,3.99.11,6,.11,2,0,4,.06,5.96.18,1.55.11,2.36-.07,3.16-.29Z"/><path d="m96.3,83.54c-2.19-.3-1.44-.54-.16-.46,3.91.23,1.38-.31.68-.65-.7.28-1.89-.08-2.83-.12.08.24-.66.49-1.23.34-2.79-.75-4.88-.23-7.35-.58-1.35.14-1.4-.11-1.47-.36-1.3-.46-1.66-.24-2.08-.06.12.03.32.06.33.08.48.65,2.34.91,4.39,1.09,2.81.26,4.7,1.11,7.63,1.27.07,0,.34.34.51.53l3.02.6,1.61.34.23-.48c-3.46-.39-3.61-.95-3.27-1.54Z"/><path d="m54.27,78.73c-1.59-.32-1.77-.79-2.75-1.18-.62-.25-1.25-.51-.81-.64.34-.1,1.02.08,1.64.21.75.17,1.69.41,2.21.43.98.03,2.53.05,2.4-.15-.33-.49-1.77-.39-2.71-.63-.57-.14-1.09-.36-1.63-.54-.65-.46-1.37-.33-2.06-.47-1.18-.12-2.45-.23-2.19.16,1.02,1.51-2.55.67-5.76-.14.32.36,2,.71,2.04,1.08,2.67.49,5.08,1.47,7.77,2.02,1.92.4,1.57.03,1.84-.15Z"/><path d="m85.4,82.08c2.47.35,4.56-.16,7.35.58.57.15,1.31-.11,1.23-.34-4.95-.53-9.88-1.06-14.83-1.59-2.48-.28-5.06-.76-7.48-1.27-1.47-.3-2.67-.45-3.98-.56-.55.63,1.14,1.07,3.43,1.21,3.55.2,6.73.56,9.56,1.61.39-.01.79-.03,1.18-.04.41-.18.78-.4,2.08.06l1.47.36Z"/><path d="m147.38,85.96l6.26-.26.05-.32c-.85.02-1.61,0-1.48-.2.12-.2.99-.22,1.77-.26.28-.17.3-.33.31-.5-1.55.15-2.94.19-3.14-.22-2-.13-4.06-.04-6.16.07-.09.13-.05.26-.28.38-1.01.51-1.84,1,2.27.96,1.32-.03.5.21.4.34Z"/><path d="m87.63,7.61l-3.08.81.03.2.18.05-.18-.05c-1.37.04-1.81,1.6-3.72.75-.26.1-.77.24-.73.28.69.6-2.13,1.4-3.01,2.08.21.19.89,0,1.5-.12.74-.49,2.05-.68,3.2-.88.87-.03,1.25-.92,1.81-.45.59.5,1.93-.12,2.74-.12,1.28-.63,1.94-.51,2.46-.24.82-.06,1.84.16,2.25-.47l.29-.37c-.97.03-1.49-.22-2.82.03-.93.03-.62-.26-.74-.44-4.2.38.43-.79-.19-1.05Z"/><path d="m272.24,51.42c.51-.43,1.04-.91,1.51-1.44.48-.52,1-1.01,1.43-1.48.43-.49.92-1.12,1.42-1.82.44-.74.88-1.55,1.28-2.37.32-.85.65-1.68.84-2.45.16-.78.27-1.47.32-1.99-.29.91-.52,1.91-.8,2.45-.27.55-.41.69-.3.02-1.39,3.38-3.53,6.35-5.7,9.07Z"/><path d="m87.82,8.66c-4.2.38.43-.79-.19-1.05.81-.29,1.65-.59,1.38-.86,2.36-.46,4.77-1.52,7.04-1.06.11.02.15.06.12.11-3.03,1.06-3.13,2.05-2.82,2.9l-1.98.36c-.97.03-1.49-.22-2.82.03.05-.22.04-.43-.74-.44Zm2.36-1.08c-.51,0-.96.25-.78.33.35.17-1.15.89,1.22.46,1.17-.31,1.05-.44.16-.46-.19-.12-.21-.32-.6-.33Z"/><path d="m33.98,20.47c.7-.23,1.41-.07,2.1-.65,1.55-1.27,1.91-.73,2.57-.63.55-.1,1.28-.16,1.63-.3,1.37-.57,2.65-1.19,3.83-1.02.97.14-.16.71-.94,1.24-1.38.93-2.62,1.07-3.97,1.11-.84.02-2.15.38-2.73.74-1.96,1.26-3.07,1.09-4.44,1.29.65-.59,1.29-1.18,1.94-1.78Zm8.65-1.95s-.26.11-.27.13c-.02.06.04.1.07.14l.56-.25c-.12,0-.23-.02-.36-.02Z"/><path d="m249.74,67.4c-2.94,1.28-6.11,2.38-8.72,3.65-.65.34-1.65.57-2.36.73-1.28.3-2.09.63-2.72,1.01,2.68-.49,5.75-1.69,8.58-2.86,3.68-1.49,7.26-2.64,10.76-4.68.51-.29,1.16-.6,1.34-.82-.83.18-2.09.73-3.46,1.57-1.68.95-2.55,1.23-3.44,1.4Z"/><path d="m263.86,14.82c.09-.4.83-.44,2.2-.13,1.41.32,1.53.63,1.61.99.07.35.55.75,1.83,1,1.23.24,1.51-.04,1.98-.2.77-.26-.17-.89.08-1.29.28-.45-1.59-.64-2.02-.57-1.18.19-2.62.12-4.02-.62-1.39-.73-1.78-1.42-.28-1.63-.47-.28-.96-.48-1.53-.38.22,1.06-2.83.66-4.13,1.15.77.36,1.45.74,1.43,1.09l2.85.59Z"/><path d="m20.29,26.98c-2.08.49-4.06,1.31-5.53,2.97-.38.56-1.39,1.3-2.29,2.07-.91.75-1.7,1.54-1.75,2.03l.61.36c1.19-.62,2.16-1.33,2.95-2.14.09-.19-.43-.07.22-.56l.4.17c.21-.08.43-.2.65-.35,2.69-1.68,1.62-2.3,4.18-3.82.56-.37.65-.57.56-.72Z"/><path d="m178.78,84.3l-.7-.17c-1.49.04-3.53.24-3.39-.3.04-.17-3.03-.48-4.87.4-.58.28-1.53.44-2.82.5.06.03.09.07.11.11l-.03.45c1.94-.04,3.86-.11,5.8-.24,1.94-.13,3.9-.32,5.89-.75Z"/><path d="m215.41,78.47c.23-.39-1.45-.09-2.83.12-2.97.45-6.4.97-8.96,1.59-1.77.45-2.97.68-4.71.97-1.06.16-.43.31-.5.46,3.74-.56,7.4-.98,11.25-2.01,1.67-.43,3.83-.72,5.75-1.14Z"/><path d="m62.52,14.31l-1.4.4c-.69.47-1.66.97-1.39,1.3,1.93-.34,3.88-.9,5.84-1.42,1.97-.49,3.98-.86,5.97-1.01,1.61-.1,1.92-.98,3.3-1.47-.14-.3-1.68-.21-2.01-.05-2.26,1.07-4.36.77-6.5,1.3-1.11,1.47-2.57.46-3.82.94Z"/><path d="m2.77,40.83c-.19.37-.38.74-.57,1.11.12.9.07.82.75-.26.28-.48.77-1.05.93-1.09.28-.07.12.35-.11.83-.18.5-.44,1.07-.36,1.29.33-.43.68-.84,1.06-1.22.44-.68.93-1.33,1.48-1.94.84-1.45,1.89-2.83,3.06-4.12-1.54.92-2.27,1.45-2.35,1.23-.06-.21.52-1.18,1.99-2.85-2.08.44-2.78,1.95-3.43,3.34-.47.56-.57,1.18-.85,1.76-.25.61-.63,1.18-1.6,1.93Z"/><path d="m42.62,75.78c3.2.81,6.78,1.65,5.76.14-.26-.4,1.01-.28,2.19-.16-.21-.69-1.94-.59-2.88-.92-.83.38-1.47.96-4.97-.54-.58-.25-1.56-.48-1.86-.34-.33.16.4.45,1.18.7l.35.06-.32-.04.56,1.11Z"/><path d="m96.05,5.69c.11.02.15.06.12.12.39.26,2.79-.26,2.41.3.71.45,1.6.23,2.48-.28.77-.45,1.42-.94,2.73-.46.92-.25,1.65.18,2.48-.24,1.05-.54.1-.76-.88-.95-3.18.38-6.64.27-9.34,1.52Z"/><path d="m143.32,1.09c1.1.42,3.77.25,4.55.97.37.34,3.71-.45,5.54-.82.3-.06.5-.16.74-.25V.4c-2.84-.34-5.46.52-8.27.39l-2.06.16c-.27.02-.44.07-.51.14Z"/><path d="m261.93,59.68c.52-.19,2.35-1.12,4.17-2.36,1.83-1.21,3.65-2.72,4.42-3.56,1.56-1.63.36-.8.57-1.22-1.01.99-1.94,2.1-3.13,2.79-.25.16-1.03.76-1.08.8-.61.69-1.46,1.28-2.31,1.88-.87.59-1.82,1.1-2.64,1.67Z"/><path d="m254.43,9.55c-1.02-.5-3.31-.06-3.68-1.04-1.03-.61-2.17-.61-3.3-.68-1.95.26-4.8-.52-7.02-.56.37.44.24.87,2.61.89,1.43.02,3.45.39,5.18.73l1.01-.08.28.19-1.24-.08c1.4.44-3.25.91,2.09,1.34.25-.3-.34-.92,1.74-.56.48-.21,2.33.33,2.32-.15Z"/><path d="m216.9,77.8c-.03.07.26.09-.4.25,4.69-.97,9.7-1.84,13.49-3.67l-.15-.11c-1,.3-2.01.56-3.02.83-3.28.98-6.59,1.85-9.93,2.7Z"/><path d="m240.43,7.27c2.22.04,5.07.83,7.02.56-.11-.78-1.94-.49-2.81-.7-3.34-.8-6.86-1.19-10.3-1.58.5,1.34,3.95,1.19,6.09,1.71Z"/><path d="m184.17,1.23c2.46.09,5.25.03,6.85.96.61.36,1.52.24,1.69-.08.12-.23-.06-.51.99-.58.38-.65-1.7-.58-2.8-.68-2.46-.23-4.96-.37-7.45-.42.19.27-.45.57.72.8Z"/><path d="m171.54,3.13c-1.71-.22-3.49-.39-4.71.17-.8.37-1.26.15-1.97,0-2.38-.52-4.75-.54-6.96.09,2.22.57,4.99.46,7.68.4,1.99-.07,3.96-.13,5.94-.2l.03-.46Z"/><path d="m19.35,64.19c-.65.07-2.42-.18,1.21,1.33,1.88.76,2.6,1.44,3.43,2.18.42.36-.08.63,1.5,1.12,1.27.38,1.12-.04.99-.39-.12-.34-.13-.64-.19-.96-2.36-1-4.68-2.09-6.94-3.27Z"/><path d="m117.23,3c-.2.62-.18,1.16,3.16.44l2.33-.64,1.49-.18c.62-.29,1.51-.3,2.37-.35l.86-.51c.04-.41-1-.22-1.83-.12-2.81.4-5.59.91-8.38,1.35Z"/><path d="m4.47,41.49c-.38.38-.72.79-1.06,1.22-.4.99-.54,2.08-.65,3.1-.13,1.03-.1,1.99-.32,2.94-.08.25.06.7.23,1.06.16.36.33.64.34.59.07-.39,1.34,2.17.82.22-.6-1.45-.75-3.11-.51-4.65.21-1.55.75-2.99,1.15-4.49Z"/><path d="m118.2,4.89c-.84.26-2.07.76-2.44.75-1.47-.06-.12-.39.36-.64.32-.17-.13-.24-.72-.18-.67.07-1.39.21-1.38.41,0,.29.25.56.4.84,2.88.27,6.07-.19,9.25-.61l.05-.52c-.04-.05-.06-.1-.04-.16l-.85.07c-2.03.44-3.96.8-4.62.05Z"/><path d="m19.73,27.69c-2.56,1.52-1.49,2.14-4.18,3.82,1.65-.41,3.25-.83,4.82-2.46.15-.23.19-.51.48-.67,4.56-2.44.98-1.15-.26-.88-.05.18.15.27-.69.68l.02-.37c-.07-.03-.13-.07-.19-.11Z"/><path d="m34.13,73.42c-.54-.55-1.67-1.39-3.09-1.53-2.75-.22-6.78-3.01-8.84-2.74,3.92,1.87,7.93,3.21,11.93,4.27Z"/><path d="m97.74,85.22l-3.02-.6-1.58-.29c-.03.44-1.35.28-2.64.12-2.97-.72-5.79-.97-8.52-.77.23.22,1.03.51,1.59.52,4.61.07,9.67,1.28,14.17,1.02Z"/><path d="m239.97,10.3c-.03-.74-.46-1.35-3.53-1.23-2.28.1-4.9-1.4-7.16-.92.77.35,1.6.6,2.46.82.86.23,1.75.41,2.67.56,1.83.29,3.73.48,5.56.77Z"/><path d="m197.38,79.86c1.11.31,3.19.23,5.48.11-.52-.35.58-.9,2.06-1.48-1.6.05-2.97.47-4.41.79-.72.47-2.02.47-3.13.58Z"/><path d="m206.88,2.26c2.66,1.13,8.36,1.53,11.88,1.04-1.66-.44-3.36-.58-5.06-.7-1.7-.12-3.41-.19-5.11-.34-.13.42-.94.19-1.71,0Z"/><path d="m49.25,16.6c.87-.29,1.45-.56,1.36-.8l-1,.16-.27-.14.74-.15.66.06c.9-.28,1.3-.51,1.32-.75-2.79.7-5.37.83-8.33,2.11.48.6,3.07-.1,4.86-.3l.67-.18Z"/><path d="m71.29,81.78c-3.57-.58-7.11-1.21-10.24-1.23,1.13.56,2.24.88,4.09.88,2.34-.02,5.09.84,7.63,1.05l-.08-.42c-.46-.09-.93-.18-1.4-.27Z"/><path d="m175.44,2.23c3.22,0,4.99-.8,3.97-1.78l-3.16-.11c.47.48-1.87.63-1.42,1.1.91.24.52.52.61.78Z"/><path d="m9,35.43c-1.16,1.3-2.22,2.68-3.06,4.12,1.81-1.77,3.84-3.19,5.39-5.15l-.61-.36c-.58.45-1.17.9-1.72,1.39Z"/><path d="m93.36,8.7l-1.98.36-.29.37c1.45-.18,2.92-.34,4.36-.55,1.44-.18,2.84-.45,4.14-.93-.92-.22-2.72-.13-3.12-.53-.55.16-1.01.29-1.47.42-.08.3-.11.6-1.63.86Z"/><path d="m171.54,3.13l-.03.46,3.89.12c.81-.46.76-.96.03-1.47-1.9-.1-1.45-.47-1.48-.79-.3-.17-.73-.33-1.47-.28-.87.07-.35.28-.2.43.59.56,1.7,1.16-.75,1.53Z"/><path d="m60.51,12.99l-.05-.41c-2.61.63-5.62.78-7.6,2.17.48.25.11,1.15,2.79-.34,1.17-.65,3.48-.66,4.86-1.42Z"/><path d="m99.57,85.08l-.23.48c3.02.58,5.8.41,8.62.42l-1.45-.45c-1.55-.27-1.55-.6-1.75-.93-.21-.03-.42-.05-.64-.07-.05.67-.57,1.21-4.56.55Z"/><path d="m134.01,84.63c2.07,0,4.14-.01,6.2-.02,1.34,0,2.34-.04,2.47-.36-1.38-.19-2.84-.18-4.31-.13-1.47.02-2.95.08-4.39.01,0,.16-.01.32.02.49Z"/><path d="m106.52,85.53l1.45.45c2.23.34,4.54.87,6.41.2-2.01-.32-4.11-.57-6.36-.77-1.06-.1-1.43-.1-1.5.12Z"/><path d="m109.37,3.81c.09.05.13.12.29.14,1.15.18-3.06,1.26.19.93,2.35-.16,3.78-.92,3.5-1.59-1.38.05-2.89-.15-3.97.52Z"/><path d="m249.74,67.4c.88-.18,1.76-.45,3.44-1.4,1.37-.84,2.63-1.39,3.46-1.57.48-.29,1.12-.62,1.25-.81-.45.12-.91.25-1.36.37-1.11.53-2.21,1.07-3.3,1.63l-3.31,1.57-.18.21Z"/><path d="m277.94,42.35c-.11.67.03.53.3-.02.28-.54.51-1.53.8-2.45.18-.68.25-1.26.31-1.73.06-.47.08-.84.01-1.15l-.21.02c-.04.89-.23,1.77-.37,2.67-.27.87-.46,1.78-.85,2.65Z"/><path d="m188.2,82.87c-1.41.24-2.91.42-4.38.61-1.47.17-2.89.37-4.13.72,1.44,0,2.86-.16,4.28-.37,1.42-.23,2.82-.51,4.25-.69l-.02-.28Z"/><path d="m9.64,57.89c-.65,1.4,2.69,2.51,4.2,3.58.06-.31.7-.31-1.27-1.45-.5-.27-.99-.63-1.48-1-.5-.36-.99-.74-1.45-1.13Z"/><path d="m112.85,6.27c-.31-.28-.07-.77-1.83-.58-2.37.27-.86.85-2.2,1.27,1.95.28,2.69-.45,4.03-.69Z"/><path d="m198.82,4.44c1.17-.07,2.35-.18,3.52-.2-2.19-.26-2.29-.71-2.57-1.18-.16-.27-.67-.51-1.72-.57-.39-.02-1.01.04-1.14.13-.37.24.48.36,1.15.5,2.4.53-2,.71.07,1.24.22.04.45.07.69.08Z"/><path d="m280.04,38.53c-.04.4-.13.83-.24,1.26-.14.43-.32.85-.47,1.27-.16.42-.29.83-.4,1.22-.13.38-.22.74-.22,1.07.47-.52.79-.49,1.34-4.82Z"/><path d="m134.64,3.52c2.07.01,1.96.51,2.45.88,1.61-.09,3.39.07,4.67-.46l-.06-.24c-1.16-.09-3.18.27-3.39-.12-.47-.86-2.09-.37-3.67-.07Z"/><path d="m129.94,4.98c.95-.71-1.43-.7-2.59-.95l-1.19.48-.89.89c1.61,0,2.99-.59,4.67-.42Z"/><path d="m34.83,71.25l.17-.51c-1.34-.59-2.64-1.26-4.22-1.62-.09.28-.75.45,1.32,1.15,1.56.54,2.21.93,2.03,1.28.73.1.58-.15.69-.3Z"/><path d="m204.92,78.48c-1.47.58-2.57,1.13-2.06,1.48,1.54-.55,3.81-1.14,4.06-1.64l-.35-.16c-.55.12-1.1.22-1.65.32Z"/><path d="m184.17,1.23c-1.16-.23-.52-.53-.72-.8l-2.36-.14c-.4.7-.47,1.36,3.08,1.6v-.65Z"/><path d="m72.69,82.06l.08.42c1.51.25,2.83.31,3.96.22-.8-1.36-2.44-.93-4.04-.65Z"/><path d="m245.06,67.91c.01.07-.1.19.07.19.47,0-1.52,1.12.76.25,2-.79.17-.38.4-.64.07-.08.71-.37,1.1-.57-.53.08-1.01.14-2.32.75Z"/><path d="m197.38,79.86c1.11-.11,2.41-.11,3.13-.58l-1.7.22c-.64.12-1.19.17-1.5.11l-3.13.58.68.04,2.52-.37Z"/><path d="m245.86,9.42s-.07.03-.01.06c.25.14-.93.11.97.43.65.11,1.9.12.68-.21l-1.64-.28Z"/><path d="m130.08,85.09c.06-.3,2.04-.44,1.57-.8-.8,0-1.6-.01-2.4-.03.28.28-.56.58.83.82Z"/><path d="m261,14.22c.03-.35-.66-.74-1.43-1.09-3.44-.5.62.72-.36.79.13.09.32.15.58.18.34.06.68.12,1.02.2.21.03.28,0,.2-.07Z"/><path d="m142.22,1.33l1.56-.26c-.71-.42-2.62-.21-3.82-.37l-.06.4.09.41c.43,0,.75-.01,1.07-.03.11-.23.65-.19,1.17-.15Z"/><path d="m44.66,76.86c-.04-.36-1.73-.72-2.15-1.08l-1.25-.19.91.52c.77.33,1.6.59,2.5.75Z"/><path d="m125.27,5.4l.89-.89c-.82.11-1.63.26-2.45.41l-.05.52,1.61-.04Z"/><path d="m88.84,9.91c-.52-.28-1.18-.39-2.46.24.68.08,1.04.56,2.46-.24Z"/><path d="m166.21,84.92l-2.46.34c-.09.41,1.27.21,2.49.08l-.02-.41Z"/><path d="m81.82,10.72c-1.15.21-2.46.39-3.2.88,1.72.04,2.56-.37,3.2-.88Z"/><path d="m237.55,8.54c.78.12,1.68.18,2.7.17-.86-.07-1.37-.34-2.7-.17Z"/><path d="m194.86,80.23l-.68-.04-1.55.23.09.13c.72.04,1.44-.04,2.14-.31Z"/><path d="m152.59,3.4s.02-.07.1-.11c-.11.03-.23.05-.36.06-.07.15-.14.3-.21.45l.47-.41Z"/><path d="m197.31,79.61c.31.06.87,0,1.5-.11-.02-.22-.53-.17-1.5.11Z"/><path d="m178.46,3.83c-.08-.16.07-.39-.8-.38-.64,0-.52.17-.06.29l.86.09Z"/><path d="m139.89,1.1l.06-.4c-.81.12-1.36.29-1.61.52l1.54-.12Z"/><path d="m143.83.95l2.06-.16c-.88-.23-1.57-.18-2.06.16Z"/><path d="m133.97,84.63l.02-.48c-.52-.03-.79,0-.81.12.07.14-.31.32.79.37Z"/><path d="m14.9,31.86l-.4-.17c-.66.49-.14.37-.22.56.23-.1.43-.24.62-.39Z"/><path d="m206.88,2.26c.77.18,1.58.41,1.71,0-.71-.13-1.41-.25-1.71,0Z"/><path d="m260.81,14.3c-.34-.08-.68-.14-1.02-.2l.56.38.46-.18Z"/><path d="m249.92,67.19l3.31-1.57c1.08-.56,2.18-1.1,3.3-1.63.75-.41,1.05-.65,1.06-.77l-.05-.31c-1.19.63-1.63.76-1.28.39.16-.17.39-.41-.4,0-.23.11-.6.31-.9.48-.3.17-.54.32-.53.33.17.16-.55.63-1.45,1.18-.92.51-2.02,1.09-2.6,1.49-.24.16-.32.28-.48.41Z"/><path d="m279.38,30.14l-.37-1.22c-.12-.41-.25-.81-.46-1.18-.19-.38-.38-.75-.58-1.12-.2-.37-.41-.73-.69-1.04.42.58.51.97.6,1.16.07.2.05.26.02.29-.07.06-.18.03.23.92.24.46.35.98.51,1.48.14.5.34.99.42,1.5.12-.43-.35-2.07.33-.8Z"/><path d="m218.31,76.25c-1.33.1-3.02.42-4.77.8.08.12-.13.35.32.35.6,0-1.66.71.43.27,1.45-.3,1.12-.44.93-.56-.09-.06-.15-.31.84-.27,1.82.07,1.32-.47,2.24-.59Z"/><path d="m270.11,54.8c.59-.53,1.2-1.05,1.79-1.59.14-.3,1.45-1.87.15-.62-1.4,1.28-1.79,1.8-1.94,2.21Z"/><path d="m265.63,58.28c-.53.45-.98.91-.61.71,1.13-.62,2.21-1.61,3.29-2.52-.13-.06-.54.22-1.03.61-.51.37-1.14.83-1.65,1.2Z"/><path d="m226.83,75.1c1.01-.27,2.02-.54,3.02-.83-.22-.15-1.19.04-2.39.37-.93.27-.58.34-.62.46Z"/><path d="m192.69,80.94c-.21.05-.43.08-.66.12l-.05.26c.94-.16,2.1-.28,2.48-.56l-1.77.18Z"/><path d="m272.31,52.74c.36-.11,1.12-.96,1.79-1.88l-.19-.05c-.5.68-1.07,1.29-1.6,1.94Z"/><path d="m259.77,61.21c-.15.07-.3.14-.45.21l-.34.31c.18-.09.39-.2.53-.28.13-.08.17-.15.26-.23Z"/><path d="m220.66,75.7l-1.77.41c.24.01.43.08.73.02.87-.17.83-.3,1.04-.43Z"/><path d="m264.91,58.49l.72-.3c.88-.82.11-.29-.72.3Z"/><path d="m273.91,50.81c.26-.35.66-.83.59-.87-.01,0-.23.21-.33.34-.44.57-.27.45-.27.53Z"/><path d="m257.54,62.92l.05.31c.85-.57.87-.69-.05-.31Z"/><path d="m237.77,71.06s.15,0,.25-.03c-.03-.04-.15,0-.25.03Z"/><path d="m190.39,81.53l-.02.14c.53-.11,1.06-.23,1.59-.36-.51.08-1.04.15-1.57.21Z"/><path d="m262.98,59.9l-.17.07c.06-.03.12-.05.17-.07Z"/><path d="m274.34,50.54l.22-.12c.38-.58.27-.49-.22.12Z"/><path d="m185.62,2.13c-.97.31-2.47.55-1.4,1.1.46.23,1.01.45,1.98.51,1.45.13,1.63-.16,1.83-.43-.74-.38-1.1-.75-.43-1.09.3-.16.24-.34-.62-.42-1.03-.1-1.2.14-1.37.33Z"/><path d="m252.11,9.69c-2.08-.36-1.49.25-1.74.56.76.2,1.86.26,1.88.71,0,.23.7.64,1.39.7.71.06,1.41-.07,1.7-.24.49-.28-.89-.38-1.29-.57-.78-.37-1.31-.77-1.95-1.16Z"/><path d="m211.96,5.17c.66.59,1.65.85,2.8.96,1.15.11,2.44.09,3.7.16-1.75-.84-3.79-1.27-6.5-1.13Z"/><path d="m210.01,5.05l.81.02c.14-.05.23-.12.43-.13,1.53-.12,2.56-.31,1.06-.93-.39-.16-1.5-.4-1.33-.17.4.54-4.56.26-.98,1.21Z"/><path d="m192.71,4.02l2.25.25c.04-.29,1.96-.58-.04-.85-1.48-.2-2.54.09-2.21.6Z"/><path d="m203.41,4.36l2.46.82c-.04-.26,1.34-.39.21-.72-.9-.27-1.9-.25-2.66-.09Z"/><path d="m247.15,9.83c-.43-.18-.68-.34-.95-.38-.29-.05-.58,0-.87,0,.23.11.42.25.69.31.27.05.61.03,1.13.06Z"/><path d="m207.56,5.36l2.18.06c.1-.02.21-.04.32-.06l-.08-.22c-.98-.01-2.4-.25-2.43.22Z"/><path d="m190.71,3.9c.63.22,1.26.46,1.94.13l-1.94-.13Z"/><path d="m242.28,10.11c-.21-.09-.33-.08-.44-.06.08.03.15.07.44.06Z"/><path d="m7.31,59.43c.71.57,1.47,1.3,2.06,1.41.66-.2,2.6,1.72,3.71,1.98.41.09,1.25,1.33,1.99,1.26.44-.03-.58-.9-1.15-1.51-.6-.61-1.1-1-2.16-1.48-1.33-.59-2.79-1.51-3.34-2.83-.18-.38-.54-.77-.95-1.12-.41-.35-.88-.65-1.19-.92-1.11-.91-.49.06-.04.8.38.56.76,1.12.99,1.57.23.44.32.75.06.85Z"/><path d="m34.83,71.25c-.12.15.04.4-.69.3-.25.17-2.08-.44-1.29.19.28.23.96.59,1.45.73,1.62.49.66-.2,1.08-.27.23-.04.41-.11.74-.09.62.03,2.34.47,1.78.04-.65-.48-1.97-.49-3.05-.9Z"/><path d="m29.2,70.02c-.14-.09-.28-.18-.42-.27h-.49c.18.09.38.21.54.26.14.04.24,0,.36,0Z"/><path d="m.85,45.35c.04-.29.11-.57.16-.85-.05.28-.11.57-.16.85Z"/><path d="m257.15,12.72c-.14-.09-.15-.22-1.18-.44.12.09.6.23,1.18.44Z"/><path d="m27.45,23.4l-1.51.6c.08.23.56.42.14.71-.74.5-1.41.92-1.02,1.08.19.08.61-.16.75-.3.53-.52,2.72-1.31,1.95-1.59-.26-.09-.21-.32-.31-.49Z"/><path d="m32.04,22.25c-.52,0-.65-.25-1.72.14-.15.05-.47.33-.41.37.32.22,1.31-.25,2.13-.51Z"/><path d="m49.25,16.6l-.67.18c.04.14-.05.35.82.11l-.15-.29Z"/><path d="m19.92,27.8l-.02.37c.84-.4.64-.5.69-.68l-.67.31Z"/><path d="m23.17,25.62l.36.12c.64-.44-.09-.16-.36-.12Z"/><path d="m278.11,27.96c-.41-.89-.3-.86-.23-.92.03-.03.05-.08-.02-.29-.09-.19-.18-.59-.6-1.16-.58-.85-1.01-1.44-1.4-1.82-.85-.78-1.84-1.72-.62-.03.51.64.75,1.22,1.05,1.62.28.41.51.71.72.96.36.54.67.9,1.09,1.65Z"/><path d="m269.33,18.38c.92.66,2.26,1.84,2.33,1.61.02-.08-.26-.45-1.32-1.19-.99-.77-2.65-1.54-2.74-1.53-.2.07,1.26.76,1.73,1.11Z"/><path d="m270.63,18.69c-.67-.6-1.07-1.01-1.63-1.34-.7-.43-1.96-1.19-2.07-1.11-.06.04.36.38,1.11.83.81.48,1.62.9,2.59,1.62Z"/><path d="m260.87,14.01c-.08-.08-.06-.15-.83-.45-.24-.08-.4-.07-.59-.11.48.15.95.35,1.42.55Z"/><path d="m272.88,20.89c-.2-.16-.09-.05.02.06l-.02-.06Z"/><path d="m262.23,14.65l-.33-.14-.33-.14c.21.12.42.22.66.27Z"/><path d="m155.8,2.77c-.17-.34-.99-.42-2.13-.28-1.45.18-.87.51-1,.79,1.41,0,1.45-.66,3.13-.51Z"/><path d="m173.95,1.44c.03.32-.42.69,1.51.8-.11-.27.28-.55-.63-.79h-.87Z"/><path d="m155.82,2.77l.18.08c-.06-.03-.13-.05-.18-.08Z"/><path d="m71.29,81.78l1.41.28c-.23-.17.53-.32-.6-.5-.65-.1-.83.06-.81.22Z"/><path d="m90.49,84.45c1.29.15,2.6.32,2.64-.12-.97,0-2.04-.06-2.64.12Z"/><path d="m134.64,3.52c1.58-.3,3.21-.79,3.67.07.21.39,2.23.03,3.39.12-.66-.43-1.19-.92-2-1.3-1.75-.83-4.88-.7-7.37.27-.31.12-.46.29-.84.37-1.43.3-1.48.99-.02,1.15q.61.07.92-.4c.15-.22.08-.49,1.17-.58.33-.03.72.19,1.09.3Z"/><path d="m122.82,4.84l.85-.07c1.44-.88-.95-1.27-.94-1.96l-2.33.64c-.16.66,2.99.66,2.42,1.39Z"/><path d="m126.59,2.28c-.86.05-1.75.06-2.37.35.03.03.01.08.09.08,1.08.11.94.83,2.23.61,1.9-.31-.28-.66.05-1.04Z"/><path d="m130.83,2.61c.22-.08.48-.15.46-.18-.08-.11-.26-.2-.4-.3-.1.06-.28.13-.28.19,0,.09.12.17.22.29Z"/><path d="m142.22,1.33c-.53-.04-1.06-.08-1.17.15.5.02,1.2.17,1.17-.15Z"/><path d="m139.98,1.51l-.32.13c.14-.04.28-.07.32-.13Z"/><path d="m9,35.43c.55-.48,1.14-.93,1.72-1.39.05-.49.84-1.27,1.75-2.03.9-.76,1.91-1.51,2.29-2.07-.24-.15-.14-.63-1.68.37.85-.1-.18.75-.81,1.31-.77.68-1.32.73-1.76.8-.64.43-1.25.91-1.87,1.38-1.47,1.67-2.05,2.64-1.99,2.85.07.22.81-.31,2.35-1.23Z"/><path d="m10.52,32.42c.43-.07.98-.12,1.76-.8.63-.56,1.66-1.41.81-1.31-1.05.67-2.43,1.44-2.56,2.11Z"/><path d="m2.77,40.83c.97-.75,1.35-1.32,1.6-1.93.27-.58.38-1.2.85-1.76-1.46,1.11-2.07,2.42-2.45,3.69Z"/><path d="m.85,45.37c.04-.3.11-.59.16-.88-.23.26-.31.56-.16.88Z"/><path d="m93.36,8.7c1.52-.26,1.55-.56,1.63-.86-.29-.36.52-.39,1.39-.39.42-.46,0-.91,2.2-1.34.38-.56-2.02-.04-2.41-.3-3.03,1.06-3.12,2.05-2.82,2.89Z"/><path d="m118.18,4.89l.98-.17c-.57-.12-.69.07-.98.17Z"/><path d="m154.25,84.92c-.37.16-.47.31-.56.46,1.59-.09,3.17-.17,4.75-.26,1.42-.09,1.45-.29,1.49-.49-.85.01-1.88.13-2.4-.05l-3.28.33Z"/><path d="m176.35,82.91c-.04-.14-.14-.29-1.01-.24-.39.02-.9.2-1.35.31.57.12,1.5.01,2.36-.06Z"/><path d="m157.53,84.58c.51.18,1.55.06,2.4.05-.5-.19-1.47-.11-2.4-.05Z"/><path d="m167,84.72c0-.08.73-.22.02-.25-.07,0-.3.02-.36.04-.45.14-.18.19.34.21Z"/><path d="m62.52,14.31c1.25-.47,2.71.54,3.82-.94.02-.9-2.66.26-3.99.38l.18.55Z"/><path d="m78.48,10.16l-.31.11c.09-.04.19-.07.31-.11Z"/><path d="m62.35,13.75l-.19-.04c.07.01.13.02.19.04Z"/><path d="m190.39,81.53c.53-.07,1.06-.13,1.59-.21l.05-.26c-1.11.14-1.64.28-1.64.47Z"/><path d="m99.57,85.08c3.99.66,4.5.12,4.56-.55l-.81-.8c-2.94-.69-4.69-.13-7.02-.19-.34.59-.19,1.15,3.27,1.54Z"/><path d="m137.7,85.23l.34.02c0-.07-.14-.08-.34-.02Z"/><path d="m209.74,5.41l.55.13-.23-.18c-.11.02-.22.04-.32.06Z"/><path d="m130.05,85.1c.27.05.55.1.83.15,0,0,.15-.04.22-.06-.34-.03-.69-.06-1.05-.09Z"/><path d="m85.4,82.08l-1.47-.36c.08.24.12.49,1.47.36Z"/><path d="m153.68,85.38l.29-.46c-.78.04-1.64.06-1.77.26-.13.2.63.22,1.47.2Z"/><path d="m88.56,9.1c.05-.22.04-.43-.74-.44.12.18-.19.47.74.44Z"/><path d="m84.59,8.62l.18.05c-.06-.02-.12-.03-.18-.05Z"/><path d="m90.78,7.91c-.19-.12-.21-.32-.6-.33-.51,0-.96.25-.78.33.35.17-1.15.89,1.23.46.05-.15.1-.31.16-.46Z"/><path d="m90.78,7.91c-.05.15-.1.3-.16.46,1.17-.31,1.04-.44.16-.46Z"/><path d="m42.99,18.54c-.12,0-.23-.02-.36-.02-.02,0-.26.11-.27.13-.02.06.04.1.07.14l.57-.25Z"/><path d="m42.06,74.67l.32.04c-.12-.02-.23-.04-.32-.04Z"/><path d="m248.28,8.91l1.24.08-.28-.19c-.34.03-.67.05-.96.11Z"/><path d="m49.61,15.95l1-.16c-.1-.09-.32-.11-.54-.13l-.47.29Z"/><path d="m96.38,7.45c-.87,0-1.69.03-1.39.39l1.39-.39Z"/>
                  </g>
                </mask>
              </defs>
              <path class="mask" d="m274.9,15.99C201.18-4.1,109.34-2.27,38.42,20.7,20.03,26.66,1.26,35.83,1.93,47.62c.49,8.59,11.52,15.95,24,21.08,19.39,7.97,43.06,12.2,66.85,14.5,40.13,3.87,82.24,2.49,120.36-5.46,20.81-4.34,40.89-10.89,53.83-20.9,12.94-10.01,17.44-23.96,7.05-34.85-10.39-10.88-37.57-16.63-56.64-10.29"
                    mask="url(#path-mask)" stroke="black" stroke-width="2" fill="none"
                    stroke-dasharray="669.392822265625" stroke-dashoffset="669.392822265625">
              </path>
            </svg>
        