
            <svg xmlns="http://www.w3.org/2000/svg">
              <defs>
                <mask id="path-mask">
                  <g fill="white">
                    <path d="m173.62,40c.69-1.3,0-.63.02-.96.22-.28.42-.56.59-.86.27-.34.54-.72.82-1.1.26-.39.5-.78.75-1.12.27-.35.51-.81.7-1.34.21-.52.41-1.1.5-1.68.27-1.16.23-2.33.13-3.01.07-.92.05-1.51-.08-1.89.08-1.23-.37-2.99-.38-3.95.11-.29-.04-1.4.4-.57.15.31.31.63.42,1.02.09.39.15.85.18,1.39.04.9.04,1.7.26,2.21l-.03.84c.03.53-.09,1.14-.26,1.71-.15.57-.21,1.11-.07,1.56-.08.32-.23.9-.24.91.27.93-.56,2.75-1.3,4.25l-.12-.03c.13-.45.07-.37-.16.09-.03.08-.07.15-.11.23l-.19-.03c.13-.25.32-.62.24-.65-.02,0-.12.17-.17.26-.22.42-.1.33-.08.4-.23.5-.45,1-.69,1.49-.06.12-.13.23-.21.35.04-.22.6-1.43-.07-.46-.76.99-.83,1.43-.83,1.75,0,.29-.28.75-.87,1.36-.24-.08-.94.89-1.5,1.51l-.04-.09c.39-.69-.01-.23-.46.26-.76.53-.62.77-1.02,1.19l-.11.06.12-.07c.06.13.49.08-.78,1.16-.78.68-1.42,1.29-1.12,1.37l-.78.68c-.3.11-.59.22-.9.32.44-.35.58-.56.56-.66.46-.5.43-.61-.13-.28-.69.55-.98.64-.83.33.07-.15.18-.34-.3-.01-.28.19-.82.68-.8.7.36.3-1.55,1.64-2.18,2.35-.13.14-.16.24-.24.36l-.07.19c-1.76,1.17-3.76,2.07-5.28,3.26-.38.3-1.04.49-1.49.64-.82.27-1.32.55-1.67.9-1.25.51-2.52.96-3.79,1.42l-.12-.11c-.18-.15-.82,0-1.57.31-.58.24-.33.32-.34.44-2.07.85-4.16,1.68-6.39,2.41l.1.02c-.01.07.19.09-.23.23-.1.12-.11.24-.66.4.1-.37-1-.13-1.89.07-1.92.43-4.16.8-5.78,1.4-1.12.42-1.89.65-3.02.87-.69.14-.25.3-.28.44l-3.29.75-3.31.66-.04-.27c.41-.24.27-.37.03-.5-.42-.23.11-.48,1.29-.68l1.01-.33c.62-.13,1.37-.23,1.6-.51-.38.05-.76.12-1.15.16-.17-.1-.87-.11-.02-.39.48.06.94-.02,1.38-.28l1.62-.34c.76.3,2.15.31,3.65.2.95-.53,2.39-1.07,2.5-1.54,1.43-.31,2.86-.6,4.24-1.13.07.12-.04.33.27.35.4.02-1.02.65.33.28.93-.26.69-.41.54-.53-.07-.06-.15-.3.52-.25,1.23.09.82-.42,1.79-.65.16.01.3.09.49.03.55-.15.51-.28.63-.41,1.79-.54,3.42-1.35,5.35-1.87,1-.27,1.38-.82,1.57-1.14,2.81-1.14,5.57-2.43,8.22-3.9.03.06-.02.18.1.18.33.01-.79,1.02.6.25,1.23-.68.02-.35.12-.58.03-.07.42-.31.64-.49,2.09-1.5,4.39-3.03,6.43-4.72.62-.47,1.34-1.53,2.01-1.7.17-.07.52-.32.96-.66.45-.34.97-.79,1.46-1.31.25-.26.51-.52.75-.77.22-.28.44-.55.65-.8.41-.51.74-.98.91-1.31Zm-6.14,6.32l-.16.25c.11-.07.24-.16.31-.23.07-.07.08-.13.12-.2-.09.06-.18.12-.27.18Zm-12.64,8.34c-.06.02-.13.05-.19.08.03.04.1,0,.19-.08Z"/><path d="m138.15,2.5c3.46.31,6.78,1.18,10.15,1.82.22,1.31,2.52,1.06,3.89,1.51.21.42.07.85,1.65.8.95-.02,2.26.29,3.41.56.88.39-2.27,1.02,1.25,1.24.48.17,1.22.18,1.18.63-.02.23.39.6.85.64.47.04.95-.12,1.16-.3.36-.3-.55-.34-.79-.51-.48-.34-.79-.71-1.17-1.07.34-.22,1.53.24,1.58-.23.57.85,3.44.62,3.19,1.52-.13.45-1.33.71-1.92,1.14-.62.44-2.64.06-4.2-.43-.7-.22-1.33-.6-2.04-.8-.68-.19-1.46-.72-2.04-.48-.63.26,1.32.5.87.86-1.17.09-2.35-.01-3.57-.56.06-.73-.18-1.32-2.21-1.1-.76.08-1.53-.22-2.31-.49-.78-.25-1.57-.43-2.33-.19l-.54-.06-.97-.39c-1.57-1.04-3.4-1.45-5.48-1.13-1.1-.73-2.41-1.15-4.2-.96l-.74-.07c.09-.05.16-.12.29-.14,1.01-.14,1.7-.36.75-.95-.25-.15-.96-.37-.86-.14.23.53-3,.34-.73,1.3-.64,0-1.56-.21-1.6.27l-1.1-.15c-.01-.26.89-.41.17-.72-.58-.25-1.23-.21-1.74-.05l-.69-.08c-1.42-.18-1.47-.66-1.64-1.13-.1-.27-.42-.5-1.1-.55-.26-.02-.67.05-.75.14-.25.25.3.35.73.49,1.55.5-1.34.74,0,1.24-.38.4-1.25.3-2.08.25v-.3c.05-.29,1.31-.6.01-.85-.96-.18-1.66.12-1.5.63l-1.26-.1c-.57-.18-1.15-.39-1.73-.54-.47-.35-.7-.71-.26-1.08.2-.17.17-.34-.39-.39-.67-.06-.79.16-.9.36l-.94-.24v-.65c1.61.11,3.45-.12,4.47.83.39.35.99.22,1.11-.1.09-.23-.02-.51.67-.59,1.42-.19,2.85-.24,4.29-.17.72.04,1.44.1,2.17.2.72.12,1.45.29,2.17.48,1.7,1.06,5.4,1.43,7.77.78Zm17.66,5.32c-.19-.04-.39.02-.58.03.14.1.26.24.42.28.17.05.4,0,.75,0-.27-.16-.43-.28-.6-.32Z"/><path d="m14.6,52.33c1.21.53,1.57,1.14,2.02,1.74.23.3-.19.61.85.94.83.26.8-.11.78-.44-.02-.31.03-.59.06-.89.94.43,1.87.87,2.83,1.26-.11.27-.6.47.71,1.01.99.4,1.38.73,1.19,1.08-.2.16-1.38-.28-.93.26.16.19.57.5.88.61,1.04.38.49-.22.79-.31.16-.05.3-.12.52-.13.43-.01,1.54.3,1.22-.07-.37-.42-1.28-.33-1.96-.68l.21-.5c2.77,1,5.4,2.13,8.02,3.26-.61.41-1.13.99-3.29-.28-.36-.21-.99-.39-1.22-.23-.25.17.21.4.72.63.07.35.14.7.14,1.05l-.83-.12.55.46c-1.99-.3-3.72-1.04-5.14-2.16-.28-.52-.93-1.22-1.9-1.27-1.89-.07-4.23-2.41-5.78-2-1.36-1.08-3.02-1.84-4.47-2.88.44-.52-.61-1.34-1.61-1.9-.91-.47-1.32-.95-1.78-1.57.59-.26,1.66,1.21,2.45,1.34.28.06.67,1.04,1.23.93.34-.07-.23-.76-.53-1.24-.3-.5-.6-.78-1.31-1.09-.44-.2-.91-.45-1.28-.78-.36-.34-.64-.76-.73-1.26-.07-.63-.9-1.06-1.32-1.4-.77-.57-.42.11-.2.65.38.82.79,1.65.34,1.87l-.52-.3c-.17-1.23-1.61-2.54-2.39-4.06-.34-.55-1.17-1.85-.33-1.73.17.05-.77-1.72-.93-1.76-.4-.02-.56-.58-.64-1.34l-.06-.57c-.25-1.04-.38-2.36.35-1.85.41.54.4.5.57-.31.1-.36.32-.81.45-.86.45-.18.05,1.17.39,1.42,0,.34.04.69.06,1.03.07.34.15.68.19,1,.15.65.19,1.29.07,1.96-.04.17.08.46.22.68.16.21.32.37.34.33.16-.32,1.03,1.32.76,0,.2-.03.26.09.5.56.74,1.54,1.67,3.18,3.23,4.23-.81,1.21,1.53,1.84,2.44,2.61,1.13.87,2.29,1.03,3.48,1.93-.5.14-1.73.03.59,1.12Zm5.02,3.35l-.34.02c.11.08.23.18.33.21.09.03.17-.01.26-.02-.09-.08-.17-.15-.25-.22Z"/><path d="m151.09,7.08c-.93-.04-1.96,0-2.98-.02-1.01.01-2.01.14-2.85.3-.76-.03-1.72.12-2.7.29-.96.27-1.97.5-2.84.76-.49.15-.68.23-1.01.38-1.04.48-1.07,1.05.09.71,1.23-.36,1.63-.42,1.99-.33.37.07.99.06,2.11-.47.12-.05.61-.16.82-.18.52-.06,1.02-.13,1.53-.21.51-.05,1.01-.09,1.52-.14,1.01-.14,2.02-.13,3.05-.14,2.36.07,4.72.28,7.03.79,1.17.2,2.29.56,3.44.86,1.11.4,2.25.73,3.32,1.23l.05-.14c-.37-.16-.66-.3-.73-.38-.66-.25-1.48-.47-2.03-.67-.66-.25-1.43-.39-2.15-.59-.72-.21-1.41-.36-1.93-.57-.31-.13-1.65-.5-3.06-.72-1.4-.28-2.88-.32-3.37-.35-.16,0-.34.05-.31.07.23.19-.68.1-1.1.06-.5-.05-.81-.13-1.25-.18-.25-.02-1.02.1-.95.02.04-.04.49-.14,1.09-.18,1.27-.05,3.05,0,3.23-.2Z"/><path d="m24.29,15.01c-1.13.6-2.55,1.12-3.1,1.94.36-.09.85-.14,1.06-.28.83-.53,1.6-1.09,2.45-.9.7.17.02.67-.42,1.16-.77.85-1.59.96-2.5,1-.57.02-1.41.31-1.73.66-1.09,1.15-1.9.95-2.82,1.12-.51.24-1.11.63-1.39.44-.06-.04.1-.3.19-.35.67-.33.82-.09,1.19-.09.31-.54.63-1.1.96-1.64-1.3-.24-2.32.84-3.36,1.64.17.23.21.48-.58.99.11.16.14.37.35.46.62.26-.73.96-.97,1.43-.07.13-.3.34-.46.27-.32-.15.05-.52.44-.97.23-.26-.17-.44-.29-.65-.29.5-1.77.91-1.58,1.47.19-.05.64-.31.3.1l-.29-.11c-.68.32-.59-.36-1.35.19-.27.19-.26.66-.36,1.02.11.13.11.31-.19.64.05.03.11.07.17.1l.39-.28c.84-.23,3.05-1.34.46.79-.16.15-.1.4-.14.6.55-.45,1.11-.92,1.7-1.32.58-.41,1.22-.72,1.93-.81.16-.04,1.57-1.42,2.69-2.07.2-.37.58-.61,1.26-1,2-1.12,4.38-1.65,6.18-3.02,1.03.2,2.27-.96,3.26-.98.97-.01,1.69-.17,2.65-.85,1.3-.92,2.03-.88,2.27-.29.78-.32,1.56-.64,2.36-.9-.24-.33.35-.78.74-1.2-1.27-.13-2.59-.23-.39-1.45.28-.16.03-.25-.3-.23-.83.67-2.41.6-3.08,1.24-1.56,1.42-1.46.56-1.83.3l-.51.2c.03.23-.2.45-.78.67.04.3-.32.53-.87.77l.16.29c-.56.19-.53,0-.59-.14-1.2.11-2.87.66-3.31.07Z"/><path d="m175.85,20.48c-.32-.59-.59-.99-.83-1.26-.55-.54-1.16-1.19-.54.02.83,1.96,1.19,1.87,1.67,2.88.24.64.36,1.31.5,1.98.01.96.47,2.72.38,3.95l-.2.03c-.03-.57-.09-1.19-.18-1.77-.12-.57-.22-1.1-.21-1.55-.03-.55-.15-1.1-.29-1.66-.17-.55-.45-1.1-.69-1.69-1.11-2.26-2.67-4.29-4.57-5.94-1.9-1.66-4.08-3.02-6.38-4.16-.05-.1,0-.19.59.05l.88.46.42.29c.12.1.26.18.41.21,2.8,1.64,3.12,2,2.32.97-.03-.03-.03-.04-.04-.07-1.28-.7-1.99-1.29-2.77-1.78-.38-.26-.76-.52-1.21-.79-.46-.24-1-.48-1.67-.74-1.11-.43-2.62-.88-2.85-1.23.74.25,1.64.36,1.85.54.41.32,1.19.57,1.93.89,2.61,1.17,5.04,2.61,7.31,4.54l1.19,1.07,1.07,1.21c.38.39.66.86.97,1.3.31.44.62.89.86,1.38,1.09,1.89,1.82,4.01,2.13,6.19.16.86.26,2.26.03,2.32-.22-.51-.23-1.31-.26-2.21-.03-.54-.1-1-.18-1.39-.11-.39-.27-.71-.42-1.02l-.18-.82c-.08-.26-.18-.52-.28-.78-.21-.51-.4-1.03-.76-1.45Zm-3.36-3.95c.05-.07-.05-.39-.71-.92-.31-.26-.7-.58-1.03-.82-.35-.21-.62-.37-.66-.35-.17.07.77.57,1,.88.56.48,1.3,1.38,1.39,1.21Zm-1.34-2.11c-.43-.34-1.2-.91-1.3-.84-.06.04.18.31.64.65.51.34.95.75,1.56,1.26-.38-.46-.59-.77-.9-1.07Zm1.9,2.57l.2.24v-.05c-.16-.17-.17-.18-.2-.19Z"/><path d="m110.33.25c-1.29.12-2.29.08-3.74-.12-2.11-.29-4.74-.03-7.13.06-1.2.05-2.49-.12-3.59.28v.59c.28.26.98.66.18.8-2.36.41-2,1.46-3.61,2.01.87-.06,1.63-.21,2.31-.45.09,0,.16-.03.22-.06.08-.28-.31-.61.63-.78.74-.14,1.28-.04,1.39.29l.13.07-.12-.08c-1.1-.14-1.12.5-2.02.5-.06.03-.08.07-.06.11,1.06.58,2.31-.1,3.45-.05,1.43-.69,2.98-.62,4.53-.11.46.16.77.38,1.28,0,.79-.57,1.96-.37,3.07-.19,1.6-.45.87-1.01.49-1.55-.1-.14-.44-.34.13-.43.48-.08.76.06.96.23h.57c-.29-.46,1.24-.63.93-1.11Z"/><path d="m50.36,66.11c.96.47,1.97.86,3.4.82,1.81-.27,3.65-.1,5.57.56.4-.19,1.11-.17,1.74-.19l1.03.26c-.11-.18-.26-.51-.31-.52-1.92-.09-3.12-.9-4.95-1.08-1.33-.14-2.54-.34-2.82-.97,0-.02-.14-.04-.21-.07-.26.02-.52.05-.78.07.12.68-1.2.4-2.21.19-3.31-.72-6.74-1.03-10.01-2.13-1.97-.67-2.11-.56-.99-1,.34-.14.59-.32.87-.49-1.94-.32-4.03-1.24-5.74-.96.34.15.66.33,1.03.45.6.19,1.57.05,1.74.51.07.2-.97.24-1.62.25-.35,0-.95-.2-1.44-.31-.41-.1-.84-.25-1.08-.14-.32.14.07.37.46.59.61.35.69.76,1.72,1.03,1.19.75,2.59,1.3,4.36,1.52,2.1-.1,4.39.41,6.72.86,0-.16.14-.33.56-.24.74.15.22.31.36.48,1.08-.35,2.2-.82,2.62.51Z"/><path d="m165.99,11.83l.42.29.21.11.21.11c2.8,1.64,3.12,2,2.32.97-.03-.03-.03-.04-.04-.07-1.28-.7-1.99-1.29-2.77-1.78-.38-.26-.76-.52-1.21-.79-.46-.24-1-.48-1.67-.74-1.11-.43-2.62-.88-2.85-1.23-.87-.12-2.33-.63-3.01-.6.78.29-.06.31-.48.22-1.23-.26-.45-.27-.6-.4-.03-.03,0-.04.02-.06-.91-.41-2.59-.4-3.65-.66-.68.02-1.26-.03-1.77-.15-.18.21-1.97.15-3.24.2-.61.04-1.05.14-1.09.18-.07.08.7-.04.95-.02.44.06.75.14,1.25.18.42.04,1.33.13,1.1-.06-.03-.02.15-.06.31-.07.49.02,1.97.07,3.37.35,1.41.22,2.75.59,3.06.72.53.2,1.22.36,1.93.57.72.2,1.49.34,2.15.59.55.2,1.37.42,2.03.67.65.22.65.29.73.39l-.05.14.92.4c-.05-.1,0-.19.59.05.13.03.23.02.38.1.48.24.45.29.49.37Z"/><path d="m87.88,4l-.05-.23c-.45-.43-.81-.88-1.36-1.27-1.18-.85-3.24-.76-4.82.17-.2.12-.28.28-.53.36-.92.28-.91.97.05,1.15q.4.08.58-.39c.08-.22.03-.49.74-.56.22-.02.48.2.73.31,1.35.04,1.31.54,1.64.91-1.5.39-3.05.5-4.64.49.58-.71-.98-.71-1.74-.93l-.75.5-1.57.4c-.03-.05-.04-.1-.04-.16.89-.85-.71-1.28-.75-1.97l.97-.15s.01.08.06.09c.72.13.67.82,1.5.59,1.22-.34-.22-.65-.03-1.04l.53-.52c2.37-.23,4.79-.57,7.14-.46l1.01-.1.07.41-.2.13.27-.11.63-.07c.33,0,.79.15.76-.18l1.01-.29-.14.08-.16-.05c.73.39,2.48.27,3.01.98.25.34,2.41-.42,3.6-.79.2-.06.32-.16.48-.24.27.26.97.66.17.8-2.36.41-2,1.46-3.61,2.01-1.56.33-3.08.35-4.56.13Zm-6.92-1.59c-.06-.11-.18-.2-.28-.31-.06.06-.18.13-.17.19,0,.09.09.18.16.29.14-.08.31-.14.29-.17Z"/><path d="m14.26,20.71c.79-.5.74-.76.58-.99l-.8.39c-.19.12-.39.24-.57.37-1.52.77-3.03,1.52-4.34,2.84-.54.53-1.37,1.21-2.17,1.67-.92.45-2.26,1.86-2.44,2.13-.42.8-.94,1.46-1.36,2.23-.22.37-.45.74-.68,1.1l-.62,1.14c-.46.73-.74,1.58-1.11,2.39-.15.42-.26.86-.39,1.29-.13.43-.26.87-.29,1.33-.21,1.34.16,2.18.35,3.23.25,1.36.75,2.63,1.34,3.82.63,1.16,1.34,2.27,2.16,3.24,1.62,1.98,3.49,3.65,5.46,5.11.43.31.82.69,1.2.68.44-.52-.61-1.34-1.61-1.9-.91-.47-1.32-.95-1.78-1.57-.43-.06-.89-.58-1.34-.97l-.52-.3c-.17-1.23-1.61-2.54-2.39-4.06-.34-.55-1.17-1.85-.33-1.73.17.05-.77-1.72-.93-1.76-.4-.02-.56-.58-.64-1.34-.2-.16-.21-.37-.06-.58-.25-1.03-.38-2.35.34-1.84,0-.28.03-.55.1-.82-.06-.45-.11-.92-.06-1.42.08-.49.31-.99.67-1.49-.06-.57-.01-1.1.15-1.64.09-.26.22-.52.43-.73.22-.2.52-.38.9-.5.3-.43.6-.86.96-1.24-.14-.54.64-1.29,1.24-1.87.85-.9.93-.5,1.16-.37.27-.72.74-1.26,1.28-1.71.55-.43,1.22-.71,1.91-.94.1-.36.09-.82.36-1.02.76-.55.67.13,1.35-.19-.2-.55,1.28-.95,1.57-1.45.31-.18.61-.37.93-.54Z"/><path d="m66.64,3.65c-.78-.23-1.61-.3-2.61.26.67.21,1.32.46.67.97-.51.4-1.03-.05-1.62.18-.92-.5-1.3-.04-1.77.39-.53.48-1.1.7-1.61.26-1.4.43-1.08.87-1.26,1.31.3.4,1.48.3,2.1.52,1.02.21,2.3.11,3.47-.29.88-.29,1.65-.44,2.54-.5.84-.4-.2-.95,1.34-1.24,1.14-.21,1.02.29,1.25.56l1-.22c-.12-.28-.3-.54-.33-.83-.02-.19.44-.35.88-.39.38-.05.69.03.49.19-.29.25-1.16.55-.18.63.24.02,1.02-.45,1.55-.69.17-.09.23-.29.62-.15l-.63.15c.5.76,1.74.44,3.04.04.33-.72-1.75-.78-1.69-1.43-2.15.66-2.2.12-2.12-.49-.87.23-1.67-.13-2.54.24.24.66-.64,1.43-2.17,1.61-2.12.25.58-.72-.2-.93-.11-.03-.14-.1-.2-.15Z"/><path d="m106.38,67.65l.84-.07,1.6-.34.59-.09s-.04-.08-.06-.12c-.35-.01-.53-.06-.25-.2.04-.02.18-.05.23-.04.47.03,0,.17,0,.25.84-.07,1.45-.23,1.82-.49,1.16-.83,3.18-.55,3.17-.37-.06.54,1.27.33,2.25.33,1.18-.37,2.35-.73,3.55-1.1.52-.16,1.56-.27,1.22-.49-.28-.18-1.37.16-1.66.14-.91-.08-2.16.8-2.74.31-.67.05-1.46.16-1.6-.09-.56.07-1.16.18-1.54.06-1.24.13-2.49.24-3.72.3-2.44.15-4.49.91-6.97.91l.02.35c.61-.07,1.23-.15,1.57.03-.02.2-.03.4-.95.49l.47.41,2.18-.18Z"/><path d="m35.1,11.62c.33-.02.58.08.3.23-2.2,1.22-.88,1.32.39,1.45l.89-.33-.2-.55-.14-.04.13.05c.88-.07,2.54-1.07,2.65-.21,1.35-.49,2.78-.22,4.15-1.2.2-.14,1.22-.17,1.36.13l1.47-.31c.5-.63,2.29-1.31,1.75-1.92-.03-.03.29-.18.45-.27,1.37.84,1.47-.69,2.37-.73-.02-.06-.04-.13-.05-.19-2.77-.36-3.13.75-3.83,1.64l-.18.1.19-.1c-.53.04-1.47.21-1.51.12-.63-1.32-2.24.01-3.68.55-1.5.58-3.17,1.4-4.71,1.23-.72.05-.77-.46-1.92-.04l.1.4Z"/><path d="m116.44,1.98l-.94-.24c-2.31-.22-2.26-.88-1.99-1.58-.76-.27-.73.13-1.11.19.66.97-.51,1.77-2.61,1.8.47.51.5,1-.03,1.47.52.52.97.19,1.43.03-.3-.12-.38-.29.04-.29.57-.01.47.22.52.38,1.19.74,2.99.34,4.29.37,2.12,0,4.4.56,6.44.16v-.3s-1.45-.22-1.45-.22c-.49.34-.89.11-1.3-.1-.57-.18-1.15-.39-1.73-.54-.14.28-.27.57-1.21.49-.63-.05-.99-.27-1.28-.5-.69-.54.29-.79.93-1.11Z"/><path d="m116.93,65.36c.58.49,1.83-.39,2.74-.31.29.02,1.38-.32,1.66-.14.34.22-.7.33-1.22.49-1.2.37-2.37.74-3.55,1.1l.48.19.59-.09c1.57-.7,3.69-.76,5.5-1.25.41-.24.27-.37.03-.5-.42-.23.11-.48,1.29-.68v-.14c-.02-.19.31-.34,1.03-.44.15-.03.29-.06.43-.1-.17-.1-.87-.11-.02-.39l-.07-.13-4.32.66c-1.44.21-2.88.44-4.31.77.51.24,1.42.42-.25.94Z"/><path d="m74.95,68.77c.61,0,.52.72,1.63.23.83-.37,1.58.23,2.39.1.25-.66,1.34-.5,2.49-.24.97.22,1.78.15,2.52-.08.77-.23,1.1-.49.3-.78-1.08-.02-2.07-.3-3.24-.18-3.63.36-4.03.29-6.9-.37-.07-.02-.21-.04-.22-.03-1.51.56-3.69-.52-5.23-.06.12.32.11.66,1.12.88.05-.22.29-.24.99-.16,1.47.17,2.84.42,4.15.68Z"/><path d="m116.93,65.36c1.67-.52.76-.7.25-.94-1.15.02-1.94-.19-3.49.44-1.12.47-3.49.39-5.35.62-1.25.17-2.54.29-3.83.41-1.29.13-2.59.2-3.87.16-1.12-.03-1.86.04-1.71.46.14.41,1.05.34,2.05.2.7-.06,1.4-.09,2.1-.16,2.48,0,4.54-.76,6.97-.91,1.23-.06,2.48-.17,3.72-.3.29-.11.61-.28.86-.3.57-.05.64.1.68.24.14.25.93.14,1.6.09Z"/><path d="m46.8,9.36c.7-.89,1.06-2,3.83-1.64.65-.28,1.3-.5,1.96-.73.5-.26,1.03-.53.82-.81-1.07-.28-2.24.33-3.26.64-3.93,1.13-7.99,1.81-11.79,3.45-1.02.41-1.11.64-1.44.98,1.54.17,3.21-.66,4.71-1.23,1.44-.54,3.04-1.87,3.68-.55.05.1.99-.07,1.5-.12Z"/><path d="m40.69,61.57c-.29.16-.53.35-.87.49-1.12.45-.98.34.99,1,3.28,1.11,6.7,1.41,10.01,2.13,1.01.21,2.34.49,2.21-.19-1.79-.97-3.86-1.22-6.18-1.31-1.5-.05-2.59-.43-2.16-1.07-1.52,0-2.62-.79-4-1.05Z"/><path d="m68.7,67.36c1.54-.47,3.72.61,5.24.06.02,0,.15.02.22.03,2.87.66,3.27.73,6.9.37,1.16-.12,2.15.16,3.23.18-.45-.54-.95-1.07-2.71-1.4l-1.31.3c-.49.34-1.23.3-2.27.19-1.27-.14-2.81-.16-3.91-.26-2.21-.24-4.23.25-6.31-.32l.5.79c.14.01.28.03.42.06Z"/><path d="m94.76,66.97c-.65.53-1.18,1.01,1.5.95.86-.02.33.21.27.34-1.31.36-2.77.25-3.72.07-2.41-.48-2.94-.02-3.44.58l-.49.05c-1.58-.26-4.16-.43-1.71-1.28.44-.15.43-.44.62-.66,1.35-.02,2.7-.05,4.04-.07.87,0,1.53-.03,1.6-.36h1.5c-.05.12-.03.25-.17.37Zm-4.29.56c-.05-.01-.14-.01-.27.04.07,0,.15.01.27-.04Z"/><path d="m161.32,7.6c.57.85,3.44.62,3.19,1.52-.13.45-1.33.71-1.92,1.14-.62.44-2.64.06-4.2-.43-.7-.22-1.33-.6-2.04-.8-.68-.19-1.46-.72-2.04-.48-.63.26,1.32.5.87.86,2.16,1.27,5.25,1.21,7.48,2.51.7.42.71-.27,1.34-.2.66-.1-1.9-1.14.34-.78.93-.52,2.95-.29,2.93-1.3-.44-.2-1.02-.38-1.28-.6-.64-.53-.32-1.64-2.5-1.09-.01,0-.16-.11-.36-.24-.2-.13-.45-.28-.65-.37-1.19-.5-2.38-.72-3.51-.62.14.96,1.73.43,2.35.89Z"/><path d="m166.99,12.38c.59.22.98.48,1.21.82.29.42.77.86,1.34,1.15.57.28,1.23.44,1.87.41,1.14-.06,2.28-.39,2.61-1,.63-1.15-.53-1.97-3.5-2.68-.73-.16-1.51-.76-2.27-1.16-1.04.27-.86.92-.03,1.58.85.66,1.81.67,2.63.43.3-.09,1.54.02,1.29.47-.23.4.32.98-.24,1.26-.34.17-.57.46-1.37.28-.83-.18-1.09-.55-1.09-.89,0-.35-.04-.65-.95-.9-.88-.24-1.39-.18-1.5.22Z"/><path d="m67.78,66.52c2.08.57,4.11.08,6.31.32,1.1.1,2.64.12,3.91.26,1.04.11,1.78.14,2.27-.19-1.76-.88-4.43-.58-6.63-.72-1.64-.15-3.3-.17-4.94-.28-1.64-.13-3.28-.31-4.84-.76l-.29.21c.44.32,2.08.82-.47.66-.83-.05-1.34.19.08.46,1.52.04,2.69-.62,4.59.05Z"/><path d="m32.68,15.4c-.24-.58-.97-.63-2.27.29-.95.68-1.67.84-2.65.85-.99.02-2.23,1.19-3.26.98-1.8,1.37-4.17,1.89-6.18,3.02-.68.39-1.05.63-1.26,1,2.1-.51,4.12-1.47,6.32-2.52.7-.33,1.42-.65,2.16-.95.75-.28,1.55-.52,2.38-.71,1.46-.34,3.16-1.28,4.75-1.95Z"/><path d="m130.67,4.8l-1.09-.15-1.57-.77-.7-.08-2.31.27c.62.59,1.6.85,2.66.99,1.06.16,2.2.24,3.14.37,1.88.27,3.78.45,5.68.6,1.91.15,3.8.42,5.7.65l1.04-.06c-1.57-1.04-3.4-1.45-5.48-1.13-1.65,0-3.4.19-4.2-.96l-.74-.07h-.53c-.01.15,0,.22.01.29l.14.18-.35-.12-1.43-.02Z"/><path d="m135.04,61.15c1.43-.31,2.86-.6,4.24-1.13,1.12-.32,2.19-.64,3.08-.68.74-.25,1.12-.37,1.49-.5,1.79-.54,3.42-1.35,5.35-1.87,1-.27,1.38-.82,1.57-1.14-5.22,2.03-10.59,3.62-15.99,5.15l.26.17Z"/><path d="m96.53,68.26c-1.31.36-2.77.25-3.72.07-2.41-.48-2.94-.02-3.44.58,3.95.09,7.92.2,11.83-.56.94-.18,1.56.12,2.33,0,1.06-.17,2.71-.13,2.86-.71l-2.18.18c-1.19.08-2.39.12-3.59.15-1.36.1-2.72.22-4.09.28Z"/><path d="m169.77,45.04c.06.13.49.08-.78,1.16-.78.68-1.42,1.29-1.12,1.37,3.38-2.6,6.42-5.95,8.17-10.14l-.12-.03-.16.09c-.03.08-.07.15-.12.24-.3.69-.59,1.39-.88,1.47-.06.12-.13.23-.21.35l-.9,1.29c0,.29-.28.75-.87,1.36-.57.72-1.05,1.59-1.74,2.1-.24.15-.01-.2.23-.59l-.04-.09c-.16.09-.3.18-.46.26-.76.53-.62.77-1.01,1.18Z"/><path d="m88.87,68.96c-1.58-.26-4.16-.43-1.71-1.28.44-.15.43-.44.62-.66-.75-.05-.5-.23-.55-.37l-1,.04c.31.36-.98.5-1.02.81l.67.08c-.05.02-.15.06-.15.06-.18-.05-.36-.09-.54-.13-.89-.23-.34-.54-.52-.82-1-.41-2.03-.5-3.1-.09,1.76.32,2.26.86,2.71,1.4.8.3.47.55-.3.78-.74.23-1.55.3-2.52.08-1.15-.27-2.24-.42-2.49.24,2.6.16,5.26-.1,7.83.16,1.01.11,1.55-.07,2.07-.31Z"/><path d="m63.2,66.47c-1.42-.26-.92-.51-.08-.46,2.55.16.91-.33.47-.66-.47.29-1.23-.05-1.85-.07.04.24-.46.5-.82.36-1.8-.65-3.19-.12-4.79-.39-.9.16-.91-.08-.95-.32-.83-.42-1.08-.19-1.37,0,.07.02.21.05.22.07.27.63,1.48.83,2.82.97,1.83.18,3.03.99,4.95,1.08.05,0,.2.34.31.52l1.96.55,1.04.29.17-.48c-2.26-.29-2.33-.88-2.08-1.46Z"/><path d="m35.75,62.98c-1.03-.27-1.11-.68-1.72-1.03-.39-.22-.78-.45-.46-.59.24-.11.67.04,1.08.14.49.12,1.09.32,1.44.31.66,0,1.69-.05,1.62-.25-.17-.46-1.14-.31-1.74-.51-.37-.12-.69-.3-1.03-.45-.38-.42-.88-.27-1.33-.37-.77-.08-1.62-.1-1.5.27.49,1.44-1.81.74-3.9.14.16.34,1.27.59,1.25.94,1.76.36,3.27,1.19,5.02,1.62,1.26.3,1.05-.03,1.26-.23Z"/><path d="m56.12,65.25c1.6.27,3-.26,4.79.39.36.13.86-.13.82-.36-3.22-.4-6.42-.81-9.64-1.21-1.61-.2-3.28-.6-4.83-1.03-.94-.26-1.73-.33-2.58-.42-.42.64.66,1.03,2.16,1.07,2.33.09,4.39.34,6.18,1.31.26-.02.52-.05.78-.07.29-.19.54-.42,1.36,0l.95.32Z"/><path d="m96.53,68.26c1.36-.06,2.73-.18,4.09-.28l.02-.32c-.56.03-1.05.01-.98-.19.07-.2.64-.23,1.14-.27.18-.16.18-.33.18-.49-1.01.14-1.91.21-2.05-.2-1.31-.09-2.65-.07-4.01.08-.05.13-.03.26-.17.38-.65.53-1.18,1.01,1.5.95.86-.02.33.21.27.34Z"/><path d="m52.59,6.99c-.66.24-1.32.46-1.96.73l.05.2.13.05-.12-.05c-.9.04-1,1.57-2.37.73-.16.09-.48.24-.45.27.54.61-1.25,1.29-1.75,1.92.16.19.6.04.99-.06.44-.45,1.29-.57,2.02-.79.57-.02.71-.91,1.14-.44.45.5,1.25-.13,1.8-.1.78-.58,1.23-.44,1.61-.16.54-.03,1.24.21,1.44-.39l.15-.36c-.64,0-1.02-.26-1.87-.06-.62,0-.45-.28-.54-.46-2.76.24.19-.77-.25-1.03Z"/><path d="m174.23,38.19c.27-.34.54-.72.82-1.1.26-.39.5-.78.75-1.12.27-.35.51-.81.7-1.34.21-.52.41-1.1.5-1.68.27-1.16.23-2.33.13-3-.09.62-.18,1.27-.27,1.66-.1.38-.22.48-.28.03-.51,2.32-1.46,4.48-2.36,6.56Z"/><path d="m52.84,8.02c-2.76.24.19-.77-.25-1.03.5-.26,1.03-.53.82-.81,1.52-.4,3.03-1.31,4.58-.88.08.02.11.06.09.11-1.89,1.06-1.86,1.95-1.56,2.82l-1.28.3c-.64,0-1.02-.26-1.87-.06,0-.22-.02-.42-.54-.46Zm1.45-.99c-.34-.02-.61.21-.48.3.25.17-.67.84.87.49.74-.27.65-.4.05-.45-.14-.12-.17-.33-.44-.34Z"/><path d="m18.2,18.08c.45-.2.97-.04,1.33-.57.81-1.19,1.19-.64,1.66-.56.36-.09.85-.14,1.06-.28.83-.53,1.6-1.09,2.45-.9.7.17.02.67-.42,1.16-.77.85-1.59.96-2.5,1-.57.02-1.41.31-1.73.66-1.09,1.15-1.9.95-2.82,1.12.31-.54.63-1.1.96-1.64Zm5.6-1.71s-.16.1-.16.12c0,.05.05.09.07.14l.34-.23c-.08-.01-.16-.03-.25-.03Z"/><path d="m162.19,51.54c-1.76,1.17-3.76,2.07-5.28,3.26-.38.3-1.04.49-1.49.64-.82.27-1.32.55-1.67.9,1.77-.4,3.64-1.51,5.38-2.53,2.24-1.34,4.52-2.36,6.52-4.14.29-.26.67-.54.75-.72-.57.14-1.31.66-2.09,1.37-.95.85-1.51,1.1-2.11,1.23Z"/><path d="m166.99,12.38c.11-.4.62-.46,1.5-.22.91.25.95.55.95.9,0,.34.27.71,1.09.89.8.18,1.03-.11,1.37-.28.56-.28.01-.86.24-1.26.26-.45-.98-.56-1.29-.47-.83.24-1.79.23-2.63-.43-.84-.65-1.02-1.31.03-1.58-.28-.25-.59-.43-.98-.31.01,1.01-2,.78-2.93,1.3.47.33.88.66.82,1.01l1.84.45Z"/><path d="m10.05,23.9c-.68.24-1.35.51-1.91.94-.54.45-1.01.99-1.28,1.71-.08.51-.6,1.15-1.02,1.81-.4.68-.74,1.33-.59,1.71l.63.26c.71-.52,1.12-1.14,1.45-1.81,0-.16-.36-.05-.03-.47l.36.14c.13-.07.25-.18.35-.31,1.44-1.43.41-2.01,1.85-3.33.3-.33.3-.52.19-.64Z"/><path d="m117.04,66.69l-.48-.19c-.98,0-2.31.21-2.25-.33.01-.18-2.01-.46-3.17.37-.36.27-.97.42-1.82.49.04.03.06.07.08.11v.45c2.54-.09,5.07-.15,7.64-.9Z"/><path d="m140.74,61.44c.1-.37-1-.13-1.89.07-1.92.43-4.16.8-5.78,1.4-1.12.42-1.89.65-3.02.87-.69.14-.25.3-.28.44,1.22-.21,2.42-.45,3.62-.72,1.21-.27,2.42-.58,3.64-1.04,1.06-.38,2.46-.67,3.71-1.02Z"/><path d="m36.67,12.97l-.89.33c-.39.42-.98.87-.74,1.2,2.51-.5,4.96-1.81,7.58-2.03,1.06-.07,1.15-.89,2.01-1.32-.14-.3-1.16-.27-1.36-.13-1.37.97-2.8.71-4.15,1.2-.52,1.4-1.67.34-2.45.76Z"/><path d="m1.42,35.81c-.07.27-.09.55-.1.82.41.54.4.5.57-.32.1-.36.32-.81.45-.86.45-.18.05,1.17.39,1.42l.21-.49c.09-.16.19-.31.29-.46.16-.49.23-1,.49-1.46.09-1.06.36-2.14.75-3.21-.86.8-1.24,1.28-1.41,1.12-.08-.08-.08-.3-.02-.69.03-.2.08-.44.14-.72.09-.27.2-.58.33-.93-.38.13-.67.3-.9.5-.21.21-.34.47-.43.73-.16.53-.21,1.07-.15,1.64-.13.48.01.92.02,1.35,0,.44-.01.9-.63,1.56Z"/><path d="m28.22,60.65c2.09.6,4.39,1.29,3.9-.14-.12-.37.73-.34,1.5-.27-.05-.68-1.23-.47-1.82-.75-.61.41-1.13.99-3.29-.28-.36-.21-.99-.39-1.22-.23-.25.17.21.4.7.61l.23.04-.21-.02.22,1.05Z"/><path d="m57.99,5.3c.08.02.11.06.09.11.29.26,1.81-.27,1.62.29.51.44,1.08.22,1.61-.26.46-.43.85-.89,1.77-.39.59-.23,1.11.22,1.62-.18.65-.51,0-.75-.67-.97-1.04.15-2.13.17-3.18.31-1.05.14-2.03.46-2.86,1.08Z"/><path d="m88.79,1.11c.73.39,2.48.27,3.01.98.25.34,2.41-.42,3.6-.79.2-.06.32-.16.48-.24V.47c-1.89-.35-3.58.49-5.42.34l-1.35.15c-.18.03-.28.07-.33.15Z"/><path d="m168.89,44.87c.17-.07.52-.32.96-.66.45-.34.97-.79,1.46-1.31.25-.26.51-.52.75-.77.22-.28.44-.55.65-.8.41-.51.74-.98.91-1.31.69-1.3,0-.63.02-.96-.23.4-.46.8-.68,1.2-.26.38-.54.73-.88,1.02-.14.13-.55.62-.58.65-.26.54-.68,1.06-1.15,1.55-.5.47-1.03.92-1.46,1.4Z"/><path d="m161.32,7.6c-.63-.46-2.22.06-2.35-.89-.62-.56-1.39-.52-2.14-.54-1.34.36-3.15-.36-4.63-.33.21.42.07.85,1.65.8.95-.02,2.26.29,3.38.54l.68-.12.16.18-.82-.04c.88.39-2.27,1.02,1.25,1.24.2-.31-.13-.89,1.23-.61.34-.22,1.53.24,1.58-.23Z"/><path d="m141.64,60.81c-.01.07.19.09-.23.23,3.01-.85,6.29-1.61,8.55-3.29l-.12-.11-1.91.74c-2.07.86-4.16,1.67-6.29,2.42Z"/><path d="m152.2,5.84c1.47-.04,3.29.69,4.63.33,0-.73-1.25-.41-1.81-.59-2.15-.69-4.46-.97-6.71-1.25.22,1.31,2.52,1.06,3.89,1.51Z"/><path d="m115.51,1.08c1.61.11,3.44-.12,4.46.83.39.35.99.22,1.11-.1.09-.23-.02-.51.67-.59.27-.65-1.1-.56-1.81-.65-1.61-.22-3.25-.2-4.88-.29.12.27-.3.57.46.8Z"/><path d="m107.25,3.11c-1.11-.19-2.27-.38-3.07.19-.52.37-.82.15-1.28,0-1.55-.51-3.1-.58-4.53.11,1.46.51,3.25.45,5,.37,1.29-.05,2.57-.14,3.86-.21l.02-.46Z"/><path d="m14.01,51.22c-.5.14-1.73.03.59,1.12,1.21.53,1.57,1.14,2.02,1.74.23.3-.19.61.85.94.83.26.8-.11.78-.44-.02-.31.03-.59.06-.89-1.47-.77-2.92-1.57-4.3-2.47Z"/><path d="m71.76,2.87c-.08.61-.03,1.15,2.12.49l1.49-.59.97-.15c.39-.26.97-.3,1.53-.36l.53-.52c0-.41-.67-.21-1.21-.09-1.81.41-3.62.81-5.44,1.22Z"/><path d="m3.22,35.93c-.09.15-.2.3-.29.46l-.21.49c0,.34.04.69.06,1.03.07.34.15.68.19,1,.15.65.19,1.29.07,1.96-.04.17.08.46.22.68.16.21.32.37.34.33.16-.32,1.03,1.32.76,0-.54-.9-.68-1.99-.81-2.99-.01-.51-.1-1-.09-1.49-.02-.49-.17-.98-.23-1.48Z"/><path d="m72.53,4.76c-.53.25-1.3.72-1.55.69-.97-.08-.11-.39.18-.63.2-.17-.1-.24-.49-.19-.44.05-.9.2-.88.39.03.29.21.56.33.83,1.91.31,3.97-.08,6.02-.44v-.51c-.03-.05-.04-.1-.04-.16l-.55.06c-1.3.4-2.54.72-3.03-.03Z"/><path d="m9.86,24.55c-1.44,1.33-.41,1.91-1.85,3.33,1.11-.35,2.1-.71,2.74-2.13.04-.2-.02-.45.14-.6,2.59-2.13.38-1.02-.46-.79.01.16.19.25-.29.61l-.1-.33c-.06-.03-.12-.06-.17-.1Z"/><path d="m22.72,58.83c-.28-.52-.93-1.22-1.9-1.27-1.89-.07-4.23-2.41-5.78-2,2.48,1.43,5.05,2.52,7.68,3.27Z"/><path d="m64.06,68.11l-1.96-.55-1.03-.26c-.04.44-.9.31-1.74.19-1.92-.66-3.76-.83-5.57-.56.14.21.65.47,1.02.46,3.04-.03,6.31,1.03,9.28.71Z"/><path d="m151.6,8.85c.06-.73-.18-1.32-2.21-1.1-.76.08-1.53-.22-2.31-.49-.78-.25-1.57-.43-2.33-.19,1.92,1.25,4.5,1.32,6.86,1.78Z"/><path d="m128.89,62.48c.76.3,2.15.31,3.65.2-.39-.35.28-.88,1.18-1.43-1.06.02-1.91.42-2.82.72-.42.46-1.29.39-2.01.51Z"/><path d="m130.38,1.72c1.7,1.06,5.4,1.43,7.77.78-2.15-.67-4.43-.56-6.65-.81-.1.42-.63.2-1.13.03Z"/><path d="m28.03,14.8c.55-.23.91-.47.8-.71l-.67.1-.21-.15.49-.1.47.09c.58-.22.81-.44.78-.67-1.79.59-3.57.55-5.4,1.65.44.59,2.11.05,3.31-.07l.43-.14Z"/><path d="m46.83,65.36c-2.33-.46-4.62-.97-6.72-.86.71.49,1.41.8,2.65.72,1.56-.09,3.32.65,4.99.79l-.02-.42c-.3-.08-.6-.16-.9-.23Z"/><path d="m109.79,2.14c2.1-.03,3.27-.83,2.61-1.8l-2.07-.09c.31.47-1.23.64-.93,1.11.6.24.34.52.39.78Z"/><path d="m4.46,31.26c-.39,1.07-.66,2.15-.75,3.21.75-1.42,1.8-2.51,2.17-4.13l-.63-.26-.79,1.18Z"/><path d="m56.53,8.23l-1.28.3-.15.36c1.89-.28,3.84-.38,5.45-1.35-.62-.22-1.8-.12-2.1-.52-.34.16-.63.29-.93.42-.02.29,0,.59-.99.8Z"/><path d="m107.25,3.11l-.02.46c.84,0,1.69-.01,2.53.03.53-.47.5-.96.03-1.47-1.24-.09-.94-.46-.96-.78-.19-.17-.48-.31-.96-.23-.57.1-.23.29-.13.43.38.54,1.11,1.1-.49,1.55Z"/><path d="m35.1,11.62l-.1-.4c-1.7.46-3.7.6-4.81,1.94.37.25.27,1.12,1.83-.3.67-.64,2.25-.57,3.08-1.24Z"/><path d="m65.28,67.92l-.17.48c1.96.51,3.79.34,5.65.26l-.94-.42c-1.01-.23-1-.56-1.12-.88-.14-.03-.27-.04-.42-.06-.06.67-.41,1.2-3.01.62Z"/><path d="m87.79,67.03c1.35-.02,2.7-.05,4.04-.07.87,0,1.53-.03,1.6-.36-1.81-.37-3.79.05-5.66-.06,0,.16,0,.32.02.49Z"/><path d="m69.82,68.25l.94.42c1.45.32,2.96.84,4.2.11-1.31-.26-2.68-.51-4.15-.68-.69-.08-.94-.07-.99.16Z"/><path d="m66.64,3.65c.07.05.1.12.2.15.78.2-1.92,1.18.2.93,1.52-.18,2.4-.95,2.17-1.61-.91.06-1.91-.12-2.57.54Z"/><path d="m162.19,51.54c.6-.13,1.16-.38,2.11-1.23.78-.71,1.52-1.23,2.09-1.37.28-.23.65-.54.69-.7-.3.11-.59.22-.9.32-1.33.91-2.57,1.92-3.92,2.79l-.07.19Z"/><path d="m176.59,31.63c.06.45.17.35.28-.03.09-.38.18-1.04.27-1.66.07-.92.05-1.51-.08-1.89l-.2.03c.02.58,0,1.17,0,1.76-.05.59-.15,1.19-.25,1.8Z"/><path d="m123.13,65.36c-1.81.49-3.93.55-5.5,1.25,1.9,0,3.7-.61,5.54-.97l-.04-.27Z"/><path d="m8.09,46.67c-.81,1.21,1.53,1.84,2.44,2.61.11-.27.62-.36-.64-1.13-.62-.4-1.23-.96-1.8-1.49Z"/><path d="m69.13,6.08c-.23-.27-.11-.77-1.25-.56-1.53.28-.49.84-1.34,1.24,1.31.34,1.72-.45,2.58-.68Z"/><path d="m125,4.07l2.31-.27c-1.42-.18-1.47-.66-1.63-1.13-.1-.27-.42-.5-1.1-.55-.26-.02-.67.05-.75.14-.25.25.3.35.73.49,1.55.5-1.34.74,0,1.24.14.04.29.06.45.08Z"/><path d="m177.9,28.99c.03.53-.09,1.14-.26,1.71-.15.57-.21,1.11-.07,1.56.2-.19.31-.28.35-.7.02-.21.04-.49.05-.9.03-.41,0-.95-.07-1.67Z"/><path d="m83.21,3.53c1.35.04,1.31.54,1.64.91,1.05-.07,2.22.13,3.03-.44l-.05-.23c-.76-.04-2.06.27-2.22-.12-.34-.87-1.39-.39-2.41-.12Z"/><path d="m80.22,4.93c.58-.71-.98-.71-1.74-.93l-.75.5-.52.9c1.05-.02,1.91-.65,3.01-.47Z"/><path d="m23.58,56.72l.21-.5c-.82-.5-1.62-1.01-2.64-1.27-.11.27-.6.47.71,1.01.99.4,1.38.73,1.19,1.08.49.06.42-.18.53-.32Z"/><path d="m133.72,61.25c-.9.55-1.57,1.08-1.18,1.43.95-.53,2.39-1.07,2.5-1.54l-.26-.17-1.06.28Z"/><path d="m115.51,1.08c-.76-.22-.33-.53-.46-.8l-1.54-.13c-.27.7-.32,1.36,1.99,1.58v-.65Z"/><path d="m47.73,65.59l.02.42c.98.19,1.85.21,2.61.1-.42-1.34-1.54-.86-2.63-.52Z"/><path d="m158.99,51.93c.03.06-.02.18.1.18.33.01-.79,1.02.6.25,1.23-.68.02-.35.12-.58.03-.07.42-.31.64-.49-.35.07-.69.09-1.45.65Z"/><path d="m128.89,62.48c.72-.11,1.59-.05,2.01-.51-.37.07-.74.11-1.11.17-.41.1-.77.15-.98.09l-2,.54.45.05,1.62-.34Z"/><path d="m156.52,7.88s-.05.03-.02.06c.16.13-.63.13.6.4.42.09,1.25.07.48-.22l-1.06-.23Z"/><path d="m85.22,67.5c.04-.31,1.33-.45,1.02-.81h-1.56c.18.27-.36.59.54.81Z"/><path d="m165.15,11.93c.06-.35-.35-.68-.82-1.01-2.24-.36.32.68-.34.78.08.09.2.14.36.15l.66.15c.14.02.19,0,.14-.08Z"/><path d="m88.08,1.37l1.01-.29c-.48-.41-1.72-.16-2.51-.3l-.03.4.07.41c.28,0,.49-.02.7-.04.06-.24.41-.2.76-.18Z"/><path d="m29.47,61.58c.02-.34-1.09-.59-1.32-.93l-.83-.12.55.46c.48.29,1.01.5,1.61.6Z"/><path d="m53.66,9.28c-.38-.29-.83-.42-1.61.16.47.1.75.58,1.61-.16Z"/><path d="m108.81,67.24l-1.6.34c-.04.41.85.22,1.64.08l-.04-.41Z"/><path d="m49.11,9.98c-.73.22-1.59.35-2.02.79,1.16.12,1.66-.28,2.02-.79Z"/><path d="m151.1,7.08c.51.12,1.1.16,1.77.15-.57-.07-.89-.33-1.77-.15Z"/><path d="m127.26,62.83l-.45-.05-1,.2.07.13c.48.06.94-.02,1.38-.28Z"/><path d="m94.92,3.46s0-.07.06-.11c-.07.03-.15.05-.23.06-.04.15-.08.3-.12.45l.29-.4Z"/><path d="m128.81,62.23c.21.07.57.01.98-.09-.04-.22-.37-.18-.98.09Z"/><path d="m111.75,3.72c-.05-.15.05-.39-.52-.38-.41,0-.34.17-.04.29l.56.08Z"/><path d="m86.55,1.19l.03-.4c-.52.11-.88.27-1.03.5l1.01-.1Z"/><path d="m89.11.96l1.35-.15c-.58-.23-1.04-.2-1.35.15Z"/><path d="m87.76,67.02v-.48c-.33-.03-.5,0-.52.12.05.14-.2.32.52.37Z"/><path d="m7.65,28.19l-.36-.14c-.33.42.03.31.03.47.14-.09.25-.2.33-.33Z"/><path d="m130.38,1.72c.5.17,1.02.38,1.12-.03-.46-.11-.92-.23-1.12.03Z"/><path d="m13.46,20.47c.19-.13.38-.25.57-.37l-.3.02c-.09.11-.19.23-.28.35Z"/><path d="m162.26,51.35c1.35-.86,2.59-1.88,3.92-2.79.44-.35.58-.56.56-.67l-.13-.27c-.69.55-.98.64-.83.33.07-.15.18-.34-.3-.01-.28.19-.82.68-.8.7.36.3-1.55,1.64-2.18,2.35-.13.14-.16.24-.24.36Z"/><path d="m177.07,23.53l-.18-.82c-.08-.26-.18-.52-.28-.78-.21-.51-.4-1.03-.76-1.45.79,1.68-.13.44.31,1.64.24.64.36,1.31.5,1.98.11-.29-.04-1.4.4-.57Z"/><path d="m142.35,59.33c-.89.04-1.96.36-3.08.68.07.12-.04.33.27.35.4.02-1.02.65.33.28.93-.26.69-.41.54-.53-.07-.06-.15-.3.52-.25,1.23.09.82-.43,1.42-.53Z"/><path d="m173.65,40.82l.9-1.29c.04-.22.6-1.43-.07-.46-.76.99-.83,1.43-.83,1.75Z"/><path d="m171.28,43.69c-.24.39-.48.75-.23.59.69-.51,1.16-1.38,1.74-2.1-.24-.08-.94.89-1.5,1.51Z"/><path d="m147.93,58.38l1.91-.74c-.18-.15-.82,0-1.57.31-.58.24-.33.32-.34.44Z"/><path d="m125.91,63.5c-.14.04-.28.07-.43.1v.26c.6-.13,1.35-.23,1.58-.51-.38.05-.76.12-1.15.16Z"/><path d="m174.77,39.19c.29-.08.58-.78.88-1.47l-.19-.03c-.23.51-.46,1-.69,1.5Z"/><path d="m167.74,46.15c-.09.06-.18.12-.27.18l-.16.25c.11-.07.24-.16.31-.23.07-.07.08-.13.12-.2Z"/><path d="m143.85,58.83l-1.12.38c.16.01.3.09.49.03.55-.15.51-.28.63-.41Z"/><path d="m170.78,43.86c.16-.08.31-.17.46-.26.39-.69-.01-.23-.46.26Z"/><path d="m175.46,37.68c.13-.25.32-.62.24-.65-.02,0-.12.17-.17.26-.22.42-.1.33-.07.39Z"/><path d="m166.61,47.62l.13.27c.45-.5.43-.61-.13-.27Z"/><path d="m154.64,54.74s.1,0,.17-.02c-.03-.04-.1,0-.17.02Z"/><path d="m124.44,64.04v.14s1.02-.33,1.02-.33c-.33.06-.67.13-1.02.19Z"/><path d="m169.76,45.05l-.11.06s.08-.05.11-.06Z"/><path d="m175.76,37.48l.16-.09c.13-.45.07-.37-.16.09Z"/><path d="m116.44,1.98c-.64.31-1.62.57-.93,1.11.29.23.65.44,1.28.5.94.08,1.07-.22,1.21-.49-.47-.35-.7-.71-.26-1.08.2-.17.17-.34-.39-.39-.67-.06-.79.16-.9.36Z"/><path d="m159.74,7.83c-1.35-.28-1.02.3-1.23.61.48.17,1.22.18,1.18.63-.02.23.39.6.85.64.47.04.95-.12,1.16-.3.36-.3-.55-.34-.79-.51-.48-.34-.79-.71-1.17-1.07Z"/><path d="m133.56,4.53c.79,1.15,2.55.96,4.2.96-1.1-.73-2.41-1.15-4.2-.96Z"/><path d="m132.29,4.45h.53c.1-.04.16-.11.29-.13,1.01-.14,1.7-.36.75-.95-.25-.15-.96-.37-.86-.14.23.53-3,.34-.71,1.22Z"/><path d="m121.02,3.72l1.46.22c.04-.29,1.3-.6,0-.85-.96-.18-1.66.12-1.46.63Z"/><path d="m128.01,3.88l1.57.77c-.01-.26.89-.41.17-.72-.58-.25-1.23-.21-1.74-.05Z"/><path d="m156.41,8.14c-.27-.16-.43-.28-.6-.32-.19-.04-.39.02-.58.03.14.1.26.24.42.28.17.05.4,0,.75,0Z"/><path d="m130.67,4.8l1.43.02c.07-.02.14-.04.21-.06l-.04-.22c-.64,0-1.56-.21-1.6.27Z"/><path d="m119.73,3.62c.41.21.81.44,1.26.1l-1.26-.1Z"/><path d="m153.14,8.59c-.13-.08-.21-.06-.28-.05.05.03.09.06.28.05Z"/><path d="m5.84,48.24c.45.4.92.91,1.34.97.59-.26,1.66,1.21,2.45,1.34.28.06.67,1.04,1.23.93.34-.07-.23-.76-.53-1.24-.3-.5-.6-.78-1.31-1.09-.44-.2-.91-.45-1.28-.78-.36-.34-.64-.76-.73-1.26-.07-.63-.9-1.06-1.32-1.4-.77-.57-.42.11-.2.65.38.82.79,1.65.34,1.87Z"/><path d="m23.58,56.72c-.1.15-.04.38-.53.32-.19.16-1.38-.28-.93.26.16.19.57.5.88.61,1.04.38.49-.22.79-.31.16-.05.3-.12.52-.13.43-.01,1.54.3,1.22-.07-.37-.42-1.28-.33-1.96-.68Z"/><path d="m19.87,55.9c-.09-.08-.17-.15-.25-.22l-.34.02c.11.08.23.18.33.21.09.03.17-.01.26-.02Z"/><path d="m1.03,39.05l-.06-.57c.02.18.04.38.06.57Z"/><path d="m163.66,10.77c-.07-.09-.08-.17-.73-.39.06.09.36.23.73.39Z"/><path d="m14.26,20.71c-.32.16-.62.36-.93.54.12.21.51.4.29.65-.4.45-.77.82-.44.97.16.08.39-.14.46-.27.24-.47,1.59-1.18.97-1.43-.21-.09-.24-.3-.35-.46Z"/><path d="m17.24,19.71c-.37,0-.52-.24-1.19.09-.09.05-.25.31-.19.35.28.2.87-.2,1.39-.43Z"/><path d="m28.03,14.8l-.43.14c.05.14.03.33.59.14l-.16-.29Z"/><path d="m10.03,24.64l.1.33c.49-.36.31-.45.29-.61l-.39.28Z"/><path d="m11.76,22.7l.29.11c.33-.41-.11-.15-.29-.11Z"/><path d="m176.17,22.12c-.44-1.21.47.03-.31-1.64-.32-.59-.59-.99-.83-1.26-.55-.54-1.16-1.19-.54.02.83,1.96,1.19,1.87,1.67,2.88Z"/><path d="m171.1,15.31c.56.48,1.3,1.38,1.39,1.21.05-.07-.05-.39-.71-.92-.31-.26-.7-.58-1.03-.82-.35-.21-.62-.37-.66-.35-.17.07.77.57,1,.88Z"/><path d="m172.05,15.48c-.38-.46-.59-.77-.9-1.07-.43-.34-1.2-.91-1.3-.84-.06.04.18.31.64.65.51.34.95.75,1.56,1.26Z"/><path d="m165.99,11.83c-.04-.07-.01-.13-.49-.37-.15-.07-.26-.07-.38-.1l.88.46Z"/><path d="m173.25,17.17c-.13-.11-.06-.03,0,.05v-.05Z"/><path d="m166.82,12.34l-.21-.11-.21-.11c.12.1.26.18.41.21Z"/><path d="m97,2.85c-.12-.33-.65-.43-1.39-.29-.94.17-.55.51-.63.78.92,0,.93-.64,2.03-.49Z"/><path d="m108.83,1.36c.02.32-.28.69.98.79-.07-.26.19-.55-.41-.78h-.57Z"/><path d="m97.01,2.85l.12.08s-.08-.05-.12-.08Z"/><path d="m46.83,65.36l.91.24c-.14-.17.38-.33-.36-.48-.42-.09-.56.08-.56.24Z"/><path d="m59.33,67.5c.84.11,1.7.24,1.74-.19-.64.02-1.34,0-1.74.19Z"/><path d="m83.21,3.53c1.02-.28,2.06-.75,2.41.12.15.39,1.46.08,2.22.12-.45-.43-.81-.88-1.36-1.27-1.18-.85-3.24-.76-4.82.17-.2.12-.28.28-.53.36-.92.28-.91.97.05,1.15q.4.08.58-.39c.08-.22.03-.49.74-.56.22-.02.48.2.73.31Z"/><path d="m75.56,4.79l.55-.06c.89-.85-.71-1.28-.75-1.97l-1.49.59c-.06.65,2.01.71,1.69,1.43Z"/><path d="m77.87,2.26c-.56.06-1.14.1-1.53.36.02.03.01.08.06.09.72.13.67.82,1.5.59,1.22-.34-.22-.65-.03-1.04Z"/><path d="m80.67,2.58c.14-.08.31-.14.29-.17-.06-.11-.18-.2-.28-.31-.06.06-.18.13-.17.19,0,.09.09.18.16.29Z"/><path d="m88.08,1.37c-.34-.03-.7-.06-.76.18.33,0,.79.15.76-.18Z"/><path d="m86.62,1.59l-.2.13c.09-.04.18-.07.2-.13Z"/><path d="m4.46,31.26l.79-1.18c-.16-.39.19-1.03.59-1.71.43-.65.94-1.3,1.02-1.81-.24-.13-.31-.53-1.16.37.63-.11.13.64-.16,1.12-.33.61-.75.68-1.07.75-.36.38-.65.81-.96,1.24-.12.35-.23.67-.33.93-.06.28-.11.52-.14.72-.06.39-.06.61.02.69.17.16.55-.32,1.41-1.12Z"/><path d="m4.46,28.8c.33-.07.74-.14,1.07-.75.29-.48.79-1.23.16-1.12-.6.58-1.37,1.33-1.24,1.87Z"/><path d="m1.42,35.81c.62-.66.64-1.11.63-1.56,0-.44-.15-.87-.02-1.35-.36.51-.59,1-.67,1.49-.05.5,0,.97.06,1.42Z"/><path d="m1.04,39.06l-.06-.59c-.16.21-.14.42.06.59Z"/><path d="m56.53,8.23c.98-.21.97-.5.99-.8-.23-.36.3-.38.87-.4.23-.46-.09-.9,1.31-1.33.19-.56-1.33-.03-1.62-.29-1.89,1.06-1.86,1.95-1.56,2.82Z"/><path d="m72.52,4.76l.63-.15c-.38-.13-.45.06-.63.15Z"/><path d="m100.98,67.2c-.24.15-.29.3-.35.46,1.04-.07,2.07-.13,3.1-.24.93-.1.93-.3.95-.49-.55.02-1.23.14-1.57-.04-.71.12-1.42.21-2.13.31Z"/><path d="m103.73,67.42c-1.03.11-2.06.16-3.09.24l-.02.32c1.2-.03,2.39-.07,3.59-.15l-.48-.41Z"/><path d="m100.98,67.2c.71-.1,1.42-.19,2.13-.31l-.02-.35c-.7.07-1.4.11-2.1.16v.49Z"/><path d="m115.33,65.27c-.04-.14-.11-.29-.68-.24-.26.02-.57.2-.86.3.38.12.98.01,1.54-.06Z"/><path d="m103.12,66.89c.34.18,1.01.05,1.57.04-.33-.18-.96-.1-1.57-.04Z"/><path d="m109.32,67.03c0-.08.47-.22,0-.25-.05,0-.19.02-.23.04-.29.14-.1.19.23.21Z"/><path d="m36.67,12.97c.78-.41,1.92.65,2.45-.76-.11-.85-1.77.14-2.65.21l.2.54Z"/><path d="m46.81,9.36l-.19.1c.06-.03.12-.06.19-.1Z"/><path d="m36.47,12.43l-.13-.05s.09.03.13.05Z"/><path d="m124.44,64.04l1.03-.19v-.26c-.71.11-1.04.25-1.03.44Z"/><path d="m65.28,67.92c2.6.58,2.95.05,3.01-.62l-.5-.79c-1.89-.67-3.06-.02-4.59-.05-.25.58-.18,1.17,2.08,1.46Z"/><path d="m90.2,67.58l.22.02c0-.07-.1-.07-.22-.02Z"/><path d="m85.2,67.5c.18.04.36.09.54.13,0,0,.1-.04.15-.06-.22-.02-.45-.05-.69-.07Z"/><path d="m56.12,65.25l-.95-.32c.03.24.05.49.95.32Z"/><path d="m100.63,67.66l.17-.46c-.51.03-1.07.07-1.14.27-.08.2.42.22.97.19Z"/><path d="m53.38,8.48c0-.22-.02-.42-.54-.46.1.18-.07.45.54.46Z"/><path d="m50.68,7.91l.12.05s-.09-.03-.12-.05Z"/><path d="m54.73,7.37c-.14-.12-.17-.33-.44-.34-.34-.02-.61.21-.48.3.25.17-.67.84.87.49l.05-.44Z"/><path d="m54.73,7.37l-.05.44c.74-.27.65-.4.05-.44Z"/><path d="m24.05,16.39c-.08-.01-.16-.03-.25-.03-.01,0-.16.1-.16.12,0,.05.05.09.07.14l.34-.23Z"/><path d="m28.01,59.6l.21.02c-.08-.01-.15-.03-.21-.02Z"/><path d="m157.26,7.2l.82.04-.16-.18c-.23.04-.46.08-.65.14Z"/><path d="m28.17,14.2l.67-.1c-.08-.09-.24-.12-.39-.15l-.27.25Z"/><path d="m58.39,7.04c-.57.01-1.11.04-.87.4l.87-.4Z"/>
                  </g>
                </mask>
              </defs>
              <path class="mask" d="m174.29,13.05C127.79-2.78,69.86-1.34,25.13,16.76,13.53,21.46,1.69,28.69,2.11,37.98c.31,6.77,7.27,12.57,15.14,16.61,12.23,6.28,27.16,9.62,42.17,11.42,25.31,3.05,51.88,1.96,75.92-4.3,13.13-3.42,25.79-8.58,33.96-16.47,8.16-7.89,11-18.89,4.45-27.46-6.56-8.58-23.7-13.1-35.73-8.11"
                    mask="url(#path-mask)" stroke="black" stroke-width="2" fill="none"
                    stroke-dasharray="436.7038269042969" stroke-dashoffset="436.7038269042969">
              </path>
            </svg>
        