
            <svg xmlns="http://www.w3.org/2000/svg">
              <defs>
                <mask id="path-mask">
                  <g fill="white">
                    <path d="m195.38,53.44c1.64-.7.47-.65.73-.98.42-.09.83-.19,1.24-.3,1.05-.15,2.26-.4,3.28-.52,2.13-.18,5.58-2.02,6.74-3.32,1.02-.47,1.61-.87,1.92-1.28,1.39-.57,3.07-2.04,4.23-2.37.41.05,1.64-.53.92.37-.27.32-.57.63-.95.93-.39.28-.86.56-1.46.83-.98.46-1.82.92-2.22,1.46-.29.17-.59.32-.89.48-.52.35-1.24.55-1.91.78-.67.21-1.28.48-1.56,1.03-.18.08-.43.19-.65.27-.21.08-.39.16-.39.16-.63,1-2.88,1.64-4.77,2.26l-.09-.16c.48-.26.36-.26-.22-.07-.09.04-.19.08-.29.11l-.15-.22c.31-.13.79-.27.74-.37,0-.02-.25.02-.37.06-.53.2-.35.23-.38.32l-1.8.78c-.15.06-.3.11-.46.16.19-.21,1.66-.86.27-.55-1.47.31-1.87.7-2.09,1.03-.19.34-.79.57-1.8.7-.2-.33-1.54.22-2.52.44l.02-.12c.85-.45.13-.28-.65-.08-1.12.05-1.12.45-1.78.62h-.15s.16,0,.16,0c0,.23.46.39-1.49.8-1.21.26-2.23.57-1.94.87l-1.19.32-1.15-.18c.65-.16.92-.31.94-.45.75-.31.79-.45,0-.41-1.04.22-1.41.18-1.09-.11.15-.14.36-.32-.33-.19-.4.07-1.26.35-1.24.39.25.54-2.51,1.14-3.52,1.68-.21.11-.28.22-.42.33l-.16.2c-2.48.51-5.12.77-7.29,1.59-.55.2-1.37.18-1.94.19-1.04,0-1.72.18-2.24.47-1.62.15-3.23.3-4.85.41l-.11-.17c-.17-.24-.95-.26-1.93-.11-.76.11-.48.28-.52.42-2.67.42-5.34.81-8.16,1.12l.12.05c-.03.08.2.15-.33.22-.14.12-.19.25-.88.3.21-.42-1.15-.39-2.25-.38-2.37.05-5.12,0-7.18.38-1.42.25-2.39.34-3.78.4-.84.03-.36.3-.42.46-2.71.16-5.42.3-8.13.39v-.32c.53-.2.4-.37.13-.57-.47-.34.22-.52,1.66-.55l1.27-.21c.76-.05,1.68-.02,2.01-.3l-1.4-.04c-.18-.14-1.01-.27.05-.45.56.15,1.13.16,1.71-.06l2.01-.09c.85.49,2.5.75,4.32.96,1.25-.4,3.08-.77,3.31-1.3,1.77-.04,3.54-.09,5.31-.38.06.16-.12.39.23.48.47.12-1.36.53.33.41,1.17-.09.92-.32.77-.51-.07-.09-.1-.4.68-.17,1.44.42,1.08-.3,2.28-.33.19.06.33.18.58.17.7-.04.67-.2.85-.32,2.26-.17,4.42-.67,6.83-.71,1.26-.02,1.86-.54,2.2-.87,3.66-.47,7.32-1.01,10.96-1.63,0,.09-.09.21.04.27.38.16-1.3.9.59.57,1.67-.29.16-.42.36-.67.06-.07.61-.2.93-.3,3.01-.87,6.33-1.48,9.48-2.21.92-.2,2.32-.92,3.15-.69.93.21,6.47-.84,8.13-1.59Zm-10.49,2.37l-.31.2c.16-.02.35-.04.47-.07.12-.04.16-.1.24-.15-.14,0-.26.01-.39.02Zm-18.02,3.9c-.07,0-.17.01-.25.02.02.06.12.04.25-.02Z"/><path d="m195.62,4.36c4.17.2,8.2,1.12,12.3,1.64.41,1.12,3.13.81,4.86,1.27.29.37.18.71,2.06.8,1.15.06,2.72.55,4.12.98,1.05.5-2.66.43,1.48,1.32.56.25,1.42.47,1.35.84-.03.18.41.62.92.8.53.17,1.07.23,1.34.16.44-.11-.58-.51-.85-.73-.52-.45-.86-.87-1.3-1.28.42-.11,1.78.69,1.87.31.31.47,1.28.94,2.13,1.43.83.5,1.54,1.04,1.29,1.35-.24.28-1.59-.13-2.3,0-.73.09-2.86-.98-4.65-1.72-.79-.35-1.53-.78-2.35-1.07-.8-.27-1.72-.85-2.4-.71-.71.14,1.57.59,1.05.85-1.35-.09-2.72-.29-4.18-.79,0-.61-.32-1.16-2.74-.94-1.81.17-3.91-.95-5.68-.55l-.65-.06-1.21-.35c-2-.91-4.22-1.31-6.72-.99-1.39-.64-2.99-1.06-5.13-.93l-.89-.08c.11-.04.19-.1.34-.12,1.21-.1,2.02-.26.85-.8-.31-.14-1.18-.35-1.04-.15.31.47-3.6.22-.81,1.11-.78-.01-1.9-.22-1.92.19l-1.33-.14c-.03-.22,1.07-.35.18-.63-.71-.22-1.5-.19-2.11-.05l-.84-.09c-1.73-.22-1.8-.64-2.01-1.05-.12-.24-.52-.45-1.35-.53-.31-.03-.8.02-.9.09-.29.21.37.32.9.46,1.88.5-1.6.59.03,1.09-.45.34-1.51.21-2.51.14v-.26c.05-.25,1.57-.47,0-.74-1.16-.2-2.01.04-1.81.49l-1.54-.12-2.09-.52c-.57-.34-.85-.66-.31-.97.25-.14.2-.3-.47-.37-.81-.09-.95.1-1.09.27l-1.13-.27v-.58c1.95.19,4.15.1,5.39.93.47.32,1.2.21,1.34-.07.1-.2-.03-.45.8-.49,3.4-.21,6.87.05,10.38.73,2.08.96,6.57,1.39,9.36.89Zm21.63,4.98c-.22-.07-.46-.05-.68-.06.17.11.31.24.51.31.21.07.47.07.89.13-.32-.18-.51-.32-.71-.38Z"/><path d="m2.35,32.86c0,.37.13.68.14.97.04.28.01.54.03.78.05.47,0,.88,0,1.33,0,.44-.49.37.24,1.48.64.86.81.45.92.16.13-.29.29-.5.47-.75.32.48.65.96,1.01,1.43.4.44.75.92,1.18,1.33-.2.2-.77.14.42,1.32.96.84,1.28,1.36,1,1.61-.25.08-1.41-.93-1.07-.18.12.26.49.78.82,1.02,1.08.82.59-.01.94.02.19.02.36,0,.6.09.48.15,1.65.9,1.37.4-.32-.56-1.36-.82-2.01-1.45l.34-.4c2.76,2.13,5.6,4.07,8.46,5.99-.76.22-1.44.64-3.74-1.31-.38-.32-1.06-.73-1.35-.64-.31.09.17.47.72.88.03.37.06.74.01,1.09-.31-.13-.63-.26-.94-.4l.56.64c-2.25-.96-4.11-2.37-5.48-4.12-.22-.62-.74-1.65-1.79-2.19-.99-.54-2-1.74-2.77-3.02-.82-1.25-1.36-2.54-2.11-3.16-.15-.57-.2-1.19-.27-1.8-.11-.61-.08-1.23-.07-1.86,0-1.26.31-2.51.79-3.61.55.31,1.33-1.23,2.07-2.46.64-1.12,1.23-1.63,2.01-2.16.08.32-.34.78-.79,1.31-.45.53-.95,1.12-1.04,1.59-.09.31-1.15,1.01-1.01,1.65.09.37.77-.49,1.28-.91.53-.43.84-.8,1.27-1.61.54-1.02,1.43-2.09,2.59-2.27.68-.13,1.4-.94,1.84-1.44.79-.83-.04-.45-.67-.18-1.01.41-2,.86-2.13.38.14-.19.27-.38.43-.56.73-.07,1.48-.54,2.32-1.04.84-.49,1.71-1.13,2.6-1.54.34-.17.86-.52,1.28-.72.43-.18.75-.21.68.21-.04.21,1.94-1.05,1.94-1.25-.03-.4.56-.63,1.35-.96l.58-.25c1.03-.59,2.24-1.31,2.05-.45-.4.6-.38.58.58.34.42-.1.99-.21,1.12-.13.44.25-1.22.76-1.38,1.11-.81.34-1.59.78-2.37,1.16-.78.36-1.57.62-2.38.64-.42,0-1.31.72-1.22.75.37.08-1.67,1.31-.06.78.02.19-.13.31-.74.61-2.02.95-4.03,1.96-5.56,3.66-.56-.42-1.17,0-1.71.68-.55.68-.99,1.59-1.42,2.14-.47.67-.72,1.35-.88,2.03-.16.68-.28,1.35-.44,2.12-.15-.2-.31-.63-.45-.66-.12-.04-.34.38-.2,1.82Zm2.21,6.58l-.36-.18c.09.14.17.3.26.4.08.08.17.09.26.13-.06-.12-.11-.24-.17-.36Z"/><path d="m218.18,11.84c-1.83-1.33-3.97-3.07-5.9-3.9-1.39-1.25-4.01-2.31-5.93-3.3-.55-.28-.77-.36-1.19-.5-1.3-.42-1.85.06-.53.73,1.38.71,1.76,1.05,2.03,1.39.28.35.86.86,2.31,1.26.16.05.71.3.93.44,2.13,1.34,4.26,2.52,6.22,4.04,2.24,1.75,4.33,3.72,5.96,6.01,1.65,2.28,2.75,4.93,3,7.69l.21-.03c-.06-.47-.1-.86-.02-.98-.05-.42-.19-.86-.33-1.29-.13-.43-.25-.83-.34-1.17-.6-1.58-1.69-3.31-2.29-4.52-.09-.18-.32-.65-.72-1.21-.42-.54-.89-1.25-1.49-1.88-1.14-1.31-2.5-2.48-3-2.81-.17-.11-.37-.19-.36-.15.06.39-.74-.39-1.11-.75-.45-.41-.7-.7-1.09-1.08-.22-.22-1.04-.68-.92-.7.08-.02.57.22,1.19.62.32.21.67.44,1.03.68.34.25.69.49.99.72.63.42,1.14.75,1.33.68Z"/><path d="m56.66,5.75c-1.48.37-3.27.58-4.17,1.23.44-.02,1.02.03,1.31-.06,1.13-.33,2.18-.73,3.11-.4.76.28-.19.63-.85,1.01-1.17.66-2.15.61-3.22.47-.66-.09-1.73.03-2.21.27-1.66.84-2.53.5-3.62.43-.67.1-1.5.34-1.73.08-.05-.05.23-.25.36-.27.88-.16.96.1,1.37.19l1.7-1.3c-1.38-.52-2.91.26-4.39.73.09.25.04.5-1.05.76.05.17,0,.38.19.51.58.4-1.23.7-1.72,1.06-.13.1-.49.23-.63.12-.29-.23.29-.47.93-.77.36-.17,0-.45-.03-.68-.54.38-2.33.34-2.39.89.23.02.84-.08.29.18l-.27-.19c-.89.08-.47-.51-1.54-.24-.38.09-.6.53-.89.8.05.15-.05.31-.54.51.04.05.08.1.13.15l.57-.11c1.01.07,4.01-.3.08.87-.26.08-.33.32-.48.49,1.71-.41,3.45-1.1,5.13-.88.2.02,2.43-.9,3.97-1.24.38-.31.91-.44,1.84-.65,2.72-.61,5.67-.62,8.21-1.6,1.15.39,2.94-.55,4.11-.41,1.14.15,2.03.11,3.35-.37,1.79-.64,2.64-.47,2.76.11l3.04-.47c-.19-.34.62-.69,1.2-1.02-1.46-.29-2.97-.57-.07-1.41.37-.11.1-.23-.29-.26-1.15.52-2.97.24-3.94.69-2.22,1.05-1.86.27-2.22-.03l-.65.1c-.03.22-.36.39-1.1.5-.05.28-.53.45-1.24.57l.1.29c-.71.08-.62-.09-.64-.23-1.43-.09-3.53.18-3.86-.45Z"/><path d="m217.52,42.53c.61-.55.96-1,1.18-1.38.47-.8,1.05-1.73-.29-.74-1.06.78-1.53,1.23-1.83,1.67-.29.45-.46.81-.95,1.27-.67.48-1.39.9-2.1,1.32-1.16.33-2.84,1.79-4.23,2.37l-.18-.26c1.27-.65,2.46-1.8,3.49-2.15.63-.25,1.22-.59,1.81-.99.56-.43,1.11-.92,1.69-1.43,2.19-2.12,4.31-4.4,5.96-6.93,1.66-2.52,2.81-5.39,2.99-8.39.1-.1.28-.1.27.67-.05.39-.06.79-.14,1.17l-.22.58c-.09.17-.13.35-.11.54-.46,1.87-.94,2.88-1.03,3.32-.1.44.14.3.68-.29.03-.04.06-.04.08-.06.55-1.69.98-2.72,1.33-3.82.2-.54.28-1.11.4-1.76.03-.33.03-.67.03-1.05,0-.19-.01-.39-.02-.59-.03-.2-.07-.42-.1-.64-.08-.37-.11-.77-.22-1.16-.11-.39-.21-.77-.29-1.13-.13-.72-.3-1.29-.22-1.54.1.23.21.46.33.68.09.23.18.46.27.67.17.42.3.77.26.95-.03.17-.02.36,0,.56,0,.21.02.43.05.66.06.46.18.97.18,1.48.1,1.82-.14,3.64-.7,5.35-.56,1.71-1.37,3.33-2.33,4.88-1.37,2.21-3.16,4.17-5.02,5.94-1.9,1.85-4.04,3.4-6.23,4.81-.86.59-2.26,1.47-2.5,1.18.39-.54,1.24-1,2.22-1.46.59-.27,1.07-.55,1.46-.83.38-.3.68-.61.95-.93.58-.33,1.15-.69,1.67-1.11.53-.4,1.02-.85,1.4-1.41Zm3.7-5.1c.1.05.53-.08,1.05-.96.53-.84,1.11-2.16,1.01-2.28-.16-.22-.57,1-.88,1.34-.44.77-1.5,1.74-1.17,1.89Zm2.51-1.85c.35-.56.92-1.61.74-1.75-.09-.07-.38.26-.71.87-.17.33-.35.66-.54,1-.19.35-.39.72-.66,1.13.53-.5.88-.81,1.17-1.25Zm-2.89,2.65l-.25.28h.07c.18-.22.17-.24.18-.28Z"/><path d="m162.15,1.37c-1.56.07-2.76-.04-4.49-.32-2.52-.43-5.69-.36-8.57-.4-1.44-.02-2.98-.33-4.34-.06l-.03.54c.31.26,1.11.68.14.74-2.88.19-2.53,1.18-4.52,1.57,1.06.01,2-.08,2.83-.25.11,0,.2-.02.27-.04.12-.24-.32-.58.83-.67.91-.06,1.55.07,1.66.39l.15.08-.13-.08c-1.33-.23-1.39.35-2.49.29-.07.03-.1.06-.09.09,1.24.59,2.8.11,4.18.24,1.78-.5,3.64-.4,5.5.15.55.16.91.38,1.56.08.99-.46,2.39-.2,3.73.05,1.95-.29,1.09-.84.65-1.36-.12-.13-.51-.33.17-.38.59-.04.92.11,1.15.27l.69.03c-.34-.43,1.51-.53,1.16-.96Z"/><path d="m38.75,57.96c1.14.57,2.34,1.08,4.06,1.18,2.18-.06,4.39.28,6.68,1.1.49-.14,1.34-.06,2.1-.02l1.23.35c-.12-.18-.3-.52-.36-.53-2.31-.27-3.73-1.17-5.93-1.53-1.6-.27-3.05-.58-3.36-1.23,0-.02-.17-.06-.25-.09-.31,0-.62,0-.94-.01.13.68-1.46.27-2.66-.07-3.95-1.09-8.05-1.82-11.9-3.48-2.31-1.01-2.48-.92-1.12-1.16.41-.08.71-.21,1.06-.32-2.28-.64-4.66-1.97-6.65-2.15.38.24.73.5,1.15.7.69.32,1.84.39,2,.88.06.21-1.15.02-1.92-.11-.42-.06-1.1-.43-1.65-.67-.47-.2-.96-.45-1.25-.42-.38.04.04.4.48.71.69.48.73.95,1.93,1.45,1.36.99,2.99,1.87,5.1,2.38,2.51.28,5.22,1.12,8,1.87,0-.15.17-.3.67-.16.88.23.26.33.42.51,1.3-.21,2.65-.52,3.13.82Z"/><path d="m225.21,28.72l-.22.58-.05.27-.05.27c-.46,1.87-.94,2.88-1.03,3.32-.1.44.14.3.68-.29.03-.04.06-.04.08-.06.55-1.69.98-2.72,1.33-3.82.2-.54.28-1.11.4-1.76.03-.33.03-.67.03-1.05,0-.19-.01-.39-.02-.59-.03-.2-.07-.42-.1-.64-.08-.37-.11-.77-.22-1.16-.11-.39-.21-.77-.29-1.13-.13-.72-.3-1.29-.22-1.54-.5-.98-1.39-2.69-2.01-3.25.38.96-.37.25-.68-.15-.88-1.25-.15-.63-.16-.89,0-.05.05-.04.08-.05-.49-1.14-2.1-2.45-2.95-3.47-.64-.52-1.21-.96-1.6-1.46-.19.06-.7-.26-1.33-.69-.31-.22-.65-.47-.99-.72-.35-.23-.71-.47-1.03-.68-.61-.41-1.11-.65-1.19-.62-.12.03.7.48.92.7.39.37.64.66,1.09,1.08.37.36,1.17,1.14,1.11.75,0-.04.19.04.36.15.5.33,1.86,1.5,3,2.81.6.63,1.07,1.34,1.49,1.88.4.56.63,1.03.72,1.21.6,1.21,1.69,2.95,2.29,4.52.09.34.21.74.34,1.17.14.42.28.87.33,1.28.19.8.09.85.03.98l-.21.03v1.18c.09-.1.27-.1.27.67.03.15.11.27.1.47-.03.64-.15.63-.24.7Z"/><path d="m134.8,3.19l-.04-.22c-.49-.43-.89-.87-1.51-1.28-1.33-.88-3.8-.99-5.82-.28-.25.09-.38.24-.69.29-1.15.19-1.22.82-.08,1.06q.47.1.75-.31c.13-.19.09-.45.96-.45.26,0,.56.23.84.35,1.63.16,1.52.61,1.88.98-1.86.22-3.75.17-5.67.05.79-.6-1.09-.73-1.98-1.03l-.97.37-1.95.19s-.04-.1-.02-.15c1.19-.67-.67-1.25-.62-1.87l1.18-.03s0,.07.07.09c.84.2.69.83,1.72.71,1.51-.17-.18-.62.1-.95l.71-.42c2.87.04,5.81-.12,8.61.23h1.22s.05.38.05.38l-.26.1.34-.07h.77c.39.04.94.2.93-.09l1.24-.16-.17.06-.19-.06c.84.44,2.95.43,3.54,1.13.27.33,2.95-.21,4.41-.46.24-.04.4-.12.59-.18.31.26,1.11.68.14.74-2.88.19-2.53,1.18-4.52,1.57-1.92.2-3.76.11-5.53-.25Zm-8.16-2.07c-.05-.1-.19-.2-.3-.3-.08.05-.23.11-.23.16,0,.08.09.17.15.28.18-.06.39-.1.37-.14Z"/><path d="m43.27,8.91c1.08-.26,1.14-.51,1.05-.76l-1.04.15-.78.19c-1.99.3-3.93.54-5.95,1.27-.83.29-2.04.62-3.1.69-1.16.06-3.26.63-3.6.77-3.58,1.65-7.23,2.46-10.88,3.51-1.34.37-2.04.99-3.08,1.44-2.66,1.17-5.29,2.48-7.79,4.16l-1.83,1.35c-.57.46-1.16.95-1.72,1.47-1.12,1.05-2.18,2.24-3.03,3.64-.37.59-.76,1.23-.72,1.7.55.31,1.33-1.23,2.07-2.46.64-1.12,1.23-1.63,2.01-2.16.14-.48.81-1.01,1.35-1.48.14-.19.27-.38.43-.56.73-.07,1.48-.54,2.32-1.04.84-.49,1.71-1.13,2.6-1.54.34-.17.86-.52,1.28-.72.43-.18.75-.21.68.21-.04.21,1.94-1.05,1.94-1.25-.03-.4.56-.63,1.35-.96.12-.24.33-.32.59-.25,1.01-.58,2.23-1.31,2.04-.45l.88-.33c.82-.61,1.72-1.15,3.11-1.29.94-.75,1.83-1.65,3.49-1.18l1.74-.47c.25-.54,1.46-.72,2.39-.98,1.37-.39,1.21-.02,1.37.19,1.43-1.03,3.08-1.25,4.78-1.18.29-.28.52-.71.89-.8,1.07-.27.65.32,1.54.24.04-.54,1.83-.5,2.37-.88l1.25-.24Z"/><path d="m109.31.76c-.89-.31-1.87-.46-3.16-.05.76.27,1.5.56.63.96-.68.31-1.23-.16-1.97,0-1.01-.56-1.55-.17-2.18.18-.72.4-1.44.52-1.97.05-1.76.22-1.46.67-1.75,1.05.29.4,1.71.46,2.42.74,1.19.32,2.74.32,4.21.09,1.1-.18,2.06-.24,3.13-.18,1.08-.26-.07-.9,1.81-.97,1.4-.05,1.18.39,1.41.66l1.24-.08c-.1-.27-.27-.53-.26-.8,0-.18.58-.26,1.11-.27.47,0,.82.09.55.22-.39.19-1.47.4-.32.56.29.04,1.29-.31,1.97-.49.21-.07.32-.24.76-.08l-.78.07c.49.74,2.03.57,3.66.33.49-.63-1.99-.89-1.82-1.47-2.67.39-2.65-.1-2.46-.66-1.08.12-1.97-.26-3.08-.03.18.63-1,1.23-2.85,1.21-2.57-.03.81-.59-.09-.87-.12-.04-.15-.11-.22-.16Z"/><path d="m106.21,64.65l1.01.02,1.96-.15.72-.02s-.04-.09-.06-.14c-.42-.06-.63-.14-.27-.25.05-.02.23-.03.29-.02.55.1-.03.18-.04.27,1.02.03,1.78-.06,2.25-.3,1.51-.79,3.91-.15,3.86.03-.15.59,1.47.54,2.65.68,1.47-.23,2.93-.45,4.43-.68.65-.09,1.92-.06,1.55-.37-.3-.25-1.67-.03-2.02-.1-1.08-.23-2.72.56-3.34-.09-.82-.04-1.78-.02-1.91-.32-.69,0-1.42.05-1.86-.14-1.51-.05-3.03-.07-4.52-.15-2.96-.15-5.53.46-8.52.16v.37c.73,0,1.49-.01,1.87.23-.05.21-.08.42-1.21.41l.52.49,2.64.06Z"/><path d="m70.22,4.3c.39.03.66.15.29.26-2.91.84-1.39,1.11.07,1.41l1.14-.19-.09-.54-.15-.06.14.06c1.06.05,3.26-.63,3.18.18,1.71-.27,3.35.23,5.21-.51.27-.11,1.49-.02,1.58.27l1.82-.12c.74-.53,3.02-.93,2.51-1.56-.02-.03.39-.13.6-.19,1.45.95,1.89-.45,2.97-.36-.01-.06-.02-.12-.02-.18-3.21-.7-3.87.29-4.9,1.02l-.23.07.25-.06c-.63-.03-1.79.02-1.82-.07-.45-1.32-2.64-.23-4.47.06-1.91.3-4.09.82-5.85.45-.85-.05-.79-.54-2.23-.3v.38Z"/><path d="m169.49,3.22l-1.13-.27c-2.79-.32-2.71-.91-2.38-1.52-.91-.28-.88.08-1.34.1.77.9-.65,1.54-3.19,1.5.56.47.58.91-.08,1.31.61.48,1.17.2,1.74.08-.36-.12-.45-.27.05-.26.69,0,.56.21.62.35,1.43.72,3.63.46,5.2.55,2.57.16,5.35.62,7.82.37v-.26s-1.77-.25-1.77-.25c-.59.28-1.08.08-1.58-.12l-2.09-.52c-.17.24-.32.49-1.46.37-.77-.08-1.2-.29-1.55-.51-.83-.52.36-.69,1.14-.93Z"/><path d="m119.2,63.54c.61.65,2.26-.15,3.34.09.35.07,1.71-.15,2.02.1.37.3-.9.28-1.55.37-1.49.23-2.96.45-4.43.68l.54.28h.72c1.99-.51,4.54-.29,6.78-.5.53-.2.39-.37.12-.57-.47-.34.22-.52,1.66-.55l.02-.16c.01-.22.44-.34,1.32-.34.18,0,.36-.02.53-.04-.18-.14-1.01-.27.05-.45l-.06-.16c-3.54.06-7.07-.05-10.61.26.57.35,1.63.7-.46,1.01Z"/><path d="m68.26,62.81c.73.06.59.75,1.95.37,1.02-.29,1.89.34,2.88.29.34-.62,1.64-.38,3.01-.02,1.16.31,2.14.28,3.05.13.94-.16,1.36-.39.41-.76-1.3-.13-2.48-.46-3.89-.45-4.4.04-4.88-.02-8.31-.92-.08-.02-.25-.06-.27-.05-1.85.43-4.44-.79-6.31-.48.13.32.11.65,1.32.96.07-.21.36-.2,1.2-.06,1.76.28,3.41.61,4.97.99Z"/><path d="m119.2,63.54c2.09-.31,1.03-.66.46-1.01-1.38-.16-2.3-.47-4.27,0-1.42.34-4.26-.01-6.54,0-3.06.02-6.28.09-9.36-.23-1.35-.14-2.25-.14-2.12.31.13.45,1.23.47,2.46.43l2.55.04c2.99.31,5.56-.31,8.52-.16,1.49.09,3.01.1,4.52.15.36-.08.77-.22,1.08-.22.69.02.75.2.78.36.13.3,1.09.28,1.91.32Z"/><path d="m84.56,3.78c1.03-.73,1.69-1.72,4.9-1.02l2.48-.47c.65-.2,1.33-.39,1.14-.67-1.21-.38-2.71.12-4,.24-4.89.49-9.81.76-14.7,1.64-1.3.24-1.47.43-1.94.7,1.76.37,3.94-.15,5.85-.45,1.83-.29,4.02-1.38,4.47-.06.03.1,1.19.05,1.8.07Z"/><path d="m27.36,52.15c-.35.11-.65.24-1.06.32-1.35.24-1.18.15,1.12,1.16,3.85,1.66,7.94,2.38,11.9,3.48,1.2.34,2.79.75,2.66.07-2.13-1.14-4.6-1.62-7.38-2.02-1.8-.25-3.07-.78-2.55-1.35-1.81-.23-3.09-1.16-4.7-1.66Z"/><path d="m60.78,60.93c1.88-.31,4.46.91,6.31.48.02,0,.19.03.27.05,3.43.9,3.91.96,8.31.92,1.41-.01,2.59.32,3.89.45-.51-.59-1.08-1.16-3.19-1.61l-1.6.2c-.61.3-1.5.18-2.75,0-1.53-.21-3.39-.37-4.71-.56-2.66-.39-5.12-.11-7.61-.81l.58.8c.17.02.34.05.5.09Z"/><path d="m92.28,62.7c-.83.47-1.51.93,1.72,1.13,1.04.06.38.25.29.38-1.61.26-3.36-.02-4.49-.3-2.86-.7-3.54-.29-4.2.28h-.59c-1.88-.42-4.99-.78-1.97-1.45.54-.12.55-.41.8-.62,1.63.1,3.26.19,4.89.29,1.05.07,1.85.09,1.97-.24l1.81.14c-.08.13-.06.27-.25.38Zm-5.23.19c-.06-.02-.17-.03-.33.02.09.01.18.02.33-.02Z"/><path d="m223.78,10.47c.31.47,1.28.94,2.13,1.43.83.5,1.54,1.04,1.29,1.35-.24.28-1.59-.13-2.3,0-.73.09-2.86-.98-4.65-1.72-.79-.35-1.53-.78-2.35-1.07-.8-.27-1.72-.85-2.4-.71-.71.14,1.57.59,1.05.85,1.28.69,2.77,1.15,4.23,1.74,1.46.58,2.89,1.29,3.89,2.31.63.64.76.08,1.36.44.33.12-.04-.33-.26-.66-.23-.32-.27-.52.81.2.25.03.57.14.91.28.32.16.68.33.99.51.63.34,1.15.65,1.36.27-.31-.55-.82-1.17-1.03-1.52-.24-.47-.23-.85-.46-1.28-.23-.42-.79-.9-2.07-1.2,0,0-.17-.17-.39-.38-.22-.2-.49-.45-.72-.62-1.35-.94-2.8-1.51-4.16-1.71.15.84,2.06.84,2.77,1.48Z"/><path d="m228.39,17.39c.33.57.44,1.05.38,1.41-.06.23-.05.48-.08.74-.03.13,0,.26,0,.4-.02.13-.04.27-.04.4-.05.53-.04,1.04-.08,1.54.04.93-.37,1.96-.12,2.43.23.42.69.43,1.39-.16.66-.57,1.53-2.01,1.3-4.03-.11-.96-.18-2.2-.6-3.26-.98-.85-1.08-.14-.82,1,.23,1.18.61,2.1.91,2.99.07.16.1.62.03,1.02-.07.4-.25.71-.39.58-.14-.11-.33.01-.52.06-.2.05-.35.04-.41-.22-.12-.33-.26-.51-.2-1.24,0-.76.1-1.13.34-1.27.11-.07.22-.15.24-.33.05-.19.01-.49-.18-.97-.42-.94-.89-1.27-1.15-1.1Z"/><path d="m59.7,60.04c2.5.71,4.95.43,7.61.81,1.32.18,3.18.35,4.71.56,1.25.18,2.14.3,2.75,0-2.08-1.03-5.33-.89-7.98-1.23-3.94-.51-8.03-.67-11.78-1.81l-.35.18c.53.35,2.48.96-.59.6-1-.12-1.62.08.09.45,1.84.15,3.26-.35,5.53.45Z"/><path d="m66.34,7.46c-.12-.58-.96-.74-2.76-.11-1.32.48-2.21.52-3.35.37-1.17-.14-2.96.8-4.11.41-2.54.98-5.49.99-8.21,1.6-.93.21-1.45.34-1.84.65,2.61,0,5.33-.47,8.25-1.05,1.86-.37,3.77-.72,5.85-.82,1.81-.09,4.08-.69,6.16-1.05Z"/><path d="m186.76,6.15l-1.33-.14-1.93-.68-.84-.09-2.78.14c1.53,1.09,4.78,1.05,7.09,1.32,4.58.58,9.25.76,13.88,1.25l1.25-.03c-2-.91-4.22-1.31-6.72-.99-1.99-.02-4.1.08-5.13-.93l-.89-.08-.64-.02c0,.14.02.2.03.26l.18.16-.43-.11-1.73-.05Z"/><path d="m141.67,61.93c1.77-.04,3.54-.09,5.31-.38,1.41-.14,2.76-.23,3.82-.06.95-.1,1.42-.15,1.9-.2,2.26-.17,4.42-.67,6.83-.71,1.26-.02,1.86-.54,2.2-.87-6.77.73-13.54,1.33-20.32,1.97l.27.25Z"/><path d="m94.29,64.21c-1.61.26-3.36-.02-4.49-.3-2.86-.7-3.54-.29-4.2.28,4.74.46,9.5.97,14.28.61,1.16-.08,1.86.28,2.8.25,1.29-.04,3.27.19,3.52-.41l-2.64-.06-4.33-.24-4.95-.13Z"/><path d="m188.11,55.88c0,.23.46.39-1.49.8-1.21.26-2.23.57-1.94.87,5.04-.94,10.07-2.16,14.99-4.32l-.09-.16-.22-.07c-.09.04-.19.08-.29.11-.81.38-1.62.77-1.96.57-.15.06-.3.11-.46.16l-1.82.48c-.19.34-.79.57-1.8.7-1.06.3-2.09.91-3.12.93-.34,0,.1-.27.61-.48l.02-.12-.65-.08c-1.12.05-1.12.45-1.77.62Z"/><path d="m85.01,64.2c-1.88-.42-4.99-.78-1.97-1.45.54-.12.55-.41.8-.62-.9-.11-.59-.28-.63-.42l-1.21-.04c.35.39-1.22.43-1.29.73l.8.14c-.06.02-.18.05-.18.05-.22-.06-.43-.12-.64-.18-1.06-.31-.37-.58-.58-.87-1.19-.51-2.42-.66-3.75-.33,2.11.46,2.68,1.02,3.19,1.61.95.37.53.6-.41.76-.91.15-1.89.18-3.05-.13-1.37-.36-2.68-.6-3.01.02,3.12.39,6.34.35,9.41.85,1.21.2,1.87.05,2.51-.12Z"/><path d="m54.17,59.59c-1.7-.37-1.09-.57-.09-.45,3.07.36,1.11-.25.59-.6-.57.25-1.49-.15-2.22-.23.04.23-.56.44-1,.28-2.14-.81-3.84-.41-5.76-.85-1.08.07-1.09-.17-1.13-.41-.98-.48-1.29-.3-1.64-.14.09.03.25.07.26.09.31.65,1.76.96,3.36,1.23,2.2.35,3.62,1.25,5.93,1.53.06,0,.24.35.36.53l2.35.69,1.25.39.22-.46c-2.71-.5-2.78-1.05-2.47-1.6Z"/><path d="m21.44,52.54c-1.2-.5-1.24-.96-1.93-1.45-.44-.32-.86-.67-.48-.71.29-.03.78.22,1.25.42.56.24,1.24.61,1.65.67.78.14,1.99.33,1.92.11-.16-.49-1.31-.55-2-.88-.42-.2-.77-.47-1.15-.7-.41-.5-.99-.48-1.49-.71-.88-.28-1.86-.58-1.76-.18.37,1.56-2.19.21-4.5-1.08.14.39,1.38,1,1.31,1.33.99.46,1.89.99,2.78,1.54.93.54,1.86,1.12,2.89,1.54,1.46.63,1.26.23,1.51.09Z"/><path d="m45.69,57.74c1.92.44,3.61.03,5.76.85.43.16,1.04-.04,1-.28-3.87-.7-7.71-1.39-11.56-2.15-1.93-.38-3.91-.97-5.76-1.59-1.11-.38-2.05-.56-3.06-.77-.53.56.75,1.1,2.55,1.35,2.78.39,5.25.88,7.38,2.02.31,0,.63,0,.94.01.35-.16.65-.34,1.64.14l1.13.41Z"/><path d="m94.29,64.21l4.95.13.06-.33c-.67-.03-1.27-.1-1.15-.3.11-.2.79-.18,1.41-.16.23-.15.25-.33.27-.5-1.23.04-2.33.02-2.46-.43-1.57-.24-3.19-.32-4.85-.3-.08.13-.06.27-.25.38-.83.47-1.51.93,1.72,1.13,1.04.06.38.25.29.38Z"/><path d="m91.94,2.29l-2.48.47v.19s.16.06.16.06l-.14-.06c-1.08-.09-1.52,1.32-2.97.36-.21.07-.62.16-.6.19.51.63-1.77,1.03-2.51,1.56.15.2.7.11,1.2.07.62-.36,1.67-.37,2.58-.48.69.05,1.04-.75,1.45-.26.44.52,1.53.06,2.17.13,1.05-.46,1.56-.3,1.95,0,.65.02,1.44.32,1.81-.22l.25-.32c-.77-.07-1.17-.34-2.23-.24-.73-.06-.48-.3-.56-.47-3.33-.04.38-.69-.09-.98Z"/><path d="m197.35,52.16c1.05-.15,2.26-.4,3.28-.52,2.13-.18,5.58-2.02,6.74-3.32-1.36.69-2.89,1.41-2.12.53-2.68,1.13-5.4,2.11-7.91,3.31Z"/><path d="m92.03,3.28c-3.33-.04.38-.69-.09-.98.65-.2,1.33-.39,1.14-.67,1.86-.21,3.85-.91,5.62-.32.09.03.12.07.09.12-2.45.74-2.59,1.59-2.38,2.41l-1.58.15c-.77-.07-1.17-.34-2.23-.24.05-.2.06-.39-.56-.47Zm1.92-.78c-.4-.06-.77.14-.63.23.27.19-.96.71.94.54.94-.17.85-.3.15-.41-.14-.13-.15-.32-.46-.36Z"/><path d="m48.7,7.42c.57-.1,1.11.16,1.71-.25,1.33-.92,1.57-.36,2.08-.19.44-.02,1.02.03,1.31-.06,1.13-.33,2.18-.73,3.11-.4.76.28-.19.63-.85,1.01-1.17.66-2.15.61-3.22.47-.66-.09-1.73.03-2.21.27-1.66.84-2.53.5-3.62.43.56-.43,1.13-.86,1.7-1.3Zm6.97-.49s-.21.06-.22.08c-.02.05.02.09.04.14l.47-.15c-.09-.02-.18-.05-.28-.07Z"/><path d="m176.52,59.11c-2.48.51-5.12.77-7.29,1.59-.55.2-1.37.18-1.94.19-1.04,0-1.72.18-2.24.47,2.18.15,4.71-.44,7.08-.94,3.07-.66,6.05-.72,9.09-1.72.44-.14.99-.26,1.17-.43-.69-.15-1.77,0-2.96.45-1.44.53-2.18.5-2.9.39Z"/><path d="m228.39,17.39c.25-.18.73.16,1.15,1.1.19.49.23.79.18.97-.02.18-.13.26-.24.33-.23.14-.34.51-.34,1.27-.06.73.08.9.2,1.24.06.26.21.27.41.22.18-.05.38-.17.52-.06.15.12.32-.19.39-.58.07-.4.04-.86-.03-1.02-.3-.9-.69-1.81-.91-2.99-.25-1.15-.16-1.85.82-1-.1-.46-.28-.9-.69-1.17-.2.38-.72.07-1.36-.27-.31-.18-.67-.35-.99-.51-.34-.14-.66-.25-.91-.28.37.53.63,1.04.44,1.26.51.46.96.96,1.37,1.5Z"/><path d="m37.21,10.6c-1.7-.07-3.35.15-4.78,1.18-.79.78-3.68,1.43-3.98,2.27l.38.53c1.08-.12,2-.41,2.78-.89.11-.14-.32-.2.29-.43l.28.27c.18-.01.37-.05.57-.12,2.42-.73,1.68-1.59,3.91-2.31.49-.19.59-.36.54-.51Z"/><path d="m119.12,65.04l-.54-.28c-1.17-.14-2.79-.09-2.64-.68.05-.19-2.35-.83-3.86-.03-.48.25-1.23.33-2.25.3.05.04.07.09.08.13l-.05.49c3.05.22,6.08.54,9.27.07Z"/><path d="m148.38,63.6c.21-.42-1.15-.39-2.25-.38-2.37.05-5.12,0-7.18.38-1.42.25-2.39.34-3.78.4-.84.03-.36.3-.42.46,2.99-.04,5.9-.04,9.01-.54,1.34-.23,3.07-.21,4.62-.33Z"/><path d="m71.71,5.78l-1.14.19c-.58.34-1.38.68-1.2,1.02,3.1-.13,6.33-1,9.51-.81,1.28.08,1.58-.69,2.7-.99-.09-.29-1.32-.38-1.58-.27-1.86.74-3.49.24-5.21.51-.98,1.23-2.06.08-3.08.36Z"/><path d="m20.33,15.51l-.88.33c-.4.59-.38.57.59.34.42-.1.99-.21,1.12-.13.44.25-1.22.76-1.38,1.11l1.34-.11,1.95-.56c1.21-.68,2.46-1.28,3.7-1.93-2.85.32-2.87.16.16-1.52-1.66-.47-2.55.43-3.49,1.18-1.03.45-1.21,1.54-3.11,1.29Z"/><path d="m12.95,48.03c2.32,1.28,4.87,2.63,4.5,1.08-.09-.4.88-.1,1.76.18.03-.67-1.34-.82-2-1.28-.76.22-1.44.64-3.74-1.31-.38-.32-1.06-.73-1.35-.64-.31.09.17.47.7.85l.26.12-.24-.09.1,1.11Z"/><path d="m98.69,1.31c.09.03.12.07.09.12.29.27,2.22-.02,1.88.47.53.47,1.25.35,1.97-.05.63-.35,1.18-.74,2.18-.18.74-.15,1.29.32,1.97,0,.86-.4.12-.69-.63-.96-2.53.04-5.25-.36-7.45.6Z"/><path d="m136.18.65c.84.44,2.95.43,3.54,1.13.27.33,2.95-.21,4.41-.46.24-.04.4-.12.59-.18l.03-.54c-2.22-.47-4.33.19-6.53-.08l-1.63.04c-.21,0-.35.04-.41.1Z"/><path d="m187.25,55.04c.93.21,6.47-.84,8.13-1.59,1.64-.7.47-.65.73-.98-1.05.4-2.08.91-3.18.97-.24.01-1,.2-1.04.23-1.25.83-3.12.93-4.63,1.38Z"/><path d="m223.78,10.47c-.71-.64-2.62-.64-2.77-1.48-.75-.64-1.69-.76-2.6-.9-1.6.05-3.83-.8-5.63-.82.29.37.18.71,2.06.8,1.15.06,2.72.55,4.08.96l.82.03.2.19c-.33-.07-.65-.14-.98-.19,1.05.5-2.66.43,1.48,1.32.24-.21-.13-.81,1.46-.21.42-.11,1.78.69,1.87.31Z"/><path d="m149.59,63.08c-.03.08.2.15-.33.22,3.77-.26,7.8-.21,10.94-1.53l-.11-.17-2.45.31c-2.67.42-5.34.81-8.04,1.17Z"/><path d="m212.79,7.26c1.79.02,4.03.87,5.63.82-.02-.64-1.53-.58-2.22-.8-1.33-.44-2.72-.73-4.13-.93-1.43-.2-2.77-.26-4.14-.36.41,1.12,3.13.81,4.86,1.27Z"/><path d="m168.37,2.37c1.93.19,4.14.1,5.38.93.47.32,1.2.21,1.34-.07.1-.2-.03-.45.8-.49.31-.57-1.33-.54-2.19-.62-1.94-.2-3.91-.33-5.87-.48.14.24-.37.49.54.73Z"/><path d="m158.33,3.76c-1.34-.25-2.74-.5-3.73-.05-.64.29-1,.08-1.56-.08-1.86-.55-3.72-.65-5.5-.15,1.73.59,3.92.59,6.05.62,1.57.02,3.13.05,4.7.07l.04-.41Z"/><path d="m3,31.71c-.15-.2-.31-.63-.45-.66-.12-.04-.34.38-.2,1.82,0,.37.13.68.14.97.04.28.01.54.03.78.05.47,0,.88,0,1.33,0,.44-.49.37.24,1.48.64.86.81.45.92.16.13-.29.29-.5.47-.75-.93-1.62-1.39-3.39-1.15-5.11Z"/><path d="m115.54.61c-.19.55-.21,1.05,2.46.66l1.87-.4,1.18-.03c.5-.19,1.21-.16,1.89-.16l.71-.42c.06-.38-.78-.27-1.43-.22-2.23.15-4.45.37-6.68.56Z"/><path d="m21.12,17.04l-1.34.11c-.81.34-1.59.78-2.37,1.16-.78.36-1.57.62-2.38.64-.42,0-1.31.72-1.22.75.37.08-1.67,1.31-.06.78,2.35-1.33,5.3-1.83,7.37-3.43Z"/><path d="m116.18,2.42c-.68.17-1.68.53-1.97.49-1.15-.16-.07-.37.32-.56.26-.13-.09-.23-.55-.22-.54.01-1.11.1-1.11.27-.01.27.16.53.26.8,2.25.46,4.79.31,7.32.17l.07-.47s-.04-.1-.02-.15h-.68c-1.62.23-3.17.41-3.64-.33Z"/><path d="m36.67,11.11c-2.23.72-1.49,1.58-3.91,2.31,1.37.12,2.73.19,4.21-.92.16-.17.22-.42.48-.49,3.94-1.16.93-.8-.08-.87-.07.15.08.29-.64.44l.07-.33c-.05-.05-.09-.1-.13-.15Z"/><path d="m7.01,44.13c-.22-.62-.74-1.65-1.79-2.19-.99-.54-2-1.74-2.77-3.02-.82-1.25-1.36-2.54-2.11-3.16.25.98.7,1.82,1.14,2.67.51.78,1.01,1.57,1.63,2.23,1.17,1.38,2.51,2.5,3.89,3.47Z"/><path d="m55.17,61.26l-2.35-.69-1.23-.35c-.06.42-1.1.22-2.1.02-2.29-.83-4.5-1.17-6.68-1.1.16.22.77.54,1.21.56,3.65.28,7.56,1.64,11.15,1.56Z"/><path d="m212.38,9.8c0-.61-.32-1.16-2.74-.94-1.81.17-3.91-.95-5.68-.55,1.22.57,2.62.84,4.07,1.01,1.47.18,2.97.22,4.35.47Z"/><path d="m134.05,62.27c.85.49,2.5.75,4.32.96-.39-.5.52-.96,1.71-1.44-1.27-.18-2.37.1-3.53.26-.6.45-1.62.22-2.5.21Z"/><path d="m186.27,3.47c2.08.96,6.57,1.39,9.36.89-2.62-.62-5.34-.61-8.01-.89-.1.36-.74.16-1.35,0Z"/><path d="m61.07,6.14c.71-.13,1.19-.29,1.14-.53h-.81s-.2-.18-.2-.18l.59-.02.52.16c.74-.11,1.07-.28,1.1-.5-2.26.25-4.31-.06-6.74.69.33.63,2.43.36,3.86.45l.54-.06Z"/><path d="m34.53,56.79c-2.77-.75-5.49-1.6-8-1.87.82.63,1.66,1.02,3.13,1.16,1.87.14,3.96,1.13,5.96,1.47v-.41c-.37-.1-.73-.22-1.09-.34Z"/><path d="m161.45,3.03c2.54.04,3.96-.6,3.19-1.5l-2.49-.17c.36.43-1.5.53-1.16.96.71.23.39.48.45.71Z"/><path d="m26.77,14.55c-1.24.64-2.49,1.25-3.7,1.93,2.06-.38,4.07-.77,5.77-1.9l-.38-.53-1.68.51Z"/><path d="m96.4,3.84l-1.58.15-.25.32c2.32-.08,4.66.05,6.77-.62-.71-.29-2.13-.34-2.42-.74-.44.1-.81.19-1.18.28-.08.27-.12.53-1.33.62Z"/><path d="m158.33,3.76l-.04.41,3.07.17c.66-.4.64-.84.08-1.31-1.5-.12-1.13-.45-1.14-.73-.23-.16-.56-.31-1.15-.27-.69.05-.29.24-.17.38.44.52,1.3,1.06-.65,1.36Z"/><path d="m70.22,4.3v-.38c-2.11.24-4.5,0-6.16,1.04.36.3,0,1.08,2.22.03.97-.45,2.79-.17,3.94-.69Z"/><path d="m56.64,61.19l-.22.46c2.34.67,4.56.63,6.79.72l-1.11-.49c-1.21-.31-1.18-.63-1.32-.96-.16-.03-.33-.06-.5-.09-.09.65-.53,1.14-3.64.35Z"/><path d="m83.85,62.13c1.63.1,3.26.19,4.89.29,1.05.07,1.85.09,1.97-.24-2.15-.53-4.59-.27-6.84-.55-.02.16-.03.33-.02.5Z"/><path d="m62.1,61.88l1.11.49c1.74.42,3.53,1.04,5.05.44-1.56-.38-3.21-.72-4.97-.99-.83-.14-1.13-.15-1.2.06Z"/><path d="m109.31.76c.07.05.09.12.22.16.9.28-2.49.84.09.87,1.86.02,3.03-.58,2.85-1.21-1.09-.06-2.26-.34-3.16.18Z"/><path d="m176.52,59.11c.73.11,1.47.14,2.9-.39,1.19-.45,2.27-.6,2.96-.45.42-.12.98-.24,1.11-.41l-1.15-.18c-1.92.31-3.76.85-5.66,1.22l-.16.2Z"/><path d="m205.26,48.85c-.77.87.76.16,2.12-.53,1.02-.47,1.61-.87,1.92-1.28l-.18-.26c-1.22.75-2.46,1.49-3.87,2.07Z"/><path d="m126.62,64.54c-2.25.21-4.79,0-6.78.5,2.27.34,4.52-.13,6.78-.18v-.32Z"/><path d="m7.45,24.74c-.56-.42-1.17,0-1.71.68-.55.68-.99,1.59-1.42,2.14.29.09.31.61,1.23-.8.48-.7,1.2-1.38,1.9-2.01Z"/><path d="m111.89,3.28c-.23-.28,0-.72-1.41-.66-1.88.07-.73.71-1.81.97,1.52.47,2.15-.2,3.22-.31Z"/><path d="m179.86,5.38l2.78-.14c-1.73-.22-1.8-.64-2.01-1.05-.12-.24-.52-.45-1.35-.53-.31-.03-.8.02-.9.09-.29.21.37.32.9.46,1.88.5-1.6.59.03,1.09.17.04.35.07.54.08Z"/><path d="m208.94,48.74c-.52.35-1.24.55-1.91.78-.67.21-1.28.48-1.56,1.03.33.09.5.13.94-.09.44-.21,1.16-.69,2.53-1.71Z"/><path d="m129.21,2.34c1.63.16,1.52.61,1.88.98,1.27.03,2.67.32,3.71-.13l-.04-.22c-.91-.1-2.52.06-2.66-.31-.32-.82-1.63-.48-2.89-.32Z"/><path d="m125.42,3.37c.79-.6-1.09-.73-1.98-1.03l-.97.37-.76.76c1.27.1,2.39-.36,3.71-.11Z"/><path d="m8.42,42.41l.34-.4c-.76-.83-1.46-1.68-2.42-2.43-.2.2-.77.14.42,1.32.96.84,1.28,1.36,1,1.61.52.26.51,0,.66-.1Z"/><path d="m140.08,61.79c-1.2.47-2.1.94-1.71,1.44,1.25-.4,3.08-.77,3.31-1.3l-.27-.25-1.32.11Z"/><path d="m168.37,2.37c-.91-.24-.4-.49-.54-.73l-1.85-.21c-.33.61-.41,1.19,2.38,1.52v-.58Z"/><path d="m35.61,57.13v.41c1.19.31,2.23.45,3.14.42-.48-1.34-1.83-1.03-3.14-.83Z"/><path d="m172.69,58.08c0,.09-.09.21.04.27.38.16-1.3.9.59.57,1.67-.29.16-.42.36-.67.06-.07.61-.2.93-.3-.44-.09-.84-.21-1.93.14Z"/><path d="m134.05,62.27c.88,0,1.91.23,2.5-.21h-1.36c-.51.03-.95.03-1.19-.09l-2.5.26.53.14,2.01-.09Z"/><path d="m222.73,16.77s-.08,0-.08.05c.01.26-.72-.36.16.89.32.41,1.06,1.11.68.15l-.77-1.1Z"/><path d="m80.72,62.4c.06-.31,1.64-.35,1.29-.73l-1.89-.13c.2.29-.48.56.6.86Z"/><path d="m227.02,15.89c.19-.23-.07-.74-.44-1.26-1.08-.72-1.04-.52-.81-.2.22.32.6.78.26.66.05.1.14.21.29.31.18.16.38.3.54.48.12.1.17.1.16.02Z"/><path d="m135.3.81l1.24-.16c-.54-.43-2.05-.31-2.99-.51l-.07.36.05.38c.34.02.59.02.84.02.1-.21.52-.15.93-.09Z"/><path d="m14.26,49.36c.07-.33-1.17-.94-1.4-1.35-.31-.13-.63-.26-.94-.4l.56.64c.52.44,1.1.83,1.77,1.11Z"/><path d="m92.76,4.52c-.39-.3-.91-.47-1.95,0,.53.14.79.61,1.95,0Z"/><path d="m109.18,64.51l-1.96.15c-.1.43.99.35,1.95.3v-.45Z"/><path d="m87.18,4.65c-.92.11-1.97.12-2.58.48,1.36.25,2.05-.06,2.58-.48Z"/><path d="m218.18,11.84c.39.51.96.95,1.6,1.46-.46-.53-.58-1.03-1.6-1.46Z"/><path d="m132.04,62.36l-.53-.14-1.24.05.06.16c.57.15,1.13.16,1.71-.06Z"/><path d="m143.37,3.24s.02-.07.09-.09c-.09.02-.18.04-.29.04-.06.13-.12.27-.19.4l.39-.35Z"/><path d="m134.01,61.96c.24.12.68.12,1.19.08,0-.26-.41-.28-1.19-.08Z"/><path d="m163.78,4.51c-.06-.14.07-.34-.62-.35-.5,0-.42.14-.05.26l.67.09Z"/><path d="m133.48.5l.07-.36c-.64.05-1.08.17-1.29.36h1.22Z"/><path d="m136.59.55l1.63-.04c-.68-.25-1.23-.25-1.63.04Z"/><path d="m83.82,62.12l.05-.49c-.41-.06-.62-.03-.65.08.05.14-.27.31.6.41Z"/><path d="m32.19,13.54l-.28-.27c-.61.23-.18.28-.29.43.2-.02.39-.07.56-.16Z"/><path d="m186.27,3.47c.6.16,1.24.36,1.35,0-.56-.11-1.11-.22-1.35,0Z"/><path d="m226.86,15.87c-.16-.17-.36-.32-.54-.48l.18.45.36.03Z"/><path d="m176.67,58.91c1.89-.37,3.74-.92,5.66-1.22.65-.16.92-.31.95-.45v-.41c-1.05.22-1.42.18-1.1-.11.15-.14.36-.32-.33-.19-.4.07-1.26.35-1.24.39.25.54-2.51,1.14-3.52,1.68-.21.11-.28.22-.42.33Z"/><path d="m214.45,45.04c.58-.33,1.15-.69,1.67-1.11.53-.4,1.02-.85,1.4-1.4-.83.76-1.01.71-1.11.62-.1-.09-.15-.24-.78.21-.67.48-1.39.9-2.1,1.32.41.05,1.64-.53.92.37Z"/><path d="m150.8,61.49c-1.07-.17-2.42-.08-3.82.06.06.16-.12.39.23.48.47.12-1.36.53.33.41,1.17-.09.92-.32.77-.51-.07-.09-.1-.4.68-.17,1.44.42,1.08-.31,1.81-.27Z"/><path d="m194.83,54.33l1.82-.48c.19-.21,1.66-.86.27-.55-1.47.31-1.87.7-2.09,1.03Z"/><path d="m190.52,55.47c-.5.22-.95.49-.61.48,1.04-.02,2.06-.63,3.12-.93-.2-.33-1.54.22-2.52.44Z"/><path d="m157.64,61.91l2.45-.31c-.17-.24-.95-.26-1.93-.11-.76.11-.48.28-.52.42Z"/><path d="m130.29,62.88c-.17.02-.35.04-.53.04l-.06.29c.75-.05,1.67-.02,1.99-.3l-1.4-.04Z"/><path d="m197.11,53.68c.34.2,1.15-.19,1.96-.57l-.15-.22c-.61.27-1.21.53-1.81.79Z"/><path d="m185.28,55.79c-.14,0-.26.01-.39.02l-.31.2c.16-.02.35-.04.47-.07.12-.04.16-.1.24-.15Z"/><path d="m152.7,61.29l-1.43.15c.19.06.33.18.58.17.7-.04.67-.2.85-.32Z"/><path d="m189.88,55.27l.65.08c.85-.45.13-.28-.65-.08Z"/><path d="m198.92,52.9c.31-.13.79-.27.74-.37,0-.02-.25.02-.37.06-.53.2-.35.23-.37.32Z"/><path d="m183.27,56.83v.41c.76-.31.79-.45,0-.41Z"/><path d="m166.62,59.74c.02.06.12.04.2.04-.02-.06-.12-.04-.2-.04Z"/><path d="m128.43,63.26l-.02.16,1.27-.21c-.41.02-.83.03-1.25.05Z"/><path d="m188.1,55.89h-.15c.05-.01.11-.01.15,0Z"/><path d="m199.36,53l.22.07c.48-.26.36-.26-.22-.07Z"/><path d="m169.49,3.22c-.77.24-1.96.41-1.14.93.35.22.78.43,1.55.51,1.14.12,1.29-.14,1.46-.37-.57-.34-.85-.66-.31-.96.25-.14.2-.3-.47-.37-.81-.09-.95.1-1.09.27Z"/><path d="m221.91,10.16c-1.6-.6-1.22,0-1.46.21.56.25,1.42.47,1.34.84-.03.18.41.62.92.8.53.17,1.07.23,1.34.16.44-.11-.58-.51-.85-.73-.52-.45-.86-.87-1.3-1.28Z"/><path d="m190.24,6c1.03,1.01,3.14.9,5.13.93-1.38-.64-2.99-1.06-5.13-.93Z"/><path d="m188.7,5.89l.64.02c.11-.04.19-.1.34-.11,1.21-.1,2.02-.26.85-.8-.31-.14-1.18-.35-1.04-.15.31.47-3.6.22-.78,1.04Z"/><path d="m175.04,4.92l1.78.25c.04-.25,1.56-.47-.01-.74-1.16-.2-2.01.04-1.76.49Z"/><path d="m183.49,5.33l1.93.68c-.03-.22,1.07-.35.17-.63-.71-.22-1.5-.19-2.11-.05Z"/><path d="m217.97,9.71c-.32-.18-.51-.32-.71-.38-.22-.07-.46-.05-.68-.06.17.11.31.24.51.31.21.07.47.07.89.13Z"/><path d="m186.76,6.15l1.73.05c.08-.02.17-.03.26-.05l-.06-.19c-.77-.01-1.9-.22-1.92.19Z"/><path d="m173.46,4.8c.5.2.99.4,1.54.12l-1.54-.12Z"/><path d="m214.16,9.67c-.16-.08-.25-.07-.34-.07.06.03.11.06.34.07Z"/><path d="m6.23,22.38c-.53.48-1.2,1-1.35,1.48.08.32-.34.78-.79,1.31-.45.53-.95,1.12-1.04,1.59-.09.31-1.15,1.01-1.01,1.65.09.37.77-.49,1.28-.91.53-.43.84-.8,1.27-1.61.54-1.02,1.43-2.09,2.59-2.27.68-.13,1.4-.94,1.84-1.44.79-.83-.04-.45-.67-.18-1.01.41-2,.86-2.13.38Z"/><path d="m8.42,42.41c-.15.1-.13.36-.66.1-.25.08-1.41-.93-1.06-.18.12.26.49.78.82,1.02,1.08.82.59-.01.94.02.19.02.36,0,.6.09.48.15,1.65.9,1.37.4-.32-.56-1.36-.82-2.01-1.45Z"/><path d="m4.73,39.8c-.06-.12-.11-.24-.17-.36l-.36-.18c.09.14.17.3.26.4.08.08.17.09.26.13Z"/><path d="m16.82,16.53l.58-.25c-.19.08-.39.17-.58.25Z"/><path d="m225.29,25.67c.07-.13.17-.18-.03-.98-.07.12-.04.51.03.98Z"/><path d="m43.27,8.91l-1.25.24c.03.23.39.5.03.68-.64.31-1.22.55-.93.77.14.11.5-.02.63-.12.48-.36,2.3-.66,1.72-1.06-.19-.13-.13-.34-.19-.51Z"/><path d="m47,8.71c-.41-.09-.49-.35-1.37-.19-.12.02-.4.22-.36.27.23.26,1.06.02,1.73-.08Z"/><path d="m61.07,6.14l-.54.06c.02.14-.07.31.64.23l-.1-.29Z"/><path d="m36.8,11.26l-.07.33c.72-.15.57-.3.64-.44l-.57.11Z"/><path d="m39.65,10.04l.27.19c.56-.26-.05-.17-.27-.19Z"/><path d="m215.63,43.36c.63-.45.68-.3.78-.21.1.09.28.14,1.11-.62.61-.55.96-1,1.18-1.38.47-.8,1.05-1.73-.29-.74-1.06.78-1.53,1.23-1.83,1.67-.29.45-.46.81-.95,1.27Z"/><path d="m222.39,35.53c-.44.77-1.5,1.74-1.17,1.89.1.05.53-.08,1.05-.96.53-.84,1.11-2.16,1.01-2.28-.16-.22-.57,1-.88,1.34Z"/><path d="m222.56,36.83c.53-.5.88-.81,1.17-1.25.35-.56.92-1.61.74-1.75-.09-.07-.38.26-.71.87-.17.33-.35.66-.54,1-.19.35-.39.72-.66,1.13Z"/><path d="m225.21,28.72c.09-.07.2-.06.24-.7.01-.2-.06-.32-.1-.47-.05.39-.06.79-.14,1.17Z"/><path d="m220.66,38.51c.1-.18.02-.09-.07,0h.07Z"/><path d="m224.87,29.83l.05-.27.05-.27c-.09.17-.13.35-.11.54Z"/><path d="m145.93,2.86c-.12-.31-.76-.45-1.66-.39-1.15.09-.71.42-.83.67,1.11.07,1.18-.51,2.49-.28Z"/><path d="m160.31,2.3c.02.28-.36.61,1.16.74-.08-.24.24-.48-.47-.71l-.69-.02Z"/><path d="m145.94,2.85l.13.08s-.1-.05-.13-.08Z"/><path d="m34.53,56.79l1.09.35c-.16-.18.46-.28-.42-.51-.5-.14-.67,0-.67.16Z"/><path d="m49.5,60.24c1.01.2,2.04.4,2.1-.02-.77-.04-1.62-.12-2.1.02Z"/><path d="m129.21,2.34c1.26-.16,2.57-.5,2.89.32.14.37,1.75.2,2.66.31-.49-.43-.89-.87-1.51-1.28-1.33-.88-3.8-.99-5.82-.28-.25.09-.38.24-.69.29-1.15.19-1.22.82-.08,1.06q.47.1.75-.31c.13-.19.09-.45.96-.45.26,0,.56.23.84.35Z"/><path d="m119.82,2.74h.68c1.18-.67-.67-1.24-.62-1.87l-1.87.4c-.17.59,2.31.85,1.82,1.47Z"/><path d="m122.95.69c-.68,0-1.38-.04-1.89.16.02.03,0,.07.06.09.84.2.69.83,1.72.71,1.51-.17-.18-.62.1-.95Z"/><path d="m126.27,1.25c.18-.06.39-.1.37-.14-.05-.1-.19-.2-.3-.3-.08.05-.23.11-.23.16,0,.08.09.17.15.28Z"/><path d="m135.3.81c-.41-.06-.83-.12-.93.09.39.04.94.21.93-.09Z"/><path d="m133.53.88l-.26.1c.11-.02.23-.05.26-.1Z"/><path d="m26.77,14.55l1.68-.51c.3-.84,3.19-1.49,3.98-2.27-.16-.21,0-.59-1.36-.19.67.18-.28.62-.88.89-.74.33-1.17.2-1.51.09l-1.74.47c-3.03,1.67-3.01,1.84-.16,1.52Z"/><path d="m28.67,12.57c.34.11.78.24,1.51-.09.6-.27,1.56-.71.88-.89-.94.26-2.14.44-2.39.98Z"/><path d="m20.33,15.51c1.91.26,2.08-.84,3.11-1.29-1.4.14-2.29.68-3.11,1.29Z"/><path d="m16.81,16.54l.6-.26c-.26-.07-.47,0-.6.26Z"/><path d="m96.4,3.84c1.21-.09,1.25-.36,1.33-.63-.21-.35.43-.32,1.12-.26.36-.39.06-.85,1.81-1.06.33-.49-1.59-.2-1.88-.47-2.45.74-2.59,1.59-2.38,2.41Z"/><path d="m116.17,2.42l.78-.07c-.44-.16-.55.01-.78.07Z"/><path d="m99.77,63.56c-.3.14-.39.29-.47.45,1.26.03,2.5.06,3.75.09,1.13.01,1.16-.2,1.21-.41-.67-.05-1.49,0-1.88-.23l-2.6.11Z"/><path d="m117.29,63.22c-.03-.16-.09-.34-.78-.36-.31,0-.72.14-1.08.22.44.19,1.18.15,1.86.14Z"/><path d="m102.37,63.45c.39.23,1.21.18,1.88.23-.38-.24-1.15-.22-1.88-.23Z"/><path d="m109.82,64.35c0-.09.59-.18.04-.27-.06-.01-.23,0-.29.02-.36.11-.15.19.25.26Z"/><path d="m71.71,5.78c1.02-.28,2.11.87,3.08-.36.08-.8-2.12-.12-3.18-.18l.1.53Z"/><path d="m84.58,3.79l-.25.06c.08-.02.16-.04.25-.06Z"/><path d="m71.61,5.25l-.14-.06c.05.02.1.04.14.06Z"/><path d="m128.43,63.26l1.26-.04.06-.29c-.88,0-1.31.12-1.32.34Z"/><path d="m56.64,61.19c3.11.79,3.55.3,3.64-.35l-.58-.8c-2.27-.8-3.69-.29-5.53-.45-.31.55-.24,1.1,2.47,1.6Z"/><path d="m86.72,62.91l.27.04c0-.08-.11-.08-.27-.04Z"/><path d="m188.48,6.2l.43.11-.18-.16c-.09.02-.17.03-.25.05Z"/><path d="m80.7,62.41c.21.06.42.12.64.18,0,0,.12-.03.18-.05-.27-.04-.54-.09-.83-.13Z"/><path d="m45.69,57.74l-1.13-.41c.04.23.05.48,1.13.41Z"/><path d="m99.3,64.01l.26-.46c-.61-.02-1.3-.04-1.41.16-.11.21.48.28,1.15.3Z"/><path d="m92.59,3.75c.05-.2.06-.39-.56-.47.08.18-.18.41.56.47Z"/><path d="m89.48,2.94l.14.06s-.1-.04-.14-.06Z"/><path d="m94.41,2.86c-.14-.13-.15-.32-.46-.36-.4-.06-.77.14-.63.23.27.19-.96.71.94.54l.15-.41Z"/><path d="m94.41,2.86l-.15.41c.94-.17.85-.3.15-.41Z"/><path d="m55.96,6.99c-.09-.02-.18-.05-.29-.07-.01,0-.21.06-.22.08-.02.05.02.09.04.14l.47-.15Z"/><path d="m12.85,46.93l.24.09c-.09-.04-.17-.08-.24-.09Z"/><path d="m218.97,9.05c.33.06.65.12.98.19l-.2-.19c-.27-.02-.55-.02-.78,0Z"/><path d="m61.4,5.6h.81c-.07-.09-.24-.14-.42-.19l-.39.19Z"/><path d="m98.85,2.95c-.69-.06-1.33-.09-1.12.26l1.12-.26Z"/>
                  </g>
                </mask>
              </defs>
              <path class="mask" d="m228.82,24.72c3.44-3.36,1.6-8.33-2.55-11.27-4.95-3.51-11.6-4.97-15.63-5.53C143.02-1.42,95.21,3.04,95.21,3.04c-12.29,1-70.3,5.98-87.79,20.07-1.58,1.27-5.22,4.28-5.72,8.48-1.01,8.4,11.27,15.1,16.22,17.8,35.29,19.26,170.23,21.39,199.99-8.03,2.5-2.47,9.06-8.96,7.52-17.24-2.05-10.98-17.03-17.82-21.64-19.77"
                    mask="url(#path-mask)" stroke="black" stroke-width="2" fill="none"
                    stroke-dasharray="528.5431518554688" stroke-dashoffset="528.5431518554688">
              </path>
            </svg>
        