
            <svg xmlns="http://www.w3.org/2000/svg">
              <defs>
                <mask id="path-mask">
                  <g fill="white">
                    <path d="m188.44,6.49c-2.29-.18-.88.29-1.36.43l-1.62-.29c-1.31-.35-2.86-.67-4.1-1.05-2.57-.72-7.51-1.04-9.65-.64-1.44-.16-2.35-.15-2.97-.04-1.9-.32-4.78-.18-6.24-.63-.39-.26-2.07-.57-.64-.75,1.03-.11,2.15-.12,3.78.13,1.35.2,2.57.3,3.36.14l1.27.1c1.59,0,3.67.84,4.95.34.49.06,1.4.16,1.42.16,1.29-.42,4.19.05,6.7.44l.02.16c-.7-.01-.56.04.22.15.13,0,.26.02.4.04l.06.23c-.43-.04-1.05-.14-1.06-.04,0,.02.3.1.46.11.73.08.53-.02.61-.07l2.5.18c.2.02.41.04.62.06-.32.09-2.38-.05-.6.3,1.88.36,2.55.28,2.96.11.39-.16,1.2-.09,2.46.23.08.34,1.93.46,3.18.72l-.08.09c-1.22-.03-.29.15.73.34,1.35.44,1.53.15,2.4.29l.17.07-.19-.07c.11-.17-.37-.5,2.14.02,1.56.35,2.91.55,2.7.2l1.56.27c.43.21.86.42,1.28.65-.84-.19-1.23-.17-1.32-.08-1.03-.09-1.14,0-.18.32,1.34.28,1.75.51,1.24.57-.24.03-.58.07.3.3.51.13,1.65.31,1.64.27-.05-.53,3.49.26,4.92.38.29.02.43-.03.64-.04l.28-.08c1.58.38,3.16.91,4.72,1.38,1.57.44,3.07.94,4.52,1.23.74.14,1.67.61,2.32.97,1.19.62,2.04.89,2.79.98,1.89.93,3.79,1.82,5.6,2.88l.03.2c.04.29.91.8,2.01,1.43.86.47.67.16.79.09,3.08,1.64,6.07,3.48,8.93,5.88l-.08-.14c.08-.02-.08-.28.46.19.21.07.35.02,1.02.67-.48.03.76,1.32,1.62,2.52.94,1.27,1.79,2.79,2.3,4.4.51,1.61.59,3.27.5,4.69-.17,1.97-.71,3.26-1.7,4.86-.65.93-.08.56,0,.72-2.12,3.09-4.97,5.4-7.88,7.43l-.15-.25c.48-.53.25-.57-.14-.54-.67.05,0-.54,1.49-1.64.41-.37.81-.75,1.2-1.13.74-.63,1.65-1.4,1.78-1.87-.44.4-.89.78-1.36,1.15-.26.05-1.14.61-.21-.37.64-.33,1.17-.82,1.56-1.46l.85-.92.78-.96c.96-.53,2.5-2.07,3.29-4.34-.01-.43.04-.89-.01-1.36-.07-.47-.08-.93-.19-1.34-.19-.82-.52-1.42-.78-1.52-.44-2.08-1.62-4.04-3.22-5.6.07-.14.38-.08.17-.48-.3-.54,1.48,1.09.03-.54-1.06-1.08-1-.71-1.01-.47,0,.11-.18.31-.71-.53-.49-.79-.81-.96-1.11-1.1-.31-.13-.62-.21-1.21-.7-.14-.2-.2-.4-.44-.59-.71-.55-.79-.42-1.04-.49-1.16-.86-2.39-1.59-3.64-2.34-1.28-.69-2.52-1.48-3.84-2.27-1.37-.83-2.31-.89-2.84-.87-4.24-2.06-8.68-3.72-13.19-5.14.03-.07.2-.11.08-.22-.36-.32,1.93,0-.42-.74-2.09-.65-.38.24-.74.32-.1.02-.8-.16-1.22-.25-3.93-.81-8.11-1.92-12.2-2.73-1.19-.23-3.17-.35-4.06-.85-.51-.26-2.53-.8-4.7-1.3-2.19-.46-4.54-.86-5.69-.96Zm13.55,2.71l.47-.02c-.2-.05-.43-.13-.59-.15-.15-.02-.23,0-.35.01.16.05.32.1.48.16Zm22.87,6.01c.08.04.19.09.3.14,0-.05-.11-.1-.3-.14Z"/><path d="m173.39,4.46c5.34.63,10.48,1.92,15.69,3.04.47,1.21,3.96,1.33,6.09,1.99.36.42.22.78,2.6,1.03,1.44.15,3.44.74,5.23,1.19,1.39.51-3.3.48,2.06,1.35.75.24,1.87.41,1.87.8,0,.2.68.61,1.38.74.71.14,1.41.11,1.7,0,.49-.18-.88-.43-1.27-.63-.77-.4-1.29-.8-1.92-1.2.49-.12,2.33.54,2.33.15.99.86,5.22,1.39,4.99,2.12-.12.36-1.86.27-2.68.51-.85.23-3.97-.55-6.41-1.28-1.1-.34-2.11-.78-3.21-1.09-1.06-.3-2.3-.95-3.16-.85-.92.11,2.07.72,1.43.95-1.77-.16-3.58-.48-5.5-1.18,0-.64-.42-1.23-3.52-1.35-2.3-.08-4.92-1.54-7.2-1.32l-.83-.14-1.53-.49c-2.51-1.17-5.35-1.76-8.54-1.69-1.76-.79-3.8-1.36-6.54-1.37l-1.14-.15c.14-.04.24-.09.44-.1,1.55-.01,2.6-.13,1.09-.77-.39-.17-1.5-.45-1.34-.23.39.5-4.62.02-1.04,1.11-.99-.06-2.43-.33-2.46.09l-1.71-.23c-.03-.23,1.36-.3.22-.64-.91-.27-1.92-.29-2.7-.18l-1.08-.14c-2.21-.3-2.31-.74-2.58-1.17-.16-.24-.67-.5-1.73-.59-.4-.03-1.03,0-1.16.08-.37.21.49.34,1.16.49,2.42.56-2.04.57.06,1.11-.57.34-1.93.19-3.22.09v-.27c.05-.26,1.99-.45-.03-.76-1.5-.23-2.57,0-2.3.47l-1.97-.17-2.7-.55c-.74-.35-1.1-.68-.43-.98.31-.14.25-.3-.62-.38-1.05-.1-1.22.09-1.39.26l-1.46-.28v-.59c2.49.21,5.33.13,6.94.99.61.34,1.54.26,1.72-.02.13-.2-.05-.46,1.01-.49,4.37-.17,8.84.2,13.35,1.14,2.68,1.09,8.42,1.83,12,1.57Zm27.5,7.53c-.28-.07-.58-.07-.87-.09.22.12.42.27.68.34.27.08.61.09,1.14.16-.43-.19-.68-.34-.94-.41Z"/><path d="m71.09,65.67c2.08.13,2.98.59,4,1.02.51.22.11.59,1.78.64,1.34.04,1.07-.3.85-.59-.21-.28-.31-.55-.45-.83l4.87.46c-.01.27-.62.57,1.6.76,1.67.14,2.42.36,2.32.73-.2.19-2.16.05-1.23.44.33.14,1.09.33,1.6.37,1.71.12.61-.32,1-.46.22-.08.38-.18.7-.24.63-.11,2.42-.05,1.77-.33-.75-.32-2.07-.03-3.23-.2l.05-.5c4.62.31,9.09.81,13.5,1.35-.76.51-1.27,1.12-5.06.39-.62-.12-1.64-.16-1.92.03-.29.21.49.33,1.36.44.26.31.52.61.68.94l-1.28.06,1,.31c-3.06.13-5.89-.19-8.5-.89-.66-.4-1.98-.92-3.4-.73-2.73.38-7.41-1.17-9.3-.37-2.54-.6-5.29-.78-7.92-1.23.2-.6-1.81-.98-3.52-1.09-1.53-.1-2.41-.29-3.51-.66.48-.46,3.08.36,4.19.21.42-.06,1.69.68,2.34.39.4-.18-.89-.6-1.67-.91-.8-.32-1.44-.48-2.61-.47-1.48.02-3.18-.13-4.37-.92-.71-.46-2.14-.5-2.98-.54-1.46-.06-.34.3.46.62,1.26.5,2.52.99,2.19,1.38h-.87c-1.34-.97-4.24-1.26-6.63-1.87-.93-.21-3.13-.49-2.35-.99.19-.12-2.77-.54-2.9-.41-.26.31-1.03.09-2.08-.18l-.77-.2c-1.48-.25-3.25-.5-2.47-1.01.83-.18.8-.18-.38-.64-.52-.2-1.2-.5-1.28-.64-.3-.47,1.82.24,2.23.09,2.19.56,4.59.74,6.29,1.84.44.28,1.9.36,1.82.28-.32-.34,2.72.28.65-.5.13-.15.37-.11,1.24.1,2.85.71,5.68,1.59,8.69,1.81.18,1.38,3.68.93,5.58,1.32,2.23.35,3.95.14,6.3.58-.6.28-2.37.54,1.62.83Zm9.25,1.72l-.48.11c.2.04.43.11.6.11.15,0,.24-.05.36-.08-.17-.05-.32-.1-.48-.14Z"/><path d="m111.86,3.34c-2.84.27-6.31.37-8.92.74-2.33-.05-5.86.41-8.61.59-.78.05-1.08.09-1.64.16-1.71.23-2.1.66-.2.55,2-.12,2.62-.09,3.14-.02.54.08,1.52.13,3.4-.21.21-.04.99-.12,1.32-.14,3.27-.15,6.4-.45,9.63-.61,7.41-.37,14.83-.65,22.26-.72l-.02-.18c-.63,0-1.14,0-1.28-.07-1.1.05-2.42.11-3.33.13-2.2.05-4.89.27-6.64.1-1.04-.12-8.61,0-10.15.19-.25.03-.52.08-.48.09.38.16-1.05.15-1.7.15-.78,0-1.26-.04-1.94-.04-.39,0-1.59.12-1.47.05.07-.04.76-.13,1.69-.21,1.94-.17,4.7-.28,4.94-.55Z"/><path d="m.47,31.89c-.83,2.23-.5,5.21.43,6.39-.2-.6-.14-1.45-.28-1.86-.14-.83-.27-1.68-.16-2.46.1-.78.36-1.48.79-1.96.72-.78.32.58.4,1.54.03.85.09,1.54.1,2.21-.02.34,0,.66.02.99.02.33-.03.68.03,1.01.05.86.59,2.22,1.11,2.7.82.87,1.35,1.48,1.74,2.1.4.6.67,1.17,1.08,1.75.61.65,1.51,1.33,1.5,1.69,0,.07-.4-.09-.52-.2-.87-.8-.72-1.01-.97-1.49-.82-.36-1.61-.79-2.42-1.26.54,1.84,2.54,3.12,4.23,4.25.11-.23.36-.32,1.55.53.08-.15.3-.22.23-.48-.22-.76,1.66.69,2.38.87.19.06.63.27.68.46.1.39-.63.06-1.45-.32-.47-.21-.34.27-.49.45.79.26,2.49,1.79,2.94,1.48-.21-.21-.87-.66-.14-.36l.12.35c.91.69.07.72,1.33,1.43.44.25.98.14,1.46.2.06-.14.27-.17.9.1,0-.07-.02-.13-.03-.2l-.64-.39c-.95-.87-4.12-3.05.54-.65.31.15.54.05.82.05-.98-.54-2-1.06-2.98-1.62-.97-.59-1.86-1.23-2.55-2.02-.17-.18-2.9-1.51-4.39-2.83-.55-.2-1.08-.63-1.94-1.46-1.23-1.24-2.24-2.75-2.88-4.33-.65-1.58-.91-3.22-.82-4.85.38-.59.67-1.4,1.05-2.23.39-.82.92-1.63,1.48-2.06,1.13-.83,1.97-1.48,3.15-2.77,1.65-1.72,2.71-2.05,3.06-1.61,1.06-.74,2.17-1.45,3.27-2.13-.33-.2.46-.97,1.03-1.57-1.77.51-3.66,1.11-.54-1.24.41-.29.05-.26-.43-.09-1.17,1.1-3.41,1.86-4.34,2.86-2.14,2.29-2.01,1.41-2.55,1.38l-.69.53c.06.21-.24.59-1,1.23.08.28-.37.76-1.04,1.45l.26.16c-.68.65-.67.45-.78.36-.75.58-1.58,1.46-2.21,2.29-.65.81-1.12,1.57-1.47,1.63Z"/><path d="m156.86,3.25c-1.03-.05-1.76-.02-2.3.05-1.15.14-2.55.26-.44.59,3.31.53,3.49-.02,5.22,0l3.17.38c1.46.45,4.33.31,6.24.63l.02.26c-1.83-.2-3.98-.05-5.34-.36-1.72-.39-3.52-.44-5.55-.5-4-.08-8-.28-12.01-.39-4.01-.11-8.02-.18-12.05-.23-.14-.1-.13-.2.87-.27h1.55s.8.1.8.1c.24.05.48.05.73,0,5.08-.01,5.79-.08,3.87-.52-.06-.01-.08-.03-.11-.04-4.5.2-5.69-.55-10.1-.32-1.83.1-4.26.17-4.76-.09,1.2-.05,2.55-.33,2.95-.21.76.22,2.02.06,3.25.04,4.38-.08,8.65-.05,13.15.01,6.42.1,13,.57,19.55.93,1.3.06,3.38.15,3.46.47-.78.16-2.01.06-3.36-.14-1.63-.25-2.74-.24-3.78-.13-1.68-.2-3.35-.43-5.01-.27Zm-8.04.29c-.03-.1-.48-.3-1.79-.29-1.26.02-3.12.1-3.19.21-.14.21,1.5.04,2.09.11,1.15,0,2.98.28,2.89-.03Zm-3.72-.95c-.83-.03-2.3-.04-2.36.13-.03.09.5.2,1.38.2.94.01,1.86-.02,3.09-.03-.9-.13-1.45-.27-2.11-.29Zm4.84.81l.48.03-.06-.04c-.36-.02-.38,0-.42,0Z"/><path d="m130.33.33c-2,.12-3.55.05-5.8-.18-1.63-.18-3.47-.16-5.36-.14-1.89.02-3.84.11-5.69.2-1.85.08-3.85-.14-5.58.27v.53c.42.23,1.48.57.24.71-3.68.43-3.15,1.34-5.67,1.9,1.35-.1,2.55-.24,3.6-.47.14,0,.25-.03.35-.06.13-.25-.46-.54,1.01-.72,1.16-.14,1.99-.07,2.16.23l.19.06-.18-.07c-1.72-.1-1.75.48-3.16.49-.09.03-.12.07-.1.1,1.64.5,3.59-.15,5.37-.08,2.24-.6,4.64-.65,7.06-.16.72.14,1.19.34,2,0,1.24-.52,3.05-.33,4.78-.11,2.49-.35,1.36-.87.76-1.38-.16-.13-.68-.32.2-.38.75-.06,1.19.09,1.49.24h.89c-.46-.42,1.92-.57,1.44-.99Z"/><path d="m130.61,71.03c1.58.28,3.22.49,5.39.22,2.7-.55,5.57-.7,8.65-.38.57-.25,1.66-.34,2.63-.46l1.63.09c-.2-.16-.51-.46-.58-.45-2.97.21-4.98-.36-7.84-.23-2.08.09-3.98.1-4.56-.45-.02-.02-.23-.02-.34-.03-.39.07-.78.13-1.18.2.36.62-1.75.59-3.35.55-5.27-.12-10.56.2-15.9-.22-3.22-.25-3.4-.1-1.85-.75.47-.2.78-.41,1.16-.62-3.07.07-6.59-.34-9.07.22.57.08,1.13.19,1.72.23.98.07,2.39-.27,2.82.12.17.16-1.38.42-2.36.55-.52.07-1.51,0-2.28-.02-.65-.02-1.36-.07-1.68.08-.42.19.26.33.92.46,1.05.2,1.32.58,2.96.63,2.08.45,4.34.69,7.08.56,3.12-.48,6.76-.44,10.42-.4-.05-.15.11-.33.78-.32,1.17.01.42.26.68.39,1.54-.51,3.14-1.15,4.13.04Z"/><path d="m136.23,3.42l.8.09h.36s.36,0,.36,0c5.08-.01,5.79-.08,3.87-.52-.06-.01-.08-.03-.11-.04-4.5.2-5.69-.55-10.1-.32-1.83.1-4.26.17-4.76-.09-1.32.16-3.69.19-4.68.41,1.27.1.03.36-.63.38-1.95.06-.77-.16-1.05-.26-.06-.02,0-.05,0-.07-1.5-.12-4.03.22-5.7.2-1.02.12-1.93.16-2.72.14-.25.27-3.01.38-4.95.55-.93.08-1.62.16-1.69.21-.11.07,1.09-.06,1.47-.05.68,0,1.16.05,1.94.04.65,0,2.08.01,1.7-.15-.04-.02.22-.07.48-.09,1.53-.19,9.1-.32,10.15-.19,1.74.17,4.44-.05,6.64-.1.91-.02,2.23-.07,3.33-.13,1.07-.09,1.12,0,1.28.07l.02.18h1.57c-.14-.1-.13-.2.87-.27.2-.04.34-.12.6-.12.83-.02.84.06.95.13Z"/><path d="m95.37,3.95l-.07-.21c-.67-.36-1.21-.75-2.05-1.08-1.79-.73-4.96-.49-7.47.45-.31.12-.46.28-.85.37-1.45.33-1.48.95,0,1.02q.62.03.92-.4c.14-.2.07-.45,1.18-.56.34-.03.74.15,1.11.23,2.1-.05,2,.4,2.5.71-2.35.44-4.78.64-7.23.78.95-.67-1.47-.56-2.64-.71l-1.19.5-2.47.47s-.06-.09-.05-.14c1.44-.82-.99-1.09-1-1.7l1.51-.21s.01.07.09.07c1.09.06.97.69,2.27.42,1.91-.39-.29-.57.03-.93l.86-.5c1.84-.2,3.7-.4,5.54-.6,1.85-.17,3.69-.31,5.5-.32l1.56-.13.09.36-.32.12.43-.11.98-.08c.5,0,1.22.1,1.18-.19l1.58-.3-.22.08-.25-.04c1.12.32,3.83.12,4.63.74.38.28,3.76-.48,5.61-.82.31-.06.5-.15.75-.23.42.23,1.48.57.24.71-3.68.43-3.15,1.34-5.67,1.9-2.44.38-4.8.47-7.1.32Zm-10.64-1.01c-.08-.09-.26-.17-.41-.25-.1.06-.28.13-.28.18,0,.08.13.15.22.24.22-.08.49-.15.46-.18Z"/><path d="m9.12,47.82c-1.19-.85-1.44-.76-1.55-.53l1.07.89.88.6c2.1,1.64,4.17,3.05,6.73,4.23,1.06.43,2.51,1.19,3.66,1.93.63.4,1.59.89,2.44,1.31.86.39,1.63.69,1.86.75,4.88,1.34,9.34,3.11,13.87,4.71,1.66.59,2.81.61,4.2.96,7.12,1.82,14.33,3.2,21.55,4.37.78.12,1.56.32,2.04.18.2-.6-1.81-.98-3.52-1.09-1.53-.1-2.41-.29-3.51-.66-.56.13-1.57-.1-2.45-.23h-.87c-1.34-.97-4.24-1.26-6.63-1.87-.93-.21-3.13-.49-2.35-.99.19-.12-2.77-.54-2.9-.41-.26.31-1.03.09-2.08-.18-.3.1-.56.02-.79-.21-1.46-.24-3.24-.49-2.45-1-.38-.11-.77-.22-1.16-.34-1.28-.09-2.6-.27-4.18-1.09-1.49-.08-3.05.03-4.49-1.47l-2.16-.84c-.62.22-2.01-.52-3.18-.98-1.7-.71-1.27-.88-1.29-1.14-2.19-.29-4.05-1.43-5.7-2.83-.49-.05-1.02.05-1.46-.2-1.26-.7-.42-.73-1.33-1.43-.44.32-2.13-1.21-2.92-1.47-.46-.31-.9-.65-1.35-.98Z"/><path d="m62.58,5.29c-1.16-.15-2.42-.12-4.03.48.99.13,1.97.29.91.81-.83.41-1.58.06-2.51.33-1.34-.35-1.99.11-2.76.57-.87.52-1.77.77-2.5.42-2.21.55-1.77.92-2.1,1.34.41.33,2.22.1,3.15.24,1.54.08,3.51-.19,5.35-.68,1.39-.36,2.6-.57,3.97-.71,1.35-.43-.19-.85,2.21-1.24,1.77-.29,1.54.18,1.86.4l1.57-.28c-.15-.24-.4-.46-.42-.72-.01-.17.71-.34,1.39-.44.59-.08,1.05-.05.73.12-.48.25-1.83.62-.35.59.37,0,1.61-.51,2.45-.79.26-.1.39-.28.97-.2l-.99.2c.7.62,2.65.22,4.7-.25.56-.68-2.63-.54-2.48-1.13-3.37.79-3.4.33-3.21-.24-1.36.29-2.54.08-3.92.47.3.58-1.14,1.33-3.5,1.64-3.28.41.97-.7-.2-.82-.16-.02-.2-.08-.29-.12Z"/><path d="m217.04,61.21l1.25-.37,2.37-.89.87-.32s-.07-.07-.11-.1c-.54.12-.82.14-.41-.12.06-.04.27-.12.34-.14.7-.14.02.18.04.27,1.26-.4,2.15-.8,2.65-1.22,1.57-1.36,4.65-1.91,4.67-1.72.03.6,1.94-.27,3.4-.76.84-.47,1.63-1.03,2.45-1.54l1.22-.78c.39-.28.79-.57,1.18-.85.69-.5,2.13-1.28,1.57-1.29-.46-.01-1.88,1.04-2.3,1.2-1.29.5-2.91,2.04-3.86,1.85-.96.41-2.11.89-2.36.7-.81.34-1.65.77-2.25.79-1.82.64-3.64,1.33-5.49,1.84-3.62,1.08-6.62,2.55-10.4,3.29l.08.36c.91-.25,1.86-.53,2.39-.44,0,.22.02.43-1.38.81l.78.28c1.1-.29,2.2-.55,3.29-.87Z"/><path d="m14.29,20.01c.47-.18.83-.2.43.09-3.12,2.36-1.23,1.75.54,1.24l1.27-.74-.28-.44-.2.03.19-.02c1.24-.53,3.71-2.13,3.83-1.37.99-.51,2.02-.8,3.04-1.17,1.04-.34,2.08-.73,3.13-1.44.3-.2,1.83-.55,2-.3.73-.26,1.47-.5,2.21-.73.8-.76,3.57-1.82,2.83-2.27-.03-.02.46-.24.71-.36,1.97.47,2.31-.95,3.68-1.17-.02-.05-.04-.11-.05-.17-4.16.19-4.82,1.39-5.98,2.38l-.28.14.3-.14c-.79.19-2.22.6-2.28.52-.41-.56-1.25-.38-2.25.06-1.01.42-2.17,1.13-3.26,1.64-2.29,1.02-4.75,2.5-6.98,3.01-1.03.39-1.1-.09-2.75.88l.14.34Z"/><path d="m139.83,2.13l-1.46-.28c-3.59-.3-3.52-.87-3.11-1.5-1.18-.27-1.14.09-1.72.13,1.03.9-.77,1.56-4.03,1.55.74.45.78.89-.04,1.31.81.46,1.51.19,2.23.06-.47-.12-.59-.27.06-.26.88,0,.73.21.81.35,1.87.72,4.67.37,6.69.5,1.65.09,3.37.27,5.07.39,1.7.12,3.38.25,4.96.13v-.27s-2.28-.29-2.28-.29c-.75.28-1.38.04-2.02-.17l-2.7-.55c-.21.24-.4.5-1.86.36-.99-.09-1.54-.31-2.01-.53-1.08-.53.44-.69,1.43-.93Z"/><path d="m232.38,54.45c.95.18,2.57-1.36,3.86-1.85.42-.16,1.85-1.21,2.3-1.2.56.01-.88.79-1.57,1.29-.4.29-.79.57-1.18.85l-1.22.78c-.82.51-1.61,1.06-2.45,1.54.25-.02.51-.02.75-.05l.85-.42c1.06-.8,2.38-1.47,3.67-2.29.65-.39,1.32-.78,1.98-1.18.63-.41,1.26-.83,1.85-1.27.48-.53.25-.57-.14-.54-.67.05,0-.54,1.49-1.64l-.06-.14c-.1-.18.29-.57,1.17-1.26.18-.14.34-.3.5-.45-.26.05-1.14.61-.21-.37l-.15-.07c-1.69,1.42-3.56,2.63-5.47,3.82l-2.89,1.7c-.96.57-1.97,1.06-2.94,1.63.79-.02,2.16-.32-.12,1.13Z"/><path d="m168.92,69.51c.94-.1.92.63,2.55-.05,1.22-.5,2.46-.06,3.7-.33.29-.71,1.99-.73,3.8-.69,1.53.04,2.77-.21,3.88-.57,1.15-.38,1.63-.71.35-.86-1.68.16-3.24.09-5.02.44-5.55,1.01-6.17,1.05-10.71.88-.11,0-.32,0-.35,0-2.24.83-5.79.14-8.08.85.24.29.29.62,1.88.68.04-.23.41-.28,1.5-.31,2.29-.08,4.44-.1,6.5-.04Z"/><path d="m232.38,54.45c2.28-1.45.91-1.15.12-1.13-.81.33-1.53.5-2.3.79-.78.28-1.58.71-2.67,1.36-.79.47-2.06.96-3.47,1.43-1.44.43-3,.89-4.38,1.33-3.72,1.18-7.67,2.36-11.59,3-1.71.31-2.84.53-2.55.94.27.39,1.65.11,3.17-.34l3.18-.77c3.78-.74,6.78-2.21,10.4-3.29,1.85-.51,3.67-1.19,5.49-1.84.41-.22.84-.57,1.2-.72.81-.33.96-.2,1.05-.08.26.19,1.4-.29,2.36-.7Z"/><path d="m31.64,13.55c1.15-.99,1.82-2.19,5.98-2.38l3.06-1.06c.8-.35,1.64-.67,1.36-.9-1.59-.09-3.43.76-5.03,1.22-6.11,1.76-12.26,3.7-17.96,6.78-1.51.84-1.65,1.1-2.14,1.58,2.23-.51,4.69-1.99,6.98-3.01,1.09-.51,2.25-1.21,3.26-1.64,1-.44,1.84-.62,2.25-.06.06.08,1.49-.34,2.26-.52Z"/><path d="m114.5,68.5c-.38.21-.7.42-1.16.62-1.55.64-1.37.49,1.85.75,5.34.41,10.64.09,15.9.22,1.6.04,3.7.07,3.35-.55-2.99-.62-6.25-.5-9.84-.17-2.31.21-4.08.06-3.63-.62-2.33.26-4.25-.25-6.46-.24Z"/><path d="m159.04,69.18c2.3-.71,5.85-.02,8.08-.85.03,0,.24,0,.35,0,4.53.17,5.16.13,10.71-.88,1.78-.34,3.34-.27,5.01-.44-.77-.47-1.61-.93-4.38-.9l-1.97.55c-.71.43-1.85.51-3.48.61-1.98.1-4.36.36-6.08.45-3.45.18-6.49.97-9.81.79l.92.68c.22-.01.44-.02.65-.02Z"/><path d="m199.17,63.71c-.93.7-1.68,1.33,2.43.63,1.32-.22.53.14.46.29-1.96.68-4.23.93-5.71.93-3.76.06-4.52.63-5.22,1.36l-.75.15c-2.47.08-6.47.41-2.8-.95.66-.24.6-.54.87-.81,2.07-.31,4.15-.63,6.22-.94,1.34-.2,2.34-.38,2.42-.74.77-.1,1.54-.24,2.3-.36-.07.15,0,.28-.22.44Zm-6.52,1.56c-.08,0-.22.02-.41.1.12,0,.23-.02.41-.1Z"/><path d="m209.16,12.92c.99.86,5.22,1.39,4.99,2.12-.12.36-1.86.27-2.68.51-.85.23-3.97-.55-6.41-1.28-1.1-.34-2.11-.78-3.21-1.09-1.06-.3-2.3-.95-3.16-.85-.92.11,2.07.72,1.43.95,3.46,1.56,8.16,2.04,11.71,3.72,1.12.52,1.02-.07,1.98.15.98.08-3.03-1.45.38-.59,1.3-.19,4.35.47,4.14-.38-.68-.28-1.58-.59-2-.83-1.04-.62-.74-1.52-3.88-1.6-.02,0-.26-.13-.58-.3-.32-.16-.71-.36-1.03-.49-1.84-.73-3.66-1.2-5.34-1.35.34.88,2.65.76,3.66,1.31Z"/><path d="m218.44,18.42c.92.32,1.55.63,1.97.97,1.05.85,3.22,1.86,5.08,2.2,1.67.31,3.25.4,3.61-.01.67-.76-1.19-1.85-5.69-3.28-1.1-.34-2.37-1.06-3.57-1.6-1.49-.06-1.11.55.26,1.31,1.39.77,2.81,1.04,3.97,1.09.43.01,2.27.47,1.98.77-.25.26.67.91-.08.97-.46.04-.74.2-1.95-.18-1.26-.4-1.73-.78-1.8-1.05-.07-.28-.19-.54-1.59-.99-1.36-.44-2.11-.5-2.2-.19Z"/><path d="m157.47,68.52c3.32.18,6.35-.62,9.81-.79,1.71-.09,4.1-.35,6.08-.45,1.62-.1,2.77-.18,3.48-.61-2.85-.59-6.93.27-10.36.48-5.1.34-10.31,1.02-15.32.69l-.4.25c.75.23,3.37.43-.59.72-1.3.09-2.02.42.22.43,2.35-.23,4.04-1.04,7.09-.72Z"/><path d="m10.96,25.03c-.34-.44-1.41-.11-3.06,1.61-1.18,1.29-2.02,1.94-3.15,2.77-.57.43-1.09,1.24-1.48,2.06-.38.84-.67,1.65-1.05,2.23-.09,1.63.17,3.26.82,4.85.64,1.58,1.65,3.09,2.88,4.33.86.84,1.39,1.27,1.94,1.46-1.04-1.24-2.11-2.5-3.01-3.87-.9-1.37-1.66-2.86-1.89-4.48-.3-2.06.48-4.22,2.23-5.94,1.47-1.51,3.58-3.48,5.78-5.01Z"/><path d="m162.01,5.68l-1.71-.23-2.47-.81c-.36-.05-.72-.09-1.08-.14l-3.56.03c1.98,1.17,6.13,1.31,9.08,1.73,5.86.82,11.81,1.48,17.69,2.44l1.6.1c-2.51-1.17-5.35-1.76-8.54-1.69-2.54-.21-5.24-.26-6.54-1.37l-1.14-.15-.82-.06c0,.14.02.21.04.27l.23.17-.55-.14-2.21-.15Z"/><path d="m249.46,34.35c-.44-2.08-1.62-4.04-3.22-5.6-1.19-1.3-2.48-2.43-3.37-3.45-.96-.74-1.46-1.1-1.96-1.45-1.16-.86-2.39-1.59-3.64-2.34-1.28-.69-2.52-1.48-3.84-2.27-1.37-.83-2.31-.89-2.84-.87,3.86,1.97,7.62,4.18,11.06,6.76,1.71,1.29,3.33,2.7,4.71,4.27,1.37,1.57,2.48,3.35,2.93,5.29.06-.11.13-.23.17-.34Z"/><path d="m202.07,64.63c-1.96.68-4.23.93-5.71.93-3.76.06-4.52.63-5.22,1.36,6.08-.73,12.21-1.54,18.09-3.4,1.42-.46,2.41-.31,3.56-.67,1.59-.5,4.13-.95,4.26-1.63-1.09.32-2.19.58-3.29.87-1.81.46-3.64.81-5.46,1.2-2.07.49-4.15.92-6.23,1.35Z"/><path d="m198.2,7.74c.11-.17-.37-.5,2.14.02,1.56.35,2.91.55,2.7.2-6.4-1.49-12.9-2.66-19.71-3.13l.02.16.22.15c.13,0,.26.02.4.04,1.14.06,2.27.12,2.57.41.2.02.41.04.62.06.79.12,1.58.28,2.37.42.39-.16,1.2-.09,2.46.23,1.4.22,2.9.18,4.13.62.41.14-.25.16-.94.11l-.08.09.73.34c1.35.44,1.53.15,2.38.29Z"/><path d="m190.38,67.06c-2.47.08-6.47.41-2.8-.95.66-.24.6-.54.87-.81-1.16.12-.8-.13-.89-.26l-1.54.24c.53.3-1.45.71-1.46,1.03l1.04-.05c-.08.03-.21.09-.22.09-.29,0-.57-.02-.85-.03-1.4-.05-.6-.49-.92-.73-1.61-.22-3.21-.13-4.8.52,2.77-.03,3.61.43,4.38.9,1.28.14.8.48-.35.86-1.11.36-2.34.6-3.88.57-1.81-.04-3.51-.03-3.8.69,4.03-.29,8.08-1.09,12.07-1.32,1.58-.08,2.37-.41,3.14-.74Z"/><path d="m150.39,69.24c-2.24,0-1.52-.33-.22-.43,3.96-.29,1.34-.49.59-.72-.67.36-1.91.17-2.87.25.11.22-.6.56-1.19.49-2.91-.34-4.94.41-7.47.42-1.34.31-1.42.07-1.53-.15-1.37-.26-1.71,0-2.1.24.12.01.33.01.35.03.57.55,2.48.55,4.56.45,2.86-.13,4.87.45,7.84.23.07,0,.38.29.58.45l3.12.19,1.66.13.17-.5c-3.53.07-3.75-.46-3.49-1.08Z"/><path d="m107.52,70.77c-1.65-.05-1.91-.43-2.96-.63-.67-.13-1.34-.26-.92-.46.32-.15,1.03-.1,1.68-.08.78.02,1.76.1,2.28.02.99-.13,2.54-.39,2.36-.55-.42-.4-1.84-.05-2.82-.12-.6-.04-1.15-.15-1.72-.23-.74-.31-1.43-.07-2.15-.09-1.2.08-2.49.21-2.15.53,1.31,1.24-2.41,1.03-5.74.9.39.28,2.13.29,2.24.61,2.74-.02,5.32.47,8.09.54,1.99.04,1.57-.23,1.8-.45Z"/><path d="m139.23,69.24c2.53,0,4.56-.76,7.47-.42.59.07,1.31-.26,1.19-.49-5.06.15-10.09.31-15.14.46-2.53.08-5.2,0-7.71-.13-1.52-.07-2.75-.02-4.08.07-.45.68,1.32.83,3.63.62,3.59-.33,6.84-.45,9.84.17.39-.07.79-.13,1.18-.2.39-.23.73-.49,2.1-.24l1.53.15Z"/><path d="m202.07,64.63c2.08-.43,4.16-.86,6.23-1.35v-.34c-.86.2-1.62.3-1.53.07.09-.22.95-.41,1.71-.6.25-.22.23-.4.21-.57-1.51.45-2.89.73-3.17.34-2.01.23-4.06.63-6.14,1.09-.07.15,0,.28-.22.44-.93.7-1.68,1.33,2.43.63,1.32-.22.53.14.46.29Z"/><path d="m40.69,10.11l-3.07,1.06.04.17.19.02-.18-.02c-1.37.22-1.71,1.64-3.68,1.17-.25.12-.75.34-.71.36.74.44-2.03,1.51-2.83,2.27.23.14.89-.12,1.49-.32.7-.55,2-.85,3.12-1.23.86-.15,1.19-.99,1.77-.64.62.38,1.91-.36,2.73-.44,1.25-.7,1.91-.67,2.45-.47.82-.12,1.85-.01,2.24-.61l.28-.36c-.97.11-1.51-.06-2.83.27-.93.12-.64-.17-.76-.32-4.2.79.39-.76-.24-.92Z"/><path d="m185.46,6.63c-1.31-.35-2.86-.67-4.1-1.05-2.57-.72-7.51-1.04-9.65-.64,1.96.14,4.13.34,2.72.6,3.74.45,7.46.9,11.03,1.09Z"/><path d="m40.93,11.03c-4.2.79.39-.76-.24-.92.8-.35,1.64-.67,1.36-.9,2.36-.64,4.79-1.7,7.1-1.49.11.01.15.04.12.09-3.03,1.2-3.1,2.05-2.76,2.8l-1.98.47c-.97.11-1.51-.06-2.83.27.04-.2.02-.39-.76-.32Zm2.33-1.18c-.52.04-.96.3-.78.36.36.12-1.12.89,1.25.3,1.16-.37,1.04-.48.14-.42-.19-.09-.22-.27-.62-.24Z"/><path d="m3.34,43.04c-.49-.66-.61-1.36-1.34-2-.83-.71-1.06-1.3-1.17-1.68-.05-.43.06-.71.07-1.07-.2-.6-.14-1.45-.28-1.86-.14-.83-.27-1.68-.16-2.46.1-.78.36-1.48.79-1.96.72-.78.32.58.4,1.54.03.85.09,1.54.1,2.21-.02.34,0,.66.02.99.02.33-.03.68.03,1.01.05.86.59,2.22,1.11,2.7.82.87,1.35,1.48,1.74,2.1.4.6.67,1.17,1.08,1.75-.81-.35-1.61-.79-2.41-1.26Zm-2.38-9.25s-.01.31,0,.33c.04.04.09,0,.14,0,0-.23.01-.45.04-.67-.06.11-.13.21-.19.35Z"/><path d="m213.4,10.53c1.58.38,3.16.91,4.72,1.38,1.57.44,3.07.94,4.52,1.23.74.14,1.67.61,2.32.97,1.19.62,2.04.89,2.79.98-1.2-.69-2.6-1.33-4.07-1.88-1.49-.5-3.03-1.02-4.53-1.44-1.95-.53-3.79-1.22-5.68-1.75-.94-.28-1.88-.56-2.84-.81-.97-.22-1.95-.42-2.96-.58-.59-.09-1.29-.26-1.58-.21.75.44,2.09.82,3.71,1.02,1.94.25,2.79.67,3.6,1.1Z"/><path d="m218.44,18.42c.09-.3.84-.24,2.2.19,1.4.44,1.52.7,1.59.99.07.27.54.65,1.8,1.05,1.21.39,1.49.22,1.95.18.76-.06-.16-.71.08-.97.28-.3-1.56-.76-1.98-.77-1.16-.05-2.59-.32-3.97-1.09-1.37-.76-1.75-1.36-.26-1.31-.46-.28-.95-.52-1.51-.52.21.84-2.84.19-4.14.38.75.4,1.43.8,1.4,1.07l2.85.81Z"/><path d="m16.19,51.9c1.65,1.4,3.5,2.54,5.7,2.83.67.03,1.87.43,3.02.76,1.14.35,2.23.62,2.67.42l-.05-.65c-1.22-.65-2.36-1.11-3.51-1.3-.21.03.2.37-.59.11l-.1-.4c-.19-.13-.42-.24-.67-.34-2.99-1.23-2.8-.12-5.57-1.33-.63-.26-.84-.24-.9-.1Z"/><path d="m232.87,55.8c-.24.03-.5.03-.75.05-1.45.48-3.36,1.36-3.39.76-.02-.19-3.09.36-4.67,1.72-.5.42-1.39.82-2.65,1.22.07.02.11.05.14.09l.09.47c3.81-1.04,7.62-2.18,11.23-4.3Z"/><path d="m246.52,26.28c-.48.03.76,1.32,1.62,2.52.94,1.27,1.79,2.79,2.3,4.4.51,1.61.59,3.27.5,4.69-.17,1.97-.71,3.26-1.7,4.86-.65.93-.08.56,0,.72,1.19-1.66,2.16-3.59,2.45-5.77.31-2.17-.21-4.48-1.34-6.38-.93-1.67-2.34-3.56-3.82-5.03Z"/><path d="m16.53,20.59l-1.27.74c-.57.6-1.36,1.37-1.03,1.57,3.47-1.79,7.06-4.07,10.95-5.11,1.55-.43,1.76-1.24,3.06-1.93-.17-.25-1.69.11-2,.3-1.05.71-2.09,1.1-3.13,1.44-1.02.37-2.06.66-3.04,1.17-.8,1.6-2.44,1.01-3.54,1.8Z"/><path d="m37.18,60.25c.39.11.77.22,1.16.34.82-.18.79-.18-.39-.64-.52-.2-1.2-.5-1.28-.64-.3-.47,1.82.24,2.23.09l-1.51-.8-2.46-.87c-1.76-.29-3.49-.68-5.24-1.04,3.25,1.67,3.15,1.82-1.18,1.01,1.45,1.5,3,1.39,4.49,1.47,1.39.35,2.32-.36,4.17,1.09Z"/><path d="m95.38,70.06c3.34.13,7.05.34,5.74-.9-.34-.32.95-.45,2.15-.53-.34-.62-2.05-.22-3.05-.35-.76.51-1.27,1.12-5.06.39-.62-.12-1.64-.16-1.92.03-.29.21.49.33,1.32.42h.36s-.32.01-.32.01l.78.92Z"/><path d="m49.14,7.72c.11.01.15.04.12.09.4.2,2.81-.46,2.44.08.73.35,1.62.1,2.5-.42.77-.46,1.42-.91,2.76-.57.93-.28,1.67.08,2.51-.33,1.06-.53.09-.68-.91-.81-3.21.49-6.72.59-9.42,1.95Z"/><path d="m96.91,1.33c1.12.32,3.83.12,4.63.74.38.28,3.76-.48,5.61-.82.31-.06.5-.15.75-.23V.49c-2.9-.29-5.54.52-8.39.5l-2.09.2c-.27.03-.44.08-.51.14Z"/><path d="m198.84,8.75c-.51-.26-2.53-.8-4.7-1.3-2.19-.46-4.54-.86-5.69-.96-2.29-.18-.88.29-1.36.43,1.45.13,2.91.23,4.25.63.29.09,1.28.27,1.35.27,1.89-.13,4.14.65,6.16.93Z"/><path d="m209.16,12.92c-1-.55-3.31-.43-3.66-1.31-1.01-.64-2.16-.75-3.29-.91-1.97.03-4.8-.99-7.03-1.22.36.42.22.78,2.6,1.03,1.44.15,3.44.75,5.18,1.16l1.02.03.27.19-1.24-.19c1.39.51-3.3.48,2.06,1.35.26-.23-.32-.82,1.76-.29.49-.12,2.33.54,2.33.15Z"/><path d="m245.05,25.41c.08-.02-.08-.28.46.19-3.68-3.39-8.01-6.38-12.14-7.65l.03.2c.96.46,1.89.99,2.81,1.52,3.08,1.64,6.06,3.49,8.85,5.74Z"/><path d="m195.18,9.49c2.23.22,5.07,1.25,7.03,1.22-.09-.66-1.93-.64-2.79-.91-3.33-1.06-6.87-1.72-10.33-2.29.47,1.21,3.96,1.33,6.09,1.99Z"/><path d="m138.36,1.26c2.49.21,5.33.13,6.94.99.61.34,1.54.26,1.72-.02.13-.2-.05-.46,1.01-.49.39-.57-1.72-.58-2.83-.7-2.5-.22-5.04-.36-7.56-.53.19.25-.46.49.72.75Z"/><path d="m125.54,2.85c-1.73-.22-3.54-.41-4.78.11-.81.33-1.28.13-2,0-2.42-.5-4.82-.45-7.06.16,2.26.47,5.06.31,7.79.28,2.01-.04,4.01-.13,6.02-.13l.03-.41Z"/><path d="m69.48,64.83c-.6.28-2.37.54,1.62.83,2.08.13,2.98.59,4,1.02.51.22.11.59,1.78.64,1.34.04,1.07-.3.85-.59-.21-.28-.31-.55-.45-.83-2.6-.33-5.21-.68-7.8-1.07Z"/><path d="m70.5,4.11c-.19.57-.16,1.02,3.21.24l2.35-.66,1.51-.21c.62-.26,1.52-.34,2.39-.43l.86-.5c.03-.37-1.02-.14-1.85,0-2.83.48-5.65,1.01-8.46,1.57Z"/><path d="m37.39,58.6l1.51.8c2.19.56,4.59.74,6.29,1.84.44.28,1.9.36,1.82.28-.32-.34,2.72.28.65-.5-3.45-.65-6.96-2.25-10.28-2.42Z"/><path d="m71.52,5.74c-.84.28-2.08.78-2.45.79-1.49.03-.13-.34.35-.59.32-.17-.14-.21-.73-.12-.68.1-1.4.27-1.39.44.02.26.27.48.42.72,2.92.07,6.14-.5,9.35-1l.04-.46s-.06-.09-.05-.14l-.86.1c-2.05.48-4,.87-4.68.26Z"/><path d="m17.09,52c2.77,1.21,2.58.1,5.57,1.33-.66-.55-1.33-1.07-2.11-1.51-.77-.46-1.65-.82-2.78-1.01-.27,0-.51.1-.82-.05-4.65-2.4-1.48-.23-.54.65.17-.05.13-.25.94.22l-.3.17c.02.07.03.14.03.2Z"/><path d="m86.5,69.56c-.66-.4-1.98-.92-3.4-.73-2.73.38-7.41-1.17-9.3-.37,4.29.63,8.52.99,12.69,1.11Z"/><path d="m152.05,70.69l-3.12-.19-1.63-.09c.02.43-1.32.44-2.63.46-3.08-.32-5.95-.18-8.65.38.26.18,1.1.34,1.67.28,4.64-.54,9.88,0,14.37-.84Z"/><path d="m194.62,12.1c0-.64-.42-1.23-3.52-1.35-2.3-.08-4.92-1.54-7.2-1.32,3.06,1.47,7.05,1.84,10.71,2.67Z"/><path d="m247.15,42.91c.96-.53,2.5-2.07,3.29-4.34-.27.18-.44-.06-.56-.52-.07-.23-.09-.5-.16-.82-.08-.31-.16-.66-.23-1.01-.19,1.45-.35,2.72-.83,4.04.06.86-.84,1.81-1.5,2.65Z"/><path d="m161.39,2.89c2.68,1.09,8.42,1.83,12,1.57-3.35-.88-6.84-1.08-10.27-1.5-.14.37-.96.12-1.73-.07Z"/><path d="m4.67,27.46c.67-.69,1.12-1.17.95-1.34-.29.2-.59.4-.88.62l-.31.03c.21-.17.41-.35.63-.5l.64-.26c.76-.64,1.06-1.02,1-1.23-1.22.9-2.42,1.72-3.54,2.79-1.11,1.06-2.19,2.42-2.7,4.32.36-.06.82-.81,1.47-1.63.63-.83,1.46-1.72,2.21-2.29.17-.17.34-.35.52-.51Z"/><path d="m125.02,70.93c-3.66-.04-7.3-.08-10.42.4,1.23.33,2.38.48,4.22.19,2.33-.37,5.22.02,7.79-.14l-.15-.39c-.47-.02-.96-.04-1.44-.06Z"/><path d="m129.5,2.03c3.27.01,5.06-.65,4.03-1.55l-3.21-.15c.48.42-1.9.58-1.44,1,.93.21.53.46.62.7Z"/><path d="m29.69,56.68c1.75.36,3.48.75,5.24,1.04-2.46-1.07-4.87-2.14-7.41-2.47l.05.65,2.12.77Z"/><path d="m46.51,10.61l-1.98.47-.28.36c2.91-.57,5.91-.91,8.51-1.95-.93-.15-2.74.09-3.15-.24-.55.18-1.01.34-1.47.5-.07.27-.09.54-1.62.88Z"/><path d="m125.54,2.85l-.03.41,3.95.08c.82-.42.78-.86.04-1.31-1.93-.08-1.47-.41-1.5-.7-.3-.15-.74-.3-1.49-.24-.88.07-.36.25-.2.38.6.5,1.73,1.03-.76,1.38Z"/><path d="m14.29,20.01l-.14-.34c-2.41,1.37-5.28,2.52-6.75,4.58.54.03.42.91,2.55-1.38.93-1,3.17-1.76,4.34-2.86Z"/><path d="m153.88,70.31l-.17.5c3.11.18,5.89-.32,8.73-.69l-1.51-.26c-1.59-.06-1.64-.39-1.88-.68-.21,0-.43,0-.65.02.03.67-.41,1.25-4.51,1.11Z"/><path d="m188.45,65.31c2.07-.31,4.15-.63,6.22-.94,1.34-.2,2.34-.38,2.42-.74-1.41.01-2.87.24-4.33.51-1.47.25-2.95.53-4.39.67.02.17.03.33.09.5Z"/><path d="m160.92,69.86l1.51.26c2.29.06,4.69.31,6.48-.61-2.06-.06-4.21-.04-6.5.04-1.08.03-1.46.09-1.5.31Z"/><path d="m62.58,5.29c.1.04.13.1.29.12,1.17.11-3.08,1.23.2.82,2.36-.3,3.8-1.06,3.5-1.64-1.4.12-2.91.05-4,.7Z"/><path d="m213.4,10.53c-.81-.43-1.66-.84-3.6-1.1-1.61-.2-2.96-.58-3.71-1.02-.56-.11-1.27-.25-1.49-.18.43.21.86.42,1.29.65,2.41.65,4.85,1.05,7.24,1.72l.28-.08Z"/><path d="m174.44,5.54c1.41-.27-.76-.46-2.72-.6-1.44-.16-2.36-.15-2.98-.05l.02.27c1.86.09,3.72.16,5.68.38Z"/><path d="m241.2,50.64c-.59.44-1.22.86-1.85,1.27-.66.39-1.32.79-1.98,1.18-1.29.82-2.6,1.49-3.67,2.29,1.4-.51,2.73-1.17,3.96-2.01l1.87-1.22,1.82-1.26-.15-.25Z"/><path d="m57.59,62.93c.18,1.38,3.68.93,5.58,1.32-.08-.27.53-.55-1.83-.76-1.18-.1-2.5-.36-3.75-.56Z"/><path d="m66.14,7.26c-.32-.22-.09-.69-1.86-.4-2.39.39-.86.8-2.21,1.24,1.99.19,2.72-.56,4.07-.84Z"/><path d="m153.19,4.53l3.56-.03c-2.21-.3-2.31-.74-2.58-1.17-.16-.24-.67-.5-1.73-.59-.4-.03-1.03,0-1.16.08-.37.21.49.34,1.16.49,2.42.56-2.04.57.06,1.11.22.04.45.07.7.1Z"/><path d="m170.27,3.89c1.59,0,3.67.84,4.95.34-.64-.44-.64-.45-4.95-.34Z"/><path d="m88.14,3.78c2.1-.05,2,.4,2.5.71,1.63-.14,3.44.02,4.73-.53l-.07-.21c-1.18,0-3.22.32-3.44-.02-.49-.75-2.13-.26-3.72.05Z"/><path d="m83.41,5.26c.95-.67-1.47-.56-2.64-.71l-1.19.5-.88.85c1.63-.1,3.01-.71,4.71-.63Z"/><path d="m86.67,67.43l.05-.5c-1.46-.28-2.93-.57-4.57-.56-.01.27-.62.57,1.6.76,1.67.14,2.42.36,2.32.73.74-.06.53-.26.61-.42Z"/><path d="m249.49,36.22c.07.35.15.7.23,1.01.07.31.09.59.16.82.12.45.29.69.56.52-.02-.43.04-.89-.01-1.36-.07-.47-.08-.93-.19-1.34-.19-.82-.52-1.42-.78-1.52-.05.11-.11.23-.17.34.11.5.18,1.02.2,1.53Z"/><path d="m138.36,1.26c-1.18-.25-.53-.5-.72-.75l-2.39-.17c-.41.63-.48,1.2,3.11,1.5v-.59Z"/><path d="m126.47,70.99l.15.39c1.55.02,2.87-.11,4-.35-1-1.19-2.59-.55-4.15-.04Z"/><path d="m217.4,13.24c.03-.07.2-.11.08-.22-.36-.32,1.93,0-.42-.74-2.09-.65-.38.24-.74.32-.1.02-.8-.16-1.22-.25.47.3.87.59,2.3.9Z"/><path d="m247.15,42.91c.66-.84,1.56-1.79,1.5-2.65-.22.49-.55.94-.83,1.4-.33.53-.66.95-.92,1.11-.6.82-1.24,1.63-1.96,2.37l.58-.35.85-.92.78-.96Z"/><path d="m120.29,3.01s-.06.05,0,.07c.28.1-.9.32,1.05.26.66-.02,1.9-.29.63-.38l-1.67.06Z"/><path d="m184.56,66.31c.01-.33,1.99-.73,1.46-1.03l-2.41.32c.32.24-.48.67.95.72Z"/><path d="m215.6,17.62c.03-.27-.65-.66-1.4-1.07-3.41-.86.6.67-.38.59.13.09.32.17.57.22l1.01.29c.22.04.28.04.2-.04Z"/><path d="m95.79,1.6l1.58-.3c-.73-.35-2.66-.07-3.88-.16l-.06.36.09.36c.43-.01.76-.04,1.08-.07.11-.21.65-.2,1.18-.19Z"/><path d="m97.63,70.68c-.11-.33-1.85-.34-2.35-.59l-1.28.06,1,.31c.83.17,1.71.25,2.62.23Z"/><path d="m42.01,12.05c-.53-.21-1.2-.23-2.45.47.69,0,1.06.39,2.45-.47Z"/><path d="m220.67,59.96l-2.37.89c0,.44,1.32-.06,2.5-.46l-.13-.42Z"/><path d="m35.05,13.59c-1.12.38-2.42.68-3.12,1.23,1.73-.18,2.52-.66,3.12-1.23Z"/><path d="m111.87,3.34c.79.03,1.7-.01,2.72-.14-.88.02-1.4-.19-2.72.14Z"/><path d="m245.52,44.79l-.58.35c-.36.36-.74.7-1.13,1.04l.15.07c.64-.33,1.17-.82,1.56-1.46Z"/><path d="m106.33,3.19s.02-.07.1-.1c-.11.03-.23.05-.37.06-.07.13-.14.27-.21.41l.47-.37Z"/><path d="m246.91,42.76c.26-.16.59-.58.92-1.11-.18-.13-.48.24-.92,1.11Z"/><path d="m132.56,3.49c-.08-.14.07-.35-.81-.35-.64,0-.53.15-.06.26l.87.09Z"/><path d="m93.43,1.49l.06-.36c-.82.12-1.38.28-1.62.49l1.56-.13Z"/><path d="m97.42,1.19l2.09-.2c-.89-.18-1.6-.12-2.09.2Z"/><path d="m188.41,65.3l-.05-.5c-.53.04-.79.12-.8.24.09.13-.27.38.85.26Z"/><path d="m23.32,53.66l.1.4c.79.26.38-.08.59-.11-.22-.12-.45-.22-.69-.29Z"/><path d="m161.39,2.89c.78.19,1.6.44,1.73.07-.71-.15-1.42-.29-1.73-.07Z"/><path d="m213.12,10.61c-2.39-.67-4.83-1.06-7.24-1.72-.84-.19-1.24-.17-1.33-.08l-.18.32c1.34.28,1.75.51,1.24.57-.24.03-.58.07.3.3.51.13,1.65.31,1.64.27-.05-.53,3.49.26,4.92.38.29.02.43-.03.64-.04Z"/><path d="m161.87,3.52c-1.68-.2-3.35-.43-5.01-.27,2.83.16.5.43,2.48.64l3.17.38c-.39-.26-2.07-.57-.64-.75Z"/><path d="m242.86,25.3c.89,1.02,2.18,2.14,3.37,3.45.07-.14.38-.08.17-.48-.3-.54,1.48,1.09.03-.54-1.06-1.08-1-.71-1.01-.47,0,.11-.18.31-.71-.53-1.01-1.55-1.19-.78-1.84-1.43Z"/><path d="m189.53,6.07c-.79-.14-1.58-.3-2.37-.42-.32.09-2.38-.05-.6.3,1.88.36,2.55.28,2.96.11Z"/><path d="m195.17,7.02c.7.05,1.35.04.94-.11-1.23-.44-2.73-.4-4.13-.62.08.34,1.93.46,3.18.72Z"/><path d="m236.19,19.68c-.92-.54-1.85-1.06-2.81-1.52.04.29.91.8,2.01,1.43.86.47.67.16.79.09Z"/><path d="m244.16,46.61c-.15.15-.32.31-.5.46l.1.26c.73-.62,1.63-1.39,1.76-1.87-.44.4-.89.78-1.36,1.15Z"/><path d="m186.54,5.59c-.3-.29-1.43-.35-2.57-.41l.05.23c.85.06,1.68.12,2.52.19Z"/><path d="m201.52,9.04c.16.05.32.1.48.16l.47-.02c-.2-.05-.43-.13-.59-.15-.15-.02-.23,0-.35.01Z"/><path d="m240.9,23.86c.5.35,1,.71,1.48,1.08-.14-.2-.2-.4-.44-.59-.71-.55-.79-.42-1.04-.49Z"/><path d="m195.82,7.45l-.73-.34c-1.22-.03-.29.15.73.34Z"/><path d="m184.02,5.4c-.43-.04-1.05-.14-1.06-.04,0,.02.3.1.46.11.73.08.53-.02.6-.08Z"/><path d="m204.38,9.13l.18-.32c-1.03-.09-1.14,0-.18.32Z"/><path d="m225.16,15.34c0-.05-.11-.1-.21-.15,0,.05.11.1.21.15Z"/><path d="m242.49,48.33l.06.14c.41-.37.81-.75,1.2-1.13-.4.33-.82.67-1.26.99Z"/><path d="m198.22,7.74l.17.07c-.06-.02-.13-.05-.17-.07Z"/><path d="m183.57,5.14l-.22-.15c-.7-.01-.56.04.22.15Z"/><path d="m139.83,2.13c-.99.24-2.5.4-1.43.93.46.23,1.02.44,2.01.53,1.47.13,1.65-.13,1.86-.36-.74-.35-1.1-.68-.43-.98.31-.14.25-.3-.62-.38-1.05-.1-1.22.09-1.39.26Z"/><path d="m206.83,12.77c-2.08-.53-1.5.06-1.76.29.75.24,1.86.41,1.87.8,0,.2.68.61,1.38.74.71.14,1.41.11,1.7,0,.49-.18-.88-.43-1.27-.63-.77-.4-1.29-.8-1.92-1.2Z"/><path d="m166.47,5.73c1.3,1.11,4,1.17,6.54,1.37-1.75-.79-3.8-1.36-6.54-1.37Z"/><path d="m164.5,5.53l.82.06c.14-.03.24-.09.44-.1,1.55-.01,2.6-.13,1.09-.77-.39-.17-1.5-.45-1.34-.23.39.5-4.62.02-1.01,1.03Z"/><path d="m146.99,3.95l2.28.29c.05-.26,1.99-.45-.03-.76-1.5-.23-2.57,0-2.25.47Z"/><path d="m157.83,4.64l2.47.81c-.03-.23,1.36-.3.22-.64-.91-.27-1.92-.29-2.7-.18Z"/><path d="m201.84,12.4c-.43-.19-.68-.34-.94-.41-.28-.07-.58-.07-.87-.09.22.12.42.27.68.34.27.08.61.09,1.14.16Z"/><path d="m162.01,5.68l2.21.15c.11-.01.22-.02.33-.04l-.08-.2c-.99-.06-2.43-.34-2.46.09Z"/><path d="m144.97,3.78c.64.21,1.28.45,1.97.17l-1.97-.17Z"/><path d="m196.94,12.14c-.21-.1-.32-.1-.44-.1.08.04.15.07.44.1Z"/><path d="m56.41,65.24c.88.13,1.89.36,2.45.23.48-.46,3.08.36,4.19.21.42-.06,1.69.68,2.34.39.4-.18-.89-.6-1.67-.91-.8-.32-1.44-.48-2.61-.47-1.48.02-3.18-.13-4.37-.92-.71-.46-2.14-.5-2.98-.54-1.46-.06-.34.3.46.62,1.26.5,2.52.99,2.19,1.38Z"/><path d="m86.67,67.43c-.08.16.13.36-.61.42-.2.19-2.16.05-1.22.44.33.14,1.09.33,1.6.37,1.71.12.61-.32,1-.46.22-.08.38-.18.7-.24.63-.11,2.42-.05,1.77-.33-.75-.32-2.07-.03-3.23-.2Z"/><path d="m80.82,67.53c-.17-.05-.32-.1-.48-.14l-.48.11c.2.04.43.11.6.11.15,0,.24-.05.36-.08Z"/><path d="m41.58,61.79l-.77-.2c.25.06.52.13.77.2Z"/><path d="m132.22,3.5c-.16-.07-.21-.16-1.28-.07.15.07.66.08,1.28.07Z"/><path d="m9.12,47.82c.45.33.89.67,1.35.98.14-.17.02-.66.49-.45.82.38,1.55.7,1.45.32-.05-.19-.49-.4-.68-.46-.73-.18-2.6-1.63-2.38-.87.07.26-.14.32-.23.48Z"/><path d="m5.75,44.31c.25.48.1.68.97,1.49.12.12.52.28.52.2,0-.36-.88-1.05-1.5-1.69Z"/><path d="m4.67,27.46c-.18.16-.35.34-.52.51.1.1.1.3.78-.36l-.26-.16Z"/><path d="m17.05,51.79l.3-.17c-.82-.47-.77-.26-.94-.22l.64.39Z"/><path d="m13.39,50.28l-.12-.35c-.73-.3-.07.15.12.35Z"/><path d="m159.34,3.89c-1.98-.21.35-.48-2.48-.64-1.03-.05-1.76-.02-2.3.05-1.15.14-2.55.26-.44.59,3.31.53,3.49-.02,5.22,0Z"/><path d="m145.93,3.58c1.15,0,2.98.28,2.89-.03-.03-.1-.48-.3-1.79-.29-1.26.02-3.12.1-3.19.21-.14.21,1.5.04,2.09.11Z"/><path d="m147.21,2.89c-.9-.13-1.45-.27-2.11-.29-.83-.03-2.3-.04-2.36.13-.03.09.5.2,1.38.2.94.01,1.86-.02,3.09-.03Z"/><path d="m136.23,3.42c-.11-.06-.11-.14-.95-.13-.26,0-.4.08-.6.12h1.55Z"/><path d="m150.37,3.4c-.26.02-.1.03.06.04l-.06-.04Z"/><path d="m137.75,3.51h-.36s-.36,0-.36,0c.24.05.48.05.73,0Z"/><path d="m109.59,2.6c-.18-.3-1.01-.37-2.16-.23-1.47.18-.88.47-1.01.72,1.43-.01,1.47-.6,3.17-.49Z"/><path d="m128,1.33c.03.28-.43.62,1.53.7-.11-.24.28-.49-.64-.7h-.89Z"/><path d="m109.6,2.6l.18.07c-.06-.02-.13-.04-.18-.07Z"/><path d="m125.02,70.93l1.46.06c-.26-.13.49-.38-.68-.39-.66,0-.83.18-.78.32Z"/><path d="m144.66,70.87c1.31-.02,2.66-.04,2.63-.46-.97.13-2.06.22-2.63.46Z"/><path d="m88.14,3.78c1.6-.31,3.24-.8,3.72-.05.22.34,2.26.01,3.44.02-.67-.36-1.21-.75-2.05-1.08-1.79-.73-4.96-.49-7.47.45-.31.12-.46.28-.85.37-1.45.33-1.48.95,0,1.02q.62.03.92-.4c.14-.2.07-.45,1.18-.56.34-.03.74.15,1.11.23Z"/><path d="m76.2,5.48l.86-.1c1.44-.82-.99-1.09-1-1.7l-2.35.66c-.15.59,3.04.46,2.48,1.13Z"/><path d="m79.96,3.04c-.87.1-1.77.17-2.39.43.03.02.01.07.09.07,1.09.06.97.69,2.27.42,1.91-.39-.29-.57.03-.93Z"/><path d="m84.27,3.12c.22-.08.49-.15.46-.18-.08-.09-.26-.17-.41-.25-.1.06-.28.13-.28.18,0,.08.13.15.22.24Z"/><path d="m95.79,1.6c-.53,0-1.08-.02-1.18.19.51,0,1.22.1,1.18-.19Z"/><path d="m93.53,1.85l-.32.12c.14-.04.28-.07.32-.12Z"/><path d="m29.69,56.68l-2.12-.77c-.44.21-1.53-.06-2.67-.42-1.15-.33-2.35-.73-3.02-.76.02.26-.41.43,1.29,1.14-.59-.61.71-.25,1.53-.03,1,.27,1.35.7,1.65,1.01l2.16.84c4.33.81,4.42.66,1.18-1.01Z"/><path d="m26.35,56.85c-.3-.31-.65-.74-1.65-1.01-.82-.22-2.12-.58-1.53.03,1.17.46,2.56,1.2,3.18.98Z"/><path d="m37.18,60.25c-1.85-1.45-2.78-.74-4.17-1.09,1.57.82,2.89,1,4.17,1.09Z"/><path d="m41.59,61.79l-.8-.21c.23.22.49.3.8.21Z"/><path d="m46.51,10.61c1.53-.34,1.55-.61,1.62-.88-.31-.3.51-.39,1.39-.47.41-.45-.02-.82,2.18-1.37.37-.54-2.04.12-2.44-.08-3.03,1.19-3.1,2.05-2.75,2.8Z"/><path d="m71.5,5.73l.99-.2c-.58-.08-.7.1-.99.2Z"/><path d="m208.75,62.36c-.34.23-.41.4-.48.58,1.57-.38,3.15-.71,4.7-1.14,1.4-.38,1.38-.6,1.38-.81-.84.19-1.85.52-2.39.44l-3.21.93Z"/><path d="m212.97,61.8c-1.55.43-3.12.76-4.69,1.14v.34c1.83-.39,3.66-.74,5.47-1.2l-.78-.28Z"/><path d="m230.01,55.16c-.09-.12-.23-.25-1.05.08-.37.15-.79.49-1.2.72.6-.02,1.44-.45,2.25-.79Z"/><path d="m211.96,61.43c.55.08,1.55-.25,2.39-.44-.53-.09-1.48.19-2.39.44Z"/><path d="m221.4,59.55c-.02-.09.66-.41-.04-.27-.07.02-.29.1-.34.14-.41.25-.13.24.38.13Z"/><path d="m16.53,20.59c1.11-.79,2.74-.2,3.54-1.8-.12-.77-2.59.84-3.83,1.37.1.14.19.29.28.44Z"/><path d="m31.66,13.55l-.3.14c.09-.04.19-.09.3-.14Z"/><path d="m16.24,20.15l-.19.02c.07,0,.13-.02.19-.02Z"/><path d="m242.49,48.33c.43-.32.85-.66,1.27-1l-.1-.26c-.88.69-1.27,1.08-1.17,1.26Z"/><path d="m153.88,70.31c4.1.14,4.55-.44,4.51-1.11l-.92-.68c-3.05-.32-4.73.49-7.09.72-.26.61-.04,1.15,3.49,1.08Z"/><path d="m192.24,65.37l.35-.03c-.02-.07-.16-.06-.35.03Z"/><path d="m164.22,5.83l.55.14-.23-.17c-.11.01-.22.02-.33.03Z"/><path d="m184.53,66.32c.28,0,.56.02.85.03,0,0,.14-.06.22-.09-.35.02-.7.04-1.07.06Z"/><path d="m139.23,69.24l-1.53-.15c.11.22.19.46,1.53.15Z"/><path d="m208.28,62.94l.2-.53c-.77.18-1.62.37-1.71.6-.09.23.67.13,1.51-.07Z"/><path d="m41.69,11.35c.04-.2.02-.39-.76-.32.13.15-.17.44.76.32Z"/><path d="m37.67,11.34l.18.02c-.06,0-.13-.02-.18-.02Z"/><path d="m43.88,10.09c-.19-.09-.22-.27-.62-.24-.52.04-.96.3-.78.36.36.12-1.12.89,1.26.3.05-.14.09-.28.14-.42Z"/><path d="m43.88,10.09c-.05.14-.09.28-.14.42,1.16-.37,1.04-.48.14-.42Z"/><path d="m1.14,33.44c-.06.11-.13.21-.19.35,0,.02-.01.31,0,.33.04.04.09,0,.14,0,0-.23.01-.45.04-.67Z"/><path d="m94.6,69.14l.32-.02c-.12,0-.24,0-.32.02Z"/><path d="m203.01,11.71l1.24.19-.27-.19c-.34-.01-.68-.02-.97,0Z"/><path d="m5.07,26.27c-.22.15-.42.33-.63.5l.31-.03c.11-.16.21-.32.33-.48Z"/><path d="m4.75,26.74c.28-.22.58-.42.88-.62-.12-.03-.34.06-.55.15-.11.15-.22.32-.33.48Z"/><path d="m49.52,9.27c-.88.08-1.7.17-1.39.47l1.39-.47Z"/>
                  </g>
                </mask>
              </defs>
              <path class="mask" d="m229.34,21.07c-7.44-2.85-17.39-6.26-29.57-9.39-6.16-1.58-23.4-5.8-46.73-8.12-42.4-4.22-75.17.76-91.39,3.34-18.62,2.96-35.75,7.17-49.57,15.93-5.03,3.19-10.22,6.91-10.45,12.04-.32,7.16,9.05,12.89,12.77,15.16,28.61,17.5,90.5,19.4,94.7,19.51,16.22.41,97.58,2.04,129.58-18.43,3.77-2.41,11.99-7.82,11.7-15.03-.19-4.71-3.98-9.48-12.92-14.92-16.09-9.79-40.58-15.83-87.59-17.74-14.31-.58-34.47-.18-58.64,1.99"
                    mask="url(#path-mask)" stroke="black" stroke-width="2" fill="none"
                    stroke-dasharray="679.0827026367188" stroke-dashoffset="679.0827026367188">
              </path>
            </svg>
        