
            <svg xmlns="http://www.w3.org/2000/svg">
              <defs>
                <mask id="path-mask">
                  <g fill="white">
                    <path d="m167.17,6.26c-2.04-.2-.8.28-1.23.42-.48-.11-.95-.23-1.44-.32-1.16-.35-2.54-.66-3.64-1.03-2.27-.8-6.7-1.01-8.61-.68-1.28-.15-2.1-.14-2.66-.03-1.7-.3-4.27-.19-5.57-.62-.35-.26-1.84-.56-.56-.74.92-.11,1.92-.15,3.38.12,1.2.23,2.3.3,3,.14l1.14.09c1.42-.03,3.26.87,4.42.35.44.05,1.25.16,1.27.16.58-.22,1.52-.2,2.6-.09,1.07.14,2.27.37,3.39.54v.16c-.61-.01-.49.04.2.15.11,0,.23.02.35.04l.04.23c-.38-.04-.94-.13-.95-.04,0,.02.27.1.41.11.65.08.48-.03.55-.07.74.07,1.49.1,2.24.19.18.02.36.05.55.08-.29.08-2.12-.1-.54.29,1.67.41,2.27.3,2.65.14.35-.16,1.08-.09,2.2.22.06.33,1.7.53,2.82.78l-.07.09c-1.09-.03-.27.15.64.34,1.19.45,1.37.14,2.14.31l.15.08-.17-.08c.11-.17-.3-.5,1.92.07,1.38.36,2.59.56,2.42.21l1.38.32,1.11.68c-.75-.19-1.09-.2-1.18-.11-.92-.13-1.02-.03-.18.31,1.18.33,1.54.54,1.07.6-.22.03-.52.07.25.3.45.13,1.46.32,1.46.28,0-.55,3.09.41,4.4.49.27.02.39-.02.58-.03l.26-.06c2.77.92,5.55,2.16,8.1,2.9.64.19,1.44.7,2,1.04,1.01.64,1.73.99,2.4,1.12l1.22.71,1.18.77c.78.53,1.59,1.01,2.33,1.59v.19c0,.28.68.87,1.63,1.49.73.49.59.19.72.13,2.56,1.78,5.07,3.72,7.27,6.27l-.05-.13c.08,0-.02-.26.4.22.19.08.33.05.82.74-.46-.02.46,1.31,1.02,2.51.62,1.28,1.12,2.76,1.35,4.24.22,1.48.2,2.93.1,4.18-.15,1.73-.52,2.89-1.29,4.38-.47.9.01.52.11.67-1.59,2.93-3.85,5.33-6.23,7.45l-.18-.23c.36-.54.14-.56-.22-.5-.62.09-.09-.52,1.12-1.65.32-.38.63-.75.93-1.15.59-.64,1.32-1.41,1.36-1.86-.34.41-.73.77-1.09,1.16-.24.06-.98.63-.26-.33.53-.36.97-.83,1.22-1.46.24-.29.45-.59.66-.9.21-.31.43-.61.6-.93.9-.52,2.07-2.03,2.81-4.04.06-1.53-.25-3.64-.77-3.85-.15-1.91-.82-3.82-2-5.42.1-.12.38-.03.25-.42-.18-.52,1.2,1.15.14-.49-.77-1.12-.81-.75-.86-.54-.03.1-.23.27-.55-.57-.64-1.54-.95-.84-1.81-1.88-.1-.2-.12-.39-.31-.59-.54-.59-.65-.46-.87-.54-1.88-1.77-3.98-3.16-6.14-4.86-1.11-.92-1.98-.97-2.47-.98-3.57-2.21-7.36-4.08-11.29-5.61.04-.07.19-.1.09-.22-.29-.33,1.73.09-.31-.75-1.84-.66-.37.23-.7.3-.09.02-.71-.17-1.09-.26-3.44-1-7.14-2.07-10.73-3.02-1.06-.24-2.83-.34-3.59-.89-.87-.59-7.13-2.2-9.21-2.35Zm12.02,2.82h.42c-.18-.07-.38-.14-.52-.16-.14-.02-.21,0-.32,0,.14.05.28.1.42.16Zm20.04,6.58c.07.04.17.09.25.14.01-.05-.09-.11-.25-.14Z"/><path d="m151.73,3.99c4.77.61,9.35,1.92,13.98,3.05.37,1.2,3.5,1.34,5.38,2,.3.41.15.77,2.28,1.03,1.29.16,3.05.76,4.64,1.22,1.22.52-3.01.45,1.77,1.35.66.25,1.65.42,1.63.81-.01.19.57.61,1.19.75.63.14,1.26.12,1.54.02.46-.17-.76-.43-1.1-.64-.67-.4-1.11-.8-1.65-1.2.45-.11,2.06.56,2.09.17.83.87,4.62,1.43,4.36,2.15-.13.35-1.7.25-2.46.47-.79.22-3.54-.58-5.69-1.33-.97-.34-1.85-.79-2.82-1.11-.94-.3-2.01-.96-2.79-.86-.83.1,1.82.72,1.23.95-1.58-.17-3.18-.5-4.87-1.2.03-.64-.31-1.22-3.08-1.36-2.06-.09-4.34-1.54-6.39-1.33l-.74-.14-1.35-.49c-2.2-1.16-4.73-1.76-7.59-1.68-1.54-.79-3.37-1.35-5.82-1.36l-1.02-.14c.13-.03.22-.1.4-.1,1.39-.03,2.33-.14,1-.78-.35-.17-1.34-.43-1.19-.22.33.5-4.14.03-.96,1.11-.89-.05-2.16-.33-2.2.09l-1.52-.21c-.02-.23,1.23-.3.21-.64-.81-.26-1.71-.29-2.41-.16l-.96-.13c-1.97-.29-2.05-.73-2.29-1.16-.14-.25-.59-.47-1.54-.56-.35-.03-.92,0-1.04.08-.34.21.43.33,1.03.48,2.16.54-1.83.58.03,1.11-.51.34-1.73.2-2.87.1v-.27c.05-.26,1.79-.46-.01-.76-1.33-.22-2.3.01-2.06.48-.58-.06-1.17-.09-1.76-.13l-2.41-.53c-.66-.34-.99-.67-.38-.98.28-.14.22-.3-.55-.37-.94-.09-1.09.1-1.25.27-.44-.09-.87-.18-1.31-.25v-.58c2.23.16,4.77.09,6.21.93.55.32,1.38.22,1.54-.06.11-.2-.04-.46.91-.49,1.95-.08,3.94-.06,5.93.1,1.99.19,4,.5,6.01.96,2.38,1.07,7.51,1.78,10.73,1.53Zm24.37,7.56c-.25-.07-.52-.07-.78-.1.19.12.36.27.59.35.24.08.54.09,1.02.17-.38-.19-.59-.35-.82-.42Z"/><path d="m61.7,69.28c1.85.14,2.65.58,3.55,1.02.45.22.09.59,1.58.63,1.2.03.97-.3.78-.59-.18-.28-.26-.55-.38-.83,1.44.17,2.89.31,4.34.45-.02.27-.56.57,1.41.75,1.49.14,2.15.36,2.06.72-.19.2-1.93.05-1.1.45.29.14.97.33,1.43.36,1.53.11.55-.32.9-.47.19-.08.35-.18.63-.24.56-.11,2.17-.06,1.59-.34-.67-.32-1.85-.02-2.89-.18l.05-.5c4.13.29,8.11.77,12.05,1.28-.68.52-1.14,1.13-4.52.42-.56-.12-1.47-.15-1.72.04-.26.21.43.33,1.21.43.23.3.46.61.6.93l-1.14.06.9.3c-2.74.14-5.27-.16-7.6-.85-.59-.4-1.75-.92-3.03-.72-2.45.39-6.61-1.15-8.32-.36-2.26-.6-4.72-.78-7.07-1.24.2-.6-1.59-.98-3.12-1.1-1.37-.09-2.16-.3-3.12-.67.46-.45,2.75.39,3.75.23.38-.05,1.48.69,2.08.4.37-.18-.77-.59-1.46-.91-.7-.33-1.27-.48-2.33-.47-1.33,0-2.85-.15-3.88-.93-.61-.48-1.89-.52-2.64-.56-1.31-.07-.32.3.38.62,1.11.5,2.22,1.01,1.9,1.39h-.78c-.58-.5-1.52-.82-2.58-1.09-1.05-.29-2.23-.53-3.29-.83-.82-.25-2.79-.52-2.05-1.02.17-.1-2.46-.58-2.58-.44-.26.31-.94.08-1.87-.2l-.68-.22c-1.31-.28-2.91-.53-2.16-1.03.76-.17.73-.17-.3-.63-.45-.22-1.04-.53-1.1-.67-.23-.49,1.61.3,2,.13,1.93.57,4.07.8,5.53,1.91.37.29,1.68.37,1.62.3-.27-.34,2.43.29.62-.5.12-.14.34-.12,1.11.12,2.51.74,5.01,1.62,7.69,1.87.1,1.37,3.26.95,4.94,1.34,1.98.37,3.53.15,5.62.6-.55.28-2.14.54,1.42.83Zm8.23,1.71l-.43.11c.18.04.38.1.54.11.13,0,.21-.05.32-.08-.15-.05-.29-.1-.43-.14Z"/><path d="m98.77,3.5c-2.53.31-5.63.46-7.96.87-2.08-.02-5.23.5-7.68.73-.7.07-.96.11-1.46.19-1.52.26-1.85.69-.16.55,1.78-.15,2.34-.13,2.81-.07.48.07,1.37.11,3.04-.27.18-.04.88-.14,1.18-.16,2.91-.2,5.71-.55,8.59-.75,6.61-.48,13.24-.85,19.87-.99l-.02-.18c-.56.01-1.02,0-1.14-.06-.99.06-2.16.14-2.98.16-1.96.07-4.37.32-5.93.18-.93-.12-7.7.11-9.06.33-.23.03-.46.08-.42.1.34.16-.94.17-1.52.18-.7.01-1.13-.02-1.74-.02-.35,0-1.41.14-1.32.07.06-.04.67-.14,1.5-.23,1.73-.2,4.2-.35,4.4-.62Z"/><path d="m.17,35.81c-.37,2.01-.12,4.49.71,5.57-.13-.54-.08-1.27-.17-1.64-.11-.36-.17-.72-.2-1.08-.04-.36-.08-.71-.07-1.05.03-.34.07-.67.15-.97.09-.3.23-.57.39-.81.56-.76.44.48.62,1.32.11.75.27,1.37.22,1.97.08.59-.03,1.19.01,1.8-.02.78.38,2,.79,2.48,1.39,1.61,1.55,2.54,2.12,3.7.48.64,1.21,1.33,1.15,1.67-.01.07-.36-.11-.46-.22-.7-.8-.5-1.01-.68-1.45-.7-.39-1.42-.81-2.09-1.32.23,1.74,1.93,3.07,3.34,4.24.15-.22.38-.27,1.37.59.1-.14.31-.2.28-.44-.09-.74,1.44.74,2.08.94.18.06.55.29.56.47.04.38-.59.03-1.3-.37-.4-.23-.36.25-.52.4.69.29,2.05,1.84,2.52,1.56-.17-.21-.71-.67-.08-.35l.06.34c.75.7-.02.7,1.02,1.44.38.25.89.17,1.34.24.07-.14.28-.16.82.12,0-.06,0-.13,0-.2l-.54-.39c-.38-.42-1.23-1.2-1.48-1.57-.24-.38.06-.24,2.06.96.26.16.5.06.74.08-1.65-1.08-3.55-2.14-4.58-3.7-.12-.18-2.44-1.57-3.63-2.89-.49-.21-.92-.65-1.58-1.48-.96-1.22-1.71-2.65-2.18-4.12-.48-1.47-.66-2.93-.8-4.41.31-.56.47-1.32.67-2.12.23-.78.52-1.59.98-2.04.88-.88,1.5-1.58,2.34-2.88,1.18-1.76,2.11-2.15,2.51-1.76.84-.77,1.74-1.5,2.65-2.23-.34-.18.28-.94.71-1.56-1.57.58-3.21,1.27-.7-1.16.33-.31,0-.26-.4-.05-.93,1.1-2.83,1.99-3.55,3.01-1.59,2.35-1.61,1.52-2.14,1.53l-.54.57c.09.19-.12.58-.7,1.26.14.25-.19.76-.67,1.48l.27.11c-.5.68-.55.49-.66.42-.56.64-1.18,1.54-1.61,2.37-.45.81-.79,1.52-1.13,1.6Z"/><path d="m138.99,2.99c-.92-.04-1.57,0-2.06.07-1.03.15-2.28.28-.4.59,2.96.49,3.12-.02,4.67-.01l2.83.36c1.3.43,3.87.32,5.57.62v.26c-1.62-.17-3.54-.06-4.75-.35-1.53-.38-3.14-.41-4.96-.48-3.57-.11-7.14-.22-10.73-.33-3.58-.09-7.17-.13-10.76-.14-.13-.1-.12-.2.77-.28h1.38s.71.07.71.07c.22.04.43.05.65,0,4.54-.05,5.18-.12,3.45-.54-.05-.01-.07-.03-.1-.04-4.02.23-5.1-.52-9.03-.24-1.63.12-3.8.22-4.25-.04,1.07-.06,2.27-.35,2.63-.24.69.21,1.81.05,2.9.01,3.91-.13,7.73-.12,11.76-.09,5.74.08,11.62.5,17.48.84,1.16.08,3.02.14,3.09.47-.7.16-1.8.09-3-.14-1.45-.27-2.45-.23-3.38-.12-1.5-.19-3-.4-4.48-.26Zm-7.18.34c-.03-.11-.43-.3-1.6-.28-1.13.01-2.78.13-2.85.23-.13.21,1.34.03,1.87.09,1.03,0,2.66.26,2.58-.05Zm-3.32-.93c-.74-.02-2.06-.04-2.11.14-.03.09.45.19,1.24.2.84,0,1.67-.04,2.76-.05-.8-.14-1.3-.27-1.89-.29Zm4.33.8l.43.03-.05-.04c-.32-.01-.34,0-.38.01Z"/><path d="m113.2.21c-1.79.15-3.18.07-5.19-.11-2.93-.24-6.58.03-9.89.25-1.66.08-3.45-.02-4.98.39l.02.53c.38.22,1.34.55.23.71-3.28.46-2.77,1.42-5,2.02,1.21-.11,2.26-.31,3.2-.57.12-.01.23-.03.31-.07.11-.25-.43-.53.88-.73,1.03-.15,1.77-.09,1.94.2l.17.06-.16-.07c-1.54-.08-1.55.5-2.81.54-.08.03-.11.07-.09.1,1.48.47,3.21-.18,4.79-.19,1.99-.64,4.13-.7,6.3-.28.65.13,1.07.33,1.79-.01,1.1-.52,2.72-.38,4.26-.2,2.22-.37,1.2-.89.66-1.38-.14-.13-.61-.31.18-.39.67-.06,1.06.08,1.34.22h.79c-.41-.42,1.71-.6,1.28-1.02Z"/><path d="m114.86,74.23c1.42.25,2.89.46,4.83.14,2.41-.59,4.97-.77,7.73-.5.51-.26,1.48-.36,2.35-.5l1.46.05c-.18-.15-.47-.44-.53-.44-2.65.26-4.46-.28-7.01-.12-1.86.13-3.56.15-4.08-.39-.02-.02-.2-.02-.31-.02-.35.07-.7.15-1.05.22.33.62-1.55.61-2.98.6-4.71-.05-9.44.32-14.21-.03-2.88-.22-3.04-.07-1.65-.73.42-.2.69-.42,1.04-.63-2.74.1-5.88-.27-8.1.31.51.08,1,.18,1.54.21.87.06,2.14-.3,2.52.1.15.16-1.23.43-2.11.58-.47.08-1.35.01-2.04,0-.58,0-1.21-.05-1.5.09-.37.19.23.33.82.45.94.19,1.18.57,2.65.6,1.87.43,3.89.65,6.34.49,2.79-.51,6.04-.51,9.32-.52-.05-.15.1-.33.69-.33,1.04,0,.38.25.61.38,1.37-.53,2.79-1.19,3.7-.01Z"/><path d="m120.55,3.3l.71.08h.32s.32,0,.32,0c4.54-.05,5.18-.12,3.45-.54-.05-.01-.07-.03-.1-.04-4.02.23-5.1-.52-9.03-.24-1.63.12-3.8.22-4.25-.04-1.18.18-3.3.23-4.18.46,1.14.08.04.36-.56.39-1.74.08-.69-.15-.94-.24-.05-.02,0-.05,0-.07-1.34-.1-3.6.26-5.09.27-.91.14-1.72.19-2.43.17-.21.27-2.68.42-4.41.63-.83.09-1.44.19-1.5.23-.1.07.97-.07,1.32-.07.61,0,1.04.03,1.74.02.58,0,1.86-.02,1.52-.18-.04-.02.2-.07.42-.1,1.36-.21,8.13-.44,9.06-.33,1.56.14,3.96-.11,5.93-.18.82-.02,1.99-.1,2.97-.16.95-.1,1,0,1.15.06l.02.18,1.41-.02c-.13-.1-.12-.2.77-.27.17-.04.3-.12.53-.13.75-.03.75.06.85.12Z"/><path d="m82.06,4.46l-.07-.21c-.62-.35-1.12-.73-1.88-1.03-1.63-.65-4.47-.39-6.66.64-.27.13-.4.28-.74.38-1.28.36-1.27.97.05,1.02q.55.02.8-.41c.12-.2.04-.44,1.03-.59.3-.05.66.12,1,.19,1.87-.11,1.81.35,2.27.65-2.08.47-4.23.77-6.42.95.81-.7-1.34-.51-2.4-.64l-1.04.52-2.18.55s-.06-.09-.05-.14c1.24-.86-.95-1.06-.99-1.67l1.34-.25s.02.07.09.07c.98.03.9.65,2.05.36,1.69-.42-.3-.56-.02-.92l.74-.52c3.27-.46,6.6-1.11,9.85-1.19l1.39-.18.1.36-.28.13.38-.12.87-.11c.45-.01,1.1.08,1.05-.21l1.4-.33-.19.08-.22-.03c1.01.3,3.43,0,4.17.62.35.3,3.34-.59,4.99-.94.27-.06.44-.16.66-.24.38.22,1.34.55.23.71-3.28.46-2.77,1.42-5,2.02-2.17.39-4.27.6-6.32.47Zm-9.56-.75c-.08-.09-.25-.16-.38-.24-.09.06-.25.14-.24.19,0,.08.12.15.21.24.2-.09.43-.16.41-.19Z"/><path d="m7.35,50.61c-.99-.86-1.22-.81-1.37-.59.29.3.57.62.87.91l.73.63c.86.83,1.73,1.62,2.65,2.35.46.36.93.72,1.42,1.05.51.33,1.04.65,1.59.95.89.53,2.17,1.24,3.12,2.04,1.06.84,3.28,2.06,3.7,2.17,4.31,1.46,8.19,3.31,12.18,4.98,1.47.58,2.49.66,3.73,1.01,6.31,1.9,12.73,3.34,19.18,4.53.69.12,1.39.32,1.83.18.2-.6-1.59-.98-3.12-1.1-1.37-.09-2.16-.3-3.12-.67-.51.13-1.4-.1-2.19-.24h-.78c-.58-.5-1.52-.82-2.58-1.09-1.05-.29-2.23-.53-3.29-.83-.82-.25-2.79-.52-2.05-1.02.17-.1-2.46-.58-2.58-.44-.26.31-.94.08-1.87-.2-.27.09-.51,0-.69-.22-1.3-.27-2.89-.52-2.14-1.02-.34-.11-.68-.23-1.02-.36-1.15-.13-2.34-.27-3.68-1.17-1.36-.08-2.77-.05-3.94-1.55-.63-.28-1.26-.57-1.88-.89-.58.18-1.8-.53-2.8-1.05-1.47-.76-1.07-.89-1.05-1.15-.99-.16-1.86-.58-2.67-1.09-.82-.5-1.53-1.17-2.19-1.89-.44-.07-.96.02-1.34-.24-1.04-.73-.26-.73-1.02-1.44-.45.29-1.81-1.26-2.5-1.55-.38-.32-.75-.66-1.11-1.01Z"/><path d="m52.79,6.63c-1.06-.11-2.19-.06-3.59.6.9.1,1.78.22.87.78-.72.44-1.41.1-2.23.41-1.23-.3-1.78.19-2.43.66-.74.55-1.53.83-2.21.51-1.94.62-1.51.98-1.77,1.41.4.3,2,.02,2.85.12,1.39.02,3.13-.3,4.74-.85,1.22-.39,2.28-.66,3.5-.82,1.17-.47-.22-.84,1.89-1.29,1.57-.33,1.39.14,1.69.35l1.39-.32c-.15-.23-.39-.45-.42-.71-.02-.17.61-.36,1.22-.47.53-.1.94-.08.66.1-.41.27-1.6.67-.27.6.33-.02,1.41-.56,2.15-.86.23-.11.33-.29.85-.22l-.87.22c.67.62,2.38.14,4.19-.37.46-.69-2.39-.48-2.29-1.06-2.97.88-3.02.42-2.89-.15-1.2.33-2.27.15-3.49.58.3.57-.94,1.36-3.04,1.72-2.91.51.82-.73-.23-.81-.15-.01-.18-.07-.27-.11Z"/><path d="m191.67,62.42l1.1-.4c.69-.3,1.36-.67,2.04-1.01l.76-.34s-.07-.06-.12-.09c-.47.14-.73.16-.39-.1.05-.04.23-.13.3-.14.63-.16.04.18.07.26,1.1-.42,1.86-.86,2.25-1.32.63-.72,1.63-1.21,2.47-1.54.83-.35,1.52-.49,1.54-.4.1.56,1.78-.28,2.99-.92l2.03-1.6c.64-.57,1.29-1.15,1.95-1.73.59-.48,1.75-1.36,1.25-1.33-.4.04-1.56,1.11-1.94,1.27-.57.26-1.14.81-1.69,1.29-.57.44-1.11.8-1.57.72-.82.45-1.76,1.05-2.03.85-.69.37-1.42.79-1.95.87-.76.4-1.55.75-2.34,1.09-.79.34-1.57.7-2.37,1-3.16,1.17-5.67,2.84-9.02,3.66l.11.35c.8-.28,1.63-.58,2.12-.5.02.21.06.42-1.17.84l.73.26c.97-.29,1.92-.68,2.88-1.01Z"/><path d="m10.9,23.45c.41-.2.73-.25.4.05-2.51,2.43-.87,1.74.7,1.16l1.04-.81-.32-.41-.18.04.17-.03c1.08-.55,3.04-2.32,3.29-1.56.83-.54,1.71-.92,2.59-1.32.9-.38,1.77-.86,2.63-1.59.25-.21,1.57-.65,1.76-.42.62-.3,1.27-.56,1.9-.83.62-.8,2.99-1.98,2.27-2.38-.03-.02.39-.26.6-.39,1.83.37,1.97-1.05,3.18-1.35-.03-.05-.05-.11-.07-.16-3.73.41-4.19,1.62-5.11,2.65l-.23.15.25-.16c-.69.22-1.92.72-1.99.65-.89-1.03-2.94.87-4.76,1.99-1.94,1.14-3.96,2.73-5.91,3.38-.9.42-1.03-.02-2.39,1.03l.18.32Z"/><path d="m121.71,1.86c-.44-.09-.87-.18-1.31-.25-3.22-.24-3.15-.83-2.79-1.46-1.06-.26-1.02.1-1.54.15.93.9-.68,1.53-3.6,1.62.66.45.71.89-.02,1.32.73.46,1.35.15,1.99,0-.42-.1-.53-.25.05-.26.79,0,.65.21.73.35,1.67.69,4.17.36,5.97.42,2.94.17,6.13.63,8.95.43v-.27s-2.03-.28-2.03-.28c-.67.27-1.24.07-1.81-.13l-2.41-.53c-.19.24-.36.5-1.67.38-.88-.09-1.38-.3-1.79-.5-.96-.49.39-.72,1.28-.95Z"/><path d="m204.72,55.03c.46.08,1-.28,1.57-.72.55-.48,1.11-1.03,1.69-1.29.38-.16,1.53-1.24,1.94-1.27.5-.03-.66.84-1.25,1.33-.65.58-1.3,1.16-1.95,1.73l-2.04,1.61.67-.1.72-.44c1.74-1.64,4.27-3.17,6.18-5,.36-.54.14-.56-.22-.5-.62.09-.09-.52,1.12-1.65l-.08-.13c-.13-.17.18-.55.88-1.27.14-.15.28-.3.39-.45-.24.06-.98.63-.26-.33l-.15-.05c-2.71,2.85-6.06,5.12-9.28,7.46.73-.05,1.95-.39.05,1.09Z"/><path d="m149.08,72.08c.84-.11.85.61,2.28-.09,1.07-.54,2.2-.12,3.3-.42.23-.71,1.75-.78,3.37-.78,1.38.01,2.47-.26,3.44-.66,1.01-.41,1.43-.75.27-.86-1.49.22-2.89.18-4.47.56-4.91,1.14-5.48,1.19-9.54,1.11-.1,0-.29,0-.31.01-1.97.87-5.17.25-7.2,1,.23.29.28.62,1.71.65.03-.23.36-.28,1.33-.34,2.04-.13,3.97-.18,5.81-.17Z"/><path d="m204.72,55.03c1.9-1.48.68-1.13-.05-1.09-.71.34-1.32.57-1.97.91-.66.33-1.37.72-2.25,1.44-.62.54-1.73,1.05-2.96,1.57-1.21.55-2.6,1.01-3.79,1.52-1.59.71-3.28,1.3-4.95,1.94-1.71.55-3.41,1.13-5.14,1.49-1.51.33-2.49.65-2.21,1.03.28.38,1.48.01,2.81-.45.94-.27,1.86-.59,2.78-.89,3.35-.82,5.86-2.49,9.02-3.66.8-.31,1.58-.66,2.37-1,.79-.34,1.58-.69,2.34-1.09.33-.26.68-.6,1-.76.7-.34.85-.23.95-.11.28.2,1.21-.4,2.03-.85Z"/><path d="m25.75,16.09c.92-1.03,1.38-2.25,5.11-2.65l2.65-1.2c.69-.37,1.41-.74,1.13-.95-1.45-.02-3.02.92-4.42,1.45-2.67,1.02-5.32,2.12-7.92,3.35-2.59,1.25-5.11,2.68-7.49,4.34-1.25.92-1.33,1.18-1.71,1.68,1.95-.65,3.98-2.24,5.91-3.38,1.82-1.12,3.87-3.02,4.76-1.99.07.08,1.3-.42,1.97-.64Z"/><path d="m100.43,71.89c-.34.21-.62.43-1.04.63-1.38.66-1.22.51,1.65.73,4.77.35,9.51-.02,14.21.03,1.43.01,3.31.03,2.98-.6-2.69-.59-5.59-.42-8.79-.05-2.06.24-3.65.11-3.25-.58-2.08.29-3.8-.2-5.77-.17Z"/><path d="m140.23,71.95c2.03-.75,5.23-.13,7.2-1,.02-.01.22-.02.31-.01,4.06.08,4.62.03,9.54-1.11,1.58-.37,2.98-.33,4.47-.56-.72-.45-1.49-.86-3.97-.79l-1.74.6c-.61.46-1.63.55-3.08.68-1.76.19-3.89.41-5.41.58-3.08.25-5.77,1.1-8.74.97l.84.66c.2-.02.39-.03.58-.03Z"/><path d="m175.84,65.55c-.78.71-1.41,1.38,2.23.55,1.17-.28.49.11.43.27-1.7.78-3.74,1.02-5.06,1.12-3.37.15-4.01.75-4.6,1.5l-.67.16c-2.21.11-5.77.61-2.57-.88.58-.27.51-.56.73-.83,1.84-.33,3.67-.74,5.51-1.09,1.19-.22,2.07-.46,2.12-.81l2.04-.42c-.05.15.02.28-.16.44Zm-5.74,1.74c-.08,0-.2.02-.36.12.1-.01.21-.03.36-.12Z"/><path d="m183.49,12.55c.83.87,4.62,1.43,4.36,2.15-.13.35-1.7.25-2.46.47-.79.22-3.54-.58-5.69-1.33-.97-.34-1.85-.79-2.82-1.11-.94-.3-2.01-.96-2.79-.86-.83.1,1.82.72,1.23.95,3.01,1.57,7.21,2.08,10.29,3.78.97.53.92-.05,1.78.17.87.09-2.63-1.47.39-.58,1.18-.18,3.89.51,3.77-.32-.6-.28-1.39-.6-1.75-.84-.9-.63-.55-1.51-3.39-1.63-.01,0-.22-.14-.5-.3-.28-.17-.62-.37-.9-.49-1.61-.74-3.23-1.22-4.73-1.39.25.87,2.34.77,3.21,1.33Z"/><path d="m191.46,18.09c.8.33,1.35.64,1.7.98.88.85,2.75,1.87,4.41,2.23,1.48.32,2.91.44,3.27.04.67-.74-.91-1.84-4.87-3.32-.97-.35-2.06-1.08-3.1-1.63-1.35-.08-1.05.53.13,1.29,1.19.78,2.46,1.06,3.51,1.13.39.02,2.01.5,1.73.79-.25.26.53.9-.16.95-.42.03-.69.19-1.75-.21-1.1-.41-1.5-.79-1.54-1.06-.04-.28-.12-.54-1.35-.99-1.19-.45-1.86-.52-1.97-.22Z"/><path d="m138.81,71.31c2.97.12,5.66-.73,8.74-.97,1.52-.16,3.65-.39,5.41-.58,1.45-.13,2.47-.22,3.08-.68-2.58-.53-6.18.41-9.23.7-4.55.42-9.17,1.21-13.65.95l-.35.26c.68.22,3.02.39-.51.73-1.16.11-1.79.45.21.42,2.1-.27,3.58-1.11,6.31-.84Z"/><path d="m8.65,28.45c-.39-.4-1.32,0-2.51,1.76-.84,1.31-1.46,2-2.34,2.88-.46.45-.75,1.26-.98,2.04-.2.8-.37,1.56-.67,2.12.14,1.48.33,2.94.8,4.41.46,1.46,1.21,2.89,2.18,4.12.66.83,1.1,1.26,1.58,1.48-1.52-2.43-3.24-4.94-3.69-7.95-.33-1.9.08-3.93,1.32-5.69,1.04-1.53,2.56-3.56,4.3-5.16Z"/><path d="m141.5,5.24l-1.52-.21-2.2-.8c-.32-.04-.64-.09-.97-.13-1.07.02-2.12,0-3.19.05,1.75,1.13,5.45,1.27,8.08,1.66,5.22.79,10.52,1.45,15.75,2.39l1.43.1c-2.2-1.16-4.73-1.76-7.59-1.68-2.27-.21-4.68-.24-5.81-1.36l-1.02-.14-.73-.06c0,.14.01.21.03.27l.2.17-.49-.14-1.97-.14Z"/><path d="m218.61,35.34c-.15-1.91-.82-3.82-2-5.42-.85-1.32-1.8-2.5-2.46-3.52-.75-.77-1.14-1.15-1.55-1.52-1.88-1.77-3.98-3.16-6.14-4.86-1.11-.92-1.98-.97-2.47-.98,3.24,2.09,6.38,4.41,9.07,7.11,2.66,2.67,4.96,5.85,5.35,9.48.08-.1.14-.19.21-.29Z"/><path d="m178.5,66.37c-1.7.78-3.74,1.02-5.06,1.12-3.37.15-4.01.75-4.6,1.5,5.41-.9,10.86-1.9,16-3.96,1.25-.47,2.13-.44,3.15-.81,1.4-.51,3.63-1.14,3.68-1.79-.96.33-1.9.72-2.88,1.01-1.6.47-3.19.98-4.81,1.38-1.82.57-3.65,1.07-5.49,1.55Z"/><path d="m175.87,7.57c.11-.17-.3-.5,1.92.07,1.38.36,2.59.56,2.42.21-5.67-1.59-11.47-2.77-17.55-3.29v.16s.2.15.2.15c.11,0,.23.02.35.04,1.02.06,2.04.12,2.29.42.18.02.36.05.55.08l2.11.43c.35-.16,1.08-.09,2.2.22,1.24.26,2.58.25,3.67.67.36.14-.23.16-.85.1l-.07.09.64.34c1.19.45,1.37.14,2.12.3Z"/><path d="m168.18,69.15c-2.21.11-5.77.61-2.57-.88.58-.27.51-.56.73-.83-1.03.14-.72-.11-.81-.24l-1.36.29c.49.29-1.26.73-1.25,1.06l.93-.07c-.07.03-.18.09-.19.09-.26,0-.51,0-.77,0-1.26-.03-.56-.47-.86-.71-1.45-.19-2.87-.03-4.26.63,2.48-.07,3.25.34,3.97.79,1.16.12.74.46-.27.86-.97.4-2.07.67-3.44.66-1.62,0-3.15.07-3.37.78,3.6-.39,7.19-1.26,10.75-1.6,1.41-.15,2.1-.47,2.77-.82Z"/><path d="m132.5,72.15c-2,.03-1.36-.31-.21-.42,3.53-.34,1.19-.5.51-.73-.58.38-1.7.19-2.55.3.11.22-.52.57-1.05.5-2.61-.3-4.4.49-6.66.53-1.19.33-1.27.09-1.37-.13-1.23-.24-1.52.02-1.87.26.11,0,.3,0,.31.02.52.54,2.23.52,4.08.39,2.55-.17,4.37.38,7.01.12.07,0,.35.28.53.44l2.8.15,1.49.09.14-.5c-3.15.14-3.37-.4-3.15-1.01Z"/><path d="m94.21,74.22c-1.47-.03-1.71-.41-2.65-.6-.6-.12-1.2-.25-.82-.45.29-.15.92-.1,1.5-.09.7.02,1.57.08,2.04,0,.88-.14,2.26-.41,2.11-.58-.38-.39-1.64-.03-2.52-.1-.53-.04-1.03-.14-1.54-.21-.66-.3-1.28-.06-1.92-.07-1.07.09-2.22.23-1.92.54,1.17,1.22-2.16,1.05-5.14.94.35.28,1.9.28,2,.6,2.46-.03,4.76.43,7.25.48,1.78.03,1.4-.24,1.61-.46Z"/><path d="m122.53,72.33c2.26-.04,4.06-.83,6.66-.53.53.06,1.16-.28,1.05-.5-4.51.22-9,.45-13.51.67-2.26.12-4.64.06-6.89-.04-1.36-.05-2.46.02-3.65.12-.4.68,1.19.82,3.25.58,3.2-.37,6.1-.54,8.79.05.35-.07.7-.15,1.05-.22.34-.24.64-.5,1.87-.26l1.37.13Z"/><path d="m178.5,66.37c1.84-.48,3.67-.99,5.49-1.55l-.04-.34c-.75.21-1.42.35-1.36.12.06-.23.81-.45,1.49-.65.21-.23.17-.4.14-.57-1.33.47-2.53.83-2.81.45-1.79.28-3.59.75-5.41,1.27-.05.15.02.28-.16.44-.78.71-1.41,1.38,2.23.55,1.17-.28.49.11.43.27Z"/><path d="m33.51,12.24l-2.65,1.2.06.17h.17s-.16,0-.16,0c-1.21.29-1.35,1.71-3.18,1.35-.21.14-.63.38-.6.39.72.4-1.65,1.58-2.27,2.38.22.12.78-.17,1.29-.4.56-.56,1.7-.94,2.66-1.37.76-.18.95-1.04,1.52-.72.6.33,1.68-.45,2.41-.56,1.04-.75,1.65-.75,2.15-.57.72-.16,1.66-.1,1.94-.71l.22-.37c-.86.15-1.36,0-2.51.4-.83.14-.59-.14-.72-.29-3.7.99.27-.77-.32-.9Z"/><path d="m164.51,6.35c-1.16-.35-2.54-.66-3.64-1.03-2.27-.8-6.7-1.01-8.61-.68,1.75.16,3.68.36,2.42.62,1.67.21,3.33.42,4.97.63,1.64.22,3.27.38,4.86.45Z"/><path d="m33.83,13.13c-3.7.99.27-.77-.32-.9.69-.37,1.41-.74,1.13-.95,2.06-.75,4.16-1.9,6.25-1.77.1,0,.14.04.12.09-2.62,1.3-2.6,2.16-2.22,2.88l-1.73.54c-.86.15-1.36,0-2.51.4.02-.2-.02-.39-.72-.29Zm1.98-1.27c-.46.06-.83.35-.66.4.34.1-.92.93,1.16.24,1.01-.42.89-.51.09-.43-.18-.08-.23-.26-.58-.21Z"/><path d="m2.64,45.79c-.39-.61-.38-1.29-1-1.9-.69-.69-.88-1.21-.93-1.56-.01-.38.13-.63.17-.95-.13-.54-.08-1.27-.17-1.64-.11-.36-.17-.72-.2-1.08-.04-.36-.08-.71-.07-1.05.03-.34.07-.67.15-.97.09-.3.23-.57.39-.81.56-.76.44.48.62,1.32.11.75.27,1.37.22,1.97.08.59-.03,1.19.01,1.8-.02.78.38,2,.79,2.48,1.39,1.61,1.55,2.54,2.12,3.7-.7-.39-1.42-.81-2.09-1.32Zm-1.73-8.36s0,.27.02.29c.05.04.09,0,.14-.02v-.59c-.06.1-.11.19-.16.32Z"/><path d="m189.35,10.64c2.77.92,5.55,2.16,8.1,2.9.64.19,1.44.7,2,1.04,1.01.64,1.73.99,2.4,1.12-.5-.38-1.04-.74-1.62-1.1-.58-.34-1.21-.63-1.85-.94-.64-.29-1.29-.6-1.96-.86-.67-.25-1.34-.5-2-.74-1.69-.66-3.33-1.3-4.97-1.94-1.66-.59-3.33-1.15-5.13-1.52-.52-.1-1.15-.26-1.41-.22.65.44,1.84.8,3.27,1.09,1.72.33,2.48.69,3.17,1.16Z"/><path d="m191.46,18.09c.11-.3.78-.23,1.97.22,1.23.46,1.31.71,1.35.99.04.27.44.65,1.54,1.06,1.06.4,1.33.24,1.75.21.69-.05-.09-.7.16-.95.28-.29-1.34-.77-1.73-.79-1.05-.07-2.32-.35-3.51-1.13-1.18-.76-1.48-1.37-.13-1.29-.4-.29-.82-.53-1.32-.53.13.84-2.58.15-3.77.32.65.41,1.23.81,1.18,1.07l2.51.83Z"/><path d="m13.32,54.83c.66.72,1.37,1.39,2.19,1.89.81.51,1.68.93,2.67,1.09.62.02,1.65.5,2.66.85,1.01.35,1.97.66,2.38.49l.02-.65c-1.01-.71-2.04-1.12-3.04-1.38-.19.02.14.38-.54.08l-.05-.39c-.16-.13-.35-.24-.57-.34-1.3-.62-1.9-.73-2.52-.76-.6-.06-1.24-.04-2.39-.75-.54-.28-.75-.26-.82-.12Z"/><path d="m205.36,56.3l-.67.1c-1.22.63-2.9,1.47-2.99.92-.02-.09-.71.05-1.54.4-.84.33-1.84.82-2.47,1.54-.39.46-1.15.9-2.25,1.32.06.02.1.05.14.08l.13.46c1.69-.56,3.31-1.27,4.97-1.97,1.6-.82,3.23-1.65,4.69-2.85Z"/><path d="m217.39,27.67c-.46-.02.46,1.31,1.02,2.51.62,1.28,1.12,2.76,1.35,4.24.22,1.48.2,2.93.1,4.18-.15,1.73-.52,2.89-1.29,4.38-.47.9.01.52.11.67.92-1.58,1.63-3.31,1.91-5.2.28-1.87.15-3.88-.59-5.73-.58-1.6-1.49-3.54-2.61-5.06Z"/><path d="m13.04,23.85l-1.04.81c-.42.61-1.05,1.37-.7,1.56,2.91-1.92,5.82-4.36,9.19-5.61,1.33-.52,1.42-1.3,2.49-2.06-.19-.23-1.51.21-1.76.42-.86.73-1.73,1.21-2.63,1.59-.88.41-1.76.78-2.59,1.32-.49,1.59-2.05,1.15-2.96,1.97Z"/><path d="m31.53,63.63c.34.13.68.25,1.02.36.76-.17.73-.17-.3-.63-.45-.22-1.04-.53-1.1-.67-.23-.49,1.61.3,2,.13-.44-.26-.87-.54-1.3-.83l-2.15-.89c-1.54-.37-3.1-.71-4.63-1.16,1.37.91,2.06,1.33,1.9,1.47-.16.14-1.15-.02-3.07-.5,1.17,1.5,2.58,1.47,3.94,1.55,1.22.41,2.13-.3,3.68,1.17Z"/><path d="m83.34,73.61c2.98.12,6.31.29,5.14-.94-.3-.32.85-.46,1.92-.54-.3-.61-1.83-.2-2.73-.33-.68.52-1.14,1.13-4.52.42-.56-.12-1.47-.15-1.72.04-.26.21.43.33,1.17.42h.32s-.29.01-.29.01l.69.91Z"/><path d="m40.9,9.51c.1,0,.14.04.12.09.38.17,2.49-.56,2.2,0,.68.32,1.46.04,2.21-.51.65-.47,1.2-.96,2.43-.66.81-.31,1.51.03,2.23-.41.91-.56.03-.68-.87-.78-2.85.58-6,.82-8.31,2.28Z"/><path d="m83.32,1.82c1.01.3,3.43,0,4.17.62.35.3,3.34-.59,4.99-.94.27-.06.44-.16.66-.24l-.02-.53c-2.6-.26-4.94.67-7.49.66l-1.86.27c-.24.03-.39.08-.45.15Z"/><path d="m176.38,8.6c-.87-.59-7.13-2.2-9.21-2.35-2.04-.2-.8.28-1.23.42,1.29.16,2.6.23,3.78.64.26.08,1.14.29,1.19.29,1.69-.05,3.69.64,5.47,1Z"/><path d="m183.49,12.55c-.87-.56-2.96-.46-3.21-1.33-.87-.64-1.9-.76-2.91-.92-1.78.01-4.27-1.02-6.27-1.25.3.41.15.77,2.28,1.03,1.29.16,3.05.76,4.6,1.19l.92.03.23.19-1.11-.2c1.22.52-3.01.45,1.77,1.35.25-.23-.23-.81,1.61-.27.45-.11,2.06.56,2.09.17Z"/><path d="m216.17,26.72c.08,0-.02-.26.4.22-2.81-3.54-6.35-6.73-9.97-8.16v.19c.78.54,1.58,1.05,2.35,1.62,2.57,1.78,5.06,3.73,7.22,6.13Z"/><path d="m171.1,9.04c2,.24,4.49,1.27,6.27,1.25-.04-.65-1.7-.65-2.46-.92-2.94-1.07-6.09-1.76-9.19-2.33.37,1.2,3.5,1.34,5.38,2Z"/><path d="m120.4,1.02c2.23.16,4.77.09,6.21.93.55.32,1.38.22,1.54-.06.11-.2-.04-.46.91-.49.35-.57-1.54-.58-2.53-.65-2.24-.19-4.51-.37-6.77-.45.17.24-.41.51.65.72Z"/><path d="m108.95,2.77c-1.55-.18-3.16-.32-4.26.2-.71.34-1.14.15-1.79.01-2.17-.42-4.31-.35-6.3.28,2.03.45,4.52.24,6.96.15,1.8-.08,3.58-.16,5.37-.23l.02-.41Z"/><path d="m60.27,68.45c-.55.28-2.14.54,1.42.83,1.85.14,2.65.58,3.55,1.02.45.22.09.59,1.58.63,1.2.03.97-.3.78-.59-.18-.28-.26-.55-.38-.83-2.32-.32-4.64-.67-6.94-1.07Z"/><path d="m59.82,5.25c-.13.57-.08,1.03,2.89.15l2.06-.72,1.34-.25c.54-.28,1.34-.39,2.12-.5l.74-.52c0-.37-.92-.12-1.66.04-2.51.57-5,1.17-7.49,1.79Z"/><path d="m31.85,61.99c.43.28.86.56,1.3.83,1.93.57,4.07.8,5.53,1.91.37.29,1.68.37,1.62.3-.27-.34,2.43.29.62-.5-3.06-.68-6.1-2.3-9.06-2.54Z"/><path d="m60.83,6.84c-.74.3-1.81.84-2.15.86-1.33.07-.14-.33.27-.6.28-.18-.14-.2-.66-.1-.6.11-1.24.3-1.22.47.03.26.27.47.42.71,2.62,0,5.46-.67,8.31-1.23v-.46s-.05-.09-.04-.14l-.77.12c-1.8.51-3.52.99-4.17.38Z"/><path d="m14.14,54.96c1.15.71,1.78.68,2.39.75.62.04,1.22.14,2.52.76-.55-.53-1.08-1.08-1.72-1.55-.64-.47-1.43-.81-2.4-1.08-.25-.02-.48.08-.74-.08-2-1.2-2.31-1.34-2.06-.96.24.37,1.1,1.14,1.48,1.57.16-.04.16-.24.84.24l-.3.15c0,.07,0,.14,0,.2Z"/><path d="m75.4,73.14c-.59-.4-1.75-.92-3.03-.72-2.45.39-6.61-1.15-8.32-.36,3.83.63,7.62.98,11.35,1.08Z"/><path d="m134.02,73.58l-2.8-.15-1.46-.06c.03.43-1.17.46-2.35.5-2.76-.27-5.32-.09-7.73.5.24.18.99.33,1.5.26,4.13-.61,8.84-.16,12.84-1.05Z"/><path d="m170.45,11.63c.03-.64-.31-1.22-3.08-1.36-2.06-.09-4.34-1.54-6.39-1.33,2.68,1.46,6.23,1.84,9.47,2.69Z"/><path d="m216.58,43.23c.9-.52,2.07-2.03,2.81-4.04-.56.3-.64-.84-.94-2.15-.11.66-.27,1.27-.33,1.88-.14.6-.19,1.22-.4,1.81.06.38-.08.82-.32,1.24-.22.43-.54.85-.81,1.25Z"/><path d="m141,2.46c2.38,1.07,7.51,1.78,10.73,1.53-2.98-.89-6.11-1.05-9.17-1.47-.13.36-.86.13-1.55-.06Z"/><path d="m3.29,31.3c.48-.72.81-1.22.61-1.37l-.69.69-.28.06c.16-.19.33-.36.5-.54.18-.11.36-.22.54-.32.58-.68.79-1.07.7-1.26-.97.98-1.93,1.89-2.77,3.03-.83,1.13-1.54,2.51-1.73,4.22.34-.09.68-.79,1.13-1.6.43-.83,1.05-1.73,1.61-2.37l.39-.53Z"/><path d="m109.86,74.2c-3.28,0-6.53,0-9.32.52,1.1.31,2.14.46,3.78.14,2.08-.39,4.67-.04,6.97-.23l-.14-.39c-.42-.01-.86-.03-1.29-.04Z"/><path d="m112.47,1.91c2.92-.08,4.52-.72,3.6-1.62-.96-.05-1.91-.08-2.87-.09.43.42-1.69.6-1.28,1.01.83.2.48.46.56.69Z"/><path d="m25.08,59.94c1.53.45,3.09.78,4.63,1.16-1.05-.57-2.11-1.12-3.18-1.57-1.05-.49-2.15-.83-3.28-1.03l-.02.65,1.85.8Z"/><path d="m38.79,12.48l-1.73.54-.21.37c2.56-.67,5.2-1.15,7.45-2.27-.84-.11-2.45.18-2.85-.12-.47.2-.87.38-1.28.55-.04.27-.04.53-1.37.93Z"/><path d="m108.95,2.77l-.02.41,3.52.04c.73-.43.69-.87.02-1.32-1.73-.06-1.32-.4-1.35-.68-.27-.15-.67-.29-1.34-.22-.79.08-.32.26-.18.39.54.5,1.56,1.01-.66,1.38Z"/><path d="m10.9,23.45l-.18-.32c-1.99,1.41-4.5,2.76-5.51,4.86.52-.01.54.82,2.14-1.53.72-1.03,2.63-1.91,3.55-3.01Z"/><path d="m135.65,73.17l-.14.5c2.79.14,5.26-.42,7.79-.84l-1.36-.23c-1.43-.03-1.48-.36-1.71-.65-.19,0-.39.01-.58.03.05.66-.33,1.27-4,1.19Z"/><path d="m166.34,67.44c1.84-.33,3.67-.74,5.51-1.09,1.19-.22,2.07-.46,2.12-.81-2.52.12-5.15,1.09-7.73,1.41.03.16.05.33.11.5Z"/><path d="m141.94,72.6l1.36.23c2.05.01,4.21.23,5.78-.74-1.85,0-3.77.04-5.81.17-.97.06-1.3.11-1.33.34Z"/><path d="m52.79,6.63c.09.04.13.1.27.11,1.06.08-2.68,1.31.23.81,2.1-.36,3.34-1.15,3.04-1.72-1.24.16-2.61.12-3.54.81Z"/><path d="m189.35,10.64c-.69-.48-1.44-.83-3.17-1.16-1.43-.29-2.62-.64-3.27-1.09-.5-.1-1.12-.28-1.33-.22l1.11.68c2.14.63,4.27,1.19,6.4,1.85l.26-.06Z"/><path d="m154.67,5.26c1.26-.26-.67-.46-2.42-.62-1.28-.16-2.1-.14-2.66-.03v.26c1.67.08,3.34.13,5.08.39Z"/><path d="m212.26,50.87c-1.91,1.83-4.44,3.37-6.18,5,.31-.14.61-.28.9-.44.28-.17.56-.36.84-.55.55-.38,1.08-.78,1.61-1.19,1.04-.82,1.99-1.73,3.01-2.59l-.18-.23Z"/><path d="m49.71,66.51c.1,1.37,3.26.95,4.94,1.34-.06-.27.5-.55-1.61-.76-1.05-.1-2.22-.38-3.34-.57Z"/><path d="m56.11,8.51c-.3-.22-.12-.68-1.69-.35-2.11.46-.72.83-1.89,1.29,1.79.13,2.39-.63,3.58-.94Z"/><path d="m133.63,4.15c1.06-.05,2.12-.03,3.19-.05-1.97-.29-2.05-.73-2.29-1.16-.14-.25-.59-.47-1.54-.56-.35-.03-.92,0-1.04.08-.34.21.43.33,1.03.48,2.16.54-1.83.58.03,1.11.2.04.4.07.62.09Z"/><path d="m150.98,3.6c1.42-.03,3.26.87,4.42.35-.56-.42-.56-.47-4.42-.35Z"/><path d="m75.59,4.46c1.87-.11,1.81.35,2.27.65,1.45-.15,3.07-.1,4.2-.65l-.07-.21c-1.05,0-2.86.42-3.07.08-.47-.74-1.92-.24-3.33.13Z"/><path d="m71.43,6.06c.81-.7-1.34-.51-2.4-.64l-1.04.52-.74.87c1.45-.15,2.65-.77,4.18-.75Z"/><path d="m75.58,71.02l.05-.5c-1.3-.27-2.6-.56-4.08-.55-.02.27-.56.57,1.41.75,1.49.14,2.15.36,2.06.72.67-.06.48-.26.55-.42Z"/><path d="m218.44,37.04c.31,1.31.38,2.45.94,2.15.06-1.53-.25-3.64-.77-3.85-.07.1-.13.19-.21.29l.05.7v.71Z"/><path d="m120.4,1.02c-1.06-.22-.47-.48-.65-.72l-2.14-.15c-.36.62-.42,1.22,2.79,1.46v-.58Z"/><path d="m111.15,74.24l.14.39c1.38,0,2.57-.15,3.57-.4-.91-1.18-2.32-.52-3.71,0Z"/><path d="m192.7,13.44c.04-.07.19-.1.09-.22-.29-.33,1.73.09-.31-.75-1.84-.66-.37.23-.7.3-.09.02-.71-.17-1.09-.26.39.31.74.57,2,.93Z"/><path d="m216.58,43.23c.27-.4.59-.82.81-1.25.25-.42.39-.86.32-1.24-.18.45-.42.88-.66,1.31-.21.51-.51.9-.73,1.06-.43.8-.94,1.57-1.48,2.32l.48-.36c.24-.29.45-.59.66-.9.21-.31.43-.61.6-.93Z"/><path d="m106.3,3.05s-.05.05,0,.07c.25.09-.8.33.94.24.59-.03,1.69-.31.56-.39l-1.5.08Z"/><path d="m162.92,68.55c0-.33,1.74-.77,1.25-1.06l-2.14.36c.3.23-.39.68.89.7Z"/><path d="m188.96,17.26c.05-.26-.53-.66-1.18-1.07-3.01-.89.49.67-.39.58.11.09.28.17.5.23l.89.3c.19.04.25.04.19-.04Z"/><path d="m82.33,2.1l1.4-.33c-.67-.33-2.39-.04-3.48-.09l-.04.36.1.36c.39-.03.68-.06.97-.1.09-.21.57-.21,1.05-.21Z"/><path d="m85.35,74.21c-.1-.33-1.66-.32-2.1-.58l-1.14.06.9.3c.75.16,1.53.24,2.35.21Z"/><path d="m34.9,14.1c-.5-.18-1.1-.18-2.15.57.62-.03.99.32,2.15-.57Z"/><path d="m194.81,61.01c-.68.34-1.35.7-2.04,1.01.06.44,1.19-.11,2.2-.6l-.16-.41Z"/><path d="m28.83,15.94c-.96.43-2.09.81-2.66,1.37,1.54-.25,2.18-.78,2.66-1.37Z"/><path d="m98.78,3.5c.71.02,1.52-.03,2.43-.17-.78.03-1.26-.17-2.43.17Z"/><path d="m215.32,45.07l-.48.36c-.28.36-.59.69-.89,1.04l.15.05c.53-.36.97-.83,1.22-1.46Z"/><path d="m91.81,3.46s.01-.07.09-.1c-.1.03-.2.05-.33.06-.06.13-.11.27-.17.41l.41-.37Z"/><path d="m216.32,43.11c.22-.17.52-.55.73-1.06-.21-.12-.41.25-.73,1.06Z"/><path d="m115.22,3.31c-.07-.14.06-.35-.73-.35-.57.01-.47.16-.05.26l.78.08Z"/><path d="m80.22,2.05l.04-.36c-.73.15-1.22.33-1.43.54l1.39-.18Z"/><path d="m83.77,1.67l1.86-.27c-.81-.15-1.43-.07-1.86.27Z"/><path d="m166.31,67.44l-.07-.49c-.47.05-.7.14-.7.26.09.13-.22.38.78.24Z"/><path d="m19.63,56.81l.05.39c.68.3.35-.06.54-.08-.18-.13-.38-.24-.59-.31Z"/><path d="m141,2.46c.69.19,1.42.42,1.55.06-.64-.15-1.27-.27-1.55-.06Z"/><path d="m189.1,10.71c-2.12-.65-4.26-1.22-6.4-1.85-.75-.19-1.1-.2-1.19-.11l-.18.31c1.18.33,1.54.54,1.07.6-.22.03-.52.07.25.3.45.13,1.46.32,1.46.28,0-.55,3.09.41,4.4.49.27.02.39-.02.58-.03Z"/><path d="m143.47,3.25c-1.5-.19-3-.4-4.47-.26,2.52.17.44.45,2.21.64l2.83.36c-.35-.26-1.84-.56-.56-.74Z"/><path d="m214.15,26.41c.65,1.02,1.6,2.2,2.46,3.52.1-.12.38-.03.25-.42-.18-.52,1.2,1.15.14-.49-.77-1.12-.81-.75-.86-.54-.03.1-.23.27-.55-.57-.64-1.54-.96-.83-1.44-1.5Z"/><path d="m168.16,5.84l-2.11-.43c-.29.08-2.12-.1-.54.29,1.67.41,2.27.3,2.65.14Z"/><path d="m173.18,6.84c.62.05,1.21.04.85-.1-1.09-.43-2.43-.42-3.67-.67.06.33,1.7.53,2.82.78Z"/><path d="m208.95,20.58c-.77-.57-1.57-1.08-2.36-1.62,0,.28.69.87,1.64,1.49.73.49.59.19.72.13Z"/><path d="m214.36,46.86c-.12.15-.25.3-.4.45l.14.24c.58-.63,1.3-1.4,1.34-1.86-.34.41-.73.77-1.09,1.16Z"/><path d="m165.51,5.32c-.26-.31-1.27-.36-2.29-.42l.04.23c.76.07,1.51.11,2.25.19Z"/><path d="m178.77,8.92c.14.05.28.1.42.16h.42c-.18-.07-.38-.14-.52-.16-.14-.02-.21,0-.32,0Z"/><path d="m212.61,24.89c.41.36.78.75,1.18,1.13-.1-.19-.12-.39-.31-.59-.54-.59-.65-.46-.87-.54Z"/><path d="m173.75,7.27l-.64-.34c-1.09-.03-.27.15.64.34Z"/><path d="m163.26,5.13c-.38-.04-.94-.13-.95-.04,0,.02.27.1.41.11.65.08.48-.03.54-.08Z"/><path d="m181.33,9.06l.18-.31c-.92-.13-1.02-.03-.18.31Z"/><path d="m199.49,15.8c.01-.05-.09-.11-.18-.15-.01.05.09.1.18.15Z"/><path d="m213.08,48.58l.08.13c.32-.38.63-.75.93-1.15-.31.35-.66.68-1.01,1.02Z"/><path d="m175.89,7.57l.15.08c-.06-.03-.11-.05-.15-.08Z"/><path d="m162.86,4.87l-.19-.15c-.62-.01-.5.04.19.15Z"/><path d="m121.71,1.86c-.88.23-2.24.47-1.28.95.41.21.91.42,1.79.5,1.31.12,1.47-.14,1.67-.38-.66-.34-.99-.67-.38-.98.28-.14.22-.3-.55-.37-.94-.09-1.09.1-1.25.27Z"/><path d="m181.4,12.38c-1.84-.54-1.36.04-1.61.27.66.25,1.65.42,1.63.81-.01.19.57.61,1.19.75.63.14,1.26.12,1.54.02.46-.17-.76-.43-1.1-.64-.67-.4-1.11-.8-1.65-1.2Z"/><path d="m145.49,5.27c1.14,1.12,3.55,1.15,5.81,1.36-1.54-.79-3.36-1.35-5.81-1.36Z"/><path d="m143.73,5.08l.73.06c.13-.03.22-.1.4-.1,1.39-.03,2.33-.14,1-.78-.35-.17-1.34-.43-1.19-.22.33.5-4.14.03-.93,1.03Z"/><path d="m128.11,3.61l2.03.28c.04-.26,1.78-.46-.02-.76-1.33-.22-2.3.01-2.01.48Z"/><path d="m137.78,4.23l2.2.8c-.03-.23,1.23-.3.21-.64-.81-.26-1.71-.29-2.41-.16Z"/><path d="m176.92,11.97c-.38-.19-.59-.35-.82-.42-.25-.07-.52-.07-.78-.1.19.12.36.27.59.35.24.08.54.09,1.02.17Z"/><path d="m141.5,5.24l1.97.14c.1-.01.19-.02.29-.04l-.06-.2c-.89-.05-2.16-.33-2.2.09Z"/><path d="m126.3,3.48c.57.2,1.14.4,1.76.13-.58-.06-1.17-.09-1.76-.13Z"/><path d="m172.53,11.68c-.18-.1-.29-.1-.39-.1.07.04.13.07.39.1Z"/><path d="m48.54,68.81c.79.13,1.68.37,2.19.24.46-.46,2.75.39,3.75.23.38-.05,1.48.69,2.08.4.37-.18-.77-.59-1.46-.91-.7-.33-1.27-.48-2.33-.47-1.33,0-2.85-.15-3.88-.93-.61-.48-1.89-.52-2.64-.56-1.31-.07-.32.3.38.62,1.11.5,2.22,1.01,1.9,1.39Z"/><path d="m75.58,71.02c-.07.16.11.36-.55.42-.18.2-1.93.05-1.1.45.29.14.97.33,1.43.36,1.53.11.55-.32.9-.47.19-.08.35-.18.63-.24.56-.11,2.17-.06,1.59-.34-.67-.32-1.85-.02-2.89-.18Z"/><path d="m70.35,71.14c-.15-.05-.29-.1-.43-.14l-.43.11c.18.04.38.1.54.11.13,0,.21-.05.32-.08Z"/><path d="m35.39,65.24l-.68-.22c.22.07.46.15.68.22Z"/><path d="m116.97,3.41c-.15-.07-.19-.16-1.15-.06.13.07.59.08,1.15.06Z"/><path d="m7.35,50.61c.36.35.73.68,1.11,1.01.16-.16.11-.63.52-.4.71.4,1.34.74,1.3.37-.02-.19-.39-.41-.56-.47-.65-.2-2.17-1.68-2.08-.94.03.25-.18.3-.28.44Z"/><path d="m4.73,47.11c.18.44-.02.66.68,1.45.1.11.45.29.46.22.06-.34-.67-1.03-1.14-1.67Z"/><path d="m3.29,31.3l-.39.53c.11.07.16.26.66-.42l-.27-.11Z"/><path d="m14.14,54.76l.3-.15c-.69-.48-.68-.28-.84-.24l.54.39Z"/><path d="m10.97,53.16l-.06-.34c-.63-.32-.09.14.06.34Z"/><path d="m141.2,3.64c-1.77-.2.32-.47-2.21-.64-.92-.04-1.57,0-2.06.07-1.03.15-2.28.28-.4.59,2.96.49,3.12-.02,4.67-.01Z"/><path d="m129.22,3.38c1.03,0,2.66.26,2.58-.05-.03-.11-.43-.3-1.6-.28-1.13.01-2.78.13-2.85.23-.13.21,1.34.03,1.87.09Z"/><path d="m130.37,2.69c-.8-.14-1.3-.27-1.89-.29-.74-.02-2.06-.04-2.11.14-.03.09.45.19,1.24.2.84,0,1.67-.04,2.76-.05Z"/><path d="m120.55,3.3c-.1-.06-.1-.14-.85-.12-.23,0-.36.08-.53.13h1.38Z"/><path d="m133.18,3.19c-.23.02-.09.03.05.04l-.05-.04Z"/><path d="m121.91,3.38h-.32s-.32,0-.32,0c.22.04.43.05.65,0Z"/><path d="m94.7,2.83c-.17-.29-.91-.35-1.94-.2-1.31.2-.77.48-.88.73,1.28-.03,1.29-.61,2.82-.53Z"/><path d="m111.12,1.22c.03.28-.38.63,1.37.69-.1-.24.25-.49-.58-.7h-.79Z"/><path d="m94.71,2.82l.16.07c-.06-.02-.12-.04-.16-.07Z"/><path d="m109.86,74.2l1.3.05c-.23-.13.43-.38-.61-.38-.59,0-.74.19-.69.33Z"/><path d="m127.42,73.87c1.17-.04,2.38-.07,2.35-.5-.87.14-1.84.24-2.35.5Z"/><path d="m75.59,4.46c1.41-.36,2.86-.86,3.33-.13.21.34,2.02-.08,3.07-.08-.62-.35-1.12-.73-1.88-1.03-1.63-.65-4.47-.39-6.66.64-.27.13-.4.28-.74.38-1.28.36-1.27.97.05,1.02q.55.02.8-.41c.12-.2.04-.44,1.03-.59.3-.05.66.12,1,.19Z"/><path d="m65,6.47l.77-.12c1.24-.86-.95-1.06-.99-1.67l-2.06.72c-.1.58,2.75.37,2.29,1.06Z"/><path d="m68.23,3.94c-.78.11-1.58.22-2.12.5.03.02.02.07.09.07.98.03.9.65,2.05.36,1.69-.42-.3-.56-.02-.92Z"/><path d="m72.09,3.9c.2-.09.43-.16.41-.19-.08-.09-.25-.16-.38-.24-.09.06-.25.14-.24.19,0,.08.12.15.21.24Z"/><path d="m82.33,2.1c-.48,0-.97,0-1.05.21.45-.01,1.1.08,1.05-.21Z"/><path d="m80.32,2.41l-.28.13c.13-.04.25-.08.28-.13Z"/><path d="m25.08,59.94l-1.85-.8c-.41.18-1.37-.13-2.38-.49-1.01-.35-2.04-.83-2.66-.85-.01.26-.42.39,1.05,1.15-.46-.64.66-.19,1.39.03.88.29,1.17.7,1.4,1.02.62.32,1.25.61,1.88.89,1.92.48,2.91.65,3.07.5.16-.15-.53-.57-1.9-1.47Z"/><path d="m22.03,60.02c-.23-.32-.52-.74-1.4-1.02-.73-.22-1.85-.67-1.39-.03,1,.53,2.21,1.23,2.8,1.05Z"/><path d="m31.53,63.63c-1.55-1.47-2.47-.76-3.68-1.17,1.34.89,2.54,1.03,3.68,1.17Z"/><path d="m35.4,65.24l-.71-.23c.19.23.42.32.71.23Z"/><path d="m38.79,12.48c1.34-.4,1.34-.66,1.37-.93-.3-.28.43-.41,1.21-.52.33-.46-.09-.82,1.85-1.44.29-.55-1.82.18-2.2,0-2.62,1.3-2.6,2.16-2.22,2.88Z"/><path d="m60.81,6.84l.87-.22c-.53-.07-.62.12-.87.22Z"/><path d="m184.32,63.9c-.29.23-.33.41-.38.58,1.39-.39,2.75-.85,4.12-1.3,1.23-.42,1.19-.62,1.17-.84-.74.21-1.62.56-2.12.5-.93.36-1.85.74-2.8,1.06Z"/><path d="m188.06,63.18c-1.37.45-2.73.92-4.11,1.3l.04.34c1.62-.4,3.21-.91,4.81-1.38l-.73-.26Z"/><path d="m184.32,63.9c.94-.32,1.87-.7,2.8-1.06l-.11-.35c-.92.3-1.84.63-2.78.89l.1.51Z"/><path d="m202.69,55.87c-.1-.12-.25-.23-.95.11-.32.16-.66.5-1,.76.53-.08,1.25-.5,1.95-.87Z"/><path d="m187.12,62.84c.5.06,1.38-.29,2.12-.5-.49-.08-1.32.23-2.12.5Z"/><path d="m195.43,60.59c-.03-.08.56-.42-.07-.26-.07.02-.25.11-.3.14-.34.26-.09.24.36.12Z"/><path d="m13.04,23.85c.9-.82,2.47-.37,2.96-1.97-.24-.76-2.21,1.01-3.29,1.56l.33.4Z"/><path d="m25.77,16.08l-.25.16c.08-.05.15-.11.25-.16Z"/><path d="m12.71,23.45l-.17.03c.06-.01.12-.03.17-.03Z"/><path d="m213.08,48.58c.35-.33.69-.67,1.02-1.03l-.14-.24c-.7.72-1.01,1.1-.88,1.27Z"/><path d="m135.65,73.17c3.67.08,4.05-.53,4-1.19l-.84-.66c-2.74-.28-4.21.57-6.31.84-.22.61,0,1.16,3.15,1.01Z"/><path d="m169.74,67.4l.31-.04c-.02-.07-.14-.05-.31.04Z"/><path d="m143.47,5.39l.49.14-.2-.17c-.1.01-.2.02-.29.04Z"/><path d="m162.9,68.56c.25,0,.5,0,.77,0,0,0,.12-.06.19-.09-.31.03-.62.05-.96.08Z"/><path d="m122.53,72.33l-1.37-.13c.1.22.18.46,1.37.13Z"/><path d="m183.94,64.48l.14-.53c-.68.2-1.43.42-1.49.65-.06.24.61.09,1.35-.12Z"/><path d="m34.55,13.42c.02-.2-.02-.39-.72-.29.13.15-.11.43.72.29Z"/><path d="m30.93,13.6l.16.02c-.06,0-.12-.01-.16-.02Z"/><path d="m36.39,12.07c-.18-.08-.23-.26-.58-.21-.46.06-.83.35-.66.4.34.1-.92.93,1.16.24l.08-.42Z"/><path d="m36.39,12.07l-.08.42c1.01-.42.89-.51.08-.42Z"/><path d="m1.05,37.1c-.05.1-.1.2-.14.32,0,.02,0,.27.02.29.05.04.09,0,.14-.02v-.6Z"/><path d="m82.65,72.69l.29-.02c-.11,0-.22,0-.29.02Z"/><path d="m178.02,11.29l1.11.2-.23-.19c-.31-.01-.61-.02-.87,0Z"/><path d="m3.42,30.15c-.16.18-.34.35-.5.54l.28-.06.21-.48Z"/><path d="m3.21,30.62l.69-.69c-.12-.01-.3.1-.48.21l-.21.48Z"/><path d="m41.37,11.03c-.78.11-1.51.24-1.21.52l1.21-.52Z"/>
                  </g>
                </mask>
              </defs>
              <path class="mask" d="m201.11,20.84c-6.48-2.91-15.16-6.38-25.78-9.54-5.38-1.6-20.42-5.83-40.81-8.02-37.07-3.98-65.8,1.6-80.02,4.47-16.33,3.3-31.36,7.9-43.55,17.24-4.43,3.4-9.02,7.36-9.27,12.74-.35,7.52,7.79,13.43,11.01,15.77,24.85,18.05,79,19.39,82.67,19.46,14.19.26,85.38,1.1,113.6-20.71,3.33-2.57,10.57-8.33,10.4-15.89-.12-4.94-3.38-9.9-11.15-15.52-13.98-10.1-35.35-16.18-76.47-17.68-12.52-.46-30.17.18-51.34,2.71"
                    mask="url(#path-mask)" stroke="black" stroke-width="2" fill="none"
                    stroke-dasharray="606.7919921875" stroke-dashoffset="606.7919921875">
              </path>
            </svg>
        