
            <svg xmlns="http://www.w3.org/2000/svg">
              <defs>
                <mask id="path-mask">
                  <g fill="white">
                    <path d="m67.47,65.61c3.31.36,1.23-.06,1.9-.08l2.37.34c1.93.34,4.2.64,6.04.95,1.89.31,4.62.65,7.27.86,2.65.17,5.21.27,6.75.24,2.09.19,3.42.24,4.31.19,2.79.23,6.95.29,9.09.58.59.15,3.04.35.97.44-1.49.07-3.11.02-5.48-.2-1.97-.18-3.75-.26-4.88-.2-.62-.03-1.23-.06-1.85-.12-2.3-.11-5.38-.74-7.19-.52-.72-.06-2.04-.17-2.07-.17-1.83.13-6.05-.44-9.7-.84l-.05-.09c1.01.07.8.02-.33-.1-.18-.02-.37-.04-.57-.06l-.1-.13c.62.06,1.54.17,1.53.11,0,0-.45-.08-.67-.1-1.06-.1-.76-.04-.88-.02l-3.62-.37c-.29-.03-.59-.07-.9-.11.45-.01,3.42.3.82-.1-2.75-.42-3.7-.44-4.27-.41-.54.05-1.71-.09-3.55-.43-.15-.19-2.82-.52-4.66-.83l.1-.04c1.75.18.39-.04-1.09-.29-2-.43-2.21-.3-3.48-.51l-.25-.07.29.07c-.13.07.6.33-3.05-.35-2.27-.42-4.23-.76-3.86-.54l-2.26-.41-1.94-.58c1.23.24,1.77.31,1.89.27,1.48.23,1.61.2.19-.14-1.95-.39-2.58-.57-1.87-.52.34.02.8.06-.49-.21-.38-.07-.98-.19-1.48-.28-.5-.09-.91-.15-.91-.15.03.05-.1.06-.4.03h0c-1.14-.16-4.84-1.28-6.47-1.74-.41-.11-.58-.13-.87-.2l-.37-.06c-4.44-1.6-8.96-3.59-12.77-5.52-.98-.46-2.22-1.34-3.09-1.96-.78-.58-1.41-1.08-1.98-1.49-.55-.44-1.01-.81-1.45-1.11-.59-.49-1.09-1.09-1.63-1.62-.53-.56-.98-1.19-1.47-1.78-.85-1.29-1.69-2.62-2.1-4.13l.02-.18c.01-.14-.12-.55-.17-1.19-.03-.32-.11-.68-.14-1.08,0-.41,0-.85,0-1.32.18-1.43.06-.97.01-1.09.44-2.58,1.98-4.81,3.78-6.65,1.86-1.81,4.01-3.31,6.3-4.65l-.19.09c.05-.06-.33.11.54-.4.23-.17.3-.27,1.45-.89-.33.35,1.93-.79,3.82-1.6,4.06-1.78,8.92-3.42,12.58-4.69,2.54-.87,4.26-1.39,6.77-2.12,1.52-.41.65-.29.76-.38,4.87-1.38,9.79-2.58,14.73-3.67v.12c-.96.29-.71.3-.21.27.86-.05-.39.29-3.03.87-.77.19-1.55.38-2.31.6-1.38.35-3.05.74-3.64.99l2.55-.6c.34-.02,1.85-.34-.08.2-1.03.19-2.06.43-3.1.77l-3.63.98c-1.55.19-4.51.94-7.76,1.8-2.23.83-5.46,2.06-5.86,2.42-3.12,1.09-6.19,2.3-9.17,3.79-.1-.03.2-.26-.41-.02-.8.32,2.29-1.28-.56.09-1.95.98-1.51.9-1.27.84.11-.02.18.08-1.12.66-2.35,1.12-1.74,1.1-3.61,2.32-.29.17-.53.27-.89.53-1.02.8-.97.84-1.22,1.1-.79.69-1.55,1.41-2.2,2.22l-.94,1.24c-.26.45-.51.91-.76,1.36-.91,1.87-1.25,4.05-.8,6.23.27,1.12.61,1.95.99,2.52.18.29.33.54.47.74.17.18.31.34.42.47,1.83,2.86,4.48,5.13,7.33,7.02,2.86,1.9,5.95,3.42,9.13,4.78-.03.03-.25-.02-.05.1.55.34-2.57-.81.72.61,2.93,1.22.47.02.92.11.13.03,1.11.41,1.7.62,3.32,1.22,6.85,2.38,10.43,3.4h-.03c2.37.48,4.75.96,7.1,1.4,1.74.33,4.59.68,5.95,1.1.78.22,3.74.83,6.94,1.38,3.19.56,6.62,1.07,8.3,1.25Zm-19.82-3.37l-.66-.07c.29.06.64.13.87.18.22.04.33.03.5.05-.24-.06-.48-.11-.71-.16Zm-32.16-11.64c-.1-.08-.25-.19-.38-.29,0,.03.15.14.38.29Z"/><path d="m74.31,2.84c7.73-.85,15.38-1.23,23.08-1.7,1.05.28,6.02-.22,9.24-.32.65.08.58.19,4.01-.05,2.08-.15,5.1-.22,7.78-.3,2.15,0-4.45.53,3.41.18,1.15,0,2.77-.07,2.93.05.08.06,1.2.12,2.22.09,1.05-.03,2.01-.11,2.38-.17.61-.11-1.4-.05-2.03-.07-1.24-.07-2.13-.12-3.16-.17.63-.1,3.46-.08,3.3-.2,1.74.15,7.83-.05,7.82.21,0,.12-2.46.24-3.51.4-1.09.16-5.77.21-9.49.25-1.68.02-3.27,0-4.94.03-1.61.03-3.59,0-4.76.14-1.25.15,3.19-.05,2.37.1-2.55.18-5.24.31-8.2.38-.23-.19-1.02-.32-5.45.11-3.29.32-7.47.31-10.65.72l-1.22.09-2.33.1c-3.92.07-8.12.35-12.65,1-2.71.1-5.77.36-9.67,1-.56.07-1.11.16-1.66.24.2-.05.32-.09.6-.14,2.19-.38,3.66-.64,1.36-.49-.6.03-2.24.24-1.95.26.68.05-6.55,1.18-1.21.59-1.43.22-3.52.55-3.47.68l-2.47.41c-.1-.06,1.86-.47.17-.25-1.34.19-2.78.51-3.85.78-.52.09-1.04.2-1.55.32-3.18.67-3.41.57-3.89.56-.28-.01-1.04.11-2.55.48-.56.13-1.44.39-1.6.47-.48.21.75-.11,1.72-.3,3.51-.74-2.73.93.32.3-.73.29-2.66.81-4.46,1.32l-.05-.08c0-.09,2.67-.95-.2-.21-2.12.56-3.54,1.16-3.08,1.16-.91.29-1.84.55-2.74.87l-3.8,1.18c-1.08.28-1.64.37-.78-.06.39-.2.27-.21-.92.21-1.44.51-1.63.66-1.83.8l-2.03.69-.12-.17c3.4-1.27,7.23-2.71,9.62-3.24.9-.21,2.18-.64,2.35-.8.13-.12-.17-.11,1.29-.6,5.98-1.99,12.34-3.47,18.92-4.47,4.03-.5,12.38-1.62,17.39-2.35ZM115.56.82c-.43.01-.84.05-1.26.08.36,0,.69.03,1.08.02.41,0,.89-.05,1.66-.09-.68,0-1.09-.02-1.48-.01Z"/><path d="m280.55,45.83c2.38-1.81,3.43-2.71,4.51-3.83.48-.6.46,0,1.59-2.16.38-.91.42-1.29.4-1.39-.02-.1-.14.08-.24.24-.19.3-.39.42-.57.6.46-1.03.66-2.15.62-3.25-.07-1.11-.44-2.18-.95-3.18.04-.04.2.1.14-.09-.07-.18-.26-.75-1.25-2-1.57-1.82-2.46-2.49-2.28-2.56.3.06,2.33,2.07,1.42.99-.16-.19-.44-.49-.75-.81-.33-.3-.68-.61-.97-.85-2-1.5-.76-.39-1.24-.66-.27-.14-.48-.25-.88-.47-.76-.47-3.02-1.75-2.22-1.18.92.65,2.57,1.51,3.9,2.58l-.13.16c-2.63-2.02-5.54-3.62-8.51-4.98-2.97-1.37-6.01-2.5-9.07-3.52.54.05.99.07,1.96.32.97.25,2.46.73,5.01,1.84.84.37,2.21.95,2.58,1.04.4.09-.62-.44-1.79-.93-.34-.26-.67-.53-.86-.74l1.74.66-1.35-.66c4.16,1.54,7.9,3.54,10.92,6.11.71.77,2.15,2.15,3.49,3.75.67.74,1.29,1.81,1.72,3.06.45,1.24.49,2.72.22,4.05-.28,1.34-.9,2.51-1.51,3.45-.61.95-1.21,1.69-1.6,2.24-2.82,2.71-6.28,4.84-9.77,6.57.03-.29-2.66,1-4.94,1.99-2.03.9-3.27,1.34-4.86,1.83.48-.38,4.2-1.62,5.58-2.37.52-.27,2.43-.88,3.15-1.41.44-.32-1.34.45-2.48.85-1.15.41-2.03.77-3.58,1.45-1.94.86-4.25,1.74-6.13,2.11-1.12.23-3.06.93-4.2,1.31-2,.67-.34.26.85-.04,1.89-.46,3.75-.96,3.46-.68l-1.16.44c-2.16.39-6.17,1.67-9.65,2.5-1.35.34-4.44,1.14-3.58.67.21-.11-3.99.93-4.1,1.03-.22.2-1.36.45-2.9.75l-1.13.23c-2.1.49-4.6,1.07-3.78.62,1.03-.36,1-.33-.81-.06-.8.12-1.86.27-2.04.26-.63-.04,2.58-.57,3.07-.77,3.21-.68,6.58-1.49,9.36-1.86.71-.09,2.73-.64,2.6-.64-.58.04,3.82-1.05.69-.42.11-.1.45-.19,1.73-.49,4.16-.99,8.34-2.05,12.43-3.54.76.33,5.25-1.69,7.85-2.79,3.01-1.3,5.12-2.51,8.1-4.24-.3.28-.97.76-.94.81.01.02.2-.06.7-.34.49-.29,1.28-.78,2.45-1.62Zm6.64-10.91c.07.21.1.44.15.66-.03-.3-.04-.65-.13-.88-.06-.21-.12-.31-.18-.47.05.24.11.47.16.7Z"/><path d="m178.76,66.26c4.11-.55,9.13-1.09,12.89-1.8,3.37-.28,8.45-1.24,12.41-1.87,1.13-.18,1.56-.26,2.35-.43,2.45-.5,3-.98.27-.56-2.87.45-3.78.53-4.53.54-.78.01-2.2.12-4.9.74-.3.07-1.42.27-1.91.33-4.71.64-9.24,1.35-13.89,1.93-10.71,1.31-21.47,2.31-32.25,2.93l.03.12c.91-.05,1.65-.07,1.86-.04,1.6-.13,3.51-.28,4.84-.38,3.19-.19,7.09-.67,9.62-.71,1.52.01,12.48-.98,14.69-1.34.37-.05.75-.13.69-.14-.55-.09,1.52-.24,2.46-.35,1.13-.11,1.83-.14,2.81-.23.56-.05,2.29-.32,2.13-.24-.1.05-1.09.21-2.44.41-2.81.42-6.8.85-7.14,1.09Z"/><path d="m164.15,69.43c2.82-.17,6.17-.31,8.01-.6-.81.02-1.86.03-2.42.07-2.17.17-4.22.33-5.82.24-1.32-.08.52-.25,1.84-.41,2.34-.28,4.15-.29,6.06-.28,1.19,0,3.19-.07,4.16-.19,3.31-.42,4.8-.32,6.78-.35,1.26-.09,2.86-.23,3.19-.15.07.02-.51.11-.74.13-1.66.12-1.72.02-2.45.02l-3.53.59c2.36.14,5.39-.26,8.25-.54-.08-.09.1-.19,2.17-.37-.04-.06.14-.15-.16-.19-.92-.11,2.49-.38,3.51-.56.28-.05.98-.13,1.19-.1.44.07-.7.21-1.98.38-.72.1-.17.18-.19.27,1.13-.2,4.36-.32,4.67-.55-.42.02-1.56.1-.45-.05l.42.05c1.65-.12.66.16,2.7-.05.72-.07,1.29-.27,1.93-.41-.03-.06.21-.13,1.18-.26-.05-.02-.11-.03-.19-.05l-1.08.1c-1.8.07-7.43.51.19-.35.5-.06.72-.16,1.07-.25-3.29.33-6.72.79-9.72.83-.36.01-4.77.56-7.73.78-.81.14-1.81.25-3.59.37-5.2.38-10.65.52-15.61.95-2.01-.11-5.58.29-7.7.24-2.07-.03-3.73,0-6.3.18-3.48.26-5.01.19-5.09-.03l-5.75.17c.27.13-1.31.25-2.46.37,2.63.12,5.37.24-.19.52-.71.04-.24.08.47.1,2.25-.18,5.55-.07,7.44-.24,4.37-.38,3.5-.11,4.09,0l1.22-.04c.11-.08.77-.15,2.16-.19.16-.11,1.09-.16,2.44-.23l-.11-.11c1.34-.04,1.12.02,1.12.08,2.62.01,6.56-.12,6.98.1Z"/><path d="m113.45,69.34c1.49.05,2.55,0,3.34-.04,1.66-.1,3.69-.19.61-.36-4.85-.24-5.06,0-7.58,0l-4.62-.24c-2.15-.29-6.31-.35-9.09-.58l-.04-.15c2.67.16,5.78.16,7.77.4,2.52.27,5.14.29,8.09.35,11.62.15,23.31.03,35-.5.21.06.19.12-1.26.23l-2.25.11h-1.16c-.35,0-.7,0-1.05.04-7.39.26-8.42.36-5.6.51.09,0,.11.01.16.02,6.53-.33,8.28.03,14.67-.39,2.65-.21,6.18-.47,6.9-.32-1.74.12-3.69.42-4.27.38-1.11-.08-2.93.12-4.71.2-3.18.15-6.31.34-9.47.41-3.16.1-6.34.22-9.61.25-9.3.22-18.91-.06-28.42-.51-1.89-.09-4.91-.2-5.04-.4,1.12-.06,2.91.02,4.88.2,2.38.21,3.99.27,5.48.2,2.45.13,4.9.27,7.29.21Zm11.65-.3c.05.06.72.16,2.62.11,1.83-.05,4.52-.17,4.62-.23.2-.13-2.18.02-3.04,0-1.67.04-4.34-.06-4.2.12Zm5.45.44c1.2,0,3.34-.04,3.42-.16.04-.06-.74-.08-2.01-.07-1.37.04-2.71.07-4.48.12,1.31.05,2.12.12,3.07.11Zm-7.07-.32h-.7s.09.01.09.01c.52,0,.55,0,.61-.01Z"/><path d="m13.87,18.76c-2.56,1.39-4.57,2.48-7.24,4.46-1.92,1.44-3.95,3.39-5.27,5.97-.65,1.28-1.13,2.69-1.29,4.15-.18,1.46-.01,2.94.36,4.3.74,2.74,2.38,5.32,4.17,7.16l.16-.11c-.34-.5-1.19-1.79-.01-.4,1.84,1.98,2.82,2.64,3.6,3.18.8.53,1.45.92,2.97,1.97-1.58-1.16-2.93-2.25-4.09-3.26-.14-.13-.27-.25-.38-.33-.2-.09.3.6-1.22-.9-1.18-1.21-1.84-2.22-1.89-2.47l-.14-.24.13.22c.34.51.64.88.9,1.17.25.3.46.52.68.72.42.41.82.76,1.53,1.49.1.08.14.11.14.08-1.54-1.75-3.53-3.81-4.64-6.11-.8-1.39-1.35-3.01-1.43-4.69-.08-1.68.31-3.41,1.13-4.91.44-.93.91-1.42,1.44-2.44.91-1.54,2.87-3.32,4.95-4.71,2.89-2.13,1.46-1.33.6-1.02-.21.09-.88.47.17-.27.92-.6,1.47-.92,1.89-1.09l1.12-.64c-.68.18,2.35-1.49,1.65-1.28Z"/><path d="m220.91,9.9c-2.25-.45-4.59-.89-7.73-1.22-3.93-.35-8.07-.85-12.48-1.52-.85-.01-2.42-.18-3.84-.29l-2.34-.31c.27.09.69.26.8.27,4.3.42,7.15,1.02,11.28,1.51,3,.36,5.74.74,6.53,1.08.02,0,.33.05.49.08.57.05,1.14.11,1.71.17-.46-.32,2.56.14,4.85.5,7.56,1.21,15.18,2.3,22.79,3.86,4.58.96,4.84.97,2.6.79-.68-.05-1.13-.06-1.69-.07,4.38.79,9.39,2.01,12.92,2.64-.8-.23-1.59-.45-2.43-.66-1.39-.34-3.42-.64-4-.92-.24-.12,1.98.25,3.38.51.74.15,2.13.48,3.23.76.92.22,1.91.49,2.37.55.59.08-.35-.23-1.28-.51-1.47-.44-1.84-.69-4.16-1.23-2.9-.83-6.14-1.6-10.04-2.27-4.48-.65-9.69-1.54-14.94-2.42.06.07-.18.1-1.13-.05-1.67-.27-.59-.2-.95-.3-2.25-.15-4.58-.27-5.93-.94Z"/><path d="m143.42,68.54h-1.16s-.53.02-.53.02l-.53.02c-7.39.26-8.42.36-5.6.51.09,0,.11.01.16.02,6.53-.33,8.28.03,14.67-.39,2.65-.21,6.18-.47,6.9-.32,1.92-.19,5.35-.48,6.79-.72-1.84.06-.05-.26.91-.34,2.82-.23,1.11.04,1.52.08.08,0,0,.03,0,.05,2.17-.05,5.83-.61,8.26-.77,1.48-.22,2.8-.37,3.94-.44.36-.25,4.35-.67,7.15-1.09,1.35-.19,2.34-.36,2.44-.41.16-.08-1.57.2-2.13.24-.98.08-1.68.12-2.81.23-.94.1-3.02.26-2.46.35.06,0-.32.08-.69.14-2.21.36-13.17,1.36-14.69,1.34-2.53.05-6.43.52-9.62.71-1.32.1-3.24.25-4.83.38-1.55.14-1.63.08-1.86.05l-.03-.12-2.29.11c.21.06.19.12-1.26.23-.28.04-.49.1-.87.12-1.21.07-1.22.02-1.38,0Z"/><path d="m20.03,54.92l.03.1c.76.57,1.35,1.05,2.34,1.7,2.11,1.43,6.5,3.03,10.19,3.8.46.11.7.11,1.26.24,2.08.5,2.28.32.25-.32-.85-.27-.85-.26-1.37-.26-.25,0-.21.1-1.76-.35-.48-.13-.97-.39-1.46-.59-2.87-1.01-2.61-1.12-3.21-1.48,3.25,1.15,6.65,2.13,10.1,3.07-1.48-.16,1.9.76,3.51,1.22l1.79.27c1.19.26,2.39.45,3.59.68.05.03.06.05.03.06-2.23-.21,1.12.68.97.89l-2.17-.43s0-.03-.11-.05c-1.52-.38-1.19-.53-3.07-.92-2.77-.56.27.29-.28.29l-1.32-.15c-5.22-1.24-10.56-2.64-15.4-4.79-.7-.3-1.41-.63-2.09-.97l-.03-.16.45.18-.58-.26-1.28-.65c-.65-.35-1.52-.89-1.55-.78-.69-.35-1.37-.71-2.06-1.08l.29.14.3.2c-.67-.44-1.82-1.21-2.93-1.94-1.1-.75-2.11-1.52-2.5-1.94-.19-.2-1.32-.97-2.64-1.97-1.32-.99-2.8-2.24-3.77-3.2-.33-.31-.54-.52-.8-.77-.34-.5-1.19-1.79-.01-.4,1.84,1.98,2.82,2.64,3.6,3.18.8.53,1.45.92,2.97,1.97,2.91,2.04,5.85,3.82,8.71,5.48Zm13.97,6.09c.09.06.33.16.51.25.15.02.42.08.43.06.02-.03-.14-.1-.25-.17-.33-.07-.71-.16-.69-.14Z"/><path d="m189.65,67.59c-2.07.18-2.25.28-2.17.37l1.94-.13,1.49-.14c1.86-.14,3.69-.28,5.55-.42,1.85-.17,3.74-.37,5.7-.61,1.61-.2,3.92-.48,5.85-.62,2.11-.14,6.08-.68,6.76-.77,7.09-1.19,13.97-2.14,20.78-3.29,2.5-.44,4.04-.87,6.08-1.28,10.37-2.18,20.72-4.84,30.51-9.12,1.05-.47,2.12-.95,2.68-1.32.03-.29-2.66,1-4.94,1.99-2.03.9-3.27,1.34-4.86,1.83-.7.35-2.12.82-3.35,1.23l-1.16.44c-2.16.39-6.17,1.67-9.65,2.5-1.35.34-4.44,1.14-3.58.67.21-.11-3.99.93-4.1,1.03-.22.2-1.36.45-2.9.75-.36.14-.75.22-1.16.23-2.08.48-4.58,1.07-3.75.62-.57.1-1.15.2-1.72.31-1.78.42-3.61.88-6.13,1.14-2.05.49-4.02,1.06-6.74,1.08l-3.31.46c-.69.28-2.92.5-4.71.74-2.62.34-2.18.17-2.37.1-3,.6-6.05.88-9.11,1.02-.64.14-1.21.34-1.93.41-2.04.21-1.05-.07-2.7.05-.27.23-3.51.35-4.64.55l-2.37.2Z"/><path d="m65.74,67.14c1.61.35,3.4.6,5.83.77-1.37-.27-2.7-.54-1.06-.48,1.3.04,2.25.35,3.64.45,1.79.4,2.85.39,4.06.38,1.39,0,2.74.08,3.65.35,3.29.21,2.79,0,3.39-.08-.48-.2-3.12-.43-4.4-.67-2.17-.33-5.05-.64-7.81-.88-2.07-.19-3.85-.4-5.83-.66-2.03-.18.03.33-3.46-.12-2.59-.34-2.14-.43-2.53-.59l-2.3-.32c.15.12.45.26.4.35-.03.06-1.09-.07-2.08-.22-.86-.13-1.5-.26-1-.23.74.04,2.76.28.65-.11-.53-.09-2.41-.28-3.67-.43-.4-.04-.62-.02-1.42-.21l1.45.22c-.83-.39-3.69-.84-6.69-1.33-.96.05,3.57.99,3.21,1.14,4.95.74,4.87.87,4.46,1.01,1.99.31,3.6.66,5.66.91-.27-.26,1.96-.14,5.4.33,4.76.67-1.56,0,.07.33.23.05.26.07.38.11Z"/><path d="m94.82,5.61l-1.88.2-3.63.46-1.33.17s.07.03.12.04c.79-.07,1.18-.09.52.03-.1.02-.42.06-.53.07-1.03.09.05-.08.05-.11-1.89.23-3.28.43-4.15.64-1.38.31-3.18.6-4.63.77-1.45.17-2.55.25-2.51.21.25-.28-2.73.22-4.9.51-2.71.51-5.38,1.1-8.12,1.68-1.19.27-3.51.71-2.83.7.56,0,3.06-.6,3.7-.68,1.99-.26,4.99-1.1,6.14-1.04,1.51-.22,3.29-.51,3.54-.44,1.27-.21,2.62-.43,3.45-.47,2.8-.38,5.61-.77,8.39-1.07,5.5-.64,10.25-1.34,15.83-1.74v-.14c-1.38.13-2.8.27-3.53.25.08-.09.12-.18,2.22-.37l-1-.1-4.9.45Z"/><path d="m138.79,70.06c-.71-.01-1.18-.06-.47-.1,5.57-.28,2.83-.4.2-.52l-2.15.06.05.2.27.02-.25-.02c-1.95-.03-6.19.18-5.87-.12-3.24.07-6.17-.17-9.78.03-.52.03-2.77-.06-2.89-.17l-3.41-.05c-1.48.16-5.79.15-4.97.41.04.01-.74.02-1.14.03-2.52-.45-3.6,0-5.59-.11.01.02,0,.04,0,.07,5.83.53,7.23.2,9.29,0h.45s-.48,0-.48,0c.59.02,1.42.05,2.11.07.69.02,1.24.05,1.26.06.58.5,4.85.22,8.31.17,3.6-.05,7.75-.19,10.93-.03,1.57.03,1.33.22,4.06.14l.07-.14Z"/><path d="m26.89,13.8l-2.03.69c-4.91,1.83-4.89,1.69-4.48,1.26-1.63.58-1.5.68-2.27,1.03,1.55-.32-.77.82-4.97,3.02,1.04-.36,1.18-.27.21.4,1.13-.41,1.97-.97,2.89-1.45-.64.26-.82.29.02-.11,1.15-.55.99-.4,1.13-.41,2.59-.95,6.31-2.57,9.07-3.6,4.52-1.7,9.49-3.31,13.83-4.71l-.05-.08c-1.08.27-2.14.61-3.21.92-.97.43-1.9.63-2.81.9l-3.8,1.18c-.24.18-.44.35-2.46,1.07-1.36.49-2.16.72-2.82.9-1.56.42.46-.44,1.75-1.02Z"/><path d="m70.82,9.24c-1.15-.06-4.15.78-6.14,1.04-.64.08-3.13.67-3.7.68-.68.02,1.64-.43,2.83-.7,2.74-.57,5.41-1.17,8.12-1.68l-1.01.05c-.44.07-.89.14-1.33.22-1.82.43-3.9.8-6.04,1.22-2.13.44-4.33.84-6.37,1.33-.96.29-.71.3-.22.27.86-.05-.39.29-3.03.87l-.04.07c-.02.1-.8.28-2.4.67-.33.09-.65.17-.96.25.34-.02,1.85-.34-.08.2l.11.04c6.43-1.53,12.91-2.79,19.44-4.01-1.07.06-3.03.26.81-.53Z"/><path d="m165.58,4.12c-1.37-.06-1.23-.33-3.68-.25-1.83.05-3.56-.21-5.38-.23-.52.24-2.99.08-5.59-.07-2.2-.14-4.02-.15-5.68-.07-1.72.07-2.48.16-.66.3,2.44.03,4.69.19,7.31.2,8.17.09,9.07.16,15.6.72.16.01.47.04.51.04,3.34-.06,8.38.66,11.78.71-.31-.15-.34-.28-2.63-.51-.09.08-.63.05-2.2-.08-3.31-.27-6.41-.52-9.38-.77Z"/><path d="m70.82,9.24c-3.84.78-1.88.58-.81.53,2.55-.35,4.27-.52,7.9-1.24,1.31-.25,3.28-.54,5.46-.81,2.18-.25,4.56-.52,6.67-.77,5.69-.65,11.67-1.24,17.45-1.56,2.53-.14,4.21-.23,3.92-.39-.28-.15-2.33-.06-4.62.16l-4.76.36c-5.58.4-10.33,1.1-15.83,1.74-2.78.3-5.6.69-8.39,1.07-.67.12-1.42.29-2,.38-1.27.19-1.4.14-1.45.09-.25-.08-2.03.21-3.54.44Z"/><path d="m112.09,69.78c-2.06.19-3.46.52-9.29,0l-4.68-.08c-1.24,0-2.54-.01-2.22.11,2.18.28,5.06.25,7.46.33,9.17.26,18.34.38,27.57.16,2.46-.06,2.81-.13,3.75-.23-3.18-.16-7.33-.02-10.93.03-3.46.05-7.72.33-8.31-.17-.02-.02-.57-.04-1.26-.06-.69-.02-1.51-.05-2.08-.07Z"/><path d="m243.86,14.75c.56.02,1.01.02,1.69.07,2.24.18,1.98.17-2.6-.79-7.61-1.56-15.23-2.66-22.79-3.86-2.3-.37-5.32-.82-4.85-.5,4.26.86,8.95,1.54,14.13,2.25,3.33.47,5.86.95,5.17,1.1,3.35.46,6.09,1.15,9.25,1.73Z"/><path d="m179.79,5.48c-3.41-.05-8.44-.77-11.79-.71-.04,0-.35-.03-.51-.04-6.53-.56-7.43-.63-15.6-.72-2.62-.02-4.87-.17-7.31-.2,1.03.23,2.16.44,6.18.66l2.95-.06c1.09-.1,2.76-.02,5.12.09,2.88.15,6.36.31,8.85.47,5.02.34,9.51.43,14.28.98l-1.24-.39c-.32-.03-.63-.06-.94-.09Z"/><path d="m120.91,4.42c1.5-.25,2.72-.51-3.32-.27-1.95.08-.72-.06-.58-.12,1.49-.13,3.05-.21,4.51-.26,1.46-.03,2.81-.03,3.88-.02,5.4.06,6.62-.08,7.78-.36l1.11-.03c3.55.11,9.38.17,3.84.51-1,.06-.97.18-1.42.27-3.05-.01-6.11.08-9.16.11-1.97.05-3.46.1-3.65.24-1.13.03-2.27.04-3.4.09.13-.06.08-.11.42-.17Zm9.73-.43c.12,0,.32,0,.61-.02-.17,0-.34,0-.61.02Z"/><path d="m127.47.18c1.74.15,7.83-.05,7.82.21,0,.12-2.46.24-3.51.4-1.09.16-5.77.21-9.49.25-1.68.02-3.27,0-4.94.03-1.61.03-3.59,0-4.76.14-1.25.15,3.19-.05,2.37.1,5.47.03,12.28-.29,17.95-.1,1.79.06,1.39-.11,2.83-.13,1.39-.06-4.85-.2.27-.22,1.72-.18,6.23-.19,5.56-.44-1.06-.04-2.45-.06-3.13-.11-1.72-.12-1.68-.43-6.05-.19-.04,0-1.58-.06-2.56-.1-2.86-.05-5.57,0-7.96.14.82.24,3.99-.06,5.61.02Z"/><path d="m142.73,1.12c1.42.04,2.44.09,3.18.17,1.84.2,5.33.39,8.07.41,2.45.02,4.66-.01,4.94-.16.52-.26-2.54-.57-9.39-.78-1.67-.04-3.75-.2-5.65-.28-2.08.08-1.28.25.96.39,2.27.15,4.36.15,5.98.11.59-.02,3.33.04,3.09.14-.21.09,1.36.25.36.31-.62.04-.92.1-2.77.04-1.92-.07-2.76-.15-2.98-.23-.23-.09-.51-.16-2.65-.22-2.08-.04-3.14-.01-3.13.09Z"/><path d="m181.98,5.95c-4.77-.56-9.26-.64-14.28-.98-2.49-.16-5.98-.33-8.85-.47-2.36-.11-4.03-.19-5.12-.09,4.03.47,10.08.54,15.06.88,7.44.48,15.05.94,22.25,1.9l.6-.03c-1.06-.2-4.82-.7.93-.17,1.88.19,2.95.19-.28-.2-3.42-.28-5.94-.27-10.31-.82Z"/><path d="m146.72,68.89c.08.22,1.6.29,5.09.03,2.56-.18,4.23-.21,6.3-.18,2.12.04,5.69-.35,7.7-.24,4.97-.43,10.41-.57,15.61-.95,1.78-.12,2.78-.23,3.59-.37-4.79.17-9.97.48-15.54.81-3.56.19-7.17.39-11.05.45-3.38.07-7.76.31-11.69.45Z"/><path d="m58.46,5.85l-2.47.41-3.68.53c-.52.09-1.04.2-1.56.32-1.67.41-3.34.8-4.99,1.28,1.5-.23,3.73-.64,6.11-1.14,2.39-.45,4.93-.96,7.08-1.29,8.52-1.38,17.19-2.31,25.86-3l2.31-.24c-3.92.07-8.12.35-12.65,1-3.68.42-7.54,1.02-9.67,1-.56.07-1.11.16-1.66.24l-1.18.19s.08.06.13.07c.12,0,.24,0,.37,0l-.82.1c-1.06.16-2.12.35-3.17.55Z"/><path d="m30.12,19.72c-3.11,1.09-6.19,2.3-9.17,3.79-2.37,1.14-4.57,2.38-6.24,3.38-1.47.99-2.15,1.57-2.83,2.13-.79.69-1.55,1.41-2.2,2.22l-.94,1.24c-.26.45-.51.91-.76,1.36-.91,1.87-1.25,4.05-.8,6.23.27,1.12.61,1.95.99,2.52.18.29.33.54.47.74.17.18.31.34.42.47-.47-.63-.73-1.37-1.09-2.05-.22-.74-.54-1.45-.61-2.21-.18-.75-.13-1.51-.13-2.28.04-.38.13-.75.19-1.12.04-.38.18-.74.32-1.09.45-1.47,1.4-2.73,2.37-3.93,1.03-1.16,2.24-2.18,3.49-3.12,2.53-1.87,5.33-3.38,8.2-4.73,2.87-1.36,5.82-2.54,8.81-3.62l-.48.06Z"/><path d="m117,4.04c1.49-.13,3.05-.21,4.51-.26,1.46-.03,2.81-.03,3.88-.02,5.4.06,6.62-.08,7.78-.36-8.88.03-17.78.27-26.62,1.09-2.14.21-3.49.16-5.22.33-2.39.25-6.09.49-6.51.79l4.9-.45c2.68-.25,5.37-.39,8.06-.59,3.07-.19,6.14-.41,9.22-.54Z"/><path d="m53.31,63.62c-.13.07.6.33-3.05-.35-2.27-.42-4.23-.76-3.86-.54,9.34,1.86,18.76,3.39,28.61,4.34l-.05-.09-.33-.1c-.18-.02-.37-.04-.58-.06-1.65-.15-3.28-.31-3.74-.51-.29-.03-.59-.07-.9-.11l-3.45-.51c-.54.05-1.71-.09-3.55-.43-2.03-.31-4.16-.49-5.99-.91-.6-.13.33-.05,1.33.08l.1-.04-1.09-.29c-2-.43-2.21-.3-3.45-.51Z"/><path d="m134.27,3.37c3.55.11,9.38.17,3.84.51-1,.06-.97.18-1.42.27,1.69.02,1.13.09,1.23.15l2.27-.02c-.7-.15,2.23-.19,2.31-.31l-1.52-.05c.11,0,.32-.02.33-.02.42.02.82.05,1.22.07,2.01.11.78.23,1.2.34,2.28.19,4.62.25,7.03.14-4.01-.22-5.14-.42-6.18-.66-1.82-.14-1.06-.23.66-.3,1.66-.08,3.48-.07,5.68.07,2.6.15,5.06.3,5.59.07-5.84-.27-11.82-.26-17.59-.39-2.28-.04-3.48.03-4.65.12Z"/><path d="m192.29,6.78c3.23.39,2.16.39.28.2-5.75-.53-1.99-.03-.93.17,1-.03,2.78.27,4.16.4-.14-.1.93-.11,1.77.02,4.17.66,7.17.74,10.81,1.24,1.96.14,2.05.25,2.19.35,1.95.38,2.46.35,3.04.35-.17-.03-.47-.07-.5-.08-.78-.34-3.52-.72-6.53-1.08-4.13-.5-6.98-1.1-11.28-1.51-.11-.01-.53-.18-.8-.27-1.49-.21-2.98-.41-4.48-.59l-2.38-.31-.3.16c5.09.53,5.36.77,4.92.96Z"/><path d="m253.9,15.89c2.32.55,2.69.8,4.16,1.23.94.28,1.88.59,1.28.51-.45-.06-1.45-.33-2.37-.55-1.1-.28-2.49-.62-3.23-.76-1.4-.26-3.62-.63-3.38-.51.58.28,2.61.58,4,.92.85.21,1.63.43,2.43.66,1.04.37,2.02.52,3.03.79,1.69.41,3.49.86,3.03.6-1.79-1,3.43.44,7.97,2.2-.52-.32-2.91-1.16-3.05-1.33-3.79-1.26-7.39-2.4-11.3-3.37-2.81-.67-2.22-.42-2.56-.41Z"/><path d="m208.38,8.8c-3.64-.5-6.64-.58-10.81-1.24-.84-.13-1.91-.12-1.77-.02,7.32.82,14.58,1.74,21.87,2.75,3.65.51,7.48,1.15,11.08,1.77,2.17.39,3.95.66,5.87.95.68-.16-1.84-.63-5.17-1.1-5.17-.71-9.86-1.38-14.13-2.25-.57-.06-1.15-.11-1.71-.17-.58,0-1.08.04-3.04-.35l-2.19-.35Z"/><path d="m117,4.04c-3.08.13-6.15.35-9.22.54l-.08.14c1.25-.09,2.37-.12,2.17-.03-.19.09-1.46.16-2.61.25-.42.09-.45.16-.47.23,2.28-.22,4.33-.31,4.61-.16,2.94-.12,5.98-.24,9.08-.41.13-.06.08-.11.42-.17,1.5-.25,2.72-.51-3.32-.27-1.95.08-.72-.06-.58-.12Z"/><path d="m98.11,69.69l4.68.08v-.07s-.25-.04-.25-.04l.24.04c1.99.12,3.07-.34,5.59.11.4,0,1.18-.02,1.14-.03-.83-.26,3.48-.25,4.97-.41-.25-.08-1.29-.08-2.21-.09-1.22.1-3.17.02-4.9,0-1.27-.07-2.08.18-2.75-.03-.72-.22-2.83-.15-4.01-.25-2.03.07-2.95-.06-3.63-.21-1.21-.08-2.63-.27-3.39-.14l-.52.08c1.41.13,2.11.27,4.1.35,1.35.11.83.16.95.23,6.19.35-.83.22,0,.36Z"/><path d="m71.74,65.87c1.93.34,4.2.64,6.04.95,1.89.31,4.62.65,7.27.86,2.65.17,5.21.27,6.74.24-2.84-.22-6.01-.45-3.99-.52-2.73-.21-5.44-.51-8.13-.79-2.69-.25-5.34-.5-7.92-.74Z"/><path d="m98.12,69.33c6.19.35-.83.22,0,.36-1.24,0-2.54-.01-2.22.11-3.53-.14-7.28-.18-10.46-.66-.16-.03-.2-.04-.15-.06,4.65.11,5.04-.17,4.81-.49l2.97.16c1.41.13,2.11.27,4.1.35-.13.07-.18.13.95.23Zm-3.71.06c.74.07,1.45.04,1.22,0-.47-.1,1.91-.14-1.65-.3-1.77-.06-1.63,0-.35.12.24.06.22.13.78.19Z"/><path d="m179.24,68.5c-1.08.06-1.99,0-3.21.18-2.71.41-2.98.2-3.87.15-.81.02-1.86.03-2.42.07-2.17.17-4.22.33-5.82.24-1.32-.08.52-.25,1.84-.41,2.34-.28,4.15-.29,6.06-.28,1.19,0,3.19-.07,4.16-.19,3.31-.42,4.8-.32,6.78-.35-1.17.2-2.35.39-3.53.59Zm-12.95.46s.41-.03.43-.04c.05-.02-.02-.04-.04-.05l-.9.07c.16,0,.31.01.51.02Z"/><path d="m31.44,58.74c-4.44-1.6-8.96-3.59-12.77-5.52-.98-.46-2.22-1.34-3.09-1.96-.78-.58-1.41-1.08-1.98-1.49-.55-.44-1.01-.81-1.45-1.11,1.43,1.43,3.25,2.73,5.19,3.95,1.97,1.16,4.08,2.23,6.15,3.13,5.12,2.26,10.03,4.23,15.46,5.69h.03s.01.01.01.01c.25.05.5.09.75.14.84.15,1.87.36,2.26.38-.71-.22-1.73-.47-2.97-.73h-.01s-.02,0-.02,0c-.73-.2-1.55-.43-2.42-.67-2.73-.74-3.96-1.27-5.15-1.81Z"/><path d="m142.73,1.12c-.01-.1,1.05-.13,3.13-.09,2.14.06,2.42.13,2.65.22.22.08,1.06.16,2.98.23,1.85.06,2.16,0,2.77-.04,1.01-.06-.57-.22-.36-.31.24-.11-2.5-.16-3.09-.14-1.62.05-3.71.05-5.98-.11-2.24-.14-3.04-.31-.96-.39-.77-.06-1.54-.1-2.31-.06.68.25-3.84.26-5.56.44,1.22.06,2.34.13,2.42.22l4.31.04Z"/><path d="m201.28,66.38c3.06-.13,6.1-.42,9.11-1.02,1.75-.43,7.22-1.08,8.16-1.51l-.44-.17c-1.99.23-3.8.46-5.43.77-.25.08.5.04-.71.22l-.38-.08c-.34.03-.7.07-1.09.13-4.7.6-3.71.86-8.03,1.41-.97.13-1.22.2-1.18.26Z"/><path d="m70.93,8.64l1.01-.05c2.17-.29,5.15-.79,4.9-.51-.04.04,1.06-.03,2.51-.21,1.45-.16,3.25-.46,4.63-.77.87-.2,2.26-.41,4.15-.64-.09,0-.13-.02-.16-.03l.07-.2c-5.66.6-11.27,1.26-17.11,2.4Z"/><path d="m18.53,23.76c-.33.35,1.93-.79,3.82-1.6,4.06-1.78,8.92-3.42,12.58-4.69,2.54-.87,4.26-1.39,6.77-2.12,1.52-.41.65-.29.76-.38-5.36,1.49-10.58,2.99-16,5.25-2.34.97-5.32,2.2-7.91,3.55Z"/><path d="m136.37,69.49l2.15-.06c1.15-.12,2.73-.24,2.46-.37-5.79.03-11.99.3-17.85.12-2.36-.08-3.09.2-5.22.25.11.11,2.37.2,2.89.17,3.6-.2,6.54.03,9.78-.03,2.09-.43,3.85,0,5.8-.08Z"/><path d="m233.66,61.84c.57-.1,1.15-.2,1.72-.31,1.03-.36,1-.33-.82-.06-.8.12-1.86.27-2.04.26-.63-.04,2.58-.57,3.07-.77l-2.43.29-3.76.63c-2.53.5-5.06,1.01-7.6,1.48,5.24-.61,5.15-.51-1.02.69,2.72-.02,4.69-.59,6.74-1.08,2.03-.35,2.95-.92,6.13-1.14Z"/><path d="m270.82,20.99c-4.54-1.76-9.76-3.21-7.97-2.2.46.26-1.34-.2-3.03-.6.46.36,2.87.85,4.26,1.32.54.05.99.07,1.96.32.97.25,2.46.73,5.01,1.84.84.37,2.21.95,2.58,1.04.4.09-.62-.44-1.74-.9l-.49-.19.44.16-1.01-.79Z"/><path d="m85.44,69.14c-.16-.03-.2-.04-.14-.06-.5-.14-4.1-.36-3.42-.48-.92-.26-2.26-.35-3.65-.35-1.22,0-2.27.02-4.06-.38-1.39-.11-2.34-.41-3.64-.45-1.64-.06-.31.21,1.06.48,4.68.57,9.65,1.23,13.86,1.23Z"/><path d="m17.4,54.51c-.67-.44-1.82-1.21-2.93-1.94-1.1-.75-2.11-1.52-2.5-1.94-.19-.2-1.32-.97-2.64-1.97-1.32-.99-2.8-2.24-3.77-3.2-.33-.31-.54-.52-.8-.77l-.16.11c2.75,3.28,6.07,5.48,9.5,7.79.86.55,1.74,1.07,2.63,1.58.35.2.57.31.67.35Z"/><path d="m52.24,62.97c.78.22,3.74.83,6.94,1.38,3.19.56,6.62,1.07,8.3,1.25,3.31.36,1.23-.06,1.9-.08-2.1-.24-4.22-.45-6.19-.85-.43-.08-1.88-.32-1.98-.32-2.7-.19-6.03-.91-8.97-1.38Z"/><path d="m127.47.18c-1.62-.08-4.79.22-5.61-.02-1.66-.07-3.3.02-4.94.11-2.74.24-7.08.3-10.29.55.65.08.58.19,4.01-.05,2.08-.15,5.1-.22,7.69-.3l1.43-.11.46.03-1.81.08c2.15,0-4.45.53,3.41.18.27-.1-.76-.22,2.35-.28.63-.1,3.46-.08,3.3-.2Z"/><path d="m16.55,25.06c.05-.06-.33.11.54-.4-3.06,1.76-6.23,3.77-8.45,6.69-2.34,2.79-3.02,6.88-1.71,9.78l.02-.18c-.06-.19-.13-.37-.18-.56l-.1-.58c-.05-.39-.15-.78-.17-1.17,0-.79-.03-1.59.16-2.36.44-2.58,1.98-4.81,3.76-6.63,1.83-1.8,3.94-3.27,6.13-4.58Z"/><path d="m106.62.83c3.21-.25,7.56-.31,10.29-.55-.38-.19-2.93.04-4.24.07-5.03.1-10.22.43-15.29.8,1.05.28,6.02-.22,9.24-.32Z"/><path d="m24.74,14.32c3.4-1.27,7.23-2.71,9.62-3.24.9-.21,2.18-.64,2.35-.8.13-.12-.17-.11,1.29-.6.42-.33-2.5.59-4.03,1.11-3.47,1.14-6.91,2.4-10.35,3.7.31-.03-.52.39,1.12-.17Z"/><path d="m8.44,23.05c-2.08,1.39-4.05,3.17-4.95,4.71-.53,1.02-1.01,1.51-1.44,2.44-.83,1.5-1.22,3.23-1.13,4.91.08,1.69.63,3.3,1.43,4.69-.63-1.47-1.13-3.2-1.15-5.04-.07-1.85.53-3.73,1.44-5.42,1.42-2.46,3.54-4.47,5.87-6.16l-.06-.13Z"/><path d="m278.34,46.99c-.3.28-.97.76-.94.81.01.02.2-.06.7-.34.49-.29,1.28-.78,2.45-1.62,2.38-1.81,3.43-2.71,4.51-3.83.48-.6.46,0,1.59-2.16.38-.91.42-1.29.4-1.39-.02-.1-.14.08-.24.24-.19.3-.39.42-.57.6-.74,1.66-1.96,3.11-3.35,4.36-1.39,1.25-2.94,2.35-4.55,3.33Z"/><path d="m54.23,65.47c.41-.14.49-.28-4.46-1.01l-3.47-.51-2.17-.43c-.94-.11-2.22-.4-3.46-.69l-1.32-.15c-.14.11,1.39.41,2.59.66,4.09.81,8.18,1.53,12.29,2.13Z"/><path d="m233.17,61.27l2.43-.29c3.21-.68,6.58-1.49,9.36-1.86.71-.09,2.73-.64,2.6-.64-.58.04,3.82-1.05.69-.42-4.97,1.19-10.47,2.1-15.07,3.21Z"/><path d="m53.22,64.64c1.26.15,3.14.34,3.67.43,2.11.38.09.15-.65.11-.5-.03.14.11,1,.23.99.15,2.05.28,2.08.22.05-.09-.25-.23-.4-.35-4.13-.74-8.81-1.58-13.46-2.41l-.18.14c.05.03.06.05.03.06l1.24.26c3,.49,5.86.94,6.66,1.32Z"/><path d="m202.47,66.12c4.33-.55,3.33-.81,8.03-1.41-2.43.12-4.89.24-8.04.87-.35.08-.57.19-1.07.25-7.62.86-1.99.41-.19.35.18-.07-.03-.11,1.34-.24l-.26.14c.07.01.13.03.19.05Z"/><path d="m282.27,27.15c.71.77,2.15,2.15,3.49,3.75.67.74,1.29,1.81,1.72,3.06.45,1.24.49,2.72.22,4.05-.28,1.34-.9,2.51-1.51,3.45-.61.95-1.21,1.69-1.6,2.24,1.14-1.15,2.16-2.48,2.8-4.04.67-1.53.87-3.32.48-4.96-.38-1.64-1.21-3.1-2.22-4.32-1.01-1.23-2.18-2.28-3.39-3.23Z"/><path d="m190.04,5.96c1.49.18,2.99.38,4.48.59l2.34.31c0-.17,1.95.05,3.84.29,4.41.68,8.55,1.18,12.48,1.52-.36-.12-1.56-.36-2.37-.45-6.71-.72-14.21-1.86-20.76-2.27Z"/><path d="m106.76,1.69c-.23-.19-1.02-.32-5.45.11-3.29.32-7.47.31-10.65.72,4.81-.03,10.62-.58,16.09-.83Z"/><path d="m43.73,15.49c-1.55.19-4.51.94-7.76,1.8.69,0-.92.66-3.04,1.54,2.24-.66,4.23-1.35,6.29-2.01,1.07-.5,2.91-.93,4.5-1.33Z"/><path d="m56.92,5.2c4.03-.5,12.38-1.62,17.39-2.35-4.99.38-9.97,1.1-14.92,1.89-.1.15-1.32.3-2.47.46Z"/><path d="m156.15,69.36c-1.35.06-2.28.12-2.24.21h1.48s.33.06.33.06h-1.1s-.91-.04-.91-.04c-1.39.04-2.05.11-2.16.19,4.24-.1,7.92-.01,12.6-.35-.42-.22-4.37-.09-6.98-.1-.34.01-.68.02-1.02.03Z"/><path d="m228.92,11.2c5.25.88,10.45,1.76,14.94,2.42-1.73-.45-3.38-.82-6.02-1.16-3.36-.43-7.47-1.27-11.17-1.79l.19.18c.68.11,1.37.23,2.06.35Z"/><path d="m13.14,19.8c4.2-2.21,6.52-3.34,4.97-3.02-1.43.62-2.85,1.27-4.24,1.98.69-.21-2.33,1.46-1.66,1.28,1.22-.61.77-.23.92-.24Z"/><path d="m221.8,63.38c2.54-.47,5.07-.98,7.6-1.48-3.87.52-7.7,1.05-11.29,1.78l.44.18,3.26-.47Z"/><path d="m90.1,68.59l2.97.16.52-.08c-4.32-.26-8.7-.68-12.72-.82,1.27.24,3.92.48,4.4.67.83.03,1.54.06,2.24.08.19-.08.31-.17,2.59-.02Z"/><path d="m8.44,23.05l.06.13c1.53-1.12,3.19-2.07,4.86-2.98.97-.67.83-.77-.21-.4-2.46,1.35-1.94.94-2.05.88-.42.17-.98.49-1.89,1.09-1.05.74-.38.36-.17.27.86-.31,2.3-1.11-.6,1.02Z"/><path d="m138.79,70.06l-.07.14c3.94-.07,8.27.03,11.6-.37-.59-.12.27-.39-4.09,0-1.9.17-5.2.06-7.44.24Z"/><path d="m187.37,5.82l.3-.16c-4.46-.55-8.51-.76-12.66-.98l2.15.3c2.29.23,2.32.36,2.63.51.31.03.62.06.94.09.03-.25.74-.43,6.63.25Z"/><path d="m136.7,4.15c-3.05-.01-6.11.08-9.16.11-1.97.05-3.46.1-3.65.24,4.08.04,8.6-.2,12.84-.15,0-.06.02-.13-.03-.2Z"/><path d="m177.16,4.97l-2.15-.3c-3.29-.33-6.71-.69-9.42-.55,2.96.24,6.07.5,9.38.77,1.57.13,2.11.16,2.2.08Z"/><path d="m65.74,67.14c-.12-.04-.16-.07-.38-.11-1.63-.33,4.69.34-.07-.33-3.43-.47-5.66-.59-5.4-.33,2,.34,4.14.71,5.85.76Z"/><path d="m31.44,58.74c1.19.53,2.42,1.06,5.15,1.81.87.24,1.69.47,2.42.67h.02s.01,0,.01,0c1.24.26,2.26.51,2.97.73.8.15,1.84.36,2.14.36-.65-.19-1.29-.38-1.94-.58-1.05-.22-2.09-.44-3.14-.66h-.01s0,0,0,0c-2.44-.7-4.85-1.43-7.24-2.29l-.37-.06Z"/><path d="m87.79,67.4c-2.02.07,1.15.3,3.99.52,2.1.19,3.42.24,4.32.19l-.04-.15c-2.71-.11-5.41-.32-8.26-.55Z"/><path d="m57.19,11.41c2.04-.49,4.24-.88,6.37-1.33,2.14-.42,4.22-.79,6.04-1.22-4.17.59-8.3,1.54-12.42,2.43v.12Z"/><path d="m262.4,54.02c.76.33,5.25-1.69,7.85-2.79-.21-.03.5-.46-2.67.88-1.59.65-3.43,1.31-5.18,1.9Z"/><path d="m61.23,65.6c.39.16-.06.25,2.53.59,3.5.46,1.43-.06,3.46.12-2.76-.55-4-.48-5.99-.72Z"/><path d="m45.76,8.38c1.65-.47,3.32-.86,4.99-1.28-3.18.67-3.41.57-3.89.56-.28-.01-1.04.11-2.55.48-.56.13-1.44.39-1.6.47-.48.21.75-.11,1.72-.3,3.51-.74-2.73.93.32.3.32-.07.65-.15,1-.23Z"/><path d="m93.96,68.61c-2.3-.11-5.38-.74-7.19-.52q.96.28,7.19.52Z"/><path d="m29.51,59.24c-2.87-1.01-2.61-1.12-3.21-1.48-2.22-.82-4.49-2.07-6.27-2.83l.03.1c1.49.85,4.21,2.07,4.43,2.26.45.52,2.77,1.3,5.02,1.95Z"/><path d="m36.41,60.83c-1.48-.16,1.9.76,3.51,1.22l1.79.27,1.45.03c-2.31-.53-4.39-.83-6.75-1.53Z"/><path d="m281.77,27.85l-.13.16c1.62,1.37,3.1,2.91,4.26,4.87.04-.04.2.1.14-.09-.07-.18-.26-.75-1.25-2-1.57-1.82-2.46-2.49-2.28-2.56-.85-.65-.64-.38-.75-.38Z"/><path d="m32.93,18.83c2.12-.88,3.73-1.54,3.04-1.54-2.23.83-5.46,2.06-5.86,2.42l.47-.06c.78-.28,1.56-.56,2.34-.83Z"/><path d="m24.74,14.32c-1.64.55-.81.14-1.12.17-1.08.42-2.17.82-3.24,1.26-.42.43-.43.58,4.48-1.26l-.12-.17Z"/><path d="m226.85,10.85l-.19-.18c-2.22-.36-4.13-.62-5.76-.76,1.35.67,3.68.79,5.95.94Z"/><path d="m25.5,55.62s-.25-.02-.05.1c.55.34-2.57-.81.72.61,2.93,1.22.47.02.92.11.13.03,1.11.41,1.7.62-.69-.35-1.31-.67-3.29-1.45Z"/><path d="m43.73,15.49c-1.6.4-3.44.83-4.5,1.33l2.43-.7c.92-.26,1.71-.47,2.15-.54,1.5-.42,3-.88,4.52-1.26l-.97.17-3.63.98Z"/><path d="m166.56,67.47s.09-.04,0-.05c-.41-.04,1.3-.32-1.52-.08-.96.08-2.75.39-.91.34l2.43-.2Z"/><path d="m142.5,3.98c-.08.12-3.01.16-2.31.31l3.54.03c-.42-.11.81-.22-1.23-.34Z"/><path d="m138.42,1.08c-.08-.09-1.19-.16-2.42-.22-5.12.02,1.12.16-.27.22.22.02.52.02.89.02h1.53c.32,0,.41,0,.26-.02Z"/><path d="m18.88,55.26c-.69-.35-1.37-.71-2.06-1.08.81.66,3.32,1.98,4.87,2.81l.17-.06-.03-.16c-.56-.29-.98-.5-1.41-.72-.19-.01-.88-.4-1.55-.78Z"/><path d="m267.76,19.66c.15.17,2.54,1.01,3.2,1.38l1.74.66-1.35-.66c-1.13-.5-2.32-.96-3.59-1.37Z"/><path d="m43.16,62.35l-1.45-.03c1.19.26,2.39.45,3.59.68l.18-.14-2.32-.51Z"/><path d="m96.98,68.81c.68.15,1.6.28,3.63.21-.97-.11-1.35-.29-3.63-.21Z"/><path d="m89.31,6.27l3.63-.46c.15-.18-1.85.07-3.64.28v.17Z"/><path d="m107.38,69.29c1.73.02,3.68.1,4.9,0-2.49-.18-3.82-.12-4.9,0Z"/><path d="m178.75,66.27c-1.14.07-2.46.23-3.94.44,1.27-.12,2.03-.03,3.94-.44Z"/><path d="m47.36,14.51l.97-.17,2.24-.56-.11-.04c-1.03.19-2.06.43-3.1.77Z"/><path d="m6.97,45.91s-.04,0-.14-.08c.12.11.25.22.4.35.11.04.22.08.33.12l-.6-.39Z"/><path d="m43.81,15.59c-.44.07-1.23.28-2.15.54,0,.1.74-.08,2.15-.54Z"/><path d="m17.4,18.24c-.14,0,.03-.15-1.13.41-.84.4-.66.38-.02.11l1.15-.52Z"/><path d="m21.86,56.92l-.17.06c1.08.52,1.88.82,2.26.91-.7-.3-1.41-.63-2.09-.97Z"/><path d="m16.73,54.17c-.89-.51-1.76-1.03-2.63-1.58,1.04.77,1.93,1.29,2.63,1.58Z"/><path d="m136.75,4.16l-.03.19c.77.01,1.17,0,1.2-.05-.11-.06.46-.13-1.18-.15Z"/><path d="m211.59,64.58l.38.08c1.2-.18.45-.15.71-.22-.37.03-.73.08-1.09.14Z"/><path d="m56.92,5.2c1.14-.16,2.36-.32,2.46-.46-1.04.16-2.08.31-2.46.46Z"/><path d="m31.8,58.8c2.39.85,4.8,1.59,7.24,2.29h0s.01,0,.01,0c1.04.22,2.09.44,3.14.66,1.23.24,1.78.31,1.89.27l.19-.14c-1.95-.39-2.58-.57-1.87-.52.34.02.8.06-.49-.21-.38-.07-.98-.19-1.48-.28-.5-.09-.91-.15-.91-.15.03.05-.1.06-.4.03h0c-1.14-.16-4.84-1.28-6.47-1.74-.41-.11-.58-.13-.87-.2Z"/><path d="m106.17,69.12c2.45.13,4.9.27,7.28.21-4.11-.14-.75-.27-3.64-.41l-4.62-.24c.59.15,3.04.35.97.44Z"/><path d="m14.71,26.89c1.67-1,3.87-2.24,6.24-3.38-.1-.03.2-.26-.41-.02-.8.32,2.29-1.28-.56.09-1.95.98-1.51.9-1.27.84.11-.02.18.08-1.12.66-2.36,1.11-1.73,1.11-2.89,1.82Z"/><path d="m65.96,65.71l3.45.51c.46-.01,3.42.3.82-.1-2.75-.42-3.7-.44-4.27-.41Z"/><path d="m57.75,64.45c-1.01-.13-1.94-.21-1.33-.08,1.82.41,3.96.59,5.99.91-.15-.19-2.82-.52-4.66-.83Z"/><path d="m6.66,36.27c-.2.77-.16,1.57-.16,2.36.01.39.11.78.17,1.17l.1.58c.05.19.12.37.18.56.01-.14-.12-.55-.17-1.19-.03-.32-.11-.68-.14-1.08,0-.41,0-.85,0-1.32.18-1.43.06-.97.01-1.09Z"/><path d="m50.55,13.54c.31-.08.63-.16.96-.25l.1-.14c-1.36.35-3.03.74-3.62.98l2.55-.6Z"/><path d="m70.31,66.32c.46.2,2.1.36,3.74.51l-.1-.13c-1.23-.13-2.44-.25-3.64-.38Z"/><path d="m48.36,62.4c-.24-.06-.48-.11-.71-.16l-.66-.07c.29.06.64.13.87.18.22.04.33.03.5.05Z"/><path d="m11.87,29.02c.69-.56,1.38-1.12,2.11-1.63-.29.17-.52.27-.89.53-1.02.8-.97.84-1.22,1.1Z"/><path d="m56.76,64.12l1.09.29c1.75.18.39-.04-1.09-.29Z"/><path d="m73.95,66.7c.62.06,1.54.17,1.53.11,0,0-.45-.08-.67-.1-1.06-.1-.76-.04-.86-.01Z"/><path d="m44.28,61.87l-.19.14c1.48.23,1.61.19.19-.14Z"/><path d="m15.12,50.31s.15.14.28.24c0-.03-.15-.14-.28-.24Z"/><path d="m53.91,12.62l.04-.07c-.77.19-1.55.38-2.31.6.74-.19,1.51-.36,2.28-.53Z"/><path d="m53.28,63.61l-.25-.07c.09.02.19.05.25.07Z"/><path d="m74.63,66.89l.33.1c1,.07.8.02-.33-.1Z"/><path d="m26.89,13.8c-1.29.58-3.31,1.45-1.75,1.02.67-.18,1.46-.41,2.82-.9,2.02-.72,2.22-.89,2.46-1.07-1.08.28-1.64.37-.78-.06.39-.2.27-.21-.92.21-1.44.51-1.63.66-1.83.8Z"/><path d="m124.17.38c-3.11.06-2.07.18-2.35.28,1.15,0,2.77-.07,2.93.05.08.06,1.2.12,2.22.09,1.05-.03,2.01-.11,2.38-.17.61-.11-1.4-.05-2.03-.07-1.24-.07-2.13-.12-3.16-.17Z"/><path d="m64.8,4.7c2.13.02,5.99-.58,9.67-1-2.71.1-5.77.36-9.67,1Z"/><path d="m61.96,5.13l1.18-.19c.2-.05.32-.09.6-.14,2.19-.38,3.66-.64,1.36-.49-.6.03-2.24.24-1.95.26.68.05-6.55,1.18-1.19.56Z"/><path d="m37.03,10.78c1.07-.31,2.13-.65,3.21-.92,0-.09,2.67-.95-.2-.21-2.12.56-3.54,1.16-3.01,1.13Z"/><path d="m52.3,6.79l3.68-.53c-.1-.06,1.86-.47.17-.25-1.34.19-2.78.51-3.85.78Z"/><path d="m117.04.83c-.68,0-1.09-.02-1.48-.01-.43.01-.84.05-1.26.08.36,0,.69.03,1.08.02.41,0,.89-.05,1.66-.09Z"/><path d="m58.46,5.85c1.05-.2,2.11-.38,3.17-.55.15-.03.3-.06.46-.09l-.16-.04c-1.43.22-3.52.55-3.47.68Z"/><path d="m34.22,11.67c.91-.27,1.84-.47,2.74-.87-.91.29-1.84.55-2.74.87Z"/><path d="m110.05,1.38c-.33,0-.49.01-.66.03.12,0,.24,0,.66-.03Z"/><path d="m261.68,55.31c1.23-.41,2.65-.88,3.35-1.23.48-.38,4.2-1.62,5.58-2.37.52-.27,2.43-.88,3.15-1.41.44-.32-1.34.45-2.48.85-1.15.41-2.03.77-3.58,1.45-1.94.86-4.25,1.74-6.13,2.11-1.12.23-3.06.93-4.2,1.31-2,.67-.34.26.85-.04,1.89-.46,3.75-.96,3.46-.68Z"/><path d="m281.77,27.85c.11,0-.1-.26.75.38.3.06,2.33,2.07,1.41.99-.16-.19-.44-.49-.75-.81-.33-.3-.68-.61-.97-.85-2-1.5-.76-.39-1.24-.66-.27-.14-.48-.25-.88-.47-.76-.47-3.02-1.75-2.22-1.18.92.65,2.57,1.51,3.9,2.58Z"/><path d="m287.03,34.22c.05.24.11.47.16.7.07.21.1.44.15.66-.03-.3-.04-.65-.13-.88-.06-.21-.12-.31-.18-.47Z"/><path d="m240.29,60.69l-1.13.23c.37-.07.76-.15,1.13-.23Z"/><path d="m149.24,68.21c.24.03.31.09,1.86-.05-.21-.03-.95,0-1.86.05Z"/><path d="m189.65,67.59l2.37-.2c.02-.09-.53-.17.19-.27,1.28-.17,2.42-.32,1.98-.38-.22-.03-.92.05-1.19.1-1.01.18-4.43.45-3.51.56.3.04.12.13.16.19Z"/><path d="m182.77,67.91c.73,0,.78.1,2.45-.02.23-.02.81-.11.74-.13-.33-.09-1.93.06-3.19.15Z"/><path d="m156.15,69.36c.34-.01.68-.02,1.02-.03,0-.05.21-.12-1.13-.08l.11.11Z"/><path d="m202.28,66.07l.26-.14c-1.36.13-1.16.18-1.34.24l1.08-.1Z"/><path d="m196.66,66.84l-.42-.05c-1.11.15.03.07.42.05Z"/><path d="m109.82,68.93c2.89.14-.48.27,3.64.41,1.5.05,2.55,0,3.34-.04,1.66-.1,3.69-.19.61-.36-4.85-.24-5.06,0-7.58,0Z"/><path d="m129.31,68.92c-1.67.04-4.34-.06-4.2.12.05.06.72.16,2.62.11,1.83-.05,4.52-.17,4.62-.23.2-.13-2.18.02-3.04,0Z"/><path d="m127.48,69.37c1.31.05,2.12.12,3.07.11,1.2,0,3.34-.04,3.42-.16.04-.06-.74-.08-2.01-.07-1.37.04-2.71.07-4.48.12Z"/><path d="m143.42,68.54c.16.03.17.08,1.38,0,.38-.02.58-.08.87-.12l-2.25.11Z"/><path d="m122.88,69.17c.38-.02.14-.02-.09-.02l.09.02Z"/><path d="m141.21,68.58l.53-.02.53-.02c-.35,0-.7,0-1.05.04Z"/><path d="m3.74,42.47c.05.25.72,1.27,1.89,2.47,1.52,1.51,1.02.82,1.22.9-.73-.74-1.13-1.09-1.55-1.51-.42-.41-.87-.86-1.57-1.87Z"/><path d="m11.1,20.68c.1.06-.42.47,2.08-.89-.19.02.26-.36-.96.25l-1.12.64Z"/><path d="m3.72,42.45l-.13-.22c.05.08.09.16.13.22Z"/><path d="m228.92,11.2l-2.08-.35c.36.11-.72.04.95.3.95.15,1.2.12,1.13.05Z"/><path d="m200.69,7.16c-1.89-.24-3.83-.46-3.84-.29,1.41.11,2.99.28,3.84.29Z"/><path d="m29.51,59.24c-2.26-.65-4.58-1.43-5.02-1.95-.22-.19-2.94-1.41-4.43-2.26.76.57,1.35,1.05,2.34,1.7,2.11,1.43,6.5,3.03,10.19,3.8.46.11.7.11,1.26.24,2.08.5,2.28.32.25-.32-.85-.27-.85-.26-1.37-.26-.25,0-.21.1-1.76-.35-.48-.13-.97-.39-1.46-.59Z"/><path d="m46.56,63.32l-1.24-.26c-2.23-.21,1.12.68.97.89l3.47.51c.36-.15-4.17-1.09-3.21-1.14Z"/><path d="m40.67,62.83c1.24.29,2.52.57,3.46.69-.03-.02,0-.03-.11-.05-1.52-.38-1.19-.53-3.07-.92-2.77-.56.27.29-.28.29Z"/><path d="m34.69,61.15c-.33-.07-.71-.16-.69-.14.09.06.33.16.51.25.15.02.42.08.43.06.02-.03-.14-.1-.25-.17Z"/><path d="m18.88,55.26c.67.39,1.36.77,1.55.78-.65-.35-1.53-.89-1.55-.78Z"/><path d="m21.83,56.76l.45.18c-.19-.08-.38-.17-.45-.18Z"/><path d="m221.8,63.38l-3.26.47c-.93.43-6.4,1.08-8.15,1.51.19.07-.26.25,2.37-.1-1.13.01.77-.3,1.97-.49,1.47-.23,2.18-.24,2.74-.24l3.31-.46c6.17-1.2,6.26-1.3,1.02-.69Z"/><path d="m217.47,64.53c-.56,0-1.28.01-2.74.24-1.2.19-3.1.5-1.97.49,1.79-.24,4.02-.46,4.71-.74Z"/><path d="m233.66,61.84c-3.18.22-4.1.79-6.13,1.14,2.52-.26,4.35-.72,6.13-1.14Z"/><path d="m240.31,60.69l-1.18.24c.4-.02.8-.09,1.18-.24Z"/><path d="m90.1,68.59c-2.28-.15-2.4-.06-2.59.02.34.15-.86.06-2.12-.08-.72.08-.23.29-3.52.07-.69.12,2.91.33,3.42.48,4.65.11,5.04-.17,4.81-.49Z"/><path d="m53.25,64.65l-1.45-.22c.8.19,1.02.17,1.45.22Z"/><path d="m106.87,4.96c.55-.1.7-.17.84-.24-2.34.18-4.67.33-6.99.54-2.09.2-2.14.28-2.22.37,1.25-.1,2.77-.27,3.52-.24l4.84-.43Z"/><path d="m100.72,5.26c2.32-.21,4.65-.36,6.97-.54l.08-.14c-2.69.2-5.38.34-8.06.59l1.01.1Z"/><path d="m74.36,8.8c.05.05.18.1,1.45-.09.57-.09,1.32-.26,2-.38-.83.04-2.18.26-3.45.47Z"/><path d="m102.03,5.39c-.75-.02-2.27.15-3.52.24.72.02,2.15-.12,3.52-.24Z"/><path d="m88.13,6.47s-1.08.2-.05.11c.11,0,.43-.05.53-.07.66-.13.27-.11-.48-.04Z"/><path d="m136.37,69.49c-1.96.09-3.72-.35-5.8.08-.32.3,3.91.09,5.86.12-.03-.07-.05-.13-.06-.2Z"/><path d="m112.06,69.78h.48c-.15,0-.3,0-.48,0Z"/><path d="m136.43,69.69l.25.02c-.09,0-.18-.02-.25-.02Z"/><path d="m53.91,12.62c-.77.17-1.54.34-2.3.54l-.1.14c1.6-.4,2.38-.57,2.4-.67Z"/><path d="m187.37,5.82c-5.89-.68-6.6-.5-6.63-.25l1.24.39c4.37.55,6.89.54,10.31.82.44-.19.17-.43-4.92-.96Z"/><path d="m131.25,3.97h-.5s.21.03.5,0Z"/><path d="m61.63,5.3l.82-.1c-.12,0-.25,0-.37,0-.15.03-.31.06-.45.09Z"/><path d="m142.54,3.98c-.4-.02-.81-.04-1.22-.07,0,0-.22.01-.33.02.51.02,1.01.03,1.56.05Z"/><path d="m208.38,8.8l2.19.35c-.14-.11-.23-.21-2.19-.35Z"/><path d="m107.71,4.71c-.15.07-.29.14-.44.22,1.14-.09,2.42-.16,2.61-.25.19-.09-.92-.06-2.16.03Z"/><path d="m97.16,69.1c-.13.07-.18.13.95.23-.12-.07.4-.13-.95-.23Z"/><path d="m102.79,69.71l-.24-.04c.08.01.17.03.24.04Z"/><path d="m93.63,69.2c.24.06.22.13.78.19.74.07,1.45.04,1.22,0-.47-.1,1.91-.14-1.66-.3-.12.04-.23.08-.35.12Z"/><path d="m93.63,69.2c.11-.04.23-.08.35-.12-1.77-.06-1.63,0-.35.12Z"/><path d="m165.78,68.94c.16,0,.31.01.51.02.02,0,.41-.03.43-.04.05-.02-.02-.04-.04-.05l-.9.07Z"/><path d="m271.83,21.78l-.44-.16c.16.06.33.12.44.16Z"/><path d="m118.42.48l1.81-.08-.46-.03c-.48.04-.95.08-1.35.11Z"/><path d="m155.39,69.57h-1.48c.11.04.41.06.71.08l.77-.08Z"/><path d="m85.39,68.53c1.26.14,2.46.23,2.12.08l-2.12-.08Z"/>
                  </g>
                </mask>
              </defs>
              <path class="mask" d="m158.98,1.37c-24.33-1.33-44.68-.72-59.28.16-24.68,1.5-46.7,2.97-68.94,11C19,16.78,4.72,21.93,1.36,30.82c-4.9,12.94,17.08,23.8,21.06,25.77,3.13,1.54,15.38,7.02,51.22,10.94,21.84,2.39,44.95,2.49,67.78,1.97,36.57-.82,74.06-3.31,106.66-10.96,19.45-4.57,38.16-12.08,39.24-21.33.71-6.03-6.48-11.71-16.62-15.74-10.14-4.03-23-6.62-35.97-8.84-31.63-5.41-65.59-8.99-100.28-8.74-34.68.25-70.2,4.53-98.57,13.55-11.12,3.53-21.35,7.95-26.16,13.43-7.18,8.18-.68,17.49,12.63,23.72,5.37,2.52,10.95,4.57,16.76,6.23,10.52,2.18,22.23,4.13,35.1,5.6,55.38,6.31,104.07.39,134.27-5.05"
                    mask="url(#path-mask)" stroke="black" stroke-width="2" fill="none"
                    stroke-dasharray="987.3195190429688" stroke-dashoffset="987.3195190429688">
              </path>
            </svg>
        