
            <svg xmlns="http://www.w3.org/2000/svg">
              <defs>
                <mask id="path-mask">
                  <g fill="white">
                    <path d="m64.25,62.47c3.15.34,1.17-.07,1.81-.09l2.25.33c1.84.33,3.99.62,5.74.92,1.8.31,4.4.63,6.92.82,2.52.16,4.96.25,6.42.21,1.99.19,3.25.23,4.11.17,2.65.22,6.61.27,8.65.56.56.15,2.89.35.93.44-1.42.07-2.96.02-5.22-.19-1.87-.17-3.57-.25-4.64-.19-.59-.03-1.18-.06-1.76-.11-2.19-.1-5.12-.72-6.84-.49-.68-.06-1.94-.16-1.97-.17-1.74.14-5.76-.41-9.24-.8l-.04-.09c.96.06.76.02-.31-.1-.17-.02-.36-.03-.55-.05l-.1-.13c.59.06,1.46.16,1.46.11,0,0-.42-.08-.64-.1-1-.1-.73-.03-.84-.01l-3.45-.35c-.28-.03-.56-.07-.85-.1.43-.01,3.26.28.78-.1-2.62-.41-3.52-.42-4.07-.38-.51.05-1.63-.08-3.38-.41-.14-.19-2.68-.5-4.43-.8l.09-.04c1.66.16.37-.04-1.04-.28-1.9-.41-2.1-.29-3.31-.48l-.24-.06.27.07c-.13.07.57.33-2.91-.32-2.16-.41-4.02-.72-3.68-.5l-2.15-.39-1.84-.56c1.17.23,1.69.29,1.8.25,1.41.22,1.54.18.18-.14-1.86-.37-2.46-.55-1.78-.51.32.02.76.05-.46-.21-.36-.07-.93-.18-1.41-.27-.48-.09-.86-.14-.86-.14.03.05-.1.06-.39.04h0c-1.09-.14-4.61-1.21-6.16-1.64-.39-.1-.56-.13-.83-.18l-.35-.05c-4.23-1.53-8.53-3.43-12.16-5.25-.93-.44-2.11-1.28-2.94-1.87-.74-.55-1.34-1.03-1.89-1.42-.52-.42-.96-.77-1.38-1.06-.56-.47-1.04-1.03-1.56-1.55-.5-.53-.93-1.13-1.4-1.7-.81-1.23-1.61-2.49-2-3.94l.02-.17c.01-.13-.11-.53-.16-1.14-.03-.3-.1-.65-.13-1.03,0-.39,0-.81,0-1.25.17-1.36.06-.93,0-1.04.42-2.46,1.89-4.59,3.6-6.33,1.77-1.72,3.82-3.15,6-4.43l-.18.08c.04-.06-.32.1.51-.38.22-.17.28-.26,1.38-.85-.31.34,1.84-.74,3.64-1.52,3.86-1.69,8.49-3.25,11.97-4.46,2.41-.83,4.06-1.33,6.44-2.02,1.45-.39.62-.28.72-.37,4.64-1.32,9.32-2.45,14.03-3.49v.12c-.91.28-.67.29-.2.26.82-.05-.37.28-2.88.84-.74.18-1.47.37-2.2.58-1.32.33-2.91.7-3.46.94l2.43-.57c.32-.02,1.76-.32-.07.19-.98.18-1.96.41-2.95.73l-3.46.94c-1.48.17-4.3.88-7.39,1.69-2.12.79-5.2,1.97-5.57,2.32-2.97,1.04-5.89,2.18-8.73,3.61-.1-.03.19-.25-.39-.03-.77.3,2.17-1.22-.53.08-1.86.93-1.44.86-1.21.81.11-.02.18.09-1.06.63-2.25,1.06-1.65,1.05-3.43,2.2-.28.16-.5.26-.85.5-.98.76-.92.8-1.16,1.05-.75.66-1.48,1.34-2.1,2.11l-.9,1.18c-.25.42-.48.86-.72,1.3-.87,1.78-1.19,3.85-.76,5.92.25,1.07.58,1.86.94,2.4.17.28.32.51.45.7.16.17.29.32.41.44,1.74,2.72,4.26,4.88,6.97,6.68,2.72,1.81,5.67,3.25,8.68,4.55-.03.03-.24-.02-.05.1.52.33-2.45-.76.68.6,2.79,1.16.45,0,.88.09.12.03,1.06.39,1.62.59,3.16,1.16,6.52,2.26,9.92,3.23h-.03c2.26.46,4.52.91,6.76,1.33,1.65.32,4.37.64,5.66,1.05.74.22,3.56.79,6.6,1.33,3.04.54,6.3,1.02,7.9,1.2Zm-18.86-3.22l-.63-.06c.28.06.61.13.82.17.21.04.32.03.48.05-.23-.05-.45-.1-.67-.15Zm-30.61-11.07c-.1-.07-.24-.18-.36-.27,0,.03.14.14.36.27Z"/><path d="m70.76,2.71c7.36-.81,14.64-1.17,21.97-1.61,1,.29,5.73-.2,8.79-.29.62.08.55.19,3.82-.04,1.98-.15,4.85-.21,7.4-.29,2.04,0-4.23.52,3.24.18,1.1,0,2.64-.07,2.79.05.08.06,1.14.12,2.12.09,1-.03,1.91-.11,2.27-.17.58-.11-1.34-.05-1.94-.07-1.18-.07-2.02-.12-3.01-.18.6-.1,3.29-.07,3.14-.2,1.65.15,7.45-.05,7.44.21,0,.12-2.34.24-3.34.4-1.03.16-5.49.21-9.03.24-1.6.02-3.11-.01-4.7.03-1.53.03-3.42-.01-4.53.13-1.19.15,3.03-.04,2.26.11-2.43.17-4.98.3-7.81.36-.22-.19-.97-.32-5.18.1-3.13.32-7.11.29-10.13.69l-1.16.09-2.22.09c-3.73.05-7.73.32-12.04.95-2.58.09-5.49.33-9.2.94l-1.58.23c.19-.05.3-.09.57-.14,2.09-.37,3.48-.62,1.29-.48-.57.03-2.13.22-1.86.25.64.05-6.24,1.13-1.15.58-1.36.21-3.35.52-3.3.66l-2.35.39c-.1-.06,1.77-.45.16-.25-1.28.18-2.64.48-3.66.75-.49.09-.99.19-1.48.3-3.03.64-3.25.54-3.7.52-.27-.01-.99.1-2.43.45-.54.13-1.37.37-1.52.45-.45.21.71-.1,1.64-.28,3.34-.7-2.59.9.31.31-.69.29-2.53.77-4.24,1.26l-.05-.08c0-.09,2.54-.92-.2-.21-2.02.53-3.37,1.11-2.93,1.11-.87.27-1.75.52-2.61.83l-3.62,1.11c-1.03.27-1.56.35-.75-.07.37-.19.26-.21-.88.19-1.37.49-1.55.63-1.74.77l-1.93.65-.12-.17c3.23-1.21,6.88-2.58,9.16-3.08.86-.2,2.07-.6,2.24-.77.12-.11-.16-.11,1.22-.58,5.69-1.9,11.74-3.31,18.01-4.26,3.84-.46,11.78-1.53,16.55-2.24Zm39.26-1.9c-.41.01-.8.05-1.2.08.34,0,.65.03,1.03.02.39,0,.85-.04,1.58-.09-.65,0-1.03-.02-1.41-.01Z"/><path d="m267.05,43.64c2.27-1.72,3.27-2.58,4.3-3.63.46-.56.44,0,1.52-2.05.36-.87.4-1.23.37-1.32-.02-.09-.13.08-.23.22-.19.28-.38.39-.55.57.43-.98.62-2.04.59-3.08-.07-1.05-.42-2.07-.9-3.02.04-.04.19.09.14-.09-.07-.17-.25-.71-1.18-1.9-1.49-1.73-2.34-2.37-2.16-2.44.29.06,2.22,1.96,1.35.94-.16-.18-.42-.47-.71-.77-.31-.28-.65-.58-.92-.81-1.91-1.43-.73-.36-1.19-.62-.26-.14-.46-.24-.84-.44-.72-.45-2.88-1.66-2.12-1.11.87.62,2.45,1.44,3.71,2.46l-.13.16c-2.51-1.92-5.27-3.44-8.09-4.74-2.82-1.3-5.72-2.38-8.63-3.35.51.04.94.06,1.87.29.92.23,2.34.69,4.77,1.75.8.35,2.1.9,2.46.98.38.08-.59-.42-1.7-.89-.32-.26-.64-.51-.82-.72l1.65.62-1.28-.63c3.97,1.46,7.53,3.37,10.4,5.83.67.74,2.04,2.06,3.32,3.58.64.71,1.24,1.73,1.65,2.91.43,1.19.47,2.6.21,3.87-.27,1.28-.86,2.4-1.44,3.29-.58.9-1.15,1.61-1.52,2.14-2.69,2.58-5.98,4.61-9.31,6.26.02-.29-2.54.94-4.7,1.89-1.93.86-3.11,1.27-4.62,1.74.45-.37,4-1.54,5.31-2.27.49-.26,2.32-.83,3-1.34.42-.3-1.28.42-2.36.79-1.1.39-1.94.73-3.41,1.38-1.84.83-4.05,1.67-5.84,2.01-1.07.21-2.91.88-3.99,1.25-1.9.64-.32.25.81-.02,1.8-.43,3.57-.91,3.3-.63l-1.1.42c-2.06.36-5.88,1.58-9.19,2.37-1.28.33-4.22,1.09-3.41.63.2-.11-3.8.89-3.9.98-.21.2-1.29.43-2.76.72l-1.08.22c-2,.47-4.38,1.03-3.6.59.98-.35.95-.33-.77-.07-.76.11-1.77.26-1.94.24-.6-.05,2.45-.55,2.92-.74,3.06-.65,6.27-1.43,8.91-1.77.68-.08,2.6-.61,2.47-.61-.55.04,3.63-1.01.65-.41.11-.1.43-.19,1.64-.47,3.96-.94,7.94-1.94,11.83-3.37.73.34,4.99-1.61,7.47-2.64,2.87-1.23,4.87-2.39,7.7-4.04-.28.27-.92.73-.89.78.01.02.19-.06.66-.33.47-.27,1.22-.74,2.33-1.55Zm6.33-10.38c.06.2.1.42.15.62-.03-.28-.04-.61-.12-.84-.06-.2-.11-.3-.17-.45.05.23.1.45.15.66Z"/><path d="m170.18,63.12c3.91-.53,8.69-1.04,12.27-1.72,3.21-.26,8.04-1.18,11.81-1.77,1.07-.17,1.48-.25,2.24-.41,2.33-.48,2.85-.96.25-.56-2.73.42-3.6.5-4.31.51-.74,0-2.1.1-4.67.71-.28.07-1.35.26-1.81.31-4.48.6-8.79,1.29-13.22,1.84-10.2,1.25-20.43,2.2-30.69,2.79l.03.12c.87-.05,1.57-.07,1.77-.04,1.52-.12,3.34-.26,4.6-.36,3.04-.18,6.75-.64,9.16-.68,1.44.02,11.88-.92,13.98-1.27.35-.05.71-.12.66-.13-.53-.1,1.45-.24,2.34-.34,1.08-.11,1.74-.13,2.68-.21.53-.04,2.18-.3,2.03-.23-.09.05-1.04.21-2.32.39-2.67.4-6.47.8-6.8,1.05Z"/><path d="m156.27,66.15c2.68-.16,5.87-.29,7.63-.58-.77.02-1.77.02-2.3.07-2.07.16-4.02.32-5.54.22-1.25-.09.5-.25,1.75-.4,2.23-.27,3.95-.28,5.77-.27,1.14.01,3.03-.06,3.96-.18,3.15-.41,4.57-.31,6.45-.33,1.2-.08,2.72-.22,3.04-.14.06.02-.49.11-.71.13-1.58.11-1.63.02-2.33,0l-3.36.58c2.24.15,5.13-.24,7.85-.51-.08-.09.09-.19,2.06-.36-.04-.06.13-.15-.16-.19-.88-.12,2.37-.37,3.34-.55.26-.05.93-.13,1.14-.09.42.07-.67.21-1.88.38-.69.1-.16.18-.18.27,1.07-.19,4.15-.3,4.45-.53-.4.02-1.49.09-.43-.05l.4.05c1.57-.11.63.16,2.57-.04.68-.07,1.23-.27,1.83-.4-.03-.06.2-.13,1.13-.25-.05-.02-.11-.03-.18-.05l-1.03.1c-1.71.06-7.07.47.18-.35.47-.05.69-.16,1.02-.24-3.13.32-6.4.76-9.25.78-.35.01-4.54.54-7.35.75-.77.14-1.72.24-3.41.36-4.95.36-10.13.49-14.86.91-1.91-.12-5.32.27-7.33.22-1.97-.04-3.55-.01-5.99.17-3.32.25-4.76.18-4.84-.04l-5.47.16c.25.13-1.25.25-2.34.37,2.51.12,5.12.24-.18.52-.68.04-.23.08.45.1,2.14-.18,5.28-.06,7.09-.23,4.16-.38,3.34-.1,3.9.01l1.16-.04c.11-.08.73-.15,2.06-.19.15-.11,1.04-.16,2.32-.22l-.1-.11c1.27-.04,1.07.03,1.07.08,2.49.02,6.24-.11,6.65.11Z"/><path d="m108.02,66.04c1.42.05,2.43,0,3.18-.05,1.58-.1,3.51-.2.58-.36-4.61-.24-4.82,0-7.22,0l-4.4-.24c-2.04-.29-6-.34-8.65-.56l-.04-.15c2.54.15,5.5.15,7.4.38,2.39.27,4.89.28,7.7.34,11.06.14,22.18.02,33.31-.48.2.06.19.12-1.2.23l-2.14.1h-1.11c-.34,0-.67,0-1,.04-7.03.25-8.01.34-5.33.5.08,0,.11.01.16.02,6.21-.32,7.89.04,13.96-.36,2.52-.2,5.88-.45,6.57-.3-1.66.12-3.51.41-4.07.36-1.06-.08-2.79.11-4.48.19-3.02.15-6.01.32-9.02.39-3.01.1-6.04.21-9.15.24-8.85.21-18-.06-27.06-.49-1.8-.09-4.67-.19-4.8-.38,1.07-.07,2.77.01,4.64.19,2.26.21,3.8.26,5.22.19,2.33.13,4.66.27,6.94.2Zm11.09-.3c.05.06.69.16,2.49.11,1.75-.05,4.31-.16,4.4-.23.19-.13-2.08.02-2.9,0-1.59.04-4.13-.06-3.99.12Zm5.19.44c1.14,0,3.18-.04,3.26-.16.04-.06-.7-.08-1.92-.07-1.31.04-2.58.07-4.26.12,1.25.05,2.02.12,2.93.11Zm-6.73-.33h-.67s.08.01.08.01c.5,0,.52,0,.58-.01Z"/><path d="m13.22,17.86c-2.43,1.33-4.35,2.36-6.89,4.25-1.83,1.37-3.77,3.23-5.03,5.69-.62,1.22-1.08,2.57-1.23,3.96-.17,1.39-.01,2.81.35,4.1.7,2.61,2.27,5.07,3.98,6.82l.16-.11c-.32-.48-1.13-1.71,0-.39,1.75,1.88,2.69,2.51,3.44,3.02.76.5,1.38.87,2.83,1.86-1.5-1.11-2.79-2.14-3.9-3.1-.14-.13-.26-.23-.36-.32-.2-.08.28.58-1.17-.85-1.12-1.15-1.75-2.11-1.8-2.36l-.13-.23.12.21c.67.97,1.1,1.4,1.5,1.79.4.39.78.72,1.46,1.42.1.08.14.1.13.08-1.46-1.67-3.36-3.63-4.41-5.81-.77-1.32-1.29-2.85-1.36-4.46-.08-1.6.29-3.24,1.08-4.67.42-.88.87-1.34,1.37-2.32.86-1.47,2.73-3.17,4.71-4.48,2.75-2.03,1.38-1.28.55-.99-.2.09-.84.44.16-.26.87-.57,1.4-.88,1.8-1.03l1.07-.61c-.65.17,2.23-1.43,1.57-1.23Z"/><path d="m210.29,9.43c-2.14-.43-4.37-.86-7.36-1.17-3.74-.32-7.69-.8-11.88-1.45-.81,0-2.31-.17-3.65-.27l-2.23-.3c.26.09.66.26.76.27,4.09.39,6.8.98,10.73,1.45,2.86.34,5.47.71,6.21,1.04.02,0,.31.05.47.08.54.05,1.09.1,1.63.15-.44-.32,2.43.12,4.62.47,7.19,1.15,14.45,2.19,21.69,3.68,4.36.92,4.61.92,2.47.77-.65-.04-1.08-.05-1.61-.06,4.17.75,8.93,1.92,12.3,2.51-.77-.22-1.51-.43-2.31-.63-1.32-.33-3.26-.61-3.8-.88-.22-.12,1.89.23,3.22.47.71.14,2.03.46,3.07.72.87.21,1.82.47,2.25.52.57.07-.33-.22-1.22-.49-1.4-.42-1.74-.66-3.96-1.18-2.76-.8-5.84-1.53-9.56-2.17-4.27-.61-9.23-1.45-14.22-2.29.06.07-.18.1-1.08-.04-1.59-.26-.56-.19-.9-.3-2.14-.14-4.36-.24-5.64-.9Z"/><path d="m136.54,65.26h-1.11s-.5.02-.5.02l-.5.02c-7.03.25-8.01.34-5.33.5.08,0,.11.01.16.02,6.21-.32,7.89.04,13.96-.36,2.52-.2,5.88-.45,6.57-.3,1.83-.19,5.1-.46,6.46-.69-1.76.05-.05-.26.86-.33,2.69-.22,1.06.05,1.45.09.08,0,0,.03,0,.05,2.07-.04,5.55-.58,7.86-.72,1.41-.21,2.66-.36,3.75-.42.34-.24,4.14-.64,6.81-1.05,1.28-.18,2.23-.34,2.32-.39.15-.07-1.5.18-2.03.23-.93.08-1.6.11-2.68.21-.9.1-2.87.24-2.34.34.06,0-.31.08-.66.13-2.1.35-12.54,1.28-13.98,1.27-2.41.04-6.12.49-9.16.68-1.26.1-3.08.24-4.6.36-1.48.13-1.55.07-1.77.04l-.03-.12-2.18.1c.2.06.19.12-1.2.23-.27.04-.47.1-.83.12-1.15.07-1.16.02-1.31-.01Z"/><path d="m19.11,52.29l.03.1c.72.55,1.27,1.01,2.21,1.63,2.01,1.37,6.18,2.9,9.7,3.62.44.1.67.1,1.2.23,1.99.47,2.17.29.24-.32-.8-.26-.81-.25-1.31-.25-.24,0-.2.11-1.68-.33-.45-.13-.92-.37-1.39-.57-2.73-.96-2.49-1.08-3.05-1.43,3.1,1.09,6.33,2.02,9.61,2.92-1.41-.14,1.81.73,3.33,1.18l1.71.25c1.13.24,2.28.43,3.42.65.05.03.06.05.03.06-2.12-.19,1.06.67.92.87l-2.07-.41s0-.03-.11-.05c-1.45-.37-1.13-.52-2.92-.89-2.64-.53.26.29-.27.29l-1.26-.13c-4.97-1.18-10.05-2.51-14.66-4.56-.67-.29-1.34-.6-1.99-.92l-.02-.16.43.17-.55-.24-1.22-.61c-.62-.33-1.45-.85-1.48-.74-.66-.33-1.31-.67-1.96-1.03l.28.13.28.19c-1.26-.85-4.45-2.86-5.16-3.71-.17-.19-1.26-.93-2.51-1.87-1.26-.94-2.67-2.12-3.59-3.04-.31-.3-.51-.49-.76-.73-.32-.48-1.13-1.71,0-.39,1.75,1.88,2.69,2.51,3.44,3.02.76.5,1.38.87,2.83,1.86,2.77,1.94,5.57,3.63,8.28,5.21Zm13.28,5.83c.08.06.31.16.48.24.15.02.4.07.41.05.02-.03-.13-.1-.24-.17-.32-.06-.68-.15-.65-.13Z"/><path d="m180.54,64.38c-1.97.17-2.14.27-2.06.36l1.85-.12,1.42-.13c3.55-.25,6.97-.5,10.71-.98,1.53-.19,3.74-.46,5.57-.59,2.01-.13,5.79-.64,6.43-.73,6.75-1.14,13.3-2.04,19.78-3.13,2.38-.42,3.84-.83,5.78-1.22,9.87-2.08,19.73-4.6,29.05-8.68,1-.44,2.02-.9,2.55-1.26.02-.29-2.54.94-4.7,1.89-1.93.86-3.11,1.27-4.62,1.74-.66.34-2.01.78-3.18,1.17l-1.1.42c-2.06.36-5.88,1.58-9.19,2.37-1.28.33-4.22,1.09-3.41.63.2-.11-3.8.89-3.9.98-.21.2-1.29.43-2.76.72-.34.14-.72.21-1.1.22-1.98.46-4.36,1.02-3.57.58-.54.1-1.09.19-1.64.29-1.69.4-3.44.85-5.84,1.09-1.95.47-3.83,1.03-6.41,1.03l-3.15.44c-.66.28-2.78.48-4.49.71-2.5.33-2.07.15-2.25.08-2.86.58-5.76.85-8.67.97-.61.14-1.15.33-1.83.4-1.94.2-1-.07-2.57.04-.26.23-3.34.33-4.41.53l-2.25.19Z"/><path d="m62.6,63.96c1.53.34,3.23.58,5.55.73-1.3-.26-2.57-.53-1-.48,1.23.04,2.14.33,3.47.43,1.71.39,2.71.37,3.87.36,1.32-.01,2.61.07,3.48.33,3.13.2,2.66,0,3.23-.09-.45-.19-2.97-.42-4.18-.66-2.06-.32-4.81-.61-7.43-.84-1.97-.18-3.67-.37-5.55-.63-1.93-.17.03.33-3.3-.1-2.47-.32-2.04-.42-2.41-.58l-2.19-.31c.14.12.42.26.38.35-.03.06-1.04-.07-1.98-.21-.82-.12-1.43-.25-.95-.23.71.04,2.63.26.62-.11-.51-.08-2.3-.26-3.5-.4-.38-.04-.59-.01-1.35-.2l1.38.21c-.79-.39-3.51-.81-6.37-1.27-.92.06,3.4.96,3.05,1.11,4.71.69,4.64.83,4.25.98,1.89.29,3.43.63,5.39.86-.25-.26,1.87-.16,5.14.29,4.53.64-1.49,0,.06.33.21.04.25.07.37.11Z"/><path d="m90.27,5.35l-1.79.19-3.45.44-1.27.16s.07.03.11.04c.75-.07,1.12-.09.49.04-.09.02-.4.06-.5.07-.98.09.05-.08.05-.11-1.8.21-3.13.41-3.95.61-1.31.3-3.03.58-4.41.74-1.38.16-2.43.23-2.39.19.23-.28-2.6.2-4.67.47-2.58.49-5.12,1.06-7.73,1.61-1.13.26-3.34.68-2.69.67.54,0,2.91-.57,3.52-.65,1.89-.24,4.75-1.06,5.84-.99,1.44-.21,3.13-.49,3.37-.41,1.21-.2,2.49-.41,3.29-.44,2.66-.36,5.34-.73,7.99-1.01,5.23-.6,9.75-1.28,15.06-1.66v-.14c-1.31.12-2.67.26-3.36.23.08-.09.11-.18,2.11-.36l-.96-.1-4.67.43Z"/><path d="m132.13,66.73c-.68-.01-1.13-.06-.45-.1,5.3-.28,2.69-.4.19-.52l-2.04.05.05.2.26.02-.24-.02c-1.86-.03-5.89.18-5.58-.12-3.08.06-5.88-.17-9.3.03-.49.03-2.64-.06-2.75-.17l-3.25-.05c-1.41.16-5.51.15-4.73.41.04.01-.71.02-1.09.03-2.4-.44-3.43.01-5.32-.1.01.02,0,.04,0,.07,5.55.52,6.89.19,8.85,0h.42s-.45,0-.45,0c.56.02,1.35.05,2.01.07.66.02,1.18.04,1.2.06.55.5,4.62.21,7.91.17,3.43-.05,7.38-.18,10.41-.02,1.49.03,1.27.22,3.86.14l.06-.14Z"/><path d="m25.62,13.15l-1.93.65c-4.67,1.74-4.66,1.6-4.27,1.18-1.55.55-1.43.65-2.16.99,1.48-.29-.72.8-4.72,2.9,1-.34,1.13-.24.21.4,1.08-.38,1.87-.92,2.75-1.38-.61.25-.78.27.02-.11,1.1-.53.95-.38,1.08-.38,2.46-.89,6-2.45,8.63-3.42,4.3-1.62,9.04-3.15,13.16-4.49l-.05-.08c-1.03.26-2.04.58-3.06.88-.92.41-1.81.6-2.68.85l-3.62,1.11c-.23.17-.42.34-2.34,1.02-1.3.46-2.05.68-2.69.85-1.49.39.43-.43,1.66-.99Z"/><path d="m67.44,8.83c-1.1-.07-3.95.75-5.84.99-.61.08-2.98.64-3.52.65-.65,0,1.56-.41,2.69-.67,2.61-.55,5.15-1.12,7.73-1.61l-.96.05c-.42.06-.84.14-1.26.21-1.73.41-3.72.77-5.75,1.17-2.03.42-4.12.8-6.07,1.26-.91.28-.68.29-.2.26.82-.05-.37.28-2.88.84l-.03.07c-.02.1-.76.27-2.29.65-.31.08-.62.16-.91.24.32-.02,1.76-.32-.07.19l.1.04c6.12-1.45,12.29-2.65,18.5-3.81-1.02.05-2.89.23.77-.52Z"/><path d="m157.63,3.93c-1.3-.06-1.17-.33-3.5-.24-1.75.05-3.39-.21-5.12-.22-.5.24-2.85.09-5.32-.06-2.09-.14-3.82-.14-5.4-.07-1.64.07-2.36.16-.63.3,2.33.03,4.46.18,6.96.2,7.78.08,8.63.14,14.84.68.15.01.44.04.48.04,3.18-.07,7.97.63,11.22.67-.3-.15-.32-.27-2.51-.5-.08.08-.6.05-2.09-.07-3.15-.26-6.11-.5-8.93-.74Z"/><path d="m67.44,8.83c-3.65.75-1.78.57-.77.52,2.43-.33,4.07-.49,7.51-1.18,1.24-.24,3.12-.51,5.19-.77,2.07-.24,4.34-.5,6.35-.73,5.41-.62,11.11-1.19,16.61-1.48,2.41-.13,4.01-.22,3.73-.38-.27-.15-2.22-.06-4.39.15l-4.53.35c-5.32.38-9.83,1.05-15.07,1.66-2.65.28-5.33.65-7.99,1.01-.64.12-1.35.28-1.9.36-1.21.18-1.33.13-1.39.08-.24-.08-1.93.2-3.37.41Z"/><path d="m106.72,66.45c-1.96.19-3.29.53-8.85,0l-4.46-.07c-1.18,0-2.42,0-2.12.11,2.08.28,4.81.24,7.1.31,8.73.24,17.46.37,26.24.15,2.34-.06,2.67-.13,3.57-.22-3.03-.16-6.98-.03-10.41.02-3.29.04-7.35.33-7.91-.17-.02-.02-.54-.04-1.2-.06-.65-.02-1.44-.05-1.98-.07Z"/><path d="m232.14,14.09c.53.01.97.01,1.61.06,2.14.16,1.89.16-2.47-.77-7.24-1.49-14.5-2.53-21.69-3.68-2.19-.35-5.06-.79-4.62-.47,4.06.83,8.52,1.48,13.44,2.14,3.17.44,5.58.9,4.92,1.06,3.19.43,5.79,1.1,8.8,1.65Z"/><path d="m171.16,5.23c-3.24-.04-8.03-.74-11.22-.67-.04,0-.33-.03-.48-.04-6.21-.54-7.07-.61-14.84-.68-2.5-.01-4.63-.16-6.96-.2.98.23,2.06.44,5.88.65l2.81-.06c1.04-.1,2.63-.03,4.88.08,2.74.14,6.06.3,8.43.45,4.78.33,9.05.4,13.59.93l-1.18-.38c-.3-.03-.6-.06-.9-.09Z"/><path d="m115.11,4.25c1.43-.25,2.59-.51-3.16-.28-1.85.07-.69-.06-.55-.12,2.83-.26,5.96-.3,7.98-.26,5.14.07,6.3-.08,7.4-.35l1.05-.03c3.38.11,8.93.17,3.66.51-.95.06-.93.18-1.35.27-2.91-.01-5.82.07-8.72.1-1.88.05-3.29.1-3.48.23-1.08.03-2.16.04-3.23.09.12-.06.07-.11.4-.17Zm9.26-.42c.11,0,.3,0,.58-.02-.16,0-.32,0-.58.02Z"/><path d="m121.36.18c1.65.15,7.45-.05,7.44.21,0,.12-2.34.24-3.34.4-1.03.16-5.49.21-9.03.24-1.6.02-3.11-.01-4.7.03-1.53.03-3.42-.01-4.53.13-1.19.15,3.03-.04,2.26.11,5.21.04,11.68-.28,17.08-.09,1.7.06,1.32-.11,2.69-.13,1.32-.06-4.62-.2.26-.22,1.64-.18,5.93-.2,5.29-.45-1.01-.04-2.33-.06-2.98-.11-1.63-.12-1.6-.42-5.76-.18-.04,0-1.5-.06-2.43-.1-2.72-.05-5.3,0-7.58.14.78.24,3.8-.06,5.34.02Z"/><path d="m135.88,1.11c1.35.04,2.32.09,3.02.17,1.75.2,5.07.38,7.68.4,2.33.02,4.44-.03,4.71-.17.5-.26-2.42-.56-8.94-.76-1.59-.04-3.57-.2-5.38-.28-1.98.08-1.22.25.91.39,2.16.15,4.15.15,5.69.1.57-.02,3.17.03,2.94.14-.2.1,1.3.25.34.31-.59.04-.88.11-2.64.05-1.83-.06-2.63-.14-2.84-.23-.22-.08-.49-.16-2.53-.21-1.98-.04-2.99,0-2.98.09Z"/><path d="m173.24,5.7c-4.54-.54-8.81-.61-13.59-.93-2.37-.15-5.69-.31-8.43-.45-2.25-.11-3.84-.19-4.88-.08,3.84.47,9.59.52,14.34.84,7.08.45,14.32.89,21.17,1.81l.58-.03c-1.01-.2-4.59-.68.89-.18,1.79.18,2.81.17-.26-.2-3.26-.26-5.65-.24-9.82-.77Z"/><path d="m139.68,65.58c.08.22,1.53.29,4.84.04,2.44-.18,4.02-.2,5.99-.17,2.02.05,5.42-.34,7.33-.22,4.73-.42,9.91-.55,14.86-.91,1.69-.12,2.64-.22,3.41-.36-4.56.16-9.49.45-14.79.77-3.38.18-6.82.37-10.52.43-3.22.07-7.38.3-11.13.43Z"/><path d="m55.68,5.61l-2.35.39-3.51.5c-.49.09-.99.19-1.48.3-1.59.39-3.18.77-4.75,1.22,2.87-.4,8.47-1.69,12.56-2.31,8.1-1.31,16.36-2.2,24.61-2.86l2.2-.23c-3.73.05-7.73.32-12.04.95-3.5.4-7.17.98-9.2.94l-1.58.23-1.12.18s.07.06.12.07c.11,0,.23,0,.35,0l-.78.09c-1.01.16-2.01.33-3.02.52Z"/><path d="m28.7,18.81c-2.96,1.04-5.89,2.18-8.73,3.61-2.26,1.09-4.35,2.26-5.94,3.21-1.4.94-2.04,1.49-2.7,2.03-.75.66-1.48,1.34-2.1,2.11l-.9,1.18c-.25.42-.48.86-.72,1.3-.87,1.78-1.19,3.85-.76,5.92.25,1.07.58,1.86.94,2.4.17.28.32.51.45.7.16.17.29.32.41.44-.44-.6-.69-1.3-1.04-1.95-.2-.7-.52-1.37-.58-2.1-.17-.71-.12-1.44-.12-2.16.14-.71.18-1.44.49-2.11.43-1.39,1.33-2.59,2.25-3.73.98-1.1,2.13-2.07,3.32-2.96,2.41-1.78,5.07-3.21,7.8-4.5,2.73-1.29,5.54-2.41,8.38-3.45l-.45.05Z"/><path d="m111.39,3.86c2.83-.26,5.96-.3,7.98-.26,5.14.07,6.3-.08,7.4-.35-8.45.02-16.92.25-25.34,1.04-2.04.2-3.32.15-4.97.31-2.28.24-5.79.47-6.19.76l4.67-.43c2.55-.23,5.12-.37,7.67-.55,2.92-.18,5.85-.39,8.78-.52Z"/><path d="m50.77,60.59c-.13.07.57.33-2.91-.32-2.16-.41-4.02-.72-3.68-.5,8.89,1.78,17.85,3.24,27.23,4.13l-.04-.09-.31-.1c-.17-.02-.36-.03-.55-.05-1.57-.14-3.13-.29-3.56-.49-.28-.03-.56-.07-.85-.1l-3.29-.49c-.51.05-1.63-.08-3.38-.41-1.93-.3-3.96-.46-5.7-.86-.58-.13.31-.05,1.27.07l.09-.04-1.04-.28c-1.9-.41-2.1-.29-3.28-.48Z"/><path d="m127.83,3.21c3.38.11,8.93.17,3.66.51-.95.06-.93.18-1.35.27,1.61.02,1.07.09,1.17.15l2.16-.02c-.67-.15,2.12-.19,2.19-.31l-1.44-.05c.11,0,.31-.02.31-.02.4.02.78.04,1.17.07,1.91.11.74.23,1.14.34,2.17.18,4.39.25,6.7.14-3.82-.21-4.89-.42-5.88-.65-1.73-.14-1.01-.23.63-.3,1.58-.08,3.31-.07,5.4.07,2.47.15,4.82.3,5.32.06-5.56-.26-11.25-.25-16.75-.37-2.17-.04-3.31.03-4.43.12Z"/><path d="m183.05,6.48c3.07.37,2.05.38.26.2-5.47-.5-1.9-.02-.89.18.95-.03,2.65.25,3.96.37-.13-.1.88-.11,1.68,0,3.97.63,6.82.7,10.29,1.18,1.87.13,1.95.23,2.09.34,1.86.37,2.34.34,2.9.33-.16-.03-.45-.07-.47-.08-.74-.33-3.35-.7-6.21-1.04-3.93-.47-6.64-1.06-10.73-1.45-.1-.01-.5-.17-.76-.27-1.42-.2-2.84-.39-4.26-.57l-2.26-.3-.28.16c4.85.5,5.11.75,4.68.93Z"/><path d="m241.69,15.13c2.21.52,2.56.76,3.96,1.18.89.27,1.79.56,1.22.49-.43-.05-1.38-.31-2.25-.52-1.04-.27-2.37-.59-3.07-.72-1.34-.24-3.45-.59-3.22-.47.55.27,2.49.55,3.8.88.8.2,1.55.41,2.31.63.98.36,1.92.5,2.88.75,1.61.38,3.32.81,2.89.56-1.7-.97,3.27.4,7.59,2.08-.49-.3-2.77-1.11-2.9-1.27-3.61-1.19-7.04-2.29-10.76-3.21-2.67-.63-2.12-.39-2.44-.38Z"/><path d="m198.36,8.41c-3.47-.48-6.32-.54-10.29-1.18-.8-.12-1.82-.11-1.68,0,6.96.79,13.88,1.65,20.82,2.62,3.48.48,7.12,1.09,10.55,1.69,2.07.38,3.76.63,5.58.9.65-.16-1.75-.62-4.92-1.06-4.92-.67-9.39-1.31-13.44-2.14-.55-.05-1.09-.1-1.63-.15-.55.01-1.03.05-2.89-.33l-2.09-.34Z"/><path d="m111.39,3.86c-2.93.12-5.85.33-8.78.52l-.08.14c1.19-.09,2.25-.12,2.07-.03-.18.09-1.39.15-2.48.24-.4.09-.42.16-.45.23,2.17-.21,4.12-.29,4.39-.15,2.8-.11,5.7-.23,8.64-.39.12-.06.07-.11.4-.17,1.43-.25,2.59-.51-3.16-.28-1.85.07-.69-.06-.55-.12Z"/><path d="m93.41,66.38l4.46.07v-.07s-.23-.03-.23-.03l.23.04c1.89.12,2.92-.34,5.32.1.38,0,1.12-.02,1.09-.03-.79-.26,3.32-.25,4.73-.41-.23-.08-1.23-.08-2.11-.09-1.16.1-3.02.02-4.66,0-1.21-.07-1.98.18-2.62-.02-.68-.22-2.7-.15-3.82-.24-1.93.07-2.81-.05-3.46-.2-1.15-.08-2.51-.27-3.23-.13l-.5.08c1.34.12,2.01.26,3.9.34,1.29.1.79.16.91.23,5.89.34-.79.22,0,.36Z"/><path d="m68.31,62.71c1.84.33,3.99.62,5.74.92,1.8.31,4.4.63,6.92.82,2.52.16,4.96.25,6.42.21-2.71-.21-5.72-.42-3.8-.5-2.6-.2-5.18-.49-7.74-.75-2.56-.24-5.08-.47-7.54-.7Z"/><path d="m93.42,66.02c5.89.34-.79.22,0,.36-1.18,0-2.42,0-2.12.11-3.36-.13-6.93-.16-9.95-.63-.15-.02-.19-.04-.14-.05,4.43.1,4.8-.19,4.58-.51l2.82.15c1.34.12,2.01.26,3.9.34-.13.07-.17.13.91.23Zm-3.53.06c.71.07,1.38.04,1.16-.01-.44-.1,1.81-.14-1.57-.3-1.69-.06-1.55,0-.33.12.23.06.21.13.75.19Z"/><path d="m170.63,65.25c-1.03.06-1.89-.02-3.05.17-2.58.4-2.84.19-3.69.14-.77.02-1.77.02-2.3.07-2.07.16-4.02.32-5.54.22-1.25-.09.5-.25,1.75-.4,2.23-.27,3.95-.28,5.77-.27,1.14.01,3.03-.06,3.96-.18,3.15-.41,4.57-.31,6.45-.33-1.11.19-2.23.39-3.35.58Zm-12.33.42s.39-.03.41-.04c.05-.02-.02-.04-.03-.05l-.86.07c.15,0,.3.01.48.02Z"/><path d="m29.95,55.96c-4.23-1.53-8.53-3.43-12.16-5.25-.93-.44-2.11-1.28-2.94-1.87-.74-.55-1.34-1.03-1.89-1.42-.52-.42-.96-.77-1.38-1.06,1.36,1.37,3.1,2.61,4.94,3.77,1.88,1.1,3.89,2.12,5.86,2.98,4.88,2.15,9.54,4.03,14.72,5.42h.03s.01.01.01.01c.24.04.48.09.72.13.8.15,1.78.34,2.15.36-.67-.21-1.64-.46-2.82-.7h-.01s-.02,0-.02,0c-.69-.19-1.47-.41-2.3-.64-2.6-.7-3.77-1.21-4.9-1.72Z"/><path d="m135.88,1.11c-.01-.1,1-.13,2.98-.09,2.04.06,2.31.13,2.53.21.21.08,1.01.16,2.84.23,1.76.06,2.05-.01,2.64-.05.96-.06-.54-.22-.34-.31.23-.11-2.38-.15-2.94-.14-1.54.05-3.53.05-5.69-.1-2.13-.14-2.89-.31-.91-.39-.73-.06-1.46-.1-2.2-.06.64.25-3.65.27-5.29.45,1.16.06,2.23.13,2.3.22l4.1.03Z"/><path d="m191.61,63.22c2.91-.12,5.81-.39,8.67-.97,1.67-.42,6.88-1.03,7.76-1.46l-.42-.18c-1.9.21-3.62.43-5.17.73-.24.07.47.05-.67.22l-.37-.08c-.32.03-.67.07-1.04.12-4.48.57-3.53.84-7.64,1.36-.93.12-1.16.2-1.13.25Z"/><path d="m67.54,8.23l.96-.05c2.06-.27,4.9-.75,4.67-.47-.04.04,1.01-.03,2.39-.19,1.38-.16,3.09-.44,4.41-.74.83-.2,2.15-.4,3.95-.61-.08,0-.12-.02-.15-.03l.06-.2c-5.39.57-10.73,1.19-16.29,2.28Z"/><path d="m17.66,22.62c-.31.34,1.84-.74,3.64-1.52,3.86-1.69,8.49-3.25,11.97-4.46,2.41-.83,4.06-1.33,6.44-2.02,1.45-.39.62-.28.72-.37-5.11,1.42-10.07,2.84-15.24,5-2.23.93-5.07,2.09-7.53,3.38Z"/><path d="m129.83,66.16l2.04-.05c1.09-.12,2.59-.24,2.34-.37-5.51.02-11.41.29-16.99.11-2.25-.08-2.94.2-4.97.25.11.11,2.25.2,2.75.17,3.43-.2,6.22.04,9.31-.03,1.99-.43,3.66,0,5.52-.08Z"/><path d="m222.43,58.91c.55-.1,1.09-.19,1.64-.29.98-.35.95-.32-.78-.07-.76.11-1.77.26-1.94.24-.6-.05,2.45-.55,2.92-.74l-2.31.27-3.58.6c-2.41.48-4.81.97-7.23,1.42,4.99-.57,4.9-.47-.97.68,2.59,0,4.47-.56,6.42-1.03,1.93-.33,2.81-.89,5.84-1.09Z"/><path d="m257.8,19.98c-4.33-1.67-9.29-3.05-7.59-2.08.43.25-1.28-.18-2.89-.56.44.36,2.73.81,4.05,1.26.51.04.94.06,1.87.29.92.23,2.34.69,4.77,1.75.8.35,2.1.9,2.46.98.38.08-.59-.42-1.65-.87l-.46-.18.42.15-.96-.77Z"/><path d="m81.35,65.86c-.15-.02-.19-.04-.14-.05-.48-.14-3.9-.35-3.25-.46-.87-.26-2.15-.34-3.48-.33-1.16,0-2.16.03-3.87-.36-1.32-.1-2.23-.39-3.47-.43-1.57-.05-.3.21,1,.48,4.45.54,9.18,1.18,13.2,1.17Z"/><path d="m16.59,51.94c-1.26-.85-4.45-2.86-5.16-3.71-.17-.19-1.26-.93-2.51-1.87-1.26-.94-2.67-2.12-3.59-3.04-.31-.3-.51-.49-.76-.73l-.16.11c2.61,3.13,5.79,5.22,9.05,7.42.82.52,1.66,1.02,2.5,1.5.33.19.55.3.64.33Z"/><path d="m49.75,59.95c.74.22,3.56.79,6.6,1.33,3.04.54,6.3,1.02,7.9,1.2,3.15.34,1.17-.07,1.81-.09-2-.23-4.01-.43-5.89-.81-.41-.08-1.79-.31-1.88-.31-2.57-.17-5.74-.86-8.54-1.31Z"/><path d="m121.36.18c-1.54-.08-4.56.22-5.34-.02-1.58-.08-3.14.01-4.7.11-2.61.24-6.74.29-9.8.54.62.08.55.19,3.82-.04,1.98-.15,4.85-.21,7.32-.29l1.36-.11.43.03-1.72.08c2.04,0-4.23.52,3.24.18.26-.1-.73-.22,2.23-.28.6-.1,3.29-.07,3.14-.2Z"/><path d="m15.77,23.86c.04-.06-.32.1.51-.38-2.92,1.68-5.94,3.59-8.05,6.37-2.23,2.66-2.88,6.57-1.62,9.33l.02-.17c-.06-.18-.12-.36-.17-.54l-.09-.56c-.05-.37-.15-.74-.16-1.12,0-.76-.03-1.51.15-2.25.42-2.46,1.89-4.58,3.58-6.32,1.75-1.71,3.75-3.12,5.83-4.37Z"/><path d="m101.52.8c3.06-.24,7.19-.3,9.8-.54-.36-.19-2.79.04-4.04.07-4.79.1-9.73.4-14.55.76,1,.29,5.73-.2,8.79-.29Z"/><path d="m23.57,13.64c3.23-1.21,6.88-2.58,9.16-3.08.86-.2,2.07-.6,2.24-.77.12-.11-.16-.11,1.22-.58.39-.32-2.38.56-3.84,1.05-3.3,1.09-6.58,2.29-9.85,3.53.29-.02-.49.38,1.07-.15Z"/><path d="m8.07,21.98c-1.98,1.32-3.85,3.01-4.71,4.48-.5.97-.95,1.44-1.37,2.32-.79,1.42-1.16,3.07-1.08,4.67.07,1.6.6,3.14,1.36,4.46-.59-1.4-1.07-3.04-1.08-4.79-.06-1.75.51-3.54,1.37-5.14,1.35-2.34,3.37-4.25,5.58-5.86l-.06-.13Z"/><path d="m264.94,44.74c-.28.27-.92.73-.89.78.01.02.19-.06.66-.33.47-.27,1.22-.74,2.33-1.55,2.27-1.72,3.27-2.58,4.3-3.63.46-.56.44,0,1.52-2.05.36-.87.4-1.23.37-1.32-.02-.09-.13.08-.23.22-.19.28-.38.39-.55.57-.7,1.58-1.86,2.96-3.18,4.14-1.32,1.19-2.79,2.23-4.33,3.17Z"/><path d="m51.64,62.37c.39-.14.47-.28-4.25-.98l-3.3-.48-2.07-.41c-.89-.11-2.11-.37-3.29-.65l-1.26-.13c-.13.11,1.32.4,2.47.64,3.89.77,7.79,1.45,11.7,2.02Z"/><path d="m221.95,58.33l2.31-.27c3.06-.65,6.27-1.43,8.91-1.77.68-.08,2.6-.61,2.47-.61-.55.04,3.63-1.01.65-.41-4.73,1.13-9.97,1.99-14.34,3.06Z"/><path d="m50.69,61.55c1.2.14,2.99.32,3.5.4,2.01.37.09.15-.62.11-.48-.02.13.1.95.23.94.14,1.95.27,1.98.21.05-.09-.23-.23-.38-.35-3.94-.71-8.39-1.51-12.81-2.3l-.17.14s.06.05.03.06l1.18.24c2.86.46,5.58.88,6.34,1.27Z"/><path d="m192.74,62.97c4.12-.52,3.17-.79,7.64-1.36-2.31.11-4.66.21-7.65.82-.33.08-.54.19-1.02.24-7.26.82-1.9.4-.18.35.17-.07-.03-.11,1.27-.24l-.25.14c.07.01.13.03.18.05Z"/><path d="m268.71,25.84c.67.74,2.04,2.06,3.32,3.58.64.71,1.24,1.73,1.65,2.91.43,1.19.47,2.6.21,3.87-.27,1.28-.86,2.4-1.44,3.29-.58.9-1.15,1.61-1.52,2.14,1.09-1.1,2.06-2.37,2.67-3.85.64-1.46.84-3.17.46-4.74-.36-1.57-1.15-2.96-2.12-4.13-.97-1.17-2.08-2.17-3.23-3.07Z"/><path d="m180.91,5.68c1.42.17,2.84.37,4.26.57l2.23.3c0-.17,1.86.04,3.65.27,4.19.65,8.14,1.13,11.88,1.45-.35-.12-1.48-.35-2.25-.43-6.39-.68-13.53-1.78-19.76-2.15Z"/><path d="m101.64,1.66c-.22-.19-.97-.32-5.18.1-3.13.32-7.11.29-10.13.69,4.58-.02,10.11-.54,15.32-.79Z"/><path d="m41.66,14.79c-1.48.17-4.3.88-7.39,1.7.66,0-.87.64-2.89,1.49,2.14-.63,4.03-1.28,5.99-1.91,1.01-.48,2.77-.89,4.29-1.27Z"/><path d="m54.2,4.95c3.84-.46,11.78-1.53,16.55-2.24-4.75.36-9.49,1.05-14.21,1.8-.1.14-1.26.29-2.35.44Z"/><path d="m148.65,66.06c-1.28.06-2.17.11-2.14.21h1.41s.31.06.31.06h-1.05s-.87-.05-.87-.05c-1.32.04-1.95.11-2.05.19,4.03-.09,7.54,0,11.99-.33-.4-.22-4.16-.1-6.65-.11-.32.01-.65.02-.97.03Z"/><path d="m217.92,10.66c4.99.84,9.95,1.68,14.22,2.29-1.65-.44-3.21-.78-5.73-1.1-3.2-.4-7.11-1.21-10.63-1.7l.18.18c.64.11,1.3.22,1.96.33Z"/><path d="m12.54,18.88c4-2.1,6.2-3.2,4.72-2.9-1.36.59-2.71,1.21-4.03,1.89.66-.2-2.22,1.4-1.57,1.23,1.16-.58.73-.22.88-.22Z"/><path d="m211.14,60.34c2.42-.45,4.82-.94,7.23-1.42-3.68.49-7.33.98-10.75,1.69l.42.18,3.1-.45Z"/><path d="m85.79,65.3l2.82.15.5-.08c-4.11-.25-8.28-.66-12.11-.78,1.21.23,3.73.46,4.18.66.79.03,1.46.05,2.14.08.18-.08.29-.17,2.46-.03Z"/><path d="m8.07,21.98l.06.13c1.46-1.06,3.03-1.97,4.62-2.83.92-.64.79-.74-.21-.4-2.35,1.29-1.85.89-1.95.82-.4.16-.93.46-1.8,1.03-1,.7-.36.35-.16.26.82-.29,2.19-1.04-.55.99Z"/><path d="m132.13,66.73l-.06.14c3.75-.06,7.87.04,11.05-.36-.56-.12.26-.39-3.9-.01-1.81.16-4.95.05-7.09.23Z"/><path d="m178.37,5.54l.28-.16c-4.24-.53-8.1-.72-12.05-.93l2.05.29c2.18.22,2.21.35,2.51.5.29.03.59.06.9.09.03-.25.71-.43,6.32.22Z"/><path d="m130.14,4c-2.91-.01-5.82.07-8.72.1-1.88.05-3.29.1-3.48.23,3.88.04,8.19-.19,12.22-.14,0-.06.02-.13-.03-.2Z"/><path d="m168.65,4.74l-2.05-.29c-3.13-.32-6.39-.67-8.97-.52,2.82.23,5.77.48,8.93.74,1.49.12,2.01.15,2.09.07Z"/><path d="m62.6,63.96c-.12-.04-.15-.07-.37-.11-1.55-.32,4.47.31-.06-.33-3.27-.45-5.39-.55-5.14-.29,1.91.33,3.94.68,5.56.72Z"/><path d="m29.95,55.96c1.13.51,2.3,1.02,4.9,1.72.83.23,1.61.45,2.3.64h.02s.01,0,.01,0c1.18.25,2.15.49,2.82.7.77.14,1.75.34,2.04.34-.61-.19-1.23-.37-1.85-.56-1-.21-1.99-.42-2.99-.62h-.01s0,0,0,0c-2.32-.67-4.62-1.36-6.89-2.17l-.35-.05Z"/><path d="m83.59,64.17c-1.92.08,1.09.29,3.8.5,2,.19,3.26.23,4.11.17l-.04-.15c-2.58-.1-5.15-.3-7.87-.52Z"/><path d="m54.46,10.87c1.94-.46,4.04-.84,6.07-1.26,2.03-.4,4.02-.76,5.75-1.17-3.97.55-7.9,1.47-11.82,2.31v.12Z"/><path d="m249.77,51.42c.73.34,4.99-1.61,7.47-2.64-.2-.04.47-.45-2.54.83-1.51.62-3.26,1.25-4.92,1.81Z"/><path d="m58.32,62.45c.37.15-.06.25,2.41.58,3.33.43,1.37-.07,3.3.1-2.63-.54-3.81-.45-5.7-.68Z"/><path d="m43.59,8.02c1.57-.45,3.16-.83,4.75-1.22-3.02.64-3.24.54-3.7.52-.27-.01-.99.1-2.43.45-.54.13-1.37.37-1.52.45-.45.21.71-.1,1.64-.28,3.34-.7-2.59.9.31.31.3-.07.62-.14.95-.22Z"/><path d="m89.46,65.35c-2.19-.1-5.12-.72-6.84-.49q.91.28,6.84.49Z"/><path d="m28.12,56.41c-2.73-.96-2.49-1.08-3.05-1.43-2.11-.78-4.27-1.97-5.97-2.69l.03.1c1.41.81,4.01,1.96,4.21,2.15.42.51,2.63,1.24,4.78,1.86Z"/><path d="m34.69,57.9c-1.41-.14,1.81.73,3.33,1.18l1.71.25,1.38.02c-2.2-.51-4.18-.79-6.42-1.45Z"/><path d="m268.21,26.54l-.13.16c1.54,1.31,2.94,2.77,4.05,4.63.04-.04.19.09.14-.09-.07-.17-.25-.71-1.18-1.9-1.49-1.73-2.34-2.37-2.16-2.44-.81-.61-.61-.35-.72-.36Z"/><path d="m31.38,17.97c2.01-.84,3.55-1.48,2.89-1.49-2.12.79-5.19,1.97-5.57,2.32l.45-.05,2.23-.79Z"/><path d="m23.57,13.64c-1.56.52-.77.12-1.07.15-1.03.4-2.07.78-3.09,1.2-.39.42-.4.57,4.27-1.18l-.12-.17Z"/><path d="m215.95,10.33l-.18-.18c-2.11-.34-3.93-.58-5.49-.72,1.28.66,3.5.76,5.66.9Z"/><path d="m24.31,52.95s-.24-.02-.05.1c.52.33-2.45-.76.68.6,2.79,1.16.45,0,.88.09.12.03,1.06.39,1.62.59-.66-.34-1.24-.64-3.13-1.38Z"/><path d="m41.66,14.79c-1.52.38-3.27.78-4.29,1.27l2.32-.66c.88-.25,1.63-.44,2.05-.51,1.43-.4,2.86-.84,4.3-1.2l-.92.16-3.46.94Z"/><path d="m158.56,64.27s.08-.04,0-.05c-.39-.04,1.24-.31-1.45-.09-.92.08-2.62.38-.86.33l2.31-.19Z"/><path d="m135.66,3.82c-.07.12-2.86.16-2.19.31l3.37.03c-.4-.11.78-.23-1.18-.34Z"/><path d="m131.78,1.08c-.07-.09-1.14-.16-2.3-.22-4.88.02,1.07.16-.26.22.21.02.49.02.85.02h1.46c.3,0,.39,0,.25-.02Z"/><path d="m17.99,52.64c-.66-.33-1.31-.67-1.96-1.03.77.63,3.16,1.89,4.63,2.68l.17-.06-.02-.16c-.53-.27-.94-.48-1.34-.68-.18-.01-.84-.38-1.48-.75Z"/><path d="m254.9,18.71c.14.17,2.41.97,3.04,1.32l1.65.62-1.28-.63c-1.07-.48-2.21-.92-3.42-1.31Z"/><path d="m41.11,59.35l-1.38-.02c1.13.24,2.28.43,3.42.64l.17-.14-2.2-.49Z"/><path d="m92.34,65.5c.65.15,1.52.27,3.46.2-.92-.1-1.29-.28-3.46-.2Z"/><path d="m85.03,5.98l3.45-.44c.14-.18-1.77.06-3.46.26v.17Z"/><path d="m102.23,65.96c1.65.02,3.5.1,4.66,0-2.37-.17-3.63-.12-4.66,0Z"/><path d="m170.17,63.12c-1.09.06-2.34.21-3.75.42,1.21-.11,1.94-.01,3.75-.42Z"/><path d="m45.12,13.85l.92-.16,2.14-.53-.1-.04c-.98.18-1.96.41-2.95.73Z"/><path d="m6.67,43.71s-.03,0-.13-.08c.12.1.24.21.38.34.1.03.21.07.32.1l-.57-.37Z"/><path d="m41.74,14.89c-.42.06-1.17.26-2.05.51,0,.1.7-.07,2.05-.51Z"/><path d="m16.6,17.41c-.13,0,.02-.14-1.08.38-.8.39-.63.36-.02.11l1.1-.49Z"/><path d="m20.83,54.23l-.17.06c1.03.49,1.79.78,2.15.86-.67-.29-1.34-.6-1.99-.92Z"/><path d="m15.94,51.61c-.84-.48-1.68-.98-2.5-1.5.99.73,1.83,1.23,2.5,1.5Z"/><path d="m130.19,4l-.03.19c.73.01,1.11,0,1.14-.05-.1-.06.44-.13-1.12-.15Z"/><path d="m201.42,61.48l.37.08c1.15-.17.43-.14.67-.22-.35.03-.7.08-1.04.13Z"/><path d="m54.21,4.95c1.09-.15,2.25-.3,2.34-.44-.99.15-1.98.3-2.34.44Z"/><path d="m30.3,56.01c2.27.81,4.57,1.51,6.89,2.17h0s.01,0,.01,0c.99.21,1.99.42,2.99.62,1.17.23,1.69.29,1.8.25l.18-.14c-1.86-.37-2.46-.55-1.78-.51.32.02.76.05-.46-.21-.36-.07-.93-.18-1.41-.27-.48-.09-.86-.14-.86-.14.03.05-.1.06-.39.04h0c-1.09-.14-4.61-1.21-6.16-1.64-.39-.1-.56-.13-.83-.18Z"/><path d="m101.08,65.84c2.33.13,4.66.27,6.93.2-3.91-.13-.71-.27-3.46-.41l-4.4-.24c.56.15,2.89.35.93.44Z"/><path d="m14.03,25.63c1.59-.95,3.68-2.12,5.94-3.21-.1-.03.19-.25-.39-.03-.77.3,2.17-1.22-.53.08-1.86.93-1.44.86-1.21.81.11-.02.18.09-1.06.63-2.25,1.05-1.64,1.06-2.75,1.73Z"/><path d="m62.81,62.59l3.29.49c.43-.01,3.26.28.78-.1-2.62-.41-3.52-.42-4.07-.38Z"/><path d="m55,61.38c-.96-.12-1.84-.2-1.27-.07,1.73.4,3.77.56,5.7.86-.14-.19-2.68-.5-4.43-.8Z"/><path d="m6.36,34.54c-.19.74-.15,1.5-.15,2.25.01.38.11.74.16,1.12l.09.56c.05.18.12.36.17.54.01-.13-.11-.53-.16-1.14-.03-.3-.1-.65-.13-1.03,0-.39,0-.81,0-1.25.17-1.36.06-.93,0-1.04Z"/><path d="m48.14,12.93c.29-.08.6-.15.91-.24l.1-.14c-1.29.33-2.89.7-3.44.94l2.43-.57Z"/><path d="m66.95,63.17c.44.19,1.99.34,3.56.49l-.1-.13c-1.17-.12-2.32-.24-3.47-.36Z"/><path d="m46.06,59.41c-.23-.05-.45-.1-.67-.15l-.63-.06c.28.06.61.13.82.17.21.04.32.03.48.05Z"/><path d="m11.34,27.66c.65-.54,1.31-1.07,2.01-1.55-.28.16-.5.26-.85.5-.98.76-.92.8-1.16,1.05Z"/><path d="m54.05,61.06l1.04.28c1.66.16.37-.04-1.04-.28Z"/><path d="m70.42,63.53c.59.06,1.46.16,1.46.11,0,0-.42-.08-.64-.1-1-.1-.73-.03-.82,0Z"/><path d="m42.17,58.92l-.18.14c1.41.22,1.54.18.18-.14Z"/><path d="m14.42,47.91s.14.14.26.23c0-.03-.14-.14-.26-.23Z"/><path d="m51.34,12.04l.03-.07c-.74.18-1.47.37-2.2.58.7-.18,1.44-.34,2.17-.51Z"/><path d="m50.74,60.58l-.24-.06c.09.02.18.05.24.06Z"/><path d="m71.06,63.71l.31.1c.96.06.76.02-.31-.1Z"/><path d="m25.62,13.15c-1.22.56-3.14,1.38-1.66.99.64-.17,1.39-.39,2.69-.85,1.92-.69,2.11-.85,2.34-1.02-1.03.27-1.56.35-.75-.07.37-.19.26-.21-.88.19-1.37.49-1.55.63-1.74.77Z"/><path d="m118.21.38c-2.96.06-1.97.18-2.23.28,1.1,0,2.64-.07,2.79.05.08.06,1.14.12,2.12.09,1-.03,1.91-.11,2.27-.17.58-.11-1.34-.05-1.94-.07-1.18-.07-2.02-.12-3.01-.18Z"/><path d="m61.71,4.52c2.03.04,5.7-.54,9.2-.94-2.58.09-5.49.33-9.2.94Z"/><path d="m59,4.93l1.12-.18c.19-.05.3-.09.57-.14,2.09-.37,3.48-.62,1.29-.48-.57.03-2.13.22-1.86.25.64.05-6.24,1.13-1.13.55Z"/><path d="m35.28,10.3c1.02-.3,2.03-.62,3.06-.88,0-.09,2.54-.92-.2-.21-2.02.53-3.37,1.11-2.86,1.09Z"/><path d="m49.82,6.5l3.51-.5c-.1-.06,1.77-.45.16-.25-1.28.18-2.64.48-3.66.75Z"/><path d="m111.43.83c-.65,0-1.03-.02-1.41-.01-.41.01-.8.05-1.2.08.34,0,.65.03,1.03.02.39,0,.85-.04,1.58-.09Z"/><path d="m55.68,5.61c1-.19,2.01-.37,3.02-.52.14-.03.29-.06.43-.09l-.15-.04c-1.36.21-3.35.52-3.3.66Z"/><path d="m32.61,11.15c.87-.25,1.76-.44,2.61-.83-.87.27-1.75.52-2.61.83Z"/><path d="m104.78,1.36c-.31,0-.47.01-.62.03.11,0,.23,0,.62-.03Z"/><path d="m249.11,52.7c1.17-.39,2.52-.83,3.18-1.17.45-.37,4-1.54,5.31-2.27.49-.26,2.32-.83,3-1.34.42-.3-1.28.42-2.36.79-1.1.39-1.94.73-3.41,1.38-1.84.83-4.05,1.67-5.84,2.01-1.07.21-2.91.88-3.99,1.25-1.9.64-.32.25.81-.02,1.8-.43,3.57-.91,3.3-.63Z"/><path d="m268.21,26.54c.11,0-.09-.26.72.36.28.05,2.22,1.96,1.35.94-.16-.18-.42-.47-.71-.77-.31-.28-.65-.58-.92-.81-1.91-1.43-.73-.36-1.19-.62-.26-.14-.46-.24-.84-.44-.72-.45-2.88-1.66-2.12-1.11.87.62,2.45,1.44,3.71,2.46Z"/><path d="m273.22,32.6c.05.23.1.45.15.66.06.2.1.42.15.62-.03-.28-.04-.61-.12-.84-.06-.2-.11-.3-.17-.45Z"/><path d="m228.74,57.82l-1.08.22c.35-.07.72-.15,1.08-.22Z"/><path d="m142.08,64.94c.23.03.3.09,1.77-.04-.2-.03-.91,0-1.77.04Z"/><path d="m180.54,64.38l2.25-.19c.02-.09-.51-.17.18-.27,1.21-.17,2.3-.31,1.88-.38-.21-.03-.87.05-1.14.09-.96.18-4.22.43-3.34.55.29.04.12.13.16.19Z"/><path d="m173.99,64.67c.7,0,.75.1,2.33,0,.22-.02.77-.11.71-.13-.32-.09-1.84.05-3.04.13Z"/><path d="m148.65,66.06c.32-.01.65-.02.97-.03,0-.05.2-.12-1.07-.08l.1.11Z"/><path d="m192.56,62.92l.25-.14c-1.3.12-1.1.17-1.27.24l1.03-.1Z"/><path d="m187.21,63.66l-.4-.05c-1.06.14.03.07.4.05Z"/><path d="m104.55,65.64c2.75.13-.45.27,3.46.41,1.42.05,2.43,0,3.18-.05,1.58-.1,3.51-.2.58-.36-4.61-.24-4.82,0-7.22,0Z"/><path d="m123.1,65.61c-1.59.04-4.13-.06-3.99.12.05.06.69.16,2.49.11,1.75-.05,4.31-.16,4.4-.23.19-.13-2.08.02-2.9,0Z"/><path d="m121.37,66.07c1.25.05,2.02.12,2.93.11,1.14,0,3.18-.04,3.26-.16.04-.06-.7-.08-1.92-.07-1.31.04-2.58.07-4.26.12Z"/><path d="m136.54,65.26c.15.03.16.08,1.31.01.36-.02.56-.08.83-.12l-2.14.1Z"/><path d="m116.98,65.87c.36-.02.14-.02-.08-.02l.08.02Z"/><path d="m134.43,65.29l.5-.02.5-.02c-.34-.01-.67,0-1,.04Z"/><path d="m3.6,40.45c.05.24.67,1.21,1.8,2.36,1.45,1.43.97.77,1.17.85-.69-.7-1.08-1.04-1.47-1.43-.4-.39-.83-.82-1.49-1.78Z"/><path d="m10.59,19.7c.1.06-.39.46,1.98-.84-.18.01.24-.35-.92.23l-1.07.61Z"/><path d="m3.58,40.43l-.12-.21c.04.08.09.15.12.21Z"/><path d="m217.92,10.66l-1.98-.34c.34.11-.69.04.9.3.91.14,1.14.11,1.08.04Z"/><path d="m191.05,6.81c-1.8-.23-3.65-.44-3.65-.27,1.35.1,2.84.27,3.65.27Z"/><path d="m28.12,56.41c-2.15-.62-4.36-1.35-4.78-1.86-.2-.19-2.79-1.34-4.21-2.15.72.55,1.27,1.01,2.21,1.63,2.01,1.37,6.18,2.9,9.7,3.62.44.1.67.1,1.2.23,1.99.47,2.17.29.24-.32-.8-.26-.81-.25-1.31-.25-.24,0-.2.11-1.68-.33-.45-.13-.92-.37-1.39-.57Z"/><path d="m44.35,60.28l-1.18-.24c-2.12-.19,1.06.67.92.87l3.3.48c.35-.15-3.96-1.05-3.05-1.11Z"/><path d="m38.74,59.85c1.18.28,2.4.55,3.29.65-.03-.02,0-.03-.1-.05-1.45-.37-1.13-.52-2.92-.89-2.64-.53.26.29-.27.29Z"/><path d="m33.04,58.25c-.32-.06-.68-.15-.65-.13.08.06.31.16.48.24.15.02.4.07.41.05.02-.03-.13-.1-.24-.17Z"/><path d="m17.99,52.64c.64.37,1.3.73,1.48.75-.62-.33-1.45-.85-1.48-.75Z"/><path d="m20.8,54.07l.43.17c-.18-.08-.37-.16-.43-.17Z"/><path d="m211.14,60.34l-3.1.45c-.88.42-6.09,1.04-7.76,1.46.18.07-.24.25,2.25-.08-1.08,0,.73-.29,1.87-.48,1.4-.22,2.08-.22,2.61-.23l3.15-.44c5.87-1.15,5.96-1.25.97-.68Z"/><path d="m207.02,61.46c-.54,0-1.21,0-2.61.23-1.14.19-2.95.48-1.87.48,1.7-.22,3.83-.43,4.49-.71Z"/><path d="m222.43,58.91c-3.03.19-3.9.76-5.84,1.09,2.4-.24,4.14-.69,5.84-1.09Z"/><path d="m228.76,57.81l-1.12.22c.38-.01.76-.08,1.12-.22Z"/><path d="m85.79,65.3c-2.17-.14-2.28-.05-2.46.03.32.15-.81.06-2.02-.07-.69.08-.22.29-3.35.09-.65.12,2.77.32,3.25.46,4.43.1,4.8-.19,4.58-.51Z"/><path d="m50.72,61.55l-1.38-.21c.76.19.97.16,1.38.21Z"/><path d="m101.75,4.75c.52-.1.66-.17.8-.24-2.23.18-4.44.32-6.65.52-1.99.19-2.03.27-2.11.36,1.19-.09,2.64-.25,3.35-.23l4.6-.41Z"/><path d="m95.9,5.03c2.21-.2,4.42-.34,6.64-.52l.08-.14c-2.56.18-5.12.32-7.67.55l.96.1Z"/><path d="m70.81,8.42c.05.05.17.1,1.39-.08.55-.09,1.26-.25,1.9-.36-.79.03-2.08.25-3.29.44Z"/><path d="m97.14,5.16c-.71-.02-2.16.14-3.35.23.69.03,2.04-.11,3.35-.23Z"/><path d="m83.92,6.18s-1.03.2-.05.11c.1,0,.41-.05.5-.07.63-.12.26-.11-.46-.04Z"/><path d="m129.83,66.16c-1.86.08-3.54-.35-5.52.08-.31.3,3.72.09,5.58.12-.03-.07-.04-.13-.06-.2Z"/><path d="m106.69,66.45h.45c-.14,0-.28,0-.45,0Z"/><path d="m129.88,66.36l.24.02c-.09,0-.17-.02-.24-.02Z"/><path d="m51.34,12.04c-.73.16-1.46.32-2.19.51l-.1.14c1.53-.38,2.27-.55,2.29-.65Z"/><path d="m178.37,5.54c-5.61-.65-6.29-.47-6.32-.22l1.18.38c4.16.53,6.56.51,9.82.77.42-.19.16-.43-4.68-.93Z"/><path d="m124.95,3.8h-.48s.2.03.48,0Z"/><path d="m58.69,5.09l.78-.09c-.12,0-.24,0-.35,0-.15.03-.29.06-.43.09Z"/><path d="m135.7,3.82c-.38-.02-.77-.04-1.17-.07,0,0-.21.01-.31.02.48.02.96.03,1.48.05Z"/><path d="m198.36,8.41l2.09.34c-.13-.11-.22-.21-2.09-.34Z"/><path d="m102.55,4.51l-.42.22c1.09-.09,2.3-.15,2.48-.24.18-.09-.88-.06-2.06.03Z"/><path d="m92.51,65.79c-.13.07-.17.13.91.23-.11-.07.38-.13-.91-.23Z"/><path d="m97.87,66.39l-.23-.04c.08.01.16.02.23.04Z"/><path d="m89.14,65.9c.23.06.21.13.75.19.71.07,1.38.04,1.16-.01-.44-.1,1.81-.14-1.58-.3-.11.04-.22.08-.33.13Z"/><path d="m89.14,65.9c.11-.04.22-.08.33-.13-1.68-.06-1.55,0-.33.13Z"/><path d="m157.82,65.66c.15,0,.3.01.48.02.02,0,.39-.03.41-.04.05-.02-.02-.04-.03-.05l-.86.07Z"/><path d="m258.76,20.75l-.42-.15c.16.06.31.11.42.15Z"/><path d="m112.74.48l1.72-.08-.43-.03c-.45.04-.91.08-1.29.11Z"/><path d="m147.93,66.27h-1.41c.1.04.39.05.68.07l.73-.07Z"/><path d="m81.31,65.26c1.2.13,2.34.22,2.02.07l-2.02-.07Z"/>
                  </g>
                </mask>
              </defs>
              <path class="mask" d="m151.35,1.33c-23.16-1.26-42.53-.69-56.43.16-23.49,1.43-44.45,2.83-65.62,10.47C18.12,16,4.53,20.9,1.32,29.37c-4.67,12.32,16.25,22.65,20.05,24.53,2.98,1.47,14.64,6.68,48.75,10.42,20.79,2.28,42.78,2.37,64.51,1.88,34.8-.78,70.49-3.15,101.52-10.44,18.52-4.35,36.32-11.5,37.35-20.3.67-5.74-6.17-11.14-15.82-14.98-9.65-3.83-21.89-6.3-34.24-8.41-30.11-5.15-62.43-8.55-95.44-8.31-33.01.24-66.81,4.31-93.81,12.89-10.58,3.36-20.32,7.57-24.9,12.78-6.84,7.79-.64,16.64,12.02,22.58,5.11,2.4,10.43,4.35,15.95,5.93,10.01,2.07,21.16,3.93,33.41,5.33,52.71,6.01,99.05.37,127.8-4.81"
                    mask="url(#path-mask)" stroke="black" stroke-width="2" fill="none"
                    stroke-dasharray="939.73046875" stroke-dashoffset="939.73046875">
              </path>
            </svg>
        