
            <svg xmlns="http://www.w3.org/2000/svg">
              <defs>
                <mask id="path-mask">
                  <g fill="white">
                    <path d="m401.24,68.55c3.57-.67,1.24-.66,1.92-.99l2.6-.26c2.14-.1,4.62-.34,6.67-.39,4.2-.13,11.88-1.74,15.01-3.06,2.26-.39,3.65-.79,4.55-1.18,3.02-.46,7.33-1.88,9.71-2.04.69.1,3.35-.34,1.25.53-1.51.63-3.21,1.12-5.79,1.57-2.13.36-4.04.77-5.17,1.3l-1.98.43c-2.43.65-5.92.52-7.7,1.6-.77.13-2.2.38-2.23.39-1.83,1-6.45,1.53-10.43,2.07l-.09-.17c1.07-.25.84-.26-.38-.08-.2.04-.4.08-.62.11l-.17-.23c.67-.12,1.67-.25,1.64-.36,0-.02-.5,0-.75.05-1.14.19-.8.23-.91.31-1.3.25-2.6.5-3.9.73-.32.05-.64.1-.97.15.46-.21,3.67-.81.8-.56-3.03.26-4.01.65-4.58.99-.53.33-1.81.55-3.85.66-.24-.34-3.13.18-5.15.38l.08-.13c1.87-.43.38-.28-1.25-.1-2.24.02-2.4.42-3.79.59l-.29-.02h.32c-.1.24.76.42-3.27.79-2.51.23-4.65.55-4.18.84l-2.48.29-2.23-.21c1.35-.15,1.94-.29,2.04-.44,1.61-.3,1.73-.44.13-.42-2.16.2-2.88.15-2.14-.14.35-.14.84-.32-.59-.2-.42.04-1.08.12-1.63.21-.55.08-1,.15-.99.17.32.54-5.4,1.11-7.6,1.64-.45.11-.63.21-.94.32l-.38.2c-5.11.48-10.48.71-15.05,1.5-1.15.2-2.79.17-3.95.17-2.09,0-3.5.14-4.62.45-3.29.14-6.58.26-9.87.36l-.19-.17c-.29-.24-1.88-.26-3.88-.13-1.55.1-1.03.28-1.13.42-5.47.39-10.95.76-16.7,1.05l.23.05c-.07.08.38.16-.71.22-.31.12-.42.25-1.83.29.48-.42-2.27-.41-4.5-.4-4.81.02-10.4-.05-14.6.31-2.91.25-4.88.31-7.72.36-1.72.03-.76.3-.9.46-5.51.13-11.02.24-16.53.31l.02-.32c1.09-.2.82-.37.28-.57-.93-.34.47-.53,3.42-.54l2.6-.19c1.55-.04,3.43,0,4.11-.29l-2.86-.04c-.36-.14-2.05-.28.13-.45,1.14.16,2.3.16,3.48-.05l4.11-.07c1.7.49,5.03.77,8.69,1,2.57-.41,6.34-.74,6.86-1.27,3.61-.03,7.21-.05,10.84-.33.09.17-.3.39.41.48.94.12-2.83.53.6.41,2.38-.08,1.9-.31,1.64-.5-.12-.09-.15-.4,1.41-.16,2.86.44,2.23-.29,4.68-.31.37.06.65.19,1.14.18,1.42-.03,1.4-.19,1.78-.31,4.61-.15,9.08-.64,13.99-.65,2.55-.01,3.89-.53,4.63-.86,7.53-.44,15.06-.92,22.57-1.51-.01.09-.24.21.01.27.71.17-2.87.88,1.03.59,3.45-.26.44-.42.92-.67.14-.07,1.28-.2,1.96-.3,6.33-.83,13.19-1.42,19.77-2.08,1.92-.19,4.99-.9,6.56-.64.89.11,4.19-.07,7.72-.35,3.52-.3,7.28-.7,9.09-1.05Zm-21.81,2.14l-.7.2c.33-.02.71-.03.96-.07.25-.04.36-.1.53-.15-.27,0-.53.01-.79.02Zm-37.42,3.68c-.14,0-.34.01-.52.02.03.06.23.04.52-.02Z"/><path d="m415.45,4.38c4.23.15,8.43.39,12.61.75,4.18.35,8.35.74,12.55,1.05,1.05,1.12,6.51.91,10,1.29.68.37.56.7,4.34.71,2.29,0,5.57.44,8.47.81,2.3.46-4.99.57,3.57,1.28,1.23.23,3,.41,3.1.81.05.2,1.21.63,2.31.79,1.13.15,2.19.18,2.63.08.72-.15-1.45-.51-2.11-.71-1.29-.44-2.2-.85-3.27-1.26.73-.13,3.75.59,3.66.19.88.46,2.98.88,4.85,1.33,1.86.46,3.47.94,3.35,1.32-.12.35-2.82.04-4.04.23-1.25.15-6.2-.87-10.17-1.56-1.78-.33-3.47-.74-5.26-1-1.73-.24-3.83-.8-5.13-.63-1.39.17,3.42.54,2.49.83-2.79-.04-5.66-.19-8.88-.64-.2-.62-1.01-1.13-5.88-.94-3.62.14-8.1-1.03-11.61-.65l-1.33-.07-2.52-.37c-4.21-.98-8.79-1.3-13.8-1.04-2.92-.66-6.24-1.1-10.56-1l-1.83-.09c.22-.04.36-.1.68-.11,2.43-.08,4.06-.24,1.59-.79-.65-.15-2.44-.37-2.14-.16.7.47-7.28.19-1.47,1.11-1.57-.03-3.88-.22-3.87.19l-2.73-.15c-.08-.22,2.11-.34.26-.63-1.47-.23-3.07-.2-4.29-.07l-1.72-.1c-3.54-.23-3.74-.66-4.22-1.07-.28-.24-1.11-.46-2.8-.54-.63-.03-1.62.01-1.82.08-.57.2.8.33,1.88.47,3.89.52-3.16.58.21,1.09-.86.34-3.04.2-5.09.11l-.02-.26c.05-.25,3.11-.46-.12-.75-2.39-.22-4.07.06-3.61.5l-3.14-.12-4.32-.53c-1.2-.34-1.79-.67-.74-.97.48-.14.37-.3-1.01-.37-1.66-.09-1.92.09-2.19.26l-2.33-.27-.03-.58c3.95.2,8.41.12,11.03.96.99.32,2.46.22,2.71-.06.18-.2-.12-.45,1.55-.5,6.87-.19,13.92.11,21.14.82,4.37.91,13.53,1.47,19.08.97Zm44.77,4.98c-.46-.05-.92-.02-1.38-.03.38.1.72.23,1.15.29.44.06.97.06,1.81.1-.72-.17-1.15-.3-1.58-.36Z"/><path d="m6.02,33.94c-1.17,1.08-1.92,1.92-2.52,2.64-.62.72-1.02,1.37-1.39,2.13-.13.39-.29.45-.43.74-.09.15-.1.36-.11.71-.03.35.07.83.28,1.48.41,1.03.77,1.31.91,1.34.16.02.18-.25.22-.47.06-.43.26-.71.43-1.02.77,2.01,2.64,3.73,4.61,5.17-.07.12-.34.13-.25.35.1.22.55.69,2.02,1.6,2.24,1.34,3.26,2,2.99,2.3-.37.08-3.1-1.42-1.92-.39.41.37,1.45,1.07,2.18,1.44,2.47,1.18.99.06,1.61.16.34.05.62.04,1.11.18.94.27,3.58,1.3,2.7.67-1.01-.73-3.03-1.17-4.66-2.07l.24-.47c6.52,3.13,13.2,5.6,19.8,8.01-1.26.18-2.21.64-7.77-1.81-.92-.41-2.44-.94-2.91-.87-.49.07.65.58,1.94,1.09.32.43.64.86.8,1.26l-1.95-.54,1.45.79c-4.68-1.28-8.91-3.09-12.55-5.46-.85-.83-2.57-2.19-4.65-3.14-1.98-.92-4.54-2.82-6.24-5.49-.85-1.32-1.39-2.9-1.45-4.37-.06-1.45.22-2.71.38-3.58.63-1.11,1.39-2.06,2.23-2.88.83-.84,1.71-1.57,2.62-2.25,1.82-1.35,3.76-2.46,5.71-3.4.06.33.85.14,1.91-.26,1.06-.4,2.46-.97,3.69-1.6,2.22-1.04,3.61-1.43,5.39-1.87-.22.35-1.36.82-2.65,1.28-.64.23-1.32.47-1.93.71-.6.27-1.13.53-1.49.78-.54.37-2.79.68-3.48,1.48-.42.47,1.59-.24,2.88-.53,1.31-.31,2.26-.72,3.93-1.5,1.05-.5,2.18-1.06,3.35-1.41,1.17-.36,2.34-.62,3.41-.64,1.28-.04,3.37-.83,4.61-1.32,2.16-.82.33-.48-1.01-.29-2.12.3-4.21.63-3.96.08.42-.19.83-.38,1.26-.54,1.25.04,2.97-.31,4.85-.78,1.89-.42,3.94-.98,5.85-1.38,1.49-.29,4.84-1.29,3.98-.39-.21.19,4.35-1,4.46-1.2.2-.43,1.45-.65,3.14-.97l1.24-.22c2.29-.56,5-1.31,4.17-.41-1.09.62-1.05.6.93.37.88-.09,2.04-.17,2.25-.1.72.28-2.79.74-3.3,1.12-1.75.38-3.55.76-5.28,1.14-1.73.37-3.41.63-4.97.58-.8-.04-2.97.72-2.82.74.66.13-4.13,1.27-.67.83-.1.21-.47.32-1.87.59-2.29.45-4.56.93-6.85,1.43-2.26.59-4.56,1.14-6.75,2.03-.51-.55-1.98-.21-3.65.46-1.64.71-3.57,1.55-4.97,2.16-.82.34-1.57.68-2.29,1.03-.72.37-1.4.75-2.07,1.15-1.35.79-2.68,1.61-4.23,2.56.24-.4.88-1.04.8-1.17-.04-.09-.96.19-3.28,2.22Zm-.8,12.04c-.22-.12-.42-.26-.64-.4.21.25.45.54.66.71.18.15.32.19.49.28-.18-.21-.35-.4-.52-.59Z"/><path d="m470.82,15.07c-4.16-1.87-9.24-4.07-13.3-5.14-3.38-1.53-8.89-2.87-13.1-4.06-1.2-.34-1.67-.44-2.54-.61-2.69-.52-3.5-.03-.6.76,3.05.85,3.97,1.25,4.69,1.64.75.41,2.19,1.01,5.16,1.56.33.06,1.53.39,2.03.56,4.88,1.68,9.63,3.21,14.28,5.29,5.3,2.41,10.58,5.17,14.69,9.23,2,2.03,3.65,4.5,3.99,7.28.16,1.38-.01,2.78-.46,4.1-.46,1.32-1.17,2.57-2.02,3.71l.19.11c.58-.78,1-1.46,1.17-1.61.85-1.5,1.41-3.5,1.42-4.9.06-.84-.08-1.73-.29-2.6-.12-.44-.26-.87-.45-1.28l-.26-.63-.33-.59c-.86-1.58-1.98-2.91-2.83-3.98-.5-.64-2.93-3.06-5.92-4.94-2.93-1.95-6.19-3.55-7.32-4-.37-.16-.78-.28-.74-.23.42.49-1.58-.57-2.52-1.01-1.11-.56-1.79-.91-2.75-1.39-.55-.26-2.37-.87-2.17-.89.13-.02,1.18.31,2.58.82,2.92,1.06,6.88,2.96,7.4,2.83Z"/><path d="m132.56,6.53c-3.06.37-6.71.61-8.68,1.28.89-.02,2.03.02,2.64-.07,2.35-.36,4.57-.74,6.34-.42,1.46.27-.53.64-1.95,1.02-2.52.67-4.5.64-6.6.5-1.31-.08-3.48.03-4.53.29-3.56.88-5.22.51-7.39.46-1.38.11-3.11.36-3.49.1-.08-.05.54-.25.79-.27,1.81-.16,1.89.1,2.69.18l3.77-1.33c-2.62-.53-5.88.29-8.98.76.11.26-.07.5-2.32.78.06.18-.13.39.22.52,1.04.4-2.68.72-3.77,1.09-.3.1-1.06.24-1.3.12-.5-.23.74-.48,2.11-.79.78-.18.15-.46.16-.69-1.21.39-4.76.35-5.06.92.46.02,1.71-.09.51.18l-.47-.19c-1.8.08-.76-.51-2.98-.24-.78.1-1.38.54-2.05.82.05.16-.21.32-1.26.52.06.05.13.1.22.15l1.17-.12c1.98.07,8.13-.3-.15.88-.54.08-.77.33-1.14.51,3.58-.42,7.29-1.14,10.6-.91.4.03,5.16-.95,8.38-1.28.86-.31,1.95-.46,3.88-.68,5.65-.62,11.6-.68,16.97-1.68,2.22.39,6.07-.59,8.39-.44,2.27.13,4.08.08,6.86-.41,3.76-.67,5.44-.5,5.56.08l6.25-.5c-.31-.35,1.39-.69,2.63-1.04-2.89-.28-5.9-.55.13-1.42.77-.11.25-.23-.53-.26-2.42.53-6.04.26-8.09.73-4.71,1.07-3.81.29-4.47-.01l-1.32.11c-.11.22-.82.39-2.33.51-.16.29-1.16.45-2.63.59l.13.29c-1.46.09-1.23-.08-1.24-.22-2.86-.08-7.16.2-7.66-.42Z"/><path d="m450.62,58.98c1.56-.48,2.63-.93,3.42-1.29,1.65-.76,3.66-1.73.4-.89-5.14,1.24-5.2,1.82-7.8,2.72l-4.92,1.1c-2.38.17-6.69,1.58-9.71,2.04l-.12-.29c1.43-.3,2.95-.7,4.38-1.08,1.43-.39,2.77-.73,3.86-.86,2.74-.36,5.49-1.14,8.55-2.13,6.02-1.91,12-4.02,17.69-6.73,2.8-1.41,5.61-2.91,8.27-4.6,2.65-1.7,5.24-3.52,7.41-5.76.23-.08.34.03-.74,1.18-.59.56-1.2,1.09-1.83,1.6-.34.24-.69.47-1.05.7-.33.19-.64.41-.91.68-3.24,2.35-5.25,3.46-5.97,4.01-.74.53-.24.43,1.21-.13.09-.03.12-.03.18-.05,3-1.95,4.93-3.13,6.79-4.43.93-.65,1.84-1.34,2.78-2.23.94-.89,1.94-1.99,2.88-3.55.79-1.28,1.5-2.93,1.81-4.42.34-1.48.29-2.74.42-3.19.14,1.04.13,2.16.02,3.1-.12.94-.33,1.68-.53,1.97-.36.57-.74,1.33-1.22,2.15-.48.81-1.04,1.69-1.68,2.47-2.31,2.8-5.09,4.99-8,6.94-2.94,1.93-5.98,3.61-9.2,5.26-4.61,2.28-9.5,4.06-14.48,5.62-4.98,1.55-10.03,2.91-15.09,4.14-2.01.51-5.21,1.3-5.45.97,1.13-.52,3.04-.94,5.17-1.3,2.57-.44,4.27-.94,5.79-1.57,1.31-.29,2.62-.56,3.9-.92,1.28-.36,2.54-.77,3.76-1.26Zm11.71-5c.09.09.87.04,2.72-.89,1.82-.84,4.31-2.4,4.36-2.55.07-.34-2.1,1.1-2.97,1.45-1.63.8-4.38,1.74-4.11,1.99Zm5.83-1.57c.59-.3,1.41-.73,2.08-1.1.66-.39,1.16-.74,1.15-.84-.02-.13-.8.22-2.04.86-1.33.71-2.59,1.45-4.35,2.28,1.36-.47,2.24-.69,3.17-1.19Zm-7.39,2.43l-.71.27h.11c.53-.21.55-.23.6-.27Z"/><path d="m347.23,1.18c-3.15.07-5.61-.04-9.15-.32-2.57-.2-5.47-.31-8.45-.35-2.98-.01-6.05-.02-8.98-.03-2.93-.02-6.06-.32-8.81-.04l-.04.54c.64.26,2.3.68.32.74-5.85.19-5.08,1.2-9.14,1.59,2.16,0,4.07-.09,5.76-.27.22,0,.4-.02.56-.04.23-.24-.69-.58,1.65-.66,1.84-.06,3.15.07,3.41.38l.3.08-.28-.08c-2.71-.22-2.81.36-5.05.29-.14.03-.2.06-.17.1,2.57.6,5.72.1,8.53.24,3.6-.51,7.39-.41,11.22.13,1.14.16,1.89.38,3.18.08,1.98-.46,4.84-.2,7.59.05,3.95-.29,2.15-.84,1.2-1.36-.25-.14-1.07-.33.32-.38,1.19-.04,1.88.12,2.36.27l1.4.03c-.73-.43,3.02-.53,2.26-.96Z"/><path d="m80.59,70.29c2.44.6,4.99,1.2,8.44,1.35,4.33.01,8.86.45,13.65,1.35.94-.13,2.66,0,4.21.06l2.55.38c-.29-.19-.73-.54-.85-.55-4.7-.35-7.78-1.3-12.29-1.75-3.28-.31-6.27-.71-7.1-1.38-.02-.02-.35-.07-.54-.1-.62-.01-1.25-.03-1.88-.04.47.7-2.83.2-5.34-.18-8.24-1.27-16.6-2.22-24.86-4.16-4.97-1.17-5.26-1.14-2.75-1.28.76-.06,1.29-.19,1.92-.29-4.77-.82-10.15-2.39-14.08-2.75.87.28,1.7.59,2.61.85,1.5.42,3.76.53,4.33,1.08.24.22-2.21-.05-3.76-.24-.82-.12-2.32-.55-3.52-.85-1-.24-2.07-.59-2.6-.57-.68.03.32.43,1.32.82,1.58.6,1.92,1.06,4.45,1.71,3.12,1.14,6.63,2.16,10.92,2.8,4.96.44,10.64,1.42,16.38,2.32-.05-.16.23-.3,1.27-.14,1.83.29.62.36,1.01.55,2.5-.15,5.09-.44,6.48.98Z"/><path d="m479.48,44.01c-.34.24-.69.47-1.05.7l-.45.34-.46.34c-3.24,2.35-5.25,3.46-5.97,4.01-.74.53-.24.43,1.21-.13.09-.03.12-.03.18-.05,3-1.95,4.93-3.13,6.79-4.43.93-.65,1.84-1.34,2.78-2.23.94-.89,1.94-1.99,2.88-3.55.79-1.28,1.5-2.93,1.81-4.42.34-1.48.29-2.74.42-3.19-.19-1.14-.67-2.67-1.4-3.97-.69-1.33-1.62-2.38-2.22-2.94.58.87.49.94.18.7-.31-.25-.85-.79-1.22-1.16-2.2-2.2-.7-1.03-.92-1.45-.05-.08.04-.04.07-.06-.79-.93-2.09-1.94-3.46-2.88-1.38-.93-2.84-1.79-3.97-2.51-1.48-.74-2.77-1.4-3.85-2.06-.53.13-4.49-1.78-7.41-2.84-1.4-.51-2.45-.84-2.58-.82-.2.02,1.61.63,2.17.89.96.49,1.64.83,2.75,1.39.94.44,2.94,1.5,2.52,1.01-.05-.05.36.07.74.23,1.13.46,4.39,2.05,7.32,4,2.98,1.88,5.42,4.3,5.92,4.94.85,1.07,1.97,2.4,2.83,3.98l.33.59.26.63c.19.41.33.85.45,1.28.21.87.35,1.76.29,2.6-.01,1.4-.57,3.4-1.42,4.9-.78,1.48-.98,1.45-1.18,1.62l-.19-.11c-.49.64-1.02,1.26-1.59,1.84.23-.08.34.03-.74,1.18-.19.25-.3.46-.6.75-.98.89-1.05.8-1.23.86Z"/><path d="m291.7,3.07l-.08-.22c-1.02-.43-1.83-.86-3.11-1.27-2.73-.87-7.75-.95-11.84-.22-.51.09-.77.24-1.39.28-2.33.18-2.49.82-.16,1.05q.97.1,1.52-.31c.26-.19.19-.44,1.95-.46.54,0,1.14.22,1.71.34,3.32.14,3.1.59,3.85.96-3.79.24-7.66.21-11.57.1,1.61-.61-2.22-.71-4.04-1l-1.97.38-3.98.22c-.06-.05-.08-.1-.05-.15,2.42-.69-1.36-1.24-1.25-1.87l2.41-.04s0,.07.13.08c1.71.19,1.4.82,3.49.69,3.08-.19-.36-.62.22-.95l1.43-.43c5.84-.01,11.8-.15,17.5.15h2.48s.1.37.1.37l-.52.1.69-.07h1.56c.8.03,1.91.2,1.88-.1l2.52-.17-.35.06-.38-.06c1.73.43,6.02.41,7.23,1.1.57.33,5.99-.24,8.94-.49.49-.04.8-.12,1.2-.18.64.26,2.3.68.32.74-5.85.19-5.08,1.2-9.14,1.59-3.9.2-7.67.15-11.29-.22Zm-16.66-2c-.11-.1-.39-.2-.6-.3-.17.05-.46.11-.47.16,0,.08.18.17.31.28.37-.06.79-.1.76-.13Z"/><path d="m104.87,9.82c2.25-.28,2.43-.53,2.32-.78l-2.11.16-1.62.2c-4.06.3-7.99.57-12.25,1.3-1.74.31-4.27.64-6.38.7-2.32.08-6.65.63-7.38.78-7.68,1.67-15.22,2.48-22.7,3.45-2.75.38-4.41.94-6.64,1.39-5.69,1.08-11.37,2.34-17.01,3.77-5.64,1.45-11.24,3.15-16.7,5.5-1.18.47-2.37.97-2.94,1.5.06.33.85.14,1.91-.26,1.06-.4,2.46-.97,3.69-1.6,2.22-1.04,3.61-1.43,5.39-1.87.73-.48,2.32-.91,3.67-1.36.42-.19.83-.38,1.26-.54,1.25.04,2.97-.31,4.85-.78,1.89-.42,3.94-.98,5.85-1.38,1.49-.29,4.84-1.29,3.98-.39-.21.19,4.35-1,4.46-1.2.2-.43,1.45-.65,3.14-.97.38-.24.81-.31,1.27-.22,2.27-.56,4.98-1.31,4.14-.41.62-.1,1.25-.21,1.88-.31,1.92-.6,3.91-1.18,6.69-1.27,2.2-.76,4.31-1.68,7.35-1.18l3.62-.47c.72-.55,3.16-.73,5.11-.99,2.86-.4,2.4-.02,2.62.2,3.22-1.07,6.56-1.26,9.92-1.21.68-.28,1.27-.72,2.05-.82,2.22-.27,1.18.33,2.98.24.26-.56,3.81-.52,5.02-.91l2.58-.25Z"/><path d="m239.82.94c-1.79-.29-3.76-.43-6.41-.01,1.52.26,3.01.55,1.23.95-1.4.32-2.48-.14-4,.02-2.01-.53-3.13-.14-4.44.22-1.49.41-2.96.54-4,.08-3.58.26-3.01.7-3.64,1.08.55.4,3.45.42,4.87.69,2.4.31,5.56.29,8.57.02,2.26-.2,4.22-.25,6.4-.22,2.21-.28-.11-.9,3.74-1.01,2.85-.09,2.38.36,2.84.64l2.53-.09c-.19-.27-.53-.53-.5-.8.02-.18,1.19-.26,2.28-.28.95-.01,1.66.08,1.12.21-.8.2-3.01.42-.67.57.59.04,2.64-.34,4.02-.52.44-.07.66-.24,1.56-.09l-1.59.09c.97.74,4.13.52,7.44.29,1.01-.63-4.04-.89-3.68-1.47-5.45.44-5.4-.06-4.99-.61-2.19.14-3.99-.22-6.25,0,.34.63-2.07,1.23-5.85,1.26-5.23.03,1.67-.61-.14-.87-.25-.04-.29-.1-.44-.16Z"/><path d="m218.15,78.65l2.06.03,3.98-.12,1.47-.02s-.07-.09-.12-.14c-.86-.07-1.29-.15-.55-.26.11-.02.46-.02.58-.01,1.13.1-.07.18-.07.27,2.08.04,3.61-.04,4.58-.28,3.08-.75,7.95-.11,7.85.08-.31.58,2.98.57,5.36.72,3-.21,5.98-.41,9.03-.63,1.33-.09,3.9-.04,3.17-.35-.6-.26-3.4-.04-4.1-.12-2.19-.23-5.56.52-6.79-.13-1.66-.04-3.63-.03-3.89-.33-1.4,0-2.89.02-3.8-.17-3.08-.05-6.18-.11-9.22-.21-6.03-.19-11.27.39-17.36.04v.37c1.49.01,3.05,0,3.83.25-.1.21-.16.42-2.45.4l1.07.5,5.36.1Z"/><path d="m160.18,4.96c.78.03,1.3.15.53.26-6.03.87-3.02,1.13-.13,1.42l2.33-.2-.08-.54-.3-.06.28.06c2.13.05,6.72-.66,6.41.15,3.52-.29,6.75.21,10.64-.56.56-.11,3.03-.03,3.17.26l3.72-.13c1.59-.54,6.27-.96,5.33-1.59-.04-.03.8-.13,1.23-.2,2.81.94,3.91-.46,6.08-.39-.02-.06-.02-.12-.02-.18-6.41-.68-7.88.32-10.09,1.06l-.48.07.52-.07c-1.28-.02-3.63.03-3.68-.06-.71-1.32-5.31-.21-9.06.1-3.92.31-8.42.86-11.91.5-1.71-.04-1.49-.54-4.45-.29l-.05.39Z"/><path d="m362.3,3.05l-2.33-.27c-5.7-.34-5.6-.92-4.98-1.53-1.87-.29-1.79.07-2.71.1,1.66.9-1.16,1.55-6.34,1.51,1.18.47,1.26.91-.04,1.31,1.3.48,2.4.2,3.54.08-.75-.12-.94-.27.08-.26,1.4,0,1.16.21,1.3.35,2.99.7,7.44.48,10.65.56,5.25.17,10.97.66,15.96.4l-.02-.26-3.64-.25c-1.16.29-2.19.08-3.22-.12l-4.32-.53c-.32.24-.6.49-2.93.37-1.57-.09-2.47-.3-3.21-.52-1.74-.52.66-.69,2.21-.92Z"/><path d="m244.6,77.71c1.23.65,4.6-.1,6.79.13.7.08,3.49-.14,4.1.12.73.31-1.84.26-3.17.35-3.05.21-6.02.42-9.03.63l1.09.28h1.47c4.06-.46,9.23-.24,13.8-.41,1.09-.2.82-.37.28-.57-.93-.34.47-.53,3.42-.54l.05-.16c.04-.22.91-.33,2.72-.32.37,0,.73-.02,1.08-.04-.36-.14-2.05-.28.13-.45l-.11-.16c-7.21,0-14.41-.11-21.66.14,1.16.36,3.3.72-.96,1.01Z"/><path d="m140.99,76.11c1.49.08,1.31.77,4,.41,2.02-.27,3.87.39,5.86.36.6-.62,3.28-.35,6.09.05,2.39.34,4.37.32,6.19.19,1.88-.14,2.72-.36.75-.75-2.66-.17-5.09-.5-7.95-.53-8.91-.06-9.89-.13-16.98-1.12-.17-.02-.51-.06-.55-.06-3.67.4-9.12-.91-12.85-.64.33.33.34.66,2.84,1,.1-.21.7-.2,2.4-.04,3.61.34,6.98.7,10.2,1.13Z"/><path d="m244.6,77.71c4.27-.29,2.12-.65.96-1.01-2.81-.17-4.69-.49-8.72-.04-2.9.33-8.7-.07-13.34-.08-6.24-.03-12.8,0-19.1-.37-2.76-.16-4.59-.18-4.3.28.29.45,2.52.49,5.02.47,1.74.03,3.47.05,5.2.08,6.1.35,11.33-.23,17.36-.04,3.05.1,6.15.15,9.22.21.74-.07,1.58-.22,2.21-.2,1.4.03,1.53.22,1.58.37.25.3,2.22.29,3.89.33Z"/><path d="m189.3,4.33c2.21-.74,3.68-1.74,10.09-1.06l5.07-.48c1.34-.22,2.75-.43,2.38-.7-2.42-.33-5.48.16-8.11.3-9.98.52-19.97.83-29.99,1.75-2.67.25-3.04.45-4.05.73,3.49.36,7.99-.18,11.91-.5,3.75-.31,8.35-1.41,9.06-.1.05.1,2.4.05,3.65.06Z"/><path d="m55.77,63.71c-.63.1-1.16.23-1.92.29-2.52.14-2.23.11,2.75,1.28,8.25,1.95,16.61,2.89,24.86,4.16,2.51.38,5.81.87,5.34.18-4.61-1.27-9.74-1.84-15.4-2.39-3.66-.33-6.39-.96-5.58-1.52-3.68-.33-6.6-1.37-10.03-2Z"/><path d="m125.55,74.02c3.74-.27,9.19,1.04,12.86.64.04,0,.38.03.55.06,7.09.99,8.07,1.07,16.98,1.12,2.86.03,5.29.36,7.95.53-1.1-.6-2.31-1.19-6.67-1.68l-3.22.16c-1.2.28-3.02.16-5.59-.06-3.13-.22-6.93-.49-9.64-.68-5.47-.45-10.38-.24-15.57-1.02l1.32.82c.35.04.69.07,1.03.1Z"/><path d="m189.73,76.48c-1.66.46-3.01.91,3.57,1.16,2.12.08.78.25.62.39-3.25.23-6.83-.08-9.14-.37-5.86-.75-7.21-.35-8.5.21h-1.21c-3.85-.47-10.19-.9-4.13-1.5,1.09-.11,1.08-.4,1.58-.61,3.33.13,6.66.25,9.98.38,2.15.09,3.77.12,4-.21l3.7.17c-.15.13-.1.27-.48.38Zm-10.62.1c-.13-.02-.35-.03-.67.01.18.01.37.03.67-.01Z"/><path d="m473.3,10.16c.88.46,2.98.88,4.85,1.33,1.86.46,3.47.94,3.35,1.32-.12.35-2.82.04-4.04.23-1.25.15-6.2-.87-10.17-1.56-1.78-.33-3.47-.74-5.26-1-1.73-.24-3.83-.8-5.13-.63-1.39.17,3.42.54,2.49.83,5.78,1.29,13.19,1.76,18.92,3.93,1.79.68,1.53.04,3.03.42,1.51.22-4.86-1.99.49-.58.97,0,2.65.31,4.02.57,1.38.23,2.45.46,2.26-.06-1.07-.55-2.5-1.07-3.18-1.45-1.7-.85-1.39-1.86-6.31-2.29-.02,0-.43-.16-.97-.36-.53-.19-1.19-.44-1.71-.58-3.04-.87-6.01-1.36-8.66-1.47.76.87,4.33.73,6.03,1.35Z"/><path d="m488.35,17.46c.67.32,1.21.66,1.65.98.46.3.77.63,1.03.91.62.72,1.58,1.64,2.24,2.68.36.51.57,1.01.76,1.47.07.45.21.84.11,1.26-.08.76-.61,1.68-1.18,2.35-.54.69-1.01,1.2-.99,1.51,0,.27.18.39.56.34.37-.07,1-.22,1.72-.75.18-.13.39-.25.59-.42.18-.19.38-.39.59-.6.22-.2.38-.48.56-.77.09-.15.19-.29.27-.45.06-.17.12-.35.18-.53.28-.72.27-1.61.09-2.5-.25-.86-.68-1.74-1.32-2.49-1.21-1.5-2.94-3.14-4.76-4.29-1.13-.37-1.55-.3-1.42-.01.13.29.79.82,1.75,1.57,1.95,1.51,3.66,2.83,4.79,4.24.21.25.63,1.1.71,1.94-.01.41-.04.81-.11,1.06-.11.25-.21.36-.28.27-.12-.15-.38.15-.59.31-.26.15-.42.18-.39-.27-.04-.29-.02-.48-.1-.78-.05-.15-.06-.32-.09-.53-.04-.11-.08-.23-.11-.36-.01-.07-.03-.14-.04-.21-.03-.08-.07-.16-.11-.24-.08-.17-.12-.34-.2-.5-.09-.15-.17-.3-.24-.43-.12-.28-.3-.49-.4-.69-.2-.4-.31-.66-.31-.81,0-.31.01-.75-1.83-2.04-1.84-1.2-2.98-1.47-3.1-1.18Z"/><path d="m123.19,73.09c5.19.79,10.1.57,15.57,1.02,2.71.19,6.51.46,9.64.68,2.57.22,4.39.34,5.59.06-4.36-1.08-10.96-1.02-16.39-1.43-8.1-.62-16.41-.89-24.24-2.15l-.67.17c1.14.37,5.23,1.05-1.05.59-2.05-.16-3.24.02.28.46,3.74.21,6.52-.26,11.26.61Z"/><path d="m151.71,8.17c-.13-.58-1.8-.75-5.56-.08-2.77.49-4.59.54-6.86.41-2.32-.14-6.17.83-8.39.44-5.36,1-11.32,1.06-16.97,1.68-1.93.22-3.02.37-3.88.68,5.25-.02,10.87-.51,16.93-1.13,3.86-.39,7.79-.76,12.02-.88,3.69-.11,8.43-.74,12.7-1.11Z"/><path d="m397.77,6.09l-2.73-.15-4.02-.7c-.57-.03-1.15-.07-1.73-.1-1.88.04-3.76.08-5.64.12,3.26,1.1,9.87,1.11,14.6,1.37,9.4.59,18.91.92,28.38,1.38h2.54c-4.21-.99-8.79-1.31-13.8-1.06-4.04-.05-8.31.03-10.56-1-.61-.03-1.22-.06-1.83-.1-.44-.01-.87-.02-1.3-.03.01.14.06.2.11.27.13.05.26.11.39.16l-.9-.12-3.51-.05Z"/><path d="m290.48,76.34c3.61-.03,7.21-.05,10.84-.33,2.88-.12,5.64-.19,7.78-.02,1.94-.09,2.91-.14,3.88-.19,4.61-.15,9.08-.64,13.99-.65,2.55-.01,3.89-.53,4.63-.86-13.87.66-27.75,1.21-41.64,1.79l.52.26Z"/><path d="m193.92,78.03c-3.25.23-6.83-.08-9.14-.37-5.86-.75-7.21-.35-8.5.21,9.66.55,19.34,1.14,29.02.85,2.34-.06,3.79.31,5.69.29,2.62-.02,6.65.24,7.15-.36l-5.36-.1-8.8-.31-10.06-.21Z"/><path d="m385.81,70.83c-.1.23.76.41-3.27.78-2.51.23-4.65.55-4.18.84,10.35-.85,20.7-1.94,31.31-3.94l-.09-.17-.38-.08c-.2.04-.4.08-.62.11-1.77.37-3.53.71-4.09.49-.32.05-.64.1-.97.15l-3.78.43c-.53.33-1.81.55-3.85.66-2.23.27-4.5.86-6.55.85-.68,0,.31-.27,1.4-.48l.08-.13-1.25-.1c-2.24.02-2.4.42-3.75.59Z"/><path d="m175.08,77.86c-3.85-.45-10.19-.89-4.13-1.49,1.09-.11,1.08-.4,1.58-.61-1.84-.13-1.22-.29-1.33-.43l-2.47-.07c.75.39-2.45.4-2.55.71l1.65.15c-.12.02-.35.04-.36.04-.45-.07-.89-.13-1.33-.19-2.18-.33-.82-.59-1.27-.88-2.47-.54-5.01-.72-7.66-.41,4.36.49,5.57,1.08,6.67,1.68,1.97.39,1.13.61-.75.75-1.82.13-3.8.15-6.19-.19-2.81-.4-5.5-.67-6.09-.05,6.36.45,12.88.49,19.15,1.05,2.48.22,3.79.1,5.08-.08Z"/><path d="m111.93,72.48c-3.52-.43-2.33-.62-.28-.46,6.28.46,2.19-.22,1.05-.59-1.11.23-3.04-.21-4.55-.3.14.24-1.04.44-1.95.25-4.53-.9-7.84-.55-11.81-1.06-2.16.04-2.24-.22-2.38-.46-2.12-.54-2.68-.35-3.34-.21.19.03.52.08.54.1.82.66,3.81,1.07,7.1,1.38,4.51.45,7.59,1.4,12.29,1.75.12,0,.56.36.85.55l4.87.77,2.59.42.34-.45c-5.55-.56-5.83-1.15-5.31-1.69Z"/><path d="m44.53,63.78c-2.53-.65-2.88-1.11-4.45-1.71-1-.39-2.01-.8-1.32-.82.53-.03,1.59.32,2.6.57,1.2.3,2.7.73,3.52.85,1.55.19,4,.46,3.76.24-.57-.55-2.84-.66-4.33-1.08-.91-.26-1.74-.56-2.61-.85-1.08-.57-2.18-.63-3.27-.92-1.85-.38-3.85-.81-3.41-.34,1.73,1.78-3.91.1-8.96-1.57.53.46,3.18,1.25,3.28,1.62,4.2,1.16,8.01,2.73,12.32,3.82,3.07.76,2.47.34,2.88.2Z"/><path d="m94.39,70.32c3.97.51,7.28.16,11.81,1.06.92.18,2.09-.02,1.95-.25-7.98-.84-15.91-1.67-23.87-2.6-3.99-.46-8.16-1.15-12.07-1.88-2.37-.43-4.3-.68-6.4-.94-.81.56,1.93,1.19,5.58,1.52,5.67.55,10.79,1.12,15.4,2.39.63.01,1.26.03,1.88.04.65-.15,1.21-.34,3.33.21l2.38.46Z"/><path d="m193.92,78.03l10.06.21.11-.33c-1.37-.04-2.58-.12-2.36-.32.22-.2,1.61-.17,2.86-.14.47-.15.5-.32.54-.5-2.5.02-4.74-.01-5.02-.46-3.2-.27-6.52-.37-9.9-.38-.15.13-.1.27-.48.38-1.66.46-3.01.91,3.57,1.16,2.12.08.78.25.62.39Z"/><path d="m204.46,2.79l-5.07.49v.19s.28.06.28.06l-.27-.06c-2.18-.08-3.27,1.33-6.08.39-.43.07-1.28.17-1.23.2.94.63-3.74,1.05-5.33,1.59.28.2,1.41.11,2.42.06,1.31-.37,3.44-.38,5.32-.51,1.39.05,2.22-.75,2.99-.27.81.51,3.1.05,4.39.12,2.2-.47,3.22-.32,3.98-.03,1.32,0,2.9.28,3.69-.26l.55-.32c-1.55-.06-2.33-.31-4.5-.18-1.49-.04-.93-.28-1.07-.46-6.76-.01.86-.7-.07-.98Z"/><path d="m405.75,67.3c2.14-.1,4.62-.34,6.67-.39,4.2-.13,11.88-1.74,15.01-3.06-3.04.64-6.44,1.26-4.38.41-5.87,1.03-11.76,1.85-17.3,3.04Z"/><path d="m204.53,3.77c-6.76-.01.86-.7-.07-.98,1.34-.22,2.75-.43,2.38-.7,3.85-.27,7.9-.98,11.42-.42.17.03.23.07.17.11-5.04.78-5.41,1.63-5.09,2.46l-3.23.17c-1.55-.06-2.33-.31-4.49-.18.13-.2.16-.4-1.08-.46Zm4-.84c-.82-.05-1.58.16-1.32.25.52.18-2.03.74,1.85.51,1.93-.19,1.76-.31.35-.41-.27-.12-.26-.32-.88-.35Z"/><path d="m116.17,8.27c1.18-.1,2.18.16,3.49-.26,2.91-.95,3.24-.38,4.22-.2.89-.02,2.03.02,2.64-.07,2.35-.36,4.57-.74,6.34-.42,1.46.27-.53.64-1.95,1.02-2.52.67-4.5.64-6.6.5-1.31-.08-3.48.03-4.53.29-3.56.88-5.22.51-7.39.46,1.25-.44,2.51-.88,3.77-1.32Zm14.13-.55s-.45.06-.47.08c-.05.05.02.09.05.14l.98-.16c-.18-.02-.34-.05-.56-.07Z"/><path d="m361.56,73.88c-5.11.48-10.48.71-15.05,1.5-1.15.2-2.79.17-3.95.17-2.09,0-3.5.14-4.62.45,4.35.18,9.57-.38,14.45-.86,6.33-.6,12.31-.65,18.67-1.58.92-.13,2.06-.26,2.47-.42-1.32-.16-3.53-.03-6.05.4-3.03.52-4.5.48-5.93.35Z"/><path d="m488.35,17.46c.12-.29,1.26-.02,3.1,1.18,1.85,1.29,1.83,1.73,1.83,2.04,0,.16.11.42.31.81.1.2.28.41.4.69.07.14.15.28.24.43.08.15.12.32.2.5.04.08.07.16.11.24.01.07.03.15.04.21.03.13.07.25.11.36.03.21.04.38.09.53.08.3.07.5.1.78-.02.46.13.42.39.27.2-.16.46-.46.59-.31.07.09.17-.03.28-.27.08-.25.1-.64.11-1.06-.08-.84-.51-1.68-.71-1.94-1.13-1.42-2.84-2.74-4.79-4.24-.96-.75-1.62-1.28-1.75-1.57-.13-.29.29-.36,1.42.01-.7-.51-1.45-1-2.33-1.17.19.52-.88.28-2.26.06-1.37-.26-3.05-.57-4.02-.57,1.21.55,2.28,1.12,2.27,1.41l2.17.75c.69.28,1.42.52,2.09.86Z"/><path d="m92.24,11.56c-3.36-.05-6.7.15-9.92,1.21-1.87.79-7.84,1.45-8.8,2.31l.53.55c2.19-.12,4.15-.42,5.9-.91.27-.15-.56-.21.74-.44l.44.28c.37-.01.77-.05,1.19-.12,5.11-.76,3.95-1.62,8.65-2.37,1.05-.2,1.31-.37,1.26-.52Z"/><path d="m244.38,79.21l-1.09-.28c-2.38-.14-5.67-.13-5.36-.72.1-.19-4.78-.84-7.85-.08-.97.24-2.5.32-4.58.28.09.04.13.09.17.13l-.1.49c6.2.25,12.34.63,18.82.18Z"/><path d="m303.87,78.08c.48-.42-2.27-.41-4.5-.4-4.81.02-10.4-.05-14.6.31-2.91.25-4.88.31-7.72.36-1.72.03-.76.3-.9.46,6.06-.02,11.96.03,18.32-.45,2.75-.21,6.24-.18,9.4-.28Z"/><path d="m162.91,6.44l-2.33.2c-1.23.35-2.94.69-2.62,1.04,6.31-.17,13.03-1.06,19.44-.89,2.58.07,3.33-.71,5.64-1.02-.14-.29-2.61-.37-3.17-.26-3.89.76-7.12.27-10.64.56-2.21,1.24-4.2.1-6.31.38Z"/><path d="m56.92,16.48c-.63.1-1.26.21-1.88.31-1.09.61-1.05.59.94.37.88-.09,2.04-.17,2.25-.1.72.28-2.79.74-3.3,1.12.89-.04,1.79-.07,2.68-.08l4.12-.55c2.73-.68,5.48-1.3,8.23-1.96-5.77.31-5.68.13,1-1.56-3.04-.51-5.16.41-7.35,1.18-2.21.42-3.13,1.6-6.69,1.27Z"/><path d="m26.06,58.14c5.05,1.66,10.69,3.34,8.96,1.57-.44-.47,1.55-.04,3.41.34-.39-.74-3.09-1.05-4.59-1.6-1.26.18-2.21.64-7.77-1.81-.92-.41-2.44-.94-2.91-.87-.49.07.65.58,1.88,1.06l.55.16-.49-.13.97,1.29Z"/><path d="m218.26,1.67c.17.03.23.07.17.11.57.27,4.49-.06,3.77.43,1.04.46,2.51.33,4-.08,1.31-.36,2.44-.76,4.44-.22,1.51-.17,2.6.29,4-.02,1.78-.41.29-.69-1.23-.95-5.13.11-10.6-.27-15.15.73Z"/><path d="m294.43.54c1.73.43,6.02.41,7.23,1.1.57.33,5.99-.24,8.94-.49.49-.04.8-.12,1.2-.18l.04-.54c-4.54-.48-8.78.21-13.27-.05l-3.31.05c-.43,0-.71.04-.82.1Z"/><path d="m384.43,69.95c.89.11,4.19-.07,7.72-.35,3.52-.3,7.28-.7,9.09-1.05,3.57-.67,1.24-.66,1.92-.99-2.27.39-4.54.87-6.75.89-.48,0-2.07.17-2.17.2-2.86.82-6.59.86-9.8,1.29Z"/><path d="m473.3,10.16c-1.7-.62-5.26-.48-6.03-1.35-1.75-.61-3.57-.68-5.38-.78-3.04.12-7.77-.63-11.29-.56.68.37.56.7,4.34.71,2.29,0,5.56.44,8.39.78h1.59s.48.17.48.17l-1.98-.14c2.3.46-4.99.57,3.57,1.28.34-.23-.71-.83,2.66-.3.73-.13,3.75.59,3.66.19Z"/><path d="m306.41,77.56c-.07.08.38.16-.71.22,7.68-.23,15.79-.13,22.38-1.43l-.19-.17-5.01.29c-5.47.39-10.95.76-16.46,1.1Z"/><path d="m450.61,7.47c3.52-.07,8.25.69,11.29.56-.33-.65-3.18-.52-4.61-.7-2.75-.39-5.55-.59-8.33-.75-2.79-.16-5.59-.29-8.35-.4,1.05,1.12,6.51.91,10,1.29Z"/><path d="m359.94,2.2c3.95.2,8.41.12,11.03.96.99.32,2.46.22,2.71-.06.18-.2-.12-.45,1.55-.5.56-.57-2.76-.52-4.51-.62-3.95-.21-7.96-.35-11.95-.51.32.25-.7.49,1.17.74Z"/><path d="m339.68,3.58c-2.75-.25-5.61-.51-7.59-.05-1.29.3-2.04.08-3.18-.08-3.83-.54-7.62-.64-11.22-.13,3.56.58,8.02.57,12.37.59,3.2.03,6.38.05,9.57.08l.05-.41Z"/><path d="m8.5,32.88c.24-.4.88-1.04.8-1.17-.04-.09-.96.19-3.28,2.22-1.17,1.08-1.92,1.92-2.52,2.64-.62.72-1.02,1.37-1.39,2.13-.13.39-.29.45-.43.74-.09.15-.1.36-.11.71-.03.35.07.83.28,1.48.41,1.03.77,1.31.91,1.34.16.02.18-.25.22-.47.06-.43.26-.71.43-1.02-.63-1.61-.23-3.28.81-4.77,1.07-1.48,2.61-2.75,4.28-3.83Z"/><path d="m252.48.71c-.41.56-.46,1.05,4.99.61l3.81-.4,2.41-.04c1.02-.2,2.45-.18,3.84-.18l1.43-.43c.11-.38-1.57-.25-2.91-.2-4.53.19-9.05.39-13.57.64Z"/><path d="m57.62,18.1c-.9.02-1.79.05-2.68.08-1.75.38-3.55.76-5.28,1.14-1.73.37-3.41.63-4.97.58-.8-.04-2.97.72-2.82.74.66.13-4.13,1.27-.67.83,5.4-1.32,11.49-1.74,16.43-3.37Z"/><path d="m253.74,2.5c-1.38.19-3.43.56-4.02.52-2.35-.15-.13-.36.67-.57.54-.14-.17-.23-1.12-.21-1.09.02-2.26.1-2.28.28-.03.27.32.53.5.8,4.58.45,9.77.2,14.93.08l.16-.47c-.06-.05-.08-.1-.05-.15h-1.38c-3.31.23-6.47.45-7.41-.28Z"/><path d="m90.98,12.08c-4.7.75-3.54,1.6-8.65,2.37,2.68.11,5.39.2,8.76-.95.37-.18.6-.43,1.14-.51,8.28-1.19,2.13-.81.15-.88-.19.15.05.29-1.43.46l.26-.34c-.08-.05-.15-.1-.22-.15Z"/><path d="m12.84,52.89c-.85-.83-2.57-2.19-4.65-3.14-1.98-.92-4.54-2.82-6.24-5.49-.85-1.32-1.39-2.9-1.45-4.37-.06-1.45.22-2.71.38-3.58-.51.92-.78,2.04-.88,3.16-.02,1.12.13,2.27.55,3.24.78,2.01,2.1,3.47,3.44,4.7,2.74,2.45,5.79,4.06,8.84,5.48Z"/><path d="m114.31,74.2l-4.87-.77-2.55-.38c-.03.43-2.15.18-4.21-.06-4.79-.9-9.32-1.33-13.65-1.35.39.23,1.68.57,2.57.62,7.36.41,15.53,1.92,22.71,1.94Z"/><path d="m450.51,10.04c-.2-.62-1.01-1.13-5.88-.94-3.62.14-8.1-1.03-11.61-.65,5.17,1.19,11.53,1.19,17.49,1.59Z"/><path d="m274.92,76.61c1.7.49,5.03.77,8.69,1-.74-.5,1.15-.97,3.64-1.43-2.56-.2-4.85.09-7.21.23-1.26.44-3.33.21-5.12.2Z"/><path d="m396.37,3.4c4.37.91,13.53,1.47,19.08.97-5.41-.66-10.9-.69-16.35-.98-.16.36-1.48.17-2.73,0Z"/><path d="m141.34,6.88c1.47-.14,2.47-.3,2.42-.54h-1.62s-.37-.18-.37-.18l1.2-.02,1.01.16c1.51-.12,2.22-.29,2.33-.51-4.61.26-8.66-.03-13.73.75.5.63,4.8.35,7.66.42.37-.02.74-.05,1.11-.07Z"/><path d="m71.84,68.9c-5.74-.9-11.42-1.88-16.38-2.32,1.86.69,3.65,1.17,6.57,1.36,3.71.25,8.18,1.34,12.23,1.79l-.17-.42c-.74-.13-1.49-.27-2.25-.4Z"/><path d="m345.95,2.85c5.18.04,8-.61,6.34-1.51l-5.06-.16c.76.43-2.99.53-2.26.96,1.47.23.84.48.99.71Z"/><path d="m69.97,15.59c-2.74.65-5.49,1.28-8.23,1.96,4.24-.36,8.44-.76,12.3-1.91l-.53-.55-3.55.51Z"/><path d="m213.33,4.24l-3.23.17-.55.32c4.72-.11,9.52-.01,13.87-.74-1.42-.27-4.31-.29-4.87-.69-.9.11-1.67.2-2.44.3-.19.27-.3.53-2.79.65Z"/><path d="m339.68,3.58l-.05.41,6.28.17c1.3-.4,1.22-.84.04-1.31-3.06-.12-2.33-.45-2.39-.73-.48-.16-1.17-.31-2.36-.27-1.39.05-.57.24-.32.38.95.52,2.75,1.07-1.2,1.36Z"/><path d="m160.18,4.96l.05-.39c-4.29.25-9.03.03-12.61,1.1.66.3-.23,1.08,4.47.01,2.05-.47,5.67-.19,8.09-.73Z"/><path d="m117.25,74.17l-.34.45c4.85.76,9.29.77,13.82.91l-2.33-.51c-2.49-.34-2.51-.68-2.84-1-.34-.03-.68-.07-1.03-.1-.06.64-.86,1.16-7.28.26Z"/><path d="m172.53,75.76c3.33.13,6.66.25,9.98.38,2.15.09,3.77.12,4-.21-4.42-.57-9.38-.35-13.99-.68-.02.16-.03.33.01.5Z"/><path d="m128.39,75.02l2.33.51c3.58.48,7.29,1.13,10.28.58-3.22-.43-6.59-.79-10.2-1.13-1.71-.16-2.3-.17-2.4.04Z"/><path d="m239.82.94c.14.05.18.12.44.16,1.81.26-5.1.9.14.87,3.77-.03,6.19-.63,5.85-1.26-2.22-.06-4.58-.3-6.42.23Z"/><path d="m361.56,73.88c1.43.13,2.89.17,5.93-.35,2.52-.43,4.72-.56,6.05-.4.88-.12,2.03-.22,2.34-.39-.74-.07-1.49-.14-2.23-.21-3.93.29-7.8.8-11.7,1.15l-.38.2Z"/><path d="m423.05,64.26c-2.06.85,1.34.23,4.38-.41,2.26-.4,3.66-.79,4.56-1.19l-.12-.29c-2.87.7-5.74,1.36-8.82,1.89Z"/><path d="m259.65,78.8c-4.57.17-9.74-.05-13.8.42,4.59.38,9.19-.08,13.78-.1l.02-.32Z"/><path d="m25.71,25.53c-.51-.55-1.98-.21-3.65.46-1.64.71-3.57,1.55-4.97,2.16.14.09.04.3.33.3.29,0,.93-.26,2.66-.95.86-.35,1.79-.7,2.73-1.05.96-.31,1.95-.62,2.9-.92Z"/><path d="m244.97,3.41c-.45-.27.01-.72-2.84-.64-3.84.11-1.53.73-3.74,1.01,3.08.44,4.39-.25,6.57-.37Z"/><path d="m383.65,5.27c1.88-.04,3.75-.08,5.64-.12-3.53-.23-3.73-.66-4.22-1.07-.28-.24-1.11-.46-2.8-.54-.63-.03-1.62.01-1.82.08-.57.2.8.33,1.88.47,3.89.52-3.16.58.21,1.09.35.04.73.07,1.12.09Z"/><path d="m430.03,64.45c-2.43.65-5.92.52-7.7,1.6,1.13.23,1.15.27,7.7-1.6Z"/><path d="m280.29,2.28c3.32.14,3.1.59,3.85.96,2.6.02,5.45.28,7.56-.16l-.08-.22c-1.86-.1-5.14.09-5.44-.28-.67-.82-3.33-.47-5.89-.29Z"/><path d="m272.57,3.33c1.61-.61-2.22-.71-4.04-1l-1.97.38-1.55.78c2.6.08,4.87-.4,7.56-.16Z"/><path d="m13.8,50.89l.24-.47c-2-1.18-3.91-2.45-6.02-3.77-.07.12-.34.13-.25.35.1.22.55.69,2.02,1.6,2.24,1.34,3.26,2,2.99,2.3,1.08.43.86.08,1.02-.02Z"/><path d="m287.25,76.18c-2.49.46-4.37.93-3.64,1.43,2.57-.41,6.34-.74,6.86-1.27l-.52-.26-2.71.1Z"/><path d="m359.94,2.2c-1.87-.25-.86-.49-1.17-.74l-3.78-.21c-.62.61-.72,1.19,4.98,1.53l-.03-.58Z"/><path d="m74.09,69.31l.17.42c2.43.37,4.53.54,6.33.56-1.39-1.41-3.98-1.13-6.5-.98Z"/><path d="m354.17,72.78c-.01.09-.24.21.01.27.71.17-2.87.88,1.03.59,3.45-.26.44-.42.92-.67.14-.07,1.28-.2,1.96-.3-.85-.1-1.62-.22-3.93.11Z"/><path d="m274.92,76.61c1.8,0,3.86.24,5.12-.2l-2.76-.03c-1.04.04-1.93.03-2.42-.09l-5.12.22,1.07.15,4.11-.07Z"/><path d="m482.11,22.53s-.12-.02-.07.06c.21.42-1.29-.75.92,1.45.38.37.92.91,1.22,1.16.31.24.41.16-.18-.7-.6-.69-1.22-1.36-1.89-1.96Z"/><path d="m166.19,75.98c.1-.31,3.3-.32,2.55-.71l-3.86-.16c.45.29-.91.55,1.31.88Z"/><path d="m484.09,15.86c.01-.29-1.06-.86-2.27-1.41-5.34-1.41,1.02.8-.48.58.21.12.51.22.9.33l1.56.5c.33.09.43.09.3,0Z"/><path d="m292.65.71l2.52-.17c-1.11-.42-4.18-.33-6.08-.5l-.14.37.1.38c.68.02,1.2.02,1.71.01.19-.21,1.05-.14,1.89-.09Z"/><path d="m29.34,59.76c-.1-.38-2.75-1.16-3.45-1.65l-1.96-.54,1.45.79c1.23.56,2.54,1.03,3.95,1.4Z"/><path d="m205.86,5c-.77-.29-1.79-.44-3.98.03,1.07.13,1.53.62,3.98-.03Z"/><path d="m224.2,78.56l-3.98.12c-.19.43,2.01.36,3.97.33v-.45Z"/><path d="m194.49,5.18c-1.88.12-4.01.13-5.32.51,2.73.24,4.17-.07,5.32-.51Z"/><path d="m470.83,15.08c1.08.66,2.37,1.32,3.85,2.06-1.2-.72-1.78-1.42-3.85-2.06Z"/><path d="m270.82,76.67l-1.07-.15-2.52.04.11.16c1.14.16,2.3.16,3.49-.05Z"/><path d="m309.16,3.08s.03-.07.17-.1c-.18.02-.37.04-.59.04-.12.13-.24.27-.36.4l.77-.35Z"/><path d="m274.86,76.3c.49.12,1.38.12,2.42.09.02-.26-.8-.28-2.42-.09Z"/><path d="m350.83,4.33c-.14-.14.1-.34-1.3-.35-1.02,0-.84.14-.08.26l1.38.09Z"/><path d="m288.94.4l.14-.37c-1.3.06-2.2.18-2.62.37h2.48Z"/><path d="m295.25.44l3.31-.05c-1.39-.25-2.5-.24-3.31.05Z"/><path d="m172.47,75.75l.05-.49c-.83-.07-1.27-.05-1.32.07.11.15-.51.3,1.27.42Z"/><path d="m81.13,14.57l-.44-.28c-1.31.23-.47.29-.74.44.4-.02.8-.07,1.19-.16Z"/><path d="m396.38,3.4c1.25.16,2.57.35,2.73,0-1.14-.11-2.28-.21-2.73,0Z"/><path d="m361.94,73.68c3.9-.35,7.77-.86,11.7-1.15,1.36-.15,1.95-.3,2.05-.44l.13-.42c-2.16.2-2.88.15-2.14-.14.35-.14.84-.32-.59-.2-.42.04-1.08.12-1.63.21-.55.08-1,.15-.99.17.32.54-5.4,1.11-7.6,1.64-.45.11-.63.21-.94.32Z"/><path d="m442.96,61.16c1.31-.29,2.62-.56,3.9-.92,1.28-.36,2.54-.77,3.75-1.26-4.32,1.24-.93-.25-3.99.54l-4.92,1.1c.69.1,3.35-.35,1.25.53Z"/><path d="m309.1,75.98c-2.14-.17-4.9-.1-7.78.02.09.17-.3.39.41.48.94.12-2.83.53.6.41,2.38-.08,1.9-.31,1.64-.5-.12-.09-.15-.4,1.41-.16,2.86.44,2.23-.29,3.72-.26Z"/><path d="m399.73,69.44l3.78-.43c.47-.21,3.67-.81.8-.56-3.03.26-4.01.65-4.58.99Z"/><path d="m390.73,70.47c-1.09.21-2.08.47-1.4.48,2.05,0,4.32-.58,6.55-.85-.24-.34-3.13.18-5.15.38Z"/><path d="m322.87,76.47l5.01-.29c-.29-.24-1.88-.26-3.88-.13-1.55.1-1.03.28-1.13.42Z"/><path d="m267.2,77.18c-.35.02-.71.04-1.08.04l-.14.29c1.53-.05,3.4-.01,4.08-.29l-2.86-.04Z"/><path d="m404.48,68.86c.56.22,2.32-.12,4.09-.49l-.17-.24c-1.32.26-2.62.5-3.93.73Z"/><path d="m380.21,70.67c-.27,0-.53.01-.79.02l-.7.2c.33-.02.71-.03.96-.07.25-.04.36-.1.53-.15Z"/><path d="m312.99,75.8l-2.92.14c.37.06.65.19,1.14.18,1.42-.03,1.4-.19,1.78-.31Z"/><path d="m389.57,70.24l1.25.1c1.87-.43.38-.28-1.25-.1Z"/><path d="m408.41,68.13c.67-.12,1.67-.25,1.64-.36,0-.02-.5,0-.75.05-1.14.19-.8.23-.89.31Z"/><path d="m375.82,71.68l-.13.42c1.61-.3,1.73-.44.13-.42Z"/><path d="m341.48,74.39c.03.06.23.04.4.04-.03-.06-.23-.04-.4-.04Z"/><path d="m263.41,77.53l-.05.16,2.6-.19c-.83,0-1.69.02-2.55.03Z"/><path d="m385.78,70.84l-.29-.02c.11,0,.22,0,.29.02Z"/><path d="m409.2,68.26l.38.08c1.07-.25.84-.26-.38-.08Z"/><path d="m362.3,3.05c-1.54.24-3.95.4-2.21.92.74.22,1.64.43,3.21.52,2.33.13,2.61-.13,2.93-.37-1.2-.34-1.79-.67-.74-.97.48-.14.37-.3-1.01-.37-1.66-.09-1.92.09-2.19.26Z"/><path d="m469.65,9.97c-3.37-.52-2.31.07-2.66.3,1.23.23,3,.41,3.1.81.05.2,1.21.63,2.31.79,1.13.15,2.19.18,2.63.08.72-.15-1.45-.51-2.11-.71-1.29-.44-2.2-.85-3.27-1.26Z"/><path d="m404.81,5.96c2.24,1.03,6.52.95,10.56,1-2.92-.66-6.24-1.1-10.56-1Z"/><path d="m401.68,5.83c.43.01.87.02,1.3.03.22-.04.36-.1.68-.11,2.43-.08,4.06-.24,1.59-.79-.65-.15-2.44-.37-2.14-.16.7.47-7.28.19-1.43,1.04Z"/><path d="m373.78,4.78l3.64.25c.05-.25,3.11-.46-.12-.75-2.39-.22-4.07.06-3.52.5Z"/><path d="m391.01,5.25l4.02.7c-.09-.22,2.11-.34.26-.63-1.47-.23-3.07-.2-4.29-.07Z"/><path d="m461.8,9.72c-.72-.17-1.15-.3-1.58-.36-.46-.05-.92-.02-1.38-.03.38.1.72.23,1.15.29.44.06.97.06,1.81.1Z"/><path d="m397.77,6.09l3.51.05c.17-.01.34-.03.51-.04l-.15-.19c-1.57-.03-3.88-.22-3.87.19Z"/><path d="m370.56,4.66c1.03.2,2.06.41,3.14.12l-3.14-.12Z"/><path d="m454.14,9.83c-.35-.07-.53-.06-.71-.05.13.03.25.06.71.05Z"/><path d="m26.1,22.7c-1.35.45-2.93.88-3.67,1.36-.22.35-1.36.82-2.65,1.28-.64.23-1.32.47-1.93.71-.6.27-1.13.53-1.49.78-.54.37-2.79.68-3.48,1.48-.42.47,1.59-.24,2.88-.53,1.31-.31,2.26-.72,3.93-1.5,1.05-.5,2.18-1.06,3.35-1.41,1.17-.36,2.34-.62,3.41-.64,1.28-.04,3.37-.83,4.61-1.32,2.16-.82.33-.48-1.01-.29-2.12.3-4.21.63-3.96.08Z"/><path d="m13.8,50.89c-.16.1.06.45-1.02.02-.37.08-3.09-1.42-1.92-.39.41.37,1.45,1.07,2.18,1.44,2.47,1.18.99.06,1.61.16.34.05.62.04,1.11.18.94.27,3.58,1.3,2.7.67-1.01-.73-3.03-1.17-4.66-2.07Z"/><path d="m5.74,46.57c-.18-.21-.35-.4-.52-.59-.22-.12-.42-.26-.64-.4.21.25.45.54.66.71.18.15.32.19.49.28Z"/><path d="m49.63,17.43l1.24-.22c-.4.07-.83.15-1.24.22Z"/><path d="m483.82,39.49c.2-.16.39-.13,1.18-1.62-.18.16-.59.83-1.18,1.62Z"/><path d="m104.87,9.82l-2.58.25c0,.23.62.51-.16.69-1.38.31-2.61.56-2.11.79.24.11,1-.02,1.3-.12,1.08-.36,4.81-.68,3.77-1.09-.34-.13-.16-.34-.22-.52Z"/><path d="m112.39,9.6c-.81-.08-.88-.34-2.69-.18-.25.02-.87.22-.79.27.38.26,2.12.02,3.49-.09Z"/><path d="m141.34,6.88c-.37.02-.74.05-1.11.07.01.14-.21.32,1.24.22l-.13-.29Z"/><path d="m91.19,12.23l-.26.34c1.49-.16,1.25-.3,1.43-.46l-1.17.12Z"/><path d="m97.27,10.98l.47.19c1.2-.28-.05-.17-.47-.19Z"/><path d="m446.63,59.52c3.06-.79-.33.7,3.99-.54,1.57-.48,2.63-.93,3.42-1.29,1.65-.76,3.66-1.73.4-.89-5.14,1.24-5.2,1.82-7.8,2.72Z"/><path d="m466.44,52c-1.63.8-4.38,1.74-4.11,1.99.09.09.87.04,2.72-.89,1.82-.84,4.31-2.4,4.36-2.55.07-.34-2.1,1.1-2.97,1.45Z"/><path d="m464.99,53.61c1.36-.47,2.24-.69,3.17-1.19.59-.3,1.41-.73,2.08-1.1.66-.39,1.16-.74,1.15-.84-.02-.13-.8.22-2.04.86-1.33.71-2.59,1.45-4.35,2.28Z"/><path d="m479.48,44.01c.18-.05.26.03,1.23-.86.3-.28.41-.49.6-.75-.59.56-1.2,1.09-1.83,1.6Z"/><path d="m460.17,55.12c.37-.19.13-.1-.11,0h.11Z"/><path d="m477.51,45.39l.46-.34.45-.34c-.33.19-.64.41-.91.68Z"/><path d="m314.36,2.69c-.26-.31-1.57-.44-3.41-.38-2.34.08-1.42.42-1.65.66,2.28.07,2.37-.51,5.06-.28Z"/><path d="m343.56,2.12c.06.28-.67.61,2.43.74-.18-.24.44-.48-1.03-.72l-1.4-.02Z"/><path d="m314.38,2.69l.28.08c-.1-.03-.2-.05-.28-.08Z"/><path d="m71.84,68.9l2.27.41c-.38-.19.82-.26-1.01-.55-1.04-.16-1.32-.02-1.27.14Z"/><path d="m102.68,72.99c2.06.23,4.18.49,4.21.06-1.55-.06-3.27-.19-4.21-.06Z"/><path d="m280.29,2.28c2.57-.17,5.22-.52,5.89.29.3.37,3.57.18,5.44.28-1.02-.43-1.83-.86-3.11-1.27-2.73-.87-7.75-.95-11.84-.22-.51.09-.77.24-1.39.28-2.33.18-2.49.82-.16,1.05q.97.1,1.52-.31c.26-.19.19-.44,1.95-.46.54,0,1.14.22,1.71.34Z"/><path d="m261.15,2.78h1.38c2.42-.69-1.36-1.23-1.25-1.87l-3.81.4c-.35.58,4.69.84,3.68,1.47Z"/><path d="m267.53.69c-1.38,0-2.81-.02-3.84.18.04.03,0,.07.13.08,1.71.19,1.4.82,3.49.69,3.08-.19-.36-.62.22-.95Z"/><path d="m274.28,1.21c.37-.06.79-.1.76-.13-.11-.1-.39-.2-.6-.3-.17.05-.46.11-.47.16,0,.08.18.17.31.28Z"/><path d="m292.65.71c-.84-.06-1.7-.13-1.89.09.8.04,1.92.21,1.89-.09Z"/><path d="m289.04.78l-.52.1c.23-.03.46-.05.52-.1Z"/><path d="m69.97,15.59l3.55-.51c.96-.86,6.93-1.52,8.8-2.31-.23-.22.24-.6-2.62-.2,1.26.19-.8.63-2.1.91-1.59.34-2.39.2-3.02.09l-3.62.47c-6.68,1.69-6.76,1.87-1,1.56Z"/><path d="m74.58,13.56c.63.11,1.43.25,3.02-.09,1.3-.28,3.36-.72,2.1-.91-1.95.26-4.39.44-5.11.99Z"/><path d="m56.92,16.48c3.56.33,4.47-.85,6.69-1.27-2.78.1-4.77.67-6.69,1.27Z"/><path d="m49.61,17.43l1.29-.23c-.46-.09-.89-.02-1.29.23Z"/><path d="m213.33,4.24c2.49-.12,2.6-.38,2.79-.65-.39-.35.91-.32,2.3-.28.76-.4.2-.84,3.78-1.1.72-.5-3.2-.17-3.77-.43-5.03.78-5.4,1.63-5.09,2.46Z"/><path d="m253.71,2.5l1.59-.09c-.9-.15-1.12.02-1.59.09Z"/><path d="m205.03,77.47c-.61.13-.78.28-.95.44,2.56.05,5.1.09,7.64.14,2.29.03,2.35-.19,2.45-.4-1.36-.06-3.04-.02-3.84-.26l-5.3.07Z"/><path d="m240.72,77.37c-.05-.16-.18-.34-1.58-.37-.63-.01-1.47.13-2.21.2.9.19,2.39.17,3.8.17Z"/><path d="m210.32,77.4c.81.23,2.48.2,3.84.26-.78-.24-2.34-.24-3.84-.26Z"/><path d="m225.5,78.41c0-.09,1.2-.17.07-.27-.12-.01-.48,0-.58.01-.73.11-.31.19.51.26Z"/><path d="m162.91,6.44c2.12-.28,4.11.86,6.31-.38.31-.81-4.28-.1-6.41-.15.04.18.07.36.1.54Z"/><path d="m189.33,4.33l-.52.07c.16-.02.32-.04.52-.07Z"/><path d="m162.81,5.9l-.28-.06c.1.02.2.04.28.06Z"/><path d="m263.41,77.53l2.57-.03.14-.29c-1.8-.01-2.67.1-2.72.32Z"/><path d="m117.25,74.17c6.41.9,7.21.39,7.28-.26l-1.32-.82c-4.75-.86-7.53-.4-11.26-.61-.51.54-.24,1.13,5.31,1.69Z"/><path d="m178.44,76.6l.55.04c-.01-.08-.23-.09-.55-.04Z"/><path d="m401.28,6.14l.9.12c-.13-.05-.26-.11-.39-.16-.17.02-.34.03-.51.04Z"/><path d="m166.15,75.98c.44.06.87.12,1.33.19.01,0,.24-.03.36-.04-.55-.05-1.1-.09-1.69-.15Z"/><path d="m94.39,70.32l-2.38-.46c.14.24.23.5,2.38.46Z"/><path d="m204.08,77.91c.17-.15.34-.31.51-.46-1.25-.03-2.64-.06-2.86.14-.22.21.99.28,2.35.32Z"/><path d="m205.6,4.23c.13-.2.16-.4-1.08-.46.14.17-.41.42,1.08.46Z"/><path d="m199.4,3.45l.27.06c-.09-.02-.19-.04-.27-.06Z"/><path d="m209.4,3.29c-.27-.12-.26-.32-.88-.35-.82-.05-1.58.16-1.32.25.52.18-2.03.74,1.85.51.12-.14.23-.27.35-.41Z"/><path d="m209.4,3.29c-.12.14-.23.27-.35.41,1.92-.19,1.76-.31.35-.41Z"/><path d="m130.86,7.79c-.18-.02-.34-.05-.56-.07-.03,0-.45.06-.47.08-.05.05.02.09.05.14l.98-.16Z"/><path d="m25.09,56.85l.49.13c-.18-.05-.37-.1-.49-.13Z"/><path d="m463.42,8.99l1.98.14-.48-.18c-.53,0-1.06,0-1.5.04Z"/><path d="m142.13,6.34h1.62c-.12-.09-.46-.15-.79-.2l-.83.2Z"/><path d="m218.42,3.31c-1.39-.05-2.69-.07-2.3.28l2.3-.28Z"/>
                  </g>
                </mask>
              </defs>
              <path class="mask" d="m492.18,29.12c7.45-4.1,3.47-10.16-5.51-13.75-10.72-4.28-25.11-6.07-33.84-6.75C306.46-2.77,204.37,3.81,204.37,3.81c-26.6,1.22-152.17,7.3-190.03,24.48-3.41,1.55-11.29,5.22-12.38,10.35-2.18,10.24,24.4,18.42,35.11,21.72,76.39,23.5,368.48,26.1,432.9-9.8,5.41-3.01,19.62-10.93,16.27-21.03-4.45-13.4-36.87-21.75-46.84-24.12"
                    mask="url(#path-mask)" stroke="black" stroke-width="2" fill="none"
                    stroke-dasharray="1076.1639404296875" stroke-dashoffset="1076.1639404296875">
              </path>
            </svg>
        