
            <svg xmlns="http://www.w3.org/2000/svg">
              <defs>
                <mask id="path-mask">
                  <g fill="white">
                    <path d="m55.81,54.26c2.73.29,1.02-.09,1.58-.12l1.95.29c1.6.27,3.45.58,4.98.84,1.56.28,3.81.56,6,.73,2.19.14,4.3.2,5.57.15,1.73.16,2.82.19,3.56.14,2.3.2,5.73.22,7.51.5.48.15,2.51.34.8.43-1.23.07-2.56.04-4.53-.15-1.62-.16-3.1-.23-4.03-.15-.51-.03-1.02-.05-1.53-.1-1.9-.08-4.43-.66-5.94-.42-.59-.05-1.68-.14-1.71-.15-1.52.16-5-.33-8.01-.67l-.04-.09c.83.05.66.01-.27-.09-.15-.01-.31-.03-.47-.05l-.08-.13c.51.05,1.27.14,1.26.09,0-.01-.37-.07-.56-.09-.87-.09-.63-.02-.73,0l-2.99-.3c-.24-.03-.49-.06-.74-.09.38-.02,2.83.22.68-.12-2.27-.36-3.05-.36-3.53-.31-.45.06-1.42-.05-2.93-.35-.12-.19-2.33-.45-3.84-.71l.08-.04c1.44.13.33-.05-.9-.26-1.65-.37-1.83-.24-2.87-.41l-.21-.06.24.06c-.11.08.49.31-2.52-.25-1.88-.36-3.49-.63-3.19-.41l-1.86-.34-1.6-.51c1.01.2,1.47.25,1.56.21,1.22.18,1.34.14.16-.15-1.61-.32-2.13-.49-1.54-.46.28.01.67.03-.4-.19-.31-.06-.81-.15-1.22-.23-.42-.07-.75-.12-.75-.12.03.05-.09.06-.34.05h0c-.95-.1-4-1.03-5.36-1.39-.34-.09-.49-.1-.72-.15l-.31-.03c-3.67-1.32-7.39-2.98-10.57-4.55-.81-.38-1.83-1.11-2.55-1.63-.64-.48-1.16-.9-1.64-1.24-.45-.36-.84-.66-1.21-.91-.49-.41-.9-.9-1.35-1.35-.43-.47-.81-.99-1.22-1.48-.7-1.07-1.4-2.17-1.74-3.44l.03-.15c.02-.12-.08-.46-.12-.99-.03-.26-.09-.56-.11-.9,0-.34,0-.7,0-1.09.14-1.19.04-.81-.01-.91.36-2.15,1.64-4,3.13-5.52,1.54-1.5,3.32-2.74,5.21-3.86l-.16.07c.04-.05-.28.08.44-.34.19-.15.24-.24,1.19-.75-.26.31,1.61-.62,3.17-1.29,3.36-1.46,7.38-2.8,10.39-3.87,2.09-.73,3.52-1.16,5.58-1.76,1.26-.34.53-.26.62-.34,4.02-1.14,8.09-2.13,12.17-3.03v.12c-.78.25-.58.27-.16.26.71-.02-.31.27-2.49.75-.64.16-1.27.32-1.91.51-1.14.29-2.52.61-3,.83l2.11-.49c.28-.01,1.53-.26-.06.19-.85.14-1.7.35-2.56.63l-3,.81c-1.29.12-3.74.72-6.43,1.41-1.83.7-4.5,1.74-4.81,2.07-2.57.9-5.11,1.89-7.57,3.13-.09-.03.15-.24-.35-.05-.67.25,1.88-1.08-.47.05-1.61.81-1.24.76-1.04.72.09-.01.16.09-.92.55-1.96.89-1.43.92-2.97,1.92-.25.14-.44.21-.75.43-.85.66-.79.7-.99.92-.65.57-1.28,1.16-1.81,1.83l-.78,1.02-.63,1.12c-.75,1.54-1.03,3.33-.67,5.12.21.92.5,1.61.82,2.07.15.24.28.44.4.6.14.15.26.27.36.38,1.5,2.35,3.68,4.22,6.03,5.78,2.35,1.57,4.91,2.82,7.52,3.95-.03.03-.21,0-.05.1.45.3-2.14-.63.57.55,2.42,1.01.4-.01.78.05.11.02.92.33,1.41.51,2.75.99,5.65,1.95,8.61,2.79h-.03c1.96.38,3.93.77,5.86,1.16,1.43.28,3.79.54,4.91.92,1.27.43,9.79,1.98,12.57,2.24Zm-16.35-2.83l-.55-.05c.24.05.52.12.71.15.19.03.28.02.41.03-.2-.05-.39-.09-.58-.14Zm-26.55-9.58c-.08-.07-.2-.16-.31-.24,0,.03.12.12.31.24Z"/><path d="m61.45,2.35c6.38-.71,12.7-1.01,19.05-1.4.87.3,4.97-.16,7.63-.23.54.08.48.2,3.31-.02,1.72-.13,4.21-.19,6.42-.25,1.77,0-3.67.51,2.81.19.95,0,2.29-.07,2.42.05.07.06.99.12,1.84.09.86-.03,1.66-.11,1.96-.17.51-.11-1.16-.05-1.68-.07-1.02-.05-1.75-.12-2.61-.18.52-.09,2.86-.07,2.73-.19,1.43.16,6.46-.05,6.45.21,0,.12-2.03.25-2.9.4-.9.16-4.76.21-7.83.23-1.38.02-2.7-.02-4.08.02-1.33.03-2.96-.03-3.93.11-1.03.14,2.63-.03,1.96.12-2.11.16-4.32.28-6.77.32-.2-.19-.85-.32-4.5.06-2.72.29-6.17.23-8.79.61l-1.01.08-1.92.07c-3.24.02-6.71.24-10.44.82-2.24.05-4.77.25-7.98.8l-1.37.2c.16-.04.26-.08.49-.12,1.81-.33,3.01-.56,1.12-.46-.5.02-1.85.19-1.61.21.56.06-5.4,1.01-.99.56-1.18.18-2.91.45-2.86.59l-2.04.34c-.09-.06,1.53-.41.13-.24-1.11.15-2.29.42-3.18.65-.43.08-.85.17-1.28.26-2.63.55-2.82.45-3.22.41-.23-.02-.86.07-2.11.38-.46.11-1.18.32-1.32.4-.39.19.62-.07,1.43-.23,2.9-.6-2.24.81.28.31-.59.26-2.19.69-3.67,1.11l-.05-.08c0-.09,2.19-.82-.18-.21-1.75.46-2.92.97-2.53.99-.75.24-1.52.45-2.26.72l-3.14.95c-.9.22-1.37.27-.67-.1.32-.17.22-.19-.76.15-1.19.42-1.35.55-1.51.68l-1.68.56-.11-.17c2.81-1.05,5.97-2.25,7.95-2.65.75-.16,1.8-.52,1.94-.67.1-.11-.15-.11,1.05-.53,4.93-1.67,10.18-2.9,15.63-3.7,3.34-.37,10.23-1.3,14.36-1.95Zm34.06-1.57c-.35,0-.7.05-1.04.07.3,0,.57.03.89.02.34,0,.73-.04,1.37-.08-.56-.01-.9-.03-1.22-.02Z"/><path d="m231.68,37.9c1.96-1.5,2.83-2.22,3.74-3.13.41-.48.41.02,1.34-1.77.31-.75.34-1.07.31-1.15-.03-.08-.13.06-.22.19-.17.24-.35.33-.52.47.37-.84.53-1.75.5-2.64-.06-.9-.36-1.77-.78-2.59.04-.03.18.07.14-.08-.05-.15-.2-.62-1.01-1.65-1.29-1.49-2.02-2.06-1.86-2.14.25.04,1.94,1.69,1.2.79-.13-.16-.36-.41-.61-.67-.27-.25-.56-.51-.8-.7-1.66-1.24-.64-.3-1.05-.52-.23-.11-.4-.2-.74-.37-.63-.38-2.5-1.43-1.85-.94.75.55,2.12,1.24,3.21,2.12l-.13.16c-2.17-1.66-4.56-2.98-7-4.1-2.44-1.13-4.95-2.07-7.47-2.92.45.02.83.02,1.63.22.8.19,2.04.59,4.13,1.52.69.31,1.82.78,2.13.84.34.06-.5-.38-1.47-.79-.27-.24-.54-.47-.69-.67l1.44.53-1.11-.56c3.45,1.25,6.55,2.92,9.03,5.07.58.66,1.75,1.82,2.88,3.13.56.61,1.09,1.5,1.45,2.54.38,1.04.41,2.28.18,3.39-.51,2.26-1.97,3.83-2.56,4.77-2.36,2.24-5.21,4.01-8.11,5.44,0-.28-2.22.78-4.1,1.61-1.67.76-2.7,1.11-4.01,1.51.38-.35,3.47-1.35,4.6-1.99.43-.23,2.02-.7,2.6-1.16.36-.28-1.12.34-2.06.66-.95.33-1.69.62-2.95,1.2-1.59.73-3.5,1.47-5.06,1.73-.93.17-2.52.76-3.46,1.09-1.65.56-.28.24.71,0,1.57-.36,3.11-.76,2.88-.5l-.96.38c-1.8.28-5.11,1.35-7.98,2.03-1.11.28-3.66.96-2.97.52.17-.1-3.29.77-3.38.87-.18.19-1.11.39-2.39.64l-.94.19c-1.74.41-3.8.91-3.13.49.85-.33.82-.3-.68-.08-.66.1-1.53.21-1.68.2-.52-.06,2.12-.49,2.53-.67,2.65-.56,5.43-1.26,7.73-1.53.59-.06,2.25-.54,2.14-.53-.48.02,3.14-.89.56-.39.09-.09.37-.17,1.42-.42,3.43-.81,6.89-1.66,10.26-2.92.66.36,4.34-1.38,6.48-2.27,2.48-1.07,4.21-2.1,6.66-3.52-.24.24-.79.65-.76.7.01.02.17-.04.58-.28.4-.24,1.06-.64,2.02-1.34Zm5.5-8.97c.06.18.09.36.14.54-.03-.25-.03-.53-.1-.73-.05-.17-.1-.26-.16-.39.04.2.08.39.12.58Z"/><path d="m147.69,54.89c3.39-.47,7.54-.89,10.64-1.5,2.78-.2,6.98-1.02,10.25-1.52.93-.15,1.29-.22,1.94-.36,2.02-.43,2.46-.89.21-.55-2.37.36-3.12.42-3.74.41-.64-.01-1.82.06-4.05.61-.24.06-1.17.23-1.57.28-3.89.51-7.62,1.12-11.47,1.6-8.84,1.08-17.72,1.91-26.62,2.42l.03.12c.75-.04,1.36-.06,1.53-.03,1.32-.11,2.9-.23,3.99-.32,2.63-.16,5.85-.57,7.94-.58,1.25.03,10.31-.76,12.13-1.07.3-.05.62-.11.57-.12-.46-.1,1.25-.22,2.03-.3.94-.09,1.51-.1,2.32-.16.46-.03,1.89-.27,1.76-.19-.08.05-.9.19-2.01.35-2.32.35-5.61.7-5.89.93Z"/><path d="m135.62,57.54c2.33-.15,5.09-.25,6.62-.53-.67.02-1.53,0-2,.05-1.79.15-3.49.3-4.81.19-1.09-.09.43-.24,1.52-.39,1.93-.26,3.43-.26,5.01-.23.99.02,2.63-.04,3.43-.15,2.73-.38,3.96-.27,5.6-.28,1.04-.07,2.36-.2,2.64-.1.06.02-.42.11-.61.12-1.37.1-1.42,0-2.02-.02l-2.91.55c1.95.17,4.45-.2,6.81-.44-.07-.09.08-.19,1.79-.34-.03-.07.11-.15-.14-.19-.77-.13,2.06-.34,2.89-.51.23-.05.81-.12.99-.08.36.08-.58.2-1.63.35-.6.09-.14.18-.15.27.93-.18,3.6-.25,3.85-.48-.35.01-1.29.08-.37-.05l.35.06c1.36-.09.55.17,2.23,0,.59-.06,1.06-.25,1.59-.38-.03-.06.17-.13.97-.24-.04-.02-.1-.03-.16-.05l-.89.08c-1.49.04-6.14.38.15-.34.41-.05.59-.15.88-.23-2.71.28-5.55.67-8.03.66-.3,0-3.94.49-6.38.67-.67.13-1.49.22-2.96.32-4.29.32-8.79.4-12.89.8-1.66-.13-4.61.24-6.36.18-1.71-.05-3.08-.03-5.2.14-2.87.24-4.13.16-4.2-.06l-4.74.14c.22.13-1.08.24-2.03.36,2.18.13,4.44.26-.16.52-.59.03-.2.08.39.1,1.85-.17,4.58-.05,6.15-.21,3.61-.36,2.89-.09,3.38.03l1.01-.04c.09-.08.64-.14,1.78-.18.13-.11.9-.16,2.01-.21l-.09-.11c1.1-.03.93.03.93.08,2.16.03,5.42-.08,5.77.15Z"/><path d="m93.77,57.4c1.23.04,2.11-.01,2.76-.05,1.37-.1,3.05-.2.5-.36-4-.23-4.18.01-6.26.02l-3.81-.22c-1.77-.28-5.21-.3-7.5-.5l-.04-.15c2.21.14,4.77.11,6.41.32,2.08.25,4.24.26,6.68.31,9.59.1,19.24,0,28.89-.42.17.06.16.12-1.04.22l-1.85.09h-.96c-.29-.02-.58-.02-.87.02-6.1.22-6.95.31-4.62.48.07,0,.09.01.14.02,5.39-.3,6.84.08,12.11-.29,2.19-.18,5.1-.4,5.7-.24-1.44.1-3.04.38-3.53.33-.92-.09-2.42.09-3.89.15-2.62.13-5.21.28-7.82.34-2.61.08-5.24.18-7.94.21-7.68.19-15.61-.06-23.47-.42-1.56-.08-4.05-.16-4.16-.35.93-.07,2.4,0,4.03.15,1.96.19,3.3.23,4.53.15,2.02.12,4.04.25,6.02.18Zm9.62-.32c.04.06.6.16,2.16.11,1.51-.05,3.73-.16,3.82-.22.17-.13-1.8.02-2.51,0-1.38.03-3.58-.07-3.46.12Zm4.5.45c.99,0,2.76-.04,2.82-.15.04-.06-.61-.09-1.66-.07-1.13.03-2.23.07-3.7.11,1.08.05,1.75.12,2.54.12Zm-5.84-.34h-.58s.07.01.07.01c.43,0,.45,0,.5-.01Z"/><path d="m11.52,15.5c-2.11,1.16-3.78,2.05-5.99,3.69-1.59,1.19-3.29,2.81-4.39,4.96-.55,1.07-.94,2.25-1.08,3.47-.15,1.22,0,2.46.31,3.59.61,2.28,1.97,4.44,3.47,5.95l.16-.11c-.27-.43-.96-1.51.02-.36,1.52,1.63,2.35,2.16,3.01,2.59.67.42,1.22.73,2.48,1.58-1.3-.96-2.42-1.85-3.39-2.67-.12-.11-.23-.2-.32-.27-.18-.06.22.52-1.04-.71-.98-.99-1.52-1.83-1.55-2.05l-.11-.2.1.19c.57.84.95,1.22,1.31,1.55.35.33.68.62,1.27,1.22.08.06.12.09.12.06-1.24-1.47-2.91-3.14-3.81-5.03-.67-1.13-1.13-2.46-1.2-3.85-.07-1.38.26-2.8.95-4.03.37-.76.76-1.15,1.19-2,.72-1.29,2.35-2.75,4.07-3.88,2.37-1.77,1.17-1.14.44-.91-.18.07-.74.37.13-.24.76-.5,1.22-.76,1.57-.89l.93-.53c-.57.13,1.92-1.26,1.34-1.11Z"/><path d="m182.49,8.19c-1.85-.39-3.79-.77-6.38-1.03-3.25-.25-6.67-.66-10.3-1.25-.7,0-2-.13-3.17-.22l-1.93-.27c.22.09.57.25.66.25,3.55.34,5.9.88,9.31,1.28,2.48.3,4.74.61,5.38.93.02,0,.27.05.41.07.47.04.94.08,1.42.12-.38-.31,2.12.07,4.01.38,6.24,1.01,12.53,1.89,18.81,3.2,3.78.81,4,.8,2.14.7-.56-.03-.94-.02-1.41-.02,3.61.64,7.74,1.67,10.67,2.15-.66-.2-1.31-.38-2-.56-1.14-.29-2.83-.51-3.3-.77-.19-.11,1.64.18,2.8.38.62.11,1.76.39,2.67.62.76.18,1.58.41,1.96.45.49.05-.28-.21-1.05-.45-1.21-.37-1.51-.6-3.43-1.05-2.39-.71-5.06-1.36-8.29-1.9-3.71-.5-8.01-1.23-12.34-1.96.05.07-.16.11-.94-.02-1.38-.22-.48-.18-.78-.28-1.86-.09-3.79-.15-4.9-.78Z"/><path d="m118.51,56.66h-.96s-.43.01-.43.01h-.44c-6.1.23-6.95.32-4.62.49.07,0,.09.01.14.02,5.39-.3,6.84.08,12.11-.29,2.19-.18,5.1-.4,5.7-.24,1.58-.17,4.42-.4,5.6-.62-1.52.03-.05-.26.75-.32,2.33-.19.92.06,1.26.11.07,0,0,.03,0,.05,1.8-.02,4.81-.51,6.82-.62,1.22-.19,2.31-.32,3.25-.36.29-.24,3.59-.58,5.9-.93,1.11-.16,1.93-.31,2.01-.35.13-.07-1.3.16-1.76.19-.81.06-1.39.08-2.32.16-.78.08-2.49.19-2.03.3.05.01-.27.08-.57.12-1.82.31-10.88,1.1-12.13,1.07-2.09,0-5.31.42-7.94.58-1.09.09-2.67.22-3.99.32-1.28.12-1.34.06-1.54.03l-.03-.12-1.89.09c.17.06.16.12-1.04.22-.23.04-.4.09-.72.11-1,.06-1.01.01-1.14-.02Z"/><path d="m16.68,45.38l.02.1c.61.49,1.09.91,1.89,1.47,1.72,1.23,5.35,2.56,8.41,3.15.38.08.58.08,1.05.19,1.72.4,1.89.21.22-.33-.7-.23-.7-.22-1.14-.2-.21.01-.18.11-1.46-.26-.39-.11-.8-.33-1.2-.51-2.36-.84-2.15-.96-2.63-1.28,2.69.93,5.49,1.74,8.33,2.53-1.23-.09,1.56.67,2.88,1.07l1.48.2c.98.21,1.98.37,2.96.55.04.03.05.05.02.06-1.85-.13.91.64.78.85l-1.79-.36s0-.03-.09-.05c-1.25-.33-.97-.49-2.53-.8-2.29-.45.22.28-.24.29l-1.1-.1c-4.31-1.03-8.72-2.17-12.73-3.97-.58-.25-1.17-.52-1.73-.8v-.15s.36.14.36.14l-.48-.21-1.06-.53c-.53-.29-1.25-.74-1.28-.64-.57-.28-1.14-.58-1.71-.88l.24.11.24.16c-1.08-.76-3.85-2.5-4.45-3.26-.15-.17-1.09-.81-2.18-1.62-1.1-.81-2.33-1.83-3.14-2.62-.27-.26-.45-.42-.67-.63-.27-.43-.96-1.51.02-.36,1.52,1.63,2.35,2.16,3.01,2.59.67.42,1.22.73,2.48,1.58,2.4,1.67,4.83,3.14,7.18,4.52Zm11.48,5.14c.07.06.27.15.41.22.13.01.35.06.36.04.01-.03-.11-.09-.2-.16-.27-.05-.59-.12-.57-.1Z"/><path d="m156.68,55.97c-1.71.15-1.85.25-1.79.34l1.6-.1,1.23-.12c3.08-.21,6.05-.42,9.29-.85,1.32-.17,3.24-.41,4.83-.51,1.75-.1,5.03-.54,5.58-.63,5.85-1.02,11.53-1.79,17.16-2.71,2.06-.36,3.33-.73,5.02-1.07,8.56-1.8,17.12-3.99,25.21-7.53.87-.39,1.76-.78,2.21-1.1,0-.28-2.22.78-4.1,1.61-1.67.76-2.7,1.11-4.01,1.51-.57.3-1.74.69-2.76,1.03l-.96.38c-1.8.28-5.11,1.35-7.98,2.03-1.11.28-3.66.96-2.97.52.17-.1-3.29.77-3.38.87-.18.19-1.11.39-2.39.64-.29.13-.62.19-.96.19-1.72.41-3.78.91-3.1.49-.47.08-.95.17-1.42.25-1.47.36-2.98.76-5.06.95-1.68.43-3.31.94-5.56.9l-2.73.38c-.57.26-2.41.43-3.89.63-2.17.29-1.8.12-1.96.04-2.48.53-4.99.76-7.52.84-.53.13-.99.32-1.59.38-1.68.17-.87-.09-2.23,0-.22.22-2.9.29-3.83.48l-1.95.16Z"/><path d="m54.37,55.62c1.32.31,2.8.53,4.81.64-1.13-.24-2.23-.49-.87-.46,1.07.02,1.86.3,3.01.38,1.48.37,2.35.33,3.36.31,1.15-.03,2.26.04,3.02.29,2.71.17,2.31-.03,2.8-.12-.39-.19-2.57-.39-3.62-.61-1.79-.29-4.17-.55-6.44-.74-1.71-.15-3.18-.32-4.82-.54-1.67-.14.02.33-2.86-.04-2.14-.28-1.76-.38-2.08-.53l-1.9-.26c.12.12.36.25.32.34-.03.06-.91-.05-1.72-.17-.71-.11-1.24-.22-.83-.21.61.02,2.28.21.54-.12-.44-.07-1.99-.21-3.04-.32-.33-.03-.51,0-1.17-.17l1.19.18c-.68-.37-3.04-.73-5.52-1.12-.8.08,2.94.87,2.63,1.03,4.09.59,4.02.73,3.68.88,1.64.25,2.97.56,4.68.76-.21-.26,1.63-.19,4.46.2,3.93.56-1.29.04.05.32.19.04.21.07.32.1Z"/><path d="m78.38,4.67l-1.55.17-2.99.39-1.1.14s.06.03.1.04c.65-.06.98-.07.43.04-.08.02-.35.05-.44.06-.85.07.04-.08.04-.11-1.56.18-2.71.36-3.43.55-1.14.28-2.62.53-3.82.66-1.2.14-2.11.18-2.07.14.2-.27-2.26.15-4.06.37-2.24.43-4.44.94-6.7,1.42-.98.23-2.9.59-2.33.6.47,0,2.52-.49,3.05-.55,1.65-.2,4.11-.94,5.07-.85,1.25-.18,2.72-.42,2.93-.34,1.05-.17,2.16-.36,2.85-.38,2.31-.31,4.63-.63,6.93-.87,4.54-.52,8.45-1.14,13.06-1.45v-.14c-1.14.11-2.32.23-2.91.19.06-.09.1-.17,1.83-.34l-.83-.11-4.05.37Z"/><path d="m114.69,58.02c-.59-.02-.98-.07-.39-.1,4.6-.26,2.33-.39.16-.52l-1.77.05.04.2.22.02-.21-.03c-1.61-.04-5.11.16-4.84-.13-2.67.06-5.1-.18-8.07.02-.43.03-2.29-.06-2.38-.17l-2.82-.05c-1.23.16-4.78.16-4.1.42.03.01-.61.02-.94.03-2.08-.44-2.97.02-4.62-.09,0,.02,0,.04,0,.07,4.81.5,5.97.17,7.67-.03h.37s-.39,0-.39,0c.48.02,1.17.04,1.74.07.57.02,1.02.04,1.04.06.48.5,4,.21,6.86.17,2.97-.04,6.4-.18,9.03,0,1.29.03,1.1.22,3.35.15l.05-.14Z"/><path d="m22.3,11.47l-1.68.56c-4.05,1.51-4.06,1.36-3.73.96-1.35.47-1.24.57-1.87.87,1.3-.22-.59.76-4.06,2.59.87-.28,1-.17.21.4.95-.31,1.62-.79,2.38-1.19-.53.21-.68.23.01-.11.95-.46.82-.32.94-.32,2.15-.75,5.2-2.11,7.48-2.96,3.73-1.41,7.84-2.72,11.41-3.9l-.05-.08c-.89.22-1.77.5-2.65.76-.79.37-1.57.53-2.32.74l-3.14.95c-.19.16-.35.31-2.02.91-1.12.4-1.78.58-2.34.72-1.3.32.36-.41,1.42-.9Z"/><path d="m58.58,7.74c-.96-.09-3.42.65-5.07.85-.53.06-2.59.56-3.05.55-.57,0,1.35-.37,2.33-.6,2.26-.49,4.46-.99,6.7-1.42l-.84.03-1.1.18c-3,.71-6.87,1.34-10.25,2.13-.79.25-.58.27-.17.26.71-.02-.31.27-2.49.75l-.03.07c-.01.1-.66.25-1.98.58-.27.07-.54.14-.79.21.28-.01,1.53-.26-.06.19l.09.04c5.31-1.26,10.66-2.28,16.04-3.3-.89.02-2.51.16.66-.5Z"/><path d="m136.81,3.41c-1.13-.05-1.01-.32-3.04-.22-1.52.07-2.94-.19-4.44-.19-.43.24-2.47.11-4.61-.04-1.82-.13-3.32-.13-4.69-.05-1.42.07-2.05.17-.55.3,2.02.03,3.87.17,6.03.18,6.75.04,7.49.1,12.87.6.13.01.38.03.42.03,2.76-.09,6.92.56,9.73.57-.26-.14-.28-.27-2.17-.47-.07.08-.52.06-1.81-.05-2.73-.23-5.29-.45-7.74-.66Z"/><path d="m58.58,7.74c-3.16.66-1.54.52-.66.5,2.11-.28,3.53-.4,6.52-1.02,1.08-.21,2.71-.45,4.5-.67,1.8-.2,3.76-.43,5.51-.63,4.69-.54,9.63-1.04,14.4-1.28,2.09-.11,3.47-.18,3.23-.35-.23-.15-1.93-.08-3.81.11l-3.93.3c-4.61.31-8.52.93-13.06,1.45-2.29.24-4.62.56-6.93.87-.55.11-1.17.25-1.65.33-1.05.16-1.16.1-1.2.05-.21-.08-1.68.16-2.93.34Z"/><path d="m92.64,57.72c-1.7.2-2.86.53-7.67.03l-3.86-.05c-1.03,0-2.1,0-1.84.12,1.8.26,4.17.22,6.16.28,7.57.21,15.14.33,22.76.12,2.03-.05,2.32-.12,3.1-.22-2.63-.17-6.05-.04-9.03,0-2.85.04-6.38.33-6.86-.17-.02-.02-.47-.04-1.04-.06-.57-.02-1.25-.05-1.72-.06Z"/><path d="m201.41,12.36c.46,0,.84-.01,1.41.02,1.86.1,1.64.11-2.14-.7-6.28-1.31-12.57-2.19-18.81-3.2-1.9-.31-4.39-.69-4.01-.38,3.51.76,7.39,1.31,11.66,1.87,2.75.37,4.84.78,4.26.95,2.77.36,5.02.96,7.63,1.44Z"/><path d="m148.53,4.6c-2.81,0-6.97-.66-9.73-.57-.03,0-.29-.02-.42-.03-5.39-.5-6.13-.56-12.87-.6-2.17,0-4.02-.15-6.03-.18.85.23,1.79.44,5.1.64l2.43-.07c.9-.11,2.28-.04,4.23.06,2.38.12,5.25.26,7.31.4,4.15.29,7.85.32,11.79.8l-1.02-.37c-.26-.03-.52-.05-.78-.08Z"/><path d="m99.92,3.79c1.24-.24,2.24-.49-2.75-.29-1.61.06-.6-.06-.48-.12,2.45-.25,5.17-.27,6.93-.22,4.46.09,5.47-.06,6.42-.33l.91-.03c2.93.11,7.74.17,3.17.51-.82.06-.8.18-1.17.27-2.52-.01-5.05.07-7.56.09-1.63.04-2.85.08-3.02.22-.94.02-1.87.03-2.8.07.11-.06.06-.11.35-.17Zm8.03-.39c.1,0,.26,0,.5-.02-.14,0-.28,0-.5.02Z"/><path d="m105.34.18c1.43.16,6.46-.05,6.45.21,0,.12-2.03.25-2.9.4-.9.16-4.76.21-7.83.23-1.38.02-2.7-.02-4.08.02-1.33.03-2.96-.03-3.93.11-1.03.14,2.63-.03,1.96.12,4.52.06,10.13-.24,14.81-.06,1.48.06,1.15-.11,2.34-.13,1.15-.06-4-.19.23-.22,1.42-.18,5.15-.21,4.59-.46-.88-.03-2.02-.05-2.59-.1-1.42-.11-1.38-.42-5-.18-.04,0-1.31-.06-2.11-.1-2.36-.05-4.6,0-6.58.13.68.24,3.3-.05,4.63.03Z"/><path d="m117.94,1.1c1.17.03,2.02.08,2.62.16,1.52.19,4.4.36,6.66.36,2.02,0,3.85-.05,4.08-.2.43-.26-2.09-.54-7.75-.7-1.38-.03-3.1-.18-4.66-.25-1.72.09-1.06.25.79.39,1.87.14,3.6.13,4.94.07.49-.02,2.75.01,2.55.12-.18.1,1.12.24.29.31-.51.04-.76.11-2.29.06-1.59-.05-2.28-.13-2.46-.21-.19-.08-.42-.16-2.19-.2-1.71-.03-2.59,0-2.58.1Z"/><path d="m150.33,5.04c-3.94-.49-7.64-.52-11.79-.8-2.05-.14-4.93-.27-7.31-.4-1.95-.1-3.33-.17-4.23-.06,3.33.45,8.32.47,12.43.75,6.14.4,12.42.76,18.36,1.58l.5-.04c-.87-.19-3.97-.62.77-.19,1.55.15,2.44.13-.22-.19-2.82-.22-4.91-.17-8.51-.65Z"/><path d="m121.23,56.89c.07.22,1.33.29,4.2.06,2.12-.17,3.49-.18,5.2-.14,1.75.06,4.7-.31,6.36-.18,4.1-.39,8.6-.48,12.89-.8,1.47-.1,2.29-.19,2.96-.32-3.96.11-8.23.36-12.83.64-2.94.16-5.92.33-9.12.37-2.79.05-6.4.26-9.65.38Z"/><path d="m48.38,4.99l-2.04.34-3.04.41c-.43.08-.85.17-1.28.26-1.38.35-2.76.68-4.12,1.08,2.5-.31,7.35-1.44,10.89-1.97,7.03-1.13,14.18-1.92,21.33-2.5l1.91-.21c-3.24.02-6.71.24-10.44.82-3.03.36-6.22.87-7.98.8l-1.37.2-.97.16s.06.06.11.07c.1,0,.2,0,.3,0l-.68.08c-.87.14-1.75.29-2.61.46Z"/><path d="m24.99,16.43c-2.57.9-5.11,1.88-7.56,3.13-1.96.95-3.77,1.96-5.16,2.77-1.21.82-1.77,1.29-2.34,1.76-.65.57-1.28,1.16-1.81,1.83l-.78,1.02-.63,1.12c-.75,1.54-1.03,3.33-.67,5.12.21.92.5,1.61.82,2.07.15.24.28.44.4.6.14.15.26.27.36.38-.38-.52-.59-1.12-.9-1.68-.18-.6-.45-1.19-.5-1.81-.15-.61-.1-1.24-.1-1.86.12-.61.16-1.24.42-1.81.37-1.2,1.15-2.23,1.94-3.21.85-.95,1.84-1.79,2.87-2.56,2.09-1.54,4.39-2.78,6.75-3.9,2.36-1.12,4.8-2.09,7.26-3l-.4.03Z"/><path d="m96.69,3.38c2.45-.25,5.17-.27,6.93-.22,4.46.09,5.47-.06,6.42-.33-7.33.01-14.68.19-21.98.91-1.77.18-2.88.12-4.31.26-1.98.21-5.03.4-5.37.68l4.05-.37c2.22-.2,4.44-.32,6.66-.47,2.54-.16,5.07-.34,7.61-.45Z"/><path d="m44.12,52.64c-.11.08.49.31-2.52-.25-1.88-.36-3.49-.63-3.19-.41,7.71,1.56,15.48,2.84,23.62,3.6l-.04-.09-.27-.09c-.15-.01-.31-.03-.48-.05-1.36-.12-2.71-.25-3.09-.43-.24-.03-.49-.06-.74-.09l-2.85-.43c-.45.06-1.42-.05-2.93-.35-1.68-.26-3.44-.39-4.94-.75-.5-.12.27-.06,1.1.04l.08-.04-.9-.26c-1.65-.37-1.83-.24-2.85-.41Z"/><path d="m110.96,2.8c2.93.11,7.74.17,3.17.51-.82.06-.8.18-1.17.27,1.4.02.93.09,1.02.15l1.87-.02c-.58-.15,1.84-.19,1.9-.31l-1.25-.05c.09,0,.27-.02.27-.02.35.02.68.04,1.01.07,1.66.11.64.22.99.34,1.88.18,3.81.24,5.81.12-3.31-.2-4.24-.4-5.1-.64-1.5-.14-.87-.23.55-.3,1.37-.08,2.87-.08,4.69.05,2.14.14,4.18.28,4.61.04-4.83-.23-9.76-.21-14.53-.33-1.88-.04-2.87.03-3.84.12Z"/><path d="m158.85,5.7c2.67.33,1.78.35.22.19-4.75-.43-1.65,0-.77.19.83-.05,2.3.21,3.44.32-.12-.1.77-.13,1.46-.01,3.44.57,5.92.59,8.93,1.01,1.62.1,1.7.2,1.81.3,1.61.34,2.03.29,2.51.27-.14-.02-.39-.06-.41-.07-.64-.32-2.9-.63-5.38-.93-3.41-.41-5.76-.95-9.31-1.28-.09,0-.43-.17-.66-.25l-3.69-.51-1.96-.27-.25.17c4.2.44,4.43.68,4.06.87Z"/><path d="m209.73,13.13c1.92.45,2.21.68,3.43,1.05.77.24,1.55.5,1.05.45-.38-.04-1.2-.26-1.96-.45-.9-.23-2.05-.51-2.67-.62-1.16-.2-3-.49-2.8-.38.47.26,2.16.48,3.3.77.7.18,1.34.36,2,.56.85.33,1.67.43,2.5.65,1.4.33,2.89.69,2.51.45-1.46-.9,2.85.29,6.61,1.74-.42-.28-2.4-.97-2.51-1.13-3.14-1.03-6.11-1.99-9.34-2.79-2.32-.55-1.84-.33-2.12-.3Z"/><path d="m172.13,7.39c-3.01-.42-5.49-.44-8.93-1.01-.7-.11-1.58-.09-1.46.01,6.04.69,12.04,1.44,18.05,2.27,3.02.42,6.17.95,9.15,1.48,1.79.33,3.26.55,4.84.77.57-.18-1.51-.58-4.26-.95-4.27-.56-8.15-1.11-11.66-1.87-.47-.04-.95-.08-1.42-.12-.48.02-.9.06-2.51-.27l-1.81-.3Z"/><path d="m96.69,3.38c-2.54.11-5.08.29-7.61.45l-.07.14c1.04-.08,1.95-.1,1.8-.01-.15.09-1.21.14-2.15.22-.35.09-.37.16-.39.23,1.89-.18,3.58-.26,3.81-.11,2.43-.08,4.94-.18,7.5-.33.11-.06.06-.11.35-.17,1.24-.24,2.24-.49-2.75-.29-1.61.06-.6-.06-.48-.12Z"/><path d="m81.1,57.7l3.87.05v-.07s-.2-.03-.2-.03l.2.03c1.64.11,2.54-.35,4.62.09.33-.01.97-.02.94-.03-.68-.26,2.88-.26,4.1-.42-.2-.08-1.06-.08-1.83-.09-1.01.1-2.62.03-4.04.01-1.05-.07-1.71.19-2.27-.01-.59-.21-2.34-.14-3.31-.22-1.68.08-2.44-.04-3-.18-.99-.07-2.17-.25-2.8-.11l-.43.08c1.17.11,1.74.25,3.38.32,1.12.1.69.15.78.23,5.11.31-.69.22,0,.36Z"/><path d="m59.34,54.44c1.6.27,3.45.58,4.98.84,1.56.28,3.81.56,6,.73,2.19.14,4.3.2,5.57.15-2.35-.18-4.96-.37-3.29-.46-2.25-.17-4.49-.43-6.71-.66-2.22-.23-4.41-.4-6.54-.59Z"/><path d="m81.11,57.34c5.11.31-.69.22,0,.36-1.03,0-2.1,0-1.84.12-2.91-.11-6.01-.11-8.63-.55-.13-.02-.17-.04-.12-.05,3.84.06,4.17-.23,3.98-.55l2.45.13c1.16.11,1.74.25,3.38.32-.11.07-.15.13.78.23Zm-3.06.09c.61.06,1.2.03,1.01-.02-.39-.09,1.57-.15-1.36-.29-1.46-.05-1.35.01-.29.13.2.06.18.13.65.18Z"/><path d="m148.08,56.75c-.89.05-1.64-.03-2.65.15-2.24.38-2.46.17-3.2.11-.67.02-1.53,0-2,.05-1.79.15-3.49.3-4.81.19-1.09-.09.43-.24,1.52-.39,1.93-.26,3.43-.26,5.01-.23.99.02,2.63-.04,3.43-.15,2.73-.38,3.96-.27,5.6-.28-.97.18-1.94.37-2.91.55Zm-10.69.33s.34-.02.36-.03c.04-.02-.01-.04-.03-.05l-.74.06c.13,0,.26.01.42.02Z"/><path d="m26.04,48.66c-3.67-1.32-7.39-2.98-10.57-4.55-.81-.38-1.83-1.11-2.55-1.63-.64-.48-1.16-.9-1.64-1.24-.45-.36-.84-.66-1.21-.91,1.17,1.2,2.68,2.28,4.29,3.29,1.63.96,3.38,1.84,5.09,2.58,4.23,1.86,8.28,3.52,12.77,4.71h.03s.01.01.01.01c.2.04.41.07.62.11.69.12,1.55.3,1.87.3-.58-.2-1.42-.41-2.45-.63h-.01s-.02,0-.02,0c-.6-.17-1.28-.35-2-.55-2.26-.6-3.27-1.05-4.25-1.51Z"/><path d="m117.94,1.1c0-.1.87-.14,2.58-.1,1.77.05,2,.12,2.19.2.18.08.87.16,2.46.21,1.53.05,1.78-.02,2.29-.06.83-.06-.47-.21-.29-.31.2-.11-2.06-.14-2.55-.12-1.34.06-3.06.07-4.94-.07-1.85-.13-2.51-.3-.79-.39-.63-.06-1.27-.09-1.91-.05.56.25-3.17.28-4.59.46,1.01.06,1.93.13,1.99.21l3.56.02Z"/><path d="m166.28,54.95c2.53-.08,5.04-.31,7.52-.84,1.44-.4,5.96-.92,6.72-1.32l-.37-.19c-1.65.17-3.14.37-4.48.64-.21.07.41.05-.58.2l-.32-.09c-.28.02-.58.06-.9.1-3.88.5-3.05.79-6.62,1.25-.8.11-1,.18-.97.24Z"/><path d="m58.65,7.15l.84-.03c1.79-.23,4.25-.64,4.05-.37-.03.04.88,0,2.07-.14,1.2-.13,2.68-.38,3.82-.66.72-.18,1.86-.36,3.43-.55-.07,0-.1-.02-.13-.03l.05-.2c-4.68.48-9.31,1.01-14.13,1.98Z"/><path d="m15.37,19.63c-.26.31,1.61-.62,3.17-1.29,3.36-1.46,7.38-2.8,10.39-3.87,2.09-.73,3.52-1.16,5.58-1.76,1.26-.34.53-.26.62-.34-4.43,1.22-8.74,2.45-13.22,4.33-1.93.81-4.4,1.82-6.54,2.93Z"/><path d="m112.69,57.45l1.77-.05c.95-.12,2.25-.23,2.03-.36-4.78,0-9.9.26-14.74.08-1.95-.08-2.55.2-4.31.25.09.11,1.96.2,2.38.17,2.97-.2,5.4.04,8.07-.02,1.72-.43,3.18.02,4.79-.06Z"/><path d="m193.01,51.21c.47-.08.95-.17,1.42-.25.85-.33.82-.3-.68-.08-.66.1-1.53.21-1.68.2-.52-.06,2.12-.49,2.53-.67l-2.01.22-3.11.51c-2.09.43-4.17.87-6.26,1.27,4.33-.47,4.26-.38-.83.66,2.25.05,3.88-.47,5.56-.9,1.68-.29,2.43-.83,5.06-.95Z"/><path d="m223.71,17.35c-3.76-1.45-8.07-2.64-6.61-1.74.37.24-1.12-.13-2.51-.45.37.34,2.36.71,3.51,1.1.45.02.83.02,1.63.22.8.19,2.04.59,4.13,1.52.69.31,1.82.78,2.13.84.34.06-.51-.38-1.43-.77l-.4-.15.36.13-.81-.71Z"/><path d="m70.63,57.27c-.13-.02-.17-.04-.12-.05-.41-.14-3.39-.31-2.82-.43-.75-.25-1.87-.32-3.02-.29-1.01.02-1.88.06-3.36-.31-1.15-.08-1.93-.36-3.01-.38-1.36-.03-.26.22.87.46,3.86.47,7.96,1.05,11.45,1.01Z"/><path d="m14.44,45.18c-1.08-.76-3.85-2.5-4.45-3.26-.15-.17-1.09-.81-2.18-1.62-1.1-.81-2.33-1.83-3.14-2.62-.27-.26-.45-.42-.67-.63l-.16.11c2.26,2.74,5.04,4.53,7.87,6.45.71.45,1.44.88,2.17,1.3.29.16.47.26.56.28Z"/><path d="m43.25,52.03c1.27.43,9.79,1.98,12.57,2.24,2.73.29,1.02-.09,1.58-.12-1.73-.2-3.48-.36-5.11-.71-.35-.07-1.55-.27-1.63-.27-2.23-.12-4.98-.75-7.4-1.13Z"/><path d="m105.34.18c-1.33-.08-3.95.21-4.63-.03-1.37-.08-2.73,0-4.08.09-2.26.23-5.85.26-8.5.49.54.08.48.2,3.31-.02,1.72-.13,4.21-.19,6.35-.26l1.18-.1.38.03-1.49.08c1.77,0-3.67.51,2.81.19.23-.1-.63-.22,1.94-.28.52-.09,2.86-.07,2.73-.19Z"/><path d="m13.74,20.73c.04-.05-.28.08.44-.34-2.54,1.46-5.17,3.11-7.01,5.54-1.95,2.31-2.51,5.75-1.39,8.15l.03-.15-.15-.47-.08-.49c-.05-.32-.13-.65-.14-.97,0-.66-.03-1.32.13-1.96.36-2.15,1.64-4,3.11-5.51,1.52-1.49,3.26-2.71,5.06-3.8Z"/><path d="m88.13.73c2.65-.22,6.24-.26,8.5-.49-.31-.19-2.42.03-3.5.05-4.16.07-8.44.35-12.62.67.87.3,4.97-.16,7.63-.23Z"/><path d="m20.51,11.86c2.81-1.05,5.97-2.25,7.95-2.65.75-.16,1.8-.52,1.94-.67.1-.11-.15-.11,1.05-.53.33-.31-2.07.47-3.34.89-2.87.94-5.71,1.98-8.55,3.06.26-.01-.42.35.94-.1Z"/><path d="m7.11,19.18c-1.72,1.13-3.35,2.6-4.07,3.88-.42.85-.82,1.25-1.19,2-.69,1.22-1.02,2.64-.95,4.03.06,1.39.52,2.71,1.2,3.85-.5-1.21-.9-2.63-.92-4.13-.05-1.51.44-3.04,1.18-4.43,1.16-2.02,2.9-3.67,4.81-5.07l-.06-.13Z"/><path d="m229.84,38.82c-.24.24-.79.65-.76.7.01.02.17-.04.58-.28.4-.24,1.06-.64,2.02-1.34,1.96-1.5,2.83-2.22,3.74-3.13.41-.48.41.02,1.34-1.77.31-.75.34-1.07.31-1.15-.03-.08-.13.06-.22.19-.17.24-.35.33-.52.47-.6,1.35-1.6,2.55-2.74,3.57-1.14,1.03-2.42,1.93-3.75,2.74Z"/><path d="m44.87,54.24c.35-.15.41-.29-3.68-.88l-2.87-.4-1.79-.36c-.78-.08-1.84-.32-2.86-.56l-1.1-.1c-.12.11,1.14.36,2.14.56,3.38.66,6.76,1.25,10.16,1.73Z"/><path d="m192.58,50.62l2.01-.22c2.65-.56,5.43-1.26,7.73-1.53.59-.06,2.25-.54,2.14-.53-.48.02,3.14-.89.56-.39-4.1.99-8.65,1.69-12.44,2.67Z"/><path d="m44.05,53.45c1.04.11,2.6.25,3.04.32,1.74.33.07.14-.54.12-.41-.02.11.1.83.21.82.12,1.7.23,1.72.17.04-.09-.2-.23-.32-.34-3.4-.67-7.27-1.29-11.11-2.01l-.15.14s.05.05.02.06l1.02.21c2.48.39,4.84.75,5.49,1.12Z"/><path d="m167.25,54.71c3.57-.46,2.74-.75,6.62-1.25-2.01.07-4.05.14-6.63.71-.29.08-.47.18-.88.23-6.29.72-1.64.38-.15.34.15-.06-.03-.11,1.1-.22l-.21.14c.06.02.11.03.16.05Z"/><path d="m233.19,22.43c.58.66,1.75,1.82,2.88,3.13.56.61,1.09,1.5,1.45,2.54.38,1.04.41,2.28.18,3.39-.51,2.26-1.97,3.83-2.56,4.77.95-.96,1.8-2.07,2.34-3.37.56-1.28.73-2.79.4-4.17-.32-1.38-1.01-2.6-1.86-3.61-.84-1.02-1.82-1.89-2.83-2.67Z"/><path d="m157,4.92l3.69.51,1.93.26c0-.17,1.61.02,3.17.22,3.63.59,7.06,1,10.3,1.25-.3-.11-1.28-.32-1.95-.39-5.54-.56-11.73-1.55-17.15-1.85Z"/><path d="m88.25,1.59c-.2-.19-.85-.32-4.5.06-2.72.29-6.17.23-8.79.61,3.98.02,8.77-.45,13.28-.67Z"/><path d="m36.23,12.95c-1.29.12-3.74.72-6.43,1.41.58.03-.74.6-2.48,1.35,1.86-.53,3.49-1.11,5.19-1.66.87-.44,2.4-.78,3.72-1.1Z"/><path d="m47.09,4.31c3.34-.37,10.23-1.3,14.36-1.95-4.12.3-8.23.91-12.33,1.56-.08.14-1.09.27-2.03.39Z"/><path d="m129.01,57.42c-1.11.05-1.88.1-1.85.2h1.23s.27.07.27.07h-.91s-.75-.06-.75-.06c-1.14.04-1.69.1-1.78.18,3.5-.08,6.54.03,10.4-.27-.35-.23-3.61-.12-5.77-.15l-.84.03Z"/><path d="m189.1,9.27c4.33.73,8.63,1.46,12.34,1.96-1.43-.4-2.78-.7-4.97-.96-2.78-.33-6.17-1.05-9.22-1.47l.15.18c.56.1,1.13.19,1.7.29Z"/><path d="m10.96,16.45c3.47-1.83,5.37-2.81,4.06-2.59-1.18.51-2.35,1.05-3.5,1.64.58-.15-1.91,1.24-1.34,1.11,1.01-.49.65-.17.78-.16Z"/><path d="m183.21,52.4c2.09-.4,4.18-.84,6.26-1.27-3.2.41-6.36.83-9.32,1.47l.37.19,2.69-.39Z"/><path d="m74.49,56.67l2.45.13.43-.08c-3.57-.22-7.18-.59-10.5-.66,1.05.22,3.23.42,3.62.61.69.02,1.27.04,1.85.06.16-.08.26-.18,2.14-.05Z"/><path d="m7.11,19.18l.06.13c1.26-.92,2.62-1.7,4-2.45.79-.58.66-.68-.21-.4-2.04,1.11-1.62.75-1.71.69-.35.13-.82.39-1.57.89-.87.61-.31.31-.13.24.73-.23,1.93-.86-.44.91Z"/><path d="m114.69,58.02l-.05.14c3.26-.05,6.83.07,9.58-.32-.49-.12.22-.39-3.38-.03-1.57.16-4.29.04-6.15.21Z"/><path d="m154.79,4.82l.25-.17c-3.68-.48-7.03-.63-10.45-.8l1.77.27c1.89.2,1.91.33,2.17.47.26.02.51.05.78.08.03-.25.62-.43,5.48.15Z"/><path d="m112.96,3.58c-2.52-.01-5.05.07-7.56.09-1.63.04-2.85.08-3.02.22,3.36.06,7.1-.16,10.6-.11,0-.06.01-.13-.02-.2Z"/><path d="m146.36,4.13l-1.77-.27c-2.72-.29-5.54-.61-7.78-.44,2.45.21,5.01.43,7.74.66,1.29.11,1.74.13,1.81.05Z"/><path d="m54.37,55.62c-.1-.03-.13-.06-.32-.1-1.34-.29,3.88.23-.05-.32-2.83-.39-4.68-.46-4.46-.2,1.65.29,3.41.61,4.83.62Z"/><path d="m26.04,48.66c.97.46,1.99.91,4.25,1.51.72.2,1.4.38,2,.55h.02s.01,0,.01,0c1.03.21,1.87.43,2.45.63.67.12,1.52.29,1.77.28-.53-.17-1.06-.34-1.6-.51-.87-.18-1.73-.36-2.59-.54h-.01s0,0,0,0c-2.01-.58-4.01-1.18-5.98-1.88l-.31-.03Z"/><path d="m72.59,55.69c-1.67.1.94.28,3.29.46,1.73.16,2.83.19,3.56.14l-.03-.15c-2.24-.08-4.46-.25-6.82-.45Z"/><path d="m47.31,9.46c3.38-.79,7.24-1.42,10.25-2.13-3.45.46-6.85,1.27-10.25,2v.12Z"/><path d="m216.7,44.62c.66.36,4.34-1.38,6.48-2.27-.18-.04.39-.42-2.21.7-1.31.54-2.82,1.09-4.27,1.58Z"/><path d="m50.67,54.19c.32.15-.06.25,2.08.53,2.89.37,1.19-.09,2.86.04-2.28-.49-3.3-.38-4.95-.58Z"/><path d="m37.9,7.08c1.36-.4,2.74-.73,4.12-1.08-2.62.55-2.82.44-3.22.41-.23-.02-.86.07-2.11.38-.46.11-1.18.32-1.32.4-.39.19.62-.07,1.43-.23,2.9-.6-2.24.81.28.31.26-.06.54-.12.82-.19Z"/><path d="m77.67,56.82c-1.9-.08-4.43-.66-5.94-.42q.79.27,5.94.42Z"/><path d="m24.48,48.99c-2.36-.84-2.15-.96-2.63-1.28-1.83-.67-3.69-1.72-5.17-2.32l.02.1c1.22.71,3.47,1.7,3.64,1.88.35.48,2.27,1.1,4.14,1.63Z"/><path d="m30.19,50.23c-1.23-.09,1.56.67,2.88,1.07l1.49.2,1.21-.02c-1.91-.45-3.63-.67-5.57-1.25Z"/><path d="m232.69,23.13l-.13.16c1.32,1.14,2.53,2.41,3.49,4,.04-.03.18.07.14-.08-.05-.15-.2-.62-1.01-1.65-1.29-1.49-2.02-2.06-1.85-2.13-.7-.53-.54-.29-.64-.29Z"/><path d="m27.32,15.71c1.74-.75,3.07-1.32,2.48-1.35-1.83.7-4.5,1.74-4.81,2.07l.4-.03,1.93-.68Z"/><path d="m20.51,11.86c-1.36.45-.68.09-.94.1-.89.34-1.79.67-2.68,1.04-.33.39-.33.54,3.73-.96l-.11-.17Z"/><path d="m187.4,8.97l-.15-.18c-1.83-.3-3.41-.5-4.76-.61,1.1.63,3.03.69,4.91.78Z"/><path d="m21.19,45.96s-.21,0-.05.1c.45.3-2.14-.63.57.55,2.42,1.01.4-.01.78.05.11.02.92.33,1.41.51-.57-.3-1.07-.58-2.71-1.21Z"/><path d="m36.23,12.95c-1.32.33-2.84.66-3.72,1.1l2.01-.57c.76-.21,1.41-.38,1.78-.43,1.24-.35,2.47-.73,3.73-1.05l-.8.13-3,.81Z"/><path d="m137.61,55.87s.07-.04,0-.05c-.34-.05,1.07-.3-1.26-.11-.8.07-2.27.35-.75.32l2-.16Z"/><path d="m117.75,3.4c-.07.12-2.48.16-1.9.31l2.92.02c-.35-.11.67-.23-1.02-.34Z"/><path d="m114.38,1.07c-.06-.09-.98-.16-1.99-.21-4.23.03.92.16-.22.22.18.02.43.02.73.02h1.27c.26,0,.33,0,.22-.02Z"/><path d="m15.66,45.79c-.57-.28-1.14-.58-1.71-.88.66.56,2.74,1.65,4.01,2.35l.15-.07v-.15c-.47-.24-.82-.42-1.17-.59-.16,0-.73-.32-1.29-.64Z"/><path d="m221.19,16.22c.11.16,2.09.85,2.64,1.16l1.44.53-1.11-.56c-.93-.42-1.92-.81-2.97-1.14Z"/><path d="m35.76,51.49l-1.21.02c.98.21,1.98.37,2.96.55l.15-.14-1.91-.43Z"/><path d="m80.17,56.82c.56.15,1.32.26,3,.18-.8-.1-1.12-.28-3-.18Z"/><path d="m73.83,5.22l2.99-.39c.12-.18-1.53.04-3.01.21v.17Z"/><path d="m88.76,57.25c1.43.02,3.04.09,4.04-.01-2.05-.17-3.15-.11-4.04.01Z"/><path d="m147.68,54.89c-.94.05-2.03.18-3.25.36,1.05-.09,1.68.02,3.25-.36Z"/><path d="m39.23,12.14l.8-.13,1.85-.46-.09-.04c-.85.14-1.71.35-2.56.63Z"/><path d="m5.91,37.96s-.03,0-.12-.06c.1.09.21.18.33.29.09.02.19.05.29.08l-.51-.3Z"/><path d="m36.3,13.05c-.37.05-1.02.22-1.78.43,0,.1.61-.05,1.78-.43Z"/><path d="m14.51,15.23c-.12,0,.01-.14-.94.32-.69.33-.54.32-.01.11l.95-.43Z"/><path d="m18.12,47.18l-.15.07c.9.43,1.56.67,1.88.73-.58-.25-1.17-.52-1.73-.8Z"/><path d="m13.88,44.9c-.73-.42-1.46-.85-2.17-1.3.85.65,1.59,1.08,2.17,1.3Z"/><path d="m113,3.58l-.02.19c.63.01.96,0,.99-.05-.09-.06.38-.13-.97-.15Z"/><path d="m174.78,53.36l.32.09c.99-.15.37-.13.58-.2-.3.03-.6.07-.9.12Z"/><path d="m47.09,4.31c.94-.13,1.95-.25,2.03-.39-.86.13-1.72.25-2.03.39Z"/><path d="m26.35,48.69c1.97.7,3.97,1.31,5.98,1.88h0s.01,0,.01,0c.86.18,1.72.36,2.59.54,1.02.2,1.47.25,1.57.21l.16-.15c-1.61-.32-2.13-.49-1.54-.46.28.01.67.03-.4-.19-.31-.06-.81-.15-1.22-.23-.42-.07-.75-.12-.75-.12.03.05-.09.06-.34.05h0c-.95-.1-4-1.03-5.36-1.39-.34-.09-.49-.1-.72-.15Z"/><path d="m87.75,57.22c2.02.12,4.04.25,6.01.18-3.39-.12-.62-.27-3-.39l-3.81-.22c.48.15,2.51.34.8.43Z"/><path d="m12.27,22.33c1.39-.81,3.2-1.83,5.16-2.77-.09-.03.15-.24-.35-.05-.67.25,1.88-1.08-.47.05-1.61.81-1.24.76-1.04.72.09-.01.16.09-.92.55-1.97.89-1.42.93-2.38,1.5Z"/><path d="m54.56,54.4l2.85.43c.38-.02,2.83.22.68-.12-2.27-.36-3.05-.36-3.53-.31Z"/><path d="m47.78,53.35c-.83-.1-1.6-.16-1.1-.04,1.5.36,3.27.49,4.94.75-.12-.19-2.33-.45-3.84-.71Z"/><path d="m5.56,30.03c-.16.64-.13,1.3-.13,1.96.01.33.1.65.14.97l.08.49.15.47c.02-.12-.08-.46-.12-.99-.03-.26-.09-.56-.11-.9,0-.34,0-.7,0-1.09.14-1.19.04-.81-.01-.91Z"/><path d="m41.85,11.31c.26-.07.52-.14.79-.21l.08-.13c-1.12.29-2.5.6-2.98.83l2.11-.49Z"/><path d="m58.15,54.92c.38.18,1.73.31,3.09.43l-.08-.13c-1.01-.1-2.01-.2-3.01-.3Z"/><path d="m40.04,51.57c-.2-.05-.39-.09-.58-.14l-.55-.05c.24.05.52.12.71.15.19.03.28.02.41.03Z"/><path d="m9.93,24.09c.57-.47,1.14-.93,1.74-1.35-.24.14-.44.21-.75.43-.85.66-.79.7-.99.92Z"/><path d="m46.96,53.05l.9.26c1.44.13.33-.05-.9-.26Z"/><path d="m61.16,55.22c.51.05,1.27.14,1.26.09,0-.01-.37-.07-.56-.09-.87-.09-.63-.02-.71,0Z"/><path d="m36.66,51.18l-.16.15c1.22.18,1.34.14.16-.15Z"/><path d="m12.6,41.62s.12.12.23.2c0-.03-.12-.12-.23-.2Z"/><path d="m44.62,10.53l.03-.07c-.64.16-1.27.32-1.91.51.61-.16,1.24-.3,1.88-.44Z"/><path d="m44.09,52.64l-.21-.06c.08.02.15.04.21.06Z"/><path d="m61.71,55.39l.27.09c.83.05.66.01-.27-.09Z"/><path d="m22.3,11.47c-1.06.5-2.72,1.22-1.42.9.55-.14,1.21-.32,2.34-.72,1.67-.6,1.83-.75,2.02-.91-.9.22-1.37.27-.67-.1.32-.17.22-.19-.76.15-1.19.42-1.35.55-1.51.68Z"/><path d="m102.61.37c-2.57.05-1.71.18-1.94.28.95,0,2.29-.07,2.42.05.07.06.99.12,1.84.09.86-.03,1.66-.11,1.96-.17.51-.11-1.16-.05-1.68-.07-1.02-.05-1.75-.12-2.61-.18Z"/><path d="m53.61,4.02c1.76.07,4.95-.44,7.98-.8-2.24.05-4.77.25-7.98.8Z"/><path d="m51.26,4.38l.97-.16c.16-.04.26-.08.49-.12,1.81-.33,3.01-.56,1.12-.46-.5.02-1.85.19-1.61.21.56.06-5.41,1.01-.97.53Z"/><path d="m30.7,9.05c.88-.26,1.76-.53,2.65-.76,0-.09,2.19-.82-.18-.21-1.75.46-2.92.97-2.47.97Z"/><path d="m43.3,5.74l3.04-.41c-.09-.06,1.53-.41.13-.24-1.11.15-2.29.42-3.18.65Z"/><path d="m96.73.8c-.56-.01-.9-.03-1.22-.02-.35,0-.7.05-1.04.07.3,0,.57.03.89.02.34,0,.73-.04,1.37-.08Z"/><path d="m48.38,4.99c.87-.17,1.74-.32,2.61-.46.12-.03.25-.05.38-.08l-.13-.04c-1.18.18-2.91.45-2.86.59Z"/><path d="m28.38,9.79c.76-.21,1.53-.37,2.26-.72-.75.24-1.52.45-2.26.72Z"/><path d="m90.97,1.31c-.27,0-.41.01-.54.03.1,0,.2,0,.54-.03Z"/><path d="m216.16,45.85c1.02-.34,2.19-.72,2.76-1.03.38-.35,3.47-1.35,4.6-1.99.43-.23,2.02-.7,2.6-1.16.36-.28-1.12.34-2.06.66-.95.33-1.69.62-2.95,1.2-1.59.73-3.5,1.47-5.06,1.73-.93.17-2.52.76-3.46,1.09-1.65.56-.28.24.71,0,1.57-.36,3.11-.76,2.88-.5Z"/><path d="m232.69,23.13c.1,0-.07-.24.64.29.25.04,1.94,1.69,1.19.79-.13-.16-.36-.41-.61-.67-.27-.25-.56-.51-.8-.7-1.66-1.24-.64-.3-1.05-.52-.23-.11-.4-.2-.74-.37-.63-.38-2.5-1.43-1.85-.94.75.55,2.12,1.24,3.21,2.12Z"/><path d="m237.06,28.36c.04.2.08.39.12.58.06.18.09.36.14.54-.03-.25-.03-.53-.1-.73-.05-.17-.1-.26-.16-.39Z"/><path d="m198.49,50.28l-.94.19c.3-.06.63-.13.94-.19Z"/><path d="m123.31,56.38c.2.03.26.1,1.54-.03-.18-.03-.79-.01-1.54.03Z"/><path d="m156.68,55.97l1.95-.16c.02-.09-.44-.18.15-.27,1.05-.15,2-.28,1.63-.35-.18-.04-.76.04-.99.08-.83.17-3.66.38-2.89.51.25.04.1.13.14.19Z"/><path d="m150.99,56.2c.6.02.65.11,2.02.02.19-.01.67-.1.61-.12-.28-.09-1.59.03-2.63.1Z"/><path d="m129.01,57.42l.84-.03c0-.05.17-.12-.93-.08l.09.11Z"/><path d="m167.1,54.66l.21-.14c-1.13.11-.95.16-1.1.22l.89-.08Z"/><path d="m162.46,55.33l-.35-.06c-.92.13.03.07.35.06Z"/><path d="m90.77,57.01c2.39.12-.39.27,3,.39,1.24.04,2.11-.01,2.76-.05,1.37-.1,3.05-.2.5-.36-4-.23-4.18.01-6.26.02Z"/><path d="m106.86,56.97c-1.38.03-3.58-.07-3.46.12.04.06.6.16,2.16.11,1.51-.05,3.73-.16,3.82-.22.17-.13-1.8.02-2.51,0Z"/><path d="m105.35,57.42c1.08.05,1.75.12,2.54.12.99,0,2.76-.04,2.82-.15.04-.06-.61-.09-1.66-.07-1.13.03-2.23.07-3.7.11Z"/><path d="m118.51,56.66c.13.03.14.08,1.14.02.31-.02.48-.07.72-.11l-1.85.09Z"/><path d="m101.55,57.21c.31-.02.12-.02-.07-.02l.07.02Z"/><path d="m116.68,56.68h.44s.43-.03.43-.03c-.29-.01-.58-.01-.87.03Z"/><path d="m3.22,35.15c.03.22.57,1.06,1.55,2.05,1.26,1.24.86.65,1.04.71-.6-.61-.94-.9-1.28-1.23-.35-.33-.73-.7-1.3-1.54Z"/><path d="m9.25,17.14c.09.07-.33.42,1.74-.7-.16,0,.2-.32-.81.17l-.93.53Z"/><path d="m3.21,35.13l-.1-.19c.04.07.07.13.1.19Z"/><path d="m189.1,9.27l-1.72-.3c.29.1-.6.05.78.28.78.13.99.09.94.02Z"/><path d="m165.8,5.92c-1.56-.2-3.16-.39-3.17-.22,1.17.08,2.47.23,3.17.22Z"/><path d="m24.48,48.99c-1.87-.53-3.79-1.15-4.14-1.63-.17-.18-2.42-1.17-3.64-1.88.61.49,1.09.91,1.89,1.47,1.72,1.23,5.35,2.56,8.41,3.15.38.08.58.08,1.05.19,1.72.4,1.89.21.22-.33-.7-.23-.7-.22-1.14-.2-.21.01-.18.11-1.46-.26-.39-.11-.8-.33-1.2-.51Z"/><path d="m38.56,52.33l-1.02-.21c-1.85-.13.91.64.78.85l2.87.4c.31-.16-3.43-.95-2.63-1.03Z"/><path d="m33.67,52.05c1.02.24,2.08.48,2.86.56-.03-.02,0-.03-.09-.05-1.25-.33-.97-.49-2.53-.8-2.29-.45.22.28-.24.29Z"/><path d="m28.74,50.63c-.27-.05-.59-.12-.57-.1.07.06.27.15.41.22.13.01.35.06.36.04.01-.03-.11-.09-.2-.16Z"/><path d="m15.66,45.79c.55.32,1.12.64,1.29.64-.54-.29-1.25-.75-1.29-.64Z"/><path d="m18.11,47.03l.37.14c-.16-.07-.32-.14-.37-.14Z"/><path d="m183.21,52.4l-2.69.39c-.76.4-5.28.93-6.72,1.32.16.07-.21.24,1.96-.04-.94-.01.63-.28,1.62-.45,1.21-.2,1.8-.19,2.27-.18l2.73-.38c5.09-1.04,5.16-1.13.83-.66Z"/><path d="m179.65,53.44c-.47,0-1.06-.02-2.27.18-.99.17-2.56.43-1.62.45,1.48-.2,3.32-.37,3.89-.63Z"/><path d="m193.01,51.21c-2.63.12-3.38.66-5.06.95,2.09-.19,3.6-.59,5.06-.95Z"/><path d="m198.5,50.28l-.97.2c.34,0,.66-.06.97-.2Z"/><path d="m74.49,56.67c-1.88-.12-1.98-.03-2.14.05.28.15-.71.06-1.75-.05-.6.09-.2.29-2.91.12-.57.13,2.4.29,2.82.43,3.84.06,4.17-.23,3.98-.55Z"/><path d="m44.08,53.45l-1.19-.18c.66.17.84.14,1.19.18Z"/><path d="m88.33,4.19c.45-.09.57-.16.7-.23-1.93.15-3.85.27-5.77.45-1.73.16-1.76.25-1.83.34,1.03-.08,2.29-.22,2.91-.19l3.99-.37Z"/><path d="m83.26,4.41c1.92-.18,3.84-.3,5.76-.45l.07-.14c-2.22.16-4.44.27-6.66.47l.83.11Z"/><path d="m61.5,7.4c.05.05.15.11,1.2-.05.47-.08,1.09-.22,1.65-.33-.69.02-1.8.21-2.85.38Z"/><path d="m84.34,4.56c-.62-.03-1.88.11-2.91.19.6.04,1.77-.08,2.91-.19Z"/><path d="m72.86,5.4s-.89.18-.04.11c.09,0,.36-.05.44-.06.55-.11.22-.1-.4-.05Z"/><path d="m112.69,57.45c-1.61.08-3.07-.36-4.79.06-.27.3,3.23.1,4.84.13-.03-.07-.04-.13-.05-.2Z"/><path d="m92.62,57.72h.39c-.12,0-.25,0-.39,0Z"/><path d="m112.74,57.65l.21.03c-.07,0-.15-.02-.21-.03Z"/><path d="m44.62,10.53c-.63.14-1.27.28-1.9.44l-.08.13c1.32-.33,1.97-.48,1.98-.57Z"/><path d="m154.79,4.82c-4.86-.58-5.45-.4-5.48-.15l1.02.37c3.61.49,5.69.43,8.52.65.37-.2.15-.43-4.06-.87Z"/><path d="m108.46,3.38h-.42s.18.03.42,0Z"/><path d="m51,4.53l.68-.08c-.1,0-.2,0-.3,0-.13.03-.25.05-.37.08Z"/><path d="m117.78,3.4c-.33-.02-.67-.04-1.01-.07,0,0-.18.01-.27.02.42.01.84.03,1.28.04Z"/><path d="m172.13,7.39l1.81.3c-.11-.1-.19-.21-1.81-.3Z"/><path d="m89.03,3.96l-.36.21c.94-.08,1.99-.13,2.15-.22.16-.09-.76-.07-1.79.01Z"/><path d="m80.32,57.12c-.11.07-.15.13.78.23-.1-.07.33-.13-.78-.23Z"/><path d="m84.97,57.69l-.2-.03c.07.01.14.02.2.03Z"/><path d="m77.4,57.25c.2.06.18.13.65.18.61.06,1.2.03,1.01-.02-.39-.09,1.57-.15-1.37-.29l-.29.13Z"/><path d="m77.4,57.25l.29-.13c-1.46-.05-1.34.01-.29.13Z"/><path d="m136.97,57.06c.13,0,.26.01.42.02.02,0,.34-.02.36-.03.04-.02-.01-.04-.03-.05l-.74.06Z"/><path d="m224.52,18.06l-.36-.13c.14.05.27.1.36.13Z"/><path d="m97.86.46l1.49-.08-.38-.03c-.39.04-.79.08-1.12.11Z"/><path d="m128.39,57.62h-1.23c.09.03.34.05.59.07l.64-.07Z"/><path d="m70.61,56.67c1.04.12,2.03.2,1.75.05l-1.75-.05Z"/>
                  </g>
                </mask>
              </defs>
              <path class="mask" d="m131.35,1.23c-20.09-1.09-36.89-.6-48.94.14-20.37,1.24-38.55,2.45-56.91,9.08C15.8,13.95,4.01,18.21,1.23,25.55c-4.05,10.68,14.1,19.65,17.39,21.27,2.58,1.28,12.7,5.79,42.29,9.03,18.03,1.97,37.11,2.05,55.95,1.63,30.19-.68,61.14-2.73,88.05-9.05,16.06-3.77,31.5-9.97,32.39-17.61.58-4.98-5.35-9.67-13.72-12.99-8.37-3.32-18.99-5.46-29.69-7.29-26.11-4.47-54.15-7.42-82.78-7.21-28.63.21-57.95,3.74-81.37,11.18-9.18,2.92-17.62,6.56-21.59,11.09-5.93,6.75-.56,14.44,10.42,19.58,4.43,2.08,9.04,3.77,13.83,5.14,8.68,1.8,18.35,3.41,28.98,4.62,45.72,5.21,85.91.32,110.84-4.17"
                    mask="url(#path-mask)" stroke="black" stroke-width="2" fill="none"
                    stroke-dasharray="815.0330200195312" stroke-dashoffset="815.0330200195312">
              </path>
            </svg>
        