
            <svg xmlns="http://www.w3.org/2000/svg">
              <defs>
                <mask id="path-mask">
                  <g fill="white">
                    <path d="m431.11,57.59c3.26-1.36,1.08-.77,1.68-1.18.8-.27,1.59-.56,2.38-.88.98-.35,2.04-.72,3.09-1.09,1.04-.41,2.06-.81,2.99-1.17,1.9-.73,4.52-2.09,6.85-3.7,2.34-1.59,4.37-3.46,5.38-4.74,1.63-1.51,2.42-2.7,2.88-3.51.89-1.15,1.79-2.78,2.22-4.44.47-1.66.47-3.31.41-4.44.02-.16,0-.44,0-.75-.04-.3-.08-.62-.12-.85-.05-.47,0-.62.42.44.56,1.52.81,3.47-.02,5.99-.74,2.06-1.8,3.69-2.36,4.78-.4.54-.81,1.07-1.26,1.57-1.55,2.01-4.51,3.69-5.77,5.2-.32.22-.76.55-1.15.79-.38.25-.69.45-.7.46-.68.73-2.05,1.64-3.69,2.57-1.65.9-3.57,1.82-5.37,2.61l-.11-.09c.95-.51.74-.44-.36.06-.18.09-.36.17-.56.25l-.19-.11c.61-.26,1.5-.67,1.46-.73,0-.01-.46.16-.68.26-1.03.46-.71.39-.8.48l-3.53,1.61c-.29.12-.59.23-.89.35.42-.24,3.31-1.57.68-.59-2.81.95-3.68,1.47-4.18,1.85-.47.35-1.65.8-3.56,1.35-.26-.16-2.95.79-4.85,1.36l.07-.11c1.73-.7.34-.28-1.19.19-2.13.43-2.25.75-3.56,1.13l-.28.04.31-.05c-.08.17.77.19-3.06,1.16-2.39.6-4.41,1.19-3.94,1.33l-2.36.61-2.16.2c1.29-.32,1.84-.52,1.93-.64,1.52-.47,1.63-.6.09-.33-2.06.48-2.76.56-2.06.23.33-.16.78-.37-.58-.05-.4.1-1.02.25-1.55.38-.26.07-.5.14-.67.18-.17.05-.27.08-.27.09.35.37-5.12,1.6-7.2,2.27-.43.14-.59.24-.88.37l-.35.2c-4.9,1.01-10.08,1.82-14.46,2.9-1.11.28-2.69.43-3.81.55-2.03.2-3.38.46-4.45.81-3.18.44-6.37.82-9.55,1.21l-.19-.12c-.29-.17-1.84-.05-3.77.23-1.5.22-.98.31-1.08.43-5.29.78-10.6,1.48-16.16,2.16l.23.02c-.06.07.37.1-.68.23-.29.12-.39.24-1.76.39.44-.37-2.23-.18-4.39-.02-2.34.18-4.86.37-7.32.56-2.45.19-4.83.39-6.87.68-2.82.38-4.73.6-7.49.79-1.67.12-.72.3-.85.44-5.35.43-10.71.87-16.07,1.2v-.28c1.06-.23.79-.36.26-.5-.92-.25.44-.48,3.3-.64l2.52-.3c1.51-.12,3.33-.21,3.98-.48l-2.78.13c-.36-.1-2-.12.1-.39,1.12.07,2.24,0,3.39-.24l3.99-.29c1.67.33,4.93.38,8.5.32,2.48-.5,6.13-1.01,6.61-1.48,3.5-.27,7-.54,10.52-1.01.1.13-.27.34.42.37.92.04-2.73.62.61.3,2.31-.22,1.83-.39,1.57-.52-.12-.06-.16-.32,1.36-.24,2.79.13,2.15-.42,4.53-.61.37.02.64.1,1.12.06,1.38-.13,1.35-.26,1.71-.39,4.47-.46,8.78-1.22,13.55-1.65,2.48-.22,3.74-.76,4.44-1.09,7.28-1.02,14.54-2.14,21.76-3.46,0,.07-.22.18.03.2.7.05-2.72,1,1.04.33,3.31-.63.4-.38.85-.62.13-.07,1.22-.3,1.88-.46,6.05-1.41,12.63-2.73,18.87-4.29,1.82-.46,4.7-1.48,6.22-1.57.85-.12,4-.77,7.31-1.74.83-.24,1.67-.48,2.49-.72.82-.27,1.61-.53,2.36-.77,1.5-.49,2.79-.95,3.61-1.31Zm-20.5,5.92l-.66.27c.31-.07.68-.14.91-.21.23-.07.33-.13.5-.2-.26.05-.51.1-.76.15Zm-35.83,7.56c-.14.02-.33.04-.5.06.03.04.22.01.5-.06Z"/><path d="m362,3.43c4.12.18,8.21.52,12.29.89l6.11.57c2.03.22,4.07.44,6.11.66.98,1.34,6.32,1.15,9.71,1.64.65.43.52.87,4.2.86,1.11,0,2.47.09,3.9.22,1.43.16,2.93.34,4.34.5,2.25.42-4.88.97,3.49,1.32,1.21.19,2.94.23,3.06.69.06.23,1.21.63,2.29.69,1.11.05,2.16-.09,2.58-.27.69-.29-1.46-.37-2.11-.56-1.28-.36-2.18-.76-3.24-1.14.7-.22,3.67.29,3.56-.19,1.75.89,8.29.74,8.16,1.67-.07.46-2.73.69-3.9,1.12-1.22.44-6.17-.02-10.08-.58-1.76-.25-3.42-.66-5.17-.89-1.69-.24-3.74-.85-5.02-.6-1.37.25,3.34.54,2.43.91-2.74.05-5.59-.08-8.69-.67-.16-.74-.94-1.35-5.69-1.18-3.54.13-7.85-1.33-11.29-.88l-1.3-.08-2.45-.41c-4.08-1.08-8.53-1.54-13.42-1.25-2.83-.78-6.06-1.35-10.27-1.14l-1.78-.08c.22-.05.35-.12.66-.14,2.38-.13,3.97-.34,1.57-.94-.63-.16-2.37-.39-2.09-.16.67.54-7.1.3-1.45,1.3-1.54,0-3.78-.23-3.78.24l-2.66-.17c-.08-.26,2.06-.4.27-.73-1.43-.26-2.99-.23-4.18-.07l-1.68-.12c-3.45-.27-3.64-.75-4.11-1.23-.27-.27-1.08-.55-2.73-.59-.61-.02-1.58.05-1.78.13-.56.25.78.36,1.83.5,3.79.53-3.09.72.2,1.24-.84.4-2.97.29-4.96.23l-.02-.3c.05-.29,3.03-.59-.11-.85-2.33-.19-3.97.11-3.52.62l-3.06-.12-4.21-.58c-1.17-.38-1.75-.74-.72-1.09.47-.16.36-.34-.98-.41-1.62-.09-1.88.12-2.13.32l-2.27-.29-.04-.65c3.85.2,8.2.06,10.75,1,.97.36,2.4.23,2.64-.09.18-.23-.12-.51,1.52-.59,3.35-.16,6.75-.26,10.19-.09,3.44.15,6.92.43,10.43.84,4.25,1.1,13.18,1.47,18.61,1.01Zm43.53,5.91c-.45-.05-.9-.02-1.35,0,.37.1.7.26,1.12.32.43.06.95.04,1.77.06-.7-.18-1.12-.33-1.54-.38Z"/><path d="m29.72,62.21c3.1.77,4.44,1.49,5.94,2.24.75.37.12.67,2.64,1.15,2.04.38,1.66-.06,1.35-.42-.29-.35-.42-.67-.62-1.01,2.44.59,4.9,1.11,7.36,1.65-.04.28-.99.49,2.37,1.17,2.54.5,3.66.92,3.49,1.28-.32.16-3.29-.42-1.9.21.49.22,1.64.59,2.41.74,2.6.48.95-.21,1.56-.29.34-.05.6-.12,1.09-.12.96,0,3.7.44,2.73,0-1.12-.5-3.16-.44-4.93-.87l.11-.53c7.03,1.29,13.84,2.65,20.57,4.02-1.2.42-2.03.96-7.78-.49-.95-.25-2.5-.49-2.94-.33-.46.17.73.45,2.04.72.38.38.76.75.97,1.13l-1.96-.19,1.51.52c-4.68-.44-8.99-1.34-12.94-2.62-.98-.58-2.95-1.42-5.13-1.52-2.09-.12-4.89-.85-7.54-1.52-2.64-.68-5.11-1.33-6.59-1.16-3.81-1.35-7.94-2.39-11.85-3.85.38-.57-2.57-1.73-5.09-2.59-2.26-.78-3.52-1.45-5.03-2.44.81-.19,4.42,1.98,6.12,2.25.62.12,2.39,1.43,3.41,1.36.62-.04-1.23-.98-2.33-1.64-1.12-.68-2.04-1.1-3.75-1.65-2.15-.68-4.61-1.76-5.98-3.37-.82-.93-2.7-1.97-3.71-2.76-1.73-1.41-.63,0,.28,1.01,1.42,1.57,3.08,2.88,2.48,3.08-.42-.19-.83-.39-1.24-.61-.78-1.01-2.12-2.15-3.45-3.67-.65-.77-1.3-1.64-1.78-2.64-.49-.99-.79-2.16-.72-3.26-.03-.43.07-.99.16-1.57.05-.29.17-.57.25-.84.09-.28.18-.54.32-.76.46-.93.96-1.35.96-.72.02.16.57-.84,1.32-1.75.36-.46.78-.89,1.07-1.26.32-.33.53-.58.53-.64-.04-.49.98-1.31,2.44-2.23.35-.23.71-.47,1.07-.67,1.94-1.37,4.34-2.79,3.81-1.67-.85.9-.82.87,1,.13.8-.32,1.89-.68,2.1-.65.75.11-2.43,1.42-2.78,1.94-3.09,1.62-5.86,3.86-8.35,5.4-.31.21-.8.77-1.11,1.3-.32.53-.5,1-.42.96.12-.09.1.09.01.37-.05.14-.1.3-.15.47-.04.17-.07.35-.09.5-.1.63-.1.89.52-.38.05.09.07.21.02.44-.05.23-.18.56-.26,1.09-.33,1.73.49,3.6,1.9,5.18,1.4,1.58,3.25,2.89,5.26,3.89-.1.77,1.12,1.58,2.72,2.28,1.6.7,3.56,1.29,4.92,1.9,3.2,1.32,5.8,1.68,9.25,2.93-.93.09-3.63-.16,2.33,1.4Zm13.85,4.3h-.74c.31.1.65.22.91.27.23.04.36,0,.55,0-.25-.09-.48-.18-.72-.26Z"/><path d="m388.42,8.23c-2.21.07-4.65.02-7.06.06-2.4.1-4.76.15-6.79.38-1.8.01-4.07.13-6.42.38-2.34.31-4.77.55-6.89.88-1.2.18-1.66.27-2.51.44-2.62.54-3.16,1.16-.26.75,3.06-.42,4.01-.53,4.82-.45.83.06,2.34.03,5.22-.56.32-.08,1.52-.18,2.04-.22,2.52-.14,4.98-.37,7.44-.44l3.69-.17c1.23-.03,2.47-.03,3.71-.04,11.45-.04,22.91.87,34.2,2.78v-.15c-.96-.15-1.73-.29-1.94-.38-.84-.12-1.77-.26-2.66-.39-.89-.11-1.75-.21-2.45-.3-3.36-.48-7.53-.72-10.18-1.17-.79-.13-4.1-.43-7.51-.68-3.42-.17-6.93-.33-8.12-.25-.39.01-.81.05-.75.07.57.19-1.63.1-2.64.06-1.21-.06-1.95-.11-2.99-.13-.6-.01-2.45.11-2.28.03.11-.05,1.18-.13,2.62-.2,3.02-.13,7.28-.03,7.68-.3Z"/><path d="m86.61,13.76c-2.96.53-6.47,1.13-8.34,1.96.86-.09,1.98-.13,2.56-.27,1.13-.28,2.22-.56,3.25-.76,1.03-.17,2.01-.24,2.88-.12,1.44.2-.46.71-1.81,1.19-2.39.87-4.31,1.01-6.37,1.02-1.28,0-3.38.29-4.38.64-3.39,1.17-5.03.91-7.15,1-1.33.21-2.99.58-3.4.32-.08-.05.5-.3.75-.34,1.75-.28,1.85-.02,2.64.02l3.55-1.66c-2.6-.36-5.71.7-8.68,1.4.13.26-.02.53-2.18,1,.07.18-.08.42.26.53,1.05.35-2.54.96-3.55,1.43-.28.13-1,.34-1.25.24-.51-.2.67-.57,1.97-1,.74-.25.1-.49.09-.74-1.14.5-4.6.77-4.82,1.38.45-.02,1.65-.24.51.15l-.48-.16c-1.74.25-.8-.48-2.93,0-.75.17-1.28.69-1.9,1.05.06.16-.16.36-1.16.67.07.05.14.09.23.13l1.13-.24c1.94-.11,7.86-1.05-.04.94-.51.14-.7.42-1.04.64,3.41-.79,6.94-1.84,10.17-1.88.39,0,4.91-1.41,8.01-1.95.81-.38,1.86-.61,3.71-.96,5.44-1.03,11.22-1.55,16.34-3,2.2.29,5.86-.96,8.13-.95,2.22,0,3.98-.16,6.64-.86,3.61-.95,5.24-.89,5.41-.28,2.01-.34,4.02-.59,6.04-.87-.33-.35,1.31-.81,2.48-1.24-2.84-.16-5.79-.3.02-1.52.74-.16.23-.26-.53-.25-2.32.71-5.88.53-7.83,1.19-4.5,1.46-3.69.56-4.35.29l-1.28.2c-.09.24-.76.47-2.23.69-.13.31-1.09.55-2.51.79l.15.3c-1.41.19-1.21-.02-1.23-.16-2.8.1-6.96.64-7.5,0Z"/><path d="m455.05,24.69c-.3-.27-.57-.52-.83-.76-.27-.21-.53-.41-.76-.59-.46-.37-.89-.63-1.25-.84-.75-.48-1.63-.93-1.96-1.06-.34-.12-.13.08,1.18,1.06,2.02,1.58,2.97,2.5,3.75,3.17.75.69,1.34,1.15,2.11,2.24.87,1.38,1.49,2.93,1.71,4.53.06,1.13.06,2.77-.41,4.44-.44,1.67-1.33,3.29-2.22,4.44l-.2-.07c.81-1.12,1.51-2.46,1.93-3.77.44-1.31.59-2.59.67-3.59.19-2.58-1.06-5.24-3.12-7.49-2.06-2.22-4.57-4.03-7.28-5.46l-2.02-1.09c-.68-.35-1.41-.62-2.11-.93l-2.12-.92-2.18-.78c-5.82-2.05-11.84-3.6-17.93-4.77-.2-.12-.17-.19,1.36.07l2.34.47,1.19.31c.36.12.72.21,1.09.26,1.91.45,3.41.81,4.53,1.07,1.12.31,1.87.51,2.3.6.86.19.44-.03-.96-.59-.09-.03-.11-.05-.16-.08-6.76-1.59-8.45-2.53-15.19-3.58-2.79-.45-6.52-.91-7.25-1.23,1.84.24,3.95.28,4.54.51,1.13.38,3.07.59,4.94.9,6.66,1.24,13.11,2.75,19.71,5.05l1.77.61c.59.22,1.16.48,1.74.72l1.74.74.87.37.84.45c1.11.62,2.27,1.16,3.34,1.86.54.35,1.08.69,1.6,1.08.53.37,1.04.76,1.54,1.18,2,1.63,3.82,3.61,4.99,6.03,1.16,2.42,1.44,5.31.68,7.9-.29,1.02-.78,2.32-1.38,3.27-.57.96-1.12,1.65-1.27,1.63.57-1.09,1.63-2.72,2.36-4.78.83-2.52.58-4.46.02-5.99-.3-1.32-.89-2.56-1.62-3.67-.72-1.12-1.63-2.1-2.62-2.93Zm-10.76-6.12c-.02-.08-.61-.52-2.5-1.23-1.86-.6-4.57-1.5-4.71-1.42-.24.05,2.19.75,3.03,1.09,1.71.51,4.22,1.82,4.17,1.55Zm-5.18-2.65c-1.2-.48-3.4-1.07-3.51-.99-.07.05.71.35,2.02.73,1.39.46,2.74.92,4.53,1.51-1.29-.54-2.07-.91-3.03-1.26Zm6.82,3.22c.23.1.45.2.67.33l-.07-.07c-.49-.26-.53-.23-.6-.26Z"/><path d="m295.45.46c-3.07.13-5.47.04-8.93-.22-5.02-.43-11.29-.15-17-.06-2.86.04-5.92-.21-8.59.15l-.02.59c.63.27,2.26.69.33.8-5.7.33-4.93,1.34-8.87,1.91,2.1-.07,3.96-.2,5.6-.41.21,0,.39-.02.54-.05.22-.27-.68-.62,1.59-.76,1.79-.11,3.07,0,3.33.35l.3.08-.27-.08c-2.65-.19-2.73.46-4.92.42-.14.03-.19.07-.16.11,2.51.62,5.57,0,8.31.09,3.49-.63,7.19-.61,10.93-.09,1.11.16,1.85.37,3.1.01,1.92-.53,4.71-.29,7.4-.05,3.85-.38,2.09-.97,1.16-1.53-.24-.15-1.05-.36.31-.43,1.16-.06,1.83.1,2.3.27h1.37c-.71-.46,2.94-.63,2.2-1.1Z"/><path d="m120.32,79.19c2.4.52,4.91.95,8.27.96,4.22-.21,8.64.03,13.34.76.91-.17,2.59-.12,4.1-.12l2.5.3c-.29-.18-.73-.53-.84-.53-4.59-.16-7.62-1.03-12.03-1.27-3.21-.19-6.14-.43-6.96-1.08-.02-.02-.35-.05-.52-.08-.61.01-1.22.03-1.83.04.48.69-2.75.37-5.21.1-8.09-.86-16.26-1.32-24.42-2.62-4.92-.77-5.2-.68-2.76-1.08.74-.13,1.24-.31,1.85-.46-4.7-.42-10.09-1.49-13.96-1.3.87.18,1.71.38,2.63.53,1.5.25,3.71.13,4.32.62.25.2-2.16.22-3.68.18-.81-.01-2.31-.26-3.5-.41-1-.12-2.08-.29-2.58-.2-.65.12.36.4,1.38.64,1.59.38,1.97.83,4.48,1.16,3.12.83,6.59,1.48,10.8,1.78,4.85,0,10.43.62,16.05,1.18-.06-.16.21-.33,1.23-.22,1.79.18.62.33,1,.5,2.42-.3,4.94-.75,6.35.63Z"/><path d="m425.71,13l1.19.31.54.13.54.13c1.91.45,3.41.81,4.53,1.07,1.12.31,1.87.51,2.3.6.86.19.44-.03-.96-.59-.09-.03-.11-.05-.16-.08-6.76-1.59-8.45-2.53-15.19-3.58-2.79-.45-6.52-.91-7.25-1.23-2.05-.2-5.69-.59-7.24-.58,1.94.31,0,.32-1.02.22-3-.26-1.16-.26-1.58-.4-.09-.03,0-.04.01-.06-2.29-.31-6.22-.42-8.8-.57-1.59.02-3-.05-4.21-.15-.41.28-4.68.17-7.69.3-1.45.07-2.51.15-2.62.2-.17.08,1.68-.04,2.28-.03,1.05.02,1.79.07,2.99.13,1.01.04,3.21.13,2.64-.06-.06-.02.35-.06.75-.07,1.19-.08,4.71.08,8.12.25,3.41.25,6.72.55,7.51.68,2.65.45,6.82.69,10.18,1.17.7.09,1.56.19,2.45.3.89.13,1.81.27,2.65.39,1.64.21,1.71.29,1.94.38v.15c.8.13,1.6.26,2.39.44-.2-.12-.17-.19,1.36.07.3.03.53.02.93.09,1.27.24,1.26.3,1.41.38Z"/><path d="m241.38,3.72l-.09-.24c-1.01-.44-1.81-.9-3.06-1.32-2.69-.87-7.58-.94-11.55.06-.49.12-.74.29-1.35.36-2.26.29-2.39.98-.12,1.16q.95.07,1.47-.4c.25-.22.17-.49,1.88-.57.53-.02,1.12.19,1.68.32,3.24.09,3.04.58,3.78.97-3.68.31-7.45.45-11.26.46,1.54-.71-2.19-.71-3.97-.97l-1.9.48-3.87.35c-.06-.05-.08-.11-.05-.16,2.33-.82-1.37-1.3-1.28-2l2.35-.12s.01.08.13.09c1.67.15,1.39.85,3.42.64,2.99-.3-.38-.66.18-1.04l1.38-.51c5.69-.17,11.49-.62,17.06-.35l2.42-.06.11.41-.51.12.67-.1,1.52-.04c.78.02,1.87.18,1.83-.15l2.45-.26-.34.07-.38-.06c1.69.42,5.87.26,7.07.99.28.17,1.74.06,3.49-.14,1.75-.19,3.78-.42,5.22-.58.48-.05.78-.15,1.16-.22.63.27,2.26.69.33.8-5.7.33-4.93,1.34-8.87,1.91-3.8.34-7.47.39-11,.1Zm-16.29-1.75c-.11-.11-.39-.2-.6-.3-.16.06-.45.13-.45.19,0,.09.18.18.32.29.35-.08.77-.14.73-.18Z"/><path d="m59.95,19.16c2.16-.47,2.31-.73,2.18-1l-2.04.33-1.56.33c-3.93.64-7.73,1.24-11.79,2.44-1.66.49-4.08,1.07-6.13,1.38-2.25.32-6.39,1.41-7.08,1.67-3.62,1.35-7.2,2.53-10.77,3.73-3.56,1.2-7.1,2.41-10.56,3.94-2.55,1.15-3.94,2.3-5.86,3.65-1.23.85-2.4,1.87-3.48,3.04-1.07,1.16-2.04,2.61-2.55,4.35-.51,1.73-.4,3.75.32,5.37.68,1.64,1.72,2.95,2.82,4.06,2.24,2.21,4.78,3.75,7.33,5.15,2.57,1.37,5.21,2.54,7.87,3.58,1.14.45,2.3.97,3.04.99.38-.57-2.57-1.73-5.09-2.59-2.26-.78-3.52-1.45-5.03-2.43-.86-.16-2.26-.99-3.47-1.74-.42-.19-.83-.39-1.24-.61-.78-1.01-2.12-2.15-3.45-3.67-.65-.77-1.3-1.64-1.78-2.64-.49-.99-.79-2.16-.72-3.26-.03-.43.07-.99.16-1.57.05-.29.17-.57.25-.84.09-.28.18-.54.32-.76.46-.93.96-1.35.96-.72.02.16.57-.84,1.32-1.75.36-.46.78-.89,1.07-1.26.32-.33.53-.58.53-.64-.04-.49.98-1.31,2.44-2.23.25-.38.63-.62,1.1-.68,1.91-1.35,4.32-2.78,3.78-1.66.56-.27,1.13-.55,1.7-.8,1.65-1.09,3.45-2.09,6.11-2.72,1.94-1.21,3.84-2.49,6.88-2.43,1.14-.35,2.28-.68,3.43-1,.61-.67,2.96-1.17,4.81-1.68,2.72-.75,2.33-.29,2.58-.09,2.98-1.47,6.21-2.03,9.48-2.28.63-.36,1.15-.88,1.9-1.05,2.13-.49,1.19.24,2.93,0,.19-.6,3.65-.87,4.79-1.37l2.48-.47Z"/><path d="m190.76,2.95c-1.76-.25-3.69-.34-6.25.19,1.49.24,2.96.5,1.24.99-1.35.39-2.43-.08-3.9.14-1.98-.54-3.06-.07-4.32.38-1.44.51-2.86.71-3.89.25-3.48.4-2.9.86-3.5,1.3.55.41,3.38.34,4.77.58,2.35.23,5.43.07,8.35-.27,2.2-.27,4.1-.4,6.22-.43,2.14-.38-.14-.97,3.6-1.21,2.77-.18,2.34.32,2.79.6l2.46-.2c-.19-.28-.54-.55-.52-.85.01-.19,1.14-.33,2.21-.39.92-.05,1.62.02,1.1.19-.77.25-2.92.57-.63.64.57.02,2.56-.47,3.89-.73.42-.09.64-.28,1.52-.14l-1.55.13c.98.77,4.04.49,7.26.13.96-.71-3.97-.84-3.64-1.49-5.29.58-5.26.1-4.88-.54-2.13.24-3.9-.08-6.09.25.36.67-1.97,1.42-5.64,1.56-5.1.19,1.6-.71-.17-.94-.25-.03-.29-.1-.43-.16Z"/><path d="m254.59,82.48l2.01-.06,3.87-.28,1.43-.07s-.08-.08-.12-.12c-.84-.03-1.26-.09-.55-.21.1-.02.45-.04.57-.03,1.1.05-.06.17-.06.25,2.03-.03,3.52-.17,4.45-.44,2.96-.83,7.74-.44,7.65-.27-.28.53,2.93.39,5.25.39,2.92-.33,5.8-.66,8.76-.99,1.29-.13,3.8-.25,3.07-.47-.6-.18-3.31.14-3.99.1-2.14-.11-5.39.72-6.61.21-1.62.04-3.54.15-3.8-.11-1.37.05-2.82.14-3.7,0-3,.07-6.02.14-8.99.21-5.88.02-10.96.82-16.91.69v.35c1.46-.04,2.99-.1,3.75.1-.09.2-.14.4-2.37.45l1.06.42c1.74-.02,3.49-.07,5.23-.12Z"/><path d="m113.38,10.45c.76-.01,1.28.09.53.25-5.82,1.22-2.86,1.36-.02,1.52l2.26-.33-.12-.57-.29-.05.28.05c2.08-.06,6.5-1.06,6.25-.17,3.4-.48,6.58-.19,10.32-1.16.54-.14,2.95-.15,3.1.16l3.61-.29c1.52-.64,6.05-1.29,5.1-1.93-.04-.03.77-.17,1.19-.27,2.79.89,3.78-.68,5.9-.7-.02-.06-.02-.13-.03-.2-6.28-.43-7.66.7-9.76,1.6l-.47.1.5-.09c-1.25.03-3.53.19-3.59.09-.77-1.37-5.19-.04-8.83.48-3.79.57-8.13,1.39-11.56,1.19-1.67.04-1.49-.49-4.36-.08l-.02.41Z"/><path d="m310.17,2.3l-2.27-.29c-5.56-.32-5.46-.92-4.86-1.64-1.83-.27-1.74.13-2.64.18,1.62.97-1.12,1.77-6.17,1.79,1.15.51,1.23,1-.03,1.47,1.27.52,2.34.2,3.45.04-.73-.12-.92-.29.08-.29,1.37,0,1.13.22,1.27.38,2.92.75,7.25.34,10.38.46,5.12.14,10.68.7,15.55.32l-.02-.3-3.55-.24c-1.13.34-2.14.1-3.14-.11l-4.21-.58c-.31.27-.58.56-2.86.43-1.53-.09-2.41-.32-3.13-.56-1.69-.58.65-.78,2.15-1.06Z"/><path d="m280.31,80.48c1.22.51,4.47-.32,6.61-.21.69.04,3.39-.28,3.99-.1.73.22-1.78.34-3.07.47-2.96.33-5.85.66-8.76.99l1.08.19,1.43-.07c3.93-.62,8.98-.66,13.42-1.08,1.05-.23.78-.36.25-.5-.92-.25.44-.48,3.3-.64l.05-.14c.03-.19.87-.33,2.63-.41.36-.02.71-.06,1.05-.1-.36-.1-2-.12.1-.39l-.11-.13c-7.02.38-14.03.64-21.07,1.18,1.15.26,3.25.48-.89.94Z"/><path d="m179.34,82.69c1.46.03,1.3.73,3.91.28,1.96-.34,3.78.27,5.72.18.56-.65,3.18-.47,5.94-.17,2.33.25,4.27.19,6.03,0,1.83-.2,2.64-.46.71-.77-2.6-.08-4.98-.37-7.76-.29-8.69.26-9.64.16-16.58-.57-.17-.02-.5-.05-.54-.04-3.56.51-8.91-.65-12.54-.22.33.32.35.66,2.79.92.09-.22.67-.23,2.34-.12,3.53.21,6.82.51,9.97.81Z"/><path d="m280.31,80.48c4.14-.46,2.04-.68.89-.94-2.74-.02-4.58-.21-8.49.35-2.81.4-8.47.33-12.99.46-6.08.24-12.46.48-18.61.36-2.69-.04-4.48-.02-4.18.41.29.42,2.47.39,4.91.26,1.69-.04,3.38-.08,5.07-.11,5.95.13,11.02-.67,16.91-.69,2.97-.07,5.99-.14,8.99-.21.72-.1,1.53-.26,2.15-.27,1.37-.03,1.5.13,1.56.27.26.26,2.17.15,3.8.11Z"/><path d="m141.71,8.36c2.1-.89,3.48-2.02,9.76-1.6,1.64-.25,3.28-.53,4.93-.74,1.3-.26,2.66-.51,2.29-.8-1.18-.16-2.53-.08-3.89.06-1.36.17-2.75.42-4.02.55-9.69,1.07-19.43,1.65-29.12,3.29-2.59.41-2.93.64-3.9.99,3.43.2,7.77-.62,11.56-1.19,3.64-.52,8.05-1.85,8.83-.48.06.1,2.34-.05,3.56-.09Z"/><path d="m95.8,74.11c-.61.16-1.11.33-1.85.46-2.44.4-2.15.31,2.76,1.08,8.16,1.29,16.33,1.76,24.42,2.62,2.46.27,5.69.59,5.21-.1-4.54-1.05-9.56-1.39-15.11-1.59-3.58-.11-6.28-.56-5.52-1.19-3.61-.07-6.51-.92-9.91-1.27Z"/><path d="m164.23,81.08c3.63-.43,8.98.73,12.54.22.04,0,.37.02.54.04,6.93.74,7.89.83,16.58.57,2.79-.08,5.17.21,7.76.29-1.09-.56-2.29-1.13-6.55-1.49l-3.14.27c-1.16.33-2.94.27-5.45.12-3.06-.17-6.76-.24-9.41-.37-5.34-.31-10.12.11-15.2-.52l1.31.81c.34.02.68.05,1,.07Z"/><path d="m226.83,81.48c-1.6.49-2.9.99,3.52.98,2.07,0,.77.22.61.35-3.16.35-6.65.17-8.91-.04-5.73-.54-7.03-.09-8.27.5l-1.18.02c-3.77-.32-9.96-.54-4.07-1.33,1.06-.14,1.04-.43,1.52-.65,3.24.02,6.49.04,9.73.05,2.1.02,3.67,0,3.89-.32l3.61.05c-.14.13-.08.26-.45.38Zm-10.35.43c-.13-.01-.34-.02-.65.04.18,0,.36.01.65-.04Z"/><path d="m418.29,9.3c1.75.89,8.29.74,8.16,1.67-.07.46-2.73.69-3.9,1.12-1.22.44-6.17-.02-10.08-.58-1.76-.25-3.42-.66-5.17-.89-1.69-.24-3.74-.85-5.02-.6-1.37.25,3.34.54,2.43.91,5.68,1.46,12.96,1.44,18.84,2.88,1.86.45,1.52-.26,3.05-.16,1.5-.08-5.03-1.25.4-.8,1.9-.48,6.7-.17,6.12-1.23-1.11-.22-2.57-.43-3.27-.67-1.76-.6-1.57-1.73-6.33-1.23-.02,0-.43-.11-.96-.26-.53-.14-1.18-.31-1.7-.4-2.99-.55-5.87-.81-8.44-.74.76.99,4.22.5,5.89.99Z"/><path d="m433.97,14.48c1.49.25,2.54.54,3.28.9.92.45,2.29.94,3.79,1.26,1.5.32,3.14.52,4.61.5,2.63-.02,5.05-.32,5.44-.96.73-1.19-2.43-2.1-9.67-2.94-1.77-.2-3.91-.85-5.89-1.29-2.26.24-1.5.93.81,1.65,2.33.73,4.57.77,6.34.55.65-.08,3.57.07,3.24.54-.29.41,1.32,1.04.2,1.31-.69.17-1.05.46-3.01.24-2.03-.22-2.87-.62-3.06-.98-.2-.37-.46-.68-2.71-.98-2.19-.29-3.33-.24-3.37.17Z"/><path d="m161.92,80.21c5.08.62,9.86.21,15.2.52,2.65.13,6.35.2,9.41.37,2.51.15,4.29.21,5.45-.12-4.28-.94-10.7-.72-16.01-.93-3.95-.2-7.96-.28-11.93-.43-3.97-.19-7.92-.43-11.75-.92l-.65.2c1.13.33,5.13.86-1,.65-2.01-.08-3.16.15.29.46,3.65.06,6.34-.54,10.99.2Z"/><path d="m105.37,14.32c-.17-.61-1.8-.67-5.41.28-2.65.7-4.41.86-6.64.86-2.27,0-5.93,1.24-8.13.95-5.12,1.45-10.9,1.96-16.34,3-1.86.36-2.9.58-3.71.96,5.11-.35,10.53-1.27,16.35-2.38,3.71-.76,7.51-1.27,11.62-1.68,3.58-.33,8.13-1.3,12.26-1.99Z"/><path d="m344.72,5.52l-2.66-.17-3.91-.8c-.56-.04-1.12-.08-1.68-.12-1.83.05-3.66.09-5.49.14,3.17,1.26,9.6,1.28,14.21,1.58,9.16.52,18.41,1.05,27.62,1.58l2.48-.04c-4.08-1.08-8.53-1.54-13.42-1.25-1.97-.04-3.99-.05-5.79-.19-1.8-.13-3.39-.37-4.47-.95-.59-.03-1.19-.06-1.78-.08-.43,0-.85-.01-1.27-.02,0,.16.06.23.1.31.12.06.25.12.38.18l-.87-.12-3.42-.04Z"/><path d="m324.88,76.79c3.5-.27,7-.54,10.52-1.01,2.79-.27,5.47-.58,7.56-.59,1.88-.22,2.82-.33,3.76-.44,4.47-.46,8.78-1.22,13.55-1.65,2.48-.22,3.74-.76,4.44-1.09-6.71.88-13.42,1.72-20.15,2.43-6.72.78-13.46,1.45-20.19,2.17l.52.18Z"/><path d="m230.97,82.81c-3.16.35-6.65.17-8.91-.04-5.73-.54-7.03-.09-8.27.5,4.72.08,9.44.2,14.16.21,4.72-.03,9.44-.09,14.15-.43,2.28-.16,3.71.14,5.56.05,2.55-.11,6.49-.03,6.95-.62-1.74.05-3.48.1-5.23.12l-8.59.05-9.81.15Z"/><path d="m416.74,62.51c-.08.17.77.19-3.06,1.16-2.39.6-4.41,1.19-3.94,1.33,9.84-2.35,19.67-5.16,29.23-9.73l-.11-.09-.37.06c-.18.09-.36.17-.56.25-1.6.75-3.19,1.5-3.74,1.5-.29.12-.59.23-.9.35l-3.5,1.26c-.47.35-1.65.8-3.56,1.35-2.08.69-4.19,1.56-6.13,1.99-.65.12.28-.24,1.29-.63l.07-.11-1.19.19c-2.13.43-2.25.75-3.53,1.12Z"/><path d="m212.61,83.29c-3.77-.32-9.96-.54-4.07-1.33,1.06-.14,1.04-.43,1.52-.65-1.8-.07-1.19-.25-1.31-.39h-2.41c.74.37-2.37.48-2.46.8l1.61.1c-.12.02-.34.05-.35.06-.44-.05-.87-.1-1.3-.15-2.13-.25-.82-.55-1.26-.83-2.42-.45-4.9-.58-7.47-.19,4.26.36,5.45.93,6.55,1.49,1.93.31,1.12.57-.71.77-1.77.19-3.7.25-6.03,0-2.75-.3-5.38-.48-5.94.17,6.21.21,12.56.07,18.69.39,2.42.13,3.7-.04,4.95-.24Z"/><path d="m150.92,80.01c-3.44-.31-2.29-.54-.29-.46,6.13.22,2.13-.32,1-.65-1.07.28-2.97-.09-4.44-.13.15.24-1,.49-1.89.34-4.44-.75-7.65-.22-11.54-.58-2.1.14-2.19-.12-2.34-.36-2.08-.45-2.63-.23-3.26-.05.18.03.51.06.53.08.82.66,3.75.89,6.96,1.08,4.41.24,7.44,1.11,12.03,1.27.11,0,.56.35.84.53l4.77.6,2.53.33.32-.48c-5.43-.36-5.71-.94-5.23-1.52Z"/><path d="m84.88,75.33c-2.51-.33-2.89-.78-4.48-1.16-1.01-.24-2.03-.52-1.38-.64.5-.09,1.58.07,2.58.2,1.19.15,2.69.39,3.5.41,1.52.04,3.93.02,3.68-.18-.61-.49-2.82-.37-4.32-.62-.91-.15-1.75-.35-2.63-.53-1.11-.45-2.2-.31-3.29-.46-1.85-.13-3.83-.21-3.34.19.96.77.02.94-1.8.84-1.82-.12-4.51-.53-7.06-.89.58.36,3.24.68,3.39,1.05,2.1.25,4.13.61,6.16.96,2.03.36,4.07.75,6.19,1,3.04.38,2.42.02,2.79-.17Z"/><path d="m133.76,78.53c3.89.35,7.1-.17,11.54.58.9.15,2.04-.1,1.89-.34-7.8-.53-15.56-1.06-23.36-1.58-3.91-.28-8-.74-11.85-1.25-2.33-.31-4.23-.41-6.28-.54-.76.64,1.94,1.08,5.52,1.19,5.55.2,10.57.54,15.11,1.59.61-.01,1.23-.03,1.83-.04.63-.18,1.17-.4,3.25.05l2.34.36Z"/><path d="m230.97,82.81l9.81-.15.09-.32c-1.34.02-2.52-.01-2.31-.21.2-.19,1.56-.22,2.78-.24.45-.16.48-.33.51-.49-2.44.13-4.61.16-4.91-.26-3.13-.16-6.36-.14-9.66-.03-.14.13-.08.26-.45.38-1.6.49-2.9.99,3.52.98,2.07,0,.77.22.61.35Z"/><path d="m156.4,6.03c-1.65.21-3.28.49-4.93.74v.2s.29.05.29.05l-.26-.05c-2.12.02-3.11,1.58-5.9.7-.42.09-1.24.24-1.19.27.95.64-3.58,1.29-5.1,1.93.28.2,1.38.05,2.36-.04,1.26-.45,3.33-.56,5.15-.77,1.36-.01,2.12-.91,2.89-.43.82.52,3.02-.1,4.28-.08,2.11-.62,3.11-.44,3.87-.15,1.29-.02,2.84.25,3.59-.36l.52-.36c-1.51-.02-2.29-.29-4.39-.1-1.45-.02-.92-.29-1.07-.48-6.59.24.8-.8-.11-1.06Z"/><path d="m435.17,55.54c.98-.35,2.04-.72,3.09-1.09,1.04-.41,2.06-.81,2.99-1.17,1.9-.73,4.52-2.09,6.85-3.7,2.34-1.59,4.37-3.45,5.37-4.74-2.18,2.1-4.95,4-3.43,2.51-4.66,3.4-9.89,5.9-14.88,8.2Z"/><path d="m156.5,7.08c-6.59.24.81-.8-.11-1.06,1.3-.26,2.66-.51,2.29-.8,3.74-.37,7.65-1.25,11.1-.78.17.03.22.07.17.12-4.87,1.03-5.19,1.93-4.85,2.82l-3.15.27c-1.51-.02-2.28-.29-4.39-.1.12-.22.14-.43-1.07-.48Zm3.86-.97c-.8-.03-1.53.2-1.27.29.52.18-1.95.83,1.82.52,1.87-.25,1.7-.39.33-.45-.27-.13-.27-.33-.88-.36Z"/><path d="m70.81,16.77c1.14-.18,2.14.02,3.38-.52,2.74-1.21,3.11-.64,4.09-.52.86-.09,1.98-.13,2.56-.27,1.13-.28,2.22-.56,3.25-.76,1.03-.17,2.01-.24,2.88-.12,1.44.2-.46.71-1.81,1.19-2.39.87-4.31,1.01-6.37,1.02-1.28,0-3.38.29-4.38.64-3.39,1.17-5.03.91-7.15,1,1.18-.55,2.36-1.1,3.54-1.65Zm13.7-1.62s-.43.09-.45.12c-.04.06.03.1.06.15l.94-.22c-.18-.02-.34-.04-.55-.04Z"/><path d="m393.67,68.49c-4.9,1.01-10.08,1.82-14.46,2.9-1.11.28-2.69.43-3.81.55-2.03.2-3.38.46-4.45.81,4.22-.29,9.25-1.26,13.95-2.2,6.08-1.2,11.86-1.97,17.92-3.62.88-.24,1.97-.48,2.35-.67-1.28.09-3.4.49-5.79,1.18-2.89.8-4.31.95-5.69,1.05Z"/><path d="m433.97,14.48c.04-.41,1.19-.46,3.37-.17,2.25.3,2.51.61,2.71.98.19.35,1.03.75,3.06.98,1.96.22,2.32-.07,3.01-.24,1.12-.28-.48-.9-.2-1.31.32-.47-2.59-.62-3.24-.54-1.77.22-4,.18-6.34-.55-2.31-.72-3.07-1.41-.81-1.65-.79-.27-1.59-.47-2.43-.35.58,1.06-4.21.75-6.12,1.23,1.26.34,2.41.75,2.44,1.1l4.54.55Z"/><path d="m47.84,22.05c-3.27.25-6.5.82-9.49,2.28-1.71,1.02-7.39,2.46-8.17,3.49l.6.5c2.09-.42,3.94-.97,5.55-1.69.24-.19-.58-.15.65-.55l.47.24c.36-.05.73-.14,1.13-.26,4.84-1.34,3.6-2.13,8.08-3.36,1-.31,1.23-.51,1.16-.67Z"/><path d="m280.16,81.83l-1.08-.19c-2.32,0-5.53.14-5.25-.39.09-.17-4.68-.56-7.65.27-.93.27-2.42.41-4.45.44.09.03.13.07.17.12l-.08.45c3.03,0,6.04-.03,9.08-.1,3.04-.08,6.12-.22,9.26-.6Z"/><path d="m337.98,77.3c.44-.37-2.23-.18-4.39-.02-2.34.18-4.86.37-7.32.56-2.45.19-4.83.39-6.87.68-2.82.38-4.73.6-7.49.79-1.67.12-.72.3-.85.44,2.95-.16,5.86-.38,8.8-.62,2.94-.24,5.92-.5,9-.94,2.66-.37,6.06-.6,9.12-.89Z"/><path d="m116.15,11.89l-2.26.33c-1.17.43-2.81.88-2.48,1.24,6.13-.47,12.6-1.79,18.85-1.98,2.52-.06,3.2-.89,5.43-1.32-.15-.31-2.56-.3-3.1-.16-3.74.97-6.91.68-10.32,1.16-2.06,1.45-4.08.33-6.12.74Z"/><path d="m14.54,32.26c-.57.25-1.14.52-1.7.8-.85.9-.81.86,1,.13.8-.32,1.89-.68,2.1-.65.75.11-2.43,1.42-2.78,1.94.83-.26,1.65-.52,2.49-.74,1.23-.52,2.48-.99,3.74-1.44,2.43-1.22,4.93-2.35,7.46-3.41-2.75.58-4.1.89-4.02.63.09-.24,1.61-1.04,4.7-2.4-3.03-.06-4.94,1.22-6.88,2.43-2.05.86-2.64,2.19-6.11,2.72Z"/><path d="m66.35,72.49c2.55.36,5.24.77,7.06.89,1.82.1,2.76-.07,1.8-.84-.49-.4,1.49-.32,3.34-.19-.48-.71-3.13-.59-4.66-.9-1.2.42-2.03.96-7.78-.49-.95-.25-2.5-.49-2.94-.33-.46.17.73.45,1.98.7l.55.06-.49-.04,1.13,1.13Z"/><path d="m169.79,4.45c.17.03.22.07.17.12.57.27,4.37-.23,3.7.33,1.03.46,2.45.25,3.89-.25,1.26-.45,2.34-.92,4.32-.38,1.47-.21,2.55.25,3.9-.14,1.71-.49.25-.76-1.24-.99-5,.2-10.34.09-14.73,1.31Z"/><path d="m243.97.87c1.69.42,5.87.26,7.07.99.28.17,1.74.06,3.49-.14,1.75-.19,3.78-.42,5.22-.58.48-.05.78-.15,1.16-.22l.02-.59c-2.22-.21-4.36-.14-6.49,0-2.13.15-4.26.33-6.45.26l-3.23.15c-.42.02-.69.06-.8.13Z"/><path d="m415.34,62.13c.85-.12,4-.77,7.31-1.74.83-.24,1.67-.48,2.49-.72.82-.27,1.61-.53,2.36-.77,1.5-.49,2.79-.95,3.61-1.31,3.26-1.36,1.08-.77,1.68-1.18-1.04.42-2.08.84-3.11,1.26-1.04.38-2.09.72-3.12.98-.45.11-1.93.6-2.03.63-1.31.58-2.86,1.07-4.44,1.54-1.6.43-3.24.84-4.75,1.29Z"/><path d="m418.29,9.3c-1.67-.49-5.13,0-5.89-.99-1.7-.6-3.47-.58-5.22-.62-2.96.23-7.52-.48-10.97-.5.65.43.52.87,4.2.86,1.11,0,2.47.09,3.89.21,1.42.16,2.9.32,4.27.47l1.55-.1.47.19-1.93-.06c2.25.42-4.88.97,3.49,1.32.33-.31-.7-.92,2.58-.59.7-.22,3.67.29,3.56-.19Z"/><path d="m340.42,76.68c-.06.07.37.1-.68.23,7.45-.78,15.33-1.32,21.66-2.96l-.19-.12-4.85.66c-5.29.78-10.6,1.48-15.94,2.18Z"/><path d="m396.22,7.19c3.44.02,8,.73,10.97.5-.31-.76-3.07-.52-4.46-.7-5.3-.75-10.82-1.1-16.21-1.44.98,1.34,6.32,1.15,9.71,1.64Z"/><path d="m307.86,1.35c3.85.2,8.2.06,10.75,1,.97.36,2.4.23,2.64-.09.18-.23-.12-.51,1.52-.59.55-.65-2.69-.57-4.4-.66-3.85-.21-7.77-.32-11.66-.48.31.27-.68.56,1.15.82Z"/><path d="m288.12,3.24c-2.68-.24-5.47-.49-7.4.05-1.25.35-1.98.15-3.1-.01-3.74-.52-7.44-.54-10.93.09,3.48.57,7.82.47,12.06.4,3.12-.02,6.22-.04,9.32-.06l.04-.46Z"/><path d="m27.39,60.81c-.93.09-3.63-.16,2.33,1.4,3.1.77,4.44,1.49,5.94,2.24.75.37.12.67,2.64,1.15,2.04.38,1.66-.06,1.35-.42-.29-.35-.42-.67-.62-1.01-3.92-1.01-7.81-2.12-11.64-3.36Z"/><path d="m203.1,2.22c-.38.64-.41,1.11,4.88.54l3.7-.55,2.35-.12c.99-.25,2.38-.27,3.73-.31l1.38-.51c.1-.41-1.54-.23-2.84-.13-4.41.36-8.81.67-13.2,1.08Z"/><path d="m15.66,33.73c-.84.22-1.66.48-2.49.74-3.09,1.62-5.86,3.86-8.35,5.4-.31.21-.8.77-1.11,1.3-.32.53-.5,1-.42.96.12-.09.1.09.01.37-.05.14-.1.3-.15.47-.04.17-.07.35-.09.5-.1.63-.1.89.52-.38.42-1.07,1.26-2.06,2.2-2.94.94-.89,2.05-1.66,3.17-2.38,2.26-1.43,4.63-2.66,6.72-4.05Z"/><path d="m204.39,4.12c-1.34.26-3.32.74-3.89.73-2.29-.07-.14-.39.63-.64.52-.17-.18-.24-1.1-.19-1.06.06-2.19.2-2.21.39-.02.29.33.57.52.85,2.24.16,4.62.1,7.06,0,2.45-.07,4.97-.23,7.47-.38l.13-.52c-.06-.05-.08-.11-.05-.16l-1.34.04c-3.22.36-6.29.64-7.23-.13Z"/><path d="m46.68,22.72c-4.47,1.23-3.24,2.02-8.08,3.36,2.61-.17,5.23-.39,8.35-1.88.34-.22.53-.5,1.04-.64,7.9-1.99,1.97-1.05.04-.94-.16.17.09.3-1.34.62l.21-.38c-.09-.04-.16-.09-.23-.13Z"/><path d="m52.8,70.2c-.98-.58-2.95-1.42-5.13-1.52-2.09-.12-4.89-.85-7.54-1.52-2.64-.68-5.11-1.33-6.59-1.16,3.23.92,6.45,1.74,9.67,2.41,3.21.71,6.41,1.27,9.59,1.79Z"/><path d="m153.3,81.69l-4.77-.6-2.5-.3c-.01.44-2.09.29-4.1.12-4.7-.73-9.13-.97-13.34-.76.39.22,1.66.5,2.53.51,7.18.08,15.18,1.28,22.18,1.02Z"/><path d="m396,10.25c-.16-.74-.94-1.35-5.69-1.18-3.54.13-7.85-1.33-11.29-.88,5,1.42,11.19,1.53,16.98,2.07Z"/><path d="m309.76,77.96c1.67.33,4.93.38,8.5.32-.74-.37,1.07-.88,3.47-1.42-2.5,0-4.71.37-7,.65-1.21.46-3.23.36-4.97.45Z"/><path d="m343.39,2.42c4.25,1.1,13.18,1.47,18.61,1.01-5.26-.84-10.62-.75-15.94-1.03-.16.42-1.45.19-2.67.02Z"/><path d="m95.18,13.61c1.42-.24,2.38-.48,2.31-.73l-1.58.1-.38-.16,1.17-.1.99.1c1.46-.22,2.13-.45,2.22-.69-4.47.58-8.43.52-13.31,1.62.55.64,4.71.1,7.5,0,.36-.05.72-.09,1.08-.14Z"/><path d="m111.74,78.28c-5.63-.56-11.21-1.18-16.05-1.18,1.85.53,3.61.9,6.46.86,3.62-.02,8.02.81,11.99,1.02l-.19-.43c-.72-.09-1.47-.18-2.21-.28Z"/><path d="m294.22,2.34c5.05-.02,7.79-.81,6.17-1.79l-4.94-.1c.75.47-2.91.64-2.2,1.11,1.43.24.82.52.97.78Z"/><path d="m26.86,28.88c-2.53,1.06-5.02,2.2-7.46,3.41,3.94-1.2,7.87-2.24,11.39-3.96l-.6-.5c-1.12.33-2.22.69-3.33,1.04Z"/><path d="m165.11,7.39l-3.15.27-.52.36c4.59-.24,9.28-.3,13.49-1.25-1.39-.23-4.22-.16-4.77-.58-.88.15-1.62.28-2.36.4-.17.3-.27.59-2.69.78Z"/><path d="m288.12,3.24l-.04.46,6.11.11c1.26-.47,1.18-.96.03-1.47-2.98-.09-2.28-.47-2.33-.79-.47-.17-1.15-.33-2.3-.27-1.36.07-.55.28-.31.43.93.56,2.69,1.15-1.16,1.53Z"/><path d="m113.38,10.45l.02-.41c-2.08.24-4.28.36-6.39.57-2.1.26-4.11.63-5.81,1.32.67.27-.14,1.17,4.35-.29,1.95-.66,5.51-.49,7.83-1.19Z"/><path d="m156.15,81.53l-.32.48c4.75.59,9.07.46,13.48.43l-2.29-.45c-2.44-.26-2.46-.59-2.79-.92-.33-.02-.66-.05-1-.07-.04.67-.8,1.2-7.08.52Z"/><path d="m210.05,81.31c3.24.02,6.49.04,9.73.05,2.1.02,3.67,0,3.89-.32-4.33-.44-9.14-.02-13.64-.23-.01.16-.02.32.03.49Z"/><path d="m167.03,82l2.29.45c3.5.36,7.13.94,10.03.24-3.15-.3-6.45-.59-9.97-.81-1.67-.1-2.25-.1-2.34.12Z"/><path d="m190.76,2.95c.14.05.18.12.43.16,1.78.23-4.93,1.13.17.94,3.68-.14,6-.89,5.64-1.56-2.16.03-4.47-.17-6.24.47Z"/><path d="m393.67,68.49c1.39-.1,2.8-.26,5.69-1.05,2.39-.69,4.51-1.09,5.79-1.18.84-.23,1.93-.49,2.22-.66-.72.07-1.44.13-2.16.2-3.76.8-7.45,1.72-11.19,2.49l-.35.2Z"/><path d="m450.05,47.34c-1.53,1.49,1.25-.41,3.43-2.51,1.64-1.51,2.42-2.7,2.88-3.51l-.2-.07c-1.62,2.3-3.68,4.31-6.11,6.09Z"/><path d="m295,80.68c-4.44.43-9.48.46-13.42,1.08,4.48.1,8.94-.51,13.41-.8v-.28Z"/><path d="m10.5,53.7c-.1.77,1.12,1.58,2.72,2.28,1.6.7,3.56,1.29,4.92,1.9-.06-.35.86-.33-2.51-1.63-1.67-.66-3.48-1.6-5.13-2.55Z"/><path d="m195.89,5.46c-.45-.28-.02-.78-2.79-.6-3.74.24-1.46.83-3.6,1.21,3.02.38,4.26-.4,6.39-.61Z"/><path d="m330.97,4.57c1.83-.05,3.66-.09,5.49-.14-3.44-.27-3.63-.75-4.1-1.23-.27-.27-1.08-.55-2.73-.59-.61-.02-1.58.05-1.78.13-.56.25.78.36,1.83.5,3.79.53-3.09.72.2,1.24.34.04.71.06,1.09.09Z"/><path d="m455.64,43.63c-1.55,2.01-4.51,3.69-5.77,5.2.52-.18.78-.28,1.54-.89.39-.29.88-.74,1.59-1.41.69-.68,1.59-1.58,2.64-2.91Z"/><path d="m230.24,3.09c3.24.09,3.04.58,3.78.97,2.53-.03,5.32.21,7.36-.34l-.09-.24c-1.82-.06-5,.2-5.31-.19-.68-.88-3.25-.44-5.75-.2Z"/><path d="m222.76,4.51c1.54-.71-2.19-.71-3.97-.97l-1.91.48-1.48.89c2.53.01,4.73-.58,7.35-.4Z"/><path d="m53.21,67.96l.11-.53c-2.21-.64-4.42-1.22-6.93-1.61-.04.28-.99.49,2.37,1.17,2.54.5,3.66.92,3.49,1.28,1.14.1.83-.16.96-.31Z"/><path d="m321.73,76.86c-2.4.53-4.21,1.04-3.47,1.42,2.48-.5,6.13-1.01,6.61-1.48l-.51-.18-2.63.25Z"/><path d="m307.86,1.35c-1.83-.26-.84-.55-1.15-.82-1.23-.08-2.46-.11-3.68-.16-.6.72-.69,1.32,4.86,1.64l-.03-.65Z"/><path d="m113.95,78.56l.19.43c2.38.24,4.43.29,6.18.2-1.41-1.38-3.93-.93-6.37-.63Z"/><path d="m386.47,68.55c0,.07-.22.18.03.2.7.05-2.72,1,1.04.33,3.31-.63.4-.38.85-.62.13-.07,1.22-.3,1.88-.46-.83.03-1.58.03-3.79.55Z"/><path d="m309.76,77.96c1.75-.09,3.77,0,4.97-.45l-2.69.14c-1.01.09-1.88.13-2.36.06l-4.97.48,1.05.07,3.99-.29Z"/><path d="m401.45,8.94s-.1.04-.01.06c.42.14-1.42.13,1.58.4,1.02.1,2.96.09,1.02-.22-.86-.08-1.72-.19-2.58-.24Z"/><path d="m203.88,81.72c.09-.31,3.2-.42,2.46-.79l-3.76-.04c.44.28-.87.58,1.3.82Z"/><path d="m429.42,13.93c-.04-.34-1.18-.75-2.44-1.1-5.43-.44,1.11.72-.39.8.22.09.54.15.93.17.54.05,1.08.13,1.62.2.34.03.43,0,.29-.08Z"/><path d="m242.24,1.11l2.45-.26c-1.09-.43-4.08-.22-5.95-.39l-.12.4.11.41c.67,0,1.17,0,1.67-.02.18-.23,1.02-.19,1.84-.15Z"/><path d="m69.74,73.54c-.15-.37-2.82-.69-3.56-1.05l-1.96-.19,1.51.52c1.26.34,2.59.57,4,.71Z"/><path d="m157.86,8.39c-.76-.29-1.76-.47-3.87.15,1.05.09,1.51.58,3.87-.15Z"/><path d="m260.47,82.14l-3.87.28c-.17.41,1.97.24,3.88.13v-.41Z"/><path d="m146.81,9.04c-1.82.21-3.9.32-5.15.77,2.67.14,4.05-.26,5.15-.77Z"/><path d="m388.43,8.23c1.21.1,2.62.17,4.21.15-1.35-.07-2.15-.35-4.21-.15Z"/><path d="m305.77,78.25l-1.05-.07-2.45.18.11.13c1.12.07,2.24,0,3.39-.24Z"/><path d="m258.39,3.27s.03-.07.16-.11c-.18.03-.36.04-.57.05-.11.14-.23.3-.34.45l.75-.39Z"/><path d="m309.69,77.7c.48.07,1.35.03,2.36-.06,0-.22-.8-.2-2.36.06Z"/><path d="m298.99,3.93c-.13-.16.1-.39-1.27-.38-1,0-.81.17-.08.29l1.35.09Z"/><path d="m238.62.87l.12-.4c-1.27.09-2.14.24-2.54.46l2.42-.06Z"/><path d="m244.77.73l3.23-.15c-1.36-.23-2.45-.19-3.23.15Z"/><path d="m209.99,81.3l.03-.48c-.82-.04-1.24,0-1.28.1.11.14-.49.32,1.25.38Z"/><path d="m37.47,26.34l-.47-.24c-1.23.4-.42.36-.65.55.39-.07.76-.17,1.12-.3Z"/><path d="m343.4,2.42c1.21.18,2.51.4,2.66-.02-1.11-.12-2.22-.24-2.66.02Z"/><path d="m429.13,14.01c-.54-.07-1.07-.15-1.62-.2.32.12.63.26.94.39l.67-.19Z"/><path d="m394.03,68.28c3.74-.77,7.43-1.69,11.19-2.49,1.29-.32,1.85-.52,1.93-.65l.09-.33c-2.06.48-2.76.56-2.06.23.33-.16.78-.37-.58-.05-.4.1-1.02.25-1.55.38-.26.07-.5.14-.67.18-.17.05-.27.08-.27.09.35.37-5.12,1.6-7.2,2.27-.43.14-.59.24-.88.37Z"/><path d="m459.3,31.29c-.3-1.32-.89-2.56-1.62-3.67-.72-1.12-1.63-2.1-2.62-2.93,1.57,1.57,1.57,1.85,1.54,1.92-.06.1-.14.01.69,1.3.87,1.38,1.49,2.93,1.71,4.53.02-.16,0-.44,0-.75-.04-.3-.08-.62-.11-.85-.05-.47,0-.62.42.44Z"/><path d="m342.95,75.18c-2.09.01-4.76.32-7.56.59.1.13-.27.34.42.37.92.04-2.73.62.61.3,2.31-.22,1.83-.39,1.57-.52-.12-.06-.16-.32,1.36-.24,2.79.13,2.15-.42,3.6-.5Z"/><path d="m429.8,58.6l3.5-1.26c.42-.24,3.31-1.58.69-.59-2.81.95-3.68,1.47-4.18,1.85Z"/><path d="m421.39,61.31c-1.01.39-1.93.75-1.29.63,1.95-.43,4.06-1.29,6.13-1.99-.26-.16-2.95.79-4.85,1.36Z"/><path d="m356.35,74.5l4.85-.66c-.29-.17-1.84-.05-3.77.23-1.5.22-.98.31-1.08.43Z"/><path d="m302.28,78.89c-.34.04-.69.07-1.05.1l-.12.26c1.49-.12,3.31-.21,3.96-.48l-2.78.13Z"/><path d="m434.2,56.99c.55,0,2.14-.75,3.74-1.5l-.19-.12c-1.2.55-2.38,1.08-3.55,1.62Z"/><path d="m411.37,63.37c-.26.05-.51.1-.76.15l-.66.27c.31-.07.68-.14.91-.21.23-.07.33-.13.5-.2Z"/><path d="m346.72,74.75l-2.83.33c.37.02.64.1,1.12.06,1.38-.13,1.35-.26,1.71-.39Z"/><path d="m420.27,61.39l1.19-.19c1.73-.7.34-.28-1.19.19Z"/><path d="m437.75,55.37c.61-.26,1.5-.67,1.46-.73,0-.01-.46.16-.68.26-1.03.46-.71.39-.78.47Z"/><path d="m407.24,64.82l-.09.33c1.52-.47,1.63-.6.09-.33Z"/><path d="m374.28,71.14s.22.01.39,0c-.03-.04-.22-.01-.39,0Z"/><path d="m298.6,79.4l-.05.14,2.52-.3c-.81.05-1.64.1-2.48.15Z"/><path d="m416.71,62.52l-.28.04c.1-.02.21-.04.28-.04Z"/><path d="m438.5,55.23l.37-.06c.95-.51.74-.44-.37.06Z"/><path d="m310.17,2.3c-1.51.28-3.84.48-2.15,1.06.72.25,1.6.48,3.13.56,2.27.13,2.54-.17,2.86-.43-1.17-.38-1.75-.74-.72-1.09.47-.16.36-.34-.98-.41-1.62-.09-1.88.12-2.13.32Z"/><path d="m414.73,9.49c-3.29-.33-2.25.28-2.58.59,1.21.19,2.94.23,3.06.69.06.23,1.21.63,2.29.69,1.11.05,2.16-.09,2.58-.27.69-.29-1.46-.37-2.11-.56-1.28-.36-2.18-.76-3.24-1.14Z"/><path d="m351.58,5.3c1.08.59,2.67.83,4.47.95,1.8.15,3.83.15,5.79.19-2.83-.78-6.06-1.35-10.27-1.14Z"/><path d="m348.53,5.19c.42,0,.85.01,1.27.02.22-.05.35-.12.66-.14,2.38-.13,3.97-.34,1.57-.94-.63-.16-2.37-.39-2.09-.16.67.54-7.1.3-1.41,1.22Z"/><path d="m321.35,4.18l3.55.24c.05-.29,3.03-.59-.11-.85-2.33-.19-3.97.11-3.43.61Z"/><path d="m338.14,4.55l3.91.8c-.08-.26,2.06-.4.26-.73-1.43-.26-2.99-.23-4.18-.07Z"/><path d="m407.07,9.71c-.7-.18-1.12-.33-1.54-.38-.45-.05-.9-.02-1.35,0,.37.1.7.26,1.12.32.43.06.95.04,1.77.06Z"/><path d="m344.72,5.52l3.42.04c.16-.02.33-.04.5-.06l-.14-.22c-1.54,0-3.78-.23-3.78.24Z"/><path d="m318.21,4.07c1,.22,2.01.45,3.06.12l-3.06-.12Z"/><path d="m399.56,10.03c-.34-.09-.52-.07-.7-.06.12.03.25.07.7.06Z"/><path d="m8.1,55.38c1.21.75,2.61,1.58,3.47,1.74.81-.19,4.42,1.98,6.12,2.24.62.12,2.39,1.43,3.41,1.36.62-.04-1.23-.98-2.33-1.64-1.12-.68-2.04-1.1-3.75-1.65-2.15-.68-4.61-1.76-5.98-3.37-.82-.93-2.7-1.97-3.71-2.76-1.73-1.41-.63,0,.28,1.01,1.42,1.57,3.08,2.88,2.48,3.08Z"/><path d="m53.21,67.96c-.13.15.18.42-.96.31-.32.16-3.29-.42-1.9.21.49.22,1.64.59,2.41.74,2.6.48.95-.21,1.56-.29.34-.05.6-.12,1.09-.12.96,0,3.7.44,2.73,0-1.12-.5-3.16-.44-4.93-.87Z"/><path d="m44.29,66.77c-.25-.09-.48-.18-.72-.26h-.74c.31.1.65.22.91.27.23.04.36,0,.55,0Z"/><path d="m7.96,35.4c.35-.23.71-.47,1.07-.67-.35.2-.72.45-1.07.67Z"/><path d="m419.62,11.87c-.24-.09-.3-.18-1.94-.38.21.09.99.23,1.94.38Z"/><path d="m59.95,19.16l-2.48.47c.02.25.66.49-.09.74-1.31.43-2.48.8-1.97,1,.25.1.97-.11,1.25-.24,1.01-.47,4.61-1.09,3.55-1.43-.35-.12-.19-.35-.26-.53Z"/><path d="m67.26,18.42c-.79-.04-.89-.3-2.64-.02-.24.04-.83.29-.75.34.4.25,2.06-.12,3.39-.32Z"/><path d="m95.18,13.61c-.36.05-.72.09-1.08.14.02.15-.18.35,1.23.16l-.15-.3Z"/><path d="m46.91,22.86l-.21.38c1.42-.31,1.17-.44,1.34-.62l-1.13.24Z"/><path d="m52.67,21l.48.16c1.14-.39-.07-.17-.48-.16Z"/><path d="m457.29,27.92c-.84-1.29-.76-1.2-.69-1.3.03-.07.04-.35-1.54-1.92-.3-.27-.57-.52-.83-.76-.27-.21-.53-.41-.76-.59-.46-.37-.89-.63-1.25-.84-.75-.48-1.63-.93-1.96-1.06-.34-.12-.13.08,1.18,1.06,2.02,1.58,2.97,2.5,3.75,3.17.75.69,1.34,1.15,2.11,2.24Z"/><path d="m440.12,17.02c1.71.51,4.22,1.82,4.17,1.55-.02-.08-.61-.52-2.5-1.23-1.86-.6-4.57-1.5-4.71-1.42-.24.05,2.19.75,3.03,1.09Z"/><path d="m442.14,17.18c-1.29-.54-2.07-.91-3.03-1.26-1.2-.48-3.4-1.07-3.51-.99-.07.05.71.35,2.02.73,1.39.46,2.74.92,4.53,1.51Z"/><path d="m425.71,13c-.15-.08-.15-.14-1.41-.38-.4-.08-.62-.06-.93-.09l2.34.47Z"/><path d="m446.52,19.4c-.36-.17-.15-.05.07.07l-.07-.07Z"/><path d="m427.99,13.57l-.54-.13-.54-.13c.36.12.72.21,1.09.26Z"/><path d="m263.44,2.75c-.26-.34-1.54-.45-3.33-.35-2.28.14-1.38.49-1.59.76,2.22.04,2.3-.6,4.92-.41Z"/><path d="m291.89,1.56c.06.32-.65.69,2.37.79-.18-.27.43-.55-1.01-.79h-1.37Z"/><path d="m263.47,2.75l.27.08c-.1-.03-.2-.05-.27-.08Z"/><path d="m111.74,78.28l2.23.28c-.38-.17.79-.32-1-.5-1.02-.1-1.29.06-1.23.22Z"/><path d="m141.93,80.92c2.02.16,4.09.31,4.1-.12-1.51,0-3.19-.05-4.1.12Z"/><path d="m230.24,3.09c2.5-.24,5.07-.68,5.75.2.3.39,3.49.13,5.31.19-1.01-.44-1.81-.9-3.06-1.32-2.69-.87-7.58-.94-11.55.06-.49.12-.74.29-1.35.36-2.26.29-2.39.98-.12,1.16q.95.07,1.47-.4c.25-.22.17-.49,1.88-.57.53-.02,1.12.19,1.68.32Z"/><path d="m211.62,4.25l1.34-.04c2.33-.82-1.37-1.3-1.28-2l-3.7.55c-.32.65,4.6.78,3.64,1.49Z"/><path d="m217.76,1.78c-1.35.05-2.74.06-3.73.31.04.03.01.08.13.09,1.67.15,1.39.85,3.42.64,2.99-.3-.38-.66.18-1.04Z"/><path d="m224.36,2.15c.35-.08.77-.14.73-.18-.11-.11-.39-.2-.6-.3-.16.06-.45.13-.45.19,0,.09.18.18.32.29Z"/><path d="m242.24,1.11c-.82-.04-1.66-.08-1.84.15.78.02,1.87.18,1.84-.15Z"/><path d="m238.73,1.28l-.51.12c.22-.03.44-.06.51-.12Z"/><path d="m26.86,28.88c1.11-.35,2.21-.71,3.33-1.04.78-1.03,6.46-2.48,8.17-3.49-.25-.2.14-.66-2.58.09,1.25.04-.68.75-1.9,1.21-1.49.56-2.29.5-2.91.48-1.14.32-2.29.65-3.43,1-3.09,1.36-4.61,2.16-4.7,2.4-.08.25,1.27-.05,4.02-.63Z"/><path d="m30.96,26.11c.63.02,1.43.09,2.91-.48,1.22-.45,3.15-1.16,1.9-1.21-1.86.51-4.2,1.01-4.81,1.68Z"/><path d="m14.54,32.26c3.47-.53,4.06-1.85,6.11-2.72-2.66.63-4.46,1.62-6.11,2.72Z"/><path d="m7.95,35.42c.37-.24.74-.49,1.11-.7-.47.06-.84.3-1.11.7Z"/><path d="m165.11,7.39c2.42-.19,2.52-.49,2.69-.78-.4-.37.87-.38,2.23-.38.73-.46.15-.91,3.63-1.32.68-.56-3.13-.07-3.69-.33-4.87,1.03-5.19,1.93-4.85,2.82Z"/><path d="m204.36,4.12l1.55-.13c-.88-.15-1.09.04-1.55.13Z"/><path d="m241.76,81.88c-.59.15-.75.3-.91.45,2.49-.05,4.97-.1,7.44-.16,2.23-.06,2.28-.26,2.37-.46-1.33,0-2.96.09-3.75-.1l-5.16.26Z"/><path d="m276.51,80.37c-.05-.14-.19-.3-1.56-.27-.62.01-1.43.18-2.15.27.89.13,2.34.05,3.7,0Z"/><path d="m246.92,81.62c.79.19,2.42.1,3.75.1-.77-.2-2.29-.14-3.75-.1Z"/><path d="m261.73,81.96c0-.08,1.16-.2.06-.25-.12,0-.46.02-.57.03-.71.13-.29.18.51.22Z"/><path d="m116.15,11.89c2.04-.41,4.06.7,6.12-.74.24-.88-4.17.12-6.25.17.05.19.09.38.13.57Z"/><path d="m141.74,8.36l-.5.09c.16-.03.31-.06.5-.09Z"/><path d="m116.02,11.32l-.28-.05c.1.01.2.03.28.05Z"/><path d="m298.6,79.4l2.5-.15.12-.26c-1.75.08-2.6.22-2.63.41Z"/><path d="m156.15,81.53c6.28.68,7.04.15,7.08-.52l-1.31-.81c-4.65-.74-7.35-.14-10.99-.2-.48.59-.2,1.16,5.23,1.52Z"/><path d="m215.84,81.95l.54.02c-.01-.07-.23-.08-.54-.02Z"/><path d="m348.14,5.56l.87.12c-.13-.06-.25-.12-.38-.18-.17.02-.33.04-.5.06Z"/><path d="m203.84,81.73c.43.05.85.1,1.3.15.01,0,.23-.04.35-.06-.54-.03-1.07-.06-1.65-.09Z"/><path d="m133.76,78.53l-2.34-.36c.15.24.24.49,2.34.36Z"/><path d="m240.86,82.33c.16-.15.32-.3.48-.45-1.22.03-2.57.05-2.78.24-.21.2.97.24,2.3.21Z"/><path d="m157.57,7.56c.12-.22.14-.43-1.07-.48.15.19-.38.46,1.07.48Z"/><path d="m151.5,6.96l.26.05c-.09-.02-.18-.04-.26-.05Z"/><path d="m161.24,6.47c-.27-.13-.27-.33-.88-.36-.8-.03-1.53.2-1.27.29.52.18-1.95.83,1.82.52.11-.15.22-.3.32-.45Z"/><path d="m161.24,6.47c-.11.15-.21.3-.32.45,1.87-.25,1.7-.39.32-.45Z"/><path d="m85.05,15.19c-.18-.02-.34-.04-.55-.04-.03,0-.43.09-.45.12-.04.06.03.1.06.15l.94-.22Z"/><path d="m65.21,71.36l.49.04c-.18-.02-.37-.04-.49-.04Z"/><path d="m408.65,8.77l1.93.06-.47-.19c-.52.03-1.03.07-1.46.13Z"/><path d="m95.91,12.99l1.58-.1c-.13-.1-.46-.13-.79-.16l-.79.26Z"/><path d="m170.02,6.22c-1.35,0-2.63.01-2.23.38l2.23-.38Z"/>
                  </g>
                </mask>
              </defs>
              <path class="mask" d="m451.26,15.45C329.91-3.86,178.73-2.1,62,19.97,31.72,25.7.82,34.51,1.92,45.83c.8,8.26,18.97,15.33,39.5,20.25,31.92,7.66,70.88,11.72,110.05,13.93,66.06,3.72,135.38,2.39,198.13-5.25,34.26-4.17,67.31-10.46,88.62-20.08,21.31-9.62,28.71-23.02,11.61-33.48-17.11-10.46-61.84-15.97-93.23-9.89"
                    mask="url(#path-mask)" stroke="black" stroke-width="2" fill="none"
                    stroke-dasharray="1048.798095703125" stroke-dashoffset="1048.798095703125">
              </path>
            </svg>
        