
            <svg xmlns="http://www.w3.org/2000/svg">
              <defs>
                <mask id="path-mask">
                  <g fill="white">
                    <path d="m157.28,51.18c1.21-.81.24-.66.39-1l.96-.4c.86-.2,1.76-.61,2.6-.79.84-.23,1.91-.81,2.79-1.58.91-.73,1.61-1.65,1.92-2.29.7-.57,1.07-1.03,1.21-1.43.99-.73,1.87-2.3,2.77-2.78.38-.03,1.23-.74.93.17-.22.64-.61,1.26-1.44,1.96-.69.56-1.24,1.12-1.4,1.67l-.61.56c-.65.84-2.24,1.06-2.39,2.14-.13.09-.32.22-.48.33-.16.11-.28.19-.28.2-.25,1.02-1.99,1.89-3.44,2.65l-.11-.14c.34-.3.24-.29-.2-.04-.06.05-.13.1-.21.14l-.18-.2c.23-.16.59-.34.52-.44-.01-.02-.21.04-.29.1-.4.25-.23.26-.24.34-.43.32-.89.6-1.33.9-.11.07-.22.14-.34.2.11-.22,1.19-.97.1-.55-1.14.45-1.41.82-1.51,1.16-.09.32-.53.62-1.35.83-.23-.3-1.24.31-2,.61v-.12c.6-.5.05-.27-.56-.04-.91.12-.84.49-1.36.72h-.12s.14,0,.14,0c.03.22.45.36-1.1.87-.96.32-1.75.7-1.46.96l-.94.38-.98-.11c.51-.19.71-.35.71-.49.57-.34.58-.48-.07-.4-.82.27-1.13.25-.91-.05.1-.14.25-.33-.3-.17-.32.09-.98.41-.96.44.29.52-1.89,1.24-2.66,1.81-.15.12-.2.23-.3.34l-.1.2c-1.97.61-4.1.97-5.79,1.85-.43.22-1.1.23-1.57.26-.85.05-1.39.22-1.79.54-1.31.21-2.62.38-3.93.56l-.1-.17c-.16-.23-.8-.23-1.59-.06-.61.13-.37.29-.39.43-2.14.49-4.3.93-6.58,1.32l.1.04c-.02.08.17.15-.26.23-.11.12-.14.26-.7.32.14-.42-.96-.38-1.86-.33-1.93.09-4.17.1-5.83.51-1.14.29-1.93.37-3.06.46-.69.05-.28.31-.32.47-2.2.2-4.4.37-6.61.51v-.32c.42-.2.3-.37.08-.57-.39-.34.16-.52,1.34-.58l1.03-.22c.62-.06,1.37-.04,1.62-.33h-1.14c-.15-.15-.83-.28.02-.47.46.15.93.14,1.38-.09l1.63-.12c.71.48,2.06.71,3.55.89.99-.44,2.47-.82,2.62-1.36,1.43-.09,2.87-.14,4.29-.48.06.16-.08.39.22.47.39.11-1.07.56.29.4.94-.11.73-.33.6-.52-.06-.08-.11-.4.55-.18,1.2.39.85-.33,1.83-.38.16.06.28.18.48.16.56-.05.53-.21.67-.34,1.82-.24,3.54-.78,5.51-.88,1.02-.06,1.47-.6,1.71-.93,2.94-.57,5.86-1.22,8.76-1.97.02.09-.05.21.07.26.33.15-.96.93.55.54,1.33-.36.08-.42.22-.68.04-.07.47-.22.72-.34,2.35-.98,4.97-1.72,7.44-2.61.73-.24,1.74-1.03,2.47-.85.4.06,1.69-.24,3.04-.67,1.35-.43,2.74-1.03,3.35-1.44Zm-8.2,2.99l-.23.21c.13-.03.28-.05.37-.1.09-.04.11-.11.17-.16-.11.02-.21.03-.32.05Zm-14.22,4.61c-.06,0-.14.02-.2.03.02.06.1.04.2-.03Z"/><path d="m153.98,4.42c3.39.28,6.63,1.18,9.95,1.73.24,1.07,2.57.9,3.93,1.47.19.38.04.71,1.59.91.94.13,2.17.72,3.24,1.25.4.28-.2.33-.46.47-.27.15-.2.29,1.41.92.41.28,1.08.57.92.91-.07.17.19.61.56.83.4.21.84.32,1.09.28.41-.05-.35-.53-.52-.76-.32-.47-.5-.89-.77-1.33.39-.06,1.34.82,1.52.49.14.47.85,1,1.46,1.59.58.59,1.01,1.19.69,1.41-.16.11-.5,0-.86-.12-.39-.11-.8-.24-1.12-.23-.63,0-2.13-1.16-3.41-2.01-.56-.4-1.07-.85-1.69-1.19-.59-.31-1.24-.94-1.82-.84-.6.1,1.16.67.7.89-1.08-.17-2.12-.44-3.23-1,.09-.59-.12-1.17-2.07-1.06-1.41.11-3.11-.98-4.56-.6l-.53-.07-.97-.35c-1.57-.9-3.36-1.33-5.41-1.05-1.09-.64-2.38-1.07-4.13-.95l-.72-.09c.09-.04.16-.1.28-.11.99-.09,1.66-.25.73-.79-.24-.14-.94-.35-.84-.15.23.47-2.95.2-.71,1.11-.63-.02-1.53-.23-1.57.18l-1.08-.16c-.01-.22.88-.33.17-.62-.56-.24-1.21-.2-1.71-.06l-.68-.1c-1.4-.22-1.44-.64-1.59-1.05-.09-.24-.4-.45-1.07-.53-.25-.03-.65.02-.74.09-.25.21.29.32.71.46,1.51.51-1.32.59-.02,1.08-.38.34-1.24.21-2.05.13l.02-.26c.04-.25,1.29-.47.02-.74-.94-.2-1.63.04-1.49.49-.41-.05-.83-.1-1.24-.13l-1.68-.53c-.45-.34-.66-.66-.22-.96.2-.14.17-.29-.37-.37-.66-.09-.78.1-.9.27l-.91-.27.03-.58c1.57.19,3.37.11,4.35.94.37.31.97.23,1.09-.05.09-.2-.01-.45.67-.49,2.78-.19,5.6.05,8.43.78,1.65.97,5.29,1.42,7.59.93Zm17.23,5.51c-.17-.08-.37-.08-.55-.11.12.11.21.25.36.33.16.08.37.1.7.19-.23-.19-.36-.34-.51-.41Z"/><path d="m2.81,35.12c.11.29.19.55.23.78.06.23.11.44.12.63.05.39-.01.75-.01,1.12,0,.36-.48.36.15,1.24.54.68.72.33.87.06.15-.26.33-.46.52-.69l.81,1.2.9,1.15c-.21.18-.74.15.18,1.17.69.77.93,1.2.62,1.44-.24.07-1.13-.8-.94-.14.07.23.32.68.56.91.81.75.53-.01.84.02.17.01.32,0,.53.07.39.15,1.28.83,1.13.37-.18-.51-1.04-.76-1.52-1.32l.38-.37c2.08,1.92,4.16,3.75,6.27,5.6-.7.2-1.35.58-2.98-1.27-.27-.31-.79-.68-1.06-.61-.28.07.05.45.47.82-.04.34-.08.69-.19,1.02l-.74-.38.37.6c-1.78-.92-3.17-2.25-4.07-3.84-.07-.59-.38-1.48-1.22-1.96-.42-.22-.8-.6-1.15-1.06-.37-.44-.68-.97-.97-1.49-.32-.5-.57-1.02-.86-1.45-.3-.41-.6-.76-.96-.96-.09-.46-.26-.89-.36-1.36-.1-.47-.22-.93-.34-1.4l-.21-1.45c-.08-.48-.02-.98-.02-1.47.33.05.49-.29.63-.77.13-.48.22-1.12.28-1.72.11-1.07.42-1.65.9-2.28.2.24.02.73-.17,1.27-.19.54-.37,1.16-.27,1.54.07.27-.65,1.1-.26,1.55.23.26.51-.59.81-1.06.3-.48.42-.85.47-1.6.04-.95.4-2.06,1.33-2.44.55-.23.82-1.08,1.05-1.57.4-.85-.19-.39-.65-.04-.72.53-1.4,1.15-1.71.77.05-.2.11-.39.17-.59,1.15-.46,2.12-2.1,3.37-3.15.24-.21.58-.61.87-.85.31-.23.58-.3.64.1.03.2,1.33-1.23,1.29-1.39-.13-.37.31-.66.89-1.05l.42-.3c.74-.63,1.59-1.46,1.62-.62-.19.61-.18.58.57.27.33-.14.8-.26.91-.2.42.21-.86.8-.9,1.16-1.18.79-2.14,1.95-3.49,2.15-.35.06-.89.82-.8.83.33.02-.97,1.41.2.71.08.17,0,.3-.41.64-1.36,1.12-2.77,2.34-3.37,4.02-.65-.24-1,.24-1.2.91-.2.67-.19,1.49-.36,2.02-.14.64-.11,1.23.02,1.79.05.28.1.57.12.86.06.29.11.6.12.93-.2-.13-.47-.43-.61-.42-.07,0-.11.1-.1.33.02.23.05.62.29,1.18Zm1.97,5.44l-.31-.14c.06.12.12.26.19.34.06.07.15.07.23.1-.04-.11-.07-.21-.11-.3Z"/><path d="m169.89,11.64c-1.39-1.22-2.93-2.86-4.45-3.67-.96-1.2-3.03-2.24-4.49-3.23-.42-.28-.6-.36-.93-.5-1.03-.42-1.57.03-.57.69,1.05.7,1.31,1.03,1.48,1.36.18.34.58.83,1.74,1.23.13.05.55.3.71.43,1.58,1.29,3.19,2.42,4.63,3.83,1.64,1.62,3.14,3.38,4.36,5.33,1.21,1.95,2.1,4.08,2.54,6.31l.21-.05c-.08-.38-.13-.69-.06-.8-.18-.67-.53-1.42-.69-1.96-.23-.64-.62-1.31-.91-1.97-.36-.63-.67-1.24-.82-1.79-.13-.3-.71-1.55-1.55-2.68-.8-1.16-1.77-2.24-2.16-2.54-.13-.1-.28-.18-.29-.15-.03.36-.56-.38-.83-.69-.32-.38-.48-.66-.74-1.01-.15-.21-.79-.63-.67-.66.07-.01.46.2.92.59.99.77,2.18,2.08,2.57,1.94Z"/><path d="m41.13,6.54c-1.18.39-2.63.64-3.31,1.31.36-.03.84,0,1.07-.09.89-.36,1.73-.76,2.51-.45.64.25-.1.63-.6,1.02-.9.68-1.71.65-2.59.54-.55-.07-1.42.06-1.79.31-1.27.89-2.02.55-2.92.52-.54.13-1.19.38-1.41.13-.04-.05.16-.25.26-.28.71-.18.8.07,1.15.15l1.26-1.32c-1.19-.49-2.36.35-3.53.84.1.25.09.48-.77.79.07.17.04.38.21.5.52.38-.93.73-1.28,1.09-.1.1-.37.24-.5.14-.26-.22.18-.47.67-.79.28-.18-.05-.44-.1-.67-.4.38-1.88.41-1.86.96.19,0,.68-.11.26.17l-.24-.18c-.72.11-.45-.48-1.3-.19-.3.1-.43.53-.63.82.06.15,0,.31-.38.53.04.05.08.09.13.14l.45-.14c.84.03,3.26-.41.18.85-.2.09-.22.33-.33.51,1.34-.48,2.69-1.19,4.09-1.03.17.02,1.87-.97,3.11-1.33.28-.31.69-.47,1.43-.69,2.17-.66,4.57-.75,6.55-1.76.97.36,2.35-.6,3.32-.48.94.12,1.67.07,2.7-.43,1.41-.67,2.11-.51,2.26.06l2.44-.51c-.18-.34.46-.69.9-1.04-1.21-.27-2.47-.52-.15-1.4.3-.11.07-.23-.25-.25-.9.54-2.41.27-3.17.75-1.74,1.08-1.5.29-1.82,0l-.52.11c0,.22-.27.39-.86.52-.02.28-.4.45-.97.59l.1.29c-.58.09-.52-.08-.54-.22-1.18-.05-2.88.24-3.2-.37Z"/><path d="m172.68,38.43c.35-.56.53-1,.6-1.36.15-.76.37-1.62-.51-.58-1.41,1.58-.95,1.97-1.48,2.94-.44.51-.9,1-1.37,1.48-.9.48-1.78,2.05-2.77,2.78l-.23-.2c.41-.4.78-.88,1.14-1.33.34-.47.67-.89,1.04-1.13.94-.64,1.56-1.6,2.21-2.68,1.28-2.13,2.35-4.37,3.03-6.72.7-2.35.92-4.81.73-7.26.11-.1.23-.12.36.5.02.32.06.64.07.96l-.1.5c-.05.15-.06.3,0,.45.02.79-.05,1.4-.05,1.87-.04.46-.05.78-.03.96.04.37.22.21.55-.36.02-.04.04-.04.06-.06.05-.72.04-1.31.14-1.83.06-.52.11-.98.19-1.44.11-.92.17-1.87-.25-3.26-.13-.59-.39-1.23-.54-1.8-.14-.57-.23-1.05-.15-1.26.32.72.83,1.51.78,1.8-.08.55.17,1.34.37,2.14.62,2.86.36,5.8-.4,8.67-1.08,4.16-3.65,7.79-6.35,11.04-.54.66-1.44,1.7-1.74,1.48.16-.55.71-1.11,1.4-1.67.83-.7,1.22-1.32,1.44-1.96.74-.78,1.49-1.61,1.84-2.65Zm1.61-4.9c.12.03.43-.17.64-.98.08-.39.17-.88.22-1.28.03-.4.02-.71-.04-.75-.24-.14-.2.91-.39,1.25-.15.71-.8,1.68-.43,1.76Zm1.7-1.97c.12-.53.34-1.48.13-1.55-.1-.04-.28.28-.4.83-.11.6-.23,1.18-.4,1.96.29-.52.54-.83.67-1.24Zm-1.77,2.7l-.13.27.06-.02c.09-.21.08-.23.07-.26Z"/><path d="m126.81,1.3c-1.27.07-2.25-.04-3.65-.33-2.04-.44-4.63-.35-6.97-.4-1.17-.02-2.42-.33-3.53-.05l-.03.54c.25.25.9.68.1.73-2.35.21-2.07,1.19-3.69,1.58.86,0,1.62-.08,2.3-.25.09,0,.16-.02.22-.04.1-.24-.26-.58.68-.67.74-.08,1.25.07,1.35.38l.12.08-.11-.08c-1.07-.23-1.13.37-2.02.3-.06.03-.08.06-.07.09,1,.59,2.27.09,3.39.23,1.45-.5,2.96-.4,4.46.15.45.17.73.37,1.26.08.81-.46,1.94-.2,3.03.05,1.59-.29.91-.84.56-1.35-.09-.13-.41-.33.15-.38.48-.04.75.12.93.27l.56.03c-.26-.43,1.25-.52.97-.96Z"/><path d="m31.06,58.18c.88.58,1.84,1.07,3.24,1.19,1.81-.06,3.59.3,5.41,1.12.41-.14,1.1-.05,1.72,0l.98.34c-.09-.18-.21-.52-.26-.53-1.87-.28-2.97-1.17-4.74-1.53-1.29-.26-2.45-.6-2.66-1.23,0-.02-.13-.06-.2-.09-.25,0-.51-.01-.77-.02.05.66-1.22.26-2.18-.08-3.15-1.1-6.46-1.86-9.46-3.49-1.79-1.02-1.94-.91-.78-1.14.35-.07.62-.2.92-.3-1.81-.63-3.58-1.95-5.24-2.12.28.23.53.49.86.68.53.32,1.48.39,1.54.86.02.2-.98.03-1.6-.12-.34-.07-.87-.4-1.3-.65-.36-.2-.74-.44-1-.41-.34.04-.03.37.3.67.51.47.46.93,1.42,1.41.99,1,2.27,1.82,3.96,2.36,2.07.3,4.23,1.13,6.45,1.91.02-.15.17-.29.57-.16.7.24.18.33.29.5,1.1-.18,2.24-.5,2.51.83Z"/><path d="m175.51,25.82l-.1.5v.22s0,.22,0,.22c.02.79-.05,1.4-.05,1.87-.04.46-.05.78-.03.96.04.37.22.21.55-.36.02-.04.04-.04.06-.06.05-.72.04-1.31.14-1.83.06-.52.11-.98.19-1.44.11-.92.17-1.87-.25-3.26-.13-.59-.39-1.23-.54-1.8-.14-.57-.23-1.05-.15-1.26-.25-.37-.51-.92-.77-1.44-.3-.5-.6-.96-.86-1.19.24.81-.4.24-.6-.13-.65-1.06-.05-.54-.03-.77,0-.05.05-.03.08-.05-.17-.47-.52-1.03-.95-1.54-.44-.51-.87-1.04-1.16-1.5-.52-.44-.9-.88-1.16-1.33-.39.14-1.58-1.17-2.57-1.94-.46-.39-.85-.6-.92-.59-.12.03.53.45.67.66.27.35.42.63.74,1.01.27.32.8,1.06.83.69,0-.04.16.04.29.15.39.3,1.36,1.38,2.16,2.54.84,1.13,1.42,2.38,1.55,2.68.14.55.45,1.16.82,1.79.29.66.68,1.33.91,1.97.16.54.51,1.3.69,1.96.22.64.12.69.06.8l-.21.05c.05.32.12.63.16.95.11-.1.23-.12.36.5.06.12.16.2.18.36.07.52-.03.53-.1.6Z"/><path d="m104.56,3.14l-.03-.22c-.4-.43-.72-.87-1.22-1.28-1.08-.87-3.09-1.01-4.73-.25-.2.09-.31.24-.56.29-.93.19-.99.82-.06,1.06q.39.1.6-.31c.1-.19.07-.45.78-.46.22,0,.45.22.68.34,1.32.16,1.23.61,1.53.98-1.51.21-3.04.21-4.6.08.64-.6-.89-.72-1.62-1.02l-.78.37-1.58.22s-.03-.1-.02-.15c.95-.69-.56-1.23-.53-1.87l.96-.05s0,.07.05.08c.69.18.57.81,1.4.7,1.23-.17-.15-.62.08-.95l.57-.42c2.34.04,4.73-.16,7.01.19h.99s.04.38.04.38l-.21.1.28-.07h.62c.32.03.76.2.76-.1l1.01-.18-.14.06-.15-.06c.68.42,2.4.42,2.87,1.12.22.33,2.4-.22,3.59-.46.2-.04.33-.12.48-.19.25.25.9.68.1.73-2.35.21-2.07,1.19-3.69,1.58-1.56.2-3.05.11-4.49-.23Zm-6.63-2.03c-.05-.1-.16-.2-.24-.3-.07.05-.19.11-.19.16,0,.08.07.17.13.28.15-.06.32-.11.3-.14Z"/><path d="m30.45,9.99c.86-.3.88-.54.77-.79l-.84.18-.62.21c-1.61.34-3.18.66-4.76,1.45-.64.34-1.61.67-2.48.8-.95.13-2.62.75-2.87.93-2.72,1.79-5.62,2.79-8.48,4.14-1.05.5-1.51,1.13-2.28,1.69-1.98,1.41-3.87,3.05-5.44,5-1.59,1.96-2.88,4.34-3.33,7.02-.04.29-.1.58-.12.84,0,.26.03.5.14.67.33.05.49-.29.63-.77.13-.48.22-1.12.28-1.72.11-1.07.42-1.65.9-2.28-.07-.43.31-1.05.61-1.58.05-.2.11-.39.17-.59,1.15-.46,2.12-2.1,3.37-3.15.24-.21.58-.61.87-.85.31-.23.58-.3.64.1.03.2,1.33-1.23,1.29-1.39-.13-.37.31-.66.89-1.05.04-.24.2-.34.44-.3.72-.63,1.57-1.46,1.61-.62.22-.13.44-.27.67-.39.57-.62,1.18-1.27,2.34-1.46.63-.79,1.22-1.73,2.69-1.36.46-.19.9-.39,1.36-.56.12-.53,1.1-.76,1.83-1.08,1.08-.44,1-.07,1.16.13,1.02-1.08,2.37-1.35,3.78-1.36.2-.29.33-.72.63-.82.85-.29.58.3,1.3.19-.03-.54,1.44-.57,1.85-.95l1-.28Z"/><path d="m83.81.87c-.73-.29-1.54-.43-2.58-.02.63.26,1.24.55.55.95-.54.31-1-.15-1.6.02-.84-.54-1.27-.15-1.77.21-.57.41-1.15.55-1.6.08-1.42.24-1.16.69-1.37,1.07.26.39,1.41.43,2,.7.97.29,2.23.3,3.41.04.89-.2,1.66-.25,2.53-.21.87-.28-.08-.9,1.44-1,1.13-.06.97.38,1.16.66l1-.09c-.08-.27-.23-.53-.23-.8,0-.18.46-.26.9-.28.38-.01.67.08.45.21-.31.2-1.19.42-.25.57.24.04,1.04-.34,1.59-.51.17-.07.26-.24.62-.08l-.63.08c.41.74,1.66.56,2.97.32.39-.63-1.63-.88-1.5-1.47-2.17.4-2.16-.09-2.01-.65-.87.14-1.61-.22-2.51,0,.16.64-.78,1.22-2.29,1.23-2.09.02.64-.61-.09-.87-.1-.04-.12-.1-.18-.16Z"/><path d="m85.8,64.75h.82s1.59-.16,1.59-.16l.59-.03s-.03-.09-.05-.14c-.35-.06-.52-.13-.22-.25.04-.02.19-.03.23-.02.45.09-.02.18-.03.27.83.02,1.44-.07,1.83-.32,1.22-.8,3.17-.19,3.14,0-.11.59,1.21.52,2.16.65,1.19-.24,2.38-.48,3.59-.73.53-.1,1.56-.09,1.25-.39-.25-.24-1.36,0-1.64-.07-.88-.22-2.2.59-2.71-.05-.66-.03-1.45,0-1.56-.3-.56.01-1.15.06-1.52-.12-1.23-.03-2.46-.04-3.67-.11-2.4-.13-4.49.51-6.91.23v.37c.59,0,1.21-.02,1.52.21-.04.21-.06.42-.98.42l.42.49,2.15.04Z"/><path d="m52.11,4.87c.32.02.55.14.25.25-2.31.88-1.05,1.13.15,1.4l.91-.2-.11-.53-.13-.05.12.06c.87.04,2.62-.67,2.61.13,1.38-.3,2.74.19,4.21-.57.21-.11,1.21-.04,1.3.25l1.48-.14c.57-.54,2.41-.96,1.96-1.59-.02-.03.31-.13.47-.2,1.23.93,1.52-.47,2.4-.39-.01-.06-.02-.12-.03-.18-2.65-.66-3.14.33-3.94,1.07l-.19.07.2-.07c-.52-.01-1.46.04-1.49-.05-.44-1.31-2.17-.2-3.64.11-1.54.32-3.28.87-4.75.52-.7-.04-.68-.52-1.85-.27l.04.38Z"/><path d="m132.73,3.16l-.91-.27c-2.26-.33-2.18-.91-1.89-1.52-.73-.29-.72.07-1.09.1.6.9-.57,1.53-2.64,1.49.44.47.44.91-.1,1.31.49.48.94.2,1.41.08-.29-.12-.36-.27.05-.26.56,0,.45.21.49.35,1.14.73,2.93.47,4.21.56,2.09.15,4.32.64,6.34.4l.02-.26-1.43-.26c-.49.28-.88.06-1.28-.13l-1.68-.53c-.15.23-.28.49-1.2.37-.62-.08-.96-.29-1.24-.51-.66-.52.32-.68.96-.92Z"/><path d="m96.35,63.52c.51.64,1.83-.17,2.71.05.28.07,1.39-.17,1.64.07.31.3-.72.29-1.25.39-1.21.24-2.39.48-3.59.73l.45.27h.59c1.61-.54,3.69-.35,5.51-.59.43-.2.31-.37.08-.57-.39-.34.16-.52,1.34-.58v-.16c.02-.22.36-.34,1.08-.35.15-.01.29-.03.43-.05-.15-.14-.83-.26.02-.45l-.05-.16c-2.87.1-5.73.04-8.6.39.47.34,1.34.68-.35,1.02Z"/><path d="m54.93,63.08c.6.06.45.74,1.58.36.84-.29,1.53.35,2.34.29.3-.63,1.35-.37,2.46-.02.94.3,1.74.28,2.48.12.77-.16,1.12-.4.36-.76-1.06-.12-2.01-.46-3.16-.43-3.58.04-3.98-.02-6.73-.91-.07-.02-.2-.06-.22-.05-1.53.44-3.58-.79-5.13-.48.09.32.05.65,1.03.95.07-.21.31-.2.98-.07,1.42.3,2.75.6,4.01,1Z"/><path d="m96.35,63.52c1.69-.34.82-.68.35-1.02-1.12-.15-1.88-.44-3.47.05-1.15.36-3.46.03-5.3.06-2.48.04-5.09.14-7.59-.16-1.1-.13-1.82-.12-1.72.33.1.45.99.46,1.99.41l2.07.03c2.43.28,4.51-.35,6.92-.22,1.21.07,2.45.08,3.67.11.29-.08.62-.23.88-.23.56.01.62.19.64.35.11.3.89.27,1.56.3Z"/><path d="m63.78,4.17c.8-.74,1.29-1.73,3.94-1.07l2-.49c.52-.2,1.07-.4.89-.67-1.01-.36-2.21.14-3.25.28-3.97.54-7.97.86-11.9,1.81-1.05.25-1.17.45-1.54.73,1.46.34,3.21-.2,4.75-.52,1.47-.31,3.2-1.42,3.64-.11.03.09.97.04,1.47.05Z"/><path d="m22.3,52.41c-.3.1-.57.23-.92.3-1.17.23-1.01.13.78,1.14,3,1.63,6.31,2.4,9.46,3.49.96.34,2.23.74,2.18.08-1.65-1.12-3.62-1.64-5.87-2.02-1.45-.27-2.45-.78-1.95-1.34-1.47-.24-2.41-1.15-3.68-1.65Z"/><path d="m48.91,61.19c1.55-.31,3.6.91,5.13.48.02,0,.15.03.22.05,2.75.9,3.15.95,6.73.91,1.15-.03,2.1.31,3.16.43-.4-.58-.84-1.17-2.55-1.6l-1.31.2c-.51.3-1.23.19-2.24.01-1.23-.23-2.74-.36-3.81-.56-2.15-.38-4.17-.1-6.16-.81l.43.8c.14.02.27.05.4.09Z"/><path d="m74.48,62.89c-.68.48-1.24.94,1.39,1.13.85.05.3.25.23.38-1.31.26-2.74,0-3.65-.27-2.31-.7-2.87-.26-3.42.3h-.48c-1.53-.4-4.04-.77-1.57-1.44.45-.12.46-.41.67-.63,1.32.09,2.65.18,3.97.27.85.07,1.5.09,1.6-.24l1.47.12c-.06.13-.05.27-.2.38Zm-4.25.22c-.05-.02-.14-.02-.27.02.07.01.15.02.27-.02Z"/><path d="m176.44,11.59c.14.47.85,1,1.46,1.59.58.59,1.01,1.19.69,1.41-.16.11-.5,0-.86-.12-.39-.11-.8-.24-1.12-.23-.63,0-2.13-1.16-3.41-2.01-.56-.4-1.07-.85-1.69-1.19-.59-.31-1.24-.94-1.82-.84-.6.1,1.16.67.7.89.9.74,1.99,1.29,3.04,1.95,1.03.65,2.07,1.45,2.5,2.4.28.6.59.16.99.55.51.33-.73-1.85.63-.3.44.12.97.57,1.44.96.46.39.87.71,1.17.43-.13-.49-.39-1.1-.47-1.43-.07-.43.08-.76.01-1.17-.03-.21-.12-.43-.35-.67-.21-.25-.56-.51-1.08-.76-.01,0-.09-.19-.23-.41-.14-.22-.31-.51-.47-.68-.91-1.04-2.04-1.74-3.15-2.05-.07.81,1.56,1,2.01,1.68Z"/><path d="m178.3,18.27c.15.52.15.92,0,1.2-.34.75-.52,1.76-.5,2.65.06.81-.05,1.72.27,2.13.3.37.7.36,1.25-.15.5-.52,1.13-1.65,1.1-3.27,0-.77.18-1.77.06-2.69-.69-.83-.99-.27-1.04.7-.08.99.15,1.78.41,2.53.13.27,0,1.53-.34,1.3-.29-.17-.77.31-.93-.17-.1-.28-.3-.45-.23-1.08.05-.65.2-.95.46-1.04.12-.05.24-.1.29-.25.06-.15.11-.4,0-.82-.18-.82-.5-1.16-.81-1.06Z"/><path d="m48.08,60.31c2,.71,4.01.43,6.16.81,1.07.2,2.58.33,3.81.56,1.01.17,1.73.29,2.24-.01-1.65-1.03-4.3-.87-6.44-1.22-3.18-.51-6.51-.67-9.49-1.8l-.3.17c.41.35,1.96.96-.52.59-.81-.12-1.33.07.04.45,1.49.16,2.68-.34,4.49.45Z"/><path d="m49.18,8.07c-.14-.57-.84-.73-2.26-.06-1.04.5-1.76.54-2.7.43-.96-.12-2.35.84-3.32.48-1.99,1.01-4.39,1.11-6.55,1.76-.74.23-1.15.39-1.43.69,2.13-.08,4.3-.59,6.63-1.24,1.49-.4,3.01-.79,4.69-.92,1.47-.12,3.27-.76,4.93-1.14Z"/><path d="m146.66,6.17l-1.08-.16-1.54-.69-.68-.1-2.27.14c1.2,1.1,3.85,1.04,5.71,1.36,3.7.59,7.49.8,11.22,1.34l1.02-.03c-1.57-.9-3.36-1.33-5.41-1.05-1.62-.03-3.34.07-4.13-.95l-.72-.09-.52-.03c-.01.13,0,.2.01.26l.14.16-.35-.11-1.4-.06Z"/><path d="m114.54,61.6c1.43-.09,2.87-.14,4.29-.48,1.14-.15,2.23-.27,3.1-.14.76-.12,1.15-.18,1.53-.24,1.82-.24,3.54-.78,5.51-.88,1.02-.06,1.47-.6,1.71-.93-5.44.93-10.9,1.65-16.37,2.43l.23.25Z"/><path d="m76.1,64.4c-1.31.26-2.74,0-3.65-.27-2.31-.7-2.87-.26-3.42.3,3.85.44,7.73.92,11.62.54.94-.09,1.52.27,2.28.23,1.05-.05,2.67.17,2.87-.44l-2.15-.04-3.52-.21-4.03-.1Z"/><path d="m151.75,54.05c.03.22.45.36-1.1.87-.96.32-1.75.7-1.46.96,4-1.22,8.01-2.73,11.62-5.29l-.11-.14-.2-.04c-.06.05-.13.1-.21.14-.58.45-1.19.86-1.51.71-.11.07-.22.14-.34.2-.46.22-.94.41-1.41.61-.09.32-.53.62-1.35.82-.83.34-1.55,1.04-2.42,1.12-.28.03.04-.26.41-.5v-.12s-.56-.04-.56-.04c-.91.12-.84.49-1.35.71Z"/><path d="m68.55,64.42c-1.53-.4-4.04-.77-1.57-1.43.45-.12.46-.41.67-.63-.73-.1-.47-.27-.5-.42l-.98-.04c.27.38-1.01.42-1.07.73l.65.13c-.05.02-.15.05-.15.05-.18-.06-.35-.12-.52-.18-.85-.3-.29-.57-.45-.86-.95-.49-1.95-.67-3.03-.32,1.7.44,2.15,1.02,2.55,1.6.76.36.41.6-.36.76-.74.15-1.54.18-2.48-.12-1.1-.35-2.16-.61-2.46.02,2.53.39,5.16.33,7.65.83.98.19,1.52.04,2.05-.14Z"/><path d="m43.59,59.86c-1.37-.38-.85-.57-.04-.45,2.48.37.92-.24.52-.59-.48.24-1.2-.16-1.8-.23.02.23-.49.44-.83.27-1.69-.81-3.1-.43-4.65-.86-.89.06-.88-.18-.89-.41-.76-.49-1.03-.29-1.33-.14.07.03.2.07.2.09.2.63,1.36.96,2.66,1.23,1.77.36,2.87,1.26,4.74,1.53.05,0,.17.34.26.53l1.88.7,1,.38.21-.45c-2.19-.48-2.21-1.05-1.92-1.59Z"/><path d="m17.27,52.73c-.95-.48-.91-.93-1.42-1.41-.32-.3-.63-.63-.3-.67.26-.04.64.2,1,.41.43.25.96.58,1.3.65.63.15,1.63.33,1.6.12-.07-.46-1.02-.54-1.54-.86-.32-.19-.58-.44-.86-.68-.25-.49-.77-.45-1.15-.69-.69-.29-1.48-.56-1.47-.18.04,1.47-1.92.16-3.69-1.07.05.37,1.02.94.89,1.26.78.44,1.43.96,2.13,1.49.7.55,1.42,1.08,2.23,1.52,1.16.61,1.04.23,1.28.1Z"/><path d="m36.78,58c1.54.43,2.95.04,4.65.86.34.17.85-.04.83-.27-3.11-.71-6.19-1.4-9.28-2.17-1.55-.38-3.12-.98-4.57-1.59-.87-.39-1.63-.56-2.44-.77-.51.56.5,1.07,1.95,1.34,2.25.39,4.22.9,5.87,2.02.26,0,.51.01.77.02.3-.15.57-.35,1.33.14l.89.41Z"/><path d="m76.1,64.4l4.03.1.05-.33c-.55-.02-1.03-.09-.94-.3.09-.2.65-.19,1.15-.17.19-.16.21-.33.23-.5-1,.05-1.89.04-1.99-.41-1.27-.25-2.59-.29-3.94-.27-.06.13-.05.27-.2.38-.68.48-1.24.94,1.39,1.13.85.05.3.25.23.38Z"/><path d="m69.72,2.62l-2,.49.02.19.12.06-.11-.06c-.88-.07-1.17,1.33-2.4.39-.17.07-.5.17-.47.2.45.63-1.39,1.05-1.96,1.59.14.19.58.1.98.05.48-.37,1.34-.39,2.08-.51.56.04.81-.75,1.17-.27.38.51,1.24.04,1.77.11.83-.48,1.25-.31,1.59-.01.53.01,1.19.31,1.46-.23l.19-.32c-.63-.06-.96-.33-1.82-.22-.6-.06-.4-.29-.48-.47-2.72,0,.28-.7-.12-.98Z"/><path d="m158.63,49.78c.86-.2,1.76-.61,2.6-.79.84-.23,1.91-.81,2.79-1.58.91-.73,1.61-1.65,1.92-2.29-.95.79-1.99,1.68-1.61.76-1.91,1.37-3.92,2.53-5.7,3.91Z"/><path d="m69.84,3.6c-2.71,0,.28-.7-.12-.98.52-.2,1.07-.4.89-.67,1.54-.24,3.07-.92,4.55-.38.07.03.1.07.08.11-1.96.8-2.02,1.62-1.82,2.45l-1.28.16c-.63-.06-.96-.33-1.82-.22.03-.2.03-.39-.48-.47Zm1.53-.79c-.33-.05-.62.14-.51.23.23.18-.75.71.79.53.76-.18.68-.31.1-.41-.12-.12-.13-.32-.39-.36Z"/><path d="m34.75,8.37c.46-.11.93.14,1.38-.29,1-.94,1.25-.39,1.69-.23.36-.03.84,0,1.07-.09.89-.36,1.73-.76,2.51-.45.64.25-.1.63-.6,1.02-.9.68-1.71.65-2.59.54-.55-.07-1.42.06-1.79.31-1.27.89-2.02.55-2.92.52l1.26-1.32Zm5.68-.65s-.17.06-.17.08c-.01.05.03.09.05.14l.37-.16c-.08-.02-.15-.05-.24-.06Z"/><path d="m142.69,57.82c-1.97.61-4.1.97-5.79,1.85-.43.22-1.1.23-1.57.26-.85.05-1.39.22-1.79.54,1.8.09,3.82-.59,5.71-1.18,2.44-.77,4.9-.96,7.26-2.09.34-.16.78-.3.9-.48-.6-.11-1.46.08-2.38.59-1.11.59-1.72.59-2.34.52Z"/><path d="m178.3,18.27c.31-.11.63.24.81,1.06.1.42.05.67,0,.82-.05.15-.17.2-.29.25-.26.09-.41.39-.46,1.04-.07.62.13.8.23,1.08.16.47.64,0,.93.17.35.23.47-1.03.34-1.3-.25-.75-.49-1.54-.41-2.53.05-.97.35-1.53,1.04-.7.04-.39-.03-.77-.31-1.06-.3.28-.71-.04-1.17-.43-.47-.39-1-.83-1.44-.96.14.51.2.97-.04,1.14.3.46.56.94.78,1.44Z"/><path d="m25.67,11.85c-1.41,0-2.76.27-3.78,1.36-.54.77-2.81,1.58-2.93,2.39l.41.5c.87-.15,1.58-.48,2.14-1,.06-.15-.3-.18.17-.43l.27.26c.15-.02.3-.06.45-.14,1.87-.82,1.14-1.63,2.88-2.41.38-.21.44-.38.38-.53Z"/><path d="m96.31,65.03l-.45-.27c-.96-.13-2.27-.06-2.16-.65.03-.19-1.92-.8-3.14,0-.38.25-1,.34-1.83.32.04.04.05.09.07.13l-.04.49c2.49.19,4.96.49,7.54-.02Z"/><path d="m120.09,63.13c.14-.42-.96-.38-1.86-.33-1.93.09-4.17.1-5.83.51-1.14.29-1.93.37-3.06.46-.69.05-.28.31-.32.47,2.43-.1,4.81-.13,7.32-.7,1.09-.24,2.49-.27,3.75-.42Z"/><path d="m53.43,6.32l-.91.2c-.45.34-1.08.7-.9,1.04,2.51-.18,5.09-1.09,7.68-.93,1.04.06,1.25-.71,2.14-1.02-.09-.29-1.09-.36-1.3-.25-1.47.77-2.83.28-4.21.57-.72,1.23-1.68.11-2.49.4Z"/><path d="m12.5,17.54c-.23.12-.45.26-.67.39-.19.6-.18.58.57.27.33-.14.8-.26.91-.2.42.21-.86.8-.9,1.16.36-.07.72-.16,1.09-.21l1.48-.68c.88-.7,1.76-1.42,2.69-2.07-1.16.2-1.73.33-1.76.11-.02-.2.5-.72,1.62-1.59-1.47-.37-2.06.57-2.69,1.36-.8.47-.68,1.58-2.34,1.46Z"/><path d="m10.75,48.36c1.78,1.23,3.73,2.54,3.69,1.07,0-.37.78-.1,1.47.18.14-.65-.99-.78-1.47-1.23-.7.2-1.35.58-2.98-1.27-.27-.31-.79-.68-1.06-.61-.28.07.05.45.46.8l.2.11-.19-.09-.12,1.04Z"/><path d="m75.16,1.56c.07.03.1.07.08.11.26.26,1.81-.06,1.56.44.45.46,1.03.32,1.6-.08.5-.35.93-.75,1.77-.21.6-.16,1.06.3,1.6-.02.69-.4.08-.69-.55-.95-2.06.09-4.3-.29-6.07.71Z"/><path d="m105.68.59c.68.42,2.4.42,2.87,1.12.22.33,2.4-.22,3.59-.46.2-.04.33-.12.48-.19l.03-.54c-1.81-.45-3.52.19-5.32-.07l-1.33.04c-.17,0-.28.04-.33.1Z"/><path d="m150.89,53.28c.4.06,1.69-.24,3.04-.67,1.35-.43,2.74-1.03,3.35-1.44,1.21-.81.24-.66.39-1-.77.48-1.53,1.02-2.41,1.18-.19.03-.79.25-.82.28-.86.91-2.39,1.1-3.55,1.64Z"/><path d="m176.44,11.59c-.45-.68-2.08-.87-2.01-1.68-.49-.69-1.28-.89-2.01-1.1-1.35-.09-3.07-1.06-4.56-1.19.19.38.04.71,1.59.91.94.13,2.16.72,3.22,1.22.23.03.46.06.68.1l.13.2c-.26-.09-.52-.19-.78-.27.4.28-.2.33-.46.47-.27.15-.2.29,1.41.92.25-.18.07-.78,1.28-.06.39-.06,1.34.82,1.52.49Z"/><path d="m121.05,62.59c-.02.08.17.15-.26.23,3.06-.35,6.36-.41,8.82-1.79l-.1-.17-1.98.37c-2.14.49-4.3.93-6.48,1.36Z"/><path d="m167.86,7.62c1.49.13,3.21,1.1,4.56,1.19.1-.62-1.18-.68-1.72-.95-2.08-1.05-4.51-1.52-6.76-1.71.24,1.07,2.57.9,3.93,1.47Z"/><path d="m131.85,2.31c1.57.19,3.37.11,4.35.94.37.31.97.23,1.09-.05.09-.2-.01-.45.67-.49.28-.55-1.06-.56-1.76-.64-1.57-.21-3.17-.34-4.77-.5.11.24-.32.49.42.73Z"/><path d="m123.65,3.69c-1.08-.25-2.21-.51-3.03-.05-.53.29-.82.09-1.26-.08-1.5-.55-3.01-.65-4.46-.15,1.4.59,3.17.59,4.9.61,1.27.02,2.54.05,3.81.07l.04-.41Z"/><path d="m3.23,34.03c-.2-.13-.47-.43-.61-.42-.07,0-.11.1-.1.33.02.23.05.62.29,1.18.11.29.19.55.23.78.06.23.11.44.12.63.05.39-.01.75-.01,1.12,0,.36-.48.36.15,1.24.54.68.72.33.87.06.15-.26.33-.46.52-.69-.75-1.35-1.26-2.79-1.47-4.25Z"/><path d="m88.88.66c-.15.56-.15,1.04,2.01.65l1.52-.4.96-.05c.41-.21.98-.18,1.53-.17l.57-.42c.04-.38-.63-.26-1.17-.21-1.81.2-3.62.4-5.43.61Z"/><path d="m13.5,18.94c-.37.05-.72.14-1.09.21-1.18.8-2.14,1.95-3.49,2.15-.35.06-.89.82-.8.83.33.02-.97,1.41.2.71,1.54-1.51,3.85-2.23,5.19-3.9Z"/><path d="m89.44,2.46c-.55.17-1.35.56-1.59.51-.94-.15-.07-.36.25-.57.21-.14-.08-.23-.45-.21-.43.02-.9.1-.9.28,0,.27.14.53.23.8,1.84.43,3.89.26,5.94.12l.05-.47s-.03-.1-.02-.15h-.55c-1.32.24-2.57.42-2.96-.31Z"/><path d="m25.29,12.38c-1.74.78-1.01,1.59-2.88,2.41,1.14.06,2.25.07,3.32-1.06.1-.17.13-.42.33-.51,3.08-1.26.66-.82-.18-.85-.04.15.1.28-.46.47v-.33s-.08-.09-.12-.14Z"/><path d="m6.23,44.72c-.07-.59-.38-1.48-1.22-1.96-.42-.22-.8-.6-1.15-1.06-.37-.44-.68-.97-.97-1.49-.32-.5-.57-1.02-.86-1.45-.3-.41-.6-.76-.96-.96,1.08,2.91,3.07,5.14,5.17,6.91Z"/><path d="m44.3,61.53l-1.88-.7-.98-.34c-.08.42-.91.2-1.72,0-1.82-.82-3.6-1.18-5.41-1.12.11.22.59.52.95.56,2.98.29,6.1,1.66,9.05,1.59Z"/><path d="m167.17,10.1c.09-.59-.12-1.17-2.07-1.06-1.41.11-3.11-.98-4.56-.6.96.57,2.08.85,3.26,1.03,1.14.17,2.28.32,3.37.63Z"/><path d="m108.36,62.06c.71.48,2.06.71,3.55.89-.34-.49.37-.98,1.32-1.47-1.04-.16-1.92.15-2.85.32-.47.45-1.31.25-2.02.26Z"/><path d="m146.39,3.49c1.65.97,5.29,1.42,7.59.93-2.11-.63-4.33-.63-6.49-.92-.1.36-.61.15-1.1,0Z"/><path d="m44.77,6.84c.57-.14.95-.31.89-.54h-.66s-.18-.16-.18-.16l.49-.03.44.15c.59-.12.85-.3.86-.52-1.83.29-3.54.02-5.47.81.32.61,2.02.32,3.2.37l.44-.07Z"/><path d="m27.68,57c-2.22-.78-4.38-1.61-6.45-1.91.61.61,1.26,1.02,2.48,1.16,1.55.16,3.17,1.15,4.79,1.5l.03-.4c-.28-.11-.57-.23-.86-.34Z"/><path d="m126.2,2.96c2.07.04,3.24-.59,2.64-1.49-.67-.08-1.35-.11-2.02-.17.28.43-1.23.53-.97.96.57.23.31.48.35.71Z"/><path d="m17.67,16.19c-.93.65-1.81,1.38-2.69,2.07.81-.25,1.62-.48,2.35-.83.75-.32,1.44-.73,2.04-1.34l-.41-.5-1.3.59Z"/><path d="m73.42,4.12l-1.28.16-.19.32c.94-.05,1.89-.04,2.83-.12.92-.09,1.81-.24,2.65-.59-.58-.27-1.74-.31-2-.7-.35.11-.65.21-.95.3-.05.27-.07.54-1.06.64Z"/><path d="m123.65,3.69l-.04.41,2.49.17c.54-.4.54-.84.1-1.31-1.22-.12-.9-.45-.91-.73-.18-.16-.45-.31-.93-.27-.56.05-.24.24-.15.38.35.52,1.03,1.07-.56,1.35Z"/><path d="m52.11,4.87l-.04-.38c-1.7.27-3.67.06-4.95,1.13.32.29.08,1.07,1.82,0,.76-.47,2.27-.2,3.17-.75Z"/><path d="m45.5,61.45l-.21.45c1.88.68,3.7.64,5.52.72l-.89-.48c-.97-.31-.93-.64-1.03-.95-.13-.03-.27-.06-.4-.09-.11.64-.5,1.15-3,.35Z"/><path d="m67.64,62.36c1.32.09,2.65.18,3.97.27.85.07,1.5.09,1.6-.24-1.74-.53-3.72-.25-5.54-.52-.02.16-.03.33-.03.5Z"/><path d="m49.93,62.15l.89.48c1.4.44,2.84,1.03,4.11.45-1.26-.4-2.59-.7-4.01-1-.67-.14-.91-.14-.98.07Z"/><path d="m83.81.87c.06.05.08.12.18.16.74.26-2,.89.09.87,1.51,0,2.45-.6,2.29-1.23-.89-.05-1.85-.33-2.57.21Z"/><path d="m142.69,57.82c.61.07,1.23.07,2.34-.52.92-.5,1.78-.7,2.38-.59.33-.15.77-.29.85-.46l-.98-.11c-1.53.4-2.97,1.02-4.48,1.47l-.1.2Z"/><path d="m164.33,45.87c-.37.92.67.03,1.61-.76.7-.58,1.07-1.03,1.21-1.43l-.23-.2c-.39.42-.79.84-1.21,1.25-.43.4-.89.77-1.38,1.14Z"/><path d="m102.4,64.44c-1.82.23-3.9.05-5.51.58,1.85.31,3.68-.18,5.52-.26v-.32Z"/><path d="m4.53,27.51c-.65-.24-1,.24-1.2.91-.2.67-.19,1.49-.36,2.02.29,0,.54.38.76-.93.13-.66.46-1.36.8-2.01Z"/><path d="m85.97,3.36c-.19-.27-.02-.72-1.16-.66-1.53.1-.58.72-1.44,1,1.24.44,1.73-.24,2.6-.34Z"/><path d="m141.09,5.36l2.27-.14c-1.39-.22-1.43-.64-1.59-1.05-.09-.24-.4-.45-1.07-.53-.25-.03-.65.02-.74.09-.25.21.29.32.71.46,1.51.51-1.32.59-.02,1.08.14.04.28.07.44.09Z"/><path d="m167.4,45.27c-.65.84-2.24,1.06-2.39,2.14.31.05.46.06.77-.21.3-.28.79-.79,1.63-1.93Z"/><path d="m100.02,2.3c1.32.16,1.23.61,1.53.98,1.03.03,2.16.31,3.01-.14l-.03-.22c-.74-.1-2.05.07-2.16-.3-.26-.82-1.32-.48-2.35-.32Z"/><path d="m96.95,3.36c.64-.6-.89-.72-1.62-1.02l-.78.37-.61.77c1.03.09,1.93-.37,3-.12Z"/><path d="m7.8,43.15l.38-.37c-.53-.75-1-1.51-1.77-2.16-.21.18-.74.15.18,1.17.69.77.93,1.2.62,1.44.41.24.45,0,.6-.08Z"/><path d="m113.24,61.48c-.95.49-1.66.98-1.32,1.47.99-.44,2.47-.82,2.62-1.36l-.23-.25-1.07.13Z"/><path d="m131.85,2.31c-.73-.24-.31-.49-.42-.73l-1.5-.21c-.29.61-.37,1.19,1.89,1.52l.03-.58Z"/><path d="m28.54,57.34l-.03.4c.94.33,1.79.46,2.55.44-.26-1.33-1.41-1.01-2.52-.84Z"/><path d="m139.43,56.96c.02.09-.05.21.07.26.33.15-.96.93.55.54,1.33-.36.08-.42.22-.68.04-.07.47-.22.72-.34-.37-.07-.71-.17-1.56.21Z"/><path d="m108.36,62.06c.72,0,1.56.19,2.02-.26h-1.1c-.41.06-.77.07-.97-.05l-2.02.29.44.14,1.63-.12Z"/><path d="m173.16,16.02s-.07,0-.08.05c-.03.23-.62-.29.03.77.2.37.84.93.6.13-.17-.32-.34-.64-.55-.94Z"/><path d="m65.09,62.64c.06-.31,1.34-.35,1.07-.73l-1.53-.12c.16.29-.4.56.46.86Z"/><path d="m177.52,16.83c.24-.16.18-.63.04-1.14-1.36-1.54-.12.63-.63.3,0,.1.05.2.14.31.11.16.22.31.31.48.07.1.12.11.13.04Z"/><path d="m104.97.77l1.01-.18c-.44-.42-1.67-.3-2.43-.49l-.06.36.04.38c.27.02.48.02.69.02.08-.21.42-.15.76-.09Z"/><path d="m11.64,49.62c.13-.32-.84-.89-.96-1.28l-.74-.38.37.6c.36.43.81.78,1.34,1.06Z"/><path d="m70.49,4.83c-.33-.3-.76-.46-1.59.01.44.13.67.6,1.59-.01Z"/><path d="m88.21,64.59l-1.59.17c-.08.43.81.34,1.59.28v-.45Z"/><path d="m65.96,5.01c-.74.12-1.59.14-2.08.51,1.12.24,1.66-.07,2.08-.51Z"/><path d="m169.89,11.64c.26.46.64.9,1.16,1.33-.35-.44-.32-.93-1.16-1.33Z"/><path d="m106.73,62.18l-.44-.14-1,.07.05.16c.46.15.93.14,1.38-.09Z"/><path d="m111.51,3.17s.01-.07.07-.09c-.07.02-.15.04-.23.04l-.15.4.32-.35Z"/><path d="m108.32,61.76c.2.12.56.11.97.06-.01-.26-.34-.27-.97-.06Z"/><path d="m128.05,4.44c-.04-.14.06-.34-.49-.35-.41,0-.34.14-.05.26l.55.09Z"/><path d="m103.49.46l.06-.36c-.52.05-.88.17-1.05.36h.99Z"/><path d="m106.01.49l1.33-.04c-.55-.25-1-.25-1.33.04Z"/><path d="m67.62,62.35l.05-.49c-.33-.06-.5-.03-.53.08.03.14-.22.31.48.41Z"/><path d="m21.95,14.93l-.27-.26c-.47.25-.1.29-.17.43.16-.03.31-.08.44-.17Z"/><path d="m146.39,3.49c.48.16,1,.37,1.1,0-.45-.11-.89-.23-1.1,0Z"/><path d="m177.39,16.79c-.09-.17-.21-.32-.31-.48v.4s.31.08.31.08Z"/><path d="m142.8,57.62c1.51-.45,2.95-1.07,4.48-1.47.51-.19.71-.36.71-.5l-.07-.4c-.82.27-1.13.25-.91-.05.1-.14.25-.33-.3-.17-.32.09-.98.41-.96.44.29.52-1.89,1.24-2.66,1.81-.15.12-.2.23-.3.34Z"/><path d="m170.85,41.08c.74-.78,1.49-1.61,1.84-2.65-1.02,1.51-.59,0-1.39.99-.44.51-.9,1-1.37,1.48.38-.03,1.23-.74.93.17Z"/><path d="m121.93,60.98c-.88-.13-1.97-.01-3.1.14.06.16-.08.39.22.47.39.11-1.07.56.29.4.94-.11.73-.33.6-.52-.06-.08-.11-.4.55-.18,1.2.39.85-.33,1.45-.32Z"/><path d="m157.01,52.06c.47-.2.95-.39,1.41-.61.11-.22,1.19-.97.1-.55-1.14.45-1.41.82-1.51,1.16Z"/><path d="m153.66,53.5c-.38.24-.7.53-.41.5.86-.08,1.58-.77,2.42-1.12-.23-.3-1.24.31-2,.61Z"/><path d="m127.53,61.23l1.98-.37c-.16-.23-.8-.23-1.59-.06-.61.13-.37.29-.39.43Z"/><path d="m105.33,62.73c-.14.02-.28.04-.43.05l-.04.29c.61-.06,1.36-.04,1.61-.33h-1.14Z"/><path d="m158.77,51.25c.32.15.93-.26,1.51-.71l-.18-.2c-.44.32-.9.6-1.34.91Z"/><path d="m149.4,54.13c-.11.02-.21.03-.32.05l-.23.21c.13-.03.28-.05.37-.1.09-.04.11-.11.17-.16Z"/><path d="m123.46,60.74l-1.15.18c.16.06.28.18.48.16.56-.05.53-.21.67-.34Z"/><path d="m153.1,53.34l.55.04c.61-.5.06-.27-.55-.04Z"/><path d="m160.1,50.35c.23-.16.59-.34.52-.44-.01-.02-.21.04-.29.1-.4.25-.23.26-.23.34Z"/><path d="m147.92,55.25l.07.4c.57-.34.58-.48-.07-.4Z"/><path d="m134.66,58.81c.02.06.1.04.17.03-.02-.05-.1-.04-.17-.03Z"/><path d="m103.84,63.13v.16s1.01-.22,1.01-.22c-.33.02-.67.04-1.01.06Z"/><path d="m151.74,54.06h-.12s.09,0,.12,0Z"/><path d="m160.49,50.4l.2.04c.34-.3.24-.29-.2-.04Z"/><path d="m132.73,3.16c-.64.24-1.61.41-.96.92.28.22.62.43,1.24.51.92.12,1.05-.13,1.2-.37-.45-.34-.66-.66-.22-.96.2-.14.17-.29-.37-.37-.66-.09-.78.1-.9.27Z"/><path d="m174.92,11.1c-1.21-.72-1.03-.11-1.28.06.41.28,1.08.57.92.91-.07.17.19.61.56.83.4.21.84.32,1.09.28.41-.05-.35-.53-.52-.76-.32-.47-.5-.89-.77-1.33Z"/><path d="m149.5,6.03c.78,1.01,2.51.91,4.13.95-1.09-.64-2.38-1.07-4.13-.95Z"/><path d="m148.26,5.92l.52.03c.09-.04.16-.1.28-.11.99-.09,1.66-.25.73-.79-.24-.14-.94-.35-.84-.15.23.47-2.95.2-.69,1.03Z"/><path d="m137.18,4.88l1.43.26c.04-.25,1.29-.47.02-.74-.94-.2-1.63.04-1.45.49Z"/><path d="m144.04,5.32l1.54.69c-.01-.22.88-.33.17-.62-.56-.24-1.21-.2-1.71-.06Z"/><path d="m171.72,10.34c-.23-.19-.36-.34-.51-.41-.17-.08-.37-.08-.55-.11.12.11.21.25.36.33.16.08.37.1.7.19Z"/><path d="m146.66,6.17l1.4.06c.07-.02.14-.03.21-.05l-.04-.19c-.63-.02-1.53-.23-1.57.18Z"/><path d="m135.91,4.75c.4.19.79.41,1.24.13-.41-.05-.83-.1-1.24-.13Z"/><path d="m168.62,10.06c-.12-.09-.19-.08-.26-.08.04.03.08.07.26.08Z"/><path d="m2.54,25.78c-.3.53-.67,1.14-.61,1.58.2.24.02.73-.17,1.27-.19.54-.37,1.16-.27,1.54.07.27-.65,1.1-.26,1.55.23.26.51-.59.81-1.06.3-.48.42-.85.47-1.6.04-.95.4-2.06,1.33-2.44.55-.23.82-1.08,1.05-1.57.4-.85-.19-.39-.65-.04-.72.53-1.4,1.15-1.71.77Z"/><path d="m7.8,43.15c-.15.09-.18.33-.6.08-.24.07-1.13-.8-.94-.14.07.23.32.68.56.91.81.75.53-.01.84.02.17.01.32,0,.53.07.39.15,1.28.83,1.13.37-.18-.51-1.04-.76-1.52-1.32Z"/><path d="m4.89,40.87c-.04-.11-.07-.21-.11-.3l-.31-.14c.06.12.12.26.19.34.06.07.15.07.23.1Z"/><path d="m9.78,18.84l.42-.3c-.14.1-.29.2-.42.3Z"/><path d="m175.12,23.36c.06-.11.16-.17-.06-.8-.07.11-.02.42.06.8Z"/><path d="m30.45,9.99l-1,.28c.05.22.38.49.1.67-.49.32-.94.57-.67.79.13.11.41-.04.5-.14.36-.36,1.81-.72,1.28-1.09-.17-.12-.15-.33-.21-.5Z"/><path d="m33.49,9.69c-.35-.07-.44-.32-1.15-.15-.1.02-.31.23-.26.28.22.25.87,0,1.41-.13Z"/><path d="m44.77,6.84l-.44.07c.03.14-.03.31.54.22l-.1-.29Z"/><path d="m25.42,12.52v.33c.55-.18.42-.32.45-.47l-.45.14Z"/><path d="m27.6,11.22l.24.18c.42-.28-.06-.16-.24-.18Z"/><path d="m171.29,39.43c.8-.98.37.51,1.39-.99.35-.56.53-1.01.6-1.36.15-.76.37-1.62-.51-.58-1.41,1.58-.95,1.97-1.48,2.94Z"/><path d="m174.73,31.78c-.15.71-.8,1.68-.43,1.76.12.03.43-.17.64-.98.08-.39.17-.88.22-1.28.03-.4.02-.71-.04-.75-.24-.14-.2.91-.39,1.25Z"/><path d="m175.32,32.8c.29-.52.54-.83.67-1.24.12-.53.34-1.48.13-1.55-.1-.04-.28.28-.4.83-.11.6-.23,1.18-.4,1.96Z"/><path d="m175.51,25.82c.08-.07.17-.08.1-.6-.02-.16-.12-.24-.18-.36.02.32.06.64.07.96Z"/><path d="m174.15,34.52c.03-.17-.02-.07-.06.02l.06-.02Z"/><path d="m175.4,26.77v-.22s0-.22,0-.22c-.05.15-.06.3,0,.45Z"/><path d="m113.59,2.78c-.09-.31-.61-.45-1.35-.38-.94.09-.58.42-.68.67.9.07.96-.53,2.03-.29Z"/><path d="m125.29,2.23c0,.28-.31.61.93.74-.06-.24.21-.48-.37-.71l-.56-.02Z"/><path d="m113.6,2.78l.11.08s-.08-.05-.11-.08Z"/><path d="m27.68,57l.87.35c-.11-.18.41-.27-.29-.5-.4-.13-.56,0-.57.16Z"/><path d="m39.71,60.49c.81.2,1.64.41,1.72,0-.63-.04-1.31-.14-1.72,0Z"/><path d="m100.02,2.3c1.02-.16,2.09-.5,2.35.32.12.37,1.42.2,2.16.3-.4-.43-.72-.87-1.22-1.28-1.08-.87-3.09-1.01-4.73-.25-.2.09-.31.24-.56.29-.93.19-.99.82-.06,1.06q.39.1.6-.31c.1-.19.07-.45.78-.46.22,0,.45.22.68.34Z"/><path d="m92.4,2.77h.55c.95-.69-.56-1.23-.53-1.87l-1.52.4c-.13.59,1.89.84,1.5,1.47Z"/><path d="m94.91.69c-.55,0-1.13-.03-1.53.17.02.03,0,.07.05.08.69.18.57.81,1.4.7,1.23-.17-.15-.62.08-.95Z"/><path d="m97.62,1.24c.15-.06.32-.11.3-.14-.05-.1-.16-.2-.24-.3-.07.05-.19.11-.19.16,0,.08.07.17.13.28Z"/><path d="m104.97.77c-.33-.05-.68-.12-.76.09.32.04.76.21.76-.09Z"/><path d="m103.52.84l-.21.1c.09-.02.18-.05.21-.1Z"/><path d="m17.67,16.19l1.3-.59c.11-.81,2.38-1.62,2.92-2.39-.16-.2-.08-.57-1.16-.13.59.14-.13.62-.59.92-.55.37-.94.24-1.24.16-.46.17-.91.37-1.36.56-1.12.87-1.65,1.39-1.62,1.59.03.21.6.09,1.76-.11Z"/><path d="m18.89,14.15c.3.08.69.21,1.24-.16.45-.3,1.17-.78.59-.92-.73.32-1.71.55-1.83,1.08Z"/><path d="m12.5,17.54c1.66.12,1.55-1,2.34-1.46-1.16.19-1.78.84-2.34,1.46Z"/><path d="m9.77,18.85l.44-.31c-.24-.04-.39.06-.44.31Z"/><path d="m73.42,4.12c.99-.1,1.01-.37,1.06-.64-.19-.35.33-.33.89-.28.27-.4,0-.85,1.43-1.09.25-.49-1.3-.18-1.56-.44-1.96.8-2.02,1.62-1.82,2.45Z"/><path d="m89.42,2.46l.63-.08c-.36-.16-.45.01-.63.08Z"/><path d="m80.56,63.71c-.25.14-.32.29-.39.45,1.02.02,2.04.04,3.05.06.92,0,.94-.21.98-.42-.54-.04-1.21.01-1.53-.21l-2.12.13Z"/><path d="m94.79,63.23c-.02-.16-.08-.34-.64-.35-.25,0-.58.15-.88.23.36.19.96.14,1.52.12Z"/><path d="m82.67,63.59c.32.23.99.17,1.53.21-.31-.23-.93-.21-1.53-.21Z"/><path d="m88.73,64.43c0-.09.48-.18.03-.27-.05,0-.19,0-.23.02-.29.12-.12.19.21.25Z"/><path d="m53.43,6.32c.82-.29,1.77.83,2.49-.4.01-.8-1.74-.1-2.61-.13l.12.53Z"/><path d="m63.8,4.18l-.2.07c.06-.02.12-.05.2-.07Z"/><path d="m53.31,5.79l-.12-.06s.09.04.12.06Z"/><path d="m103.84,63.13l1.02-.06.04-.29c-.72.01-1.06.13-1.06.35Z"/><path d="m45.5,61.45c2.5.8,2.89.29,3-.35l-.43-.8c-1.8-.79-3-.29-4.49-.45-.29.54-.27,1.11,1.92,1.59Z"/><path d="m69.96,63.13l.22.04c0-.08-.09-.08-.22-.04Z"/><path d="m65.07,62.65c.17.06.34.12.52.18,0,0,.1-.03.15-.05-.22-.04-.43-.08-.67-.13Z"/><path d="m36.78,58l-.89-.41c0,.23,0,.47.89.41Z"/><path d="m80.17,64.16l.21-.47c-.5-.01-1.05-.03-1.14.17-.09.21.39.27.93.29Z"/><path d="m70.31,4.06c.03-.2.03-.39-.48-.47.07.18-.12.41.48.47Z"/><path d="m67.75,3.29l.11.06s-.08-.04-.11-.06Z"/><path d="m71.76,3.16c-.12-.12-.13-.32-.39-.36-.33-.05-.62.14-.51.23.23.18-.75.71.79.53l.1-.41Z"/><path d="m71.76,3.16l-.1.41c.75-.18.68-.31.1-.41Z"/><path d="m40.67,7.79c-.08-.02-.15-.05-.24-.06-.01,0-.17.06-.17.08-.01.05.03.09.05.14l.37-.16Z"/><path d="m10.87,47.32l.19.09c-.07-.04-.14-.07-.19-.09Z"/><path d="m172.69,9.78c.26.08.52.17.78.27l-.13-.2c-.23-.04-.46-.07-.66-.07Z"/><path d="m45,6.3h.66c-.07-.1-.21-.15-.36-.2l-.3.2Z"/><path d="m75.37,3.2c-.56-.05-1.09-.06-.89.28l.89-.28Z"/>
                  </g>
                </mask>
              </defs>
              <path class="mask" d="m178.49,24.61c2.67-3.36,1.25-8.33-1.98-11.27-3.85-3.51-9.01-4.97-12.14-5.53C111.84-1.53,74.49,3.11,74.49,3.11c-9.55,1-54.61,5.98-68.2,20.07-1.22,1.27-4.05,4.28-4.44,8.48-.78,8.4,8.76,15.1,12.6,17.8,27.41,19.26,132.24,21.39,155.35-8.03,1.94-2.47,7.04-8.96,5.84-17.24-1.6-10.98-13.23-17.82-16.81-19.77"
                    mask="url(#path-mask)" stroke="black" stroke-width="2" fill="none"
                    stroke-dasharray="429.40362548828125" stroke-dashoffset="429.40362548828125">
              </path>
            </svg>
        