
            <svg xmlns="http://www.w3.org/2000/svg">
              <defs>
                <mask id="path-mask">
                  <g fill="white">
                    <path d="m313.56,1.91c-3.73-.08-1.38.33-2.13.49l-2.67-.21c-2.18-.28-4.73-.53-6.81-.84-4.27-.59-12.31-.62-15.75-.1-2.35-.07-3.84,0-4.84.15-1.56-.09-3.51-.06-5.37-.07-1.86.01-3.63.02-4.84-.16-.66-.23-3.42-.42-1.11-.7,1.66-.18,3.47-.29,6.15-.13,2.21.15,4.22.14,5.47-.06l2.08.02c2.58-.12,6.06.62,8.07.05.81.03,2.29.08,2.32.08,2.04-.5,6.8-.19,10.91.08l.06.16c-1.13.02-.9.07.37.14.21,0,.42,0,.65.02l.12.23c-.7-.02-1.73-.09-1.72.01,0,.02.5.08.76.09,1.19.05.86-.05.98-.1l4.08.06c.33.01.67.02,1.01.03-.51.1-3.86.07-.92.33,3.11.26,4.17.17,4.82-.02.6-.18,1.93-.14,4.01.13.18.34,3.19.38,5.27.6l-.11.09c-1.97,0-.44.16,1.24.32,2.26.4,2.5.1,3.93.22l.29.07-.32-.07c.15-.18-.69-.48,3.46-.06,2.57.3,4.79.49,4.38.14l2.56.25,2.2.62c-1.39-.14-2.02-.14-2.14-.04-1.68-.07-1.83.03-.22.33,2.21.26,2.93.45,2.12.54-.38.05-.91.1.55.28.43.05,1.11.12,1.68.18.29.02.54.05.73.06.19.01.3.02.3,0-.21-.52,5.65.23,7.97.3.47.02.68-.03,1.01-.04l.42-.08c5.22.79,10.63,2,15.36,2.62,1.19.17,2.81.67,3.95,1.02,2.07.6,3.49.92,4.67,1.04l4.89,1.42,4.84,1.59.13.21c.2.3,1.74.85,3.69,1.53,1.52.5,1.08.16,1.23.09,1.34.45,2.69.87,4.03,1.34,1.33.49,2.67.99,4.01,1.48,1.35.48,2.69,1.02,4.03,1.58,1.34.56,2.71,1.09,4.06,1.73l-.19-.14c.1-.03-.28-.3.74.16.33.05.49,0,1.81.62-.31.06.18.38.98.87.8.49,1.93,1.11,2.94,1.66,1.09.6,2.19,1.3,3.32,1.96,1.11.7,2.22,1.43,3.31,2.16,2.15,1.51,4.17,3.05,5.84,4.51.57.51,1.07,1.02,1.55,1.5.44.53.88,1.01,1.25,1.54.75,1.07,1.42,2.23,1.84,3.78.25.93.27,1.16.37,1.14.08-.02.15-.27.23-.19.26,1.62,0,3.27-.52,4.78-.51,1.53-1.42,2.81-2.34,4.01-1.95,2.33-4.28,4.17-6.71,5.77l-.14-.26c.86-.78.53-.76-.03-.6-1,.22.2-.61,2.59-2.45.65-.62,1.31-1.22,1.89-1.89,1.13-1.11,2.34-2.62,2.44-3.37-.23.42-.54.79-.83,1.17-.27.39-.62.73-.94,1.08-.34.19-1.59,1.29-.22-.37.88-.71,1.54-1.68,1.93-2.76.57-1.17.92-2.43.96-3.7.26-.77.31-2.04-.16-3.51-.44-1.47-1.41-3.05-2.61-4.52-2.04-1.78-5.27-3.91-6.01-3.81-2.96-2.15-6.11-4.08-9.52-5.61-.01-.18.44-.15-.15-.58-.8-.56,2.78,1-.37-.62-2.2-1.09-1.87-.65-1.7-.39.07.12-.03.38-1.36-.53-2.44-1.68-2.17-.79-4.44-1.86-.32-.21-.53-.43-.99-.64-1.33-.6-1.37-.46-1.78-.52-2.2-.87-4.38-1.7-6.62-2.49-2.25-.74-4.51-1.59-6.87-2.45-2.47-.88-3.91-.93-4.73-.91-7.41-2.17-14.93-4-22.54-5.42.03-.07.29-.11.05-.23-.66-.34,3.06.03-.89-.77-3.5-.61-.54.25-1.08.34-.15.03-1.32-.14-2.03-.22-3.25-.43-6.62-.88-10.02-1.34-1.7-.23-3.41-.46-5.11-.69-1.71-.19-3.41-.39-5.1-.58-1.97-.23-5.19-.27-6.73-.75-.88-.24-4.23-.74-7.85-1.16-3.62-.36-7.49-.68-9.37-.73Zm22.41,2.24l.75-.03c-.33-.05-.72-.12-.98-.14-.25-.02-.38,0-.57.02.28.05.54.1.8.15Zm38.14,5.94c.14.04.34.09.51.14-.01-.06-.21-.1-.51-.14Z"/><path d="m264.99,2.54c8.71-.24,17.33.27,25.98.76,1.1,1.13,6.72.86,10.32,1.29.7.38.58.76,4.45.76,2.35.02,5.71.42,8.7.73,2.38.4-5.11.75,3.7,1.2,1.28.19,3.1.27,3.23.67.07.2,1.28.58,2.42.66,1.17.09,2.27,0,2.71-.12.73-.21-1.53-.38-2.22-.55-1.35-.35-2.31-.72-3.43-1.09.73-.15,3.86.4,3.74,0,1.85.79,8.72,1.1,8.59,1.86-.06.37-2.85.37-4.08.66-1.27.29-6.47-.32-10.6-.87-1.86-.25-3.61-.63-5.46-.85-1.79-.22-3.96-.76-5.3-.57-1.43.2,3.53.52,2.58.82-2.87,0-5.87-.15-9.15-.65-.2-.65-1.04-1.18-6.03-.97-3.71.16-8.32-.93-11.92-.41l-1.37-.02-2.6-.28c-4.36-.79-9.08-.95-14.2-.36-3.03-.5-6.47-.74-10.9-.35l-1.88.02c.22-.05.36-.13.69-.16,2.49-.24,4.15-.51,1.58-.92-.67-.11-2.52-.22-2.21-.03.75.45-7.46.65-1.44,1.24-1.62.08-4,0-3.97.42h-2.81c-.1-.23,2.15-.47.23-.67-1.52-.15-3.16-.04-4.4.16h-1.78c-3.65-.06-3.87-.49-4.39-.88-.3-.23-1.16-.41-2.9-.4-.65,0-1.66.1-1.87.19-.57.24.84.29,1.95.38,4.02.32-3.22.77.27,1.1-.87.39-3.11.37-5.22.39l-.03-.27c.04-.26,3.17-.64-.16-.75-2.46-.08-4.18.25-3.68.69h-3.23s-4.46-.33-4.46-.33c-1.25-.29-1.87-.6-.81-.95.49-.16.37-.32-1.05-.33-1.71-.02-1.97.18-2.23.37l-2.4-.17-.06-.58c4.06.02,8.64-.27,11.36.46,1.04.28,2.54.11,2.78-.18.18-.21-.15-.45,1.57-.58,7.04-.57,14.29-.67,21.73-.33,4.53.74,13.96.65,19.63-.2Zm46.17,4c-.48-.05-.95-.02-1.42-.02.39.1.75.22,1.19.28.46.06,1,.04,1.87.07-.75-.16-1.19-.29-1.63-.34Z"/><path d="m145.72,78.95c3.38.09,4.93.49,6.64.91.86.21.27.59,2.97.59,2.18,0,1.7-.33,1.31-.62-.38-.27-.57-.54-.85-.82l7.97.33c.01.27-.93.59,2.69.71,2.73.1,3.97.3,3.86.66-.31.2-3.5.11-1.94.48.55.13,1.81.3,2.64.32,2.79.07.95-.33,1.57-.49.34-.09.6-.19,1.12-.26,1-.13,3.93-.11,2.84-.37-1.25-.3-3.37.02-5.28-.11l.02-.5c7.56.18,14.88.57,22.11.92-1.19.53-1.97,1.19-8.19.58-1.03-.1-2.69-.11-3.12.09-.45.22.83.32,2.24.39.45.3.91.6,1.18.92l-2.07.1,1.66.28c-4.95.22-9.56-.03-13.88-.65-1.12-.39-3.31-.87-5.59-.64-4.37.45-12.15-.96-15.09-.12-4.2-.52-8.65-.63-12.97-.99.22-.6-3.09-.94-5.87-.98-2.48-.03-3.94-.22-5.77-.54.69-.49,5.03.28,6.79.07.67-.08,2.84.64,3.84.32.61-.19-1.53-.57-2.86-.87-1.35-.3-2.41-.42-4.31-.38-2.39.04-5.16,0-7.23-.77-1.24-.46-3.55-.42-4.91-.42-2.37-.02-.48.33.87.6,2.15.44,4.27.9,3.82,1.3l-1.4.04c-2.37-.91-7.08-1.11-11.05-1.61-1.54-.2-5.13-.34-4-.89.27-.12-4.57-.43-4.73-.27-.33.33-1.62.15-3.37-.06l-1.28-.17c-2.42-.18-5.3-.3-4.22-.87,1.26-.24,1.21-.23-.8-.62-.89-.17-2.06-.45-2.24-.58-.63-.47,2.96.15,3.57-.04,3.65.42,7.56.5,10.58,1.52.77.27,3.13.27,2.99.2-.61-.32,4.45.14.92-.54.17-.15.56-.14,2.02.05,4.76.61,9.53,1.36,14.43,1.48.57,1.37,6.13.81,9.29,1.13,3.67.3,6.42,0,10.31.4-.93.29-3.76.62,2.76.78Zm15.25,1.47l-.76.12c.33.03.71.09.99.1.24,0,.38-.06.57-.09-.28-.05-.54-.09-.8-.13Z"/><path d="m188.67,3.43c-4.62.43-10.27.72-14.52,1.24-3.78.08-9.54.75-14.01,1.1-1.27.1-1.76.16-2.67.26-2.78.34-3.44.79-.36.56,3.25-.24,4.27-.25,5.1-.21.87.05,2.47.04,5.54-.41.34-.05,1.61-.18,2.16-.21,5.31-.39,10.43-.77,15.68-1.16,12.07-.8,24.15-1.46,36.24-1.97l-.04-.18c-1.02.05-1.85.07-2.08,0-1.8.1-3.94.23-5.43.32-3.58.17-7.97.54-10.8.47-1.7-.08-14.01.49-16.51.75-.41.04-.85.11-.78.12.61.14-1.71.21-2.78.25-1.27.02-2.06.04-3.16.06-.63.02-2.58.21-2.4.14.11-.05,1.24-.17,2.75-.31,3.17-.27,7.65-.55,8.05-.83Z"/><path d="m13.76,56.09c2.92,1.4,6.39,2.97,8.51,3.33-.83-.4-1.86-.99-2.45-1.21-2.31-.85-4.52-1.68-5.92-2.93-1.14-1.03.8-.21,2.24.21,2.56.75,4.33,1.73,6.19,2.84,1.16.7,3.22,1.58,4.3,1.82,3.66.87,5.09,1.79,7.11,2.76,1.34.5,3.09.9,3.36,1.3.05.08-.61.01-.86-.06-1.79-.55-1.76-.82-2.49-1.23l-4.1-.4c1.13.77,2.56,1.32,4.09,1.79,1.53.46,3.19.76,4.76,1.16,0-.28.25-.4,2.51.18,0-.18.26-.3-.02-.54-.85-.74,2.84.33,4.01.4.32.02,1.1.18,1.29.36.4.39-.88.17-2.31-.06-.81-.13-.31.35-.4.56,1.29.12,4.73,1.37,5.21.97-.44-.17-1.68-.51-.43-.34l.39.34c1.77.55.57.73,2.81,1.26.79.18,1.52-.03,2.27-.06,0-.16.31-.22,1.4-.06-.04-.07-.1-.13-.16-.21l-1.18-.28c-.96-.34-2.95-.97-3.65-1.3-.7-.34-.13-.27,4.08.54.55.11.85-.05,1.27-.08-3.61-.77-7.44-1.44-10.53-2.8-.37-.17-5.28-1.02-8.44-1.99-.94-.04-2.02-.35-3.91-.97-5.55-1.77-11.04-4.43-16.26-6.36-1.76-1.44-5.56-2.82-7.3-4.45-.83-.77-1.58-1.46-2.38-2.2-.78-.73-1.63-1.48-2.54-2.48-1.26-1.37-1.66-2.68-1.69-3.51-.03-.42.07-.73.15-.93.12-.2.26-.29.4-.29.08-1.72,1.2-3.37,2.62-4.75-.46-.06.61-1.39,1.52-2.33-1.33.64-2.56,1.54-2.97,1.65-.39.14-.11-.76,2.37-2.88.65-.51.11-.35-.6.1-.96.92-2.23,1.95-3.3,3.23-1.08,1.24-1.86,2.85-1.91,4.13-.07,1.47.24,2.41.41,3.06.2.65.33,1.02.36,1.27.07.52-.17.53-.16.95.23.47.53.89.81,1.32.26,0,.78.63,1.93,1.81.32-.04,1.14.68,2.36,1.63l.09-.3c1.18.96.91.92.82,1.03,2.22,2.07,6.17,4.25,6.3,5.02Z"/><path d="m261.88.53c-1.67.02-2.86.12-3.73.23-1.85.23-4.13.45-.67.62,5.44.25,5.67-.25,8.49-.36l5.19.15c1.21.18,2.98.17,4.84.16,1.86,0,3.8-.02,5.37.07l.06.26c-3-.06-6.48.18-8.72-.02-2.83-.27-5.77-.18-9.08-.11-13.03.34-26.11.68-39.22,1.02-.23-.1-.22-.19,1.41-.32l2.52-.09,1.3.04c.4.03.79.02,1.18-.04,8.28-.33,9.43-.45,6.27-.76-.1,0-.12-.02-.18-.04-7.31.48-9.28-.2-16.44.29-2.97.2-6.92.42-7.74.18,1.95-.11,4.14-.47,4.79-.38,1.25.18,3.29-.05,5.28-.14,7.11-.34,14.06-.56,21.37-.81,5.21-.18,10.5-.25,15.82-.35,5.33-.04,10.68-.08,16.02-.12,2.12,0,5.5-.06,5.66.26-1.25.21-3.26.21-5.47.06-2.67-.16-4.48-.05-6.15.13-2.74-.08-5.49-.17-8.16.07Zm-13.04.9c-.06-.1-.81-.28-2.93-.17-2.05.11-5.06.32-5.17.43-.22.22,2.45-.07,3.41-.04,1.87-.08,4.87.07,4.7-.23Zm-6.12-.69c-1.34.03-3.74.11-3.83.28-.05.1.83.16,2.26.11,1.54-.08,3.03-.15,5.01-.25-1.47-.07-2.38-.17-3.45-.15Zm7.93.48h.78s-.1-.04-.1-.04c-.59.01-.61.03-.68.04Z"/><path d="m194.82,2.91c-3.23.2-5.76.19-9.41.05-5.3-.19-11.9.13-17.91.33-3.01.09-6.24-.06-9.05.34v.53c.66.23,2.38.56.35.71-6,.43-5.17,1.38-9.32,1.94,2.21-.09,4.17-.26,5.9-.5.22,0,.41-.03.57-.06.22-.25-.73-.54,1.67-.72,1.89-.14,3.24-.07,3.52.22l.31.06-.29-.07c-2.79-.1-2.87.48-5.18.51-.14.03-.2.07-.17.1,2.66.49,5.87-.15,8.77-.13,3.67-.63,7.57-.71,11.53-.29,1.18.12,1.96.31,3.27-.04,2.02-.54,4.96-.41,7.8-.27,4.05-.45,2.17-.93,1.18-1.41-.26-.13-1.11-.29.32-.39,1.22-.09,1.93.04,2.43.18l1.44-.03c-.76-.4,3.08-.65,2.28-1.06Z"/><path d="m242.97,82.99c2.57.3,5.24.47,8.77.18,4.41-.57,9.08-.71,14.08-.38.94-.25,2.71-.35,4.3-.49l2.65.07c-.32-.16-.81-.45-.93-.45-2.42.12-4.44.04-6.44-.05-2-.11-3.98-.23-6.31-.16-3.39.09-6.49.11-7.42-.44-.03-.02-.37-.02-.56-.03-.64.07-1.28.14-1.92.21.57.62-2.85.62-5.46.58-8.57-.16-17.2.29-25.89-.1-5.24-.22-5.53-.07-3.02-.73.76-.2,1.26-.42,1.88-.63-4.98.1-10.77-.27-14.8.39.94.06,1.85.15,2.82.17,1.6.04,3.9-.33,4.6.06.29.16-2.23.44-3.83.6-.85.09-2.45.04-3.72.05-1.06,0-2.21,0-2.72.14-.67.2.44.32,1.53.42,1.72.16,2.17.53,4.84.53,3.37.39,7.08.61,11.51.45,5.07-.49,10.99-.51,16.94-.5-.08-.15.18-.33,1.26-.33,1.9,0,.69.25,1.1.38,2.51-.52,5.11-1.16,6.73.03Z"/><path d="m228.32,2.13l1.3.04.59-.02.59-.02c8.28-.33,9.43-.45,6.27-.76-.1,0-.12-.02-.18-.04-7.31.48-9.28-.2-16.44.29-2.97.2-6.92.42-7.74.18-2.15.24-6.01.4-7.62.67,2.07.02.06.36-1.03.42-3.17.17-1.25-.12-1.7-.2-.09-.02,0-.05,0-.07-2.43-.05-6.55.44-9.27.51-1.67.18-3.15.28-4.43.29-.41.28-4.9.56-8.06.83-1.52.13-2.64.26-2.75.31-.18.08,1.77-.12,2.4-.14,1.1-.02,1.89-.04,3.16-.06,1.06-.04,3.39-.11,2.78-.25-.07-.02.37-.08.78-.12,2.49-.27,14.81-.83,16.51-.75,2.84.07,7.23-.3,10.8-.47,1.49-.09,3.63-.21,5.42-.32,1.74-.15,1.82-.07,2.09,0l.04.18,2.56-.09c-.23-.1-.22-.19,1.41-.32.32-.05.55-.14.97-.16,1.36-.07,1.37.01,1.55.07Z"/><path d="m137.89,7.15l-.09-.21c-1.07-.36-1.92-.74-3.25-1.07-2.85-.72-8.01-.49-12.17.5-.52.13-.77.28-1.41.38-2.38.35-2.49.97-.1,1.03q1,.02,1.54-.41c.25-.2.16-.45,1.97-.57.55-.04,1.18.14,1.78.22,3.41-.07,3.22.38,4,.69-3.87.46-7.83.68-11.84.86,1.61-.69-2.33-.54-4.21-.66l-1.99.53c-1.35.17-2.71.36-4.06.56-.07-.04-.09-.09-.06-.14,2.42-.89-1.49-1.06-1.44-1.68l2.47-.27s.02.07.14.07c1.77.01,1.5.66,3.63.36,3.14-.43-.42-.56.15-.93l1.44-.53c6-.46,12.12-1.03,17.99-1.04l2.55-.14.12.36-.53.12.7-.11,1.6-.09c.82-.01,1.97.1,1.93-.19l2.58-.29-.36.07-.4-.04c1.79.34,6.2.08,7.48.72.6.3,6.15-.5,9.16-.85.5-.06.82-.15,1.22-.23.67.23,2.39.56.36.71-6,.43-5.17,1.38-9.32,1.94-4,.35-7.87.51-11.59.33Zm-17.2-.93c-.12-.09-.41-.16-.64-.24-.17.06-.47.14-.47.19,0,.08.19.15.34.24.37-.09.81-.16.77-.19Z"/><path d="m41.02,65.64c-2.26-.58-2.52-.46-2.51-.18.7.22,1.39.47,2.09.66l1.64.42c2.01.61,3.99,1.22,6.03,1.73,2.03.53,4.11,1.02,6.31,1.37,1.8.31,4.36.85,6.46,1.44,2.29.69,6.71,1.52,7.47,1.6,8.05.84,15.69,2.32,23.32,3.66,2.8.47,4.61.46,6.93.72,11.8,1.44,23.63,2.58,35.48,3.51,1.27.1,2.57.28,3.32.11.22-.6-3.09-.94-5.87-.98-2.48-.03-3.94-.22-5.77-.54-.88.16-2.54-.03-3.99-.14l-1.4.04c-2.37-.91-7.08-1.11-11.05-1.61-1.54-.2-5.13-.34-4-.89.27-.12-4.57-.43-4.73-.27-.33.33-1.62.15-3.37-.06-.44.11-.89.05-1.31-.17-2.39-.17-5.27-.29-4.18-.86-.64-.09-1.29-.18-1.94-.27-2.06-.02-4.19-.08-6.95-.82-2.38.04-4.74.27-7.57-1.12l-3.69-.66c-.88.3-3.32-.32-5.32-.67-2.93-.51-2.35-.73-2.51-1-3.48-.06-6.82-.93-10.06-2.12-.75.03-1.48.24-2.27.06-2.24-.53-1.04-.71-2.81-1.26-.44.41-3.88-.84-5.17-.96l-2.57-.72Z"/><path d="m84.58,9.49c-1.86-.05-3.9.03-6.55.79,1.58.05,3.13.13,1.37.75-1.39.49-2.55.19-4.08.54-2.11-.25-3.21.3-4.5.82-1.47.59-2.95.95-4.06.66-3.61.77-2.97,1.1-3.55,1.57.61.28,3.56-.1,5.04-.06,2.48-.06,5.68-.52,8.72-1.16,2.28-.48,4.26-.8,6.49-1.02,2.22-.53-.21-.85,3.7-1.41,2.9-.39,2.47.09,2.96.3l2.57-.38c-.22-.23-.6-.45-.59-.71,0-.17,1.19-.38,2.3-.51.97-.12,1.71-.11,1.17.08-.8.28-3.04.72-.63.62.6-.02,2.66-.61,4.06-.93.44-.11.65-.3,1.59-.24l-1.62.24c1.06.62,4.27.07,7.64-.46.98-.7-4.21-.46-3.9-1.04-5.53.96-5.53.49-5.16-.09-2.23.37-4.11.21-6.39.68.41.57-1.99,1.42-5.85,1.87-5.34.66,1.64-.78-.23-.82-.26,0-.31-.06-.46-.1Z"/><path d="m383.98,70.66c.69-.15,1.37-.37,2.05-.55l3.91-1.27,1.45-.43s-.1-.06-.16-.09c-.87.19-1.32.23-.62-.08.1-.04.45-.16.57-.18,1.14-.23-.01.19,0,.27,1.04-.26,1.92-.56,2.65-.87.73-.29,1.32-.57,1.76-.84,1.38-.87,3.32-1.49,4.88-1.99,1.56-.51,2.78-.76,2.76-.66-.05.32.72.17,1.79-.16.54-.16,1.15-.37,1.78-.58.62-.24,1.25-.48,1.82-.69,2.77-1.43,5.52-2.8,8.24-4.4,1.19-.69,3.55-1.92,2.74-1.81-.65.1-3.11,1.6-3.8,1.83-2.1.81-5,2.83-6.4,2.77-1.58.65-3.43,1.46-3.79,1.26-1.34.51-2.76,1.08-3.69,1.25l-2.22.81c-.75.25-1.51.48-2.26.72-1.51.47-3.01.93-4.5,1.39-2.97.84-5.73,1.67-8.49,2.58-2.78.8-5.6,1.54-8.67,2.15l.07.36c1.5-.37,3.05-.76,3.89-.73-.05.22-.05.44-2.35,1l1.19.2,5.39-1.25Z"/><path d="m6.03,32.94c.71-.45,1.25-.62.6-.1-2.48,2.12-2.76,3.02-2.37,2.88.42-.11,1.64-1,2.97-1.65.63-.48,1.28-.93,1.96-1.36l-.32-.42-.3.1.28-.09c1.93-1.05,6.03-3.5,6.03-2.64,3.24-1.62,6.52-2.3,10.06-4.26.51-.28,2.94-.98,3.16-.75,1.2-.42,2.41-.79,3.61-1.19,1.41-.99,5.98-2.54,4.89-2.91-.05-.01.77-.34,1.18-.5,3.03.23,3.8-1.39,6.02-1.78-.03-.05-.04-.11-.05-.17-6.59.81-7.84,2.2-9.85,3.46l-.46.19.5-.2c-1.29.29-3.58,1.06-3.66.97-1.05-1.03-5.33,1.35-8.87,2.95-3.73,1.62-7.84,3.76-11.28,5.05-.82.37-1.22.45-1.76.63-.54.18-1.22.47-2.51,1.45l.15.34Z"/><path d="m210.38,4.12l-2.4-.17c-5.86-.07-5.79-.66-5.18-1.31-1.93-.2-1.83.16-2.77.23,1.74.83-1.12,1.61-6.45,1.76,1.23.42,1.33.86.01,1.32,1.35.43,2.47.11,3.64-.06-.78-.09-.98-.23.08-.27,1.44-.04,1.2.17,1.35.31,3.1.6,7.66.13,10.96.09,5.4-.08,11.3.2,16.41-.32l-.03-.27-3.75-.08c-1.18.35-2.25.17-3.32.02l-4.46-.35c-.32.25-.59.53-3,.5-1.62-.02-2.55-.19-3.32-.38-1.81-.45.65-.72,2.23-1.04Z"/><path d="m409.41,60.93c1.4.06,4.3-1.96,6.4-2.77.69-.23,3.14-1.74,3.8-1.83.8-.11-1.55,1.13-2.74,1.81-2.72,1.6-5.47,2.98-8.24,4.4l1.14-.21,1.4-.6c3.68-2.07,8.61-4.18,12.56-6.92.86-.78.53-.76-.03-.6-1,.22.2-.61,2.59-2.45l-.05-.15c-.05-.09.09-.3.4-.63.33-.32.82-.78,1.48-1.42.28-.26.51-.53.73-.81-.34.19-1.59,1.29-.22-.37l-.18-.02c-2.39,2.6-5.49,4.57-8.65,6.37-3.19,1.77-6.49,3.41-9.86,4.95,1.22-.16,3.39-.73-.52,1.27Z"/><path d="m305.3,81.3c1.53-.11,1.44.62,4.14-.08,2.02-.52,4-.08,6.03-.35.53-.69,3.3-.79,6.22-.78,2.48.01,4.5-.26,6.34-.63,1.9-.39,2.73-.72.67-.86-2.73.19-5.26.15-8.18.52-4.54.61-7.08.83-9.39.96-2.31.12-4.4.11-8.08.05-.18,0-.52,0-.57.01-3.7.86-9.42.13-13.2.88.38.29.43.62,3.02.67.08-.23.69-.28,2.45-.32,3.73-.07,7.22-.09,10.55-.08Z"/><path d="m409.41,60.93c3.91-2,1.74-1.43.52-1.27-1.35.5-2.49.87-3.75,1.37-1.28.45-2.67,1.01-4.51,1.95-.67.33-1.51.71-2.49,1.08-.99.34-2.1.69-3.27,1.05-1.17.36-2.39.73-3.61,1.1-1.22.33-2.44.67-3.59.98-1.53.44-3.09.89-4.65,1.34-1.58.38-3.18.77-4.77,1.15-1.6.37-3.19.78-4.8,1.08-1.61.29-3.22.57-4.81.82-2.8.44-4.63.83-4.25,1.2.38.39,2.63-.07,5.13-.64,1.75-.36,3.5-.67,5.23-1.06,3.07-.61,5.88-1.35,8.67-2.15,2.75-.91,5.51-1.74,8.49-2.58,1.49-.46,2.99-.92,4.5-1.39.75-.24,1.51-.46,2.26-.72l2.22-.81c.69-.34,1.44-.77,2.05-.99,1.35-.49,1.54-.37,1.64-.25.36.2,2.21-.61,3.79-1.26Z"/><path d="m33.93,21.56c2.01-1.26,3.26-2.64,9.85-3.46,1.68-.51,3.35-1.07,5.04-1.53,1.33-.45,2.71-.92,2.3-1.11-1.25.07-2.65.36-4.05.74-1.4.4-2.82.86-4.12,1.21-4.98,1.39-9.94,2.85-14.84,4.59-4.89,1.77-9.7,3.75-14.36,6.15-2.48,1.31-2.75,1.67-3.59,2.38,3.43-1.29,7.54-3.43,11.28-5.05,3.54-1.6,7.82-3.97,8.87-2.95.08.09,2.37-.68,3.63-.97Z"/><path d="m216.69,80.57c-.62.21-1.12.43-1.88.63-2.51.66-2.22.5,3.02.73,8.7.39,17.32-.05,25.89.1,2.61.04,6.03.04,5.46-.58-4.87-.56-10.18-.5-16.03-.13-3.77.23-6.65.1-5.92-.58-3.79.31-6.94-.21-10.54-.17Z"/><path d="m289.27,81.03c3.78-.75,9.5-.02,13.2-.88.04-.01.39-.01.57-.01,3.68.06,5.77.07,8.08-.05,2.31-.13,4.84-.35,9.39-.96,2.92-.37,5.45-.33,8.18-.52-1.21-.46-2.52-.91-7.02-.83l-3.26.6c-1.19.47-3.06.56-5.71.65-3.23.11-7.13.4-9.92.52-5.63.22-10.63.97-16.01.84l1.45.67c.36,0,.71-.02,1.06-.02Z"/><path d="m354.96,74.73c-.8.37-1.53.71-1.21.86.16.08.58.11,1.38.06.8-.07,1.97-.21,3.65-.47,2.16-.33.84.1.7.26-1.63.41-3.36.75-4.99.94-1.63.18-3.15.27-4.35.32-6.07.23-7.37.87-8.6,1.59l-1.23.16c-4,.11-10.51.63-4.42-.89,1.1-.27,1.04-.56,1.51-.84l5.1-.53c1.7-.18,3.39-.43,5.08-.63,2.19-.27,3.84-.5,4.02-.86,1.26-.15,2.52-.28,3.78-.45-.13.15-.05.29-.41.46Zm-10.76,1.85c-.14,0-.36.03-.68.13.19-.02.38-.03.68-.13Z"/><path d="m324.59,6.86c1.85.79,8.72,1.1,8.59,1.86-.06.37-2.85.37-4.08.66-1.27.29-6.47-.32-10.6-.87-1.86-.25-3.61-.63-5.46-.85-1.79-.22-3.96-.76-5.3-.57-1.43.2,3.53.52,2.58.82,6.01,1.26,13.65,1.41,19.83,2.92,1.95.47,1.59-.12,3.19.05,1.57.03-5.28-1.33.41-.62,1.99-.27,7.03.29,6.4-.57-1.17-.26-2.69-.53-3.44-.76-1.86-.58-1.67-1.52-6.66-1.44-.02,0-.45-.12-1.01-.27-.56-.15-1.25-.32-1.79-.43-3.15-.61-6.18-.98-8.9-.99.82.85,4.45.57,6.22,1.07Z"/><path d="m341.1,11.99c1.56.29,2.67.6,3.44.93,1.94.84,5.71,1.82,8.77,2.15,2.73.29,5.24.37,5.66-.06.76-.79-2.51-1.94-10.08-3.3-1.85-.33-4.09-1.02-6.16-1.54-2.37,0-1.56.6.86,1.33,2.45.74,4.78.98,6.63,1.01.68,0,3.72.44,3.38.76-.3.28,1.37.93.21,1.01-.71.05-1.09.22-3.13-.15-2.12-.38-3-.76-3.2-1.04-.21-.29-.48-.55-2.84-.97-2.29-.4-3.49-.44-3.53-.12Z"/><path d="m286.76,80.38c5.39.13,10.38-.63,16.01-.84,2.79-.12,6.69-.4,9.92-.52,2.65-.08,4.52-.18,5.71-.65-4.58-.53-11.31.29-16.89.61-8.34.29-16.85,1.12-25,.73l-.66.25c1.21.23,5.47.43-1,.72-2.11.1-3.3.42.34.43,3.84-.26,6.62-1,11.57-.73Z"/><path d="m3.1,41.15c-.14,0-.28.1-.4.29-.08.2-.18.51-.15.93.03.83.43,2.14,1.69,3.51.92,1.01,1.76,1.75,2.54,2.48.8.74,1.55,1.43,2.38,2.2,1.74,1.63,5.53,3.01,7.3,4.45,5.22,1.93,10.71,4.58,16.26,6.36,1.89.62,2.97.92,3.91.97-4.96-2.05-10.37-3.98-16.1-6.39-3.62-1.54-7.29-3.26-10.66-5.79-1.45-1.11-3.12-2.36-4.5-3.88-1.39-1.5-2.42-3.34-2.26-5.12Z"/><path d="m246.95,5.43h-2.81s-4.17-.5-4.17-.5c-.59,0-1.18,0-1.78-.01-1.93.14-3.85.28-5.78.42,3.41.95,10.2.61,15.07.63,9.69.06,19.48-.33,29.19-.25l2.6-.14c-4.36-.79-9.08-.95-14.2-.36-4.14.2-8.53.57-10.89-.35-.63,0-1.25.01-1.88.02-.45.02-.89.03-1.34.05.02.14.08.2.13.27.13.05.27.09.41.14l-.93-.06-3.61.15Z"/><path d="m422.74,30.06c-2.96-2.15-6.11-4.08-9.51-5.61-1.3-.68-2.62-1.28-3.83-1.88-1.2-.61-2.32-1.19-3.28-1.71-1.83-.77-2.75-1.17-3.68-1.54-2.2-.87-4.38-1.7-6.62-2.49-2.25-.74-4.51-1.59-6.87-2.45-2.47-.88-3.91-.93-4.73-.91,6.81,2.05,13.48,4.55,20.04,7.27,1.63.7,3.27,1.38,4.87,2.15l2.41,1.12,2.37,1.2c1.6.77,3.11,1.67,4.67,2.52,1.5.92,3.01,1.83,4.44,2.85l-.28-.49Z"/><path d="m359.47,75.46c-1.63.41-3.36.75-4.99.94-1.63.18-3.15.27-4.35.32-6.07.23-7.37.87-8.6,1.59,2.49-.18,4.96-.52,7.44-.78,2.48-.29,4.96-.53,7.43-.9,4.93-.77,9.87-1.54,14.71-2.81,2.34-.6,3.9-.48,5.8-1,2.62-.69,6.72-1.46,7.07-2.15l-5.39,1.25c-2.95.7-5.94,1.18-8.91,1.73-3.38.73-6.8,1.25-10.21,1.81Z"/><path d="m329.56,2.8c.15-.18-.69-.48,3.46-.06,2.57.3,4.79.49,4.38.14-10.6-1.32-21.26-2.28-32.35-2.39l.06.16.37.14c.21,0,.42,0,.65.02,1.86,0,3.7.01,4.23.29.33.01.67.02,1.01.03,1.3.08,2.6.21,3.9.32.6-.18,1.93-.14,4.01.13,2.3.17,4.71.05,6.77.46.68.13-.37.17-1.5.13l-.11.09,1.24.32c2.26.4,2.5.1,3.9.22Z"/><path d="m340.3,78.46c-4,.11-10.51.63-4.42-.89,1.1-.27,1.04-.56,1.51-.84-1.89.14-1.28-.11-1.41-.24l-2.52.3c.82.29-2.43.77-2.49,1.1l1.7-.09c-.12.03-.35.1-.36.1-.47,0-.92,0-1.38,0-2.27-.03-.92-.48-1.41-.72-2.59-.22-5.2-.08-7.86.59,4.5-.08,5.82.37,7.02.83,2.06.14,1.24.47-.66.86-1.84.38-3.86.64-6.34.63-2.92-.02-5.69.08-6.22.78,3.28-.17,6.57-.52,9.87-.8,1.65-.13,3.29-.27,4.93-.4,1.64-.14,3.26-.28,4.88-.37,2.56-.15,3.88-.47,5.16-.83Z"/><path d="m275.19,81.11c-3.65,0-2.46-.33-.34-.43,6.46-.29,2.21-.49,1-.72-1.1.37-3.13.17-4.68.26.18.22-1,.56-1.96.5-4.73-.3-8.07.41-12.18.43-2.19.31-2.32.08-2.49-.14-2.23-.25-2.78.01-3.43.24.19,0,.54.01.57.03.93.55,4.03.53,7.42.44,2.33-.06,4.31.05,6.31.16,2,.09,4.03.16,6.44.05.12,0,.61.29.93.45l5.06.19,2.69.13.3-.5c-5.74.07-6.08-.46-5.63-1.08Z"/><path d="m205.43,82.95c-2.67,0-3.13-.37-4.84-.53-1.09-.1-2.2-.22-1.53-.42.51-.15,1.66-.14,2.72-.14,1.27,0,2.87.04,3.72-.05,1.6-.16,4.11-.44,3.83-.6-.7-.39-3-.02-4.6-.06-.98-.02-1.88-.11-2.82-.17-1.23-.29-2.34-.02-3.51-.01-1.95.12-4.03.3-3.46.6,2.22,1.17-3.82,1.15-9.25,1.12.66.26,3.48.22,3.7.54,4.45-.15,8.66.27,13.16.23,3.22-.02,2.52-.27,2.89-.5Z"/><path d="m257.02,81.15c4.12-.01,7.45-.72,12.18-.43.96.06,2.14-.28,1.96-.5-2.06.05-4.12.09-6.18.14l-6.17.1c-4.11.1-8.22.19-12.35.29-4.13.09-8.48-.01-12.58-.11-2.48-.06-4.49.01-6.66.11-.73.69,2.16.81,5.92.58,5.84-.37,11.16-.43,16.03.13.64-.07,1.29-.14,1.92-.21.64-.23,1.19-.5,3.42-.24l2.49.14Z"/><path d="m359.47,75.46c3.41-.56,6.82-1.09,10.21-1.81l.04-.35c-1.39.26-2.62.45-2.44.21.18-.24,1.58-.51,2.84-.76.44-.25.44-.42.44-.6-2.51.56-4.75,1.03-5.13.64-3.28.33-6.65.86-10.06,1.49-.13.15-.05.29-.41.46-.8.37-1.53.71-1.21.86.16.08.58.11,1.38.06.8-.07,1.97-.21,3.65-.47,2.16-.33.84.1.7.26Z"/><path d="m48.82,16.57c-1.69.47-3.36,1.03-5.04,1.53l.04.17h.3s-.28,0-.28,0c-2.22.39-2.99,2.01-6.02,1.78-.42.17-1.23.49-1.18.5,1.08.36-3.49,1.92-4.89,2.91.33.11,1.41-.32,2.4-.61,1.21-.67,3.3-1.28,5.16-1.82,1.4-.29,2.05-1.23,2.92-.96.91.28,3.11-.63,4.42-.85,2.1-.93,3.17-.93,3.98-.81,1.33-.24,2.96-.28,3.68-.92l.5-.4c-1.58.21-2.41.11-4.57.64-1.51.24-.99-.1-1.16-.24-6.81,1.39.74-.86-.24-.92Z"/><path d="m308.76,2.19c-2.18-.28-4.73-.53-6.81-.84-4.27-.59-12.31-.62-15.74-.1,3.2,0,6.75.12,4.5.45,3.06.12,6.12.24,9.15.32,3.02.09,6,.2,8.91.18Z"/><path d="m49.06,17.49c-6.81,1.39.74-.86-.24-.92,1.33-.45,2.71-.92,2.3-1.11,3.85-.97,7.88-2.32,11.54-2.35.18,0,.24.03.19.08-5.01,1.56-5.25,2.43-4.81,3.17l-3.24.72c-1.58.21-2.4.11-4.57.64.1-.22.1-.41-1.17-.24Zm3.9-1.54c-.83.11-1.57.45-1.29.48.56.08-1.93,1.07,1.95.15,1.92-.51,1.74-.61.29-.45-.29-.07-.31-.26-.95-.18Z"/><path d="m29.66,62.5c-1.15-.41-1.98-1.11-3.38-1.33-3.14-.48-3.17-1.15-4-1.76-.83-.4-1.86-.99-2.45-1.21-2.31-.85-4.52-1.68-5.92-2.93-1.14-1.03.8-.21,2.24.21,2.56.75,4.33,1.73,6.19,2.84,1.16.7,3.22,1.58,4.3,1.82,3.66.87,5.09,1.79,7.11,2.76-1.36-.13-2.73-.27-4.1-.4Zm-13.27-6.17s.43.18.46.17c.07-.02.02-.09.03-.14l-.95-.38c.15.11.28.22.46.35Z"/><path d="m354.57,5.3c5.22.79,10.63,2,15.36,2.62,1.19.17,2.81.67,3.95,1.02,2.07.6,3.49.92,4.67,1.04-2.1-.81-4.5-1.38-6.98-1.96-2.47-.61-5.06-1.03-7.55-1.48-6.45-1.17-12.46-2.5-19.05-3.09-.96-.09-2.13-.25-2.57-.18,1.3.39,3.54.8,6.16.98,1.58.11,2.74.26,3.67.42.93.19,1.65.4,2.35.63Z"/><path d="m341.1,11.99c.04-.31,1.24-.28,3.53.12,2.36.42,2.63.68,2.84.97.2.28,1.08.65,3.2,1.04,2.04.38,2.42.2,3.13.15,1.16-.08-.51-.73-.21-1.01.34-.31-2.71-.75-3.38-.76-1.85-.03-4.18-.26-6.63-1.01-2.42-.73-3.23-1.34-.86-1.33-.83-.27-1.67-.5-2.55-.48.62.85-4.41.3-6.41.57,1.33.37,2.53.75,2.57,1.02l4.77.71Z"/><path d="m53.85,68.51c3.25,1.19,6.59,2.05,10.07,2.12,2.08-.15,8.12,1.1,9.33.59l-.35-.66c-2.19-.54-4.19-.9-6.06-.98-.31.05.49.36-.86.17l-.35-.39c-.36-.1-.77-.18-1.2-.26-5.21-.97-4.37.26-9.18-.65-1.09-.17-1.39-.1-1.4.06Z"/><path d="m409.77,62.32l-1.14.21c-.58.22-1.21.46-1.82.69-.63.21-1.24.42-1.78.58-1.07.33-1.84.48-1.79.16.02-.1-1.2.15-2.76.66-1.56.5-3.5,1.12-4.88,1.99-.44.27-1.02.55-1.76.84-.73.3-1.61.6-2.65.87.1.01.16.04.2.08l.04.48c1.57-.36,3.08-.87,4.63-1.31,1.54-.47,3.09-.9,4.62-1.42,3.03-1.14,6.12-2.22,9.09-3.83Z"/><path d="m411.79,21.59c-.31.06.18.38.98.87.8.49,1.93,1.11,2.94,1.66,1.09.6,2.19,1.3,3.32,1.96,1.11.7,2.22,1.43,3.31,2.16,2.15,1.51,4.17,3.05,5.84,4.51.57.51,1.07,1.02,1.55,1.5.44.53.88,1.01,1.25,1.54.75,1.07,1.42,2.23,1.84,3.78.25.93.27,1.16.37,1.14.08-.02.15-.27.23-.19-.23-1.79-.98-3.41-1.9-4.8-.21-.37-.47-.69-.72-1.02-.26-.32-.49-.67-.77-.97-.56-.59-1.08-1.24-1.7-1.77-2.37-2.22-5.03-4.11-7.95-5.71-1.25-.71-2.67-1.5-4.13-2.33-1.49-.76-2.99-1.62-4.47-2.31Z"/><path d="m9.2,32.71c-.67.43-1.33.88-1.96,1.36-.91.93-1.98,2.27-1.52,2.33,2.29-1.97,5.13-3.66,8.07-5.17,2.95-1.5,6.06-2.84,9.16-3.83,2.49-.82,3.01-1.71,5.17-2.73-.22-.23-2.65.48-3.16.75-3.54,1.96-6.82,2.63-10.06,4.26-1.63,1.96-3.9,1.77-5.7,3.04Z"/><path d="m89.95,74.9c.65.09,1.3.18,1.94.27,1.25-.24,1.21-.23-.81-.62-.89-.17-2.06-.45-2.24-.58-.63-.47,2.96.15,3.57-.04l-2.66-.72-4.21-.72c-2.89-.19-5.77-.43-8.66-.67,5.75,1.44,5.61,1.59-1.45,1.13,2.83,1.39,5.19,1.16,7.57,1.12,2.3.27,3.55-.53,6.94.82Z"/><path d="m185.67,82.68c5.44.03,11.47.05,9.25-1.12-.57-.31,1.51-.49,3.46-.6-.6-.6-3.36-.15-5-.24-1.19.53-1.97,1.19-8.19.58-1.03-.1-2.69-.11-3.12.09-.45.22.83.32,2.18.38l.58-.02-.52.03,1.36.89Z"/><path d="m62.66,13.12c.18,0,.24.03.19.08.61.15,4.57-.72,3.91-.15,1.12.29,2.59-.07,4.06-.66,1.29-.52,2.39-1.07,4.5-.82,1.53-.35,2.69-.05,4.08-.54,1.77-.62.22-.7-1.37-.75-5.23.72-10.87,1.19-15.37,2.84Z"/><path d="m140.57,4.54c1.79.34,6.2.08,7.48.72.6.3,6.15-.5,9.16-.85.5-.06.82-.15,1.22-.23v-.53c-4.67-.28-9,.57-13.62.53l-3.4.22c-.44.03-.72.07-.84.14Z"/><path d="m330.78,3.8c-.88-.24-4.23-.74-7.85-1.16-3.62-.36-7.49-.68-9.37-.73-3.73-.08-1.38.33-2.13.49,2.37.06,4.75.11,6.98.46.48.08,2.13.22,2.23.22,3.04-.23,6.81.51,10.13.73Z"/><path d="m324.59,6.86c-1.77-.5-5.39-.22-6.22-1.07-1.81-.57-3.66-.59-5.52-.65-3.12.18-7.94-.55-11.57-.56.7.38.58.76,4.45.76,2.35.02,5.71.42,8.61.71l1.63-.06.49.18-2.03-.09c2.38.4-5.11.75,3.7,1.2.34-.25-.76-.8,2.71-.43.73-.15,3.86.4,3.74,0Z"/><path d="m409.24,20.81c.1-.03-.28-.3.74.16-7.18-3.4-14.92-6.67-21.71-7.98l.13.21c1.66.48,3.28,1.06,4.91,1.62,1.34.45,2.69.87,4.03,1.34l3.99,1.47c1.34.48,2.66.99,3.97,1.54,1.31.54,2.65,1.04,3.95,1.64Z"/><path d="m301.29,4.59c3.63,0,8.46.74,11.57.56-.35-.66-3.26-.48-4.73-.66-5.61-.75-11.46-1.04-17.16-1.18,1.1,1.13,6.72.86,10.32,1.29Z"/><path d="m207.92,3.37c4.06.02,8.64-.27,11.36.46,1.04.28,2.54.11,2.78-.18.18-.21-.15-.45,1.57-.58.55-.6-2.86-.41-4.66-.43-4.06-.03-8.19.02-12.29.04.33.23-.7.53,1.24.69Z"/><path d="m187.17,5.62c-2.84-.14-5.78-.27-7.8.27-1.31.35-2.09.17-3.27.04-3.95-.42-7.85-.34-11.53.29,3.68.44,8.26.25,12.73.13,3.29-.11,6.56-.22,9.84-.32l.03-.41Z"/><path d="m142.97,78.17c-.93.29-3.76.62,2.76.78,3.38.09,4.93.49,6.64.91.86.21.27.59,2.97.59,2.18,0,1.7-.33,1.31-.62-.38-.27-.57-.54-.85-.82-4.28-.25-8.55-.54-12.83-.85Z"/><path d="m97.52,7.85c-.36.58-.37,1.05,5.16.09l3.87-.76,2.47-.27c1.03-.3,2.5-.38,3.92-.5l1.44-.53c.09-.37-1.64-.12-3.01.05-4.64.57-9.26,1.23-13.86,1.93Z"/><path d="m89.75,73.2l2.66.72c3.65.42,7.56.5,10.58,1.52.77.27,3.13.27,2.99.2-.61-.32,4.45.14.92-.54-5.71-.5-11.81-1.93-17.16-1.91Z"/><path d="m98.98,9.45c-1.39.31-3.45.9-4.06.93-2.41.11-.17-.33.63-.62.54-.19-.2-.2-1.17-.08-1.11.13-2.3.34-2.3.51,0,.26.38.48.59.71,4.72-.07,10-.84,15.26-1.43l.12-.47c-.07-.04-.09-.09-.06-.14l-1.41.13c-3.36.53-6.57,1.08-7.6.46Z"/><path d="m55.25,68.45c4.81.91,3.97-.32,9.18.65-2.57-.99-5.2-1.85-8.82-1.97-.42.03-.72.19-1.27.08-4.22-.81-4.78-.88-4.08-.54.7.33,2.7.95,3.65,1.3.23-.07.04-.29,1.54.06l-.36.22c.07.07.12.14.16.21Z"/><path d="m171.21,82.43c-1.12-.39-3.31-.87-5.59-.64-4.37.45-12.15-.96-15.09-.12,7.01.51,13.91.76,20.68.76Z"/><path d="m277.83,82.56l-5.06-.19-2.65-.07c.02.43-2.17.45-4.3.49-5-.33-9.67-.19-14.08.38.42.18,1.79.34,2.7.27,3.78-.29,7.79-.27,11.78-.31,3.99-.07,7.95-.16,11.61-.57Z"/><path d="m301.18,7.26c-.2-.65-1.04-1.18-6.03-.97-3.71.16-8.32-.93-11.92-.41,5.33,1.04,11.84.92,17.95,1.38Z"/><path d="m431.51,41.9c.26-.77.31-2.04-.16-3.51-.44-1.47-1.41-3.05-2.61-4.52.16.86-1.39-.36-3.55-1.67,1.8,1.82,3.54,3.29,4.83,5.19.98.85,1.6,2.86,1.48,4.51Z"/><path d="m245.36,2.74c4.53.74,13.96.65,19.63-.2-5.6-.34-11.22,0-16.82.04-.14.38-1.51.25-2.8.16Z"/><path d="m6.54,50.34c-1.22-.96-2.04-1.69-2.18-1.49.39.44.79.87,1.2,1.28l.17.4c-.32-.3-.63-.6-.94-.91-.21-.31-.42-.6-.62-.91-1.15-1.18-1.67-1.82-1.93-1.81,1.5,2.18,3.23,3.82,5.09,5.32,1.88,1.49,3.95,2.78,6.42,3.88-.13-.77-4.08-2.95-6.3-5.02-.3-.24-.62-.48-.92-.73Z"/><path d="m233.88,82.9c-5.96,0-11.88.01-16.94.5,2,.32,3.88.47,6.86.16,3.78-.41,8.49-.05,12.67-.22l-.24-.39c-.77-.02-1.56-.03-2.35-.05Z"/><path d="m193.58,4.64c5.32-.15,8.19-.93,6.45-1.76l-5.2.04c.8.4-3.05.65-2.28,1.05,1.52.17.88.44,1.04.67Z"/><path d="m76.88,71.82c2.89.23,5.77.47,8.66.67-4.28-.93-8.52-1.82-12.65-1.93l.35.66,3.64.6Z"/><path d="m58.03,16.36l-3.24.72-.5.4c4.74-.94,9.62-1.61,13.94-2.93-1.47-.04-4.42.34-5.04.06-.9.25-1.67.46-2.43.68-.15.29-.23.55-2.73,1.07Z"/><path d="m187.17,5.62l-.03.41,6.45-.08c1.32-.45,1.22-.89-.01-1.32-3.15,0-2.41-.35-2.48-.64-.5-.14-1.22-.27-2.43-.18-1.43.1-.57.27-.32.39.99.48,2.86.96-1.18,1.41Z"/><path d="m6.03,32.94l-.15-.34c-1.86,1.39-3.95,3-5.15,5.56l-.22.47-.16.51c-.09.34-.21.67-.26,1.02-.08.7-.14,1.4-.04,2.07.17,1.34.72,2.5,1.39,3.36-.02-.42.23-.43.16-.95-.04-.26-.17-.62-.36-1.27-.17-.65-.48-1.6-.41-3.06.06-1.28.83-2.88,1.91-4.13,1.07-1.28,2.34-2.31,3.3-3.23Z"/><path d="m280.82,82.19l-.3.5c5.04.23,9.57-.37,14.21-.74l-2.44-.25c-2.59-.05-2.64-.38-3.02-.67-.35,0-.7.02-1.06.02.01.65-.74,1.3-7.39,1.14Z"/><path d="m337.39,76.73l5.1-.53c1.7-.18,3.39-.43,5.08-.63,2.19-.27,3.84-.5,4.02-.86-2.29.08-4.67.37-7.08.71-2.4.35-4.84.61-7.21.8,0,.17.02.33.08.5Z"/><path d="m292.29,81.7l2.44.25c3.71.07,7.58.32,10.56-.65-3.34,0-6.83,0-10.55.08-1.76.04-2.37.09-2.45.32Z"/><path d="m84.58,9.49c.15.03.2.09.46.1,1.88.03-5.11,1.47.23.82,3.85-.45,6.26-1.3,5.85-1.87-2.27.22-4.72.21-6.54.96Z"/><path d="m354.57,5.3c-.7-.23-1.41-.44-2.35-.63-.94-.17-2.09-.31-3.67-.42-2.62-.18-4.86-.59-6.16-.98-.92-.07-2.09-.21-2.44-.14.73.21,1.47.41,2.21.62,2.01.27,4,.57,6,.81,2,.26,4,.46,5.98.82l.42-.08Z"/><path d="m290.7,1.69c2.25-.33-1.3-.45-4.5-.45-2.36-.07-3.85,0-4.84.15l.06.26c3.04-.02,6.07-.11,9.28.04Z"/><path d="m423.73,54.8c-3.96,2.74-8.89,4.86-12.56,6.92,2.26-.77,4.41-1.8,6.52-2.94,2.11-1.14,4.16-2.39,6.19-3.72l-.14-.26Z"/><path d="m123.36,76.64c.57,1.37,6.13.81,9.29,1.13-.18-.27.76-.57-3.11-.7-1.93-.08-4.11-.28-6.18-.43Z"/><path d="m90.1,11.28c-.49-.21-.06-.69-2.96-.3-3.91.55-1.48.87-3.7,1.41,3.18.04,4.45-.75,6.67-1.11Z"/><path d="m232.41,5.34c1.93-.14,3.85-.28,5.78-.42-3.64-.05-3.87-.47-4.39-.87-.3-.23-1.16-.41-2.9-.4-.65,0-1.66.1-1.87.19-.57.24.84.29,1.95.38,4.02.32-3.22.77.27,1.1.36.02.75.03,1.15.03Z"/><path d="m283.73.28c2.58-.12,6.06.62,8.07.05-1.09-.39-1.09-.44-8.07-.05Z"/><path d="m126.14,7.02c3.41-.07,3.22.38,4,.69,2.66-.13,5.6,0,7.75-.55l-.09-.21c-1.92,0-5.26.35-5.59,0-.73-.77-3.44-.26-6.06.07Z"/><path d="m118.3,8.56c1.61-.69-2.33-.54-4.21-.66l-1.99.53-1.52.87c2.66-.12,4.95-.8,7.72-.74Z"/><path d="m171.25,80.3l.02-.5c-2.41-.24-4.83-.49-7.51-.44.01.27-.93.59,2.69.71,2.73.1,3.97.3,3.85.66,1.2-.07.84-.27.95-.43Z"/><path d="m425.2,32.2c2.16,1.32,3.71,2.54,3.55,1.67-2.04-1.78-5.27-3.91-6.01-3.81l.28.49c.77.5,1.45,1.09,2.18,1.64Z"/><path d="m207.92,3.37c-1.93-.16-.9-.46-1.24-.69l-3.88-.03c-.61.64-.68,1.23,5.18,1.31l-.06-.58Z"/><path d="m236.23,82.95l.24.39c2.52,0,4.67-.11,6.51-.35-1.62-1.19-4.21-.55-6.75-.04Z"/><path d="m361.68,8.04c.03-.07.29-.11.05-.23-.66-.34,3.06.03-.89-.77-3.5-.61-.54.25-1.08.34-.15.03-1.32-.14-2.03-.22.82.3,1.57.54,3.93.88Z"/><path d="m431.51,41.9c.12-1.65-.5-3.66-1.48-4.51.45.76.78,1.58,1.02,2.39.29.92.3,1.74.17,2.17.03,1.54-.47,3.08-1.31,4.47l.64-.81c.57-1.17.92-2.43.96-3.7Z"/><path d="m202.38,2.62s-.1.05,0,.07c.45.08-1.47.37,1.7.2,1.08-.06,3.09-.4,1.03-.42l-2.72.15Z"/><path d="m330.97,77.89c.06-.33,3.31-.81,2.49-1.1-1.31.13-2.62.29-3.94.39.5.24-.85.69,1.46.71Z"/><path d="m336.33,11.28c-.04-.28-1.25-.65-2.57-1.02-5.69-.71,1.17.65-.4.62.24.09.56.16.97.2l1.7.25c.36.03.46.03.3-.05Z"/><path d="m138.74,4.79l2.58-.29c-1.16-.36-4.31-.09-6.28-.16l-.12.36.12.36c.7-.01,1.23-.05,1.76-.08.19-.21,1.07-.21,1.93-.19Z"/><path d="m189.37,83.21c-.22-.32-3.04-.27-3.87-.51l-2.07.1,1.66.28c1.37.14,2.79.2,4.28.14Z"/><path d="m110.58,9.3l1.52-.87c-1.35.17-2.71.36-4.05.56l-.12.47,2.65-.16Z"/><path d="m50.61,18.41c-.82-.12-1.88-.12-3.98.81,1.09-.11,1.63.24,3.98-.81Z"/><path d="m389.95,68.84l-3.91,1.27c-.08.46,2.09-.25,4.02-.85l-.11-.43Z"/><path d="m39.29,21.03c-1.85.54-3.94,1.15-5.16,1.82,2.76-.48,4.09-1.16,5.16-1.82Z"/><path d="m188.68,3.42c1.28-.01,2.76-.11,4.43-.29-1.42.07-2.28-.1-4.43.29Z"/><path d="m430.56,45.6l-.64.81c-.44.67-.91,1.33-1.47,1.93l.18.02c.89-.71,1.54-1.68,1.93-2.76Z"/><path d="m155.81,6.36s.03-.07.17-.1c-.19.03-.38.05-.6.06-.11.13-.23.27-.35.41l.78-.37Z"/><path d="m431.23,41.95c.12-.43.12-1.25-.17-2.17-.27.06.02.73.17,2.17Z"/><path d="m198.66,5.94c-.15-.14.09-.35-1.35-.31-1.05.03-.85.18-.08.27l1.42.04Z"/><path d="m134.92,4.7l.12-.36c-1.33.13-2.25.29-2.67.5l2.55-.14Z"/><path d="m141.41,4.4l3.4-.22c-1.44-.17-2.58-.11-3.4.22Z"/><path d="m337.33,76.73l-.02-.5c-.86.05-1.3.14-1.33.26.13.13-.48.38,1.35.24Z"/><path d="m65.63,69.35l.35.39c1.35.19.55-.12.86-.17-.4-.11-.8-.18-1.21-.22Z"/><path d="m245.37,2.74c1.29.09,2.66.22,2.8-.16-1.18-.05-2.35-.09-2.8.16Z"/><path d="m354.14,5.38c-1.99-.35-3.99-.56-5.98-.82-2-.24-3.99-.54-6-.81-1.4-.14-2.02-.14-2.15-.04l-.21.33c2.21.26,2.93.45,2.12.54-.38.05-.91.1.55.28.43.05,1.11.12,1.68.18.29.02.54.05.73.06.19.01.3.02.3,0-.21-.52,5.65.23,7.97.3.47.02.68-.03,1.01-.04Z"/><path d="m270.04.46c-2.74-.08-5.49-.17-8.16.07,4.61,0,.85.42,4.09.48l5.19.15c-.66-.23-3.42-.42-1.11-.7Z"/><path d="m406.12,20.86c.96.52,2.08,1.1,3.28,1.71,1.21.6,2.52,1.2,3.83,1.88-.01-.18.44-.15-.15-.58-.8-.56,2.78,1-.37-.62-2.2-1.09-1.87-.65-1.7-.39.07.12-.03.38-1.36-.53-2.44-1.68-2.17-.79-3.53-1.48Z"/><path d="m315.25,1.44c-1.3-.11-2.6-.24-3.9-.32-.51.1-3.86.07-.92.33,3.11.26,4.17.17,4.82-.02Z"/><path d="m324.53,2.17c1.14.03,2.19,0,1.5-.13-2.07-.41-4.47-.3-6.77-.46.18.34,3.19.38,5.27.6Z"/><path d="m393.31,14.82c-1.63-.57-3.26-1.14-4.91-1.62.2.3,1.74.85,3.69,1.53,1.52.5,1.08.16,1.23.09Z"/><path d="m428.85,48.74c-.22.28-.45.55-.73.81l.08.29c1.11-1.09,2.32-2.61,2.41-3.35-.23.42-.54.79-.83,1.17-.27.39-.62.73-.94,1.08Z"/><path d="m310.34,1.09c-.53-.27-2.37-.28-4.23-.29l.12.23c1.38.02,2.74.04,4.1.06Z"/><path d="m335.17,4c.28.05.54.1.8.15l.75-.03c-.33-.05-.72-.12-.98-.14-.25-.02-.38,0-.57.02Z"/><path d="m402.44,19.31c.93.37,1.84.77,2.77,1.16-.32-.21-.53-.43-.99-.64-1.33-.6-1.37-.46-1.78-.52Z"/><path d="m325.66,2.58l-1.24-.32c-1.97,0-.44.16,1.24.32Z"/><path d="m306.24,1.03c-.7-.02-1.73-.09-1.72.01,0,.02.5.08.76.09,1.19.05.86-.05.96-.11Z"/><path d="m339.8,4.04l.21-.33c-1.68-.07-1.83.03-.21.33Z"/><path d="m374.62,10.22c-.01-.06-.21-.1-.39-.15.01.06.21.1.39.15Z"/><path d="m426.24,51.59l.05.15c.65-.62,1.31-1.22,1.89-1.89-.59.61-1.27,1.17-1.94,1.74Z"/><path d="m329.6,2.8l.29.07c-.11-.02-.22-.05-.29-.07Z"/><path d="m305.47.78l-.37-.14c-1.13.02-.9.07.37.14Z"/><path d="m210.38,4.12c-1.58.31-4.03.59-2.23,1.04.77.19,1.7.36,3.32.38,2.4.02,2.68-.25,3-.5-1.25-.29-1.87-.6-.81-.95.49-.16.37-.32-1.05-.33-1.71-.02-1.97.18-2.23.37Z"/><path d="m320.85,6.86c-3.47-.37-2.37.17-2.71.43,1.28.19,3.09.27,3.23.67.07.2,1.28.58,2.42.66,1.17.09,2.27,0,2.71-.12.73-.21-1.53-.38-2.22-.55-1.35-.35-2.31-.72-3.43-1.09Z"/><path d="m254.17,4.86c2.37.92,6.75.55,10.89.35-3.03-.5-6.47-.74-10.89-.35Z"/><path d="m250.95,4.94c.44-.02.89-.03,1.34-.05.23-.05.37-.13.69-.16,2.49-.24,4.15-.51,1.58-.92-.67-.11-2.52-.22-2.21-.03.75.45-7.46.65-1.4,1.16Z"/><path d="m222.25,5.36l3.75.08c.04-.26,3.17-.64-.16-.75-2.46-.08-4.18.25-3.59.68Z"/><path d="m239.97,4.93l4.17.5c-.1-.23,2.15-.47.23-.66-1.52-.15-3.16-.04-4.4.16Z"/><path d="m312.79,6.88c-.75-.16-1.19-.29-1.63-.34-.48-.05-.95-.02-1.42-.02.39.1.75.22,1.19.28.46.06,1,.04,1.87.07Z"/><path d="m246.95,5.43l3.61-.15c.17-.03.34-.05.52-.08l-.17-.19c-1.62.08-4,0-3.96.42Z"/><path d="m218.94,5.38c1.07.15,2.14.33,3.23-.01h-3.23Z"/><path d="m304.9,7.07c-.36-.08-.55-.06-.73-.05.13.03.26.06.73.05Z"/><path d="m121.93,79.01c1.44.11,3.1.3,3.99.14.69-.49,5.03.28,6.79.07.67-.08,2.84.64,3.84.32.61-.19-1.53-.57-2.86-.87-1.35-.3-2.41-.42-4.31-.38-2.39.04-5.16,0-7.23-.77-1.24-.46-3.55-.42-4.91-.42-2.37-.02-.48.33.87.6,2.15.44,4.27.9,3.82,1.3Z"/><path d="m171.25,80.3c-.11.16.26.36-.95.43-.31.2-3.5.1-1.94.48.55.13,1.81.3,2.64.32,2.79.07.95-.33,1.57-.49.34-.09.6-.19,1.12-.26,1-.13,3.93-.11,2.84-.37-1.25-.3-3.37.02-5.28-.11Z"/><path d="m161.77,80.55c-.28-.05-.54-.09-.8-.13l-.76.12c.33.03.71.09.99.1.24,0,.38-.06.57-.09Z"/><path d="m97.38,76.21l-1.28-.17c.42.05.86.11,1.28.17Z"/><path d="m221.8,2.44c-.27-.06-.35-.15-2.09,0,.24.06,1.07.04,2.09,0Z"/><path d="m41.02,65.64l2.57.72c.09-.21-.42-.68.4-.56,1.43.23,2.71.45,2.31.06-.2-.18-.97-.34-1.29-.36-1.17-.07-4.86-1.14-4.01-.4.28.24.03.37.02.54Z"/><path d="m33.76,62.91c.73.41.7.68,2.49,1.23.25.08.92.14.86.06-.26-.4-2.02-.8-3.35-1.3Z"/><path d="m6.54,50.34c.3.26.61.49.92.73.08-.12.36-.07-.82-1.03l-.09.3Z"/><path d="m55.08,68.25l.36-.22c-1.5-.34-1.31-.13-1.54-.06l1.18.28Z"/><path d="m48.77,67.31l-.39-.34c-1.25-.17-.01.17.39.34Z"/><path d="m265.97,1.01c-3.24-.07.52-.49-4.09-.48-1.68.02-2.86.12-3.74.23-1.85.23-4.13.45-.67.62,5.44.25,5.67-.25,8.49-.36Z"/><path d="m244.14,1.66c1.87-.08,4.87.07,4.7-.23-.06-.1-.81-.28-2.93-.17-2.05.11-5.06.32-5.17.43-.22.22,2.45-.07,3.41-.04Z"/><path d="m246.17.89c-1.47-.07-2.38-.17-3.45-.15-1.34.03-3.74.11-3.83.28-.05.1.83.16,2.26.11,1.54-.08,3.03-.15,5.01-.25Z"/><path d="m228.32,2.13c-.18-.06-.19-.14-1.55-.07-.42.02-.65.1-.97.16l2.52-.09Z"/><path d="m251.34,1.18c-.42.04-.16.04.1.04l-.1-.04Z"/><path d="m230.81,2.13l-.59.02-.59.02c.4.03.79.02,1.18-.04Z"/><path d="m161.13,5.76c-.28-.3-1.63-.37-3.52-.22-2.4.18-1.44.47-1.67.72,2.34-.02,2.41-.6,5.18-.5Z"/><path d="m191.1,4c.07.28-.67.64,2.52.64-.2-.23.43-.5-1.08-.68l-1.44.03Z"/><path d="m161.15,5.75l.29.07c-.1-.02-.21-.04-.29-.07Z"/><path d="m233.88,82.9l2.37.06c-.42-.13.79-.38-1.1-.38-1.08,0-1.34.18-1.26.33Z"/><path d="m265.82,82.79c2.13-.04,4.32-.06,4.3-.49-1.59.13-3.36.24-4.3.49Z"/><path d="m126.14,7.02c2.62-.33,5.33-.83,6.06-.07.33.34,3.68,0,5.59,0-1.07-.36-1.92-.74-3.25-1.07-2.85-.72-8.01-.49-12.17.5-.52.13-.77.28-1.41.38-2.38.35-2.49.97-.1,1.03q1,.02,1.54-.41c.25-.2.16-.45,1.97-.57.55-.04,1.18.14,1.78.22Z"/><path d="m106.58,8.99l1.41-.13c2.42-.89-1.49-1.06-1.44-1.68l-3.87.76c-.31.59,4.88.34,3.9,1.04Z"/><path d="m112.94,6.41c-1.42.12-2.89.2-3.92.5.04.02.01.07.14.07,1.77.01,1.5.66,3.63.36,3.14-.43-.42-.56.15-.93Z"/><path d="m119.91,6.4c.37-.09.81-.16.77-.19-.12-.09-.41-.16-.64-.24-.17.06-.47.14-.47.19,0,.08.19.15.34.24Z"/><path d="m138.74,4.79c-.86-.02-1.75-.02-1.93.19.82-.01,1.98.1,1.93-.19Z"/><path d="m135.04,5.06l-.53.12c.23-.04.47-.07.53-.12Z"/><path d="m76.88,71.82l-3.64-.6c-1.2.51-7.25-.74-9.33-.59.15.27-.42.48,2.51,1-1.18-.56.98-.33,2.34-.19,1.66.18,2.4.57,2.98.85l3.69.66c7.06.46,7.2.32,1.45-1.13Z"/><path d="m71.74,72.29c-.59-.28-1.32-.67-2.98-.85-1.36-.15-3.51-.37-2.34.19,2,.35,4.44.97,5.32.67Z"/><path d="m89.95,74.9c-3.39-1.36-4.65-.55-6.94-.82,2.76.74,4.88.8,6.94.82Z"/><path d="m97.41,76.21l-1.33-.17c.42.22.87.29,1.33.17Z"/><path d="m58.03,16.36c2.5-.51,2.58-.78,2.73-1.07-.45-.27.88-.46,2.29-.64.72-.51.08-.84,3.69-1.61.66-.57-3.29.3-3.9.15-5.01,1.56-5.25,2.43-4.81,3.17Z"/><path d="m98.94,9.45l1.62-.24c-.93-.06-1.15.13-1.62.24Z"/><path d="m370.56,72.66c-.58.26-.72.45-.86.63,1.29-.25,2.58-.51,3.86-.76l1.93-.38,1.91-.45c2.3-.55,2.3-.77,2.35-1-1.37.29-3.03.75-3.89.72-1.76.44-3.53.82-5.3,1.23Z"/><path d="m377.4,71.71l-1.91.45-1.92.38-3.85.76-.04.35c2.98-.55,5.96-1.03,8.91-1.73l-1.19-.2Z"/><path d="m370.56,72.66c1.77-.41,3.54-.79,5.3-1.23l-.07-.36c-1.74.38-3.49.7-5.23,1.06v.53Z"/><path d="m405.62,62.19c-.1-.12-.29-.23-1.64.25-.61.22-1.36.65-2.05.99.93-.16,2.35-.73,3.69-1.25Z"/><path d="m375.86,71.44c.86.02,2.51-.44,3.89-.72-.83-.04-2.39.36-3.89.72Z"/><path d="m391.19,68.32c-.02-.09,1.14-.5,0-.27-.12.02-.47.13-.57.18-.7.31-.25.26.58.09Z"/><path d="m9.2,32.71c1.8-1.27,4.08-1.08,5.7-3.04,0-.86-4.11,1.58-6.03,2.64.12.13.22.27.33.41Z"/><path d="m33.96,21.56l-.5.2c.15-.06.31-.12.5-.2Z"/><path d="m8.87,32.31l-.28.09c.1-.03.2-.06.28-.09Z"/><path d="m426.24,51.59c.67-.57,1.35-1.13,1.96-1.76l-.08-.29c-.66.63-1.15,1.1-1.47,1.42-.32.33-.45.54-.4.63Z"/><path d="m280.82,82.19c6.66.16,7.41-.49,7.39-1.14l-1.45-.67c-4.95-.27-7.73.47-11.57.73-.45.62-.11,1.14,5.63,1.08Z"/><path d="m343.53,76.71l.56-.05c-.02-.07-.25-.05-.56.05Z"/><path d="m250.56,5.28l.93.06c-.14-.05-.28-.1-.41-.14-.18.03-.35.05-.52.08Z"/><path d="m330.93,77.9c.45,0,.91,0,1.38,0,.01,0,.24-.06.36-.1-.57.03-1.13.07-1.74.1Z"/><path d="m257.02,81.15l-2.49-.14c.18.22.3.46,2.49.14Z"/><path d="m369.7,73.3c.14-.19.28-.37.42-.56-1.26.25-2.66.52-2.84.76-.18.25,1.05.06,2.42-.2Z"/><path d="m50.22,17.73c.1-.22.1-.41-1.17-.24.18.14-.34.47,1.17.24Z"/><path d="m43.83,18.27h.28c-.1,0-.2,0-.28,0Z"/><path d="m53.91,16.14c-.29-.07-.31-.26-.95-.18-.83.11-1.57.45-1.29.48.56.08-1.93,1.07,1.95.15.1-.15.19-.3.29-.45Z"/><path d="m53.91,16.14c-.1.15-.19.3-.29.45,1.92-.51,1.73-.6.29-.45Z"/><path d="m15.93,55.98c.15.11.28.22.46.35.02.02.43.18.46.17.07-.02.02-.09.03-.14l-.95-.38Z"/><path d="m184.32,81.78l.52-.03c-.2,0-.39.01-.52.03Z"/><path d="m314.44,6.09l2.03.09-.49-.18c-.54.01-1.09.04-1.54.09Z"/><path d="m4.79,49.62c.31.31.62.61.94.91l-.17-.4c-.25-.17-.52-.33-.77-.51Z"/><path d="m5.56,50.13c-.42-.41-.81-.84-1.2-1.28.02.16.22.46.43.76.25.18.51.34.77.51Z"/><path d="m63.05,14.66c-1.42.18-2.74.37-2.29.64l2.29-.64Z"/>
                  </g>
                </mask>
              </defs>
              <path class="mask" d="m359.15,14.47c-7.62-1.74-19.08-4.12-33.22-6.13-28.74-4.07-51.09-4.09-64.01-4.06-83.18.23-125.57.7-157.93,4.26-32.04,3.53-61.43,8.51-84.81,18.8C10.68,31.09,1.91,35.46,1.82,41.45c-.12,8.36,16.44,15.02,23.01,17.66,50.55,20.32,157.77,22.3,165.04,22.41,2.42.04,5.68.08,9.64.12,131.93,1.2,180.45-6.77,213.46-22.16,9.73-4.54,19.31-10.26,19.34-17.6.01-3.5-2.13-11.66-29.38-22.78C369.98,5.66,328.3-.69,246.8,1.31c-23.23.57-54.61,1.94-91.71,5.38"
                    mask="url(#path-mask)" stroke="black" stroke-width="2" fill="none"
                    stroke-dasharray="1106.1214599609375" stroke-dashoffset="1106.1214599609375">
              </path>
            </svg>
        