
            <svg xmlns="http://www.w3.org/2000/svg">
              <defs>
                <mask id="path-mask">
                  <g fill="white">
                    <path d="m252.23,60.41c2.19-.7.7-.66,1.08-1l1.63-.29c1.36-.11,2.92-.4,4.23-.47,2.69-.19,7.38-1.91,9.13-3.26,1.39-.42,2.19-.87,2.7-1.26.93-.26,2.02-.76,3.05-1.24,1.05-.45,2.02-.91,2.79-1.04.48.08,2.14-.44.99.46-.84.62-1.81,1.24-3.41,1.71-1.31.42-2.46.89-3.09,1.41l-1.2.47c-1.45.69-3.75.66-4.69,1.74-.24.07-.58.17-.86.26-.28.08-.51.16-.51.16-1,1.01-3.91,1.61-6.39,2.2l-.08-.16c.65-.26.5-.27-.26-.08-.12.04-.25.08-.38.12l-.15-.23c.41-.13,1.03-.27,1-.38,0-.02-.32.01-.47.06-.71.2-.48.24-.54.32-.8.27-1.6.51-2.4.76-.2.06-.4.11-.6.16.27-.22,2.23-.85.43-.56-1.9.31-2.48.69-2.8,1.02-.3.33-1.08.56-2.38.7-.2-.32-1.99.19-3.25.42l.04-.13c1.14-.45.21-.28-.81-.09-1.43.05-1.48.43-2.35.61l-.19-.02h.21c-.04.24.53.4-2,.81-1.58.24-2.91.56-2.58.85l-1.55.32-1.45-.2c.85-.15,1.21-.3,1.26-.44,1-.31,1.06-.46.04-.42-1.36.22-1.82.16-1.38-.13.21-.14.5-.32-.4-.19-.52.07-1.65.35-1.63.39.26.55-3.33,1.13-4.68,1.67-.28.11-.38.22-.57.33l-.22.2c-3.21.5-6.62.75-9.46,1.56-.72.2-1.76.18-2.5.18-1.33,0-2.21.17-2.9.47-2.08.14-4.17.29-6.25.39l-.13-.17c-.2-.24-1.21-.27-2.47-.12-.98.11-.64.28-.7.42-3.45.41-6.91.79-10.54,1.1l.15.05c-.04.08.25.15-.44.22-.19.12-.25.25-1.15.3.28-.42-1.46-.4-2.87-.38-3.05.04-6.59-.02-9.25.35-1.84.25-3.08.32-4.88.38-1.09.04-.47.3-.56.47-3.49.15-6.98.27-10.47.36v-.32c.69-.2.52-.37.18-.57-.59-.34.29-.53,2.16-.55l1.64-.2c.98-.04,2.17-.02,2.59-.29l-1.81-.04c-.23-.15-1.3-.28.07-.45.72.16,1.46.16,2.2-.06l2.6-.08c1.09.5,3.2.76,5.53.98,1.62-.41,3.99-.76,4.31-1.29,2.28-.04,4.56-.07,6.85-.36.07.17-.18.39.28.48.6.12-1.77.53.4.41,1.5-.09,1.19-.31,1.02-.5-.08-.09-.11-.4.89-.16,1.83.43,1.4-.3,2.95-.32.24.06.42.18.73.17.9-.03.88-.2,1.11-.32,2.91-.17,5.72-.66,8.83-.69,1.62-.02,2.43-.53,2.88-.87,4.74-.46,9.48-.99,14.21-1.59,0,.09-.14.21.03.27.47.17-1.75.9.71.58,2.17-.29.25-.43.53-.67.08-.07.8-.2,1.22-.3,3.95-.86,8.26-1.46,12.37-2.18,1.2-.2,3.08-.9,4.11-.68,1.16.22,8.34-.81,10.57-1.52Zm-13.68,2.29l-.43.2c.21-.02.45-.04.61-.07.15-.04.22-.1.32-.15-.17,0-.34.01-.5.02Zm-23.47,3.85c-.09,0-.22.01-.33.02.02.06.15.04.33-.02Z"/><path d="m257.18,4.05c5.35.36,10.59,1.15,15.88,1.83.58,1.12,4.07.96,6.26,1.37.4.36.3.73,2.7.71,1.47,0,3.48.29,5.38.56.75.2-.11.37-.42.56-.16.09-.18.19.16.28.35.07,1.07.21,2.4.47.75.27,1.84.56,1.8.95-.02.2.6.68,1.25.92.67.24,1.36.34,1.67.29.52-.08-.79-.59-1.15-.85-.7-.52-1.18-.98-1.78-1.45.52-.08,2.3.86,2.35.48.44.52,1.69,1.09,2.76,1.68,1.08.58,1.98,1.17,1.77,1.49-.21.32-1.9-.2-2.75-.13-.88.04-3.71-1.36-6.01-2.2-1.03-.38-1.99-.81-3.07-.98-1.1-.16-2.41-.64-3.26-.44-.9.21,2.16.45,1.55.75-1.79.06-3.64-.06-5.63-.54-.08-.62-.56-1.13-3.66-.98-2.31.12-5.06-1.12-7.32-.7l-.84-.07-1.58-.36c-2.61-.92-5.49-1.32-8.68-1.09-.91-.34-1.88-.62-2.97-.81-1.09-.17-2.3-.24-3.67-.18l-1.15-.08c.14-.04.23-.1.43-.12,1.55-.1,2.59-.27,1.05-.8-.4-.14-1.53-.35-1.35-.15.42.47-4.63.22-.99,1.11-1-.01-2.45-.22-2.46.19l-1.72-.16c-.04-.22,1.35-.33.2-.63-.92-.23-1.94-.22-2.71-.09l-1.09-.11c-2.23-.26-2.34-.66-2.63-1.07-.17-.24-.68-.45-1.75-.52-.4-.03-1.03.02-1.16.1-.37.21.5.32,1.17.45,2.44.49-2.03.6.09,1.09-.56.34-1.94.22-3.23.15v-.26c.04-.25,1.98-.48-.05-.74-1.5-.19-2.58.06-2.3.51l-1.98-.13-2.72-.55c-.75-.35-1.11-.67-.44-.97.31-.14.24-.29-.62-.37-1.05-.1-1.22.09-1.39.26l-1.47-.25v-.58c2.49.15,5.32.13,6.95.96.62.32,1.55.23,1.72-.05.12-.2-.06-.45,1-.5,2.18-.12,4.39-.12,6.63,0,2.23.14,4.48.42,6.76.79,2.72.99,8.52,1.34,12.07.95Zm28.12,4.97c-.29-.04-.59,0-.88.01.24.09.45.21.72.25.28.04.62.01,1.16.02-.45-.13-.72-.25-.99-.28Z"/><path d="m2.8,34.09c-.21.93-.32,1.6-.41,2.19-.11.59-.2,1.09-.24,1.63,0,.54-.61.36.2,1.89.72,1.18.88.7.99.37.12-.33.3-.55.48-.82.65,1.3,1.64,2.47,2.72,3.56-.18.2-.88.1.74,1.55,1.25,1.06,1.77,1.62,1.49,1.89-.29.08-1.84-1.14-1.29-.28.19.31.74.9,1.17,1.19,1.43.99.7.03,1.12.1.23.03.43.02.74.13.6.21,2.15,1.09,1.71.53-.5-.63-1.79-.98-2.7-1.72l.31-.42c3.72,2.56,7.6,4.77,11.49,6.92-.89.2-1.64.63-4.83-1.55-.52-.36-1.44-.82-1.77-.75-.36.07.3.52,1.05.97.11.4.23.79.23,1.16l-1.21-.47.8.71c-2.91-1.12-5.42-2.73-7.37-4.76-.38-.72-1.22-1.87-2.51-2.6-1.26-.69-2.59-2.23-3.58-3.9-1-1.69-1.53-3.49-2.13-4.54-.07-3.27,1.41-6.43,3.44-8.52.4.5,1.93-1.01,3.25-2.21,1.17-1.1,1.97-1.55,3.07-2.02-.02.36-.69.78-1.39,1.29-.71.5-1.5,1.08-1.81,1.56-.23.35-1.68.87-1.83,1.61-.09.44,1.03-.37,1.79-.74.77-.39,1.3-.75,2.13-1.59.52-.53,1.14-1.04,1.8-1.44.66-.41,1.35-.73,2.08-.75.86-.04,1.97-.96,2.68-1.39,1.22-.81.1-.46-.75-.25-1.32.37-2.63.78-2.63.25l.7-.56c.43-.02.9-.14,1.41-.3.52-.15,1.07-.36,1.64-.6,1.13-.51,2.38-1.04,3.55-1.46.9-.36,2.92-1.31,2.53-.44-.09.21,2.64-1.05,2.67-1.23.05-.42.83-.64,1.87-.97l.77-.24c1.4-.56,3.04-1.3,2.65-.42-.61.61-.58.59.67.36.55-.11,1.29-.19,1.44-.11.51.26-1.68.75-1.95,1.12-2.16.68-4.29,1.8-6.33,1.75-.52,0-1.79.73-1.69.75.46.12-2.43,1.25-.27.8-.02.2-.25.29-1.08.6-2.74.96-5.56,1.88-7.98,3.58-1.02-.98-3.38,1.66-4.85,2.8-1.7,1.4-2.48,2.88-3.6,4.63-.06-.31.03-.87-.09-.95-.06-.04-.18.04-.39.36-.19.32-.49.86-.7,1.77Zm1.71,8.47c-.14-.08-.29-.17-.42-.26.11.18.23.38.35.51.11.11.21.13.32.19-.09-.15-.17-.29-.25-.44Z"/><path d="m287.48,13.7c-2.45-1.56-5.41-3.49-7.92-4.43-1.94-1.37-5.36-2.56-7.92-3.64-.73-.31-1.02-.4-1.57-.55-1.68-.47-2.3.02-.54.74,1.85.78,2.38,1.14,2.78,1.5.42.38,1.24.93,3.1,1.4.21.05.93.34,1.23.49,2.9,1.49,5.74,2.82,8.43,4.58,3.07,2.02,5.99,4.33,8.25,7.17,1.12,1.42,2.05,3,2.65,4.68.62,1.68.81,3.49.64,5.26h.22c.09-.6.08-1.1.16-1.24-.03-.54-.05-1.14-.18-1.7-.1-.56-.19-1.1-.33-1.53-.52-2.12-2.1-4.29-2.94-5.8-.24-.46-1.53-2.2-3.16-3.73-1.61-1.54-3.48-2.89-4.15-3.28-.22-.13-.48-.23-.46-.18.16.43-.96-.47-1.49-.85-.62-.49-1-.79-1.54-1.21-.31-.23-1.41-.76-1.26-.78.09-.02.74.26,1.57.7,1.75.92,4.03,2.53,4.44,2.4Z"/><path d="m78.14,6.49c-1.92.37-4.23.59-5.44,1.25.56-.02,1.3.02,1.68-.06,1.47-.34,2.86-.73,4.01-.41.95.27-.29.64-1.16,1.02-1.55.67-2.81.62-4.16.49-.84-.09-2.22.03-2.86.28-2.2.86-3.28.51-4.67.44-.87.11-1.95.35-2.22.09-.05-.05.32-.25.48-.27,1.14-.16,1.21.09,1.73.18l2.29-1.31c-1.71-.52-3.73.27-5.67.74.09.25,0,.5-1.41.77.05.17-.04.38.19.52.7.4-1.64.71-2.3,1.08-.18.1-.65.24-.82.12-.34-.23.42-.47,1.27-.78.48-.18.05-.45.04-.68-.73.39-3.01.34-3.14.9.3.01,1.08-.08.34.18l-.32-.19c-1.14.08-.54-.51-1.93-.24-.49.09-.82.53-1.23.81.05.15-.1.32-.75.51.04.05.1.1.15.15l.74-.12c1.28.07,5.16-.3,0,.88-.34.08-.45.33-.67.5,2.24-.41,4.54-1.11,6.66-.89.26.02,3.2-.92,5.21-1.26.52-.31,1.2-.46,2.41-.66,3.54-.61,7.33-.65,10.66-1.64,1.44.38,3.82-.56,5.3-.42,1.45.13,2.6.1,4.33-.39,2.35-.65,3.42-.48,3.54.1l3.93-.48c-.22-.34.84-.69,1.6-1.03-1.85-.29-3.78-.56,0-1.41.48-.11.15-.23-.35-.26-1.51.53-3.83.24-5.1.71-2.92,1.06-2.41.27-2.85-.02l-.84.11c-.05.22-.49.39-1.45.51-.08.29-.71.45-1.63.58l.11.29c-.92.08-.79-.09-.81-.23-1.83-.07-4.54.19-4.91-.44Z"/><path d="m282.26,49.87c.91-.52,1.47-1,1.86-1.4.83-.84,1.85-1.79-.06-.83-1.48.77-2.22,1.22-2.73,1.67-.51.45-.82.85-1.57,1.3-.97.44-1.94.88-2.94,1.26-.76.13-1.74.59-2.79,1.04-1.03.48-2.12.98-3.05,1.24l-.15-.28c.87-.31,1.76-.75,2.59-1.17.83-.41,1.63-.76,2.3-.94,1.71-.43,3.28-1.31,5.01-2.36,3.38-2.06,6.52-4.51,9.37-7.27,2.79-2.76,5.27-5.97,6.25-9.74.15-.1.26-.08.11.9l-.52,1.43-.43.67c-.15.19-.25.4-.3.64-1.16,2.22-2.1,3.32-2.35,3.84-.3.49.04.39.82-.25.05-.04.07-.04.11-.06,1.24-1.91,2.06-3.09,2.79-4.37.66-1.28,1.35-2.68,1.36-5.03.07-1.96-.65-4.42-.52-5.01.23.6.47,1.25.64,1.81.15.57.25,1.04.21,1.26-.19.84-.02,2.18-.19,3.5-.32,2.34-1.21,4.52-2.42,6.46-1.22,1.94-2.7,3.68-4.32,5.33-1.16,1.17-2.41,2.26-3.68,3.29-.66.51-1.33,1.03-2,1.52l-2.09,1.4c-2.85,1.77-5.86,3.25-8.88,4.62-1.2.56-3.12,1.43-3.35,1.11.63-.52,1.77-.99,3.09-1.41,1.6-.47,2.57-1.09,3.41-1.71,1.57-.66,3.16-1.34,4.45-2.44Zm6.07-5.36c.1.07.61-.06,1.52-1,.9-.9,2.05-2.37,1.99-2.51-.1-.28-1.01,1.1-1.49,1.45-.79.84-2.33,1.84-2.02,2.05Zm3.45-1.85c.29-.31.7-.74,1.01-1.12.3-.39.51-.73.45-.81-.07-.1-.49.26-1.09.92-.64.71-1.24,1.43-2.12,2.3.77-.52,1.27-.82,1.75-1.29Zm-4.17,2.73l-.38.3h.08c.28-.23.28-.26.3-.3Z"/><path d="m214.01.95c-2,.08-3.55-.08-5.79-.32-3.25-.37-7.33-.29-11.04-.33-1.86-.02-3.84-.27-5.58.02l-.03.54c.41.25,1.45.66.2.73-3.71.22-3.23,1.2-5.79,1.6,1.36,0,2.57-.09,3.64-.26.14,0,.26-.02.35-.04.15-.25-.43-.58,1.05-.67,1.17-.08,1.99.04,2.15.35l.19.08-.18-.08c-1.71-.2-1.78.39-3.2.33-.09.03-.12.06-.11.1,1.62.59,3.61.06,5.39.17,2.28-.54,4.68-.41,7.09.13.72.16,1.19.38,2.01.07,1.26-.47,3.07-.24,4.8-.01,2.51-.3,1.38-.84.79-1.36-.15-.14-.67-.33.21-.38.75-.04,1.19.12,1.49.28l.89.03c-.45-.43,1.93-.52,1.46-.95Z"/><path d="m49.84,63.73c1.5.58,3.08,1.14,5.28,1.27,2.78-.02,5.63.37,8.62,1.23.61-.14,1.7-.02,2.69.02l1.6.37c-.17-.19-.43-.53-.5-.54-2.97-.3-4.86-1.24-7.7-1.64-2.07-.29-3.95-.65-4.4-1.3-.01-.02-.22-.06-.33-.09-.4,0-.8-.02-1.2-.03.23.69-1.83.23-3.4-.13-5.15-1.18-10.42-2.03-15.49-3.84-3.05-1.09-3.24-1.04-1.58-1.22.5-.06.87-.2,1.29-.3-2.97-.74-6.17-2.19-8.69-2.47.51.26,1,.54,1.55.77.9.39,2.37.46,2.64.99.12.21-1.44,0-2.43-.18-.52-.1-1.43-.49-2.17-.76-.61-.24-1.26-.54-1.61-.51-.47.04.12.4.71.76.92.57,1.06,1,2.63,1.59,1.85,1.08,4,2.02,6.71,2.61,3.18.37,6.72,1.28,10.32,2.11-.02-.15.18-.3.83-.15,1.14.27.36.35.58.53,1.63-.18,3.32-.48,4.06.9Z"/><path d="m295.94,34.71l-.43.67-.15.32-.15.32c-1.16,2.22-2.1,3.32-2.35,3.84-.3.49.04.39.82-.25.05-.04.07-.04.11-.06,1.24-1.91,2.06-3.09,2.79-4.37.66-1.28,1.35-2.68,1.36-5.03.07-1.96-.65-4.42-.52-5.01-.3-.65-.7-1.54-1.18-2.34-.23-.41-.47-.78-.72-1.1-.23-.33-.46-.59-.66-.77.6,1.17-.37.28-.76-.26-1.22-1.54-.29-.76-.36-1.07-.02-.06.05-.04.07-.05-.78-1.38-2.88-2.99-4.12-4.15-.88-.59-1.62-1.14-2.2-1.7-.42.13-2.7-1.48-4.45-2.4-.84-.44-1.48-.73-1.57-.7-.14.02.95.55,1.26.78.54.42.93.73,1.54,1.21.53.38,1.65,1.28,1.49.85-.02-.05.24.06.46.18.67.39,2.54,1.74,4.15,3.28,1.63,1.53,2.92,3.27,3.16,3.73.85,1.51,2.42,3.68,2.94,5.8.14.43.23.96.33,1.53.14.56.16,1.15.18,1.69.07.53.04.8-.01.97-.04.16-.1.21-.15.28h-.22s-.09.74-.09.74c-.04.25-.12.49-.17.74.15-.1.26-.08.11.9-.02.2.02.36-.06.6-.26.79-.35.76-.45.83Z"/><path d="m178.83,3.03l-.05-.22c-.65-.42-1.16-.86-1.97-1.27-1.73-.87-4.91-.96-7.5-.18-.32.09-.48.24-.88.3-1.47.2-1.56.83-.09,1.06q.61.09.96-.32c.16-.19.11-.45,1.23-.47.34,0,.72.21,1.09.33,2.1.12,1.97.59,2.44.95-2.39.23-4.84.27-7.31.16,1.01-.61-1.41-.71-2.57-1l-1.24.38-2.52.24s-.05-.1-.03-.15c1.52-.71-.88-1.23-.82-1.86l1.52-.06s0,.07.08.08c1.08.17.9.81,2.22.68,1.95-.19-.24-.62.13-.95l.9-.43c3.7.03,7.48-.25,11.09.09h1.57s.07.37.07.37l-.33.1.43-.07h.99c.5.02,1.21.19,1.19-.11l1.6-.19-.22.06-.24-.06c1.09.42,3.81.35,4.58,1.06.36.33,3.79-.23,5.66-.48.31-.04.51-.13.76-.19.41.25,1.45.66.2.73-3.71.22-3.23,1.2-5.79,1.6-2.47.18-4.85.2-7.14-.15Zm-10.55-1.95c-.07-.1-.25-.2-.39-.3-.1.05-.29.11-.3.16,0,.08.11.17.2.27.23-.06.5-.11.48-.14Z"/><path d="m60.75,9.7c1.41-.27,1.5-.52,1.41-.77l-1.34.15-1.02.2c-2.57.29-5.06.55-7.71,1.28-1.08.3-2.67.63-4.02.69-1.48.07-4.2.63-4.65.78-4.74,1.66-9.48,2.46-14.2,3.47-1.73.38-2.72.96-4.1,1.41-3.53,1.11-7.03,2.38-10.44,3.96-.86.37-1.7.8-2.54,1.25l-1.26.66-1.23.75c-.83.5-1.63.99-2.4,1.56-.78.56-1.56,1.16-2.3,1.81-.64.55-1.32,1.14-1.49,1.66.4.5,1.93-1.01,3.25-2.21,1.17-1.1,1.97-1.55,3.07-2.02.34-.48,1.26-1.04,2.07-1.46l.7-.56c.43-.02.9-.14,1.41-.3.52-.15,1.07-.36,1.64-.6,1.13-.51,2.38-1.04,3.55-1.46.9-.36,2.92-1.31,2.53-.44-.09.21,2.64-1.05,2.67-1.23.05-.42.83-.64,1.87-.97.2-.24.47-.32.78-.24,1.38-.55,3.02-1.3,2.62-.42.39-.11.78-.22,1.17-.33,1.14-.6,2.35-1.16,4.13-1.27,1.3-.75,2.55-1.66,4.58-1.17l2.27-.47c.39-.55,1.94-.72,3.16-.99,1.79-.4,1.54-.02,1.71.2,1.94-1.04,4.06-1.26,6.22-1.19.4-.28.74-.72,1.23-.81,1.39-.27.79.32,1.93.24.11-.55,2.39-.51,3.12-.89l1.62-.25Z"/><path d="m145.96,1.04c-1.14-.29-2.4-.42-4.06.01.97.25,1.92.53.81.95-.88.33-1.58-.13-2.53.03-1.29-.53-1.99-.15-2.81.22-.93.42-1.86.56-2.53.1-2.26.25-1.88.69-2.26,1.08.37.4,2.2.43,3.11.7,1.53.29,3.53.27,5.42,0,1.43-.2,2.66-.28,4.04-.25,1.39-.28-.09-.9,2.34-1.01,1.8-.08,1.52.36,1.81.64l1.6-.11c-.12-.26-.35-.53-.34-.8,0-.18.74-.27,1.43-.3.6-.02,1.06.07.72.21-.5.21-1.9.44-.41.57.37.03,1.66-.34,2.53-.53.27-.07.41-.24.99-.09l-1.01.09c.63.73,2.62.53,4.71.27.63-.64-2.57-.85-2.36-1.44-3.44.44-3.42-.06-3.17-.62-1.38.13-2.54-.2-3.96.03.23.63-1.28,1.25-3.67,1.27-3.32.02,1.04-.61-.11-.87-.16-.04-.19-.1-.28-.16Z"/><path d="m136.8,71.24l1.3.02,2.52-.14.93-.02s-.05-.09-.08-.14c-.55-.07-.82-.15-.35-.25.07-.02.29-.02.37-.01.71.1-.04.18-.05.27,1.32.04,2.29-.05,2.9-.29,1.95-.77,5.03-.13,4.97.06-.2.59,1.89.55,3.4.7,1.9-.22,3.78-.44,5.71-.66.84-.1,2.47-.06,2-.37-.39-.25-2.15-.03-2.59-.1-1.39-.24-3.52.54-4.3-.11-1.05-.03-2.3-.03-2.46-.33-.89,0-1.83.03-2.4-.15-1.95-.04-3.91-.1-5.83-.17-3.82-.17-7.13.42-10.98.1v.37c.94,0,1.93,0,2.42.23-.06.21-.1.42-1.55.41l.67.49,3.4.08Z"/><path d="m95.61,4.99c.5.03.84.15.35.26-3.78.85-1.85,1.12,0,1.41l1.47-.19-.08-.54-.19-.06.18.06c1.36.05,4.23-.64,4.08.17,2.22-.28,4.29.22,6.72-.53.35-.11,1.92-.03,2.02.27l2.35-.12c.98-.54,3.93-.94,3.31-1.58-.03-.03.5-.13.77-.19,1.82.95,2.46-.46,3.84-.37-.01-.06-.01-.12-.02-.18-4.1-.69-4.99.3-6.35,1.04l-.3.07.32-.06c-.81-.02-2.3.03-2.34-.07-.51-1.32-3.38-.22-5.75.07-2.47.31-5.3.83-7.54.47-1.09-.05-.98-.54-2.85-.3v.38Z"/><path d="m223.52,2.75l-1.47-.25c-3.6-.29-3.52-.88-3.12-1.49-1.18-.27-1.14.09-1.72.12,1.03.89-.78,1.55-4.05,1.49.73.47.77.91-.06,1.31.81.49,1.51.21,2.24.08-.47-.12-.59-.27.06-.26.89.01.73.22.81.36,1.87.71,4.7.42,6.72.49,3.32.14,6.91.71,10.09.41v-.26s-2.3-.24-2.3-.24c-.75.29-1.39.07-2.04-.13l-2.72-.55c-.21.23-.4.49-1.87.36-.99-.08-1.55-.28-2.02-.5-1.08-.51.44-.69,1.43-.94Z"/><path d="m153.54,70.21c.78.64,2.91-.13,4.3.11.45.07,2.21-.15,2.59.1.47.31-1.16.27-2,.37-1.93.22-3.81.44-5.71.66l.7.28h.93c2.57-.49,5.84-.28,8.74-.46.69-.2.51-.37.17-.57-.59-.34.29-.53,2.16-.55l.03-.16c.02-.22.57-.33,1.71-.33.24,0,.46-.02.68-.04-.23-.15-1.3-.28.07-.45l-.07-.16c-4.56.03-9.11-.07-13.69.21.74.35,2.1.71-.6,1.01Z"/><path d="m87.94,69.07c.95.07.8.75,2.52.38,1.29-.27,2.44.37,3.71.33.41-.63,2.1-.35,3.87.02,1.5.31,2.76.3,3.92.16,1.2-.15,1.74-.38.51-.76-1.68-.14-3.21-.49-5.02-.49-5.65-.02-6.28-.08-10.72-1.02-.11-.02-.32-.06-.35-.06-2.35.42-5.74-.86-8.13-.56.19.33.18.65,1.74.97.08-.21.45-.2,1.53-.05,2.28.32,4.4.65,6.43,1.06Z"/><path d="m153.54,70.21c2.7-.31,1.34-.66.6-1.01-1.78-.15-2.97-.49-5.51-.01-1.83.34-5.5-.03-8.43-.04-3.95,0-8.09.04-12.07-.29-1.74-.14-2.9-.16-2.72.3.17.45,1.59.49,3.17.45l3.29.07c3.86.32,7.17-.28,10.99-.1,1.93.08,3.89.13,5.83.17.47-.08,1-.22,1.4-.21.89.03.97.21,1,.37.16.3,1.41.29,2.46.33Z"/><path d="m114.06,4.42c1.36-.74,2.25-1.73,6.35-1.04l3.2-.47c.84-.2,1.71-.39,1.47-.67-1.51-.37-3.47.12-5.12.25-6.31.5-12.64.79-18.96,1.69-1.69.24-1.91.44-2.54.71,2.24.37,5.07-.16,7.54-.47,2.37-.3,5.23-1.39,5.75-.07.04.1,1.52.05,2.32.07Z"/><path d="m34.7,57.53c-.42.1-.79.24-1.29.3-1.66.18-1.47.13,1.58,1.22,5.07,1.81,10.35,2.66,15.49,3.84,1.57.35,3.63.82,3.4.13-2.82-1.21-6.03-1.73-9.61-2.21-2.31-.29-3.99-.88-3.39-1.44-2.33-.28-4.06-1.27-6.18-1.84Z"/><path d="m78.24,67.09c2.39-.3,5.78.97,8.13.56.03,0,.24.03.35.06,4.45.94,5.07,1.01,10.72,1.02,1.82,0,3.34.34,5.02.49-.68-.59-1.42-1.19-4.16-1.65l-2.05.18c-.77.29-1.92.17-3.54-.03-1.97-.25-4.38-.41-6.08-.62-3.44-.42-6.58-.17-9.83-.92l.79.81c.22.03.44.06.65.1Z"/><path d="m118.83,69.19c-1.06.48-1.93.92,2.24,1.15,1.34.07.49.25.38.39-2.07.23-4.33-.04-5.78-.33-3.69-.73-4.56-.31-5.39.25h-.76c-2.43-.43-6.43-.85-2.57-1.47.7-.12.7-.41,1.02-.62,2.1.11,4.21.22,6.31.33,1.36.08,2.38.11,2.54-.21l2.34.14c-.1.13-.07.27-.31.38Zm-6.73.15c-.08-.02-.22-.03-.42.02.12.01.23.03.42-.02Z"/><path d="m293.69,10.18c.44.52,1.69,1.09,2.76,1.68,1.08.58,1.98,1.17,1.77,1.49-.21.32-1.9-.2-2.75-.13-.88.04-3.71-1.36-6.01-2.2-1.03-.38-1.99-.81-3.07-.98-1.1-.16-2.41-.64-3.26-.44-.9.21,2.16.45,1.55.75.46.14.93.25,1.42.36.5.11.88.19,1.35.32.9.23,1.84.52,2.78.87,1.89.69,3.77,1.63,5.24,2.83.92.77.98.16,1.84.62.92.32-2.5-2.18.53-.48.65.07,1.66.47,2.49.83.82.37,1.51.68,1.61.24-.27-.29-.58-.62-.88-.91-.31-.28-.6-.54-.77-.74-.84-.92-.29-1.77-3.43-2.62-.02,0-.23-.19-.52-.43-.29-.23-.64-.51-.95-.7-1.73-1.1-3.59-1.84-5.37-2.09.34.86,2.72,1,3.66,1.74Z"/><path d="m300.89,17.99c.3.32.47.66.63.94.13.3.21.56.24.79.18,1.19.52,2.99.65,4.42.19,1.3-.13,2.5.12,2.98.13.21.31.3.57.21.13-.04.27-.13.45-.25.15-.14.31-.33.49-.56.64-.94,1.2-2.92.49-5.35-.34-1.16-.73-2.67-1.48-3.89-.62-.51-.97-.49-1.02-.25-.04.24.14.78.44,1.48.58,1.43,1.22,2.6,1.73,3.67.11.19.24.76.27,1.28,0,.52-.08.95-.26.85-.31-.15-.73.78-.95.12-.07-.2-.15-.34-.24-.57-.08-.23-.14-.53-.21-1.06-.09-.54-.14-.94-.15-1.23,0-.29.06-.48.14-.58.09-.1.18-.22.15-.46,0-.25-.13-.62-.47-1.23-.71-1.15-1.35-1.52-1.57-1.3Z"/><path d="m76.8,66.18c3.25.75,6.38.5,9.83.92,1.71.22,4.11.37,6.08.62,1.62.19,2.77.31,3.54.03-2.71-1.06-6.9-.95-10.32-1.33-5.1-.56-10.37-.77-15.25-1.98l-.44.17c.7.35,3.25,1-.71.59-1.29-.14-2.06.04.14.46,2.37.17,4.16-.3,7.12.52Z"/><path d="m90.42,8.17c-.12-.58-1.19-.75-3.54-.1-1.73.49-2.88.52-4.33.39-1.49-.14-3.86.81-5.3.42-3.33.99-7.12,1.02-10.66,1.64-1.21.2-1.89.36-2.41.66,3.34,0,6.87-.49,10.67-1.09,2.42-.38,4.89-.74,7.57-.85,2.34-.1,5.3-.72,7.99-1.08Z"/><path d="m245.86,5.79l-1.72-.16-2.52-.71c-.36-.04-.72-.07-1.09-.11-1.19.03-2.38.06-3.58.13,2.02,1.05,6.2,1.13,9.18,1.4,2.96.29,5.95.46,8.94.69,2.99.24,5.98.47,8.97.71l1.61-.03c-2.61-.92-5.49-1.32-8.68-1.09-2.55-.1-5.27.02-6.64-.99l-1.15-.08-.83-.02c0,.14.03.2.06.26l.24.16-.56-.11-2.22-.05Z"/><path d="m182.54,68.69c2.28-.04,4.56-.07,6.85-.36,1.82-.13,3.56-.21,4.93-.05,1.22-.1,1.84-.15,2.45-.2,2.91-.17,5.72-.66,8.83-.69,1.62-.02,2.43-.53,2.88-.87-8.75.71-17.51,1.29-26.28,1.91l.34.25Z"/><path d="m121.46,70.72c-2.07.23-4.33-.04-5.78-.33-3.69-.73-4.56-.31-5.39.25,6.11.5,12.24,1.04,18.38.72,1.49-.08,2.4.3,3.61.28,1.66-.04,4.21.21,4.53-.39l-3.4-.08-5.57-.27-6.37-.17Z"/><path d="m242.65,62.8c-.04.23.53.4-2,.81-1.58.24-2.91.56-2.58.85,6.52-.93,13.05-2.06,19.58-4.2l-.08-.16-.26-.07c-.12.04-.25.08-.38.12-1.08.4-2.17.73-2.56.53-.2.06-.4.11-.6.16-.79.16-1.58.32-2.37.46-.3.33-1.08.56-2.38.7-1.39.29-2.78.88-4.09.91-.44,0,.17-.27.84-.49l.04-.13-.81-.09c-1.43.05-1.48.43-2.33.6Z"/><path d="m109.51,70.63c-2.43-.42-6.43-.84-2.57-1.46.7-.12.7-.41,1.02-.62-1.16-.12-.76-.28-.83-.42l-1.56-.06c.46.39-1.56.41-1.64.72l1.04.14c-.08.02-.22.04-.23.05-.29-.06-.56-.12-.83-.19-1.37-.31-.5-.58-.77-.87-1.54-.51-3.14-.7-4.84-.37,2.74.46,3.48,1.06,4.16,1.65,1.23.38.7.6-.51.76-1.16.14-2.42.15-3.92-.16-1.77-.37-3.46-.65-3.87-.02,4.02.43,8.16.41,12.12.95,1.57.21,2.4.07,3.23-.11Z"/><path d="m69.68,65.65c-2.21-.41-1.44-.6-.14-.46,3.96.4,1.41-.24.71-.59-.72.24-1.92-.18-2.87-.27.07.24-.69.44-1.26.27-2.81-.86-4.95-.48-7.44-.96-1.38.06-1.41-.19-1.48-.43-1.3-.52-1.68-.33-2.11-.18.12.03.32.08.34.09.46.65,2.33,1.02,4.4,1.3,2.84.4,4.73,1.33,7.7,1.64.07,0,.33.35.5.54l3.05.73,1.62.4.25-.45c-3.5-.53-3.63-1.09-3.26-1.64Z"/><path d="m27.33,57.73c-1.56-.59-1.7-1.02-2.63-1.59-.59-.36-1.18-.73-.71-.76.36-.03,1,.27,1.61.51.73.27,1.65.66,2.17.76.99.17,2.55.39,2.43.18-.27-.53-1.74-.59-2.64-.99-.55-.23-1.04-.51-1.55-.77-.59-.55-1.31-.57-1.97-.82-1.15-.34-2.4-.7-2.21-.27.76,1.65-2.66.15-5.71-1.32.25.43,1.87,1.11,1.85,1.47,2.59,1.03,4.79,2.44,7.48,3.45,1.91.69,1.59.29,1.88.16Z"/><path d="m58.67,63.64c2.49.48,4.63.09,7.44.96.57.17,1.33-.03,1.26-.27-5.01-.77-9.99-1.53-14.98-2.38-2.5-.42-5.1-1.06-7.52-1.74-1.47-.4-2.68-.63-3.99-.85-.6.56,1.08,1.14,3.39,1.44,3.58.48,6.79,1,9.61,2.21.4,0,.8.02,1.2.03.43-.15.81-.34,2.11.18l1.48.43Z"/><path d="m121.46,70.72l6.37.17.07-.33c-.87-.03-1.63-.1-1.49-.31.14-.2,1.02-.17,1.81-.15.3-.15.32-.33.35-.5-1.58.04-3,0-3.17-.45-2.02-.26-4.12-.33-6.26-.34-.1.13-.07.27-.31.38-1.06.48-1.93.92,2.24,1.15,1.34.07.49.25.38.39Z"/><path d="m123.62,2.91l-3.2.47v.19s.19.06.19.06l-.17-.06c-1.39-.08-2.02,1.32-3.84.37-.27.07-.8.17-.77.19.62.63-2.33,1.04-3.31,1.58.19.2.9.11,1.54.06.81-.36,2.16-.38,3.35-.49.88.05,1.38-.75,1.88-.26.54.52,1.96.05,2.79.13,1.37-.47,2.02-.3,2.53,0,.85.03,1.87.28,2.34-.26l.33-.32c-.98-.06-1.49-.3-2.87-.19-.95-.06-.6-.3-.7-.47-4.29-.03.52-.7-.08-.98Z"/><path d="m254.93,59.12c1.36-.11,2.92-.4,4.23-.47,2.69-.19,7.38-1.91,9.13-3.26-1.84.68-3.91,1.37-2.75.5-3.59,1.11-7.23,2.02-10.6,3.23Z"/><path d="m123.69,3.9c-4.29-.03.52-.7-.08-.98.84-.2,1.71-.39,1.47-.67,2.41-.28,4.98-.98,7.23-.44.11.03.15.07.11.11-3.16.81-3.36,1.64-3.12,2.47l-2.04.18c-.98-.06-1.49-.3-2.87-.19.08-.2.09-.39-.7-.47Zm2.49-.8c-.52-.05-.99.16-.82.25.34.18-1.25.73,1.2.51,1.21-.19,1.1-.32.2-.41-.18-.12-.18-.32-.58-.35Z"/><path d="m67.82,8.19c.74-.09,1.41.16,2.21-.26,1.78-.93,2.03-.37,2.68-.19.56-.02,1.3.02,1.68-.06,1.47-.34,2.86-.73,4.01-.41.95.27-.29.64-1.16,1.02-1.55.67-2.81.62-4.16.49-.84-.09-2.22.03-2.86.28-2.2.86-3.28.51-4.67.44.76-.43,1.53-.87,2.29-1.31Zm8.96-.52s-.28.06-.29.08c-.03.05.02.09.04.14l.61-.15c-.11-.02-.22-.05-.36-.07Z"/><path d="m227.49,65.99c-3.21.5-6.62.75-9.46,1.56-.72.2-1.76.18-2.5.18-1.33,0-2.21.17-2.9.47,2.78.16,6.06-.42,9.14-.91,3.98-.65,7.8-.69,11.77-1.68.58-.14,1.29-.26,1.53-.43-.86-.16-2.26,0-3.82.44-1.89.52-2.83.49-3.75.38Z"/><path d="m300.89,17.99c.23-.22.87.15,1.57,1.3.34.6.47.98.47,1.23.03.24-.06.36-.15.46-.08.1-.14.29-.14.58.01.29.06.68.15,1.23.07.53.13.83.21,1.06.09.23.17.37.24.57.22.67.64-.27.95-.12.18.11.27-.33.26-.85-.03-.52-.16-1.09-.27-1.28-.51-1.07-1.14-2.24-1.73-3.67-.31-.7-.49-1.23-.44-1.48.04-.24.4-.26,1.02.25-.22-.55-.58-1.02-1.09-1.33-.1.45-.79.13-1.61-.24-.83-.36-1.84-.75-2.49-.83.61.59,1.12,1.17.98,1.43.72.52,1.46,1.04,2.06,1.7Z"/><path d="m52.84,11.42c-2.16-.06-4.28.15-6.22,1.19-1.1.79-4.85,1.44-5.36,2.29l.41.54c1.39-.12,2.6-.42,3.67-.9.15-.15-.39-.2.42-.43l.32.28c.23-.01.48-.05.75-.12,3.18-.74,2.34-1.6,5.27-2.34.65-.2.8-.36.75-.51Z"/><path d="m153.41,71.71l-.7-.28c-1.51-.15-3.59-.11-3.4-.7.06-.18-3.02-.83-4.97-.06-.61.24-1.59.34-2.9.29.06.04.08.09.1.13l-.07.49c3.93.23,7.82.58,11.93.12Z"/><path d="m191.09,70.39c.28-.42-1.46-.4-2.87-.38-3.05.04-6.59-.02-9.25.35-1.84.25-3.08.32-4.88.38-1.09.04-.47.3-.56.47,3.84-.04,7.58-.01,11.6-.51,1.74-.21,3.95-.2,5.95-.31Z"/><path d="m97.43,6.47l-1.47.19c-.76.34-1.82.69-1.6,1.03,3.99-.15,8.2-1.03,12.28-.85,1.64.07,2.08-.7,3.53-1-.1-.29-1.67-.38-2.02-.27-2.43.75-4.51.25-6.72.53-1.33,1.23-2.66.09-3.99.37Z"/><path d="m30.78,16.31c-.39.11-.78.22-1.17.33-.6.6-.58.58.67.36.55-.11,1.29-.19,1.44-.11.51.26-1.68.75-1.95,1.12l1.71-.1,2.57-.55c1.65-.69,3.33-1.29,5-1.94-3.66.31-3.64.14.43-1.54-2.02-.49-3.27.42-4.58,1.17-1.37.43-1.78,1.58-4.13,1.27Z"/><path d="m16.12,52.65c3.06,1.47,6.48,2.98,5.71,1.32-.19-.43,1.06-.07,2.21.27-.09-.69-1.83-.95-2.72-1.44-.89.2-1.64.63-4.83-1.55-.52-.36-1.44-.82-1.77-.75-.36.07.3.52,1.02.95l.34.14-.31-.11.34,1.19Z"/><path d="m132.31,1.81c.11.03.15.07.11.11.37.27,2.85-.06,2.41.44.68.46,1.6.32,2.53-.1.82-.37,1.52-.76,2.81-.22.96-.16,1.66.29,2.53-.03,1.11-.42.16-.69-.81-.95-3.25.09-6.74-.24-9.59.75Z"/><path d="m180.56.47c1.09.42,3.81.35,4.58,1.06.36.33,3.79-.23,5.66-.48.31-.04.51-.13.76-.19l.03-.54c-2.87-.44-5.57.2-8.41-.03l-2.1.08c-.27,0-.45.04-.52.11Z"/><path d="m241.66,61.94c1.16.22,8.34-.81,10.57-1.52,2.19-.7.7-.66,1.08-1-1.39.42-2.79.88-4.19.95-.3.01-1.3.2-1.36.22-1.72.82-4.1.91-6.1,1.35Z"/><path d="m293.69,10.18c-.94-.74-3.32-.88-3.66-1.74-1.04-.69-2.4-.81-3.58-.82-1.95.28-4.89-.37-7.13-.37.4.36.3.73,2.7.71,1.47,0,3.48.29,5.32.53.36-.03.71-.01,1.07,0l.29.19c-.44-.05-.87-.13-1.31-.15.75.2-.11.37-.42.56-.16.09-.18.19.16.28.35.07,1.07.21,2.4.47.27-.2-.29-.86,1.8-.14.52-.08,2.3.86,2.35.48Z"/><path d="m192.68,69.87c-.04.08.25.15-.44.22,4.86-.25,10.02-.18,14.13-1.5l-.13-.17-3.17.3c-3.45.41-6.91.79-10.39,1.15Z"/><path d="m279.32,7.26c2.24,0,5.18.65,7.13.37-.17-.62-1.99-.37-2.88-.54-3.42-.63-7.01-.92-10.51-1.21.58,1.12,4.07.96,6.26,1.37Z"/><path d="m222.04,1.92c2.5.15,5.33.13,6.96.96.62.32,1.55.23,1.72-.05.12-.2-.06-.45,1-.5.38-.56-1.73-.53-2.84-.63-2.5-.22-5.04-.39-7.56-.5.19.24-.46.5.72.73Z"/><path d="m209.17,3.34c-1.74-.22-3.54-.46-4.8.01-.82.31-1.29.09-2.01-.07-2.41-.54-4.81-.67-7.09-.13,2.25.55,5.06.57,7.81.6,2.03,0,4.04,0,6.05,0l.04-.41Z"/><path d="m3.97,32.91c-.06-.31.03-.87-.09-.95-.06-.04-.18.04-.39.36-.19.32-.49.86-.7,1.77-.21.93-.32,1.6-.41,2.19-.11.59-.2,1.09-.24,1.63,0,.54-.61.36.2,1.89.72,1.18.88.7.99.37.12-.33.3-.55.48-.82-.5-1.05-.77-2.16-.75-3.26.01-1.1.36-2.18.91-3.19Z"/><path d="m153.98.77c-.25.56-.27,1.05,3.17.62l2.41-.43,1.53-.06c.64-.21,1.55-.19,2.43-.19l.9-.43c.07-.38-1-.26-1.85-.2-2.87.23-5.73.46-8.59.69Z"/><path d="m31.49,17.9l-1.71.1c-2.16.68-4.29,1.8-6.33,1.75-.52,0-1.79.73-1.69.75.46.12-2.43,1.25-.27.8,3.23-1.35,7.09-1.77,10-3.4Z"/><path d="m154.82,2.57c-.87.19-2.16.55-2.53.53-1.49-.13-.09-.36.41-.57.34-.14-.11-.23-.72-.21-.69.02-1.43.12-1.43.3-.01.27.21.53.34.8,2.9.4,6.18.22,9.44.04l.09-.47s-.05-.1-.03-.15h-.87c-2.09.27-4.08.47-4.69-.25Z"/><path d="m52.09,11.93c-2.93.73-2.09,1.59-5.27,2.34,1.73.12,3.46.2,5.49-.93.22-.17.34-.42.67-.5,5.16-1.18,1.28-.8,0-.88-.1.15.07.29-.87.45l.13-.33c-.06-.05-.11-.1-.15-.15Z"/><path d="m8.23,48.11c-.38-.72-1.22-1.87-2.51-2.6-1.26-.69-2.59-2.23-3.58-3.9-1-1.69-1.53-3.49-2.13-4.54.21,2.72,1.59,4.97,3.1,6.72,1.54,1.77,3.31,3.14,5.13,4.31Z"/><path d="m71.07,67.34l-3.05-.73-1.6-.37c-.05.42-1.39.2-2.69-.02-2.99-.86-5.84-1.25-8.62-1.23.23.23,1.02.55,1.59.59,4.68.34,9.78,1.78,14.36,1.75Z"/><path d="m279.05,9.82c-.08-.62-.56-1.13-3.66-.98-2.31.12-5.06-1.12-7.32-.7,3.2,1.14,7.23,1.25,10.98,1.69Z"/><path d="m172.71,69c1.09.5,3.2.76,5.53.98-.48-.5.7-.97,2.26-1.44-1.63-.19-3.06.1-4.55.25-.79.44-2.1.22-3.24.21Z"/><path d="m245.11,3.1c2.72.99,8.52,1.34,12.07.95-3.4-.73-6.89-.65-10.33-.94-.12.36-.95.16-1.73,0Z"/><path d="m83.75,6.86c.92-.13,1.55-.29,1.5-.53h-1.03s-.25-.18-.25-.18l.76-.02.65.16c.95-.11,1.39-.29,1.44-.51-2.92.26-5.51-.04-8.69.71.37.62,3.08.36,4.91.44l.7-.06Z"/><path d="m44.36,62.45c-3.6-.84-7.14-1.74-10.32-2.11,1.11.65,2.21,1.1,4.09,1.26,2.38.21,5.13,1.24,7.69,1.65l-.06-.42c-.46-.12-.93-.25-1.4-.38Z"/><path d="m213.16,2.62c3.28.06,5.08-.6,4.05-1.49l-3.21-.17c.47.43-1.91.52-1.46.95.92.24.52.48.61.71Z"/><path d="m39.05,15.4c-1.67.65-3.35,1.26-5,1.94,2.67-.37,5.3-.77,7.62-1.91l-.41-.54-2.21.51Z"/><path d="m129.3,4.39l-2.04.18-.33.32c2.98-.12,6.02-.03,8.74-.76-.91-.26-2.74-.3-3.11-.7-.57.11-1.05.21-1.53.31-.11.27-.17.54-1.74.65Z"/><path d="m209.17,3.34l-.04.41,3.97.18c.83-.4.79-.84.06-1.31-1.94-.13-1.47-.45-1.49-.74-.3-.16-.74-.32-1.49-.28-.88.05-.37.24-.21.38.59.52,1.71,1.06-.79,1.36Z"/><path d="m95.61,4.99v-.38c-2.7.25-5.74,0-7.95,1.07.44.3-.08,1.08,2.85.02,1.27-.47,3.59-.17,5.1-.71Z"/><path d="m72.94,67.29l-.25.45c3.04.71,5.87.7,8.74.81l-1.45-.5c-1.57-.32-1.56-.65-1.74-.97-.21-.04-.43-.07-.65-.1-.08.65-.62,1.14-4.65.3Z"/><path d="m107.96,68.55c2.1.11,4.21.22,6.31.33,1.36.08,2.38.11,2.54-.21-2.78-.56-5.92-.31-8.83-.61-.02.16-.03.33,0,.5Z"/><path d="m79.98,68.06l1.45.5c2.25.46,4.58,1.08,6.5.51-2.02-.42-4.15-.74-6.43-1.06-1.08-.15-1.45-.16-1.53.05Z"/><path d="m145.96,1.04c.09.05.12.12.28.16,1.15.26-3.21.89.11.87,2.39-.02,3.9-.64,3.67-1.27-1.41-.04-2.91-.3-4.06.24Z"/><path d="m227.49,65.99c.92.11,1.86.14,3.75-.38,1.57-.44,2.96-.6,3.82-.44.55-.12,1.27-.23,1.46-.4-.48-.06-.96-.13-1.45-.19-2.48.31-4.89.84-7.35,1.21l-.22.2Z"/><path d="m265.54,55.89c-1.16.88.91.19,2.75-.5,1.39-.42,2.2-.87,2.7-1.26l-.15-.28c-1.69.76-3.42,1.45-5.31,2.03Z"/><path d="m163.08,71.25c-2.89.19-6.17-.02-8.74.46,2.91.36,5.82-.11,8.73-.14v-.32Z"/><path d="m12.42,25.48c-1.02-.98-3.38,1.66-4.85,2.8.28.15.04.74,1.78-.74.89-.76,2.03-1.37,3.07-2.05Z"/><path d="m149.29,3.51c-.29-.27-.01-.72-1.81-.64-2.43.11-.95.72-2.34,1.01,1.96.44,2.77-.24,4.15-.37Z"/><path d="m236.96,4.94c1.19-.06,2.38-.1,3.58-.13-2.23-.25-2.34-.66-2.63-1.07-.17-.24-.68-.45-1.75-.52-.4-.03-1.03.02-1.16.1-.37.21.5.32,1.17.45,2.44.49-2.03.6.09,1.09.22.04.46.07.7.08Z"/><path d="m270.12,55.9c-1.45.69-3.75.66-4.69,1.74.78.2.81.23,4.69-1.74Z"/><path d="m171.61,2.25c2.1.12,1.97.59,2.44.95,1.64.02,3.45.29,4.78-.16l-.05-.22c-1.18-.09-3.25.08-3.44-.28-.43-.81-2.11-.48-3.73-.28Z"/><path d="m166.74,3.35c1.01-.61-1.41-.71-2.57-1l-1.24.38-.97.78c1.64.08,3.08-.4,4.78-.16Z"/><path d="m9.52,46.3l.31-.42c-1.07-.99-2.07-2-3.29-2.96-.18.2-.88.1.74,1.55,1.25,1.06,1.77,1.62,1.49,1.89.66.34.6.04.75-.05Z"/><path d="m180.5,68.54c-1.56.47-2.74.94-2.26,1.44,1.62-.41,3.99-.76,4.3-1.29l-.34-.25-1.71.11Z"/><path d="m222.04,1.92c-1.18-.23-.53-.48-.72-.73l-2.39-.18c-.41.61-.49,1.2,3.12,1.49v-.58Z"/><path d="m45.76,62.82l.06.42c1.52.34,2.86.49,4.01.49-.74-1.38-2.43-1.08-4.07-.91Z"/><path d="m222.69,64.93c0,.09-.14.21.03.27.47.17-1.75.9.71.58,2.17-.29.25-.43.53-.67.08-.07.8-.2,1.22-.3-.55-.09-1.05-.22-2.49.13Z"/><path d="m172.71,69c1.14.01,2.45.23,3.24-.21l-1.75-.02c-.66.04-1.22.04-1.53-.08l-3.23.24.68.15,2.6-.08Z"/><path d="m293.8,19.56s-.09,0-.07.05c.07.31-.86-.48.36,1.07.4.53,1.36,1.43.76.26-.33-.48-.68-.93-1.05-1.37Z"/><path d="m103.94,68.79c.07-.31,2.1-.33,1.64-.72l-2.44-.14c.27.29-.6.56.8.87Z"/><path d="m298.83,16.29c.14-.26-.38-.84-.98-1.43-3.03-1.7.39.8-.53.49.09.13.25.25.47.36l.85.56c.18.11.23.11.19.02Z"/><path d="m179.43.66l1.6-.19c-.7-.41-2.65-.28-3.86-.47l-.09.37.07.38c.43.02.76.02,1.09.02.12-.21.66-.15,1.2-.1Z"/><path d="m17.97,54.12c.02-.36-1.6-1.04-1.96-1.49l-1.21-.47.8.71c.71.5,1.5.92,2.37,1.25Z"/><path d="m124.59,5.14c-.5-.3-1.16-.47-2.53,0,.69.14.98.61,2.53,0Z"/><path d="m140.63,71.12l-2.52.14c-.12.43,1.27.34,2.51.31v-.45Z"/><path d="m117.39,5.28c-1.19.11-2.54.13-3.35.49,1.74.25,2.64-.06,3.35-.49Z"/><path d="m287.48,13.71c.59.56,1.33,1.11,2.2,1.7-.67-.59-.89-1.19-2.2-1.7Z"/><path d="m170.11,69.08l-.68-.15-1.59.05.07.16c.73.16,1.46.16,2.2-.06Z"/><path d="m189.87,2.98s.02-.07.11-.1c-.11.02-.23.04-.37.04-.07.13-.15.27-.23.4l.49-.35Z"/><path d="m172.66,68.7c.31.12.87.13,1.53.08,0-.26-.52-.28-1.53-.08Z"/><path d="m216.21,4.11c-.08-.14.07-.34-.81-.36-.65,0-.53.14-.06.26l.87.1Z"/><path d="m177.08.37l.09-.37c-.82.06-1.39.18-1.66.37h1.57Z"/><path d="m181.08.37l2.1-.08c-.88-.24-1.59-.22-2.1.08Z"/><path d="m107.92,68.54l.05-.49c-.53-.06-.8-.04-.84.08.06.15-.34.31.79.41Z"/><path d="m46.08,14.39l-.32-.28c-.81.23-.27.29-.42.43.26-.02.5-.07.74-.16Z"/><path d="m245.11,3.1c.78.16,1.62.36,1.73,0-.72-.11-1.44-.22-1.73,0Z"/><path d="m227.71,65.79c2.46-.37,4.87-.9,7.35-1.21.85-.15,1.21-.3,1.26-.45l.04-.42c-1.36.22-1.82.16-1.38-.13.21-.14.5-.32-.4-.19-.52.07-1.65.35-1.63.39.26.55-3.33,1.13-4.68,1.67-.28.11-.38.22-.57.33Z"/><path d="m277.81,52.31c1.57-.66,3.16-1.34,4.44-2.44-2.48,1.43-.69-.14-2.49.73-.97.44-1.94.88-2.94,1.26.48.08,2.14-.44.99.46Z"/><path d="m194.32,68.28c-1.36-.16-3.11-.09-4.93.05.07.17-.18.39.28.48.6.12-1.77.53.4.41,1.5-.09,1.19-.31,1.02-.5-.08-.09-.11-.4.89-.16,1.83.43,1.4-.3,2.35-.27Z"/><path d="m251.38,61.29c.79-.14,1.58-.3,2.37-.46.27-.22,2.23-.85.43-.56-1.9.31-2.48.69-2.8,1.02Z"/><path d="m245.75,62.41c-.67.22-1.27.49-.84.49,1.31-.03,2.7-.62,4.09-.91-.2-.32-1.99.19-3.25.42Z"/><path d="m203.08,68.72l3.17-.3c-.2-.24-1.21-.27-2.47-.12-.98.11-.64.28-.7.42Z"/><path d="m167.84,69.6c-.22.02-.45.03-.68.04l-.08.29c.97-.05,2.15-.02,2.58-.3l-1.81-.04Z"/><path d="m254.36,60.67c.39.2,1.48-.14,2.56-.53l-.15-.23c-.81.27-1.62.51-2.42.76Z"/><path d="m239.05,62.68c-.17,0-.34.01-.5.02l-.43.2c.21-.02.45-.04.61-.07.15-.04.22-.1.32-.15Z"/><path d="m196.77,68.08l-1.85.15c.24.06.42.18.73.17.9-.03.88-.2,1.11-.32Z"/><path d="m244.98,62.2l.81.09c1.14-.45.21-.28-.81-.09Z"/><path d="m256.78,59.91c.41-.13,1.03-.27,1-.38,0-.02-.32.01-.47.06-.71.2-.48.24-.52.32Z"/><path d="m236.36,63.72l-.04.42c.99-.31,1.06-.46.04-.42Z"/><path d="m214.76,66.57c.02.06.15.04.26.04-.02-.06-.15-.04-.26-.04Z"/><path d="m165.44,69.97l-.03.16,1.64-.2c-.53.01-1.07.03-1.61.04Z"/><path d="m242.63,62.81l-.19-.02c.07,0,.14,0,.19.02Z"/><path d="m257.31,60.02l.26.07c.65-.26.5-.27-.26-.07Z"/><path d="m223.52,2.75c-.99.25-2.51.44-1.43.94.46.22,1.02.41,2.02.5,1.47.13,1.66-.12,1.87-.36-.75-.35-1.11-.67-.44-.97.31-.14.24-.29-.62-.37-1.05-.1-1.22.09-1.39.26Z"/><path d="m291.33,9.71c-2.09-.72-1.53-.06-1.8.14.74.27,1.84.56,1.8.95-.02.2.6.68,1.25.92.67.24,1.36.34,1.67.29.52-.08-.79-.59-1.15-.85-.7-.52-1.18-.98-1.78-1.45Z"/><path d="m250.33,5.64c1.37,1.01,4.09.89,6.64.99-.9-.34-1.88-.62-2.97-.81-1.09-.17-2.3-.24-3.67-.18Z"/><path d="m248.35,5.53l.83.02c.14-.04.23-.1.44-.12,1.55-.1,2.59-.27,1.05-.8-.4-.14-1.53-.35-1.35-.15.42.47-4.63.22-.96,1.04Z"/><path d="m230.72,4.51l2.3.24c.04-.25,1.99-.48-.05-.74-1.5-.19-2.58.06-2.25.5Z"/><path d="m241.62,4.92l2.52.71c-.04-.22,1.35-.33.2-.63-.92-.23-1.94-.22-2.71-.09Z"/><path d="m286.29,9.3c-.45-.13-.72-.25-.99-.28-.29-.04-.59,0-.88.01.24.09.45.21.72.25.28.04.62.01,1.16.02Z"/><path d="m245.86,5.79l2.22.05c.11-.02.21-.03.33-.05l-.09-.19c-1-.01-2.45-.22-2.46.19Z"/><path d="m228.69,4.38c.65.2,1.29.42,1.98.13l-1.98-.13Z"/><path d="m281.38,9.62c-.22-.07-.34-.06-.45-.05.08.03.16.05.45.05Z"/><path d="m11.83,22.87c-.81.42-1.73.98-2.07,1.46-.02.36-.69.78-1.39,1.29-.71.5-1.5,1.08-1.81,1.56-.23.35-1.68.87-1.83,1.61-.09.44,1.03-.37,1.79-.74.77-.39,1.3-.75,2.13-1.59.52-.53,1.14-1.04,1.8-1.44.66-.41,1.35-.73,2.08-.75.86-.04,1.97-.96,2.68-1.39,1.22-.81.1-.46-.75-.25-1.32.37-2.63.78-2.63.25Z"/><path d="m9.52,46.3c-.15.1-.08.39-.75.05-.28.08-1.84-1.14-1.29-.28.19.31.74.9,1.17,1.19,1.43.99.7.03,1.12.1.23.03.43.02.74.13.6.21,2.15,1.09,1.71.53-.5-.63-1.79-.98-2.7-1.72Z"/><path d="m4.76,42.99c-.09-.15-.17-.29-.25-.44-.14-.08-.29-.17-.42-.26.11.18.23.38.35.51.11.11.21.13.32.19Z"/><path d="m26.2,17.3l.77-.24c-.25.08-.51.16-.77.24Z"/><path d="m296.84,30.9c.05-.07.1-.12.15-.28.05-.16.08-.44.01-.97-.08.14-.07.64-.16,1.25Z"/><path d="m60.75,9.7l-1.62.25c.02.23.44.51-.04.68-.85.31-1.61.55-1.27.78.17.11.64-.02.82-.12.66-.36,3-.67,2.3-1.08-.23-.13-.13-.34-.19-.52Z"/><path d="m65.53,9.5c-.52-.09-.59-.34-1.73-.18-.16.02-.54.22-.48.27.27.26,1.35.02,2.22-.09Z"/><path d="m83.75,6.86l-.7.06c.02.14-.11.31.81.23l-.11-.29Z"/><path d="m52.25,12.08l-.13.33c.93-.15.76-.3.87-.45l-.74.12Z"/><path d="m56,10.84l.32.19c.74-.26-.05-.17-.32-.19Z"/><path d="m279.76,50.6c1.81-.86.01.7,2.49-.73.91-.52,1.47-1,1.86-1.4.83-.84,1.85-1.79-.06-.83-1.48.77-2.22,1.22-2.73,1.67-.51.45-.82.85-1.57,1.3Z"/><path d="m290.35,42.45c-.79.84-2.33,1.84-2.02,2.05.1.07.61-.06,1.52-1,.9-.9,2.05-2.37,1.99-2.51-.1-.28-1.01,1.1-1.49,1.45Z"/><path d="m290.03,43.95c.77-.52,1.27-.82,1.75-1.29.29-.31.7-.74,1.01-1.12.3-.39.51-.73.45-.81-.07-.1-.49.26-1.09.92-.64.71-1.24,1.43-2.12,2.3Z"/><path d="m295.94,34.71c.11-.07.2-.04.45-.83.08-.25.04-.41.06-.6l-.52,1.43Z"/><path d="m287.3,45.68c.18-.2.05-.1-.08,0h.08Z"/><path d="m295.21,36.03l.15-.32.15-.32c-.15.19-.25.4-.3.64Z"/><path d="m193.17,2.56c-.16-.31-.99-.43-2.15-.35-1.48.1-.9.43-1.05.67,1.44.06,1.5-.52,3.2-.32Z"/><path d="m211.66,1.88c.03.28-.44.61,1.52.75-.11-.24.29-.48-.63-.72l-.89-.03Z"/><path d="m193.18,2.56l.18.08c-.06-.03-.13-.05-.18-.08Z"/><path d="m44.36,62.45l1.42.38c-.22-.19.56-.26-.58-.53-.65-.15-.85,0-.83.15Z"/><path d="m63.74,66.23c1.3.22,2.63.44,2.69.02-.98-.04-2.07-.16-2.69-.02Z"/><path d="m171.61,2.25c1.62-.2,3.3-.53,3.73.28.19.37,2.26.19,3.44.28-.65-.42-1.16-.86-1.97-1.27-1.73-.87-4.91-.96-7.5-.18-.32.09-.48.24-.88.3-1.47.2-1.56.83-.09,1.06q.61.09.96-.32c.16-.19.11-.45,1.23-.47.34,0,.72.21,1.09.33Z"/><path d="m159.51,2.83h.87c1.52-.72-.88-1.23-.82-1.87l-2.41.43c-.21.59,2.99.81,2.36,1.44Z"/><path d="m163.52.71c-.88,0-1.78-.02-2.43.19.03.03,0,.07.08.08,1.08.17.9.81,2.22.68,1.95-.19-.24-.62.13-.95Z"/><path d="m167.8,1.23c.23-.06.5-.11.48-.14-.07-.1-.25-.2-.39-.3-.1.05-.29.11-.3.16,0,.08.11.17.2.27Z"/><path d="m179.43.66c-.53-.05-1.07-.11-1.2.1.51.03,1.21.2,1.2-.1Z"/><path d="m177.15.74l-.33.1c.14-.02.29-.05.33-.1Z"/><path d="m39.05,15.4l2.21-.51c.5-.85,4.25-1.5,5.36-2.29-.17-.22.08-.59-1.71-.2.83.19-.44.62-1.24.9-.98.33-1.51.19-1.93.09l-2.27.47c-4.07,1.68-4.09,1.85-.43,1.54Z"/><path d="m41.75,13.4c.42.11.95.25,1.93-.09.8-.27,2.07-.71,1.24-.9-1.22.26-2.77.44-3.16.99Z"/><path d="m30.78,16.31c2.35.3,2.76-.84,4.13-1.27-1.78.11-2.99.68-4.13,1.27Z"/><path d="m26.19,17.31l.8-.25c-.31-.08-.58,0-.8.25Z"/><path d="m129.3,4.39c1.57-.11,1.63-.38,1.74-.65-.26-.35.56-.33,1.45-.29.47-.4.09-.84,2.35-1.09.44-.49-2.04-.17-2.41-.44-3.16.81-3.36,1.64-3.12,2.47Z"/><path d="m154.8,2.56l1.01-.09c-.57-.15-.71.02-1.01.09Z"/><path d="m128.5,70.11c-.39.14-.5.29-.61.44,1.62.04,3.23.07,4.83.11,1.45.01,1.49-.2,1.55-.41-.86-.05-1.92,0-2.43-.23l-3.35.09Z"/><path d="m151.08,69.88c-.03-.16-.11-.34-1-.37-.4-.01-.93.14-1.4.21.57.19,1.51.15,2.4.15Z"/><path d="m131.85,70.02c.51.23,1.57.18,2.43.23-.49-.24-1.48-.22-2.43-.23Z"/><path d="m141.45,70.97c0-.09.76-.17.05-.27-.08-.01-.3,0-.37.01-.47.11-.2.19.32.26Z"/><path d="m97.43,6.47c1.33-.28,2.65.86,3.99-.37.15-.81-2.72-.12-4.08-.17.04.18.07.36.09.53Z"/><path d="m114.08,4.43l-.32.06c.1-.02.2-.04.32-.06Z"/><path d="m97.34,5.93l-.18-.06c.06.02.13.04.18.06Z"/><path d="m165.44,69.97l1.63-.04.08-.29c-1.14,0-1.69.11-1.71.33Z"/><path d="m72.94,67.29c4.03.84,4.57.34,4.65-.3l-.79-.81c-2.96-.82-4.76-.36-7.12-.52-.37.55-.24,1.11,3.26,1.64Z"/><path d="m111.68,69.36l.35.04c0-.08-.14-.08-.35-.04Z"/><path d="m248.08,5.84l.56.11-.24-.16c-.11.02-.22.03-.32.05Z"/><path d="m103.91,68.8c.28.06.55.12.83.19,0,0,.15-.03.23-.05-.35-.05-.69-.09-1.07-.14Z"/><path d="m58.67,63.64l-1.48-.43c.07.24.1.49,1.48.43Z"/><path d="m127.89,70.56l.33-.46c-.79-.02-1.67-.05-1.81.15-.14.21.62.28,1.48.31Z"/><path d="m124.39,4.37c.08-.2.09-.39-.7-.47.1.18-.25.41.7.47Z"/><path d="m120.43,3.57l.17.06c-.06-.02-.12-.04-.17-.06Z"/><path d="m126.76,3.45c-.18-.12-.18-.32-.58-.35-.52-.05-.99.16-.82.25.34.18-1.25.73,1.2.51.07-.14.13-.27.2-.41Z"/><path d="m126.76,3.45c-.07.14-.13.27-.2.41,1.21-.19,1.1-.32.2-.41Z"/><path d="m77.15,7.74c-.12-.02-.22-.05-.36-.07-.02,0-.28.06-.29.08-.03.05.02.09.04.14l.61-.15Z"/><path d="m15.78,51.46l.31.11c-.11-.04-.23-.09-.31-.11Z"/><path d="m287.4,8.53c.44.02.87.1,1.31.15l-.29-.19c-.36,0-.71-.02-1.02.03Z"/><path d="m84.22,6.32h1.03c-.08-.09-.3-.14-.52-.19l-.52.19Z"/><path d="m132.48,3.45c-.88-.04-1.71-.06-1.45.29l1.45-.29Z"/>
                  </g>
                </mask>
              </defs>
              <path class="mask" d="m302.92,27.5c2.37-2.78,1.85-8.64-3.36-12.36-2.34-1.67-8.19-5.3-12.96-5.96C197.67-3.1,125.2,3.82,125.2,3.82c-16.21,1.1-92.72,6.56-115.79,22-2.08,1.39-6.88,4.69-7.54,9.3-1.33,9.21,14.87,16.56,21.39,19.52,46.55,21.12,224.53,23.45,263.78-8.8,3.29-2.71,11.96-9.82,9.91-18.9-2.71-12.04-22.47-19.54-28.54-21.68"
                    mask="url(#path-mask)" stroke="black" stroke-width="2" fill="none"
                    stroke-dasharray="681.0540771484375" stroke-dashoffset="681.0540771484375">
              </path>
            </svg>
        