
            <svg xmlns="http://www.w3.org/2000/svg">
              <defs>
                <mask id="path-mask">
                  <g fill="white">
                    <path d="m28.88,50.05c1.67.37.66-.05,1.01-.07l1.18.35c.96.32,2.06.69,2.99,1,1.86.7,5.53,1.2,7.12,1.2,1.06.18,1.75.22,2.21.2.7.14,1.59.24,2.43.35.85.1,1.65.17,2.19.34.29.16,1.53.42.46.46-.77.02-1.61,0-2.81-.24-1-.21-1.91-.33-2.5-.29l-.94-.13c-1.19-.07-2.69-.78-3.67-.58-.36-.07-1.03-.2-1.05-.2-.98.15-3.1-.42-4.94-.88v-.09c.5.08.4.04-.16-.1-.09-.02-.19-.04-.29-.06l-.03-.13c.32.07.77.19.78.13,0-.01-.22-.08-.33-.11-.53-.12-.39-.04-.45-.03l-1.83-.39c-.15-.04-.3-.07-.45-.11.24,0,1.74.31.45-.09-1.37-.43-1.86-.45-2.17-.42-.29.04-.89-.1-1.79-.43-.04-.18-1.39-.52-2.3-.82l.06-.04c.89.18.22-.04-.52-.28-.97-.42-1.11-.29-1.74-.5l-.12-.06.14.07c-.09.07.25.32-1.55-.33-.37-.14-.73-.26-1.03-.36h0s-.02-.01-.02-.01c-.59-.27-.97-.41-.9-.26l-1.06-.54-.82-.67c.56.31.83.42.91.39.71.31.79.29.16-.12-.89-.5-1.16-.72-.79-.62.17.05.4.11-.18-.23-.17-.1-.44-.25-.67-.37-.23-.13-.42-.22-.42-.21-.03.29-2.32-1.16-3.24-1.69-.19-.1-.29-.13-.43-.19l-.19-.05c-.98-.72-1.92-1.56-2.81-2.4-.86-.87-1.68-1.74-2.4-2.6-.38-.42-.76-1.12-1.01-1.62-.44-.91-.77-1.5-1.06-1.98-.59-1.48-.97-3.06-1.03-4.66l.07-.09c.05-.07.09-.29.11-.62,0-.33.04-.75.1-1.23.07-.74-.04-.51-.09-.57.21-1.31.63-2.58,1.23-3.79.62-1.19,1.43-2.29,2.36-3.32l-.09.06s-.17.08.18-.3c.08-.13.06-.23.56-.69-.06.27.91-.62,1.76-1.26,1.81-1.42,4.1-2.74,5.8-3.79,1.18-.72,2.01-1.16,3.22-1.72.73-.35.28-.25.31-.34,2.35-1.14,4.78-2.12,7.23-3.02l.03.12c-.46.24-.32.26-.06.25.46,0-.16.23-1.45.74l-1.12.5c-.68.26-1.5.6-1.75.82l1.25-.5c.18,0,.94-.24,0,.18-.52.15-1.02.36-1.5.65-.59.26-1.19.5-1.76.79-.8.17-2.28.69-3.86,1.41-1.02.69-2.49,1.69-2.59,2-1.44.88-2.84,1.83-4.08,3-.08-.02.01-.21-.27-.03-.37.25.9-1.01-.32.06-.82.77-.59.69-.45.66.07,0,.15.06-.44.5-.54.4-.69.63-.82.84-.13.21-.21.42-.57.86-.13.12-.25.19-.38.38-.38.55-.33.57-.38.75-1.12,1.84-1.69,3.9-1.74,6.18-.02,1.19.28,1.8.46,2.11.67,3.41,2.69,6.45,5.18,8.88-.03.02-.14-.02-.08.08.17.3-1.19-.75.14.52,1.19,1.12.27.03.5.13.06.03.48.37.74.56,2.38,1.79,5.09,3.57,7.84,4.98.27.14.6.28.94.43l-.04-.02c.73.22,1.51.46,1.92.73.71.45,5.8,2.25,7.51,2.58Zm-9.74-3.31l-.33-.1c.13.07.29.16.4.21.08.04.14.05.2.06h-.02s.05,0,.05,0l-.04-.02h.02s-.28-.16-.28-.16Zm-13.49-10.98c-.03-.06-.08-.14-.11-.21-.02.02.02.11.11.21Z"/><path d="m33.06,2.29c3.94-.77,7.89-1.08,11.84-1.42.56.3,3.09-.12,4.75-.2.34.08.31.2,2.07-.01,1.07-.13,2.62-.18,4-.23,1.1.01-2.28.49,1.76.2.59,0,1.42-.06,1.51.06.04.06.62.13,1.14.1.54-.03,1.03-.09,1.22-.16.32-.1-.72-.06-1.04-.08-.64-.05-1.09-.13-1.62-.19.32-.09,1.78-.05,1.7-.18.89.17,4.03-.01,4.02.24,0,.12-1.27.24-1.81.39-.56.15-2.96.18-4.87.2-.86,0-1.68-.02-2.53,0-.83.02-1.84-.04-2.44.1-.64.14,1.64-.02,1.22.12-1.3.16-2.68.27-4.2.3-.13-.19-.54-.32-2.8.05-1.68.27-3.84.19-5.45.56l-.62.08-1.19.07c-2.02.02-4.17.26-6.45.86-1.39.09-2.96.3-4.89.93l-.83.22c.09-.04.15-.08.29-.13,1.08-.36,1.81-.64.63-.48-.31.04-1.14.22-.98.24.36.02-3.23,1.15-.53.56-.7.23-1.75.52-1.7.65-.41.12-.81.27-1.22.4-.07-.06.88-.46.03-.24-.68.17-1.38.45-1.88.73l-.76.29c-1.55.61-1.69.55-1.97.51-.16-.01-.55.08-1.27.44-.27.13-.68.36-.75.43-.2.19.39-.08.86-.28,1.7-.71-1.21.88.27.28-.29.3-1.23.7-2.06,1.19l-.06-.07c-.03-.09,1.17-.88-.18-.19-1.01.51-1.64.99-1.36,1.01l-1.28.74-1.82.93c-.54.22-.84.28-.48-.08.16-.17.09-.18-.47.16-.67.41-.73.54-.8.66-.32.19-.64.37-.95.56l-.14-.15c1.55-1.06,3.33-2.21,4.53-2.62.46-.16,1.03-.54,1.08-.69.04-.1-.14-.11.54-.52,2.75-1.75,5.85-3.15,9.16-4.11,2.06-.45,6.25-1.54,8.79-2.23Zm21.19-1.55c-.22,0-.43.04-.65.07.18,0,.35.03.56.03.21,0,.46-.04.85-.08-.35-.01-.56-.03-.76-.02Z"/><path d="m135.98,36.13c.44-.62.73-1.09,1-1.48.29-.37.48-.7.69-1.03.18-.35.34-.02.61-1.24.23-.98,0-.79-.11-.62-.15.15-.28.21-.41.31.09-.28.14-.56.17-.85.03-.29.08-.57.1-.86.02-.58,0-1.15-.1-1.72.09-.03.36.35-.02-1.22-.35-1.17-.58-1.68-.42-1.71.16.07.68,1.45.54.73-.03-.26-.24-.82-.4-1.17-.63-1.14-.34-.31-.53-.53-.11-.11-.2-.2-.36-.38-.28-.36-1.09-1.41-.87-.95.27.51.9,1.22,1.28,2l-.18.09c-1.58-2.96-4.06-5.29-6.71-7.2.54.14,1.08.03,3.13,2.04.34.33.88.86,1.08.93.21.08-.19-.36-.65-.82-.08-.23-.16-.45-.18-.64.25.2.51.39.75.61-.16-.21-.34-.4-.51-.6,1.83,1.44,3.23,3.24,4.02,5.17.11.56.42,1.55.78,2.57.37.97.51,2.5.22,3.85-.03.35-.12.67-.22.99-.08.31-.17.62-.24.9-.21.54-.35,1.02-.4,1.39-1.02,1.77-2.35,3.44-3.87,4.81-.12-.25-1.27.78-2.28,1.58-.88.74-1.48,1.09-2.23,1.5.14-.33,1.92-1.33,2.46-1.95.22-.21,1.15-.7,1.38-1.12.14-.26-.66.34-1.19.66-.56.31-.93.62-1.61,1.16-.83.71-1.89,1.43-2.85,1.72-.58.16-1.44.77-1.98,1.08-.93.57-.12.22.47,0,.93-.37,1.85-.78,1.77-.53l-.53.37c-1.11.32-3.01,1.37-4.73,2.06-.66.28-2.16.98-1.81.54.09-.09-1.96.79-2,.86-.08.18-.64.37-1.41.63l-.56.2c-1.04.39-2.28.88-1.92.47.49-.32.47-.31-.45-.07-.4.1-.94.23-1.04.21-.34-.05,1.26-.5,1.49-.68,1.61-.51,3.22-1.27,4.66-1.49.37-.07,1.33-.55,1.26-.55-.3.03,1.82-.9.27-.38.04-.09.2-.17.82-.42,2.02-.81,4.06-1.67,5.92-2.9.27.15.89-.19,1.59-.67.69-.5,1.45-1.13,2.02-1.56,1.33-1.02,2.13-1.98,3.3-3.25-.17.39-.8,1.53.98-.83Zm2.52-6.33l.06.35c0-.15.03-.33.02-.46,0-.11-.03-.17-.05-.26,0,.13-.02.25-.03.37Z"/><path d="m85.78,52.62c2.09-.44,4.67-.81,6.56-1.38,1.74-.18,4.29-.95,6.3-1.42.57-.14.79-.2,1.18-.34,1.22-.41,1.43-.86.05-.54-1.45.34-1.92.39-2.32.37-.41-.02-1.15.05-2.48.57-.15.06-.71.21-.96.25-2.39.47-4.67,1.04-7.04,1.46-5.45.98-10.95,1.69-16.48,2.05l.02.12c.47-.03.85-.05.96,0,.82-.08,1.8-.18,2.48-.24,1.63-.15,3.63-.45,4.93-.47.78.04,6.41-.61,7.52-.92.19-.04.38-.11.35-.12-.3-.1.76-.21,1.25-.27.57-.05.94-.09,1.45-.14.29-.03,1.16-.25,1.09-.18-.05.04-.55.18-1.23.33-1.42.33-3.47.62-3.62.86Z"/><path d="m78.85,54.95c1.45-.13,3.17-.2,4.11-.46-.42,0-.96,0-1.24.03-1.11.12-2.17.26-3,.14-.68-.1.26-.24.94-.38,1.2-.25,2.13-.22,3.11-.18.62.03,1.64-.02,2.14-.12,1.69-.35,2.46-.23,3.48-.22.65-.06,1.47-.18,1.64-.08.04.02-.26.1-.38.11-.85.08-.89-.01-1.27-.03l-1.79.53c1.23.18,2.78-.16,4.24-.38-.05-.1.04-.19,1.1-.33-.03-.07.06-.15-.1-.19-.49-.13,1.26-.33,1.77-.48.14-.04.5-.11.61-.07.23.08-.35.19-1,.34-.37.08-.07.18-.08.26.57-.17,2.24-.22,2.38-.45-.22,0-.8.08-.24-.06l.22.06c.85-.08.36.17,1.4.01.37-.06.65-.24.96-.36-.02-.06.1-.12.59-.24-.03-.02-.06-.03-.1-.05l-.55.08c-.93.02-3.82.33.06-.34.25-.04.36-.15.53-.23-1.67.26-3.42.64-4.97.61-.19,0-2.42.46-3.94.62-.41.13-.92.21-1.83.3-2.66.28-5.46.32-8,.67-1.04-.14-2.87.18-3.96.12-1.07-.06-1.92-.08-3.23.08-1.79.2-2.57.11-2.61-.11l-2.95.09c.14.13-.67.23-1.26.34,1.35.16,2.76.31-.1.52-.37.03-.13.08.24.11,1.16-.15,2.85.01,3.83-.13,2.24-.33,1.8-.05,2.11.07l.63-.02c.06-.08.39-.14,1.11-.17.08-.11.56-.16,1.25-.19l-.06-.11c.69-.02.58.05.58.1,1.35.04,3.38-.02,3.6.21Z"/><path d="m52.22,54.2c.77.05,1.31.05,1.72.02.86-.06,1.9-.1.33-.34-2.47-.38-2.6-.05-3.9-.11l-2.35-.34c-.54-.16-1.35-.24-2.19-.34-.84-.11-1.73-.21-2.43-.35v-.15c1.35.21,2.94.28,3.95.49,1.27.28,2.61.41,4.13.49,5.95.34,11.95.44,17.95.17.11.06.1.12-.64.21l-1.15.04-.6-.03c-.18-.02-.36-.02-.54.02-1.9.1-2.98.11-3.4.16-.43.05-.2.13.53.25.04,0,.06.02.08.02,1.68-.08,2.74-.08,3.8-.01,1.06.06,2.11.09,3.75-.08,1.36-.11,3.17-.3,3.56-.15-.89.09-1.89.35-2.19.28-.58-.12-1.51.03-2.43.09-3.27.21-6.47.25-9.83.28-4.8,0-9.73-.42-14.61-.96-.97-.13-2.52-.3-2.56-.49.59-.04,1.5.08,2.5.29,1.21.24,2.04.26,2.81.24,1.25.18,2.5.39,3.74.32Zm6-.1c.02.06.37.18,1.34.18.94,0,2.33-.11,2.38-.17.11-.13-1.12,0-1.56-.03-.86,0-2.22-.17-2.16.02Zm2.79.56c.62,0,1.72,0,1.76-.11.02-.06-.38-.11-1.04-.1-.71,0-1.39.06-2.3.05.67.09,1.09.16,1.58.16Zm-3.63-.48l-.36-.02.04.03c.27,0,.28,0,.31,0Z"/><path d="m4.17,16.24c-.98,1.18-1.72,2.12-2.6,3.62C.23,22.05-.3,25.37.16,28.21c.17,1.43.59,2.93,1.18,4.13l.18-.06c-.03-.33-.18-1.12.18-.25.61,1.25.97,1.74,1.32,2.1.36.36.62.65,1.21,1.38-.3-.41-.53-.81-.77-1.19-.24-.37-.48-.72-.67-1.06-.04-.09-.09-.17-.13-.23-.12-.06-.04.38-.55-.59-.38-.78-.52-1.38-.47-1.53l-.02-.14.02.13c.38,1.21.58,1.18,1.03,2.12.04.05.06.07.06.06-.17-.58-.46-1.17-.69-1.8-.12-.31-.27-.62-.38-.94-.09-.32-.18-.64-.25-.96l-.22-.59-.13-.62c-.07-.42-.17-.84-.18-1.28,0-.87.01-1.76.28-2.61.13-.51.22-.84.29-1.43.03-.93.62-2.16,1.31-3.22.41-.82.5-1.06.41-1.07-.1-.02-.35.2-.54.35-.1.08-.36.38-.03-.2.29-.49.55-.72.72-.88.13-.18.26-.36.41-.53-.34.18.78-1.24.44-1.05Z"/><path d="m109.49,9.26c-1.11-.42-2.27-.83-3.87-1.13-2.01-.31-4.11-.78-6.31-1.43-.44-.01-1.24-.16-1.97-.27l-1.18-.3c.13.09.32.25.38.26,2.18.4,3.59.98,5.67,1.44,1.52.34,2.89.69,3.25,1.02.01,0,.16.05.24.08.29.05.58.1.87.15-.19-.31,1.32.11,2.47.45,3.77,1.11,7.62,2.07,11.33,3.56,2.23.91,2.37.92,1.2.75-.35-.05-.6-.05-.89-.07,2.16.74,4.51,1.91,6.26,2.52-.37-.22-.73-.43-1.13-.63-.65-.33-1.67-.62-1.91-.88-.09-.11,1.01.24,1.7.49.37.14,1.03.46,1.54.73.44.21.9.48,1.13.54.31.07-.12-.21-.54-.48-.68-.42-.8-.66-1.91-1.18-1.35-.8-2.91-1.55-4.86-2.18-2.27-.62-4.86-1.45-7.48-2.23.02.07-.12.1-.59-.04-.84-.24-.28-.18-.44-.29-1.17-.12-2.38-.22-2.97-.86Z"/><path d="m67.62,53.97l-.6-.03h-.27s-.27.02-.27.02c-1.9.1-2.98.11-3.4.16-.43.05-.2.13.53.25.04,0,.06.02.08.02,1.68-.08,2.74-.08,3.8-.01,1.06.06,2.11.09,3.75-.08,1.36-.11,3.17-.3,3.56-.15.98-.18,2.75-.3,3.48-.53-.95.02-.05-.26.45-.31,1.45-.17.58.07.8.12.04.01,0,.03,0,.05,1.13.02,2.99-.43,4.24-.53.75-.16,1.43-.27,2.02-.31.16-.24,2.2-.54,3.62-.87.68-.15,1.18-.29,1.23-.33.07-.07-.8.15-1.09.18-.5.05-.87.08-1.45.14-.49.05-1.55.17-1.25.27.03.01-.16.07-.35.12-1.11.31-6.74.95-7.52.92-1.3.02-3.3.32-4.93.47-.68.07-1.66.16-2.48.24-.79.1-.84.05-.96,0l-.02-.12-1.17.07c.11.06.1.12-.64.21-.15.03-.25.08-.44.09-.62.03-.63-.02-.71-.05Z"/><path d="m7.48,39.63l-.03.08c.21.46.37.83.7,1.36.71,1.12,2.44,2.79,4.23,3.68.22.11.35.13.61.28.98.52,1.15.36.27-.28-.36-.27-.36-.27-.66-.29-.13-.02-.17.09-.84-.4-.21-.15-.38-.39-.56-.59-1.17-1.04-.97-1.1-1.15-1.43.68.55,1.39,1.13,2.09,1.65.71.52,1.47,1.01,2.24,1.48-.75-.19.76.75,1.5,1.2.3.1.59.2.89.28.58.24,1.15.48,1.74.69.02.03.02.05,0,.06-1.15-.22.41.65.28.85l-1.06-.43s0-.03-.05-.05c-.71-.39-.48-.54-1.4-.91-1.33-.59.06.28-.24.26l-.68-.17c-1.24-.64-2.48-1.33-3.65-2.15-1.17-.86-2.18-1.77-3.15-2.74-.29-.27-.57-.54-.85-.82l.06-.13.2.15-.25-.21-.52-.52c-.25-.29-.57-.72-.64-.63-.29-.27-.57-.56-.84-.86l.12.11.1.15c-.44-.71-1.73-2.31-1.83-2.94-.07-.28-1.67-2.3-2.29-3.58-.11-.21-.22-.32-.3-.49-.03-.33-.18-1.12.18-.25.61,1.25.97,1.74,1.32,2.1.36.36.62.65,1.21,1.38,1.05,1.47,2.17,2.82,3.23,4.13Zm5.49,5.63c.03.06.12.16.19.24.08.02.21.08.22.07.02-.02-.04-.09-.08-.16-.16-.07-.34-.17-.33-.15Z"/><path d="m91.94,53.57c-1.06.14-1.15.23-1.1.33l1-.09.76-.11c1.92-.18,3.76-.38,5.77-.78.82-.18,2-.38,3-.48,1.09-.13,3.12-.51,3.46-.6,3.58-.99,7.07-1.76,10.52-2.69,1.27-.34,2.02-.7,3.03-1.06,5.17-1.78,10.26-4.09,14.65-7.54.46-.39.95-.77,1.15-1.05-.12-.25-1.27.78-2.28,1.58-.88.74-1.48,1.09-2.23,1.5-.3.28-.96.69-1.54,1.02l-.53.37c-1.11.32-3.01,1.37-4.73,2.06-.66.28-2.16.98-1.81.54.09-.09-1.96.79-2,.86-.08.18-.64.37-1.41.63-.16.13-.36.19-.57.2-1.03.39-2.26.87-1.91.47l-.86.26c-.87.38-1.78.71-3.07.94-1,.44-1.98.89-3.4.88l-1.68.36c-.33.24-1.47.45-2.38.62-1.34.27-1.12.1-1.23.03-1.5.55-3.07.71-4.65.81-.32.12-.6.31-.96.36-1.04.16-.56-.09-1.4-.01-.12.23-1.79.28-2.36.45l-1.21.15Z"/><path d="m28.42,51.48c.79.33,1.68.63,2.93.78-.67-.27-1.33-.54-.47-.47.67.05,1.12.34,1.83.46.87.41,1.43.38,2.06.4.72.02,1.41.12,1.85.38,1.67.27,1.45.05,1.77-.03-.23-.18-1.55-.48-2.18-.71-1.07-.36-2.53-.67-3.92-.93-1.05-.2-1.95-.38-2.93-.67-1.03-.18-.04.32-1.8-.12-1.29-.36-1.04-.45-1.21-.6l-1.15-.31c.05.12.18.25.14.34-.03.06-.56-.07-1.05-.23-.43-.13-.74-.27-.48-.24.38.05,1.4.3.36-.1-.26-.1-1.22-.26-1.85-.43-.2-.05-.32-.02-.7-.22l.72.22c-.34-.4-1.76-.83-3.23-1.34-.53.04,1.65.99,1.42,1.12,2.47.75,2.39.89,2.14,1.02,1,.27,1.77.68,2.82.91-.08-.27,1.07-.12,2.79.34,2.38.65-.82,0-.03.32.11.04.12.07.18.11Z"/><path d="m45.05,4.31l-.96.15c-.62.12-1.23.24-1.84.38l-.68.14s.04.03.07.04c.4-.05.61-.06.28.05-.05.02-.21.05-.27.06-.53.06.02-.07.01-.11-.97.18-1.67.33-2.1.53-.68.3-1.59.51-2.33.64-.74.13-1.3.2-1.29.16.09-.25-1.42.12-2.52.36-1.35.45-2.68.9-4.03,1.42-.59.21-1.75.57-1.39.57.3,0,1.53-.46,1.86-.53,1-.23,2.46-.93,3.08-.85.76-.2,1.66-.43,1.8-.35.64-.16,1.32-.34,1.75-.37,1.41-.31,2.84-.61,4.25-.85,2.79-.49,5.19-1.1,8.05-1.38v-.14c-.72.1-1.44.21-1.82.17.03-.09.05-.17,1.12-.32l-.53-.12c-.84.11-1.68.21-2.51.35Z"/><path d="m65.81,55.19c-.37-.02-.61-.08-.24-.11,2.86-.21,1.45-.36.1-.52l-1.1.03.02.2.14.03-.13-.03c-1-.06-3.18.1-3.01-.2-1.66.02-3.17-.25-5.02-.1-.27.03-1.42-.1-1.48-.21l-1.75-.09c-.77.14-2.98.07-2.57.34.02.01-.38.01-.59.01-1.27-.49-1.85-.03-2.87-.19,0,.02,0,.04,0,.07,2.97.61,3.71.29,4.78.13h.23s-.24,0-.24,0c.6.06,1.7.14,1.73.17.28.51,2.49.28,4.26.28,1.85,0,3.99-.08,5.62.12.81.05.69.23,2.09.2l.03-.14Z"/><path d="m10.05,12.05c-.32.19-.64.37-.95.56-2.22,1.53-2.28,1.42-2.21,1.05-.74.52-.64.58-.96.89.4-.15.38.03.06.48-.33.44-.98,1.12-1.77,2.06.48-.33.61-.25.34.3.5-.36.79-.77,1.11-1.2-.27.23-.37.25-.04-.09.47-.45.44-.32.52-.33,1.15-.8,2.7-2.15,3.95-2.98,2.03-1.36,4.43-2.64,6.39-3.89l-.06-.07-1.51.8c-.41.37-.87.56-1.31.76l-1.82.93c-.08.15-.14.29-1.07.87-.62.4-1.01.57-1.33.73-.76.35.1-.38.66-.86Z"/><path d="m32.93,7.31c-.62-.08-2.08.61-3.08.85-.32.07-1.56.53-1.86.53-.37,0,.79-.36,1.39-.57,1.35-.52,2.68-.97,4.03-1.42l-.53.04-.67.18c-1.81.68-4.16,1.33-6.18,2.11-.46.24-.32.26-.06.25.46,0-.16.23-1.45.74v.07c0,.08-.36.27-1.16.57-.16.07-.32.13-.47.19.18,0,.94-.24,0,.18l.07.04c3.15-1.25,6.38-2.25,9.63-3.25-.56.01-1.57.15.33-.49Z"/><path d="m81.42,3.7c-.7-.07-.61-.35-1.88-.27-.95.06-1.82-.25-2.76-.27-.29.24-1.55.08-2.88-.11-1.13-.15-2.06-.16-2.92-.12-.89.06-1.28.15-.35.3,1.26.07,2.4.23,3.75.26,2.1.07,3.27.13,4.32.24,1.06.1,2,.25,3.66.56.08.01.24.04.26.04,1.73-.04,4.27.67,6.02.73-.15-.14-.15-.27-1.31-.51-.05.08-.33.04-1.13-.09-1.69-.28-3.27-.53-4.78-.78Z"/><path d="m32.93,7.31c-1.91.64-.9.51-.33.49,1.29-.3,2.17-.39,3.97-1.01,1.3-.44,3.99-.87,6.14-1.26,2.89-.51,5.93-1,8.89-1.19,1.3-.1,2.15-.16,2-.33-.15-.16-1.2-.09-2.37.08-.81.09-1.62.17-2.43.28-2.86.27-5.26.89-8.05,1.38-1.41.24-2.84.54-4.25.85-.33.11-.7.26-.99.33-.64.15-.72.09-.76.04-.15-.09-1.04.14-1.8.35Z"/><path d="m52.09,54.57c-1.07.16-1.81.48-4.78-.13-.8-.04-1.61-.08-2.41-.14-.64-.01-1.31-.04-1.16.08,1.11.3,2.59.32,3.83.42,4.71.38,9.44.62,14.19.52,1.27-.02,1.45-.1,1.93-.18-1.64-.2-3.77-.12-5.62-.12-1.78,0-3.98.23-4.26-.28-.02-.04-1.13-.11-1.71-.17Z"/><path d="m120.69,13.77c.3.02.54.02.89.07,1.16.17,1.03.16-1.2-.75-3.71-1.48-7.56-2.45-11.33-3.56-1.15-.34-2.66-.76-2.47-.45,2.09.81,4.44,1.43,7.05,2.06,1.68.41,2.92.87,2.52,1.02,1.69.42,2.99,1.06,4.54,1.61Z"/><path d="m88.64,5.08c-1.76-.06-4.29-.78-6.02-.73-.02,0-.18-.02-.26-.04-1.66-.31-2.6-.46-3.66-.56-1.05-.12-2.22-.17-4.32-.24-1.35-.03-2.5-.19-3.75-.26.52.23,1.09.49,3.14.71l1.52-.02c.57-.09,1.42-.03,2.63.12,1.47.16,3.25.34,4.52.51,2.56.34,4.87.46,7.28.99l-.6-.38c-.16-.03-.32-.06-.48-.08Z"/><path d="m58.46,3.58c.77-.21,1.39-.48-1.72-.32-1,.05-.38-.07-.3-.13,1.52-.23,3.22-.21,4.32-.16,2.78.15,3.41,0,4.01-.26h.57c1.83.12,4.82.27,1.97.54-.51.05-.5.17-.73.26-1.57-.04-3.14,0-4.7,0-1.01.02-1.77.06-1.87.19l-1.74.04c.06-.06.04-.11.21-.17Zm4.99-.3c.06,0,.16,0,.31-.02-.09,0-.17,0-.31.02Z"/><path d="m60.37.18c.89.17,4.03-.01,4.02.24,0,.12-1.27.24-1.81.39-.56.15-2.96.18-4.87.2-.86,0-1.68-.02-2.53,0-.83.02-1.84-.04-2.44.1-.64.14,1.64-.02,1.22.12,2.81.08,6.29-.21,9.2.01.92.07.72-.12,1.45-.12.71-.06-2.49-.21.15-.22.89-.17,3.21-.17,2.87-.42-.55-.04-1.26-.08-1.61-.12-.88-.11-.85-.44-3.11-.21-.01,0-.21-.02-.48-.05-.26-.02-.59-.05-.84-.06-1.47-.07-2.87-.03-4.1.1.43.23,2.06-.03,2.89.04Z"/><path d="m68.2,1.17c.73.04,1.25.1,1.62.18.94.2,2.71.4,4.12.41,1.26.02,2.4-.02,2.56-.16.29-.26-1.27-.56-4.79-.77-.86-.05-1.92-.2-2.89-.29-1.07.07-.67.24.48.4,1.16.15,2.23.16,3.07.11.31-.02,1.71.04,1.58.15-.11.1.69.25.16.31-.32.04-.48.1-1.43.04-.98-.06-1.41-.15-1.52-.23-.11-.08-.26-.16-1.35-.22-1.07-.05-1.61-.02-1.61.08Z"/><path d="m89.72,5.55c-2.41-.54-4.72-.65-7.28-.99-1.27-.18-3.05-.35-4.52-.51-1.21-.15-2.06-.2-2.63-.12,2.04.47,5.14.61,7.68.94,3.79.5,7.68.98,11.29,1.9l.32-.03c-.52-.21-2.41-.69.51-.18.95.18,1.52.17-.12-.19-1.74-.29-3.05-.25-5.25-.81Z"/><path d="m69.88,54.14c.04.22.83.31,2.61.11,1.31-.16,2.17-.14,3.23-.08,1.09.06,2.92-.26,3.96-.12,2.54-.35,5.34-.39,8-.67.91-.09,1.42-.17,1.83-.3-2.46.08-5.11.29-7.97.52-1.82.14-3.67.26-5.67.27-1.74,0-3.98.19-6,.27Z"/><path d="m25.23,5.14c-.41.12-.81.27-1.22.4-.62.14-1.24.3-1.85.49l-.76.29c-.81.36-1.58.78-2.37,1.16,1.54-.36,4.35-1.61,6.48-2.24,4.21-1.28,8.59-2.18,13.01-2.75l1.17-.21c-2.02.02-4.17.26-6.45.86-1.85.41-3.78.94-4.89.93l-.83.22-.59.17s.05.05.08.07h.19s-.41.09-.41.09l-1.56.51Z"/><path d="m13.19,15.87c-1.44.88-2.84,1.83-4.08,3-1.01.89-1.89,1.82-2.59,2.53-.56.71-.79,1.1-1.03,1.49-1.12,1.84-1.69,3.9-1.74,6.18-.02,1.19.28,1.8.46,2.11-.29-1.56-.28-3.17.08-4.71.36-1.53,1.05-2.98,1.97-4.28,1.87-2.59,4.46-4.62,7.18-6.38l-.26.04Z"/><path d="m56.43,3.14c1.52-.23,3.22-.21,4.32-.16,2.78.15,3.41,0,4.01-.26-4.57-.07-9.17.04-13.7.7-1.1.17-1.8.09-2.69.23-1.23.19-3.13.37-3.32.65.83-.14,1.67-.24,2.51-.35,1.38-.18,2.76-.3,4.14-.43,1.58-.15,3.16-.3,4.74-.39Z"/><path d="m21.8,48.09c-.09.07.25.32-1.55-.33-.37-.14-.73-.26-1.03-.36h0s-.02-.01-.02-.01c-.59-.27-.97-.41-.9-.26l.82.43h.01s.04.02.04.02c4.3,1.63,8.73,3.02,13.42,3.96v-.09s-.16-.1-.16-.1c-.09-.02-.19-.04-.29-.06-.84-.16-1.67-.33-1.88-.52-.15-.04-.3-.07-.45-.11l-1.72-.51c-.29.04-.89-.1-1.79-.43-1.01-.31-2.11-.49-2.99-.89-.29-.13.19-.05.69.07l.06-.04-.52-.28c-.97-.42-1.11-.29-1.72-.49Z"/><path d="m65.32,2.72c1.83.13,4.82.27,1.97.55-.51.05-.5.17-.73.26.87.03.58.1.63.16h1.16c-.36-.14,1.15-.15,1.19-.27l-.78-.06c.06,0,.17-.02.17-.02.21.03.42.05.63.07,1.03.13.39.23.6.35,1.16.2,2.36.31,3.6.2-2.05-.22-2.62-.48-3.14-.71-.93-.15-.54-.24.35-.3.86-.04,1.79-.03,2.92.12,1.33.19,2.59.35,2.88.11-3-.3-6.08-.33-9.05-.53-1.17-.06-1.79,0-2.4.08Z"/><path d="m94.97,6.36c1.63.37,1.07.37.12.19-2.92-.51-1.03-.03-.51.18.53-.04,1.41.24,2.11.37-.06-.1.5-.11.92.02,2.08.62,3.64.69,5.47,1.16,1.01.13,1.04.23,1.09.34.96.36,1.23.33,1.54.31-.09-.03-.24-.07-.25-.08-.35-.32-1.73-.68-3.25-1.02-2.09-.47-3.49-1.04-5.67-1.44-.05-.01-.25-.17-.38-.26-.75-.2-1.5-.38-2.26-.57l-1.2-.31-.17.16c2.58.53,2.69.76,2.43.95Z"/><path d="m125.83,14.87c1.12.53,1.24.77,1.91,1.18.43.28.85.56.54.48-.24-.05-.7-.32-1.13-.54-.52-.27-1.18-.6-1.54-.73-.69-.25-1.79-.61-1.7-.49.23.26,1.25.55,1.91.88.4.2.76.41,1.13.63.45.35.94.51,1.41.75.8.39,1.64.83,1.48.59-.65-.93,1.8.47,3.73,2.13-.16-.29-1.22-1.09-1.23-1.24-1.71-1.2-3.34-2.32-5.22-3.25-1.35-.65-1.1-.41-1.29-.41Z"/><path d="m103.08,8.28c-1.83-.47-3.39-.54-5.47-1.16-.42-.12-.98-.12-.92-.02,3.69.79,7.35,1.64,11.01,2.58,1.83.47,3.74,1.05,5.53,1.62,1.08.35,1.97.59,2.92.86.4-.16-.84-.61-2.52-1.02-2.61-.63-4.96-1.25-7.05-2.06-.29-.05-.58-.1-.87-.15-.31.01-.58.04-1.54-.31l-1.09-.34Z"/><path d="m56.43,3.14c-1.58.09-3.16.24-4.74.39l-.03.14c.64-.07,1.22-.09,1.12,0-.09.09-.75.14-1.33.21-.21.09-.22.15-.23.22,1.17-.17,2.22-.24,2.37-.08,1.51-.06,3.07-.14,4.65-.26.06-.06.04-.11.21-.17.77-.21,1.39-.48-1.72-.32-1,.05-.38-.07-.3-.13Z"/><path d="m44.9,54.3c.8.06,1.6.1,2.41.14v-.07s-.12-.04-.12-.04l.12.04c1.02.16,1.6-.3,2.87.19.21,0,.61,0,.59-.01-.41-.27,1.8-.21,2.57-.34-.12-.08-.66-.1-1.13-.12-.63.07-1.63-.01-2.51-.07-.65-.09-1.08.16-1.41-.06-.35-.23-1.44-.2-2.04-.3-1.05.03-1.51-.1-1.85-.25-.61-.09-1.33-.32-1.73-.18l-.28.07c.72.13,1.06.3,2.08.4.69.12.42.17.47.24,3.16.44-.44.2-.03.36Z"/><path d="m31.07,50.33c.96.32,2.06.69,2.99,1,1.86.7,5.53,1.2,7.12,1.2-1.44-.26-3.05-.53-1.99-.57-2.75-.55-5.48-1.1-8.11-1.63Z"/><path d="m44.93,53.94c3.16.44-.45.2-.03.36-.64-.01-1.31-.04-1.16.08-1.81-.19-3.75-.26-5.34-.79-.08-.03-.1-.04-.07-.06,2.4.18,2.63-.12,2.55-.43l1.51.2c.72.13,1.06.3,2.08.4-.07.06-.1.13.47.24Zm-1.92,0c.38.08.75.06.63.01-.23-.1.99-.11-.82-.33-.91-.08-.84-.02-.19.12.12.06.1.13.39.19Z"/><path d="m86.61,54.28c-.56.04-1.03-.04-1.65.12-1.38.36-1.53.15-1.99.08-.42,0-.96,0-1.24.03-1.11.12-2.17.26-3,.14-.68-.1.26-.24.94-.38,1.2-.25,2.13-.22,3.11-.18.62.03,1.64-.02,2.14-.12,1.69-.35,2.46-.23,3.48-.22-.59.17-1.19.35-1.79.52Zm-6.67.23s.21-.02.22-.03c.02-.02,0-.04-.02-.05l-.46.06c.08,0,.16.02.26.03Z"/><path d="m11.54,42.83c-.98-.72-1.92-1.56-2.81-2.4-.86-.87-1.68-1.74-2.4-2.6-.38-.42-.76-1.12-1.01-1.62-.44-.91-.77-1.5-1.06-1.98.62,2.03,2.15,4.15,3.82,5.82,1.06,1.1,2.18,2.09,3.34,3,1.16.91,2.37,1.76,3.72,2.49.39.22.86.49,1.06.54-.47-.42-1.36-.98-2.41-1.58-1.27-.73-1.78-1.21-2.26-1.69Z"/><path d="m68.2,1.17c0-.1.54-.13,1.61-.08,1.1.06,1.24.14,1.35.22.11.08.53.17,1.52.23.95.06,1.11,0,1.43-.04.52-.06-.28-.21-.16-.31.13-.11-1.28-.16-1.58-.15-.84.05-1.91.04-3.07-.11-1.15-.15-1.55-.32-.48-.4-.39-.06-.79-.11-1.19-.06.34.25-1.98.25-2.87.42.63.07,1.2.14,1.23.23l2.21.05Z"/><path d="m97.89,52.62c1.58-.09,3.15-.26,4.65-.81.87-.36,3.65-.9,4.08-1.28l-.26-.18c-1.02.15-1.93.37-2.74.62-.12.07.27.06-.34.2l-.21-.09c-.17.02-.36.05-.56.1-2.38.5-1.84.76-4.03,1.21-.49.11-.61.18-.59.24Z"/><path d="m32.88,6.73l.53-.04c1.1-.24,2.61-.61,2.52-.36-.01.04.55-.03,1.29-.16.74-.13,1.65-.34,2.33-.64.43-.2,1.13-.35,2.1-.53-.05,0-.07-.02-.09-.04v-.19c-2.89.45-5.76.98-8.68,1.95Z"/><path d="m7.68,19.04c-.06.27.91-.62,1.76-1.26,1.81-1.42,4.1-2.74,5.8-3.79,1.18-.72,2.01-1.16,3.22-1.72.73-.35.28-.25.31-.34-2.62,1.18-5.14,2.45-7.59,4.27-1.05.79-2.41,1.78-3.51,2.84Z"/><path d="m64.56,54.6l1.1-.03c.59-.1,1.4-.2,1.26-.34-2.97-.05-6.15.14-9.16-.12-1.21-.11-1.59.16-2.68.18.05.11,1.21.23,1.48.21,1.85-.15,3.36.12,5.02.1,1.07-.4,1.98.06,2.98,0Z"/><path d="m114.3,48.99l.86-.26c.48-.32.47-.31-.45-.07-.4.1-.94.23-1.04.21-.34-.05,1.26-.5,1.49-.68l-1.24.24-1.89.49c-1.24.46-2.51.84-3.77,1.25,2.68-.44,2.65-.38-.43.66,1.43,0,2.4-.44,3.4-.88,1.02-.32,1.41-.81,3.07-.94Z"/><path d="m133.57,19.76c-1.93-1.66-4.38-3.06-3.73-2.13.16.24-.69-.2-1.48-.59.12.34,1.29.81,1.9,1.25.54.14,1.08.03,3.13,2.04.34.33.88.86,1.08.93.21.08-.19-.35-.63-.8l-.21-.17.19.15-.25-.68Z"/><path d="m38.4,53.59c-.08-.03-.1-.04-.07-.06-.25-.13-2.08-.42-1.71-.52-.44-.26-1.13-.37-1.85-.38-.63-.01-1.19,0-2.06-.4-.71-.12-1.16-.41-1.83-.46-.85-.06-.2.21.47.47,2.36.57,4.85,1.26,7.05,1.33Z"/><path d="m5.94,39.29c-.44-.71-1.73-2.31-1.83-2.94-.07-.28-1.67-2.3-2.29-3.58-.11-.21-.22-.32-.3-.49l-.18.06c.74,2.1,2.05,3.72,3.29,5.47.32.42.67.82,1.02,1.22.14.16.23.25.28.27Z"/><path d="m21.37,47.47c.71.45,5.8,2.25,7.51,2.58,1.67.37.66-.05,1.01-.07-1.06-.24-2.13-.46-3.09-.85-.21-.08-.93-.31-.98-.32-1.39-.19-3-.89-4.45-1.34Z"/><path d="m60.37.18c-.83-.08-2.46.19-2.89-.04-.86-.09-1.7,0-2.54.07-1.4.22-3.64.25-5.29.47.34.08.31.2,2.07-.01,1.07-.13,2.62-.18,3.95-.24l.74-.1.24.03-.93.07c1.1.01-2.28.49,1.76.2.14-.1-.39-.22,1.2-.27.32-.09,1.78-.05,1.7-.18Z"/><path d="m6.93,20.03s-.17.08.18-.3c-1.29,1.32-2.48,2.88-3.21,4.63-.74,1.74-.95,3.63-.67,5.23l.07-.09c0-.4-.01-.81,0-1.21l.12-1.21c.21-1.31.63-2.58,1.22-3.78.61-1.18,1.4-2.27,2.28-3.26Z"/><path d="m49.65.67c1.65-.22,3.88-.24,5.29-.47-.2-.19-1.51.02-2.19.04-2.6.06-5.26.35-7.85.63.56.3,3.09-.12,4.75-.2Z"/><path d="m8.96,12.46c1.55-1.06,3.33-2.21,4.53-2.62.46-.16,1.03-.54,1.08-.69.04-.1-.14-.11.54-.52.12-.3-1.22.52-1.94.93-1.63.92-3.26,1.92-4.82,3.03.17-.02-.16.33.61-.13Z"/><path d="m2.76,19.62c-.69,1.07-1.28,2.29-1.31,3.22-.07.59-.16.91-.29,1.43-.27.85-.28,1.74-.28,2.61.01.43.11.86.18,1.28l.13.62.22.59c-.18-1.63-.45-3.66-.02-5.6.26-1.43.77-2.8,1.49-4.07l-.11-.09Z"/><path d="m135.01,36.96c-.17.39-.8,1.53.98-.83.44-.62.73-1.09,1-1.48.29-.37.48-.7.69-1.03.18-.35.34-.02.61-1.24.23-.98,0-.79-.11-.62-.15.15-.28.21-.41.31-.48,1.81-1.5,3.46-2.75,4.9Z"/><path d="m22.66,49.8c.25-.13.33-.27-2.14-1.02-.58-.18-1.16-.34-1.73-.53l-1.06-.43c-.47-.13-1.09-.42-1.68-.7l-.68-.17c-.11.09.63.43,1.22.67,1.99.85,4.03,1.56,6.08,2.18Z"/><path d="m113.93,48.42l1.24-.24c1.61-.51,3.22-1.27,4.66-1.49.37-.07,1.33-.55,1.26-.55-.3.03,1.82-.9.27-.38-2.41,1.02-5.21,1.65-7.43,2.65Z"/><path d="m22.31,48.99c.63.17,1.6.33,1.85.43,1.03.39.02.14-.36.1-.26-.03.05.1.48.24.49.16,1.02.29,1.05.23.04-.09-.08-.22-.14-.34-2-.8-4.32-1.52-6.56-2.42l-.13.13s.02.05,0,.06l.59.25c1.47.51,2.89.94,3.22,1.33Z"/><path d="m98.47,52.39c2.2-.45,1.65-.71,4.03-1.21-1.25.08-2.52.12-4.09.67-.17.08-.28.18-.53.23-3.88.67-1,.36-.06.34.09-.06-.03-.1.67-.22l-.12.14s.07.03.1.05Z"/><path d="m137.9,24.99c.11.56.42,1.55.78,2.57.37.97.51,2.5.22,3.85-.03.35-.12.67-.22.99-.08.31-.17.62-.24.9-.21.54-.35,1.02-.4,1.39.79-1.52,1.2-3.23,1.19-4.93-.03-1.71-.57-3.34-1.33-4.76Z"/><path d="m93.91,5.56c.75.19,1.51.36,2.26.57l1.18.3c.03-.16,1.01.04,1.97.27,2.2.65,4.3,1.12,6.31,1.43-.17-.12-.76-.34-1.17-.42-3.41-.67-7.17-1.76-10.54-2.15Z"/><path d="m49.76,1.53c-.13-.19-.54-.32-2.8.05-1.68.27-3.84.19-5.45.56,2.48.03,5.45-.39,8.25-.62Z"/><path d="m19.64,12.45c-.8.17-2.28.69-3.86,1.41.4.01-.32.57-1.25,1.29,1.08-.51,1.98-1.1,2.96-1.63.46-.41,1.39-.72,2.15-1.07Z"/><path d="m24.27,4.52c2.06-.45,6.25-1.54,8.79-2.23-2.56.34-5.09,1.03-7.57,1.79-.02.14-.65.27-1.22.44Z"/><path d="m74.73,54.75c-.69.03-1.17.08-1.15.17l.76.02.17.07h-.57s-.47-.07-.47-.07c-.71.03-1.05.08-1.11.16,2.18-.04,4.08.1,6.49-.16-.23-.23-2.25-.17-3.6-.21h-.52Z"/><path d="m113.49,10.45c2.62.78,5.21,1.62,7.48,2.23-.83-.44-1.63-.77-2.98-1.09-1.71-.4-3.73-1.17-5.59-1.64l.06.18c.34.11.68.21,1.03.32Z"/><path d="m4.22,17.08c.78-.94,1.44-1.62,1.77-2.06.33-.44.35-.63-.06-.48l-.9.82-.86.87c.34-.19-.78,1.23-.44,1.05.51-.49.38-.21.49-.21Z"/><path d="m108.26,50.15c1.26-.41,2.53-.79,3.77-1.25-.98.22-1.95.43-2.91.64-.95.23-1.88.5-2.77.81l.26.18c.55-.12,1.1-.24,1.65-.38Z"/><path d="m40.87,53.1l1.51.2.28-.07c-2.2-.32-4.4-.77-6.46-.95.63.23,1.96.53,2.18.71.43.04.79.08,1.15.11.11-.08.18-.16,1.34,0Z"/><path d="m2.76,19.62l.11.09c.25-.41.49-.82.79-1.2.28-.39.57-.77.9-1.13.27-.55.14-.63-.34-.3-.95,1.09-.79.79-.9.74-.17.16-.43.39-.72.88-.33.58-.07.28.03.2.19-.15.44-.37.54-.35.09.01,0,.26-.41,1.07Z"/><path d="m65.81,55.19l-.03.14c2.03,0,4.26.14,5.97-.21-.31-.12.14-.4-2.11-.07-.98.15-2.67-.02-3.83.13Z"/><path d="m92.54,5.41l.17-.16c-2.25-.54-4.34-.74-6.47-.98l1.08.3c1.16.24,1.16.37,1.31.51.16.03.32.05.48.08.05-.26.43-.41,3.42.24Z"/><path d="m66.56,3.52c-1.57-.04-3.14,0-4.7,0-1.01.02-1.77.06-1.87.19,1.05.04,2.15.02,3.26,0,1.11-.03,2.24-.05,3.32,0,0-.06.01-.13-.01-.2Z"/><path d="m87.33,4.57l-1.08-.3c-1.67-.32-3.41-.71-4.83-.57,1.52.25,3.09.51,4.78.78.8.13,1.08.17,1.13.09Z"/><path d="m28.42,51.48c-.06-.04-.07-.07-.18-.11-.8-.32,2.41.33.03-.32-1.72-.47-2.87-.62-2.79-.34,1,.32,2.04.74,2.94.77Z"/><path d="m11.54,42.83c.47.48.99.96,2.26,1.69,1.06.6,1.94,1.16,2.41,1.58.37.2.85.47,1.02.49l-.82-.67c-1.6-.97-3.18-1.92-4.67-3.03l-.19-.05Z"/><path d="m39.18,51.96c-1.05.04.55.31,1.99.57,1.07.18,1.75.22,2.21.2v-.15c-.7-.08-1.39-.16-2.09-.24-.7-.11-1.4-.24-2.12-.38Z"/><path d="m26.03,9.03c2.02-.78,4.38-1.43,6.18-2.11-2.14.44-4.16,1.27-6.21,1.99l.03.12Z"/><path d="m128.1,42.45c.27.15.89-.19,1.59-.67.69-.5,1.45-1.13,2.02-1.56-.14-.04.12-.38-1.26.69-.69.53-1.54,1.05-2.34,1.54Z"/><path d="m26.34,49.95c.17.15-.08.25,1.21.6,1.75.44.77-.06,1.8.12-1.35-.53-2.01-.46-3.01-.72Z"/><path d="m19.04,7.48c.79-.39,1.57-.8,2.37-1.16-1.55.61-1.69.55-1.97.51-.16-.01-.55.08-1.27.44-.27.13-.68.36-.75.43-.2.19.39-.08.86-.28,1.7-.71-1.21.88.27.28.15-.07.31-.14.48-.22Z"/><path d="m42.22,53.21c-1.19-.07-2.69-.78-3.67-.58.46.28.46.34,3.67.58Z"/><path d="m11.2,43.48c-1.17-1.04-.97-1.1-1.15-1.43-.9-.81-1.79-1.8-2.57-2.42l-.03.08c.56.67,1.72,1.68,1.73,1.87.03.43,1.04,1.18,2.02,1.9Z"/><path d="m14.38,45.17c-.75-.19.76.75,1.5,1.2.3.1.59.2.89.28l.77.05c-1.09-.52-2.12-.85-3.16-1.54Z"/><path d="m137.15,25.4l-.18.09c.42.99.72,2,.96,3.14.09-.03.36.35-.02-1.22-.35-1.17-.58-1.68-.42-1.71-.27-.47-.27-.29-.34-.3Z"/><path d="m14.53,15.16c.93-.72,1.65-1.28,1.25-1.29-1.02.69-2.49,1.69-2.59,2l.26-.04c.35-.23.72-.44,1.08-.67Z"/><path d="m8.96,12.46c-.77.46-.43.11-.61.13-.5.34-.98.7-1.47,1.07-.07.37-.02.48,2.21-1.05l-.14-.15Z"/><path d="m112.47,10.13l-.06-.18c-1.11-.32-2.07-.56-2.91-.69.59.64,1.8.73,2.98.86Z"/><path d="m9.4,40.07s-.14-.02-.08.08c.17.3-1.19-.75.14.52,1.19,1.12.27.03.5.13.06.03.48.37.74.56-.26-.3-.48-.59-1.3-1.28Z"/><path d="m19.64,12.45c-.77.35-1.69.67-2.15,1.07l1.18-.54c.44-.22.82-.39,1.05-.44.71-.37,1.45-.68,2.17-1.02l-.49.14c-.59.26-1.19.5-1.76.79Z"/><path d="m79.52,53.47s.04-.04,0-.05c-.21-.05.65-.29-.8-.12-.49.06-1.4.33-.45.31l1.24-.15Z"/><path d="m69.54,3.4c-.04.12-1.55.13-1.19.28l1.81.06c-.21-.12.43-.22-.62-.34Z"/><path d="m65.98,1.13c-.04-.09-.61-.16-1.23-.23-2.63,0,.57.16-.14.22.11.02.27.03.46.03h.79c.16,0,.21,0,.14-.02Z"/><path d="m6.56,39.88c-.29-.27-.57-.56-.84-.86.23.51,1.25,1.57,1.86,2.25l.14-.05.06-.13c-.23-.23-.4-.41-.57-.58-.12-.02-.38-.33-.64-.64Z"/><path d="m132.34,18.52c.01.15,1.07.95,1.3,1.29.25.2.51.39.75.61-.16-.21-.34-.4-.51-.6-.45-.47-.96-.9-1.54-1.3Z"/><path d="m17.54,46.71l-.77-.05c.58.24,1.15.48,1.74.69l.13-.13c-.37-.17-.74-.33-1.1-.51Z"/><path d="m44.39,53.4c.34.16.8.29,1.85.25-.49-.11-.67-.32-1.85-.25Z"/><path d="m42.24,4.84c.61-.14,1.23-.26,1.84-.38.06-.17-.97,0-1.87.21l.03.17Z"/><path d="m49.69,54.01c.89.05,1.88.14,2.51.07-1.27-.22-1.95-.16-2.51-.07Z"/><path d="m85.77,52.62c-.59.05-1.26.15-2.02.31.65-.08,1.07.06,2.02-.31Z"/><path d="m21.4,11.67l.49-.14,1.09-.47-.07-.04c-.52.15-1.02.36-1.5.65Z"/><path d="m2.74,33.07s-.03,0-.06-.06c.04.07.09.15.13.24l.2.08-.27-.26Z"/><path d="m19.71,12.55c-.23.05-.61.23-1.05.44.03.1.39-.06,1.05-.44Z"/><path d="m6.16,15.76c-.08.01-.05-.12-.52.33-.33.34-.23.32.04.09.15-.15.32-.28.48-.42Z"/><path d="m7.71,41.23l-.14.05c.45.43.8.69.99.78-.29-.27-.57-.54-.85-.82Z"/><path d="m5.66,39.02c-.35-.39-.7-.79-1.02-1.22.33.59.69.99,1.02,1.22Z"/><path d="m66.59,3.52l-.02.19c.39.02.6,0,.62-.04-.05-.06.24-.13-.6-.15Z"/><path d="m103.06,51.08l.21.09c.61-.14.22-.13.34-.2-.19.02-.37.06-.55.11Z"/><path d="m24.27,4.52c.57-.17,1.2-.29,1.22-.44-.53.13-1.05.28-1.22.44Z"/><path d="m11.74,42.89c1.49,1.11,3.07,2.07,4.67,3.03.57.32.83.42.91.39l.15-.12c-.89-.5-1.16-.72-.79-.62.17.05.4.11-.18-.23-.17-.1-.44-.25-.67-.37-.23-.13-.42-.22-.42-.21-.03.29-2.32-1.16-3.24-1.69-.19-.1-.29-.13-.43-.19Z"/><path d="m48.48,53.87c1.25.18,2.5.39,3.74.32-2.11-.16-.37-.25-1.85-.44l-2.35-.34c.29.16,1.53.42.46.46Z"/><path d="m6.53,21.41c.7-.71,1.58-1.64,2.59-2.53-.08-.02.01-.21-.27-.03-.37.25.9-1.01-.32.06-.82.77-.59.69-.45.66.07,0,.15.06-.44.5-1.07.83-.64.84-1.12,1.34Z"/><path d="m28.07,50.15l1.72.51c.24,0,1.74.31.45-.09-1.37-.43-1.86-.45-2.17-.42Z"/><path d="m23.98,48.9c-.51-.12-.98-.2-.69-.07.88.4,1.98.58,2.99.89-.04-.18-1.39-.52-2.3-.82Z"/><path d="m3.44,27.07l-.12,1.21c-.01.4,0,.81,0,1.21.05-.07.09-.29.11-.62,0-.33.04-.75.1-1.23.07-.74-.04-.51-.09-.57Z"/><path d="m22.9,10.84c.15-.06.31-.13.47-.19l.02-.13c-.67.26-1.49.6-1.74.82l1.25-.5Z"/><path d="m30.24,50.77c.21.19,1.04.36,1.88.52l-.03-.13c-.62-.13-1.23-.26-1.84-.39Z"/><path d="m19.44,46.92l-.04-.02h.02s-.28-.16-.28-.16l-.33-.1c.13.07.29.16.4.21.08.04.14.05.2.06h-.02s.05,0,.05,0Z"/><path d="m5.49,22.89c.24-.38.48-.77.76-1.13-.13.12-.25.18-.38.38-.38.55-.33.57-.38.75Z"/><path d="m23.52,48.58l.52.28c.89.18.22-.04-.52-.28Z"/><path d="m32.09,51.16c.32.07.77.19.78.13,0-.01-.22-.08-.33-.11-.53-.12-.39-.04-.44-.02Z"/><path d="m17.47,46.2l-.15.12c.71.31.79.29.15-.12Z"/><path d="m5.53,35.56s.02.11.07.18c.01-.02-.03-.1-.07-.18Z"/><path d="m24.52,10.08v-.07s-1.12.5-1.12.5c.37-.14.74-.29,1.12-.44Z"/><path d="m21.78,48.09l-.12-.06s.09.05.12.06Z"/><path d="m32.41,51.35l.15.1c.51.08.41.04-.15-.1Z"/><path d="m10.05,12.05c-.56.48-1.42,1.21-.66.86.32-.15.72-.32,1.33-.73.93-.57.99-.72,1.07-.87-.54.22-.84.28-.48-.08.16-.17.09-.18-.47.16-.67.41-.73.54-.8.66Z"/><path d="m58.67.36c-1.6.05-1.06.17-1.2.27.59,0,1.42-.06,1.51.06.04.06.62.13,1.14.1.54-.03,1.03-.09,1.22-.16.32-.1-.72-.06-1.04-.08-.64-.05-1.09-.13-1.62-.19Z"/><path d="m28.36,4.08c1.12.01,3.04-.52,4.89-.93-1.39.09-2.96.3-4.89.93Z"/><path d="m26.94,4.47l.59-.17c.1-.04.15-.08.29-.13,1.08-.36,1.81-.64.63-.48-.31.04-1.14.22-.98.24.36.02-3.23,1.15-.52.53Z"/><path d="m14.93,9.61l1.51-.8c-.03-.09,1.17-.88-.18-.19-1.01.51-1.64.99-1.33.99Z"/><path d="m22.17,6.03c.61-.18,1.23-.34,1.85-.49-.07-.06.88-.46.03-.24-.68.17-1.38.45-1.88.73Z"/><path d="m55.02.77c-.35-.01-.56-.03-.76-.02-.22,0-.43.04-.65.07.18,0,.35.03.56.03.21,0,.46-.04.85-.08Z"/><path d="m25.23,5.14l1.56-.51c.07-.03.15-.06.22-.09l-.09-.04c-.7.23-1.75.52-1.7.65Z"/><path d="m13.62,10.38c.45-.2.9-.39,1.28-.74l-1.28.74Z"/><path d="m51.44,1.26c-.17,0-.25,0-.34.02.06,0,.12,0,.34-.02Z"/><path d="m128.12,43.59c.58-.33,1.24-.74,1.54-1.02.14-.33,1.92-1.33,2.46-1.95.22-.21,1.15-.7,1.38-1.12.14-.26-.66.34-1.19.66-.56.31-.93.62-1.61,1.16-.83.71-1.89,1.43-2.85,1.72-.58.16-1.44.77-1.98,1.08-.93.57-.12.22.47,0,.93-.37,1.85-.78,1.77-.53Z"/><path d="m137.15,25.4c.08.01.07-.17.34.3.16.07.68,1.45.54.73-.03-.26-.24-.82-.4-1.17-.63-1.14-.34-.31-.53-.53-.11-.11-.2-.2-.36-.38-.28-.36-1.09-1.41-.87-.95.27.51.9,1.22,1.28,2Z"/><path d="m138.54,29.43c0,.13-.02.25-.03.37l.06.35c0-.15.03-.33.02-.46,0-.11-.03-.17-.05-.26Z"/><path d="m117.64,48.06l-.56.2c.18-.06.38-.13.56-.2Z"/><path d="m70.61,53.77c.12.04.16.09.96,0-.11-.04-.49-.02-.96,0Z"/><path d="m91.94,53.57l1.21-.15c0-.09-.29-.18.08-.26.65-.14,1.23-.26,1-.34-.11-.04-.47.03-.61.07-.51.16-2.26.35-1.77.48.16.04.07.13.1.19Z"/><path d="m88.4,53.75c.38.02.41.12,1.27.03.12-.01.41-.1.38-.11-.18-.09-1,.02-1.64.08Z"/><path d="m74.73,54.75h.52c0-.07.11-.13-.58-.11l.06.11Z"/><path d="m98.37,52.34l.12-.14c-.7.11-.58.15-.67.22l.55-.08Z"/><path d="m95.52,52.97l-.22-.06c-.56.14.02.06.22.06Z"/><path d="m50.37,53.76c1.48.18-.26.28,1.85.44.77.05,1.31.05,1.72.02.86-.06,1.9-.1.33-.34-2.47-.38-2.6-.05-3.9-.11Z"/><path d="m60.37,54.07c-.86,0-2.22-.17-2.16.02.02.06.37.18,1.34.18.94,0,2.33-.11,2.38-.17.11-.13-1.12,0-1.56-.03Z"/><path d="m59.43,54.49c.67.09,1.09.16,1.58.16.62,0,1.72,0,1.76-.11.02-.06-.38-.11-1.04-.1-.71,0-1.39.06-2.3.05Z"/><path d="m67.62,53.97c.08.04.09.09.71.05.19-.01.3-.06.44-.09l-1.15.04Z"/><path d="m57.07,54.18c.19-.01.07-.02-.04-.03l.04.03Z"/><path d="m66.48,53.95h.27s.27-.02.27-.02c-.18-.02-.36-.02-.54.02Z"/><path d="m1.65,30.91c-.05.15.1.75.47,1.53.51.97.43.53.55.59-.45-.95-.65-.91-1.03-2.12Z"/><path d="m3.32,17.82c.12.05-.05.35.92-.75-.12.02,0-.27-.51.22-.15.17-.28.35-.41.53Z"/><path d="m1.64,30.9l-.02-.13s.01.09.02.13Z"/><path d="m113.49,10.45l-1.04-.33c.17.1-.39.04.44.29.48.14.61.11.59.04Z"/><path d="m99.31,6.7c-.95-.23-1.94-.43-1.97-.27.72.11,1.52.26,1.97.27Z"/><path d="m11.2,43.48c-.97-.71-1.99-1.46-2.02-1.9-.02-.19-1.17-1.2-1.73-1.87.21.46.37.83.7,1.36.71,1.12,2.44,2.79,4.23,3.68.22.11.35.13.61.28.98.52,1.15.36.27-.28-.36-.27-.36-.27-.66-.29-.13-.02-.17.09-.84-.4-.21-.15-.38-.39-.56-.59Z"/><path d="m19.1,47.66l-.59-.25c-1.15-.22.41.65.28.85.57.19,1.16.35,1.73.53.23-.13-1.95-1.08-1.42-1.12Z"/><path d="m16.04,47.11c.6.28,1.21.58,1.68.7-.01-.02,0-.02-.04-.05-.71-.39-.48-.54-1.4-.91-1.33-.59.06.28-.24.26Z"/><path d="m13.3,45.41c-.16-.07-.34-.17-.33-.15.03.06.12.16.19.24.08.02.21.08.22.07.02-.02-.04-.09-.08-.16Z"/><path d="m6.56,39.88c.26.31.52.62.64.64-.25-.29-.57-.72-.64-.64Z"/><path d="m7.77,41.1l.2.15c-.08-.07-.17-.14-.2-.15Z"/><path d="m108.26,50.15c-.54.14-1.1.26-1.65.38-.43.38-3.21.92-4.08,1.28.11.07-.1.24,1.23-.03-.59-.02.37-.27.97-.44.74-.21,1.11-.19,1.41-.18l1.68-.36c3.08-1.04,3.11-1.1.43-.66Z"/><path d="m106.14,51.17c-.3-.01-.67-.03-1.41.18-.6.17-1.57.41-.97.44.91-.17,2.05-.38,2.38-.62Z"/><path d="m114.3,48.99c-1.66.13-2.06.62-3.07.94,1.29-.23,2.2-.56,3.07-.94Z"/><path d="m117.65,48.05l-.58.2c.21,0,.41-.07.58-.2Z"/><path d="m40.87,53.1c-1.16-.16-1.23-.08-1.34,0,.15.16-.45.03-1.09-.11-.39.07-.16.29-1.83.03-.37.1,1.47.38,1.71.52,2.4.18,2.63-.12,2.54-.43Z"/><path d="m22.33,49l-.72-.22c.38.19.5.17.72.22Z"/><path d="m51.25,3.89c.28-.09.35-.16.42-.22-1.2.14-2.39.24-3.58.41-1.07.15-1.09.23-1.12.32.64-.07,1.42-.2,1.81-.17.82-.13,1.65-.23,2.47-.34Z"/><path d="m48.09,4.08c1.19-.17,2.38-.28,3.57-.41l.03-.14c-1.38.13-2.76.25-4.14.43l.53.12Z"/><path d="m51.25,3.89c-.82.11-1.65.21-2.47.34v.14c.82-.11,1.64-.18,2.45-.28l.03-.21Z"/><path d="m34.73,6.97c.04.05.11.11.76-.04.29-.07.66-.22.99-.33-.43.03-1.11.21-1.75.37Z"/><path d="m48.77,4.23c-.39-.03-1.17.09-1.81.17.38.04,1.1-.07,1.81-.17Z"/><path d="m41.65,5.02s-.54.17-.01.11c.06,0,.22-.04.27-.06.33-.11.13-.1-.26-.05Z"/><path d="m64.56,54.6c-1.01.06-1.91-.4-2.98,0-.17.3,2.01.14,3.01.2-.02-.07-.02-.13-.03-.2Z"/><path d="m52.07,54.56h.24c-.08,0-.15,0-.24,0Z"/><path d="m64.59,54.8l.13.03s-.09-.02-.13-.03Z"/><path d="m24.52,10.08l-1.13.44-.02.13c.79-.3,1.16-.48,1.15-.57Z"/><path d="m92.54,5.41c-2.99-.66-3.37-.5-3.42-.24l.6.38c2.2.56,3.51.52,5.25.81.26-.19.15-.42-2.43-.95Z"/><path d="m63.76,3.26h-.26s.11.02.26,0Z"/><path d="m69.56,3.4c-.21-.02-.41-.05-.63-.07,0,0-.11.01-.17.02.26.02.52.04.8.06Z"/><path d="m103.08,8.28l1.09.34c-.06-.1-.09-.21-1.09-.34Z"/><path d="m51.67,3.66l-.22.21c.59-.07,1.24-.12,1.33-.21.09-.09-.48-.07-1.11,0Z"/><path d="m44.46,53.7c-.07.06-.1.13.47.24-.06-.07.22-.12-.47-.24Z"/><path d="m47.31,54.37l-.12-.04s.08.03.12.04Z"/><path d="m42.63,53.75c.12.06.1.13.39.19.38.08.75.06.63.01-.23-.1.99-.11-.82-.33l-.19.12Z"/><path d="m42.63,53.75l.19-.12c-.91-.08-.84-.02-.19.12Z"/><path d="m79.68,54.48c.08,0,.16.02.26.03.01,0,.21-.02.22-.03.02-.02,0-.04-.02-.05l-.46.06Z"/><path d="m133.82,20.44l-.19-.15c.07.05.14.11.19.15Z"/><path d="m55.71.43l.93-.07-.24-.03c-.24.04-.49.07-.69.1Z"/><path d="m74.34,54.94l-.76-.02c.06.04.21.06.37.08l.4-.06Z"/><path d="m38.45,52.99c.64.14,1.24.27,1.09.11l-1.09-.11Z"/>
                  </g>
                </mask>
              </defs>
              <path class="mask" d="m76.54,1.43c-11.71-1.21-21.5-.89-28.51-.3-11.86.99-22.44,1.99-33.08,8.11-5.62,3.24-12.45,7.17-14.01,14.11-2.26,10.1,8.39,18.76,10.32,20.33,1.51,1.23,7.45,5.61,24.72,8.94,10.52,2.03,21.64,2.27,32.61,2.03,17.58-.38,35.6-2.05,51.22-7.81,9.32-3.44,18.26-9.18,18.72-16.41.3-4.72-3.2-9.21-8.11-12.44-4.9-3.23-11.11-5.35-17.36-7.18-15.25-4.47-31.61-7.51-48.29-7.57-16.68-.05-33.73,3.04-47.31,9.89-5.32,2.69-10.21,6.07-12.48,10.33-3.4,6.35-.2,13.69,6.24,18.66,2.6,2.01,5.3,3.66,8.11,5,5.07,1.78,10.72,3.4,16.92,4.64,26.68,5.34,50.06,1.06,64.54-2.98"
                    mask="url(#path-mask)" stroke="black" stroke-width="2" fill="none"
                    stroke-dasharray="507.24395751953125" stroke-dashoffset="507.24395751953125">
              </path>
            </svg>
        