
            <svg xmlns="http://www.w3.org/2000/svg">
              <defs>
                <mask id="path-mask">
                  <g fill="white">
                    <path d="m321.49,60.88c1.94-1.85.51-.89.8-1.37.49-.41,1-.78,1.47-1.21.6-.51,1.24-1.06,1.88-1.61.65-.54,1.2-1.17,1.76-1.67.28-.27.6-.56.9-.9.29-.36.59-.74.89-1.15.3-.41.62-.83.92-1.28.26-.47.53-.94.79-1.41.55-.92.91-1.93,1.23-2.81.36-.87.46-1.7.56-2.31.13-.4.25-.76.36-1.09.07-.34.11-.65.15-.93.08-.56.11-1,.12-1.35.43-2.2.02-5.48-.26-7.18.16-.52-.47-2.43.33-.92.39,1.14.89,2.43.85,4.42.06.81-.04,1.58-.06,2.26-.03.68.01,1.29-.02,1.75l-.28,1.5c-.04.48-.21.97-.4,1.46-.19.49-.39,1-.58,1.49-.44.96-.89,1.85-.95,2.64-.11.28-.35.62-.52.93-.18.3-.31.54-.32.55-.25,1.58-2.51,4.34-4.54,6.53l-.12-.05c.51-.65.39-.52-.26.13-.1.11-.21.22-.32.34l-.2-.06c.35-.37.89-.88.81-.94,0,0-.29.23-.42.37-.6.62-.38.49-.41.59-.68.71-1.3,1.48-2.04,2.13-.18.16-.36.32-.54.49.21-.32,1.95-1.98.28-.66-.88.7-1.43,1.2-1.8,1.59-.38.37-.57.62-.7.83-.23.39-.96,1.04-2.24,1.84-.28-.14-2,1.18-3.28,1.97l.02-.11c1.11-.88.18-.29-.87.32-1.49.7-1.47,1.03-2.37,1.55l-.2.07.22-.09c0,.18.64.05-2.01,1.46-1.64.88-3.07,1.6-2.66,1.7l-1.64.86-1.61.39c.91-.43,1.29-.67,1.32-.8,1.04-.63,1.08-.76-.01-.32-1.46.66-1.97.8-1.52.41.21-.18.51-.42-.46,0-.28.12-.72.34-1.08.53s-.66.35-.64.36c.35.31-3.53,2.02-4.98,2.83-.29.17-.4.28-.6.42l-.23.22c-3.52,1.42-7.33,2.55-10.46,3.94-.8.34-1.98.59-2.81.78-1.51.35-2.5.66-3.25,1.07-2.35.63-4.72,1.18-7.09,1.74l-.16-.11c-.25-.15-1.4.04-2.83.42-1.11.29-.7.36-.76.48-3.92,1.02-7.85,2-12,2.87h.17c-.04.08.29.09-.49.27-.21.13-.27.25-1.29.45.29-.38-1.71-.08-3.34.15-1.75.26-3.65.55-5.49.83-1.84.28-3.62.56-5.14.91-2.1.48-3.53.76-5.6,1.03-1.26.17-.52.32-.61.47l-6.04.89-6.05.78v-.28c.76-.25.55-.38.14-.51-.71-.22.3-.49,2.45-.73l1.89-.36c1.14-.14,2.51-.3,2.98-.59l-2.09.21c-.28-.1-1.53-.09.05-.4.85.03,1.7-.06,2.54-.35l2.99-.41c1.29.28,3.77.24,6.46.05,1.84-.58,4.55-1.21,4.87-1.7,2.63-.39,5.25-.8,7.86-1.39.09.12-.17.35.36.35.7,0-2,.71.49.27,1.73-.32,1.35-.46,1.13-.58-.1-.06-.16-.31,1.01-.29,2.14.03,1.59-.48,3.37-.77.28,0,.5.07.85,0,1.03-.19.99-.32,1.25-.46,3.33-.67,6.5-1.62,10.05-2.29,1.85-.34,2.72-.96,3.21-1.31,5.36-1.4,10.68-2.97,15.92-4.79.01.07-.13.2.06.2.54,0-1.86,1.2.85.23,2.4-.85.23-.4.52-.67.08-.08.87-.38,1.34-.59,4.31-1.85,8.99-3.74,13.34-5.9.63-.32,1.44-.78,2.21-1.22.77-.45,1.52-.85,2.09-.99.64-.17,2.81-1.25,5.05-2.58,2.24-1.33,4.48-2.99,5.5-3.89Zm-13.75,8.34l-.43.32c.22-.1.48-.21.64-.3.16-.09.22-.16.33-.24-.19.07-.36.15-.54.22Zm-25.61,10.34c-.1.03-.24.06-.37.1.03.04.17,0,.37-.1Z"/><path d="m261.31,3.71c3.12.25,6.2.65,9.27,1.09,3.07.45,6.13.86,9.2,1.4.64,1.35,4.71,1.27,7.24,1.83.46.44.32.88,3.12.94,1.69.04,4.08.46,6.2.86,1.67.48-3.79.85,2.52,1.4.9.21,2.21.3,2.25.76.02.23.85.66,1.67.74.84.08,1.65-.04,1.99-.2.56-.28-1.07-.41-1.55-.6-.94-.39-1.58-.81-2.35-1.21.55-.2,2.76.38,2.73-.1,1.24.93,6.24.94,6.04,1.86-.1.46-2.15.62-3.09,1.01-.97.41-4.68-.17-7.59-.83-1.31-.3-2.53-.74-3.84-1.01-1.26-.29-2.77-.88-3.76-.68-1.06.22,2.49.61,1.76.95-2.08.01-4.23-.19-6.53-.83-.06-.74-.6-1.36-4.21-1.29-2.69.07-5.84-1.51-8.49-1.05l-.98-.1-1.82-.45c-3.01-1.14-6.36-1.67-10.07-1.46-2.09-.86-4.52-1.34-7.71-1.22l-1.34-.11c.17-.04.27-.12.51-.13,1.8-.1,3.02-.29,1.23-.92-.47-.17-1.78-.42-1.57-.18.48.55-5.39.22-1.16,1.28-1.16-.02-2.85-.28-2.87.2l-2-.2c-.05-.26,1.58-.37.23-.72-1.07-.28-2.25-.27-3.16-.12l-1.26-.14c-2.59-.32-2.73-.73-3.06-1.22-.2-.27-.8-.51-2.04-.58-.46-.03-1.2.03-1.35.12-.43.24.58.36,1.37.51,2.85.55-2.36.7.11,1.24-.65.4-2.25.27-3.76.19v-.3c.04-.29,2.3-.56-.06-.85-1.75-.21-3,.08-2.68.59l-2.31-.14-3.17-.61c-.88-.39-1.31-.76-.52-1.1.36-.16.28-.33-.73-.42-1.22-.1-1.42.1-1.62.3l-1.71-.26-.02-.65c1.46.05,3.01.08,4.44.21,1.43.12,2.73.34,3.68.81.72.36,1.81.25,2-.07.14-.23-.08-.51,1.17-.57,2.54-.15,5.12-.17,7.72-.05,2.6.11,5.23.49,7.87.92,1.59.57,4.06.99,6.67,1.19,2.6.2,5.33.18,7.4,0Zm32.6,6.61c-.34-.05-.69-.01-1.03-.01.27.11.51.26.82.32.32.06.71.05,1.34.09-.52-.19-.82-.36-1.14-.41Z"/><path d="m23.81,72.79c2.24.88,3.15,1.6,4.16,2.4.51.38-.03.65,1.83,1.21,1.5.45,1.29,0,1.11-.36-.17-.35-.2-.67-.3-1,1.78.64,3.57,1.27,5.36,1.87-.08.28-.83.43,1.63,1.22,1.86.6,2.65,1.03,2.47,1.38-.28.17-2.46-.54-1.49.14.34.24,1.16.64,1.74.8,1.93.55.76-.18,1.24-.24.26-.03.48-.09.85-.07.73.05,2.76.56,2.08.11-.79-.52-2.34-.56-3.63-1.02l.16-.51c5.17,1.55,10.19,3.06,15.14,4.55-.96.37-1.67.93-5.87-.69-.69-.26-1.85-.53-2.2-.4-.37.14.49.48,1.47.77.24.38.48.76.59,1.13l-1.48-.22,1.09.55c-3.53-.56-6.72-1.58-9.56-2.98-.68-.58-2.05-1.48-3.71-1.67-3.21-.32-8.12-3.33-10.47-3.15-2.71-1.45-5.74-2.64-8.5-4.2.42-.51-1.64-1.76-3.46-2.67-.81-.42-1.43-.78-1.98-1.16-.53-.4-1-.81-1.5-1.27.37-.1,1.13.4,1.97.97.86.53,1.78,1.16,2.41,1.34.48.12,1.57,1.45,2.39,1.42.5,0-.75-.98-1.47-1.65-.75-.66-1.34-1.13-2.6-1.68-.79-.35-1.59-.82-2.33-1.33-.72-.54-1.33-1.19-1.73-1.9-.43-.89-1.83-1.75-2.56-2.4-1.33-1.07-.52.02.05.87.92,1.3,1.95,2.55,1.41,2.72l-.88-.56c-.2-.46-.55-.9-.93-1.41-.37-.52-.83-1.05-1.31-1.61-.44-.6-.94-1.2-1.4-1.83-.4-.68-.89-1.31-1.18-2.02-.59-1.03-1.59-3.65-.65-3.04.06.03,0-.15-.07-.45-.05-.31-.14-.74-.24-1.18-.05-.22-.1-.44-.15-.66-.03-.22-.05-.42-.08-.6-.05-.36-.11-.61-.16-.64-.37-.23-.31-1.28.03-2.63.09-.33.2-.65.3-.97.44-1.86,1.46-3.88,1.7-2.83-.05.5-.05.75.05.7.09-.04.3-.37.77-.96.38-.54,1.03-1.14,1.2-1.18.31-.07.05.4-.28.94-.31.55-.67,1.2-.65,1.44-.61,1.12-.98,2.38-1.25,3.56-.28,1.2-.39,2.34-.65,3.45-.05.28.05.83.16,1.28.15.44.37.78.37.72.07-.25.38.45.62.89.14.21.28.36.32.32.05-.05-.03-.28-.1-.86.21.03.26.27.67,1.14,1.19,2.87,3.36,5.59,6.2,7.47-.26.69.52,1.47,1.67,2.14,1.11.71,2.56,1.3,3.47,1.95,2.25,1.33,4.17,1.82,6.59,3.14-.74.05-2.79-.3,1.52,1.43Zm9.9,4.69l-.57-.03c.22.1.46.23.65.29.17.05.28.02.42.02-.18-.1-.34-.2-.51-.29Z"/><path d="m283.22,9.34c-1.68,0-3.53,0-5.35,0-1.82.09-3.61.2-5.14.41-1.36.04-3.09.21-4.86.47-.88.17-1.78.35-2.65.52-.87.17-1.73.31-2.52.52-.9.21-1.24.32-1.87.52-1.94.62-2.25,1.25-.09.75,2.27-.52,2.99-.65,3.6-.59.64.04,1.77-.02,3.9-.68.23-.07,1.14-.2,1.53-.24.95-.09,1.88-.19,2.81-.3.93-.1,1.86-.13,2.79-.21.93-.06,1.85-.16,2.78-.18.93,0,1.86-.02,2.8-.03h1.62s1.62.07,1.62.07l3.23.16,3.22.32,1.61.16,1.6.24,3.2.48,3.17.64c1.06.19,2.11.46,3.15.74,1.04.28,2.1.51,3.13.84l.02-.14c-.69-.24-1.27-.36-1.41-.47-1.25-.3-2.74-.66-3.78-.91-1.26-.24-2.66-.52-3.99-.78-1.34-.23-2.62-.42-3.6-.68-.3-.06-1.06-.26-2.07-.39-1.02-.13-2.28-.3-3.57-.47-1.28-.16-2.6-.2-3.7-.28-1.1-.07-1.99-.12-2.44-.08-.3.01-.61.05-.56.07.43.19-1.24.1-2,.07-.91-.03-1.47-.15-2.27-.15-.45,0-1.86.13-1.73.05.08-.05.89-.14,1.98-.22,2.28-.06,5.52-.05,5.82-.25Z"/><path d="m53.87,18.49c-2.16.74-4.78,1.39-6.08,2.29.65-.12,1.5-.2,1.92-.36,1.65-.62,3.18-1.28,4.55-1.15,1.13.11-.24.73-1.19,1.28-1.69.98-3.14,1.16-4.72,1.25-.98.06-2.55.4-3.25.79-2.39,1.33-3.68,1.18-5.28,1.41-.98.29-2.17.79-2.53.57-.07-.04.33-.33.51-.39,1.28-.42,1.4-.16,2.02-.18l2.42-1.85c-2.05-.2-4.25,1.07-6.38,2,.15.24.09.52-1.47,1.14.09.17.02.41.31.5.87.26-1.75,1.12-2.42,1.67-.19.15-.69.41-.9.33-.43-.16.39-.6,1.3-1.13.51-.3-.02-.49-.09-.72-.76.58-3.36,1.13-3.4,1.74.34-.06,1.21-.37.43.1l-.4-.12c-1.28.39-.72-.39-2.25.27-.54.24-.82.79-1.21,1.19.09.15-.04.35-.73.75.06.04.13.07.21.11l.8-.33c1.45-.3,5.75-1.72.2.91-.36.17-.43.47-.64.71,2.39-1.08,4.85-2.39,7.3-2.69.29-.05,3.45-1.72,5.69-2.51.54-.44,1.29-.73,2.64-1.21,3.94-1.41,8.31-2.02,11.99-3.68,1.71.15,4.3-1.29,6.02-1.42,1.68-.13,2.98-.4,4.92-1.15,2.62-1.04,3.88-1.04,4.09-.44l4.47-1.13c-.29-.33.88-.87,1.72-1.35-2.17,0-4.43.02-.17-1.5.54-.19.14-.27-.44-.22-1.67.81-4.38.88-5.79,1.56-3.24,1.58-2.74.66-3.29.42l-.95.24c-.03.24-.52.49-1.61.75-.05.31-.76.57-1.8.9l.16.29c-1.04.27-.92.06-.96-.09-2.11.26-5.18,1.05-5.7.45Z"/><path d="m330.81,28.35c-.72-.98-1.23-1.68-1.71-2.11-1.02-.9-2.21-1.99-.67-.06.64.73.96,1.4,1.33,1.86.34.48.63.82.88,1.12.43.64.8,1.06,1.31,1.94.29.55.42,1.16.64,1.74.19.59.42,1.16.49,1.78.28,1.7.69,4.98.26,7.18h-.21c.13-.5.08-1.05.12-1.59,0-.55.09-1.09,0-1.62-.14-1.05-.14-2.05-.28-2.82-.05-.49-.13-.99-.21-1.49-.09-.5-.31-.98-.48-1.48-.2-.49-.33-1.02-.61-1.5-.27-.48-.55-.98-.83-1.49-2.34-3.97-5.91-7.09-9.84-9.52-3.95-2.45-8.3-4.25-12.72-5.74-.13-.13-.1-.19,1.03.12.57.18,1.15.36,1.7.6l.84.4c.25.13.51.24.79.31.69.27,1.31.49,1.85.72.53.24,1,.45,1.39.63.8.36,1.34.59,1.65.7.63.23.35,0-.61-.62-.06-.04-.07-.06-.11-.08-2.4-1.09-3.93-1.72-5.43-2.43-.75-.37-1.52-.66-2.4-.98-.89-.31-1.88-.68-3.13-1-2.09-.5-4.84-1.21-5.37-1.51,1.39.24,2.96.5,3.39.71.81.43,2.28.64,3.64,1.12,4.91,1.51,9.6,3.41,14.16,6.17,3.21,2,6.27,4.5,8.61,7.65,2.36,3.12,3.94,6.94,4.22,10.91.02.39.12.85.08,1.3-.02.46-.05.92-.07,1.35-.03.42-.06.79-.11,1.07-.08.27-.15.44-.22.46.03-.46,0-1.06.02-1.75.02-.68.13-1.45.06-2.26.04-1.98-.46-3.27-.85-4.42-.34-.94-.59-1.93-1.04-2.82-.23-.44-.47-.88-.72-1.31-.25-.43-.49-.86-.83-1.21Zm-6.82-6.42c.02-.08-.35-.5-1.63-1.33-.31-.2-.65-.43-1.01-.64-.37-.19-.73-.37-1.06-.54-.66-.33-1.17-.57-1.22-.55-.22.06,1.52.86,2.1,1.24,1.13.72,2.78,2.07,2.82,1.82Zm-3.33-2.91c-.85-.48-2.36-1.34-2.47-1.25-.06.04.46.41,1.35.91.96.56,1.95.99,3.13,1.81-.41-.34-.75-.61-1.05-.86-.32-.22-.62-.42-.96-.61Zm4.42,3.63l.42.37-.03-.07c-.32-.27-.34-.28-.39-.3Z"/><path d="m210.98.39c-2.33.12-4.14.02-6.76-.25-3.8-.3-8.56-.03-12.88.06-2.16.05-4.48-.23-6.5.18v.59c.47.25,1.71.66.25.79-4.3.45-3.7,1.5-6.66,2.07,1.58-.07,2.98-.24,4.22-.49.16,0,.3-.03.41-.07.16-.28-.53-.61,1.19-.8,1.35-.16,2.32-.03,2.52.31l.22.08-.21-.08c-2-.2-2.05.5-3.71.5-.1.04-.14.07-.12.11,1.91.53,4.2-.09,6.28,0,2.63-.63,5.43-.61,8.25-.09.84.16,1.39.37,2.34,0,1.45-.55,3.56-.42,5.59-.15,2.91-.36,1.58-.96.88-1.53-.18-.15-.79-.36.24-.43.87-.06,1.39.11,1.74.28h1.03c-.54-.46,2.23-.61,1.67-1.09Z"/><path d="m90.74,91.8c1.79.53,3.66,1.03,6.22,1.06,3.21-.15,6.55.12,10.08.89.7-.17,1.97-.1,3.12-.09l1.88.3c-.21-.18-.53-.53-.62-.53-3.47-.2-5.72-1.07-9.05-1.37-2.42-.2-4.63-.5-5.21-1.15-.02-.02-.26-.05-.39-.08-.46,0-.93.02-1.39.03.32.7-2.1.33-3.95.04-6.07-.96-12.25-1.53-18.33-2.96-3.66-.89-3.89-.76-2-1.14.57-.11.97-.28,1.44-.42-3.53-.51-7.51-1.66-10.47-1.58.64.2,1.26.43,1.94.59,1.12.26,2.81.19,3.22.69.17.21-1.66.15-2.82.1-.62-.02-1.73-.3-2.62-.49-.74-.15-1.55-.34-1.94-.26-.51.12.24.39.98.66,1.17.42,1.41.89,3.29,1.26,2.3.88,4.88,1.61,8.06,1.98,3.69.09,7.88.78,12.11,1.44-.03-.16.18-.32.95-.21,1.35.2.45.33.73.51,1.86-.27,3.8-.66,4.78.71Z"/><path d="m310.98,15.26l.84.4.39.15.39.15c.69.27,1.31.49,1.85.72.53.24,1,.45,1.39.63.8.36,1.34.59,1.65.7.63.23.35,0-.61-.62-.06-.04-.07-.06-.11-.08-2.4-1.09-3.93-1.72-5.43-2.43-.75-.37-1.52-.66-2.4-.98-.89-.31-1.88-.68-3.13-1-2.09-.5-4.84-1.21-5.37-1.51-.77-.11-1.84-.31-2.86-.51-1.02-.19-2-.28-2.59-.31,1.45.35-.03.32-.79.2-2.25-.35-.86-.3-1.16-.45-.06-.03,0-.04.02-.06-.85-.25-2.03-.32-3.24-.44-1.2-.11-2.43-.22-3.41-.31-1.21,0-2.27-.06-3.19-.19-.31.2-3.55.18-5.83.25-1.09.08-1.9.17-1.98.22-.13.08,1.27-.06,1.73-.05.79,0,1.35.11,2.27.15.76.04,2.43.13,2-.07-.05-.02.27-.06.56-.07.45-.04,1.34.01,2.44.08,1.1.08,2.41.12,3.7.28,1.28.17,2.55.33,3.57.47,1.02.13,1.78.33,2.07.39.98.26,2.26.45,3.6.68,1.33.26,2.74.53,3.99.78,1.04.25,2.53.61,3.78.91,1.23.25,1.25.36,1.42.47l-.02.14,1.74.57c-.13-.13-.1-.19,1.03.12.23.04.41.04.7.13.93.3.9.39,1,.47Z"/><path d="m170.12,3.97l-.07-.24c-.77-.44-1.39-.9-2.36-1.31-2.06-.85-5.76-.68-8.73.3-.37.12-.55.29-1.01.38-1.7.31-1.77,1-.05,1.16q.72.06,1.09-.41c.18-.22.11-.49,1.4-.59.4-.03.85.19,1.28.29,2.45,0,2.32.5,2.89.86-2.77.44-5.61.6-8.48.63,1.14-.72-1.68-.69-3.04-.94l-1.42.49-2.91.4s-.06-.1-.05-.16c1.72-.88-1.09-1.27-1.07-1.95.59-.06,1.18-.14,1.77-.18.03.03.01.08.1.09,1.27.14,1.09.83,2.62.61,2.25-.32-.31-.66.09-1.04l1.03-.52c4.3-.21,8.69-.69,12.91-.63.61-.05,1.22-.08,1.83-.1l.1.41-.38.12.5-.1,1.15-.05c.59.02,1.42.17,1.38-.16l1.85-.27-.25.08-.29-.05c1.29.41,4.46.24,5.38.95.43.34,4.4-.46,6.57-.85.36-.06.59-.17.88-.25.48.25,1.72.66.26.79-4.3.45-3.7,1.5-6.66,2.07-2.86.36-5.63.43-8.3.15Zm-12.37-1.48c-.09-.11-.3-.2-.47-.3-.12.07-.33.14-.33.19,0,.09.14.17.25.29.27-.08.58-.15.55-.18Z"/><path d="m34.38,25.29c1.56-.61,1.62-.89,1.47-1.14l-1.5.47-1.13.45c-2.88.93-5.68,1.84-8.53,3.39-1.16.64-2.88,1.44-4.38,1.98-1.66.55-4.56,2.13-5,2.48-2.39,1.79-4.78,3.45-7.06,5.3-2.27,1.84-4.49,3.85-6.24,6.43-1.26,1.93-1.5,3.49-1.84,5.38-.41,2.45-.03,5.02.85,7.28.9,2.27,2.32,4.16,3.83,5.87,3.08,3.38,6.74,5.92,10.49,8.14.8.49,1.6,1.03,2.19,1.07.42-.51-1.64-1.76-3.46-2.67-.81-.42-1.43-.78-1.98-1.16-.53-.4-1-.81-1.5-1.27-.67-.15-1.59-1-2.45-1.64l-.88-.56c-.2-.46-.55-.9-.93-1.41-.37-.52-.83-1.05-1.31-1.61-.44-.6-.94-1.2-1.4-1.83-.4-.68-.89-1.31-1.18-2.02-.59-1.03-1.59-3.65-.65-3.04.06.03,0-.15-.07-.45-.05-.31-.14-.74-.24-1.18-.05-.22-.1-.44-.15-.66-.03-.22-.05-.42-.08-.6-.05-.36-.11-.61-.16-.64-.37-.23-.31-1.28.03-2.63-.08-.37.04-.71.31-.99.43-1.84,1.45-3.86,1.69-2.8.27-.4.52-.83.82-1.22.63-1.42,1.54-2.81,3.32-3.99.96-1.5,1.96-3.09,4.34-3.57.76-.5,1.52-1.01,2.31-1.47.25-.72,1.91-1.54,3.19-2.25,1.88-1.06,1.71-.57,1.96-.41,1.88-1.75,4.24-2.64,6.69-3.19.39-.4.68-.96,1.21-1.19,1.53-.65.97.12,2.25-.27.02-.6,2.61-1.15,3.37-1.73l1.81-.65Z"/><path d="m131.8,4.03c-1.35-.25-2.82-.23-4.72.38,1.15.18,2.27.39,1.01.95-.99.44-1.84.01-2.94.28-1.53-.46-2.32.04-3.24.5-1.05.53-2.12.76-2.93.32-2.61.46-2.14.9-2.55,1.35.45.4,2.59.28,3.66.49,1.8.19,4.11-.01,6.29-.48,1.64-.35,3.06-.55,4.66-.66,1.6-.4-.17-.96,2.65-1.25,2.09-.21,1.79.29,2.15.56l1.85-.23c-.16-.28-.44-.55-.44-.84,0-.19.85-.35,1.65-.42.7-.07,1.23,0,.84.17-.57.26-2.18.61-.44.65.44.01,1.91-.5,2.91-.77.31-.1.47-.3,1.14-.18l-1.16.18c.78.74,3.08.36,5.49-.1.69-.74-3.04-.71-2.83-1.37-3.97.76-3.97.22-3.72-.4-1.6.26-2.96-.03-4.6.33.31.67-1.41,1.45-4.18,1.63-3.85.26,1.17-.73-.19-.93-.19-.03-.23-.1-.34-.15Z"/><path d="m192.25,94.97l1.52-.1,2.92-.35,1.08-.1s-.06-.08-.1-.12c-.64-.01-.96-.06-.43-.2.08-.02.34-.05.43-.05.84.03-.04.17-.03.25,1.53-.08,2.65-.24,3.35-.51,2.2-.88,5.83-.61,5.77-.43-.18.54,2.23.32,4,.29,2.19-.4,4.35-.8,6.57-1.21.97-.17,2.86-.31,2.29-.53-.47-.17-2.49.2-3.02.18-1.62-.06-4.03.86-4.99.37-1.22.09-2.67.21-2.88-.04-1.03.08-2.12.2-2.8.09-2.26.13-4.54.31-6.78.37-2.22.08-4.28.32-6.35.56-2.07.22-4.15.4-6.4.4v.35c1.11-.07,2.26-.15,2.85.04-.06.2-.09.4-1.78.49l.82.41,3.95-.18Z"/><path d="m73.8,13.97c.58-.05.98.02.44.22-4.25,1.52-1.99,1.49.17,1.5l1.67-.44-.16-.56-.23-.03.22.03c.79-.07,1.98-.45,2.98-.63,1-.18,1.79-.24,1.75.2,2.53-.58,4.99-.32,7.71-1.45.39-.16,2.21-.29,2.36.01l2.7-.46c.54-.35,1.65-.76,2.53-1.11.88-.35,1.53-.69,1.14-.99-.04-.03.57-.19.88-.29,2.21.82,2.81-.75,4.42-.82-.02-.06-.03-.13-.04-.19-4.82-.28-5.76.85-7.26,1.8l-.34.12.37-.12c-.94.09-2.65.35-2.7.26-.73-1.34-3.93.24-6.63.87-2.82.68-6.04,1.55-8.67,1.51-1.26.13-1.19-.41-3.31.15l.04.41Z"/><path d="m222.09,2.2l-1.71-.26c-4.2-.25-4.12-.91-3.66-1.61-1.38-.28-1.32.12-2,.17,1.21.98-.87,1.77-4.69,1.76.87.51.92,1-.04,1.47.95.53,1.76.2,2.61.05-.55-.12-.69-.29.06-.29,1.03,0,.85.23.95.38,2.19.76,5.47.38,7.83.42,3.86.14,8.04.77,11.73.42v-.3s-2.68-.26-2.68-.26c-.87.33-1.62.09-2.37-.14l-3.17-.61c-.24.27-.45.56-2.17.41-1.16-.1-1.81-.29-2.36-.53-1.27-.55.5-.79,1.65-1.09Z"/><path d="m211.62,92.48c.95.48,3.36-.43,4.99-.37.52.02,2.55-.35,3.02-.18.57.22-1.32.36-2.29.53-2.22.41-4.39.8-6.57,1.21l.83.17,1.08-.1c2.94-.73,6.76-.85,10.09-1.41.78-.25.57-.38.16-.51-.71-.22.3-.49,2.45-.73l.02-.14c0-.19.64-.35,1.96-.48.27-.03.53-.07.79-.12-.28-.1-1.53-.09.05-.4l-.1-.13-7.92.81c-2.64.27-5.28.52-7.93.9.88.23,2.48.4-.62.96Z"/><path d="m135.32,95.7c1.1.03.97.75,2.96.29,1.49-.35,2.86.25,4.33.15.44-.65,2.42-.45,4.5-.15,1.77.23,3.23.15,4.57-.05,1.39-.21,2-.45.54-.78-1.96-.07-3.76-.33-5.87-.24-6.57.19-7.3.23-12.53-.59-.12-.02-.37-.05-.41-.04-1.35.26-3.04.1-4.72-.06-1.69-.19-3.38-.39-4.76-.19.24.33.25.66,2.09.94.08-.22.52-.22,1.78-.1,2.66.23,5.16.48,7.53.82Z"/><path d="m211.62,92.48c3.1-.56,1.5-.73.62-.96-2.07.06-3.48-.14-6.39.52-1.05.24-2.65.36-4.4.46-1.76.08-3.68.12-5.38.24-2.29.17-4.64.35-7,.45-2.36.11-4.72.22-7.04.18-2.04-.04-3.38.03-3.15.45.23.42,1.88.35,3.72.22l3.82-.19c2.25,0,4.33-.18,6.4-.4,2.07-.24,4.13-.48,6.35-.56,2.24-.06,4.52-.24,6.78-.37.54-.11,1.14-.29,1.61-.32,1.03-.06,1.14.1,1.19.23.21.25,1.65.13,2.88.04Z"/><path d="m95.06,10.77c1.5-.96,2.45-2.09,7.26-1.8l3.67-.87c.96-.31,1.97-.62,1.66-.89-1.82-.22-4.04.53-5.95.86l-5.47.88c-1.83.27-3.63.67-5.45,1.01-3.63.71-7.26,1.45-10.87,2.33-1.93.46-2.16.71-2.85,1.12,2.63.03,5.85-.84,8.67-1.51,2.71-.63,5.9-2.21,6.63-.87.05.1,1.76-.16,2.68-.26Z"/><path d="m72.53,86.38c-.48.14-.87.3-1.44.42-1.89.37-1.66.25,2,1.14,6.09,1.43,12.26,2,18.33,2.96,1.85.3,4.28.67,3.95-.04-3.38-1.1-7.15-1.51-11.35-1.77-2.7-.19-4.72-.65-4.09-1.28-2.73-.14-4.86-1.02-7.4-1.44Z"/><path d="m123.93,94.04c1.38-.2,3.07,0,4.76.19,1.69.16,3.37.32,4.72.06.03,0,.28.02.41.04,5.23.82,5.96.79,12.53.59,2.11-.09,3.91.17,5.87.24-.82-.56-1.72-1.11-4.94-1.44l-2.37.26c-.88.32-2.22.25-4.12.12-2.31-.14-5.11-.23-7.11-.39-4.03-.28-7.66.09-11.48-.55l.97.8c.26.02.51.04.76.07Z"/><path d="m171.24,94.29c-1.2.52-2.18.99,2.68.97,1.57-.02.58.21.47.34-2.39.35-5.03.21-6.74.02-4.34-.45-5.32-.07-6.25.55l-.89.03c-2.86-.28-7.53-.45-3.08-1.29.8-.15.78-.44,1.14-.66,2.45,0,4.91,0,7.35,0,1.58,0,2.78-.04,2.93-.36h2.73c-.1.14-.06.28-.34.39Zm-7.81.53c-.1-.01-.26-.02-.49.04.14,0,.27.01.49-.04Z"/><path d="m303.6,10.6c1.24.93,6.24.94,6.04,1.86-.1.46-2.15.62-3.09,1.01-.97.41-4.68-.17-7.59-.83-1.31-.3-2.53-.74-3.84-1.01-1.26-.29-2.77-.88-3.76-.68-1.06.22,2.49.61,1.76.95,4.17,1.54,9.68,1.74,14,3.29,1.36.5,1.18-.22,2.33-.09,1.15-.05-3.69-1.36.39-.79,1.51-.46,5.11.02,4.79-1.06-.82-.25-1.91-.5-2.42-.76-1.27-.64-1.02-1.74-4.69-1.37-.02,0-.32-.12-.71-.28-.39-.15-.87-.33-1.25-.44-2.22-.62-4.39-.95-6.35-.95.48,1,3.16.6,4.38,1.13Z"/><path d="m314.97,16.13c1.1.29,1.87.6,2.39.99.65.47,1.62.99,2.73,1.36,1.1.36,2.32.6,3.44.63,2,.06,3.88-.17,4.26-.78.71-1.15-1.58-2.14-7-3.19-1.32-.25-2.88-.95-4.33-1.45-1.75.17-1.25.88.42,1.65,1.69.79,3.38.89,4.76.73.5-.06,2.71.18,2.4.63-.27.4.87,1.06-.01,1.3-.54.15-.86.43-2.32.15-1.52-.28-2.11-.7-2.21-1.05-.11-.37-.27-.69-1.95-1.04-1.63-.35-2.5-.33-2.58.07Z"/><path d="m122.2,93.17c3.82.64,7.45.28,11.48.55,2,.15,4.8.24,7.11.39,1.9.13,3.24.21,4.12-.12-3.22-.97-8.08-.66-12.08-.94-2.99-.16-6-.31-9-.47-1.5-.09-2.99-.19-4.47-.34-1.48-.17-2.94-.37-4.38-.63l-.5.2c.84.34,3.84.91-.79.64-1.51-.09-2.4.14.2.46,2.76.08,4.82-.44,8.31.27Z"/><path d="m68.23,18.18c-.21-.6-1.47-.6-4.09.44-1.94.74-3.24,1.02-4.92,1.15-1.72.13-4.31,1.57-6.02,1.42-3.68,1.66-8.06,2.26-11.99,3.68-1.35.47-2.1.77-2.64,1.21,3.79-.74,7.75-1.92,12.05-3.18,2.73-.82,5.51-1.65,8.56-2.27,2.65-.59,5.99-1.63,9.04-2.44Z"/><path d="m248.11,5.64l-2-.2-2.92-.84c-.42-.04-.84-.09-1.27-.14-1.39,0-2.77.1-4.16.16,2.36,1.16,7.21,1.32,10.68,1.65,3.44.36,6.91.6,10.39.86,3.47.34,6.94.69,10.41,1.03h1.87c-3.01-1.14-6.36-1.67-10.07-1.46-2.97-.19-6.13,0-7.71-1.22l-1.34-.11-.96-.03c0,.16.03.23.06.31.09.06.18.12.28.19l-.65-.13-2.59-.08Z"/><path d="m245.04,87.53c2.62-.39,5.24-.8,7.86-1.39,2.09-.38,4.08-.78,5.66-.87,1.39-.3,2.1-.45,2.8-.61,3.33-.67,6.5-1.62,10.05-2.29,1.85-.34,2.72-.96,3.21-1.31-9.9,2.52-19.94,4.44-29.99,6.31l.41.16Z"/><path d="m174.39,95.6c-2.39.35-5.03.21-6.74.02-4.34-.45-5.32-.07-6.25.55,7.14.18,14.3.26,21.42-.46,1.72-.18,2.81.09,4.21-.03,1.93-.17,4.91-.13,5.24-.71l-3.95.18c-2.17.06-4.33.16-6.49.17l-7.42.28Z"/><path d="m312.14,67.54c0,.18.64.05-2.01,1.46-1.64.88-3.07,1.6-2.66,1.7,3.48-1.64,6.87-3.5,10.11-5.69,3.23-2.19,6.36-4.7,8.99-7.78l-.12-.05-.26.13c-.1.11-.21.22-.32.34-.89,1.01-1.8,2-2.25,2.09-.18.16-.36.32-.54.49-.73.6-1.43,1.23-2.21,1.76-.23.39-.96,1.04-2.24,1.84-1.39.91-2.67,2.11-4.07,2.72-.46.21.13-.27.8-.75l.02-.11-.87.32c-1.49.7-1.47,1.03-2.35,1.53Z"/><path d="m160.5,96.21c-2.86-.28-7.53-.45-3.08-1.29.8-.15.78-.44,1.14-.66-1.36-.05-.9-.23-.99-.37l-1.82.03c.56.37-1.79.47-1.86.78l1.22.1c-.09.02-.26.05-.27.05-.34-.05-.66-.1-.98-.15-1.61-.25-.62-.55-.95-.83-1.83-.45-3.7-.55-5.64-.14,3.21.33,4.12.88,4.94,1.44,1.46.32.85.57-.54.78-1.34.2-2.8.28-4.57.05-2.08-.3-4.06-.5-4.5.15,4.7.27,9.51.01,14.15.36,1.83.11,2.8-.07,3.74-.29Z"/><path d="m113.89,92.9c-2.59-.32-1.71-.55-.2-.46,4.63.27,1.62-.3.79-.64-.82.28-2.24-.1-3.35-.15.1.24-.77.49-1.45.32-3.33-.77-5.78-.29-8.71-.67-1.6.12-1.65-.14-1.75-.38-1.55-.48-1.97-.26-2.46-.09.14.03.38.06.4.08.59.65,2.79.95,5.21,1.15,3.33.3,5.58,1.17,9.05,1.37.09,0,.41.35.62.53l3.59.63,1.91.36.26-.48c-4.1-.43-4.29-.99-3.9-1.57Z"/><path d="m64.11,87.36c-1.89-.37-2.12-.84-3.29-1.26-.75-.27-1.5-.55-.98-.66.39-.09,1.2.1,1.94.26.89.18,2.01.47,2.62.49,1.16.05,2.99.11,2.82-.1-.41-.5-2.1-.43-3.22-.69-.68-.16-1.3-.39-1.94-.59-.8-.48-1.63-.37-2.45-.53-1.4-.15-2.89-.31-2.56.1,1.29,1.55-2.96.61-6.76-.3.4.37,2.39.78,2.46,1.15,3.16.57,6.04,1.62,9.22,2.25,2.28.46,1.84.07,2.15-.1Z"/><path d="m100.97,91.3c2.93.38,5.38-.1,8.71.67.67.16,1.55-.08,1.45-.32-5.87-.6-11.72-1.2-17.59-1.8-2.94-.31-6.01-.85-8.89-1.4-1.74-.34-3.17-.5-4.72-.64-.63.63,1.39,1.09,4.09,1.28,4.19.26,7.97.67,11.35,1.77.47,0,.93-.02,1.39-.03.48-.18.91-.39,2.46.09l1.75.38Z"/><path d="m174.39,95.6l7.42-.28.06-.32c-1.01.02-1.91,0-1.75-.2.15-.2,1.17-.23,2.1-.26.34-.16.35-.33.37-.49-1.84.13-3.48.2-3.71-.22-2.37-.12-4.81-.03-7.29.07-.1.13-.06.26-.34.38-1.2.52-2.18.99,2.68.97,1.57-.02.58.21.47.34Z"/><path d="m106,8.1l-3.67.87.03.2.22.04-.2-.05c-1.61.06-2.21,1.64-4.42.82-.31.1-.92.26-.88.29.39.31-.26.65-1.14.99-.88.35-1.99.76-2.53,1.11.24.18,1.05-.01,1.78-.15.9-.51,2.47-.64,3.83-.9,1.03-.04,1.52-.95,2.16-.48.67.5,2.28-.16,3.24-.17,1.54-.66,2.31-.55,2.91-.28.97-.08,2.16.13,2.67-.51l.36-.38c-1.14.05-1.75-.19-3.33.08-1.1.04-.72-.25-.85-.43-4.97.46.54-.81-.18-1.05Z"/><path d="m323.77,58.3c.6-.51,1.24-1.06,1.88-1.61.65-.54,1.2-1.17,1.76-1.67.28-.27.6-.56.9-.9.29-.36.59-.74.89-1.15.3-.41.62-.83.92-1.28.26-.47.53-.94.79-1.41.55-.92.91-1.93,1.23-2.81.36-.87.46-1.7.56-2.31-.18.54-.33,1.11-.53,1.6-.22.49-.42.92-.58,1.24-.32.64-.48.81-.31.02-1.88,3.9-4.68,7.26-7.51,10.27Z"/><path d="m106.18,9.15c-4.97.46.54-.81-.18-1.05.96-.31,1.97-.62,1.66-.89,2.79-.53,5.68-1.58,8.35-1.13.13.02.18.06.14.11-3.62,1.09-3.78,2.03-3.45,2.9l-2.35.4c-1.14.05-1.75-.19-3.32.08.07-.22.07-.43-.85-.43Zm2.83-1.13c-.61,0-1.14.27-.94.35.41.16-1.4.91,1.42.44,1.39-.33,1.25-.46.21-.46-.21-.11-.23-.32-.69-.32Z"/><path d="m42.24,22.16c.84-.25,1.64-.1,2.5-.71,1.91-1.3,2.29-.74,3.06-.67.65-.12,1.5-.2,1.92-.36,1.65-.62,3.18-1.28,4.55-1.15,1.13.11-.24.73-1.19,1.28-1.69.98-3.14,1.16-4.72,1.25-.98.06-2.55.4-3.25.79-2.39,1.33-3.68,1.18-5.28,1.41.8-.61,1.61-1.23,2.42-1.85Zm10.24-2.17s-.31.11-.32.14c-.03.06.04.1.07.14l.68-.27c-.14,0-.26-.02-.42,0Z"/><path d="m296.01,75.63c-3.52,1.42-7.33,2.55-10.46,3.94-.8.34-1.98.59-2.81.78-1.51.35-2.5.66-3.25,1.07,3.18-.52,6.84-1.85,10.25-3.08,4.41-1.63,8.67-2.88,12.92-5.04.61-.32,1.38-.68,1.63-.9-.97.21-2.47.85-4.15,1.7-2.02,1.07-3.08,1.32-4.12,1.53Z"/><path d="m314.97,16.13c.08-.41.95-.42,2.58-.07,1.68.36,1.84.68,1.95,1.04.1.35.69.78,2.21,1.05,1.46.27,1.78,0,2.32-.15.89-.24-.26-.9.01-1.3.31-.45-1.9-.69-2.4-.63-1.38.16-3.07.06-4.76-.73-1.67-.78-2.17-1.48-.42-1.65-.57-.29-1.16-.51-1.81-.42.32,1.08-3.28.59-4.79,1.06.92.37,1.75.78,1.74,1.14l3.39.67Z"/><path d="m25.74,29.13c-2.45.55-4.81,1.44-6.69,3.19-.51.59-1.75,1.39-2.89,2.2-1.14.81-2.15,1.65-2.28,2.16l.63.37c1.44-.68,2.66-1.45,3.67-2.32.12-.2-.48-.07.33-.6l.43.17c.26-.09.52-.22.79-.38,3.3-1.81,2.16-2.43,5.28-4.06.69-.4.82-.6.73-.75Z"/><path d="m211.58,93.83l-.83-.17c-1.76.02-4.18.25-4-.29.06-.18-3.57-.45-5.77.43-.7.27-1.82.43-3.35.51.07.03.1.07.13.11l-.04.45c2.29-.06,4.57-.1,6.87-.26,2.3-.16,4.62-.35,6.98-.78Z"/><path d="m255.03,87.55c.29-.38-1.71-.08-3.34.15-1.75.26-3.65.55-5.49.83-1.84.28-3.62.56-5.14.91-2.1.48-3.53.76-5.6,1.03-1.26.17-.52.32-.61.47,2.22-.25,4.41-.56,6.62-.9,2.21-.34,4.44-.7,6.73-1.26,1.98-.47,4.54-.81,6.83-1.23Z"/><path d="m76.08,15.25l-1.67.44c-.83.49-2.01,1.02-1.72,1.35,2.29-.38,4.6-1.04,6.96-1.54,2.36-.49,4.73-.94,7.09-1.12,1.9-.14,2.32-1.03,3.96-1.55-.15-.3-1.97-.17-2.36-.01-2.72,1.13-5.18.87-7.71,1.45-.7.74-1.47.84-2.24.83-.77,0-1.56-.11-2.31.14Z"/><path d="m3.95,44.01c-.29.39-.54.81-.82,1.22-.05.5-.04.75.05.7.09-.05.3-.37.77-.96.38-.54,1.03-1.14,1.2-1.18.31-.07.05.4-.28.94-.31.55-.67,1.2-.65,1.44.45-.47.87-.94,1.37-1.35.3-.38.62-.75.96-1.1.33-.36.67-.71,1.03-1.04,1.21-1.6,2.63-3.09,4.15-4.49-1.87,1-2.77,1.57-2.81,1.33-.03-.23.78-1.27,2.68-3.06-2.37.48-3.38,2.07-4.34,3.57-.6.6-.85,1.27-1.24,1.91-.39.66-.92,1.28-2.07,2.08Z"/><path d="m50.28,84.08c3.8.91,8.04,1.86,6.76.3-.33-.41,1.17-.25,2.56-.1-.29-.7-2.31-.66-3.44-1.01-.96.37-1.67.93-5.87-.69-.69-.26-1.85-.53-2.2-.4-.37.14.49.48,1.42.75l.42.07-.37-.05.72,1.13Z"/><path d="m116.01,6.08c.13.02.18.06.14.11.45.26,3.3-.3,2.83.27.82.44,1.88.21,2.93-.32.92-.46,1.71-.96,3.24-.5,1.1-.27,1.94.16,2.94-.28,1.26-.56.14-.77-1.01-.95-3.76.43-7.84.36-11.07,1.66Z"/><path d="m172.01,1.11c1.29.41,4.46.24,5.38.95.43.34,4.4-.46,6.57-.85.36-.06.59-.17.88-.25V.37c-3.36-.33-6.46.54-9.78.43l-2.44.17c-.32.02-.52.07-.6.14Z"/><path d="m310.95,67.34c.64-.17,2.81-1.25,5.05-2.58,2.24-1.33,4.48-2.99,5.5-3.89,1.94-1.85.51-.89.8-1.37-1.2,1.17-2.52,2.26-3.89,3.09-.29.18-1.3.8-1.35.86-1.58,1.5-4.06,2.69-6.11,3.88Z"/><path d="m303.6,10.6c-1.22-.53-3.9-.13-4.38-1.13-1.24-.64-2.58-.66-3.91-.75-2.28.21-5.68-.61-8.3-.7.46.44.32.88,3.12.94,1.69.04,4.08.46,6.14.83l1.18-.06.34.2-1.46-.11c1.67.48-3.79.85,2.52,1.4.28-.3-.45-.93,2.02-.52.55-.2,2.76.38,2.73-.1Z"/><path d="m256.81,86.84c-.04.07.29.08-.49.26,5.57-1.05,11.5-2.01,16.08-3.93l-.16-.11-3.59.9c-3.92,1.02-7.85,2-11.83,2.89Z"/><path d="m287.01,8.03c2.61.08,6.02.91,8.3.7-.17-.78-2.3-.54-3.34-.76-3.97-.86-8.14-1.32-12.2-1.76.64,1.35,4.71,1.27,7.24,1.83Z"/><path d="m220.36,1.29c1.46.05,3.01.08,4.44.21,1.43.12,2.73.34,3.68.81.72.36,1.81.25,2-.07.14-.23-.08-.51,1.17-.57.44-.65-2.02-.59-3.32-.7-2.91-.22-5.87-.43-8.82-.48.23.27-.52.57.85.8Z"/><path d="m205.41,3.15c-2.02-.28-4.13-.4-5.59.15-.94.37-1.5.15-2.34,0-2.82-.52-5.62-.54-8.25.09,2.63.57,5.91.46,9.11.39,2.35-.03,4.69-.19,7.04-.17l.03-.46Z"/><path d="m22.28,71.35c-.74.05-2.79-.3,1.52,1.43,2.24.88,3.15,1.6,4.16,2.4.51.38-.03.65,1.83,1.21,1.5.45,1.29,0,1.11-.36-.17-.35-.2-.67-.3-1-2.83-1.11-5.61-2.35-8.33-3.69Z"/><path d="m141.11,3.15c-.25.62-.24,1.16,3.72.4l2.77-.66c.59-.06,1.18-.14,1.77-.18.74-.26,1.79-.29,2.81-.34l1.03-.52c.06-.41-1.18-.22-2.16-.1-1.67.17-3.32.41-4.98.66l-4.96.74Z"/><path d="m5.58,44.82c-.5.41-.92.88-1.37,1.35-.61,1.12-.98,2.38-1.25,3.56-.28,1.2-.39,2.34-.65,3.45-.05.28.05.83.16,1.28.15.44.37.78.37.72.07-.25.38.45.62.89.14.21.28.36.32.32.05-.05-.03-.28-.1-.86-.13-.44-.33-.88-.39-1.35-.06-.47-.12-.93-.16-1.4.02-.94.09-1.89.36-2.79.45-1.82,1.34-3.47,2.08-5.17Z"/><path d="m142.2,5.03c-1,.27-2.47.78-2.91.77-1.74-.04-.13-.39.44-.65.39-.18-.15-.24-.84-.17-.8.08-1.65.23-1.65.42,0,.29.28.56.44.84,3.4.24,7.19-.26,10.96-.72l.08-.52s-.06-.1-.05-.16l-1.01.08c-2.41.46-4.71.84-5.46.1Z"/><path d="m25.01,29.88c-3.12,1.63-1.97,2.25-5.28,4.06,1.94-.47,3.84-.94,5.85-2.67.2-.24.28-.54.64-.71,5.55-2.62,1.26-1.21-.2-.91-.08.19.14.28-.87.72l.07-.38c-.08-.03-.14-.07-.21-.11Z"/><path d="m40.21,81.41c-.68-.58-2.05-1.48-3.71-1.67-3.21-.32-8.12-3.33-10.47-3.15,4.68,2.08,9.44,3.6,14.17,4.82Z"/><path d="m115.62,94.59l-3.59-.63-1.88-.3c-.03.44-1.59.25-3.12.09-3.53-.77-6.87-1.04-10.08-.89.28.22,1.23.52,1.89.54,5.45.13,11.46,1.42,16.77,1.19Z"/><path d="m286.6,11.07c-.06-.74-.6-1.36-4.21-1.29-2.69.07-5.84-1.51-8.49-1.05,1.85.69,3.93,1.13,6.1,1.47,2.17.33,4.43.54,6.6.88Z"/><path d="m233.71,89.19c1.29.28,3.77.24,6.46.05-.59-.35.73-.92,2.49-1.53-1.89.07-3.53.52-5.23.88-.87.49-2.41.45-3.72.6Z"/><path d="m247.24,2.53c1.59.57,4.06.99,6.67,1.19,2.6.2,5.33.18,7.4,0-1.97-.46-3.98-.65-6-.78-2.01-.14-4.03-.22-6.04-.39-.14.42-1.11.18-2.02-.01Z"/><path d="m60.36,17.84c1.04-.33,1.75-.59,1.66-.83-.4.04-.8.1-1.19.17l-.31-.14.87-.17.77.07c1.08-.26,1.57-.51,1.6-.75-.83.18-1.65.31-2.46.44-.8.15-1.6.3-2.41.46-1.61.32-3.26.71-5.03,1.4.51.6,3.59-.19,5.7-.45l.8-.2Z"/><path d="m84.28,90.79c-4.23-.66-8.43-1.35-12.11-1.44,1.36.59,2.68.93,4.85.97,2.75.03,6.03.95,9.04,1.2l-.11-.43c-.54-.1-1.1-.2-1.66-.3Z"/><path d="m210.03,2.27c3.81,0,5.9-.78,4.69-1.76l-3.74-.12c.56.48-2.21.63-1.67,1.1,1.08.24.62.52.72.78Z"/><path d="m11.73,38.18c-1.52,1.4-2.94,2.89-4.15,4.49,2.33-1.94,4.86-3.51,6.93-5.62l-.63-.37c-.72.49-1.46.97-2.15,1.5Z"/><path d="m112.7,9.09l-2.35.4-.36.38c3.44-.48,6.99-.54,10.1-1.57-1.07-.21-3.21-.09-3.66-.49-.65.16-1.2.3-1.76.44-.11.3-.16.58-1.97.84Z"/><path d="m205.41,3.15l-.03.46,4.62.13c.96-.46.9-.95.04-1.47-2.26-.1-1.72-.48-1.76-.79-.35-.17-.87-.34-1.74-.28-1.03.07-.42.28-.24.43.7.57,2.02,1.16-.88,1.53Z"/><path d="m73.8,13.97l-.04-.41c-3.1.7-6.63.93-9.05,2.39.55.25.05,1.16,3.29-.42,1.41-.69,4.12-.76,5.79-1.56Z"/><path d="m117.79,94.47l-.26.48c3.57.63,6.86.46,10.2.5l-1.72-.47c-1.84-.28-1.85-.61-2.09-.94-.25-.03-.5-.05-.76-.07-.05.66-.65,1.22-5.38.5Z"/><path d="m158.56,94.26c2.45,0,4.91,0,7.35,0,1.58,0,2.78-.04,2.93-.36-3.27-.35-6.9.01-10.3-.13,0,.16-.02.32.02.49Z"/><path d="m126.01,94.98l1.72.47c2.64.38,5.38.91,7.59.24-2.38-.34-4.87-.59-7.53-.82-1.26-.12-1.7-.12-1.78.1Z"/><path d="m131.8,4.03c.11.05.15.12.34.15,1.36.2-3.66,1.19.19.93,2.78-.19,4.49-.96,4.18-1.63-1.64.06-3.4-.11-4.71.55Z"/><path d="m296.01,75.63c1.04-.21,2.1-.46,4.12-1.53,1.69-.85,3.19-1.49,4.15-1.7.59-.3,1.37-.65,1.54-.84-.54.13-1.07.26-1.62.4-1.33.59-2.66,1.17-3.98,1.76-1.32.59-2.64,1.17-3.99,1.69l-.23.22Z"/><path d="m331.27,48.03c-.18.79-.02.62.31-.02.16-.32.36-.76.58-1.24.21-.49.35-1.06.53-1.6.13-.4.25-.76.36-1.09.07-.34.11-.65.15-.93.08-.56.11-1,.12-1.35h-.21c-.2,1.05-.28,2.13-.66,3.15-.16.52-.32,1.04-.49,1.56-.23.5-.46,1.01-.7,1.52Z"/><path d="m222.75,92.32c-3.33.56-7.15.68-10.09,1.41,3.4-.02,6.74-.71,10.11-1.13v-.28Z"/><path d="m10.56,64.13c-.26.69.52,1.47,1.67,2.14,1.11.71,2.56,1.3,3.47,1.95.02-.31.77-.3-1.6-1.61-1.17-.68-2.41-1.58-3.53-2.48Z"/><path d="m135.84,6.47c-.36-.27-.06-.78-2.15-.56-2.81.29-1.05.85-2.65,1.25,2.31.34,3.2-.46,4.79-.69Z"/><path d="m237.75,4.62c1.39-.06,2.77-.15,4.16-.16-2.59-.32-2.72-.73-3.06-1.22-.2-.27-.8-.51-2.04-.58-.46-.03-1.2.03-1.35.12-.43.24.58.36,1.37.51,2.85.55-2.36.7.11,1.24.26.04.53.07.82.09Z"/><path d="m333.88,43.63c-.04.48-.21.97-.4,1.46-.19.49-.39,1-.58,1.49-.44.96-.89,1.85-.95,2.64.3-.3.45-.46.74-1.14.31-.67.75-1.91,1.19-4.45Z"/><path d="m161.69,3.56c2.45,0,2.32.5,2.89.86.95-.05,1.96-.04,2.91-.07.96-.02,1.87-.1,2.63-.38l-.07-.24c-1.38-.07-3.77.23-4.01-.14-.54-.86-2.47-.35-4.35-.04Z"/><path d="m156.1,5.06c1.14-.72-1.68-.69-3.04-.94l-1.42.49-1.08.9c1.91-.01,3.55-.62,5.54-.46Z"/><path d="m40.86,79.23l.16-.51c-1.61-.65-3.18-1.38-5.05-1.8-.08.28-.83.43,1.63,1.22,1.86.6,2.65,1.03,2.47,1.38.86.13.66-.14.79-.28Z"/><path d="m242.67,87.71c-1.76.61-3.09,1.18-2.49,1.53,1.83-.58,4.55-1.21,4.87-1.7l-.41-.16-1.97.33Z"/><path d="m220.36,1.29c-1.38-.23-.63-.53-.85-.8l-2.79-.15c-.46.7-.54,1.36,3.66,1.61v-.65Z"/><path d="m85.94,91.09l.11.43c1.79.27,3.34.37,4.68.29-.98-1.37-2.92-.98-4.79-.72Z"/><path d="m290.54,76.27c.01.07-.13.2.06.2.54,0-1.86,1.2.85.23,2.4-.85.23-.4.52-.67.08-.08.87-.38,1.34-.59-.63.09-1.2.14-2.77.82Z"/><path d="m233.71,89.19c1.31-.15,2.85-.11,3.72-.6-.67.09-1.35.15-2.02.22-.76.12-1.41.19-1.78.13l-3.71.63.8.03,2.99-.41Z"/><path d="m293.06,10.28s-.08.03-.02.06c.31.14-1.09.09,1.16.45.77.12,2.24.15.79-.2l-1.94-.31Z"/><path d="m153.9,94.69c.07-.31,2.42-.41,1.86-.78l-2.84-.05c.33.28-.66.58.98.83Z"/><path d="m311.58,15.46c.01-.36-.81-.76-1.74-1.14-4.08-.57.76.74-.39.79.16.1.39.16.69.19.4.07.81.14,1.21.23.25.04.33.01.23-.07Z"/><path d="m170.7,1.35l1.85-.27c-.84-.42-3.1-.2-4.51-.36l-.08.4.1.41c.5,0,.89-.01,1.27-.03.13-.23.77-.19,1.39-.16Z"/><path d="m52.74,85.22c-.07-.37-2.07-.77-2.59-1.15l-1.48-.22,1.09.55c.93.36,1.91.64,2.97.83Z"/><path d="m150.55,5.51l1.08-.9-2.91.4-.08.52c.64-.03,1.27,0,1.91-.01Z"/><path d="m107.31,10.39c-.6-.27-1.37-.37-2.91.28.8.07,1.2.54,2.91-.28Z"/><path d="m196.69,94.52l-2.92.35c-.11.41,1.5.2,2.94.06l-.02-.41Z"/><path d="m99.01,11.33c-1.36.26-2.93.38-3.83.9,2.04.05,3.05-.35,3.83-.9Z"/><path d="m283.23,9.34c.92.13,1.98.19,3.19.19-1.02-.08-1.62-.35-3.19-.19Z"/><path d="m230.72,89.6l-.8-.03-1.84.25.1.13c.85.03,1.7-.06,2.54-.35Z"/><path d="m182.96,3.38s.02-.07.12-.11c-.13.03-.27.05-.43.06-.08.15-.17.3-.25.46l.56-.41Z"/><path d="m233.63,88.93c.37.06,1.02-.01,1.78-.13-.01-.22-.62-.17-1.78.13Z"/><path d="m213.62,3.88c-.1-.16.08-.39-.95-.38-.75,0-.62.17-.06.29l1.02.09Z"/><path d="m167.95,1.13l.08-.4c-.96.09-1.61.27-1.91.5.61-.05,1.22-.08,1.83-.1Z"/><path d="m172.61.97l2.44-.17c-1.04-.23-1.86-.18-2.44.17Z"/><path d="m158.52,94.25l.02-.48c-.62-.03-.93,0-.97.12.08.14-.37.32.94.37Z"/><path d="m18.95,34.32l-.43-.17c-.82.53-.21.39-.33.6.27-.11.53-.26.76-.42Z"/><path d="m247.25,2.53c.91.19,1.88.43,2.02.02-.84-.13-1.67-.27-2.02-.02Z"/><path d="m311.35,15.53c-.4-.09-.8-.16-1.21-.23l.68.4.53-.17Z"/><path d="m296.24,75.41c1.35-.52,2.68-1.09,3.99-1.69,1.32-.58,2.65-1.17,3.98-1.76.91-.43,1.29-.67,1.32-.8l-.02-.32c-1.46.66-1.97.8-1.52.41.21-.18.51-.42-.46,0-.28.12-.72.34-1.08.53s-.66.35-.64.36c.35.31-3.53,2.02-4.98,2.83-.29.17-.4.28-.6.42Z"/><path d="m333.4,33.7c-.34-.94-.59-1.93-1.04-2.82-.23-.44-.47-.88-.72-1.31-.25-.43-.49-.86-.83-1.21.26.33.41.62.52.85.11.23.18.39.23.51.09.24.08.3.05.33-.06.07-.19.03.34,1.06.29.55.42,1.16.64,1.74.19.59.42,1.16.49,1.78.16-.52-.47-2.43.33-.92Z"/><path d="m258.56,85.27c-1.58.09-3.58.49-5.66.87.09.12-.17.35.36.35.7,0-2,.71.49.27,1.73-.32,1.35-.46,1.13-.58-.1-.06-.16-.31,1.01-.29,2.14.03,1.59-.49,2.67-.63Z"/><path d="m320.85,61.98c.78-.53,1.48-1.16,2.21-1.76.21-.32,1.95-1.98.28-.66-.88.7-1.43,1.2-1.8,1.59-.38.37-.57.62-.7.83Z"/><path d="m315.33,65.79c-.67.47-1.25.96-.8.75,1.4-.61,2.68-1.81,4.07-2.72-.28-.14-2,1.19-3.28,1.97Z"/><path d="m268.64,83.96l3.59-.9c-.25-.15-1.4.04-2.83.42-1.11.29-.7.36-.76.48Z"/><path d="m228.13,90.34c-.25.05-.52.08-.79.11l-.08.26c1.12-.14,2.49-.3,2.96-.59l-2.09.21Z"/><path d="m323.61,59.73c.45-.08,1.36-1.08,2.25-2.09l-.2-.06c-.69.72-1.32,1.49-2.05,2.14Z"/><path d="m308.28,69c-.19.07-.36.15-.54.22l-.43.32c.22-.1.48-.21.64-.3.16-.09.22-.16.33-.24Z"/><path d="m261.36,84.66l-2.11.46c.28,0,.5.07.85,0,1.03-.19.99-.32,1.25-.46Z"/><path d="m314.48,66.01l.87-.32c1.11-.88.18-.29-.87.32Z"/><path d="m325.66,57.59c.35-.37.89-.88.81-.94,0,0-.29.23-.42.37-.6.62-.38.49-.4.57Z"/><path d="m305.52,70.84l.02.32c1.04-.63,1.08-.76-.02-.32Z"/><path d="m281.76,79.65s.17,0,.3-.04c-.03-.04-.17,0-.3.04Z"/><path d="m225.38,90.94l-.02.14,1.89-.36c-.61.07-1.24.15-1.86.22Z"/><path d="m312.12,67.55l-.2.07c.07-.03.15-.06.2-.07Z"/><path d="m326.18,57.3l.26-.13c.51-.65.39-.52-.26.13Z"/><path d="m222.09,2.2c-1.15.31-2.92.55-1.65,1.09.54.24,1.2.43,2.36.53,1.72.15,1.92-.15,2.17-.41-.88-.39-1.31-.76-.52-1.1.36-.16.28-.33-.73-.42-1.22-.1-1.42.1-1.62.3Z"/><path d="m300.88,10.7c-2.47-.4-1.74.22-2.02.52.9.21,2.21.3,2.25.76.02.23.85.66,1.67.74.84.08,1.65-.04,1.99-.2.56-.28-1.07-.41-1.55-.6-.94-.39-1.58-.81-2.35-1.21Z"/><path d="m253.31,5.5c1.58,1.21,4.75,1.03,7.71,1.22-2.09-.86-4.52-1.34-7.71-1.22Z"/><path d="m251.01,5.36l.96.03c.17-.04.27-.12.51-.13,1.8-.1,3.02-.29,1.23-.92-.47-.17-1.78-.42-1.57-.18.48.55-5.39.22-1.13,1.2Z"/><path d="m230.5,4.16l2.67.26c.05-.29,2.31-.56-.06-.85-1.75-.21-3,.08-2.61.59Z"/><path d="m243.18,4.6l2.92.84c-.05-.26,1.58-.37.23-.72-1.07-.28-2.25-.27-3.16-.12Z"/><path d="m295.04,10.73c-.52-.19-.82-.36-1.14-.41-.34-.05-.69-.01-1.03-.01.27.11.51.26.82.32.32.06.71.05,1.34.09Z"/><path d="m248.11,5.64l2.59.08c.12-.02.25-.03.38-.05l-.1-.22c-1.16-.02-2.85-.28-2.87.2Z"/><path d="m228.13,4.02c.75.22,1.5.47,2.31.14l-2.31-.14Z"/><path d="m289.31,10.92c-.25-.09-.39-.08-.52-.07.09.03.18.07.52.07Z"/><path d="m8.15,65.65c.86.64,1.77,1.49,2.45,1.64.37-.1,1.13.4,1.97.97.86.53,1.78,1.16,2.41,1.34.48.12,1.57,1.45,2.39,1.42.5,0-.75-.98-1.47-1.65-.75-.66-1.34-1.13-2.6-1.68-.79-.35-1.59-.82-2.33-1.33-.72-.54-1.33-1.19-1.73-1.9-.43-.89-1.83-1.75-2.56-2.4-1.33-1.07-.52.02.05.87.92,1.3,1.95,2.55,1.41,2.72Z"/><path d="m40.86,79.23c-.12.15.07.41-.79.28-.28.17-2.46-.54-1.49.14.34.24,1.16.64,1.74.8,1.93.55.76-.18,1.24-.24.26-.03.48-.09.85-.07.73.05,2.76.56,2.08.11-.79-.52-2.34-.56-3.63-1.02Z"/><path d="m34.21,77.77c-.18-.1-.34-.2-.51-.29l-.57-.03c.22.1.46.23.65.29.17.05.28.02.42.02Z"/><path d="m1.13,49.02c.09-.33.2-.65.3-.97-.1.31-.2.65-.3.97Z"/><path d="m306.53,13.83c-.16-.11-.19-.22-1.42-.47.14.11.73.23,1.42.47Z"/><path d="m34.38,25.29l-1.81.65c.06.24.6.42.09.72-.91.53-1.73.97-1.3,1.13.21.08.72-.18.9-.33.67-.55,3.29-1.41,2.42-1.67-.29-.08-.21-.33-.31-.5Z"/><path d="m39.81,24.01c-.61.02-.74-.24-2.02.18-.18.06-.58.35-.51.39.35.22,1.55-.28,2.52-.57Z"/><path d="m60.36,17.84l-.8.2c.04.14-.09.35.96.09l-.16-.29Z"/><path d="m25.22,29.98l-.07.38c1.01-.44.79-.53.87-.72l-.8.33Z"/><path d="m29.2,27.67l.4.12c.78-.47-.09-.16-.4-.12Z"/><path d="m331.94,31.1c-.52-1.04-.4-1-.34-1.06.03-.03.05-.09-.05-.33-.05-.12-.12-.28-.23-.51-.1-.23-.26-.51-.52-.85-.72-.98-1.23-1.68-1.71-2.11-1.02-.9-2.21-1.99-.67-.06.64.73.96,1.4,1.33,1.86.34.48.63.82.88,1.12.43.64.8,1.06,1.31,1.94Z"/><path d="m321.16,20.11c1.13.72,2.78,2.07,2.82,1.82.02-.08-.35-.5-1.63-1.33-.31-.2-.65-.43-1.01-.64-.37-.19-.73-.37-1.06-.54-.66-.33-1.17-.57-1.22-.55-.22.06,1.52.86,2.1,1.24Z"/><path d="m322.67,20.49c-.41-.34-.75-.61-1.05-.86-.32-.22-.62-.42-.96-.61-.85-.48-2.36-1.34-2.47-1.25-.06.04.46.41,1.35.91.96.56,1.95.99,3.13,1.81Z"/><path d="m310.98,15.26c-.1-.08-.08-.17-1-.47-.29-.09-.47-.09-.7-.13.57.18,1.15.36,1.7.6Z"/><path d="m325.46,22.95c-.24-.18-.1-.06.03.07l-.03-.07Z"/><path d="m312.6,15.96l-.39-.15-.39-.15c.25.13.51.24.79.31Z"/><path d="m186.77,2.78c-.2-.33-1.17-.47-2.52-.31-1.72.19-1.03.52-1.19.8,1.67,0,1.73-.69,3.71-.49Z"/><path d="m208.27,1.48c.04.32-.5.69,1.79.8-.13-.27.33-.55-.75-.79h-1.03Z"/><path d="m186.79,2.77l.21.08c-.07-.03-.15-.05-.21-.08Z"/><path d="m84.28,90.79l1.67.3c-.28-.18.62-.31-.73-.51-.77-.11-.98.05-.95.21Z"/><path d="m107.04,93.75c1.52.17,3.09.35,3.12-.09-1.14-.01-2.42-.08-3.12.09Z"/><path d="m161.69,3.56c1.88-.31,3.81-.82,4.35.04.24.36,2.64.07,4.01.14-.77-.44-1.39-.9-2.36-1.31-2.06-.85-5.76-.68-8.73.3-.37.12-.55.29-1.01.38-1.7.31-1.77,1-.05,1.16q.72.06,1.09-.41c.18-.22.11-.49,1.4-.59.4-.03.85.19,1.28.29Z"/><path d="m147.66,4.93l1.01-.08c1.72-.87-1.1-1.27-1.07-1.95l-2.77.66c-.21.66,3.52.63,2.83,1.37Z"/><path d="m152.19,2.37c-1.02.06-2.07.09-2.81.34.03.03.01.08.1.09,1.27.14,1.09.83,2.62.61,2.25-.32-.31-.66.09-1.04Z"/><path d="m157.21,2.68c.27-.08.58-.15.55-.18-.09-.11-.3-.2-.47-.3-.12.07-.33.14-.33.19,0,.09.14.17.25.29Z"/><path d="m170.7,1.35c-.62-.03-1.26-.08-1.39.16.59.02,1.42.17,1.39-.16Z"/><path d="m168.05,1.54l-.38.12c.17-.03.33-.07.38-.12Z"/><path d="m11.73,38.18c.7-.53,1.43-1.01,2.15-1.5.13-.51,1.14-1.36,2.28-2.16,1.13-.82,2.38-1.61,2.89-2.2-.25-.15-.08-.65-1.96.41.98-.12-.31.79-1.1,1.39-.97.72-1.6.79-2.09.87-.78.46-1.54.97-2.31,1.47-1.89,1.78-2.71,2.83-2.68,3.06.04.24.93-.33,2.81-1.33Z"/><path d="m13.9,34.98c.49-.08,1.12-.14,2.09-.87.79-.6,2.08-1.5,1.1-1.39-1.29.72-2.94,1.54-3.19,2.25Z"/><path d="m3.95,44.01c1.15-.8,1.68-1.42,2.07-2.08.4-.64.64-1.3,1.24-1.91-1.77,1.18-2.68,2.57-3.31,3.99Z"/><path d="m1.13,49.04c.09-.34.21-.67.31-1.01-.27.28-.4.62-.31,1.01Z"/><path d="m112.7,9.09c1.81-.26,1.87-.54,1.97-.84-.33-.36.63-.39,1.66-.42.51-.47.04-.91,2.65-1.37.47-.57-2.38-.01-2.83-.27-3.62,1.09-3.78,2.03-3.45,2.9Z"/><path d="m142.18,5.03l1.16-.18c-.67-.12-.82.08-1.16.18Z"/><path d="m182.53,94.55c-.44.15-.56.3-.67.45,1.88-.05,3.75-.18,5.62-.26,1.69-.1,1.72-.3,1.78-.49-1.01.02-2.23.14-2.84-.04-1.3.11-2.59.25-3.89.34Z"/><path d="m187.48,94.74c-1.87.08-3.74.21-5.61.26l-.06.32c2.17-.01,4.33-.12,6.49-.17l-.82-.41Z"/><path d="m182.53,94.55c1.3-.09,2.59-.23,3.89-.34v-.35s-3.84.19-3.84.19l-.05.49Z"/><path d="m208.74,92.44c-.05-.14-.16-.29-1.19-.23-.47.03-1.07.21-1.61.32.68.11,1.77,0,2.8-.09Z"/><path d="m186.42,94.21c.61.18,1.83.05,2.84.04-.59-.18-1.73-.1-2.84-.04Z"/><path d="m197.64,94.31c0-.08.87-.22.03-.25-.09,0-.35.03-.43.05-.53.14-.21.19.39.21Z"/><path d="m76.08,15.25c.75-.26,1.54-.14,2.31-.14.78.01,1.54-.09,2.24-.83.04-.44-.75-.38-1.75-.2-1,.18-2.19.55-2.98.63.06.18.12.37.17.55Z"/><path d="m95.09,10.77l-.37.12c.11-.04.23-.07.37-.12Z"/><path d="m75.91,14.7l-.22-.03c.08,0,.15.02.22.03Z"/><path d="m225.38,90.94l1.88-.22.08-.26c-1.32.13-1.95.29-1.96.48Z"/><path d="m117.79,94.47c4.73.72,5.33.16,5.38-.5l-.97-.8c-3.49-.71-5.55-.19-8.31-.27-.39.58-.2,1.15,3.9,1.57Z"/><path d="m162.94,94.85l.41.02c-.01-.07-.17-.08-.41-.02Z"/><path d="m250.69,5.72l.65.13c-.09-.06-.19-.13-.28-.19-.13.02-.25.04-.38.05Z"/><path d="m153.87,94.7c.32.05.65.1.98.15,0,0,.17-.04.27-.05-.41-.03-.81-.06-1.25-.09Z"/><path d="m100.97,91.3l-1.75-.38c.1.24.15.5,1.75.38Z"/><path d="m181.86,95l.35-.46c-.92.03-1.94.06-2.09.26-.15.2.74.22,1.74.2Z"/><path d="m107.03,9.58c.07-.22.07-.43-.85-.43.13.18-.25.47.85.43Z"/><path d="m102.36,9.16l.2.05c-.07-.01-.14-.03-.2-.05Z"/><path d="m109.7,8.34c-.21-.11-.23-.32-.69-.32-.61,0-1.14.27-.94.35.41.16-1.4.91,1.42.44.07-.16.14-.31.2-.46Z"/><path d="m109.7,8.34c-.07.15-.14.31-.2.46,1.39-.33,1.25-.46.2-.46Z"/><path d="m52.9,19.99c-.14,0-.26-.02-.42,0-.02,0-.31.11-.32.14-.03.06.04.1.07.14l.68-.27Z"/><path d="m49.56,82.94l.37.05c-.14-.02-.28-.05-.37-.05Z"/><path d="m296.33,9.83l1.46.11-.34-.2c-.4.02-.79.04-1.12.09Z"/><path d="m60.82,17.18c.39-.07.79-.12,1.19-.17-.11-.09-.37-.11-.63-.14l-.56.3Z"/><path d="m116.33,7.84c-1.03.02-1.99.06-1.66.42l1.66-.42Z"/>
                  </g>
                </mask>
              </defs>
              <path class="mask" d="m328.02,17.6C239.95-4.82,130.23-2.78,45.52,22.85,23.54,29.5,1.12,39.73,1.92,52.89c.58,9.59,13.77,17.8,28.66,23.52,23.16,8.89,51.44,13.61,79.86,16.17,47.94,4.32,98.25,2.78,143.79-6.09,24.87-4.84,48.85-12.15,64.31-23.32,15.46-11.17,20.84-26.74,8.42-38.88-12.42-12.14-44.88-18.55-67.66-11.49"
                    mask="url(#path-mask)" stroke="black" stroke-width="2" fill="none"
                    stroke-dasharray="792.9031372070312" stroke-dashoffset="792.9031372070312">
              </path>
            </svg>
        