
            <svg xmlns="http://www.w3.org/2000/svg">
              <defs>
                <mask id="path-mask">
                  <g fill="white">
                    <path d="m256.56,52.9c1.33-1.69.26-.81.42-1.24l1.06-1.1c.86-.91,1.86-2,2.62-2.95.41-.47.88-1.08,1.25-1.81.4-.72.82-1.49,1.08-2.32.3-.81.57-1.62.68-2.37.13-.75.26-1.39.21-1.9.13-.66.21-1.2.26-1.65.03-.45-.03-.81-.07-1.1.04-.44.1-.94.09-1.46-.04-.52-.09-1.06-.13-1.58-.01-.53-.15-1.03-.22-1.49-.07-.46-.12-.89-.12-1.24.06-.4-.3-1.98.32-.76.24.44.39.93.52,1.51.11.58.31,1.22.27,2.02,0,.66.04,1.27.06,1.82-.01.55,0,1.03.08,1.4-.03.41-.02.82-.1,1.22-.1.75-.28,1.64-.58,2.44-.3.8-.48,1.58-.47,2.21-.18.44-.51,1.25-.52,1.27,0,1.31-1.49,3.77-2.92,5.72l-.12-.04c.35-.57.24-.47-.21.12-.07.1-.14.2-.22.31l-.19-.04c.23-.34.61-.81.54-.85-.02,0-.22.21-.3.33-.41.56-.24.44-.24.53-.45.65-.88,1.33-1.39,1.93-.12.15-.25.3-.38.45.12-.29,1.32-1.82.11-.59-.64.64-1.02,1.11-1.27,1.46-.26.33-.37.57-.44.76-.12.36-.62.97-1.6,1.71-.27-.13-1.5,1.13-2.47,1.85v-.1c.8-.81.09-.28-.7.3-1.16.66-1.07.97-1.75,1.45l-.16.07.18-.08c.03.17.55.05-1.46,1.38-1.26.82-2.34,1.52-1.98,1.61-.42.27-.83.56-1.25.82l-1.3.38c.7-.41.98-.64.98-.76.78-.58.79-.71-.06-.31-1.12.62-1.53.76-1.22.39.15-.17.36-.4-.38,0-.22.12-.55.33-.83.51-.28.18-.5.33-.49.34.34.29-2.65,1.93-3.75,2.7-.22.16-.3.27-.44.41l-.16.22c-1.36.7-2.82,1.26-4.21,1.9-1.41.58-2.75,1.22-3.98,1.86-.62.33-1.56.57-2.23.75-1.21.32-1.98.63-2.56,1.02-1.87.59-3.75,1.13-5.64,1.65l-.14-.11c-.22-.15-1.14.03-2.27.4-.88.28-.54.34-.58.46-3.11.98-6.23,1.91-9.54,2.75h.14c-.03.08.25.09-.38.26-.16.12-.2.25-1.02.43.21-.38-1.4-.1-2.7.14-2.82.48-6.09.98-8.51,1.64-1.67.45-2.82.68-4.48.98-1,.18-.41.32-.47.47-1.61.31-3.23.55-4.84.83-1.61.27-3.23.55-4.85.77l-.02-.27c.62-.24.44-.37.1-.51-.59-.23.22-.48,1.95-.71l1.5-.38c.91-.16,2.01-.28,2.37-.57l-1.68.19c-.23-.09-1.23-.08.02-.39.69.04,1.37-.04,2.04-.31l2.4-.38c1.06.26,3.05.2,5.23.07,1.46-.54,3.6-1.19,3.83-1.67,2.1-.38,4.21-.69,6.28-1.3.08.12-.11.34.31.35.57,0-1.57.71.42.27,1.38-.3,1.06-.44.88-.56-.09-.06-.15-.3.8-.27,1.74.04,1.25-.48,2.67-.74.23,0,.41.08.7.02.82-.19.78-.31.98-.45,2.65-.65,5.16-1.53,7.99-2.18,1.48-.33,2.14-.91,2.5-1.26,4.25-1.33,8.44-2.83,12.54-4.55.02.07-.08.19.07.19.45,0-1.39,1.15.73.23,1.88-.82.14-.38.35-.65.06-.08.67-.37,1.03-.56,3.33-1.76,6.96-3.55,10.28-5.59.48-.3,1.08-.75,1.67-1.15.57-.43,1.14-.8,1.6-.93.52-.16,2.18-1.17,3.87-2.41.81-.65,1.69-1.3,2.38-1.96.69-.66,1.28-1.25,1.65-1.65Zm-10.3,7.78l-.31.3c.17-.09.37-.19.5-.28.12-.08.16-.15.24-.23-.15.07-.28.14-.42.21Zm-19.87,9.82c-.08.02-.19.06-.29.09.03.04.14,0,.29-.09Z"/><path d="m206.53,3.26c2.51.21,4.98.58,7.45.99,2.46.43,4.93.78,7.38,1.27.46,1.33,3.75,1.2,5.78,1.72.35.44.21.87,2.47.89,1.37.03,3.28.39,4.98.76,1.32.45-3.12.9,1.97,1.34.72.2,1.77.26,1.78.71,0,.23.65.64,1.31.7.68.07,1.34-.07,1.63-.24.47-.28-.84-.38-1.22-.57-.74-.37-1.24-.77-1.83-1.16.46-.21,2.22.33,2.22-.14.95.9,5.01.83,4.79,1.74-.11.45-1.79.65-2.57,1.05-.82.42-3.79-.09-6.11-.69-1.04-.27-2.01-.69-3.05-.94-1-.26-2.19-.82-3.01-.61-.87.23,1.98.57,1.37.92-1.68.04-3.41-.13-5.23-.74-.01-.74-.42-1.35-3.34-1.23-2.17.09-4.65-1.4-6.8-.92l-.79-.09-1.45-.43c-2.38-1.11-5.07-1.6-8.06-1.35-1.65-.84-3.6-1.25-6.18-1.12l-1.08-.09c.13-.05.22-.12.41-.13,1.46-.11,2.44-.31,1.02-.93-.37-.16-1.42-.4-1.26-.17.37.54-4.35.26-.97,1.29-.93-.01-2.29-.25-2.31.22l-1.61-.18c-.03-.26,1.28-.39.2-.72-.85-.27-1.81-.25-2.54-.1l-1.01-.12c-2.08-.23-2.18-.7-2.44-1.17-.15-.27-.63-.51-1.63-.57-.37-.02-.97.04-1.09.13-.35.24.46.36,1.09.51,2.28.53-1.91.71.06,1.24-.53.4-1.81.28-3.02.21v-.3c.04-.29,1.87-.57-.03-.85-1.41-.2-2.42.09-2.16.6l-1.85-.13-2.54-.59c-.7-.38-1.04-.75-.41-1.09.29-.16.23-.34-.58-.42-.98-.06-1.15.15-1.31.35l-1.37-.25v-.65c2.34.09,5,0,6.51.94.58.36,1.45.24,1.61-.08.12-.23-.05-.51.95-.58,4.1-.31,8.31-.18,12.55.73,2.53,1.13,7.95,1.55,11.31,1.04Zm26.06,6.17c-.27-.05-.55,0-.83,0,.21.11.4.25.65.31.26.06.58.02,1.08.06-.41-.19-.65-.33-.9-.37Z"/><path d="m19.78,65.63c1.79.75,2.44,1.44,3.21,2.16.39.36-.1.63,1.39,1.12,1.21.37,1.07-.04.97-.4-.1-.34-.1-.64-.15-.95,1.42.55,2.81,1.14,4.25,1.65-.09.28-.73.44,1.23,1.15,1.47.54,2.09.92,1.91,1.27-.24.17-1.98-.43-1.24.19.26.22.91.58,1.36.73,1.54.49.64-.19,1.04-.26.22-.04.4-.1.71-.09.6.04,2.22.46,1.7.04-.61-.47-1.87-.49-2.89-.9l.18-.51c4.11,1.33,8.07,2.72,12.01,4.09-.8.38-1.43.96-4.73-.54-.54-.25-1.47-.48-1.77-.33-.32.16.37.44,1.14.71.17.37.33.74.4,1.1l-1.19-.19.85.52c-2.86-.46-5.4-1.39-7.61-2.69-.5-.55-1.56-1.38-2.91-1.53-2.63-.22-6.4-3.01-8.39-2.73-2.12-1.31-4.53-2.36-6.71-3.72.43-.51-1.18-1.6-2.64-2.37-1.29-.71-1.97-1.26-2.7-2.11.65-.2,2.44,1.69,3.51,1.93.39.1,1.15,1.31,1.87,1.24.43-.04-.53-.88-1.05-1.49-.54-.61-1.03-.97-2.02-1.45-.64-.28-1.29-.65-1.85-1.12-.58-.44-1.03-1-1.27-1.64-.31-.74-1.38-1.49-2.02-1.96-1.03-.9-.5.08-.05.76.67,1.11,1.43,2.17.93,2.35l-.74-.43c-.51-1.57-2.64-3.43-3.75-5.66-.11-.21-.27-.48-.44-.77-.15-.3-.28-.62-.38-.89-.2-.56-.24-.95.23-.78.09.05-.14-.59-.38-1.27-.3-.66-.42-1.42-.55-1.45-.21-.07-.33-.31-.42-.67-.05-.36-.06-.85-.03-1.41l.07-.82c0-1.55.41-3.38.92-2.53.22.85.16.77.71-.31.22-.49.65-1.06.79-1.11.27-.09.15.33,0,.81-.13.49-.31,1.06-.21,1.25-.28.98-.31,2.02-.34,3,0,.98.05,1.9-.13,2.83-.03.24.11.66.25,1.01.14.35.37.59.37.54.13-.4,1.26,2.07.82.17.22,0,.26.19.61.88,1.07,2.27,2.65,4.54,4.92,6.08-.35.67.29,1.29,1.17,1.87.89.57,2.03,1.09,2.75,1.62,1.72,1.19,3.34,1.5,5.19,2.69-.62.07-2.32-.18,1.11,1.31Zm7.73,4.2h-.47c.17.08.36.21.51.26.13.04.23,0,.35,0-.14-.09-.26-.18-.39-.27Z"/><path d="m224.67,8.54c-1.35-.03-2.84.02-4.31,0-1.47.05-2.91.18-4.14.36-1.1.02-2.49.18-3.91.41-1.41.34-2.88.61-4.15.95-.72.19-.99.29-1.49.47-1.54.57-1.73,1.18-.01.73,1.81-.47,2.39-.57,2.89-.5.52.05,1.43,0,3.11-.61.19-.05.91-.18,1.22-.21.76-.08,1.5-.17,2.25-.27.75-.08,1.49-.11,2.23-.18,1.48-.16,2.97-.18,4.48-.18.87-.02,1.73.03,2.6.08.86.06,1.73.08,2.59.16,1.72.21,3.45.34,5.15.67,3.43.53,6.79,1.42,10.07,2.52l.03-.14c-.55-.2-1-.37-1.11-.45-1-.27-2.19-.59-3.01-.83-2-.5-4.48-.93-6.06-1.36-.24-.07-.84-.22-1.65-.38-.82-.12-1.83-.28-2.86-.43-1.03-.18-2.08-.2-2.97-.28-.88-.05-1.6-.12-1.96-.09-.24.01-.49.05-.45.07.34.19-.99.1-1.61.06-.73-.04-1.19-.14-1.82-.16-.36-.01-1.49.12-1.39.04.07-.05.71-.14,1.59-.21,1.84-.05,4.44-.03,4.69-.22Z"/><path d="m40.04,17.51c-1.71.69-3.81,1.24-4.78,2.13.52-.12,1.21-.18,1.54-.33,1.29-.57,2.5-1.19,3.64-1.03.94.14-.13.71-.86,1.23-1.29.93-2.48,1.05-3.76,1.13-.8.05-2.04.41-2.58.78-1.82,1.28-2.9,1.12-4.2,1.33-.77.28-1.7.75-2.02.54-.06-.04.23-.32.37-.38,1.01-.4,1.15-.14,1.65-.16l1.79-1.79c-1.72-.21-3.4,1.01-5.05,1.9.15.24.14.51-1.08,1.09.1.17.07.4.32.48.76.26-1.3,1.08-1.79,1.6-.13.14-.52.39-.71.31-.38-.15.24-.58.92-1.09.39-.28-.08-.47-.17-.7-.56.55-2.65,1.07-2.6,1.67.28-.06.96-.35.37.1l-.35-.11c-1.02.36-.66-.38-1.84.25-.42.22-.57.75-.84,1.14.09.14.02.34-.5.72.06.04.12.07.19.1l.63-.32c1.18-.28,4.54-1.63.3.87-.27.17-.29.45-.43.67,1.83-1.03,3.7-2.28,5.68-2.54.23-.04,2.62-1.65,4.38-2.38.39-.42.98-.7,2.03-1.15,3.09-1.31,6.56-1.98,9.45-3.48,1.42.19,3.41-1.17,4.81-1.26,1.37-.09,2.41-.32,3.91-1.1,2.03-1.06,3.08-.97,3.29-.4l3.55-1.03c-.27-.33.65-.84,1.3-1.3-1.77-.05-3.62-.07-.26-1.48.43-.18.09-.26-.37-.22-1.3.76-3.51.78-4.61,1.43-2.52,1.49-2.19.6-2.66.35l-.75.25c0,.24-.38.49-1.23.77-.02.31-.56.59-1.39.87l.16.29c-.83.24-.75.03-.79-.11-1.71.21-4.16.91-4.64.32Z"/><path d="m262.08,25.56c-.53-.82-.93-1.4-1.29-1.77-.8-.76-1.72-1.68-.61-.03.23.31.4.61.54.88.15.26.29.49.41.69.25.4.47.69.67.93.35.52.63.87,1.02,1.58.22.45.35.93.48,1.41l.4,1.43c0,.36.05.78.12,1.24.06.46.2.96.22,1.49.04.53.09,1.06.13,1.58.01.52-.05,1.02-.09,1.46l-.21.02c.03-.42.04-.86.05-1.3-.05-.44-.09-.87-.14-1.3-.05-.85-.24-1.63-.28-2.26,0-.81-.25-1.59-.51-2.4-.21-.83-.7-1.59-1.09-2.43-1.76-3.24-4.35-6-7.39-8.14-3.03-2.15-6.41-3.83-9.9-5.21-.1-.12-.06-.19.84.09.46.15.89.38,1.33.57l.66.36c.19.12.4.22.62.27,4.28,2.05,4.83,2.45,3.41,1.28-.04-.03-.05-.05-.08-.08-.96-.45-1.71-.87-2.39-1.24-.69-.33-1.28-.65-1.87-.97-1.16-.67-2.39-1.18-4.36-1.85-1.67-.45-3.86-1.12-4.27-1.41,1.11.24,2.38.47,2.72.66.32.19.77.35,1.28.5.51.16,1.06.35,1.61.55,3.89,1.41,7.59,3.15,11.11,5.62,2.51,1.75,4.77,4.01,6.52,6.64,1.75,2.63,2.93,5.7,3.29,8.87.04.63.17,1.45.14,2.13-.04.68-.11,1.2-.24,1.24-.07-.38-.09-.85-.08-1.4-.02-.55-.07-1.17-.06-1.82.04-.8-.16-1.44-.27-2.02-.13-.58-.28-1.07-.52-1.51-.39-1.57-1-3.1-1.94-4.37Zm-5.19-5.47c.03-.08-.23-.44-1.22-1.17-.92-.75-2.47-1.56-2.56-1.53-.2.07,1.19.74,1.61,1.11.86.65,2.1,1.82,2.18,1.59Zm-2.44-2.62c-.66-.43-1.84-1.18-1.95-1.1-.06.04.33.38,1.03.82.38.23.76.46,1.16.71.39.26.79.57,1.26.91-.63-.58-.97-1.02-1.51-1.34Zm3.27,3.25l.32.32-.02-.06c-.24-.24-.26-.24-.3-.26Z"/><path d="m166.04.33c-1.88.14-3.33,0-5.44-.2-3.06-.29-6.89-.03-10.36.06-1.74.04-3.61-.22-5.23.23v.59c.39.26,1.39.65.22.79-3.46.44-2.96,1.49-5.33,2.05,1.27-.07,2.39-.23,3.39-.48.13,0,.24-.03.33-.07.12-.28-.43-.61.95-.79,1.09-.14,1.86-.06,2.03.27l.18.07-.17-.08c-1.61-.13-1.64.52-2.97.53-.08.04-.11.07-.1.11,1.54.58,3.37-.16,5.04-.04,2.11-.63,4.36-.61,6.63-.09.68.16,1.12.38,1.88,0,1.17-.57,2.86-.38,4.49-.19,2.34-.38,1.27-.97.71-1.53-.15-.15-.63-.36.19-.43.7-.06,1.11.1,1.4.28h.83c-.43-.46,1.8-.62,1.35-1.09Z"/><path d="m73.01,82.76c1.42.52,2.92.96,4.99.97,2.6-.2,5.28.05,8.11.77.57-.17,1.59-.11,2.52-.13l1.51.29c-.17-.18-.41-.52-.48-.53-2.79-.14-4.58-1.02-7.26-1.26-1.95-.19-3.72-.43-4.17-1.08-.01-.02-.21-.05-.31-.08-.37.01-.75.03-1.12.04.24.69-1.71.37-3.19.09-4.86-.88-9.84-1.34-14.69-2.66-2.92-.82-3.11-.69-1.56-1.09.47-.12.8-.29,1.19-.44-2.83-.45-5.98-1.52-8.39-1.36.51.19,1,.39,1.54.54.89.24,2.27.14,2.57.63.13.2-1.35.18-2.29.15-.5-.02-1.39-.25-2.1-.42-.59-.14-1.24-.31-1.56-.22-.43.12.17.39.75.64.93.39,1.09.85,2.6,1.18,1.81.84,3.88,1.5,6.44,1.82,2.99.01,6.35.65,9.75,1.23-.02-.16.16-.32.78-.22,1.08.18.35.33.57.5,1.52-.29,3.1-.72,3.84.64Z"/><path d="m246.79,14.1l.66.36.31.14.31.14c4.28,2.05,4.83,2.45,3.41,1.28-.04-.03-.05-.05-.08-.08-.96-.45-1.71-.87-2.39-1.24-.69-.33-1.28-.65-1.87-.97-1.16-.67-2.39-1.18-4.36-1.85-1.67-.45-3.86-1.12-4.27-1.41-1.25-.18-3.41-.78-4.38-.74,1.15.33-.04.32-.65.21-1.8-.32-.68-.29-.92-.43-.05-.03,0-.04.02-.06-.68-.23-1.63-.33-2.6-.43-.97-.08-1.96-.22-2.74-.31-.98,0-1.83-.05-2.57-.17-.26.19-2.86.18-4.7.22-.88.08-1.53.16-1.59.21-.1.08,1.03-.05,1.39-.04.64.02,1.09.12,1.82.16.61.04,1.95.13,1.61-.06-.04-.02.21-.06.45-.07.36-.03,1.08.03,1.96.09.88.08,1.94.1,2.97.28,1.03.16,2.04.31,2.86.43.81.16,1.42.32,1.65.38,1.58.43,4.06.86,6.06,1.36.82.24,2.01.56,3.01.83.97.25.99.36,1.11.46l-.03.14,1.38.51c-.1-.12-.06-.19.84.09.18.04.33.02.56.12.72.3.7.36.77.45Z"/><path d="m133.22,3.98l-.06-.24c-.63-.45-1.13-.87-1.92-1.27-1.67-.83-4.66-.7-7.02.27-.29.12-.43.29-.8.37-1.36.3-1.4.99,0,1.15q.58.07.87-.4c.14-.22.07-.49,1.11-.58.32-.03.69.19,1.04.3,1.97.01,1.87.51,2.34.88-2.21.42-4.49.56-6.8.58.9-.71-1.37-.7-2.48-.95l-1.13.48-2.32.45c-.04-.05-.05-.1-.04-.16,1.36-.88-.92-1.27-.92-1.96l1.42-.18s.01.08.09.08c1.03.12.9.79,2.13.57,1.81-.31-.27-.66.04-1.04l.81-.51c3.46-.19,6.99-.64,10.39-.55l1.47-.12.09.41-.3.13.4-.11.92-.08c.47.02,1.15.17,1.11-.15l1.48-.26-.2.08-.23-.05c1.05.42,3.59.25,4.34.97.35.34,3.54-.45,5.27-.83.29-.06.47-.16.7-.25.39.26,1.39.65.22.79-3.46.44-2.96,1.49-5.33,2.05-2.29.35-4.52.41-6.67.12Zm-9.98-1.48c-.07-.11-.25-.2-.38-.3-.09.06-.27.13-.26.19,0,.09.12.17.21.29.21-.08.46-.15.44-.18Z"/><path d="m24.7,23.97c1.22-.58,1.24-.86,1.08-1.09l-1.19.45-.88.43c-2.28.88-4.51,1.76-6.68,3.25-.89.61-2.21,1.39-3.4,1.9-1.32.53-3.54,2.08-3.86,2.41-1.74,1.73-3.49,3.34-5.1,5.14-.82.89-1.57,1.85-2.29,2.86-.69,1.03-1.32,2.13-1.82,3.33C-.15,44.44.01,45.74.03,47.28c.08,2,.56,3.97,1.39,5.71.85,1.72,1.91,3.3,3.12,4.68,2.42,2.79,5.28,4.97,8.23,6.91.63.43,1.26.88,1.75.92.43-.51-1.18-1.6-2.64-2.37-1.29-.71-1.97-1.26-2.7-2.1-.56-.12-1.3-.8-1.95-1.37l-.74-.43c-.51-1.57-2.64-3.43-3.75-5.66-.11-.21-.27-.48-.44-.77-.15-.3-.28-.62-.38-.89-.2-.56-.24-.95.23-.78.09.05-.14-.59-.38-1.27-.3-.66-.42-1.42-.55-1.45-.21-.07-.33-.31-.42-.67-.05-.36-.06-.85-.03-1.41-.16-.28-.12-.57.08-.84,0-1.53.4-3.37.92-2.51.15-.37.28-.75.44-1.11.22-1.25.69-2.57,2-3.73.49-1.39,1.04-2.91,3.03-3.44.56-.48,1.12-.98,1.71-1.42.07-.67,1.36-1.47,2.33-2.17,1.43-1.02,1.36-.55,1.6-.41,1.3-1.67,3.17-2.53,5.14-3.06.27-.39.42-.92.84-1.14,1.19-.63.82.11,1.84-.25-.07-.58,2.02-1.1,2.58-1.66l1.42-.62Z"/><path d="m102.37,3.96c-1.1-.2-2.28-.24-3.79.37.94.19,1.85.41.86.95-.78.43-1.49,0-2.36.24-1.26-.47-1.88.01-2.6.46-.83.52-1.67.73-2.36.29-2.09.43-1.68.87-1.99,1.31.39.4,2.11.31,2.98.53,1.46.21,3.32.03,5.06-.41,1.3-.33,2.45-.51,3.73-.6,1.26-.43-.18-.96,2.07-1.3,1.67-.2,1.45.3,1.75.58l1.48-.21c-.14-.28-.38-.55-.39-.84,0-.19.67-.34,1.31-.41.56-.06.99,0,.69.18-.45.26-1.73.59-.33.64.35.01,1.52-.48,2.31-.75.25-.1.36-.29.91-.17l-.93.17c.65.75,2.49.39,4.42-.05.53-.74-2.47-.74-2.32-1.39-3.17.72-3.2.19-3.02-.43-1.28.25-2.39-.05-3.7.29.28.68-1.08,1.39-3.31,1.63-3.08.34.91-.75-.19-.93-.15-.02-.19-.09-.28-.14Z"/><path d="m154.64,85.27l1.22-.09,2.34-.34.86-.09s-.05-.08-.08-.12c-.51-.02-.77-.07-.35-.2.06-.02.27-.05.34-.04.67.03-.02.17-.02.25,1.23-.06,2.13-.26,2.68-.53,1.75-.88,4.68-.57,4.64-.4-.13.55,1.81.31,3.23.27,1.75-.39,3.48-.77,5.26-1.16.77-.18,2.29-.33,1.82-.54-.38-.18-2,.21-2.42.2-1.31-.06-3.22.82-4.01.33-.98.07-2.14.21-2.32-.04-.82.1-1.7.21-2.25.09-1.82.12-3.64.24-5.44.36-1.78.09-3.44.3-5.09.53-1.66.24-3.32.44-5.13.42l.02.35c.89-.06,1.81-.14,2.28.05-.04.2-.06.4-1.42.49l.67.41c1.06-.04,2.12-.13,3.18-.2Z"/><path d="m55.96,13.34c.47-.04.8.04.37.22-3.36,1.41-1.51,1.43.26,1.49l1.33-.4-.18-.55-.19-.03.18.04c1.27-.13,3.8-1.28,3.8-.4,2-.61,4.03-.25,6.16-1.35.31-.15,1.78-.25,1.92.05l2.16-.41c.83-.68,3.5-1.48,2.83-2.08-.03-.03.45-.2.69-.3,1.83.8,2.23-.72,3.53-.77-.02-.06-.03-.13-.04-.19-3.93-.38-4.61.85-5.76,1.79l-.27.11.29-.11c-.76.08-2.13.3-2.18.21-.68-1.34-3.18.17-5.34.75-1.13.31-2.33.66-3.51.95-1.18.32-2.34.55-3.41.51-1.02.1-1-.43-2.7.09l.06.41Z"/><path d="m174.97,2.11l-1.37-.25c-3.38-.24-3.31-.9-2.93-1.6-1.11-.28-1.07.13-1.61.18.97.98-.72,1.77-3.78,1.77.69.51.74,1-.03,1.47.76.53,1.42.2,2.09.04-.44-.12-.55-.29.05-.29.83,0,.68.23.76.38,1.76.75,4.39.37,6.28.4,3.1.04,6.45.71,9.42.32v-.3s-2.14-.25-2.14-.25c-.7.33-1.3.1-1.9-.12l-2.54-.59c-.2.28-.37.54-1.75.45-.93-.06-1.45-.28-1.89-.51-1.02-.55.41-.79,1.34-1.1Z"/><path d="m170.15,82.82c.79.49,2.7-.4,4.01-.33.42.01,2.04-.38,2.42-.2.47.21-1.05.36-1.82.54-1.77.39-3.51.77-5.26,1.16l.67.17.87-.09c2.35-.67,5.41-.87,8.09-1.36.62-.24.44-.37.1-.51-.59-.23.22-.48,1.95-.71v-.14c.01-.19.51-.36,1.57-.49.22-.04.43-.07.63-.12-.23-.09-1.23-.08.02-.39l-.08-.13c-2.11.31-4.23.53-6.34.78-1.06.13-2.11.27-3.17.42-1.06.13-2.12.28-3.17.45.72.24,2.02.42-.46.95Z"/><path d="m108.85,86.21c.89.03.77.73,2.38.25,1.2-.35,2.3.24,3.48.14.36-.65,1.95-.45,3.62-.19,1.42.23,2.6.15,3.67-.05,1.12-.21,1.61-.46.44-.78-1.58-.06-3.02-.33-4.72-.22-5.28.26-5.87.25-10.07-.5-.1-.02-.3-.05-.33-.04-2.19.52-5.4-.57-7.63-.18.19.33.19.66,1.66.93.07-.22.42-.22,1.43-.13,2.14.2,4.14.45,6.05.77Z"/><path d="m170.15,82.82c2.48-.53,1.18-.71.46-.95-1.67.02-2.8-.11-5.12.52-1.68.44-5.12.48-7.85.68-1.84.15-3.72.33-5.61.46-1.89.11-3.79.18-5.66.17-1.63,0-2.72.03-2.52.46.19.42,1.51.37,2.99.2l3.07-.18c1.81.03,3.48-.18,5.13-.42,1.66-.23,3.31-.45,5.09-.53,1.8-.12,3.63-.24,5.44-.36.43-.11.91-.28,1.28-.31.83-.07.92.08.96.22.18.25,1.33.11,2.32.04Z"/><path d="m73.03,10.43c1.16-.94,1.83-2.17,5.76-1.79l2.93-.81c.76-.29,1.56-.59,1.3-.86-1.49-.24-3.25.48-4.78.77-2.93.51-5.82,1.2-8.73,1.82-2.9.66-5.83,1.26-8.68,2.18-1.52.5-1.69.74-2.23,1.12,1.07.03,2.24-.19,3.41-.51,1.18-.29,2.39-.64,3.51-.95,2.16-.58,4.66-2.09,5.34-.75.05.1,1.42-.13,2.16-.21Z"/><path d="m58.53,77.66c-.39.15-.72.32-1.19.44-1.56.4-1.36.28,1.56,1.09,4.86,1.32,9.83,1.79,14.69,2.66,1.48.28,3.43.6,3.19-.09-2.69-1.05-5.71-1.41-9.09-1.6-2.18-.13-3.78-.58-3.25-1.2-2.2-.07-3.88-.95-5.91-1.29Z"/><path d="m99.7,84.64c2.23-.39,5.44.7,7.63.18.03,0,.23.02.33.04,4.19.75,4.78.76,10.07.5,1.7-.1,3.14.16,4.72.22-.66-.56-1.38-1.11-3.96-1.43l-1.91.29c-.71.33-1.79.25-3.31.13-1.85-.15-4.11-.18-5.71-.33-3.23-.28-6.16.16-9.22-.47l.76.8c.21.02.41.04.61.07Z"/><path d="m137.73,84.64c-.96.5-1.74,1.02,2.16.95,1.26-.03.47.21.38.34-1.92.39-4.05.24-5.42.05-3.49-.47-4.28,0-5.03.58l-.72.03c-2.3-.29-6.06-.44-2.48-1.29.65-.15.63-.44.92-.66,1.97,0,3.94-.01,5.9-.03,1.27,0,2.23-.04,2.35-.36l2.19.02c-.08.13-.05.26-.27.38Zm-6.27.55c-.08-.01-.21-.01-.39.05.11,0,.22.01.39-.05Z"/><path d="m240.45,9.53c.95.9,5.01.83,4.79,1.74-.11.45-1.79.65-2.57,1.05-.82.42-3.79-.09-6.11-.69-1.04-.27-2.01-.69-3.05-.94-1-.26-2.19-.82-3.01-.61-.87.23,1.98.57,1.37.92,3.29,1.44,7.74,1.55,11.14,3.02,1.07.47.97-.24,1.9-.12.94-.06-2.91-1.28.37-.78,1.25-.49,4.16-.09,3.97-1.14-.65-.23-1.52-.46-1.92-.7-1-.6-.71-1.7-3.73-1.27-.01,0-.25-.12-.56-.26-.31-.15-.69-.32-.99-.42-1.77-.58-3.51-.87-5.1-.84.33.99,2.53.54,3.49,1.05Z"/><path d="m249.33,14.8c.87.27,1.48.56,1.87.93.49.46,1.25.95,2.12,1.29.87.33,1.84.55,2.75.56,1.62.02,3.17-.24,3.53-.86.67-1.15-1.13-2.08-5.47-3.01-1.06-.22-2.28-.89-3.43-1.35-1.44.2-1.08.89.23,1.63,1.32.74,2.69.82,3.83.63.42-.07,2.2.12,1.91.58-.25.4.63,1.03-.11,1.29-.45.16-.73.44-1.9.2-1.21-.25-1.66-.65-1.72-1-.06-.36-.17-.67-1.51-.99-1.3-.31-2.01-.28-2.11.12Z"/><path d="m98.33,83.78c3.06.63,5.99.19,9.22.47,1.6.15,3.86.18,5.71.33,1.52.12,2.6.2,3.31-.13-2.58-.98-6.48-.61-9.7-.87-4.79-.33-9.72-.29-14.32-1.29l-.41.2c.67.34,3.07.88-.65.65-1.22-.08-1.93.16.15.46,2.22.08,3.89-.51,6.68.19Z"/><path d="m51.75,17.38c-.21-.58-1.26-.67-3.29.4-1.49.79-2.54,1.02-3.91,1.1-1.4.09-3.39,1.45-4.81,1.26-2.89,1.49-6.35,2.17-9.45,3.48-1.05.45-1.64.73-2.03,1.15,3.05-.67,6.14-1.82,9.52-3.01,2.16-.75,4.37-1.49,6.82-2.03,2.14-.44,4.71-1.66,7.15-2.34Z"/><path d="m195.84,5.32l-1.61-.18-2.33-.82c-.34-.04-.68-.08-1.02-.12l-3.35.22c.93.62,2.38.85,3.93,1.07,1.55.21,3.22.31,4.61.47,2.76.32,5.54.56,8.33.77,2.78.3,5.57.6,8.35.9l1.51-.02c-2.38-1.11-5.07-1.6-8.06-1.35-2.39-.12-4.94.07-6.18-1.12l-1.08-.09-.77-.03c0,.16.02.23.04.31l.22.18-.52-.13-2.08-.06Z"/><path d="m196.88,78.06c2.1-.38,4.21-.69,6.28-1.3,1.66-.37,3.25-.74,4.53-.83,1.11-.28,1.67-.43,2.23-.57,2.65-.65,5.16-1.53,7.99-2.18,1.48-.33,2.14-.91,2.5-1.26-7.85,2.36-15.83,4.25-23.86,5.98l.34.16Z"/><path d="m140.28,85.92c-1.92.39-4.05.24-5.42.05-3.49-.47-4.28,0-5.03.58,2.87.07,5.75.1,8.63.07,2.87-.09,5.75-.21,8.6-.61,1.38-.19,2.26.09,3.39-.02,1.55-.14,3.95-.14,4.2-.72-1.06.07-2.12.16-3.18.2l-5.22.17c-1.99.12-3.98.18-5.96.28Z"/><path d="m249.72,59.1c.03.17.55.05-1.46,1.38-1.26.82-2.34,1.52-1.98,1.61,2.69-1.55,5.26-3.32,7.67-5.37,2.41-2.05,4.63-4.41,6.4-7.17l-.12-.04-.21.12c-.07.1-.14.2-.22.31-.3.45-.6.91-.87,1.26-.28.34-.55.58-.73.63-.12.15-.25.3-.38.45-.51.56-1.03,1.12-1.6,1.62-.12.36-.62.97-1.6,1.71-1.02.87-1.92,1.98-3.02,2.55-.36.2.06-.26.55-.7v-.1s-.7.3-.7.3c-1.16.66-1.07.97-1.74,1.44Z"/><path d="m129.11,86.59c-2.3-.29-6.06-.44-2.48-1.29.65-.15.63-.44.92-.66-1.09-.05-.73-.23-.79-.37l-1.46.03c.45.36-1.44.5-1.49.81l.98.08c-.07.02-.21.06-.21.06-.27-.05-.53-.09-.79-.13-1.29-.25-.49-.55-.76-.83-1.47-.45-2.97-.55-4.53-.13,2.58.33,3.3.88,3.96,1.43,1.17.32.68.57-.44.78-1.08.2-2.25.28-3.67.05-1.67-.26-3.27-.46-3.62.19,1.89.13,3.81.09,5.71.1,1.91.01,3.81.04,5.68.17,1.48.11,2.25-.07,3.01-.29Z"/><path d="m91.65,83.59c-2.08-.3-1.36-.54-.15-.46,3.72.23,1.31-.31.65-.65-.67.28-1.8-.08-2.7-.12.08.24-.64.49-1.17.34-2.66-.74-4.65-.23-7-.58-1.29.14-1.33-.12-1.4-.36-1.23-.45-1.58-.24-1.98-.06.11.03.3.06.32.08.45.65,2.22.9,4.17,1.08,2.67.24,4.47,1.12,7.26,1.26.07,0,.32.34.48.53l2.88.6,1.53.34.22-.48c-3.29-.4-3.43-.96-3.1-1.54Z"/><path d="m51.65,78.79c-1.51-.32-1.68-.78-2.6-1.18-.59-.25-1.18-.51-.75-.64.33-.09.97.08,1.56.22.71.17,1.6.41,2.1.42.94.03,2.42.05,2.29-.15-.3-.49-1.68-.39-2.57-.63-.54-.14-1.03-.35-1.54-.54-.61-.46-1.3-.33-1.96-.47-1.12-.12-2.33-.23-2.1.17.94,1.51-2.45.66-5.5-.15.29.36,1.9.72,1.93,1.08,1.28.24,2.48.61,3.68.99,1.21.36,2.42.74,3.69,1.03,1.83.39,1.5.03,1.76-.15Z"/><path d="m81.28,82.13c2.35.35,4.34-.16,7,.58.54.14,1.25-.11,1.17-.34-4.71-.53-9.4-1.05-14.11-1.58-2.36-.29-4.81-.76-7.11-1.27-1.39-.3-2.54-.44-3.78-.56-.54.63,1.07,1.07,3.25,1.2,3.38.2,6.4.56,9.09,1.6.38-.01.75-.03,1.12-.04.4-.18.74-.39,1.98.06l1.4.36Z"/><path d="m140.28,85.92c1.99-.09,3.98-.16,5.96-.28l.04-.32c-.81.04-1.53.02-1.41-.18.12-.19.94-.23,1.68-.28.27-.17.28-.33.29-.5-1.47.16-2.8.21-2.99-.2-1.9-.12-3.86-.06-5.86.09-.08.13-.05.26-.27.38-.96.5-1.74,1.02,2.16.95,1.26-.03.47.21.38.34Z"/><path d="m81.71,7.83l-2.93.81.03.2.18.05-.17-.05c-1.3.05-1.7,1.57-3.53.77-.24.1-.72.28-.69.3.67.6-2,1.4-2.83,2.08.2.19.85,0,1.43-.12.7-.49,1.94-.67,3.03-.93.83-.03,1.17-.92,1.72-.45.58.5,1.84-.13,2.61-.13,1.21-.63,1.84-.52,2.34-.24.78-.06,1.76.16,2.14-.47l.27-.37c-.92.03-1.43-.21-2.69.04-.89.03-.6-.26-.71-.44-4,.38.39-.79-.2-1.04Z"/><path d="m258.05,50.56c.86-.91,1.86-2,2.62-2.95.41-.47.88-1.08,1.25-1.81.4-.72.82-1.49,1.08-2.32.3-.81.57-1.62.68-2.37.13-.75.26-1.39.21-1.9-.37,1.79-1.02,3.72-.93,2.4-1.13,3.29-3.01,6.23-4.9,8.95Z"/><path d="m81.92,8.88c-4,.38.39-.79-.2-1.04.76-.29,1.56-.59,1.3-.86,2.24-.48,4.53-1.49,6.69-1.11.11.02.15.06.12.11-2.86,1.15-2.94,2.07-2.62,2.94l-1.88.37c-.92.03-1.43-.21-2.69.04.04-.22.03-.43-.71-.44Zm2.23-1.08c-.49,0-.91.25-.74.33.34.17-1.08.89,1.18.46,1.11-.31.99-.44.14-.46-.18-.12-.2-.32-.58-.33Z"/><path d="m30.84,20.98c.67-.23,1.34-.09,1.98-.67,1.43-1.28,1.8-.74,2.44-.67.52-.12,1.21-.18,1.54-.33,1.29-.57,2.5-1.19,3.64-1.03.94.14-.13.71-.86,1.23-1.29.93-2.48,1.05-3.76,1.13-.8.05-2.04.41-2.58.78-1.82,1.28-2.9,1.12-4.2,1.33.59-.59,1.19-1.19,1.79-1.79Zm8.2-2.03s-.25.11-.25.13c-.02.06.04.09.07.14l.53-.25c-.11,0-.22-.02-.35-.02Z"/><path d="m237.4,66.78c-1.36.7-2.82,1.26-4.21,1.9-1.41.58-2.75,1.22-3.98,1.86-.62.33-1.56.57-2.23.75-1.21.32-1.98.63-2.56,1.02,2.55-.5,5.43-1.75,8.1-2.95,3.45-1.55,6.84-2.74,10.1-4.8.47-.31,1.06-.65,1.23-.86-.78.21-1.95.8-3.24,1.62-1.53,1.02-2.39,1.24-3.23,1.45Z"/><path d="m249.33,14.8c.09-.4.81-.44,2.11-.12,1.34.32,1.45.63,1.51.99.06.35.51.75,1.72,1,1.17.24,1.45-.04,1.9-.2.74-.25-.14-.89.11-1.29.28-.45-1.5-.65-1.91-.58-1.13.19-2.5.12-3.83-.63-1.31-.73-1.67-1.42-.23-1.63-.44-.28-.91-.48-1.45-.38.19,1.06-2.71.66-3.97,1.14.72.36,1.37.74,1.34,1.09l2.71.6Z"/><path d="m18.01,27.64c-1.97.53-3.84,1.39-5.14,3.06-.33.56-1.25,1.33-2.07,2.1-.82.77-1.53,1.57-1.53,2.05l.62.33c1.09-.65,1.98-1.37,2.68-2.19.07-.19-.42-.06.17-.56l.4.16c.2-.09.4-.21.6-.36,1.22-.87,1.59-1.43,1.93-1.99.34-.56.65-1.11,1.85-1.88.52-.37.6-.58.5-.72Z"/><path d="m170.17,84.16l-.67-.17c-1.42.03-3.36.28-3.23-.27.04-.17-2.89-.48-4.64.4-.55.27-1.45.46-2.68.53.06.03.09.07.11.11l-.02.45c3.68-.17,7.35-.17,11.13-1.04Z"/><path d="m204.99,78.16c.21-.38-1.4-.1-2.7.14-2.82.48-6.09.98-8.51,1.64-1.67.45-2.82.68-4.48.98-1,.18-.41.32-.47.47,1.78-.28,3.53-.56,5.31-.85,1.77-.31,3.55-.73,5.38-1.21,1.58-.41,3.63-.76,5.46-1.17Z"/><path d="m57.92,14.65l-1.33.4c-.64.46-1.56.97-1.29,1.3,3.67-.67,7.38-2.29,11.21-2.49,1.54-.11,1.81-.98,3.11-1.47-.14-.3-1.61-.21-1.92-.05-2.13,1.09-4.16.73-6.16,1.35-1.01,1.49-2.44.47-3.62.95Z"/><path d="m2.2,41.87c-.16.36-.29.74-.44,1.11.22.85.16.77.71-.31.22-.49.65-1.06.79-1.11.27-.09.15.33,0,.81-.13.49-.31,1.06-.21,1.25.29-.43.57-.86.91-1.24.36-.68.76-1.34,1.23-1.95.66-1.44,1.54-2.83,2.55-4.15-1.41.96-2.07,1.52-2.17,1.31-.08-.2.39-1.18,1.67-2.88-1.99.52-2.54,2.05-3.03,3.44-.4.57-.44,1.18-.64,1.76-.18.61-.49,1.18-1.36,1.97Z"/><path d="m40.58,75.84c3.04.8,6.44,1.66,5.5.15-.24-.39.97-.29,2.1-.17-.18-.69-1.84-.58-2.73-.92-.8.38-1.43.96-4.73-.54-.54-.25-1.47-.48-1.77-.33-.32.16.37.44,1.11.69l.33.06-.3-.04.5,1.1Z"/><path d="m89.7,5.86c.11.02.15.06.12.12.38.26,2.66-.26,2.31.3.68.45,1.53.23,2.36-.29.72-.45,1.34-.94,2.6-.46.87-.25,1.58.18,2.36-.24,1-.54.08-.76-.86-.95-3.02.38-6.33.27-8.88,1.53Z"/><path d="m134.69,1.12c1.05.42,3.59.25,4.34.97.35.34,3.54-.45,5.27-.83.29-.06.47-.16.7-.25V.42c-2.71-.34-5.2.52-7.87.4l-1.96.16c-.26.02-.42.07-.48.14Z"/><path d="m248.67,58.92c.52-.16,2.18-1.17,3.87-2.41.81-.65,1.69-1.3,2.38-1.96.69-.66,1.28-1.25,1.65-1.65,1.33-1.69.26-.81.42-1.24-.82,1.07-1.77,2.06-2.78,2.85-.23.16-.97.75-1,.79-.54.69-1.27,1.34-2.1,1.91-.81.59-1.65,1.16-2.43,1.71Z"/><path d="m240.45,9.53c-.96-.5-3.16-.06-3.49-1.05-.97-.61-2.06-.61-3.13-.68-1.87.27-4.57-.53-6.69-.57.35.44.21.87,2.47.89,1.37.03,3.28.39,4.93.73l.96-.08.26.19-1.18-.09c1.32.45-3.12.9,1.97,1.34.25-.3-.31-.91,1.67-.55.46-.21,2.22.33,2.22-.14Z"/><path d="m206.39,77.48c-.03.07.25.08-.38.25,4.45-.99,9.21-1.9,12.78-3.77l-.14-.11-2.85.86c-3.11.98-6.23,1.91-9.4,2.76Z"/><path d="m227.14,7.24c2.11.04,4.82.84,6.69.57-.09-.78-1.84-.48-2.67-.7-3.17-.8-6.53-1.2-9.8-1.59.46,1.33,3.75,1.2,5.78,1.72Z"/><path d="m173.59,1.21c2.34.09,5,0,6.52.94.58.36,1.45.24,1.61-.08.12-.23-.05-.51.95-.58.36-.65-1.62-.58-2.66-.68-1.17-.11-2.35-.2-3.54-.28l-3.56-.12c.18.27-.43.57.68.8Z"/><path d="m161.56,3.11c-1.63-.19-3.32-.38-4.49.19-.76.37-1.2.15-1.88,0-2.27-.52-4.52-.54-6.63.09,2.12.57,4.75.46,7.31.4,1.89-.05,3.77-.14,5.65-.22l.03-.46Z"/><path d="m18.67,64.32c-.62.07-2.32-.18,1.11,1.31,1.79.75,2.44,1.44,3.21,2.16.39.36-.1.63,1.39,1.12,1.21.37,1.07-.04.97-.4-.1-.34-.1-.64-.15-.95-2.23-1-4.41-2.07-6.54-3.24Z"/><path d="m109.85,3.11c-.18.62-.15,1.16,3.02.43l2.21-.64,1.42-.18c.59-.27,1.43-.35,2.25-.38l.81-.51c.03-.41-.96-.23-1.75-.11-2.66.46-5.31.93-7.97,1.39Z"/><path d="m3.95,42.38c-.34.39-.61.81-.91,1.24-.28.98-.31,2.02-.34,3,0,.98.05,1.9-.13,2.83-.03.24.11.66.25,1.01.14.35.37.59.37.54.13-.4,1.26,2.07.82.17-.36-.68-.5-1.43-.67-2.17-.06-.76-.14-1.51-.07-2.26.08-1.5.46-2.9.67-4.36Z"/><path d="m110.8,5c-.79.26-1.96.76-2.31.75-1.4-.06-.12-.39.33-.64.3-.17-.13-.24-.69-.18-.64.07-1.32.22-1.31.41.01.29.25.56.39.84,2.75.27,5.78-.2,8.8-.62l.05-.52c-.04-.05-.05-.1-.04-.16l-.81.07c-1.93.44-3.76.8-4.4.06Z"/><path d="m17.51,28.36c-1.19.77-1.51,1.32-1.85,1.88-.34.56-.7,1.12-1.93,1.99,1.56-.44,3.06-.89,4.47-2.54.13-.23.15-.51.43-.67,4.24-2.5.88-1.15-.3-.87-.04.18.16.27-.62.68v-.37c-.07-.03-.13-.07-.19-.1Z"/><path d="m32.53,73.48c-.5-.55-1.56-1.38-2.91-1.53-2.63-.22-6.4-3.01-8.39-2.73,3.71,1.85,7.5,3.2,11.3,4.26Z"/><path d="m93,85.27l-2.88-.6-1.51-.29c-.04.44-1.29.29-2.52.13-2.82-.72-5.51-.96-8.11-.77.22.22.98.51,1.51.51,4.39.08,9.21,1.27,13.5,1.02Z"/><path d="m226.65,10.26c-.01-.74-.42-1.35-3.34-1.23-2.17.09-4.65-1.4-6.8-.92.73.35,1.51.6,2.33.81.81.23,1.66.41,2.53.56,1.74.3,3.55.48,5.28.78Z"/><path d="m187.82,79.66c1.06.26,3.05.2,5.23.07-.5-.36.54-.89,1.93-1.49-1.52.07-2.83.47-4.18.81-.68.47-1.92.46-2.97.61Z"/><path d="m195.22,2.22c2.53,1.13,7.95,1.55,11.31,1.04-3.16-.81-6.45-.71-9.68-1.04-.12.42-.9.19-1.63,0Z"/><path d="m45.32,17.01c.83-.29,1.37-.56,1.28-.8l-.96.16-.27-.14.7-.15.63.06c.86-.27,1.23-.53,1.23-.77-2.64.75-5.11.86-7.9,2.14.48.6,2.94-.11,4.64-.32l.64-.18Z"/><path d="m67.83,81.84c-3.4-.58-6.76-1.22-9.75-1.23,1.07.54,2.12.88,3.88.88,2.23-.02,4.85.84,7.27,1.05l-.07-.42c-.43-.09-.88-.18-1.33-.28Z"/><path d="m165.27,2.21c3.07,0,4.75-.8,3.78-1.77l-3.01-.11c.45.48-1.78.63-1.35,1.1.87.24.5.52.58.78Z"/><path d="m7.73,36.28c-1.01,1.32-1.89,2.71-2.55,4.15,1.57-1.81,3.39-3.27,4.72-5.24l-.62-.33c-.52.47-1.05.93-1.54,1.42Z"/><path d="m87.2,8.91l-1.88.37-.27.37c2.76-.38,5.6-.6,8.07-1.53-.88-.22-2.59-.13-2.98-.53-.52.15-.95.32-1.39.46-.07.3-.09.6-1.54.86Z"/><path d="m161.56,3.11l-.03.46,3.71.11c.77-.46.73-.96.03-1.47-1.81-.1-1.38-.47-1.41-.79-.28-.17-.69-.33-1.4-.28-.83.07-.34.28-.19.43.56.57,1.62,1.15-.71,1.53Z"/><path d="m55.96,13.34l-.06-.41c-2.48.63-5.35.79-7.21,2.19.47.25.14,1.14,2.66-.35,1.1-.65,3.31-.67,4.61-1.43Z"/><path d="m94.75,85.13l-.22.48c2.87.56,5.52.42,8.21.4l-1.38-.44c-1.48-.27-1.48-.6-1.66-.93-.2-.03-.4-.05-.61-.07-.06.67-.55,1.2-4.34.56Z"/><path d="m127.55,84.63c1.97,0,3.94-.01,5.9-.03,1.27,0,2.23-.04,2.35-.36-2.63-.37-5.54.06-8.28-.1,0,.16-.01.32.02.49Z"/><path d="m101.37,85.57l1.38.44c2.12.34,4.32.88,6.11.2-1.91-.32-3.91-.58-6.05-.77-1.01-.09-1.37-.1-1.43.13Z"/><path d="m102.37,3.96c.09.05.12.12.28.14,1.1.17-2.89,1.27.19.93,2.22-.24,3.59-.94,3.31-1.63-1.32.04-2.76-.15-3.77.56Z"/><path d="m237.4,66.78c.83-.21,1.69-.43,3.23-1.45,1.29-.82,2.46-1.41,3.24-1.62.45-.29,1.05-.62,1.17-.8-.43.13-.87.25-1.3.38l-1.54.85-1.54.82c-1.02.57-2.05,1.1-3.1,1.61l-.16.22Z"/><path d="m262.95,41.61c-.09,1.32.56-.61.93-2.4.13-.66.21-1.21.26-1.66.03-.45-.03-.81-.06-1.1l-.21.02c-.02,1.71-.36,3.41-.92,5.13Z"/><path d="m179.13,82.71c-2.67.49-5.74.69-8.09,1.36,2.75.04,5.41-.73,8.11-1.09l-.02-.27Z"/><path d="m9.55,58.14c-.35.67.29,1.29,1.17,1.87.89.57,2.03,1.09,2.75,1.62.07-.31.68-.3-1.17-1.42-.94-.55-1.87-1.34-2.76-2.07Z"/><path d="m105.72,6.38c-.3-.28-.08-.77-1.75-.58-2.25.35-.81.87-2.07,1.3,1.86.28,2.55-.52,3.82-.73Z"/><path d="m187.53,4.41l3.35-.22c-2.08-.23-2.18-.7-2.44-1.17-.15-.27-.63-.51-1.63-.57-.37-.02-.97.04-1.09.13-.35.24.46.36,1.09.51,2.28.53-1.91.71.06,1.24.21.04.43.07.66.09Z"/><path d="m264.84,37.9c-.1.75-.28,1.64-.58,2.44-.3.8-.48,1.58-.47,2.21.27-.25.38-.39.53-.97.15-.58.41-1.6.52-3.68Z"/><path d="m126.44,3.58c1.97.01,1.87.51,2.34.88,1.53-.08,3.23.07,4.44-.49l-.06-.24c-1.11-.06-3.02.31-3.23-.09-.45-.86-2-.37-3.5-.07Z"/><path d="m121.97,5.05c.9-.71-1.37-.7-2.48-.95l-1.13.48-.84.92c1.53-.06,2.84-.61,4.44-.45Z"/><path d="m33.26,71.33l.18-.51c-1.26-.59-2.49-1.24-3.98-1.61-.09.28-.73.44,1.23,1.15,1.47.54,2.09.92,1.91,1.27.69.1.56-.15.67-.3Z"/><path d="m194.98,78.24c-1.39.6-2.43,1.13-1.93,1.49,1.46-.54,3.6-1.19,3.83-1.67l-.34-.16-1.57.34Z"/><path d="m173.59,1.21c-1.11-.23-.5-.53-.68-.8l-2.24-.15c-.38.7-.45,1.36,2.93,1.6v-.65Z"/><path d="m69.16,82.12l.07.42c1.44.25,2.69.31,3.78.22-.74-1.37-2.32-.93-3.85-.65Z"/><path d="m232.94,67.37c.02.07-.08.19.07.19.45,0-1.39,1.15.73.23,1.88-.82.14-.38.35-.65.06-.08.67-.37,1.03-.56-.51.08-.97.13-2.18.78Z"/><path d="m187.82,79.66c1.05-.15,2.29-.13,2.97-.61l-1.62.22c-.6.12-1.13.2-1.43.14l-2.97.59.65.04,2.4-.38Z"/><path d="m232.59,9.44s-.06.03-.02.06c.24.14-.88.11.92.43.61.11,1.81.12.65-.21l-1.56-.28Z"/><path d="m123.8,85.11c.05-.31,1.94-.45,1.49-.81-.76,0-1.52,0-2.28-.01.27.28-.53.58.79.82Z"/><path d="m246.62,14.2c.03-.35-.61-.73-1.34-1.09-3.27-.5.57.72-.36.79.12.09.31.15.55.18.32.07.65.12.97.2.2.03.27,0,.19-.07Z"/><path d="m133.64,1.36l1.48-.26c-.68-.41-2.5-.24-3.64-.34l-.06.4.09.41c.41,0,.71-.03,1.02-.06.1-.24.61-.19,1.11-.15Z"/><path d="m42.51,76.92c-.03-.36-1.63-.72-2.03-1.08l-1.19-.19.85.52c.73.33,1.52.6,2.37.75Z"/><path d="m82.91,10.12c-.5-.28-1.13-.39-2.34.24.65.08,1,.56,2.34-.24Z"/><path d="m158.2,84.84l-2.34.34c-.08.41,1.22.21,2.37.08l-.03-.41Z"/><path d="m76.24,10.94c-1.08.26-2.33.45-3.03.93,1.65.05,2.43-.39,3.03-.93Z"/><path d="m224.68,8.54c.74.12,1.6.18,2.57.17-.82-.07-1.3-.34-2.57-.17Z"/><path d="m185.43,80.03l-.65-.04-1.47.23.08.13c.69.04,1.37-.04,2.04-.31Z"/><path d="m143.53,3.42s.01-.07.1-.11c-.11.03-.22.05-.34.06-.06.15-.13.3-.2.45l.44-.41Z"/><path d="m187.75,79.41c.3.06.82-.02,1.43-.14-.02-.22-.51-.17-1.43.14Z"/><path d="m168.15,3.81c-.08-.16.07-.39-.76-.38-.6,0-.5.17-.05.29l.82.09Z"/><path d="m131.42,1.17l.06-.4c-.77.12-1.29.29-1.53.52l1.47-.12Z"/><path d="m135.17.98l1.96-.16c-.84-.23-1.5-.18-1.96.16Z"/><path d="m127.51,84.63l.02-.48c-.49-.03-.75,0-.78.12.07.14-.3.32.76.37Z"/><path d="m13.14,32.59l-.4-.16c-.6.5-.1.37-.17.56.21-.11.4-.25.57-.4Z"/><path d="m195.22,2.22c.73.18,1.51.41,1.63,0-.67-.13-1.34-.25-1.63,0Z"/><path d="m246.43,14.28c-.32-.08-.64-.13-.97-.2l.52.38.44-.19Z"/><path d="m237.56,66.56c1.05-.5,2.08-1.04,3.1-1.61l1.54-.82,1.54-.85c.7-.41.98-.64.99-.76l-.06-.31c-1.12.62-1.53.76-1.22.39.15-.17.36-.4-.38,0-.22.12-.55.33-.83.51-.28.18-.5.33-.49.34.34.29-2.65,1.93-3.75,2.7-.22.16-.3.27-.44.41Z"/><path d="m264.02,29.92c-.39-1.57-1-3.1-1.94-4.37.38.56.47.93.54,1.12.06.2.04.25,0,.28-.07.06-.18.03.19.89.22.45.35.93.48,1.41l.4,1.43c.06-.4-.3-1.98.32-.76Z"/><path d="m207.69,75.93c-1.28.09-2.87.45-4.53.83.08.12-.11.34.31.35.57,0-1.57.71.42.27,1.38-.3,1.06-.44.88-.56-.09-.06-.15-.3.8-.27,1.74.04,1.25-.48,2.12-.61Z"/><path d="m256.22,53.91c.57-.5,1.09-1.06,1.6-1.62.12-.29,1.32-1.82.11-.59-.64.64-1.02,1.11-1.27,1.46-.26.33-.37.57-.44.76Z"/><path d="m252.16,57.46c-.49.44-.9.9-.55.7,1.09-.58,1.99-1.69,3.02-2.55-.27-.13-1.5,1.13-2.47,1.85Z"/><path d="m215.79,74.72l2.85-.86c-.22-.15-1.14.03-2.27.4-.88.28-.54.34-.58.46Z"/><path d="m183.37,80.74c-.2.05-.41.08-.63.12l-.05.26c.89-.16,1.99-.28,2.36-.57l-1.68.19Z"/><path d="m258.21,51.83c.18-.05.44-.29.73-.63.27-.36.57-.81.87-1.26l-.19-.04c-.46.66-.89,1.34-1.4,1.94Z"/><path d="m246.69,60.48c-.15.07-.28.14-.42.21l-.31.3c.17-.09.37-.19.5-.28.12-.08.16-.15.24-.23Z"/><path d="m209.92,75.36l-1.68.43c.23,0,.41.08.7.02.82-.19.78-.31.98-.45Z"/><path d="m251.46,57.67l.69-.3c.81-.81.09-.28-.69.3Z"/><path d="m259.61,49.89c.23-.34.61-.81.54-.85-.02,0-.22.21-.3.33-.41.56-.24.44-.23.52Z"/><path d="m244.66,62.22l.06.31c.78-.58.79-.71-.06-.31Z"/><path d="m226.1,70.59s.14,0,.24-.03c-.03-.04-.14,0-.24.03Z"/><path d="m181.19,81.36v.14s1.49-.38,1.49-.38c-.49.08-.99.16-1.49.24Z"/><path d="m249.71,59.12l-.16.07c.06-.03.12-.05.16-.07Z"/><path d="m260.02,49.62l.21-.12c.35-.56.24-.47-.21.12Z"/><path d="m174.97,2.11c-.93.31-2.35.55-1.34,1.1.43.23.96.45,1.89.51,1.38.09,1.55-.17,1.75-.45-.7-.38-1.04-.75-.41-1.09.29-.16.23-.34-.58-.42-.98-.06-1.15.15-1.31.35Z"/><path d="m238.23,9.67c-1.98-.36-1.42.25-1.67.55.72.2,1.77.26,1.78.71,0,.23.65.64,1.31.7.68.07,1.34-.07,1.63-.24.47-.28-.84-.38-1.22-.57-.74-.37-1.24-.77-1.83-1.16Z"/><path d="m200.03,5.13c1.24,1.19,3.79,1,6.18,1.12-1.65-.84-3.6-1.25-6.18-1.12Z"/><path d="m198.18,5.01l.77.03c.14-.05.22-.12.41-.13,1.46-.11,2.44-.31,1.02-.93-.37-.16-1.42-.4-1.26-.17.37.54-4.35.26-.94,1.21Z"/><path d="m181.71,3.99l2.14.25c.04-.29,1.87-.57-.03-.85-1.41-.2-2.42.09-2.11.6Z"/><path d="m191.9,4.32l2.33.82c-.03-.26,1.28-.39.2-.72-.85-.27-1.81-.25-2.54-.1Z"/><path d="m233.49,9.8c-.41-.19-.65-.33-.9-.37-.27-.05-.55,0-.83,0,.21.11.4.25.65.31.26.06.58.02,1.08.06Z"/><path d="m195.84,5.32l2.08.06c.1-.02.2-.04.31-.06l-.07-.22c-.93-.01-2.29-.25-2.31.22Z"/><path d="m179.81,3.86c.6.22,1.2.46,1.85.13l-1.85-.13Z"/><path d="m228.84,10.08c-.2-.09-.31-.08-.42-.06.07.03.14.07.42.06Z"/><path d="m7.23,59.66c.65.58,1.38,1.26,1.95,1.37.65-.2,2.44,1.69,3.51,1.93.39.1,1.15,1.31,1.87,1.24.43-.04-.53-.88-1.05-1.49-.54-.61-1.03-.97-2.02-1.45-.64-.28-1.29-.65-1.85-1.12-.58-.44-1.03-1-1.27-1.64-.31-.74-1.38-1.49-2.02-1.96-1.03-.9-.5.08-.05.76.67,1.11,1.43,2.17.93,2.35Z"/><path d="m33.26,71.33c-.11.15.02.4-.67.3-.24.17-1.98-.43-1.24.19.26.22.91.58,1.36.73,1.54.49.64-.19,1.04-.26.22-.04.4-.1.71-.09.6.04,2.22.46,1.7.04-.61-.47-1.87-.49-2.89-.9Z"/><path d="m27.91,70.1c-.14-.09-.26-.18-.39-.27h-.47c.17.08.36.21.51.26.13.04.23,0,.35,0Z"/><path d="m.77,46.33l.07-.82c-.02.27-.05.55-.07.82Z"/><path d="m243.28,12.8c-.13-.1-.14-.2-1.11-.46.12.08.56.25,1.11.46Z"/><path d="m24.7,23.97l-1.42.62c.08.23.56.42.17.7-.68.51-1.31.93-.92,1.09.19.08.57-.17.71-.31.49-.52,2.55-1.35,1.79-1.6-.25-.09-.22-.32-.32-.48Z"/><path d="m29.05,22.77c-.5.02-.64-.24-1.65.16-.14.06-.43.34-.37.38.32.21,1.25-.26,2.02-.54Z"/><path d="m45.32,17.01l-.64.18c.05.14-.04.35.79.11l-.16-.29Z"/><path d="m17.7,28.46v.37c.78-.41.58-.51.63-.68l-.63.32Z"/><path d="m20.7,26.25l.35.11c.59-.45-.1-.16-.35-.11Z"/><path d="m262.82,27.84c-.37-.86-.26-.83-.19-.89.03-.03.05-.08,0-.28-.07-.19-.16-.56-.54-1.12-.53-.83-.93-1.4-1.29-1.77-.8-.76-1.72-1.68-.61-.03.23.31.4.61.54.88.15.26.29.49.41.69.25.4.47.69.67.93.35.52.63.87,1.02,1.58Z"/><path d="m254.72,18.49c.86.65,2.1,1.82,2.18,1.59.03-.08-.23-.44-1.22-1.17-.92-.75-2.47-1.56-2.56-1.53-.2.07,1.19.74,1.61,1.11Z"/><path d="m255.96,18.8c-.63-.58-.97-1.02-1.51-1.34-.66-.43-1.84-1.18-1.95-1.1-.06.04.33.38,1.03.82.38.23.76.46,1.16.71.39.26.79.57,1.26.91Z"/><path d="m246.79,14.1c-.07-.08-.05-.14-.77-.45-.22-.1-.37-.08-.56-.12.46.15.89.38,1.33.57Z"/><path d="m258.02,20.98c-.19-.15-.09-.05.02.06l-.02-.06Z"/><path d="m248.07,14.74l-.31-.14-.31-.14c.19.12.4.22.62.27Z"/><path d="m146.58,2.79c-.16-.33-.94-.42-2.03-.27-1.38.18-.82.52-.95.79,1.35,0,1.38-.65,2.98-.52Z"/><path d="m163.86,1.42c.03.32-.4.69,1.43.8-.11-.27.27-.55-.6-.79h-.83Z"/><path d="m146.6,2.79l.17.08c-.06-.02-.12-.05-.17-.08Z"/><path d="m67.83,81.84l1.34.28c-.22-.17.51-.32-.57-.5-.61-.1-.8.06-.78.22Z"/><path d="m86.1,84.51c1.22.16,2.48.31,2.52-.13-.92.01-1.95-.05-2.52.13Z"/><path d="m126.44,3.58c1.5-.3,3.05-.79,3.5.07.2.39,2.12.03,3.23.09-.63-.45-1.13-.87-1.92-1.27-1.67-.83-4.66-.7-7.02.27-.29.12-.43.29-.8.37-1.36.3-1.4.99,0,1.15q.58.07.87-.4c.14-.22.07-.49,1.11-.58.32-.03.69.19,1.04.3Z"/><path d="m115.19,4.94l.81-.07c1.36-.88-.92-1.26-.92-1.96l-2.21.64c-.15.65,2.86.66,2.32,1.39Z"/><path d="m118.75,2.35c-.82.04-1.67.12-2.25.38.03.03.01.08.09.08,1.03.12.9.79,2.13.57,1.81-.31-.27-.66.04-1.04Z"/><path d="m122.81,2.68c.21-.08.46-.15.44-.18-.07-.11-.25-.2-.38-.3-.09.06-.27.13-.26.19,0,.09.12.17.21.29Z"/><path d="m133.64,1.36c-.5-.04-1.01-.08-1.11.15.48.02,1.15.17,1.11-.15Z"/><path d="m131.51,1.57l-.3.13c.13-.04.27-.07.3-.13Z"/><path d="m7.73,36.28c.49-.5,1.02-.96,1.54-1.42,0-.48.71-1.27,1.53-2.05.82-.78,1.74-1.54,2.07-2.1-.24-.14-.18-.61-1.6.41.82-.13-.12.75-.69,1.32-.69.7-1.23.76-1.64.85-.59.45-1.14.94-1.71,1.42-1.28,1.7-1.75,2.68-1.67,2.88.09.21.75-.34,2.17-1.31Z"/><path d="m8.94,33.28c.41-.08.94-.15,1.64-.85.57-.57,1.51-1.44.69-1.32-.97.69-2.25,1.49-2.33,2.17Z"/><path d="m2.2,41.87c.87-.79,1.18-1.37,1.36-1.97.2-.58.24-1.19.64-1.76-1.31,1.17-1.78,2.48-2,3.73Z"/><path d="m.77,46.35l.08-.85c-.2.26-.24.56-.08.85Z"/><path d="m87.2,8.91c1.45-.26,1.47-.56,1.54-.86-.28-.35.49-.41,1.31-.44.39-.46-.01-.91,2.07-1.34.35-.56-1.93-.04-2.3-.3-2.86,1.15-2.94,2.07-2.62,2.94Z"/><path d="m110.78,4.99l.93-.17c-.55-.12-.66.07-.93.17Z"/><path d="m146.81,84.86c-.35.16-.44.31-.53.46,1.51-.09,3.02-.17,4.52-.26,1.36-.09,1.37-.29,1.42-.49-.81.01-1.79.13-2.28-.05l-3.12.33Z"/><path d="m167.84,82.78c-.04-.14-.14-.29-.96-.22-.37.03-.85.2-1.28.31.55.12,1.42.01,2.25-.09Z"/><path d="m149.93,84.53c.49.18,1.48.06,2.28.05-.47-.19-1.4-.11-2.28-.05Z"/><path d="m158.96,84.64c0-.08.69-.22.02-.25-.07,0-.28.02-.34.04-.42.14-.17.19.32.21Z"/><path d="m57.92,14.65c1.18-.48,2.61.54,3.62-.95,0-.88-2.54.27-3.8.4l.18.55Z"/><path d="m73.04,10.43l-.29.11c.09-.04.18-.07.29-.11Z"/><path d="m57.74,14.1l-.18-.04c.06.01.13.02.18.04Z"/><path d="m181.19,81.36l1.51-.23.05-.26c-1.06.14-1.55.3-1.55.49Z"/><path d="m94.75,85.13c3.8.64,4.29.12,4.34-.56l-.76-.8c-2.8-.69-4.46-.11-6.68-.19-.33.59-.19,1.15,3.1,1.54Z"/><path d="m131.06,85.23l.33.02c0-.07-.14-.07-.33-.02Z"/><path d="m197.91,5.38l.52.13-.22-.18c-.1.02-.21.04-.31.06Z"/><path d="m123.77,85.11c.26.04.52.09.79.13,0,0,.14-.04.21-.06-.33-.02-.65-.05-1-.07Z"/><path d="m81.28,82.13l-1.4-.36c.07.24.11.49,1.4.36Z"/><path d="m146.28,85.33l.27-.46c-.74.04-1.56.08-1.68.28-.12.2.6.23,1.4.18Z"/><path d="m82.63,9.31c.04-.22.03-.43-.71-.44.11.18-.17.47.71.44Z"/><path d="m78.83,8.84l.17.05c-.06-.02-.12-.03-.17-.05Z"/><path d="m84.73,8.12c-.18-.12-.2-.32-.58-.33-.49,0-.91.25-.74.33.34.17-1.08.89,1.18.46.05-.15.09-.3.14-.46Z"/><path d="m84.73,8.12c-.05.15-.09.3-.14.46,1.11-.31.99-.44.14-.46Z"/><path d="m39.39,18.96c-.11,0-.22-.02-.35-.02-.02,0-.25.11-.25.13-.02.06.04.09.07.14l.53-.25Z"/><path d="m40.08,74.74l.3.04c-.11-.02-.22-.04-.3-.04Z"/><path d="m234.59,8.88l1.18.09-.26-.19c-.32.03-.64.05-.92.11Z"/><path d="m45.64,16.37l.96-.16c-.1-.09-.31-.11-.52-.13l-.44.29Z"/><path d="m90.05,7.61c-.83.02-1.6.09-1.31.44.44-.15.87-.31,1.31-.44Z"/>
                  </g>
                </mask>
              </defs>
              <path class="mask" d="m259.85,15.99C190.2-4.1,103.43-2.27,36.43,20.7,19.05,26.66,1.31,35.83,1.95,47.62c.46,8.59,10.89,15.95,22.67,21.08,18.32,7.97,40.68,12.2,63.16,14.5,37.91,3.87,77.7,2.49,113.72-5.46,19.67-4.34,38.63-10.89,50.86-20.9,12.23-10.01,16.48-23.96,6.66-34.85-9.82-10.88-35.49-16.63-53.51-10.29"
                    mask="url(#path-mask)" stroke="black" stroke-width="2" fill="none"
                    stroke-dasharray="637.322021484375" stroke-dashoffset="637.322021484375">
              </path>
            </svg>
        