
            <svg xmlns="http://www.w3.org/2000/svg">
              <defs>
                <mask id="path-mask">
                  <g fill="white">
                    <path d="m144.33,35.97c.43-1.17-.11-.55-.16-.84.14-.25.31-.5.43-.77.4-.61.82-1.36,1.17-1.98.41-.62.68-1.64.82-2.63.09-1,.05-1.97-.16-2.55.09-.78-.02-1.27-.16-1.59.02-.26,0-.55,0-.85-.05-.3-.1-.6-.15-.91-.08-.61-.21-1.17-.18-1.59.12-.25.05-1.2.43-.5.26.52.52,1.11.51,2.04.04.76.08,1.43.27,1.85l.04.71c.09.9-.51,2.04-.12,2.77-.04.27-.12.78-.12.79.15.38.09.97-.04,1.64-.18.66-.44,1.38-.69,2.05l-.13-.02c.08-.38.03-.32-.14.09-.02.07-.04.14-.07.21l-.18-.02c.07-.23.22-.55.14-.57-.02,0-.11.14-.14.23-.14.38-.04.29,0,.35-.14.44-.25.89-.42,1.32-.04.1-.09.21-.14.32-.01-.2.36-1.26-.15-.4-.55.9-.54,1.3-.49,1.57.06.26-.12.67-.57,1.24-.24-.06-.72.84-1.12,1.41l-.05-.07c.24-.63-.06-.21-.38.25-.6.51-.43.72-.71,1.11l-.09.06.09-.07c.08.12.46.05-.49,1.09-.6.64-1.05,1.25-.77,1.3l-.59.65-.76.32c.32-.35.42-.54.38-.63.32-.47.28-.57-.17-.25-.53.52-.76.63-.69.33.03-.14.09-.33-.27,0-.22.18-.62.65-.6.67.18.13-.09.53-.46.98-.38.44-.87.93-1.08,1.28-.09.14-.1.24-.15.35l-.03.18c-1.39,1.13-2.99,2.07-4.16,3.22-.29.3-.84.49-1.22.64-.68.27-1.08.56-1.34.9-1.03.51-2.07.98-3.12,1.43l-.12-.1c-.17-.13-.71,0-1.32.32-.48.24-.25.31-.24.43-1.69.86-3.4,1.68-5.25,2.42h.09c0,.08.17.1-.18.25-.07.12-.07.23-.53.4.05-.36-.87-.12-1.62.08-1.6.44-3.49.82-4.82,1.43-.93.41-1.57.61-2.52.86-.57.15-.19.3-.2.45-1.83.52-3.68.99-5.53,1.43l-.05-.27c.33-.23.21-.36,0-.5-.38-.24.07-.46,1.05-.68l.83-.34c.51-.14,1.15-.24,1.32-.51l-.97.15c-.15-.1-.74-.1-.05-.39.41.06.8-.02,1.16-.27.45-.11.91-.21,1.36-.34.67.28,1.85.27,3.13.18.77-.51,1.95-1.08,2-1.54,1.19-.31,2.39-.61,3.52-1.14.08.12,0,.33.26.34.35.02-.81.64.31.27.77-.27.55-.41.41-.53-.06-.06-.16-.3.42-.25,1.07.08.66-.42,1.47-.65.14.01.27.08.43.03.46-.16.41-.28.5-.4,1.48-.55,2.79-1.35,4.39-1.88.83-.29,1.09-.81,1.21-1.12,2.29-1.14,4.5-2.42,6.6-3.87.03.06.01.17.12.17.3,0-.53.98.57.22.97-.68-.04-.33,0-.56.02-.06.31-.32.48-.48,1.59-1.47,3.39-2.94,4.92-4.56.45-.47.93-1.43,1.5-1.63.27-.16,1.14-.9,1.86-1.87.39-.47.75-.98,1.02-1.46.29-.47.53-.89.63-1.19Zm-4.52,5.91l-.09.25c.08-.08.18-.16.23-.23.05-.07.05-.12.07-.18-.07.06-.14.11-.21.17Zm-9.81,8.14s-.11.05-.16.08c.03.04.09,0,.16-.08Z"/><path d="m113.89,2.27c2.93.25,5.72,1.13,8.56,1.71.12,1.3,2.09,1.03,3.24,1.47.15.41.02.85,1.36.78.81-.03,1.9.28,2.88.52.73.37-2,1.03.99,1.22.4.16,1.03.17.96.61-.03.22.29.59.68.62.4.03.82-.13,1.02-.31.33-.3-.45-.33-.64-.5-.39-.33-.63-.69-.93-1.04.31-.22,1.29.22,1.36-.24.43.83,2.91.58,2.63,1.47-.14.45-1.19.71-1.73,1.14-.56.45-2.26.09-3.56-.38-.58-.21-1.1-.57-1.69-.77-.57-.16-1.2-.7-1.71-.45-.55.26,1.1.48.69.85-1,.1-2,0-3-.52.09-.72-.08-1.3-1.82-1.07-.65.09-1.29-.21-1.94-.45-.65-.22-1.31-.41-1.97-.16l-.45-.06-.81-.38c-1.28-1.01-2.82-1.43-4.59-1.07-.91-.7-2-1.13-3.52-.92l-.62-.07c.08-.05.14-.12.25-.14.86-.15,1.45-.37.66-.95-.21-.15-.8-.37-.73-.14.18.53-2.55.36-.66,1.31-.54,0-1.31-.2-1.36.27l-.92-.14c0-.26.77-.41.16-.72-.48-.25-1.04-.2-1.47,0l-.59-.07c-1.2-.18-1.23-.66-1.36-1.12-.08-.27-.34-.5-.92-.55-.22-.02-.56.05-.64.14-.21.25.25.35.61.49,1.3.5-1.14.74-.02,1.24-.33.41-1.06.3-1.76.26v-.3c.05-.29,1.12-.6.03-.85-.81-.18-1.4.13-1.27.64l-1.06-.1c-.48-.19-.97-.33-1.45-.5-.4-.35-.58-.71-.21-1.07.17-.17.14-.34-.33-.39-.57-.06-.67.16-.77.36l-.79-.24v-.65c1.37.12,2.93-.13,3.78.78.32.35.83.22.94-.11.08-.23-.01-.51.57-.59,2.4-.36,4.87-.29,7.3.44,1.41,1.05,4.54,1.4,6.57.73Zm14.77,5.12c-.16-.04-.33.02-.5.04.11.1.2.23.34.28.15.05.34,0,.64,0-.22-.15-.35-.28-.49-.31Z"/><path d="m12.77,49.14c1.01.48,1.26,1.04,1.59,1.62.16.29-.23.59.64.88.7.24.71-.13.73-.44.02-.3.09-.58.15-.86.77.4,1.55.79,2.34,1.15-.12.26-.57.47.51.97.83.36,1.13.68.93,1.03-.18.16-1.17-.25-.83.27.12.18.45.48.71.59.87.36.45-.23.72-.32.15-.05.27-.12.47-.14.38-.03,1.3.26,1.06-.1-.27-.42-1.08-.29-1.63-.62l.23-.49c2.3.92,4.47,1.96,6.62,3.04-.56.42-1.04.98-2.81-.22-.29-.2-.82-.37-1.03-.21-.23.17.14.39.57.61.03.34.07.68.04,1.03l-.71-.11.43.44c-1.7-.26-3.14-.97-4.28-2.02-.2-.5-.69-1.18-1.54-1.2-1.65-.05-3.47-2.24-4.87-1.82-1.09-1.01-2.5-1.68-3.67-2.64.45-.49-.39-1.26-1.24-1.73-.76-.43-1.1-.83-1.43-1.41.56-.25,1.38,1.07,2.07,1.18.26.03.48.96,1,.84.31-.08-.11-.72-.33-1.16-.23-.44-.45-.71-1.06-.97-.76-.33-1.58-.87-1.6-1.81-.03-.54-.69-.95-1.09-1.21-.67-.47-.42.13-.24.59.25.74.56,1.47.11,1.69l-.47-.24c.01-1.15-1.25-2.22-1.88-3.52-.25-.49-1.06-1.52-.23-1.49.2.01-.72-1.41-.88-1.43-.4.02-.56-.43-.68-1.07l-.09-.47c-.33-.84-.64-1.92.15-1.59.48.4.44.37.54-.33.07-.31.19-.71.31-.77.44-.21.23.98.57,1.14.13,1.19.87,2.19.54,3.37-.07.31.47.91.52.83.16-.29.98,1.07.75-.06.19-.04.27.05.45.46.62,1.31,1.33,2.74,2.65,3.63-.9,1.16,1.21,1.62,1.91,2.33.93.76,1.93.89,2.89,1.71-.46.15-1.54.08.39,1.05Zm4.05,3.1l-.3.04c.09.07.18.16.27.2.08.03.15-.01.23-.03-.07-.07-.13-.14-.19-.21Z"/><path d="m125.18,6.72c-1.57-.04-3.52-.12-4.94.25-.65-.05-1.46.11-2.29.26-.81.26-1.66.48-2.39.72-.42.14-.57.22-.85.36-.86.46-.83,1.01.14.69,1.03-.34,1.36-.38,1.68-.3.32.07.85.07,1.76-.43.1-.05.51-.15.69-.17.43-.05.86-.13,1.28-.19l1.27-.13c.84-.13,1.7-.1,2.56-.13,3.96.14,7.93,1.05,11.49,2.83l.06-.13c-.3-.15-.55-.28-.59-.36-.54-.26-1.22-.46-1.68-.65-.55-.23-1.18-.41-1.79-.58-.6-.18-1.16-.38-1.6-.56-.26-.11-1.37-.51-2.56-.72-1.18-.29-2.42-.33-2.84-.35-.14,0-.29.03-.26.05.19.19-.58.1-.93.06-.42-.05-.69-.12-1.06-.18-.21-.04-.86.09-.81,0,.04-.04.41-.15.92-.17.54-.01,1.18-.03,1.72-.05.53-.01.95-.01,1.03-.14Z"/><path d="m18.06,15.06c-.91.59-2.09,1.12-2.46,1.93.3-.09.72-.15.89-.29.65-.54,1.26-1.07,2.02-.9.63.15.1.66-.22,1.13-.57.83-1.25.95-2.04,1-.5.02-1.19.33-1.42.66-.79,1.11-1.52.96-2.31,1.13-.42.23-.88.64-1.16.45-.06-.04.04-.29.12-.33.53-.35.71-.11,1.04-.12l.6-1.59c-1.19-.2-1.93.87-2.73,1.66.18.21.27.46-.35.95.12.15.19.35.38.43.59.23-.48.95-.61,1.39-.04.12-.21.33-.36.26-.32-.13-.05-.49.23-.93.16-.25-.23-.41-.37-.61-.09.24-.44.47-.75.7-.29.25-.54.49-.4.74.17-.05.52-.31.29.08l-.29-.09c-.56.32-.6-.31-1.19.23-.21.19-.1.65-.13.97.12.11.16.28-.05.6.06.03.12.06.18.08l.3-.27c.34-.14.97-.48,1.27-.52.31-.04.22.16-.69,1.23-.12.14-.01.37,0,.55.41-.42.79-.91,1.26-1.29.45-.39.94-.72,1.56-.81.07-.01.35-.36.72-.79.38-.42.86-.9,1.3-1.23.11-.37.41-.6.94-.98,1.58-1.12,3.58-1.64,4.95-2.99.93.2,1.83-.99,2.68-1.02.84,0,1.45-.15,2.21-.8,1.03-.88,1.67-.83,1.94-.26l1.93-.89c-.24-.32.21-.78.5-1.21-1.09-.09-2.23-.15-.48-1.43.22-.16,0-.25-.28-.22-.63.7-1.99.66-2.52,1.26-1.21,1.36-1.21.52-1.56.27l-.42.19c.05.22-.13.44-.61.65.06.29-.22.51-.68.73l.17.28c-.47.17-.47-.01-.53-.15-1.03.12-2.41.69-2.87.14Z"/><path d="m145.42,19.17c-.25-.51-.46-.86-.66-1.09-.45-.47-.96-1.04-.52.03.56,1.71.96,1.61,1.33,2.48l.23.83.14.85c-.03.42.1.98.18,1.59.05.3.1.61.15.9.02.3.03.59,0,.85l-.2.03c0-.49-.08-1.01-.2-1.49-.11-.48-.15-.94-.17-1.31,0-.47-.07-.94-.2-1.41-.16-.46-.35-.94-.55-1.44-.88-1.94-2.08-3.72-3.56-5.23-1.49-1.52-3.22-2.81-5.09-3.89-.03-.11.01-.17.5.06l.72.43.33.27c.1.09.2.17.33.21.57.38,1.01.68,1.34.91.33.23.54.41.68.48.27.15.21-.02-.1-.48-.02-.03-.02-.04-.03-.06-.5-.36-.93-.62-1.27-.91-.34-.28-.63-.55-.95-.78-.61-.48-1.21-1-2.34-1.46-.91-.44-2.18-.85-2.35-1.19.62.24,1.39.34,1.56.51.31.35.97.57,1.59.87,2.15,1.13,4.11,2.51,5.91,4.28,2.6,2.52,4.29,6.04,4.89,9.68.16.72.29,1.89.03,1.96-.19-.42-.23-1.09-.27-1.85,0-.93-.26-1.52-.51-2.04-.06-.47-.21-.92-.35-1.36-.15-.44-.32-.87-.61-1.24Zm-2.71-3.46c.04-.05.03-.37-.51-.85-.5-.48-1.26-1.12-1.37-1.07-.08.04.07.16.27.32.18.17.41.37.51.5.22.22.47.53.68.76.2.25.34.43.42.33Zm-.93-1.93c-.31-.35-.96-.85-1.05-.78-.06.04.12.29.49.59.39.34.75.7,1.25,1.15-.28-.41-.44-.7-.68-.97Zm1.4,2.33l.15.21v-.04c-.12-.15-.13-.16-.15-.17Z"/><path d="m90.35.2c-1.09.16-1.94.14-3.17-.07-1.78-.27-4.01-.07-6.03.09-1.01.09-2.11-.11-3.04.29l.02.59c.24.26.83.66.15.79-1.99.41-1.66,1.46-3,2,.73-.05,1.37-.21,1.93-.45.07,0,.14-.03.19-.06.06-.27-.27-.61.52-.78.62-.13,1.08-.04,1.18.29l.11.07-.1-.08c-.94-.14-.93.5-1.7.5-.05.03-.06.07-.05.11.91.58,1.94-.09,2.91-.04.6-.34,1.22-.53,1.86-.56.64,0,1.3.13,1.95.39.39.16.65.38,1.08,0,.67-.57,1.65-.37,2.58-.19,1.35-.45.74-1.01.41-1.55-.08-.14-.37-.34.11-.43.41-.08.65.07.81.23l.48-.02c-.25-.47,1.05-.68.79-1.14Z"/><path d="m42.45,62.03c.8.44,1.64.85,2.86.78,1.55-.28,3.1-.13,4.71.5.35-.19.94-.17,1.48-.2l.86.26c-.09-.18-.21-.51-.25-.51-1.62-.1-2.61-.86-4.16-1.04-1.13-.11-2.14-.32-2.35-.94,0-.02-.12-.04-.18-.07l-.66.09c.08.68-1.04.41-1.89.2-2.78-.68-5.68-.94-8.42-1.99-1.64-.63-1.77-.51-.79-.98.3-.15.52-.33.77-.5-1.63-.28-3.35-1.16-4.83-.87.28.15.54.32.85.43.5.19,1.34.02,1.45.47.05.19-.85.26-1.41.27-.3,0-.8-.18-1.21-.29-.34-.09-.7-.22-.92-.12-.28.14.04.37.36.58.5.32.54.74,1.4.99.98.71,2.14,1.26,3.64,1.44,1.8-.11,3.73.33,5.69.78,0-.16.13-.32.48-.24.62.13.17.31.28.47.94-.36,1.9-.83,2.21.48Z"/><path d="m137.53,11.36l.33.27.17.1.16.11c.57.38,1.01.68,1.34.91.33.23.54.41.68.48.27.15.21-.02-.1-.48-.02-.03-.02-.04-.03-.06-.5-.36-.93-.62-1.27-.91-.34-.28-.63-.55-.95-.78-.61-.48-1.21-1-2.34-1.46-.91-.44-2.18-.85-2.35-1.19-.72-.17-1.96-.59-2.53-.61.63.32-.07.3-.42.23-1.03-.25-.37-.26-.49-.39-.03-.03,0-.04.02-.06-.76-.4-2.18-.41-3.08-.66-.57,0-1.07-.03-1.5-.16-.08.13-.5.13-1.03.14-.53.01-1.18.03-1.72.05-.51.02-.89.13-.92.17-.06.08.6-.04.81,0,.37.06.63.14,1.06.18.35.04,1.12.13.93-.06-.02-.02.13-.05.26-.05.42.02,1.67.06,2.84.35,1.19.21,2.29.61,2.56.72.44.19,1,.38,1.6.56.61.17,1.24.35,1.79.58.46.19,1.14.39,1.68.65.55.2.54.27.59.36l-.06.13c.25.13.51.24.75.38-.03-.11.01-.17.5.06.11.03.2.02.32.09.4.22.37.27.39.34Z"/><path d="m71.44,4.09l-.05-.23c-.39-.43-.71-.88-1.19-1.28-1.02-.85-2.77-.77-4.08.15-.16.11-.23.29-.44.37-.77.31-.73,1,.09,1.15.34.06.34.06.47-.4.06-.22,0-.49.6-.56.18-.02.42.2.63.31,1.15.05,1.13.54,1.42.91-1.25.39-2.57.45-3.89.53.46-.72-.85-.68-1.51-.92l-.61.49-1.32.39c-.03-.05-.04-.1-.04-.16.71-.84-.66-1.28-.72-1.96l.82-.14s.01.08.06.09c.61.13.6.82,1.3.6,1.02-.33-.22-.65-.07-1.04l.43-.52c1.01-.1,2.01-.31,3.02-.41,1.01-.1,2.02-.16,3.02-.09l.85-.09.08.41-.17.13.23-.1.53-.06c.28,0,.68.15.64-.17l.85-.29-.11.08-.14-.05c.63.4,2.1.17,2.57.92.22.34,2.03-.42,3.03-.78.17-.06.27-.16.4-.24.24.26.83.66.15.79-1.99.41-1.66,1.46-3,2-1.31.3-2.58.45-3.84.19Zm-5.91-1.59c-.05-.11-.16-.2-.25-.3-.05.07-.14.14-.14.19,0,.09.08.17.14.28.12-.09.26-.15.24-.18Z"/><path d="m10.04,20.74c.62-.5.54-.74.35-.95l-.65.39-.45.38c-1.23.78-2.47,1.55-3.41,2.86-.4.51-1,1.22-1.66,1.68-.38.24-.79.72-1.14,1.16-.36.43-.62.85-.66.99-.25.74-.55,1.41-.79,2.13-.12.35-.28.69-.4,1.04l-.35,1.06-.19.53-.13.55-.28,1.1c-.12.74-.24,1.5-.29,2.27-.04,1.14.4,1.79.62,2.65.62,2.21,1.73,4.18,3.04,5.9,1.33,1.71,2.86,3.18,4.47,4.51.35.28.65.64,1,.61.45-.49-.39-1.26-1.24-1.73-.76-.43-1.1-.83-1.43-1.41-.4-.03-.77-.48-1.13-.84l-.47-.24c.01-1.15-1.25-2.22-1.88-3.52-.25-.49-1.06-1.52-.23-1.49.2.01-.72-1.41-.88-1.43-.4.02-.56-.43-.68-1.07-.21-.11-.23-.28-.09-.48-.33-.83-.64-1.91.15-1.57-.03-.23,0-.47,0-.7-.14-.37-.26-.75-.3-1.18,0-.42.12-.87.37-1.34-.17-.47-.27-.94-.21-1.42.06-.47.3-.94.99-1.22.21-.4.38-.82.62-1.19-.25-.46.33-1.2.74-1.79.61-.87.76-.52,1.01-.42.19-1.36,1.19-2.17,2.36-2.63.03-.33-.08-.78.13-.97.59-.54.63.09,1.19-.23-.14-.24.1-.49.4-.73.3-.23.66-.45.75-.7l.73-.54Z"/><path d="m53.44,3.79c-.68-.23-1.39-.3-2.21.24.58.22,1.15.46.63.96-.41.39-.88-.06-1.37.17-.81-.49-1.11,0-1.47.44-.42.51-.88.71-1.35.27-1.17.42-.87.85-.99,1.28.29.4,1.28.31,1.83.53.89.23,1.94.02,2.91-.35.73-.29,1.38-.43,2.12-.47.69-.39-.22-.95,1.06-1.22.95-.2.88.29,1.09.57l.84-.21c-.11-.28-.28-.54-.32-.83-.03-.19.35-.34.72-.41.32-.06.58,0,.42.18-.24.26-.94.59-.12.64.21.02.83-.49,1.27-.74.14-.09.18-.28.52-.15l-.53.14c.46.76,1.5.44,2.58.05.24-.72-1.52-.79-1.5-1.43-1.8.63-1.86.13-1.82-.49-.72.25-1.41-.04-2.14.3.24.66-.47,1.42-1.76,1.59-1.79.23.45-.71-.22-.92-.09-.03-.12-.1-.18-.15Z"/><path d="m89.79,63.13l.7-.09,1.34-.33.5-.09s-.04-.08-.06-.12c-.3-.02-.46-.07-.22-.2.03-.02.15-.05.2-.04.4.03,0,.17,0,.25.71-.06,1.22-.23,1.52-.51.94-.87,2.67-.54,2.67-.37-.02.54,1.09.32,1.92.3.98-.37,1.96-.73,2.95-1.1.43-.17,1.31-.29,1.01-.51-.25-.18-1.15.18-1.4.17-.77-.07-1.79.78-2.31.3-.57.06-1.23.19-1.36-.06-.47.09-.97.19-1.3.07-1.05.11-2.1.24-3.13.33-2.06.11-3.75.96-5.86.92l.03.35c.51-.06,1.04-.14,1.33.04-.01.2,0,.4-.79.49l.42.41c.61-.06,1.23-.11,1.84-.19Z"/><path d="m27.07,11.69c.28-.03.5.06.28.22-1.75,1.27-.61,1.33.48,1.43.24-.12.48-.24.73-.34l-.23-.54-.12-.04.12.05c.76-.06,2.09-1.01,2.27-.18,1.11-.48,2.38-.15,3.45-1.15.15-.14,1.02-.21,1.16.08.4-.13.82-.22,1.23-.32.38-.62,1.86-1.26,1.34-1.87-.02-.03.24-.17.37-.26,1.25.84,1.21-.67,1.98-.69l-.06-.19c-2.41-.38-2.63.71-3.16,1.58l-.15.09.16-.09c-.45.04-1.24.2-1.29.1-.67-1.35-1.89.09-3.08.61-1.24.55-2.61,1.34-3.95,1.16-.61.06-.72-.49-1.65-.03l.13.39Z"/><path d="m95.51,1.92l-.79-.24c-1.95-.22-1.91-.88-1.67-1.58-.64-.27-.62.13-.94.19.55.97-.44,1.76-2.21,1.81.4.49.42.99-.03,1.47.44.51.81.19,1.2.02-.25-.12-.32-.29.03-.29.48-.01.39.22.44.38,1,.74,2.52.34,3.61.36.89.02,1.82.13,2.74.18.92.09,1.82.12,2.69-.08v-.3s-1.22-.22-1.22-.22c-.42.35-.75.12-1.09-.1-.48-.19-.97-.33-1.45-.5-.12.28-.23.57-1.02.5-.53-.05-.83-.26-1.08-.49-.58-.54.25-.79.8-1.11Z"/><path d="m98.62,60.78c.52.49,1.54-.36,2.31-.3.25.02,1.15-.34,1.4-.17.3.22-.57.34-1.01.51-1,.37-1.97.73-2.95,1.1l.42.18.5-.08c1.3-.65,3.09-.81,4.6-1.26.33-.23.21-.36,0-.5-.38-.24.07-.46,1.05-.68v-.14c-.04-.19.23-.34.83-.46.12-.03.24-.06.35-.11-.15-.1-.74-.1-.05-.39l-.07-.13c-1.2.26-2.41.46-3.62.68-1.21.23-2.41.48-3.6.79.45.24,1.23.43-.16.93Z"/><path d="m63.23,64.46c.52,0,.44.72,1.38.23.7-.36,1.33.19,2.03.07.21-.66,1.14-.5,2.11-.24.82.22,1.51.1,2.14-.11.65-.23.93-.49.25-.78-.91-.04-1.75-.25-2.73-.15-3.06.36-3.41.35-5.83-.33-.06-.02-.17-.04-.19-.03-1.29.61-3.11-.5-4.42,0,.1.32.08.65.93.88.05-.22.25-.24.84-.16,1.24.18,2.4.37,3.5.64Z"/><path d="m98.62,60.78c1.39-.5.61-.69.16-.93-.97,0-1.64-.14-2.93.46-.93.43-2.93.44-4.49.63-2.1.32-4.31.64-6.47.63-.95-.03-1.57.04-1.43.46.13.41.89.35,1.74.2l1.77-.19c2.1.04,3.8-.81,5.86-.92,1.04-.09,2.09-.22,3.13-.33.24-.1.5-.27.72-.3.47-.06.55.09.59.23.13.25.79.12,1.36.06Z"/><path d="m36.92,9.46c.53-.86.75-1.96,3.16-1.58l1.61-.76c.41-.28.83-.56.64-.83-.93-.25-1.86.43-2.73.71-1.65.53-3.33.96-4.99,1.46-1.64.57-3.27,1.18-4.85,1.92-.84.4-.9.61-1.15.95,1.35.18,2.71-.61,3.95-1.16,1.19-.52,2.41-1.96,3.08-.61.05.1.84-.06,1.28-.1Z"/><path d="m34.45,57.63c-.25.17-.47.35-.77.5-.99.47-.86.35.79.98,2.74,1.05,5.63,1.31,8.42,1.99.85.2,1.96.47,1.89-.21-1.48-.95-3.22-1.17-5.19-1.24-1.27-.04-2.18-.39-1.78-1.04-1.29,0-2.18-.74-3.34-.99Z"/><path d="m57.96,63.1c1.31-.49,3.14.61,4.42,0,.02,0,.13.02.19.03,2.41.67,2.76.68,5.83.33.98-.1,1.82.11,2.73.15-.39-.55-.81-1.07-2.29-1.36l-1.1.3c-.41.34-1.04.29-1.91.21-1.07-.08-2.37-.17-3.3-.23-1.86-.17-3.57.25-5.33-.25l.41.77c.12.01.24.03.35.05Z"/><path d="m79.95,62.52c-.54.52-.97,1.01,1.29.95.73-.04.28.2.24.34-1.1.38-2.34.25-3.15.08-2.04-.42-2.48,0-2.9.61l-.42.04c-1.34-.24-3.52-.37-1.46-1.25.37-.16.36-.45.52-.67,1.14-.03,2.27-.06,3.41-.08.73-.02,1.29-.06,1.35-.39h1.26c-.04.12-.02.26-.14.38Zm-3.61.6s-.12-.01-.23.04c.06,0,.13.01.23-.04Z"/><path d="m133.38,7.1c.43.83,2.91.58,2.63,1.47-.14.45-1.19.71-1.73,1.14-.56.45-2.26.09-3.56-.38-.58-.21-1.1-.57-1.69-.77-.57-.16-1.2-.7-1.71-.45-.55.26,1.1.48.69.85,1.76,1.22,4.4,1.13,6.2,2.38.56.4.62-.28,1.16-.21.58-.11-1.54-1.11.35-.78.83-.52,2.55-.33,2.61-1.32-.36-.19-.85-.36-1.05-.57-.51-.51-.16-1.61-2.06-1.05,0,0-.13-.1-.3-.23-.16-.13-.37-.28-.53-.36-.98-.48-2-.69-2.97-.58.06.94,1.45.41,1.96.86Z"/><path d="m137.89,11.75c.48.21.8.46.97.79.22.41.59.84,1.05,1.12.47.27,1.02.42,1.57.38.98-.07,1.99-.41,2.33-1.02.64-1.14-.29-1.93-2.79-2.59-.61-.15-1.24-.73-1.86-1.11-.92.28-.81.92-.15,1.55.67.64,1.5.63,2.23.39.27-.09,1.33,0,1.07.45-.23.4.19.96-.31,1.24-.31.18-.53.46-1.2.29-.69-.17-.89-.53-.86-.86.03-.34.02-.64-.74-.87-.74-.23-1.18-.16-1.3.24Z"/><path d="m57.2,62.28c1.75.5,3.46.08,5.33.25.93.07,2.22.16,3.3.23.88.09,1.5.14,1.91-.21-1.48-.88-3.73-.52-5.58-.68-2.75-.23-5.61-.09-8.23-.94l-.25.21c.37.31,1.74.77-.41.67-.7-.05-1.13.2.06.45,1.29,0,2.29-.64,3.88.02Z"/><path d="m25.39,15.44c-.27-.57-.91-.62-1.94.26-.76.65-1.36.79-2.21.8-.85.03-1.75,1.21-2.68,1.02-1.38,1.35-3.38,1.87-4.95,2.99-.53.38-.83.61-.94.98,1.76-.52,3.36-1.48,5.13-2.51,1.12-.66,2.3-1.29,3.68-1.68,1.22-.32,2.6-1.2,3.91-1.84Z"/><path d="m107.47,4.61l-.92-.14c-.43-.26-.87-.51-1.31-.73l-.59-.07-1.95.28c1.02,1.18,3.28.99,4.87,1.29,3.15.52,6.39.62,9.57,1.15l.89-.06c-1.28-1.01-2.82-1.43-4.59-1.07-1.4.03-2.88.22-3.52-.92l-.62-.07h-.45c-.01.15,0,.22,0,.3l.11.18-.29-.12h-1.2Z"/><path d="m113.72,56.53c1.19-.31,2.39-.61,3.51-1.14.93-.32,1.81-.64,2.57-.69.61-.25.92-.38,1.23-.5,1.48-.55,2.79-1.35,4.39-1.88.83-.29,1.09-.81,1.21-1.12-4.25,2.03-8.69,3.62-13.16,5.17l.23.16Z"/><path d="m81.48,63.8c-1.1.38-2.34.25-3.15.08-2.04-.42-2.48,0-2.9.61,3.34.09,6.71.13,10-.62.79-.19,1.32.09,1.97-.03.89-.16,2.3-.13,2.4-.72-.61.08-1.22.14-1.84.19l-3.03.18-3.45.3Z"/><path d="m141.68,40.61c.08.12.46.05-.49,1.09-.6.64-1.05,1.25-.77,1.3,2.59-2.55,4.77-5.69,5.81-9.39l-.13-.02-.14.09c-.02.07-.04.14-.07.21-.17.61-.33,1.23-.61,1.31-.04.1-.09.21-.14.32-.21.39-.41.79-.64,1.17.06.26-.12.67-.57,1.24-.4.67-.69,1.46-1.22,1.96-.19.15-.06-.19.1-.54l-.05-.07-.38.25c-.6.51-.43.72-.71,1.1Z"/><path d="m75.01,64.54c-1.34-.24-3.52-.37-1.46-1.25.37-.16.36-.45.52-.67-.63-.04-.42-.22-.46-.36l-.84.05c.26.36-.83.5-.85.81l.57.08s-.12.06-.12.06c-.16-.04-.31-.09-.46-.13-.75-.23-.29-.54-.45-.82-.85-.42-1.71-.48-2.61-.05,1.49.29,1.91.82,2.29,1.36.68.3.4.55-.25.78-.62.22-1.31.34-2.14.11-.97-.26-1.89-.42-2.11.24,2.2.16,4.45-.15,6.63.12.86.09,1.31-.11,1.75-.33Z"/><path d="m53.32,62.26c-1.19-.25-.76-.5-.06-.45,2.15.11.78-.35.41-.67-.4.31-1.04-.04-1.56-.06.03.24-.4.5-.7.37-1.5-.64-2.69-.08-4.04-.34-.77.18-.77-.08-.79-.31-.68-.41-.91-.18-1.16.02.06.02.17.05.18.07.21.62,1.23.82,2.35.94,1.54.18,2.54.94,4.16,1.04.04,0,.16.34.25.51.55.18,1.1.35,1.65.52l.88.29.15-.48c-1.91-.28-1.95-.83-1.73-1.43Z"/><path d="m30.14,59.1c-.87-.25-.9-.67-1.4-.99-.32-.21-.64-.43-.36-.58.21-.11.58.03.92.12.41.11.91.3,1.21.29.56,0,1.45-.09,1.41-.27-.11-.46-.95-.28-1.45-.47-.3-.11-.57-.29-.85-.43-.3-.4-.74-.24-1.11-.34-.66-.06-1.38-.08-1.3.28.31,1.41-1.62.76-3.37.21.11.34,1.05.55,1.01.89,1.49.33,2.73,1.12,4.21,1.52,1.06.28.91-.04,1.1-.24Z"/><path d="m47.37,61.11c1.35.26,2.54-.3,4.04.34.3.13.73-.13.7-.37-2.71-.37-5.4-.74-8.11-1.11-1.36-.18-2.75-.56-4.05-.97-.78-.25-1.45-.31-2.17-.38-.39.65.51,1,1.78,1.04,1.97.06,3.71.28,5.19,1.24l.66-.09c.25-.19.47-.43,1.15-.02l.79.31Z"/><path d="m81.48,63.8l3.45-.3v-.32c-.46.03-.88.01-.82-.19.06-.2.53-.23.96-.27.15-.17.14-.33.14-.5-.84.15-1.61.21-1.74-.2-1.11-.11-2.23-.01-3.38.11-.04.13-.02.26-.14.38-.54.52-.97,1.01,1.29.95.73-.04.28.2.24.34Z"/><path d="m41.68,7.12l-1.61.76.05.19.11.05-.11-.05c-.77.03-.73,1.54-1.98.69-.13.09-.39.23-.37.26.51.61-.97,1.26-1.34,1.87.16.19.52.05.85-.05.34-.44,1.06-.55,1.67-.76.49-.02.54-.89.94-.42.43.5,1.07-.1,1.53-.09.61-.6,1-.48,1.34-.21.45-.06,1.07.2,1.2-.39l.1-.35c-.54,0-.89-.28-1.6-.05-.52.02-.4-.26-.49-.44-2.31.33.1-.77-.29-1.02Z"/><path d="m144.61,34.36c.4-.61.82-1.36,1.17-1.98.41-.62.68-1.64.82-2.63.09-1,.05-1.97-.16-2.55,0,1.06-.21,2.22-.41,1.45-.31,1.98-.88,3.88-1.42,5.71Z"/><path d="m41.97,8.15c-2.31.33.1-.77-.29-1.02.41-.28.83-.56.64-.83,1.27-.39,2.51-1.27,3.86-.83.07.02.1.06.09.11-1.54,1.03-1.45,1.91-1.13,2.77l-1.07.28c-.54,0-.89-.28-1.6-.05,0-.22-.05-.42-.49-.44Zm1.16-1.01c-.3-.03-.51.21-.39.29.23.18-.51.82.78.49.62-.26.53-.39.01-.44-.13-.12-.17-.32-.4-.34Z"/><path d="m13.13,18.12c.37-.2.85-.05,1.1-.57.54-1.16.95-.65,1.38-.57.3-.09.72-.15.89-.29.65-.54,1.26-1.07,2.02-.9.63.15.1.66-.22,1.13-.57.83-1.25.95-2.04,1-.5.02-1.19.33-1.42.66-.79,1.11-1.52.96-2.31,1.13.2-.53.4-1.06.6-1.59Zm4.68-1.74s-.13.09-.12.11c0,.05.05.09.08.13l.27-.22c-.07-.01-.14-.02-.22-.02Z"/><path d="m136.01,46.89c-1.39,1.13-2.99,2.07-4.16,3.22-.29.3-.84.49-1.22.64-.68.27-1.08.56-1.34.9,1.49-.42,2.99-1.51,4.35-2.55,1.78-1.32,3.65-2.35,5.13-4.08.21-.25.51-.52.55-.69-.49.16-1.08.64-1.65,1.34-.71.82-1.17,1.07-1.67,1.22Z"/><path d="m137.89,11.75c.13-.39.57-.47,1.3-.24.76.23.77.53.74.87-.03.33.17.69.86.86.67.16.89-.12,1.2-.29.5-.28.08-.84.31-1.24.26-.45-.8-.54-1.07-.45-.73.24-1.55.25-2.23-.39-.67-.63-.77-1.28.15-1.55-.22-.24-.47-.41-.82-.29-.06.99-1.78.81-2.61,1.32.37.32.71.64.63.98l1.54.42Z"/><path d="m6.85,23.91c-1.17.46-2.17,1.27-2.37,2.63.01.88-1.22,2.59-.69,3.26l.64.17c.54-.5.79-1.07.92-1.7-.04-.14-.35-.02-.14-.42l.37.1c.1-.07.19-.17.26-.29.44-.72.49-1.13.47-1.59,0-.45-.04-.92.5-1.55.21-.32.18-.49.05-.6Z"/><path d="m98.79,62.1l-.42-.18c-.83.02-1.94.25-1.92-.3,0-.17-1.73-.49-2.67.37-.3.27-.8.44-1.52.51.04.03.06.07.07.11l.03.45c2.14-.14,4.3-.15,6.43-.96Z"/><path d="m118.63,56.78c.05-.36-.87-.12-1.62.08-1.6.44-3.49.82-4.82,1.43-.93.41-1.57.61-2.52.86-.57.15-.19.3-.2.45,2.04-.47,4.05-.87,6.07-1.79.88-.38,2.05-.68,3.09-1.03Z"/><path d="m28.56,13c-.25.1-.49.22-.73.34-.29.43-.74.89-.5,1.21,1.03-.31,2.05-.73,3.1-1.12,1.04-.39,2.1-.75,3.21-.85.9-.07.89-.91,1.58-1.36-.14-.29-1.01-.23-1.16-.08-1.07,1-2.34.67-3.45,1.15-.32,1.37-1.41.32-2.04.71Z"/><path d="m1.26,35.1c0,.23-.04.47,0,.7.48.4.44.37.54-.33.07-.31.19-.71.31-.77.44-.21.23.98.57,1.14.09-.29.25-.58.39-.86.07-.43.08-.86.22-1.28-.12-.9-.09-1.83.01-2.8-.6.79-.91,1.23-1.09,1.11-.09-.06-.14-.24-.17-.59-.02-.34-.04-.85.07-1.49-.69.29-.93.75-.99,1.22-.05.47.04.95.21,1.42-.03.42.19.77.28,1.14.09.37.14.75-.36,1.38Z"/><path d="m23.83,56.92c1.76.55,3.69,1.2,3.37-.21-.08-.36.65-.35,1.3-.28,0-.66-1.01-.46-1.51-.71-.56.42-1.04.98-2.81-.22-.29-.2-.82-.37-1.03-.21-.23.17.14.39.55.59l.2.04-.18-.02.1,1.02Z"/><path d="m46.18,5.46c.07.02.1.06.09.11.26.26,1.53-.25,1.41.3.47.44.93.23,1.35-.27.36-.44.66-.93,1.47-.44.49-.22.96.23,1.37-.17.52-.5-.05-.75-.63-.96-1.76.25-3.72.22-5.05,1.42Z"/><path d="m72.13,1.21c.63.4,2.1.17,2.57.92.22.34,2.03-.42,3.03-.78.17-.06.27-.16.4-.24l-.02-.59c-1.6-.35-3.01.46-4.58.35l-1.13.2c-.15.02-.24.07-.27.14Z"/><path d="m140.83,40.5c.27-.16,1.14-.9,1.86-1.87.39-.47.75-.98,1.02-1.46.29-.47.53-.89.63-1.19.43-1.17-.11-.55-.16-.84-.15.36-.28.73-.44,1.08-.18.34-.38.66-.64.94-.11.12-.4.57-.42.6-.13.49-.44.97-.78,1.43-.37.44-.77.87-1.08,1.32Z"/><path d="m133.38,7.1c-.51-.45-1.9.09-1.96-.86-.5-.55-1.15-.51-1.8-.51-1.17.37-2.67-.33-3.93-.28.15.41.02.85,1.36.78.81-.03,1.9.28,2.86.49l.59-.12.13.18-.7-.03c.73.37-2,1.03.99,1.22.19-.31-.05-.88,1.09-.62.31-.22,1.29.22,1.36-.24Z"/><path d="m119.34,56.15c0,.06.17.09-.18.23,2.5-.86,5.26-1.64,7.02-3.31l-.12-.1-1.56.75c-1.69.86-3.4,1.68-5.16,2.44Z"/><path d="m125.69,5.45c1.26-.05,2.77.65,3.93.28.05-.72-1.04-.39-1.51-.56-1.8-.66-3.76-.93-5.66-1.18.12,1.3,2.09,1.03,3.24,1.47Z"/><path d="m94.73,1.02c1.36.12,2.92-.13,3.77.78.32.35.83.22.94-.11.08-.23-.01-.51.57-.59.24-.65-.92-.56-1.53-.64-1.36-.15-2.76-.16-4.14-.24.1.27-.26.57.38.8Z"/><path d="m87.75,3.11c-.94-.19-1.92-.38-2.58.19-.43.37-.69.15-1.08,0-.66-.26-1.31-.4-1.95-.39-.64.03-1.26.22-1.86.56.62.26,1.3.33,2.02.35.72.04,1.46,0,2.2-.04,1.09-.05,2.17-.14,3.25-.21v-.46Z"/><path d="m12.38,48.09c-.46.15-1.54.08.39,1.05,1.01.48,1.26,1.04,1.59,1.62.16.29-.23.59.64.88.7.24.71-.13.73-.44.02-.3.09-.58.15-.86-1.22-.69-2.38-1.44-3.5-2.25Z"/><path d="m57.74,2.97c-.04.62.03,1.12,1.82.49l1.24-.58.82-.14c.32-.26.81-.29,1.29-.35l.43-.52c-.02-.41-.58-.21-1.03-.09-1.52.4-3.04.8-4.57,1.2Z"/><path d="m3.06,34.97c-.14.28-.3.56-.39.86.13,1.19.87,2.19.54,3.37-.07.31.47.91.52.83.16-.29.98,1.07.75-.06-.46-.76-.64-1.67-.79-2.52-.04-.43-.16-.85-.23-1.26-.04-.2-.1-.41-.18-.61-.07-.2-.12-.4-.22-.61Z"/><path d="m58.49,4.85c-.44.24-1.06.76-1.27.74-.82-.05-.11-.38.12-.64.16-.17-.1-.24-.42-.18-.37.07-.75.22-.72.41.04.29.21.55.32.83,1.62.23,3.34-.15,5.06-.49l-.02-.51c-.03-.05-.04-.1-.04-.16l-.47.05c-1.08.39-2.12.7-2.57-.05Z"/><path d="m6.8,24.52c-.54.63-.5,1.1-.5,1.55.03.46-.03.87-.47,1.59.44-.21.9-.38,1.26-.68.35-.3.61-.73.76-1.39,0-.19-.11-.41,0-.55.91-1.07,1-1.27.69-1.23-.3.04-.92.38-1.27.52.04.15.22.22-.15.57l-.15-.3c-.06-.02-.12-.05-.18-.08Z"/><path d="m19.22,55.24c-.2-.5-.69-1.18-1.54-1.2-1.65-.05-3.47-2.24-4.87-1.82,2.04,1.32,4.19,2.34,6.41,3.02Z"/><path d="m54.02,63.88c-.55-.16-1.1-.33-1.65-.52l-.86-.26c-.05.44-.77.31-1.48.2-1.61-.63-3.16-.78-4.71-.5.11.21.53.46.85.46,2.58-.07,5.33.98,7.86.62Z"/><path d="m125.01,8.45c.09-.72-.08-1.3-1.82-1.07-.65.09-1.29-.21-1.94-.45-.65-.22-1.31-.41-1.97-.16,1.56,1.23,3.75,1.24,5.73,1.69Z"/><path d="m108.59,57.89c.67.28,1.85.27,3.13.18-.36-.35.17-.86.89-1.42-.89.04-1.6.42-2.35.71-.33.45-1.07.41-1.67.53Z"/><path d="m107.31,1.54c1.41,1.05,4.54,1.4,6.57.73-1.81-.64-3.75-.53-5.62-.77-.1.42-.54.2-.96.04Z"/><path d="m21.29,14.79c.46-.22.74-.44.62-.68l-.57.09-.2-.15.41-.1.42.09c.48-.21.66-.42.61-.65-.75.27-1.51.4-2.28.59-.75.22-1.52.49-2.24,1.06.46.56,1.84-.02,2.87-.14l.36-.13Z"/><path d="m39.47,61.32c-1.96-.44-3.89-.89-5.69-.78.58.48,1.16.78,2.22.68,1.34-.11,2.81.61,4.22.73v-.41c-.25-.07-.5-.14-.76-.22Z"/><path d="m89.89,2.09c1.77-.04,2.76-.84,2.21-1.81l-1.75-.09c.26.46-1.04.67-.79,1.14.5.21.29.5.33.76Z"/><path d="m3.3,30.89c-.1.96-.14,1.9-.01,2.8.14-.31.27-.62.38-.92.14-.3.29-.59.39-.88.17-.61.42-1.18.37-1.92l-.64-.17-.49,1.09Z"/><path d="m45.13,8.35l-1.07.28-.1.35c1.59-.26,3.25-.34,4.55-1.29-.54-.22-1.54-.14-1.83-.53-.28.15-.52.28-.76.41,0,.29.03.58-.79.78Z"/><path d="m87.75,3.11v.46s2.12,0,2.12,0c.45-.48.43-.97.03-1.47-1.05-.04-.8-.42-.82-.74-.16-.16-.4-.31-.81-.23-.48.1-.2.29-.11.43.33.54.94,1.1-.41,1.55Z"/><path d="m27.07,11.69l-.13-.39c-1.38.55-3.13.64-3.95,1.92.35.25.35,1.09,1.56-.27.53-.59,1.88-.56,2.52-1.26Z"/><path d="m55.05,63.69l-.15.48c1.65.52,3.21.29,4.78.21l-.79-.41c-.85-.22-.84-.56-.93-.88-.11-.02-.23-.04-.35-.05-.06.67-.37,1.22-2.56.64Z"/><path d="m74.07,62.61c1.14-.03,2.27-.06,3.41-.08.73-.02,1.29-.06,1.35-.39-1.53-.33-3.19.08-4.77-.02,0,.16,0,.32.02.49Z"/><path d="m58.89,63.97l.79.41c1.22.33,2.5.79,3.55.07-1.11-.27-2.26-.46-3.5-.64-.59-.08-.79-.07-.84.16Z"/><path d="m53.44,3.79c.06.05.09.12.18.15.67.21-1.56,1.16.22.92,1.29-.17,1.99-.93,1.76-1.59-.77.05-1.64-.13-2.16.52Z"/><path d="m136.01,46.89c.51-.15.97-.4,1.67-1.22.56-.7,1.16-1.19,1.65-1.34.2-.24.49-.52.5-.67l-.76.33c-.52.44-1.02.91-1.5,1.38-.51.45-1,.91-1.53,1.34l-.03.18Z"/><path d="m146.03,28.65c.2.77.41-.39.41-1.45.09-.78-.02-1.27-.16-1.59l-.2.03c.06.49.1.98.07,1.48,0,.5-.01,1.01-.12,1.53Z"/><path d="m103.89,60.76c-1.52.45-3.3.61-4.6,1.26,1.62.06,3.1-.67,4.66-.99l-.05-.27Z"/><path d="m7.58,44.06c-.9,1.16,1.21,1.62,1.91,2.33.13-.25.61-.36-.44-1.04-.52-.34-1.01-.84-1.48-1.3Z"/><path d="m55.69,6.22c-.21-.27-.14-.77-1.09-.57-1.29.27-.37.83-1.06,1.22,1.13.35,1.44-.43,2.15-.65Z"/><path d="m102.71,3.95l1.95-.28c-1.2-.18-1.23-.66-1.36-1.12-.08-.27-.34-.5-.92-.55-.22-.02-.56.05-.64.14-.21.25.25.35.61.49,1.3.5-1.14.74-.02,1.24.12.04.24.06.38.07Z"/><path d="m147.2,26.37c.09.9-.51,2.04-.12,2.77.32-.33.42-.36.12-2.77Z"/><path d="m67.48,3.6c1.15.05,1.13.54,1.42.91.88-.06,1.87.14,2.54-.43l-.05-.23c-.64-.04-1.73.26-1.88-.12-.32-.87-1.19-.4-2.04-.13Z"/><path d="m65.01,5.05c.46-.72-.85-.68-1.51-.92l-.61.49-.4.9c.89-.02,1.59-.62,2.53-.47Z"/><path d="m20.15,53.17l.23-.49c-.65-.48-1.3-.94-2.16-1.18-.12.26-.57.47.51.97.83.36,1.13.68.93,1.03.42.05.39-.18.49-.33Z"/><path d="m112.6,56.65c-.72.56-1.25,1.07-.89,1.42.77-.51,1.95-1.08,2-1.54l-.23-.16-.88.28Z"/><path d="m94.73,1.02c-.64-.22-.28-.53-.38-.8l-1.31-.13c-.23.7-.28,1.36,1.67,1.58v-.65Z"/><path d="m40.23,61.54v.41c.83.18,1.57.2,2.22.07-.31-1.32-1.27-.85-2.22-.49Z"/><path d="m133.24,47.33c.03.06.01.17.12.17.3,0-.53.98.57.22.97-.68-.04-.33,0-.56.02-.06.31-.32.48-.48-.3.07-.59.11-1.17.65Z"/><path d="m108.59,57.89c.6-.12,1.34-.08,1.67-.53l-.93.18c-.34.11-.64.17-.82.1-.55.2-1.11.36-1.66.53l.39.05c.45-.11.91-.21,1.36-.34Z"/><path d="m129.76,7.53s-.04.03-.02.06c.12.13-.54.14.49.39.35.07,1.06.1.42-.23l-.9-.22Z"/><path d="m71.91,63.11c.03-.31,1.12-.45.85-.81h-1.32c.16.27-.3.59.46.81Z"/><path d="m136.35,11.33c.08-.34-.25-.66-.63-.98-1.89-.33.22.67-.35.78.06.08.16.13.3.15l.55.14c.12.02.16,0,.13-.08Z"/><path d="m71.53,1.47l.85-.29c-.42-.41-1.46-.16-2.14-.3v.4s.07.41.07.41c.24,0,.41-.02.59-.04.04-.24.35-.2.64-.17Z"/><path d="m24.84,57.82c.05-.35-.89-.56-1.07-.89l-.71-.11.43.44c.39.28.84.47,1.35.55Z"/><path d="m42.76,9.38c-.34-.28-.73-.39-1.34.21.4.09.68.56,1.34-.21Z"/><path d="m91.84,62.7l-1.34.33c-.02.41.73.21,1.39.08l-.05-.41Z"/><path d="m38.95,10.1c-.61.21-1.33.32-1.67.76,1.01.13,1.4-.26,1.67-.76Z"/><path d="m125.18,6.72c.43.12.93.15,1.5.16-.47-.09-.74-.34-1.5-.16Z"/><path d="m107.23,58.23l-.39-.05-.84.2.07.13c.41.06.8-.02,1.16-.27Z"/><path d="m77.36,3.5s0-.07.05-.11c-.06.03-.12.05-.2.06l-.09.45.24-.4Z"/><path d="m108.5,57.64c.19.06.48,0,.82-.1-.05-.21-.33-.18-.82.1Z"/><path d="m91.54,3.66c-.04-.15.04-.39-.44-.38-.35,0-.29.17-.03.29l.47.08Z"/><path d="m70.23,1.28v-.4c-.43.11-.73.27-.85.49l.85-.09Z"/><path d="m72.4,1.06l1.13-.2c-.5-.21-.88-.16-1.13.2Z"/><path d="m74.05,62.61v-.48c-.28-.03-.43.02-.44.13.04.14-.17.32.44.35Z"/><path d="m5.57,27.96l-.37-.1c-.21.39.1.27.14.42.11-.09.18-.19.23-.32Z"/><path d="m107.32,1.54c.42.17.86.38.96-.04-.39-.11-.77-.22-.96.04Z"/><path d="m136.05,46.7c.52-.43,1.02-.9,1.53-1.34.48-.48.98-.94,1.5-1.38.32-.35.42-.54.38-.64l-.17-.25c-.53.52-.76.63-.69.33.03-.14.09-.33-.27,0-.22.18-.62.65-.6.67.18.13-.09.53-.46.98-.38.44-.87.93-1.08,1.28-.09.14-.1.24-.15.35Z"/><path d="m146.38,21.77c-.06-.47-.21-.92-.35-1.36-.15-.44-.32-.87-.61-1.24.62,1.44-.17.38.16,1.42l.23.83.14.85c.12-.25.05-1.2.43-.5Z"/><path d="m119.8,54.7c-.76.05-1.64.37-2.57.69.08.12,0,.33.26.34.35.02-.81.64.31.27.77-.27.55-.41.41-.53-.06-.06-.16-.3.42-.25,1.07.08.66-.43,1.16-.53Z"/><path d="m144.51,36.68c.22-.38.42-.78.64-1.17-.01-.2.36-1.26-.15-.4-.55.9-.54,1.3-.49,1.57Z"/><path d="m142.82,39.33c-.16.36-.29.7-.1.54.54-.49.82-1.29,1.22-1.96-.24-.06-.72.84-1.12,1.41Z"/><path d="m124.5,53.72l1.56-.75c-.17-.13-.71,0-1.32.32-.48.24-.25.31-.24.43Z"/><path d="m106.12,58.88c-.11.04-.23.08-.35.11v.25c.51-.14,1.15-.24,1.32-.51l-.97.15Z"/><path d="m145.29,35.2c.28-.08.44-.7.61-1.31l-.18-.02c-.15.45-.26.9-.42,1.33Z"/><path d="m140.03,41.71c-.07.06-.14.11-.21.17l-.09.25c.08-.08.18-.16.23-.23.05-.07.05-.12.07-.18Z"/><path d="m121.03,54.2l-.92.38c.14.01.27.08.43.03.46-.16.41-.28.5-.4Z"/><path d="m142.39,39.51l.38-.25c.24-.63-.06-.21-.38.25Z"/><path d="m145.71,33.87c.07-.23.22-.55.14-.57-.02,0-.11.14-.14.23-.14.38-.04.29,0,.34Z"/><path d="m139.28,43.09l.17.25c.32-.47.28-.57-.17-.25Z"/><path d="m129.85,50.09s.09,0,.14-.02c-.03-.03-.09,0-.14.02Z"/><path d="m104.92,59.45v.14s.85-.34.85-.34c-.28.07-.56.14-.85.2Z"/><path d="m141.67,40.62l-.09.06s.06-.04.09-.06Z"/><path d="m145.97,33.68l.14-.09c.08-.38.03-.31-.14.09Z"/><path d="m95.51,1.92c-.54.32-1.37.57-.8,1.11.25.23.54.44,1.08.49.79.08.9-.22,1.02-.5-.4-.35-.58-.7-.21-1.07.17-.17.14-.34-.33-.39-.57-.06-.67.16-.77.36Z"/><path d="m132.01,7.34c-1.14-.26-.9.31-1.09.62.4.16,1.03.17.96.61-.03.22.29.59.68.62.4.03.82-.13,1.02-.31.33-.3-.45-.33-.64-.5-.39-.33-.63-.69-.93-1.04Z"/><path d="m109.92,4.33c.64,1.14,2.12.95,3.52.92-.91-.7-2-1.13-3.52-.92Z"/><path d="m108.86,4.26h.45c.08-.04.14-.12.25-.14.86-.15,1.45-.37.66-.95-.21-.15-.8-.37-.73-.14.18.53-2.55.36-.63,1.22Z"/><path d="m99.36,3.61l1.23.22c.04-.29,1.11-.6.02-.85-.81-.18-1.4.13-1.25.63Z"/><path d="m105.25,3.74c.44.22.88.47,1.31.73,0-.26.77-.41.16-.72-.48-.25-1.04-.2-1.47,0Z"/><path d="m129.15,7.7c-.22-.15-.35-.28-.49-.31-.16-.04-.33.02-.5.04.11.1.2.23.34.28.15.05.34,0,.64,0Z"/><path d="m107.47,4.61h1.2s.18-.05.18-.05l-.03-.22c-.54,0-1.31-.2-1.36.27Z"/><path d="m98.26,3.52c.34.21.68.44,1.06.1l-1.06-.1Z"/><path d="m126.34,8.17c-.11-.08-.17-.06-.24-.05.04.03.08.06.24.05Z"/><path d="m5.33,45.59c.36.36.73.82,1.13.84.56-.26,1.38,1.07,2.07,1.18.26.03.48.96,1,.84.31-.08-.11-.72-.33-1.16-.23-.44-.45-.71-1.06-.97-.76-.33-1.58-.87-1.6-1.81-.03-.54-.69-.95-1.09-1.21-.67-.47-.42.13-.24.59.25.74.56,1.47.11,1.69Z"/><path d="m20.15,53.17c-.1.15-.07.37-.49.33-.18.16-1.17-.25-.83.27.12.18.45.48.71.59.87.36.45-.23.72-.32.15-.05.27-.12.47-.14.38-.03,1.3.26,1.06-.1-.27-.42-1.08-.29-1.63-.62Z"/><path d="m17.01,52.45c-.07-.07-.13-.14-.19-.21l-.3.04c.09.07.18.16.27.2.08.03.15-.01.23-.03Z"/><path d="m1.2,37.85l-.09-.47c.03.15.06.31.09.47Z"/><path d="m135.62,10.36c-.05-.09-.05-.16-.59-.36.05.09.29.22.59.36Z"/><path d="m10.04,20.74l-.73.54c.14.2.53.36.37.61-.28.44-.54.79-.23.93.16.07.32-.14.36-.26.14-.44,1.21-1.16.61-1.39-.2-.08-.26-.28-.38-.43Z"/><path d="m12.53,19.72c-.32,0-.5-.23-1.04.12-.07.05-.17.3-.12.33.28.19.73-.22,1.15-.45Z"/><path d="m21.29,14.79l-.36.13c.06.14.06.32.53.15l-.17-.28Z"/><path d="m6.97,24.6l.15.3c.37-.35.19-.43.15-.57l-.3.27Z"/><path d="m8.16,22.71l.29.09c.23-.39-.13-.13-.29-.09Z"/><path d="m145.58,20.59c-.33-1.03.46.02-.16-1.42-.25-.51-.46-.86-.66-1.09-.45-.47-.96-1.04-.52.03.56,1.71.96,1.61,1.33,2.48Z"/><path d="m141.61,14.61c.22.22.47.53.68.76.2.25.34.43.42.33.04-.05.03-.37-.51-.85-.5-.48-1.26-1.12-1.37-1.07-.08.04.07.16.27.32.18.17.41.37.51.5Z"/><path d="m142.46,14.75c-.28-.41-.44-.7-.68-.97-.31-.35-.96-.85-1.05-.78-.06.04.12.29.49.59.39.34.75.7,1.25,1.15Z"/><path d="m137.53,11.36c-.03-.07,0-.12-.39-.34-.12-.07-.22-.06-.32-.09l.72.43Z"/><path d="m143.33,16.27c-.11-.1-.05-.03,0,.04v-.04Z"/><path d="m138.2,11.85l-.16-.11-.17-.1c.1.09.2.17.33.21Z"/><path d="m79.1,2.9c-.11-.33-.56-.43-1.18-.29-.79.17-.46.51-.52.78.78,0,.77-.64,1.7-.49Z"/><path d="m89.08,1.35c.02.32-.23.7.83.75-.06-.26.16-.56-.35-.77l-.48.02Z"/><path d="m79.11,2.9l.1.08s-.07-.05-.1-.08Z"/><path d="m39.47,61.32l.77.22c-.11-.16.34-.33-.28-.47-.35-.08-.48.09-.48.24Z"/><path d="m50.02,63.31c.71.11,1.43.24,1.48-.2-.54.03-1.14,0-1.48.2Z"/><path d="m67.48,3.6c.85-.27,1.72-.74,2.04.13.14.39,1.23.08,1.88.12-.39-.43-.71-.88-1.19-1.28-1.02-.85-2.77-.77-4.08.15-.16.11-.23.29-.44.37-.77.31-.73,1,.09,1.15.34.06.34.06.47-.4.06-.22,0-.49.6-.56.18-.02.42.2.63.31Z"/><path d="m61.06,4.9l.47-.05c.71-.84-.66-1.28-.72-1.96l-1.24.58c-.02.64,1.74.72,1.5,1.43Z"/><path d="m62.91,2.39c-.47.06-.97.09-1.29.35.02.03.01.08.06.09.61.13.6.82,1.3.6,1.02-.33-.22-.65-.07-1.04Z"/><path d="m65.3,2.68c.12-.09.26-.15.24-.18-.05-.11-.16-.2-.25-.3-.05.07-.14.14-.14.19,0,.09.08.17.14.28Z"/><path d="m71.53,1.47c-.29-.03-.59-.06-.64.17.28,0,.68.15.64-.17Z"/><path d="m70.3,1.69l-.17.13c.08-.03.15-.07.17-.13Z"/><path d="m3.3,30.89l.49-1.09c-.53-.67.7-2.38.69-3.26-.25-.1-.4-.45-1.01.42.57-.14.24.55.11,1.03-.18.57-.56.66-.85.76-.24.37-.41.79-.62,1.19-.12.64-.09,1.15-.07,1.49.02.34.08.53.17.59.19.11.49-.33,1.09-1.11Z"/><path d="m2.73,28.75c.29-.1.67-.19.85-.76.13-.48.46-1.17-.11-1.03-.41.59-.99,1.33-.74,1.79Z"/><path d="m1.26,35.1c.5-.63.45-1.01.36-1.38-.09-.37-.32-.72-.28-1.14-.26.47-.38.92-.37,1.34.04.42.16.81.3,1.18Z"/><path d="m1.2,37.85l-.1-.48c-.14.19-.11.36.1.48Z"/><path d="m45.13,8.35c.82-.2.79-.49.79-.78-.22-.35.23-.38.72-.38.16-.45-.14-.89,1.03-1.31.13-.55-1.14-.04-1.41-.3-1.54,1.03-1.45,1.91-1.13,2.77Z"/><path d="m58.48,4.85l.53-.14c-.33-.13-.38.06-.53.14Z"/><path d="m85.21,62.72c-.19.16-.24.31-.28.46.87-.09,1.74-.18,2.61-.27.78-.09.78-.29.79-.49-.47.01-1.03.13-1.33-.04l-1.79.34Z"/><path d="m97.26,60.71c-.04-.14-.11-.29-.59-.23-.22.02-.48.19-.72.3.33.12.83.02,1.3-.07Z"/><path d="m87,62.38c.3.18.86.06,1.33.04-.29-.18-.82-.1-1.33-.04Z"/><path d="m92.26,62.5c0-.08.39-.22,0-.25-.04,0-.16.02-.2.04-.24.14-.08.19.21.21Z"/><path d="m28.56,13c.63-.39,1.72.66,2.04-.71-.18-.83-1.51.12-2.27.18l.23.53Z"/><path d="m36.93,9.46l-.16.09s.1-.06.16-.09Z"/><path d="m28.33,12.47l-.12-.05s.08.03.12.05Z"/><path d="m104.92,59.45l.86-.2v-.25c-.61.12-.88.27-.86.46Z"/><path d="m55.05,63.69c2.19.58,2.5.03,2.56-.64l-.41-.77c-1.59-.66-2.58-.02-3.88-.02-.22.59-.18,1.15,1.73,1.43Z"/><path d="m76.11,63.16l.19.02c0-.07-.08-.07-.19-.02Z"/><path d="m71.9,63.12c.15.04.3.09.46.13,0,0,.08-.04.12-.06-.19-.02-.38-.05-.58-.07Z"/><path d="m47.37,61.11l-.79-.31c.02.24.02.49.79.31Z"/><path d="m84.93,63.18l.13-.46c-.43.04-.9.07-.96.27-.06.2.36.22.83.19Z"/><path d="m42.47,8.58c0-.22-.05-.42-.49-.44.1.18-.03.45.49.44Z"/><path d="m40.13,8.08l.11.05s-.08-.03-.11-.05Z"/><path d="m43.53,7.48c-.13-.12-.17-.32-.4-.34-.3-.03-.51.21-.39.29.23.18-.51.82.78.49v-.44Z"/><path d="m43.53,7.48v.44c.6-.26.51-.39,0-.44Z"/><path d="m18.03,16.41c-.07,0-.14-.02-.23-.02,0,0-.13.09-.12.11,0,.05.05.09.08.13l.27-.22Z"/><path d="m23.73,55.9l.18.02c-.07-.01-.13-.02-.18-.02Z"/><path d="m129.93,6.75l.7.03-.13-.18c-.2.04-.39.08-.57.15Z"/><path d="m21.34,14.21l.57-.09c-.08-.09-.22-.12-.36-.15l-.21.24Z"/><path d="m46.64,7.18c-.49,0-.94.03-.72.38l.72-.38Z"/>
                  </g>
                </mask>
              </defs>
              <path class="mask" d="m144.1,12.32C105.74-2.46,57.96-1.11,21.06,15.78,11.49,20.16,1.73,26.9,2.08,35.57c.25,6.32,6,11.73,12.48,15.5,10.09,5.86,22.4,8.97,34.78,10.66,20.88,2.85,42.79,1.83,62.62-4.01,10.83-3.19,21.27-8,28.01-15.37,6.73-7.36,9.08-17.62,3.67-25.62-5.41-8-19.54-12.23-29.47-7.57"
                    mask="url(#path-mask)" stroke="black" stroke-width="2" fill="none"
                    stroke-dasharray="368.6502685546875" stroke-dashoffset="368.6502685546875">
              </path>
            </svg>
        