
            <svg xmlns="http://www.w3.org/2000/svg">
              <defs>
                <mask id="path-mask">
                  <g fill="white">
                    <path d="m105.67,79.46c4.94.39,1.82-.05,2.81-.06l3.55.36c2.9.32,6.29.65,9.05.98,5.66.76,16.35,1.18,20.92,1.15,3.13.19,5.11.18,6.43.15,4.16.23,10.36.32,13.57.54.88.15,4.54.35,1.47.44-2.22.04-4.62.09-8.17-.15-2.93-.18-5.6-.27-7.26-.21l-2.76-.1c-3.42-.04-8.04-.75-10.72-.52-1.07-.06-3.05-.18-3.08-.19-2.72.2-9.02-.44-14.48-.88l-.08-.09c1.5.08,1.19.03-.49-.1-.27-.02-.56-.04-.86-.06l-.17-.13c.93.06,2.29.18,2.28.13,0,0-.17-.03-.38-.05-.21-.02-.46-.04-.63-.06-1.58-.12-1.13-.04-1.3-.02-1.8-.11-3.61-.23-5.41-.37-.44-.04-.89-.07-1.34-.11.67,0,5.11.32,1.21-.09-4.12-.45-5.53-.47-6.38-.44-.79.04-2.55-.11-5.31-.47-.25-.19-4.24-.56-6.99-.89l.14-.04c2.6.2.58-.03-1.65-.3-3.01-.46-3.31-.33-5.21-.56l-.38-.07.43.07c-.19.07.93.34-4.55-.39-3.41-.46-6.34-.84-5.77-.6l-3.39-.46-2.94-.62c1.84.26,2.66.34,2.82.31,2.22.26,2.41.22.26-.14-2.93-.43-3.9-.63-2.83-.56.5.03,1.19.07-.75-.22-.57-.08-1.47-.21-2.22-.31-.38-.05-.72-.1-.97-.13-.25-.03-.39-.04-.39-.04.16.15-1.7-.06-3.99-.37-2.28-.33-4.93-1-6.44-1.28-.61-.12-.88-.15-1.3-.22l-.54-.07c-6.8-1.74-13.8-4.02-19.77-6.11-1.51-.54-3.56-1.45-4.98-2.16-2.57-1.27-4.28-2.2-5.67-2.91-3.83-2.36-7.61-5.18-9.97-9.2l-.06-.25c-.05-.19-.33-.78-.65-1.67-.32-.89-.64-2.11-.63-3.51.04-1.08.12-1.43.11-1.55,0-.12-.07.01-.08-.07.34-1.92,1.34-3.64,2.53-5.13,1.21-1.5,2.69-2.74,4.23-3.86,3.1-2.27,6.56-4.03,10.16-5.64l-.3.11c.08-.07-.49.14.87-.46.37-.21.5-.33,2.29-1.05-.57.4,2.93-.99,5.83-1.94,6.24-2.12,13.62-4.1,19.18-5.6,3.87-.99,6.46-1.7,10.26-2.51,2.29-.5,1-.33,1.17-.43,7.35-1.68,14.76-3.06,22.18-4.41v.12c-1.47.33-1.1.34-.37.28,1.27-.09-.61.31-4.58,1.02l-3.49.7c-2.08.42-4.6.9-5.49,1.19l3.83-.74c.5-.04,2.76-.44-.15.2-1.54.24-3.09.54-4.67.94-1.84.35-3.66.76-5.49,1.17-1.15.15-2.84.44-4.86.81-2.01.4-4.34.91-6.79,1.44-3.41.94-8.36,2.4-9.01,2.81-4.75,1.32-9.46,2.73-14.11,4.52-.14-.02.35-.29-.56,0-1.22.39,3.59-1.53-.81.12-3.04,1.18-2.4,1.06-2.04.99.16-.02.22.07-1.77.78-1.82.67-2.51,1.01-3.12,1.36-.62.34-1.16.66-2.65,1.42-.47.2-.82.33-1.4.67-1.69.94-1.62,1.03-2.05,1.34-2.63,1.69-5.14,3.63-6.86,6.25-.84,1.3-1.47,2.78-1.63,4.36-.15,1.57.09,3.21.75,4.73.68,1.58,1.53,2.64,2.2,3.4.7.75,1.25,1.21,1.66,1.52,3.67,3.54,8.22,6.09,12.87,8.22,4.68,2.12,9.57,3.77,14.48,5.32-.03.03-.36-.03-.05.1.88.38-3.9-.93,1.2.67,4.53,1.35.67.03,1.35.14.19.03,1.71.46,2.62.7,2.11.56,4.26,1.1,6.45,1.63,1.09.25,2.2.51,3.3.77,1.1.26,2.2.5,3.34.65,4.51.7,9.08,1.38,13.56,2,2.61.36,6.88.77,8.93,1.2,1.18.24,5.64.89,10.43,1.48,4.8.6,9.93,1.15,12.43,1.34Zm-29.74-3.64l-.98-.08c.44.06.96.14,1.3.19.34.04.5.04.75.06-.37-.06-.72-.12-1.07-.17Zm-49.59-12.64c-.17-.09-.42-.21-.63-.32.02.04.26.16.63.32Z"/><path d="m115.21,3.64c11.53-1.01,22.93-1.51,34.4-2.12,1.56.26,8.96-.32,13.76-.46.97.06.85.19,5.98-.1,3.1-.17,7.6-.28,11.59-.38,3.2-.02-6.63.57,5.07.14,1.72-.02,4.13-.1,4.37.02.12.06,1.79.11,3.31.08,1.56-.04,3-.13,3.55-.19.91-.11-2.09-.04-3.03-.06-1.84-.06-3.17-.1-4.7-.15.94-.11,5.16-.1,4.92-.22,2.59.14,11.66-.09,11.65.16,0,.12-3.67.25-5.23.42-1.62.17-8.6.24-14.15.32-2.5.03-4.88.05-7.36.08-2.4.06-5.35.03-7.1.19-1.87.16,4.75-.09,3.53.08-3.81.2-7.81.37-12.23.48-.34-.18-1.51-.31-8.12.19-4.92.38-11.14.44-15.88.91l-1.83.11-3.47.14c-5.84.12-12.1.5-18.88,1.24-4.04.16-8.6.46-14.44,1.21l-2.48.27c.29-.05.48-.09.9-.15,3.29-.43,5.48-.75,2.06-.52-.89.06-3.34.28-2.92.3,1,0-9.83,1.39-1.86.62-2.13.28-5.28.63-5.22.77l-3.71.5c-.14-.06,2.81-.54.28-.26-2.01.21-4.17.56-5.79.89l-2.33.36c-4.79.76-5.1.72-5.81.69-.41,0-1.55.1-3.82.57-.85.17-2.17.46-2.43.54-.73.23,1.11-.12,2.57-.38,5.26-.92-4.15,1.08.42.29-1.1.37-4.04.89-6.77,1.51l-.06-.08c.03-.1,4.07-1.12-.26-.2-3.2.67-5.41,1.29-4.73,1.29l-4.16,1.03c-1.93.41-3.84.93-5.76,1.4-1.63.34-2.45.46-1.12-.03.61-.22.44-.23-1.38.26-2.19.62-2.5.79-2.82.94l-3.08.84-.13-.17c5.18-1.51,11.03-3.26,14.62-3.87,1.36-.24,3.29-.77,3.58-.95.21-.12-.23-.12,2-.65,9.1-2.26,18.64-3.96,28.48-5.15,3.01-.31,7.63-.79,12.43-1.3,4.81-.52,9.8-1.06,13.55-1.46Zm61.48-2.69c-.64.03-1.26.06-1.88.09.53,0,1.02.02,1.61,0,.61-.03,1.32-.06,2.48-.11-1.01,0-1.62,0-2.21,0Z"/><path d="m424.75,54.35c1.97-1.08,3.36-1.94,4.5-2.69,1.15-.73,2.03-1.38,2.93-2.11.45-.35.54-.42.86-.66.15-.14.38-.3.67-.66.3-.34.71-.82,1.19-1.6.74-1.27.82-1.85.83-1.98,0-.14-.16.13-.31.36-.26.44-.53.61-.78.89.84-1.46,1.22-3.15.89-4.77-.31-1.62-1.24-3.1-2.36-4.38.03-.05.28.12.11-.12-.17-.23-.67-.98-2.54-2.47-2.87-2.18-4.36-2.92-4.16-3.01.42.07,3.98,2.4,2.29,1.15-.58-.47-2.01-1.36-2.98-1.9-3.31-1.71-1.17-.45-1.93-.76-.42-.17-.75-.26-1.38-.52-1.21-.55-4.83-1.97-3.51-1.34,1.5.75,4.14,1.68,6.35,2.94l-.1.18c-4.41-2.34-9.04-4.1-13.68-5.61-4.65-1.51-9.33-2.75-14.01-3.87.79.06,1.45.09,2.92.38,1.46.28,3.73.81,7.7,2.03,1.31.41,3.43,1.04,3.98,1.15.59.1-1.02-.48-2.83-1.01-.55-.28-1.11-.57-1.44-.79l2.65.72-2.1-.72c6.35,1.71,12.21,3.84,17.26,6.78,1.27.86,3.78,2.41,6.19,4.32,1.16.89,2.44,2.17,3.46,3.82.5.83.9,1.78,1.1,2.79.2,1.01.19,2.08-.04,3.07-.45,2-1.61,3.62-2.7,4.86-1.11,1.24-2.17,2.15-2.88,2.84-4.66,3.36-10.12,5.85-15.52,7.92.14-.3-4.03,1.22-7.53,2.4-3.12,1.06-5.01,1.57-7.41,2.18.77-.43,6.42-1.91,8.58-2.8.82-.31,3.69-1.07,4.85-1.67.72-.36-2.03.55-3.74,1.05-1.75.5-3.11.93-5.49,1.73-3,1.01-6.53,2.05-9.33,2.52-1.68.28-4.63,1.11-6.37,1.56-3.04.79-.55.28,1.25-.07,2.84-.57,5.64-1.18,5.16-.87l-1.77.51c-3.22.52-9.3,2.01-14.53,3.01-2.03.4-6.69,1.33-5.36.82.32-.12-6,1.13-6.17,1.23-.35.22-2.06.48-4.37.86l-1.7.28c-3.16.59-6.92,1.25-5.66.77,1.57-.39,1.52-.38-1.19-.03-1.19.15-2.77.35-3.04.34-.92-.02,3.87-.68,4.62-.89,2.42-.37,4.89-.85,7.28-1.24,2.39-.39,4.69-.76,6.76-1.01,1.06-.12,4.11-.78,3.92-.77-.86.06,5.78-1.21,1.08-.46.18-.11.7-.2,2.62-.57,6.27-1.19,12.56-2.46,18.82-4.23,1.03.3,7.97-2.02,11.97-3.34,4.65-1.54,7.98-2.96,12.7-5.06-.51.33-1.6.9-1.58.95.01.02.31-.07,1.08-.42.77-.35,2.04-.93,3.93-1.97Zm10.77-14.89l.39.93c-.15-.42-.26-.92-.45-1.25-.16-.29-.26-.42-.4-.64.16.34.34.63.45.96Z"/><path d="m271.66,78.88c3.07-.33,6.47-.69,9.82-1.05,3.34-.36,6.63-.73,9.44-1.16,5.01-.39,12.63-1.54,18.55-2.32,1.68-.22,2.33-.33,3.53-.52,3.68-.6,4.54-1.11.46-.58-4.29.56-5.64.68-6.75.72-1.15.04-3.27.2-7.33.92-.45.08-2.13.33-2.86.4-7.04.8-13.82,1.67-20.77,2.4-16.01,1.64-32.06,2.91-48.13,3.76l.04.12c1.36-.06,2.46-.13,2.77-.1,2.39-.16,5.24-.35,7.22-.48,4.76-.25,10.59-.85,14.35-.94,1.13-.01,5.78-.36,10.56-.72,4.78-.35,9.69-.86,11.35-1.04.55-.06,1.12-.15,1.04-.16-.81-.07,2.28-.3,3.68-.43,1.69-.13,2.72-.21,4.19-.32.83-.07,3.42-.39,3.18-.31-.15.05-1.64.25-3.65.48-4.2.52-10.15,1.06-10.68,1.31Z"/><path d="m249.44,82.79c4.2-.21,9.19-.41,11.95-.74-1.21.04-2.77.06-3.6.11-3.24.21-6.3.4-8.68.33-1.96-.06.78-.26,2.76-.44,3.5-.31,6.19-.37,9.04-.39,1.78-.01,4.75-.12,6.19-.26,4.94-.48,7.15-.41,10.1-.48,1.89-.11,4.27-.29,4.76-.21.1.02-.76.12-1.11.15-2.48.15-2.55.06-3.64.07l-5.28.66c3.5.1,8.03-.37,12.29-.71-.12-.09.15-.2,3.24-.42-.06-.06.22-.16-.23-.19-1.37-.09,3.73-.44,5.24-.65.42-.06,1.46-.16,1.78-.13.65.06-1.06.23-2.97.43-1.08.12-.26.18-.3.27,1.69-.22,6.5-.42,6.98-.66-.62.03-2.33.14-.67-.04l.62.04c2.45-.16.97.14,4.02-.12,1.07-.09,1.93-.3,2.89-.46-.04-.06.32-.14,1.78-.29-.08-.02-.17-.03-.27-.04l-1.61.13c-2.68.11-11.08.7.31-.35.74-.07,1.08-.18,1.61-.28-4.91.42-10.04.96-14.51,1.06-.54.02-7.13.67-11.54.95-1.21.16-2.7.29-5.35.44-7.75.48-15.87.72-23.28,1.24-2.99-.08-8.33.38-11.48.36-3.08,0-5.56.05-9.39.27-5.19.3-7.46.26-7.58.04l-8.57.24c.39.13-1.96.27-3.67.4,3.93.09,8.01.17-.29.53-1.06.04-.37.09.7.09,3.35-.2,8.26-.14,11.09-.33,6.51-.45,5.22-.15,6.1-.05l1.81-.06c.17-.08,1.15-.16,3.22-.22.24-.11,1.63-.18,3.64-.27l-.16-.11c1.99-.06,1.67,0,1.67.06,3.9-.02,9.77-.22,10.4,0Z"/><path d="m174.33,83.2c2.23,0,3.8-.03,4.97-.08,2.47-.11,5.5-.22.9-.36-7.23-.22-7.55.09-11.3.06l-6.89-.23c-3.21-.23-9.41-.32-13.57-.54l-.07-.15c3.99.15,8.62.2,11.6.38,3.76.23,7.67.27,12.08.32,17.33.05,34.75-.23,52.18-.99.31.05.29.12-1.88.25l-3.35.15-1.73.02c-.53,0-1.05.02-1.57.07-11.02.37-12.55.47-8.35.59.13,0,.16.01.24.02,9.73-.41,12.34-.12,21.85-.65,3.95-.27,9.21-.6,10.28-.47-2.59.16-5.51.49-6.37.46-1.65-.07-4.37.21-7.02.31-9.46.45-18.7.77-28.43.98-13.85.37-28.16.1-42.34-.26-2.82-.1-7.32-.21-7.52-.41,1.66-.06,4.33.03,7.26.21,3.55.24,5.96.2,8.17.15,3.65.12,7.3.28,10.86.18Zm17.36-.43c.07.06,1.07.16,3.9.08,2.73-.07,6.74-.2,6.89-.29.3-.13-3.26.07-4.54.05-2.49.05-6.47-.01-6.25.16Zm8.12.39c1.79,0,4.98-.13,5.09-.23.07-.06-1.1-.08-3-.02-2.04.05-4.03.1-6.67.17,1.95.04,3.16.1,4.58.08Zm-10.53-.25h-1.04s.13.03.13.03c.78-.01.82-.02.91-.03Z"/><path d="m23.91,22.24c-4.01,1.6-7.15,2.86-11.49,5.13-3.11,1.69-6.58,3.89-9.3,7.14-1.33,1.64-2.42,3.59-2.88,5.74-.47,2.14-.22,4.42.57,6.36,1.56,3.94,4.76,7.16,7.77,9.43l.15-.12c-.66-.61-2.28-2.22-.19-.49,3.17,2.47,4.75,3.23,6,3.91,1.28.64,2.28,1.14,4.75,2.37-2.59-1.38-4.83-2.7-6.78-3.93-.24-.16-.46-.3-.63-.42-.29-.12.64.75-1.95-1.12-2.02-1.5-3.29-2.77-3.46-3.1l-.28-.31.25.28c1.31,1.3,2.09,1.86,2.79,2.38.7.52,1.37.95,2.61,1.84.16.1.23.13.21.1-2.76-2.12-6.22-4.71-8.42-7.82-1.45-1.89-2.66-4.2-2.73-6.73-.15-2.52.9-5.03,2.48-7.03.96-1.2,1.7-1.88,2.91-3.11,1.87-1.91,5.21-4.02,8.59-5.63,4.78-2.45,2.49-1.53,1.22-1.14-.33.11-1.38.55.33-.3,1.46-.71,2.36-1.04,2.99-1.26l1.77-.74c-1,.23,3.76-1.7,2.72-1.44Z"/><path d="m332.56,10.86c-3.38-.51-6.9-.95-11.58-1.35-5.86-.39-12.05-.95-18.65-1.68-1.26-.03-3.61-.19-5.72-.33l-3.5-.34c.41.1,1.05.27,1.21.28,6.42.46,10.7,1.1,16.87,1.63,4.49.42,8.59.82,9.79,1.17.04,0,.49.06.74.09.85.06,1.7.13,2.56.2-.72-.31,3.8.16,7.25.58,11.33,1.32,22.73,2.58,34.17,4.31,6.89,1.06,7.28,1.07,3.95.85-1.01-.06-1.68-.08-2.51-.11,6.57.88,14.15,2.22,19.45,2.94-1.22-.25-2.41-.49-3.69-.72-2.09-.38-5.14-.72-6.03-1.02-.37-.13,2.96.29,5.06.58,1.12.16,3.22.53,4.87.84,1.39.25,2.89.54,3.57.61.88.09-.55-.24-1.97-.55-2.24-.48-2.81-.74-6.31-1.34-4.4-.9-9.27-1.75-15.12-2.5-6.7-.74-14.51-1.74-22.38-2.71.1.07-.26.1-1.68-.07-2.5-.3-.9-.21-1.44-.33-3.34-.21-6.81-.33-8.88-1.04Z"/><path d="m218.98,81.99l-1.73.02-.79.04-.79.04c-11.02.37-12.55.47-8.35.59.13,0,.16.01.24.02,9.73-.41,12.34-.12,21.85-.65,3.95-.27,9.21-.6,10.28-.47,2.86-.25,7.98-.61,10.13-.88-2.74.1-.07-.26,1.37-.36,4.21-.3,1.65.02,2.26.05.12,0,0,.03,0,.05,3.23-.13,8.7-.76,12.31-.99,2.21-.27,4.18-.46,5.87-.56.55-.25,6.5-.8,10.7-1.31,2.01-.24,3.5-.43,3.65-.48.24-.08-2.35.24-3.18.31-1.46.11-2.5.19-4.19.32-1.41.14-4.49.36-3.68.43.09,0-.49.09-1.04.16-1.66.18-6.56.68-11.35,1.04-4.78.36-9.43.71-10.56.72-3.77.09-9.6.69-14.35.94-1.98.13-4.83.32-7.21.47-2.31.19-2.42.13-2.78.1l-.04-.12-3.41.15c.31.05.29.12-1.88.25-.42.05-.73.1-1.3.13-1.81.09-1.82.04-2.05.01Z"/><path d="m33.27,68.09l.08.11c1.25.64,2.23,1.17,3.86,1.83,3.46,1.47,10.15,3.17,15.7,4.01.69.11,1.04.13,1.89.27,3.15.53,3.4.35.3-.33q-1.29-.28-2.06-.29c-.36,0-.28.1-2.64-.39-.72-.14-1.5-.41-2.26-.62-4.41-1.06-4.07-1.21-5.03-1.57,5.02,1.21,10.19,2.29,15.44,3.3-2.2-.18,2.94.78,5.37,1.3l2.68.29c1.8.26,3.59.53,5.4.75.08.03.1.05.06.06-3.32-.22,1.75.7,1.56.9l-3.26-.45c-.05-.02,0-.03-.17-.06-2.29-.43-1.83-.58-4.66-.98-4.17-.6.45.3-.36.29l-1.97-.17c-7.87-1.35-15.91-2.85-23.42-5.1-1.09-.33-2.18-.64-3.26-1l-.09-.17.69.19-.9-.27c-.68-.22-1.35-.46-2.02-.7-1.03-.39-2.42-1.01-2.42-.9-1.08-.4-2.15-.82-3.22-1.25l.45.17.48.22c-1.08-.51-2.94-1.39-4.72-2.23-1.78-.86-3.44-1.77-4.13-2.25-.32-.23-2.16-1.14-4.31-2.33-2.15-1.18-4.6-2.69-6.24-3.87-.55-.38-.91-.62-1.34-.95-.66-.61-2.28-2.22-.19-.49,3.17,2.47,4.75,3.23,6,3.91,1.28.64,2.28,1.14,4.75,2.37,4.73,2.43,9.44,4.5,13.99,6.39Zm21.79,6.49c.14.06.51.17.79.26.23.02.63.08.64.06.02-.03-.23-.1-.4-.18-.5-.07-1.07-.17-1.03-.15Z"/><path d="m287.46,80.46c-3.09.22-3.36.32-3.24.42l2.89-.17,2.23-.17c2.78-.18,5.5-.36,8.27-.55,2.77-.22,5.57-.46,8.51-.75,2.4-.23,5.86-.59,8.73-.78,3.15-.19,9.08-.85,10.08-.97,10.61-1.41,20.89-2.56,31.06-4.01,3.74-.52,6.06-1.04,9.12-1.53,15.56-2.61,31.11-5.77,46.13-10.85,1.61-.55,3.26-1.12,4.15-1.56.14-.3-4.03,1.22-7.53,2.4-3.12,1.06-5.01,1.57-7.41,2.18-1.08.4-3.23.96-5.1,1.44l-1.77.51c-3.22.52-9.3,2.01-14.53,3.01-2.03.4-6.69,1.33-5.36.82.32-.12-6,1.13-6.17,1.23-.35.22-2.06.48-4.37.86-.55.16-1.14.25-1.73.28-3.13.59-6.89,1.24-5.61.76-.85.12-1.72.25-2.58.37-2.67.5-5.43,1.02-9.19,1.37-3.08.57-6.06,1.21-10.08,1.31l-4.95.57c-1.05.31-4.38.58-7.05.88-3.92.42-3.24.23-3.52.17-4.51.67-9.05,1.06-13.6,1.26-.96.16-1.82.37-2.89.46-3.04.26-1.56-.04-4.02.12-.42.23-5.24.43-6.93.65l-3.53.25Z"/><path d="m102.75,81.17c2.42.33,5.09.64,8.72.82-2.05-.28-4.06-.58-1.61-.5,1.93.07,3.37.34,5.45.46,2.69.43,4.26.38,6.07.39,2.06.01,4.08.09,5.46.35,4.9.24,4.16,0,5.04-.07-.72-.18-4.67-.45-6.59-.67-3.25-.33-7.57-.64-11.68-.9-3.1-.17-5.76-.43-8.73-.72-3.03-.19.08.35-5.15-.14-3.88-.38-3.22-.47-3.82-.63l-3.45-.33c.24.12.69.26.63.36-.04.07-1.63-.09-3.11-.25-1.29-.15-2.26-.29-1.51-.25,1.1.06,4.12.33.95-.1-.8-.11-3.61-.29-5.49-.46-.6-.05-.91-.03-2.12-.24l2.16.25c-1.27-.45-5.57-.88-10.06-1.45-1.41.04,5.41,1.08,4.89,1.2,7.41.82,7.32.94,6.72,1.08,2.98.29,5.41.73,8.49.97-.42-.28,2.9-.14,8.03.38,7.12.66-2.32,0,.13.33.34.04.39.07.58.11Z"/><path d="m144.47,6.91l-2.8.25-5.42.55-1.99.2s.11.02.17.03c1.18-.1,1.76-.11.77.02-.14.02-.63.07-.79.09-1.54.12.08-.08.08-.11-2.83.28-4.91.53-6.21.76-2.07.35-4.77.68-6.94.91-2.16.22-3.8.33-3.73.29.39-.29-4.07.29-7.31.67-4.07.58-8.08,1.31-12.19,1.97-1.8.31-5.27.87-4.26.82.83-.04,4.58-.73,5.54-.82,2.97-.33,7.49-1.32,9.19-1.27,2.26-.28,4.92-.63,5.28-.57,1.9-.26,3.92-.51,5.16-.58,2.09-.24,4.19-.47,6.28-.71,2.1-.21,4.19-.41,6.26-.62,8.22-.79,15.32-1.61,23.64-2.13v-.14c-2.05.15-4.18.33-5.25.32.12-.09.19-.18,3.32-.42l-1.49-.07-7.31.56Z"/><path d="m211.66,83.77c-1.06,0-1.76-.05-.7-.09,8.3-.36,4.22-.43.3-.53-1.07.03-2.13.06-3.2.08l.07.2.4.02-.38-.02c-2.91-.01-9.22.25-8.74-.05-4.82.1-9.2-.1-14.57.13-.77.03-4.13-.02-4.3-.14l-5.09-.02c-2.21.16-8.63.2-7.4.45.06.01-1.1.02-1.7.03-3.77-.43-5.37.04-8.33-.08.02.02.01.04,0,.07,8.7.5,10.78.16,13.84-.06h.66s-.71,0-.71,0c.87.02,2.11.04,3.14.06.51,0,.98.02,1.31.02.34,0,.55.02.57.02.87.5,7.23.18,12.38.09,5.37-.08,11.55-.27,16.29-.14,2.33.02,1.99.2,6.05.09l.1-.14Z"/><path d="m43.77,16.35l-3.08.84c-7.49,2.19-7.43,2.03-6.72,1.56-2.47.7-2.31.79-3.5,1.2,2.3-.41-1.31.89-7.91,3.45,1.58-.44,1.75-.34.16.43,1.72-.5,3.08-1.12,4.53-1.69-.98.31-1.25.35.07-.12,1.8-.64,1.53-.46,1.73-.48,3.95-1.14,9.71-3.04,13.92-4.27,3.45-1.03,7.07-2,10.64-2.96,1.8-.45,3.58-.9,5.33-1.34,1.75-.42,3.47-.84,5.12-1.24l-.06-.08-4.87,1.06c-1.5.49-2.89.77-4.28,1.06-1.93.41-3.84.93-5.76,1.4-.39.2-.72.36-3.79,1.24-2.07.59-3.27.88-4.28,1.11-2.34.53.77-.49,2.75-1.17Z"/><path d="m108.57,11.27c-1.7-.05-6.22.94-9.19,1.27-.96.09-4.71.78-5.54.82-1,.05,2.47-.51,4.26-.82,4.12-.67,8.12-1.39,12.19-1.97l-1.5.09-1.99.26c-2.74.49-5.85.97-9.06,1.45-3.2.53-6.48,1.08-9.57,1.59-1.45.33-1.09.34-.35.28,1.27-.09-.61.31-4.58,1.02l-.06.07c-.04.09-1.21.34-3.64.77-.5.1-.98.2-1.45.3.5-.04,2.76-.44-.15.2l.15.03c9.68-1.84,19.41-3.35,29.21-4.82-1.59.09-4.51.35,1.26-.55Z"/><path d="m249.92,4.61c-2.04-.07-1.85-.33-5.49-.26-2.73.06-5.3-.2-8.02-.22-.77.23-4.45.1-8.32-.04-3.28-.14-5.98-.12-8.46-.04-2.56.08-3.69.18-.98.31,3.64.02,6.99.15,10.9.17,12.17.06,13.51.14,23.26.68.23.01.7.04.76.04,2.49-.01,5.61.15,8.75.32,3.14.19,6.29.4,8.82.43-.48-.14-.53-.27-3.95-.52-.12.08-.93.05-3.27-.09-4.95-.27-9.57-.53-14-.77Z"/><path d="m108.57,11.27c-5.76.9-2.84.65-1.26.55,3.82-.42,6.38-.69,11.82-1.5,3.92-.61,11.81-1.34,18.13-1.93,8.5-.82,17.43-1.52,26.05-1.96,3.78-.19,6.28-.3,5.85-.47-.41-.14-3.47-.02-6.88.25-2.37.15-4.73.31-7.1.46-8.33.52-15.43,1.34-23.64,2.13-2.07.2-4.16.41-6.26.62-2.09.24-4.19.47-6.28.71-1.01.15-2.13.33-3,.43-1.9.24-2.09.19-2.16.14-.36-.07-3.03.29-5.28.57Z"/><path d="m171.87,83.76c-3.07.21-5.14.56-13.84.06-2.33-.02-4.65-.04-6.97-.06-1.85.01-3.78,0-3.31.12,3.26.27,7.54.24,11.11.29,13.66.22,27.32.24,41.06-.08,3.67-.09,4.19-.17,5.59-.27-4.74-.12-10.92.06-16.29.14-5.15.08-11.51.41-12.38-.09-.02,0-.23-.02-.56-.02-.34,0-.8-.01-1.31-.02-1.02-.02-2.25-.04-3.1-.06Z"/><path d="m367.11,16.16c.83.03,1.5.04,2.51.11,3.34.23,2.95.21-3.95-.85-11.44-1.72-22.84-2.99-34.17-4.31-3.44-.42-7.97-.89-7.25-.58,6.41.92,13.44,1.69,21.17,2.49,4.99.52,8.78,1.08,7.79,1.21,5.02.52,9.15,1.27,13.89,1.92Z"/><path d="m271.13,6c-2.54-.02-5.69-.24-8.82-.43-3.14-.17-6.27-.34-8.75-.32-.06,0-.52-.03-.76-.04-9.74-.55-11.08-.63-23.26-.68-3.91-.02-7.25-.15-10.89-.17,1.54.24,3.23.41,9.22.62l4.39-.07c1.62-.12,4.11-.03,7.64.08,4.29.12,9.49.32,13.21.46,7.5.35,14.18.45,21.31,1.03l-1.87-.4c-.48-.03-.95-.06-1.41-.09Z"/><path d="m183.35,5.23c2.24-.28,4.06-.55-4.94-.22-2.9.11-1.08-.05-.86-.11,2.21-.15,4.55-.26,6.72-.33,2.17-.05,4.19-.07,5.78-.07,8.04-.01,9.86-.16,11.59-.45l1.65-.04c5.29.07,13.97.09,5.73.48-1.49.07-1.45.18-2.11.28-4.55.02-9.11.13-13.65.21-2.94.08-5.15.15-5.45.29-1.69.04-3.38.07-5.07.14.19-.06.12-.11.63-.18Zm14.5-.56c.18,0,.48,0,.91-.03-.25,0-.5,0-.91.03Z"/><path d="m194.44.19c2.59.14,11.66-.09,11.65.16,0,.12-3.67.25-5.23.42-1.62.17-8.6.24-14.15.32-2.5.03-4.88.05-7.36.08-2.4.06-5.35.03-7.1.19-1.87.16,4.75-.09,3.53.08,8.16-.03,18.3-.41,26.76-.25,2.67.06,2.07-.12,4.22-.14,2.07-.07-7.23-.17.41-.22,2.56-.18,9.29-.22,8.27-.46-1.59-.04-3.64-.05-4.67-.1-2.56-.11-2.5-.42-9.02-.16-.06,0-2.35-.05-3.81-.09-4.25-.03-8.29.04-11.86.21,1.22.23,5.95-.1,8.36-.03Z"/><path d="m217.19,1.06c2.12.04,3.64.08,4.74.16,2.75.2,7.95.39,12.03.41,3.65.03,6.95,0,7.36-.15.76-.25-3.8-.58-14.02-.78-2.49-.03-5.6-.2-8.42-.27-3.09.09-1.91.25,1.44.39,3.39.15,6.5.14,8.91.1.88-.02,4.96.03,4.61.14-.31.09,2.04.26.55.31-.92.04-1.37.1-4.13.04-2.87-.07-4.12-.15-4.45-.23-.35-.08-.77-.16-3.96-.21-3.1-.04-4.68,0-4.66.1Z"/><path d="m274.42,6.49c-7.13-.58-13.82-.68-21.31-1.03-3.72-.13-8.91-.34-13.21-.46-3.53-.11-6.01-.2-7.64-.08,3.01.22,6.77.37,10.71.46,3.94.14,8.05.22,11.77.39,11.1.47,22.45,1,33.23,2.01l.9-.03c-1.59-.22-7.22-.74,1.37-.17,2.81.2,4.41.2-.43-.2-5.1-.32-8.85-.31-15.39-.9Z"/><path d="m223.5,82.51c.12.22,2.39.26,7.58-.04,3.82-.21,6.3-.27,9.39-.27,3.15.02,8.49-.44,11.48-.36,7.41-.52,15.53-.75,23.28-1.24,2.65-.16,4.15-.29,5.35-.44-7.14.28-14.86.68-23.17,1.11-5.3.25-10.69.52-16.48.63-5.04.12-11.56.42-17.43.61Z"/><path d="m91.43,7l-3.71.5c-1.84.19-3.68.39-5.51.63-.78.12-1.55.24-2.34.36-2.53.43-5.03.96-7.55,1.44,4.5-.52,13.38-2.06,19.82-2.84,12.77-1.6,25.74-2.7,38.67-3.55l3.45-.27c-5.84.12-12.1.5-18.88,1.24-5.49.5-11.28,1.16-14.44,1.21-.83.09-1.66.18-2.49.27-.59.07-1.18.15-1.77.22.03.04.11.05.18.07.18,0,.36-.01.54-.02l-1.23.13-4.76.62Z"/><path d="m47.14,23.78c-4.74,1.32-9.46,2.73-14.1,4.52-3.69,1.37-7.15,2.85-9.79,4.07-1.18.6-2.06,1.07-2.77,1.49-.72.4-1.29.75-1.84,1.12-2.63,1.69-5.14,3.63-6.86,6.25-.84,1.3-1.47,2.78-1.63,4.36-.15,1.57.09,3.21.75,4.73.68,1.58,1.53,2.64,2.2,3.4.7.75,1.25,1.21,1.66,1.52-1.65-1.64-3.12-3.52-3.89-5.69-.79-2.14-.74-4.55.23-6.63.94-2.09,2.54-3.85,4.35-5.32,1.8-1.49,3.78-2.77,5.85-3.9,4.14-2.26,8.52-4.09,12.98-5.69,4.46-1.61,8.99-3.02,13.55-4.32l-.7.09Z"/><path d="m177.54,4.9c2.21-.15,4.55-.26,6.72-.33,2.17-.05,4.19-.07,5.78-.07,8.04-.01,9.86-.16,11.59-.45-13.23.12-26.47.49-39.66,1.49-3.19.25-5.19.23-7.78.43-3.57.3-9.07.64-9.72.94l7.31-.56c4-.31,8.01-.5,12.02-.75,4.58-.24,9.16-.53,13.74-.7Z"/><path d="m84.47,77.3c-.19.07.93.34-4.55-.39-3.41-.46-6.34-.84-5.77-.6,14.04,2.02,28.14,3.7,42.84,4.65l-.08-.09-.49-.1c-.27-.02-.56-.04-.86-.06-2.46-.14-4.9-.3-5.6-.51-.44-.04-.89-.07-1.34-.11l-5.17-.54c-.79.04-2.55-.11-5.31-.47-3.04-.33-6.22-.54-8.97-.98-.91-.14.48-.05,1.98.09l.14-.04-1.65-.3c-3.01-.46-3.31-.33-5.16-.55Z"/><path d="m203.27,4.01c5.29.07,13.97.09,5.73.48-1.49.07-1.45.18-2.11.28,2.52,0,1.68.08,1.84.14l3.38-.03c-1.05-.14,3.32-.22,3.43-.33l-2.26-.03c.17,0,.48-.03.49-.03.62.02,1.22.04,1.83.06,3,.1,1.16.22,1.79.33,3.41.18,6.89.21,10.49.11-5.98-.21-7.67-.38-9.22-.62-2.71-.13-1.58-.23.98-.31,2.47-.08,5.18-.1,8.46.04,3.87.15,7.55.27,8.32.04-8.71-.24-17.6-.22-26.21-.29-3.4-.02-5.18.05-6.93.16Z"/><path d="m289.81,7.38c4.83.4,3.24.4.43.2-8.59-.57-2.97-.05-1.37.17,1.48-.03,4.16.27,6.22.43-.22-.11,1.37-.1,2.63.04,6.25.69,10.71.81,16.16,1.36,2.92.17,3.07.28,3.29.39,2.94.39,3.68.38,4.55.38-.26-.03-.71-.09-.75-.09-1.19-.36-5.3-.75-9.79-1.17-6.18-.54-10.46-1.17-16.87-1.63-.16-.01-.79-.18-1.21-.28l-6.69-.62-3.55-.33-.43.16c7.6.58,8.03.82,7.39,1.01Z"/><path d="m382.05,17.51c3.5.6,4.08.86,6.31,1.34,1.42.31,2.86.64,1.97.55-.68-.07-2.18-.37-3.57-.61-1.66-.31-3.76-.68-4.87-.84-2.1-.29-5.43-.71-5.06-.58.89.29,3.94.64,6.03,1.02,1.28.23,2.46.47,3.69.72,1.59.4,3.06.58,4.58.87,2.55.45,5.27.96,4.55.68-2.82-1.06,5.08.52,12.05,2.46-.41-.16-1.53-.49-2.57-.79-1.05-.29-2.03-.56-2.15-.66-5.77-1.38-11.25-2.63-17.14-3.69-4.23-.73-3.33-.47-3.82-.47Z"/><path d="m313.87,9.58c-5.45-.55-9.91-.67-16.16-1.36-1.26-.14-2.85-.14-2.63-.04,10.94.89,21.82,1.88,32.72,3.03,5.47.58,11.21,1.26,16.61,1.97,3.27.41,5.92.74,8.79,1.06.99-.14-2.8-.69-7.79-1.21-7.74-.8-14.76-1.57-21.17-2.49-.85-.07-1.71-.13-2.56-.2-.86,0-1.6.01-4.54-.38l-3.29-.39Z"/><path d="m177.54,4.9c-4.58.17-9.16.46-13.74.7l-.13.14c1.87-.12,3.53-.17,3.24-.07-.28.1-2.18.18-3.89.3-.63.1-.67.17-.71.24,3.41-.26,6.46-.39,6.88-.25,4.39-.18,8.92-.37,13.54-.56.19-.06.12-.11.63-.18,2.24-.28,4.06-.55-4.94-.22-2.9.11-1.08-.05-.86-.11Z"/><path d="m151.05,83.77l6.97.06v-.07s-.37-.03-.37-.03l.36.03c2.97.12,4.56-.35,8.33.08.6-.01,1.76-.02,1.7-.03-1.24-.25,5.19-.29,7.4-.45-.37-.08-1.92-.07-3.3-.08-1.82.11-4.73.06-7.3.03-1.9-.06-3.09.21-4.1,0-1.08-.22-4.23-.13-5.99-.22-3.03.07-4.4-.04-5.42-.19-1.8-.08-3.94-.28-5.06-.13l-.78.08c2.11.11,3.16.26,6.12.34,2.02.09,1.25.15,1.43.22,9.23.33-1.23.21,0,.36Z"/><path d="m112.03,79.76c2.9.32,6.29.65,9.05.98,5.66.76,16.35,1.18,20.91,1.15-4.25-.24-8.96-.48-5.97-.54-8.15-.43-16.26-1.17-23.99-1.59Z"/><path d="m151.04,83.41c9.23.33-1.23.21,0,.36-1.85.01-3.78,0-3.31.12-5.26-.13-10.83-.15-15.59-.64-.23-.02-.31-.04-.22-.05,6.92.12,7.49-.19,7.13-.5l4.43.16c2.11.11,3.15.26,6.12.34-.2.07-.26.13,1.43.22Zm-5.52.07c1.11.07,2.17.04,1.81,0-.7-.1,2.83-.14-2.47-.3-2.64-.05-2.43.01-.52.13.36.06.33.13,1.17.18Z"/><path d="m271.93,81.59c-1.61.09-2.95.03-4.78.25-4.05.46-4.44.25-5.77.22-1.21.04-2.77.06-3.6.11-3.24.21-6.3.4-8.68.33-1.96-.06.78-.26,2.76-.44,3.5-.31,6.19-.37,9.04-.39,1.78-.01,4.75-.12,6.19-.26,4.94-.48,7.15-.41,10.1-.48-1.75.22-3.51.44-5.27.66Zm-19.29.69s.61-.04.64-.04c.07-.02-.02-.04-.05-.05l-1.34.08c.24,0,.46,0,.75.01Z"/><path d="m51.47,72.2c-6.8-1.74-13.8-4.02-19.77-6.11-1.51-.54-3.56-1.45-4.98-2.16-2.57-1.27-4.28-2.2-5.67-2.91,2.51,1.62,5.47,3.09,8.6,4.4,3.14,1.29,6.43,2.41,9.63,3.45,4.15,1.33,8.19,2.54,12.27,3.62,2.05.54,4.09,1.05,6.19,1.52,1.05.27,2.12.39,3.19.56,1.07.15,2.15.31,3.23.46,1.26.17,2.81.4,3.39.43-1.74-.39-4.71-.86-8.18-1.33-4.17-.75-6.04-1.36-7.9-1.93Z"/><path d="m217.19,1.06c-.02-.1,1.56-.14,4.66-.1,3.19.06,3.61.13,3.96.21.33.08,1.58.16,4.45.23,2.76.06,3.21,0,4.13-.04,1.5-.05-.86-.22-.55-.31.35-.11-3.72-.16-4.61-.14-2.41.04-5.53.05-8.91-.1-3.34-.14-4.53-.3-1.44-.39-1.15-.06-2.29-.1-3.45-.06,1.01.24-5.71.28-8.28.46,1.82.05,3.49.13,3.6.21l6.43.02Z"/><path d="m304.82,78.98c4.55-.2,9.09-.59,13.6-1.26,2.63-.5,10.8-1.29,12.22-1.76l-.63-.16c-2.98.3-5.68.56-8.12.93-.38.08.74.03-1.07.24l-.56-.07c-.5.04-1.04.09-1.63.16-7.03.72-5.57.97-12.04,1.63-1.45.15-1.82.23-1.78.29Z"/><path d="m108.8,10.66l1.5-.09c3.23-.38,7.7-.96,7.31-.67-.06.04,1.57-.07,3.73-.29,2.16-.22,4.86-.56,6.94-.91,1.31-.23,3.39-.48,6.21-.76-.13,0-.19-.01-.23-.03l.11-.2c-8.45.78-16.81,1.57-25.57,2.94Z"/><path d="m29.58,28.72c-.57.4,2.93-.99,5.83-1.94,6.24-2.12,13.62-4.1,19.18-5.6,3.87-.99,6.46-1.7,10.26-2.51,2.29-.5,1-.33,1.17-.43-8.1,1.77-15.96,3.59-24.27,6.25-3.6,1.14-8.15,2.62-12.17,4.23Z"/><path d="m208.06,83.23c1.07-.03,2.14-.06,3.2-.08,1.71-.13,4.06-.27,3.67-.4-8.63.1-17.87.44-26.61.32-3.52-.06-4.61.23-7.78.3.17.12,3.53.17,4.3.14,5.37-.23,9.75-.03,14.57-.13,3.11-.45,5.73-.04,8.65-.15Z"/><path d="m353.21,73.43c.86-.12,1.72-.25,2.58-.37,1.57-.39,1.51-.38-1.19-.03-1.19.15-2.77.35-3.04.34-.92-.02,3.87-.68,4.62-.89l-3.62.39-5.64.77c-3.8.58-7.59,1.21-11.4,1.74,3.92-.35,5.83-.58,5.62-.46-.22.1-2.56.52-7.19,1.19,4.02-.1,7.01-.74,10.08-1.31,3.04-.42,4.47-1.01,9.19-1.37Z"/><path d="m407.74,23.11c-6.97-1.94-14.87-3.52-12.05-2.46.72.28-2-.23-4.55-.68.75.38,4.37.93,6.49,1.45.79.06,1.45.09,2.92.38,1.46.28,3.73.81,7.7,2.03,1.31.41,3.43,1.04,3.98,1.15.59.1-1.02-.48-2.75-.99l-.75-.21.67.18c-.55-.28-1.11-.58-1.67-.84Z"/><path d="m132.16,83.24c-.23-.02-.31-.04-.22-.05-.76-.13-6.12-.37-5.11-.48-1.38-.26-3.39-.34-5.46-.35-1.81,0-3.37.04-6.07-.39-2.07-.12-3.52-.39-5.45-.46-2.44-.08-.44.21,1.61.5,6.99.59,14.42,1.24,20.69,1.25Z"/><path d="m29.48,67.55c-1.08-.51-2.94-1.39-4.72-2.23-1.78-.86-3.44-1.77-4.13-2.25-.32-.23-2.16-1.14-4.31-2.33-2.15-1.18-4.6-2.69-6.24-3.87-.55-.38-.91-.62-1.34-.95l-.15.12c2.41,2.03,4.98,3.66,7.6,5.14,2.62,1.49,5.31,2.81,8.08,4.15,1.38.63,2.77,1.24,4.17,1.82.55.23.9.36,1.05.4Z"/><path d="m82.81,76.63c1.18.24,5.64.89,10.43,1.48,4.8.6,9.93,1.15,12.43,1.34,4.94.39,1.82-.05,2.81-.06-3.14-.26-6.3-.49-9.27-.91-.65-.08-2.83-.33-2.96-.35-4.02-.22-9.04-.98-13.44-1.51Z"/><path d="m194.44.19c-2.41-.07-7.13.26-8.36.03-2.47-.06-4.92.05-7.36.16-4.08.27-10.55.39-15.34.68.97.06.85.19,5.98-.1,3.1-.17,7.6-.28,11.47-.38l2.14-.12.68.02-2.69.1c3.2-.02-6.63.57,5.08.14.41-.1-1.13-.21,3.5-.3.94-.11,5.16-.1,4.92-.22Z"/><path d="m26.41,30.23c.08-.07-.49.14.87-.46-2.43,1.02-4.85,2.18-7.19,3.5-2.33,1.32-4.58,2.82-6.53,4.66-1.94,1.81-3.53,4.15-4.03,6.75-.51,2.61.28,5.21,1.54,7.14l-.06-.25c-.56-1.02-1-2.12-1.24-3.28-.24-1.16-.23-2.36,0-3.52.34-1.92,1.34-3.64,2.53-5.13,1.2-1.49,2.68-2.73,4.2-3.85,3.06-2.25,6.45-3.99,9.9-5.55Z"/><path d="m163.38,1.06c4.79-.29,11.26-.41,15.34-.68-.56-.18-4.36.07-6.32.12-7.5.17-15.23.55-22.78,1.01,1.56.26,8.96-.32,13.76-.46Z"/><path d="m40.56,17.01c5.18-1.51,11.03-3.26,14.62-3.87,1.36-.24,3.29-.77,3.58-.95.21-.12-.23-.12,2-.65.34-.18-.6-.01-1.92.28-1.31.32-2.99.74-4.16,1.03-5.26,1.31-10.53,2.84-15.76,4.4.45-.05-.84.44,1.64-.24Z"/><path d="m14.88,27.12c-3.39,1.61-6.72,3.71-8.59,5.63-1.21,1.23-1.95,1.92-2.91,3.11-1.59,2-2.63,4.5-2.48,7.03.07,2.53,1.28,4.84,2.73,6.73-.66-1-1.27-2.11-1.74-3.33-.42-1.22-.76-2.54-.72-3.91.04-2.74,1.37-5.48,3.31-7.62,2.85-3.2,6.6-5.5,10.43-7.49l-.02-.15Z"/><path d="m421.33,55.79c-.51.33-1.6.9-1.58.95.01.02.31-.07,1.08-.42.77-.35,2.04-.93,3.93-1.97,1.97-1.08,3.36-1.94,4.5-2.69,1.15-.73,2.03-1.38,2.93-2.11.45-.35.54-.42.86-.66.15-.14.38-.3.67-.66.3-.34.71-.82,1.19-1.6.74-1.27.82-1.85.83-1.98,0-.14-.16.13-.31.36-.26.44-.53.61-.78.89-1.37,2.37-3.6,4.2-5.9,5.79-2.33,1.58-4.85,2.89-7.42,4.09Z"/><path d="m85.52,79.38c.59-.14.69-.26-6.72-1.08-1.73-.16-3.46-.37-5.19-.57l-3.26-.45c-1.4-.14-3.33-.46-5.19-.75l-1.97-.17c-.18.12,2.11.44,3.92.7,6.14.91,12.27,1.65,18.42,2.32Z"/><path d="m352.55,72.86l3.62-.39c2.42-.37,4.89-.85,7.28-1.24,2.39-.39,4.69-.76,6.76-1.01,1.06-.12,4.11-.78,3.92-.77-.86.06,5.78-1.21,1.08-.46-7.49,1.43-15.72,2.58-22.66,3.86Z"/><path d="m83.93,78.54c1.88.16,4.7.35,5.49.46,3.18.43.16.15-.95.1-.74-.04.22.11,1.51.25,1.48.17,3.07.32,3.11.25.06-.09-.39-.23-.63-.36-6.19-.88-13.25-1.62-20.23-2.61l-.24.14c.08.03.1.05.06.06l1.86.27c4.5.58,8.8,1,10.02,1.44Z"/><path d="m306.59,78.69c6.46-.65,5.01-.91,12.04-1.63-3.61.18-7.29.38-12,1.08-.53.09-.86.21-1.61.28-11.39,1.05-2.99.47-.31.35.27-.07-.04-.11,2-.28l-.39.15c.11.01.2.03.27.04Z"/><path d="m425.78,29.94c1.27.86,3.78,2.41,6.19,4.32,1.16.89,2.44,2.17,3.46,3.82.5.83.9,1.78,1.1,2.79.2,1.01.19,2.08-.04,3.07-.45,2-1.61,3.62-2.7,4.86-1.11,1.24-2.17,2.15-2.88,2.84.94-.73,1.88-1.49,2.7-2.38.84-.86,1.61-1.83,2.19-2.93,1.29-2.13,1.39-5.01.37-7.26-1.05-2.25-2.77-3.97-4.57-5.43-1.82-1.46-3.8-2.62-5.81-3.69Z"/><path d="m286.4,6.55l6.69.62,3.5.34c0-.16,2.9.07,5.72.33,6.6.73,12.79,1.29,18.65,1.68-.55-.13-2.34-.38-3.56-.47-10.02-.83-21.25-2.04-31.01-2.49Z"/><path d="m163.55,1.91c-.34-.18-1.51-.31-8.12.19-4.92.38-11.14.44-15.88.91,7.17-.12,15.84-.77,24-1.1Z"/><path d="m67.8,18.71c-1.15.15-2.84.44-4.86.81-2.01.4-4.34.91-6.79,1.44,1.01-.03-1.48.71-4.74,1.73,3.4-.81,6.43-1.59,9.56-2.4,1.65-.59,4.43-1.06,6.83-1.58Z"/><path d="m89.23,6.39c3.01-.31,7.63-.79,12.43-1.3,4.81-.52,9.8-1.06,13.55-1.46-7.43.47-14.88,1.29-22.28,2.23-.17.15-1.99.31-3.7.53Z"/><path d="m237.52,82.84c-2.01.08-3.4.16-3.35.25l2.21-.03.49.06-1.64.03-1.36-.04c-2.06.06-3.05.14-3.22.22,6.31-.16,11.79-.13,18.77-.54-.62-.22-6.5-.01-10.4,0-.5.02-1.01.03-1.52.05Z"/><path d="m344.56,12.3c7.87.97,15.67,1.97,22.38,2.71-2.62-.49-5.09-.89-9.04-1.28-5.01-.49-11.19-1.43-16.72-2.01l.3.19c1.01.13,2.05.26,3.09.39Z"/><path d="m22.55,23.39c6.6-2.56,10.21-3.86,7.91-3.45-2.2.72-4.38,1.48-6.55,2.3,1.04-.26-3.72,1.67-2.72,1.44,1.9-.69,1.15-.29,1.37-.29Z"/><path d="m335.51,75.37c3.81-.53,7.6-1.16,11.4-1.74-2.89.32-5.77.65-8.6,1.02-2.83.34-5.62.7-8.31,1.14l.63.16,4.87-.58Z"/><path d="m139.07,82.69l4.43.16.77-.08c-6.45-.26-13-.64-18.99-.8,1.91.22,5.86.5,6.59.67,1.24.03,2.29.06,3.35.09.28-.08.45-.16,3.85-.03Z"/><path d="m14.88,27.12l.02.15c2.54-1.28,5.16-2.41,7.81-3.45,1.58-.77,1.41-.87-.16-.43-3.89,1.55-3.01,1.1-3.14,1.03-.63.22-1.53.55-2.99,1.26-1.71.85-.66.42-.33.3,1.27-.39,3.56-1.31-1.22,1.14Z"/><path d="m211.66,83.77l-.1.14c5.87-.12,12.32-.06,17.29-.52-.88-.11.42-.4-6.1.05-2.83.18-7.74.13-11.09.33Z"/><path d="m282.42,6.38l.43-.16c-6.66-.58-12.7-.8-18.88-1.05l3.22.31c3.42.25,3.47.38,3.95.52.46.03.93.06,1.41.09.03-.25,1.07-.41,9.88.29Z"/><path d="m206.88,4.77c-4.55.02-9.11.13-13.65.21-2.94.08-5.15.15-5.45.29,6.07-.02,12.83-.3,19.15-.3.01-.06.02-.13-.04-.2Z"/><path d="m267.18,5.48l-3.22-.31c-4.92-.31-10.02-.73-14.05-.56,4.42.24,9.05.5,14,.77,2.34.14,3.15.17,3.27.09Z"/><path d="m102.75,81.17c-.19-.04-.24-.07-.58-.11-2.45-.32,6.99.33-.13-.33-5.13-.52-8.45-.66-8.03-.38,3.01.33,6.2.78,8.74.82Z"/><path d="m51.47,72.2c1.86.57,3.73,1.18,7.9,1.93,3.47.47,6.44.94,8.18,1.33,1.21.16,2.76.39,3.21.4-.98-.21-1.96-.41-2.95-.62-2.66-.41-5.31-.81-7.96-1.22-1.33-.16-2.64-.53-3.94-.81-1.3-.3-2.6-.62-3.9-.95l-.54-.07Z"/><path d="m136.02,81.35c-2.99.06,1.73.31,5.97.54,3.13.19,5.11.18,6.44.15l-.07-.15c-2.02-.06-4.04-.09-6.08-.19-2.04-.11-4.12-.23-6.25-.35Z"/><path d="m88.19,13.95c3.08-.51,6.37-1.06,9.57-1.59,3.21-.48,6.32-.96,9.06-1.45-3.11.38-6.22.85-9.32,1.33l-9.29,1.59v.12Z"/><path d="m396.65,64.2c1.03.3,7.97-2.02,11.97-3.34-.3-.03.84-.5-4.05,1.08-2.44.78-5.25,1.55-7.92,2.26Z"/><path d="m95.91,79.57c.6.16-.06.25,3.82.63,5.23.49,2.12-.05,5.15.14-4.16-.54-5.99-.51-8.97-.77Z"/><path d="m72.33,9.93c2.51-.48,5.02-1.01,7.55-1.44-4.78.76-5.09.72-5.8.69-.41,0-1.55.1-3.82.57-.85.17-2.17.46-2.43.54-.73.23,1.11-.12,2.57-.38,5.26-.92-4.15,1.08.42.29.48-.09.98-.18,1.5-.28Z"/><path d="m145.27,82.56c-3.42-.04-8.04-.75-10.72-.52,1.45.27,1.45.33,10.72.52Z"/><path d="m48.13,72.69c-4.41-1.06-4.07-1.21-5.03-1.57-3.43-.89-7.11-2.12-9.83-3.03l.08.11c2.34.99,6.64,2.19,7.01,2.42.8.52,4.34,1.38,7.78,2.07Z"/><path d="m58.54,74.43c-2.2-.18,2.94.78,5.37,1.3.89.1,1.79.19,2.69.29l2.14.06c-3.5-.56-6.6-.92-10.2-1.65Z"/><path d="m425.43,30.72l-.1.18c2.77,1.58,5.47,3.35,7.84,5.86.03-.05.28.12.11-.12-.17-.23-.67-.98-2.54-2.47-2.87-2.18-4.36-2.92-4.15-3.01-1.4-.76-1.02-.42-1.16-.44Z"/><path d="m51.41,22.7c3.26-1.03,5.75-1.77,4.74-1.73-3.4.94-8.35,2.4-9.01,2.81l.7-.09,3.57-.99Z"/><path d="m40.56,17.01c-2.48.67-1.19.19-1.64.24l-4.95,1.49c-.71.47-.77.63,6.72-1.56l-.13-.17Z"/><path d="m341.47,11.91l-.3-.19c-3.32-.41-6.18-.67-8.61-.86,2.07.71,5.54.83,8.91,1.05Z"/><path d="m42.11,68.78s-.36-.03-.05.1c.88.38-3.9-.93,1.2.67,4.53,1.35.67.03,1.35.14.19.03,1.71.46,2.62.7-1.09-.39-2.06-.73-5.11-1.61Z"/><path d="m67.8,18.71c-2.4.52-5.18.99-6.83,1.58,1.22-.3,2.45-.56,3.69-.82,1.39-.31,2.58-.57,3.24-.66,2.27-.54,4.55-1.03,6.84-1.49l-1.45.23c-1.84.35-3.66.76-5.49,1.17Z"/><path d="m253.45,80.44s.13-.04,0-.05c-.6-.03,1.95-.35-2.26-.05-1.44.1-4.12.45-1.37.36l3.62-.26Z"/><path d="m215.53,4.55c-.12.11-4.48.19-3.43.33h5.28c-.63-.11,1.21-.23-1.84-.33Z"/><path d="m210.76,1.03c-.12-.09-1.78-.16-3.6-.21-7.64.05,1.67.15-.4.22.33.02.77.02,1.33.01h2.29c.48,0,.6,0,.39-.03Z"/><path d="m31.77,68.41c-1.08-.4-2.15-.82-3.22-1.25,1.35.73,5.25,2.3,7.74,3.16l.22-.06-.09-.17c-.89-.29-1.56-.54-2.23-.78-.28-.02-1.37-.46-2.43-.9Z"/><path d="m403.02,21.67c.12.1,1.1.37,2.18.66,1.07.31,2.24.65,2.77.84l2.66.72-2.1-.72c-1.75-.54-3.57-1.05-5.5-1.5Z"/><path d="m68.73,76.08l-2.14-.06c1.8.26,3.59.53,5.39.75l.24-.14c-1.17-.18-2.33-.35-3.5-.55Z"/><path d="m149.33,82.89c1.02.15,2.4.25,5.42.19-1.45-.1-2.03-.29-5.42-.19Z"/><path d="m136.25,7.72l5.42-.55c.24-.19-2.76.12-5.42.38v.17Z"/><path d="m164.84,83.31c2.58.02,5.49.07,7.3-.03-3.71-.15-5.69-.09-7.3.03Z"/><path d="m271.64,78.88c-1.7.1-3.66.29-5.87.56,1.89-.17,3.02-.09,5.87-.56Z"/><path d="m73.29,17.55l1.45-.23,3.38-.68-.15-.03c-1.54.24-3.09.54-4.67.94Z"/><path d="m12.05,57.44s-.05,0-.21-.1c.21.14.42.28.66.44.15.05.32.1.48.15-.32-.15-.62-.33-.93-.49Z"/><path d="m67.89,18.81c-.66.1-1.85.35-3.24.66-.02.11,1.09-.12,3.24-.66Z"/><path d="m29.04,21.53c-.2.02.08-.16-1.73.48-1.31.47-1.05.44-.07.12l1.79-.6Z"/><path d="m36.51,70.26l-.22.06c1.71.55,2.91.83,3.48.94-1.09-.33-2.18-.64-3.26-1Z"/><path d="m28.42,67.15c-1.4-.58-2.79-1.19-4.17-1.82,1.7.88,3.1,1.49,4.17,1.82Z"/><path d="m206.97,4.77l-.04.19c1.14,0,1.74-.01,1.79-.06-.16-.06.68-.13-1.75-.14Z"/><path d="m320.26,76.9l.56.07c1.8-.21.68-.16,1.07-.24-.55.05-1.09.1-1.63.17Z"/><path d="m89.24,6.39c1.7-.21,3.52-.38,3.69-.53-1.56.16-3.11.36-3.69.53Z"/><path d="m52.01,72.26c1.3.33,2.6.65,3.9.95,1.3.28,2.61.65,3.94.81,2.65.41,5.29.81,7.96,1.22,1.85.26,2.67.34,2.83.31l.26-.14c-2.93-.43-3.9-.63-2.83-.56.5.03,1.19.07-.75-.22-.57-.08-1.47-.21-2.22-.31-.38-.05-.72-.1-.97-.13-.25-.03-.39-.04-.39-.04.16.15-1.7-.06-3.99-.37-2.28-.33-4.93-1-6.44-1.28-.61-.12-.88-.15-1.3-.22Z"/><path d="m163.47,83.02c3.65.12,7.3.28,10.86.18-6.13-.09-1.12-.26-5.43-.38l-6.89-.23c.88.15,4.54.35,1.47.44Z"/><path d="m23.25,32.37c2.64-1.22,6.1-2.7,9.79-4.07-.14-.02.35-.29-.56,0-1.22.39,3.59-1.53-.81.12-3.04,1.18-2.4,1.06-2.04.99.16-.02.22.07-1.77.78-1.82.67-2.51,1.01-2.97,1.29-.46.27-.72.44-1.63.89Z"/><path d="m103.45,79.55l5.17.54c.67,0,5.11.32,1.21-.09-4.12-.45-5.53-.47-6.38-.44Z"/><path d="m91.15,78.2c-1.5-.14-2.89-.24-1.98-.09,2.75.44,5.92.64,8.97.98-.25-.19-4.24-.56-6.99-.89Z"/><path d="m9.78,44.76c-.23,1.16-.23,2.37,0,3.52.23,1.16.68,2.26,1.24,3.28-.05-.19-.33-.78-.65-1.67-.32-.89-.64-2.11-.63-3.51.04-1.08.12-1.43.11-1.55,0-.12-.07.01-.08-.07Z"/><path d="m78.11,16.41c.47-.1.95-.2,1.45-.3l.18-.15c-2.05.42-4.56.9-5.46,1.18l3.83-.74Z"/><path d="m109.96,80.2c.7.21,3.14.37,5.6.51l-.16-.13c-1.83-.12-3.64-.23-5.44-.38Z"/><path d="m77,76c-.37-.06-.72-.12-1.07-.17l-.98-.08c.44.06.96.14,1.3.19.34.04.5.04.75.06Z"/><path d="m18.64,34.98c.55-.37,1.12-.71,1.7-1.03.58-.33,1.15-.67,1.74-.97-.47.2-.81.33-1.4.66-1.69.94-1.62,1.03-2.05,1.34Z"/><path d="m89.63,77.86l1.65.3c2.6.2.58-.03-1.65-.3Z"/><path d="m115.4,80.58c.93.06,2.29.18,2.28.13,0,0-.17-.03-.38-.05-.21-.02-.46-.04-.63-.06-1.58-.12-1.13-.04-1.27-.02Z"/><path d="m70.9,75.4l-.26.14c2.22.26,2.41.22.26-.14Z"/><path d="m25.71,62.87s.26.16.48.27c-.02-.04-.26-.16-.48-.27Z"/><path d="m83.19,15.33l.06-.07-3.49.7c1.12-.2,2.27-.41,3.43-.62Z"/><path d="m84.43,77.3l-.38-.07c.14.03.29.05.38.07Z"/><path d="m116.42,80.77l.49.1c1.5.08,1.19.03-.49-.1Z"/><path d="m43.77,16.35c-1.99.68-5.1,1.7-2.75,1.17,1-.23,2.2-.51,4.28-1.11,3.08-.87,3.41-1.03,3.79-1.24-1.63.34-2.45.46-1.12-.03.61-.22.44-.23-1.38.26-2.19.62-2.5.79-2.82.94Z"/><path d="m189.52.42c-4.63.09-3.09.2-3.5.3,1.72-.02,4.13-.1,4.37.02.12.06,1.79.11,3.31.08,1.56-.04,3-.13,3.55-.19.91-.11-2.09-.04-3.03-.06-1.84-.06-3.17-.1-4.7-.15Z"/><path d="m100.94,5.71c3.15-.04,8.94-.71,14.44-1.21-4.04.16-8.6.46-14.44,1.21Z"/><path d="m96.69,6.2c.59-.07,1.18-.14,1.77-.22.3-.05.48-.09.9-.15,3.29-.43,5.48-.75,2.06-.52-.89.06-3.34.28-2.92.3,1,0-9.83,1.39-1.82.59Z"/><path d="m59.12,12.7l4.87-1.06c.03-.1,4.07-1.12-.26-.2-3.2.67-5.41,1.29-4.61,1.26Z"/><path d="m82.22,8.13c1.83-.24,3.67-.45,5.51-.63-.14-.06,2.81-.54.28-.26-2.01.21-4.17.56-5.79.89Z"/><path d="m178.89.94c-1.01,0-1.62,0-2.21,0-.64.03-1.26.06-1.88.09.53,0,1.02.02,1.61,0,.61-.03,1.32-.06,2.48-.11Z"/><path d="m91.43,7l4.76-.62c.22-.04.45-.07.69-.11l-.23-.04c-2.13.28-5.28.63-5.22.77Z"/><path d="m54.84,13.77c1.39-.29,2.78-.57,4.16-1.03l-4.16,1.03Z"/><path d="m168.47,1.56c-.49,0-.74.02-.98.04.18,0,.36,0,.98-.04Z"/><path d="m395.34,65.58c1.87-.49,4.02-1.05,5.1-1.44.77-.43,6.42-1.91,8.58-2.8.82-.31,3.69-1.07,4.85-1.67.72-.36-2.03.55-3.74,1.05-1.75.5-3.11.93-5.49,1.73-3,1.01-6.53,2.05-9.33,2.52-1.68.28-4.63,1.11-6.37,1.56-3.04.79-.55.28,1.25-.07,2.84-.57,5.64-1.18,5.16-.87Z"/><path d="m425.43,30.72c.14.02-.23-.32,1.16.44.42.07,3.97,2.4,2.29,1.15-.58-.47-2.01-1.36-2.98-1.9-3.31-1.71-1.17-.45-1.93-.76-.42-.17-.75-.26-1.38-.52-1.21-.55-4.83-1.97-3.51-1.34,1.5.75,4.14,1.68,6.35,2.94Z"/><path d="m435.07,38.51c.16.34.34.63.45.96l.39.93c-.15-.42-.26-.92-.45-1.25-.16-.29-.26-.42-.4-.64Z"/><path d="m363.13,72.01l-1.7.28c.55-.09,1.14-.19,1.7-.28Z"/><path d="m227.66,81.57c.35.03.46.09,2.78-.1-.32-.03-1.42.04-2.78.1Z"/><path d="m287.46,80.46l3.53-.25c.04-.09-.78-.16.3-.27,1.91-.2,3.61-.37,2.97-.43-.32-.03-1.37.07-1.78.13-1.52.21-6.61.55-5.24.65.45.03.18.12.23.19Z"/><path d="m277.21,80.92c1.09,0,1.16.09,3.64-.07.35-.02,1.21-.13,1.11-.15-.49-.08-2.87.1-4.75.21Z"/><path d="m237.52,82.84c.51-.02,1.02-.03,1.52-.05,0-.05.32-.12-1.68-.06l.16.11Z"/><path d="m306.32,78.64l.39-.15c-2.04.17-1.73.21-2,.28l1.61-.13Z"/><path d="m297.91,79.56l-.62-.04c-1.66.17.05.07.62.04Z"/><path d="m168.9,82.82c4.31.12-.7.29,5.43.38,2.23,0,3.8-.03,4.97-.08,2.47-.11,5.5-.22.9-.36-7.23-.22-7.55.09-11.3.06Z"/><path d="m197.94,82.6c-2.49.05-6.47-.01-6.25.16.07.06,1.07.16,3.9.08,2.73-.07,6.74-.2,6.89-.29.3-.13-3.26.07-4.54.05Z"/><path d="m195.23,83.08c1.95.04,3.16.1,4.58.08,1.79,0,4.98-.13,5.09-.23.07-.06-1.1-.08-3-.02-2.04.05-4.03.1-6.67.17Z"/><path d="m218.98,81.99c.24.03.25.08,2.05-.01.56-.03.87-.09,1.3-.13l-3.35.15Z"/><path d="m188.36,82.94c.56-.03.21-.02-.13-.02l.13.02Z"/><path d="m215.68,82.09l.79-.04.79-.04c-.53,0-1.05.02-1.57.07Z"/><path d="m6.45,53.14c.18.33,1.45,1.61,3.46,3.1,2.59,1.86,1.66,1,1.95,1.12-1.26-.9-1.93-1.34-2.64-1.86-.71-.51-1.48-1.07-2.78-2.36Z"/><path d="m19.42,24.42c.12.07-.75.52,3.19-1.05-.27.02.48-.38-1.42.31-.59.25-1.18.49-1.77.74Z"/><path d="m6.43,53.12l-.25-.28c.09.1.18.2.25.28Z"/><path d="m344.56,12.3l-3.12-.4c.54.12-1.07.02,1.44.33,1.42.17,1.78.14,1.68.07Z"/><path d="m302.32,7.83c-2.83-.26-5.73-.49-5.72-.33,2.11.14,4.46.29,5.72.33Z"/><path d="m48.13,72.69c-3.44-.69-6.97-1.54-7.78-2.07-.36-.23-4.67-1.42-7.01-2.42,1.25.64,2.23,1.17,3.86,1.83,3.46,1.47,10.15,3.17,15.7,4.01.69.11,1.04.13,1.89.27,3.15.53,3.4.35.3-.33q-1.29-.28-2.06-.29c-.36,0-.28.1-2.64-.39-.72-.14-1.5-.41-2.26-.62Z"/><path d="m73.91,77.09l-1.86-.27c-3.32-.22,1.76.7,1.57.9,1.73.2,3.46.4,5.19.57.51-.12-6.3-1.16-4.89-1.2Z"/><path d="m65.15,76.53c1.87.29,3.8.61,5.19.75-.05-.02,0-.03-.17-.06-2.29-.43-1.83-.58-4.66-.98-4.17-.6.45.3-.36.29Z"/><path d="m56.09,74.73c-.5-.07-1.07-.17-1.03-.15.14.06.51.17.79.26.23.02.63.08.64.06.02-.03-.23-.1-.4-.18Z"/><path d="m31.77,68.41c1.06.44,2.15.88,2.43.9-1.03-.39-2.42-1.01-2.43-.9Z"/><path d="m36.42,70.09l.69.19c-.3-.09-.6-.18-.69-.19Z"/><path d="m335.51,75.37l-4.87.58c-1.42.47-9.59,1.26-12.22,1.76.28.06-.4.26,3.52-.17-1.68.04,1.16-.32,2.96-.56,2.2-.28,3.26-.29,4.09-.32l4.95-.57c4.63-.67,6.98-1.09,7.19-1.19.21-.12-1.7.11-5.62.46Z"/><path d="m328.99,76.67c-.83.03-1.89.04-4.09.32-1.8.23-4.64.6-2.96.56,2.67-.3,6-.57,7.05-.88Z"/><path d="m353.21,73.43c-4.72.36-6.15.94-9.19,1.37,3.76-.35,6.52-.87,9.19-1.37Z"/><path d="m363.16,72l-1.77.29c.6-.03,1.19-.13,1.77-.29Z"/><path d="m139.07,82.69c-3.41-.13-3.58-.05-3.85.03.51.16-1.27.05-3.16-.08-1.07.08-.33.31-5.23.07-1.01.11,4.35.36,5.11.48,6.92.12,7.49-.19,7.13-.5Z"/><path d="m83.97,78.54l-2.16-.25c1.21.21,1.52.19,2.16.25Z"/><path d="m162.42,6c.82-.11,1.05-.18,1.27-.26-3.49.23-6.95.46-10.42.69-3.13.24-3.19.33-3.31.42,1.86-.13,4.14-.34,5.25-.32l7.22-.53Z"/><path d="m153.27,6.43l10.4-.69.13-.14c-4.01.26-8.01.44-12.02.75l1.49.07Z"/><path d="m162.42,6l-7.22.53v.14c2.36-.15,4.73-.31,7.1-.46l.12-.21Z"/><path d="m113.86,10.7c.07.05.26.1,2.16-.14.86-.1,1.99-.29,3-.43-1.24.07-3.26.31-5.16.58Z"/><path d="m155.2,6.53c-1.11-.01-3.39.2-5.25.32,1.07,0,3.2-.17,5.25-.32Z"/><path d="m134.49,7.94s-1.62.24-.08.11c.16-.02.65-.07.79-.09.99-.13.41-.12-.71-.03Z"/><path d="m208.06,83.23c-2.91.11-5.54-.31-8.65.15-.48.3,5.83.04,8.74.05-.04-.07-.07-.13-.09-.2Z"/><path d="m171.83,83.76h.71c-.22,0-.44,0-.71,0Z"/><path d="m208.15,83.43l.38.02c-.13,0-.27-.01-.38-.02Z"/><path d="m83.19,15.33l-3.46.63-.18.15c2.43-.43,3.59-.68,3.64-.77Z"/><path d="m282.42,6.38c-8.81-.7-9.85-.54-9.88-.29l1.87.4c6.54.59,10.29.58,15.39.9.64-.19.22-.43-7.39-1.01Z"/><path d="m198.76,4.64h-.75s.32.03.75,0Z"/><path d="m96.19,6.37l1.23-.13c-.18,0-.37.01-.54.02-.23.04-.46.07-.68.11Z"/><path d="m215.59,4.54c-.6-.02-1.2-.04-1.83-.06-.01,0-.32.02-.49.03.75.01,1.51.02,2.32.03Z"/><path d="m313.87,9.58l3.29.39c-.22-.11-.37-.22-3.29-.39Z"/><path d="m163.69,5.74c-.22.08-.44.15-.67.23,1.7-.12,3.6-.2,3.89-.3.29-.09-1.37-.04-3.22.07Z"/><path d="m149.62,83.18c-.2.07-.26.13,1.43.22-.18-.07.59-.13-1.43-.22Z"/><path d="m158.02,83.75l-.36-.03c.13.01.25.02.36.03Z"/><path d="m144.35,83.29c.36.06.33.13,1.17.18,1.11.07,2.17.04,1.81,0-.7-.1,2.83-.14-2.48-.3-.17.04-.34.09-.51.13Z"/><path d="m144.35,83.29c.17-.04.34-.08.51-.13-2.64-.05-2.42.01-.51.13Z"/><path d="m251.89,82.27c.24,0,.46,0,.75.01.03,0,.61-.04.64-.04.07-.02-.02-.04-.05-.05l-1.35.08Z"/><path d="m409.41,23.96l-.67-.18c.25.07.5.14.67.18Z"/><path d="m180.95.58l2.69-.1-.68-.02c-.71.04-1.42.09-2.01.13Z"/><path d="m236.39,83.06l-2.21.03c.16.03.61.05,1.06.06l1.15-.09Z"/><path d="m132.06,82.64c1.89.13,3.67.24,3.16.08-1.06-.03-2.11-.05-3.16-.08Z"/>
                  </g>
                </mask>
              </defs>
              <path class="mask" d="m241.41,1.3c-36.95-1.4-67.87-.53-90.06.65-37.5,1.99-70.96,3.93-104.81,13.73C28.66,20.86,6.93,27.16,1.74,37.86c-7.54,15.57,25.76,28.44,31.8,30.77,4.74,1.83,23.31,8.31,77.73,12.74,33.16,2.7,68.26,2.64,102.95,1.85,55.55-1.27,112.53-4.54,162.11-13.98,29.59-5.63,58.05-14.79,59.77-25.9,1.12-7.24-9.76-14-25.13-18.76-15.37-4.76-34.89-7.77-54.57-10.33-48.01-6.25-99.57-10.29-152.26-9.72-52.69.57-106.67,5.97-149.83,17.01-16.92,4.33-32.49,9.71-39.84,16.32-10.97,9.87-1.16,20.99,19,28.37,8.14,2.98,16.6,5.4,25.41,7.35,15.96,2.53,33.74,4.79,53.28,6.45,84.07,7.15,158.09-.32,204-7.09"
                    mask="url(#path-mask)" stroke="black" stroke-width="2" fill="none"
                    stroke-dasharray="1471.3682861328125" stroke-dashoffset="1471.3682861328125">
              </path>
            </svg>
        