
            <svg xmlns="http://www.w3.org/2000/svg">
              <defs>
                <mask id="path-mask">
                  <g fill="white">
                    <path d="m46.74,51.24c2.35.29.89-.09,1.37-.12l1.68.29c1.36.3,2.97.58,4.27.85,1.34.28,3.28.55,5.16.73,1.88.16,3.71.2,4.81.16,1.49.16,2.43.2,3.07.16,1.98.21,4.94.21,6.46.51.41.17,2.16.34.68.44-1.06.05-2.21.02-3.9-.17-1.4-.16-2.67-.23-3.47-.16l-1.31-.12c-1.64-.07-3.81-.66-5.12-.42-.51-.06-1.45-.16-1.47-.17-1.31.15-4.31-.32-6.9-.67l-.03-.09c.72.06.57.02-.23-.1-.13-.02-.27-.03-.41-.05l-.07-.13c.44.05,1.09.15,1.09.1,0-.01-.31-.08-.48-.1-.75-.1-.54-.03-.63,0l-2.57-.3c-.21-.03-.42-.06-.64-.09.33-.02,2.44.23.59-.11-1.95-.36-2.62-.36-3.04-.31-.39.05-1.23-.05-2.52-.35-.1-.18-1.99-.45-3.29-.7l.07-.04c1.24.13.29-.05-.77-.26-1.41-.37-1.57-.24-2.47-.41l-.18-.06.2.06c-.1.08.41.31-2.18-.25-1.61-.35-2.99-.62-2.75-.41l-1.6-.34-1.36-.5c.87.19,1.26.24,1.34.2,1.05.18,1.15.14.15-.15-1.38-.32-1.82-.48-1.31-.45.24.01.58.03-.33-.19-.22-.05-.53-.12-.83-.18h.02c-.44-.13-.84-.23-.84-.23.08.31-3.47-.92-4.86-1.37-.29-.09-.42-.1-.62-.15l-.27-.04c-3.1-1.3-6.23-2.92-8.87-4.47-.65-.42-1.51-1.08-2.06-1.61-.52-.45-.94-.85-1.31-1.2-.37-.33-.7-.61-.98-.87-1.46-1.64-2.68-3.57-3.19-5.76l.04-.13c.09-.21-.12-1.25-.04-2.59.15-1.02.02-.7-.02-.78.3-1.84,1.27-3.5,2.46-4.91,1.21-1.41,2.7-2.57,4.27-3.63l-.14.06c.02-.05-.24.08.36-.32.15-.15.18-.24.99-.71-.2.3,1.37-.6,2.69-1.23,2.84-1.39,6.26-2.67,8.83-3.69,1.77-.71,3-1.09,4.76-1.69,1.08-.33.45-.25.52-.34,3.45-1.07,6.92-2.05,10.43-2.89v.12c-.66.24-.48.26-.12.25.62-.01-.26.27-2.13.72-.55.15-1.09.32-1.63.49-.98.28-2.16.57-2.57.79l1.81-.46c.24,0,1.32-.24-.04.19-.73.13-1.47.32-2.19.6l-2.56.77c-1.12.11-3.22.68-5.52,1.33-1.55.67-3.81,1.66-4.06,1.98-2.18.86-4.34,1.79-6.39,2.98-.08-.03.11-.23-.31-.05-.57.24,1.55-1.05-.42.04-1.35.77-1.03.72-.85.69.08,0,.16.09-.76.52-.83.41-1.13.64-1.37.87-.24.23-.46.45-1.08.94-.21.13-.39.19-.62.4-.7.6-.64.65-.79.86-.53.52-1.04,1.07-1.45,1.68-.2.31-.42.6-.61.92l-.49.99c-.57,1.36-.8,2.88-.6,4.44.02.2.05.4.08.57.06.17.11.34.16.49.11.3.19.57.31.78.25.42.45.7.6.89,1.09,2.13,2.8,3.91,4.68,5.44,1.89,1.53,4.01,2.76,6.19,3.86-.03.03-.18,0-.06.1.36.29-1.83-.61.45.54,2.03.98.35-.01.68.05.09.02.78.33,1.19.49,2.66,1.11,5.49,2.19,8.38,3.12h-.03c1.31.29,2.61.58,3.9.88,1.23.27,3.26.53,4.2.91,1.08.42,8.39,1.97,10.78,2.22Zm-14.03-2.81l-.47-.04c.21.05.45.12.61.15.16.03.24.02.36.03-.17-.05-.34-.09-.5-.14Zm-22.32-9.52c-.07-.06-.17-.14-.25-.22,0,.03.1.11.25.22Z"/><path d="m51.77,2.2c5.5-.68,10.95-.96,16.43-1.32.76.3,4.28-.14,6.58-.2.47.08.41.2,2.86,0,1.48-.13,3.63-.18,5.53-.24,1.53,0-3.16.5,2.43.2.82,0,1.97-.06,2.09.06.06.06.86.12,1.58.1.74-.03,1.43-.1,1.69-.17.44-.11-1-.05-1.45-.08-.88-.06-1.51-.12-2.25-.18.45-.09,2.46-.07,2.35-.19,1.24.16,5.57-.04,5.56.22,0,.12-1.75.24-2.5.4-.77.15-4.11.2-6.75.22-1.19.01-2.33-.02-3.51,0-1.15.02-2.56-.03-3.39.1-.89.14,2.27-.02,1.69.13-1.81.16-3.72.27-5.83.3-.17-.19-.73-.32-3.88.05-2.34.28-5.32.2-7.57.57l-.87.07-1.66.06c-2.79,0-5.78.22-8.99.77-1.93.05-4.11.23-6.87.77l-1.18.19c.14-.04.22-.08.42-.12,1.55-.34,2.59-.55.95-.46-.43.03-1.6.18-1.39.21.48.05-4.63,1-.84.55-1.01.18-2.5.45-2.45.58-.59.11-1.17.21-1.75.34-.08-.06,1.3-.43.1-.25-.95.15-1.97.39-2.72.63l-1.1.26c-2.26.51-2.42.45-2.78.4-.2-.02-.75.06-1.82.35-.39.12-1.01.34-1.12.4-.33.18.54-.06,1.22-.24,2.49-.57-1.9.8.27.31-.49.27-1.85.69-3.13,1.08l-.05-.08c0-.09,1.86-.79-.17-.21-1.49.47-2.49.93-2.14.97-.65.21-1.28.47-1.92.71-.9.29-1.79.59-2.68.9-.78.2-1.18.25-.59-.11.27-.16.18-.19-.66.14-1.01.4-1.14.53-1.27.65l-1.43.53-.11-.17c2.39-.99,5.06-2.15,6.78-2.51.65-.15,1.52-.53,1.64-.66.08-.1-.14-.11.89-.51,4.19-1.62,8.7-2.82,13.38-3.62,1.44-.15,3.64-.49,5.93-.84,2.29-.34,4.66-.72,6.44-1.05Zm29.37-1.44c-.3.01-.6.05-.9.07.25,0,.49.03.77.03.29,0,.63-.04,1.18-.08-.48-.01-.77-.03-1.05-.02Z"/><path d="m197.87,36.06c1.59-1.4,2.3-2.07,3.05-2.88.17-.21.25-.22.39-.36.13-.15.4-.39.68-1.22.28-.65.27-.93.23-1-.04-.07-.12.05-.2.16-.15.21-.33.28-.49.41.19-.36.23-.75.31-1.13.03-.19.09-.38.11-.58v-.58c-.02-.77-.16-1.55-.49-2.28.05-.03.16.07.15-.07,0-.14-.11-.55-.72-1.5-.96-1.39-1.54-1.94-1.37-2.01.09.04.5.42.78.71.28.3.47.48.2.05-.17-.32-.7-.94-1.09-1.31-1.32-1.21-.54-.3-.88-.51-.19-.11-.35-.18-.62-.36-.52-.37-2.06-1.39-1.54-.92.59.54,1.75,1.19,2.59,2.05l-.14.15c-3.47-3.17-7.75-5.17-11.98-6.86.76.08,1.37-.09,4.9,1.72.58.31,1.52.77,1.8.83.3.05-.41-.36-1.21-.78-.21-.24-.43-.46-.54-.65.41.16.81.35,1.22.53-.31-.19-.61-.39-.92-.56,2.92,1.25,5.52,2.88,7.46,4.98.45.61,1.34,1.73,2.21,2.95.84,1.14,1.58,3.29,1.06,5.23-.42,1.92-1.49,3.42-1.97,4.25-1.91,2.08-4.27,3.78-6.71,5.14-.02-.26-1.9.74-3.48,1.53-1.4.75-2.29,1.05-3.41,1.45.3-.35,2.94-1.29,3.88-1.92.36-.2,1.71-.68,2.19-1.1.29-.26-.98.3-1.76.63-.82.29-1.44.58-2.5,1.14-1.34.7-2.96,1.4-4.3,1.66-.81.13-2.15.73-2.95,1.03-1.4.54-.23.23.63.02,1.34-.36,2.67-.72,2.48-.47l-.81.35c-1.55.28-4.38,1.28-6.84,1.94-.96.25-3.13.93-2.55.5.14-.1-2.82.73-2.89.82-.15.18-.95.39-2.04.62l-.8.18c-1.49.39-3.25.88-2.69.46.72-.33.7-.3-.59-.09-.57.09-1.32.2-1.45.18-.46-.07,1.82-.46,2.16-.65,2.28-.53,4.65-1.21,6.63-1.44.51-.06,1.93-.51,1.84-.51-.42,0,2.68-.87.46-.39.07-.09.31-.17,1.21-.4,2.94-.78,5.89-1.58,8.75-2.79.6.35,3.7-1.29,5.5-2.17,2.09-1.03,3.53-1.98,5.55-3.34-.19.22-.63.62-.6.66.02.02.15-.04.49-.26.17-.11.39-.26.67-.46.26-.22.59-.48.99-.81Zm4.5-7.99l.12.47c-.02-.21-.03-.46-.05-.63-.01-.16-.08-.23-.12-.34.04.17.06.34.05.51Z"/><path d="m125.91,52.24c2.92-.44,6.49-.83,9.16-1.41,2.4-.17,6.01-.96,8.82-1.43.8-.14,1.11-.2,1.67-.34,1.74-.41,2.1-.86.16-.54-2.04.34-2.69.39-3.23.37-.56-.02-1.58.04-3.48.57-.21.06-1.01.22-1.35.26-3.35.48-6.56,1.05-9.87,1.5-7.61,1.01-15.26,1.77-22.93,2.24l.02.12c.65-.04,1.17-.06,1.32-.02,1.14-.1,2.5-.22,3.44-.3,2.27-.15,5.04-.53,6.85-.53,1.08.04,8.88-.69,10.45-.98.26-.04.53-.11.49-.12-.4-.1,1.08-.21,1.75-.28.81-.08,1.3-.09,2-.15.4-.03,1.63-.25,1.52-.18-.07.04-.77.18-1.73.33-1.99.34-4.83.65-5.07.89Z"/><path d="m115.63,54.72c2.01-.14,4.39-.23,5.7-.5-.58.01-1.32,0-1.72.04-1.55.14-3,.28-4.15.16-.94-.1.37-.24,1.31-.39,1.66-.25,2.95-.24,4.32-.21.85.02,2.27-.03,2.96-.13,2.35-.37,3.41-.25,4.83-.25.9-.06,2.03-.18,2.28-.09.05.02-.36.1-.53.12-1.18.09-1.22,0-1.75-.03l-2.5.54c1.68.18,3.84-.17,5.87-.4-.06-.09.06-.19,1.54-.33-.03-.07.1-.15-.12-.19-.66-.13,1.77-.33,2.49-.49.2-.04.69-.11.85-.07.32.08-.5.2-1.4.34-.51.08-.12.18-.13.27.8-.18,3.11-.23,3.32-.46-.3,0-1.11.07-.32-.06l.3.06c1.17-.08.48.17,1.93.01.51-.06.91-.24,1.36-.37-.03-.06.14-.13.84-.23-.04-.02-.08-.03-.14-.05l-.77.08c-1.29.03-5.29.34.12-.34.35-.04.51-.15.76-.22-2.34.26-4.77.64-6.92.61-.26,0-3.39.47-5.49.64-.57.13-1.28.21-2.55.31-3.7.3-7.58.36-11.11.73-1.43-.14-3.97.22-5.48.16-1.47-.05-2.66-.05-4.48.12-2.48.23-3.56.14-3.62-.07l-4.09.13c.19.13-.93.24-1.75.35,1.88.14,3.83.27-.14.52-.51.03-.17.08.34.1,1.6-.17,3.95-.03,5.3-.18,3.11-.35,2.49-.08,2.92.04l.87-.03c.08-.08.55-.14,1.54-.17.11-.11.77-.16,1.73-.2l-.08-.11c.95-.03.8.04.8.09,1.86.04,4.67-.05,4.98.18Z"/><path d="m79.42,54.44c1.06.05,1.82.02,2.38-.03,1.18-.1,2.63-.19.44-.36-3.45-.27-3.6,0-5.4,0l-3.29-.23c-1.52-.3-4.48-.3-6.46-.51l-.03-.15c1.9.14,4.11.11,5.53.32,1.78.29,3.65.27,5.75.33,8.27.14,16.58.09,24.9-.28.15.06.14.12-.89.22l-1.6.08-.83-.02c-.25-.02-.5-.01-.75.02-5.26.2-5.99.28-3.98.46.06,0,.08.01.12.02,2.32-.15,3.8-.11,5.26-.08,1.46,0,2.91.02,5.19-.14,1.89-.15,4.39-.37,4.92-.21-1.24.1-2.62.36-3.04.31-.79-.09-2.09.06-3.36.13-2.26.12-4.49.24-6.75.3-1.13.04-2.25.08-3.39.12-1.14.02-2.29.04-3.45.06-3.31.09-6.68,0-10.06-.04-3.38-.14-6.79-.24-10.17-.47-1.35-.08-3.5-.16-3.59-.35.8-.07,2.07,0,3.47.16,1.69.19,2.84.23,3.9.17,1.74.12,3.48.25,5.19.18Zm8.3-.27c.03.06.51.17,1.86.12,1.31-.05,3.22-.15,3.29-.21.14-.13-1.55.02-2.17-.01-1.19.03-3.09-.08-2.99.11Zm3.88.46c.86,0,2.38-.02,2.43-.13.03-.05-.53-.11-1.44-.09-.98.03-1.93.06-3.19.1.93.06,1.51.13,2.19.12Zm-5.03-.37h-.5s.06.01.06.01c.37,0,.39,0,.43-.01Z"/><path d="m9.11,14.91c-1.76,1.13-3.13,2.01-4.94,3.58-1.29,1.15-2.6,2.71-3.39,4.63-.83,1.9-1,4.17-.49,6.13.45,1.98,1.46,3.93,2.66,5.33l.16-.1c-.19-.4-.71-1.37.08-.33,1.19,1.51,1.89,2,2.43,2.41.57.39,1.02.68,2.06,1.48-1.06-.91-1.96-1.74-2.74-2.5-.09-.1-.18-.19-.25-.26-.15-.06.13.49-.87-.66-.77-.92-1.18-1.68-1.18-1.87l-.08-.18.07.17c.9,1.51,1.14,1.41,2.05,2.53.07.06.1.08.1.06-.94-1.36-2.28-2.89-2.93-4.57-.53-1.01-.88-2.16-.94-3.35-.06-1.19.17-2.42.68-3.52.16-.32.3-.59.43-.87.14-.27.31-.55.45-.93.49-1.17,1.75-2.57,3.15-3.66,1.9-1.69.9-1.11.29-.85-.16.07-.62.36.08-.23.59-.52,1.02-.71,1.3-.86.25-.18.5-.36.76-.52-.49.14,1.57-1.23,1.07-1.08Z"/><path d="m156.41,8.07c-1.59-.38-3.25-.77-5.48-1.01-2.8-.24-5.74-.65-8.87-1.23-.61,0-1.73-.13-2.73-.22l-1.66-.26c.19.09.48.24.56.25,3.05.34,5.07.86,8,1.27,2.14.29,4.08.61,4.62.92.02,0,.23.05.35.07.4.04.81.08,1.22.12-.31-.31,1.83.08,3.46.37,5.36.99,10.77,1.85,16.15,3.14,3.24.79,3.42.8,1.82.69-.49-.03-.82-.01-1.22-.01,3.1.63,6.62,1.66,9.14,2.12-.57-.18-1.11-.38-1.71-.55-.98-.28-2.43-.5-2.82-.76-.16-.1,1.42.17,2.41.38.53.1,1.51.39,2.28.61.65.19,1.35.41,1.67.44.43.05-.23-.2-.89-.44-1.03-.37-1.27-.6-2.91-1.04-2.04-.71-4.32-1.35-7.09-1.88-3.2-.49-6.88-1.22-10.61-1.92.04.07-.14.11-.81-.02-1.19-.22-.41-.18-.66-.27-1.61-.08-3.28-.14-4.21-.77Z"/><path d="m100.75,53.82l-.83-.02h-.38s-.38.02-.38.02c-5.26.2-5.99.28-3.98.46.06,0,.08.01.12.02,2.32-.15,3.8-.11,5.26-.08,1.46,0,2.91.02,5.19-.14,1.89-.15,4.39-.37,4.92-.21,1.37-.17,3.81-.36,4.83-.58-1.32.02-.05-.26.64-.32,2.01-.18.8.06,1.09.11.06.01,0,.03,0,.05,1.55,0,4.15-.47,5.88-.57,1.05-.17,1.99-.3,2.8-.34.24-.24,3.08-.55,5.08-.89.96-.15,1.66-.29,1.73-.33.11-.07-1.12.15-1.52.18-.7.05-1.2.07-2,.15-.67.07-2.15.17-1.75.28.04.01-.23.07-.49.12-1.57.29-9.37,1.02-10.45.98-1.8,0-4.58.38-6.85.53-.94.08-2.3.2-3.44.3-1.1.11-1.16.05-1.33.02l-.02-.12-1.63.08c.15.06.14.12-.89.22-.2.04-.35.09-.62.11-.86.06-.87,0-.98-.03Z"/><path d="m13.56,42.36v.09c.49.47.87.88,1.52,1.42,1.37,1.21,4.44,2.6,7.07,3.18.33.07.5.08.9.19,1.47.4,1.64.21.22-.32q-.59-.23-.97-.21c-.18,0-.17.13-1.25-.27-.33-.12-.67-.32-1-.5-1.99-.85-1.78-.97-2.17-1.28,2.25.94,4.63,1.76,7.04,2.53-1.07-.09,1.31.67,2.43,1.07.42.08.85.13,1.28.2.85.19,1.69.39,2.54.55.03.03.04.05.02.06-1.6-.12.75.63.63.84l-1.54-.34s0-.03-.08-.05c-1.07-.34-.81-.51-2.15-.8-1.96-.46.17.28-.23.29l-.95-.1c-3.68-1.04-7.47-2.15-10.8-4.01l-1.43-.79v-.15s.32.14.32.14l-.4-.2-.88-.52c-.44-.28-1.03-.72-1.07-.62l-1.42-.85.2.11.2.16c-.88-.73-3.17-2.4-3.61-3.11-.11-.16-.88-.76-1.78-1.53-.89-.77-1.89-1.72-2.54-2.46-.22-.24-.36-.39-.54-.58-.19-.4-.71-1.37.08-.33,1.19,1.51,1.89,2,2.43,2.41.57.39,1.02.68,2.06,1.48,1.96,1.58,3.96,2.98,5.89,4.31Zm9.57,5.12c.06.06.22.15.34.22.11.01.3.05.31.04.01-.03-.09-.09-.17-.15-.24-.05-.51-.12-.49-.1Z"/><path d="m133.77,53.26c-1.47.14-1.6.24-1.54.33l1.38-.09,1.06-.11c2.65-.19,5.21-.39,8.01-.79,1.14-.16,2.79-.38,4.17-.48,1.51-.1,4.33-.51,4.81-.59,5.03-.98,9.92-1.7,14.76-2.58,1.77-.34,2.86-.7,4.31-1.02,7.35-1.73,14.69-3.82,21.54-7.22.72-.38,1.5-.72,1.86-1.05-.02-.26-1.9.74-3.48,1.53-1.4.75-2.29,1.05-3.41,1.45-.48.28-1.48.65-2.34.98l-.81.35c-1.55.28-4.38,1.28-6.84,1.94-.96.25-3.13.93-2.55.5.14-.1-2.82.73-2.89.82-.15.18-.95.39-2.04.62-.25.12-.53.18-.82.18-1.47.38-3.24.87-2.67.46-.4.08-.81.16-1.22.24-1.25.35-2.55.73-4.35.91-1.44.41-2.83.91-4.78.85l-2.35.36c-.48.26-2.07.42-3.34.6-1.86.27-1.55.1-1.69.03-2.12.52-4.3.72-6.48.79-.45.13-.85.31-1.36.37-1.45.16-.76-.09-1.93-.01-.19.22-2.5.28-3.3.45l-1.68.15Z"/><path d="m45.59,52.56c1.14.3,2.4.55,4.14.65-.97-.24-1.91-.48-.73-.46.93.02,1.6.29,2.58.38,1.26.38,2.02.33,2.89.32.99-.02,1.95.04,2.6.29,2.34.19,1.99-.03,2.42-.11-.33-.18-2.21-.4-3.11-.62-1.54-.29-3.58-.56-5.54-.76-1.47-.15-2.74-.29-4.14-.54-1.44-.13,0,.33-2.47-.04-1.84-.27-1.51-.4-1.78-.54l-1.63-.26c.1.11.3.25.26.34-.03.06-.78-.04-1.48-.16-.61-.11-1.06-.24-.7-.22.53.04,1.96.21.47-.12-.37-.09-1.72-.21-2.61-.32-.28-.03-.45,0-1-.17l1.02.18c-.57-.38-2.59-.73-4.72-1.13-.7.08,2.49.89,2.22,1.03,3.51.6,3.45.72,3.14.88,1.41.23,2.55.58,4.02.75-.17-.27,1.42-.18,3.85.2,3.38.54-1.12.04.03.32.16.04.18.07.27.1Z"/><path d="m66.71,4.4l-1.34.16-2.58.37-.95.14s.05.03.09.04c.56-.05.84-.06.37.05-.07.02-.3.05-.38.06-.74.06.03-.07.03-.11-1.35.17-2.33.34-2.95.52-.97.28-2.25.51-3.28.63-1.03.13-1.82.17-1.79.13.16-.26-1.95.13-3.5.34-1.92.43-3.81.89-5.75,1.37-.84.22-2.49.56-2,.57.41.01,2.17-.45,2.62-.52,1.42-.19,3.53-.89,4.36-.81,1.07-.17,2.34-.4,2.52-.31.9-.16,1.86-.35,2.45-.36,1.99-.29,3.98-.6,5.96-.82,3.91-.49,7.27-1.08,11.25-1.37v-.14c-.98.1-2,.21-2.51.17.05-.09.08-.17,1.57-.32l-.72-.12c-1.16.12-2.33.21-3.49.35Z"/><path d="m97.57,55.12c-.51-.02-.84-.07-.34-.1,3.96-.25,2.01-.38.14-.52l-1.53.04.03.2.19.02-.18-.03c-1.39-.04-4.4.14-4.17-.15-2.3.05-4.39-.2-6.96,0-.37.03-1.97-.07-2.05-.18l-2.43-.06c-1.06.16-4.12.15-3.54.41.03.01-.53.02-.81.03-1.79-.45-2.56.02-3.98-.1,0,.02,0,.04,0,.07,4.15.52,5.15.19,6.62,0h.32s-.34,0-.34,0c.42.02,1.01.05,1.5.07.49.02.88.04.9.06.41.51,3.45.23,5.91.19,2.56-.03,5.52-.15,7.78.03,1.12.04.95.22,2.89.17l.05-.14Z"/><path d="m18.26,11.04l-1.43.53c-3.44,1.45-3.46,1.29-3.2.91-1.15.47-1.04.55-1.57.84,1.14-.19-.46.73-3.33,2.51.74-.28.86-.18.24.39.79-.33,1.37-.74,1.97-1.16-.44.21-.57.23,0-.1.8-.43.7-.3.8-.3,1.82-.72,4.38-2.03,6.32-2.84,3.16-1.33,6.66-2.6,9.69-3.75l-.05-.08-2.26.74c-.67.34-1.32.54-1.97.73-.9.29-1.79.59-2.68.9-.16.16-.29.3-1.7.87-.95.38-1.52.56-2,.68-1.11.31.29-.39,1.18-.87Z"/><path d="m49.68,7.32c-.83-.09-2.94.62-4.36.81-.45.07-2.22.54-2.62.52-.49-.01,1.15-.35,2-.57,1.93-.48,3.83-.94,5.75-1.37l-.72.02-.94.18c-2.58.68-5.9,1.27-8.8,2.03-.68.24-.49.26-.13.25.62-.01-.26.27-2.13.72l-.02.07c0,.09-.55.25-1.69.56-.23.07-.46.13-.68.19.24,0,1.32-.24-.04.19l.08.04c4.55-1.19,9.13-2.18,13.76-3.14-.77.01-2.17.15.55-.5Z"/><path d="m117.09,3.33c-.98-.05-.87-.32-2.62-.22-1.31.07-2.53-.2-3.83-.2-.38.24-2.13.1-3.98-.04-1.57-.13-2.86-.14-4.04-.06-1.23.07-1.77.16-.47.3,1.74.03,3.33.19,5.2.19,5.82.06,6.46.11,11.09.62.11.01.33.03.36.03,2.39-.09,5.96.57,8.38.57-.22-.14-.23-.28-1.86-.48-.06.08-.45.06-1.57-.05-2.35-.24-4.56-.46-6.67-.67Z"/><path d="m49.68,7.32c-2.71.65-1.31.51-.55.5,1.81-.27,3.04-.36,5.6-.97.92-.21,2.33-.42,3.87-.64,1.55-.19,3.24-.4,4.74-.59,4.04-.51,8.29-.98,12.4-1.2,1.8-.1,2.99-.17,2.78-.34-.2-.15-1.66-.08-3.29.09l-3.38.28c-3.97.29-7.34.88-11.25,1.37-1.98.22-3.97.53-5.96.82-.48.1-1,.25-1.41.32-.9.15-1,.09-1.04.04-.18-.08-1.45.14-2.52.31Z"/><path d="m78.57,54.75c-1.47.19-2.47.52-6.62,0l-3.33-.06c-.89,0-1.81,0-1.59.12,1.55.26,3.6.23,5.31.29,6.53.23,13.06.38,19.63.2,1.75-.05,2-.11,2.67-.21-2.26-.18-5.22-.06-7.78-.03-2.46.03-5.5.32-5.91-.19-.01-.02-.41-.04-.89-.06-.49-.02-1.07-.05-1.48-.07Z"/><path d="m172.61,12.18c.4,0,.73-.01,1.22.01,1.61.11,1.42.1-1.82-.69-5.38-1.29-10.79-2.15-16.15-3.14-1.63-.29-3.77-.68-3.46-.37,3.01.75,6.34,1.29,10.01,1.84,2.37.36,4.16.76,3.65.93,2.38.35,4.31.94,6.54,1.42Z"/><path d="m127.19,4.53c-2.43,0-6-.66-8.38-.57-.03,0-.25-.02-.36-.03-4.64-.51-5.28-.56-11.09-.62-1.87,0-3.46-.16-5.2-.19.73.23,1.54.44,4.39.65l2.1-.06c.78-.1,1.97-.04,3.65.06,2.05.14,4.53.26,6.3.41,3.57.29,6.77.32,10.15.81l-.87-.37c-.23-.03-.45-.05-.67-.07Z"/><path d="m85.29,3.63c1.07-.23,1.93-.48-2.37-.3-1.39.06-.52-.07-.42-.13,2.11-.24,4.46-.25,5.97-.2,3.84.11,4.71-.05,5.54-.31l.79-.02c2.53.12,6.68.19,2.74.52-.71.06-.69.17-1.01.26-2.17-.02-4.35.05-6.52.07-1.4.04-2.46.07-2.6.21-.81.02-1.61.03-2.42.06.09-.06.05-.11.3-.17Zm6.92-.36c.09,0,.23,0,.44-.02-.12,0-.24,0-.44.02Z"/><path d="m89.61.18c1.24.16,5.57-.04,5.56.22,0,.12-1.75.24-2.5.4-.77.15-4.11.2-6.75.22-1.19.01-2.33-.02-3.51,0-1.15.02-2.56-.03-3.39.1-.89.14,2.27-.02,1.69.13,3.89.07,8.73-.22,12.76-.03,1.27.06.99-.11,2.01-.13.99-.06-3.45-.2.2-.22,1.23-.18,4.44-.2,3.96-.45-.76-.03-1.74-.06-2.23-.1-1.22-.11-1.19-.42-4.31-.18-.03,0-1.13-.07-1.82-.11-2.03-.05-3.97-.01-5.67.12.59.24,2.84-.05,4,.03Z"/><path d="m100.47,1.11c1.01.03,1.74.08,2.26.16,1.31.2,3.79.37,5.73.36,1.74,0,3.32-.05,3.52-.2.38-.27-1.8-.54-6.67-.7-1.19-.03-2.67-.18-4.02-.26-1.48.09-.92.25.68.39,1.61.14,3.1.13,4.26.08.42-.02,2.37.01,2.2.12-.15.1.97.24.25.31-.44.04-.66.11-1.98.06-1.37-.05-1.96-.13-2.12-.21-.16-.08-.36-.16-1.89-.2-1.48-.03-2.23,0-2.23.1Z"/><path d="m128.73,4.97c-3.39-.49-6.58-.52-10.15-.81-1.77-.15-4.25-.27-6.3-.41-1.68-.1-2.87-.17-3.65-.06,2.86.46,7.16.48,10.71.77,5.29.4,10.7.77,15.8,1.58l.43-.04c-.75-.19-3.41-.62.67-.19,1.34.15,2.1.13-.19-.19-2.43-.22-4.23-.17-7.33-.65Z"/><path d="m103.21,54.02c.06.22,1.14.3,3.62.07,1.82-.16,3.01-.17,4.48-.12,1.51.06,4.05-.29,5.48-.16,3.53-.37,7.41-.44,11.11-.73,1.26-.09,1.98-.18,2.55-.31-3.41.09-7.09.32-11.06.58-2.53.15-5.1.3-7.86.33-2.41.04-5.52.23-8.32.34Z"/><path d="m40.56,4.79c-.59.11-1.17.21-1.75.34l-2.62.39c-.36.09-.73.17-1.1.26-1.18.32-2.35.68-3.51,1.04,2.15-.3,6.3-1.37,9.34-1.91,6.03-1.11,12.19-1.86,18.35-2.41l1.64-.2c-2.79,0-5.78.22-8.99.77-2.61.35-5.34.85-6.87.77l-1.18.19-.84.15s.06.06.09.07h.26s-.58.08-.58.08l-2.24.45Z"/><path d="m20.96,15.61c-2.18.86-4.34,1.79-6.39,2.98-1.64.9-3.15,1.86-4.31,2.62-.99.78-1.45,1.21-1.9,1.65-.53.52-1.04,1.07-1.45,1.68-.2.31-.42.6-.61.92l-.49.99c-.57,1.36-.8,2.88-.6,4.44.02.2.05.4.08.57.06.17.11.34.16.49.11.3.19.57.31.78.25.42.45.7.6.89-.96-1.96-1.34-4.24-.61-6.29.65-2.07,2.14-3.79,3.82-5.23,3.44-2.84,7.58-4.79,11.73-6.53l-.35.03Z"/><path d="m82.5,3.2c2.11-.24,4.46-.25,5.97-.2,3.84.11,4.71-.05,5.54-.31-6.32-.01-12.67.14-18.96.82-1.52.17-2.48.1-3.72.24-1.7.2-4.33.37-4.63.65,1.16-.13,2.33-.23,3.49-.35,1.91-.19,3.83-.3,5.74-.44,2.19-.15,4.37-.32,6.56-.42Z"/><path d="m36.69,49.62c-.1.08.41.31-2.18-.25-1.61-.35-2.99-.62-2.75-.41,6.6,1.54,13.28,2.81,20.29,3.59l-.03-.09-.23-.1c-.13-.02-.27-.03-.41-.05-1.17-.12-2.34-.25-2.66-.43-.21-.03-.42-.06-.64-.09l-2.45-.43c-.39.05-1.23-.05-2.52-.35-1.44-.26-2.96-.39-4.25-.74-.43-.12.24-.06.95.04l.07-.04-.77-.26c-1.41-.37-1.57-.24-2.45-.41Z"/><path d="m94.8,2.67c2.53.12,6.68.19,2.74.52-.71.06-.69.17-1.01.26,1.2.02.8.09.88.15h1.61c-.5-.16,1.59-.2,1.64-.32l-1.08-.05c.08,0,.23-.02.24-.02.3.02.58.04.87.07,1.43.11.55.23.85.34,1.62.18,3.28.25,5,.13-2.85-.2-3.65-.42-4.39-.65-1.29-.14-.75-.23.47-.3,1.18-.08,2.48-.07,4.04.06,1.85.14,3.6.29,3.98.04-4.16-.24-8.42-.22-12.53-.36-1.62-.05-2.48.02-3.31.11Z"/><path d="m136.06,5.63c2.29.32,1.52.34.19.19-4.09-.43-1.42,0-.67.19.72-.04,1.98.21,2.96.31-.1-.1.67-.13,1.26-.02,2.95.57,5.09.59,7.68,1,1.4.09,1.46.21,1.55.31,1.38.33,1.74.29,2.16.26-.12-.02-.34-.06-.35-.07-.54-.31-2.49-.63-4.62-.92-2.93-.41-4.94-.93-8-1.27-.08,0-.37-.16-.56-.25l-3.18-.51-1.69-.26-.22.17c3.62.43,3.8.68,3.48.87Z"/><path d="m179.79,12.94c1.64.44,1.88.67,2.91,1.04.66.24,1.31.49.89.44-.33-.03-1.03-.25-1.67-.44-.78-.22-1.75-.51-2.28-.61-.99-.21-2.57-.48-2.41-.38.39.26,1.84.47,2.82.76.6.17,1.14.37,1.71.55.71.33,1.42.42,2.13.65,1.19.32,2.46.69,2.16.45-1.2-.88,2.48.28,5.65,1.73-.34-.28-2.02-.95-2.1-1.12-2.67-1-5.19-1.99-7.96-2.76-1.98-.55-1.58-.32-1.83-.3Z"/><path d="m147.48,7.3c-2.58-.41-4.73-.43-7.68-1-.6-.11-1.36-.08-1.26.02,5.19.68,10.35,1.42,15.52,2.24,2.59.41,5.3.93,7.85,1.45,1.54.32,2.8.52,4.16.75.51-.18-1.28-.58-3.65-.93-3.67-.55-7-1.09-10.01-1.84-.41-.04-.82-.08-1.22-.12-.42.02-.78.07-2.16-.26l-1.55-.31Z"/><path d="m82.5,3.2c-2.19.1-4.38.27-6.56.42l-.06.14c.89-.07,1.69-.09,1.55,0-.13.09-1.04.14-1.85.21-.3.09-.31.16-.33.23,1.62-.17,3.08-.24,3.29-.09,2.09-.07,4.26-.16,6.46-.3.09-.06.05-.11.3-.17,1.07-.23,1.93-.48-2.37-.3-1.39.06-.52-.07-.42-.13Z"/><path d="m68.62,54.69l3.33.06v-.07s-.17-.03-.17-.03l.17.03c1.42.13,2.19-.35,3.98.1.28,0,.84-.02.81-.03-.58-.26,2.48-.25,3.54-.41-.17-.08-.92-.08-1.57-.09-.87.09-2.26.03-3.49,0-.9-.07-1.48.19-1.96-.02-.51-.21-2.01-.15-2.85-.23-1.45.07-2.1-.05-2.58-.19-.86-.07-1.87-.27-2.41-.12l-.37.08c1,.11,1.5.26,2.91.33.96.1.59.15.67.23,4.4.33-.6.22,0,.36Z"/><path d="m49.78,51.41c1.36.3,2.97.58,4.27.85,1.34.28,3.28.55,5.16.73,1.88.16,3.71.2,4.8.15-2.02-.18-4.27-.36-2.83-.46-1.94-.17-3.86-.47-5.77-.67-1.91-.2-3.79-.41-5.63-.6Z"/><path d="m68.63,54.33c4.4.33-.6.22,0,.36-.89,0-1.81,0-1.59.12-2.51-.13-5.19-.12-7.44-.58-.11-.02-.14-.04-.1-.05,3.31.07,3.6-.23,3.45-.54l2.11.14c1,.11,1.49.26,2.91.33-.1.07-.13.13.67.23Zm-2.64.08c.53.07,1.03.04.87-.01-.33-.1,1.36-.14-1.17-.3-1.26-.05-1.16,0-.25.13.17.06.15.13.55.18Z"/><path d="m126.37,53.99c-.77.05-1.42-.04-2.28.13-1.93.37-2.12.16-2.76.1-.58.01-1.32,0-1.72.04-1.55.14-3,.28-4.15.16-.94-.1.37-.24,1.31-.39,1.66-.25,2.95-.24,4.32-.21.85.02,2.27-.03,2.96-.13,2.35-.37,3.41-.25,4.83-.25-.83.18-1.67.36-2.5.54Zm-9.22.28s.29-.02.31-.03c.03-.02-.01-.04-.03-.05l-.64.06c.12,0,.22.02.36.03Z"/><path d="m21.25,45.58c-3.1-1.3-6.23-2.92-8.87-4.47-.65-.42-1.51-1.08-2.06-1.61-.52-.45-.94-.85-1.31-1.2-.37-.33-.7-.61-.98-.87,1.8,2.31,4.78,4.26,7.66,5.75,3.72,1.89,7.27,3.61,11.32,4.81.19.06.39.12.59.18h.03s.01.01.01.01c.42.09.82.17,1.01.17-.26-.1-.58-.21-.97-.32h-.03c-.74-.3-1.71-.62-2.79-.95-1.93-.6-2.78-1.04-3.59-1.5Z"/><path d="m100.47,1.11c0-.1.75-.13,2.23-.1,1.52.05,1.72.12,1.89.2.15.08.75.16,2.12.21,1.32.05,1.54-.02,1.98-.06.72-.06-.4-.21-.25-.31.17-.11-1.78-.14-2.2-.12-1.16.06-2.64.07-4.26-.08-1.59-.14-2.16-.3-.68-.39-.55-.06-1.09-.1-1.65-.05.48.25-2.73.27-3.96.45.87.06,1.66.13,1.72.22l3.07.03Z"/><path d="m142.05,52.3c2.18-.07,4.35-.27,6.48-.79,1.24-.38,5.13-.88,5.77-1.27l-.32-.19c-1.42.16-2.7.35-3.85.61-.18.07.36.06-.5.2l-.28-.09c-.24.02-.5.05-.78.1-3.34.48-2.62.76-5.69,1.2-.69.1-.86.17-.84.23Z"/><path d="m49.72,6.73l.72-.02c1.54-.21,3.66-.6,3.5-.34-.03.04.76,0,1.79-.13,1.03-.12,2.31-.35,3.28-.63.61-.18,1.6-.35,2.95-.52-.06,0-.09-.02-.11-.04l.04-.2c-4.03.44-8.02.95-12.17,1.87Z"/><path d="m12.75,18.65c-.2.3,1.37-.6,2.69-1.23,2.84-1.39,6.26-2.67,8.83-3.69,1.77-.71,3-1.09,4.76-1.69,1.08-.33.45-.25.52-.34-3.79,1.17-7.48,2.33-11.27,4.14-1.64.77-3.73,1.73-5.53,2.81Z"/><path d="m95.85,54.54l1.53-.04c.82-.11,1.94-.22,1.75-.35-4.12,0-8.53.22-12.7.02-1.68-.08-2.2.19-3.72.24.08.11,1.68.2,2.05.18,2.56-.19,4.65.05,6.96,0,1.48-.42,2.74.03,4.13-.05Z"/><path d="m165.05,48.76c.41-.08.82-.16,1.22-.24.72-.32.69-.3-.59-.09-.57.09-1.32.2-1.45.18-.46-.07,1.82-.46,2.16-.65l-1.73.2-2.67.48-5.37,1.22c3.73-.44,3.67-.35-.69.65,1.95.06,3.34-.44,4.79-.85,1.44-.27,2.07-.82,4.35-.91Z"/><path d="m191.68,17.12c-3.17-1.45-6.85-2.61-5.65-1.73.3.24-.96-.13-2.16-.45.29.34,2.01.7,2.98,1.09.76.08,1.37-.09,4.9,1.72.58.31,1.52.77,1.8.83.3.05-.41-.36-1.18-.75l-.34-.15.3.13c-.21-.24-.43-.46-.65-.69Z"/><path d="m59.59,54.23c-.11-.02-.14-.04-.1-.05-.35-.13-2.92-.31-2.42-.44-.64-.25-1.6-.31-2.6-.29-.87.01-1.63.06-2.89-.32-.99-.09-1.66-.36-2.58-.38-1.18-.02-.23.22.73.46,3.32.48,6.85,1.06,9.86,1.02Z"/><path d="m11.58,42.17c-.88-.73-3.17-2.4-3.61-3.11-.11-.16-.88-.76-1.78-1.53-.89-.77-1.89-1.72-2.54-2.46-.22-.24-.36-.39-.54-.58l-.16.1c1.74,2.54,4.05,4.24,6.36,6.07.59.43,1.19.84,1.8,1.24.24.16.4.25.47.27Z"/><path d="m35.96,49.01c1.08.42,8.39,1.97,10.78,2.22,2.35.29.89-.09,1.37-.12-1.49-.19-3-.36-4.39-.7-.3-.07-1.33-.27-1.4-.27-1.93-.12-4.28-.74-6.36-1.13Z"/><path d="m89.61.18c-1.15-.08-3.41.2-4-.03-1.18-.09-2.35,0-3.52.08-1.95.23-5.04.25-7.33.46.47.08.41.2,2.86,0,1.48-.13,3.63-.18,5.48-.24l1.02-.1.32.03-1.29.07c1.53,0-3.16.5,2.43.2.19-.1-.54-.23,1.67-.27.45-.09,2.46-.07,2.35-.19Z"/><path d="m11.4,19.69c.02-.05-.24.08.36-.32-2.12,1.38-4.3,2.97-5.75,5.17-1.56,2.13-1.9,4.99-1.18,7.13l.04-.13c-.19-1.11-.32-2.26-.06-3.37.3-1.84,1.27-3.5,2.45-4.9,1.2-1.4,2.64-2.54,4.14-3.58Z"/><path d="m74.77.69c2.29-.22,5.38-.24,7.33-.46-.27-.2-2.09.02-3.02.04-3.59.06-7.28.33-10.88.62.76.3,4.28-.14,6.58-.2Z"/><path d="m16.72,11.4c2.39-.99,5.06-2.15,6.78-2.51.65-.15,1.52-.53,1.64-.66.08-.1-.14-.11.89-.51.27-.3-1.78.44-2.85.86-2.45.89-4.85,1.89-7.27,2.92.23,0-.34.34.82-.09Z"/><path d="m5.61,18.44c-1.4,1.09-2.66,2.49-3.15,3.66-.15.38-.31.66-.45.93-.13.28-.27.54-.43.87-.51,1.1-.74,2.32-.68,3.52.06,1.19.41,2.35.94,3.35-.35-1.08-.64-2.3-.66-3.6-.02-1.29.23-2.66.82-3.88.8-1.83,2.15-3.39,3.69-4.72l-.07-.12Z"/><path d="m196.33,36.93c-.19.22-.63.62-.6.66.02.02.15-.04.49-.26.17-.11.39-.26.67-.46.26-.22.59-.48.99-.81,1.59-1.4,2.3-2.07,3.05-2.88.17-.21.25-.22.39-.36.13-.15.4-.39.68-1.22.28-.65.27-.93.23-1-.04-.07-.12.05-.2.16-.15.21-.33.28-.49.41-.41,1.22-1.29,2.23-2.14,3.22-.49.44-.95.92-1.47,1.34-.54.4-1.03.85-1.6,1.21Z"/><path d="m37.42,51.19c.31-.16.37-.28-3.14-.88-.82-.12-1.65-.25-2.47-.4l-1.54-.35c-.67-.09-1.57-.34-2.45-.56l-.95-.1c-.11.11.97.37,1.83.56,2.9.68,5.8,1.24,8.72,1.73Z"/><path d="m164.65,48.17l1.73-.2c2.28-.53,4.65-1.21,6.63-1.44.51-.06,1.93-.51,1.84-.51-.42,0,2.68-.87.46-.39-3.51.96-7.42,1.6-10.66,2.55Z"/><path d="m36.75,50.4c.9.11,2.24.24,2.61.32,1.49.33.06.15-.47.12-.36-.02.09.1.7.22.7.12,1.46.22,1.48.16.04-.09-.16-.22-.26-.34-2.91-.68-6.24-1.27-9.52-2l-.14.14s.04.05.02.06l.87.21c2.13.4,4.15.75,4.7,1.12Z"/><path d="m142.88,52.07c3.07-.44,2.35-.73,5.69-1.2-1.73.06-3.49.11-5.71.66-.25.08-.4.18-.76.22-5.42.68-1.41.37-.12.34.13-.06-.03-.11.95-.21l-.18.14c.05.02.1.03.14.05Z"/><path d="m199.55,22.11c.45.61,1.34,1.73,2.21,2.95.84,1.14,1.58,3.29,1.06,5.23-.42,1.92-1.49,3.42-1.97,4.25.19-.23.39-.44.57-.68l.48-.75c.35-.48.57-1.05.8-1.61.14-.27.21-.57.26-.87l.18-.9c.06-.61.05-1.22-.05-1.82-.42-2.42-1.92-4.34-3.55-5.81Z"/><path d="m134.49,4.85l3.18.51,1.66.26c.01-.17,1.39.03,2.73.22,3.12.58,6.07.99,8.87,1.23-.25-.11-1.1-.32-1.68-.38-4.77-.55-10.09-1.54-14.76-1.83Z"/><path d="m74.88,1.54c-.17-.19-.73-.32-3.88.05-2.34.28-5.32.2-7.57.57,3.43.04,7.56-.41,11.45-.62Z"/><path d="m30.54,12.3c-1.12.11-3.22.68-5.52,1.33.51.04-.61.59-2.07,1.31,1.59-.5,2.97-1.06,4.42-1.58.74-.41,2.04-.75,3.17-1.06Z"/><path d="m39.41,4.1c1.44-.15,3.64-.49,5.93-.84,2.29-.34,4.66-.72,6.44-1.05-3.55.28-7.09.88-10.61,1.52-.07.14-.93.25-1.75.37Z"/><path d="m109.93,54.57c-.96.05-1.62.1-1.6.19h1.06s.24.08.24.08h-.78s-.65-.06-.65-.06c-.99.03-1.46.09-1.53.17,3.02-.06,5.64.06,8.97-.23-.31-.23-3.11-.14-4.98-.18l-.73.02Z"/><path d="m162.09,9.14c3.72.7,7.41,1.43,10.61,1.92-1.22-.39-2.38-.69-4.27-.95-2.39-.32-5.3-1.02-7.92-1.44l.12.18c.48.1.97.19,1.46.29Z"/><path d="m8.73,15.83c2.87-1.79,4.47-2.71,3.33-2.51-.99.5-1.98,1.02-2.95,1.59.5-.15-1.56,1.21-1.07,1.08.86-.46.56-.16.69-.15Z"/><path d="m156.61,49.87l5.37-1.22c-2.75.38-5.47.78-8.01,1.4l.32.19,2.31-.37Z"/><path d="m62.93,53.64l2.11.14.37-.08c-3.07-.23-6.18-.59-9.04-.69.9.22,2.78.44,3.11.62.59.02,1.1.05,1.6.07.14-.08.23-.18,1.85-.05Z"/><path d="m5.61,18.44l.07.12c1.04-.85,2.12-1.65,3.28-2.34.62-.57.5-.67-.24-.39-1.71,1.05-1.35.74-1.45.67-.28.15-.71.34-1.3.86-.7.6-.23.3-.08.23.61-.26,1.62-.84-.29.85Z"/><path d="m97.57,55.12l-.05.14c2.81-.04,5.89.09,8.26-.28-.42-.12.19-.39-2.92-.04-1.35.15-3.7.02-5.3.18Z"/><path d="m132.59,4.75l.22-.17c-3.16-.48-6.06-.63-9.01-.8l1.53.27c1.63.2,1.64.34,1.86.48.22.02.44.05.67.07.03-.25.55-.44,4.73.15Z"/><path d="m96.52,3.45c-2.17-.02-4.35.05-6.52.07-1.4.04-2.46.07-2.6.21,2.9.07,6.12-.14,9.13-.08,0-.06.01-.13-.02-.2Z"/><path d="m125.32,4.05l-1.53-.27c-2.34-.3-4.77-.61-6.71-.45,2.11.21,4.31.43,6.67.67,1.11.11,1.5.13,1.57.05Z"/><path d="m45.59,52.56c-.09-.03-.11-.06-.27-.1-1.15-.28,3.35.22-.03-.32-2.44-.38-4.03-.47-3.85-.2,1.42.28,2.93.62,4.15.62Z"/><path d="m21.25,45.58c.81.45,1.67.9,3.59,1.5,1.08.33,2.05.66,2.79.94h.03c.39.12.71.23.97.33.57.12,1.3.29,1.52.28-.45-.17-.9-.33-1.36-.5l-1.1-.27h-.01s0,0,0,0c-2.08-.69-4.15-1.39-6.17-2.24l-.27-.04Z"/><path d="m61.18,52.69c-1.44.1.81.28,2.83.46,1.49.16,2.43.2,3.07.16l-.03-.15c-1.92-.12-3.84-.26-5.87-.46Z"/><path d="m39.98,8.94c2.89-.76,6.22-1.35,8.8-2.03-2.97.43-5.89,1.21-8.81,1.91v.12Z"/><path d="m185.27,42.43c.6.35,3.7-1.29,5.5-2.17-.16-.04.31-.41-1.89.66-1.1.52-2.39,1.04-3.62,1.5Z"/><path d="m42.45,51.13c.27.14-.06.27,1.78.54,2.48.36,1.03-.1,2.47.04-1.95-.49-2.84-.36-4.25-.58Z"/><path d="m31.58,6.82c1.16-.37,2.33-.73,3.51-1.04-2.25.51-2.42.45-2.77.4-.2-.02-.75.06-1.82.35-.39.12-1.01.34-1.12.4-.33.18.54-.06,1.22-.24,2.49-.57-1.9.8.27.31.22-.06.46-.12.71-.18Z"/><path d="m65.54,53.81c-1.64-.07-3.81-.66-5.12-.42q.67.27,5.12.42Z"/><path d="m20.04,45.94c-1.99-.85-1.78-.97-2.17-1.28-1.51-.69-3.06-1.73-4.31-2.3v.09c1.01.67,2.91,1.65,3.02,1.84.25.46,1.87,1.11,3.46,1.64Z"/><path d="m24.92,47.19c-1.07-.09,1.31.67,2.43,1.07.42.08.85.13,1.28.2l1.05-.02c-1.63-.44-3.11-.66-4.75-1.25Z"/><path d="m198.98,22.75l-.14.15c1.02,1.09,1.97,2.25,2.63,3.7.05-.03.16.07.15-.07,0-.14-.11-.55-.72-1.5-.96-1.39-1.54-1.94-1.37-2.01-.57-.5-.46-.27-.55-.27Z"/><path d="m22.95,14.93c1.47-.72,2.59-1.27,2.07-1.31-1.55.67-3.81,1.66-4.06,1.98l.35-.03,1.64-.65Z"/><path d="m16.72,11.4c-1.15.43-.59.08-.82.09-.76.31-1.52.66-2.28.99-.26.38-.23.54,3.2-.91l-.11-.17Z"/><path d="m160.63,8.84l-.12-.18c-1.57-.28-2.93-.49-4.1-.59.93.63,2.6.68,4.22.77Z"/><path d="m17.24,42.93s-.18,0-.06.1c.36.29-1.83-.61.45.54,2.03.98.35-.01.68.05.09.02.78.33,1.19.49-.47-.3-.88-.57-2.26-1.18Z"/><path d="m30.54,12.3c-1.13.31-2.43.64-3.17,1.06l1.72-.54c.64-.22,1.21-.37,1.52-.41,1.06-.33,2.11-.69,3.18-1l-.69.13-2.56.77Z"/><path d="m117.22,53.14s.06-.04,0-.05c-.29-.05.92-.29-1.09-.11-.69.06-1.95.34-.64.32l1.73-.15Z"/><path d="m100.66,3.29c-.06.12-2.14.15-1.64.3l2.52.03c-.3-.11.58-.23-.88-.34Z"/><path d="m97.4,1.09c-.05-.09-.85-.16-1.72-.22-3.64.02.8.16-.19.22.16.02.37.02.63.02h1.09c.23,0,.29,0,.19-.02Z"/><path d="m12.6,42.75l-1.42-.85c.52.54,2.26,1.59,3.32,2.26l.14-.07v-.15c-.38-.23-.67-.4-.96-.58-.15,0-.62-.31-1.07-.62Z"/><path d="m189.58,15.99c.08.17,1.76.84,2.21,1.16.41.16.81.35,1.22.53-.31-.19-.61-.39-.92-.56-.78-.42-1.61-.79-2.51-1.13Z"/><path d="m29.67,48.44l-1.05.02c.84.19,1.69.39,2.54.55l.14-.14c-.55-.14-1.09-.27-1.63-.43Z"/><path d="m67.83,53.81c.48.14,1.13.27,2.58.19-.69-.09-.96-.29-2.58-.19Z"/><path d="m62.8,4.92l2.58-.37c.1-.18-1.32.03-2.59.19l.02.17Z"/><path d="m75.22,54.26c1.23.03,2.62.09,3.49,0-1.77-.18-2.71-.11-3.49,0Z"/><path d="m125.9,52.24c-.81.04-1.75.16-2.8.34.9-.08,1.46.03,2.8-.34Z"/><path d="m33.1,11.52l.69-.13,1.59-.43-.08-.04c-.73.13-1.47.32-2.19.6Z"/><path d="m4.77,35.33s-.03,0-.1-.06c.08.08.17.17.26.27.08.02.17.05.26.07l-.42-.29Z"/><path d="m30.61,12.4c-.32.05-.88.2-1.52.41.01.1.53-.05,1.52-.41Z"/><path d="m11.74,14.66c-.1,0,0-.13-.8.3-.57.33-.44.32,0,.1l.8-.4Z"/><path d="m14.64,44.1l-.14.07c.76.41,1.29.65,1.57.72l-1.43-.79Z"/><path d="m11.11,41.9c-.61-.4-1.21-.81-1.8-1.24.69.62,1.3,1.03,1.8,1.24Z"/><path d="m96.56,3.46l-.02.19c.55.01.83,0,.86-.05-.07-.06.33-.13-.84-.15Z"/><path d="m149.35,50.77l.28.09c.85-.14.32-.13.5-.2-.26.02-.52.06-.77.11Z"/><path d="m39.41,4.09c.81-.12,1.68-.23,1.75-.37-.74.12-1.48.24-1.75.37Z"/><path d="m21.52,45.61c2.02.84,4.09,1.55,6.17,2.24h0s.01,0,.01,0l1.1.27c.87.2,1.26.24,1.35.2l.15-.15c-1.38-.32-1.82-.48-1.31-.45.24.01.58.03-.33-.19-.22-.05-.53-.12-.83-.18h.02c-.44-.13-.84-.23-.84-.23.08.31-3.47-.92-4.86-1.37-.29-.09-.42-.1-.62-.15Z"/><path d="m74.23,54.25c1.74.12,3.48.25,5.19.18-2.93-.12-.53-.27-2.58-.39l-3.29-.23c.41.17,2.16.34.68.44Z"/><path d="m10.27,21.21c1.16-.76,2.66-1.72,4.31-2.62-.08-.03.11-.23-.31-.05-.57.24,1.55-1.05-.42.04-1.35.77-1.03.72-.85.69.08,0,.16.09-.76.52-1.67.83-1.16.89-1.96,1.42Z"/><path d="m45.65,51.37l2.45.43c.33-.02,2.44.23.59-.11-1.95-.36-2.62-.36-3.04-.31Z"/><path d="m39.83,50.32c-.72-.1-1.38-.16-.95-.04,1.29.36,2.81.49,4.25.74-.1-.18-1.99-.45-3.29-.7Z"/><path d="m4.81,28.17c-.26,1.11-.12,2.26.06,3.37.09-.21-.12-1.25-.04-2.59.15-1.02.02-.7-.02-.78Z"/><path d="m35.34,10.73c.22-.06.44-.13.68-.2l.06-.13c-.96.27-2.15.57-2.55.78l1.81-.46Z"/><path d="m48.73,51.89c.32.18,1.48.31,2.66.43l-.07-.13c-.87-.1-1.73-.2-2.59-.3Z"/><path d="m33.21,48.56c-.17-.05-.34-.09-.5-.14l-.47-.04c.21.05.45.12.61.15.16.03.24.02.36.03Z"/><path d="m8.37,22.86c.45-.44.91-.87,1.41-1.26-.21.13-.38.19-.62.4-.7.6-.64.65-.79.86Z"/><path d="m39.13,50.03l.77.26c1.24.13.29-.05-.77-.26Z"/><path d="m51.32,52.19c.44.05,1.09.15,1.09.1,0-.01-.31-.08-.48-.1-.75-.1-.54-.03-.61,0Z"/><path d="m30.3,48.18l-.15.15c1.05.18,1.15.14.15-.15Z"/><path d="m10.14,38.69s.1.11.18.19c0-.03-.1-.11-.18-.19Z"/><path d="m37.7,9.98l.02-.07c-.55.15-1.09.32-1.63.49.52-.14,1.06-.3,1.61-.42Z"/><path d="m36.67,49.62l-.18-.06c.07.02.13.04.18.06Z"/><path d="m51.8,52.37l.23.1c.72.06.57.02-.23-.1Z"/><path d="m18.26,11.04c-.89.47-2.29,1.18-1.18.87.48-.13,1.04-.3,2-.68,1.42-.56,1.54-.71,1.7-.87-.78.2-1.18.25-.59-.11.27-.16.18-.19-.66.14-1.01.4-1.14.53-1.27.65Z"/><path d="m87.26.37c-2.21.05-1.47.18-1.67.27.82,0,1.97-.06,2.09.06.06.06.86.12,1.58.1.74-.03,1.43-.1,1.69-.17.44-.11-1-.05-1.45-.08-.88-.06-1.51-.12-2.25-.18Z"/><path d="m45.04,3.84c1.53.07,4.26-.42,6.87-.77-1.93.05-4.11.23-6.87.77Z"/><path d="m43.03,4.19l.84-.15c.14-.04.22-.08.42-.12,1.55-.34,2.59-.55.95-.46-.43.03-1.6.18-1.39.21.48.05-4.63,1-.82.52Z"/><path d="m25.44,8.73l2.26-.74c0-.09,1.86-.79-.17-.21-1.49.47-2.49.93-2.08.95Z"/><path d="m36.19,5.51l2.62-.39c-.08-.06,1.3-.43.1-.25-.95.15-1.97.39-2.72.63Z"/><path d="m82.19.78c-.48-.01-.77-.03-1.05-.02-.3.01-.6.05-.9.07.25,0,.49.03.77.03.29,0,.63-.04,1.18-.08Z"/><path d="m40.56,4.79l2.24-.45c.1-.03.21-.05.32-.08l-.11-.05c-1.01.18-2.5.45-2.45.58Z"/><path d="m23.47,9.46c.65-.18,1.3-.39,1.92-.71-.65.21-1.28.47-1.92.71Z"/><path d="m77.22,1.27c-.24,0-.35,0-.47.02.08,0,.17,0,.47-.02Z"/><path d="m184.9,43.65c.86-.33,1.86-.7,2.34-.98.3-.35,2.94-1.29,3.88-1.92.36-.2,1.71-.68,2.19-1.1.29-.26-.98.3-1.76.63-.82.29-1.44.58-2.5,1.14-1.34.7-2.96,1.4-4.3,1.66-.81.13-2.15.73-2.95,1.03-1.4.54-.23.23.63.02,1.34-.36,2.67-.72,2.48-.47Z"/><path d="m198.98,22.75c.09,0-.02-.23.55.27.09.04.5.42.78.71.28.3.47.48.2.05-.17-.32-.7-.94-1.09-1.31-1.32-1.21-.54-.3-.88-.51-.19-.11-.35-.18-.62-.36-.52-.37-2.06-1.39-1.54-.92.59.54,1.75,1.19,2.59,2.05Z"/><path d="m202.32,27.57c.04.17.06.34.05.51l.12.47c-.02-.21-.03-.46-.05-.63-.01-.16-.08-.23-.12-.34Z"/><path d="m169.76,47.88l-.8.18c.26-.06.54-.12.8-.18Z"/><path d="m104.89,53.56c.17.04.22.09,1.33-.02-.15-.04-.68-.02-1.33.02Z"/><path d="m133.77,53.26l1.68-.15c.01-.09-.39-.18.13-.27.91-.15,1.72-.27,1.4-.34-.16-.04-.65.03-.85.07-.72.16-3.15.36-2.49.49.22.04.09.13.12.19Z"/><path d="m128.87,53.46c.52.02.56.12,1.75.03.17-.01.57-.1.53-.12-.24-.09-1.38.03-2.27.09Z"/><path d="m109.93,54.57l.73-.02c0-.05.15-.12-.8-.09l.08.11Z"/><path d="m142.75,52.01l.18-.14c-.97.1-.82.15-.95.21l.77-.08Z"/><path d="m138.75,52.66l-.3-.06c-.79.13.03.07.3.06Z"/><path d="m76.83,54.04c2.06.13-.34.27,2.58.39,1.06.05,1.82.02,2.38-.03,1.18-.1,2.63-.19.44-.36-3.45-.27-3.6,0-5.4,0Z"/><path d="m90.7,54.06c-1.19.03-3.09-.08-2.99.11.03.06.51.17,1.86.12,1.31-.05,3.22-.15,3.29-.21.14-.13-1.55.02-2.17-.01Z"/><path d="m89.4,54.51c.93.06,1.51.13,2.19.12.86,0,2.38-.02,2.43-.13.03-.05-.53-.11-1.44-.09-.98.03-1.93.06-3.19.1Z"/><path d="m100.75,53.82c.11.03.12.08.98.03.27-.02.41-.07.62-.11l-1.6.08Z"/><path d="m86.13,54.28c.27-.02.1-.02-.06-.02l.06.02Z"/><path d="m99.17,53.83h.38s.38-.02.38-.02c-.25-.02-.5-.01-.75.02Z"/><path d="m2.64,32.76c0,.2.41.95,1.18,1.87.99,1.15.71.6.87.66-.92-1.13-1.16-1.04-2.05-2.53Z"/><path d="m7.28,16.5c.1.08-.26.38,1.47-.68-.15,0,.15-.3-.71.16-.26.16-.51.34-.76.52Z"/><path d="m2.63,32.74l-.07-.17c.02.06.05.12.07.17Z"/><path d="m162.09,9.14l-1.48-.3c.25.1-.52.06.66.27.67.13.85.09.81.02Z"/><path d="m142.06,5.84c-1.34-.19-2.72-.39-2.73-.22,1.01.09,2.13.23,2.73.22Z"/><path d="m20.04,45.94c-1.59-.53-3.21-1.18-3.46-1.64-.11-.19-2.01-1.17-3.02-1.84.49.47.86.88,1.52,1.42,1.37,1.21,4.44,2.6,7.07,3.18.33.07.5.08.9.19,1.47.4,1.64.21.22-.32q-.59-.23-.97-.21c-.18,0-.17.13-1.25-.27-.33-.12-.67-.32-1-.5Z"/><path d="m32.05,49.28l-.87-.21c-1.6-.12.75.63.63.84.82.15,1.64.28,2.47.4.27-.14-2.92-.95-2.22-1.03Z"/><path d="m27.82,49c.88.22,1.78.47,2.45.56-.02-.02,0-.03-.08-.05-1.07-.34-.81-.51-2.15-.8-1.96-.46.17.28-.23.29Z"/><path d="m23.62,47.59c-.24-.05-.51-.12-.49-.1.06.06.22.15.34.22.11.01.3.05.31.04.01-.03-.09-.09-.17-.15Z"/><path d="m12.6,42.75c.46.31.93.62,1.07.62-.44-.28-1.03-.72-1.07-.62Z"/><path d="m14.64,43.95l.32.14c-.13-.07-.27-.13-.32-.14Z"/><path d="m156.61,49.87l-2.31.37c-.65.39-4.54.89-5.77,1.27.14.08-.17.24,1.69-.03-.81-.02.54-.28,1.39-.44,1.04-.19,1.55-.18,1.96-.17l2.35-.36c4.37-1,4.43-1.09.69-.65Z"/><path d="m153.56,50.88c-.4-.01-.91-.02-1.96.17-.85.16-2.2.41-1.39.44,1.27-.18,2.86-.35,3.34-.6Z"/><path d="m165.05,48.76c-2.28.09-2.91.63-4.35.91,1.8-.18,3.09-.56,4.35-.91Z"/><path d="m169.78,47.88l-.84.18c.29,0,.57-.06.84-.18Z"/><path d="m62.93,53.64c-1.62-.12-1.71-.03-1.84.05.23.15-.61.06-1.51-.06-.52.08-.18.3-2.51.11-.49.13,2.07.31,2.42.44,3.31.07,3.6-.23,3.45-.54Z"/><path d="m36.77,50.4l-1.02-.18c.56.18.72.14,1.02.18Z"/><path d="m75.3,3.97c.39-.09.49-.16.6-.23-1.66.14-3.32.25-4.97.42-1.49.15-1.52.24-1.57.32.89-.07,1.97-.21,2.51-.17l3.44-.35Z"/><path d="m70.92,4.17c1.65-.17,3.31-.28,4.96-.42l.06-.14c-1.91.14-3.83.25-5.74.44l.72.12Z"/><path d="m52.21,7.01c.04.05.14.11,1.04-.04.41-.07.94-.22,1.41-.32-.6.01-1.55.2-2.45.36Z"/><path d="m71.86,4.32c-.53-.03-1.62.1-2.51.17.52.04,1.53-.07,2.51-.17Z"/><path d="m61.96,5.09s-.77.17-.03.11c.08,0,.31-.04.38-.06.47-.11.19-.1-.34-.05Z"/><path d="m95.85,54.54c-1.39.08-2.65-.37-4.13.05-.23.3,2.78.11,4.17.15-.02-.07-.03-.13-.04-.2Z"/><path d="m78.54,54.75h.34c-.11,0-.21,0-.34,0Z"/><path d="m95.89,54.74l.18.03c-.06,0-.13-.02-.18-.03Z"/><path d="m37.7,9.98c-.55.13-1.08.28-1.62.43l-.06.13c1.14-.3,1.68-.47,1.69-.56Z"/><path d="m132.59,4.75c-4.18-.59-4.7-.4-4.73-.15l.87.37c3.1.49,4.9.43,7.33.65.32-.19.14-.44-3.48-.87Z"/><path d="m92.65,3.24h-.36s.15.03.36,0Z"/><path d="m42.8,4.34l.58-.07h-.26c-.11.02-.22.05-.32.07Z"/><path d="m100.68,3.29c-.29-.02-.57-.04-.87-.07,0,0-.15.01-.24.02.36.02.72.03,1.11.05Z"/><path d="m147.48,7.3l1.55.31c-.1-.1-.15-.21-1.55-.31Z"/><path d="m75.89,3.75l-.31.21c.81-.07,1.72-.12,1.85-.21.14-.09-.66-.07-1.54,0Z"/><path d="m67.95,54.1c-.1.07-.13.13.67.23-.08-.07.29-.13-.67-.23Z"/><path d="m71.95,54.69l-.17-.03c.06.01.12.02.17.03Z"/><path d="m65.43,54.23c.17.06.15.13.55.18.53.07,1.03.04.87-.01-.33-.1,1.36-.14-1.17-.3l-.25.13Z"/><path d="m65.43,54.23l.25-.13c-1.26-.05-1.16.01-.25.13Z"/><path d="m116.79,54.25c.12,0,.22.02.36.03.02,0,.29-.02.31-.03.03-.02-.01-.04-.03-.05l-.64.06Z"/><path d="m192.33,17.81l-.3-.13c.11.05.23.1.3.13Z"/><path d="m83.17.44l1.29-.07-.32-.03c-.34.03-.68.07-.96.11Z"/><path d="m109.39,54.77h-1.06c.08.02.29.05.51.07l.55-.07Z"/><path d="m59.58,53.63c.9.12,1.74.22,1.51.06l-1.51-.06Z"/>
                  </g>
                </mask>
              </defs>
              <path class="mask" d="m112.04,1.26c-17.13-1.08-31.45-.65-41.73.02-17.37,1.13-32.87,2.24-48.51,8.48C13.53,13.06,3.49,17.07,1.13,24.03c-3.43,10.12,12.07,18.67,14.87,20.22,2.2,1.22,10.84,5.53,36.08,8.67,15.38,1.91,31.65,2.03,47.72,1.67,25.74-.58,52.13-2.45,75.06-8.38,13.69-3.54,26.84-9.39,27.58-16.63.49-4.72-4.59-9.18-11.73-12.35-7.14-3.17-16.2-5.23-25.34-6.99-22.28-4.3-46.19-7.16-70.6-7.03-24.41.13-49.41,3.41-69.36,10.42-7.82,2.75-15.01,6.19-18.39,10.47-5.04,6.39-.44,13.69,8.93,18.6,3.79,1.98,7.72,3.6,11.81,4.91,7.41,1.73,15.66,3.28,24.72,4.45,38.99,5.05,73.26.5,94.5-3.7"
                    mask="url(#path-mask)" stroke="black" stroke-width="2" fill="none"
                    stroke-dasharray="702.6854858398438" stroke-dashoffset="702.6854858398438">
              </path>
            </svg>
        