
            <svg xmlns="http://www.w3.org/2000/svg">
              <defs>
                <mask id="path-mask">
                  <g fill="white">
                    <path d="m253.51,1.76c-3.02-.07-1.12.33-1.73.5l-2.16-.19c-1.76-.27-3.83-.49-5.51-.79-3.45-.6-9.97-.54-12.75-.04-1.9-.06-3.11.02-3.92.17-2.53-.17-6.3.12-8.26-.2-.54-.23-2.77-.42-.9-.7,1.35-.18,2.81-.3,4.98-.14,1.79.14,3.41.13,4.43-.09h1.68c1.04-.05,2.27.1,3.44.18,1.17.11,2.28.15,3.1-.15.65.02,1.86.07,1.88.07,1.66-.52,5.51-.21,8.84.02l.04.16c-.92.03-.73.07.3.13.17,0,.34,0,.52.01l.1.23c-.57-.01-1.4-.07-1.39.03,0,.02.41.08.62.09.96.04.69-.06.8-.11l3.3.03c.27,0,.54.02.82.03-.41.11-3.12.1-.75.34,2.51.27,3.37.14,3.9-.05.49-.19,1.57-.16,3.25.09.14.33,2.58.35,4.26.56l-.09.09c-1.6.03-.36.17,1,.31,1.82.38,2.02.07,3.19.17l.23.07-.26-.06c.12-.17-.54-.48,2.8-.09,2.08.29,3.88.43,3.55.08l2.07.21,1.77.59c-1.13-.12-1.63-.11-1.74,0-1.36-.05-1.49.06-.19.33,1.79.22,2.37.41,1.7.51-.31.06-.74.1.44.28.34.06.89.12,1.35.16s.84.07.83.05c-.15-.5,4.59.1,6.47.18.38,0,.55-.04.82-.06l.35-.08c2.11.36,4.26.75,6.35,1.22,2.09.44,4.15.78,6.06,1.09.97.14,2.26.59,3.18.9,1.66.54,2.79.87,3.77.92,2.64.79,5.22,1.74,7.81,2.69l.09.2c.15.27,1.35.83,2.92,1.4,1.22.44.88.12,1.01.04,4.32,1.54,8.57,3.27,12.9,5.39l-.15-.13c.08-.03-.21-.27.61.12.27.04.42-.03,1.47.52-.53.12,1.46,1.29,3.04,2.28,3.43,2.16,7.14,5.05,9.7,7.6.89.89,1.58,1.7,2.13,2.62.58.9,1.03,1.9,1.31,3.17.26,1.56.36.67.54.78.18,1.33-.03,2.65-.38,3.91-.4,1.24-1.01,2.37-1.73,3.4-1.45,2.04-3.28,3.64-5.17,5.07l-.16-.25c.64-.7.36-.69-.12-.57-.83.18.08-.56,1.92-2.19.51-.52.96-1.08,1.42-1.64.83-.98,1.75-2.25,1.74-2.87-.19.34-.37.67-.61.98-.23.31-.43.64-.7.92-.3.15-1.24,1.09-.26-.34.35-.3.61-.67.88-1.04.23-.39.41-.82.52-1.27.41-.96.64-1.98.69-3.01.26-.62.38-1.64.11-2.86-.26-1.21-.91-2.56-1.76-3.85-1.59-1.53-4.13-3.36-4.78-3.26-2.26-1.9-4.75-3.55-7.44-4.91,0-.17.39-.17-.06-.54-.62-.5,2.26.83-.24-.57-1.73-.98-1.5-.57-1.39-.33.05.12-.07.37-1.09-.45-1.89-1.49-1.73-.7-3.54-1.63-.25-.19-.4-.4-.77-.58-1.06-.52-1.11-.38-1.44-.44-1.74-.8-3.51-1.47-5.28-2.2-1.79-.68-3.62-1.35-5.49-2.18-1.97-.78-3.17-.78-3.84-.73-5.94-1.92-11.97-3.59-18.11-4.81.03-.07.24-.12.06-.23-.53-.32,2.5-.05-.68-.74-2.82-.6-.45.25-.89.34-.12.02-1.07-.12-1.64-.19-2.63-.32-5.34-.81-8.1-1.16-1.37-.2-2.75-.4-4.13-.6-1.38-.2-2.76-.34-4.12-.51-1.59-.18-4.2-.22-5.43-.67-.71-.23-3.42-.67-6.34-1.07-2.92-.35-6.05-.61-7.58-.65Zm18.11,2.01l.61-.04c-.27-.04-.58-.11-.79-.12-.21-.02-.31.01-.46.03.22.05.43.09.65.14Zm30.79,5.2c.11.03.27.08.41.12,0-.05-.17-.1-.41-.12Z"/><path d="m213.34,2.21c7.06-.27,14.04.18,21.05.59.88,1.11,5.44.8,8.35,1.17.56.37.45.75,3.6.71,1.9-.01,4.62.34,7.05.6,1.92.36-4.17.83,2.97,1.14,1.03.17,2.51.21,2.6.61.05.2,1.02.55,1.95.62.95.07,1.85-.04,2.21-.17.6-.22-1.23-.35-1.79-.51-1.09-.33-1.85-.68-2.75-1.02.6-.17,3.13.33,3.04-.07,1.48.76,7.06.92,6.93,1.68-.07.37-2.34.43-3.35.74-1.05.31-5.25-.19-8.58-.67-1.5-.22-2.91-.57-4.41-.75-1.44-.19-3.19-.7-4.28-.49-1.17.22,2.85.47,2.07.78-2.33.05-4.75-.06-7.4-.52-.15-.64-.82-1.17-4.87-.89-3,.2-6.73-.85-9.64-.3h-1.11s-2.1-.27-2.1-.27c-3.52-.76-7.35-.9-11.48-.29-2.46-.49-5.24-.72-8.82-.32l-1.52.03c.18-.05.29-.13.55-.16,2.02-.25,3.36-.52,1.28-.93-.54-.11-2.04-.21-1.79-.02.61.44-6.03.67-1.16,1.24-1.31.08-3.24,0-3.21.43h-2.28c-.08-.22,1.74-.47.19-.66-1.23-.15-2.56-.04-3.56.17h-1.44c-2.95-.05-3.14-.47-3.56-.87-.25-.23-.94-.41-2.35-.39-.52,0-1.35.11-1.51.19-.46.24.68.29,1.58.37,3.25.31-2.6.77.23,1.1-.7.39-2.52.38-4.22.41l-.03-.27c.03-.26,2.56-.65-.13-.75-1.99-.08-3.38.26-2.97.69l-2.61.02-3.61-.34c-1.02-.29-1.52-.59-.66-.95.39-.16.3-.32-.85-.33-1.38-.01-1.59.19-1.81.37l-1.94-.16-.05-.58c3.29.01,6.99-.29,9.2.44.84.28,2.05.11,2.25-.19.14-.21-.12-.45,1.27-.58,5.69-.59,11.56-.7,17.59-.38,3.67.73,11.3.61,15.89-.25Zm37.38,3.58c-.38-.05-.77,0-1.15,0,.32.09.6.21.96.26.37.05.81.03,1.51.04-.6-.15-.96-.27-1.32-.31Z"/><path d="m117.63,69.87c2.74.06,3.98.44,5.37.84.69.2.21.58,2.4.56,1.77-.02,1.38-.34,1.06-.63-.3-.27-.46-.54-.68-.81,2.15.11,4.3.18,6.45.26,0,.27-.76.59,2.17.7,2.21.08,3.21.26,3.12.63-.25.2-2.83.14-1.57.5.44.13,1.46.29,2.13.3,2.26.05.77-.34,1.27-.51.28-.09.49-.2.91-.27.81-.13,3.18-.14,2.3-.39-1.01-.29-2.72.04-4.27-.07l.02-.5c6.12.13,12.03.47,17.89.79-.96.54-1.6,1.2-6.63.62-.83-.1-2.18-.09-2.52.11-.37.22.67.31,1.82.38.36.29.73.59.96.91l-1.68.11,1.34.27c-4.01.25-7.75.04-11.24-.56-.9-.38-2.67-.83-4.52-.6-3.54.49-9.83-.86-12.23.02-3.4-.46-7.01-.57-10.5-.85.19-.6-2.49-.9-4.74-.92-2.01-.01-3.19-.17-4.67-.46.57-.5,4.07.2,5.51-.02.54-.08,2.29.62,3.11.28.5-.2-1.23-.55-2.3-.84-1.09-.29-1.95-.4-3.49-.34-1.94.08-4.19.08-5.85-.67-.99-.44-2.87-.38-3.97-.37-1.92.02-.4.33.69.59,1.73.42,3.44.85,3.07,1.26l-1.13.05c-1.9-.91-5.72-1.01-8.93-1.44-1.25-.18-4.15-.28-3.23-.85.22-.14-3.7-.35-3.84-.19-.28.34-1.32.19-2.74,0l-1.04-.15c-1.96-.14-4.3-.23-3.4-.82,1.03-.25.99-.24-.63-.61-.71-.16-1.66-.4-1.8-.53-.49-.45,2.41.08,2.91-.11,1.48.15,3,.31,4.47.47,1.47.15,2.86.39,4.08.88.62.25,2.54.23,2.43.16-.49-.32,3.6.09.76-.55.14-.16.46-.15,1.64.02,3.84.54,7.7,1.18,11.67,1.28.43,1.37,4.96.69,7.51,1.01,2.97.28,5.21-.08,8.35.27-.76.3-3.05.65,2.22.76Zm12.33,1.32l-.62.13c.27.03.58.09.8.09.2,0,.3-.06.46-.09-.22-.04-.43-.08-.64-.12Z"/><path d="m152.43,3.33c-3.74.41-8.31.67-11.74,1.16-3.06.06-7.71.69-11.33,1-1.03.09-1.42.14-2.16.24-2.25.31-2.77.76-.27.56,2.63-.21,3.45-.22,4.13-.17.7.05,2,.06,4.48-.37.27-.05,1.3-.17,1.74-.2,4.3-.31,8.43-.76,12.68-1.07,9.76-.73,19.54-1.35,29.32-1.83l-.03-.18c-.82.04-1.5.06-1.69,0-1.45.1-3.19.22-4.39.3-2.89.16-6.44.51-8.74.44-1.38-.08-11.34.43-13.36.68-.33.04-.68.1-.63.12.5.14-1.38.2-2.24.24-1.03.02-1.67.03-2.56.04-.51.01-2.09.2-1.94.12.09-.05,1-.17,2.22-.29,2.56-.26,6.19-.51,6.5-.79Z"/><path d="m11,50.27c2.35,1.22,5.12,2.6,6.87,2.87-.66-.35-1.47-.88-1.94-1.07-1.86-.73-3.65-1.44-4.71-2.57-.86-.93.71-.24,1.89.1,2.09.61,3.47,1.48,4.93,2.48.9.63,2.54,1.41,3.44,1.57,3.02.61,4.08,1.55,5.68,2.44,1.06.48,2.49.79,2.68,1.16.04.07-.51.04-.71-.02-1.45-.45-1.39-.77-1.96-1.14l-3.36-.31c.87.73,2.01,1.24,3.24,1.67,1.22.45,2.59.63,3.86.96.01-.26.25-.43,2.07.09.02-.18.24-.3.02-.54-.65-.71,2.31.27,3.26.32.26.01.89.15,1.03.33.3.38-.73.17-1.89-.02-.66-.11-.28.35-.37.56.53.03,1.47.37,2.34.62.87.23,1.67.4,1.88.19-.35-.16-1.35-.44-.33-.32l.3.32c1.43.48.42.7,2.24,1.13.64.15,1.25-.06,1.87-.11.01-.15.26-.23,1.15-.08-.03-.07-.07-.13-.12-.2l-.95-.25c-1.52-.68-6.39-2.21.4-.76.44.1.7-.06,1.04-.11-1.45-.34-2.94-.69-4.4-1.03-1.45-.37-2.85-.76-4.06-1.44-.29-.16-4.24-.92-6.81-1.68-.78.01-1.64-.29-3.15-.85-2.2-.82-4.43-1.73-6.61-2.69-2.17-.99-4.29-1.97-6.39-2.79-1.33-1.31-4.41-2.44-5.71-3.87-.63-.66-1.19-1.26-1.8-1.89-.6-.62-1.25-1.24-1.97-2.06-1-1.12-1.33-2.17-1.36-2.84-.03-.68.23-.99.49-1.01.01-1.37.63-2.75,1.65-3.95-.42-.06.3-1.21.92-2.08-1.03.6-2.02,1.35-2.36,1.47-.33.14-.25-.69,1.63-2.61.49-.47.05-.32-.53.08-.7.86-1.66,1.81-2.44,2.95-.4.56-.7,1.2-.94,1.81-.18.64-.31,1.24-.25,1.76.07,1.19.33,1.95.5,2.47.16.53.28.82.28,1.04.05.42-.21.46-.23.81.19.38.41.75.64,1.1.24-.02.67.51,1.57,1.52.3-.05.95.55,1.91,1.37l.12-.28c.92.83.68.8.59.91,1.69,1.81,4.83,3.73,4.85,4.46Z"/><path d="m211.67.59c-1.36.01-2.31.12-3.02.22-1.5.23-3.34.46-.53.62,4.4.25,4.59-.24,6.87-.37l4.2.14c1.96.32,5.73.03,8.26.2l.05.26c-2.43-.04-5.24.19-7.06,0-2.29-.26-4.67-.17-7.35-.09-10.54.33-21.13.66-31.74,1-.19-.1-.18-.19,1.13-.32l2.04-.08,1.06.04c.32.03.64.02.96-.04,6.7-.31,7.63-.44,5.07-.75-.08,0-.1-.02-.15-.04-5.91.47-7.52-.21-13.31.26-2.4.19-5.6.4-6.26.16,1.58-.1,3.34-.46,3.87-.37,1.01.18,2.66-.04,4.27-.13,5.76-.32,11.38-.53,17.3-.78,4.21-.18,8.5-.25,12.81-.35,4.31-.05,8.65-.1,12.97-.14,1.72,0,4.46-.08,4.59.24-1.01.21-2.64.22-4.43.09-2.17-.16-3.63-.04-4.98.14-2.22-.07-4.45-.16-6.61.09Zm-10.55.9c-.05-.1-.66-.27-2.38-.17-1.66.11-4.1.32-4.18.43-.18.22,1.98-.07,2.76-.03,1.51-.08,3.94.07,3.8-.23Zm-4.96-.69c-1.09.03-3.03.11-3.1.28-.04.1.68.16,1.83.11,1.24-.05,2.45-.14,4.06-.24-1.19-.07-1.93-.17-2.79-.15Zm6.43.48h.63s-.08-.04-.08-.04c-.47.01-.5.03-.55.04Z"/><path d="m156.54,2.74c-2.62.21-4.66.2-7.62.07-4.29-.18-9.64.15-14.5.36-2.44.09-5.05-.05-7.33.35v.53c.54.23,1.94.56.3.71-4.86.43-4.17,1.39-7.52,1.94,1.79-.08,3.37-.26,4.77-.5.18-.01.34-.03.46-.07.18-.25-.6-.54,1.34-.72,1.53-.14,2.62-.07,2.85.22l.25.06-.24-.07c-2.26-.1-2.32.48-4.18.5-.12.03-.16.07-.14.1,2.16.49,4.75-.15,7.09-.14,2.97-.64,6.12-.71,9.33-.3.96.12,1.59.31,2.64-.05,1.63-.54,4.01-.42,6.31-.28,3.27-.45,1.75-.93.95-1.41-.21-.12-.9-.29.25-.39.98-.09,1.56.04,1.97.17l1.17-.03c-.62-.4,2.49-.66,1.84-1.06Z"/><path d="m196.34,73.37c2.08.28,4.24.45,7.1.16,3.56-.58,7.35-.72,11.4-.4.76-.25,2.19-.35,3.48-.49l2.15.07c-.26-.16-.66-.45-.76-.45-3.91.24-6.56-.31-10.33-.2-2.74.1-5.25.12-6.01-.43-.02-.02-.3-.02-.45-.03-.51.07-1.04.14-1.56.21.47.62-2.3.62-4.41.59-6.94-.13-13.92.32-20.96-.03-4.24-.21-4.48-.05-2.45-.72.61-.2,1.02-.42,1.52-.64-4.03.12-8.72-.23-11.98.45.76.06,1.49.14,2.29.16,1.29.03,3.16-.34,3.72.05.23.16-1.81.45-3.1.61-.69.09-1.98.05-3.01.06-.86,0-1.79,0-2.2.15-.54.21.35.32,1.24.41,1.39.15,1.76.52,3.92.51,2.73.38,5.73.59,9.32.41,4.1-.51,8.89-.55,13.72-.55-.07-.15.15-.33,1.02-.33,1.54,0,.56.25.9.38,2.03-.52,4.13-1.17,5.45.02Z"/><path d="m184.52,2.17l1.06.04.48-.02.48-.02c6.7-.31,7.63-.44,5.07-.75-.08,0-.1-.02-.15-.04-5.91.47-7.52-.21-13.31.26-2.4.19-5.6.4-6.26.16-1.74.23-4.86.38-6.16.64,1.68.03.05.36-.82.42-2.56.16-1.01-.12-1.38-.2-.08-.02,0-.05,0-.07-1.97-.06-5.3.42-7.5.47-1.35.17-2.54.26-3.58.27-.33.27-3.95.53-6.51.79-1.23.12-2.13.24-2.22.29-.15.07,1.43-.11,1.94-.12.89-.02,1.53-.03,2.56-.04.86-.03,2.74-.09,2.24-.24-.05-.02.29-.08.63-.12,2.01-.25,11.98-.76,13.36-.68,2.3.08,5.85-.28,8.74-.44,1.2-.08,2.94-.2,4.38-.3,1.41-.15,1.48-.06,1.69,0l.03.18,2.07-.08c-.19-.1-.18-.19,1.13-.32.26-.05.44-.14.78-.16,1.1-.07,1.11.02,1.25.07Z"/><path d="m110.5,7.02l-.08-.21c-.87-.36-1.57-.75-2.66-1.08-2.32-.72-6.51-.51-9.85.48-.42.12-.62.28-1.13.37-1.92.34-1.99.95-.05,1.03q.81.03,1.23-.4c.2-.2.12-.44,1.58-.57.45-.04.96.14,1.44.23,2.76-.05,2.61.39,3.26.7-3.12.43-6.32.67-9.56.81,1.28-.69-1.9-.53-3.43-.67l-1.59.51-3.27.55c-.06-.04-.07-.09-.06-.14,1.93-.87-1.25-1.07-1.23-1.68l1.99-.25s.01.07.12.07c1.44.04,1.24.65,2.96.37,2.54-.41-.36-.57.09-.93l1.15-.51c4.85-.44,9.81-.98,14.57-1l2.06-.13.11.36-.43.12.57-.11,1.29-.09c.66,0,1.6.1,1.56-.19l2.09-.29-.29.07-.32-.04c1.46.34,5.03.09,6.07.72.49.3,4.97-.49,7.41-.85.41-.06.66-.15.99-.23.55.23,1.94.56.3.71-4.86.43-4.17,1.39-7.52,1.94-3.23.37-6.36.5-9.38.33Zm-13.96-.97c-.1-.09-.34-.17-.53-.25-.13.06-.38.13-.38.18,0,.08.16.15.28.24.3-.09.65-.15.62-.18Z"/><path d="m32.96,58.51c-1.82-.52-2.06-.35-2.07-.09l1.68.57,1.32.38c3.21,1.2,6.39,2.05,9.95,2.73.73.13,1.61.32,2.52.56.91.23,1.86.44,2.7.72,1.84.59,5.42,1.35,6.03,1.42,6.54.64,12.7,2.01,18.87,3.17,2.27.43,3.73.41,5.61.62,9.55,1.21,19.13,2.22,28.72,3.01,1.03.1,2.08.25,2.69.08.19-.6-2.49-.9-4.74-.92-2.01-.01-3.19-.17-4.67-.46-.72.17-2.06.01-3.23-.09l-1.13.05c-1.9-.91-5.72-1.01-8.93-1.44-1.25-.18-4.15-.28-3.23-.85.22-.14-3.7-.35-3.84-.19-.28.34-1.32.19-2.74,0-.36.11-.72.06-1.06-.16-1.94-.14-4.28-.22-3.37-.81-.52-.08-1.04-.16-1.57-.24-1.68.02-3.41.03-5.63-.67-1.94.08-3.87.31-6.12-.99l-2.99-.55c-.73.32-2.69-.27-4.31-.58-2.36-.47-1.88-.68-2-.94-1.42.02-2.81-.16-4.16-.46-1.35-.33-2.66-.84-3.96-1.38-.62.05-1.22.26-1.87.11-1.82-.44-.81-.66-2.24-1.13-.19.21-.98.04-1.85-.19-.87-.25-1.8-.59-2.34-.62l-2.06-.66Z"/><path d="m67.33,9.06c-1.52-.09-3.17,0-5.3.71,1.29.07,2.56.17,1.15.76-1.11.47-2.07.14-3.3.48-1.73-.26-2.61.25-3.63.75-1.17.58-2.35.91-3.28.61-2.91.7-2.36,1.07-2.81,1.52.52.29,2.9-.07,4.11,0,2.01-.04,4.6-.43,7.03-1.04,1.83-.44,3.43-.74,5.23-.93,1.78-.5-.21-.84,2.95-1.36,2.34-.37,2.01.11,2.42.33l2.07-.35c-.19-.23-.5-.45-.51-.71,0-.17.95-.38,1.85-.5.78-.11,1.38-.09.95.1-.64.27-2.44.69-.49.61.49-.02,2.14-.58,3.26-.89.35-.11.52-.3,1.28-.23l-1.31.23c.89.61,3.47.13,6.18-.4.77-.7-3.43-.47-3.2-1.06-4.46.9-4.47.45-4.2-.13-1.8.35-3.33.16-5.17.62.36.58-1.56,1.38-4.68,1.8-4.32.58,1.3-.76-.23-.81-.21,0-.26-.07-.38-.1Z"/><path d="m310.35,61.79l1.65-.51,3.13-1.15,1.16-.39s-.09-.06-.14-.09c-.71.16-1.07.19-.52-.09.08-.04.36-.14.46-.16.91-.23,0,.19.03.27,1.64-.56,2.82-1.09,3.49-1.59,2.17-1.51,6.09-2.59,6.1-2.38-.02.62,2.52-.45,4.37-1.23,1.09-.64,2.18-1.27,3.26-1.91,1.07-.66,2.14-1.34,3.2-2.05.94-.6,2.79-1.7,2.12-1.62-.55.07-2.46,1.4-3.01,1.62-.85.34-1.81.99-2.72,1.53-.91.54-1.77.96-2.37.91-1.27.56-2.74,1.27-3.04,1.11-1.07.47-2.2.96-2.96,1.09-1.19.45-2.35.98-3.57,1.38-1.21.41-2.41.81-3.61,1.22-4.76,1.5-8.75,3.3-13.72,4.31l.08.36c1.21-.33,2.45-.68,3.14-.63-.02.22-.01.43-1.86.93l.99.23c1.45-.38,2.9-.72,4.34-1.14Z"/><path d="m4.4,30.36c.57-.4,1.02-.55.53-.08-1.87,1.92-1.96,2.75-1.63,2.61.34-.12,1.33-.87,2.36-1.47.48-.42.97-.83,1.49-1.22l-.34-.4-.24.09.23-.08c1.51-.95,4.69-3.16,4.8-2.34,2.54-1.47,5.24-1.98,7.97-3.8.4-.25,2.37-.85,2.57-.62.95-.39,1.91-.74,2.88-1.08,1.08-.91,4.71-2.36,3.79-2.72-.04-.02.61-.3.94-.46,2.5.24,3.03-1.25,4.81-1.64-.03-.05-.04-.11-.06-.17-5.37.68-6.29,2.01-7.84,3.18l-.36.18.39-.19c-1.02.3-2.88.93-2.95.86-.49-.52-1.57-.22-2.87.39-1.32.59-2.83,1.52-4.24,2.23-2.96,1.45-6.19,3.38-8.97,4.52-.65.35-1,.38-1.44.56-.44.16-1,.43-2,1.32l.19.32Z"/><path d="m169.15,3.92l-1.95-.16c-4.75-.06-4.69-.65-4.2-1.29-1.56-.2-1.48.16-2.24.24,1.41.83-.9,1.61-5.21,1.77,1,.42,1.08.86.02,1.32,1.1.43,2,.1,2.95-.07-.63-.09-.79-.23.06-.27,1.17-.04.98.17,1.09.3,2.51.59,6.2.12,8.87.07,4.37-.09,9.14.17,13.28-.36l-.03-.27-3.04-.07c-.95.35-1.82.18-2.68.03l-3.61-.34c-.26.25-.48.53-2.42.51-1.31-.01-2.06-.18-2.69-.37-1.46-.44.52-.72,1.8-1.04Z"/><path d="m330.56,52.95c.59.05,1.45-.38,2.37-.91.91-.55,1.87-1.2,2.72-1.53.55-.21,2.46-1.54,3.01-1.62.67-.08-1.18,1.02-2.12,1.62-1.06.72-2.13,1.39-3.2,2.05-1.09.64-2.17,1.27-3.26,1.91l.94-.16,1.11-.53c2.86-1.88,6.81-3.76,9.88-6.2.64-.7.36-.69-.12-.57-.83.18.08-.56,1.92-2.19l-.07-.14c-.11-.18.37-.71,1.38-1.78.19-.24.37-.47.53-.7-.3.15-1.24,1.09-.26-.33l-.17-.02c-.86,1.11-1.93,2.08-3.05,2.99-1.12.91-2.33,1.74-3.57,2.52-2.48,1.56-5.09,2.99-7.74,4.38,1.01-.11,2.78-.57-.3,1.2Z"/><path d="m246.8,71.66c1.24-.1,1.18.63,3.35-.06,1.63-.51,3.24-.06,4.88-.33.41-.72,2.66-.79,5.03-.76,2.01.03,3.64-.23,5.12-.59,1.53-.37,2.19-.72.51-.86-2.21.17-4.26.11-6.62.47-3.67.57-5.71.83-7.58.93-1.87.11-3.56.09-6.54.02-.14,0-.43,0-.46,0-2.98.88-7.63.12-10.67.87.31.29.36.62,2.45.68.06-.23.55-.28,1.98-.32,1.51-.04,2.97-.05,4.39-.06,1.42-.02,2.8-.03,4.16,0Z"/><path d="m330.56,52.95c3.08-1.77,1.31-1.31.3-1.2-2.17.84-3.66,1.29-6.56,2.93-1.04.6-2.69,1.33-4.58,1.93-1.88.61-3.91,1.34-5.75,1.87-2.46.77-4.96,1.63-7.54,2.26-1.29.33-2.57.65-3.85.98-1.29.3-2.59.51-3.88.74-2.26.38-3.73.73-3.4,1.12.33.38,2.14-.03,4.15-.54,1.41-.32,2.82-.59,4.2-.99,4.98-1.01,8.97-2.81,13.73-4.31,1.2-.4,2.4-.81,3.61-1.22,1.21-.4,2.38-.93,3.57-1.38.54-.3,1.12-.7,1.61-.89,1.08-.42,1.25-.31,1.35-.2.31.17,1.78-.55,3.04-1.11Z"/><path d="m26.65,20.16c1.55-1.17,2.47-2.5,7.84-3.18l4.03-1.41c1.06-.43,2.17-.85,1.81-1.05-2.06.05-4.49,1.13-6.59,1.77-4.01,1.24-7.98,2.61-11.9,4.16l-2.92,1.22-2.88,1.34c-1.91.9-3.77,1.88-5.62,2.97-1.96,1.19-2.14,1.53-2.78,2.17,2.78-1.14,6.01-3.07,8.97-4.52,1.41-.71,2.93-1.64,4.24-2.23,1.3-.61,2.38-.92,2.87-.39.07.07,1.93-.56,2.92-.85Z"/><path d="m175.06,71.03c-.5.21-.91.43-1.52.64-2.03.67-1.79.51,2.45.72,7.04.35,14.02-.1,20.96.03,2.11.02,4.88.03,4.41-.59-3.95-.56-8.24-.47-12.97-.09-3.05.24-5.38.12-4.8-.57-3.07.32-5.62-.18-8.53-.14Z"/><path d="m233.81,71.37c3.05-.75,7.7.01,10.68-.87.04-.01.32-.01.46,0,2.98.07,4.67.09,6.54-.02,1.87-.1,3.91-.36,7.58-.93,2.36-.35,4.41-.3,6.62-.47-.99-.47-2.07-.93-5.72-.88l-2.63.58c-.95.45-2.46.57-4.61.64-2.61.1-5.76.37-8.02.48-4.56.23-8.59.96-12.95.82l1.19.67c.29-.01.58-.02.86-.02Z"/><path d="m286.88,65.39c-1.26.75-2.29,1.42,3.13.52,1.75-.29.69.11.58.27-1.31.39-2.7.68-4.02.88-1.32.18-2.55.24-3.52.28-4.93.15-5.96.79-6.93,1.52l-.99.15c-3.24.08-8.51.53-3.62-.92.88-.26.82-.55,1.2-.83l4.12-.5c1.37-.19,2.74-.39,4.1-.58,1.77-.24,3.1-.45,3.23-.81,1.02-.12,2.04-.26,3.04-.43-.1.15-.03.28-.32.46Zm-8.66,1.75c-.11,0-.29.03-.54.12.15-.01.3-.03.54-.12Z"/><path d="m261.62,5.87c1.48.76,7.06.92,6.93,1.68-.07.37-2.34.43-3.35.74-1.05.31-5.25-.19-8.58-.67-1.5-.22-2.91-.57-4.41-.75-1.44-.19-3.19-.7-4.28-.49-1.17.22,2.85.47,2.07.78,4.83,1.17,11.03,1.18,16,2.56,1.57.43,1.3-.15,2.59-.02,1.28,0-4.25-1.21.36-.63,1.63-.31,5.71.13,5.24-.7-.94-.23-2.17-.47-2.77-.68-1.49-.54-1.3-1.47-5.37-1.29-.02,0-.37-.11-.81-.25-.45-.14-1-.3-1.44-.39-2.55-.55-5-.86-7.21-.83.64.83,3.6.49,5.02.95Z"/><path d="m274.86,10.63c1.26.26,2.15.53,2.76.84,1.54.79,4.57,1.67,7.05,1.91,2.21.21,4.27.23,4.63-.21.67-.81-1.95-1.84-8.07-3.01-1.49-.28-3.29-.92-4.96-1.38-1.93.05-1.3.63.64,1.3,1.96.68,3.86.86,5.36.84.55-.01,3.02.34,2.73.66-.26.28,1.07.88.12.99-.59.07-.91.25-2.55-.07-1.71-.33-2.41-.68-2.56-.95-.16-.28-.37-.53-2.27-.89-1.85-.34-2.83-.35-2.87-.04Z"/><path d="m231.77,70.72c4.36.14,8.4-.59,12.95-.82,2.26-.11,5.41-.38,8.02-.48,2.15-.07,3.66-.19,4.61-.64-1.86-.25-4.15-.2-6.53-.03-2.39.17-4.87.45-7.13.59-3.37.2-6.78.4-10.17.6-1.69.09-3.38.18-5.06.21-1.68.01-3.35-.01-5-.1l-.53.25c.99.23,4.43.43-.8.72-1.71.09-2.67.42.28.43,3.1-.25,5.35-1,9.36-.73Z"/><path d="m3.08,37.44c-.26.02-.53.33-.49,1.01.03.67.36,1.72,1.36,2.84.72.82,1.38,1.44,1.97,2.06.6.63,1.17,1.23,1.8,1.89,1.3,1.43,4.38,2.56,5.71,3.87,2.1.82,4.23,1.8,6.39,2.79,2.18.96,4.4,1.87,6.61,2.69,1.51.55,2.36.86,3.15.85-1.01-.4-1.98-.95-3.01-1.4-1.02-.47-2.07-.92-3.14-1.37-2.15-.85-4.41-1.8-6.67-2.84-2.88-1.33-5.78-2.83-8.37-5.01-1.11-.95-2.39-2.01-3.45-3.26-1.07-1.24-1.84-2.7-1.85-4.13Z"/><path d="m198.76,5.14h-2.28s-3.38-.49-3.38-.49c-.48,0-.96,0-1.44,0-1.56.15-3.12.29-4.68.44,2.76.94,8.26.59,12.2.59,7.84.04,15.76-.37,23.61-.35l2.1-.15c-3.52-.76-7.35-.9-11.48-.29-3.35.21-6.9.59-8.82-.32l-1.52.03-1.08.06c.02.14.06.2.11.27.11.05.22.09.33.14l-.75-.06-2.92.16Z"/><path d="m341.05,26.6c-2.26-1.9-4.75-3.55-7.44-4.91-2.07-1.17-4.12-2.19-5.6-3.19-1.46-.67-2.2-1.01-2.93-1.35-1.74-.8-3.51-1.47-5.28-2.2-1.79-.68-3.62-1.35-5.49-2.18-1.97-.78-3.17-.78-3.84-.73,5.46,1.8,10.78,4.01,15.99,6.42,5.19,2.44,10.29,5.12,14.77,8.58l-.18-.44Z"/><path d="m290.59,66.18c-1.31.39-2.7.68-4.02.88-1.32.18-2.55.24-3.52.28-4.93.15-5.96.79-6.93,1.52,8.01-.94,16.1-1.84,23.89-4.15.94-.27,1.73-.38,2.48-.47.74-.11,1.44-.23,2.2-.45,2.1-.64,5.44-1.26,5.66-1.99-1.43.42-2.89.76-4.34,1.14l-3.58.86-3.61.72-4.1.91-4.13.76Z"/><path d="m266.46,2.49c.12-.17-.54-.48,2.8-.09,2.08.29,3.88.43,3.55.08-8.57-1.21-17.21-2.04-26.19-2.09l.04.16.3.13c.17,0,.34,0,.52.01,1.5,0,3-.02,3.42.25.27,0,.54.02.82.03l3.15.3c.49-.19,1.57-.16,3.25.09,1.86.13,3.81.03,5.48.4.55.12-.3.17-1.22.15l-.09.09,1,.31c1.82.38,2.02.07,3.16.17Z"/><path d="m275.12,69.01c-3.24.08-8.51.53-3.62-.92.88-.26.82-.55,1.2-.83-1.53.12-1.04-.12-1.15-.25l-2.03.28c.67.29-1.95.75-1.98,1.07l1.37-.08c-.1.03-.28.09-.29.1-.38,0-.75,0-1.12,0-1.84-.02-.76-.48-1.17-.71-2.1-.23-4.21-.11-6.35.54,3.65-.05,4.73.4,5.72.88,1.68.13,1.02.48-.51.86-1.48.36-3.11.62-5.12.59-2.37-.03-4.62.04-5.03.76,5.3-.42,10.68-1.11,15.93-1.49,2.07-.13,3.13-.44,4.17-.78Z"/><path d="m222.41,71.45c-2.95,0-1.99-.33-.28-.43,5.23-.29,1.78-.49.8-.72-.89.37-2.53.17-3.78.26.14.22-.81.56-1.58.5-3.83-.3-6.52.44-9.86.44-1.77.32-1.87.08-2.02-.14-1.81-.25-2.25.01-2.77.25.16,0,.44,0,.46.03.75.55,3.26.53,6.01.43,3.77-.12,6.42.44,10.33.2.1,0,.5.29.76.45l4.1.19,2.18.13.23-.5c-4.65.06-4.93-.46-4.57-1.08Z"/><path d="m165.95,73.44c-2.16.01-2.53-.36-3.92-.51-.88-.1-1.78-.21-1.24-.41.41-.16,1.35-.15,2.2-.15,1.03-.01,2.32.03,3.01-.06,1.29-.17,3.33-.45,3.1-.61-.57-.39-2.43-.01-3.72-.05-.79-.02-1.53-.11-2.29-.16-.99-.28-1.9,0-2.84,0-1.58.12-3.26.31-2.8.62,1.8,1.16-3.09,1.16-7.49,1.16.53.26,2.83.19,3,.52,3.6-.17,7.01.23,10.65.18,2.61-.03,2.04-.28,2.34-.51Z"/><path d="m207.7,71.5c3.33,0,6.03-.75,9.86-.44.78.06,1.73-.28,1.58-.5-6.67.21-13.31.29-19.98.55-3.34.11-6.86.01-10.18-.08-2-.06-3.63.02-5.39.13-.58.69,1.75.81,4.8.57,4.73-.38,9.03-.47,12.97.09.52-.07,1.04-.14,1.56-.21.52-.23.96-.5,2.77-.25l2.02.14Z"/><path d="m290.59,66.18l4.13-.76,4.1-.91v-.34c-1.11.23-2.11.4-1.97.16.13-.24,1.26-.48,2.28-.7.34-.24.33-.41.32-.59-2.01.51-3.83.92-4.15.54-2.65.34-5.36.77-8.11,1.36-.1.15-.03.28-.32.46-1.26.75-2.29,1.42,3.13.52,1.75-.29.69.11.58.27Z"/><path d="m38.52,15.57l-4.03,1.41.05.17h.24s-.23,0-.23,0c-1.78.39-2.31,1.88-4.81,1.64-.33.16-.98.45-.94.46.92.36-2.71,1.81-3.79,2.72.28.11,1.15-.25,1.93-.54.93-.65,2.63-1.13,4.09-1.67,1.13-.25,1.59-1.16,2.33-.86.78.3,2.49-.59,3.56-.75,1.66-.85,2.52-.89,3.2-.73,1.07-.21,2.41-.2,2.94-.85l.38-.39c-1.27.2-1.96.08-3.7.56-1.22.2-.82-.11-.97-.26-5.49,1.26.54-.82-.26-.91Z"/><path d="m249.62,2.06c-1.76-.27-3.83-.49-5.51-.79-3.45-.6-9.97-.54-12.74-.04,2.59.01,5.46.09,3.64.44,2.48.1,4.95.21,7.4.27,2.44.1,4.86.16,7.21.13Z"/><path d="m38.78,16.48c-5.49,1.26.54-.82-.26-.91,1.06-.43,2.17-.85,1.81-1.05,1.55-.45,3.12-.99,4.69-1.41,1.56-.44,3.12-.74,4.62-.73.15,0,.2.03.16.08-4.01,1.45-4.14,2.34-3.73,3.07l-2.61.65c-1.27.2-1.96.08-3.7.56.07-.21.05-.4-.97-.26Zm3.1-1.43c-.68.09-1.26.4-1.03.45.46.08-1.51,1.02,1.61.19,1.53-.49,1.38-.58.21-.45-.25-.07-.27-.26-.79-.19Z"/><path d="m23.79,55.79c-.92-.37-1.56-.98-2.73-1.12-1.31-.14-1.94-.4-2.33-.68-.39-.28-.55-.57-.87-.85-.66-.35-1.47-.88-1.94-1.07-1.86-.73-3.65-1.44-4.71-2.57-.86-.93.71-.24,1.89.1,2.09.61,3.47,1.48,4.93,2.48.9.63,2.54,1.41,3.44,1.57,3.02.61,4.08,1.55,5.68,2.44-1.12-.1-2.24-.21-3.36-.31Zm-10.57-5.4s.35.15.37.15c.06-.02.03-.09.04-.14l-.76-.32c.11.1.21.2.36.31Z"/><path d="m286.7,4.64c2.11.36,4.26.75,6.35,1.22,2.09.44,4.15.78,6.06,1.09.97.14,2.26.59,3.18.9,1.66.54,2.79.87,3.77.92-.84-.35-1.74-.68-2.68-.99-.95-.28-1.93-.54-2.93-.79-1-.24-2.02-.48-3.04-.72-1.03-.2-2.05-.39-3.06-.59-1.31-.25-2.58-.54-3.85-.81-1.27-.26-2.54-.51-3.8-.76-2.52-.54-5.08-.91-7.75-1.17-.78-.07-1.72-.21-2.08-.15,1.04.41,2.85.75,4.98.89,2.57.15,3.73.55,4.86.96Z"/><path d="m274.86,10.63c.05-.31,1.02-.3,2.87.04,1.91.36,2.12.61,2.27.89.15.27.85.62,2.56.95,1.64.32,1.96.14,2.55.07.96-.11-.37-.71-.12-.99.29-.32-2.17-.68-2.73-.66-1.51.02-3.4-.16-5.36-.84-1.94-.67-2.57-1.25-.64-1.3-.66-.25-1.34-.46-2.06-.41.47.84-3.61.4-5.25.7,1.06.34,2.03.69,2.05.96l3.85.6Z"/><path d="m43.32,61c1.3.54,2.61,1.05,3.96,1.38,1.36.31,2.74.48,4.16.46,1.71-.2,6.57.98,7.58.41l-.26-.65c-1.76-.47-3.37-.83-4.89-.87-.25.06.38.35-.71.19l-.26-.38c-.29-.1-.61-.17-.97-.23-4.22-.79-3.6.42-7.47-.4-.88-.14-1.13-.07-1.15.08Z"/><path d="m331.02,54.31l-.94.16c-1.84.78-4.38,1.85-4.36,1.23-.01-.21-3.94.87-6.1,2.38-.68.5-1.85,1.03-3.49,1.59.09.01.13.05.17.08l.07.48c4.95-1.57,9.95-3.09,14.66-5.91Z"/><path d="m332.73,19.01c-.53.12,1.46,1.29,3.04,2.28,3.43,2.16,7.14,5.05,9.7,7.6.89.89,1.58,1.7,2.13,2.62.58.9,1.03,1.9,1.31,3.17.26,1.56.36.67.54.78-.14-1.47-.65-2.83-1.32-4.03-.65-1.23-1.5-2.27-2.38-3.29-1.8-1.98-3.92-3.58-6.22-5.01-1.98-1.26-4.47-2.82-6.8-4.12Z"/><path d="m7.14,30.2c-.52.38-1,.8-1.49,1.22-.62.86-1.34,2.02-.92,2.08,1.66-1.71,3.82-3.22,6.11-4.56,2.3-1.33,4.76-2.53,7.26-3.38,2-.71,2.32-1.6,4.03-2.5-.2-.23-2.17.37-2.57.62-2.74,1.82-5.43,2.34-7.97,3.8-1.13,1.82-3.08,1.57-4.45,2.73Z"/><path d="m72.48,66.58c.52.08,1.05.16,1.57.24,1.03-.25.99-.24-.64-.61-.71-.16-1.66-.4-1.8-.53-.49-.45,2.41.08,2.91-.11l-2.14-.68-3.4-.61c-2.34-.13-4.67-.35-7.02-.52,4.62,1.35,4.51,1.47-1.23,1.16,2.25,1.29,4.18,1.07,6.12.99,1.86.25,2.91-.61,5.63.67Z"/><path d="m149.95,73.26c4.41,0,9.29,0,7.49-1.16-.46-.3,1.22-.49,2.8-.62-.49-.6-2.72-.14-4.05-.22-.96.54-1.6,1.2-6.63.62-.83-.1-2.18-.09-2.52.11-.37.22.67.31,1.76.37l.47-.02-.42.03,1.1.88Z"/><path d="m49.64,12.39c.15,0,.2.03.16.08.51.16,3.69-.67,3.18-.1.93.3,2.11-.02,3.28-.61,1.02-.5,1.9-1.02,3.63-.75,1.23-.34,2.19-.01,3.3-.48,1.41-.59.14-.69-1.15-.76-4.23.67-8.82,1.03-12.39,2.62Z"/><path d="m112.63,4.41c1.46.34,5.03.09,6.07.72.49.3,4.97-.49,7.41-.85.41-.06.66-.15.99-.23v-.53c-3.79-.26-7.29.56-11.03.54l-2.75.21c-.36.03-.59.07-.68.14Z"/><path d="m267.43,3.47c-.71-.23-3.42-.67-6.34-1.07-2.92-.35-6.05-.61-7.58-.65-3.02-.07-1.12.33-1.73.5,1.91.07,3.85.07,5.65.4.39.07,1.72.2,1.8.19,2.47-.23,5.51.45,8.2.62Z"/><path d="m261.62,5.87c-1.42-.46-4.38-.12-5.02-.95-1.45-.54-2.96-.53-4.47-.56-2.54.23-6.44-.43-9.39-.39.56.37.45.75,3.6.71,1.9-.01,4.62.34,6.97.58l1.33-.09.4.17-1.65-.06c1.92.36-4.17.83,2.97,1.14.29-.26-.59-.78,2.21-.47.6-.17,3.13.33,3.04-.07Z"/><path d="m330.64,18.36c.08-.03-.21-.27.61.12-5.7-2.99-11.87-5.93-17.39-7.03l.09.2c1.33.44,2.62.97,3.94,1.44,4.32,1.54,8.57,3.27,12.75,5.26Z"/><path d="m242.75,3.97c2.95-.04,6.85.63,9.39.39-.27-.66-2.64-.43-3.82-.59-4.54-.67-9.28-.89-13.91-.97.88,1.11,5.44.8,8.35,1.17Z"/><path d="m167.15,3.17c3.29.01,6.99-.29,9.2.44.84.28,2.05.11,2.25-.19.14-.21-.12-.45,1.27-.58.44-.6-2.32-.4-3.78-.41-3.29-.02-6.63.04-9.95.07.27.23-.56.53,1.01.69Z"/><path d="m150.37,5.46c-2.3-.14-4.68-.26-6.31.28-1.06.35-1.69.17-2.64.05-3.2-.4-6.36-.34-9.33.3,2.98.44,6.69.24,10.3.12,2.66-.11,5.31-.23,7.96-.34l.02-.41Z"/><path d="m115.41,69.11c-.76.3-3.05.65,2.22.76,2.74.06,3.98.44,5.37.84.69.2.21.58,2.4.56,1.77-.02,1.38-.34,1.06-.63-.3-.27-.46-.54-.68-.81-3.46-.23-6.92-.44-10.38-.72Z"/><path d="m77.79,7.55c-.27.58-.26,1.03,4.2.13l3.11-.74,2-.25c.83-.28,2.02-.39,3.17-.49l1.15-.51c.06-.37-1.33-.13-2.44.02-3.76.57-7.48,1.17-11.19,1.83Z"/><path d="m72.38,64.9l2.14.68c1.48.15,3,.31,4.47.47,1.47.15,2.86.39,4.08.88.62.25,2.54.23,2.43.16-.49-.32,3.6.09.76-.55-2.3-.22-4.69-.65-7.04-.99-2.35-.38-4.65-.7-6.83-.64Z"/><path d="m79.04,9.15c-1.12.31-2.77.86-3.26.89-1.95.08-.15-.34.49-.61.43-.18-.17-.2-.95-.1-.9.12-1.85.33-1.85.5,0,.26.32.48.51.71,3.83-.03,8.09-.74,12.33-1.31l.08-.46c-.06-.04-.07-.09-.06-.14l-1.14.12c-2.71.53-5.3,1.01-6.15.4Z"/><path d="m44.47,60.92c3.87.82,3.26-.4,7.47.4-2.05-.9-4.16-1.65-7.1-1.71-.34.04-.6.2-1.04.11-6.79-1.46-1.92.08-.4.76.19-.08.05-.28,1.26.03l-.31.22c.05.07.09.14.12.2Z"/><path d="m138.24,73.11c-.9-.38-2.67-.83-4.52-.6-3.54.49-9.83-.86-12.23.02,5.68.44,11.27.63,16.75.58Z"/><path d="m224.57,72.9l-4.1-.19-2.15-.07c.02.43-1.75.45-3.48.49-4.05-.31-7.83-.18-11.4.4.35.18,1.45.34,2.19.27,3.05-.29,6.3-.27,9.53-.33,3.23-.07,6.44-.15,9.4-.56Z"/><path d="m242.61,6.63c-.15-.64-.82-1.17-4.87-.89-3,.2-6.73-.85-9.64-.3,4.31,1,9.57.81,14.5,1.19Z"/><path d="m347.48,36.57c.26-.62.38-1.64.11-2.86-.26-1.21-.91-2.56-1.76-3.85,0,.77-1.24-.27-2.93-1.39,1.32,1.58,2.63,2.84,3.58,4.41.37.36.68.94.85,1.61.15.67.2,1.4.15,2.07Z"/><path d="m197.46,2.45c3.67.73,11.3.61,15.89-.25-4.53-.32-9.08.04-13.62.08-.11.38-1.22.26-2.27.17Z"/><path d="m5.43,45.18c-.96-.82-1.61-1.44-1.77-1.25.3.38.6.75.92,1.1l.1.36c-.24-.26-.49-.52-.72-.79-.15-.27-.3-.52-.44-.8-.89-1.01-1.32-1.53-1.56-1.51,1.16,1.84,2.48,3.27,3.94,4.59,1.47,1.3,3.11,2.45,5.11,3.39-.02-.73-3.16-2.65-4.85-4.46-.24-.2-.48-.41-.72-.63Z"/><path d="m188.98,73.3c-4.82,0-9.62.05-13.72.55,1.62.31,3.14.46,5.56.13,3.06-.42,6.87-.07,10.25-.25l-.2-.39c-.62-.02-1.26-.03-1.9-.05Z"/><path d="m155.55,4.47c4.31-.16,6.62-.94,5.21-1.77l-4.21.05c.65.4-2.46.66-1.84,1.06,1.23.17.72.44.85.67Z"/><path d="m61.96,63.76c2.34.17,4.67.39,7.02.52-3.44-.85-6.84-1.7-10.21-1.67l.26.65,2.94.5Z"/><path d="m46.06,15.54l-2.61.65-.38.39c3.82-.83,7.75-1.45,11.2-2.68-1.21-.08-3.59.28-4.11,0-.72.23-1.33.43-1.95.62-.11.28-.15.54-2.16,1.03Z"/><path d="m150.37,5.46l-.02.41,5.22-.09c1.06-.46.98-.89-.02-1.32-2.55,0-1.96-.35-2.01-.63-.41-.14-.99-.26-1.97-.17-1.15.1-.46.27-.25.39.81.48,2.33.95-.95,1.41Z"/><path d="m4.4,30.36l-.19-.32c-1.44,1.28-3.06,2.83-3.82,5.06-.17.56-.32,1.12-.34,1.7-.07.57-.02,1.15.07,1.68.19,1.08.64,2.02,1.21,2.71.02-.35.28-.39.23-.81,0-.22-.12-.51-.28-1.04-.17-.52-.43-1.28-.5-2.47-.06-.52.07-1.12.25-1.76.23-.61.54-1.24.94-1.81.78-1.14,1.75-2.09,2.44-2.95Z"/><path d="m226.98,72.53l-.23.5c4.08.2,7.75-.37,11.5-.73l-1.98-.25c-2.1-.06-2.15-.38-2.45-.68-.28,0-.57.01-.86.02.02.66-.58,1.28-5.97,1.14Z"/><path d="m272.7,67.26l4.12-.5c1.37-.19,2.74-.39,4.1-.58,1.77-.24,3.1-.45,3.23-.81-3.71.08-7.7,1.13-11.54,1.38.01.17.02.33.09.5Z"/><path d="m236.27,72.05l1.98.25c1.5.03,3.04.12,4.5.08,1.46-.06,2.85-.25,4.04-.71-1.35-.02-2.74-.02-4.16,0-1.42,0-2.88.02-4.39.06-1.43.04-1.92.09-1.98.32Z"/><path d="m67.33,9.06c.12.04.17.1.38.1,1.53.06-4.09,1.4.23.81,3.11-.43,5.04-1.22,4.68-1.8-1.84.18-3.83.17-5.28.89Z"/><path d="m286.7,4.64c-1.12-.41-2.29-.81-4.86-.96-2.13-.14-3.94-.48-4.98-.89-.74-.07-1.69-.18-1.98-.11.59.2,1.18.39,1.77.59,1.62.28,3.23.51,4.85.73l2.42.32,2.41.41.35-.08Z"/><path d="m235.01,1.67c1.82-.35-1.05-.43-3.64-.44-1.91-.06-3.11.02-3.92.17l.05.26c2.46-.04,4.91-.13,7.51,0Z"/><path d="m342.02,47.59c-3.08,2.44-7.02,4.32-9.88,6.2,3.63-1.37,6.86-3.63,10.04-5.95l-.16-.25Z"/><path d="m99.56,67.83c.43,1.37,4.96.69,7.51,1.01-.14-.27.63-.58-2.5-.67-1.56-.05-3.33-.21-5-.34Z"/><path d="m71.9,10.89c-.41-.21-.08-.69-2.42-.33-3.15.51-1.16.85-2.95,1.36,2.59.09,3.58-.7,5.37-1.03Z"/><path d="m186.98,5.09c1.56-.15,3.12-.29,4.68-.44-2.95-.04-3.13-.46-3.56-.86-.25-.23-.94-.41-2.35-.39-.52,0-1.35.11-1.51.19-.46.24.68.29,1.58.37,3.25.31-2.6.77.23,1.1.3.02.61.03.93.03Z"/><path d="m229.37.29c1.04-.06,2.27.09,3.44.18,1.17.11,2.28.15,3.1-.15-.88-.37-.88-.44-6.54-.02Z"/><path d="m100.98,6.86c2.76-.05,2.61.39,3.26.7,2.15-.14,4.54.01,6.26-.54l-.08-.21c-1.55,0-4.26.33-4.53,0-.61-.76-2.79-.26-4.91.05Z"/><path d="m94.68,8.38c1.28-.69-1.9-.53-3.43-.67l-1.6.51-1.2.87c2.15-.14,3.99-.75,6.23-.71Z"/><path d="m138.29,70.98l.02-.5c-1.95-.22-3.9-.45-6.07-.38,0,.27-.76.59,2.17.7,2.21.08,3.21.26,3.11.63.97-.09.68-.28.77-.44Z"/><path d="m342.89,28.48c1.7,1.12,2.94,2.15,2.93,1.39-1.59-1.53-4.13-3.36-4.78-3.26l.18.44c.55.48,1.12.94,1.66,1.43Z"/><path d="m167.15,3.17c-1.57-.16-.73-.45-1.01-.69l-3.14-.02c-.49.64-.54,1.24,4.2,1.29l-.05-.58Z"/><path d="m190.88,73.35l.2.39c2.04,0,3.78-.13,5.27-.37-1.32-1.19-3.41-.54-5.46-.02Z"/><path d="m292.36,7.24c.03-.07.24-.12.06-.23-.53-.32,2.5-.05-.68-.74-2.82-.6-.45.25-.89.34-.12.02-1.07-.12-1.64-.19.66.27,1.25.53,3.16.82Z"/><path d="m347.48,36.57c.04-.67,0-1.4-.15-2.07-.17-.67-.48-1.26-.85-1.61.13.33.28.65.39.98.08.33.22.66.26.99.21.74.19,1.4.06,1.75.03,1.24-.33,2.47-.91,3.63.16-.22.36-.43.51-.66.41-.96.64-1.98.69-3.01Z"/><path d="m163.52,2.59s-.08.05,0,.07c.37.08-1.18.36,1.38.2.88-.05,2.5-.39.82-.42l-2.2.14Z"/><path d="m267.53,68.35c.04-.33,2.66-.78,1.98-1.07l-3.18.38c.41.23-.67.69,1.2.7Z"/><path d="m271.01,10.03c-.02-.27-.99-.62-2.05-.96-4.6-.59.92.62-.35.63.19.08.45.14.79.18l1.37.21c.29.02.37.02.25-.06Z"/><path d="m111.15,4.66l2.09-.29c-.95-.36-3.49-.08-5.09-.17l-.09.36.11.36c.57-.01,1-.04,1.43-.07.15-.21.86-.2,1.56-.19Z"/><path d="m152.95,73.78c-.17-.32-2.47-.25-3.14-.49l-1.68.11,1.34.27c1.11.14,2.26.18,3.47.11Z"/><path d="m40.13,17.42c-.68-.16-1.54-.12-3.2.73.9-.06,1.35.26,3.2-.73Z"/><path d="m315.13,60.14l-3.13,1.15c-.03.45,1.71-.19,3.26-.73l-.13-.42Z"/><path d="m31.03,19.77c-1.46.54-3.16,1.02-4.09,1.67,2.23-.41,3.29-1,4.09-1.67Z"/><path d="m152.44,3.33c1.04,0,2.24-.09,3.58-.27-1.15.06-1.85-.11-3.58.27Z"/><path d="m346.8,39.58c-.15.23-.34.44-.51.66-.13.29-.31.56-.5.83-.18.27-.35.55-.57.8l.17.02c.35-.3.61-.67.88-1.04.23-.39.41-.82.52-1.27Z"/><path d="m124.99,6.23s.02-.07.14-.1c-.15.03-.31.05-.48.06-.09.13-.19.27-.28.41l.63-.37Z"/><path d="m347.2,36.61c.13-.34.15-1.01-.06-1.75-.25.05-.06.59.06,1.75Z"/><path d="m159.67,5.76c-.12-.14.07-.35-1.09-.3-.85.03-.69.18-.06.27l1.15.04Z"/><path d="m108.05,4.57l.09-.36c-1.08.12-1.82.28-2.16.49l2.06-.13Z"/><path d="m113.3,4.27l2.75-.21c-1.17-.17-2.1-.11-2.75.21Z"/><path d="m272.65,67.25l-.03-.5c-.69.05-1.05.13-1.07.25.11.13-.37.38,1.1.25Z"/><path d="m52.9,61.55l.26.38c1.09.17.46-.13.71-.19-.32-.1-.65-.17-.97-.2Z"/><path d="m197.46,2.45c1.04.09,2.15.21,2.27-.17-.95-.05-1.9-.09-2.27.17Z"/><path d="m286.35,4.73l-2.41-.41-2.42-.32c-1.62-.21-3.23-.44-4.85-.73-1.13-.12-1.64-.11-1.75,0l-.18.33c1.79.22,2.37.41,1.7.51-.31.06-.74.1.44.28.34.06.89.12,1.35.16s.84.07.83.05c-.15-.5,4.59.1,6.47.18.38,0,.55-.04.82-.06Z"/><path d="m218.28.5c-2.22-.07-4.45-.16-6.61.09,3.73-.02.69.41,3.31.47l4.2.14c-.54-.23-2.77-.42-.9-.7Z"/><path d="m328.01,18.51c1.48.99,3.53,2.01,5.6,3.19,0-.17.39-.17-.06-.54-.62-.5,2.26.83-.24-.57-1.73-.98-1.5-.57-1.39-.33.05.12-.07.37-1.09-.45-1.89-1.49-1.74-.69-2.81-1.29Z"/><path d="m254.89,1.28l-3.15-.3c-.42.11-3.12.1-.75.34,2.51.27,3.37.14,3.9-.05Z"/><path d="m262.39,1.92c.92.02,1.77-.03,1.22-.15-1.67-.38-3.62-.27-5.48-.4.14.33,2.58.35,4.26.56Z"/><path d="m317.89,13.1c-1.31-.48-2.61-1-3.94-1.44.15.27,1.35.83,2.92,1.4,1.22.44.88.12,1.01.04Z"/><path d="m345.66,42.22c-.17.23-.34.46-.53.7l.12.26c.81-.96,1.73-2.23,1.72-2.86-.19.34-.37.67-.61.98-.23.31-.43.64-.7.92Z"/><path d="m250.91.95c-.42-.27-1.92-.26-3.42-.25l.1.23c1.12,0,2.22.02,3.32.03Z"/><path d="m270.98,3.64c.22.05.43.09.65.14l.61-.04c-.27-.04-.58-.11-.79-.12-.21-.02-.31.01-.46.03Z"/><path d="m325.08,17.16l2.21,1.01c-.25-.19-.4-.4-.77-.58-1.06-.52-1.11-.38-1.44-.44Z"/><path d="m263.3,2.32l-1-.31c-1.6.03-.36.17,1,.31Z"/><path d="m247.59.93c-.57-.01-1.4-.07-1.39.03,0,.02.41.08.62.09.96.04.69-.06.78-.11Z"/><path d="m274.73,3.6l.18-.33c-1.36-.05-1.49.06-.18.33Z"/><path d="m302.82,9.09c0-.05-.17-.1-.31-.14,0,.05.17.1.31.14Z"/><path d="m343.75,44.7l.07.14c.51-.52.96-1.08,1.42-1.64-.47.5-.95,1.03-1.48,1.5Z"/><path d="m266.49,2.49l.23.07c-.09-.02-.17-.04-.23-.07Z"/><path d="m246.97.69l-.3-.13c-.92.03-.73.07.3.13Z"/><path d="m169.15,3.92c-1.27.32-3.26.6-1.8,1.04.63.19,1.38.36,2.69.37,1.95.02,2.16-.26,2.42-.51-1.02-.29-1.52-.59-.66-.95.39-.16.3-.32-.85-.33-1.38-.01-1.59.19-1.81.37Z"/><path d="m258.58,5.94c-2.81-.31-1.93.21-2.21.47,1.03.17,2.51.21,2.6.61.05.2,1.02.55,1.95.62.95.07,1.85-.04,2.21-.17.6-.22-1.23-.35-1.79-.51-1.09-.33-1.85-.68-2.75-1.02Z"/><path d="m204.6,4.56c1.92.91,5.47.54,8.82.32-2.46-.49-5.24-.72-8.82-.32Z"/><path d="m201.99,4.64l1.08-.06c.18-.05.3-.13.56-.16,2.02-.25,3.36-.52,1.28-.93-.54-.11-2.04-.21-1.79-.02.61.44-6.03.67-1.13,1.17Z"/><path d="m178.76,5.13l3.04.07c.03-.26,2.56-.65-.13-.75-1.99-.08-3.38.26-2.9.69Z"/><path d="m193.1,4.65l3.38.49c-.08-.22,1.74-.47.19-.66-1.23-.15-2.56-.04-3.56.17Z"/><path d="m252.03,6.09c-.6-.15-.96-.27-1.32-.31-.38-.05-.77,0-1.15,0,.32.09.6.21.96.26.37.05.81.03,1.51.04Z"/><path d="m198.76,5.14l2.92-.16c.14-.03.28-.05.42-.08l-.14-.19c-1.31.08-3.24,0-3.21.43Z"/><path d="m176.08,5.16c.87.15,1.73.32,2.61-.02l-2.61.02Z"/><path d="m245.63,6.4c-.29-.07-.44-.06-.59-.04.11.03.21.05.59.04Z"/><path d="m98.34,70.21c1.17.1,2.51.26,3.23.09.57-.5,4.07.2,5.51-.02.54-.08,2.29.62,3.11.28.5-.2-1.23-.55-2.3-.84-1.09-.29-1.95-.4-3.49-.34-1.94.08-4.19.08-5.85-.67-.99-.44-2.87-.38-3.97-.37-1.92.02-.4.33.69.59,1.73.42,3.44.85,3.07,1.26Z"/><path d="m138.29,70.98c-.09.16.2.35-.77.44-.25.2-2.83.14-1.57.5.44.13,1.46.29,2.13.3,2.26.05.77-.34,1.27-.51.28-.09.49-.2.91-.27.81-.13,3.18-.14,2.3-.39-1.01-.29-2.72.04-4.27-.07Z"/><path d="m130.61,71.31c-.22-.04-.43-.08-.64-.12l-.62.13c.27.03.58.09.8.09.2,0,.3-.06.46-.09Z"/><path d="m78.48,67.78l-1.04-.15c.34.05.7.1,1.04.15Z"/><path d="m179.25,2.47c-.22-.06-.29-.15-1.69,0,.19.06.87.04,1.69,0Z"/><path d="m32.96,58.51l2.06.66c.09-.21-.29-.67.37-.56,1.16.19,2.19.4,1.89.02-.15-.19-.77-.32-1.03-.33-.95-.05-3.91-1.03-3.26-.32.21.24,0,.36-.02.54Z"/><path d="m27.16,56.09c.57.37.51.69,1.96,1.14.2.07.75.1.71.02-.19-.37-1.62-.69-2.67-1.16Z"/><path d="m5.43,45.18c.23.22.47.43.72.63.09-.11.32-.08-.59-.91l-.12.28Z"/><path d="m44.34,60.72l.31-.22c-1.2-.31-1.06-.11-1.26-.03l.95.25Z"/><path d="m39.22,59.98l-.3-.32c-1.02-.12-.02.17.3.32Z"/><path d="m214.99,1.06c-2.62-.06.42-.49-3.31-.47-1.36.01-2.31.12-3.02.22-1.5.23-3.34.46-.53.62,4.4.25,4.59-.24,6.87-.37Z"/><path d="m197.32,1.72c1.51-.08,3.94.07,3.8-.23-.05-.1-.66-.27-2.38-.17-1.66.11-4.1.32-4.18.43-.18.22,1.98-.07,2.76-.03Z"/><path d="m198.96.95c-1.19-.07-1.93-.17-2.79-.15-1.09.03-3.03.11-3.1.28-.04.1.68.16,1.83.11,1.24-.05,2.45-.14,4.06-.24Z"/><path d="m184.52,2.17c-.15-.06-.15-.14-1.25-.07-.34.02-.53.1-.78.16l2.04-.08Z"/><path d="m203.15,1.24c-.34.04-.13.04.08.04l-.08-.04Z"/><path d="m186.54,2.18l-.48.02-.48.02c.32.03.64.02.96-.04Z"/><path d="m129.3,5.63c-.23-.3-1.32-.37-2.85-.22-1.94.18-1.16.47-1.34.72,1.89-.02,1.95-.6,4.19-.5Z"/><path d="m153.54,3.84c.06.28-.54.64,2.05.64-.16-.23.35-.5-.88-.67l-1.17.03Z"/><path d="m129.31,5.63l.24.07c-.08-.02-.17-.04-.24-.07Z"/><path d="m188.98,73.3l1.92.05c-.34-.13.64-.38-.9-.38-.87,0-1.09.19-1.02.33Z"/><path d="m214.84,73.12c1.73-.03,3.5-.06,3.48-.49-1.28.13-2.72.23-3.48.49Z"/><path d="m100.98,6.86c2.12-.31,4.3-.81,4.91-.05.27.34,2.98,0,4.53,0-.87-.36-1.57-.75-2.66-1.08-2.32-.72-6.51-.51-9.85.48-.42.12-.62.28-1.13.37-1.92.34-1.99.95-.05,1.03q.81.03,1.23-.4c.2-.2.12-.44,1.58-.57.45-.04.96.14,1.44.23Z"/><path d="m85.19,8.74l1.14-.12c1.93-.87-1.25-1.07-1.23-1.68l-3.11.74c-.23.59,3.97.36,3.2,1.06Z"/><path d="m90.27,6.21c-1.15.1-2.34.21-3.17.49.04.02.01.07.12.07,1.44.04,1.24.65,2.96.37,2.54-.41-.36-.57.09-.93Z"/><path d="m95.92,6.23c.3-.09.65-.15.62-.18-.1-.09-.34-.17-.53-.25-.13.06-.38.13-.38.18,0,.08.16.15.28.24Z"/><path d="m111.15,4.66c-.7,0-1.42-.02-1.56.19.67,0,1.6.1,1.56-.19Z"/><path d="m108.16,4.93l-.43.12c.19-.04.38-.07.43-.12Z"/><path d="m61.96,63.76l-2.94-.5c-1.01.57-5.87-.62-7.58-.41.11.26-.37.48,2,.94-.93-.54.81-.35,1.91-.22,1.35.15,1.92.54,2.39.8l2.99.55c5.74.31,5.85.19,1.23-1.16Z"/><path d="m57.75,64.37c-.47-.26-1.05-.65-2.39-.8-1.1-.12-2.85-.32-1.91.22,1.61.31,3.58.9,4.31.58Z"/><path d="m72.48,66.58c-2.71-1.27-3.77-.42-5.63-.67,2.22.7,3.95.69,5.63.67Z"/><path d="m78.5,67.78l-1.08-.16c.34.21.7.27,1.08.16Z"/><path d="m46.06,15.54c2.01-.49,2.05-.74,2.16-1.03-.38-.28.69-.44,1.84-.59.56-.48.01-.85,2.92-1.55.51-.57-2.67.26-3.18.1-4.01,1.45-4.14,2.34-3.73,3.07Z"/><path d="m79.01,9.15l1.31-.23c-.76-.07-.93.12-1.31.23Z"/><path d="m299.49,63.56c-.46.25-.56.43-.66.61,2.08-.45,4.16-.89,6.2-1.46,1.85-.5,1.84-.71,1.86-.93-1.11.25-2.44.67-3.14.63-1.4.45-2.83.78-4.25,1.16Z"/><path d="m305.02,62.71c-2.04.57-4.11,1.02-6.19,1.46v.34s3.6-.72,3.6-.72l3.58-.86-.99-.23Z"/><path d="m299.49,63.56c1.42-.37,2.85-.7,4.25-1.15l-.08-.36c-1.38.39-2.8.67-4.2.99l.03.52Z"/><path d="m327.52,54.06c-.1-.12-.26-.22-1.35.2-.49.19-1.07.59-1.61.89.76-.13,1.89-.62,2.96-1.09Z"/><path d="m303.74,62.4c.7.04,2.03-.37,3.14-.63-.69-.05-1.94.3-3.14.63Z"/><path d="m316.12,59.67c-.02-.08.89-.5-.03-.27-.1.02-.38.12-.46.16-.55.29-.19.25.49.11Z"/><path d="m7.14,30.2c1.37-1.16,3.32-.9,4.45-2.73-.11-.83-3.29,1.39-4.8,2.34.12.12.24.26.35.39Z"/><path d="m26.67,20.16l-.39.19c.12-.06.24-.12.39-.19Z"/><path d="m6.79,29.81l-.23.08c.08-.03.16-.06.23-.08Z"/><path d="m343.75,44.7c.53-.47,1.01-.99,1.5-1.51l-.12-.26c-1,1.07-1.49,1.6-1.38,1.78Z"/><path d="m226.98,72.53c5.39.14,5.99-.48,5.97-1.14l-1.19-.67c-4.01-.27-6.25.48-9.36.73-.36.62-.07,1.14,4.57,1.08Z"/><path d="m277.67,67.26l.46-.04c-.02-.07-.2-.05-.46.04Z"/><path d="m201.68,4.98l.75.06c-.11-.05-.22-.09-.33-.14-.14.03-.28.05-.42.08Z"/><path d="m267.49,68.36c.37,0,.74,0,1.12,0,0,0,.19-.06.29-.1-.46.03-.92.06-1.41.09Z"/><path d="m207.7,71.5l-2.02-.14c.14.22.24.46,2.02.14Z"/><path d="m298.82,64.17c.1-.18.2-.36.31-.55-1.02.22-2.15.46-2.28.7-.13.24.86.08,1.97-.16Z"/><path d="m39.76,16.74c.07-.21.05-.4-.97-.26.16.14-.25.45.97.26Z"/><path d="m34.55,17.15h.23c-.08,0-.16,0-.23,0Z"/><path d="m42.67,15.24c-.25-.07-.27-.26-.79-.19-.68.09-1.26.4-1.03.45.46.08-1.51,1.02,1.61.19.07-.15.14-.3.2-.44Z"/><path d="m42.67,15.24c-.07.15-.13.29-.2.44,1.53-.49,1.37-.58.2-.44Z"/><path d="m12.86,50.07c.11.1.21.2.36.31.02.02.35.15.37.15.06-.02.03-.09.04-.14l-.77-.32Z"/><path d="m148.86,72.37l.42-.03c-.16,0-.32.02-.42.03Z"/><path d="m253.39,5.28l1.65.06-.4-.17c-.44.02-.88.06-1.25.11Z"/><path d="m3.96,44.6c.23.27.48.53.72.79l-.1-.36c-.21-.14-.42-.28-.62-.43Z"/><path d="m4.58,45.03c-.32-.35-.62-.73-.92-1.1,0,.14.14.41.29.67.2.15.42.29.62.43Z"/><path d="m50.06,13.92c-1.15.15-2.22.31-1.84.59l1.84-.59Z"/>
                  </g>
                </mask>
              </defs>
              <path class="mask" d="m289.48,12.63c-6.13-1.51-15.34-3.57-26.72-5.29-23.12-3.49-41.11-3.45-51.5-3.38-66.94.44-101.06.97-127.11,4.2-25.79,3.2-49.46,7.66-68.31,16.78-6.85,3.31-13.92,7.18-14.01,12.45-.12,7.35,13.19,13.16,18.46,15.46,40.62,17.72,126.9,19.15,132.75,19.22,1.95.02,4.57.05,7.76.07,106.17.67,145.24-6.47,171.85-20.1,7.85-4.02,15.57-9.08,15.61-15.53.02-3.08-1.68-10.25-23.58-19.94C298.23,4.86,264.7-.61,199.11,1.38c-18.7.57-43.95,1.86-73.82,5"
                    mask="url(#path-mask)" stroke="black" stroke-width="2" fill="none"
                    stroke-dasharray="895.289306640625" stroke-dashoffset="895.289306640625">
              </path>
            </svg>
        