
            <svg xmlns="http://www.w3.org/2000/svg">
              <defs>
                <mask id="path-mask">
                  <g fill="white">
                    <path d="m103.07,39.3c.63-.77-.05-.59-.07-.89l.59-.38c.6-.2,1.11-.62,1.69-.84,1.24-.42,2.28-2.41,2.24-3.45.37-.5.48-.88.45-1.2.57-.62.77-1.86,1.42-2.25.32-.04.84-.62.88.07.01.49-.1.99-.59,1.55-.4.46-.65.94-.59,1.36l-.28.48c-.2.68-1.46.99-1.14,1.86-.14.17-.39.5-.39.5.25.89-.91,1.68-1.7,2.47l-.14-.11c.15-.28.07-.27-.17-.02-.03.05-.07.09-.11.14l-.21-.15c.12-.15.32-.34.24-.41-.02-.02-.14.05-.19.1-.21.24-.08.24-.05.31-.22.3-.47.56-.71.84-.06.07-.12.13-.19.19,0-.2.58-.89-.12-.48-.73.43-.77.8-.74,1.1.04.29-.18.6-.74.8-.27-.26-.84.32-1.31.62l-.05-.11c.3-.47-.05-.25-.42,0-.63.16-.45.5-.77.71h-.09s.1,0,.1,0c.09.2.44.31-.55.82-.62.32-1.08.7-.8.94l-.57.39-.75-.1c.33-.18.43-.33.39-.46.32-.34.28-.47-.16-.37-.53.25-.76.23-.68-.05.04-.13.09-.31-.26-.15-.2.09-.59.4-.57.43.33.46-1.02,1.23-1.44,1.77-.08.11-.09.21-.14.32l-.03.19c-.64.28-1.3.57-1.95.85-.64.29-1.26.57-1.77,1.01-.26.22-.73.24-1.05.28-.59.06-.93.23-1.16.54l-2.65.59-.1-.16c-.14-.22-.59-.23-1.11-.06-.4.13-.21.29-.21.42-.71.24-1.42.48-2.14.73-.73.2-1.47.4-2.23.61l.07.04c0,.08.13.15-.15.23-.06.12-.06.25-.44.32.05-.42-.7-.34-1.31-.32-1.32.07-2.84.14-3.94.53-.76.28-1.29.38-2.05.47-.46.06-.17.31-.19.47-1.49.22-2.98.37-4.48.55l-.02-.32c.28-.21.19-.38.03-.57-.28-.33.08-.53.87-.59l.68-.23c.41-.06.92-.05,1.08-.33h-.77c-.11-.15-.58-.27-.01-.46.32.14.64.14.93-.09.36-.04.73-.07,1.09-.12.51.46,1.45.69,2.48.86.64-.42,1.61-.81,1.66-1.35.96-.1,1.94-.16,2.87-.48.06.16,0,.39.2.47.28.1-.67.56.24.39.63-.13.46-.34.35-.52-.05-.08-.12-.39.35-.18.86.38.55-.33,1.21-.38.12.06.22.17.35.16.38-.05.34-.21.42-.33,1.22-.23,2.31-.81,3.66-.89.7-.06.92-.6,1.02-.93,1.93-.56,3.82-1.23,5.69-1.96.03.09.01.2.1.25.26.14-.47.92.5.51.86-.37-.04-.41,0-.65.01-.07.28-.22.43-.33,1.44-.93,3.08-1.72,4.61-2.57.44-.26.95-.99,1.53-.85.15.02.45-.03.81-.15.35-.14.77-.33,1.2-.55.43-.22.86-.47,1.23-.7.35-.26.63-.52.79-.71Zm-5.08,2.98l-.1.21c.08-.03.18-.06.24-.1.05-.04.05-.1.08-.15-.07.02-.14.03-.21.05Zm-8.95,4.59s-.09.02-.14.03c.03.05.08.04.14-.03Z"/><path d="m101.88,3.89c1.15.13,2.26.39,3.37.68,1.13.3,2.25.6,3.38.9.04,1.07,1.68.98,2.55,1.57.05.38-.14.67.93.91.66.15,1.4.74,2.06,1.25.22.26-.26.28-.5.4-.25.12-.25.26.77.84.22.25.65.52.4.8-.12.14-.07.52.14.69.24.18.56.29.78.27.36-.02-.09-.44-.14-.63-.09-.4-.09-.76-.15-1.14.32-.04.81.76,1.08.5-.05.4.35.9.64,1.39.29.49.47.96.11,1.1-.35.13-1.07-.37-1.62-.39-.29-.01-.6-.28-.93-.6-.33-.31-.69-.72-1.03-1.1-.29-.34-.51-.75-.86-1.05-.33-.29-.61-.86-1.05-.79-.46.08.63.63.22.82-.72-.16-1.35-.4-1.95-.95.22-.56.19-1.1-1.15-1.04-.49.04-.94-.22-1.41-.42-.47-.2-1.02-.36-1.53-.15l-.36-.05-.63-.33c-.98-.87-2.18-1.22-3.6-.94-.69-.63-1.53-1.01-2.74-.86l-.49-.07c.07-.04.11-.1.2-.12.68-.11,1.16-.28.57-.8-.16-.14-.62-.33-.57-.14.12.46-2.03.26-.58,1.11-.43,0-1.03-.2-1.09.21l-.72-.14c0-.22.63-.34.17-.62-.37-.22-.81-.2-1.16-.05l-.46-.08c-.93-.2-.93-.62-1.01-1.02-.04-.23-.24-.44-.7-.51-.17-.02-.45.03-.51.1-.18.21.18.31.45.45.99.48-.94.6-.09,1.08-.28.34-.85.23-1.4.16l.03-.26c.05-.25.91-.49.06-.74-.63-.19-1.11.06-1.04.51l-.83-.12-1.11-.5c-.29-.33-.41-.65-.09-.96.15-.14.13-.3-.23-.36-.44-.08-.54.11-.63.28l-.61-.26.05-.58c1.06.17,2.29.06,2.91.88.23.32.64.22.75-.06.07-.2.02-.44.49-.5,1.91-.23,3.83-.05,5.71.65,1.06.94,3.51,1.3,5.14.79Zm11.11,5.39c-.1-.07-.25-.08-.37-.11.05.1.08.24.16.31.09.08.25.09.46.19-.1-.19-.16-.31-.25-.38Z"/><path d="m2.73,28.86c.29.79.12,1.23-.07,1.77-.09.27-.54.27-.12.89.34.49.57.24.79.03.21-.2.43-.35.65-.52.12.29.28.58.44.86.15.28.31.56.49.83-.24.15-.69.13-.19.9.41.56.44.92.12,1.11-.22.06-.72-.62-.76-.1-.01.18.07.54.21.72.48.58.46-.02.71,0,.14,0,.27,0,.42.05.28.11.84.63.84.27,0-.41-.64-.59-.89-1.01l.43-.3c1.2,1.45,2.31,2.91,3.46,4.41-.61.2-1.24.54-2.03-.97-.13-.25-.45-.54-.69-.48-.26.07-.09.37.15.67-.13.29-.27.58-.45.87l-.5-.3.13.5c-1.2-.74-1.99-1.83-2.31-3.1.1-.47.11-1.19-.51-1.54-.29-.17-.53-.46-.74-.8-.19-.35-.35-.74-.51-1.11-.28-.77-.56-1.46-1.19-1.73-.11-1.26-.52-2.55-.49-3.87.66.03.71-.9.64-1.72-.06-.73.09-1.16.39-1.62.48.31-.17,1.43.15,1.97.1.18-.49.77-.08,1.06.25.17.46-.42.69-.75.23-.34.31-.59.19-1.11-.15-.65-.1-1.45.65-1.77.43-.19.42-.81.46-1.19.08-.65-.29-.29-.59-.01-.48.42-.93.9-1.33.63l-.02-.44c.93-.38,1.26-1.66,1.96-2.55.26-.35.64-1.28,1.03-.63.09.16.7-1.02.59-1.18-.24-.32.03-.56.38-.91l.25-.26c.37-.58.81-1.29,1.09-.56.03.53.04.51.53.24.21-.12.52-.24.64-.18.38.18-.41.71-.33,1.02-.33.34-.6.75-.89,1.11-.31.34-.65.62-1.16.72-.27.05-.45.68-.37.68.3.03-.36,1.12.41.57.12.14.09.23-.14.51-.73.89-1.56,1.82-1.62,3.03-.67-.15-.87.21-.89.68-.02.48.13,1.03.05,1.4-.08.9.43,1.53.41,2.43-.37-.16-1.04-.8-.5.77Zm.74,3.87l-.24-.1c.02.09.03.2.07.26.04.05.11.05.17.08,0-.08,0-.16,0-.23Z"/><path d="m107.83,9.47c-.87-.91-1.74-2.19-2.76-2.8-.47-.98-1.85-1.78-2.75-2.59-.26-.23-.37-.29-.6-.41-.69-.33-1.21.11-.6.65.63.58.75.85.8,1.13.05.29.23.7,1.04.98.09.03.36.23.45.33.92,1.02,1.93,1.87,2.78,2.93,1.93,2.42,3.5,5.17,4.21,8.17l.21-.06c-.07-.25-.1-.47-.03-.55-.13-.45-.38-.95-.5-1.32-.14-.44-.39-.9-.6-1.34-.19-.45-.39-.87-.43-1.26-.01-.12-.09-.4-.22-.75-.15-.35-.35-.77-.56-1.2-.45-.84-1-1.66-1.26-1.88-.08-.08-.19-.13-.21-.1-.12.3-.38-.27-.53-.51-.17-.3-.22-.52-.35-.8-.07-.16-.49-.48-.38-.51.06-.02.32.15.61.44.61.59,1.31,1.57,1.66,1.45Z"/><path d="m25.44,5.58c-.78.35-1.76.58-2.14,1.21.25-.02.59.03.74-.06.57-.33,1.1-.72,1.69-.39.48.26.02.62-.28.98-.53.65-1.09.61-1.73.47-.39-.08-.98.04-1.2.27-.76.81-1.33.49-1.97.44-.36.1-.78.34-.98.1-.04-.05.07-.24.14-.26.47-.16.58.09.84.17l.68-1.26c-.92-.48-1.62.28-2.37.75.12.24.15.48-.41.74.08.16.09.36.24.49.44.37-.53.69-.71,1.03-.05.09-.22.23-.33.12-.23-.21.04-.45.33-.74.16-.17-.11-.43-.19-.64-.21.37-1.27.36-1.15.88.14.01.46-.1.22.17l-.21-.17c-.5.09-.41-.47-.97-.2-.2.09-.2.5-.29.77.07.14.06.3-.16.49.04.05.08.09.12.13l.3-.12c.61.05,2.24-.33.3.81-.12.08-.09.31-.13.47.86-.41,1.67-1.08,2.69-.89.12.02,1.14-.88,1.94-1.21.14-.3.41-.43.89-.63,1.41-.61,3.07-.62,4.3-1.58.73.39,1.55-.54,2.23-.4.67.14,1.15.09,1.81-.36.89-.63,1.39-.46,1.56.11l1.61-.46c-.16-.34.24-.67.51-1-.86-.29-1.76-.56-.26-1.38.19-.11.02-.23-.2-.25-.57.51-1.64.23-2.11.67-1.08,1.02-1,.26-1.26-.03l-.35.1c.02.21-.14.38-.54.49.02.28-.22.43-.6.56l.11.28c-.39.08-.37-.09-.4-.22-.83-.09-1.97.18-2.28-.43Z"/><path d="m111.03,28.3c.15-.43.15-.76.11-1.02-.08-.54-.17-1.16-.65-.36-.8,1.22-.23,1.46-.39,2.2-.22.4-.47.79-.71,1.17-.64.39-.85,1.63-1.42,2.25l-.28-.14c.42-.65.53-1.58,1.01-1.99.61-.51.83-1.26,1.05-2.07.43-1.61.76-3.23.91-4.88.14-1.64.09-3.3-.11-4.96.11-.08.22-.1.36.3l.09.65-.06.35c-.04.11-.03.21.03.3.12,1.06.16,1.66.26,1.91.1.24.25.12.49-.3.01-.03.03-.03.05-.05-.17-.97-.05-1.59,0-2.22.06-.63.14-1.29-.22-2.21-.23-.78-.66-1.76-.39-2.1.18.5.66.99.57,1.21-.17.41.08.92.25,1.45.15.47.2.96.3,1.44.1.48.17.97.19,1.46.08.98.06,1.97.02,2.99-.15,2.91-1.19,5.76-2.45,8.37-.24.53-.6,1.38-.96,1.23-.06-.42.19-.89.59-1.36.49-.56.61-1.06.59-1.55.4-.63.79-1.29.76-2.06Zm.04-3.54c.13,0,.37-.16.37-.73.02-.55-.13-1.34-.25-1.38-.26-.07-.04.63-.12.87-.03.49-.35,1.21,0,1.23Zm1.17-1.51c.03-.37.06-1.02-.16-1.05-.11-.01-.22.22-.24.6-.01.41.04.82.02,1.35.18-.38.36-.61.37-.9Zm-1.04,2.01l-.05.2.05-.02c.02-.15,0-.16,0-.18Z"/><path d="m83.51,1.18c-.87.08-1.53-.02-2.47-.29-1.37-.41-3.14-.31-4.73-.34-.8-.01-1.64-.32-2.4-.03l-.03.54c.16.25.59.67.05.73-1.59.22-1.42,1.2-2.53,1.59.58,0,1.09-.09,1.56-.26.06,0,.11-.02.15-.04.07-.24-.16-.58.47-.67.5-.08.85.06.9.37l.08.08-.07-.08c-.72-.22-.77.38-1.37.31-.04.03-.06.06-.05.09.66.59,1.53.08,2.28.21.99-.51,2.02-.42,3.01.12.3.16.48.37.85.07.57-.46,1.32-.22,2.04.02,1.09-.31.65-.85.43-1.36-.06-.13-.26-.33.12-.38.33-.04.5.11.62.26l.38.02c-.16-.43.87-.54.7-.96Z"/><path d="m19.21,47.39c.53.52,1.12,1.04,2.11,1.09,1.29-.1,2.48.24,3.65.98.31-.15.77-.07,1.21-.04l.64.33c-.04-.18-.08-.51-.12-.52-1.26-.26-1.91-1.09-3.1-1.4-.86-.25-1.63-.54-1.67-1.15,0-.02-.08-.05-.13-.08h-.54c-.08.66-.9.27-1.52-.03-.51-.25-1.04-.46-1.56-.68l-1.56-.69c-1.06-.43-2.05-1.04-2.97-1.72-1.07-.91-1.19-.83-.29-1.04.27-.07.5-.19.74-.29-.56-.29-1.09-.72-1.64-1.06-.54-.35-1.04-.69-1.67-.74.15.19.28.41.46.58.3.29.98.34.91.75-.04.18-.75.06-1.17-.09-.23-.07-.54-.36-.81-.57-.22-.17-.46-.37-.67-.33-.28.04-.13.32.04.58.26.41.12.78.71,1.24.24.46.56.87.96,1.21.4.35.88.67,1.44.93,1.5.21,2.87,1,4.33,1.67.04-.14.18-.28.44-.15.46.22.06.31.11.48.82-.18,1.7-.55,1.65.74Z"/><path d="m111,19.46l-.06.35.02.15s0,.1.01.15c.12,1.06.16,1.66.26,1.91.1.24.25.12.49-.3.01-.03.03-.03.05-.05-.17-.97-.05-1.59,0-2.22.06-.63.14-1.29-.22-2.21-.23-.78-.66-1.76-.39-2.1-.36-.5-.7-1.5-1.11-1.79.09.57-.42.21-.54-.04-.38-.75.07-.41.13-.58.01-.04.05-.03.08-.04-.03-.36-.27-.74-.53-1.11-.25-.38-.53-.75-.68-1.1-.34-.32-.55-.66-.68-.99-.36.12-1.05-.85-1.67-1.45-.29-.29-.55-.46-.61-.44-.11.03.31.35.38.51.13.28.19.5.35.8.15.24.41.81.53.51.01-.03.12.03.21.1.26.22.81,1.04,1.26,1.88.21.43.41.86.56,1.2.13.36.21.63.22.75.04.39.24.81.43,1.26.21.44.46.9.6,1.34.12.37.37.87.5,1.31.19.42.1.46.03.55l-.21.06c.04.21.1.42.13.64.11-.08.22-.1.36.3.06.07.16.12.18.23.07.35-.02.36-.09.42Z"/><path d="m68.37,3.16l-.02-.22c-.27-.43-.48-.87-.82-1.28-.72-.87-2.09-1-3.2-.26-.14.09-.21.24-.38.29-.63.19-.67.82-.04,1.05q.26.1.41-.31c.07-.19.05-.44.53-.46.15,0,.31.22.46.34.89.16.83.61,1.03.98-1.02.21-2.05.2-3.1.07.43-.6-.6-.73-1.09-1.03l-.53.37-1.07.2s-.02-.1-.02-.15c.64-.68-.39-1.24-.37-1.87l.65-.04s0,.07.04.08c.47.19.39.82.95.7.83-.17-.11-.62.05-.95l.39-.42c1.59.05,3.21-.14,4.76.21h.67s.02.38.02.38l-.14.1.19-.07h.42c.22.03.51.2.51-.1l.69-.18-.1.06-.1-.06c.46.42,1.62.41,1.93,1.11.14.33,1.63-.23,2.44-.48.13-.04.22-.12.33-.19.16.25.59.67.05.73-1.59.22-1.42,1.2-2.53,1.59-1.05.2-2.06.13-3.02-.21Zm-4.47-2.04c-.03-.1-.11-.2-.16-.3-.05.05-.13.11-.13.16,0,.08.05.17.09.28.1-.06.21-.1.21-.14Z"/><path d="m18.44,8.73c.56-.26.53-.5.41-.74l-.57.16-.41.19c-1.09.3-2.17.58-3.15,1.31-.4.31-1.03.62-1.64.72-.67.11-1.77.68-1.91.84-1.6,1.64-3.51,2.55-5.39,3.78-.69.45-.85,1.03-1.31,1.52-1.16,1.28-2.18,2.62-2.99,4.22-.8,1.58-1.33,3.34-1.46,5.16-.01.39-.1.79.12,1.01.66.03.71-.9.64-1.72-.06-.73.09-1.16.39-1.62-.17-.3.02-.76.14-1.16l-.02-.44c.93-.38,1.26-1.66,1.96-2.55.26-.35.64-1.28,1.03-.63.09.16.7-1.02.59-1.18-.24-.32.03-.56.38-.91-.04-.21.05-.29.26-.26.36-.58.8-1.29,1.08-.56l.4-.35c.25-.56.56-1.13,1.38-1.31.26-.71.47-1.58,1.67-1.23.29-.17.58-.35.88-.5-.04-.49.63-.7,1.1-.99.7-.4.72-.05.88.14.5-1.01,1.44-1.23,2.45-1.22.09-.26.1-.67.29-.77.56-.27.47.29.97.2-.13-.52.93-.5,1.14-.87l.66-.25Z"/><path d="m54.32.76c-.5-.3-1.06-.46-1.75-.06.43.27.85.57.4.96-.36.31-.69-.17-1.09-.02-.58-.55-.87-.17-1.2.17-.38.39-.76.51-1.09.04-.96.21-.76.65-.9,1.03.19.4.98.47,1.38.75.67.32,1.52.35,2.31.11.6-.17,1.12-.22,1.71-.16.58-.26-.08-.9.95-.97.77-.05.66.39.79.67l.68-.08c-.06-.27-.16-.53-.17-.8,0-.18.31-.26.6-.27.26,0,.45.09.31.22-.21.2-.8.4-.16.56.16.04.7-.33,1.07-.5.12-.07.17-.24.42-.08l-.43.07c.29.74,1.13.57,2.01.34.26-.63-1.11-.89-1.03-1.48-1.46.38-1.47-.11-1.37-.66-.59.13-1.1-.24-1.7-.03.12.64-.51,1.22-1.53,1.2-1.42-.01.42-.59-.08-.87-.07-.04-.09-.11-.13-.16Z"/><path d="m56.2,53.04h.56s1.08-.19,1.08-.19l.4-.03-.04-.14c-.24-.06-.35-.13-.16-.25.03-.02.12-.03.16-.02.31.09-.01.18-.01.27.56.02.98-.08,1.23-.33.81-.8,2.14-.23,2.12-.03-.06.59.83.52,1.49.65.81-.22,1.6-.52,2.41-.76.35-.11,1.05-.09.83-.39-.18-.25-.92,0-1.12-.07-.6-.21-1.47.62-1.84-.02-.45-.03-.98,0-1.06-.29-.38.01-.78.06-1.03-.11-.83-.01-1.66,0-2.48-.08-1.62-.12-3.02.56-4.66.28v.37c.4,0,.82-.03,1.03.2-.03.21-.04.42-.66.43l.29.48c.49.01.97.04,1.46.03Z"/><path d="m32.87,4.15c.22.03.39.15.2.25-1.5.82-.6,1.09.25,1.38l.61-.18-.13-.53-.09-.06.09.06c.6.06,1.73-.62,1.8.18.92-.26,1.89.24,2.83-.49.13-.1.83-.01.91.28l.99-.11c.35-.52,1.56-.91,1.21-1.54-.02-.03.2-.12.31-.19.91.95,1-.44,1.61-.35l-.03-.18c-1.86-.7-2.13.28-2.61,1l-.12.07.13-.06c-.35-.02-.99.02-1.02-.08-.41-1.3-1.5-.23-2.49.05-1.03.29-2.17.8-3.22.43-.49-.05-.52-.53-1.3-.3l.07.38Z"/><path d="m87.44,2.96l-.61-.26c-1.52-.3-1.44-.88-1.21-1.49-.48-.27-.5.08-.75.12.37.89-.46,1.53-1.86,1.51.28.46.26.9-.12,1.3.31.48.63.19.95.06-.19-.11-.23-.26.05-.26.38,0,.29.21.32.35.74.71,1.96.43,2.82.5,1.41.11,2.89.59,4.27.32l.03-.26-.96-.23c-.35.29-.6.07-.86-.12l-1.11-.5c-.11.24-.22.49-.84.38-.42-.07-.64-.28-.82-.49-.42-.51.25-.69.7-.93Z"/><path d="m63.32,51.73c.37.64,1.23-.19,1.84.02.2.07.93-.18,1.12.07.22.3-.48.28-.83.39-.81.24-1.6.53-2.41.76l.31.27h.4c1.07-.56,2.49-.4,3.72-.62.28-.21.19-.38.03-.57-.28-.33.08-.53.87-.59v-.16c-.01-.22.21-.34.7-.36.1-.01.19-.03.29-.05-.11-.14-.58-.26-.01-.45l-.05-.16c-1.93.14-3.86.06-5.78.45.33.33.93.67-.2,1.02Z"/><path d="m35.24,51.74c.4.05.26.73,1.06.34.6-.29,1.02.32,1.58.25.25-.63.95-.4,1.69-.06.62.29,1.17.27,1.69.09.53-.18.78-.41.28-.76-.72-.1-1.34-.43-2.12-.39-2.45.11-2.72.05-4.53-.8-.04-.02-.13-.05-.14-.05-1.09.48-2.38-.74-3.47-.38.03.31-.03.63.61.92.07-.21.23-.21.68-.08.95.28,1.84.55,2.68.91Z"/><path d="m63.32,51.73c1.13-.35.53-.68.2-1.02-.76-.14-1.28-.45-2.33.06-.76.38-2.33.06-3.57.1-1.67.09-3.43.16-5.11-.08-.74-.11-1.23-.12-1.16.34.06.45.67.47,1.34.39h1.4c1.64.28,3.04-.4,4.66-.28.82.07,1.65.07,2.48.08.2-.08.41-.24.58-.23.38.01.42.19.44.35.08.3.61.27,1.06.29Z"/><path d="m40.83,3.67c.49-.72.75-1.7,2.61-1l1.33-.45c.34-.19.7-.38.57-.66-.71-.38-1.5.11-2.2.23-2.68.47-5.41.73-8.03,1.59-.7.23-.76.42-.99.69,1.04.37,2.19-.14,3.22-.43.98-.28,2.07-1.35,2.49-.05.03.09.67.06,1.01.08Z"/><path d="m14.11,42.15c-.24.1-.47.22-.74.29-.91.22-.78.13.29,1.04.93.68,1.91,1.29,2.97,1.72l1.56.69c.53.21,1.05.43,1.56.68.62.3,1.44.7,1.52.04-.48-.53-1.04-.92-1.68-1.19-.32-.14-.66-.25-1.01-.34-.35-.11-.71-.21-1.09-.29-.98-.22-1.61-.66-1.12-1.2-.98-.21-1.45-1.04-2.27-1.45Z"/><path d="m31.26,49.98c1.09-.35,2.38.86,3.47.38.01,0,.1.03.14.05,1.81.84,2.09.91,4.53.8.78-.03,1.41.3,2.12.39-.24-.57-.51-1.13-1.64-1.56l-.9.22c-.36.3-.85.21-1.52.05-.82-.2-1.84-.33-2.55-.5-1.44-.31-2.83-.06-4.14-.68l.21.78c.09.02.18.05.27.08Z"/><path d="m48.55,51.29c-.47.49-.87.96.92,1.1.57.04.2.24.15.38-.9.29-1.86.04-2.47-.23-1.55-.67-1.94-.23-2.34.35h-.33c-1.03-.39-2.72-.72-1.01-1.41.31-.12.33-.41.48-.63.89.1,1.79.11,2.67.21.58.06,1.01.07,1.09-.26.33.04.66.08.99.11-.05.13-.04.27-.15.39Zm-2.88.26s-.09-.02-.18.03c.05.01.1.02.18-.03Z"/><path d="m116.54,10.93c-.05.4.35.9.64,1.39.29.49.47.96.11,1.1-.35.13-1.07-.37-1.62-.39-.29-.01-.6-.28-.93-.6-.33-.31-.69-.72-1.03-1.1-.29-.34-.51-.75-.86-1.05-.33-.29-.61-.86-1.05-.79-.46.08.63.63.22.82.77,1.3,2.55,2.05,2.62,3.58.02.45.46.15.68.45.35.27-.02-1.38.68-.18.35.12.71.46,1.05.76.34.29.65.55,1.01.37,0-.35-.11-.79-.07-1.04.08-.58,1.03-1.01-.43-2,0,0-.01-.15-.05-.33-.03-.18-.08-.41-.15-.57-.2-.47-.48-.89-.82-1.23-.33-.31-.68-.57-1.08-.73-.33.7.9.92,1.07,1.55Z"/><path d="m116,15.99c.05.36-.02.63-.2.81-.43.48-.68,1.14-.52,1.76.15.56.31,1.23.69,1.57.36.31.71.32,1.11-.04.36-.37.72-1.14.75-2.23,0-.52.29-1.18.34-1.82-.51-.61-.93-.24-1.14.41-.23.66-.04,1.2.24,1.74.11.19.1,1.06-.25.88-.3-.14-.69.17-.91-.18-.15-.21-.35-.33-.33-.76.01-.44.22-.63.46-.67.24-.04.45-.11.4-.69-.06-.56-.31-.82-.62-.76Z"/><path d="m30.78,49.13c1.31.63,2.7.37,4.14.68.71.16,1.73.3,2.55.5.68.15,1.16.25,1.52-.05-1.06-.98-2.85-.81-4.29-1.1-2.12-.45-4.38-.54-6.29-1.6l-.23.18c.24.33,1.24.89-.43.6-.55-.1-.93.11-.02.44,1.02.1,1.89-.39,3.04.36Z"/><path d="m31.2,7.24c-.16-.57-.67-.73-1.56-.11-.66.46-1.14.5-1.81.36-.69-.15-1.51.78-2.23.4-1.23.96-2.89.97-4.3,1.58-.48.2-.74.34-.89.63,1.48-.01,2.9-.48,4.42-1.05.97-.37,1.97-.7,3.11-.8,1-.09,2.15-.68,3.25-1.02Z"/><path d="m96.72,5.75l-.72-.14c-.33-.23-.66-.46-1-.67l-.46-.08-1.56.17c.74,1.05,2.54.99,3.78,1.26,1.24.25,2.49.42,3.76.58,1.26.15,2.52.35,3.78.55l.7-.05c-.98-.87-2.18-1.22-3.6-.94-1.1-.01-2.29.13-2.74-.86l-.49-.07-.35-.02c-.02.13-.01.2-.01.26l.08.15-.23-.1-.95-.03Z"/><path d="m75.51,49.72c.96-.1,1.93-.16,2.87-.48.75-.18,1.48-.3,2.1-.17.51-.12.76-.18,1.02-.23,1.22-.23,2.31-.81,3.66-.89.7-.06.92-.6,1.02-.93-3.59.92-7.2,1.7-10.84,2.46l.18.24Z"/><path d="m49.62,52.77c-.9.29-1.86.04-2.47-.23-1.55-.67-1.94-.23-2.34.35,2.61.38,5.25.83,7.9.41.64-.11,1.03.25,1.55.21.71-.07,1.81.16,1.95-.46-.49,0-.97-.02-1.46-.03l-2.39-.17-2.73-.07Z"/><path d="m99.9,42.1c.09.2.44.31-.55.82-.62.32-1.08.7-.8.94,2.6-1.21,5.11-2.87,7.02-5.27l-.14-.11-.17-.02s-.07.09-.11.14c-.28.43-.62.8-.92.69-.06.07-.12.13-.2.19l-.86.62c.04.29-.18.6-.74.8-.51.34-.85.98-1.45,1.11-.2.04-.06-.24.14-.48l-.05-.11h-.42c-.63.15-.45.5-.77.69Z"/><path d="m44.47,52.89c-1.03-.4-2.72-.73-1.01-1.42.31-.12.33-.41.48-.63-.49-.1-.31-.27-.32-.41l-.66-.03c.17.38-.7.44-.76.75l.44.12s-.1.05-.1.05c-.12-.06-.23-.11-.34-.17-.56-.28-.17-.57-.26-.85-.62-.47-1.28-.62-2.04-.27,1.13.43,1.4.99,1.64,1.56.5.35.25.59-.28.76-.52.18-1.06.2-1.69-.09-.73-.34-1.44-.57-1.69.06.86.16,1.74.23,2.61.32.87.07,1.74.16,2.58.39.66.18,1.04.04,1.4-.15Z"/><path d="m27.74,48.77c-.9-.33-.52-.53.02-.44,1.67.3.66-.27.43-.6-.36.25-.81-.1-1.21-.18-.02.23-.39.44-.61.28-1.05-.78-2.1-.31-3.1-.74-.63.08-.59-.15-.56-.38-.46-.46-.67-.26-.91-.11.04.03.13.06.13.08.04.61.81.9,1.67,1.15,1.18.32,1.84,1.14,3.1,1.4.03,0,.08.34.12.52l1.23.63.65.36.19-.45c-1.46-.45-1.41-.98-1.14-1.53Z"/><path d="m10.26,42.51c-.59-.45-.45-.83-.71-1.24-.17-.26-.32-.53-.04-.58.21-.03.44.17.67.33.27.2.58.5.81.57.42.15,1.14.27,1.17.09.07-.41-.62-.46-.91-.75-.18-.17-.31-.39-.46-.58-.05-.42-.46-.37-.7-.56-.47-.24-1.01-.45-1.11-.12-.37,1.28-1.57.21-2.67-.8-.06.31.56.78.37,1.06.5.36.91.79,1.3,1.23l.59.65c.23.21.47.42.72.61.74.55.74.22.97.1Z"/><path d="m23.27,47.1c1,.42,2.05-.04,3.1.74.22.16.59-.05.61-.28-1.02-.34-2.05-.61-3.06-.93-1.01-.34-2.04-.61-3.05-.96-1-.36-2.03-.83-2.92-1.42-.54-.34-1.04-.49-1.58-.65-.49.54.14.98,1.12,1.2.38.08.74.18,1.09.29.35.09.69.2,1.01.34.64.27,1.19.66,1.68,1.19h.54c.23-.17.45-.36.91.1l.56.38Z"/><path d="m49.62,52.77l2.73.07.04-.34c-.37,0-.7-.08-.63-.29.06-.2.44-.18.78-.18.13-.16.14-.33.16-.51-.67.08-1.28.05-1.34-.39-.85-.23-1.74-.28-2.65-.22-.05.13-.04.27-.15.39-.47.49-.87.96.92,1.1.57.04.2.24.15.38Z"/><path d="m44.77,2.22l-1.33.45.03.18.09.06-.08-.06c-.61-.09-.7,1.3-1.61.35-.11.06-.33.16-.31.19.35.63-.86,1.02-1.21,1.54.11.19.4.11.67.07.3-.36.88-.36,1.37-.47.39.05.49-.73.78-.25.3.51.85.06,1.21.14.53-.46.83-.29,1.08.01.36.02.83.32.97-.21l.11-.31c-.43-.07-.68-.34-1.25-.24-.41-.06-.29-.3-.36-.47-1.85-.05.14-.69-.15-.98Z"/><path d="m103.59,38.03c.6-.2,1.11-.62,1.69-.84,1.24-.42,2.28-2.41,2.24-3.45-.47.69-.98,1.45-1.03.71-.49.61-.95,1.23-1.5,1.78-.53.56-.94,1.21-1.4,1.81Z"/><path d="m44.92,3.19c-1.85-.05.14-.69-.15-.97.34-.19.7-.38.57-.66,1.02-.21,2.07-.89,3.12-.3.05.03.07.07.06.12-1.33.73-1.31,1.57-1.12,2.39l-.86.14c-.43-.07-.68-.34-1.25-.24,0-.2,0-.39-.36-.47Zm.99-.76c-.23-.06-.41.13-.33.23.17.19-.46.7.57.54.5-.17.44-.3.04-.4-.09-.13-.11-.32-.29-.36Z"/><path d="m21.22,7.24c.31-.1.68.15.93-.25.56-.9.82-.36,1.15-.19.25-.02.59.03.74-.06.57-.33,1.1-.72,1.69-.39.48.26.02.62-.28.98-.53.65-1.09.61-1.73.47-.39-.08-.98.04-1.2.27-.76.81-1.33.49-1.97.44l.68-1.26Zm3.89-.52s-.11.06-.11.08c0,.05.03.09.05.14l.23-.15c-.06-.02-.11-.05-.18-.07Z"/><path d="m94.35,45.83c-.64.28-1.3.57-1.95.85-.64.29-1.26.57-1.77,1.01-.26.22-.73.24-1.05.28-.59.06-.93.23-1.16.54,1.28.08,2.57-.66,3.8-1.2,1.55-.82,3.3-1,4.72-2.16.21-.16.49-.31.53-.47-.46-.09-1.04.11-1.57.61-.64.61-1.09.61-1.55.54Z"/><path d="m116,15.99c.31-.06.56.2.62.76.05.58-.16.65-.4.69-.24.05-.45.23-.46.67-.02.43.18.55.33.76.23.35.61.04.91.18.35.18.36-.69.25-.88-.28-.53-.46-1.08-.24-1.74.21-.65.64-1.02,1.14-.41.1-.26.14-.53-.09-.75-.36.18-.67-.08-1.01-.37-.33-.3-.7-.64-1.05-.76-.05.37-.12.7-.39.8.13.34.28.68.38,1.03Z"/><path d="m15.36,10.42c-1.01-.01-1.94.22-2.45,1.22-.22.72-1.69,1.43-1.57,2.18l.42.46c.6-.13,1.02-.42,1.31-.88.01-.13-.26-.18.02-.4l.26.25c.1-.01.2-.05.29-.12,1.16-.74.46-1.5,1.55-2.22.23-.2.24-.35.16-.49Z"/><path d="m63.35,53.24l-.31-.27c-.66-.13-1.55-.06-1.49-.65.02-.19-1.32-.77-2.12.03-.26.25-.67.35-1.23.33.03.04.04.09.05.13l-.02.49c1.69.19,3.39.43,5.13-.07Z"/><path d="m79.46,51.22c.05-.42-.7-.34-1.31-.32-1.32.07-2.84.14-3.94.53-.76.28-1.29.38-2.05.47-.46.06-.17.31-.19.47,1.65-.13,3.29-.14,4.95-.73.72-.26,1.69-.25,2.54-.43Z"/><path d="m33.93,5.6l-.61.18c-.27.33-.67.66-.51,1,1.7-.13,3.37-.97,5.16-.77.72.08.79-.68,1.37-.97-.09-.29-.78-.38-.91-.28-.93.73-1.91.23-2.83.49-.37,1.2-1.14.08-1.67.34Z"/><path d="m7.01,15.53l-.4.35c.03.53.04.51.53.24.21-.12.52-.24.64-.18.38.18-.41.71-.33,1.02l.76-.18.92-.58c.44-.62.91-1.24,1.42-1.84-1.58.4-1.69.27-.49-1.36-1.2-.35-1.41.52-1.67,1.23-.47.43-.07,1.41-1.38,1.31Z"/><path d="m6.31,38.87c1.1,1,2.3,2.07,2.67.8.1-.33.64-.11,1.11.12.29-.56-.57-.67-.83-1.02-.61.2-1.24.54-2.03-.97-.13-.25-.45-.54-.69-.48-.26.07-.09.37.14.66l.13.09-.13-.07-.39.88Z"/><path d="m48.45,1.26c.05.03.07.07.06.12.19.27,1.23,0,1.08.48.32.47.71.35,1.09-.04.33-.34.61-.73,1.2-.17.4-.15.73.32,1.09.02.46-.39.04-.69-.4-.96-1.4.04-2.94-.37-4.11.57Z"/><path d="m69.17.61c.46.42,1.62.41,1.93,1.11.14.33,1.63-.23,2.44-.48.13-.04.22-.12.33-.19l.03-.54c-1.22-.45-2.4.2-3.61-.05l-.9.05c-.12,0-.19.04-.23.1Z"/><path d="m99.04,41.41c.15.02.45-.03.81-.15.35-.14.77-.33,1.2-.55.43-.22.86-.47,1.23-.7.35-.26.63-.52.79-.71.63-.77-.05-.59-.07-.89-.42.43-.75,1-1.38,1.15-.14.03-.5.25-.52.28-.37.8-1.36,1.12-2.07,1.59Z"/><path d="m116.54,10.93c-.16-.63-1.39-.84-1.07-1.55-.16-.62-.72-.84-1.22-1.07-1.01-.14-2.02-1.1-3.08-1.28.05.38-.14.67.93.91.66.15,1.4.74,2.05,1.22.17.03.33.08.5.12l.03.18c-.17-.09-.34-.19-.52-.27.22.26-.26.28-.5.4-.25.12-.25.26.77.84.26-.14.32-.67,1.03,0,.32-.04.81.76,1.08.5Z"/><path d="m80.06,50.67c0,.08.13.15-.15.23,2.07-.34,4.36-.45,5.86-1.8l-.1-.16-1.32.36-2.13.73c-.72.22-1.44.43-2.16.65Z"/><path d="m111.17,7.03c1.05.18,2.07,1.14,3.08,1.28.27-.55-.71-.68-1.04-.94-1.3-1.06-2.97-1.63-4.58-1.91.04,1.07,1.68.98,2.55,1.57Z"/><path d="m86.89,2.13c1.06.17,2.29.06,2.91.88.23.32.64.22.75-.06.07-.2.02-.44.49-.5.22-.56-.69-.53-1.16-.62-1.06-.18-2.15-.29-3.23-.43.06.24-.24.49.25.73Z"/><path d="m81.25,3.59c-.72-.23-1.48-.48-2.04-.02-.37.3-.55.09-.85-.07-.99-.54-2.02-.63-3.01-.12.93.58,2.12.56,3.29.58.86.01,1.72.02,2.57.04l.04-.41Z"/><path d="m3.23,28.09c-.37-.16-1.04-.8-.5.77.29.79.12,1.23-.07,1.77-.09.27-.54.27-.12.89.34.49.57.24.79.03.21-.2.43-.35.65-.52-.4-.96-.62-1.95-.75-2.94Z"/><path d="m57.77.62c-.09.55-.09,1.05,1.37.66l1.03-.39.65-.04c.27-.2.66-.17,1.04-.16l.39-.42c.03-.38-.43-.27-.8-.22-1.23.19-2.46.38-3.68.56Z"/><path d="m8.2,16.77l-.76.18c-.33.34-.6.75-.89,1.11-.31.34-.65.62-1.16.72-.27.05-.45.68-.37.68.3.03-.36,1.12.41.57.77-1.24,2.28-1.82,2.78-3.26Z"/><path d="m58.16,2.42c-.37.17-.91.54-1.07.5-.64-.16-.05-.36.16-.56.14-.13-.06-.23-.31-.22-.29.01-.61.09-.6.27,0,.27.11.53.17.8,1.25.46,2.63.3,4.01.18l.03-.47s-.02-.1-.02-.15h-.37c-.89.23-1.73.4-2-.34Z"/><path d="m15.2,10.91c-1.09.72-.39,1.49-1.55,2.22.84.07,1.62.12,2.14-.93.04-.16,0-.39.13-.47,1.94-1.14.31-.76-.3-.81,0,.14.13.27-.24.43l-.06-.31s-.08-.09-.12-.13Z"/><path d="m3.58,35.95c.1-.47.11-1.19-.51-1.54-.29-.17-.53-.46-.74-.8-.19-.35-.35-.74-.51-1.11-.28-.77-.56-1.46-1.19-1.73.53,2.04,1.61,3.8,2.94,5.17Z"/><path d="m28.04,50.39l-1.23-.63-.64-.33c-.11.41-.66.22-1.21.04-1.17-.74-2.36-1.08-3.65-.98.05.21.34.5.59.52.52.06,1.03.18,1.54.34.51.14,1.02.31,1.53.48,1.02.34,2.04.64,3.07.56Z"/><path d="m110.08,9.36c.22-.56.19-1.1-1.15-1.04-.49.04-.94-.22-1.41-.42-.47-.2-1.02-.36-1.53-.15.3.27.63.47.99.62.36.15.66.25,1.02.35.69.19,1.43.35,2.09.65Z"/><path d="m71.37,50.22c.51.46,1.45.69,2.48.86-.27-.49.17-.97.77-1.45-.72-.17-1.29.13-1.9.32-.28.45-.87.25-1.35.27Z"/><path d="m96.74,3.1c1.06.94,3.51,1.3,5.14.79-1.39-.6-2.92-.55-4.38-.8-.1.36-.43.16-.75.01Z"/><path d="m28.01,5.94c.38-.13.62-.29.55-.52h-.46s-.15-.17-.15-.17l.33-.02.32.15c.4-.11.56-.27.54-.49-1.24.24-2.46-.05-3.71.69.31.61,1.45.34,2.28.43l.3-.06Z"/><path d="m17,46.32c-1.46-.67-2.84-1.46-4.33-1.67.32.54.72.91,1.59,1.03,1.09.18,2.1.99,3.19,1.35l.1-.39c-.18-.11-.36-.21-.55-.32Z"/><path d="m83.01,2.84c1.4.02,2.23-.62,1.86-1.51-.46-.06-.91-.11-1.37-.15.17.43-.86.54-.7.96.38.23.19.47.21.7Z"/><path d="m10.54,14.35c-.51.6-.98,1.22-1.42,1.84,1.07-.43,2.08-.82,2.64-1.9l-.42-.46-.8.52Z"/><path d="m47.39,3.77l-.86.14-.11.31c1.29-.07,2.53.08,3.66-.58-.4-.28-1.19-.35-1.38-.75-.23.1-.43.18-.63.27-.03.27-.01.53-.68.62Z"/><path d="m81.25,3.59l-.04.41,1.68.15c.39-.4.4-.84.12-1.3-.82-.11-.59-.44-.59-.72-.12-.16-.29-.31-.62-.26-.38.05-.17.24-.12.38.22.51.66,1.05-.43,1.36Z"/><path d="m32.87,4.15l-.07-.38c-1.15.23-2.54,0-3.31,1.02.26.29.18,1.05,1.26.03.47-.45,1.55-.17,2.11-.67Z"/><path d="m28.89,50.3l-.19.45c1.23.66,2.5.55,3.75.62l-.57-.47c-.64-.29-.58-.61-.61-.92-.09-.03-.18-.06-.27-.08-.14.63-.47,1.16-2.11.39Z"/><path d="m43.95,50.84c.89.1,1.79.11,2.67.21.58.06,1.01.07,1.09-.26-1.16-.52-2.51-.19-3.73-.45-.02.16-.04.33-.04.5Z"/><path d="m31.88,50.9l.57.47c.92.42,1.87.97,2.79.37-.84-.36-1.72-.63-2.68-.91-.45-.13-.61-.13-.68.08Z"/><path d="m54.32.76c.04.05.06.12.13.16.5.27-1.34.85.08.87,1.02.02,1.65-.56,1.53-1.2-.61-.06-1.27-.36-1.74.17Z"/><path d="m94.35,45.83c.46.07.91.07,1.55-.54.54-.5,1.11-.7,1.57-.61.2-.14.49-.28.51-.43l-.75-.1c-1.02.38-1.86,1.07-2.85,1.49l-.03.19Z"/><path d="m106.49,34.45c.06.74.56-.02,1.03-.71.37-.5.48-.88.45-1.2l-.28-.14c-.32.72-.68,1.43-1.21,2.05Z"/><path d="m67.47,52.62c-1.23.22-2.65.06-3.72.61,1.27.29,2.5-.22,3.75-.29l-.02-.32Z"/><path d="m3.66,23.57c-.67-.15-.87.21-.89.68-.02.48.13,1.03.05,1.4.28-.02.61.24.57-.67,0-.45.14-.95.27-1.42Z"/><path d="m55.83,3.28c-.13-.28-.03-.72-.79-.67-1.03.08-.38.71-.95.97.85.46,1.17-.2,1.75-.31Z"/><path d="m92.99,5.03l1.56-.17c-.93-.2-.93-.62-1.01-1.02-.04-.23-.24-.44-.7-.51-.17-.02-.45.03-.51.1-.18.21.18.31.45.45.99.48-.94.6-.09,1.08.09.04.19.06.29.08Z"/><path d="m108.8,33.74c-.2.68-1.46.99-1.14,1.86.51,0,.6-.01,1.14-1.86Z"/><path d="m65.31,2.32c.89.16.83.61,1.03.98.7.03,1.46.32,2.03-.13l-.02-.22c-.5-.1-1.38.07-1.46-.3-.17-.82-.89-.48-1.58-.32Z"/><path d="m63.24,3.37c.43-.6-.6-.73-1.09-1.03l-.53.37-.4.77c.7.09,1.3-.36,2.02-.11Z"/><path d="m5.38,34.66l.43-.3c-.21-.59-.42-1.15-.9-1.62-.24.15-.69.13-.19.9.41.56.44.92.12,1.11.28.18.38-.01.54-.09Z"/><path d="m74.62,49.63c-.6.48-1.05.96-.77,1.45.64-.42,1.61-.81,1.66-1.35l-.18-.24-.71.15Z"/><path d="m86.89,2.13c-.49-.23-.18-.48-.25-.73l-1.01-.19c-.23.61-.31,1.19,1.21,1.49l.05-.58Z"/><path d="m17.55,46.64l-.1.39c.62.3,1.21.38,1.75.36.05-1.29-.83-.92-1.66-.74Z"/><path d="m91.86,45.05c.03.09.01.2.1.25.26.14-.47.92.5.51.86-.37-.04-.41,0-.65.01-.07.28-.22.43-.33-.27-.06-.53-.16-1.04.23Z"/><path d="m71.37,50.22c.48-.02,1.07.18,1.35-.27l-.74.02c-.27.05-.51.06-.66-.05-.44.11-.9.19-1.34.29l.3.14c.36-.04.73-.07,1.09-.12Z"/><path d="m109.72,12.68s-.07,0-.08.04c-.07.17-.51-.17-.13.58.13.25.63.61.54.04l-.33-.66Z"/><path d="m42.2,51.15c.06-.31.93-.37.76-.75l-1.03-.1c.09.28-.3.57.27.85Z"/><path d="m115.62,14.96c.27-.1.34-.43.39-.8-.69-1.2-.33.46-.68.19-.03.07-.02.14.03.23l.14.35c.04.07.07.08.11.03Z"/><path d="m68.68.79l.69-.18c-.29-.42-1.13-.3-1.65-.49l-.04.36.02.38c.18.02.33.02.46.02.06-.21.29-.15.51-.09Z"/><path d="m6.68,39.92c.19-.28-.43-.74-.42-1.07l-.5-.31.13.5c.18.35.44.65.79.88Z"/><path d="m45.45,4.43c-.25-.3-.55-.47-1.08-.01.31.14.5.61,1.08.01Z"/><path d="m57.84,52.85l-1.08.19c-.05.43.55.32,1.08.26v-.45Z"/><path d="m42.38,4.53c-.49.11-1.07.11-1.37.47.78.26,1.12-.05,1.37-.47Z"/><path d="m107.83,9.47c.13.34.34.68.68.99-.19-.33-.03-.74-.68-.99Z"/><path d="m70.27,50.34l-.3-.14-.67.07.05.16c.32.14.64.14.93-.09Z"/><path d="m73.06,3.17s.01-.07.05-.09c-.05.02-.1.04-.16.04l-.11.4.22-.35Z"/><path d="m71.31,49.91c.14.11.38.1.66.05-.03-.26-.25-.27-.66-.05Z"/><path d="m84.2,4.3c-.02-.14.06-.35-.32-.35-.28,0-.24.15-.05.26l.36.09Z"/><path d="m67.68.48l.04-.36c-.35.05-.6.17-.72.36h.67Z"/><path d="m69.39.51l.9-.05c-.37-.25-.68-.25-.9.05Z"/><path d="m43.93,50.83l.05-.49c-.22-.05-.34-.03-.36.09.02.14-.17.31.31.4Z"/><path d="m13.35,13.25l-.26-.25c-.28.22,0,.26-.02.4.11-.02.2-.07.28-.15Z"/><path d="m96.74,3.1c.32.15.66.35.75-.01-.3-.11-.6-.21-.75.01Z"/><path d="m94.37,45.64c.99-.42,1.84-1.1,2.85-1.49.33-.18.43-.33.39-.46l-.16-.37c-.53.25-.76.23-.68-.05.04-.13.09-.31-.26-.15-.2.09-.59.4-.57.43.33.46-1.02,1.23-1.44,1.77-.08.11-.09.21-.14.32Z"/><path d="m110.27,30.36c.4-.63.79-1.29.76-2.06-.42,1.16-.54.06-.93.82-.22.4-.47.79-.71,1.17.32-.04.84-.62.88.07Z"/><path d="m80.47,49.07c-.62-.13-1.34,0-2.1.17.06.16,0,.39.2.47.28.1-.67.56.24.39.63-.13.46-.34.35-.52-.05-.08-.12-.39.35-.18.86.38.55-.33.96-.32Z"/><path d="m103.17,40.09l.86-.62c0-.2.58-.89-.12-.48-.73.43-.77.8-.74,1.1Z"/><path d="m101.13,41.51c-.2.24-.34.53-.14.48.6-.13.94-.76,1.45-1.11-.27-.25-.84.32-1.31.62Z"/><path d="m84.35,49.29l1.32-.36c-.14-.22-.59-.23-1.11-.06-.4.13-.21.29-.21.42Z"/><path d="m69.36,50.88c-.09.03-.19.04-.29.05v.29c.4-.07.91-.05,1.06-.34h-.77Z"/><path d="m104.23,39.28c.3.11.64-.27.92-.69l-.21-.15c-.22.3-.48.56-.71.85Z"/><path d="m98.2,42.22c-.07.02-.14.03-.21.05l-.1.21c.08-.03.18-.06.24-.1.05-.04.05-.1.08-.15Z"/><path d="m81.49,48.84l-.77.18c.11.06.22.17.35.16.38-.05.34-.21.42-.33Z"/><path d="m100.67,41.4h.42c.3-.47-.05-.25-.42,0Z"/><path d="m104.94,38.44c.12-.15.32-.34.24-.41-.02-.02-.14.05-.19.1-.21.24-.08.24-.05.31Z"/><path d="m97.46,43.32l.16.37c.32-.34.28-.47-.16-.37Z"/><path d="m88.9,46.89c.03.05.08.04.12.03-.03-.05-.08-.04-.12-.03Z"/><path d="m68.37,51.3v.16s.68-.23.68-.23c-.22.02-.45.05-.68.07Z"/><path d="m99.89,42.1h-.09s.07,0,.09,0Z"/><path d="m105.26,38.45l.17.02c.15-.28.07-.27-.17-.02Z"/><path d="m87.44,2.96c-.45.25-1.12.43-.7.93.18.22.4.42.82.49.62.11.72-.15.84-.38-.29-.33-.41-.65-.09-.96.15-.14.13-.3-.23-.36-.44-.08-.54.11-.63.28Z"/><path d="m115.46,10.43c-.71-.66-.77-.14-1.03,0,.22.25.65.52.4.8-.12.14-.07.52.14.69.24.18.56.29.78.27.36-.02-.09-.44-.14-.63-.09-.4-.09-.76-.15-1.14Z"/><path d="m98.67,5.56c.45.99,1.64.85,2.74.86-.69-.63-1.53-1.01-2.74-.86Z"/><path d="m97.83,5.47l.35.02c.07-.04.12-.1.2-.12.68-.11,1.16-.28.57-.8-.16-.14-.62-.33-.57-.14.12.46-2.03.26-.56,1.04Z"/><path d="m90.37,4.62l.96.23c.04-.25.91-.49.06-.74-.63-.19-1.11.06-1.02.51Z"/><path d="m95,4.94c.33.21.67.45,1,.67,0-.22.63-.34.16-.62-.37-.22-.81-.2-1.16-.05Z"/><path d="m113.24,9.66c-.1-.19-.16-.31-.25-.38-.1-.07-.25-.08-.37-.11.05.1.08.24.16.31.09.08.25.09.46.19Z"/><path d="m96.72,5.75l.95.03.15-.05v-.19c-.44,0-1.04-.2-1.1.21Z"/><path d="m89.51,4.5c.26.19.51.41.83.12l-.83-.12Z"/><path d="m111.09,9.35c-.06-.08-.11-.08-.16-.08.02.03.04.06.16.08Z"/><path d="m1.32,22.41c-.12.4-.31.86-.14,1.16.48.31-.17,1.43.15,1.97.1.18-.49.77-.08,1.06.25.17.46-.42.69-.75.23-.34.31-.59.19-1.11-.15-.65-.1-1.45.65-1.77.43-.19.42-.81.46-1.19.08-.65-.29-.29-.59-.01-.48.42-.93.9-1.33.63Z"/><path d="m5.38,34.66c-.15.08-.26.27-.54.09-.22.06-.72-.62-.76-.1-.01.18.07.54.21.72.48.58.46-.02.71,0,.14,0,.27,0,.42.05.28.11.84.63.84.27,0-.41-.64-.59-.89-1.01Z"/><path d="m3.48,32.96c0-.08,0-.16,0-.23l-.24-.1c.02.09.03.2.07.26.04.05.11.05.17.08Z"/><path d="m5.27,16.7l.25-.26c-.08.08-.17.17-.25.26Z"/><path d="m110.63,17.81c.07-.09.16-.13-.03-.55-.07.08-.03.29.03.55Z"/><path d="m18.44,8.73l-.66.25c.08.22.36.47.19.64-.29.3-.56.53-.33.74.11.1.28-.03.33-.12.18-.34,1.15-.66.71-1.03-.15-.12-.16-.32-.24-.49Z"/><path d="m20.54,8.5c-.26-.08-.36-.33-.84-.17-.07.02-.18.21-.14.26.2.25.61,0,.98-.1Z"/><path d="m28.01,5.94l-.3.06c.04.13.02.31.41.22l-.11-.28Z"/><path d="m15.32,11.04l.06.31c.37-.16.24-.29.24-.43l-.3.12Z"/><path d="m16.63,9.85l.21.17c.25-.26-.08-.16-.21-.17Z"/><path d="m110.1,29.12c.39-.77.51.34.93-.82.15-.43.15-.76.11-1.02-.08-.54-.17-1.16-.65-.36-.8,1.22-.23,1.46-.39,2.2Z"/><path d="m111.07,23.53c-.03.49-.35,1.21,0,1.23.13,0,.37-.16.37-.73.02-.55-.13-1.34-.25-1.38-.26-.07-.04.63-.12.87Z"/><path d="m111.87,24.15c.18-.38.36-.61.37-.9.03-.37.06-1.02-.16-1.05-.11-.01-.22.22-.24.6-.01.41.04.82.02,1.35Z"/><path d="m111,19.46c.07-.06.16-.07.09-.42-.02-.11-.12-.15-.18-.23l.09.65Z"/><path d="m111.2,25.44c-.02-.12-.04-.05-.05.02l.05-.02Z"/><path d="m110.98,20.1c0-.05,0-.1-.01-.15l-.02-.15c-.04.11-.03.21.03.3Z"/><path d="m74.48,2.77c-.05-.31-.4-.45-.9-.37-.64.1-.4.43-.47.67.61.07.66-.53,1.38-.3Z"/><path d="m82.43,2.12c0,.28-.23.61.6.73-.03-.24.16-.48-.22-.71l-.38-.02Z"/><path d="m74.49,2.76l.07.08s-.05-.05-.07-.08Z"/><path d="m17,46.32l.55.33c-.05-.17.35-.26-.11-.48-.26-.13-.4.01-.44.15Z"/><path d="m24.97,49.46c.54.18,1.1.37,1.21-.04-.43-.03-.9-.11-1.21.04Z"/><path d="m65.31,2.32c.69-.16,1.41-.5,1.58.32.08.37.96.2,1.46.3-.27-.43-.48-.87-.82-1.28-.72-.87-2.09-1-3.2-.26-.14.09-.21.24-.38.29-.63.19-.67.82-.04,1.05q.26.1.41-.31c.07-.19.05-.44.53-.46.15,0,.31.22.46.34Z"/><path d="m60.17,2.76h.37c.64-.68-.39-1.23-.37-1.87l-1.03.39c-.08.59,1.29.85,1.03,1.48Z"/><path d="m61.86.69c-.38,0-.76-.04-1.04.16.01.03,0,.07.04.08.47.19.39.82.95.7.83-.17-.11-.62.05-.95Z"/><path d="m63.69,1.25c.1-.06.21-.1.21-.14-.03-.1-.11-.2-.16-.3-.05.05-.13.11-.13.16,0,.08.05.17.09.28Z"/><path d="m68.68.79c-.23-.05-.46-.12-.51.09.22.04.52.21.51-.09Z"/><path d="m67.7.86l-.14.1c.06-.02.12-.05.14-.1Z"/><path d="m10.54,14.35l.8-.52c-.12-.75,1.35-1.46,1.57-2.18-.16-.19-.19-.54-.88-.14.47.14.04.58-.22.85-.32.33-.63.21-.88.13-.3.16-.58.34-.88.5-1.21,1.63-1.09,1.75.49,1.36Z"/><path d="m10.93,12.49c.25.08.56.2.88-.13.26-.28.68-.71.22-.85-.47.29-1.14.5-1.1.99Z"/><path d="m7.01,15.53c1.31.1.91-.88,1.38-1.31-.82.18-1.13.75-1.38,1.31Z"/><path d="m5.27,16.7l.26-.27c-.2-.03-.3.06-.26.27Z"/><path d="m47.39,3.77c.67-.09.65-.35.68-.62-.14-.35.21-.31.6-.25.17-.39-.03-.84.93-1.04.15-.48-.89-.21-1.08-.48-1.33.73-1.31,1.57-1.12,2.39Z"/><path d="m58.15,2.42l.43-.07c-.25-.16-.3.01-.43.07Z"/><path d="m52.65,52.04c-.17.14-.22.3-.27.46.69,0,1.38.02,2.07.02.62,0,.64-.22.66-.43-.37-.04-.82.02-1.04-.2l-1.43.15Z"/><path d="m62.26,51.44c-.02-.16-.06-.34-.44-.35-.17,0-.39.15-.58.23.25.18.65.13,1.03.11Z"/><path d="m54.08,51.89c.22.22.67.16,1.04.2-.21-.23-.63-.21-1.04-.2Z"/><path d="m58.19,52.68c0-.09.32-.18.01-.27-.03,0-.13,0-.16.02-.2.12-.08.19.14.25Z"/><path d="m33.93,5.6c.53-.26,1.3.86,1.67-.34-.07-.8-1.2-.12-1.8-.18l.14.52Z"/><path d="m40.83,3.67l-.13.06s.08-.04.13-.06Z"/><path d="m33.8,5.08l-.09-.06s.06.04.09.06Z"/><path d="m68.37,51.3l.69-.07v-.29c-.48.02-.7.14-.69.36Z"/><path d="m28.89,50.3c1.64.77,1.97.23,2.11-.39l-.21-.77c-1.15-.75-2.02-.25-3.04-.36-.27.55-.32,1.08,1.14,1.53Z"/><path d="m45.49,51.58l.15.03c0-.08-.06-.08-.15-.03Z"/><path d="m42.19,51.16c.11.06.23.11.34.17,0,0,.07-.03.1-.05-.15-.04-.29-.08-.45-.12Z"/><path d="m23.27,47.1l-.56-.38c-.03.23-.07.46.56.38Z"/><path d="m52.38,52.5l.15-.47c-.34,0-.71-.02-.78.18-.07.21.26.28.63.29Z"/><path d="m45.27,3.67c0-.2,0-.39-.36-.47.06.18-.06.41.36.47Z"/><path d="m43.47,2.85l.08.06s-.06-.04-.08-.06Z"/><path d="m46.19,2.79c-.09-.13-.11-.32-.29-.36-.23-.06-.41.13-.33.23.17.19-.46.7.57.54l.04-.4Z"/><path d="m46.19,2.79l-.04.4c.5-.17.44-.3.04-.4Z"/><path d="m25.28,6.79c-.06-.02-.11-.05-.18-.07,0,0-.11.06-.11.08,0,.05.03.09.05.14l.23-.15Z"/><path d="m6.71,37.99l.13.07s-.09-.06-.13-.07Z"/><path d="m114.16,9.19c.18.08.34.18.52.27l-.03-.18c-.17-.04-.33-.09-.49-.09Z"/><path d="m28.11,5.42h.46c-.06-.09-.16-.14-.27-.19l-.19.19Z"/><path d="m48.66,2.9c-.38-.06-.74-.1-.6.25l.6-.25Z"/>
                  </g>
                </mask>
              </defs>
              <path class="mask" d="m116.43,20.43c1.68-2.73.78-6.76-1.25-9.15-2.42-2.85-5.68-4.04-7.65-4.49C74.43-.78,47.63,2.84,47.63,2.84c-6.02.81-34.41,4.85-42.97,16.28-.77,1.03-2.55,3.47-2.8,6.88-.49,6.81,5.52,12.25,7.94,14.44,17.27,15.63,83.32,17.35,97.88-6.51,1.22-2,4.44-7.27,3.68-13.98-1.01-8.91-8.34-14.46-10.59-16.04"
                    mask="url(#path-mask)" stroke="black" stroke-width="2" fill="none"
                    stroke-dasharray="290.4312438964844" stroke-dashoffset="290.4312438964844">
              </path>
            </svg>
        