
            <svg xmlns="http://www.w3.org/2000/svg">
              <defs>
                <mask id="path-mask">
                  <g fill="white">
                    <path d="m178.49,52.87c1.46-.74.37-.66.59-.99.37-.11.75-.21,1.12-.34.96-.18,2.05-.46,2.98-.63,1.95-.26,4.98-2.2,5.88-3.55.9-.5,1.38-.94,1.62-1.35.6-.32,1.27-.84,1.87-1.37.63-.5,1.21-.99,1.74-1.19.4.02,1.48-.62.93.29-.41.64-.94,1.29-2,1.87-.85.51-1.58,1.01-1.88,1.55-.25.18-.5.36-.76.52-.44.37-1.1.59-1.69.86-.6.24-1.13.53-1.33,1.08-.16.08-.38.2-.57.3-.19.09-.34.17-.34.17-.24.5-.87.94-1.65,1.34-.79.37-1.71.74-2.56,1.07l-.1-.15c.42-.27.31-.27-.21-.06-.08.05-.16.09-.26.12l-.16-.21c.28-.14.7-.29.65-.39-.01-.02-.23.02-.34.07-.48.21-.3.24-.33.33l-1.6.83c-.13.06-.27.12-.41.17.16-.21,1.46-.9.2-.55-1.33.35-1.67.75-1.84,1.08-.15.34-.68.58-1.6.74-.21-.31-1.41.26-2.29.51v-.12c.76-.46.11-.28-.6-.06-1.02.09-1,.47-1.6.66h-.14s.15,0,.15,0c0,.22.45.38-1.32.83-1.1.28-2.02.61-1.73.9l-1.08.35-1.07-.16c.59-.16.83-.32.84-.46.67-.33.69-.47-.03-.41-.94.24-1.29.19-1.01-.1.13-.14.32-.32-.31-.18-.37.08-1.13.38-1.11.41.26.54-2.24,1.17-3.14,1.73-.18.12-.25.22-.37.33l-.14.2c-2.25.54-4.66.85-6.62,1.68-.5.21-1.25.2-1.77.22-.95.02-1.57.18-2.04.49-1.48.18-2.96.32-4.43.47l-.11-.17c-.16-.23-.88-.25-1.77-.1-.69.12-.43.29-.46.43-2.43.45-4.87.86-7.44,1.2l.11.04c-.03.08.18.15-.3.22-.13.12-.17.26-.8.31.18-.42-1.06-.39-2.07-.36-2.17.07-4.69.05-6.56.43-1.3.28-2.18.35-3.45.42-.77.04-.33.31-.38.47-2.48.18-4.96.33-7.44.44v-.32c.48-.2.35-.37.11-.57-.43-.34.19-.53,1.52-.56l1.16-.21c.7-.06,1.54-.04,1.83-.32l-1.28-.02c-.17-.14-.93-.26.04-.45.52.15,1.04.15,1.56-.08l1.84-.1c.79.48,2.3.74,3.96.93,1.13-.43,2.8-.78,3-1.32,1.62-.07,3.23-.1,4.84-.42.06.16-.1.39.22.48.44.12-1.23.54.31.41,1.07-.09.83-.32.69-.51-.06-.09-.1-.39.62-.17,1.33.41.98-.32,2.08-.35.17.06.31.18.53.17.64-.04.61-.21.77-.33,2.06-.2,4.02-.72,6.23-.78,1.15-.04,1.69-.57,1.98-.9,3.34-.51,6.66-1.07,9.97-1.75.01.09-.07.21.05.26.35.16-1.15.9.57.56,1.52-.32.13-.42.3-.67.05-.07.55-.21.84-.32,2.72-.9,5.72-1.58,8.57-2.36.84-.22,2.07-.95,2.85-.75.87.2,5.89-1,7.37-1.78Zm-9.48,2.6l-.28.21c.14-.03.32-.04.43-.08.1-.04.14-.1.21-.15-.12.01-.24.02-.36.03Zm-16.32,4.18c-.06,0-.15.01-.23.02.02.06.11.04.23-.02Z"/><path d="m176.28,4.02c3.81.22,7.49,1.14,11.23,1.66.17.55.89.76,1.75.88.88.13,1.91.21,2.69.45.25.38.12.71,1.86.84,1.05.09,2.47.61,3.73,1.09.93.53-2.5.35,1.26,1.34.49.27,1.27.51,1.16.88-.05.19.32.62.77.82.47.19.97.26,1.23.21.42-.09-.48-.52-.71-.74-.43-.47-.71-.88-1.07-1.31.4-.08,1.59.74,1.72.39.24.46,1.1.97,1.83,1.49.75.53,1.34,1.12,1.05,1.39-.28.25-1.48-.25-2.16-.14-.68.04-2.55-1.05-4.11-1.85-.69-.37-1.33-.81-2.06-1.12-.71-.28-1.51-.89-2.14-.76-.66.12,1.39.62.9.87-1.23-.12-2.45-.35-3.76-.87.03-.6-.25-1.17-2.44-.99-1.66.17-3.55-.95-5.19-.55l-.6-.06-1.1-.35c-1.81-.9-3.83-1.33-6.13-1-1.25-.64-2.72-1.06-4.68-.93l-.82-.08c.1-.04.17-.1.31-.11,1.11-.1,1.86-.26.79-.8-.28-.14-1.07-.35-.95-.15.27.47-3.3.22-.76,1.11-.71-.01-1.73-.22-1.76.19l-1.22-.15c-.02-.23.98-.34.17-.63-.64-.22-1.37-.19-1.93-.04l-.77-.09c-1.58-.22-1.64-.64-1.82-1.05-.11-.24-.47-.45-1.22-.52-.28-.03-.73.02-.83.09-.27.21.34.32.81.46,1.71.5-1.47.59.01,1.08-.41.34-1.38.22-2.3.14v-.26c.05-.25,1.44-.48,0-.74-1.06-.2-1.84.05-1.66.5l-1.4-.12-1.91-.52c-.52-.34-.77-.66-.27-.96.23-.14.19-.3-.43-.37-.74-.09-.87.1-1,.27l-1.03-.26.02-.58c1.77.19,3.79.09,4.92.91.43.31,1.09.21,1.23-.06.1-.2-.03-.45.73-.49,3.11-.21,6.29.03,9.5.72,1.89.97,5.99,1.39,8.56.89Zm19.66,5.16c-.2-.07-.42-.05-.63-.08.15.11.27.25.45.32.18.07.43.09.8.16-.28-.18-.44-.33-.63-.39Z"/><path d="m2.52,34.51c.18.66.35,1.14.35,1.59.04.44.06.81.06,1.23.03.4-.52.41.24,1.36.61.76.75.39.89.09.14-.29.32-.5.49-.74.57.9,1.28,1.74,2.03,2.54-.18.18-.78.18.34,1.25.83.82,1.14,1.26.85,1.53-.25.09-1.3-.85-1.02-.14.1.24.43.71.72.95.95.79.56-.02.89.02.18.01.35,0,.57.07.44.15,1.49.86,1.26.38-.26-.54-1.22-.78-1.8-1.37l.35-.39c2.47,2.01,4.99,3.88,7.52,5.78-.73.22-1.39.62-3.4-1.28-.33-.31-.95-.69-1.22-.62-.3.08.12.47.62.85,0,.36,0,.72-.07,1.06l-.85-.38.48.62c-2.04-.93-3.7-2.29-4.87-3.95-.16-.61-.6-1.56-1.56-2.07-.93-.47-1.79-1.62-2.53-2.74-.37-.56-.67-1.15-1.03-1.61-.31-.49-.64-.89-1.04-1.12-.25-1.04-.56-2.09-.69-3.21-.12-.55-.1-1.12-.09-1.68,0-.28,0-.57.02-.85l.13-.83c.31.1.57-.25.78-.77.24-.52.45-1.21.66-1.85.37-1.15.82-1.72,1.46-2.32.14.29-.16.78-.49,1.34-.32.56-.65,1.19-.65,1.63,0,.31-.89,1.11-.58,1.68.17.32.62-.59,1.03-1.05.4-.48.62-.86.84-1.68.28-1.02.93-2.14,1.99-2.43.62-.17,1.13-1.04,1.48-1.53.61-.85-.11-.42-.66-.12-.87.47-1.73,1.02-1.95.58l.32-.59c.66-.15,1.31-.64,2.01-1.19.72-.54,1.43-1.24,2.21-1.7.3-.19.74-.57,1.11-.79.38-.2.68-.25.66.16,0,.21,1.67-1.15,1.66-1.32-.07-.39.45-.65,1.15-1.01l.51-.27c.9-.6,1.95-1.38,1.86-.52-.31.6-.3.58.57.32.38-.13.91-.23,1.03-.16.43.23-1.07.77-1.17,1.14-1.43.74-2.69,1.87-4.2,1.96-.39.03-1.12.78-1.03.79.35.05-1.36,1.37.05.75.05.19-.07.31-.59.64-.87.51-1.69,1.08-2.5,1.69-.81.64-1.52,1.36-2.05,2.22-.61-.34-1.1.12-1.46.81-.38.7-.58,1.59-.87,2.15-.3.68-.35,1.34-.37,1.97-.02.64.11,1.26.02,1.99-.18-.16-.4-.52-.54-.52-.13,0-.3.4.08,1.69Zm2.34,6.01c-.12-.05-.22-.11-.33-.16.07.13.14.29.23.37.08.08.17.07.26.11-.05-.11-.11-.22-.16-.32Z"/><path d="m196.61,12.03c-1.63-1.28-3.5-2.98-5.24-3.8-1.2-1.23-3.57-2.28-5.28-3.27-.49-.28-.69-.36-1.07-.5-1.18-.42-1.72.05-.55.71,1.23.71,1.56,1.04,1.79,1.38.24.35.74.85,2.05,1.25.14.05.64.3.83.43,1.89,1.32,3.78,2.48,5.5,3.95,1.97,1.7,3.79,3.57,5.23,5.71,1.44,2.13,2.48,4.53,2.85,7.05l.21-.04c-.03-.44-.12-.78-.06-.89-.22-.75-.45-1.64-.72-2.22-.14-.36-.29-.73-.45-1.11-.2-.36-.4-.73-.59-1.09-.35-.74-.79-1.37-.99-1.98-.06-.18-.26-.61-.62-1.13-.34-.52-.76-1.19-1.28-1.78-.25-.31-.51-.61-.75-.91-.27-.28-.52-.54-.76-.78-.47-.48-.87-.85-1.11-1-.15-.1-.33-.19-.33-.15.02.38-.66-.38-.98-.73-.4-.39-.6-.69-.94-1.05-.18-.21-.93-.66-.81-.68.08-.02.52.21,1.07.61,1.16.79,2.62,2.15,2.99,2.02Z"/><path d="m49.23,6.42c-1.35.36-2.98.61-3.78,1.27.4-.02.93.02,1.2-.07,1.02-.35,1.98-.74,2.83-.42.7.26-.15.63-.74,1.01-1.05.66-1.95.64-2.93.5-.61-.09-1.59.04-2.02.29-1.49.85-2.3.51-3.3.47-.61.11-1.36.35-1.59.1-.04-.05.2-.25.32-.27.8-.16.88.09,1.27.17l1.5-1.32c-1.29-.5-2.66.3-4,.78.1.25.06.5-.92.78.06.17.01.38.2.51.55.4-1.1.71-1.53,1.07-.12.1-.44.24-.57.13-.27-.22.24-.47.82-.78.33-.17-.02-.45-.06-.67-.48.38-2.13.38-2.15.93.22.01.77-.09.27.18l-.26-.19c-.82.09-.46-.5-1.43-.22-.34.1-.52.54-.78.82.05.15-.03.31-.47.52.04.05.08.1.13.14l.52-.13c.93.05,3.67-.35.12.86-.23.08-.28.33-.41.5,1.54-.45,3.11-1.13,4.66-.95.19.03,2.18-.93,3.59-1.27.34-.3.81-.45,1.65-.67,2.47-.63,5.17-.68,7.46-1.67,1.07.39,2.67-.58,3.75-.44,1.05.13,1.86.08,3.05-.4,1.62-.66,2.4-.5,2.53.08l2.76-.49c-.18-.34.55-.68,1.07-1.03-1.34-.28-2.74-.55-.1-1.4.34-.11.09-.23-.27-.26-1.04.52-2.72.25-3.59.71-2.01,1.06-1.7.28-2.04-.01l-.59.11c-.02.22-.32.39-.99.5-.03.28-.47.45-1.12.58l.1.29c-.65.09-.57-.08-.6-.22-1.32-.08-3.23.21-3.56-.42Z"/><path d="m197.73,41.13c.49-.56.76-1.01.92-1.39.34-.78.74-1.71-.38-.68-1.82,1.53-1.43,2.01-2.2,2.98-.58.49-1.15.99-1.77,1.42-.53.2-1.11.69-1.74,1.19-.61.53-1.27,1.05-1.87,1.37l-.2-.24c1.09-.7,2.05-1.88,2.94-2.3,1.14-.54,1.99-1.49,2.91-2.58,1.8-2.16,3.45-4.42,4.64-6.92.59-1.25,1.06-2.54,1.39-3.87.29-1.34.47-2.7.45-4.08.12-.1.24-.11.32.59-.01.36.03.72-.02,1.08l-.16.55c-.07.16-.09.33-.04.5-.24,1.75-.51,2.73-.54,3.14-.04.41.19.27.62-.33.03-.04.05-.04.07-.06.31-1.6.57-2.59.8-3.61.23-1.02.35-2.09,0-3.7-.2-.65-.38-1.42-.54-2.06-.2-.63-.32-1.16-.22-1.4.16.42.4.84.6,1.21.19.36.27.69.25.85-.15.63.25,1.5.34,2.44.2,1.64.19,3.3-.14,4.92-.32,1.61-.85,3.18-1.54,4.71-.99,2.18-2.37,4.18-3.93,6-1.52,1.8-3.28,3.53-5.14,5.04-.72.63-1.92,1.57-2.19,1.31.3-.54,1.03-1.04,1.88-1.55,1.06-.58,1.59-1.23,2-1.87.97-.75,1.93-1.57,2.5-2.63Zm2.77-5.07c.11.04.48-.13.86-.98.37-.83.72-2.11.62-2.19-.21-.19-.4.97-.65,1.32-.31.75-1.17,1.73-.83,1.86Zm2.13-1.94c.12-.28.29-.67.4-1.01.09-.34.13-.63.04-.68-.11-.06-.31.28-.55.87-.13.32-.24.64-.36.98-.14.34-.29.7-.46,1.11.4-.53.75-.82.93-1.27Zm-2.37,2.72l-.19.28h.06c.14-.23.13-.25.13-.28Z"/><path d="m145.67,1.07c-1.43.08-2.53-.03-4.11-.3-2.3-.42-5.21-.32-7.85-.35-1.32-.02-2.72-.31-3.97-.03l-.03.54c.28.26,1.02.67.13.74-2.64.22-2.31,1.21-4.13,1.6.97,0,1.82-.09,2.59-.27.1,0,.18-.02.25-.04.11-.25-.3-.57.75-.67.83-.08,1.41.06,1.52.37l.13.08-.12-.08c-1.21-.22-1.27.37-2.27.31-.06.03-.09.06-.08.1,1.14.58,2.56.08,3.82.21,1.63-.51,3.33-.42,5.03.12.51.16.83.37,1.42.07.91-.46,2.18-.21,3.41.03,1.79-.3,1-.84.6-1.36-.11-.13-.47-.33.16-.38.54-.04.84.11,1.05.27l.63.02c-.31-.43,1.39-.53,1.06-.96Z"/><path d="m35.63,58.42c1.02.57,2.12,1.06,3.69,1.18,2.01-.07,4.03.28,6.11,1.09.45-.15,1.23-.06,1.93-.02l1.12.34c-.11-.18-.27-.52-.32-.53-2.11-.28-3.39-1.17-5.39-1.52-1.46-.26-2.78-.59-3.05-1.22,0-.02-.15-.06-.23-.09-.28,0-.57,0-.86-.01.1.67-1.35.28-2.44-.07-3.59-1.08-7.33-1.82-10.8-3.44-2.08-1.01-2.24-.91-.98-1.15.38-.08.66-.21.99-.32-2.07-.62-4.18-1.95-6.03-2.1.33.24.65.49,1.02.68.61.33,1.67.38,1.8.86.05.2-1.08.05-1.78-.1-.38-.07-1-.39-1.5-.65-.42-.2-.86-.45-1.14-.4-.36.06.02.37.41.68.61.48.62.94,1.71,1.42,1.2,1,2.68,1.82,4.6,2.35,2.31.27,4.78,1.09,7.3,1.85,0-.15.17-.3.63-.17.8.23.22.33.36.51,1.21-.19,2.46-.52,2.85.82Z"/><path d="m203.1,27.69l-.16.55-.02.25-.02.25c-.24,1.75-.51,2.73-.54,3.14-.04.41.19.27.62-.33.03-.04.05-.04.07-.06.31-1.6.57-2.59.8-3.61.23-1.02.35-2.09,0-3.7-.2-.65-.38-1.42-.54-2.06-.2-.63-.32-1.16-.22-1.4-.22-.45-.56-1.05-.89-1.62-.16-.28-.32-.56-.48-.8-.18-.22-.34-.41-.49-.53.34.87-.39.26-.64-.14-.75-1.18-.09-.6-.09-.85,0-.05.05-.03.08-.05-.21-.52-.69-1.09-1.17-1.67-.5-.56-1.06-1.09-1.41-1.6-.59-.47-1.07-.92-1.4-1.4-.38.13-1.83-1.23-3-2.02-.54-.4-.99-.63-1.07-.61-.12.03.62.47.81.68.33.36.54.65.94,1.05.32.34,1,1.1.98.73,0-.04.18.04.33.15.23.15.63.52,1.11,1,.23.24.49.51.76.78.24.3.5.6.75.91.52.6.94,1.26,1.28,1.78.36.51.56.95.62,1.13.2.6.64,1.24.99,1.98.2.36.4.72.59,1.09.15.38.3.76.45,1.11.27.58.5,1.47.71,2.22.27.71.11.78.06.9l-.21.04.1,1.07c.12-.1.24-.11.32.59.05.14.14.24.15.42.03.59-.1.59-.17.66Z"/><path d="m120.66,3.07l-.04-.22c-.46-.42-.82-.86-1.39-1.27-1.22-.86-3.49-.97-5.32-.22-.23.09-.34.24-.62.29-1.05.2-1.11.83-.06,1.06q.43.09.68-.32c.11-.19.08-.45.87-.47.24,0,.51.22.77.34,1.49.15,1.39.6,1.73.96-1.7.22-3.43.22-5.18.12.71-.6-1-.72-1.83-1.01l-.88.38-1.78.22s-.04-.1-.03-.15c1.07-.7-.63-1.23-.6-1.87l1.08-.05s0,.07.06.08c.77.19.64.82,1.58.69,1.38-.18-.17-.62.08-.95l.64-.42c2.63.01,5.32-.19,7.89.14h1.12s.05.37.05.37l-.24.1.31-.07h.7c.36.03.86.19.85-.11l1.14-.18-.16.06-.17-.06c.77.43,2.7.41,3.24,1.1.25.33,2.7-.24,4.03-.49.22-.04.36-.13.54-.19.28.26,1.02.67.13.73-2.64.22-2.31,1.21-4.13,1.6-1.75.21-3.44.13-5.06-.2Zm-7.48-1.99c-.05-.1-.18-.2-.27-.3-.07.05-.21.11-.21.16,0,.08.08.17.14.27.16-.06.36-.11.34-.14Z"/><path d="m37.06,9.71c.98-.28,1.02-.53.92-.78l-.94.17-.71.2c-1.82.32-3.59.58-5.41,1.35-.74.31-1.85.63-2.82.73-1.07.09-2.97.68-3.27.84-3.19,1.71-6.51,2.61-9.81,3.78-1.21.43-1.81,1.05-2.73,1.56-2.36,1.28-4.68,2.74-6.77,4.61-2.03,1.81-4.01,4.08-5.04,6.97-.22.61-.45,1.27-.31,1.68.31.1.57-.25.78-.77.24-.52.45-1.21.66-1.85.37-1.15.82-1.72,1.46-2.32.05-.47.57-1.07,1.01-1.58l.32-.59c.66-.15,1.31-.64,2.01-1.19.72-.54,1.43-1.24,2.21-1.7.3-.19.74-.57,1.11-.79.38-.2.68-.25.66.16,0,.21,1.67-1.15,1.66-1.32-.07-.39.45-.65,1.15-1.01.09-.24.27-.33.52-.27.89-.6,1.94-1.38,1.85-.52l.79-.36c.71-.61,1.48-1.21,2.78-1.36.81-.76,1.56-1.7,3.13-1.26l1.57-.51c.2-.54,1.3-.73,2.14-1.02,1.24-.43,1.11-.04,1.27.16,1.25-1.05,2.76-1.3,4.33-1.25.25-.28.44-.72.78-.82.97-.28.61.31,1.43.22.01-.53,1.65-.54,2.14-.92l1.14-.25Z"/><path d="m97.3.95c-.82-.28-1.72-.42-2.9,0,.7.26,1.39.54.61.95-.61.32-1.13-.14-1.8.02-.94-.53-1.42-.13-1.99.23-.65.41-1.3.55-1.8.09-1.6.26-1.31.69-1.56,1.08.28.4,1.58.43,2.24.69,1.1.3,2.51.28,3.84.01,1-.19,1.88-.26,2.86-.23.98-.28-.09-.91,1.63-1.01,1.28-.07,1.09.37,1.3.64l1.13-.1c-.09-.27-.26-.53-.25-.8,0-.18.52-.27,1.01-.29.43-.02.75.07.51.21-.35.21-1.34.43-.28.57.26.03,1.17-.34,1.79-.52.19-.07.29-.24.7-.09l-.71.08c.46.74,1.87.54,3.35.29.44-.63-1.83-.86-1.69-1.45-2.44.42-2.43-.07-2.26-.63-.98.13-1.81-.21-2.82.02.18.63-.89,1.24-2.58,1.25-2.36.04.73-.61-.1-.87-.11-.04-.14-.1-.2-.16Z"/><path d="m97.29,64.98h.93s1.79-.15,1.79-.15l.66-.02s-.03-.09-.06-.14c-.39-.06-.58-.14-.25-.25.05-.02.21-.03.26-.02.51.1-.03.18-.03.27.93.03,1.62-.07,2.06-.32,1.38-.79,3.57-.17,3.53.02-.13.59,1.35.54,2.42.68,1.35-.23,2.68-.46,4.05-.7.6-.1,1.75-.07,1.41-.38-.28-.25-1.53-.02-1.84-.09-.99-.22-2.49.56-3.05-.07-.75-.03-1.63,0-1.75-.31-.63,0-1.3.05-1.71-.14-1.38-.03-2.77-.07-4.14-.13-2.7-.14-5.05.48-7.79.19v.37c.66,0,1.37-.02,1.71.21-.05.21-.07.42-1.1.42l.48.49,2.41.06Z"/><path d="m61.61,4.88c.36.03.61.15.27.26-2.64.85-1.24,1.12.1,1.4l1.03-.19-.1-.53-.14-.06.13.06c.97.05,2.97-.65,2.92.16,1.56-.28,3.07.21,4.75-.54.24-.11,1.36-.03,1.45.26l1.66-.13c.67-.53,2.74-.95,2.26-1.57-.02-.03.35-.13.54-.19,1.35.94,1.72-.46,2.72-.38-.01-.06-.02-.12-.02-.18-2.95-.68-3.54.31-4.46,1.05l-.21.07.23-.07c-.58-.02-1.64.03-1.67-.07-.44-1.31-2.42-.21-4.09.08-1.74.31-3.72.84-5.35.48-.78-.05-.74-.53-2.05-.29l.02.38Z"/><path d="m152.37,2.89l-1.03-.26c-2.55-.31-2.47-.9-2.16-1.51-.83-.28-.81.08-1.23.11.7.9-.6,1.54-2.93,1.51.51.47.52.9-.08,1.31.56.48,1.07.2,1.59.07-.33-.11-.41-.27.05-.26.63,0,.51.21.57.35,1.3.71,3.32.45,4.75.53,2.35.15,4.89.61,7.15.36v-.26s-1.61-.25-1.61-.25c-.54.28-.99.08-1.44-.12l-1.91-.52c-.16.24-.3.49-1.34.38-.7-.08-1.09-.29-1.41-.5-.75-.51.34-.69,1.05-.93Z"/><path d="m109.18,63.82c.57.64,2.06-.15,3.05.07.32.07,1.56-.17,1.84.09.34.3-.82.28-1.41.38-1.37.24-2.7.47-4.05.7l.5.27h.66c1.82-.51,4.15-.32,6.2-.54.48-.2.36-.37.11-.57-.43-.34.19-.53,1.52-.56l.02-.16c0-.22.4-.34,1.21-.34.17-.01.33-.03.48-.05-.17-.14-.93-.26.04-.45l-.06-.16c-3.23.06-6.46,0-9.7.31.53.35,1.5.69-.41,1.02Z"/><path d="m62.58,63.24c.67.06.53.75,1.78.36.94-.29,1.72.34,2.63.29.32-.63,1.51-.38,2.76-.02,1.06.3,1.96.27,2.79.12.86-.16,1.25-.39.39-.76-1.19-.14-2.27-.45-3.56-.44-4.02.04-4.47-.01-7.59-.91-.07-.02-.22-.06-.24-.05-1.7.44-4.05-.78-5.77-.47.11.32.09.64,1.19.96.07-.21.34-.2,1.1-.07,1.61.29,3.11.61,4.53.99Z"/><path d="m109.18,63.82c1.91-.32.94-.67.41-1.02-1.26-.14-2.11-.46-3.9.03-1.3.35-3.9,0-5.98.02-2.8.04-5.74.1-8.55-.2-1.23-.13-2.06-.14-1.93.32.12.45,1.12.48,2.25.42l2.33.04c2.73.29,5.08-.33,7.79-.19,1.37.06,2.76.1,4.14.13.33-.08.71-.23.99-.22.63.02.69.2.72.36.12.3,1,.28,1.75.31Z"/><path d="m74.74,4.28c.93-.74,1.51-1.73,4.46-1.05l2.26-.48c.59-.2,1.21-.39,1.03-.67-1.12-.37-2.48.13-3.65.26-4.47.51-8.97.81-13.42,1.72-1.19.25-1.33.44-1.76.72,1.63.36,3.6-.17,5.35-.48,1.67-.3,3.65-1.4,4.09-.08.03.09,1.09.05,1.65.06Z"/><path d="m25.4,52.67c-.33.11-.61.24-.99.32-1.27.25-1.1.14.98,1.15,3.48,1.62,7.21,2.36,10.8,3.44,1.09.34,2.54.73,2.44.07-1.92-1.12-4.16-1.62-6.7-2-1.64-.26-2.8-.77-2.28-1.34-1.65-.23-2.78-1.15-4.25-1.64Z"/><path d="m55.76,61.36c1.72-.31,4.07.91,5.77.47.02,0,.17.03.24.05,3.12.9,3.57.96,7.59.91,1.29-.01,2.37.3,3.56.44-.46-.59-.97-1.17-2.9-1.6l-1.46.2c-.56.29-1.37.2-2.52,0-1.39-.22-3.1-.36-4.3-.56-2.43-.38-4.68-.1-6.95-.8l.51.8c.16.02.31.05.46.09Z"/><path d="m84.56,63.08c-.76.49-1.39.94,1.57,1.13.95.06.34.25.27.38-1.47.25-3.08,0-4.11-.29-2.61-.69-3.23-.28-3.84.29h-.54c-1.72-.4-4.55-.78-1.79-1.44.5-.12.51-.41.74-.62,1.49.09,2.98.18,4.47.27.96.07,1.69.09,1.8-.24l1.66.13c-.07.13-.05.27-.23.38Zm-4.78.21c-.06-.02-.16-.03-.3.02.08.01.16.02.3-.02Z"/><path d="m201.89,10.52c.24.46,1.1.97,1.83,1.49.75.53,1.34,1.12,1.05,1.39-.28.25-1.48-.25-2.16-.14-.68.04-2.55-1.05-4.11-1.85-.69-.37-1.33-.81-2.06-1.12-.71-.28-1.51-.89-2.14-.76-.66.12,1.39.62.9.87,1.11.71,2.43,1.21,3.71,1.83,1.27.61,2.52,1.36,3.3,2.37.44.61.68.1,1.17.48.29.13.01-.32-.14-.65-.17-.3-.17-.52.73.25.48.09,1.13.5,1.69.87.54.37,1.02.69,1.27.35-.23-.53-.62-1.15-.77-1.51-.16-.46-.1-.82-.25-1.25-.16-.41-.6-.92-1.82-1.32-.01,0-.14-.17-.32-.38-.18-.21-.4-.47-.61-.63-1.16-.98-2.47-1.62-3.73-1.86.06.84,1.85.9,2.44,1.57Z"/><path d="m205.28,17.4c.25.55.3.99.19,1.32-.14.42-.18.92-.26,1.42-.06.5-.12.98-.1,1.47-.01.21-.01.44-.02.66-.03.21-.04.43-.04.65-.05.4-.03.77.11.98.26.4.69.4,1.32-.16.61-.54,1.32-1.84,1.23-3.68-.07-.87,0-2.01-.27-3.02-.84-.86-1.04-.2-.93.87.07,1.1.39,1.97.65,2.8.05.15.07.57.01.94-.09.36-.22.65-.38.53-.27-.17-.81.35-.93-.17-.03-.15-.13-.28-.17-.45-.04-.17-.06-.38-.04-.72.03-.71.17-1.04.4-1.16.24-.11.45-.27.19-1.2-.29-.89-.7-1.24-.98-1.09Z"/><path d="m54.79,60.48c2.27.7,4.52.42,6.95.8,1.21.19,2.91.33,4.3.56,1.14.19,1.96.29,2.52,0-1.89-1.02-4.86-.88-7.28-1.22-3.6-.51-7.34-.66-10.74-1.79l-.33.18c.47.35,2.25.97-.55.6-.92-.12-1.48.08.07.45,1.68.16,3-.36,5.05.44Z"/><path d="m58.15,8.05c-.13-.58-.91-.74-2.53-.08-1.19.48-2.01.53-3.05.4-1.08-.14-2.68.82-3.75.44-2.29,1-4.99,1.04-7.46,1.67-.84.22-1.31.36-1.65.67,2.39-.02,4.86-.53,7.52-1.13,1.69-.39,3.42-.75,5.32-.87,1.66-.11,3.71-.72,5.6-1.09Z"/><path d="m168.13,5.81l-1.22-.15-1.76-.67-.77-.09-2.55.15c1.39,1.09,4.36,1.03,6.47,1.32,2.09.28,4.2.48,6.32.66l3.18.26,3.17.34,1.15-.03c-1.81-.9-3.83-1.33-6.13-1-1.82-.02-3.76.08-4.68-.93l-.82-.08-.59-.02c0,.14.01.2.03.26l.16.16-.39-.11-1.58-.05Z"/><path d="m129.7,62.09c1.62-.07,3.23-.1,4.84-.42,1.28-.13,2.52-.24,3.5-.09.86-.11,1.3-.16,1.73-.21,2.06-.2,4.02-.72,6.23-.78,1.15-.04,1.69-.57,1.98-.9-6.16.82-12.35,1.45-18.53,2.15l.25.25Z"/><path d="m86.39,64.58c-1.47.25-3.08,0-4.11-.29-2.61-.69-3.23-.28-3.84.29,4.34.45,8.7.94,13.07.57,1.06-.09,1.7.28,2.56.25,1.18-.05,3,.18,3.22-.43l-2.41-.06-3.96-.23-4.53-.12Z"/><path d="m171.98,55.47c0,.22.45.38-1.32.83-1.1.28-2.02.61-1.73.9,4.58-1.04,9.15-2.37,13.51-4.68l-.1-.15-.21-.06c-.08.05-.16.09-.26.12-.72.4-1.43.81-1.76.62-.13.06-.27.12-.41.18l-1.64.53c-.15.34-.68.58-1.6.74-.96.33-1.86.95-2.81,1-.32.02.07-.27.52-.49v-.12s-.6-.06-.6-.06c-1.02.09-1,.47-1.58.65Z"/><path d="m77.9,64.59c-1.72-.4-4.55-.78-1.79-1.44.5-.12.51-.41.74-.62-.82-.11-.53-.28-.57-.42l-1.11-.04c.32.38-1.12.43-1.19.74l.73.13c-.06.02-.17.05-.17.05-.2-.06-.39-.12-.59-.18-.96-.3-.34-.57-.52-.86-1.08-.51-2.21-.67-3.42-.32,1.93.44,2.44,1.02,2.9,1.6.87.37.47.6-.39.76-.83.15-1.73.18-2.79-.12-1.25-.36-2.44-.61-2.76.02,2.85.38,5.8.34,8.61.83,1.11.2,1.71.05,2.3-.13Z"/><path d="m49.73,60.04c-1.55-.37-.99-.57-.07-.45,2.8.37,1.02-.25.55-.6-.53.24-1.36-.15-2.03-.22.03.23-.53.44-.92.27-1.94-.81-3.5-.41-5.25-.84-1,.07-1-.17-1.02-.41-.89-.49-1.18-.29-1.5-.14.08.03.22.07.23.09.27.64,1.59.96,3.05,1.22,2.01.35,3.28,1.24,5.39,1.52.05,0,.21.34.32.53l2.14.69,1.13.38.21-.45c-2.47-.48-2.52-1.05-2.22-1.59Z"/><path d="m19.89,53.06c-1.09-.48-1.1-.93-1.71-1.42-.39-.31-.77-.63-.41-.68.28-.04.72.2,1.14.4.5.25,1.12.57,1.5.65.7.15,1.83.3,1.78.1-.13-.47-1.18-.53-1.8-.86-.38-.19-.69-.44-1.02-.68-.34-.5-.9-.46-1.34-.69-.79-.29-1.68-.56-1.63-.17.23,1.52-2.06.2-4.14-1.05.1.39,1.22.96,1.13,1.3.91.44,1.66.97,2.5,1.51.83.56,1.67,1.08,2.6,1.51,1.33.6,1.16.22,1.4.08Z"/><path d="m42.01,58.2c1.75.43,3.31.03,5.25.84.39.16.96-.04.92-.27-3.52-.69-7.02-1.38-10.53-2.13-1.76-.38-3.56-.96-5.23-1.57-1-.38-1.86-.56-2.78-.76-.51.57.65,1.08,2.28,1.34,2.54.37,4.78.88,6.7,2,.29,0,.57.01.86.02.32-.15.61-.35,1.5.14l1.02.41Z"/><path d="m86.39,64.58l4.53.12.05-.33c-.62-.02-1.16-.1-1.06-.3.1-.2.73-.18,1.29-.17.21-.16.23-.33.25-.5-1.12.06-2.13.03-2.24-.42-1.43-.24-2.92-.3-4.43-.28-.07.13-.05.27-.23.38-.76.49-1.39.94,1.57,1.13.95.06.34.25.27.38Z"/><path d="m81.46,2.76l-2.26.48.02.19.13.06-.13-.06c-.99-.08-1.36,1.32-2.72.38-.19.07-.56.16-.54.19.48.63-1.6,1.05-2.26,1.57.14.2.65.11,1.1.06.56-.37,1.52-.38,2.35-.5.63.05.94-.75,1.32-.27.41.52,1.4.05,1.99.12.95-.47,1.42-.3,1.79,0,.6.02,1.33.31,1.64-.23l.22-.32c-.7-.06-1.07-.33-2.04-.23-.67-.06-.44-.3-.52-.47-3.05-.02.33-.7-.1-.98Z"/><path d="m180.2,51.54c.96-.18,2.05-.46,2.98-.63,1.95-.26,4.98-2.21,5.88-3.55-1.17.76-2.52,1.51-1.9.63-2.35,1.22-4.76,2.29-6.96,3.55Z"/><path d="m81.56,3.74c-3.05-.02.34-.7-.1-.98.59-.2,1.21-.39,1.03-.67,1.75-.23,3.43-.91,5.11-.38.08.03.11.07.09.11-2.23.82-2.3,1.64-2.1,2.47l-1.45.15c-.7-.06-1.07-.33-2.04-.23.04-.2.05-.39-.52-.47Zm1.74-.79c-.37-.05-.7.14-.58.23.25.19-.86.71.87.53.86-.17.77-.3.13-.41-.13-.13-.14-.32-.42-.36Z"/><path d="m41.99,8.16c.52-.1,1.03.16,1.56-.26,1.18-.94,1.42-.38,1.9-.21.4-.02.93.02,1.2-.07,1.02-.35,1.98-.74,2.83-.42.7.26-.15.63-.74,1.01-1.05.66-1.95.64-2.93.5-.61-.09-1.59.04-2.02.29-1.49.85-2.3.51-3.3.47.5-.44,1-.88,1.5-1.31Zm6.38-.56s-.19.06-.2.08c-.02.05.03.09.04.14l.42-.15c-.08-.02-.16-.05-.26-.07Z"/><path d="m161.51,58.91c-2.25.54-4.66.85-6.62,1.68-.5.21-1.25.2-1.77.22-.95.02-1.57.18-2.04.49,2,.13,4.3-.49,6.46-1.03,2.79-.69,5.53-.81,8.27-1.86.4-.15.9-.28,1.05-.45-.65-.14-1.63.04-2.7.5-1.29.55-1.97.54-2.65.44Z"/><path d="m205.28,17.4c.28-.15.69.19.98,1.09.26.93.05,1.08-.19,1.2-.23.12-.37.45-.4,1.16-.01.35,0,.56.04.72.04.17.14.3.17.45.12.51.66,0,.93.17.16.12.29-.17.38-.53.06-.37.04-.79-.01-.94-.27-.83-.59-1.7-.65-2.8-.11-1.07.1-1.73.93-.87-.02-.44-.16-.85-.51-1.14-.25.34-.73.02-1.27-.35-.56-.37-1.21-.79-1.69-.87.26.53.43,1.02.22,1.22.4.47.77.96,1.09,1.49Z"/><path d="m31.58,11.48c-1.57-.04-3.08.2-4.33,1.25-.68.79-3.3,1.49-3.51,2.33l.39.52c.98-.14,1.81-.43,2.5-.94.09-.15-.31-.19.23-.43l.27.27c.17-.02.34-.06.52-.13,2.18-.75,1.44-1.62,3.46-2.35.44-.2.52-.37.47-.52Z"/><path d="m109.11,65.33l-.5-.27c-1.07-.13-2.56-.09-2.42-.68.04-.19-2.15-.8-3.53-.02-.43.25-1.12.35-2.06.32.04.04.06.09.07.13l-.04.49c2.79.2,5.57.52,8.48.03Z"/><path d="m135.87,63.71c.18-.42-1.06-.39-2.07-.36-2.17.07-4.69.05-6.56.43-1.3.28-2.18.35-3.45.42-.77.04-.33.31-.38.47,2.73-.07,5.4-.07,8.24-.6,1.23-.22,2.81-.25,4.22-.36Z"/><path d="m63.02,6.34l-1.03.19c-.52.34-1.25.68-1.07,1.03,2.83-.16,5.77-1.03,8.68-.86,1.17.07,1.43-.71,2.44-1.01-.09-.29-1.21-.38-1.45-.26-1.68.75-3.19.26-4.75.54-.86,1.23-1.89.1-2.81.37Z"/><path d="m16.36,16.72l-.79.36c-.31.6-.29.58.57.31.38-.13.91-.23,1.03-.16.43.23-1.07.77-1.17,1.14.41-.05.81-.12,1.23-.16l1.74-.61c1.06-.69,2.15-1.35,3.26-2-2.6.39-2.64.22.04-1.51-1.57-.44-2.33.49-3.13,1.26-.93.45-.98,1.57-2.77,1.36Z"/><path d="m12.26,48.67c2.07,1.25,4.37,2.57,4.14,1.05-.06-.39.84-.12,1.63.17.07-.67-1.18-.79-1.77-1.25-.73.22-1.39.62-3.4-1.28-.33-.31-.95-.69-1.22-.62-.3.08.12.47.6.82l.23.11-.22-.09v1.08Z"/><path d="m87.59,1.7c.08.03.11.07.08.11.28.26,2.03-.07,1.74.43.5.45,1.15.32,1.8-.09.57-.36,1.06-.76,1.99-.23.67-.16,1.19.3,1.8-.02.78-.41.1-.69-.61-.95-2.31.09-4.82-.25-6.82.75Z"/><path d="m121.9.51c.77.43,2.7.41,3.24,1.1.25.33,2.7-.24,4.03-.49.22-.04.36-.13.54-.19l.03-.54c-2.04-.44-3.96.22-5.98-.03l-1.49.05c-.2,0-.32.04-.37.1Z"/><path d="m171.13,54.65c.87.2,5.89-1,7.37-1.78,1.46-.74.37-.66.59-.99-.93.43-1.84.96-2.85,1.05-.22.02-.91.22-.94.25-1.09.85-2.8,1-4.16,1.47Z"/><path d="m201.89,10.52c-.59-.68-2.39-.73-2.44-1.57-.64-.65-1.51-.81-2.34-.97-1.49,0-3.49-.9-5.15-.96.25.38.12.71,1.86.84,1.05.09,2.47.62,3.7,1.06l.76.05.17.19c-.3-.08-.6-.15-.89-.22.93.53-2.5.35,1.26,1.34.25-.2-.05-.8,1.38-.15.4-.08,1.59.74,1.72.39Z"/><path d="m136.97,63.17c-.03.08.18.15-.3.22,3.45-.29,7.14-.29,9.98-1.63l-.11-.17-2.24.33c-2.43.45-4.87.86-7.33,1.24Z"/><path d="m191.96,7.01c1.65.06,3.66.96,5.15.96.03-.63-1.38-.62-2-.86-1.2-.47-2.48-.8-3.76-1.02-.64-.12-1.3-.2-1.94-.26-.63-.05-1.25-.1-1.88-.15.17.55.89.76,1.75.88.88.13,1.91.21,2.69.45Z"/><path d="m151.35,2.05c1.77.19,3.79.09,4.92.91.43.31,1.09.21,1.23-.06.1-.2-.03-.45.73-.49.29-.56-1.21-.55-2-.62-1.77-.2-3.58-.32-5.37-.47.13.24-.34.49.49.73Z"/><path d="m142.16,3.48c-1.23-.24-2.5-.49-3.41-.03-.59.3-.92.09-1.42-.07-1.7-.54-3.4-.63-5.03-.12,1.58.58,3.58.56,5.53.58,1.44.02,2.86.03,4.29.05l.04-.41Z"/><path d="m2.98,33.34c-.18-.16-.4-.52-.54-.52-.13,0-.3.4.08,1.69.18.66.35,1.14.35,1.59.04.44.06.81.06,1.23.03.4-.52.41.24,1.36.61.76.75.39.89.09.14-.29.32-.5.49-.74-.89-1.47-1.49-3.08-1.57-4.69Z"/><path d="m103.01.71c-.17.56-.17,1.05,2.26.63l1.71-.42,1.08-.05c.46-.2,1.1-.18,1.72-.18l.64-.42c.05-.38-.71-.26-1.32-.2-2.04.19-4.07.43-6.1.65Z"/><path d="m17.23,18.22c-.41.04-.82.1-1.23.16-1.43.74-2.69,1.87-4.2,1.96-.39.03-1.12.78-1.03.79.35.05-1.36,1.37.05.75,1.99-1.43,4.66-2.02,6.41-3.66Z"/><path d="m103.63,2.51c-.61.18-1.52.55-1.79.52-1.06-.14-.07-.36.28-.57.24-.14-.09-.23-.51-.21-.49.02-1.01.11-1.01.29,0,.27.16.53.25.8,2.07.41,4.38.24,6.69.07l.06-.47s-.04-.1-.02-.15h-.62c-1.48.26-2.89.45-3.33-.28Z"/><path d="m31.11,12c-2.02.73-1.28,1.6-3.46,2.35,1.27.11,2.51.13,3.81-.97.13-.17.18-.42.41-.5,3.55-1.21.81-.82-.12-.86-.05.15.09.29-.56.45l.05-.33s-.09-.09-.13-.14Z"/><path d="m6.94,44.93c-.16-.61-.6-1.56-1.56-2.07-.93-.47-1.79-1.62-2.53-2.74-.37-.56-.67-1.15-1.03-1.61-.31-.49-.64-.89-1.04-1.12.62,1.67,1.6,3.06,2.64,4.33,1.08,1.22,2.26,2.3,3.51,3.2Z"/><path d="m50.61,61.71l-2.14-.69-1.12-.34c-.07.42-1.01.21-1.93.02-2.08-.82-4.1-1.16-6.11-1.09.14.22.69.52,1.1.55,3.35.27,6.9,1.64,10.19,1.55Z"/><path d="m191.44,9.53c.03-.6-.25-1.17-2.44-.99-1.66.17-3.55-.95-5.19-.55,1.1.57,2.38.84,3.7,1.01,1.35.17,2.66.25,3.92.53Z"/><path d="m122.74,62.48c.79.48,2.3.74,3.96.93-.36-.49.45-.98,1.54-1.45-1.16-.18-2.17.13-3.22.29-.54.45-1.48.23-2.29.23Z"/><path d="m167.73,3.13c1.89.97,5.99,1.39,8.56.89-2.39-.62-4.88-.61-7.32-.89-.1.36-.68.16-1.24,0Z"/><path d="m53.28,6.77c.65-.14,1.09-.3,1.03-.54h-.74s-.19-.17-.19-.17l.54-.03.48.15c.67-.11.97-.29.99-.5-2.07.26-3.96-.03-6.16.74.32.62,2.24.34,3.56.42l.5-.07Z"/><path d="m31.79,57.26c-2.52-.76-4.99-1.58-7.3-1.85.73.6,1.48,1.01,2.84,1.14,1.72.14,3.6,1.12,5.43,1.46v-.41c-.32-.11-.65-.22-.98-.33Z"/><path d="m145.01,2.74c2.33.03,3.63-.61,2.93-1.51-.76-.07-1.52-.1-2.28-.16.32.43-1.37.54-1.07.96.65.23.36.47.41.7Z"/><path d="m22.23,15.61c-1.1.65-2.19,1.31-3.26,2,1.86-.43,3.68-.86,5.16-2.02l-.39-.52-1.51.54Z"/><path d="m85.58,4.29l-1.45.15-.22.32c1.04-.04,2.17-.03,3.2-.13,1.03-.09,2.05-.24,3-.61-.65-.26-1.96-.29-2.24-.69-.4.11-.73.21-1.07.31-.06.26-.08.55-1.21.65Z"/><path d="m142.16,3.48l-.04.41,2.81.16c.6-.4.59-.84.08-1.31-1.37-.12-1.03-.44-1.04-.73-.21-.16-.51-.31-1.05-.27-.63.05-.27.24-.16.38.4.51,1.19,1.06-.6,1.36Z"/><path d="m61.61,4.88l-.02-.38c-1.92.25-4.11.02-5.61,1.08.34.3.03,1.07,2.04.01.87-.46,2.55-.19,3.59-.71Z"/><path d="m51.95,61.63l-.21.45c2.13.67,4.16.63,6.21.71l-1.01-.48c-1.1-.31-1.07-.64-1.19-.96-.15-.03-.3-.06-.46-.09-.1.64-.52,1.15-3.35.36Z"/><path d="m76.85,62.53c1.49.09,2.98.18,4.47.27.96.07,1.69.09,1.8-.24-1.96-.53-4.2-.26-6.25-.53-.02.16-.03.33-.02.5Z"/><path d="m56.94,62.32l1.01.48c1.58.43,3.22,1.03,4.62.44-1.43-.38-2.93-.7-4.53-.99-.76-.13-1.03-.14-1.1.07Z"/><path d="m97.3.95c.07.05.09.12.2.16.83.26-2.26.91.1.87,1.7,0,2.76-.62,2.58-1.25-1-.04-2.08-.31-2.89.22Z"/><path d="m161.51,58.91c.68.1,1.36.11,2.65-.44,1.07-.46,2.05-.64,2.7-.5.38-.13.89-.25.99-.42l-1.07-.16c-1.74.35-3.41.91-5.13,1.32l-.14.2Z"/><path d="m187.16,47.99c-.62.88.73.13,1.9-.63.9-.5,1.39-.94,1.62-1.35l-.2-.24c-.5.42-1.04.79-1.59,1.17-.54.38-1.12.73-1.74,1.04Z"/><path d="m115.97,64.79c-2.05.21-4.38.02-6.2.53,2.08.34,4.14-.15,6.2-.21v-.32Z"/><path d="m5.68,26.43c-.61-.34-1.1.12-1.46.81-.38.7-.58,1.59-.87,2.15.29.04.45.5.98-.9.3-.7.83-1.41,1.35-2.06Z"/><path d="m99.72,3.43c-.21-.27-.02-.72-1.3-.64-1.72.1-.65.72-1.63,1.01,1.4.42,1.96-.24,2.93-.36Z"/><path d="m161.83,5.04l2.55-.15c-1.58-.22-1.63-.64-1.82-1.05-.11-.24-.47-.45-1.22-.52-.28-.03-.73.02-.83.09-.27.21.34.32.81.46,1.71.5-1.47.59.01,1.08.16.04.32.07.5.08Z"/><path d="m190.58,47.7c-.44.37-1.1.59-1.69.86-.6.24-1.13.53-1.33,1.08.32.07.48.1.87-.13.39-.22.99-.75,2.16-1.8Z"/><path d="m115.54,2.27c1.49.15,1.39.6,1.73.96,1.16.02,2.44.3,3.39-.16l-.04-.22c-.84-.1-2.3.08-2.44-.28-.3-.82-1.49-.47-2.64-.3Z"/><path d="m112.09,3.34c.71-.6-1-.72-1.83-1.01l-.88.38-.68.77c1.16.09,2.18-.39,3.38-.14Z"/><path d="m8.39,43.26l.35-.39c-.67-.79-1.28-1.59-2.16-2.29-.18.18-.78.18.34,1.25.83.82,1.14,1.26.85,1.53.47.25.48,0,.62-.1Z"/><path d="m128.24,61.96c-1.08.47-1.9.96-1.54,1.45,1.13-.43,2.8-.78,3-1.32l-.25-.25-1.21.12Z"/><path d="m151.35,2.05c-.83-.24-.36-.49-.49-.73l-1.69-.2c-.31.61-.39,1.2,2.16,1.51l.02-.58Z"/><path d="m32.77,57.6v.41c1.06.32,2.02.44,2.86.42-.39-1.34-1.64-1.01-2.86-.82Z"/><path d="m157.95,57.93c.01.09-.07.21.05.26.35.16-1.15.9.57.56,1.52-.32.13-.42.3-.67.05-.07.55-.21.84-.32-.41-.09-.77-.19-1.76.17Z"/><path d="m122.74,62.48c.81,0,1.75.21,2.29-.23h-1.24c-.47.04-.87.04-1.09-.07l-2.28.27.49.14,1.84-.1Z"/><path d="m200.59,16.72s-.08,0-.08.05c0,.25-.66-.33.09.85.25.4.99,1.01.64.14l-.66-1.04Z"/><path d="m73.98,62.81c.06-.31,1.5-.35,1.19-.74l-1.73-.12c.18.29-.44.56.54.86Z"/><path d="m204.19,15.9c.21-.2.04-.69-.22-1.22-.9-.77-.9-.55-.73-.25.15.33.43.78.14.65.03.1.11.2.22.31.14.16.3.31.44.48.09.1.14.11.14.03Z"/><path d="m121.09.69l1.14-.18c-.5-.42-1.88-.28-2.74-.48l-.06.37.05.38c.31.02.54.02.77.02.09-.21.47-.15.85-.1Z"/><path d="m13.39,49.96c.1-.34-1.03-.91-1.21-1.31l-.85-.39.48.62c.45.44.97.8,1.58,1.08Z"/><path d="m82.25,4.98c-.37-.3-.84-.47-1.79,0,.49.14.73.6,1.79,0Z"/><path d="m100.01,64.83l-1.79.16c-.09.43.91.33,1.79.29v-.45Z"/><path d="m77.15,5.13c-.84.12-1.8.13-2.35.5,1.25.24,1.87-.07,2.35-.5Z"/><path d="m196.61,12.04c.33.48.81.93,1.4,1.4-.41-.48-.47-.98-1.4-1.4Z"/><path d="m120.9,62.58l-.49-.14-1.13.06.06.16c.52.15,1.04.15,1.56-.08Z"/><path d="m128.48,3.05s.01-.07.08-.1c-.08.02-.17.04-.26.04-.06.13-.11.27-.17.4l.35-.35Z"/><path d="m122.69,62.17c.22.12.62.11,1.09.07,0-.26-.38-.28-1.09-.07Z"/><path d="m147.14,4.2c-.05-.14.06-.34-.57-.35-.46,0-.38.15-.05.26l.62.09Z"/><path d="m119.43.4l.06-.37c-.59.06-.99.18-1.18.37h1.12Z"/><path d="m122.27.41l1.49-.05c-.62-.25-1.13-.24-1.49.05Z"/><path d="m76.83,62.52l.05-.49c-.37-.06-.57-.03-.59.08.04.14-.25.31.55.41Z"/><path d="m27.13,14.47l-.27-.27c-.55.24-.15.29-.23.43.18-.02.35-.08.51-.17Z"/><path d="m167.73,3.13c.55.16,1.13.36,1.23,0-.51-.11-1.01-.22-1.23,0Z"/><path d="m204.05,15.88c-.13-.17-.29-.32-.44-.48l.09.44c.12.01.23.03.34.05Z"/><path d="m161.65,58.71c1.72-.41,3.39-.97,5.13-1.32.59-.16.83-.32.85-.46l-.03-.41c-.94.24-1.29.19-1.01-.1.13-.14.32-.32-.31-.18-.37.08-1.13.38-1.11.41.26.54-2.24,1.17-3.14,1.73-.18.12-.25.22-.37.33Z"/><path d="m195.23,43.75c.97-.75,1.93-1.57,2.5-2.62-1.38,1.49-.61-.04-1.66.91-.58.49-1.15.99-1.77,1.42.4.02,1.48-.62.93.29Z"/><path d="m138.04,61.57c-.98-.15-2.21-.04-3.5.09.06.16-.1.39.22.48.44.12-1.23.54.31.41,1.07-.09.83-.32.69-.51-.06-.09-.1-.39.62-.17,1.33.41.98-.32,1.65-.3Z"/><path d="m178.06,53.76l1.64-.53c.16-.21,1.46-.9.2-.55-1.33.35-1.67.75-1.84,1.08Z"/><path d="m174.17,55.01c-.45.23-.84.51-.52.49.95-.05,1.85-.67,2.81-1-.21-.31-1.41.26-2.29.51Z"/><path d="m144.31,61.93l2.24-.33c-.16-.23-.88-.25-1.77-.1-.69.12-.43.29-.46.43Z"/><path d="m119.3,63.11c-.16.02-.32.04-.48.05l-.05.29c.68-.06,1.53-.04,1.82-.32l-1.28-.02Z"/><path d="m180.11,53.05c.34.19,1.05-.22,1.76-.62l-.16-.21c-.54.28-1.07.56-1.61.84Z"/><path d="m169.37,55.44c-.12.01-.24.02-.36.03l-.28.21c.14-.03.32-.04.43-.08.1-.04.14-.1.21-.15Z"/><path d="m139.77,61.36l-1.3.16c.17.06.31.18.53.17.64-.04.61-.21.77-.33Z"/><path d="m173.57,54.82l.6.06c.75-.46.1-.28-.6-.06Z"/><path d="m181.72,52.22c.28-.14.7-.29.65-.39-.01-.02-.23.02-.34.07-.48.21-.3.24-.32.32Z"/><path d="m167.59,56.51l.03.41c.67-.33.69-.47-.03-.41Z"/><path d="m152.46,59.67c.02.06.11.04.19.03-.02-.06-.11-.04-.19-.03Z"/><path d="m117.61,63.5l-.02.16,1.16-.21c-.37.02-.76.03-1.14.05Z"/><path d="m171.97,55.48h-.14c.05,0,.1,0,.14,0Z"/><path d="m182.13,52.3l.21.06c.42-.27.31-.27-.21-.06Z"/><path d="m152.37,2.89c-.71.24-1.8.42-1.05.93.32.22.71.43,1.41.5,1.04.12,1.18-.14,1.34-.38-.52-.34-.77-.66-.27-.96.23-.14.19-.3-.43-.37-.74-.09-.87.1-1,.27Z"/><path d="m200.18,10.13c-1.43-.65-1.13-.05-1.38.15.49.27,1.27.51,1.16.88-.05.19.32.62.77.82.47.19.97.26,1.23.21.42-.09-.48-.52-.71-.74-.43-.47-.71-.88-1.07-1.31Z"/><path d="m171.32,5.65c.92,1.01,2.86.9,4.68.93-1.25-.64-2.72-1.06-4.68-.93Z"/><path d="m169.91,5.55l.59.02c.1-.04.17-.1.32-.11,1.11-.1,1.86-.26.79-.8-.28-.14-1.07-.35-.95-.15.27.47-3.3.22-.74,1.04Z"/><path d="m157.43,4.59l1.62.25c.04-.25,1.43-.48,0-.74-1.06-.2-1.84.05-1.62.49Z"/><path d="m165.15,4.98l1.76.67c-.02-.23.98-.34.17-.63-.64-.22-1.37-.19-1.93-.04Z"/><path d="m196.57,9.57c-.28-.18-.44-.33-.63-.39-.2-.07-.42-.05-.63-.08.15.11.27.25.45.32.18.07.43.09.8.16Z"/><path d="m168.13,5.81l1.58.05c.08-.02.15-.03.23-.05l-.05-.19c-.71-.01-1.73-.22-1.76.19Z"/><path d="m155.98,4.47c.45.19.9.4,1.4.12l-1.4-.12Z"/><path d="m193.07,9.44c-.14-.08-.22-.08-.3-.07.05.03.1.06.3.07Z"/><path d="m4.08,24.31c-.44.51-.96,1.11-1.01,1.58.14.29-.16.78-.49,1.34-.32.56-.65,1.19-.65,1.63,0,.31-.89,1.11-.58,1.68.17.32.62-.59,1.03-1.05.4-.48.62-.86.84-1.68.28-1.02.93-2.14,1.99-2.43.62-.17,1.13-1.04,1.48-1.53.61-.85-.11-.42-.66-.12-.87.47-1.73,1.02-1.95.58Z"/><path d="m8.39,43.26c-.15.1-.15.35-.62.1-.25.09-1.29-.85-1.02-.14.1.24.43.71.72.95.95.79.56-.02.89.02.18.01.35,0,.57.07.44.15,1.49.86,1.26.38-.26-.54-1.22-.78-1.8-1.37Z"/><path d="m5.02,40.84c-.05-.11-.11-.22-.16-.32-.12-.05-.22-.11-.33-.16.07.13.14.29.23.37.08.08.17.07.26.11Z"/><path d="m13.2,17.88l.51-.27c-.17.09-.34.18-.51.27Z"/><path d="m202.93,24.91c.05-.12.22-.18-.06-.9-.07.12.03.46.06.9Z"/><path d="m37.06,9.71l-1.14.25c.04.23.38.5.06.67-.57.31-1.09.56-.82.78.13.11.45-.03.57-.13.43-.36,2.08-.67,1.53-1.07-.18-.13-.14-.34-.2-.51Z"/><path d="m40.48,9.47c-.38-.08-.46-.33-1.27-.17-.11.02-.36.22-.32.27.22.26.98.02,1.58-.1Z"/><path d="m53.28,6.77l-.5.07c.02.14-.05.31.6.22l-.1-.29Z"/><path d="m31.24,12.14l-.05.33c.65-.17.51-.31.56-.45l-.52.13Z"/><path d="m33.79,10.88l.26.19c.5-.27-.06-.16-.26-.19Z"/><path d="m196.07,42.04c1.06-.96.28.57,1.66-.91.49-.56.76-1.01.92-1.39.34-.78.74-1.71-.38-.68-1.82,1.53-1.43,2.01-2.2,2.98Z"/><path d="m201.33,34.2c-.31.75-1.17,1.73-.83,1.86.11.04.48-.13.86-.98.37-.83.72-2.11.62-2.19-.21-.19-.4.97-.65,1.32Z"/><path d="m201.7,35.39c.4-.53.75-.82.93-1.27.12-.28.29-.67.4-1.01.09-.34.13-.63.04-.68-.11-.06-.31.28-.55.87-.13.32-.24.64-.36.98-.14.34-.29.7-.46,1.11Z"/><path d="m203.1,27.69c.07-.07.2-.07.17-.66,0-.18-.1-.28-.15-.42-.01.36.03.72-.02,1.08Z"/><path d="m200.13,37.11c.07-.18,0-.08-.06.01h.06Z"/><path d="m202.9,28.74l.02-.25.02-.25c-.07.16-.09.33-.04.5Z"/><path d="m130.83,2.65c-.11-.31-.69-.45-1.52-.37-1.05.1-.65.43-.75.67,1.02.06,1.08-.53,2.28-.3Z"/><path d="m143.97,2.01c.01.28-.33.61,1.06.73-.07-.24.22-.48-.43-.71l-.63-.02Z"/><path d="m130.84,2.64l.12.08s-.09-.05-.12-.08Z"/><path d="m31.79,57.26l.99.34c-.14-.18.44-.27-.36-.51-.46-.13-.62.01-.63.17Z"/><path d="m45.43,60.69c.92.19,1.86.4,1.93-.02-.7-.04-1.48-.13-1.93.02Z"/><path d="m115.54,2.27c1.15-.17,2.34-.52,2.64.3.14.37,1.6.19,2.44.28-.46-.42-.82-.86-1.39-1.27-1.22-.86-3.49-.97-5.32-.22-.23.09-.34.24-.62.29-1.05.2-1.11.83-.06,1.06q.43.09.68-.32c.11-.19.08-.45.87-.47.24,0,.51.22.77.34Z"/><path d="m106.96,2.79h.62c1.07-.71-.63-1.23-.6-1.87l-1.71.42c-.14.59,2.13.82,1.69,1.45Z"/><path d="m109.78.69c-.62,0-1.27-.03-1.72.18.02.03,0,.07.06.08.77.19.64.82,1.58.69,1.38-.18-.17-.62.08-.95Z"/><path d="m112.83,1.22c.16-.06.36-.11.34-.14-.05-.1-.18-.2-.27-.3-.07.05-.21.11-.21.16,0,.08.08.17.14.27Z"/><path d="m121.09.69c-.38-.05-.76-.11-.85.1.36.03.86.2.85-.1Z"/><path d="m119.47.78l-.24.1c.1-.02.21-.05.24-.1Z"/><path d="m22.23,15.61l1.51-.54c.22-.84,2.83-1.54,3.51-2.33-.16-.2-.03-.59-1.27-.16.63.16-.22.62-.75.91-.65.35-1.07.2-1.39.11l-1.57.51c-2.68,1.72-2.64,1.89-.04,1.51Z"/><path d="m23.83,13.59c.32.09.74.24,1.39-.11.54-.29,1.39-.74.75-.91-.84.29-1.95.48-2.14,1.02Z"/><path d="m16.36,16.72c1.8.21,1.85-.92,2.77-1.36-1.29.15-2.06.76-2.77,1.36Z"/><path d="m13.19,17.88l.53-.28c-.25-.06-.43.03-.53.28Z"/><path d="m85.58,4.29c1.13-.11,1.14-.39,1.21-.65-.21-.35.38-.33,1.01-.29.31-.4.02-.84,1.62-1.1.29-.49-1.46-.17-1.74-.43-2.23.82-2.3,1.64-2.1,2.47Z"/><path d="m103.61,2.5l.71-.08c-.41-.15-.5.02-.71.08Z"/><path d="m91.4,63.92c-.28.14-.35.29-.43.45,1.15.02,2.29.05,3.43.07,1.03,0,1.06-.21,1.1-.42-.61-.05-1.36.02-1.72-.22l-2.38.12Z"/><path d="m107.43,63.51c-.02-.16-.09-.34-.72-.36-.28,0-.66.14-.99.22.41.18,1.08.14,1.71.14Z"/><path d="m93.78,63.8c.36.23,1.11.17,1.72.22-.35-.24-1.05-.21-1.72-.22Z"/><path d="m100.6,64.68c0-.09.54-.18.03-.27-.05-.01-.21,0-.26.02-.33.11-.14.19.23.26Z"/><path d="m63.02,6.34c.93-.28,1.95.86,2.81-.37.05-.8-1.95-.11-2.92-.16l.11.53Z"/><path d="m74.75,4.28l-.23.07c.07-.02.14-.05.23-.07Z"/><path d="m62.91,5.81l-.13-.06s.09.04.13.06Z"/><path d="m117.61,63.5l1.15-.05.05-.29c-.81,0-1.2.12-1.21.34Z"/><path d="m51.95,61.63c2.83.8,3.25.28,3.35-.36l-.51-.8c-2.06-.8-3.38-.28-5.06-.44-.3.54-.25,1.11,2.22,1.59Z"/><path d="m79.47,63.3l.25.04c0-.08-.1-.08-.25-.04Z"/><path d="m73.97,62.81c.19.06.39.12.59.18,0,0,.11-.03.17-.05-.24-.04-.49-.08-.75-.13Z"/><path d="m42.01,58.2l-1.02-.41c.03.23.03.48,1.02.41Z"/><path d="m90.97,64.37l.24-.47c-.56-.01-1.18-.04-1.29.17-.1.21.44.28,1.05.3Z"/><path d="m82.08,4.21c.04-.2.05-.39-.52-.47.08.18-.15.41.52.47Z"/><path d="m79.22,3.42l.13.06s-.09-.04-.13-.06Z"/><path d="m83.73,3.31c-.13-.13-.14-.32-.42-.36-.37-.05-.7.14-.58.23.25.19-.86.71.87.53l.13-.41Z"/><path d="m83.73,3.31l-.13.41c.85-.17.77-.3.13-.41Z"/><path d="m48.63,7.67c-.09-.02-.16-.05-.26-.07-.01,0-.19.06-.2.08-.02.05.03.09.04.14l.42-.15Z"/><path d="m12.25,47.59l.22.09c-.08-.04-.16-.08-.22-.09Z"/><path d="m197.54,8.94c.3.07.6.13.89.22l-.17-.19c-.25-.02-.51-.04-.73-.02Z"/><path d="m53.57,6.23h.74c-.07-.09-.23-.15-.39-.2l-.35.2Z"/><path d="m87.79,3.34c-.63-.04-1.22-.06-1.01.29l1.01-.29Z"/>
                  </g>
                </mask>
              </defs>
              <path class="mask" d="m205.55,24.3c3.1-3.36,1.44-8.33-2.29-11.27-4.46-3.51-10.45-4.97-14.08-5.53C128.28-1.84,85.94,3.35,85.94,3.35c-11.07,1-63.31,5.98-79.06,20.07-1.42,1.27-4.7,4.28-5.15,8.48-.91,8.4,10.15,15.1,14.61,17.8,31.78,19.26,153.31,21.39,180.11-8.03,2.25-2.47,8.16-8.96,6.77-17.24-1.85-10.98-15.34-17.82-19.49-19.77"
                    mask="url(#path-mask)" stroke="black" stroke-width="2" fill="none"
                    stroke-dasharray="483.3197937011719" stroke-dashoffset="483.3197937011719">
              </path>
            </svg>
        