
            <svg xmlns="http://www.w3.org/2000/svg">
              <defs>
                <mask id="path-mask">
                  <g fill="white">
                    <path d="m459.66,58.77c3.5-1.39,1.18-.78,1.82-1.19.85-.29,1.72-.55,2.56-.86,2.11-.69,4.55-1.53,6.54-2.25,2.05-.73,4.88-2.08,7.43-3.68,2.56-1.6,4.81-3.47,5.97-4.77,1.81-1.53,2.76-2.71,3.28-3.56,1.03-1.17,2.08-2.84,2.67-4.58.64-1.73.69-3.49.66-4.7.15-.67-.61-3.45.31-1.22.25.83.47,1.75.44,2.81.02,1.06-.22,2.26-.75,3.55-.89,2.15-2.13,3.82-2.82,4.91-.45.56-.95,1.08-1.43,1.59-1.79,2-4.97,3.71-6.41,5.22-.35.22-.85.52-1.26.78-.42.25-.75.45-.76.46-1.54,1.48-5.95,3.61-9.84,5.15l-.11-.09c1.04-.48.81-.42-.39.05-.19.08-.39.16-.6.25l-.19-.12c.66-.28,1.63-.65,1.59-.72,0-.02-.49.15-.74.25-1.11.46-.77.39-.87.48-1.27.54-2.52,1.12-3.81,1.6-.31.12-.63.24-.96.36.45-.27,3.59-1.52.75-.6-3,.98-3.95,1.49-4.51,1.85-.51.36-1.77.82-3.82,1.37-.27-.19-3.16.77-5.19,1.35l.08-.11c1.86-.72.38-.26-1.28.17-2.28.44-2.41.76-3.81,1.15l-.3.04.33-.05c-.09.18.81.18-3.29,1.15-2.55.62-4.72,1.18-4.22,1.32l-2.53.62-2.29.2c1.38-.31,1.97-.53,2.06-.64,1.63-.48,1.75-.6.11-.33-2.2.5-2.95.55-2.19.23.35-.16.85-.36-.61-.06-.43.09-1.1.24-1.66.38-.28.07-.53.14-.72.18-.18.05-.29.08-.29.09.18.18-1.19.59-2.88,1.03-1.7.42-3.72.89-4.83,1.24-.46.14-.64.25-.95.37l-.38.2c-5.23,1-10.76,1.82-15.44,2.9-1.18.27-2.87.44-4.07.55-2.16.2-3.61.46-4.75.81-3.39.42-6.79.84-10.19,1.21l-.2-.12c-.31-.17-1.95-.05-4.02.24-1.6.22-1.05.31-1.16.43-5.65.79-11.3,1.47-17.24,2.17l.24.02c-.07.07.4.1-.73.24-.31.12-.42.25-1.88.38.48-.37-2.37-.18-4.68-.02-2.49.18-5.18.37-7.8.56-2.62.18-5.15.39-7.32.68-3.01.39-5.04.6-7.98.79-1.78.12-.78.3-.91.44l-8.56.65-8.57.56v-.28c1.13-.23.85-.36.28-.5-.98-.25.47-.48,3.53-.64l2.69-.3c1.61-.1,3.55-.2,4.25-.47l-2.96.13c-.38-.11-2.14-.14.12-.39,1.19.07,2.39,0,3.61-.25l4.25-.3c1.78.32,5.25.39,9.05.32,2.65-.51,6.54-1.02,7.06-1.49,3.74-.25,7.46-.54,11.22-1.01.1.13-.3.34.44.37.98.04-2.91.62.64.3,2.46-.22,1.96-.38,1.68-.52-.13-.07-.17-.31,1.45-.23,2.97.13,2.3-.42,4.83-.61.39.02.68.1,1.19.06,1.47-.13,1.44-.26,1.83-.39,4.77-.46,9.37-1.21,14.45-1.65,2.64-.23,4-.75,4.75-1.08,7.77-1.01,15.51-2.15,23.23-3.47,0,.07-.24.19.02.2.74.05-2.91,1,1.09.33,3.54-.62.44-.37.92-.62.14-.07,1.31-.31,2.01-.47,6.47-1.39,13.49-2.74,20.18-4.3,1.96-.42,5.03-1.49,6.66-1.57.91-.09,4.26-.8,7.82-1.73,3.56-.91,7.3-2.11,9.08-2.78Zm-21.96,5.9l-.71.26c.33-.07.73-.13.98-.2.25-.07.36-.13.53-.2-.28.05-.54.1-.81.15Zm-38.3,7.55c-.15.02-.35.04-.53.06.03.04.24.01.53-.06Z"/><path d="m387.06,3.5c4.4.18,8.75.53,13.1.9l6.51.58c2.17.22,4.34.45,6.51.67,1.06,1.34,6.74,1.15,10.36,1.65.7.43.56.87,4.48.86,1.19,0,2.63.09,4.15.22,1.52.17,3.12.34,4.63.51,2.4.43-5.18.97,3.73,1.32,1.29.19,3.13.23,3.26.69.07.23,1.29.64,2.45.69,1.19.05,2.3-.09,2.75-.27.73-.29-1.56-.37-2.25-.56-1.37-.36-2.33-.76-3.47-1.14.74-.22,3.91.29,3.79-.18,1.87.9,8.84.75,8.71,1.68-.06.46-2.89.69-4.14,1.12-1.29.44-6.57-.03-10.74-.6-1.88-.26-3.65-.66-5.52-.9-1.81-.24-3.99-.86-5.36-.61-1.46.25,3.57.55,2.6.92-2.91.04-5.95-.09-9.27-.68-.18-.74-1.01-1.35-6.08-1.19-3.77.13-8.38-1.34-12.04-.9l-1.39-.08-2.61-.42c-4.36-1.09-9.11-1.55-14.31-1.27-3.02-.78-6.46-1.37-10.95-1.16l-1.9-.09c.23-.05.38-.12.7-.14,2.53-.13,4.23-.33,1.66-.94-.67-.16-2.53-.39-2.22-.16.72.54-7.57.3-1.53,1.3-1.64,0-4.03-.23-4.03.24l-2.84-.17c-.09-.26,2.2-.4.28-.73-1.52-.26-3.19-.23-4.45-.08l-1.79-.12c-3.67-.27-3.88-.76-4.38-1.23-.29-.27-1.15-.54-2.91-.6-.65-.02-1.69.05-1.89.13-.59.25.83.36,1.95.5,4.04.54-3.29.71.22,1.24-.9.4-3.16.29-5.29.23l-.02-.3c.05-.29,3.23-.59-.12-.85-2.48-.19-4.23.11-3.75.62l-3.26-.12-4.49-.58c-1.25-.38-1.87-.75-.78-1.09.5-.16.38-.34-1.05-.41-1.72-.09-2,.12-2.27.31l-2.42-.29-.04-.65c4.1.2,8.74.07,11.46,1,1.03.36,2.56.23,2.82-.09.19-.23-.13-.51,1.61-.58,7.14-.4,14.47-.05,21.97.76,4.53,1.1,14.06,1.48,19.83,1.03Zm46.43,5.96c-.48-.05-.96-.02-1.44-.01.4.1.75.26,1.2.32.46.06,1.01.04,1.89.06-.75-.18-1.2-.33-1.65-.38Z"/><path d="m31.43,63.02c3.32.79,4.75,1.52,6.37,2.28.81.37.14.67,2.84,1.16,2.18.39,1.76-.05,1.42-.42-.32-.36-.46-.68-.68-1.01,2.61.6,5.24,1.13,7.86,1.67-.03.28-1.03.48,2.55,1.19,2.71.51,3.91.93,3.74,1.29-.34.16-3.51-.43-2.02.2.53.22,1.75.6,2.58.75,2.77.5,1-.21,1.65-.28.36-.05.63-.12,1.16-.11,1.03,0,3.95.45,2.9.01-1.2-.51-3.37-.45-5.26-.88l.11-.53c7.51,1.32,14.78,2.7,21.96,4.08-1.27.41-2.14.96-8.28-.51-1.01-.25-2.67-.5-3.13-.34-.49.17.78.45,2.19.73.41.38.82.76,1.05,1.14l-2.08-.19,1.62.53c-4.99-.45-9.58-1.36-13.81-2.66-1.05-.58-3.16-1.43-5.49-1.53-2.22-.13-5.22-.86-8.04-1.55-2.82-.69-5.46-1.35-7.02-1.19-4.08-1.37-8.49-2.43-12.67-3.92.38-.57-2.78-1.75-5.48-2.65-2.41-.8-3.77-1.48-5.4-2.5.43-.12,1.6.42,2.91.99,1.31.56,2.74,1.18,3.64,1.33.66.12,2.58,1.46,3.66,1.39.66-.04-1.34-.99-2.53-1.66-1.21-.7-2.2-1.12-4.03-1.69-2.3-.7-4.93-1.83-6.43-3.48-.9-.97-2.91-2.06-3.99-2.9-.93-.73-1.07-.77-.89-.44.18.33.73.97,1.22,1.49,1.55,1.63,3.35,3,2.73,3.19-.45-.19-.88-.43-1.32-.64-.85-1.05-2.32-2.22-3.72-3.87-.7-.81-1.38-1.77-1.84-2.88-.23-.55-.41-1.14-.49-1.75-.07-.3-.04-.61-.05-.91,0-.3-.02-.6.05-.89.08-.92.57-2.35,1.16-3.25.63-.87,1.13-1.33,1.08-.65-.02.15.69-.82,1.57-1.71.42-.46.89-.9,1.24-1.23.35-.35.59-.6.6-.65.01-.49,1.14-1.29,2.72-2.2l1.17-.65c2.13-1.33,4.73-2.76,4.11-1.64-.94.93-.91.86,1.04.15.86-.31,2.02-.68,2.26-.63.79.11-2.65,1.4-3.05,1.92-1.67.79-3.29,1.77-4.84,2.7-1.55.94-2.97,1.87-4.37,2.62-.35.2-.93.74-1.31,1.28-.43.51-.61,1.02-.56.97.29-.17-.27.74-.46,1.39-.13.32-.11.58-.06.56.06-.01.2-.28.66-.92.13.22-.11.5-.49,1.61-.24.91-.24,1.85.06,2.79.3.94.9,1.86,1.63,2.7,1.5,1.67,3.49,3.04,5.65,4.09-.07.78,1.24,1.62,2.97,2.34,1.72.73,3.81,1.33,5.27,1.96,3.44,1.36,6.2,1.73,9.9,3.01-.98.08-3.85-.18,2.52,1.42Zm14.83,4.36h-.78c.33.1.69.22.97.27.24.04.39,0,.58,0-.27-.09-.52-.18-.77-.27Z"/><path d="m415,8.33c-2.35.07-4.96.02-7.52.06-2.56.1-5.08.15-7.23.39-1.91.02-4.34.13-6.84.38-1.25.15-2.52.3-3.76.44-1.24.14-2.46.27-3.58.44-1.28.18-1.77.27-2.68.45-2.79.54-3.38,1.17-.29.75,3.26-.43,4.28-.54,5.13-.46.88.06,2.49.03,5.57-.57.34-.08,1.62-.19,2.17-.22,2.68-.14,5.31-.38,7.94-.45l3.94-.17c1.31-.04,2.63-.03,3.96-.04,6.1-.06,12.2.25,18.29.65,3.04.29,6.09.48,9.11.89,1.51.19,3.03.35,4.54.56l4.52.69v-.15c-1.02-.16-1.85-.3-2.07-.39-.9-.13-1.89-.27-2.83-.4-.95-.11-1.86-.21-2.61-.3-3.58-.49-8.03-.72-10.85-1.18-.85-.12-4.38-.43-8.01-.68-3.64-.17-7.39-.33-8.66-.25-.42.01-.86.05-.79.07.61.19-1.74.1-2.81.06-1.29-.06-2.08-.1-3.19-.12-.63-.01-2.62.11-2.43.03.12-.05,1.26-.13,2.8-.2,3.21-.13,7.76-.03,8.18-.3Z"/><path d="m93.54,13.8c-3.16.54-6.91,1.09-8.91,1.96.92-.09,2.11-.13,2.73-.27,2.41-.58,4.69-1.1,6.55-.86,1.53.2-.5.71-1.95,1.2-2.57.83-4.61,1.01-6.8,1.01-1.36.01-3.61.3-4.67.65-3.63,1.18-5.37.92-7.63,1.01-1.42.21-3.2.58-3.62.33-.08-.05.54-.3.8-.34,1.87-.29,1.97-.02,2.81.01l3.81-1.67c-2.75-.36-6.08.71-9.26,1.41.13.27-.03.53-2.34.98.07.18-.1.42.27.53,1.11.35-2.72.96-3.81,1.44-.3.13-1.07.34-1.34.24-.54-.2.72-.56,2.12-1,.79-.25.12-.49.11-.74-1.22.5-4.9.77-5.16,1.39.48-.02,1.76-.24.54.15l-.51-.16c-1.86.24-.84-.47-3.11,0-.8.17-1.37.69-2.05,1.05.06.16-.18.36-1.25.67.07.05.15.09.24.14l1.2-.23c2.06-.12,8.38-1.05-.06.94-.55.13-.76.42-1.13.64,3.65-.79,7.43-1.84,10.87-1.88.41-.02,5.26-1.39,8.57-1.94.87-.38,1.99-.61,3.97-.97,5.81-1.03,11.96-1.6,17.45-3.01,2.33.29,6.25-.97,8.67-.97,2.36,0,4.24-.16,7.08-.87,3.86-.95,5.6-.9,5.77-.29,2.14-.33,4.3-.57,6.45-.86-.34-.35,1.4-.81,2.66-1.24-3.02-.16-6.16-.29.05-1.52.79-.16.25-.26-.56-.25-2.48.7-6.26.56-8.36,1.18-4.81,1.47-3.93.56-4.64.29l-1.37.2c-.1.24-.82.47-2.38.7-.14.32-1.17.56-2.69.8l.16.3c-1.5.19-1.28-.01-1.31-.16-2.98.1-7.41.65-7.98.01Z"/><path d="m486.29,25.01c-.33-.28-.63-.54-.91-.78-.3-.22-.57-.42-.83-.61-.5-.38-.96-.64-1.35-.87-1.65-.94-3.69-1.97-.82,0,2.21,1.62,3.24,2.57,4.08,3.27.82.72,1.45,1.19,2.29,2.35.96,1.46,1.63,3.1,1.83,4.82.04,1.21-.02,2.96-.66,4.7-.59,1.74-1.64,3.41-2.67,4.58l-.2-.08c.95-1.14,1.79-2.51,2.34-3.88.56-1.37.79-2.72.89-3.79.14-1.35-.1-2.78-.69-4.12-.58-1.35-1.49-2.62-2.62-3.81-2.25-2.31-4.99-4.16-7.91-5.62l-2.18-1.11c-.75-.33-1.51-.63-2.27-.94l-2.28-.93-2.34-.79c-6.24-2.08-12.68-3.63-19.19-4.82-.21-.12-.18-.19,1.44.07l2.5.48,1.28.31c.38.11.77.21,1.16.26,2.04.46,3.64.81,4.85,1.08,1.19.31,2,.52,2.46.61.92.19.46-.03-1.04-.6-.09-.03-.11-.05-.17-.08-7.23-1.6-9.05-2.55-16.23-3.6-2.98-.46-6.96-.91-7.74-1.24,1.96.24,4.21.29,4.84.51,1.21.38,3.28.6,5.27.91,7.11,1.24,14,2.77,21.07,5.09,1.26.41,2.53.81,3.76,1.35l1.86.76c.62.25,1.25.5,1.84.83,1.2.63,2.44,1.19,3.61,1.89,1.17.7,2.32,1.45,3.4,2.31,2.17,1.68,4.18,3.73,5.44,6.31,1.31,2.56,1.43,5.72.47,8.4-.33,1.09-1.03,2.39-1.68,3.38-.67.99-1.31,1.66-1.45,1.64.7-1.09,1.93-2.77,2.82-4.91.53-1.3.77-2.49.75-3.55.03-1.06-.19-1.98-.44-2.81-.68-2.82-2.47-5.27-4.62-6.96Zm-11.61-6.26c-.03-.07-.66-.54-2.69-1.24-1.99-.61-4.89-1.53-5.04-1.43-.26.05,2.35.75,3.26,1.1.89.31,2.07.67,2.95,1.07.89.38,1.56.63,1.53.5Zm-5.59-2.68c-1.28-.49-3.64-1.07-3.76-.99-.07.05.77.36,2.16.74,1.49.47,2.93.93,4.85,1.53-1.38-.55-2.23-.93-3.25-1.28Zm7.34,3.26c.24.11.49.19.72.32l-.08-.07c-.54-.24-.58-.23-.64-.25Z"/><path d="m316.15.47c-3.27.13-5.83.04-9.51-.22-2.68-.18-5.68-.28-8.78-.24-3.1.06-6.29.12-9.33.17-3.04.04-6.3-.21-9.15.15l-.03.59c.67.27,2.41.69.35.8-6.07.33-5.25,1.34-9.45,1.9,2.24-.08,4.22-.18,5.97-.4.22,0,.42-.02.58-.05.23-.27-.73-.62,1.7-.76,1.91-.11,3.27,0,3.55.35l.32.08-.29-.08c-2.82-.19-2.91.46-5.24.42-.15.03-.2.07-.17.11,2.68.62,5.94,0,8.86.09,3.72-.63,7.67-.61,11.65-.09,1.19.16,1.97.36,3.3.02,2.05-.53,5.02-.28,7.88-.05,4.1-.38,2.22-.97,1.23-1.53-.26-.15-1.11-.36.33-.43,1.23-.06,1.95.1,2.45.27h1.46c-.76-.46,3.14-.63,2.34-1.1Z"/><path d="m128.15,80.24c2.56.53,5.23.96,8.82.98,4.49-.2,9.21.05,14.22.77.97-.17,2.76-.11,4.37-.12l2.66.3c-.31-.18-.78-.53-.9-.53-4.89-.16-8.12-1.03-12.82-1.28-3.42-.2-6.54-.43-7.43-1.09-.03-.02-.37-.05-.56-.08-.65.01-1.3.03-1.95.04.52.69-2.92.37-5.55.1-8.62-.87-17.33-1.34-26.03-2.65-5.25-.78-5.55-.69-2.96-1.08.78-.13,1.32-.31,1.96-.46-5.02-.43-10.77-1.51-14.88-1.33.93.18,1.83.39,2.81.53,1.6.25,3.95.14,4.6.63.27.2-2.29.21-3.91.17-.86-.02-2.46-.26-3.73-.42-1.06-.12-2.22-.3-2.75-.2-.7.13.39.4,1.48.65,1.7.38,2.11.83,4.79,1.17,3.33.84,7.04,1.49,11.52,1.8,5.16,0,11.11.63,17.11,1.2-.07-.16.22-.33,1.3-.22,1.91.19.67.33,1.07.5,2.58-.3,5.25-.75,6.77.64Z"/><path d="m454.78,13.12l1.28.31c.2.03.39.09.58.13l.58.13c2.04.46,3.64.81,4.85,1.08,1.19.31,2,.52,2.46.61.92.19.46-.03-1.04-.6-.09-.03-.11-.05-.17-.08-7.23-1.6-9.05-2.55-16.23-3.6-2.98-.46-6.96-.91-7.74-1.24-2.18-.21-6.07-.58-7.71-.59,2.07.32,0,.32-1.08.22-3.2-.26-1.24-.26-1.68-.4-.09-.03,0-.04.01-.06-2.44-.32-6.63-.42-9.38-.57-1.7.02-3.2-.05-4.49-.15-.44.28-4.98.17-8.2.3-1.54.07-2.68.16-2.8.2-.19.08,1.79-.04,2.43-.03,1.12.02,1.9.06,3.19.12,1.07.04,3.42.13,2.81-.06-.07-.02.37-.06.79-.07,1.27-.08,5.01.08,8.66.25,3.64.25,7.16.56,8.01.68,2.83.46,7.27.69,10.85,1.18.75.09,1.66.19,2.61.3.95.13,1.93.27,2.83.4,1.75.21,1.82.29,2.07.39v.15c.86.14,1.71.26,2.56.44-.21-.12-.18-.19,1.44.07.32.03.56.02.99.1,1.35.24,1.35.31,1.51.39Z"/><path d="m258.52,3.72l-.09-.24c-1.07-.44-1.92-.9-3.26-1.32-2.86-.87-8.08-.92-12.31.05-.53.12-.79.29-1.44.37-2.41.29-2.55.99-.14,1.16q1.01.07,1.57-.4c.26-.22.18-.49,2.01-.57.56-.03,1.19.21,1.79.33,3.45.09,3.24.58,4.03.97-1.96.17-3.95.25-5.95.33-2,.08-4.02.12-6.05.12,1.65-.71-2.33-.71-4.23-.97l-2.03.48-4.13.36c-.06-.05-.08-.11-.06-.16,2.49-.82-1.45-1.3-1.36-2l2.5-.12s.01.08.14.09c1.78.15,1.48.85,3.64.64,3.19-.3-.4-.66.2-1.05l1.48-.51c3.03-.08,6.09-.23,9.14-.35,3.05-.11,6.08-.1,9.04,0l2.57-.06.12.41-.54.12.71-.1,1.62-.04c.83.02,1.99.18,1.96-.15l2.61-.26-.36.07-.4-.06c1.8.42,6.26.26,7.54.98.3.17,1.85.06,3.72-.13,1.86-.16,4.03-.41,5.56-.57.51-.05.83-.15,1.24-.22.67.27,2.41.69.35.8-6.07.33-5.25,1.34-9.45,1.9-4.05.34-7.96.4-11.72.1Zm-17.35-1.76c-.12-.11-.41-.2-.64-.3-.17.06-.48.13-.48.19,0,.09.19.18.33.29.38-.08.82-.14.78-.18Z"/><path d="m65.06,19.22c2.31-.46,2.48-.72,2.34-.98l-2.18.31-1.67.33c-4.19.64-8.24,1.24-12.59,2.43-1.77.49-4.36,1.07-6.55,1.38-2.39.32-6.83,1.41-7.56,1.67-7.75,2.71-15.4,4.65-22.87,7.59-2.74,1.11-4.27,2.26-6.36,3.57-1.33.86-2.64,1.78-3.85,2.93-1.2,1.14-2.37,2.47-3.12,4.22-.77,1.73-.89,3.92-.23,5.75.63,1.84,1.77,3.24,2.95,4.43,2.4,2.34,5.13,3.95,7.87,5.39,2.76,1.41,5.58,2.61,8.44,3.68,1.22.46,2.46.99,3.25,1.01.38-.57-2.78-1.75-5.48-2.65-2.41-.8-3.77-1.48-5.4-2.5-.91-.18-2.42-1.02-3.72-1.81-.45-.19-.88-.43-1.32-.64-.85-1.05-2.32-2.22-3.72-3.87-.7-.81-1.38-1.77-1.84-2.88-.23-.55-.41-1.14-.49-1.75-.07-.3-.04-.61-.05-.91,0-.3-.02-.6.05-.89.08-.92.57-2.35,1.16-3.25.63-.87,1.13-1.33,1.08-.65-.02.15.69-.82,1.57-1.71.42-.46.89-.9,1.24-1.23.35-.35.59-.6.6-.65.01-.49,1.14-1.29,2.72-2.2.3-.37.71-.59,1.2-.66,2.1-1.32,4.7-2.75,4.08-1.62.61-.26,1.22-.52,1.84-.78,1.81-1.06,3.74-2.09,6.59-2.69,2.11-1.19,4.17-2.5,7.38-2.42l3.67-1c.67-.67,3.18-1.17,5.16-1.68,2.91-.74,2.48-.29,2.74-.09,3.21-1.47,6.66-2.03,10.14-2.28.68-.36,1.25-.88,2.05-1.05,2.28-.48,1.26.24,3.11,0,.22-.6,3.91-.87,5.13-1.38l2.65-.47Z"/><path d="m204.59,2.95c-1.87-.25-3.93-.34-6.66.19,1.59.23,3.15.5,1.32.99-1.44.39-2.59-.08-4.15.14-2.1-.53-3.26-.09-4.61.37-1.53.51-3.05.72-4.15.26-3.71.41-3.1.86-3.74,1.3.59.41,3.59.34,5.08.57,1.25.11,2.7.13,4.22.07,1.52-.04,3.12-.15,4.68-.33,2.34-.27,4.37-.41,6.63-.44,2.28-.38-.14-.97,3.84-1.21,2.95-.18,2.49.32,2.97.6l2.62-.2c-.2-.28-.57-.55-.55-.85.01-.19,1.22-.33,2.35-.4.98-.05,1.73.02,1.17.19-.83.25-3.11.57-.67.64.61.02,2.73-.48,4.15-.72.45-.09.68-.28,1.62-.13l-1.65.13c1.04.77,4.31.49,7.74.13,1.03-.71-4.22-.84-3.87-1.49-5.64.58-5.61.08-5.2-.55-2.27.24-4.15-.08-6.49.26.38.67-2.11,1.43-6.02,1.57-5.43.2,1.72-.71-.17-.94-.26-.03-.31-.1-.46-.16Z"/><path d="m271.24,83.63l2.14-.06,4.13-.28,1.52-.07s-.08-.08-.13-.12c-.9-.03-1.34-.09-.59-.21.11-.02.48-.04.6-.03,1.17.05-.06.17-.06.25,2.16-.04,3.75-.16,4.74-.44,3.16-.84,8.25-.45,8.15-.28-.3.53,3.12.39,5.59.4,3.11-.33,6.19-.66,9.34-.99,1.38-.13,4.05-.23,3.27-.46-.64-.18-3.52.12-4.26.09-2.28-.11-5.75.73-7.05.21-1.73.05-3.77.15-4.04-.12-1.46.05-3,.14-3.95,0-3.19.07-6.41.18-9.58.21-6.27.03-11.68.81-18.02.68v.35c1.56-.04,3.18-.1,4,.1-.1.2-.15.4-2.53.46l1.13.42,5.57-.11Z"/><path d="m122.09,10.48c.81-.01,1.36.09.56.25-6.21,1.23-3.07,1.36-.05,1.52l2.41-.33-.12-.57-.31-.04.29.05c2.22-.06,6.93-1.07,6.66-.18,3.63-.48,7-.22,11-1.16.57-.14,3.14-.15,3.3.16l3.85-.3c1.62-.64,6.46-1.3,5.46-1.94-.05-.03.83-.18,1.27-.27,2.96.88,4.03-.68,6.29-.7-.02-.06-.02-.13-.03-.2-6.68-.42-8.16.71-10.41,1.61l-.5.1.53-.09c-1.33.04-3.76.19-3.82.09-.8-1.38-5.52-.02-9.41.47-4.04.57-8.68,1.4-12.33,1.2-1.78.04-1.58-.49-4.64-.07l-.03.41Z"/><path d="m331.83,2.33l-2.42-.29c-5.92-.34-5.82-.92-5.19-1.65-1.95-.27-1.86.13-2.81.18,1.73.97-1.19,1.77-6.57,1.78,1.23.51,1.32,1-.03,1.47,1.35.52,2.49.2,3.68.04-.78-.12-.98-.29.08-.29,1.46,0,1.21.22,1.35.38,3.11.74,7.73.35,11.06.47,5.45.15,11.38.71,16.57.33l-.02-.3-3.78-.24c-1.21.34-2.28.1-3.35-.11l-4.49-.58c-.33.27-.62.56-3.04.43-1.63-.09-2.57-.32-3.34-.57-1.81-.58.69-.78,2.29-1.06Z"/><path d="m298.65,81.64c1.3.51,4.77-.33,7.05-.21.73.03,3.62-.27,4.26-.09.77.23-1.9.33-3.27.46-3.15.34-6.23.66-9.34.99l1.15.19,1.52-.07c4.2-.63,9.57-.65,14.3-1.08,1.12-.23.84-.36.27-.5-.98-.25.47-.48,3.53-.64l.05-.14c.03-.19.93-.33,2.8-.41.39-.03.76-.06,1.12-.09-.38-.11-2.14-.14.11-.39l-.12-.13c-3.74.18-7.48.35-11.22.53-3.74.19-7.49.35-11.24.65,1.22.26,3.46.48-.96.94Z"/><path d="m191.05,83.79c1.55.03,1.39.73,4.17.28,2.08-.34,4.03.27,6.09.18.6-.64,3.39-.46,6.33-.16,2.49.25,4.55.19,6.43,0,1.95-.19,2.81-.45.76-.77-2.77-.09-5.3-.37-8.27-.29-9.26.25-10.27.16-17.67-.58-.18-.02-.53-.04-.57-.04-3.79.5-9.5-.65-13.36-.23.35.33.38.66,2.98.92.1-.22.72-.23,2.49-.12,3.76.21,7.27.52,10.63.82Z"/><path d="m298.65,81.64c4.41-.46,2.18-.68.96-.94-2.92,0-4.88-.22-9.05.34-3,.41-9.02.33-13.84.46-6.48.24-13.28.46-19.83.36-2.87-.05-4.78-.03-4.45.4.31.41,2.63.4,5.23.27,1.8-.04,3.6-.08,5.4-.11,6.34.13,11.75-.65,18.02-.68,3.17-.03,6.38-.14,9.58-.21.77-.1,1.63-.26,2.29-.27,1.46-.03,1.6.13,1.66.27.28.26,2.32.16,4.04.12Z"/><path d="m152.28,8.37c2.25-.9,3.73-2.03,10.41-1.61,1.75-.27,3.5-.51,5.26-.72,1.39-.26,2.84-.51,2.45-.8-2.52-.33-5.73.3-8.43.6-5.17.48-10.34.97-15.52,1.45-2.59.25-5.18.47-7.77.78-2.59.33-5.17.68-7.76,1.06-2.76.41-3.13.64-4.17,1,3.65.2,8.28-.63,12.33-1.2,3.88-.49,8.6-1.85,9.41-.47.06.1,2.49-.05,3.79-.09Z"/><path d="m101.97,75.12c-.65.15-1.18.33-1.96.46-2.59.39-2.29.3,2.96,1.08,8.7,1.31,17.41,1.78,26.03,2.65,2.62.28,6.07.59,5.55-.1-4.85-1.05-10.2-1.4-16.11-1.61-3.81-.11-6.69-.57-5.89-1.2-3.84-.08-6.95-.94-10.57-1.29Z"/><path d="m174.94,82.18c3.87-.43,9.57.73,13.37.23.05,0,.4.02.57.04,7.39.74,8.41.83,17.67.58,2.97-.08,5.51.21,8.27.29-1.16-.57-2.44-1.13-6.98-1.49l-3.34.27c-1.24.33-3.13.26-5.8.11-3.26-.17-7.21-.25-10.03-.38-5.69-.33-10.79.11-16.2-.53l1.4.81c.36.03.72.05,1.07.07Z"/><path d="m241.66,82.62c-1.71.48-3.09.99,3.75.99,2.21,0,.82.21.65.35-3.37.35-7.09.16-9.5-.05-6.11-.54-7.49-.08-8.81.5l-1.25.02c-4.02-.32-10.61-.54-4.34-1.33,1.13-.14,1.11-.43,1.61-.65,3.46.02,6.92.04,10.37.06,2.24.02,3.92,0,4.14-.32l3.85.06c-.15.13-.09.26-.48.38Zm-11.03.43c-.14-.01-.36-.02-.69.04.19,0,.38.01.69-.04Z"/><path d="m447.07,9.44c1.87.9,8.84.75,8.71,1.68-.06.46-2.89.69-4.14,1.12-1.29.44-6.57-.03-10.74-.6-1.88-.26-3.65-.66-5.52-.9-1.81-.24-3.99-.86-5.36-.61-1.46.25,3.57.55,2.6.92,6.06,1.47,13.82,1.46,20.1,2.9,1.98.46,1.62-.26,3.25-.16,1.6-.08-5.38-1.25.41-.8,2.02-.48,7.13-.16,6.49-1.22-1.19-.22-2.74-.43-3.49-.67-1.88-.61-1.7-1.74-6.76-1.24-.02,0-.46-.12-1.03-.26-.57-.14-1.26-.31-1.81-.4-3.19-.55-6.26-.82-9-.75.82.99,4.5.5,6.28,1Z"/><path d="m463.84,14.64c1.59.25,2.72.54,3.51.91.99.46,2.45.94,4.05,1.27,1.61.32,3.35.52,4.92.51,2.79-.01,5.37-.32,5.78-.95.76-1.19-2.62-2.1-10.34-2.96-1.89-.2-4.18-.85-6.29-1.3-2.4.24-1.58.93.89,1.65,2.5.73,4.88.78,6.76.56.69-.08,3.8.08,3.46.55-.3.41,1.42,1.04.23,1.32-.73.17-1.11.46-3.2.24-2.17-.23-3.07-.63-3.27-.98-.22-.37-.5-.68-2.9-.98-2.33-.29-3.55-.24-3.59.17Z"/><path d="m172.47,81.3c5.41.64,10.51.21,16.2.53,2.82.13,6.77.2,10.03.38,2.68.15,4.57.22,5.8-.11-4.56-.95-11.41-.72-17.06-.94-4.21-.2-8.48-.28-12.72-.44-4.23-.19-8.44-.44-12.53-.93l-.69.2c1.2.33,5.47.87-1.07.65-2.14-.08-3.36.15.31.46,3.89.07,6.76-.53,11.71.21Z"/><path d="m113.5,14.34c-.17-.61-1.91-.67-5.77.29-2.84.7-4.71.87-7.08.87-2.42,0-6.34,1.25-8.67.97-5.49,1.41-11.64,1.97-17.45,3.01-1.98.36-3.1.59-3.97.97,5.44-.36,11.23-1.29,17.45-2.41,3.96-.73,8.02-1.26,12.4-1.68,3.82-.34,8.68-1.32,13.08-2.01Z"/><path d="m368.66,5.57l-2.84-.17-4.17-.8c-.6-.04-1.19-.08-1.79-.12-1.95.05-3.9.09-5.85.14,3.38,1.26,10.24,1.28,15.15,1.59,9.76.53,19.63,1.07,29.45,1.61l2.64-.03c-4.36-1.09-9.11-1.55-14.31-1.27-2.1-.04-4.25-.05-6.18-.2-1.92-.14-3.61-.37-4.77-.96-.63-.03-1.26-.06-1.9-.09-.45,0-.9-.01-1.35-.02.01.16.06.23.11.31.13.06.27.12.4.18l-.93-.12-3.65-.04Z"/><path d="m346.17,77.94c3.74-.25,7.46-.54,11.22-1.01,2.98-.28,5.83-.56,8.06-.59,2-.22,3.01-.33,4.01-.44,4.77-.46,9.37-1.21,14.45-1.65,2.64-.23,4-.75,4.75-1.08-14.31,1.78-28.67,3.19-43.03,4.6l.55.18Z"/><path d="m246.06,83.95c-3.37.35-7.09.16-9.5-.05-6.11-.54-7.49-.08-8.81.5,5.03.09,10.06.2,15.08.22,5.03-.03,10.06-.1,15.07-.42,2.43-.16,3.95.14,5.92.05,2.72-.12,6.91-.02,7.41-.61l-5.57.11-9.15.05-10.45.15Z"/><path d="m444.23,63.67c-.09.18.81.18-3.29,1.15-2.55.62-4.72,1.18-4.22,1.32,5.27-1.17,10.53-2.43,15.75-4.02,5.23-1.58,10.47-3.35,15.6-5.68l-.11-.09-.39.05c-.19.08-.39.16-.61.25-1.72.77-3.43,1.52-4.02,1.49-.31.12-.63.24-.96.36-1.25.42-2.49.88-3.76,1.25-.51.36-1.77.82-3.82,1.37-2.24.63-4.49,1.59-6.58,1.96-.69.13.3-.25,1.39-.61l.08-.11-1.28.17c-2.28.44-2.41.76-3.78,1.13Z"/><path d="m226.5,84.42c-4.02-.32-10.61-.54-4.34-1.33,1.13-.14,1.11-.43,1.61-.65-1.91-.07-1.27-.25-1.39-.39h-2.57c.79.37-2.53.48-2.62.8l1.72.1c-.13.02-.36.05-.38.06-.47-.05-.93-.1-1.39-.15-2.27-.25-.87-.55-1.35-.83-2.58-.46-5.22-.59-7.96-.19,4.54.37,5.81.93,6.98,1.49,2.06.32,1.19.58-.76.77-1.88.19-3.94.25-6.43,0-2.94-.3-5.73-.48-6.33.16,6.62.21,13.38.08,19.92.4,2.58.13,3.94-.04,5.27-.24Z"/><path d="m160.76,81.09c-3.67-.31-2.45-.55-.31-.46,6.53.23,2.27-.31,1.07-.65-1.14.28-3.16-.1-4.73-.14.16.24-1.06.49-2.02.34-4.74-.75-8.16-.23-12.3-.59-2.24.13-2.34-.12-2.5-.36-2.22-.45-2.8-.24-3.47-.05.2.03.54.06.57.08.88.66,4.01.9,7.43,1.09,4.7.25,7.94,1.12,12.82,1.28.12,0,.59.35.9.53l5.08.61,2.7.33.34-.48c-5.79-.36-6.09-.95-5.58-1.53Z"/><path d="m90.37,76.32c-2.68-.33-3.09-.78-4.79-1.17-1.08-.25-2.17-.52-1.48-.65.53-.09,1.69.08,2.75.2,1.27.15,2.87.4,3.73.42,1.62.04,4.18.03,3.91-.17-.65-.49-3.01-.38-4.6-.63-.98-.15-1.87-.35-2.81-.53-1.19-.45-2.34-.32-3.51-.47-1.97-.13-4.08-.21-3.55.18,1.03.77.03.94-1.9.83-1.93-.13-4.81-.54-7.53-.91.62.37,3.46.69,3.63,1.06,4.48.5,8.65,1.45,13.18,1.99,3.24.38,2.57.03,2.97-.16Z"/><path d="m142.46,79.6c4.15.36,7.57-.16,12.3.59.96.15,2.17-.1,2.02-.34-8.32-.54-16.59-1.07-24.9-1.61-4.16-.29-8.53-.75-12.64-1.27-2.48-.31-4.51-.42-6.7-.55-.8.63,2.08,1.09,5.89,1.2,5.91.2,11.26.55,16.11,1.61.65-.01,1.31-.03,1.95-.04.67-.18,1.24-.39,3.46.05l2.5.36Z"/><path d="m246.06,83.95l10.45-.15.1-.32c-1.42.03-2.68-.02-2.46-.22.22-.2,1.66-.2,2.96-.23.48-.16.51-.33.54-.49-2.6.13-4.92.14-5.23-.27-3.34-.16-6.78-.14-10.29-.03-.15.13-.09.26-.48.38-1.71.48-3.09.99,3.75.99,2.21,0,.82.21.65.35Z"/><path d="m167.95,6.04c-1.75.21-3.51.46-5.26.72v.2s.3.05.3.05l-.28-.05c-2.26.02-3.33,1.59-6.29.7-.45.09-1.32.24-1.27.27,1,.64-3.83,1.3-5.46,1.94.3.2,1.47.05,2.51-.04,1.34-.45,3.55-.57,5.5-.78,1.45-.01,2.27-.92,3.09-.43.87.52,3.21-.1,4.56-.09,2.25-.59,3.32-.43,4.12-.13,1.37-.02,3.02.24,3.83-.37l.56-.36c-1.61-.02-2.43-.28-4.68-.1-1.54-.02-.98-.29-1.13-.48-7.02.2.87-.79-.1-1.06Z"/><path d="m464.05,56.72c2.11-.69,4.55-1.53,6.54-2.25,2.05-.73,4.88-2.08,7.43-3.68,2.56-1.6,4.81-3.47,5.97-4.76-2.43,2.12-5.48,4.01-3.77,2.51-5.13,3.41-10.78,5.89-16.17,8.19Z"/><path d="m168.05,7.09c-7.02.2.87-.79-.1-1.06,1.39-.26,2.84-.51,2.45-.8,3.98-.37,8.16-1.26,11.83-.79.18.03.24.07.18.12-5.2,1.03-5.55,1.94-5.2,2.82l-3.35.28c-1.61-.02-2.43-.28-4.68-.1.13-.22.16-.43-1.13-.48Zm4.12-.98c-.85-.03-1.64.2-1.36.29.55.18-2.09.84,1.93.52,1.99-.25,1.82-.39.35-.45-.29-.13-.28-.33-.93-.36Z"/><path d="m76.67,16.82c1.21-.19,2.28.02,3.6-.53,2.94-1.22,3.32-.65,4.36-.53.92-.09,2.11-.13,2.73-.27,2.41-.58,4.69-1.1,6.55-.86,1.53.2-.5.71-1.95,1.2-2.57.83-4.61,1.01-6.8,1.01-1.36.01-3.61.3-4.67.65-3.63,1.18-5.37.92-7.63,1.01,1.26-.55,2.53-1.11,3.8-1.66Zm14.6-1.62s-.46.09-.48.11c-.05.06.03.1.06.15l1-.22c-.19-.02-.36-.04-.58-.04Z"/><path d="m419.55,69.64c-5.23,1-10.76,1.82-15.44,2.9-1.18.27-2.87.44-4.07.55-2.16.2-3.61.46-4.75.81,4.5-.3,9.87-1.27,14.88-2.2,6.5-1.19,12.66-1.98,19.13-3.62.94-.24,2.11-.49,2.51-.67-1.37.06-3.62.5-6.19,1.18-3.1.79-4.6.97-6.08,1.05Z"/><path d="m463.84,14.64c.04-.41,1.26-.46,3.59-.17,2.41.3,2.69.61,2.9.98.2.35,1.11.76,3.27.98,2.09.22,2.47-.07,3.2-.24,1.19-.27-.53-.9-.23-1.32.34-.47-2.77-.63-3.46-.55-1.88.22-4.26.17-6.76-.56-2.47-.72-3.29-1.41-.89-1.65-.84-.27-1.7-.47-2.6-.36.64,1.06-4.47.74-6.5,1.22,1.35.34,2.57.76,2.62,1.1l4.85.55Z"/><path d="m52.12,22.12c-3.49.25-6.93.81-10.14,2.28-1.84,1.02-7.92,2.46-8.79,3.5l.62.5c2.23-.41,4.21-.96,5.96-1.68.26-.19-.61-.15.71-.54l.49.24c.38-.05.78-.14,1.21-.26,5.18-1.34,3.9-2.13,8.68-3.36,1.07-.31,1.32-.51,1.25-.67Z"/><path d="m298.48,82.99l-1.15-.19c-2.48,0-5.89.13-5.59-.4.1-.17-4.99-.56-8.15.28-1,.27-2.59.39-4.74.44.1.03.14.07.18.12l-.09.45c3.22,0,6.43-.01,9.67-.09,3.24-.09,6.52-.21,9.87-.59Z"/><path d="m360.12,78.45c.48-.37-2.37-.18-4.68-.02-2.49.18-5.18.37-7.8.56-2.62.18-5.15.39-7.32.68-3.01.39-5.04.6-7.98.79-1.78.12-.78.3-.91.44,3.15-.17,6.24-.37,9.38-.61,3.13-.25,6.31-.5,9.59-.94,2.84-.37,6.46-.6,9.72-.9Z"/><path d="m125.01,11.91l-2.41.33c-1.26.43-3,.89-2.66,1.24,6.54-.48,13.45-1.81,20.1-2.01,2.69-.02,3.42-.89,5.8-1.31-.16-.31-2.73-.29-3.3-.16-4,.94-7.37.68-11.01,1.16-2.22,1.45-4.34.33-6.53.75Z"/><path d="m16.44,32.27c-.61.26-1.23.52-1.84.78-.94.92-.91.86,1.05.15.86-.31,2.02-.68,2.26-.63.79.11-2.65,1.4-3.05,1.92.88-.27,1.78-.49,2.67-.73,1.34-.5,2.68-.98,4.04-1.42,2.64-1.21,5.34-2.33,8.06-3.4-2.94.57-4.39.87-4.29.62.1-.24,1.75-1.04,5.07-2.4-3.21-.08-5.27,1.22-7.38,2.42-2.2.86-2.9,2.19-6.59,2.69Z"/><path d="m70.6,73.43c2.72.37,5.59.78,7.53.91,1.94.11,2.93-.06,1.9-.83-.53-.4,1.58-.32,3.55-.18-.52-.71-3.34-.59-4.98-.9-1.27.41-2.14.96-8.28-.51-1.01-.25-2.67-.5-3.13-.34-.49.17.78.45,2.12.71l.59.06-.53-.04,1.23,1.14Z"/><path d="m182.23,4.45c.18.03.24.07.18.12.6.27,4.66-.23,3.93.33,1.09.46,2.61.25,4.15-.26,1.34-.46,2.5-.9,4.61-.37,1.57-.21,2.71.25,4.15-.14,1.83-.5.27-.76-1.32-.99-5.33.2-11.01.07-15.7,1.31Z"/><path d="m261.29.87c1.8.42,6.26.26,7.54.98.3.17,1.85.06,3.72-.13,1.86-.16,4.03-.41,5.56-.57.51-.05.83-.15,1.24-.22l.03-.59c-2.36-.22-4.64-.13-6.92-.02-2.27.15-4.54.33-6.87.26l-3.44.15c-.45.02-.73.06-.85.13Z"/><path d="m442.76,63.28c.91-.09,4.26-.8,7.82-1.73,3.56-.91,7.3-2.11,9.08-2.78,3.5-1.39,1.18-.78,1.82-1.19-2.22.88-4.48,1.71-6.69,2.25-.47.13-2.08.57-2.18.61-2.82,1.21-6.62,1.95-9.85,2.84Z"/><path d="m447.07,9.44c-1.79-.49-5.46,0-6.28-1-1.82-.6-3.7-.58-5.56-.63-3.15.23-8.02-.49-11.68-.51.7.43.56.87,4.48.86,1.19,0,2.63.09,4.14.22,1.51.16,3.09.33,4.55.48l1.65-.1.5.19-2.05-.07c2.4.43-5.18.97,3.73,1.32.35-.31-.76-.92,2.74-.59.74-.22,3.91.29,3.79-.18Z"/><path d="m362.72,77.84c-.07.07.4.1-.73.24,3.97-.41,8.05-.73,11.99-1.16,3.94-.45,7.73-1,11.11-1.81l-.2-.12-5.17.66c-5.65.79-11.3,1.47-17,2.19Z"/><path d="m423.54,7.3c3.66.02,8.53.74,11.68.51-.34-.76-3.28-.53-4.76-.7-5.66-.76-11.54-1.11-17.28-1.45,1.06,1.34,6.74,1.15,10.36,1.65Z"/><path d="m329.37,1.38c4.1.2,8.74.07,11.46,1,1.03.36,2.56.23,2.82-.09.19-.23-.13-.51,1.61-.58.58-.65-2.87-.57-4.69-.67-4.11-.21-8.28-.33-12.42-.48.33.27-.72.56,1.22.82Z"/><path d="m308.34,3.26c-2.86-.24-5.83-.49-7.88.05-1.33.34-2.11.14-3.3-.02-3.98-.52-7.93-.54-11.65.09,3.71.57,8.34.47,12.85.4,3.33-.02,6.63-.04,9.94-.05l.04-.46Z"/><path d="m28.91,61.6c-.98.08-3.85-.18,2.52,1.42,3.32.79,4.75,1.52,6.37,2.28.81.37.14.67,2.84,1.16,2.18.39,1.76-.05,1.42-.42-.32-.36-.46-.68-.68-1.01-4.19-1.02-8.35-2.16-12.46-3.42Z"/><path d="m217.73,2.21c-.4.63-.44,1.13,5.2.55l3.95-.55,2.5-.12c1.06-.25,2.54-.27,3.98-.31l1.48-.51c.11-.41-1.64-.23-3.03-.13-4.7.36-9.38.71-14.07,1.07Z"/><path d="m17.53,33.76c-.89.24-1.79.46-2.67.73-1.67.79-3.29,1.77-4.84,2.7-1.55.94-2.97,1.87-4.37,2.62-.35.2-.93.74-1.31,1.28-.43.51-.61,1.02-.56.97.29-.17-.27.74-.46,1.39-.13.32-.11.58-.06.56.06-.01.2-.28.66-.92.61-1.1,1.59-2.09,2.67-2.97,1.11-.87,2.32-1.64,3.57-2.35,2.49-1.43,5.09-2.63,7.37-4.03Z"/><path d="m219.1,4.12c-1.43.23-3.54.74-4.15.72-2.44-.07-.15-.39.67-.64.56-.17-.19-.24-1.17-.19-1.13.06-2.34.2-2.35.4-.02.29.35.57.55.85,4.76.26,10.15-.07,15.5-.37l.15-.52c-.06-.05-.08-.11-.05-.16l-1.43.04c-3.43.36-6.7.65-7.7-.12Z"/><path d="m50.87,22.79c-4.79,1.23-3.5,2.03-8.68,3.36,2.78-.16,5.57-.38,8.93-1.88.37-.22.57-.5,1.13-.64,8.45-2,2.12-1.06.06-.94-.18.18.08.3-1.44.61l.23-.38c-.09-.04-.17-.09-.24-.14Z"/><path d="m56.15,71.11c-1.05-.58-3.16-1.43-5.49-1.53-2.22-.13-5.22-.86-8.04-1.55-2.82-.69-5.46-1.35-7.02-1.19,3.45.94,6.9,1.77,10.32,2.45,3.42.72,6.84,1.3,10.23,1.82Z"/><path d="m163.3,82.77l-5.08-.61-2.66-.3c-.01.44-2.22.28-4.37.12-5.01-.73-9.73-.98-14.22-.77.41.22,1.77.51,2.7.51,7.65.08,16.18,1.29,23.63,1.04Z"/><path d="m423.35,10.36c-.18-.74-1.01-1.35-6.08-1.19-3.77.13-8.38-1.34-12.04-.9,5.34,1.43,11.94,1.55,18.11,2.09Z"/><path d="m330.05,79.11c1.78.32,5.25.39,9.06.32-.78-.37,1.15-.89,3.71-1.42-2.66,0-5.02.37-7.46.65-1.29.44-3.44.36-5.3.45Z"/><path d="m367.23,2.47c4.53,1.1,14.06,1.48,19.83,1.03-2.81-.39-5.64-.64-8.47-.74-2.84-.11-5.68-.16-8.51-.3-.17.42-1.54.19-2.84.02Z"/><path d="m102.66,13.65c1.51-.24,2.54-.48,2.47-.73l-1.68.1-.4-.16,1.25-.1,1.05.1c1.55-.22,2.28-.46,2.38-.7-4.76.59-8.98.53-14.19,1.65.57.64,5.01.09,7.98-.01.38-.05.76-.09,1.15-.14Z"/><path d="m119,79.32c-6-.57-11.95-1.2-17.11-1.2,1.98.54,3.85.9,6.89.87,3.85-.02,8.55.82,12.77,1.04l-.2-.43c-.77-.09-1.56-.19-2.36-.28Z"/><path d="m314.84,2.36c5.38-.02,8.3-.81,6.57-1.78l-5.26-.1c.8.47-3.1.64-2.34,1.11,1.53.24.88.52,1.03.78Z"/><path d="m29.63,28.94c-2.72,1.07-5.42,2.19-8.06,3.4,4.23-1.18,8.45-2.21,12.25-3.94l-.62-.5c-1.19.33-2.38.68-3.57,1.04Z"/><path d="m177.21,7.39l-3.35.28-.56.36c4.9-.24,9.89-.31,14.38-1.26-1.48-.23-4.49-.16-5.08-.57-.93.15-1.73.28-2.52.41-.19.3-.29.59-2.87.79Z"/><path d="m308.34,3.26l-.04.46,6.52.11c1.35-.47,1.26-.96.03-1.47-3.18-.09-2.43-.47-2.49-.79-.5-.17-1.22-.33-2.45-.27-1.45.07-.59.28-.33.43.99.56,2.86,1.15-1.23,1.53Z"/><path d="m122.09,10.48l.03-.41c-2.22.25-4.57.36-6.81.58-2.25.22-4.39.63-6.21,1.31.71.27-.17,1.18,4.64-.29,2.09-.62,5.87-.48,8.36-1.18Z"/><path d="m166.34,82.62l-.34.48c5.06.58,9.67.47,14.37.45l-2.44-.45c-2.6-.26-2.63-.59-2.98-.92-.35-.02-.71-.05-1.07-.07-.04.67-.85,1.2-7.54.52Z"/><path d="m223.78,82.44c3.46.02,6.92.04,10.37.06,2.24.02,3.92,0,4.14-.32-4.61-.43-9.74-.03-14.54-.24-.01.16-.02.32.03.49Z"/><path d="m177.93,83.1l2.44.45c3.73.36,7.6.95,10.68.25-3.36-.3-6.87-.61-10.63-.82-1.78-.1-2.39-.1-2.49.12Z"/><path d="m204.59,2.95c.15.05.2.12.46.16,1.89.22-5.26,1.14.17.94,3.92-.14,6.4-.89,6.02-1.57-2.3.03-4.76-.17-6.66.48Z"/><path d="m419.55,69.64c1.48-.08,2.98-.27,6.08-1.05,2.56-.68,4.82-1.11,6.19-1.18.9-.21,2.06-.49,2.38-.65-.76.07-1.53.13-2.3.2-4.01.83-7.97,1.66-11.96,2.49l-.38.2Z"/><path d="m480.22,48.53c-1.71,1.5,1.34-.39,3.77-2.51,1.81-1.53,2.77-2.71,3.28-3.56l-.2-.08c-.93,1.18-1.97,2.28-3.13,3.29-1.14,1.03-2.39,1.98-3.73,2.86Z"/><path d="m314.3,81.84c-4.73.43-10.1.45-14.3,1.08,4.78.09,9.53-.5,14.29-.8v-.28Z"/><path d="m10.77,54.3c-.07.78,1.24,1.62,2.97,2.34,1.72.73,3.81,1.33,5.27,1.96-.08-.35.89-.33-2.72-1.66-1.79-.68-3.74-1.65-5.52-2.64Z"/><path d="m210.02,5.45c-.48-.28-.02-.78-2.97-.6-3.98.25-1.56.84-3.84,1.21,3.21.38,4.55-.41,6.81-.62Z"/><path d="m354.01,4.62c1.95-.05,3.9-.09,5.85-.14-3.67-.27-3.88-.76-4.38-1.23-.29-.27-1.15-.54-2.91-.6-.65-.02-1.69.05-1.89.13-.59.25.83.36,1.95.5,4.04.54-3.29.71.22,1.24.37.04.75.07,1.16.09Z"/><path d="m486.34,44.84c-1.79,2-4.97,3.71-6.41,5.22.55-.19.82-.28,1.67-.88.81-.64,2.3-1.69,4.74-4.34Z"/><path d="m246.65,3.09c3.45.09,3.24.58,4.03.97,2.7-.03,5.67.21,7.85-.34l-.09-.24c-1.94-.06-5.33.2-5.65-.19-.72-.88-3.47-.44-6.13-.2Z"/><path d="m238.67,4.51c1.65-.71-2.33-.71-4.23-.97l-2.03.48-1.58.89c2.7,0,5.04-.58,7.84-.4Z"/><path d="m56.53,68.87l.11-.53c-2.36-.65-4.73-1.23-7.41-1.63-.03.28-1.03.48,2.55,1.19,2.71.51,3.91.93,3.74,1.29,1.21.11.88-.16,1.01-.31Z"/><path d="m342.82,78.01c-2.56.54-4.49,1.05-3.71,1.42,2.65-.51,6.54-1.02,7.06-1.49l-.55-.18-2.8.25Z"/><path d="m329.37,1.38c-1.95-.26-.89-.55-1.22-.82-1.31-.08-2.62-.12-3.93-.17-.64.72-.73,1.31,5.19,1.65l-.04-.65Z"/><path d="m121.36,79.6l.2.43c2.53.25,4.72.29,6.59.21-1.52-1.38-4.19-.93-6.79-.64Z"/><path d="m411.89,69.69c0,.07-.24.19.02.2.74.05-2.91,1,1.09.33,3.54-.62.44-.37.92-.62.14-.07,1.31-.31,2.01-.47-.88.02-1.68.05-4.04.55Z"/><path d="m330.05,79.11c1.86-.09,4.01,0,5.3-.45l-2.87.13c-1.08.09-2,.13-2.51.06l-5.3.49,1.12.06,4.25-.3Z"/><path d="m428.88,9.04s-.11.04-.01.06c.45.14-1.52.14,1.68.4,1.09.1,3.15.1,1.08-.22-.92-.08-1.83-.19-2.75-.24Z"/><path d="m217.2,82.85c.09-.31,3.41-.42,2.62-.79l-4.01-.04c.47.28-.93.58,1.39.82Z"/><path d="m458.99,14.09c-.04-.34-1.27-.76-2.62-1.1-5.78-.45,1.19.72-.41.8.24.09.57.15.99.17.58.05,1.15.14,1.72.2.36.03.46,0,.31-.08Z"/><path d="m259.44,1.11l2.61-.26c-1.17-.43-4.35-.22-6.33-.38l-.13.4.12.41c.71,0,1.25,0,1.78-.02.19-.23,1.09-.19,1.96-.15Z"/><path d="m74.22,74.49c-.17-.37-3.01-.69-3.8-1.06l-2.09-.19,1.62.53c1.35.35,2.77.58,4.27.72Z"/><path d="m169.48,8.4c-.8-.3-1.87-.45-4.12.13,1.11.1,1.6.6,4.12-.13Z"/><path d="m277.5,83.29l-4.13.28c-.18.41,2.1.24,4.13.13v-.41Z"/><path d="m157.71,9.04c-1.95.21-4.15.33-5.5.78,2.84.14,4.32-.26,5.5-.78Z"/><path d="m415.01,8.33c1.29.1,2.79.17,4.49.15-1.44-.07-2.29-.35-4.49-.15Z"/><path d="m325.8,79.41l-1.12-.06-2.61.18.12.13c1.19.07,2.39,0,3.61-.25Z"/><path d="m276.65,3.28s.03-.07.17-.11c-.19.03-.38.04-.61.05-.12.14-.24.3-.36.45l.8-.39Z"/><path d="m329.98,78.86c.51.07,1.43.03,2.51-.06.01-.22-.85-.2-2.51.06Z"/><path d="m319.93,3.95c-.14-.16.1-.39-1.35-.38-1.06,0-.87.17-.08.29l1.44.09Z"/><path d="m255.59.87l.13-.4c-1.35.09-2.28.24-2.71.46l2.57-.06Z"/><path d="m262.14.73l3.44-.15c-1.45-.23-2.61-.19-3.44.15Z"/><path d="m223.71,82.43l.04-.48c-.87-.04-1.32,0-1.36.1.12.14-.52.32,1.33.38Z"/><path d="m40.97,26.41l-.49-.24c-1.32.39-.45.36-.71.54.41-.07.82-.16,1.2-.3Z"/><path d="m367.24,2.47c1.29.18,2.67.4,2.84-.02-1.19-.12-2.37-.24-2.84.02Z"/><path d="m458.69,14.17c-.57-.07-1.15-.15-1.72-.2l1.01.4.71-.19Z"/><path d="m419.93,69.44c3.99-.83,7.95-1.65,11.96-2.49,1.39-.32,1.98-.53,2.07-.65l.11-.33c-2.2.5-2.95.55-2.19.23.35-.16.85-.36-.61-.06-.43.09-1.1.24-1.66.38-.28.07-.53.14-.72.18-.18.05-.29.08-.29.09.18.18-1.19.59-2.88,1.03-1.7.42-3.72.89-4.83,1.24-.46.14-.64.25-.95.37Z"/><path d="m490.91,31.97c-.68-2.82-2.47-5.27-4.62-6.95,1.72,1.63,1.72,1.93,1.7,2-.02.04-.07.05.02.21.08.16.32.46.76,1.15.96,1.46,1.63,3.1,1.83,4.82.15-.67-.61-3.45.31-1.22Z"/><path d="m365.45,76.34c-2.22.03-5.08.31-8.06.59.1.13-.3.34.44.37.98.04-2.91.62.64.3,2.46-.22,1.96-.38,1.68-.52-.13-.07-.17-.31,1.45-.23,2.97.13,2.3-.42,3.84-.5Z"/><path d="m458.23,59.76c1.27-.37,2.5-.83,3.76-1.25.45-.27,3.59-1.52.75-.6-3,.98-3.95,1.49-4.51,1.85Z"/><path d="m449.21,62.48c-1.09.36-2.08.74-1.39.61,2.09-.37,4.34-1.33,6.58-1.96-.27-.19-3.16.77-5.19,1.35Z"/><path d="m379.72,75.65l5.17-.66c-.31-.17-1.95-.05-4.02.24-1.6.22-1.05.31-1.16.43Z"/><path d="m322.07,80.05c-.36.03-.73.06-1.12.09l-.14.26c1.58-.11,3.53-.21,4.22-.48l-2.96.13Z"/><path d="m462.94,58.15c.59.03,2.31-.72,4.02-1.49l-.19-.12c-1.29.54-2.54,1.13-3.83,1.61Z"/><path d="m438.51,64.53c-.28.05-.54.1-.81.15l-.71.26c.33-.07.73-.13.98-.2.25-.07.36-.13.53-.2Z"/><path d="m369.46,75.9l-3.02.33c.39.02.68.1,1.19.06,1.47-.13,1.44-.26,1.83-.39Z"/><path d="m448.01,62.54l1.28-.17c1.86-.72.38-.26-1.28.17Z"/><path d="m466.78,56.54c.66-.28,1.63-.65,1.59-.72,0-.02-.49.15-.74.25-1.11.46-.77.39-.85.47Z"/><path d="m434.07,65.98l-.11.33c1.63-.48,1.74-.6.11-.33Z"/><path d="m398.87,72.29s.24.01.42,0c-.03-.04-.24-.01-.42,0Z"/><path d="m318.15,80.55l-.05.14,2.69-.3c-.86.05-1.75.1-2.64.16Z"/><path d="m444.2,63.68l-.3.04c.11-.02.22-.04.3-.04Z"/><path d="m467.57,56.4l.39-.05c1.04-.48.81-.42-.39.05Z"/><path d="m331.83,2.33c-1.6.28-4.09.48-2.29,1.06.77.25,1.7.48,3.34.57,2.42.13,2.71-.16,3.04-.43-1.25-.38-1.87-.75-.78-1.09.5-.16.38-.34-1.05-.41-1.72-.09-2,.12-2.27.31Z"/><path d="m443.28,9.62c-3.51-.33-2.4.28-2.74.59,1.29.19,3.13.23,3.26.69.07.23,1.29.64,2.45.69,1.19.05,2.3-.09,2.75-.27.73-.29-1.56-.37-2.25-.56-1.37-.36-2.33-.76-3.47-1.14Z"/><path d="m375.98,5.35c1.16.59,2.85.82,4.77.96,1.92.15,4.08.15,6.18.2-3.02-.78-6.46-1.37-10.95-1.16Z"/><path d="m372.73,5.25c.45,0,.9.01,1.35.02.23-.05.38-.12.7-.14,2.53-.13,4.23-.33,1.66-.94-.67-.16-2.53-.39-2.22-.16.72.54-7.57.3-1.5,1.22Z"/><path d="m343.76,4.21l3.78.24c.05-.29,3.23-.58-.12-.85-2.48-.19-4.23.11-3.66.61Z"/><path d="m361.65,4.6l4.17.8c-.09-.26,2.19-.4.28-.73-1.52-.26-3.19-.23-4.45-.08Z"/><path d="m435.13,9.83c-.75-.18-1.2-.33-1.65-.38-.48-.05-.96-.02-1.44-.01.4.1.75.26,1.2.32.46.06,1.01.04,1.89.06Z"/><path d="m368.66,5.57l3.65.04c.17-.02.35-.04.53-.06l-.15-.22c-1.64,0-4.03-.23-4.02.24Z"/><path d="m340.41,4.1c1.07.22,2.14.45,3.26.12l-3.26-.12Z"/><path d="m427.13,10.14c-.37-.09-.55-.07-.74-.06.13.03.26.07.74.06Z"/><path d="m8.33,55.98c1.3.78,2.81,1.63,3.72,1.81.43-.12,1.6.42,2.91.99,1.31.56,2.74,1.18,3.64,1.33.66.12,2.58,1.46,3.66,1.39.66-.04-1.34-.99-2.53-1.66-1.21-.7-2.2-1.12-4.03-1.69-2.3-.7-4.93-1.83-6.43-3.48-.9-.97-2.91-2.06-3.99-2.9-.93-.73-1.07-.77-.89-.44.18.33.73.97,1.22,1.49,1.55,1.63,3.35,3,2.73,3.19Z"/><path d="m56.53,68.87c-.14.15.2.42-1.01.31-.34.16-3.51-.43-2.01.2.53.22,1.75.6,2.58.75,2.77.5,1-.21,1.65-.28.36-.05.63-.12,1.16-.11,1.03,0,3.95.45,2.9.01-1.2-.51-3.37-.45-5.26-.88Z"/><path d="m47.02,67.65c-.27-.09-.52-.18-.77-.27h-.78c.33.1.69.22.97.27.24.04.39,0,.58,0Z"/><path d="m9.33,35.34l1.17-.65c-.38.21-.79.44-1.17.65Z"/><path d="m448.28,11.99c-.25-.1-.32-.18-2.07-.39.23.09,1.05.23,2.07.39Z"/><path d="m65.06,19.22l-2.65.47c.01.25.68.49-.11.74-1.4.44-2.66.8-2.12,1,.26.1,1.04-.11,1.34-.24,1.09-.48,4.92-1.09,3.81-1.44-.37-.11-.19-.35-.27-.53Z"/><path d="m72.85,18.49c-.84-.04-.94-.3-2.81-.01-.26.04-.89.29-.8.34.42.25,2.2-.12,3.61-.33Z"/><path d="m102.66,13.65c-.38.05-.77.1-1.15.14.02.15-.2.35,1.31.16l-.16-.3Z"/><path d="m51.11,22.92l-.23.38c1.52-.31,1.26-.44,1.44-.61l-1.2.23Z"/><path d="m57.29,21.06l.51.16c1.22-.39-.07-.17-.51-.16Z"/><path d="m488.77,28.37c-.44-.69-.68-.98-.76-1.15-.09-.16-.04-.17-.02-.21.02-.07.02-.37-1.7-2-.33-.28-.63-.54-.91-.78-.3-.22-.57-.42-.83-.61-.5-.38-.96-.64-1.35-.87-1.65-.94-3.69-1.97-.82,0,2.21,1.62,3.24,2.57,4.08,3.27.82.72,1.45,1.19,2.29,2.35Z"/><path d="m470.2,17.18c.89.31,2.07.67,2.95,1.07.89.38,1.56.63,1.53.5-.03-.07-.66-.54-2.69-1.24-1.99-.61-4.89-1.53-5.04-1.43-.26.05,2.35.75,3.26,1.1Z"/><path d="m472.34,17.35c-1.38-.55-2.23-.93-3.25-1.28-1.28-.49-3.64-1.07-3.76-.99-.07.05.77.36,2.16.74,1.49.47,2.93.93,4.85,1.53Z"/><path d="m454.78,13.12c-.17-.08-.16-.14-1.51-.39-.42-.08-.66-.07-.99-.1l2.5.48Z"/><path d="m477.07,19.58c-.4-.15-.15-.05.08.07l-.08-.07Z"/><path d="m457.22,13.69l-.58-.13c-.19-.04-.39-.09-.58-.13.38.11.77.21,1.16.26Z"/><path d="m282.04,2.76c-.28-.34-1.64-.45-3.55-.35-2.43.14-1.47.49-1.7.76,2.36.04,2.45-.6,5.25-.41Z"/><path d="m312.35,1.57c.06.32-.69.69,2.53.79-.19-.27.45-.55-1.07-.79h-1.46Z"/><path d="m282.06,2.75l.29.08c-.11-.03-.21-.05-.29-.08Z"/><path d="m119,79.32l2.38.28c-.41-.17.83-.32-1.07-.5-1.09-.11-1.37.06-1.3.22Z"/><path d="m151.18,81.99c2.15.16,4.36.32,4.37-.12-1.61,0-3.4-.05-4.37.12Z"/><path d="m246.65,3.09c2.66-.24,5.41-.68,6.13.2.32.39,3.72.13,5.65.19-1.07-.44-1.92-.9-3.26-1.32-2.86-.87-8.08-.92-12.31.05-.53.12-.79.29-1.44.37-2.41.29-2.55.99-.14,1.16q1.01.07,1.57-.4c.26-.22.18-.49,2.01-.57.56-.03,1.19.21,1.79.33Z"/><path d="m226.8,4.25l1.43-.04c2.49-.82-1.45-1.3-1.36-2l-3.95.55c-.35.65,4.9.78,3.87,1.49Z"/><path d="m233.35,1.78c-1.44.05-2.92.07-3.98.31.04.03.01.08.14.09,1.78.15,1.48.85,3.64.64,3.19-.3-.4-.66.2-1.05Z"/><path d="m240.39,2.14c.38-.08.82-.14.78-.18-.12-.11-.41-.2-.64-.3-.17.06-.48.13-.48.19,0,.09.19.18.33.29Z"/><path d="m259.44,1.11c-.87-.04-1.76-.08-1.96.15.83.02,1.99.18,1.96-.15Z"/><path d="m255.7,1.28l-.54.12c.24-.03.47-.06.54-.12Z"/><path d="m29.63,28.94c1.19-.36,2.38-.71,3.57-1.04.86-1.03,6.94-2.47,8.78-3.5-.26-.2.18-.65-2.74.09,1.33.05-.75.75-2.06,1.21-1.6.55-2.44.51-3.11.47l-3.67,1c-3.32,1.36-4.97,2.15-5.07,2.39-.1.25,1.34-.05,4.29-.62Z"/><path d="m34.08,26.17c.67.03,1.51.08,3.11-.47,1.31-.46,3.38-1.16,2.06-1.21-1.99.51-4.49,1.01-5.16,1.68Z"/><path d="m16.44,32.27c3.69-.5,4.39-1.83,6.59-2.69-2.84.6-4.78,1.63-6.59,2.69Z"/><path d="m9.31,35.36l1.22-.68c-.49.07-.9.29-1.22.68Z"/><path d="m177.21,7.39c2.58-.19,2.68-.49,2.87-.79-.42-.37.94-.38,2.38-.38.78-.46.17-.92,3.88-1.32.72-.56-3.33-.06-3.93-.33-5.2,1.03-5.55,1.94-5.19,2.82Z"/><path d="m219.07,4.12l1.65-.13c-.94-.15-1.17.05-1.65.13Z"/><path d="m257.57,83.03c-.63.15-.8.3-.97.45,2.65-.05,5.29-.11,7.93-.16,2.38-.06,2.43-.26,2.53-.46-1.42,0-3.15.09-4-.1l-5.49.26Z"/><path d="m294.61,81.53c-.06-.14-.2-.3-1.66-.27-.66.01-1.52.18-2.29.27.94.13,2.49.05,3.95,0Z"/><path d="m263.06,82.76c.84.19,2.58.1,4,.1-.82-.2-2.44-.14-4-.1Z"/><path d="m278.85,83.11c0-.08,1.24-.2.06-.25-.12,0-.5.02-.6.03-.76.13-.31.18.54.22Z"/><path d="m125.01,11.91c2.18-.41,4.31.7,6.53-.75.27-.88-4.44.12-6.66.18.06.19.09.38.13.57Z"/><path d="m152.31,8.37l-.53.09c.17-.03.33-.06.53-.09Z"/><path d="m124.88,11.35l-.29-.05c.1.01.21.03.29.05Z"/><path d="m318.15,80.55l2.67-.15.14-.26c-1.87.08-2.77.22-2.8.41Z"/><path d="m166.34,82.62c6.69.68,7.5.16,7.54-.52l-1.4-.81c-4.96-.74-7.83-.14-11.72-.21-.51.58-.21,1.16,5.58,1.53Z"/><path d="m229.94,83.08l.57.02c-.01-.07-.24-.08-.57-.02Z"/><path d="m372.31,5.61l.93.12c-.14-.06-.27-.12-.4-.18-.18.02-.36.04-.53.06Z"/><path d="m217.16,82.85c.46.05.91.1,1.39.15.01,0,.25-.04.38-.06-.57-.03-1.14-.06-1.76-.09Z"/><path d="m142.46,79.6l-2.5-.36c.16.24.26.49,2.5.36Z"/><path d="m256.6,83.48c.17-.15.34-.3.51-.45-1.3.03-2.74.04-2.96.23-.22.2,1.04.25,2.45.22Z"/><path d="m169.18,7.57c.13-.22.16-.43-1.13-.48.16.19-.41.46,1.13.48Z"/><path d="m162.72,6.96l.28.05c-.1-.02-.2-.04-.28-.05Z"/><path d="m173.1,6.48c-.29-.13-.28-.33-.93-.36-.85-.03-1.64.2-1.36.29.55.18-2.09.84,1.94.52.12-.15.23-.3.35-.45Z"/><path d="m173.1,6.48c-.12.15-.23.3-.35.45,1.99-.25,1.81-.39.35-.45Z"/><path d="m91.85,15.24c-.19-.02-.36-.04-.58-.04-.03,0-.46.09-.48.11-.05.06.03.1.06.15l1-.22Z"/><path d="m69.37,72.3l.53.04c-.2-.02-.39-.04-.53-.04Z"/><path d="m436.81,8.89l2.05.07-.5-.19c-.55.03-1.1.07-1.56.13Z"/><path d="m103.45,13.02l1.68-.1c-.13-.1-.48-.13-.84-.16l-.85.26Z"/><path d="m182.46,6.22c-1.44,0-2.8.02-2.38.38l2.38-.38Z"/>
                  </g>
                </mask>
              </defs>
              <path class="mask" d="m482.27,15.64C352.55-3.94,190.93-2.15,66.14,20.23,33.77,26.04.74,34.97,1.92,46.46c.86,8.37,20.28,15.54,42.22,20.54,34.12,7.77,75.77,11.89,117.64,14.12,70.62,3.77,144.72,2.43,211.8-5.32,36.63-4.23,71.96-10.61,94.73-20.36,22.78-9.75,30.69-23.35,12.41-33.95-18.29-10.6-66.1-16.2-99.67-10.03"
                    mask="url(#path-mask)" stroke="black" stroke-width="2" fill="none"
                    stroke-dasharray="1117.7197265625" stroke-dashoffset="1117.7197265625">
              </path>
            </svg>
        