
            <svg xmlns="http://www.w3.org/2000/svg">
              <defs>
                <mask id="path-mask">
                  <g fill="white">
                    <path d="m217.81,1.78c-2.6-.06-.97.33-1.5.5-.62-.09-1.24-.14-1.86-.2-1.51-.27-3.29-.49-4.73-.79-2.96-.63-8.57-.53-10.96-.06-1.64-.06-2.67.01-3.37.16-2.18-.16-5.42.1-7.1-.22-.46-.23-2.38-.42-.78-.7,1.16-.17,2.42-.3,4.28-.12,1.54.14,2.94.13,3.81-.08h1.45c1.8-.12,4.21.64,5.63.05.56.02,1.6.07,1.62.07.72-.26,1.9-.31,3.27-.28,1.37.05,2.91.21,4.34.3l.04.16c-.79.03-.63.08.26.13.14,0,.29,0,.45.01l.08.23c-.49-.01-1.2-.07-1.2.03,0,.02.35.08.53.09.83.04.6-.06.69-.11l2.84.02c.23,0,.47.02.7.04-.36.09-2.69.1-.65.33,2.16.3,2.9.15,3.36-.04.43-.19,1.35-.16,2.8.08.11.31,2.21.37,3.66.57l-.08.09c-1.38.04-.31.17.85.3,1.56.37,1.74.06,2.74.16l.2.06-.22-.06c.11-.16-.45-.5,2.42-.08,1.79.28,3.33.41,3.06.07l1.78.2c.5.19,1.01.39,1.5.6-.96-.15-1.4-.12-1.5-.02-1.18-.04-1.29.06-.17.33,1.54.22,2.02.44,1.45.52-.27.04-.64.1.37.28.29.05.77.11,1.16.15.4.04.72.06.72.05-.11-.52,3.96.1,5.58.17.33,0,.48-.05.72-.07l.31-.09c.9.18,1.82.37,2.73.55.91.22,1.81.43,2.71.65.9.21,1.79.4,2.66.56.86.2,1.71.37,2.54.49.84.13,1.94.56,2.71.85,1.39.59,2.37.84,3.22.91l1.68.59,1.65.66,3.3,1.34.06.2c.1.29,1.11.82,2.45,1.35,1.04.41.77.11.89.03,3.65,1.51,7.27,3.1,10.89,5.14l-.12-.12c.08-.03-.16-.26.54.11.24.03.38-.03,1.24.52-.5.14,1.19,1.18,2.47,2.17,2.83,2.05,5.85,4.75,7.88,7.14.73.81,1.24,1.58,1.68,2.4.41.83.77,1.7.95,2.81.16,1.35.33.58.49.68.11,1.14-.06,2.27-.32,3.36-.33,1.06-.75,2.1-1.34,3.01-1.13,1.86-2.61,3.37-4.17,4.7l-.18-.24c.5-.65.24-.65-.17-.53-.74.16,0-.54,1.48-2.04.39-.49.77-.98,1.09-1.51.69-.86,1.35-2.04,1.32-2.57-.16.29-.3.59-.48.87l-.55.82c-.27.13-1.05.96-.3-.31.55-.55.96-1.25,1.07-2.05.34-.84.49-1.72.54-2.6.26-.53.42-1.4.28-2.47-.14-1.06-.54-2.29-1.19-3.46-1.28-1.42-3.39-3.11-3.97-3.02-1.81-1.76-3.85-3.33-6.08-4.62.03-.16.37-.16,0-.52-.5-.47,1.94.76-.15-.55-1.45-.9-1.28-.54-1.21-.29.03.12-.1.35-.91-.44-1.53-1.41-1.48-.63-2.97-1.54-.2-.18-.32-.38-.63-.55-.89-.49-.95-.35-1.23-.4-2.92-1.53-5.92-2.65-9.08-4.18-1.63-.82-2.71-.74-3.29-.71-2.5-.98-5.07-1.76-7.62-2.59-2.58-.73-5.16-1.49-7.78-2.07.03-.07.21-.12.06-.23-.44-.31,2.17-.07-.55-.73-2.41-.58-.4.25-.79.34-.11.03-.91-.14-1.4-.2-4.51-.66-9.33-1.59-14.01-2.21-1.37-.18-3.61-.19-4.66-.67-.6-.23-2.92-.66-5.43-1.05-2.5-.38-5.2-.61-6.51-.65Zm15.55,2l.52-.04c-.23-.04-.5-.1-.68-.12-.18-.02-.26.02-.4.03.19.05.37.09.55.13Zm26.36,5.07c.09.04.23.09.35.13,0-.05-.14-.1-.35-.13Z"/><path d="m182.37,1.99c6.07-.27,12.09.18,18.13.57.74,1.11,4.67.78,7.18,1.15.48.36.37.75,3.09.69,1.64-.02,3.98.32,6.06.56,1.64.35-3.62.85,2.53,1.11.88.16,2.16.2,2.23.59.04.2.86.54,1.66.6.82.06,1.59-.05,1.91-.18.52-.23-1.05-.34-1.53-.5-.93-.32-1.57-.67-2.34-1,.52-.17,2.69.31,2.63-.09,1.25.74,6.07.87,5.93,1.62-.07.36-2.04.45-2.92.76-.92.32-4.52-.15-7.38-.61-1.28-.22-2.49-.55-3.77-.73-1.24-.18-2.73-.68-3.67-.47-1.01.22,2.44.46,1.76.77-2.01.06-4.08-.04-6.35-.49-.12-.63-.68-1.17-4.17-.87-2.59.22-5.77-.83-8.28-.28h-.95s-1.8-.27-1.8-.27c-3.02-.76-6.31-.89-9.87-.29-2.11-.49-4.51-.73-7.59-.34l-1.31.02c.16-.05.25-.13.48-.16,1.74-.24,2.89-.52,1.1-.92-.47-.11-1.76-.22-1.54-.03.52.45-5.19.66-1,1.24-1.13.08-2.78,0-2.76.43h-1.96c-.07-.23,1.49-.47.16-.66-1.06-.15-2.2-.04-3.07.17h-1.24c-2.54-.06-2.7-.48-3.06-.88-.21-.23-.81-.41-2.02-.4-.45,0-1.16.1-1.3.19-.4.24.59.29,1.36.37,2.8.32-2.24.77.2,1.1-.6.39-2.17.37-3.63.4l-.02-.27c.03-.26,2.2-.64-.12-.75-1.71-.08-2.91.25-2.56.69l-2.25.02-3.11-.34c-.87-.29-1.31-.59-.57-.95.34-.16.25-.32-.73-.33-1.19-.02-1.37.18-1.55.37l-1.67-.17-.05-.58c2.83.02,6.01-.28,7.92.45.72.28,1.77.11,1.93-.19.12-.21-.11-.45,1.09-.58,4.9-.58,9.95-.68,15.13-.35,3.16.73,9.72.63,13.66-.22Zm32.14,3.49c-.33-.04-.66,0-1,.01.27.09.51.21.82.26.32.05.69.02,1.3.04-.51-.14-.82-.27-1.13-.31Z"/><path d="m100.57,65.46c2.36.05,3.42.43,4.61.83.59.19.17.58,2.06.56,1.52-.02,1.19-.34.93-.63-.26-.27-.39-.54-.57-.81,1.85.11,3.7.17,5.54.24,0,.27-.66.59,1.86.69,1.9.07,2.76.26,2.67.63-.22.2-2.44.14-1.36.5.38.12,1.25.28,1.83.3,1.94.04.67-.34,1.1-.51.24-.09.42-.2.78-.27.7-.13,2.74-.14,1.98-.4-.87-.28-2.34.04-3.67-.07l.02-.5c5.26.12,10.34.45,15.38.78-.83.54-1.38,1.2-5.71.63-.71-.1-1.87-.09-2.17.12-.32.22.57.31,1.56.38.31.29.63.59.82.91l-1.44.11,1.15.27c-3.45.25-6.67.04-9.67-.55-.77-.38-2.29-.83-3.89-.59-1.53.23-3.64.04-5.63-.12-1.99-.17-3.86-.29-4.9.16-2.92-.45-6.02-.55-9.03-.82.18-.6-2.12-.89-4.07-.9-1.73,0-2.75-.16-4.02-.45.5-.5,3.5.18,4.75-.04.47-.09,1.96.61,2.67.27.44-.2-1.05-.54-1.96-.83-.93-.28-1.67-.4-3-.32-1.67.08-3.61.09-5.02-.65-.85-.44-2.46-.37-3.41-.35-1.66.03-.35.33.58.59,1.48.41,2.94.84,2.61,1.25l-.98.05c-1.61-.9-4.91-.98-7.66-1.41-1.07-.17-3.57-.26-2.76-.83.2-.14-3.18-.33-3.3-.17-.25.33-1.15.2-2.36.02l-.89-.14c-1.69-.13-3.71-.2-2.91-.79.9-.26.87-.25-.52-.6-.61-.15-1.42-.39-1.54-.52-.41-.45,2.07.06,2.51-.13,1.27.17,2.58.27,3.84.44,1.26.15,2.46.38,3.49.85.53.24,2.18.21,2.09.14-.41-.31,3.1.07.68-.55.13-.16.4-.15,1.41.01,3.3.53,6.6,1.15,10.01,1.23.34,1.37,4.25.68,6.44.98,2.55.27,4.48-.09,7.18.25-.66.31-2.64.66,1.9.75Zm10.59,1.3l-.53.13c.23.03.49.08.69.08.17,0,.26-.06.4-.09-.19-.04-.37-.08-.55-.12Z"/><path d="m130.86,3.03c-3.21.38-7.14.62-10.09,1.09-2.64.04-6.63.64-9.74.93-.88.08-1.22.13-1.85.23-1.93.3-2.37.74-.22.56,2.26-.19,2.97-.19,3.56-.14.61.06,1.73.07,3.85-.34.23-.05,1.12-.16,1.5-.18,3.7-.28,7.25-.7,10.9-.99,8.39-.67,16.8-1.24,25.21-1.68l-.03-.18c-.71.04-1.29.06-1.45,0-1.25.09-2.74.2-3.77.28-2.49.14-5.54.48-7.52.39-1.19-.08-9.76.37-11.49.61-.29.04-.59.1-.54.11.43.15-1.19.2-1.93.22-.89.03-1.43,0-2.2.03-.44.01-1.79.18-1.67.11.08-.05.86-.16,1.91-.28,2.2-.24,5.32-.48,5.59-.75Z"/><path d="m9.2,46.89c1.98,1.14,4.32,2.46,5.85,2.69-.55-.34-1.22-.84-1.63-1.02-1.59-.68-3.12-1.35-3.94-2.42-.67-.89.66-.23,1.68.07,1.8.56,2.93,1.39,4.13,2.34.75.59,2.11,1.36,2.89,1.49,2.61.56,3.46,1.45,4.8,2.3.46.2.97.43,1.41.61.44.17.78.35.85.52.03.07-.45.05-.62-.02-1.23-.45-1.15-.76-1.63-1.11l-2.94-.25c1.43,1.39,3.83,2,6.04,2.51.03-.26.25-.42,1.8.07.03-.17.23-.3.06-.53-.51-.7,2,.24,2.83.27.23,0,.76.13.88.31.24.37-.65.18-1.65,0-.57-.1-.27.35-.36.56.46.03,1.26.34,2,.6.74.23,1.43.38,1.62.18-.3-.15-1.15-.42-.27-.31l.24.31c1.21.46.32.68,1.88,1.1.55.15,1.09-.07,1.63-.13.02-.15.24-.23,1-.09-.02-.06-.05-.13-.09-.2l-.81-.24c-1.28-.65-5.42-2.12.39-.75.38.09.61-.07.91-.12-1.24-.32-2.51-.65-3.76-.97-.62-.17-1.22-.36-1.81-.57-.58-.22-1.12-.52-1.62-.82-.24-.15-3.63-.85-5.82-1.57-.68.02-1.39-.3-2.68-.8-1.87-.78-3.75-1.61-5.58-2.54-1.82-.94-3.6-1.85-5.39-2.61-1.04-1.24-3.67-2.28-4.7-3.6-1-1.25-1.78-2.16-3.02-3.57-.1-.12-.21-.24-.3-.36-.08-.13-.15-.25-.22-.36-.14-.23-.26-.45-.37-.66-.15-.43-.22-.8-.26-1.09,0-.59.22-.87.5-.9-.12-1.2.29-2.39,1.03-3.49-.2-.02-.19-.29-.08-.67.14-.36.35-.85.58-1.24-.87.55-1.64,1.3-1.97,1.4-.16.05-.23-.08-.08-.47.13-.4.47-1.08,1.2-1.98.38-.46,0-.3-.48.09-.51.83-1.28,1.73-1.85,2.8-.57,1.07-.84,2.31-.73,3.19.12.49.21.9.3,1.26.08.35.22.6.28.83.16.44.18.73.21.9.03.36-.24.41-.28.72.17.33.3.68.51.97.11,0,.27.09.48.32.21.23.46.59.85,1.03.3-.06.82.51,1.62,1.25l.15-.26c.73.78.54.74.43.85,1.35,1.67,3.96,3.48,3.91,4.19Z"/><path d="m181.83.54c-1.17,0-1.99.1-2.6.21-1.29.22-2.87.45-.46.62,3.79.27,3.95-.22,5.91-.35l3.61.14c1.69.32,4.93.06,7.1.22l.04.26c-2.09-.04-4.51.19-6.07-.01-1.97-.26-4.02-.18-6.32-.1-9.07.29-18.17.59-27.29.88-.17-.1-.16-.19.97-.31l1.75-.08.91.05c.28.03.55.03.82-.04,5.76-.29,6.56-.41,4.35-.73-.07,0-.09-.02-.13-.04-5.08.45-6.47-.24-11.45.2-2.07.18-4.82.37-5.39.13,1.36-.1,2.87-.45,3.33-.35.87.19,2.29-.03,3.68-.11,4.95-.3,9.79-.48,14.88-.71,3.62-.16,7.31-.23,11.02-.32,3.71-.03,7.44-.07,11.16-.1,1.48,0,3.84-.08,3.95.25-.87.21-2.27.22-3.81.08-1.86-.18-3.12-.05-4.28.12-1.91-.08-3.83-.17-5.69.07Zm-9.07.87c-.04-.1-.57-.27-2.05-.18-1.43.1-3.52.3-3.6.41-.15.22,1.7-.06,2.37-.02,1.3-.08,3.39.09,3.27-.21Zm-4.27-.71c-.94.02-2.6.1-2.66.27-.03.1.58.17,1.58.12,1.07-.04,2.11-.14,3.49-.23-1.02-.08-1.66-.18-2.4-.16Zm5.53.51h.55s-.07-.04-.07-.04c-.41.01-.43.03-.48.04Z"/><path d="m133.51,2.43c-2.25.2-4.01.19-6.55.05-3.69-.19-8.29.13-12.48.33-2.1.09-4.35-.06-6.3.33v.53c.47.23,1.68.57.26.71-4.17.43-3.57,1.38-6.45,1.92,1.54-.08,2.9-.24,4.1-.48.15-.01.29-.03.4-.06.15-.25-.52-.54,1.15-.72,1.31-.14,2.25-.06,2.45.23l.22.06-.2-.07c-1.95-.1-1.99.47-3.6.5-.1.03-.14.07-.12.1,1.86.48,4.09-.14,6.1-.12,2.55-.65,5.26-.69,8.02-.29.82.12,1.36.31,2.27-.04,1.4-.54,3.45-.41,5.43-.27,2.81-.45,1.5-.93.81-1.41-.18-.13-.78-.29.22-.39.85-.09,1.35.04,1.7.18l1-.03c-.54-.4,2.14-.65,1.58-1.05Z"/><path d="m168.26,68.96c1.79.27,3.65.46,6.11.17,3.06-.58,6.32-.69,9.81-.39.65-.25,1.89-.35,2.99-.48l1.85.08c-.23-.16-.58-.45-.66-.45-3.36.22-5.64-.32-8.89-.22-2.36.09-4.52.1-5.17-.45-.02-.02-.26-.02-.39-.03-.44.07-.89.14-1.34.21.4.62-1.98.6-3.8.59-5.97-.14-11.97.29-18.03-.06-3.65-.21-3.85-.05-2.11-.72.53-.2.88-.42,1.31-.63-3.47.11-7.5-.24-10.3.43.65.06,1.29.14,1.97.16,1.11.04,2.72-.34,3.2.05.2.16-1.55.44-2.66.61-.59.09-1.71.05-2.59.06-.74,0-1.54,0-1.9.15-.46.21.3.32,1.07.41,1.19.16,1.51.53,3.37.52,2.35.39,4.93.6,8.02.43,3.53-.5,7.65-.55,11.8-.54-.06-.15.13-.33.88-.33,1.32,0,.48.25.77.38,1.75-.52,3.55-1.16,4.68.03Z"/><path d="m158.48,2.03l.91.05.41-.02.41-.02c5.76-.29,6.56-.41,4.35-.73-.07,0-.09-.02-.13-.04-5.08.45-6.47-.24-11.45.2-2.07.18-4.82.37-5.39.13-1.49.22-4.18.36-5.29.61,1.44.04.05.36-.7.41-2.2.15-.87-.13-1.19-.21-.07-.02,0-.05,0-.07-1.7-.07-4.56.39-6.45.43-1.16.17-2.19.25-3.08.25-.28.27-3.4.51-5.6.75-1.05.12-1.83.23-1.91.28-.12.07,1.23-.1,1.67-.11.77-.02,1.31,0,2.2-.03.74-.03,2.36-.08,1.93-.22-.05-.02.25-.08.54-.11,1.73-.24,10.3-.69,11.49-.61,1.98.09,5.03-.25,7.52-.39,1.03-.08,2.52-.19,3.77-.28,1.21-.14,1.27-.05,1.46,0l.03.18,1.78-.07c-.17-.1-.16-.19.97-.31.22-.05.38-.13.67-.15.94-.06.95.02,1.08.08Z"/><path d="m93.93,6.61l-.07-.21c-.75-.37-1.36-.76-2.3-1.09-2.01-.71-5.61-.53-8.47.46-.36.12-.53.28-.97.36-1.65.33-1.7.95-.02,1.02q.7.03,1.05-.39c.17-.2.09-.44,1.35-.56.38-.04.83.14,1.25.22,2.38-.04,2.26.41,2.82.72-2.68.42-5.43.65-8.21.79,1.08-.69-1.64-.53-2.97-.69l-1.36.51-2.8.53s-.07-.09-.05-.14c1.64-.85-1.11-1.08-1.11-1.69l1.71-.24s.01.07.1.07c1.24.04,1.09.67,2.56.38,2.18-.4-.32-.57.05-.93l.98-.51c4.18-.42,8.44-.95,12.54-.95l1.77-.13.1.36-.37.12.49-.1,1.11-.08c.57,0,1.38.1,1.34-.18l1.79-.29-.25.07-.28-.04c1.26.34,4.33.12,5.23.74.42.29,4.27-.47,6.37-.84.35-.06.57-.15.85-.23.47.23,1.68.57.26.71-4.17.43-3.57,1.38-6.45,1.92-2.77.37-5.46.47-8.06.31Zm-12.03-1.02c-.09-.09-.3-.17-.46-.25-.11.06-.32.13-.32.18,0,.08.14.15.25.25.26-.08.56-.15.53-.18Z"/><path d="m27.89,54.67c-1.56-.49-1.77-.32-1.8-.07l1.43.55,1.13.36c2.73,1.13,5.44,1.99,8.51,2.61,1.25.25,3.02.75,4.46,1.23,1.57.57,4.63,1.29,5.17,1.36,1.4.19,2.79.37,4.16.57,1.37.21,2.72.46,4.07.74,2.68.58,5.33,1.15,7.97,1.73,1.94.42,3.21.38,4.82.59,8.21,1.16,16.44,2.13,24.69,2.88.88.09,1.79.24,2.32.07.18-.6-2.12-.89-4.07-.9-1.73,0-2.75-.16-4.02-.45-.62.17-1.78.02-2.78-.08l-.98.05c-1.61-.9-4.91-.98-7.66-1.41-1.07-.17-3.57-.26-2.76-.83.2-.14-3.18-.33-3.3-.17-.25.33-1.15.2-2.36.02-.32.12-.63.06-.91-.15-1.67-.12-3.69-.2-2.88-.78-.45-.08-.9-.15-1.35-.23-1.45.03-2.95.06-4.84-.64-1.68.1-3.36.34-5.25-.94l-2.56-.53c-.64.31-2.32-.25-3.7-.54-2.03-.44-1.6-.66-1.68-.92-1.23.03-2.43-.13-3.59-.42-1.15-.34-2.27-.81-3.36-1.34-.54.05-1.08.27-1.63.13-1.56-.41-.67-.64-1.88-1.1-.18.2-.86.05-1.6-.18-.73-.26-1.53-.57-2-.59l-1.76-.62Z"/><path d="m56.78,8.46c-1.32-.1-2.75,0-4.56.67,1.12.08,2.22.2,1.03.77-.94.45-1.78.14-2.83.47-1.51-.28-2.25.22-3.11.72-.98.57-1.99.88-2.81.57-2.48.71-1.99,1.05-2.35,1.49.47.31,2.5-.06,3.55.04,1.74-.01,3.96-.4,6.03-.98,1.56-.45,2.93-.7,4.47-.9,1.52-.49-.21-.84,2.49-1.33,2.01-.36,1.74.12,2.1.33l1.78-.33c-.17-.24-.45-.45-.47-.71-.01-.17.8-.36,1.58-.49.67-.11,1.19-.08.83.1-.54.27-2.08.69-.4.6.42-.02,1.83-.56,2.78-.86.3-.11.44-.29,1.09-.23l-1.12.23c.78.61,3,.15,5.32-.37.64-.69-2.97-.48-2.8-1.07-3.82.88-3.85.42-3.63-.15-1.54.32-2.87.15-4.45.59.33.57-1.3,1.37-3.97,1.77-3.71.54,1.1-.75-.23-.81-.18,0-.23-.07-.33-.11Z"/><path d="m266.2,57.88l1.41-.47,2.66-1.08.97-.41s-.08-.06-.13-.09c-.6.18-.91.22-.46-.08.06-.04.3-.15.38-.17.79-.21.02.18.05.27,1.4-.53,2.39-1.02,2.95-1.5.89-.73,2.16-1.37,3.23-1.77,1.07-.4,1.93-.58,1.94-.48.02.29.57.21,1.3-.07.73-.29,1.65-.74,2.44-1.08,1.84-1.16,3.61-2.4,5.37-3.73.77-.58,2.32-1.6,1.72-1.54-.49.06-2.04,1.32-2.52,1.51-1.44.63-3.19,2.45-4.28,2.29-1.07.51-2.32,1.17-2.61,1-.88.48-1.84.93-2.5,1.04-1,.43-2.01.87-3.02,1.31-1.02.41-2.05.77-3.07,1.14-2.01.76-3.87,1.49-5.74,2.24-1.86.79-3.79,1.4-5.91,1.88l.09.35c1.03-.31,2.1-.64,2.7-.58,0,.22.02.43-1.56.89l.88.24c1.24-.34,2.48-.68,3.7-1.11Z"/><path d="m3.31,28.85c.48-.38.86-.55.48-.09-.74.9-1.07,1.58-1.2,1.98-.14.39-.07.52.08.47.33-.1,1.11-.84,1.97-1.4.36-.41.76-.79,1.17-1.16l-.37-.37-.21.09.2-.08c1.23-.91,3.83-3.01,4.02-2.22,2.11-1.37,4.43-1.87,6.7-3.57.32-.26,1.99-.83,2.2-.59.81-.34,1.61-.7,2.43-1.03.88-.85,3.92-2.27,3.09-2.63-.04-.02.51-.29.79-.44,2.21.26,2.55-1.22,4.09-1.57-.03-.05-.04-.11-.06-.17-2.33.28-3.67.79-4.59,1.33-.92.53-1.41,1.14-2.03,1.73l-.31.17.33-.18c-.88.28-2.46.85-2.52.8-.47-.5-1.39-.21-2.5.35-1.11.56-2.35,1.48-3.55,2.11-2.47,1.39-5.16,3.2-7.54,4.31-1.08.7-1.27.14-2.91,1.84l.23.29Z"/><path d="m144.35,3.63l-1.67-.17c-4.08-.06-4.04-.66-3.62-1.3-1.35-.2-1.27.16-1.93.23,1.22.83-.77,1.61-4.47,1.77.86.42.93.86.02,1.32.94.43,1.72.11,2.54-.06-.54-.09-.68-.23.05-.27,1-.04.84.17.94.31,2.16.6,5.34.13,7.63.08,3.76-.08,7.86.19,11.42-.34l-.02-.27-2.61-.07c-.82.35-1.56.18-2.31.02l-3.11-.34c-.22.25-.41.53-2.08.51-1.13-.01-1.78-.19-2.32-.38-1.26-.44.45-.72,1.54-1.04Z"/><path d="m283.24,49.48c1.09.15,2.84-1.67,4.28-2.29.48-.19,2.04-1.45,2.52-1.51.6-.06-.95.96-1.72,1.54-1.76,1.33-3.53,2.57-5.37,3.73l.83-.13.95-.49c2.35-1.81,5.71-3.54,8.22-5.84.5-.65.24-.65-.17-.53-.74.16,0-.54,1.48-2.04l-.08-.13c-.13-.16.25-.66,1.04-1.63.15-.21.3-.41.43-.62-.27.13-1.05.96-.3-.31l-.16-.02c-1.4,1.96-3.32,3.58-5.35,5.04-2.05,1.45-4.22,2.78-6.42,4.1.88-.1,2.41-.52-.15,1.15Z"/><path d="m211.67,67.38c1.07-.1,1.02.63,2.89-.04,1.39-.51,2.79-.02,4.2-.32.34-.71,2.27-.77,4.32-.72,1.73.04,3.14-.21,4.4-.56,1.31-.4,1.87-.74.42-.87-1.9.18-3.67.09-5.69.44-6.3,1.09-7.02,1.04-12.15.9-.12,0-.37,0-.4,0-2.55.87-6.56.11-9.18.84.27.3.32.62,2.12.69.05-.23.47-.28,1.7-.31,2.6-.04,5.03-.1,7.36-.04Z"/><path d="m283.24,49.48c2.56-1.68,1.03-1.25.15-1.15-.92.39-1.71.67-2.56,1.06-.85.4-1.75.91-2.96,1.68-.87.55-2.26,1.24-3.85,1.83-1.59.58-3.33,1.21-4.88,1.78-4.16,1.49-8.59,2.97-13.01,3.79-1.94.35-3.2.68-2.89,1.06.3.38,1.85,0,3.57-.48,1.21-.27,2.39-.62,3.58-.97,2.12-.49,4.05-1.1,5.91-1.88,1.87-.75,3.74-1.47,5.74-2.24,1.02-.37,2.05-.73,3.07-1.14,1.01-.44,2.01-.87,3.02-1.31.45-.29.93-.66,1.35-.83.9-.43,1.06-.32,1.16-.21.29.17,1.53-.49,2.61-1Z"/><path d="m22.08,19.15c.63-.59,1.11-1.2,2.03-1.73.92-.54,2.26-1.05,4.59-1.33,1.13-.49,2.27-.92,3.42-1.36.89-.43,1.83-.84,1.51-1.04-1.78.07-3.85,1.06-5.63,1.71-3.42,1.19-6.81,2.47-10.12,3.98-3.33,1.51-6.54,3.16-9.63,5.24-1.64,1.13-1.76,1.48-2.25,2.09,2.38-1.11,5.07-2.91,7.54-4.31,1.2-.64,2.44-1.55,3.55-2.11,1.11-.56,2.03-.85,2.5-.35.06.06,1.65-.52,2.5-.79Z"/><path d="m149.95,66.59c-.43.21-.78.43-1.31.63-1.75.67-1.54.51,2.11.72,6.06.35,12.06-.08,18.03.06,1.82.01,4.2.04,3.8-.59-3.4-.58-7.09-.47-11.16-.11-2.62.23-4.63.11-4.13-.58-2.64.31-4.83-.18-7.34-.14Z"/><path d="m200.48,67.04c2.62-.73,6.63.04,9.18-.84.03-.01.27-.01.4,0,5.13.14,5.85.2,12.15-.9,2.02-.35,3.79-.26,5.69-.44-.86-.45-1.81-.93-4.95-.9l-2.25.56c-.81.43-2.11.56-3.95.63-2.25.09-4.96.34-6.9.44-3.92.24-7.38.93-11.13.78l1.03.68c.25-.01.5-.02.74-.02Z"/><path d="m246.05,61.29c-1.06.74-1.92,1.39,2.73.55,1.5-.27.6.12.51.28-2.23.74-4.79,1.1-6.47,1.11-4.26.11-5.12.72-5.94,1.47-.28.06-.57.11-.85.16-2.8.05-7.33.47-3.16-.95.75-.25.69-.54,1.01-.82,2.36-.27,4.71-.71,7.05-1.04,1.52-.22,2.66-.42,2.76-.77.87-.12,1.74-.29,2.61-.44-.08.15-.01.28-.25.45Zm-7.41,1.7c-.09,0-.25.02-.47.11.13-.01.26-.03.47-.11Z"/><path d="m223.91,5.5c1.25.74,6.07.87,5.93,1.62-.07.36-2.04.45-2.92.76-.92.32-4.52-.15-7.38-.61-1.28-.22-2.49-.55-3.77-.73-1.24-.18-2.73-.68-3.67-.47-1.01.22,2.44.46,1.76.77,4.13,1.14,9.47,1.11,13.7,2.45,1.33.41,1.13-.16,2.24-.04,1.1-.01-3.62-1.17.34-.63,1.42-.32,4.94.08,4.57-.74-.8-.22-1.86-.45-2.37-.65-1.26-.53-1.06-1.46-4.59-1.24-.02,0-.31-.11-.7-.24-.38-.13-.86-.29-1.23-.38-2.18-.53-4.3-.83-6.2-.78.53.83,3.1.46,4.31.92Z"/><path d="m235.16,10.14c1.08.24,1.83.51,2.35.81,1.3.77,3.87,1.61,6,1.82,1.91.19,3.69.18,4.03-.26.63-.81-1.59-1.8-6.84-2.9-1.28-.26-2.81-.88-4.23-1.32-1.68.07-1.16.64.49,1.29,1.67.66,3.3.82,4.61.78.48-.02,2.6.31,2.33.63-.24.28.88.86.05.98-.51.07-.8.26-2.21-.04-1.46-.31-2.05-.65-2.16-.92-.12-.28-.29-.53-1.92-.86-1.58-.32-2.43-.32-2.48-.01Z"/><path d="m198.72,66.38c3.76.15,7.22-.55,11.13-.78,1.94-.1,4.65-.35,6.9-.44,1.85-.07,3.14-.2,3.95-.63-3.21-.53-7.87.23-11.75.5-2.9.19-5.83.39-8.74.58-2.91.18-5.81.29-8.65.09l-.46.25c.85.24,3.81.45-.68.72-1.47.09-2.29.41.25.43,2.67-.23,4.59-1,8.04-.72Z"/><path d="m3.13,35.22c-.27.03-.49.31-.5.9.04.29.11.66.26,1.09.11.21.23.43.37.66.07.12.14.24.22.36.1.11.2.23.3.36,1.24,1.41,2.03,2.31,3.02,3.57,1.02,1.32,3.65,2.36,4.7,3.6,1.79.76,3.57,1.68,5.39,2.61,1.83.93,3.71,1.76,5.58,2.54,1.29.5,2,.82,2.68.8-1.64-.89-3.34-1.81-5.16-2.63-1.82-.8-3.71-1.71-5.61-2.68-2.42-1.23-4.84-2.65-6.92-4.65-.89-.87-1.91-1.84-2.78-2.94-.87-1.09-1.48-2.36-1.55-3.59Z"/><path d="m169.82,4.9h-1.96s-2.91-.5-2.91-.5c-.41,0-.82,0-1.24,0l-4.02.43c2.38.94,7.1.6,10.49.61,6.75.05,13.56-.34,20.3-.33l1.81-.16c-3.02-.76-6.31-.89-9.87-.29-2.88.21-5.94.58-7.59-.34l-1.31.02-.93.05c.01.14.05.2.09.27.09.05.19.09.29.14l-.65-.06-2.51.16Z"/><path d="m292.06,25.62c-1.81-1.76-3.85-3.32-6.08-4.62-.88-.53-1.72-1.07-2.51-1.57-.8-.49-1.53-.97-2.13-1.44-1.22-.66-1.85-.95-2.46-1.27-2.92-1.53-5.92-2.65-9.08-4.18-1.63-.82-2.71-.74-3.29-.71,2.32.85,4.57,1.88,6.83,2.85,2.23,1.06,4.46,2.11,6.64,3.27,4.34,2.3,8.59,4.86,12.18,8.09l-.09-.42Z"/><path d="m249.29,62.11c-2.23.74-4.79,1.1-6.47,1.11-4.26.11-5.12.72-5.94,1.47l5.18-.68,2.59-.35,2.57-.46c1.71-.32,3.43-.64,5.13-1.04,1.69-.44,3.37-.92,5.04-1.44,1.62-.48,2.71-.49,4.02-.9.91-.27,2.06-.61,3.03-.9.96-.32,1.69-.7,1.77-1.03-1.22.43-2.46.77-3.7,1.11-2.05.53-4.08,1.11-6.16,1.51-2.34.57-4.68,1.17-7.05,1.61Z"/><path d="m228.94,2.49c.11-.16-.45-.5,2.42-.08,1.79.28,3.33.41,3.06.07-3.68-.63-7.38-1.06-11.12-1.47-3.75-.3-7.54-.6-11.4-.6l.04.16.26.13c.14,0,.29,0,.45.01,1.29-.01,2.58-.02,2.94.25.23,0,.47.02.7.04l2.71.29c.43-.19,1.35-.16,2.8.08,1.6.12,3.28.06,4.71.41.47.12-.26.17-1.06.16l-.08.09.85.3c1.56.37,1.74.06,2.72.16Z"/><path d="m236.03,64.85c-2.8.05-7.33.47-3.16-.95.75-.25.69-.54,1.01-.82-1.31.11-.9-.13-1-.26l-1.74.26c.59.3-1.66.73-1.68,1.06l1.18-.07c-.09.03-.24.09-.25.09-.33,0-.65,0-.96-.01-1.58-.03-.67-.48-1.02-.72-1.81-.19-3.63-.13-5.45.53,3.14-.03,4.08.45,4.95.9,1.45.12.89.46-.42.86-1.27.35-2.67.6-4.4.56-2.05-.05-3.98,0-4.32.72,4.57-.36,9.18-1.08,13.7-1.41,1.79-.11,2.69-.42,3.57-.75Z"/><path d="m190.68,67.1c-2.54-.01-1.72-.34-.25-.43,4.5-.27,1.53-.48.68-.72-.76.36-2.17.16-3.25.25.13.22-.69.56-1.36.49-3.3-.32-5.61.44-8.48.43-1.52.31-1.61.08-1.74-.15-1.56-.25-1.94,0-2.38.24.14,0,.37.01.39.03.65.55,2.81.54,5.17.45,3.24-.11,5.52.44,8.89.22.08,0,.43.29.66.45l3.53.2,1.88.13.2-.5c-4,.05-4.25-.48-3.94-1.09Z"/><path d="m142.1,68.99c-1.86,0-2.18-.36-3.37-.52-.76-.1-1.53-.21-1.07-.41.36-.16,1.16-.14,1.9-.15.88,0,2,.03,2.59-.06,1.11-.17,2.86-.45,2.66-.61-.49-.39-2.09-.02-3.2-.05-.68-.02-1.31-.11-1.97-.16-.85-.28-1.63-.01-2.44,0-1.36.12-2.81.31-2.41.61,1.54,1.17-2.66,1.15-6.45,1.16.45.26,2.44.19,2.58.51,3.1-.16,6.04.24,9.17.18,2.24-.03,1.76-.28,2.02-.51Z"/><path d="m178.02,67.12c2.87,0,5.18-.75,8.48-.43.67.07,1.48-.27,1.36-.49-5.74.18-11.45.28-17.18.51-2.87.12-5.9,0-8.75-.09-1.72-.06-3.12.02-4.63.12-.5.69,1.5.81,4.13.58,4.07-.36,7.76-.47,11.16.11.45-.07.89-.14,1.34-.21.44-.23.82-.5,2.38-.24l1.74.15Z"/><path d="m249.29,62.11c2.37-.43,4.71-1.04,7.05-1.61v-.34c-.97.22-1.83.37-1.72.13.1-.23,1.07-.46,1.94-.67.29-.23.27-.4.25-.58-1.72.48-3.27.87-3.57.48-1.13.19-2.28.38-3.44.58-1.16.21-2.33.46-3.5.73-.08.15-.01.28-.25.45-1.06.74-1.92,1.39,2.73.55,1.5-.27.6.12.51.28Z"/><path d="m32.12,14.73c-1.14.44-2.29.88-3.42,1.36l.05.17h.21s-.2,0-.2,0c-1.54.34-1.88,1.83-4.09,1.57-.28.15-.83.42-.79.44.83.35-2.21,1.78-3.09,2.63.26.11.99-.22,1.65-.49.75-.64,2.2-1.11,3.45-1.6.96-.25,1.29-1.15,1.96-.84.71.33,2.13-.55,3.05-.71,1.39-.81,2.14-.84,2.74-.69.91-.21,2.08-.17,2.5-.8l.31-.38c-1.09.19-1.7.04-3.18.51-1.04.2-.72-.11-.86-.25-4.71,1.16.42-.8-.29-.9Z"/><path d="m214.45,2.07c-1.51-.27-3.29-.49-4.73-.79-2.96-.63-8.57-.53-10.96-.06,2.22.04,4.7.1,3.13.45,2.13.09,4.26.18,6.36.28,2.1.1,4.17.16,6.2.12Z"/><path d="m32.41,15.64c-4.71,1.16.42-.8-.29-.9.89-.43,1.83-.84,1.51-1.04,2.65-.84,5.37-2.1,7.97-2.04.13,0,.17.03.14.09-3.4,1.43-3.46,2.29-3.07,3.01-.74.2-1.49.4-2.22.63-1.09.19-1.7.04-3.18.51.04-.21.02-.39-.86-.25Zm2.6-1.4c-.59.08-1.07.38-.87.43.41.09-1.25.99,1.42.21,1.3-.47,1.16-.57.15-.44-.22-.07-.25-.26-.7-.2Z"/><path d="m20.05,52.1c-.78-.35-1.3-.94-2.31-1.06-2.26-.28-2.16-.93-2.69-1.46-.55-.34-1.22-.84-1.63-1.02-1.59-.68-3.12-1.35-3.94-2.42-.67-.89.66-.23,1.68.07,1.8.56,2.93,1.39,4.13,2.34.75.59,2.11,1.36,2.89,1.49,2.61.56,3.46,1.45,4.8,2.3-.97-.08-1.95-.17-2.93-.25Zm-8.87-5.12s.29.15.32.14c.06-.02.04-.09.05-.13l-.65-.31c.09.1.17.19.29.3Z"/><path d="m246.33,4.61c.9.18,1.82.37,2.73.55.91.22,1.81.43,2.71.65.9.21,1.79.4,2.66.56.86.2,1.71.37,2.54.49.84.13,1.94.56,2.71.85,1.39.59,2.37.84,3.22.91-2.84-1.37-6.54-2.25-9.99-3-2.24-.48-4.38-1.08-6.55-1.53-1.08-.24-2.17-.48-3.28-.69-1.11-.18-2.23-.33-3.38-.45-.67-.07-1.48-.2-1.79-.14.89.4,2.44.73,4.27.85,2.21.16,3.2.56,4.16.95Z"/><path d="m235.16,10.14c.06-.31.9-.31,2.48.01,1.63.34,1.8.58,1.92.86.11.27.7.61,2.16.92,1.41.3,1.69.12,2.21.04.83-.12-.29-.7-.05-.98.27-.32-1.85-.65-2.33-.63-1.31.03-2.94-.12-4.61-.78-1.65-.65-2.17-1.22-.49-1.29-.56-.25-1.14-.44-1.77-.39.37.83-3.15.43-4.57.74.9.34,1.72.67,1.73.94l3.3.56Z"/><path d="m36.76,57.04c1.1.53,2.21,1,3.36,1.34,1.16.29,2.35.46,3.59.42,1.49-.22,5.64.93,6.54.35l-.19-.64c-1.5-.47-2.87-.8-4.18-.83-.22.06.31.35-.62.19l-.21-.38c-.25-.09-.52-.17-.83-.22-3.61-.74-3.14.43-6.46-.33-.76-.13-.98-.06-1,.09Z"/><path d="m283.78,50.81l-.83.13c-.8.34-1.72.79-2.44,1.08-.73.28-1.29.37-1.3.07,0-.1-.87.08-1.94.48-1.07.4-2.34,1.04-3.23,1.77-.55.48-1.55.97-2.95,1.5.08.01.12.04.16.08l.1.47c2.11-.76,4.27-1.4,6.33-2.35,1.04-.46,2.08-.91,3.1-1.44,1.01-.56,2.01-1.15,3-1.79Z"/><path d="m285.48,18.43c-.5.14,1.19,1.18,2.47,2.17,2.83,2.05,5.85,4.75,7.88,7.14.73.81,1.24,1.58,1.68,2.4.41.83.77,1.7.95,2.81.16,1.35.33.58.49.68-.08-1.26-.43-2.46-.91-3.56-.51-1.08-1.11-2.11-1.84-3.01-1.42-1.84-3.15-3.38-5.06-4.74-1.66-1.16-3.69-2.71-5.66-3.9Z"/><path d="m5.82,28.66c-.41.37-.8.75-1.17,1.16-.23.39-.44.88-.58,1.24-.1.38-.12.65.08.67,1.22-1.57,2.95-2.99,4.82-4.26,1.89-1.26,3.94-2.37,6.07-3.17,1.72-.61,1.88-1.54,3.32-2.37-.21-.24-1.88.32-2.2.59-2.27,1.7-4.59,2.2-6.7,3.57-.79,1.74-2.56,1.48-3.65,2.59Z"/><path d="m61.75,62.37c.45.08.9.15,1.35.23.89-.26.86-.25-.53-.6-.61-.15-1.42-.39-1.54-.52-.41-.45,2.07.06,2.51-.13l-1.82-.66-2.91-.59c-2.01-.13-4.02-.32-6.04-.47,3.93,1.31,3.84,1.43-1.11,1.16,1.89,1.27,3.57,1.04,5.26.94,1.6.24,2.54-.62,4.83.64Z"/><path d="m128.34,68.81c3.79-.01,7.99,0,6.45-1.16-.4-.3,1.05-.49,2.41-.61-.42-.6-2.34-.14-3.48-.22-.83.54-1.38,1.2-5.71.63-.71-.1-1.87-.09-2.17.12-.32.22.57.31,1.51.37l.41-.02-.36.03.94.88Z"/><path d="m41.6,11.65c.13,0,.17.03.14.09.46.18,3.16-.65,2.75-.08.82.31,1.83,0,2.81-.57.86-.51,1.59-1.01,3.11-.72,1.05-.32,1.89-.02,2.83-.47,1.2-.58.1-.69-1.03-.77-3.63.66-7.6.96-10.62,2.53Z"/><path d="m95.72,4c1.26.34,4.33.12,5.23.74.42.29,4.27-.47,6.37-.84.35-.06.57-.15.85-.23v-.53c-3.27-.26-6.27.54-9.5.51l-2.37.2c-.31.03-.5.07-.58.14Z"/><path d="m229.75,3.47c-.6-.23-2.92-.66-5.43-1.05-2.5-.38-5.2-.61-6.51-.65-2.6-.06-.97.33-1.5.5,1.64.08,3.31.06,4.85.4.33.07,1.48.2,1.55.19,2.13-.2,4.73.44,7.04.61Z"/><path d="m223.91,5.5c-1.21-.46-3.78-.09-4.31-.92-1.24-.53-2.55-.51-3.84-.53-2.2.25-5.55-.4-8.09-.35.48.36.37.75,3.09.69,1.64-.02,3.98.32,6,.54l1.15-.1.34.16-1.42-.05c1.64.35-3.62.85,2.53,1.12.26-.26-.49-.78,1.93-.49.52-.17,2.69.31,2.63-.09Z"/><path d="m283.7,17.81c.08-.03-.16-.26.54.11-4.78-2.83-9.95-5.67-14.71-6.7l.06.2,3.34,1.38c3.65,1.51,7.26,3.1,10.77,5.01Z"/><path d="m207.68,3.71c2.54-.05,5.89.6,8.09.35-.21-.65-2.27-.41-3.29-.57-3.91-.65-7.99-.85-11.98-.92.74,1.11,4.67.78,7.18,1.15Z"/><path d="m142.63,2.88c2.83.02,6.01-.28,7.92.45.72.28,1.77.11,1.93-.19.12-.21-.11-.45,1.09-.58.38-.6-1.99-.41-3.25-.42-2.83-.03-5.7.02-8.56.05.23.23-.48.53.87.69Z"/><path d="m128.2,5.14c-1.98-.14-4.03-.27-5.43.27-.91.35-1.45.16-2.27.04-2.76-.4-5.47-.36-8.02.29,2.57.43,5.75.26,8.86.13,2.29-.11,4.56-.22,6.84-.32l.02-.41Z"/><path d="m98.67,64.71c-.66.31-2.64.66,1.9.75,2.36.05,3.42.43,4.61.83.59.19.17.58,2.06.56,1.52-.02,1.19-.34.93-.63-.26-.27-.39-.54-.57-.81-2.97-.22-5.95-.42-8.91-.7Z"/><path d="m65.76,7.02c-.22.57-.19,1.03,3.63.15l2.66-.72,1.71-.24c.71-.27,1.73-.37,2.72-.48l.98-.51c.04-.37-1.16-.14-2.11.03-3.23.54-6.41,1.13-9.6,1.77Z"/><path d="m61.72,60.69l1.82.66c1.27.17,2.58.27,3.84.44,1.26.15,2.46.38,3.49.85.53.24,2.18.21,2.09.14-.41-.31,3.1.07.68-.55-1.98-.21-4.02-.62-6.04-.95-2.01-.37-3.99-.67-5.87-.59Z"/><path d="m66.89,8.63c-.96.3-2.36.84-2.78.86-1.68.08-.14-.34.4-.6.37-.18-.15-.21-.83-.1-.77.12-1.59.32-1.58.49.01.26.3.48.47.71,3.3-.02,6.95-.67,10.59-1.24l.05-.46s-.07-.09-.05-.14l-.98.11c-2.32.52-4.53.98-5.29.37Z"/><path d="m37.76,56.94c3.32.77,2.84-.4,6.46.33-1.74-.86-3.51-1.61-6.06-1.64-.3.04-.53.21-.91.12-5.81-1.37-1.67.1-.39.75.17-.08.06-.28,1.09.02l-.28.23c.04.07.07.13.09.2Z"/><path d="m118.26,68.66c-.77-.38-2.29-.83-3.89-.59-1.53.23-3.64.04-5.63-.12-1.99-.17-3.86-.29-4.9.16,4.88.42,9.69.61,14.42.55Z"/><path d="m192.54,68.55l-3.53-.2-1.85-.08c.02.43-1.5.45-2.99.48-3.49-.3-6.74-.19-9.81.39.3.18,1.25.34,1.89.27,5.25-.52,11.19-.05,16.29-.85Z"/><path d="m207.5,6.37c-.12-.63-.68-1.17-4.17-.87-2.59.22-5.77-.83-8.28-.28,3.69.99,8.21.79,12.45,1.15Z"/><path d="m296.94,34.56c.26-.53.42-1.4.28-2.47-.14-1.06-.54-2.29-1.19-3.46-.11.7-1.13-.26-2.55-1.28.99,1.45,2.05,2.58,2.75,3.99.7.63.83,2.07.72,3.21Z"/><path d="m168.7,2.21c3.16.73,9.72.63,13.66-.22-3.9-.33-7.81.02-11.71.06-.1.38-1.05.25-1.95.16Z"/><path d="m4.72,42.12c-.8-.75-1.33-1.31-1.5-1.14.23.35.46.7.72,1.01l.05.33c-.2-.24-.41-.46-.59-.72l-.32-.74c-.38-.44-.63-.8-.84-1.03-.21-.23-.37-.33-.48-.32.92,1.65,1.99,2.96,3.18,4.19,1.2,1.22,2.57,2.3,4.26,3.18.06-.71-2.56-2.51-3.91-4.19-.2-.18-.39-.38-.58-.58Z"/><path d="m161.92,68.88c-4.15,0-8.27.04-11.8.54,1.39.31,2.7.47,4.78.14,2.63-.41,5.91-.06,8.82-.23l-.17-.39c-.53-.02-1.08-.03-1.63-.05Z"/><path d="m132.66,4.16c3.7-.16,5.69-.93,4.47-1.77l-3.62.04c.56.4-2.12.65-1.58,1.05,1.06.17.62.44.73.67Z"/><path d="m52.77,59.63c2.02.16,4.02.34,6.04.47-2.94-.84-5.84-1.64-8.75-1.59l.19.64,2.52.47Z"/><path d="m38.68,14.75c-.74.2-1.49.4-2.22.63l-.31.38c3.26-.82,6.63-1.36,9.55-2.58-1.05-.09-3.08.28-3.56-.04-.61.22-1.14.4-1.65.61-.08.28-.1.55-1.81,1Z"/><path d="m128.2,5.14l-.02.41,4.49-.08c.91-.45.84-.89-.02-1.32-2.19,0-1.68-.36-1.73-.64-.35-.14-.85-.27-1.7-.18-.99.1-.4.27-.22.39.7.48,2,.96-.81,1.41Z"/><path d="m3.31,28.85l-.23-.29c-1.18,1.21-2.42,2.8-2.89,4.78-.52,1.98.08,4.03,1.06,5.21.04-.31.3-.35.28-.72-.03-.17-.05-.46-.21-.9-.06-.23-.21-.48-.28-.83-.08-.35-.18-.77-.3-1.26-.12-.88.15-2.12.73-3.19.57-1.08,1.34-1.97,1.85-2.8Z"/><path d="m194.62,68.19l-.2.5c3.52.19,6.67-.34,9.9-.69l-1.71-.26c-1.81-.06-1.85-.39-2.12-.69-.24,0-.49,0-.74.02.03.66-.49,1.27-5.13,1.13Z"/><path d="m233.88,63.09c2.36-.27,4.71-.71,7.05-1.04,1.52-.22,2.66-.42,2.76-.77-1.6.03-3.25.28-4.91.57-.83.15-1.67.3-2.5.44-.83.13-1.67.22-2.49.29.02.17.03.33.09.5Z"/><path d="m202.61,67.73l1.71.26c2.59.1,5.3.31,7.35-.62-2.33-.06-4.76,0-7.36.04-1.23.03-1.65.08-1.7.31Z"/><path d="m56.78,8.46c.11.04.15.1.33.11,1.32.07-3.49,1.36.23.81,2.67-.4,4.3-1.2,3.97-1.77-1.58.15-3.3.16-4.53.85Z"/><path d="m246.33,4.61c-.95-.39-1.95-.79-4.16-.95-1.83-.13-3.39-.45-4.27-.85-.64-.08-1.45-.21-1.7-.12.5.19,1.01.39,1.51.6,2.77.55,5.56.83,8.31,1.41l.31-.09Z"/><path d="m201.89,1.67c1.57-.35-.9-.41-3.13-.45-1.64-.06-2.68.01-3.37.16l.04.26c2.11-.04,4.22-.11,6.46.02Z"/><path d="m292.94,44.48c-2.51,2.31-5.87,4.03-8.22,5.84,3.08-1.32,5.77-3.41,8.39-5.61l-.18-.24Z"/><path d="m85.05,63.48c.34,1.37,4.25.68,6.44.98-.12-.27.55-.58-2.14-.66-1.34-.04-2.86-.2-4.3-.32Z"/><path d="m60.79,10.31c-.36-.22-.1-.69-2.1-.33-2.7.48-.97.84-2.49,1.33,2.24.11,3.06-.67,4.59-.99Z"/><path d="m159.7,4.83l4.02-.43c-2.54-.05-2.7-.47-3.06-.87-.21-.23-.81-.41-2.02-.4-.45,0-1.16.1-1.3.19-.4.24.59.29,1.36.37,2.8.32-2.24.77.2,1.1.25.02.52.03.8.03Z"/><path d="m197.05.27c1.8-.13,4.21.63,5.63.04-.75-.38-.76-.44-5.63-.04Z"/><path d="m85.74,6.42c2.38-.04,2.26.41,2.82.72,1.85-.13,3.9.01,5.37-.53l-.07-.21c-1.34,0-3.66.31-3.9-.02-.54-.76-2.41-.27-4.22.03Z"/><path d="m80.34,7.93c1.08-.69-1.64-.53-2.97-.69l-1.36.51-1.01.87c1.84-.14,3.41-.74,5.34-.69Z"/><path d="m118.32,66.53l.02-.5c-1.68-.22-3.35-.44-5.22-.37,0,.27-.66.59,1.86.69,1.9.07,2.76.26,2.67.63.84-.09.59-.28.67-.44Z"/><path d="m293.48,27.36c1.43,1.02,2.44,1.97,2.55,1.28-1.28-1.42-3.39-3.1-3.97-3.02l.09.42c.46.43.92.85,1.33,1.32Z"/><path d="m142.63,2.88c-1.35-.16-.63-.45-.87-.69l-2.71-.03c-.42.64-.47,1.24,3.62,1.3l-.05-.58Z"/><path d="m163.56,68.93l.17.39c1.75,0,3.25-.12,4.53-.36-1.13-1.19-2.94-.55-4.7-.03Z"/><path d="m251.1,7.17c.03-.07.21-.12.06-.23-.44-.31,2.17-.07-.55-.73-2.41-.58-.4.25-.79.34-.11.03-.91-.14-1.4-.2.56.27,1.04.56,2.68.82Z"/><path d="m296.94,34.56c.11-1.14-.01-2.58-.72-3.21.21.57.38,1.14.45,1.72.14.65.13,1.22-.01,1.51.02,1.07-.25,2.14-.68,3.16.15-.19.3-.38.42-.58.34-.84.49-1.72.54-2.6Z"/><path d="m140.41,2.35s-.07.05,0,.07c.32.08-1.01.36,1.19.21.75-.05,2.15-.37.7-.41l-1.89.13Z"/><path d="m229.46,64.14c.02-.33,2.27-.76,1.68-1.06l-2.73.35c.36.24-.56.68,1.05.71Z"/><path d="m231.86,9.58c0-.27-.83-.61-1.73-.94-3.95-.55.77.61-.33.63.16.08.38.14.67.17l1.17.2c.25.02.32.01.22-.06Z"/><path d="m94.46,4.26l1.79-.29c-.82-.36-3.01-.08-4.39-.18l-.08.36.1.36c.49-.01.86-.04,1.23-.06.12-.21.74-.2,1.34-.18Z"/><path d="m130.92,69.32c-.14-.32-2.13-.25-2.7-.49l-1.44.11,1.15.27c.95.14,1.95.18,2.99.11Z"/><path d="m33.64,16.57c-.6-.15-1.35-.13-2.74.69.78-.06,1.2.3,2.74-.69Z"/><path d="m270.27,56.33l-2.66,1.08c0,.44,1.49-.16,2.81-.66l-.14-.42Z"/><path d="m25.89,18.81c-1.25.49-2.69.95-3.45,1.6,1.91-.41,2.79-.95,3.45-1.6Z"/><path d="m130.87,3.03c.89,0,1.92-.08,3.08-.25-.99.06-1.59-.12-3.08.25Z"/><path d="m296.4,37.17c-.11.21-.27.4-.42.58-.22.5-.52.97-.81,1.44l.16.02c.55-.55.96-1.25,1.07-2.05Z"/><path d="m106.38,5.86s.02-.07.12-.1c-.13.03-.26.05-.42.06-.08.13-.16.27-.24.41l.54-.37Z"/><path d="m296.66,34.59c.14-.3.16-.87.01-1.51-.25.04-.12.51-.01,1.51Z"/><path d="m136.21,5.45c-.1-.14.06-.35-.94-.31-.73.03-.59.18-.05.27l.99.04Z"/><path d="m91.78,4.15l.08-.36c-.93.12-1.56.28-1.85.49l1.77-.13Z"/><path d="m96.3,3.86l2.37-.2c-1.01-.18-1.81-.12-2.37.2Z"/><path d="m233.84,63.09l-.04-.5c-.6.04-.9.12-.91.24.1.13-.31.37.96.26Z"/><path d="m45.04,57.5l.21.38c.94.16.4-.13.62-.19-.27-.1-.55-.16-.83-.19Z"/><path d="m168.71,2.21c.9.09,1.85.22,1.95-.16-.82-.05-1.64-.09-1.95.16Z"/><path d="m246.03,4.7c-2.75-.58-5.54-.86-8.31-1.41-.97-.16-1.41-.12-1.5-.02l-.17.33c1.54.22,2.02.44,1.45.52-.27.04-.64.1.37.28.29.05.77.11,1.16.15.4.04.72.06.72.05-.11-.52,3.96.1,5.58.17.33,0,.48-.05.72-.07Z"/><path d="m187.51.47c-1.91-.08-3.83-.17-5.68.07,3.21,0,.59.41,2.85.48l3.61.14c-.46-.23-2.38-.42-.78-.7Z"/><path d="m281.34,17.99c.61.47,1.33.95,2.13,1.44.79.5,1.63,1.04,2.51,1.57.03-.16.37-.16,0-.52-.5-.47,1.94.76-.15-.55-1.45-.9-1.28-.54-1.21-.29.03.12-.1.35-.91-.44-1.53-1.41-1.49-.62-2.37-1.21Z"/><path d="m219,1.29l-2.71-.29c-.36.08-2.69.1-.65.33,2.16.3,2.9.15,3.36-.04Z"/><path d="m225.45,1.94c.79.02,1.53-.04,1.06-.16-1.43-.35-3.11-.28-4.71-.41.11.31,2.21.37,3.66.57Z"/><path d="m272.92,12.8l-3.34-1.38c.1.29,1.11.82,2.45,1.35,1.04.41.77.11.89.03Z"/><path d="m295.63,39.52c-.13.21-.27.41-.43.62l.15.24c.68-.85,1.33-2.03,1.31-2.56-.16.29-.3.59-.48.87l-.55.82Z"/><path d="m215.58.96c-.36-.27-1.65-.26-2.94-.25l.08.22c.96,0,1.91.02,2.86.03Z"/><path d="m232.8,3.64c.19.05.37.09.55.13l.52-.04c-.23-.04-.5-.1-.68-.12-.18-.02-.26.02-.4.03Z"/><path d="m278.87,16.71l1.86.95c-.2-.18-.32-.38-.63-.55-.89-.49-.95-.35-1.23-.4Z"/><path d="m226.23,2.34l-.85-.3c-1.38.04-.31.17.85.3Z"/><path d="m212.72.93c-.49-.01-1.2-.07-1.2.03,0,.02.35.08.53.09.83.04.6-.06.67-.11Z"/><path d="m236.04,3.59l.17-.33c-1.17-.04-1.29.06-.17.33Z"/><path d="m260.05,8.97c0-.05-.14-.1-.26-.14,0,.05.14.1.26.14Z"/><path d="m294.16,41.78l.08.13c.39-.49.77-.98,1.09-1.51-.35.48-.76.93-1.17,1.38Z"/><path d="m228.97,2.49l.2.06c-.07-.02-.15-.04-.2-.06Z"/><path d="m212.19.7l-.26-.13c-.79.03-.63.08.26.13Z"/><path d="m144.35,3.63c-1.09.31-2.8.59-1.54,1.04.54.19,1.19.36,2.32.38,1.67.02,1.86-.25,2.08-.51-.87-.29-1.31-.59-.57-.95.34-.16.25-.32-.73-.33-1.19-.02-1.37.18-1.55.37Z"/><path d="m221.28,5.59c-2.41-.29-1.67.22-1.93.49.88.16,2.16.2,2.22.59.04.2.86.54,1.66.6.82.06,1.59-.05,1.91-.18.52-.23-1.05-.34-1.53-.5-.93-.32-1.57-.67-2.34-1Z"/><path d="m174.84,4.32c1.65.92,4.7.55,7.59.34-2.11-.49-4.51-.73-7.59-.34Z"/><path d="m172.6,4.4l.93-.05c.16-.05.25-.13.48-.16,1.74-.24,2.89-.52,1.1-.92-.47-.11-1.76-.22-1.54-.03.52.45-5.19.66-.97,1.16Z"/><path d="m152.63,4.86l2.61.07c.03-.26,2.2-.64-.12-.75-1.71-.08-2.91.25-2.5.68Z"/><path d="m164.96,4.4l2.91.5c-.07-.22,1.49-.47.16-.66-1.06-.15-2.2-.04-3.07.17Z"/><path d="m215.63,5.78c-.51-.14-.82-.27-1.13-.31-.33-.04-.66,0-1,.01.27.09.51.21.82.26.32.05.69.02,1.3.04Z"/><path d="m169.82,4.9l2.51-.16c.12-.03.24-.05.36-.08l-.12-.19c-1.13.08-2.78,0-2.76.43Z"/><path d="m150.32,4.88c.74.15,1.49.32,2.25-.02l-2.25.02Z"/><path d="m210.11,6.12c-.25-.07-.38-.05-.51-.04.09.03.18.05.51.04Z"/><path d="m83.95,65.86c1.01.09,2.16.25,2.78.08.5-.5,3.5.18,4.75-.04.47-.09,1.96.61,2.67.27.44-.2-1.05-.54-1.96-.83-.93-.28-1.67-.4-3-.32-1.67.08-3.61.09-5.02-.65-.85-.44-2.46-.37-3.41-.35-1.66.03-.35.33.58.59,1.48.41,2.94.84,2.61,1.25Z"/><path d="m118.32,66.53c-.08.16.17.35-.67.44-.22.2-2.44.14-1.36.5.38.12,1.25.28,1.83.3,1.94.04.67-.34,1.1-.51.24-.09.42-.2.78-.27.7-.13,2.74-.14,1.98-.4-.87-.28-2.34.04-3.67-.07Z"/><path d="m111.71,66.88c-.19-.04-.37-.08-.55-.12l-.53.13c.23.03.49.08.69.08.17,0,.26-.06.4-.09Z"/><path d="m66.88,63.53l-.89-.14c.29.05.6.1.89.14Z"/><path d="m153.94,2.3c-.19-.06-.25-.15-1.46,0,.17.06.75.05,1.46,0Z"/><path d="m27.89,54.67l1.76.62c.09-.2-.21-.66.36-.56,1,.17,1.88.36,1.65,0-.12-.18-.65-.31-.88-.31-.83-.03-3.34-.97-2.83-.27.17.23-.03.36-.06.53Z"/><path d="m22.99,52.35c.47.35.4.66,1.63,1.11.17.06.65.09.62.02-.07-.18-.41-.35-.85-.52-.43-.18-.95-.41-1.4-.61Z"/><path d="m4.72,42.12c.19.2.38.4.58.58.1-.11.3-.07-.43-.85l-.15.26Z"/><path d="m37.66,56.74l.28-.23c-1.03-.3-.92-.1-1.09-.02l.81.24Z"/><path d="m33.25,56.06l-.24-.31c-.88-.11-.03.16.24.31Z"/><path d="m184.68,1.02c-2.26-.07.36-.49-2.85-.48-1.17,0-1.99.1-2.6.21-1.29.22-2.87.45-.46.62,3.79.27,3.95-.22,5.91-.35Z"/><path d="m169.49,1.62c1.3-.08,3.39.09,3.27-.21-.04-.1-.57-.27-2.05-.18-1.43.1-3.52.3-3.6.41-.15.22,1.7-.06,2.37-.02Z"/><path d="m170.89.86c-1.02-.08-1.66-.18-2.4-.16-.94.02-2.6.1-2.66.27-.03.1.58.17,1.58.12,1.07-.04,2.11-.14,3.49-.23Z"/><path d="m158.48,2.03c-.13-.06-.13-.14-1.08-.08-.29.02-.45.1-.67.15l1.75-.08Z"/><path d="m174.49,1.16c-.29.04-.11.04.07.04l-.07-.04Z"/><path d="m160.21,2.04l-.41.02-.41.02c.28.03.55.03.82-.04Z"/><path d="m110.08,5.26c-.2-.3-1.14-.37-2.45-.23-1.67.18-1,.47-1.15.72,1.63-.03,1.67-.6,3.6-.49Z"/><path d="m130.92,3.52c.05.28-.46.64,1.76.64-.14-.23.3-.5-.76-.68l-1,.03Z"/><path d="m110.1,5.26l.2.07c-.07-.02-.15-.04-.2-.07Z"/><path d="m161.92,68.88l1.65.05c-.29-.13.55-.38-.77-.38-.75,0-.93.18-.88.33Z"/><path d="m184.17,68.75c1.49-.03,3.01-.05,2.99-.48-1.1.13-2.34.23-2.99.48Z"/><path d="m85.74,6.42c1.82-.31,3.69-.79,4.22-.03.24.33,2.56.01,3.9.02-.75-.37-1.36-.76-2.3-1.09-2.01-.71-5.61-.53-8.47.46-.36.12-.53.28-.97.36-1.65.33-1.7.95-.02,1.02q.7.03,1.05-.39c.17-.2.09-.44,1.35-.56.38-.04.83.14,1.25.22Z"/><path d="m72.19,8.25l.98-.11c1.64-.85-1.11-1.07-1.11-1.69l-2.66.72c-.18.59,3.44.38,2.8,1.07Z"/><path d="m76.49,5.73c-.99.11-2.01.21-2.72.48.03.02.01.07.1.07,1.24.04,1.09.67,2.56.38,2.18-.4-.32-.57.05-.93Z"/><path d="m81.37,5.78c.26-.08.56-.15.53-.18-.09-.09-.3-.17-.46-.25-.11.06-.32.13-.32.18,0,.08.14.15.25.25Z"/><path d="m94.46,4.26c-.6-.01-1.22-.03-1.34.18.57,0,1.38.1,1.34-.18Z"/><path d="m91.88,4.51l-.37.12c.16-.03.32-.07.37-.12Z"/><path d="m52.77,59.63l-2.52-.47c-.9.57-5.05-.58-6.54-.35.08.26-.34.48,1.68.92-.78-.53.72-.35,1.67-.24,1.16.13,1.64.52,2.03.78l2.56.53c4.95.27,5.05.14,1.11-1.16Z"/><path d="m49.1,60.26c-.39-.26-.87-.65-2.03-.78-.95-.11-2.45-.29-1.67.24,1.38.3,3.06.85,3.7.54Z"/><path d="m61.75,62.37c-2.3-1.26-3.24-.39-4.83-.64,1.89.69,3.39.66,4.83.64Z"/><path d="m66.9,63.53l-.93-.15c.28.21.59.27.93.15Z"/><path d="m38.68,14.75c1.72-.45,1.74-.72,1.81-1-.35-.27.57-.44,1.56-.57.46-.48-.03-.82,2.45-1.53.41-.56-2.3.26-2.75.08-3.4,1.43-3.46,2.29-3.07,3.01Z"/><path d="m66.87,8.62l1.12-.23c-.66-.07-.79.12-1.12.23Z"/><path d="m256.87,59.57c-.39.24-.47.42-.54.6,1.79-.39,3.54-.91,5.3-1.41,1.58-.46,1.56-.68,1.56-.89-.95.23-2.08.63-2.7.57-1.2.41-2.4.81-3.62,1.14Z"/><path d="m261.62,58.76c-1.75.51-3.5,1.02-5.29,1.41v.34c2.08-.4,4.12-.98,6.17-1.51l-.88-.24Z"/><path d="m256.87,59.57c1.22-.32,2.42-.73,3.62-1.13l-.09-.35c-1.19.35-2.37.7-3.58.97l.06.52Z"/><path d="m280.64,50.48c-.1-.12-.26-.23-1.16.21-.42.18-.89.55-1.35.83.66-.11,1.62-.56,2.5-1.04Z"/><path d="m260.49,58.44c.62.05,1.75-.34,2.7-.57-.6-.06-1.67.27-2.7.57Z"/><path d="m271.09,55.84c-.03-.09.74-.48-.05-.27-.08.02-.32.13-.38.17-.45.3-.14.26.43.1Z"/><path d="m5.82,28.66c1.09-1.1,2.86-.84,3.65-2.59-.19-.79-2.79,1.31-4.02,2.22.13.11.25.24.37.36Z"/><path d="m22.11,19.15l-.33.18c.1-.06.21-.11.33-.18Z"/><path d="m5.44,28.3l-.2.08c.07-.03.14-.06.2-.08Z"/><path d="m294.16,41.78c.41-.45.83-.9,1.19-1.39l-.15-.24c-.79.98-1.16,1.47-1.04,1.63Z"/><path d="m194.62,68.19c4.64.14,5.16-.47,5.13-1.13l-1.03-.68c-3.45-.29-5.37.48-8.04.71-.31.61-.05,1.14,3.94,1.09Z"/><path d="m238.17,63.1l.39-.04c-.02-.07-.18-.05-.39.04Z"/><path d="m172.33,4.75l.65.06c-.1-.05-.19-.09-.29-.14-.12.03-.24.05-.36.08Z"/><path d="m229.43,64.15c.32,0,.63,0,.96.01,0,0,.16-.06.25-.09-.39.03-.79.05-1.21.08Z"/><path d="m178.02,67.12l-1.74-.15c.12.22.21.46,1.74.15Z"/><path d="m256.33,60.17c.08-.18.16-.36.24-.54-.87.21-1.84.43-1.94.67-.1.24.75.09,1.7-.13Z"/><path d="m33.28,15.89c.04-.21.02-.39-.86-.25.14.14-.18.46.86.25Z"/><path d="m28.77,16.26h.2c-.07,0-.14,0-.2,0Z"/><path d="m35.71,14.44c-.22-.07-.25-.26-.7-.2-.59.08-1.07.38-.87.43.41.09-1.25.99,1.42.21.05-.15.1-.29.15-.44Z"/><path d="m35.71,14.44c-.05.14-.1.29-.15.44,1.3-.47,1.16-.56.15-.44Z"/><path d="m10.89,46.68c.09.1.17.19.29.3.01.01.29.15.32.14.06-.02.04-.09.05-.13l-.65-.31Z"/><path d="m127.41,67.92l.36-.03c-.14,0-.27.02-.36.03Z"/><path d="m216.82,4.96l1.42.05-.34-.16c-.38.03-.76.07-1.08.12Z"/><path d="m3.41,41.6c.18.26.39.48.59.72l-.05-.33c-.18-.13-.37-.24-.54-.39Z"/><path d="m3.94,41.99c-.27-.31-.49-.67-.72-1.01-.02.13.08.38.19.63.17.15.36.26.54.39Z"/><path d="m42.05,13.18c-.99.13-1.91.3-1.56.57l1.56-.57Z"/>
                  </g>
                </mask>
              </defs>
              <path class="mask" d="m247.73,11.98c-5.22-1.43-13.07-3.37-22.77-5-19.71-3.31-35.08-3.29-43.96-3.24-57.18.33-86.32.78-108.59,3.78-22.06,2.97-42.3,7.13-58.48,15.66-5.88,3.1-11.95,6.72-12.07,11.67-.16,6.91,11.15,12.37,15.64,14.54,34.55,16.69,108.22,18.15,113.22,18.22,1.66.03,3.9.06,6.63.08,90.67.77,124.1-5.89,146.94-18.65,6.73-3.76,13.37-8.51,13.46-14.56.04-2.89-1.35-9.62-19.97-18.75C255.26,4.69,226.67-.49,170.64,1.3c-15.97.51-37.56,1.69-63.09,4.6"
                    mask="url(#path-mask)" stroke="black" stroke-width="2" fill="none"
                    stroke-dasharray="770.1075439453125" stroke-dashoffset="770.1075439453125">
              </path>
            </svg>
        