
            <svg xmlns="http://www.w3.org/2000/svg">
              <defs>
                <mask id="path-mask">
                  <g fill="white">
                    <path d="m288.02,1.85c-3.43-.09-1.27.33-1.96.48l-2.46-.21c-2.01-.28-4.36-.51-6.27-.82-1.96-.35-4.8-.43-7.53-.45-2.74,0-5.38.1-6.96.37-2.17-.06-3.54.01-4.45.17-2.88-.17-7.17.12-9.4-.2-.61-.23-3.15-.41-1.03-.7,1.53-.18,3.2-.31,5.66-.14,2.03.14,3.88.13,5.03-.08h1.91c1.18-.05,2.58.1,3.91.19,1.33.11,2.59.16,3.52-.14.74.03,2.11.07,2.14.07,1.88-.52,6.26-.2,10.05.06l.05.16c-1.04.02-.83.07.34.14.19,0,.39,0,.59.02l.11.23c-.65-.01-1.59-.08-1.58.02,0,.02.46.08.7.09,1.09.04.79-.05.91-.11l3.76.05c.3.01.62.02.93.03-.47.1-3.55.08-.85.34,2.86.28,3.83.17,4.43-.01.56-.18,1.78-.15,3.69.12.16.34,2.94.37,4.85.6l-.1.09c-1.81.01-.41.16,1.14.32,2.08.4,2.3.1,3.62.21l.27.07-.3-.07c.14-.17-.62-.49,3.18-.06,2.37.32,4.41.49,4.03.14l2.36.24,2.02.61c-1.28-.14-1.86-.13-1.98-.03-1.55-.07-1.69.03-.21.33,2.04.25,2.69.45,1.94.54-.35.05-.84.09.5.29.39.06,1.02.14,1.54.19.26.02.5.05.67.06.17.01.28.02.27,0-.18-.5,5.21.18,7.34.31.44.02.63-.03.93-.04l.39-.08c2.39.42,4.85.85,7.22,1.38,2.38.51,4.72.89,6.88,1.27,1.1.17,2.57.67,3.62,1.01,1.89.59,3.18.98,4.27,1.07,1.49.49,3,.9,4.46,1.44l4.42,1.58.11.21c.18.28,1.55.9,3.34,1.55,1.38.5.99.16,1.14.09,4.9,1.76,9.73,3.74,14.65,6.16l-.17-.14c.09-.03-.25-.29.69.16.31.05.46,0,1.65.62-.58.09,1.68,1.41,3.49,2.53,3.9,2.43,8.13,5.7,11.02,8.61,1,1.01,1.77,1.94,2.4,2.98.65,1.01,1.15,2.15,1.47,3.58.29,1.75.37.76.55.88.2,1.48-.04,2.97-.43,4.37-.45,1.39-1.14,2.66-1.94,3.82-1.64,2.29-3.7,4.11-5.84,5.73l-.16-.25c.74-.77.43-.74-.09-.59-.92.24.13-.59,2.22-2.44.58-.58,1.11-1.22,1.62-1.85.94-1.11,1.98-2.56,2-3.26-.21.38-.42.77-.69,1.12-.26.36-.49.73-.79,1.05-.32.18-1.38,1.27-.25-.35.39-.35.68-.78.99-1.2.26-.45.47-.94.62-1.45.47-1.11.74-2.28.79-3.46.26-.72.37-1.88.03-3.26-.32-1.37-1.07-2.89-2.06-4.35-1.77-1.77-4.65-3.87-5.34-3.8-2.58-2.16-5.43-4.03-8.47-5.59,0-.17.43-.15-.1-.56-.71-.55,2.54.98-.3-.61-1.97-1.11-1.69-.68-1.55-.42.06.12-.05.37-1.24-.52-2.18-1.63-1.96-.82-4.02-1.86-.29-.21-.47-.43-.89-.63-1.21-.59-1.25-.45-1.62-.52-1.98-.91-3.99-1.67-6.01-2.51-2.04-.78-4.12-1.54-6.24-2.47-2.25-.87-3.59-.92-4.34-.9-1.68-.59-3.38-1.09-5.09-1.58-1.71-.49-3.4-1.03-5.13-1.44l-5.17-1.31-5.22-1.13c.03-.07.27-.11.06-.23-.6-.33,2.82.02-.79-.76-3.2-.68-.5.24-1,.31-.14.01-1.21-.15-1.86-.23-2.99-.38-6.07-.95-9.2-1.34-1.56-.23-3.13-.46-4.7-.68-1.57-.22-3.14-.39-4.69-.58-1.81-.21-4.77-.29-6.18-.75-.81-.24-3.89-.72-7.21-1.15-3.32-.37-6.89-.66-8.62-.72Zm20.61,2.22l.69-.03c-.31-.05-.66-.12-.9-.14-.23-.02-.35.01-.52.02.25.05.49.1.73.15Zm35.01,5.96c.13.04.31.09.47.14,0-.06-.19-.1-.47-.14Z"/><path d="m242.35,2.6c8.02-.27,15.96.19,23.93.66,1.01,1.12,6.18.84,9.5,1.25.64.38.52.76,4.1.75,2.16.02,5.26.4,8.01.7,2.18.4-4.72.76,3.39,1.19,1.17.18,2.85.26,2.96.66.06.2,1.17.57,2.22.66,1.08.09,2.09,0,2.5-.12.67-.21-1.41-.37-2.04-.55-1.24-.35-2.11-.72-3.14-1.08.68-.16,3.56.39,3.45,0,1.69.78,8.02,1.08,7.89,1.83-.07.37-2.64.38-3.78.67-1.18.29-5.96-.3-9.75-.84-1.71-.25-3.31-.62-5.02-.83-1.64-.22-3.63-.75-4.87-.56-1.32.2,3.24.51,2.36.81-2.64.02-5.4-.13-8.42-.62-.18-.64-.94-1.18-5.54-.94-3.41.17-7.66-.9-10.96-.37l-1.26-.02-2.39-.26c-4.01-.78-8.36-.91-13.06-.31-2.79-.49-5.96-.72-10.03-.32l-1.73.03c.21-.05.33-.13.63-.16,2.29-.25,3.82-.52,1.45-.93-.62-.11-2.32-.21-2.03-.02.69.44-6.86.67-1.32,1.24-1.49.08-3.68,0-3.65.43h-2.59c-.09-.22,1.98-.47.21-.66-1.4-.15-2.91-.03-4.05.18h-1.63c-3.36-.04-3.57-.47-4.05-.86-.28-.23-1.07-.41-2.67-.39-.6,0-1.53.11-1.72.19-.53.24.77.28,1.8.37,3.7.31-2.96.78.26,1.1-.8.39-2.86.38-4.8.41l-.03-.27c.03-.26,2.91-.65-.15-.75-2.26-.08-3.84.26-3.38.7l-2.97.02-4.11-.33c-1.15-.29-1.73-.59-.75-.95.45-.16.34-.32-.97-.33-1.57-.01-1.81.19-2.05.37l-2.21-.16-.06-.58c3.74,0,7.95-.3,10.46.42.96.28,2.34.1,2.56-.19.16-.22-.14-.45,1.44-.59,6.47-.6,13.15-.72,20-.4,4.18.72,12.85.6,18.06-.26Zm42.5,3.83c-.44-.05-.87-.01-1.31,0,.36.1.69.22,1.09.28.42.06.92.04,1.72.07-.68-.16-1.09-.29-1.5-.33Z"/><path d="m133.5,79.4c3.12.08,4.53.48,6.11.89.79.2.24.59,2.73.58,2.01,0,1.57-.34,1.21-.62-.34-.27-.52-.54-.78-.81l7.33.31c.01.27-.86.59,2.47.71,2.51.09,3.65.29,3.55.65-.29.2-3.22.12-1.79.48.5.13,1.66.3,2.43.32,2.57.06.88-.34,1.44-.5.32-.09.56-.2,1.03-.26.93-.13,3.62-.13,2.62-.38-1.15-.3-3.1.03-4.86-.09l.02-.5c6.96.15,13.69.52,20.35.84-1.1.53-1.82,1.2-7.54.61-.95-.1-2.48-.1-2.87.1-.42.22.76.31,2.07.39.42.3.83.59,1.09.91l-1.9.1,1.53.27c-4.56.24-8.8,0-12.78-.6-1.03-.39-3.04-.86-5.14-.63-4.03.46-11.18-.92-13.9-.07-3.86-.51-7.97-.6-11.94-.95.21-.6-2.83-.93-5.4-.96-2.29-.02-3.63-.21-5.31-.53.64-.49,4.63.26,6.26.05.61-.08,2.61.63,3.53.31.57-.19-1.41-.56-2.62-.86-1.24-.3-2.22-.41-3.97-.37-2.2.05-4.75,0-6.65-.75-1.14-.45-3.27-.41-4.52-.41-2.18-.02-.45.33.8.6,1.97.44,3.92.89,3.5,1.29l-1.29.04c-2.17-.91-6.51-1.09-10.16-1.58-1.42-.19-4.72-.33-3.68-.88.25-.12-4.2-.42-4.36-.26-.31.33-1.5.16-3.1-.06l-1.18-.16c-2.23-.17-4.88-.28-3.87-.86,1.16-.24,1.12-.23-.73-.62-.81-.17-1.89-.44-2.05-.58-.57-.47,2.73.14,3.3-.05,3.36.41,6.95.48,9.72,1.5.71.27,2.88.27,2.76.19-.56-.32,4.09.12.86-.54.16-.15.52-.14,1.86.04,4.38.6,8.76,1.33,13.27,1.45.51,1.37,5.64.79,8.54,1.11,3.38.29,5.92-.02,9.49.36-.86.3-3.47.63,2.53.77Zm14.03,1.42l-.7.12c.31.03.66.09.91.09.22,0,.35-.06.52-.09-.25-.04-.49-.09-.73-.13Z"/><path d="m173.08,3.72c-4.25.45-9.45.76-13.36,1.29-3.48.1-8.77.79-12.88,1.15-1.17.1-1.62.16-2.45.27-2.56.35-3.15.8-.32.56,2.99-.25,3.93-.27,4.7-.22.8.04,2.27.03,5.1-.43.31-.05,1.48-.18,1.98-.22,4.89-.41,9.6-.81,14.42-1.22,11.1-.84,22.22-1.55,33.34-2.1l-.04-.18c-.94.05-1.7.07-1.92.01-1.65.11-3.62.24-4.99.34-3.29.18-7.33.57-9.94.51-1.57-.07-12.9.53-15.19.81-.38.04-.78.11-.72.12.57.14-1.57.22-2.55.26-1.17.03-1.89.05-2.91.07-.58.02-2.37.22-2.21.15.1-.05,1.14-.18,2.53-.32,2.91-.28,7.04-.58,7.4-.86Z"/><path d="m12.38,56.81c2.65,1.39,5.8,2.95,7.76,3.31-.75-.4-1.68-.98-2.22-1.2-2.11-.84-4.12-1.67-5.35-2.9-1-1.01.77-.2,2.09.22,2.35.75,3.93,1.71,5.61,2.81,1.04.69,2.9,1.57,3.9,1.8,3.37.86,4.63,1.79,6.47,2.74,1.22.49,2.82.91,3.05,1.3.05.08-.57.01-.8-.06-1.64-.54-1.59-.84-2.25-1.23l-3.8-.4c2.03,1.53,5.2,2.2,8.09,2.93,0-.27.25-.4,2.32.19.02-.18.26-.3,0-.54-.76-.74,2.62.33,3.69.4.3.02,1.01.17,1.18.36.35.39-.82.16-2.13-.06-.75-.13-.3.35-.39.55.6.04,1.68.4,2.67.69.99.27,1.89.48,2.12.28-.4-.17-1.54-.51-.38-.34l.35.33c1.62.55.5.72,2.56,1.25.72.19,1.41-.03,2.1-.06.01-.15.29-.22,1.29-.06-.04-.07-.08-.13-.14-.2l-1.08-.28c-.87-.34-2.69-.97-3.33-1.29-.64-.33-.11-.28,3.76.54.51.1.79-.05,1.18-.09-1.66-.38-3.36-.73-5-1.17-1.64-.43-3.23-.91-4.63-1.61-.17-.08-1.38-.34-2.91-.68-1.53-.34-3.36-.85-4.82-1.3-.87-.04-1.85-.37-3.58-.97-5.06-1.77-10.02-4.39-14.76-6.31-1.55-1.42-5.01-2.79-6.52-4.38-.73-.75-1.38-1.42-2.08-2.13-.69-.7-1.43-1.42-2.25-2.37-1.12-1.29-1.5-2.5-1.54-3.27-.05-.78.22-1.15.48-1.17.02-1.61.75-3.21,1.92-4.59-.44-.03.4-1.34,1.14-2.3-1.15.71-2.26,1.58-2.62,1.73-.35.17-.23-.74,1.9-2.89.56-.52.07-.34-.57.12-.8.95-1.89,2.02-2.76,3.31-.44.63-.78,1.34-1.04,2.02-.2.71-.35,1.38-.29,1.96.06,1.32.34,2.18.53,2.76.17.59.31.92.32,1.17.07.46-.19.5-.2.88.22.43.45.84.71,1.23.25,0,.72.59,1.73,1.73.32-.04,1.04.65,2.13,1.59l.11-.29c1.04.94.79.89.7,1,1.94,2.03,5.5,4.18,5.57,4.94Z"/><path d="m240.45.59c-1.54.01-2.63.13-3.44.23-1.7.23-3.79.47-.61.62,5.01.23,5.22-.25,7.82-.38l4.77.13c2.23.32,6.51.03,9.39.2l.05.26c-2.76-.04-5.96.19-8.02,0-2.61-.26-5.31-.16-8.36-.08-11.99.38-24.03.76-36.09,1.13-.22-.09-.2-.19,1.29-.32l2.32-.1,1.2.04c.37.03.73.02,1.09-.04,7.62-.35,8.68-.48,5.76-.78-.09,0-.11-.02-.17-.03-6.73.5-8.55-.17-15.13.34-2.73.21-6.37.44-7.12.2,1.8-.11,3.8-.49,4.4-.4,1.15.18,3.03-.06,4.86-.16,6.55-.36,12.94-.6,19.67-.88,4.79-.19,9.66-.28,14.56-.4,4.9-.05,9.83-.11,14.74-.16,1.95,0,5.07-.08,5.21.24-1.15.21-3,.22-5.03.08-2.46-.16-4.13-.04-5.66.14-2.53-.07-5.06-.15-7.52.1Zm-12,.94c-.05-.1-.75-.27-2.7-.16-1.89.11-4.66.33-4.76.45-.2.22,2.25-.08,3.14-.05,1.72-.09,4.48.06,4.32-.24Zm-5.63-.67c-1.24.03-3.44.12-3.52.29-.04.1.77.16,2.08.11,1.41-.06,2.79-.15,4.61-.26-1.35-.07-2.19-.16-3.17-.14Zm7.3.46h.72s-.09-.04-.09-.04c-.54.01-.56.03-.63.04Z"/><path d="m177.76,3.21c-2.98.21-5.3.21-8.66.09-4.88-.17-10.96.18-16.49.4-2.77.1-5.74-.02-8.33.38v.53c.61.22,2.2.56.33.71-5.52.46-4.75,1.41-8.56,1.98,2.04-.09,3.84-.28,5.43-.53.2-.01.38-.04.52-.07.2-.25-.68-.54,1.53-.73,1.74-.15,2.98-.08,3.24.21l.29.06-.27-.07c-2.57-.09-2.64.49-4.76.52-.13.03-.18.07-.16.1,2.45.48,5.4-.17,8.07-.17,3.37-.65,6.97-.73,10.61-.34,1.09.12,1.8.3,3.01-.05,1.85-.55,4.57-.43,7.18-.3,3.72-.46,1.99-.94,1.08-1.41-.24-.12-1.03-.29.29-.39,1.12-.09,1.78.03,2.24.17l1.33-.04c-.71-.4,2.83-.66,2.09-1.06Z"/><path d="m223.01,83.1c2.36.28,4.83.44,8.07.14,4.05-.59,8.35-.73,12.96-.44.86-.26,2.5-.36,3.95-.5l2.44.06c-.3-.15-.75-.45-.86-.44-4.45.26-7.45-.28-11.74-.16-3.12.1-5.97.13-6.83-.42-.03-.02-.34-.02-.51-.02-.59.07-1.18.15-1.77.22.53.62-2.62.62-5.02.6-7.89-.13-15.83.34-23.83-.01-4.83-.21-5.09-.05-2.79-.72.7-.2,1.16-.42,1.73-.64-4.59.12-9.91-.23-13.62.44.86.06,1.7.14,2.6.16,1.47.03,3.59-.34,4.23.05.26.16-2.05.45-3.52.61-.78.09-2.26.05-3.42.06-.97,0-2.04,0-2.51.15-.61.21.4.32,1.41.41,1.58.15,2,.53,4.46.51,3.1.38,6.52.59,10.6.42,4.66-.5,10.11-.55,15.6-.56-.07-.15.17-.33,1.16-.33,1.75,0,.64.25,1.02.38,2.31-.53,4.7-1.18,6.19.01Z"/><path d="m209.58,2.29l1.2.04.54-.02.54-.02c7.62-.35,8.68-.48,5.76-.78-.09,0-.11-.02-.17-.03-6.73.5-8.55-.17-15.13.34-2.73.21-6.37.44-7.12.2-1.98.25-5.53.42-7,.69,1.9.02.06.36-.94.42-2.92.18-1.15-.11-1.57-.19-.09-.02,0-.05,0-.07-2.24-.04-6.03.47-8.53.54-1.53.19-2.89.29-4.07.31-.37.28-4.5.58-7.41.86-1.4.14-2.43.27-2.53.32-.17.08,1.63-.13,2.21-.15,1.01-.03,1.74-.04,2.91-.07.98-.04,3.12-.12,2.55-.26-.06-.02.34-.08.72-.12,2.29-.28,13.62-.88,15.19-.81,2.61.06,6.65-.33,9.94-.51,1.37-.09,3.34-.22,4.99-.33,1.6-.16,1.68-.07,1.92-.01l.04.18,2.36-.1c-.22-.09-.2-.19,1.29-.32.29-.06.5-.14.89-.16,1.25-.08,1.26,0,1.42.06Z"/><path d="m125.39,7.69l-.09-.21c-.99-.36-1.78-.74-3.01-1.06-2.63-.7-7.39-.45-11.2.57-.47.13-.7.29-1.29.38-2.19.36-2.28.98-.07,1.03q.92.02,1.41-.42c.23-.21.14-.44,1.8-.59.51-.05,1.09.13,1.64.21,3.14-.08,2.97.37,3.7.67-3.56.46-7.2.73-10.88.92,1.46-.71-2.15-.51-3.89-.62l-1.82.53-3.72.6c-.06-.04-.08-.09-.06-.14,2.21-.9-1.4-1.05-1.37-1.67l2.27-.28s.02.07.13.07c1.63.02,1.39.63,3.35.33,2.89-.44-.4-.56.12-.93l1.32-.53c5.52-.51,11.15-1.09,16.56-1.16l2.34-.15.12.36-.49.13.64-.11,1.47-.1c.75-.01,1.82.08,1.78-.2l2.37-.31-.33.08-.37-.04c1.66.33,5.71.06,6.89.68.56.3,5.65-.52,8.43-.89.46-.06.75-.16,1.12-.24.62.22,2.21.56.34.71-5.52.46-4.75,1.41-8.56,1.98-3.68.38-7.23.54-10.66.39Zm-15.85-.84c-.11-.09-.38-.16-.59-.24-.15.06-.43.14-.43.19,0,.08.18.15.32.24.34-.09.74-.16.71-.19Z"/><path d="m37.25,66.32c-2.07-.6-2.32-.46-2.32-.19l1.91.67,1.5.41c1.84.6,3.65,1.22,5.52,1.72,1.86.52,3.76,1.01,5.79,1.36,1.65.3,4.01.85,5.93,1.43,2.09.68,6.16,1.51,6.86,1.59,7.41.83,14.43,2.29,21.44,3.61,2.58.47,4.24.44,6.37.71,10.86,1.41,21.75,2.52,32.65,3.41,1.17.1,2.36.27,3.06.11.21-.6-2.83-.93-5.4-.96-2.29-.02-3.63-.21-5.31-.53-.81.16-2.34-.02-3.67-.13l-1.29.04c-2.17-.91-6.51-1.09-10.16-1.58-1.42-.19-4.72-.33-3.68-.88.25-.12-4.2-.42-4.36-.26-.31.33-1.5.16-3.1-.06-.41.11-.82.05-1.21-.17-2.2-.16-4.86-.28-3.84-.85-.59-.09-1.19-.18-1.78-.27-1.9-.02-3.86-.07-6.39-.81-2.2.04-4.38.28-6.96-1.11l-3.39-.65c-.82.29-3.06-.32-4.89-.66-2.69-.5-2.15-.73-2.29-.99-1.61-.03-3.17-.26-4.71-.62-1.54-.37-3.04-.9-4.52-1.47-.7.03-1.38.25-2.1.06-2.06-.52-.93-.7-2.56-1.25-.21.2-1.1,0-2.09-.27-.98-.28-2.06-.64-2.66-.68l-2.36-.71Z"/><path d="m76.34,10.35c-1.72-.06-3.6.06-6.02.83,1.46.04,2.9.11,1.29.74-1.27.5-2.35.19-3.75.56-1.96-.22-2.96.32-4.13.84-1.34.62-2.68.98-3.73.7-3.31.79-2.7,1.15-3.22,1.6.58.27,3.28-.15,4.65-.11,2.28-.1,5.23-.55,8-1.23,2.09-.48,3.9-.83,5.95-1.06,2.03-.54-.21-.84,3.37-1.43,2.66-.41,2.28.07,2.74.28l2.36-.39c-.21-.23-.56-.44-.56-.7,0-.17,1.08-.4,2.1-.53.89-.12,1.57-.11,1.08.08-.73.28-2.78.73-.56.62.56-.03,2.44-.62,3.72-.95.4-.12.6-.31,1.46-.25l-1.49.25c1,.6,3.94.07,7.02-.51.88-.72-3.89-.42-3.62-1.01-5.08.98-5.08.53-4.76-.06-2.04.38-3.79.23-5.88.72.4.58-1.8,1.41-5.34,1.9-4.91.68,1.49-.79-.24-.81-.24,0-.29-.06-.43-.1Z"/><path d="m352.62,69.99l1.87-.58,3.56-1.28,1.32-.44s-.1-.06-.15-.09c-.8.19-1.21.24-.58-.07.09-.04.41-.16.52-.18,1.04-.28,0,.2.02.27,1.87-.64,3.2-1.23,3.98-1.76,2.5-1.62,6.93-2.93,6.93-2.71-.05.63,2.84-.58,4.92-1.49,1.25-.71,2.49-1.4,3.73-2.13,1.22-.74,2.45-1.5,3.66-2.3,1.07-.68,3.17-1.93,2.43-1.81-.6.11-2.79,1.6-3.41,1.85-.96.4-2.06,1.12-3.1,1.73-1.04.6-2.02,1.09-2.68,1.06-1.44.64-3.11,1.45-3.44,1.3-1.21.53-2.5,1.09-3.36,1.26-1.35.52-2.68,1.13-4.06,1.58-1.37.47-2.74.93-4.1,1.4-.67.23-1.33.46-1.98.69-.66.21-1.3.42-1.95.63-1.28.45-2.53.89-3.79,1.33-1.25.47-2.53.84-3.84,1.21-1.31.37-2.66.71-4.06,1.02l.08.36c1.37-.37,2.79-.77,3.57-.74-.03.22-.03.44-2.13,1l1.11.2c1.64-.44,3.3-.82,4.93-1.3Z"/><path d="m4.86,34.5c.64-.46,1.13-.64.57-.12-2.13,2.15-2.25,3.06-1.9,2.89.36-.15,1.47-1.03,2.62-1.73.55-.47,1.1-.95,1.7-1.38l-.34-.4-.27.11.26-.1c1.7-1.1,5.34-3.57,5.42-2.72,2.89-1.66,5.92-2.32,9.07-4.33.46-.28,2.68-.98,2.9-.76,1.08-.44,2.17-.85,3.27-1.23,1.25-.98,5.38-2.61,4.36-2.94-.05-.02.7-.33,1.07-.51,2.8.14,3.46-1.39,5.48-1.86-.03-.05-.04-.11-.06-.17-6.07.89-7.15,2.29-8.94,3.54l-.42.2.45-.21c-1.16.35-3.26,1.08-3.34,1.01-.52-.51-1.74-.15-3.22.54-.74.34-1.56.75-2.38,1.19-.82.45-1.65.91-2.46,1.3-3.36,1.64-7.05,3.8-10.17,5.16-.73.4-1.12.46-1.6.67-.49.2-1.11.5-2.24,1.51l.19.33Z"/><path d="m192.09,4.37l-2.21-.16c-5.4-.05-5.33-.64-4.78-1.29-1.78-.19-1.68.17-2.55.24,1.61.83-1.03,1.61-5.92,1.78,1.13.42,1.23.86.02,1.32,1.25.43,2.28.1,3.35-.07-.72-.09-.9-.23.07-.27,1.33-.05,1.11.17,1.24.3,2.86.59,7.06.11,10.09.05,4.97-.09,10.4.16,15.11-.38l-.03-.27-3.45-.06c-1.08.35-2.07.18-3.05.03l-4.11-.33c-.29.25-.54.53-2.76.51-1.49-.01-2.35-.18-3.06-.37-1.66-.44.6-.72,2.04-1.04Z"/><path d="m375.65,60.08c.65.02,1.63-.46,2.68-1.06,1.04-.61,2.14-1.34,3.1-1.73.62-.25,2.81-1.74,3.41-1.85.74-.12-1.36,1.13-2.43,1.81-1.21.8-2.44,1.55-3.66,2.3-1.23.73-2.48,1.42-3.73,2.13l1.06-.21,1.27-.6c3.28-2.08,7.74-4.24,11.24-6.99.74-.77.43-.74-.09-.59-.92.24.13-.59,2.22-2.44l-.06-.14c-.11-.18.45-.77,1.59-2,.21-.27.42-.53.61-.79-.32.18-1.38,1.27-.25-.35l-.18-.02c-.99,1.27-2.2,2.39-3.49,3.43-1.28,1.05-2.65,1.99-4.07,2.88-2.83,1.79-5.8,3.42-8.82,4.98,1.13-.17,3.12-.74-.4,1.25Z"/><path d="m280.38,81.15c1.41-.11,1.33.61,3.81-.09,1.86-.53,3.68-.09,5.55-.37.48-.72,3.03-.82,5.72-.82,2.28,0,4.14-.27,5.83-.66,1.75-.39,2.49-.75.6-.86-2.52.2-4.84.17-7.53.55-2.09.3-3.71.54-5.08.7-1.37.15-2.48.25-3.55.31-2.13.13-4.05.12-7.44.08-.16,0-.48,0-.52.01-3.39.91-8.67.17-12.14.94.35.29.4.62,2.79.66.07-.23.63-.29,2.25-.33,1.71-.05,3.38-.07,4.99-.09,1.62-.04,3.19-.05,4.73-.04Z"/><path d="m375.65,60.08c3.52-1.98,1.53-1.41.4-1.25-2.46.98-4.14,1.53-7.47,3.35-1.2.67-3.07,1.5-5.21,2.18-2.14.7-4.44,1.54-6.54,2.14-2.8.88-5.65,1.85-8.59,2.56-1.46.37-2.93.75-4.39,1.12-1.47.34-2.95.59-4.41.86-2.57.45-4.25.84-3.88,1.22.36.38,2.42-.09,4.72-.66,1.6-.36,3.21-.67,4.78-1.12,1.41-.31,2.75-.65,4.06-1.02,1.31-.37,2.59-.73,3.84-1.21,1.26-.44,2.51-.88,3.79-1.33.64-.21,1.29-.42,1.95-.63.65-.23,1.31-.46,1.98-.69,1.36-.46,2.73-.93,4.1-1.4,1.38-.45,2.7-1.06,4.06-1.58.62-.34,1.29-.77,1.84-.99,1.23-.48,1.41-.38,1.51-.27.33.16,2.01-.66,3.44-1.3Z"/><path d="m30.05,22.81c1.79-1.25,2.87-2.65,8.94-3.54l4.59-1.58c1.21-.47,2.47-.93,2.08-1.12-2.32.12-5.09,1.3-7.48,2.03-4.55,1.41-9.06,2.97-13.51,4.73l-3.32,1.38-3.27,1.51c-2.17,1.02-4.29,2.13-6.39,3.36-2.23,1.34-2.45,1.71-3.18,2.41,3.11-1.35,6.8-3.52,10.17-5.16.81-.39,1.64-.85,2.46-1.3.82-.44,1.64-.84,2.38-1.19,1.48-.69,2.7-1.05,3.22-.54.08.07,2.18-.65,3.31-1Z"/><path d="m198.81,80.78c-.57.21-1.03.43-1.73.64-2.31.67-2.04.51,2.79.72,8.01.35,15.94-.11,23.83.01,2.4.02,5.55.02,5.02-.6-4.49-.55-9.37-.46-14.75-.07-3.47.24-6.12.13-5.45-.56-3.49.32-6.39-.18-9.7-.13Z"/><path d="m265.62,80.95c3.47-.77,8.75-.03,12.14-.94.04-.01.36-.02.52-.01,3.39.04,5.31.05,7.44-.08,1.06-.06,2.18-.17,3.55-.31,1.37-.16,2.99-.4,5.08-.7,2.68-.38,5.01-.35,7.52-.55-1.12-.46-2.34-.9-6.48-.81l-2.99.61c-1.09.46-2.8.6-5.24.69-2.97.13-6.56.42-9.12.55-5.18.27-9.77,1.02-14.73.92l1.34.67c.33,0,.66-.02.97-.03Z"/><path d="m325.98,74.29c-1.45.78-2.62,1.48,3.54.44,1.98-.33.77.1.65.26-1.49.43-3.08.74-4.57.98-1.49.21-2.9.29-4,.35-5.59.24-6.77.91-7.89,1.66l-1.13.17c-3.68.13-9.67.67-4.1-.87,1-.28.94-.57,1.37-.85l4.69-.56c1.56-.22,3.11-.44,4.67-.66,2.01-.27,3.53-.51,3.68-.87,1.16-.14,2.32-.3,3.46-.5-.11.15-.04.29-.37.47Zm-9.86,1.93c-.12,0-.33.03-.62.13.17-.02.35-.04.62-.13Z"/><path d="m297.22,6.71c1.69.78,8.02,1.08,7.89,1.83-.07.37-2.64.38-3.78.67-1.18.29-5.96-.3-9.75-.84-1.71-.25-3.31-.62-5.02-.83-1.64-.22-3.63-.75-4.87-.56-1.32.2,3.24.51,2.36.81,5.51,1.24,12.55,1.36,18.21,2.86,1.79.46,1.47-.12,2.94.04,1.45.03-4.84-1.31.39-.62,1.84-.27,6.48.27,5.92-.58-1.07-.26-2.47-.52-3.15-.75-1.7-.58-1.5-1.51-6.11-1.42-.02,0-.42-.12-.93-.27-.51-.15-1.14-.32-1.64-.43-2.9-.6-5.69-.96-8.19-.97.74.84,4.09.55,5.71,1.05Z"/><path d="m312.33,11.78c1.43.29,2.45.59,3.15.92,1.77.83,5.22,1.8,8.03,2.12,2.51.28,4.83.36,5.23-.07.73-.79-2.26-1.92-9.21-3.27-1.7-.32-3.75-1.01-5.65-1.52-2.19,0-1.46.6.76,1.33,2.24.74,4.39.97,6.09.99.63,0,3.42.43,3.1.75-.28.28,1.24.92.16,1-.66.05-1.02.22-2.89-.15-1.94-.38-2.74-.75-2.92-1.03-.18-.29-.43-.55-2.6-.96-2.1-.39-3.21-.43-3.26-.11Z"/><path d="m263.3,80.31c4.96.11,9.55-.65,14.73-.92,2.57-.13,6.15-.43,9.12-.55,2.44-.09,4.16-.23,5.24-.69-2.11-.23-4.71-.15-7.43.03-2.71.19-5.54.5-8.11.65-3.83.22-7.71.45-11.56.68-1.93.1-3.85.2-5.76.24-1.91.02-3.81,0-5.68-.07l-.61.25c1.12.23,5.03.41-.91.73-1.95.1-3.04.44.32.43,3.53-.27,6.09-1.02,10.64-.78Z"/><path d="m3.08,42.43c-.26.03-.53.39-.48,1.17.05.77.42,1.98,1.54,3.27.82.95,1.56,1.67,2.25,2.37.7.72,1.35,1.39,2.08,2.13,1.51,1.59,4.97,2.96,6.52,4.38,4.74,1.92,9.71,4.53,14.76,6.31,1.73.6,2.71.92,3.58.97-4.5-2.04-9.41-3.96-14.61-6.34-3.28-1.52-6.58-3.23-9.56-5.7-1.28-1.08-2.74-2.3-3.96-3.74-1.22-1.43-2.12-3.14-2.12-4.81Z"/><path d="m225.76,5.55h-2.59s-3.84-.48-3.84-.48c-.54,0-1.09,0-1.64,0-1.77.15-3.55.3-5.32.44,3.14.94,9.39.58,13.87.58,8.92.03,17.93-.4,26.86-.36l2.39-.15c-4.01-.78-8.36-.91-13.06-.31-3.81.22-7.85.6-10.03-.32l-1.73.03-1.23.06c.02.14.07.2.12.27.12.05.25.09.38.14l-.85-.06-3.32.16Z"/><path d="m387.62,30.04c-2.58-2.15-5.42-4.03-8.47-5.59-2.36-1.34-4.69-2.49-6.39-3.59-1.66-.76-2.5-1.15-3.34-1.53-1.98-.91-3.99-1.67-6.01-2.51-2.04-.78-4.12-1.54-6.24-2.47-2.25-.87-3.59-.92-4.34-.9,6.22,2.04,12.27,4.55,18.2,7.28,5.9,2.77,11.72,5.83,16.81,9.79l-.23-.48Z"/><path d="m330.17,74.99c-1.49.43-3.08.74-4.57.98-1.49.21-2.9.29-4,.35-5.59.24-6.77.91-7.89,1.66,9.11-1.09,18.29-2.15,27.15-4.71,1.07-.29,1.97-.43,2.82-.54.84-.13,1.63-.27,2.5-.52,2.39-.71,6.17-1.45,6.44-2.2-1.63.48-3.29.86-4.93,1.3l-4.07.98-4.1.82-4.66,1.03-4.7.86Z"/><path d="m302.75,2.72c.14-.17-.62-.49,3.18-.06,2.37.32,4.41.49,4.03.14-9.74-1.34-19.56-2.26-29.77-2.35l.05.16.34.14c.19,0,.39,0,.6.02,1.71,0,3.41,0,3.89.27.3.01.62.02.93.03l3.59.32c.56-.18,1.78-.15,3.69.12,2.12.15,4.33.06,6.23.46.63.13-.34.17-1.39.14l-.1.09,1.14.32c2.08.4,2.3.1,3.59.21Z"/><path d="m312.58,78.14c-3.68.13-9.67.67-4.1-.87,1-.28.94-.57,1.37-.85-1.74.15-1.18-.11-1.31-.24l-2.31.31c.76.28-2.22.78-2.27,1.11l1.56-.1c-.11.03-.32.1-.33.1-.43,0-.85,0-1.27.01-2.08,0-.85-.46-1.31-.69-2.39-.2-4.79-.06-7.22.62,4.14-.09,5.36.35,6.48.81,1.9.11,1.15.47-.59.86-1.68.38-3.54.66-5.83.66-2.69,0-5.24.09-5.72.82,3.01-.23,6.05-.56,9.08-.86,3.03-.28,6.04-.63,9.03-.84,2.35-.16,3.56-.49,4.74-.85Z"/><path d="m252.66,81.1c-3.36,0-2.26-.32-.32-.43,5.95-.31,2.03-.5.91-.73-1.01.37-2.88.18-4.31.28.16.22-.92.57-1.8.51-4.36-.28-7.42.46-11.21.48-2.02.32-2.13.08-2.29-.14-2.05-.25-2.56.02-3.15.26.18,0,.5,0,.52.02.86.55,3.71.52,6.83.42,4.29-.12,7.29.42,11.74.16.11,0,.57.29.86.44l4.66.17,2.48.12.27-.5c-5.28.09-5.61-.44-5.19-1.06Z"/><path d="m188.45,83.19c-2.46.01-2.88-.36-4.46-.51-1.01-.1-2.02-.21-1.41-.41.47-.16,1.53-.14,2.51-.15,1.17-.01,2.64.03,3.42-.06,1.47-.17,3.79-.45,3.52-.61-.64-.39-2.76-.01-4.23-.05-.9-.02-1.74-.11-2.6-.16-1.13-.28-2.16,0-3.23,0-1.79.12-3.71.31-3.18.61,2.05,1.17-3.51,1.16-8.52,1.15.61.26,3.21.2,3.41.52,4.1-.16,7.98.25,12.11.19,2.96-.03,2.32-.28,2.66-.51Z"/><path d="m235.93,81.21c3.79-.02,6.85-.76,11.21-.48.88.06,1.96-.28,1.8-.51-1.9.05-3.79.11-5.68.16l-5.68.13c-3.78.11-7.57.22-11.36.33-3.8.12-7.8.02-11.57-.06-2.28-.06-4.13.03-6.13.14-.67.69,1.99.8,5.45.56,5.38-.39,10.26-.48,14.75.07.59-.07,1.18-.15,1.77-.22.59-.24,1.09-.5,3.15-.26l2.29.14Z"/><path d="m330.17,74.99l4.7-.86,4.66-1.03.02-.35c-1.27.27-2.4.46-2.25.22.15-.24,1.44-.52,2.6-.77.4-.25.39-.42.38-.6-2.29.58-4.35,1.04-4.71.66-3,.42-6.1.9-9.22,1.56-.11.15-.04.29-.37.47-1.45.78-2.62,1.48,3.54.44,1.98-.33.77.1.65.26Z"/><path d="m43.58,17.69l-4.59,1.58.05.17h.27s-.26,0-.26,0c-2.02.47-2.68,2-5.48,1.86-.38.18-1.12.49-1.07.51,1.02.33-3.12,1.95-4.36,2.94.31.1,1.3-.31,2.18-.64,1.07-.71,3-1.26,4.67-1.87,1.28-.29,1.84-1.23,2.66-.97.86.27,2.83-.69,4.04-.9,1.9-.92,2.87-.99,3.64-.85,1.22-.25,2.73-.28,3.35-.95l.45-.41c-1.44.25-2.21.15-4.19.69-1.38.24-.92-.09-1.09-.23-6.23,1.47.64-.85-.27-.91Z"/><path d="m283.6,2.13c-2.01-.28-4.36-.51-6.27-.82-1.96-.35-4.8-.43-7.53-.45-2.74,0-5.38.1-6.96.37,2.94.01,6.21.1,4.14.45,2.82.11,5.64.22,8.42.29,2.78.11,5.52.19,8.2.17Z"/><path d="m43.85,18.6c-6.23,1.47.64-.85-.27-.91,1.21-.47,2.47-.93,2.08-1.12,1.76-.51,3.55-1.11,5.34-1.58,1.78-.49,3.54-.84,5.24-.87.17,0,.22.03.18.08-4.58,1.57-4.75,2.49-4.31,3.2l-2.97.73c-1.44.25-2.21.15-4.19.69.08-.21.07-.41-1.09-.23Zm3.54-1.55c-.77.11-1.44.45-1.17.49.52.07-1.74,1.08,1.81.13,1.75-.55,1.57-.63.25-.46-.27-.06-.3-.25-.89-.16Z"/><path d="m26.85,63.19c-1.04-.44-1.78-1.11-3.08-1.33-2.9-.48-2.88-1.15-3.63-1.74-.75-.4-1.68-.98-2.22-1.2-2.11-.84-4.12-1.67-5.35-2.9-1-1.01.77-.2,2.09.22,2.35.75,3.93,1.71,5.61,2.81,1.04.69,2.9,1.57,3.9,1.8,3.37.86,4.63,1.79,6.47,2.74-1.26-.13-2.53-.27-3.79-.4Zm-12.02-6.14s.39.18.42.17c.07-.02.03-.09.03-.14l-.86-.38c.13.11.25.22.41.34Z"/><path d="m325.75,5.23c2.39.42,4.85.85,7.22,1.38,2.38.51,4.72.89,6.88,1.27,1.1.17,2.57.67,3.62,1.01,1.89.59,3.18.98,4.27,1.07-.96-.38-1.98-.75-3.05-1.09-1.08-.31-2.19-.6-3.33-.89-1.14-.27-2.3-.55-3.45-.83-1.17-.23-2.33-.45-3.48-.67-1.48-.28-2.93-.62-4.38-.92-1.45-.29-2.88-.57-4.32-.85-2.87-.61-5.78-1.03-8.81-1.33-.88-.09-1.96-.24-2.36-.19,1.19.43,3.25.8,5.66.99,2.91.19,4.24.63,5.52,1.07Z"/><path d="m312.33,11.78c.05-.31,1.15-.28,3.26.11,2.17.41,2.41.67,2.6.96.17.28.98.65,2.92,1.03,1.87.37,2.23.2,2.89.15,1.08-.08-.44-.72-.16-1,.32-.31-2.48-.75-3.1-.75-1.7-.02-3.85-.25-6.09-.99-2.21-.72-2.94-1.33-.76-1.33-.76-.27-1.53-.5-2.34-.47.55.85-4.08.31-5.93.58,1.21.37,2.32.74,2.35,1.01l4.38.7Z"/><path d="m49.02,69.17c1.49.57,2.99,1.1,4.52,1.47,1.54.36,3.11.59,4.71.62,1.92-.14,7.47,1.09,8.59.58l-.31-.66c-2-.54-3.84-.9-5.56-.97-.29.05.44.36-.8.17l-.31-.39c-.33-.1-.7-.18-1.1-.26-4.78-.95-4.04.26-8.46-.63-1-.16-1.28-.1-1.29.06Z"/><path d="m376.08,61.45l-1.06.21c-2.08.9-4.97,2.12-4.92,1.49,0-.22-4.44,1.09-6.93,2.71-.78.54-2.12,1.12-3.98,1.76.1.01.15.04.19.07l.06.48c5.62-1.8,11.28-3.57,16.64-6.72Z"/><path d="m378.02,21.62c-.58.09,1.68,1.41,3.49,2.53,3.9,2.43,8.13,5.7,11.02,8.61,1,1.01,1.77,1.94,2.4,2.98.65,1.01,1.15,2.15,1.47,3.58.29,1.75.37.76.55.88-.16-1.64-.74-3.16-1.49-4.52-.73-1.38-1.7-2.55-2.69-3.7-2.04-2.23-4.43-4.05-7.04-5.69-2.24-1.45-5.08-3.2-7.72-4.67Z"/><path d="m7.84,34.17c-.59.43-1.15.91-1.7,1.38-.73.96-1.58,2.26-1.14,2.29,1.89-1.98,4.37-3.71,6.99-5.23,2.62-1.52,5.42-2.89,8.25-3.89,2.27-.83,2.67-1.75,4.62-2.76-.22-.22-2.44.48-2.9.76-3.14,2.01-6.17,2.67-9.07,4.34-1.35,1.95-3.49,1.81-5.06,3.11Z"/><path d="m82.17,75.49c.6.09,1.19.18,1.78.27,1.16-.24,1.12-.23-.73-.62-.81-.17-1.89-.44-2.05-.58-.57-.47,2.73.14,3.3-.05l-2.44-.72-3.87-.7c-2.66-.2-5.31-.41-7.97-.65,5.27,1.43,5.14,1.58-1.36,1.13,2.58,1.39,4.76,1.15,6.96,1.11,2.11.27,3.29-.54,6.39.81Z"/><path d="m170.27,82.99c5.01,0,10.56.01,8.52-1.15-.53-.3,1.39-.49,3.18-.61-.55-.6-3.09-.14-4.61-.23-1.1.53-1.82,1.2-7.54.61-.95-.1-2.48-.1-2.87.1-.42.22.76.31,2.01.38l.54-.02-.48.03,1.25.89Z"/><path d="m56.23,14.13c.17,0,.22.03.17.08.57.14,4.19-.78,3.6-.19,1.04.28,2.39-.08,3.73-.7,1.17-.53,2.17-1.07,4.13-.84,1.4-.37,2.48-.06,3.75-.56,1.61-.63.18-.7-1.29-.74-4.8.77-10,1.24-14.09,2.95Z"/><path d="m127.83,5.05c1.66.33,5.71.06,6.89.68.56.3,5.65-.52,8.43-.89.46-.06.75-.16,1.12-.24v-.53c-4.31-.24-8.28.6-12.54.6l-3.13.23c-.41.03-.67.08-.77.14Z"/><path d="m303.86,3.72c-.81-.24-3.89-.72-7.21-1.15-3.32-.37-6.89-.66-8.62-.72-3.43-.09-1.27.33-1.96.48,2.18.09,4.37.1,6.42.45.44.08,1.96.22,2.05.21,2.8-.21,6.27.51,9.32.72Z"/><path d="m297.22,6.71c-1.62-.49-4.97-.2-5.71-1.05-1.66-.57-3.37-.58-5.08-.63-2.88.19-7.32-.52-10.66-.52.64.38.52.76,4.1.75,2.16.02,5.26.4,7.93.68l1.5-.07.45.17-1.87-.08c2.18.4-4.72.76,3.39,1.19.32-.26-.69-.8,2.5-.44.68-.16,3.56.39,3.45,0Z"/><path d="m375.68,20.85c.09-.03-.25-.29.69.16-6.49-3.39-13.51-6.67-19.74-8.02l.11.21c1.51.5,2.98,1.1,4.47,1.64,4.9,1.76,9.73,3.75,14.47,6.01Z"/><path d="m275.77,4.51c3.34,0,7.78.71,10.66.52-.31-.66-3-.47-4.35-.65-5.17-.73-10.55-1-15.81-1.12,1.01,1.12,6.18.84,9.5,1.25Z"/><path d="m189.82,3.62c3.74,0,7.95-.3,10.46.42.96.28,2.34.1,2.56-.19.16-.22-.14-.45,1.44-.59.5-.6-2.63-.4-4.29-.41-3.74-.02-7.54.05-11.31.08.31.23-.64.53,1.14.68Z"/><path d="m170.73,5.95c-2.61-.13-5.32-.24-7.18.3-1.2.36-1.92.17-3.01.05-3.64-.39-7.23-.32-10.61.34,3.39.43,7.6.22,11.71.08,3.03-.12,6.03-.24,9.05-.36l.03-.41Z"/><path d="m130.97,78.62c-.86.3-3.47.63,2.53.77,3.12.08,4.53.48,6.11.89.79.2.24.59,2.73.58,2.01,0,1.57-.34,1.21-.62-.34-.27-.52-.54-.78-.81-3.94-.24-7.87-.52-11.8-.81Z"/><path d="m88.23,8.63c-.32.59-.32,1.03,4.76.06l3.55-.79,2.27-.28c.94-.29,2.3-.42,3.6-.54l1.32-.53c.07-.37-1.51-.11-2.77.06-4.27.62-8.5,1.29-12.72,2.02Z"/><path d="m82.03,73.8l2.44.72c3.36.41,6.95.48,9.72,1.5.71.27,2.88.27,2.76.19-.56-.32,4.09.12.86-.54-5.25-.49-10.85-1.89-15.78-1.87Z"/><path d="m89.62,10.21c-1.28.33-3.16.92-3.72.95-2.22.12-.17-.33.56-.62.49-.19-.19-.2-1.08-.08-1.02.13-2.11.37-2.1.53,0,.26.36.47.56.7,4.34-.1,9.19-.89,14.02-1.53l.1-.47c-.06-.04-.08-.09-.06-.14l-1.29.13c-3.09.57-6.03,1.11-6.99.51Z"/><path d="m50.31,69.11c4.41.9,3.67-.32,8.46.63-2.35-.98-4.74-1.84-8.08-1.95-.39.03-.67.19-1.18.09-3.86-.82-4.39-.87-3.76-.54.64.32,2.46.95,3.33,1.29.22-.07.05-.28,1.42.06l-.34.22c.06.07.11.14.14.2Z"/><path d="m156.95,82.79c-1.03-.39-3.04-.86-5.14-.63-4.03.46-11.18-.92-13.9-.07,6.46.49,12.81.71,19.04.7Z"/><path d="m255.1,82.54l-4.66-.17-2.44-.06c.03.43-1.99.46-3.95.5-4.6-.3-8.91-.16-12.96.44.39.18,1.65.33,2.49.26,3.47-.3,7.17-.29,10.84-.36,3.67-.08,7.32-.18,10.69-.61Z"/><path d="m275.65,7.17c-.18-.64-.94-1.18-5.54-.94-3.41.17-7.66-.9-10.96-.37,4.9,1.02,10.89.87,16.51,1.31Z"/><path d="m394.99,41.44c.26-.72.37-1.88.03-3.26-.32-1.37-1.07-2.89-2.06-4.35.05.83-1.31-.38-3.22-1.69,1.54,1.78,3.02,3.24,4.1,5.05.2.21.38.49.56.8.18.31.27.69.4,1.06.18.77.24,1.61.2,2.38Z"/><path d="m224.29,2.86c4.18.72,12.85.6,18.06-.26-5.15-.32-10.32.04-15.49.09-.13.38-1.39.26-2.58.17Z"/><path d="m6,51.15c-1.09-.93-1.81-1.64-1.97-1.45.34.42.68.84,1.05,1.23l.13.39c-.28-.29-.55-.58-.82-.89-.17-.3-.36-.58-.52-.88-1.01-1.14-1.48-1.73-1.73-1.73,1.3,2.06,2.81,3.66,4.47,5.14,1.67,1.46,3.53,2.75,5.78,3.83-.07-.76-3.63-2.92-5.57-4.94-.27-.23-.55-.47-.81-.71Z"/><path d="m214.64,83.04c-5.49,0-10.93.06-15.6.56,1.84.31,3.57.46,6.32.13,3.48-.42,7.81-.08,11.66-.26l-.22-.39c-.71-.01-1.43-.03-2.16-.04Z"/><path d="m176.63,4.94c4.9-.17,7.53-.96,5.92-1.78l-4.79.06c.74.4-2.8.66-2.1,1.06,1.4.17.82.44.96.67Z"/><path d="m70.19,72.44c2.66.24,5.31.46,7.97.65-3.92-.92-7.81-1.8-11.62-1.91l.31.66,3.34.59Z"/><path d="m52.09,17.41l-2.97.73-.45.41c4.35-.96,8.8-1.7,12.75-3.03-1.36-.05-4.07.38-4.65.11-.82.25-1.52.47-2.22.68-.13.29-.19.54-2.47,1.1Z"/><path d="m170.73,5.95l-.03.41,5.94-.1c1.21-.46,1.12-.9-.02-1.32-2.9.01-2.22-.35-2.29-.63-.46-.14-1.12-.26-2.24-.17-1.31.11-.53.27-.29.39.92.47,2.64.95-1.08,1.41Z"/><path d="m4.86,34.5l-.19-.33c-1.62,1.44-3.42,3.19-4.26,5.66-.19.62-.35,1.24-.38,1.88-.08.63-.03,1.27.07,1.86.21,1.2.69,2.24,1.31,3.03,0-.39.27-.42.2-.88,0-.25-.15-.57-.32-1.17-.19-.58-.47-1.44-.53-2.76-.06-.58.09-1.25.29-1.96.26-.68.6-1.39,1.04-2.02.87-1.28,1.96-2.36,2.76-3.31Z"/><path d="m257.85,82.16l-.27.5c4.64.18,8.81-.42,13.08-.8l-2.25-.24c-2.38-.04-2.44-.37-2.79-.66-.32,0-.64.02-.98.03.02.66-.67,1.29-6.8,1.18Z"/><path d="m309.85,76.42l4.69-.56c1.56-.22,3.11-.44,4.67-.66,2.01-.27,3.53-.51,3.68-.87-4.21.15-8.76,1.29-13.12,1.6.01.17.02.33.09.5Z"/><path d="m268.41,81.61l2.25.24c1.71.02,3.46.1,5.12.05,1.66-.08,3.23-.27,4.6-.75-1.54,0-3.11,0-4.73.04-1.62.02-3.28.04-4.99.09-1.62.05-2.18.1-2.25.33Z"/><path d="m76.34,10.35c.14.03.19.09.43.1,1.73.02-4.67,1.49.24.81,3.54-.5,5.74-1.33,5.34-1.9-2.09.21-4.34.24-6.01,1Z"/><path d="m325.75,5.23c-1.28-.43-2.61-.88-5.52-1.07-2.42-.18-4.47-.55-5.66-.99-.84-.08-1.92-.21-2.24-.14.67.2,1.35.41,2.02.62,1.84.32,3.68.58,5.51.82l2.76.37,2.74.47.39-.08Z"/><path d="m266.98,1.67c2.07-.34-1.2-.43-4.14-.45-2.17-.06-3.54.01-4.46.17l.05.26c2.8-.03,5.59-.13,8.54.02Z"/><path d="m388.58,53.86c-3.5,2.75-7.96,4.91-11.24,6.99,4.1-1.6,7.79-4.11,11.39-6.74l-.16-.25Z"/><path d="m112.94,77.15c.51,1.37,5.64.79,8.54,1.11-.17-.27.71-.57-2.85-.69-1.78-.07-3.79-.27-5.69-.41Z"/><path d="m81.49,12.09c-.46-.2-.08-.69-2.74-.28-3.59.58-1.34.88-3.37,1.43,2.94.04,4.07-.78,6.11-1.15Z"/><path d="m212.37,5.51c1.77-.15,3.54-.3,5.32-.44-3.35-.04-3.56-.46-4.04-.86-.28-.23-1.07-.41-2.67-.39-.6,0-1.53.11-1.72.19-.53.24.77.28,1.8.37,3.7.31-2.96.78.26,1.1.34.02.69.03,1.06.03Z"/><path d="m260.57.28c1.18-.06,2.58.09,3.91.18,1.33.11,2.59.16,3.52-.14-1-.37-1.01-.45-7.43-.03Z"/><path d="m114.58,7.61c3.14-.08,2.97.37,3.7.67,2.45-.16,5.16-.02,7.12-.59l-.09-.21c-1.76.01-4.84.37-5.15.03-.68-.76-3.17-.23-5.58.1Z"/><path d="m107.39,9.2c1.46-.71-2.15-.51-3.89-.62l-1.82.53-1.38.89c2.44-.17,4.54-.8,7.09-.8Z"/><path d="m156.99,80.66l.02-.5c-2.22-.24-4.44-.48-6.91-.42.01.27-.86.59,2.47.71,2.51.09,3.65.29,3.54.65,1.11-.08.77-.27.87-.43Z"/><path d="m389.74,32.15c1.91,1.32,3.27,2.52,3.22,1.69-1.77-1.76-4.65-3.87-5.34-3.8l.22.48c.63.55,1.28,1.08,1.9,1.63Z"/><path d="m189.82,3.62c-1.78-.15-.83-.45-1.14-.68l-3.58-.02c-.55.65-.62,1.24,4.78,1.29l-.06-.58Z"/><path d="m216.8,83.09l.22.39c2.32,0,4.3-.13,5.99-.37-1.49-1.19-3.88-.54-6.21-.01Z"/><path d="m332.23,7.98c.03-.07.27-.11.06-.23-.6-.33,2.82.02-.79-.76-3.2-.68-.5.24-1,.31-.14.01-1.21-.15-1.86-.23.76.28,1.43.56,3.6.9Z"/><path d="m394.99,41.44c.05-.77-.02-1.61-.2-2.38-.13-.38-.22-.75-.4-1.06-.17-.31-.36-.59-.56-.8.15.38.32.74.46,1.12.1.38.26.76.31,1.14.24.86.22,1.62.09,2.02.03,1.43-.39,2.86-1.06,4.19.18-.25.39-.5.56-.77.47-1.11.74-2.28.79-3.46Z"/><path d="m185.7,2.87s-.09.05,0,.07c.42.08-1.35.37,1.57.19,1-.06,2.84-.41.94-.42l-2.51.16Z"/><path d="m303.96,77.6c.05-.33,3.03-.83,2.27-1.11l-3.62.43c.46.23-.77.7,1.35.68Z"/><path d="m307.95,11.09c-.03-.28-1.13-.64-2.35-1.01-5.23-.69,1.06.65-.39.62.22.09.51.15.89.2l1.56.25c.33.03.42.02.28-.05Z"/><path d="m126.15,5.32l2.37-.31c-1.07-.36-3.97-.06-5.78-.13l-.11.36.12.36c.65-.02,1.14-.05,1.62-.08.17-.21.98-.21,1.78-.2Z"/><path d="m173.68,83.51c-.2-.32-2.8-.26-3.57-.5l-1.9.1,1.53.27c1.26.13,2.57.19,3.95.12Z"/><path d="m45.33,19.5c-.77-.14-1.74-.07-3.64.85,1.01-.1,1.51.21,3.64-.85Z"/><path d="m358.06,68.13l-3.56,1.28c-.05.46,1.93-.26,3.69-.86l-.13-.42Z"/><path d="m34.99,22.22c-1.67.61-3.6,1.16-4.67,1.87,2.53-.51,3.74-1.16,4.67-1.87Z"/><path d="m173.09,3.72c1.18-.02,2.54-.12,4.07-.31-1.31.08-2.1-.1-4.07.31Z"/><path d="m394.2,44.9c-.17.27-.38.52-.56.77-.16.33-.36.64-.57.95-.21.31-.4.63-.65.91l.18.02c.39-.35.68-.78.99-1.2.26-.45.47-.94.62-1.45Z"/><path d="m141.88,6.81s.02-.07.16-.1c-.17.03-.35.05-.55.06-.1.13-.21.27-.32.41l.72-.38Z"/><path d="m394.71,41.48c.13-.4.15-1.16-.09-2.02-.26.05-.03.68.09,2.02Z"/><path d="m181.31,6.22c-.13-.14.08-.35-1.24-.3-.97.03-.78.18-.07.27l1.31.04Z"/><path d="m122.63,5.25l.11-.36c-1.23.13-2.07.3-2.45.51l2.34-.15Z"/><path d="m128.6,4.91l3.13-.23c-1.33-.17-2.38-.1-3.13.23Z"/><path d="m309.79,76.42l-.03-.5c-.79.06-1.19.15-1.22.27.12.13-.43.38,1.25.23Z"/><path d="m59.87,70l.31.39c1.24.19.51-.12.8-.17-.37-.11-.74-.18-1.11-.22Z"/><path d="m224.29,2.86c1.18.09,2.45.21,2.58-.17-1.08-.05-2.16-.09-2.58.17Z"/><path d="m325.36,5.31l-2.74-.47-2.76-.37c-1.84-.25-3.67-.51-5.51-.82-1.29-.14-1.86-.13-1.98-.03l-.2.33c2.04.25,2.69.45,1.94.54-.35.05-.84.09.5.29.39.06,1.02.14,1.54.19.26.02.5.05.67.06.17.01.28.02.27,0-.18-.5,5.21.18,7.34.31.44.02.63-.03.93-.04Z"/><path d="m247.97.5c-2.53-.07-5.06-.15-7.51.1,4.24-.02.78.41,3.77.47l4.77.13c-.61-.23-3.15-.41-1.03-.7Z"/><path d="m372.76,20.86c1.7,1.1,4.03,2.26,6.39,3.59,0-.17.43-.15-.1-.56-.71-.55,2.54.98-.3-.61-1.97-1.11-1.69-.68-1.55-.42.06.12-.05.37-1.24-.52-2.18-1.64-1.96-.8-3.19-1.48Z"/><path d="m289.58,1.38l-3.59-.32c-.47.1-3.55.08-.85.34,2.86.28,3.83.17,4.43-.01Z"/><path d="m298.12,2.1c1.05.03,2.02,0,1.39-.14-1.9-.4-4.12-.32-6.23-.46.16.34,2.94.37,4.85.6Z"/><path d="m361.2,14.83c-1.49-.54-2.97-1.14-4.47-1.64.18.28,1.55.9,3.34,1.55,1.38.5.99.16,1.14.09Z"/><path d="m392.85,47.9c-.19.26-.39.53-.61.8l.11.28c.92-1.1,1.96-2.54,1.99-3.24-.21.38-.42.77-.69,1.12-.26.36-.49.73-.79,1.05Z"/><path d="m285.06,1.03c-.48-.27-2.18-.27-3.89-.27l.11.23c1.27.02,2.53.03,3.78.05Z"/><path d="m307.89,3.93c.25.05.49.1.73.15l.69-.03c-.31-.05-.66-.12-.9-.14-.23-.02-.35.01-.52.02Z"/><path d="m369.43,19.32l2.51,1.15c-.29-.21-.47-.43-.89-.63-1.21-.59-1.25-.45-1.62-.52Z"/><path d="m299.16,2.51l-1.14-.32c-1.81.01-.41.16,1.14.32Z"/><path d="m281.29.98c-.65-.01-1.59-.08-1.58.02,0,.02.46.08.7.09,1.09.04.79-.05.88-.11Z"/><path d="m312.16,3.95l.2-.33c-1.55-.07-1.69.03-.2.33Z"/><path d="m344.11,10.17c0-.06-.19-.1-.35-.15.01.06.19.1.35.15Z"/><path d="m390.65,50.69l.06.14c.58-.58,1.11-1.22,1.62-1.85-.53.57-1.08,1.17-1.69,1.7Z"/><path d="m302.78,2.72l.27.07c-.1-.02-.2-.05-.27-.07Z"/><path d="m280.58.74l-.34-.14c-1.04.02-.83.07.34.14Z"/><path d="m192.09,4.37c-1.45.32-3.71.6-2.04,1.04.71.19,1.57.36,3.06.37,2.21.01,2.46-.26,2.76-.51-1.15-.29-1.73-.59-.75-.95.45-.16.34-.32-.97-.33-1.57-.01-1.81.19-2.05.37Z"/><path d="m293.77,6.72c-3.19-.36-2.18.18-2.5.44,1.17.18,2.85.26,2.96.66.06.2,1.17.57,2.22.66,1.08.09,2.09,0,2.5-.12.67-.21-1.41-.37-2.04-.55-1.24-.35-2.11-.72-3.14-1.08Z"/><path d="m232.4,4.96c2.18.91,6.22.53,10.03.32-2.79-.49-5.96-.72-10.03-.32Z"/><path d="m229.44,5.04l1.23-.06c.21-.05.34-.13.63-.16,2.29-.25,3.82-.52,1.45-.93-.62-.11-2.32-.21-2.03-.02.69.44-6.86.67-1.29,1.17Z"/><path d="m203.02,5.56l3.45.06c.03-.26,2.91-.65-.15-.75-2.26-.08-3.84.26-3.3.69Z"/><path d="m219.33,5.07l3.84.49c-.09-.22,1.97-.48.21-.66-1.4-.15-2.91-.03-4.05.18Z"/><path d="m286.35,6.76c-.68-.16-1.09-.29-1.5-.33-.44-.05-.87-.01-1.31,0,.36.1.69.22,1.09.28.42.06.92.04,1.72.07Z"/><path d="m225.76,5.55l3.32-.16c.16-.03.32-.05.48-.08l-.15-.19c-1.49.08-3.68,0-3.65.43Z"/><path d="m199.97,5.6c.98.15,1.97.32,2.97-.02l-2.97.02Z"/><path d="m279.08,6.97c-.33-.07-.5-.06-.67-.05.12.03.24.06.67.05Z"/><path d="m111.59,79.52c1.33.11,2.86.29,3.67.13.64-.49,4.63.26,6.26.05.61-.08,2.61.63,3.53.31.57-.19-1.41-.56-2.62-.86-1.24-.3-2.22-.41-3.97-.37-2.2.05-4.75,0-6.65-.75-1.14-.45-3.27-.41-4.52-.41-2.18-.02-.45.33.8.6,1.97.44,3.92.89,3.5,1.29Z"/><path d="m156.99,80.66c-.1.16.23.36-.87.43-.28.2-3.22.12-1.79.48.5.13,1.66.3,2.43.32,2.57.06.88-.34,1.44-.5.32-.09.56-.2,1.03-.26.93-.13,3.62-.13,2.62-.38-1.15-.3-3.1.03-4.86-.09Z"/><path d="m148.26,80.95c-.25-.04-.49-.09-.73-.13l-.7.12c.31.03.66.09.91.09.22,0,.35-.06.52-.09Z"/><path d="m89,76.78l-1.18-.16c.38.05.79.11,1.18.16Z"/><path d="m203.57,2.63c-.25-.06-.32-.14-1.92.01.22.06.99.04,1.92-.01Z"/><path d="m37.25,66.32l2.36.71c.09-.2-.36-.68.39-.55,1.32.22,2.49.45,2.13.06-.17-.19-.89-.34-1.18-.36-1.08-.07-4.45-1.13-3.69-.4.25.24.01.36,0,.54Z"/><path d="m30.64,63.59c.66.4.61.69,2.25,1.23.23.08.84.14.8.06-.23-.38-1.84-.8-3.05-1.29Z"/><path d="m6,51.15c.27.25.54.48.81.71.09-.11.34-.06-.7-1l-.11.29Z"/><path d="m50.17,68.91l.34-.22c-1.37-.34-1.21-.13-1.42-.06l1.08.28Z"/><path d="m44.36,67.98l-.35-.33c-1.15-.17-.02.17.35.33Z"/><path d="m244.22,1.06c-2.98-.06.48-.49-3.77-.47-1.54.01-2.63.13-3.44.23-1.7.23-3.79.47-.61.62,5.01.23,5.22-.25,7.82-.38Z"/><path d="m224.13,1.77c1.72-.09,4.48.06,4.32-.24-.05-.1-.75-.27-2.7-.16-1.89.11-4.66.33-4.76.45-.2.22,2.25-.08,3.14-.05Z"/><path d="m225.99.99c-1.35-.07-2.19-.16-3.17-.14-1.24.03-3.44.12-3.52.29-.04.1.77.16,2.08.11,1.41-.06,2.79-.15,4.61-.26Z"/><path d="m209.58,2.29c-.16-.05-.17-.14-1.42-.06-.39.02-.6.11-.89.16l2.32-.1Z"/><path d="m230.75,1.27c-.39.04-.15.04.09.04l-.09-.04Z"/><path d="m211.86,2.29l-.54.02-.54.02c.37.03.73.02,1.09-.04Z"/><path d="m146.77,6.19c-.26-.3-1.5-.36-3.24-.21-2.21.19-1.32.48-1.53.73,2.15-.03,2.22-.61,4.77-.52Z"/><path d="m174.34,4.31c.07.28-.61.64,2.33.63-.18-.23.4-.5-1-.67l-1.33.04Z"/><path d="m146.79,6.18l.27.07c-.1-.02-.19-.04-.27-.07Z"/><path d="m214.64,83.04l2.18.05c-.38-.13.73-.38-1.02-.38-.99,0-1.23.19-1.16.33Z"/><path d="m244.05,82.81c1.96-.04,3.98-.07,3.95-.5-1.46.14-3.09.25-3.95.5Z"/><path d="m114.58,7.61c2.41-.33,4.89-.86,5.58-.1.31.34,3.38-.02,5.15-.03-.99-.36-1.78-.74-3.01-1.06-2.63-.7-7.39-.45-11.2.57-.47.13-.7.29-1.29.38-2.19.36-2.28.98-.07,1.03q.92.02,1.41-.42c.23-.21.14-.44,1.8-.59.51-.05,1.09.13,1.64.21Z"/><path d="m96.61,9.7l1.29-.13c2.21-.9-1.4-1.05-1.37-1.67l-3.55.79c-.27.59,4.5.3,3.62,1.01Z"/><path d="m102.41,7.08c-1.31.11-2.66.24-3.6.54.04.02.01.07.13.07,1.63.02,1.39.63,3.35.33,2.89-.44-.4-.56.12-.93Z"/><path d="m108.83,7.04c.34-.09.74-.16.71-.19-.11-.09-.38-.16-.59-.24-.15.06-.43.14-.43.19,0,.08.18.15.32.24Z"/><path d="m126.15,5.32c-.8,0-1.61-.01-1.78.2.76-.01,1.82.08,1.78-.2Z"/><path d="m122.75,5.61l-.49.13c.21-.04.43-.07.49-.13Z"/><path d="m70.19,72.44l-3.34-.59c-1.12.51-6.67-.72-8.59-.58.13.26-.4.49,2.29.99-1.07-.56.91-.33,2.16-.19,1.53.17,2.2.57,2.73.85l3.39.65c6.5.45,6.63.3,1.36-1.13Z"/><path d="m65.43,72.92c-.53-.28-1.2-.68-2.73-.85-1.25-.14-3.23-.37-2.16.19,1.83.34,4.08.95,4.89.66Z"/><path d="m82.17,75.49c-3.1-1.35-4.28-.53-6.39-.81,2.53.74,4.49.79,6.39.81Z"/><path d="m89.03,76.78l-1.23-.17c.39.22.79.28,1.23.17Z"/><path d="m52.09,17.41c2.28-.55,2.34-.81,2.47-1.1-.43-.27.79-.46,2.09-.65.65-.5.04-.86,3.34-1.64.59-.59-3.03.33-3.6.19-4.58,1.57-4.75,2.48-4.31,3.2Z"/><path d="m89.59,10.21l1.49-.25c-.86-.05-1.05.14-1.49.25Z"/><path d="m340.3,72.12c-.53.26-.65.45-.77.63,1.18-.26,2.36-.52,3.54-.77,1.18-.25,2.34-.6,3.5-.89,2.1-.56,2.09-.78,2.13-1-1.26.29-2.77.76-3.57.74-1.59.51-3.22.87-4.84,1.29Z"/><path d="m346.58,71.09c-1.17.29-2.32.64-3.5.89l-3.53.77-.02.35,4.1-.82,4.07-.98-1.11-.2Z"/><path d="m340.3,72.12c1.62-.42,3.25-.78,4.84-1.29l-.08-.36c-1.57.45-3.18.76-4.78,1.12l.02.52Z"/><path d="m372.21,61.38c-.1-.11-.28-.21-1.51.27-.56.22-1.22.65-1.84.99.85-.17,2.15-.73,3.36-1.26Z"/><path d="m345.14,70.83c.79.02,2.31-.44,3.57-.74-.77-.03-2.19.37-3.57.74Z"/><path d="m359.18,67.62c-.02-.08,1.01-.55-.02-.27-.11.02-.43.14-.52.18-.63.31-.22.26.54.09Z"/><path d="m7.84,34.17c1.57-1.3,3.71-1.16,5.06-3.11-.08-.85-3.72,1.62-5.42,2.72.13.12.24.25.35.39Z"/><path d="m30.08,22.8l-.45.21c.14-.07.28-.13.45-.21Z"/><path d="m7.48,33.78l-.26.1c.09-.03.18-.07.26-.1Z"/><path d="m390.65,50.69c.61-.54,1.15-1.13,1.7-1.72l-.11-.28c-1.14,1.22-1.7,1.82-1.59,2Z"/><path d="m257.85,82.16c6.13.12,6.82-.52,6.8-1.18l-1.34-.67c-4.56-.24-7.11.51-10.64.78-.41.62-.09,1.14,5.19,1.06Z"/><path d="m315.5,76.35l.52-.05c-.02-.07-.23-.05-.52.05Z"/><path d="m229.08,5.39l.85.06c-.13-.05-.25-.09-.38-.14-.16.03-.32.05-.48.08Z"/><path d="m303.93,77.61c.42,0,.84,0,1.27-.01,0,0,.22-.07.33-.1-.52.04-1.04.07-1.6.11Z"/><path d="m235.93,81.21l-2.29-.14c.16.22.28.46,2.29.14Z"/><path d="m339.53,72.76c.12-.18.24-.37.36-.56-1.16.25-2.44.53-2.6.77-.16.25.98.05,2.23-.21Z"/><path d="m44.94,18.83c.08-.21.07-.41-1.09-.23.17.14-.29.47,1.09.23Z"/><path d="m39.05,19.43h.26c-.09,0-.18,0-.26,0Z"/><path d="m48.27,17.21c-.27-.06-.3-.25-.89-.16-.77.11-1.44.45-1.17.49.52.07-1.74,1.08,1.81.13.08-.15.16-.3.24-.46Z"/><path d="m48.27,17.21c-.08.15-.16.3-.24.46,1.74-.55,1.57-.63.24-.46Z"/><path d="m14.42,56.71c.13.11.25.22.41.34.02.02.39.18.42.17.07-.02.03-.09.03-.14l-.87-.38Z"/><path d="m169.02,82.1l.48-.03c-.18,0-.36.01-.48.03Z"/><path d="m287.88,5.96l1.87.08-.45-.17c-.5.02-1,.05-1.42.09Z"/><path d="m4.38,50.44c.27.3.54.59.82.89l-.13-.39c-.23-.17-.47-.32-.69-.5Z"/><path d="m5.07,50.94c-.37-.39-.71-.81-1.05-1.23,0,.15.18.44.35.74.23.18.46.33.69.5Z"/><path d="m56.66,15.66c-1.3.19-2.52.38-2.09.65l2.09-.65Z"/>
                  </g>
                </mask>
              </defs>
              <path class="mask" d="m328.93,14.21c-6.97-1.72-17.45-4.06-30.38-6.02-26.29-3.97-46.74-3.92-58.56-3.85-76.12.5-114.91,1.11-144.54,4.78-29.33,3.64-56.24,8.72-77.67,19.08-7.79,3.77-15.83,8.17-15.93,14.16-.13,8.36,15,14.96,21,17.58,46.19,20.15,144.3,21.78,150.96,21.86,2.21.03,5.19.06,8.82.08,120.73.76,165.16-7.36,195.42-22.86,8.92-4.57,17.7-10.33,17.75-17.66.02-3.5-1.91-11.65-26.82-22.68C338.87,5.38,300.75-.84,226.16,1.42c-21.26.65-49.98,2.12-83.95,5.68"
                    mask="url(#path-mask)" stroke="black" stroke-width="2" fill="none"
                    stroke-dasharray="1018.09423828125" stroke-dashoffset="1018.09423828125">
              </path>
            </svg>
        