
            <svg xmlns="http://www.w3.org/2000/svg">
              <defs>
                <mask id="path-mask">
                  <g fill="white">
                    <path d="m96.01,72.21c4.49.35,1.65-.06,2.56-.09l3.22.33c2.63.3,5.71.6,8.21.92,5.14.71,14.84,1.08,18.99,1.03,2.84.17,4.64.16,5.84.13,3.78.22,9.4.28,12.32.51.8.15,4.12.34,1.33.44-2.01.05-4.2.1-7.42-.13-2.66-.17-5.09-.25-6.6-.18l-2.51-.09c-3.11-.03-7.3-.71-9.74-.47-.97-.06-2.76-.17-2.8-.17-2.47.21-8.19-.38-13.15-.79l-.07-.09c1.36.07,1.08.02-.45-.1-.25-.02-.51-.04-.78-.05l-.15-.13c.85.06,2.08.16,2.07.11,0,0-.15-.03-.34-.05-.19-.02-.42-.04-.57-.05-1.43-.11-1.03-.03-1.18-.01-1.64-.1-3.28-.2-4.91-.33-.4-.03-.8-.07-1.22-.1.61-.01,4.64.28,1.1-.1-3.74-.41-5.02-.43-5.79-.39-.72.05-2.32-.09-4.82-.42-.22-.19-3.84-.52-6.34-.82l.13-.04c2.37.17.52-.04-1.5-.29-2.73-.42-3-.3-4.73-.5l-.35-.07.39.07c-.17.07.84.33-4.14-.34-3.1-.42-5.76-.76-5.24-.53l-3.07-.41-2.67-.58c1.67.24,2.42.31,2.56.27,2.01.23,2.19.19.24-.14-2.66-.39-3.54-.57-2.57-.53.45.02,1.08.06-.68-.21-.52-.07-1.33-.19-2.02-.28-.34-.04-.65-.09-.88-.11-.22-.03-.36-.04-.36-.04.14.15-1.55-.04-3.62-.32-2.07-.3-4.48-.9-5.85-1.14-.56-.11-.8-.13-1.18-.19l-.49-.05c-6.18-1.58-12.53-3.66-17.96-5.54-1.37-.48-3.23-1.31-4.52-1.97-2.34-1.16-3.88-2-5.16-2.64-3.48-2.15-6.92-4.71-9.06-8.37l-.05-.23c-.04-.17-.29-.71-.58-1.52-.29-.81-.58-1.92-.57-3.2.04-.98.11-1.31.1-1.41,0-.11-.07.01-.08-.07.31-1.75,1.22-3.32,2.3-4.67,1.1-1.36,2.44-2.49,3.85-3.52,2.82-2.06,5.96-3.67,9.23-5.12l-.27.09c.07-.06-.45.12.79-.43.34-.19.45-.31,2.08-.96-.51.37,2.67-.88,5.3-1.74,5.67-1.92,12.37-3.71,17.42-5.08,3.51-.9,5.86-1.55,9.31-2.29,2.08-.46.9-.31,1.06-.41,6.67-1.53,13.4-2.78,20.14-4v.12c-1.33.31-1,.32-.33.27,1.15-.07-.55.3-4.15.95l-3.17.64c-1.89.38-4.17.82-4.99,1.08l3.48-.66c.45-.03,2.51-.38-.13.2-1.4.21-2.81.49-4.24.85-1.67.32-3.33.69-4.98,1.06-1.04.13-2.58.38-4.42.71-1.83.35-3.95.82-6.17,1.29-3.09.87-7.58,2.2-8.17,2.59-4.31,1.2-8.59,2.48-12.81,4.11-.13-.02.32-.28-.52-.01-1.11.35,3.25-1.4-.74.1-2.76,1.07-2.17.97-1.85.91.15-.02.21.08-1.61.71-1.66.59-2.28.91-2.83,1.23-.56.31-1.05.61-2.4,1.3-.43.18-.74.29-1.27.6-1.54.85-1.47.94-1.85,1.22-2.39,1.53-4.66,3.3-6.22,5.67-.76,1.18-1.33,2.52-1.48,3.95-.14,1.42.08,2.91.68,4.29.62,1.44,1.39,2.39,2,3.08.64.67,1.14,1.09,1.52,1.37,3.32,3.21,7.45,5.52,11.67,7.46,4.24,1.92,8.69,3.42,13.14,4.83-.03.03-.33-.02-.05.1.8.35-3.55-.82,1.08.63,4.12,1.23.61.01,1.23.11.18.03,1.55.42,2.38.63,1.91.5,3.87,1,5.85,1.47.99.23,1.99.46,3,.7,1,.23,2,.46,3.03.59,4.09.63,8.25,1.25,12.31,1.81,2.37.33,6.25.68,8.11,1.1,1.07.22,5.11.82,9.47,1.37,4.35.55,9.02,1.05,11.29,1.23Zm-27-3.33l-.89-.06c.4.06.87.13,1.18.17.31.04.45.03.68.05-.33-.06-.65-.11-.97-.16Zm-45.03-11.46c-.16-.08-.38-.19-.57-.29.02.04.24.15.57.29Z"/><path d="m104.67,3.3c10.47-.92,20.82-1.36,31.24-1.92,1.41.27,8.14-.28,12.5-.4.88.07.78.19,5.43-.08,2.82-.16,6.9-.26,10.52-.35,2.9-.02-6.02.56,4.61.15,1.56-.01,3.75-.09,3.97.03.11.06,1.63.12,3.01.08,1.42-.04,2.72-.13,3.22-.19.83-.11-1.9-.04-2.75-.06-1.67-.06-2.88-.1-4.27-.16.85-.1,4.68-.09,4.47-.22,2.35.14,10.58-.09,10.58.16,0,.12-3.33.25-4.75.42-1.47.17-7.81.23-12.84.31-2.27.02-4.43.04-6.68.06-2.18.05-4.86.02-6.45.17-1.7.16,4.31-.07,3.21.09-3.46.19-7.09.35-11.11.44-.31-.18-1.38-.31-7.37.15-4.46.36-10.12.38-14.42.83l-1.66.1-3.15.12c-5.3.09-10.99.43-17.14,1.12-3.67.13-7.81.39-13.11,1.09l-2.26.24c.27-.05.43-.09.82-.14,2.99-.4,4.97-.69,1.87-.5-.81.05-3.04.25-2.65.27.91.01-8.92,1.28-1.68.6-1.94.26-4.79.58-4.74.71l-3.37.46c-.13-.06,2.55-.51.25-.26-1.83.19-3.79.51-5.26.82l-2.12.33c-4.35.69-4.63.64-5.28.6-.37,0-1.41.08-3.47.51-.77.15-1.97.42-2.2.5-.67.21,1.01-.1,2.34-.33,4.78-.83-3.77,1,.39.3-1,.35-3.67.82-6.15,1.39l-.06-.08c.03-.1,3.69-1.04-.24-.21-2.91.61-4.91,1.18-4.29,1.19l-3.78.94c-1.76.37-3.49.83-5.23,1.26-1.48.3-2.23.4-1.02-.06.56-.21.4-.22-1.25.23-1.98.56-2.27.72-2.56.87l-2.8.75-.12-.17c4.7-1.37,10.02-2.97,13.28-3.5,1.24-.21,2.98-.7,3.25-.87.19-.12-.21-.12,1.81-.61,8.26-2.07,16.92-3.61,25.86-4.68,5.46-.52,16.79-1.73,23.59-2.51Zm55.82-2.39c-.58.02-1.14.06-1.71.09.48,0,.93.03,1.46.01.55-.03,1.2-.05,2.25-.1-.92,0-1.47-.01-2,0Z"/><path d="m385.72,49.38c1.78-.98,3.05-1.76,4.08-2.44,1.05-.66,1.85-1.25,2.67-1.9.41-.31.5-.37.79-.59.14-.12.35-.27.61-.59.27-.31.65-.75,1.08-1.45.67-1.15.74-1.68.74-1.8,0-.12-.16.11-.29.32-.24.4-.5.55-.73.8.76-1.32,1.1-2.85.8-4.3-.28-1.46-1.12-2.79-2.13-3.95.03-.05.26.11.12-.12-.15-.21-.61-.89-2.29-2.24-2.6-1.97-3.96-2.65-3.76-2.75.39.06,3.61,2.17,2.09,1.03-.52-.43-1.82-1.24-2.71-1.74-3-1.55-1.07-.39-1.76-.67-.38-.15-.69-.23-1.26-.47-1.1-.49-4.39-1.78-3.19-1.2,1.36.69,3.76,1.52,5.76,2.66l-.1.18c-4-2.12-8.2-3.72-12.42-5.09-4.22-1.37-8.47-2.5-12.72-3.52.72.04,1.32.06,2.65.31,1.33.25,3.39.73,6.99,1.84,1.18.38,3.11.95,3.62,1.03.54.09-.92-.44-2.56-.93-.5-.27-1-.54-1.3-.75l2.41.65-1.9-.67c5.77,1.54,11.1,3.48,15.68,6.16,1.15.79,3.42,2.22,5.62,3.94,1.06.81,2.23,1.97,3.16,3.48.45.76.82,1.62,1,2.54.18.92.17,1.9-.04,2.8-.41,1.83-1.47,3.31-2.46,4.43-1.01,1.13-1.97,1.97-2.61,2.6-4.25,3.05-9.2,5.32-14.11,7.2.12-.3-3.67,1.08-6.85,2.16-2.84.97-4.55,1.43-6.73,1.98.7-.41,5.83-1.74,7.78-2.56.74-.29,3.35-.96,4.4-1.52.65-.34-1.85.48-3.41.93-1.59.44-2.82.83-4.99,1.57-2.72.93-5.93,1.87-8.47,2.29-1.53.25-4.2,1.01-5.78,1.41-2.76.72-.5.27,1.14-.05,2.58-.51,5.13-1.05,4.69-.76l-1.61.47c-2.93.45-8.45,1.81-13.2,2.71-1.84.37-6.08,1.22-4.87.73.29-.12-5.45,1.03-5.6,1.13-.32.22-1.87.45-3.97.79l-1.54.25c-2.87.54-6.29,1.15-5.14.69,1.43-.37,1.38-.36-1.08-.05-1.08.14-2.52.31-2.76.3-.84-.03,3.51-.63,4.2-.83,2.2-.34,4.44-.78,6.61-1.13,2.17-.35,4.26-.69,6.14-.9.96-.11,3.73-.71,3.55-.7-.78.05,5.24-1.11.97-.44.17-.1.64-.19,2.38-.52,5.7-1.08,11.41-2.22,17.09-3.84.94.32,7.24-1.83,10.87-3.02,4.22-1.4,7.24-2.7,11.52-4.61-.46.3-1.45.83-1.42.88.01.02.28-.06.98-.38.7-.32,1.85-.84,3.56-1.79Zm9.78-13.5l.36.84c-.14-.38-.24-.84-.4-1.14-.14-.26-.24-.38-.37-.58.14.31.31.58.41.87Z"/><path d="m246.73,71.72c2.79-.3,5.88-.63,8.92-.95,3.04-.33,6.02-.66,8.57-1.06,4.55-.34,11.47-1.4,16.84-2.09,1.53-.2,2.11-.29,3.2-.47,3.34-.55,4.12-1.05.41-.57-3.9.5-5.13.61-6.13.63-1.04.02-2.97.16-6.66.83-.41.07-1.94.3-2.59.37-6.39.72-12.54,1.51-18.86,2.18-14.53,1.49-29.11,2.64-43.7,3.41l.04.12c1.23-.05,2.23-.12,2.51-.08,2.17-.14,4.76-.32,6.55-.44,4.32-.23,9.61-.78,13.03-.85,1.03,0,5.25-.32,9.59-.64,4.34-.31,8.8-.77,10.3-.94.5-.06,1.02-.14.94-.15-.74-.08,2.07-.28,3.34-.4,1.53-.11,2.47-.18,3.8-.27.76-.06,3.11-.36,2.89-.28-.14.05-1.49.23-3.32.45-3.81.47-9.22.97-9.69,1.21Z"/><path d="m226.55,75.29c3.82-.2,8.35-.37,10.85-.69-1.1.03-2.51.05-3.27.1-2.94.2-5.72.38-7.88.3-1.78-.07.71-.25,2.5-.43,3.17-.3,5.62-.34,8.21-.35,1.61,0,4.31-.1,5.62-.23,4.49-.46,6.5-.37,9.18-.43,1.71-.1,3.87-.27,4.32-.19.09.02-.69.12-1.01.14-2.25.14-2.32.04-3.31.05l-4.79.63c3.18.12,7.29-.32,11.16-.64-.11-.09.14-.2,2.94-.4-.05-.06.2-.15-.21-.19-1.24-.1,3.38-.42,4.76-.61.38-.05,1.33-.15,1.62-.11.59.06-.96.22-2.69.41-.98.11-.24.18-.27.27,1.53-.21,5.91-.37,6.33-.61-.56.02-2.11.12-.61-.04l.56.05c2.23-.14.88.15,3.65-.09.97-.08,1.75-.29,2.62-.44-.04-.06.29-.14,1.61-.28-.07-.02-.15-.03-.25-.04l-1.46.12c-2.43.09-10.06.61.28-.35.68-.06.98-.17,1.46-.26-4.46.38-9.12.88-13.17.95-.49.02-6.47.62-10.48.88-1.1.15-2.45.27-4.86.41-7.04.44-14.41.64-21.14,1.13-2.72-.09-7.56.35-10.42.32-2.8-.02-5.05.04-8.52.24-4.72.29-6.77.24-6.88.02l-7.78.22c.36.13-1.78.26-3.33.39,3.56.1,7.27.19-.27.53-.96.04-.33.09.64.09,3.04-.2,7.5-.13,10.07-.3,5.91-.43,4.74-.14,5.54-.03l1.65-.05c.15-.08,1.04-.15,2.92-.21.22-.11,1.48-.18,3.3-.26l-.14-.11c1.81-.06,1.52.01,1.52.07,3.54,0,8.87-.19,9.44.03Z"/><path d="m158.35,75.62c2.02,0,3.45-.03,4.51-.08,2.24-.11,4.99-.22.82-.36-6.56-.22-6.85.09-10.26.07l-6.26-.22c-2.92-.22-8.54-.29-12.32-.51l-.07-.15c3.62.14,7.82.17,10.53.34,3.41.23,6.97.25,10.96.3,15.74.04,31.55-.22,47.38-.9.28.05.26.12-1.7.24l-3.04.13-1.57.02c-.48,0-.95.01-1.43.06-10,.34-11.39.43-7.58.57.12,0,.15.01.22.02,8.84-.39,11.2-.08,19.84-.57,3.59-.25,8.36-.55,9.34-.41-2.36.14-5,.46-5.78.43-1.5-.08-3.97.18-6.37.27-8.59.41-16.98.7-25.81.89-12.58.35-25.57.09-38.45-.23-2.56-.09-6.64-.19-6.83-.38,1.51-.07,3.93.01,6.6.18,3.22.23,5.41.18,7.42.13,3.31.11,6.63.27,9.86.16Zm15.76-.43c.07.06.98.16,3.54.09,2.48-.07,6.12-.19,6.26-.28.27-.13-2.96.06-4.12.04-2.26.05-5.87-.02-5.68.16Zm7.37.4c1.63,0,4.52-.12,4.63-.22.06-.06-1-.08-2.72-.03-1.86.05-3.66.1-6.06.16,1.77.04,2.87.1,4.16.09Zm-9.57-.26h-.95s.12.03.12.03c.71-.01.74-.02.83-.03Z"/><path d="m21.75,20.2c-3.64,1.46-6.5,2.59-10.44,4.66-2.83,1.53-5.99,3.53-8.45,6.51-1.24,1.46-2.23,3.26-2.65,5.21-.43,1.96-.2,4.03.52,5.8,1.43,3.59,4.33,6.53,7.08,8.58l.15-.12c-.59-.56-2.06-2.04-.16-.46,2.88,2.24,4.32,2.92,5.46,3.53,1.17.57,2.08,1.02,4.32,2.13-2.35-1.25-4.39-2.45-6.15-3.56-.22-.15-.42-.27-.57-.38-.27-.1.57.69-1.79-1-1.83-1.36-2.99-2.52-3.14-2.82l-.25-.28.23.26c1.19,1.18,1.9,1.69,2.54,2.16.64.47,1.25.86,2.38,1.66.15.09.21.12.19.09-2.5-1.94-5.64-4.27-7.63-7.09-1.33-1.71-2.43-3.8-2.49-6.09-.09-1.14.16-2.28.53-3.36.4-1.08,1.05-2.06,1.73-3,.46-.52.84-.95,1.23-1.4.44-.41.88-.84,1.4-1.42,1.69-1.74,4.72-3.64,7.8-5.1,2.13-1.18,2.74-1.44,2.6-1.5-.12-.03-.95.24-1.53.42-.3.1-1.25.5.29-.29,1.34-.63,2.14-.95,2.72-1.14l1.61-.66c-.45.11.39-.3,1.24-.69.85-.38,1.7-.75,1.22-.65Z"/><path d="m302.02,9.87c-3.06-.47-6.26-.88-10.52-1.23-5.32-.34-10.95-.84-16.94-1.52-1.14-.02-3.28-.16-5.2-.28l-3.18-.31c.37.09.95.26,1.1.27,5.83.41,9.71,1.01,15.32,1.5,4.08.38,7.8.74,8.88,1.08.03,0,.44.06.67.08.77.06,1.54.11,2.32.17-.65-.31,3.46.12,6.58.5,10.28,1.21,20.64,2.34,31.03,3.92,6.26.97,6.61.98,3.58.8-.92-.05-1.53-.05-2.28-.08,5.97.79,12.84,2.02,17.66,2.65-1.11-.23-2.19-.45-3.35-.66-1.9-.35-4.67-.65-5.48-.93-.33-.12,2.69.25,4.6.51,1.01.15,2.92.48,4.42.76,1.26.22,2.63.49,3.24.55.8.07-.5-.23-1.79-.51-2.03-.44-2.55-.69-5.73-1.23-3.99-.83-8.41-1.61-13.73-2.28-6.09-.65-13.18-1.57-20.32-2.44.09.07-.24.1-1.53-.06-2.27-.28-.81-.2-1.3-.31-3.04-.17-6.19-.26-8.07-.95Z"/><path d="m198.89,74.49l-1.57.02-.71.03-.71.03c-10,.34-11.39.43-7.58.57.12,0,.15.01.22.02,8.84-.39,11.2-.08,19.84-.57,3.59-.25,8.36-.55,9.34-.41,2.6-.24,7.25-.56,9.19-.82-2.49.08-.06-.26,1.24-.35,3.82-.27,1.5.03,2.05.07.11,0,0,.03,0,.05,2.93-.11,7.9-.7,11.18-.9,2.01-.25,3.79-.42,5.33-.51.5-.25,5.9-.74,9.71-1.21,1.83-.21,3.18-.4,3.32-.45.22-.08-2.13.22-2.89.28-1.33.1-2.27.16-3.8.27-1.28.12-4.08.32-3.34.4.08,0-.44.09-.94.15-1.5.16-5.96.62-10.3.94-4.34.32-8.57.63-9.59.64-3.42.07-8.71.62-13.03.85-1.79.12-4.38.29-6.54.44-2.1.18-2.2.12-2.52.08l-.04-.12-3.1.13c.28.05.26.12-1.7.24-.39.04-.66.1-1.18.13-1.64.08-1.65.03-1.86,0Z"/><path d="m30.28,61.85l.07.11c1.13.59,2.02,1.09,3.49,1.7,3.14,1.36,9.21,2.91,14.25,3.65.63.1.95.11,1.72.24,2.86.48,3.09.29.27-.33q-1.17-.26-1.87-.26c-.33,0-.26.11-2.4-.34-.66-.13-1.36-.38-2.05-.58-4-.97-3.69-1.12-4.56-1.45,4.56,1.09,9.26,2.07,14.01,3-2-.15,2.66.74,4.87,1.22l2.44.25c1.63.23,3.26.47,4.9.67.07.03.09.05.05.06-3.02-.18,1.59.67,1.41.88l-2.96-.41s0-.03-.16-.05c-2.08-.39-1.66-.56-4.23-.92-3.79-.54.4.29-.33.29l-1.79-.14c-7.14-1.23-14.45-2.58-21.27-4.64-.99-.3-1.98-.58-2.96-.91l-.08-.17.63.17-.82-.24c-.62-.2-1.23-.42-1.84-.64-.93-.36-2.19-.92-2.2-.81-.98-.36-1.95-.74-2.93-1.13l.41.15.43.2c-.98-.46-2.67-1.27-4.29-2.04-1.61-.79-3.12-1.61-3.74-2.06-.29-.21-1.96-1.04-3.91-2.12-1.96-1.07-4.18-2.43-5.68-3.5-.5-.35-.83-.56-1.23-.86-.59-.56-2.06-2.04-.16-.46,2.88,2.24,4.32,2.92,5.46,3.53,1.17.57,2.08,1.02,4.32,2.13,4.29,2.2,8.57,4.07,12.7,5.8Zm19.76,5.95c.13.06.46.16.72.25.21.02.57.07.58.05.02-.03-.2-.1-.36-.17-.45-.06-.98-.15-.94-.13Z"/><path d="m261.07,73.15c-2.8.2-3.05.3-2.94.4l2.62-.15,2.02-.16c2.52-.16,5-.33,7.51-.49,2.51-.2,5.06-.42,7.73-.69,2.18-.21,5.32-.54,7.93-.7,2.86-.17,8.24-.76,9.15-.87,9.63-1.3,18.97-2.34,28.21-3.64,3.4-.46,5.5-.95,8.28-1.4,14.13-2.37,28.25-5.24,41.89-9.85,1.46-.5,2.96-1.02,3.76-1.42.12-.3-3.67,1.08-6.85,2.16-2.84.97-4.55,1.43-6.73,1.98-.98.37-2.94.87-4.63,1.32l-1.61.47c-2.93.45-8.45,1.81-13.2,2.71-1.84.37-6.08,1.22-4.87.73.29-.12-5.45,1.03-5.6,1.13-.32.22-1.87.45-3.97.79-.5.15-1.03.23-1.57.26-2.84.54-6.25,1.14-5.1.68-.78.11-1.56.23-2.34.34-2.43.46-4.93.94-8.35,1.25-2.79.53-5.5,1.13-9.15,1.19l-4.49.52c-.95.29-3.97.54-6.4.81-3.56.39-2.94.2-3.2.13-4.09.63-8.21.98-12.35,1.14-.87.15-1.65.36-2.62.44-2.76.24-1.42-.06-3.65.09-.38.23-4.76.39-6.29.61l-3.2.23Z"/><path d="m93.35,73.81c2.2.31,4.62.6,7.92.75-1.86-.27-3.68-.55-1.46-.48,1.75.06,3.06.32,4.95.42,2.45.41,3.87.36,5.51.36,1.87,0,3.7.07,4.96.32,4.45.21,3.78-.01,4.58-.1-.66-.17-4.24-.43-5.98-.64-2.95-.31-6.87-.6-10.61-.83-2.81-.15-5.23-.39-7.92-.65-2.75-.17.07.35-4.68-.1-3.52-.35-2.92-.44-3.46-.6l-3.13-.29c.21.12.62.26.57.35-.04.07-1.48-.07-2.82-.22-1.17-.13-2.05-.27-1.37-.24,1,.04,3.74.29.86-.1-.72-.1-3.28-.26-4.99-.4-.54-.04-.83-.02-1.93-.22l1.97.23c-1.15-.43-5.05-.81-9.14-1.33-1.28.05,4.91,1.01,4.44,1.14,6.73.73,6.64.86,6.1,1.01,2.71.26,4.91.67,7.71.89-.38-.27,2.63-.17,7.29.31,6.47.6-2.11.02.11.33.31.04.36.07.53.11Z"/><path d="m131.23,6.3l-2.55.23-4.92.51-1.81.18s.1.03.16.04c1.07-.09,1.6-.1.7.03-.13.01-.57.06-.72.08-1.4.11.07-.08.08-.11-2.57.26-4.46.48-5.64.7-1.88.33-4.33.64-6.3.84-1.97.2-3.45.29-3.39.25.35-.28-3.7.24-6.64.58-3.69.54-7.33,1.2-11.07,1.81-1.63.28-4.78.79-3.87.75.75-.03,4.16-.66,5.03-.74,2.7-.29,6.8-1.22,8.35-1.15,2.05-.25,4.47-.57,4.8-.5,1.73-.24,3.56-.46,4.69-.52,1.9-.21,3.8-.43,5.7-.64,1.9-.19,3.8-.37,5.68-.56,7.46-.71,13.91-1.48,21.47-1.94v-.14c-1.86.14-3.79.3-4.77.29.11-.09.17-.18,3.01-.4l-1.35-.08-6.64.51Z"/><path d="m192.25,76.16c-.97,0-1.6-.05-.64-.09,7.54-.34,3.83-.43.27-.53-.97.03-1.94.05-2.91.08l.06.2.36.02-.34-.02c-2.64-.02-8.37.24-7.94-.07-4.38.09-8.36-.11-13.23.12-.7.03-3.75-.03-3.91-.14l-4.62-.02c-2.01.16-7.84.2-6.72.45.05.01-1,.02-1.54.03-3.42-.43-4.87.05-7.57-.07.02.02.01.04,0,.07,7.9.49,9.79.14,12.57-.07h.6s-.64,0-.64,0c.79.02,1.92.04,2.85.06.93.02,1.68.03,1.71.05.79.5,6.56.18,11.24.1,4.87-.08,10.49-.25,14.79-.12,2.12.02,1.8.2,5.49.1l.09-.14Z"/><path d="m39.8,14.88l-2.8.75c-6.8,1.98-6.75,1.82-6.12,1.37-2.25.62-2.1.73-3.18,1.1,2.09-.35-1.17.86-7.17,3.18,1.44-.38,1.6-.28.16.43,1.58-.42,2.79-1.02,4.11-1.53-.89.28-1.14.31.06-.12,1.64-.58,1.39-.42,1.57-.43,3.59-1.01,8.82-2.76,12.64-3.87,3.13-.93,6.41-1.82,9.66-2.68,1.63-.41,3.25-.82,4.84-1.22,1.59-.39,3.15-.76,4.65-1.13l-.06-.08-4.42.96c-1.36.46-2.62.71-3.88.97-1.76.37-3.49.83-5.23,1.26-.35.19-.65.35-3.44,1.14-1.88.54-2.97.8-3.89.99-2.13.46.69-.46,2.49-1.09Z"/><path d="m98.64,10.29c-1.54-.07-5.65.86-8.35,1.15-.87.08-4.28.72-5.03.74-.91.03,2.24-.47,3.87-.75,3.74-.61,7.37-1.27,11.07-1.81l-1.36.07-1.81.23c-2.48.45-5.31.89-8.23,1.33-2.9.48-5.89.98-8.69,1.44-1.32.31-.99.32-.32.27,1.15-.07-.55.3-4.15.95l-.06.07c-.04.09-1.1.32-3.3.71-.45.09-.89.19-1.31.27.45-.03,2.51-.38-.13.2l.14.03c8.79-1.67,17.62-3.03,26.52-4.38-1.44.07-4.1.29,1.13-.54Z"/><path d="m226.98,4.19c-1.86-.06-1.68-.33-4.99-.24-2.48.07-4.82-.19-7.28-.2-.7.23-4.04.11-7.55-.03-2.98-.14-5.43-.11-7.68-.03-2.33.08-3.35.18-.89.31,3.31.02,6.34.14,9.89.15,11.05.03,12.27.11,21.12.63.21.01.63.03.69.04,2.26-.02,5.1.13,7.95.29,2.85.18,5.71.37,8.01.38-.43-.14-.48-.27-3.58-.5-.11.08-.85.05-2.97-.08-4.49-.25-8.69-.49-12.71-.72Z"/><path d="m98.64,10.29c-5.23.83-2.58.61-1.13.54,3.47-.37,5.79-.61,10.73-1.36,3.56-.57,10.73-1.21,16.47-1.75,7.72-.74,15.83-1.39,23.65-1.78,3.43-.17,5.7-.27,5.31-.44-.38-.14-3.15-.03-6.25.21-2.15.14-4.3.28-6.44.42-7.56.46-14.01,1.23-21.47,1.94-1.88.18-3.78.37-5.68.56-1.9.21-3.8.43-5.7.64-.91.14-1.94.31-2.72.4-1.73.22-1.9.17-1.97.12-.33-.07-2.75.25-4.8.5Z"/><path d="m156.12,76.12c-2.78.21-4.67.56-12.57.07-2.11-.01-4.22-.03-6.33-.04-1.68.02-3.43,0-3,.13,2.96.26,6.84.22,10.09.26,12.4.2,24.8.22,37.29-.08,3.33-.08,3.8-.16,5.08-.26-4.3-.13-9.92.05-14.79.12-4.67.08-10.45.4-11.24-.1-.03-.02-.77-.03-1.7-.05-.93-.02-2.04-.04-2.82-.06Z"/><path d="m333.38,14.77c.75.02,1.37.02,2.28.08,3.03.18,2.68.17-3.58-.8-10.39-1.58-20.74-2.71-31.03-3.92-3.13-.38-7.24-.81-6.58-.5,5.82.86,12.2,1.55,19.22,2.27,4.53.46,7.97.97,7.07,1.12,4.56.46,8.31,1.16,12.61,1.75Z"/><path d="m246.24,5.49c-2.3-.01-5.16-.21-8.01-.38-2.85-.16-5.69-.31-7.95-.29-.06,0-.48-.03-.69-.04-8.85-.52-10.06-.59-21.12-.63-3.55-.01-6.59-.14-9.89-.15,1.4.24,2.93.41,8.37.61l3.99-.07c1.47-.13,3.73-.04,6.93.06,3.9.14,8.62.3,11.99.42,6.81.33,12.88.39,19.35.93l-1.7-.39c-.43-.03-.86-.05-1.28-.08Z"/><path d="m166.53,4.82c2.04-.27,3.68-.54-4.49-.24-2.63.1-.98-.05-.79-.11,2.01-.14,4.13-.24,6.1-.3,1.97-.04,3.81-.05,5.25-.05,7.3,0,8.96-.14,10.52-.42l1.5-.04c4.8.07,12.69.1,5.2.48-1.35.07-1.32.18-1.92.28-4.13.02-8.27.12-12.39.19-2.67.07-4.68.13-4.95.27l-4.6.13c.18-.06.1-.11.57-.18Zm13.17-.52c.16,0,.43,0,.83-.03-.23,0-.46,0-.83.03Z"/><path d="m176.61.19c2.35.14,10.58-.09,10.58.16,0,.12-3.33.25-4.75.42-1.47.17-7.81.23-12.84.31-2.27.02-4.43.04-6.68.06-2.18.05-4.86.02-6.45.17-1.7.16,4.31-.07,3.21.09,7.41,0,16.62-.38,24.29-.22,2.42.06,1.88-.12,3.83-.14,1.88-.07-6.57-.17.37-.22,2.33-.18,8.43-.23,7.51-.47-1.44-.04-3.31-.05-4.24-.09-2.32-.11-2.27-.42-8.19-.16-.06,0-2.14-.05-3.46-.09-3.86-.04-7.53.04-10.77.19,1.11.23,5.4-.09,7.59-.02Z"/><path d="m197.27,1.05c1.92.03,3.31.08,4.3.16,2.5.19,7.22.37,10.93.38,3.31.01,6.31-.03,6.68-.18.69-.26-3.45-.56-12.73-.74-2.26-.03-5.08-.19-7.65-.26-2.81.09-1.73.26,1.31.39,3.07.15,5.9.13,8.09.08.8-.02,4.51.02,4.18.13-.28.09,1.85.25.49.31-.83.04-1.24.11-3.75.05-2.6-.06-3.74-.14-4.04-.22-.31-.08-.7-.16-3.6-.21-2.81-.04-4.25,0-4.23.1Z"/><path d="m249.22,5.95c-6.48-.54-12.55-.61-19.35-.93-3.37-.12-8.09-.28-11.99-.42-3.2-.1-5.46-.19-6.93-.06,2.73.21,6.15.35,9.72.44,3.57.12,7.31.2,10.69.35,10.08.43,20.38.9,30.17,1.83l.81-.03c-1.45-.21-6.55-.7,1.25-.18,2.55.18,4,.17-.39-.2-4.63-.29-8.04-.25-13.98-.8Z"/><path d="m202.99,74.92c.11.22,2.17.26,6.88-.02,3.47-.2,5.72-.26,8.52-.24,2.86.03,7.71-.42,10.42-.32,6.73-.49,14.1-.69,21.14-1.13,2.41-.14,3.76-.26,4.86-.41-6.48.23-13.49.6-21.04.99-4.82.23-9.7.47-14.96.57-4.58.11-10.5.38-15.83.56Z"/><path d="m83.08,6.44l-3.36.46c-1.67.17-3.34.35-5,.56-.71.11-1.41.22-2.12.33-2.3.39-4.57.88-6.85,1.32,4.09-.45,12.15-1.85,17.99-2.56,11.6-1.45,23.37-2.46,35.11-3.23l3.13-.25c-5.3.09-10.99.43-17.14,1.12-4.99.46-10.24,1.07-13.11,1.09-.75.08-1.5.16-2.26.24-.54.07-1.07.13-1.6.2.03.04.1.06.16.07.16,0,.33,0,.49-.01l-1.11.11-4.32.57Z"/><path d="m42.87,21.67c-4.31,1.2-8.59,2.48-12.8,4.11-3.35,1.24-6.49,2.59-8.89,3.68-1.07.55-1.87.97-2.51,1.36-.66.37-1.17.68-1.67,1.01-2.39,1.53-4.66,3.3-6.22,5.67-.76,1.18-1.33,2.52-1.48,3.95-.14,1.42.08,2.91.68,4.29.62,1.44,1.39,2.39,2,3.08.64.67,1.14,1.09,1.52,1.37-1.5-1.49-2.82-3.19-3.52-5.15-.72-1.94-.67-4.12.21-5.99.85-1.89,2.3-3.48,3.94-4.81,1.63-1.35,3.43-2.51,5.31-3.54,3.76-2.05,7.73-3.71,11.78-5.17,4.05-1.46,8.16-2.74,12.3-3.93l-.64.07Z"/><path d="m161.26,4.47c2.01-.14,4.13-.24,6.1-.3,1.97-.04,3.81-.05,5.25-.05,7.3,0,8.96-.14,10.52-.42-12.01.1-24.04.43-36.01,1.35-2.9.23-4.71.2-7.06.39-3.24.28-8.24.58-8.82.87l6.64-.51c3.63-.28,7.27-.45,10.91-.68,4.16-.22,8.32-.48,12.48-.64Z"/><path d="m76.76,70.26c-.17.07.84.33-4.14-.34-3.1-.42-5.76-.76-5.24-.53,12.75,1.84,25.55,3.38,38.9,4.24l-.07-.09-.45-.1c-.25-.02-.51-.04-.78-.05-2.24-.12-4.45-.27-5.09-.47-.4-.03-.8-.07-1.22-.1l-4.69-.49c-.72.05-2.32-.09-4.82-.42-2.76-.31-5.65-.48-8.14-.89-.83-.13.43-.05,1.8.07l.13-.04-1.5-.29c-2.73-.42-3-.3-4.69-.5Z"/><path d="m184.62,3.65c4.8.07,12.69.1,5.2.48-1.35.07-1.32.18-1.92.28,2.29,0,1.53.08,1.67.14l3.07-.03c-.95-.14,3.01-.22,3.12-.33l-2.05-.03c.15,0,.43-.03.45-.03.57.02,1.11.04,1.66.06,2.72.1,1.05.22,1.62.33,3.09.18,6.25.21,9.52.1-5.43-.2-6.97-.38-8.37-.61-2.46-.13-1.44-.23.89-.31,2.25-.08,4.7-.1,7.68.03,3.51.14,6.85.26,7.55.03-7.91-.22-15.99-.2-23.8-.26-3.08-.02-4.7.05-6.29.16Z"/><path d="m263.2,6.76c4.39.37,2.94.37.39.2-7.8-.52-2.69-.03-1.25.18,1.35-.04,3.77.25,5.65.38-.2-.1,1.24-.11,2.39.02,5.67.64,9.73.72,14.67,1.23,2.65.15,2.79.25,2.98.36,2.67.37,3.34.34,4.13.34-.23-.03-.64-.08-.68-.08-1.08-.34-4.81-.7-8.88-1.08-5.61-.49-9.49-1.09-15.32-1.5-.14-.01-.72-.18-1.09-.27l-6.08-.57-3.23-.31-.39.16c6.9.53,7.29.77,6.7.96Z"/><path d="m346.96,15.91c3.18.55,3.7.8,5.73,1.23,1.29.28,2.59.59,1.79.51-.61-.06-1.98-.33-3.24-.55-1.5-.28-3.41-.62-4.42-.76-1.91-.26-4.93-.63-4.6-.51.81.28,3.58.58,5.48.93,1.16.21,2.24.43,3.35.66,1.44.37,2.78.52,4.16.79,2.32.4,4.79.86,4.14.6-2.55-1,4.62.43,10.95,2.19-.74-.32-4.06-1.16-4.29-1.33-5.24-1.25-10.21-2.39-15.56-3.35-3.84-.66-3.02-.42-3.48-.4Z"/><path d="m285.05,8.76c-4.95-.5-9-.59-14.67-1.23-1.15-.13-2.59-.12-2.39-.02,9.93.81,19.81,1.71,29.71,2.75,4.97.52,10.18,1.15,15.08,1.8,2.97.38,5.38.67,7.99.96.9-.15-2.54-.66-7.07-1.12-7.03-.72-13.4-1.41-19.22-2.27-.78-.06-1.55-.11-2.32-.17-.78,0-1.46.03-4.12-.34l-2.98-.36Z"/><path d="m161.26,4.47c-4.16.16-8.32.42-12.48.64l-.12.14c1.7-.1,3.2-.15,2.94-.06-.26.1-1.98.17-3.53.28-.57.1-.61.17-.64.24,3.1-.24,5.87-.35,6.24-.21,3.98-.16,8.1-.33,12.29-.5.18-.06.1-.11.57-.18,2.04-.27,3.68-.54-4.49-.24-2.63.1-.98-.05-.79-.11Z"/><path d="m137.22,76.15l6.33.04v-.07s-.33-.03-.33-.03l.33.03c2.69.11,4.14-.36,7.57.07.54-.01,1.6-.02,1.54-.03-1.12-.25,4.71-.29,6.72-.45-.33-.08-1.74-.07-3-.08-1.65.11-4.29.06-6.63.04-1.72-.06-2.81.21-3.72,0-.98-.22-3.84-.13-5.44-.21-2.75.07-4-.03-4.92-.18-1.63-.08-3.57-.27-4.59-.11l-.71.09c1.92.1,2.86.25,5.56.32,1.84.09,1.13.15,1.29.22,8.38.31-1.12.21,0,.36Z"/><path d="m101.79,72.45c2.63.3,5.71.6,8.21.92,5.14.71,14.84,1.08,18.99,1.03-3.85-.21-8.14-.44-5.42-.51-7.4-.4-14.76-1.07-21.78-1.43Z"/><path d="m137.21,75.79c8.38.31-1.12.21,0,.36-1.68.02-3.43,0-3,.13-4.78-.12-9.84-.12-14.16-.59-.21-.02-.28-.04-.2-.05,6.29.09,6.81-.22,6.48-.53l4.02.14c1.91.1,2.86.25,5.56.32-.18.07-.24.14,1.3.22Zm-5.01.08c1.01.06,1.97.03,1.65-.01-.64-.1,2.57-.15-2.25-.29-2.4-.04-2.21.02-.47.13.33.06.3.13,1.07.18Z"/><path d="m246.98,74.19c-1.46.08-2.68.01-4.34.22-3.68.44-4.03.23-5.24.19-1.1.03-2.51.05-3.27.1-2.94.2-5.72.38-7.88.3-1.78-.07.71-.25,2.5-.43,3.17-.3,5.62-.34,8.21-.35,1.61,0,4.31-.1,5.62-.23,4.49-.46,6.5-.37,9.18-.43-1.59.21-3.19.42-4.78.63Zm-17.52.6s.56-.03.58-.04c.07-.02-.02-.04-.05-.05l-1.22.08c.22,0,.42,0,.68.01Z"/><path d="m46.79,65.64c-6.18-1.58-12.53-3.66-17.96-5.54-1.37-.48-3.23-1.31-4.52-1.97-2.34-1.16-3.88-2-5.16-2.64,2.27,1.48,4.97,2.82,7.81,4.01,2.85,1.18,5.84,2.19,8.75,3.13,3.77,1.21,7.44,2.31,11.15,3.3,1.86.49,3.71.95,5.62,1.39,1.92.43,3.87.63,5.84.92,1.15.16,2.55.36,3.07.38-1.58-.37-4.27-.8-7.43-1.22-3.79-.67-5.49-1.24-7.17-1.76Z"/><path d="m197.27,1.05c-.02-.1,1.42-.14,4.23-.1,2.9.05,3.28.12,3.6.21.3.08,1.43.16,4.04.22,2.51.05,2.92-.01,3.75-.05,1.36-.06-.78-.22-.49-.31.32-.11-3.38-.15-4.18-.13-2.19.05-5.02.06-8.09-.08-3.04-.13-4.12-.3-1.31-.39-1.04-.05-2.08-.09-3.13-.05.92.24-5.19.29-7.52.47,1.65.05,3.17.12,3.27.21l5.84.02Z"/><path d="m276.84,71.79c4.13-.17,8.26-.51,12.35-1.14,2.39-.47,9.81-1.18,11.1-1.64l-.58-.17c-2.7.26-5.16.5-7.37.85-.35.08.67.04-.97.23l-.51-.07c-.46.03-.95.08-1.48.15-6.38.66-5.06.92-10.92,1.52-1.32.14-1.65.22-1.61.28Z"/><path d="m98.84,9.68l1.36-.07c2.94-.34,6.99-.87,6.64-.58-.06.04,1.43-.05,3.39-.25,1.97-.2,4.41-.5,6.3-.84,1.19-.22,3.07-.45,5.64-.7-.12,0-.17-.02-.21-.03l.1-.2c-7.67.7-15.26,1.4-23.22,2.67Z"/><path d="m26.9,26.08c-.51.37,2.67-.88,5.3-1.74,5.67-1.92,12.37-3.71,17.42-5.08,3.51-.9,5.86-1.55,9.31-2.29,2.08-.46.9-.31,1.06-.41-7.35,1.61-14.49,3.25-22.04,5.68-3.26,1.04-7.4,2.37-11.06,3.84Z"/><path d="m188.97,75.62c.97-.03,1.94-.05,2.91-.08,1.55-.13,3.69-.26,3.33-.39-7.84.08-16.23.41-24.16.28-3.2-.06-4.18.22-7.07.3.15.12,3.21.18,3.91.14,4.87-.23,8.85-.03,13.23-.12,2.82-.45,5.21-.03,7.85-.13Z"/><path d="m320.77,66.75c.78-.11,1.56-.23,2.34-.34,1.42-.37,1.37-.36-1.09-.05-1.08.14-2.52.31-2.76.3-.84-.03,3.51-.63,4.2-.83l-3.29.34-5.12.7c-3.45.53-6.89,1.12-10.35,1.61,3.56-.3,5.3-.51,5.1-.4-.2.09-2.33.49-6.53,1.1,3.66-.06,6.36-.66,9.16-1.19,2.76-.39,4.06-.95,8.34-1.25Z"/><path d="m370.29,21c-6.33-1.76-13.5-3.19-10.95-2.19.65.26-1.82-.19-4.14-.6.67.37,3.96.85,5.89,1.32.72.04,1.32.06,2.65.31,1.33.25,3.39.73,6.99,1.84,1.18.38,3.11.95,3.62,1.03.54.09-.92-.44-2.49-.91l-.68-.19.61.16c-.5-.26-1-.54-1.51-.8Z"/><path d="m120.06,75.69c-.21-.02-.28-.04-.2-.05-.69-.12-5.56-.34-4.64-.46-1.25-.25-3.08-.32-4.95-.32-1.64,0-3.07.06-5.51-.36-1.88-.11-3.2-.37-4.95-.42-2.22-.06-.4.22,1.46.48,6.35.54,13.09,1.14,18.79,1.13Z"/><path d="m26.81,61.43c-.98-.46-2.67-1.27-4.29-2.04-1.61-.79-3.12-1.61-3.74-2.06-.29-.21-1.96-1.04-3.91-2.12-1.96-1.07-4.18-2.43-5.68-3.5-.5-.35-.83-.56-1.23-.86l-.15.12c2.19,1.85,4.53,3.33,6.9,4.67,2.38,1.35,4.82,2.55,7.35,3.77,1.25.57,2.51,1.13,3.78,1.66.5.21.82.33.96.36Z"/><path d="m75.25,69.61c1.07.22,5.11.82,9.47,1.37,4.35.55,9.02,1.05,11.29,1.23,4.49.35,1.65-.06,2.56-.09-2.85-.24-5.72-.43-8.42-.83-.59-.07-2.57-.3-2.69-.32-3.65-.18-8.21-.89-12.21-1.36Z"/><path d="m176.61.19c-2.19-.07-6.48.25-7.59.02-2.24-.07-4.46.04-6.68.14-3.7.26-9.58.36-13.93.63.88.07.78.19,5.43-.08,2.82-.16,6.9-.26,10.41-.35l1.94-.12.62.02-2.45.1c2.9-.02-6.02.56,4.61.15.37-.1-1.03-.21,3.18-.3.85-.1,4.68-.09,4.47-.22Z"/><path d="m24.02,27.47c.07-.06-.45.12.79-.43-2.21.93-4.41,1.98-6.53,3.17-2.12,1.2-4.17,2.56-5.95,4.23-1.77,1.65-3.22,3.78-3.67,6.16-.47,2.39.26,4.76,1.42,6.51l-.05-.23c-1.04-1.84-1.58-4.07-1.13-6.2.31-1.75,1.22-3.32,2.3-4.67,1.09-1.36,2.43-2.48,3.82-3.5,2.78-2.05,5.86-3.63,8.99-5.05Z"/><path d="m148.4.98c4.35-.27,10.23-.37,13.93-.63-.51-.18-3.96.06-5.74.1-6.81.15-13.83.5-20.69.92,1.41.27,8.14-.28,12.5-.4Z"/><path d="m36.88,15.47c4.7-1.37,10.02-2.97,13.28-3.5,1.24-.21,2.98-.7,3.25-.87.19-.12-.21-.12,1.81-.61.3-.17-.55-.02-1.74.24-1.19.29-2.72.67-3.78.93-4.78,1.19-9.57,2.58-14.32,3.99.41-.04-.76.41,1.5-.19Z"/><path d="m13.59,24.72c-3.07,1.46-6.1,3.37-7.8,5.1-.53.58-.96,1.02-1.4,1.42-.39.45-.77.88-1.23,1.4-.68.93-1.33,1.91-1.73,3-.37,1.08-.62,2.22-.53,3.36.06,2.29,1.16,4.38,2.49,6.09-.6-.91-1.15-1.92-1.57-3.02-.38-1.11-.69-2.3-.65-3.54.05-1.23.3-2.48.85-3.65.26-.59.64-1.12.95-1.69.34-.56.81-1.03,1.2-1.55.28-.39.67-.7,1.01-1.04.36-.33.68-.69,1.06-.99.78-.58,1.49-1.25,2.33-1.77.81-.54,1.61-1.1,2.48-1.57.85-.5,1.69-.99,2.58-1.42l-.03-.15Z"/><path d="m382.6,50.67c-.46.3-1.45.83-1.42.88.01.02.28-.06.98-.38.7-.32,1.85-.84,3.56-1.79,1.78-.98,3.05-1.76,4.08-2.44,1.05-.66,1.85-1.25,2.67-1.9.41-.31.5-.37.79-.59.14-.12.35-.27.61-.59.27-.31.65-.75,1.08-1.45.67-1.15.74-1.68.74-1.8,0-.12-.16.11-.29.32-.24.4-.5.55-.73.8-1.24,2.14-3.25,3.8-5.34,5.24-2.12,1.43-4.4,2.62-6.73,3.71Z"/><path d="m77.71,72.18c.54-.15.63-.27-6.1-1.01-1.57-.15-3.14-.33-4.71-.5l-2.96-.41c-1.27-.12-3.02-.41-4.72-.68l-1.79-.14c-.17.12,1.91.41,3.56.65,5.57.82,11.15,1.49,16.73,2.09Z"/><path d="m320.17,66.18l3.29-.34c2.2-.34,4.44-.78,6.61-1.13,2.17-.35,4.26-.69,6.14-.9.96-.11,3.73-.71,3.55-.7-.78.05,5.24-1.11.97-.44-6.79,1.3-14.27,2.32-20.57,3.51Z"/><path d="m76.27,71.35c1.71.14,4.27.3,4.99.4,2.88.39.14.15-.86.1-.68-.03.2.11,1.37.24,1.34.15,2.79.29,2.82.22.06-.09-.36-.23-.57-.35-5.62-.81-12.03-1.48-18.37-2.38l-.22.14c.07.03.09.05.05.06l1.69.24c4.08.52,7.99.9,9.1,1.32Z"/><path d="m278.45,71.51c5.87-.6,4.54-.86,10.92-1.52-3.28.15-6.62.31-10.9.98-.48.09-.78.2-1.46.26-10.34.96-2.71.44-.28.35.25-.07-.03-.11,1.82-.26l-.36.15c.1.01.18.03.25.04Z"/><path d="m386.69,27.19c1.15.79,3.42,2.22,5.62,3.94,1.06.81,2.23,1.97,3.16,3.48.45.76.82,1.62,1,2.54.18.92.17,1.9-.04,2.8-.41,1.83-1.47,3.31-2.46,4.43-1.01,1.13-1.97,1.97-2.61,2.6,1.71-1.33,3.38-2.83,4.46-4.84,1.18-1.95,1.27-4.59.33-6.65-.96-2.06-2.53-3.62-4.17-4.95-1.66-1.33-3.46-2.38-5.28-3.35Z"/><path d="m260.11,5.94l6.08.57,3.18.31c0-.16,2.63.05,5.2.28,5.99.68,11.62,1.18,16.94,1.52-.5-.13-2.13-.36-3.23-.44-9.1-.73-19.3-1.86-28.16-2.25Z"/><path d="m148.56,1.84c-.31-.18-1.38-.31-7.37.15-4.46.36-10.12.38-14.42.83,6.51-.09,14.38-.69,21.79-.99Z"/><path d="m61.62,17.08c-1.04.13-2.58.38-4.42.71-1.83.35-3.95.82-6.17,1.29.92-.01-1.33.67-4.29,1.62,3.09-.72,5.84-1.44,8.68-2.18,1.49-.55,4.02-.97,6.2-1.44Z"/><path d="m81.08,5.81c5.46-.52,16.79-1.73,23.59-2.51-6.75.42-13.51,1.17-20.24,2.02-.15.15-1.81.29-3.36.48Z"/><path d="m215.73,75.3c-1.83.08-3.09.15-3.04.24l2.01-.02.45.06-1.49.03-1.23-.05c-1.87.06-2.77.13-2.92.21,5.73-.14,10.71-.09,17.05-.48-.57-.22-5.9-.04-9.44-.03-.46.01-.92.03-1.38.04Z"/><path d="m312.92,11.18c7.14.88,14.23,1.79,20.32,2.44-2.38-.46-4.62-.82-8.21-1.17-4.55-.43-10.17-1.29-15.19-1.82l.27.19c.92.12,1.86.24,2.81.36Z"/><path d="m20.54,21.29c5.99-2.32,9.26-3.53,7.17-3.18-2,.66-3.98,1.34-5.95,2.09.48-.1-.37.27-1.22.65-.85.39-1.69.8-1.24.69,1.72-.63,1.04-.26,1.25-.25Z"/><path d="m304.7,68.48c3.46-.49,6.9-1.07,10.35-1.61-2.62.29-5.24.58-7.81.91-2.57.31-5.1.64-7.54,1.05l.58.17,4.42-.53Z"/><path d="m126.34,75.1l4.02.14.7-.09c-5.85-.24-11.8-.6-17.24-.72,1.74.21,5.32.47,5.98.64,1.13.03,2.08.05,3.04.07.25-.09.41-.16,3.5-.05Z"/><path d="m13.59,24.72l.03.15c2.29-1.19,4.69-2.17,7.08-3.15,1.44-.7,1.28-.81-.16-.43-3.53,1.43-2.75.98-2.86.92-.57.19-1.38.51-2.72,1.14-1.54.79-.59.39-.29.29.57-.18,1.4-.45,1.53-.42.14.06-.47.32-2.6,1.5Z"/><path d="m192.25,76.16l-.09.14c5.33-.11,11.18-.04,15.7-.48-.8-.11.38-.4-5.54.03-2.57.18-7.03.11-10.07.3Z"/><path d="m256.49,5.8l.39-.16c-6.05-.53-11.54-.73-17.15-.94l2.92.29c3.11.23,3.15.36,3.58.5.42.03.84.05,1.28.08.03-.26.98-.41,8.97.23Z"/><path d="m187.91,4.41c-4.13.02-8.27.12-12.39.19-2.67.07-4.68.13-4.95.27,5.52,0,11.65-.27,17.38-.26.01-.06.02-.13-.04-.2Z"/><path d="m242.66,4.99l-2.92-.29c-4.46-.29-9.09-.68-12.76-.5,4.01.23,8.22.46,12.71.72,2.12.13,2.86.16,2.97.08Z"/><path d="m93.35,73.81c-.17-.04-.22-.06-.53-.11-2.22-.3,6.35.28-.11-.33-4.66-.48-7.68-.58-7.29-.31,2.73.3,5.63.72,7.94.74Z"/><path d="m46.79,65.64c1.68.52,3.39,1.09,7.17,1.76,3.16.42,5.85.85,7.43,1.22,1.1.15,2.5.35,2.92.36-.89-.19-1.78-.38-2.68-.58-2.42-.37-4.82-.74-7.23-1.11-2.41-.4-4.76-1.01-7.12-1.59l-.49-.05Z"/><path d="m123.57,73.89c-2.72.07,1.57.3,5.42.51,2.84.17,4.64.16,5.85.13l-.07-.15c-3.67-.07-7.33-.23-11.2-.49Z"/><path d="m80.12,12.69c2.8-.47,5.78-.96,8.69-1.44,2.91-.43,5.74-.87,8.23-1.33-2.83.34-5.65.76-8.47,1.2l-8.43,1.45v.12Z"/><path d="m360.2,58.3c.94.32,7.24-1.83,10.87-3.02-.27-.04.75-.47-3.68.97-2.22.71-4.77,1.41-7.19,2.06Z"/><path d="m87.15,72.26c.54.16-.06.25,3.46.6,4.75.45,1.93-.07,4.68.1-3.78-.5-5.43-.46-8.14-.69Z"/><path d="m65.74,9.1c2.28-.44,4.56-.93,6.85-1.32-4.34.69-4.63.64-5.27.6-.37,0-1.41.08-3.47.51-.77.15-1.97.42-2.2.5-.67.21,1.01-.1,2.34-.33,4.78-.83-3.77,1,.39.3.43-.08.89-.16,1.37-.25Z"/><path d="m131.96,75.05c-3.11-.03-7.3-.71-9.74-.47,1.31.27,1.31.32,9.74.47Z"/><path d="m43.77,66.05c-4-.97-3.69-1.12-4.56-1.45-3.12-.81-6.45-1.94-8.93-2.75l.07.11c2.12.9,6.03,1.99,6.36,2.2.72.5,3.93,1.27,7.06,1.89Z"/><path d="m53.22,67.59c-2-.15,2.66.74,4.87,1.22.81.08,1.63.17,2.44.25l1.95.03c-3.18-.52-5.99-.82-9.26-1.49Z"/><path d="m386.33,27.97l-.1.18c2.51,1.43,4.96,3.04,7.1,5.32.03-.05.26.11.12-.12-.15-.21-.61-.89-2.29-2.24-2.6-1.97-3.96-2.65-3.76-2.75-1.27-.68-.93-.37-1.07-.38Z"/><path d="m46.75,20.7c2.96-.95,5.21-1.63,4.29-1.62-3.09.87-7.58,2.2-8.17,2.59l.63-.07,3.24-.9Z"/><path d="m36.88,15.47c-2.25.6-1.09.16-1.5.19l-4.5,1.35c-.64.45-.68.61,6.12-1.37l-.12-.17Z"/><path d="m310.11,10.82l-.27-.19c-3.01-.38-5.61-.61-7.82-.77,1.88.69,5.03.78,8.09.95Z"/><path d="m38.3,62.47s-.33-.02-.05.1c.8.35-3.55-.82,1.08.63,4.12,1.23.61.01,1.23.11.18.03,1.55.42,2.38.63-.98-.36-1.87-.68-4.64-1.47Z"/><path d="m61.62,17.08c-2.18.47-4.7.89-6.2,1.44,1.11-.27,2.23-.51,3.35-.74,1.26-.29,2.34-.52,2.94-.6,2.06-.49,4.13-.94,6.21-1.36l-1.31.2c-1.67.32-3.33.69-4.98,1.06Z"/><path d="m230.2,73.12s.12-.04,0-.05c-.55-.04,1.77-.34-2.05-.07-1.31.09-3.74.43-1.24.35l3.29-.23Z"/><path d="m195.76,4.19c-.11.11-4.07.19-3.12.33h4.79c-.57-.11,1.1-.23-1.68-.33Z"/><path d="m191.43,1.03c-.11-.09-1.62-.16-3.27-.21-6.93.05,1.52.15-.36.22.3.02.7.02,1.2.01h2.08c.43,0,.55-.01.35-.03Z"/><path d="m28.89,62.21c-.98-.36-1.95-.74-2.93-1.13,1.22.68,4.77,2.09,7.03,2.88l.2-.07-.08-.17c-.81-.27-1.42-.49-2.02-.71-.25-.01-1.25-.41-2.21-.81Z"/><path d="m366,19.66c.23.17,3.54,1.01,4.49,1.38l2.41.65-1.9-.67c-1.59-.49-3.24-.96-5-1.36Z"/><path d="m62.48,69.08l-1.95-.03c1.63.23,3.26.47,4.9.67l.22-.14c-1.06-.16-2.12-.32-3.17-.51Z"/><path d="m135.65,75.27c.93.14,2.17.25,4.92.18-1.31-.1-1.84-.29-4.92-.18Z"/><path d="m123.77,7.03l4.92-.51c.21-.19-2.5.1-4.92.33v.17Z"/><path d="m149.74,75.66c2.34.02,4.98.07,6.63-.04-3.37-.15-5.17-.09-6.63.04Z"/><path d="m246.71,71.72c-1.54.09-3.33.26-5.33.51,1.72-.15,2.74-.06,5.33-.51Z"/><path d="m66.61,16.01l1.31-.2,3.07-.62-.14-.03c-1.4.21-2.81.49-4.24.85Z"/><path d="m11.02,52.18s-.04,0-.19-.09c.19.12.38.25.6.4.14.04.29.08.44.12-.29-.14-.57-.29-.85-.43Z"/><path d="m61.71,17.18c-.6.08-1.68.31-2.94.6-.01.1.99-.1,2.94-.6Z"/><path d="m26.44,19.64c-.18.01.07-.15-1.57.43-1.19.43-.95.4-.06.12l1.63-.55Z"/><path d="m33.2,63.89l-.2.07c1.55.5,2.65.75,3.16.84-.99-.3-1.98-.58-2.96-.91Z"/><path d="m25.85,61.07c-1.27-.53-2.53-1.08-3.78-1.66,1.54.81,2.82,1.36,3.78,1.66Z"/><path d="m187.98,4.41l-.04.19c1.04,0,1.58-.01,1.63-.06-.14-.06.62-.13-1.59-.14Z"/><path d="m290.85,69.85l.51.07c1.64-.2.62-.15.97-.23-.5.04-.99.09-1.48.16Z"/><path d="m81.08,5.81c1.54-.19,3.2-.34,3.35-.48-1.42.14-2.82.32-3.35.48Z"/><path d="m47.28,65.69c2.36.58,4.71,1.19,7.12,1.59,2.4.37,4.81.74,7.23,1.11,1.68.24,2.42.31,2.57.27l.24-.14c-2.66-.39-3.54-.57-2.57-.53.45.02,1.08.06-.68-.21-.52-.07-1.33-.19-2.02-.28-.34-.04-.65-.09-.88-.11-.22-.03-.36-.04-.36-.04.14.15-1.55-.04-3.62-.32-2.07-.3-4.48-.9-5.85-1.14-.56-.11-.8-.13-1.18-.19Z"/><path d="m148.49,75.46c3.31.11,6.63.27,9.86.16-5.57-.08-1.02-.26-4.93-.37l-6.26-.22c.8.15,4.12.34,1.33.44Z"/><path d="m21.17,29.46c2.4-1.1,5.54-2.44,8.89-3.68-.13-.02.32-.28-.52-.01-1.11.35,3.25-1.4-.74.1-2.76,1.07-2.17.97-1.85.91.15-.02.21.08-1.61.71-1.66.59-2.28.91-2.7,1.16-.42.25-.65.41-1.48.81Z"/><path d="m93.98,72.31l4.69.49c.61-.01,4.64.28,1.1-.1-3.74-.41-5.02-.43-5.79-.39Z"/><path d="m82.82,71.08c-1.37-.12-2.63-.21-1.8-.07,2.49.41,5.38.58,8.14.89-.22-.19-3.84-.52-6.34-.82Z"/><path d="m8.91,40.69c-.45,2.13.09,4.36,1.13,6.2-.04-.17-.29-.71-.58-1.52-.29-.81-.58-1.92-.57-3.2.04-.98.11-1.31.1-1.41,0-.11-.07.01-.08-.07Z"/><path d="m70.98,14.96c.42-.09.86-.18,1.31-.27l.16-.14c-1.86.38-4.14.81-4.95,1.08l3.48-.66Z"/><path d="m99.9,72.91c.64.2,2.85.35,5.09.47l-.15-.13c-1.67-.11-3.31-.21-4.94-.34Z"/><path d="m69.98,69.04c-.33-.06-.65-.11-.97-.16l-.89-.06c.4.06.87.13,1.18.17.31.04.45.03.68.05Z"/><path d="m16.99,31.83c.5-.33,1.02-.65,1.55-.94.52-.3,1.04-.61,1.58-.88-.42.18-.74.29-1.27.6-1.54.85-1.47.94-1.85,1.22Z"/><path d="m81.45,70.75l1.5.29c2.37.17.52-.04-1.5-.29Z"/><path d="m104.84,73.25c.85.06,2.08.16,2.07.11,0,0-.15-.03-.34-.05-.19-.02-.42-.04-.57-.05-1.43-.11-1.03-.03-1.16,0Z"/><path d="m64.43,68.52l-.24.14c2.01.23,2.19.19.24-.14Z"/><path d="m23.41,57.13s.24.15.43.24c-.02-.04-.24-.15-.43-.24Z"/><path d="m75.59,13.98l.06-.07-3.17.64c1.02-.18,2.06-.38,3.11-.57Z"/><path d="m76.72,70.25l-.35-.07c.13.02.26.05.35.07Z"/><path d="m105.76,73.43l.45.1c1.36.07,1.08.02-.45-.1Z"/><path d="m39.8,14.88c-1.8.63-4.62,1.56-2.49,1.09.91-.2,2-.46,3.89-.99,2.79-.79,3.09-.94,3.44-1.14-1.48.3-2.23.4-1.02-.06.56-.21.4-.22-1.25.23-1.98.56-2.27.72-2.56.87Z"/><path d="m172.14.41c-4.2.08-2.8.2-3.18.3,1.56-.01,3.75-.09,3.97.03.11.06,1.63.12,3.01.08,1.42-.04,2.72-.13,3.22-.19.83-.11-1.9-.04-2.75-.06-1.67-.06-2.88-.1-4.27-.16Z"/><path d="m91.72,5.26c2.87-.01,8.12-.63,13.11-1.09-3.67.13-7.81.39-13.11,1.09Z"/><path d="m87.85,5.7c.53-.07,1.07-.13,1.6-.2.27-.05.43-.09.82-.14,2.99-.4,4.97-.69,1.87-.5-.81.05-3.04.25-2.65.27.91.01-8.92,1.28-1.65.57Z"/><path d="m53.75,11.62l4.42-.96c.03-.1,3.69-1.04-.24-.21-2.91.61-4.91,1.18-4.18,1.17Z"/><path d="m74.71,7.45c1.66-.21,3.33-.39,5-.56-.13-.06,2.55-.51.25-.26-1.83.19-3.79.51-5.26.82Z"/><path d="m162.49.91c-.92,0-1.47-.01-2,0-.58.02-1.14.06-1.71.09.48,0,.93.03,1.46.01.55-.03,1.2-.05,2.25-.1Z"/><path d="m83.08,6.44l4.32-.57c.2-.03.41-.07.62-.1l-.21-.04c-1.94.26-4.79.58-4.74.71Z"/><path d="m49.87,12.58c1.26-.26,2.53-.51,3.78-.94l-3.78.94Z"/><path d="m153.03,1.51c-.45,0-.67.02-.89.04.16,0,.32,0,.89-.04Z"/><path d="m359.04,59.64c1.69-.44,3.65-.95,4.63-1.32.7-.41,5.83-1.74,7.78-2.56.74-.29,3.35-.96,4.4-1.52.65-.34-1.85.48-3.41.93-1.59.44-2.82.83-4.99,1.57-2.72.93-5.93,1.87-8.47,2.29-1.53.25-4.2,1.01-5.78,1.41-2.76.72-.5.27,1.14-.05,2.58-.51,5.13-1.05,4.69-.76Z"/><path d="m386.33,27.97c.13.01-.21-.3,1.07.38.38.06,3.61,2.17,2.09,1.02-.52-.43-1.82-1.24-2.71-1.74-3-1.55-1.07-.39-1.76-.67-.38-.15-.69-.23-1.26-.47-1.1-.49-4.39-1.78-3.19-1.2,1.36.69,3.76,1.52,5.76,2.66Z"/><path d="m395.09,35.01c.14.31.31.58.41.87l.36.84c-.14-.38-.24-.84-.4-1.14-.14-.26-.24-.38-.37-.58Z"/><path d="m329.79,65.47l-1.54.25c.5-.08,1.04-.17,1.54-.25Z"/><path d="m206.77,74.1c.32.03.42.09,2.52-.08-.29-.03-1.29.03-2.52.08Z"/><path d="m261.07,73.15l3.2-.23c.03-.09-.71-.16.27-.27,1.73-.19,3.28-.35,2.69-.41-.29-.03-1.24.06-1.62.11-1.38.19-6,.51-4.76.61.41.03.16.12.21.19Z"/><path d="m251.77,73.55c.99,0,1.06.09,3.31-.05.31-.02,1.1-.12,1.01-.14-.45-.08-2.61.08-4.31.18Z"/><path d="m215.73,75.3c.46-.01.92-.03,1.38-.04,0-.05.29-.12-1.52-.07l.14.11Z"/><path d="m278.2,71.47l.36-.15c-1.85.15-1.57.19-1.82.26l1.46-.12Z"/><path d="m270.57,72.32l-.56-.05c-1.51.16.04.07.56.05Z"/><path d="m153.42,75.25c3.91.12-.64.29,4.93.37,2.03,0,3.45-.03,4.52-.08,2.24-.11,4.99-.22.82-.36-6.56-.22-6.85.09-10.26.07Z"/><path d="m179.79,75.04c-2.26.05-5.87-.02-5.68.16.07.06.98.16,3.54.09,2.48-.07,6.12-.19,6.26-.28.27-.13-2.96.06-4.12.04Z"/><path d="m177.32,75.51c1.77.04,2.87.1,4.16.09,1.63,0,4.52-.12,4.63-.22.06-.06-1-.08-2.72-.03-1.86.05-3.66.1-6.06.16Z"/><path d="m198.89,74.49c.21.03.22.08,1.86,0,.51-.03.79-.08,1.18-.13l-3.04.13Z"/><path d="m171.09,75.37c.51-.03.19-.02-.12-.02l.12.02Z"/><path d="m195.9,74.57l.71-.03.71-.03c-.48,0-.95.01-1.43.06Z"/><path d="m5.93,48.29c.15.31,1.3,1.47,3.14,2.82,2.36,1.69,1.52.89,1.79,1-1.14-.81-1.76-1.21-2.4-1.68-.64-.46-1.35-.97-2.52-2.14Z"/><path d="m17.68,22.21c.11.06-.67.51,2.9-.93-.25.01.43-.36-1.29.27l-1.61.66Z"/><path d="m5.91,48.27l-.23-.26c.08.09.16.19.23.26Z"/><path d="m312.92,11.18l-2.84-.36c.49.11-.97.03,1.3.31,1.29.16,1.62.12,1.53.06Z"/><path d="m274.57,7.11c-2.57-.23-5.2-.45-5.2-.28,1.91.12,4.05.26,5.2.28Z"/><path d="m43.77,66.05c-3.13-.62-6.34-1.39-7.06-1.89-.33-.22-4.23-1.3-6.36-2.2,1.13.59,2.02,1.09,3.49,1.7,3.14,1.36,9.21,2.91,14.25,3.65.63.1.95.11,1.72.24,2.86.48,3.09.29.27-.33q-1.17-.26-1.87-.26c-.33,0-.26.11-2.4-.34-.66-.13-1.36-.38-2.05-.58Z"/><path d="m67.17,70.03l-1.69-.24c-3.02-.18,1.59.67,1.41.88,1.57.18,3.14.36,4.71.5.47-.13-5.72-1.09-4.44-1.14Z"/><path d="m59.21,69.58c1.7.27,3.45.56,4.72.68-.05-.02,0-.03-.15-.05-2.08-.39-1.66-.56-4.23-.92-3.79-.54.4.29-.33.29Z"/><path d="m50.98,67.93c-.45-.06-.98-.15-.94-.13.13.06.46.16.72.25.21.02.57.07.58.05.02-.03-.2-.1-.36-.17Z"/><path d="m28.89,62.21c.96.4,1.95.8,2.21.81-.94-.36-2.2-.92-2.21-.81Z"/><path d="m33.12,63.73l.63.17c-.27-.08-.55-.16-.63-.17Z"/><path d="m304.7,68.48l-4.42.53c-1.28.45-8.7,1.17-11.09,1.64.25.07-.36.25,3.2-.13-1.52.03,1.06-.31,2.69-.53,1.99-.26,2.96-.26,3.71-.28l4.49-.52c4.2-.62,6.33-1.01,6.53-1.1.19-.11-1.54.09-5.1.4Z"/><path d="m298.78,69.71c-.76.02-1.72.02-3.71.28-1.63.21-4.21.55-2.69.53,2.43-.27,5.45-.51,6.4-.81Z"/><path d="m320.77,66.75c-4.29.29-5.58.86-8.34,1.25,3.41-.3,5.92-.78,8.34-1.25Z"/><path d="m329.81,65.47l-1.6.26c.54-.02,1.08-.11,1.6-.26Z"/><path d="m126.34,75.1c-3.09-.12-3.25-.04-3.5.05.46.16-1.15.05-2.87-.07-.97.08-.3.31-4.75.09-.92.12,3.95.33,4.64.46,6.28.09,6.8-.22,6.48-.53Z"/><path d="m76.31,71.36l-1.97-.23c1.09.2,1.38.17,1.97.23Z"/><path d="m147.53,5.5c.75-.1.95-.18,1.15-.25-3.17.21-6.31.42-9.46.63-2.84.22-2.9.31-3.01.4,1.69-.11,3.76-.31,4.77-.29l6.55-.49Z"/><path d="m139.22,5.87l9.44-.62.12-.14c-3.64.23-7.28.4-10.91.68l1.35.08Z"/><path d="m147.53,5.5l-6.55.49v.14c2.15-.14,4.3-.28,6.45-.42l.11-.21Z"/><path d="m103.44,9.78c.07.05.24.1,1.97-.12.78-.09,1.81-.26,2.72-.4-1.12.06-2.96.28-4.69.52Z"/><path d="m140.98,5.99c-1.01-.02-3.07.17-4.77.29.97.02,2.91-.15,4.77-.29Z"/><path d="m122.17,7.24s-1.47.22-.08.11c.15-.02.59-.07.72-.08.9-.12.37-.12-.64-.03Z"/><path d="m188.97,75.62c-2.65.1-5.03-.32-7.85.13-.44.3,5.29.05,7.93.07-.04-.07-.06-.13-.08-.2Z"/><path d="m156.08,76.11h.64c-.2,0-.4,0-.64,0Z"/><path d="m189.06,75.81l.34.02c-.12,0-.24-.02-.34-.02Z"/><path d="m75.59,13.98l-3.14.57-.16.14c2.2-.39,3.26-.62,3.3-.71Z"/><path d="m256.49,5.8c-8-.65-8.94-.49-8.97-.23l1.7.39c5.94.55,9.34.51,13.98.8.59-.19.2-.43-6.7-.96Z"/><path d="m180.53,4.27h-.68s.29.03.68,0Z"/><path d="m87.4,5.87l1.11-.11c-.17,0-.33,0-.49.01-.21.03-.42.07-.62.1Z"/><path d="m195.81,4.18c-.55-.02-1.09-.04-1.66-.06-.01,0-.29.02-.45.03.68.01,1.37.02,2.11.03Z"/><path d="m285.05,8.76l2.98.36c-.2-.11-.33-.21-2.98-.36Z"/><path d="m148.68,5.25c-.2.07-.4.15-.61.22,1.55-.11,3.27-.18,3.53-.28.26-.09-1.24-.05-2.92.06Z"/><path d="m135.91,75.57c-.18.07-.24.14,1.3.22-.16-.07.54-.13-1.3-.22Z"/><path d="m143.54,76.12l-.33-.03c.11.01.23.02.33.03Z"/><path d="m131.13,75.69c.33.06.3.13,1.07.18,1.01.06,1.97.03,1.65-.01-.64-.1,2.57-.15-2.25-.29-.16.04-.31.09-.46.13Z"/><path d="m131.13,75.69c.15-.04.31-.09.46-.13-2.4-.04-2.2.02-.46.13Z"/><path d="m228.77,74.78c.22,0,.42,0,.68.01.03,0,.56-.03.58-.04.07-.02-.02-.04-.05-.05l-1.22.08Z"/><path d="m371.8,21.79l-.61-.16c.23.06.45.12.61.16Z"/><path d="m164.35.55l2.45-.1-.62-.02c-.65.04-1.29.09-1.83.12Z"/><path d="m214.7,75.52l-2.01.02c.14.04.55.05.96.07l1.04-.09Z"/><path d="m119.97,75.08c1.72.12,3.33.22,2.87.07-.96-.02-1.91-.04-2.87-.07Z"/>
                  </g>
                </mask>
              </defs>
              <path class="mask" d="m219.26,1.23c-33.55-1.28-61.62-.48-81.77.59-34.05,1.81-64.43,3.57-95.17,12.47C26.08,19,6.35,24.71,1.64,34.43c-6.85,14.14,23.39,25.82,28.87,27.94,4.3,1.66,21.16,7.54,70.58,11.57,30.11,2.45,61.98,2.4,93.48,1.68,50.44-1.15,102.18-4.12,147.19-12.69,26.86-5.11,52.71-13.43,54.27-23.52,1.01-6.58-8.86-12.72-22.81-17.03-13.95-4.32-31.68-7.05-49.55-9.38-43.6-5.68-90.41-9.34-138.25-8.82-47.84.52-96.85,5.42-136.04,15.45-15.36,3.93-29.5,8.81-36.17,14.82-9.96,8.97-1.05,19.06,17.25,25.76,7.39,2.71,15.08,4.9,23.07,6.67,14.49,2.3,30.63,4.35,48.37,5.86,76.34,6.5,143.54-.29,185.23-6.44"
                    mask="url(#path-mask)" stroke="black" stroke-width="2" fill="none"
                    stroke-dasharray="1335.966552734375" stroke-dashoffset="1335.966552734375">
              </path>
            </svg>
        