
            <svg xmlns="http://www.w3.org/2000/svg">
              <defs>
                <mask id="path-mask">
                  <g fill="white">
                    <path d="m294.28,63.48c2.58-.68.85-.66,1.33-.99l1.9-.28c1.57-.13,3.4-.35,4.91-.45,3.12-.14,8.63-1.89,10.79-3.2,1.63-.43,2.6-.86,3.23-1.25,2.19-.51,5.18-1.98,6.94-2.22.55.1,2.47-.41,1.05.49-1.05.6-2.21,1.21-4.09,1.66-1.55.38-2.9.88-3.68,1.38l-1.42.45c-1.72.72-4.36.59-5.54,1.71-.56.14-1.6.39-1.62.4-1.24,1.02-4.63,1.59-7.53,2.17l-.08-.17c.77-.25.6-.26-.29-.08-.14.04-.29.08-.45.11l-.15-.23c.49-.12,1.21-.26,1.18-.37,0-.02-.37,0-.55.05-.83.19-.57.23-.65.32l-2.82.76c-.23.06-.47.11-.71.16.33-.21,2.64-.83.54-.56-2.22.28-2.91.67-3.31,1.01-.36.34-1.29.57-2.79.68-.21-.34-2.3.2-3.78.41l.05-.13c1.35-.44.26-.28-.93-.09-1.65.04-1.74.43-2.75.61h-.22s.24,0,.24,0c-.06.23.59.41-2.36.79-1.84.24-3.4.57-3.03.86l-1.81.3-1.66-.2c.99-.16,1.41-.3,1.48-.45,1.17-.3,1.25-.45.07-.42-1.58.21-2.12.17-1.59-.13.25-.14.6-.32-.45-.19-.31.04-.79.13-1.19.21-.4.08-.73.16-.72.18.27.54-3.91,1.13-5.5,1.66-.32.11-.45.22-.67.32l-.27.2c-3.74.5-7.69.75-11.02,1.55-.84.2-2.05.18-2.9.19-1.54,0-2.57.15-3.38.46l-7.26.39-.15-.17c-.22-.24-1.39-.26-2.86-.13-1.14.11-.75.28-.82.42-4.01.42-8.03.79-12.25,1.09l.17.05c-.05.08.28.15-.52.22-.22.12-.3.25-1.33.3.34-.42-1.68-.4-3.32-.39-3.54.04-7.65-.02-10.73.35-2.14.25-3.58.33-5.67.38-1.26.03-.55.3-.65.46-4.05.15-8.1.27-12.15.35v-.32c.81-.19.61-.37.22-.57-.69-.35.34-.52,2.51-.54l1.91-.2c1.14-.05,2.52,0,3.01-.29l-2.1-.05c-.27-.15-1.51-.28.09-.45.84.16,1.69.17,2.56-.05l3.02-.08c1.25.5,3.71.77,6.41.98,1.89-.4,4.65-.75,5.02-1.29,2.65-.03,5.3-.07,7.96-.35.07.17-.21.39.31.48.7.12-2.07.52.46.41,1.75-.09,1.39-.32,1.19-.5-.09-.09-.12-.4,1.03-.16,2.11.43,1.63-.3,3.43-.32.28.06.48.19.85.17,1.04-.04,1.02-.2,1.3-.32,3.39-.17,6.65-.66,10.27-.68,1.88-.02,2.84-.54,3.37-.87,5.52-.45,11.04-.96,16.54-1.58,0,.09-.17.21.02.27.53.17-2.06.89.79.58,2.53-.27.3-.42.64-.67.1-.07.93-.19,1.43-.3,4.61-.86,9.63-1.46,14.44-2.16,1.4-.2,3.61-.92,4.79-.67.67.1,3.09-.1,5.67-.39,2.58-.33,5.33-.75,6.63-1.11Zm-15.94,2.26l-.5.21c.24-.02.52-.04.7-.08.18-.04.26-.1.38-.15-.2,0-.39.02-.58.02Zm-27.36,3.82c-.1,0-.25,0-.38.02.02.06.17.05.38-.02Z"/><path d="m300.38,4.23c6.23.22,12.31,1.17,18.46,1.75.73,1.11,4.76.89,7.32,1.27.49.37.38.71,3.17.75,1.69.03,4.09.49,6.21.9,1.66.49-3.75.51,2.51,1.31.89.24,2.18.44,2.21.83.02.19.81.64,1.61.81.82.17,1.61.21,1.95.12.57-.14-1.02-.5-1.48-.73-.9-.44-1.52-.88-2.28-1.29.56-.13,2.73.65,2.72.25.59.48,2.12.92,3.46,1.41,1.34.48,2.48,1.01,2.32,1.36-.08.17-.62.16-1.26.12-.64-.02-1.37-.06-1.84,0-.98.14-4.48-.95-7.33-1.67-1.28-.35-2.48-.77-3.77-1.05-1.25-.26-2.75-.83-3.72-.67-1.03.16,2.47.57,1.76.84-2.04-.07-4.14-.24-6.44-.72-.11-.63-.69-1.12-4.29-.92-2.67.15-5.92-1-8.52-.62l-.98-.07-1.84-.36c-3.06-.96-6.42-1.32-10.11-1.03-2.12-.65-4.56-1.09-7.73-.98l-1.34-.09c.16-.04.27-.1.5-.11,1.79-.09,3-.25,1.2-.8-.47-.14-1.78-.36-1.57-.16.5.47-5.36.19-1.11,1.11-1.16-.02-2.85-.23-2.85.18l-2.01-.14c-.06-.22,1.56-.35.21-.63-1.07-.22-2.25-.2-3.15-.06l-1.27-.1c-2.6-.23-2.73-.65-3.08-1.06-.2-.24-.8-.46-2.04-.53-.46-.03-1.19.01-1.34.09-.42.21.58.32,1.37.47,2.84.51-2.34.59.12,1.09-.64.34-2.24.21-3.74.12v-.26c.04-.25,2.29-.47-.08-.75-1.75-.21-3,.05-2.66.5l-2.3-.12-3.16-.53c-.88-.34-1.3-.67-.52-.97.36-.14.28-.3-.73-.37-1.22-.09-1.42.1-1.61.27l-1.7-.27v-.58c2.88.19,6.17.11,8.08.94.72.32,1.8.21,2-.07.14-.2-.08-.45,1.16-.5,5.06-.2,10.24.08,15.54.78,3.19.94,9.91,1.44,14.01.95Zm32.75,5.01c-.34-.06-.68-.04-1.02-.05.27.1.52.23.83.3.32.07.71.06,1.33.11-.52-.17-.82-.31-1.14-.37Z"/><path d="m3.09,34.8c-.68,2.09-.86,3.09-.94,4.36,0,.31-.12.4-.17.65-.03.12-.02.29.06.52.08.24.19.57.47.99.89,1.33,1,.8,1.07.43.08-.37.23-.62.39-.91.85,1.46,2.07,2.78,3.45,3.94-.16.21-.94.11,1.06,1.67,1.54,1.13,2.21,1.72,1.94,2.01-.31.08-2.2-1.21-1.46-.29.26.32.95.94,1.46,1.26,1.73,1.03.78.03,1.25.1.26.04.48.03.84.14.7.22,2.56,1.14,1.99.56-.65-.66-2.14-1.04-3.26-1.82l.28-.44c4.52,2.72,9.2,5,13.85,7.24-.99.2-1.78.64-5.65-1.63-.64-.38-1.72-.86-2.09-.79-.39.07.4.54,1.31,1.01.17.41.35.82.4,1.2l-1.42-.49.99.73c-3.4-1.17-6.4-2.83-8.84-4.94-.52-.75-1.61-1.97-3.13-2.74-1.47-.73-3.15-2.35-4.42-4.21-.62-.94-1.15-1.92-1.55-2.84-.38-.93-.67-1.77-.97-2.4.02-1.91.58-3.81,1.52-5.36.91-1.57,2.09-2.89,3.36-3.96.32.55,2.27-.98,3.9-2.2,1.43-1.12,2.45-1.54,3.71-2.05-.08.37-.86.84-1.74,1.33-.88.5-1.82,1.09-2.26,1.58-.32.36-1.99.85-2.28,1.64-.18.46,1.18-.36,2.08-.73.92-.39,1.57-.76,2.63-1.62.68-.52,1.44-1.05,2.22-1.49.79-.42,1.65-.67,2.46-.73.96-.09,2.37-.92,3.22-1.4,1.48-.84.16-.47-.82-.25-1.55.32-3.07.76-2.99.21l.85-.58c.96-.01,2.21-.38,3.55-.89,1.35-.46,2.82-1.03,4.19-1.47,1.07-.31,3.45-1.33,2.93-.44-.13.19,3.12-1.03,3.17-1.23.1-.42,1-.67,2.22-.99l.9-.23c1.65-.57,3.58-1.34,3.06-.45-.74.62-.72.59.74.37.64-.09,1.5-.19,1.66-.11.57.28-1.99.75-2.33,1.12-1.26.36-2.54.82-3.79,1.16-1.24.37-2.46.65-3.63.62-.61-.03-2.12.73-2.01.76.51.12-2.9,1.3-.38.82-.05.2-.31.32-1.31.6-3.24.99-6.59,1.86-9.55,3.65-.51-.51-1.56-.15-2.65.59-1.11.69-2.32,1.67-3.25,2.25-2.13,1.44-3.31,3-4.88,4.91,0-.35.21-.97.11-1.06-.05-.04-.21.03-.48.38-.26.34-.7.93-1.08,1.94Zm2.09,9.58l-.5-.28c.15.19.31.41.46.55.13.12.24.14.37.21-.11-.17-.22-.32-.33-.48Z"/><path d="m338.73,14.1c-2.92-1.67-6.47-3.71-9.41-4.7-2.34-1.44-6.34-2.68-9.36-3.81-.86-.32-1.2-.42-1.84-.58-1.96-.49-2.63,0-.55.75,2.18.81,2.82,1.18,3.31,1.56.51.39,1.51.96,3.67,1.46.24.05,1.1.36,1.45.52,3.45,1.56,6.82,2.98,10.05,4.85,3.68,2.17,7.26,4.63,9.99,7.86,1.35,1.61,2.5,3.4,3.1,5.39.59,1.98.69,4.09.18,6.1l.21.03c.21-.68.24-1.26.36-1.41.17-1.26-.04-2.76-.25-3.76-.24-1.22-.8-2.51-1.46-3.66-.68-1.14-1.41-2.18-1.95-3.03-.3-.52-1.91-2.46-3.9-4.12-1.97-1.68-4.22-3.12-5.02-3.53-.27-.14-.56-.25-.54-.2.23.45-1.13-.51-1.77-.91-.75-.51-1.22-.83-1.88-1.28-.38-.25-1.67-.8-1.51-.83.1-.02.86.28,1.85.75,2.07.97,4.82,2.69,5.26,2.56Z"/><path d="m92.49,6.49c-2.24.38-4.92.6-6.34,1.27.65-.02,1.5.02,1.94-.07,1.72-.34,3.33-.74,4.66-.42,1.09.27-.36.64-1.38,1.02-1.82.68-3.28.63-4.84.5-.97-.08-2.57.04-3.32.29-2.58.86-3.82.52-5.43.46-1.01.11-2.27.36-2.57.1-.06-.05.38-.25.57-.28,1.33-.17,1.4.1,2,.18l2.71-1.32c-1.96-.51-4.33.28-6.59.76.1.25-.02.51-1.66.78.05.17-.07.38.19.52.79.4-1.94.71-2.71,1.08-.21.1-.76.24-.95.13-.38-.23.51-.48,1.51-.79.56-.18.08-.45.07-.69-.87.39-3.49.36-3.68.92.34.02,1.26-.08.39.18l-.36-.19c-1.33.08-.6-.51-2.22-.24-.57.1-.98.54-1.46.82.05.15-.13.32-.89.52.05.05.11.1.17.15l.86-.12c1.47.07,5.98-.33-.04.88-.39.08-.54.33-.8.5,2.61-.44,5.3-1.13,7.76-.92.3.02,3.75-.93,6.09-1.28.62-.31,1.41-.46,2.82-.67,4.13-.64,8.51-.67,12.41-1.67,1.66.38,4.44-.57,6.16-.44,1.68.13,3.01.09,5.03-.4,2.74-.66,3.98-.5,4.1.09l4.58-.5c-.24-.34,1-.69,1.89-1.04-2.14-.28-4.37-.55.04-1.41.56-.11.18-.23-.4-.26-1.76.54-4.44.25-5.93.72-3.42,1.07-2.8.28-3.3-.01l-.97.11c-.07.22-.58.39-1.69.51-.1.29-.84.45-1.91.59l.11.29c-1.07.09-.91-.09-.93-.23-2.11-.07-5.27.21-5.67-.43Z"/><path d="m329.79,53.21c1.1-.5,1.81-.98,2.32-1.37,1.08-.83,2.4-1.77.09-.87-1.8.73-2.69,1.18-3.35,1.62-.65.43-1.06.86-1.98,1.29-1.17.41-2.32.86-3.5,1.21-1.75.24-4.75,1.71-6.94,2.22l-.14-.28c1.03-.29,2.09-.75,3.1-1.15,1.01-.39,1.96-.75,2.74-.92,2-.39,3.91-1.27,6.03-2.3,4.17-2.03,8.11-4.38,11.76-7.25,1.82-1.42,3.56-2.93,5.09-4.62,1.52-1.7,2.89-3.54,3.76-5.63.16-.11.3-.05-.1,1.03-.29.52-.52,1.06-.86,1.55l-.58.71c-.19.21-.36.42-.48.67-1.74,2.34-2.98,3.48-3.38,4.02-.41.53-.06.4.94-.21.06-.04.09-.04.13-.06,1.75-1.98,2.89-3.2,3.91-4.55.98-1.34,2.02-2.82,2.41-5.52.03-.56.15-1.16.13-1.77-.04-.6,0-1.21-.07-1.76-.08-.55-.14-1.04-.16-1.45-.04-.4-.09-.7-.04-.88.46,1.41.9,3.12.72,3.64-.07.24-.1.52-.13.83-.06.3-.11.63-.15.98-.04.71-.24,1.46-.42,2.2-.76,2.63-2.24,4.9-3.92,6.9-1.71,2-3.66,3.76-5.74,5.42-.74.59-1.49,1.16-2.26,1.72-.79.54-1.58,1.1-2.39,1.62-.83.49-1.66.98-2.49,1.47l-2.57,1.35c-3.47,1.71-7.06,3.14-10.67,4.48-1.43.53-3.71,1.41-3.94,1.06.78-.5,2.13-1,3.68-1.38,1.88-.45,3.05-1.06,4.09-1.66,1.86-.65,3.75-1.29,5.37-2.38Zm7.72-5.33c.1.08.69-.03,1.86-1,1.15-.92,2.71-2.42,2.67-2.58-.04-.3-1.33,1.12-1.92,1.48-1.02.86-2.91,1.88-2.61,2.1Zm4.11-1.82c.77-.6,2.07-1.77,1.98-1.97-.05-.1-.6.23-1.37.92-.85.71-1.64,1.45-2.76,2.34.92-.52,1.54-.81,2.14-1.29Zm-5.07,2.72l-.47.3h.08c.35-.24.35-.26.39-.3Z"/><path d="m250.25,1.12c-2.32.07-4.12-.03-6.73-.31-1.89-.2-4.02-.3-6.21-.34-2.19,0-4.45-.02-6.6-.03-2.15-.02-4.45-.31-6.48-.04l-.03.54c.47.26,1.69.68.23.74-4.3.2-3.74,1.2-6.72,1.59,1.58,0,2.99-.09,4.23-.27.16,0,.3-.02.41-.04.17-.24-.5-.58,1.22-.67,1.35-.06,2.31.07,2.5.38l.22.08-.2-.08c-1.99-.22-2.07.36-3.72.3-.1.03-.14.06-.13.1,1.88.59,4.2.1,6.26.23,2.65-.51,5.43-.42,8.24.13.84.16,1.38.37,2.33.08,1.46-.46,3.56-.2,5.58.04,2.91-.29,1.59-.84.91-1.36-.18-.13-.78-.33.24-.38.87-.04,1.38.11,1.73.27l1.03.02c-.53-.43,2.23-.53,1.68-.96Z"/><path d="m59.01,66.38c1.76.59,3.62,1.16,6.16,1.29,3.2,0,6.53.39,10.02,1.26.7-.13,1.97-.02,3.11.03l1.86.37c-.2-.19-.51-.53-.6-.54-3.45-.31-5.67-1.26-8.98-1.67-2.41-.3-4.59-.66-5.16-1.33-.02-.02-.26-.06-.39-.1-.46-.01-.92-.02-1.39-.03.3.69-2.11.23-3.94-.14-6.01-1.22-12.15-2.07-18.11-3.92-3.59-1.12-3.81-1.05-1.91-1.24.58-.07.98-.2,1.46-.3-3.47-.75-7.3-2.24-10.2-2.54.61.27,1.2.56,1.85.8,1.08.37,2.76.48,3.12,1.01.15.22-1.65-.03-2.79-.2-.61-.08-1.68-.51-2.55-.78-.72-.22-1.49-.54-1.89-.51-.52.03.18.42.89.79,1.12.54,1.31,1.03,3.15,1.61,2.21,1.09,4.74,2.06,7.89,2.66,3.67.38,7.81,1.32,12.01,2.17-.03-.16.19-.3.95-.14,1.33.27.44.35.7.54,1.87-.18,3.81-.46,4.74.92Z"/><path d="m347.83,37.74l-.58.71c-.08.11-.14.24-.23.34l-.25.33c-1.74,2.34-2.98,3.48-3.38,4.02-.41.53-.06.4.94-.21.06-.04.09-.04.13-.06,1.75-1.98,2.89-3.2,3.91-4.55.98-1.34,2.02-2.82,2.41-5.52.03-.56.15-1.16.13-1.77-.04-.6,0-1.21-.07-1.76-.08-.55-.14-1.04-.16-1.45-.04-.4-.09-.7-.04-.88-.29-.78-.78-1.82-1.31-2.76-.27-.47-.58-.9-.84-1.28-.29-.36-.56-.67-.78-.88.73,1.35-.34.27-.84-.31-1.48-1.74-.41-.84-.51-1.18-.02-.07.04-.04.07-.06-1-1.53-3.49-3.3-5.01-4.56-1.05-.63-1.93-1.23-2.66-1.83-.45.13-3.19-1.59-5.27-2.57-.99-.47-1.74-.77-1.85-.75-.16.02,1.13.58,1.51.83.66.45,1.12.77,1.88,1.28.64.4,2.01,1.36,1.77.91-.03-.05.27.06.54.2.79.42,3.05,1.85,5.02,3.53,1.99,1.66,3.6,3.59,3.9,4.12.54.85,1.27,1.89,1.95,3.03.66,1.15,1.22,2.44,1.46,3.66.21,1.01.42,2.51.26,3.76-.04,1.23-.26,1.25-.36,1.41l-.21-.03-.23.85c-.1.28-.22.54-.33.82.16-.11.3-.05-.1,1.03-.06.22-.06.41-.19.68-.42.87-.55.8-.67.87Z"/><path d="m209.42,3.06l-.06-.22c-.75-.42-1.34-.86-2.28-1.27-2.01-.87-5.7-.95-8.71-.22-.37.09-.56.24-1.02.28-1.71.2-1.82.83-.12,1.05q.71.1,1.11-.31c.19-.19.14-.44,1.43-.46.4,0,.84.22,1.26.34,2.44.14,2.28.59,2.83.96-2.78.25-5.62.2-8.49.11,1.18-.61-1.64-.71-2.97-1l-1.44.38-2.92.22s-.06-.1-.04-.15c1.77-.69-1.01-1.24-.93-1.87l1.77-.04s0,.07.1.08c1.26.19,1.03.82,2.57.69,2.26-.19-.27-.62.15-.95l1.05-.43c4.29,0,8.68-.17,12.87.14h1.82s.07.37.07.37l-.39.1.5-.07h1.14c.58.02,1.41.19,1.39-.11l1.85-.17-.26.06-.28-.06c1.27.43,4.42.4,5.31,1.1.42.33,4.41-.24,6.58-.49.36-.04.59-.12.88-.18.47.26,1.69.68.23.74-4.3.2-3.74,1.2-6.72,1.59-2.87.21-5.64.15-8.29-.21Zm-12.24-1.99c-.08-.1-.29-.2-.45-.3-.12.05-.34.11-.34.16,0,.08.13.17.23.27.27-.07.58-.11.56-.14Z"/><path d="m72.24,9.76c1.64-.27,1.76-.53,1.66-.78l-1.55.16-1.19.19c-2.98.31-5.87.56-8.97,1.32-1.27.3-3.11.63-4.67.71-1.71.07-4.88.64-5.41.79-5.56,1.68-11.08,2.5-16.56,3.51-2.01.4-3.19.98-4.81,1.43-4.13,1.13-8.23,2.43-12.27,3.98-4.03,1.55-8.04,3.45-11.68,6.02-.78.56-1.63,1.13-1.9,1.68.32.55,2.27-.98,3.9-2.2,1.43-1.12,2.45-1.54,3.71-2.05.44-.55,1.58-.97,2.52-1.45l.85-.58c.96-.01,2.21-.38,3.55-.89,1.35-.46,2.82-1.03,4.19-1.47,1.07-.31,3.45-1.33,2.93-.44-.13.19,3.12-1.03,3.17-1.23.1-.42,1-.67,2.22-.99.25-.24.57-.32.92-.23,1.63-.57,3.56-1.34,3.04-.44.45-.1.91-.21,1.37-.31,1.36-.6,2.78-1.21,4.84-1.29,1.55-.77,3.04-1.7,5.35-1.19l2.64-.49c.49-.55,2.29-.72,3.71-1,2.08-.41,1.77-.03,1.96.19,2.3-1.04,4.76-1.28,7.25-1.21.48-.28.89-.72,1.46-.82,1.62-.27.9.31,2.22.24.16-.55,2.78-.52,3.65-.91l1.89-.25Z"/><path d="m171.27.96c-1.32-.28-2.78-.44-4.72,0,1.12.25,2.22.54.92.95-1.02.33-1.83-.13-2.94.03-1.49-.54-2.31-.14-3.26.22-1.09.4-2.17.55-2.94.09-2.63.25-2.2.69-2.65,1.08.42.4,2.55.43,3.59.7,1.77.29,4.09.29,6.3.02,1.66-.21,3.09-.27,4.7-.23,1.62-.28-.09-.9,2.73-1.01,2.09-.08,1.76.36,2.09.64l1.86-.1c-.14-.27-.4-.53-.38-.8.01-.18.87-.26,1.67-.28.7-.01,1.22.08.83.22-.59.2-2.21.42-.48.57.43.04,1.94-.34,2.95-.52.32-.07.48-.24,1.14-.09l-1.17.09c.72.74,3.04.52,5.47.28.74-.64-2.97-.87-2.72-1.45-4,.44-3.97-.06-3.67-.62-1.61.14-2.94-.22-4.6,0,.26.63-1.51,1.25-4.28,1.27-3.85.02,1.22-.61-.11-.87-.19-.04-.22-.1-.32-.16Z"/><path d="m160.03,74.15l1.51.03,2.93-.14,1.08-.02s-.05-.09-.09-.14c-.63-.07-.95-.15-.41-.26.08-.02.34-.02.43-.01.83.1-.05.18-.05.27,1.53.04,2.65-.04,3.37-.29,2.26-.78,5.84-.12,5.77.06-.23.59,2.19.55,3.94.7,2.21-.22,4.39-.43,6.63-.65.98-.09,2.87-.06,2.33-.36-.45-.25-2.5-.03-3.01-.11-1.61-.24-4.08.54-4.99-.11-1.22-.04-2.67-.03-2.86-.33-1.03,0-2.13.04-2.79-.15-2.26-.06-4.54-.12-6.77-.19-4.43-.18-8.28.41-12.76.08v.37c1.09.01,2.24,0,2.81.24-.07.21-.12.42-1.8.41l.79.49,3.94.09Z"/><path d="m112.78,4.94c.58.03.96.15.4.26-4.41.87-2.18,1.13-.04,1.41l1.71-.19-.08-.54-.22-.06.21.06c1.57.05,4.92-.66,4.73.16,2.58-.29,4.98.21,7.81-.55.41-.11,2.23-.03,2.34.26l2.73-.13c1.15-.54,4.58-.95,3.87-1.58-.03-.03.59-.13.9-.2,2.1.95,2.86-.46,4.46-.38-.01-.06-.01-.12-.02-.18-4.74-.68-5.79.31-7.39,1.05l-.35.07.38-.07c-.94-.02-2.67.03-2.71-.06-.57-1.32-3.91-.21-6.67.09-2.87.31-6.16.85-8.75.49-1.26-.04-1.12-.53-3.29-.29l-.02.38Z"/><path d="m261.3,2.97l-1.71-.27c-4.18-.33-4.1-.91-3.63-1.52-1.37-.29-1.32.07-1.99.1,1.2.9-.88,1.55-4.69,1.51.86.47.91.91-.05,1.31.94.48,1.76.2,2.6.07-.55-.12-.68-.27.07-.26,1.03,0,.85.21.95.35,2.18.71,5.46.47,7.81.55,3.86.16,8.04.63,11.72.38v-.26s-2.68-.25-2.68-.25c-.86.29-1.61.08-2.37-.11l-3.16-.53c-.24.24-.45.49-2.16.37-1.16-.08-1.81-.29-2.35-.51-1.27-.52.5-.69,1.64-.93Z"/><path d="m179.47,73.14c.9.65,3.38-.13,4.99.11.52.08,2.57-.14,3.01.11.54.3-1.35.27-2.33.36-2.24.22-4.43.43-6.64.65l.81.28h1.08c2.98-.49,6.79-.26,10.14-.45.8-.19.6-.37.2-.57-.69-.35.34-.52,2.51-.54l.04-.16c.03-.22.67-.33,1.99-.33.27,0,.54-.02.79-.04-.27-.15-1.51-.28.09-.45l-.08-.16c-5.3.04-10.58-.09-15.9.19.85.35,2.43.71-.7,1.01Z"/><path d="m103.31,71.87c1.1.07.94.76,2.94.39,1.49-.27,2.84.38,4.3.34.46-.63,2.42-.35,4.49.03,1.75.32,3.21.31,4.55.17,1.39-.15,2.01-.38.57-.75-1.95-.15-3.73-.5-5.84-.5-6.56-.03-7.28-.1-12.46-1.06-.12-.02-.37-.06-.4-.06-2.72.41-6.68-.88-9.44-.58.23.33.23.65,2.05.98.08-.21.52-.2,1.77-.05,2.65.33,5.12.66,7.48,1.09Z"/><path d="m179.47,73.14c3.13-.3,1.56-.66.7-1.01-2.07-.17-3.45-.49-6.4-.02-2.13.32-6.39-.04-9.8-.06-4.59,0-9.4.03-14.03-.31-2.03-.15-3.37-.17-3.16.29.2.45,1.85.49,3.69.45l3.82.07c4.48.33,8.33-.27,12.76-.08,2.24.06,4.52.12,6.77.19.55-.08,1.16-.22,1.63-.21,1.03.03,1.13.21,1.16.37.19.3,1.63.29,2.86.33Z"/><path d="m134.19,4.33c1.6-.74,2.65-1.74,7.39-1.05l3.73-.48c.98-.2,2-.39,1.72-.67-1.76-.37-4.04.13-5.96.27-7.33.51-14.68.82-22.02,1.74-1.96.24-2.22.44-2.96.72,2.59.36,5.88-.18,8.75-.49,2.75-.3,6.1-1.41,6.67-.09.04.1,1.77.04,2.69.06Z"/><path d="m41.16,60.07c-.48.1-.88.23-1.46.3-1.9.19-1.68.12,1.91,1.24,5.96,1.85,12.1,2.71,18.11,3.92,1.83.37,4.24.83,3.94.14-3.32-1.22-7.07-1.77-11.23-2.26-2.69-.3-4.66-.9-4.01-1.46-1.35-.14-2.55-.47-3.71-.83-1.17-.35-2.31-.75-3.55-1.05Z"/><path d="m92.01,69.85c2.76-.29,6.73.99,9.45.58.03,0,.28.03.4.06,5.18.96,5.91,1.02,12.46,1.06,2.11,0,3.89.35,5.84.5-.8-.59-1.67-1.19-4.86-1.66l-2.37.17c-.89.29-2.23.16-4.11-.03-2.29-.26-5.09-.42-7.07-.64-4.01-.43-7.64-.19-11.42-.95l.94.82c.26.03.51.06.75.1Z"/><path d="m139.16,72.07c-1.23.48-2.23.92,2.61,1.15,1.56.08.57.25.45.39-2.4.23-5.02-.05-6.72-.35-4.29-.73-5.29-.32-6.25.24h-.89c-2.83-.43-7.48-.87-3.01-1.48.81-.11.8-.4,1.17-.61,2.44.11,4.89.23,7.33.34,1.58.08,2.77.12,2.94-.21l2.72.15c-.11.13-.07.27-.36.38Zm-7.81.14c-.1-.02-.26-.03-.49.02.13.01.27.03.49-.02Z"/><path d="m342.79,10.19c.59.48,2.12.92,3.46,1.41,1.34.48,2.48,1.01,2.32,1.36-.08.17-.62.16-1.26.12-.64-.02-1.37-.06-1.84,0-.98.14-4.48-.95-7.33-1.67-1.28-.35-2.48-.77-3.77-1.05-1.25-.26-2.75-.83-3.72-.67-1.03.16,2.47.57,1.76.84,2.07.67,4.44,1.13,6.79,1.72,2.35.58,4.7,1.29,6.62,2.38,1.21.68,1.12.08,2.18.45,1.09.25-3.26-2.01.49-.54.73.03,1.94.37,2.94.67.49.17.94.31,1.26.35.32.05.52,0,.52-.24-.69-.58-1.68-1.2-2.14-1.56-.57-.48-.74-.88-1.24-1.31-.49-.41-1.32-.84-3.17-1.08-.02,0-.3-.17-.67-.38-.37-.2-.84-.44-1.21-.61-2.18-.92-4.36-1.44-6.34-1.59.47.86,3.16.8,4.36,1.42Z"/><path d="m352.62,17.58c.79.69,1.24,1.29,1.42,1.8.1.33.28.68.4,1.07.17.38.28.78.38,1.17.2.79.23,1.47.15,2.18-.05.64-.38,1.32-.63,1.9-.28.57-.52,1.04-.44,1.31.06.25.23.36.53.32.28-.06.76-.19,1.26-.63.26-.21.56-.46.81-.82.13-.18.29-.35.4-.57.11-.23.22-.46.34-.71.4-1.03.48-2.46-.06-3.86-.5-1.36-1.36-2.95-2.46-4.16-.8-.44-1.14-.42-1.13-.15,0,.29.37.8.86,1.54,1.01,1.48,1.96,2.7,2.49,3.95.05.11.11.34.17.61.03.27.03.6.02.9-.1.6-.29,1.09-.44.93-.26-.22-.97.67-.97-.09,0-.22-.05-.39-.1-.64-.03-.12-.02-.26-.03-.43-.04-.18-.03-.38-.05-.65-.15-1.09-.32-1.66-.15-1.9.07-.12.16-.27.07-.52-.07-.27-.25-.68-.78-1.3-.52-.58-.98-.97-1.35-1.15-.35-.2-.58-.23-.68-.1Z"/><path d="m90.32,68.93c3.79.76,7.42.52,11.42.95,1.99.22,4.78.38,7.07.64,1.89.2,3.22.32,4.11.03-3.17-1.07-8.03-.97-12.01-1.36-5.93-.58-12.05-.8-17.75-2.03l-.5.17c.83.36,3.8,1.01-.8.59-1.51-.15-2.39.04.18.46,2.75.17,4.82-.29,8.27.55Z"/><path d="m106.67,8.14c-.12-.58-1.36-.74-4.1-.09-2.02.49-3.35.53-5.03.4-1.72-.13-4.5.82-6.16.44-3.9,1.01-8.29,1.04-12.41,1.67-1.41.21-2.2.35-2.82.67,3.87-.01,7.98-.51,12.41-1.12,2.82-.39,5.7-.75,8.81-.87,2.71-.1,6.17-.73,9.3-1.1Z"/><path d="m287.31,5.96l-2.01-.14-2.94-.69c-.42-.03-.84-.07-1.27-.1l-4.15.13c2.37,1.09,7.22,1.09,10.7,1.34,6.89.61,13.88.86,20.83,1.35l1.87-.02c-3.06-.96-6.42-1.32-10.11-1.03-2.97-.04-6.12.05-7.73-.98l-1.34-.09-.96-.03c0,.14.04.2.07.26.09.05.19.11.28.16l-.66-.12c-.86-.02-1.72-.05-2.58-.06Z"/><path d="m213.17,71.66c2.65-.03,5.29-.07,7.96-.35,2.11-.12,4.14-.22,5.72-.04,1.42-.1,2.14-.14,2.85-.19,3.39-.17,6.65-.66,10.27-.68,1.88-.02,2.84-.54,3.37-.87-10.18.72-20.36,1.28-30.55,1.89l.39.25Z"/><path d="m142.22,73.61c-2.4.23-5.02-.05-6.72-.35-4.29-.73-5.29-.32-6.25.24,7.1.51,14.21,1.07,21.34.76,1.72-.08,2.79.3,4.19.28,1.93-.03,4.89.21,5.26-.39l-3.94-.09-6.47-.28-7.4-.18Z"/><path d="m283.07,65.85c-.06.23.59.41-2.36.79-1.84.24-3.4.57-3.03.86,7.59-.91,15.17-2.06,22.86-4.14l-.08-.17-.29-.08c-.14.04-.29.08-.45.11-1.28.37-2.55.75-2.99.53-.23.06-.47.11-.71.16l-2.76.45c-.36.34-1.29.57-2.79.68-1.63.28-3.26.89-4.78.89-.5,0,.21-.27,1-.48l.05-.13-.93-.09c-1.65.04-1.74.43-2.73.6Z"/><path d="m128.36,73.49c-2.83-.42-7.48-.86-3.01-1.47.81-.11.8-.4,1.17-.61-1.35-.12-.89-.28-.97-.43l-1.81-.06c.54.39-1.81.41-1.89.72l1.21.15c-.09.02-.26.04-.27.04-.33-.06-.65-.13-.97-.19-1.6-.32-.59-.58-.91-.87-1.8-.52-3.66-.71-5.62-.38,3.19.47,4.06,1.07,4.86,1.66,1.44.38.82.61-.57.75-1.34.14-2.8.15-4.55-.17-2.06-.38-4.03-.65-4.49-.03,4.67.44,9.47.43,14.07.98,1.82.22,2.79.07,3.74-.1Z"/><path d="m82.04,68.39c-2.57-.42-1.69-.61-.18-.46,4.61.42,1.63-.24.8-.59-.83.24-2.23-.19-3.34-.28.09.24-.79.44-1.45.26-3.29-.88-5.75-.5-8.66-.99-1.6.05-1.64-.19-1.73-.44-1.53-.53-1.96-.34-2.45-.19.14.03.38.08.39.1.56.66,2.75,1.03,5.16,1.33,3.31.41,5.53,1.36,8.98,1.67.09,0,.39.35.6.54l3.56.74,1.89.41.28-.45c-4.07-.55-4.24-1.1-3.84-1.65Z"/><path d="m32.72,60.25c-1.84-.58-2.03-1.07-3.15-1.61-.71-.37-1.41-.76-.89-.79.4-.02,1.17.29,1.89.51.86.27,1.93.7,2.55.78,1.15.17,2.95.42,2.79.2-.36-.53-2.04-.64-3.12-1.01-.65-.24-1.24-.53-1.85-.8-.73-.54-1.56-.57-2.34-.84-1.34-.35-2.8-.73-2.54-.28,1.04,1.7-2.99.13-6.61-1.39.33.44,2.24,1.15,2.26,1.52,1.52.54,2.95,1.17,4.37,1.8,1.44.61,2.91,1.28,4.47,1.76,2.23.72,1.83.3,2.16.16Z"/><path d="m69.22,66.33c2.9.49,5.37.11,8.66.99.67.17,1.55-.03,1.45-.26-5.84-.79-11.64-1.57-17.46-2.45-2.92-.44-5.95-1.09-8.79-1.78-1.72-.41-3.13-.63-4.66-.88-.65.56,1.32,1.16,4.01,1.46,4.16.49,7.9,1.04,11.23,2.26.46.01.93.02,1.39.03.49-.15.92-.34,2.45.19l1.73.44Z"/><path d="m142.22,73.61l7.4.18.08-.33c-1.01-.03-1.9-.11-1.73-.32.16-.2,1.18-.17,2.1-.15.35-.15.37-.33.4-.5-1.84.04-3.48,0-3.69-.45-2.35-.26-4.79-.35-7.27-.35-.11.13-.07.27-.36.38-1.23.48-2.23.92,2.61,1.15,1.56.08.57.25.45.39Z"/><path d="m145.31,2.79l-3.73.48v.19s.22.06.22.06l-.2-.06c-1.6-.08-2.37,1.33-4.46.38-.32.07-.94.17-.9.2.71.63-2.72,1.05-3.87,1.58.21.2,1.04.1,1.78.06.95-.37,2.52-.38,3.9-.5,1.03.05,1.61-.75,2.19-.27.61.52,2.28.05,3.23.12,1.6-.47,2.35-.31,2.93,0,.98.02,2.16.29,2.72-.26l.39-.32c-1.14-.06-1.72-.3-3.32-.19-1.1-.06-.69-.3-.8-.47-4.97-.02.62-.7-.07-.98Z"/><path d="m297.51,62.21c1.57-.13,3.4-.35,4.91-.45,3.12-.14,8.63-1.89,10.79-3.2-2.19.64-4.62,1.36-3.21.47-4.24,1.06-8.5,1.99-12.49,3.18Z"/><path d="m145.38,3.78c-4.97-.02.62-.7-.07-.98.98-.2,2-.39,1.72-.67,2.8-.27,5.79-.99,8.39-.44.13.03.17.07.13.11-3.69.8-3.93,1.64-3.68,2.47l-2.37.18c-1.14-.06-1.72-.3-3.32-.19.09-.2.11-.39-.8-.47Zm2.91-.81c-.6-.05-1.15.16-.96.25.39.18-1.47.74,1.37.51,1.41-.19,1.29-.32.25-.41-.2-.12-.2-.32-.66-.35Z"/><path d="m80.48,8.22c.86-.1,1.62.16,2.56-.26,2.09-.94,2.37-.38,3.11-.2.65-.02,1.5.02,1.94-.07,1.72-.34,3.33-.74,4.66-.42,1.09.27-.36.64-1.38,1.02-1.82.68-3.28.63-4.84.5-.97-.08-2.57.04-3.32.29-2.58.86-3.82.52-5.43.46.9-.44,1.8-.88,2.7-1.32Zm10.4-.54s-.33.06-.34.08c-.03.05.02.09.04.14l.71-.16c-.13-.02-.25-.05-.41-.07Z"/><path d="m265.37,69.01c-3.74.5-7.69.75-11.02,1.55-.84.2-2.05.18-2.9.19-1.54,0-2.57.15-3.38.46,3.21.17,7.03-.41,10.61-.9,4.64-.63,9.05-.7,13.69-1.66.67-.13,1.51-.26,1.8-.43-.99-.15-2.61-.01-4.44.43-2.21.54-3.29.49-4.35.37Z"/><path d="m352.62,17.58c.1-.13.33-.1.68.1.36.19.82.57,1.35,1.15.53.61.71,1.03.78,1.3.1.25,0,.4-.07.52-.17.25,0,.81.15,1.9.02.26.01.47.05.65.01.17,0,.31.03.43.05.25.11.42.1.64,0,.76.71-.13.97.09.16.16.34-.33.44-.93,0-.3.01-.63-.02-.9-.06-.27-.13-.5-.17-.61-.53-1.25-1.47-2.47-2.49-3.95-.5-.74-.87-1.26-.86-1.54,0-.27.34-.3,1.13.15-.39-.55-.87-1.02-1.5-1.27,0,.24-.2.29-.52.24-.33-.04-.78-.18-1.26-.35-1-.3-2.2-.64-2.94-.67.79.57,1.49,1.12,1.39,1.4.97.48,1.89,1.03,2.75,1.66Z"/><path d="m63.02,11.51c-2.49-.07-4.94.17-7.25,1.21-1.32.81-5.69,1.46-6.32,2.32l.44.54c1.61-.13,3.04-.41,4.29-.91.19-.15-.43-.2.51-.44l.35.28c.27-.01.56-.06.87-.13,3.72-.74,2.79-1.63,6.21-2.35.76-.2.94-.37.89-.52Z"/><path d="m179.32,74.65l-.81-.28c-1.75-.15-4.17-.11-3.94-.7.07-.18-3.51-.84-5.77-.06-.71.25-1.84.33-3.37.29.07.04.1.09.12.13l-.08.49c4.56.24,9.08.59,13.84.14Z"/><path d="m223.06,73.37c.34-.42-1.68-.4-3.32-.39-3.54.04-7.65-.02-10.73.35-2.14.25-3.58.33-5.67.38-1.26.03-.55.3-.65.46,4.46-.03,8.8,0,13.47-.49,2.02-.22,4.59-.2,6.91-.31Z"/><path d="m114.85,6.42l-1.71.19c-.89.34-2.13.69-1.89,1.04,4.64-.16,9.54-1.05,14.27-.88,1.9.07,2.43-.71,4.11-1.01-.11-.29-1.93-.37-2.34-.26-2.83.76-5.23.26-7.81.55-1.58,1.23-3.08.1-4.63.38Z"/><path d="m37.27,16.5c-.46.1-.91.21-1.37.31-.74.62-.72.59.74.37.64-.09,1.5-.19,1.66-.11.57.28-1.99.75-2.33,1.12.66-.05,1.33-.06,1.99-.09l2.99-.58c1.96-.65,3.93-1.33,5.91-1.96-4.25.32-4.21.14.59-1.55-2.3-.5-3.79.42-5.35,1.2-1.61.42-2.16,1.59-4.84,1.29Z"/><path d="m19.47,55.02c3.62,1.52,7.65,3.09,6.61,1.39-.27-.44,1.19-.06,2.54.28-.18-.71-2.18-.96-3.24-1.49-.99.2-1.78.64-5.65-1.63-.64-.38-1.72-.86-2.09-.79-.39.07.4.54,1.27.98l.4.14-.36-.12.53,1.23Z"/><path d="m155.42,1.69c.13.03.17.07.13.11.43.27,3.3-.06,2.79.44.77.46,1.85.31,2.94-.09.96-.36,1.78-.75,3.26-.22,1.11-.16,1.92.29,2.94-.03,1.3-.4.2-.7-.92-.95-3.77.1-7.81-.26-11.14.74Z"/><path d="m211.43.52c1.27.43,4.42.4,5.31,1.1.42.33,4.41-.24,6.58-.49.36-.04.59-.12.88-.18l.03-.54c-3.34-.46-6.46.22-9.76-.04l-2.44.05c-.32,0-.52.04-.6.1Z"/><path d="m281.98,64.98c.67.1,3.09-.1,5.67-.39,2.58-.33,5.33-.75,6.63-1.11,2.58-.68.85-.66,1.33-.99-1.64.39-3.28.9-4.91.94-.35.01-1.52.18-1.59.21-2.04.85-4.8.89-7.13,1.35Z"/><path d="m342.79,10.19c-1.2-.62-3.89-.56-4.36-1.42-1.24-.64-2.6-.72-3.94-.84-2.28.09-5.71-.71-8.34-.69.49.37.38.71,3.17.75,1.69.03,4.09.49,6.15.87h1.19s.34.2.34.2l-1.46-.17c1.66.49-3.75.51,2.51,1.31.28-.22-.43-.83,2.02-.26.56-.13,2.73.65,2.72.25Z"/><path d="m224.91,72.85c-.05.08.28.15-.52.22,5.64-.23,11.62-.18,16.42-1.48l-.15-.17-3.68.29c-4.01.42-8.03.79-12.08,1.14Z"/><path d="m326.15,7.24c2.63-.02,6.06.78,8.34.69-.19-.65-2.33-.55-3.37-.75-4.05-.84-8.23-.96-12.28-1.2.73,1.11,4.76.89,7.32,1.27Z"/><path d="m259.59,2.12c2.9.19,6.19.11,8.09.94.72.32,1.8.21,2-.07.14-.2-.08-.45,1.16-.5.43-.57-2.02-.53-3.31-.62-2.9-.21-5.85-.33-8.78-.49.23.25-.52.49.85.74Z"/><path d="m244.66,3.53c-2.02-.24-4.12-.5-5.58-.04-.95.3-1.5.08-2.33-.08-2.81-.54-5.59-.63-8.24-.13,2.61.58,5.89.57,9.08.59,2.35.02,4.69.04,7.03.07l.04-.41Z"/><path d="m4.54,33.54c0-.35.21-.97.11-1.06-.05-.04-.21.03-.48.38-.26.34-.7.93-1.08,1.94-.68,2.09-.86,3.09-.94,4.36,0,.31-.12.4-.17.65-.03.12-.02.29.06.52.08.24.19.57.47.99.89,1.33,1,.8,1.07.43.08-.37.23-.62.39-.91-.63-1.19-1.01-2.47-.87-3.72.1-1.25.62-2.48,1.44-3.58Z"/><path d="m180.59.71c-.29.56-.33,1.05,3.67.62l2.8-.42,1.77-.04c.75-.2,1.8-.18,2.82-.18l1.05-.43c.08-.38-1.16-.25-2.14-.2-3.33.18-6.65.41-9.97.65Z"/><path d="m37.96,18.1c-.66.03-1.33.04-1.99.09-1.26.36-2.54.82-3.79,1.16-1.24.37-2.46.65-3.63.62-.61-.03-2.12.73-2.01.76.51.12-2.9,1.3-.38.82,1.91-.7,4.01-1.11,6.03-1.63,2.04-.45,4.01-1.03,5.76-1.82Z"/><path d="m181.53,2.51c-1.01.18-2.52.56-2.95.52-1.73-.15-.1-.36.48-.57.4-.14-.13-.23-.83-.22-.8.02-1.66.1-1.67.28-.02.27.24.53.38.8,3.37.45,7.18.21,10.96.08l.11-.47s-.06-.1-.04-.15h-1.01c-2.43.24-4.75.46-5.45-.27Z"/><path d="m62.12,12.03c-3.42.73-2.49,1.62-6.21,2.35,1.99.14,3.99.17,6.4-.94.26-.17.41-.42.8-.5,6.03-1.21,1.51-.81.04-.88-.13.15.06.29-1.03.45l.17-.33c-.06-.05-.12-.1-.17-.15Z"/><path d="m10.07,50.29c-.52-.75-1.61-1.97-3.13-2.74-1.47-.73-3.15-2.35-4.42-4.21-.62-.94-1.15-1.92-1.55-2.84-.38-.93-.67-1.77-.97-2.4.07,1.59.59,3.08,1.31,4.34.72,1.27,1.61,2.34,2.55,3.29,1.9,1.9,4.04,3.33,6.21,4.56Z"/><path d="m83.72,70.09l-3.56-.74-1.86-.37c-.04.42-1.6.2-3.11-.03-3.49-.88-6.81-1.27-10.02-1.26.27.23,1.21.56,1.87.6,5.42.36,11.38,1.82,16.68,1.81Z"/><path d="m325.96,9.81c-.11-.63-.69-1.12-4.29-.92-2.67.15-5.92-1-8.52-.62,3.75,1.17,8.44,1.15,12.81,1.54Z"/><path d="m201.74,71.96c1.25.5,3.71.77,6.41.98-.55-.5.83-.96,2.64-1.43-1.89-.19-3.56.08-5.29.25-.92.45-2.44.21-3.76.2Z"/><path d="m286.36,3.28c3.19.94,9.91,1.44,14.01.95-3.96-.65-8-.66-12-.96-.13.35-1.1.17-2.01.01Z"/><path d="m98.98,6.85c1.07-.13,1.81-.3,1.76-.54h-1.2s-.28-.18-.28-.18l.89-.02.75.15c1.11-.12,1.62-.29,1.69-.51-3.39.27-6.38-.03-10.09.74.4.63,3.56.35,5.67.43l.82-.07Z"/><path d="m52.62,65.07c-4.19-.84-8.33-1.79-12.01-2.17,1.32.67,2.61,1.11,4.78,1.29,2.74.22,5.98,1.27,8.96,1.68l-.09-.42c-.54-.13-1.09-.26-1.64-.39Z"/><path d="m249.28,2.79c3.81.04,5.89-.61,4.69-1.51l-3.72-.16c.55.43-2.21.53-1.68.96,1.08.23.61.47.71.71Z"/><path d="m46.86,15.56c-1.98.62-3.94,1.3-5.91,1.96,3.11-.37,6.18-.78,8.93-1.93l-.44-.54-2.58.52Z"/><path d="m151.87,4.27l-2.37.18-.39.32c3.46-.13,6.99-.03,10.17-.75-1.05-.26-3.18-.3-3.59-.7-.66.11-1.22.21-1.78.3-.13.27-.2.54-2.03.65Z"/><path d="m244.66,3.53l-.04.41,4.61.17c.96-.4.91-.84.05-1.31-2.25-.12-1.71-.45-1.74-.73-.35-.16-.86-.31-1.73-.27-1.02.05-.42.24-.24.38.69.52,2,1.06-.91,1.36Z"/><path d="m112.78,4.94l.02-.38c-3.15.25-6.66.02-9.25,1.09.5.3-.12,1.09,3.3.01,1.49-.47,4.17-.18,5.93-.72Z"/><path d="m85.88,70.04l-.28.45c3.55.72,6.82.72,10.15.84l-1.7-.51c-1.82-.33-1.82-.65-2.05-.98-.25-.04-.5-.07-.75-.1-.07.65-.68,1.14-5.38.29Z"/><path d="m126.53,71.41c2.44.11,4.89.23,7.33.34,1.58.08,2.77.12,2.94-.21-3.24-.56-6.88-.32-10.27-.63-.02.16-.03.33,0,.5Z"/><path d="m94.06,70.83l1.7.51c2.62.47,5.33,1.09,7.55.53-2.36-.43-4.83-.76-7.48-1.09-1.25-.15-1.69-.17-1.77.05Z"/><path d="m171.27.96c.1.05.14.12.32.16,1.34.26-3.73.89.11.87,2.77-.02,4.54-.64,4.28-1.27-1.63-.04-3.37-.29-4.72.24Z"/><path d="m265.37,69.01c1.06.12,2.15.17,4.35-.37,1.83-.44,3.45-.57,4.44-.43.65-.13,1.48-.23,1.7-.4-.55-.07-1.11-.13-1.67-.2-2.88.3-5.7.84-8.56,1.19l-.27.2Z"/><path d="m309.99,59.03c-1.41.89,1.02.17,3.21-.47,1.63-.43,2.61-.86,3.23-1.25l-.14-.28c-2.03.74-4.08,1.43-6.3,2Z"/><path d="m190.54,74.2c-3.36.19-7.16-.04-10.14.46,3.38.36,6.76-.1,10.13-.14v-.32Z"/><path d="m15.32,25.8c-.51-.51-1.56-.15-2.65.59-1.11.69-2.32,1.67-3.25,2.25.28.15-.09.79,2.12-.76,1.14-.7,2.45-1.47,3.78-2.07Z"/><path d="m175.09,3.43c-.34-.27,0-.72-2.09-.64-2.82.11-1.11.72-2.73,1.01,2.27.44,3.22-.24,4.82-.37Z"/><path d="m276.94,5.16l4.15-.13c-2.59-.23-2.73-.65-3.07-1.06-.2-.24-.8-.46-2.04-.53-.46-.03-1.19.01-1.34.09-.42.21.58.32,1.37.47,2.84.51-2.34.59.12,1.09.26.04.53.07.82.09Z"/><path d="m315.23,59.09c-1.72.72-4.36.59-5.54,1.71.87.21.89.23,5.54-1.71Z"/><path d="m201.03,2.27c2.44.14,2.28.59,2.83.96,1.91.02,4,.29,5.55-.17l-.06-.22c-1.37-.09-3.77.09-3.99-.28-.49-.82-2.44-.47-4.33-.29Z"/><path d="m195.37,3.34c1.18-.61-1.64-.71-2.97-1l-1.45.38-1.13.78c1.91.08,3.58-.4,5.55-.16Z"/><path d="m11.23,48.4l.28-.44c-1.34-1.04-2.61-2.12-4.1-3.18-.16.21-.94.11,1.06,1.67,1.54,1.13,2.21,1.72,1.94,2,.78.36.66.05.82-.05Z"/><path d="m210.79,71.52c-1.82.46-3.19.93-2.64,1.43,1.88-.4,4.64-.75,5.02-1.29l-.39-.25-1.99.11Z"/><path d="m259.59,2.12c-1.37-.24-.62-.49-.85-.74l-2.77-.21c-.47.61-.55,1.2,3.63,1.52v-.58Z"/><path d="m54.26,65.46l.09.42c1.78.34,3.32.52,4.66.51-.93-1.38-2.86-1.1-4.75-.93Z"/><path d="m259.86,67.94c0,.09-.17.21.02.27.53.17-2.06.89.79.58,2.53-.27.3-.42.64-.67.1-.07.93-.19,1.43-.3-.63-.09-1.21-.22-2.89.12Z"/><path d="m201.74,71.96c1.32.01,2.84.25,3.76-.2l-2.03-.02c-.77.04-1.42.03-1.78-.09l-3.75.24.79.15,3.02-.08Z"/><path d="m346.4,20.5s-.1-.01-.07.06c.1.34-.97-.56.51,1.18.51.58,1.57,1.66.84.31-.41-.52-.82-1.06-1.28-1.55Z"/><path d="m121.86,71.64c.08-.31,2.43-.33,1.89-.72l-2.83-.15c.32.29-.68.56.94.87Z"/><path d="m349.87,15.93c.1-.29-.6-.83-1.39-1.4-3.75-1.46.61.79-.48.54.14.11.33.24.6.34.35.17.72.33,1.06.51.21.1.29.1.22,0Z"/><path d="m210.12.69l1.85-.17c-.82-.43-3.07-.31-4.47-.49l-.1.37.07.38c.5.02.88.02,1.26.01.14-.21.77-.16,1.39-.1Z"/><path d="m21.72,56.53c-.02-.36-1.93-1.08-2.38-1.54l-1.42-.49.99.73c.86.51,1.79.96,2.81,1.3Z"/><path d="m146.39,5.02c-.58-.3-1.33-.47-2.93,0,.79.14,1.12.61,2.93,0Z"/><path d="m164.48,74.04l-2.93.14c-.14.43,1.48.34,2.92.31v-.45Z"/><path d="m138.04,5.18c-1.38.12-2.94.13-3.9.5,2.02.25,3.06-.07,3.9-.5Z"/><path d="m338.74,14.11c.72.59,1.61,1.19,2.66,1.83-.82-.63-1.14-1.27-2.66-1.83Z"/><path d="m198.72,72.05l-.79-.15-1.85.04.08.16c.84.16,1.69.17,2.56-.05Z"/><path d="m222.25,3.05s.02-.07.13-.1c-.13.02-.27.04-.43.04-.09.13-.18.27-.27.4l.57-.35Z"/><path d="m201.69,71.66c.36.12,1.01.12,1.78.09.01-.26-.6-.28-1.78-.09Z"/><path d="m252.85,4.26c-.1-.14.08-.34-.95-.35-.75,0-.62.14-.07.26l1.01.09Z"/><path d="m207.4.39l.1-.37c-.96.06-1.62.18-1.92.37h1.82Z"/><path d="m212.04.42l2.44-.05c-1.02-.25-1.84-.24-2.44.05Z"/><path d="m126.49,71.4l.05-.49c-.61-.06-.93-.04-.97.07.08.14-.38.31.92.42Z"/><path d="m55.04,14.51l-.35-.28c-.95.24-.33.29-.51.44.3-.02.58-.07.86-.16Z"/><path d="m286.36,3.28c.91.16,1.88.34,2.01-.01-.84-.11-1.67-.21-2.01.01Z"/><path d="m349.65,15.92c-.34-.18-.71-.34-1.06-.51l.54.51c.17,0,.35,0,.52,0Z"/><path d="m265.64,68.81c2.86-.36,5.68-.89,8.56-1.19.99-.16,1.42-.3,1.48-.45l.07-.42c-1.58.21-2.12.17-1.59-.13.25-.14.6-.32-.45-.19-.31.04-.79.13-1.19.21-.4.08-.73.16-.72.18.27.54-3.91,1.13-5.5,1.66-.32.11-.45.22-.67.32Z"/><path d="m324.42,55.59c1.86-.65,3.75-1.29,5.37-2.38-3.02,1.38-.75-.16-2.92.67-1.17.41-2.32.86-3.5,1.21.55.1,2.47-.41,1.05.49Z"/><path d="m226.84,71.26c-1.58-.17-3.61-.08-5.72.04.07.17-.21.39.31.48.7.12-2.07.52.46.41,1.75-.09,1.39-.32,1.19-.5-.09-.09-.12-.4,1.03-.16,2.11.43,1.63-.3,2.73-.27Z"/><path d="m293.25,64.37l2.76-.45c.33-.21,2.64-.83.54-.56-2.22.28-2.91.67-3.31,1.01Z"/><path d="m286.68,65.47c-.79.21-1.5.48-1,.48,1.52,0,3.15-.61,4.78-.89-.21-.34-2.3.2-3.78.41Z"/><path d="m236.99,71.71l3.68-.29c-.22-.24-1.39-.26-2.86-.13-1.14.11-.75.28-.82.42Z"/><path d="m196.08,72.55c-.26.02-.52.03-.79.04l-.1.29c1.12-.05,2.5-.01,2.99-.29l-2.1-.05Z"/><path d="m296.72,63.76c.44.22,1.71-.16,2.99-.53l-.15-.23c-.96.26-1.9.51-2.84.76Z"/><path d="m278.92,65.72c-.2,0-.39.02-.58.02l-.5.21c.24-.02.52-.04.7-.08.18-.04.26-.1.38-.15Z"/><path d="m229.69,71.07l-2.14.15c.28.06.48.19.85.17,1.04-.04,1.02-.2,1.3-.32Z"/><path d="m285.8,65.25l.93.09c1.35-.44.26-.28-.93-.09Z"/><path d="m299.56,63c.49-.12,1.21-.26,1.18-.37,0-.02-.37,0-.55.05-.83.19-.57.23-.63.32Z"/><path d="m275.75,66.75l-.07.42c1.17-.3,1.25-.45.07-.42Z"/><path d="m250.6,69.58c.02.06.17.05.3.04-.02-.06-.17-.05-.3-.04Z"/><path d="m193.29,72.92l-.04.16,1.91-.2c-.61.01-1.24.03-1.87.04Z"/><path d="m283.05,65.86h-.22c.08-.01.16-.01.22,0Z"/><path d="m300.16,63.12l.29.08c.77-.25.6-.26-.29-.08Z"/><path d="m261.3,2.97c-1.14.24-2.91.41-1.64.93.54.22,1.19.43,2.35.51,1.71.12,1.92-.13,2.16-.37-.88-.34-1.3-.67-.52-.97.36-.14.28-.3-.73-.37-1.22-.09-1.42.1-1.61.27Z"/><path d="m340.07,9.95c-2.45-.57-1.73.04-2.02.26.89.24,2.18.44,2.21.83.02.19.81.64,1.61.81.82.17,1.61.21,1.95.12.57-.14-1.02-.5-1.48-.73-.9-.44-1.52-.88-2.28-1.29Z"/><path d="m292.49,5.82c1.62,1.02,4.76.93,7.73.98-2.12-.65-4.55-1.09-7.73-.98Z"/><path d="m290.19,5.71l.96.03c.16-.04.27-.1.5-.11,1.79-.09,3-.25,1.2-.8-.47-.14-1.78-.36-1.57-.16.5.47-5.36.19-1.08,1.04Z"/><path d="m269.7,4.68l2.67.25c.04-.25,2.3-.47-.07-.74-1.75-.21-3,.04-2.6.49Z"/><path d="m282.36,5.13l2.94.69c-.06-.22,1.56-.35.21-.63-1.07-.22-2.25-.2-3.15-.06Z"/><path d="m334.27,9.6c-.52-.17-.82-.31-1.14-.37-.34-.06-.68-.04-1.02-.05.27.1.52.23.83.3.32.07.71.06,1.33.11Z"/><path d="m287.31,5.96c.86,0,1.72.04,2.58.06.12-.01.25-.03.38-.05l-.1-.19c-1.16-.02-2.85-.24-2.85.18Z"/><path d="m267.34,4.57c.75.2,1.51.41,2.3.12l-2.3-.12Z"/><path d="m328.61,9.64c-.25-.08-.39-.07-.52-.06.09.03.18.06.52.06Z"/><path d="m15.02,23.08c-.94.48-2.09.91-2.52,1.45-.08.37-.86.84-1.74,1.33-.88.5-1.82,1.09-2.26,1.58-.32.36-1.99.85-2.28,1.64-.18.46,1.18-.36,2.08-.73.92-.39,1.57-.76,2.63-1.62.68-.52,1.44-1.05,2.22-1.49.79-.42,1.65-.67,2.46-.73.96-.09,2.37-.92,3.22-1.4,1.48-.84.16-.47-.82-.25-1.55.32-3.07.76-2.99.21Z"/><path d="m11.23,48.4c-.15.1-.03.41-.82.05-.31.08-2.2-1.21-1.46-.29.26.32.95.94,1.46,1.26,1.73,1.03.78.03,1.25.1.26.04.48.03.84.14.7.22,2.56,1.14,1.99.56-.65-.66-2.14-1.04-3.26-1.82Z"/><path d="m5.51,44.86c-.11-.17-.22-.32-.33-.48l-.5-.28c.15.19.31.41.46.55.13.12.24.14.37.21Z"/><path d="m31.94,17.49l.9-.23c-.29.08-.6.16-.9.23Z"/><path d="m349.56,33.53c.1-.16.32-.18.36-1.41-.12.15-.14.73-.36,1.41Z"/><path d="m72.24,9.76l-1.89.25c.01.23.49.51-.07.69-1,.31-1.89.56-1.51.79.19.11.74-.03.95-.13.77-.37,3.51-.68,2.71-1.08-.26-.13-.14-.34-.19-.52Z"/><path d="m77.78,9.54c-.6-.08-.67-.35-2-.18-.19.02-.63.22-.57.28.3.26,1.56,0,2.57-.09Z"/><path d="m98.98,6.85l-.82.07c.02.14-.14.32.93.23l-.11-.29Z"/><path d="m62.29,12.18l-.17.33c1.09-.16.9-.31,1.03-.45l-.86.12Z"/><path d="m66.7,10.93l.36.19c.87-.27-.05-.17-.36-.19Z"/><path d="m326.87,53.88c2.17-.83-.1.71,2.92-.67,1.1-.5,1.81-.98,2.32-1.38,1.08-.83,2.4-1.77.09-.87-1.8.73-2.69,1.18-3.35,1.62-.65.43-1.06.86-1.98,1.29Z"/><path d="m340.12,45.78c-1.02.86-2.91,1.88-2.61,2.1.1.08.69-.03,1.86-1,1.15-.92,2.71-2.42,2.67-2.58-.04-.3-1.33,1.12-1.92,1.48Z"/><path d="m339.47,47.36c.92-.52,1.54-.81,2.14-1.29.77-.6,2.07-1.77,1.98-1.97-.05-.1-.6.23-1.37.92-.85.71-1.64,1.45-2.76,2.34Z"/><path d="m347.83,37.74c.12-.07.25,0,.67-.87.13-.27.13-.46.19-.68-.29.52-.52,1.06-.86,1.55Z"/><path d="m336.17,49.09c.23-.2.07-.1-.08,0h.08Z"/><path d="m346.76,39.12l.25-.33c.09-.11.15-.23.23-.34-.19.21-.36.42-.48.67Z"/><path d="m226.07,2.66c-.19-.31-1.15-.44-2.5-.38-1.72.09-1.05.43-1.22.67,1.67.06,1.75-.51,3.72-.29Z"/><path d="m247.54,2.06c.04.28-.51.61,1.77.74-.13-.24.33-.48-.74-.71l-1.03-.02Z"/><path d="m226.09,2.66l.2.08c-.07-.03-.15-.05-.2-.08Z"/><path d="m52.62,65.07l1.65.39c-.27-.19.63-.26-.7-.54-.76-.16-.98-.01-.95.14Z"/><path d="m75.19,68.94c1.51.23,3.07.45,3.11.03-1.14-.04-2.41-.16-3.11-.03Z"/><path d="m201.03,2.27c1.89-.17,3.84-.52,4.33.29.22.37,2.63.18,3.99.28-.75-.42-1.34-.86-2.28-1.27-2.01-.87-5.7-.95-8.71-.22-.37.09-.56.24-1.02.28-1.71.2-1.82.83-.12,1.05q.71.1,1.11-.31c.19-.19.14-.44,1.43-.46.4,0,.84.22,1.26.34Z"/><path d="m186.98,2.78h1.01c1.77-.69-1.01-1.23-.93-1.87l-2.8.42c-.25.58,3.46.82,2.72,1.45Z"/><path d="m191.65.69c-1.02,0-2.07-.02-2.82.18.03.03,0,.07.1.08,1.26.19,1.03.82,2.57.69,2.26-.19-.27-.62.15-.95Z"/><path d="m196.62,1.21c.27-.07.58-.11.56-.14-.08-.1-.29-.2-.45-.3-.12.05-.34.11-.34.16,0,.08.13.17.23.27Z"/><path d="m210.12.69c-.62-.06-1.25-.11-1.39.1.59.03,1.41.2,1.39-.1Z"/><path d="m207.47.77l-.39.1c.17-.03.34-.05.39-.1Z"/><path d="m46.86,15.56l2.58-.52c.63-.86,5-1.51,6.32-2.32-.19-.22.13-.6-1.96-.19.95.18-.54.63-1.48.91-1.15.35-1.76.18-2.23.08l-2.64.49c-4.8,1.69-4.84,1.87-.59,1.55Z"/><path d="m50.1,13.52c.48.1,1.08.26,2.23-.08.94-.28,2.43-.73,1.48-.91-1.42.28-3.22.44-3.71,1Z"/><path d="m37.27,16.5c2.68.29,3.24-.88,4.84-1.29-2.06.08-3.48.69-4.84,1.29Z"/><path d="m31.92,17.49l.94-.24c-.35-.08-.67,0-.94.24Z"/><path d="m151.87,4.27c1.83-.11,1.9-.38,2.03-.65-.3-.35.66-.34,1.68-.28.55-.4.12-.84,2.75-1.09.51-.5-2.36-.17-2.79-.44-3.69.8-3.93,1.64-3.67,2.47Z"/><path d="m181.51,2.5l1.17-.09c-.66-.15-.83.02-1.17.09Z"/><path d="m150.39,73.01c-.45.13-.57.29-.7.44,1.88.04,3.75.08,5.61.12,1.69.02,1.73-.2,1.8-.41-1-.05-2.23,0-2.82-.24l-3.89.09Z"/><path d="m176.62,72.81c-.04-.16-.13-.34-1.16-.37-.47-.01-1.08.14-1.63.21.66.19,1.76.15,2.79.15Z"/><path d="m154.28,72.93c.59.24,1.82.19,2.82.24-.57-.24-1.72-.22-2.82-.24Z"/><path d="m165.43,73.89c0-.09.88-.17.05-.27-.09-.01-.35,0-.43.01-.54.11-.23.19.37.26Z"/><path d="m114.85,6.42c1.55-.28,3.06.86,4.63-.38.2-.81-3.15-.11-4.73-.16.04.18.07.36.09.53Z"/><path d="m134.22,4.33l-.38.07c.12-.02.24-.04.38-.07Z"/><path d="m114.76,5.88l-.21-.06c.07.02.15.04.21.06Z"/><path d="m193.29,72.92l1.89-.04.1-.29c-1.32,0-1.96.11-1.99.33Z"/><path d="m85.88,70.04c4.69.85,5.3.36,5.38-.29l-.94-.82c-3.46-.83-5.53-.37-8.27-.55-.41.55-.23,1.11,3.84,1.65Z"/><path d="m130.86,72.22l.4.04c0-.08-.17-.09-.4-.04Z"/><path d="m289.89,6.02l.66.12c-.09-.05-.19-.11-.28-.16-.13.02-.25.03-.37.05Z"/><path d="m121.83,71.64c.32.06.64.12.97.19,0,0,.18-.03.27-.04-.4-.05-.81-.09-1.24-.14Z"/><path d="m69.22,66.33l-1.73-.44c.09.24.14.49,1.73.44Z"/><path d="m149.69,73.45l.38-.46c-.92-.02-1.94-.06-2.1.15-.16.2.72.28,1.72.32Z"/><path d="m146.18,4.25c.09-.2.11-.39-.8-.47.11.18-.29.41.8.47Z"/><path d="m141.6,3.46l.2.06c-.07-.02-.14-.04-.2-.06Z"/><path d="m148.95,3.32c-.2-.12-.2-.32-.66-.35-.6-.05-1.15.16-.96.25.39.18-1.47.74,1.38.51.08-.14.16-.27.24-.41Z"/><path d="m148.95,3.32c-.08.14-.16.27-.24.41,1.41-.19,1.28-.32.24-.41Z"/><path d="m91.3,7.75c-.13-.02-.26-.05-.41-.07-.02,0-.33.06-.34.08-.03.05.02.09.04.14l.71-.16Z"/><path d="m18.94,53.79l.36.12c-.13-.05-.26-.1-.36-.12Z"/><path d="m335.54,8.89l1.46.17-.34-.19c-.4,0-.79-.01-1.12.02Z"/><path d="m99.54,6.3h1.2c-.09-.09-.34-.14-.59-.2l-.6.2Z"/><path d="m155.58,3.33c-1.02-.05-1.98-.06-1.68.28l1.68-.28Z"/>
                  </g>
                </mask>
              </defs>
              <path class="mask" d="m354.17,27.48c5.35-3.85,2.49-9.56-3.96-12.93-7.7-4.02-18.04-5.71-24.32-6.35C220.71-2.5,147.35,3.69,147.35,3.69c-19.12,1.15-109.35,6.86-136.56,23.02-2.45,1.46-8.11,4.91-8.9,9.73-1.56,9.63,17.54,17.32,25.23,20.42,54.9,22.09,264.8,24.54,311.09-9.21,3.89-2.83,14.1-10.28,11.69-19.77-3.2-12.6-26.5-20.44-33.66-22.68"
                    mask="url(#path-mask)" stroke="black" stroke-width="2" fill="none"
                    stroke-dasharray="790.8294067382812" stroke-dashoffset="790.8294067382812">
              </path>
            </svg>
        