
            <svg xmlns="http://www.w3.org/2000/svg">
              <defs>
                <mask id="path-mask">
                  <g fill="white">
                    <path d="m218.46,54.25c1.88-.65.57-.64.89-.97.47-.08.93-.18,1.4-.27,1.18-.11,2.53-.33,3.66-.42,2.36-.11,6.33-1.83,7.78-3.09,1.17-.43,1.87-.81,2.27-1.2.79-.27,1.71-.73,2.58-1.17.87-.46,1.71-.85,2.37-.98.43.07,1.85-.43.92.44-.67.63-1.51,1.15-2.87,1.64-1.14.38-2.11.83-2.61,1.35l-1.03.43c-1.22.7-3.26.58-4,1.66-.2.07-.49.17-.74.25-.24.08-.44.15-.44.15-.81.99-3.33,1.54-5.46,2.1l-.08-.16c.56-.25.42-.25-.23-.08-.1.04-.21.08-.33.11l-.14-.23c.36-.12.89-.24.85-.35,0-.02-.28,0-.41.05-.61.18-.41.22-.45.31l-2.05.74c-.17.06-.34.11-.52.15.22-.2,1.9-.83.35-.54-1.65.26-2.13.64-2.39.97-.24.33-.91.56-2.04.66-.19-.34-1.72.19-2.81.39l.03-.12c.97-.43.17-.27-.71-.1-1.24.03-1.27.42-2.01.59l-.16-.02h.18c-.02.23.48.41-1.71.78-1.36.23-2.51.54-2.2.84l-1.34.29-1.26-.2c.73-.15,1.04-.29,1.07-.44.85-.29.9-.44.02-.41-1.17.2-1.57.15-1.2-.14.18-.14.42-.32-.35-.19-.45.08-1.41.34-1.4.37.24.54-2.84,1.11-4,1.62-.24.11-.32.21-.48.32l-.19.2c-2.77.48-5.71.71-8.15,1.49-.62.2-1.52.18-2.16.17-1.15-.01-1.91.15-2.5.45l-5.4.37-.12-.17c-.18-.24-1.05-.27-2.14-.13-.84.11-.54.28-.59.42-2.98.4-5.96.76-9.1,1.06l.13.05c-.03.08.21.15-.38.22-.16.12-.22.25-.99.29.24-.42-1.27-.41-2.49-.4-2.64.03-5.7-.03-7.99.33-1.58.26-2.66.32-4.21.38-.94.03-.41.3-.48.46-3.01.15-6.03.27-9.04.36v-.32c.6-.2.45-.37.15-.57-.51-.34.25-.53,1.86-.55l1.42-.2c.85-.05,1.87-.02,2.24-.3l-1.56-.04c-.2-.14-1.12-.28.06-.45.63.15,1.26.16,1.9-.06l2.24-.08c.94.49,2.77.77,4.79.98,1.39-.41,3.44-.74,3.7-1.28,1.97-.05,3.94-.05,5.91-.35.06.17-.15.39.25.48.52.12-1.52.52.35.41,1.3-.08,1.03-.31.87-.5-.07-.09-.1-.4.76-.16,1.59.43,1.2-.3,2.54-.32.21.06.37.19.64.18.78-.03.75-.19.96-.31,2.52-.17,4.93-.64,7.62-.66,1.4,0,2.09-.53,2.47-.86,4.09-.42,8.18-.93,12.25-1.5,0,.09-.11.21.03.27.41.17-1.49.88.63.58,1.87-.26.2-.42.44-.66.07-.07.68-.19,1.05-.29,3.39-.84,7.1-1.4,10.64-2.07,1.04-.19,2.63-.89,3.54-.64.51.11,2.31-.08,4.23-.35,1.91-.3,3.94-.72,4.89-1.06Zm-11.78,2.15l-.36.2c.18-.02.39-.03.52-.07.13-.04.18-.1.27-.15-.15,0-.29.01-.44.02Zm-20.2,3.65c-.08,0-.19,0-.28.02.02.06.13.05.28-.02Z"/><path d="m220.09,4.3c4.64.18,9.13,1.09,13.71,1.6.5,1.12,3.5.81,5.42,1.22.34.37.24.71,2.33.76,1.27.04,3.04.49,4.61.88,1.2.47-2.89.52,1.75,1.28.65.23,1.6.43,1.57.8-.01.18.52.62,1.11.78.6.16,1.2.19,1.48.1.46-.14-.7-.48-1.02-.7-.63-.42-1.04-.85-1.56-1.24.45-.12,2.01.62,2.07.24.39.46,1.51.88,2.47,1.36.97.46,1.78.96,1.57,1.29-.2.31-1.71-.03-2.46.12-.78.13-3.27-.88-5.32-1.57-.91-.34-1.77-.74-2.71-1.01-.91-.25-1.98-.82-2.72-.66-.78.16,1.79.56,1.24.83-1.51-.06-3.05-.23-4.72-.7-.05-.61-.42-1.14-3.12-.9-2,.17-4.37-.94-6.33-.53l-.73-.06-1.36-.34c-2.24-.92-4.73-1.28-7.5-.96-1.56-.64-3.35-1.05-5.73-.92l-1-.08c.12-.04.2-.1.38-.12,1.34-.1,2.24-.27.92-.8-.35-.14-1.32-.35-1.16-.15.35.47-4,.22-.87,1.11-.86-.01-2.11-.22-2.13.19l-1.49-.14c-.03-.22,1.18-.35.18-.63-.79-.22-1.67-.19-2.35-.04l-.94-.09c-1.93-.22-2.01-.64-2.26-1.05-.14-.24-.58-.45-1.51-.53-.34-.03-.89.02-1,.09-.32.21.42.32,1.01.46,2.1.5-1.76.6.06,1.09-.49.34-1.68.22-2.79.14v-.26c.04-.25,1.73-.48-.03-.74-1.3-.2-2.23.05-2,.5l-1.71-.11-2.34-.52c-.64-.34-.95-.66-.36-.97.27-.14.22-.3-.53-.37-.9-.09-1.06.1-1.21.27l-1.26-.27v-.58c2.16.19,4.61.09,6,.92.53.32,1.34.21,1.49-.07.11-.2-.05-.45.88-.49,3.77-.22,7.63.04,11.55.71,2.34.94,7.34,1.38,10.42.86Zm24.21,4.8c-.25-.06-.51-.04-.76-.05.2.1.36.23.59.3.23.07.53.06.99.11-.37-.17-.59-.3-.82-.36Z"/><path d="m2.39,32.03c0,.82.04,1.4.03,1.92,0,.54-.01.98-.02,1.45.05.46-.54.41.31,1.63.73.94.85.51.96.19.12-.31.29-.55.44-.8.69,1.07,1.56,2.06,2.54,2.97-.18.21-.82.17.61,1.39,1.1.9,1.53,1.4,1.25,1.68-.26.09-1.62-.95-1.16-.17.16.27.62.8.99,1.05,1.24.85.63-.02,1.01.02.21.02.39,0,.66.08.53.16,1.87.92,1.51.41-.41-.58-1.55-.84-2.33-1.48l.31-.42c3.22,2.2,6.52,4.16,9.83,6.11-.81.23-1.49.67-4.2-1.31-.44-.33-1.23-.73-1.53-.65-.33.09.23.49.88.89.07.38.15.76.13,1.12l-1.05-.4.67.65c-2.53-.96-4.68-2.38-6.34-4.18-.3-.66-.99-1.7-2.15-2.27-1.12-.55-2.3-1.84-3.22-3.22-.96-1.37-1.58-2.83-2.34-3.59-.23-1.35-.29-2.8-.03-4.2.25-1.4.81-2.71,1.55-3.8.49.42,1.62-1.11,2.64-2.3.89-1.09,1.6-1.56,2.51-2.03.05.64-2.09,1.84-2.49,2.82-.16.32-1.4.91-1.39,1.61.01.41.88-.43,1.51-.8.64-.39,1.05-.75,1.67-1.56.78-1.02,1.91-2.05,3.19-2.15.38-.03.78-.28,1.16-.56.4-.26.77-.58,1.05-.81.98-.81.03-.45-.69-.23-1.16.31-2.26.79-2.33.27l.55-.57c.76-.07,1.68-.4,2.63-.91.97-.47,2.01-1.01,3.01-1.44.78-.3,2.46-1.29,2.2-.43-.07.18,2.25-.98,2.26-1.18.01-.4.67-.66,1.57-.94l.66-.22c1.18-.57,2.57-1.28,2.29-.41-.49.58-.47.57.61.37.48-.09,1.12-.17,1.25-.1.46.27-1.42.73-1.63,1.07-1.83.68-3.62,1.73-5.41,1.69-.47-.03-1.52.69-1.42.72.41.11-2,1.25-.16.79,0,.2-.18.31-.9.58-2.3.94-4.74,1.78-6.61,3.49-.53-.48-1.26-.08-1.97.58-.72.66-1.38,1.58-1.96,2.12-1.29,1.36-1.67,2.74-2.28,4.33-.13-.24-.2-.73-.32-.79-.06-.02-.18.06-.28.35-.11.29-.26.8-.24,1.59Zm2.39,7.21l-.39-.19c.1.15.21.33.32.43.09.09.19.1.29.14-.07-.13-.15-.26-.22-.38Z"/><path d="m247.24,11.93c-2.1-1.38-4.6-3.15-6.77-3.98-1.63-1.27-4.58-2.33-6.77-3.32-.62-.28-.88-.36-1.35-.5-1.45-.41-2.02.08-.52.74,1.58.71,2.02,1.05,2.35,1.4.34.36,1.03.88,2.64,1.27.18.05.8.3,1.06.44,2.46,1.36,4.89,2.55,7.17,4.12,2.6,1.81,5.06,3.86,6.98,6.34,1.94,2.44,3.17,5.46,3.09,8.54h.22c-.01-.54,0-.96.08-1.09-.03-.47-.17-.97-.24-1.45-.08-.48-.28-.92-.38-1.3-.2-.91-.77-1.8-1.18-2.7-.26-.42-.53-.82-.75-1.22-.22-.4-.41-.77-.61-1.1-.11-.2-.43-.68-.87-1.3-.48-.59-1.1-1.31-1.77-2-1.36-1.36-2.94-2.58-3.51-2.93-.19-.11-.42-.2-.4-.15.11.4-.84-.4-1.27-.76-.51-.44-.84-.72-1.29-1.1-.26-.22-1.2-.69-1.07-.72.09-.03.64.22,1.35.63,1.5.82,3.43,2.27,3.82,2.13Z"/><path d="m65.46,5.56c-1.66.34-3.65.57-4.67,1.21.49-.01,1.13.04,1.45-.05,1.27-.34,2.45-.71,3.46-.38.83.28-.23.63-.98,1-1.32.65-2.42.61-3.59.45-.73-.1-1.92.01-2.47.26-1.88.83-2.83.47-4.03.41-.75.1-1.68.33-1.92.07-.05-.05.27-.25.41-.27.98-.14,1.06.11,1.51.2l1.94-1.29c-1.5-.53-3.23.25-4.89.7.09.25.02.5-1.19.76.05.17-.02.38.18.52.62.41-1.4.69-1.96,1.04-.15.1-.55.23-.7.12-.3-.23.35-.48,1.07-.77.41-.17.03-.45,0-.68-.62.37-2.6.33-2.69.88.26.02.94-.08.31.19l-.29-.19c-.99.07-.49-.51-1.69-.27-.42.09-.69.52-1.03.8.05.15-.07.32-.63.51.04.05.09.1.14.15l.64-.11c1.11.07,4.47-.24.04.87-.29.08-.38.32-.56.49,1.92-.42,3.89-1.05,5.74-.84.23.03,2.74-.89,4.47-1.2.44-.3,1.03-.44,2.07-.64,3.05-.59,6.32-.58,9.18-1.55,1.26.41,3.29-.54,4.58-.38,1.26.15,2.25.11,3.73-.36,2.01-.64,2.95-.47,3.06.12l3.39-.46c-.2-.35.71-.68,1.36-1.02-1.61-.3-3.29-.59-.03-1.41.42-.11.12-.23-.31-.26-1.29.51-3.31.22-4.4.67-2.51,1.04-2.08.26-2.46-.04l-.72.1c-.04.22-.42.39-1.24.49-.06.28-.6.44-1.4.57l.1.29c-.79.08-.69-.09-.7-.23-1.59-.1-3.93.16-4.26-.47Z"/><path d="m244.07,44.27c.74-.53,1.21-.95,1.52-1.33.64-.81,1.42-1.74-.17-.8-2.53,1.37-2.31,1.91-3.52,2.81-.81.44-1.66.8-2.49,1.19-.66.13-1.51.52-2.37.98-.87.45-1.8.9-2.58,1.17l-.15-.27c.73-.31,1.47-.73,2.18-1.1.7-.4,1.35-.75,1.94-.9,1.47-.4,2.79-1.24,4.21-2.23.71-.47,1.37-1.02,2.06-1.52.66-.54,1.3-1.08,1.95-1.65,1.29-1.15,2.51-2.33,3.64-3.6,2.23-2.53,4.09-5.46,4.7-8.75.11-.1.3-.07.17.77-.1.43-.18.86-.34,1.27l-.31.61c-.11.18-.2.36-.23.57-.82,1.99-1.54,3.01-1.72,3.48-.21.45.09.35.75-.23.04-.04.06-.04.09-.06.92-1.75,1.57-2.81,2.1-3.97.54-1.14,1-2.41.86-4.43-.01-.21-.03-.43-.04-.65-.04-.22-.07-.44-.11-.66-.09-.44-.09-.9-.22-1.28-.2-.79-.32-1.45-.22-1.73.33,1.05.99,2.21.84,2.62-.15.74.07,1.89,0,3.04-.12,2.04-.72,4-1.62,5.78-.91,1.77-2.07,3.39-3.38,4.92-1.89,2.18-4.03,4.06-6.39,5.8-2.37,1.69-4.9,3.14-7.48,4.43-1.02.52-2.65,1.36-2.87,1.05.51-.52,1.48-.97,2.61-1.35,1.36-.49,2.2-1.01,2.87-1.64,1.35-.61,2.68-1.29,3.73-2.32Zm4.87-5.04c.1.06.56-.04,1.29-.92.72-.83,1.6-2.18,1.52-2.31-.13-.26-.8,1.01-1.2,1.33-.62.77-1.92,1.7-1.61,1.89Zm2.97-1.7c.23-.28.55-.69.8-1.03.23-.36.38-.67.32-.75-.09-.09-.43.25-.91.85-.51.66-.98,1.32-1.68,2.13.65-.47,1.07-.77,1.47-1.19Zm-3.53,2.52l-.31.27h.07c.23-.21.23-.24.24-.27Z"/><path d="m182.83,1.37c-1.73.07-3.07-.04-5-.32-2.8-.43-6.33-.35-9.53-.39-1.6-.02-3.31-.33-4.82-.05l-.03.54c.35.26,1.24.68.16.74-3.2.19-2.8,1.18-5.02,1.57,1.18.01,2.22-.08,3.15-.25.12,0,.22-.02.3-.04.13-.24-.36-.58.92-.67,1.01-.06,1.72.07,1.85.39l.16.08-.15-.08c-1.48-.22-1.54.35-2.77.29-.08.03-.11.06-.09.09,1.39.59,3.12.11,4.65.24,1.98-.5,4.05-.4,6.12.15.62.16,1.02.38,1.73.08,1.1-.46,2.65-.2,4.15.04,2.17-.29,1.2-.84.7-1.36-.13-.13-.57-.33.19-.38.65-.04,1.02.11,1.28.27l.77.02c-.38-.43,1.67-.53,1.27-.96Z"/><path d="m43.8,57.96c1.28.56,2.64,1.07,4.55,1.17,2.41-.07,4.88.27,7.45,1.09.53-.14,1.48-.06,2.33-.02l1.38.35c-.14-.18-.36-.52-.42-.53-2.57-.27-4.18-1.17-6.63-1.52-1.78-.27-3.41-.57-3.78-1.23-.01-.02-.19-.06-.29-.09-.34,0-.69,0-1.04,0,.18.68-1.6.27-2.95-.06-4.43-1.08-9-1.79-13.35-3.44-2.61-1.01-2.8-.9-1.32-1.17.45-.08.77-.22,1.14-.33-2.56-.63-5.29-1.96-7.5-2.13.44.23.84.51,1.32.7.79.32,2.05.39,2.27.87.09.21-1.26.04-2.12-.1-.46-.06-1.24-.42-1.87-.66-.53-.2-1.09-.45-1.4-.41-.41.04.08.41.59.72.8.48.88.96,2.24,1.45,1.57,1,3.42,1.86,5.77,2.36,2.77.26,5.82,1.1,8.93,1.84,0-.15.17-.3.73-.16.99.23.3.33.49.51,1.43-.21,2.9-.53,3.51.81Z"/><path d="m254.81,30.31l-.31.61c-.03.1-.06.19-.1.29l-.12.28c-.82,1.99-1.54,3.01-1.72,3.48-.21.45.09.35.75-.23.04-.04.06-.04.09-.06.92-1.75,1.57-2.81,2.1-3.97.54-1.14,1-2.41.86-4.43-.01-.21-.03-.43-.04-.65-.04-.22-.07-.44-.11-.66-.09-.44-.09-.9-.22-1.28-.2-.79-.32-1.45-.22-1.73-.29-.55-.68-1.29-1.05-2.01-.42-.68-.89-1.29-1.22-1.6.45,1.06-.36.27-.7-.2-1.07-1.33-.23-.67-.27-.95,0-.06.05-.04.07-.05-.16-.3-.39-.62-.65-.96-.28-.31-.61-.63-.94-.95-.64-.66-1.38-1.23-1.89-1.78-.73-.55-1.39-1-1.87-1.52-.39.13-2.32-1.32-3.82-2.13-.71-.41-1.26-.66-1.35-.63-.13.03.81.49,1.07.72.45.38.78.66,1.29,1.1.44.36,1.38,1.17,1.27.76-.01-.04.21.04.4.15.57.35,2.15,1.56,3.51,2.93.67.69,1.29,1.41,1.77,2,.44.62.76,1.1.87,1.3.19.32.39.7.61,1.1.22.39.49.79.75,1.22.41.89.98,1.78,1.18,2.7.09.37.29.81.38,1.29.07.48.21.99.24,1.45.1.91,0,.95-.08,1.09h-.22c-.02.44-.1.87-.14,1.3.11-.1.3-.07.17.77.01.17.07.31.03.53-.13.7-.28.67-.37.74Z"/><path d="m152.42,3.19l-.04-.22c-.55-.43-.99-.87-1.68-1.28-1.48-.88-4.23-.99-6.47-.28-.28.09-.42.24-.76.28-1.28.19-1.36.82-.09,1.06.53.1.53.1.83-.31.14-.19.1-.44,1.07-.45.29,0,.62.23.93.35,1.81.16,1.69.61,2.1.98-2.07.22-4.18.17-6.31.05.88-.6-1.21-.73-2.21-1.03l-1.08.37-2.17.19s-.04-.1-.03-.15c1.32-.67-.74-1.25-.69-1.88l1.32-.03s0,.07.07.09c.93.2.77.83,1.91.71,1.68-.17-.2-.62.12-.95l.79-.42c3.19.04,6.46-.11,9.58.23h1.36s.05.38.05.38l-.29.1.38-.07h.85c.43.04,1.04.2,1.03-.09l1.38-.16-.19.06-.21-.06c.94.44,3.29.43,3.94,1.12.31.33,3.28-.22,4.9-.46.27-.04.44-.12.66-.18.35.26,1.24.68.16.74-3.2.19-2.8,1.18-5.02,1.57-2.14.19-4.19.12-6.16-.25Zm-9.09-2.07c-.06-.1-.21-.2-.33-.3-.09.05-.25.11-.26.16,0,.08.1.17.17.28.2-.06.43-.1.42-.14Z"/><path d="m50.48,8.63c1.21-.26,1.28-.51,1.19-.76l-1.15.15-.88.18c-2.22.27-4.37.49-6.65,1.21-.93.3-2.3.58-3.47.65-1.28.06-3.63.57-4.02.73-4.05,1.6-8.15,2.34-12.22,3.31-1.5.36-2.32.95-3.51,1.36-3.02,1.1-6.01,2.34-8.91,3.89-2.89,1.59-5.69,3.38-8.05,6.04-.5.56-1.04,1.18-1.1,1.68.49.42,1.62-1.11,2.64-2.3.89-1.09,1.6-1.56,2.51-2.03.23-.49,1.02-.95,1.68-1.41l.55-.57c.76-.07,1.68-.4,2.63-.91.97-.47,2.01-1.01,3.01-1.44.78-.3,2.46-1.29,2.2-.43-.07.18,2.25-.98,2.26-1.18.01-.4.67-.66,1.57-.94.16-.24.39-.31.67-.22,1.16-.56,2.56-1.28,2.27-.41l1-.3c.96-.59,1.98-1.15,3.53-1.23,1.09-.76,2.14-1.63,3.93-1.13.65-.15,1.3-.31,1.95-.45.32-.53,1.66-.69,2.71-.95,1.54-.37,1.34,0,1.5.22,1.64-1.03,3.48-1.21,5.35-1.13.34-.28.61-.71,1.03-.8,1.2-.25.7.33,1.69.27.08-.54,2.05-.5,2.67-.87l1.4-.23Z"/><path d="m124.06.75c-.99-.31-2.07-.47-3.51-.06.84.27,1.66.56.69.96-.76.31-1.36-.16-2.19,0-1.11-.56-1.72-.18-2.43.18-.81.4-1.61.52-2.19.05-1.96.21-1.63.66-1.96,1.04.31.4,1.9.47,2.68.75,1.32.32,3.04.33,4.68.1,1.23-.17,2.3-.24,3.49-.18,1.2-.26-.07-.9,2.02-.97,1.56-.05,1.31.39,1.56.66l1.38-.08c-.1-.27-.3-.53-.28-.8,0-.17.65-.26,1.24-.27.52,0,.91.09.62.22-.44.2-1.64.39-.36.56.32.04,1.44-.31,2.19-.49.24-.07.36-.24.85-.08l-.87.07c.54.74,2.26.57,4.07.33.55-.63-2.21-.89-2.02-1.47-2.98.39-2.95-.1-2.73-.66-1.2.12-2.19-.26-3.42-.04.19.63-1.12,1.23-3.18,1.21-2.86-.03.91-.59-.09-.87-.14-.04-.16-.11-.24-.16Z"/><path d="m118.91,64.63l1.13.02,2.18-.15.8-.02s-.04-.09-.07-.14c-.47-.06-.7-.14-.3-.25.06-.02.25-.03.32-.02.62.1-.04.18-.04.27,1.14.03,1.97-.06,2.51-.3,1.68-.77,4.35-.15,4.29.05-.17.59,1.63.56,2.94.69,1.64-.22,3.27-.44,4.93-.66.73-.1,2.13-.06,1.73-.36-.33-.25-1.86-.03-2.24-.11-1.2-.22-3.03.54-3.71-.1-.91-.04-1.98-.02-2.13-.32-.77,0-1.58.03-2.07-.15-1.68-.04-3.37-.08-5.04-.16-3.29-.16-6.16.44-9.48.14v.37c.81,0,1.66-.01,2.09.23-.06.21-.09.42-1.34.41l.58.49,2.93.07Z"/><path d="m80.54,4.18c.43.03.73.15.31.26-3.25.82-1.58,1.11.03,1.41l1.27-.18-.08-.54-.17-.06.16.06c1.18.06,3.64-.62,3.53.19,1.91-.26,3.72.24,5.8-.49.3-.11,1.66-.02,1.75.28l2.03-.11c.84-.52,3.38-.92,2.83-1.56-.03-.03.43-.12.67-.19,1.59.95,2.12-.44,3.31-.36-.01-.06-.01-.12-.02-.18-3.55-.71-4.31.28-5.47,1.01l-.26.07.28-.06c-.7-.03-1.99.01-2.02-.08-.47-1.32-2.93-.24-4.97.05-2.13.29-4.56.81-6.51.43-.95-.06-.86-.54-2.47-.31v.38Z"/><path d="m191.01,3.2l-1.26-.27c-3.11-.32-3.03-.91-2.67-1.52-1.01-.28-.98.08-1.49.11.87.9-.7,1.54-3.53,1.5.63.47.65.91-.07,1.31.69.48,1.3.2,1.93.07-.41-.12-.5-.27.06-.26.77,0,.63.21.7.35,1.61.71,4.05.46,5.8.54,2.86.16,5.97.62,8.71.36v-.26s-1.98-.25-1.98-.25c-.65.29-1.2.08-1.76-.11l-2.34-.52c-.19.24-.35.49-1.62.37-.86-.08-1.34-.29-1.73-.51-.93-.52.39-.69,1.25-.93Z"/><path d="m133.37,63.56c.68.64,2.51-.12,3.71.1.38.07,1.91-.15,2.24.11.41.31-1,.27-1.73.36-1.66.22-3.29.44-4.93.66l.6.28h.8c2.22-.49,5.05-.28,7.55-.47.59-.2.44-.37.14-.57-.51-.34.25-.53,1.86-.55l.03-.16c.02-.22.49-.33,1.48-.33.2,0,.4-.02.59-.04-.2-.14-1.12-.28.06-.45l-.06-.16c-3.94.03-7.87-.07-11.82.21.64.35,1.81.71-.52,1.01Z"/><path d="m76.7,62.76c.82.06.68.75,2.18.37,1.12-.28,2.11.34,3.2.29.36-.62,1.82-.37,3.35-.02,1.29.3,2.38.29,3.39.13,1.04-.16,1.51-.39.45-.76-1.45-.12-2.77-.47-4.34-.45-4.89.04-5.43-.03-9.26-.92-.09-.02-.27-.06-.3-.05-2.04.43-4.95-.79-7.02-.47.16.32.14.65,1.49.95.07-.21.4-.2,1.33-.06,1.97.28,3.8.61,5.54.99Z"/><path d="m133.37,63.56c2.33-.3,1.15-.66.52-1.01-1.54-.16-2.56-.47-4.76,0-1.58.35-4.75-.03-7.28-.02-3.41,0-6.99.08-10.42-.25-1.5-.14-2.51-.14-2.35.31.15.45,1.37.47,2.74.43l2.84.05c3.33.31,6.19-.3,9.48-.14,1.66.08,3.36.12,5.04.16.41-.08.86-.22,1.21-.21.77.03.84.21.87.37.14.3,1.22.28,2.13.32Z"/><path d="m96.49,3.71c1.17-.73,1.92-1.72,5.47-1.01l2.76-.46c.73-.19,1.49-.38,1.28-.66-1.34-.38-3.02.11-4.45.23-5.45.47-10.92.73-16.37,1.59-1.45.23-1.64.43-2.18.7,1.95.38,4.38-.13,6.51-.43,2.04-.28,4.5-1.36,4.97-.05.03.09,1.32.06,2,.08Z"/><path d="m30.86,52.17c-.38.11-.69.25-1.14.33-1.48.26-1.29.15,1.32,1.17,4.35,1.64,8.92,2.35,13.35,3.44,1.35.34,3.13.74,2.95.06-2.42-1.13-5.18-1.62-8.27-2-2-.24-3.44-.77-2.9-1.34-2.02-.22-3.49-1.15-5.31-1.65Z"/><path d="m68.34,60.88c2.08-.32,4.98.9,7.03.47.02,0,.21.03.3.05,3.83.89,4.37.96,9.26.92,1.57-.02,2.88.32,4.34.45-.58-.59-1.21-1.16-3.58-1.61l-1.77.2c-.67.3-1.66.18-3.06,0-1.71-.18-3.77-.4-5.25-.56-2.97-.39-5.69-.1-8.48-.81l.67.8c.19.02.38.05.56.09Z"/><path d="m103.4,62.66c-.92.48-1.67.93,1.93,1.14,1.16.06.42.25.33.38-1.79.25-3.74-.03-4.99-.3-3.18-.71-3.94-.29-4.66.28h-.66c-2.1-.42-5.55-.79-2.21-1.45.6-.12.61-.41.89-.62,1.81.1,3.63.19,5.44.29,1.17.08,2.06.1,2.19-.23l2.02.14c-.08.13-.06.27-.27.38Zm-5.81.19c-.07-.02-.19-.03-.37.02.1.01.2.02.37-.02Z"/><path d="m251.55,10.01c.39.46,1.51.88,2.47,1.36.97.46,1.78.96,1.57,1.29-.2.31-1.71-.03-2.46.12-.78.13-3.27-.88-5.32-1.57-.91-.34-1.77-.74-2.71-1.01-.91-.25-1.98-.82-2.72-.66-.78.16,1.79.56,1.24.83,1.48.66,3.18,1.1,4.87,1.65,1.68.54,3.35,1.21,4.61,2.22.79.63.85.06,1.59.4.81.23-2.12-1.86.5-.51.56.02,1.44.35,2.17.66.73.3,1.33.58,1.46.16-.42-.55-1.08-1.14-1.37-1.49-.34-.46-.4-.86-.72-1.27-.16-.22-.39-.41-.76-.59-.36-.19-.87-.36-1.58-.47-.01,0-.2-.17-.46-.37-.26-.19-.59-.43-.85-.58-1.56-.89-3.19-1.4-4.69-1.55.25.84,2.33.78,3.17,1.38Z"/><path d="m257.67,16.9c.46.58.67,1.09.67,1.49,0,.25.04.53.04.82.05.29.04.58.06.86.03.58,0,1.08-.03,1.63.01.98-.57,2.1-.35,2.59.19.44.68.46,1.47-.17.38-.33.83-.84,1.13-1.61.31-.76.48-1.78.25-2.89-.21-1.06-.51-2.41-1.14-3.5-1.18-.8-1.13-.06-.65,1.16.46,1.25.99,2.23,1.35,3.2.04.17.16.69.05,1.14-.05.46-.27.79-.4.66-.28-.2-.82.46-.93-.15-.09-.35-.22-.54-.21-1.32-.02-.81.01-1.22.22-1.4.1-.09.22-.19.2-.39,0-.2-.05-.54-.35-1.04-.58-.98-1.15-1.29-1.38-1.08Z"/><path d="m67.11,59.99c2.8.71,5.51.42,8.48.81,1.48.16,3.54.38,5.25.56,1.4.18,2.39.3,3.06,0-2.33-1.04-5.95-.89-8.9-1.23-4.4-.5-8.95-.67-13.15-1.8l-.38.18c.6.35,2.79.96-.63.6-1.12-.12-1.79.08.11.45,2.04.15,3.61-.36,6.15.44Z"/><path d="m76.13,7.32c-.12-.58-1.05-.75-3.06-.12-1.48.46-2.47.51-3.73.36-1.29-.16-3.32.79-4.58.38-2.86.96-6.13.96-9.18,1.55-1.04.2-1.63.34-2.07.64,2.89.03,5.93-.44,9.21-1,2.09-.37,4.21-.7,6.53-.79,2.02-.08,4.56-.68,6.88-1.02Z"/><path d="m210.28,6.11l-1.49-.14-2.17-.67c-.31-.03-.63-.06-.94-.09l-3.09.15c1.73,1.08,5.34,1.05,7.92,1.3,5.11.57,10.31.76,15.46,1.21l1.39-.04c-2.24-.92-4.73-1.28-7.5-.96-2.21-.02-4.56.09-5.73-.92l-1-.08-.71-.02c0,.14.02.2.04.26l.2.16-.48-.11-1.92-.05Z"/><path d="m158.4,62.06c1.97-.05,3.94-.05,5.91-.35,1.57-.12,3.07-.2,4.25-.03,1.05-.09,1.59-.14,2.12-.18,2.52-.17,4.93-.64,7.62-.66,1.4,0,2.09-.53,2.47-.86-7.55.69-15.11,1.2-22.67,1.82l.29.25Z"/><path d="m105.66,64.17c-1.79.25-3.74-.03-4.99-.3-3.18-.71-3.94-.29-4.66.28,5.28.46,10.57.97,15.88.63,1.28-.08,2.07.29,3.11.26,1.44-.04,3.64.2,3.92-.41l-2.93-.07-4.81-.25-5.5-.14Z"/><path d="m210.24,56.53c-.02.23.48.41-1.71.77-1.36.23-2.51.54-2.2.84,5.63-.85,11.26-1.96,16.86-3.97l-.08-.16-.23-.08c-.1.04-.21.08-.33.11-.93.36-1.85.71-2.21.51-.17.06-.34.11-.52.15l-2.04.43c-.24.33-.91.56-2.04.66-1.2.27-2.37.87-3.52.86-.38,0,.13-.26.71-.47l.03-.12-.71-.1c-1.24.03-1.27.42-2,.58Z"/><path d="m95.34,64.15c-2.1-.42-5.55-.78-2.21-1.45.6-.12.61-.41.89-.62-1-.11-.66-.27-.71-.42l-1.35-.04c.4.39-1.35.42-1.42.73l.9.14c-.07.02-.19.05-.2.05-.25-.06-.48-.12-.72-.18-1.18-.31-.42-.58-.66-.87-1.33-.5-2.71-.67-4.17-.33,2.36.45,3,1.03,3.58,1.61,1.06.37.59.6-.45.76-1,.16-2.09.18-3.39-.13-1.53-.35-2.98-.61-3.35.02,3.47.39,7.05.35,10.47.85,1.35.19,2.08.05,2.79-.13Z"/><path d="m60.96,59.56c-1.9-.37-1.23-.57-.11-.45,3.42.35,1.23-.26.63-.6-.63.25-1.66-.15-2.48-.22.06.23-.61.44-1.1.28-2.41-.82-4.28-.4-6.42-.84-1.2.08-1.22-.17-1.27-.4-1.11-.49-1.44-.3-1.83-.14.1.03.28.07.29.09.38.65,2,.96,3.78,1.23,2.45.35,4.06,1.25,6.63,1.52.06,0,.28.35.42.53l2.63.69,1.39.39.23-.46c-3.02-.5-3.12-1.05-2.79-1.6Z"/><path d="m24.38,52.61c-1.36-.49-1.44-.97-2.24-1.45-.51-.31-1-.67-.59-.72.31-.03.88.21,1.4.41.63.25,1.41.6,1.87.66.86.13,2.21.31,2.12.1-.22-.49-1.48-.55-2.27-.87-.48-.2-.88-.47-1.32-.7-.49-.51-1.14-.47-1.7-.71-.99-.29-2.08-.57-1.94-.17.56,1.59-2.36.23-5-1.05.19.4,1.6,1,1.55,1.35,1.12.45,2.15.99,3.17,1.54,1.06.55,2.12,1.11,3.28,1.53,1.65.63,1.39.21,1.66.08Z"/><path d="m51.48,57.72c2.15.44,4.01.02,6.42.84.49.16,1.16-.05,1.1-.28-4.32-.69-8.62-1.37-12.92-2.12-2.16-.38-4.39-.96-6.47-1.58-1.25-.38-2.31-.55-3.44-.76-.55.57.9,1.1,2.9,1.34,3.1.38,5.86.86,8.27,2,.35,0,.7,0,1.04,0,.38-.16.71-.35,1.82.14l1.27.4Z"/><path d="m105.66,64.17l5.5.14.06-.33c-.75-.03-1.41-.1-1.29-.3.12-.2.88-.18,1.57-.16.26-.15.28-.33.3-.5-1.37.04-2.59.03-2.74-.43-1.74-.26-3.56-.31-5.4-.31-.08.13-.06.27-.27.38-.92.48-1.67.93,1.93,1.14,1.16.06.42.25.33.38Z"/><path d="m104.73,2.24l-2.76.46v.19s.17.06.17.06l-.15-.06c-1.2-.09-1.72,1.31-3.31.36-.23.06-.69.16-.67.19.55.63-1.99,1.03-2.83,1.56.17.2.78.11,1.33.07.7-.36,1.86-.37,2.89-.48.77.05,1.18-.74,1.62-.26.47.52,1.7.06,2.41.14,1.17-.46,1.74-.29,2.17.01.72.02,1.61.32,2.02-.22l.29-.32c-.85-.07-1.3-.34-2.48-.24-.82-.06-.52-.3-.61-.48-3.7-.04.44-.69-.08-.98Z"/><path d="m220.75,53.01c1.18-.11,2.53-.33,3.66-.42,2.36-.11,6.33-1.83,7.78-3.09-1.58.63-3.33,1.3-2.38.45-3.08,1.03-6.18,1.93-9.05,3.07Z"/><path d="m104.81,3.23c-3.7-.04.44-.69-.08-.98.73-.19,1.49-.38,1.28-.66,2.07-.21,4.31-.9,6.25-.31.1.03.13.07.1.12-2.74.74-2.9,1.58-2.7,2.41l-1.76.14c-.85-.07-1.3-.34-2.48-.24.06-.2.07-.39-.61-.48Zm2.15-.77c-.45-.06-.86.13-.71.23.3.19-1.08.71,1.03.54,1.05-.17.95-.3.17-.41-.15-.13-.16-.32-.5-.36Z"/><path d="m56.56,7.17c.64-.09,1.23.18,1.9-.23,1.51-.92,1.75-.36,2.31-.17.49-.01,1.13.04,1.45-.05,1.27-.34,2.45-.71,3.46-.38.83.28-.23.63-.98,1-1.32.65-2.42.61-3.59.45-.73-.1-1.92.01-2.47.26-1.88.83-2.83.47-4.03.41.64-.43,1.29-.86,1.94-1.29Zm7.75-.45s-.24.06-.25.08c-.02.05.02.09.04.14l.52-.15c-.1-.03-.19-.05-.31-.07Z"/><path d="m197.21,59.57c-2.77.48-5.71.71-8.15,1.49-.62.2-1.52.18-2.16.17-1.15-.01-1.91.15-2.5.45,2.41.18,5.24-.39,7.89-.85,3.43-.62,6.74-.64,10.15-1.59.5-.13,1.11-.25,1.32-.41-.75-.15-1.96-.03-3.3.4-1.62.53-2.44.46-3.24.35Z"/><path d="m257.67,16.9c.23-.21.8.1,1.38,1.08.3.51.34.84.35,1.04.02.2-.11.3-.2.39-.21.17-.25.59-.22,1.4-.01.78.12.97.21,1.32.12.61.65-.05.93.15.14.13.36-.21.4-.66.11-.44-.01-.96-.05-1.14-.36-.98-.89-1.95-1.35-3.2-.47-1.22-.53-1.95.65-1.16-.2-.47-.46-.93-.94-1.16-.14.42-.73.14-1.46-.16-.73-.32-1.61-.64-2.17-.66.5.51.87,1.03.73,1.28.63.44,1.22.94,1.75,1.49Z"/><path d="m43.68,10.27c-1.88-.08-3.71.1-5.35,1.13-.93.75-4.15,1.4-4.55,2.21l.39.54c1.2-.09,2.25-.38,3.14-.86.13-.14-.35-.21.35-.43l.29.28c.2,0,.42-.04.64-.11,2.73-.71,1.96-1.59,4.47-2.27.56-.19.68-.36.63-.51Z"/><path d="m133.26,65.06l-.6-.28c-1.3-.14-3.11-.11-2.94-.69.05-.19-2.61-.82-4.29-.05-.53.25-1.37.33-2.51.3.05.04.07.09.09.13l-.06.49c3.39.21,6.76.57,10.3.09Z"/><path d="m165.81,63.77c.24-.42-1.27-.41-2.49-.4-2.64.03-5.7-.03-7.99.33-1.58.26-2.66.32-4.21.38-.94.03-.41.3-.48.46,3.32-.03,6.55,0,10.02-.49,1.5-.2,3.41-.2,5.14-.3Z"/><path d="m82.15,5.67l-1.27.18c-.65.34-1.56.67-1.36,1.02,3.45-.12,7.07-.97,10.59-.77,1.42.08,1.78-.69,3.03-.99-.09-.3-1.45-.39-1.75-.28-2.08.74-3.89.23-5.8.49-1.12,1.23-2.3.07-3.44.34Z"/><path d="m24.71,14.94l-1,.3c-.49.58-.47.56.61.37.48-.09,1.12-.17,1.25-.1.46.27-1.42.73-1.63,1.07l1.5-.07c.73-.18,1.46-.38,2.2-.53,1.41-.63,2.82-1.28,4.25-1.87-1.59.11-2.38.15-2.34-.06.04-.22.9-.67,2.63-1.47-1.79-.5-2.84.36-3.93,1.13-1.17.41-1.46,1.52-3.53,1.23Z"/><path d="m14.72,48.11c2.64,1.29,5.56,2.64,5,1.05-.14-.41.95-.12,1.94.17-.03-.69-1.55-.83-2.31-1.29-.81.23-1.49.67-4.2-1.31-.44-.33-1.23-.73-1.53-.65-.33.09.23.49.85.87l.29.12-.27-.09.23,1.14Z"/><path d="m112.25,1.28c.1.03.13.07.1.12.32.26,2.46-.01,2.08.48.58.47,1.38.35,2.19-.05.71-.35,1.32-.73,2.43-.18.83-.15,1.43.32,2.19,0,.96-.4.14-.69-.69-.96-2.81.04-5.82-.36-8.29.59Z"/><path d="m153.95.65c.94.44,3.29.43,3.94,1.12.31.33,3.28-.22,4.9-.46.27-.04.44-.12.66-.18l.03-.54c-2.48-.47-4.81.19-7.26-.08l-1.81.04c-.24,0-.39.04-.45.1Z"/><path d="m209.35,55.67c.51.11,2.31-.08,4.23-.35,1.91-.3,3.94-.72,4.89-1.06,1.88-.65.57-.64.89-.97-1.2.37-2.38.87-3.6.89-.26,0-1.12.17-1.17.2-1.45.83-3.52.85-5.23,1.29Z"/><path d="m251.55,10.01c-.84-.61-2.92-.55-3.17-1.38-.87-.62-1.91-.71-2.92-.83-1.75.09-4.27-.7-6.25-.69.34.37.24.71,2.33.76,1.27.04,3.04.49,4.56.85h.9s.23.19.23.19c-.37-.06-.73-.12-1.09-.16,1.2.47-2.89.52,1.75,1.28.24-.22-.23-.81,1.58-.26.45-.12,2.01.62,2.07.24Z"/><path d="m167.18,63.26c-.03.08.21.15-.38.22,4.2-.24,8.66-.16,12.19-1.44l-.12-.17-2.73.28c-2.98.4-5.96.76-8.97,1.11Z"/><path d="m239.22,7.12c1.98-.02,4.5.78,6.25.69-.08-.64-1.72-.54-2.49-.74-1.49-.41-3.04-.67-4.6-.84-1.54-.15-3.06-.23-4.58-.33.5,1.12,3.5.81,5.42,1.22Z"/><path d="m189.76,2.36c2.15.19,4.6.09,6,.92.53.32,1.34.21,1.49-.07.11-.2-.05-.45.88-.49.34-.57-1.49-.53-2.44-.62-2.16-.2-4.35-.32-6.53-.48.16.24-.4.49.61.73Z"/><path d="m178.61,3.76c-1.5-.24-3.05-.5-4.15-.04-.71.3-1.11.08-1.73-.08-2.08-.55-4.15-.65-6.12-.15,1.93.59,4.36.58,6.74.61,1.75.02,3.49.05,5.23.07l.04-.41Z"/><path d="m3.23,30.87c-.13-.24-.2-.73-.32-.79-.06-.02-.18.06-.28.35-.11.29-.26.8-.24,1.59,0,.82.04,1.4.03,1.92,0,.54-.01.98-.02,1.45.05.46-.54.41.31,1.63.73.94.85.51.96.19.12-.31.29-.55.44-.8-.52-.88-.9-1.81-1.07-2.75-.16-.94-.1-1.89.18-2.8Z"/><path d="m130.99.61c-.22.55-.24,1.05,2.73.66l2.08-.4,1.32-.03c.56-.19,1.34-.16,2.1-.16l.79-.42c.06-.38-.86-.27-1.59-.22-2.48.15-4.95.36-7.43.55Z"/><path d="m25.43,16.51l-1.5.07c-1.83.68-3.62,1.73-5.41,1.69-.47-.03-1.52.69-1.42.72.41.11-2,1.25-.16.79,2.73-1.28,6.04-1.72,8.48-3.27Z"/><path d="m131.7,2.42c-.75.17-1.87.53-2.19.49-1.28-.17-.08-.37.36-.56.29-.13-.1-.23-.62-.22-.6,0-1.23.09-1.24.27-.01.27.18.53.28.8,2.51.48,5.34.3,8.15.18l.08-.47s-.04-.1-.03-.15h-.75c-1.81.23-3.53.4-4.05-.33Z"/><path d="m43.05,10.77c-2.51.68-1.75,1.56-4.47,2.27,1.51.14,3.01.21,4.72-.87.18-.17.27-.42.56-.49,4.43-1.12,1.07-.8-.04-.87-.08.15.07.29-.73.44l.1-.33c-.05-.05-.1-.1-.14-.15Z"/><path d="m7.91,44.16c-.3-.66-.99-1.7-2.15-2.27-1.12-.55-2.3-1.84-3.22-3.22-.96-1.37-1.58-2.83-2.34-3.59.59,2.21,1.83,4.01,3.2,5.46,1.38,1.46,2.92,2.63,4.51,3.62Z"/><path d="m62.13,61.23l-2.63-.69-1.38-.35c-.05.42-1.21.22-2.33.02-2.57-.82-5.03-1.16-7.45-1.09.19.22.87.54,1.37.56,4.05.27,8.44,1.62,12.41,1.53Z"/><path d="m238.9,9.67c-.05-.61-.42-1.14-3.12-.9-2,.17-4.37-.94-6.33-.53,2.73,1.14,6.28,1.04,9.45,1.44Z"/><path d="m149.91,62.35c.94.49,2.77.77,4.79.98-.42-.5.59-.97,1.93-1.43-1.41-.2-2.64.1-3.93.25-.67.44-1.81.21-2.79.2Z"/><path d="m209.67,3.43c2.34.94,7.34,1.38,10.42.86-2.93-.62-5.94-.6-8.92-.87-.11.36-.82.15-1.5,0Z"/><path d="m70.32,5.97c.8-.13,1.34-.29,1.29-.53h-.89s-.22-.19-.22-.19l.66-.02.57.16c.82-.1,1.2-.27,1.24-.49-2.52.24-4.78-.09-7.51.65.34.63,2.68.37,4.26.47l.61-.06Z"/><path d="m39.08,56.81c-3.1-.74-6.15-1.58-8.93-1.84.94.63,1.89,1.01,3.52,1.14,2.07.13,4.43,1.11,6.65,1.44l-.04-.41c-.4-.1-.8-.22-1.21-.34Z"/><path d="m182.07,3.03c2.83.04,4.4-.61,3.53-1.5l-2.77-.16c.4.43-1.66.53-1.27.96.8.23.44.47.51.71Z"/><path d="m31.88,14.11c-1.43.59-2.84,1.24-4.25,1.87,2.31-.34,4.57-.69,6.53-1.82l-.38-.54-1.89.5Z"/><path d="m109.65,3.8l-1.76.14-.29.32c2.57-.07,5.19.06,7.55-.61-.78-.28-2.37-.35-2.68-.75-.49.1-.91.19-1.32.28-.09.27-.14.53-1.5.62Z"/><path d="m178.61,3.76l-.04.41,3.42.17c.73-.4.7-.84.07-1.31-1.67-.12-1.26-.45-1.28-.73-.26-.16-.63-.31-1.28-.27-.76.05-.32.24-.19.38.5.52,1.46,1.06-.7,1.36Z"/><path d="m80.54,4.18v-.38c-2.34.22-4.98-.03-6.86,1.02.39.3-.04,1.08,2.46.04,1.09-.45,3.1-.16,4.4-.67Z"/><path d="m63.75,61.16l-.23.46c2.62.67,5.07.62,7.56.71l-1.25-.49c-1.35-.31-1.33-.63-1.49-.95-.18-.03-.37-.06-.56-.09-.08.65-.56,1.14-4.03.36Z"/><path d="m94.01,62.08c1.81.1,3.63.19,5.44.29,1.17.08,2.06.1,2.19-.23-2.4-.54-5.11-.27-7.62-.56-.02.16-.03.33-.01.5Z"/><path d="m69.83,61.84l1.25.49c1.94.42,3.94,1.04,5.62.44-1.75-.38-3.58-.72-5.54-.99-.93-.14-1.25-.15-1.33.06Z"/><path d="m124.06.75c.08.05.1.12.24.16,1,.28-2.77.84.09.87,2.06.02,3.38-.58,3.18-1.21-1.21-.06-2.51-.34-3.51.18Z"/><path d="m197.21,59.57c.8.12,1.62.18,3.24-.35,1.34-.43,2.55-.55,3.3-.4.48-.12,1.1-.22,1.25-.39-.42-.07-.84-.13-1.27-.2-2.14.28-4.22.8-6.33,1.14l-.19.2Z"/><path d="m229.8,49.95c-.95.86.81.18,2.38-.45,1.17-.43,1.87-.82,2.28-1.2l-.15-.27c-1.44.69-2.89,1.39-4.51,1.92Z"/><path d="m141.61,64.59c-2.5.19-5.33-.02-7.55.47,2.52.36,5.03-.11,7.54-.15v-.32Z"/><path d="m9.45,23.84c-.53-.48-1.26-.08-1.97.58-.72.66-1.38,1.58-1.96,2.12.28.12.18.68,1.47-.74.67-.69,1.58-1.37,2.46-1.97Z"/><path d="m126.91,3.27c-.25-.28,0-.72-1.56-.66-2.1.07-.82.71-2.02.97,1.69.47,2.39-.2,3.58-.31Z"/><path d="m202.59,5.35l3.09-.15c-1.92-.22-2.01-.64-2.25-1.05-.14-.24-.58-.45-1.51-.53-.34-.03-.89.02-1,.09-.32.21.42.32,1.01.46,2.1.5-1.76.6.06,1.09.19.04.39.07.61.08Z"/><path d="m233.83,50.01c-1.22.7-3.26.58-4,1.66.69.18.73.25,4-1.66Z"/><path d="m146.2,2.34c1.81.16,1.69.61,2.1.98,1.42.03,2.97.32,4.13-.13l-.04-.22c-1.02-.1-2.81.06-2.97-.31-.36-.82-1.81-.48-3.22-.32Z"/><path d="m141.98,3.37c.88-.6-1.21-.73-2.21-1.03l-1.08.37-.84.76c1.42.1,2.66-.36,4.13-.11Z"/><path d="m9.21,42.36l.31-.42c-.91-.87-1.77-1.75-2.86-2.55-.18.21-.82.17.61,1.39,1.1.9,1.53,1.4,1.25,1.68.59.27.54,0,.69-.1Z"/><path d="m156.63,61.91c-1.34.46-2.35.93-1.93,1.43,1.39-.41,3.44-.74,3.7-1.28l-.29-.25-1.48.1Z"/><path d="m189.76,2.36c-1.01-.24-.45-.49-.61-.73l-2.06-.2c-.36.61-.44,1.2,2.67,1.52v-.58Z"/><path d="m40.29,57.15l.04.41c1.31.3,2.47.45,3.48.41-.6-1.34-2.08-1.03-3.51-.82Z"/><path d="m193.02,58.48c0,.09-.11.21.03.27.41.17-1.49.88.63.58,1.87-.26.2-.42.44-.66.07-.07.68-.19,1.05-.29-.48-.1-.92-.23-2.15.1Z"/><path d="m149.91,62.35c.98,0,2.12.24,2.79-.2l-1.51-.02c-.57.04-1.06.04-1.32-.08l-2.79.24.59.15,2.24-.08Z"/><path d="m252.59,17.14s-.08,0-.07.05c.04.27-.79-.38.27.95.34.46,1.15,1.25.7.2-.25-.44-.6-.8-.9-1.19Z"/><path d="m90.53,62.35c.07-.31,1.82-.34,1.42-.73l-2.1-.13c.23.29-.52.56.68.86Z"/><path d="m255.92,15.41c.15-.25-.23-.77-.73-1.28-2.62-1.35.31.73-.5.51.08.11.19.21.37.31.23.15.47.29.68.46.14.09.2.09.17,0Z"/><path d="m152.97.82l1.38-.16c-.6-.43-2.28-.32-3.32-.52l-.08.36.05.38c.37.02.66.02.94.02.11-.21.58-.15,1.03-.09Z"/><path d="m16.28,49.46c.04-.35-1.36-.95-1.65-1.36l-1.05-.4.67.65c.6.45,1.28.83,2.03,1.12Z"/><path d="m105.59,4.48c-.43-.3-1-.47-2.17-.01.59.14.86.61,2.17.01Z"/><path d="m122.21,64.5l-2.18.15c-.11.43,1.1.34,2.17.31v-.45Z"/><path d="m99.39,4.59c-1.02.11-2.19.11-2.89.48,1.51.25,2.28-.05,2.89-.48Z"/><path d="m247.25,11.93c.48.52,1.13.98,1.87,1.52-.55-.55-.72-1.09-1.87-1.52Z"/><path d="m147.67,62.43l-.59-.15-1.38.05.06.16c.63.15,1.26.16,1.9-.06Z"/><path d="m161.96,3.24s.02-.07.09-.09c-.1.02-.2.04-.32.04-.07.13-.14.27-.2.4l.43-.35Z"/><path d="m149.86,62.05c.27.12.76.12,1.32.08,0-.26-.45-.28-1.32-.08Z"/><path d="m184.69,4.51c-.07-.14.07-.34-.7-.35-.56,0-.46.14-.06.26l.75.09Z"/><path d="m150.94.51l.08-.36c-.71.05-1.21.17-1.44.36h1.36Z"/><path d="m154.4.56l1.81-.04c-.76-.25-1.37-.25-1.81.04Z"/><path d="m93.98,62.07l.05-.49c-.45-.06-.69-.03-.72.08.05.14-.29.31.68.41Z"/><path d="m37.93,13.15l-.29-.28c-.69.22-.22.28-.35.43.22-.02.43-.06.64-.15Z"/><path d="m209.67,3.43c.68.14,1.39.35,1.5,0-.62-.12-1.24-.22-1.5,0Z"/><path d="m255.75,15.41c-.21-.17-.45-.31-.68-.46l.29.45h.39Z"/><path d="m197.39,59.37c2.12-.34,4.19-.86,6.33-1.14.73-.15,1.04-.3,1.08-.44l.02-.41c-1.17.2-1.57.15-1.2-.14.18-.14.42-.32-.35-.19-.45.08-1.41.34-1.4.37.24.54-2.84,1.11-4,1.62-.24.11-.32.21-.48.32Z"/><path d="m240.34,46.59c1.35-.61,2.68-1.29,3.73-2.32-2.09,1.34-.65-.16-2.16.68-.81.44-1.66.8-2.49,1.19.43.07,1.85-.43.92.44Z"/><path d="m168.56,61.68c-1.18-.16-2.69-.08-4.25.03.06.17-.15.39.25.48.52.12-1.52.52.35.41,1.3-.08,1.03-.31.87-.5-.07-.09-.1-.4.76-.16,1.59.43,1.2-.3,2.02-.27Z"/><path d="m217.78,55.12l2.04-.43c.23-.2,1.9-.83.35-.54-1.65.26-2.13.64-2.39.97Z"/><path d="m212.93,56.17c-.57.21-1.08.47-.71.47,1.15,0,2.32-.59,3.52-.86-.19-.34-1.72.19-2.81.39Z"/><path d="m176.14,62.15l2.73-.28c-.18-.24-1.05-.27-2.14-.13-.84.11-.54.28-.59.42Z"/><path d="m145.71,62.95c-.19.02-.39.04-.59.04l-.07.29c.83-.05,1.86-.02,2.22-.3l-1.56-.04Z"/><path d="m220.34,54.54c.36.2,1.28-.15,2.21-.51l-.14-.23c-.7.25-1.38.49-2.07.74Z"/><path d="m207.12,56.38c-.15,0-.29.01-.44.02l-.36.2c.18-.02.39-.03.52-.07.13-.04.18-.1.27-.15Z"/><path d="m170.68,61.5l-1.59.13c.21.06.37.19.64.18.78-.03.75-.19.96-.31Z"/><path d="m212.24,55.95l.71.1c.97-.43.17-.27-.71-.1Z"/><path d="m222.4,53.8c.36-.12.89-.24.85-.35,0-.02-.28,0-.41.05-.61.18-.41.22-.44.31Z"/><path d="m204.82,57.38l-.02.41c.85-.29.9-.44.02-.41Z"/><path d="m186.2,60.07c.02.06.13.05.23.04-.02-.06-.13-.05-.23-.04Z"/><path d="m143.64,63.32l-.03.16,1.42-.2c-.45.01-.92.02-1.39.04Z"/><path d="m210.23,56.54l-.16-.02c.06,0,.12,0,.16.02Z"/><path d="m222.87,53.93l.23.08c.56-.24.42-.25-.23-.08Z"/><path d="m191.01,3.2c-.86.24-2.18.41-1.25.93.4.22.88.43,1.73.51,1.27.12,1.43-.14,1.62-.37-.64-.34-.95-.66-.36-.97.27-.14.22-.3-.53-.37-.9-.09-1.06.1-1.21.27Z"/><path d="m249.48,9.78c-1.8-.55-1.33.04-1.58.26.65.23,1.6.43,1.57.8-.01.18.52.62,1.11.78.6.16,1.2.19,1.48.1.46-.14-.7-.48-1.02-.7-.63-.42-1.04-.85-1.56-1.24Z"/><path d="m214.15,5.95c1.17,1.01,3.51.9,5.73.92-1.56-.64-3.35-1.05-5.73-.92Z"/><path d="m212.44,5.84l.71.02c.12-.04.2-.1.38-.12,1.34-.1,2.24-.27.92-.8-.35-.14-1.32-.35-1.16-.15.35.47-4,.22-.85,1.04Z"/><path d="m197.22,4.9l1.98.25c.04-.25,1.72-.48-.03-.74-1.3-.2-2.23.05-1.95.49Z"/><path d="m206.63,5.3l2.17.67c-.03-.22,1.18-.35.18-.63-.79-.22-1.67-.19-2.35-.04Z"/><path d="m245.12,9.45c-.37-.17-.59-.3-.82-.36-.25-.06-.51-.04-.76-.05.2.1.36.23.59.3.23.07.53.06.99.11Z"/><path d="m210.28,6.11l1.92.05c.09-.02.19-.03.28-.05l-.07-.19c-.86-.01-2.11-.22-2.13.19Z"/><path d="m195.46,4.79c.55.19,1.11.4,1.71.11l-1.71-.11Z"/><path d="m240.89,9.5c-.18-.08-.28-.07-.38-.06.07.03.13.06.38.06Z"/><path d="m8.55,21.33c-.67.46-1.45.93-1.68,1.41.05.64-2.09,1.84-2.49,2.82-.16.32-1.4.91-1.39,1.61.01.41.88-.43,1.51-.8.64-.39,1.05-.75,1.67-1.56.78-1.02,1.91-2.05,3.19-2.15.38-.03.78-.28,1.16-.56.4-.26.77-.58,1.05-.81.98-.81.03-.45-.69-.23-1.16.31-2.26.79-2.33.27Z"/><path d="m9.21,42.36c-.15.11-.1.38-.69.1-.26.09-1.61-.95-1.16-.17.16.27.62.8.99,1.05,1.24.85.63-.02,1.01.02.21.02.39,0,.66.08.53.16,1.87.92,1.51.41-.41-.58-1.55-.84-2.33-1.48Z"/><path d="m4.99,39.63c-.07-.13-.15-.26-.22-.38l-.39-.19c.1.15.21.33.32.43.09.09.19.1.29.14Z"/><path d="m20.77,15.87l.66-.22c-.21.07-.44.15-.66.22Z"/><path d="m255.34,26.97c.08-.13.18-.18.08-1.09-.08.13-.09.56-.08,1.09Z"/><path d="m50.48,8.63l-1.4.23c.02.23.41.51,0,.68-.73.29-1.38.54-1.07.77.15.11.55-.02.7-.12.56-.35,2.58-.63,1.96-1.04-.21-.13-.13-.34-.18-.52Z"/><path d="m54.62,8.47c-.45-.09-.53-.35-1.51-.2-.14.02-.46.21-.41.27.24.26,1.17.04,1.92-.06Z"/><path d="m70.32,5.97l-.61.06c.02.14-.09.31.7.23l-.1-.29Z"/><path d="m43.19,10.92l-.1.33c.8-.15.65-.3.73-.44l-.64.11Z"/><path d="m46.4,9.73l.29.19c.63-.26-.05-.17-.29-.19Z"/><path d="m241.91,44.95c1.51-.84.08.66,2.16-.68.74-.53,1.22-.95,1.52-1.33.64-.81,1.42-1.74-.17-.8-2.53,1.37-2.31,1.91-3.52,2.81Z"/><path d="m250.55,37.34c-.62.77-1.92,1.7-1.61,1.89.1.06.56-.04,1.29-.92.72-.83,1.6-2.18,1.52-2.31-.13-.26-.8,1.01-1.2,1.33Z"/><path d="m250.45,38.72c.65-.47,1.07-.77,1.47-1.19.23-.28.55-.69.8-1.03.23-.36.38-.67.32-.75-.09-.09-.43.25-.91.85-.51.66-.98,1.32-1.68,2.13Z"/><path d="m254.81,30.31c.08-.07.23-.03.37-.74.04-.22-.02-.36-.03-.53-.1.43-.18.86-.34,1.27Z"/><path d="m248.15,40.32c.14-.18.03-.09-.07,0h.07Z"/><path d="m254.27,31.48l.12-.28c.04-.09.07-.19.1-.29-.11.18-.2.36-.23.57Z"/><path d="m164.81,2.86c-.13-.31-.85-.44-1.85-.39-1.28.09-.79.42-.92.67,1.24.07,1.31-.51,2.77-.28Z"/><path d="m180.79,2.3c.02.28-.39.61,1.3.74-.09-.24.26-.48-.54-.71l-.77-.02Z"/><path d="m164.82,2.86l.15.08c-.05-.03-.11-.05-.15-.08Z"/><path d="m39.08,56.81l1.22.35c-.19-.18.5-.28-.49-.51-.56-.14-.74,0-.73.16Z"/><path d="m55.8,60.22c1.12.2,2.27.39,2.33-.02-.85-.03-1.8-.12-2.33.02Z"/><path d="m146.2,2.34c1.4-.16,2.86-.5,3.22.32.16.37,1.95.2,2.97.31-.55-.43-.99-.87-1.68-1.28-1.48-.88-4.23-.99-6.47-.28-.28.09-.42.24-.76.28-1.28.19-1.36.82-.09,1.06.53.1.53.1.83-.31.14-.19.1-.44,1.07-.45.29,0,.62.23.93.35Z"/><path d="m135.75,2.74h.75c1.32-.66-.75-1.24-.69-1.87l-2.08.4c-.19.59,2.57.85,2.02,1.47Z"/><path d="m139.22.69c-.76,0-1.54-.04-2.1.16.02.03,0,.07.07.09.93.2.77.83,1.91.71,1.68-.17-.2-.62.12-.95Z"/><path d="m142.92,1.25c.2-.06.43-.1.42-.14-.06-.1-.21-.2-.33-.3-.09.05-.25.11-.26.16,0,.08.1.17.17.28Z"/><path d="m152.97.82c-.46-.06-.93-.12-1.03.09.44.04,1.05.21,1.03-.09Z"/><path d="m151,.89l-.29.1c.13-.02.25-.05.29-.1Z"/><path d="m31.88,14.11l1.89-.5c.4-.81,3.62-1.46,4.55-2.21-.16-.22.04-.59-1.5-.22.73.19-.35.62-1.03.89-.83.33-1.31.17-1.68.06-.65.14-1.3.3-1.95.45-1.73.8-2.6,1.25-2.63,1.47-.04.21.75.17,2.34.06Z"/><path d="m34.12,12.13c.37.11.84.27,1.68-.06.68-.27,1.76-.71,1.03-.89-1.05.26-2.39.42-2.71.95Z"/><path d="m24.71,14.94c2.07.29,2.36-.82,3.53-1.23-1.55.07-2.57.63-3.53,1.23Z"/><path d="m20.76,15.88l.68-.23c-.28-.08-.51-.01-.68.23Z"/><path d="m109.65,3.8c1.35-.09,1.41-.35,1.5-.62-.23-.35.49-.32,1.25-.26.4-.39.08-.85,2.03-1.05.38-.49-1.76-.21-2.08-.48-2.74.74-2.9,1.58-2.69,2.41Z"/><path d="m131.68,2.41l.87-.07c-.49-.16-.61.01-.87.07Z"/><path d="m111.74,63.53c-.34.14-.43.29-.52.45,1.4.03,2.79.06,4.18.09,1.25.01,1.29-.2,1.34-.41-.75-.05-1.66,0-2.1-.23l-2.9.1Z"/><path d="m131.24,63.24c-.03-.16-.1-.34-.87-.37-.35-.01-.8.14-1.21.21.49.19,1.31.15,2.07.15Z"/><path d="m114.64,63.43c.44.23,1.35.18,2.1.23-.42-.24-1.28-.22-2.1-.23Z"/><path d="m122.93,64.35c0-.09.66-.18.04-.27-.07-.01-.26,0-.32.02-.4.11-.17.19.28.26Z"/><path d="m82.15,5.67c1.14-.27,2.31.88,3.44-.34.11-.81-2.36-.13-3.53-.19l.09.53Z"/><path d="m96.51,3.72l-.28.06c.09-.02.17-.04.28-.06Z"/><path d="m82.06,5.13l-.16-.06c.06.02.11.04.16.06Z"/><path d="m143.64,63.32l1.41-.03.07-.29c-.98,0-1.46.11-1.48.33Z"/><path d="m63.75,61.16c3.47.78,3.95.29,4.03-.36l-.67-.8c-2.54-.79-4.11-.29-6.16-.44-.33.55-.23,1.1,2.79,1.6Z"/><path d="m97.22,62.86l.3.04c0-.08-.12-.08-.3-.04Z"/><path d="m212.2,6.16l.48.11-.2-.16c-.09.02-.19.03-.28.05Z"/><path d="m90.51,62.36c.24.06.47.12.72.18,0,0,.13-.03.2-.05-.3-.04-.6-.09-.92-.13Z"/><path d="m51.48,57.72l-1.27-.4c.05.24.07.48,1.27.4Z"/><path d="m111.22,63.98l.29-.46c-.68-.02-1.44-.04-1.56.16-.12.21.54.28,1.28.3Z"/><path d="m105.42,3.7c.06-.2.07-.39-.61-.48.09.18-.21.41.61.48Z"/><path d="m101.98,2.89l.15.06c-.05-.02-.1-.04-.15-.06Z"/><path d="m107.46,2.82c-.15-.13-.16-.32-.5-.36-.45-.06-.86.13-.71.23.3.19-1.08.71,1.04.54l.17-.41Z"/><path d="m107.46,2.82l-.17.41c1.04-.17.95-.3.17-.41Z"/><path d="m64.63,6.8c-.1-.03-.19-.05-.31-.07-.01,0-.24.06-.25.08-.02.05.02.09.04.14l.52-.15Z"/><path d="m14.5,46.98l.27.09c-.1-.04-.2-.08-.27-.09Z"/><path d="m246.15,8.75c.37.04.73.11,1.09.16l-.23-.18c-.3,0-.6-.01-.86.02Z"/><path d="m70.72,5.43h.89c-.08-.09-.26-.14-.45-.19l-.44.19Z"/><path d="m112.4,2.92c-.76-.06-1.48-.1-1.25.26l1.25-.26Z"/>
                  </g>
                </mask>
              </defs>
              <path class="mask" d="m258.4,24.72c3.9-3.36,1.82-8.33-2.89-11.27-5.62-3.51-13.15-4.97-17.73-5.53C161.11-1.42,107.77,3.04,107.77,3.04c-13.94,1-79.71,5.98-99.54,20.07-1.79,1.27-5.91,4.28-6.49,8.48-1.14,8.4,12.78,15.1,18.39,17.8,40.01,19.26,193.02,21.39,226.76-8.03,2.83-2.47,10.28-8.96,8.52-17.24-2.33-10.98-19.31-17.82-24.53-19.77"
                    mask="url(#path-mask)" stroke="black" stroke-width="2" fill="none"
                    stroke-dasharray="588.114013671875" stroke-dashoffset="588.114013671875">
              </path>
            </svg>
        