
            <svg xmlns="http://www.w3.org/2000/svg">
              <defs>
                <mask id="path-mask">
                  <g fill="white">
                    <path d="m305.85,58.95c1.82-1.78.46-.87.73-1.33.47-.38.93-.77,1.36-1.2.57-.48,1.18-1.01,1.77-1.55.56-.57,1.12-1.14,1.64-1.63,1.05-1.04,2.31-2.76,3.22-4.6.26-.44.45-.91.61-1.38.17-.46.33-.91.48-1.33.29-.84.37-1.64.47-2.22.29-.75.36-1.4.43-1.93.07-.53.1-.95.1-1.29.09-1.04.25-2.36.07-3.6-.04-1.26-.35-2.4-.38-3.24.02-.12.02-.33.01-.55-.03-.21-.07-.44-.09-.61-.03-.34.03-.45.4.28.25.53.38,1.13.57,1.8.07.34.19.7.22,1.1.02.4.04.83.05,1.3,0,.39.02.76.03,1.12-.03.36-.05.71-.06,1.03-.03.65.02,1.23.03,1.67l-.26,1.43c-.2,1.83-1.59,3.91-1.71,5.37-.12.25-.26.63-.45.91-.16.29-.29.52-.3.53-.24,1.49-2.23,4.23-4.16,6.35l-.12-.05c.45-.64.33-.54-.24.14-.09.11-.19.22-.3.33l-.2-.05c.34-.34.79-.89.73-.94-.01-.01-.26.24-.37.38-.55.61-.35.48-.37.57-.63.69-1.24,1.41-1.89,2.09-.17.16-.34.31-.51.47.21-.28,1.76-1.99.25-.64-1.67,1.34-2.07,1.97-2.31,2.37-.2.39-.9.99-2.1,1.79-.25-.1-1.9,1.14-3.08,1.94v-.11c1.02-.9.17-.28-.81.32-1.42.68-1.4.99-2.23,1.52l-.19.08.21-.09c0,.17.63.08-1.89,1.43-1.55.87-2.89,1.59-2.49,1.68l-1.55.84c-.5.15-1.02.28-1.53.4.87-.41,1.21-.68,1.23-.8.98-.62,1.01-.74-.03-.32-1.36.68-1.87.79-1.44.42.2-.18.47-.41-.44,0-.27.12-.68.33-1.03.52-.34.18-.62.34-.61.35.36.34-3.33,1.97-4.68,2.81-.28.17-.38.28-.56.42l-.21.22c-3.33,1.41-6.96,2.51-9.92,3.89-.75.35-1.88.58-2.68.77-1.43.34-2.37.67-3.09,1.06-2.24.62-4.49,1.17-6.74,1.71l-.16-.11c-.24-.14-1.34.03-2.7.41-1.05.29-.66.35-.72.48-3.72,1.02-7.46,1.97-11.41,2.84h.17c-.04.08.28.1-.46.27-.2.13-.26.25-1.23.44.27-.39-1.63-.07-3.18.15-3.34.51-7.23,1.05-10.12,1.71-2,.47-3.36.74-5.33,1.02-1.2.17-.5.31-.57.46-3.83.58-7.66,1.17-11.51,1.64l-.02-.28c.74-.25.54-.38.14-.51-.68-.22.28-.49,2.33-.72l1.8-.36c1.08-.16,2.39-.3,2.83-.59l-1.99.21c-.27-.09-1.45-.07.04-.4.81.04,1.62-.06,2.42-.34l2.85-.4c1.24.29,3.59.23,6.16.06,1.74-.58,4.32-1.19,4.62-1.68,2.5-.4,4.99-.78,7.48-1.37.09.12-.16.35.35.35.67,0-1.9.71.47.27,1.64-.33,1.28-.46,1.07-.58-.1-.06-.16-.31.96-.28,2.04.04,1.51-.47,3.2-.77.27,0,.48.07.82,0,.98-.19.94-.32,1.19-.46,3.17-.66,6.18-1.6,9.56-2.25,1.76-.35,2.58-.95,3.04-1.3,5.09-1.38,10.14-2.93,15.11-4.72.01.07-.12.2.06.2.52,0-1.76,1.18.82.24,2.28-.83.21-.39.48-.66.08-.08.83-.37,1.26-.58,4.08-1.82,8.51-3.69,12.61-5.82,1.22-.59,2.97-1.91,4.06-2.17.31-.08.97-.4,1.82-.85.85-.45,1.92-1.01,2.95-1.69,1.05-.66,2.13-1.36,3.02-2.06.9-.68,1.69-1.29,2.13-1.76Zm-12.93,8.21l-.4.31c.21-.1.46-.2.61-.29.15-.09.21-.15.31-.24-.18.07-.35.14-.51.21Zm-24.26,10.18c-.1.03-.23.06-.35.09.03.04.16,0,.35-.09Z"/><path d="m248.11,3.6c2.97.24,5.9.63,8.83,1.06,2.92.45,5.84.84,8.76,1.37.6,1.35,4.48,1.25,6.89,1.8.43.44.29.88,2.96.92,1.61.04,3.89.44,5.9.84,1.58.47-3.63.86,2.39,1.38.86.21,2.1.29,2.14.75.02.23.81.65,1.59.73.8.08,1.58-.05,1.9-.21.54-.28-1.01-.4-1.47-.6-.89-.39-1.5-.8-2.23-1.2.53-.2,2.63.37,2.6-.11,1.17.92,5.94.91,5.74,1.83-.1.46-2.06.63-2.96,1.02-.93.41-4.47-.15-7.23-.79-1.25-.29-2.4-.72-3.65-1-1.2-.29-2.63-.86-3.58-.66-1.01.23,2.36.6,1.67.94-1.98.02-4.03-.17-6.22-.81-.05-.74-.56-1.36-4-1.28-2.56.07-5.55-1.48-8.08-1.02l-.93-.09-1.73-.45c-2.86-1.13-6.05-1.65-9.59-1.43-1.98-.86-4.3-1.32-7.34-1.19l-1.28-.1c.16-.05.26-.12.48-.13,1.72-.1,2.88-.29,1.18-.92-.45-.16-1.69-.41-1.5-.18.46.55-5.14.23-1.11,1.28-1.11-.02-2.71-.27-2.73.2l-1.91-.19c-.05-.26,1.5-.38.22-.72-1.02-.27-2.14-.26-3.01-.12l-1.2-.13c-2.47-.3-2.59-.73-2.91-1.21-.19-.27-.76-.51-1.95-.58-.44-.03-1.14.04-1.29.12-.41.24.55.36,1.3.51,2.71.54-2.25.71.1,1.24-.62.4-2.15.27-3.58.2v-.3c.04-.29,2.2-.57-.06-.85-1.67-.21-2.86.08-2.55.59l-2.2-.14-3.01-.6c-.83-.39-1.24-.76-.5-1.1.34-.16.27-.33-.7-.42-1.16-.11-1.36.12-1.54.31l-1.63-.25v-.65c.68.03,1.4.05,2.11.06.71.04,1.42.07,2.1.13,1.36.12,2.6.33,3.5.81.69.36,1.72.25,1.91-.07.13-.23-.07-.51,1.11-.57,2.42-.15,4.88-.17,7.36-.07,2.48.09,4.98.48,7.5.9,1.51.56,3.87.98,6.35,1.18,2.48.2,5.08.16,7.05-.03Zm31.02,6.5c-.32-.05-.65,0-.98,0,.26.11.49.26.78.32.31.06.68.05,1.28.09-.49-.19-.78-.36-1.08-.4Z"/><path d="m22.83,71c2.13.86,2.98,1.56,3.93,2.35.48.38-.04.64,1.73,1.19,1.43.43,1.24-.01,1.08-.37-.15-.35-.18-.66-.26-.99,1.69.62,3.39,1.24,5.09,1.82-.08.28-.81.43,1.53,1.2,1.76.59,2.52,1.01,2.33,1.35-.27.17-2.34-.51-1.43.15.32.24,1.1.63,1.65.78,1.83.53.73-.18,1.19-.24.25-.03.46-.1.82-.08.7.05,2.63.54,1.99.09-.74-.51-2.23-.54-3.46-.99l.17-.51c4.91,1.48,9.67,2.96,14.38,4.43-.92.37-1.61.94-5.59-.65-.66-.26-1.76-.52-2.1-.38-.36.15.46.47,1.39.75.22.38.45.75.55,1.13l-1.41-.21,1.04.54c-3.37-.53-6.4-1.53-9.09-2.91-.63-.57-1.93-1.46-3.52-1.63-3.07-.3-7.71-3.25-9.96-3.04-2.57-1.41-5.45-2.57-8.07-4.09.22-.26-.17-.69-.83-1.16-.64-.49-1.57-1-2.44-1.44-.77-.4-1.36-.76-1.88-1.12-.51-.39-.94-.78-1.41-1.24.36-.11,1.08.39,1.88.93.81.52,1.68,1.13,2.29,1.29.46.11,1.47,1.42,2.27,1.38.48-.01-.7-.96-1.37-1.61-.7-.65-1.27-1.09-2.46-1.63-1.49-.68-3.13-1.71-3.83-3.12-.4-.85-1.73-1.68-2.43-2.29-1.26-1.03-.51.03.02.85.87,1.24,1.82,2.46,1.3,2.62-.29-.16-.56-.35-.85-.53-.78-1.68-3.3-3.9-4.59-6.57-.2-.53-.71-1.33-.88-2.02-.18-.69-.2-1.16.26-.89.12.06-.2-.69-.34-1.54-.23-.83-.34-1.73-.43-1.79-.4-.21-.38-1.22-.09-2.5.06-.32.13-.64.23-.94.33-1.8,1.21-3.79,1.52-2.77-.01.98-.02.91.79-.27.37-.51.92-1.13,1.11-1.16.59-.15-.91,1.81-.76,2.32-.53,1.09-.85,2.29-1.03,3.44-.18,1.17-.35,2.28-.5,3.3-.04.27,0,.8.18,1.21.18.41.36.73.38.68.09-.24.34.43.63.83.3.4.46.57.19-.52.19.03.32.24.67,1.07,1.14,2.74,3.21,5.32,5.9,7.13-.59,1.44,3.1,2.77,4.84,3.94,2.12,1.3,3.96,1.74,6.26,3.03-.71.05-2.68-.27,1.42,1.4Zm9.38,4.58l-.54-.02c.21.1.44.23.62.29.16.05.27.02.4.02-.17-.1-.32-.19-.48-.28Z"/><path d="m269.11,9.14c-1.6,0-3.36,0-5.1,0-1.74.08-3.44.19-4.9.4-1.3.03-2.94.2-4.63.46-.84.17-1.69.34-2.52.51-.83.17-1.65.3-2.4.51-.86.21-1.18.31-1.78.51-1.84.61-2.12,1.23-.08.74,2.16-.51,2.84-.63,3.43-.57.61.04,1.69-.01,3.71-.66.22-.06,1.08-.19,1.45-.23.9-.09,1.79-.19,2.67-.3.88-.1,1.77-.13,2.65-.2.88-.05,1.76-.16,2.65-.17.89,0,1.77-.02,2.67-.03h1.54s1.54.07,1.54.07l3.08.16,3.07.31,1.53.16,1.52.23c4.08.54,8.09,1.52,12.03,2.66l.02-.14c-.66-.23-1.21-.36-1.34-.46-1.19-.3-2.61-.65-3.59-.89-1.2-.24-2.53-.5-3.8-.76-1.27-.24-2.49-.41-3.43-.67-.28-.06-1-.25-1.97-.39-.97-.13-2.17-.29-3.39-.46-1.22-.17-2.47-.2-3.52-.28-1.05-.06-1.89-.12-2.32-.08-.28.01-.58.05-.54.07.41.19-1.18.1-1.9.07-.87-.03-1.4-.15-2.16-.15-.43,0-1.77.12-1.64.05.08-.05.85-.14,1.89-.22,2.18-.06,5.26-.05,5.55-.24Z"/><path d="m50.57,18.21c-2.05.72-4.55,1.36-5.77,2.25.62-.11,1.43-.19,1.83-.34,1.56-.61,3.02-1.26,4.33-1.12,1.08.12-.22.72-1.12,1.27-1.59.97-2.98,1.14-4.49,1.21-.94.05-2.43.39-3.09.78-2.26,1.31-3.49,1.16-5.02,1.38-.93.3-2.06.77-2.4.56-.07-.04.3-.33.47-.39,1.22-.4,1.34-.15,1.93-.17l2.27-1.84c-1.97-.2-4.05,1.05-6.06,1.97.15.24.1.52-1.38,1.13.09.17.03.41.31.49.84.26-1.64,1.11-2.27,1.65-.17.14-.65.4-.86.33-.42-.15.35-.6,1.21-1.12.48-.3-.04-.48-.1-.72-.72.57-3.19,1.11-3.21,1.72.32-.06,1.15-.37.41.1l-.39-.11c-1.22.39-.7-.39-2.15.26-.51.23-.76.77-1.13,1.17.09.14-.03.36-.67.75.06.04.13.07.2.11l.76-.33c1.39-.28,5.46-1.69.22.9-.34.18-.4.47-.59.7,2.26-1.07,4.58-2.36,6.91-2.65.28-.04,3.25-1.7,5.38-2.48.51-.42,1.22-.73,2.5-1.19,3.73-1.4,7.89-2,11.38-3.62,1.64.16,4.08-1.26,5.73-1.38,1.61-.1,2.84-.42,4.67-1.14,2.49-1.03,3.69-1.01,3.9-.42l4.25-1.11c-.29-.33.83-.86,1.62-1.34-2.07-.02-4.23,0-.19-1.5.52-.19.13-.27-.42-.22-1.58.8-4.17.85-5.51,1.53-3.07,1.56-2.61.65-3.14.4l-.91.23c-.03.24-.49.48-1.52.74-.05.31-.71.6-1.7.91l.16.29c-.99.26-.88.05-.92-.09-2.01.25-4.94,1.01-5.44.41Z"/><path d="m314.25,27.66c-.68-.94-1.16-1.61-1.61-2.03-.97-.87-2.09-1.92-.66-.06.6.7.89,1.35,1.24,1.79.32.46.59.79.83,1.08.41.61.75,1.02,1.23,1.85.29.52.39,1.11.6,1.66.17.56.41,1.1.47,1.69.03.84.34,1.98.38,3.24.19,1.24.02,2.56-.07,3.6l-.21.02c.21-2-.04-4.29-.25-5.76-.05-.47-.11-.94-.19-1.43-.11-.47-.29-.93-.46-1.41-.19-.47-.3-.98-.58-1.43-.25-.46-.51-.94-.78-1.42-2.2-3.8-5.54-6.83-9.25-9.19-3.73-2.38-7.85-4.14-12.05-5.61-.12-.12-.09-.19.98.11.55.17,1.09.36,1.61.59l.8.39c.24.13.48.23.75.3,1.32.49,2.32.97,3.07,1.32.76.35,1.27.57,1.57.68.6.22.34,0-.57-.61-.06-.04-.07-.05-.1-.08-2.28-1.05-3.72-1.69-5.15-2.37-.71-.36-1.43-.66-2.27-.97-.84-.31-1.79-.66-2.97-.98-1.99-.49-4.61-1.19-5.11-1.48,1.32.24,2.82.5,3.23.69.77.42,2.17.64,3.46,1.1,4.66,1.49,9.12,3.34,13.43,6.02,3.04,1.95,5.91,4.38,8.11,7.41,2.21,3,3.7,6.64,4,10.42.03.38.07.81.11,1.24-.02.44-.04.88-.07,1.28-.05.8-.13,1.42-.29,1.46,0-.44-.06-1.02-.03-1.67.01-.33.03-.67.06-1.03,0-.36-.02-.74-.03-1.12,0-.47-.02-.9-.05-1.3-.03-.4-.14-.76-.22-1.1-.18-.67-.32-1.27-.57-1.8-.32-.9-.54-1.85-.97-2.7-.22-.42-.44-.84-.68-1.25-.23-.41-.46-.82-.79-1.16Zm-6.43-6.19c.02-.08-.32-.48-1.53-1.29-.29-.19-.62-.41-.95-.62-.35-.18-.7-.36-1.01-.52-.62-.32-1.11-.55-1.16-.53-.21.06,1.44.84,1.98,1.2,1.06.71,2.61,2.01,2.66,1.77Zm-3.12-2.84c-.8-.47-2.23-1.3-2.35-1.22-.06.04.43.41,1.28.89.91.53,1.85.97,2.96,1.77-.39-.33-.7-.6-.99-.84-.3-.22-.59-.41-.9-.6Zm4.15,3.54l.4.36-.03-.07c-.3-.26-.32-.27-.36-.29Z"/><path d="m200.16.38c-2.22.12-3.94.02-6.44-.25-3.62-.28-8.15-.03-12.27.07-2.06.06-4.27-.24-6.2.19v.59c.45.26,1.63.64.24.79-4.1.45-3.52,1.49-6.34,2.07,1.51-.07,2.84-.24,4.02-.49.15,0,.28-.03.39-.07.15-.28-.5-.61,1.13-.79,1.29-.16,2.21-.05,2.4.29l.21.08-.2-.08c-1.91-.18-1.95.51-3.53.51-.1.04-.14.07-.12.11.91.28,1.91.24,2.93.15,1.02-.07,2.06-.2,3.05-.15,2.5-.63,5.17-.61,7.86-.09.8.16,1.33.37,2.23,0,1.38-.56,3.39-.41,5.32-.16,2.77-.37,1.51-.96.84-1.53-.17-.15-.75-.36.23-.43.83-.06,1.32.11,1.66.28h.99c-.51-.46,2.13-.61,1.59-1.09Z"/><path d="m86.46,89.55c1.7.53,3.49,1.01,5.92,1.03,3.06-.16,6.25.1,9.6.86.67-.17,1.88-.1,2.97-.09l1.79.3c-.2-.18-.5-.53-.59-.53-3.3-.19-5.45-1.05-8.62-1.34-2.31-.2-4.41-.48-4.96-1.13-.02-.02-.25-.05-.37-.08-.44.01-.88.02-1.33.03.3.7-2.01.34-3.77.05-5.78-.94-11.66-1.49-17.45-2.89-3.48-.87-3.7-.75-1.89-1.13.55-.12.93-.28,1.38-.42-3.36-.49-7.14-1.63-9.97-1.53.61.19,1.19.43,1.84.58,1.06.25,2.68.18,3.06.68.16.21-1.58.16-2.69.11-.59-.02-1.65-.29-2.5-.47-.71-.15-1.47-.34-1.85-.25-.49.12.22.39.93.66,1.11.41,1.33.89,3.13,1.24,2.18.87,4.64,1.58,7.67,1.94,3.52.08,7.51.75,11.54,1.39-.03-.16.18-.32.91-.21,1.28.2.43.33.69.51,1.78-.27,3.63-.68,4.55.69Z"/><path d="m295.51,14.96l.8.39.37.15.37.15c1.32.49,2.32.97,3.07,1.32.76.35,1.27.57,1.57.68.6.22.34,0-.57-.61-.06-.04-.07-.05-.1-.08-2.28-1.05-3.72-1.69-5.15-2.37-.71-.36-1.43-.66-2.27-.97-.84-.31-1.79-.66-2.97-.98-1.99-.49-4.61-1.19-5.11-1.48-.74-.1-1.75-.3-2.72-.49-.97-.19-1.91-.28-2.47-.3,1.38.35-.03.32-.76.2-2.14-.35-.81-.3-1.1-.44-.06-.03,0-.04.02-.06-.81-.24-1.93-.32-3.08-.43-1.15-.11-2.31-.22-3.25-.31-1.15,0-2.17-.06-3.04-.18-.3.19-3.38.18-5.56.24-1.04.08-1.81.17-1.89.22-.12.08,1.21-.05,1.64-.05.75,0,1.29.12,2.16.15.73.04,2.31.13,1.9-.07-.04-.02.25-.06.54-.07.43-.04,1.28.02,2.32.08,1.05.08,2.3.12,3.52.28,1.22.16,2.42.33,3.39.46.97.14,1.69.32,1.97.39.94.26,2.15.43,3.43.67,1.27.25,2.6.52,3.8.76.98.24,2.4.6,3.59.89,1.17.24,1.19.37,1.35.46l-.02.14,1.65.55c-.12-.12-.09-.19.98.11.22.04.39.04.66.12.88.3.85.38.95.47Z"/><path d="m161.25,3.97l-.07-.24c-.74-.44-1.33-.9-2.25-1.31-1.96-.83-5.49-.68-8.31.3-.35.12-.52.29-.96.37-1.62.31-1.68,1-.04,1.16q.68.06,1.04-.41c.17-.22.1-.49,1.33-.59.38-.03.81.19,1.22.29,2.33,0,2.21.5,2.75.87-2.63.43-5.34.59-8.08.62,1.08-.72-1.61-.69-2.91-.94l-1.35.49c-.92.14-1.85.23-2.77.41-.05-.05-.06-.1-.05-.16,1.63-.89-1.05-1.26-1.03-1.96l1.68-.19s.01.08.1.09c1.21.14,1.05.83,2.5.62,2.15-.32-.3-.66.08-1.04l.97-.52c4.1-.21,8.28-.68,12.3-.61.58-.04,1.16-.1,1.74-.11l.09.41-.36.12.48-.1,1.09-.05c.56.02,1.35.17,1.32-.16l1.76-.27-.24.08-.27-.05c1.23.41,4.25.24,5.13.96.41.34,4.19-.46,6.26-.84.34-.06.56-.17.83-.25.46.26,1.64.64.25.79-4.1.45-3.52,1.49-6.34,2.07-2.72.35-5.36.42-7.91.14Zm-11.79-1.48c-.09-.11-.29-.2-.45-.3-.11.07-.32.14-.32.19,0,.09.14.17.24.29.25-.08.55-.15.52-.18Z"/><path d="m32.07,24.91c1.48-.61,1.53-.88,1.38-1.13l-1.43.47-1.07.44c-2.74.92-5.4,1.82-8.09,3.35-1.1.62-2.72,1.43-4.15,1.95-1.57.55-4.32,2.1-4.73,2.46-2.25,1.76-4.48,3.42-6.61,5.25-2.13,1.82-4.19,3.82-5.76,6.38-1.13,1.91-1.27,3.42-1.52,5.23-.3,2.35.14,4.78,1.02,6.9.87,2.15,2.21,3.96,3.65,5.58,2.92,3.25,6.39,5.69,9.95,7.85.76.47,1.52.99,2.08,1.03.22-.26-.17-.69-.83-1.16-.64-.49-1.57-1-2.44-1.44-.77-.4-1.36-.76-1.88-1.12-.51-.39-.94-.78-1.41-1.24-.65-.14-1.51-.96-2.33-1.58-.29-.16-.56-.35-.85-.53-.78-1.68-3.3-3.9-4.59-6.57-.2-.53-.71-1.33-.88-2.02-.18-.69-.2-1.16.26-.89.12.06-.2-.69-.34-1.54-.23-.83-.34-1.73-.43-1.79-.4-.21-.38-1.22-.09-2.5-.12-.35-.03-.69.24-.96.33-1.78,1.2-3.77,1.51-2.74.21-.42.48-.8.73-1.2.55-1.37,1.34-2.77,3.01-3.93.84-1.49,1.76-3.04,4.04-3.53.7-.52,1.44-.99,2.16-1.46.21-.7,1.78-1.51,2.99-2.23,1.77-1.05,1.63-.56,1.87-.41,1.75-1.73,3.99-2.61,6.32-3.15.37-.4.62-.94,1.13-1.17,1.44-.66.93.12,2.15-.26,0-.6,2.47-1.14,3.19-1.71l1.71-.64Z"/><path d="m124.74,3.99c-1.29-.23-2.69-.23-4.49.39,1.09.18,2.17.39.97.95-.94.44-1.75,0-2.8.27-1.47-.46-2.21.03-3.09.49-1,.53-2.01.75-2.79.31-2.48.45-2.03.9-2.42,1.34.44.4,2.47.29,3.5.5,1.72.2,3.92,0,5.99-.46,1.56-.35,2.91-.54,4.44-.65,1.51-.43-.17-.97,2.51-1.26,1.99-.21,1.71.29,2.05.57l1.76-.22c-.16-.28-.43-.55-.43-.84,0-.19.8-.34,1.57-.42.66-.06,1.17,0,.81.18-.54.26-2.07.6-.41.65.41.01,1.81-.5,2.76-.77.3-.1.44-.3,1.08-.18l-1.11.18c.75.74,2.93.37,5.23-.09.65-.74-2.9-.72-2.7-1.38-3.78.75-3.79.21-3.55-.41-1.52.26-2.82-.04-4.38.32.3.67-1.33,1.44-3.97,1.62-3.67.28,1.11-.75-.19-.93-.18-.03-.22-.1-.32-.15Z"/><path d="m183.16,92.56l1.44-.1,2.78-.35,1.03-.09s-.06-.08-.1-.12c-.61-.01-.91-.06-.41-.2.07-.02.32-.05.41-.04.8.03-.03.17-.03.25,1.46-.08,2.53-.23,3.19-.5,2.09-.89,5.55-.6,5.5-.43-.17.54,2.13.33,3.81.29,2.08-.4,4.14-.79,6.26-1.19.92-.16,2.72-.32,2.18-.54-.44-.16-2.37.21-2.87.19-1.55-.06-3.84.85-4.75.36-1.16.09-2.54.22-2.74-.04-.98.08-2.02.2-2.67.08-2.15.12-4.32.31-6.46.37-4.23.15-7.85.99-12.14.96v.35c1.06-.07,2.16-.15,2.72.04-.06.2-.08.4-1.69.49l.78.41,3.77-.18Z"/><path d="m69.53,13.79c.55-.05.94.03.42.22-4.04,1.49-1.88,1.48.19,1.5l1.59-.43-.16-.56-.22-.03.21.04c.75-.08,1.88-.42,2.83-.63.95-.18,1.71-.23,1.67.21,2.41-.57,4.76-.3,7.34-1.41.37-.16,2.11-.28,2.25.02l2.57-.45c.51-.35,1.56-.74,2.39-1.11.83-.36,1.45-.68,1.07-1-.04-.03.54-.19.84-.29,2.12.83,2.67-.74,4.21-.8-.02-.06-.03-.13-.04-.19-4.6-.29-5.49.81-6.9,1.8l-.33.11.35-.11c-.9.09-2.53.34-2.58.24-.72-1.34-3.75.22-6.32.84-1.34.32-2.78.71-4.19,1-1.42.29-2.81.49-4.06.49-1.2.12-1.14-.41-3.16.14l.04.41Z"/><path d="m210.75,2.18l-1.63-.25c-4-.25-3.92-.91-3.48-1.61-1.31-.28-1.26.12-1.91.18,1.16.98-.84,1.77-4.47,1.77.82.51.88,1-.04,1.47.91.53,1.68.2,2.48.05-.53-.12-.66-.29.06-.29.98,0,.81.23.91.38,2.09.76,5.21.38,7.46.42,3.68.12,7.66.76,11.17.4v-.3s-2.55-.26-2.55-.26c-.83.33-1.54.09-2.26-.13l-3.01-.6c-.23.27-.43.56-2.07.42-1.1-.08-1.73-.28-2.24-.52-1.21-.55.48-.79,1.57-1.09Z"/><path d="m201.6,90.09c.91.48,3.2-.43,4.75-.36.5.02,2.43-.35,2.87-.19.54.21-1.26.38-2.18.54-2.11.4-4.17.79-6.26,1.19l.79.17,1.03-.1c2.8-.72,6.44-.85,9.61-1.39.74-.25.54-.38.14-.51-.68-.22.28-.49,2.33-.72l.02-.14c0-.19.6-.35,1.86-.48.26-.03.51-.08.75-.12-.27-.09-1.45-.07.04-.4l-.09-.13c-5.02.56-10.05.99-15.08,1.69.84.23,2.37.4-.58.96Z"/><path d="m128.92,93.33c1.05.03.92.76,2.82.28,1.42-.35,2.72.25,4.12.15.42-.65,2.3-.44,4.29-.16,1.68.23,3.08.15,4.35-.05,1.32-.21,1.91-.45.52-.78-1.87-.06-3.58-.33-5.59-.23-6.26.19-6.96.24-11.93-.58-.12-.02-.36-.05-.39-.04-2.58.53-6.41-.62-9.03-.24.23.33.23.66,1.98.94.08-.22.49-.22,1.69-.11,2.54.21,4.91.47,7.17.8Z"/><path d="m201.6,90.09c2.95-.55,1.42-.72.58-.96-1.97.06-3.31-.12-6.09.52-1,.23-2.52.35-4.19.45-1.67.09-3.51.12-5.13.24-4.36.35-8.95.65-13.37.64-1.94-.04-3.22.03-2.99.45.22.42,1.79.35,3.54.22l3.64-.19c4.29.04,7.91-.8,12.14-.96,2.14-.06,4.3-.25,6.46-.37.51-.11,1.09-.29,1.53-.32.98-.06,1.09.1,1.14.23.2.26,1.58.12,2.74.04Z"/><path d="m89.78,10.66c1.41-.99,2.31-2.09,6.9-1.8l3.49-.85c.91-.3,1.87-.61,1.58-.88-1.74-.23-3.85.52-5.66.84l-5.2.86c-1.73.31-3.46.67-5.18,1-3.46.69-6.91,1.41-10.35,2.28-1.84.45-2.04.75-2.7,1.13,1.25,0,2.64-.2,4.06-.49,1.41-.29,2.85-.68,4.19-1,2.57-.62,5.6-2.18,6.32-.84.05.1,1.68-.15,2.55-.24Z"/><path d="m69.14,84.2c-.46.14-.83.31-1.38.42-1.81.38-1.59.25,1.89,1.13,5.79,1.4,11.67,1.95,17.45,2.89,1.76.29,4.07.65,3.77-.05-3.21-1.09-6.8-1.49-10.8-1.73-2.57-.18-4.49-.63-3.89-1.26-2.6-.13-4.62-1.01-7.04-1.4Z"/><path d="m118.07,91.7c2.63-.38,6.45.77,9.04.23.03,0,.27.02.39.04,4.98.82,5.67.77,11.93.58,2.01-.1,3.72.16,5.59.23-.78-.56-1.64-1.11-4.7-1.44l-2.26.27c-.84.32-2.12.25-3.92.12-2.2-.14-4.87-.22-6.77-.37-1.92-.15-3.74-.11-5.54-.12-1.8-.03-3.57-.1-5.39-.41l.92.8c.25.02.49.04.72.07Z"/><path d="m163.14,91.89c-1.15.51-2.08.99,2.55.97,1.49-.03.56.2.45.34-2.27.36-4.8.21-6.43.03-4.13-.45-5.07-.05-5.96.55l-.85.03c-2.72-.29-7.18-.44-2.94-1.29.76-.15.75-.44,1.09-.66,2.33,0,4.67,0,7,0,1.51,0,2.64-.04,2.79-.36h2.6c-.1.14-.06.28-.32.39Zm-7.44.53c-.09-.01-.24-.02-.47.04.13,0,.26.01.47-.04Z"/><path d="m288.39,10.34c1.17.92,5.94.91,5.74,1.83-.1.46-2.06.63-2.96,1.02-.93.41-4.47-.15-7.23-.79-1.25-.29-2.4-.72-3.65-1-1.2-.29-2.63-.86-3.58-.66-1.01.23,2.36.6,1.67.94,3.96,1.52,9.21,1.69,13.31,3.22,1.29.49,1.13-.22,2.23-.1,1.1-.05-3.5-1.34.38-.79,1.44-.47,4.88,0,4.59-1.08-.78-.25-1.81-.49-2.3-.74-1.21-.63-.95-1.73-4.46-1.34-.02,0-.3-.12-.67-.27-.37-.15-.83-.33-1.19-.43-2.11-.61-4.17-.93-6.05-.92.45,1,3.01.59,4.17,1.11Z"/><path d="m299.16,15.8c1.05.28,1.78.59,2.26.97.61.47,1.53.98,2.58,1.34,1.05.35,2.21.59,3.27.61,1.91.05,3.71-.19,4.09-.8.7-1.15-1.48-2.13-6.64-3.14-1.26-.24-2.74-.94-4.12-1.42-1.67.18-1.2.88.38,1.65,1.6.78,3.22.87,4.53.7.48-.06,2.59.17,2.29.62-.26.4.82,1.06-.03,1.3-.52.15-.83.43-2.22.16-1.44-.27-2-.69-2.09-1.04-.1-.37-.24-.68-1.84-1.03-1.55-.34-2.39-.32-2.47.09Z"/><path d="m116.43,90.82c1.82.31,3.59.38,5.39.41,1.8.01,3.62-.03,5.54.12,1.9.16,4.57.23,6.77.37,1.81.13,3.08.2,3.92-.12-3.06-.97-7.69-.65-11.5-.93-1.42-.09-2.85-.15-4.28-.21-1.43-.08-2.86-.16-4.29-.24-1.43-.09-2.85-.19-4.26-.33-1.41-.16-2.8-.36-4.17-.62l-.48.2c.8.34,3.66.9-.75.64-1.44-.08-2.28.15.19.46,2.63.07,4.59-.46,7.92.25Z"/><path d="m64.28,17.95c-.21-.6-1.41-.61-3.9.42-1.84.73-3.06,1.04-4.67,1.14-1.64.12-4.09,1.54-5.73,1.38-3.49,1.62-7.65,2.22-11.38,3.62-1.28.46-1.99.76-2.5,1.19,3.62-.71,7.36-1.9,11.45-3.12,2.59-.81,5.24-1.61,8.14-2.21,1.27-.25,2.67-.72,4.15-1.14,1.47-.42,3-.86,4.44-1.27Z"/><path d="m235.52,5.56l-1.91-.19-2.78-.84c-.4-.04-.8-.09-1.21-.13-1.32,0-2.64.11-3.96.17,2.24,1.16,6.86,1.29,10.16,1.63,3.28.35,6.58.59,9.89.84,3.3.33,6.61.67,9.91,1h1.79c-2.86-1.14-6.05-1.65-9.59-1.44-2.82-.18-5.84.02-7.34-1.19l-1.28-.1-.91-.03c0,.16.03.23.06.31l.26.19-.62-.13-2.46-.07Z"/><path d="m233.41,85.21c2.49-.4,4.99-.78,7.48-1.37,1.98-.4,3.88-.76,5.39-.86,1.33-.3,1.99-.45,2.66-.59,3.17-.66,6.18-1.6,9.56-2.25,1.76-.35,2.58-.95,3.04-1.3-9.41,2.48-18.95,4.37-28.51,6.22l.39.16Z"/><path d="m166.14,93.2c-2.27.36-4.8.21-6.43.03-4.13-.45-5.07-.05-5.96.55,6.8.17,13.63.25,20.4-.47,1.64-.2,2.68.08,4.01-.04,1.84-.17,4.68-.12,4.99-.71l-3.76.18c-2.06.06-4.12.14-6.19.17l-7.07.28Z"/><path d="m297.09,65.51c0,.17.63.08-1.89,1.43-1.55.87-2.89,1.59-2.49,1.68,3.28-1.64,6.5-3.43,9.53-5.61,3.04-2.16,5.93-4.66,8.38-7.64l-.12-.05-.24.14c-.09.11-.19.22-.3.33-.85.96-1.68,1.95-2.09,2.05-.17.16-.34.31-.51.47-.69.58-1.35,1.18-2.06,1.74-.2.39-.9.99-2.1,1.79-1.3.91-2.5,2.06-3.82,2.68-.44.2.12-.26.74-.74v-.11c-.25.12-.54.21-.81.32-1.42.68-1.4.99-2.21,1.5Z"/><path d="m152.91,93.81c-2.72-.29-7.18-.44-2.94-1.29.76-.15.75-.44,1.09-.66-1.29-.05-.86-.23-.94-.37l-1.73.03c.53.37-1.71.48-1.77.79l1.16.1c-.09.02-.25.05-.25.05-.32-.05-.63-.1-.94-.15-1.54-.25-.59-.55-.91-.83-1.74-.45-3.52-.55-5.38-.14,3.06.33,3.92.88,4.7,1.44,1.39.32.81.57-.52.78-1.28.2-2.67.28-4.35.05-1.98-.28-3.87-.5-4.29.16,2.24.13,4.5.14,6.76.14,2.26,0,4.51.07,6.72.2,1.75.11,2.67-.07,3.57-.29Z"/><path d="m108.52,90.58c-2.47-.31-1.63-.55-.19-.46,4.41.26,1.55-.3.75-.64-.78.28-2.13-.1-3.2-.14.1.24-.74.49-1.38.33-3.16-.77-5.51-.28-8.3-.65-1.52.13-1.58-.13-1.67-.37-1.47-.47-1.88-.26-2.35-.08.13.03.36.06.38.08.55.66,2.65.94,4.96,1.13,3.17.29,5.31,1.15,8.62,1.34.08,0,.39.35.58.53l3.42.62,1.81.35.25-.48c-3.9-.42-4.08-.98-3.71-1.56Z"/><path d="m61.1,85.22c-1.8-.35-2.02-.83-3.13-1.24-.71-.26-1.42-.54-.93-.66.38-.09,1.14.1,1.85.25.85.18,1.91.45,2.5.47,1.1.05,2.85.09,2.69-.11-.38-.5-2-.42-3.06-.68-.65-.15-1.23-.38-1.84-.58-.75-.47-1.55-.36-2.33-.51-1.33-.14-2.75-.29-2.45.12,1.2,1.54-2.84.63-6.45-.26.37.37,2.27.76,2.33,1.13,3.01.55,5.74,1.58,8.77,2.19,2.17.44,1.76.06,2.05-.12Z"/><path d="m96.21,89.01c2.79.37,5.13-.11,8.3.65.64.16,1.48-.09,1.38-.33-5.59-.58-11.16-1.16-16.75-1.75-2.8-.31-5.72-.82-8.46-1.37-1.66-.33-3.02-.48-4.49-.62-.6.63,1.31,1.08,3.89,1.26,4,.24,7.59.64,10.8,1.73.44-.01.89-.02,1.33-.03.46-.18.87-.39,2.34.08l1.67.37Z"/><path d="m166.14,93.2l7.07-.28.06-.32c-.96.02-1.82,0-1.67-.2.14-.2,1.12-.23,2-.26.32-.16.34-.33.35-.49-1.75.13-3.32.19-3.54-.22-2.26-.12-4.58-.03-6.95.07-.1.13-.06.26-.32.38-1.15.51-2.08.99,2.55.97,1.49-.03.56.2.45.34Z"/><path d="m100.17,8.01l-3.49.85.03.2.21.04-.2-.05c-1.54.06-2.09,1.63-4.21.8-.29.1-.87.26-.84.29.38.31-.24.63-1.07,1-.83.37-1.88.76-2.39,1.11.23.18,1,0,1.69-.14.85-.52,2.34-.65,3.64-.9.98-.04,1.44-.94,2.05-.48.65.5,2.17-.15,3.09-.16,1.46-.65,2.2-.54,2.77-.27.92-.07,2.07.14,2.54-.5l.34-.38c-1.09.04-1.67-.2-3.17.07-1.05.04-.69-.25-.82-.43-4.73.44.5-.8-.18-1.05Z"/><path d="m307.94,56.42c.57-.48,1.18-1.01,1.77-1.55.56-.57,1.12-1.14,1.64-1.63,1.05-1.04,2.31-2.76,3.22-4.6.26-.44.45-.91.61-1.38.17-.46.33-.91.48-1.33.29-.84.37-1.64.47-2.22-.16.52-.33,1.05-.48,1.53-.17.48-.38.88-.53,1.19-.31.61-.46.78-.31.02-1.71,3.76-4.28,7.02-6.89,9.95Z"/><path d="m100.36,9.06c-4.73.44.5-.8-.18-1.05.91-.3,1.87-.61,1.58-.88,2.66-.5,5.4-1.58,7.95-1.12.12.02.17.06.13.11-3.44,1.07-3.58,2.05-3.25,2.91l-2.24.39c-1.09.04-1.67-.2-3.17.07.07-.22.06-.43-.82-.43Zm2.69-1.12c-.58,0-1.09.26-.89.34.39.16-1.32.91,1.36.44,1.32-.32,1.19-.45.19-.46-.21-.12-.22-.32-.66-.32Z"/><path d="m39.51,21.81c.8-.25,1.57-.1,2.37-.69,1.79-1.32,2.17-.74,2.91-.67.62-.11,1.43-.19,1.83-.34,1.56-.61,3.02-1.26,4.33-1.12,1.08.12-.22.72-1.12,1.27-1.59.97-2.98,1.14-4.49,1.21-.94.05-2.43.39-3.09.78-2.26,1.31-3.49,1.16-5.02,1.38.75-.61,1.51-1.22,2.27-1.83Zm9.75-2.12s-.3.11-.31.14c-.02.06.04.1.07.14l.64-.27c-.13,0-.25-.02-.41-.01Z"/><path d="m281.87,73.48c-3.33,1.41-6.96,2.51-9.92,3.89-.75.35-1.88.58-2.68.77-1.43.34-2.37.67-3.09,1.06,3.03-.52,6.5-1.82,9.74-3.04,4.18-1.6,8.23-2.85,12.25-4.98.58-.31,1.31-.66,1.54-.87-.93.18-2.34.85-3.94,1.67-1.91,1.03-2.91,1.32-3.9,1.5Z"/><path d="m299.16,15.8c.08-.4.92-.43,2.47-.09,1.6.35,1.75.67,1.84,1.03.09.35.65.77,2.09,1.04,1.39.26,1.7-.01,2.22-.16.85-.24-.23-.9.03-1.3.3-.45-1.8-.68-2.29-.62-1.32.17-2.93.07-4.53-.7-1.58-.77-2.05-1.47-.38-1.65-.54-.29-1.1-.5-1.73-.41.29,1.07-3.14.61-4.59,1.08.88.37,1.66.77,1.64,1.13l3.22.65Z"/><path d="m23.89,28.69c-2.33.54-4.57,1.42-6.32,3.15-.47.59-1.64,1.37-2.7,2.18-1.06.8-2.02,1.62-2.11,2.14l.62.36c1.36-.67,2.5-1.42,3.44-2.28.11-.2-.47-.07.3-.58l.42.17c.24-.09.48-.22.74-.38,3.11-1.79,1.99-2.4,4.93-4.01.65-.39.76-.6.67-.75Z"/><path d="m201.57,91.43l-.79-.17c-1.68.04-3.98.24-3.81-.29.05-.17-3.4-.46-5.5.43-.66.28-1.73.43-3.19.5.07.03.1.07.13.11l-.04.45c2.18-.05,4.36-.11,6.54-.26,2.19-.16,4.4-.33,6.65-.78Z"/><path d="m242.94,85.24c.27-.39-1.63-.07-3.18.15-3.34.51-7.23,1.05-10.12,1.71-2,.47-3.36.74-5.33,1.02-1.2.17-.5.31-.57.46,2.12-.24,4.19-.57,6.3-.89,2.1-.32,4.23-.7,6.41-1.24,1.89-.46,4.32-.78,6.5-1.21Z"/><path d="m71.73,15.07l-1.59.43c-.79.48-1.9,1.01-1.62,1.34,2.18-.38,4.38-.99,6.61-1.53,2.24-.48,4.5-.92,6.75-1.08,1.81-.13,2.2-1.02,3.76-1.53-.15-.3-1.88-.18-2.25-.02-2.58,1.12-4.93.85-7.34,1.41-1.31,1.45-2.9.48-4.33.98Z"/><path d="m3.49,43.4c-.24.4-.52.78-.73,1.2-.01.98-.02.9.79-.27.37-.51.92-1.13,1.11-1.16.59-.15-.91,1.81-.76,2.32.37-.48.83-.9,1.24-1.33l.87-1.08c.32-.34.62-.69.95-1.02,1.09-1.56,2.38-3.03,3.79-4.41-1.76.99-2.6,1.56-2.66,1.32-.04-.22.7-1.25,2.46-3.01-2.28.48-3.2,2.04-4.04,3.53-.55.61-.76,1.24-1.1,1.88-.35.64-.83,1.26-1.91,2.05Z"/><path d="m47.94,82.02c3.62.89,7.66,1.8,6.45.26-.3-.41,1.12-.26,2.45-.12-.26-.7-2.2-.64-3.27-.99-.92.37-1.61.94-5.59-.65-.66-.26-1.76-.52-2.1-.38-.36.15.46.47,1.35.73l.4.07-.36-.05.67,1.13Z"/><path d="m109.7,6.01c.12.02.17.06.13.11.43.26,3.14-.29,2.7.28.78.44,1.8.22,2.79-.31.87-.46,1.62-.95,3.09-.49,1.04-.26,1.85.17,2.8-.27,1.2-.55.13-.76-.97-.95-3.59.42-7.47.34-10.54,1.63Z"/><path d="m163.04,1.11c1.23.41,4.25.24,5.13.96.41.34,4.19-.46,6.26-.84.34-.06.56-.17.83-.25V.38c-3.2-.33-6.16.54-9.32.42l-2.33.17c-.3.02-.49.07-.57.14Z"/><path d="m295.94,65.31c.31-.08.97-.4,1.82-.85.85-.45,1.92-1.01,2.95-1.69,1.05-.66,2.13-1.36,3.02-2.06.9-.68,1.69-1.29,2.13-1.76,1.82-1.78.46-.87.73-1.33-.58.55-1.15,1.12-1.74,1.65-.62.5-1.25.97-1.9,1.37-.14.09-.44.3-.7.49-.28.18-.52.34-.55.37-.75.7-1.68,1.41-2.7,2.02-1.02.6-2.07,1.22-3.04,1.8Z"/><path d="m288.39,10.34c-1.16-.52-3.72-.11-4.17-1.11-1.17-.63-2.46-.65-3.72-.73-2.18.23-5.41-.59-7.91-.66.43.44.29.88,2.96.92,1.61.04,3.89.44,5.85.81l1.13-.07.32.2-1.39-.1c1.58.47-3.63.86,2.39,1.38.27-.3-.41-.93,1.94-.53.53-.2,2.63.37,2.6-.11Z"/><path d="m244.63,84.54c-.04.07.28.08-.46.25,5.3-1.03,10.94-1.98,15.28-3.88l-.16-.11-3.42.88c-3.72,1.02-7.46,1.97-11.25,2.85Z"/><path d="m272.59,7.83c2.49.07,5.73.89,7.91.66-.15-.78-2.19-.53-3.17-.75-3.78-.84-7.75-1.29-11.62-1.72.6,1.35,4.48,1.25,6.89,1.8Z"/><path d="m209.11,1.27c.69.03,1.41.05,2.12.06.71.04,1.42.07,2.1.13,1.36.12,2.6.33,3.5.81.69.36,1.72.25,1.91-.07.13-.23-.07-.51,1.11-.57.42-.65-1.93-.59-3.16-.69-2.78-.23-5.6-.41-8.41-.46.22.27-.5.57.81.8Z"/><path d="m194.86,3.14c-1.93-.26-3.94-.4-5.32.16-.9.37-1.42.15-2.23,0-2.69-.52-5.36-.54-7.86.09,2.51.57,5.63.46,8.67.4,2.24-.03,4.47-.18,6.7-.18l.03-.46Z"/><path d="m21.4,69.59c-.71.05-2.68-.27,1.42,1.4,2.13.86,2.98,1.56,3.93,2.35.48.38-.04.64,1.73,1.19,1.43.43,1.24-.01,1.08-.37-.15-.35-.18-.66-.26-.99-2.69-1.09-5.32-2.28-7.9-3.58Z"/><path d="m133.61,3.13c-.23.62-.22,1.16,3.55.41l2.63-.66,1.68-.19c.7-.26,1.71-.29,2.68-.34l.97-.52c.05-.41-1.13-.22-2.06-.11-3.17.37-6.31.94-9.46,1.4Z"/><path d="m5.14,44.15c-.41.43-.87.85-1.24,1.33-.53,1.09-.85,2.29-1.03,3.44-.18,1.17-.35,2.28-.5,3.3-.04.27,0,.8.18,1.21.18.41.36.73.38.68.09-.24.34.43.63.83.3.4.46.57.19-.52-.14-.42-.27-.85-.4-1.28-.08-.44-.11-.89-.16-1.33-.07-.44.01-.9,0-1.34.08-.44.1-.89.22-1.32.39-1.74,1.11-3.35,1.73-4.99Z"/><path d="m134.66,5.01c-.95.27-2.35.78-2.76.77-1.66-.04-.13-.39.41-.65.37-.18-.14-.24-.81-.18-.76.07-1.57.23-1.57.42,0,.29.27.56.43.84,3.24.25,6.85-.24,10.44-.69l.07-.52c-.05-.05-.06-.1-.05-.16l-.96.08c-2.29.46-4.48.83-5.21.09Z"/><path d="m23.22,29.44c-2.94,1.61-1.82,2.22-4.93,4.01,1.84-.46,3.66-.91,5.53-2.63.19-.24.25-.53.59-.7,5.24-2.59,1.17-1.18-.22-.9-.07.18.14.28-.81.71l.05-.38c-.07-.03-.14-.07-.2-.11Z"/><path d="m38.35,79.43c-.63-.57-1.93-1.46-3.52-1.63-3.07-.3-7.71-3.25-9.96-3.04,4.45,2.03,8.97,3.5,13.48,4.68Z"/><path d="m110.16,92.27l-3.42-.62-1.79-.3c-.03.44-1.52.26-2.97.09-3.36-.76-6.54-1.02-9.6-.86.26.22,1.17.52,1.8.53,5.19.12,10.91,1.39,15.98,1.15Z"/><path d="m272.16,10.87c-.05-.74-.56-1.36-4-1.28-2.56.07-5.55-1.48-8.08-1.02,1.76.68,3.74,1.11,5.8,1.44,2.07.32,4.21.53,6.28.85Z"/><path d="m222.62,86.83c1.24.29,3.59.23,6.16.06-.57-.35.68-.91,2.36-1.51-1.8.07-3.36.51-4.98.86-.82.5-2.29.47-3.54.6Z"/><path d="m234.72,2.45c1.51.56,3.87.98,6.35,1.18,2.48.2,5.08.16,7.05-.03-1.88-.46-3.79-.63-5.71-.76-1.92-.13-3.84-.21-5.76-.38-.13.42-1.06.18-1.93-.01Z"/><path d="m56.76,17.6c.99-.31,1.65-.6,1.56-.84l-1.13.18-.3-.14.83-.16.73.05c1.03-.26,1.49-.5,1.52-.74-1.6.31-3.1.6-4.63.89-1.54.31-3.1.69-4.78,1.37.5.6,3.43-.17,5.44-.41l.76-.2Z"/><path d="m80.31,88.56c-4.03-.64-8.02-1.32-11.54-1.39,1.29.58,2.54.92,4.62.95,2.63.02,5.75.92,8.61,1.16l-.1-.43c-.52-.1-1.05-.19-1.58-.29Z"/><path d="m199.26,2.26c3.63,0,5.62-.79,4.47-1.77l-3.56-.12c.53.48-2.1.63-1.6,1.1,1.03.24.59.52.69.78Z"/><path d="m10.74,37.63c-1.4,1.38-2.7,2.85-3.79,4.41,2.17-1.9,4.53-3.45,6.43-5.52l-.62-.36c-.69.47-1.36.97-2.02,1.47Z"/><path d="m106.58,9.03l-2.24.39-.34.38c3.27-.46,6.65-.55,9.61-1.56-1.02-.21-3.06-.1-3.5-.5-.62.16-1.15.3-1.67.44-.1.31-.15.56-1.87.85Z"/><path d="m194.86,3.14l-.03.46,4.4.13c.91-.46.86-.95.04-1.47-2.15-.1-1.64-.47-1.67-.79-.34-.17-.82-.34-1.66-.28-.98.07-.4.28-.23.43.67.57,1.93,1.16-.84,1.53Z"/><path d="m69.53,13.79l-.04-.41c-2.95.68-6.32.89-8.6,2.34.53.25.07,1.16,3.14-.4,1.34-.68,3.92-.73,5.51-1.53Z"/><path d="m112.22,92.14l-.25.48c3.4.62,6.54.45,9.72.48l-1.64-.46c-1.75-.28-1.76-.61-1.98-.94-.24-.03-.48-.05-.72-.07-.05.66-.62,1.22-5.13.52Z"/><path d="m151.07,91.86c2.33,0,4.67,0,7,0,1.51,0,2.64-.04,2.79-.36-3.12-.35-6.58.03-9.81-.12,0,.16-.01.32.02.49Z"/><path d="m120.06,92.64l1.64.46c2.52.36,5.13.9,7.23.23-2.26-.33-4.64-.59-7.17-.8-1.2-.12-1.62-.11-1.69.11Z"/><path d="m124.74,3.99c.1.05.14.12.32.15,1.3.19-3.48,1.21.19.93,2.65-.18,4.28-.95,3.97-1.62-1.56.06-3.25-.12-4.48.54Z"/><path d="m281.87,73.48c1-.18,1.99-.47,3.9-1.5,1.6-.83,3-1.49,3.94-1.67.56-.28,1.29-.64,1.45-.84-.5.15-1.02.28-1.53.4-2.53,1.14-4.99,2.35-7.55,3.4l-.21.22Z"/><path d="m314.82,46.47c-.16.75,0,.59.31-.02.14-.31.36-.72.53-1.19.15-.48.32-1.02.48-1.53.29-.75.36-1.41.44-1.93.07-.53.1-.95.1-1.29h-.21c-.29,2.01-.69,4.03-1.64,5.97Z"/><path d="m212.2,89.94c-3.17.54-6.81.68-9.61,1.39,3.24,0,6.42-.71,9.62-1.12l-.02-.28Z"/><path d="m10.31,62.62c-.59,1.44,3.1,2.77,4.84,3.94.03-.31.75-.3-1.5-1.57-1.11-.65-2.29-1.51-3.35-2.38Z"/><path d="m128.61,6.44c-.34-.27-.07-.77-2.05-.57-2.68.29-.99.83-2.51,1.26,2.2.31,3.04-.46,4.56-.69Z"/><path d="m225.66,4.57c1.32-.06,2.64-.17,3.96-.17-2.47-.3-2.59-.73-2.91-1.21-.19-.27-.76-.51-1.95-.58-.44-.03-1.14.04-1.29.12-.41.24.55.36,1.3.51,2.71.54-2.25.71.1,1.24.25.04.51.07.78.09Z"/><path d="m317.25,42.23c-.2,1.83-1.59,3.91-1.71,5.37.29-.29.43-.44.71-1.09.14-.33.32-.78.47-1.47.08-.34.17-.74.28-1.2.05-.23.12-.47.16-.74.03-.27.06-.56.1-.86Z"/><path d="m153.22,3.56c2.33,0,2.21.5,2.75.87.91-.03,1.86-.05,2.78-.08.91-.03,1.78-.1,2.5-.38l-.07-.24c-.66-.03-1.55.03-2.32.04-.76.04-1.39.03-1.51-.17-.52-.86-2.36-.36-4.14-.05Z"/><path d="m147.89,5.05c1.08-.72-1.61-.69-2.91-.94l-1.35.49-1.02.9c1.82,0,3.38-.61,5.28-.45Z"/><path d="m39.02,77.26l.17-.51c-1.53-.63-3.01-1.35-4.79-1.75-.08.28-.81.43,1.53,1.2,1.76.59,2.52,1.01,2.33,1.35.82.12.64-.14.76-.29Z"/><path d="m231.15,85.37c-1.67.6-2.93,1.17-2.36,1.51,1.74-.58,4.32-1.19,4.62-1.68l-.39-.16-1.87.33Z"/><path d="m209.11,1.27c-1.31-.23-.59-.53-.81-.8l-2.66-.15c-.44.7-.52,1.36,3.48,1.61v-.65Z"/><path d="m81.89,88.85l.1.43c1.7.27,3.18.35,4.46.27-.93-1.37-2.77-.97-4.57-.7Z"/><path d="m276.64,74.1c.01.07-.12.2.06.2.52,0-1.76,1.18.82.24,2.28-.83.21-.39.48-.66.08-.08.83-.37,1.26-.58-.6.09-1.15.13-2.63.8Z"/><path d="m222.62,86.83c1.25-.14,2.72-.1,3.54-.6-.64.08-1.28.16-1.92.23-.72.12-1.34.18-1.7.12l-3.53.62.76.04,2.85-.4Z"/><path d="m278.49,10.07s-.07.03-.02.06c.29.14-1.04.1,1.1.44.73.12,2.13.15.76-.2l-1.85-.3Z"/><path d="m146.63,92.31c.06-.31,2.31-.42,1.77-.79l-2.71-.04c.32.28-.63.58.93.83Z"/><path d="m295.93,15.15c.02-.36-.77-.76-1.64-1.13-3.88-.55.72.74-.38.79.15.1.37.16.65.19.38.07.77.13,1.15.22.24.04.31.01.22-.07Z"/><path d="m161.79,1.35l1.76-.27c-.8-.42-2.95-.2-4.3-.36l-.08.4.09.41c.48,0,.84,0,1.21-.03.12-.23.73-.19,1.32-.16Z"/><path d="m50.27,83.15c-.06-.37-1.96-.76-2.45-1.13l-1.41-.21,1.04.54c.88.35,1.82.63,2.83.81Z"/><path d="m142.62,5.5l1.02-.9c-.92.14-1.85.23-2.77.41l-.07.52c.61-.03,1.21-.03,1.82-.03Z"/><path d="m101.46,10.3c-.57-.27-1.31-.38-2.77.27.77.07,1.15.55,2.77-.27Z"/><path d="m187.39,92.12l-2.78.35c-.11.41,1.43.2,2.8.06l-.02-.41Z"/><path d="m93.55,11.21c-1.3.25-2.79.38-3.64.9,1.94.02,2.9-.35,3.64-.9Z"/><path d="m269.12,9.14c.87.13,1.89.19,3.04.18-.98-.08-1.54-.35-3.04-.18Z"/><path d="m219.77,87.23l-.76-.04-1.75.25.09.13c.81.04,1.62-.06,2.42-.34Z"/><path d="m173.47,3.39s.02-.07.12-.11c-.13.03-.26.05-.41.06-.08.15-.16.3-.24.46l.53-.41Z"/><path d="m222.55,86.58c.35.06.97,0,1.7-.12-.01-.22-.59-.17-1.7.12Z"/><path d="m202.67,3.86c-.09-.16.08-.39-.91-.38-.72,0-.59.17-.06.29l.97.09Z"/><path d="m159.17,1.12l.08-.4c-.91.09-1.53.29-1.82.51.58-.04,1.16-.1,1.74-.11Z"/><path d="m163.61.97l2.33-.17c-.99-.23-1.77-.18-2.33.17Z"/><path d="m151.03,91.85l.02-.48c-.59-.03-.89,0-.92.12.08.14-.35.32.9.37Z"/><path d="m17.54,33.82l-.42-.17c-.77.51-.19.38-.3.58.26-.11.5-.25.72-.41Z"/><path d="m234.72,2.45c.87.19,1.79.43,1.93.01-.8-.13-1.59-.26-1.93-.01Z"/><path d="m295.71,15.22c-.38-.09-.76-.15-1.15-.22l.64.4.51-.17Z"/><path d="m282.08,73.26c2.56-1.04,5.01-2.26,7.55-3.4.87-.41,1.21-.68,1.24-.8l-.03-.32c-1.36.68-1.87.79-1.44.42.2-.18.47-.41-.44,0-.27.12-.68.33-1.03.52-.34.18-.62.34-.61.35.36.34-3.33,1.97-4.68,2.81-.28.17-.38.28-.56.42Z"/><path d="m316.68,32.77c-.32-.9-.54-1.85-.97-2.7-.22-.42-.44-.84-.68-1.25-.23-.41-.46-.82-.79-1.16.24.32.39.59.48.81.1.22.17.37.21.49.08.23.07.28.04.32-.06.06-.18.03.3,1.02.29.52.39,1.11.6,1.66.17.56.41,1.1.47,1.69.02-.12.02-.33.01-.55-.03-.21-.07-.44-.09-.61-.03-.34.03-.45.4.28Z"/><path d="m246.28,82.97c-1.51.1-3.41.46-5.39.86.09.12-.16.35.35.35.67,0-1.9.71.47.27,1.64-.33,1.28-.46,1.07-.58-.1-.06-.16-.31.96-.28,2.04.04,1.51-.48,2.54-.62Z"/><path d="m305.3,60.05c.71-.55,1.37-1.16,2.06-1.74.22-.28,1.76-1.99.25-.64-1.67,1.34-2.07,1.97-2.31,2.37Z"/><path d="m300.11,63.79c-.62.48-1.18.94-.74.74,1.32-.61,2.52-1.77,3.82-2.68-.25-.1-1.9,1.14-3.08,1.94Z"/><path d="m255.87,81.69l3.42-.88c-.24-.14-1.34.03-2.7.41-1.05.29-.66.35-.72.48Z"/><path d="m217.31,87.97c-.24.05-.49.09-.75.12l-.07.26c1.06-.16,2.37-.3,2.81-.59l-1.99.21Z"/><path d="m307.87,57.84c.42-.1,1.25-1.08,2.09-2.05l-.2-.06c-.64.7-1.25,1.42-1.9,2.1Z"/><path d="m293.44,66.95c-.18.07-.35.14-.51.21l-.4.31c.21-.1.46-.2.61-.29.15-.09.21-.15.31-.24Z"/><path d="m248.94,82.38l-2,.45c.27,0,.48.07.82,0,.98-.19.94-.32,1.19-.46Z"/><path d="m299.3,64c.27-.1.56-.2.82-.32,1.01-.9.16-.28-.82.32Z"/><path d="m309.77,55.74c.34-.34.79-.89.73-.94-.01-.01-.26.24-.37.38-.55.61-.35.48-.36.56Z"/><path d="m290.84,68.75l.03.32c.98-.61,1.01-.74-.03-.32Z"/><path d="m268.32,77.43s.16,0,.28-.04c-.03-.04-.16,0-.28.04Z"/><path d="m214.7,88.57l-.02.14,1.8-.36c-.58.07-1.18.14-1.77.22Z"/><path d="m297.08,65.52l-.19.08c.07-.03.14-.06.19-.08Z"/><path d="m310.27,55.47l.24-.14c.45-.64.33-.54-.24.14Z"/><path d="m210.75,2.18c-1.09.31-2.78.55-1.57,1.09.52.24,1.14.44,2.24.52,1.63.14,1.83-.15,2.07-.42-.83-.39-1.24-.76-.5-1.1.34-.16.27-.33-.7-.42-1.16-.11-1.36.12-1.54.31Z"/><path d="m285.78,10.45c-2.35-.39-1.66.23-1.94.53.86.21,2.1.29,2.14.75.02.23.81.65,1.59.73.8.08,1.58-.05,1.9-.21.54-.28-1.01-.4-1.47-.6-.89-.39-1.5-.8-2.23-1.2Z"/><path d="m240.48,5.41c1.5,1.21,4.52,1.01,7.34,1.19-1.98-.86-4.3-1.32-7.34-1.19Z"/><path d="m238.29,5.28l.91.03c.16-.04.26-.12.48-.13,1.72-.1,2.88-.29,1.18-.92-.45-.16-1.69-.41-1.5-.18.46.55-5.14.23-1.08,1.2Z"/><path d="m218.75,4.12l2.55.26c.04-.29,2.2-.57-.05-.85-1.67-.21-2.86.08-2.49.59Z"/><path d="m230.83,4.53l2.78.84c-.05-.26,1.5-.38.22-.72-1.02-.27-2.14-.26-3.01-.12Z"/><path d="m280.21,10.5c-.49-.19-.78-.36-1.08-.4-.32-.05-.65,0-.98,0,.26.11.49.26.78.32.31.06.68.05,1.28.09Z"/><path d="m235.52,5.56l2.46.07c.12-.02.24-.04.36-.05l-.09-.22c-1.11-.02-2.71-.27-2.73.2Z"/><path d="m216.5,3.98c.72.22,1.43.47,2.2.14l-2.2-.14Z"/><path d="m274.74,10.71c-.24-.09-.37-.08-.5-.07.09.03.17.07.5.07Z"/><path d="m7.92,64.14c.81.62,1.68,1.44,2.33,1.58.36-.11,1.08.39,1.88.93.81.52,1.68,1.13,2.29,1.29.46.11,1.47,1.42,2.27,1.38.48-.01-.7-.96-1.37-1.61-.7-.65-1.27-1.09-2.46-1.63-1.49-.68-3.13-1.71-3.83-3.12-.4-.85-1.73-1.68-2.43-2.29-1.26-1.03-.51.03.02.85.87,1.24,1.82,2.46,1.3,2.62Z"/><path d="m39.02,77.26c-.12.15.06.41-.76.29-.27.17-2.34-.51-1.43.15.32.24,1.1.63,1.65.78,1.83.53.73-.18,1.19-.24.25-.03.46-.1.82-.08.7.05,2.63.54,1.99.09-.74-.51-2.23-.54-3.46-.99Z"/><path d="m32.68,75.85c-.17-.1-.32-.19-.48-.28l-.54-.02c.21.1.44.23.62.29.16.05.27.02.4.02Z"/><path d="m1,48.3c.06-.32.13-.64.23-.94-.1.3-.17.63-.23.94Z"/><path d="m291.29,13.57c-.16-.1-.18-.22-1.35-.46.14.1.69.23,1.35.46Z"/><path d="m32.07,24.91l-1.71.64c.07.24.59.42.1.72-.86.52-1.63.97-1.21,1.12.21.08.68-.19.86-.33.63-.54,3.11-1.39,2.27-1.65-.28-.09-.21-.33-.31-.49Z"/><path d="m37.24,23.65c-.58.02-.71-.23-1.93.17-.17.05-.54.35-.47.39.34.21,1.48-.26,2.4-.56Z"/><path d="m56.76,17.6l-.76.2c.04.14-.07.35.92.09l-.16-.29Z"/><path d="m23.42,29.55l-.05.38c.96-.43.74-.53.81-.71l-.76.33Z"/><path d="m27.17,27.26l.39.11c.74-.47-.09-.16-.39-.11Z"/><path d="m315.28,30.3c-.49-.99-.36-.96-.3-1.02.03-.03.05-.09-.04-.32-.04-.11-.11-.27-.21-.49-.09-.22-.25-.49-.48-.81-.68-.94-1.16-1.61-1.61-2.03-.97-.87-2.09-1.92-.66-.06.6.7.89,1.35,1.24,1.79.32.46.59.79.83,1.08.41.61.75,1.02,1.23,1.85Z"/><path d="m305.16,19.7c1.06.71,2.61,2.01,2.66,1.77.02-.08-.32-.48-1.53-1.29-.29-.19-.62-.41-.95-.62-.35-.18-.7-.36-1.01-.52-.62-.32-1.11-.55-1.16-.53-.21.06,1.44.84,1.98,1.2Z"/><path d="m306.59,20.06c-.39-.33-.7-.6-.99-.84-.3-.22-.59-.41-.9-.6-.8-.47-2.23-1.3-2.35-1.22-.06.04.43.41,1.28.89.91.53,1.85.97,2.96,1.77Z"/><path d="m295.51,14.96c-.1-.08-.07-.16-.95-.47-.28-.09-.45-.08-.66-.12.55.17,1.09.36,1.61.59Z"/><path d="m309.21,22.45c-.23-.17-.1-.05.03.07l-.03-.07Z"/><path d="m297.05,15.65l-.37-.15-.37-.15c.24.13.48.23.75.3Z"/><path d="m177.1,2.78c-.19-.34-1.11-.45-2.4-.29-1.64.19-.98.52-1.13.79,1.6,0,1.64-.68,3.53-.5Z"/><path d="m197.58,1.47c.04.32-.47.69,1.7.8-.13-.27.31-.55-.72-.79h-.98Z"/><path d="m177.12,2.77l.2.08c-.07-.03-.14-.05-.2-.08Z"/><path d="m80.31,88.56l1.59.3c-.26-.18.59-.31-.69-.51-.73-.11-.94.05-.91.21Z"/><path d="m101.98,91.44c1.45.16,2.94.34,2.97-.09-1.09,0-2.3-.08-2.97.09Z"/><path d="m153.22,3.56c1.78-.31,3.62-.81,4.14.05.12.19.74.2,1.51.17.76-.01,1.66-.07,2.32-.04-.74-.44-1.33-.9-2.25-1.31-1.96-.83-5.49-.68-8.31.3-.35.12-.52.29-.96.37-1.62.31-1.68,1-.04,1.16q.68.06,1.04-.41c.17-.22.1-.49,1.33-.59.38-.03.81.19,1.22.29Z"/><path d="m139.86,4.92l.96-.08c1.63-.89-1.05-1.26-1.03-1.96l-2.63.66c-.19.66,3.36.64,2.7,1.38Z"/><path d="m144.16,2.36c-.97.05-1.98.09-2.68.34.03.03.01.08.1.09,1.21.14,1.05.83,2.5.62,2.15-.32-.3-.66.08-1.04Z"/><path d="m148.94,2.67c.25-.08.55-.15.52-.18-.09-.11-.29-.2-.45-.3-.11.07-.32.14-.32.19,0,.09.14.17.24.29Z"/><path d="m161.79,1.35c-.59-.04-1.2-.08-1.32.16.56.02,1.36.17,1.32-.16Z"/><path d="m159.26,1.53l-.36.12c.16-.03.32-.07.36-.12Z"/><path d="m10.74,37.63c.66-.5,1.33-1,2.02-1.47.09-.52,1.05-1.34,2.11-2.14,1.06-.81,2.23-1.59,2.7-2.18-.24-.15-.1-.64-1.87.41.94-.11-.27.78-1.01,1.37-.91.71-1.51.79-1.99.85-.73.48-1.46.95-2.16,1.46-1.76,1.76-2.5,2.79-2.46,3.01.05.24.9-.32,2.66-1.32Z"/><path d="m12.7,34.48c.48-.06,1.08-.15,1.99-.85.74-.59,1.95-1.49,1.01-1.37-1.21.71-2.78,1.52-2.99,2.23Z"/><path d="m3.49,43.4c1.08-.8,1.56-1.41,1.91-2.05.34-.64.56-1.27,1.1-1.88-1.67,1.17-2.46,2.56-3.01,3.93Z"/><path d="m1,48.32c.06-.33.13-.66.24-.98-.28.27-.36.61-.24.98Z"/><path d="m106.58,9.03c1.72-.29,1.77-.54,1.87-.85-.32-.36.6-.39,1.58-.41.49-.47.03-.91,2.51-1.36.44-.57-2.27-.02-2.7-.28-3.44,1.07-3.58,2.05-3.25,2.91Z"/><path d="m134.63,5.01l1.11-.18c-.64-.12-.78.08-1.11.18Z"/><path d="m173.9,92.15c-.42.15-.53.3-.64.45,1.79-.06,3.58-.18,5.36-.26,1.61-.09,1.63-.29,1.69-.49-.96.01-2.13.14-2.7-.04l-3.7.34Z"/><path d="m178.62,92.34c-1.78.09-3.56.2-5.35.26l-.06.32c2.06-.03,4.12-.12,6.19-.17l-.78-.41Z"/><path d="m198.85,90.05c-.05-.14-.15-.29-1.14-.23-.44.03-1.02.21-1.53.32.65.12,1.69,0,2.67-.08Z"/><path d="m177.6,91.8c.58.18,1.75.06,2.7.04-.56-.19-1.65-.1-2.7-.04Z"/><path d="m188.29,91.91c0-.08.83-.22.03-.25-.08,0-.33.02-.41.04-.51.14-.2.19.38.21Z"/><path d="m71.73,15.07c1.42-.5,3.01.47,4.33-.98.03-.44-.72-.39-1.67-.21-.94.21-2.08.55-2.83.63.06.18.12.37.17.55Z"/><path d="m89.8,10.67l-.35.11c.11-.04.22-.07.35-.11Z"/><path d="m71.55,14.52l-.21-.04c.07,0,.15.02.21.04Z"/><path d="m214.7,88.57l1.79-.22.07-.26c-1.26.13-1.85.29-1.86.48Z"/><path d="m112.22,92.14c4.5.7,5.08.15,5.13-.52l-.92-.8c-3.33-.71-5.29-.17-7.92-.25-.37.58-.2,1.15,3.71,1.56Z"/><path d="m155.23,92.46l.39.02c0-.07-.16-.08-.39-.02Z"/><path d="m237.99,5.64l.62.13-.26-.19c-.12.02-.24.04-.36.05Z"/><path d="m146.6,92.31c.31.05.62.1.94.15,0,0,.17-.04.25-.05-.39-.03-.77-.06-1.19-.09Z"/><path d="m96.21,89.01l-1.67-.37c.09.24.14.5,1.67.37Z"/><path d="m173.26,92.6l.33-.46c-.88.03-1.85.06-1.99.26-.14.2.71.22,1.66.2Z"/><path d="m101.17,9.49c.07-.22.06-.43-.82-.43.12.18-.23.47.82.43Z"/><path d="m96.72,9.06l.2.05c-.07-.01-.14-.03-.2-.05Z"/><path d="m103.71,8.27c-.21-.12-.22-.32-.66-.32-.58,0-1.09.26-.89.34.39.16-1.32.91,1.36.44.06-.16.13-.31.19-.46Z"/><path d="m103.71,8.27c-.06.15-.13.31-.19.46,1.32-.32,1.19-.45.19-.46Z"/><path d="m49.67,19.7c-.13,0-.25-.02-.41-.01-.02,0-.3.11-.31.14-.02.06.04.1.07.14l.64-.27Z"/><path d="m47.27,80.89l.36.05c-.13-.02-.26-.04-.36-.05Z"/><path d="m281.45,9.6l1.39.1-.32-.2c-.38.02-.75.04-1.07.09Z"/><path d="m57.19,16.94l1.13-.18c-.11-.09-.35-.1-.6-.12l-.53.3Z"/><path d="m110.02,7.77c-.98.02-1.9.05-1.58.41l1.58-.41Z"/>
                  </g>
                </mask>
              </defs>
              <path class="mask" d="m311.59,17.2C227.96-4.64,123.77-2.65,43.32,22.32,22.45,28.79,1.16,38.76,1.92,51.58c.55,9.34,13.07,17.34,27.22,22.91,22,8.66,48.85,13.26,75.84,15.76,45.53,4.21,93.3,2.71,136.54-5.93,23.61-4.72,46.39-11.83,61.07-22.71,14.68-10.88,19.79-26.05,8-37.88-11.79-11.83-42.62-18.07-64.25-11.19"
                    mask="url(#path-mask)" stroke="black" stroke-width="2" fill="none"
                    stroke-dasharray="755.2825927734375" stroke-dashoffset="755.2825927734375">
              </path>
            </svg>
        