
            <svg xmlns="http://www.w3.org/2000/svg">
              <defs>
                <mask id="path-mask">
                  <g fill="white">
                    <path d="m19.47,48.83c1.31.44.55-.02.84-.02l.91.4c.73.36,1.57.77,2.28,1.12,1.42.75,4.31,1.51,5.63,1.48.84.23,1.38.32,1.76.32,1.1.38,2.83.47,3.67.86.22.18,1.2.49.33.48-.62-.02-1.29-.1-2.25-.37-.79-.21-1.52-.37-1.99-.37l-.75-.18c-.95-.16-2.11-.83-2.91-.7-.29-.09-.81-.25-.82-.25-.81.08-2.47-.57-3.9-1.12v-.09c.41.11.34.06-.1-.11-.07-.02-.15-.05-.23-.08v-.13c.24.08.6.22.61.17,0-.01-.17-.09-.26-.13-.42-.14-.31-.06-.37-.05l-1.44-.47c-.12-.04-.23-.09-.35-.13.2,0,1.38.39.38-.07-1.05-.49-1.45-.53-1.71-.52-.25.02-.71-.14-1.4-.51,0-.18-1.05-.57-1.74-.91l.06-.03c.7.22.19-.03-.38-.3-.16-.1-.29-.17-.4-.23h0c-.37-.25-.54-.24-.89-.47l-.08-.08.09.09c-.09.05.09.35-1.14-.59-.76-.59-1.42-1.09-1.39-.87l-.75-.61-.5-.7c.39.35.59.47.66.45.51.36.59.35.16-.09-.62-.55-.78-.77-.5-.65.13.06.31.14-.08-.23-.12-.11-.3-.27-.47-.41-.16-.14-.29-.24-.3-.24-.11.26-1.66-1.27-2.3-1.86-.13-.12-.21-.15-.31-.22l-.15-.07c-1.25-1.54-2.23-3.37-3.09-4.95-.2-.41-.41-1.01-.49-1.45-.2-.79-.35-1.31-.54-1.72-.24-1.26-.39-2.54-.33-3.82l.07-.07c.09-.11.17-.71.22-1.48.07-.59-.03-.41-.08-.46.25-2.11.98-4.18,2.17-6.07l-.07.06s-.14.08.09-.28c.03-.12,0-.2.33-.64.01.24.66-.6,1.25-1.23,1.24-1.39,2.9-2.74,4.12-3.8.85-.73,1.45-1.18,2.36-1.78.55-.35.19-.25.2-.33,1.78-1.14,3.6-2.21,5.5-3.14l.04.11c-.34.25-.22.26,0,.24.37-.04-.08.26-1.08.76-.29.16-.56.34-.84.52-.51.3-1.14.62-1.32.84l.96-.5c.15-.02.73-.28.04.17-.41.16-.8.36-1.14.65l-1.31.82c-.66.16-1.78.75-2.96,1.49-.71.69-1.74,1.69-1.75,1.98-1.03.88-2,1.84-2.8,2.95-.07-.01-.04-.19-.24,0-.27.24.54-.95-.27.07-.54.73-.35.65-.23.61.06-.01.15.04-.27.46-.77.78-.38.76-.86,1.54-.09.11-.19.18-.27.34-.24.48-.17.51-.19.65-.69,1.6-.97,3.27-1.14,5.11-.05.96.14,1.47.3,1.73.21,2.8,1.21,5.51,2.65,7.92-.04.01-.12-.04-.1.06.06.28-.82-.8-.04.46.7,1.11.23.06.41.18.05.03.29.39.46.58,1.47,1.88,3.31,3.71,5.23,5.3.56.47,1.59,1.05,1.95,1.53.14.16.54.52,1.12.95h-.02c1.37.77,3.53,1.8,4.45,2.1Zm-7.13-4.12l-.25-.13c.09.08.2.18.27.24.08.05.12.06.19.1-.07-.07-.15-.14-.22-.21Zm-8.51-11.09c-.01-.05-.03-.12-.05-.19-.02.02,0,.09.05.19Z"/><path d="m23.14,2.63c3.13-.94,6.32-1.31,9.5-1.68.47.29,2.5-.13,3.83-.22.28.08.26.2,1.67-.03.86-.14,2.11-.2,3.22-.26.89,0-1.82.5,1.42.19.48,0,1.15-.06,1.22.06.04.06.5.12.92.1.43-.02.83-.1.98-.16.25-.1-.58-.05-.84-.08-.51-.06-.88-.13-1.31-.19.26-.09,1.44-.06,1.37-.18.72.16,3.25,0,3.24.25,0,.12-1.03.23-1.46.38-.45.15-2.38.18-3.92.2-.69,0-1.35-.02-2.04,0-.66.03-1.49-.02-1.96.11-.51.14,1.32-.03.99.12-1.05.16-2.14.29-3.37.34-.11-.19-.45-.31-2.26.07-1.34.27-3.09.21-4.36.6l-.5.09-.96.09c-1.62.05-3.35.36-5.11,1.05-1.11.15-2.37.42-3.83,1.14-.21.09-.43.16-.64.26.07-.05.11-.09.21-.14.83-.4,1.37-.71.43-.49-.25.05-.9.27-.77.29.3.03-2.44,1.3-.33.59-.54.25-1.34.6-1.26.73l-.92.46c-.07-.05.63-.49-.02-.23-.53.2-1.03.55-1.39.83-.19.11-.38.21-.56.33-1.14.71-1.29.63-1.52.63-.13,0-.43.14-.96.51-.2.14-.49.38-.53.45-.12.19.31-.1.67-.32,1.27-.77-.82.89.3.24-.18.29-.86.76-1.47,1.24l-.06-.06c-.04-.08.81-.87-.2-.17-.74.52-1.17,1.01-.94,1.01-.31.24-.62.49-.92.74-.45.31-.89.64-1.33.97-.41.23-.65.31-.44-.04.1-.16.03-.17-.36.18-.47.42-.49.56-.51.66-.23.19-.46.39-.67.59l-.16-.12c1.05-1.1,2.29-2.29,3.24-2.73.36-.17.76-.56.77-.69,0-.1-.14-.09.34-.51,1.92-1.74,4.19-3.37,6.74-4.51,1.61-.59,4.86-1.89,6.84-2.67Zm17.04-1.87c-.18.01-.35.05-.52.07.15,0,.29.03.45.03.17,0,.37-.04.68-.08-.28,0-.45-.03-.61-.02Z"/><path d="m103.68,36.02c.24-.56.42-.97.62-1.3.16-.34.31-.61.47-.89.15-.29.29-.04.43-1.04.12-.8-.04-.64-.18-.51-.13.12-.25.18-.37.26.17-.93.23-1.88.16-2.81.1-.02.31.31.14-.99-.16-.97-.23-1.42-.08-1.43.12.08.37,1.24.37.64,0-.21-.05-.69-.15-.98-.3-1-.24-.29-.37-.49-.08-.11-.16-.18-.25-.35-.16-.33-.64-1.29-.56-.89.09.46.52,1.11.68,1.79l-.2.05c-.78-2.59-2.2-4.88-3.9-6.89.43.18.9.17,2.1,2.15.2.33.52.84.68.93.17.09-.06-.32-.33-.78,0-.21,0-.41.04-.57.17.2.33.41.48.62-.09-.2-.17-.39-.27-.58,1.17,1.48,1.94,3.15,2.22,4.81,0,.46.04,1.3.27,2.14.23.81.22,2,.05,3.09-.06.55-.21,1.06-.27,1.52-.09.45-.18.84-.16,1.15-.64,1.51-1.42,3.04-2.43,4.36-.16-.2-.94.78-1.6,1.58-.6.71-1,1.1-1.57,1.5.04-.31,1.34-1.33,1.65-1.93.13-.21.85-.69.93-1.09.05-.24-.49.36-.89.67-.39.33-.66.62-1.1,1.15-.54.7-1.28,1.43-2.03,1.75-.45.19-1.05.79-1.44,1.11-.65.58-.05.22.4-.03.72-.39,1.39-.84,1.39-.59l-.37.38c-.89.35-2.25,1.45-3.56,2.19-.49.3-1.62,1.02-1.4.6.06-.09-1.48.83-1.51.91-.03.18-.47.39-1.07.65l-.44.2c-.79.43-1.74.93-1.51.53.36-.31.34-.3-.38-.07-.32.11-.74.23-.83.22-.29-.05.97-.51,1.13-.68,1.23-.57,2.46-1.3,3.6-1.59.3-.07,1-.58.95-.57-.25.03,1.35-.92.15-.38.01-.09.14-.16.6-.43,1.52-.86,3.06-1.76,4.34-3.01.27.13.71-.23,1.19-.71.46-.5.97-1.11,1.36-1.54.91-.99,1.33-1.91,2.11-3.07,0,.18-.13.5-.08.54.05.03.27-.23.78-1.31Zm1.63-5.31c.02.09.04.19.05.28.03-.12.03-.26.03-.37,0-.09-.03-.14-.05-.21-.01.1-.03.2-.04.3Z"/><path d="m64.91,52.88c.83-.23,1.77-.43,2.68-.64.91-.23,1.8-.47,2.55-.75,1.4-.19,3.42-.97,5.01-1.45.45-.14.62-.21.93-.34.96-.41,1.07-.85-.03-.53-1.15.35-1.53.4-1.86.39-.34-.01-.93.06-1.96.58-.11.05-.56.21-.76.25-.95.26-1.88.51-2.8.75-.92.26-1.85.51-2.79.71-4.35.97-8.76,1.65-13.21,1.94l.02.12c.38-.03.68-.05.77,0,.66-.08,1.45-.17,1.99-.21,1.31-.14,2.91-.43,3.97-.43.31,0,1.61-.11,2.93-.31,1.32-.2,2.67-.43,3.11-.58.15-.04.3-.11.27-.12-.25-.1.6-.22.99-.27.46-.05.76-.09,1.17-.13.23-.03.92-.25.87-.18-.03.04-.43.18-.97.34-1.14.31-2.77.63-2.88.86Z"/><path d="m59.8,55.07c1.17-.13,2.56-.19,3.31-.45-.34,0-.77,0-1,.02-.9.12-1.74.26-2.42.13-.55-.12.21-.23.75-.37.96-.25,1.71-.21,2.51-.17.5.03,1.32-.02,1.72-.11,1.35-.34,1.98-.23,2.81-.22.52-.06,1.18-.18,1.33-.08.03.02-.2.1-.3.11-.69.08-.72-.01-1.03-.03l-1.43.52c1,.19,2.24-.16,3.41-.38-.05-.1.02-.18.87-.33-.02-.07.04-.15-.09-.19-.4-.13,1.01-.33,1.41-.49.11-.04.4-.11.49-.07.19.08-.27.19-.79.34-.29.08-.05.17-.05.26.45-.16,1.8-.24,1.9-.47-.18,0-.64.08-.2-.06l.18.06c.68-.08.3.17,1.14,0,.29-.06.51-.23.76-.37-.02-.06.07-.13.46-.24-.02-.02-.05-.03-.09-.05l-.44.09c-.75.03-3.07.35.03-.34.2-.05.28-.15.41-.23-1.33.29-2.72.65-3.97.64-.15,0-1.93.47-3.15.62-.32.12-.73.21-1.46.3-2.14.29-4.39.31-6.43.65-.84-.15-2.31.17-3.19.1-.86-.08-1.55-.08-2.6.06-1.44.18-2.07.1-2.11-.12l-2.37.06c.11.13-.54.23-1.02.33,1.09.17,2.23.33-.08.52-.3.02-.1.08.19.11.93-.14,2.3.04,3.09-.1,1.81-.32,1.45-.04,1.7.08l.51-.02c.04-.08.32-.13.89-.16.06-.1.45-.15,1.01-.18l-.05-.11c.55-.01.47.05.47.1,1.09.07,2.72-.01,2.91.23Z"/><path d="m37.87,53.9c.61.09,1.05.12,1.38.08.7-.05,1.54-.08.29-.34-1.96-.43-2.09-.17-3.13-.26-.63-.12-1.25-.24-1.87-.41-.84-.39-2.57-.48-3.67-.86v-.15c1.08.31,2.38.33,3.16.63.99.37,2.07.49,3.28.62,4.77.53,9.58.78,14.41.61.09.06.08.12-.51.19l-.93.03-.48-.04c-.15-.02-.29-.02-.44.02-3.05.02-3.48.08-2.32.33.04,0,.05.02.07.03,2.71-.13,3.44.29,6.09.05,1.1-.13,2.56-.25,2.88-.1-.72.08-1.52.3-1.77.24-.47-.13-1.22.03-1.96.07-2.64.12-5.23.17-7.95.06-3.87-.11-7.85-.64-11.74-1.42-.78-.12-2.02-.36-2.03-.57.48,0,1.2.15,1.99.37.96.27,1.63.35,2.25.37.99.23,2,.42,3,.43Zm4.84.09c.02.06.29.18,1.07.19.76,0,1.88-.02,1.92-.09.09-.13-.9-.04-1.25-.09-.69-.02-1.78-.19-1.74,0Zm2.23.61c.5.03,1.39.06,1.42-.06.02-.06-.3-.1-.83-.13-.57-.02-1.12-.01-1.86-.02.54.09.87.18,1.27.2Zm-2.91-.56l-.29-.03.03.03c.22.02.23.01.25,0Z"/><path d="m2.11,17.61c-.55,1.11-.95,1.99-1.41,3.31C0,22.85-.15,25.44.13,27.72c.03.29.06.58.09.87l.16.87c.1.58.23,1.14.45,1.63l.18-.04c.01-.27-.03-.91.21-.19.34,1.07.62,1.48.87,1.81.25.33.45.58.84,1.23-.36-.73-.59-1.4-.89-1.96-.03-.07-.06-.14-.09-.19-.11-.05-.12.32-.4-.52-.23-.66-.33-1.15-.23-1.27v-.12s0,.11,0,.11c.18,1.01.42.98.63,1.79.02.05.04.06.05.05-.04-.49-.18-1-.35-1.52-.15-.52-.28-1.06-.37-1.58-.21-.64-.31-1.33-.38-2.03.02-.7,0-1.42.16-2.13.1-.42.19-.69.13-1.17-.09-.76.22-1.8.59-2.76.39-1.42,0-.86-.3-.57-.08.07-.25.35-.08-.16.13-.44.28-.67.41-.82l.22-.49c-.27.19.34-1.14.08-.93Z"/><path d="m85.25,10.31c-.84-.45-1.74-.88-3.01-1.24-1.61-.37-3.26-.89-4.97-1.6-.36-.02-1-.19-1.57-.33l-.92-.33c.1.09.23.26.28.27,1.73.47,2.8,1.07,4.44,1.59,1.19.39,2.27.77,2.51,1.1,0,0,.13.06.19.08l.69.18c-.11-.3,1.07.15,1.96.52,2.93,1.19,5.95,2.29,8.72,3.95,1.66,1.01,1.75,1.05.83.79-.28-.07-.49-.08-.72-.12,1.63.84,3.29,2.13,4.59,2.86-.26-.23-.5-.46-.78-.69-.46-.36-1.24-.72-1.37-.99-.06-.11.78.31,1.29.61.28.15.74.53,1.11.82.3.25.63.52.81.61.24.1-.03-.21-.33-.5-.45-.46-.5-.68-1.3-1.28-.93-.87-2.07-1.71-3.56-2.46-1.76-.78-3.76-1.66-5.78-2.55,0,.06-.11.09-.48-.06-.65-.27-.2-.19-.32-.3-.94-.17-1.92-.29-2.31-.94Z"/><path d="m50.29,54.06l-.48-.04h-.22s-.22.02-.22.02c-3.05.02-3.48.08-2.32.33.04,0,.05.02.07.03,2.71-.13,3.44.29,6.09.05,1.1-.13,2.56-.25,2.88-.1.79-.18,2.22-.31,2.8-.5-.77-.02-.05-.24.35-.31,1.16-.17.47.06.65.12.04.01,0,.03,0,.05.91,0,2.4-.4,3.41-.52.6-.17,1.14-.26,1.62-.3.11-.24,1.75-.55,2.88-.86.54-.15.94-.29.97-.34.05-.07-.64.15-.87.18-.41.05-.71.08-1.17.13-.39.06-1.24.17-.99.27.03.01-.12.07-.27.12-.44.15-1.8.38-3.11.58-1.32.2-2.61.3-2.93.31-1.05,0-2.65.28-3.97.43-.55.04-1.33.13-1.99.21-.64.1-.67.05-.77,0l-.02-.12-.94.03c.09.06.08.12-.51.19-.12.03-.2.08-.36.09-.5.03-.51-.02-.57-.06Z"/><path d="m4.87,37.65l-.05.07c.08.4.12.74.26,1.23.33,1.03,1.46,2.62,2.7,3.62.15.13.26.16.43.33.65.61.85.5.32-.21-.22-.3-.22-.29-.46-.35-.12-.03-.17.05-.6-.45-.14-.15-.21-.38-.32-.58-.75-1.01-.55-1.06-.62-1.35.91,1.09,1.85,2.2,2.82,3.29-.57-.28.38.78.85,1.29.22.13.44.25.66.36.4.29.83.56,1.25.83,0,.03,0,.05-.02.05-.9-.32.17.65.02.82-.26-.17-.52-.33-.77-.51,0-.02.01-.02-.02-.05-.49-.44-.26-.55-.92-1.01-.95-.71-.04.26-.28.21l-.52-.25c-.88-.75-1.65-1.62-2.38-2.47-.73-.86-1.42-1.75-2.01-2.69-.18-.26-.37-.51-.55-.78l.09-.11.14.15-.17-.21-.33-.5c-.16-.26-.34-.65-.42-.59l-.55-.8.09.11.06.14c-.22-.64-1-2.1-.96-2.63.01-.13-.26-.63-.56-1.24-.28-.63-.66-1.34-.84-1.88-.07-.18-.13-.28-.2-.42.01-.27-.03-.91.21-.19.34,1.07.62,1.48.87,1.81.25.33.45.58.84,1.23.64,1.31,1.34,2.53,1.94,3.75Zm3.25,5.45c0,.06.05.16.08.24.06.03.15.11.16.09.02-.02,0-.09,0-.15-.11-.09-.23-.2-.23-.18Z"/><path d="m70.33,53.71c-.85.15-.92.23-.87.33l.8-.09.61-.11c1.54-.19,3.03-.39,4.63-.82.65-.19,1.6-.38,2.4-.51.88-.13,2.5-.53,2.76-.64,2.82-1.03,5.6-1.83,8.31-2.85.99-.37,1.55-.76,2.34-1.12,4.01-1.91,7.82-4.41,10.8-7.84.32-.36.64-.76.75-1.02-.16-.2-.94.78-1.6,1.58-.6.71-1,1.1-1.57,1.5-.18.28-.66.7-1.08,1.03l-.37.38c-.89.35-2.25,1.45-3.56,2.19-.49.3-1.62,1.02-1.4.6.06-.09-1.48.83-1.51.91-.03.18-.47.39-1.07.65-.12.13-.27.19-.45.2-.78.43-1.73.93-1.5.52l-.67.27c-.66.39-1.36.77-2.4.99-.76.46-1.5.94-2.68.93-.44.14-.88.28-1.33.39-.24.24-1.16.44-1.88.65-1.07.27-.91.11-1,.04-1.17.56-2.44.75-3.71.85-.25.14-.46.31-.76.37-.84.16-.46-.09-1.14,0-.08.22-1.44.3-1.89.46l-.98.15Z"/><path d="m19.4,50.39c.6.35,1.27.71,2.28.91-.51-.29-1.01-.58-.32-.49.54.08.87.38,1.43.53.65.44,1.11.44,1.62.48.58.05,1.13.18,1.46.45,1.33.33,1.17.11,1.44.05-.16-.2-1.2-.55-1.68-.8-.83-.4-1.96-.76-3.06-1.07-.83-.23-1.53-.47-2.28-.8-.81-.23-.09.33-1.44-.22-1-.41-.77-.49-.88-.65l-.88-.38c.02.12.1.26.05.34-.03.05-.45-.11-.82-.28-.33-.16-.55-.32-.34-.26.3.09,1.09.37.32-.06-.19-.12-.94-.35-1.43-.54-.16-.06-.26-.05-.53-.26l.54.27c-.19-.41-1.26-.92-2.35-1.54-.45-.01,1.12,1.09.9,1.19,1.87.92,1.79,1.02,1.55,1.14.76.36,1.33.78,2.15,1.08-.02-.25.91-.06,2.22.5,1.85.74-.68-.04-.07.31.08.05.09.08.13.11Z"/><path d="m33.75,4.32l-.77.16c-.49.11-.98.27-1.47.41l-.54.14s.04.03.06.04c.33-.05.49-.06.23.04-.04.02-.17.05-.21.06-.43.07,0-.07,0-.11-.77.17-1.33.37-1.66.56-1.05.58-2.88.92-2.87.84.04-.26-1.15.14-2.02.41-1.06.44-2.07.97-3.12,1.47-.45.24-1.35.62-1.05.62.25,0,1.18-.52,1.44-.58.81-.22,1.88-.99,2.42-.9.6-.2,1.3-.45,1.43-.38.5-.18,1.04-.35,1.39-.39,1.11-.35,2.25-.63,3.37-.92,2.23-.49,4.11-1.17,6.41-1.43l-.02-.14c-.56.1-1.14.21-1.45.17.02-.09.03-.17.89-.32l-.44-.12c-.68.1-1.34.24-2.01.37Z"/><path d="m49.27,55.23c-.3-.03-.49-.09-.19-.11,2.31-.19,1.17-.35.08-.52h-.89s.02.22.02.22l.11.03-.1-.03c-.81-.07-2.57.06-2.42-.23-1.34,0-2.54-.29-4.04-.18-.22.02-1.14-.12-1.18-.24l-1.4-.13c-.62.12-2.4,0-2.09.28.01.01-.31,0-.48,0-.99-.52-1.49-.08-2.3-.27,0,.02,0,.04,0,.07,2.36.7,2.98.4,3.85.26h.19s-.2,0-.2,0c.48.08,1.37.18,1.38.22.2.52,2,.33,3.43.37,1.5.03,3.22-.03,4.53.2.65.06.55.23,1.68.22l.03-.14Z"/><path d="m6.04,13.28c-.23.19-.46.39-.67.59-1.49,1.59-1.58,1.5-1.63,1.17-.5.55-.38.59-.58.89.64-.35.13.63-.76,2.38.36-.33.5-.28.4.21.38-.35.46-.76.64-1.14-.18.22-.26.25-.06-.07.28-.44.29-.33.36-.35.78-.81,1.71-2.16,2.55-3.02,1.36-1.41,3.11-2.68,4.51-3.95l-.06-.06-1.11.82c-.27.36-.61.56-.95.76-.45.31-.89.64-1.33.97-.03.15-.04.28-.69.87-.42.41-.72.6-.95.77-.56.38-.03-.35.33-.83Z"/><path d="m24.19,7.47c-.53-.09-1.61.68-2.42.9-.27.06-1.19.58-1.44.58-.3,0,.6-.38,1.05-.62,1.05-.5,2.06-1.03,3.12-1.47l-.43.04-.53.19c-.69.37-1.5.72-2.33,1.07-.82.39-1.68.74-2.45,1.16-.34.25-.22.26,0,.24.37-.04-.08.26-1.08.76v.06c.03.08-.25.26-.85.59-.12.07-.24.14-.35.21.15-.02.73-.28.04.17l.06.03c2.39-1.3,4.88-2.37,7.4-3.44-.46.03-1.27.19.21-.48Z"/><path d="m63.04,4.02c-.56-.08-.47-.35-1.51-.31-.77.02-1.46-.27-2.22-.32-.24.22-1.26.05-2.32-.16-.9-.19-1.66-.19-2.36-.17-.72.03-1.04.11-.3.29,1.01.1,1.93.25,3.01.33,3.38.22,3.76.31,6.39.96.06.02.19.05.21.05,1.41,0,3.4.77,4.81.88-.1-.14-.09-.28-1.01-.55-.05.08-.27.04-.91-.11-1.34-.32-2.6-.62-3.81-.9Z"/><path d="m24.19,7.47c-1.48.67-.66.51-.21.48,1.03-.29,1.71-.45,3.11-1.06,1-.47,3.15-.94,4.85-1.34,2.29-.55,4.72-1.05,7.1-1.24,1.04-.11,1.73-.16,1.6-.33-.13-.16-.97-.08-1.91.08-.65.09-1.3.17-1.95.29-2.3.26-4.19.94-6.41,1.43-1.12.28-2.26.57-3.37.92-.26.11-.54.26-.77.33-.51.15-.57.11-.61.06-.13-.08-.83.18-1.43.38Z"/><path d="m38.22,54.37c-.87.14-1.49.44-3.85-.26-.65-.06-1.29-.14-1.94-.22-.52-.03-1.06-.1-.95.04.87.35,2.07.41,3.06.55,3.79.53,7.6.86,11.44.83,1.02-.01,1.17-.08,1.56-.15-1.32-.23-3.04-.17-4.53-.2-1.43-.03-3.23.15-3.43-.37-.01-.04-.9-.14-1.37-.21Z"/><path d="m93.68,15.18c.24.04.44.05.72.12.92.26.82.22-.83-.79-2.77-1.66-5.79-2.76-8.72-3.95-.89-.37-2.07-.83-1.96-.52,1.6.86,3.44,1.53,5.47,2.24,1.31.46,2.25.97,1.9,1.1,1.31.49,2.26,1.18,3.42,1.8Z"/><path d="m68.77,5.57c-1.42-.11-3.41-.88-4.81-.88-.02,0-.14-.03-.21-.05-2.64-.66-3.01-.74-6.39-.96-1.08-.08-2-.23-3.01-.33.41.26.86.49,2.5.76h1.22c.46-.1,1.15.02,2.11.17,1.18.19,2.6.41,3.61.61,2.04.41,3.9.57,5.8,1.17l-.45-.39c-.13-.03-.26-.07-.38-.1Z"/><path d="m44.55,3.57c.61-.21,1.11-.47-1.39-.32-.81.05-.31-.07-.25-.13,1.23-.22,2.6-.19,3.48-.14,2.24.19,2.75,0,3.24-.22h.46c1.48.13,3.88.35,1.58.56-.42.04-.41.16-.6.25-1.26-.04-2.52-.05-3.78-.04-.82,0-1.43.04-1.51.17l-1.4.03c.05-.05.03-.11.17-.16Zm4.02-.27s.13,0,.25-.02c-.07,0-.14,0-.25.02Z"/><path d="m45.11.18c.72.16,3.25,0,3.24.25,0,.12-1.03.23-1.46.38-.45.15-2.38.18-3.92.2-.69,0-1.35-.02-2.04,0-.66.03-1.49-.02-1.96.11-.51.14,1.32-.03.99.12,2.26.06,5.06-.23,7.39-.01.73.07.58-.11,1.17-.12.58-.05-2-.21.12-.22.72-.17,2.59-.16,2.32-.41-.44-.05-1.01-.08-1.3-.13-.71-.12-.68-.44-2.51-.22,0,0-.17-.02-.39-.05-.21-.02-.48-.05-.68-.07-1.19-.06-2.32-.03-3.31.11.35.23,1.66-.04,2.33.04Z"/><path d="m51.4,1.19c.58.04,1,.11,1.3.19.75.21,2.17.42,3.3.45,1.01.03,1.93,0,2.07-.14.25-.25-.99-.57-3.83-.82-.69-.06-1.54-.21-2.33-.32-.87.08-.55.24.37.4.93.16,1.79.18,2.47.14.25-.02,1.38.06,1.27.16-.1.09.54.26.12.31-.26.03-.39.1-1.15.03-.79-.07-1.13-.16-1.21-.24-.09-.08-.2-.17-1.08-.23-.86-.06-1.3-.04-1.3.07Z"/><path d="m69.6,6.06c-1.9-.6-3.76-.77-5.8-1.17-1.01-.2-2.44-.42-3.61-.61-.97-.15-1.65-.27-2.11-.17,1.62.52,4.11.69,6.13,1.1,3.02.58,6.12,1.16,8.95,2.17l.26-.02c-.4-.22-1.88-.76.43-.16.76.2,1.21.21-.07-.2-1.38-.34-2.45-.33-4.18-.95Z"/><path d="m52.55,54.21c.04.22.67.3,2.11.12,1.06-.14,1.74-.14,2.6-.06.88.07,2.35-.25,3.19-.1,2.04-.35,4.3-.37,6.43-.65.73-.09,1.14-.17,1.46-.3-1.98.08-4.11.29-6.41.51-1.46.14-2.95.24-4.56.25-1.4,0-3.2.16-4.83.23Z"/><path d="m17.22,5.84l-.92.46c-.48.18-.94.4-1.42.6-.19.11-.38.21-.57.33-.57.43-1.16.82-1.7,1.28,1.19-.46,3.22-1.86,4.85-2.59,3.18-1.51,6.6-2.6,10.12-3.26l.93-.23c-1.62.05-3.35.36-5.11,1.05-1.46.46-2.92,1.1-3.83,1.14-.21.09-.43.16-.64.26l-.44.21s.05.05.08.06l.16-.02-.32.12c-.4.19-.8.38-1.18.6Z"/><path d="m9.34,16.3c-1.03.88-2,1.84-2.8,2.95-.67.85-1.23,1.71-1.71,2.36-.34.65-.49.98-.63,1.32-.69,1.6-.97,3.27-1.14,5.11-.05.96.14,1.47.3,1.73-.21-2.57.29-5.17,1.42-7.46,1.14-2.3,2.85-4.31,4.77-6.05l-.21.05Z"/><path d="m42.91,3.11c1.23-.22,2.6-.19,3.48-.14,2.24.19,2.75,0,3.24-.22-3.69-.14-7.42-.03-11.06.64-.88.16-1.45.1-2.17.25-.99.18-2.52.4-2.65.67.67-.14,1.34-.27,2.01-.37,1.11-.18,2.22-.32,3.33-.44,1.27-.16,2.54-.3,3.82-.39Z"/><path d="m14.05,46.44c-.09.05.09.35-1.14-.59-.76-.59-1.42-1.09-1.39-.87.99.85,2.02,1.65,3.12,2.38h.02s.04.03.04.03c2.4,1.19,4.9,2.25,7.55,3.07v-.09s-.1-.11-.1-.11c-.07-.02-.15-.05-.23-.08-.66-.2-1.31-.4-1.45-.6-.12-.04-.23-.09-.35-.13l-1.33-.58c-.25.02-.71-.14-1.4-.51-.78-.35-1.65-.59-2.3-1.02-.22-.14.16-.04.56.11l.06-.03-.38-.3c-.16-.1-.29-.17-.4-.23h0c-.37-.25-.54-.24-.88-.47Z"/><path d="m50.09,2.76c1.48.13,3.88.35,1.58.56-.42.04-.41.16-.6.25.7.04.46.11.5.16l.93.04c-.28-.16.93-.15.97-.27l-.62-.07s.14-.02.14-.02c.17.03.34.05.5.08.82.14.31.23.47.35.93.25,1.88.33,2.89.27-1.64-.27-2.09-.5-2.5-.76-.74-.18-.42-.26.3-.29.69-.02,1.45-.03,2.36.17,1.06.21,2.08.38,2.32.16-2.41-.34-4.9-.47-7.29-.68-.95-.09-1.45-.02-1.94.05Z"/><path d="m73.78,7.01c1.29.4.83.39.07.2-2.31-.6-.83-.06-.43.16.43-.01,1.12.27,1.67.43-.04-.1.42-.09.75.05,1.62.67,2.87.79,4.31,1.31.8.16.81.26.85.37.74.37.96.36,1.22.35-.07-.03-.18-.07-.19-.08-.24-.33-1.32-.71-2.51-1.1-1.64-.52-2.71-1.12-4.44-1.59-.04-.01-.18-.18-.28-.27l-1.77-.63-.94-.33-.16.15c2.05.58,2.1.83,1.87,1Z"/><path d="m97.7,16.62c.81.6.85.82,1.3,1.28.29.29.56.6.33.5-.18-.08-.51-.35-.81-.61-.37-.29-.83-.67-1.11-.82-.51-.3-1.35-.72-1.29-.61.13.27.91.62,1.37.99.28.22.52.46.78.69.27.38.66.55.98.83.57.43,1.15.93,1.09.69-.28-.91,1.4.64,2.59,2.32-.05-.27-.74-1.09-.7-1.24-1.13-1.26-2.19-2.48-3.54-3.53-.97-.74-.83-.48-.99-.5Z"/><path d="m80.14,9.14c-1.43-.51-2.69-.64-4.31-1.31-.33-.14-.78-.15-.75-.05,2.91.88,5.78,1.84,8.64,2.87,1.43.52,2.91,1.13,4.28,1.77.83.38,1.51.65,2.25.95.36-.13-.58-.63-1.9-1.1-2.04-.72-3.88-1.38-5.47-2.24l-.69-.18c-.25,0-.47.02-1.22-.35l-.85-.37Z"/><path d="m42.91,3.11c-1.28.08-2.55.23-3.82.39l-.02.13c.52-.07.98-.1.91,0-.07.08-.6.15-1.07.21-.17.09-.17.15-.17.22.93-.17,1.78-.25,1.91-.08,1.21-.06,2.47-.14,3.74-.25.05-.05.03-.11.17-.16.61-.21,1.11-.47-1.39-.32-.81.05-.31-.07-.25-.13Z"/><path d="m32.44,53.89c.64.08,1.29.16,1.94.22v-.07s-.09-.04-.09-.04l.1.04c.81.19,1.31-.25,2.3.27.17,0,.49.01.48,0-.31-.28,1.46-.16,2.09-.28-.1-.09-.52-.11-.9-.15-.51.05-1.31-.05-2.02-.13-.52-.11-.88.13-1.13-.1-.27-.25-1.15-.23-1.62-.36-.85,0-1.21-.14-1.47-.31-.48-.12-1.04-.36-1.38-.24l-.23.06c.56.17.83.32,1.64.48.54.14.32.18.36.25,2.51.54-.38.18-.06.36Z"/><path d="m21.22,49.21c.73.36,1.57.77,2.28,1.12,1.42.75,4.31,1.51,5.62,1.48-1.15-.27-2.41-.61-1.56-.61-2.16-.65-4.29-1.38-6.35-1.99Z"/><path d="m32.5,53.53c2.51.54-.38.18-.06.36-.52-.03-1.06-.1-.95.04-1.45-.24-3.02-.42-4.25-1.01-.06-.03-.08-.05-.05-.06,1.93.28,2.14,0,2.11-.31l1.2.26c.56.17.83.32,1.63.48-.07.06-.1.13.36.25Zm-1.55-.06c.3.09.6.09.51.03-.18-.11.81-.08-.63-.35-.73-.12-.68-.06-.17.11.09.07.07.14.29.2Z"/><path d="m66.05,54.42c-.45.04-.83-.04-1.33.12-1.11.36-1.23.14-1.61.08-.34,0-.77,0-1,.02-.9.12-1.74.26-2.42.13-.55-.12.21-.23.75-.37.96-.25,1.71-.21,2.51-.17.5.03,1.32-.02,1.72-.11,1.35-.34,1.98-.23,2.81-.22l-1.43.52Zm-5.38.21s.17-.02.18-.03c.02-.02,0-.04-.02-.05l-.37.05c.07,0,.13.02.21.03Z"/><path d="m6.98,40.36c-1.25-1.54-2.23-3.37-3.09-4.95-.2-.41-.41-1.01-.49-1.45-.2-.79-.35-1.31-.54-1.72.18,1.7.99,3.63,1.96,5.27,1.22,2.14,2.59,4.09,4.47,5.71.27.23.6.53.75.6-.28-.43-.88-1.03-1.62-1.67-.89-.8-1.19-1.29-1.45-1.78Z"/><path d="m51.4,1.19c0-.1.44-.13,1.3-.07.88.06.99.14,1.08.23.08.08.42.18,1.21.24.76.07.89,0,1.15-.03.42-.05-.21-.22-.12-.31.11-.11-1.02-.18-1.27-.16-.68.04-1.54.02-2.47-.14-.92-.17-1.24-.32-.37-.4-.32-.07-.63-.1-.96-.07.27.25-1.61.24-2.32.41.5.07.96.15.99.23l1.78.06Z"/><path d="m75.09,52.74c1.27-.1,2.54-.29,3.71-.85.68-.36,2.88-.95,3.2-1.31l-.23-.18c-.82.15-1.53.37-2.16.65-.09.07.22.05-.26.2l-.18-.09c-.14.02-.29.05-.44.1-1.89.51-1.42.79-3.17,1.24-.39.11-.48.19-.46.24Z"/><path d="m24.07,6.9l.43-.04c.87-.27,2.06-.67,2.02-.41-.01.08,1.82-.26,2.87-.84.33-.19.88-.39,1.66-.56-.04,0-.06-.02-.07-.03v-.19c-2.32.51-4.63,1.04-6.9,2.08Z"/><path d="m5.28,19.49c.01.24.66-.6,1.25-1.23,1.24-1.39,2.9-2.74,4.12-3.8.85-.73,1.45-1.18,2.36-1.78.55-.35.19-.25.2-.33-1.97,1.23-3.85,2.55-5.53,4.37-.73.78-1.67,1.76-2.39,2.77Z"/><path d="m48.27,54.61h.89c.47-.11,1.13-.21,1.02-.34-2.39-.08-4.96.07-7.36-.24-.97-.13-1.28.13-2.16.13.04.11.96.26,1.18.24,1.5-.11,2.7.17,4.04.18.87-.39,1.59.09,2.4.03Z"/><path d="m88.09,48.88l.67-.27c.35-.31.34-.3-.38-.06-.32.11-.74.23-.83.22-.29-.05.97-.51,1.13-.68l-.99.25c-.49.18-.98.38-1.48.53-.97.44-1.93.9-2.93,1.29,1.07-.22,1.6-.35,1.56-.26-.03.1-.63.39-1.84.91,1.18,0,1.92-.47,2.68-.94.8-.32,1.05-.81,2.4-.99Z"/><path d="m102.93,21.88c-1.19-1.69-2.87-3.23-2.59-2.32.06.24-.52-.26-1.09-.69,0,.32.87.86,1.25,1.33.43.18.9.17,2.1,2.15.2.33.52.84.68.93.17.09-.06-.32-.32-.76-.04-.06-.09-.12-.13-.17l.12.15v-.62Z"/><path d="m27.24,52.92c-.06-.03-.08-.05-.05-.06-.18-.16-1.64-.5-1.32-.59-.33-.27-.87-.4-1.46-.45-.51-.04-.97-.04-1.62-.48-.56-.15-.89-.45-1.43-.53-.69-.1-.2.19.32.49,1.84.68,3.8,1.44,5.56,1.62Z"/><path d="m3.56,37.22c-.22-.64-1-2.1-.96-2.63.01-.13-.26-.63-.56-1.24-.28-.63-.66-1.34-.84-1.88-.07-.18-.13-.28-.2-.42l-.18.04c.33,1.76,1.2,3.2,1.92,4.77.21.37.4.76.63,1.12.09.14.15.23.19.25Z"/><path d="m13.92,45.79c.14.16.54.52,1.12.95h-.02c1.37.77,3.53,1.8,4.45,2.1,1.31.44.55-.02.84-.02-.82-.29-1.66-.56-2.38-.98-.16-.09-.71-.35-.74-.36-.68-.16-1.4-.51-2.11-.87l.03.02c-.41-.28-.81-.56-1.19-.83Z"/><path d="m45.11.18c-.67-.08-1.99.19-2.33-.04-.69-.09-1.37,0-2.05.08-1.13.23-2.93.27-4.26.51.28.08.26.2,1.67-.03.86-.14,2.11-.2,3.18-.26l.59-.11.19.03-.75.08c.89,0-1.82.5,1.42.19.11-.1-.32-.23.97-.27.26-.09,1.44-.06,1.37-.18Z"/><path d="m4.86,20.4s-.14.08.09-.28c-.84,1.24-1.57,2.62-2.02,4.07-.44,1.44-.56,2.92-.39,4.22l.07-.07c0-.65.05-1.3.14-1.94.25-2.11.98-4.17,2.1-6Z"/><path d="m36.47.73c1.32-.23,3.13-.27,4.26-.51-.17-.19-1.22.03-1.77.06-2.1.09-4.23.38-6.32.67.47.29,2.5-.13,3.83-.22Z"/><path d="m5.21,13.75c1.05-1.1,2.29-2.29,3.24-2.73.36-.17.76-.56.77-.69,0-.1-.14-.09.34-.51.04-.28-.93.53-1.45.96-1.19.95-2.34,2-3.39,3.15.14-.04-.04.31.49-.18Z"/><path d="m1.77,20.59c-.37.96-.68,2-.59,2.76.07.49-.03.75-.13,1.17-.16.7-.15,1.42-.16,2.13.08.7.17,1.39.38,2.03-.02-.67-.05-1.41-.09-2.19.02-.78-.05-1.59.07-2.38.06-1.18.32-2.33.65-3.46l-.13-.06Z"/><path d="m102.99,36.79c0,.18-.13.5-.08.54.05.03.27-.23.78-1.31.24-.56.42-.97.62-1.3.16-.34.31-.61.47-.89.15-.29.29-.04.43-1.04.12-.8-.04-.64-.18-.51-.13.12-.25.18-.37.26-.29,1.49-.86,2.94-1.66,4.25Z"/><path d="m14.97,48.39c.24-.11.32-.22-1.55-1.14-.44-.22-.89-.42-1.31-.66-.26-.17-.52-.33-.77-.51-.37-.17-.8-.51-1.22-.85l-.52-.25c-.12.07.41.48.84.78,1.44,1.04,2.98,1.88,4.55,2.63Z"/><path d="m87.7,48.33l.99-.25c1.23-.57,2.46-1.3,3.6-1.59.3-.07,1-.58.95-.57-.25.03,1.35-.92.15-.38-1.81,1.07-3.99,1.79-5.69,2.78Z"/><path d="m14.86,47.6c.49.19,1.24.43,1.43.54.77.43-.02.15-.32.06-.2-.05.02.11.34.26.38.17.79.34.82.28.05-.08-.02-.22-.05-.34-1.48-.89-3.23-1.75-4.84-2.8l-.14.11s0,.05-.02.05l.43.29c1.09.62,2.16,1.13,2.34,1.54Z"/><path d="m75.55,52.5c1.75-.45,1.28-.72,3.17-1.24-1.01.08-2.03.17-3.26.7-.13.08-.21.18-.41.23-3.09.69-.78.37-.03.34.07-.06-.03-.11.53-.23l-.09.14s.06.03.09.05Z"/><path d="m105.41,26.78c0,.46.04,1.3.27,2.14.23.81.22,2,.05,3.09-.06.55-.21,1.06-.27,1.52-.09.45-.18.84-.16,1.15.5-1.28.68-2.65.74-3.99.01-1.35-.22-2.68-.63-3.91Z"/><path d="m73.01,6.18l1.77.63.92.33c.04-.16.82.09,1.57.33,1.71.72,3.36,1.24,4.97,1.6-.12-.12-.57-.36-.9-.45-2.7-.76-5.63-1.97-8.33-2.44Z"/><path d="m36.59,1.58c-.11-.19-.45-.31-2.26.07-1.34.27-3.09.21-4.36.6,2-.02,4.36-.43,6.62-.67Z"/><path d="m14.05,12.83c-.66.16-1.78.75-2.96,1.49.34,0-.14.55-.77,1.27.8-.53,1.44-1.12,2.14-1.66.3-.41,1-.76,1.59-1.1Z"/><path d="m16.3,5.3c1.61-.59,4.86-1.89,6.84-2.67-2.05.44-4.02,1.26-5.92,2.16,0,.14-.47.33-.92.52Z"/><path d="m56.46,54.85c-.56.03-.94.08-.93.17l.62.02.14.07h-.46s-.38-.08-.38-.08c-.57.03-.85.08-.89.16,1.76-.03,3.29.13,5.23-.12-.19-.24-1.82-.17-2.91-.23h-.42Z"/><path d="m88.36,11.61c2.03.9,4.03,1.78,5.78,2.55-.6-.47-1.2-.85-2.26-1.23-1.34-.48-2.88-1.32-4.34-1.85l.02.18c.26.12.53.24.8.36Z"/><path d="m2.4,18.3c.89-1.75,1.41-2.72.76-2.38-.37.55-.74,1.1-1.06,1.68.26-.2-.36,1.12-.09.93.3-.49.28-.22.38-.24Z"/><path d="m83.29,50.16c.99-.39,1.96-.85,2.93-1.29-1.55.45-3.08.87-4.45,1.53l.23.18,1.29-.42Z"/><path d="m29.31,52.55l1.2.26.23-.06c-1.74-.4-3.45-.97-5.1-1.22.48.25,1.52.6,1.68.8.34.07.63.11.92.16.1-.07.16-.15,1.08.07Z"/><path d="m1.77,20.59l.13.06.41-1.08.49-1.05c.1-.49-.05-.54-.4-.21-.51,1.05-.5.75-.6.73-.13.15-.28.38-.41.82-.16.51,0,.23.08.16.29-.29.69-.85.3.57Z"/><path d="m49.27,55.23l-.03.14c1.64,0,3.44.18,4.82-.16-.25-.12.11-.4-1.7-.08-.79.13-2.16-.04-3.09.1Z"/><path d="m71.9,6.01l.16-.15c-1.77-.6-3.45-.87-5.16-1.15l.85.32c.92.27.91.4,1.01.55.12.03.25.06.38.1.06-.24.4-.42,2.75.34Z"/><path d="m51.07,3.57c-1.26-.04-2.52-.05-3.78-.04-.82,0-1.43.04-1.51.17,1.68.1,3.55-.04,5.29.07,0-.06.01-.13,0-.2Z"/><path d="m67.76,5.02l-.85-.32c-1.32-.38-2.71-.78-3.86-.69,1.21.29,2.47.58,3.81.9.64.15.86.18.91.11Z"/><path d="m19.4,50.39s-.05-.07-.13-.11c-.6-.35,1.92.44.07-.31-1.32-.57-2.25-.76-2.22-.5.76.38,1.55.83,2.28.93Z"/><path d="m6.98,40.36c.25.49.56.98,1.45,1.78.74.64,1.33,1.24,1.62,1.67.26.22.59.52.72.56l-.51-.7c-1.08-1.05-2.19-2.05-3.13-3.23l-.15-.07Z"/><path d="m27.56,51.21c-.86,0,.41.34,1.56.61.84.23,1.38.32,1.76.32v-.15c-1.08-.23-2.18-.45-3.32-.77Z"/><path d="m18.75,9.32c.77-.42,1.63-.77,2.45-1.16.83-.35,1.64-.7,2.33-1.07-1.69.51-3.25,1.35-4.83,2.12l.04.11Z"/><path d="m98.33,42.11c.27.13.71-.23,1.19-.71.46-.5.97-1.11,1.36-1.54-.14-.03.01-.34-.92.7-.46.53-1.07,1.04-1.63,1.55Z"/><path d="m17.97,48.79c.12.16-.11.23.88.65,1.35.55.63-.01,1.44.22-1.02-.57-1.55-.57-2.33-.86Z"/><path d="m12.62,8.51c.54-.46,1.13-.85,1.7-1.28-1.14.7-1.29.63-1.52.63-.13,0-.43.14-.96.51-.2.14-.49.38-.53.45-.12.19.31-.1.67-.32,1.27-.77-.82.89.3.24.11-.07.23-.15.35-.24Z"/><path d="m29.89,52.54c-.95-.16-2.11-.83-2.91-.7.33.31.34.33,2.91.7Z"/><path d="m7.15,41.3c-.75-1.01-.55-1.06-.62-1.35-.58-.78-1.09-1.72-1.65-2.3l-.05.07c.34.62,1.09,1.59,1.06,1.76-.09.38.6,1.12,1.27,1.84Z"/><path d="m9.34,43.24c-.57-.28.38.78.85,1.29.22.13.44.25.66.36.21.05.41.1.63.13-.75-.6-1.51-1.02-2.14-1.79Z"/><path d="m104.59,27.03l-.2.05c.18.85.29,1.7.41,2.64.1-.02.31.31.14-.99-.16-.97-.23-1.42-.08-1.43-.17-.41-.2-.26-.27-.28Z"/><path d="m10.32,15.58c.63-.71,1.11-1.27.77-1.27-.71.69-1.74,1.69-1.75,1.98l.21-.05c.25-.23.51-.45.77-.67Z"/><path d="m5.21,13.75c-.54.49-.35.14-.49.18-.34.35-.65.74-.98,1.11.04.33.14.42,1.63-1.17l-.16-.12Z"/><path d="m87.57,11.25l-.02-.18c-.86-.36-1.63-.61-2.29-.77.39.65,1.37.77,2.32.94Z"/><path d="m6,37.68s-.12-.04-.1.06c.06.28-.82-.8-.04.46.7,1.11.23.06.41.18.05.03.29.39.46.58-.13-.29-.22-.58-.73-1.28Z"/><path d="m14.05,12.83c-.59.34-1.29.69-1.59,1.1l.88-.56c.32-.23.62-.39.8-.45.54-.35,1.06-.72,1.61-1.06-.13.05-.26.09-.38.15l-1.31.82Z"/><path d="m59.88,53.7s.03-.04,0-.05c-.18-.05.51-.29-.65-.12-.39.07-1.12.3-.35.31l1-.15Z"/><path d="m53.47,3.49c-.04.12-1.25.12-.97.27l1.46.08c-.17-.12.35-.22-.49-.35Z"/><path d="m28.51,2.42l-.93.23c.52-.05,1.05-.09,1.58-.12l.31-.2-.96.09Z"/><path d="m49.62,1.14c-.03-.09-.49-.16-.99-.23-2.12,0,.46.16-.12.22.09.02.21.03.37.03l.63.02c.13,0,.17,0,.11-.03Z"/><path d="m3.97,37.78l-.55-.8c.08.45.73,1.44,1.09,2.09l.14-.03.09-.11c-.14-.22-.25-.39-.35-.56-.1-.02-.27-.31-.42-.59Z"/><path d="m102.24,20.65c-.05.15.65.97.74,1.28.17.2.33.41.48.62-.09-.2-.17-.39-.27-.58-.26-.46-.58-.9-.96-1.32Z"/><path d="m11.48,45.02c-.21-.04-.42-.09-.63-.13.4.29.83.56,1.25.83l.14-.11c-.26-.19-.51-.39-.77-.59Z"/><path d="m32.11,52.98c.25.17.62.31,1.47.31-.38-.13-.51-.33-1.47-.31Z"/><path d="m31.51,4.88c.49-.13.97-.29,1.47-.41.03-.19-.78.03-1.5.24l.04.17Z"/><path d="m36.33,53.75c.71.08,1.51.19,2.02.13-1.01-.25-1.56-.21-2.02-.13Z"/><path d="m64.91,52.88c-.48.04-1.02.13-1.62.3.52-.08.87.05,1.62-.3Z"/><path d="m15.37,12c.12-.06.25-.1.38-.15l.83-.47-.06-.03c-.41.16-.8.36-1.14.65Z"/><path d="m2,31.78s-.03,0-.05-.05c.03.06.06.13.09.2l.18.08-.22-.23Z"/><path d="m14.13,12.91c-.18.06-.48.22-.8.45.05.09.31-.07.8-.45Z"/><path d="m3.74,16.95c-.07.02-.08-.1-.36.35-.2.32-.12.29.06.07l.3-.42Z"/><path d="m4.65,39.04l-.14.03c.29.41.54.66.68.76-.18-.26-.37-.51-.55-.78Z"/><path d="m3.37,36.97c-.23-.36-.42-.74-.63-1.12.17.52.37.9.63,1.12Z"/><path d="m51.09,3.57l-.02.19c.32.02.48,0,.5-.03-.04-.06.19-.13-.48-.16Z"/><path d="m79.16,51.16l.18.09c.48-.14.16-.13.26-.2-.15.03-.3.06-.44.11Z"/><path d="m16.3,5.3c.45-.19.92-.38.92-.51-.4.18-.8.37-.92.51Z"/><path d="m7.14,40.43c.94,1.18,2.05,2.19,3.13,3.23.39.35.59.47.66.45l.16-.09c-.62-.55-.78-.77-.5-.65.13.06.31.14-.08-.23-.12-.11-.3-.27-.47-.41-.16-.14-.29-.24-.3-.24-.11.26-1.66-1.27-2.3-1.86-.13-.12-.21-.15-.31-.22Z"/><path d="m34.88,53.47c.99.23,2,.42,2.99.43-1.69-.25-.28-.29-1.46-.51-.63-.12-1.25-.24-1.87-.41.22.18,1.2.49.33.48Z"/><path d="m4.83,21.6c.47-.65,1.04-1.51,1.71-2.36-.07-.01-.04-.19-.24,0-.27.24.54-.95-.27.07-.54.73-.35.65-.23.61.06-.01.15.04-.27.46-.77.78-.37.77-.69,1.22Z"/><path d="m18.79,48.88l1.33.58c.2,0,1.38.39.38-.07-1.05-.49-1.45-.53-1.71-.52Z"/><path d="m15.65,47.46c-.4-.15-.77-.25-.56-.11.65.43,1.52.67,2.3,1.02,0-.18-1.05-.57-1.74-.91Z"/><path d="m2.76,26.41c-.09.64-.14,1.29-.14,1.94.09-.11.17-.71.22-1.48.07-.59-.03-.41-.08-.46Z"/><path d="m16.47,11.18c.11-.07.23-.14.35-.21v-.12c-.51.29-1.14.62-1.31.83l.96-.5Z"/><path d="m20.47,49.6c.14.2.79.4,1.45.6v-.13c-.49-.16-.97-.32-1.45-.47Z"/><path d="m12.56,44.92c-.07-.07-.15-.14-.22-.21l-.25-.13c.09.08.2.18.27.24.08.05.12.06.19.1Z"/><path d="m4.2,22.92c.14-.34.29-.67.47-1-.09.11-.19.18-.27.34-.24.48-.17.51-.19.65Z"/><path d="m15.33,47.13l.38.3c.7.22.19-.03-.38-.3Z"/><path d="m21.91,50.07c.25.08.6.22.62.17,0-.01-.17-.09-.26-.13-.42-.14-.31-.06-.36-.04Z"/><path d="m11.09,44.03l-.16.09c.51.36.59.35.16-.09Z"/><path d="m3.78,33.43s0,.09.02.15c.02-.02,0-.09-.02-.15Z"/><path d="m17.68,10.38v-.06c-.3.16-.57.34-.85.52.27-.16.56-.32.85-.46Z"/><path d="m14.04,46.43l-.08-.08s.06.06.08.08Z"/><path d="m22.15,50.27l.11.11c.41.11.33.06-.11-.11Z"/><path d="m6.04,13.28c-.35.48-.89,1.22-.33.83.23-.17.53-.35.95-.77.65-.59.66-.72.69-.87-.41.23-.65.31-.44-.04.1-.16.03-.17-.36.18-.47.42-.49.56-.51.66Z"/><path d="m43.74.36c-1.29.05-.86.17-.97.27.48,0,1.15-.06,1.22.06.04.06.5.12.92.1.43-.02.83-.1.98-.16.25-.1-.58-.05-.84-.08-.51-.06-.88-.13-1.31-.19Z"/><path d="m19.57,4.61c.92-.04,2.38-.68,3.83-1.14-1.11.15-2.37.42-3.83,1.14Z"/><path d="m18.48,5.08l.44-.21c.07-.05.11-.09.21-.14.83-.4,1.37-.71.43-.49-.25.05-.9.27-.77.29.3.03-2.44,1.3-.33.56Z"/><path d="m9.63,10.74l1.11-.82c-.04-.08.81-.87-.2-.17-.74.52-1.17,1.01-.91.99Z"/><path d="m14.88,6.9c.48-.2.94-.42,1.42-.6-.07-.05.63-.49-.02-.23-.53.2-1.03.55-1.39.83Z"/><path d="m40.8.78c-.28,0-.45-.03-.61-.02-.18.01-.35.05-.52.07.15,0,.29.03.45.03.17,0,.37-.04.68-.08Z"/><path d="m17.22,5.84c.38-.22.78-.4,1.18-.6l.16-.1-.08-.03c-.54.25-1.34.6-1.26.73Z"/><path d="m8.68,11.5c.34-.21.68-.41.92-.74-.31.24-.62.49-.92.74Z"/><path d="m37.93,1.29c-.14,0-.2.01-.27.03.05,0,.1,0,.27-.03Z"/><path d="m98.62,43.16c.43-.34.9-.75,1.08-1.03.04-.31,1.34-1.33,1.65-1.93.13-.21.85-.69.93-1.09.05-.24-.49.36-.89.67-.39.33-.66.62-1.1,1.15-.54.7-1.28,1.43-2.03,1.75-.45.19-1.05.79-1.44,1.11-.65.58-.05.22.4-.03.72-.39,1.39-.84,1.39-.59Z"/><path d="m104.59,27.03c.07.02.11-.13.27.28.12.08.37,1.24.37.64,0-.21-.05-.69-.15-.98-.3-1-.24-.29-.37-.49-.08-.11-.16-.18-.25-.35-.16-.33-.64-1.29-.56-.89.09.46.52,1.11.68,1.79Z"/><path d="m105.35,30.41c-.01.1-.03.2-.04.3.02.09.04.19.05.28.03-.12.03-.26.03-.37,0-.09-.03-.14-.05-.21Z"/><path d="m90.71,47.89l-.44.2c.14-.06.29-.13.44-.2Z"/><path d="m52.69,53.92c.1.04.13.09.77,0-.09-.04-.4-.03-.77,0Z"/><path d="m70.33,53.71l.98-.15c0-.09-.25-.18.05-.26.52-.15.98-.26.79-.34-.1-.04-.38.03-.49.07-.4.16-1.81.35-1.41.49.13.04.07.13.09.19Z"/><path d="m67.48,53.9c.31.02.34.12,1.03.03.1-.01.33-.1.3-.11-.15-.09-.8.02-1.32.08Z"/><path d="m56.46,54.85h.42c0-.06.08-.13-.47-.11l.05.11Z"/><path d="m75.47,52.45l.09-.14c-.56.12-.46.16-.53.23l.44-.09Z"/><path d="m73.2,53.1l-.18-.06c-.45.14.02.06.18.06Z"/><path d="m36.42,53.39c1.18.22-.23.25,1.46.51.62.09,1.05.12,1.39.08.7-.05,1.54-.08.29-.34-1.96-.43-2.09-.17-3.13-.26Z"/><path d="m44.45,54c-.69-.02-1.78-.19-1.74,0,.02.06.29.18,1.07.19.76,0,1.88-.02,1.92-.09.09-.13-.9-.04-1.25-.09Z"/><path d="m43.68,54.4c.54.09.87.18,1.27.2.5.03,1.39.06,1.42-.06.02-.06-.3-.1-.83-.13-.57-.02-1.12-.01-1.86-.02Z"/><path d="m50.29,54.06c.07.04.07.09.57.06.16,0,.24-.06.36-.09l-.93.03Z"/><path d="m41.79,54.04c.16,0,.06-.02-.03-.03l.03.03Z"/><path d="m49.37,54.04h.22s.22-.02.22-.02c-.15-.02-.29-.02-.44.02Z"/><path d="m1.33,29.95c-.1.12,0,.61.23,1.27.28.84.3.47.4.52-.21-.82-.45-.79-.63-1.79Z"/><path d="m1.8,19.04c.1.02.09.31.61-.75-.1.03-.09-.23-.39.25l-.22.49Z"/><path d="m1.32,29.94v-.11s0,.08,0,.11Z"/><path d="m88.36,11.61l-.8-.36c.12.11-.33.03.32.3.37.16.49.13.48.06Z"/><path d="m77.27,7.47c-.75-.24-1.53-.49-1.57-.33.57.14,1.21.31,1.57.33Z"/><path d="m7.15,41.3c-.66-.71-1.36-1.46-1.27-1.84.03-.16-.72-1.14-1.06-1.76.08.4.12.74.26,1.23.33,1.03,1.46,2.62,2.7,3.62.15.13.26.16.43.33.65.61.85.5.32-.21-.22-.3-.22-.29-.46-.35-.12-.03-.17.05-.6-.45-.14-.15-.21-.38-.32-.58Z"/><path d="m12.52,46.06l-.43-.29c-.9-.32.17.65.02.82.43.24.88.44,1.31.66.22-.1-1.36-1.2-.9-1.19Z"/><path d="m10.11,45.23c.42.34.86.68,1.22.85,0-.02.01-.02-.02-.05-.49-.44-.26-.55-.92-1.01-.95-.71-.04.26-.28.21Z"/><path d="m8.35,43.28c-.11-.09-.23-.2-.23-.18,0,.06.05.16.08.24.06.03.15.11.16.09.02-.02,0-.09,0-.15Z"/><path d="m3.97,37.78c.15.29.32.57.42.59-.16-.26-.34-.66-.42-.59Z"/><path d="m4.74,38.93l.14.15c-.05-.07-.11-.14-.14-.15Z"/><path d="m83.29,50.16l-1.29.42c-.32.36-2.52.96-3.2,1.31.1.07-.06.24,1-.04-.49-.01.27-.28.74-.46.58-.22.89-.2,1.13-.19.45-.11.89-.26,1.33-.39,1.21-.52,1.8-.81,1.84-.91.04-.09-.49.03-1.56.26Z"/><path d="m81.68,51.2c-.24,0-.55-.02-1.13.19-.47.18-1.23.45-.74.46.72-.21,1.64-.41,1.88-.65Z"/><path d="m88.09,48.88c-1.34.18-1.6.68-2.4.99,1.04-.22,1.74-.61,2.4-.99Z"/><path d="m90.72,47.88l-.46.21c.18,0,.33-.08.46-.21Z"/><path d="m29.31,52.55c-.91-.22-.98-.14-1.08-.07.11.16-.37.02-.87-.15-.32.05-.16.27-1.49-.06-.32.09,1.14.43,1.32.59,1.93.28,2.14,0,2.11-.31Z"/><path d="m14.87,47.6l-.54-.27c.27.22.37.21.54.27Z"/><path d="m38.74,3.86c.22-.09.28-.16.33-.22-.96.13-1.92.25-2.88.42-.86.15-.87.23-.89.32.51-.07,1.14-.2,1.45-.17.66-.14,1.32-.24,1.98-.35Z"/><path d="m36.2,4.06c.95-.17,1.91-.3,2.87-.42l.02-.13c-1.11.12-2.22.26-3.33.44l.44.12Z"/><path d="m38.74,3.86c-.66.12-1.32.21-1.98.35l.02.14c.65-.12,1.3-.19,1.95-.29v-.21Z"/><path d="m25.62,7.09c.04.06.1.09.61-.06.23-.07.51-.22.77-.33-.35.04-.89.21-1.39.39Z"/><path d="m36.76,4.21c-.32-.03-.94.1-1.45.17.31.04.89-.07,1.45-.17Z"/><path d="m31.04,5.05s-.43.17,0,.11c.04,0,.18-.04.21-.06.26-.11.1-.1-.21-.05Z"/><path d="m48.27,54.61c-.81.06-1.53-.43-2.4-.03-.14.29,1.62.17,2.42.23-.01-.07-.02-.13-.02-.2Z"/><path d="m38.21,54.37h.2c-.06,0-.12,0-.2,0Z"/><path d="m48.29,54.81l.1.03s-.07-.02-.1-.03Z"/><path d="m17.68,10.38c-.29.14-.58.3-.86.46v.12c.6-.33.88-.5.86-.59Z"/><path d="m71.9,6.01c-2.35-.76-2.69-.58-2.75-.34l.45.39c1.72.62,2.8.61,4.18.95.23-.17.17-.42-1.87-1Z"/><path d="m48.82,3.28h-.21s.09.02.21,0Z"/><path d="m53.49,3.49c-.17-.03-.33-.05-.5-.08,0,0-.09.01-.14.02.21.02.42.04.64.06Z"/><path d="m80.14,9.14l.85.37c-.03-.1-.04-.2-.85-.37Z"/><path d="m39.07,3.64l-.17.21c.47-.07.99-.13,1.07-.21.07-.09-.39-.07-.9,0Z"/><path d="m32.14,53.28c-.07.06-.1.13.36.25-.04-.07.19-.11-.36-.25Z"/><path d="m34.38,54.04l-.1-.04s.07.03.1.04Z"/><path d="m30.65,53.27c.09.07.07.14.29.2.3.09.6.09.51.03-.18-.11.81-.08-.64-.35l-.17.11Z"/><path d="m30.65,53.27l.17-.11c-.72-.11-.68-.06-.17.11Z"/><path d="m60.46,54.61c.07,0,.13.02.21.03,0,0,.17-.02.18-.03.02-.02,0-.04-.02-.05l-.37.05Z"/><path d="m102.94,22.5l-.12-.15c.05.06.09.11.12.15Z"/><path d="m41.35.44l.75-.08-.19-.03c-.2.04-.39.07-.56.11Z"/><path d="m56.15,55.04l-.62-.02s.17.06.3.09l.32-.06Z"/><path d="m27.36,52.33c.5.18.97.31.87.15-.29-.05-.58-.09-.87-.15Z"/>
                  </g>
                </mask>
              </defs>
              <path class="mask" d="m58.12,1.52c-8.9-1.28-16.32-1.01-21.64-.47-8.99.93-17.02,1.86-25.06,7.92C7.16,12.19,2,16.08.86,23.01c-1.66,10.08,6.47,18.8,7.95,20.38,1.16,1.24,5.69,5.65,18.81,9.08,8,2.09,16.44,2.4,24.77,2.22,13.34-.28,27.01-1.85,38.84-7.51,7.06-3.38,13.81-9.08,14.11-16.3.2-4.71-2.48-9.23-6.23-12.49-3.74-3.25-8.46-5.41-13.22-7.28-11.6-4.55-24.04-7.69-36.7-7.84-12.66-.15-25.59,2.84-35.85,9.62-4.02,2.66-7.72,6.01-9.42,10.25-2.54,6.33-.07,13.68,4.85,18.7,1.99,2.02,4.05,3.69,6.18,5.04,3.86,1.81,8.16,3.46,12.87,4.74,20.28,5.5,38,1.35,48.97-2.61"
                    mask="url(#path-mask)" stroke="black" stroke-width="2" fill="none"
                    stroke-dasharray="408.710693359375" stroke-dashoffset="408.710693359375">
              </path>
            </svg>
        