
            <svg xmlns="http://www.w3.org/2000/svg">
              <defs>
                <mask id="path-mask">
                  <g fill="white">
                    <path d="m401.17,61.65c2.89-1.59.92-.84,1.43-1.29.71-.33,1.43-.66,2.13-1.03,1.77-.79,3.76-1.88,5.38-2.77,1.68-.9,3.92-2.51,5.82-4.35,1.92-1.83,3.45-3.9,4.13-5.27,1.22-1.68,1.7-2.92,1.95-3.75.6-1.23,1.07-2.88,1.22-4.48.17-1.61,0-3.13-.09-4.19.1-.61-.6-3,.28-1.1.53,1.4.95,3.12.56,5.55-.32,2-.96,3.7-1.27,4.81-.26.58-.54,1.14-.85,1.68-1.03,2.15-3.49,4.19-4.39,5.8-.26.25-.61.63-.94.91-.32.29-.57.52-.57.53-.51.79-1.64,1.83-3.03,2.92-1.41,1.07-3.08,2.14-4.66,3.1l-.11-.08c.82-.59.63-.5-.34.09-.16.1-.32.2-.49.3l-.19-.09c.54-.32,1.32-.79,1.27-.86-.01-.01-.4.2-.6.32-.91.54-.61.45-.69.55-1.02.65-2.06,1.27-3.12,1.86-.26.14-.53.28-.8.42.36-.28,2.93-1.76.57-.63-2.52,1.14-3.26,1.75-3.71,2.12-.4.38-1.46.91-3.19,1.58-.26-.15-2.7.94-4.41,1.64l.05-.11c1.55-.81.3-.28-1.11.24-1.96.55-2.04.87-3.23,1.33l-.26.06.28-.07c-.06.18.74.15-2.77,1.29-2.18.73-4.04,1.38-3.58,1.5l-2.16.72c-.67.1-1.33.21-2.01.29,1.19-.36,1.68-.6,1.75-.72,1.39-.54,1.48-.67.06-.33-1.88.59-2.54.66-1.91.32.3-.16.71-.38-.55-.04-.37.1-.94.28-1.42.44-.24.08-.46.16-.61.21-.16.06-.25.09-.24.1.17.17-.99.64-2.44,1.13-1.46.48-3.19,1.02-4.14,1.41-.39.16-.54.26-.8.39l-.32.21c-4.52,1.18-9.32,2.15-13.36,3.35-1.02.31-2.5.52-3.54.65-1.89.26-3.14.56-4.12.93-2.96.49-5.91.99-8.88,1.43l-.18-.12c-.28-.16-1.72,0-3.51.32-1.39.24-.91.33-.99.45-4.91.9-9.84,1.72-15.03,2.47l.21.02c-.06.07.35.09-.63.24-.27.12-.36.24-1.63.41.4-.39-2.08-.12-4.1.09-4.36.39-9.42.86-13.22,1.45-2.62.42-4.4.63-6.97.89-1.56.16-.67.31-.78.46-4.99.48-9.99,1-14.99,1.4v-.28c.98-.23.73-.37.23-.51-.86-.25.4-.47,3.07-.67l2.35-.35c1.41-.14,3.11-.24,3.71-.52l-2.59.15c-.34-.1-1.87-.1.09-.4,1.04.06,2.1-.01,3.16-.27l3.72-.33c1.57.3,4.61.27,7.95.19,2.31-.51,5.7-1.1,6.13-1.59,3.26-.34,6.53-.61,9.8-1.17.1.13-.25.35.4.36.86.01-2.52.69.58.28,2.15-.28,1.7-.43,1.45-.56-.12-.06-.16-.31,1.27-.26,2.62.1,2-.44,4.21-.67.34.02.6.09,1.05.04,1.28-.15,1.25-.29,1.59-.42,4.16-.57,8.16-1.4,12.59-1.94,2.3-.29,3.46-.84,4.1-1.18,6.75-1.19,13.48-2.52,20.16-4.05,0,.07-.19.19.04.2.66.03-2.48,1.08.99.29,3.07-.71.35-.38.76-.64.12-.07,1.13-.34,1.72-.53,5.58-1.58,11.63-3.18,17.35-5.01,1.68-.49,4.27-1.7,5.69-1.85.4-.05,1.31-.32,2.51-.69,1.19-.38,2.68-.84,4.17-1.42,1.51-.56,3.06-1.15,4.4-1.77,1.34-.6,2.51-1.11,3.24-1.53Zm-18.62,7.03l-.6.28c.29-.08.63-.16.84-.24.21-.08.3-.15.45-.23-.24.06-.47.12-.7.18Zm-33.03,8.77c-.13.02-.31.05-.46.08.03.04.21,0,.46-.08Z"/><path d="m333.15,3.71c3.85.22,7.66.59,11.46,1l5.7.63c1.9.24,3.79.48,5.69.72.88,1.35,5.88,1.22,9.03,1.75.59.44.46.88,3.9.9,2.08,0,5.05.44,7.68.81,2.09.46-4.58.9,3.22,1.37,1.12.2,2.74.27,2.83.73.05.23,1.11.65,2.12.72,1.04.07,2.02-.06,2.42-.23.66-.28-1.35-.39-1.95-.59-1.19-.38-2.01-.79-2.99-1.18.66-.21,3.42.34,3.33-.14,1.6.92,7.73.85,7.58,1.78-.08.46-2.57.65-3.69,1.06-1.15.42-5.77-.1-9.4-.72-1.64-.28-3.17-.7-4.81-.96-1.57-.27-3.47-.89-4.68-.66-1.29.24,3.11.58,2.24.93-2.56.04-5.22-.14-8.1-.76-.13-.74-.84-1.36-5.28-1.25-3.31.1-7.3-1.44-10.52-.99l-1.21-.09-2.27-.44c-3.79-1.12-7.94-1.62-12.5-1.37-1.31-.41-2.72-.75-4.29-.98-1.57-.23-3.31-.29-5.28-.22l-1.66-.1c.2-.05.33-.12.62-.13,2.22-.11,3.71-.31,1.48-.93-.58-.16-2.21-.4-1.95-.17.62.55-6.64.25-1.37,1.29-1.43-.02-3.53-.26-3.53.22l-2.48-.19c-.07-.26,1.93-.39.26-.72-1.33-.27-2.79-.25-3.9-.1l-1.57-.13c-3.21-.29-3.39-.78-3.82-1.26-.25-.28-1-.52-2.54-.58-.57-.02-1.48.04-1.66.12-.52.24.73.36,1.7.51,3.53.54-2.89.71.17,1.24-.79.4-2.77.28-4.63.21v-.3c.04-.29,2.82-.57-.11-.85-2.17-.2-3.71.09-3.29.6l-2.85-.13-3.92-.59c-1.09-.38-1.63-.75-.67-1.1.44-.16.34-.34-.91-.42-1.51-.1-1.75.11-1.99.31l-2.12-.3-.03-.65c3.59.21,7.66.1,10.03,1.04.9.36,2.24.24,2.47-.08.17-.23-.11-.51,1.42-.58,3.13-.15,6.31-.21,9.52-.07,3.21.17,6.45.48,9.73.91,3.95,1.15,12.29,1.53,17.37,1.13Zm40.53,6.33c-.42-.06-.84-.02-1.26-.01.34.11.65.25,1.04.32.4.07.88.05,1.65.09-.65-.19-1.04-.34-1.43-.4Z"/><path d="m28.25,68.73c2.86.85,4.06,1.6,5.43,2.38.68.38.07.68,2.41,1.21,1.89.42,1.55-.02,1.29-.39-.25-.36-.35-.67-.52-1.01,2.25.65,4.53,1.21,6.79,1.81-.05.27-.95.48,2.16,1.21,2.35.56,3.37,1,3.2,1.35-.31.15-3.06-.5-1.79.16.45.23,1.5.63,2.22.8,2.42.52.9-.2,1.47-.27.32-.04.57-.11,1.03-.09.9.03,3.44.52,2.55.07-1.03-.52-2.93-.52-4.57-.96l.13-.52c6.52,1.43,12.82,2.9,19.06,4.37-1.14.4-1.94.93-7.25-.61-.88-.26-2.32-.54-2.73-.39-.44.16.66.46,1.88.76.34.39.68.76.86,1.14l-1.82-.22,1.39.55c-2.18-.27-4.27-.65-6.27-1.11-2-.5-3.9-1.09-5.72-1.75-.89-.6-2.69-1.49-4.73-1.63-1.96-.14-4.54-.97-6.98-1.68-2.44-.74-4.72-1.45-6.12-1.32-3.5-1.43-7.31-2.59-10.89-4.15.4-.56-2.29-1.79-4.61-2.73-2.07-.84-3.21-1.54-4.56-2.54.41-.11,1.39.43,2.5,1.02,1.1.58,2.33,1.21,3.1,1.38.58.13,2.14,1.49,3.11,1.45.59-.02-1.09-1-2.07-1.69-1.01-.7-1.83-1.15-3.41-1.74-1.98-.73-4.21-1.88-5.38-3.47-.71-.93-2.42-1.97-3.36-2.72-1.62-1.32-.59,0,.22.97,1.26,1.52,2.73,2.84,2.14,3.02-.38-.19-.76-.4-1.13-.62-.66-.99-1.85-2.12-3.06-3.52-1.21-1.38-2.43-3.13-2.94-5.06-.23-.73-.42-2.01-.35-2.97.13-.95.35-1.53.63-.96.06.13.19-.94.57-1.99.09-.26.18-.54.28-.78.11-.24.21-.48.3-.68.17-.41.3-.7.28-.75-.09-.22.06-.58.35-1.06.32-.44.77-1.02,1.36-1.59.29-.28.56-.58.86-.85,1.54-1.66,3.59-3.33,3.28-2.18-.65.98-.61.94.96,0,.7-.4,1.66-.87,1.87-.86.72.02-2.04,1.65-2.27,2.2-1.27.98-2.47,2.11-3.51,3.26-1.04,1.15-1.94,2.28-2.81,3.34-.11.14-.23.37-.34.63-.1.27-.15.58-.21.85-.12.56-.03,1.04-.01.98.09-.12.12.05.14.32,0,.27.1.64.14.93.04.29.14.5.19.47.04-.03.09-.32.17-.99.09.06.15.16.18.38.01.22.05.56.12,1.09.29,1.74,1.27,3.48,2.59,4.98,1.33,1.51,2.97,2.81,4.81,3.84-.16.75.93,1.58,2.39,2.3,1.45.74,3.26,1.37,4.49,2.02,2.92,1.39,5.32,1.83,8.47,3.17-.88.07-3.39-.26,2.09,1.46Zm12.73,4.61h-.69c.28.09.59.22.83.27.21.05.34.01.51.01-.23-.1-.44-.19-.66-.28Z"/><path d="m358.58,8.93c-2.06.06-4.35.03-6.59.05-2.24.1-4.45.17-6.34.41-1.68.03-3.8.17-5.99.43-1.09.16-2.2.33-3.29.49-1.09.16-2.15.29-3.13.49-1.12.2-1.55.3-2.34.49-2.43.59-2.9,1.22-.21.75,2.84-.48,3.73-.6,4.48-.53.78.05,2.19,0,4.86-.63.29-.08,1.42-.19,1.9-.23,2.34-.16,4.64-.41,6.94-.49l3.45-.19c1.15,0,2.31-.02,3.47-.03,10.68-.04,21.37,1.05,31.84,3.19v-.15c-.88-.17-1.6-.32-1.79-.42-1.57-.28-3.43-.63-4.74-.8-1.57-.23-3.31-.5-4.98-.7-1.67-.18-3.26-.38-4.49-.62-.73-.18-3.82-.46-7-.77-3.19-.17-6.47-.37-7.58-.28-.37.01-.76.05-.7.07.53.19-1.53.1-2.47.06-1.13-.05-1.82-.12-2.8-.13-.56,0-2.29.12-2.13.04.1-.05,1.1-.14,2.45-.21,2.82-.12,6.8-.03,7.18-.3Z"/><path d="m76.29,15.86c-2.72.7-6,1.3-7.7,2.19.8-.11,1.85-.17,2.38-.32,2.09-.6,4.04-1.23,5.69-1.07,1.35.14-.4.73-1.63,1.27-2.19.96-3.98,1.11-5.91,1.16-1.2.03-3.15.36-4.06.72-3.11,1.23-4.66,1.01-6.65,1.13-1.24.22-2.77.67-3.16.43-.08-.05.45-.32.68-.37,1.62-.36,1.73-.07,2.47-.06l3.24-1.72c-2.45-.31-5.31.8-8.05,1.64.14.25.01.54-1.98,1.06.08.18-.05.42.28.52,1.01.31-2.32,1.04-3.24,1.55-.25.14-.91.37-1.15.28-.49-.19.59-.58,1.78-1.07.68-.27.07-.49.03-.74-1.03.54-4.26.92-4.43,1.55.42-.04,1.53-.29.49.13l-.46-.14c-1.62.3-.78-.44-2.75.11-.69.2-1.15.73-1.71,1.12.07.15-.13.36-1.04.71.06.04.14.09.22.13l1.04-.28c1.81-.19,7.28-1.34.03.94-.47.15-.63.44-.93.67,3.13-.92,6.37-2.09,9.38-2.23.36-.03,4.51-1.54,7.37-2.22.73-.42,1.7-.66,3.42-1.05,5.04-1.15,10.43-1.74,15.14-3.33,2.05.16,5.42-1.15,7.55-1.17,2.08-.03,3.72-.22,6.17-.97,3.33-1.01,4.87-.98,5.05-.37l5.6-1.06c-.32-.35,1.19-.82,2.27-1.27-2.66-.11-5.43-.21-.04-1.51.69-.17.21-.26-.51-.24-2.15.69-5.46.75-7.26,1.41-4.15,1.53-3.43.62-4.06.36l-1.19.22c-.07.24-.7.48-2.05.73-.11.32-1,.57-2.32.83l.16.3c-1.31.21-1.13,0-1.16-.14-2.61.15-6.49.74-7.02.17Z"/><path d="m419.74,27.08c-.5-.57-.95-1.03-1.37-1.38-.41-.37-.76-.67-1.09-.89-.66-.5-1.43-1.01-1.74-1.15-.31-.13-.12.06.99,1.1,1.73,1.65,2.54,2.59,3.21,3.27.65.7,1.16,1.17,1.83,2.22.75,1.33,1.29,2.78,1.56,4.27.09,1.06.26,2.59.09,4.19-.15,1.6-.63,3.25-1.22,4.48l-.21-.03c.53-1.18.9-2.53,1.07-3.81.19-1.29.12-2.5.13-3.45-.07-2.43-1.12-4.89-2.88-7.15-1.74-2.23-3.9-4.14-6.29-5.7-1.21-.75-2.37-1.6-3.67-2.2-1.28-.65-2.53-1.36-3.87-1.88-5.27-2.3-10.81-4.03-16.45-5.33-.18-.13-.15-.2,1.27.1l2.17.53c.37.1.73.23,1.09.36.33.13.66.23,1,.29,3.54.96,5.49,1.68,6.29,1.89.8.22.41-.02-.86-.62-.08-.04-.1-.06-.14-.08-6.21-1.85-7.76-2.8-14.01-4.02-1.3-.23-2.81-.52-4.09-.77-1.28-.22-2.31-.43-2.65-.6,1.72.25,3.68.37,4.22.6,1.04.4,2.85.64,4.59,1,6.17,1.39,12.13,3.12,18.15,5.68,1.09.41,2.13.96,3.17,1.49,1.05.53,2.11,1.05,3.09,1.73,2.04,1.24,3.97,2.67,5.68,4.38,1.72,1.69,3.24,3.67,4.24,5.94,1.03,2.24,1.46,4.8,1.21,7.27-.07.99-.35,2.24-.67,3.24-.35.99-.71,1.72-.87,1.73.3-1.11.94-2.81,1.27-4.81.4-2.43-.02-4.14-.56-5.55-.67-2.4-1.94-4.66-3.68-6.34Zm-9.5-6.57c0-.09-.54-.51-2.23-1.34-1.68-.7-4.18-1.63-4.3-1.6-.24.07,1.99.84,2.76,1.21.38.16.82.35,1.25.54.42.23.84.45,1.22.65.75.4,1.31.67,1.3.54Zm-4.63-2.85c-.55-.23-1.32-.57-1.97-.81-.66-.21-1.19-.37-1.25-.32-.07.07.66.33,1.83.82,1.25.54,2.51.98,4.13,1.69-1.14-.64-1.87-.99-2.74-1.38Zm6.12,3.49l.58.38-.06-.07c-.44-.28-.46-.28-.52-.31Z"/><path d="m271.02.46c-2.87.12-5.11.03-8.34-.24-4.69-.45-10.55-.09-15.88-.03-2.67.04-5.53-.21-8.02.16l-.02.59c.59.27,2.11.69.31.8-5.32.3-4.59,1.41-8.27,1.96,1.96-.06,3.69-.25,5.23-.46.2,0,.37-.02.5-.05.2-.27-.64-.62,1.48-.76,1.67-.11,2.87,0,3.11.34l.28.08-.26-.08c-2.47-.19-2.54.46-4.59.42-.13.03-.18.07-.15.11,2.35.62,5.2,0,7.76.09,3.26-.63,6.71-.61,10.2-.09,1.04.16,1.72.37,2.89,0,1.8-.59,4.4-.29,6.9-.06,3.59-.37,1.95-.96,1.08-1.53-.23-.15-.98-.36.29-.43,1.08-.06,1.71.1,2.15.28h1.28c-.66-.46,2.75-.62,2.05-1.09Z"/><path d="m112.27,87.13c2.23.52,4.56.99,7.71,1.03,3.94-.17,8.07.09,12.45.85.85-.17,2.42-.11,3.83-.11l2.33.31c-.27-.19-.68-.53-.78-.54-4.28-.19-7.1-1.07-11.21-1.34-2.99-.21-5.72-.48-6.48-1.13-.02-.02-.32-.05-.49-.08-.57,0-1.14.02-1.71.03.44.7-2.57.34-4.87.06-7.53-.94-15.16-1.47-22.75-2.86-4.57-.84-4.85-.71-2.55-1.11.69-.12,1.17-.29,1.74-.44-4.38-.47-9.38-1.61-13-1.48.81.19,1.59.41,2.44.57,1.39.27,3.47.16,4.01.67.23.2-2.02.18-3.45.13-.76-.03-2.15-.3-3.26-.46-.93-.14-1.93-.32-2.41-.23-.62.12.33.4,1.27.65,1.48.41,1.81.86,4.15,1.23,2.89.85,6.12,1.58,10.04,1.91,4.53.07,9.73.72,14.98,1.35-.05-.16.2-.32,1.15-.21,1.67.2.58.33.93.51,2.27-.29,4.63-.7,5.92.68Z"/><path d="m393.26,14.26c.37.1.73.23,1.09.36l.5.15.5.15c3.54.96,5.49,1.68,6.29,1.89.8.22.41-.02-.86-.62-.08-.04-.1-.06-.14-.08-6.21-1.85-7.76-2.8-14.01-4.02-1.3-.23-2.81-.52-4.09-.77-1.28-.22-2.31-.43-2.65-.6-.96-.09-2.28-.31-3.55-.44-1.27-.13-2.48-.24-3.2-.25,1.8.34,0,.32-.96.21-2.79-.33-1.08-.28-1.46-.43-.08-.03,0-.04.01-.06-2.13-.31-5.81-.49-8.22-.64-1.49,0-2.8-.05-3.94-.17-.38.27-4.37.18-7.19.3-1.35.08-2.35.17-2.45.21-.16.08,1.57-.05,2.13-.04.98,0,1.67.07,2.8.13.94.04,3,.13,2.47-.06-.06-.02.33-.06.7-.07,1.11-.09,4.39.12,7.58.28,3.18.31,6.27.59,7,.77,1.23.24,2.82.44,4.49.62,1.67.19,3.41.47,4.98.7,1.31.17,3.17.52,4.73.8,1.53.24,1.58.32,1.8.42v.15c.74.13,1.47.34,2.2.51-.18-.13-.15-.2,1.27.1.28.04.5.03.86.11,1.17.27,1.16.33,1.3.41Z"/><path d="m220.55,3.83l-.08-.24c-.94-.44-1.69-.9-2.87-1.31-1.26-.44-3.03-.66-4.95-.65-1.92.01-3.98.32-5.83.79-.46.12-.69.29-1.25.37-2.11.3-2.22,1-.1,1.16q.88.07,1.37-.4c.23-.22.15-.49,1.75-.58.49-.03,1.04.19,1.57.3,3.02,0,2.84.55,3.54.92-3.43.34-6.94.55-10.5.55,1.43-.72-2.05-.7-3.72-.95l-1.77.49-3.61.37c-.06-.05-.07-.11-.05-.16,2.17-.83-1.29-1.3-1.23-1.99l2.19-.13s.01.08.12.09c1.56.14,1.31.84,3.2.63,2.79-.31-.36-.66.15-1.05l1.29-.51c2.66-.09,5.34-.26,8.01-.38,1.33-.06,2.66-.12,3.99-.15,1.32,0,2.64.01,3.94.07l2.26-.07.11.41-.47.12.62-.1,1.42-.05c.73.02,1.75.17,1.71-.15l2.29-.26-.32.08-.35-.05c1.58.42,5.49.25,6.61.97.53.36,5.44-.5,8.12-.77.44-.05.73-.15,1.08-.22.59.27,2.11.69.31.8-5.32.3-4.59,1.41-8.27,1.96-3.54.35-6.97.41-10.26.12Zm-15.22-1.65c-.11-.11-.36-.2-.56-.3-.15.06-.42.13-.42.19,0,.09.17.17.3.29.33-.08.72-.15.68-.18Z"/><path d="m51.61,21.94c2-.53,2.12-.81,1.98-1.06l-1.89.39-1.44.38c-3.64.76-7.17,1.5-10.9,2.84-1.52.55-3.75,1.24-5.65,1.62-2.08.42-5.89,1.71-6.51,2.01-3.28,1.53-6.54,2.91-9.76,4.36-3.22,1.46-6.41,2.95-9.45,4.91-2.23,1.47-3.33,2.83-4.82,4.55-.94,1.11-1.8,2.37-2.38,3.84-.59,1.45-.89,3.09-.77,4.72.14,1.63.7,3.17,1.45,4.49.75,1.33,1.69,2.48,2.69,3.5,2.01,2.05,4.28,3.65,6.59,5.08,2.32,1.43,4.73,2.65,7.16,3.78,1.05.48,2.09,1.03,2.79,1.07.4-.56-2.29-1.79-4.61-2.73-2.07-.84-3.21-1.54-4.56-2.54-.8-.19-2.06-1.03-3.15-1.79-.38-.19-.76-.4-1.13-.62-.66-.99-1.85-2.12-3.06-3.52-1.21-1.38-2.43-3.13-2.94-5.06-.23-.73-.42-2.01-.35-2.97.13-.95.35-1.53.63-.96.06.13.19-.94.57-1.99.09-.26.18-.54.28-.78.11-.24.21-.48.3-.68.17-.41.3-.7.28-.75-.09-.22.06-.58.35-1.06.32-.44.77-1.02,1.36-1.59.15-.4.46-.71.88-.86,1.52-1.64,3.57-3.32,3.26-2.16.48-.34.97-.67,1.47-.98,1.38-1.25,2.94-2.42,5.37-3.25,1.68-1.34,3.33-2.77,6.2-2.89,1.03-.42,2.08-.8,3.12-1.19.51-.69,2.67-1.32,4.37-1.92,2.49-.87,2.16-.41,2.41-.22,2.68-1.6,5.67-2.29,8.72-2.67.56-.38,1.02-.92,1.71-1.12,1.96-.56,1.13.18,2.75-.11.14-.61,3.37-1,4.4-1.53l2.3-.54Z"/><path d="m173.28,3.41c-1.65-.24-3.45-.32-5.83.23,1.4.22,2.77.48,1.18.98-1.25.41-2.27-.08-3.64.18-1.86-.47-2.86.02-4.02.47-1.33.52-2.66.74-3.63.29-3.24.44-2.69.88-3.24,1.33.53.41,3.16.31,4.47.53,2.2.21,5.07.01,7.78-.41,2.04-.29,3.82-.43,5.8-.48,1.99-.39-.15-.97,3.33-1.23,2.58-.2,2.19.3,2.62.58l2.29-.22c-.18-.28-.51-.55-.5-.84,0-.19,1.06-.34,2.05-.41.86-.06,1.52,0,1.03.18-.72.26-2.71.59-.58.65.54.01,2.38-.49,3.62-.75.39-.1.59-.3,1.41-.17l-1.44.17c.46.37,1.41.47,2.61.42,1.2-.03,2.67-.19,4.17-.38.89-.72-3.72-.82-3.42-1.47-4.93.7-4.91.18-4.57-.45-1.98.25-3.64-.05-5.68.3.35.67-1.81,1.44-5.24,1.6-4.76.23,1.49-.72-.18-.94-.23-.03-.27-.1-.41-.15Z"/><path d="m237.61,90.58l1.87-.07,3.61-.29,1.33-.08s-.07-.08-.12-.12c-.79-.01-1.18-.08-.52-.2.09-.02.42-.05.53-.04,1.03.03-.05.17-.05.25,1.89-.07,3.28-.22,4.15-.49,2.76-.85,7.22-.48,7.14-.31-.25.54,2.74.33,4.91.33,2.72-.36,5.41-.68,8.17-1.07,1.2-.16,3.54-.28,2.86-.51-.56-.18-3.08.18-3.73.15-2-.07-5.02.76-6.17.26-1.51.05-3.3.17-3.55-.08-1.27.07-2.63.2-3.46.06-2.8.09-5.61.17-8.39.26-5.49.11-10.22.86-15.77.81v.35c1.37-.04,2.79-.11,3.51.07-.08.2-.12.41-2.21.48l1,.42,4.88-.16Z"/><path d="m101.19,11.99c.71-.02,1.2.07.51.24-5.39,1.31-2.62,1.4.03,1.51l2.1-.36-.13-.57-.28-.04.26.05c1.94-.09,6.04-1.15,5.84-.26,3.16-.55,6.15-.25,9.6-1.34.49-.17,2.74-.25,2.9.08l3.37-.33c1.4-.66,5.61-1.36,4.71-1.99-.04-.03.72-.18,1.11-.28,2.63.85,3.51-.72,5.5-.76-.02-.06-.02-.13-.03-.2-5.88-.35-7.14.79-9.08,1.71l-.43.1.46-.1c-1.17.05-3.3.23-3.35.13-.38-.69-1.6-.67-3.14-.43-1.54.26-3.4.81-5.09,1.1-3.52.62-7.56,1.5-10.77,1.35-1.56.07-1.41-.47-4.08-.02v.41Z"/><path d="m284.75,2.32l-2.12-.3c-5.19-.28-5.1-.91-4.53-1.62-1.7-.28-1.63.13-2.47.18,1.51.98-1.06,1.77-5.77,1.77,1.07.51,1.15,1-.03,1.47,1.18.53,2.18.2,3.22.05-.68-.12-.85-.29.08-.29,1.27,0,1.06.23,1.18.38,2.72.78,6.77.32,9.68.46,4.77.17,9.96.75,14.51.39v-.3s-3.32-.25-3.32-.25c-1.06.33-1.99.1-2.93-.13l-3.92-.59c-.3.27-.55.56-2.67.42-1.43-.09-2.24-.33-2.92-.58-1.58-.58.61-.78,2.01-1.05Z"/><path d="m261.59,88.39c1.15.5,4.17-.34,6.17-.26.64.02,3.16-.34,3.73-.15.68.22-1.65.34-2.86.51-2.75.39-5.45.7-8.17,1.07l1.01.19,1.33-.08c3.67-.62,8.37-.78,12.51-1.21.98-.23.73-.37.23-.51-.86-.25.4-.47,3.07-.67l.04-.14c.02-.19.81-.35,2.44-.47.34-.03.66-.07.98-.11-.34-.1-1.87-.1.09-.4l-.11-.13c-3.27.27-6.54.45-9.81.66-3.27.22-6.55.47-9.83.76,1.07.25,3.04.46-.82.94Z"/><path d="m167.35,90.92c1.36.03,1.21.74,3.65.29,1.83-.33,3.53.29,5.34.18.53-.65,2.98-.46,5.55-.16,2.18.25,3.98.21,5.63,0,1.71-.21,2.47-.46.67-.78-2.42-.05-4.64-.36-7.25-.28-8.11.24-9,.17-15.47-.6-.15-.02-.46-.05-.5-.04-3.33.54-8.31-.68-11.71-.26.31.33.32.66,2.6.93.09-.22.63-.22,2.19-.11,3.29.25,6.37.52,9.31.83Z"/><path d="m261.59,88.39c3.86-.48,1.89-.69.82-.94-2.56,0-4.28-.18-7.91.43-2.62.42-7.9.36-12.12.55-5.67.24-11.63.57-17.36.45-2.51-.04-4.18.02-3.9.44.28.42,2.31.35,4.58.23l4.73-.12c5.55.05,10.28-.7,15.77-.8,2.77-.09,5.59-.17,8.39-.26.67-.09,1.42-.28,2-.3,1.28-.05,1.4.1,1.46.24.25.25,2.03.14,3.55.08Z"/><path d="m127.59,9.43c1.94-.92,3.19-2.06,9.08-1.71l4.58-.83c1.21-.31,2.47-.58,2.12-.86-2.22-.27-5,.48-7.37.77-4.52.57-9.04,1.07-13.57,1.61-4.53.56-9.03,1.32-13.54,2.13-2.41.45-2.72.68-3.61,1.04,3.22.15,7.25-.73,10.77-1.35,1.69-.29,3.55-.84,5.09-1.1,1.54-.25,2.75-.26,3.14.43.06.1,2.19-.08,3.32-.13Z"/><path d="m89.49,81.8c-.57.15-1.05.32-1.74.44-2.3.4-2.02.27,2.55,1.11,7.59,1.39,15.21,1.92,22.75,2.86,2.29.27,5.3.63,4.87-.06-4.22-1.09-8.9-1.47-14.08-1.72-3.34-.15-5.85-.61-5.13-1.25-3.36-.12-6.06-.99-9.22-1.39Z"/><path d="m153.25,89.27c3.4-.42,8.38.8,11.71.26.04,0,.35.02.5.04,6.47.78,7.36.85,15.47.6,2.6-.08,4.82.23,7.25.28-1.02-.56-2.13-1.1-6.11-1.48l-2.93.26c-1.09.32-2.74.25-5.09.12-2.85-.18-6.31-.27-8.78-.41-4.98-.28-9.45.05-14.18-.55l1.22.8c.32.02.63.05.94.07Z"/><path d="m211.69,89.7c-1.49.51-2.71.99,3.29.98,1.93,0,.72.21.58.35-2.95.33-6.21.22-8.32-.01-5.35-.54-6.57-.09-7.72.5l-1.1.03c-3.52-.31-9.3-.55-3.8-1.33.99-.14.97-.43,1.41-.64,3.03.01,6.06.02,9.08.03,1.96.02,3.43,0,3.63-.32l3.37.02c-.13.13-.08.26-.42.38Zm-9.66.46c-.12-.01-.32-.02-.61.04.17,0,.33.01.61-.04Z"/><path d="m385.6,10.18c1.6.92,7.73.85,7.58,1.78-.08.46-2.57.65-3.69,1.06-1.15.42-5.77-.1-9.4-.72-1.64-.28-3.17-.7-4.81-.96-1.57-.27-3.47-.89-4.68-.66-1.29.24,3.11.58,2.24.93,5.26,1.54,12.06,1.62,17.5,3.13,1.72.48,1.43-.24,2.85-.12,1.4-.06-4.66-1.31.4-.8,1.8-.47,6.27-.06,5.76-1.13-1.03-.24-2.38-.47-3.03-.72-1.62-.63-1.41-1.74-5.88-1.31-.02,0-.4-.12-.89-.27-.49-.15-1.1-.32-1.57-.42-2.78-.59-5.46-.89-7.87-.86.68,1,3.93.56,5.47,1.07Z"/><path d="m400.08,15.58c1.38.27,2.36.58,3.03.95.85.47,2.1.97,3.49,1.32,1.39.34,2.92.57,4.29.58,2.45.03,4.73-.24,5.13-.87.73-1.18-2.19-2.13-8.93-3.09-1.65-.23-3.63-.91-5.46-1.38-2.12.2-1.44.91.69,1.66,2.16.76,4.24.84,5.91.65.61-.07,3.33.13,3.01.59-.28.41,1.19,1.06.13,1.31-.65.16-1,.44-2.82.19-1.89-.26-2.66-.67-2.82-1.03-.17-.37-.4-.69-2.5-1.02-2.03-.32-3.1-.29-3.16.12Z"/><path d="m151.1,88.4c4.73.6,9.2.27,14.18.55,2.47.14,5.93.22,8.78.41,2.34.13,4,.2,5.09-.12-3.99-.94-9.99-.72-14.93-.96-7.38-.39-14.94-.4-22.09-1.44l-.61.2c1.05.34,4.78.89-.95.65-1.87-.09-2.95.14.26.46,3.41.07,5.93-.5,10.26.26Z"/><path d="m93.87,16.07c-.18-.61-1.72-.64-5.05.37-2.45.74-4.09.93-6.17.97-2.13.03-5.5,1.33-7.55,1.17-4.72,1.59-10.1,2.19-15.14,3.33-1.72.39-2.69.63-3.42,1.05,4.76-.49,9.79-1.48,15.18-2.71,3.44-.78,6.93-1.58,10.77-1.99,3.34-.39,7.55-1.44,11.38-2.19Z"/><path d="m316.97,5.69l-2.48-.19-3.64-.83c-.52-.04-1.04-.08-1.57-.13-1.71.04-3.42.05-5.13.12,2.95,1.24,8.95,1.33,13.24,1.65,4.27.35,8.57.51,12.86.84,4.3.31,8.6.63,12.89.94h2.31c-3.79-1.13-7.94-1.63-12.51-1.39-1.84-.05-3.72-.09-5.41-.23-1.68-.12-3.16-.38-4.16-.97l-1.66-.1-1.19-.03c0,.16.05.23.09.31.11.06.23.12.35.18l-.81-.13-3.19-.06Z"/><path d="m303.12,84.15c3.26-.34,6.53-.61,9.79-1.17,2.59-.36,5.09-.67,7.04-.72,1.75-.25,2.62-.37,3.5-.5,4.16-.57,8.16-1.4,12.59-1.94,2.3-.29,3.46-.84,4.1-1.18-12.46,2.07-24.97,3.77-37.51,5.34l.49.17Z"/><path d="m215.55,91.02c-2.95.33-6.21.22-8.32-.01-5.35-.54-6.57-.09-7.72.5,8.81.18,17.64.4,26.43-.3,2.13-.16,3.46.14,5.19.04,2.38-.13,6.06-.1,6.48-.67l-4.88.16-8.02.08c-3.05.1-6.1.15-9.16.2Z"/><path d="m388.19,67.38c-.06.18.74.15-2.77,1.29-2.18.73-4.04,1.38-3.58,1.5,4.52-1.39,9.03-2.89,13.45-4.77,4.41-1.87,8.81-3.97,12.97-6.68l-.11-.08-.34.09c-.15.1-.32.2-.49.3-1.38.91-2.8,1.75-3.33,1.78-.26.14-.53.28-.8.42-1.05.5-2.08,1.03-3.14,1.49-.4.38-1.46.91-3.19,1.58-1.89.77-3.76,1.83-5.56,2.32-.6.16.24-.26,1.15-.68l.05-.11c-.36.09-.74.16-1.11.24-1.96.55-2.04.87-3.2,1.31Z"/><path d="m198.41,91.55c-3.52-.31-9.3-.55-3.8-1.33.99-.14.97-.43,1.41-.64-1.68-.07-1.11-.25-1.22-.39h-2.25c.69.37-2.21.48-2.3.79l1.5.1c-.11.02-.32.05-.33.05-.42-.05-.81-.1-1.21-.15-1.99-.25-.76-.55-1.18-.83-2.26-.44-4.57-.56-6.97-.18,3.97.38,5.09.92,6.11,1.48,1.8.32,1.04.57-.67.78-1.65.21-3.45.26-5.63,0-2.57-.3-5.02-.49-5.55.16,2.9.12,5.83.13,8.75.18,2.92.03,5.84.05,8.7.22,2.26.13,3.45-.02,4.62-.24Z"/><path d="m140.84,88.14c-3.21-.32-2.13-.55-.26-.46,5.72.24,1.99-.31.95-.65-1,.29-2.77-.1-4.15-.15.13.24-.94.48-1.77.33-4.14-.76-7.14-.28-10.77-.64-1.96.12-2.05-.13-2.18-.38-1.94-.47-2.45-.25-3.04-.07.17.03.47.06.49.08.76.65,3.49.92,6.48,1.13,4.12.27,6.93,1.15,11.21,1.34.11,0,.51.35.78.54l4.45.62,2.36.35.31-.48c-5.06-.4-5.32-.96-4.86-1.55Z"/><path d="m79.25,82.88c-2.34-.37-2.68-.82-4.15-1.23-.94-.26-1.89-.53-1.27-.65.47-.1,1.48.08,2.41.23,1.11.17,2.5.44,3.26.46,1.42.05,3.67.07,3.45-.13-.55-.5-2.62-.39-4.01-.67-.85-.16-1.63-.38-2.44-.57-1.02-.47-2.04-.34-3.06-.5-1.72-.16-3.57-.27-3.13.13,1.73,1.57-3.55.64-8.29-.2.53.37,3.01.74,3.13,1.11,1.96.29,3.84.66,5.73,1.05,1.89.41,3.78.8,5.76,1.09,2.83.42,2.26.06,2.62-.12Z"/><path d="m124.83,86.57c3.63.36,6.64-.11,10.77.64.84.15,1.91-.09,1.77-.33-7.27-.58-14.51-1.16-21.78-1.74-3.64-.29-7.45-.81-11.04-1.35-2.16-.34-3.94-.46-5.86-.6-.73.64,1.79,1.09,5.13,1.25,5.18.25,9.86.63,14.08,1.72.57,0,1.15-.02,1.71-.03.59-.18,1.1-.4,3.04.07l2.18.38Z"/><path d="m215.55,91.02c3.05-.04,6.11-.1,9.16-.2l.08-.32c-1.25.02-2.35,0-2.16-.2.19-.2,1.45-.23,2.59-.25.42-.16.45-.33.47-.49-2.27.13-4.3.19-4.58-.23-2.92-.14-5.94-.13-9.01-.01-.13.13-.08.26-.42.38-1.49.51-2.71.99,3.29.98,1.93,0,.72.21.58.35Z"/><path d="m141.25,6.9l-4.58.83.02.2.26.05-.25-.05c-1.99.04-2.86,1.62-5.5.76-.39.1-1.15.25-1.11.28.91.63-3.31,1.33-4.71,1.99.27.19,1.29.04,2.2-.07,1.16-.47,3.09-.6,4.79-.83,1.27-.03,1.95-.94,2.69-.46.78.51,2.81-.13,4-.13,1.95-.64,2.89-.53,3.6-.25,1.2-.06,2.66.21,3.34-.41l.48-.37c-1.41,0-2.14-.28-4.1-.04-1.35.03-.87-.26-1.01-.44-6.14.4.73-.8-.13-1.06Z"/><path d="m404.72,59.34c1.77-.79,3.76-1.88,5.38-2.77,1.68-.9,3.92-2.51,5.82-4.35,1.92-1.83,3.45-3.9,4.12-5.26-1.61,2.32-3.87,4.5-2.72,2.87-3.73,3.87-8.25,6.84-12.61,9.52Z"/><path d="m141.38,7.95c-6.14.4.73-.8-.13-1.05,1.21-.31,2.47-.58,2.12-.86,3.48-.4,7.12-1.32,10.36-.88.16.02.21.06.16.12-4.53,1.07-4.8,1.98-4.46,2.86l-2.93.3c-1.41,0-2.14-.28-4.1-.04.11-.22.12-.43-1.01-.44Zm3.58-1.05c-.75-.03-1.43.22-1.18.31.49.18-1.8.85,1.71.5,1.74-.27,1.58-.4.29-.45-.26-.12-.26-.33-.83-.35Z"/><path d="m61.65,19.24c1.06-.21,2.01-.02,3.14-.59,2.51-1.26,2.89-.7,3.8-.6.8-.11,1.85-.17,2.38-.32,2.09-.6,4.04-1.23,5.69-1.07,1.35.14-.4.73-1.63,1.27-2.19.96-3.98,1.11-5.91,1.16-1.2.03-3.15.36-4.06.72-3.11,1.23-4.66,1.01-6.65,1.13,1.08-.57,2.16-1.14,3.24-1.72Zm12.74-1.9s-.4.11-.41.13c-.04.06.03.1.06.14l.86-.26c-.16,0-.32-.02-.51-.02Z"/><path d="m367.04,74.29c-4.52,1.18-9.32,2.15-13.36,3.35-1.02.31-2.5.52-3.54.65-1.89.26-3.14.56-4.12.93,3.93-.41,8.59-1.51,12.93-2.59,5.63-1.36,10.98-2.37,16.54-4.24.81-.27,1.81-.57,2.15-.76-1.2.12-3.14.65-5.34,1.4-2.66.89-3.96,1.14-5.26,1.26Z"/><path d="m400.08,15.58c.05-.41,1.13-.44,3.16-.12,2.1.33,2.33.65,2.5,1.02.16.35.93.77,2.82,1.03,1.82.25,2.17-.04,2.82-.19,1.06-.26-.42-.91-.13-1.31.32-.46-2.4-.66-3.01-.59-1.67.19-3.75.11-5.91-.65-2.13-.75-2.82-1.46-.69-1.66-.73-.28-1.47-.49-2.26-.39.51,1.07-3.96.67-5.76,1.13,1.17.36,2.22.78,2.25,1.13l4.23.62Z"/><path d="m40.46,25.25c-3.05.38-6.04,1.07-8.72,2.67-1.52,1.09-6.72,2.81-7.34,3.89l.61.46c1.92-.52,3.59-1.17,5.04-1.96.21-.19-.55-.12.57-.57l.46.22c.33-.07.67-.18,1.04-.32,4.42-1.55,3.2-2.27,7.3-3.68.91-.35,1.11-.55,1.04-.71Z"/><path d="m261.48,89.74l-1.01-.19c-2.17,0-5.16.22-4.91-.33.08-.16-4.38-.54-7.14.31-.87.27-2.26.42-4.15.49.09.03.12.07.16.11l-.07.45c5.65-.11,11.25-.06,17.12-.85Z"/><path d="m315.38,84.44c.4-.39-2.08-.12-4.1.09-4.36.39-9.42.86-13.22,1.45-2.62.42-4.4.63-6.97.89-1.56.16-.67.31-.78.46,5.5-.49,10.85-.87,16.58-1.83,2.48-.39,5.65-.66,8.49-1.06Z"/><path d="m103.84,13.38l-2.1.36c-1.08.45-2.59.92-2.27,1.27,5.72-.56,11.72-1.97,17.54-2.25,2.35-.1,2.95-1.03,5.02-1.47-.16-.32-2.4-.24-2.9-.08-3.45,1.1-6.43.8-9.6,1.34-1.87,1.47-3.8.39-5.69.83Z"/><path d="m10.27,37.39c-.5.3-.99.64-1.47.98-.64.98-.61.94.97,0,.7-.4,1.66-.87,1.87-.86.72.02-2.04,1.65-2.27,2.2.72-.36,1.45-.7,2.19-1,1.06-.63,2.16-1.21,3.27-1.76,2.1-1.4,4.31-2.69,6.56-3.91-2.52.75-3.75,1.15-3.7.9.05-.25,1.38-1.15,4.15-2.69-2.87.12-4.52,1.55-6.2,2.89-1.83,1.02-2.19,2.36-5.37,3.25Z"/><path d="m62.01,79.75c4.74.84,10.02,1.77,8.29.2-.44-.4,1.41-.29,3.13-.13-.42-.72-2.9-.64-4.32-.97-1.14.4-1.94.93-7.25-.61-.88-.26-2.32-.54-2.73-.39-.44.16.66.46,1.83.74l.51.07-.46-.05,1.02,1.14Z"/><path d="m153.72,5.15c.16.02.21.06.16.12.54.26,4.08-.27,3.46.3.97.45,2.3.23,3.63-.29,1.17-.46,2.17-.94,4.02-.47,1.37-.25,2.38.23,3.64-.18,1.59-.51.22-.76-1.18-.98-4.66.3-9.65.26-13.73,1.51Z"/><path d="m222.95.96c1.58.42,5.49.25,6.61.97.53.36,5.44-.5,8.12-.77.44-.05.73-.15,1.08-.22l.02-.59c-4.15-.47-7.99.46-12.08.32l-3.01.16c-.39.02-.64.07-.74.14Z"/><path d="m386.85,67.07c.4-.05,1.31-.32,2.51-.69,1.19-.38,2.68-.84,4.17-1.42,1.51-.56,3.06-1.15,4.4-1.77,1.34-.6,2.51-1.11,3.24-1.53,2.89-1.59.92-.84,1.43-1.29-.92.48-1.83,1.01-2.76,1.46-.94.44-1.87.85-2.81,1.18-.4.16-1.75.7-1.84.73-1.17.65-2.55,1.26-4.01,1.78-1.45.52-2.94,1.05-4.33,1.54Z"/><path d="m385.6,10.18c-1.55-.51-4.79-.07-5.47-1.07-1.57-.62-3.22-.62-4.86-.7-2.77.2-7.02-.56-10.24-.62.59.44.46.88,3.9.9,2.08,0,5.05.44,7.6.78l1.45-.08.43.2-1.8-.09c2.09.46-4.58.9,3.22,1.37.32-.31-.63-.93,2.43-.56.66-.21,3.42.34,3.33-.14Z"/><path d="m317.64,83.79c-.06.07.35.09-.63.24,6.94-.84,14.28-1.63,20.13-3.38l-.18-.12c-1.5.26-3,.53-4.51.77-4.91.9-9.84,1.72-14.81,2.48Z"/><path d="m365.03,7.8c3.22.06,7.46.82,10.24.62-.27-.77-2.86-.55-4.15-.74-4.94-.81-10.09-1.22-15.12-1.62.88,1.35,5.88,1.22,9.03,1.75Z"/><path d="m282.61,1.36c3.59.21,7.66.1,10.03,1.04.9.36,2.24.24,2.47-.08.17-.23-.11-.51,1.42-.58.52-.65-2.51-.58-4.11-.68-3.6-.22-7.25-.37-10.88-.52.29.28-.64.55,1.07.82Z"/><path d="m264.17,3.24c-2.5-.23-5.11-.53-6.9.06-1.17.37-1.85.15-2.89,0-3.49-.52-6.94-.54-10.2.09,3.25.57,7.3.46,11.25.4,2.91-.08,5.8-.08,8.7-.09l.04-.46Z"/><path d="m26.16,67.27c-.88.07-3.39-.26,2.09,1.46,2.86.85,4.06,1.6,5.43,2.38.68.38.07.68,2.41,1.21,1.89.42,1.55-.02,1.29-.39-.25-.36-.35-.67-.52-1.01-3.61-1.1-7.18-2.29-10.69-3.64Z"/><path d="m184.79,2.6c-.34.63-.36,1.15,4.57.45l3.45-.56,2.19-.13c.92-.25,2.22-.28,3.48-.33l1.29-.51c.09-.41-1.44-.22-2.66-.11-4.11.38-8.22.69-12.31,1.2Z"/><path d="m11.56,38.7c-.74.3-1.47.65-2.19,1-1.27.98-2.47,2.11-3.51,3.26-1.04,1.15-1.94,2.28-2.81,3.34-.11.14-.23.37-.34.63-.1.27-.15.58-.21.85-.12.56-.03,1.04-.01.98.09-.12.12.05.14.32,0,.27.1.64.14.93.04.29.14.5.19.47.04-.03.09-.32.17-.99,0-1.08.33-2.18.88-3.2.57-1.02,1.34-1.94,2.17-2.82,1.72-1.72,3.67-3.19,5.39-4.76Z"/><path d="m186.03,4.49c-1.24.27-3.09.77-3.62.75-2.14-.05-.14-.39.58-.65.48-.17-.17-.24-1.03-.18-.99.07-2.04.22-2.05.41-.01.29.32.56.5.84,4.18.27,8.88-.24,13.56-.51l.12-.52c-.06-.05-.07-.11-.05-.16l-1.25.04c-1.5.19-2.96.35-4.17.38-1.2.05-2.14-.04-2.58-.41Z"/><path d="m39.42,25.96c-4.1,1.41-2.89,2.13-7.3,3.68,2.43-.28,4.86-.61,7.67-2.22.3-.23.46-.52.93-.67,7.25-2.28,1.77-1.12-.03-.94-.14.18.1.3-1.21.66l.17-.38c-.08-.04-.16-.08-.22-.13Z"/><path d="m49.43,77.22c-.89-.6-2.69-1.49-4.73-1.63-1.96-.14-4.54-.97-6.98-1.68-2.44-.74-4.72-1.45-6.12-1.32,2.97,1.01,5.96,1.89,8.94,2.63,2.97.79,5.95,1.4,8.89,2Z"/><path d="m143.03,89.83l-4.45-.62-2.33-.31c-.02.44-1.95.27-3.83.11-4.38-.76-8.51-1.03-12.45-.85.36.22,1.54.51,2.35.52,6.71.12,14.17,1.39,20.7,1.15Z"/><path d="m364.75,10.85c-.13-.74-.84-1.36-5.28-1.25-3.31.1-7.3-1.44-10.52-.99,4.64,1.44,10.41,1.65,15.81,2.24Z"/><path d="m289.04,85.56c1.57.3,4.61.27,7.95.19-.7-.36.98-.89,3.2-1.45-2.34.02-4.39.41-6.52.72-1.12.46-3,.43-4.63.55Z"/><path d="m315.78,2.58c3.95,1.15,12.29,1.53,17.37,1.13-4.9-.89-9.91-.8-14.87-1.13-.15.42-1.36.18-2.49,0Z"/><path d="m84.31,15.54c1.32-.26,2.21-.51,2.13-.76l-1.47.12-.36-.15,1.09-.12.93.08c1.35-.24,1.98-.49,2.05-.73-4.15.67-7.88.62-12.39,1.88.53.58,4.41-.02,7.02-.17.33-.05.67-.11,1-.16Z"/><path d="m104.27,86.14c-5.25-.63-10.45-1.28-14.98-1.35,1.72.56,3.35.94,6.02.94,3.38.02,7.48.89,11.18,1.14l-.16-.43c-.67-.1-1.37-.2-2.06-.3Z"/><path d="m269.87,2.35c4.71,0,7.28-.8,5.77-1.77l-4.61-.11c.7.48-2.72.63-2.06,1.1,1.34.24.77.52.9.78Z"/><path d="m21.39,33.04c-2.25,1.22-4.46,2.51-6.56,3.91,3.5-1.52,7.07-2.77,10.18-4.68l-.61-.46c-1.01.39-2.01.81-3.01,1.23Z"/><path d="m149.42,8.13l-2.93.3-.48.37c4.29-.28,8.66-.39,12.56-1.37-1.31-.22-3.94-.12-4.47-.53-.81.16-1.5.29-2.2.43-.15.3-.24.6-2.49.81Z"/><path d="m264.17,3.24l-.04.46,5.71.12c1.18-.46,1.11-.96.03-1.47-2.79-.1-2.12-.47-2.18-.79-.44-.17-1.07-.33-2.15-.28-1.27.07-.52.28-.29.43.86.56,2.5,1.16-1.08,1.53Z"/><path d="m101.19,11.99v-.41c-1.94.25-3.99.46-5.94.76-1.96.3-3.82.7-5.38,1.42.64.26-.08,1.17,4.06-.36,1.81-.66,5.11-.72,7.26-1.41Z"/><path d="m145.7,89.69l-.31.48c4.43.63,8.47.49,12.59.49l-2.13-.46c-2.27-.27-2.29-.61-2.6-.93-.31-.02-.62-.05-.94-.07-.05.68-.76,1.21-6.62.49Z"/><path d="m196.03,89.58c3.03.01,6.06.02,9.08.03,1.96.02,3.43,0,3.63-.32-4.04-.44-8.53-.03-12.73-.21-.01.16-.02.32.02.49Z"/><path d="m155.86,90.2l2.13.46c1.63.19,3.3.43,4.89.54,1.59.09,3.12.05,4.47-.28-2.94-.32-6.02-.58-9.31-.83-1.56-.11-2.1-.11-2.19.11Z"/><path d="m173.28,3.41c.13.05.18.12.41.15,1.66.21-4.58,1.17.18.94,3.43-.17,5.59-.93,5.24-1.6-2.02.05-4.18-.14-5.83.52Z"/><path d="m367.04,74.29c1.3-.12,2.6-.37,5.26-1.26,2.2-.75,4.14-1.29,5.34-1.4.78-.24,1.77-.57,2.03-.74-.67.1-1.33.21-2.01.29-3.46.95-6.85,2.01-10.31,2.91l-.32.21Z"/><path d="m417.33,49.82c-1.15,1.63,1.11-.55,2.72-2.87,1.22-1.68,1.71-2.92,1.96-3.75l-.21-.04c-1.01,2.41-2.53,4.63-4.47,6.66Z"/><path d="m275.32,88.45c-4.14.43-8.84.59-12.51,1.21,4.19.09,8.34-.64,12.51-.94v-.28Z"/><path d="m10.81,59.78c-.16.75.93,1.58,2.39,2.3,1.45.74,3.26,1.37,4.49,2.02-.03-.34.84-.31-2.23-1.68-1.52-.7-3.16-1.67-4.65-2.64Z"/><path d="m178.11,5.89c-.43-.28-.03-.78-2.62-.58-3.48.27-1.34.84-3.33,1.23,2.82.36,3.97-.43,5.95-.66Z"/><path d="m304.15,4.67c1.71-.07,3.42-.08,5.13-.12-3.21-.29-3.38-.78-3.82-1.25-.25-.28-1-.52-2.54-.58-.57-.02-1.48.04-1.66.12-.52.24.73.36,1.7.51,3.53.54-2.89.71.17,1.24.32.04.66.07,1.01.09Z"/><path d="m421.85,45.46c-1.03,2.15-3.49,4.19-4.39,5.8.46-.24.69-.37,1.29-1.06.31-.34.69-.84,1.22-1.57.51-.75,1.18-1.74,1.88-3.17Z"/><path d="m210.15,3.26c3.02,0,2.84.55,3.54.92,2.36-.04,4.96.2,6.87-.35l-.08-.24c-1.7-.06-4.67.21-4.95-.18-.64-.86-3.04-.47-5.37-.15Z"/><path d="m203.18,4.73c1.43-.72-2.05-.7-3.72-.95l-1.77.49-1.37.9c2.36,0,4.41-.6,6.86-.43Z"/><path d="m49.92,75l.13-.52c-2.03-.68-4.07-1.33-6.4-1.75-.05.27-.95.48,2.16,1.21,2.35.56,3.37,1,3.2,1.35,1.06.13.78-.14.91-.29Z"/><path d="m300.19,84.29c-2.22.56-3.9,1.09-3.2,1.45,2.31-.51,5.7-1.1,6.13-1.59l-.49-.17-2.45.31Z"/><path d="m282.61,1.36c-1.7-.26-.78-.54-1.07-.82l-3.44-.15c-.56.71-.65,1.34,4.53,1.62l-.03-.65Z"/><path d="m106.33,86.44l.16.43c2.22.25,4.13.33,5.77.26-1.29-1.39-3.65-.98-5.94-.69Z"/><path d="m360.31,74.59c0,.07-.19.19.04.2.66.03-2.48,1.08.99.29,3.07-.71.35-.38.76-.64.12-.07,1.13-.34,1.72-.53-.77.06-1.47.09-3.51.67Z"/><path d="m289.04,85.56c1.63-.12,3.51-.09,4.63-.55l-2.51.19c-.94.11-1.75.18-2.2.11l-4.63.53.98.06,3.72-.33Z"/><path d="m370.75,9.74s-.09.04-.01.06c.39.15-1.33.1,1.46.43.95.11,2.76.13.96-.21l-2.4-.28Z"/><path d="m190.27,89.98c.08-.31,2.99-.42,2.3-.78l-3.51-.04c.41.28-.81.58,1.21.82Z"/><path d="m395.85,14.96c-.02-.35-1.08-.77-2.25-1.13-5.06-.52,1.01.73-.4.8.21.1.49.16.86.18.5.06,1,.14,1.5.22.31.03.41,0,.27-.07Z"/><path d="m221.33,1.21l2.29-.26c-1.03-.43-3.81-.21-5.56-.37l-.11.4.11.41c.62,0,1.09,0,1.56-.02.17-.23.95-.19,1.71-.15Z"/><path d="m65.14,80.86c-.13-.37-2.61-.74-3.29-1.11l-1.83-.22,1.39.55c1.17.34,2.41.61,3.72.78Z"/><path d="m142.67,9.21c-.71-.28-1.65-.39-3.6.25.98.08,1.42.56,3.6-.25Z"/><path d="m243.1,90.22l-3.61.29c-.15.41,1.85.23,3.62.12v-.41Z"/><path d="m132.38,10.05c-1.7.23-3.63.37-4.79.83,2.5.11,3.78-.3,4.79-.83Z"/><path d="m358.59,8.93c1.13.12,2.45.18,3.94.17-1.26-.07-2-.35-3.94-.17Z"/><path d="m285.32,85.89l-.98-.06-2.28.2.11.13c1.04.06,2.1-.01,3.16-.27Z"/><path d="m236.42,3.3s.02-.07.15-.11c-.16.03-.34.04-.53.05-.1.15-.21.3-.32.45l.7-.39Z"/><path d="m288.97,85.3c.45.07,1.26,0,2.2-.11,0-.22-.75-.18-2.2.11Z"/><path d="m274.31,3.95c-.12-.16.09-.39-1.18-.38-.93,0-.76.17-.08.29l1.26.09Z"/><path d="m217.95.98l.11-.4c-1.18.1-2,.25-2.37.47l2.26-.07Z"/><path d="m223.69.83l3.01-.16c-1.27-.23-2.29-.18-3.01.16Z"/><path d="m195.97,89.57l.03-.48c-.76-.04-1.16,0-1.19.1.1.14-.46.31,1.16.38Z"/><path d="m31.08,29.95l-.46-.22c-1.12.45-.36.37-.57.57.36-.08.7-.2,1.03-.35Z"/><path d="m315.78,2.58c1.13.19,2.33.42,2.49,0-1.04-.13-2.07-.25-2.49,0Z"/><path d="m395.58,15.03c-.5-.08-1-.16-1.5-.22.29.13.58.26.87.4l.63-.18Z"/><path d="m367.36,74.08c3.45-.9,6.84-1.96,10.31-2.91,1.19-.36,1.69-.6,1.76-.72l.06-.33c-1.88.59-2.54.66-1.91.32.3-.16.71-.38-.55-.04-.37.1-.94.28-1.42.44-.24.08-.46.16-.61.21-.16.06-.25.09-.24.1.17.17-.99.64-2.44,1.13-1.46.48-3.19,1.02-4.14,1.41-.39.16-.54.26-.8.39Z"/><path d="m423.42,33.42c-.67-2.4-1.94-4.66-3.68-6.34,1.33,1.59,1.32,1.84,1.28,1.91-.06.08-.17.02.56,1.26.75,1.33,1.29,2.78,1.56,4.27.1-.61-.6-3,.28-1.1Z"/><path d="m319.96,82.26c-1.95.05-4.44.36-7.04.72.1.13-.25.35.4.36.86.01-2.52.69.58.28,2.15-.28,1.7-.43,1.45-.56-.12-.06-.16-.31,1.27-.26,2.62.1,2-.44,3.35-.55Z"/><path d="m400.05,62.73c1.06-.46,2.09-.99,3.14-1.49.36-.28,2.93-1.76.57-.63-2.52,1.14-3.26,1.75-3.71,2.12Z"/><path d="m392.45,65.94c-.91.42-1.75.84-1.15.68,1.8-.49,3.67-1.54,5.56-2.32-.26-.15-2.7.94-4.41,1.64Z"/><path d="m332.45,81.31c1.5-.24,3.01-.5,4.51-.77-.28-.16-1.72,0-3.51.32-1.39.24-.91.33-.99.45Z"/><path d="m282.08,86.56c-.31.04-.64.08-.98.11l-.11.26c1.38-.15,3.08-.24,3.68-.52l-2.59.15Z"/><path d="m403.99,60.82c.52-.03,1.94-.87,3.33-1.78l-.19-.09c-1.04.66-2.08,1.28-3.14,1.87Z"/><path d="m383.24,68.5c-.24.06-.47.12-.7.18l-.6.28c.29-.08.63-.16.84-.24.21-.08.3-.15.45-.23Z"/><path d="m323.46,81.76l-2.63.38c.34.02.6.09,1.05.04,1.28-.15,1.25-.29,1.59-.42Z"/><path d="m391.39,66.07c.37-.08.74-.15,1.11-.24,1.55-.81.3-.28-1.11.24Z"/><path d="m407.12,58.95c.54-.32,1.32-.79,1.27-.86-.01-.01-.4.2-.6.32-.91.54-.61.45-.67.54Z"/><path d="m379.49,70.13l-.06.33c1.39-.54,1.47-.67.06-.33Z"/><path d="m349.06,77.53s.21,0,.37-.02c-.03-.04-.21,0-.37.02Z"/><path d="m278.65,87.13l-.04.14,2.35-.35c-.75.07-1.53.14-2.31.21Z"/><path d="m388.17,67.4l-.26.06c.09-.02.19-.05.26-.06Z"/><path d="m407.81,58.74l.34-.09c.82-.59.63-.5-.34.09Z"/><path d="m284.75,2.32c-1.41.28-3.59.47-2.01,1.05.67.25,1.49.49,2.92.58,2.12.14,2.37-.15,2.67-.42-1.09-.38-1.63-.75-.67-1.1.44-.16.34-.34-.91-.42-1.51-.1-1.75.11-1.99.31Z"/><path d="m382.27,10.32c-3.06-.37-2.11.25-2.43.56,1.12.2,2.74.27,2.83.73.05.23,1.11.65,2.12.72,1.04.07,2.02-.06,2.42-.23.66-.28-1.35-.39-1.95-.59-1.19-.38-2.01-.79-2.99-1.18Z"/><path d="m323.39,5.51c1,.59,2.48.85,4.16.97,1.68.14,3.57.18,5.41.23-1.31-.41-2.72-.75-4.29-.98-1.57-.23-3.31-.29-5.28-.22Z"/><path d="m320.54,5.39l1.19.03c.2-.05.33-.12.62-.13,2.22-.11,3.71-.31,1.48-.93-.58-.16-2.21-.4-1.95-.17.62.55-6.64.25-1.34,1.21Z"/><path d="m295.18,4.24l3.31.25c.05-.29,2.84-.57-.1-.85-2.17-.2-3.71.09-3.21.6Z"/><path d="m310.85,4.68l3.64.83c-.07-.26,1.93-.39.26-.72-1.33-.27-2.79-.25-3.9-.1Z"/><path d="m375.11,10.43c-.65-.19-1.04-.34-1.43-.4-.42-.06-.84-.02-1.26-.01.34.11.65.25,1.04.32.4.07.88.05,1.65.09Z"/><path d="m316.97,5.69l3.19.06c.15-.02.31-.04.47-.06l-.13-.22c-1.43-.02-3.53-.26-3.53.22Z"/><path d="m292.25,4.12c.94.22,1.87.46,2.85.13l-2.85-.13Z"/><path d="m368.08,10.67c-.32-.09-.48-.08-.65-.07.11.03.23.07.65.07Z"/><path d="m8.39,61.38c1.09.76,2.36,1.6,3.15,1.79.41-.11,1.39.43,2.5,1.02,1.1.58,2.33,1.21,3.1,1.38.58.13,2.14,1.49,3.11,1.45.59-.02-1.09-1-2.07-1.69-1.01-.7-1.83-1.15-3.41-1.74-1.98-.73-4.21-1.88-5.38-3.47-.71-.93-2.42-1.97-3.36-2.72-1.62-1.32-.59,0,.22.97,1.26,1.52,2.73,2.84,2.14,3.02Z"/><path d="m49.92,75c-.13.15.14.42-.91.29-.31.15-3.06-.5-1.79.16.45.23,1.5.63,2.22.8,2.42.52.9-.2,1.47-.27.32-.04.57-.11,1.03-.09.9.03,3.44.52,2.55.07-1.03-.52-2.93-.52-4.57-.96Z"/><path d="m41.63,73.62c-.23-.1-.44-.19-.66-.28h-.69c.28.09.59.22.83.27.21.05.34.01.51.01Z"/><path d="m4.66,41.4c.29-.28.56-.58.86-.85-.28.28-.58.57-.86.85Z"/><path d="m387.63,12.98c-.22-.1-.27-.18-1.8-.42.19.1.91.25,1.8.42Z"/><path d="m51.61,21.94l-2.3.54c.03.24.64.47-.03.74-1.19.48-2.27.88-1.78,1.07.24.09.9-.14,1.15-.28.92-.51,4.24-1.23,3.24-1.55-.33-.1-.2-.34-.28-.52Z"/><path d="m58.41,20.96c-.74-.02-.85-.3-2.47.06-.23.05-.76.32-.68.37.39.24,1.92-.21,3.15-.43Z"/><path d="m84.31,15.54c-.33.05-.67.11-1,.16.03.15-.15.35,1.16.14l-.16-.3Z"/><path d="m39.64,26.08l-.17.38c1.31-.36,1.07-.48,1.21-.66l-1.04.28Z"/><path d="m44.92,24.02l.46.14c1.04-.43-.07-.17-.46-.14Z"/><path d="m421.58,30.25c-.72-1.24-.62-1.18-.56-1.26.04-.07.06-.32-1.28-1.91-.5-.57-.95-1.03-1.37-1.39-.41-.38-.76-.67-1.09-.89-.66-.5-1.43-1.01-1.74-1.15-.31-.13-.12.06.99,1.1,1.73,1.65,2.54,2.59,3.21,3.27.65.7,1.16,1.17,1.83,2.22Z"/><path d="m406.47,18.78c.38.16.82.35,1.25.54.42.23.84.45,1.22.65.75.4,1.31.67,1.3.54,0-.09-.54-.51-2.23-1.34-1.68-.7-4.18-1.63-4.3-1.6-.24.07,1.99.84,2.76,1.21Z"/><path d="m408.35,19.04c-1.14-.64-1.87-.99-2.74-1.38-.55-.23-1.32-.57-1.97-.81-.66-.21-1.19-.37-1.25-.32-.07.07.66.33,1.83.82,1.25.54,2.51.98,4.13,1.69Z"/><path d="m393.26,14.26c-.14-.08-.13-.14-1.3-.41-.37-.08-.58-.08-.86-.11l2.17.53Z"/><path d="m412.25,21.45c-.33-.18-.13-.05.06.07l-.06-.07Z"/><path d="m395.35,14.91l-.5-.15-.5-.15c.33.13.66.23,1,.29Z"/><path d="m241.14,2.77c-.24-.34-1.44-.45-3.11-.34-2.13.14-1.28.49-1.48.76,2.07.04,2.14-.6,4.59-.41Z"/><path d="m267.69,1.56c.05.32-.61.69,2.21.8-.17-.27.4-.55-.94-.79h-1.28Z"/><path d="m241.16,2.77l.26.08c-.09-.03-.18-.05-.26-.08Z"/><path d="m104.27,86.14l2.08.3c-.35-.18.74-.31-.93-.51-.95-.12-1.2.05-1.15.21Z"/><path d="m132.43,89.01c1.88.16,3.82.33,3.83-.11-1.41,0-2.98-.06-3.83.11Z"/><path d="m210.15,3.26c2.32-.33,4.73-.71,5.37.15.29.39,3.26.12,4.95.18-.94-.44-1.69-.9-2.87-1.31-1.26-.44-3.03-.66-4.95-.65-1.92.01-3.98.32-5.83.79-.46.12-.69.29-1.25.37-2.11.3-2.22,1-.1,1.16q.88.07,1.37-.4c.23-.22.15-.49,1.75-.58.49-.03,1.04.19,1.57.3Z"/><path d="m192.78,4.52l1.25-.04c2.17-.83-1.3-1.3-1.23-1.99l-3.45.56c-.29.65,4.31.76,3.42,1.47Z"/><path d="m198.47,2.03c-1.26.05-2.56.08-3.48.33.04.03.01.08.12.09,1.56.14,1.31.84,3.2.63,2.79-.31-.36-.66.15-1.05Z"/><path d="m204.64,2.36c.33-.08.72-.15.68-.18-.11-.11-.36-.2-.56-.3-.15.06-.42.13-.42.19,0,.09.17.17.3.29Z"/><path d="m221.33,1.21c-.77-.04-1.55-.08-1.71.15.73.02,1.75.17,1.71-.15Z"/><path d="m218.05,1.39l-.47.12c.21-.03.41-.07.47-.12Z"/><path d="m21.39,33.04c1-.42,2-.84,3.01-1.23.62-1.07,5.82-2.8,7.34-3.89-.25-.19.08-.66-2.41.22,1.18-.01-.58.78-1.68,1.3-1.35.63-2.1.63-2.69.63-1.04.39-2.09.78-3.12,1.19-2.76,1.54-4.1,2.44-4.15,2.69-.05.25,1.18-.15,3.7-.9Z"/><path d="m24.96,30.06c.6,0,1.35,0,2.69-.63,1.1-.52,2.86-1.31,1.68-1.3-1.7.6-3.86,1.23-4.37,1.92Z"/><path d="m10.27,37.39c3.18-.89,3.55-2.23,5.37-3.25-2.43.83-3.99,2-5.37,3.25Z"/><path d="m4.65,41.41c.3-.29.59-.6.9-.88-.43.15-.73.46-.9.88Z"/><path d="m149.42,8.13c2.26-.21,2.34-.51,2.49-.81-.38-.36.81-.39,2.07-.4.67-.47.12-.92,3.36-1.35.62-.57-2.92-.04-3.46-.3-4.52,1.07-4.8,1.98-4.46,2.86Z"/><path d="m186,4.49l1.44-.17c-.82-.12-1.02.08-1.44.17Z"/><path d="m225.63,90.05c-.55.15-.7.3-.84.45,2.33-.06,4.64-.12,6.95-.17,2.09-.07,2.13-.29,2.21-.48-1.24.02-2.76.12-3.5-.07l-4.81.28Z"/><path d="m258.05,88.31c-.05-.14-.18-.29-1.46-.24-.58.02-1.33.21-2,.3.83.14,2.18.01,3.46-.06Z"/><path d="m230.44,89.77c.74.19,2.26.09,3.5.07-.72-.18-2.14-.11-3.5-.07Z"/><path d="m244.27,90.03c0-.08,1.08-.22.05-.25-.11,0-.43.02-.53.04-.66.13-.27.19.48.21Z"/><path d="m103.84,13.38c1.9-.44,3.82.65,5.69-.83.2-.88-3.9.18-5.84.26.06.18.1.37.15.56Z"/><path d="m127.62,9.43l-.46.1c.14-.03.29-.06.46-.1Z"/><path d="m103.69,12.82l-.26-.05c.09.01.18.03.26.05Z"/><path d="m278.65,87.13l2.33-.21.11-.26c-1.63.12-2.42.27-2.44.47Z"/><path d="m145.7,89.69c5.85.72,6.57.19,6.62-.49l-1.22-.8c-4.33-.76-6.86-.19-10.26-.26-.46.59-.2,1.15,4.86,1.55Z"/><path d="m201.43,90.19l.5.02c-.01-.07-.21-.08-.5-.02Z"/><path d="m320.17,5.75l.81.13c-.12-.06-.23-.12-.35-.18-.16.02-.31.04-.46.05Z"/><path d="m190.23,89.98c.4.05.8.1,1.21.15,0,0,.22-.04.33-.05-.5-.03-1-.06-1.54-.09Z"/><path d="m124.83,86.57l-2.18-.38c.13.24.21.5,2.18.38Z"/><path d="m224.78,90.5c.15-.15.29-.3.44-.46-1.14.03-2.4.05-2.59.25-.19.2.91.22,2.15.2Z"/><path d="m142.39,8.39c.11-.22.12-.43-1.01-.44.14.18-.34.47,1.01.44Z"/><path d="m136.7,7.92l.25.05c-.09-.02-.17-.04-.25-.05Z"/><path d="m145.78,7.25c-.26-.12-.26-.33-.83-.35-.75-.03-1.43.22-1.18.31.49.18-1.8.85,1.72.5.1-.15.19-.3.29-.45Z"/><path d="m145.78,7.25c-.1.15-.19.3-.29.45,1.74-.27,1.58-.4.29-.45Z"/><path d="m74.91,17.36c-.16,0-.32-.02-.51-.02-.02,0-.4.11-.41.13-.04.06.03.1.06.14l.86-.26Z"/><path d="m60.99,78.61l.46.05c-.17-.02-.34-.05-.46-.05Z"/><path d="m376.61,9.51l1.8.09-.43-.2c-.48.03-.97.05-1.37.11Z"/><path d="m84.96,14.9l1.47-.12c-.12-.09-.43-.12-.74-.15l-.73.27Z"/><path d="m153.98,6.92c-1.27.01-2.45.04-2.07.4l2.07-.4Z"/>
                  </g>
                </mask>
              </defs>
              <path class="mask" d="m416.21,16.83C304.33-4.46,164.95-2.52,57.32,21.82,29.4,28.14.91,37.85,1.93,50.35c.74,9.11,17.49,16.91,36.42,22.34,29.43,8.45,65.35,12.93,101.46,15.36,60.9,4.1,124.82,2.64,182.67-5.79,31.59-4.6,62.06-11.54,81.7-22.14,19.64-10.61,26.47-25.4,10.7-36.93-15.77-11.53-57.01-17.62-85.96-10.91"
                    mask="url(#path-mask)" stroke="black" stroke-width="2" fill="none"
                    stroke-dasharray="979.0877685546875" stroke-dashoffset="979.0877685546875">
              </path>
            </svg>
        