
            <svg xmlns="http://www.w3.org/2000/svg">
              <defs>
                <mask id="path-mask">
                  <g fill="white">
                    <path d="m357.58,2.04c-4.26-.1-1.57.32-2.43.48l-3.05-.23c-2.49-.3-5.41-.55-7.78-.89-2.43-.34-5.95-.46-9.34-.49-3.39-.03-6.67.07-8.63.34-2.69-.07-4.38,0-5.52.14-1.79-.09-4.01-.07-6.13-.07-2.12.01-4.14.02-5.52-.15-.76-.23-3.9-.42-1.27-.7,1.9-.18,3.96-.29,7.01-.14,2.52.15,4.81.15,6.24-.06l2.37.02c2.94-.11,6.91.63,9.21.07.92.03,2.62.09,2.65.09,2.33-.49,7.76-.17,12.45.13l.07.16c-1.29.01-1.03.06.42.14.23,0,.48,0,.74.02l.14.23c-.8-.02-1.97-.1-1.96,0,0,.02.57.09.87.1,1.36.05.98-.05,1.12-.1l4.65.08c.38.01.76.03,1.15.04-.58.1-4.4.05-1.04.33,3.55.28,4.75.2,5.49.02.69-.18,2.2-.13,4.57.16.21.34,3.65.41,6.01.65l-.12.09c-2.24-.02-.5.16,1.42.34,2.58.43,2.85.13,4.49.27l.33.07-.37-.07c.17-.17-.79-.49,3.94-.02,2.94.34,5.46.56,4.99.2l2.92.29,2.52.66c-1.59-.17-2.3-.17-2.44-.07-1.92-.1-2.09,0-.24.32,2.53.3,3.35.49,2.42.58-.44.04-1.04.09.63.29.49.05,1.26.14,1.91.21.33.03.62.06.83.08.21.02.34.02.34.01-.25-.52,6.44.33,9.08.46.54.03.77-.01,1.15-.02l.48-.07c5.96.9,12.13,2.27,17.51,3.02,1.36.21,3.2.77,4.51,1.15,2.37.66,3.98,1.04,5.32,1.2l5.58,1.61,5.52,1.8.15.22c.24.32,1.99.93,4.22,1.7,1.73.58,1.22.21,1.38.15,1.53.52,3.07,1,4.59,1.54,1.52.56,3.04,1.13,4.57,1.7.76.29,1.53.58,2.3.87.76.31,1.52.63,2.29.94,1.53.64,3.09,1.25,4.62,1.97l-.22-.16c.11-.02-.33-.32.84.2.37.07.54.02,2.05.73-.34.04.22.4,1.14.95.92.55,2.21,1.25,3.36,1.87,1.24.68,2.5,1.47,3.79,2.22,1.27.79,2.53,1.63,3.78,2.45,2.45,1.71,4.75,3.47,6.65,5.15.65.59,1.21,1.17,1.76,1.71.49.6.99,1.15,1.42,1.75.85,1.21,1.6,2.53,2.08,4.27.28,1.05.3,1.31.4,1.29.08-.02.15-.3.23-.21.3,1.82,0,3.67-.58,5.37-.57,1.72-1.6,3.17-2.65,4.53-2.21,2.64-4.86,4.73-7.62,6.54l-.14-.26c.99-.86.63-.83,0-.62-1.11.29.26-.64,3-2.75.74-.7,1.5-1.38,2.17-2.14.33-.32.66-.65.96-1.02.3-.36.63-.7.88-1.06.5-.72.9-1.34.97-1.76-.26.48-.62.9-.94,1.34-.31.45-.7.84-1.07,1.24-.19.11-.62.51-.84.6-.22.09-.11-.01.63-.99,1-.83,1.75-1.94,2.22-3.18.65-1.35,1.06-2.8,1.1-4.28.26-.9.29-2.35-.27-4.01-.53-1.67-1.65-3.45-3.03-5.12-2.3-2.06-5.97-4.52-6.77-4.46-3.39-2.45-7-4.64-10.87-6.41-.02-.18.48-.13-.2-.6-.92-.63,3.15,1.19-.44-.66-2.51-1.24-2.12-.77-1.92-.5.09.13-.01.39-1.54-.62-2.81-1.85-2.46-.93-5.06-2.13-.37-.24-.62-.47-1.14-.71-1.52-.68-1.56-.54-2.02-.62-2.51-.99-5-1.95-7.55-2.85-2.57-.85-5.14-1.82-7.85-2.78-2.82-.99-4.46-1.09-5.37-1.11-8.47-2.47-17.05-4.56-25.73-6.18.03-.07.32-.1.06-.23-.76-.36,3.47.11-1.03-.8-4-.7-.61.24-1.22.31-.17.02-1.51-.17-2.31-.27-1.85-.24-3.74-.51-5.65-.79-1.91-.29-3.85-.49-5.79-.76-1.94-.26-3.89-.52-5.84-.78-1.95-.22-3.9-.44-5.82-.66-1.12-.13-2.6-.21-4.02-.34-1.42-.12-2.78-.23-3.66-.5-1.01-.25-4.84-.79-8.96-1.25-4.13-.39-8.55-.74-10.7-.81Zm25.58,2.49h.85c-.38-.07-.82-.14-1.12-.17-.29-.02-.43,0-.64,0,.32.06.62.11.91.16Zm43.52,6.82c.16.04.39.1.59.15-.02-.06-.24-.11-.59-.15Z"/><path d="m302.15,3.01c9.94-.24,19.76.29,29.64.85,1.26,1.13,7.67.92,11.77,1.39.8.39.67.77,5.09.82,2.67.05,6.51.5,9.92.86,2.71.44-5.81.66,4.23,1.26,1.46.21,3.53.32,3.69.72.08.2,1.47.6,2.77.71,1.33.11,2.59.05,3.08-.06.82-.2-1.75-.41-2.54-.6-1.55-.38-2.64-.77-3.92-1.16.83-.14,4.41.47,4.26.07,2.13.82,9.94,1.28,9.82,2.04-.06.37-3.24.31-4.63.58-1.44.26-7.38-.45-12.08-1.08-2.12-.29-4.12-.7-6.24-.94-2.04-.25-4.52-.82-6.05-.65-1.63.18,4.03.57,2.95.85-3.28-.03-6.69-.23-10.45-.76-.24-.65-1.2-1.2-6.89-1.03-4.23.13-9.51-1-13.6-.5l-1.56-.03-2.96-.29c-4.98-.81-10.37-.98-16.21-.39-3.46-.5-7.39-.74-12.43-.35l-2.14.02c.26-.05.41-.13.78-.16,2.85-.24,4.74-.51,1.81-.92-.77-.11-2.88-.22-2.52-.03.85.45-8.51.65-1.64,1.24-1.85.08-4.56,0-4.53.42h-3.21c-.11-.23,2.45-.47.27-.67-1.74-.15-3.61-.04-5.03.16h-2.03c-4.16-.06-4.42-.48-5.01-.88-.34-.23-1.33-.41-3.31-.4-.74,0-1.9.1-2.13.19-.65.24.96.29,2.23.37,4.58.32-3.67.77.31,1.1-.99.39-3.55.37-5.96.4l-.04-.27c.04-.26,3.61-.64-.18-.75-2.81-.08-4.77.25-4.2.69h-3.68s-5.09-.33-5.09-.33c-1.43-.29-2.14-.59-.92-.95.56-.16.42-.32-1.2-.33-1.95-.02-2.25.19-2.55.37l-2.74-.17-.07-.58c4.63.02,9.86-.28,12.97.45,1.18.28,2.89.11,3.17-.19.2-.21-.17-.45,1.79-.58,8.03-.58,16.3-.68,24.8-.34,5.17.74,15.93.64,22.4-.2Zm52.69,4.32c-.54-.06-1.08-.03-1.62-.04.45.1.85.23,1.36.3.52.07,1.14.06,2.13.1-.85-.17-1.36-.31-1.86-.36Z"/><path d="m166.04,90.06c3.86.12,5.63.54,7.59.97.98.21.31.6,3.39.61,2.49.01,1.94-.32,1.48-.61-.43-.28-.66-.55-.97-.82l9.1.39c.02.27-1.06.58,3.07.73,3.12.12,4.53.32,4.4.69-.35.2-3.99.08-2.21.47.63.13,2.06.31,3.01.34,3.18.09,1.08-.33,1.79-.48.39-.09.69-.19,1.27-.25,1.15-.12,4.49-.09,3.24-.36-1.43-.31-3.84,0-6.03-.14l.02-.5c8.63.22,16.98.65,25.24,1.01-1.36.53-2.25,1.19-9.35.56-1.17-.11-3.07-.12-3.56.08-.52.22.95.32,2.56.4.52.3,1.03.6,1.35.92l-2.36.09,1.89.29c-5.64.2-10.91-.07-15.83-.71-1.28-.39-3.78-.89-6.38-.68-4.98.42-13.87-1.05-17.22-.23-4.79-.55-9.87-.71-14.8-1.12.25-.6-3.53-.97-6.7-1.05-2.83-.05-4.49-.27-6.59-.61.78-.48,5.73.34,7.74.15.76-.07,3.24.67,4.38.36.7-.19-1.75-.59-3.27-.9-1.54-.32-2.76-.45-4.92-.43-2.72.01-5.88-.07-8.25-.86-1.42-.47-4.06-.47-5.6-.48-2.7-.05-.55.32,1,.61,2.45.47,4.87.95,4.37,1.35l-1.59.02c-2.71-.94-8.08-1.21-12.62-1.77-1.76-.22-5.85-.42-4.58-.96.3-.11-5.21-.5-5.39-.35-.37.33-1.84.13-3.84-.12l-1.47-.19c-2.75-.22-6.04-.39-4.82-.95,1.43-.21,1.38-.21-.93-.64-1.01-.19-2.35-.49-2.56-.62-.72-.48,3.37.21,4.07.02,4.17.49,8.62.63,12.08,1.71.89.29,3.57.32,3.42.25-.7-.33,5.07.21,1.04-.53.19-.15.64-.13,2.3.08,5.44.68,10.89,1.5,16.47,1.69.67,1.38,7,.89,10.61,1.24,4.19.34,7.33.07,11.77.5-1.06.29-4.28.58,3.15.81Zm17.41,1.6l-.87.12c.38.04.81.1,1.13.1.28,0,.43-.05.65-.08-.32-.05-.61-.09-.91-.14Z"/><path d="m215.06,3.85c-5.28.47-11.72.83-16.58,1.39-4.31.12-10.88.86-15.98,1.26-1.45.12-2.01.18-3.04.3-3.18.37-3.93.83-.41.57,3.7-.28,4.87-.31,5.82-.27.99.04,2.82.01,6.32-.48.39-.06,1.84-.2,2.46-.24,6.06-.45,11.91-.88,17.89-1.33,13.78-.92,27.56-1.68,41.36-2.26l-.04-.18c-1.16.05-2.11.08-2.38.02-2.05.12-4.5.26-6.19.35-4.08.19-9.09.6-12.33.55-1.94-.07-15.99.61-18.84.9-.47.05-.97.11-.89.13.7.14-1.96.23-3.17.28-1.45.04-2.34.06-3.6.09-.72.02-2.94.24-2.74.16.13-.05,1.41-.19,3.14-.34,3.61-.31,8.73-.63,9.19-.91Z"/><path d="m15.56,63.66c3.32,1.6,7.28,3.39,9.67,3.86-.95-.45-2.13-1.1-2.8-1.36-2.63-.99-5.13-1.96-6.75-3.32-1.32-1.12.87-.17,2.51.34,2.9.92,4.93,2,7.07,3.23,1.33.77,3.68,1.77,4.91,2.06,4.15,1.06,5.8,2.04,8.13,3.11,1.53.56,3.53,1.04,3.84,1.45.06.08-.69,0-.98-.1-2.04-.63-2.02-.9-2.86-1.35l-4.64-.58c1.31.83,2.94,1.44,4.68,1.98,1.75.53,3.63.9,5.41,1.36-.02-.28.27-.39,2.84.28,0-.18.29-.29-.04-.55-.99-.78,3.22.44,4.55.55.36.03,1.25.22,1.48.41.47.4-.99.14-2.62-.14-.92-.16-.34.34-.43.55,1.47.17,5.4,1.55,5.93,1.15-.5-.19-1.92-.57-.5-.36l.46.35c2.03.61.67.75,3.22,1.36.9.2,1.72.01,2.57,0,0-.16.34-.22,1.58-.02-.05-.07-.11-.14-.19-.21l-1.35-.32c-1.09-.37-3.38-1.06-4.18-1.42-.8-.37-.16-.27,4.65.67.63.12.97-.02,1.44-.05-2.06-.45-4.18-.84-6.23-1.36-2.04-.51-4.04-1.03-5.81-1.81-.43-.18-6.01-1.21-9.62-2.33-1.06-.08-2.3-.43-4.46-1.14-6.33-2.03-12.63-5-18.55-7.28-2.05-1.57-6.34-3.23-8.35-5.05-.99-.86-1.84-1.66-2.75-2.48-.9-.83-1.87-1.7-2.91-2.87-1.43-1.59-1.89-3.1-1.94-4.06-.04-.48.06-.84.14-1.07.13-.23.26-.34.41-.35.1-2.03,1.42-3.94,3.05-5.53-.49-.03.76-1.54,1.83-2.58-1.5.76-2.88,1.81-3.33,1.95-.23.07-.22-.1.16-.63.38-.54,1.17-1.4,2.59-2.57.74-.58.14-.38-.66.15-1.1,1.03-2.54,2.2-3.74,3.64-1.22,1.41-2.07,3.21-2.16,4.63-.1,1.64.24,2.7.43,3.44.22.73.37,1.15.42,1.43.09.58-.15.58-.12,1.04.26.53.59,1.01.91,1.48.27,0,.85.73,2.15,2.08.34-.02,1.26.8,2.65,1.89l.08-.31c1.34,1.09,1.05,1.02.96,1.14,2.54,2.33,7.05,4.79,7.24,5.59Z"/><path d="m298.6.54c-1.91.03-3.26.13-4.26.23-2.11.23-4.71.47-.76.62,6.21.24,6.47-.26,9.69-.38l5.92.14c1.38.17,3.4.17,5.52.15,2.12,0,4.34-.02,6.13.07l.07.26c-3.42-.07-7.39.17-9.95-.02-3.23-.26-6.59-.17-10.36-.1-7.43.18-14.88.36-22.34.54-7.46.21-14.94.42-22.42.63-.27-.09-.25-.19,1.61-.33l2.87-.1,1.49.04c.45.03.9.02,1.35-.05,9.45-.37,10.76-.49,7.16-.79-.11,0-.14-.02-.21-.03-8.34.51-10.59-.16-18.75.38-3.39.21-7.9.47-8.83.23,2.23-.12,4.72-.5,5.46-.41,1.42.17,3.75-.07,6.02-.18,8.12-.38,16.04-.63,24.39-.91,5.94-.2,11.98-.28,18.06-.39,6.08-.05,12.19-.09,18.28-.14,2.42,0,6.28-.06,6.46.27-1.43.21-3.72.21-6.24.06-3.05-.16-5.12-.04-7.01.14-3.13-.08-6.27-.17-9.32.08Zm-14.88.93c-.06-.1-.93-.27-3.35-.16-2.34.11-5.78.34-5.91.45-.26.22,2.79-.08,3.89-.05,2.14-.09,5.55.05,5.36-.25Zm-6.98-.67c-1.53.04-4.27.13-4.37.3-.06.1.95.16,2.58.1,1.75-.08,3.46-.16,5.72-.26-1.68-.07-2.71-.16-3.93-.14Zm9.05.46h.89s-.11-.04-.11-.04c-.67.01-.7.03-.78.04Z"/><path d="m222.07,3.43c-3.69.21-6.57.2-10.74.07-6.05-.18-13.58.15-20.44.38-3.43.1-7.12-.04-10.33.37l-.02.53c.76.22,2.73.56.41.71-6.85.45-5.91,1.4-10.64,1.98,2.53-.1,4.76-.28,6.74-.53.25-.01.47-.03.65-.06.26-.25-.83-.54,1.91-.73,2.15-.15,3.69-.09,4.01.21l.36.06-.33-.07c-3.19-.09-3.27.49-5.91.52-.16.03-.23.07-.19.1,3.03.48,6.7-.17,10-.17,4.19-.64,8.65-.73,13.16-.32,1.34.12,2.23.3,3.73-.05,2.3-.55,5.67-.42,8.9-.29,4.62-.46,2.48-.93,1.35-1.41-.3-.12-1.27-.29.36-.39,1.39-.09,2.21.04,2.78.17l1.65-.03c-.87-.4,3.52-.66,2.6-1.06Z"/><path d="m277.02,94.38c2.93.3,5.98.46,10.01.16,5.03-.58,10.36-.73,16.07-.41,1.07-.26,3.1-.36,4.91-.51l3.02.06c-.36-.15-.93-.45-1.06-.44-2.76.13-5.07.06-7.35-.02-2.28-.11-4.54-.22-7.2-.15-3.87.1-7.4.12-8.46-.42-.03-.02-.42-.02-.64-.03-.73.07-1.46.14-2.2.22.65.61-3.25.63-6.23.59-9.78-.15-19.62.31-29.55-.1-5.98-.23-6.31-.07-3.45-.73.87-.2,1.44-.42,2.15-.63-5.69.1-12.29-.27-16.89.38,1.07.06,2.11.15,3.22.17,1.83.04,4.45-.33,5.25.07.33.16-2.55.44-4.37.6-.97.09-2.8.04-4.24.05-1.21,0-2.52-.01-3.11.14-.76.2.5.32,1.75.42,1.96.16,2.48.53,5.53.53,3.85.4,8.08.62,13.14.46,5.78-.48,12.54-.51,19.34-.5-.09-.15.21-.33,1.44-.33,2.16,0,.79.25,1.26.38,2.87-.52,5.83-1.16,7.67.03Z"/><path d="m260.31,2.26l1.49.04.67-.02.67-.02c9.45-.37,10.76-.49,7.16-.79-.11,0-.14-.02-.21-.03-8.34.51-10.59-.16-18.75.38-3.39.21-7.9.47-8.83.23-2.46.26-6.85.44-8.69.73,2.36,0,.06.36-1.17.43-3.62.2-1.42-.11-1.94-.18-.11-.02,0-.05,0-.07-2.78-.03-7.48.5-10.58.59-1.9.2-3.59.31-5.05.33-.47.28-5.59.61-9.2.91-1.73.15-3.01.29-3.14.34-.21.08,2.02-.14,2.74-.16,1.26-.03,2.15-.06,3.6-.09,1.21-.05,3.87-.14,3.17-.28-.08-.01.42-.08.89-.13,2.85-.29,16.9-.97,18.84-.9,3.23.05,8.25-.36,12.33-.55,1.7-.1,4.14-.24,6.19-.35,1.99-.16,2.08-.08,2.38-.02l.04.18,2.93-.1c-.27-.09-.25-.19,1.61-.33.36-.06.63-.14,1.11-.16,1.55-.08,1.56,0,1.76.06Z"/><path d="m157.09,7.87l-.11-.21c-1.22-.35-2.19-.73-3.71-1.05-3.25-.7-9.14-.43-13.89.6-.59.13-.88.29-1.61.39-2.72.38-2.85,1-.12,1.03q1.14.01,1.76-.43c.29-.2.19-.46,2.25-.59.63-.04,1.35.13,2.02.21,3.89-.1,3.66.35,4.56.65-4.42.49-8.94.75-13.51.97,1.84-.71-2.65-.52-4.79-.61l-2.27.55c-1.55.19-3.09.4-4.63.62-.07-.04-.1-.09-.07-.14,2.77-.93-1.69-1.04-1.61-1.66l2.81-.31s.02.07.16.07c2.01-.01,1.7.64,4.13.32,3.59-.47-.47-.56.18-.94l1.65-.54c3.42-.26,6.88-.53,10.31-.79,3.44-.2,6.86-.41,10.21-.43l2.91-.16.14.36-.61.13.8-.11,1.82-.1c.93-.02,2.25.08,2.2-.2l2.94-.31-.41.08-.45-.04c2.04.33,7.07.04,8.53.68.68.3,7.01-.53,10.46-.89.57-.06.94-.16,1.39-.24.76.22,2.73.55.41.71-6.85.45-5.91,1.4-10.64,1.98-4.57.37-8.98.55-13.23.39Zm-19.62-.79c-.14-.09-.47-.16-.73-.24-.19.07-.54.14-.54.19,0,.08.22.15.39.24.43-.09.92-.17.88-.19Z"/><path d="m46.6,74.62c-2.58-.67-2.86-.56-2.84-.28.79.25,1.58.53,2.38.75l1.87.48c2.3.69,4.56,1.38,6.88,1.95,2.32.61,4.68,1.16,7.19,1.57,1.02.18,2.27.42,3.55.72,1.29.28,2.62.58,3.82.92,2.61.76,7.66,1.7,8.53,1.8,9.16,1.05,17.89,2.69,26.6,4.17,3.2.52,5.26.54,7.9.85,13.46,1.64,26.96,2.95,40.47,4,1.45.12,2.93.31,3.78.15.25-.6-3.53-.97-6.7-1.05-2.83-.05-4.49-.27-6.59-.61-1,.14-2.9-.06-4.54-.19l-1.59.02c-2.71-.94-8.08-1.21-12.62-1.77-1.76-.22-5.85-.42-4.58-.96.3-.11-5.21-.5-5.39-.35-.37.33-1.84.13-3.84-.12-.5.11-1.01.03-1.5-.2-2.72-.21-6.01-.39-4.78-.94-.73-.1-1.47-.21-2.21-.31-2.35-.06-4.77-.16-7.92-.96-2.71-.01-5.39.17-8.64-1.29l-4.21-.75c-.99.28-3.78-.4-6.06-.8-3.34-.59-2.69-.79-2.87-1.07-3.95-.16-7.76-1.12-11.48-2.41-.85,0-1.67.2-2.57,0-2.56-.61-1.2-.75-3.22-1.36-.49.4-4.42-.98-5.88-1.15l-2.94-.81Z"/><path d="m96.29,10.9c-2.12-.02-4.44.1-7.47.92,1.8.02,3.56.06,1.54.72-1.59.52-2.91.24-4.65.62-2.4-.2-3.66.37-5.14.92-1.69.62-3.37,1.02-4.64.76-4.13.86-3.41,1.18-4.08,1.67.69.26,4.05-.19,5.73-.19,2.82-.12,6.48-.66,9.95-1.36,2.61-.53,4.87-.89,7.41-1.15,2.54-.58-.22-.85,4.24-1.48,3.31-.45,2.81.04,3.37.24l2.94-.43c-.24-.23-.67-.44-.66-.7,0-.17,1.36-.4,2.63-.55,1.11-.13,1.95-.13,1.33.07-.92.3-3.47.78-.73.63.69-.03,3.04-.66,4.64-1,.5-.12.75-.31,1.81-.27l-1.85.27c1.2.6,4.86,0,8.71-.58,1.13-.72-4.79-.4-4.43-.99-6.32,1.05-6.31.58-5.88,0-2.54.41-4.68.28-7.29.79.46.57-2.3,1.46-6.69,1.98-6.09.76,1.89-.82-.25-.81-.3,0-.35-.06-.52-.09Z"/><path d="m437.91,80.37c.79-.17,1.56-.42,2.34-.63l4.47-1.43,1.65-.49c-.05-.03-.11-.06-.18-.09-.99.22-1.5.28-.7-.06.11-.05.52-.17.65-.2,1.3-.27-.02.19,0,.28,1.19-.3,2.19-.64,3.03-.98.84-.33,1.51-.64,2.01-.93,1.59-.94,3.81-1.64,5.58-2.23,1.77-.59,3.15-.9,3.13-.8-.07.33.8.14,2.02-.24.61-.2,1.31-.44,2.02-.67.7-.27,1.42-.55,2.07-.8,3.17-1.6,6.32-3.14,9.43-4.95,1.37-.77,4.05-2.18,3.15-2.03-.73.14-3.54,1.84-4.32,2.11-2.38.96-5.73,3.17-7.3,3.18-1.8.75-3.92,1.67-4.31,1.48-1.54.58-3.16,1.23-4.21,1.44l-2.54.93c-.85.29-1.72.55-2.58.82-1.72.54-3.44,1.07-5.14,1.6-3.39.97-6.55,1.91-9.7,2.92-3.18.9-6.4,1.73-9.9,2.44l.07.36c1.71-.42,3.49-.86,4.43-.86-.06.23-.07.45-2.69,1.08l1.34.17,6.15-1.43Z"/><path d="m6.73,37.6c.8-.52,1.4-.72.66-.15-1.42,1.17-2.22,2.03-2.59,2.57-.38.54-.39.7-.16.63.45-.14,1.83-1.19,3.33-1.95.72-.54,1.47-1.06,2.24-1.55l-.32-.41-.33.12.32-.11c1.11-.59,2.81-1.61,4.26-2.33,1.45-.72,2.62-1.18,2.59-.74,3.71-1.84,7.41-2.7,11.48-4.87.59-.3,3.35-1.14,3.59-.91,1.37-.48,2.75-.91,4.12-1.37,1.63-1.07,6.85-2.82,5.64-3.15-.06-.01.88-.37,1.36-.56,3.41.12,4.35-1.55,6.87-2.02-.03-.05-.04-.11-.05-.17-7.49,1.06-8.94,2.52-11.26,3.87l-.53.21.57-.22c-1.47.34-4.08,1.23-4.17,1.14-1.14-1-6.05,1.6-10.1,3.41-4.26,1.83-8.97,4.25-12.84,5.79-.93.43-1.37.53-1.98.75-.6.22-1.37.56-2.84,1.66l.15.35Z"/><path d="m239.83,4.63l-2.74-.17c-6.69-.06-6.6-.65-5.91-1.3-2.2-.2-2.09.16-3.17.23,1.98.83-1.29,1.61-7.36,1.77,1.4.42,1.52.86.01,1.32,1.54.43,2.82.11,4.16-.06-.89-.09-1.11-.23.09-.27,1.64-.04,1.37.17,1.54.31,3.54.59,8.75.12,12.51.08,6.16-.08,12.89.19,18.73-.34l-.04-.27-4.28-.07c-1.35.35-2.56.18-3.78.02l-5.09-.34c-.37.25-.68.53-3.42.51-1.85-.01-2.91-.19-3.79-.38-2.06-.45.74-.72,2.54-1.04Z"/><path d="m466.98,69.41c1.57-.01,4.92-2.22,7.3-3.18.78-.28,3.6-1.97,4.32-2.11.9-.16-1.78,1.26-3.15,2.03-3.11,1.81-6.26,3.35-9.43,4.95l1.29-.27,1.59-.69c4.22-2.3,9.82-4.74,14.34-7.85.99-.86.63-.83,0-.62-1.11.29.26-.64,3-2.75l-.04-.16c-.04-.1.11-.33.48-.7.18-.19.42-.41.71-.67.28-.27.61-.59.98-.95.32-.29.59-.61.84-.92-.19.11-.62.51-.84.6-.22.09-.12-.01.63-.99h-.19c-2.74,2.99-6.29,5.25-9.9,7.31-3.65,2.02-7.42,3.9-11.27,5.64,1.38-.23,3.82-.92-.65,1.32Z"/><path d="m348.14,92.44c1.75-.12,1.63.61,4.72-.11,2.31-.54,4.56-.11,6.88-.4.61-.69,3.77-.83,7.1-.84,2.83-.01,5.13-.31,7.23-.7,2.17-.41,3.12-.75.77-.87-3.12.22-6,.2-9.33.61-5.19.66-8.08.9-10.71,1.05-2.64.14-5.02.14-9.21.12-.2,0-.6,0-.65.02-4.22.89-10.75.19-15.06.96.43.29.49.62,3.44.65.09-.23.78-.29,2.8-.34,4.25-.1,8.23-.13,12.04-.15Z"/><path d="m466.98,69.41c4.48-2.24,2.03-1.55.65-1.32-1.54.58-2.84,1.02-4.27,1.59-1.46.52-3.05,1.15-5.17,2.2-.76.37-1.73.8-2.85,1.21-1.13.38-2.4.79-3.74,1.2-1.33.41-2.73.84-4.11,1.27-1.4.38-2.79.76-4.09,1.12-1.75.5-3.53,1.01-5.31,1.52-1.81.44-3.63.87-5.45,1.31-1.83.42-3.65.89-5.48,1.23-1.84.34-3.67.66-5.49.96-3.19.52-5.29.96-4.86,1.32.42.38,2.99-.14,5.85-.78,1.99-.4,3.99-.77,5.97-1.2,3.5-.71,6.72-1.54,9.9-2.44,3.15-1.02,6.3-1.96,9.7-2.92,1.7-.53,3.42-1.06,5.14-1.6.86-.27,1.72-.53,2.58-.82l2.54-.93c.79-.38,1.65-.86,2.35-1.11,1.54-.56,1.75-.45,1.86-.33.4.19,2.51-.74,4.31-1.48Z"/><path d="m38.47,24.5c2.32-1.36,3.77-2.82,11.26-3.87,1.92-.57,3.82-1.19,5.75-1.72,1.52-.5,3.1-1.01,2.64-1.19-1.42.11-3.01.45-4.61.88-1.6.45-3.21.96-4.71,1.36-5.68,1.59-11.34,3.25-16.91,5.24-5.57,2.02-11.06,4.28-16.37,6.99-2.83,1.48-3.15,1.88-4.12,2.65,3.87-1.54,8.58-3.95,12.84-5.79,4.05-1.81,8.96-4.41,10.1-3.41.09.09,2.7-.8,4.13-1.13Z"/><path d="m247.04,91.98c-.71.21-1.28.43-2.15.63-2.86.66-2.53.5,3.45.73,9.92.4,19.76-.06,29.55.1,2.98.04,6.88.03,6.23-.59-5.56-.55-11.62-.49-18.29-.11-4.3.23-7.59.11-6.76-.58-4.33.32-7.92-.21-12.03-.18Z"/><path d="m329.86,92.28c4.32-.77,10.84-.07,15.07-.96.05-.01.45-.02.65-.02,4.19.02,6.58.02,9.21-.12,2.64-.15,5.53-.39,10.71-1.05,3.33-.41,6.21-.39,9.33-.61-1.37-.45-2.86-.88-8-.76l-3.73.64c-1.36.48-3.49.6-6.52.7-3.68.14-8.13.46-11.32.6-6.43.26-12.13,1.04-18.28.94l1.65.66c.41,0,.81-.02,1.21-.03Z"/><path d="m404.83,85.22c-.92.38-1.75.74-1.39.89.18.07.66.1,1.57.04.91-.08,2.25-.26,4.16-.55,2.46-.37.95.08.79.25-1.86.45-3.83.83-5.69,1.05-1.86.21-3.59.33-4.96.39-6.92.34-8.41,1-9.83,1.74l-1.41.18c-4.55.17-11.98.78-5.03-.82,1.25-.29,1.19-.58,1.74-.87l5.82-.61c1.94-.21,3.87-.49,5.8-.72,2.5-.31,4.38-.57,4.59-.93,1.44-.18,2.88-.32,4.31-.52-.15.16-.06.29-.48.47Zm-12.28,2.05c-.15,0-.41.04-.77.14.21-.02.43-.04.77-.14Z"/><path d="m370.14,7.87c2.13.82,9.94,1.28,9.82,2.04-.06.37-3.24.31-4.63.58-1.44.26-7.38-.45-12.08-1.08-2.12-.29-4.12-.7-6.24-.94-2.04-.25-4.52-.82-6.05-.65-1.63.18,4.03.57,2.95.85,6.87,1.35,15.58,1.63,22.65,3.29,2.23.51,1.81-.09,3.63.12,1.79.06-6.04-1.45.45-.61,2.26-.23,8,.45,7.27-.42-1.33-.29-3.07-.6-3.93-.85-2.12-.63-1.93-1.57-7.6-1.59-.03,0-.52-.13-1.16-.29-.64-.16-1.43-.35-2.04-.47-3.6-.67-7.05-1.1-10.14-1.16.95.86,5.08.65,7.09,1.18Z"/><path d="m389.04,13.38c1.78.33,3.05.67,3.94,1.02,2.23.9,6.54,1.98,10.02,2.4,3.11.37,5.96.53,6.42.11.84-.77-2.91-2.03-11.54-3.61-2.11-.38-4.68-1.14-7.04-1.71-2.69-.06-1.76.57,1.01,1.36,2.8.81,5.46,1.11,7.56,1.19.77.02,4.24.55,3.86.86-.33.27,1.59.97.27,1.02-.81.03-1.23.19-3.56-.24-2.41-.44-3.43-.85-3.66-1.13-.25-.3-.56-.57-3.26-1.05-2.61-.46-3.98-.53-4.02-.21Z"/><path d="m327,91.64c6.15.1,11.85-.68,18.28-.94,3.19-.14,7.64-.46,11.32-.6,3.03-.1,5.16-.22,6.52-.7-2.61-.2-5.83-.16-9.2.06-3.37.21-6.89.53-10.07.7-9.52.34-19.24,1.23-28.53.87l-.76.25c1.38.23,6.23.41-1.14.73-2.41.1-3.77.44.39.43,4.38-.28,7.56-1.02,13.21-.78Z"/><path d="m3.1,46.82c-.14,0-.28.12-.41.35-.08.23-.18.59-.14,1.07.05.95.51,2.47,1.94,4.06,1.04,1.17,2,2.03,2.91,2.87.91.83,1.77,1.62,2.75,2.48,2.01,1.82,6.3,3.48,8.35,5.05,5.93,2.27,12.22,5.24,18.55,7.28,2.16.71,3.39,1.06,4.46,1.14-5.69-2.28-11.87-4.48-18.41-7.24-4.14-1.76-8.32-3.73-12.21-6.61-1.67-1.26-3.58-2.7-5.18-4.46-1.6-1.73-2.79-3.89-2.61-5.99Z"/><path d="m281.56,5.91h-3.21s-4.76-.5-4.76-.5c-.67,0-1.35,0-2.03-.01-2.2.14-4.4.29-6.6.43,3.89.95,11.64.61,17.2.62,11.06.06,22.23-.35,33.31-.25l2.97-.13c-4.98-.81-10.37-.98-16.21-.39-4.73.2-9.73.57-12.43-.35-.72,0-1.43.01-2.15.02-.51.02-1.02.04-1.53.05.02.14.09.2.15.27.15.05.31.09.47.14l-1.06-.06-4.12.15Z"/><path d="m482.23,34.09c-3.39-2.44-7-4.64-10.87-6.41-1.49-.78-2.99-1.47-4.37-2.15-1.38-.69-2.65-1.34-3.76-1.92-2.09-.88-3.14-1.34-4.2-1.76-2.51-.99-5-1.95-7.55-2.85-2.57-.85-5.14-1.82-7.85-2.78-2.82-.99-4.46-1.09-5.37-1.11,7.78,2.33,15.4,5.17,22.89,8.28,1.86.8,3.74,1.57,5.57,2.45l2.76,1.28,2.71,1.37c1.83.88,3.56,1.91,5.33,2.88,1.72,1.05,3.44,2.09,5.07,3.26l-.34-.54Z"/><path d="m409.95,85.85c-1.86.45-3.83.83-5.69,1.05-1.86.21-3.59.33-4.96.39-6.92.34-8.41,1-9.83,1.74,2.84-.21,5.66-.6,8.49-.9,2.83-.34,5.66-.61,8.47-1.04,5.63-.88,11.26-1.75,16.78-3.17,2.68-.67,4.45-.58,6.61-1.17,2.99-.78,7.66-1.68,8.08-2.39l-6.15,1.43c-3.36.81-6.77,1.36-10.16,1.99-3.86.83-7.76,1.43-11.65,2.06Z"/><path d="m375.84,3.09c.17-.17-.79-.49,3.94-.02,2.94.34,5.46.56,4.99.2-12.09-1.48-24.26-2.55-36.91-2.71l.06.16.42.14c.23,0,.48,0,.74.02,2.12.02,4.22.03,4.82.31.38.01.76.03,1.15.04,1.49.08,2.97.23,4.45.35.69-.18,2.2-.13,4.57.16,2.62.19,5.37.09,7.73.53.78.14-.42.16-1.71.12l-.12.09,1.42.34c2.58.43,2.85.13,4.45.27Z"/><path d="m388.08,89.21c-4.55.17-11.98.78-5.03-.82,1.25-.29,1.19-.58,1.74-.87-2.16.17-1.46-.09-1.61-.22l-2.88.33c.93.27-2.78.81-2.85,1.14l1.94-.12c-.14.04-.4.1-.41.1-.54,0-1.05.02-1.57.03-2.58,0-1.04-.47-1.6-.7-2.95-.19-5.93-.03-8.97.68,5.14-.13,6.63.3,8,.76,2.35.12,1.41.46-.77.87-2.1.4-4.41.69-7.23.7-3.33.01-6.49.15-7.1.84,3.74-.21,7.5-.59,11.26-.91,1.88-.15,3.75-.31,5.62-.46,1.87-.16,3.72-.33,5.57-.44,2.92-.19,4.42-.53,5.89-.91Z"/><path d="m313.79,92.42c-4.16.01-2.8-.32-.39-.43,7.38-.32,2.53-.5,1.14-.73-1.26.37-3.57.18-5.34.28.2.22-1.15.57-2.24.51-5.4-.27-9.21.44-13.91.46-2.5.32-2.64.08-2.84-.14-2.54-.25-3.17.02-3.91.25.22,0,.61,0,.65.03,1.06.55,4.59.52,8.46.42,2.66-.07,4.92.05,7.2.15,2.28.08,4.59.15,7.35.02.14,0,.7.29,1.06.44l5.78.17,3.07.12.34-.5c-6.55.09-6.94-.44-6.42-1.06Z"/><path d="m234.18,94.34c-3.04,0-3.57-.37-5.53-.53-1.25-.1-2.51-.22-1.75-.42.58-.15,1.9-.14,3.11-.14,1.45,0,3.27.04,4.24-.05,1.82-.16,4.7-.44,4.37-.6-.8-.39-3.42-.03-5.25-.07-1.12-.02-2.15-.11-3.22-.17-1.4-.29-2.67-.02-4-.02-2.23.11-4.6.29-3.95.6,2.54,1.17-4.35,1.14-10.56,1.1.75.27,3.98.23,4.22.55,5.08-.14,9.89.29,15.01.25,3.67-.02,2.88-.27,3.3-.5Z"/><path d="m293.06,92.52c4.7-.02,8.51-.73,13.91-.46,1.09.06,2.44-.29,2.24-.51-9.41.2-18.78.39-28.18.59-4.72.1-9.67,0-14.35-.1-2.83-.06-5.12.01-7.6.12-.83.69,2.46.81,6.76.58,6.67-.38,12.73-.43,18.29.11.73-.07,1.47-.14,2.2-.22.73-.24,1.36-.5,3.9-.25l2.84.14Z"/><path d="m409.95,85.85c3.89-.64,7.79-1.24,11.65-2.06l.05-.35c-1.58.3-2.99.53-2.78.27.21-.25,1.81-.56,3.25-.84.51-.26.51-.44.51-.61-2.86.63-5.43,1.16-5.85.78-3.75.4-7.58,1.01-11.48,1.72-.15.16-.06.29-.48.47-.92.38-1.75.74-1.39.89.18.07.66.1,1.57.04.91-.08,2.25-.26,4.16-.55,2.46-.37.95.08.79.25Z"/><path d="m55.49,18.91c-1.93.52-3.84,1.15-5.75,1.72l.04.18.33-.02h-.32c-2.52.48-3.46,2.15-6.87,2.03-.48.19-1.41.55-1.36.56,1.21.33-4.01,2.08-5.64,3.15.37.1,1.6-.39,2.73-.73,1.4-.73,3.78-1.44,5.9-2.05,1.59-.34,2.37-1.33,3.34-1.08,1.02.24,3.54-.74,5.03-1.01,2.41-1.02,3.62-1.04,4.54-.95,1.52-.29,3.37-.38,4.2-1.05l.58-.42c-1.8.25-2.73.19-5.2.79-1.71.29-1.12-.07-1.31-.2-7.76,1.63.86-.89-.24-.92Z"/><path d="m352.11,2.29c-2.49-.3-5.41-.55-7.78-.89-2.43-.34-5.95-.46-9.34-.49-3.39-.03-6.67.07-8.62.34,3.65,0,7.7.14,5.13.46,3.5.13,6.99.26,10.44.35,3.45.1,6.85.24,10.17.23Z"/><path d="m55.73,19.83c-7.76,1.63.86-.89-.24-.92,1.52-.5,3.1-1.01,2.64-1.19,4.4-1.1,9-2.57,13.16-2.69.2,0,.27.02.21.08-5.73,1.7-6.03,2.58-5.55,3.31l-3.7.82c-1.8.25-2.73.19-5.2.79.12-.22.13-.41-1.31-.2Zm4.47-1.67c-.95.13-1.8.5-1.48.53.63.06-2.22,1.14,2.21.09,2.2-.57,1.99-.66.35-.46-.33-.06-.35-.25-1.07-.16Z"/><path d="m33.66,71c-1.31-.47-2.27-1.22-3.86-1.5-3.55-.63-3.61-1.32-4.57-1.98-.95-.45-2.13-1.1-2.8-1.36-2.63-.99-5.13-1.96-6.75-3.32-1.32-1.12.87-.17,2.51.34,2.9.92,4.93,2,7.07,3.23,1.33.77,3.68,1.77,4.91,2.06,4.15,1.06,5.8,2.04,8.13,3.11-1.54-.19-3.08-.39-4.63-.58Zm-15.16-6.95s.49.21.52.2c.08-.01.02-.09.02-.14l-1.08-.44c.17.12.32.25.54.38Z"/><path d="m404.36,6.02c5.96.9,12.13,2.27,17.51,3.02,1.36.21,3.2.77,4.51,1.15,2.37.66,3.98,1.04,5.32,1.2-2.4-.9-5.14-1.54-7.97-2.2-2.82-.69-5.77-1.18-8.61-1.7-7.35-1.35-14.22-2.81-21.73-3.52-1.09-.11-2.42-.29-2.93-.22,1.49.41,4.04.87,7.03,1.1,1.8.14,3.12.31,4.19.49,1.06.22,1.88.44,2.68.69Z"/><path d="m389.04,13.38c.04-.31,1.4-.25,4.02.21,2.69.48,3.01.75,3.26,1.05.23.28,1.25.69,3.66,1.13,2.32.44,2.75.27,3.56.24,1.32-.05-.6-.75-.27-1.02.37-.31-3.09-.84-3.86-.86-2.1-.08-4.75-.38-7.56-1.19-2.77-.8-3.7-1.42-1.01-1.36-.95-.3-1.91-.54-2.91-.54.73.87-5.01.2-7.27.42,1.52.41,2.9.81,2.95,1.09l5.44.83Z"/><path d="m61.22,77.94c3.72,1.3,7.53,2.25,11.48,2.41,2.35-.09,9.26,1.32,10.62.83l-.42-.67c-2.5-.59-4.79-1.01-6.91-1.14-.35.05.56.38-.98.15l-.4-.4c-.42-.11-.88-.2-1.37-.29-5.95-1.12-4.96.15-10.44-.91-1.24-.2-1.58-.14-1.58.02Z"/><path d="m467.3,70.82l-1.29.27c-.65.25-1.37.53-2.07.8-.72.24-1.41.47-2.02.67-1.22.38-2.09.57-2.02.24.02-.11-1.36.21-3.13.8-1.77.59-3.99,1.29-5.58,2.23-.5.29-1.18.6-2.01.93-.84.34-1.84.68-3.03.98.12,0,.18.04.23.07l.03.49c1.78-.41,3.51-1.01,5.27-1.51,1.75-.54,3.51-1.04,5.26-1.64,1.73-.64,3.47-1.29,5.2-1.99.87-.36,1.75-.68,2.6-1.09.85-.42,1.71-.84,2.57-1.26Z"/><path d="m469.61,24.67c-.34.04.22.4,1.14.95.92.55,2.21,1.25,3.36,1.87,1.24.68,2.5,1.47,3.79,2.22,1.27.79,2.53,1.63,3.78,2.45,2.45,1.71,4.75,3.47,6.65,5.15.65.59,1.21,1.17,1.76,1.71.49.6.99,1.15,1.42,1.75.85,1.21,1.6,2.53,2.08,4.27.28,1.05.3,1.31.4,1.29.08-.02.15-.3.23-.21-.26-2.01-1.1-3.84-2.15-5.4-.24-.42-.53-.78-.82-1.15-.29-.36-.56-.76-.87-1.1-.64-.66-1.23-1.41-1.93-2-2.69-2.52-5.71-4.67-9.03-6.5-1.41-.84-3.05-1.69-4.7-2.66-1.7-.87-3.41-1.84-5.1-2.63Z"/><path d="m10.21,37.16c-.77.49-1.52,1.01-2.24,1.55-1.06,1.04-2.31,2.54-1.82,2.58,2.62-2.29,5.88-4.21,9.25-5.94,3.38-1.72,6.93-3.24,10.46-4.41,2.84-.97,3.47-1.88,5.94-3.03-.23-.22-3,.61-3.59.91-4.07,2.17-7.78,3.03-11.48,4.87-1.93,2.1-4.45,2.04-6.51,3.48Z"/><path d="m102.41,85.23c.74.1,1.48.21,2.21.31,1.42-.21,1.37-.21-.93-.64-1.01-.19-2.35-.49-2.56-.62-.72-.48,3.37.21,4.07.03l-3.04-.78-4.81-.8c-3.29-.25-6.58-.55-9.87-.85,6.58,1.57,6.42,1.72-1.62,1.1,3.25,1.46,5.93,1.28,8.64,1.29,2.62.32,4.03-.46,7.92.96Z"/><path d="m211.64,94.04c6.2.05,13.09.07,10.56-1.1-.65-.31,1.72-.48,3.95-.6-.69-.6-3.83-.16-5.71-.25-1.36.53-2.25,1.19-9.35.56-1.17-.11-3.07-.12-3.56.08-.52.22.95.32,2.49.39l.67-.02-.59.03,1.55.9Z"/><path d="m71.28,15.03c.2,0,.27.02.21.08.69.13,5.21-.84,4.44-.25,1.26.26,2.95-.14,4.63-.76,1.48-.55,2.74-1.13,5.14-.92,1.75-.38,3.06-.1,4.65-.62,2.02-.66.26-.71-1.54-.72-5.97.83-12.38,1.43-17.54,3.21Z"/><path d="m160.17,5.24c2.04.33,7.07.04,8.53.68.68.3,7.01-.53,10.46-.89.57-.06.94-.16,1.39-.24l.02-.53c-5.34-.26-10.29.61-15.56.6l-3.88.24c-.51.03-.83.08-.96.14Z"/><path d="m377.24,4.11c-1.01-.25-4.84-.79-8.96-1.25-4.13-.39-8.55-.74-10.7-.81-4.26-.1-1.57.32-2.43.48,2.7.08,5.42.15,7.97.52.55.08,2.43.24,2.55.23,3.47-.21,7.78.59,11.57.84Z"/><path d="m370.14,7.87c-2.02-.53-6.15-.32-7.09-1.18-2.07-.61-4.18-.66-6.29-.74-3.55.13-9.06-.66-13.2-.71.8.39.67.77,5.09.82,2.67.05,6.51.5,9.82.83l1.85-.03.57.18-2.32-.12c2.71.44-5.81.66,4.24,1.26.39-.25-.88-.82,3.08-.38.83-.14,4.41.47,4.26.07Z"/><path d="m466.72,23.73c.11-.02-.33-.32.84.2-8.19-3.86-17.04-7.54-24.75-9.14l.15.22c1.89.55,3.75,1.21,5.6,1.85,1.53.52,3.07,1,4.59,1.54l4.54,1.68,2.27.85,2.25.92c1.5.62,3.02,1.19,4.5,1.88Z"/><path d="m343.56,5.25c4.14.05,9.65.84,13.2.71-.41-.67-3.72-.53-5.39-.73-6.41-.83-13.07-1.18-19.58-1.36,1.26,1.13,7.67.92,11.77,1.39Z"/><path d="m237.02,3.87c4.63.02,9.86-.28,12.97.45,1.18.28,2.89.11,3.17-.19.2-.21-.17-.45,1.79-.58.63-.6-3.26-.41-5.32-.42-4.64-.03-9.34.03-14.02.05.38.23-.79.53,1.41.69Z"/><path d="m213.34,6.16c-3.24-.14-6.6-.26-8.9.29-1.5.35-2.38.17-3.73.05-4.51-.41-8.96-.32-13.16.32,4.2.43,9.42.22,14.52.1,3.76-.12,7.49-.23,11.23-.35l.04-.41Z"/><path d="m162.89,89.25c-1.06.29-4.28.58,3.15.81,3.86.12,5.63.54,7.59.97.98.21.31.6,3.39.61,2.49.01,1.94-.32,1.48-.61-.43-.28-.66-.55-.97-.82-4.88-.28-9.76-.61-14.64-.96Z"/><path d="m111.05,9.03c-.43.59-.44,1.05,5.88,0l4.42-.82,2.81-.31c1.18-.32,2.86-.42,4.48-.55l1.65-.54c.11-.37-1.86-.1-3.43.08-5.3.63-10.56,1.37-15.81,2.13Z"/><path d="m102.15,83.53l3.04.78c4.17.49,8.62.63,12.08,1.71.89.29,3.57.32,3.42.25-.7-.33,5.07.21,1.04-.53-6.51-.59-13.49-2.12-19.58-2.21Z"/><path d="m112.69,10.6c-1.59.33-3.95.96-4.64,1-2.75.15-.19-.33.73-.63.62-.2-.22-.2-1.33-.07-1.27.15-2.62.38-2.63.55-.01.26.42.47.66.7,5.38-.14,11.41-1.01,17.41-1.68l.14-.47c-.07-.04-.1-.09-.07-.14l-1.61.15c-3.84.58-7.51,1.18-8.67.58Z"/><path d="m62.8,77.93c5.48,1.06,4.49-.21,10.44.91-2.95-1.07-5.96-2-10.07-2.23-.47.02-.81.17-1.44.05-4.81-.94-5.45-1.04-4.65-.67.81.35,3.09,1.05,4.18,1.42.26-.07.04-.29,1.75.11l-.4.21c.08.07.14.14.19.21Z"/><path d="m195.14,93.72c-1.28-.39-3.78-.89-6.38-.68-4.98.42-13.87-1.05-17.22-.23,8,.57,15.87.87,23.59.91Z"/><path d="m316.8,93.86l-5.78-.17-3.02-.06c.03.43-2.47.46-4.91.51-5.7-.32-11.04-.17-16.07.41.48.18,2.04.33,3.08.26,4.31-.29,8.89-.28,13.44-.33,4.55-.08,9.07-.19,13.25-.61Z"/><path d="m343.47,7.92c-.24-.65-1.2-1.2-6.89-1.03-4.23.13-9.51-1-13.6-.5,6.09,1.07,13.52,1,20.5,1.53Z"/><path d="m492.3,47.68c.26-.9.29-2.35-.27-4.01-.53-1.67-1.65-3.45-3.03-5.12.12.47-.28.36-.97-.09-.69-.45-1.76-1.15-2.97-1.95,2.08,2.06,4.06,3.77,5.54,5.96.29.24.51.58.73.97.25.38.42.83.57,1.3.3.94.44,1.99.39,2.95Z"/><path d="m279.76,3.22c5.17.74,15.93.64,22.4-.2-6.39-.34-12.8.01-19.2.04-.16.38-1.73.25-3.2.16Z"/><path d="m7.28,57.23c-1.39-1.09-2.31-1.93-2.45-1.73.44.49.9.98,1.37,1.44l.21.43c-.36-.33-.72-.68-1.07-1.03-.24-.34-.49-.66-.72-1.01-1.3-1.34-1.88-2.07-2.15-2.07,1.7,2.46,3.67,4.29,5.79,5.99,2.14,1.68,4.5,3.14,7.29,4.4-.19-.8-4.7-3.27-7.24-5.59-.35-.27-.7-.54-1.04-.83Z"/><path d="m266.65,94.3c-6.8,0-13.55.02-19.34.5,2.28.32,4.43.47,7.83.17,4.32-.41,9.68-.06,14.45-.23l-.27-.39c-.88-.02-1.78-.03-2.68-.05Z"/><path d="m220.66,5.16c6.07-.16,9.34-.94,7.36-1.77l-5.94.04c.91.4-3.48.66-2.61,1.06,1.73.17,1.01.44,1.19.67Z"/><path d="m87.47,81.88c3.29.3,6.58.6,9.87.85-4.89-1.02-9.73-2-14.44-2.22l.42.67,4.15.69Z"/><path d="m65.94,18.42l-3.7.82-.58.42c5.41-1.09,10.97-1.89,15.92-3.33-1.67,0-5.04.45-5.73.19-1.03.28-1.9.51-2.78.75-.18.3-.27.56-3.13,1.15Z"/><path d="m213.34,6.16l-.04.41,7.37-.09c1.51-.46,1.39-.89-.01-1.32-3.59,0-2.75-.35-2.83-.63-.57-.14-1.39-.26-2.78-.17-1.63.11-.66.27-.36.39,1.13.48,3.27.95-1.35,1.41Z"/><path d="m6.73,37.6l-.15-.35c-2.11,1.58-4.45,3.41-5.78,6.26l-.25.52-.17.56c-.1.38-.24.74-.29,1.13-.09.78-.16,1.55-.05,2.29.18,1.49.78,2.78,1.51,3.76-.04-.46.21-.46.12-1.04-.05-.29-.2-.7-.42-1.43-.19-.73-.52-1.8-.43-3.44.08-1.42.94-3.22,2.16-4.63,1.2-1.44,2.64-2.62,3.74-3.64Z"/><path d="m320.21,93.48l-.34.5c5.75.21,10.92-.43,16.22-.81l-2.78-.24c-2.95-.03-3.01-.36-3.44-.65-.4,0-.8.02-1.21.03.01.65-.85,1.31-8.44,1.18Z"/><path d="m384.79,87.52l5.82-.61c1.94-.21,3.87-.49,5.8-.72,2.5-.31,4.38-.57,4.59-.93-2.61.12-5.33.46-8.08.84-2.75.39-5.53.69-8.23.91,0,.17.01.33.09.5Z"/><path d="m333.3,92.93l2.78.24c2.12.02,4.28.09,6.34.04,2.06-.06,4.01-.28,5.72-.76-3.81.02-7.79.06-12.04.15-2.01.05-2.7.11-2.8.34Z"/><path d="m96.29,10.9c.17.03.23.09.52.09,2.14,0-5.85,1.57.25.81,4.4-.53,7.15-1.42,6.69-1.98-2.59.26-5.37.29-7.47,1.08Z"/><path d="m404.36,6.02c-.8-.24-1.62-.47-2.68-.69-1.07-.19-2.39-.35-4.19-.49-2.99-.23-5.54-.68-7.03-1.1-1.04-.09-2.38-.25-2.78-.18.84.22,1.68.44,2.52.66,2.29.31,4.57.62,6.85.92,2.28.3,4.56.54,6.83.94l.48-.07Z"/><path d="m331.5,1.71c2.57-.32-1.48-.46-5.13-.46-2.69-.07-4.39,0-5.53.14l.07.26c3.47-.01,6.93-.11,10.59.05Z"/><path d="m483.23,62.28c-4.51,3.1-10.12,5.55-14.34,7.85,2.56-.9,5.02-2.07,7.42-3.37,2.4-1.29,4.75-2.71,7.05-4.21l-.14-.26Z"/><path d="m140.51,87.5c.67,1.38,7,.89,10.61,1.24-.21-.28.86-.56-3.55-.74-2.2-.1-4.7-.33-7.06-.51Z"/><path d="m102.55,12.58c-.56-.2-.06-.69-3.37-.24-4.46.63-1.7.9-4.24,1.48,3.62-.02,5.08-.83,7.61-1.24Z"/><path d="m264.97,5.82c2.2-.14,4.39-.29,6.6-.43-4.16-.05-4.42-.47-5.01-.87-.34-.23-1.33-.41-3.31-.4-.74,0-1.9.1-2.13.19-.65.24.96.29,2.23.37,4.58.32-3.67.77.31,1.1.42.02.85.03,1.31.03Z"/><path d="m323.54.29c2.94-.11,6.91.63,9.21.07-1.24-.39-1.25-.45-9.21-.07Z"/><path d="m143.69,7.82c3.89-.1,3.66.35,4.56.65,3.04-.15,6.39-.04,8.84-.61l-.11-.21c-2.19.02-6.01.39-6.38.05-.83-.76-3.92-.24-6.91.12Z"/><path d="m134.73,9.45c1.84-.71-2.65-.52-4.79-.61l-2.27.55-1.75.89c3.04-.15,5.66-.86,8.81-.83Z"/><path d="m195.17,91.59l.02-.5c-2.75-.26-5.51-.52-8.57-.49.02.27-1.06.58,3.07.73,3.12.12,4.53.32,4.4.69,1.37-.07.95-.27,1.08-.43Z"/><path d="m485.07,36.51c1.22.8,2.28,1.5,2.97,1.95.69.45,1.09.56.97.09-2.3-2.05-5.97-4.52-6.77-4.46l.34.53c.88.57,1.66,1.25,2.49,1.88Z"/><path d="m237.02,3.87c-2.2-.16-1.03-.46-1.41-.69l-4.43-.03c-.69.65-.78,1.24,5.91,1.3l-.07-.58Z"/><path d="m269.32,94.35l.27.39c2.87,0,5.33-.12,7.43-.36-1.84-1.19-4.81-.55-7.7-.03Z"/><path d="m412.51,8.93c.03-.07.32-.1.06-.23-.76-.36,3.47.11-1.03-.8-4-.7-.61.24-1.22.31-.17.02-1.51-.17-2.31-.27.95.33,1.8.57,4.49.98Z"/><path d="m492.3,47.68c.05-.96-.09-2-.39-2.95-.15-.47-.33-.92-.57-1.3-.22-.39-.45-.73-.73-.97.52.88.91,1.81,1.19,2.75.34,1.06.34,2.02.22,2.52.03,1.78-.55,3.57-1.53,5.17l.71-.95c.65-1.35,1.06-2.8,1.1-4.28Z"/><path d="m230.7,2.93s-.11.05,0,.07c.52.08-1.68.38,1.94.18,1.23-.07,3.53-.42,1.17-.43l-3.11.17Z"/><path d="m377.46,88.77c.07-.33,3.78-.86,2.85-1.14-1.5.15-3,.33-4.5.45.56.23-.98.7,1.65.69Z"/><path d="m383.59,12.56c-.05-.28-1.43-.68-2.95-1.09-6.49-.83,1.34.68-.45.61.27.1.64.17,1.11.22l1.94.29c.41.04.52.04.35-.04Z"/><path d="m158.08,5.5l2.94-.31c-1.32-.35-4.92-.06-7.16-.12l-.14.36.14.36c.8-.02,1.41-.05,2.01-.09.22-.21,1.22-.22,2.21-.2Z"/><path d="m215.86,94.59c-.25-.32-3.47-.28-4.42-.52l-2.36.09,1.89.29c1.56.14,3.18.21,4.89.15Z"/><path d="m125.92,10.28l1.75-.89c-1.55.18-3.09.4-4.63.62l-.14.47,3.03-.2Z"/><path d="m57.46,20.71c-.92-.1-2.13-.07-4.54.95,1.24-.15,1.84.18,4.54-.95Z"/><path d="m444.72,78.31l-4.47,1.43c-.1.47,2.37-.33,4.58-1l-.11-.43Z"/><path d="m44.54,23.75c-2.12.61-4.5,1.33-5.9,2.05,3.14-.6,4.67-1.34,5.9-2.05Z"/><path d="m215.07,3.85c1.46-.02,3.15-.13,5.05-.33-1.63.08-2.6-.08-5.05.33Z"/><path d="m491.2,51.96l-.71.95c-.51.77-1.05,1.53-1.7,2.22h.19c1-.83,1.75-1.94,2.22-3.17Z"/><path d="m177.55,6.98s.03-.07.19-.1c-.21.03-.43.05-.69.06-.13.13-.27.27-.4.41l.89-.37Z"/><path d="m492.02,47.73c.12-.5.11-1.45-.22-2.52-.27.06.07.84.22,2.52Z"/><path d="m226.45,6.45c-.17-.14.1-.35-1.54-.31-1.2.03-.97.18-.09.27l1.63.04Z"/><path d="m153.72,5.44l.14-.36c-1.52.14-2.57.31-3.05.52l2.91-.16Z"/><path d="m161.13,5.09l3.88-.24c-1.64-.16-2.95-.09-3.88.24Z"/><path d="m384.71,87.52l-.02-.5c-.98.07-1.48.16-1.52.28.15.13-.55.39,1.53.22Z"/><path d="m74.61,79.13l.4.4c1.54.22.63-.11.98-.15-.46-.12-.92-.2-1.38-.25Z"/><path d="m279.76,3.22c1.47.09,3.04.22,3.19-.16-1.34-.05-2.68-.09-3.19.16Z"/><path d="m403.88,6.08c-2.27-.4-4.55-.64-6.83-.94-2.28-.31-4.55-.61-6.85-.92-1.6-.17-2.3-.17-2.45-.07l-.24.32c2.53.3,3.35.49,2.42.58-.44.04-1.04.09.63.29.49.05,1.26.14,1.91.21.33.03.62.06.83.08.21.02.34.02.34.01-.25-.52,6.44.33,9.08.46.54.03.77-.01,1.15-.02Z"/><path d="m307.92.47c-3.13-.08-6.27-.17-9.31.08,5.26,0,.97.41,4.67.48l5.92.14c-.76-.23-3.9-.42-1.27-.7Z"/><path d="m463.23,23.62c1.11.58,2.38,1.23,3.76,1.92,1.38.68,2.88,1.36,4.37,2.15-.02-.18.48-.13-.2-.6-.92-.63,3.15,1.19-.44-.66-2.51-1.24-2.12-.77-1.92-.5.09.13-.01.39-1.54-.62-2.81-1.85-2.46-.93-4.02-1.7Z"/><path d="m359.51,1.59c-1.48-.12-2.96-.27-4.45-.35-.58.1-4.4.05-1.04.33,3.55.28,4.75.2,5.49.02Z"/><path d="m370.09,2.4c1.3.05,2.49.02,1.71-.12-2.36-.44-5.1-.34-7.73-.53.21.34,3.65.41,6.01.65Z"/><path d="m448.56,16.87c-1.86-.64-3.71-1.3-5.6-1.85.24.32,1.99.93,4.22,1.7,1.73.58,1.22.21,1.38.15Z"/><path d="m489.19,55.52c-.25.31-.52.63-.84.92l.07.31c.32-.31.65-.65.95-1.01.3-.36.63-.69.87-1.05.49-.71.9-1.34.96-1.75-.26.48-.62.9-.94,1.34-.31.45-.7.84-1.07,1.24Z"/><path d="m353.9,1.2c-.6-.28-2.7-.3-4.82-.31l.14.23c1.58.03,3.13.06,4.68.09Z"/><path d="m382.25,4.37c.32.06.62.11.91.16h.85c-.38-.07-.82-.14-1.12-.17-.29-.02-.43,0-.64,0Z"/><path d="m459.03,21.85c1.06.42,2.11.88,3.16,1.32-.37-.23-.62-.47-1.14-.71-1.52-.68-1.56-.54-2.02-.62Z"/><path d="m371.39,2.83l-1.42-.34c-2.24-.02-.5.16,1.42.34Z"/><path d="m349.22,1.12c-.8-.02-1.97-.1-1.96,0,0,.02.57.09.87.1,1.36.05.98-.05,1.09-.1Z"/><path d="m387.52,4.47l.24-.32c-1.92-.1-2.09,0-.24.32Z"/><path d="m427.27,11.5c-.02-.06-.24-.11-.44-.16.02.06.24.11.44.16Z"/><path d="m486.19,58.76l.04.16c.74-.7,1.5-1.38,2.17-2.14-.67.7-1.45,1.34-2.21,1.99Z"/><path d="m375.88,3.09l.33.07c-.12-.02-.25-.05-.33-.07Z"/><path d="m348.34.87l-.42-.14c-1.29.01-1.03.06.42.14Z"/><path d="m239.83,4.63c-1.8.32-4.6.59-2.54,1.04.88.19,1.94.36,3.79.38,2.74.02,3.05-.25,3.42-.51-1.43-.29-2.14-.59-.92-.95.56-.16.42-.32-1.2-.33-1.95-.02-2.25.19-2.55.37Z"/><path d="m365.88,7.81c-3.96-.43-2.69.13-3.08.38,1.46.21,3.53.32,3.69.72.08.2,1.47.6,2.77.71,1.33.11,2.59.05,3.08-.06.82-.2-1.75-.41-2.54-.6-1.55-.38-2.64-.77-3.92-1.16Z"/><path d="m289.8,5.33c2.7.92,7.7.55,12.43.35-3.46-.5-7.39-.74-12.43-.35Z"/><path d="m286.13,5.41c.51-.02,1.02-.03,1.53-.05.26-.05.42-.13.79-.16,2.85-.24,4.74-.51,1.81-.92-.77-.11-2.88-.22-2.52-.03.85.45-8.51.65-1.6,1.16Z"/><path d="m253.38,5.85l4.28.07c.04-.26,3.61-.64-.18-.75-2.81-.08-4.77.25-4.1.68Z"/><path d="m273.59,5.41l4.76.5c-.11-.23,2.45-.47.27-.66-1.74-.15-3.61-.04-5.03.16Z"/><path d="m356.71,7.69c-.85-.17-1.36-.31-1.86-.36-.54-.06-1.08-.03-1.62-.04.45.1.85.23,1.36.3.52.07,1.14.06,2.13.1Z"/><path d="m281.56,5.91l4.12-.15c.19-.03.39-.05.6-.08l-.19-.19c-1.85.08-4.56,0-4.52.42Z"/><path d="m249.59,5.87c1.22.15,2.44.33,3.68-.01h-3.68Z"/><path d="m347.71,7.77c-.42-.08-.63-.07-.84-.06.15.03.3.06.84.06Z"/><path d="m138.91,89.85c1.65.13,3.54.33,4.54.19.78-.48,5.73.34,7.74.15.76-.07,3.24.67,4.38.36.7-.19-1.75-.59-3.27-.9-1.54-.32-2.76-.45-4.92-.43-2.72.01-5.88-.07-8.25-.86-1.42-.47-4.06-.47-5.6-.48-2.7-.05-.55.32,1,.61,2.45.47,4.87.95,4.37,1.35Z"/><path d="m195.17,91.59c-.12.16.29.36-1.08.43-.35.2-3.99.08-2.21.47.63.13,2.06.31,3.01.34,3.18.09,1.08-.33,1.79-.48.39-.09.69-.19,1.27-.25,1.15-.12,4.49-.09,3.24-.36-1.43-.31-3.84,0-6.03-.14Z"/><path d="m184.35,91.79c-.32-.05-.61-.09-.91-.14l-.87.12c.38.04.81.1,1.13.1.28,0,.43-.05.65-.08Z"/><path d="m110.9,86.68l-1.47-.19c.48.06.98.13,1.47.19Z"/><path d="m252.86,2.61c-.3-.06-.4-.14-2.38.02.27.06,1.22.04,2.38-.02Z"/><path d="m46.6,74.62l2.94.81c.09-.2-.49-.71.43-.55,1.63.28,3.08.55,2.62.14-.23-.19-1.11-.38-1.48-.41-1.32-.11-5.54-1.33-4.55-.55.33.26.05.37.04.55Z"/><path d="m38.3,71.58c.84.45.81.72,2.86,1.35.29.09,1.04.18.98.1-.31-.41-2.32-.89-3.83-1.45Z"/><path d="m7.28,57.23c.34.29.7.56,1.04.83.08-.12.38-.05-.96-1.14l-.08.31Z"/><path d="m62.61,77.72l.4-.21c-1.71-.39-1.49-.17-1.75-.11l1.35.32Z"/><path d="m55.42,76.58l-.46-.35c-1.42-.21,0,.17.46.35Z"/><path d="m303.27,1.02c-3.7-.06.59-.49-4.67-.48-1.91.03-3.26.13-4.26.23-2.11.23-4.71.47-.76.62,6.21.24,6.47-.26,9.69-.38Z"/><path d="m278.36,1.72c2.14-.09,5.55.05,5.36-.25-.06-.1-.93-.27-3.35-.16-2.34.11-5.78.34-5.91.45-.26.22,2.79-.08,3.89-.05Z"/><path d="m280.68.94c-1.68-.07-2.71-.16-3.93-.14-1.53.04-4.27.13-4.37.3-.06.1.95.16,2.58.1,1.75-.08,3.46-.16,5.72-.26Z"/><path d="m260.31,2.26c-.2-.05-.21-.14-1.76-.06-.48.02-.75.11-1.11.16l2.87-.1Z"/><path d="m286.57,1.22c-.48.04-.18.04.11.04l-.11-.04Z"/><path d="m263.14,2.25l-.67.02-.67.02c.45.03.9.02,1.35-.05Z"/><path d="m183.62,6.36c-.32-.3-1.86-.36-4.01-.21-2.74.19-1.65.48-1.91.73,2.67-.03,2.76-.61,5.92-.52Z"/><path d="m217.82,4.53c.08.28-.76.64,2.88.64-.23-.23.5-.5-1.23-.67l-1.64.04Z"/><path d="m183.65,6.36l.33.07c-.12-.02-.24-.04-.33-.07Z"/><path d="m266.65,94.3l2.7.05c-.47-.13.9-.38-1.26-.38-1.23,0-1.53.18-1.44.33Z"/><path d="m303.1,94.14c2.43-.04,4.93-.08,4.91-.51-1.81.14-3.83.25-4.91.51Z"/><path d="m143.69,7.82c2.99-.35,6.08-.88,6.91-.12.37.34,4.2-.03,6.38-.05-1.22-.35-2.19-.73-3.71-1.05-3.25-.7-9.14-.43-13.89.6-.59.13-.88.29-1.61.39-2.72.38-2.85,1-.12,1.03q1.14.01,1.76-.43c.29-.2.19-.46,2.25-.59.63-.04,1.35.13,2.02.21Z"/><path d="m121.36,10.02l1.61-.15c2.77-.93-1.69-1.04-1.62-1.66l-4.42.82c-.36.59,5.56.27,4.43.99Z"/><path d="m128.64,7.36c-1.62.14-3.3.24-4.48.55.05.02.02.07.16.07,2.01-.01,1.7.64,4.13.32,3.59-.47-.47-.56.18-.94Z"/><path d="m136.59,7.27c.43-.09.92-.17.88-.19-.14-.09-.47-.16-.73-.24-.19.07-.54.14-.54.19,0,.08.22.15.39.24Z"/><path d="m158.08,5.5c-.99-.01-1.99,0-2.21.2.94-.02,2.25.08,2.21-.2Z"/><path d="m153.86,5.8l-.61.13c.27-.04.53-.08.61-.13Z"/><path d="m87.47,81.88l-4.15-.69c-1.36.49-8.26-.92-10.62-.83.18.27-.46.48,2.87,1.07-1.35-.59,1.1-.31,2.65-.13,1.89.23,2.74.63,3.41.93l4.21.75c8.04.62,8.2.47,1.62-1.1Z"/><path d="m81.63,82.23c-.67-.3-1.52-.71-3.41-.93-1.55-.18-4-.46-2.65.13,2.28.4,5.07,1.08,6.06.8Z"/><path d="m102.41,85.23c-3.89-1.43-5.3-.64-7.92-.96,3.15.8,5.57.9,7.92.96Z"/><path d="m110.92,86.68l-1.52-.2c.49.23.99.3,1.52.2Z"/><path d="m65.94,18.42c2.86-.59,2.95-.85,3.13-1.15-.5-.26,1.01-.48,2.62-.7.83-.53.11-.85,4.24-1.71.77-.59-3.75.38-4.44.25-5.73,1.7-6.03,2.58-5.55,3.31Z"/><path d="m112.65,10.6l1.85-.27c-1.06-.04-1.31.15-1.85.27Z"/><path d="m422.63,82.78c-.67.28-.83.47-.99.66,1.47-.29,2.94-.58,4.41-.86l2.2-.43,2.18-.51c2.62-.63,2.63-.85,2.69-1.08-1.57.33-3.46.85-4.43.85-2.01.5-4.04.92-6.05,1.38Z"/><path d="m430.42,81.63l-2.18.51-2.2.43-4.39.86-.05.35c3.39-.63,6.8-1.18,10.16-1.99l-1.34-.17Z"/><path d="m422.63,82.78c2.02-.46,4.05-.88,6.06-1.38l-.07-.36c-1.98.44-3.98.8-5.97,1.2v.53Z"/><path d="m462.66,70.89c-.11-.12-.32-.23-1.86.33-.7.25-1.56.73-2.35,1.11,1.05-.21,2.67-.86,4.21-1.44Z"/><path d="m428.68,81.4c.97,0,2.86-.52,4.43-.85-.94,0-2.72.44-4.43.85Z"/><path d="m446.15,77.75c-.02-.09,1.31-.55,0-.28-.14.03-.54.15-.65.2-.8.34-.29.28.65.07Z"/><path d="m10.21,37.16c2.07-1.44,4.59-1.37,6.51-3.48.02-.44-1.14.02-2.59.74-1.45.72-3.15,1.74-4.26,2.33.12.13.23.26.34.4Z"/><path d="m38.51,24.49l-.57.22c.18-.07.35-.14.57-.22Z"/><path d="m9.88,36.76l-.32.11c.11-.04.22-.07.32-.11Z"/><path d="m486.19,58.76c.76-.65,1.54-1.29,2.24-2.01l-.07-.31c-.37.36-.7.68-.98.95-.29.26-.53.48-.71.67-.37.37-.52.6-.48.7Z"/><path d="m320.21,93.48c7.59.14,8.45-.53,8.44-1.18l-1.65-.66c-5.65-.24-8.83.5-13.21.78-.52.62-.13,1.14,6.42,1.06Z"/><path d="m391.78,87.41l.64-.06c-.02-.07-.28-.04-.64.06Z"/><path d="m285.68,5.75l1.06.06c-.16-.05-.31-.1-.47-.14-.2.03-.4.05-.59.08Z"/><path d="m377.41,88.78c.52,0,1.03-.02,1.57-.03.01,0,.27-.07.41-.1-.64.04-1.29.08-1.99.13Z"/><path d="m293.06,92.52l-2.84-.14c.2.22.34.46,2.84.14Z"/><path d="m421.64,83.44c.16-.19.32-.38.49-.57-1.44.28-3.04.59-3.25.84-.21.25,1.2.03,2.76-.27Z"/><path d="m57.04,20.03c.12-.22.13-.41-1.31-.2.19.13-.4.49,1.31.2Z"/><path d="m49.79,20.8h.32c-.11,0-.22,0-.32,0Z"/><path d="m61.27,18.32c-.33-.06-.35-.25-1.07-.16-.95.13-1.8.5-1.48.53.63.06-2.22,1.14,2.21.09.12-.16.23-.31.34-.46Z"/><path d="m61.27,18.32c-.11.15-.23.3-.34.46,2.19-.57,1.98-.66.34-.46Z"/><path d="m17.96,63.66c.17.12.32.25.54.38.03.02.49.21.52.2.08-.01.02-.09.02-.14l-1.08-.44Z"/><path d="m210.09,93.14l.59-.03c-.22,0-.45.01-.59.03Z"/><path d="m358.57,6.93l2.32.12-.57-.18c-.62,0-1.24.03-1.75.06Z"/><path d="m5.34,56.35c.35.35.71.69,1.07,1.03l-.21-.43c-.28-.2-.58-.39-.86-.59Z"/><path d="m6.2,56.95c-.48-.46-.93-.94-1.37-1.44.03.17.27.51.51.84.28.21.57.4.86.59Z"/><path d="m71.69,16.57c-1.61.22-3.13.44-2.62.7l2.62-.7Z"/>
                  </g>
                </mask>
              </defs>
              <path class="mask" d="m409.6,16.37c-8.69-1.99-21.77-4.71-37.91-6.99-32.8-4.64-58.31-4.67-73.05-4.63-94.93.26-143.3.79-180.23,4.86-36.56,4.03-70.1,9.72-96.78,21.46C11.92,35.34,1.92,40.33,1.82,47.17c-.13,9.55,18.76,17.14,26.26,20.15,57.69,23.19,180.04,25.45,188.34,25.57,2.76.04,6.48.09,11.01.13,150.56,1.36,205.93-7.73,243.61-25.29,11.11-5.18,22.03-11.71,22.07-20.08.02-4-2.43-13.31-33.53-25.99C421.97,6.33,374.4-.93,281.39,1.35c-26.51.65-62.32,2.21-104.67,6.14"
                    mask="url(#path-mask)" stroke="black" stroke-width="2" fill="none"
                    stroke-dasharray="1262.3377685546875" stroke-dashoffset="1262.3377685546875">
              </path>
            </svg>
        