
            <svg xmlns="http://www.w3.org/2000/svg">
              <defs>
                <mask id="path-mask">
                  <g fill="white">
                    <path d="m329.45,64.04c2.91-.65.99-.65,1.53-.98l2.13-.27c1.77-.08,3.8-.32,5.49-.39,3.48-.09,9.71-1.75,12.22-3.03,1.84-.41,2.96-.8,3.68-1.18,1.23-.25,2.71-.72,4.13-1.13,1.41-.44,2.76-.85,3.75-.93.59.12,2.76-.37,1.1.53-1.21.6-2.57,1.13-4.68,1.57-1.75.33-3.29.79-4.19,1.3l-1.61.41c-1.96.68-4.88.52-6.27,1.61-.63.13-1.8.38-1.82.38-.72.49-2.04.87-3.57,1.2-1.54.32-3.3.57-4.93.86l-.08-.17c.87-.25.68-.26-.32-.08-.16.04-.33.08-.51.11l-.15-.23c.55-.11,1.36-.25,1.33-.36,0-.02-.41,0-.61.05-.93.19-.65.22-.74.31l-3.19.72c-.26.06-.52.11-.79.16.37-.22,2.98-.82.63-.56-2.48.28-3.27.63-3.73.97-.42.33-1.46.56-3.14.67-.22-.34-2.58.15-4.23.37l.06-.13c1.52-.44.3-.28-1.03-.1-1.84.02-1.96.41-3.1.58l-.24-.02h.27c-.07.24.64.42-2.66.8-2.06.22-3.81.52-3.41.82l-2.03.3-1.85-.21c1.11-.14,1.59-.29,1.66-.43,1.31-.3,1.41-.45.09-.42-1.77.2-2.37.14-1.76-.14.28-.14.68-.31-.49-.2-.34.03-.88.12-1.33.2s-.82.16-.81.18c.28.56-4.41,1.1-6.2,1.63-.37.11-.51.21-.76.32l-.31.2c-4.19.47-8.61.7-12.35,1.48-.94.21-2.29.17-3.25.16-1.72-.01-2.87.15-3.79.45l-8.11.35-.16-.17c-.24-.24-1.55-.28-3.19-.14-1.27.11-.84.28-.92.42-4.49.39-8.99.75-13.71,1.05l.19.05c-.06.08.31.15-.58.22-.25.12-.34.25-1.5.29.39-.42-1.87-.41-3.7-.4-3.96.02-8.55-.04-12,.31-2.39.25-4,.32-6.34.36-1.41.03-.62.3-.73.46-4.53.14-9.06.25-13.59.32l.02-.32c.89-.19.67-.37.23-.57-.76-.34.39-.52,2.81-.54l2.14-.2c1.28-.05,2.81,0,3.37-.28l-2.35-.05c-.3-.15-1.68-.28.1-.45.94.16,1.89.16,2.86-.05l3.37-.07c1.4.49,4.14.79,7.15,1,2.11-.41,5.2-.73,5.63-1.27,2.96-.04,5.92-.04,8.91-.33.08.17-.24.39.34.48.78.12-2.32.52.5.41,1.95-.08,1.56-.31,1.34-.49-.1-.09-.13-.4,1.16-.16,2.35.43,1.83-.3,3.84-.31.31.06.54.19.94.18,1.17-.03,1.14-.19,1.46-.31,3.79-.17,7.45-.63,11.49-.65,2.1,0,3.18-.52,3.78-.85,6.18-.42,12.35-.93,18.52-1.49,0,.09-.19.21.02.27.59.17-2.33.89.87.58,2.83-.27.35-.42.74-.67.11-.07,1.05-.19,1.61-.29,5.18-.83,10.81-1.39,16.2-2.06,1.57-.2,4.07-.87,5.38-.63,1.48.22,10.84-.68,13.79-1.38Zm-17.88,2.11l-.57.2c.27-.02.58-.03.79-.07.2-.03.29-.1.43-.15-.23,0-.44.01-.65.01Zm-30.68,3.65c-.12,0-.28.01-.42.02.02.06.19.05.42-.02Z"/><path d="m338.7,4.18c6.96.22,13.77,1.13,20.66,1.72.84,1.11,5.34.89,8.2,1.26.55.36.44.7,3.56.72,1.89.02,4.57.44,6.96.82,1.87.47-4.15.56,2.87,1.28,1.01.23,2.45.41,2.51.8.03.2.95.63,1.85.79.92.17,1.81.17,2.18.08.62-.16-1.17-.5-1.7-.71-1.03-.44-1.76-.85-2.62-1.26.61-.13,3.07.6,3.03.2.69.47,2.42.87,3.93,1.34,1.52.45,2.82.94,2.68,1.3-.14.35-2.37.03-3.4.22-1.06.14-5.06-.86-8.29-1.56-1.45-.32-2.81-.74-4.28-.99-1.41-.25-3.11-.8-4.19-.64-1.15.17,2.78.55,2.01.83-2.29-.04-4.64-.21-7.25-.65-.15-.62-.8-1.12-4.81-.92-2.99.15-6.64-1-9.54-.61l-1.1-.07-2.06-.36c-3.44-.96-7.2-1.29-11.32-1.01-2.39-.65-5.11-1.08-8.66-.97l-1.5-.09c.18-.04.3-.1.56-.11,2-.09,3.35-.25,1.32-.8-.53-.14-2-.36-1.76-.16.57.47-5.99.19-1.23,1.11-1.29-.03-3.19-.22-3.19.19l-2.24-.14c-.07-.22,1.74-.35.23-.63-1.2-.22-2.52-.2-3.52-.06l-1.42-.1c-2.9-.23-3.06-.65-3.46-1.06-.23-.24-.9-.46-2.29-.53-.52-.03-1.33.02-1.5.09-.47.21.65.32,1.54.46,3.19.51-2.61.59.16,1.09-.71.34-2.5.21-4.18.13v-.26c.03-.25,2.55-.47-.1-.75-1.96-.21-3.35.06-2.97.5l-2.58-.12-3.54-.53c-.98-.34-1.47-.67-.6-.97.4-.14.31-.3-.82-.37-1.36-.09-1.58.1-1.8.27l-1.91-.27-.02-.58c3.24.19,6.91.1,9.05.94.81.32,2.02.21,2.23-.07.15-.2-.09-.45,1.28-.5,5.65-.2,11.45.07,17.37.77,3.57.92,11.1,1.43,15.67.93Zm36.71,4.89c-.38-.05-.76-.03-1.14-.04.31.1.58.23.93.29.36.06.8.05,1.49.1-.59-.17-.93-.31-1.29-.35Z"/><path d="m4.06,33.46c-.71,1.06-1.09,1.86-1.41,2.55-.08.18-.15.34-.22.5-.06.17-.11.33-.16.49-.13.32-.18.65-.25.99-.08.35-.18.42-.25.69-.06.26-.08.75.44,1.74.92,1.55,1.03.96,1.1.57.08-.39.23-.64.4-.95.83,1.64,2.27,3.07,3.84,4.32-.14.21-1.01.11,1.31,1.75,1.78,1.19,2.56,1.8,2.3,2.1-.32.08-2.5-1.27-1.61-.32.31.34,1.12.98,1.71,1.3,1.98,1.07.85.03,1.37.11.29.04.53.03.92.15.78.23,2.9,1.17,2.22.58-.78-.67-2.44-1.07-3.73-1.88l.26-.45c5.2,2.83,10.56,5.13,15.87,7.4-1.07.2-1.91.66-6.36-1.64-.73-.38-1.96-.87-2.36-.8-.43.08.49.55,1.53,1.02.23.41.46.83.55,1.22l-1.6-.49,1.15.74c-3.83-1.18-7.25-2.86-10.1-5.05-.64-.77-1.95-2.03-3.66-2.85-1.63-.8-3.63-2.49-5.04-4.63-.71-1.06-1.25-2.23-1.57-3.35-.33-1.12-.41-2.15-.57-2.93.47-2.14,1.65-3.92,2.95-5.35,1.31-1.44,2.8-2.62,4.34-3.6.23.6,2.58-.79,4.52-1.93,1.75-1.03,2.86-1.51,4.32-1.9-.13.38-1.07.75-2.08,1.26-1.01.5-2.15,1.02-2.69,1.5-.4.35-2.26.74-2.72,1.52-.28.46,1.33-.27,2.36-.59,1.05-.36,1.84-.66,3.11-1.51.79-.55,1.71-1.02,2.64-1.41.93-.39,1.87-.67,2.78-.66,1.08,0,2.7-.9,3.7-1.32,1.73-.78.23-.47-.88-.29-1.73.33-3.45.67-3.3.13l1-.54c.53,0,1.14-.09,1.81-.24.67-.14,1.41-.33,2.18-.55,1.53-.47,3.19-1,4.76-1.38,1.2-.33,3.92-1.28,3.28-.4-.16.21,3.54-1,3.61-1.2.14-.42,1.16-.63,2.54-.94l1.01-.23c1.86-.58,4.07-1.27,3.43-.4-.87.6-.84.58.8.38.72-.09,1.68-.18,1.85-.1.61.28-2.26.76-2.66,1.11-1.43.32-2.88.78-4.29,1.13-1.41.34-2.79.58-4.08.56-.66-.02-2.41.69-2.29.72.55.11-3.32,1.26-.49.81-.07.2-.37.31-1.5.6-3.7.9-7.45,1.78-10.97,3.42-.5-.55-1.66-.14-2.99.5-1.34.63-2.73,1.65-3.88,2.14-2.57,1.37-4.15,2.88-6.35,4.73.11-.37.49-1,.41-1.11-.04-.05-.23.01-.6.34-.36.33-.98.88-1.67,1.9Zm1.05,10.43l-.54-.32c.17.21.36.46.52.61.15.13.27.15.42.22-.14-.18-.28-.33-.4-.51Z"/><path d="m382.9,14.18c-3.34-1.71-7.42-3.77-10.73-4.76-2.7-1.45-7.2-2.7-10.62-3.82-.97-.32-1.36-.42-2.07-.58-2.2-.49-2.91,0-.55.75,2.47.81,3.21,1.18,3.78,1.56.59.39,1.74.97,4.17,1.47.27.05,1.24.36,1.65.52,3.93,1.57,7.77,3,11.48,4.91,4.24,2.21,8.39,4.75,11.6,8.24.78.87,1.52,1.8,2.09,2.81.6.99,1.06,2.07,1.31,3.18.56,2.23.25,4.6-.71,6.71l.21.07c.36-.72.53-1.34.66-1.49.07-.34.22-.69.25-1.06.04-.37.08-.74.12-1.11.07-.36-.01-.73,0-1.07-.02-.34,0-.66-.05-.95-.07-.34-.14-.69-.22-1.05l-.11-.54-.19-.52c-.24-.71-.58-1.39-.94-2.03-.72-1.3-1.6-2.41-2.25-3.33-.35-.58-2.26-2.64-4.59-4.37-2.29-1.77-4.9-3.22-5.81-3.65-.3-.15-.64-.25-.6-.21.3.47-1.28-.52-2.03-.93-.87-.52-1.42-.85-2.18-1.3-.44-.25-1.91-.81-1.74-.84.11-.02.97.28,2.09.76,2.36.98,5.52,2.74,5.99,2.6Z"/><path d="m106.25,6.32c-2.51.36-5.5.6-7.11,1.25.73-.02,1.68.03,2.17-.06,1.93-.35,3.74-.74,5.21-.4,1.21.27-.42.64-1.57,1.01-2.05.67-3.68.63-5.42.48-1.08-.09-2.87.03-3.72.28-2.91.85-4.28.5-6.07.44-1.13.11-2.55.34-2.87.08-.06-.05.44-.25.65-.27,1.49-.15,1.56.11,2.22.19l3.06-1.32c-2.17-.52-4.84.27-7.37.74.1.25-.04.51-1.88.78.05.18-.09.39.2.52.87.41-2.18.71-3.06,1.06-.24.1-.86.24-1.07.13-.42-.23.59-.48,1.71-.78.64-.17.11-.45.11-.69-.98.38-3.91.35-4.13.91.38.02,1.4-.08.43.19l-.4-.19c-1.48.07-.65-.52-2.47-.26-.64.09-1.11.53-1.66.82.04.15-.16.32-1.02.52.05.05.11.1.18.15l.96-.12c1.64.07,6.69-.28-.08.88-.44.08-.62.33-.92.5,2.92-.44,5.96-1.09,8.69-.89.33.03,4.22-.92,6.85-1.25.7-.31,1.59-.45,3.17-.66,4.63-.62,9.53-.64,13.91-1.63,1.84.4,4.98-.57,6.89-.42,1.87.14,3.36.09,5.63-.39,3.08-.65,4.46-.49,4.58.09l5.12-.49c-.26-.35,1.13-.69,2.14-1.03-2.39-.29-4.87-.56.07-1.41.63-.11.2-.23-.44-.26-1.98.52-4.97.25-6.64.7-3.85,1.06-3.13.28-3.68-.02l-1.09.1c-.08.22-.66.39-1.9.5-.12.29-.94.45-2.15.58l.12.29c-1.2.09-1.02-.09-1.03-.23-2.36-.09-5.89.19-6.32-.44Z"/><path d="m369.65,54.45c1.27-.45,2.1-.94,2.71-1.3,1.29-.78,2.86-1.71.22-.88-1.04.32-1.82.6-2.43.85-.62.23-1.07.45-1.46.66-.77.41-1.28.82-2.32,1.24-1.33.37-2.66.77-3.99,1.12-.99.08-2.34.48-3.75.93-1.42.42-2.91.88-4.13,1.13l-.13-.29c2.32-.6,4.89-1.66,6.66-1.96,1.13-.16,2.24-.46,3.38-.84,1.14-.37,2.31-.79,3.53-1.3,4.81-1.92,9.55-4.07,13.91-6.81,2.2-1.4,4.33-2.86,6.3-4.51,1.96-1.66,3.83-3.45,5.2-5.59.1-.04.17-.05.14.1-.02.15-.15.45-.5.99l-.59.8-.65.75c-.25.24-.49.48-.76.69-.26.19-.48.4-.65.67-2.32,2.31-3.86,3.4-4.39,3.93-.54.51-.13.42,1.03-.15.07-.04.1-.03.15-.05,2.24-1.92,3.67-3.1,5.04-4.39.33-.33.67-.66,1-1.02.31-.37.63-.77.97-1.19.31-.44.6-.94.92-1.48.28-.56.55-1.2.8-1.9.36-1.2.66-2.65.64-3.9.07-1.25-.14-2.25-.02-2.63.09.42.19.84.3,1.26.08.42.1.84.14,1.23.12.78.02,1.41-.09,1.68-.11.26-.2.56-.27.9-.12.32-.23.68-.34,1.06-.1.38-.22.78-.4,1.16-.16.39-.31.79-.49,1.18-1.41,2.68-3.39,4.89-5.55,6.83-2.19,1.91-4.58,3.59-7.04,5.2-7.18,4.66-15.5,7.39-23.66,9.94-1.64.47-4.22,1.32-4.45.98.9-.51,2.44-.97,4.19-1.3,2.11-.45,3.47-.97,4.68-1.57,1.06-.3,2.12-.6,3.17-.93,1.04-.35,2.04-.78,3-1.28Zm9.18-5.04c.09.09.75.02,2.16-.93,1.4-.87,3.3-2.36,3.3-2.52.01-.31-1.62,1.08-2.31,1.44-.63.4-1.48.85-2.14,1.23-.66.39-1.16.64-1.01.78Zm4.72-1.65c.91-.58,2.51-1.69,2.44-1.91-.03-.11-.67.21-1.61.86-1.02.7-1.98,1.41-3.34,2.27,1.08-.49,1.8-.75,2.51-1.21Zm-5.9,2.51l-.56.28h.09c.41-.21.43-.24.47-.28Z"/><path d="m282.64,1.13c-2.59.08-4.61-.03-7.52-.31-2.11-.2-4.49-.3-6.94-.34-2.45,0-4.98-.02-7.38-.02-2.41-.02-4.98-.31-7.24-.03l-.03.54c.53.26,1.89.68.26.74-4.81.19-4.18,1.2-7.51,1.59,1.77,0,3.34-.09,4.73-.27.18,0,.33-.02.46-.04.19-.24-.56-.58,1.36-.67,1.51-.06,2.59.07,2.8.38l.25.08-.23-.08c-2.23-.22-2.31.36-4.15.3-.12.03-.16.06-.14.1,2.11.59,4.69.1,7.01.23,2.96-.51,6.07-.42,9.22.12.94.16,1.55.37,2.61.08,1.63-.46,3.98-.2,6.24.04,3.25-.3,1.77-.84,1-1.36-.2-.13-.88-.33.27-.38.98-.04,1.54.11,1.94.27l1.15.02c-.59-.43,2.49-.53,1.87-.96Z"/><path d="m66.17,66.33c1.99.59,4.07,1.16,6.91,1.29,3.57-.01,7.29.39,11.21,1.26.78-.14,2.19-.01,3.47.03l2.09.37c-.23-.19-.59-.53-.68-.54-3.86-.32-6.36-1.25-10.07-1.67-2.7-.29-5.15-.67-5.8-1.33-.02-.02-.29-.06-.44-.1-.51-.01-1.03-.02-1.55-.03.36.7-2.34.22-4.4-.14-6.75-1.21-13.61-2.07-20.34-3.92-4.05-1.11-4.29-1.07-2.2-1.24.64-.07,1.08-.2,1.61-.3-3.9-.76-8.25-2.24-11.49-2.55.7.27,1.37.56,2.1.81,1.22.38,3.09.48,3.52,1.01.18.22-1.83-.02-3.11-.19-.68-.09-1.89-.51-2.87-.79-.82-.22-1.68-.55-2.12-.52-.57.04.23.42,1.04.79,1.27.56,1.52,1.03,3.59,1.62,2.51,1.1,5.37,2.07,8.9,2.66,4.1.38,8.74,1.31,13.45,2.16-.04-.16.2-.3,1.05-.15,1.49.27.5.35.8.54,2.08-.18,4.22-.47,5.31.92Z"/><path d="m391.74,39.55c-.25.24-.49.48-.76.69l-.33.33-.33.33c-2.32,2.31-3.86,3.4-4.39,3.93-.54.51-.13.42,1.03-.15.07-.04.1-.03.15-.05,2.24-1.92,3.67-3.1,5.04-4.39.33-.33.67-.66,1-1.02.31-.37.63-.77.97-1.19.31-.44.6-.94.92-1.48.28-.56.55-1.2.8-1.9.36-1.2.66-2.65.64-3.9.07-1.25-.14-2.25-.02-2.63-.24-.91-.75-2.1-1.35-3.16-.32-.52-.62-1.03-.96-1.43-.31-.42-.62-.76-.88-.98.9,1.45-.34.3-.9-.36-1.74-1.88-.51-.9-.65-1.27-.03-.08.04-.04.07-.06-1.2-1.64-4.08-3.49-5.85-4.8-1.19-.66-2.22-1.27-3.06-1.88-.47.13-3.64-1.62-5.99-2.61-1.13-.48-1.98-.78-2.09-.76-.17.02,1.3.59,1.74.84.76.45,1.3.78,2.18,1.3.74.41,2.33,1.39,2.03.93-.03-.05.3.06.6.21.91.43,3.51,1.88,5.81,3.65,2.33,1.72,4.25,3.79,4.59,4.37.65.92,1.53,2.03,2.25,3.33.36.64.71,1.32.94,2.03l.19.52.11.54c.07.36.15.71.22,1.05.04.28.03.61.05.95,0,.34.08.7,0,1.07-.04.37-.08.74-.12,1.11-.03.37-.17.72-.24,1.06-.08.33-.14.59-.2.78-.08.19-.15.31-.2.41-.11.18-.18.23-.26.3l-.21-.07c-.24.61-.61,1.16-.95,1.73.1-.04.17-.05.14.1-.02.15-.15.45-.5.99-.11.23-.15.43-.34.71-.66.85-.76.78-.9.84Z"/><path d="m237,3.07l-.07-.22c-.84-.43-1.5-.86-2.55-1.27-2.24-.87-6.37-.95-9.73-.22-.42.09-.63.24-1.14.28-1.92.19-2.04.83-.13,1.05q.8.1,1.25-.31c.21-.19.15-.44,1.6-.46.44,0,.94.22,1.41.34,2.73.14,2.55.59,3.16.96-3.11.25-6.29.2-9.5.1,1.32-.61-1.83-.71-3.32-1l-1.62.38-3.27.22s-.06-.1-.04-.15c1.99-.69-1.12-1.24-1.03-1.87l1.98-.04s0,.07.11.08c1.4.19,1.15.82,2.87.69,2.53-.19-.3-.62.18-.95l1.18-.43c4.8,0,9.7-.16,14.39.14h2.04s.08.37.08.37l-.43.1.56-.07h1.28c.65.02,1.57.2,1.55-.1l2.07-.17-.29.06-.31-.06c1.42.43,4.94.4,5.94,1.1.47.33,4.93-.24,7.35-.49.4-.04.66-.12.98-.18.53.26,1.89.68.26.74-4.81.19-4.18,1.2-7.51,1.59-3.21.21-6.3.16-9.27-.21Zm-13.69-1.99c-.09-.1-.32-.2-.5-.3-.14.05-.38.11-.39.16,0,.08.15.17.26.27.3-.06.65-.1.62-.13Z"/><path d="m83.55,9.52c1.84-.27,1.98-.52,1.88-.78l-1.74.16-1.33.19c-3.34.29-6.57.53-10.05,1.27-1.42.31-3.5.6-5.24.68-1.91.08-5.47.59-6.06.76-6.27,1.63-12.45,2.41-18.59,3.37-2.26.33-3.6.96-5.42,1.37-4.65,1.09-9.29,2.27-13.87,3.75-4.57,1.46-9.14,3.22-13.45,5.57-.92.51-1.91,1.02-2.3,1.55.23.6,2.58-.79,4.52-1.93,1.75-1.03,2.86-1.51,4.32-1.9.56-.48,1.83-.98,2.93-1.38l1-.54c.53,0,1.14-.09,1.81-.24.67-.14,1.41-.33,2.18-.55,1.53-.47,3.19-1,4.76-1.38,1.2-.33,3.92-1.28,3.28-.4-.16.21,3.54-1,3.61-1.2.14-.42,1.16-.63,2.54-.94.3-.24.65-.32,1.03-.23,1.84-.58,4.04-1.27,3.41-.4.51-.1,1.02-.2,1.54-.31,1.54-.62,3.17-1.15,5.46-1.25,1.77-.79,3.48-1.64,6.01-1.15l2.96-.46c.57-.54,2.58-.71,4.17-.98,2.34-.38,1.98,0,2.17.22,2.61-1.05,5.36-1.25,8.13-1.18.55-.28,1.02-.73,1.66-.82,1.82-.26.99.33,2.47.26.19-.54,3.12-.52,4.1-.9l2.11-.24Z"/><path d="m194.36.94c-1.48-.29-3.1-.43-5.27-.02,1.25.26,2.48.55,1.02.95-1.15.31-2.04-.13-3.29.03-1.66-.54-2.58-.14-3.65.22-1.22.41-2.43.54-3.29.08-2.94.25-2.47.69-2.98,1.08.46.4,2.84.43,4.01.7,1.98.31,4.57.3,7.04.03,1.86-.21,3.46-.25,5.25-.22,1.81-.28-.09-.9,3.06-1.01,2.34-.08,1.96.36,2.34.64l2.08-.09c-.16-.27-.44-.53-.42-.8.01-.18.97-.26,1.87-.28.78-.01,1.37.08.92.22-.66.2-2.47.42-.55.57.48.04,2.17-.34,3.3-.52.36-.07.54-.24,1.28-.09l-1.31.09c.8.74,3.39.52,6.12.29.83-.63-3.32-.88-3.03-1.46-4.47.44-4.44-.06-4.1-.62-1.8.14-3.28-.22-5.14,0,.28.63-1.69,1.24-4.79,1.26-4.3.02,1.37-.61-.12-.87-.21-.04-.24-.1-.36-.16Z"/><path d="m179.16,74.14l1.69.03,3.27-.13,1.2-.02s-.06-.09-.1-.14c-.71-.07-1.06-.15-.46-.25.09-.02.38-.02.48-.01.93.1-.05.18-.06.27,1.71.04,2.97-.04,3.76-.28,2.53-.77,6.53-.12,6.45.07-.26.59,2.45.56,4.41.71,2.47-.21,4.91-.42,7.42-.64,1.09-.09,3.21-.04,2.6-.35-.5-.26-2.79-.05-3.37-.12-1.8-.24-4.57.54-5.58-.12-1.37-.04-2.98-.03-3.19-.33-1.15,0-2.38.03-3.12-.16-2.53-.06-5.07-.1-7.58-.2-4.96-.18-9.26.4-14.27.07v.37c1.22.01,2.5,0,3.14.25-.08.21-.13.43-2.01.4l.88.5,4.41.09Z"/><path d="m128.94,4.82c.64.03,1.07.15.44.26-4.94.85-2.46,1.12-.07,1.41l1.92-.19-.08-.54-.24-.06.23.06c1.76.05,5.51-.64,5.28.17,2.89-.28,5.56.22,8.74-.53.46-.11,2.49-.03,2.61.27l3.05-.13c1.3-.53,5.14-.95,4.36-1.58-.04-.03.66-.13,1.01-.19,2.33.95,3.2-.46,5-.38-.01-.06-.01-.12-.02-.18-5.28-.69-6.47.3-8.27,1.04l-.4.07.42-.07c-1.05-.02-2.98.02-3.03-.07-.61-1.32-4.37-.22-7.45.07-3.21.31-6.9.84-9.79.47-1.41-.05-1.24-.54-3.67-.3l-.03.39Z"/><path d="m295.02,2.97l-1.91-.27c-4.68-.33-4.59-.91-4.08-1.52-1.53-.28-1.47.07-2.23.1,1.35.9-.97,1.55-5.23,1.51.96.47,1.02.91-.05,1.31,1.06.48,1.97.2,2.91.07-.62-.12-.77-.27.07-.26,1.15,0,.95.21,1.06.35,2.45.7,6.11.46,8.74.55,4.31.16,9,.63,13.11.37v-.26s-3-.25-3-.25c-.96.29-1.8.08-2.65-.11l-3.54-.53c-.27.24-.5.49-2.42.37-1.29-.08-2.03-.29-2.63-.51-1.42-.52.55-.69,1.83-.93Z"/><path d="m200.9,73.16c1.01.65,3.78-.12,5.58.12.58.08,2.87-.14,3.37.12.6.31-1.51.26-2.6.35-2.5.21-4.95.42-7.42.64l.9.28h1.21c3.34-.48,7.59-.24,11.34-.43.89-.19.67-.37.23-.57-.76-.34.39-.52,2.81-.54l.04-.16c.03-.22.75-.33,2.23-.33.31,0,.6-.02.89-.04-.3-.15-1.68-.28.1-.45l-.09-.16c-5.92.02-11.84-.11-17.79.16.95.36,2.72.72-.79,1.01Z"/><path d="m115.75,71.81c1.23.08,1.06.76,3.29.39,1.66-.28,3.17.38,4.81.34.5-.62,2.7-.36,5.01.03,1.96.32,3.59.31,5.09.17,1.55-.14,2.24-.36.63-.75-2.18-.16-4.18-.5-6.53-.5-7.33-.03-8.14-.1-13.94-1.06-.14-.02-.42-.06-.45-.06-3.03.41-7.48-.87-10.56-.59.26.32.27.66,2.31.99.09-.21.58-.2,1.98-.05,2.96.33,5.73.66,8.37,1.09Z"/><path d="m200.9,73.16c3.5-.29,1.74-.65.79-1.01-2.31-.18-3.85-.48-7.16-.03-2.38.33-7.14-.05-10.96-.07-5.13-.01-10.51.02-15.69-.33-2.27-.16-3.77-.17-3.53.29.23.45,2.07.48,4.12.46l4.27.07c5.01.34,9.31-.25,14.27-.07,2.5.1,5.05.13,7.58.2.61-.07,1.3-.22,1.82-.2,1.15.03,1.26.21,1.3.37.21.3,1.83.29,3.19.33Z"/><path d="m152.88,4.25c1.8-.74,2.99-1.73,8.27-1.04l4.17-.47c1.1-.19,2.24-.42,1.93-.69-1.97-.34-4.5.13-6.65.27-8.2.5-16.41.79-24.64,1.69-2.2.24-2.49.44-3.32.71,2.88.37,6.57-.16,9.79-.47,3.08-.29,6.84-1.39,7.45-.07.04.09,1.97.05,3,.07Z"/><path d="m45.99,60.01c-.53.1-.97.23-1.61.3-2.1.18-1.85.13,2.2,1.24,6.72,1.85,13.59,2.71,20.34,3.92,2.06.36,4.75.84,4.4.14-3.75-1.23-7.95-1.77-12.6-2.26-3.01-.29-5.23-.91-4.53-1.46-3.02-.29-5.38-1.29-8.18-1.89Z"/><path d="m103.09,69.79c3.08-.29,7.54,1,10.56.59.04,0,.31.03.45.06,5.81.96,6.61,1.03,13.94,1.06,2.35,0,4.35.35,6.53.5-.9-.6-1.88-1.19-5.46-1.66l-2.65.17c-.99.29-2.48.17-4.6-.04-2.57-.26-5.69-.42-7.91-.64-4.49-.43-8.54-.19-12.78-.95l1.07.82c.29.03.57.07.84.1Z"/><path d="m155.82,72.03c-1.37.47-2.48.92,2.93,1.15,1.74.08.64.25.5.39-2.68.24-5.61-.06-7.51-.35-4.81-.73-5.92-.33-6.99.23h-.99c-3.16-.44-8.37-.87-3.38-1.48.9-.11.89-.4,1.3-.61,2.73.12,5.47.23,8.19.35,1.77.08,3.1.12,3.29-.21l3.04.16c-.12.13-.08.27-.39.38Zm-8.73.12c-.11-.02-.29-.03-.55.02.15.01.3.03.55-.02Z"/><path d="m386.19,9.89c.69.47,2.42.87,3.93,1.34,1.52.45,2.82.94,2.68,1.3-.14.35-2.37.03-3.4.22-1.06.14-5.06-.86-8.29-1.56-1.45-.32-2.81-.74-4.28-.99-1.41-.25-3.11-.8-4.19-.64-1.15.17,2.78.55,2.01.83,4.68,1.29,10.76,1.77,15.29,3.9,1.4.69,1.27.04,2.47.42,1.23.21-3.83-1.95.47-.56.82,0,2.18.32,3.31.58,1.13.25,2.02.5,1.94,0-.83-.56-1.99-1.13-2.52-1.46-.67-.44-.9-.89-1.49-1.29-.58-.41-1.53-.8-3.57-1-.02,0-.35-.16-.77-.37-.43-.21-.96-.43-1.38-.58-2.47-.87-4.91-1.36-7.11-1.48.58.86,3.55.74,4.92,1.36Z"/><path d="m397.9,17.1c.49.34.91.64,1.2.95.32.3.55.58.69.86.09.17.2.34.32.53.1.19.21.39.34.59.23.4.5.83.64,1.27.36.87.47,1.57.39,2.31-.09.66-.44,1.42-.82,2.03-.37.61-.69,1.09-.64,1.37.04.26.21.38.53.34.31-.06.84-.19,1.41-.66.15-.11.3-.24.47-.37.15-.15.3-.33.46-.52.34-.36.6-.87.84-1.44.47-1.17.36-2.83-.46-4.27-.77-1.41-1.96-3.03-3.34-4.18-.93-.38-1.29-.34-1.23-.06.04.3.54.79,1.21,1.54,1.38,1.46,2.6,2.71,3.34,4.02.08.12.19.35.25.66.03.15.07.32.11.49.02.17,0,.35,0,.52.01.34-.07.65-.17.85-.09.2-.17.29-.25.21-.14-.14-.34.11-.59.21-.23.12-.4.13-.38-.26-.06-.41-.1-.62-.28-1.83-.12-.59-.31-1.03-.41-1.37-.07-.34-.14-.56-.08-.7.09-.27.2-.65-1.14-1.9-1.34-1.16-2.27-1.44-2.42-1.18Z"/><path d="m101.18,68.87c4.25.77,8.3.52,12.78.95,2.22.22,5.34.39,7.91.64,2.11.21,3.6.32,4.6.04-3.56-1.07-8.99-.97-13.45-1.37-6.64-.58-13.48-.81-19.88-2.03l-.56.17c.93.36,4.27,1.01-.88.59-1.69-.15-2.67.04.22.46,3.07.18,5.37-.28,9.25.55Z"/><path d="m122.05,8.01c-.12-.58-1.5-.74-4.58-.09-2.27.48-3.76.53-5.63.39-1.92-.15-5.05.82-6.89.42-4.38,1-9.28,1.02-13.91,1.63-1.58.21-2.47.35-3.17.66,4.32,0,8.93-.49,13.9-1.08,3.16-.39,6.38-.73,9.87-.85,3.03-.1,6.91-.71,10.42-1.08Z"/><path d="m324.12,5.93l-2.24-.14-3.3-.69c-.47-.03-.94-.06-1.42-.1-1.55.04-3.09.09-4.63.13,2.66,1.09,8.09,1.09,11.98,1.34,7.72.58,15.53.86,23.3,1.31l2.09-.02c-3.44-.96-7.2-1.29-11.32-1.01-3.32-.04-6.83.05-8.66-.97l-1.5-.09-1.07-.03c0,.14.05.2.09.26.1.05.21.11.32.16l-.73-.11-2.89-.05Z"/><path d="m238.58,71.75c2.96-.04,5.92-.04,8.9-.33,2.36-.11,4.63-.19,6.39-.02,1.59-.09,2.39-.13,3.19-.18,3.79-.17,7.45-.63,11.49-.65,2.1,0,3.18-.52,3.78-.85-11.39.68-22.79,1.18-34.19,1.78l.43.25Z"/><path d="m159.25,73.57c-2.68.24-5.61-.06-7.51-.35-4.81-.73-5.92-.33-6.99.23,7.94.52,15.89,1.09,23.85.79,1.93-.08,3.12.3,4.68.28,2.15-.02,5.46.22,5.88-.38l-4.41-.09-7.23-.29-8.27-.19Z"/><path d="m316.84,66.3c-.07.23.64.41-2.66.79-2.06.22-3.81.52-3.41.82,8.49-.85,16.99-1.91,25.65-3.9l-.08-.17-.32-.08c-.16.04-.33.08-.51.11-1.44.35-2.88.69-3.36.48-.26.06-.52.11-.8.16-1.03.16-2.07.28-3.1.41-.42.33-1.46.56-3.14.67-1.83.25-3.67.84-5.36.85-.56,0,.25-.27,1.13-.48l.06-.13-1.03-.1c-1.84.02-1.96.41-3.07.57Z"/><path d="m143.76,73.44c-3.16-.43-8.37-.86-3.38-1.47.9-.11.89-.4,1.3-.61-1.51-.13-1-.29-1.08-.43l-2.03-.06c.61.39-2.02.41-2.1.72l1.35.15c-.1.02-.29.04-.3.05-.37-.06-.73-.12-1.09-.19-1.79-.32-.67-.58-1.03-.87-2.02-.53-4.1-.71-6.29-.38,3.57.47,4.56,1.06,5.46,1.66,1.61.39.92.61-.63.75-1.5.14-3.13.15-5.09-.17-2.31-.39-4.51-.66-5.01-.03,5.23.43,10.58.45,15.74.98,2.03.22,3.12.08,4.18-.09Z"/><path d="m91.92,68.32c-2.89-.42-1.9-.6-.22-.46,5.15.42,1.81-.23.88-.59-.92.23-2.49-.19-3.73-.28.11.24-.87.44-1.61.27-3.7-.88-6.44-.5-9.69-.99-1.78.06-1.84-.2-1.95-.44-1.72-.53-2.2-.34-2.74-.19.15.03.42.08.44.1.65.66,3.1,1.03,5.8,1.33,3.7.42,6.21,1.35,10.07,1.67.1,0,.45.35.68.54l3.99.75,2.12.41.3-.45c-4.56-.54-4.76-1.11-4.33-1.66Z"/><path d="m36.65,60.2c-2.07-.6-2.32-1.07-3.59-1.62-.81-.37-1.61-.76-1.04-.79.44-.03,1.31.3,2.12.52.98.28,2.19.69,2.87.79,1.28.17,3.29.41,3.11.19-.43-.54-2.3-.63-3.52-1.01-.74-.24-1.41-.54-2.1-.81-.85-.54-1.76-.58-2.65-.85-1.51-.34-3.15-.73-2.82-.28,1.29,1.72-3.29.14-7.39-1.39.4.44,2.56,1.17,2.61,1.53,3.42,1.08,6.48,2.56,10.01,3.58,2.51.72,2.04.31,2.39.16Z"/><path d="m77.55,66.27c3.26.49,6,.11,9.69.99.75.17,1.72-.03,1.61-.27-6.54-.79-13.05-1.57-19.57-2.44-3.27-.43-6.68-1.08-9.87-1.78-1.93-.41-3.52-.64-5.23-.88-.7.56,1.53,1.17,4.53,1.46,4.65.49,8.85,1.04,12.6,2.26.52.01,1.04.02,1.55.03.54-.15,1.01-.34,2.74.19l1.95.44Z"/><path d="m159.25,73.57l8.27.19.09-.33c-1.13-.04-2.12-.11-1.94-.32.18-.2,1.32-.17,2.35-.14.39-.15.42-.33.45-.5-2.06.03-3.89,0-4.12-.46-2.63-.25-5.36-.36-8.13-.35-.12.13-.08.27-.39.38-1.37.47-2.48.92,2.93,1.15,1.74.08.64.25.5.39Z"/><path d="m165.32,2.73l-4.17.47v.19s.24.06.24.06l-.22-.06c-1.79-.08-2.67,1.32-5,.38-.35.07-1.05.16-1.01.19.78.63-3.06,1.05-4.36,1.58.23.2,1.16.11,1.99.06,1.07-.37,2.82-.38,4.37-.49,1.15.05,1.81-.75,2.45-.26.68.52,2.55.05,3.61.12,1.79-.47,2.64-.3,3.28,0,1.09,0,2.39.29,3.03-.26l.44-.32c-1.27-.05-1.92-.32-3.7-.18-1.22-.06-.77-.3-.89-.47-5.56-.03.7-.7-.07-.98Z"/><path d="m333.11,62.79c1.77-.08,3.8-.32,5.49-.39,3.48-.09,9.71-1.75,12.21-3.03-2.48.61-5.24,1.27-3.6.4-4.79,1.01-9.59,1.88-14.1,3.01Z"/><path d="m165.39,3.72c-5.56-.03.7-.7-.07-.98,1.1-.19,2.24-.42,1.93-.69,3.16-.26,6.49-.97,9.39-.41.14.03.19.07.14.11-4.13.78-4.42,1.63-4.15,2.46l-2.65.17c-1.27-.05-1.92-.32-3.7-.18.11-.2.13-.39-.89-.47Zm3.27-.82c-.67-.05-1.3.15-1.08.24.43.18-1.65.73,1.53.52,1.58-.19,1.44-.32.28-.41-.23-.12-.22-.32-.73-.35Z"/><path d="m92.8,8c.97-.09,1.81.17,2.87-.25,2.36-.94,2.65-.38,3.47-.19.73-.02,1.68.03,2.17-.06,1.93-.35,3.74-.74,5.21-.4,1.21.27-.42.64-1.57,1.01-2.05.67-3.68.63-5.42.48-1.08-.09-2.87.03-3.72.28-2.91.85-4.28.5-6.07.44,1.02-.44,2.04-.88,3.06-1.32Zm11.62-.51s-.36.06-.38.08c-.04.05.02.09.04.14l.8-.15c-.15-.03-.28-.05-.46-.07Z"/><path d="m296.98,69.33c-4.19.47-8.61.7-12.35,1.48-.94.21-2.29.17-3.25.16-1.72-.01-2.87.15-3.79.45,3.58.17,7.86-.38,11.87-.85,5.19-.62,10.12-.63,15.32-1.58.76-.14,1.69-.25,2.02-.41-1.1-.17-2.91-.03-4.97.4-2.48.5-3.69.46-4.87.34Z"/><path d="m397.9,17.1c.15-.27,1.07.02,2.42,1.18,1.33,1.25,1.22,1.62,1.14,1.9-.06.14,0,.36.08.7.1.34.29.78.41,1.37.19,1.21.22,1.41.28,1.83-.02.39.15.37.38.26.25-.1.45-.35.59-.21.07.08.16-.01.25-.21.1-.2.18-.51.17-.85,0-.17.02-.35,0-.52-.04-.17-.07-.33-.11-.49-.05-.31-.17-.54-.25-.66-.75-1.31-1.96-2.55-3.34-4.02-.67-.75-1.16-1.24-1.21-1.54-.05-.29.3-.32,1.23.06-.52-.51-1.09-1-1.81-1.19.08.5-.81.25-1.94,0-1.13-.26-2.49-.58-3.31-.58.95.53,1.77,1.1,1.72,1.38,1.16.46,2.25.97,3.3,1.58Z"/><path d="m73.2,11.22c-2.77-.07-5.52.13-8.13,1.18-1.51.77-6.4,1.44-7.15,2.27l.46.55c1.8-.1,3.41-.4,4.82-.89.21-.15-.48-.21.59-.43l.38.28c.3,0,.63-.05.98-.12,4.18-.74,3.18-1.62,7.03-2.33.86-.2,1.06-.37,1.02-.52Z"/><path d="m200.72,74.66l-.9-.28c-1.96-.15-4.66-.12-4.41-.71.08-.19-3.92-.85-6.45-.07-.8.24-2.06.32-3.76.28.08.04.11.09.14.13l-.08.49c5.1.25,10.14.61,15.47.16Z"/><path d="m249.61,73.49c.39-.42-1.87-.41-3.7-.4-3.96.02-8.55-.04-12,.31-2.39.25-4,.32-6.34.36-1.41.03-.62.3-.73.46,4.98-.01,9.83.02,15.05-.45,2.26-.19,5.13-.19,7.72-.28Z"/><path d="m131.22,6.3l-1.92.19c-1.01.34-2.4.68-2.13,1.03,5.19-.14,10.69-1.03,15.96-.85,2.13.08,2.73-.71,4.62-1.01-.12-.3-2.15-.38-2.61-.27-3.18.75-5.85.25-8.74.53-1.79,1.24-3.45.08-5.18.37Z"/><path d="m44.29,16.02c-.51.1-1.03.2-1.54.31-.86.6-.83.58.8.37.72-.09,1.68-.18,1.85-.1.61.28-2.26.76-2.66,1.11l2.21-.08c1.12-.2,2.25-.37,3.37-.54,2.22-.67,4.45-1.3,6.68-1.92-4.75.26-4.69.1.74-1.56-2.53-.49-4.25.37-6.01,1.15-1.8.43-2.5,1.54-5.46,1.25Z"/><path d="m21.64,54.93c4.1,1.54,8.68,3.11,7.39,1.39-.33-.45,1.31-.06,2.82.28-.25-.72-2.49-.98-3.7-1.5-1.07.2-1.91.66-6.36-1.64-.73-.38-1.96-.87-2.36-.8-.43.08.49.55,1.48,1l.45.14-.4-.12.69,1.25Z"/><path d="m176.64,1.64c.14.03.19.07.14.11.47.27,3.69-.06,3.11.44.86.46,2.06.32,3.29-.08,1.07-.36,1.99-.75,3.65-.22,1.24-.16,2.14.29,3.29-.03,1.46-.4.23-.69-1.02-.95-4.22.1-8.72-.28-12.45.72Z"/><path d="m239.25.53c1.42.43,4.94.4,5.94,1.1.47.33,4.93-.24,7.35-.49.4-.04.66-.12.98-.18l.03-.54c-3.73-.47-7.22.22-10.91-.04l-2.72.05c-.36,0-.58.04-.67.1Z"/><path d="m315.66,65.42c1.48.22,10.84-.68,13.79-1.38,2.91-.65.99-.65,1.53-.98-1.85.38-3.71.84-5.52.89-.39.02-1.7.16-1.78.19-2.32.82-5.39.86-8.02,1.28Z"/><path d="m386.19,9.89c-1.37-.62-4.34-.5-4.92-1.36-1.41-.61-2.92-.69-4.41-.78-2.53.12-6.39-.65-9.3-.59.55.36.44.7,3.56.72,1.89.02,4.57.44,6.89.79h1.32s.38.17.38.17l-1.63-.15c1.87.47-4.15.56,2.87,1.28.3-.23-.53-.83,2.22-.3.61-.13,3.07.6,3.03.2Z"/><path d="m251.69,72.98c-.06.08.31.15-.58.22,6.31-.24,12.98-.13,18.38-1.42l-.16-.17-4.12.28c-4.49.39-8.99.75-13.52,1.09Z"/><path d="m367.55,7.16c2.92-.06,6.78.71,9.3.59-.24-.65-2.61-.51-3.78-.71-4.53-.78-9.17-.88-13.72-1.13.84,1.11,5.34.89,8.2,1.26Z"/><path d="m293.09,2.12c3.24.19,6.91.1,9.05.94.81.32,2.02.21,2.23-.07.15-.2-.09-.45,1.28-.5.47-.57-2.26-.52-3.7-.61-3.25-.2-6.54-.33-9.82-.49.26.25-.58.49.96.74Z"/><path d="m276.41,3.53c-2.26-.24-4.61-.5-6.24-.04-1.06.3-1.67.08-2.61-.08-3.14-.54-6.26-.63-9.22-.12,2.92.58,6.59.57,10.16.58,2.63.02,5.24.04,7.86.06l.04-.41Z"/><path d="m5.92,32.33c.11-.37.49-1,.41-1.11-.04-.05-.23.01-.6.34-.36.33-.98.88-1.67,1.9-.71,1.06-1.09,1.86-1.41,2.55-.08.18-.15.34-.22.5-.06.17-.11.33-.16.49-.13.32-.18.65-.25.99-.08.35-.18.42-.25.69-.06.26-.08.75.44,1.74.92,1.55,1.03.96,1.1.57.08-.39.23-.64.4-.95-.34-.66-.5-1.35-.58-2.03-.06-.68.05-1.36.25-2.03.47-1.33,1.4-2.58,2.56-3.65Z"/><path d="m204.77.7c-.33.56-.37,1.05,4.1.62l3.13-.41,1.98-.04c.84-.2,2.01-.18,3.15-.18l1.18-.43c.09-.38-1.29-.25-2.39-.2-3.72.18-7.44.39-11.15.64Z"/><path d="m44.96,17.63l-2.21.08c-1.43.32-2.88.78-4.29,1.13-1.41.34-2.79.58-4.08.56-.66-.02-2.41.69-2.29.72.55.11-3.32,1.26-.49.81,4.39-1.26,9.38-1.71,13.36-3.3Z"/><path d="m205.82,2.5c-1.13.18-2.82.56-3.3.52-1.93-.15-.11-.36.55-.57.44-.14-.14-.23-.92-.22-.9.02-1.85.1-1.87.28-.02.27.26.53.42.8,3.77.46,8.03.21,12.26.09l.13-.47s-.06-.1-.04-.15h-1.13c-2.72.23-5.31.45-6.09-.28Z"/><path d="m72.18,11.74c-3.84.71-2.85,1.59-7.03,2.33,2.21.13,4.45.19,7.18-.91.3-.17.47-.42.92-.5,6.77-1.16,1.72-.82.08-.88-.15.15.06.3-1.16.45l.2-.34c-.07-.05-.13-.1-.18-.15Z"/><path d="m10.95,50.1c-.64-.77-1.95-2.03-3.66-2.85-1.63-.8-3.63-2.49-5.04-4.63-.71-1.06-1.25-2.23-1.57-3.35-.33-1.12-.41-2.15-.57-2.93-.3,1.8.1,3.68.86,5.16.76,1.51,1.79,2.71,2.88,3.76,2.2,2.06,4.64,3.57,7.11,4.83Z"/><path d="m93.83,70.03l-3.99-.75-2.09-.37c-.04.43-1.77.2-3.47-.03-3.92-.87-7.64-1.27-11.21-1.26.31.23,1.37.56,2.1.6,6.06.36,12.74,1.82,18.66,1.8Z"/><path d="m367.41,9.73c-.15-.62-.8-1.12-4.81-.92-2.99.15-6.64-1-9.54-.61,4.22,1.17,9.46,1.15,14.35,1.53Z"/><path d="m225.8,72.03c1.4.49,4.14.79,7.15,1-.61-.5.93-.97,2.97-1.42-2.11-.2-3.98.08-5.92.24-1.03.44-2.73.2-4.21.19Z"/><path d="m323.02,3.25c3.57.92,11.1,1.43,15.67.93-4.44-.64-8.95-.65-13.43-.94-.14.36-1.22.17-2.25.02Z"/><path d="m113.48,6.69c1.2-.13,2.03-.3,1.98-.54h-1.34s-.31-.18-.31-.18l.99-.02.83.15c1.24-.11,1.82-.28,1.9-.5-3.79.26-7.13-.05-11.28.71.43.63,3.96.35,6.32.44.3-.02.61-.04.91-.07Z"/><path d="m58.99,65.02c-4.7-.85-9.35-1.78-13.45-2.16,1.5.67,2.96,1.12,5.37,1.29,3.06.22,6.7,1.26,10.04,1.68l-.12-.42c-.6-.13-1.22-.26-1.84-.39Z"/><path d="m281.58,2.79c4.26.04,6.58-.62,5.23-1.51l-4.16-.15c.62.43-2.46.53-1.87.96,1.2.23.69.47.8.71Z"/><path d="m55.02,15.18c-2.24.61-4.47,1.25-6.68,1.92,3.48-.36,6.93-.72,10.05-1.87l-.46-.55-2.9.51Z"/><path d="m172.63,4.21l-2.65.17-.44.32c3.87-.11,7.82,0,11.39-.73-1.17-.26-3.55-.3-4.01-.7-.74.11-1.37.2-2,.29-.15.27-.24.54-2.28.65Z"/><path d="m276.41,3.53l-.04.41,5.15.16c1.07-.4,1.01-.84.05-1.31-2.52-.12-1.91-.44-1.95-.73-.39-.16-.96-.31-1.94-.27-1.14.05-.47.24-.27.38.77.52,2.25,1.06-1,1.36Z"/><path d="m128.94,4.82l.03-.39c-3.53.24-7.43,0-10.35,1.07.55.3-.16,1.08,3.68.02,1.67-.45,4.66-.18,6.64-.7Z"/><path d="m96.25,69.98l-.3.45c3.97.72,7.63.72,11.35.84l-1.91-.5c-2.04-.32-2.05-.66-2.31-.99-.28-.03-.56-.07-.84-.1-.07.65-.74,1.15-6,.29Z"/><path d="m141.69,71.36c2.73.12,5.47.23,8.19.35,1.77.08,3.1.12,3.29-.21-3.63-.56-7.7-.33-11.48-.64-.02.16-.03.33,0,.5Z"/><path d="m105.4,70.78l1.91.5c2.93.47,5.97,1.09,8.44.54-2.64-.42-5.41-.76-8.37-1.09-1.4-.15-1.89-.16-1.98.05Z"/><path d="m194.36.94c.12.05.15.12.36.16,1.49.26-4.18.89.12.87,3.1-.02,5.08-.63,4.79-1.26-1.82-.05-3.76-.3-5.27.23Z"/><path d="m296.98,69.33c1.18.12,2.39.16,4.87-.34,2.06-.43,3.87-.57,4.97-.4.72-.12,1.66-.21,1.91-.38-.62-.07-1.23-.14-1.85-.21-3.23.28-6.39.79-9.6,1.14l-.31.2Z"/><path d="m347.21,59.78c-1.64.86,1.12.21,3.6-.4,1.84-.41,2.96-.8,3.69-1.18l-.13-.29c-2.33.67-4.65,1.36-7.16,1.87Z"/><path d="m213.27,74.23c-3.76.19-8-.05-11.34.44,3.77.36,7.55-.08,11.32-.12l.02-.32Z"/><path d="m19.14,24.95c-.5-.55-1.66-.14-2.99.5-1.34.63-2.73,1.65-3.88,2.14.27.17-.2.81,2.43-.65.65-.38,1.39-.71,2.15-1.03.76-.32,1.53-.65,2.29-.96Z"/><path d="m198.62,3.41c-.37-.27,0-.72-2.34-.64-3.16.11-1.25.72-3.06,1.01,2.53.44,3.6-.24,5.4-.37Z"/><path d="m312.53,5.14c1.54-.04,3.09-.09,4.63-.13-2.9-.23-3.06-.65-3.45-1.06-.23-.24-.9-.46-2.29-.53-.52-.03-1.33.02-1.5.09-.47.21.65.32,1.54.46,3.19.51-2.61.59.16,1.09.29.04.6.07.92.09Z"/><path d="m353.01,59.95c-1.96.68-4.88.52-6.27,1.61.95.21.97.28,6.27-1.61Z"/><path d="m227.63,2.28c2.73.14,2.55.59,3.16.96,2.13.02,4.48.29,6.21-.17l-.07-.22c-1.53-.1-4.22.09-4.47-.28-.55-.82-2.73-.47-4.84-.29Z"/><path d="m221.29,3.34c1.32-.61-1.83-.71-3.32-1l-1.62.38-1.27.78c2.13.08,4-.4,6.21-.16Z"/><path d="m12.02,48.16l.26-.45c-1.56-1.09-3.06-2.2-4.75-3.34-.14.21-1.01.11,1.31,1.75,1.78,1.19,2.56,1.8,2.29,2.1.89.37.73.05.88-.05Z"/><path d="m235.93,71.6c-2.04.45-3.58.92-2.97,1.42,2.11-.41,5.2-.73,5.62-1.27l-.43-.25-2.23.1Z"/><path d="m293.09,2.12c-1.54-.24-.7-.49-.96-.74l-3.1-.21c-.51.61-.6,1.2,4.08,1.52l-.02-.58Z"/><path d="m60.84,65.41l.12.42c1.99.34,3.72.51,5.21.5-1.09-1.39-3.24-1.1-5.33-.93Z"/><path d="m290.86,68.22c0,.09-.19.21.02.27.59.17-2.33.89.87.58,2.83-.27.35-.42.74-.67.11-.07,1.05-.19,1.61-.29-.71-.1-1.34-.23-3.23.11Z"/><path d="m225.8,72.03c1.47.01,3.17.25,4.21-.19l-2.27-.03c-.86.04-1.59.03-1.99-.09l-4.2.23.88.15,3.37-.07Z"/><path d="m391.82,20.87s-.1-.02-.07.06c.14.37-1.09-.61.65,1.27.55.66,1.8,1.81.9.36-.46-.6-.97-1.14-1.48-1.69Z"/><path d="m136.47,71.59c.09-.31,2.71-.33,2.1-.72l-3.17-.15c.36.29-.76.56,1.06.87Z"/><path d="m394.6,15.52c.05-.28-.76-.85-1.72-1.38-4.3-1.39.77.78-.47.56.16.12.4.23.7.33.42.15.83.32,1.24.49.26.09.34.09.25,0Z"/><path d="m237.78.7l2.07-.17c-.91-.42-3.43-.32-5-.5l-.11.37.08.38c.56.02.99.02,1.41.01.16-.21.86-.15,1.55-.09Z"/><path d="m24.25,56.46c-.05-.36-2.21-1.09-2.75-1.56l-1.6-.49,1.15.74c.98.52,2.05.97,3.2,1.31Z"/><path d="m166.51,4.97c-.64-.3-1.48-.47-3.28,0,.88.14,1.26.61,3.28,0Z"/><path d="m184.13,74.03l-3.27.13c-.16.43,1.65.36,3.26.32v-.45Z"/><path d="m157.16,5.11c-1.54.11-3.29.13-4.37.49,2.25.25,3.42-.06,4.37-.49Z"/><path d="m382.91,14.18c.84.61,1.87,1.22,3.06,1.88-.95-.65-1.36-1.31-3.06-1.88Z"/><path d="m222.43,72.1l-.88-.15-2.07.04.09.16c.94.16,1.89.16,2.86-.05Z"/><path d="m251.35,3.06s.02-.07.14-.1c-.15.02-.3.04-.48.04-.1.13-.2.27-.3.4l.64-.35Z"/><path d="m225.75,71.72c.4.12,1.13.12,1.99.09.02-.26-.66-.29-1.99-.09Z"/><path d="m285.57,4.27c-.11-.14.09-.34-1.06-.35-.84,0-.69.15-.07.26l1.14.09Z"/><path d="m234.74.4l.11-.37c-1.07.06-1.81.18-2.15.37h2.04Z"/><path d="m239.93.43l2.72-.05c-1.14-.25-2.06-.24-2.72.05Z"/><path d="m141.64,71.35l.05-.49c-.68-.07-1.04-.04-1.08.07.09.15-.43.31,1.03.42Z"/><path d="m64.18,14.18l-.38-.28c-1.07.22-.38.29-.59.43.33-.02.66-.07.97-.15Z"/><path d="m323.03,3.25c1.02.15,2.11.35,2.25-.02-.94-.1-1.87-.21-2.25.02Z"/><path d="m394.35,15.52c-.41-.17-.81-.35-1.24-.49.23.16.45.33.67.5h.57Z"/><path d="m297.28,69.13c3.2-.35,6.37-.85,9.6-1.14,1.11-.14,1.59-.29,1.67-.43l.09-.42c-1.77.2-2.37.14-1.76-.14.28-.14.68-.31-.49-.2-.34.03-.88.12-1.33.2s-.82.16-.81.18c.28.56-4.41,1.1-6.2,1.63-.37.11-.51.21-.76.32Z"/><path d="m363.48,56.66c1.06-.3,2.12-.6,3.17-.93,1.04-.35,2.04-.78,3-1.28-3.48,1.27-.81-.22-3.28.57-1.33.37-2.66.77-3.99,1.12.59.12,2.76-.37,1.1.53Z"/><path d="m253.88,71.4c-1.76-.17-4.03-.09-6.39.02.08.17-.24.39.34.48.78.12-2.32.52.5.41,1.95-.08,1.56-.31,1.34-.49-.1-.09-.13-.4,1.16-.16,2.35.43,1.83-.3,3.05-.27Z"/><path d="m328.25,64.92c1.03-.14,2.07-.26,3.1-.41.37-.22,2.98-.82.63-.56-2.48.28-3.27.63-3.73.97Z"/><path d="m320.88,65.95c-.89.21-1.69.48-1.13.48,1.69,0,3.54-.6,5.36-.85-.22-.34-2.58.15-4.23.37Z"/><path d="m265.21,71.89l4.12-.28c-.24-.24-1.55-.28-3.19-.14-1.27.11-.84.28-.92.42Z"/><path d="m219.46,72.6c-.29.02-.58.03-.89.04l-.11.29c1.26-.05,2.79-.01,3.35-.29l-2.35-.05Z"/><path d="m332.15,64.35c.48.21,1.91-.13,3.36-.48l-.15-.23c-1.08.24-2.14.48-3.21.72Z"/><path d="m312.22,66.13c-.23,0-.44.01-.65.01l-.57.2c.27-.02.58-.03.79-.07.2-.03.29-.1.43-.15Z"/><path d="m257.07,71.22l-2.4.13c.31.06.54.19.94.18,1.17-.03,1.14-.19,1.46-.31Z"/><path d="m319.91,65.73l1.03.1c1.52-.44.3-.28-1.03-.1Z"/><path d="m335.35,63.63c.55-.11,1.36-.25,1.33-.36,0-.02-.41,0-.61.05-.93.19-.65.22-.72.31Z"/><path d="m308.64,67.15l-.09.42c1.31-.3,1.41-.45.09-.42Z"/><path d="m280.47,69.81c.02.06.19.05.33.04-.03-.06-.19-.05-.33-.04Z"/><path d="m216.35,72.97l-.04.16,2.14-.2c-.68.01-1.39.02-2.09.04Z"/><path d="m316.81,66.3l-.24-.02c.09,0,.18,0,.24.02Z"/><path d="m336.01,63.76l.32.08c.87-.25.68-.26-.32-.08Z"/><path d="m295.02,2.97c-1.27.24-3.25.41-1.83.93.61.22,1.34.43,2.63.51,1.92.12,2.15-.14,2.42-.37-.98-.34-1.47-.67-.6-.97.4-.14.31-.3-.82-.37-1.36-.09-1.58.1-1.8.27Z"/><path d="m383.16,9.69c-2.76-.53-1.92.07-2.22.3,1,.23,2.45.41,2.51.8.03.2.95.63,1.85.79.92.17,1.81.17,2.18.08.62-.16-1.17-.5-1.7-.71-1.03-.44-1.76-.85-2.62-1.26Z"/><path d="m329.91,5.79c1.83,1.02,5.34.93,8.66.97-2.39-.65-5.11-1.08-8.66-.97Z"/><path d="m327.34,5.67l1.07.03c.18-.04.3-.1.56-.11,2-.09,3.35-.25,1.32-.8-.53-.14-2-.36-1.76-.16.57.47-5.99.19-1.19,1.04Z"/><path d="m304.43,4.67l2.99.25c.04-.25,2.56-.47-.09-.75-1.96-.21-3.35.06-2.9.5Z"/><path d="m318.58,5.11l3.3.69c-.07-.22,1.74-.35.23-.63-1.2-.22-2.52-.2-3.52-.06Z"/><path d="m376.69,9.43c-.59-.17-.93-.31-1.29-.35-.38-.05-.76-.03-1.14-.04.31.1.58.23.93.29.36.06.8.05,1.49.1Z"/><path d="m324.12,5.93l2.89.05c.14-.01.28-.03.42-.05l-.12-.19c-1.29-.03-3.19-.22-3.19.19Z"/><path d="m301.78,4.56c.84.2,1.69.41,2.58.12l-2.58-.12Z"/><path d="m370.38,9.53c-.29-.07-.43-.06-.58-.05.1.03.21.06.58.05Z"/><path d="m19.15,22.2c-1.1.39-2.37.9-2.93,1.38-.13.38-1.07.75-2.08,1.26-1.01.5-2.15,1.02-2.69,1.5-.4.35-2.26.74-2.72,1.52-.28.46,1.33-.27,2.36-.59,1.05-.36,1.84-.66,3.11-1.51.79-.55,1.71-1.02,2.64-1.41.93-.39,1.87-.67,2.78-.66,1.08,0,2.7-.9,3.7-1.32,1.73-.78.23-.47-.88-.29-1.73.33-3.45.67-3.3.13Z"/><path d="m12.02,48.16c-.16.11,0,.42-.88.05-.32.08-2.5-1.27-1.61-.32.31.34,1.12.98,1.71,1.3,1.98,1.07.85.03,1.37.11.29.04.53.03.92.15.78.23,2.9,1.17,2.22.58-.78-.67-2.44-1.07-3.73-1.88Z"/><path d="m5.51,44.4c-.14-.18-.28-.33-.4-.51l-.54-.32c.17.21.36.46.52.61.15.13.27.15.42.22Z"/><path d="m38.31,16.95l1.01-.23c-.33.07-.68.15-1.01.23Z"/><path d="m394.49,35.24c.08-.08.15-.12.26-.3.05-.09.12-.22.2-.41.06-.19.12-.45.2-.78-.13.15-.31.77-.66,1.49Z"/><path d="m83.55,9.52l-2.11.24c0,.23.53.51-.11.69-1.12.3-2.13.55-1.71.78.21.11.82-.03,1.07-.13.88-.36,3.94-.66,3.06-1.06-.29-.13-.14-.34-.2-.52Z"/><path d="m89.74,9.32c-.67-.09-.74-.34-2.22-.19-.21.02-.71.22-.65.27.33.26,1.74.03,2.87-.08Z"/><path d="m113.48,6.69c-.3.02-.61.04-.91.07.01.14-.16.32,1.03.23l-.12-.29Z"/><path d="m72.37,11.88l-.2.34c1.22-.16,1.01-.3,1.16-.45l-.96.12Z"/><path d="m77.33,10.66l.4.19c.98-.27-.05-.17-.4-.19Z"/><path d="m366.38,55.02c2.47-.79-.2.7,3.28-.57,1.27-.45,2.1-.94,2.71-1.3,1.29-.78,2.86-1.71.22-.88-1.04.32-1.82.6-2.43.85-.62.23-1.07.45-1.46.66-.77.41-1.28.82-2.32,1.24Z"/><path d="m381.99,47.4c-.63.4-1.48.85-2.14,1.23-.66.39-1.16.64-1.01.78.09.09.75.02,2.16-.93,1.4-.87,3.3-2.36,3.3-2.52.01-.31-1.62,1.08-2.31,1.44Z"/><path d="m381.04,48.98c1.08-.49,1.8-.75,2.51-1.21.91-.58,2.51-1.69,2.44-1.91-.03-.11-.67.21-1.61.86-1.02.7-1.98,1.41-3.34,2.27Z"/><path d="m391.74,39.55c.14-.06.24.01.9-.84.19-.28.23-.48.34-.71l-.59.8-.65.75Z"/><path d="m377.18,50.56c.28-.19.09-.1-.09,0h.09Z"/><path d="m390.33,40.91l.33-.33.33-.33c-.26.19-.48.4-.65.67Z"/><path d="m255.62,2.67c-.21-.31-1.29-.44-2.8-.38-1.92.09-1.17.43-1.36.67,1.87.07,1.95-.51,4.16-.29Z"/><path d="m279.62,2.06c.04.28-.56.61,1.99.74-.15-.24.37-.48-.84-.71l-1.15-.02Z"/><path d="m255.64,2.67l.23.08c-.08-.03-.17-.05-.23-.08Z"/><path d="m58.99,65.02l1.86.39c-.31-.19.69-.26-.8-.54-.85-.16-1.09-.01-1.05.15Z"/><path d="m84.29,68.88c1.69.23,3.43.46,3.47.03-1.27-.04-2.69-.17-3.47-.03Z"/><path d="m227.63,2.28c2.11-.17,4.29-.52,4.84.29.25.37,2.94.18,4.47.28-.84-.43-1.5-.86-2.55-1.27-2.24-.87-6.37-.95-9.73-.22-.42.09-.63.24-1.14.28-1.92.19-2.04.83-.13,1.05q.8.1,1.25-.31c.21-.19.15-.44,1.6-.46.44,0,.94.22,1.41.34Z"/><path d="m211.91,2.78h1.13c1.99-.69-1.12-1.23-1.03-1.87l-3.13.41c-.29.58,3.86.83,3.03,1.46Z"/><path d="m217.14.69c-1.14,0-2.31-.02-3.15.18.03.03,0,.07.11.08,1.4.19,1.15.82,2.87.69,2.53-.19-.3-.62.18-.95Z"/><path d="m222.69,1.21c.3-.06.65-.1.62-.13-.09-.1-.32-.2-.5-.3-.14.05-.38.11-.39.16,0,.08.15.17.26.27Z"/><path d="m237.78.7c-.69-.06-1.39-.12-1.55.09.66.03,1.57.21,1.55-.09Z"/><path d="m234.82.78l-.43.1c.19-.03.38-.05.43-.1Z"/><path d="m55.02,15.18l2.9-.51c.75-.83,5.64-1.5,7.15-2.27-.2-.22.17-.6-2.17-.22,1.05.19-.63.62-1.69.91-1.29.34-1.96.18-2.49.07l-2.96.46c-5.43,1.66-5.49,1.82-.74,1.56Z"/><path d="m58.72,13.16c.53.11,1.19.27,2.49-.07,1.06-.29,2.74-.72,1.69-.91-1.6.27-3.6.44-4.17.98Z"/><path d="m44.29,16.02c2.96.29,3.65-.81,5.46-1.25-2.29.1-3.91.63-5.46,1.25Z"/><path d="m38.29,16.96l1.05-.24c-.39-.09-.74-.01-1.05.24Z"/><path d="m172.63,4.21c2.04-.11,2.13-.38,2.28-.65-.33-.35.75-.32,1.89-.27.62-.4.15-.84,3.09-1.09.58-.49-2.64-.17-3.11-.44-4.13.78-4.42,1.63-4.15,2.46Z"/><path d="m205.79,2.5l1.31-.09c-.74-.15-.92.02-1.31.09Z"/><path d="m168.38,72.98c-.5.13-.64.29-.78.44,2.1.04,4.19.08,6.28.13,1.88.03,1.93-.19,2.01-.4-1.12-.05-2.49-.02-3.16-.25l-4.35.08Z"/><path d="m197.71,72.82c-.04-.16-.15-.34-1.3-.37-.52-.01-1.21.13-1.82.2.74.19,1.97.17,3.12.16Z"/><path d="m172.73,72.9c.66.23,2.03.2,3.16.25-.64-.24-1.92-.24-3.16-.25Z"/><path d="m185.2,73.88c0-.09.99-.17.06-.27-.1-.01-.39,0-.48.01-.6.11-.25.19.42.26Z"/><path d="m131.22,6.3c1.74-.28,3.4.87,5.18-.37.23-.81-3.52-.12-5.28-.17.04.18.07.36.09.54Z"/><path d="m152.91,4.25l-.42.07c.13-.02.26-.04.42-.07Z"/><path d="m131.13,5.76l-.23-.06c.08.02.16.04.23.06Z"/><path d="m216.35,72.97l2.11-.03.11-.29c-1.48,0-2.2.11-2.23.33Z"/><path d="m96.25,69.98c5.26.86,5.93.35,6-.29l-1.07-.82c-3.88-.83-6.18-.37-9.25-.55-.44.55-.23,1.12,4.33,1.66Z"/><path d="m146.54,72.17l.45.04c0-.08-.19-.09-.45-.04Z"/><path d="m327.01,5.98l.73.11c-.11-.05-.21-.11-.32-.16-.14.02-.28.03-.42.05Z"/><path d="m136.44,71.59c.36.06.72.12,1.09.19,0,0,.2-.03.3-.05-.45-.05-.9-.09-1.39-.14Z"/><path d="m77.55,66.27l-1.95-.44c.11.24.17.49,1.95.44Z"/><path d="m167.6,73.42c.14-.15.28-.31.42-.46-1.03-.03-2.17-.06-2.35.14-.18.21.81.28,1.93.32Z"/><path d="m166.28,4.19c.11-.2.13-.39-.89-.47.12.18-.33.41.89.47Z"/><path d="m161.17,3.39l.22.06c-.08-.02-.15-.04-.22-.06Z"/><path d="m169.39,3.26c-.23-.12-.22-.32-.73-.35-.67-.05-1.3.15-1.08.24.43.18-1.65.73,1.53.52.09-.14.19-.27.28-.41Z"/><path d="m169.39,3.26c-.09.14-.18.27-.28.41,1.58-.19,1.44-.32.28-.41Z"/><path d="m104.88,7.57c-.15-.02-.28-.05-.46-.07-.02,0-.36.06-.38.08-.04.05.02.09.04.14l.8-.15Z"/><path d="m20.95,53.68l.4.12c-.15-.05-.3-.1-.4-.12Z"/><path d="m378.07,8.7l1.63.15-.38-.18c-.44,0-.88,0-1.25.03Z"/><path d="m114.12,6.15h1.34c-.1-.09-.38-.14-.66-.2l-.68.2Z"/><path d="m176.8,3.29c-1.14-.05-2.22-.08-1.89.27l1.89-.27Z"/>
                  </g>
                </mask>
              </defs>
              <path class="mask" d="m400.29,27.49c6.05-3.85,2.82-9.56-4.48-12.93-8.71-4.02-20.4-5.71-27.5-6.35C249.37-2.49,166.41,3.69,166.41,3.69c-21.62,1.15-123.65,6.86-154.42,23.02-2.77,1.46-9.18,4.91-10.06,9.73-1.77,9.63,19.83,17.32,28.53,20.42,62.08,22.09,299.43,24.54,351.78-9.21,4.39-2.83,15.94-10.28,13.22-19.77-3.61-12.6-29.96-20.44-38.06-22.68"
                    mask="url(#path-mask)" stroke="black" stroke-width="2" fill="none"
                    stroke-dasharray="884.23583984375" stroke-dashoffset="884.23583984375">
              </path>
            </svg>
        