
            <svg xmlns="http://www.w3.org/2000/svg">
              <defs>
                <mask id="path-mask">
                  <g fill="white">
                    <path d="m231.48,1.7c.91-.15.33-.45.51-.68l.66.1c.54.21,1.17.35,1.68.61,1.05.53,3.01.29,3.84-.35.58.05.94-.06,1.18-.25.77.17,1.9-.23,2.5.2.17.28.84.54.28.86-.4.21-.84.32-1.5.14-.54-.15-1.03-.12-1.33.14h-.51c-.63.16-1.49-.66-1.97.09-.2,0-.57-.03-.57-.03-.49.65-1.65.37-2.66.31l-.02-.17c.27-.08.22-.12-.09-.14-.05.01-.1.01-.16.01l-.04-.25c.17-.02.42.01.42-.1,0-.02-.12-.07-.19-.07-.29,0-.21.1-.24.16l-.99.13c-.08,0-.16.01-.25.01.12-.14.94-.27.21-.42-.76-.16-1.02.08-1.17.31-.14.24-.46.29-.98.14-.05-.35-.79-.22-1.3-.26l.02-.11c.48-.19.1-.22-.31-.24-.56-.23-.61.12-.96.13l-.07-.05.08.04c-.03.2.18.46-.83.38-.63-.05-1.17.03-1.06.35l-.63.04-.56-.4c.34-.01.49-.09.52-.21.41-.12.44-.24.04-.37-.54-.02-.73-.12-.53-.32.09-.09.22-.21-.14-.23-.21-.01-.67.08-.66.12.07.52-1.37.55-1.93.85-.11.06-.16.14-.24.21l-.1.15c-1.29.03-2.64-.13-3.79.27-.29.1-.7-.02-.99-.09-.53-.13-.88-.07-1.16.12l-2.48-.2-.05-.16c-.07-.22-.47-.32-.97-.29-.39.02-.26.19-.29.3-1.38.09-2.75.19-4.2.24l.06.05c-.02.06.09.14-.18.16-.08.09-.11.19-.46.18.12-.33-.57-.41-1.13-.46-1.21-.12-2.61-.3-3.67-.1-.73.14-1.22.16-1.94.15-.43,0-.19.22-.22.35l-4.15.05v-.24c.28-.14.21-.28.07-.43-.23-.27.12-.4.86-.39l.65-.13c.39-.02.86.03,1.03-.18l-.72-.07c-.09-.12-.52-.24.03-.35.29.13.58.15.88,0h1.03c.43.4,1.27.67,2.19.92.65-.27,1.59-.46,1.72-.87.91.05,1.81.13,2.73,0,.02.14-.08.31.1.4.24.13-.71.34.15.35.6,0,.48-.2.41-.36-.03-.07-.04-.33.35-.09.72.45.56-.18,1.18-.1.09.06.16.18.29.18.36.02.35-.11.45-.2,1.16.03,2.28-.19,3.52.01.64.11.98-.27,1.17-.51l5.69-.02c0,.08-.06.17,0,.24.18.2-.73.58.25.59.87,0,.12-.34.24-.53.04-.05.32-.08.5-.12,1.6-.29,3.33-.26,4.99-.26.48,0,1.27-.33,1.66.06.44.36,3.32.8,4.24.65Zm-5.51-.47l-.18.12c.08.01.18.04.24.03.06,0,.09-.05.14-.09-.07-.02-.13-.04-.2-.06Zm-9.44.47s-.09-.01-.13-.02c0,.05.06.05.13.02Z"/><path d="m23.18,3.15c-2.13.13-4.22-.1-6.33-.13-.28-.67-1.64-.3-2.52-.39-.18-.2-.15-.44-1.1-.25-.57.12-1.4.06-2.13.08-.59-.09,1.23-.82-.93-.48-.32-.02-.76.06-.8-.17-.02-.12-.33-.26-.61-.22-.29.04-.55.18-.65.3-.17.2.38.11.55.16.34.11.58.27.86.4-.17.16-.95.07-.91.32-.47-.36-2.14.12-2.13-.38,0-.25.68-.53.97-.83.3-.31,1.58-.37,2.6-.32.46.03.89.14,1.35.15.44.02.98.22,1.3.03.35-.2-.87-.12-.65-.36.7-.17,1.44-.24,2.25-.09.06.39.27.68,1.49.35.91-.25,2.04.3,2.92-.09h.34s.64.12.64.12c1.07.42,2.22.5,3.48.14.74.32,1.58.48,2.66.26h.46c-.06.03-.09.07-.17.09-.61.14-1.02.3-.39.57.16.07.61.15.54.03-.18-.28,1.83-.37.36-.76.4-.04.98.02.97-.25h.69c.02.16-.53.3-.06.43.37.1.77.04,1.08-.08l.43.02c.89.05.94.31,1.07.57.07.15.28.26.71.26.16,0,.41-.06.46-.11.14-.15-.2-.19-.48-.25-.98-.22.79-.47-.06-.69.21-.24.76-.22,1.28-.22v.17c0,.16-.77.39.04.48.6.07,1.02-.14.9-.41h.79s1.09.25,1.09.25c.3.19.45.39.19.61-.12.1-.09.2.25.22.42.02.48-.1.55-.22l.59.12v.37c-.98-.04-2.1.11-2.76-.37-.25-.18-.62-.08-.68.1-.04.13.03.28-.39.36-1.72.32-3.49.34-5.31.09-1.1-.48-3.41-.46-4.8.04Zm-11.29-1.19c.12,0,.23-.05.35-.08-.1-.04-.19-.1-.29-.1-.11,0-.24.04-.46.08.18.05.3.1.4.1Z"/><path d="m127.03,2c.83-.1,1.21.13,1.64.33.21.1.07.39.73.28.53-.09.41-.29.31-.47-.1-.17-.15-.35-.22-.52l1.95-.06c0,.18-.22.43.67.4.67-.02.97.09.95.34-.07.14-.85.17-.47.38.14.07.44.15.65.14.68-.03.23-.25.38-.38.08-.07.15-.15.27-.21.24-.11.96-.18.69-.33-.31-.17-.82.1-1.29.07v-.34c1.85-.09,3.64.01,5.41.21-.29.38-.48.81-2,.5-.25-.05-.66-.03-.76.12-.11.16.2.2.55.23.11.19.23.39.3.6l-.5.1.41.16c-1.2.24-2.33.18-3.39-.12-.28-.23-.82-.5-1.37-.27-1.06.44-2.97-.23-3.68.48-1.03-.18-2.12-.05-3.17-.07.04-.42-.77-.48-1.45-.36-.6.11-.96.07-1.42-.04.16-.37,1.23-.11,1.65-.34.16-.09.7.28.94.01.15-.16-.38-.31-.71-.44-.33-.13-.6-.16-1.06-.02-.58.17-1.26.29-1.78-.09-.31-.23-.87-.06-1.2.03-.58.15-.11.25.23.35.53.16,1.06.34.96.64l-.34.11c-.6-.47-1.75-.29-2.72-.34-.38-.02-1.25.15-1-.3.06-.11-1.12.07-1.15.19-.07.25-.39.23-.82.23h-.32c-.59.09-1.29.27-1.05-.21.3-.27.29-.26-.21-.35-.22-.04-.51-.1-.56-.18-.17-.26.72-.18.86-.36.9-.05,1.85-.32,2.61.13.2.12.77-.06.73-.09-.16-.17,1.08-.24.21-.43.04-.12.13-.14.49-.12,1.17.06,2.35.25,3.55.03.17.89,1.51.18,2.29.24.9,0,1.57-.33,2.52-.25-.22.24-.91.59.69.4Zm3.74.39l-.18.11c.08.01.17.04.24.03.06,0,.09-.05.14-.08-.07-.02-.13-.04-.2-.06Z"/><path d="m262.02,2.39c1.13-.21,2.52.13,3.56-.28.93.5,2.34.07,3.44.21.31.04.43.02.65-.05.68-.2.84-1.21.08-1.33-.8-.12-1.05-.31-1.26-.59-.21-.29-.61-.58-1.36-.09-.08.05-.39.11-.53.1-1.3-.17-2.56.09-3.84.11-2.96.04-5.91.15-8.87.24v.27c.26,0,.46,0,.52.12.44-.06.96-.13,1.33-.13.87-.02,1.95-.29,2.64.09.42.22,3.43.61,4.04.46.1-.03.21-.1.19-.14-.15-.37.42-.2.68-.12.31.09.51.24.78.35.15.06.63-.04.59.1-.03.09-.3.17-.67.21-.78.07-1.87,0-1.97.49Z"/><path d="m94.23,3.63c.77-.08,1.69-.02,2.2-.34-.22-.04-.51-.13-.66-.11-.6.09-1.16.23-1.59-.08-.36-.25.15-.39.51-.56.64-.3,1.14-.16,1.66.05.33.13.87.18,1.14.08.91-.35,1.32-.02,1.86.16.35.02.79-.03.87.16.02.04-.14.13-.21.13-.46-.01-.47-.18-.67-.29l-.98.62c.64.5,1.48.18,2.26.08-.02-.17.03-.32.6-.35,0-.12.04-.24-.04-.35-.25-.33.69-.28.97-.44.08-.04.27-.08.33,0,.12.18-.2.26-.55.36-.2.06-.05.28-.06.43.31-.17,1.2.1,1.29-.24-.11-.04-.43-.07-.12-.16l.11.16c.45.08.18.39.74.38.2,0,.36-.24.54-.38,0-.1.06-.19.33-.24-.01-.04-.03-.07-.05-.11h-.3c-.49-.2-2.04-.41.06-.57.14-.01.2-.16.3-.24-.91,0-1.85.19-2.67-.18-.1-.04-1.32.25-2.13.27-.22.15-.5.17-.99.19-1.43.05-2.92-.27-4.28.09-.55-.37-1.53.05-2.11-.16-.57-.2-1.02-.26-1.73-.08-.96.25-1.37.06-1.39-.32l-1.57.04c.07.24-.36.39-.68.56.72.31,1.47.62-.06.91-.2.04-.07.14.13.19.62-.24,1.52.1,2.04-.1,1.2-.47.96,0,1.12.22h.33c.03-.14.21-.22.59-.22.04-.18.3-.24.67-.25l-.03-.2c.37.02.31.12.31.21.71.2,1.79.24,1.91.68Z"/><path d="m244.12,2.16c.41,0,.7-.09.91-.21.45-.25,1-.49.15-.77-1.33-.44-1.38.24-2.07.36l-1.27-.2c-.6-.43-1.73-.04-2.5-.2l-.02-.31c.73.03,1.58-.33,2.13-.06.7.33,1.41.24,2.22.16,3.18-.31,6.38-.31,9.59-.21.06.15.06.29-.34.38h-.62s-.32-.12-.32-.12c-.1-.06-.19-.07-.29,0-2.02.09-2.3.23-1.53.75.02.02.03.04.05.05,1.78-.35,2.28.7,4.02.48.73-.09,1.69-.13,1.89.32-.48.01-1.01.38-1.17.19-.31-.36-.81-.17-1.29-.17-1.74,0-3.44-.03-5.22.05-2.54.12-5.17-.02-7.77.07-.52.02-1.34.13-1.39-.25.3-.26.79-.29,1.33-.14.66.18,1.1.08,1.5-.14.67.11,1.34.25,1.99-.04Zm3.18-.88c.02.13.2.36.72.29.5-.08,1.24-.26,1.26-.4.05-.29-.6,0-.83-.06-.46.04-1.19-.21-1.15.18Zm1.5,1.07c.33,0,.91,0,.93-.23.01-.13-.21-.25-.55-.23-.38.01-.74.09-1.22.15.36.14.58.3.84.31Zm-1.95-.84h-.19s.03.04.03.04c.14,0,.15-.02.17-.04Z"/><path d="m40.32,3.33c.79-.1,1.41-.06,2.3.06,1.29.18,2.91.06,4.37.03.74-.02,1.52.14,2.21-.06v-.35c-.15-.16-.57-.41-.07-.47,1.47-.17,1.28-.8,2.3-1.07-.54,0-1.02.08-1.45.2-.05,0-.1.01-.14.03-.06.16.17.37-.42.44-.46.06-.79-.01-.86-.21l-.08-.05.07.05c.68.12.71-.26,1.27-.23.04-.02.05-.04.04-.06-.64-.37-1.44-.01-2.14-.07-.9.36-1.86.34-2.82.02-.29-.09-.48-.22-.8-.01-.5.33-1.22.21-1.91.09-.99.25-.54.58-.3.89.06.08.27.2-.08.25-.3.04-.47-.04-.59-.14h-.35c.18.27-.76.39-.56.66Z"/><path d="m150.82,3.27c.63.2,1.28.36,2.14.19,1.08-.35,2.22-.41,3.44-.12.23-.16.66-.19,1.05-.26l.65.1c-.08-.11-.2-.32-.23-.32-1.18.08-1.98-.36-3.11-.32-.83.03-1.59.01-1.81-.37,0-.01-.09-.02-.14-.02l-.47.13c.14.43-.7.39-1.33.35-2.1-.11-4.2.13-6.33-.09-1.28-.13-1.35-.02-.74-.48.18-.14.31-.29.46-.44-1.22.09-2.63-.14-3.62.33.23.04.45.09.69.1.39.02.95-.24,1.12.02.07.11-.54.31-.93.43-.21.06-.6.04-.91.05-.26,0-.54,0-.66.11-.16.14.11.21.38.28.42.1.53.35,1.18.34.82.25,1.73.39,2.81.26,1.24-.37,2.68-.37,4.14-.35-.02-.1.04-.23.31-.22.46,0,.17.17.27.26.61-.35,1.25-.78,1.64.04Z"/><path d="m252.31,1.09l-.32-.12h-.14s-.14,0-.14,0c-2.02.09-2.3.23-1.53.75.02.02.03.04.05.05,1.78-.35,2.28.7,4.02.48.73-.09,1.69-.13,1.89.32.52-.2,1.47-.1,1.86-.39-.51-.24-.02-.61.25-.6.78,0,.31.32.42.5.02.04,0,.08,0,.12.6.34,1.6-.06,2.27.15.41-.13.77-.12,1.08.04.1-.49,1.2-.41,1.97-.49.37-.04.65-.12.67-.21.04-.14-.43-.03-.59-.1-.27-.11-.46-.26-.78-.35-.26-.08-.83-.25-.68.12.02.04-.09.11-.19.14-.61.15-3.63-.23-4.04-.46-.7-.37-1.77-.1-2.64-.09-.36,0-.89.07-1.33.13-.42.12-.45-.01-.51-.12v-.27s-.64,0-.64,0c.06.15.06.29-.34.38-.08.06-.13.16-.24.17-.33.03-.34-.09-.38-.17Z"/><path d="m54.27,1.56l.02.14c.26.27.46.56.78.82.68.56,1.94.63,2.97.16.13-.06.19-.15.35-.18.59-.11.63-.52.05-.68q-.24-.07-.38.2c-.07.12-.05.29-.49.29-.14,0-.29-.14-.43-.22-.83-.1-.78-.39-.96-.63.95-.15,1.93-.13,2.91-.04-.41.38.55.48,1.01.68l.5-.23,1-.11s.02.06.01.1c-.61.43.33.81.3,1.22h-.6s0-.04-.03-.05c-.43-.13-.35-.54-.87-.47-.77.1.09.4-.06.61l-.36.27c-1.46-.05-2.96.06-4.39-.15h-.62s-.02-.24-.02-.24l.13-.06-.17.05h-.39c-.2-.02-.48-.13-.47.07l-.63.12.09-.04.1.04c-.43-.27-1.51-.24-1.81-.68-.14-.21-1.51.18-2.25.35-.12.03-.2.08-.3.13-.16-.16-.58-.41-.08-.47,1.47-.17,1.28-.8,2.3-1.07.98-.15,1.93-.13,2.84.09Zm4.18,1.32c.03.07.1.13.15.2.04-.03.12-.07.12-.1,0-.05-.04-.11-.08-.18-.09.04-.2.07-.19.09Z"/><path d="m101.23,3.17c-.57.03-.62.18-.6.35l.53.04.41-.02c1.02.08,2.01.2,3.09.04.44-.07,1.08-.08,1.61.05.58.14,1.67.15,1.86.11,1.96-.41,3.86-.2,5.75.01.69.08,1.13-.11,1.7-.11h8.69c.31,0,.63.05.81-.09.04-.42-.77-.48-1.45-.36-.6.11-.96.07-1.42-.04-.21.16-.62.12-.97.14l-.34.11c-.6-.47-1.75-.29-2.72-.34-.38-.02-1.25.15-1-.3.06-.11-1.12.07-1.15.19-.07.25-.39.23-.82.23-.1.11-.21.11-.32,0-.58.1-1.28.27-1.04-.21h-.48c-.5.18-1.01.33-1.71.11-.57.28-1.13.65-1.87.05l-.91-.02c-.2.29-.81.19-1.3.2-.72.02-.6-.19-.65-.35-.84.42-1.67.29-2.51,0-.18.13-.34.37-.54.38-.56.01-.29-.3-.74-.38-.08.34-.97.07-1.28.24h-.65Z"/><path d="m67.28,3.33c.45.22.94.34,1.61.12-.38-.2-.75-.41-.3-.64.35-.18.62.14,1,.06.5.39.78.16,1.12-.04.38-.23.75-.28,1,.04.9-.07.76-.37.93-.6-.13-.27-.86-.37-1.21-.58-.6-.25-1.39-.31-2.15-.2-.57.08-1.06.09-1.61.03-.56.15.02.58-.95.59-.72,0-.6-.28-.71-.46l-.64.03c.04.17.13.35.12.52,0,.11-.3.16-.57.15-.24,0-.42-.07-.28-.15.2-.12.76-.23.17-.36-.15-.03-.67.19-1.01.29-.11.04-.17.15-.39.04l.4-.04c-.24-.49-1.03-.39-1.87-.26-.26.4,1.01.6.92.98,1.37-.22,1.35.1,1.25.46.55-.06,1,.19,1.57.08-.08-.41.53-.77,1.48-.72,1.31.07-.43.36.03.56.06.03.07.07.11.11Z"/><path d="m185.41,2.91h.52s1-.14,1-.14l.37-.02-.03-.1c-.22-.04-.32-.1-.14-.19.03-.01.12-.02.15-.01.28.07-.02.14-.02.2.52.02.91-.05,1.15-.24.77-.6,2-.12,1.97.02-.07.45.75.42,1.35.53.75-.16,1.5-.31,2.26-.47.33-.06.98-.02.79-.26-.15-.2-.85-.05-1.03-.11-.55-.19-1.39.39-1.71-.1-.42-.03-.91-.02-.98-.25-.35,0-.73.03-.95-.11-.77-.03-1.55-.06-2.32-.1-1.52-.09-2.83.4-4.36.24v.28c.38-.01.77-.04.97.13-.02.16-.03.32-.61.33l.27.35h1.35Z"/><path d="m87.29,3.29c-.2-.05-.32-.15-.13-.19,1.53-.29.78-.6.06-.91l-.59.03v.35s.08.05.08.05l-.07-.05c-.53-.12-1.69.14-1.6-.37-.89.04-1.69-.41-2.68-.06-.14.05-.76-.09-.79-.29l-.93-.05c-.41.29-1.59.4-1.36.84.01.02-.2.06-.31.09-.69-.7-.99.17-1.53.05v.12c1.6.65,1.98.05,2.55-.35l.12-.03-.13.03c.32.06.91.11.92.17.16.88,1.33.33,2.27.28.99-.05,2.12-.22,2.99.16.43.1.36.41,1.11.38l.02-.25Z"/><path d="m36.53,2.43l.59.12c1.43.09,1.41.47,1.26.87.47.14.45-.09.68-.12-.42-.55.29-1.02,1.59-1.07-.3-.28-.32-.56,0-.84-.33-.29-.6-.09-.89,0,.19.06.24.16-.02.17-.35.02-.29-.12-.33-.21-.75-.4-1.87-.14-2.68-.13-1.32.02-2.76-.19-4.01.12v.17s.92.06.92.06c.29-.21.55-.1.81,0l1.09.25c.08-.16.15-.33.74-.3.4.02.62.13.81.26.44.3-.16.46-.55.64Z"/><path d="m192.05,2.03c.31.49,1.16-.09,1.71.1.18.06.88-.09,1.03.11.19.24-.46.19-.79.26-.76.16-1.51.31-2.26.47l.28.21h.37c1.02-.36,2.32-.16,3.46-.27.27-.14.21-.28.07-.43-.23-.27.12-.4.86-.39v-.12c.02-.17.24-.25.69-.23.09,0,.18,0,.27-.02-.09-.12-.52-.24.03-.35l-.03-.12c-1.81-.06-3.62-.18-5.44.02.29.27.83.55-.24.77Z"/><path d="m166.04,3.27c.38-.01.34.48,1.01.11.5-.28.97.11,1.47,0,.14-.47.81-.38,1.53-.21.6.14,1.1.07,1.55-.09.47-.17.68-.36.18-.57-.67-.02-1.28-.18-2-.08-2.23.32-2.48.31-4.27-.05-.04,0-.13-.02-.14-.01-.91.45-2.3-.18-3.23.22.09.21.1.44.73.54.02-.15.17-.17.6-.15.91.05,1.76.14,2.58.29Z"/><path d="m192.05,2.03c1.07-.22.53-.5.24-.77-.71-.13-1.18-.37-2.19,0-.73.26-2.19,0-3.35.04-1.57.05-3.21.16-4.8,0-.7-.07-1.16-.04-1.08.29.08.33.64.31,1.27.25l1.31-.03c1.53.16,2.84-.33,4.36-.24.77.03,1.54.06,2.32.1.19-.06.4-.17.55-.16.35.02.39.16.4.28.07.23.56.22.98.25Z"/><path d="m79.99,2.55c-.56.4-.95,1-2.54.35l-1.28.15c-.34.09-.69.17-.61.36.6.31,1.38.08,2.04.08,2.51-.02,5.01.14,7.54-.04.67-.05.77-.16,1.03-.3-.87-.38-2.01-.22-2.99-.16-.95.05-2.11.6-2.27-.28-.01-.06-.6-.11-.91-.17Z"/><path d="m144.39,1.61c-.15.15-.27.3-.46.44-.61.46-.54.35.74.48,2.13.22,4.23-.02,6.33.09.64.03,1.47.08,1.33-.35-1.19-.45-2.49-.38-3.92-.15-.92.15-1.62.06-1.45-.41-.93.2-1.7-.14-2.58-.1Z"/><path d="m162.13,2.6c.93-.4,2.32.23,3.23-.22.01,0,.1,0,.14.01,1.79.36,2.04.37,4.27.05.72-.1,1.33.06,2,.08-.29-.39-.6-.77-1.7-.96l-.81.25c-.3.25-.75.23-1.4.19-.79-.05-1.74,0-2.43-.03-1.38-.05-2.6.36-3.92.11l.35.5c.09,0,.17,0,.26.01Z"/><path d="m178.26,1.82c-.41.38-.74.73.91.77.53.01.2.17.16.27-.81.24-1.71.1-2.3-.05-1.48-.39-1.81-.05-2.13.39l-.3.03c-.97-.21-2.57-.31-1.06-.94.27-.11.26-.32.39-.49.84-.01,1.67-.04,2.51-.03.54,0,.95-.01,1-.25l.93.03c-.04.1-.02.2-.11.29Zm-2.66.36s-.09-.01-.17.03c.05,0,.09,0,.17-.03Z"/><path d="m8.62,2.76c-.47-.36-2.14.12-2.13-.38,0-.25.68-.53.97-.83.3-.31,1.58-.37,2.6-.32.46.03.89.14,1.35.15.44.02.98.22,1.3.03.35-.2-.87-.12-.65-.36-1.49-.42-3.36.04-4.91-.35-.49-.12-.38.23-.78.27-.38.14,1.33.34-.08.45-.47.37-1.71.57-1.53,1.08.29.03.67.04.86.11.47.18.45.8,1.65.24,0,0,.11.03.25.08s.31.09.44.11c.78.11,1.52.07,2.18-.12-.22-.48-1.09,0-1.53-.16Z"/><path d="m4.46,1.08c-.39-.02-.67-.09-.87-.23-.5-.34-1.46-.56-2.21-.35C.71.69.1,1.02.02,1.42c-.15.73.69.97,2.57.85.46-.03,1.03.15,1.54.24.57-.29.36-.59-.26-.8-.62-.21-1.19-.06-1.64.18-.16.09-.91.23-.85-.04.06-.24-.37-.46-.09-.69.17-.14.25-.32.76-.34.53-.02.76.14.81.3.06.18.14.32.73.31.57-.01.86-.12.86-.34Z"/><path d="m161.52,2.09c1.32.25,2.54-.17,3.92-.11.68.03,1.64-.01,2.43.03.65.04,1.11.06,1.4-.19-1.11-.6-2.77-.25-4.13-.27-2.04-.03-4.13.25-6.12-.12l-.16.16c.3.18,1.33.39-.25.48-.52.03-.81.23.08.3.94-.1,1.62-.6,2.83-.27Z"/><path d="m89.48,1.59c.02.38.44.57,1.39.32.7-.18,1.16-.12,1.73.08.58.21,1.56-.21,2.11.16,1.36-.36,2.86-.04,4.28-.09.49-.02.76-.04.99-.19-1.31-.33-2.73-.35-4.26-.29-.98.03-1.97.06-3.03-.08-.93-.12-2.13.05-3.2.09Z"/><path d="m27.6,1.43h.69s1.02.34,1.02.34l.43.02,1.41-.24c-.83-.61-2.49-.43-3.68-.46-2.37-.06-4.76.08-7.14.14l-.64.12c1.07.42,2.22.5,3.48.14,1.01-.11,2.09-.32,2.66.26h.46s.33-.03.33-.03c0-.09-.02-.13-.03-.17l-.1-.09.23.04.88-.08Z"/><path d="m203.57,1.41c.91.05,1.81.13,2.73,0,.72-.02,1.42,0,1.96.21.49,0,.73-.01.98-.02,1.16.03,2.28-.19,3.52.01.64.11.98-.27,1.17-.51-3.49-.09-6.98-.09-10.47.1l.13.21Z"/><path d="m179.33,2.86c-.81.24-1.71.1-2.3-.05-1.48-.39-1.81-.05-2.13.39,2.43.11,4.86.32,7.29-.05.59-.09.95.17,1.43.13.66-.06,1.67.09,1.79-.36h-1.35s-2.21-.09-2.21-.09l-2.53.04Z"/><path d="m227.57,2.01c-.03.2.18.46-.83.38-.63-.05-1.17.03-1.06.35,2.61.22,5.21.44,7.91.11l-.02-.17-.09-.14s-.1.01-.16.01c-.45.08-.9.16-1.03-.12-.08,0-.16.01-.25.01l-.96-.1c-.14.24-.46.29-.98.14-.56-.03-1.14.26-1.66.03-.17-.08.08-.21.36-.28l.02-.11-.31-.24c-.56-.23-.61.12-.95.13Z"/><path d="m174.6,3.22c-.97-.21-2.57-.31-1.06-.94.27-.11.26-.32.39-.49-.46-.03-.31-.17-.34-.27l-.62.04c.19.26-.61.37-.63.6l.42.05s-.09.04-.09.04c-.11-.03-.22-.06-.34-.09-.55-.16-.22-.39-.33-.59-.63-.29-1.27-.33-1.93,0,1.1.18,1.41.56,1.7.96.5.21.29.4-.18.57-.45.16-.95.24-1.55.09-.71-.17-1.39-.26-1.53.21,1.6.06,3.23-.15,4.81.05.62.08.95-.06,1.27-.22Z"/><path d="m158.69,2.35c-.89-.07-.6-.27-.08-.3,1.58-.09.54-.29.25-.48-.27.23-.76.06-1.15.1.04.15-.25.37-.48.31-1.16-.3-1.97.18-2.98.15-.54.19-.57.03-.61-.12-.54-.19-.68-.02-.84.13.05,0,.13.01.14.02.23.38.98.4,1.81.37,1.14-.04,1.93.39,3.11.32.03,0,.15.21.23.32l1.24.22.66.13.07-.34c-1.4-.06-1.48-.42-1.37-.84Z"/><path d="m141.65,3.28c-.65.01-.76-.24-1.18-.34-.27-.07-.54-.14-.38-.28.12-.11.41-.1.66-.11.31-.01.7.01.91-.05.39-.12,1-.32.93-.43-.17-.26-.73,0-1.12-.02-.24-.01-.46-.07-.69-.1-.3-.19-.57,0-.86.01-.48.1-.98.24-.84.44.55.79-.93.79-2.25.87.16.17.85.09.9.31,1.09-.13,2.12.1,3.21.06.79-.03.62-.2.7-.35Z"/><path d="m154.25,2.13c1.01.04,1.82-.45,2.98-.15.23.06.52-.15.48-.31-2.02-.03-4.02,0-6.04.08-1.01.04-2.07-.03-3.07-.11-.61-.05-1.1,0-1.63.06-.18.47.53.56,1.45.41,1.43-.23,2.73-.3,3.92.15l.47-.13c.16-.15.29-.33.84-.13l.61.12Z"/><path d="m179.33,2.86l2.53-.04.02-.25c-.34,0-.65-.04-.6-.19.05-.15.4-.15.72-.16.12-.12.12-.25.13-.38-.63.06-1.19.08-1.27-.25-.81-.13-1.64-.13-2.49-.05-.04.1-.02.2-.11.29-.41.38-.74.73.91.77.53.01.2.17.16.27Z"/><path d="m76.16,3.05l1.28-.15v-.12s-.07-.05-.07-.05l.07.05c.54.12.84-.76,1.53-.05.11-.03.32-.07.31-.09-.23-.44.95-.55,1.36-.84-.07-.14-.35-.12-.61-.12-.33.19-.87.13-1.34.15-.35-.08-.57.42-.75.08-.2-.36-.78-.13-1.1-.22-.56.24-.81.1-1-.12-.33-.05-.72-.29-.93.04l-.14.19c.39.08.58.28,1.13.28.37.08.23.22.26.34,1.69.22-.23.43,0,.64Z"/><path d="m232.64,1.12c.54.21,1.17.35,1.68.61,1.05.53,3.01.29,3.84-.35-.78.01-1.65.05-1.11-.43-1.5-.08-3-.16-4.42.17Z"/><path d="m76.16,2.42c1.69.22-.23.43,0,.64-.34.09-.69.17-.61.36-.97.03-1.99.37-2.86-.09-.04-.02-.06-.05-.04-.08,1.27-.37,1.38-.9,1.31-1.45h.81c.39.08.58.28,1.12.27-.04.13-.05.25.26.34Zm-1.01.39c.2.06.4-.05.33-.11-.13-.14.52-.4-.45-.4-.49.06-.45.15-.09.25.07.09.06.21.22.26Z"/><path d="m98.37,3.45c-.3,0-.54-.24-.88-.04-.75.44-.82.05-1.06-.12-.22-.04-.51-.13-.66-.11-.6.09-1.16.23-1.59-.08-.36-.25.15-.39.51-.56.64-.3,1.14-.16,1.66.05.33.13.87.18,1.14.08.91-.35,1.32-.02,1.86.16l-.97.62Zm-3.54-.47s.11-.02.12-.03c.01-.03,0-.06,0-.09l-.25.05s.08.05.14.07Z"/><path d="m221.44,2.58c-1.29.03-2.64-.13-3.79.27-.29.1-.7-.02-.99-.09-.53-.13-.88-.07-1.16.12,1.09.39,2.4.23,3.63.15,1.59-.11,3.09.33,4.7.04.23-.04.52-.04.62-.16-.33-.27-.88-.34-1.52-.17-.77.21-1.13.06-1.49-.16Z"/><path d="m4.46,1.08c0,.22-.29.33-.86.34-.59.01-.66-.13-.73-.31-.06-.17-.29-.32-.81-.3-.51.02-.59.2-.76.34-.28.23.15.45.09.69-.07.28.68.13.85.04.45-.24,1.02-.38,1.64-.18.61.2.83.51.26.8.21.08.42.13.63,0-.18-.5,1.06-.71,1.53-1.08-.33-.11-.64-.22-.66-.41l-1.18.05Z"/><path d="m104.43,2.95c.84.29,1.67.42,2.51,0,.49-.36,2-.27,2.27-.73l-.11-.4c-.55-.13-1.05-.1-1.5.07-.07.07.13.18-.2.22l-.1-.22c-.09-.02-.19-.03-.3-.02-1.3.07-1.04.73-2.23.84-.27.05-.34.14-.33.24Z"/><path d="m192,3.17l-.28-.21c-.6-.11-1.42-.09-1.35-.53.02-.14-1.21-.62-1.97-.02-.24.19-.63.26-1.15.24.02.03.03.06.04.1l-.02.37c1.56.14,3.1.39,4.73.06Z"/><path d="m206.93,3.16c.12-.33-.57-.41-1.13-.46-1.21-.12-2.61-.3-3.67-.1-.73.14-1.22.16-1.94.15-.43,0-.19.22-.22.35,1.52.08,3,.24,4.6.02.69-.09,1.57.02,2.36.04Z"/><path d="m86.64,2.21l.59-.03c.31-.17.75-.32.68-.56-1.59-.18-3.28.12-4.89-.23-.65-.14-.85.33-1.43.45.03.2.65.34.79.29.99-.35,1.79.1,2.68.06.57-.71,1.05.11,1.59.02Z"/><path d="m113.37,2.97h.48c.3-.26.29-.25-.22-.34-.22-.04-.51-.1-.56-.18-.17-.26.72-.18.86-.36l-.67-.24-1.05-.08-2.12.45c1.45.37,1.41.46-.3.92.74.6,1.29.23,1.87-.05.56-.05.84-.7,1.71-.12Z"/><path d="m136.83,3.26c1.32-.08,2.8-.08,2.25-.87-.14-.2.37-.34.84-.44-.15-.41-.82-.07-1.22-.12-.29.38-.48.81-2,.5-.25-.05-.66-.03-.76.12-.11.16.2.2.54.22l.14-.02-.13.03.34.58Z"/><path d="m72.69,3.33s-.06-.05-.04-.08c-.14-.19-1.13-.08-.94-.38-.25-.32-.62-.27-1-.04-.33.2-.62.43-1.12.04-.38.07-.65-.25-1-.06-.45.23-.08.44.3.64,1.29.04,2.65.4,3.81-.12Z"/><path d="m53.57,3.21c-.43-.27-1.51-.24-1.81-.68-.14-.21-1.51.18-2.25.35-.12.03-.2.08-.3.13v.35c1.13.27,2.19-.18,3.32-.03l.83-.05c.11,0,.18-.03.21-.07Z"/><path d="m227.24,1.05c.44.36,3.32.8,4.24.65.91-.15.33-.45.51-.68-.58.06-1.16.21-1.71-.02-.12-.05-.52-.09-.55-.07-.73.43-1.67.05-2.48.12Z"/><path d="m8.62,2.76c.44.16,1.31-.31,1.53.16.45.21.9.09,1.35.01.75-.33,1.94-.14,2.82-.31-.18-.2-.15-.44-1.1-.25-.57.12-1.4.06-2.11.09l-.39.15-.12-.07.5-.09c-.59-.09,1.23-.82-.93-.48-.08.19.2.44-.65.47-.17.16-.95.07-.91.32Z"/><path d="m207.57,2.83c-.02.06.09.14-.18.16,1.93.06,3.96.47,5.62-.3l-.05-.15h-1.26c-1.38.11-2.75.21-4.14.3Z"/><path d="m14.33,2.63c-.88.17-2.07-.02-2.82.31.1.38.8.08,1.16.12,1.38.14,2.8.05,4.19-.04-.28-.67-1.64-.3-2.52-.39Z"/><path d="m37.13,2.93c-.99-.04-2.11.11-2.77-.37-.25-.18-.62-.08-.68.1-.04.13.03.28-.39.36-.14.38.7.27,1.14.3.99.05,2,.04,3,.06-.08-.15.17-.33-.3-.45Z"/><path d="m42.21,1.66c.69.11,1.41.24,1.91-.09.32-.21.51-.08.8.01.96.31,1.92.34,2.82-.02-.9-.34-2.02-.29-3.11-.26-.8.03-1.6.07-2.41.1v.26Z"/><path d="m126.35,1.59c-.22.24-.91.59.69.4.83-.1,1.21.13,1.64.33.21.1.07.39.73.28.53-.09.41-.29.31-.47-.1-.17-.15-.35-.22-.52l-3.14-.03Z"/><path d="m64.1,3.3c.11-.35.12-.67-1.25-.46l-.96.23h-.6c-.26.13-.62.11-.96.1l-.36.27c-.03.24.39.18.73.15,1.14-.1,2.27-.19,3.41-.29Z"/><path d="m113.27,1.85l.67.24c.9-.05,1.85-.32,2.61.13.2.12.77-.06.73-.09-.16-.17,1.08-.24.21-.43-1.4.08-2.93-.36-4.22.15Z"/><path d="m63.8,2.13c.35-.1.87-.32,1.01-.29.59.13.03.24-.17.36-.14.08.04.15.28.15.27,0,.57-.04.57-.15.01-.17-.07-.35-.12-.52-1.15-.34-2.45-.27-3.75-.22l-.04.3s.02.06.01.1h.35c.83-.12,1.63-.21,1.86.27Z"/><path d="m104.76,2.71c1.19-.11.93-.77,2.23-.84-.66-.3-1.34-.56-2.21-.09-.1.08-.16.23-.3.24-2.1.16-.55.37-.06.56.05-.08,0-.2.37-.19l-.07.2s.04.07.05.11Z"/><path d="m133.3,3.42c-.28-.23-.82-.5-1.37-.27-1.06.44-2.97-.23-3.68.48,1.72.05,3.4-.02,5.05-.21Z"/><path d="m159.33,3.39l-1.24-.22-.65-.1c0,.29-.53.27-1.05.26-1.22-.28-2.36-.23-3.44.12.1.13.44.25.66.21,1.84-.31,3.92.16,5.71-.28Z"/><path d="m14.32.98c.06.39.27.68,1.49.35.91-.25,2.04.3,2.92-.09-1.31-.54-2.91-.25-4.41-.26Z"/><path d="m199.66,1.36c.43.41,1.27.68,2.19.92-.19-.41.29-.74.91-1.06-.64-.21-1.22-.02-1.81.06-.32.33-.84.11-1.29.08Z"/><path d="m27.98,3.11c-1.1-.48-3.41-.46-4.8.04,1.36.23,2.74.04,4.11.05.04-.24.37-.15.69-.09Z"/><path d="m92.05,2.94c-.37.01-.62.07-.62.23l.41.08.09.13-.3-.04-.25-.15c-.38,0-.56.08-.59.22,1.16.05,2.16.45,3.45.23-.11-.43-1.19-.48-1.91-.68h-.28Z"/><path d="m148.6,3.19c-1.46-.02-2.9-.02-4.14.35.49.21.95.3,1.68.08.92-.27,2.07-.02,3.09-.12l-.06-.27c-.19-.01-.38-.03-.57-.04Z"/><path d="m40.64,2.23c-1.3.05-2.01.53-1.59,1.07l1.27.02c-.19-.27.75-.39.57-.65-.37-.13-.21-.29-.25-.44Z"/><path d="m110.1,2.22l2.12-.45c-1.07-.2-2.13-.35-3.13.05l.11.4h.9Z"/><path d="m73.96,1.81h.81s.14-.2.14-.2c-1.19-.08-2.39-.28-3.49.08.35.21,1.08.3,1.21.58.23-.05.42-.09.62-.12.05-.17.08-.34.71-.34Z"/><path d="m42.21,1.66v-.26s-1.57-.01-1.57-.01c-.33.28-.3.56,0,.84.77.03.59.25.6.43.12.09.3.18.59.14.35-.05.14-.17.08-.25-.24-.32-.69-.64.3-.89Z"/><path d="m87.29,3.29l-.02.25c1.08.02,2.26.39,3.18-.13-.16-.22.08-.69-1.12-.22-.52.21-1.42-.14-2.04.1Z"/><path d="m160.06,3.19l-.07.34c1.23.23,2.34-.01,3.47-.15l-.59-.24c-.63-.11-.64-.33-.73-.54-.08,0-.17-.01-.26-.01,0,.46-.19.84-1.81.6Z"/><path d="m173.93,1.79c.84-.01,1.67-.04,2.51-.03.54,0,.95-.01,1-.25-1.12-.3-2.36,0-3.52-.08,0,.12,0,.24.01.36Z"/><path d="m162.86,3.14l.59.24c.91.15,1.85.43,2.58-.1-.81-.15-1.67-.24-2.58-.29-.43-.02-.58,0-.6.15Z"/><path d="m67.28,3.33s-.05-.08-.11-.11c-.45-.2,1.29-.49-.03-.56-.95-.05-1.56.31-1.48.72.56.06,1.14.27,1.61-.05Z"/><path d="m221.44,2.58c.36.22.72.37,1.49.16.64-.17,1.19-.1,1.52.17.22-.03.51-.01.59-.13l-.56-.4c-.99-.1-1.97.04-2.95.05l-.1.15Z"/><path d="m237.05.95c-.54.48.33.44,1.11.43.58.05.94-.06,1.18-.25l-.02-.31c-.74.09-1.48.18-2.27.13Z"/><path d="m195.83,2.91c-1.15.11-2.45-.09-3.46.27,1.15.29,2.31-.04,3.46-.03v-.24Z"/><path d="m121.54,1.61c.17.89,1.51.18,2.29.24-.05-.17.17-.43-.77-.31-.47.06-1.01.05-1.52.07Z"/><path d="m66.01,1.65c.11.18,0,.46.71.46.97,0,.39-.44.95-.59-.77-.34-1.1.08-1.65.13Z"/><path d="m31.16,1.55l-1.41.24c.89.05.94.31,1.07.57.07.15.28.26.71.26.16,0,.41-.06.46-.11.14-.15-.2-.19-.48-.25-.98-.22.79-.47-.06-.69-.09-.02-.18-.02-.28-.02Z"/><path d="m238.78,2.48c-.63.16-1.49-.66-1.97.09q.27.44,1.97-.09Z"/><path d="m57.13,2.09c-.83-.1-.78-.39-.96-.63-.65-.02-1.37-.2-1.9.1l.02.14c.47.06,1.29-.05,1.37.19.17.53.83.31,1.48.2Z"/><path d="m59.07,1.43c-.41.38.55.48,1.01.68l.5-.23.39-.49c-.65-.07-1.23.22-1.9.05Z"/><path d="m133.28,1.97v-.34c-.59-.1-1.19-.19-1.84-.07,0,.18-.22.43.67.4.67-.02.97.09.95.34.29-.09.2-.21.23-.32Z"/><path d="m202.76,1.22c-.63.32-1.1.65-.91,1.06.65-.27,1.59-.46,1.72-.87l-.13-.21-.68.03Z"/><path d="m37.13,2.93c.47.12.22.3.3.45l.95.05c.15-.41.18-.78-1.26-.87v.37Z"/><path d="m149.17,3.23l.06.27c.61.01,1.14-.07,1.59-.23-.4-.82-1.03-.39-1.65-.04Z"/><path d="m219.6,1.08c0,.08-.06.17,0,.24.18.2-.73.58.25.59.87,0,.12-.34.24-.53.04-.05.32-.08.5-.12-.21-.15-.41-.31-.99-.17Z"/><path d="m199.66,1.36c.45.03.97.25,1.29-.08l-.69-.06c-.26.01-.49,0-.61-.1l-1.29.12.27.13h1.03Z"/><path d="m258.66,2.2s.02-.08,0-.12c-.11-.18.36-.49-.42-.5-.26,0-.75.37-.25.6l.67.02Z"/><path d="m172.34,2.15c.02-.23.82-.34.63-.6l-.97.02c.12.2-.22.43.34.58Z"/><path d="m5.64,1.03c.02.18.32.3.66.41,1.4-.1-.3-.31.08-.45-.06-.03-.14-.05-.24-.03h-.42c-.09.02-.11.04-.07.07Z"/><path d="m54.02,3.09l-.63.12c.28.27,1.05.19,1.53.31l.04-.24-.02-.24c-.17-.01-.3-.01-.43-.01-.05.14-.26.1-.47.06Z"/><path d="m137.73,3.57c-.05-.22-.74-.14-.95-.29l-.5.1.41.16c.33.07.68.09,1.04.03Z"/><path d="m75.85,1.57c.19.22.44.36,1,.12-.27-.12-.37-.44-1-.12Z"/><path d="m186.93,2.77l-1,.13c-.04.32.51.24,1,.2v-.34Z"/><path d="m78.7,1.83c.47-.01,1.01.05,1.34-.15-.68-.25-1.05-.1-1.34.15Z"/><path d="m262.02,2.39c-.31-.15-.68-.16-1.08-.04.35.05.56.51,1.08.04Z"/><path d="m198.63,1.37l-.27-.13h-.63s.03.13.03.13c.29.13.58.15.88,0Z"/><path d="m49.88,1.63s0,.04-.04.06c.05-.02.09-.03.15-.03l.09-.26-.2.23Z"/><path d="m199.64,1.12c.12.1.35.12.61.1,0-.2-.2-.23-.61-.1Z"/><path d="m39.41,1.36c.03.09-.02.22.33.21.26-.01.21-.11.02-.17l-.35-.04Z"/><path d="m54.95,3.29l-.04.24c.33-.04.55-.11.66-.24h-.62Z"/><path d="m53.37,3.28l-.83.05c.35.16.63.15.83-.05Z"/><path d="m173.92,1.78v-.36c-.21-.02-.31.01-.32.09.03.1-.12.24.32.26Z"/><path d="m107.29,1.89l.1.22c.33-.04.13-.15.2-.22-.1-.02-.2-.02-.3,0Z"/><path d="m27.97,3.11c-.31-.06-.65-.15-.68.09.29.04.57.07.68-.09Z"/><path d="m221.54,2.43c.98,0,1.96-.15,2.95-.05.34-.01.49-.09.52-.21l.04-.37c-.54-.02-.73-.12-.53-.32.09-.09.22-.21-.14-.23-.21-.01-.67.08-.66.12.07.52-1.37.55-1.93.85-.11.06-.16.14-.24.21Z"/><path d="m242.12,2.2c.67.11,1.34.25,1.99-.04-1.13-.02-.21-.52-1.01-.62l-1.27-.2c.17.28.84.54.28.86Z"/><path d="m208.25,1.62c-.54-.21-1.23-.23-1.96-.21.02.14-.08.31.1.4.24.13-.71.34.15.35.6,0,.48-.2.41-.36-.03-.07-.04-.33.35-.09.72.45.56-.18.94-.1Z"/><path d="m231.08,2.34l.96.1c.12-.14.94-.27.21-.42-.76-.16-1.02.08-1.17.31Z"/><path d="m228.81,2.22c-.28.07-.53.21-.36.28.51.24,1.09-.06,1.66-.03-.05-.35-.79-.22-1.3-.26Z"/><path d="m211.71,2.54h1.26c-.07-.23-.47-.33-.97-.3-.39.02-.26.19-.29.3Z"/><path d="m197.72,1.72c-.09.01-.18.02-.27.02l-.03.22c.38-.02.85.03,1.02-.18l-.72-.07Z"/><path d="m232.28,2.43c.14.28.58.2,1.03.12l-.04-.25c-.34.04-.67.09-1,.13Z"/><path d="m226.17,1.29c-.07-.02-.13-.04-.2-.06l-.18.12c.08.01.18.04.24.03.06,0,.09-.05.14-.09Z"/><path d="m209.23,1.6h-.74c.09.08.16.19.29.2.36.02.35-.11.45-.2Z"/><path d="m228.52,1.88l.31.24c.48-.19.1-.22-.31-.24Z"/><path d="m233.28,2.3c.17-.02.42.01.42-.1,0-.02-.12-.07-.19-.07-.29,0-.21.1-.23.17Z"/><path d="m225.05,1.8l-.04.37c.41-.12.44-.24.04-.37Z"/><path d="m216.39,1.69c0,.05.06.05.1.06,0-.05-.06-.05-.1-.06Z"/><path d="m196.77,1.96v.12s.64-.13.64-.13c-.21,0-.42,0-.64,0Z"/><path d="m227.56,2.01l-.07-.05s.05.03.07.05Z"/><path d="m233.47,2.54l.09.14c.27-.08.22-.12-.09-.14Z"/><path d="m36.53,2.43c.39-.19.99-.35.55-.64-.19-.13-.41-.24-.81-.26-.59-.03-.66.14-.74.3.3.19.45.39.19.61-.12.1-.09.2.25.22.42.02.48-.1.55-.22Z"/><path d="m9.53,2.45c.85-.03.57-.29.65-.47-.31-.02-.76.06-.8-.17-.02-.12-.33-.26-.61-.22-.29.04-.55.18-.65.3-.17.2.38.11.55.16.34.11.58.27.86.4Z"/><path d="m25.84,1.75c-.57-.58-1.65-.37-2.66-.26.74.32,1.58.48,2.66.26Z"/><path d="m26.62,1.72l-.33.03c-.06.03-.09.08-.17.1-.61.14-1.02.3-.39.57.16.07.61.15.54.03-.18-.28,1.83-.37.35-.72Z"/><path d="m33.64,1.58l-.92-.06c-.01.16-.78.39.03.48.6.07,1.02-.14.88-.41Z"/><path d="m29.31,1.77l-1.02-.33c.02.14-.53.28-.06.41.37.1.77.04,1.08-.08Z"/><path d="m11.49,1.86c.18.05.3.1.4.1.12,0,.23-.05.35-.08-.1-.04-.19-.1-.29-.1-.11,0-.24.04-.46.08Z"/><path d="m27.6,1.43l-.88.08-.13.05.04.12c.4-.04.98.02.97-.25Z"/><path d="m34.45,1.58c-.26-.1-.52-.22-.79,0h.79Z"/><path d="m13.41,1.28c.09.03.14.01.18,0-.03-.01-.07-.02-.18,0Z"/><path d="m121.24,3.3c.35-.02.76.01.97-.14.16-.37,1.23-.11,1.65-.34.16-.09.7.28.94.01.15-.16-.38-.31-.71-.44-.33-.13-.6-.16-1.06-.02-.58.17-1.26.29-1.78-.09-.31-.23-.87-.06-1.2.03-.58.15-.11.25.23.35.53.16,1.06.34.96.64Z"/><path d="m133.28,1.97c-.02.11.07.24-.23.32-.07.14-.85.17-.47.38.14.07.44.15.65.14.68-.03.23-.25.38-.38.08-.07.15-.15.27-.21.24-.11.96-.18.69-.33-.31-.17-.82.1-1.29.07Z"/><path d="m130.97,2.45c-.07-.02-.13-.04-.2-.06l-.18.11c.08.01.17.04.24.03.06,0,.09-.05.14-.08Z"/><path d="m115.21,3.19h-.32c.1,0,.21,0,.32,0Z"/><path d="m253.9.98c.07.1.09.23.51.12-.06-.11-.26-.12-.51-.12Z"/><path d="m101.23,3.17h.65c0-.14-.14-.36.06-.42.35-.11.67-.18.55-.36-.06-.09-.25-.05-.33,0-.28.16-1.22.11-.97.44.08.11.03.23.04.35Z"/><path d="m99.35,2.82c.2.11.21.28.67.29.06,0,.22-.09.21-.13-.09-.19-.53-.15-.87-.16Z"/><path d="m92.05,2.94h.28c0-.08.06-.18-.31-.2l.03.2Z"/><path d="m104.71,2.6l.07-.2c-.38,0-.32.1-.37.19h.3Z"/><path d="m103.16,2.95l-.11-.16c-.31.09,0,.11.11.16Z"/><path d="m243.11,1.54c.79.1-.12.6,1.01.62.41,0,.7-.09.91-.21.45-.25,1-.49.15-.77-1.33-.44-1.38.24-2.07.36Z"/><path d="m248.44,1.1c-.46.04-1.19-.21-1.15.18.02.13.2.36.72.29.5-.08,1.24-.26,1.26-.4.05-.29-.6,0-.83-.06Z"/><path d="m247.95,2.05c.36.14.58.3.84.31.33,0,.91,0,.93-.23.01-.13-.21-.25-.55-.23-.38.01-.74.09-1.22.15Z"/><path d="m252.31,1.09c.04.09.05.2.38.17.1,0,.16-.11.24-.17h-.62Z"/><path d="m246.68,1.55c.1-.04.04-.05-.03-.05l.03.05Z"/><path d="m251.7.98h.14s.14,0,.14,0c-.1-.06-.19-.07-.29,0Z"/><path d="m48.57,1.93c.07.2.39.27.86.21.59-.07.36-.28.42-.44-.57-.03-.6.35-1.27.23Z"/><path d="m41.24,2.67c-.01-.18.17-.4-.61-.44.05.15-.11.32.26.44h.35Z"/><path d="m48.57,1.93l-.07-.05s.05.03.07.05Z"/><path d="m148.6,3.19l.58.04c-.1-.09.19-.26-.27-.26-.26,0-.33.12-.31.22Z"/><path d="m156.4,3.33c.52.01,1.06.04,1.05-.26-.39.06-.82.1-1.05.26Z"/><path d="m57.13,2.09c-.65.11-1.31.33-1.48-.2-.07-.24-.9-.13-1.37-.19.26.27.46.56.78.82.68.56,1.94.63,2.97.16.13-.06.19-.15.35-.18.59-.11.63-.52.05-.68q-.24-.07-.38.2c-.07.12-.05.29-.49.29-.14,0-.29-.14-.43-.22Z"/><path d="m61.94,1.87h-.35c-.61.42.33.8.3,1.21l.96-.23c.09-.38-1.17-.58-.92-.98Z"/><path d="m60.33,3.18c.35,0,.71.03.96-.09,0-.02,0-.05-.03-.06-.43-.13-.35-.54-.87-.47-.77.1.09.4-.06.61Z"/><path d="m58.63,2.79c-.09.04-.2.07-.19.09.03.07.1.13.15.2.04-.03.12-.07.12-.1,0-.05-.04-.11-.08-.18Z"/><path d="m54.02,3.09c.21.03.43.07.47-.06-.2-.02-.48-.13-.47.06Z"/><path d="m54.93,3.04l.13-.06c-.06.02-.11.03-.13.06Z"/><path d="m110.1,2.22h-.9c-.27.47-1.78.38-2.27.74.05.16-.08.37.65.35-.31-.23.22-.34.55-.41.41-.08.6.09.75.21l.91.02c1.72-.46,1.75-.55.3-.92Z"/><path d="m108.89,3.11c-.15-.13-.35-.3-.75-.21-.33.07-.86.18-.55.41.49,0,1.11.09,1.3-.2Z"/><path d="m113.37,2.97c-.87-.58-1.14.07-1.71.12.69.22,1.21.07,1.71-.12Z"/><path d="m115.22,3.19h-.33c.11.11.22.11.33,0Z"/><path d="m73.96,1.81c-.63,0-.66.17-.71.34.09.24-.23.19-.58.12-.2.24-.06.54-.96.61-.19.3.8.19.94.38,1.27-.37,1.38-.9,1.31-1.44Z"/><path d="m63.81,2.13l-.4.04c.22.11.28,0,.4-.04Z"/><path d="m182.11,2.22c-.15.11-.19.22-.23.34.64,0,1.28-.01,1.92-.02.58-.01.59-.17.61-.33-.34-.02-.76.03-.97-.13l-1.33.14Z"/><path d="m191.07,1.78c-.01-.12-.05-.26-.4-.28-.16,0-.37.1-.55.16.23.14.6.11.95.11Z"/><path d="m183.44,2.08c.2.16.62.11.97.13-.2-.17-.59-.14-.97-.13Z"/><path d="m187.25,2.65c0-.07.3-.14.02-.2-.03,0-.12,0-.15.01-.18.09-.08.14.13.19Z"/><path d="m86.64,2.21c-.54.09-1.01-.73-1.59-.02-.09.51,1.07.24,1.6.37l-.02-.35Z"/><path d="m79.98,2.55l.13-.03s-.08.02-.13.03Z"/><path d="m86.65,2.56l.07.05-.07-.05Z"/><path d="m196.77,1.96h.65s.03-.23.03-.23c-.45-.02-.67.06-.68.23Z"/><path d="m160.06,3.19c1.62.23,1.81-.15,1.81-.6l-.35-.5c-1.21-.33-1.89.17-2.83.27-.11.41-.03.78,1.37.84Z"/><path d="m175.43,2.21h.14s-.06-.04-.14,0Z"/><path d="m172.33,2.16c.11.03.22.06.34.09,0,0,.06-.03.09-.04-.14-.02-.28-.03-.43-.05Z"/><path d="m154.25,2.13l-.61-.12c.04.15.07.32.61.12Z"/><path d="m181.87,2.56l.12-.35c-.31,0-.66,0-.71.16-.05.16.25.19.59.19Z"/><path d="m75.9,2.08c-.04.13-.05.25.26.34-.03-.12.11-.26-.26-.34Z"/><path d="m77.44,2.78l-.07-.05.07.05Z"/><path d="m74.93,2.55c.07.09.06.21.22.26.2.06.4-.05.33-.11-.13-.14.52-.4-.46-.4l-.09.25Z"/><path d="m74.93,2.55l.09-.25c-.48.06-.45.15-.09.25Z"/><path d="m94.69,2.9s.08.05.14.07c0,0,.11-.02.12-.03.01-.03,0-.06,0-.09l-.25.05Z"/><path d="m136.49,2.68l.13-.03s-.1.02-.13.03Z"/><path d="m11.1,2.46l-.5.09.12.07c.13-.05.26-.1.37-.16Z"/><path d="m91.84,3.25l-.41-.08c.03.07.11.12.19.17l.21-.09Z"/><path d="m72.67,2.26c.35.07.67.12.58-.12l-.58.12Z"/>
                  </g>
                </mask>
              </defs>
              <path class="mask" d="m0,1.85c82.41.91,166.44.81,252.01-.42,6.09-.09,12.17-.18,18.24-.28"
                    mask="url(#path-mask)" stroke="black" stroke-width="2" fill="none"
                    stroke-dasharray="270.25927734375" stroke-dashoffset="270.25927734375">
              </path>
            </svg>
        