
            <svg xmlns="http://www.w3.org/2000/svg">
              <defs>
                <mask id="path-mask">
                  <g fill="white">
                    <path d="m73.59,7.14c-1.9,0-.69.11-1.07.17l-1.36-.06c-1.12-.08-2.4-.17-3.47-.24-2.17-.19-6.26-.19-8-.05-1.2-.03-1.95-.01-2.46.03-1.59-.07-3.96,0-5.19-.12-.34-.08-1.74-.16-.56-.23.85-.05,1.77-.07,3.12,0,1.12.05,2.14.06,2.78,0h1.05c1.31-.01,3.08.24,4.1.05.41,0,1.16.03,1.18.03,1.03-.16,3.45-.04,5.54.02l.03.05c-.57.01-.46.02.19.04.1,0,.21,0,.33,0l.07.07c-.36,0-.88-.02-.87,0,0,0,.26.02.39.03.6.01.43-.02.5-.04h2.07c.17,0,.34.01.51.01-.26.03-1.96.03-.46.11,1.58.08,2.12.03,2.44-.03.3-.06.97-.06,2.04,0,.1.1,1.63.1,2.69.14l-.05.03c-1,.03-.22.06.64.09,1.16.1,1.27,0,2,.02l.15.02-.17-.02c.07-.06-.36-.14,1.75-.06,1.31.05,2.44.06,2.22-.04l1.3.03,1.14.15c-.71-.02-1.02,0-1.08.03-.85,0-.93.04-.09.11,1.13.04,1.51.09,1.1.13-.19.02-.46.05.29.08.22,0,.57.01.86.02.29,0,.52,0,.52,0-.13-.16,2.87-.07,4.04-.12.24-.01.34-.03.5-.05l.21-.04c2.67.09,5.48.24,7.89.22.61,0,1.46.07,2.06.11,1.09.08,1.82.1,2.42.07l5.15.29.09.05c.14.07.96.14,2.01.18.81.03.55-.03.61-.06,2.86.12,5.73.25,8.73.38l-.12-.02s-.19-.05.38-.03c.16-.02.23-.05.96,0-.26.08,1.17.19,2.33.27,2.5.18,5.41.42,7.61.51,1.52.06,2.55.13,4.03.24.89.07.4-.04.48-.07,2.87.22,5.74.43,8.61.8l-.02.07c-.57-.03-.44.03-.17.11.47.15-.26.07-1.79-.09l-1.36-.1c-.81-.07-1.78-.17-2.14-.14l1.48.15c.18.05,1.06.17-.08.1-.59-.09-1.19-.15-1.81-.16l-2.14-.17c-.87-.19-2.6-.4-4.5-.61-1.35-.01-3.32-.08-3.61.02-1.88-.13-3.76-.27-5.66-.34-.04-.04.17-.08-.19-.13-.49-.07,1.49-.02-.3-.12-1.24-.07-1,0-.87.06.06.03.06.1-.74-.02-1.47-.22-1.17-.01-2.45-.1-.19-.03-.33-.07-.59-.09-.74-.05-.73,0-.94.01-2.41-.13-4.75-.18-7.31-.37-1.33-.09-2.04-.01-2.44.04l-11.82-.48s.14-.04,0-.07c-.36-.07,1.53-.12-.51-.19-1.81-.07-.25.09-.51.14-.08.01-.68,0-1.04,0-3.33-.04-6.93-.17-10.39-.28-1.01-.03-2.65.02-3.44-.12-.91-.14-6.88-.42-8.8-.42Zm11.44.45l.38-.02c-.17,0-.37-.02-.5-.02-.13,0-.19.01-.29.02.14.01.28.02.41.03Zm19.64.57c.07,0,.18.01.27.02-.01-.02-.12-.02-.27-.02Z"/><path d="m59.46,1.76c-4.41.19-8.78.21-13.16.36-.59-.18-3.42.06-5.25.12-.37-.04-.33-.13-2.28.04-1.19.11-2.89.27-4.41.41-1.22.1,2.5-.52-1.94.06-.65.07-1.56.2-1.67.14-.05-.03-.69,0-1.26.1-.59.09-1.13.21-1.33.28-.34.11.8-.08,1.15-.11.7-.05,1.21-.08,1.8-.1-.35.09-1.95.28-1.85.34-.99,0-4.39.68-4.41.54-.01-.08,1.36-.38,1.93-.57.6-.19,3.24-.59,5.35-.81.95-.11,1.86-.16,2.81-.25.92-.08,2.04-.12,2.71-.23.71-.12-1.81.11-1.36,0,1.45-.19,2.98-.33,4.67-.34.14.12.58.18,3.11-.03,1.88-.17,4.26-.1,6.08-.25l.7-.02h1.33c2.23.08,4.63.02,7.23-.17,1.55.05,3.29.04,5.54-.11l.95-.04c-.11.01-.18.03-.35.04-1.27.09-2.11.17-.8.2.34.01,1.28,0,1.12-.03-.38-.07,3.78-.26.72-.26.82-.04,2.03-.07,2.01-.15l1.43-.05c.05.04-1.09.13-.12.13.77,0,1.61-.05,2.24-.11l.9-.03c1.85-.06,1.97.02,2.24.08.15.04.59.06,1.48.02.33-.01.84-.05.95-.07.29-.06-.43-.04-.99-.04-2.04.02,1.63-.21-.14-.21.44-.09,1.58-.13,2.65-.18l.02.05c-.02.05-1.6.19.09.14,1.25-.03,2.12-.13,1.87-.2l1.64-.06h2.27c.64.03.95.08.41.16-.25.04-.19.07.53.05.87-.02,1-.06,1.13-.1h1.22s.03.12.03.12c-2.06.04-4.38.18-5.77.08-.53-.04-1.29.02-1.41.09-.09.05.08.08-.79.14-3.57.25-7.25.41-11.03.48-2.31-.06-7.1.12-9.97.37Zm-23.49.62l.72-.09c-.2,0-.39,0-.62.02-.23.03-.5.06-.94.11.39-.02.62-.02.84-.05Z"/><path d="m8.17,14.6c1.72.04,2.51.12,3.39.21.44.04.15.12,1.52.12,1.11,0,.85-.08.65-.13-.2-.06-.3-.11-.45-.17l4.06.02c.01.06-.46.13,1.38.13,1.39,0,2.02.03,1.97.1-.15.05-1.77.05-.97.12.28.02.92.05,1.35.04,1.42-.01.48-.08.79-.12.17-.02.3-.05.56-.07.51-.04,2-.07,1.44-.11-.64-.05-1.71.04-2.69.03v-.11c3.85-.02,7.57-.04,11.26-.06-.6.13-.99.27-4.16.21-.52,0-1.37,0-1.58.06-.23.05.43.06,1.15.06.23.06.47.11.61.18l-1.05.04.84.04c-2.5.1-4.85.11-7.05.02-.57-.07-1.7-.15-2.85-.08-2.21.14-6.19-.12-7.66.05-2.14-.11-4.41-.16-6.61-.36.1-.14-1.58-.24-3-.58-.31-.12-.62-.11-.89-.51-.07-.12-.07-.26-.02-.38.05-.09.1-.18.16-.23.11-.12.22-.19.33-.26.43-.26.83-.4,1.29-.56-.13.12-.75.31-1.37.74-.13.11-.38.26-.31.59.12.28.33.33.49.41.33.13.64.19.86.22.33.06,1.44.33,1.95.29.31-.02-.79-.17-1.45-.33-.34-.08-.64-.15-.96-.25-.16-.05-.33-.1-.5-.2-.16-.07-.33-.28-.12-.47.43-.42,1.07-.66,1.65-.89.6-.22,1.2-.38,1.74-.47.64-.11,1.76-.46,2.42-.64,1.16-.32.2-.13-.48,0-1.09.22-2.16.47-1.98.32l.67-.22c1.24-.19,3.56-.79,5.55-1.18.77-.16,2.55-.55,2.05-.31-.12.05,2.29-.45,2.35-.5.13-.1.78-.22,1.66-.37l.65-.11c1.21-.24,2.64-.52,2.16-.29-.6.18-.58.17.46.03.45-.06,1.06-.14,1.16-.13.36.02-1.47.29-1.76.39-1.84.32-3.77.74-5.36.89-.41.04-1.57.31-1.49.31.33-.01-2.2.51-.4.21-.07.05-.26.09-1,.24-2.39.47-4.8.94-7.16,1.71-.2-.08-.97.12-1.82.5-.21.09-.43.2-.63.33-.19.11-.42.31-.41.39,0,.05.23.21.43.26.2.07.41.12.61.17,1.81.36,3.22.31,5.19.46-.46.04-1.89.09,1.42.19Zm7.78.29l-.38.03c.17,0,.36.01.5.01.12,0,.19-.01.29-.02-.14,0-.27-.01-.41-.02Z"/><path d="m10.43,11.39c-2.21.83-4.89,2.13-6.36,3.85-.69.66-1.56,1.65-1.86,2.97-.16.66-.09,1.38.18,1.99.25.62.68,1.12,1.12,1.52.5.44.73.57,1.14.81.64.35,1.09.46,1.17.45.09-.02-.2-.15-.88-.53-1.42-.86-1.64-1.39-1.85-1.73-.15-.38-.67-1.06-.43-2.55.02-.17.23-.75.38-.98,1.38-2.29,3.65-3.76,6.05-4.82,2.8-1.22,5.81-1.92,8.82-2.51,3.02-.57,6.06-.97,9.12-1.3l-.02-.06c-.52.06-.94.1-1.05.09-.91.12-1.99.26-2.74.35-1.8.25-4.01.63-5.43.83-.43.05-2.19.34-3.96.8-1.79.41-3.57,1.06-4.15,1.31-.2.08-.4.18-.36.17.31-.05-.78.4-1.28.61-.59.27-.94.46-1.44.71-.3.13-1.08.77-1.02.68.05-.03.47-.44,1.15-.83,1.37-.9,3.55-1.66,3.71-1.83Z"/><path d="m59.49,4.02c-1.6.12-3.51.24-4.56.41.46-.02,1.06-.04,1.37-.06,1.24-.11,2.4-.23,3.31-.19.75.03-.3.14-1.05.24-1.33.18-2.36.21-3.45.22-.68,0-1.81.08-2.36.15-1.88.26-2.73.22-3.86.27-.72.06-1.63.15-1.82.11-.04,0,.29-.07.42-.08.95-.08.98-.03,1.39-.03l2.01-.36c-1.34-.04-3.07.2-4.69.38.05.05-.05.1-1.23.22.02.03-.08.08.09.1.53.05-1.42.22-1.99.33-.16.03-.56.08-.68.07-.25-.03.4-.12,1.13-.22.41-.06.1-.1.11-.14-.64.11-2.48.22-2.66.34.24-.01.89-.07.26.02l-.24-.02c-.94.07-.38-.08-1.54.05-.41.05-.73.15-1.1.24.02.03-.12.07-.67.15.03,0,.07.01.11.02l.61-.06c1.02-.05,4.23-.33-.11.19-.28.03-.41.09-.61.14,1.87-.21,3.83-.47,5.53-.53.21,0,2.71-.34,4.4-.5.46-.09,1.03-.14,2.04-.24,2.96-.27,6.06-.4,8.88-.69,1.14.04,3.18-.21,4.38-.21,1.18,0,2.13-.03,3.58-.16,1.98-.17,2.85-.14,2.9-.03l3.27-.13c-.15-.07.75-.14,1.4-.21-1.5-.05-3.06-.1.11-.28.41-.02.14-.05-.27-.05-1.28.11-3.16.07-4.24.17-2.49.24-1.99.08-2.33.03l-.69.03c-.06.05-.44.08-1.23.12-.09.06-.62.1-1.39.15l.06.06c-.76.04-.64,0-.64-.03-1.49.02-3.73.14-3.98.02Z"/><path d="m47.32,6.64c-.85.03-1.45.08-1.9.13-.94.11-2.09.24-.33.21,2.76-.02,2.88-.19,4.31-.21l2.63.08c1.23.13,3.6.05,5.19.12l.03.08c-1.53-.03-3.29.04-4.43-.04-1.44-.1-2.94-.1-4.61-.08-6.6.28-13.24.91-19.88,1.49-.12-.02-.11-.06.71-.16l1.28-.12.66-.03c.2,0,.4-.02.6-.06,4.19-.39,4.78-.47,3.17-.46-.04,0-.06,0-.09,0-3.7.41-4.71.23-8.33.67-1.5.18-3.5.44-3.92.4.98-.15,2.09-.35,2.42-.35.63,0,1.67-.15,2.67-.26,3.6-.36,7.12-.66,10.82-.98,2.64-.22,5.32-.42,8.03-.54,1.35-.07,2.73-.07,4.08-.05l4.07.03c1.08,0,2.8,0,2.88.1-.63.06-1.65.06-2.78,0-1.36-.06-2.28-.05-3.12,0-1.39-.03-2.79-.12-4.15.01Zm-6.61.6s-.42-.06-1.49.04c-1.04.1-2.56.27-2.62.31-.11.08,1.24-.1,1.73-.12.95-.09,2.47-.13,2.38-.22Zm-3.11-.03c-.68.05-1.9.16-1.94.22-.02.03.42.02,1.15-.04.78-.07,1.53-.14,2.54-.24-.75.02-1.21.02-1.75.06Zm4.03-.09l.4-.02h-.05c-.3.01-.31.02-.35.02Z"/><path d="m95.08.66c1.64-.02,2.92.03,4.77.14,2.68.17,6.02.35,9.06.61,1.52.13,3.14.34,4.57.43l.03-.1c-.33-.08-1.19-.25-.16-.16,3.04.29,2.66.06,4.77.24-1.12-.14-2.11-.24-3-.31-.11,0-.21-.02-.29-.02-.12.04.35.15-.87.04-.96-.09-1.64-.18-1.77-.25l-.16-.03.14.03c1.41.18,1.47.07,2.63.21.07,0,.1,0,.09,0-1.33-.27-2.97-.33-4.44-.49-1.88-.07-3.85-.24-5.85-.47-.59-.07-.99-.13-1.66-.11-1.03.03-2.53-.08-3.97-.17-2.06.02-1.12.14-.62.25.13.03.56.08-.17.07-.62,0-.98-.04-1.23-.08h-.73c.38.07-1.57.09-1.17.17Z"/><path d="m57.63,14.43c1.3.02,2.66.03,4.45-.08,2.24-.18,4.61-.27,7.15-.26.48-.06,1.38-.11,2.18-.16l1.34-.03c-.16-.03-.41-.08-.47-.08-2.45.13-4.11.04-6.47.13-1.72.06-3.3.11-3.77,0-.02,0-.19,0-.28,0-.32.02-.65.05-.98.07.29.12-1.45.16-2.77.19-4.36.1-8.73.3-13.15.34-2.67.03-2.81.06-1.54-.11.38-.05.64-.1.95-.16-2.53.09-5.48.09-7.52.27.48,0,.94,0,1.44,0,.81-.01,1.98-.12,2.34-.04.15.03-1.13.12-1.94.17-.43.03-1.24.04-1.89.05-.54.01-1.12.02-1.38.06-.34.05.23.06.78.07.87.01,1.11.09,2.46.05,1.71.04,3.6.04,5.85-.06,2.57-.18,5.58-.26,8.6-.34-.04-.03.09-.07.64-.09.96-.03.35.04.56.06,1.27-.14,2.59-.32,3.42-.09Z"/><path d="m30.31,8.15l.66-.03.3-.03.3-.03c4.19-.39,4.78-.47,3.17-.46-.04,0-.06,0-.09,0-3.7.41-4.71.23-8.33.67-1.5.18-3.5.44-3.92.4-1.08.19-3.03.47-3.83.69,1.04-.14.04.13-.5.23-1.59.29-.63.04-.87.05-.05,0,0-.02,0-.03-.62.07-1.43.27-2.27.46-.83.22-1.67.44-2.35.62-.81.29-1.54.48-2.16.7-.17.18-2.35.93-3.72,1.84-.68.38-1.1.79-1.15.83-.05.09.73-.55,1.02-.68.51-.25.85-.44,1.44-.71.5-.21,1.59-.66,1.28-.61-.04,0,.16-.1.36-.17.59-.25,2.36-.9,4.15-1.31,1.78-.45,3.54-.74,3.96-.8,1.42-.2,3.63-.58,5.43-.83.75-.1,1.83-.24,2.74-.35.88-.12.92-.1,1.06-.09l.02.06,1.3-.13c-.12-.02-.11-.06.71-.16.16-.03.28-.07.49-.09.69-.07.69-.04.78-.03Z"/><path d="m123.97,2.7l.04.05c.51.17.92.32,1.56.52,1.38.42,3.94.88,6.03,1.31.26.06.4.06.71.16.29.09.51.17.65.24.17.05.14.21.12.22,0,0,.02.02.06-.04.05-.04,0-.19-.06-.23-.13-.14-.33-.23-.62-.36-.48-.19-.48-.18-.78-.18-.14,0-.12.05-1.01-.17-.27-.06-.57-.18-.86-.27-1.69-.39-1.57-.44-1.94-.59.98.17,1.97.36,2.95.6.49.12.99.25,1.48.42.25.09.49.17.76.32.04.02.08.06.12.09.04.04.07.04.13.17.05.11.06.23-.04.36-.07.08-.13.11-.19.14-.19.07-.31.08-.45.09.46-.14.11-.08-.41-.1-.52,0-1.26-.05-1.73-.09l-1.03.03-2.08-.07s-.04-.02-.02-.03c1.27-.06-.69-.29-.62-.41l1.25.07s0,.01.07.02c.89.09.72.21,1.81.23,1.61.03-.18-.13.13-.18l.75-.06c.38.01.76.02,1.13.02.19,0,.37,0,.55-.02.17.01.39-.09.43-.02.02.07.13.15.12.15,0,0,.03.01.03.01-.03,0-.06,0-.08,0-.05.02-.04.07-.14.14h-.02s-.12-.08-.18-.11c-.16-.07-.33-.13-.51-.19-.35-.11-.72-.21-1.08-.31-1.47-.37-2.96-.67-4.41-.96l-1.27-.22-.04-.08.27.03-.35-.05-.8-.13c-.41-.07-.98-.2-.97-.14l-1.3-.16.18.02.2.04c-.88-.22-3.1-.52-3.71-.74-.29-.11-3.11-.35-4.64-.46-.25-.01-.42-.02-.62-.03-.33-.08-1.19-.25-.16-.16,3.04.29,2.66.06,4.77.24,2.03.22,3.99.5,5.84.87Zm8.41,2.18c.06.04.17.11.26.17.07.02.2.08.2.07.02-.01-.05-.07-.1-.11-.16-.07-.37-.13-.36-.12Z"/><path d="m44.99,5.3c1.18-.12,1.28-.18,1.23-.22l-1.1.09-.85.09c-2.12.18-4.16.35-6.4.65-.91.12-2.23.28-3.33.37-1.2.1-3.46.38-3.84.44-4.04.64-7.96,1.14-11.85,1.71-1.43.21-2.31.42-3.48.62-2.97.53-5.94,1.1-8.88,1.8-1.47.36-2.94.73-4.39,1.23-.36.13-.72.27-1.08.44-.18.09-.36.18-.54.31-.09.07-.18.13-.28.24-.09.09-.22.27-.2.54.02.11.08.25.14.31.06.06.12.11.18.16.11.07.22.13.32.17.2.08.4.14.59.19.39.09.77.16,1.15.22.65.1,1.32.18,1.7.17.1-.14-1.58-.24-3-.58-.31-.12-.62-.11-.89-.51-.07-.12-.07-.26-.02-.38.05-.09.1-.18.16-.23.11-.12.22-.19.33-.26.43-.26.83-.4,1.29-.56.4-.2,1.22-.46,1.93-.67l.67-.22c1.24-.19,3.56-.79,5.55-1.18.77-.16,2.55-.55,2.05-.31-.12.05,2.29-.45,2.35-.5.13-.1.78-.22,1.66-.37.21-.07.43-.11.66-.11,1.19-.24,2.62-.52,2.15-.29l.98-.16c1.02-.22,2.07-.43,3.5-.57,1.17-.26,2.3-.54,3.84-.56l1.89-.25c.4-.14,1.67-.28,2.68-.41,1.49-.19,1.24-.09,1.35-.06,1.71-.34,3.44-.5,5.18-.6.36-.08.69-.19,1.1-.24,1.16-.13.6.03,1.54-.05.16-.12,2-.23,2.64-.34l1.35-.13Z"/><path d="m115.56,4.13c-.93-.12-1.95-.21-3.34-.21.79.1,1.55.2.62.23-.74.02-1.29-.11-2.08-.12-1.03-.17-1.63-.12-2.32-.09-.79.04-1.56.02-2.09-.1-1.87-.05-1.59.05-1.93.11.28.09,1.79.18,2.52.27,1.24.13,2.89.22,4.47.26,1.19.03,2.21.08,3.34.16,1.16.02-.03-.18,1.97-.07,1.49.08,1.23.16,1.46.22l1.32.07c-.09-.06-.27-.12-.24-.17.01-.03.62-.01,1.19.02.49.03.87.07.58.08-.42.01-1.58-.02-.36.09.31.03,1.38.03,2.11.04.23,0,.35-.02.81.04l-.83-.04c.49.18,2.14.25,3.87.32.54-.09-2.09-.31-1.89-.41-2.85-.11-2.81-.21-2.58-.3-1.14-.05-2.08-.19-3.25-.22.16.14-1.11.17-3.07.04-2.73-.17.89-.06-.05-.18-.13-.02-.15-.03-.22-.05Z"/><path d="m129.54,11.88l1.07-.02,2.08-.08.77-.02-.06-.03c-.45,0-.67-.02-.29-.05.06,0,.24,0,.3-.01.59,0-.03.04-.04.06,1.08-.01,1.88-.05,2.39-.11.8-.1,1.84-.13,2.67-.12.83,0,1.46.05,1.43.07-.16.14,1.56.11,2.8.13,1.57-.07,3.12-.14,4.71-.21.69-.02,2.05-.12,1.66-.16-.32,0-1.77.08-2.14.06-1.14-.03-2.9.16-3.55.02-.87,0-1.9.02-2.03-.05-.73,0-1.51.03-1.98,0-1.61.01-3.23.03-4.82.04-3.16.03-5.88.23-9.07.26v.08c.78-.02,1.6-.05,2.01,0-.05.05-.08.1-1.27.13l.57.09,2.8-.06Z"/><path d="m73.93,3.46c.41,0,.67.03.27.05-3.17.18-1.61.23-.11.28l1.22-.04-.03-.11h-.15s.14,0,.14,0c1.11,0,3.52-.12,3.34.04,1.84-.04,3.52.07,5.57-.04.29-.02,1.58.02,1.64.08l1.94.02c.85-.09,3.3-.1,2.83-.24-.02,0,.42-.01.65-.02,1.44.23,2.05-.03,3.18.03,0-.01,0-.02,0-.04-3.32-.25-4.12-.07-5.29.05h-.25s.27,0,.27,0c-.33,0-.81-.02-1.2-.03-.39,0-.71-.02-.72-.03-.33-.27-2.76-.1-4.73-.07-2.05.03-4.41.12-6.23.05-.89-.01-.76-.11-2.31-.06l-.04.08Z"/><path d="m87.19.49h1.22c2.98-.04,2.94.09,2.63.22.98.03.93-.04,1.41-.05-.88-.15.58-.34,3.28-.32-.62-.09-.67-.18,0-.26-.68-.09-1.26-.05-1.86-.01.4.02.5.05-.04.05-.73,0-.61-.03-.69-.06-1.58-.13-3.9,0-5.58.06-2.75.09-5.74.14-8.34.35l.02.05,1.91-.06c.6-.09,1.14-.08,1.68-.06h2.27c.16-.06.3-.12,1.52-.15.82-.02,1.3,0,1.69.03.92.07-.33.15-1.13.23Z"/><path d="m143.35,11.4c.64.14,2.4-.05,3.55-.02.37.01,1.82-.07,2.14-.06.39.05-.96.14-1.66.16-1.59.07-3.15.14-4.72.21l.57.06h.77c1.06-.08,2.26-.1,3.51-.14l.94-.04.48-.03c.18-.03.29,0,.57-.13.05,0,.19-.22.14-.3,0-.1-.14-.24-.15-.22-.05-.03-.12-.07-.16-.08-.09-.03-.17-.06-.25-.07-.16-.04-.31-.07-.47-.1-.31-.05-.61-.1-.91-.13-.57-.03-.44.03-.17.11.47.15-.26.07-1.79-.09l-.03.03s-.48.02-1.42-.07c-.19-.02-.38-.03-.56-.05.18.05,1.06.17-.08.1l.05.04,2.8.3,1.39.18c.44.07.98.15,1.28.26h.01s-.08-.06-.08-.12c0-.05-.01-.13.05-.21.08-.07.04-.03.05-.05.03,0-.06.01-.09.02-.1.02-.21.03-.33.04l-.69.04-1.41.04c-.94.02-1.89.05-2.83.07.61.07,1.73.14-.5.24Z"/><path d="m89.27,13.25c.78-.04.71.12,2.1-.05,1.04-.13,2.03-.04,3.06-.11.29-.15,1.69-.17,3.17-.17,1.25,0,2.28-.06,3.23-.14.98-.08,1.41-.16.37-.19-1.39.04-2.67.04-4.16.12-4.64.25-5.15.27-8.88.31-.09,0-.27,0-.29,0-1.89.22-4.78.14-6.71.34.19.06.21.13,1.52.1.04-.05.35-.07,1.25-.1,1.89-.06,3.66-.11,5.35-.13Z"/><path d="m143.35,11.4c2.23-.09,1.11-.16.5-.24-1.47-.02-2.45-.08-4.56.05-1.51.1-4.55.07-6.97.12-3.26.08-6.69.18-9.99.22-1.45.02-2.4.05-2.24.15.16.1,1.33.06,2.63,0l2.72-.07c3.19-.02,5.92-.23,9.07-.26,1.59-.01,3.21-.03,4.82-.04.39-.02.82-.06,1.16-.06.73,0,.8.04.83.07.13.07,1.16.05,2.03.05Z"/><path d="m89.13,3.53c1.17-.12,1.97-.3,5.29-.05h2.66c.71,0,1.44-.01,1.26-.08-1.25-.13-2.88-.09-4.25-.11-5.22-.08-10.44-.13-15.69.02-1.4.04-1.6.08-2.14.13,1.81.07,4.17-.01,6.23-.05,1.97-.03,4.4-.2,4.73.07.01,0,.32.02.72.03.39,0,.86.02,1.19.03Z"/><path d="m44.27,14.3c-.31.05-.57.11-.95.16-1.27.17-1.12.14,1.54.11,4.42-.04,8.8-.24,13.15-.34,1.32-.03,3.06-.07,2.77-.19-2.48-.06-5.18.04-8.14.2-1.91.1-3.38.11-3.01-.04-1.93.11-3.53.05-5.36.11Z"/><path d="m81.15,13.38c1.93-.2,4.82-.13,6.71-.34.02,0,.2,0,.29,0,3.73-.04,4.24-.06,8.88-.31,1.49-.08,2.77-.08,4.16-.12-.59-.1-1.24-.19-3.53-.17l-1.67.13c-.62.1-1.57.12-2.91.16-1.64.06-3.63.14-5.05.19-2.87.1-5.41.33-8.14.37l.73.12c.18,0,.36-.01.54-.02Z"/><path d="m114.67,11.93c-.86.15-1.55.27,1.89.17,1.11-.03.41.04.33.07-1.69.12-3.56.15-4.77.14-3.07-.02-3.77.11-4.42.27l-.63.03c-2.02,0-5.34.09-2.19-.21.57-.05.55-.12.8-.18,1.74-.06,3.48-.12,5.21-.18,1.12-.04,1.97-.07,2.08-.15l1.94-.06c-.07.03-.04.06-.24.1Zm-5.54.3c-.07,0-.18,0-.35.02.1,0,.19,0,.35-.02Z"/><path d="m29.26,3.4c-.99,0-4.39.68-4.41.54-.01-.08,1.36-.38,1.93-.57.6-.19,3.24-.59,5.35-.81.95-.11,1.86-.16,2.81-.25.92-.08,2.04-.12,2.71-.23.71-.12-1.81.11-1.36,0-3.12.15-6.97.75-10.19,1.13-1.02.12-.78.19-1.58.34-.78.17,2.75-.34-.13.16-.95.27-3.47.79-3.05.88.6-.1,1.37-.24,1.76-.28.97-.1.98.07,3.41-.48.02,0,.89-.1,1.44-.15,1.61-.2,3.13-.4,4.48-.62-.48-.1-2.25.27-3.17.34Z"/><path d="m20.6,4.27c-.8.14-1.37.24-1.8.28-1.06.1-3.02.46-4.53.9-1.35.38-2.54.79-2.67.94-.23.28,1.48-.12,5.28-.98.93-.21,2.1-.39,3.16-.57,1.14-.31.68-.32-.59-.14-1.28.19-2.44.48-3.32.76-.32.1-1.83.49-1.72.38.1-.1-.79.04-.25-.15.33-.12.49-.22,1.52-.46,1.07-.25,1.55-.31,1.68-.28.14.03.31.03,1.51-.21,1.16-.24,1.75-.38,1.73-.45Z"/><path d="m79.88,13.27c2.73-.04,5.28-.27,8.15-.37,1.42-.05,3.41-.13,5.05-.19,1.35-.03,2.3-.06,2.91-.16-2.31-.11-5.75.13-8.59.24-4.24.16-8.58.43-12.71.48l-.34.06c.62.03,2.77,0-.51.17-1.07.05-1.68.14.17.08,1.95-.11,3.37-.32,5.88-.32Z"/><path d="m69.41,4.13c-.05-.11-.92-.14-2.9.03-1.46.12-2.41.15-3.58.16-1.21,0-3.24.25-4.38.21-2.82.29-5.92.42-8.88.69-1.01.09-1.58.15-2.04.24,2.73-.14,5.67-.37,8.84-.61,2.02-.15,4.08-.29,6.29-.37,1.93-.1,4.41-.23,6.65-.34Z"/><path d="m68.61.91l1.43-.05,2.12.02.9-.03,2.93-.19c-1.74-.12-5.18.08-7.66.16-4.92.18-9.89.36-14.84.54l-1.32.07c2.23.07,4.63.01,7.23-.17,2.11-.11,4.33-.25,5.54-.11l.96-.04.68-.03s-.04-.04-.07-.05l-.21-.02h.47s1.83-.1,1.83-.1Z"/><path d="m131.58,9.63c-1.88-.13-3.75-.27-5.66-.34-1.5-.08-2.94-.17-4.05-.29-1.01-.05-1.52-.08-2.03-.1-2.41-.13-4.75-.18-7.31-.37-1.33-.09-2.04-.01-2.44.04,7.25.38,14.5.76,21.75,1.14l-.26-.08Z"/><path d="m116.89,12.18c-1.69.12-3.56.15-4.77.14-3.07-.02-3.77.11-4.42.27,5.05-.14,10.1-.25,15.15-.48,1.22-.06,1.98,0,2.97-.03,1.37-.05,3.47-.05,3.72-.19l-2.8.06-4.6.08-5.25.15Z"/><path d="m81.74,7.26c.07-.06-.36-.14,1.75-.06,1.31.05,2.44.06,2.22-.04-5.41-.23-10.83-.42-16.45-.44l.03.05.19.04c.1,0,.21,0,.33,0,.94,0,1.88,0,2.15.08.17,0,.34,0,.51,0l1.98.07c.3-.06.97-.06,2.04,0,1.17.04,2.39-.02,3.44.08.35.03-.18.06-.76.06l-.05.03.64.09c1.16.1,1.27,0,1.98.02Z"/><path d="m107.07,12.61c-2.02,0-5.34.09-2.19-.21.57-.05.55-.12.8-.18-.96.02-.64-.03-.7-.06l-1.29.05c.4.07-1.26.16-1.31.23h.86c-.06,0-.18,0-.19,0-.24,0-.47,0-.7,0-1.15,0-.45-.1-.69-.16-1.3-.05-2.64-.01-4.01.13,2.29-.02,2.94.07,3.53.17,1.04.03.61.1-.37.19-.94.08-1.97.14-3.23.14-1.48,0-2.89.02-3.17.17,3.33-.09,6.72-.28,10-.33,1.3-.02,1.98-.08,2.64-.16Z"/><path d="m74,13.6c-1.85.06-1.25-.03-.17-.08,3.29-.16,1.13-.14.51-.17-.56.09-1.59.08-2.38.13.09.04-.51.13-1,.13-2.4,0-4.1.19-6.19.25-1.11.09-1.18.05-1.27,0-1.13-.02-1.41.04-1.74.1.1,0,.27,0,.29,0,.47.1,2.05.06,3.77,0,2.37-.09,4.02,0,6.47-.13.06,0,.31.05.47.08l2.57-.04h1.36s.15-.12.15-.12c-2.91.1-3.08,0-2.85-.14Z"/><path d="m38.56,14.94c-1.36.03-1.59-.04-2.46-.05-.56,0-1.12-.02-.78-.07.26-.04.84-.05,1.38-.06.64-.02,1.46-.03,1.89-.05.81-.05,2.09-.14,1.94-.17-.36-.07-1.52.03-2.34.04-.5,0-.96,0-1.44,0-.63-.05-1.19.02-1.78.04-.99.05-2.05.11-1.75.17,1.14.22-1.93.28-4.68.34.34.05,1.77,0,1.88.07,2.26-.07,4.4-.04,6.68-.1,1.64-.04,1.28-.09,1.47-.14Z"/><path d="m64.77,13.86c2.09-.06,3.79-.25,6.19-.25.49,0,1.09-.09,1-.13-4.19.15-8.36.29-12.55.44-2.1.08-4.31.12-6.39.16-1.26.02-2.28.06-3.38.11-.36.15,1.1.14,3.01.04,2.97-.16,5.67-.26,8.14-.2.33-.02.65-.05.98-.07.33-.06.6-.12,1.74-.1h1.27Z"/><path d="m116.89,12.18l5.25-.15.05-.08c-.72.02-1.35.02-1.24-.03.11-.05.84-.07,1.49-.09.24-.04.26-.08.27-.12-1.31.05-2.47.09-2.63,0-1.68,0-3.41.05-5.18.13-.07.03-.04.06-.24.1-.86.15-1.55.27,1.89.17,1.11-.03.41.04.33.07Z"/><path d="m97.09,3.49h-2.67s0,.03,0,.03l.15.02-.14-.02c-1.13-.06-1.74.2-3.18-.03-.23,0-.67.01-.65.02.47.14-1.98.15-2.83.24.14.04.73.04,1.26.04.7-.06,1.81-.03,2.79-.02.73.03,1.18-.11,1.57,0,.41.12,1.61.07,2.29.11,1.16-.05,1.68,0,2.07.08.69.03,1.5.13,1.93.04l.3-.05c-.81-.05-1.21-.12-2.34-.15-.77-.04-.48-.08-.54-.12-3.53-.14.47-.12,0-.2Z"/><path d="m71.16,7.25c-1.12-.08-2.4-.17-3.47-.24-2.17-.19-6.26-.19-8-.05,1.62.02,3.43.04,2.29.15,3.12.08,6.23.16,9.19.14Z"/><path d="m97.09,3.68c-3.52-.14.47-.12,0-.2.71-.01,1.44-.02,1.26-.08,2.01.04,4.14,0,5.96.21.09.01.12.02.08.03-2.65.02-2.86.18-2.73.35l-1.69-.05c-.81-.05-1.2-.12-2.34-.15.08-.04.1-.07-.54-.12Zm2.11-.07c-.42-.03-.83,0-.69.02.27.05-1.08.09.94.15,1.01,0,.93-.02.2-.07-.14-.03-.13-.07-.45-.09Z"/><path d="m50.91,4.69c.61-.05,1.13-.02,1.82-.13,1.54-.25,1.69-.15,2.2-.13.46-.02,1.06-.04,1.37-.06,1.24-.11,2.4-.23,3.31-.19.75.03-.3.14-1.05.24-1.33.18-2.36.21-3.45.22-.68,0-1.81.08-2.36.15-1.88.26-2.73.22-3.86.27.67-.12,1.33-.24,2-.36Zm7.37-.4s-.23.02-.25.02c-.03.01,0,.02.02.03l.51-.05c-.09,0-.18,0-.29,0Z"/><path d="m94.49,7.5c2.67.09,5.48.24,7.89.22.61,0,1.46.07,2.06.11,1.09.08,1.82.1,2.42.07-2.25-.21-4.99-.28-7.55-.35-3.32-.09-6.42-.34-9.77-.36-.49,0-1.08-.02-1.3,0,.68.1,1.83.16,3.16.15,1.6,0,2.36.06,3.09.16Z"/><path d="m20.6,4.27c.02.07-.57.21-1.73.45-1.2.25-1.36.24-1.51.21-.13-.03-.61.03-1.68.28-1.03.24-1.18.34-1.52.46-.54.2.35.05.25.15-.11.11,1.4-.28,1.72-.38.88-.28,2.04-.57,3.32-.76,1.27-.19,1.73-.17.59.14.43-.06.87-.12,1.29-.24-.41-.09,2.1-.61,3.06-.88-.69.08-1.33.15-1.38.1l-2.42.46Z"/><path d="m38.38,6.04c-1.74.1-3.47.26-5.18.6-1,.23-4.11.6-4.65.82l.25.09c1.14-.11,2.17-.25,3.09-.42.15-.04-.28-.02.4-.12l.22.04c.19-.02.4-.05.62-.07,2.68-.34,2.11-.48,4.58-.79.55-.08.69-.12.67-.15Z"/><path d="m143.24,11.75l-.57-.06c-1.24-.02-2.96.01-2.8-.13.03-.02-.6-.06-1.43-.07-.83,0-1.87.02-2.67.12-.5.07-1.3.1-2.39.11.05,0,.07.02.09.03l-.05.11c3.24-.02,6.44.02,9.82-.12Z"/><path d="m124.66,8.69c-.26.08,1.17.19,2.33.27,2.5.18,5.41.42,7.61.51,1.52.06,2.55.13,4.03.24.89.07.4-.04.48-.07-3.16-.27-6.22-.52-9.55-.66-1.44-.06-3.25-.2-4.9-.3Z"/><path d="m75.31,3.76l-1.22.04c-.65.07-1.55.14-1.4.21,3.3-.05,6.82-.21,10.16-.12,1.35.03,1.76-.11,2.97-.15-.06-.06-1.35-.1-1.64-.08-2.05.12-3.72,0-5.57.04-1.19.24-2.19,0-3.3.06Z"/><path d="m19.93,8.49l-.98.16c-.59.18-.57.17.46.03.45-.06,1.06-.14,1.16-.13.36.02-1.47.29-1.76.39l1.39-.15,2.15-.31,4.34-.77c-2.99.31-2.93.27.59-.36-1.54.02-2.67.3-3.84.56-1.16.19-1.7.47-3.5.57Z"/><path d="m28.53,15.11c2.75-.06,5.83-.12,4.68-.34-.29-.06.76-.12,1.75-.17-.31-.12-1.71,0-2.55,0-.6.13-.99.27-4.16.21-.52,0-1.37,0-1.58.06-.23.05.43.06,1.11.05h.3s-.26,0-.26,0l.7.17Z"/><path d="m104.31,3.61c.09.01.12.02.08.03.29.07,2.34.11,1.95.19.53.12,1.3.14,2.09.1.69-.03,1.29-.08,2.32.09.79.02,1.35.14,2.08.12.94-.02.17-.13-.62-.23-2.68-.15-5.51-.38-7.91-.31Z"/><path d="m122.48,2.98c-.88-.22-3.1-.52-3.71-.74-.29-.11-3.11-.35-4.64-.46-.25-.01-.42-.02-.62-.03l-.03.1c2.34.34,4.55.47,6.86.84l1.71.23c.22.03.37.05.43.04Z"/><path d="m82.39,7.56c-.91-.14-6.88-.42-8.8-.42-1.9,0-.69.11-1.07.17,1.2.01,2.42,0,3.56.09.25.02,1.09.05,1.14.05,1.54-.08,3.48.08,5.17.11Z"/><path d="m29.26,3.4c.91-.08,2.69-.44,3.17-.34.94-.04,1.86-.18,2.79-.29,1.54-.25,4-.41,5.83-.52-.37-.04-.33-.13-2.28.04-1.19.11-2.89.27-4.36.41l-.81.13h-.26s1.02-.13,1.02-.13c-1.22.1,2.5-.52-1.94.06-.15.08.44.09-1.31.3-.35.09-1.95.28-1.85.34Z"/><path d="m123.33,8.71s-.19-.05.38-.03c-4-.24-8.22-.57-11.69-.5l.09.05,2.62.12c2.86.12,5.73.24,8.61.36Z"/><path d="m41.05,2.25c-1.83.11-4.29.27-5.83.52.22.1,1.66-.14,2.4-.18,2.85-.19,5.8-.28,8.68-.46-.59-.18-3.42.06-5.25.12Z"/><path d="m88.44.61c-2.06.04-4.38.18-5.77.08-.53-.04-1.29.02-1.41.09-.09.05.08.08-.79.14-.28.13,1.45.03,2.37,0,2.06-.06,4.15-.13,6.23-.19-.17-.04.35-.11-.63-.12Z"/><path d="m99,.24c1.44.09,2.93.2,3.97.17.67-.03,1.06.04,1.66.11,2,.23,3.97.41,5.85.47-1.85-.28-4.18-.46-6.45-.6-1.67-.1-3.34-.18-5.01-.23l-.02.08Z"/><path d="m6.76,14.41c-.46.04-1.89.09,1.42.19,1.72.04,2.51.12,3.39.21.44.04.15.12,1.52.12,1.11,0,.85-.08.65-.13-.2-.06-.3-.11-.45-.17-2.18-.04-4.36-.1-6.53-.21Z"/><path d="m122.16,4.53c-.22.09-.26.19,2.58.3l1.99.05,1.26.07c.54,0,1.28.04,2,.07l.75-.06c.06-.07-.81-.08-1.51-.1-2.36-.11-4.72-.22-7.07-.33Z"/><path d="m20.19,8.8l-1.39.15c-1.84.32-3.77.74-5.36.89-.41.04-1.57.31-1.49.31.33-.01-2.2.51-.4.21,2.85-.59,6-.99,8.64-1.57Z"/><path d="m122.78,4.93c-.72-.01-1.8-.01-2.11-.04-1.22-.11-.06-.08.36-.09.29,0-.09-.05-.58-.08-.57-.04-1.18-.06-1.19-.02-.02.05.15.12.24.17,2.38.25,5.09.4,7.78.54l.09-.09s-.04-.02-.02-.03l-.72-.04c-1.73-.06-3.38-.14-3.86-.31Z"/><path d="m37.7,6.19c-2.46.31-1.9.45-4.58.79,1.38-.08,2.79-.16,4.58-.51.2-.05.33-.11.61-.14,4.34-.52,1.13-.24.11-.19-.1.04.02.06-.76.14l.15-.08s-.07-.02-.11-.02Z"/><path d="m21.19,15.22c-.57-.07-1.7-.15-2.85-.08-2.21.14-6.19-.12-7.66.05,3.57.11,7.08.1,10.51.03Z"/><path d="m75.33,13.86l-2.57.04-1.34.03c.01.09-1.1.13-2.18.16-2.54,0-4.91.09-7.15.26.22.03.91.05,1.37.02,3.83-.21,8.15-.21,11.87-.51Z"/><path d="m40.97,1.73c.14.12.58.18,3.11-.03,1.88-.17,4.26-.1,6.08-.25-2.74-.12-6.06.15-9.19.29Z"/><path d="m139.69,10.21c-.87-.19-2.6-.4-4.5-.61.37.15-.63.18-1.94.19,1.33.15,2.53.18,3.76.24.67-.05,1.74.09,2.67.18Z"/><path d="m69.43,1.4c-2.31-.06-7.1.12-9.97.37,2.84-.03,5.7-.18,8.55-.29.07-.08.77-.07,1.42-.08Z"/><path d="m64.05,3.97c.77-.04,1.3-.09,1.28-.13l-.85.02-.19-.03.63-.02.52.02c.79-.04,1.16-.08,1.23-.12-2.41.09-4.51.08-7.17.32.24.12,2.49,0,3.98-.02l.58-.03Z"/><path d="m53.01,14.54c-3.03.08-6.03.16-8.6.34,1.02.04,1.97.04,3.49-.06,1.92-.13,4.31-.12,6.43-.22l-.12-.08c-.39,0-.79.01-1.19.02Z"/><path d="m95.73.34c-2.71-.02-4.16.17-3.28.32h2.64c-.4-.08,1.55-.09,1.17-.18-.77-.05-.44-.09-.52-.14Z"/><path d="m26.69,7.72l-4.34.77c2.21-.27,4.4-.53,6.45-.93l-.25-.09-1.86.26Z"/><path d="m101.67,3.99l-1.69-.05-.3.05c2.46.09,4.97.24,7.26.22-.73-.09-2.24-.18-2.52-.27-.47,0-.88,0-1.28,0-.11.05-.17.1-1.47.05Z"/><path d="m99,.24l.02-.08c-1.1-.03-2.19-.08-3.29-.08-.68.08-.63.16,0,.26,1.6.03,1.22.1,1.25.16.25.04.61.07,1.23.08.73,0,.3-.04.17-.07-.5-.11-1.44-.24.62-.25Z"/><path d="m73.93,3.46l.04-.08c-2.25.05-4.71.03-6.61.28.34.05-.15.22,2.33-.03,1.08-.1,2.96-.06,4.24-.17Z"/><path d="m76.85,13.74l-.15.11c2.55-.04,4.86-.2,7.22-.34l-1.23-.02c-1.31.02-1.33-.05-1.52-.1-.18,0-.36.01-.54.02,0,.14-.39.27-3.76.34Z"/><path d="m105.68,12.22c1.74-.06,3.48-.12,5.21-.18,1.12-.04,1.97-.07,2.08-.15-2.32-.01-4.9.17-7.32.22,0,.04,0,.07.02.11Z"/><path d="m82.67,13.48l1.23.02c1.88-.03,3.84-.03,5.36-.25-1.69.02-3.46.07-5.35.13-.89.03-1.2.05-1.25.1Z"/><path d="m115.56,4.13c.07.02.09.03.22.05.94.11-2.68,0,.05.18,1.97.13,3.24.09,3.07-.04-1.15-.09-2.38-.22-3.35-.18Z"/><path d="m94.49,7.5c-.73-.09-1.49-.16-3.09-.16-1.33,0-2.48-.05-3.16-.15-.47,0-1.06-.03-1.24,0l1.14.15c2.06.09,4.09.12,6.13.19l.21-.04Z"/><path d="m61.97,7.11c1.14-.11-.66-.13-2.29-.15-1.2-.03-1.95-.01-2.46.03l.03.08c1.55,0,3.09,0,4.72.04Z"/><path d="m147.7,10.51c.3.04.6.08.91.13.16.03.31.06.47.1.08.02.17.04.25.07.04.01.11.05.16.08,0-.01.14.13.15.22.05.08-.09.29-.14.3-.29.13-.4.1-.57.13l-.48.03-.94.04c-1.24.03-2.45.06-3.51.13,1.2.03,2.4.01,3.6-.03l.91-.05.46-.04.25-.03.14-.03s.06-.02.1-.04l.06-.03s.06-.03.12-.11c.24-.3-.17-.6-.15-.56-.06-.03-.13-.07-.17-.07-.09-.03-.17-.05-.25-.07-.16-.04-.31-.06-.46-.09l-.9-.14-.02.07Z"/><path d="m3.4,12.31c-.2-.08-.97.12-1.82.5-.21.09-.43.2-.63.33-.19.11-.42.31-.41.39,0,.05.23.21.43.26.2.07.41.12.61.17-.04-.04.05-.05-.08-.1-.07-.02-.18-.07-.39-.13-.19-.04-.58-.28-.43-.22.24-.26.76-.49,1.23-.68.49-.19,1-.36,1.5-.51Z"/><path d="m118.19,4.8c-.23-.07.02-.14-1.46-.22-2-.11-.81.09-1.97.07,1.59.19,2.29.1,3.44.15Z"/><path d="m76,.65l-2.93.19c1.85-.06,1.97.02,2.23.08.15.04.59.06,1.48.02.33-.01.84-.05.95-.07.29-.06-.43-.04-.99-.04-2.04.02,1.63-.21-.14-.21-.19,0-.38.01-.58.02Z"/><path d="m58.43,6.64c1.31-.02,3.08.22,4.1.04q-.56-.13-4.1-.04Z"/><path d="m129.81,3.94c-1.69-.39-1.57-.44-1.94-.59-1.34-.26-2.8-.57-3.91-.65l.04.05c.96.17,2.65.43,2.8.54.32.22,1.69.4,3.01.66Z"/><path d="m132.64,5.55c.46-.14.11-.08-.41-.1-.52,0-1.26-.05-1.73-.09l-1.03.03-.82.11c1.36.07,2.54.09,3.99.04Z"/><path d="m21.17,14.78v-.11c-1.23-.03-2.46-.06-3.82-.02.01.06-.46.13,1.38.13,1.39,0,2.02.03,1.97.1.61-.03.42-.06.47-.1Z"/><path d="m133.26,9.8c1.31,0,2.3-.04,1.94-.19-1.35-.01-3.32-.08-3.61.02l.26.08,1.41.08Z"/><path d="m88.44.61c.98,0,.46.08.63.12l1.97-.02c.31-.13.35-.26-2.63-.21l.03.11Z"/><path d="m54.21,14.52l.12.08c1.28-.03,2.37-.09,3.3-.17-.82-.23-2.14-.05-3.43.09Z"/><path d="m98.27,8.09s.14-.04,0-.07c-.36-.07,1.53-.12-.51-.19-1.81-.07-.25.09-.51.14-.08.01-.68,0-1.04,0,.44.06.83.12,2.05.13Z"/><path d="m139.69,10.21c-.93-.08-2-.23-2.67-.18l1.44.12c.54.04,1.01.08,1.26.13l2.67.18-.55-.09-2.14-.17Z"/><path d="m17.21,9.61s-.05.03,0,.03c.23,0-.72.25.87-.05.54-.1,1.54-.37.5-.23l-1.37.25Z"/><path d="m102.38,12.45c.04-.07,1.71-.16,1.31-.23l-2.02.07c.24.05-.46.15.71.15Z"/><path d="m23.01,3.81c.05.05.69-.02,1.38-.1,2.88-.5-.65,0,.13-.16-.13.01-.29.03-.5.07l-.86.15c-.18.04-.23.05-.14.05Z"/><path d="m123.41,3.08l-1.3-.16c.56.17,2.14.39,3.12.59l.08-.06-.04-.08c-.35-.06-.62-.11-.88-.15-.11.02-.54-.06-.97-.14Z"/><path d="m30.41,15.18c-.11-.06-1.54-.02-1.97-.06l-1.05.04.84.04c.7.01,1.42,0,2.17-.02Z"/><path d="m97.74,3.96c-.39-.08-.91-.13-2.07-.08.55.05.77.15,2.07.08Z"/><path d="m132.7,11.78l-2.08.08c-.09.1,1.05.05,2.07.02v-.1Z"/><path d="m91.82,3.77c-.99,0-2.1-.04-2.79.02,1.42.09,2.17.05,2.79-.02Z"/><path d="m10.44,11.39c.62-.22,1.35-.41,2.16-.7-.69.22-1.15.2-2.16.7Z"/><path d="m141.83,10.38l.55.09,1.31.12-.05-.04c-.59-.09-1.19-.15-1.81-.16Z"/><path d="m114.91,1.48s-.02.01-.09,0c.1,0,.19.02.31.03l.19-.06-.41.02Z"/><path d="m139.71,10.29c-.25-.05-.71-.09-1.26-.13-.02.06.41.1,1.26.13Z"/><path d="m93.15.05c.07.03-.05.07.69.06.53,0,.44-.03.04-.05h-.73Z"/><path d="m125.3,3.45l-.08.06c.67.1,1.13.16,1.35.16l-1.27-.22Z"/><path d="m122.06,2.93l-1.71-.23c.71.15,1.29.23,1.71.23Z"/><path d="m105.65,12.22v-.11c-.43,0-.65.03-.67.05.06.03-.26.08.67.06Z"/><path d="m32.51,7.06l-.22-.04c-.69.1-.26.08-.4.12.21-.02.42-.05.62-.08Z"/><path d="m69.43,1.4c-.65,0-1.35,0-1.42.08.6-.01,1.19-.02,1.42-.08Z"/><path d="m94.28,7.54c-2.04-.07-4.08-.1-6.13-.19-.71-.02-1.03,0-1.09.03l-.09.11c1.13.04,1.51.09,1.1.13-.19.02-.46.05.29.08.22,0,.57.01.86.02.29,0,.52,0,.52,0-.13-.16,2.87-.07,4.04-.12.24-.01.34-.03.5-.05Z"/><path d="m51.47,6.63c-1.39-.03-2.79-.12-4.15.01,2.35-.04.43.11,2.08.14l2.63.08c-.34-.08-1.74-.16-.56-.23Z"/><path d="m121.87,9c1.11.12,2.55.21,4.05.29-.04-.04.17-.08-.19-.13-.49-.07,1.49-.02-.3-.12-1.24-.07-1,0-.87.06.06.03.06.1-.74-.02-1.47-.22-1.17-.01-1.95-.08Z"/><path d="m74.44,6.98l-1.98-.07c-.26.03-1.96.03-.46.11,1.58.08,2.12.03,2.44-.03Z"/><path d="m79.17,7.13c.58,0,1.11-.03.76-.06-1.06-.1-2.28-.04-3.44-.08.1.1,1.63.1,2.69.14Z"/><path d="m114.72,8.36l-2.62-.12c.14.07.96.14,2.01.18.81.03.55-.03.61-.06Z"/><path d="m143.72,10.44c.18.01.37.03.56.05l.08-.06c-.8-.07-1.77-.17-2.13-.14l1.48.15Z"/><path d="m71.94,6.9c-.27-.09-1.21-.08-2.15-.08l.07.07c.7,0,1.39,0,2.08,0Z"/><path d="m84.63,7.56c.14.01.28.02.41.03l.38-.02c-.17,0-.37-.02-.5-.02-.13,0-.19.01-.29.02Z"/><path d="m119.84,8.9l1.53.08c-.19-.03-.33-.07-.59-.09-.74-.05-.73,0-.94.01Z"/><path d="m79.75,7.25l-.64-.09c-1,.03-.22.06.64.09Z"/><path d="m69.86,6.89c-.36,0-.88-.02-.87,0,0,0,.26.02.39.03.6.01.43-.02.49-.04Z"/><path d="m86.97,7.48l.09-.11c-.85,0-.92.04-.09.11Z"/><path d="m104.95,8.17s-.12-.02-.21-.03c.01.02.12.02.21.03Z"/><path d="m145.7,10.56l.03-.03-1.36-.1c.43.04.88.09,1.32.13Z"/><path d="m81.75,7.26l.15.02c-.05,0-.11-.01-.15-.02Z"/><path d="m69.47,6.81l-.19-.04c-.57.01-.46.02.19.04Z"/><path d="m87.19.49c.8-.08,2.05-.16,1.13-.23-.39-.03-.87-.05-1.69-.03-1.22.03-1.36.09-1.52.15.64.04.95.09.41.17-.25.04-.19.07.53.05.87-.02,1-.06,1.13-.1Z"/><path d="m31.11,3.06c1.75-.22,1.16-.23,1.31-.3-.65.07-1.56.2-1.66.14-.05-.03-.69,0-1.26.1-.59.09-1.13.21-1.33.28-.34.11.8-.08,1.15-.11.7-.05,1.21-.08,1.8-.1Z"/><path d="m64.95,1.14c-1.21-.14-3.43,0-5.54.11,1.55.05,3.29.04,5.54-.11Z"/><path d="m66.58,1.07l-.68.03c-.11.01-.18.03-.35.04-1.27.09-2.11.17-.8.2.34.01,1.28,0,1.12-.03-.38-.07,3.78-.26.71-.25Z"/><path d="m81.16.45l-1.91.06c-.02.05-1.6.19.09.14,1.25-.03,2.12-.13,1.82-.2Z"/><path d="m72.16.88l-2.12-.02c.05.04-1.09.13-.12.13.77,0,1.61-.05,2.24-.11Z"/><path d="m35.13,2.43c.39-.02.62-.02.84-.05l.72-.09c-.2,0-.39,0-.62.02-.23.03-.5.06-.94.11Z"/><path d="m68.61.91l-1.83.09c-.09,0-.17.02-.26.02l.09.03c.82-.04,2.03-.07,2.01-.15Z"/><path d="m82.84.38c-.54-.01-1.09-.02-1.64.06l1.64-.06Z"/><path d="m39.09,1.91c.19,0,.28,0,.37-.02-.07,0-.14,0-.37.02Z"/><path d="m3.85,11.64c-.71.21-1.53.46-1.93.67-.13.12-.75.31-1.37.74-.13.11-.38.26-.31.59.12.28.33.33.49.41.33.13.64.19.86.22.33.06,1.44.33,1.95.29.31-.02-.79-.17-1.45-.33-.34-.08-.64-.15-.96-.25-.16-.05-.33-.1-.5-.2-.16-.07-.33-.28-.12-.47.43-.42,1.07-.66,1.65-.89.6-.22,1.2-.38,1.74-.47.64-.11,1.76-.46,2.42-.64,1.16-.32.2-.13-.48,0-1.09.22-2.16.47-1.98.32Z"/><path d="m21.17,14.78c-.05.03.14.07-.47.1-.15.05-1.77.05-.97.12.28.02.92.05,1.35.04,1.42-.01.48-.08.79-.12.17-.02.3-.05.56-.07.51-.04,2-.07,1.44-.11-.64-.05-1.71.04-2.69.03Z"/><path d="m16.36,14.91c-.14,0-.27-.01-.41-.02l-.38.03c.17,0,.36.01.5.01.12,0,.19-.01.29-.02Z"/><path d="m16.14,9.06l.65-.11c-.21.04-.44.08-.65.11Z"/><path d="m27.01,8.5c-.14,0-.18-.04-1.06.09.12.01.54-.03,1.06-.09Z"/><path d="m44.99,5.3l-1.35.13s.3.09-.11.14c-.73.1-1.38.19-1.13.22.12.02.52-.04.68-.07.58-.11,2.52-.28,1.99-.33-.17-.02-.07-.07-.09-.1Z"/><path d="m48.9,5.05c-.42,0-.45-.05-1.39.03-.13.01-.46.07-.42.08.19.04,1.1-.05,1.81-.11Z"/><path d="m64.05,3.97l-.58.03s-.12.07.64.03l-.06-.06Z"/><path d="m37.81,6.22l-.15.08c.78-.08.66-.1.76-.14l-.61.06Z"/><path d="m41.01,5.76l.24.02c.63-.09-.02-.03-.24-.02Z"/><path d="m49.4,6.78c-1.65-.03.27-.19-2.08-.14-.85.03-1.45.08-1.9.13-.94.11-2.09.24-.33.21,2.76-.02,2.88-.19,4.31-.21Z"/><path d="m38.33,7.46c.95-.09,2.47-.13,2.38-.22-.03-.03-.42-.06-1.49.04-1.04.1-2.56.27-2.62.31-.11.08,1.24-.1,1.73-.12Z"/><path d="m39.35,7.15c-.75.02-1.21.02-1.75.06-.68.05-1.9.16-1.94.22-.02.03.42.02,1.15-.04.78-.07,1.53-.14,2.54-.24Z"/><path d="m30.31,8.15c-.09-.01-.1-.04-.78.03-.21.02-.33.06-.49.09l1.28-.12Z"/><path d="m41.97,7.08c-.21.03-.08.02.05,0h-.05Z"/><path d="m31.57,8.06l-.3.03-.3.03c.2,0,.4-.02.6-.06Z"/><path d="m112.2,1.28c.13.07.81.17,1.77.25,1.22.11.75,0,.87-.04-1.18-.14-1.24-.03-2.64-.22Z"/><path d="m96.98.49c-.03-.05.35-.13-1.27-.16.1.05-.22.1.54.14h.73Z"/><path d="m112.19,1.28l-.14-.03c.05.01.1.02.14.03Z"/><path d="m53.01,14.54l1.2-.02c-.21-.02.4-.09-.56-.06-.55.01-.68.06-.64.09Z"/><path d="m69.23,14.09c1.08-.03,2.19-.08,2.18-.16-.81.05-1.71.1-2.18.16Z"/><path d="m129.81,3.94c-1.32-.26-2.69-.44-3.01-.66-.14-.1-1.83-.37-2.8-.54.51.17.92.32,1.56.52,1.38.42,3.94.88,6.03,1.31.26.06.4.06.71.16.29.09.51.17.65.24.17.05.14.21.12.22,0,0,.02.02.06-.04.05-.04,0-.19-.06-.23-.13-.14-.33-.23-.62-.36-.48-.19-.48-.18-.78-.18-.14,0-.12.05-1.01-.17-.27-.06-.57-.18-.86-.27Z"/><path d="m126.64,5.24l.72.04c1.27-.06-.69-.29-.62-.41l-1.99-.05c-.2.1,2.43.32,1.89.41Z"/><path d="m129.99,5.02c-.72-.03-1.46-.08-2-.07.02,0,0,.01.07.02.89.09.72.21,1.81.23,1.61.03-.18-.13.13-.18Z"/><path d="m132.74,5c-.16-.07-.37-.13-.36-.12.06.04.17.11.26.17.07.02.2.08.2.07.02-.01-.05-.07-.1-.11Z"/><path d="m123.41,3.08c.43.08.87.16.97.14-.41-.07-.98-.2-.97-.14Z"/><path d="m125.26,3.37l.27.03c-.12-.02-.24-.03-.27-.03Z"/><path d="m26.69,7.72l1.86-.26c.54-.22,3.65-.59,4.65-.82-.11-.04.15-.13-1.35.06.64,0-.44.16-1.12.27-.84.13-1.24.14-1.56.14l-1.89.25c-3.52.63-3.58.68-.59.36Z"/><path d="m29.16,7.11c.32,0,.73,0,1.56-.14.68-.11,1.77-.28,1.12-.27-1.02.13-2.29.26-2.68.41Z"/><path d="m19.93,8.49c1.81-.11,2.35-.39,3.5-.57-1.43.14-2.49.36-3.5.57Z"/><path d="m16.12,9.06l.67-.12c-.23,0-.45.04-.67.12Z"/><path d="m101.67,3.99c1.3.04,1.37,0,1.47-.05-.19-.08.49-.04,1.21,0,.41-.06.13-.16,2-.11.39-.08-1.66-.12-1.95-.19-2.65.02-2.86.18-2.73.35Z"/><path d="m122.76,4.93l.83.04c-.46-.06-.59-.04-.83-.04Z"/><path d="m122.68,11.83c-.32.04-.4.08-.49.12,1.33-.03,2.66-.07,3.99-.1,1.2-.03,1.22-.08,1.27-.13-.71,0-1.59.04-2.01,0l-2.76.11Z"/><path d="m141.32,11.35s-.09-.08-.83-.07c-.33,0-.77.04-1.16.06.47.04,1.25.02,1.98,0Z"/><path d="m125.44,11.72c.42.04,1.3,0,2.01,0-.41-.04-1.22-.02-2.01,0Z"/><path d="m133.37,11.73s.62-.05.04-.06c-.06,0-.25,0-.3.01-.38.03-.16.05.27.05Z"/><path d="m75.31,3.76c1.11-.06,2.12.17,3.3-.06.18-.16-2.23-.04-3.34-.04.02.04.03.07.04.11Z"/><path d="m89.15,3.53h-.27c.08,0,.17,0,.27,0Z"/><path d="m75.27,3.65h-.14c.05,0,.1,0,.14,0Z"/><path d="m145.7,10.56l-1.34-.13-.08.06c.94.1,1.39.12,1.42.07Z"/><path d="m76.85,13.74c3.37-.07,3.76-.2,3.76-.34l-.73-.12c-2.51,0-3.93.21-5.88.32-.24.14-.06.24,2.85.14Z"/><path d="m108.79,12.25h.29s-.12-.02-.29,0Z"/><path d="m66.78,1h-.47s.21.02.21.02c.09,0,.18-.02.26-.02Z"/><path d="m102.36,12.45c.23,0,.46,0,.7,0,0,0,.12-.01.19-.02-.29,0-.58,0-.89.02Z"/><path d="m64.77,13.86h-1.27c.09.05.15.09,1.27,0Z"/><path d="m122.19,11.95l.26-.11c-.65.02-1.38.04-1.49.09-.11.05.52.04,1.23.03Z"/><path d="m97.64,3.8c.08-.04.1-.07-.54-.12.07.04-.23.07.54.12Z"/><path d="m94.43,3.52l.14.02s-.1-.01-.14-.02Z"/><path d="m99.65,3.71c-.14-.03-.13-.07-.45-.09-.42-.03-.83,0-.69.02.27.05-1.08.09.95.15l.2-.07Z"/><path d="m99.65,3.71l-.2.07c1.01,0,.93-.02.2-.07Z"/><path d="m58.56,4.3c-.09,0-.18,0-.29,0-.01,0-.23.02-.25.02-.03.01,0,.02.02.03l.51-.05Z"/><path d="m27.83,14.94h.26c-.1,0-.2,0-.26,0Z"/><path d="m34.36,2.7l-1.02.13h.26c.27-.05.53-.1.76-.13Z"/><path d="m64.48,3.85l.85-.02c-.06-.02-.23-.03-.41-.03l-.44.05Z"/><path d="m104.35,3.94c-.72-.05-1.4-.09-1.21,0h1.21Z"/>
                  </g>
                </mask>
              </defs>
              <path class="mask" d="m11.61,6.51c6.22-1.57,15.69-3.54,27.51-4.38,3.63-.26,6.26-.32,8.2-.36C84.14.87,89.45-.3,103.96.68c15.28,1.02,29.19,3.64,29.12,4.43-.1,1.11-27.64-2.63-63.73-1.23C33.04,5.29.19,11.45.36,13.55c.22,2.7,55.11.66,69.43.22,9.6-.3,13.7-.56,22.36-.93,4.83-.2,13.77-.53,23.52-.82,26.3-.79,33.71-.48,33.72-.86.03-.94-45.43-3.87-96.94-4.35-1.56-.01-2.88-.02-3.85-.03,0,0-3.51-.03-14.78.98-10.58.94-24.64,2.15-29.67,7.68-.62.68-2.05,2.25-1.73,4.06.37,2.12,2.91,3.21,3.45,3.43"
                    mask="url(#path-mask)" stroke="black" stroke-width="2" fill="none"
                    stroke-dasharray="562.19677734375" stroke-dashoffset="562.19677734375">
              </path>
            </svg>
        