
            <svg xmlns="http://www.w3.org/2000/svg">
              <defs>
                <mask id="path-mask">
                  <g fill="white">
                    <path d="m224.23,1.7c.88-.15.32-.45.49-.68l.64.1c.52.21,1.13.35,1.63.61,1.02.53,2.92.29,3.72-.35.56.05.91-.06,1.14-.25.74.17,1.84-.23,2.42.2.16.28.82.54.27.86-.39.21-.82.32-1.45.14-.52-.15-1-.12-1.29.14h-.49c-.61.16-1.44-.66-1.91.09-.19,0-.55-.03-.55-.03-.47.65-1.6.37-2.58.31l-.02-.17c.27-.08.21-.12-.09-.14-.05.01-.1.01-.15.01l-.03-.25c.17-.02.41.01.41-.1,0-.02-.12-.07-.18-.07-.28,0-.2.1-.23.16l-.96.13c-.08,0-.16.01-.24.01.12-.14.91-.27.21-.42-.74-.16-.99.08-1.13.31-.14.24-.45.29-.95.14-.05-.35-.76-.22-1.26-.26l.02-.11c.46-.19.1-.22-.3-.24-.54-.23-.59.12-.93.13l-.07-.05.08.04c-.03.2.18.46-.81.38-.61-.05-1.14.03-1.03.35l-.61.04-.54-.4c.33-.01.48-.09.5-.21.4-.12.43-.24.04-.37-.53-.02-.7-.12-.52-.32.09-.09.21-.21-.14-.23-.2-.01-.65.08-.64.12.07.52-1.33.55-1.87.85-.11.06-.16.14-.23.21l-.09.15c-1.25.03-2.56-.13-3.67.27-.28.1-.68-.02-.96-.09-.51-.13-.85-.07-1.13.12l-2.4-.2-.04-.16c-.07-.22-.46-.32-.94-.29-.38.02-.25.19-.28.3-1.33.09-2.67.19-4.06.24l.06.05c-.02.06.09.14-.17.16-.07.09-.1.19-.44.18.12-.33-.55-.41-1.09-.46-1.17-.12-2.53-.3-3.55-.1-.71.14-1.19.16-1.88.15-.42,0-.18.22-.22.35l-4.02.05v-.24c.27-.14.2-.28.07-.43-.23-.27.11-.4.83-.39l.63-.13c.38-.02.83.03,1-.18l-.7-.07c-.09-.12-.5-.24.03-.35.28.13.56.15.85,0h1c.41.4,1.23.67,2.12.92.63-.27,1.54-.46,1.67-.87.88.05,1.75.13,2.64,0,.02.14-.07.31.1.4.23.13-.69.34.15.35.58,0,.46-.2.4-.36-.03-.07-.04-.33.34-.09.69.45.54-.18,1.14-.1.09.06.16.18.28.18.35.02.34-.11.43-.2,1.12.03,2.21-.19,3.41.01.62.11.95-.27,1.13-.51l5.51-.02c0,.08-.06.17,0,.24.17.2-.71.58.25.59.84,0,.11-.34.23-.53.03-.05.31-.08.48-.12,1.55-.29,3.23-.26,4.84-.26.47,0,1.23-.33,1.61.06.43.36,3.22.8,4.11.65Zm-5.34-.47l-.17.12c.08.01.17.04.23.03.06,0,.09-.05.13-.09-.07-.02-.13-.04-.19-.06Zm-9.15.47s-.08-.01-.13-.02c0,.05.06.05.13.02Z"/><path d="m22.45,3.15c-2.06.13-4.09-.1-6.13-.13-.27-.67-1.59-.3-2.45-.39-.17-.2-.15-.44-1.06-.25-.55.12-1.35.06-2.06.08-.57-.09,1.19-.82-.9-.48-.31-.02-.74.06-.78-.17-.02-.12-.32-.26-.59-.22-.28.04-.54.18-.63.3-.16.2.37.11.54.16.33.11.56.27.83.4-.17.16-.92.07-.88.32-.46-.36-2.07.12-2.07-.38,0-.25.66-.53.94-.83.29-.31,1.53-.37,2.52-.32.44.03.87.14,1.31.15.43.02.95.22,1.26.03.34-.2-.84-.12-.62-.36.68-.17,1.39-.24,2.18-.09.06.39.26.68,1.44.35.88-.25,1.98.3,2.83-.09h.33s.62.12.62.12c1.03.42,2.15.5,3.37.14.72.32,1.53.48,2.58.26h.44c-.05.03-.09.07-.16.09-.59.14-.99.3-.38.57.16.07.6.15.52.03-.17-.28,1.77-.37.35-.76.38-.04.95.02.94-.25h.67c.02.16-.51.3-.06.43.36.1.75.04,1.04-.08l.42.02c.86.05.91.31,1.03.57.07.15.27.26.68.27.15,0,.39-.06.44-.11.14-.15-.2-.19-.46-.25-.95-.22.77-.47-.06-.69.21-.24.74-.22,1.24-.22v.17c0,.17-.75.39.04.48.58.07.99-.14.88-.41h.76s1.05.25,1.05.25c.29.19.44.39.19.61-.12.1-.09.2.25.22.4.02.47-.1.53-.22l.57.12v.37c-.95-.04-2.03.11-2.67-.37-.24-.18-.6-.08-.66.1-.04.13.03.28-.38.36-1.67.32-3.39.34-5.14.09-1.07-.48-3.3-.46-4.65.04Zm-10.94-1.19c.11,0,.22-.05.34-.08-.09-.04-.18-.1-.29-.1-.11,0-.24.04-.44.08.18.05.29.1.39.1Z"/><path d="m123.06,2c.8-.1,1.17.13,1.58.33.21.1.07.39.71.28.52-.09.4-.29.3-.47-.09-.17-.14-.35-.21-.52l1.89-.06c0,.18-.21.43.64.4.65-.02.94.09.92.34-.07.14-.83.17-.45.38.13.07.43.15.63.14.66-.03.22-.25.36-.38.08-.07.14-.15.26-.21.24-.11.93-.18.67-.33-.3-.17-.8.1-1.25.07v-.34c1.79-.09,3.53.01,5.24.21-.28.38-.46.81-1.94.5-.24-.05-.64-.03-.74.12-.11.16.2.2.53.23.11.19.22.39.29.6l-.49.1.39.16c-1.17.24-2.26.18-3.28-.12-.27-.23-.79-.5-1.33-.27-1.03.44-2.88-.23-3.56.48-1-.18-2.05-.05-3.07-.07.04-.42-.74-.48-1.4-.36-.59.11-.93.07-1.37-.04.15-.37,1.19-.11,1.6-.34.16-.09.68.28.91.01.14-.16-.37-.31-.69-.44-.32-.13-.58-.16-1.02-.02-.56.17-1.22.29-1.72-.09-.3-.23-.85-.06-1.17.03-.56.15-.11.25.22.35.52.16,1.02.34.93.64l-.33.11c-.58-.47-1.69-.29-2.64-.34-.37-.02-1.21.15-.96-.3.06-.11-1.09.07-1.12.19-.07.25-.38.23-.79.23h-.31c-.57.09-1.25.27-1.01-.21.29-.27.28-.26-.21-.35-.21-.04-.5-.1-.54-.18-.16-.26.7-.18.84-.36.87-.05,1.79-.32,2.53.13.19.12.74-.06.71-.09-.15-.17,1.05-.24.2-.43.04-.12.13-.14.48-.12,1.14.06,2.28.25,3.44.03.16.89,1.46.18,2.22.24.87,0,1.52-.33,2.44-.25-.22.24-.88.59.66.4Zm3.63.39l-.18.11c.08.01.17.04.24.03.06,0,.09-.05.13-.08-.07-.02-.13-.04-.19-.06Z"/><path d="m253.82,2.39c1.09-.21,2.44.13,3.44-.28.9.5,2.26.07,3.33.21.3.04.42.02.63-.05.66-.2.81-1.21.07-1.33-.77-.12-1.02-.31-1.22-.59-.21-.29-.59-.58-1.32-.09-.08.05-.38.11-.51.1-1.26-.17-2.48.09-3.72.11-2.86.04-5.73.15-8.59.24v.27c.25,0,.45,0,.51.12.43-.06.93-.13,1.28-.13.85-.02,1.89-.29,2.56.09.4.22,3.33.61,3.92.46.1-.03.2-.1.18-.14-.15-.37.41-.2.66-.12.3.09.49.24.75.35.15.06.61-.04.57.1-.03.09-.29.17-.65.21-.75.07-1.82,0-1.91.49Z"/><path d="m91.28,3.63c.75-.08,1.64-.02,2.13-.34-.22-.04-.49-.13-.64-.11-.58.09-1.12.23-1.54-.08-.35-.25.14-.39.49-.56.62-.3,1.1-.16,1.61.05.32.13.84.18,1.1.08.88-.35,1.28-.02,1.8.16.34.02.76-.03.85.16.02.04-.14.13-.2.13-.44-.01-.45-.18-.65-.29l-.95.62c.62.5,1.43.18,2.19.08-.02-.17.03-.32.58-.35,0-.12.04-.24-.04-.35-.24-.33.67-.28.94-.44.07-.04.26-.08.32,0,.11.18-.19.26-.53.36-.19.06-.05.28-.06.43.3-.17,1.16.1,1.25-.24-.11-.04-.41-.07-.12-.16l.11.16c.44.08.17.39.71.38.19,0,.35-.24.52-.38,0-.1.06-.19.32-.24-.01-.04-.03-.07-.05-.11h-.29c-.48-.2-1.97-.41.06-.57.13-.01.19-.16.29-.24-.88,0-1.8.19-2.59-.18-.1-.04-1.27.25-2.06.27-.22.15-.48.17-.96.19-1.38.05-2.83-.27-4.15.09-.53-.37-1.48.05-2.04-.16-.55-.2-.99-.26-1.67-.08-.93.25-1.33.06-1.35-.32l-1.53.04c.07.24-.35.39-.66.56.7.31,1.42.62-.06.91-.19.04-.07.14.12.19.6-.24,1.47.1,1.97-.1,1.16-.47.93,0,1.08.22h.32c.03-.14.21-.22.57-.22.04-.18.29-.24.65-.25l-.03-.2c.35.02.3.12.3.21.69.2,1.74.24,1.85.68Z"/><path d="m236.48,2.16c.4,0,.67-.09.88-.21.44-.25.97-.49.15-.77-1.29-.44-1.34.24-2.01.36l-1.23-.2c-.58-.43-1.68-.04-2.42-.2l-.02-.31c.71.03,1.53-.33,2.06-.06.67.33,1.37.24,2.15.16,3.08-.31,6.18-.31,9.29-.21.06.15.05.29-.33.38h-.6s-.31-.12-.31-.12c-.09-.06-.19-.07-.28,0-1.96.09-2.23.23-1.48.75.02.02.03.04.04.05,1.73-.35,2.2.7,3.9.48.7-.09,1.64-.13,1.84.32-.46.01-.98.38-1.13.19-.3-.36-.78-.17-1.25-.17-1.68,0-3.33-.03-5.06.05-2.46.12-5.01-.02-7.53.07-.5.02-1.3.13-1.34-.25.29-.26.77-.29,1.29-.14.64.18,1.06.08,1.45-.14.65.11,1.3.25,1.93-.04Zm3.08-.88c.01.13.2.36.7.29.49-.08,1.2-.26,1.22-.4.05-.29-.58,0-.81-.06-.44.04-1.15-.21-1.11.18Zm1.46,1.07c.32,0,.89,0,.9-.23.01-.13-.2-.25-.54-.23-.36.01-.72.09-1.19.15.35.14.57.3.82.31Zm-1.89-.84h-.19s.02.04.02.04c.14,0,.14-.02.16-.04Z"/><path d="m39.06,3.33c.77-.1,1.36-.06,2.23.06,1.25.18,2.81.06,4.24.03.71-.02,1.47.14,2.14-.06v-.35c-.15-.16-.55-.41-.07-.47,1.42-.17,1.24-.8,2.23-1.07-.53,0-.99.08-1.4.2-.05,0-.1.01-.14.03-.06.16.17.37-.4.44-.45.06-.77-.01-.83-.21l-.07-.05.07.05c.66.12.68-.26,1.23-.23.03-.02.05-.04.04-.06-.62-.37-1.39-.01-2.08-.07-.88.36-1.8.34-2.73.03-.28-.09-.46-.22-.77-.01-.48.33-1.18.21-1.85.09-.96.25-.52.58-.29.89.06.08.26.2-.08.25-.29.04-.46-.04-.57-.14h-.34c.18.27-.73.39-.55.66Z"/><path d="m146.1,3.27c.61.2,1.24.36,2.07.19,1.04-.35,2.15-.41,3.33-.12.22-.16.64-.19,1.02-.26l.63.1c-.08-.11-.19-.32-.22-.32-1.14.08-1.91-.36-3.02-.32-.8.03-1.54.01-1.75-.37,0-.01-.09-.02-.13-.02l-.46.13c.14.43-.67.39-1.29.35-2.03-.11-4.07.13-6.13-.09-1.24-.13-1.31-.02-.72-.48.18-.14.3-.29.44-.44-1.18.09-2.55-.14-3.5.33.22.04.44.09.67.1.38.02.92-.24,1.09.02.07.11-.53.31-.9.43-.2.06-.58.04-.88.05-.25,0-.52,0-.64.11-.16.14.1.21.36.28.41.1.52.35,1.15.34.8.25,1.68.39,2.72.26,1.2-.37,2.6-.37,4.01-.35-.02-.1.04-.23.3-.22.45,0,.16.17.26.26.59-.35,1.21-.78,1.59.04Z"/><path d="m244.41,1.09l-.31-.12h-.14s-.14,0-.14,0c-1.96.09-2.23.23-1.48.75.02.02.03.04.04.05,1.73-.35,2.2.7,3.9.48.7-.09,1.64-.13,1.84.32.51-.2,1.42-.1,1.8-.39-.49-.24-.02-.61.24-.61.75,0,.3.32.41.5.02.04,0,.08,0,.12.58.34,1.55-.06,2.2.15.39-.12.75-.12,1.05.04.09-.49,1.16-.41,1.91-.49.36-.04.63-.12.65-.21.04-.14-.42-.03-.57-.1-.26-.11-.45-.26-.75-.35-.25-.08-.81-.25-.66.12.02.04-.09.11-.18.14-.59.15-3.51-.23-3.92-.46-.68-.37-1.71-.1-2.56-.09-.35,0-.86.07-1.28.13-.41.12-.43-.01-.5-.12v-.27s-.62,0-.62,0c.06.15.05.29-.33.38-.07.06-.13.16-.23.17-.32.03-.32-.09-.37-.17Z"/><path d="m52.57,1.56l.02.14c.25.27.44.56.75.82.66.56,1.88.63,2.88.16.12-.06.19-.15.34-.18.57-.11.61-.52.04-.68q-.24-.07-.37.2c-.06.12-.05.29-.48.29-.13,0-.28-.14-.41-.22-.81-.1-.75-.39-.93-.63.92-.15,1.87-.13,2.82-.04-.39.38.54.48.98.68l.48-.23.97-.11s.02.06.01.1c-.59.43.32.81.29,1.22h-.59s0-.04-.03-.05c-.41-.13-.34-.54-.84-.47-.75.1.09.4-.06.61l-.35.27c-1.42-.05-2.87.06-4.25-.15h-.6s-.02-.24-.02-.24l.13-.06-.17.05h-.38c-.19-.02-.46-.13-.46.07l-.61.12.09-.04.09.04c-.42-.27-1.46-.24-1.76-.68-.14-.21-1.46.18-2.18.35-.12.03-.2.08-.29.13-.16-.16-.56-.41-.08-.47,1.42-.17,1.24-.8,2.23-1.07.95-.15,1.87-.13,2.75.09Zm4.05,1.32c.03.07.09.13.15.2.04-.03.11-.07.11-.1,0-.05-.04-.11-.08-.18-.09.04-.19.07-.19.09Z"/><path d="m98.06,3.18c-.55.03-.6.18-.58.35l.51.04.4-.02c.99.08,1.94.2,2.99.04.43-.07,1.05-.08,1.56.05.56.14,1.62.15,1.8.11,1.9-.41,3.74-.2,5.57.01.67.08,1.09-.11,1.64-.11h8.42c.3,0,.61.05.78-.09.04-.42-.74-.48-1.4-.36-.59.11-.93.07-1.37-.04-.2.16-.6.12-.94.14l-.33.11c-.58-.47-1.69-.29-2.64-.34-.37-.02-1.21.15-.96-.3.06-.11-1.09.07-1.12.19-.07.25-.38.23-.79.23-.1.11-.21.11-.31,0-.57.1-1.24.27-1.01-.21h-.46c-.48.18-.98.33-1.65.11-.56.28-1.1.65-1.81.05l-.89-.02c-.19.29-.79.19-1.26.2-.7.02-.58-.19-.63-.35-.81.42-1.62.29-2.43,0-.17.13-.33.37-.52.38-.54.01-.28-.3-.71-.38-.08.34-.94.07-1.24.24h-.63Z"/><path d="m65.18,3.33c.43.22.91.34,1.56.12-.37-.2-.73-.41-.29-.64.34-.18.6.14.97.06.48.39.76.16,1.08-.04.37-.23.73-.28.97.04.87-.07.74-.37.9-.6-.13-.27-.83-.37-1.17-.58-.58-.25-1.35-.31-2.09-.2-.55.08-1.03.09-1.56.03-.54.15.02.58-.92.59-.69,0-.58-.28-.68-.46l-.62.03c.04.17.13.35.12.52,0,.11-.29.16-.56.15-.23,0-.4-.07-.27-.15.2-.12.74-.23.17-.36-.14-.03-.64.19-.98.29-.11.04-.16.15-.38.04l.39-.04c-.23-.49-1-.39-1.81-.26-.25.4.98.6.89.98,1.33-.22,1.31.1,1.21.46.53-.06.97.19,1.52.08-.08-.41.51-.77,1.43-.72,1.27.07-.41.36.03.56.06.03.07.07.1.11Z"/><path d="m179.61,2.91h.5s.97-.14.97-.14l.36-.02-.03-.1c-.21-.04-.31-.1-.14-.19.03-.01.11-.02.14-.01.28.07-.01.14-.02.2.51.02.88-.05,1.11-.24.74-.6,1.93-.12,1.91.02-.07.45.73.42,1.31.53.73-.16,1.45-.31,2.19-.47.32-.06.95-.02.77-.26-.15-.2-.83-.05-1-.11-.53-.19-1.35.39-1.65-.1-.41-.03-.88-.02-.95-.25-.34,0-.7.03-.92-.11-.75-.03-1.5-.05-2.25-.1-1.47-.09-2.74.4-4.22.24v.28c.37-.01.75-.04.94.13-.02.16-.03.32-.59.33l.27.35h1.3Z"/><path d="m84.56,3.29c-.19-.05-.31-.15-.12-.19,1.48-.29.75-.6.06-.91l-.57.03v.35s.08.05.08.05l-.07-.05c-.52-.12-1.64.14-1.55-.37-.86.04-1.64-.41-2.59-.06-.14.05-.74-.09-.76-.29l-.9-.05c-.39.29-1.54.4-1.32.84.01.02-.2.06-.3.09-.67-.7-.96.17-1.48.05v.12c1.55.65,1.92.05,2.47-.35l.12-.03-.13.03c.31.06.88.11.89.17.15.88,1.28.33,2.2.28.96-.05,2.06-.22,2.9.16.41.1.35.41,1.07.38l.02-.25Z"/><path d="m35.39,2.43l.57.12c1.39.09,1.37.47,1.22.87.46.14.43-.09.66-.12-.41-.55.28-1.02,1.54-1.07-.29-.28-.31-.56,0-.84-.32-.29-.58-.09-.86,0,.18.06.23.16-.02.17-.34.02-.28-.12-.32-.21-.73-.4-1.81-.14-2.59-.13-1.28.02-2.67-.19-3.89.12v.17s.89.06.89.06c.28-.21.53-.1.78,0l1.05.25c.08-.16.14-.33.71-.3.38.02.6.13.78.26.42.3-.16.46-.53.64Z"/><path d="m186.03,2.03c.3.49,1.12-.09,1.65.1.17.06.85-.09,1,.11.18.24-.45.19-.77.26-.74.16-1.46.31-2.19.47l.27.21h.36c.98-.36,2.24-.16,3.35-.27.26-.14.2-.28.07-.43-.23-.27.11-.4.83-.39v-.12c.02-.17.23-.25.67-.23.09,0,.18,0,.26-.02-.09-.12-.5-.24.03-.35l-.03-.12c-1.76-.06-3.51-.18-5.27.02.28.27.81.55-.23.77Z"/><path d="m160.84,3.27c.36-.01.33.48.98.11.48-.28.94.11,1.43,0,.13-.47.79-.38,1.48-.21.58.14,1.06.07,1.5-.09.45-.17.65-.36.17-.57-.65-.02-1.24-.18-1.94-.08-2.16.32-2.4.31-4.14-.05-.04,0-.12-.02-.13-.01-.88.45-2.23-.18-3.13.22.09.21.1.44.71.54.02-.15.16-.17.58-.15.88.05,1.71.14,2.49.29Z"/><path d="m186.03,2.03c1.04-.22.51-.5.23-.77-.69-.13-1.14-.37-2.12,0-.7.26-2.12,0-3.25.04-1.52.05-3.11.16-4.65,0-.67-.07-1.12-.04-1.04.29.07.33.62.31,1.23.25l1.27-.03c1.49.16,2.75-.33,4.22-.24.74.05,1.5.07,2.25.1.18-.06.38-.17.54-.16.34.02.37.16.39.28.06.23.54.22.95.25Z"/><path d="m77.49,2.55c-.55.4-.92,1-2.46.35l-1.24.15c-.33.09-.67.17-.59.36.58.31,1.34.08,1.98.08,2.43-.02,4.86.14,7.3-.04.65-.05.75-.16,1-.3-.84-.38-1.94-.22-2.9-.16-.92.05-2.05.6-2.2-.28-.01-.06-.58-.11-.88-.17Z"/><path d="m139.87,1.61c-.15.15-.26.3-.44.44-.59.46-.52.35.72.48,2.06.22,4.1-.02,6.13.09.62.03,1.43.08,1.29-.35-1.15-.45-2.41-.38-3.79-.15-.89.15-1.57.06-1.4-.41-.9.2-1.64-.14-2.5-.1Z"/><path d="m157.06,2.6c.9-.4,2.25.23,3.13-.22.01,0,.09,0,.13.01,1.74.36,1.98.37,4.14.05.69-.1,1.29.06,1.94.08-.28-.39-.58-.77-1.65-.96l-.78.25c-.29.25-.73.23-1.36.19-.76-.05-1.69,0-2.35-.03-1.34-.05-2.52.36-3.8.11l.34.5c.09,0,.17,0,.25.01Z"/><path d="m172.68,1.82c-.4.38-.72.73.88.77.52.01.19.17.15.27-.79.24-1.66.1-2.22-.05-1.43-.39-1.76-.05-2.06.39l-.29.03c-.94-.21-2.49-.31-1.02-.94.26-.11.26-.32.37-.49.81-.01,1.62-.04,2.43-.03.52,0,.92-.01.97-.26l.9.03c-.03.1-.02.2-.11.29Zm-2.58.36s-.08-.01-.16.03c.04,0,.09,0,.16-.03Z"/><path d="m8.35,2.76c-.46-.36-2.07.12-2.07-.38,0-.25.66-.53.94-.83.29-.31,1.53-.37,2.52-.32.44.03.87.14,1.31.15.43.02.95.22,1.26.03.34-.2-.84-.12-.62-.36-1.45-.42-3.26.04-4.76-.35-.47-.12-.37.23-.75.27-.37.14,1.28.34-.08.45-.46.37-1.66.57-1.48,1.08.28.03.65.04.83.11.45.18.44.8,1.6.24,0,0,.11.03.24.08s.3.09.43.11c.76.11,1.47.07,2.11-.12-.21-.48-1.06,0-1.48-.16Z"/><path d="m4.32,1.08c-.38-.02-.65-.09-.84-.23-.49-.34-1.41-.56-2.14-.35C.69.69.1,1.02.02,1.42c-.14.73.67.97,2.49.85.44-.03.99.15,1.5.24.55-.29.35-.59-.25-.8-.6-.21-1.16-.06-1.59.18-.16.09-.89.23-.82-.04.06-.24-.36-.46-.09-.69.16-.14.25-.32.74-.34.51-.02.73.14.79.3.06.18.13.32.7.31.55-.01.83-.12.83-.34Z"/><path d="m156.46,2.09c1.27.25,2.46-.17,3.8-.11.66.03,1.59-.01,2.35.03.63.04,1.07.06,1.36-.19-1.08-.6-2.68-.25-4.01-.27-1.98-.03-4,.25-5.93-.12l-.16.16c.29.18,1.29.39-.24.48-.5.03-.78.23.08.3.91-.1,1.57-.6,2.74-.27Z"/><path d="m86.68,1.59c.02.38.42.57,1.35.32.68-.18,1.12-.12,1.67.08.56.21,1.51-.21,2.04.16,1.32-.36,2.77-.04,4.15-.09.47-.02.74-.04.96-.19-1.27-.33-2.65-.35-4.13-.29-.95.03-1.9.06-2.93-.08-.9-.12-2.06.05-3.1.09Z"/><path d="m26.74,1.43h.67s.98.34.98.34l.42.02,1.37-.24c-.8-.61-2.41-.43-3.56-.46-2.29-.06-4.61.08-6.92.14l-.62.12c1.03.42,2.15.5,3.37.14.98-.11,2.02-.32,2.58.26h.45s.32-.03.32-.03c0-.09-.02-.13-.03-.17l-.1-.09.22.04.85-.08Z"/><path d="m197.2,1.41c.88.05,1.75.13,2.64,0,.7-.02,1.37,0,1.89.21.47,0,.71-.01.95-.02,1.12.03,2.21-.19,3.41.01.62.11.95-.27,1.13-.51-3.38-.09-6.76-.09-10.15.1l.13.21Z"/><path d="m173.72,2.86c-.79.24-1.66.1-2.22-.05-1.43-.39-1.76-.05-2.06.39,2.35.11,4.71.32,7.06-.05.57-.09.92.17,1.39.13.64-.06,1.62.09,1.73-.36h-1.3s-2.14-.09-2.14-.09l-2.45.04Z"/><path d="m220.44,2.01c-.03.2.18.46-.81.38-.61-.05-1.14.03-1.03.35,2.53.22,5.05.44,7.67.11l-.02-.17-.09-.14s-.1.01-.15.01c-.44.08-.87.16-1-.12-.08,0-.16.01-.24.01l-.93-.1c-.14.24-.45.29-.95.14-.55-.03-1.11.26-1.6.03-.16-.08.08-.21.35-.29l.02-.11-.3-.24c-.54-.23-.59.12-.92.13Z"/><path d="m169.14,3.22c-.94-.21-2.49-.31-1.02-.94.26-.11.26-.32.37-.49-.45-.03-.3-.17-.33-.27l-.6.04c.19.26-.59.37-.61.6l.4.05s-.09.04-.09.04c-.11-.03-.22-.06-.33-.09-.53-.16-.21-.39-.32-.59-.61-.29-1.23-.33-1.87,0,1.07.18,1.37.56,1.65.96.48.21.28.4-.17.57-.44.16-.92.24-1.5.09-.69-.17-1.34-.26-1.48.21,1.55.06,3.13-.15,4.66.05.6.08.92-.06,1.23-.22Z"/><path d="m153.72,2.35c-.86-.07-.58-.27-.08-.3,1.53-.09.53-.29.24-.48-.26.23-.74.06-1.11.1.04.15-.24.37-.47.31-1.12-.3-1.91.18-2.89.15-.52.19-.55.03-.59-.12-.53-.19-.66-.02-.81.14.05,0,.13.01.13.02.22.38.95.4,1.75.37,1.1-.04,1.87.39,3.02.32.03,0,.14.21.22.32l1.2.22.64.13.07-.34c-1.36-.06-1.44-.42-1.33-.84Z"/><path d="m137.21,3.28c-.63.01-.74-.24-1.15-.34-.26-.07-.52-.14-.36-.28.12-.11.39-.1.64-.11.3-.01.68.01.88-.05.38-.12.97-.32.9-.43-.17-.26-.71,0-1.09-.02-.23-.01-.45-.07-.67-.1-.29-.19-.55,0-.83.01-.46.1-.95.24-.82.44.53.79-.9.79-2.18.87.16.17.82.09.88.31,1.05-.13,2.05.1,3.11.06.76-.03.6-.2.68-.35Z"/><path d="m149.42,2.13c.97.04,1.77-.45,2.89-.15.23.06.51-.15.47-.31-1.95-.03-3.9,0-5.85.08-.98.04-2.01-.03-2.98-.11-.59-.05-1.06,0-1.58.06-.17.47.51.56,1.4.41,1.38-.23,2.64-.3,3.79.15l.46-.13c.15-.15.28-.33.81-.13l.59.12Z"/><path d="m173.72,2.86l2.45-.04.02-.25c-.33,0-.63-.04-.58-.19.05-.15.39-.15.69-.16.11-.12.12-.25.13-.38-.61.06-1.15.08-1.23-.25-.78-.13-1.59-.13-2.41-.05-.03.1-.02.2-.11.29-.4.38-.72.73.88.77.52.01.19.17.15.27Z"/><path d="m73.78,3.05l1.24-.15v-.12s-.07-.05-.07-.05l.06.05c.53.12.81-.76,1.48-.05.11-.03.31-.07.3-.09-.22-.44.92-.55,1.32-.84-.07-.14-.34-.12-.59-.12-.32.19-.84.13-1.3.15-.34-.08-.55.42-.73.08-.19-.36-.75-.13-1.07-.22-.54.24-.78.1-.97-.12-.32-.05-.7-.29-.9.04l-.14.19c.38.08.56.28,1.09.28.36.08.22.22.25.34,1.64.22-.22.43,0,.64Z"/><path d="m225.36,1.12c.52.21,1.13.35,1.63.61,1.02.53,2.92.29,3.72-.35-.76.01-1.6.05-1.07-.43-1.45-.08-2.9-.16-4.28.17Z"/><path d="m73.78,2.42c1.64.22-.22.43,0,.64-.33.09-.67.17-.59.36-.94.03-1.93.37-2.77-.09-.04-.02-.05-.05-.04-.08,1.23-.37,1.33-.9,1.27-1.45h.79c.38.08.56.28,1.09.27-.04.13-.05.25.25.34Zm-.98.39c.2.06.39-.05.32-.11-.12-.14.5-.4-.44-.4-.47.06-.43.15-.09.25.06.09.06.21.21.26Z"/><path d="m95.29,3.45c-.29,0-.52-.24-.85-.04-.72.44-.79.05-1.03-.12-.22-.04-.49-.13-.64-.11-.58.09-1.12.23-1.54-.08-.35-.25.14-.39.49-.56.62-.3,1.1-.16,1.61.05.32.13.84.18,1.1.08.88-.35,1.28-.02,1.8.16l-.94.62Zm-3.43-.47s.11-.02.11-.03c.01-.03,0-.06,0-.09l-.24.05s.08.05.13.07Z"/><path d="m214.51,2.58c-1.25.03-2.56-.13-3.67.27-.28.1-.68-.02-.96-.09-.51-.13-.85-.07-1.13.12,1.06.39,2.33.23,3.52.15,1.54-.11,3,.33,4.55.04.23-.04.5-.04.6-.16-.32-.27-.86-.34-1.47-.17-.74.21-1.1.06-1.44-.16Z"/><path d="m4.32,1.08c0,.22-.28.33-.83.34-.57.01-.64-.13-.7-.31-.06-.17-.28-.32-.79-.3-.49.02-.57.2-.74.34-.27.23.15.45.09.69-.07.28.66.13.82.04.43-.24.99-.38,1.59-.18.59.2.8.51.25.8.2.08.41.13.61,0-.18-.5,1.02-.71,1.48-1.08-.32-.11-.62-.22-.64-.41l-1.14.05Z"/><path d="m101.16,2.95c.81.29,1.62.42,2.43,0,.48-.36,1.94-.27,2.2-.73l-.11-.4c-.53-.13-1.02-.1-1.45.07-.07.07.13.18-.19.22l-.1-.22c-.09-.02-.19-.03-.29-.02-1.26.07-1,.73-2.16.84-.26.05-.33.14-.32.24Z"/><path d="m185.99,3.17l-.27-.21c-.58-.11-1.38-.09-1.31-.53.02-.14-1.17-.62-1.91-.02-.23.19-.61.26-1.11.24.02.03.03.06.04.1l-.02.37c1.51.14,3,.39,4.58.06Z"/><path d="m200.46,3.16c.12-.33-.55-.41-1.09-.46-1.17-.12-2.53-.3-3.55-.1-.71.14-1.19.16-1.88.15-.42,0-.18.22-.22.35,1.47.08,2.91.24,4.45.02.67-.09,1.52.02,2.29.04Z"/><path d="m83.93,2.21l.57-.03c.31-.17.72-.32.66-.56-1.54-.18-3.18.12-4.74-.23-.63-.14-.82.33-1.39.45.03.2.63.34.76.29.96-.35,1.73.1,2.59.06.56-.71,1.02.11,1.54.02Z"/><path d="m109.83,2.97h.46c.29-.26.28-.25-.21-.34-.21-.04-.5-.1-.54-.18-.16-.26.7-.18.84-.36l-.65-.24-1.01-.08-2.05.45c1.4.37,1.37.46-.29.92.71.6,1.25.23,1.81-.05.55-.05.81-.7,1.65-.12Z"/><path d="m132.54,3.26c1.28-.08,2.71-.08,2.18-.87-.14-.2.36-.34.82-.44-.15-.41-.8-.07-1.19-.12-.28.38-.46.81-1.94.5-.24-.05-.64-.03-.74.12-.11.16.2.2.52.22l.14-.02-.12.03.33.58Z"/><path d="m70.42,3.33s-.05-.05-.04-.08c-.13-.19-1.09-.08-.91-.38-.25-.32-.6-.27-.97-.04-.32.2-.6.43-1.08.04-.37.07-.63-.25-.97-.06-.44.23-.08.44.29.64,1.25.04,2.57.4,3.69-.12Z"/><path d="m51.9,3.21c-.42-.27-1.46-.24-1.76-.68-.14-.21-1.46.18-2.18.35-.12.03-.2.08-.29.13v.35c1.09.27,2.13-.18,3.22-.03l.81-.05c.11,0,.17-.03.2-.07Z"/><path d="m220.12,1.05c.43.36,3.22.8,4.11.65.88-.15.32-.45.49-.68-.56.06-1.12.21-1.66-.02-.12-.05-.51-.09-.53-.07-.71.43-1.62.05-2.41.12Z"/><path d="m8.35,2.76c.43.16,1.27-.31,1.48.16.44.21.87.09,1.31.01.73-.33,1.88-.14,2.73-.31-.17-.2-.15-.44-1.06-.25-.55.12-1.35.06-2.04.09l-.38.15-.12-.07.48-.09c-.57-.09,1.19-.82-.9-.48-.07.19.2.44-.63.47-.17.16-.92.07-.88.32Z"/><path d="m201.07,2.83c-.02.06.09.14-.17.16,1.87.06,3.84.47,5.45-.3l-.04-.15h-1.22c-1.33.11-2.67.21-4.01.3Z"/><path d="m13.88,2.63c-.86.17-2-.02-2.73.31.1.38.77.08,1.12.12,1.33.14,2.71.05,4.06-.04-.27-.67-1.59-.3-2.45-.39Z"/><path d="m35.96,2.93c-.96-.04-2.05.11-2.69-.37-.24-.18-.6-.08-.66.1-.04.13.03.28-.38.36-.13.38.67.27,1.1.3.96.05,1.94.04,2.91.06-.08-.15.17-.33-.29-.45Z"/><path d="m40.89,1.66c.67.11,1.37.24,1.85-.09.31-.21.5-.08.77.01.93.31,1.86.34,2.73-.03-.87-.34-1.95-.29-3.01-.26-.78.03-1.55.07-2.33.1v.26Z"/><path d="m122.39,1.59c-.22.24-.88.59.66.4.8-.1,1.17.13,1.58.33.21.1.07.39.71.28.52-.09.4-.29.3-.47-.09-.17-.14-.35-.21-.52l-3.05-.03Z"/><path d="m62.1,3.3c.1-.35.12-.67-1.21-.46l-.93.23h-.59c-.25.13-.6.11-.93.1l-.35.27c-.03.24.38.18.71.15l3.3-.29Z"/><path d="m109.72,1.85l.65.24c.87-.05,1.79-.32,2.53.13.19.12.74-.06.71-.09-.15-.17,1.05-.24.2-.43-1.36.08-2.84-.36-4.09.15Z"/><path d="m61.8,2.13c.34-.1.84-.32.98-.29.57.13.03.24-.17.36-.13.08.04.15.27.15.27,0,.55-.04.56-.15,0-.17-.07-.35-.12-.52-1.11-.34-2.38-.27-3.63-.22l-.04.3s.02.06.01.1h.33c.81-.12,1.58-.21,1.8.27Z"/><path d="m101.48,2.71c1.16-.11.9-.77,2.16-.84-.64-.3-1.3-.56-2.14-.09-.09.08-.16.23-.29.24-2.04.16-.54.37-.06.56.05-.08,0-.2.36-.19l-.07.2s.03.07.05.11Z"/><path d="m129.13,3.42c-.27-.23-.79-.5-1.33-.27-1.03.44-2.88-.23-3.56.48,1.66.05,3.29-.02,4.89-.21Z"/><path d="m154.34,3.39l-1.2-.22-.63-.1c0,.29-.51.27-1.02.26-1.18-.28-2.29-.23-3.33.12.1.13.42.25.64.21,1.79-.31,3.8.16,5.53-.28Z"/><path d="m13.87.98c.06.39.26.68,1.44.35.88-.25,1.98.3,2.83-.09-1.27-.54-2.82-.25-4.27-.26Z"/><path d="m193.41,1.36c.41.41,1.23.68,2.12.92-.18-.41.28-.74.88-1.06-.62-.21-1.18-.02-1.75.06-.31.33-.81.11-1.25.08Z"/><path d="m27.1,3.11c-1.07-.48-3.3-.46-4.65.04,1.32.23,2.65.04,3.98.05.04-.24.36-.15.66-.09Z"/><path d="m89.17,2.94c-.36.01-.61.07-.6.23l.39.08.09.13-.29-.04-.24-.15c-.37,0-.54.08-.57.22,1.12.05,2.1.45,3.34.23-.11-.43-1.15-.48-1.85-.68h-.27Z"/><path d="m143.95,3.19c-1.41-.02-2.81-.02-4.01.35.47.21.92.3,1.62.08.89-.27,2.01-.02,3-.12l-.06-.27c-.18-.01-.37-.03-.56-.04Z"/><path d="m39.37,2.23c-1.26.05-1.94.53-1.54,1.07l1.23.02c-.19-.27.72-.39.55-.65-.36-.13-.21-.29-.24-.44Z"/><path d="m106.66,2.22l2.05-.45c-1.03-.2-2.06-.35-3.03.05l.11.4h.87Z"/><path d="m71.65,1.81h.79s.14-.2.14-.2c-1.15-.08-2.32-.28-3.38.08.34.21,1.05.3,1.17.58.22-.05.41-.09.6-.12.05-.17.08-.34.69-.34Z"/><path d="m40.89,1.66v-.26s-1.52-.01-1.52-.01c-.32.28-.29.56,0,.84.75.03.57.25.58.43.12.09.29.18.57.14.34-.05.14-.17.08-.25-.23-.32-.67-.64.29-.89Z"/><path d="m84.56,3.29l-.02.25c1.05.02,2.19.39,3.08-.13-.15-.22.08-.69-1.08-.22-.5.21-1.38-.14-1.97.1Z"/><path d="m155.05,3.19l-.07.34c1.19.23,2.26-.01,3.36-.15l-.58-.24c-.61-.11-.62-.33-.71-.54-.08,0-.17-.01-.25-.01,0,.46-.18.84-1.75.6Z"/><path d="m168.49,1.79c.81-.01,1.62-.04,2.43-.03.52,0,.92-.01.97-.26-1.08-.3-2.28,0-3.41-.08,0,.12,0,.24.01.36Z"/><path d="m157.77,3.14l.58.24c.88.15,1.79.43,2.5-.1-.79-.15-1.61-.24-2.49-.29-.42-.02-.56,0-.58.15Z"/><path d="m65.18,3.33s-.04-.08-.1-.11c-.44-.2,1.25-.49-.03-.56-.92-.05-1.51.31-1.43.72.54.06,1.11.27,1.56-.05Z"/><path d="m214.51,2.58c.35.22.7.37,1.44.16.62-.17,1.15-.1,1.47.17.22-.03.49-.01.57-.13l-.54-.4c-.96-.1-1.9.04-2.86.05l-.09.15Z"/><path d="m229.63.95c-.53.48.32.44,1.07.43.56.05.91-.06,1.14-.25l-.02-.31c-.72.09-1.43.18-2.2.13Z"/><path d="m189.7,2.91c-1.11.11-2.37-.09-3.35.27,1.12.29,2.23-.04,3.35-.03v-.24Z"/><path d="m117.73,1.61c.16.89,1.46.18,2.22.24-.05-.17.17-.43-.75-.31-.46.06-.98.05-1.47.07Z"/><path d="m63.94,1.65c.11.18,0,.46.68.46.94,0,.38-.44.92-.59-.74-.34-1.07.08-1.6.13Z"/><path d="m30.18,1.55l-1.37.24c.86.05.91.31,1.03.57.07.15.27.26.68.27.15,0,.39-.06.44-.11.14-.15-.2-.19-.46-.25-.95-.22.77-.47-.06-.69-.09-.02-.18-.02-.27-.02Z"/><path d="m231.31,2.48c-.61.16-1.44-.66-1.91.09q.27.44,1.91-.09Z"/><path d="m55.34,2.09c-.81-.1-.75-.39-.93-.63-.63-.02-1.33-.2-1.84.1l.02.14c.45.06,1.25-.05,1.32.19.16.53.81.31,1.43.2Z"/><path d="m57.23,1.43c-.39.38.54.48.98.68l.48-.23.38-.49c-.63-.07-1.19.22-1.84.05Z"/><path d="m129.11,1.97v-.34c-.57-.1-1.15-.19-1.78-.07,0,.18-.21.43.64.4.65-.02.94.09.92.34.28-.09.19-.21.22-.32Z"/><path d="m196.41,1.22c-.61.32-1.06.65-.88,1.06.63-.27,1.54-.46,1.67-.87l-.13-.21-.66.03Z"/><path d="m35.96,2.93c.46.12.21.3.29.45l.92.05c.15-.41.17-.78-1.22-.87v.37Z"/><path d="m144.5,3.23l.06.27c.6.01,1.11-.07,1.54-.23-.38-.82-1-.39-1.6-.04Z"/><path d="m212.72,1.08c0,.08-.06.17,0,.24.17.2-.71.58.25.59.84,0,.11-.34.23-.53.03-.05.31-.08.48-.12-.21-.15-.39-.31-.96-.17Z"/><path d="m193.41,1.36c.44.03.94.25,1.25-.08l-.67-.06c-.25.01-.47,0-.59-.1l-1.25.12.26.13h1Z"/><path d="m250.57,2.2s.02-.08,0-.12c-.11-.18.34-.49-.41-.5-.26,0-.73.37-.24.61l.65.02Z"/><path d="m166.95,2.15c.02-.23.8-.34.61-.6l-.94.02c.11.2-.21.43.33.58Z"/><path d="m5.46,1.03c.02.18.31.3.64.41,1.36-.1-.29-.31.08-.45-.06-.03-.14-.05-.24-.03h-.41c-.08.02-.11.04-.07.07Z"/><path d="m52.33,3.09l-.61.12c.27.27,1.02.19,1.48.31l.03-.24-.02-.24c-.17-.01-.29-.01-.42-.01-.05.14-.26.1-.46.06Z"/><path d="m133.42,3.57c-.05-.22-.72-.14-.92-.29l-.49.1.39.16c.32.07.66.09,1.01.03Z"/><path d="m73.48,1.57c.18.22.43.36.97.12-.26-.12-.36-.44-.97-.12Z"/><path d="m181.08,2.77l-.97.13c-.04.32.49.24.97.2v-.34Z"/><path d="m76.24,1.83c.46-.01.98.05,1.3-.15-.66-.25-1.01-.1-1.3.15Z"/><path d="m253.82,2.39c-.3-.15-.66-.16-1.05-.04.34.05.54.51,1.05.04Z"/><path d="m192.41,1.37l-.26-.13h-.61s.03.13.03.13c.28.13.56.15.85,0Z"/><path d="m48.32,1.63s0,.04-.04.06c.04-.02.09-.03.14-.03l.09-.26-.19.23Z"/><path d="m193.39,1.12c.12.1.34.12.59.1,0-.2-.2-.23-.59-.1Z"/><path d="m38.17,1.36c.03.09-.02.22.32.21.25-.01.2-.11.02-.17l-.34-.04Z"/><path d="m53.23,3.29l-.03.24c.32-.04.54-.11.64-.24h-.6Z"/><path d="m51.7,3.28l-.81.05c.34.16.61.15.81-.05Z"/><path d="m168.47,1.78v-.36c-.2-.02-.3.01-.31.09.03.1-.12.24.31.26Z"/><path d="m103.93,1.89l.1.22c.32-.04.12-.15.19-.22-.1-.02-.2-.02-.29,0Z"/><path d="m27.1,3.11c-.3-.06-.63-.15-.66.09.28.04.56.07.66-.09Z"/><path d="m214.6,2.43c.95,0,1.9-.15,2.86-.05.33-.01.48-.09.5-.21l.04-.37c-.53-.02-.7-.12-.52-.32.09-.09.21-.21-.14-.23-.2-.01-.65.08-.64.12.07.52-1.33.55-1.87.85-.11.06-.16.14-.23.21Z"/><path d="m234.54,2.2c.65.11,1.3.25,1.93-.04-1.09-.02-.21-.52-.98-.62l-1.23-.2c.16.28.82.54.27.86Z"/><path d="m201.73,1.62c-.52-.21-1.19-.23-1.89-.21.02.14-.07.31.1.4.23.13-.69.34.15.35.58,0,.46-.2.4-.36-.03-.07-.04-.33.34-.09.69.45.54-.18.91-.1Z"/><path d="m223.85,2.34l.93.1c.12-.14.91-.27.21-.42-.74-.16-.99.08-1.13.31Z"/><path d="m221.65,2.22c-.27.07-.51.21-.35.29.5.24,1.06-.06,1.6-.03-.05-.35-.76-.22-1.26-.26Z"/><path d="m205.08,2.54h1.22c-.07-.23-.46-.33-.94-.3-.38.02-.25.19-.28.3Z"/><path d="m191.53,1.72c-.08.01-.17.02-.26.02l-.03.22c.37-.02.83.03.99-.18l-.7-.07Z"/><path d="m225.01,2.43c.13.28.57.2,1,.12l-.03-.25c-.33.04-.65.09-.97.13Z"/><path d="m219.09,1.29c-.07-.02-.13-.04-.19-.06l-.17.12c.08.01.17.04.23.03.06,0,.09-.05.13-.09Z"/><path d="m202.68,1.6h-.71c.09.08.16.19.28.2.35.02.34-.11.43-.2Z"/><path d="m221.37,1.88l.3.24c.46-.19.1-.22-.3-.24Z"/><path d="m225.98,2.3c.17-.02.41.01.41-.1,0-.02-.12-.07-.18-.07-.28,0-.2.1-.22.17Z"/><path d="m218,1.8l-.04.37c.4-.12.43-.24.04-.37Z"/><path d="m209.62,1.69c0,.05.06.05.1.06,0-.05-.06-.05-.1-.06Z"/><path d="m190.61,1.96v.12s.62-.13.62-.13c-.2,0-.41,0-.62,0Z"/><path d="m220.44,2.01l-.07-.05s.05.03.07.05Z"/><path d="m226.17,2.54l.09.14c.27-.08.21-.12-.09-.14Z"/><path d="m35.39,2.43c.37-.19.96-.35.53-.64-.18-.13-.4-.24-.78-.26-.57-.03-.63.14-.71.3.29.19.44.39.19.61-.12.1-.09.2.25.22.4.02.47-.1.53-.22Z"/><path d="m9.23,2.45c.82-.03.55-.29.63-.47-.3-.02-.74.06-.78-.17-.02-.12-.32-.26-.59-.22-.28.04-.54.18-.63.3-.16.2.37.11.54.16.33.11.56.27.83.4Z"/><path d="m25.03,1.75c-.55-.58-1.59-.37-2.58-.26.72.32,1.53.48,2.58.26Z"/><path d="m25.79,1.72l-.32.03c-.05.03-.09.08-.16.1-.59.14-.99.3-.38.57.16.07.6.15.52.03-.17-.28,1.77-.37.34-.72Z"/><path d="m32.59,1.58l-.89-.06c-.01.16-.75.39.03.48.58.07.99-.14.85-.41Z"/><path d="m28.39,1.77l-.98-.33c.02.14-.51.28-.06.41.36.1.75.04,1.04-.08Z"/><path d="m11.13,1.86c.18.05.29.1.39.1.11,0,.22-.05.34-.08-.09-.04-.18-.1-.29-.1-.11,0-.24.04-.44.08Z"/><path d="m26.74,1.43l-.85.08-.12.05.04.12c.38-.04.95.02.94-.25Z"/><path d="m33.37,1.58c-.25-.1-.5-.22-.76,0h.76Z"/><path d="m12.99,1.28c.09.03.13.01.17,0-.03-.01-.06-.02-.17,0Z"/><path d="m117.45,3.3c.34-.02.74.01.94-.14.15-.37,1.19-.11,1.6-.34.16-.09.68.28.91.01.14-.16-.37-.31-.69-.44-.32-.13-.58-.16-1.02-.02-.56.17-1.22.29-1.72-.09-.3-.23-.85-.06-1.17.03-.56.15-.11.25.22.35.52.16,1.02.34.93.64Z"/><path d="m129.11,1.97c-.02.11.06.24-.22.32-.07.14-.83.17-.45.38.13.07.43.15.63.14.66-.03.22-.25.36-.38.08-.07.14-.15.26-.21.24-.11.93-.18.67-.33-.3-.17-.8.1-1.25.07Z"/><path d="m126.87,2.45c-.07-.02-.13-.04-.19-.06l-.18.11c.08.01.17.04.24.03.06,0,.09-.05.13-.08Z"/><path d="m111.61,3.19h-.31c.1,0,.21,0,.31,0Z"/><path d="m245.95.98c.06.1.08.23.5.12-.06-.11-.25-.12-.5-.12Z"/><path d="m98.06,3.18h.63c0-.14-.14-.36.06-.42.34-.11.65-.18.53-.36-.06-.09-.24-.05-.32,0-.27.16-1.18.11-.94.44.08.11.03.23.04.35Z"/><path d="m96.24,2.82c.19.11.21.28.65.29.06,0,.22-.09.2-.13-.09-.19-.51-.15-.85-.16Z"/><path d="m89.17,2.94h.27c0-.08.06-.18-.3-.2l.03.2Z"/><path d="m101.43,2.6l.07-.2c-.36,0-.31.1-.36.19h.29Z"/><path d="m99.93,2.95l-.11-.16c-.3.09,0,.11.11.16Z"/><path d="m235.5,1.54c.77.1-.12.6.98.62.4,0,.68-.09.88-.21.44-.25.97-.49.15-.77-1.29-.44-1.34.24-2.01.36Z"/><path d="m240.66,1.1c-.44.04-1.15-.21-1.11.18.01.13.2.36.7.29.49-.08,1.2-.26,1.22-.4.05-.29-.58,0-.81-.06Z"/><path d="m240.19,2.05c.35.14.57.3.82.31.32,0,.89,0,.9-.23.01-.13-.2-.25-.54-.23-.36.01-.72.09-1.19.15Z"/><path d="m244.41,1.09c.04.09.05.2.37.17.1,0,.15-.11.23-.17h-.6Z"/><path d="m238.96,1.55c.1-.04.04-.05-.02-.05l.02.05Z"/><path d="m243.82.98h.14s.14,0,.14,0c-.09-.06-.19-.07-.28,0Z"/><path d="m47.05,1.93c.06.2.38.27.83.21.57-.07.35-.28.4-.44-.55-.03-.58.35-1.23.23Z"/><path d="m39.95,2.67c-.01-.18.16-.4-.59-.44.05.15-.11.32.25.44h.34Z"/><path d="m47.05,1.93l-.07-.05s.05.03.07.05Z"/><path d="m143.95,3.19l.56.04c-.1-.09.19-.26-.26-.26-.26,0-.32.12-.3.22Z"/><path d="m151.5,3.33c.5.01,1.02.04,1.02-.26-.38.06-.79.1-1.02.26Z"/><path d="m55.34,2.09c-.63.11-1.27.33-1.43-.2-.07-.24-.87-.13-1.32-.19.25.27.44.56.75.82.66.56,1.88.63,2.88.16.12-.06.19-.15.34-.18.57-.11.61-.52.04-.68q-.24-.07-.37.2c-.06.12-.05.29-.48.29-.13,0-.28-.14-.41-.22Z"/><path d="m60,1.87h-.33c-.59.42.32.8.29,1.21l.93-.23c.09-.38-1.14-.58-.89-.98Z"/><path d="m58.44,3.18c.34,0,.68.03.93-.09,0-.02,0-.05-.03-.06-.41-.13-.34-.54-.84-.47-.75.1.09.4-.06.61Z"/><path d="m56.8,2.79c-.09.04-.19.07-.19.09.03.07.09.13.15.2.04-.03.11-.07.11-.1,0-.05-.04-.11-.08-.18Z"/><path d="m52.33,3.09c.2.03.41.07.46-.06-.19-.02-.47-.13-.46.06Z"/><path d="m53.21,3.04l.13-.06c-.06.02-.11.03-.13.06Z"/><path d="m106.66,2.22h-.87c-.26.47-1.72.38-2.2.74.05.16-.08.37.63.35-.3-.23.21-.34.53-.41.39-.08.58.09.73.21l.89.02c1.66-.46,1.69-.55.29-.92Z"/><path d="m105.48,3.11c-.15-.13-.34-.3-.73-.21-.32.07-.83.18-.53.41.48,0,1.07.09,1.26-.2Z"/><path d="m109.83,2.97c-.84-.58-1.11.07-1.65.12.67.22,1.17.07,1.65-.12Z"/><path d="m111.61,3.19h-.32c.11.11.21.11.32,0Z"/><path d="m71.65,1.81c-.61,0-.64.17-.69.34.09.24-.23.19-.56.12-.19.24-.06.54-.93.61-.18.3.78.19.91.38,1.23-.37,1.33-.9,1.27-1.44Z"/><path d="m61.81,2.13l-.39.04c.22.11.27,0,.39-.04Z"/><path d="m176.41,2.22c-.15.11-.19.22-.23.34.62,0,1.24-.01,1.86-.02.56-.01.57-.17.59-.33-.33-.02-.74.03-.94-.13l-1.29.14Z"/><path d="m185.09,1.78c-.01-.12-.05-.26-.39-.28-.15,0-.36.1-.54.16.22.14.58.11.92.11Z"/><path d="m177.69,2.08c.2.16.6.11.94.13-.19-.17-.57-.14-.94-.13Z"/><path d="m181.39,2.65c0-.07.29-.14.02-.2-.03,0-.12,0-.14.01-.18.09-.07.14.13.19Z"/><path d="m83.93,2.21c-.52.09-.98-.73-1.54-.02-.09.51,1.04.24,1.55.37v-.35Z"/><path d="m77.48,2.55l.13-.03s-.08.02-.13.03Z"/><path d="m83.94,2.56l.07.05-.07-.05Z"/><path d="m190.61,1.96h.63s.03-.23.03-.23c-.44-.02-.65.06-.66.23Z"/><path d="m155.05,3.19c1.57.23,1.75-.15,1.75-.6l-.34-.5c-1.17-.33-1.83.17-2.74.27-.11.41-.03.78,1.33.84Z"/><path d="m169.94,2.21h.13s-.06-.04-.13,0Z"/><path d="m166.94,2.16c.11.03.21.06.33.09,0,0,.06-.03.09-.04-.13-.02-.27-.03-.41-.05Z"/><path d="m149.42,2.13l-.59-.12c.04.15.07.32.59.12Z"/><path d="m176.18,2.56l.12-.35c-.3,0-.64,0-.69.16-.05.16.24.19.57.19Z"/><path d="m73.53,2.08c-.04.13-.05.25.25.34-.03-.12.11-.26-.25-.34Z"/><path d="m75.02,2.78l-.06-.05.06.05Z"/><path d="m72.59,2.55c.06.09.06.21.21.26.2.06.39-.05.32-.11-.12-.14.5-.4-.44-.4l-.09.25Z"/><path d="m72.59,2.55l.09-.25c-.47.06-.43.15-.09.25Z"/><path d="m91.72,2.9s.08.05.13.07c0,0,.11-.02.11-.03.01-.03,0-.06,0-.09l-.24.05Z"/><path d="m132.22,2.68l.12-.03s-.09.02-.12.03Z"/><path d="m10.75,2.46l-.48.09.12.07c.13-.05.25-.1.36-.16Z"/><path d="m88.96,3.25l-.39-.08c.03.07.11.12.19.17l.21-.09Z"/><path d="m70.4,2.26c.34.07.65.12.56-.12l-.56.12Z"/>
                  </g>
                </mask>
              </defs>
              <path class="mask" d="m0,1.85c79.83.91,161.23.81,244.12-.42,5.9-.09,11.79-.18,17.66-.28"
                    mask="url(#path-mask)" stroke="black" stroke-width="2" fill="none"
                    stroke-dasharray="261.78955078125" stroke-dashoffset="261.78955078125">
              </path>
            </svg>
        