
            <svg xmlns="http://www.w3.org/2000/svg">
              <defs>
                <mask id="path-mask">
                  <g fill="white">
                    <path d="m107.25,8.8c-2.72-.01-.99.11-1.54.16l-1.96-.07c-1.6-.08-3.46-.18-4.99-.26-3.12-.2-8.99-.22-11.49-.08-1.72-.04-2.8-.02-3.53.02-2.29-.07-5.69,0-7.45-.14-.48-.08-2.49-.16-.81-.23,1.22-.04,2.54-.06,4.48,0,1.61.06,3.08.07,3.99,0l1.51.02c1.88-.02,4.42.24,5.89.05.59.01,1.67.03,1.69.03,1.48-.16,4.95-.03,7.95.04l.04.05c-.82,0-.65.02.27.04.15,0,.31,0,.47,0l.1.07c-.51,0-1.26-.03-1.25,0,0,0,.37.03.56.03.87.01.62-.02.71-.03l2.97.02c.24,0,.49,0,.74.01-.37.03-2.81.02-.66.11,2.27.09,3.04.04,3.51-.02.43-.06,1.4-.05,2.92.02.14.1,2.34.12,3.86.16l-.07.03c-1.43.02-.31.06.92.09,1.67.1,1.82,0,2.87.03l.21.02-.24-.02c.1-.06-.53-.15,2.51-.05,1.89.06,3.51.08,3.18-.02l1.87.04,1.64.16c-1.02-.02-1.47-.01-1.56.02-1.22,0-1.33.04-.13.11,1.63.05,2.16.1,1.58.14-.27.02-.65.05.42.08.31,0,.81.01,1.23.02.42,0,.75,0,.75,0-.19-.16,4.12-.04,5.79-.08.34,0,.49-.03.72-.04l.3-.04c3.84.11,7.87.29,11.33.29.87,0,2.1.08,2.96.13,1.56.1,2.62.12,3.47.09l7.4.35.13.05c.2.07,1.39.15,2.89.2,1.16.04.78-.02.87-.05,4.11.16,8.22.32,12.53.49l-.17-.02c.06-.02-.27-.06.54-.02.23-.01.32-.04,1.38.01-.37.08,1.68.2,3.35.31,3.6.22,7.78.5,10.94.63,2.19.09,3.66.17,5.78.32,1.29.09.58-.03.69-.06,4.13.29,8.24.54,12.37,1.06l-.03.07c-.82-.07-.63,0-.24.1.68.18-.37.04-2.57-.17l-1.95-.14c-1.16-.1-2.56-.22-3.08-.2l2.13.19c.27.06,1.52.2-.11.1-.85-.11-1.71-.18-2.61-.2l-3.07-.22c-1.25-.21-3.74-.46-6.47-.69-1.94-.04-4.77-.14-5.18-.04-2.7-.17-5.4-.33-8.13-.43-.06-.04.24-.08-.28-.14-.7-.07,2.14,0-.44-.13-1.78-.09-1.44-.01-1.25.05.09.03.09.1-1.06-.03-2.12-.24-1.68-.03-3.52-.14-.28-.03-.48-.08-.85-.09-1.06-.06-1.05-.01-1.35,0-3.46-.17-6.83-.24-10.5-.45-1.91-.11-2.93-.04-3.51.01l-16.97-.6s.19-.04.01-.07c-.52-.08,2.2-.1-.73-.2-2.6-.09-.36.09-.74.13-.11.01-.97,0-1.49-.01-4.79-.07-9.96-.22-14.92-.36-1.45-.04-3.8,0-4.95-.15-1.31-.14-9.88-.47-12.64-.48Zm16.44.52l.54-.02c-.24,0-.53-.02-.72-.03-.19,0-.27,0-.41.01.2.01.4.02.59.03Zm28.21.74c.11,0,.26.01.39.02-.02-.02-.17-.02-.39-.02Z"/><path d="m85.43,2.03c-6.34.22-12.6.27-18.9.45-.85-.18-4.92.1-7.54.17-.53-.04-.47-.13-3.28.07-1.7.13-4.15.33-6.34.5-1.75.13,3.61-.59-2.78.11-.94.09-2.25.25-2.39.19-.07-.03-.98.03-1.82.13-.85.11-1.63.24-1.92.32-.49.12,1.14-.11,1.66-.14,1.01-.08,1.73-.12,2.58-.16-.51.09-2.81.34-2.67.39-1.42.03-6.33.83-6.35.69,0-.08,1.97-.43,2.81-.64.87-.21,4.67-.71,7.71-.98,1.37-.13,2.67-.21,4.03-.32,1.32-.1,2.93-.17,3.89-.29,1.02-.14-2.61.15-1.94.03,2.08-.22,4.28-.39,6.71-.41.19.11.83.18,4.46-.07,1.35-.09,2.88-.13,4.4-.17,1.52-.03,3.02-.04,4.33-.14l1-.03h1.91c3.2.06,6.65-.02,10.38-.23,2.22.04,4.73.01,7.95-.15l1.37-.05c-.16.02-.26.03-.5.05-1.82.1-3.03.18-1.15.21.49,0,1.84-.01,1.61-.04-.55-.07,5.44-.29,1.04-.27,1.18-.05,2.92-.09,2.89-.17l2.05-.06c.07.04-1.57.14-.17.13,1.11,0,2.31-.07,3.21-.13l1.3-.04c2.66-.08,2.83,0,3.21.06.22.04.85.05,2.12,0,.47-.02,1.21-.06,1.36-.08.42-.06-.61-.04-1.43-.03-2.93.03,2.35-.23-.2-.21.63-.1,2.27-.15,3.81-.2l.03.05c-.03.05-2.31.2.12.14,1.79-.04,3.05-.15,2.68-.22l2.35-.08,3.26-.03c.91.03,1.37.08.59.17-.36.04-.27.07.77.04,1.25-.03,1.44-.07,1.63-.11h1.75s.04.11.04.11c-2.96.05-6.3.21-8.29.13-.76-.03-1.85.04-2.03.1-.13.05.11.08-1.14.15-5.13.28-10.42.47-15.85.58-3.31-.04-10.19.18-14.32.45Zm-33.74.85c.35-.04.69-.07,1.03-.11-.29.01-.56.01-.88.04-.33.03-.72.07-1.35.13.55-.03.89-.05,1.21-.06Z"/><path d="m11.17,18.04c2.47.06,3.61.15,4.88.24.63.04.22.13,2.19.13,1.59,0,1.23-.07.93-.13-.28-.06-.44-.11-.65-.17l5.83.03c.02.06-.66.13,1.98.13,2,0,2.9.03,2.83.1-.22.05-2.55.05-1.4.12.4.02,1.33.05,1.93.04,2.03-.01.68-.08,1.13-.12.25-.02.43-.05.81-.07.73-.04,2.87-.07,2.06-.11-.92-.05-2.46.04-3.86.04v-.11c5.52-.03,10.88-.05,16.17-.08-.86.13-1.42.27-5.97.23-.75,0-1.97.01-2.27.06-.33.05.61.06,1.65.05.34.06.67.11.88.18l-1.5.05,1.21.04c-3.6.11-6.96.12-10.12.03-.82-.07-2.44-.15-4.09-.08-3.17.13-8.89-.14-11,.02-3.08-.13-6.33-.2-9.49-.47.14-.15-2.28-.24-4.31-.77-.23-.08-.44-.14-.66-.33-.1-.07-.24-.28-.18-.48.01-.11.06-.17.1-.22.04-.06.08-.11.13-.15.34-.3.67-.43.98-.57.63-.26,1.21-.44,1.87-.62-.21.13-1.1.37-2.04.8-.24.11-.48.23-.7.42-.1.09-.24.2-.25.42,0,.23.17.34.27.41.47.27.91.33,1.23.39.47.1,2.08.42,2.79.4.44,0-1.14-.19-2.09-.4-.49-.11-.92-.2-1.38-.35-.21-.09-.5-.17-.62-.39-.05-.24.29-.45.56-.62,1.54-.81,3.53-1.29,5.05-1.55.92-.15,2.55-.56,3.51-.78,1.68-.38.31-.14-.68.03-1.57.27-3.11.59-2.84.43l.98-.26c1.77-.26,5.13-.98,8.01-1.46,1.12-.19,3.68-.67,2.95-.41-.18.06,3.3-.55,3.4-.6.2-.11,1.14-.25,2.41-.43l.93-.14c1.74-.28,3.81-.62,3.11-.38-.87.2-.84.2.65.02.65-.08,1.52-.17,1.67-.17.51.01-2.13.34-2.54.46-2.66.38-5.45.88-7.73,1.1-.58.05-2.26.38-2.16.38.47-.03-3.18.61-.6.23-.1.05-.39.11-1.44.28-3.45.58-6.93,1.17-10.38,2.09-.27-.07-1.38.18-2.66.61-.63.22-1.34.47-1.88.86-.29.24-.26.3.07.46.28.12.58.2.86.27,2.61.51,4.63.46,7.46.66-.67.03-2.71.06,2.04.21Zm11.17.34l-.55.03c.24,0,.52.01.72.02.18,0,.27-.01.41-.02-.2,0-.39-.02-.58-.02Z"/><path d="m16.38,13.65c-3.24.95-7.24,2.36-9.68,4.44-.56.42-1.2.89-1.78,1.51-.59.61-1.17,1.33-1.55,2.21-.4.86-.48,1.92-.14,2.82.35.89.98,1.6,1.64,2.12.76.58,1.09.75,1.69,1.05.94.45,1.57.6,1.68.59.11-.02-.3-.16-1.32-.65-1.06-.53-1.68-1.02-2.08-1.39-.4-.38-.59-.66-.75-.9-.15-.26-.38-.64-.52-1.23-.15-.58-.16-1.41.27-2.42.08-.23.56-1.01.83-1.3.61-.73,1.32-1.38,2.07-1.96.7-.64,1.55-1.07,2.34-1.59,1.67-.88,3.4-1.65,5.22-2.23,4.18-1.37,8.53-2.21,12.89-2.88,4.36-.65,8.76-1.11,13.15-1.49l-.03-.06c-.74.06-1.35.12-1.52.11-1.31.14-2.87.3-3.95.41-2.6.26-5.78.74-7.83.95-.61.07-3.15.43-5.73.92-2.58.52-5.21,1.2-6.07,1.51-.29.1-.59.21-.54.2.45-.04-1.2.39-1.91.69-.86.34-1.43.46-2.16.81-.42.19-1.7.84-1.59.75.07-.06.8-.43,1.8-.93,2.12-.97,5.28-1.92,5.55-2.07Z"/><path d="m86.13,4.96c-2.3.14-5.04.29-6.55.48.66-.03,1.52-.05,1.97-.09,1.78-.13,3.45-.27,4.76-.24,1.08.02-.43.14-1.51.25-1.92.2-3.39.24-4.96.27-.98.02-2.6.11-3.4.19-2.71.29-3.92.27-5.54.34-1.03.07-2.34.18-2.61.15-.05,0,.42-.07.61-.09,1.36-.1,1.4-.05,2-.06l2.89-.4c-1.92-.02-4.4.26-6.74.47.06.05-.08.1-1.77.25.03.03-.12.08.13.1.75.04-2.04.25-2.87.37-.23.03-.8.09-.98.08-.36-.03.58-.13,1.63-.25.59-.07.14-.1.16-.15-.92.13-3.57.27-3.82.4.34-.02,1.28-.09.37.02l-.34-.02c-1.35.1-.53-.07-2.2.08-.59.06-1.06.17-1.58.26.02.03-.18.08-.97.17.05,0,.09.01.15.02l.88-.08c1.47-.08,6.08-.43-.17.19-.41.04-.59.1-.88.16,2.69-.26,5.51-.56,7.96-.66.3-.01,3.91-.4,6.33-.59.66-.09,1.48-.17,2.94-.27,4.25-.32,8.7-.51,12.77-.84,1.64.02,4.57-.26,6.3-.27,1.69-.02,3.05-.06,5.15-.19,2.85-.18,4.09-.17,4.16-.05l4.7-.15c-.22-.07,1.07-.15,2.01-.22-2.15-.04-4.39-.08.16-.28.58-.02.2-.05-.38-.05-1.84.12-4.53.08-6.09.2-3.57.26-2.87.1-3.35.05l-1,.04c-.09.05-.63.09-1.77.14-.13.06-.89.11-1.99.16l.09.06c-1.09.04-.92,0-.92-.02-2.14.03-5.36.19-5.7.07Z"/><path d="m69.52,8.16c-1.23.02-2.09.07-2.73.13-1.35.11-3.01.25-.49.21,3.96-.04,4.14-.13,6.2-.16l3.78.09c1.77.13,5.17.06,7.45.14l.04.08c-2.19-.04-4.73.03-6.37-.06-2.07-.11-4.21-.1-6.63-.1-4.74.03-9.51.38-14.27.67-4.76.34-9.53.69-14.31,1.04-.17-.02-.16-.06,1.03-.17l1.83-.14.95-.05c.29,0,.58-.03.86-.07,6.03-.47,6.87-.55,4.57-.52-.07,0-.09,0-.13,0-5.32.48-6.76.32-11.97.83-2.16.21-5.04.52-5.63.48,1.42-.15,3.01-.41,3.48-.4.91,0,2.39-.19,3.84-.31,5.18-.43,10.23-.81,15.56-1.18,3.79-.26,7.65-.49,11.54-.61,3.9-.05,7.8.04,11.69.04,1.55.01,4.01,0,4.13.11-.91.06-2.38.05-3.99,0-1.95-.07-3.27-.05-4.48,0-2-.04-4-.1-5.96-.03Zm-9.51.63s-.59-.06-2.14.06c-1.5.11-3.69.31-3.77.35-.16.08,1.78-.12,2.48-.15,1.36-.1,3.55-.17,3.42-.25Zm-4.46.02c-.98.06-2.72.19-2.79.25-.03.03.61.02,1.65-.06,1.12-.09,2.21-.17,3.65-.28-1.07.03-1.73.04-2.51.09Zm5.78-.15l.57-.03h-.07c-.43.02-.45.02-.5.03Z"/><path d="m136.6.66c2.36-.01,4.2.04,6.85.17,3.85.19,8.66.42,13.03.75,2.19.16,4.52.41,6.58.54l.03-.1c-.48-.09-1.71-.28-.23-.17,4.37.37,3.81.12,6.84.36-1.61-.18-3.04-.3-4.31-.39-.16-.01-.3-.02-.42-.03-.17.03.51.16-1.24.02-1.38-.11-2.35-.22-2.55-.3l-.23-.03.21.03c2.03.22,2.1.11,3.78.28.11,0,.15,0,.13,0-1.91-.3-4.27-.41-6.38-.6-2.69-.11-5.53-.32-8.4-.58-.86-.08-1.42-.14-2.38-.13-1.48.01-3.63-.11-5.7-.21-2.96,0-1.6.14-.88.25.19.03.81.08-.24.07-.89,0-1.41-.05-1.77-.08h-1.05c.55.07-2.25.08-1.67.17Z"/><path d="m82.2,17.76c1.87.01,3.82,0,6.39-.11,3.21-.19,6.63-.31,10.27-.32.69-.06,1.98-.11,3.14-.18l1.93-.04c-.23-.03-.59-.08-.67-.07-3.53.16-5.9.06-9.3.18-2.47.08-4.73.13-5.41.04-.02,0-.27,0-.41,0-.46.03-.93.05-1.4.08.42.12-2.08.17-3.98.21-6.26.13-12.54.36-18.89.43-3.83.04-4.04.08-2.21-.1.54-.06.92-.11,1.37-.16-3.64.11-7.87.12-10.8.31.69,0,1.35,0,2.06,0,1.17-.01,2.85-.13,3.36-.06.21.03-1.62.13-2.79.18-.62.03-1.79.04-2.71.06-.77.02-1.61.03-1.99.07-.48.05.32.06,1.12.07,1.25,0,1.59.08,3.54.04,2.46.03,5.17.02,8.4-.09,3.69-.19,8.01-.29,12.36-.39-.06-.03.13-.07.92-.09,1.38-.03.5.04.81.06,1.83-.15,3.73-.33,4.9-.11Z"/><path d="m45.07,9.88l.95-.05.43-.03.43-.03c6.03-.47,6.87-.55,4.57-.52-.07,0-.09,0-.13,0-5.32.48-6.76.32-11.97.83-2.16.21-5.04.52-5.63.48-1.56.22-4.36.54-5.53.78,1.5-.15.04.13-.74.24-2.29.35-.9.07-1.24.08-.07,0,0-.02,0-.03-1.76.2-4.73.8-6.68,1.23-1.19.3-2.23.56-3.15.79-.28.15-3.44,1.11-5.56,2.07-1,.5-1.74.87-1.8.93-.11.08,1.17-.56,1.59-.75.73-.35,1.29-.47,2.16-.81.71-.3,2.36-.73,1.91-.69-.05,0,.25-.11.54-.2.86-.31,3.49-.99,6.07-1.51,2.59-.49,5.12-.85,5.73-.92,2.05-.21,5.23-.69,7.83-.95,1.08-.11,2.64-.28,3.94-.41,1.27-.15,1.33-.11,1.52-.11l.03.06,1.87-.15c-.17-.02-.16-.06,1.03-.17.23-.03.4-.07.71-.1.99-.08,1-.06,1.13-.05Z"/><path d="m178.11,3.27l.06.05c.75.19,1.34.36,2.28.58,2,.47,5.71,1.05,8.73,1.59.38.07.57.09,1.03.2.85.21,1.27.39,1.32.39.06-.03-.3-.31-1.14-.56-.7-.21-.7-.2-1.13-.22-.2,0-.16.04-1.45-.22-.4-.08-.83-.21-1.25-.31-2.45-.47-2.27-.52-2.82-.69,1.41.21,2.83.45,4.26.74.71.15,1.43.3,2.14.5.36.1.71.2,1.07.34.09.04.18.08.28.13.1.07.19.07.33.28.1.15,0,.4-.11.47-.07.05-.16.1-.21.1-.12.04-.22.05-.32.07.68-.24.15-.07-.58-.07-.75.01-1.81-.03-2.49-.08l-1.48.02-2.99-.1s-.06-.02-.03-.03c1.83-.04-.99-.3-.9-.42l1.8.08s0,.01.1.02c1.27.1,1.03.21,2.6.25,2.31.04-.27-.13.18-.18l1.08-.05c.54.01,1.09.02,1.63,0,.27,0,.54-.02.8-.04.13-.01.26-.03.36-.05l.07-.02s-.02-.05.04.04c.13.14.08.14.16.15-.03,0-.03,0-.06.02-.05.02-.09.05-.12.09-.07.06-.16-.07-.28-.09-.11-.05-.24-.09-.36-.13-.25-.08-.51-.16-.77-.22-.52-.14-1.06-.26-1.59-.37-2.14-.45-4.29-.82-6.4-1.17l-1.83-.27-.07-.08.39.04-.51-.06-1.15-.16c-.59-.09-1.41-.23-1.4-.17l-1.87-.21.26.02.28.05c-1.27-.25-4.47-.63-5.36-.86-.42-.12-4.47-.44-6.67-.59-.36-.02-.6-.03-.89-.05-.48-.09-1.71-.28-.23-.17,4.37.37,3.81.12,6.84.36,2.92.28,5.73.63,8.41,1.07Zm12.22,2.57c.09.04.26.12.41.19.12.03.32.09.33.09.01-.01-.11-.08-.19-.13-.26-.08-.57-.15-.54-.14Z"/><path d="m65.29,6.49c1.69-.15,1.84-.2,1.77-.25l-1.58.11-1.22.1c-3.04.23-5.98.45-9.2.8-1.31.14-3.21.33-4.79.45-1.72.13-4.98.47-5.53.55-5.84.72-11.46,1.41-17.05,2.1-2.05.26-3.33.51-5.01.76-4.28.65-8.56,1.35-12.81,2.2-2.13.43-4.25.89-6.35,1.48-.52.15-1.05.31-1.57.5-.52.2-1.04.37-1.56.75-.12.12-.3.21-.37.55-.04.16.03.36.11.46.08.11.17.17.24.22.31.2.58.27.86.35.55.15,1.09.24,1.64.32.93.13,1.89.24,2.43.24.14-.15-2.28-.24-4.31-.77-.23-.08-.44-.14-.66-.33-.1-.07-.24-.28-.18-.48.01-.11.06-.17.1-.22.04-.06.08-.11.13-.15.34-.3.67-.43.98-.57.63-.26,1.21-.44,1.87-.62.59-.23,1.78-.54,2.81-.78l.98-.26c1.77-.26,5.13-.98,8.01-1.46,1.12-.19,3.68-.67,2.95-.41-.18.06,3.3-.55,3.4-.6.2-.11,1.14-.25,2.41-.43.3-.08.63-.12.95-.14,1.72-.28,3.79-.62,3.09-.37.47-.06.94-.13,1.41-.19,1.47-.26,2.99-.5,5.05-.7,1.69-.3,3.33-.61,5.53-.69l2.72-.3c.58-.15,2.4-.33,3.87-.49,2.15-.23,1.78-.13,1.93-.1,2.47-.39,4.96-.59,7.46-.74.52-.09,1-.21,1.58-.26,1.67-.16.86.01,2.2-.08.23-.12,2.87-.27,3.8-.4l1.93-.15Z"/><path d="m166.64,5.13c-1.33-.13-2.8-.24-4.8-.26,1.13.11,2.24.22.89.24-1.06,0-1.86-.12-2.99-.15-1.49-.18-2.34-.14-3.33-.12-1.13.03-2.24,0-3-.12-2.69-.07-2.28.04-2.76.09.4.1,2.57.2,3.62.3,1.79.14,4.16.25,6.42.31,1.7.05,3.17.11,4.8.21,1.66.03-.05-.18,2.83-.04,2.13.1,1.78.17,2.11.25l1.9.09c-.13-.06-.39-.13-.36-.18.02-.03.9,0,1.71.04.71.04,1.24.09.84.09-.61,0-2.27-.05-.51.08.44.03,1.99.05,3.02.07.33,0,.5-.02,1.17.05l-1.19-.05c.71.19,3.08.29,5.57.37.77-.08-3.01-.34-2.73-.44-4.09-.15-4.04-.25-3.72-.34-1.64-.07-2.98-.22-4.68-.27.24.14-1.58.15-4.41,0-3.92-.21,1.27-.05-.08-.18-.19-.02-.22-.03-.32-.05Z"/><path d="m185.49,14.61l1.54-.03,2.98-.09,1.1-.02s-.06-.02-.09-.03c-.65,0-.97-.02-.42-.05.08,0,.35,0,.44-.01.85,0-.05.04-.05.06,1.56-.02,2.71-.06,3.43-.13,1.15-.11,2.64-.14,3.84-.13,1.19,0,2.09.04,2.05.06-.23.14,2.24.1,4.02.12,2.25-.07,4.48-.15,6.77-.22,1-.03,2.93-.08,2.38-.14-.45-.04-2.55.05-3.07.04-1.64-.03-4.17.17-5.09.03-1.25,0-2.72.02-2.92-.04-1.05.01-2.17.03-2.85,0-2.31.02-4.63.04-6.92.07-4.53.04-8.45.26-13.03.31v.08c1.12-.03,2.3-.06,2.88-.02-.07.05-.11.1-1.83.14l.81.09,4.02-.07Z"/><path d="m106.86,4.27c.58,0,.97.03.38.05-4.55.2-2.31.24-.16.28l1.76-.05-.04-.11h-.22s.21,0,.21,0c1.6,0,5.06-.13,4.8.03,2.65-.05,5.05.07,7.99-.05.42-.02,2.27.02,2.36.08l2.79.02c1.21-.09,4.74-.09,4.06-.23-.03,0,.61-.01.93-.02,2.07.24,2.94-.02,4.57.04,0-.01,0-.02,0-.04-4.77-.27-5.91-.09-7.6.03h-.36s.39,0,.39,0c-.48,0-1.16-.02-1.72-.03-.28,0-.54-.01-.72-.02-.18,0-.3-.01-.31-.01-.48-.27-3.97-.11-6.79-.07-2.95.03-6.34.13-8.94.06-1.28,0-1.09-.1-3.32-.05l-.05.08Z"/><path d="m125.26.52h1.75c4.28-.07,4.22.07,3.77.19,1.41.02,1.34-.05,2.02-.06-1.26-.15.83-.34,4.71-.32-.89-.1-.96-.18,0-.26-.98-.1-1.81-.05-2.66-.02.57.02.71.05-.06.05-1.05,0-.88-.03-.98-.06-2.26-.13-5.6.02-8.01.08-3.94.11-8.25.19-11.98.42l.03.05,2.74-.08c.86-.09,1.64-.09,2.42-.08l3.26-.03c.23-.06.43-.11,2.19-.16,1.18-.03,1.86,0,2.42.02,1.32.06-.48.15-1.63.24Z"/><path d="m205.32,14.07c.92.14,3.45-.06,5.09-.03.53.01,2.62-.07,3.07-.04.55.06-1.38.11-2.38.14-2.29.07-4.52.15-6.77.22l.82.06h1.1c1.52-.08,3.25-.11,5.03-.14.89-.02,1.79-.03,2.69-.08.23-.01.45-.03.68-.05.11-.01.23-.03.37-.06l.13-.05s.1-.06.13-.13c.04-.08.06-.14.02-.25-.06-.12-.07-.1-.11-.14-.04-.03-.05-.04-.07-.05-.04-.02-.08-.04-.11-.05-.48-.15-.9-.19-1.33-.26-.82-.07-.63,0-.24.1.68.18-.37.04-2.57-.17l-.05.03s-.69,0-2.04-.12c-.28-.02-.55-.04-.81-.06.27.06,1.52.2-.11.1l.08.04c1.35.12,2.69.24,4.03.39.67.08,1.34.16,2,.26.31.05.71.12.89.2,0,0-.01,0-.05-.06-.05-.13-.04-.21.03-.28.07-.05,0-.02,0-.02-.07.01-.13.03-.22.04-.16.02-.32.03-.49.04-2.68.12-5.41.11-8.12.18.87.07,2.48.14-.72.24Z"/><path d="m127.64,16.31c1.12-.04,1.02.11,3.01-.07,1.49-.14,2.91-.07,4.4-.14.41-.16,2.43-.19,4.56-.2,1.8,0,3.28-.08,4.64-.16,1.4-.09,2.02-.17.53-.19-2,.05-3.83.06-5.98.15-6.67.29-7.4.32-12.76.4-.13,0-.38,0-.42.01-2.72.23-6.87.19-9.64.41.27.06.3.12,2.18.09.06-.05.51-.07,1.79-.11,2.71-.06,5.26-.13,7.69-.18Z"/><path d="m205.32,14.07c3.2-.1,1.59-.17.72-.24-2.11-.02-3.52-.08-6.54.07-2.18.1-6.53.08-10.01.15-4.69.09-9.6.19-14.34.28-2.08.03-3.45.07-3.22.16.23.09,1.9.05,3.78-.01l3.9-.09c4.58-.04,8.5-.26,13.03-.31,2.29-.02,4.61-.04,6.92-.07.56-.02,1.18-.07,1.66-.07,1.05,0,1.15.03,1.19.07.19.07,1.67.05,2.92.04Z"/><path d="m128.69,4.31c1.68-.11,2.82-.29,7.6-.03l3.83.02c1.02,0,2.07,0,1.81-.07-1.79-.13-4.13-.11-6.1-.14-7.49-.1-14.99-.16-22.53,0-2.01.04-2.3.09-3.07.14,2.6.07,5.99-.03,8.94-.06,2.83-.04,6.31-.2,6.79.07,0,0,.13,0,.31.01.18,0,.44,0,.72.02.56.01,1.23.02,1.7.03Z"/><path d="m63.02,17.71c-.45.05-.83.1-1.37.16-1.83.18-1.61.14,2.21.1,6.35-.07,12.64-.3,18.89-.43,1.9-.04,4.4-.09,3.98-.21-3.55-.04-7.43.08-11.69.26-2.75.11-4.85.13-4.33-.02-2.77.13-5.07.07-7.7.14Z"/><path d="m115.98,16.51c2.77-.22,6.93-.17,9.64-.41.03,0,.29,0,.42-.01,5.35-.08,6.09-.11,12.76-.4,2.14-.09,3.98-.1,5.98-.15-.85-.09-1.78-.18-5.07-.14l-2.41.15c-.89.1-2.25.14-4.19.18-2.36.08-5.21.17-7.25.24-4.12.13-7.78.38-11.7.45l1.04.12c.26,0,.52-.02.77-.02Z"/><path d="m164.14,14.77c-1.23.15-2.23.29,2.71.16,1.59-.04.59.04.47.07-2.43.14-5.12.18-6.85.18-4.41,0-5.41.14-6.35.3l-.9.03c-2.9.02-7.66.13-3.15-.2.81-.06.79-.12,1.16-.18,2.5-.08,5-.15,7.49-.23,1.61-.05,2.83-.09,2.99-.17l2.78-.07c-.11.03-.06.06-.35.1Zm-7.96.34c-.1,0-.26,0-.5.02.14,0,.27,0,.5-.02Z"/><path d="m42.02,4.07c-1.42.03-6.33.83-6.35.69,0-.08,1.97-.43,2.81-.64.87-.21,4.67-.71,7.71-.98,1.37-.13,2.67-.21,4.03-.32,1.32-.1,2.93-.17,3.89-.29,1.02-.14-2.61.15-1.94.03-4.48.21-10.02.91-14.64,1.42-1.46.16-1.12.22-2.29.4-1.12.2,3.95-.44-.2.17-1.38.3-5.01.94-4.44,1.01.86-.13,1.98-.29,2.53-.36,1.4-.14,1.39.03,4.91-.61.03,0,1.28-.13,2.08-.2,2.32-.25,4.51-.5,6.46-.75-.68-.08-3.24.33-4.56.44Z"/><path d="m29.58,5.27c-1.15.18-1.98.3-2.58.36-1.51.14-4.34.61-6.52,1.13-1.95.46-3.7.95-3.9,1.1-.36.3,2.1-.21,7.6-1.28,1.34-.26,3.03-.5,4.56-.73,1.66-.36,1-.36-.82-.11-1.84.25-3.52.6-4.8.92-.47.11-2.66.59-2.49.47.15-.11-1.13.09-.34-.14.49-.14.71-.25,2.2-.55,1.55-.31,2.23-.39,2.42-.37.2.02.43.02,2.16-.29,1.67-.3,2.53-.46,2.51-.53Z"/><path d="m114.16,16.42c3.93-.06,7.58-.32,11.7-.45,2.04-.07,4.89-.16,7.25-.24,1.94-.04,3.3-.08,4.19-.18-3.32-.1-8.26.18-12.34.32-6.1.21-12.32.51-18.26.61l-.49.07c.88.02,3.98-.02-.74.17-1.54.06-2.42.16.24.08,2.8-.13,4.85-.35,8.45-.38Z"/><path d="m100.37,4.97c-.07-.12-1.31-.13-4.16.05-2.1.14-3.46.18-5.15.19-1.73.01-4.66.29-6.3.27-4.06.33-8.51.51-12.77.84-1.45.11-2.27.18-2.94.27,3.92-.19,8.15-.48,12.71-.77,2.91-.18,5.86-.35,9.04-.45,2.77-.12,6.34-.27,9.56-.41Z"/><path d="m98.58,1.1l2.05-.06h3.04c.43-.01.86-.03,1.3-.04l4.21-.22c-2.49-.1-7.44.13-11,.23-7.07.22-14.21.43-21.32.65l-1.9.08c3.2.06,6.65-.02,10.38-.22,3.03-.12,6.22-.28,7.95-.15l1.37-.05.98-.04s-.06-.04-.09-.05c-.1,0-.2-.01-.3-.02h.68s2.63-.12,2.63-.12Z"/><path d="m190.55,11.88c-2.7-.16-5.4-.33-8.13-.43-2.16-.1-4.23-.21-5.82-.35-1.45-.06-2.18-.1-2.92-.13-3.46-.17-6.83-.24-10.5-.45-1.91-.11-2.93-.04-3.51.01,10.42.44,20.84.9,31.25,1.43l-.38-.09Z"/><path d="m167.32,14.99c-2.43.14-5.12.18-6.85.18-4.41,0-5.41.14-6.35.3,7.25-.18,14.51-.34,21.75-.6,1.75-.07,2.85,0,4.27-.05,1.96-.06,4.98-.07,5.35-.21l-4.02.07-6.6.11-7.54.19Z"/><path d="m118.94,8.97c.1-.06-.53-.15,2.51-.05,1.89.06,3.51.08,3.18-.02-7.77-.27-15.55-.49-23.63-.55l.04.05.27.04c.15,0,.31,0,.47,0,1.35,0,2.69,0,3.09.09.24,0,.49,0,.74.01l2.85.09c.43-.06,1.4-.05,2.92.02,1.68.04,3.43,0,4.95.1.5.03-.26.06-1.09.06l-.07.03.92.09c1.67.1,1.82,0,2.85.03Z"/><path d="m153.21,15.51c-2.9.02-7.66.13-3.15-.2.81-.06.79-.12,1.16-.18-1.38.03-.92-.02-1.01-.05l-1.85.06c.58.06-1.82.17-1.88.24l1.24-.02c-.09,0-.26.02-.27.02-.34,0-.67,0-1,0-1.65,0-.64-.1-.99-.15-1.87-.03-3.78,0-5.76.17,3.29-.04,4.22.05,5.07.14,1.49.02.87.1-.53.19-1.35.09-2.84.16-4.64.16-2.12.01-4.14.04-4.56.2,4.78-.12,9.65-.33,14.37-.41,1.86-.03,2.84-.1,3.8-.18Z"/><path d="m105.71,16.8c-2.66.07-1.79-.02-.24-.08,4.72-.19,1.62-.15.74-.17-.81.1-2.28.1-3.42.15.13.04-.74.14-1.44.14-3.45.01-5.89.22-8.9.3-1.6.1-1.69.06-1.82.01-1.63-.01-2.03.05-2.5.11.14,0,.39,0,.41,0,.67.1,2.93.04,5.41-.04,3.4-.11,5.77-.02,9.3-.18.09,0,.44.05.67.07l3.69-.06,1.96-.03.22-.11c-4.18.13-4.43.03-4.09-.11Z"/><path d="m54.81,18.39c-1.95.04-2.28-.03-3.54-.04-.8,0-1.6-.02-1.12-.07.37-.04,1.21-.05,1.99-.07.92-.02,2.09-.03,2.71-.06,1.16-.06,3-.15,2.79-.18-.51-.07-2.19.04-3.36.06-.71,0-1.38,0-2.06,0-.9-.04-1.71.03-2.56.05-1.42.05-2.94.12-2.52.17,1.64.22-2.78.29-6.73.35.48.05,2.54,0,2.7.06,3.24-.04,6.32-.08,9.6-.13,2.35-.05,1.84-.09,2.11-.15Z"/><path d="m92.45,17.14c3.01-.07,5.45-.28,8.9-.3.7,0,1.56-.1,1.44-.14-6.02.18-12.01.36-18.03.53-3.02.09-6.19.15-9.18.2-1.81.03-3.28.08-4.86.14-.53.16,1.58.13,4.33.02,4.26-.18,8.14-.3,11.69-.26.47-.03.94-.05,1.4-.08.47-.06.87-.12,2.5-.11h1.82Z"/><path d="m167.32,14.99l7.54-.19.07-.08c-1.03.02-1.94.03-1.78-.02.16-.05,1.2-.07,2.14-.1.35-.04.37-.08.39-.12-1.88.06-3.55.1-3.78.01-2.41.02-4.9.07-7.44.17-.11.03-.06.06-.35.1-1.23.15-2.23.29,2.71.16,1.59-.04.59.04.47.07Z"/><path d="m140.12,4.3l-3.83-.02v.04s.2.02.2.02l-.2-.02c-1.63-.06-2.5.2-4.57-.04-.33,0-.96.01-.93.02.68.14-2.85.15-4.06.23.2.04,1.05.04,1.81.05,1-.05,2.59-.02,4.01-.01,1.04.03,1.7-.11,2.25,0,.59.12,2.32.07,3.29.12,1.66-.04,2.42.01,2.98.09.99.03,2.16.14,2.78.05l.43-.05c-1.16-.05-1.73-.13-3.36-.16-1.11-.05-.68-.08-.78-.12-5.06-.16.67-.12,0-.2Z"/><path d="m103.76,8.89c-1.6-.08-3.46-.18-4.99-.26-3.12-.2-8.99-.22-11.49-.08,2.33.03,4.93.06,3.29.16,4.48.09,8.95.19,13.19.18Z"/><path d="m140.12,4.49c-5.06-.16.68-.12,0-.2,1.02,0,2.07,0,1.81-.07,2.89.05,5.94.03,8.55.26.13.01.17.02.12.03-3.8,0-4.11.16-3.91.33l-2.43-.06c-1.16-.05-1.73-.13-3.36-.16.11-.04.14-.07-.78-.12Zm3.03-.05c-.61-.03-1.19-.01-1,.01.38.05-1.55.09,1.36.15,1.45.02,1.33-.01.28-.07-.2-.03-.18-.07-.65-.09Z"/><path d="m73.8,5.77c.88-.06,1.62-.04,2.62-.16,2.22-.28,2.44-.17,3.16-.17.66-.03,1.52-.05,1.97-.09,1.78-.13,3.45-.27,4.76-.24,1.08.02-.43.14-1.51.25-1.92.2-3.39.24-4.96.27-.98.02-2.6.11-3.4.19-2.71.29-3.92.27-5.54.34.96-.13,1.92-.26,2.89-.4Zm10.58-.52s-.33.03-.35.03c-.04.01.01.02.03.03l.74-.06c-.13,0-.25,0-.41,0Z"/><path d="m137.26,9.31c3.84.11,7.87.29,11.33.29.87,0,2.1.08,2.96.13,1.56.1,2.62.12,3.47.09-3.24-.24-7.17-.33-10.84-.43-4.76-.13-9.22-.39-14.03-.44-.7,0-1.56-.03-1.87,0,.97.11,2.63.18,4.54.18,2.3,0,3.39.08,4.44.18Z"/><path d="m29.58,5.27c.02.07-.83.23-2.51.53-1.73.3-1.96.31-2.16.29-.19-.02-.87.06-2.42.37-1.49.3-1.72.41-2.2.55-.79.23.49.04.34.14-.17.12,2.01-.36,2.49-.47,1.29-.33,2.96-.67,4.8-.92,1.82-.24,2.48-.25.82.11.62-.08,1.25-.16,1.87-.3-.58-.07,3.06-.71,4.44-1.01-1,.11-1.91.2-1.98.16l-3.49.56Z"/><path d="m55.77,7.39c-2.49.14-4.99.35-7.46.74-1.45.26-5.93.72-6.71.96l.35.08c1.64-.15,3.12-.32,4.46-.51.21-.05-.4-.01.59-.13l.31.03c.28-.03.57-.06.89-.09,3.86-.42,3.06-.54,6.6-.92.8-.09,1-.14.97-.17Z"/><path d="m205.15,14.42l-.82-.06c-1.79-.02-4.25.02-4.02-.12.04-.02-.86-.06-2.05-.06-1.19,0-2.69.03-3.84.13-.73.07-1.87.11-3.43.13.07,0,.1.02.13.03l-.07.11c4.65-.03,9.25-.01,14.11-.17Z"/><path d="m180.6,10.83c-.37.08,1.68.2,3.35.31,3.6.22,7.78.5,10.94.63,2.19.09,3.66.17,5.78.32,1.29.09.58-.03.69-.06-4.53-.33-8.94-.63-13.71-.82-2.07-.11-4.68-.25-7.04-.37Z"/><path d="m108.84,4.55l-1.76.05c-.94.07-2.23.15-2.01.22,4.73-.07,9.8-.24,14.6-.16,1.93.03,2.53-.11,4.27-.15-.09-.06-1.94-.1-2.36-.08-2.95.12-5.35,0-8,.05-1.71.24-3.15.02-4.75.08Z"/><path d="m29.22,10.4c-.47.06-.95.13-1.41.19-.86.2-.83.2.65.02.65-.08,1.52-.17,1.67-.17.51.01-2.13.34-2.54.46l1.99-.2,3.1-.39,6.26-.91c-4.3.41-4.21.36.87-.38-2.2.07-3.84.39-5.54.69-1.67.23-2.46.53-5.05.7Z"/><path d="m40.41,18.6c3.95-.07,8.37-.14,6.73-.35-.42-.06,1.1-.12,2.52-.17-.45-.12-2.45.02-3.66.02-.86.13-1.42.27-5.97.23-.75,0-1.97.01-2.27.06-.33.05.61.06,1.6.05h.43s-.38,0-.38,0l1.01.17Z"/><path d="m150.48,4.48c.13.01.17.02.12.03.42.07,3.36.14,2.81.21.76.13,1.86.15,3,.12.99-.02,1.85-.06,3.33.12,1.14.03,1.94.16,2.99.15,1.34-.01.24-.13-.89-.24-3.84-.18-7.92-.44-11.36-.39Z"/><path d="m176.02,3.5c-1.27-.25-4.47-.63-5.36-.86-.42-.12-4.47-.44-6.67-.59-.36-.02-.6-.03-.89-.05l-.03.1c3.38.4,6.55.6,9.88,1.04l2.46.29c.32.04.53.06.61.06Z"/><path d="m119.89,9.28c-1.31-.14-9.88-.47-12.64-.48-2.72-.01-.99.11-1.54.16,1.73.02,3.47.01,5.11.11.36.01,1.56.06,1.64.06,2.21-.07,4.99.1,7.42.14Z"/><path d="m42.02,4.07c1.31-.11,3.88-.52,4.56-.44,1.35-.06,2.68-.22,4.02-.36,2.22-.29,5.76-.49,8.39-.61-.53-.04-.47-.13-3.28.07-1.7.14-4.15.33-6.27.5l-1.16.15h-.37s1.47-.15,1.47-.15c-1.75.13,3.61-.59-2.78.11-.22.08.63.08-1.9.34-.51.09-2.81.34-2.67.39Z"/><path d="m178.68,10.84c.06-.02-.27-.06.54-.02-5.75-.29-11.8-.68-16.8-.65l.13.05,3.76.15c4.11.16,8.22.31,12.36.47Z"/><path d="m58.98,2.66c-2.63.12-6.17.33-8.39.61.31.1,2.38-.17,3.46-.22,2.05-.14,4.14-.19,6.23-.29,2.09-.09,4.18-.19,6.25-.28-.85-.18-4.92.1-7.54.17Z"/><path d="m127.06.63c-2.96.05-6.3.21-8.29.13-.76-.03-1.85.04-2.03.1-.13.05.11.08-1.14.15-.4.13,2.09.01,3.4-.02,2.96-.08,5.97-.16,8.96-.24-.24-.04.51-.11-.9-.12Z"/><path d="m142.22.25c2.07.11,4.21.23,5.7.21.96-.01,1.53.05,2.38.13,2.87.26,5.71.47,8.4.58-2.66-.32-6.01-.55-9.27-.72-2.4-.13-4.79-.22-7.19-.29l-.03.08Z"/><path d="m9.13,17.83c-.67.03-2.71.06,2.04.21,2.47.06,3.61.15,4.88.24.63.04.22.13,2.19.13,1.59,0,1.23-.07.93-.13-.28-.06-.44-.11-.65-.17-3.13-.05-6.26-.12-9.38-.28Z"/><path d="m176.13,5.62c-.32.09-.37.19,3.72.34l2.86.08,1.8.08c.77,0,1.84.05,2.87.09l1.08-.05c.09-.07-1.17-.08-2.17-.11-3.39-.11-6.77-.27-10.16-.42Z"/><path d="m29.57,10.7l-1.99.2c-2.66.38-5.45.88-7.73,1.1-.58.05-2.26.38-2.16.38.47-.03-3.18.61-.6.23,4.12-.72,8.65-1.24,12.47-1.91Z"/><path d="m177.03,6.03c-1.04-.02-2.58-.04-3.02-.07-1.75-.13-.09-.08.51-.08.41,0-.12-.05-.84-.09-.82-.04-1.69-.08-1.71-.04-.03.05.22.12.36.18,3.42.28,7.32.48,11.19.65l.13-.09s-.06-.02-.03-.03l-1.03-.05c-2.49-.09-4.86-.19-5.55-.37Z"/><path d="m54.8,7.56c-3.54.38-2.75.5-6.6.92,1.98-.11,4-.24,6.58-.63.29-.05.47-.12.88-.16,6.24-.62,1.64-.27.17-.19-.15.04.02.06-1.1.16l.22-.08c-.06,0-.11-.01-.15-.02Z"/><path d="m29.87,18.72c-.82-.07-2.44-.15-4.09-.08-3.17.13-8.89-.14-11,.02,5.13.14,10.16.13,15.09.07Z"/><path d="m107.61,17.05l-3.69.06-1.93.04c.01.09-1.58.14-3.14.18-3.64.01-7.05.13-10.27.32.31.03,1.3.04,1.97.01,5.51-.24,11.7-.27,17.05-.61Z"/><path d="m58.88,2.15c.19.11.83.18,4.46-.07,1.35-.09,2.88-.13,4.4-.17,1.52-.03,3.02-.04,4.33-.14-3.93-.11-8.7.2-13.19.37Z"/><path d="m202.2,12.61c-1.25-.21-3.74-.46-6.47-.69.53.16-.89.17-2.77.16,1.91.17,3.63.22,5.4.31.96-.04,2.5.13,3.84.23Z"/><path d="m99.75,1.58c-3.31-.04-10.19.18-14.32.45,4.08-.05,8.18-.22,12.27-.36.1-.08,1.1-.08,2.04-.09Z"/><path d="m92.67,4.85c1.1-.05,1.86-.1,1.84-.15l-1.21.03-.27-.03.9-.02h.74c1.13-.03,1.67-.08,1.76-.12-3.46.12-6.47.13-10.3.4.34.11,3.57-.04,5.7-.07l.83-.03Z"/><path d="m75.57,17.91c-4.35.1-8.66.2-12.36.39,1.46.03,2.83.03,5.01-.08,2.76-.15,6.19-.15,9.23-.26l-.18-.08c-.56.01-1.14.02-1.71.03Z"/><path d="m137.52.33c-3.89-.02-5.98.17-4.71.32,1.26,0,2.53-.01,3.79,0-.58-.09,2.23-.1,1.68-.18-1.1-.05-.64-.1-.75-.14Z"/><path d="m38.94,9.4l-6.26.91c3.17-.35,6.33-.68,9.28-1.14l-.35-.08-2.67.31Z"/><path d="m146.7,4.84l-2.43-.06-.42.05c3.54.11,7.14.28,10.43.29-1.05-.1-3.22-.2-3.62-.3-.68,0-1.26-.01-1.84-.02-.15.05-.24.1-2.11.04Z"/><path d="m142.22.25l.03-.08c-1.57-.03-3.14-.09-4.72-.1-.97.08-.9.16,0,.26,2.3.03,1.76.11,1.8.16.36.04.88.08,1.77.08,1.04,0,.42-.04.24-.07-.72-.11-2.08-.25.88-.25Z"/><path d="m106.86,4.27l.05-.08c-3.22.07-6.76.06-9.49.33.48.05-.23.22,3.35-.05,1.55-.12,4.25-.08,6.09-.2Z"/><path d="m109.79,16.91l-.22.11c3.67-.06,6.98-.25,10.36-.41h-1.77c-1.88.02-1.92-.04-2.18-.1-.25,0-.51.02-.77.02,0,.14-.57.28-5.41.38Z"/><path d="m151.22,15.13c2.5-.08,5-.15,7.49-.23,1.61-.05,2.83-.09,2.99-.17-3.34,0-7.04.21-10.51.28,0,.04-.01.07.03.11Z"/><path d="m118.16,16.6h1.77c2.7-.04,5.51-.05,7.71-.29-2.43.06-4.97.12-7.69.18-1.29.04-1.73.06-1.79.11Z"/><path d="m166.64,5.13c.1.02.13.03.32.05,1.35.13-3.84-.03.08.18,2.83.15,4.65.14,4.41,0-1.66-.1-3.42-.25-4.81-.22Z"/><path d="m137.26,9.31c-1.06-.1-2.14-.18-4.44-.18-1.91,0-3.56-.07-4.54-.18-.67,0-1.53-.04-1.77,0,.55.05,1.09.11,1.65.16,2.95.08,5.87.16,8.81.24l.3-.04Z"/><path d="m90.56,8.71c1.64-.1-.95-.13-3.29-.16-1.72-.04-2.81-.02-3.53.02l.04.08c2.22,0,4.43.01,6.78.06Z"/><path d="m213.69,13.15c.44.07.85.11,1.33.26.03,0,.07.02.11.05.02,0,.04.02.07.05.03.04.05.02.11.14.04.11.02.17-.02.25-.04.07-.13.14-.13.13l-.13.05c-.14.03-.25.05-.37.06-.23.03-.46.04-.68.05-.9.05-1.8.06-2.69.08-1.78.03-3.51.06-5.03.13,1.72.02,3.44,0,5.17-.04.86-.02,1.72-.05,2.59-.1.22-.01.44-.03.66-.06.11-.01.23-.03.37-.07l.14-.06s.11-.06.16-.15c.05-.1.08-.16.04-.3-.06-.14-.09-.15-.12-.18-.04-.03-.07-.05-.09-.06-.04-.02-.09-.04-.12-.05-.49-.16-.9-.2-1.34-.27l-.03.07Z"/><path d="m5.28,14.98c-.27-.07-1.38.18-2.66.61-.63.22-1.34.47-1.88.86-.29.24-.26.3.07.46.28.12.58.2.86.27-.06-.04.07-.04-.12-.11-.09-.04-.27-.08-.56-.19-.13-.04-.34-.18-.34-.2,0,.01.02.03,0,.03.03-.02.02-.04.07-.08.07-.08.2-.16.34-.24,1.19-.63,2.77-1.02,4.22-1.4Z"/><path d="m170.43,5.83c-.33-.07.03-.14-2.11-.25-2.88-.14-1.16.08-2.83.04,2.29.21,3.3.13,4.94.2Z"/><path d="m109.19.78l-4.21.22c2.66-.08,2.82,0,3.21.06.22.04.85.05,2.12,0,.47-.02,1.21-.06,1.36-.08.42-.06-.61-.04-1.43-.03-2.93.03,2.35-.23-.2-.21-.27,0-.55.01-.84.02Z"/><path d="m85.47,8.23c1.88-.02,4.42.24,5.89.05q-.8-.13-5.89-.05Z"/><path d="m186.55,4.77c-2.45-.47-2.27-.52-2.82-.69-1.93-.32-4.04-.68-5.62-.81l.06.05c1.39.21,3.82.54,4.03.65.47.24,2.45.48,4.35.8Z"/><path d="m191.18,6.7c.68-.24.15-.07-.58-.07-.75.01-1.81-.03-2.49-.08l-1.48.02-1.17.1c.97.05,1.89.07,2.82.08.93,0,1.85.03,2.91-.06Z"/><path d="m29.83,18.27v-.11c-1.77-.03-3.54-.06-5.49-.03.02.06-.66.13,1.98.13,2,0,2.9.03,2.83.1.87-.03.6-.07.68-.1Z"/><path d="m192.96,12.07c1.88.01,3.3,0,2.77-.16-1.94-.04-4.77-.14-5.18-.04l.38.09,2.03.11Z"/><path d="m127.06.63c1.41,0,.66.08.9.12l2.83-.03c.44-.12.5-.26-3.77-.2l.04.11Z"/><path d="m77.28,17.88l.18.08c1.83-.04,3.41-.11,4.74-.19-1.18-.22-3.07-.04-4.92.11Z"/><path d="m142.7,9.93s.19-.04.01-.07c-.52-.08,2.2-.1-.73-.2-2.6-.09-.36.09-.74.13-.11.01-.97,0-1.49-.01.63.06,1.2.13,2.94.15Z"/><path d="m202.2,12.61c-1.34-.1-2.88-.27-3.84-.23l2.07.15c.78.05,1.45.1,1.81.15l3.83.24-.8-.1-3.07-.22Z"/><path d="m26.21,11.63s-.07.03,0,.03c.33,0-1.05.27,1.24-.08.78-.11,2.24-.39.74-.24-.66.09-1.32.18-1.97.29Z"/><path d="m146.48,15.38c.06-.07,2.46-.18,1.88-.24l-2.9.09c.35.05-.66.15,1.02.15Z"/><path d="m33.07,4.7c.07.04.98-.05,1.98-.16,4.15-.61-.92.03.2-.17-.18.02-.42.05-.72.09l-1.24.18c-.26.04-.33.06-.21.05Z"/><path d="m177.35,3.64l-1.87-.21c.82.19,3.1.46,4.5.71l.11-.06-.07-.08c-.51-.07-.89-.13-1.27-.18-.15.02-.78-.08-1.4-.17Z"/><path d="m43.11,18.66c-.16-.06-2.22-.02-2.83-.06l-1.5.05,1.21.04c1,.01,2.04,0,3.12-.03Z"/><path d="m141.06,4.77c-.56-.08-1.32-.14-2.98-.09.79.05,1.11.15,2.98.09Z"/><path d="m190.02,14.49l-2.98.09c-.14.1,1.51.05,2.98.01v-.1Z"/><path d="m132.55,4.56c-1.41-.01-3.01-.04-4.01.01,2.04.09,3.12.05,4.01-.01Z"/><path d="m16.39,13.65c.92-.23,1.96-.49,3.15-.79-1.02.21-1.64.28-3.15.79Z"/><path d="m205.28,12.82l.8.1,1.89.15-.08-.04c-.85-.11-1.71-.18-2.61-.2Z"/><path d="m165.08,1.77s-.02.01-.13,0c.14.01.28.02.44.03.09-.02.18-.04.27-.05h-.58Z"/><path d="m202.24,12.68c-.36-.05-1.03-.11-1.81-.15-.03.06.59.11,1.81.15Z"/><path d="m133.83.05c.11.03-.07.07.98.06.77,0,.62-.03.06-.05h-1.04Z"/><path d="m180.09,4.09l-.11.06c.96.13,1.63.21,1.95.22l-1.83-.27Z"/><path d="m175.41,3.45l-2.46-.29c1.03.17,1.86.27,2.46.29Z"/><path d="m151.17,15.13l.02-.11c-.63.01-.95.03-.98.06.09.03-.37.08.96.05Z"/><path d="m47.31,8.56l-.31-.03c-.99.12-.37.09-.59.13.3-.03.6-.06.89-.1Z"/><path d="m99.74,1.58c-.94.01-1.94.02-2.04.09.86-.02,1.71-.03,2.04-.09Z"/><path d="m136.96,9.34c-2.94-.08-5.85-.16-8.81-.24-1.02-.02-1.47-.01-1.56.02l-.13.11c1.63.05,2.16.1,1.58.14-.27.02-.65.05.42.08.31,0,.81.01,1.23.02.42,0,.75,0,.75,0-.19-.16,4.12-.04,5.79-.08.34,0,.49-.03.72-.04Z"/><path d="m75.48,8.19c-2-.04-4-.1-5.96-.03,3.37.02.62.14,2.98.18l3.78.09c-.48-.08-2.49-.16-.81-.23Z"/><path d="m176.6,11.1c1.59.14,3.66.24,5.82.35-.06-.04.24-.08-.28-.14-.7-.07,2.14,0-.44-.13-1.78-.09-1.44-.01-1.25.05.09.03.09.1-1.06-.03-2.12-.24-1.68-.03-2.8-.1Z"/><path d="m108.47,8.64l-2.85-.09c-.37.03-2.81.02-.66.11,2.27.09,3.04.04,3.51-.02Z"/><path d="m115.25,8.82c.83,0,1.59-.02,1.09-.06-1.52-.1-3.27-.06-4.95-.1.14.1,2.34.11,3.86.16Z"/><path d="m166.32,10.37l-3.76-.15c.2.07,1.39.15,2.89.2,1.16.04.78-.02.87-.05Z"/><path d="m207.99,12.93c.26.02.53.04.81.06l.12-.06c-1.14-.09-2.54-.22-3.06-.19l2.13.19Z"/><path d="m104.88,8.55c-.39-.09-1.73-.09-3.09-.09l.09.07c1.01,0,2,.01,2.99.02Z"/><path d="m123.1,9.29c.2.01.4.02.59.03l.54-.02c-.24,0-.53-.02-.72-.03-.19,0-.27,0-.41.01Z"/><path d="m173.68,10.98l2.19.1c-.28-.03-.48-.08-.85-.09-1.06-.06-1.05-.01-1.35,0Z"/><path d="m116.1,8.94l-.92-.09c-1.43.02-.31.06.92.09Z"/><path d="m101.89,8.53c-.51,0-1.26-.03-1.25,0,0,0,.37.03.56.03.87.01.62-.02.7-.03Z"/><path d="m126.46,9.23l.13-.11c-1.22,0-1.33.04-.13.11Z"/><path d="m152.29,10.08s-.17-.02-.3-.03c.02.02.17.02.3.03Z"/><path d="m210.84,13.11l.05-.03-1.95-.14c.62.06,1.26.12,1.9.17Z"/><path d="m118.97,8.97l.21.02c-.08,0-.16-.01-.21-.02Z"/><path d="m101.32,8.45l-.27-.04c-.82,0-.65.02.27.04Z"/><path d="m125.26.52c1.15-.09,2.94-.18,1.63-.24-.56-.02-1.24-.05-2.42-.02-1.76.04-1.95.1-2.19.16.91.03,1.37.08.59.17-.36.04-.27.07.77.04,1.25-.03,1.44-.07,1.63-.11Z"/><path d="m44.69,3.67c2.53-.27,1.68-.26,1.9-.34-.94.09-2.25.25-2.39.19-.07-.03-.98.03-1.82.13-.85.11-1.63.24-1.92.32-.49.12,1.14-.11,1.66-.14,1.01-.08,1.73-.12,2.58-.16Z"/><path d="m93.31,1.37c-1.73-.13-4.93.03-7.95.15,2.22.04,4.73.01,7.95-.15Z"/><path d="m95.66,1.28l-.98.04c-.16.02-.27.03-.5.05-1.82.1-3.03.18-1.15.21.49,0,1.84-.01,1.61-.04-.55-.07,5.44-.29,1.02-.25Z"/><path d="m116.6.53l-2.74.08c-.03.05-2.31.2.12.14,1.79-.04,3.05-.15,2.62-.22Z"/><path d="m103.68,1.04h-3.04c.07.04-1.56.14-.17.13,1.11,0,2.31-.07,3.21-.13Z"/><path d="m50.48,2.94c.55-.03.89-.05,1.21-.06.35-.04.69-.07,1.03-.11-.29.01-.56.01-.88.04-.33.03-.72.07-1.35.13Z"/><path d="m98.58,1.1l-2.63.11c-.12,0-.25.02-.38.03l.12.03c1.18-.05,2.92-.09,2.89-.17Z"/><path d="m119.02.45c-.78,0-1.56-.01-2.35.08l2.35-.08Z"/><path d="m56.18,2.35c.27,0,.4-.01.54-.02-.1,0-.2,0-.54.02Z"/><path d="m6.02,14.26c-1.03.25-2.21.55-2.81.78-.21.13-1.1.37-2.04.8-.24.11-.48.23-.7.42-.1.09-.24.2-.25.42,0,.23.17.34.27.41.47.27.91.33,1.23.39.47.1,2.08.42,2.79.4.44,0-1.14-.19-2.09-.4-.49-.11-.92-.2-1.38-.35-.21-.09-.5-.17-.62-.39-.05-.24.29-.45.56-.62,1.54-.81,3.53-1.29,5.05-1.55.92-.15,2.55-.56,3.51-.78,1.68-.38.31-.14-.68.03-1.57.27-3.11.59-2.84.43Z"/><path d="m29.83,18.27c-.08.03.2.07-.68.1-.22.05-2.55.05-1.4.12.4.02,1.33.05,1.93.04,2.03-.01.68-.08,1.13-.12.25-.02.43-.05.81-.07.73-.04,2.87-.07,2.06-.11-.92-.05-2.46.04-3.86.04Z"/><path d="m22.92,18.41c-.2,0-.39-.02-.58-.02l-.55.03c.24,0,.52.01.72.02.18,0,.27-.01.41-.02Z"/><path d="m23.76,11.1l.93-.14c-.3.04-.63.09-.93.14Z"/><path d="m40.32,10.29c-.19,0-.25-.04-1.52.11.17,0,.78-.04,1.52-.11Z"/><path d="m65.29,6.49l-1.93.15s.43.08-.16.15c-1.04.12-1.98.22-1.63.25.17.01.75-.05.98-.08.83-.12,3.63-.33,2.87-.37-.25-.01-.1-.06-.13-.1Z"/><path d="m70.91,6.17c-.6.01-.64-.04-2,.06-.19.01-.66.08-.61.09.27.04,1.58-.07,2.61-.15Z"/><path d="m92.67,4.85l-.83.03s-.17.07.92.02l-.09-.06Z"/><path d="m54.95,7.58l-.22.08c1.12-.1.95-.12,1.1-.16l-.88.08Z"/><path d="m59.56,7.05l.34.02c.91-.11-.03-.03-.34-.02Z"/><path d="m72.51,8.34c-2.37-.04.39-.16-2.98-.18-1.23.02-2.09.07-2.73.13-1.35.11-3.01.25-.49.21,3.96-.04,4.14-.13,6.2-.16Z"/><path d="m56.59,9.04c1.36-.1,3.55-.17,3.42-.25-.04-.03-.59-.06-2.14.06-1.5.11-3.69.31-3.77.35-.16.08,1.78-.12,2.48-.15Z"/><path d="m58.07,8.72c-1.07.03-1.73.04-2.51.09-.98.06-2.72.19-2.79.25-.03.03.61.02,1.65-.06,1.12-.09,2.21-.17,3.65-.28Z"/><path d="m45.07,9.88c-.13-.01-.14-.04-1.13.05-.31.03-.48.06-.71.1l1.83-.14Z"/><path d="m61.83,8.62c-.31.03-.12.02.07,0h-.07Z"/><path d="m46.88,9.77l-.43.03-.43.03c.29,0,.58-.03.86-.07Z"/><path d="m161.19,1.5c.19.08,1.17.19,2.55.3,1.75.15,1.07.02,1.24-.02-1.7-.17-1.78-.07-3.79-.28Z"/><path d="m139.33.49c-.05-.05.5-.13-1.83-.16.14.05-.32.09.78.14h1.05Z"/><path d="m161.17,1.5l-.21-.03c.07.01.15.02.21.03Z"/><path d="m75.57,17.91l1.73-.03c-.3-.02.58-.09-.81-.06-.79.02-.98.06-.92.09Z"/><path d="m98.86,17.33c1.56-.03,3.15-.09,3.14-.18-1.16.06-2.45.11-3.14.18Z"/><path d="m186.55,4.77c-1.9-.32-3.88-.56-4.35-.8-.21-.11-2.65-.44-4.03-.65.75.19,1.34.36,2.28.58,2,.47,5.71,1.05,8.73,1.59.38.07.57.09,1.03.2.85.21,1.27.39,1.32.39.06-.03-.3-.31-1.14-.56-.7-.21-.7-.2-1.13-.22-.2,0-.16.04-1.45-.22-.4-.08-.83-.21-1.25-.31Z"/><path d="m182.58,6.4l1.03.05c1.83-.04-1-.3-.9-.42l-2.86-.08c-.28.1,3.5.36,2.73.44Z"/><path d="m187.38,6.21c-1.03-.04-2.1-.09-2.87-.09.03,0,0,.01.1.02,1.27.1,1.03.21,2.6.25,2.31.04-.27-.13.18-.18Z"/><path d="m190.87,5.99c-.26-.08-.57-.15-.54-.14.09.04.26.12.41.19.12.03.32.09.33.09.01-.01-.11-.08-.19-.13Z"/><path d="m177.35,3.64c.62.09,1.26.19,1.4.17-.59-.09-1.42-.23-1.4-.17Z"/><path d="m180.02,4l.39.04c-.17-.02-.34-.04-.39-.04Z"/><path d="m38.94,9.4l2.67-.31c.78-.23,5.26-.7,6.71-.96-.15-.03.22-.14-1.93.1.92-.03-.64.17-1.63.3-1.2.16-1.78.17-2.24.18l-2.72.3c-5.08.75-5.17.79-.87.38Z"/><path d="m42.52,8.71c.46-.01,1.04-.03,2.24-.18.99-.13,2.55-.33,1.63-.3-1.47.16-3.29.33-3.87.49Z"/><path d="m29.22,10.4c2.59-.17,3.38-.47,5.05-.7-2.06.19-3.58.44-5.05.7Z"/><path d="m23.75,11.11l.97-.14c-.33.01-.65.06-.97.14Z"/><path d="m146.7,4.84c1.87.05,1.96,0,2.11-.04-.28-.08.7-.04,1.73.02.59-.05.18-.16,2.87-.09.55-.07-2.39-.14-2.81-.21-3.8,0-4.11.16-3.91.33Z"/><path d="m177.01,6.03l1.19.05c-.67-.07-.84-.04-1.19-.05Z"/><path d="m175.63,14.6c-.45.04-.58.08-.7.12,1.92-.04,3.82-.09,5.73-.13,1.72-.04,1.76-.09,1.83-.14-1.02.01-2.28.05-2.89.02l-3.97.13Z"/><path d="m202.4,14.02s-.14-.08-1.19-.07c-.48,0-1.1.04-1.66.07.68.03,1.8.01,2.85,0Z"/><path d="m179.6,14.48c.61.04,1.86,0,2.89-.02-.59-.04-1.76,0-2.89.02Z"/><path d="m190.99,14.44s.9-.06.05-.06c-.09,0-.36,0-.44.01-.55.04-.23.05.39.05Z"/><path d="m108.84,4.55c1.6-.06,3.04.17,4.75-.08.27-.16-3.2-.03-4.79-.03.02.04.04.07.05.11Z"/><path d="m128.72,4.31h-.39c.12,0,.24,0,.39,0Z"/><path d="m108.79,4.45h-.21c.07,0,.15,0,.21,0Z"/><path d="m210.84,13.11l-1.92-.18-.12.06c1.35.12,2,.17,2.04.12Z"/><path d="m109.79,16.91c4.85-.1,5.41-.24,5.41-.38l-1.04-.12c-3.6.03-5.65.25-8.45.38-.34.14-.1.24,4.09.11Z"/><path d="m155.68,15.13h.41s-.17-.02-.41,0Z"/><path d="m95.95,1.21h-.68c.1.01.2.02.3.03.13,0,.25-.02.38-.03Z"/><path d="m146.45,15.39c.33,0,.66,0,1,0,0,0,.18-.01.27-.02-.41,0-.83.01-1.27.02Z"/><path d="m92.45,17.14h-1.82c.13.06.21.1,1.82,0Z"/><path d="m174.93,14.72l.37-.11c-.94.02-1.98.05-2.14.1-.16.05.75.04,1.77.02Z"/><path d="m140.91,4.61c.11-.04.14-.07-.78-.12.1.04-.33.07.78.12Z"/><path d="m136.3,4.32l.2.02c-.07,0-.14-.01-.2-.02Z"/><path d="m143.8,4.53c-.2-.03-.18-.07-.65-.09-.61-.03-1.19-.01-1,.01.38.05-1.55.09,1.36.15l.28-.07Z"/><path d="m143.8,4.53l-.28.07c1.45.02,1.33-.01.28-.07Z"/><path d="m84.79,5.25c-.13,0-.25,0-.41,0-.02,0-.33.03-.35.03-.04.01.01.02.03.03l.74-.06Z"/><path d="m39.4,18.43h.38c-.14,0-.28,0-.38,0Z"/><path d="m49.37,3.23l-1.47.16h.37c.39-.06.77-.12,1.1-.16Z"/><path d="m93.29,4.73l1.21-.03c-.09-.02-.33-.02-.58-.03l-.63.05Z"/><path d="m150.55,4.81c-1.04-.05-2.01-.1-1.73-.02l1.73.02Z"/>
                  </g>
                </mask>
              </defs>
              <path class="mask" d="m16.56,7.99c8.96-1.94,22.6-4.39,39.63-5.43,5.23-.32,9.02-.39,11.81-.45C121.07,1,128.73-.45,149.63.76c22.01,1.27,42.06,4.51,41.95,5.49-.15,1.38-39.82-3.26-91.82-1.52C47.45,6.48.12,14.11.37,16.71c.32,3.34,79.4.82,100.03.27,13.83-.37,19.74-.7,32.21-1.15,6.96-.25,19.84-.65,33.88-1.01,37.89-.98,48.57-.59,48.59-1.06.04-1.17-65.46-4.79-139.68-5.4-2.25-.02-4.15-.03-5.55-.04,0,0-5.05-.03-21.3,1.21-15.24,1.17-35.5,2.67-42.75,9.53-.89.84-2.95,2.79-2.5,5.03.53,2.63,4.2,3.98,4.97,4.25"
                    mask="url(#path-mask)" stroke="black" stroke-width="2" fill="none"
                    stroke-dasharray="807.3547973632812" stroke-dashoffset="807.3547973632812">
              </path>
            </svg>
        