
            <svg xmlns="http://www.w3.org/2000/svg">
              <defs>
                <mask id="path-mask">
                  <g fill="white">
                    <path d="m84.25,1.7c.33-.15.11-.45.16-.68l.24.1c.2.21.44.35.63.61.4.53,1.11.28,1.39-.35.21.05.34-.05.42-.25.28.17.68-.23.92.2.07.28.32.54.13.86-.14.21-.3.32-.54.14-.2-.15-.38-.12-.48.14h-.18c-.22.16-.56-.66-.72.09-.07,0-.21-.03-.21-.03-.16.65-.59.37-.96.31v-.17c.09-.08.06-.12-.05-.14-.02.01-.04.01-.06.01l-.02-.25c.06-.02.15.01.15-.1,0-.02-.05-.07-.07-.07-.11,0-.07.1-.08.16l-.36.13s-.06.01-.09.01c.04-.14.33-.27.07-.42-.28-.16-.37.08-.42.31-.04.24-.16.29-.35.14-.03-.35-.29-.22-.48-.26v-.11c.17-.19.04-.22-.11-.24-.21-.22-.22.12-.35.13l-.03-.05.03.04c0,.2.08.46-.29.38-.23-.05-.43.03-.38.35l-.23.04-.21-.4c.12-.01.18-.09.18-.21.15-.12.15-.24,0-.37-.2-.02-.27-.12-.2-.32.03-.09.07-.21-.06-.23-.08-.01-.24.08-.24.12.04.52-.48.55-.68.85-.04.06-.05.14-.08.21l-.03.15c-.47.03-.96-.13-1.37.27-.1.1-.26-.02-.36-.09-.19-.13-.32-.07-.42.12l-.91-.2-.02-.15c-.03-.22-.18-.32-.36-.29-.14.02-.09.19-.1.3-.5.09-1,.19-1.52.24l.02.05c0,.06.04.14-.06.16-.03.09-.03.19-.16.18.04-.33-.22-.4-.42-.46-.44-.12-.96-.3-1.34-.1-.26.14-.44.16-.7.15-.16,0-.06.22-.07.35l-1.51.05v-.24c.09-.14.07-.28.01-.43-.09-.27.03-.4.3-.39l.23-.13c.14-.02.31.03.37-.18l-.26-.07c-.04-.12-.19-.24,0-.35.11.13.21.15.32,0h.38c.16.4.48.67.82.92.23-.27.57-.46.61-.87.33.05.66.13.99,0,.01.14-.02.31.05.4.09.13-.25.34.06.35.22,0,.17-.2.14-.36-.01-.07-.02-.33.13-.09.27.45.2-.18.43-.1.04.06.06.18.11.18.13.02.13-.11.16-.2.42.03.83-.19,1.28.01.24.11.35-.27.41-.51l2.07-.02c0,.08-.02.17,0,.24.07.2-.25.58.11.59.32,0,.03-.34.07-.53.01-.05.12-.08.18-.12.57-.29,1.21-.26,1.81-.26.18,0,.45-.33.6.06.17.36,1.23.8,1.56.65Zm-2.02-.47l-.06.12s.07.04.09.03c.02,0,.03-.05.05-.09l-.07-.06Zm-3.43.47s-.03-.01-.05-.02c0,.05.02.05.05.02Z"/><path d="m8.41,3.15c-.78.13-1.53-.1-2.3-.13-.09-.67-.59-.3-.91-.39-.06-.2-.04-.44-.39-.25-.21.12-.51.06-.78.08-.21-.09.47-.82-.33-.48-.11-.02-.28.06-.29-.17,0-.12-.11-.26-.22-.22-.11.04-.21.18-.25.3-.07.2.14.11.2.16.12.11.2.27.3.4-.07.16-.35.07-.34.32-.16-.36-.78.12-.77-.38,0-.25.26-.53.37-.83.12-.31.59-.37.96-.32.17.03.32.14.49.15.16.02.35.22.47.03.13-.2-.31-.12-.23-.36.26-.17.53-.24.82-.09.01.39.08.68.53.35.34-.25.74.3,1.07-.09h.12s.23.12.23.12c.38.42.8.5,1.26.14.26.32.56.48.96.26h.17s-.03.07-.06.09c-.23.14-.38.3-.15.57.06.07.22.15.2.03-.06-.28.67-.37.15-.76.14-.04.36.02.36-.25h.25c0,.16-.2.3-.03.43.13.1.28.04.39-.08h.16c.32.06.34.33.38.58.02.15.1.26.25.27.06,0,.15-.06.17-.11.05-.15-.07-.19-.17-.25-.35-.22.3-.47,0-.69.08-.24.28-.22.47-.22v.17c0,.16-.29.39,0,.48.22.07.37-.14.34-.41h.29s.39.25.39.25c.11.19.16.39.06.61-.05.1-.04.2.09.22.15.02.18-.1.2-.22l.21.12v.37c-.36-.04-.77.11-1.01-.37-.09-.18-.22-.08-.25.1-.02.13,0,.28-.15.36-.63.32-1.28.34-1.94.09-.39-.48-1.23-.46-1.75.04Zm-4.09-1.19s.09-.05.13-.08c-.03-.04-.07-.1-.1-.1-.04,0-.09.04-.17.08.07.05.11.1.14.1Z"/><path d="m46.23,1.99c.3-.1.44.13.6.33.08.1.03.39.27.28.19-.09.15-.29.11-.47-.04-.17-.06-.35-.08-.52l.71-.06c0,.18-.08.43.24.4.24-.02.35.09.35.34-.03.14-.31.17-.17.38.05.07.16.15.24.14.25-.03.08-.25.14-.38.03-.07.05-.15.1-.21.09-.11.35-.18.25-.33-.11-.17-.3.1-.47.07v-.34c.67-.09,1.32.01,1.97.21-.1.38-.17.81-.72.5-.09-.05-.24-.03-.28.12-.04.16.08.2.2.23.04.19.08.39.11.6l-.18.1.15.16c-.44.24-.85.18-1.24-.12-.1-.23-.3-.5-.5-.27-.38.44-1.08-.23-1.34.48-.38-.18-.77-.05-1.16-.07.01-.42-.28-.48-.53-.36-.22.11-.35.07-.52-.04.06-.37.45-.11.6-.34.06-.09.26.28.34.01.05-.16-.14-.31-.26-.44-.12-.13-.22-.16-.39-.02-.21.17-.46.29-.65-.09-.11-.23-.32-.06-.44.03-.21.15-.04.25.08.35.19.16.39.34.35.64l-.12.11c-.22-.47-.64-.29-.99-.34-.14-.02-.46.15-.36-.3.02-.11-.41.07-.42.19-.03.25-.14.23-.3.23h-.12c-.21.09-.47.27-.38-.21.11-.27.1-.26-.08-.35-.08-.04-.19-.1-.2-.18-.06-.26.26-.18.31-.36.33-.05.67-.32.95.13.07.12.28-.06.27-.09-.06-.17.39-.24.08-.43.01-.12.05-.14.18-.12.43.06.86.25,1.29.03.06.89.55.18.83.24.33,0,.57-.33.92-.25-.08.24-.33.59.25.4Zm1.36.39l-.07.11s.06.04.09.03c.02,0,.03-.05.05-.08l-.07-.06Z"/><path d="m95.4,2.39c.4-.21.92.13,1.29-.28.36.5.85.07,1.26.21.12.04.16.02.24-.05.24-.2.26-1.21-.02-1.33-.3-.12-.39-.31-.48-.59-.09-.29-.24-.58-.5-.09-.03.05-.14.11-.19.1-.48-.17-.93.09-1.39.11-1.07.04-2.15.15-3.22.24v.27c.1,0,.18,0,.2.12.16-.06.35-.13.48-.13.32-.02.7-.29.97.09.16.22,1.27.61,1.49.46.04-.03.07-.09.06-.14-.07-.37.15-.2.24-.12.12.09.19.24.3.35.06.06.23-.04.22.1,0,.09-.1.17-.24.21-.28.07-.68,0-.7.49Z"/><path d="m34.29,3.63c.28-.08.62-.02.8-.34-.08-.04-.18-.13-.24-.11-.22.09-.42.23-.58-.08-.13-.25.05-.39.19-.56.24-.3.42-.16.6.05.12.13.32.18.41.08.33-.35.48-.02.68.16.13.02.29-.03.32.16,0,.04-.05.13-.08.13-.17-.01-.17-.18-.24-.29l-.36.62c.23.5.54.18.82.08,0-.17.01-.32.22-.35,0-.12.02-.24-.01-.35-.09-.33.25-.28.35-.44.03-.04.1-.08.12,0,.04.18-.07.26-.2.36-.07.06-.02.28-.02.43.11-.17.44.1.47-.24-.04-.04-.16-.07-.04-.16l.04.16c.16.08.06.39.27.38.07,0,.13-.24.2-.38,0-.1.02-.19.12-.24l-.02-.11h-.11c-.18-.2-.74-.41.02-.57.05-.01.07-.16.11-.24-.33,0-.67.19-.97-.18-.04-.04-.48.25-.77.27-.08.15-.18.17-.36.19-.52.05-1.06-.27-1.56.09-.2-.37-.56.05-.77-.16-.2-.2-.37-.26-.63-.08-.35.24-.5.06-.5-.32l-.57.04c.02.24-.13.39-.25.56.26.31.53.62-.03.91-.07.04-.03.14.05.19.23-.24.55.1.74-.1.44-.47.35,0,.41.22h.12c.01-.14.08-.22.22-.22.02-.18.11-.24.24-.25v-.2c.12.02.1.12.1.21.26.2.65.24.69.68Z"/><path d="m88.87,2.16c.15,0,.25-.09.32-.21.16-.25.35-.49.03-.77-.5-.44-.5.24-.74.35l-.47-.2c-.23-.43-.63-.04-.92-.2l-.02-.31c.27.03.56-.33.77-.06.26.33.52.23.81.16,1.15-.31,2.31-.31,3.48-.21.03.15.03.29-.11.38h-.22s-.12-.12-.12-.12c-.04-.06-.07-.07-.1,0-.73.09-.83.23-.53.75,0,.02.01.04.02.05.64-.35.85.7,1.48.48.26-.09.61-.13.7.32-.17.01-.35.38-.42.19-.12-.36-.3-.17-.48-.17-.63,0-1.25-.03-1.9.06-.92.12-1.89-.02-2.83.07-.19.02-.48.13-.51-.25.1-.26.28-.29.48-.14.24.18.4.08.54-.14.25.11.5.25.73-.04Zm1.13-.88c0,.13.09.36.27.29.18-.08.44-.26.45-.4,0-.29-.22,0-.31-.06-.17.04-.44-.21-.41.18Zm.58,1.07c.12,0,.33,0,.33-.23,0-.13-.08-.25-.21-.23-.14.01-.27.09-.44.15.14.14.22.3.32.31Zm-.74-.84h-.07s.01.04.01.04c.05,0,.05-.02.06-.04Z"/><path d="m14.66,3.33c.29-.1.51-.06.84.06.47.18,1.06.06,1.59.03.27-.02.55.14.81-.06v-.35c-.05-.16-.2-.41-.01-.47.54-.17.48-.8.85-1.07-.2,0-.37.08-.53.2-.02,0-.04.01-.05.03-.02.16.06.37-.16.44-.17.06-.29-.01-.31-.21l-.03-.05.02.05c.25.12.26-.26.47-.23.01-.02.02-.04.02-.06-.23-.37-.52-.01-.78-.07-.33.36-.68.34-1.03.02-.1-.09-.17-.22-.29-.01-.19.33-.45.2-.7.09-.36.25-.21.58-.12.89.02.08.09.2-.03.25-.11.04-.17-.04-.21-.14h-.13c.06.27-.28.39-.22.66Z"/><path d="m54.9,3.27c.23.2.47.36.78.19.39-.35.8-.41,1.25-.12.08-.16.24-.19.38-.26l.24.1c-.03-.11-.08-.32-.09-.32-.43.08-.72-.36-1.14-.32-.3.03-.58.01-.66-.37,0-.01-.03-.02-.05-.02l-.17.13c.06.43-.25.39-.48.35-.76-.11-1.53.13-2.3-.09-.47-.13-.49-.02-.27-.48.07-.14.11-.29.16-.44-.44.09-.96-.14-1.31.33.08.04.17.09.25.1.14.02.34-.24.41.02.03.11-.2.31-.34.43-.07.06-.22.04-.33.05-.09,0-.2,0-.24.11-.06.14.04.21.14.28.15.1.2.35.43.34.3.25.63.39,1.03.26.45-.37.97-.37,1.5-.35,0-.1.01-.23.11-.22.17,0,.06.17.1.26.22-.35.45-.78.6.04Z"/><path d="m91.81,1.09l-.12-.12h-.05s-.05,0-.05,0c-.73.09-.83.23-.53.75,0,.02.01.04.02.05.64-.35.85.7,1.48.48.26-.09.61-.13.7.32.18-.2.53-.1.66-.39-.19-.24-.03-.61.07-.6.28,0,.12.32.17.5,0,.04,0,.08,0,.12.23.34.58-.06.83.15.14-.12.28-.12.4.04.02-.49.42-.41.7-.49.13-.04.23-.12.24-.21.01-.14-.16-.03-.22-.1-.1-.11-.18-.26-.3-.35-.1-.08-.31-.25-.24.12,0,.04-.03.11-.06.14-.22.15-1.33-.23-1.49-.46-.27-.37-.65-.1-.97-.09-.13,0-.32.07-.48.13-.15.12-.16-.01-.19-.12v-.27s-.24,0-.24,0c.03.15.03.29-.11.38-.03.06-.04.16-.08.17-.12.03-.12-.09-.14-.17Z"/><path d="m19.76,1.56v.14c.09.27.16.56.28.82.24.56.7.63,1.08.16.05-.06.07-.15.13-.18.21-.11.23-.52.02-.68q-.09-.07-.14.2c-.03.12-.02.29-.18.29-.05,0-.1-.14-.15-.22-.3-.1-.28-.39-.34-.63.35-.15.7-.13,1.06-.03-.15.38.2.48.36.68l.18-.23.37-.11s0,.06,0,.1c-.23.43.11.81.1,1.22h-.22s0-.04-.01-.05c-.15-.13-.12-.54-.31-.47-.28.1.03.4-.03.61l-.14.27c-.53-.05-1.08.06-1.6-.15h-.23s0-.24,0-.24l.05-.06-.06.05h-.14c-.07-.02-.17-.13-.17.07l-.23.12.03-.04.03.04c-.15-.27-.55-.24-.65-.68-.05-.21-.55.18-.82.35-.05.03-.07.08-.11.13-.06-.16-.2-.41-.02-.47.54-.17.48-.8.85-1.07.36-.15.7-.13,1.03.09Zm1.5,1.32c0,.07.03.13.05.2.02-.03.04-.07.04-.1,0-.05-.01-.11-.03-.18-.03.04-.07.07-.07.09Z"/><path d="m36.84,3.17c-.21.03-.23.18-.22.35l.19.04.15-.02c.37.08.73.2,1.13.04.16-.07.39-.08.59.05.21.14.61.15.68.11.72-.41,1.41-.2,2.09.01.25.08.41-.11.62-.11h3.17c.11,0,.23.05.29-.09.01-.42-.28-.48-.53-.36-.22.11-.35.07-.52-.04-.08.16-.22.12-.35.14l-.12.11c-.22-.47-.64-.29-.99-.34-.14-.02-.46.15-.36-.3.02-.11-.41.07-.42.19-.03.25-.14.23-.3.23-.04.11-.08.11-.12,0-.21.1-.47.27-.38-.21h-.17c-.18.18-.37.33-.62.11-.21.28-.41.65-.68.05l-.33-.02c-.07.29-.3.19-.48.2-.26.02-.22-.19-.23-.35-.3.42-.61.29-.91,0-.06.13-.12.37-.2.38-.2.01-.1-.3-.27-.38-.03.34-.35.07-.47.24h-.24Z"/><path d="m24.48,3.33c.16.22.34.34.58.12-.14-.2-.27-.41-.1-.64.13-.18.23.14.36.06.18.39.28.16.41-.04.14-.23.28-.28.37.04.33-.07.28-.37.34-.6-.05-.27-.31-.37-.44-.58-.22-.25-.5-.31-.78-.2-.21.08-.39.09-.59.03-.2.14,0,.58-.35.59-.26,0-.21-.28-.25-.46l-.23.03c.01.17.04.35.04.52,0,.11-.11.16-.21.15-.09,0-.15-.07-.1-.15.08-.12.28-.23.07-.36-.05-.03-.24.19-.37.29-.04.04-.06.15-.14.04l.15-.04c-.08-.49-.37-.39-.68-.26-.1.4.36.6.32.98.5-.22.49.1.45.46.2-.06.36.19.57.08-.02-.41.2-.77.55-.72.48.07-.16.36,0,.56.02.03.03.07.04.11Z"/><path d="m67.5,2.9h.19s.36-.14.36-.14l.13-.02v-.1c-.09-.04-.13-.1-.07-.19,0-.01.04-.02.05-.01.1.07,0,.14,0,.2.19.02.33-.05.41-.24.27-.6.72-.12.72.02-.02.44.28.42.5.53l.82-.47c.12-.06.36-.02.28-.26-.06-.2-.31-.05-.38-.11-.2-.19-.5.39-.62-.1-.15-.03-.33-.02-.36-.25-.13,0-.26.03-.35-.11-.28-.03-.57-.05-.85-.1-.55-.09-1.02.4-1.58.24v.28c.14-.01.28-.04.36.13,0,.16,0,.32-.22.33l.11.35h.49Z"/><path d="m31.77,3.29c-.07-.05-.12-.15-.05-.19.56-.29.29-.6.03-.91l-.21.03v.35s.03.05.03.05l-.02-.05c-.19-.12-.62.14-.58-.37-.32.04-.61-.41-.97-.06-.05.05-.28-.09-.29-.29l-.34-.05c-.15.29-.58.4-.5.84,0,.02-.07.06-.11.09-.25-.7-.36.17-.56.05v.12c.58.65.72.05.93-.35l.04-.03-.05.03c.12.06.33.11.33.17.05.88.48.33.83.28.36-.05.77-.22,1.09.16.16.1.13.41.4.38v-.25Z"/><path d="m13.29,2.43l.21.12c.52.09.51.47.44.87.17.14.16-.09.25-.12-.14-.55.12-1.02.6-1.07-.1-.28-.11-.56.02-.84-.11-.29-.22-.09-.32,0,.07.06.08.16-.01.17-.13.02-.1-.12-.12-.21-.27-.4-.68-.14-.97-.13-.48.02-1-.19-1.46.12v.17s.33.06.33.06c.11-.21.2-.1.29,0l.39.25c.03-.16.06-.33.27-.3.14.02.22.13.29.26.15.3-.07.46-.21.64Z"/><path d="m69.9,2.03c.12.49.42-.09.62.1.07.06.32-.09.38.11.07.24-.16.19-.28.26l-.82.47.1.21h.13c.36-.36.84-.16,1.26-.27.1-.14.07-.28.02-.43-.09-.27.03-.4.3-.39v-.12c0-.17.08-.25.25-.23.03,0,.07,0,.1-.02-.04-.12-.19-.24,0-.35v-.12c-.67-.06-1.33-.18-1.99.02.11.27.31.55-.07.77Z"/><path d="m60.45,3.27c.14-.01.13.48.37.11.18-.28.36.11.54,0,.04-.47.29-.38.55-.21.22.14.4.07.56-.09.17-.17.24-.36.06-.57-.24-.02-.47-.18-.73-.08-.81.32-.9.31-1.56-.05-.02,0-.05-.02-.05-.01-.33.45-.84-.18-1.17.22.04.21.04.44.27.54,0-.15.06-.17.22-.15.33.05.64.14.94.29Z"/><path d="m69.9,2.03c.39-.22.18-.5.07-.77-.26-.13-.44-.37-.8,0-.26.26-.8,0-1.22.04-.57.05-1.17.16-1.75,0-.25-.07-.42-.04-.39.29.03.33.24.31.47.25l.47-.03c.56.16,1.03-.33,1.58-.24.28.05.56.07.85.1.07-.06.14-.17.2-.16.13.02.14.16.15.28.03.23.21.22.36.25Z"/><path d="m29.11,2.55c-.21.4-.35,1-.93.35l-.47.15c-.12.09-.25.17-.22.36.22.31.5.08.74.08.91-.02,1.83.14,2.75-.04.25-.05.28-.16.38-.3-.31-.38-.73-.22-1.09-.16-.34.05-.77.6-.83-.28,0-.06-.22-.11-.33-.17Z"/><path d="m52.55,1.61c-.05.15-.1.3-.16.44-.22.46-.19.35.27.48.78.22,1.54-.02,2.3.09.23.03.54.08.48-.35-.44-.45-.91-.38-1.43-.15-.33.15-.59.06-.53-.41-.34.2-.62-.14-.94-.1Z"/><path d="m59.01,2.6c.33-.4.85.23,1.17-.22,0,0,.04,0,.05.01.66.36.75.37,1.56.05.26-.1.49.06.73.08-.11-.39-.23-.77-.63-.96l-.29.25c-.1.25-.27.23-.51.19-.29-.05-.64,0-.88-.03-.5-.05-.94.36-1.42.11l.13.5s.06,0,.09.01Z"/><path d="m64.87,1.82c-.14.38-.26.73.34.77.19.01.08.17.06.27-.29.24-.62.1-.84-.05-.54-.39-.66-.05-.77.39l-.11.03c-.36-.21-.94-.31-.4-.94.1-.11.09-.32.13-.49.3-.01.61-.04.91-.03.2,0,.34-.01.36-.25l.34.03c-.01.1,0,.2-.04.29Zm-.96.36s-.03-.01-.06.03c.02,0,.03,0,.06-.03Z"/><path d="m3.12,2.76c-.16-.36-.78.12-.77-.38,0-.25.26-.53.37-.83.12-.31.59-.37.96-.32.17.03.32.14.49.15.16.02.35.22.47.03.13-.2-.31-.12-.23-.36-.53-.42-1.23.04-1.78-.35-.17-.12-.15.23-.29.27-.14.14.47.34-.04.45-.18.37-.64.57-.58,1.08.11.03.24.04.31.11.17.18.14.8.6.24,0,0,.15.15.25.18.28.11.55.07.8-.12-.07-.48-.4,0-.55-.16Z"/><path d="m1.64,1.08c-.14-.02-.24-.09-.31-.23-.17-.34-.52-.56-.79-.35C.29.69.06,1.02.02,1.42c-.07.73.23.97.91.85.17-.03.37.15.56.24.22-.29.14-.59-.07-.8-.22-.21-.43-.06-.6.18-.06.09-.34.23-.31-.04.03-.24-.12-.46-.02-.69.07-.14.1-.32.29-.34.19-.02.27.14.29.3.02.18.04.32.26.31.21-.01.32-.12.32-.34Z"/><path d="m58.79,2.08c.48.25.92-.17,1.43-.11.25.03.6-.01.88.03.24.04.4.06.51-.19-.41-.6-1.01-.25-1.51-.27-.74-.03-1.5.25-2.23-.12l-.06.16c.11.18.49.39-.08.48-.19.03-.29.23.03.3.34-.1.58-.6,1.03-.27Z"/><path d="m32.57,1.59c0,.38.16.57.5.32.26-.18.42-.12.63.08.21.21.57-.21.77.16.5-.36,1.04-.04,1.56-.09.18-.02.28-.04.36-.19-.48-.33-.99-.35-1.55-.29-.35.03-.72.06-1.1-.08-.34-.12-.77.05-1.17.09Z"/><path d="m10.06,1.43h.25s.36.34.36.34h.16s.52-.23.52-.23c-.29-.61-.9-.43-1.33-.46-.86-.06-1.73.08-2.6.14l-.23.12c.38.42.8.5,1.26.14.37-.11.77-.32.96.26h.17s.12-.03.12-.03c0-.09,0-.13,0-.17l-.03-.09.08.04.32-.08Z"/><path d="m74.08,1.41c.33.05.66.13.99,0,.26-.02.52,0,.72.21.18,0,.27-.01.36-.02.42.03.83-.19,1.28.01.24.11.35-.27.41-.51-1.27-.08-2.54-.09-3.81.1l.05.21Z"/><path d="m65.28,2.85c-.29.24-.62.1-.84-.05-.54-.39-.66-.05-.77.39.89.11,1.78.32,2.65-.05.21-.09.35.17.52.13.24-.06.61.09.65-.36h-.49s-.81-.09-.81-.09l-.92.04Z"/><path d="m82.83,2c0,.2.08.46-.29.38-.23-.05-.43.03-.38.35.96.22,1.91.44,2.89.11v-.17s-.05-.14-.05-.14c-.02.01-.04.01-.06.01-.16.08-.32.16-.38-.12-.03,0-.06.01-.09.01l-.35-.1c-.04.24-.16.29-.35.14-.21-.03-.41.26-.6.03-.06-.08.02-.21.12-.28v-.11s-.11-.24-.11-.24c-.21-.22-.22.12-.34.13Z"/><path d="m63.57,3.22c-.36-.21-.94-.31-.4-.94.1-.11.09-.32.13-.49-.17-.03-.12-.17-.13-.27l-.23.04c.07.26-.22.37-.22.6l.15.05s-.03.04-.03.04l-.12-.09c-.2-.16-.08-.39-.13-.59-.23-.29-.47-.33-.7,0,.4.18.52.56.63.96.19.21.11.4-.06.57-.16.16-.34.24-.56.09-.26-.17-.51-.26-.55.21.58.06,1.17-.15,1.75.05.23.08.35-.06.46-.22Z"/><path d="m57.76,2.35c-.33-.07-.22-.27-.03-.3.57-.09.19-.29.08-.48-.1.23-.28.06-.42.1.02.15-.09.37-.17.31-.42-.3-.72.18-1.08.15-.19.19-.21.03-.22-.12-.2-.19-.25-.02-.3.13.02,0,.05.01.05.02.09.38.36.4.66.37.41-.04.71.39,1.14.32.01,0,.06.21.09.32l.45.22.24.13.02-.34c-.51-.06-.55-.42-.51-.84Z"/><path d="m51.56,3.28c-.24.01-.28-.24-.43-.34-.1-.07-.2-.14-.14-.28.04-.11.15-.1.24-.11.11-.01.26.01.33-.05.14-.12.36-.32.34-.43-.06-.26-.27,0-.41-.02-.09-.01-.17-.07-.25-.1-.11-.19-.21,0-.31.01-.17.1-.36.24-.3.44.21.79-.33.79-.81.87.06.17.31.09.33.31.39-.13.77.1,1.17.06.29-.03.22-.2.25-.35Z"/><path d="m56.14,2.13c.37.04.66-.45,1.08-.15.09.06.19-.15.17-.31-.73-.03-1.46,0-2.2.08-.37.04-.75-.03-1.12-.11-.22-.05-.4,0-.59.06-.06.47.2.56.53.41.52-.23.99-.3,1.43.15l.17-.13c.06-.15.1-.33.3-.13l.22.12Z"/><path d="m65.28,2.85l.92-.04v-.25c-.12,0-.23-.04-.22-.19.02-.15.14-.15.26-.16.04-.12.04-.25.04-.38-.23.06-.43.08-.46-.25-.3-.13-.6-.13-.91-.05-.01.1,0,.2-.04.29-.14.38-.26.73.34.77.19.01.08.17.06.27Z"/><path d="m27.71,3.05l.47-.15v-.12s-.02-.05-.02-.05l.02.05c.2.12.31-.76.56-.05.04-.03.12-.07.11-.09-.08-.44.35-.55.5-.84-.02-.14-.13-.12-.22-.12-.12.19-.32.13-.49.15-.13-.08-.21.42-.27.08-.07-.36-.28-.13-.4-.22-.2.24-.3.1-.36-.12-.12-.05-.26-.29-.34.04l-.05.19c.14.08.21.28.41.28.13.08.08.22.09.34.62.22-.09.43,0,.64Z"/><path d="m84.65,1.12c.2.21.44.35.63.61.4.53,1.11.28,1.39-.35-.28.01-.6.05-.42-.43-.55-.08-1.1-.16-1.6.17Z"/><path d="m27.72,2.41c.62.22-.09.43,0,.64-.12.09-.25.17-.22.36-.35.03-.73.37-1.04-.09-.02-.02-.02-.05-.01-.08.47-.37.51-.9.49-1.45h.3c.14.08.21.28.41.27-.01.13-.02.25.09.34Zm-.37.39c.07.06.15-.05.12-.11-.05-.14.19-.4-.16-.4-.18.06-.16.15-.04.25.02.09.02.21.08.26Z"/><path d="m35.8,3.45c-.11,0-.2-.24-.32-.04-.27.44-.3.05-.39-.12-.08-.04-.18-.13-.24-.11-.22.09-.42.23-.58-.08-.13-.25.05-.39.19-.56.24-.3.42-.16.6.05.12.13.32.18.41.08.33-.35.48-.02.68.16l-.36.62Zm-1.29-.47s.04-.02.04-.03c0-.03,0-.06,0-.09l-.09.05s.03.05.05.07Z"/><path d="m80.62,2.58c-.47.03-.96-.13-1.37.27-.1.1-.26-.02-.36-.09-.19-.13-.32-.07-.42.12.41.39.88.23,1.33.15.58-.11,1.14.33,1.71.04.08-.04.19-.04.22-.16-.13-.27-.33-.34-.56-.17-.27.21-.41.06-.55-.16Z"/><path d="m1.64,1.08c0,.22-.11.33-.32.34-.21.01-.24-.13-.26-.31-.02-.17-.1-.32-.29-.3-.19.01-.22.2-.29.34-.11.23.04.45.02.69-.03.28.25.13.31.04.17-.24.38-.38.6-.18.22.2.29.51.07.8.07.08.15.13.23,0-.05-.5.4-.71.58-1.08-.12-.11-.23-.22-.23-.41l-.43.05Z"/><path d="m38.01,2.95c.3.29.61.42.91,0,.18-.36.73-.27.83-.73l-.04-.4c-.2-.13-.38-.1-.55.07-.03.07.05.18-.07.22l-.04-.22s-.07-.03-.11-.02c-.47.07-.38.73-.81.84-.1.05-.12.14-.12.24Z"/><path d="m69.9,3.17l-.1-.21c-.22-.11-.52-.09-.5-.53,0-.14-.45-.62-.72-.02-.08.19-.22.26-.41.24,0,.03.01.06.02.1v.37c.57.14,1.14.39,1.72.06Z"/><path d="m75.34,3.16c.04-.33-.22-.4-.42-.46-.44-.12-.96-.3-1.34-.1-.26.14-.44.16-.7.15-.16,0-.06.22-.07.35.56.08,1.1.24,1.68.02.25-.09.57.02.86.04Z"/><path d="m31.53,2.21l.21-.03c.12-.17.27-.32.25-.56-.58-.18-1.2.12-1.78-.23-.23-.14-.31.33-.52.45,0,.2.23.34.29.29.36-.35.65.1.97.06.21-.71.38.11.58.02Z"/><path d="m41.26,2.96h.17c.11-.26.1-.25-.08-.34-.08-.04-.19-.1-.2-.18-.06-.26.26-.18.31-.36l-.24-.24-.38-.08-.77.45c.53.37.52.46-.11.92.27.6.47.23.68-.05.21-.05.31-.7.62-.12Z"/><path d="m49.81,3.26c.48-.08,1.02-.08.81-.87-.05-.2.13-.34.3-.44-.06-.41-.3-.07-.45-.12-.1.38-.17.81-.72.5-.09-.05-.24-.03-.28.12-.04.16.08.2.2.22l.05-.02-.05.03.13.58Z"/><path d="m26.45,3.33s-.02-.05-.01-.08c-.05-.19-.41-.08-.34-.38-.09-.32-.22-.27-.37-.04-.12.2-.23.43-.41.04-.14.07-.23-.25-.36-.06-.17.23-.03.44.1.64.47.04.96.4,1.39-.12Z"/><path d="m19.48,3.21c-.15-.27-.55-.24-.65-.68-.05-.21-.55.18-.82.35-.05.03-.07.08-.11.13v.35c.4.27.8-.18,1.21-.03l.3-.05s.06-.03.08-.07Z"/><path d="m82.68,1.05c.17.36,1.23.8,1.56.65.33-.15.11-.45.16-.68-.21.06-.42.21-.62-.02-.04-.05-.19-.09-.2-.07-.25.43-.61.05-.9.12Z"/><path d="m3.12,2.76c.16.16.49-.31.55.16.16.21.33.09.49.01.28-.33.71-.14,1.04-.31-.06-.2-.04-.44-.39-.25-.21.12-.51.06-.77.09l-.15.15-.04-.07.18-.09c-.21-.09.47-.82-.33-.48-.03.19.06.44-.25.47-.07.16-.35.07-.34.32Z"/><path d="m75.57,2.82c0,.06.04.14-.06.16.7.06,1.46.47,2.04-.3l-.02-.15h-.46c-.5.11-1,.2-1.5.3Z"/><path d="m5.2,2.63c-.33.17-.75-.02-1.04.31.03.38.29.08.42.12.5.14,1.02.05,1.53-.04-.09-.67-.59-.3-.91-.39Z"/><path d="m13.5,2.93c-.36-.04-.77.11-1-.37-.09-.18-.22-.08-.25.1-.02.13,0,.28-.15.36-.06.38.25.27.41.3.36.05.73.04,1.09.06-.03-.15.07-.33-.1-.45Z"/><path d="m15.37,1.66c.25.11.51.24.7-.09.12-.21.19-.08.29.01.35.31.69.34,1.03-.02-.32-.34-.73-.29-1.13-.26-.29.02-.58.07-.88.1v.26Z"/><path d="m45.98,1.59c-.08.24-.33.59.25.4.3-.1.44.13.6.33.08.1.03.39.27.28.19-.09.15-.29.11-.47-.04-.17-.06-.35-.08-.52l-1.14-.03Z"/><path d="m23.32,3.3c.04-.35.05-.67-.45-.46l-.35.23h-.22c-.1.13-.23.11-.35.1l-.14.27c-.01.24.14.18.26.15l1.24-.29Z"/><path d="m41.23,1.85l.24.24c.33-.05.67-.32.95.13.07.12.28-.06.27-.09-.06-.17.39-.24.08-.43-.51.08-1.07-.36-1.54.15Z"/><path d="m23.22,2.13c.13-.1.32-.32.37-.29.21.13,0,.24-.07.36-.05.08.01.15.1.15.1,0,.21-.04.21-.15,0-.17-.02-.35-.04-.52-.41-.34-.89-.27-1.36-.22l-.02.3s0,.06,0,.1h.13c.3-.12.59-.21.67.27Z"/><path d="m38.13,2.71c.43-.11.34-.77.81-.84-.24-.3-.49-.56-.81-.09-.04.08-.06.23-.11.24-.76.16-.2.37-.02.56.02-.08,0-.2.14-.19l-.03.2.02.11Z"/><path d="m48.52,3.42c-.1-.23-.3-.5-.5-.27-.38.44-1.08-.23-1.34.48.63.05,1.24-.02,1.84-.21Z"/><path d="m58,3.39l-.45-.22-.24-.1c0,.29-.19.27-.38.26-.45-.28-.86-.23-1.25.12.04.13.16.25.24.21.67-.31,1.43.16,2.08-.28Z"/><path d="m5.23.98c.01.39.08.68.53.35.34-.25.74.3,1.07-.09-.47-.54-1.05-.25-1.6-.26Z"/><path d="m72.65,1.36c.16.41.48.68.82.92-.08-.41.09-.74.31-1.06-.24-.21-.44-.02-.66.06-.11.33-.3.11-.47.08Z"/><path d="m10.16,3.11c-.39-.48-1.23-.46-1.75.04.49.23,1,.04,1.5.05.02-.24.14-.15.25-.09Z"/><path d="m33.5,2.94c-.13.01-.23.07-.23.23l.15.08.03.13-.11-.04-.09-.15c-.14,0-.2.08-.22.22.42.05.79.45,1.26.23-.04-.43-.43-.48-.69-.68h-.1Z"/><path d="m54.09,3.19c-.53-.02-1.06-.02-1.5.35.18.21.35.3.61.08.33-.27.75-.02,1.13-.12l-.02-.27-.21-.04Z"/><path d="m14.79,2.23c-.47.05-.74.53-.6,1.07l.46.02c-.07-.27.28-.39.22-.65-.13-.13-.07-.29-.08-.44Z"/><path d="m40.07,2.22l.77-.45c-.39-.2-.78-.35-1.14.05l.04.4h.33Z"/><path d="m26.92,1.81h.3s.05-.2.05-.2c-.43-.08-.87-.28-1.27.08.13.21.39.3.44.58.08-.05.15-.09.23-.12.02-.17.03-.34.26-.34Z"/><path d="m15.37,1.66v-.26s-.57-.01-.57-.01c-.12.28-.12.56-.02.84.28.03.21.25.21.43.04.09.1.18.21.14.13-.05.05-.17.03-.25-.08-.32-.24-.64.12-.89Z"/><path d="m31.77,3.29v.25c.38.02.81.39,1.15-.13-.06-.22.03-.69-.41-.22-.19.21-.52-.14-.74.1Z"/><path d="m58.27,3.19l-.02.34c.45.23.85-.01,1.26-.15l-.22-.24c-.23-.11-.24-.33-.27-.54-.03,0-.06-.01-.09-.01,0,.46-.06.84-.65.6Z"/><path d="m63.3,1.79c.3-.01.61-.04.91-.03.2,0,.34-.01.36-.25-.41-.3-.86,0-1.28-.08,0,.12,0,.24,0,.36Z"/><path d="m59.29,3.14l.22.24c.33.15.68.43.94-.1-.3-.15-.61-.24-.94-.29-.16-.02-.21,0-.22.15Z"/><path d="m24.48,3.33s-.02-.08-.04-.11c-.16-.2.47-.49,0-.56-.34-.05-.57.31-.55.72.2.06.41.27.59-.05Z"/><path d="m80.62,2.58c.14.22.27.37.55.16.23-.17.43-.1.56.17.08-.03.19-.01.21-.13l-.21-.4c-.36-.1-.72.04-1.07.05l-.03.15Z"/><path d="m86.26.95c-.18.48.13.44.42.43.21.05.34-.06.42-.25l-.02-.31c-.27.09-.53.18-.82.13Z"/><path d="m71.29,2.91c-.42.11-.89-.09-1.26.27.43.29.84-.04,1.26-.03v-.24Z"/><path d="m44.23,1.61c.06.89.55.18.83.24-.02-.17.06-.43-.28-.31-.17.06-.37.05-.55.07Z"/><path d="m24.03,1.64c.04.18,0,.46.25.46.35,0,.15-.44.35-.59-.28-.34-.4.08-.6.13Z"/><path d="m11.35,1.55l-.52.24c.32.05.34.31.38.57.02.15.1.26.25.27.06,0,.15-.06.17-.11.05-.15-.07-.19-.17-.25-.35-.22.3-.47,0-.69-.03-.02-.07-.02-.1-.02Z"/><path d="m86.93,2.48c-.22.16-.56-.66-.72.09q.11.44.72-.09Z"/><path d="m20.79,2.09c-.3-.1-.28-.39-.34-.63-.24-.02-.5-.2-.69.1v.14c.17.06.48-.05.5.19.05.53.3.31.54.2Z"/><path d="m21.51,1.43c-.15.38.2.48.36.68l.18-.23.15-.49c-.24-.07-.45.22-.69.05Z"/><path d="m48.51,1.97v-.34c-.22-.1-.43-.19-.67-.07,0,.18-.08.43.24.4.24-.02.35.09.35.34.11-.09.07-.21.08-.32Z"/><path d="m73.78,1.22c-.22.32-.39.65-.31,1.06.23-.27.57-.46.61-.87l-.05-.21-.25.03Z"/><path d="m13.5,2.93c.17.12.07.3.1.45l.34.05c.06-.41.08-.78-.44-.87v.37Z"/><path d="m54.3,3.23l.02.27c.22.01.41-.07.58-.23-.15-.82-.38-.39-.6-.04Z"/><path d="m79.9,1.08c0,.08-.02.17,0,.24.07.2-.25.58.11.59.32,0,.03-.34.07-.53.01-.05.12-.08.18-.12-.08-.15-.16-.31-.36-.17Z"/><path d="m72.65,1.36c.16.03.36.25.47-.08l-.25-.06c-.1.01-.18,0-.22-.1l-.47.12.1.13h.38Z"/><path d="m94.17,2.2s0-.08,0-.12c-.05-.18.11-.49-.17-.5-.1,0-.26.37-.07.6l.24.02Z"/><path d="m62.73,2.15c0-.23.29-.34.22-.6l-.35.02c.05.19-.07.43.13.58Z"/><path d="m2.07,1.03c0,.18.11.3.23.41.51-.1-.1-.31.04-.45-.02-.03-.05-.05-.09-.03h-.15s-.04.04-.03.07Z"/><path d="m19.65,3.09l-.23.12c.1.27.38.19.55.31l.02-.24v-.24c-.07-.01-.12-.01-.16-.01-.02.14-.1.1-.17.06Z"/><path d="m50.14,3.57c-.02-.22-.27-.14-.35-.29l-.18.1.15.16c.12.07.25.09.38.03Z"/><path d="m27.61,1.57c.07.22.16.36.36.12-.1-.12-.13-.44-.36-.12Z"/><path d="m68.05,2.77l-.36.13c-.01.32.19.24.37.2v-.34Z"/><path d="m28.65,1.82c.17-.01.37.05.49-.15-.25-.25-.38-.1-.49.15Z"/><path d="m95.4,2.39c-.12-.15-.25-.16-.4-.04.13.05.22.51.4.04Z"/><path d="m72.28,1.36l-.1-.13h-.23s.01.13.01.13c.11.13.21.15.32,0Z"/><path d="m18.16,1.63s0,.04-.02.06c.02-.02.03-.03.05-.03l.04-.26-.07.23Z"/><path d="m72.64,1.12c.05.1.13.12.22.1,0-.2-.08-.23-.22-.1Z"/><path d="m14.35,1.36c.01.09-.01.22.12.21.09-.01.08-.11.01-.17l-.13-.04Z"/><path d="m19.99,3.29l-.02.24c.12-.04.2-.11.24-.24h-.23Z"/><path d="m19.41,3.28l-.3.05c.12.16.23.15.3-.05Z"/><path d="m63.29,1.78v-.36c-.08-.02-.12.01-.12.09.01.1-.04.24.12.26Z"/><path d="m39.05,1.89l.04.22c.12-.04.05-.15.07-.22-.04-.02-.07-.02-.11,0Z"/><path d="m10.16,3.11c-.11-.06-.23-.15-.25.08.1.04.21.07.25-.08Z"/><path d="m80.65,2.43c.36,0,.71-.15,1.07-.05.12-.01.18-.09.18-.21v-.37c-.19-.02-.26-.12-.2-.32.03-.09.07-.21-.06-.23-.08-.01-.24.08-.24.12.04.52-.48.55-.68.85-.04.06-.05.14-.08.21Z"/><path d="m88.14,2.19c.25.11.5.25.73-.04-.41-.02-.09-.52-.39-.62l-.47-.2c.07.28.32.54.13.86Z"/><path d="m75.79,1.62c-.2-.21-.45-.23-.72-.21.01.14-.02.31.05.4.09.13-.25.34.06.35.22,0,.17-.2.14-.36-.01-.07-.02-.33.13-.09.27.45.2-.18.34-.1Z"/><path d="m84.12,2.34l.35.1c.04-.14.33-.27.07-.42-.28-.16-.37.08-.42.31Z"/><path d="m83.29,2.22c-.1.07-.19.21-.12.28.19.24.4-.06.6-.03-.03-.35-.29-.22-.48-.26Z"/><path d="m77.07,2.54h.46c-.03-.23-.18-.33-.36-.3-.14.02-.09.19-.1.3Z"/><path d="m71.96,1.72s-.06.02-.1.02v.22c.13-.02.3.03.36-.18l-.26-.07Z"/><path d="m84.56,2.43c.06.28.22.2.38.12l-.02-.25-.36.13Z"/><path d="m82.3,1.29l-.07-.06-.06.12s.07.04.09.03c.02,0,.03-.05.05-.09Z"/><path d="m76.14,1.6h-.27c.04.08.06.19.11.2.13.02.13-.11.16-.2Z"/><path d="m83.17,1.88l.12.24c.17-.19.03-.22-.12-.24Z"/><path d="m84.92,2.3c.06-.02.15.01.15-.1,0-.02-.05-.07-.07-.07-.11,0-.07.1-.08.17Z"/><path d="m81.91,1.8v.37c.14-.12.15-.24,0-.37Z"/><path d="m78.75,1.69c0,.05.02.05.04.06,0-.05-.02-.05-.04-.06Z"/><path d="m82.83,2.01l-.03-.05s.02.03.03.05Z"/><path d="m85,2.54l.04.14c.1-.08.08-.12-.04-.14Z"/><path d="m13.29,2.43c.14-.19.37-.35.21-.64-.07-.13-.15-.24-.29-.26-.21-.03-.24.14-.27.3.11.19.16.39.06.61-.05.1-.04.2.09.22.15.02.18-.1.2-.22Z"/><path d="m3.45,2.45c.31-.03.21-.29.25-.47-.11-.02-.28.06-.29-.17,0-.12-.11-.26-.22-.22-.11.04-.21.18-.25.3-.07.2.14.11.2.16.12.11.2.27.3.4Z"/><path d="m9.41,1.75c-.2-.58-.59-.37-.96-.26.26.32.56.48.96.26Z"/><path d="m9.7,1.72l-.12.03s-.03.08-.06.1c-.23.14-.38.3-.15.57.06.07.22.15.2.03-.06-.28.67-.37.14-.72Z"/><path d="m12.25,1.58l-.33-.06c0,.16-.29.39,0,.48.22.07.37-.14.33-.41Z"/><path d="m10.67,1.77l-.36-.33c0,.14-.2.28-.03.41.13.1.28.04.39-.08Z"/><path d="m4.18,1.86c.07.05.11.1.14.1.04,0,.09-.05.13-.08-.03-.04-.07-.1-.1-.1-.04,0-.09.04-.17.08Z"/><path d="m10.06,1.43l-.32.08-.05.05v.12c.16-.04.37.02.37-.25Z"/><path d="m12.55,1.58c-.09-.1-.19-.22-.29,0h.29Z"/><path d="m4.9,1.28s.05.01.07,0c-.01-.01-.02-.02-.07,0Z"/><path d="m44.13,3.3c.13-.02.28.01.35-.14.06-.37.45-.11.6-.34.06-.09.26.28.34.01.05-.16-.14-.31-.26-.44-.12-.13-.22-.16-.39-.02-.21.17-.46.29-.65-.09-.11-.23-.32-.06-.44.03-.21.15-.04.25.08.35.19.16.39.34.35.64Z"/><path d="m48.51,1.97c0,.11.03.24-.08.32-.03.14-.31.17-.17.38.05.07.16.15.24.14.25-.03.08-.25.14-.38.03-.07.05-.15.1-.21.09-.11.35-.18.25-.33-.11-.17-.3.1-.47.07Z"/><path d="m47.67,2.44l-.07-.06-.07.11s.06.04.09.03c.02,0,.03-.05.05-.08Z"/><path d="m41.93,3.19h-.12s.08,0,.12,0Z"/><path d="m92.39.98c.03.1.04.23.19.12-.03-.11-.1-.12-.19-.12Z"/><path d="m36.84,3.17h.24c0-.14-.05-.36.02-.42.13-.11.24-.18.2-.36-.02-.09-.09-.05-.12,0-.1.16-.44.11-.35.44.03.11.01.23.01.35Z"/><path d="m36.16,2.82c.07.11.08.28.24.29.02,0,.08-.09.08-.13-.03-.19-.19-.15-.32-.17Z"/><path d="m33.5,2.94h.1c0-.08.02-.18-.11-.2v.2Z"/><path d="m38.11,2.6l.03-.2c-.14,0-.12.1-.14.19h.11Z"/><path d="m37.54,2.95l-.04-.16c-.11.09,0,.11.04.16Z"/><path d="m88.48,1.54c.29.1-.02.6.39.62.15,0,.25-.09.33-.21.16-.25.35-.49.03-.77-.5-.44-.5.24-.74.35Z"/><path d="m90.41,1.1c-.17.04-.44-.21-.41.18,0,.13.09.36.27.29.18-.08.44-.26.45-.4,0-.29-.22,0-.31-.06Z"/><path d="m90.26,2.05c.14.14.22.3.32.31.12,0,.33,0,.33-.23,0-.13-.08-.25-.21-.23-.14.01-.27.09-.44.15Z"/><path d="m91.81,1.09c.02.09.02.2.14.17.04,0,.05-.11.08-.17h-.22Z"/><path d="m89.78,1.55s.01-.05-.01-.05v.05Z"/><path d="m91.59.97h.05s.05,0,.05,0c-.04-.06-.07-.07-.1,0Z"/><path d="m17.68,1.92c.02.2.14.27.31.21.21-.07.13-.28.16-.44-.21-.03-.22.35-.47.23Z"/><path d="m15,2.67c0-.18.07-.4-.22-.44.01.15-.05.32.09.44h.13Z"/><path d="m17.68,1.93l-.02-.05.02.05Z"/><path d="m54.09,3.19l.21.04c-.04-.09.07-.26-.1-.26-.1,0-.12.12-.11.22Z"/><path d="m56.94,3.33c.19.01.39.04.38-.26-.14.06-.3.1-.38.26Z"/><path d="m20.79,2.09c-.24.11-.48.33-.54-.2-.02-.24-.32-.13-.49-.19.09.27.16.56.27.82.24.56.7.63,1.08.16.05-.06.07-.15.13-.18.21-.11.23-.52.02-.68q-.09-.07-.14.2c-.03.12-.02.29-.18.29-.05,0-.1-.14-.15-.22Z"/><path d="m22.55,1.87h-.13c-.23.42.11.8.1,1.21l.35-.23c.04-.38-.42-.58-.32-.98Z"/><path d="m21.95,3.17c.13,0,.26.03.35-.09,0-.02,0-.05-.01-.06-.15-.13-.12-.54-.31-.47-.28.1.03.4-.03.61Z"/><path d="m21.33,2.79s-.07.07-.07.09c0,.07.03.13.05.2.02-.03.04-.07.04-.1,0-.05-.01-.11-.03-.18Z"/><path d="m19.65,3.09c.08.03.15.07.17-.06-.07-.02-.17-.13-.17.06Z"/><path d="m19.98,3.04l.05-.06s-.04.03-.05.06Z"/><path d="m40.07,2.22h-.33c-.1.47-.65.38-.83.74.02.16-.03.37.23.35-.11-.23.08-.34.2-.41.15-.08.22.09.27.21l.33.02c.63-.46.64-.55.11-.92Z"/><path d="m39.63,3.11c-.06-.13-.13-.3-.27-.21-.12.07-.31.18-.2.41.18,0,.4.09.48-.2Z"/><path d="m41.26,2.96c-.32-.58-.42.07-.62.12.25.22.44.07.62-.12Z"/><path d="m41.94,3.19h-.12c.04.11.08.11.12,0Z"/><path d="m26.92,1.81c-.23,0-.24.17-.26.34.03.24-.09.19-.21.12-.07.24-.03.54-.36.61-.07.3.29.19.34.38.47-.37.51-.9.49-1.44Z"/><path d="m23.22,2.13l-.15.04c.08.11.1,0,.15-.04Z"/><path d="m66.28,2.22c-.05.11-.07.22-.08.34l.7-.02c.21-.01.21-.17.22-.33-.13-.02-.28.03-.35-.13l-.48.14Z"/><path d="m69.54,1.78c0-.12-.02-.26-.15-.28-.06,0-.13.11-.2.16.09.14.22.11.35.11Z"/><path d="m66.76,2.08c.08.16.23.11.35.13-.07-.17-.22-.14-.35-.13Z"/><path d="m68.16,2.65c0-.07.11-.14,0-.2-.01,0-.04,0-.05.01-.07.09-.02.14.05.19Z"/><path d="m31.53,2.21c-.2.09-.36-.73-.58-.02-.04.51.39.24.58.37v-.35Z"/><path d="m29.11,2.55l.05-.03s-.03.02-.05.03Z"/><path d="m31.54,2.56l.02.05-.02-.05Z"/><path d="m71.62,1.96h.24s0-.23,0-.23c-.17-.02-.24.06-.24.23Z"/><path d="m58.27,3.19c.59.23.66-.15.65-.6l-.13-.5c-.44-.33-.69.17-1.03.27-.04.41,0,.78.51.84Z"/><path d="m63.85,2.21h.05s-.02-.04-.05,0Z"/><path d="m62.72,2.16l.12.09s.02-.03.03-.04c-.05-.02-.1-.04-.16-.05Z"/><path d="m56.14,2.13l-.22-.12c.02.15.03.32.22.12Z"/><path d="m66.2,2.56l.04-.35c-.11,0-.24,0-.26.16-.02.16.09.19.22.19Z"/><path d="m27.63,2.08c-.01.13-.02.25.09.34-.01-.12.04-.26-.09-.34Z"/><path d="m28.18,2.78l-.02-.05.02.05Z"/><path d="m27.27,2.55c.02.09.02.21.08.26.07.06.15-.05.12-.11-.05-.14.19-.4-.16-.4l-.04.25Z"/><path d="m27.27,2.55l.04-.25c-.18.06-.16.15-.04.25Z"/><path d="m34.46,2.9s.03.05.05.07c0,0,.04-.02.04-.03,0-.03,0-.06,0-.09l-.09.05Z"/><path d="m49.68,2.68l.05-.03s-.03.02-.05.03Z"/><path d="m4.03,2.46l-.18.09.04.07s.1-.1.14-.16Z"/><path d="m33.42,3.25l-.15-.08c.01.07.04.12.07.17l.08-.09Z"/><path d="m26.45,2.26c.13.07.24.12.21-.12l-.21.12Z"/>
                  </g>
                </mask>
              </defs>
              <path class="mask" d="m0,1.85c29.99.91,60.57.81,91.71-.42,2.22-.09,4.43-.18,6.64-.28"
                    mask="url(#path-mask)" stroke="black" stroke-width="2" fill="none"
                    stroke-dasharray="98.37550354003906" stroke-dashoffset="98.37550354003906">
              </path>
            </svg>
        