
            <svg xmlns="http://www.w3.org/2000/svg">
              <defs>
                <mask id="path-mask">
                  <g fill="white">
                    <path d="m173.4,5.9c3.27.09,1.19-.06,1.85-.09l2.35.12c1.92.12,4.15.27,5.99.39,3.75.27,10.78.52,13.8.51,2.06.1,3.36.14,4.24.14,2.74.16,6.83.26,8.94.46.58.09,2.99.26.96.23-1.46-.02-3.04-.07-5.38-.22-1.93-.12-3.69-.19-4.78-.18l-1.82-.08c-2.25-.06-5.3-.38-7.07-.29-.71-.03-2.01-.09-2.03-.09-1.78.07-5.95-.16-9.55-.32l-.05-.04c.99.02.79,0-.33-.04-.18,0-.37-.01-.57-.02l-.11-.06c.31.01.69.03.99.04.3.01.52.01.52,0,0,0-.44-.03-.67-.04-1.04-.04-.75,0-.86,0l-3.57-.11c-.29-.01-.59-.02-.88-.03.44-.02,3.37.07.79-.07-2.73-.15-3.65-.13-4.21-.09-.52.04-1.68,0-3.51-.1-.17-.09-2.81-.16-4.63-.24l.09-.02c1.72.02.38-.04-1.1-.1-2-.13-2.19-.05-3.45-.1l-.26-.02.29.02c-.12.05.63.13-3.01-.02-2.27-.09-4.21-.14-3.82-.05l-2.25-.07-1.97-.17c1.23.04,1.77.04,1.87.01,1.47.02,1.59,0,.16-.09-1.95-.07-2.6-.12-1.9-.15.33-.01.79-.03-.51-.08-.38-.01-.98-.03-1.48-.04-.5-.01-.9-.01-.9-.01.23.14-4.94-.03-6.96-.01-.4.01-.58.02-.87.03l-.36.03c-4.61-.14-9.45-.33-13.61-.34-1.05,0-2.52-.08-3.55-.13-1.88-.09-3.15-.11-4.17-.09l-8.89-.29-.16-.05c-.24-.06-1.67-.13-3.48-.17-1.4-.03-.94.03-1.04.05-4.94-.1-9.88-.19-15.06-.29l.21.02c-.07.01.33.05-.65.03-.28.02-.39.04-1.65.01.44-.08-2.02-.15-4.03-.21-4.33-.12-9.35-.27-13.15-.29-2.63-.01-4.4-.04-6.95-.08-1.55-.03-.69.05-.82.08l-14.88-.22.02-.07c.98-.03.74-.07.26-.12-.83-.09.43-.1,3.09-.06h2.35c1.4.02,3.09.06,3.7,0l-2.57-.06c-.33-.04-1.84-.09.12-.09,1.03.05,2.07.07,3.14.05l3.7.06c1.52.14,4.52.26,7.81.39,2.33-.03,5.73-.02,6.22-.12,3.25.08,6.49.17,9.78.2.08.04-.29.08.35.12.84.05-2.57.04.53.11,2.14.05,1.73-.02,1.49-.06-.11-.02-.12-.09,1.28,0,2.55.18,2.02,0,4.23.07.33.03.58.06,1.02.07,1.28.04,1.27,0,1.62-.02,4.16.11,8.2.15,12.62.32,2.3.09,3.52.02,4.21-.03l20.39.59s-.23.04-.01.06c.62.07-2.64.07.88.18,3.12.1.43-.08.88-.11.13,0,1.17.02,1.79.03,5.75.11,11.96.33,17.92.54,1.74.06,4.56.08,5.94.23,1.57.14,11.86.64,15.17.73Zm-19.73-.86h-.65c.29.02.64.03.87.04.22,0,.33,0,.49,0-.25-.01-.48-.03-.71-.04Zm-33.88-.98c-.13,0-.31-.01-.46-.02.02.01.2.02.46.02Z"/><path d="m83.2,7.24c-7.62.11-15.13.21-22.7.32-1.02-.18-5.91,0-9.07.03-.64-.05-.56-.12-3.94-.01-2.05.07-5.01.1-7.64.14-2.11,0,4.37-.31-3.34-.09-1.13.01-2.72.06-2.88,0-.08-.03-1.18-.06-2.18-.03-1.03.03-1.97.09-2.34.13-.6.07,1.38,0,2,.02,1.21.03,2.09.05,3.1.07-.62.06-3.4.08-3.24.15-.85-.04-2.77,0-4.48.03-1.71.03-3.2.05-3.2-.02,0-.07,2.41-.2,3.44-.3,1.07-.11,5.67-.2,9.32-.24,1.65-.01,3.21-.02,4.85-.03,1.58-.02,3.53,0,4.68-.06,1.24-.08-3.13.01-2.33-.07,2.51-.09,5.15-.15,8.07-.15.22.11.99.18,5.35.02,3.25-.12,7.35-.03,10.48-.19l1.21-.02h2.29c3.85.07,7.98.02,12.47-.15,2.66.05,5.68.05,9.55-.07l1.65-.03c-.2.01-.32.02-.6.04-2.19.08-3.64.15-1.39.19.59.01,2.21,0,1.93-.02-.65-.07,6.54-.21,1.26-.24,1.42-.03,3.51-.05,3.48-.13l2.47-.03c.09.04-1.88.11-.21.12,1.33,0,2.77-.03,3.86-.09l1.56-.02c3.2-.04,3.39.04,3.85.11.26.04,1.02.06,2.54.04.57,0,1.46-.04,1.64-.06.5-.05-.74-.04-1.71-.05-3.52,0,2.82-.18-.24-.2.76-.08,2.73-.11,4.58-.14l.03.05s-2.78.16.14.14c2.16-.01,3.66-.1,3.23-.17l2.83-.04h3.91c1.1.05,1.64.1.71.18-.43.04-.32.06.92.05,1.5-.02,1.73-.06,1.96-.09h2.1s.05.11.05.11c-3.56.04-7.57.15-9.96.05-.91-.04-2.22.01-2.44.07-.15.04.13.08-1.38.13-6.17.19-12.52.3-19.05.33-3.97-.08-12.24.06-17.2.28Zm-40.54.29c.42-.01.83-.03,1.24-.04-.35,0-.67,0-1.06-.01-.4.01-.87.03-1.63.05.67,0,1.07,0,1.45,0Z"/><path d="m203.55.47c-2.97.03-4.34-.03-5.86-.09-.76-.03-.26-.11-2.63-.08-1.91.03-1.47.08-1.11.13.34.05.53.1.78.15l-7,.03c-.02-.05.79-.12-2.38-.11-2.4.01-3.49-.02-3.4-.09.26-.04,3.06-.05,1.68-.11-.48-.02-1.59-.04-2.32-.04-2.44.01-.82.07-1.35.11-.3.02-.52.04-.97.06-.88.03-3.44.06-2.48.1,1.11.05,2.95-.03,4.63-.03v.1c-6.63.04-13.07.02-19.42-.02,1.04-.11,1.71-.23,7.18-.16.9.01,2.36,0,2.73-.04.39-.05-.73-.05-1.98-.06-.4-.05-.81-.11-1.06-.17l1.81-.03-1.46-.04c4.32-.08,8.36-.07,12.15.01.99.06,2.93.14,4.91.07,3.8-.13,10.67.05,13.2-.15,3.69.05,7.59,0,11.39.01-.16.12,2.76.13,5.19.1,2.17-.03,3.45-.02,5.08.01-.57.11-4.41.03-5.93.09-.58.02-2.52-.08-3.38,0-.52.05,1.38.09,2.55.12,1.2.04,2.14.04,3.79,0,2.08-.05,4.51-.08,6.37.03,1.12.07,3.14.02,4.32,0,2.07-.04.39-.07-.81-.1-1.91-.05-3.79-.1-3.43-.18l1.21-.03c2.14.14,6.26.09,9.76.1,1.36,0,4.49-.04,3.57.09-.22.03,4.02-.01,4.14-.05.25-.07,1.39-.06,2.93-.06h1.13c2.12-.02,4.63-.06,3.76.07-1.06.07-1.03.07.77.1.79.01,1.84.03,2.01.06.6.07-2.59.05-3.1.09-3.23,0-6.64.08-9.37-.06-.7-.03-2.76.01-2.63.02.56.05-3.89.06-.75.12-.13.03-.48.04-1.77.03-4.21-.02-8.44-.08-12.74-.02-.6-.25-5.42-.05-8.21-.07-3.23,0-5.62.1-9.05.07.8-.07,3.25-.17-2.46-.11Zm-13.42-.1l.66-.03c-.29,0-.63,0-.87,0-.21,0-.33.01-.49.02.24,0,.47.01.7.02Z"/><path d="m282.77,11.6c4.06.21,9,.56,12.75.72,3.3.28,8.37.51,12.29.77,1.12.06,1.54.09,2.34.13,2.45.12,3.07,0,.37-.19-2.85-.19-3.74-.28-4.46-.37-.75-.09-2.14-.23-4.86-.31-.3-.02-1.42-.08-1.9-.1-4.66-.28-9.16-.55-13.76-.82l-31.77-1.9.02.05c.89.05,1.62.1,1.82.13,1.58.09,3.46.19,4.76.27,3.13.19,6.99.37,9.46.59,1.48.13,12.26.85,14.45.96.36.02.75.03.69.02-.52-.1,1.51.06,2.44.13,1.11.09,1.79.15,2.76.23.55.04,2.27.13,2.1.14-.1,0-1.09-.04-2.42-.11-2.78-.16-6.71-.41-7.08-.34Z"/><path d="m321.23.66c-2.77-.06-6.06-.13-7.89-.08.8.03,1.82.06,2.37.07,2.14.02,4.16.02,5.72.16,1.29.11-.53.09-1.83.11-2.31.03-4.09-.04-5.96-.14-1.17-.06-3.13-.1-4.08-.09-3.27.05-4.72-.06-6.66-.13-1.24-.02-2.82-.02-3.14-.08-.06-.01.51-.03.74-.03,1.64.02,1.68.07,2.4.11l3.5-.13c-2.3-.17-5.29-.12-8.11-.11.07.05-.11.09-2.15.08.03.03-.15.07.14.1.89.1-2.47.06-3.48.09-.28.01-.97.02-1.18-.01-.42-.06.71-.07,1.97-.09.72-.01.18-.08.21-.12-1.12.04-4.29-.06-4.62.03.41.02,1.54.03.44.05l-.4-.05c-1.62-.03-.63-.11-2.64-.13-.71,0-1.29.06-1.92.09.03.03-.22.05-1.18.06.05,0,.11.02.18.03h1.06c1.76.08,7.31.17-.22.17-.49,0-.72.04-1.07.06,3.25.02,6.65,0,9.59.12.36,0,4.72,0,7.63,0,.8-.03,1.79-.03,3.54-.01,5.12.05,10.47.21,15.36.23,1.96.15,5.49.13,7.56.32.5.05.98.1,1.46.14.23.03.47.06.69.1.05.01.11.02.16.04.03,0,.05.02.05.02.02.01-.03-.02-.04-.06,0,0-.02-.08,0-.12.02-.03.01-.03.03-.04,0,0-.16.05-.26.06-.94.14-1.99.21-3.24.32-3.42.27-4.91.26-4.99.16l-5.64.23c.26.06-1.29.16-2.42.24,2.59,0,5.27,0-.19.26-.7.03-.24.05.46.04,2.21-.14,5.44-.16,7.31-.3,4.29-.32,3.44-.17,4.02-.13l1.2-.07c.11-.05.76-.1,2.12-.21.08-.03.34-.07.76-.13.21-.03.45-.06.73-.12.07-.01.14-.03.22-.06.04-.02.08-.02.16-.08.02-.02.04-.03.06-.11,0-.08-.02-.09-.04-.12-.06-.07-.07-.05-.1-.07-.19-.07-.33-.08-.51-.11l.09.07c-1.31-.16-1.1-.14-1.1-.17-2.56-.24-6.44-.34-6.84-.48Z"/><path d="m218.67,7.98c1.47.07,2.5.1,3.27.11,1.63.03,3.62.08.6-.13-4.76-.32-4.97-.19-7.44-.29l-4.54-.26c-2.11-.19-6.2-.3-8.94-.46l-.05-.07c2.63.12,5.68.19,7.64.34,2.48.19,5.05.29,7.95.41,11.41.49,22.88,1.07,34.37,1.75.2.04.18.07-1.25,0l-2.21-.12-1.14-.08c-.35-.03-.69-.05-1.03-.06-7.26-.37-8.27-.39-5.51-.14.08,0,.11.01.16.02,6.41.27,8.11.55,14.38.89,2.61.14,6.07.34,6.76.47-1.71-.1-3.64-.15-4.2-.22-1.08-.13-2.87-.2-4.61-.31-6.23-.37-12.31-.67-18.71-.99-9.11-.43-18.52-.88-27.86-1.32-1.86-.08-4.82-.19-4.95-.28,1.09,0,2.85.06,4.78.18,2.34.15,3.92.2,5.38.22,2.4.14,4.8.28,7.15.33Zm11.44.38s.7.11,2.56.19c1.8.08,4.44.18,4.54.15.2-.05-2.14-.11-2.98-.17-1.64-.08-4.26-.26-4.12-.17Zm5.33.49c1.18.06,3.27.17,3.36.13.05-.02-.72-.09-1.97-.15-1.35-.06-2.66-.12-4.39-.19,1.28.09,2.07.17,3.01.22Zm-6.92-.52l-.69-.04h.09c.51.04.54.04.6.04Z"/><path d="m144.69,6.33c2.83-.07,5.05-.1,8.24-.11,4.64-.02,10.42-.15,15.69-.24,2.64-.05,5.46-.04,7.93-.14l.02-.1c-.58-.04-2.08-.09-.3-.13,5.27-.13,4.56-.3,8.21-.44-1.94.03-3.66.08-5.19.14-.19,0-.36.01-.5.02-.2.05.63.1-1.48.15-1.66.04-2.84.04-3.08-.01h-.27s.25,0,.25,0c2.45,0,2.52-.12,4.55-.14.13,0,.18-.01.15-.02-2.32-.07-5.15.08-7.69.1-3.23.16-6.65.2-10.11.16-1.03-.01-1.71-.04-2.86.04-1.77.12-4.36.13-6.84.13-3.55.13-1.91.2-1.05.28.23.02.97.04-.28.08-1.07.03-1.69.01-2.13,0l-1.26.02c.67.07-2.71.16-2.01.22Z"/><path d="m118.24.33c-2.25-.05-4.58-.08-7.68-.02-3.86.12-7.96.15-12.33.1-.83.05-2.38.07-3.77.09h-2.32c.28.02.7.07.81.07,4.24-.04,7.08.06,11.17.03,2.97-.02,5.69-.03,6.49.07.03,0,.32,0,.49,0,.56-.01,1.12-.03,1.69-.04-.5-.12,2.5-.12,4.79-.12,7.51,0,15.07-.1,22.69-.06,4.6.02,4.85,0,2.65.13-.66.05-1.1.09-1.65.13,4.37-.04,9.45,0,12.97-.13-.82,0-1.62-.01-2.48-.02-1.4,0-3.42.08-4.03,0-.25-.03,1.95-.09,3.35-.13.75,0,2.15-.02,3.26-.02.93,0,1.94,0,2.38-.04.58-.04-.39-.06-1.35-.08-1.51-.02-1.91-.09-4.25-.08-2.95-.06-6.2-.09-10.09-.04-4.44.12-9.62.14-14.84.15.07.03-.16.06-1.11.07-1.66,0-.6-.05-.97-.07-2.2.11-4.48.24-5.89.01Z"/><path d="m248.08,9.27l-1.14-.08-.52-.03-.52-.03c-7.26-.37-8.27-.39-5.51-.14.08,0,.11.01.16.02,6.41.27,8.11.55,14.38.89,2.61.14,6.07.34,6.76.47,1.89.08,5.26.3,6.69.33-1.8-.15-.02-.11.92-.05,2.78.17,1.08.12,1.47.18.08.01,0,.01,0,.02,2.12.19,5.74.34,8.12.52,1.47.07,2.76.15,3.88.24.38-.06,4.31.19,7.09.34,1.33.07,2.32.12,2.42.11.17-.01-1.55-.1-2.1-.14-.96-.08-1.65-.14-2.76-.23-.93-.07-2.96-.22-2.44-.13.06.01-.33,0-.69-.02-2.19-.11-12.97-.83-14.45-.96-2.47-.22-6.33-.4-9.46-.59-1.3-.07-3.18-.18-4.75-.27-1.53-.07-1.6-.1-1.83-.13l-.02-.05-2.25-.14c.2.04.18.07-1.25,0-.28,0-.49,0-.86-.02-1.19-.06-1.2-.08-1.35-.11Z"/><path d="m194.66,5.03l.07.04c.92.06,1.65.14,2.81.19,2.47.12,6.98.08,10.67-.12.46-.03.69-.06,1.26-.08,2.1-.08,2.24-.2.15-.2q-.87,0-1.37.09c-.23.04-.17.09-1.75.12-.49,0-1.03-.03-1.54-.04-2.99.02-2.8-.07-3.47-.13,3.42-.07,6.9-.13,10.43-.2-1.45.14,2,.09,3.64.11l1.78-.11,3.59-.11c.05,0,.07.02.04.03-2.19.17,1.21.21,1.11.33l-2.17.05s0-.01-.12-.01c-1.54,0-1.25-.13-3.14-.07-2.77.09.33.11-.2.18l-1.29.1c-5.25.11-10.62.24-15.76.25l-2.23.04-.09-.07.47-.03-.62.02-1.4.02c-.72,0-1.72-.01-1.7.04l-2.27.07.31-.02h.35c-1.56-.05-5.42.02-6.52-.09-.52-.05-5.4.14-8.04.23-.44.02-.72.04-1.07.05-.58-.04-2.08-.09-.3-.13,5.27-.13,4.56-.3,8.21-.44,3.52-.1,6.92-.14,10.17-.13Zm15.01.13c.1.02.35.03.54.04.15-.01.42-.03.42-.04,0-.02-.16-.03-.28-.05-.33.02-.71.03-.68.04Z"/><path d="m296.13.4c2.04.01,2.22-.03,2.15-.08l-1.91-.03h-1.47c-3.66-.06-7.2-.12-11.08-.1-1.59,0-3.88,0-5.77-.05-2.07-.05-6-.07-6.67-.06-7.05.08-13.86,0-20.62-.07-2.48-.03-4.05.02-6.09.02l-31.18-.02c-1.12,0-2.26-.01-2.9.03-.16.12,2.76.13,5.19.1,2.17-.03,3.45-.02,5.08.01.76-.04,2.22-.03,3.49-.04l1.21-.03c2.14.14,6.26.09,9.76.1,1.36,0,4.49-.04,3.57.09-.22.03,4.02-.01,4.14-.05.25-.07,1.39-.06,2.93-.06.37-.03.77-.03,1.16,0,2.09-.02,4.61-.07,3.73.07.57,0,1.14,0,1.71,0,1.79-.05,3.64-.09,6.12-.02,2.06-.07,4.06-.17,6.7,0l3.28.02c.71-.08,2.91-.04,4.68-.04,2.59,0,2.14.06,2.32.11,3-.1,6-.05,9,.05.64-.03,1.21-.1,1.92-.09,2.01.01,1.02.09,2.64.13.29-.09,3.46,0,4.58-.03l2.33.02Z"/><path d="m241.38,4.59c1.61.03,3.38.02,5.77-.1-1.36-.03-2.7-.06-1.09-.16,1.27-.08,2.23-.01,3.6-.06,1.79.07,2.82-.02,4-.1,1.36-.1,2.68-.14,3.6-.07,3.23-.09,2.73-.17,3.31-.25-.48-.07-3.09-.03-4.36-.06-2.15-.02-5.01.02-7.73.12-2.04.07-3.81.11-5.77.14-2,.09.08.16-3.38.24-2.57.06-2.14-.03-2.55-.07l-2.28.06c.16.05.47.09.44.14-.01.02-.28.03-.67.05-.39.01-.9.03-1.39.04-.85.02-1.5.01-1.01-.02.73-.05,2.72-.13.61-.12-.53,0-2.38.11-3.63.16-.39.02-.6.06-1.41.04l1.44-.04c-.87-.12-3.72-.03-6.7.07-.91.13,3.63.09,3.31.21,4.91-.17,4.86-.08,4.48.03,1.97-.06,3.59-.02,5.62-.1-.3-.11,1.88-.26,5.28-.32,4.71-.08-1.52.14.11.16.23,0,.26.01.39.02Z"/><path d="m8.15,2.36l1.85.02h3.59s1.32.01,1.32.01c-.03,0-.07-.02-.11-.03-.78-.02-1.16-.04-.5-.06.1,0,.42,0,.52,0,1.02.03-.06.04-.06.06,1.87.02,3.25.02,4.12-.02,1.38-.07,3.18-.06,4.61-.02,1.43.03,2.51.09,2.46.11-.28.12,2.68.15,4.83.2,2.71,0,5.39-.02,8.13-.03,1.2,0,3.51.04,2.86-.03-.54-.06-3.06-.05-3.69-.08-1.97-.08-5.01.05-6.11-.1-1.5-.03-3.27-.05-3.5-.11-1.27-.01-2.61-.02-3.42-.07-2.77-.04-5.57-.08-8.31-.12-5.39-.04-10.06-.07-15.5-.1l-.02-.08c-.1,0,.06.02.12.03l.25.02.5.03c.33.01.66.03.96.04.61.02,1.14.04,1.49.08-.09.04-.14.1-2.2.03l.97.13,4.83.09Z"/><path d="m313.15,2.76c-.7,0-1.16,0-.46-.04,5.47-.27,2.78-.27.19-.26l-2.11.08.05.1h.26s-.25,0-.25,0c-1.92.03-6.07.23-5.76.07-3.18.11-6.06.06-9.6.25-.51.03-2.72.05-2.84,0l-3.35.07c-1.46.12-5.68.26-4.87.36-.04,0-.73.03-1.12.05-2.49-.14-3.53.14-5.49.15.01.01,0,.02,0,.03,5.74.04,7.1-.16,9.12-.33l.44-.02-.47.02c.58,0,1.39-.02,2.07-.03.34,0,.64,0,.87-.01.22,0,.36,0,.37,0,.58.23,4.76-.03,8.15-.14,3.53-.11,7.61-.28,10.73-.27,1.54-.02,1.31.08,3.98-.02l.07-.07Z"/><path d="m131.06,6.28h2.1c5.14-.05,5.07.06,4.54.19,1.69.02,1.61-.05,2.43-.07-1.52-.14.99-.31,5.66-.4-1.07-.07-1.16-.15,0-.25-1.18-.07-2.17,0-3.19.05.68,0,.85.03-.07.05-1.26.02-1.05-.02-1.18-.04-2.72-.08-6.72.06-9.61.11-4.74.08-9.9.1-14.39.26l.03.05,3.29-.03c1.03-.08,1.97-.06,2.91-.04h3.91c.28-.04.52-.09,2.63-.12,1.42-.02,2.23,0,2.91.03,1.58.06-.57.14-1.96.22Z"/><path d="m31.97,2.39c1.1.15,4.15.03,6.11.1.63.02,3.15.02,3.69.08.66.08-1.66.03-2.86.03-2.75,0-5.43.02-8.13.03l.98.07,1.32.02c3.66-.06,8.31.06,12.43.09.98-.03.74-.07.26-.12-.83-.09.43-.1,3.09-.06l.05-.03s.83-.06,2.45-.03c.33,0,.66,0,.97,0-.33-.04-1.84-.09.12-.09l-.1-.04c-6.5-.12-12.99-.24-19.52-.27,1.05.09,2.97.19-.87.2Z"/><path d="m63.64.63c-1.35.01-1.22-.13-3.62,0-1.79.09-3.5,0-5.28.04-.5.14-2.93.13-5.48.1-2.16-.02-3.94.02-5.57.08-1.69.06-2.43.12-.64.17,2.4-.02,4.61,0,7.18-.04,8.02-.16,8.9-.16,15.33-.11.15,0,.46,0,.5,0,3.27-.15,8.25,0,11.59-.14-.32-.06-.36-.12-2.62-.14-.08.04-.61.05-2.15.06-3.26,0-6.31-.01-9.23-.02Z"/><path d="m31.97,2.39c3.84-.01,1.92-.11.87-.2-2.53-.07-4.23-.15-7.86-.09-2.62.04-7.84-.09-12.03-.12-2.81-.03-5.7-.07-8.59-.11l-2.16-.07-.54-.03-.26-.02-.12-.02h-.03s.12.04.11.12c.02.02.02.16-.05.22-.09.06-.03.02-.05.03.22-.04.66-.07.99-.09,1.43-.08,2.87-.11,4.29-.14,2.49-.05,4.14-.08,3.87-.17-.27-.09-2.28-.04-4.54.04-1.55.06-3.15.07-4.65.24,5.45.04,10.11.07,15.5.1,2.75.04,5.54.08,8.31.12.67,0,1.42-.03,2-.02,1.26.02,1.38.06,1.43.09.23.07,2,.08,3.5.11Z"/><path d="m286.94,3.3c-2.02.17-3.38.37-9.12.33l-4.59.15c-1.22.05-2.49.11-2.17.16,2.15.04,4.96-.1,7.32-.15,8.99-.22,17.99-.41,27.04-.73,2.42-.09,2.76-.13,3.68-.2-3.12,0-7.2.16-10.73.27-3.39.11-7.57.37-8.15.14-.01,0-.15,0-.37,0-.22,0-.53,0-.86.01-.67,0-1.48.02-2.04.03Z"/><path d="m141.27.71c.54-.04.99-.08,1.65-.13,2.2-.14,1.94-.11-2.65-.13-7.62-.04-15.18.06-22.69.06-2.29,0-5.28,0-4.79.12,4.26.11,8.92.07,14.05-.02,3.3-.06,5.83-.04,5.19.1,3.33-.07,6.09.02,9.25,0Z"/><path d="m77.64.73c-3.34.13-8.32-.01-11.59.14-.04,0-.35,0-.5,0-6.43-.06-7.31-.05-15.33.11-2.58.05-4.78.02-7.18.04,1.02.1,2.13.2,6.08.22l2.89-.09c1.07-.08,2.71-.09,5.03-.1,2.83-.02,6.26-.04,8.71-.06,4.95-.02,9.35-.17,14.06-.12l-1.25-.13c-.32,0-.63,0-.93,0Z"/><path d="m19.77,1.48c1.48-.13,2.68-.25-3.25-.17-1.91.03-.71-.04-.57-.07,2.92-.11,6.15-.12,8.24-.1,5.3.04,6.5-.06,7.64-.2l1.09-.02c3.48.02,9.2,0,3.77.23-.98.04-.95.1-1.39.15-3,.04-6.01.07-9,.11-1.94.02-3.4.05-3.6.12l-3.34.04c.13-.03.08-.06.42-.09Zm9.56-.22c.12,0,.31,0,.6-.02-.17,0-.33,0-.6.02Z"/><path d="m30.96,7.96c-.85-.04-2.77,0-4.48.03-1.71.03-3.2.05-3.2-.02,0-.07,2.41-.2,3.44-.3,1.07-.11,5.67-.2,9.32-.24,1.65-.01,3.21-.02,4.85-.03,1.58-.02,3.53,0,4.68-.06,1.24-.08-3.13.01-2.33-.07-5.38-.04-12.07.2-17.64.18-1.76,0-1.37.09-2.78.13-1.37.06,4.77.03-.27.14-1.69.14-6.12.27-5.45.41,1.04,0,2.4-.01,3.07-.02,1.69.03,1.65.21,5.94-.02.04,0,1.55,0,2.51.01,2.8-.01,5.46-.07,7.81-.16-.8-.13-3.92.06-5.5.04Z"/><path d="m15.96,7.7c-1.39.02-2.4.01-3.13-.02-1.82-.07-5.25-.08-7.94.02-2.4.09-4.58.23-4.84.35-.49.23,2.52.25,9.25.11,1.64-.04,3.69-.01,5.55-.02,2.04-.12,1.25-.2-.95-.22-2.23-.03-4.28.05-5.87.15-.58.04-3.27.12-3.04.04.2-.08-1.35-.12-.37-.2.6-.05.9-.11,2.72-.14,1.89-.03,2.72,0,2.94.04.23.05.51.09,2.61.05,2.04-.04,3.08-.09,3.07-.15Z"/><path d="m79.82.86c-4.72-.04-9.12.1-14.06.12-2.45.02-5.88.04-8.71.06-2.33,0-3.97.02-5.03.1,3.98.14,9.92,0,14.83-.04,7.33-.04,14.81-.17,21.95-.1l.59-.05c-1.06-.05-4.78-.08.89-.14,1.86-.02,2.9-.08-.29-.08-3.37.05-5.83.2-10.16.14Z"/><path d="m320.95,1.98c.08.1,1.57.11,4.99-.16,1.25-.11,2.3-.18,3.24-.32.1-.01.27-.06.26-.06-.01.01,0,0-.03.04-.03.03,0,.11,0,.12,0,.04.06.07.04.06,0,0-.02,0-.05-.02-.04-.01-.1-.03-.16-.04-.22-.04-.46-.07-.69-.1-.47-.05-.95-.09-1.46-.14-2.07-.18-5.6-.16-7.56-.32-4.89-.02-10.24-.19-15.36-.23-1.75-.02-2.74-.02-3.54.01,4.71.14,9.8.21,15.29.3,3.5.07,7.05.12,10.86.36.81.06,1.75.09,2.58.25.01,0,.05.01.04.01,0,0,.01,0-.02-.01-.05-.06-.09-.07-.07-.26.1-.19.1-.11.09-.13l-.05.02c-.09.02-.2.05-.32.06-.23.04-.46.06-.7.09-.48.04-.96.08-1.45.13-1.96.15-4,.26-5.93.35Z"/><path d="m99,6.49l2.47-.03,3.66.04c.52,0,1.04-.01,1.56-.02,1.69-.05,3.38-.1,5.07-.15-2.99-.13-8.94.02-13.21.07-8.49.15-17.07.3-25.61.44l-2.28.07c3.85.06,7.98.02,12.47-.15,3.63-.09,7.48-.21,9.55-.07l1.65-.03,1.17-.03s-.07-.04-.11-.05c-.12,0-.24-.01-.36-.02h.81s3.16-.07,3.16-.07Z"/><path d="m73.33,2.86c3.25.08,6.49.17,9.78.2,2.6.05,5.09.11,7,.21,1.75.04,2.63.06,3.5.08,4.16.11,8.2.15,12.62.32,2.3.09,3.52.02,4.21-.03-12.52-.36-25.04-.66-37.57-.85l.46.07Z"/><path d="m15.95,1.24c2.92-.11,6.15-.12,8.24-.1,5.3.04,6.5-.06,7.64-.2-8.71.07-17.43.1-26.14.44-1.06.03-1.91.06-2.72.08-.41.02-.8.03-1.2.05-.22.02-.36.01-.68.09l-.05.02h-.03s-.11.1-.14.17c-.06.18,0,.23.03.3.04.07.13.12.16.13.04.01.1.03.13.03l.18.02.33.03c2.38.11,6,.17,6.44.06l-4.83-.09c-.66-.03-1.32-.04-2-.11-.05,0-.08-.01-.15-.03-.04-.03-.02.05-.18-.12-.02-.03-.04-.06-.02-.15.01-.08.12-.15.11-.13l.06-.02c.12-.03.19-.04.28-.05l.5-.04.99-.05,3.97-.12,9.06-.19Z"/><path d="m159.37,5.45c-.12.05.63.13-3.01-.02-2.27-.09-4.21-.14-3.82-.05,9.33.38,18.67.78,28.36,1.09l-.05-.04-.33-.04c-.18,0-.37-.01-.57-.02-1.62-.05-3.23-.09-3.7-.17-.29-.01-.59-.02-.89-.03l-3.42-.16c-.52.04-1.68,0-3.51-.1-2.02-.08-4.11-.09-5.94-.22-.61-.04.31-.04,1.3-.02l.09-.02-1.1-.1c-2-.13-2.19-.05-3.42-.09Z"/><path d="m32.91.92c3.48.02,9.2,0,3.77.23-.98.04-.95.1-1.39.15,1.66,0,1.11.04,1.21.06l2.23-.03c-.69-.07,2.19-.13,2.26-.19h-1.49c.11,0,.32-.02.32-.02.41,0,.81,0,1.2.01,1.98.03.77.1,1.18.15,2.25.06,4.54.05,6.92-.06-3.95-.02-5.06-.11-6.08-.22-1.79-.04-1.04-.1.64-.17,1.63-.06,3.41-.1,5.57-.08,2.55.03,4.98.03,5.48-.1-5.74.05-11.59.1-17.26.14-2.24,0-3.41.05-4.56.11Z"/><path d="m89.98.73c3.19,0,2.15.06.29.08-5.67.06-1.95.09-.89.14.97-.07,2.75-.03,4.11-.05-.15-.04.89-.11,1.73-.1,4.14.06,7.08-.09,10.69-.1,1.93-.06,2.03-.02,2.18.02,1.95.05,2.44,0,3.01-.05-.17,0-.47,0-.5,0-.81-.1-3.52-.1-6.49-.07-4.08.03-6.93-.08-11.17-.03-.11,0-.53-.06-.81-.09l-4.43-.04-2.35-.02-.27.1c5.02-.01,5.32.09,4.9.21Z"/><path d="m151.13.21c2.34-.01,2.74.06,4.25.08.96.02,1.93.03,1.35.08-.45.03-1.46.03-2.38.04-1.11,0-2.51.02-3.26.02-1.4.04-3.6.1-3.35.13.61.07,2.63,0,4.03,0,.86,0,1.65.02,2.48.02,1.08.05,2.05,0,3.08-.01,1.71-.03,3.53-.08,3.03-.13-1.96-.22,3.34-.23,8.09-.26-.58-.05-3.05-.02-3.24-.08-3.89.05-7.59,0-11.52.01-2.82.02-2.21.06-2.53.11Z"/><path d="m105.91.71c-3.61,0-6.55.16-10.69.1-.84-.01-1.88.05-1.73.1,7.24-.04,14.43-.09,21.66-.13,3.62,0,7.43-.01,11.03-.02,2.17,0,3.93-.02,5.84-.04.64-.13-1.89-.15-5.19-.1-5.12.09-9.78.12-14.05.02-.56.01-1.13.03-1.69.04-.56.05-1.05.1-3,.05l-2.18-.02Z"/><path d="m15.95,1.24l-9.06.19-.09.07c1.23-.03,2.33-.04,2.13,0-.19.05-1.44.08-2.57.11-.42.05-.45.08-.47.12,2.25-.08,4.27-.12,4.53-.04,2.89-.02,5.89-.07,8.93-.14.13-.03.08-.06.42-.09,1.48-.13,2.68-.25-3.25-.17-1.91.03-.71-.04-.57-.07Z"/><path d="m273.24,3.78l4.59-.15v-.03s-.24,0-.24,0h.24c1.96,0,3-.28,5.49-.14.39-.02,1.08-.05,1.12-.05-.82-.1,3.41-.24,4.87-.36-.24-.03-1.27,0-2.18.02-1.2.09-3.11.12-4.81.16-1.25,0-2.03.17-2.7.09-.71-.08-2.79.03-3.95.03-1.99.12-2.9.1-3.58.05-1.19.01-2.6-.02-3.34.09l-.51.07c1.39,0,2.09.03,4.04-.02,1.33,0,.83.04.95.07,6.08-.08-.8.14.02.18Z"/><path d="m177.6,5.94c1.92.12,4.15.27,5.99.39,3.75.27,10.78.52,13.79.51-2.8-.12-5.91-.25-3.94-.27-5.37-.25-10.74-.5-15.84-.63Z"/><path d="m273.22,3.6c6.08-.08-.81.14.02.18-1.22.05-2.49.11-2.17.16-3.46.09-7.13.27-10.27.22-.15,0-.2,0-.15-.02,4.55-.21,4.92-.37,4.67-.52l2.92-.07c1.39,0,2.08.03,4.04-.02-.13.04-.17.08.95.07Zm-3.63.2c.73,0,1.43-.05,1.19-.06-.46-.03,1.86-.16-1.64-.08-1.74.06-1.6.08-.34.08.24.02.22.06.78.06Z"/><path d="m306.39.44c1.06.02,1.94.09,3.15.06,2.68-.08,2.93.03,3.8.09.8.03,1.82.06,2.37.07,2.14.02,4.16.02,5.72.16,1.29.11-.53.09-1.83.11-2.31.03-4.09-.04-5.96-.14-1.17-.06-3.13-.1-4.08-.09-3.27.05-4.72-.06-6.66-.13,1.16-.04,2.33-.09,3.49-.13Zm12.71.35s-.4,0-.43,0c-.05,0,.01.02.03.03h.89c-.16,0-.3-.01-.49-.03Z"/><path d="m137.37,4.84c-4.61-.14-9.45-.33-13.61-.34-1.05,0-2.52-.08-3.55-.13-1.88-.09-3.15-.11-4.17-.09,3.89.21,8.61.3,13.02.41,5.72.14,11.07.43,16.85.54.84.02,1.87.05,2.25.04-1.17-.11-3.15-.19-5.45-.22-2.76-.04-4.07-.12-5.34-.21Z"/><path d="m15.96,7.7c.01.06-1.03.11-3.07.15-2.1.04-2.38,0-2.61-.05-.22-.05-1.04-.08-2.94-.04-1.82.03-2.12.09-2.72.14-.98.08.57.13.37.2-.23.09,2.46,0,3.04-.04,1.59-.1,3.64-.17,5.87-.15,2.21.03,2.99.1.95.22.76.01,1.51.01,2.27-.03-.67-.14,3.76-.27,5.45-.41-1.2-.01-2.3-.03-2.38-.08l-4.24.08Z"/><path d="m284.65.38c-3-.1-6-.16-9-.05-1.76.09-7.17.04-8.13.17l.4.12c1.97.04,3.77.04,5.39,0,.26-.02-.48-.05.72-.06l.36.06c.33,0,.69,0,1.08.01,4.66,0,3.72-.19,8-.19.96,0,1.21-.03,1.18-.06Z"/><path d="m31.77,2.7l-.98-.07c-2.14-.06-5.11-.08-4.83-.2.05-.02-1.03-.07-2.46-.11-1.43-.03-3.22-.04-4.61.02-.87.04-2.25.05-4.12.02.08,0,.12.02.15.03l-.09.1c5.59.1,11.11.23,16.95.2Z"/><path d="m85.32,3.59c.44-.08-2.02-.15-4.03-.21-4.33-.12-9.35-.27-13.15-.29-2.63-.01-4.4-.04-6.95-.08-1.55-.03-.69.05-.82.08,5.46.12,10.75.26,16.49.31,2.48.02,5.62.12,8.46.19Z"/><path d="m310.78,2.53l2.11-.08c1.13-.09,2.68-.18,2.42-.24-5.69.15-11.77.42-17.53.47-2.32.02-3.03.18-5.13.26.11.05,2.33.03,2.84,0,3.53-.19,6.42-.15,9.6-.25,2.05-.26,3.78-.08,5.7-.17Z"/><path d="m252.56.24c-.57,0-1.15,0-1.71,0-1.06.07-1.02.07.78.1.79.01,1.84.03,2.01.06.6.07-2.59.05-3.1.09l2.4.08,3.75.03,7.6-.1c-5.18-.12-5.07-.15,1.09-.26-2.64-.18-4.64-.08-6.7,0-2.02,0-3.01.19-6.12.02Z"/><path d="m168.43.17c-4.75.03-10.05.05-8.09.26.51.06-1.32.1-3.03.13.53.11,2.95.01,4.39.02,1.04-.11,1.71-.23,7.18-.16.9.01,2.36,0,2.73-.04.39-.05-.73-.05-1.92-.06h-.51s.46,0,.46,0l-1.21-.16Z"/><path d="m260.79,4.15c-.15,0-.2,0-.15-.02-.5-.04-4.04.07-3.38-.03-.92-.07-2.25-.03-3.6.07-1.19.09-2.21.17-4,.1-1.37.05-2.33-.02-3.6.06-1.61.1-.27.13,1.09.16,4.62-.09,9.52-.1,13.64-.34Z"/><path d="m192.22,5.55c-1.56-.05-5.42.02-6.52-.1-.52-.05-5.4.14-8.04.23-.44.02-.72.04-1.07.05l-.02.1c4.09.01,7.9-.17,11.94-.2l2.98-.06c.39,0,.64-.02.74-.03Z"/><path d="m158.23,5.17c1.57.14,11.86.64,15.17.73,3.27.09,1.19-.06,1.85-.09-2.08-.07-4.17-.11-6.14-.25-.43-.02-1.87-.09-1.97-.09-2.65,0-5.99-.22-8.91-.31Z"/><path d="m30.96,7.96c1.59.02,4.7-.17,5.5-.04,1.63.04,3.24-.02,4.85-.07,2.69-.14,6.95-.15,10.11-.25-.64-.05-.56-.12-3.94-.01-2.05.07-5.01.1-7.56.15l-1.41.07h-.45s1.78-.07,1.78-.07c-2.11,0,4.37-.31-3.34-.09-.27.06.75.12-2.31.18-.62.06-3.4.08-3.24.15Z"/><path d="m87.62,3.55c-.07.01.33.05-.65.03,6.91.17,14.19.46,20.18.41l-.16-.05-4.52-.11c-4.94-.09-9.88-.18-14.85-.28Z"/><path d="m51.42,7.6c-3.16.1-7.42.11-10.11.25.37.11,2.87-.02,4.16-.03,4.94-.04,10.04-.14,15.02-.25-1.02-.18-5.91,0-9.07.03Z"/><path d="m133.21,6.39c-3.56.04-7.57.15-9.96.05-.91-.04-2.22.01-2.44.07-.15.04.13.08-1.38.13-.48.12,2.51.04,4.09.02,3.56-.05,7.17-.1,10.77-.15-.29-.04.61-.11-1.08-.11Z"/><path d="m151.41,5.74c2.49,0,5.07-.01,6.84-.13,1.15-.08,1.83-.05,2.86-.04,3.46.04,6.88,0,10.11-.16-3.22-.05-7.24.03-11.16.1-2.89.06-5.75.11-8.63.16l-.03.08Z"/><path d="m206.01.59c.8-.07,3.25-.17-2.46-.11-2.97.03-4.34-.03-5.86-.09-.76-.03-.26-.11-2.63-.08-1.91.03-1.47.08-1.11.13.34.05.53.1.78.15h11.28Z"/><path d="m229.98,4.84c.37-.11.42-.2-4.48-.03l-3.44.14-2.17.05c-.92.06-2.21.08-3.45.1l-1.29.1c-.1.07,1.42.02,2.62-.02,4.08-.12,8.14-.24,12.21-.35Z"/><path d="m252.93.55l-2.4-.08c-3.23,0-6.64.08-9.37-.06-.7-.03-2.76.01-2.63.02.56.05-3.89.06-.75.12,5.02-.02,10.51.12,15.16-.01Z"/><path d="m228.86,4.52c1.25-.06,3.1-.16,3.63-.16,2.11-.01.12.07-.61.12-.49.03.15.04,1.01.02.49-.01,1-.03,1.39-.04.39-.02.66-.03.67-.05.03-.05-.28-.09-.44-.14-4.12,0-8.8.12-13.45.23l-.14.09c.05,0,.07.02.04.03l1.24-.02c2.99-.1,5.83-.19,6.67-.07Z"/><path d="m283.47.44c-4.28,0-3.34.2-8,.19,2.38.1,4.81.18,7.94.07.35-.02.58-.06,1.07-.06,7.54,0,1.99-.09.22-.16-.18.02.02.06-1.33.04l.27-.05c-.07-.01-.12-.02-.18-.03Z"/><path d="m181.09.1c.99.06,2.93.14,4.91.07,3.8-.13,10.67.05,13.2-.15-6.15,0-12.19.02-18.11.08Z"/><path d="m87.7.45l4.43.04h2.32c-.01-.07,1.91-.07,3.77-.08,4.37.06,8.47.02,12.33-.1-.37-.03-1.56-.06-2.36-.05-6.62.12-14.06.03-20.49.18Z"/><path d="m51.33,7.11c.22.11.99.18,5.35.02,3.25-.12,7.35-.03,10.48-.19-4.72-.08-10.45.09-15.83.17Z"/><path d="m59.31,2.59c1.52.14,4.52.26,7.81.39-.65-.12,1.06-.18,3.31-.23-2.3-.1-4.37-.09-6.5-.1-1.15.07-3-.02-4.62-.06Z"/><path d="m100.39,6.96c-3.97-.08-12.24.06-17.2.28,4.9-.01,9.83-.14,14.74-.22.12-.07,1.33-.06,2.46-.06Z"/><path d="m329.07,1.25c.17.03.32.04.51.11.04.02.04,0,.1.07.02.04.05.04.04.12-.01.08-.04.1-.05.12-.08.07-.11.06-.16.08-.08.03-.15.04-.22.06-.28.05-.51.08-.71.11-.39.05-.61.09-.59.11.49-.04.96-.06,1.48-.18.07-.02.11,0,.26-.1.03-.03.04-.03.07-.08.03-.06.04-.16.02-.21-.02-.07-.11-.17-.13-.17-.05-.03-.1-.06-.13-.07.02,0,.06.02.11.05,0,.02.2.07.17.34-.09.21-.16.19-.19.22-.05.02-.07.03-.1.04-.11.03-.2.05-.3.07-.19.03-.37.05-.55.07l-.9.05c-1.36.11-2.01.16-2.12.21,1.04-.06,2.04-.11,3.05-.22.26-.03.5-.05.78-.12.03,0,.08-.02.12-.04.03-.02.06-.03.1-.05.03-.02.06-.06.09-.09.02-.01.09-.17.06-.26-.01-.12-.16-.24-.17-.24l-.1-.05-.12-.04c-.14-.04-.27-.06-.4-.08-.51-.07-1-.11-1.51-.15-2-.15-4.06-.22-6.36-.26.4.14,4.27.24,6.84.48.33.03.67.06,1.01.1Z"/><path d="m126.2.32c5.22-.02,10.41-.03,14.84-.15-1.75-.05-3.4-.07-6.01,0-3.31.09-7.43.03-11.09.08l.21.07c.67,0,1.36,0,2.05,0Z"/><path d="m145.79,5.99c-4.66.09-7.18.27-5.66.4l4.56-.07c-.7-.07,2.67-.16,2.01-.22-1.33-.02-.77-.07-.91-.11Z"/><path d="m264.29.48l-7.6.1c3.83.07,7.64.12,11.24.02l-.4-.12h-3.23Z"/><path d="m265.31,3.61l2.92-.07.51-.07c-4.25.08-8.58.12-12.53.31,1.27.03,3.88,0,4.36.06.82-.03,1.51-.06,2.2-.09.18-.05.29-.1,2.53-.15Z"/><path d="m151.41,5.74l.03-.08-5.66.09c-1.16.1-1.07.18,0,.25,2.76-.03,2.11.04,2.17.09.44.02,1.06.04,2.13,0,1.25-.03.51-.06.28-.08-.87-.08-2.5-.15,1.05-.28Z"/><path d="m313.15,2.76l-.07.07c3.87-.12,8.11-.18,11.39-.5-.58-.04.27-.2-4.02.13-1.86.14-5.1.16-7.31.3Z"/><path d="m85.08.52l.27-.1c-4.4-.04-8.38.05-12.45.12l2.13.05c2.26.02,2.3.08,2.62.14.3,0,.61,0,.93,0,0-.07.18-.13,1.07-.17.9-.04,2.52-.06,5.43-.04Z"/><path d="m35.29,1.3c-3,.04-6.01.07-9,.11-1.94.02-3.4.05-3.6.12,4,.03,8.46-.11,12.62-.13,0-.03.02-.07-.03-.1Z"/><path d="m75.02.59l-2.13-.05c-3.25-.02-6.61-.08-9.26.09,2.92,0,5.97.01,9.23.02,1.54,0,2.08-.01,2.15-.06Z"/><path d="m241.38,4.59c-.13,0-.16-.02-.39-.02-1.63-.02,4.6-.24-.11-.16-3.4.06-5.58.21-5.28.32,1.99-.03,4.11-.01,5.78-.14Z"/><path d="m137.37,4.84c1.27.1,2.57.18,5.34.21,2.29.03,4.28.12,5.45.22.8.02,1.83.06,2.13.04-.66-.06-1.31-.11-1.98-.17-3.55-.11-7.05-.22-10.58-.34l-.36.03Z"/><path d="m193.43,6.56c-1.97.02,1.14.15,3.94.27,2.07.1,3.37.14,4.24.14l-.05-.07c-2.66-.11-5.32-.22-8.13-.33Z"/><path d="m45.51,2.81c-4.12-.03-8.77-.14-12.43-.09,4.13.13,8.27.09,12.4.15l.02-.07Z"/><path d="m223.27.58c-.6-.25-5.42-.05-8.21-.07.18.05-.63.12,2.77.09,1.69,0,3.62-.01,5.44-.02Z"/><path d="m236.78,4.21c.4.04-.02.13,2.55.07,3.46-.08,1.39-.16,3.38-.24-2.77-.03-3.96.11-5.93.17Z"/><path d="m111.75,6.32c-1.69.05-3.38.1-5.07.15,3.19-.04,3.39.04,3.85.11.26.04,1.02.06,2.54.04.57,0,1.46-.04,1.64-.06.5-.05-.74-.04-1.71-.05-3.52,0,2.82-.18-.24-.2-.32,0-.66,0-1.01,0Z"/><path d="m199.54,7.17c-2.25-.06-5.3-.38-7.07-.29q.96.14,7.07.29Z"/><path d="m204.95,5.03c-2.99.02-2.8-.07-3.47-.13-2.34.03-4.92.02-6.82.13l.07.04c1.68,0,4.63-.09,4.9-.02.61.14,3,.04,5.31-.02Z"/><path d="m211.9,4.7c-1.45.14,2,.09,3.64.11l1.78-.11,1.4-.17c-2.34.03-4.39.16-6.81.16Z"/><path d="m181.13.51v.1c2.12.02,4.25.05,6.6,0-.02-.05.79-.12-2.38-.11-2.4.01-3.49-.02-3.4-.09-1.05.03-.72.06-.81.09Z"/><path d="m70.43,2.76c-2.26.04-3.96.1-3.31.23,2.33-.03,5.73-.02,6.22-.12l-.46-.07-2.44-.04Z"/><path d="m133.21,6.39c1.69,0,.79.07,1.08.11l3.4-.04c.53-.13.6-.24-4.54-.18l.05.11Z"/><path d="m124.15.32l-.21-.07c-2.2,0-4.09.04-5.7.09,1.41.23,3.69.09,5.91-.01Z"/><path d="m130.84,4.24s-.23.04-.01.06c.62.07-2.64.07.88.18,3.12.1.43-.08.88-.11.13,0,1.17.02,1.79.03-.76-.06-1.44-.13-3.54-.16Z"/><path d="m59.31,2.59c1.62.04,3.47.13,4.62.06l-2.49-.06c-.94-.01-1.74-.03-2.18-.07l-4.62-.04.96.05,3.7.06Z"/><path d="m270.76,10.84s.09,0,0-.02c-.39-.06,1.3-.01-1.47-.18-.95-.06-2.73-.1-.92.05l2.39.15Z"/><path d="m40.99,1.14c-.08.06-2.95.13-2.26.19l3.48-.04c-.42-.05.8-.13-1.22-.15Z"/><path d="m20.2,7.62c.08.05,1.18.07,2.38.08,5.03-.11-1.1-.07.26-.14-.22,0-.51,0-.87,0l-1.51.03c-.31,0-.4.02-.26.02Z"/><path d="m193.82,5.49l-2.27.07c1,.06,3.76,0,5.48,0l.12-.07-.09-.07c-.61,0-1.08.01-1.54.02-.17.04-.94.04-1.7.04Z"/><path d="m165.19.09c.19.06,2.66.03,3.39.07l1.81-.03-1.46-.04c-1.2-.02-2.44-.02-3.74,0Z"/><path d="m272.08,3.38c.68.05,1.58.06,3.58-.05-.96-.01-1.34-.09-3.58.05Z"/><path d="m13.59,2.39h-3.59c-.17.08,1.81.09,3.58.09v-.09Z"/><path d="m282.31,3.21c1.7-.05,3.61-.08,4.81-.16-2.45,0-3.75.07-4.81.16Z"/><path d="m282.76,11.6c-1.12-.09-2.41-.17-3.88-.24,1.25.08,1.98.21,3.88.24Z"/><path d="m55.61,2.53l-.96-.05-2.27-.03.1.04c1.03.05,2.07.07,3.14.05Z"/><path d="m178.92,5.3s-.03.01-.15.02c.16,0,.33-.01.53-.02.1-.03.21-.05.32-.08l-.69.08Z"/><path d="m59.26,2.53c.44.03,1.24.05,2.18.07.03-.06-.72-.08-2.18-.07Z"/><path d="m141.34,5.8c.13.02-.08.07,1.18.04.92-.02.75-.04.07-.05h-1.25Z"/><path d="m197.16,5.49l-.12.07c1.17-.03,1.98-.06,2.35-.11l-2.23.04Z"/><path d="m191.48,5.58l-2.98.06c1.25.03,2.26,0,2.98-.06Z"/><path d="m35.35,1.3l-.03.1c.75,0,1.15-.01,1.18-.04-.1-.03.45-.07-1.16-.06Z"/><path d="m274.39.62l-.36-.06c-1.2,0-.46.04-.72.06.36,0,.72,0,1.08,0Z"/><path d="m100.39,6.96c-1.13,0-2.33,0-2.45.06,1.03,0,2.06-.01,2.45-.06Z"/><path d="m137.73,4.81c3.53.11,7.03.22,10.58.34,1.23.04,1.77.04,1.87.01l.16-.09c-1.95-.07-2.6-.12-1.9-.15.33-.01.79-.03-.51-.08-.38-.01-.98-.03-1.48-.04-.5-.01-.9-.01-.9-.01.23.14-4.94-.03-6.96-.01-.4.01-.58.02-.87.03Z"/><path d="m211.52,7.65c2.4.14,4.8.28,7.14.33-4.03-.2-.73-.15-3.57-.3l-4.54-.26c.58.09,2.99.26.96.23Z"/><path d="m90.11,3.28c-1.92-.1-4.41-.16-7-.21.08.04-.29.08.35.12.84.05-2.57.04.53.11,2.14.05,1.73-.02,1.49-.06-.11-.02-.12-.09,1.28,0,2.55.18,2.02,0,3.36.05Z"/><path d="m171.94,6l3.42.16c.44-.02,3.37.07.79-.07-2.73-.15-3.65-.13-4.21-.09Z"/><path d="m163.8,5.66c-.99-.02-1.91-.02-1.3.02,1.83.12,3.92.13,5.94.22-.17-.09-2.81-.16-4.63-.24Z"/><path d="m102.48,3.83l4.52.11c-.24-.06-1.67-.13-3.48-.17-1.4-.03-.94.03-1.04.05Z"/><path d="m52.34,2.58c-.31,0-.64,0-.97,0l-.13.06c1.38.02,3.06.06,3.68,0l-2.57-.06Z"/><path d="m176.25,6.19c.47.08,2.08.13,3.7.17l-.11-.06c-1.21-.04-2.4-.08-3.59-.11Z"/><path d="m154.38,5.09c-.25-.01-.48-.03-.71-.04h-.65c.29.02.64.03.87.04.22,0,.33,0,.49,0Z"/><path d="m93.62,3.36l-2.64-.06c.33.03.58.06,1.02.07,1.28.04,1.27,0,1.62-.02Z"/><path d="m162.78,5.54l1.1.1c1.72.02.38-.04-1.1-.1Z"/><path d="m179.84,6.3c.31.01.69.03.99.04.3.01.52.01.52,0,0,0-.44-.03-.67-.04-1.04-.04-.75,0-.84,0Z"/><path d="m150.34,5.07l-.16.09c1.47.02,1.59,0,.16-.09Z"/><path d="m119.32,4.06s.2.02.36.03c-.02-.01-.2-.02-.36-.03Z"/><path d="m48.92,2.59l-.05.03h2.35c-.75-.01-1.52-.02-2.3-.03Z"/><path d="m159.34,5.45l-.26-.02c.1,0,.19.02.26.02Z"/><path d="m180.52,6.38l.33.04c.99.02.79,0-.33-.04Z"/><path d="m131.06,6.28c1.38-.08,3.54-.16,1.96-.22-.68-.03-1.49-.05-2.91-.03-2.11.02-2.35.08-2.63.13,1.1.04,1.64.09.71.17-.43.04-.32.06.92.05,1.5-.02,1.73-.06,1.96-.09Z"/><path d="m34.2,7.82c3.05-.06,2.04-.12,2.31-.18-1.13.01-2.72.06-2.88,0-.08-.03-1.18-.06-2.18-.03-1.03.03-1.97.09-2.34.13-.6.07,1.38,0,2,.02,1.21.03,2.09.05,3.1.07Z"/><path d="m92.68,6.68c-2.07-.14-5.92-.02-9.55.07,2.66.05,5.67.05,9.55-.07Z"/><path d="m95.5,6.63l-1.17.03c-.2.01-.32.02-.6.04-2.19.08-3.64.15-1.39.19.59.01,2.21,0,1.93-.02-.65-.07,6.54-.21,1.23-.23Z"/><path d="m120.66,6.19l-3.29.03s-2.78.16.14.14c2.16-.01,3.66-.1,3.15-.17Z"/><path d="m105.13,6.49l-3.66-.04c.09.04-1.88.11-.21.12,1.33,0,2.77-.03,3.86-.09Z"/><path d="m41.2,7.53c.67,0,1.07,0,1.45,0,.42-.01.83-.03,1.24-.04-.35,0-.67,0-1.06-.01-.4.01-.87.03-1.63.05Z"/><path d="m99,6.49l-3.16.07c-.15,0-.3.01-.46.02l.15.03c1.42-.03,3.5-.05,3.47-.13Z"/><path d="m123.56,6.15c-.94-.02-1.87-.03-2.83.04l2.83-.04Z"/><path d="m48.08,7.25c.32,0,.48,0,.65-.01-.12,0-.23,0-.65.01Z"/><path d="m224.34.1c-1.27,0-2.73,0-3.49.04-.57.11-4.41.03-5.93.09-.58.02-2.52-.08-3.38,0-.52.05,1.38.09,2.55.12,1.2.04,2.14.04,3.79,0,2.08-.05,4.51-.08,6.37.03,1.12.07,3.14.02,4.32,0,2.07-.04.39-.07-.81-.1-1.91-.05-3.79-.1-3.43-.18Z"/><path d="m181.13.51c.09-.03-.24-.07.81-.09.26-.04,3.06-.05,1.68-.11-.48-.02-1.59-.04-2.32-.04-2.44.01-.82.07-1.35.11-.3.02-.52.04-.97.06-.88.03-3.44.06-2.48.1,1.11.05,2.95-.03,4.63-.03Z"/><path d="m189.43.36c.24,0,.47.01.7.02l.66-.03c-.29,0-.63,0-.87,0-.21,0-.33.01-.49.02Z"/><path d="m245.96.16h1.13c-.37,0-.76,0-1.13,0Z"/><path d="m253.8,9.58c.23.03.3.06,1.83.13-.21-.03-.93-.08-1.83-.13Z"/><path d="m296.13.4l-2.33-.02s.5.11-.21.12c-1.26.02-2.39.03-1.97.09.21.03.9.02,1.18.01,1.01-.04,4.37,0,3.48-.09-.29-.03-.11-.07-.14-.1Z"/><path d="m302.89.57c-.71-.04-.76-.09-2.4-.11-.23,0-.8.02-.74.03.32.06,1.89.06,3.13.08Z"/><path d="m329.07,1.25c-.34-.05-.67-.08-1.01-.1,0,.04-.22.01,1.1.17l-.09-.07Z"/><path d="m283.65.47l-.27.05c1.35.01,1.15-.02,1.33-.04h-1.06Z"/><path d="m289.22.41l.4.05c1.1-.02-.03-.03-.4-.05Z"/><path d="m215.09,7.68c2.84.16-.46.11,3.57.3,1.47.07,2.5.1,3.28.11,1.63.03,3.62.08.6-.13-4.76-.32-4.97-.19-7.44-.29Z"/><path d="m234.22,8.54c-1.64-.08-4.26-.26-4.12-.17.05.03.7.11,2.56.19,1.8.08,4.44.18,4.54.15.2-.05-2.14-.11-2.98-.17Z"/><path d="m232.42,8.64c1.28.09,2.07.17,3.01.22,1.18.06,3.27.17,3.36.13.05-.02-.72-.09-1.97-.15-1.35-.06-2.66-.12-4.39-.19Z"/><path d="m248.08,9.27c.15.03.16.05,1.35.11.37.02.58,0,.86.02l-2.21-.12Z"/><path d="m227.91,8.31c.37,0,.14,0-.09-.01h.09Z"/><path d="m245.9,9.13l.52.03.52.03c-.35-.03-.69-.05-1.03-.06Z"/><path d="m174.24,5.45c.24.05,1.42.06,3.08.01,2.11-.05,1.28-.1,1.48-.15-2.05.02-2.13.13-4.55.14Z"/><path d="m147.96,6.08c-.06-.05.59-.13-2.21-.09.17.04-.38.1.94.11l1.26-.02Z"/><path d="m174.22,5.46h-.25c.09,0,.18,0,.25,0Z"/><path d="m126.2.32h-2.07c.36.02-.7.07.97.07.95,0,1.18-.04,1.11-.07Z"/><path d="m98.22.41c-1.87,0-3.79,0-3.77.09,1.39-.03,2.95-.04,3.77-.09Z"/><path d="m204.95,5.03c-2.31.07-4.7.17-5.31.02-.27-.06-3.22.01-4.9.02.92.06,1.65.14,2.81.19,2.47.12,6.98.08,10.67-.12.46-.03.69-.06,1.26-.08,2.1-.08,2.24-.2.15-.2q-.87,0-1.37.09c-.23.04-.17.09-1.75.12-.49,0-1.03-.03-1.54-.04Z"/><path d="m222.19,4.6l-1.24.02c-2.18.17,1.22.21,1.11.33l3.44-.14c.32-.12-4.22-.07-3.31-.21Z"/><path d="m216.44,5.1c1.24-.03,2.53-.05,3.45-.1-.04,0,0-.01-.12-.01-1.54,0-1.25-.13-3.14-.07-2.77.09.33.11-.2.18Z"/><path d="m210.36,5.12c-.33.02-.71.03-.68.04.1.02.35.03.54.04.15-.01.42-.03.42-.04,0-.02-.16-.03-.28-.05Z"/><path d="m193.82,5.49c.76,0,1.53,0,1.7-.04-.72,0-1.73-.01-1.7.04Z"/><path d="m197.07,5.42l.47-.03c-.21,0-.41.02-.47.03Z"/><path d="m264.29.48h3.23c.96-.12,6.37-.07,8.13-.16-.18-.05.28-.1-2.32-.11,1.1.07-.79.09-1.98.11-1.46.02-2.15-.03-2.7-.07l-3.28-.02c-6.16.11-6.27.13-1.09.26Z"/><path d="m268.66.25c.55.04,1.24.09,2.7.07,1.19-.01,3.08-.04,1.98-.11-1.77,0-3.97-.04-4.68.04Z"/><path d="m252.56.24c3.11.17,4.1,0,6.12-.02-2.48-.07-4.33-.03-6.12.02Z"/><path d="m245.94.16h1.18c-.39-.03-.78-.03-1.18,0Z"/><path d="m265.31,3.61c-2.25.05-2.35.1-2.53.15.34.06-.83.07-2.08.08-.7.08-.2.16-3.43.25-.66.1,2.88-.01,3.38.03,4.55-.21,4.92-.37,4.67-.52Z"/><path d="m228.89,4.52l-1.44.04c.81.01,1.01-.02,1.44-.04Z"/><path d="m5.97,1.63c.55-.05.69-.08.84-.12-1.15.04-2.3.08-3.44.11-.57.03-1.15.05-1.72.1-.15.01-.28.02-.44.06-.02,0-.04.01-.07.02h-.02s-.06.07-.06.11c0,.06.03.08.07.11.07.03.1.03.14.04.08.01.15.02.22.03l.86.05c2.07.07,2.11,0,2.2-.03-.61-.02-1.3-.04-1.92-.06-.31-.02-.6-.04-.87-.05-.13-.01-.25-.03-.37-.04-.08,0-.29-.06-.18-.05,1.57-.19,3.17-.21,4.75-.28Z"/><path d="m2.35,2.13l-.86-.05c-.07,0-.14-.01-.22-.03-.04,0-.07,0-.14-.04-.03-.03-.07-.05-.07-.11,0-.04.03-.08.06-.09.01,0,.02,0,.02-.01.03-.01.06-.02.07-.02.16-.03.3-.04.44-.06.57-.05,1.15-.07,1.72-.1l3.43-.11.09-.07-3.97.12-.99.05-.5.04c-.09.01-.16.02-.28.05l-.06.02s-.1.05-.11.13c-.02.09,0,.12.02.15.16.17.14.08.18.12.06.01.1.02.15.03.68.07,1.33.08,2,.11l-.97-.13Z"/><path d="m5.97,1.63c-1.58.07-3.19.09-4.75.28l.02.08c1.5-.18,3.1-.18,4.65-.24l.09-.11Z"/><path d="m28.47,2.27s-.16-.07-1.43-.09c-.57,0-1.33.01-2,.02.81.05,2.16.06,3.42.07Z"/><path d="m1.22,1.91c-.11-.02.09.04.18.05.11.01.24.03.37.04.26.02.56.03.87.05.62.02,1.3.04,1.92.06-.35-.03-.88-.05-1.49-.08-.3-.01-.63-.03-.96-.04l-.5-.03-.25-.02c-.06-.01-.23-.04-.12-.02Z"/><path d="m14.76,2.37s1.08-.03.06-.06c-.11,0-.43,0-.52,0-.66.02-.28.04.46.06Z"/><path d="m310.78,2.53c-1.92.09-3.65-.09-5.7.17-.32.16,3.84-.05,5.76-.07-.03-.03-.04-.06-.06-.1Z"/><path d="m286.91,3.3l.47-.02c-.15,0-.29.01-.47.02Z"/><path d="m310.84,2.63h.25c-.09,0-.18,0-.25,0Z"/><path d="m48.92,2.59l2.32.03.13-.06c-1.62-.03-2.41-.02-2.45.03Z"/><path d="m85.08.52c-2.91-.02-4.53,0-5.43.04-.9.04-1.07.1-1.07.17l1.25.13c4.33.07,6.79-.09,10.16-.14.41-.12.12-.22-4.9-.21Z"/><path d="m29.94,1.24h-.5s.21.02.5,0Z"/><path d="m95.84,6.56h-.81c.12,0,.24.01.36.02.15,0,.31-.01.45-.02Z"/><path d="m41.03,1.14c-.4,0-.79,0-1.2-.01,0,0-.21.01-.32.02.5,0,.99,0,1.53,0Z"/><path d="m105.91.71l2.18.02c-.15-.04-.25-.09-2.18-.02Z"/><path d="m6.81,1.51c-.15.04-.3.07-.45.11,1.13-.03,2.38-.06,2.57-.11.19-.05-.9-.03-2.12,0Z"/><path d="m272.27,3.52c-.13.04-.17.08.95.07-.12-.03.39-.08-.95-.07Z"/><path d="m277.82,3.59h-.24c.08,0,.17,0,.24,0Z"/><path d="m268.81,3.74c.24.02.22.06.78.06.73,0,1.43-.05,1.19-.06-.46-.03,1.86-.16-1.64-.07-.11.03-.22.05-.33.08Z"/><path d="m268.81,3.74c.11-.03.22-.05.33-.08-1.74.06-1.59.08-.33.08Z"/><path d="m319.59.82c-.16-.01-.3-.02-.49-.03-.02,0-.4,0-.43,0-.05,0,.01.02.03.03h.89Z"/><path d="m169.64.33h-.46c.17,0,.34,0,.46,0Z"/><path d="m39.85,7.73l-1.78.05h.45c.47,0,.94-.03,1.33-.05Z"/><path d="m328.69,2c.18-.02.36-.04.55-.07.09-.02.19-.03.3-.07.03-.01.05-.01.1-.04.03-.03.1,0,.19-.22.04-.28-.17-.33-.17-.34-.04-.02-.09-.04-.11-.05.03,0,.08.04.13.07.02,0,.12.1.13.17.02.04.02.15-.02.21-.03.05-.04.06-.07.08-.15.1-.19.08-.26.1-.28.08-.52.11-.78.15Z"/><path d="m329.47,1.85c-.52.11-.99.13-1.48.18.11.01.4,0,.71-.02.26-.04.5-.08.78-.15Z"/><path d="m260.7,3.85c1.25,0,2.42-.02,2.08-.08l-2.08.08Z"/>
                  </g>
                </mask>
              </defs>
              <path class="mask" d="m0,8.18c50.84-.43,122.09-1.29,207.5-3.13,71.91-1.56,122.32-2.65,122.08-3.52C328.95-.68.87.65,1.16,1.91c.16.7,101.56-.38,248.74,7.52,24.71,1.33,45.92,2.65,62.4,3.74"
                    mask="url(#path-mask)" stroke="black" stroke-width="2" fill="none"
                    stroke-dasharray="969.5906372070312" stroke-dashoffset="969.5906372070312">
              </path>
            </svg>
        