
            <svg xmlns="http://www.w3.org/2000/svg">
              <defs>
                <mask id="path-mask">
                  <g fill="white">
                    <path d="m62.49,6.55c1.18.03.44-.08.68-.12l.85.08c.69.09,1.5.17,2.16.28,1.35.2,3.9.32,5,.25.75.06,1.22.07,1.54.06.99.11,2.47.13,3.23.28.21.08,1.07.2.34.21-.53,0-1.1-.01-1.95-.11-.7-.08-1.33-.12-1.73-.09l-.66-.05c-.82-.02-1.91-.28-2.56-.15-.26-.02-.72-.05-.73-.05-.65.11-2.16-.05-3.46-.14l-.02-.04c.36,0,.29-.01-.12-.04-.07,0-.13,0-.2-.01l-.04-.06c.22.01.55.04.55.01,0,0-.16-.03-.24-.03-.38-.02-.27,0-.31.02l-1.29-.04c-.11,0-.21-.01-.32-.02.16-.02,1.22,0,.29-.08-.99-.1-1.32-.06-1.53-.01-.19.05-.61.04-1.27-.04-.06-.09-1.01-.11-1.68-.15l.03-.02c.62-.01.14-.05-.4-.08-.72-.09-.79-.01-1.25-.03l-.09-.02.1.02s.22.12-1.09.04c-.82-.05-1.53-.06-1.39.02l-.81-.03-.71-.13c.44.02.64,0,.68-.02.53,0,.58-.03.06-.09-.71-.04-.94-.07-.68-.11.12-.02.29-.04-.18-.07-.27-.02-.86-.01-.86-.01.08.13-1.79.06-2.53.11-.15.01-.21.03-.32.04l-.13.03c-1.67-.06-3.42-.16-4.93-.11-.38.01-.91-.03-1.29-.07-.68-.06-1.14-.06-1.51-.01l-3.22-.14-.06-.04c-.09-.06-.6-.1-1.26-.11-.51,0-.34.04-.38.07-1.79-.02-3.58-.03-5.46-.05h.07s.12.05-.24.05c-.1.02-.14.05-.6.04.16-.09-.73-.12-1.46-.15-1.57-.05-3.39-.12-4.77-.08-.95.03-1.59.03-2.52.03-.56,0-.25.06-.3.09h-5.39s0-.06,0-.06c.35-.04.27-.08.09-.12-.3-.07.16-.11,1.12-.11l.85-.04c.51,0,1.12,0,1.34-.05l-.93-.02c-.12-.03-.67-.07.04-.1.37.04.75.04,1.14,0h1.34c.55.12,1.64.2,2.83.27.84-.07,2.08-.11,2.25-.22,1.18.03,2.35.06,3.54.04.03.04-.1.08.12.11.31.04-.93.08.19.1.78.01.63-.04.54-.09-.04-.02-.04-.09.46-.02.92.14.73-.04,1.53,0,.12.02.21.05.37.06.46.02.46-.02.59-.04,1.51.04,2.97.01,4.57.11.83.05,1.28-.04,1.53-.1l7.39.24s-.09.04,0,.06c.22.06-.96.11.32.16,1.13.04.16-.08.32-.12.05-.01.42,0,.65,0,2.09,0,4.33.12,6.49.23.63.03,1.66,0,2.15.12.57.11,4.29.42,5.49.46Zm-7.14-.5l-.24.02c.11,0,.23.02.31.02.08,0,.12,0,.18-.01-.09,0-.17-.02-.26-.03Zm-12.28-.38s-.11,0-.17,0c0,.01.07.02.17,0Z"/><path d="m30.12,9.24c-2.75.23-5.47.36-8.21.53-.38-.17-2.14.06-3.29.1-.23-.04-.21-.12-1.43.02-.74.08-1.81.14-2.76.2-.76.02,1.57-.34-1.22-.07-.41.02-.98.08-1.05.02-.03-.03-.43-.05-.79-.01-.37.04-.71.1-.84.14-.21.07.5,0,.73,0,.44,0,.76.03,1.13.05-.22.06-1.23.1-1.17.17-.62-.07-2.78.21-2.78.06,0-.07.86-.21,1.23-.32.38-.11,2.04-.24,3.37-.31.6-.02,1.17-.04,1.76-.07.57-.03,1.28-.02,1.69-.1.44-.09-1.13.04-.85-.05.91-.11,1.86-.19,2.92-.22.09.11.37.18,1.94-.03,1.17-.15,2.66-.09,3.79-.28l.44-.03.83-.02c1.4.03,2.9-.05,4.51-.27.97.02,2.06,0,3.46-.17l.6-.05c-.07.01-.11.03-.22.04-.79.1-1.31.18-.49.2.21,0,.8-.02.7-.04-.24-.06,2.36-.28.44-.26.51-.05,1.27-.09,1.25-.16l.89-.06s-.68.13-.07.13c.48,0,1-.06,1.39-.13l.56-.04c1.16-.07,1.23,0,1.4.06.1.04.37.05.92,0,.21-.02.53-.06.59-.08.18-.06-.27-.03-.62-.03-1.28.03,1.01-.21-.1-.2.27-.09.98-.14,1.65-.19v.05s-.98.19.07.14c.78-.04,1.32-.14,1.16-.21l1.02-.08,1.42-.04c.4.03.6.07.27.16-.15.04-.11.07.34.04.54-.04.62-.08.7-.12l.76-.02.03.11c-1.29.09-2.73.24-3.61.17-.33-.03-.81.04-.88.1-.05.04.05.08-.49.14-2.22.26-4.52.44-6.88.54-1.45-.04-4.43.19-6.22.46Zm-14.68.65c.15,0,.3-.03.45-.05-.13,0-.24-.01-.39,0-.15,0-.32.03-.59.06.24,0,.39,0,.53,0Z"/><path d="m74.84,1.48c-1.07.07-1.57.02-2.13-.01-.28-.02-.1-.11-.96-.04-.69.05-.53.1-.4.15.13.04.19.09.29.14l-2.53.12c-.01-.05.28-.13-.87-.08-.87.04-1.26.03-1.24-.05.09-.04,1.11-.09.6-.13-.18-.01-.58-.02-.84,0-.88.04-.29.08-.49.13-.11.02-.19.05-.35.07-.32.04-1.24.1-.89.13.4.03,1.07-.07,1.68-.09v.1c-2.4.12-4.73.19-7.03.23.37-.12.61-.25,2.59-.25.33,0,.86-.03.99-.07.14-.05-.27-.05-.72-.03-.15-.05-.3-.1-.39-.15l.65-.06-.53-.02c1.56-.13,3.02-.18,4.4-.14.36.05,1.07.1,1.78,0,1.37-.18,3.87-.09,4.78-.32,1.34,0,2.75-.09,4.13-.13-.05.12,1,.1,1.88.03.78-.06,1.25-.07,1.84-.05-.2.11-1.59.09-2.15.17-.21.03-.92-.05-1.22.04-.19.05.5.07.93.09.44.02.78.02,1.37-.04.75-.08,1.63-.14,2.31-.05.41.05,1.14-.02,1.57-.06.75-.07.14-.07-.3-.09-.69-.02-1.38-.05-1.25-.14l.44-.05c.78.11,2.27,0,3.54-.02.49-.01,1.63-.1,1.3.04-.08.03,1.46-.07,1.5-.1.09-.07.5-.08,1.06-.1h.41c.77-.06,1.68-.14,1.36,0-.38.09-.37.08.28.09.29,0,.67,0,.73.03.22.07-.94.08-1.12.13-1.17.05-2.4.16-3.4.07-.26-.02-1,.05-.95.06.21.04-1.41.11-.27.13-.05.03-.17.04-.64.06-1.53.03-3.06.03-4.61.15-.23-.25-1.97.02-2.98.04-1.17.04-2.03.17-3.27.19.29-.08,1.17-.21-.89-.08Zm-4.87.08l.24-.04c-.11,0-.23,0-.32,0-.08,0-.12.02-.18.03.09,0,.17,0,.26,0Z"/><path d="m102.01,10.08c1.47.12,3.25.37,4.61.45,1.18.21,3.02.34,4.43.52.4.05.56.06.85.08.89.06,1.13-.07.15-.2-1.03-.13-1.34-.2-1.6-.27-.27-.08-.76-.18-1.75-.21-.11,0-.51-.04-.69-.06-1.68-.22-3.31-.35-4.97-.54l-11.47-1.24v.05c.33.03.59.07.66.1.57.06,1.25.12,1.72.17,1.13.12,2.53.23,3.41.4.53.1,4.42.6,5.21.66.13.01.27.01.25,0-.18-.08.55.03.88.08.39.07.65.11.99.17.2.03.82.08.76.1-.04.01-.4-.01-.88-.06-1-.1-2.42-.27-2.56-.19Z"/><path d="m117.48.1c-1.01-.02-2.21-.05-2.87.03.29.01.66.05.86.04.78-.01,1.51-.03,2.08.08.46.09-.2.1-.67.13-.84.06-1.48.01-2.16-.06-.42-.04-1.13-.06-1.48-.03-1.19.1-1.71,0-2.42-.04-.45,0-1.02.02-1.14-.04-.02-.01.18-.04.27-.04.59,0,.61.05.87.08l1.27-.18c-.83-.14-1.92-.04-2.94,0,.03.05-.04.09-.78.11.01.03-.05.07.05.1.33.09-.89.09-1.26.14-.1.01-.35.03-.43,0-.15-.05.26-.08.71-.11.26-.02.06-.08.07-.12-.4.05-1.56,0-1.67.09.15,0,.56,0,.16.04l-.15-.04c-.59-.01-.23-.11-.96-.09-.26,0-.46.08-.69.12,0,.03-.08.06-.43.08l.06.03h.39c.64.04,2.65.06-.08.16-.18,0-.26.05-.39.08,1.18-.03,2.41-.1,3.48-.01.13.01,1.71-.1,2.76-.11.29-.04.65-.05,1.28-.06,1.86-.02,3.79.07,5.57.02.69.14,2.02.04,2.69.28.04.01.06.04.06.03-.04-.05,0-.12-.01-.09-.05.02-.13.05-.21.07-.16.04-.32.08-.49.11-.34.07-.7.15-1.15.24-1.21.26-1.76.27-1.8.17l-2.03.26c.1.06-.45.16-.85.26.94-.02,1.92-.05-.04.26-.25.04-.08.05.17.03.79-.16,1.97-.2,2.63-.35,1.53-.34,1.24-.17,1.46-.14l.43-.07s.26-.1.76-.19c.05-.06.37-.13.85-.26l-.05-.04c.47-.13.41-.12.42-.08.04-.02.06-.03.11-.06.02-.02.04-.03.06-.07.02-.05.05-.11.02-.16-.1-.22-.18-.17-.25-.22-.14-.05-.27-.08-.41-.11-.27-.05-.54-.08-.78-.12-.49-.06-.88-.11-.95-.18Z"/><path d="m78.86,7.78c.53.04.91.05,1.19.05.59,0,1.32,0,.23-.14-1.71-.23-1.8-.1-2.7-.14l-1.64-.17c-.76-.15-2.24-.18-3.23-.28v-.07c.94.07,2.04.08,2.75.19.89.14,1.82.19,2.88.26,4.13.27,8.28.63,12.43,1.06.07.04.06.06-.46.02l-.8-.07-.41-.06c-.12-.02-.25-.04-.37-.03-2.62-.23-2.99-.23-2-.03.02,0,.04.01.06.02,2.32.15,2.92.39,5.19.6.94.08,2.19.22,2.44.33-.62-.06-1.32-.07-1.52-.13-.38-.11-1.03-.14-1.66-.21-2.25-.24-4.45-.42-6.76-.61-3.3-.26-6.7-.55-10.07-.78-.67-.05-1.74-.09-1.79-.18.4-.03,1.04,0,1.73.09.84.1,1.42.12,1.95.11.87.09,1.73.18,2.59.19Zm4.15.16s.25.1.92.14c.65.04,1.61.09,1.65.06.08-.05-.78-.07-1.08-.11-.59-.04-1.54-.18-1.49-.09Zm1.91.38c.43.04,1.18.1,1.22.06.02-.02-.26-.07-.71-.11-.49-.03-.96-.06-1.59-.11.46.07.75.13,1.08.16Zm-2.49-.38l-.25-.02h.03c.19.03.19.02.22.02Z"/><path d="m52.35,7.62c1.02-.11,1.82-.17,2.98-.22,1.68-.08,3.77-.29,5.67-.46.95-.08,1.98-.12,2.86-.26v-.1c-.21-.03-.76-.06-.12-.13,1.9-.21,1.63-.37,2.94-.56-.7.06-1.32.13-1.87.22-.07,0-.13.02-.18.02-.07.05.24.09-.52.17-.6.07-1.03.08-1.12.03h-.1s.09,0,.09,0c.89-.04.91-.15,1.64-.21.05,0,.06-.02.05-.02-.85-.03-1.86.15-2.78.21-1.16.2-2.39.3-3.65.31-.37,0-.62-.01-1.03.08-.63.15-1.57.19-2.47.23-1.28.18-.68.22-.36.29.08.02.36.03-.1.08-.38.04-.61.04-.77.02l-.46.04c.25.06-.97.19-.71.25Z"/><path d="m43.93,2.41c-.82-.02-1.66-.02-2.78.08-1.39.16-2.88.25-4.46.25-.3.06-.86.1-1.36.14h-.84c.1.04.26.09.3.09,1.53-.1,2.57-.02,4.05-.1,1.08-.06,2.06-.1,2.36,0,.01,0,.12,0,.18,0l.61-.06c-.19-.11.9-.15,1.73-.18,2.72-.09,5.46-.28,8.22-.34,1.67-.04,1.76-.07.97.09-.24.05-.4.1-.59.15,1.58-.09,3.42-.11,4.69-.3-.3,0-.59,0-.9,0-.51.02-1.24.12-1.46.06-.09-.03.7-.12,1.21-.17.27-.03.78-.04,1.18-.06.34-.02.7-.03.86-.07.21-.05-.14-.05-.49-.06-.55,0-.7-.07-1.54-.03-1.07-.03-2.25-.01-3.66.08-1.6.17-3.48.26-5.37.34.03.03-.06.07-.4.08-.6.03-.22-.04-.35-.06-.79.13-1.61.29-2.13.09Z"/><path d="m89.51,8.48l-.41-.06-.19-.02-.19-.02c-2.62-.23-2.99-.23-2-.03.02,0,.04.01.06.02,2.32.15,2.92.39,5.19.6.94.08,2.19.22,2.44.33.69.04,1.9.19,2.42.19-.65-.11,0-.11.34-.07,1,.11.39.1.52.15.03,0,0,.01,0,.02.76.14,2.07.22,2.93.35.53.04,1,.09,1.4.16.14-.07,1.56.1,2.57.2.48.05.84.07.88.06.06-.02-.56-.07-.76-.1-.34-.06-.6-.1-.99-.17-.33-.05-1.07-.16-.88-.08.02,0-.12,0-.25,0-.79-.06-4.68-.56-5.21-.66-.89-.17-2.28-.27-3.41-.4-.47-.05-1.15-.11-1.72-.17-.55-.04-.58-.07-.66-.1v-.05s-.81-.09-.81-.09c.07.04.06.06-.46.02-.1,0-.18.02-.31,0-.43-.03-.43-.06-.48-.08Z"/><path d="m70.37,5.61l.03.04c.34.05.61.11,1.03.15.9.08,2.53-.04,3.86-.29.16-.03.25-.07.45-.09.76-.1.8-.22.04-.2q-.32,0-.49.1c-.08.04-.05.09-.63.14-.18.02-.37,0-.56-.02-1.08.07-1.02-.02-1.27-.07,1.23-.15,2.49-.25,3.76-.34-.51.16.73.07,1.33.08l.64-.12,1.29-.15s.03.02.02.03c-.78.19.46.19.43.31l-.78.07s0-.01-.04-.01c-.56.01-.47-.11-1.14-.03-1,.12.13.1-.06.18l-.46.12c-1.9.16-3.83.36-5.69.46l-.81.07-.04-.07.17-.03-.22.03-.51.05c-.26.02-.63.02-.61.07l-.82.1.11-.02h.13c-.57-.03-1.96.1-2.37,0-.19-.04-1.94.22-2.9.35-.15.03-.26.05-.39.07-.21-.03-.76-.06-.12-.13,1.9-.21,1.63-.37,2.94-.56,1.27-.15,2.5-.25,3.68-.29Zm5.45-.1s.13.03.2.04c.05-.01.15-.03.15-.04,0-.02-.06-.03-.11-.04-.12.02-.26.04-.24.05Z"/><path d="m108.37.18c.74-.02.8-.06.78-.11h-.69s-.53,0-.53,0c-1.33,0-2.61-.02-4.02.06-.57.03-1.41.05-2.09.03-.75-.02-2.18,0-2.42.03-2.55.18-5.02.19-7.47.2-.9,0-1.47.08-2.2.1l-11.3.38c-.4.01-.82.01-1.05.06-.05.12,1,.1,1.88.03.78-.06,1.25-.07,1.84-.05.27-.05.8-.06,1.26-.09l.44-.05c.78.11,2.27,0,3.54-.02.49-.01,1.63-.1,1.3.04-.08.03,1.46-.07,1.5-.1.09-.07.5-.08,1.06-.1.13-.04.28-.04.42-.01.76-.05,1.67-.13,1.35.02l.62-.02c.65-.07,1.32-.13,2.22-.1.74-.1,1.47-.23,2.43-.08l1.19-.02c.26-.09,1.05-.08,1.69-.1.94-.03.78.04.84.08,1.08-.14,2.17-.13,3.26-.07.23-.04.44-.11.69-.12.73-.02.37.08.96.09.1-.1,1.26-.04,1.66-.09h.84Z"/><path d="m87.28,4.62c.59.01,1.23-.01,2.08-.15-.5-.01-.98-.03-.41-.15.45-.09.81-.03,1.3-.1.66.05,1.02-.05,1.44-.14.48-.11.96-.17,1.3-.11,1.16-.13.98-.19,1.18-.28-.18-.06-1.12,0-1.59-.02-.78,0-1.81.07-2.79.19-.74.09-1.37.15-2.08.19-.72.11.04.16-1.21.28-.93.08-.78,0-.93-.05l-.82.08c.06.04.18.08.17.14,0,.03-.38.08-.74.11-.31.03-.54.03-.37-.01.26-.06.98-.15.21-.12-.19,0-.86.13-1.3.2-.14.02-.21.06-.51.06l.52-.06c-.32-.11-1.35,0-2.43.14-.32.14,1.32.06,1.22.17,1.77-.22,1.76-.13,1.63-.01.71-.08,1.3-.06,2.03-.16-.12-.11.66-.28,1.89-.38,1.7-.13-.54.15.05.16.08,0,.1.01.14.02Z"/><path d="m2.6,5.7h.67s1.3-.04,1.3-.04h.48s-.04-.04-.04-.04c-.28,0-.42-.02-.18-.05.04,0,.15,0,.19,0,.37.02-.02.04-.02.06.68,0,1.18-.03,1.49-.08,1-.18,2.6-.06,2.56-.02-.1.13.97.11,1.75.13.98-.05,1.95-.1,2.95-.15.43-.02,1.27-.01,1.04-.08-.2-.05-1.11,0-1.34-.02-.71-.05-1.82.12-2.22-.01-.54,0-1.19,0-1.27-.06-.46,0-.95.02-1.24-.02-1,0-2.02,0-3.01,0-.99,0-1.91.03-2.83.06-.46.01-.92.02-1.39,0l-.35-.02c-.06,0-.11-.01-.17-.02l-.06-.02c.08.02-.02.14.02.1.18-.07.45-.1.69-.13v-.08c-.25.04-.5.07-.7.14-.13.03.09.05.15.07.09.02.16.03.23.05-.02.02-.03.04-.13.05-.05,0-.12,0-.25-.01h-.05s-.04-.01-.09-.08c-.04-.05-.01-.12.04-.17l.07-.03c.08-.03.16-.05.26-.07-.06,0-.12-.01-.19,0-.03,0-.07,0-.12.01-.04.02-.01-.02-.1.06-.08.09-.09.18-.02.28.13.13.11.07.15.1l.08.02.12.02.23.02.44.02h.88Z"/><path d="m113.18,2.13c-.25.01-.42,0-.17-.03,1.96-.31.98-.28.04-.26l-.76.09.03.1h.1s-.09,0-.09,0c-.69.04-2.19.28-2.09.12-1.14.13-2.2.11-3.46.34-.18.03-.99.07-1.03.02l-1.21.1c-.52.13-2.04.31-1.74.41.01,0-.26.04-.4.06-.92-.11-1.27.17-1.98.2,0,.01,0,.02,0,.03,2.09-.01,2.56-.23,3.28-.41l.16-.02-.17.02c.21-.01.5-.03.75-.05.25-.02.44-.03.45-.02.23.23,1.73-.07,2.95-.21,1.27-.14,2.74-.34,3.88-.36.56-.03.48.06,1.45-.05l.02-.07Z"/><path d="m47.41,7.75l.76-.02c1.86-.12,1.84,0,1.66.12.61,0,.58-.07.88-.11-.56-.12.34-.33,2.02-.47-.39-.05-.43-.13-.02-.24-.43-.05-.79.03-1.15.09.25,0,.31.02-.02.05-.46.04-.38,0-.43-.03-.99-.04-2.43.15-3.48.23-1.71.14-3.58.22-5.2.43v.05s1.2-.07,1.2-.07c.37-.09.71-.08,1.05-.08l1.42-.04c.1-.05.18-.11.94-.16.51-.03.81-.02,1.06,0,.58.04-.2.15-.69.24Z"/><path d="m11.23,5.38c.4.13,1.5-.04,2.22.01.23.02,1.14-.03,1.34.02.24.07-.6.06-1.04.08-.99.05-1.97.1-2.95.15l.36.06h.48c1.32-.11,3.01-.07,4.5-.1.35-.04.27-.08.09-.12-.3-.07.16-.11,1.12-.11l.02-.03s.3-.07.89-.06c.12,0,.24,0,.35,0-.12-.03-.67-.07.04-.1l-.03-.03c-2.36-.02-4.71-.04-7.08.03.38.07,1.08.14-.31.22Z"/><path d="m24.17,3.38c-.49.03-.45-.11-1.31.04-.65.11-1.27.04-1.91.1-.18.14-1.05.16-1.98.17-.78,0-1.43.06-2.01.14-.61.08-.87.15-.22.17.87-.04,1.67-.04,2.6-.12,2.9-.25,3.22-.27,5.55-.29.06,0,.17,0,.18,0,1.18-.19,2.99-.1,4.19-.28-.12-.05-.14-.12-.96-.11-.03.04-.22.06-.78.08-1.18.05-2.29.08-3.35.09Z"/><path d="m11.23,5.38c1.39-.07.69-.14.31-.22-.92-.03-1.53-.09-2.85.02-.95.08-2.84.03-4.36.05-1.02,0-2.07.04-3.09-.01-.06,0-.13,0-.18-.02-.02,0-.06,0-.08-.01h-.02c-.05-.03.1.02.1.14,0,.04,0,.09-.02.14-.03.05-.08.07-.06.06h.01s.07-.02.07-.02l.18-.04c.25-.04.51-.08.76-.11.52-.06,1.03-.1,1.54-.14.9-.06,1.5-.11,1.39-.2-.1-.08-.83-.02-1.64.07-.56.05-1.13.11-1.68.19-.24.03-.51.06-.69.13-.04.04.06-.09-.02-.1l.06.02c.06,0,.11.02.17.02l.35.02c.47.01.93,0,1.39,0,.92-.02,1.84-.06,2.83-.06,1,0,2.01,0,3.01,0,.24-.02.52-.05.72-.05.46,0,.5.04.52.07.08.06.73.05,1.27.06Z"/><path d="m103.71,2.89c-.72.18-1.19.4-3.28.41l-1.65.2c-.44.07-.89.13-.78.18.78.02,1.79-.14,2.64-.22,3.25-.31,6.5-.57,9.76-.97.87-.11.99-.15,1.32-.23-1.14.02-2.6.22-3.88.36-1.22.14-2.72.44-2.95.21,0,0-.2,0-.45.02-.24.02-.54.04-.74.05Z"/><path d="m52.29,2.51c.2-.05.35-.1.59-.15.79-.17.7-.13-.97-.09-2.76.06-5.5.25-8.22.34-.83.03-1.91.07-1.73.18,1.55.06,3.24-.04,5.09-.19,1.19-.1,2.11-.11,1.89.03,1.2-.11,2.21-.06,3.35-.12Z"/><path d="m29.25,3.31c-1.2.17-3.02.09-4.19.28-.02,0-.12,0-.18,0-2.33.02-2.65.04-5.55.29-.93.08-1.73.08-2.6.12.37.09.78.17,2.21.15l1.04-.13c.38-.09.98-.12,1.82-.15,1.03-.05,2.27-.11,3.15-.16,1.79-.08,3.38-.28,5.09-.29l-.46-.12c-.11,0-.23,0-.34.01Z"/><path d="m8.32,4.72c.53-.14.96-.27-1.19-.13-.69.05-.26-.03-.21-.06,1.05-.14,2.22-.18,2.98-.19,1.92-.01,2.35-.13,2.76-.28l.39-.03c1.26-.02,3.34-.11,1.38.18-.35.05-.34.11-.5.17-1.08.07-2.17.14-3.25.21-.7.04-1.23.08-1.3.16l-1.21.07s.02-.06.15-.09Zm3.45-.33s.11,0,.22-.02c-.06,0-.12,0-.22.02Z"/><path d="m11.22,10.4c-.62-.07-2.78.21-2.78.06,0-.07.86-.21,1.23-.32.38-.11,2.04-.24,3.37-.31.6-.02,1.17-.04,1.76-.07.57-.03,1.28-.02,1.69-.1.44-.09-1.13.04-.85-.05-1.95,0-4.36.3-6.39.3-.64,0-.49.1-1,.14-.49.07,1.73,0-.09.14-.6.15-2.2.31-1.95.44.38-.01.87-.04,1.11-.04.61.02.61.2,2.15-.06.02,0,.57,0,.91,0,1.02-.03,1.98-.11,2.82-.22-.3-.12-1.42.09-1.99.08Z"/><path d="m5.77,10.24c-.51.02-.87.03-1.13,0-.66-.06-1.91-.05-2.88.07-.87.11-1.65.25-1.74.38-.17.23.93.24,3.36.05.59-.04,1.34-.04,2.01-.05.73-.13.44-.2-.36-.22-.81-.01-1.55.08-2.12.18-.21.04-1.18.14-1.1.05.07-.08-.5-.11-.14-.2.22-.05.32-.12.98-.16.68-.05.99-.02,1.07.03.09.05.19.08.95.03.74-.05,1.11-.1,1.1-.17Z"/><path d="m30.04,3.41c-1.71.02-3.3.21-5.09.29-.89.04-2.13.11-3.15.16-.84.03-1.44.06-1.82.15,1.45.09,3.59-.12,5.37-.21,2.65-.13,5.36-.35,7.94-.37l.21-.06c-.39-.03-1.74-.03.32-.15.67-.04,1.05-.12-.11-.08-1.22.09-2.1.27-3.67.26Z"/><path d="m115.94,1.31c.04.1.59.09,1.8-.17.45-.09.81-.17,1.15-.24.17-.04.33-.07.49-.11.08-.02.16-.05.21-.07.02-.03-.03.04.01.09,0,0-.02-.02-.06-.03-.67-.25-1.99-.15-2.69-.28-1.77.05-3.71-.05-5.57-.02-.63,0-.99.02-1.28.06,1.71.08,3.55.07,5.54.09,1.25.03,2.59,0,3.87.26.05.01.13.05.1.03,0,.01-.08-.08-.06-.14-.02-.07.05-.16.04-.15.04-.03,0,0-.02,0-.11.05-.26.09-.42.13-.31.08-.66.14-1,.21-.7.13-1.43.25-2.12.34Z"/><path d="m35.8,8.32l.89-.06h1.33s.56-.04.56-.04l1.83-.21c-1.09-.1-3.24.12-4.78.22-3.07.23-6.17.47-9.26.7l-.82.09c1.4.03,2.9-.05,4.51-.27,1.31-.13,2.7-.28,3.46-.17l.6-.05.42-.04s-.03-.04-.04-.05l-.13-.02h.29s1.14-.12,1.14-.12Z"/><path d="m26.23,5.23c1.18.03,2.35.06,3.54.04.94,0,1.84.03,2.54.1.63,0,.95.01,1.27.02,1.51.04,2.97.01,4.57.11.83.05,1.28-.04,1.53-.1-4.54-.15-9.08-.24-13.62-.24l.17.06Z"/><path d="m6.92,4.53c1.05-.14,2.22-.18,2.98-.19,1.92-.01,2.35-.13,2.76-.28-3.15.17-6.31.3-9.46.69-.76.1-1.24.07-1.87.18-.11.02-.23.05-.35.07-.07.02-.13.03-.26.09-.04,0-.22.23-.17.34,0,.16.25.29.22.26.05.02.12.04.15.04.29.04.53.04.77.05.46,0,.83-.02.91-.08h-.88s-.44-.03-.44-.03l-.23-.02c-.1-.04-.1.05-.35-.13-.08-.1-.07-.19.01-.29.09-.08.06-.04.1-.07.05-.02.08-.03.12-.04.07-.02.13-.03.19-.04l.36-.06.72-.08,1.44-.13,3.28-.27Z"/><path d="m57.4,6.35s.22.12-1.09.04c-.82-.05-1.53-.06-1.39.02,3.38.21,6.75.44,10.27.57l-.02-.04-.12-.04c-.07,0-.13,0-.21-.01-.59-.02-1.17-.03-1.34-.11-.11,0-.21-.01-.32-.02l-1.24-.1c-.19.05-.61.04-1.27-.04-.73-.05-1.49-.02-2.15-.11-.22-.03.11-.05.48-.04l.03-.02-.4-.08c-.72-.09-.79-.01-1.24-.03Z"/><path d="m13.05,4.02c1.26-.02,3.34-.11,1.38.18-.35.05-.34.11-.5.17.6-.03.4.02.44.05l.81-.06c-.25-.06.79-.15.81-.22l-.54.02s.12-.02.12-.02c.15,0,.29,0,.44,0,.72,0,.28.09.44.14.82.04,1.65,0,2.5-.14-1.43.03-1.84-.06-2.21-.15-.65-.02-.38-.09.22-.17.59-.08,1.23-.14,2.01-.14.93,0,1.8-.03,1.98-.17-2.08.1-4.19.28-6.25.34-.81.03-1.23.09-1.65.16Z"/><path d="m33.72,3.16c1.16-.04.78.04.11.08-2.05.12-.7.12-.32.15.35-.08.99-.07,1.49-.1-.06-.04.32-.12.62-.12,1.5.01,2.56-.18,3.87-.23.7-.09.73-.04.79,0,.71.02.88-.04,1.09-.09-.06,0-.17,0-.18,0-.3-.09-1.28-.05-2.36,0-1.48.08-2.51,0-4.05.1-.04,0-.2-.05-.3-.08l-1.61.02h-.85s-.09.1-.09.1c1.82-.07,1.93.02,1.79.15Z"/><path d="m55.84,1.88c.85-.04,1,.03,1.54.03.35,0,.7,0,.49.06-.16.04-.53.05-.86.07-.4.02-.91.03-1.18.06-.5.05-1.3.15-1.21.17.23.07.95-.04,1.46-.06.31,0,.6,0,.9,0,.39.04.74-.03,1.11-.05.62-.05,1.28-.12,1.09-.17-.72-.19,1.2-.27,2.92-.37-.21-.04-1.11.02-1.18-.04-1.41.1-2.75.09-4.17.16-1.02.05-.8.09-.91.14Z"/><path d="m39.48,2.94c-1.31.05-2.36.24-3.87.23-.3,0-.68.08-.62.12,2.62-.13,5.22-.26,7.84-.4,1.31-.07,2.69-.12,3.99-.15.79-.02,1.42-.06,2.11-.11.22-.14-.69-.13-1.89-.03-1.85.15-3.54.25-5.09.19l-.61.06c-.2.05-.38.11-1.08.09h-.79Z"/><path d="m6.92,4.53l-3.28.27-.03.07c.45-.04.84-.06.78-.01-.07.05-.52.09-.93.12-.15.05-.16.08-.16.12.81-.09,1.54-.15,1.64-.07,1.05-.05,2.13-.12,3.23-.22.04-.03.02-.06.15-.09.53-.14.96-.27-1.19-.13-.69.05-.26-.03-.21-.06Z"/><path d="m98.77,3.5l1.65-.2v-.03s-.09,0-.09,0h.09c.71-.03,1.06-.31,1.98-.2.14-.02.42-.06.4-.06-.31-.1,1.22-.27,1.74-.41-.09-.03-.46.01-.79.04-.43.1-1.12.14-1.73.21-.45.02-.72.19-.97.11-.27-.08-1.01.06-1.43.07-.71.13-1.04.13-1.29.09-.43.03-.95,0-1.2.12l-.18.07c.5-.02.76.01,1.47-.06.48-.02.3.03.35.06,2.2-.14-.28.15.02.18Z"/><path d="m64.01,6.51c.69.09,1.5.17,2.16.28,1.35.2,3.9.32,5,.25-1.01-.07-2.14-.14-1.42-.19-1.94-.15-3.89-.3-5.74-.33Z"/><path d="m98.75,3.32c2.2-.14-.28.15.02.18-.44.07-.89.13-.78.18-1.25.13-2.56.34-3.71.32-.06,0-.07,0-.05-.02,1.64-.26,1.76-.42,1.65-.56l1.05-.1c.5-.02.76.01,1.46-.06-.04.04-.05.08.35.06Zm-1.3.23c.27,0,.51-.06.43-.07-.17-.02.66-.18-.6-.06-.63.07-.57.09-.11.08.09.02.08.05.29.05Z"/><path d="m112.09.07c.39,0,.71.07,1.14.01.97-.12,1.06,0,1.38.04.29.01.66.05.86.04.78-.01,1.51-.03,2.08.08.46.09-.2.1-.67.13-.84.06-1.48.01-2.16-.06-.42-.04-1.13-.06-1.48-.03-1.19.1-1.71,0-2.42-.04l1.27-.18Zm4.61.18s-.14,0-.15,0c-.02,0,0,.02.01.03h.32c-.06-.01-.11-.02-.18-.03Z"/><path d="m49.43,6.13c-1.67-.06-3.42-.16-4.93-.11-.38.01-.91-.03-1.29-.07-.68-.06-1.14-.06-1.51-.01,1.41.15,3.12.16,4.72.19,2.07.05,4.01.23,6.1.25.3,0,.68.02.81,0-.42-.09-1.14-.14-1.97-.13-1,.01-1.47-.05-1.93-.12Z"/><path d="m5.77,10.24c0,.06-.37.12-1.1.17-.76.05-.86.01-.95-.03-.08-.04-.38-.07-1.07-.03-.66.04-.76.1-.98.16-.35.09.21.12.14.2-.08.09.89-.01,1.1-.05.57-.11,1.31-.19,2.12-.18.8.01,1.09.08.36.22.27,0,.55,0,.82-.05-.25-.13,1.35-.29,1.95-.44-.44,0-.84-.01-.87-.07l-1.53.11Z"/><path d="m104.21.31c-1.09-.06-2.18-.07-3.26.07-.64.12-2.6.14-2.94.28l.15.11c.72.02,1.36,0,1.95-.07.09-.02-.18-.05.26-.07l.13.06c.12,0,.25,0,.39,0,1.69-.06,1.34-.24,2.89-.3.35-.02.44-.05.43-.08Z"/><path d="m11.16,5.7l-.36-.06c-.78-.03-1.85,0-1.75-.13.03-.04-1.56-.16-2.56.02-.32.06-.82.08-1.49.08.03,0,.04.02.05.03l-.03.1c2.03.02,4.03.07,6.14-.04Z"/><path d="m30.57,5.76c.16-.09-.73-.12-1.46-.15-1.57-.05-3.39-.12-4.77-.08-.95.03-1.59.03-2.52.03-.56,0-.25.06-.3.09,1.98.03,3.9.09,5.98.05.9-.02,2.04.03,3.07.05Z"/><path d="m112.3,1.92l.76-.09c.4-.09.95-.2.85-.26-2.05.19-4.24.5-6.32.61-.84.04-1.09.2-1.84.31.05.05.85.01,1.03-.02,1.27-.22,2.32-.2,3.46-.34.72-.28,1.36-.11,2.05-.22Z"/><path d="m92.58.6l-.62.02c-.38.09-.37.08.28.09.29,0,.67,0,.73.03.22.07-.94.08-1.12.13l.87.04,1.36-.02,2.75-.2c-1.88-.05-1.84-.08.39-.27-.96-.15-1.68-.02-2.43.08-.73.04-1.09.23-2.22.1Z"/><path d="m62.11,1.62c-1.72.09-3.64.17-2.92.37.19.05-.47.12-1.09.17.2.11,1.07-.02,1.59-.03.37-.12.61-.25,2.59-.25.33,0,.86-.03.99-.07.14-.05-.27-.05-.7-.03h-.18s.16,0,.16,0l-.44-.15Z"/><path d="m94.29,3.99c-.06,0-.07,0-.05-.02-.19-.04-1.46.11-1.23,0-.34-.06-.82,0-1.3.11-.42.1-.79.2-1.44.14-.49.06-.85,0-1.3.1-.58.12-.09.14.41.15,1.67-.14,3.45-.2,4.92-.48Z"/><path d="m69.52,6.16c-.57-.03-1.96.1-2.37,0-.19-.04-1.94.22-2.9.35-.15.03-.26.05-.39.07v.1c1.48-.05,2.85-.29,4.31-.38l1.08-.1c.14-.01.23-.03.27-.04Z"/><path d="m57,6.09c.57.11,4.29.42,5.49.46,1.18.03.44-.08.68-.12-.75-.03-1.51-.04-2.22-.13-.15-.02-.68-.06-.71-.06-.96.05-2.17-.11-3.23-.15Z"/><path d="m11.22,10.4c.58,0,1.69-.2,1.99-.08.59.03,1.17-.05,1.75-.11.97-.16,2.51-.21,3.65-.33-.23-.04-.21-.12-1.43.02-.74.08-1.81.14-2.73.2l-.51.08h-.16s.64-.08.64-.08c-.76.02,1.57-.34-1.22-.07-.09.06.28.11-.83.19-.22.06-1.23.1-1.17.17Z"/><path d="m31.4,5.68s.12.04-.24.04c2.51.06,5.14.22,7.31.07l-.06-.04-1.64-.04c-1.79-.01-3.58-.02-5.38-.03Z"/><path d="m18.62,9.88c-1.14.13-2.69.17-3.65.33.14.11,1.04-.04,1.51-.06,1.79-.08,3.63-.22,5.43-.37-.38-.17-2.14.06-3.29.1Z"/><path d="m48.2,7.83c-1.29.09-2.73.24-3.61.17-.33-.03-.81.04-.88.1-.05.04.05.08-.49.14-.17.12.91.01,1.48-.03,1.29-.09,2.59-.19,3.89-.28-.11-.04.21-.11-.4-.1Z"/><path d="m54.75,6.94c.9-.04,1.84-.08,2.47-.23.41-.1.66-.08,1.03-.08,1.26-.01,2.49-.11,3.65-.31-1.17,0-2.62.13-4.04.26-1.04.09-2.08.19-3.11.28v.08Z"/><path d="m75.74,1.56c.29-.08,1.17-.21-.89-.08-1.07.07-1.57.02-2.13-.01-.28-.02-.1-.11-.96-.04-.69.05-.53.1-.4.15.13.04.19.09.29.14l4.09-.15Z"/><path d="m83.16,4.98c.13-.11.14-.21-1.63.01l-1.24.18-.78.07c-.33.06-.8.1-1.24.14l-.46.12c-.03.07.52,0,.95-.04,1.47-.16,2.94-.32,4.4-.47Z"/><path d="m92.73.91l-.87-.04c-1.17.05-2.4.16-3.4.07-.26-.02-1,.05-.95.06.21.04-1.41.11-.27.13,1.82-.08,3.81-.02,5.49-.21Z"/><path d="m82.73,4.68c.45-.07,1.11-.19,1.3-.2.77-.03.05.06-.21.12-.18.04.06.04.37.01.35-.03.73-.08.74-.11,0-.05-.11-.09-.17-.14-1.5.03-3.19.21-4.86.37l-.04.09s.03.02.02.03l.45-.04c1.08-.13,2.1-.25,2.42-.14Z"/><path d="m103.79.39c-1.55.06-1.21.24-2.89.3.86.07,1.74.12,2.88-.04.13-.03.21-.07.39-.08,2.73-.1.72-.12.08-.16-.07.02,0,.05-.48.06l.1-.06-.06-.03Z"/><path d="m66.69,1.39c.36.05,1.07.1,1.78,0,1.37-.18,3.87-.09,4.78-.32-2.23.07-4.41.17-6.56.31Z"/><path d="m32.88,2.9l1.61-.02h.84c0-.1.69-.12,1.36-.15,1.59,0,3.07-.08,4.46-.25-.14-.03-.57-.04-.86-.02-2.39.2-5.09.2-7.41.43Z"/><path d="m18.56,9.39c.09.11.37.18,1.94-.03,1.17-.15,2.66-.09,3.79-.28-1.72-.04-3.78.18-5.73.31Z"/><path d="m21.14,5.18c.55.11,1.64.19,2.83.27-.24-.11.38-.2,1.2-.28-.83-.06-1.58-.02-2.36,0-.42.09-1.09.02-1.68.01Z"/><path d="m36.34,8.78c-1.45-.04-4.43.19-6.22.46,1.78-.06,3.55-.24,5.33-.37.04-.07.48-.08.89-.09Z"/><path d="m119.3,1.12c-.48.13-.8.19-.78.24l.53-.09h.13s-.4.08-.4.08l-.33.02c-.49.09-.72.14-.75.19.38-.06.74-.11,1.1-.17.18-.03.36-.07.55-.11.09-.02.19-.05.29-.08.06-.02.1-.04.18-.08.02-.02.26-.09.23-.45-.02-.07-.05-.14-.1-.19-.04-.04-.05-.04-.07-.06-.04-.03-.1-.07-.13-.07-.06-.02-.13-.05-.17-.06-.11-.03-.2-.05-.3-.07-.19-.03-.39-.06-.58-.08-.39-.04-.79-.05-1.21-.06.07.07.46.11.95.18.24.03.51.07.78.12.14.03.27.05.41.11.07.05.15,0,.25.22.02.05,0,.11-.02.16-.02.04-.04.05-.06.07-.04.03-.07.04-.11.06-.13.06-.25.09-.37.13Z"/><path d="m46.82,2.3c1.89-.08,3.77-.16,5.37-.34-.64-.03-1.23-.03-2.18.07-1.2.13-2.69.13-4.02.22l.08.07c.24,0,.49-.01.74-.02Z"/><path d="m52.73,7.27c-1.68.15-2.58.36-2.02.47l1.65-.12c-.26-.06.96-.19.71-.25-.48,0-.29-.06-.34-.1Z"/><path d="m96.84.69l-2.75.2c1.39.02,2.77.02,4.07-.13l-.15-.11-1.17.03Z"/><path d="m95.88,3.41l1.05-.1.18-.07c-1.54.12-3.11.2-4.52.43.46.02,1.41-.04,1.59.02.29-.04.54-.07.79-.11.06-.05.1-.11.91-.18Z"/><path d="m54.75,6.94v-.08s-2.04.16-2.04.16c-.41.11-.38.19.02.24,1-.07.77.01.79.06.16.01.39.02.77-.02.45-.05.18-.06.1-.08-.32-.07-.92-.11.36-.29Z"/><path d="m113.18,2.13l-.02.07c1.4-.15,2.94-.24,4.1-.56-.22-.04.07-.2-1.46.14-.67.15-1.84.19-2.63.35Z"/><path d="m31.93,3.01l.09-.1c-1.6.02-3.03.15-4.51.27l.77.03c.82-.01.84.05.96.11.11,0,.22,0,.34-.01,0-.13.24-.25,2.35-.29Z"/><path d="m13.93,4.38c-1.08.07-2.17.14-3.25.21-.7.04-1.23.08-1.3.16,1.45-.01,3.06-.2,4.57-.26,0-.03,0-.07-.02-.1Z"/><path d="m28.29,3.2l-.77-.03c-1.18.02-2.4,0-3.35.2,1.06-.01,2.16-.05,3.35-.09.56-.02.75-.04.78-.08Z"/><path d="m87.28,4.62s-.06-.02-.14-.02c-.59,0,1.65-.29-.05-.16-1.23.09-2.01.27-1.89.38.72-.05,1.49-.06,2.09-.2Z"/><path d="m49.43,6.13c.46.07.93.13,1.93.12.83-.01,1.55.04,1.97.13.29,0,.66.03.77,0l-.71-.13c-1.28-.08-2.55-.1-3.83-.15l-.13.03Z"/><path d="m69.75,6.84c-.72.06.41.13,1.42.19.75.06,1.22.07,1.54.06v-.07c-.98-.05-1.94-.1-2.96-.18Z"/><path d="m16.14,5.6c-1.49.03-3.18-.01-4.5.1,1.5.07,3-.03,4.49-.03v-.07Z"/><path d="m81.99,1.33c-.23-.25-1.97.02-2.98.04.07.05-.22.13,1.01.05.62-.03,1.31-.06,1.97-.09Z"/><path d="m85.58,4.29c.15.04,0,.13.93.05,1.25-.11.49-.17,1.21-.28-1.01,0-1.43.15-2.14.23Z"/><path d="m40.41,8.02l-1.83.21c1.15-.07,1.23,0,1.4.06.1.04.37.05.92,0,.21-.02.53-.06.59-.08.18-.06-.27-.03-.62-.03-1.28.03,1.01-.21-.1-.2-.12,0-.24.01-.37.02Z"/><path d="m71.94,7.33c-.82-.02-1.91-.28-2.56-.15.34.12.34.12,2.56.15Z"/><path d="m74.09,5.43c-1.08.07-1.02-.02-1.27-.07-.85.07-1.78.1-2.46.24l.03.04c.61-.03,1.67-.16,1.77-.1.23.13,1.09,0,1.92-.11Z"/><path d="m76.59,5.02c-.51.16.73.07,1.33.08l.64-.12.49-.19c-.85.05-1.58.2-2.46.23Z"/><path d="m66.72,1.8v.1c.77,0,1.54,0,2.39-.07-.01-.05.28-.13-.87-.08-.87.04-1.26.03-1.24-.05-.38.04-.26.07-.29.1Z"/><path d="m25.17,5.16c-.82.08-1.44.17-1.2.28.84-.07,2.08-.11,2.25-.22l-.17-.06h-.89Z"/><path d="m48.2,7.83c.61-.01.29.06.4.1l1.23-.08c.18-.13.2-.25-1.66-.12l.03.11Z"/><path d="m46.07,2.33l-.08-.07c-.8.03-1.48.09-2.06.16.52.21,1.34.05,2.14-.09Z"/><path d="m47.07,5.65s-.09.04,0,.06c.22.06-.96.11.32.16,1.13.04.16-.08.32-.12.05-.01.42,0,.65,0-.27-.05-.52-.1-1.28-.1Z"/><path d="m21.14,5.18c.59.01,1.26.07,1.68-.01l-.9-.02c-.34,0-.63,0-.79-.03l-1.67.03.35.04h1.34Z"/><path d="m97.68,9.58s.03-.01,0-.02c-.14-.05.48-.04-.52-.15-.34-.04-.99-.04-.34.07l.86.1Z"/><path d="m15.99,4.15c-.02.07-1.06.16-.81.22l1.26-.08c-.15-.05.28-.14-.45-.14Z"/><path d="m7.3,10.13c.03.05.43.06.87.07,1.82-.14-.4-.07.09-.14-.08,0-.19,0-.32.01l-.55.04c-.11.01-.14.02-.09.02Z"/><path d="m70.1,6.07l-.82.1c.37.05,1.36-.07,1.99-.08l.04-.07-.04-.07c-.22.02-.39.03-.56.05-.06.04-.34.06-.61.07Z"/><path d="m60.93,1.58c.07.06.97,0,1.23.03l.65-.06-.53-.02c-.44,0-.89.01-1.36.05Z"/><path d="m98.32,3.12c.25.04.58.05,1.29-.09-.35,0-.5-.08-1.29.09Z"/><path d="m4.57,5.65l-1.3.04c-.06.09.66.07,1.3.05v-.09Z"/><path d="m102.02,2.85c.61-.06,1.31-.11,1.73-.21-.89.01-1.36.1-1.73.21Z"/><path d="m102.01,10.08c-.4-.07-.87-.12-1.4-.16.45.06.71.17,1.4.16Z"/><path d="m19.8,5.17l-.35-.04h-.82s.03.03.03.03c.37.04.75.04,1.14,0Z"/><path d="m64.68,6.11s0,.01-.05.02c.06,0,.12-.02.19-.02l.11-.09-.25.09Z"/><path d="m21.12,5.11c.16.03.45.03.79.03,0-.06-.26-.07-.79-.03Z"/><path d="m51.1,7.14s-.02.07.43.03c.33-.03.27-.05.02-.05l-.45.02Z"/><path d="m71.31,6.02l-.04.07c.42-.05.71-.1.84-.14l-.81.07Z"/><path d="m69.26,6.2l-1.08.1c.46,0,.82-.03,1.08-.1Z"/><path d="m13.95,4.38v.1c.27-.01.41-.03.42-.05-.04-.03.16-.08-.42-.05Z"/><path d="m100.5.69l-.13-.06c-.43.02-.17.05-.26.07.13,0,.26,0,.39,0Z"/><path d="m36.34,8.78c-.41.01-.85.02-.89.09.37-.02.75-.03.89-.09Z"/><path d="m49.56,6.1c1.28.05,2.55.07,3.83.15.45.02.64,0,.68-.02l.06-.09c-.71-.04-.94-.07-.68-.11.12-.02.29-.04-.18-.07-.27-.02-.86-.01-.86-.01.08.13-1.79.06-2.53.11-.15.01-.21.03-.32.04Z"/><path d="m76.28,7.58c.87.09,1.73.18,2.58.19-1.46-.12-.26-.13-1.28-.23l-1.64-.17c.21.08,1.07.2.34.21Z"/><path d="m32.31,5.37c-.69-.07-1.6-.09-2.54-.1.03.04-.1.08.12.11.31.04-.93.08.19.1.78.01.63-.04.54-.09-.04-.02-.04-.09.46-.02.92.14.73-.04,1.22,0Z"/><path d="m61.95,6.67l1.24.1c.16-.02,1.22,0,.29-.08-.99-.1-1.32-.06-1.53-.01Z"/><path d="m59,6.48c-.36,0-.69.01-.48.04.66.09,1.42.06,2.15.11-.06-.09-1.02-.11-1.68-.15Z"/><path d="m36.79,5.72l1.64.04c-.09-.06-.6-.1-1.26-.11-.51,0-.34.04-.38.07Z"/><path d="m18.62,5.27c-.11,0-.23,0-.35,0l-.05.06c.5,0,1.11,0,1.33-.05l-.93-.02Z"/><path d="m63.51,6.78c.17.08.75.09,1.34.11l-.04-.06c-.44-.02-.87-.03-1.3-.05Z"/><path d="m55.6,6.08c-.09,0-.17-.02-.26-.03l-.24.02c.11,0,.23.02.31.02.08,0,.12,0,.18-.01Z"/><path d="m33.58,5.39h-.96c.12,0,.21.04.37.04.46.02.46-.02.59-.04Z"/><path d="m58.64,6.38l.4.08c.62-.01.14-.05-.4-.08Z"/><path d="m64.81,6.83c.22.01.55.04.55.01,0,0-.16-.03-.24-.03-.38-.02-.27,0-.3.02Z"/><path d="m54.13,6.14l-.06.09c.53,0,.58-.03.06-.09Z"/><path d="m42.89,5.66s.07.02.13.02c0-.01-.07-.02-.13-.02Z"/><path d="m17.37,5.34l-.02.03.85-.04c-.27,0-.55,0-.83,0Z"/><path d="m57.39,6.35l-.09-.02s.07.01.09.02Z"/><path d="m65.05,6.9l.12.04c.36,0,.29-.01-.12-.04Z"/><path d="m47.41,7.75c.5-.09,1.27-.2.69-.24-.25-.02-.54-.03-1.06,0-.76.05-.84.11-.94.16.4.03.6.07.27.16-.15.04-.11.07.34.04.54-.04.62-.08.7-.12Z"/><path d="m12.39,10.23c1.1-.08.73-.13.83-.19-.41.02-.98.08-1.04.02-.03-.03-.43-.05-.79-.01-.37.04-.71.1-.84.14-.21.07.5,0,.73,0,.44,0,.76.03,1.13.05Z"/><path d="m33.52,8.59c-.76-.11-2.15.04-3.46.17.97.02,2.06,0,3.46-.17Z"/><path d="m34.54,8.5l-.42.04c-.07.01-.11.03-.22.04-.79.1-1.31.18-.49.2.21,0,.8-.02.7-.04-.24-.06,2.36-.28.43-.24Z"/><path d="m43.63,7.79l-1.19.07s-1,.19.06.14c.78-.04,1.32-.14,1.13-.21Z"/><path d="m38.02,8.26h-1.33s-.67.13-.07.13c.48,0,1-.06,1.39-.13Z"/><path d="m14.91,9.89c.24,0,.39,0,.53,0,.15,0,.3-.03.45-.05-.13,0-.24-.01-.39,0-.15,0-.32.03-.59.06Z"/><path d="m35.8,8.32l-1.14.11-.16.03.05.03c.51-.05,1.27-.09,1.25-.16Z"/><path d="m44.68,7.71c-.34,0-.68-.01-1.02.08l1.02-.08Z"/><path d="m17.39,9.56c.12,0,.18,0,.23-.02-.04,0-.09,0-.23.02Z"/><path d="m82.36.84c-.46.02-.99.03-1.26.09-.2.11-1.59.09-2.15.17-.21.03-.92-.05-1.22.04-.19.05.5.07.93.09.44.02.78.02,1.37-.04.75-.08,1.63-.14,2.31-.05.41.05,1.14-.02,1.57-.06.75-.07.14-.07-.3-.09-.69-.02-1.38-.05-1.25-.14Z"/><path d="m66.72,1.8s-.09-.06.29-.1c.09-.04,1.11-.09.6-.13-.18-.01-.58-.02-.84,0-.88.04-.29.08-.49.13-.11.02-.19.05-.35.07-.32.04-1.24.1-.89.13.4.03,1.07-.07,1.68-.09Z"/><path d="m69.72,1.55c.09,0,.17,0,.26,0l.24-.04c-.11,0-.23,0-.32,0-.08,0-.12.02-.18.03Z"/><path d="m90.19.61h.41c-.13,0-.28,0-.41,0Z"/><path d="m91.58,8.67c.08.03.1.06.66.1-.07-.03-.33-.06-.66-.1Z"/><path d="m108.37.18h-.84c0,.05.18.11-.07.13-.46.04-.87.06-.71.11.08.02.33,0,.43,0,.36-.05,1.58-.05,1.26-.14-.11-.03-.04-.07-.05-.1Z"/><path d="m110.82.25c-.26-.03-.28-.08-.87-.08-.08,0-.29.03-.27.04.12.05.69.04,1.14.04Z"/><path d="m119.3,1.12c.12-.04.24-.07.37-.13,0-.04.05-.05-.42.08l.05.04Z"/><path d="m103.85.42l-.1.06c.49,0,.42-.04.48-.06h-.39Z"/><path d="m105.87.28l.15.04c.4-.03-.01-.03-.15-.04Z"/><path d="m77.58,7.54c1.02.1-.18.11,1.28.23.53.04.91.05,1.19.05.59,0,1.32,0,.23-.14-1.71-.23-1.8-.1-2.7-.14Z"/><path d="m84.5,8.03c-.59-.04-1.54-.18-1.49-.09.01.03.25.1.92.14.65.04,1.61.09,1.65.06.08-.05-.78-.07-1.08-.11Z"/><path d="m83.84,8.16c.46.07.75.13,1.08.16.43.04,1.18.1,1.22.06.02-.02-.26-.07-.71-.11-.49-.03-.96-.06-1.59-.11Z"/><path d="m89.51,8.48c.05.02.05.04.48.08.13.01.21,0,.31,0l-.8-.07Z"/><path d="m82.21,7.92c.13,0,.05,0-.03-.01h.03Z"/><path d="m88.73,8.38l.19.02.19.02c-.12-.02-.25-.04-.37-.03Z"/><path d="m63,6.34c.09.05.52.04,1.12-.03.76-.09.45-.12.52-.17-.74.05-.76.17-1.64.2Z"/><path d="m53.52,7.33c-.03-.05.2-.13-.81-.06.07.04-.13.1.35.1l.46-.04Z"/><path d="m62.99,6.34h-.09s.06,0,.09,0Z"/><path d="m46.82,2.3l-.75.02c.13.02-.25.08.35.06.34-.01.42-.05.4-.08Z"/><path d="m36.69,2.74c-.68.03-1.37.06-1.36.14.5-.04,1.07-.08,1.36-.14Z"/><path d="m74.09,5.43c-.83.1-1.69.24-1.92.11-.1-.06-1.17.07-1.77.1.34.05.61.11,1.03.15.9.08,2.53-.04,3.86-.29.16-.03.25-.07.45-.09.76-.1.8-.22.04-.2q-.32,0-.49.1c-.08.04-.05.09-.63.14-.18.02-.37,0-.56-.02Z"/><path d="m80.31,4.82l-.45.04c-.78.19.46.19.43.31l1.24-.18c.11-.12-1.54-.03-1.22-.17Z"/><path d="m78.27,5.38c.45-.04.91-.07,1.24-.14-.01,0,0-.01-.04-.01-.56.01-.47-.11-1.14-.03-1,.12.13.1-.06.18Z"/><path d="m76.06,5.46c-.12.02-.26.04-.24.05.04.02.13.03.2.04.05-.01.15-.03.15-.04,0-.02-.06-.03-.11-.04Z"/><path d="m70.1,6.07c.27-.01.55-.03.61-.07-.26.02-.63.02-.61.07Z"/><path d="m71.27,5.96l.17-.03c-.07.01-.15.02-.17.03Z"/><path d="m96.84.69l1.17-.03c.35-.14,2.31-.16,2.94-.28-.07-.04.1-.11-.84-.08.4.05-.28.1-.71.13-.53.04-.78,0-.98-.04l-1.19.02c-2.23.19-2.27.22-.39.27Z"/><path d="m98.42.4c.2.03.45.07.98.04.43-.03,1.12-.08.71-.13-.64.02-1.44,0-1.69.1Z"/><path d="m92.58.6c1.13.13,1.48-.06,2.22-.1-.9-.04-1.57.03-2.22.1Z"/><path d="m90.18.61h.43c-.14-.04-.29-.04-.43,0Z"/><path d="m95.88,3.41c-.81.07-.85.13-.91.18.13.06-.3.08-.75.1-.25.09-.06.16-1.23.29-.23.11,1.04-.04,1.23,0,1.63-.26,1.75-.42,1.65-.56Z"/><path d="m82.74,4.68l-.52.06c.29,0,.37-.03.52-.06Z"/><path d="m3.32,4.99c.19-.05.24-.09.3-.12-.83.08-1.66.15-2.49.29-.09.02-.18.04-.26.07l-.07.03c-.05.04-.08.12-.04.17.05.07.08.06.09.07h.05c.12.03.19.03.25.02.1,0,.12-.03.13-.05-.11,0-.23-.02-.35-.04-.03-.01-.06-.01-.09-.03-.05-.02,0-.07.03-.07.05-.03.11-.04.17-.05.22-.05.42-.06.56-.06.57-.09,1.14-.16,1.71-.23Z"/><path d="m1.13,5.16c.83-.15,1.65-.21,2.48-.29l.03-.07-1.44.13-.72.08-.36.06c-.06.01-.12.02-.19.04-.03,0-.06.02-.12.04-.04.03-.01-.01-.1.07-.08.1-.09.19-.01.29-.07-.1-.06-.19.02-.28.09-.08.07-.04.11-.06.05-.02.08-.01.12-.01.07,0,.13,0,.19,0Z"/><path d="m3.32,4.99c-.57.07-1.15.14-1.71.22v.08c.57-.08,1.13-.14,1.69-.19l.02-.11Z"/><path d="m9.96,5.33s-.06-.07-.52-.07c-.21,0-.48.03-.72.05.3.04.78.02,1.24.02Z"/><path d="m1.61,5.22c-.13,0-.34.01-.56.06-.05.01-.11.02-.17.05-.02,0-.07.05-.03.07.03.02.06.02.09.03.12.02.23.03.35.04-.07-.01-.15-.03-.23-.05-.06-.02-.27-.04-.15-.07.2-.07.45-.1.69-.14Z"/><path d="m5,5.62s.39-.04.02-.06c-.04,0-.15,0-.19,0-.24.03-.1.04.17.05Z"/><path d="m112.3,1.92c-.69.1-1.33-.06-2.05.22-.1.16,1.39-.08,2.09-.12-.01-.03-.02-.06-.03-.1Z"/><path d="m103.7,2.89l.17-.02c-.05,0-.11.01-.17.02Z"/><path d="m112.33,2.02h.09s-.06,0-.09,0Z"/><path d="m17.37,5.34h.84s.05-.06.05-.06c-.59,0-.87.02-.89.06Z"/><path d="m31.93,3.01c-2.11.04-2.35.16-2.35.29l.46.12c1.57.01,2.46-.17,3.67-.26.14-.12.03-.22-1.79-.15Z"/><path d="m11.99,4.37h-.18s.08.02.18,0Z"/><path d="m16,4.15c-.14,0-.29,0-.44,0,0,0-.08.01-.12.02.18,0,.36-.01.55-.02Z"/><path d="m39.48,2.94h.79c-.06-.04-.1-.09-.79,0Z"/><path d="m3.62,4.87l-.15.11c.41-.04.86-.08.92-.12.07-.05-.33-.03-.77.01Z"/><path d="m98.4,3.25s-.05.08.35.06c-.05-.03.13-.09-.35-.06Z"/><path d="m100.42,3.27h-.09s.06,0,.09,0Z"/><path d="m97.16,3.5c.09.02.08.05.29.05.27,0,.51-.06.43-.07-.17-.02.66-.18-.6-.06l-.11.08Z"/><path d="m97.16,3.5l.11-.08c-.63.07-.57.09-.11.08Z"/><path d="m116.88.28c-.06,0-.11-.02-.18-.03,0,0-.14,0-.15,0-.02,0,0,.02.01.03h.32Z"/><path d="m62.55,1.77l-.16.02c.06,0,.12-.01.16-.02Z"/><path d="m14.43,10.1l-.64.07h.16c.17-.02.33-.04.48-.07Z"/><path d="m119.05,1.28l-.53.09s.15,0,.26,0l.27-.08Z"/><path d="m94.23,3.69c.45-.02.88-.05.75-.1l-.75.1Z"/>
                  </g>
                </mask>
              </defs>
              <path class="mask" d="m0,10.81c18.43-1.04,44.27-2.71,75.3-5.42,26.13-2.28,44.45-3.89,44.42-4.63C119.65-1.15.83,4.28.85,5.37c.01.61,36.78-1.66,89.51,3.25,8.85.82,16.44,1.69,22.33,2.42"
                    mask="url(#path-mask)" stroke="black" stroke-width="2" fill="none"
                    stroke-dasharray="351.3968200683594" stroke-dashoffset="351.3968200683594">
              </path>
            </svg>
        