
            <svg xmlns="http://www.w3.org/2000/svg">
              <defs>
                <mask id="path-mask">
                  <g fill="white">
                    <path d="m208.26,6.67c3.92.13,1.43-.05,2.22-.07l2.82.15c2.31.15,4.99.32,7.19.45,4.5.32,12.95.64,16.56.67,2.48.13,4.04.18,5.09.18,3.29.19,8.19.34,10.73.56.69.1,3.59.29,1.16.24-1.75-.04-3.65-.11-6.46-.28-2.32-.14-4.43-.24-5.74-.24l-2.18-.1c-2.7-.09-6.37-.44-8.48-.37-.85-.04-2.41-.11-2.44-.12-2.14.05-7.14-.23-11.46-.43l-.06-.04c1.19.03.94.01-.39-.05-.22,0-.44-.02-.68-.03l-.14-.06c.37.01.82.03,1.18.05.36.01.63.02.62,0,0,0-.53-.04-.8-.05-1.25-.05-.9-.02-1.03,0l-4.29-.15c-.35-.01-.7-.03-1.06-.04.53-.01,4.05.11.95-.06-3.27-.18-4.38-.17-5.06-.14-.62.03-2.02-.01-4.21-.14-.21-.09-3.37-.19-5.56-.29l.11-.02c2.06.04.45-.03-1.32-.11-2.4-.15-2.63-.08-4.14-.13l-.31-.02.35.02c-.14.04.76.14-3.61-.05-2.72-.12-5.06-.19-4.59-.09l-2.7-.09-2.37-.19c1.47.05,2.12.06,2.24.03,1.76.04,1.91.01.19-.08-2.34-.1-3.12-.15-2.28-.17.39,0,.94-.02-.61-.08-.45-.01-1.17-.04-1.78-.06-.6-.01-1.06-.02-1.08-.02.28.14-5.93-.09-8.35-.09-.49,0-.7.01-1.04.02l-.43.02c-5.54-.19-11.35-.44-16.34-.5-1.26-.02-3.02-.11-4.27-.17-2.25-.11-3.78-.15-5.01-.13l-10.67-.4-.19-.05c-.29-.07-2.01-.15-4.18-.21-1.68-.05-1.13.02-1.25.04-5.93-.15-11.86-.31-18.08-.47l.25.02c-.08.01.4.05-.78.02-.34.01-.46.04-1.98,0,.53-.07-2.43-.18-4.84-.26-5.2-.17-11.23-.38-15.79-.44-3.16-.06-5.28-.1-8.35-.16-1.86-.05-.83.04-.98.07l-17.87-.39.03-.07c1.18-.01.89-.06.32-.11-1-.1.52-.1,3.71-.03l2.82.03c1.68.03,3.7.09,4.45.05l-3.09-.09c-.39-.04-2.21-.11.15-.09,1.23.06,2.48.1,3.77.09l4.44.1c1.82.16,5.42.32,9.37.48,2.79,0,6.88.05,7.46-.05,3.9.12,7.79.24,11.74.31.09.04-.35.07.42.12,1.01.06-3.08,0,.63.11,2.57.07,2.07,0,1.79-.05-.13-.02-.14-.09,1.53.02,3.06.21,2.43.02,5.07.12.4.03.69.07,1.23.09,1.53.05,1.52.01,1.94,0,4.99.15,9.85.24,15.15.46,2.76.12,4.23.06,5.05.02l24.48.83s-.28.03-.01.06c.75.08-3.17.04,1.06.19,3.74.13.52-.07,1.06-.1.16,0,1.4.03,2.14.05,6.9.18,14.35.47,21.51.75,2.09.08,5.48.14,7.13.3,1.89.16,14.24.77,18.21.91Zm-23.69-1.08h-.78c.35.01.77.03,1.04.05.27,0,.39,0,.59,0-.29-.02-.57-.03-.85-.05Zm-40.68-1.37c-.15,0-.37-.02-.56-.02.03.01.24.02.56.02Z"/><path d="m99.9,6.97c-9.15.02-18.17.04-27.26.06-1.22-.19-7.09-.06-10.89-.08-.76-.06-.67-.13-4.73-.06-2.46.04-6.01.04-9.17.06-2.53-.02,5.26-.26-4.01-.13-1.36,0-3.27.03-3.46-.04-.1-.03-1.42-.07-2.62-.06-1.24.02-2.37.06-2.81.1-.72.06,1.65.03,2.4.04,1.46.04,2.5.07,3.72.11-.74.05-4.08.04-3.89.11-1.02-.05-3.33-.03-5.38-.02-1.02,0-1.98,0-2.69,0-.7,0-1.15-.02-1.15-.06,0-.04.73-.08,1.61-.12.88-.05,1.9-.1,2.53-.14,1.28-.1,6.81-.14,11.2-.14,1.98,0,3.86.02,5.83.02,1.9,0,4.23.05,5.62-.01,1.48-.07-3.76-.02-2.79-.1,3.02-.06,6.19-.09,9.69-.06.27.11,1.19.2,6.43.08,3.9-.09,8.82.06,12.59-.07h1.45s2.75.02,2.75.02c4.62.11,9.58.11,14.97-.01,3.2.08,6.81.12,11.47.04h1.98c-.24,0-.39,0-.72.02-2.63.05-4.37.1-1.67.17.71.02,2.65.03,2.32,0-.78-.08,7.85-.14,1.52-.23,1.7-.02,4.21-.01,4.17-.09h2.96c.1.03-2.26.08-.25.12,1.6.02,3.33,0,4.64-.04h1.87c3.84,0,4.08.08,4.62.15.32.04,1.22.07,3.05.07.68,0,1.75-.02,1.96-.04.6-.05-.88-.05-2.05-.06-4.23-.05,3.39-.15-.28-.2.91-.07,3.28-.08,5.5-.08l.03.05s-3.33.13.17.14c2.59.01,4.4-.06,3.88-.13h3.4s4.69.05,4.69.05c1.32.05,1.97.11.85.17-.51.03-.39.06,1.1.06,1.8,0,2.08-.04,2.35-.07l2.53.03.06.11c-4.27,0-9.09.07-11.95-.06-1.09-.05-2.67-.02-2.93.04-.19.04.15.08-1.66.11-7.41.12-15.04.15-22.87.11-4.77-.12-14.7-.08-20.65.09Zm-48.68-.17c.5,0,.99-.02,1.49-.03-.42,0-.81-.02-1.28-.03-.48,0-1.05.02-1.96.03.8.01,1.28.02,1.75.02Z"/><path d="m244.17,1.58c-3.56,0-5.21-.08-7.04-.16-.91-.04-.32-.11-3.16-.11-2.29,0-1.77.07-1.34.12.41.05.63.1.94.16l-8.4-.05c-.03-.05.95-.11-2.86-.14-2.88-.02-4.19-.06-4.09-.13.32-.04,3.68-.02,2.02-.09-.58-.03-1.91-.06-2.79-.06-2.93-.02-.98.06-1.63.09-.36.01-.63.03-1.17.05-1.05.02-4.13.02-2.98.07,1.33.06,3.54,0,5.56.03v.1c-7.97-.04-15.7-.13-23.32-.24,1.25-.1,2.06-.21,8.62-.08,1.08.02,2.83.03,3.28,0,.47-.04-.88-.06-2.37-.08-.48-.06-.97-.12-1.27-.18h2.17s-1.75-.07-1.75-.07c5.19-.03,10.03.03,14.59.15,1.19.08,3.51.17,5.9.12,4.56-.09,12.81.17,15.85,0,4.43.09,9.12.1,13.67.15-.19.12,3.31.17,6.23.16,2.6,0,4.15.02,6.1.07-.68.1-5.29-.02-7.12.03-.69.02-3.03-.11-4.05-.04-.63.04,1.65.1,3.06.15,1.44.05,2.57.07,4.56.05,2.5-.02,5.41-.03,7.65.1,1.34.08,3.77.05,5.19.04,2.49-.02.47-.07-.97-.11-2.29-.07-4.55-.14-4.12-.22l1.46-.02c2.56.16,7.52.16,11.72.22,1.63.02,5.39.01,4.29.13-.27.03,4.83.03,4.98,0,.31-.07,1.67-.05,3.52-.03l1.36.02c2.54,0,5.56-.01,4.51.11-1.28.06-1.23.06.92.11.95.02,2.21.06,2.42.08.72.08-3.11.02-3.72.06-3.87-.03-7.97,0-11.25-.16-.84-.04-3.31-.02-3.16,0,.68.06-4.67.02-.9.11-.16.03-.58.03-2.12.01-5.06-.07-10.14-.18-15.29-.17-.72-.26-6.51-.11-9.86-.16-3.88-.04-6.75.03-10.87-.03.96-.06,3.91-.13-2.95-.14Zm-16.12-.25l.79-.02c-.35,0-.75-.01-1.04-.02-.25,0-.39.01-.59.02.29,0,.57.02.84.02Z"/><path d="m339.57,13.62c4.88.25,10.81.67,15.31.87,3.96.32,10.05.61,14.75.91,1.34.08,1.85.11,2.81.16,2.95.14,3.69.03.44-.19-3.42-.23-4.49-.32-5.35-.42-.9-.1-2.58-.25-5.84-.37-.36-.02-1.7-.09-2.28-.12-5.6-.33-11-.65-16.52-.98-12.71-.75-25.43-1.51-38.15-2.27l.03.05c1.07.06,1.95.12,2.19.15,1.89.11,4.15.23,5.71.32,3.76.22,8.39.45,11.36.7,1.78.15,14.72.99,17.35,1.13.44.02.9.04.83.03-.63-.1,1.81.08,2.93.16,1.33.1,2.15.17,3.31.26.66.05,2.72.16,2.52.17-.12,0-1.31-.05-2.91-.14-3.34-.19-8.06-.48-8.5-.42Z"/><path d="m385.45,3.12c-3.33-.09-7.28-.2-9.47-.16.96.03,2.19.08,2.85.1,2.57.04,4.99.07,6.87.22,1.54.12-.63.09-2.2.09-2.77,0-4.9-.09-7.16-.2-1.4-.07-3.75-.14-4.9-.13-3.93.01-5.67-.11-8-.21-1.49-.03-3.38-.05-3.77-.12-.08-.01.61-.03.88-.02,1.96.04,2.02.09,2.88.14l4.2-.09c-2.76-.2-6.35-.18-9.73-.21.09.05-.13.09-2.58.05.04.03-.18.07.17.1,1.07.11-2.97.03-4.18.06-.33,0-1.16,0-1.41-.03-.51-.06.85-.06,2.37-.06.86,0,.22-.08.25-.12-1.34.03-5.15-.11-5.54-.02.49.02,1.84.05.52.05l-.48-.05c-1.94-.05-.76-.12-3.17-.16-.85-.01-1.54.05-2.31.07.03.03-.26.05-1.42.05.06.01.13.02.21.03l1.28.02c2.12.09,8.78.25-.27.15-.59,0-.87.03-1.29.05,3.9.06,7.98.07,11.51.23.43,0,5.67.05,9.16.08.96-.02,2.15,0,4.25.03,6.15.11,12.57.33,18.44.41,2.36.17,6.59.2,9.08.4.61.05,1.18.1,1.75.16.28.03.57.06.85.1.14.02.28.04.39.08.02,0,.05.06-.02-.05-.04-.04.03-.16.02-.15,0-.01.02-.02.03-.02h-.02c-.05.02-.12.04-.19.05-1.13.15-2.4.2-3.9.3-4.11.23-5.9.21-5.99.11l-6.78.17c.31.06-1.55.14-2.91.21,3.1.03,6.33.05-.24.26-.84.03-.29.04.55.04,2.65-.12,6.54-.1,8.78-.22,5.16-.28,4.13-.13,4.83-.08l1.44-.06c.13-.05.91-.09,2.55-.19.09-.03.42-.07.91-.12.25-.03.54-.06.88-.12.1-.04.14.02.33-.15.07-.21-.06-.22-.09-.25l-.09-.04s-.1-.03-.15-.04c-.19-.04-.38-.06-.58-.08l.11.07c-1.58-.16-1.32-.14-1.32-.18-3.08-.27-7.73-.41-8.21-.56Z"/><path d="m262.61,9.27c1.76.09,3,.13,3.93.15,1.95.05,4.35.12.72-.12-5.71-.38-5.97-.25-8.94-.37l-5.45-.31c-2.54-.22-7.44-.37-10.73-.56l-.06-.07c3.16.16,6.82.25,9.17.43,2.97.22,6.07.35,9.55.5,13.7.62,27.47,1.34,41.26,2.14.24.04.22.07-1.5-.02l-2.65-.15-1.37-.1c-.41-.03-.83-.06-1.24-.07-8.71-.45-9.93-.49-6.62-.21.1.01.13.01.19.02,7.7.35,9.73.65,17.26,1.06,3.13.17,7.29.41,8.12.54-2.05-.12-4.36-.19-5.04-.26-1.3-.15-3.45-.24-5.54-.36-7.48-.45-14.77-.82-22.46-1.2-10.94-.54-22.24-1.09-33.45-1.64-2.23-.1-5.78-.24-5.95-.33,1.31,0,3.42.1,5.74.24,2.81.17,4.71.24,6.46.28,2.88.16,5.77.33,8.58.41Zm13.73.51c.06.03.84.12,3.08.22,2.16.1,5.33.23,5.45.21.24-.05-2.57-.13-3.58-.2-1.97-.1-5.11-.31-4.95-.22Zm6.4.55c1.41.07,3.93.21,4.03.17.05-.02-.87-.09-2.37-.17-1.62-.07-3.19-.15-5.27-.24,1.54.11,2.5.17,3.61.25Zm-8.31-.6l-.82-.04.1.02c.61.02.64.03.72.03Z"/><path d="m173.73,6.76c3.4-.04,6.06-.04,9.9-.02,5.57.03,12.52-.03,18.84-.06,3.17-.02,6.56.02,9.52-.05l.03-.1c-.7-.04-2.5-.11-.36-.14,6.33-.07,5.48-.25,9.86-.34-2.33,0-4.4.04-6.23.08-.23,0-.44,0-.6.01-.24.05.75.1-1.78.13-1.99.02-3.41,0-3.69-.05h-.33s.3,0,.3,0c2.94.02,3.03-.09,5.46-.09.15,0,.21-.01.18-.02-2.79-.1-6.19.02-9.23.01-3.88.12-7.99.13-12.14.05-1.24-.02-2.05-.06-3.44,0-2.13.1-5.23.08-8.22.05-4.26.09-2.3.18-1.26.26.27.02,1.17.05-.34.07-1.28.02-2.03,0-2.56-.03h-1.52c.8.08-3.25.13-2.41.21Z"/><path d="m141.74.45c-2.7-.07-5.5-.13-9.22-.11-4.64.07-9.56.06-14.81-.05-.99.04-2.86.04-4.53.05l-2.78-.04c.33.03.84.1.97.1,5.09,0,8.5.15,13.41.16,3.57.01,6.83.03,7.8.15.03,0,.39,0,.59.01.67,0,1.35-.02,2.03-.02-.59-.13,3.01-.09,5.75-.07,9.02.07,18.09.13,27.25.2,5.52.07,5.82.05,3.18.16-.79.04-1.33.07-1.98.11,5.25.01,11.34.12,15.58.02-.99-.02-1.95-.03-2.97-.05-1.68-.02-4.11.04-4.84-.04-.3-.03,2.35-.07,4.03-.09.89,0,2.58,0,3.91.01,1.11,0,2.33.02,2.86-.01.7-.04-.46-.06-1.61-.09-1.81-.04-2.29-.12-5.1-.13-3.55-.1-7.45-.16-12.11-.16-5.33.07-11.56.03-17.82-.02.08.03-.2.06-1.33.05-2-.01-.72-.05-1.16-.08-2.64.08-5.38.19-7.07-.05Z"/><path d="m297.92,10.89l-1.37-.1-.62-.03-.62-.03c-8.71-.45-9.93-.49-6.62-.21.1.01.13.01.19.02,7.7.35,9.73.65,17.26,1.06,3.13.17,7.29.41,8.12.54,2.27.1,6.32.36,8.03.41-2.16-.17-.03-.11,1.11-.04,3.33.2,1.3.14,1.77.2.1.01,0,.01-.01.02,2.54.21,6.9.4,9.75.61,1.76.08,3.32.18,4.66.28.45-.06,5.17.24,8.51.42,1.6.09,2.79.15,2.91.14.2-.01-1.86-.12-2.52-.17-1.16-.09-1.98-.15-3.31-.26-1.11-.08-3.56-.26-2.93-.16.07.01-.39,0-.83-.03-2.63-.13-15.58-.98-17.35-1.13-2.97-.25-7.6-.48-11.36-.7-1.57-.09-3.82-.21-5.71-.32-1.83-.09-1.92-.12-2.19-.15l-.03-.05-2.7-.16c.24.04.22.07-1.5-.02-.34,0-.58,0-1.03-.03-1.43-.07-1.43-.1-1.62-.12Z"/><path d="m233.75,6.04l.09.04c1.11.08,1.98.15,3.37.23,2.96.15,8.38.16,12.81,0,.55-.02.83-.05,1.51-.07,2.52-.06,2.69-.17.18-.2q-1.05,0-1.64.07c-.28.04-.2.09-2.11.1-.58,0-1.23-.04-1.85-.06-3.59-.02-3.36-.1-4.17-.17,4.1-.03,8.29-.05,12.52-.08-1.74.12,2.4.12,4.37.16l2.13-.09,4.31-.07c.07,0,.08.02.05.03-2.63.15,1.45.22,1.33.34l-2.6.03s0-.01-.14-.01c-1.84-.02-1.5-.14-3.76-.1-3.33.06.39.11-.24.18l-1.55.09c-6.31.05-12.75.12-18.92.07h-2.68s-.11-.06-.11-.06l.57-.02-.74.02h-1.68c-.86,0-2.07-.02-2.04.03l-2.72.04h.38s.41,0,.41,0c-1.87-.07-6.51-.05-7.83-.17-.62-.06-6.48.07-9.66.14-.53.02-.87.03-1.29.04-.7-.04-2.5-.11-.36-.14,6.33-.07,5.48-.25,9.86-.34,4.22-.06,8.31-.07,12.22-.01Zm18.02.3c.12.02.42.03.65.05.18-.01.5-.02.51-.03.01-.02-.19-.03-.34-.05-.4.01-.86.03-.82.03Z"/><path d="m355.32,2.57c2.45.03,2.67,0,2.58-.05l-2.29-.05-1.77-.03c-4.4-.1-8.64-.2-13.31-.22-1.9,0-4.66-.05-6.93-.11-2.49-.07-7.21-.14-8.01-.14-8.46,0-16.64-.16-24.76-.31-2.98-.06-4.86-.02-7.31-.05l-37.44-.38c-1.34-.01-2.71-.04-3.49,0-.19.12,3.31.17,6.23.16,2.6,0,4.15.02,6.1.07.91-.04,2.66,0,4.19,0l1.46-.02c2.56.16,7.52.16,11.72.22,1.63.02,5.39.01,4.29.13-.27.03,4.83.03,4.98,0,.31-.07,1.67-.05,3.52-.03.45-.03.92-.02,1.39.02,2.51,0,5.53-.01,4.48.11.68,0,1.37.02,2.06.03,2.15-.03,4.37-.04,7.35.05,2.47-.05,4.87-.12,8.04.09l3.94.06c.86-.07,3.49,0,5.62.02,3.12.04,2.57.09,2.78.14,3.6-.07,7.2.02,10.8.16.77-.03,1.46-.08,2.31-.07,2.42.03,1.23.1,3.17.16.35-.09,4.16.05,5.5.02l2.8.05Z"/><path d="m289.85,6.13c1.93.04,4.05.06,6.92-.03-1.63-.04-3.24-.09-1.3-.17,1.52-.07,2.68.01,4.32-.02,2.15.09,3.38.01,4.81-.06,1.63-.08,3.22-.11,4.33-.03,3.88-.06,3.28-.14,3.98-.21-.58-.07-3.71-.07-5.23-.12-2.58-.05-6.01-.03-9.28.03-2.46.05-4.57.07-6.93.07-2.4.06.09.17-4.07.2-3.08.03-2.57-.06-3.06-.1l-2.74.03c.2.05.57.09.53.15-.01.02-.33.03-.8.04-.47,0-1.08.02-1.67.02-1.03,0-1.8,0-1.21-.03.87-.04,3.27-.1.73-.11-.64,0-2.86.08-4.36.12-.47.02-.72.05-1.69.03l1.72-.03c-1.04-.13-4.46-.07-8.05,0-1.1.12,4.36.13,3.97.25,5.9-.11,5.83-.02,5.38.08,2.37-.04,4.31.02,6.75-.04-.36-.12,2.27-.24,6.35-.26,5.66-.03-1.82.12.13.16.27,0,.32.02.47.03Z"/><path d="m9.88,1.22l2.23.05,4.31.05,1.58.02s-.08-.02-.13-.03c-.93-.03-1.4-.05-.6-.06.11,0,.5,0,.63,0,1.22.04-.07.04-.08.06,2.25.05,3.9.06,4.95.02,1.66-.05,3.81-.02,5.53.03.86.03,1.61.06,2.14.08.53.03.84.05.81.06-.34.12,3.22.18,5.79.26,3.25.02,6.47.04,9.77.07,1.44.01,4.22.08,3.43,0-.65-.07-3.67-.09-4.43-.12-2.36-.1-6.02-.01-7.34-.18-1.8-.04-3.93-.08-4.2-.15-1.52-.03-3.13-.05-4.11-.11-3.33-.07-6.68-.14-9.98-.21-3.27-.05-6.31-.09-9.37-.14-3.05-.06-6.14-.03-9.4-.29l-.02.07c1.61.15,3.31.14,4.15.23-.1.04-.16.09-2.64,0l1.17.14,5.8.15Z"/><path d="m376.04,5.12c-.84,0-1.39-.02-.55-.04,6.57-.21,3.34-.23.24-.26l-2.53.05.05.1h.32s-.3,0-.3,0c-2.3,0-7.3.16-6.91,0-3.82.07-7.28,0-11.53.14-.61.02-3.27.02-3.41-.04l-4.02.04c-1.75.1-6.83.19-5.85.31-.05,0-.87.03-1.34.04-2.99-.17-4.24.1-6.59.09.01.01.01.02,0,.03,6.89.11,8.53-.08,10.95-.22h.53s-.56,0-.56,0c.69,0,1.67,0,2.49,0,.41,0,.77,0,1.04,0,.27,0,.43,0,.45,0,.69.24,5.72.02,9.79-.05,4.25-.07,9.14-.19,12.89-.15,1.85,0,1.57.09,4.78.02l.08-.07Z"/><path d="m157.37,6.55l2.53.03c6.17,0,6.09.11,5.44.24,2.03.03,1.93-.03,2.92-.05-1.82-.15,1.2-.3,6.8-.34-1.29-.08-1.39-.16,0-.25-1.42-.08-2.6-.02-3.84.02.82.02,1.02.04-.08.05-1.52.01-1.27-.03-1.42-.06-3.26-.11-8.07-.01-11.54,0-5.69.02-11.89-.01-17.28.09l.03.05h3.95c1.24-.06,2.37-.03,3.49,0l4.69.06c.34-.05.63-.1,3.16-.1,1.71,0,2.68.03,3.49.06,1.9.08-.69.14-2.35.2Z"/><path d="m38.48,1.52c1.32.16,4.98.07,7.34.18.76.03,3.78.05,4.43.12.79.08-1.99.01-3.43,0-3.3-.02-6.52-.04-9.77-.07l1.18.08,1.58.03c4.39-.01,9.98.15,14.92.23,1.18-.01.89-.06.32-.11-1-.1.52-.1,3.71-.03l.06-.03s.99-.05,2.94,0c.4,0,.79.01,1.17.02-.39-.04-2.21-.11.15-.09l-.11-.04c-7.8-.19-15.59-.39-23.44-.49,1.26.1,3.57.22-1.05.19Z"/><path d="m76.19.13c-1.62,0-1.47-.14-4.35-.05-2.16.07-4.2-.04-6.34-.02-.61.13-3.52.1-6.58.04-2.59-.05-4.73-.03-6.69.01-2.03.04-2.92.1-.78.16,2.88.01,5.53.06,8.62.04,9.63-.06,10.69-.06,18.41.07.18,0,.55,0,.6,0,3.93-.11,9.91.09,13.92,0-.38-.06-.43-.13-3.14-.17-.09.04-.73.05-2.59.03-3.92-.04-7.58-.08-11.08-.12Z"/><path d="m38.48,1.52c4.62.03,2.3-.09,1.05-.19-3.04-.1-5.07-.2-9.43-.18-3.14.01-9.41-.18-14.44-.26-3.38-.07-6.84-.13-10.31-.2l-2.6-.09c-.43-.02-.87-.04-1.27-.09h-.05s.06,0,.1.09c0,0,.06.14-.03.24-.11.08-.05.03-.07.05l.11-.02.31-.03.64-.03c1.72-.06,3.45-.08,5.15-.09,2.99-.02,4.98-.04,4.64-.13-.32-.09-2.74-.07-5.45-.01l-2.81.06-1.4.05-.7.04-.35.03-.16.02h-.03s-.03.03.02-.01c.04-.06,0-.1,0-.11-.08-.07.01-.01.01-.02,3.26.25,6.35.23,9.4.29,3.06.05,6.1.09,9.37.14,3.3.07,6.65.14,9.98.21.81,0,1.71-.02,2.4,0,1.52.03,1.66.08,1.71.11.27.07,2.4.11,4.2.15Z"/><path d="m344.57,5.36c-2.42.14-4.06.33-10.95.22l-5.51.1c-1.46.04-2.99.08-2.61.13,2.58.06,5.96-.04,8.79-.07,10.8-.12,21.6-.2,32.47-.42,2.9-.06,3.31-.1,4.42-.16-3.75-.04-8.64.07-12.89.15-4.07.07-9.1.29-9.79.05-.01,0-.18,0-.45,0-.27,0-.63,0-1.04,0-.81,0-1.78,0-2.45,0Z"/><path d="m169.39,1.1c.65-.04,1.19-.07,1.98-.11,2.64-.11,2.33-.08-3.18-.16-9.15-.07-18.22-.13-27.25-.2-2.74-.03-6.34-.06-5.75.07,5.12.16,10.71.17,16.87.14,3.97-.02,7,.03,6.23.16,3.99-.03,7.31.09,11.1.1Z"/><path d="m93,.39c-4.01.1-9.99-.11-13.92,0-.05,0-.41,0-.6,0-7.72-.13-8.78-.14-18.41-.07-3.09.02-5.74-.03-8.62-.04,1.22.11,2.56.22,7.3.29l3.47-.06c1.28-.07,3.25-.06,6.04-.04,3.4.01,7.52.03,10.46.04,5.94.04,11.22-.06,16.88.04l-1.5-.15c-.38,0-.75,0-1.11,0Z"/><path d="m23.51.47c1.78-.11,3.22-.22-3.9-.2-2.3,0-.85-.04-.68-.07,3.51-.08,7.38-.05,9.89,0,6.36.11,7.8.01,9.17-.11h1.3c4.18.05,11.05.09,4.53.26-1.18.03-1.15.09-1.68.14-3.6,0-7.21,0-10.8,0-2.33,0-4.08,0-4.32.08h-4.01c.15-.03.09-.06.5-.08Zm11.49-.11c.14,0,.38,0,.72,0-.2,0-.39,0-.72,0Z"/><path d="m37.17,7.09c-1.02-.05-3.33-.03-5.38-.02-1.02,0-1.98,0-2.69,0-.7,0-1.15-.02-1.15-.06,0-.04.73-.08,1.61-.12.88-.05,1.9-.1,2.53-.14,1.28-.1,6.81-.14,11.2-.14,1.98,0,3.86.02,5.83.02,1.9,0,4.23.05,5.62-.01,1.48-.07-3.76-.02-2.79-.1-6.46-.1-14.49.07-21.18-.03-2.11-.03-1.64.07-3.34.09-1.64.05,5.73.08-.32.13-2.03.12-7.35.2-6.54.34,1.25,0,2.88.01,3.69.02,2.02.05,1.98.23,7.14.04.05,0,1.86.03,3.01.04,3.36.02,6.56,0,9.38-.07-.96-.14-4.71.02-6.61-.02Z"/><path d="m19.16,6.66c-1.67,0-2.88-.02-3.75-.05-2.18-.09-6.3-.14-9.53-.07-2.89.07-5.5.17-5.82.29-.6.22,3.02.28,11.1.21,1.97-.02,4.43.03,6.66.05,2.45-.1,1.51-.18-1.14-.23-2.68-.05-5.14,0-7.05.08-.7.03-3.93.08-3.65,0,.24-.07-1.62-.13-.44-.21.72-.04,1.08-.1,3.27-.11,2.27-.01,3.26.03,3.52.08.28.05.61.09,3.14.08,1.22-.02,2.15-.03,2.77-.04.62-.02.93-.04.92-.08Z"/><path d="m95.62.55c-5.66-.1-10.95,0-16.88-.04-2.94-.01-7.06-.03-10.46-.04-2.79-.02-4.76-.03-6.04.04,4.77.18,11.91.11,17.8.13,8.8.04,17.79,0,26.35.15l.71-.04c-1.27-.06-5.74-.14,1.07-.13,2.23,0,3.49-.05-.35-.09-4.04,0-7,.13-12.2.02Z"/><path d="m385.42,4.44c.09.1,1.89.13,5.99-.11,1.51-.1,2.77-.15,3.9-.3.07-.01.14-.03.19-.04h.02s-.02,0-.03.01c0-.02-.06.11-.02.15.07.11.04.05.02.05-.11-.03-.26-.06-.39-.08-.28-.04-.56-.07-.85-.1-.57-.05-1.15-.1-1.75-.16-2.48-.2-6.72-.22-9.08-.4-5.88-.07-12.3-.3-18.44-.41-2.1-.04-3.29-.05-4.25-.03,5.65.2,11.77.32,18.36.48,4.2.1,8.47.21,13.04.48.99.07,2.08.12,3.14.27.06.01.13.02.18.04.03,0,.03.01.03,0-.05-.06-.14-.04-.08-.32.05-.09.1-.09.08-.09-.04.02-.21.05-.33.07-.27.04-.56.06-.84.09-.58.04-1.16.08-1.75.12-2.36.13-4.81.21-7.13.28Z"/><path d="m118.89,6.4h2.96s4.39.07,4.39.07c.62,0,1.25,0,1.87,0,2.03-.03,4.06-.06,6.08-.09-3.58-.17-10.73-.09-15.86-.08-10.2.05-20.5.1-30.75.15l-2.74.04c4.62.11,9.58.11,14.98-.01,4.37-.05,8.98-.13,11.47.04.66,0,1.32,0,1.98,0,.47,0,.94,0,1.41-.01-.02-.03-.08-.04-.13-.05-.14,0-.29-.02-.43-.02h.98s3.8-.03,3.8-.03Z"/><path d="m88.13,2.48c3.9.11,7.79.24,11.73.31,3.12.08,6.11.17,8.41.3,2.1.06,3.15.09,4.21.12,4.99.15,9.85.24,15.15.46,2.76.12,4.23.06,5.05.02-15.03-.51-30.06-.95-45.1-1.29l.55.07Z"/><path d="m18.93.19c3.51-.08,7.38-.05,9.89,0,6.36.11,7.8.01,9.17-.11C27.53.05,17.06-.03,6.6.21c-1.27.02-2.29.04-3.26.05-.49.01-.96.03-1.44.04l-.37.03c-.06,0-.13.01-.21.03l-.1.03s0-.01-.08.04c-.07.05-.13.16-.13.25,0,.16.05.16.11.25.19.12.12.06.17.08l.07.02c.28.04.52.05.78.07,2.85.13,7.19.23,7.73.12l-5.8-.15c-.8-.03-1.59-.06-2.39-.12-.1,0-.2-.02-.31-.04-.04-.01-.05,0-.12-.03-.04-.02-.08-.05-.1-.09-.02-.03-.05-.07,0-.19.02-.05.07-.08.1-.1h.02s.03-.02.03-.02c.09-.02.13-.03.18-.03.21-.02.41-.03.61-.04l1.19-.04,4.76-.08,10.88-.09Z"/><path d="m191.42,6.05c-.14.04.76.14-3.61-.05-2.72-.12-5.06-.19-4.59-.09,11.21.49,22.41.99,34.05,1.42l-.06-.04-.39-.05c-.22,0-.44-.02-.68-.03-1.95-.06-3.88-.13-4.45-.22-.35-.01-.7-.03-1.06-.04l-4.11-.2c-.62.03-2.02-.01-4.21-.14-2.42-.11-4.94-.14-7.13-.28-.73-.05.37-.04,1.57,0l.11-.02-1.32-.11c-2.4-.15-2.63-.08-4.1-.13Z"/><path d="m39.29.06c4.18.06,11.05.1,4.53.27-1.18.03-1.15.09-1.68.14,2,.01,1.33.05,1.45.08h2.67c-.83-.08,2.63-.11,2.72-.17l-1.79-.02c.13,0,.38-.01.39-.01.49,0,.97.02,1.44.03,2.37.05.92.11,1.42.17,2.7.09,5.45.1,8.3.02-4.74-.06-6.08-.17-7.3-.29-2.15-.06-1.25-.12.77-.16,1.96-.04,4.09-.06,6.69-.01,3.06.06,5.97.09,6.58-.04-6.89-.02-13.92-.04-20.73-.06-2.68-.03-4.1.01-5.48.06Z"/><path d="m107.81.53c3.84.04,2.58.09.35.09-6.81,0-2.34.07-1.07.13,1.17-.06,3.3,0,4.94,0-.18-.04,1.07-.1,2.08-.08,4.97.11,8.5,0,12.83.03,2.31-.04,2.44,0,2.62.05,2.34.07,2.93.02,3.61-.02-.21,0-.56,0-.59-.01-.97-.11-4.23-.14-7.8-.15-4.9-.01-8.32-.16-13.41-.16-.13,0-.64-.06-.97-.1l-5.32-.09-2.82-.05-.33.09c6.03.04,6.38.15,5.88.26Z"/><path d="m181.24.71c2.81.02,3.29.09,5.1.13,1.15.03,2.31.06,1.61.09-.54.03-1.75.02-2.86.01-1.33,0-3.02-.01-3.91-.01-1.68.02-4.33.06-4.03.09.74.08,3.16.02,4.84.04,1.03.02,1.98.03,2.97.05,1.29.06,2.47.02,3.69.02,2.05-.01,4.24-.04,3.64-.1-2.35-.24,4.01-.19,9.71-.17-.7-.05-3.66-.05-3.89-.12-4.68-.04-9.11-.08-13.84-.12-3.39-.02-2.65.04-3.04.08Z"/><path d="m126.93.69c-4.33-.03-7.86.08-12.83-.03-1-.02-2.26.03-2.08.08,8.69.04,17.33.08,26.01.12,4.35.04,8.92.08,13.24.11,2.61,0,4.72.02,7.01.03.77-.13-2.27-.17-6.23-.16-6.15.03-11.75.01-16.87-.14-.68,0-1.36.02-2.03.02-.68.04-1.26.09-3.6.02l-2.62-.05Z"/><path d="m18.93.19l-10.88.09-.11.07c1.48-.02,2.79-.02,2.56.03-.23.05-1.73.06-3.09.08-.5.04-.54.08-.57.11,2.71-.06,5.12-.08,5.45.01,3.48-.01,7.07-.02,10.73-.03.15-.03.09-.06.5-.08,1.78-.11,3.22-.22-3.9-.2-2.3,0-.85-.04-.68-.07Z"/><path d="m328.1,5.69l5.52-.1v-.03s-.29-.01-.29-.01h.29c2.35.02,3.6-.24,6.59-.08.47-.01,1.29-.04,1.34-.04-.98-.11,4.1-.2,5.85-.31-.29-.04-1.52-.02-2.61,0-1.44.07-3.74.08-5.78.11-1.5,0-2.44.14-3.25.06-.85-.09-3.35,0-4.74-.01-2.39.09-3.48.06-4.29.01-1.43,0-3.12-.05-4.01.05l-.61.06c1.67,0,2.5.06,4.85.03,1.6,0,.99.05,1.13.08,7.3-.01-.97.13.02.18Z"/><path d="m213.3,6.75c2.31.15,4.99.32,7.19.45,4.5.32,12.95.64,16.56.67-3.36-.15-7.1-.31-4.73-.31-6.45-.31-12.89-.62-19.01-.81Z"/><path d="m328.09,5.51c7.3-.01-.97.13.02.18-1.46.04-2.99.08-2.61.13-4.16.05-8.56.19-12.34.1-.18,0-.24-.01-.18-.02,5.47-.16,5.91-.31,5.61-.47l3.51-.04c1.67,0,2.5.06,4.85.03-.15.04-.2.07,1.13.08Zm-4.36.16c.88,0,1.71-.03,1.43-.05-.56-.03,2.24-.14-1.96-.09-2.09.04-1.92.06-.4.08.29.02.26.06.93.06Z"/><path d="m367.63,2.72c1.27.03,2.33.12,3.78.09,3.22-.05,3.52.06,4.56.14.96.03,2.19.08,2.85.1,2.57.04,4.99.07,6.87.22,1.54.12-.63.09-2.2.09-2.77,0-4.9-.09-7.16-.2-1.4-.07-3.75-.14-4.9-.13-3.93.01-5.67-.11-8-.21,1.39-.03,2.79-.06,4.2-.09Zm15.26.5s-.48,0-.51,0c-.06,0,.02.02.04.03l1.07.02c-.19-.01-.36-.02-.59-.04Z"/><path d="m165.01,5.19c-5.54-.19-11.35-.44-16.34-.5-1.26-.02-3.02-.11-4.27-.17-2.25-.11-3.78-.15-5.01-.13,4.67.26,10.33.4,15.63.56,6.87.21,13.29.55,20.22.74,1.01.03,2.24.07,2.7.06-1.4-.12-3.79-.23-6.54-.29-3.32-.07-4.88-.16-6.41-.28Z"/><path d="m19.16,6.66s-.3.06-.92.08c-.62,0-1.54.02-2.77.04-2.53.01-2.86-.03-3.14-.08-.26-.05-1.25-.09-3.52-.08-2.19.01-2.54.07-3.27.11-1.18.07.68.13.44.21-.28.08,2.95.03,3.65,0,1.91-.08,4.37-.13,7.05-.08,2.65.05,3.59.14,1.14.23.91.02,1.82.03,2.73,0-.8-.15,4.52-.23,6.55-.34-1.44-.03-2.76-.06-2.85-.11l-5.09.03Z"/><path d="m341.54,2.41c-3.6-.14-7.2-.22-10.8-.16-2.11.07-8.61-.04-9.77.08l.48.12c2.37.07,4.52.09,6.47.07.31-.02-.58-.06.86-.05l.44.07c.4,0,.83.01,1.3.02,5.59.06,4.47-.14,9.61-.1,1.16,0,1.45-.02,1.42-.05Z"/><path d="m38.23,1.84l-1.18-.08c-2.57-.08-6.13-.14-5.79-.26.03,0-.28-.03-.81-.06-.53-.02-1.29-.05-2.14-.08-1.72-.05-3.87-.08-5.53-.03-1.05.03-2.7.02-4.95-.02.1.01.14.02.18.03l-.11.1c6.71.16,13.34.36,20.34.4Z"/><path d="m102.53,3.34c.53-.07-2.43-.18-4.84-.26-5.2-.17-11.23-.38-15.79-.44-3.16-.06-5.28-.1-8.35-.16-1.86-.05-.83.04-.98.07,6.55.18,12.91.38,19.8.5,2.98.05,6.75.19,10.16.29Z"/><path d="m373.2,4.87l2.53-.05c1.35-.07,3.22-.15,2.91-.21-6.83.09-14.14.28-21.06.27-2.79,0-3.65.14-6.16.21.13.05,2.8.06,3.41.04,4.25-.15,7.71-.07,11.53-.14,2.46-.24,4.54-.04,6.84-.11Z"/><path d="m303.01,1.9c-.69,0-1.38-.02-2.06-.03-1.27.06-1.23.06.93.11.95.02,2.21.06,2.42.08.72.08-3.11.02-3.72.06l2.88.1,4.5.08h9.13c-6.22-.2-6.09-.22,1.31-.26-3.16-.21-5.57-.14-8.04-.09-2.43-.02-3.62.15-7.35-.05Z"/><path d="m202.01.87c-5.7-.02-12.06-.07-9.71.17.61.06-1.58.09-3.64.1.64.12,3.54.05,5.27.07,1.25-.1,2.06-.21,8.62-.08,1.08.02,2.83.03,3.28,0,.47-.04-.88-.06-2.3-.08h-.61s.55,0,.55,0l-1.45-.18Z"/><path d="m313.16,5.92c-.18,0-.24-.01-.17-.02-.6-.05-4.85.02-4.06-.07-1.1-.08-2.7-.05-4.32.03-1.43.07-2.66.15-4.81.06-1.64.04-2.8-.04-4.32.02-1.93.08-.33.13,1.3.17,5.55-.04,11.43,0,16.39-.19Z"/><path d="m230.81,6.53c-1.87-.07-6.51-.05-7.83-.17-.62-.06-6.48.07-9.66.14-.53.02-.87.03-1.29.04l-.03.1c4.91.06,9.49-.08,14.34-.06l3.58-.03c.47,0,.76-.01.89-.02Z"/><path d="m190.05,5.76c1.89.16,14.24.77,18.21.91,3.92.13,1.43-.05,2.22-.07-2.49-.09-5-.16-7.37-.32-.51-.03-2.25-.11-2.36-.12-3.18-.03-7.2-.29-10.7-.41Z"/><path d="m37.17,7.09c1.9.04,5.65-.11,6.61.02,1.95.06,3.89.01,5.82-.02,3.23-.11,8.35-.07,12.14-.14-.76-.06-.67-.13-4.73-.06-2.46.02-6.01.04-9.07.06l-1.69.05-.54-.02,2.13-.03c-2.53-.02,5.26-.26-4.01-.13-.32.06.89.13-2.77.15-.74.05-4.08.04-3.89.11Z"/><path d="m105.29,3.33c-.08.01.4.05-.78.02,8.3.25,17.03.62,24.23.64l-.19-.05-5.43-.17c-5.93-.15-11.86-.3-17.83-.45Z"/><path d="m61.75,6.96c-3.8.07-8.91.03-12.14.14.44.11,3.45.01,5,.02,5.93.02,12.05-.03,18.03-.08-1.22-.19-7.09-.06-10.89-.08Z"/><path d="m159.96,6.69c-4.27,0-9.09.07-11.95-.06-1.09-.05-2.67-.02-2.93.04-.19.04.15.08-1.66.11-.58.11,3.01.07,4.9.07,4.28,0,8.61-.02,12.93-.03-.35-.04.74-.1-1.3-.13Z"/><path d="m181.82,6.24c2.98.02,6.08.05,8.22-.05,1.39-.07,2.2-.03,3.44,0,4.16.08,8.26.07,12.14-.05-3.87-.09-8.69-.05-13.4-.03-3.47.02-6.91.04-10.36.07l-.04.08Z"/><path d="m247.12,1.72c.96-.06,3.91-.13-2.95-.14-3.56,0-5.21-.08-7.04-.16-.91-.04-.32-.11-3.16-.11-2.29,0-1.77.07-1.34.12.41.05.63.1.94.16l13.55.13Z"/><path d="m276.16,6.25c.45-.11.51-.2-5.38-.08l-4.13.1-2.6.03c-1.11.05-2.65.05-4.15.06l-1.55.09c-.13.07,1.7.04,3.14.01,4.9-.07,9.78-.14,14.67-.21Z"/><path d="m303.46,2.22l-2.88-.1c-3.87-.03-7.97,0-11.25-.16-.84-.04-3.31-.02-3.16,0,.68.06-4.67.02-.9.11,6.03.04,12.61.24,18.2.16Z"/><path d="m274.82,5.92c1.5-.04,3.72-.12,4.36-.12,2.54.01.14.07-.73.11-.59.03.18.04,1.21.03.59,0,1.2-.02,1.67-.02.47-.01.79-.03.8-.04.04-.05-.33-.1-.53-.15-4.95-.05-10.57.02-16.16.08l-.17.09c.07,0,.08.02.05.03h1.49c3.59-.08,7.01-.14,8.01,0Z"/><path d="m340.12,2.46c-5.14-.04-4.01.16-9.61.1,2.86.12,5.77.24,9.54.16.42-.02.7-.05,1.29-.05,9.05.09,2.39-.07.27-.15-.22.02.02.06-1.6.03l.32-.05c-.08-.01-.15-.02-.21-.03Z"/><path d="m217.2.94c1.19.08,3.51.17,5.9.12,4.56-.09,12.81.17,15.85,0-7.39-.08-14.64-.12-21.74-.13Z"/><path d="m105.08.22l5.32.09,2.78.04s.56-.06,1.42-.06c.85,0,1.99,0,3.11.01,5.25.11,10.17.12,14.81.05-.44-.04-1.87-.08-2.84-.08-7.95.04-16.88-.14-24.6-.05Z"/><path d="m61.64,6.47c.27.11,1.19.2,6.43.08,3.9-.09,8.82.06,12.59-.07-5.67-.14-12.55-.03-19.01,0Z"/><path d="m71.3,2.04c1.82.16,5.42.32,9.37.48-.78-.13,1.27-.17,3.98-.19-2.76-.13-5.25-.14-7.8-.18-1.38.06-3.6-.06-5.55-.11Z"/><path d="m120.55,6.88c-4.77-.12-14.7-.08-20.65.09,5.88.05,11.8-.03,17.7-.05.15-.07,1.59-.05,2.95-.04Z"/><path d="m394.86,3.78c.2.02.39.04.58.08.05,0,.1.02.15.03l.09.03s.05.03.08.06c.01.02.02.03.03.06,0,.04,0,.09-.02.13-.12.14-.15.09-.2.13l-.13.03c-.34.06-.62.09-.85.12-.47.05-.73.08-.71.1.6-.05,1.13-.03,1.81-.2.02,0,.05-.01.11-.07l.03-.03s.05-.08.05-.13c0-.13-.03-.14-.05-.18-.03-.04-.07-.07-.09-.09l-.04-.02-.07-.03c-.08-.03-.15-.05-.21-.07.06.01.12.02.18.04.03,0,.07.02.12.04.02.01.04,0,.12.08.03.03.05.07.07.1.03.06.01.19-.03.26-.11.12-.16.12-.2.14l-.1.03-.18.03c-.23.04-.44.06-.66.08l-1.08.04c-1.64.1-2.41.14-2.55.19,1.25-.05,2.45-.09,3.66-.19.32-.04.55-.02.99-.16,0,0,.04-.02.08-.05.04-.05.06,0,.12-.18.02-.07,0-.17,0-.2-.01-.03-.03-.05-.05-.08-.03-.05-.11-.11-.12-.11-.07-.04-.14-.06-.17-.07-.1-.03-.17-.04-.25-.05l-.46-.07c-.6-.07-1.2-.12-1.8-.16-2.4-.17-4.86-.27-7.63-.33.48.14,5.13.29,8.21.56.4.04.8.07,1.2.11Z"/><path d="m151.31.53c6.27.04,12.5.09,17.82.02-2.11-.07-4.08-.11-7.22-.07-3.98.05-8.92-.05-13.32-.05l.25.08c.81,0,1.64.02,2.47.03Z"/><path d="m175.06,6.43c-5.6.03-8.62.18-6.8.34h5.48c-.84-.09,3.21-.14,2.41-.21-1.59-.03-.93-.08-1.09-.12Z"/><path d="m317.09,2.29h-9.13c4.6.13,9.18.23,13.49.17l-.48-.12-3.88-.05Z"/><path d="m318.6,5.43l3.51-.04.61-.06c-5.11.03-10.31.02-15.05.17,1.52.05,4.66.04,5.24.12.98-.02,1.81-.04,2.65-.06.22-.05.35-.1,3.04-.13Z"/><path d="m181.82,6.24l.04-.08-6.8.02c-1.39.09-1.29.17,0,.25,3.31,0,2.53.06,2.6.12.53.03,1.28.05,2.56.03,1.5-.02.61-.05.34-.07-1.04-.09-3-.18,1.26-.26Z"/><path d="m376.04,5.12l-.08.07c4.65-.08,9.74-.09,13.68-.38-.69-.04.33-.19-4.83.08-2.24.12-6.13.1-8.78.22Z"/><path d="m101.93.26l.33-.09c-5.29-.09-10.07-.04-14.95-.02l2.55.08c2.71.04,2.76.11,3.14.17.37,0,.74,0,1.12,0,0-.06.21-.12,1.29-.15,1.08-.03,3.03-.03,6.52.02Z"/><path d="m42.14.47c-3.6,0-7.21,0-10.8,0-2.33,0-4.08,0-4.32.08,4.81.08,10.16,0,15.16.02.01-.03.02-.07-.03-.1Z"/><path d="m89.86.22l-2.55-.08c-3.9-.06-7.94-.15-11.12-.01,3.5.04,7.17.08,11.08.12,1.85.01,2.49.01,2.59-.03Z"/><path d="m289.85,6.13c-.15,0-.2-.02-.47-.03-1.95-.04,5.53-.19-.13-.16-4.08.02-6.7.15-6.35.26,2.39,0,4.94.03,6.94-.08Z"/><path d="m165.01,5.19c1.52.11,3.09.21,6.41.28,2.75.06,5.14.17,6.54.29.96.03,2.2.08,2.56.06-.79-.06-1.58-.13-2.37-.19-4.26-.15-8.47-.31-12.7-.46l-.43.02Z"/><path d="m232.31,7.56c-2.37,0,1.37.16,4.73.31,2.48.13,4.04.18,5.09.18l-.06-.07c-3.2-.14-6.39-.28-9.77-.43Z"/><path d="m54.74,2.1c-4.94-.08-10.52-.24-14.92-.23,4.96.18,9.93.19,14.89.3l.03-.07Z"/><path d="m267.84,1.91c-.72-.26-6.51-.11-9.86-.16.21.05-.76.11,3.32.12,2.03.01,4.35.03,6.53.04Z"/><path d="m284.34,5.7c.48.05-.03.13,3.06.1,4.16-.04,1.67-.14,4.07-.2-3.32-.07-4.76.07-7.12.1Z"/><path d="m134.19,6.38c-2.03.03-4.05.06-6.08.09,3.83,0,4.07.08,4.62.15.32.04,1.22.07,3.05.07.68,0,1.75-.02,1.96-.04.6-.05-.88-.05-2.05-.06-4.23-.05,3.39-.15-.28-.2-.38,0-.79,0-1.21,0Z"/><path d="m239.64,8.24c-2.7-.09-6.37-.44-8.48-.37q1.15.15,8.48.37Z"/><path d="m246.1,6.15c-3.59-.02-3.36-.1-4.17-.17-2.81,0-5.9-.04-8.18.06l.09.04c2.02.01,5.56-.03,5.89.03.73.15,3.6.08,6.38.04Z"/><path d="m254.45,5.9c-1.74.12,2.4.12,4.37.16l2.13-.09,1.68-.16c-2.81,0-5.28.11-8.18.09Z"/><path d="m217.25,1.35v.1c2.55.05,5.1.1,7.92.09-.03-.05.95-.11-2.86-.14-2.88-.02-4.19-.06-4.08-.13-1.26.01-.87.05-.98.08Z"/><path d="m84.65,2.34c-2.71.02-4.76.06-3.98.19,2.79,0,6.88.05,7.46-.05l-.55-.07-2.93-.07Z"/><path d="m159.96,6.69c2.03.03.95.08,1.3.13h4.09c.64-.12.73-.23-5.44-.23l.06.11Z"/><path d="m148.84.51l-.25-.08c-2.65-.02-4.91-.01-6.85.02,1.69.24,4.43.14,7.1.05Z"/><path d="m157.17,4.52s-.28.03-.01.06c.75.08-3.17.04,1.06.19,3.74.13.52-.07,1.06-.1.16,0,1.4.03,2.14.05-.91-.07-1.73-.14-4.24-.2Z"/><path d="m71.3,2.04c1.94.05,4.17.17,5.55.11l-2.99-.09c-1.13-.02-2.09-.05-2.62-.09l-5.54-.1,1.16.06,4.44.1Z"/><path d="m325.15,12.73s.11,0,.01-.02c-.47-.06,1.57,0-1.77-.2-1.14-.07-3.27-.13-1.11.04l2.86.17Z"/><path d="m48.99.38c-.09.06-3.55.09-2.72.17h4.18c-.5-.05.96-.12-1.46-.17Z"/><path d="m24.25,6.62c.09.05,1.41.08,2.85.11,6.04-.05-1.32-.09.32-.13-.26,0-.61-.01-1.05,0h-1.81c-.38.01-.48.02-.31.03Z"/><path d="m232.74,6.48l-2.72.04c1.21.07,4.52.04,6.58.07l.15-.07-.11-.07c-.74,0-1.3,0-1.85,0-.21.04-1.13.03-2.04.02Z"/><path d="m198.11.75c.23.06,3.2.06,4.07.11h2.17s-1.75-.07-1.75-.07c-1.44-.03-2.93-.05-4.5-.04Z"/><path d="m326.72,5.28c.81.05,1.9.08,4.29-.01-1.15-.02-1.61-.11-4.29.01Z"/><path d="m16.41,1.31l-4.31-.05c-.2.09,2.18.11,4.29.14v-.09Z"/><path d="m339,5.22c2.04-.03,4.34-.03,5.78-.11-2.94-.04-4.51.02-5.78.11Z"/><path d="m339.56,13.62c-1.34-.11-2.9-.2-4.66-.28,1.5.1,2.37.23,4.66.28Z"/><path d="m66.85,1.94l-1.16-.06-2.73-.06.11.04c1.23.06,2.48.1,3.77.09Z"/><path d="m214.85,6.12s-.03.01-.18.02c.2,0,.4,0,.63-.01.12-.02.25-.05.38-.08l-.83.07Z"/><path d="m71.24,1.98c.52.04,1.49.07,2.62.09.03-.06-.86-.09-2.62-.09Z"/><path d="m169.72,6.2c.15.03-.1.07,1.42.06,1.11,0,.9-.03.08-.05h-1.5Z"/><path d="m236.74,6.53l-.15.07c1.4-.02,2.38-.04,2.83-.08h-2.68Z"/><path d="m229.92,6.55l-3.58.03c1.5.04,2.71.03,3.58-.03Z"/><path d="m42.21.47l-.03.1c.91,0,1.38,0,1.42-.02-.12-.03.54-.07-1.39-.08Z"/><path d="m329.22,2.54l-.44-.07c-1.44,0-.55.03-.86.05.44,0,.87.01,1.3.02Z"/><path d="m120.55,6.88c-1.35-.01-2.8-.03-2.95.04,1.24,0,2.47.01,2.95-.04Z"/><path d="m165.44,5.17c4.23.15,8.44.31,12.7.46,1.48.05,2.13.06,2.25.03l.19-.08c-2.34-.1-3.12-.15-2.28-.17.39,0,.94-.02-.61-.08-.45-.01-1.17-.04-1.78-.06-.6-.01-1.06-.02-1.08-.02.28.14-5.93-.09-8.35-.09-.49,0-.7.01-1.04.02Z"/><path d="m254.03,8.86c2.88.16,5.77.33,8.58.41-4.84-.24-.88-.15-4.29-.34l-5.45-.31c.69.1,3.59.29,1.16.24Z"/><path d="m108.28,3.09c-2.3-.12-5.29-.21-8.41-.3.09.04-.35.07.42.12,1.01.06-3.08,0,.63.11,2.57.07,2.07,0,1.79-.05-.13-.02-.14-.09,1.53.02,3.06.21,2.43.02,4.03.09Z"/><path d="m206.51,6.75l4.11.2c.53-.01,4.05.11.95-.06-3.27-.18-4.38-.17-5.06-.14Z"/><path d="m196.74,6.32c-1.19-.03-2.29-.04-1.57,0,2.19.15,4.71.18,7.13.28-.21-.09-3.37-.19-5.56-.29Z"/><path d="m123.12,3.78l5.43.17c-.29-.07-2.01-.15-4.18-.21-1.68-.05-1.13.02-1.25.04Z"/><path d="m62.93,1.95c-.38,0-.77-.01-1.17-.02l-.16.06c1.65.03,3.68.09,4.42.05l-3.09-.09Z"/><path d="m211.68,6.99c.56.09,2.5.15,4.45.22l-.14-.06c-1.45-.05-2.88-.1-4.31-.15Z"/><path d="m185.43,5.64c-.29-.02-.57-.03-.85-.05h-.78c.35.01.77.03,1.04.05.27,0,.39,0,.59,0Z"/><path d="m112.48,3.2l-3.17-.09c.4.03.69.07,1.22.09,1.53.05,1.52.01,1.94,0Z"/><path d="m195.52,6.18l1.32.11c2.06.04.45-.03-1.32-.11Z"/><path d="m215.99,7.14c.37.01.82.03,1.18.05.36.01.63.02.62,0,0,0-.53-.04-.8-.05-1.25-.05-.9-.02-1,0Z"/><path d="m180.58,5.57l-.19.08c1.76.04,1.91.01.19-.08Z"/><path d="m143.34,4.2s.24.02.43.03c-.03-.01-.24-.02-.43-.03Z"/><path d="m58.82,1.93l-.06.03,2.82.03c-.9-.02-1.83-.04-2.76-.06Z"/><path d="m191.38,6.05l-.31-.02c.11,0,.23.02.31.02Z"/><path d="m216.81,7.23l.39.05c1.18.03.94.01-.39-.05Z"/><path d="m157.37,6.55c1.66-.06,4.25-.12,2.35-.2-.81-.03-1.79-.06-3.49-.06-2.53,0-2.82.05-3.16.1,1.32.05,1.97.11.85.17-.51.03-.39.06,1.1.06,1.8,0,2.08-.04,2.35-.07Z"/><path d="m41.06,6.98c3.66-.02,2.45-.09,2.77-.15-1.36,0-3.27.03-3.46-.04-.1-.03-1.42-.07-2.62-.06-1.24.02-2.37.06-2.81.1-.72.06,1.65.03,2.4.04,1.46.04,2.5.07,3.72.11Z"/><path d="m111.29,6.52c-2.49-.16-7.1-.08-11.47-.04,3.2.08,6.81.12,11.47.04Z"/><path d="m114.68,6.5c-.47,0-.94,0-1.41.01-.24.01-.39.02-.72.03-2.63.05-4.37.1-1.67.17.71.02,2.65.03,2.32,0-.78-.08,7.85-.14,1.48-.22Z"/><path d="m144.88,6.35h-3.95s-3.33.12.17.13c2.59.01,4.4-.06,3.78-.13Z"/><path d="m126.24,6.47l-4.39-.08c.1.04-2.26.09-.25.12,1.6.02,3.33,0,4.64-.04Z"/><path d="m49.47,6.77c.8.01,1.28.02,1.75.02.5,0,.99-.02,1.49-.03-.42,0-.81-.02-1.28-.03-.48,0-1.05.02-1.96.03Z"/><path d="m118.89,6.4l-3.8.04c-.18,0-.36.01-.55.02l.17.03c1.7-.02,4.21,0,4.17-.09Z"/><path d="m148.38,6.34c-1.12-.03-2.25-.06-3.4,0h3.4Z"/><path d="m57.73,6.57c.39,0,.58,0,.77,0-.14,0-.28,0-.77,0Z"/><path d="m269.13,1.44c-1.52,0-3.28-.04-4.19,0-.68.1-5.29-.02-7.12.03-.69.02-3.03-.11-4.05-.04-.63.04,1.65.1,3.06.15,1.44.05,2.57.07,4.56.05,2.5-.02,5.41-.03,7.65.1,1.34.08,3.77.05,5.19.04,2.49-.02.47-.07-.97-.11-2.29-.07-4.55-.14-4.12-.22Z"/><path d="m217.25,1.35c.11-.03-.28-.07.98-.08.32-.04,3.67-.02,2.02-.09-.58-.03-1.91-.06-2.79-.06-2.93-.02-.98.06-1.63.09-.36.01-.63.03-1.17.05-1.05.02-4.13.02-2.98.07,1.33.06,3.54,0,5.56.03Z"/><path d="m227.21,1.3c.29,0,.57.02.84.02l.79-.02c-.35,0-.75-.01-1.04-.02-.25,0-.39.01-.59.02Z"/><path d="m295.09,1.75l1.36.02c-.44,0-.91-.01-1.36-.02Z"/><path d="m304.78,11.27c.28.04.36.07,2.19.15-.25-.04-1.12-.09-2.19-.15Z"/><path d="m355.32,2.57l-2.8-.05s.61.12-.25.12c-1.52,0-2.87,0-2.37.06.25.03,1.08.03,1.41.03,1.21-.03,5.25.06,4.18-.06-.35-.04-.13-.07-.17-.1Z"/><path d="m363.43,2.82c-.86-.05-.91-.1-2.88-.14-.27,0-.96,0-.88.02.38.06,2.27.08,3.76.12Z"/><path d="m394.86,3.78c-.4-.04-.81-.07-1.2-.11,0,.03-.26.02,1.32.18l-.11-.07Z"/><path d="m340.33,2.49l-.32.05c1.62.03,1.38,0,1.6-.03l-1.28-.02Z"/><path d="m347.02,2.5l.48.05c1.32,0-.03-.03-.48-.05Z"/><path d="m258.32,8.93c3.41.19-.56.1,4.29.34,1.76.09,3.01.13,3.93.15,1.95.05,4.35.12.72-.12-5.71-.38-5.97-.25-8.94-.37Z"/><path d="m281.28,10c-1.97-.1-5.11-.31-4.95-.22.06.03.84.12,3.08.22,2.16.1,5.33.23,5.45.21.24-.05-2.57-.13-3.58-.2Z"/><path d="m279.12,10.08c1.54.11,2.5.17,3.61.25,1.41.07,3.93.21,4.03.17.05-.02-.87-.09-2.37-.17-1.62-.07-3.19-.15-5.27-.24Z"/><path d="m297.92,10.89c.18.03.19.05,1.62.12.45.02.69.02,1.03.03l-2.65-.15Z"/><path d="m273.7,9.7c.44.01.17,0-.1-.02l.1.02Z"/><path d="m295.31,10.73l.62.03.62.03c-.41-.03-.83-.06-1.24-.07Z"/><path d="m209.23,6.23c.29.06,1.71.07,3.69.05,2.53-.03,1.53-.09,1.78-.13-2.46,0-2.56.11-5.47.08Z"/><path d="m177.66,6.55c-.07-.05.71-.12-2.65-.12.21.04-.46.09,1.13.13h1.52Z"/><path d="m209.2,6.23h-.3c.11,0,.22,0,.3,0Z"/><path d="m151.31.53l-2.49-.03c.44.03-.84.07,1.16.08,1.14,0,1.41-.03,1.33-.05Z"/><path d="m117.71.3c-1.12,0-2.26,0-3.11-.01-.85,0-1.43.02-1.42.06,1.67,0,3.54-.01,4.53-.05Z"/><path d="m246.1,6.15c-2.78.04-5.65.11-6.38-.04-.33-.07-3.87-.02-5.89-.03,1.11.08,1.98.15,3.37.23,2.96.15,8.38.16,12.81,0,.55-.02.83-.05,1.51-.07,2.52-.06,2.69-.17.18-.2q-1.05,0-1.64.07c-.28.04-.2.09-2.11.1-.58,0-1.23-.04-1.85-.06Z"/><path d="m266.81,5.92h-1.49c-2.63.16,1.46.23,1.33.35l4.13-.1c.39-.11-5.07-.12-3.97-.25Z"/><path d="m259.9,6.36c1.49-.01,3.04-.02,4.15-.06-.04,0,0-.01-.14-.01-1.84-.02-1.5-.14-3.76-.1-3.33.06.39.11-.24.18Z"/><path d="m252.59,6.31c-.4.01-.86.03-.82.03.12.02.42.03.65.05.18-.01.5-.02.51-.03.01-.02-.19-.03-.34-.05Z"/><path d="m232.74,6.48c.91,0,1.83.01,2.04-.02-.86,0-2.07-.03-2.04.02Z"/><path d="m236.63,6.46l.57-.02c-.25,0-.49.01-.57.02Z"/><path d="m317.09,2.29l3.88.05c1.16-.12,7.65,0,9.77-.08-.21-.05.34-.1-2.78-.14,1.32.08-.94.08-2.38.08-1.75,0-2.58-.06-3.24-.1l-3.94-.06c-7.4.04-7.53.06-1.31.24Z"/><path d="m322.34,2.1c.66.04,1.49.1,3.24.1,1.43,0,3.7,0,2.38-.08-2.13-.03-4.76-.09-5.62-.02Z"/><path d="m303.01,1.9c3.73.21,4.92.04,7.35.05-2.98-.1-5.2-.08-7.35-.05Z"/><path d="m295.06,1.75l1.41.02c-.47-.04-.94-.04-1.41-.02Z"/><path d="m318.6,5.43c-2.7.03-2.83.08-3.04.13.41.06-1,.06-2.5.06-.84.08-.25.16-4.13.21-.79.09,3.45.02,4.06.07,5.47-.16,5.91-.31,5.61-.47Z"/><path d="m274.86,5.92l-1.72.03c.97.02,1.22-.01,1.72-.03Z"/><path d="m6.94.47c.66-.04.83-.07,1.01-.11-1.38.03-2.76.05-4.14.08-.69.02-1.38.04-2.07.08l-.26.02-.14.02h-.04s0,0-.04.03c-.04.02-.06.09-.05.12.01.04.06.08.1.09h.04c.19.05.36.05.53.07l1.03.05c2.48.09,2.54.03,2.64,0-1.47-.05-3.29-.07-4.15-.23-.08-.03-.08.01,0-.01l.17-.02.36-.03.71-.04,1.43-.05,2.86-.07Z"/><path d="m2.91.93l-1.03-.05c-.18-.02-.34-.02-.53-.06h-.04s-.08-.06-.1-.1c0-.03.01-.1.05-.12.04-.03.02-.01.04-.02h.04s.14-.04.14-.04l.26-.02c.69-.05,1.38-.06,2.06-.08l4.12-.08.11-.07-4.76.08-1.19.04c-.2.01-.4.02-.61.04-.06,0-.1,0-.18.03h-.03s-.02.02-.02.02c-.03.02-.07.05-.1.1-.05.12,0,.17,0,.19.02.04.06.07.1.09.07.03.08.02.12.03.11.02.21.03.31.04.8.06,1.59.09,2.39.12l-1.17-.14Z"/><path d="m6.94.47l-2.86.07-1.43.05-.71.04-.36.03-.17.02c-.08.02-.08-.02,0,.01l.02-.07h-.03s-.02-.01-.02-.01c.01,0,.03.01.04.03,0,0,.03.04,0,.1-.05.05-.03.02-.03.03h.03s.16-.03.16-.03l.35-.03.7-.04,1.4-.05,2.81-.06.1-.11Z"/><path d="m34.28,1.37c-.05-.03-.19-.08-1.71-.11-.69-.02-1.59,0-2.4,0,.98.06,2.59.08,4.11.11Z"/><path d="m1.41.69c.86.16,2.68.18,4.15.23-.84-.08-2.54-.08-4.15-.23Z"/><path d="m17.81,1.3s1.3-.01.08-.06c-.13,0-.52,0-.63,0-.79,0-.33.03.55.06Z"/><path d="m373.2,4.87c-2.31.07-4.38-.13-6.84.11-.38.15,4.61,0,6.91,0-.03-.03-.05-.07-.07-.1Z"/><path d="m344.53,5.36h.56c-.17,0-.35,0-.56,0Z"/><path d="m373.27,4.97h.3c-.11,0-.21,0-.3,0Z"/><path d="m58.82,1.93l2.78.06.16-.06c-1.95-.05-2.89-.05-2.94,0Z"/><path d="m101.93.26c-3.49-.05-5.44-.05-6.52-.02-1.08.03-1.29.09-1.29.15l1.5.15c5.2.12,8.16-.01,12.2-.02.5-.11.15-.22-5.88-.26Z"/><path d="m35.72.35h-.59s.25.01.59,0Z"/><path d="m115.09,6.43h-.98c.14,0,.29,0,.43.02.18,0,.37-.01.55-.02Z"/><path d="m49.04.38c-.48,0-.95-.02-1.44-.03-.01,0-.26,0-.39.01.6,0,1.19.01,1.83.02Z"/><path d="m126.93.69l2.62.05c-.18-.04-.3-.09-2.62-.05Z"/><path d="m7.95.36c-.18.04-.36.07-.54.11,1.35-.02,2.86-.03,3.08-.08.23-.05-1.08-.04-2.55-.03Z"/><path d="m326.95,5.42c-.15.04-.2.07,1.13.08-.15-.03.47-.08-1.13-.08Z"/><path d="m333.61,5.55h-.29c.1,0,.2,0,.29,0Z"/><path d="m322.79,5.6c.29.02.26.06.93.06.88,0,1.71-.03,1.43-.05-.56-.03,2.24-.14-1.97-.09-.14.03-.27.05-.4.08Z"/><path d="m322.79,5.6c.13-.03.26-.05.4-.08-2.09.04-1.92.06-.4.08Z"/><path d="m383.49,3.26c-.19-.01-.36-.02-.59-.04-.03,0-.48,0-.51,0-.06,0,.02.02.04.03l1.07.02Z"/><path d="m203.46,1.04h-.55c.2,0,.41,0,.55,0Z"/><path d="m47.85,6.96l-2.13.03.54.02c.56-.02,1.13-.04,1.6-.05Z"/><path d="m394.71,4.53c.22-.02.44-.04.66-.08l.18-.03.1-.03s.09-.02.2-.14c.05-.06.06-.19.03-.26-.02-.03-.04-.07-.07-.1-.07-.07-.1-.07-.12-.08-.05-.02-.09-.04-.12-.04-.07-.02-.12-.03-.18-.04.07.02.14.04.21.07l.07.03.04.02s.07.05.09.09c.02.04.05.05.05.18,0,.05-.03.1-.05.13l-.03.03c-.06.05-.09.06-.11.07-.38.13-.65.13-.97.18Z"/><path d="m395.67,4.35c-.68.17-1.21.15-1.81.2.13.01.48,0,.84-.02.32-.05.58-.06.97-.18Z"/><path d="m313.05,5.61c1.5,0,2.91,0,2.5-.06l-2.5.06Z"/>
                  </g>
                </mask>
              </defs>
              <path class="mask" d="m0,6.95c61.04.15,146.58.12,249.1-.75,86.33-.73,146.84-1.24,146.54-2.12C394.86,1.86.95-.58,1.32.69c.2.71,121.94.78,298.74,10.38,29.68,1.61,55.16,3.18,74.96,4.46"
                    mask="url(#path-mask)" stroke="black" stroke-width="2" fill="none"
                    stroke-dasharray="1164.1358642578125" stroke-dashoffset="1164.1358642578125">
              </path>
            </svg>
        