
            <svg xmlns="http://www.w3.org/2000/svg">
              <defs>
                <mask id="path-mask">
                  <g fill="white">
                    <path d="m164.65,8.86c-4.06-.02-1.48.1-2.29.15l-2.92-.08c-2.39-.09-5.17-.19-7.45-.28-4.67-.21-13.42-.25-17.17-.11-2.57-.04-4.19-.03-5.27.01-3.41-.08-8.49-.01-11.13-.14-.72-.08-3.72-.16-1.21-.23,1.81-.04,3.79-.06,6.7.01,2.41.06,4.59.07,5.95.01l2.26.02c2.8-.02,6.61.24,8.79.07.88.01,2.5.04,2.53.04,2.21-.15,7.4-.01,11.88.07l.07.05c-1.23,0-.98.02.41.04.22,0,.46,0,.7,0l.14.07c-.38,0-.85,0-1.23-.01-.37,0-.65,0-.64.01,0,0,.55.03.83.03,1.29.02.93-.01,1.07-.03l4.44.03c.36,0,.73,0,1.1.01-.55.03-4.19.01-.98.1,3.4.1,4.54.05,5.24,0,.64-.06,2.09-.05,4.37.03.22.1,3.5.13,5.77.18l-.11.03c-2.14.02-.47.05,1.37.09,2.49.11,2.72.02,4.29.05l.32.02-.36-.02c.15-.06-.79-.15,3.74-.04,2.82.07,5.24.1,4.75,0l2.8.05,2.45.17c-1.52-.03-2.2-.02-2.32.01-1.83,0-1.98.03-.2.1,2.43.06,3.23.11,2.36.15-.41.02-.98.04.63.08.47,0,1.21.02,1.84.03.63,0,1.12,0,1.12,0-.29-.16,6.15-.02,8.65-.04.51,0,.73-.02,1.08-.04l.44-.03c5.74.14,11.76.35,16.92.38,1.3,0,3.13.1,4.42.16,2.34.11,3.91.14,5.19.12l11.05.42.2.05c.3.08,2.08.16,4.32.23,1.74.05,1.17-.02,1.3-.05,6.14.21,12.28.41,18.72.63l-.26-.02c.08-.01-.41-.06.81-.01.35-.01.48-.04,2.06.03-.55.08,2.51.22,5,.35,5.38.26,11.62.6,16.34.78,3.26.12,5.46.23,8.64.41,1.92.11.86-.02,1.02-.05,3.08.19,6.15.34,9.25.66.2.03.37.04.63.11l.08.03s-.01-.02.08.05c.08.06.13.18.13.26.02.12-.15.33-.26.34h-.06c-.09.03-.14.03-.19.03h-.3s-1.16.03-1.16.03h-2.31s-4.63.03-4.63.03l.03-.07c1.22-.05.92-.09.33-.13-1.04-.08.54-.12,3.84-.13l2.92-.05c.43,0,.89,0,1.34-.03.05,0,.12-.04.11,0-.04-.02-.1-.03-.15-.04l-.33-.05c-.22-.02-.43-.05-.64-.07-.83-.08-1.55-.12-1.93-.12l1.59.14.79.09.39.06c.06.01.13.02.19.04.02,0,.09.05.03-.02-.03-.06.02-.13.04-.12h-.04c-.18.02-.76,0-.97-.01-.11,0-.13-.02.03-.03.08,0,.2-.01.38-.02.09,0,.19,0,.31-.02.06,0,.12,0,.18-.01.04,0,.05,0,.07-.01h0s-.05.01-.07.04c-.06.06-.05.11-.05.19.02.1.12.13.09.12h0c-1.16-.24-2.52-.31-3.83-.37l-4.59-.3c-1.88-.24-5.6-.53-9.68-.81-2.89-.07-7.12-.21-7.73-.11-4.04-.2-8.06-.4-12.15-.53-.1-.05.36-.08-.43-.14-1.05-.08,3.19.03-.65-.13-2.66-.11-2.14-.03-1.86.03.13.03.14.11-1.59-.04-3.17-.26-2.51-.05-5.25-.18-.42-.04-.72-.08-1.27-.1-1.59-.07-1.57-.03-2.01-.02-5.17-.2-10.19-.32-15.68-.57-2.85-.13-4.38-.07-5.23-.02l-25.35-.75s.29-.04.01-.07c-.78-.08,3.28-.08-1.1-.21-3.88-.11-.54.09-1.1.13-.16.01-1.45-.01-2.22-.02-7.15-.1-14.87-.3-22.28-.47-2.16-.05-5.67-.03-7.39-.18-1.96-.15-14.76-.52-18.88-.54Zm24.55.61l.81-.02c-.37-.01-.8-.02-1.08-.03-.28,0-.41,0-.61.01.31.01.6.03.88.04Zm42.14.95c.16,0,.38.01.58.02-.03-.02-.25-.02-.58-.02Z"/><path d="m128.54,2.07c-9.47.23-18.82.22-28.23.45-1.26-.18-7.34.09-11.27.16-.79-.02-.7-.16-4.9.09-2.54.14-6.22.33-9.48.51-2.62.13,5.42-.59-4.15.11-1.4.08-3.37.24-3.58.19-.1-.03-1.47.03-2.71.13-1.28.1-2.44.25-2.89.32-.74.12,1.71-.11,2.48-.14,1.51-.06,2.59-.1,3.85-.16-.76.11-4.21.33-4.01.39-1.06.03-3.44.22-5.55.41-1.06.09-2.05.17-2.77.23-.73.06-1.19.08-1.19.04,0-.04.74-.15,1.65-.27.9-.13,1.96-.27,2.6-.36,1.31-.21,7.02-.7,11.56-.97,2.05-.11,3.99-.21,6.03-.32,1.97-.11,4.38-.16,5.82-.29,1.53-.14-3.89.16-2.9.04,3.12-.21,6.4-.41,10.03-.44.28.11,1.24.18,6.66-.06,4.04-.17,9.14-.16,13.03-.32l1.5-.03h2.85c4.78.06,9.93,0,15.51-.21,3.31.04,7.06.02,11.88-.14l2.05-.04c-.24.01-.4.02-.75.04-2.72.1-4.53.18-1.72.21.73,0,2.75,0,2.4-.04-.81-.07,8.13-.28,1.57-.27,1.76-.05,4.36-.08,4.32-.17l3.07-.06c.11.04-2.34.14-.26.13,1.66,0,3.45-.06,4.8-.13l1.93-.04c3.97-.07,4.22,0,4.79.07.33.04,1.27.05,3.16.01.71-.02,1.81-.06,2.03-.08.63-.06-.92-.04-2.13-.03-4.38.03,3.51-.22-.3-.21.95-.1,3.39-.14,5.69-.2l.04.05c-.04.05-3.45.2.17.14,2.68-.04,4.55-.15,4.01-.22l3.52-.08,4.86-.03c1.36.03,2.04.08.88.17-.53.04-.4.07,1.14.04,1.86-.03,2.15-.07,2.43-.12h2.62s.06.1.06.1c-4.42.07-9.41.23-12.38.15-1.13-.03-2.76.04-3.03.1-.19.05.16.08-1.71.15-7.67.27-15.57.46-23.68.55-4.94-.04-15.22.16-21.38.42Zm-50.4.87c.52-.03,1.03-.07,1.54-.1-.44.01-.84.02-1.32.04-.5.03-1.08.07-2.03.13.83-.03,1.32-.05,1.81-.06Z"/><path d="m.73,16.47c-.09.05-.19.11-.23.17-.04.07-.05.03,0,.09.12.1.33.16.51.22.38.1.75.17,1.09.23.69.11,1.31.18,1.86.25,1.11.12,2.01.21,2.95.32.94.08.32.15,3.26.26,2.38.07,1.83-.02,1.39-.09-.42-.07-.65-.13-.97-.2,2.9.11,5.8.18,8.7.24.03.05-.99.12,2.96.18,2.98.04,4.34.08,4.23.16-.33.04-3.81,0-2.09.09.6.03,1.98.07,2.89.08,3.04.02,1.02-.07,1.69-.1.37-.02.65-.03,1.21-.05,1.09-.02,4.28-.03,3.08-.08-1.38-.06-3.67,0-5.76-.02v-.11c8.25.04,16.25.08,24.15.12-1.29.12-2.13.26-8.92.17-1.12-.02-2.93-.01-3.4.03-.49.05.91.06,2.46.07.5.06,1,.12,1.31.18l-2.25.03,1.81.05c-5.37.07-10.39.03-15.12-.11-1.23-.08-3.64-.19-6.11-.16-4.73.07-13.26-.39-16.42-.47-1.15-.11-2.31-.22-3.5-.45-.3-.06-.59-.12-.91-.24-.16-.08-.31-.09-.53-.34-.14-.15-.12-.47,0-.6.09-.12.18-.18.25-.23.61-.36,1.18-.48,1.77-.65,2.33-.59,4.7-.97,7.03-1.34-.17.15,3.41-.37,6.41-.78,2.67-.38,4.26-.55,6.27-.75-.69.19-5.44.67-7.31,1-.71.12-3.12.33-4.16.57-.64.14,1.71-.16,3.16-.31,1.48-.16,2.64-.3,4.68-.59,2.56-.37,5.55-.74,7.87-.87,1.39-.08,3.88-.39,5.34-.57,2.56-.3.48-.13-1.02,0-2.37.19-4.7.39-4.27.25l1.5-.2c2.66-.14,7.76-.71,12.1-1.09,1.68-.15,5.56-.55,4.43-.31-.27.05,4.98-.45,5.13-.5.31-.1,1.72-.22,3.63-.37l1.4-.11c2.62-.24,5.74-.53,4.66-.3-1.31.18-1.27.18.96.03.98-.06,2.29-.14,2.5-.13.75.02-3.21.3-3.84.4-4,.32-8.22.75-11.62.91-.87.04-3.41.32-3.25.31.7-.01-4.81.51-.92.22-.16.05-.59.09-2.19.24-5.22.46-10.46.92-15.76,1.57-.78-.2-6.7.7-10.14,1.14-3.98.54-6.92,1.02-11.08,1.84.24-.07.6-.16.9-.25.3-.08.55-.14.54-.16,0,0-.07,0-.21.02-.15.03-.38.07-.72.13-.34.07-.79.16-1.37.3-.57.15-1.3.3-2.07.67Zm15.59,1.67h-.82c.37.02.78.04,1.08.05.27,0,.41,0,.61,0-.3-.01-.59-.03-.87-.04Z"/><path d="m28.63,13.03c-4.99.83-11.09,1.96-15.45,3.73-.96.39-2.09.72-3.19,1.35-1.13.56-2.3,1.21-3.37,2.08-.54.43-1.05.92-1.46,1.51-.4.58-.69,1.32-.57,2.07.13.73.54,1.35,1.03,1.81.49.46,1.04.82,1.58,1.13,1.25.66,1.78.81,2.73,1.12,1.47.45,2.44.56,2.59.54.16-.03-.49-.13-2.1-.62-1.69-.53-2.73-1.07-3.43-1.51-.68-.46-1.06-.8-1.31-1.15-.26-.35-.7-.91-.66-1.79.05-.88.82-1.94,2.12-2.97.28-.24,1.42-1.03,1.95-1.29,5.08-2.75,10.63-3.98,16.24-5.04,6.48-1.16,13.04-1.89,19.61-2.47,6.57-.58,13.15-.99,19.74-1.35l-.03-.06c-1.11.06-2.02.11-2.27.1-1.96.12-4.29.27-5.91.38-3.89.28-8.66.63-11.75.85-.92.05-4.73.35-8.64.79-1.95.22-3.93.45-5.59.71-1.66.22-2.99.44-3.66.58-.45.08-.91.18-.84.17.66-.03-1.85.34-2.98.59-1.36.28-2.21.37-3.37.67-.67.16-2.74.7-2.54.63.12-.05,1.31-.37,2.92-.79,3.37-.82,8.21-1.6,8.65-1.77Z"/><path d="m146.36,4.53c-3.45.11-7.53.22-9.8.39.99-.02,2.27-.05,2.95-.06,2.66-.11,5.16-.22,7.11-.18,1.6.04-.65.13-2.27.23-2.87.17-5.08.2-7.41.21-1.46,0-3.89.07-5.08.15-4.06.25-5.87.22-8.28.26-1.55.06-3.5.15-3.9.11-.08,0,.63-.07.91-.08,2.03-.08,2.09-.03,2.98-.03l4.34-.36c-2.86-.05-6.58.2-10.08.38.09.05-.13.1-2.66.22.04.03-.18.08.18.1,1.12.05-3.07.22-4.31.33-.34.03-1.2.08-1.46.07-.53-.03.88-.12,2.44-.23.89-.06.22-.1.25-.14-1.39.11-5.33.22-5.73.34.51-.01,1.91-.07.54.02l-.5-.02c-2.01.08-.79-.08-3.29.05-.88.05-1.59.16-2.38.24.03.03-.27.07-1.46.15.06,0,.14.01.22.02l1.32-.07c2.2-.05,9.09-.34-.27.19-.61.04-.89.1-1.33.14,4.03-.22,8.25-.48,11.91-.54.45-.02,5.86-.31,9.48-.5.99-.08,2.22-.14,4.4-.23,6.36-.26,13.01-.38,19.09-.66,2.45.05,6.83-.19,9.41-.18,2.53,0,4.56-.02,7.69-.13,4.26-.15,6.12-.11,6.21,0l7.02-.09c-.32-.07,1.61-.13,3.01-.2-3.21-.07-6.56-.13.25-.28.87-.02.3-.05-.57-.05-2.75.09-6.77.03-9.09.13-5.34.22-4.28.06-5,0l-1.49.03c-.14.04-.95.08-2.64.11-.2.06-1.33.1-2.98.13l.13.06c-1.63.03-1.37,0-1.37-.04-3.19,0-8.01.11-8.51,0Z"/><path d="m108.31,8.15c-1.83-.01-3.12.05-4.07.09-2.02.11-4.5.23-.73.21,5.92,0,6.18-.08,9.26-.12l5.65.09c2.64.13,7.72.07,11.13.15l.07.08c-3.27-.04-7.07.02-9.51-.07-3.09-.11-6.29-.1-9.9-.1-7.1-.02-14.21.32-21.34.59-7.12.33-14.26.65-21.41.98-.25-.02-.23-.06,1.54-.17l2.74-.14,1.42-.04c.43,0,.86-.03,1.29-.06,9.02-.45,10.28-.53,6.84-.5-.1,0-.13,0-.2,0-7.97.46-10.1.31-17.89.78-3.24.2-7.54.47-8.42.43,2.12-.15,4.51-.37,5.22-.37,1.35,0,3.58-.16,5.75-.28,7.75-.37,15.31-.74,23.27-1.12,5.67-.25,11.43-.46,17.24-.55,5.8.02,11.64.05,17.45.07,2.31.01,5.99.01,6.17.12-1.36.06-3.55.05-5.95-.01-2.91-.07-4.88-.05-6.7-.01-2.99-.05-5.98-.09-8.9-.04Zm-14.22.57c-.06-.03-.88-.06-3.19.05-2.24.11-5.52.29-5.64.33-.25.08,2.67-.12,3.71-.14,2.04-.1,5.3-.15,5.12-.24Zm-6.65,0c-1.46.06-4.07.18-4.17.24-.05.03.9.02,2.46-.05,1.67-.08,3.3-.16,5.46-.26-1.6.03-2.59.03-3.75.08Zm8.63-.12l.85-.03h-.11c-.64.01-.67.02-.75.03Z"/><path d="m204.99.64c3.52-.04,6.27-.03,10.24.06,5.76.11,12.95.3,19.5.55,3.28.13,6.78.35,9.85.44l.04-.1c-.72-.09-2.58-.26-.36-.16,6.55.3,5.68.07,10.22.26-2.41-.15-4.55-.26-6.45-.32-.24,0-.45-.02-.62-.03-.25.04.77.15-1.84.03-2.06-.09-3.52-.19-3.82-.26l-.34-.03.31.03c3.04.19,3.14.08,5.66.22.16,0,.22,0,.19,0-2.88-.27-6.4-.34-9.55-.5-4.02-.08-8.27-.23-12.57-.46-1.28-.07-2.12-.12-3.56-.09-2.21.04-5.42-.05-8.51-.12-4.42.05-2.38.16-1.31.27.28.03,1.21.07-.35.07-1.33,0-2.1-.03-2.65-.06h-1.57c.83.08-3.37.13-2.5.21Z"/><path d="m105.71,18.09c2.8.02,5.7.02,9.55-.09,4.8-.18,9.9-.29,15.34-.29,1.03-.07,2.96-.11,4.69-.16l2.88-.02c-.34-.03-.87-.08-1.01-.08-5.27.12-8.81.04-13.89.14-3.69.07-7.07.12-8.07.02-.03,0-.4,0-.61,0-.69.02-1.4.05-2.1.07.62.12-3.11.17-5.95.2-9.34.11-18.74.3-28.22.34-5.72.02-6.03.05-3.3-.11.82-.06,1.37-.1,2.05-.15-5.43.09-11.75.07-16.13.24,1.02,0,2.01,0,3.08.01,1.74,0,4.25-.11,5.02-.03.31.03-2.43.12-4.17.16-.93.01-2.67.03-4.05.04-1.15.01-2.41.02-2.97.05-.72.05.48.06,1.67.08,1.87.02,2.37.09,5.28.07,3.67.05,7.72.05,12.54-.03,5.52-.17,11.97-.25,18.46-.33-.09-.03.2-.07,1.38-.09,2.07-.03.75.04,1.2.06,2.74-.14,5.57-.32,7.33-.09Z"/><path d="m71.74,9.74l1.42-.04.64-.03.64-.03c9.02-.45,10.28-.53,6.84-.5-.1,0-.13,0-.2,0-7.97.46-10.1.31-17.89.78-3.24.2-7.54.47-8.42.43-2.35.19-6.54.49-8.3.7,2.25-.12.05.12-1.13.24-3.45.31-1.35.05-1.84.05-.1,0,0-.02,0-.03-2.64.15-7.12.72-10.07,1.06-1.81.25-3.41.51-4.79.67-.45.17-5.29.95-8.66,1.77-1.61.42-2.8.74-2.92.79-.19.08,1.88-.47,2.54-.63,1.17-.29,2.01-.38,3.37-.67,1.13-.25,3.64-.61,2.98-.59-.07,0,.39-.09.84-.17.67-.13,2-.36,3.66-.58,1.65-.25,3.63-.48,5.59-.71,3.91-.44,7.71-.74,8.64-.79,3.1-.22,7.86-.57,11.75-.85,1.62-.1,3.96-.25,5.91-.38,1.9-.13,1.99-.1,2.27-.1l.03.06,2.79-.14c-.25-.02-.23-.06,1.54-.17.35-.03.6-.07,1.06-.09,1.48-.08,1.49-.05,1.68-.04Z"/><path d="m267.09,2.61l.09.05c1.14.17,2.05.31,3.46.53,3.04.42,8.62.93,13.2,1.28.57.04.86.05,1.56.11,2.6.26,2.79.16.21-.19q-1.08-.14-1.7-.13c-.29,0-.22.06-2.18-.14-.6-.06-1.26-.17-1.9-.26-3.7-.38-3.45-.44-4.28-.59,4.24.34,8.56.76,12.91,1.32-1.81-.1,2.46.43,4.46.83.73.1,1.46.2,2.19.36.18.05.36.1.56.19.05.03.11.05.17.16.04.08.02.16-.04.22-.03.03-.08.06-.1.07-.12.05-.21.07-.31.09-.38.06-.76.08-1.13.1-.75.03-1.49.04-2.24.04-.07-.01-.08-.02-.05-.03,2.72-.13-1.5-.25-1.37-.39.9.01,1.8.02,2.69,0,.04,0,0,.01.15.02.95,0,1.34.02,1.77,0,.11,0,.22-.01.33-.04.06,0,.11-.06.09-.01,0,.01-.07-.05-.13-.08-.29-.13-.69-.23-1.27-.34-3.4-.57.38.18-.28.14-.53-.07-1.06-.13-1.59-.19-6.44-.96-13.1-1.52-19.45-2.15l-2.76-.23-.11-.08.59.03-.77-.05-1.74-.14c-.89-.08-2.13-.21-2.1-.15l-2.81-.17.39.02.43.04c-1.92-.23-6.72-.55-8.07-.77-.64-.11-6.7-.37-9.99-.49-.55-.01-.9-.02-1.34-.03-.72-.09-2.58-.26-.36-.16,6.55.3,5.68.07,10.22.26,4.37.23,8.59.54,12.62.92Zm18.54,2.12c.12.03.43.09.66.14.19.01.52.04.53.03.01-.02-.19-.06-.34-.09-.41-.04-.88-.08-.85-.07Z"/><path d="m115.18,5.78c2.53-.12,2.76-.17,2.66-.22l-2.37.09-1.83.09c-4.55.18-8.94.36-13.77.66-1.97.12-4.81.28-7.17.38-2.58.1-7.45.39-8.28.46-8.74.66-17.19,1.18-25.58,1.77-3.08.22-5.02.43-7.54.64-12.88,1.09-25.76,2.27-38.58,3.99-1.38.19-2.79.38-3.57.55-.17.15,3.41-.37,6.41-.78,2.67-.38,4.26-.55,6.27-.75.93-.16,2.74-.35,4.3-.52l1.5-.2c2.66-.14,7.76-.71,12.1-1.09,1.68-.15,5.56-.55,4.43-.31-.27.05,4.98-.45,5.13-.5.31-.1,1.72-.22,3.63-.37.46-.07.95-.11,1.43-.12,2.59-.24,5.71-.53,4.63-.3.7-.05,1.42-.11,2.13-.16,2.22-.22,4.5-.44,7.59-.59,2.55-.27,5.02-.55,8.31-.58l4.07-.26c.88-.14,3.61-.28,5.8-.42,3.22-.2,2.66-.1,2.88-.06,3.71-.35,7.44-.51,11.17-.62.79-.08,1.5-.19,2.38-.24,2.5-.13,1.28.03,3.29-.05.35-.12,4.3-.23,5.69-.34l2.89-.13Z"/><path d="m266.58,5.42c-1.99-.13-4.19-.24-7.17-.27,1.69.11,3.34.23,1.34.24-1.58,0-2.77-.13-4.47-.16-2.22-.19-3.5-.15-4.98-.13-1.69.02-3.34,0-4.48-.14-4.02-.09-3.4.02-4.12.08.6.1,3.84.21,5.41.32,2.67.15,6.22.27,9.6.34,2.54.05,4.73.12,7.17.22,2.49.04-.09-.18,4.22-.04,3.19.11,2.66.18,3.16.25l2.84.09c-.2-.06-.58-.13-.54-.18.01-.02.35-.02.83,0,.48.01,1.12.03,1.73.05,1.06.04,1.86.08,1.25.09-.9,0-3.39-.04-.76.08.66.03,2.97.04,4.52.06.49,0,.75-.02,1.75.04l-1.79-.05c1.07.18,4.61.28,8.33.3,1.14-.09-4.51-.28-4.1-.39-6.1-.12-6.04-.22-5.56-.31-2.45-.06-4.46-.21-6.99-.26.36.14-2.36.15-6.58,0-5.86-.22,1.89-.05-.12-.18-.28-.02-.33-.03-.48-.05Z"/><path d="m260.01,14.99l2.31-.03,4.46-.1,1.64-.03s-.09-.02-.14-.03c-.97,0-1.45-.01-.62-.05.12,0,.52-.01.65-.01,1.26,0-.07.04-.08.06,2.33-.03,4.04-.07,5.13-.14,1.72-.11,3.95-.15,5.73-.16.89,0,1.67.01,2.22.01.55,0,.87.02.84.03-.35.14,3.34.08,6.01.08,3.36-.09,6.7-.18,10.11-.27,1.49-.05,4.37-.04,3.55-.11-.68-.06-3.8.02-4.59.02-2.45-.03-6.23.2-7.6.07-1.86.01-4.07.05-4.35-.02-1.57.02-3.24.05-4.26.02-3.45.03-6.92.07-10.34.1-6.77.07-12.62.26-19.46.36v.08c1.68-.04,3.43-.08,4.3-.04-.11.05-.16.1-2.73.15l1.21.08,6.01-.09Z"/><path d="m177.32,4.11c.87,0,1.44.04.57.05-6.8.15-3.46.21-.25.28l2.62-.03-.05-.11h-.33s.31,0,.31,0c2.38.02,7.56-.08,7.16.08,3.95-.02,7.54.12,11.94.03.63-.01,3.39.04,3.53.11l4.17.04c1.81-.08,7.07-.05,6.06-.2.05,0,.91,0,1.39-.01,3.09.25,4.4,0,6.83.08-.01-.01-.01-.02,0-.04-7.13-.3-8.83-.13-11.34-.04h-.54s.58,0,.58,0c-.72-.01-1.73-.03-2.57-.05-.42,0-.8-.02-1.08-.02-.28,0-.45-.01-.46-.02-.71-.28-5.92-.14-10.14-.14-4.4,0-9.47.06-13.35-.03-1.91-.02-1.62-.12-4.95-.08l-.08.08Z"/><path d="m188.04.6h2.62c6.39-.1,6.3.03,5.64.16,2.1.01,2-.06,3.02-.08-1.89-.14,1.24-.34,7.04-.38-1.33-.08-1.44-.17,0-.26-1.47-.09-2.7-.02-3.97.02.85.01,1.06.04-.08.05-1.57.02-1.31-.02-1.47-.05-3.38-.1-8.36.07-11.95.14-5.89.12-12.31.21-17.89.43l.04.05,4.09-.07c1.29-.09,2.45-.09,3.61-.08l4.86-.03c.35-.06.65-.12,3.27-.16,1.77-.03,2.78-.01,3.62.01,1.97.05-.71.15-2.43.25Z"/><path d="m289.62,14.34c1.37.13,5.16-.09,7.6-.07.79,0,3.91-.08,4.59-.02.82.07-2.06.07-3.55.11-3.41.09-6.75.18-10.11.27l1.23.05,1.64-.02c4.55-.17,10.33-.2,15.45-.23,1.22-.05.92-.09.33-.13-1.04-.08.54-.12,3.84-.13l.06-.04c.05-.05,1.03-.07,3.05-.08.41,0,.83,0,1.19-.04-.18.01-.76,0-.97-.02-.11,0-.13-.02.03-.03.08,0,.2-.01.38-.02.09,0,.19,0,.31-.02.06,0,.12,0,.18-.01.04,0,.05,0,.07-.01.01,0,.02-.02-.06.03-.06.05-.06.12-.05.18.12.21.09.1.08.13h0s-.13-.06-.11-.15c-.02-.06.02-.17.09-.2.09-.03.01-.01.03-.02-.9.06-1.98.03-2.97.04h-3.03s-6.06,0-6.06,0c-4.04,0-8.09.09-12.16.17,1.3.06,3.7.12-1.08.25Z"/><path d="m173.59,16.84c1.67-.04,1.52.11,4.5-.07,2.23-.14,4.35-.07,6.57-.15.62-.16,3.64-.2,6.81-.22,2.69-.02,4.9-.09,6.92-.19,2.1-.1,3.02-.18.8-.19-2.98.06-5.73.07-8.93.18-9.97.33-11.06.35-19.06.42-.19,0-.57,0-.62,0-4.07.23-10.26.18-14.41.4.4.06.44.12,3.26.09.1-.05.76-.07,2.68-.11,4.06-.06,7.85-.12,11.48-.17Z"/><path d="m289.62,14.34c4.78-.13,2.38-.18,1.08-.25-3.15,0-5.26-.04-9.77.12-3.25.12-9.75.13-14.95.2-7,.12-14.34.24-21.41.35-3.1.04-5.15.08-4.81.18.33.09,2.84.04,5.64-.03,1.94-.04,3.89-.08,5.83-.12,6.84-.1,12.69-.29,19.46-.36,3.42-.03,6.89-.07,10.34-.1.83-.03,1.77-.07,2.48-.08,1.57-.01,1.72.03,1.77.06.29.06,2.49.03,4.35.02Z"/><path d="m209.92,4.37c2.51-.1,4.21-.27,11.34.04l5.71.05c1.52,0,3.09,0,2.71-.06-2.67-.15-6.17-.14-9.1-.18-11.19-.16-22.37-.29-33.64-.21-3.01.02-3.43.06-4.58.11,3.88.1,8.95.04,13.35.03,4.22,0,9.43-.14,10.14.14.01,0,.19.01.46.02.28,0,.65.01,1.07.02.84.02,1.84.03,2.54.05Z"/><path d="m77.07,17.95c-.68.05-1.23.09-2.05.15-2.73.17-2.41.13,3.3.11,9.48-.03,18.87-.23,28.22-.34,2.84-.03,6.57-.08,5.95-.2-5.3-.05-11.1.05-17.47.21-4.11.1-7.25.11-6.46-.04-4.13.11-7.57.05-11.5.1Z"/><path d="m156.18,17.03c4.15-.22,10.34-.17,14.41-.4.05,0,.43,0,.62,0,8-.07,9.09-.09,19.06-.42,3.2-.1,5.94-.12,8.92-.18-1.27-.09-2.66-.18-7.56-.12l-3.6.16c-1.33.11-3.37.15-6.26.2-3.52.08-7.78.17-10.83.24-6.15.12-11.62.38-17.48.43l1.56.13c.39,0,.78-.01,1.15-.02Z"/><path d="m228.12,15.24c-1.84.15-3.33.29,4.05.16,2.38-.04.88.04.7.07-3.63.14-7.64.18-10.24.18-6.59,0-8.08.14-9.49.3l-1.35.03c-4.33.02-11.44.12-4.69-.2,1.22-.06,1.19-.12,1.73-.18,3.73-.07,7.47-.15,11.19-.22,2.41-.04,4.23-.08,4.47-.16l4.15-.07c-.16.03-.1.06-.52.1Zm-11.89.33c-.15,0-.39,0-.75.02.21,0,.41,0,.75-.02Z"/><path d="m63.64,4.13c-1.06.03-3.44.22-5.55.41-1.06.09-2.05.17-2.77.23-.73.06-1.19.08-1.19.04,0-.04.74-.15,1.65-.27.9-.13,1.96-.27,2.6-.36,1.31-.21,7.02-.7,11.56-.97,2.05-.11,3.99-.21,6.03-.32,1.97-.11,4.38-.16,5.82-.29,1.53-.14-3.89.16-2.9.04-6.69.21-14.99.92-21.9,1.41-2.18.15-1.69.22-3.44.39-1.69.2,5.92-.44-.32.17-2.08.3-7.56.93-6.71,1,1.29-.12,2.97-.27,3.81-.35,2.09-.14,2.06.04,7.36-.6.05,0,1.92-.12,3.11-.2,3.47-.25,6.77-.5,9.68-.75-1.01-.09-4.86.33-6.83.43Z"/><path d="m45.02,5.3c-1.73.17-2.97.3-3.87.35-2.26.14-6.51.59-9.82,1.11-2.96.45-5.62.93-5.93,1.09-.58.3,3.13-.2,11.44-1.24,2.03-.25,4.56-.49,6.86-.71,2.51-.36,1.53-.36-1.2-.12-2.77.24-5.3.59-7.25.91-.72.11-4.03.58-3.75.46.24-.11-1.68.08-.48-.15.74-.14,1.1-.24,3.34-.54,2.33-.3,3.36-.38,3.64-.35.29.02.64.02,3.24-.28,1.26-.15,2.21-.27,2.85-.35.63-.08.95-.14.94-.18Z"/><path d="m153.47,16.92c5.86-.04,11.33-.3,17.48-.43,3.05-.07,7.31-.16,10.83-.24,2.89-.05,4.93-.09,6.26-.2-4.95-.07-12.33.2-18.43.34-9.11.21-18.41.49-27.28.52l-.73.06c1.32.03,5.94.01-1.11.17-2.31.05-3.61.13.36.09,4.19-.1,7.25-.31,12.63-.3Z"/><path d="m167.6,4.73c-.1-.12-1.95-.15-6.21,0-3.14.11-5.17.13-7.69.13-2.58,0-6.96.23-9.41.18-6.08.28-12.73.4-19.09.66-2.17.09-3.4.15-4.4.23,5.85-.14,12.19-.37,19.01-.59,4.35-.14,8.77-.27,13.51-.33,4.14-.08,9.48-.19,14.29-.28Z"/><path d="m148.19,1.16l3.07-.06h4.55c.64,0,1.29-.02,1.94-.03,2.1-.07,4.2-.14,6.3-.21-3.71-.11-11.11.11-16.42.21-10.56.2-21.22.41-31.84.61l-2.83.08c4.78.06,9.93,0,15.51-.21,4.52-.11,9.3-.27,11.88-.14.68-.01,1.37-.03,2.05-.04.49-.01.97-.02,1.46-.04-.02-.03-.08-.04-.14-.05-.15,0-.3-.01-.45-.02h1.01s3.93-.11,3.93-.11Z"/><path d="m289.07,12.67c-4.04-.2-8.06-.4-12.14-.53-3.23-.13-6.32-.26-8.7-.42-2.17-.08-3.26-.12-4.35-.16-5.17-.2-10.19-.32-15.68-.57-2.85-.13-4.38-.07-5.23-.02,15.56.54,31.12,1.12,46.69,1.79l-.57-.09Z"/><path d="m232.87,15.47c-3.63.14-7.64.18-10.24.18-6.59,0-8.08.14-9.49.3,10.83-.17,21.68-.31,32.5-.63,2.62-.08,4.25-.03,6.38-.08,2.93-.08,7.44-.11,7.99-.24l-6,.09-9.86.16-11.27.23Z"/><path d="m182.11,9.1c.15-.06-.79-.15,3.74-.04,2.82.07,5.24.1,4.75,0-11.61-.31-23.23-.58-35.29-.66l.07.05.41.04c.22,0,.46,0,.71,0,2.02,0,4.02.01,4.61.1.36,0,.73,0,1.1.01l4.26.1c.64-.06,2.09-.05,4.37.04,2.51.05,5.11.02,7.39.13.75.04-.38.05-1.62.05l-.11.03,1.37.09c2.49.11,2.72.02,4.25.05Z"/><path d="m211.79,15.98c-4.33.02-11.44.12-4.69-.2,1.22-.06,1.19-.12,1.73-.18-2.07.03-1.38-.03-1.51-.05l-2.77.06c.86.06-2.72.18-2.81.25l1.85-.03c-.14,0-.39.02-.4.02-.51,0-1,0-1.5,0-2.46,0-.95-.1-1.47-.15-2.79-.03-5.65.03-8.6.19,4.91-.06,6.3.03,7.56.12,2.23.01,1.3.09-.8.19-2.02.1-4.24.17-6.92.19-3.17.02-6.19.06-6.81.22,7.13-.14,14.41-.38,21.46-.47,2.78-.03,4.24-.1,5.67-.17Z"/><path d="m140.84,17.23c-3.97.05-2.67-.04-.36-.09,7.05-.15,2.43-.13,1.11-.17-1.21.09-3.41.08-5.11.12.19.04-1.11.13-2.15.13-5.15,0-8.8.21-13.29.27-2.4.1-2.52.05-2.71,0-2.43-.02-3.03.04-3.74.1.21,0,.58,0,.62,0,1,.1,4.38.05,8.07-.02,5.08-.1,8.62-.03,13.89-.14.13,0,.66.05,1,.08l5.51-.03h2.92s.34-.12.34-.12c-6.25.09-6.61-.01-6.1-.15Z"/><path d="m64.81,18.57c-2.91.03-3.41-.05-5.28-.07-1.19-.01-2.4-.03-1.67-.08.55-.04,1.81-.04,2.97-.05,1.38-.02,3.13-.03,4.05-.04,1.74-.05,4.48-.13,4.17-.16-.76-.07-3.27.03-5.02.03-1.07,0-2.06,0-3.08-.01-1.34-.05-2.55.02-3.83.03-2.12.04-4.39.09-3.76.15,2.44.23-4.15.27-10.05.29.72.05,3.8.03,4.03.09,4.84-.02,9.43-.03,14.33-.05,3.51-.03,2.75-.08,3.15-.13Z"/><path d="m121.04,17.5c4.49-.06,8.14-.27,13.29-.27,1.04,0,2.33-.09,2.15-.13-9,.16-17.94.31-26.93.47-4.51.05-9.24.11-13.71.16-2.7.04-4.89.08-7.26.11-.79.15,2.35.14,6.46.04,6.37-.16,12.16-.26,17.47-.21.7-.02,1.4-.05,2.1-.07.7-.06,1.3-.12,3.73-.1h2.71Z"/><path d="m232.87,15.47l11.27-.23.11-.08c-1.53.03-2.89.04-2.65,0,.24-.05,1.79-.08,3.2-.11.52-.05.56-.09.59-.13-2.8.07-5.31.12-5.64.03-3.6.03-7.32.1-11.11.19-.16.03-.1.06-.52.1-1.84.15-3.33.29,4.05.16,2.38-.04.88.04.7.07Z"/><path d="m226.97,4.45l-5.71-.05v.04s.3.02.3.02l-.29-.02c-2.43-.07-3.74.18-6.83-.08-.49,0-1.34,0-1.39.01,1.01.15-4.25.12-6.06.2.3.04,1.57.05,2.71.06,1.49-.05,3.87,0,5.99.02,1.56.04,2.53-.09,3.36.02.88.12,3.46.09,4.91.14,2.48-.03,3.61.03,4.44.11,1.48.04,3.23.15,4.15.07l.63-.04c-1.73-.06-2.59-.14-5.02-.18-1.66-.06-1.02-.09-1.17-.12-7.56-.2,1.01-.11-.01-.2Z"/><path d="m159.43,8.94c-2.39-.09-5.17-.19-7.45-.28-4.67-.21-13.42-.25-17.16-.11,3.48.03,7.36.07,4.91.17,6.69.1,13.36.22,19.71.22Z"/><path d="m226.98,4.65c-7.56-.2,1.01-.11-.01-.2,1.52,0,3.09,0,2.71-.06,4.31.07,8.87.07,12.77.31.19.01.25.02.18.03-5.67-.03-6.13.13-5.83.3l-3.63-.08c-1.73-.06-2.59-.14-5.02-.18.16-.04.21-.07-1.17-.13Zm4.52-.03c-.91-.04-1.77-.02-1.49,0,.57.05-2.32.08,2.03.16,2.17.03,1.99,0,.42-.07-.3-.03-.27-.07-.96-.1Z"/><path d="m127.92,5.17c1.32-.05,2.42-.02,3.92-.13,3.33-.25,3.64-.14,4.73-.12.99-.02,2.27-.05,2.95-.06,2.66-.11,5.16-.22,7.11-.18,1.6.04-.65.13-2.27.23-2.87.17-5.08.2-7.41.21-1.46,0-3.89.07-5.08.15-4.06.25-5.87.22-8.28.26,1.44-.12,2.89-.24,4.33-.36Zm15.81-.37s-.5.02-.53.02c-.06.01.02.02.04.03l1.1-.05c-.2,0-.38,0-.62,0Z"/><path d="m209.46,9.55c5.74.14,11.76.35,16.92.38,1.3,0,3.13.1,4.42.16,2.34.11,3.91.14,5.19.12-4.84-.27-10.7-.39-16.2-.52-7.12-.17-13.77-.47-20.95-.55-1.04-.01-2.32-.04-2.79-.02,1.45.11,3.92.19,6.77.21,3.44.02,5.06.11,6.64.21Z"/><path d="m45.02,5.3s-.3.09-.94.18c-.64.08-1.59.19-2.85.35-2.6.3-2.95.3-3.24.28-.27-.02-1.3.05-3.64.35-2.25.29-2.6.4-3.34.54-1.2.23.72.04.48.15-.27.12,3.03-.35,3.75-.46,1.95-.32,4.48-.67,7.25-.91,2.73-.24,3.71-.24,1.2.12.94-.07,1.87-.16,2.81-.3-.85-.07,4.63-.71,6.72-1-1.49.1-2.85.2-2.95.15l-5.24.55Z"/><path d="m100.92,6.53c-3.73.11-7.46.27-11.17.62-2.18.23-8.89.62-10.08.84l.51.09c2.45-.12,4.67-.26,6.69-.44.32-.04-.6-.02.88-.12l.46.04c.41-.02.86-.05,1.34-.07,5.78-.35,4.6-.49,9.92-.81,1.2-.08,1.5-.12,1.46-.15Z"/><path d="m289.37,14.69l-1.23-.05c-2.67,0-6.35.06-6.01-.08.03-.01-.29-.02-.84-.03-.55,0-1.33,0-2.22-.01-1.78,0-4.01.04-5.73.16-1.08.07-2.8.11-5.13.14.1,0,.15.02.19.03l-.11.11c6.95-.05,13.82-.06,21.07-.26Z"/><path d="m274.18,11.49c-.55.08,2.51.22,5,.35,5.38.26,11.62.6,16.34.78,3.26.12,5.46.23,8.64.41,1.92.11.86-.02,1.02-.05-6.78-.41-13.36-.77-20.49-1.03-3.08-.13-6.98-.3-10.51-.46Z"/><path d="m180.26,4.42l-2.62.03c-1.4.06-3.33.13-3.01.2,7.07-.01,14.65-.13,21.81,0,2.89.05,3.78-.09,6.38-.11-.14-.06-2.89-.12-3.53-.11-4.4.09-7.99-.05-11.94-.03-2.55.22-4.7-.02-7.09.02Z"/><path d="m61.1,9.06c-.71.05-1.42.11-2.13.16-1.31.18-1.26.18.97.03.98-.06,2.29-.14,2.5-.13.75.02-3.21.3-3.84.4l2.98-.15,4.65-.32,9.42-.79c-6.44.33-6.3.28,1.33-.37-3.29.03-5.76.32-8.31.58-2.51.19-3.72.48-7.59.59Z"/><path d="m43.3,18.66c5.9-.02,12.49-.06,10.05-.29-.63-.06,1.64-.11,3.76-.15-.66-.12-3.66,0-5.46-.01-1.29.12-2.13.26-8.92.17-1.12-.02-2.93-.01-3.4.03-.49.05.91.06,2.39.07h.64s-.57,0-.57,0l1.5.18Z"/><path d="m242.45,4.7c.19.01.25.02.18.03.62.07,5.02.16,4.2.23,1.14.13,2.79.16,4.48.14,1.48-.02,2.76-.05,4.98.13,1.7.03,2.9.17,4.47.16,2,0,.35-.12-1.34-.24-5.74-.2-11.83-.48-16.97-.45Z"/><path d="m264.01,2.88c-1.92-.23-6.72-.55-8.07-.77-.64-.11-6.7-.37-9.99-.49-.55-.01-.9-.02-1.34-.03l-.04.1c5.07.35,9.81.5,14.82.89l3.7.25c.48.03.79.05.92.05Z"/><path d="m183.53,9.41c-1.96-.15-14.76-.52-18.88-.54-4.06-.02-1.48.1-2.29.15,2.58.03,5.18.03,7.64.14.53.01,2.33.06,2.45.07,3.3-.06,7.46.13,11.09.18Z"/><path d="m63.64,4.13c1.97-.1,5.82-.52,6.83-.43,2.02-.07,4.02-.22,6.02-.36,3.34-.27,8.63-.51,12.56-.64-.79-.02-.7-.16-4.9.09-2.54.14-6.22.34-9.38.51l-1.75.15h-.56s2.2-.15,2.2-.15c-2.62.13,5.42-.59-4.16.11-.33.08.93.08-2.85.34-.76.11-4.21.33-4.01.39Z"/><path d="m271.32,11.48c.08-.01-.41-.06.81-.01-8.59-.36-17.64-.81-25.09-.83l.2.05,5.62.19c6.14.2,12.28.4,18.46.6Z"/><path d="m89.04,2.69c-3.93.13-9.22.37-12.56.64.46.09,3.57-.16,5.17-.23,1.53-.06,3.08-.12,4.63-.18,1.55-.04,3.11-.08,4.68-.12,3.12-.09,6.25-.18,9.35-.27-1.26-.18-7.34.09-11.27.16Z"/><path d="m190.72.7c-4.42.07-9.41.23-12.38.15-1.13-.03-2.76.04-3.03.1-.19.05.16.08-1.71.15-.6.13,3.12.01,5.08-.02,4.43-.09,8.92-.17,13.38-.26-.36-.04.76-.12-1.34-.11Z"/><path d="m213.36.15c3.09.07,6.3.15,8.51.12,1.44-.03,2.28.03,3.56.09,4.3.23,8.55.39,12.57.46-3.99-.29-8.99-.46-13.87-.59-3.59-.09-7.16-.14-10.73-.17l-.04.08Z"/><path d="m3.65,15.74c.24-.07.6-.16.9-.25.3-.08.55-.14.54-.16,0,0-.07,0-.21.02-.15.03-.38.07-.72.13-.34.07-.79.16-1.37.3-.57.15-1.3.3-2.07.67-.09.05-.19.11-.23.17-.04.07-.05.03,0,.09.12.1.33.16.51.22.38.1.75.17,1.09.23.69.11,1.31.18,1.86.25,1.11.12,2.01.21,2.95.32.94.08.32.15,3.26.26,2.38.07,1.83-.02,1.39-.09-.42-.07-.65-.13-.97-.2-2.33-.1-4.67-.22-6.98-.46-.58-.06-1.15-.13-1.72-.23-.28-.05-.57-.1-.83-.18-.13-.04-.26-.08-.37-.13-.05-.02-.11-.06-.12-.07-.03-.03.02.02,0,.07-.02.03.09-.09.2-.13.11-.06.24-.11.37-.16.26-.1.54-.18.81-.26.55-.16,1.12-.29,1.69-.41Z"/><path d="m280.76,5.92c-.47.09-.54.2,5.56.31l4.27.03c.9.01,1.8.02,2.69,0,.57-.03,1.26-.04,1.96-.13.08-.01.17-.03.23-.05.02,0,.03,0,.04-.01,0,0,0-.01.01,0,.01.04.03.07.06.1.05.06.09.04.03.05-.03.01,0,.01-.06.05-.03.02-.1.09-.08.08-.04-.03-.27-.11-.43-.15-.36-.1-.74-.18-1.11-.25-.53-.07-1.06-.13-1.59-.19-.07.03.36.1.99.22.6.11,1.52.26,2.06.47h.02s.06-.11.12-.15c.12-.13.14-.02.04-.14-.02-.03-.04-.06-.05-.09l-.07-.12s0,0-.01,0c-.02,0-.04.01-.08.02-.12.03-.27.05-.42.06-.3.03-.61.04-.93.06-.63.02-1.26.03-1.89.03l-3.79-.04-7.59-.18Z"/><path d="m61.59,9.37l-2.98.15c-4,.32-8.22.75-11.62.91-.87.04-3.41.32-3.25.31.7-.01-4.81.51-.92.22,6.22-.58,13.02-1,18.78-1.59Z"/><path d="m282.12,6.32c-1.55-.02-3.86-.03-4.52-.06-2.62-.13-.14-.08.76-.08.61,0-.19-.05-1.25-.09-.61-.02-1.24-.04-1.73-.05-.48,0-.82,0-.83,0-.04.05.34.12.54.18,5.12.27,10.94.49,16.73.54l.18-.09c-.07-.01-.08-.02-.05-.03l-1.54-.02c-3.72-.02-7.26-.12-8.3-.3Z"/><path d="m99.46,6.68c-5.31.32-4.13.46-9.92.81,2.96-.08,5.98-.17,9.86-.52.43-.05.72-.11,1.33-.14,9.36-.53,2.46-.24.27-.19-.22.04.02.06-1.65.14l.33-.08c-.08,0-.16-.02-.22-.02Z"/><path d="m27.56,18.64c-1.23-.08-3.64-.19-6.11-.16-4.73.07-13.26-.39-16.42-.47,7.66.56,15.17.59,22.53.64Z"/><path d="m143.68,17.5l-5.51.03-2.88.02s-.58.08-1.47.1c-.89.02-2.06.04-3.22.06-5.44,0-10.53.11-15.34.29.46.03,1.94.04,2.94.02,8.23-.23,17.48-.25,25.47-.52Z"/><path d="m88.91,2.18c.28.11,1.24.18,6.66-.06,4.04-.17,9.14-.16,13.03-.32-5.87-.09-13,.23-19.69.38Z"/><path d="m306.48,13.58c-1.88-.24-5.6-.53-9.68-.81.8.16-1.32.16-4.13.12,2.86.2,5.43.27,8.07.39,1.43-.02,3.73.17,5.74.3Z"/><path d="m149.92,1.65c-4.94-.04-15.22.16-21.38.42,6.09-.03,12.22-.21,18.33-.33.15-.08,1.65-.08,3.05-.09Z"/><path d="m156.12,4.52c1.65-.04,2.79-.08,2.75-.12h-1.81s-.4-.02-.4-.02h1.34s1.11.01,1.11.01c1.69-.03,2.5-.07,2.64-.11-5.17.07-9.66.05-15.38.26.51.12,5.32.01,8.51,0,.41,0,.83-.01,1.25-.02Z"/><path d="m95.81,18.21c-6.49.08-12.94.16-18.46.33,2.18.04,4.23.05,7.48-.06,4.12-.13,9.24-.12,13.79-.22l-.26-.08c-.84,0-1.7.02-2.55.02Z"/><path d="m206.36.3c-5.8.03-8.93.24-7.04.38l5.67-.04c-.87-.08,3.32-.13,2.5-.21-1.65-.03-.96-.09-1.13-.13Z"/><path d="m75.66,8.26l-9.42.79c4.76-.28,9.49-.56,13.94-.97l-.51-.09-4.01.26Z"/><path d="m236.8,5.04l-3.63-.08-.63.05c5.29.14,10.67.33,15.58.35-1.58-.11-4.82-.22-5.41-.32-1.02-.01-1.88-.02-2.74-.03-.23.05-.36.09-3.16.03Z"/><path d="m213.36.15l.04-.08-7.04-.02c-1.44.09-1.34.17,0,.26,3.43,0,2.62.07,2.7.13.54.03,1.32.06,2.65.06,1.56,0,.63-.05.35-.07-1.07-.1-3.11-.22,1.31-.27Z"/><path d="m177.32,4.11l.08-.08c-4.81.03-10.09-.02-14.17.21.72.06-.35.21,5,0,2.32-.09,6.34-.03,9.09-.13Z"/><path d="m146.94,17.38l-.34.11c5.48-.02,10.42-.19,15.48-.35h-2.65c-2.81.02-2.86-.05-3.26-.1-.38,0-.76.01-1.16.02,0,.07-.22.14-1.33.2-1.12.06-3.14.1-6.75.13Z"/><path d="m208.83,15.59c3.73-.07,7.47-.15,11.19-.22,2.41-.04,4.23-.08,4.47-.16-4.98,0-10.52.2-15.7.27,0,.04-.02.07.04.11Z"/><path d="m159.44,17.12h2.65c4.03-.03,8.22-.04,11.51-.28-3.63.05-7.42.11-11.48.17-1.92.04-2.58.06-2.68.11Z"/><path d="m266.58,5.42c.16.02.2.03.48.05,2.02.13-5.73-.04.12.18,4.22.16,6.94.14,6.58,0-2.48-.1-5.11-.26-7.18-.23Z"/><path d="m209.46,9.55c-1.58-.11-3.2-.19-6.64-.21-2.85-.02-5.32-.1-6.77-.21-1-.01-2.28-.05-2.65-.02.82.06,1.64.11,2.46.17,4.41.1,8.77.2,13.16.3l.44-.03Z"/><path d="m139.73,8.72c2.45-.1-1.42-.14-4.91-.17-2.57-.04-4.19-.03-5.28.01l.06.08c3.31,0,6.62.02,10.12.07Z"/><path d="m306.46,14.44c-5.12.03-10.9.06-15.45.23,5.13.02,10.28-.16,15.42-.16l.03-.07Z"/><path d="m24.87,12.76c-.78-.2-6.7.7-10.14,1.14.23.03-.76.22,3.42-.34,2.09-.27,4.47-.55,6.71-.8Z"/><path d="m272.27,6.13c-.5-.07.03-.14-3.16-.25-4.3-.14-1.73.08-4.22.04,3.43.22,4.92.14,7.37.21Z"/><path d="m164.04.86c-2.1.07-4.2.14-6.3.21,3.97-.07,4.22,0,4.78.07.33.04,1.27.05,3.16.01.71-.02,1.81-.06,2.03-.08.63-.06-.92-.04-2.13-.03-4.38.03,3.51-.22-.3-.21-.4,0-.82.01-1.25.02Z"/><path d="m132.12,8.23c2.8-.02,6.61.24,8.79.07q-1.19-.13-8.79-.07Z"/><path d="m279.82,3.88c-3.7-.38-3.45-.44-4.28-.59-2.9-.27-6.09-.58-8.45-.68l.09.05c2.08.18,5.74.45,6.07.56.74.23,3.7.42,6.57.66Z"/><path d="m288.45,4.61c-1.81-.1,2.46.43,4.46.83.73.1,1.46.2,2.19.36.15.03.29.05.45.1.08.03.15.03.26.13.02.01.06.05.08.14.02.08,0,.15-.05.22-.07.08-.13.1-.17.12-.34.13-.62.16-.92.21.19-.01.37-.03.56-.05.1-.02.19-.03.3-.06.06-.02.11-.03.21-.09.03-.02.05-.04.07-.06.04-.05.07-.11.09-.17.03-.1-.06-.31-.09-.31-.3-.24-.43-.22-.62-.3-.18-.05-.35-.09-.53-.13-.69-.15-1.37-.26-2.06-.36-1.37-.19-2.75-.38-4.24-.59Z"/><path d="m27.51,18.19v-.11c-2.64-.06-5.28-.12-8.2-.14.03.05-.99.12,2.96.18,2.98.04,4.34.08,4.23.16,1.31-.01.9-.05,1.01-.09Z"/><path d="m292.67,12.89c2.8.04,4.93.05,4.13-.12-2.89-.07-7.12-.21-7.73-.11l.57.09,3.04.14Z"/><path d="m190.72.7c2.1,0,.98.07,1.34.11l4.23-.05c.66-.13.75-.26-5.64-.17l.06.11Z"/><path d="m98.36,18.18l.26.08c2.74-.04,5.09-.09,7.09-.17-1.75-.22-4.59-.05-7.35.09Z"/><path d="m217.59,10.22s.29-.04.01-.07c-.78-.08,3.28-.08-1.1-.21-3.88-.11-.54.09-1.1.13-.16.01-1.45-.01-2.22-.02.94.07,1.79.14,4.4.17Z"/><path d="m306.48,13.58c-2.01-.13-4.31-.32-5.74-.3l3.09.19c1.17.06,2.16.13,2.7.19,1.91.1,3.82.21,5.72.35l-1.19-.13-4.59-.3Z"/><path d="m43.51,11.3s-.11.03,0,.03c.49,0-1.6.25,1.84-.05,1.18-.11,3.37-.35,1.13-.24l-2.96.26Z"/><path d="m201.74,15.85c.09-.07,3.67-.19,2.81-.25l-4.33.1c.52.05-.99.15,1.52.14Z"/><path d="m50.27,4.75c.1.04,1.46-.05,2.95-.15,6.23-.61-1.37.03.31-.17-.27.01-.63.04-1.08.09l-1.87.18c-.39.04-.49.06-.32.05Z"/><path d="m266.01,2.99l-2.81-.17c1.24.17,4.66.41,6.78.62l.16-.06-.11-.08c-.76-.06-1.34-.11-1.91-.16-.22.02-1.17-.06-2.11-.15Z"/><path d="m47.33,18.75c-.24-.07-3.31-.04-4.22-.08l-2.25.03,1.81.05c1.49.02,3.04.03,4.66,0Z"/><path d="m294.76,6.73c.3-.05.58-.08.92-.21.04-.02.1-.04.17-.12.05-.07.07-.14.05-.22-.02-.09-.07-.13-.08-.14-.12-.1-.18-.1-.26-.13-.15-.05-.3-.08-.45-.1.18.05.36.1.56.19.05.03.11.04.17.16.04.08.01.16-.04.22-.03.03-.08.06-.1.07-.12.05-.21.07-.31.09-.38.06-.76.08-1.13.1-.75.03-1.49.04-2.24.04l-.18.09c.97.01,1.94.02,2.92-.03Z"/><path d="m228.39,4.94c-.84-.08-1.97-.15-4.44-.11,1.19.06,1.66.16,4.44.11Z"/><path d="m266.77,14.86l-4.46.1c-.21.1,2.26.04,4.45,0v-.1Z"/><path d="m215.67,4.66c-2.11-.02-4.5-.07-5.99-.02,3.04.11,4.67.08,5.99.02Z"/><path d="m28.64,13.03c1.39-.16,2.98-.42,4.79-.67-1.55.18-2.46.24-4.79.67Z"/><path d="m311.08,13.88l1.19.13,1.4.12.7.07.34.05.15.03s.04.01.03,0c.03.02-.08-.03-.1-.12-.02-.09-.02-.12,0-.19.03-.07.1-.11.13-.11h-.01s.06-.01-.03.02c-.07.04-.11.15-.09.2-.02.09.15.2.11.16h0c-1.16-.25-2.52-.32-3.83-.38Z"/><path d="m247.56,1.33s-.03.01-.19,0c.2,0,.41.02.66.03.13-.02.27-.04.4-.06l-.87.02Z"/><path d="m306.54,13.66c-.54-.06-1.54-.13-2.7-.19-.04.06.89.12,2.7.19Z"/><path d="m200.83.07c.16.03-.1.07,1.47.05,1.15-.01.93-.04.08-.05h-1.55Z"/><path d="m270.14,3.38l-.16.06c1.45.11,2.45.17,2.92.17l-2.76-.23Z"/><path d="m263.1,2.83l-3.7-.25c1.55.16,2.79.24,3.7.25Z"/><path d="m208.76,15.59l.03-.11c-.94.01-1.42.03-1.47.06.13.03-.56.08,1.44.05Z"/><path d="m88.21,7.56l-.46-.04c-1.48.1-.57.08-.88.12.45-.03.9-.05,1.34-.08Z"/><path d="m149.92,1.65c-1.4,0-2.9.01-3.05.09,1.28-.02,2.56-.03,3.05-.09Z"/><path d="m209.02,9.59c-4.39-.1-8.75-.2-13.16-.3-1.53-.03-2.2-.02-2.33.01l-.19.1c2.43.06,3.23.11,2.36.15-.41.02-.98.04.63.08.47,0,1.21.02,1.84.03.63,0,1.12,0,1.12,0-.29-.16,6.15-.02,8.65-.04.51,0,.73-.02,1.08-.04Z"/><path d="m117.2,8.18c-2.99-.05-5.98-.09-8.89-.04,5.02.03.92.14,4.45.18l5.65.09c-.72-.08-3.72-.16-1.21-.23Z"/><path d="m268.22,11.72c2.38.16,5.48.29,8.7.42-.1-.05.36-.08-.43-.14-1.05-.08,3.19.03-.65-.13-2.66-.11-2.14-.03-1.86.03.13.03.14.11-1.59-.04-3.17-.26-2.51-.05-4.18-.14Z"/><path d="m166.46,8.71l-4.26-.1c-.55.03-4.19.01-.98.1,3.4.1,4.54.05,5.24,0Z"/><path d="m176.59,8.93c1.24,0,2.38-.01,1.62-.05-2.27-.11-4.88-.08-7.39-.13.22.1,3.5.13,5.77.18Z"/><path d="m252.86,10.88l-5.62-.19c.3.08,2.08.16,4.32.23,1.74.05,1.17-.02,1.3-.05Z"/><path d="m314.93,14.02c-.36.04-.78.04-1.19.04l-.16.07c.43,0,.88,0,1.33-.04.06,0,.12-.02.09,0-.04-.02-.1-.03-.15-.04l-.33-.05c-.22-.02-.43-.05-.64-.07-.83-.08-1.54-.12-1.93-.12l1.59.14.79.09.39.06c.06.01.13.02.19.04.02,0,.09.05.03-.02-.03-.06.02-.13.04-.12h-.04Z"/><path d="m161.11,8.6c-.59-.09-2.59-.1-4.61-.1l.14.07c1.51.01,2.99.02,4.47.03Z"/><path d="m188.32,9.44c.31.01.6.03.88.04l.81-.02c-.37-.01-.8-.02-1.08-.03-.28,0-.41,0-.61.01Z"/><path d="m263.87,11.56l3.28.12c-.41-.04-.71-.08-1.27-.1-1.59-.07-1.57-.03-2.01-.02Z"/><path d="m177.86,9.05l-1.37-.09c-2.14.02-.47.05,1.37.09Z"/><path d="m156.64,8.57c-.38,0-.85,0-1.23-.01-.37,0-.65,0-.64.01,0,0,.55.03.83.03,1.29.02.93-.01,1.04-.03Z"/><path d="m193.34,9.4l.19-.1c-1.83,0-1.98.03-.19.1Z"/><path d="m231.91,10.45s-.25-.02-.45-.03c.03.02.25.02.45.03Z"/><path d="m310.69,14.14l-.06.04,2.92-.05c-.93,0-1.89,0-2.85.01Z"/><path d="m182.15,9.1l.32.02c-.12,0-.24-.02-.32-.02Z"/><path d="m155.79,8.49l-.41-.04c-1.23,0-.98.02.41.04Z"/><path d="m188.04.6c1.72-.09,4.4-.19,2.43-.25-.84-.02-1.85-.04-3.62-.01-2.62.05-2.92.11-3.27.16,1.36.03,2.04.08.88.17-.53.04-.4.07,1.14.04,1.86-.03,2.15-.07,2.43-.12Z"/><path d="m67.65,3.73c3.78-.26,2.52-.26,2.85-.34-1.4.08-3.37.24-3.58.19-.1-.03-1.47.03-2.71.13-1.28.1-2.44.25-2.89.32-.74.12,1.71-.11,2.48-.14,1.51-.06,2.59-.1,3.85-.16Z"/><path d="m140.33,1.42c-2.58-.13-7.36.03-11.88.14,3.31.04,7.06.02,11.88-.14Z"/><path d="m143.84,1.34c-.48.01-.97.02-1.46.04-.25.01-.4.02-.75.04-2.72.1-4.53.18-1.72.21.73,0,2.75,0,2.4-.04-.81-.07,8.13-.28,1.53-.25Z"/><path d="m175.11.62l-4.09.07c-.04.05-3.45.2.17.14,2.68-.04,4.55-.15,3.91-.22Z"/><path d="m155.81,1.11h-4.55c.11.03-2.34.13-.25.13,1.66,0,3.45-.06,4.8-.13Z"/><path d="m76.33,3c.83-.03,1.32-.05,1.81-.06.52-.03,1.03-.07,1.54-.1-.44.01-.84.02-1.32.04-.5.03-1.08.07-2.03.13Z"/><path d="m148.19,1.16l-3.93.11c-.18,0-.37.02-.57.03l.18.03c1.76-.05,4.36-.08,4.32-.16Z"/><path d="m178.73.54c-1.16,0-2.33-.01-3.52.08l3.52-.08Z"/><path d="m84.87,2.4c.4,0,.6-.02.8-.04-.15,0-.29.01-.8.04Z"/><path d="m26.13,12.1c-1.57.18-3.38.37-4.3.52-.69.19-5.44.67-7.31,1-.71.12-3.12.33-4.16.57-.64.14,1.71-.16,3.16-.31,1.48-.16,2.64-.3,4.68-.59,2.56-.37,5.55-.74,7.87-.87,1.39-.08,3.88-.39,5.34-.57,2.56-.3.48-.13-1.02,0-2.37.19-4.7.39-4.27.25Z"/><path d="m27.51,18.19c-.11.03.29.08-1.01.09-.33.04-3.8,0-2.09.09.6.03,1.98.07,2.89.08,3.04.02,1.02-.07,1.69-.1.37-.02.65-.03,1.21-.05,1.09-.02,4.28-.03,3.08-.08-1.38-.06-3.67,0-5.76-.02Z"/><path d="m17.19,18.17c-.3-.01-.59-.03-.87-.04h-.82c.37.02.78.04,1.08.05.27,0,.41,0,.61,0Z"/><path d="m52.91,9.64l1.4-.11c-.46.04-.94.08-1.4.11Z"/><path d="m64.63,10.13c-.29,0-.38-.03-2.27.1.26.01,1.16-.03,2.27-.1Z"/><path d="m115.18,5.78l-2.89.13s.63.09-.25.14c-1.57.1-2.97.19-2.44.23.26.02,1.12-.04,1.46-.07,1.25-.11,5.43-.28,4.31-.33-.37-.02-.14-.07-.18-.1Z"/><path d="m123.58,5.53c-.89,0-.95-.05-2.98.03-.28.01-.99.07-.91.08.4.04,2.36-.05,3.89-.11Z"/><path d="m156.12,4.52c-.42,0-.83.01-1.25.02,0,.03-.26.06,1.37.04l-.13-.06Z"/><path d="m99.68,6.7l-.33.08c1.67-.09,1.42-.11,1.65-.14l-1.32.07Z"/><path d="m106.59,6.24l.5.02c1.36-.09-.03-.03-.5-.02Z"/><path d="m112.76,8.33c-3.53-.04.57-.15-4.45-.18-1.83-.01-3.12.05-4.08.09-2.02.11-4.5.23-.73.21,5.92,0,6.18-.08,9.26-.12Z"/><path d="m88.97,8.95c2.04-.1,5.3-.15,5.12-.24-.06-.03-.88-.06-3.19.05-2.24.11-5.52.29-5.64.33-.25.08,2.67-.12,3.71-.14Z"/><path d="m91.19,8.63c-1.6.03-2.59.03-3.75.08-1.46.06-4.07.18-4.17.24-.05.03.9.02,2.46-.05,1.67-.08,3.3-.16,5.46-.26Z"/><path d="m71.74,9.74c-.19-.01-.2-.04-1.68.04-.46.03-.71.06-1.06.09l2.74-.14Z"/><path d="m96.81,8.55c-.46.03-.18.02.11,0h-.11Z"/><path d="m74.44,9.64l-.64.03-.64.03c.43,0,.86-.03,1.29-.06Z"/><path d="m241.74,1.11c.29.08,1.76.17,3.82.26,2.62.12,1.59,0,1.84-.03-2.55-.15-2.65-.04-5.66-.23Z"/><path d="m209.06.43c-.07-.06.74-.13-2.74-.13.21.05-.48.1,1.17.13h1.57Z"/><path d="m241.71,1.11l-.31-.03c.11.01.23.02.31.03Z"/><path d="m95.81,18.21l2.58-.02c-.45-.02.86-.09-1.2-.06-1.18.02-1.46.06-1.38.09Z"/><path d="m130.6,17.71c1.16-.02,2.34-.04,3.22-.06.88-.02,1.48-.06,1.47-.1-1.73.05-3.66.09-4.69.16Z"/><path d="m279.82,3.88c-2.87-.25-5.84-.44-6.57-.66-.33-.1-3.99-.38-6.07-.56,1.14.17,2.05.31,3.46.53,3.04.42,8.62.93,13.2,1.28.57.04.86.05,1.56.11,2.6.26,2.79.16.21-.19q-1.08-.14-1.7-.13c-.29,0-.22.06-2.18-.14-.6-.06-1.26-.17-1.9-.26Z"/><path d="m290.42,6.62l1.54.02c2.72-.13-1.51-.25-1.37-.39l-4.27-.03c-.41.11,5.24.3,4.1.39Z"/><path d="m293.94,5.95c.38.07.76.15,1.11.25.16.04.39.12.43.15-.02.02.05-.05.08-.08.06-.04.03-.04.06-.05.06-.01.01,0-.03-.05-.03-.03-.05-.06-.06-.1,0-.01,0,0-.01,0,0,0-.02,0-.04.01-.06.02-.15.03-.23.05-.7.09-1.39.1-1.96.13.04,0,0,.01.14.02.95,0,1.34.02,1.77,0,.11,0,.22-.01.33-.04.06,0,.11-.06.09-.01,0,.01-.07-.05-.13-.08-.29-.13-.69-.23-1.27-.34-3.4-.57.38.18-.28.14Z"/><path d="m286.48,4.8c-.41-.04-.88-.08-.85-.07.12.03.43.09.66.14.19.01.52.04.53.03.01-.02-.19-.06-.34-.09Z"/><path d="m266.01,2.99c.94.08,1.89.17,2.11.15-.89-.08-2.14-.21-2.11-.15Z"/><path d="m270.03,3.3l.59.03c-.26-.02-.51-.03-.59-.03Z"/><path d="m75.66,8.26l4.01-.26c1.19-.22,7.9-.61,10.08-.84-.22-.04.34-.13-2.88.06,1.37-.01-.97.16-2.45.27-1.81.14-2.67.14-3.36.14l-4.07.26c-7.64.65-7.77.7-1.33.37Z"/><path d="m81.07,7.63c.68,0,1.55,0,3.36-.14,1.48-.11,3.82-.29,2.45-.27-2.2.13-4.93.27-5.8.42Z"/><path d="m61.1,9.06c3.87-.11,5.08-.4,7.59-.59-3.08.15-5.37.37-7.59.59Z"/><path d="m52.89,9.64l1.46-.12c-.49,0-.97.04-1.46.12Z"/><path d="m236.8,5.04c2.79.07,2.93.02,3.15-.03-.42-.08,1.04-.03,2.59.03.88-.05.26-.16,4.28-.07.82-.07-3.57-.15-4.2-.23-5.67-.03-6.13.13-5.83.3Z"/><path d="m282.09,6.32l1.79.05c-1-.06-1.26-.04-1.79-.05Z"/><path d="m245.28,15.04c-.68.05-.86.08-1.05.12,2.86-.06,5.71-.11,8.55-.17,2.57-.05,2.63-.1,2.73-.15-1.53.02-3.4.07-4.31.04l-5.93.15Z"/><path d="m285.27,14.32c-.06-.04-.2-.08-1.77-.06-.71,0-1.65.05-2.48.08,1.01.03,2.68,0,4.26-.02Z"/><path d="m251.21,14.88c.91.03,2.78-.02,4.31-.04-.88-.03-2.63,0-4.31.04Z"/><path d="m268.22,14.8s1.34-.06.08-.06c-.13,0-.53.01-.65.01-.82.04-.34.05.58.05Z"/><path d="m180.26,4.42c2.39-.04,4.53.2,7.09-.02.4-.16-4.78-.06-7.16-.08.04.04.05.07.07.11Z"/><path d="m209.95,4.37h-.58c.18,0,.36,0,.58,0Z"/><path d="m180.19,4.31h-.31c.11,0,.22,0,.31,0Z"/><path d="m310.69,14.14h2.88s.16-.08.16-.08c-2.02,0-3,.03-3.05.08Z"/><path d="m146.94,17.38c3.62-.03,5.64-.07,6.75-.13,1.12-.06,1.33-.12,1.33-.2l-1.56-.13c-5.38,0-8.44.2-12.63.3-.51.14-.15.24,6.1.15Z"/><path d="m215.48,15.6h.62s-.26-.02-.62,0Z"/><path d="m144.26,1.27h-1.01c.15.01.3.02.45.03.19,0,.38-.02.56-.03Z"/><path d="m201.7,15.85c.49,0,.98,0,1.5,0,.01,0,.26-.01.4-.02-.62,0-1.24.02-1.9.03Z"/><path d="m121.04,17.5h-2.71c.19.05.32.1,2.71,0Z"/><path d="m244.24,15.16c.18-.04.37-.08.56-.12-1.4.03-2.96.06-3.19.11-.24.05,1.12.04,2.64,0Z"/><path d="m228.15,4.78c.16-.04.21-.07-1.17-.13.15.04-.49.07,1.17.13Z"/><path d="m221.27,4.44l.29.02c-.1,0-.21-.01-.29-.02Z"/><path d="m232.47,4.72c-.3-.03-.27-.07-.96-.1-.91-.04-1.77-.02-1.49,0,.57.05-2.32.08,2.04.16.14-.02.28-.05.42-.07Z"/><path d="m232.47,4.72c-.14.02-.27.05-.42.07,2.16.03,1.99,0,.42-.07Z"/><path d="m144.34,4.81c-.2,0-.38,0-.62,0-.03,0-.5.02-.53.02-.06.01.02.02.04.03l1.1-.05Z"/><path d="m41.8,18.48h.57c-.21,0-.42,0-.57,0Z"/><path d="m74.66,3.29l-2.2.16h.56c.58-.06,1.16-.11,1.65-.16Z"/><path d="m157.05,4.4h1.81c-.13-.03-.5-.04-.87-.04l-.94.04Z"/><path d="m242.55,5.03c-1.55-.06-3.01-.11-2.59-.03l2.59.03Z"/>
                  </g>
                </mask>
              </defs>
              <path class="mask" d="m25.35,7.98c13.83-1.94,34.91-4.39,61.22-5.43,8.08-.32,13.94-.39,18.24-.45C186.78.98,198.61-.46,230.9.74c34,1.27,64.96,4.51,64.8,5.49-.23,1.38-61.51-3.26-141.83-1.52C73.06,6.47-.05,14.1.33,16.7c.49,3.34,122.65.82,154.52.27,21.36-.37,30.49-.7,49.75-1.15,10.76-.25,30.65-.65,52.34-1.01,20.73-.35,31.09-.51,43.27-.58,12.57-.08,14.82-.01,14.82-.13.02-.72-91.07-5.15-198.79-5.75-3.56-.02-6.52-.03-8.57-.04,0,0-7.81-.03-32.9,1.21-23.55,1.17-54.84,2.67-66.04,9.53-1.37.84-4.56,2.79-3.86,5.03.85,2.71,6.28,4,7.67,4.25"
                    mask="url(#path-mask)" stroke="black" stroke-width="2" fill="none"
                    stroke-dasharray="1205.6181640625" stroke-dashoffset="1205.6181640625">
              </path>
            </svg>
        