
            <svg xmlns="http://www.w3.org/2000/svg">
              <defs>
                <mask id="path-mask">
                  <g fill="white">
                    <path d="m374.16,1.7c1.47-.15.53-.45.82-.68l1.06.1c.87.21,1.88.35,2.71.61,1.7.53,4.87.29,6.22-.35.93.05,1.52-.05,1.91-.25,1.24.17,3.08-.23,4.03.2.26.28,1.35.54.45.86-.66.21-1.37.32-2.43.14-.87-.15-1.67-.12-2.16.14h-.82c-1.01.16-2.4-.66-3.19.09-.16,0-.39-.01-.57-.02-.19,0-.34-.01-.34,0-.8.65-2.68.37-4.3.31l-.03-.17c.44-.08.35-.12-.15-.14-.08.01-.17.01-.25.01l-.05-.25c.28-.02.68.01.68-.1,0-.02-.2-.07-.3-.07-.47,0-.34.1-.38.16l-1.61.13c-.13.01-.26.01-.4.01.2-.14,1.52-.27.35-.42-1.23-.16-1.65.08-1.9.31-.23.24-.75.29-1.58.14-.08-.35-1.27-.22-2.09-.26l.04-.11c.77-.19.17-.22-.5-.24-.9-.23-.99.12-1.55.13l-.12-.05.13.04c-.05.2.29.46-1.35.38-1.02-.05-1.9.03-1.72.35l-1.01.04-.89-.4c.55-.01.79-.09.84-.21.66-.12.72-.24.07-.37-.88-.02-1.17-.12-.86-.32.15-.09.35-.21-.23-.23-.34-.01-1.08.08-1.07.12.11.52-2.22.55-3.13.85-.18.06-.26.14-.39.21l-.16.15c-2.08.03-4.26-.13-6.13.27-.47.1-1.13-.02-1.6-.09-.85-.13-1.42-.07-1.88.12l-4.01-.2-.07-.16c-.11-.22-.76-.32-1.57-.29-.63.02-.42.19-.47.3-2.23.09-4.45.19-6.78.24l.09.05c-.03.06.15.14-.29.16-.13.09-.17.19-.74.18.2-.33-.91-.41-1.82-.46-1.95-.12-4.22-.3-5.93-.1-1.18.14-1.98.16-3.13.15-.7,0-.31.22-.37.35l-6.71.05v-.24c.45-.14.34-.28.12-.43-.38-.27.19-.4,1.39-.39l1.06-.13c.63-.02,1.39.03,1.67-.18l-1.16-.07c-.15-.12-.83-.24.05-.35.46.13.93.15,1.42,0h1.67c.69.4,2.04.67,3.52.92,1.05-.27,2.58-.46,2.79-.87,1.47.05,2.93.13,4.41,0,.04.14-.13.31.16.4.38.13-1.15.34.24.35.97,0,.78-.2.67-.36-.05-.07-.06-.33.57-.09,1.15.45.91-.18,1.9-.1.15.06.26.18.46.18.58.02.57-.11.73-.2,1.87.03,3.69-.19,5.69.01,1.04.11,1.59-.27,1.89-.51l9.19-.02c0,.08-.1.17,0,.24.28.2-1.18.58.4.59,1.41,0,.19-.34.39-.53.06-.05.52-.08.8-.12,2.59-.29,5.39-.26,8.07-.26.78,0,2.05-.33,2.68.06.71.36,5.36.81,6.85.65Zm-8.9-.47l-.29.12c.13.01.29.04.39.03.1,0,.15-.05.22-.09-.11-.02-.22-.04-.32-.06Zm-15.27.47c-.06,0-.14-.01-.21-.02.01.05.09.05.21.02Z"/><path d="m37.48,3.15c-3.43.13-6.82-.1-10.23-.13-.45-.67-2.66-.3-4.08-.39-.29-.2-.25-.44-1.77-.25-.92.12-2.26.06-3.44.08-.95-.09,1.98-.82-1.5-.48-.51-.02-1.23.06-1.3-.17-.04-.12-.53-.26-.98-.22-.46.04-.89.18-1.06.3-.27.2.62.11.9.16.55.11.94.27,1.39.4-.28.16-1.53.07-1.46.32-.76-.36-3.46.12-3.45-.38,0-.25,1.09-.53,1.56-.83.48-.31,2.56-.37,4.2-.32.74.03,1.45.14,2.19.15.71.02,1.59.22,2.11.03.56-.2-1.41-.12-1.05-.36,1.13-.17,2.32-.24,3.64-.09.1.39.44.68,2.41.35,1.47-.25,3.31.3,4.72-.09h.54s1.03.12,1.03.12c1.73.42,3.59.5,5.62.14,1.2.32,2.55.48,4.3.26h.74c-.09.03-.14.07-.27.09-.99.14-1.64.3-.63.57.27.07,1,.15.87.03-.29-.28,2.95-.37.57-.76.64-.04,1.58.02,1.57-.25h1.11c.04.16-.85.3-.1.43.6.1,1.25.04,1.74-.08h.7c1.44.06,1.53.33,1.73.58.12.15.46.26,1.14.27.26,0,.66-.06.74-.11.23-.15-.33-.19-.77-.25-1.58-.22,1.27-.47-.1-.69.34-.24,1.23-.22,2.06-.22v.17c0,.17-1.24.39.07.48.97.07,1.65-.14,1.46-.41h1.27s1.76.25,1.76.25c.49.19.74.39.31.61-.19.1-.15.2.41.22.67.02.78-.1.88-.22l.95.12.02.37c-1.6-.04-3.41.11-4.48-.37-.41-.18-1-.08-1.1.1-.07.13.06.28-.62.36-2.78.32-5.64.34-8.58.09-1.79-.48-5.51-.46-7.75.04Zm-18.26-1.19c.19,0,.37-.05.56-.08-.16-.04-.3-.1-.48-.1-.18,0-.39.04-.74.08.3.05.48.1.65.1Z"/><path d="m205.33,2c1.34-.1,1.96.13,2.64.33.34.1.12.39,1.19.28.86-.09.66-.29.5-.47-.15-.17-.24-.35-.35-.52l3.15-.06c.01.18-.36.43,1.07.4,1.08-.02,1.57.09,1.53.34-.12.14-1.38.17-.76.38.22.07.72.15,1.05.14,1.1-.03.37-.25.61-.38.13-.07.23-.15.44-.21.39-.11,1.55-.18,1.12-.33-.5-.17-1.33.1-2.09.07v-.34c2.99-.09,5.89.01,8.75.21-.47.38-.77.81-3.23.5-.41-.05-1.06-.03-1.23.12-.18.16.33.2.89.23.18.19.36.39.48.6l-.81.1.66.16c-1.95.24-3.77.18-5.48-.12-.45-.23-1.32-.5-2.21-.27-1.71.44-4.81-.23-5.95.48-1.66-.18-3.42-.05-5.13-.07.07-.42-1.24-.48-2.34-.36-.98.11-1.56.07-2.29-.04.25-.37,1.98-.11,2.67-.34.26-.09,1.14.28,1.52.01.24-.16-.62-.31-1.15-.44-.54-.13-.96-.16-1.71-.02-.94.17-2.03.29-2.87-.09-.5-.23-1.41-.06-1.95.03-.93.15-.18.25.37.35.86.16,1.71.34,1.55.64l-.55.11c-.96-.47-2.82-.29-4.4-.34-.61-.02-2.02.15-1.61-.3.1-.11-1.81.07-1.87.19-.11.25-.63.23-1.32.23h-.51c-.95.09-2.09.27-1.69-.21.48-.27.46-.26-.35-.35-.36-.04-.83-.1-.91-.18-.27-.26,1.17-.18,1.4-.36,1.45-.05,2.99-.32,4.22.13.32.12,1.24-.06,1.18-.09-.25-.17,1.75-.24.34-.43.06-.12.22-.14.8-.12,1.9.06,3.8.25,5.74.03.27.89,2.44.18,3.7.24,1.46,0,2.53-.33,4.08-.25-.36.24-1.46.59,1.11.4Zm6.05.39l-.3.11c.13.01.28.04.39.03.1,0,.15-.05.22-.08-.11-.02-.21-.04-.32-.06Z"/><path d="m423.51,2.39c1.83-.21,4.07.13,5.75-.28,1.5.5,3.78.07,5.55.21.5.04.7.02,1.06-.05,1.1-.2,1.37-1.21.15-1.33-1.29-.12-1.69-.31-2.02-.59-.34-.29-.98-.58-2.2-.09-.13.05-.64.11-.86.1-2.11-.17-4.13.09-6.21.11-4.78.04-9.56.15-14.34.24v.27c.42,0,.75,0,.84.12.71-.06,1.56-.13,2.15-.13,1.41-.02,3.15-.29,4.27.09.67.22,5.54.61,6.53.46.16-.03.34-.1.31-.14-.24-.37.68-.2,1.1-.12.5.09.81.24,1.25.35.25.06,1.02-.04.95.1-.05.09-.49.17-1.09.21-1.25.07-3.03,0-3.19.49Z"/><path d="m152.32,3.63c1.25-.08,2.73-.02,3.55-.34-.36-.04-.82-.13-1.07-.11-.96.09-1.87.23-2.58-.08-.58-.25.24-.39.82-.56,1.04-.3,1.84-.16,2.69.05.53.13,1.41.18,1.84.08,1.47-.35,2.13-.02,3,.16.56.02,1.27-.03,1.41.16.03.04-.23.13-.33.13-.74-.01-.76-.18-1.08-.29l-1.58.62c1.04.5,2.39.18,3.65.08-.03-.17.05-.32.97-.35-.02-.12.07-.24-.06-.35-.4-.33,1.11-.28,1.57-.44.12-.04.44-.08.53,0,.19.18-.32.26-.89.36-.32.06-.08.28-.09.43.5-.17,1.93.1,2.08-.24-.18-.04-.69-.07-.2-.16l.18.16c.73.08.28.39,1.19.38.32,0,.58-.24.87-.38-.01-.1.1-.19.53-.24-.02-.04-.05-.07-.08-.11h-.48c-.8-.2-3.3-.41.1-.57.22-.01.33-.16.48-.24-1.46,0-3,.19-4.32-.18-.16-.04-2.13.25-3.44.27-.36.15-.81.17-1.6.19-2.31.05-4.72-.27-6.92.09-.89-.37-2.47.05-3.41-.16-.91-.2-1.65-.26-2.79-.08-1.54.24-2.22.06-2.25-.32l-2.55.04c.12.24-.58.39-1.09.56,1.16.31,2.37.62-.09.91-.32.04-.11.14.21.19,1-.24,2.45.1,3.29-.1,1.94-.47,1.55,0,1.81.22h.54c.05-.14.34-.22.96-.22.07-.18.48-.24,1.08-.25l-.04-.2c.59.02.5.12.5.21,1.16.2,2.9.24,3.08.68Z"/><path d="m394.58,2.16c.66,0,1.13-.09,1.47-.21.73-.25,1.63-.49.26-.77-2.15-.44-2.24.24-3.35.36l-2.05-.2c-.96-.43-2.8-.04-4.03-.2l-.03-.31c1.19.03,2.56-.33,3.45-.06,1.12.33,2.28.24,3.59.16,5.14-.31,10.32-.31,15.5-.21.09.15.09.29-.56.38h-1s-.51-.12-.51-.12c-.16-.06-.31-.07-.47,0-3.27.09-3.73.23-2.48.75.04.02.05.04.07.05,2.89-.35,3.67.7,6.49.48,1.18-.09,2.74-.13,3.06.32-.77.01-1.64.38-1.89.19-.49-.36-1.3-.17-2.09-.17-2.81,0-5.55-.03-8.44.05-4.11.12-8.36-.02-12.57.07-.84.02-2.17.13-2.24-.25.49-.26,1.28-.29,2.16-.14,1.06.18,1.77.08,2.43-.14,1.08.11,2.17.25,3.22-.04Zm5.15-.88c.02.13.32.36,1.16.29.81-.08,2-.26,2.04-.4.09-.29-.97,0-1.35-.06-.74.04-1.92-.21-1.86.18Zm2.42,1.07c.53,0,1.48,0,1.51-.23.02-.13-.33-.25-.89-.23-.61.01-1.2.09-1.98.15.58.14.94.3,1.36.31Zm-3.13-.84h-.31s.04.04.04.04c.23,0,.24-.02.27-.04Z"/><path d="m65.18,3.33c1.28-.1,2.27-.06,3.71.06,2.09.18,4.7.06,7.07.03,1.19-.02,2.46.14,3.57-.06v-.35c-.25-.16-.92-.41-.12-.47,2.38-.17,2.06-.8,3.71-1.07-.88,0-1.65.08-2.34.2-.09,0-.16.01-.23.03-.09.16.28.37-.67.44-.75.06-1.28-.01-1.39-.21l-.12-.05.11.05c1.1.12,1.14-.26,2.05-.23.06-.02.08-.04.07-.06-1.04-.37-2.32-.01-3.46-.07-1.46.36-3,.34-4.56.03-.46-.09-.77-.22-1.29-.01-.8.33-1.96.21-3.08.09-1.6.25-.87.58-.48.89.1.08.44.2-.13.25-.48.04-.76-.04-.96-.14h-.57c.3.27-1.22.39-.91.66Z"/><path d="m243.77,3.27c1.01.2,2.07.36,3.46.19,1.74-.35,3.59-.41,5.56-.12.37-.16,1.07-.19,1.7-.26l1.04.1c-.12-.11-.32-.32-.36-.32-1.91.08-3.19-.36-5.03-.32-1.34.03-2.56.01-2.93-.37-.01-.01-.15-.02-.22-.02-.25.04-.51.08-.76.13.22.43-1.13.39-2.16.35-3.39-.11-6.79.13-10.23-.09-2.07-.13-2.19-.02-1.2-.48.3-.14.5-.29.74-.44-1.97.09-4.26-.14-5.84.33.37.04.73.09,1.12.1.63.02,1.54-.24,1.82.02.11.11-.88.31-1.51.43-.33.06-.97.04-1.47.05-.42,0-.87,0-1.07.11-.26.14.17.21.61.28.68.1.86.35,1.91.34,1.33.25,2.8.39,4.55.26,2-.37,4.34-.37,6.69-.35-.03-.1.07-.23.5-.22.75,0,.27.17.44.26.99-.35,2.02-.78,2.65.04Z"/><path d="m407.83,1.09l-.51-.12h-.23s-.23,0-.23,0c-3.27.09-3.73.23-2.48.75.04.02.05.04.07.05,2.89-.35,3.67.7,6.49.48,1.18-.09,2.74-.13,3.06.32.85-.2,2.38-.1,3.01-.39-.82-.24-.02-.61.41-.61,1.25,0,.49.32.67.5.04.04,0,.08,0,.12.96.34,2.59-.06,3.67.15.66-.13,1.25-.12,1.75.04.16-.49,1.94-.41,3.19-.49.6-.04,1.05-.12,1.09-.21.07-.14-.7-.03-.95-.1-.44-.11-.74-.26-1.25-.35-.42-.08-1.34-.25-1.1.12.03.04-.15.11-.31.14-.99.15-5.86-.23-6.53-.46-1.12-.37-2.86-.1-4.27-.09-.59,0-1.44.07-2.14.13-.69.12-.72-.01-.83-.12v-.27s-1.03,0-1.03,0c.09.15.09.29-.56.38-.13.06-.22.16-.38.17-.54.03-.54-.09-.61-.17Z"/><path d="m87.71,1.56l.03.14c.41.27.74.56,1.26.82,1.11.56,3.14.63,4.81.16.21-.06.31-.15.57-.18.95-.11,1.01-.52.07-.68q-.39-.07-.62.2c-.11.12-.08.29-.79.29-.22,0-.46-.14-.69-.22-1.35-.1-1.26-.39-1.56-.63,1.54-.15,3.11-.13,4.7-.04-.66.38.9.48,1.64.68l.8-.23,1.62-.11s.03.06.02.1c-.99.43.54.81.49,1.22h-.98s0-.04-.05-.05c-.69-.13-.56-.54-1.41-.47-1.25.1.14.4-.09.61l-.58.27c-2.37-.05-4.79.06-7.1-.15h-1.01s-.04-.24-.04-.24l.21-.06-.28.05h-.63c-.32-.02-.78-.13-.76.07l-1.02.12.14-.04.16.04c-.7-.27-2.44-.24-2.93-.68-.23-.21-2.43.18-3.63.35-.2.03-.33.08-.48.13-.26-.16-.94-.41-.13-.47,2.38-.17,2.06-.8,3.71-1.07,1.59-.15,3.12-.13,4.58.09Zm6.76,1.32c.04.07.16.13.24.2.07-.03.19-.07.19-.1,0-.05-.07-.11-.13-.18-.15.04-.32.07-.31.09Z"/><path d="m163.63,3.18c-.92.03-1,.18-.97.35l.86.04.66-.02c1.65.08,3.24.2,4.99.04.71-.07,1.75-.08,2.6.05.93.14,2.7.15,3,.11,3.17-.41,6.24-.2,9.29.01,1.12.08,1.82-.11,2.74-.11h14.05c.5,0,1.02.05,1.31-.09.07-.42-1.24-.48-2.34-.36-.98.11-1.56.07-2.29-.04-.34.16-1,.12-1.57.14l-.55.11c-.96-.47-2.82-.29-4.4-.34-.61-.02-2.02.15-1.61-.3.1-.11-1.81.07-1.87.19-.11.25-.63.23-1.32.23-.17.11-.35.11-.52,0-.94.1-2.08.27-1.68-.21h-.77c-.81.18-1.64.33-2.76.11-.93.28-1.83.65-3.02.05l-1.48-.02c-.32.29-1.31.19-2.11.2-1.17.02-.96-.19-1.04-.35-1.35.42-2.7.29-4.05,0-.29.13-.55.37-.87.38-.91.01-.46-.3-1.19-.38-.13.34-1.56.07-2.06.24h-1.05Z"/><path d="m108.76,3.33c.72.22,1.52.34,2.6.12-.61-.2-1.21-.41-.49-.64.57-.18,1.01.14,1.62.06.81.39,1.27.16,1.8-.04.61-.23,1.21-.28,1.62.04,1.46-.07,1.23-.37,1.49-.6-.22-.27-1.39-.37-1.96-.58-.97-.25-2.25-.31-3.48-.2-.92.08-1.72.09-2.6.03-.9.15.03.58-1.53.59-1.16,0-.96-.28-1.15-.46l-1.03.03c.07.17.21.35.2.52,0,.11-.48.16-.93.15-.39,0-.68-.07-.45-.15.33-.12,1.23-.23.28-.36-.24-.03-1.08.19-1.64.29-.18.04-.27.15-.63.04l.65-.04c-.39-.49-1.67-.39-3.02-.26-.41.4,1.63.6,1.48.98,2.21-.22,2.19.1,2.02.46.89-.06,1.62.19,2.53.08-.13-.41.85-.77,2.38-.72,2.12.07-.69.36.05.56.1.03.12.07.17.11Z"/><path d="m299.69,2.91h.84s1.61-.14,1.61-.14l.59-.02s-.03-.07-.05-.1c-.35-.04-.52-.1-.23-.19.04-.01.19-.02.24-.01.46.07-.03.14-.03.2.84.02,1.46-.05,1.86-.24,1.24-.6,3.23-.12,3.19.02-.12.45,1.21.42,2.18.53,1.22-.16,2.43-.31,3.66-.47.54-.06,1.58-.02,1.29-.26-.25-.2-1.38-.05-1.66-.11-.89-.19-2.26.39-2.76-.1-.68-.03-1.47-.02-1.58-.25-.57,0-1.17.03-1.54-.11-1.25-.03-2.51-.06-3.75-.1-2.45-.09-4.57.4-7.05.24v.28c.61-.01,1.24-.04,1.56.13-.04.16-.06.32-.99.33l.44.35h2.18Z"/><path d="m141.1,3.29c-.32-.05-.52-.15-.21-.19,2.47-.29,1.26-.6.09-.91l-.95.03.02.35.12.05-.11-.05c-.86-.12-2.74.14-2.59-.37-1.43.04-2.73-.41-4.33-.06-.23.05-1.23-.09-1.28-.29l-1.51-.05c-.66.29-2.56.4-2.2.84.02.02-.33.06-.5.09-1.12-.7-1.59.17-2.47.05,0,.04,0,.08,0,.12,2.58.65,3.2.05,4.11-.35l.2-.03-.21.03c.52.06,1.47.11,1.49.17.26.88,2.14.33,3.67.28,1.59-.05,3.43-.22,4.84.16.69.1.59.41,1.79.38l.03-.25Z"/><path d="m59.05,2.43l.95.12c2.32.09,2.28.47,2.04.87.76.14.72-.09,1.1-.12-.68-.55.45-1.02,2.56-1.07-.48-.28-.52-.56,0-.84-.53-.29-.98-.09-1.44,0,.31.06.38.16-.03.17-.57.02-.47-.12-.53-.21-1.22-.4-3.03-.14-4.33-.13-2.13.02-4.46-.19-6.49.12v.17s1.49.06,1.49.06c.47-.21.89-.1,1.31,0l1.76.25c.13-.16.24-.33,1.19-.3.64.02,1.01.13,1.31.26.71.3-.26.46-.89.64Z"/><path d="m310.42,2.03c.5.49,1.87-.09,2.76.1.28.06,1.42-.09,1.66.11.3.24-.75.19-1.29.26-1.24.16-2.44.31-3.66.47l.44.21h.59c1.65-.36,3.74-.16,5.6-.27.44-.14.33-.28.12-.43-.38-.27.19-.4,1.39-.39l.02-.12c.02-.17.37-.25,1.1-.23.15,0,.3,0,.44-.02-.15-.12-.83-.24.05-.35l-.04-.12c-2.93-.06-5.85-.18-8.8.02.47.27,1.34.55-.39.77Z"/><path d="m268.37,3.27c.61-.01.55.48,1.63.11.81-.28,1.58.11,2.38,0,.23-.47,1.32-.38,2.47-.21.97.14,1.78.07,2.51-.09.76-.17,1.09-.36.29-.57-1.08-.02-2.08-.18-3.24-.08-3.61.32-4.01.31-6.91-.05-.07,0-.21-.02-.22-.01-1.47.45-3.72-.18-5.22.22.14.21.16.44,1.18.54.03-.15.27-.17.97-.15,1.47.05,2.85.14,4.16.29Z"/><path d="m310.42,2.03c1.73-.22.86-.5.39-.77-1.14-.13-1.91-.37-3.54,0-1.18.26-3.53,0-5.42.04-2.54.05-5.2.16-7.76,0-1.12-.07-1.87-.04-1.74.29.12.33,1.03.31,2.04.25l2.11-.03c2.48.16,4.6-.33,7.05-.24,1.24.03,2.5.06,3.75.1.3-.06.64-.17.9-.16.57.02.62.16.64.28.1.23.9.22,1.58.25Z"/><path d="m129.29,2.55c-.91.4-1.53,1-4.11.35l-2.07.15c-.55.09-1.12.17-.98.36.97.31,2.24.08,3.3.08,4.05-.02,8.11.15,12.19-.04,1.09-.05,1.24-.16,1.66-.3-1.4-.38-3.24-.22-4.84-.16-1.53.05-3.42.6-3.67-.28-.02-.06-.97-.11-1.48-.17Z"/><path d="m233.4,1.61c-.24.15-.44.3-.74.44-.99.46-.87.35,1.2.48,3.43.22,6.84-.02,10.23.09,1.03.03,2.38.08,2.16-.35-1.92-.45-4.02-.38-6.33-.15-1.49.15-2.63.06-2.34-.41-1.5.2-2.74-.14-4.17-.1Z"/><path d="m262.06,2.6c1.5-.4,3.75.23,5.22-.22.02,0,.16,0,.22.01,2.9.36,3.29.37,6.91.05,1.16-.1,2.15.06,3.23.08-.46-.39-.96-.77-2.74-.96l-1.3.25c-.48.25-1.22.23-2.27.19-1.28-.05-2.82,0-3.92-.03-2.23-.05-4.21.36-6.33.11l.56.5c.14,0,.28,0,.42.01Z"/><path d="m288.13,1.82c-.67.38-1.21.73,1.47.77.86.01.32.17.26.27-1.32.24-2.77.1-3.71-.05-2.39-.39-2.93-.05-3.44.39l-.49.03c-1.57-.21-4.15-.31-1.7-.94.44-.11.43-.32.63-.49,1.35,0,2.71-.02,4.05-.03.87,0,1.53-.01,1.62-.26l1.51.03c-.06.1-.03.2-.19.29Zm-4.31.36c-.05-.01-.14-.01-.27.03.07,0,.15,0,.27-.03Z"/><path d="m13.94,2.76c-.76-.36-3.46.12-3.45-.38,0-.25,1.09-.53,1.56-.83.48-.31,2.56-.37,4.2-.32.74.03,1.45.14,2.19.15.71.02,1.59.22,2.11.03.56-.2-1.41-.12-1.05-.36-2.42-.42-5.44.04-7.95-.35-.79-.12-.62.23-1.25.27-.62.14,2.15.34-.12.45-.76.37-2.76.57-2.46,1.08.47.03,1.08.04,1.38.11.76.18.74.8,2.68.24,0,0,.18.03.41.08.23.04.5.09.72.11,1.26.11,2.46.07,3.52-.12-.36-.48-1.77,0-2.48-.16Z"/><path d="m7.2,1.08c-.63-.02-1.08-.09-1.41-.23-.82-.34-2.36-.56-3.57-.35C1.13.69.15,1.02.03,1.42c-.23.73,1.13.97,4.16.85.74-.03,1.66.15,2.5.24.92-.29.57-.59-.42-.8-1-.21-1.93-.06-2.65.18-.26.09-1.48.23-1.37-.04.09-.24-.6-.46-.16-.69.27-.14.41-.32,1.23-.34.85-.02,1.22.14,1.32.3.1.18.23.32,1.18.31.92-.01,1.39-.12,1.39-.34Z"/><path d="m261.08,2.09c2.12.25,4.11-.17,6.34-.11,1.1.03,2.65-.01,3.92.03,1.05.04,1.79.06,2.27-.19-1.79-.6-4.47-.25-6.68-.27-3.3-.03-6.67.25-9.89-.12l-.26.16c.48.18,2.15.39-.4.48-.84.03-1.31.23.13.3,1.52-.1,2.63-.6,4.58-.27Z"/><path d="m144.63,1.59c.03.38.71.57,2.25.32,1.14-.18,1.87-.12,2.79.08.94.21,2.52-.21,3.41.16,2.21-.36,4.62-.04,6.92-.09.79-.02,1.23-.04,1.6-.19-2.12-.33-4.42-.35-6.89-.29-1.58.03-3.18.06-4.9-.08-1.5-.12-3.44.05-5.18.09Z"/><path d="m44.61,1.43h1.11s1.65.34,1.65.34h.7s2.28-.23,2.28-.23c-1.34-.61-4.02-.43-5.95-.46-3.83-.06-7.69.08-11.54.14l-1.03.12c1.73.42,3.59.5,5.62.14,1.64-.11,3.37-.32,4.3.26h.74s.53-.03.53-.03c0-.09-.03-.13-.05-.17l-.16-.09.37.04,1.43-.08Z"/><path d="m329.05,1.41c1.46.05,2.93.13,4.4,0,1.17-.02,2.29,0,3.16.21.79,0,1.18-.01,1.58-.02,1.87.03,3.69-.19,5.69.01,1.04.11,1.59-.27,1.89-.51-5.64-.09-11.29-.09-16.93.1l.21.21Z"/><path d="m289.86,2.86c-1.32.24-2.77.1-3.71-.05-2.39-.39-2.93-.05-3.44.39,3.93.11,7.86.32,11.78-.05.95-.09,1.54.17,2.31.13,1.06-.06,2.7.09,2.89-.36h-2.18s-3.57-.09-3.57-.09l-4.08.04Z"/><path d="m367.83,2.01c-.05.2.29.46-1.35.38-1.02-.05-1.9.03-1.72.35,4.21.22,8.42.44,12.79.11l-.03-.17-.15-.14c-.08.01-.17.01-.26.01-.73.08-1.46.16-1.67-.12-.13.01-.26.01-.4.01l-1.54-.1c-.23.24-.75.29-1.58.14-.91-.03-1.85.26-2.68.03-.27-.08.14-.21.58-.28l.04-.11-.5-.24c-.9-.23-.99.12-1.54.13Z"/><path d="m282.22,3.22c-1.57-.21-4.15-.31-1.7-.94.44-.11.43-.32.63-.49-.75-.03-.5-.17-.55-.27l-1,.04c.31.26-.98.37-1.02.6l.67.05c-.05.02-.15.04-.15.04-.19-.03-.36-.06-.54-.09-.89-.16-.35-.39-.53-.59-1.01-.29-2.05-.33-3.12,0,1.78.18,2.28.56,2.74.96.81.21.47.4-.29.57-.73.16-1.54.24-2.51.09-1.15-.17-2.24-.26-2.47.21,2.59.06,5.22-.15,7.78.05,1.01.08,1.54-.06,2.06-.22Z"/><path d="m256.5,2.35c-1.44-.07-.97-.27-.13-.3,2.56-.09.88-.29.4-.48-.44.23-1.24.06-1.85.1.07.15-.4.37-.78.31-1.87-.3-3.19.18-4.82.15-.87.19-.91.03-.98-.12-.88-.19-1.1-.02-1.35.14.08,0,.21.01.22.02.36.38,1.59.4,2.93.37,1.84-.04,3.12.39,5.03.32.05,0,.24.21.36.32l2,.22,1.06.13.12-.34c-2.26-.06-2.4-.42-2.21-.84Z"/><path d="m228.95,3.28c-1.05.01-1.24-.24-1.91-.34-.43-.07-.87-.14-.61-.28.2-.11.66-.1,1.07-.11.5-.01,1.13.01,1.47-.05.63-.12,1.62-.32,1.51-.43-.28-.26-1.19,0-1.82-.02-.39-.01-.74-.07-1.12-.1-.49-.19-.93,0-1.39.01-.77.1-1.59.24-1.36.44.88.79-1.5.79-3.64.87.26.17,1.38.09,1.46.31,1.75-.13,3.42.1,5.19.06,1.27-.03,1-.2,1.14-.35Z"/><path d="m249.33,2.13c1.63.04,2.95-.45,4.82-.15.38.06.85-.15.78-.31-3.26-.03-6.5,0-9.76.08-1.63.04-3.35-.03-4.97-.11-.98-.05-1.77,0-2.63.06-.29.47.85.56,2.34.41,2.31-.23,4.41-.3,6.33.15.25-.04.51-.08.76-.13.25-.15.47-.33,1.35-.13l.98.12Z"/><path d="m289.86,2.86l4.08-.04.04-.25c-.56,0-1.05-.04-.96-.19.09-.15.65-.15,1.16-.16.19-.12.2-.25.21-.38-1.02.06-1.92.08-2.04-.25-1.3-.13-2.65-.13-4.03-.05-.06.1-.03.2-.19.29-.67.38-1.21.73,1.47.77.86.01.32.17.26.27Z"/><path d="m123.11,3.05l2.07-.15v-.12s-.11-.05-.11-.05l.11.05c.88.12,1.35-.76,2.47-.05.18-.03.52-.07.5-.09-.37-.44,1.54-.55,2.2-.84-.11-.14-.57-.12-.98-.12-.54.19-1.4.13-2.17.15-.56-.08-.92.42-1.22.08-.32-.36-1.26-.13-1.78-.22-.9.24-1.31.1-1.61-.12-.53-.05-1.17-.29-1.5.04l-.23.19c.63.08.94.28,1.82.28.6.08.37.22.42.34,2.74.22-.36.43,0,.64Z"/><path d="m376.04,1.12c.87.21,1.88.35,2.71.61,1.7.53,4.87.29,6.22-.35-1.26.01-2.67.05-1.78-.43-2.42-.08-4.84-.16-7.14.17Z"/><path d="m123.11,2.42c2.74.22-.36.43,0,.64-.55.09-1.12.17-.98.36-1.56.03-3.21.37-4.63-.09-.07-.02-.09-.05-.07-.08,2.05-.37,2.22-.9,2.11-1.45h1.32c.63.08.94.28,1.82.27-.06.13-.08.25.42.34Zm-1.64.39c.33.06.64-.05.54-.11-.21-.14.84-.4-.74-.4-.79.06-.72.15-.15.25.11.09.1.21.35.26Z"/><path d="m159.01,3.45c-.48,0-.88-.24-1.42-.04-1.21.44-1.32.05-1.71-.12-.36-.04-.82-.13-1.07-.11-.96.09-1.87.23-2.58-.08-.58-.25.24-.39.82-.56,1.04-.3,1.84-.16,2.69.05.53.13,1.41.18,1.84.08,1.47-.35,2.13-.02,3,.16-.52.21-1.05.41-1.57.62Zm-5.73-.47s.18-.02.19-.03c.02-.03,0-.06-.01-.09l-.4.05c.07.03.14.05.22.07Z"/><path d="m357.92,2.58c-2.08.03-4.26-.13-6.13.27-.47.1-1.13-.02-1.6-.09-.85-.13-1.42-.07-1.88.12,1.76.39,3.88.23,5.87.15,2.58-.11,5,.33,7.59.04.38-.04.84-.04,1.01-.16-.53-.27-1.43-.34-2.46-.17-1.24.21-1.83.06-2.41-.16Z"/><path d="m7.2,1.08c0,.22-.47.33-1.39.34-.95.01-1.07-.13-1.18-.31-.1-.17-.47-.32-1.32-.3-.82.02-.96.2-1.23.34-.44.23.25.45.16.69-.11.28,1.11.13,1.37.04.72-.24,1.64-.38,2.65-.18.99.2,1.34.51.42.8.34.08.68.13,1.02,0-.3-.5,1.7-.71,2.46-1.08-.54-.11-1.03-.22-1.07-.41l-1.91.05Z"/><path d="m168.8,2.95c1.35.29,2.7.42,4.05,0,.79-.36,3.23-.27,3.66-.73l-.18-.4c-.89-.13-1.7-.1-2.43.07-.12.07.22.18-.32.22l-.16-.22c-.15-.02-.31-.03-.49-.02-2.1.07-1.68.73-3.6.84-.43.05-.54.14-.53.24Z"/><path d="m310.33,3.17l-.44-.21c-.97-.11-2.3-.09-2.18-.53.04-.14-1.94-.62-3.19-.02-.39.19-1.01.26-1.86.24.04.03.05.06.07.1l-.04.37c2.52.14,5.01.39,7.64.06Z"/><path d="m334.47,3.16c.2-.33-.91-.41-1.82-.46-1.95-.12-4.22-.3-5.93-.1-1.18.14-1.98.16-3.13.15-.7,0-.31.22-.37.35,2.46.08,4.85.24,7.43.02,1.12-.09,2.53.02,3.81.04Z"/><path d="m140.04,2.21l.95-.03c.51-.17,1.21-.32,1.09-.56-2.56-.18-5.31.12-7.9-.23-1.05-.14-1.37.33-2.31.45.05.2,1.05.34,1.28.29,1.59-.35,2.89.1,4.33.06.93-.71,1.7.11,2.57.02Z"/><path d="m183.26,2.97h.77c.48-.26.46-.25-.35-.34-.36-.04-.83-.1-.91-.18-.27-.26,1.17-.18,1.4-.36l-1.08-.24-1.69-.08-3.43.45c2.34.37,2.28.46-.49.92,1.19.6,2.09.23,3.02-.05.91-.05,1.36-.7,2.76-.12Z"/><path d="m221.16,3.26c2.14-.08,4.53-.08,3.64-.87-.23-.2.59-.34,1.36-.44-.24-.41-1.33-.07-1.98-.12-.47.38-.77.81-3.23.5-.41-.05-1.06-.03-1.23.12-.18.16.33.2.86.22l.23-.02-.21.03.55.58Z"/><path d="m117.5,3.33c-.07-.02-.09-.05-.07-.08-.23-.19-1.82-.08-1.52-.38-.41-.32-1.01-.27-1.62-.04-.54.2-1,.43-1.8.04-.62.07-1.05-.25-1.62-.06-.73.23-.13.44.49.64,2.08.04,4.29.4,6.15-.12Z"/><path d="m86.6,3.21c-.7-.27-2.44-.24-2.93-.68-.23-.21-2.43.18-3.63.35-.2.03-.33.08-.48.13v.35c1.83.27,3.55-.18,5.37-.03l1.34-.05c.18,0,.29-.03.33-.07Z"/><path d="m367.31,1.05c.71.36,5.36.81,6.85.65,1.47-.15.53-.45.82-.68-.94.06-1.88.21-2.77-.02-.19-.05-.85-.09-.89-.07-1.19.43-2.7.05-4.02.12Z"/><path d="m13.94,2.76c.71.16,2.12-.31,2.48.16.73.21,1.46.09,2.18.01,1.21-.33,3.13-.14,4.56-.31-.29-.2-.25-.44-1.77-.25-.92.12-2.26.06-3.41.09l-.64.15-.2-.07.8-.09c-.95-.09,1.98-.82-1.5-.48-.12.19.33.44-1.04.47-.28.16-1.53.07-1.46.32Z"/><path d="m335.5,2.83c-.03.06.15.14-.29.16,3.12.06,6.4.47,9.09-.3l-.07-.15h-2.04c-2.23.11-4.45.21-6.69.3Z"/><path d="m23.17,2.63c-1.43.17-3.34-.02-4.56.31.16.38,1.29.08,1.88.12,2.22.14,4.52.05,6.77-.04-.45-.67-2.66-.3-4.08-.39Z"/><path d="m60.02,2.93c-1.6-.04-3.41.11-4.48-.37-.41-.18-1-.08-1.1.1-.07.13.06.28-.62.36-.22.38,1.13.27,1.84.3,1.6.05,3.23.04,4.85.06-.13-.15.28-.33-.48-.45Z"/><path d="m68.23,1.66c1.12.11,2.28.24,3.08-.09.52-.21.83-.08,1.29.01,1.56.31,3.1.34,4.56-.03-1.45-.34-3.26-.29-5.03-.26-1.3.03-2.59.07-3.89.1l-.02.26Z"/><path d="m204.23,1.59c-.36.24-1.46.59,1.11.4,1.34-.1,1.96.13,2.64.33.34.1.12.39,1.19.28.86-.09.66-.29.5-.47-.15-.17-.24-.35-.35-.52l-5.08-.03Z"/><path d="m103.62,3.3c.17-.35.2-.67-2.02-.46l-1.55.23h-.98c-.42.13-1,.11-1.56.1l-.58.27c-.05.24.64.18,1.18.15,1.84-.1,3.67-.19,5.51-.29Z"/><path d="m183.09,1.85l1.08.24c1.45-.05,2.99-.32,4.22.13.32.12,1.24-.06,1.18-.09-.25-.17,1.75-.24.34-.43-2.26.08-4.73-.36-6.83.15Z"/><path d="m103.12,2.13c.56-.1,1.4-.32,1.64-.29.95.13.05.24-.28.36-.22.08.07.15.45.15.44,0,.92-.04.93-.15.02-.17-.12-.35-.2-.52-1.86-.34-3.97-.27-6.06-.22l-.07.3s.03.06.02.1h.56c1.35-.12,2.63-.21,3.01.27Z"/><path d="m169.33,2.71c1.93-.11,1.5-.77,3.6-.84-1.07-.3-2.17-.56-3.58-.09-.16.08-.26.23-.48.24-3.4.16-.9.37-.1.56.08-.08,0-.2.6-.19l-.12.2s.06.07.08.11Z"/><path d="m215.46,3.42c-.45-.23-1.32-.5-2.21-.27-1.71.44-4.81-.23-5.95.48,2.77.05,5.49-.02,8.16-.21Z"/><path d="m257.53,3.39l-2-.22-1.04-.1c0,.29-.86.27-1.7.26-1.97-.28-3.82-.23-5.56.12.17.13.7.25,1.07.21,2.98-.31,6.33.16,9.23-.28Z"/><path d="m23.13.98c.1.39.44.68,2.41.35,1.47-.25,3.31.3,4.72-.09-2.12-.54-4.71-.25-7.13-.26Z"/><path d="m322.73,1.36c.69.41,2.04.68,3.52.92-.3-.41.47-.74,1.49-1.06-1.04-.21-1.97-.02-2.93.06-.52.33-1.35.11-2.08.08Z"/><path d="m45.23,3.11c-1.79-.48-5.51-.46-7.75.04,2.21.23,4.43.04,6.64.05.06-.24.6-.15,1.11-.09Z"/><path d="m148.79,2.94c-.6.01-1.01.07-1,.23l.66.08.14.13-.49-.04-.4-.15c-.61,0-.91.08-.96.22,1.87.05,3.5.45,5.57.23-.18-.43-1.93-.48-3.08-.68h-.45Z"/><path d="m240.19,3.19c-2.35-.02-4.69-.02-6.69.35.79.21,1.53.3,2.71.08,1.49-.27,3.35-.02,5-.12l-.09-.27c-.3-.01-.61-.03-.93-.04Z"/><path d="m65.69,2.23c-2.1.05-3.24.53-2.56,1.07l2.05.02c-.31-.27,1.21-.39.91-.65-.6-.13-.35-.29-.41-.44Z"/><path d="m177.97,2.22l3.43-.45c-1.73-.2-3.44-.35-5.06.05l.18.4h1.46Z"/><path d="m119.55,1.81h1.32s.23-.2.23-.2c-1.92-.08-3.87-.28-5.65.08.57.21,1.75.3,1.96.58.37-.05.68-.09.99-.12.08-.17.13-.34,1.14-.34Z"/><path d="m68.23,1.66l.02-.26h-2.55c-.52.27-.49.55,0,.83,1.24.03.95.25.98.43.2.09.48.18.96.14.56-.05.23-.17.13-.25-.39-.32-1.12-.64.48-.89Z"/><path d="m141.1,3.29l-.03.25c1.74.02,3.65.39,5.13-.13-.26-.22.13-.69-1.81-.22-.84.21-2.3-.14-3.29.1Z"/><path d="m258.71,3.19l-.12.34c1.98.23,3.78-.01,5.61-.15l-.96-.24c-1.02-.11-1.04-.33-1.18-.54-.14,0-.28,0-.42-.01,0,.46-.31.84-2.93.6Z"/><path d="m281.14,1.79c1.35,0,2.71-.02,4.05-.03.87,0,1.53-.01,1.62-.26-1.81-.3-3.81,0-5.69-.08,0,.12,0,.24.01.36Z"/><path d="m263.24,3.14l.96.24c1.46.15,2.98.43,4.17-.1-1.31-.15-2.69-.24-4.16-.29-.7-.02-.94,0-.97.15Z"/><path d="m108.76,3.33c-.06-.04-.07-.08-.17-.11-.73-.2,2.08-.49-.05-.56-1.53-.05-2.52.31-2.38.72.9.06,1.85.27,2.6-.05Z"/><path d="m357.92,2.58c.57.22,1.16.37,2.41.16,1.03-.17,1.93-.1,2.46.17.36-.03.83-.01.96-.13l-.9-.4c-1.6-.1-3.18.04-4.77.05l-.16.15Z"/><path d="m383.18.95c-.88.48.52.44,1.78.43.93.05,1.52-.06,1.91-.25l-.03-.31c-1.2.09-2.4.18-3.67.13Z"/><path d="m316.53,2.91c-1.85.11-3.95-.09-5.6.27,1.86.29,3.73-.04,5.59-.03v-.24Z"/><path d="m196.45,1.61c.27.89,2.44.18,3.7.24-.08-.17.28-.43-1.25-.31-.76.06-1.63.05-2.45.07Z"/><path d="m106.7,1.65c.18.18-.01.46,1.15.46,1.56,0,.63-.44,1.53-.59-1.24-.34-1.78.08-2.67.13Z"/><path d="m50.36,1.55l-2.28.24c1.44.05,1.53.31,1.73.57.12.15.46.26,1.14.27.26,0,.66-.06.74-.11.23-.15-.33-.19-.77-.25-1.58-.22,1.27-.47-.1-.69-.14-.02-.3-.02-.45-.02Z"/><path d="m385.95,2.48c-1.01.16-2.4-.66-3.19.09q.44.44,3.19-.09Z"/><path d="m92.35,2.09c-1.35-.1-1.26-.39-1.56-.63-1.05-.02-2.21-.2-3.07.1l.03.14c.76.06,2.09-.05,2.21.19.27.53,1.35.31,2.39.2Z"/><path d="m95.48,1.43c-.66.38.9.48,1.64.68l.8-.23.63-.49c-1.05-.07-1.98.22-3.07.05Z"/><path d="m215.44,1.97v-.34c-.96-.1-1.92-.19-2.97-.07.01.18-.36.43,1.07.4,1.08-.02,1.57.09,1.53.34.47-.09.33-.21.37-.32Z"/><path d="m327.74,1.22c-1.01.32-1.78.65-1.49,1.06,1.05-.27,2.58-.46,2.79-.87l-.21-.21-1.1.03Z"/><path d="m60.02,2.93c.76.12.35.3.48.45l1.53.05c.24-.41.28-.78-2.04-.87l.02.37Z"/><path d="m241.11,3.23l.09.27c.99.01,1.84-.07,2.57-.23-.64-.82-1.66-.39-2.66-.04Z"/><path d="m354.96,1.08c0,.08-.1.17,0,.24.28.2-1.18.58.4.59,1.41,0,.19-.34.39-.53.06-.05.52-.08.8-.12-.34-.15-.65-.31-1.6-.17Z"/><path d="m322.73,1.36c.73.03,1.57.25,2.08-.08l-1.12-.06c-.42.01-.79,0-.98-.1l-2.08.12.44.13h1.67Z"/><path d="m418.08,2.2s.04-.08,0-.12c-.18-.18.58-.49-.67-.5-.43,0-1.23.37-.41.61l1.08.02Z"/><path d="m278.57,2.15c.03-.23,1.33-.34,1.02-.6l-1.57.02c.19.2-.36.43.55.58Z"/><path d="m9.11,1.03c.03.18.53.3,1.07.41,2.27-.1-.49-.31.12-.45-.1-.03-.23-.05-.39-.03h-.68c-.14.02-.18.04-.12.07Z"/><path d="m87.33,3.09l-1.02.12c.45.27,1.7.19,2.47.31l.06-.24-.04-.24c-.28-.01-.49-.01-.7-.01-.08.14-.43.1-.77.06Z"/><path d="m222.62,3.57c-.09-.22-1.2-.14-1.53-.29l-.81.1.66.16c.54.07,1.1.09,1.69.03Z"/><path d="m122.6,1.57c.3.22.71.36,1.61.12-.43-.12-.6-.44-1.61-.12Z"/><path d="m302.14,2.77l-1.61.13c-.07.32.82.24,1.61.2v-.34Z"/><path d="m127.21,1.83c.77-.01,1.63.05,2.17-.15-1.1-.25-1.69-.1-2.17.15Z"/><path d="m423.5,2.39c-.51-.15-1.09-.16-1.75-.04.56.05.9.51,1.75.04Z"/><path d="m321.06,1.37l-.44-.13h-1.02s.04.13.04.13c.46.13.93.15,1.42,0Z"/><path d="m80.62,1.63s-.01.04-.07.06c.07-.02.15-.03.24-.03l.14-.26-.31.23Z"/><path d="m322.71,1.12c.2.1.56.12.98.1.01-.2-.33-.23-.98-.1Z"/><path d="m63.69,1.36c.06.09-.04.22.53.21.42-.01.34-.11.03-.17l-.56-.04Z"/><path d="m88.83,3.29l-.06.24c.53-.04.89-.11,1.06-.24h-1.01Z"/><path d="m86.27,3.28l-1.34.05c.56.16,1.02.15,1.34-.05Z"/><path d="m281.12,1.78v-.36c-.33-.02-.51.01-.52.09.05.1-.2.24.52.26Z"/><path d="m173.42,1.89l.16.22c.54-.04.21-.15.32-.22-.16-.02-.33-.02-.49,0Z"/><path d="m45.23,3.11c-.51-.06-1.05-.15-1.11.09.46.04.93.07,1.11-.09Z"/><path d="m358.08,2.43c1.59,0,3.17-.15,4.77-.05.55-.01.8-.09.84-.21l.07-.37c-.88-.02-1.17-.12-.86-.32.15-.09.35-.21-.23-.23-.34-.01-1.08.08-1.07.12.11.52-2.22.55-3.13.85-.18.06-.26.14-.39.21Z"/><path d="m391.35,2.2c1.08.11,2.17.25,3.22-.04-1.82-.02-.34-.52-1.62-.62l-2.05-.2c.26.28,1.35.54.45.86Z"/><path d="m336.61,1.62c-.87-.21-1.99-.23-3.16-.21.04.14-.13.31.16.4.38.13-1.15.34.24.35.97,0,.78-.2.67-.36-.05-.07-.06-.33.57-.09,1.15.45.91-.18,1.51-.1Z"/><path d="m373.51,2.34l1.54.1c.2-.14,1.52-.27.35-.42-1.23-.16-1.65.08-1.9.31Z"/><path d="m369.83,2.22c-.45.07-.86.21-.58.28.83.24,1.77-.06,2.68-.03-.08-.35-1.27-.22-2.09-.26Z"/><path d="m342.19,2.54h2.04c-.11-.23-.76-.33-1.57-.3-.63.02-.42.19-.47.3Z"/><path d="m319.59,1.72c-.14.01-.29.02-.44.02l-.06.23c.62-.02,1.38.03,1.66-.18l-1.16-.07Z"/><path d="m375.45,2.43c.22.28.94.2,1.67.12l-.05-.25c-.55.04-1.08.09-1.62.13Z"/><path d="m365.58,1.29c-.11-.02-.22-.04-.32-.06l-.29.12c.13.01.29.04.39.03.1,0,.15-.05.22-.09Z"/><path d="m338.19,1.6h-1.19c.15.08.26.19.46.2.58.02.57-.11.73-.2Z"/><path d="m369.37,1.88l.5.24c.77-.19.17-.22-.5-.24Z"/><path d="m377.07,2.3c.28-.02.68.01.68-.1,0-.02-.2-.07-.3-.07-.47,0-.34.1-.38.17Z"/><path d="m363.76,1.8l-.07.37c.66-.12.72-.24.07-.37Z"/><path d="m349.78,1.69c.01.05.09.05.16.06-.01-.05-.09-.05-.16-.06Z"/><path d="m318.05,1.96l-.02.12,1.06-.13c-.34,0-.69,0-1.03,0Z"/><path d="m367.82,2.01l-.12-.05s.09.03.12.05Z"/><path d="m377.38,2.54l.15.14c.44-.08.35-.12-.15-.14Z"/><path d="m59.05,2.43c.62-.19,1.6-.35.89-.64-.3-.13-.67-.24-1.31-.26-.95-.03-1.06.14-1.19.3.49.19.74.39.31.61-.19.1-.15.2.41.22.67.02.78-.1.88-.22Z"/><path d="m15.4,2.45c1.38-.03.92-.29,1.04-.47-.51-.02-1.23.06-1.3-.17-.04-.12-.53-.26-.98-.22-.46.04-.89.18-1.06.3-.27.2.62.11.9.16.55.11.94.27,1.39.4Z"/><path d="m41.76,1.75c-.93-.58-2.66-.37-4.3-.26,1.2.32,2.55.48,4.3.26Z"/><path d="m43.03,1.72l-.53.03c-.09.03-.14.08-.27.1-.99.14-1.64.3-.63.57.27.07,1,.15.87.03-.29-.28,2.95-.37.56-.72Z"/><path d="m54.37,1.58l-1.48-.06c-.02.16-1.25.39.06.48.97.07,1.65-.14,1.42-.41Z"/><path d="m47.37,1.77l-1.65-.33c.04.14-.85.28-.1.41.6.1,1.25.04,1.74-.08Z"/><path d="m18.56,1.86c.3.05.48.1.65.1.19,0,.37-.05.56-.08-.16-.04-.3-.1-.48-.1-.18,0-.39.04-.74.08Z"/><path d="m44.61,1.43l-1.43.08c-.07.02-.14.03-.21.05l.06.12c.64-.04,1.58.02,1.57-.25Z"/><path d="m55.68,1.59c-.42-.1-.84-.22-1.27,0h1.27Z"/><path d="m21.67,1.28c.15.03.22.01.29,0-.05-.01-.11-.02-.29,0Z"/><path d="m195.97,3.3c.57-.02,1.23.01,1.57-.14.25-.37,1.98-.11,2.67-.34.26-.09,1.14.28,1.52.01.24-.16-.62-.31-1.15-.44-.54-.13-.96-.16-1.71-.02-.94.17-2.03.29-2.87-.09-.5-.23-1.41-.06-1.95.03-.93.15-.18.25.37.35.86.16,1.71.34,1.55.64Z"/><path d="m215.44,1.97c-.04.11.11.24-.37.32-.12.14-1.38.17-.76.38.22.07.72.15,1.05.14,1.1-.03.37-.25.61-.38.13-.07.23-.15.44-.21.39-.11,1.55-.18,1.12-.33-.5-.17-1.33.1-2.09.07Z"/><path d="m211.7,2.45c-.11-.02-.21-.04-.32-.06l-.3.11c.13.01.28.04.39.03.1,0,.15-.05.22-.08Z"/><path d="m186.23,3.19h-.51c.17,0,.34,0,.51,0Z"/><path d="m410.41.98c.1.1.14.23.83.12-.09-.11-.42-.12-.83-.12Z"/><path d="m163.63,3.18h1.05c.01-.14-.23-.36.09-.42.57-.11,1.08-.18.89-.36-.09-.09-.41-.05-.53,0-.45.16-1.97.11-1.57.44.13.11.05.23.06.35Z"/><path d="m160.58,2.82c.32.11.34.28,1.08.29.1,0,.36-.09.33-.13-.14-.19-.85-.15-1.41-.17Z"/><path d="m148.79,2.94h.45c0-.08.1-.18-.5-.2l.04.2Z"/><path d="m169.25,2.6l.12-.2c-.61,0-.52.1-.6.19h.48Z"/><path d="m166.74,2.95l-.18-.16c-.5.09.01.11.18.16Z"/><path d="m392.96,1.54c1.28.1-.2.6,1.62.62.66,0,1.13-.09,1.47-.21.73-.25,1.63-.49.26-.77-2.15-.44-2.24.24-3.35.36Z"/><path d="m401.58,1.1c-.74.04-1.92-.21-1.86.18.02.13.32.36,1.16.29.81-.08,2-.26,2.04-.4.09-.29-.97,0-1.35-.06Z"/><path d="m400.78,2.05c.58.14.94.3,1.36.31.53,0,1.48,0,1.51-.23.02-.13-.33-.25-.89-.23-.61.01-1.2.09-1.98.15Z"/><path d="m407.83,1.09c.07.09.07.2.61.17.17,0,.26-.11.38-.17h-1Z"/><path d="m398.74,1.55c.17-.04.06-.05-.04-.05l.04.05Z"/><path d="m406.85.98h.23s.23,0,.23,0c-.16-.06-.31-.07-.47,0Z"/><path d="m78.51,1.93c.11.2.64.27,1.39.21.95-.07.58-.28.67-.44-.92-.03-.96.35-2.05.23Z"/><path d="m66.66,2.67c-.03-.18.27-.4-.99-.44.08.15-.18.32.42.44h.57Z"/><path d="m78.5,1.93l-.11-.05s.08.03.11.05Z"/><path d="m240.19,3.19l.93.04c-.16-.09.31-.26-.44-.26-.43,0-.53.12-.5.22Z"/><path d="m252.79,3.33c.84.01,1.71.04,1.7-.26-.63.06-1.33.1-1.7.26Z"/><path d="m92.35,2.09c-1.04.11-2.12.33-2.39-.2-.12-.24-1.45-.13-2.21-.19.41.27.74.56,1.26.82,1.11.56,3.14.63,4.81.16.21-.06.31-.15.57-.18.95-.11,1.01-.52.07-.68q-.39-.07-.62.2c-.11.12-.08.29-.79.29-.22,0-.46-.14-.69-.22Z"/><path d="m100.12,1.87h-.56c-.99.42.54.8.49,1.21l1.55-.23c.15-.38-1.9-.58-1.48-.98Z"/><path d="m97.52,3.18c.56,0,1.14.03,1.56-.09-.02-.02,0-.05-.05-.06-.69-.13-.56-.54-1.41-.47-1.25.1.14.4-.09.61Z"/><path d="m94.78,2.79c-.15.04-.32.07-.31.09.04.07.16.13.24.2.07-.03.19-.07.19-.1,0-.05-.07-.11-.13-.18Z"/><path d="m87.33,3.09c.34.03.69.07.77-.06-.32-.02-.78-.13-.77.06Z"/><path d="m88.79,3.04l.21-.06c-.09.02-.19.03-.21.06Z"/><path d="m177.97,2.22h-1.46c-.43.47-2.87.38-3.66.74.08.16-.13.37,1.04.35-.5-.23.35-.34.89-.41.66-.08.97.09,1.22.21l1.48.02c2.78-.46,2.83-.55.49-.92Z"/><path d="m176,3.11c-.25-.13-.56-.3-1.22-.21-.54.07-1.39.18-.89.41.8,0,1.79.09,2.11-.2Z"/><path d="m183.26,2.97c-1.4-.58-1.85.07-2.76.12,1.12.22,1.95.07,2.76-.12Z"/><path d="m186.24,3.19h-.53c.18.11.35.11.53,0Z"/><path d="m119.55,1.81c-1.01,0-1.06.17-1.14.34.15.24-.38.19-.94.12-.32.24-.09.54-1.55.61-.3.3,1.3.19,1.52.38,2.05-.37,2.22-.9,2.11-1.44Z"/><path d="m103.14,2.13l-.65.04c.36.11.46,0,.65-.04Z"/><path d="m294.35,2.22c-.25.11-.31.22-.38.34,1.04,0,2.07-.01,3.1-.02.93-.01.95-.17.99-.33-.55-.02-1.23.03-1.56-.13l-2.15.14Z"/><path d="m308.84,1.78c-.02-.12-.07-.26-.64-.28-.26,0-.6.11-.9.16.37.14.97.11,1.54.11Z"/><path d="m296.5,2.08c.33.16,1.01.11,1.56.13-.32-.17-.95-.14-1.56-.13Z"/><path d="m302.67,2.65c0-.07.49-.14.03-.2-.05,0-.19,0-.24.01-.3.09-.12.14.21.19Z"/><path d="m140.04,2.21c-.87.09-1.64-.73-2.57-.02-.15.51,1.73.24,2.59.37l-.03-.35Z"/><path d="m129.28,2.55l.21-.03c-.07,0-.13.02-.21.03Z"/><path d="m140.06,2.56l.11.05s-.08-.04-.11-.05Z"/><path d="m318.05,1.96h1.04s.06-.23.06-.23c-.73-.02-1.09.06-1.1.23Z"/><path d="m258.71,3.19c2.62.23,2.93-.15,2.93-.6l-.56-.5c-1.95-.33-3.06.17-4.58.27-.19.41-.05.78,2.21.84Z"/><path d="m283.55,2.21h.22s-.09-.04-.22,0Z"/><path d="m278.56,2.16c.18.03.36.06.54.09,0,0,.1-.03.15-.04-.22-.02-.45-.03-.69-.05Z"/><path d="m249.33,2.13l-.98-.12c.07.15.12.32.98.12Z"/><path d="m293.97,2.56l.2-.35c-.51,0-1.07,0-1.16.16-.09.16.41.19.96.19Z"/><path d="m122.69,2.08c-.06.13-.08.25.42.34-.05-.12.18-.26-.42-.34Z"/><path d="m125.18,2.78l-.11-.05s.07.03.11.05Z"/><path d="m121.12,2.55c.11.09.1.21.35.26.33.06.64-.05.54-.11-.21-.14.84-.4-.74-.4l-.15.25Z"/><path d="m121.12,2.55l.15-.25c-.78.06-.72.15-.15.25Z"/><path d="m153.05,2.9c.07.03.14.05.22.07.01,0,.18-.02.19-.03.02-.03,0-.06-.01-.09l-.4.05Z"/><path d="m220.61,2.68l.21-.03c-.08,0-.15.02-.21.03Z"/><path d="m17.95,2.46l-.8.09.2.07c.21-.05.42-.1.6-.16Z"/><path d="m148.45,3.25l-.66-.08c.05.07.18.12.31.17l.34-.09Z"/><path d="m117.47,2.26c.56.07,1.09.12.94-.12l-.94.12Z"/>
                  </g>
                </mask>
              </defs>
              <path class="mask" d="m0,1.85c133.21.91,269.03.81,407.34-.42,9.84-.09,19.67-.18,29.48-.28"
                    mask="url(#path-mask)" stroke="black" stroke-width="2" fill="none"
                    stroke-dasharray="436.8258056640625" stroke-dashoffset="436.8258056640625">
              </path>
            </svg>
        