
            <svg xmlns="http://www.w3.org/2000/svg">
              <defs>
                <mask id="path-mask">
                  <g fill="white">
                    <path d="m109.72,1.7c.43-.15.15-.45.23-.68l.31.1c.26.21.56.35.81.61.51.53,1.44.29,1.82-.35.27.05.44-.06.55-.25.37.17.9-.23,1.19.2.08.28.41.54.15.86-.19.21-.39.32-.71.14-.26-.15-.49-.12-.63.14h-.24c-.29.16-.72-.66-.93.09-.09,0-.27-.03-.27-.03-.22.65-.78.37-1.25.31v-.17c.12-.08.09-.12-.06-.14-.02.01-.05.01-.07.01l-.02-.25c.08-.02.2.01.2-.1,0-.02-.06-.07-.09-.07-.14,0-.1.1-.11.16l-.47.13s-.08.01-.12.01c.05-.14.44-.27.09-.42-.37-.16-.48.08-.55.31-.06.24-.21.29-.46.14-.03-.35-.38-.22-.62-.26v-.11c.23-.19.05-.22-.14-.23-.27-.23-.29.12-.45.13l-.04-.05.04.04c-.01.2.1.46-.39.38-.3-.05-.56.03-.5.35l-.3.04-.27-.4c.16-.01.23-.09.24-.21.19-.12.2-.24.01-.37-.26-.02-.35-.12-.26-.32.04-.09.1-.21-.07-.23-.1-.01-.31.08-.31.12.04.52-.64.55-.9.85-.05.06-.07.14-.11.21l-.04.15c-.61.03-1.25-.13-1.79.27-.14.1-.33-.02-.47-.09-.25-.13-.42-.07-.55.12l-1.18-.2-.02-.15c-.04-.22-.23-.32-.47-.29-.18.02-.12.19-.13.3-.65.09-1.3.19-1.99.24l.03.05c0,.06.05.14-.08.16-.04.09-.05.19-.21.18.05-.33-.28-.41-.54-.46-.57-.12-1.24-.3-1.74-.1-.34.14-.58.16-.92.15-.2,0-.09.22-.1.35l-1.97.05v-.24c.13-.14.09-.28.03-.43-.11-.27.05-.4.4-.39l.31-.13c.18-.02.41.03.49-.18l-.34-.07c-.05-.12-.25-.24,0-.35.14.13.28.15.41,0h.49c.21.4.61.67,1.05.92.3-.27.75-.46.8-.87.43.05.86.13,1.29,0,.01.14-.03.31.05.4.11.13-.33.34.08.35.28,0,.22-.2.19-.36-.02-.07-.02-.33.17-.09.35.45.26-.18.56-.1.05.06.08.18.14.18.17.02.16-.11.21-.2.55.03,1.08-.19,1.67.01.31.11.46-.27.54-.51l2.69-.02c0,.08-.03.17,0,.24.09.2-.33.58.13.59.41,0,.05-.34.1-.53.02-.05.15-.08.23-.12.75-.29,1.57-.26,2.36-.26.23,0,.59-.33.79.06.22.36,1.59.8,2.02.65Zm-2.62-.47l-.08.12s.09.04.12.03c.03,0,.04-.05.06-.09l-.1-.06Zm-4.47.47s-.04-.01-.06-.02c0,.05.03.05.06.02Z"/><path d="m10.97,3.15c-1.01.13-2-.1-3-.13-.12-.67-.78-.3-1.19-.39-.08-.2-.06-.44-.52-.25-.27.12-.66.06-1.01.08-.28-.09.6-.82-.43-.48-.15-.02-.36.06-.38-.17,0-.12-.15-.26-.28-.22-.14.04-.26.18-.32.3-.08.2.18.11.26.16.16.11.27.27.4.4-.09.16-.45.07-.44.32-.22-.36-1.02.12-1.01-.38,0-.25.33-.53.47-.83.15-.31.76-.37,1.24-.32.22.03.42.14.64.15.21.02.46.22.62.03.17-.2-.41-.12-.3-.36.34-.17.69-.24,1.07-.09.02.39.12.68.7.35.43-.25.96.3,1.39-.09h.16s.3.12.3.12c.5.42,1.05.5,1.65.14.35.32.74.48,1.26.26h.22s-.04.07-.08.09c-.29.14-.49.3-.19.57.08.07.29.15.26.03-.08-.28.87-.37.18-.76.19-.04.46.02.46-.25h.33c0,.16-.25.3-.03.43.17.1.37.04.51-.08h.21c.42.06.44.33.5.58.03.15.13.26.33.26.07,0,.19-.06.22-.11.07-.15-.09-.19-.22-.25-.46-.22.38-.47-.02-.69.1-.24.36-.22.61-.22v.17c0,.16-.37.39.01.48.28.07.49-.14.43-.41h.37s.51.25.51.25c.14.19.21.39.08.61-.06.1-.05.2.12.22.2.02.23-.1.26-.22l.28.12v.37c-.47-.04-1,.11-1.31-.37-.12-.18-.29-.08-.32.1-.02.13.01.28-.19.36-.82.32-1.66.34-2.52.09-.52-.48-1.61-.46-2.27.04Zm-5.34-1.19c.06,0,.11-.05.17-.08-.05-.04-.09-.1-.14-.1-.05,0-.12.04-.22.08.09.05.14.1.19.1Z"/><path d="m60.21,2c.39-.1.57.13.78.33.1.1.04.39.35.28.25-.09.19-.29.14-.47-.05-.17-.07-.35-.11-.52l.92-.06c0,.18-.1.43.32.4.32-.02.46.09.45.34-.03.14-.4.17-.22.38.06.07.21.15.31.14.32-.03.11-.25.18-.38.04-.07.07-.15.13-.21.12-.11.45-.18.33-.33-.15-.17-.39.1-.61.07v-.34c.87-.09,1.73.01,2.57.21-.14.38-.22.81-.95.5-.12-.05-.31-.03-.36.12-.05.16.1.2.26.23.05.19.11.39.14.6l-.24.1.19.16c-.57.24-1.1.18-1.61-.12-.13-.23-.39-.5-.65-.27-.5.44-1.41-.23-1.74.48-.49-.18-1-.05-1.51-.07.02-.42-.37-.48-.69-.36-.29.11-.46.07-.67-.04.07-.37.58-.11.78-.34.08-.09.33.28.45.01.07-.16-.18-.31-.34-.44-.16-.13-.28-.16-.5-.02-.27.17-.59.29-.84-.09-.15-.23-.41-.06-.57.03-.27.15-.05.25.11.35.25.16.5.34.46.64l-.16.11c-.28-.47-.83-.29-1.29-.34-.18-.02-.59.15-.47-.3.03-.11-.53.07-.55.19-.03.25-.18.23-.39.23h-.15c-.28.09-.61.27-.5-.21.14-.27.14-.26-.1-.35-.1-.04-.24-.1-.27-.18-.08-.26.34-.18.41-.36.43-.05.88-.32,1.24.13.09.12.36-.06.35-.09-.07-.17.51-.24.1-.43.02-.12.06-.14.23-.12.56.06,1.12.25,1.68.03.08.89.72.18,1.08.24.43,0,.74-.33,1.19-.25-.1.24-.43.59.33.4Zm1.78.39l-.09.11s.08.04.12.03c.03,0,.04-.05.06-.08l-.09-.06Z"/><path d="m124.22,2.39c.53-.21,1.2.13,1.68-.28.45.5,1.11.07,1.64.21.15.04.21.02.31-.05.32-.2.36-1.21,0-1.33-.38-.12-.51-.31-.61-.59-.11-.29-.3-.58-.65-.09-.04.05-.18.11-.25.1-.62-.17-1.21.09-1.82.11-1.4.04-2.8.15-4.2.24v.27c.13,0,.23,0,.26.12.21-.06.45-.13.63-.13.41-.02.92-.29,1.26.09.2.22,1.64.61,1.93.46.05-.03.1-.1.09-.14-.08-.37.19-.2.32-.12.15.09.25.24.38.35.07.06.3-.04.28.1-.01.09-.14.17-.31.21-.37.07-.89,0-.92.49Z"/><path d="m44.66,3.63c.37-.08.8-.02,1.04-.34-.11-.04-.24-.13-.31-.11-.28.09-.55.23-.76-.08-.17-.25.07-.39.24-.56.31-.3.54-.16.79.05.15.13.41.18.54.08.43-.35.62-.02.88.16.16.02.37-.03.41.16,0,.04-.07.13-.1.13-.22-.01-.22-.18-.32-.29l-.46.62c.3.5.7.18,1.07.08,0-.17.02-.32.28-.35,0-.12.02-.24-.02-.35-.12-.33.33-.28.46-.44.04-.04.13-.08.16,0,.06.18-.09.26-.26.36-.09.06-.02.28-.03.43.15-.17.57.1.61-.24-.05-.04-.2-.07-.06-.16l.05.16c.21.08.08.39.35.38.09,0,.17-.24.25-.38,0-.1.03-.19.16-.24l-.02-.11h-.14c-.23-.2-.97-.41.03-.57.07-.01.1-.16.14-.24-.43,0-.88.19-1.27-.18-.05-.04-.62.25-1.01.27-.11.15-.24.17-.47.19-.68.05-1.38-.27-2.03.09-.26-.37-.73.05-1-.16-.27-.2-.48-.26-.82-.08-.45.24-.65.06-.66-.32l-.75.04c.03.24-.17.39-.32.56.34.31.69.62-.03.91-.09.04-.03.14.06.19.29-.24.72.1.97-.1.57-.47.45,0,.53.22h.16c.02-.14.1-.22.28-.22.02-.18.14-.24.32-.25v-.2c.16.02.13.12.13.21.34.2.85.24.9.68Z"/><path d="m115.73,2.16c.19,0,.33-.09.43-.21.21-.25.46-.49.06-.77-.64-.44-.65.24-.97.35l-.61-.2c-.29-.43-.82-.04-1.19-.2l-.02-.31c.35.03.74-.33,1.01-.06.34.33.68.24,1.06.16,1.5-.31,3.02-.31,4.54-.21.03.15.03.29-.15.38h-.29s-.15-.12-.15-.12c-.05-.06-.09-.07-.14,0-.96.09-1.09.23-.71.75.01.02.02.04.02.05.84-.35,1.1.7,1.92.48.34-.09.8-.13.91.32-.23.01-.47.38-.55.19-.15-.36-.39-.17-.62-.17-.83,0-1.63-.03-2.48.05-1.2.12-2.45-.02-3.69.07-.25.02-.63.13-.66-.25.14-.26.37-.29.63-.14.31.18.52.08.71-.14.32.11.64.25.94-.04Zm1.49-.88c.01.13.1.36.35.29.24-.08.58-.26.59-.4.02-.29-.28,0-.4-.06-.22.04-.57-.21-.54.18Zm.74,1.07c.16,0,.43,0,.44-.23,0-.13-.1-.25-.27-.23-.18.01-.35.09-.58.15.17.14.28.3.41.31Zm-.94-.84h-.09s.01.04.01.04c.07,0,.07-.02.08-.04Z"/><path d="m19.1,3.33c.38-.1.67-.06,1.09.06.61.18,1.38.06,2.07.03.35-.02.72.14,1.05-.06v-.35c-.07-.16-.26-.41-.03-.47.7-.17.61-.8,1.1-1.07-.26,0-.49.08-.69.2-.03,0-.05.01-.07.03-.03.16.08.37-.2.44-.22.06-.38-.01-.4-.21l-.04-.05.03.05c.32.12.34-.26.6-.23.02-.02.02-.04.02-.06-.3-.37-.68-.01-1.01-.07-.43.36-.88.34-1.34.03-.14-.09-.22-.22-.38-.01-.24.33-.58.2-.91.09-.47.25-.26.58-.15.89.03.08.13.2-.04.25-.14.04-.22-.04-.28-.14h-.17c.08.27-.36.39-.28.66Z"/><path d="m71.5,3.27c.3.2.61.36,1.02.19.51-.35,1.05-.41,1.63-.12.11-.16.31-.19.5-.26l.31.1c-.04-.11-.1-.32-.11-.32-.56.08-.94-.36-1.48-.32-.39.03-.75.01-.86-.37,0-.01-.04-.02-.06-.02l-.22.13c.07.43-.33.39-.63.35-.99-.11-1.99.13-3-.09-.61-.13-.64-.02-.35-.48.09-.14.14-.29.21-.44-.58.09-1.25-.14-1.71.33.11.04.21.09.33.1.19.02.45-.24.53.02.03.11-.26.31-.44.43-.1.06-.28.04-.43.05-.12,0-.26,0-.31.11-.08.14.05.21.18.28.2.1.25.35.56.34.39.25.82.39,1.34.26.58-.37,1.27-.37,1.96-.35-.01-.1.02-.23.14-.22.22,0,.08.17.13.26.29-.35.59-.78.78.04Z"/><path d="m119.59,1.09l-.15-.12h-.07s-.07,0-.07,0c-.96.09-1.09.23-.71.75.01.02.02.04.02.05.84-.35,1.1.7,1.92.48.34-.09.8-.13.91.32.24-.2.69-.1.87-.39-.25-.24-.02-.61.1-.6.37,0,.15.32.21.5.01.04,0,.08,0,.12.29.34.76-.06,1.08.15.19-.12.36-.12.52.04.03-.49.56-.41.92-.49.18-.04.3-.12.31-.21.02-.14-.21-.03-.28-.1-.13-.11-.23-.26-.38-.35-.13-.08-.4-.25-.32.12,0,.04-.04.11-.09.14-.29.15-1.73-.23-1.93-.46-.34-.37-.84-.1-1.26-.09-.17,0-.42.07-.63.13-.2.12-.21-.01-.25-.12v-.27s-.31,0-.31,0c.03.15.03.29-.15.38-.04.06-.06.16-.11.17-.16.03-.16-.09-.18-.17Z"/><path d="m25.73,1.56v.14c.13.27.22.56.37.82.32.56.92.63,1.41.16.06-.06.09-.15.17-.18.28-.11.3-.52.03-.68q-.11-.07-.18.2c-.03.12-.03.29-.24.29-.06,0-.13-.14-.2-.22-.39-.1-.36-.39-.45-.63.45-.15.91-.13,1.38-.04-.2.38.26.48.47.68l.24-.23.48-.11s0,.06,0,.1c-.29.43.15.81.13,1.22h-.29s0-.04-.02-.05c-.2-.13-.16-.54-.41-.47-.37.1.04.4-.03.61l-.17.27c-.69-.05-1.41.06-2.08-.15h-.3s0-.24,0-.24l.06-.06-.08.05h-.19c-.09-.02-.23-.13-.23.07l-.3.12.04-.04.05.04c-.2-.27-.71-.24-.85-.68-.07-.21-.72.18-1.07.35-.06.03-.1.08-.14.13-.07-.16-.27-.41-.03-.47.7-.17.61-.8,1.1-1.07.47-.15.92-.13,1.34.09Zm1.97,1.32c.01.07.04.13.07.2.02-.03.06-.07.06-.1,0-.05-.02-.11-.04-.18-.04.04-.1.07-.09.09Z"/><path d="m47.98,3.17c-.27.03-.29.18-.28.35l.25.04.19-.02c.48.08.95.2,1.47.04.21-.07.51-.08.76.05.27.14.79.15.88.11.93-.41,1.83-.2,2.73.01.33.08.53-.11.8-.11h4.12c.15,0,.3.05.38-.09.02-.42-.37-.48-.69-.36-.29.11-.46.07-.67-.04-.1.16-.29.12-.46.14l-.16.11c-.28-.47-.83-.29-1.29-.34-.18-.02-.59.15-.47-.3.03-.11-.53.07-.55.19-.03.25-.18.23-.39.23-.05.11-.1.11-.15,0-.28.1-.61.27-.49-.21h-.23c-.24.18-.48.33-.81.11-.27.28-.54.65-.88.05l-.43-.02c-.09.29-.38.19-.62.2-.34.02-.28-.19-.31-.35-.4.42-.79.29-1.19,0-.08.13-.16.37-.25.38-.27.01-.13-.3-.35-.38-.04.34-.46.07-.61.24h-.31Z"/><path d="m31.88,3.33c.21.22.44.34.76.12-.18-.2-.35-.41-.14-.64.17-.18.29.14.48.06.23.39.37.16.53-.04.18-.23.36-.28.48.04.43-.07.36-.37.44-.6-.06-.27-.41-.37-.57-.58-.28-.25-.66-.31-1.02-.2-.27.08-.5.09-.76.03-.27.14,0,.58-.45.59-.34,0-.28-.28-.33-.46l-.3.03c.02.17.06.35.05.52,0,.11-.14.16-.27.15-.11,0-.2-.07-.13-.15.1-.12.36-.23.08-.36-.07-.03-.32.19-.48.29-.05.04-.08.15-.19.04l.19-.04c-.11-.49-.49-.39-.88-.26-.13.4.47.6.43.98.65-.22.64.1.59.46.26-.06.47.19.74.08-.04-.41.26-.77.71-.72.62.07-.2.36,0,.56.03.03.03.07.05.11Z"/><path d="m87.9,2.9h.25s.47-.14.47-.14l.17-.02-.02-.1c-.1-.04-.16-.1-.07-.19.01-.01.05-.02.07-.01.14.07,0,.14,0,.2.25.02.43-.05.54-.24.36-.6.94-.12.94.02-.03.45.36.42.65.53l1.07-.47c.16-.06.46-.02.37-.26-.08-.2-.41-.05-.49-.11-.26-.19-.66.39-.81-.1-.2-.03-.43-.02-.47-.25-.17,0-.34.03-.45-.11-.37-.03-.74-.05-1.1-.1-.72-.09-1.33.4-2.06.24v.28c.18-.01.37-.04.46.13,0,.16-.01.32-.29.33l.13.35h.64Z"/><path d="m41.38,3.29c-.09-.05-.15-.15-.06-.19.72-.29.37-.6.03-.91l-.28.03v.35s.04.05.04.05l-.03-.05c-.25-.12-.8.14-.76-.37-.42.04-.8-.41-1.27-.06-.07.05-.36-.09-.37-.29l-.44-.05c-.19.29-.75.4-.65.84,0,.02-.1.06-.15.09-.32-.7-.47.17-.73.05v.12c.75.65.94.05,1.21-.35l.06-.03-.06.03c.15.06.43.11.44.17.07.88.63.33,1.08.28.47-.05,1.01-.22,1.42.16.2.1.17.41.52.38v-.25Z"/><path d="m17.31,2.43l.28.12c.68.09.66.47.59.87.22.14.21-.09.32-.12-.19-.55.15-1.02.76-1.07-.14-.28-.14-.56.01-.84-.15-.29-.29-.09-.42,0,.09.06.11.16-.01.17-.17.02-.14-.12-.15-.21-.35-.4-.89-.14-1.27-.13-.63.02-1.31-.19-1.9.12v.17s.43.06.43.06c.14-.21.26-.1.38,0l.51.25c.04-.16.07-.33.35-.3.19.02.29.13.38.26.2.3-.08.46-.27.64Z"/><path d="m91.03,2.03c.15.49.55-.09.81.1.08.06.41-.09.49.11.09.24-.22.19-.37.26l-1.07.47.13.21h.17c.48-.36,1.1-.16,1.64-.27.13-.14.09-.28.03-.43-.11-.27.05-.4.4-.39v-.12c0-.17.11-.25.32-.23.04,0,.09,0,.13-.02-.05-.12-.25-.24,0-.35l-.02-.12c-.86-.06-1.72-.18-2.58.02.14.27.4.55-.1.77Z"/><path d="m78.72,3.27c.18-.01.17.48.48.11.23-.28.46.11.7,0,.06-.47.38-.38.72-.21.29.14.52.07.74-.09.22-.17.32-.36.08-.57-.32-.02-.61-.18-.95-.08-1.06.32-1.17.31-2.03-.05-.02,0-.06-.02-.07-.01-.43.45-1.09-.18-1.53.22.04.21.05.44.35.54,0-.15.08-.17.28-.15.43.05.84.14,1.22.29Z"/><path d="m91.03,2.03c.5-.22.24-.5.1-.77-.34-.13-.57-.37-1.04,0-.34.26-1.04,0-1.59.04-.74.05-1.52.16-2.28,0-.33-.07-.55-.04-.51.29.04.33.31.31.6.25l.62-.03c.73.16,1.34-.33,2.06-.24.36.05.73.07,1.1.1.09-.06.19-.17.26-.16.17.02.19.16.19.28.03.23.27.22.47.25Z"/><path d="m37.91,2.55c-.27.4-.45,1-1.21.35l-.61.15c-.16.09-.33.17-.29.36.28.31.66.08.97.08,1.19-.02,2.38.14,3.58-.04.32-.05.37-.16.49-.3-.41-.38-.95-.22-1.42-.16-.45.05-1.01.6-1.08-.28,0-.06-.28-.11-.43-.17Z"/><path d="m68.44,1.61c-.07.15-.13.3-.21.44-.29.46-.25.35.35.48,1.01.22,2.01-.02,3,.09.3.03.7.08.63-.35-.57-.45-1.18-.38-1.86-.15-.44.15-.77.06-.69-.41-.44.2-.81-.14-1.22-.1Z"/><path d="m76.86,2.6c.44-.4,1.1.23,1.53-.22,0,0,.05,0,.07.01.85.36.97.37,2.03.05.34-.1.63.06.95.08-.14-.39-.29-.77-.82-.96l-.38.25c-.14.25-.35.23-.66.19-.37-.05-.83,0-1.15-.03-.65-.05-1.23.36-1.86.11l.17.5s.08,0,.12.01Z"/><path d="m84.49,1.82c-.19.38-.34.73.44.77.25.01.1.17.08.27-.38.24-.81.1-1.09-.05-.71-.39-.86-.05-1,.39l-.14.03c-.46-.21-1.22-.31-.51-.94.13-.11.12-.32.18-.49.4-.01.79-.04,1.19-.03.26,0,.45-.01.47-.25l.44.03c-.02.1,0,.2-.05.29Zm-1.26.36s-.04-.01-.08.03c.02,0,.04,0,.08-.03Z"/><path d="m4.07,2.76c-.22-.36-1.02.12-1.01-.38,0-.25.33-.53.47-.83.15-.31.76-.37,1.24-.32.22.03.42.14.64.15.21.02.46.22.62.03.17-.2-.41-.12-.3-.36-.7-.42-1.6.04-2.32-.35-.23-.12-.19.23-.37.27-.18.14.62.34-.05.45-.23.37-.82.57-.74,1.08.14.03.32.04.4.11.22.18.2.8.78.24,0,0,.2.15.33.18.37.11.72.07,1.04-.12-.1-.48-.52,0-.72-.16Z"/><path d="m2.13,1.08c-.18-.02-.32-.09-.41-.23-.23-.34-.68-.56-1.04-.35C.36.69.06,1.02.02,1.42c-.08.73.31.97,1.2.85.22-.03.48.15.73.24.28-.29.18-.59-.11-.8-.29-.21-.56-.06-.78.18-.08.09-.44.23-.4-.04.03-.24-.17-.46-.03-.69.08-.14.13-.32.37-.34.25-.02.36.14.38.3.03.18.06.32.34.31.27-.01.41-.12.41-.34Z"/><path d="m76.56,2.08c.63.25,1.2-.17,1.86-.11.32.03.78-.01,1.15.03.31.04.52.06.66-.19-.53-.6-1.31-.25-1.96-.27-.97-.03-1.95.25-2.9-.12l-.08.16c.14.18.64.39-.11.48-.24.03-.38.23.04.3.44-.1.76-.6,1.34-.27Z"/><path d="m42.42,1.59c0,.38.2.57.66.32.33-.18.55-.12.82.08.27.21.74-.21,1,.16.65-.36,1.35-.04,2.03-.09.23-.02.36-.04.47-.19-.62-.33-1.29-.35-2.02-.29-.46.03-.93.06-1.44-.08-.44-.12-1.01.05-1.52.09Z"/><path d="m13.09,1.43h.33s.48.34.48.34h.21s.67-.23.67-.23c-.38-.61-1.17-.43-1.74-.46-1.12-.06-2.26.08-3.39.14l-.3.12c.5.42,1.05.5,1.65.14.48-.11.99-.32,1.26.26h.22s.16-.03.16-.03c0-.09,0-.13-.01-.17l-.05-.09.11.04.42-.08Z"/><path d="m96.49,1.41c.43.05.86.13,1.29,0,.34-.02.67,0,.93.21.23,0,.35-.01.46-.02.55.03,1.08-.19,1.67.01.31.11.46-.27.54-.51-1.66-.09-3.31-.09-4.96.1l.07.21Z"/><path d="m85.01,2.85c-.38.24-.81.1-1.09-.05-.71-.39-.86-.05-1,.39,1.15.11,2.31.32,3.45-.05.28-.09.45.17.68.13.31-.06.79.09.84-.36h-.64s-1.05-.09-1.05-.09l-1.2.04Z"/><path d="m107.87,2.01c-.01.2.1.46-.39.38-.3-.05-.56.03-.5.35,1.24.22,2.48.44,3.76.11v-.17s-.06-.14-.06-.14c-.02.01-.05.01-.07.01-.21.08-.42.16-.49-.12-.04.01-.08.01-.12.01l-.46-.1c-.06.24-.21.29-.46.14-.27-.03-.54.26-.78.03-.08-.08.04-.21.17-.28v-.11s-.14-.23-.14-.23c-.27-.23-.29.12-.45.13Z"/><path d="m82.78,3.22c-.46-.21-1.22-.31-.51-.94.13-.11.12-.32.18-.49-.22-.03-.15-.17-.16-.27l-.29.04c.09.26-.28.37-.29.6l.2.05s-.04.04-.04.04l-.16-.09c-.26-.16-.11-.39-.16-.59-.3-.29-.6-.33-.91,0,.52.18.68.56.82.96.24.21.14.4-.08.57-.21.16-.45.24-.74.09-.34-.17-.66-.26-.72.21.76.06,1.53-.15,2.28.05.3.08.45-.06.6-.22Z"/><path d="m75.22,2.35c-.42-.07-.29-.27-.04-.3.75-.09.25-.29.11-.48-.13.23-.36.06-.54.1.02.15-.11.37-.23.31-.55-.3-.93.18-1.41.15-.25.19-.27.03-.29-.12-.26-.19-.32-.02-.4.13.02,0,.06.01.07.02.11.38.47.4.86.37.54-.04.92.39,1.48.32.01,0,.07.21.11.32l.59.22.31.13.03-.34c-.66-.06-.71-.42-.66-.84Z"/><path d="m67.15,3.28c-.31.01-.36-.24-.56-.34-.13-.07-.26-.14-.18-.28.06-.11.19-.1.31-.11.15-.01.33.01.43-.05.18-.12.47-.32.44-.43-.08-.26-.35,0-.53-.02-.11-.01-.22-.07-.33-.1-.14-.19-.27,0-.41.01-.23.1-.47.24-.4.44.26.79-.44.79-1.06.87.08.17.4.09.43.31.51-.13,1,.1,1.52.06.37-.03.29-.2.33-.35Z"/><path d="m73.12,2.13c.48.04.86-.45,1.41-.15.11.06.25-.15.23-.31-.96-.03-1.91,0-2.86.08-.48.04-.98-.03-1.46-.11-.29-.05-.52,0-.77.06-.08.47.25.56.69.41.68-.23,1.29-.3,1.86.15l.22-.13c.07-.15.14-.33.4-.13l.29.12Z"/><path d="m85.01,2.85l1.2-.04v-.25c-.16,0-.3-.04-.28-.19.02-.15.19-.15.34-.16.05-.12.06-.25.06-.38-.3.06-.56.08-.6-.25-.38-.13-.78-.13-1.18-.05-.02.1,0,.2-.05.29-.19.38-.34.73.44.77.25.01.1.17.08.27Z"/><path d="m36.1,3.05l.61-.15v-.12s-.03-.05-.03-.05l.03.05c.26.12.4-.76.73-.05.05-.03.15-.07.15-.09-.1-.44.45-.55.65-.84-.03-.14-.17-.12-.29-.12-.16.19-.41.13-.64.15-.17-.08-.27.42-.36.08-.09-.36-.37-.13-.52-.22-.26.24-.38.1-.47-.12-.16-.05-.34-.29-.44.04l-.07.19c.18.08.27.28.53.28.18.08.11.22.12.34.8.22-.11.43,0,.64Z"/><path d="m110.26,1.12c.26.21.56.35.81.61.51.53,1.44.29,1.81-.35-.37.01-.78.05-.53-.43-.71-.08-1.42-.16-2.09.17Z"/><path d="m36.1,2.41c.8.22-.11.43,0,.64-.16.09-.33.17-.29.36-.46.03-.95.37-1.36-.09-.02-.02-.03-.05-.02-.08.61-.37.66-.9.63-1.45h.39c.18.08.27.28.53.27-.02.13-.02.25.12.34Zm-.48.39c.1.06.19-.05.16-.11-.06-.14.25-.4-.21-.4-.23.06-.21.15-.05.25.03.09.03.21.1.26Z"/><path d="m46.63,3.45c-.14,0-.26-.24-.42-.04-.36.44-.39.05-.5-.12-.11-.04-.24-.13-.31-.11-.28.09-.55.23-.76-.08-.17-.25.07-.39.24-.56.31-.3.54-.16.79.05.15.13.41.18.54.08.43-.35.62-.02.88.16l-.46.62Zm-1.68-.47s.05-.02.06-.03c0-.03,0-.06,0-.09l-.12.05s.04.05.07.07Z"/><path d="m104.98,2.58c-.61.03-1.25-.13-1.79.27-.14.1-.33-.02-.47-.09-.25-.13-.42-.07-.55.12.52.39,1.14.23,1.73.15.75-.11,1.47.33,2.23.04.11-.04.25-.04.29-.16-.16-.27-.43-.34-.72-.17-.36.21-.54.06-.71-.16Z"/><path d="m2.13,1.08c0,.22-.14.33-.41.34-.28.01-.31-.13-.34-.31-.02-.17-.13-.32-.38-.3-.24.01-.28.2-.37.34-.14.23.06.45.03.69-.04.28.32.13.4.04.22-.24.49-.38.78-.18.29.2.38.51.11.8.1.08.2.13.3,0-.08-.5.51-.71.74-1.08-.16-.11-.3-.22-.31-.41l-.56.05Z"/><path d="m49.5,2.95c.4.29.79.42,1.19,0,.23-.36.95-.27,1.07-.73l-.05-.4c-.26-.13-.5-.1-.71.07-.03.07.06.18-.09.22l-.05-.22s-.09-.03-.14-.02c-.62.07-.49.73-1.06.84-.13.05-.16.14-.16.24Z"/><path d="m91.03,3.17l-.13-.21c-.29-.11-.68-.09-.65-.53,0-.14-.58-.62-.94-.02-.11.19-.29.26-.54.24.01.03.02.06.02.1v.37c.74.14,1.47.39,2.24.06Z"/><path d="m98.11,3.16c.05-.33-.28-.41-.54-.46-.57-.12-1.24-.3-1.74-.1-.34.14-.58.16-.92.15-.2,0-.09.22-.1.35.72.08,1.43.24,2.18.02.33-.09.74.02,1.12.04Z"/><path d="m41.07,2.21l.28-.03c.15-.17.36-.32.32-.56-.75-.18-1.56.12-2.32-.23-.31-.14-.4.33-.68.45.01.2.31.34.37.29.47-.35.85.1,1.27.06.28-.71.5.11.75.02Z"/><path d="m53.74,2.97h.23c.14-.26.13-.25-.1-.34-.1-.04-.24-.1-.27-.18-.08-.26.34-.18.41-.36l-.32-.24-.5-.08-1,.45c.69.37.67.46-.14.92.35.6.61.23.89-.05.27-.05.4-.7.81-.12Z"/><path d="m64.86,3.26c.63-.08,1.33-.08,1.06-.87-.07-.2.17-.34.4-.44-.07-.41-.39-.07-.58-.12-.14.38-.22.81-.95.5-.12-.05-.31-.03-.36.12-.05.16.1.2.25.22l.07-.02-.06.03.16.58Z"/><path d="m34.45,3.33s-.03-.05-.02-.08c-.06-.19-.53-.08-.44-.38-.12-.32-.29-.27-.48-.04-.16.2-.3.43-.53.04-.18.07-.31-.25-.48-.06-.21.23-.04.44.14.64.61.04,1.26.4,1.81-.12Z"/><path d="m25.39,3.21c-.2-.27-.71-.24-.85-.68-.07-.21-.72.18-1.07.35-.06.03-.1.08-.14.13v.35c.53.27,1.04-.18,1.57-.03l.4-.05c.05,0,.08-.03.1-.07Z"/><path d="m107.7,1.05c.22.36,1.59.8,2.02.65.43-.15.15-.45.23-.68-.27.06-.55.21-.81-.02-.06-.05-.25-.09-.26-.07-.34.43-.79.05-1.18.12Z"/><path d="m4.07,2.76c.21.16.63-.31.72.16.21.21.43.09.64.01.36-.33.92-.14,1.34-.31-.08-.2-.06-.44-.52-.25-.27.12-.66.06-1,.09l-.19.15-.06-.07.24-.09c-.28-.09.6-.82-.43-.48-.04.19.09.44-.31.47-.09.16-.45.07-.44.32Z"/><path d="m98.41,2.83c0,.06.05.14-.08.16.92.06,1.89.47,2.66-.3l-.02-.15h-.6c-.65.11-1.3.21-1.96.3Z"/><path d="m6.78,2.63c-.42.17-.98-.02-1.34.31.04.38.38.08.55.12.65.14,1.33.05,1.99-.04-.12-.67-.78-.3-1.19-.39Z"/><path d="m17.59,2.93c-.47-.04-1,.11-1.31-.37-.12-.18-.29-.08-.32.1-.02.13.01.28-.19.36-.07.38.33.27.54.3.47.05.95.04,1.42.06-.04-.15.09-.33-.14-.45Z"/><path d="m20.01,1.66c.33.11.67.24.91-.09.16-.21.24-.08.38.01.45.31.9.34,1.34-.03-.42-.34-.95-.29-1.47-.26-.38.02-.76.07-1.14.1v.26Z"/><path d="m59.89,1.59c-.1.24-.43.59.33.4.39-.1.57.13.78.33.1.1.04.39.35.28.25-.09.19-.29.14-.47-.05-.17-.07-.35-.11-.52l-1.49-.03Z"/><path d="m30.38,3.3c.05-.35.06-.67-.59-.46l-.46.23h-.29c-.12.13-.29.11-.46.1l-.17.27c-.02.24.19.18.34.15l1.62-.29Z"/><path d="m53.69,1.85l.32.24c.43-.05.88-.32,1.24.13.09.12.36-.06.35-.09-.07-.17.51-.24.1-.43-.66.08-1.39-.36-2,.15Z"/><path d="m30.24,2.13c.17-.1.41-.32.48-.29.28.13.01.24-.08.36-.07.08.02.15.13.15.13,0,.27-.04.27-.15,0-.17-.03-.35-.05-.52-.54-.34-1.16-.27-1.78-.22l-.02.3s0,.06,0,.1h.16c.4-.12.77-.21.88.27Z"/><path d="m49.66,2.71c.57-.11.44-.77,1.06-.84-.31-.3-.63-.56-1.05-.09-.05.08-.08.23-.14.24-1,.16-.26.37-.03.56.02-.08,0-.2.18-.19l-.04.2.02.11Z"/><path d="m63.19,3.42c-.13-.23-.39-.5-.65-.27-.5.44-1.41-.23-1.74.48.81.05,1.61-.02,2.39-.21Z"/><path d="m75.53,3.39l-.59-.22-.31-.1c0,.29-.25.27-.5.26-.58-.28-1.12-.23-1.63.12.05.13.21.25.31.21.87-.31,1.86.16,2.71-.28Z"/><path d="m6.8.98c.02.39.12.68.7.35.43-.25.96.3,1.39-.09-.61-.54-1.38-.25-2.09-.26Z"/><path d="m94.63,1.36c.21.41.61.68,1.05.92-.09-.41.12-.74.42-1.06-.31-.21-.58-.02-.86.06-.15.33-.39.11-.61.08Z"/><path d="m13.25,3.11c-.52-.48-1.61-.46-2.27.04.64.23,1.3.04,1.95.05.02-.24.18-.15.33-.09Z"/><path d="m43.63,2.94c-.18.01-.3.07-.29.23l.19.08.04.13-.14-.04-.12-.15c-.18,0-.27.08-.28.22.55.05,1.03.45,1.63.23-.05-.43-.56-.48-.9-.68h-.13Z"/><path d="m70.44,3.19c-.69-.02-1.38-.02-1.96.35.23.21.45.3.8.08.44-.27.98-.02,1.47-.12l-.03-.27c-.09-.01-.18-.03-.27-.04Z"/><path d="m19.26,2.23c-.62.05-.96.53-.76,1.07l.6.02c-.09-.27.36-.39.28-.65-.17-.13-.1-.29-.11-.44Z"/><path d="m52.19,2.22l1-.45c-.51-.2-1.01-.35-1.48.05l.05.4h.43Z"/><path d="m35.06,1.81h.39s.07-.2.07-.2c-.56-.08-1.13-.28-1.66.08.17.21.51.3.57.58.11-.05.2-.09.29-.12.03-.17.04-.34.34-.34Z"/><path d="m20.01,1.66v-.26s-.74-.01-.74-.01c-.16.28-.15.56-.01.84.36.03.28.25.28.43.06.09.14.18.28.14.17-.05.07-.17.04-.25-.11-.32-.32-.64.15-.89Z"/><path d="m41.38,3.29v.25c.5.02,1.06.39,1.5-.13-.08-.22.04-.69-.53-.22-.25.21-.67-.14-.97.1Z"/><path d="m75.88,3.19l-.03.34c.58.23,1.11-.01,1.65-.15l-.28-.24c-.3-.11-.31-.33-.35-.54-.04,0-.08-.01-.12-.01,0,.46-.08.84-.85.6Z"/><path d="m82.44,1.79c.4-.01.79-.04,1.19-.03.26,0,.45-.01.47-.25-.53-.3-1.12,0-1.67-.08,0,.12,0,.24,0,.36Z"/><path d="m77.21,3.14l.28.24c.43.15.88.43,1.22-.1-.39-.15-.79-.24-1.22-.29-.2-.02-.27,0-.28.15Z"/><path d="m31.88,3.33s-.02-.08-.05-.11c-.21-.2.61-.49,0-.56-.45-.05-.74.31-.71.72.26.06.54.27.76-.05Z"/><path d="m104.98,2.58c.17.22.35.37.71.16.3-.17.56-.1.72.17.11-.03.24-.01.28-.13l-.27-.4c-.47-.1-.93.04-1.4.05l-.04.15Z"/><path d="m112.35.95c-.25.48.16.44.53.43.27.05.44-.06.55-.25l-.02-.31c-.35.09-.7.18-1.07.13Z"/><path d="m92.84,2.91c-.54.11-1.16-.09-1.64.27.55.29,1.09-.04,1.64-.03v-.24Z"/><path d="m57.61,1.61c.08.89.72.18,1.08.24-.02-.17.08-.43-.37-.31-.22.06-.48.05-.72.07Z"/><path d="m31.29,1.65c.05.18,0,.46.33.46.46,0,.19-.44.45-.59-.36-.34-.52.08-.78.13Z"/><path d="m14.78,1.55l-.67.24c.42.05.44.31.5.57.03.15.13.26.33.26.07,0,.19-.06.22-.11.07-.15-.09-.19-.22-.25-.46-.22.38-.47-.02-.69-.04-.02-.09-.02-.13-.02Z"/><path d="m113.2,2.48c-.29.16-.72-.66-.93.09q.14.44.93-.09Z"/><path d="m27.08,2.09c-.39-.1-.36-.39-.45-.63-.31-.02-.65-.2-.9.1v.14c.23.06.62-.05.65.19.07.53.39.31.7.2Z"/><path d="m28.01,1.43c-.2.38.26.48.47.68l.24-.23.19-.49c-.31-.07-.58.22-.9.05Z"/><path d="m63.18,1.97v-.34c-.28-.1-.56-.19-.87-.07,0,.18-.1.43.32.4.32-.02.46.09.45.34.14-.09.09-.21.11-.32Z"/><path d="m96.1,1.22c-.29.32-.51.65-.42,1.06.3-.27.75-.46.8-.87l-.06-.21-.32.03Z"/><path d="m17.59,2.93c.22.12.1.3.14.45l.45.05c.08-.41.09-.78-.59-.87v.37Z"/><path d="m70.72,3.23l.03.27c.29.01.54-.07.75-.23-.19-.82-.49-.39-.78-.04Z"/><path d="m104.08,1.08c0,.08-.03.17,0,.24.09.2-.33.58.13.59.41,0,.05-.34.1-.53.02-.05.15-.08.23-.12-.1-.15-.2-.31-.47-.17Z"/><path d="m94.63,1.36c.21.03.46.25.61-.08l-.33-.06c-.12.01-.23,0-.29-.1l-.61.12.13.13h.49Z"/><path d="m122.63,2.2s0-.08,0-.12c-.06-.18.16-.49-.21-.5-.13,0-.35.37-.1.6l.32.02Z"/><path d="m81.69,2.15c0-.23.39-.34.29-.6l-.46.02c.06.2-.1.43.17.58Z"/><path d="m2.69,1.03c0,.18.15.3.31.41.67-.1-.14-.31.04-.45-.03-.03-.07-.05-.11-.03h-.2s-.05.04-.04.07Z"/><path d="m25.6,3.09l-.3.12c.13.27.5.19.72.31l.02-.24v-.24c-.09-.02-.15-.01-.21-.01-.02.14-.13.1-.23.06Z"/><path d="m65.29,3.57c-.03-.22-.35-.14-.45-.29l-.24.1.19.16c.16.07.32.09.5.03Z"/><path d="m35.96,1.57c.09.22.21.36.47.12-.13-.12-.17-.44-.47-.12Z"/><path d="m88.62,2.77l-.47.13c-.02.32.24.24.48.2v-.34Z"/><path d="m37.31,1.83c.22-.01.48.05.64-.15-.32-.25-.5-.1-.64.15Z"/><path d="m124.22,2.39c-.15-.15-.33-.16-.52-.04.17.05.28.51.52.04Z"/><path d="m94.14,1.37l-.13-.13h-.3s.02.13.02.13c.14.13.28.15.42,0Z"/><path d="m23.65,1.63s0,.04-.02.06c.02-.02.04-.03.07-.03l.05-.26-.09.23Z"/><path d="m94.62,1.12c.06.1.17.12.29.1,0-.2-.1-.23-.29-.1Z"/><path d="m18.69,1.36c.02.09-.01.22.15.21.12-.01.1-.11.01-.17l-.16-.04Z"/><path d="m26.04,3.29l-.02.24c.16-.04.26-.11.31-.24h-.3Z"/><path d="m25.29,3.28l-.4.05c.16.16.3.15.4-.05Z"/><path d="m82.44,1.78v-.36c-.1-.02-.15.01-.16.09.02.1-.06.24.16.26Z"/><path d="m50.86,1.89l.05.22c.16-.04.06-.15.09-.22-.05-.02-.1-.02-.14,0Z"/><path d="m13.25,3.11c-.15-.06-.31-.15-.33.09.14.04.27.07.33-.09Z"/><path d="m105.02,2.43c.47,0,.93-.15,1.4-.05.16-.01.23-.09.24-.21v-.37c-.25-.02-.34-.12-.25-.32.04-.09.1-.21-.07-.23-.1-.01-.31.08-.31.12.04.52-.64.55-.9.85-.05.06-.07.14-.11.21Z"/><path d="m114.78,2.2c.32.11.64.25.94-.04-.53-.02-.11-.52-.49-.62l-.61-.2c.08.28.41.54.15.86Z"/><path d="m98.71,1.62c-.26-.21-.59-.23-.93-.21.01.14-.03.31.05.4.11.13-.33.34.08.35.28,0,.22-.2.19-.36-.02-.07-.02-.33.17-.09.35.45.26-.18.44-.1Z"/><path d="m109.55,2.34l.46.1c.05-.14.44-.27.09-.42-.37-.16-.48.08-.55.31Z"/><path d="m108.47,2.22c-.13.07-.25.21-.17.28.25.24.52-.06.78-.03-.03-.35-.38-.22-.62-.26Z"/><path d="m100.36,2.54h.6c-.04-.23-.23-.33-.47-.3-.18.02-.12.19-.13.3Z"/><path d="m93.72,1.72s-.08.02-.13.02v.22c.17-.02.39.03.47-.18l-.34-.07Z"/><path d="m110.12,2.43c.07.28.28.2.49.12l-.02-.25-.47.13Z"/><path d="m107.2,1.29l-.1-.06-.08.12s.09.04.12.03c.03,0,.04-.05.06-.09Z"/><path d="m99.17,1.6h-.35c.05.08.08.19.14.2.17.02.16-.11.21-.2Z"/><path d="m108.32,1.88l.15.23c.22-.19.04-.22-.15-.23Z"/><path d="m110.59,2.3c.08-.02.2.01.2-.1,0-.02-.06-.07-.09-.07-.14,0-.1.1-.11.17Z"/><path d="m106.68,1.8v.37c.18-.12.19-.24,0-.37Z"/><path d="m102.57,1.69c0,.05.03.05.05.06,0-.05-.03-.05-.05-.06Z"/><path d="m93.27,1.96v.12s.3-.13.3-.13c-.1,0-.2,0-.3,0Z"/><path d="m107.87,2.01l-.04-.05s.03.03.04.05Z"/><path d="m110.69,2.54l.05.14c.13-.08.1-.12-.05-.14Z"/><path d="m17.31,2.43c.19-.19.47-.35.27-.64-.09-.13-.19-.24-.38-.26-.28-.03-.31.14-.35.3.14.19.21.39.08.61-.06.1-.05.2.12.22.2.02.23-.1.26-.22Z"/><path d="m4.51,2.45c.4-.03.28-.29.31-.47-.15-.02-.36.06-.38-.17,0-.12-.15-.26-.28-.22-.14.04-.26.18-.32.3-.08.2.18.11.26.16.16.11.27.27.4.4Z"/><path d="m12.25,1.75c-.26-.58-.77-.37-1.26-.26.35.32.74.48,1.26.26Z"/><path d="m12.62,1.72l-.16.03s-.04.08-.08.1c-.29.14-.49.3-.19.57.08.07.29.15.26.03-.08-.28.87-.37.18-.72Z"/><path d="m15.95,1.58l-.43-.06c0,.16-.37.39.01.48.28.07.49-.14.42-.41Z"/><path d="m13.9,1.77l-.48-.33c0,.14-.25.28-.03.41.17.1.37.04.51-.08Z"/><path d="m5.45,1.86c.09.05.14.1.19.1.06,0,.11-.05.17-.08-.05-.04-.09-.1-.14-.1-.05,0-.12.04-.22.08Z"/><path d="m13.09,1.43l-.42.08-.06.05.02.12c.19-.04.46.02.46-.25Z"/><path d="m16.33,1.58c-.12-.1-.24-.22-.37,0h.37Z"/><path d="m6.37,1.28s.06.01.09,0c-.02-.01-.03-.02-.09,0Z"/><path d="m57.47,3.3c.17-.02.36.01.46-.14.07-.37.58-.11.78-.34.08-.09.33.28.45.01.07-.16-.18-.31-.34-.44-.16-.13-.28-.16-.5-.02-.27.17-.59.29-.84-.09-.15-.23-.41-.06-.57.03-.27.15-.05.25.11.35.25.16.5.34.46.64Z"/><path d="m63.18,1.97c-.01.11.03.24-.11.32-.03.14-.4.17-.22.38.06.07.21.15.31.14.32-.03.11-.25.18-.38.04-.07.07-.15.13-.21.12-.11.45-.18.33-.33-.15-.17-.39.1-.61.07Z"/><path d="m62.08,2.44l-.09-.06-.09.11s.08.04.12.03c.03,0,.04-.05.06-.08Z"/><path d="m54.61,3.19h-.15s.15,0,.15,0Z"/><path d="m120.34.98c.03.1.05.23.25.12-.03-.11-.13-.12-.25-.12Z"/><path d="m47.98,3.17h.31c0-.14-.07-.36.03-.42.17-.11.32-.18.26-.36-.03-.09-.12-.05-.16,0-.13.16-.58.11-.46.44.04.11.01.23.02.35Z"/><path d="m47.09,2.82c.09.11.1.28.32.29.03,0,.11-.09.1-.13-.04-.19-.25-.15-.41-.16Z"/><path d="m43.63,2.94h.13c0-.08.03-.18-.14-.2v.2Z"/><path d="m49.63,2.6l.04-.2c-.18,0-.15.1-.18.19h.14Z"/><path d="m48.9,2.95l-.05-.16c-.15.09,0,.11.05.16Z"/><path d="m115.23,1.54c.38.1-.04.6.49.62.19,0,.33-.09.43-.21.21-.25.46-.49.06-.77-.64-.44-.65.24-.97.35Z"/><path d="m117.75,1.1c-.22.04-.57-.21-.54.18.01.13.1.36.35.29.24-.08.58-.26.59-.4.02-.29-.28,0-.4-.06Z"/><path d="m117.54,2.05c.17.14.28.3.41.31.16,0,.43,0,.44-.23,0-.13-.1-.25-.27-.23-.18.01-.35.09-.58.15Z"/><path d="m119.59,1.09c.02.09.03.2.18.17.05,0,.07-.11.11-.17h-.29Z"/><path d="m116.93,1.55s.02-.05-.01-.05v.05Z"/><path d="m119.3.98h.07s.07,0,.07,0c-.05-.06-.09-.07-.14,0Z"/><path d="m23.03,1.93c.03.2.18.27.4.21.28-.07.17-.28.2-.44-.27-.03-.29.35-.6.23Z"/><path d="m19.54,2.67c0-.18.08-.4-.28-.44.02.15-.06.32.12.44h.17Z"/><path d="m23.02,1.93l-.03-.05s.02.03.03.05Z"/><path d="m70.44,3.19l.27.04c-.05-.09.09-.26-.13-.26-.12,0-.15.12-.14.22Z"/><path d="m74.14,3.33c.25.01.5.04.5-.26-.18.06-.39.1-.5.26Z"/><path d="m27.08,2.09c-.31.11-.63.33-.7-.2-.03-.24-.42-.13-.65-.19.12.27.21.56.36.82.32.56.92.63,1.41.16.06-.06.09-.15.17-.18.28-.11.3-.52.03-.68q-.11-.07-.18.2c-.03.12-.03.29-.24.29-.06,0-.13-.14-.2-.22Z"/><path d="m29.36,1.87h-.16c-.29.42.15.8.13,1.21l.46-.23c.05-.38-.55-.58-.43-.98Z"/><path d="m28.59,3.18c.16,0,.33.03.46-.09,0-.02,0-.05-.01-.06-.2-.13-.16-.54-.41-.47-.37.1.04.4-.03.61Z"/><path d="m27.79,2.79s-.1.07-.09.09c.01.07.04.13.07.2.02-.03.06-.07.06-.1,0-.05-.02-.11-.04-.18Z"/><path d="m25.6,3.09c.1.03.2.07.23-.06-.09-.02-.23-.13-.23.06Z"/><path d="m26.03,3.04l.06-.06s-.05.03-.06.06Z"/><path d="m52.19,2.22h-.43c-.13.47-.84.38-1.07.74.02.16-.04.37.31.35-.15-.23.1-.34.26-.41.19-.08.28.09.36.21l.43.02c.81-.46.83-.55.14-.92Z"/><path d="m51.61,3.11c-.07-.13-.16-.3-.36-.21-.16.07-.41.18-.26.41.23,0,.52.09.62-.2Z"/><path d="m53.74,2.97c-.41-.58-.54.07-.81.12.33.22.57.07.81-.12Z"/><path d="m54.62,3.19h-.16c.05.11.1.11.16,0Z"/><path d="m35.06,1.81c-.3,0-.31.17-.34.34.04.24-.11.19-.28.12-.09.24-.03.54-.46.61-.09.3.38.19.44.38.6-.37.66-.9.63-1.44Z"/><path d="m30.25,2.13l-.19.04c.11.11.13,0,.19-.04Z"/><path d="m86.32,2.22c-.07.11-.09.22-.11.34l.91-.02c.27-.01.28-.17.29-.33-.16-.02-.36.03-.46-.13l-.63.14Z"/><path d="m90.57,1.78c0-.12-.03-.26-.19-.28-.08,0-.17.1-.26.16.11.14.29.11.45.11Z"/><path d="m86.95,2.08c.1.16.3.11.46.13-.1-.17-.28-.14-.46-.13Z"/><path d="m88.77,2.65c0-.07.14-.14,0-.2-.01,0-.06,0-.07.01-.09.09-.03.14.06.19Z"/><path d="m41.07,2.21c-.25.09-.48-.73-.75-.02-.05.51.51.24.76.37v-.35Z"/><path d="m37.91,2.55l.06-.03s-.04.02-.06.03Z"/><path d="m41.07,2.56l.03.05-.03-.05Z"/><path d="m93.27,1.96h.31s.01-.23.01-.23c-.21-.02-.32.06-.32.23Z"/><path d="m75.88,3.19c.77.23.86-.15.85-.6l-.17-.5c-.58-.33-.9.17-1.34.27-.05.41,0,.78.66.84Z"/><path d="m83.16,2.21h.07s-.03-.04-.07,0Z"/><path d="m81.69,2.16l.16.09s.03-.03.04-.04c-.07-.02-.13-.03-.2-.05Z"/><path d="m73.12,2.13l-.29-.12c.02.15.04.32.29.12Z"/><path d="m86.22,2.56l.05-.35c-.15,0-.31,0-.34.16-.02.16.12.19.28.19Z"/><path d="m35.98,2.08c-.02.13-.02.25.12.34-.02-.12.05-.26-.12-.34Z"/><path d="m36.71,2.78l-.03-.05.03.05Z"/><path d="m35.52,2.55c.03.09.03.21.1.26.1.06.19-.05.16-.11-.06-.14.25-.4-.21-.4l-.05.25Z"/><path d="m35.52,2.55l.05-.25c-.23.06-.21.15-.05.25Z"/><path d="m44.88,2.9s.04.05.07.07c0,0,.05-.02.06-.03,0-.03,0-.06,0-.09l-.12.05Z"/><path d="m64.7,2.68l.06-.03s-.05.02-.06.03Z"/><path d="m5.25,2.46l-.24.09.06.07c.06-.05.13-.1.18-.16Z"/><path d="m43.53,3.25l-.19-.08c.01.07.05.12.09.17l.1-.09Z"/><path d="m34.45,2.26c.16.07.32.12.28-.12l-.28.12Z"/>
                  </g>
                </mask>
              </defs>
              <path class="mask" d="m0,1.85c39.06.91,78.89.81,119.45-.42,2.89-.09,5.77-.18,8.64-.28"
                    mask="url(#path-mask)" stroke="black" stroke-width="2" fill="none"
                    stroke-dasharray="128.1095733642578" stroke-dashoffset="128.1095733642578">
              </path>
            </svg>
        