
            <svg xmlns="http://www.w3.org/2000/svg">
              <defs>
                <mask id="path-mask">
                  <g fill="white">
                    <path d="m401.92,1.7c1.58-.15.57-.45.89-.68l1.14.1c.93.21,2.02.35,2.91.61,1.82.53,5.23.29,6.68-.35,1,.05,1.63-.05,2.05-.25,1.33.17,3.3-.23,4.33.2.28.28,1.45.54.48.86-.7.21-1.47.32-2.61.14-.94-.15-1.79-.12-2.32.14h-.88c-1.09.16-2.58-.66-3.42.09-.17,0-.41-.01-.62-.02-.2,0-.37,0-.37,0-.86.65-2.88.37-4.62.31l-.03-.17c.48-.08.38-.12-.16-.14-.09.01-.18.01-.27.01l-.06-.25c.3-.02.73.01.73-.1,0-.02-.22-.07-.32-.07-.5,0-.36.1-.41.16l-1.73.13c-.14.01-.28.01-.43.01.21-.14,1.63-.27.38-.42-1.32-.16-1.77.08-2.04.31-.25.24-.81.29-1.7.14-.09-.35-1.36-.22-2.25-.26l.04-.11c.83-.19.18-.22-.54-.24-.97-.23-1.06.12-1.67.13l-.12-.05.14.04c-.06.2.31.46-1.45.38-1.1-.05-2.04.03-1.85.35l-1.09.04-.96-.4c.59-.01.85-.09.9-.21.71-.12.77-.24.07-.37-.95-.02-1.26-.12-.92-.32.16-.09.38-.21-.25-.23-.37-.01-1.16.08-1.15.12.12.52-2.39.55-3.36.85-.2.06-.28.14-.42.21l-.17.15c-2.23.03-4.58-.13-6.59.27-.51.1-1.22-.02-1.72-.09-.91-.13-1.52-.07-2.02.12l-4.3-.2-.08-.16c-.12-.22-.81-.32-1.69-.29-.68.02-.45.19-.5.3-2.39.09-4.78.19-7.29.24l.1.05c-.03.06.16.14-.31.16-.13.09-.18.19-.8.18.21-.33-.98-.41-1.95-.46-2.1-.12-4.53-.3-6.37-.1-1.27.14-2.13.16-3.36.15-.75,0-.33.22-.39.35l-7.2.05v-.24c.48-.14.37-.28.13-.43-.4-.27.21-.4,1.49-.39l1.13-.13c.68-.02,1.49.03,1.79-.18l-1.25-.07c-.16-.12-.89-.24.06-.35.5.13,1,.15,1.52,0h1.79c.74.4,2.19.67,3.79.92,1.12-.27,2.77-.46,3-.87,1.57.05,3.14.13,4.73,0,.04.14-.14.31.17.4.41.13-1.24.34.26.35,1.04,0,.83-.2.72-.36-.05-.07-.06-.33.62-.09,1.24.45.98-.18,2.05-.1.16.06.28.18.5.18.62.02.61-.11.78-.2,2.01.03,3.97-.19,6.11.01,1.11.11,1.7-.27,2.03-.51l9.87-.02c0,.08-.11.17,0,.24.3.2-1.27.58.43.59,1.51,0,.21-.34.42-.53.06-.05.56-.08.86-.12,2.78-.29,5.79-.26,8.67-.26.84,0,2.21-.33,2.88.06.77.36,5.75.81,7.35.65Zm-9.56-.47l-.31.12c.14.01.31.04.42.03.11,0,.16-.05.24-.09-.12-.02-.23-.04-.34-.06Zm-16.4.47c-.06,0-.15-.01-.23-.02.01.05.1.05.23.02Z"/><path d="m40.26,3.15c-3.69.13-7.32-.1-10.99-.13-.49-.67-2.86-.3-4.39-.39-.31-.2-.27-.44-1.9-.25-.99.12-2.42.06-3.7.08-1.02-.09,2.12-.82-1.61-.48-.55-.02-1.32.06-1.39-.17-.04-.12-.57-.26-1.06-.22-.5.04-.96.18-1.13.3-.29.2.67.11.97.16.59.11,1.01.27,1.5.4-.3.16-1.64.07-1.57.32-.82-.36-3.72.12-3.71-.38,0-.25,1.17-.53,1.67-.83.52-.31,2.75-.37,4.52-.32.8.03,1.55.14,2.35.15.77.02,1.71.22,2.27.03.6-.2-1.51-.12-1.12-.36,1.22-.17,2.5-.24,3.91-.09.11.39.47.68,2.59.35,1.57-.25,3.55.3,5.07-.09h.58s1.11.12,1.11.12c1.86.42,3.86.5,6.04.14,1.29.32,2.74.48,4.62.26h.8c-.1.03-.15.07-.29.09-1.06.14-1.76.3-.68.57.28.07,1.07.15.94.03-.31-.28,3.17-.37.61-.76.69-.04,1.7.02,1.68-.25h1.19c.04.16-.91.3-.1.43.64.1,1.34.04,1.87-.08h.75c1.55.06,1.64.33,1.86.58.13.15.49.26,1.23.27.27,0,.71-.06.79-.11.24-.15-.35-.19-.83-.25-1.7-.22,1.37-.47-.11-.69.37-.24,1.32-.22,2.22-.22v.17c0,.17-1.33.39.08.48,1.04.07,1.77-.14,1.56-.41h1.37s1.89.25,1.89.25c.53.19.79.39.34.61-.21.1-.16.2.44.22.72.02.84-.1.95-.22l1.02.12.02.37c-1.72-.04-3.67.11-4.82-.37-.44-.18-1.08-.08-1.18.1-.08.13.06.28-.67.36-2.99.32-6.06.34-9.22.09-1.92-.48-5.92-.46-8.32.04Zm-19.62-1.19c.2,0,.4-.05.6-.08-.17-.04-.32-.1-.51-.1-.19,0-.42.04-.79.08.32.05.51.1.7.1Z"/><path d="m220.57,2c1.44-.1,2.1.13,2.84.33.37.1.13.39,1.27.28.92-.09.71-.29.54-.47-.17-.17-.26-.35-.38-.52l3.39-.06c.01.18-.38.43,1.15.4,1.16-.02,1.69.09,1.65.34-.13.14-1.48.17-.81.38.23.07.77.15,1.12.14,1.18-.03.4-.25.66-.38.14-.07.25-.15.47-.21.42-.11,1.67-.18,1.2-.33-.54-.17-1.43.1-2.24.07v-.34c3.21-.09,6.33.01,9.4.21-.5.38-.83.81-3.47.5-.44-.05-1.14-.03-1.32.12-.19.16.35.2.96.23.2.19.39.39.51.6l-.87.1.7.16c-2.09.24-4.04.18-5.88-.12-.48-.23-1.42-.5-2.38-.27-1.84.44-5.16-.23-6.39.48-1.79-.18-3.68-.05-5.51-.07.08-.42-1.33-.48-2.51-.36-1.05.11-1.67.07-2.46-.04.27-.37,2.13-.11,2.87-.34.28-.09,1.22.28,1.63.01.25-.16-.67-.31-1.24-.44-.58-.13-1.03-.16-1.84-.02-1.01.17-2.18.29-3.08-.09-.54-.23-1.52-.06-2.09.03-1,.15-.19.25.39.35.92.16,1.84.34,1.66.64l-.59.11c-1.03-.47-3.03-.29-4.73-.34-.66-.02-2.17.15-1.73-.3.11-.11-1.95.07-2.01.19-.12.25-.67.23-1.42.23h-.55c-1.02.09-2.24.27-1.82-.21.51-.27.5-.26-.37-.35-.38-.04-.89-.1-.97-.18-.29-.26,1.25-.18,1.5-.36,1.56-.05,3.21-.32,4.54.13.34.12,1.33-.06,1.27-.09-.27-.17,1.88-.24.36-.43.06-.12.23-.14.86-.12,2.04.06,4.09.25,6.16.03.29.89,2.62.18,3.97.24,1.56,0,2.72-.33,4.38-.25-.39.24-1.57.59,1.19.4Zm6.5.39l-.32.11c.14.01.3.04.42.03.1,0,.16-.05.24-.08-.12-.02-.23-.04-.34-.06Z"/><path d="m454.94,2.39c1.97-.21,4.37.13,6.18-.28,1.61.5,4.06.07,5.96.21.54.04.75.02,1.14-.05,1.19-.2,1.47-1.21.16-1.33-1.38-.12-1.82-.31-2.17-.59-.37-.29-1.05-.58-2.36-.09-.14.05-.69.11-.92.1-2.26-.17-4.44.09-6.67.11-5.13.04-10.27.15-15.4.24v.27c.45,0,.8,0,.9.12.76-.06,1.67-.13,2.31-.13,1.52-.02,3.39-.29,4.59.09.72.22,5.95.61,7.01.46.18-.03.36-.1.33-.14-.26-.37.73-.2,1.18-.12.54.09.87.24,1.34.35.27.06,1.1-.04,1.02.1-.05.09-.53.17-1.17.21-1.35.07-3.25,0-3.43.49Z"/><path d="m163.62,3.63c1.34-.08,2.93-.02,3.82-.34-.39-.04-.88-.13-1.15-.11-1.04.09-2.01.23-2.77-.08-.62-.25.25-.39.88-.56,1.12-.3,1.98-.16,2.89.05.57.13,1.51.18,1.98.08,1.58-.35,2.29-.02,3.23.16.6.02,1.36-.03,1.52.16.03.04-.25.13-.36.13-.79-.01-.81-.18-1.16-.29l-1.69.62c1.11.5,2.56.18,3.92.08-.04-.17.05-.32,1.04-.35-.02-.12.07-.24-.07-.35-.43-.33,1.2-.28,1.68-.44.13-.04.47-.08.57,0,.2.18-.34.26-.95.36-.35.06-.09.28-.1.43.54-.17,2.08.1,2.23-.24-.2-.04-.74-.07-.21-.16l.2.16c.78.08.31.39,1.28.38.34,0,.62-.24.93-.38-.01-.1.11-.19.57-.24-.02-.04-.05-.07-.09-.11h-.51c-.85-.2-3.54-.41.11-.57.24-.01.35-.16.52-.24-1.57,0-3.22.19-4.64-.18-.17-.04-2.28.25-3.69.27-.39.15-.87.17-1.71.19-2.48.05-5.07-.27-7.44.09-.95-.37-2.66.05-3.66-.16-.98-.2-1.77-.26-3-.08-1.66.24-2.38.06-2.42-.32l-2.73.04c.12.24-.63.39-1.17.56,1.25.31,2.55.62-.1.91-.34.04-.12.14.22.19,1.07-.24,2.63.1,3.54-.1,2.08-.47,1.67,0,1.94.22h.58c.05-.14.37-.22,1.03-.22.08-.18.52-.24,1.16-.25l-.05-.2c.64.02.53.12.53.21,1.24.2,3.12.24,3.31.68Z"/><path d="m423.86,2.16c.71,0,1.21-.09,1.58-.21.78-.25,1.75-.49.28-.77-2.31-.44-2.41.24-3.6.36l-2.2-.2c-1.03-.43-3-.04-4.33-.2l-.03-.31c1.27.03,2.75-.33,3.7-.06,1.2.33,2.45.24,3.86.16,5.53-.31,11.08-.31,16.65-.21.1.15.09.29-.6.38h-1.07s-.55-.12-.55-.12c-.17-.06-.34-.07-.5,0-3.52.09-4,.23-2.66.75.04.02.05.04.08.05,3.1-.35,3.94.7,6.97.48,1.26-.09,2.94-.13,3.28.32-.83.01-1.76.38-2.03.19-.53-.36-1.4-.17-2.24-.17-3.02,0-5.97-.03-9.07.05-4.42.12-8.98-.02-13.5.07-.9.02-2.33.13-2.4-.25.53-.26,1.38-.29,2.32-.14,1.14.18,1.9.08,2.61-.14,1.16.11,2.33.25,3.46-.04Zm5.53-.88c.02.13.34.36,1.25.29.87-.08,2.15-.26,2.2-.4.09-.29-1.04,0-1.45-.06-.79.04-2.07-.21-1.99.18Zm2.59,1.07c.57,0,1.59,0,1.62-.23.02-.13-.35-.25-.96-.23-.65.01-1.29.09-2.13.15.62.14,1.01.3,1.46.31Zm-3.36-.84h-.33s.04.04.04.04c.25,0,.26-.02.29-.04Z"/><path d="m70.02,3.33c1.37-.1,2.44-.06,3.99.06,2.24.18,5.05.06,7.6.03,1.28-.02,2.64.14,3.84-.06v-.35c-.27-.16-.99-.41-.13-.47,2.55-.17,2.21-.8,3.98-1.07-.94,0-1.77.08-2.51.2-.09,0-.18.01-.24.03-.1.16.3.37-.72.44-.8.06-1.37-.01-1.49-.21l-.13-.05.12.05c1.18.12,1.22-.26,2.2-.23.06-.02.09-.04.07-.06-1.12-.37-2.49-.01-3.72-.07-1.57.36-3.22.34-4.89.03-.5-.09-.83-.22-1.39-.01-.86.33-2.11.21-3.31.09-1.72.25-.93.58-.51.89.11.08.47.2-.14.25-.52.04-.82-.04-1.03-.14h-.61c.32.27-1.31.39-.98.66Z"/><path d="m261.86,3.27c1.09.2,2.22.36,3.72.19,1.87-.35,3.85-.41,5.97-.12.4-.16,1.15-.19,1.83-.26l1.12.1c-.13-.11-.34-.32-.39-.32-2.05.08-3.43-.36-5.41-.32-1.44.03-2.75.01-3.14-.37-.01-.01-.16-.02-.24-.02-.27.04-.54.08-.82.13.24.43-1.21.39-2.32.35-3.64-.11-7.29.13-10.98-.09-2.22-.13-2.35-.02-1.29-.48.32-.14.53-.29.8-.44-2.11.09-4.57-.14-6.28.33.4.04.78.09,1.2.1.68.02,1.65-.24,1.95.02.12.11-.95.31-1.62.43-.36.06-1.04.04-1.58.05-.45,0-.94,0-1.15.11-.28.14.19.21.65.28.73.1.92.35,2.06.34,1.43.25,3,.39,4.88.26,2.15-.37,4.66-.37,7.18-.35-.03-.1.08-.23.54-.22.8,0,.29.17.47.26,1.06-.35,2.17-.78,2.85.04Z"/><path d="m438.1,1.09l-.55-.12h-.25s-.25,0-.25,0c-3.52.09-4,.23-2.66.75.04.02.05.04.08.05,3.1-.35,3.94.7,6.97.48,1.26-.09,2.94-.13,3.28.32.91-.2,2.55-.1,3.24-.39-.88-.24-.02-.61.44-.61,1.35,0,.53.32.72.5.04.04,0,.08,0,.12,1.03.34,2.78-.06,3.94.15.71-.13,1.34-.12,1.88.04.18-.49,2.08-.41,3.43-.49.65-.04,1.12-.12,1.17-.21.08-.14-.75-.03-1.02-.1-.47-.11-.8-.26-1.34-.35-.45-.08-1.44-.25-1.18.12.03.04-.16.11-.33.14-1.06.15-6.29-.23-7.01-.46-1.2-.37-3.07-.1-4.59-.09-.63,0-1.54.07-2.3.13-.74.12-.77-.01-.89-.12v-.27s-1.1,0-1.1,0c.1.15.09.29-.6.38-.14.06-.23.16-.41.17-.58.03-.58-.09-.66-.17Z"/><path d="m94.22,1.56l.04.14c.45.27.8.56,1.35.82,1.19.56,3.38.63,5.16.16.22-.06.33-.15.61-.18,1.02-.11,1.09-.52.07-.68q-.42-.07-.66.2c-.11.12-.08.29-.85.29-.24,0-.5-.14-.75-.22-1.45-.1-1.35-.39-1.68-.63,1.65-.15,3.34-.13,5.05-.04-.7.38.97.48,1.76.68l.86-.23,1.74-.11s.03.06.02.1c-1.06.43.58.81.53,1.22h-1.05s0-.04-.06-.05c-.74-.13-.6-.54-1.52-.47-1.34.1.16.4-.1.61l-.63.27c-2.54-.05-5.14.06-7.63-.15h-1.08s-.04-.24-.04-.24l.23-.06-.3.05h-.68c-.35-.02-.83-.13-.82.07l-1.1.12.15-.04.17.04c-.75-.27-2.62-.24-3.15-.68-.25-.21-2.61.18-3.9.35-.21.03-.35.08-.52.13-.28-.16-1.01-.41-.14-.47,2.55-.17,2.21-.8,3.98-1.07,1.7-.15,3.35-.13,4.92.09Zm7.26,1.32c.05.07.17.13.26.2.07-.03.2-.07.21-.1,0-.05-.08-.11-.14-.18-.16.04-.35.07-.33.09Z"/><path d="m175.77,3.18c-.99.03-1.07.18-1.04.35l.92.04.71-.02c1.77.08,3.48.2,5.36.04.77-.07,1.88-.08,2.79.05,1,.14,2.9.15,3.23.11,3.41-.41,6.71-.2,9.98.01,1.2.08,1.96-.11,2.95-.11h15.09c.54,0,1.09.05,1.4-.09.08-.42-1.33-.48-2.51-.36-1.05.11-1.67.07-2.46-.04-.37.16-1.07.12-1.69.14l-.59.11c-1.03-.47-3.03-.29-4.73-.34-.66-.02-2.17.15-1.73-.3.11-.11-1.95.07-2.01.19-.12.25-.67.23-1.42.23-.18.11-.37.11-.56,0-1.01.1-2.23.27-1.81-.21h-.83c-.87.18-1.76.33-2.96.11-1,.28-1.96.65-3.24.05l-1.59-.02c-.34.29-1.41.19-2.26.2-1.26.02-1.04-.19-1.12-.35-1.45.42-2.9.29-4.35,0-.31.13-.59.37-.93.38-.97.01-.5-.3-1.28-.38-.14.34-1.68.07-2.22.24h-1.13Z"/><path d="m116.83,3.33c.78.22,1.63.34,2.79.12-.66-.2-1.3-.41-.52-.64.61-.18,1.08.14,1.74.06.87.39,1.36.16,1.94-.04.66-.23,1.3-.28,1.74.04,1.56-.07,1.32-.37,1.6-.6-.23-.27-1.49-.37-2.11-.58-1.04-.25-2.42-.31-3.74-.2-.99.08-1.84.09-2.79.03-.97.15.03.58-1.64.59-1.24,0-1.04-.28-1.23-.46l-1.1.03c.08.17.23.35.21.52-.01.11-.52.16-1,.15-.41,0-.73-.07-.49-.15.35-.12,1.32-.23.3-.36-.26-.03-1.15.19-1.76.29-.19.04-.29.15-.68.04l.7-.04c-.42-.49-1.8-.39-3.24-.26-.44.4,1.75.6,1.6.98,2.38-.22,2.35.1,2.17.46.95-.06,1.74.19,2.72.08-.14-.41.92-.77,2.56-.72,2.28.07-.74.36.05.56.11.03.13.07.19.11Z"/><path d="m321.93,2.91h.9s1.73-.14,1.73-.14l.64-.02s-.03-.07-.05-.1c-.38-.04-.56-.1-.24-.19.05-.01.2-.02.25-.01.49.07-.03.14-.03.2.91.02,1.57-.05,1.99-.24,1.34-.6,3.47-.12,3.42.02-.13.45,1.3.42,2.34.53,1.31-.16,2.61-.31,3.93-.47.58-.06,1.7-.02,1.38-.26-.26-.2-1.48-.05-1.79-.11-.95-.19-2.42.39-2.96-.1-.73-.03-1.58-.02-1.7-.25-.61,0-1.26.03-1.66-.11-1.34-.03-2.69-.06-4.02-.1-2.63-.09-4.91.4-7.57.24v.28c.65-.01,1.33-.04,1.68.13-.04.16-.06.32-1.06.33l.47.35h2.34Z"/><path d="m151.58,3.29c-.34-.05-.56-.15-.22-.19,2.65-.29,1.35-.6.1-.91l-1.02.03.02.35.13.05-.12-.05c-.93-.12-2.94.14-2.79-.37-1.54.04-2.93-.41-4.65-.06-.25.05-1.32-.09-1.37-.29l-1.62-.05c-.71.29-2.75.4-2.36.84.02.02-.35.06-.54.09-1.2-.7-1.71.17-2.66.05,0,.04,0,.08,0,.12,2.77.65,3.44.05,4.42-.35l.21-.03-.23.03c.56.06,1.58.11,1.6.17.28.88,2.3.33,3.95.28,1.71-.05,3.69-.22,5.19.16.74.1.63.41,1.93.38l.03-.25Z"/><path d="m63.43,2.43l1.02.12c2.49.09,2.45.47,2.19.87.82.14.78-.09,1.18-.12-.73-.55.49-1.02,2.75-1.07-.52-.28-.56-.56,0-.84-.57-.29-1.05-.09-1.55,0,.33.06.41.16-.03.17-.61.02-.51-.12-.57-.21-1.31-.4-3.25-.14-4.65-.13-2.29.02-4.79-.19-6.97.12v.17s1.6.06,1.6.06c.5-.21.95-.1,1.41,0l1.89.25c.14-.16.25-.33,1.27-.3.69.02,1.08.13,1.41.26.76.3-.28.46-.95.64Z"/><path d="m333.46,2.03c.54.49,2.01-.09,2.96.1.31.06,1.52-.09,1.79.11.32.24-.8.19-1.38.26-1.33.16-2.62.31-3.93.47l.48.21h.64c1.77-.36,4.02-.16,6.01-.27.47-.14.36-.28.12-.43-.4-.27.21-.4,1.49-.39l.02-.12c.02-.17.4-.25,1.19-.23.16,0,.32,0,.47-.02-.16-.12-.89-.24.06-.35l-.05-.12c-3.15-.06-6.29-.18-9.45.02.51.27,1.44.55-.42.77Z"/><path d="m288.29,3.28c.65-.01.59.48,1.75.11.87-.28,1.69.11,2.56,0,.24-.47,1.42-.38,2.65-.21,1.05.14,1.91.07,2.7-.09.82-.17,1.18-.36.31-.57-1.16-.02-2.23-.18-3.48-.08-3.88.32-4.31.31-7.42-.05-.07,0-.22-.02-.24-.01-1.58.45-4-.18-5.61.22.16.21.17.44,1.27.54.04-.15.3-.17,1.04-.15,1.58.05,3.06.14,4.47.29Z"/><path d="m333.46,2.03c1.86-.22.93-.5.42-.77-1.23-.13-2.05-.37-3.8,0-1.26.26-3.79,0-5.82.04-2.72.05-5.58.16-8.34,0-1.21-.07-2.01-.04-1.87.29.13.33,1.11.31,2.2.25l2.27-.03c2.66.16,4.94-.33,7.57-.24,1.33.03,2.68.06,4.02.1.32-.06.69-.17.97-.16.61.02.67.16.69.28.11.23.97.22,1.7.25Z"/><path d="m138.89,2.55c-.98.4-1.64,1-4.42.35l-2.22.15c-.59.09-1.2.17-1.05.36,1.04.31,2.4.08,3.54.08,4.35-.02,8.71.15,13.09-.04,1.17-.05,1.34-.16,1.78-.3-1.51-.38-3.48-.22-5.19-.16-1.64.05-3.67.6-3.95-.28-.02-.06-1.04-.11-1.59-.17Z"/><path d="m250.72,1.61c-.26.15-.48.3-.8.44-1.06.46-.94.35,1.29.48,3.69.22,7.35-.02,10.98.09,1.11.03,2.56.08,2.32-.35-2.06-.45-4.32-.38-6.8-.15-1.6.15-2.82.06-2.51-.41-1.61.2-2.95-.14-4.48-.1Z"/><path d="m281.51,2.6c1.61-.4,4.03.23,5.61-.22.02,0,.17,0,.24.01,3.11.36,3.54.37,7.42.05,1.25-.1,2.31.06,3.47.08-.49-.39-1.03-.77-2.95-.96l-1.4.25c-.52.25-1.31.23-2.44.19-1.37-.05-3.03,0-4.22-.03-2.39-.05-4.52.36-6.8.11l.61.5c.15,0,.3,0,.45.01Z"/><path d="m309.52,1.82c-.72.38-1.3.73,1.58.77.93.01.34.17.27.27-1.41.24-2.97.1-3.99-.05-2.56-.39-3.15-.05-3.7.39l-.53.03c-1.69-.21-4.46-.31-1.83-.94.47-.11.46-.32.67-.49,1.45,0,2.91-.02,4.35-.03.94,0,1.64-.01,1.74-.26l1.62.03c-.06.1-.04.2-.2.29Zm-4.63.36c-.06-.01-.15-.01-.29.03.08,0,.16,0,.29-.03Z"/><path d="m14.98,2.76c-.82-.36-3.72.12-3.71-.38,0-.25,1.17-.53,1.67-.83.52-.31,2.75-.37,4.52-.32.8.03,1.55.14,2.35.15.77.02,1.71.22,2.27.03.6-.2-1.51-.12-1.12-.36-2.6-.42-5.84.04-8.54-.35-.85-.12-.66.23-1.35.27-.66.14,2.31.34-.13.45-.82.37-2.97.57-2.64,1.08.51.03,1.16.04,1.49.11.82.18.79.8,2.87.24.01,0,.2.03.44.08.24.04.54.09.77.11,1.36.11,2.64.07,3.78-.12-.39-.48-1.9,0-2.66-.16Z"/><path d="m7.73,1.08c-.68-.02-1.16-.09-1.51-.23-.88-.34-2.54-.56-3.84-.35C1.21.69.16,1.02.03,1.42c-.24.73,1.21.97,4.47.85.8-.03,1.78.15,2.68.24.99-.29.61-.59-.46-.8-1.08-.21-2.07-.06-2.84.18-.28.09-1.58.23-1.47-.04.1-.24-.65-.46-.17-.69.29-.14.44-.32,1.32-.34.92-.02,1.31.14,1.42.3.11.18.24.32,1.26.31.99-.01,1.49-.12,1.49-.34Z"/><path d="m280.45,2.09c2.28.25,4.41-.17,6.81-.11,1.19.03,2.85-.01,4.22.03,1.13.04,1.92.06,2.44-.19-1.93-.6-4.8-.25-7.18-.27-3.55-.03-7.17.25-10.62-.12l-.28.16c.51.18,2.31.39-.43.48-.9.03-1.41.23.14.3,1.63-.1,2.82-.6,4.92-.27Z"/><path d="m155.36,1.59c.04.38.76.57,2.42.32,1.22-.18,2.01-.12,3,.08,1,.21,2.71-.21,3.66.16,2.37-.36,4.96-.04,7.44-.09.85-.02,1.33-.04,1.71-.19-2.28-.33-4.75-.35-7.4-.29-1.69.03-3.41.06-5.26-.08-1.61-.12-3.69.05-5.56.09Z"/><path d="m47.92,1.43h1.19s1.77.34,1.77.34h.76s2.45-.23,2.45-.23c-1.44-.61-4.32-.43-6.39-.46-4.11-.06-8.26.08-12.4.14l-1.1.12c1.86.42,3.86.5,6.04.14,1.76-.11,3.62-.32,4.62.26h.8s.57-.03.57-.03c0-.09-.03-.13-.05-.17l-.17-.09.39.04,1.53-.08Z"/><path d="m353.47,1.41c1.57.05,3.14.13,4.73,0,1.26-.02,2.46,0,3.39.21.85,0,1.27-.01,1.7-.02,2.01.03,3.97-.19,6.11.01,1.11.11,1.7-.27,2.03-.51-6.06-.09-12.12-.09-18.19.1l.22.21Z"/><path d="m311.37,2.86c-1.41.24-2.97.1-3.99-.05-2.56-.39-3.15-.05-3.7.39,4.22.11,8.44.32,12.65-.05,1.02-.09,1.66.17,2.48.13,1.14-.06,2.9.09,3.11-.36h-2.34s-3.84-.09-3.84-.09l-4.39.04Z"/><path d="m395.13,2.01c-.06.2.31.46-1.45.38-1.1-.05-2.04.03-1.85.35,4.52.22,9.05.44,13.74.11l-.03-.17-.16-.14c-.09.01-.18.01-.27.01-.79.08-1.56.16-1.79-.12-.14.01-.28.01-.43.01l-1.66-.1c-.25.24-.81.29-1.7.14-.98-.03-1.99.26-2.88.03-.29-.08.15-.21.63-.28l.04-.11-.54-.24c-.97-.23-1.06.12-1.65.13Z"/><path d="m303.16,3.22c-1.69-.21-4.46-.31-1.83-.94.47-.11.46-.32.67-.49-.8-.03-.54-.17-.59-.27l-1.08.04c.34.26-1.06.37-1.09.6l.72.05c-.05.02-.16.04-.16.04-.2-.03-.39-.06-.58-.09-.96-.16-.37-.39-.57-.59-1.09-.29-2.2-.33-3.35,0,1.91.18,2.45.56,2.95.96.87.21.51.4-.31.57-.79.16-1.65.24-2.7.09-1.23-.17-2.41-.26-2.65.21,2.78.06,5.61-.15,8.35.05,1.08.08,1.65-.06,2.21-.22Z"/><path d="m275.54,2.35c-1.55-.07-1.04-.27-.14-.3,2.75-.09.94-.29.43-.48-.47.23-1.33.06-1.99.1.07.15-.43.37-.84.31-2.01-.3-3.43.18-5.17.15-.93.19-.98.03-1.06-.12-.95-.19-1.18-.02-1.46.13.08,0,.23.01.24.02.39.38,1.71.4,3.14.37,1.98-.04,3.36.39,5.41.32.05,0,.26.21.39.32l2.14.22,1.14.13.13-.34c-2.43-.06-2.57-.42-2.37-.84Z"/><path d="m245.94,3.28c-1.13.01-1.33-.24-2.06-.34-.46-.07-.93-.14-.65-.28.22-.11.71-.1,1.15-.11.54-.01,1.22.01,1.58-.05.68-.12,1.74-.32,1.62-.43-.3-.26-1.27,0-1.95-.02-.41-.01-.8-.07-1.2-.1-.52-.19-.99,0-1.49.01-.83.1-1.71.24-1.46.44.95.79-1.61.79-3.91.87.28.17,1.48.09,1.57.31,1.88-.13,3.67.1,5.58.06,1.36-.03,1.07-.2,1.22-.35Z"/><path d="m267.83,2.13c1.75.04,3.17-.45,5.17-.15.41.06.91-.15.84-.31-3.5-.03-6.99,0-10.48.08-1.75.04-3.6-.03-5.34-.11-1.05-.05-1.9,0-2.83.06-.31.47.92.56,2.51.41,2.48-.23,4.73-.3,6.8.15.27-.04.55-.08.82-.13.27-.15.51-.33,1.45-.13l1.06.12Z"/><path d="m311.37,2.86l4.39-.04.04-.25c-.6,0-1.13-.04-1.03-.19.09-.15.7-.15,1.24-.16.2-.12.22-.25.23-.38-1.09.06-2.07.08-2.2-.25-1.4-.13-2.85-.13-4.32-.05-.06.1-.04.2-.2.29-.72.38-1.3.73,1.58.77.93.01.34.17.27.27Z"/><path d="m132.25,3.05l2.22-.15v-.12s-.12-.05-.12-.05l.11.05c.95.12,1.46-.76,2.66-.05.19-.03.56-.07.54-.09-.39-.44,1.65-.55,2.36-.84-.12-.14-.61-.12-1.05-.12-.58.19-1.51.13-2.33.15-.61-.08-.99.42-1.31.08-.34-.36-1.35-.13-1.91-.22-.96.24-1.4.1-1.73-.12-.57-.05-1.26-.29-1.61.04l-.25.19c.67.08,1.01.28,1.95.28.65.08.4.22.46.34,2.94.22-.39.43,0,.64Z"/><path d="m403.95,1.12c.93.21,2.02.35,2.91.61,1.82.53,5.23.29,6.68-.35-1.36.01-2.86.05-1.91-.43-2.6-.08-5.2-.16-7.67.17Z"/><path d="m132.25,2.42c2.94.22-.39.43,0,.64-.59.09-1.2.17-1.05.36-1.68.03-3.45.37-4.97-.09-.07-.02-.1-.05-.07-.08,2.21-.37,2.39-.9,2.27-1.45h1.41c.67.08,1.01.28,1.95.27-.06.13-.08.25.46.34Zm-1.76.39c.35.06.69-.05.58-.11-.22-.14.9-.4-.79-.4-.84.06-.77.15-.16.25.11.09.11.21.38.26Z"/><path d="m170.81,3.45c-.51,0-.94-.24-1.52-.04-1.3.44-1.42.05-1.84-.12-.39-.04-.88-.13-1.15-.11-1.04.09-2.01.23-2.77-.08-.62-.25.25-.39.88-.56,1.12-.3,1.98-.16,2.89.05.57.13,1.51.18,1.98.08,1.58-.35,2.29-.02,3.23.16-.56.21-1.13.41-1.69.62Zm-6.15-.47s.2-.02.21-.03c.02-.03,0-.06-.02-.09l-.43.05c.08.03.15.05.24.07Z"/><path d="m384.49,2.58c-2.23.03-4.58-.13-6.59.27-.51.1-1.22-.02-1.72-.09-.91-.13-1.52-.07-2.02.12,1.89.39,4.17.23,6.31.15,2.77-.11,5.37.33,8.16.04.41-.04.9-.04,1.09-.16-.57-.27-1.53-.34-2.64-.17-1.34.21-1.97.06-2.59-.16Z"/><path d="m7.73,1.08c0,.22-.5.33-1.49.34-1.02.01-1.15-.13-1.26-.31-.1-.17-.5-.32-1.42-.3-.88.02-1.03.2-1.32.34-.48.23.27.45.17.69-.11.28,1.19.13,1.47.04.77-.24,1.76-.38,2.84-.18,1.07.2,1.44.51.46.8.36.08.73.13,1.1,0-.32-.5,1.82-.71,2.65-1.08-.58-.11-1.11-.22-1.15-.41l-2.05.05Z"/><path d="m181.32,2.95c1.45.29,2.9.42,4.35,0,.85-.36,3.47-.27,3.94-.73l-.2-.4c-.95-.13-1.82-.1-2.61.07-.12.07.23.18-.35.22l-.18-.22c-.16-.02-.33-.03-.52-.02-2.25.07-1.8.73-3.87.84-.47.05-.58.14-.57.24Z"/><path d="m333.36,3.17l-.48-.21c-1.04-.11-2.47-.09-2.34-.53.04-.14-2.09-.62-3.42-.02-.42.19-1.09.26-1.99.24.04.03.06.06.07.1l-.04.37c2.7.14,5.38.39,8.2.06Z"/><path d="m359.29,3.16c.21-.33-.98-.41-1.95-.46-2.1-.12-4.53-.3-6.37-.1-1.27.14-2.13.16-3.36.15-.75,0-.33.22-.39.35,2.64.08,5.21.24,7.98.02,1.2-.09,2.72.02,4.1.04Z"/><path d="m150.43,2.21l1.02-.03c.55-.17,1.3-.32,1.17-.56-2.75-.18-5.7.12-8.49-.23-1.12-.14-1.47.33-2.48.45.05.2,1.13.34,1.37.29,1.71-.35,3.11.1,4.65.06,1-.71,1.83.11,2.76.02Z"/><path d="m196.85,2.97h.83c.51-.26.5-.25-.38-.34-.38-.04-.89-.1-.97-.18-.29-.26,1.25-.18,1.5-.36l-1.16-.24-1.82-.08-3.68.45c2.51.37,2.45.46-.53.92,1.28.6,2.24.23,3.24-.05.98-.05,1.46-.7,2.96-.12Z"/><path d="m237.57,3.26c2.3-.08,4.86-.08,3.91-.87-.24-.2.64-.34,1.46-.44-.26-.41-1.43-.07-2.12-.12-.5.38-.83.81-3.47.5-.44-.05-1.14-.03-1.32.12-.19.16.35.2.93.22l.25-.02-.22.03.59.58Z"/><path d="m126.23,3.33c-.07-.02-.1-.05-.07-.08-.24-.19-1.95-.08-1.64-.38-.44-.32-1.09-.27-1.74-.04-.58.2-1.07.43-1.94.04-.66.07-1.13-.25-1.74-.06-.78.23-.13.44.52.64,2.24.04,4.61.4,6.61-.12Z"/><path d="m93.03,3.21c-.75-.27-2.62-.24-3.15-.68-.25-.21-2.61.18-3.9.35-.21.03-.35.08-.52.13v.35c1.97.27,3.81-.18,5.77-.03l1.44-.05c.19,0,.31-.03.36-.07Z"/><path d="m394.57,1.05c.77.36,5.75.81,7.35.65,1.58-.15.57-.45.89-.68-1.01.06-2.02.21-2.97-.02-.21-.05-.91-.09-.95-.07-1.28.43-2.9.05-4.32.12Z"/><path d="m14.98,2.76c.77.16,2.28-.31,2.66.16.79.21,1.57.09,2.35.01,1.3-.33,3.37-.14,4.9-.31-.31-.2-.27-.44-1.9-.25-.99.12-2.42.06-3.66.09l-.68.15-.22-.07.86-.09c-1.02-.09,2.12-.82-1.61-.48-.13.19.36.44-1.12.47-.3.16-1.64.07-1.57.32Z"/><path d="m360.4,2.83c-.03.06.16.14-.31.16,3.35.06,6.87.47,9.77-.3l-.08-.15h-2.19c-2.39.11-4.78.21-7.19.3Z"/><path d="m24.88,2.63c-1.53.17-3.59-.02-4.9.31.18.38,1.39.08,2.01.12,2.39.14,4.86.05,7.27-.04-.49-.67-2.86-.3-4.39-.39Z"/><path d="m64.47,2.93c-1.72-.04-3.67.11-4.82-.37-.44-.18-1.08-.08-1.18.1-.08.13.06.28-.67.36-.24.38,1.21.27,1.98.3,1.72.05,3.47.04,5.21.06-.14-.15.3-.33-.52-.45Z"/><path d="m73.29,1.66c1.2.11,2.45.24,3.31-.09.56-.21.89-.08,1.39.01,1.67.31,3.33.34,4.89-.03-1.56-.34-3.5-.29-5.4-.26-1.4.03-2.78.07-4.18.1l-.02.26Z"/><path d="m219.38,1.59c-.39.24-1.57.59,1.19.4,1.44-.1,2.1.13,2.84.33.37.1.13.39,1.27.28.92-.09.71-.29.54-.47-.17-.17-.26-.35-.38-.52l-5.46-.03Z"/><path d="m111.31,3.3c.18-.35.21-.67-2.17-.46l-1.66.23h-1.05c-.45.13-1.07.11-1.67.1l-.63.27c-.05.24.68.18,1.27.15,1.97-.1,3.94-.19,5.91-.29Z"/><path d="m196.67,1.85l1.16.24c1.56-.05,3.21-.32,4.54.13.34.12,1.33-.06,1.27-.09-.27-.17,1.88-.24.36-.43-2.43.08-5.08-.36-7.34.15Z"/><path d="m110.78,2.13c.6-.1,1.5-.32,1.76-.29,1.02.13.05.24-.3.36-.24.08.07.15.49.15.48,0,.98-.04,1-.15.02-.17-.13-.35-.21-.52-1.99-.34-4.26-.27-6.51-.22l-.07.3s.03.06.02.1h.6c1.45-.12,2.83-.21,3.23.27Z"/><path d="m181.9,2.71c2.07-.11,1.62-.77,3.87-.84-1.15-.3-2.33-.56-3.84-.09-.17.08-.28.23-.52.24-3.65.16-.96.37-.11.56.09-.08,0-.2.64-.19l-.13.2s.06.07.09.11Z"/><path d="m231.45,3.42c-.48-.23-1.42-.5-2.38-.27-1.84.44-5.16-.23-6.39.48,2.98.05,5.9-.02,8.76-.21Z"/><path d="m276.64,3.39l-2.14-.22-1.12-.1c0,.29-.92.27-1.83.26-2.12-.28-4.1-.23-5.97.12.18.13.76.25,1.14.21,3.2-.31,6.8.16,9.92-.28Z"/><path d="m24.85.98c.11.39.47.68,2.59.35,1.57-.25,3.55.3,5.07-.09-2.28-.54-5.06-.25-7.66-.26Z"/><path d="m346.68,1.36c.74.41,2.19.68,3.79.92-.32-.41.51-.74,1.6-1.06-1.12-.21-2.12-.02-3.15.06-.55.33-1.45.11-2.24.08Z"/><path d="m48.59,3.11c-1.92-.48-5.92-.46-8.32.04,2.37.23,4.76.04,7.14.05.06-.24.64-.15,1.19-.09Z"/><path d="m159.83,2.94c-.64.01-1.08.07-1.07.23l.7.08.16.13-.52-.04-.43-.15c-.66,0-.97.08-1.03.22,2.01.05,3.76.45,5.99.23-.2-.43-2.07-.48-3.31-.68h-.49Z"/><path d="m258.01,3.19c-2.53-.02-5.04-.02-7.18.35.85.21,1.65.3,2.91.08,1.6-.27,3.6-.02,5.37-.12l-.1-.27c-.33-.01-.66-.03-.99-.04Z"/><path d="m70.56,2.23c-2.26.05-3.48.53-2.75,1.07l2.21.02c-.34-.27,1.3-.39.98-.65-.64-.13-.37-.29-.44-.44Z"/><path d="m191.18,2.22l3.68-.45c-1.86-.2-3.7-.35-5.44.05l.19.4h1.56Z"/><path d="m128.42,1.81h1.41s.25-.2.25-.2c-2.06-.08-4.15-.28-6.07.08.61.21,1.88.3,2.11.58.4-.05.73-.09,1.07-.12.09-.17.14-.34,1.23-.34Z"/><path d="m73.29,1.66l.02-.26h-2.74c-.56.27-.52.55,0,.83,1.34.03,1.02.25,1.05.43.21.09.51.18,1.03.14.61-.05.25-.17.14-.25-.42-.32-1.21-.64.51-.89Z"/><path d="m151.58,3.29l-.03.25c1.87.02,3.93.39,5.52-.13-.28-.22.14-.69-1.94-.22-.9.21-2.47-.14-3.54.1Z"/><path d="m277.91,3.19l-.13.34c2.13.23,4.06-.01,6.03-.15l-1.03-.24c-1.09-.11-1.11-.33-1.27-.54-.15,0-.3,0-.45-.01,0,.46-.33.84-3.15.6Z"/><path d="m302.01,1.79c1.45,0,2.91-.02,4.35-.03.94,0,1.64-.01,1.74-.26-1.94-.3-4.09,0-6.11-.08,0,.12,0,.24.02.36Z"/><path d="m282.78,3.14l1.03.24c1.57.15,3.2.43,4.48-.1-1.41-.15-2.89-.24-4.47-.29-.75-.02-1.01,0-1.04.15Z"/><path d="m116.83,3.33c-.06-.04-.08-.08-.19-.11-.79-.2,2.23-.49-.05-.56-1.65-.05-2.7.31-2.56.72.96.06,1.99.27,2.8-.05Z"/><path d="m384.49,2.58c.62.22,1.25.37,2.59.16,1.11-.17,2.07-.1,2.64.17.39-.03.89-.01,1.03-.13l-.96-.4c-1.72-.1-3.41.04-5.12.05l-.17.15Z"/><path d="m411.62.95c-.95.48.56.44,1.91.43,1,.05,1.63-.06,2.05-.25l-.03-.31c-1.29.09-2.57.18-3.94.13Z"/><path d="m340.02,2.91c-1.99.11-4.24-.09-6.01.27,2,.29,4-.04,6-.03v-.24Z"/><path d="m211.03,1.61c.29.89,2.62.18,3.97.24-.09-.17.3-.43-1.34-.31-.82.06-1.75.05-2.63.07Z"/><path d="m114.61,1.65c.19.18-.01.46,1.23.46,1.68,0,.67-.44,1.64-.59-1.34-.34-1.92.08-2.87.13Z"/><path d="m54.09,1.55l-2.45.24c1.54.05,1.64.31,1.86.57.13.15.49.26,1.23.27.27,0,.71-.06.79-.11.24-.15-.35-.19-.83-.25-1.7-.22,1.37-.47-.11-.69-.15-.02-.32-.02-.49-.02Z"/><path d="m414.59,2.48c-1.09.16-2.58-.66-3.42.09q.47.44,3.42-.09Z"/><path d="m99.2,2.09c-1.45-.1-1.35-.39-1.68-.63-1.13-.02-2.38-.2-3.3.1l.04.14c.81.06,2.24-.05,2.37.19.29.53,1.45.31,2.57.2Z"/><path d="m102.57,1.43c-.7.38.97.48,1.76.68l.86-.23.68-.49c-1.13-.07-2.13.22-3.3.05Z"/><path d="m231.42,1.97v-.34c-1.03-.1-2.06-.19-3.19-.07.01.18-.38.43,1.15.4,1.16-.02,1.69.09,1.65.34.51-.09.35-.21.39-.32Z"/><path d="m352.06,1.22c-1.09.32-1.91.65-1.6,1.06,1.12-.27,2.77-.46,3-.87l-.22-.21-1.18.03Z"/><path d="m64.47,2.93c.82.12.38.3.52.45l1.65.05c.26-.41.3-.78-2.19-.87l.02.37Z"/><path d="m259,3.23l.1.27c1.07.01,1.98-.07,2.76-.23-.68-.82-1.79-.39-2.86-.04Z"/><path d="m381.31,1.08c0,.08-.11.17,0,.24.3.2-1.27.58.43.59,1.51,0,.21-.34.42-.53.06-.05.56-.08.86-.12-.37-.15-.7-.31-1.71-.17Z"/><path d="m346.68,1.36c.78.03,1.68.25,2.24-.08l-1.21-.06c-.46.01-.84,0-1.06-.1l-2.23.12.47.13h1.79Z"/><path d="m449.11,2.2s.04-.08,0-.12c-.19-.18.63-.49-.72-.5-.46,0-1.32.37-.44.61l1.16.02Z"/><path d="m299.25,2.15c.04-.23,1.43-.34,1.09-.6l-1.68.02c.2.2-.38.43.59.58Z"/><path d="m9.78,1.03c.04.18.57.3,1.15.41,2.44-.1-.53-.31.13-.45-.1-.03-.25-.05-.42-.03h-.73c-.15.02-.19.04-.12.07Z"/><path d="m93.81,3.09l-1.1.12c.48.27,1.82.19,2.65.31l.06-.24-.04-.24c-.3-.01-.52-.01-.75-.01-.08.14-.46.1-.82.06Z"/><path d="m239.14,3.57c-.09-.22-1.29-.14-1.64-.29l-.87.1.7.16c.58.07,1.18.09,1.81.03Z"/><path d="m131.7,1.57c.33.22.77.36,1.73.12-.46-.12-.65-.44-1.73-.12Z"/><path d="m324.56,2.77l-1.73.13c-.08.32.88.24,1.73.2v-.34Z"/><path d="m136.65,1.83c.82-.01,1.75.05,2.33-.15-1.18-.25-1.82-.1-2.33.15Z"/><path d="m454.93,2.39c-.54-.15-1.17-.16-1.88-.04.61.05.97.51,1.88.04Z"/><path d="m344.89,1.37l-.47-.13h-1.1s.05.13.05.13c.5.13,1,.15,1.52,0Z"/><path d="m86.6,1.63s-.01.04-.07.06c.08-.02.16-.03.26-.03l.16-.26-.34.23Z"/><path d="m346.66,1.12c.21.1.6.12,1.06.1.01-.2-.35-.23-1.06-.1Z"/><path d="m68.42,1.36c.06.09-.04.22.57.21.45-.01.36-.11.03-.17l-.6-.04Z"/><path d="m95.42,3.29l-.06.24c.57-.04.96-.11,1.14-.24h-1.08Z"/><path d="m92.67,3.28l-1.44.05c.61.16,1.09.15,1.44-.05Z"/><path d="m301.98,1.78v-.36c-.35-.02-.54.01-.56.09.05.1-.22.24.56.26Z"/><path d="m186.29,1.89l.18.22c.58-.04.22-.15.35-.22-.18-.02-.35-.02-.52,0Z"/><path d="m48.58,3.11c-.55-.06-1.13-.15-1.19.09.5.04,1,.07,1.19-.09Z"/><path d="m384.66,2.43c1.71,0,3.4-.15,5.12-.05.6-.01.86-.09.91-.21l.07-.37c-.95-.02-1.26-.12-.92-.32.16-.09.38-.21-.25-.23-.37-.01-1.16.08-1.15.12.12.52-2.39.55-3.36.85-.2.06-.28.14-.42.21Z"/><path d="m420.4,2.2c1.16.11,2.33.25,3.46-.04-1.95-.02-.36-.52-1.74-.62l-2.2-.2c.28.28,1.45.54.48.86Z"/><path d="m361.59,1.62c-.93-.21-2.14-.23-3.39-.21.04.14-.14.31.17.4.41.13-1.24.34.26.35,1.04,0,.83-.2.72-.36-.05-.07-.06-.33.62-.09,1.24.45.98-.18,1.63-.1Z"/><path d="m401.22,2.34l1.66.1c.21-.14,1.63-.27.38-.42-1.32-.16-1.77.08-2.04.31Z"/><path d="m397.28,2.22c-.48.07-.92.21-.63.28.89.24,1.9-.06,2.88-.03-.09-.35-1.36-.22-2.25-.26Z"/><path d="m367.59,2.54h2.19c-.12-.23-.81-.33-1.69-.3-.68.02-.45.19-.5.3Z"/><path d="m343.31,1.72c-.15.01-.31.02-.47.02l-.06.23c.67-.02,1.48.03,1.78-.18l-1.25-.07Z"/><path d="m403.31,2.43c.23.28,1.01.2,1.79.12l-.06-.25c-.59.04-1.16.09-1.74.13Z"/><path d="m392.71,1.29c-.12-.02-.23-.04-.34-.06l-.31.12c.14.01.31.04.42.03.11,0,.16-.05.24-.09Z"/><path d="m363.29,1.6h-1.28c.16.08.28.19.5.2.62.02.61-.11.78-.2Z"/><path d="m396.78,1.88l.54.24c.83-.19.18-.22-.54-.24Z"/><path d="m405.05,2.3c.3-.02.73.01.73-.1,0-.02-.22-.07-.32-.07-.5,0-.36.1-.4.17Z"/><path d="m390.76,1.8l-.07.37c.71-.12.77-.24.07-.37Z"/><path d="m375.74,1.69c.01.05.1.05.17.06-.01-.05-.1-.05-.17-.06Z"/><path d="m341.66,1.96l-.02.12,1.13-.13c-.36,0-.74,0-1.11,0Z"/><path d="m395.11,2.01l-.12-.05s.09.03.12.05Z"/><path d="m405.38,2.54l.16.14c.48-.08.38-.12-.16-.14Z"/><path d="m63.43,2.43c.67-.19,1.71-.35.95-.64-.33-.13-.72-.24-1.41-.26-1.02-.03-1.14.14-1.27.3.53.19.79.39.34.61-.21.1-.16.2.44.22.72.02.84-.1.95-.22Z"/><path d="m16.55,2.45c1.48-.03.99-.29,1.12-.47-.55-.02-1.32.06-1.39-.17-.04-.12-.57-.26-1.06-.22-.5.04-.96.18-1.13.3-.29.2.67.11.97.16.59.11,1.01.27,1.5.4Z"/><path d="m44.86,1.75c-1-.58-2.86-.37-4.62-.26,1.29.32,2.74.48,4.62.26Z"/><path d="m46.23,1.72l-.57.03c-.1.03-.16.08-.29.1-1.06.14-1.76.3-.68.57.28.07,1.07.15.94.03-.31-.28,3.17-.37.6-.72Z"/><path d="m58.4,1.58l-1.59-.06c-.02.16-1.35.39.06.48,1.04.07,1.77-.14,1.53-.41Z"/><path d="m50.88,1.77l-1.77-.33c.04.14-.91.28-.1.41.64.1,1.34.04,1.87-.08Z"/><path d="m19.94,1.86c.32.05.51.1.7.1.2,0,.4-.05.6-.08-.17-.04-.32-.1-.51-.1-.19,0-.42.04-.79.08Z"/><path d="m47.92,1.43l-1.53.08c-.07.02-.15.03-.22.05l.07.12c.69-.04,1.7.02,1.68-.25Z"/><path d="m59.81,1.59c-.45-.1-.9-.22-1.37,0h1.37Z"/><path d="m23.28,1.28c.16.03.23.01.31,0-.06-.01-.11-.02-.31,0Z"/><path d="m210.52,3.3c.61-.02,1.32.01,1.69-.14.27-.37,2.13-.11,2.87-.34.28-.09,1.22.28,1.63.01.25-.16-.67-.31-1.24-.44-.58-.13-1.03-.16-1.84-.02-1.01.17-2.18.29-3.08-.09-.54-.23-1.52-.06-2.09.03-1,.15-.19.25.39.35.92.16,1.84.34,1.66.64Z"/><path d="m231.42,1.97c-.04.11.11.24-.39.32-.13.14-1.48.17-.81.38.23.07.77.15,1.12.14,1.18-.03.4-.25.66-.38.14-.07.25-.15.47-.21.42-.11,1.67-.18,1.2-.33-.54-.17-1.43.1-2.24.07Z"/><path d="m227.41,2.45c-.12-.02-.23-.04-.34-.06l-.32.11c.14.01.3.04.42.03.1,0,.16-.05.24-.08Z"/><path d="m200.05,3.19h-.55c.18,0,.37,0,.55,0Z"/><path d="m440.87.98c.11.1.15.23.89.12-.1-.11-.45-.12-.89-.12Z"/><path d="m175.77,3.18h1.13c.01-.14-.24-.36.1-.42.61-.11,1.16-.18.95-.36-.1-.09-.44-.05-.57,0-.49.16-2.12.11-1.68.44.14.11.05.23.07.35Z"/><path d="m172.5,2.82c.35.11.37.28,1.16.29.11,0,.39-.09.36-.13-.16-.19-.92-.15-1.52-.17Z"/><path d="m159.83,2.94h.49c0-.08.1-.18-.53-.2l.05.2Z"/><path d="m181.81,2.6l.13-.2c-.65,0-.56.1-.64.19h.51Z"/><path d="m179.11,2.95l-.2-.16c-.53.09.01.11.2.16Z"/><path d="m422.12,1.54c1.38.1-.22.6,1.74.62.71,0,1.21-.09,1.58-.21.78-.25,1.75-.49.28-.77-2.31-.44-2.41.24-3.6.36Z"/><path d="m431.38,1.1c-.79.04-2.07-.21-1.99.18.02.13.34.36,1.25.29.87-.08,2.15-.26,2.2-.4.09-.29-1.04,0-1.45-.06Z"/><path d="m430.52,2.05c.62.14,1.01.3,1.46.31.57,0,1.59,0,1.62-.23.02-.13-.35-.25-.96-.23-.65.01-1.29.09-2.13.15Z"/><path d="m438.1,1.09c.08.09.08.2.66.17.18,0,.28-.11.41-.17h-1.07Z"/><path d="m428.33,1.55c.18-.04.07-.05-.04-.05l.04.05Z"/><path d="m437.04.98h.25s.25,0,.25,0c-.17-.06-.34-.07-.5,0Z"/><path d="m84.34,1.93c.11.2.69.27,1.49.21,1.02-.07.62-.28.72-.44-.99-.03-1.03.35-2.21.23Z"/><path d="m71.61,2.67c-.03-.18.29-.4-1.07-.44.08.15-.19.32.45.44h.61Z"/><path d="m84.33,1.93l-.12-.05s.09.03.12.05Z"/><path d="m258.01,3.19l1,.04c-.18-.09.34-.26-.47-.26-.46,0-.57.12-.54.22Z"/><path d="m271.55,3.33c.9.01,1.83.04,1.83-.26-.67.06-1.43.1-1.83.26Z"/><path d="m99.2,2.09c-1.12.11-2.28.33-2.57-.2-.13-.24-1.56-.13-2.37-.19.45.27.8.56,1.35.82,1.19.56,3.38.63,5.16.16.22-.06.33-.15.61-.18,1.02-.11,1.09-.52.07-.68q-.42-.07-.66.2c-.11.12-.08.29-.85.29-.24,0-.5-.14-.75-.22Z"/><path d="m107.55,1.87h-.6c-1.06.42.58.8.53,1.21l1.66-.23c.16-.38-2.04-.58-1.6-.98Z"/><path d="m104.76,3.18c.6,0,1.23.03,1.67-.09-.02-.02,0-.05-.06-.06-.74-.13-.6-.54-1.52-.47-1.34.1.16.4-.1.61Z"/><path d="m101.81,2.79c-.16.04-.35.07-.33.09.05.07.17.13.26.2.07-.03.2-.07.21-.1,0-.05-.08-.11-.14-.18Z"/><path d="m93.81,3.09c.37.03.74.07.82-.06-.35-.02-.83-.13-.82.06Z"/><path d="m95.38,3.04l.23-.06c-.1.02-.2.03-.23.06Z"/><path d="m191.18,2.22h-1.56c-.47.47-3.08.38-3.94.74.09.16-.14.37,1.12.35-.53-.23.38-.34.96-.41.71-.08,1.04.09,1.31.21l1.59.02c2.98-.46,3.04-.55.53-.92Z"/><path d="m189.06,3.11c-.26-.13-.6-.3-1.31-.21-.58.07-1.49.18-.96.41.86,0,1.92.09,2.26-.2Z"/><path d="m196.85,2.97c-1.5-.58-1.98.07-2.96.12,1.2.22,2.09.07,2.96-.12Z"/><path d="m200.06,3.19h-.57c.19.11.38.11.57,0Z"/><path d="m128.42,1.81c-1.09,0-1.14.17-1.23.34.16.24-.4.19-1.01.12-.34.24-.1.54-1.67.61-.32.3,1.39.19,1.63.38,2.21-.37,2.39-.9,2.27-1.44Z"/><path d="m110.79,2.13l-.7.04c.39.11.49,0,.7-.04Z"/><path d="m316.2,2.22c-.26.11-.34.22-.41.34,1.11,0,2.22-.01,3.33-.02,1-.01,1.02-.17,1.06-.33-.6-.02-1.32.03-1.68-.13l-2.31.14Z"/><path d="m331.76,1.78c-.02-.12-.08-.26-.69-.28-.28,0-.64.11-.97.16.39.14,1.04.11,1.66.11Z"/><path d="m318.5,2.08c.35.16,1.08.11,1.68.13-.34-.17-1.02-.14-1.68-.13Z"/><path d="m325.13,2.65c0-.07.52-.14.03-.2-.05,0-.21,0-.25.01-.32.09-.13.14.22.19Z"/><path d="m150.43,2.21c-.93.09-1.76-.73-2.76-.02-.16.51,1.86.24,2.79.37l-.03-.35Z"/><path d="m138.88,2.55l.23-.03c-.07,0-.14.02-.23.03Z"/><path d="m150.46,2.56l.12.05s-.08-.04-.12-.05Z"/><path d="m341.66,1.96h1.12s.06-.23.06-.23c-.79-.02-1.17.06-1.18.23Z"/><path d="m277.91,3.19c2.82.23,3.14-.15,3.15-.6l-.61-.5c-2.1-.33-3.29.17-4.92.27-.2.41-.06.78,2.37.84Z"/><path d="m304.6,2.21h.24s-.1-.04-.24,0Z"/><path d="m299.23,2.16c.19.03.38.06.58.09,0,0,.1-.03.16-.04-.24-.02-.48-.03-.74-.05Z"/><path d="m267.83,2.13l-1.06-.12c.07.15.12.32,1.06.12Z"/><path d="m315.79,2.56l.22-.35c-.54,0-1.15,0-1.24.16-.09.16.44.19,1.03.19Z"/><path d="m131.79,2.08c-.06.13-.08.25.46.34-.06-.12.19-.26-.46-.34Z"/><path d="m134.47,2.78l-.11-.05s.08.03.11.05Z"/><path d="m130.11,2.55c.11.09.11.21.38.26.35.06.69-.05.58-.11-.22-.14.9-.4-.79-.4l-.16.25Z"/><path d="m130.11,2.55l.16-.25c-.84.06-.77.15-.16.25Z"/><path d="m164.41,2.9c.08.03.15.05.24.07.01,0,.2-.02.21-.03.02-.03,0-.06-.02-.09l-.43.05Z"/><path d="m236.99,2.68l.22-.03c-.08,0-.17.02-.22.03Z"/><path d="m19.28,2.46l-.86.09.22.07c.23-.05.45-.1.64-.16Z"/><path d="m159.46,3.25l-.7-.08c.05.07.19.12.34.17l.37-.09Z"/><path d="m126.19,2.26c.6.07,1.17.12,1.01-.12l-1.01.12Z"/>
                  </g>
                </mask>
              </defs>
              <path class="mask" d="m0,1.85c143.1.91,289,.81,437.57-.42,10.57-.09,21.13-.18,31.66-.28"
                    mask="url(#path-mask)" stroke="black" stroke-width="2" fill="none"
                    stroke-dasharray="469.2353820800781" stroke-dashoffset="469.2353820800781">
              </path>
            </svg>
        