
            <svg xmlns="http://www.w3.org/2000/svg">
              <defs>
                <mask id="path-mask">
                  <g fill="white">
                    <path d="m259.71,6.1c4.89.09,1.79-.06,2.76-.09l3.52.11c2.88.12,6.23.26,8.97.37,5.62.27,16.16.49,20.66.48,3.09.1,5.04.13,6.35.12,4.11.15,10.22.25,13.39.43.87.09,4.48.25,1.45.23-2.18-.02-4.56-.06-8.06-.2-2.89-.12-5.53-.18-7.16-.17l-2.72-.08c-3.37-.06-7.95-.37-10.58-.27-1.06-.03-3.01-.09-3.04-.09-2.67.08-8.9-.15-14.3-.3l-.08-.04c1.48.02,1.18,0-.49-.04-.27,0-.55-.01-.85-.02l-.17-.06c.46.01,1.03.02,1.48.03.22,0,.42,0,.56,0,.14,0,.22,0,.22,0,0,0-.66-.03-1-.04-1.56-.04-1.12,0-1.28,0l-5.35-.1c-.43,0-.88-.02-1.33-.03.66-.02,5.05.06,1.18-.07-4.09-.14-5.47-.12-6.31-.08-.78.04-2.51,0-5.25-.09-.26-.09-4.21-.15-6.94-.22l.13-.02c2.57.01.56-.04-1.65-.1-3-.12-3.28-.05-5.17-.09l-.38-.02.43.02c-.18.05.95.13-4.51,0-3.4-.09-6.31-.13-5.72-.04l-3.37-.06-2.96-.16c1.84.04,2.64.03,2.8,0,2.2.02,2.38,0,.23-.09-2.92-.07-3.89-.11-2.84-.14.49-.01,1.17-.03-.76-.07-1.13-.01-3.52-.05-3.57-.05.35.14-7.4-.02-10.41,0-.61.01-.87.02-1.3.03l-.53.03c-6.91-.13-14.16-.31-20.38-.31-1.57,0-3.77-.07-5.32-.12-2.81-.08-4.71-.1-6.25-.08l-13.31-.27-.24-.05c-.37-.06-2.5-.12-5.21-.16-2.09-.03-1.4.03-1.56.06-7.4-.08-14.79-.17-22.55-.26l.31.02c-.1.01.5.04-.97.03-.42.02-.58.04-2.47.02.66-.08-3.03-.15-6.03-.2-6.48-.11-14.01-.25-19.69-.26-3.93-.03-6.58-.04-10.41-.07-2.32-.02-1.03.05-1.22.08l-22.28-.18.03-.07c1.47-.03,1.11-.07.39-.12-1.25-.08.65-.11,4.62-.07h3.51c2.1,0,4.62.04,5.54,0l-3.85-.05c-.49-.04-2.76-.09.18-.09,1.54.05,3.1.07,4.7.04l5.54.05c2.27.13,6.76.25,11.69.37,3.48-.04,8.58-.03,9.31-.14,4.87.06,9.72.12,14.64.18.12.04-.43.08.52.12,1.26.05-3.84.04.79.11,3.21.04,2.58-.02,2.23-.07-.16-.02-.18-.09,1.91,0,3.82.17,3.03,0,6.33.06.5.02.86.06,1.53.07,1.91.03,1.89,0,2.42-.02,6.22.1,12.28.13,18.89.29,3.44.08,5.28.01,6.3-.04l30.54.54s-.35.04-.02.06c.94.07-3.95.08,1.32.18,4.67.09.64-.08,1.32-.11.2,0,1.75.01,2.67.02,8.61.09,17.9.3,26.83.5,2.6.06,6.83.07,8.9.21,2.36.14,17.77.61,22.72.7Zm-29.56-.81h-.97c.44.02.96.03,1.3.04.33,0,.49,0,.74,0-.37-.01-.72-.03-1.06-.04Zm-50.74-.89c-.19,0-.46-.01-.7-.02.03.01.3.02.7.02Z"/><path d="m124.55,7.66c-11.41.13-22.65.25-33.99.38-1.52-.18-8.85.02-13.58.05-.95-.05-.84-.12-5.9,0-3.07.04-7.5.11-11.43.16-3.16.01,6.55-.32-5-.08-1.69.01-4.07.07-4.31,0-.12-.03-1.77-.06-3.27-.03-1.54.03-2.96.09-3.5.13-.9.07,2.06,0,2.99.01,1.82.02,3.12.04,4.64.06-.92.06-5.08.08-4.85.15-1.27-.04-4.15,0-6.7.04-1.28.01-2.47.03-3.35.03-.88,0-1.43-.01-1.43-.05,0-.02.23-.04.59-.06.37-.02.86-.05,1.41-.08,1.09-.06,2.38-.13,3.15-.17,1.6-.11,8.49-.21,13.96-.27,2.47-.02,4.81-.03,7.26-.04,2.37-.02,5.28,0,7.01-.08,1.85-.08-4.69.02-3.48-.06,3.76-.1,7.72-.17,12.08-.17.33.11,1.48.18,8.01,0,4.86-.13,11-.05,15.69-.22l1.8-.03h3.43c5.76.05,11.95,0,18.67-.19,3.99.04,8.5.04,14.3-.1l2.47-.03c-.29.01-.48.02-.9.04-3.27.08-5.45.16-2.08.19.88,0,3.31,0,2.89-.03-.98-.07,9.79-.23,1.89-.25,1.06-.02,2.37-.04,3.41-.05,1.04-.02,1.81-.04,1.79-.08l3.69-.04c.13.04-2.82.12-.31.12,1.99,0,4.15-.04,5.78-.09l2.33-.02c4.78-.04,5.08.03,5.76.1.4.04,1.52.06,3.81.03.85-.01,2.18-.04,2.45-.06.75-.05-1.1-.04-2.56-.04-5.27,0,4.23-.19-.35-.2,1.14-.08,4.09-.11,6.85-.15l.04.05c-.05.05-4.16.16.21.14,3.23-.02,5.48-.11,4.83-.18l4.23-.05h5.85c1.64.04,2.45.08,1.05.16-.64.04-.48.06,1.37.05,2.24-.02,2.59-.06,2.93-.1h3.15s.08.11.08.11c-5.33.05-11.33.17-14.91.07-1.36-.04-3.33.02-3.65.07-.23.04.19.08-2.06.13-9.23.21-18.75.33-28.51.38-5.94-.07-18.33.09-25.75.33Zm-60.69.4c.63-.02,1.24-.03,1.86-.05-.53,0-1.01,0-1.59-.01-.6.01-1.31.03-2.45.05,1,0,1.59,0,2.18,0Z"/><path d="m304.06.58c-4.44.04-6.5-.02-8.78-.08-1.14-.03-.4-.11-3.94-.07-2.86.03-2.2.09-1.66.14.51.05.79.1,1.17.14l-10.48.04s.28-.06-.02-.08c-.29-.02-1.18-.04-3.55-.02-3.59.02-5.22-.01-5.09-.08.4-.04,4.58-.06,2.52-.11-.73-.02-2.38-.04-3.48-.03-3.66.02-1.23.07-2.03.11-.45.02-.79.03-1.45.06-1.31.04-5.15.07-3.71.1,1.66.04,4.42-.04,6.93-.04v.1c-9.93.05-19.57.05-29.08.03,1.56-.11,2.57-.24,10.74-.18,1.35.01,3.53,0,4.09-.05.59-.05-1.1-.05-2.96-.05-.6-.05-1.21-.11-1.58-.17l2.7-.04-2.18-.04c6.47-.09,12.51-.09,18.2-.02,1.48.06,4.38.13,7.35.06,5.69-.14,15.97.02,19.76-.18,5.53.04,11.37-.01,17.05-.01-.23.12,4.13.13,7.76.09,3.25-.04,5.17-.03,7.6,0-.85.11-6.59.04-8.88.11-.86.03-3.78-.07-5.05,0-.79.05,2.06.08,3.82.12,1.79.03,3.2.04,5.68,0,3.12-.05,6.75-.09,9.54.01,1.68.06,4.7.01,6.47-.02,3.1-.05.59-.07-1.22-.1-2.86-.04-5.68-.09-5.14-.17l1.82-.03c3.2.13,9.38.07,14.62.08,2.04,0,6.73-.05,5.35.08-.33.03,6.02-.02,6.2-.06.38-.07,2.08-.07,4.39-.07h1.7c3.17-.03,6.93-.08,5.63.06-1.59.08-1.54.07,1.15.1,1.18.01,2.76.03,3.01.05.9.07-3.88.05-4.64.1-4.83.01-9.93.09-14.03-.03-1.05-.03-4.13.02-3.94.03.84.05-5.82.07-1.13.12-.2.03-.72.04-2.65.04-6.31-.01-12.64-.06-19.07.01-.9-.25-8.12-.04-12.29-.05-4.84,0-8.42.11-13.55.1,1.2-.07,4.87-.18-3.68-.11Zm-20.1-.06l.99-.03c-.44,0-.94,0-1.3,0-.32.01-.49.02-.74.02.37,0,.71,0,1.05.01Z"/><path d="m423.58,11.52c6.08.2,13.49.54,19.11.69,4.94.27,12.54.49,18.42.74,1.67.06,2.32.08,3.51.13,3.68.11,4.59-.01.54-.19-4.27-.19-5.6-.27-6.69-.36-1.12-.09-3.22-.22-7.29-.3-.45-.02-2.13-.07-2.84-.1-6.99-.27-13.72-.52-20.62-.79-15.87-.61-31.74-1.21-47.61-1.82l.03.05c1.34.05,2.43.1,2.73.13,2.36.08,5.18.18,7.13.25,4.7.18,10.47.36,14.18.57,2.22.13,18.38.82,21.66.92.55.02,1.12.03,1.03.02-.79-.09,2.26.05,3.65.12,1.67.09,2.69.14,4.13.22.82.04,3.39.12,3.15.14-.16,0-1.63-.03-3.63-.1-4.17-.15-10.06-.39-10.6-.32Z"/><path d="m480.22.47c-4.15-.05-9.07-.12-11.81-.05,1.19.02,2.73.05,3.55.07,3.2,0,6.22.01,8.57.14,1.93.11-.78.09-2.74.11-3.46.03-6.12-.03-8.92-.12-1.75-.05-4.68-.09-6.11-.08-4.9.06-7.07-.05-9.98-.11-1.86-.02-4.22-.02-4.7-.07-.1-.01.76-.03,1.1-.03,2.45.02,2.52.07,3.59.1l5.24-.14c-3.44-.16-7.93-.1-12.14-.09.11.05-.17.09-3.22.08.05.03-.22.07.22.1,1.34.1-3.7.06-5.21.1-.41.01-1.45.02-1.76,0-.63-.05,1.06-.07,2.95-.09,1.07-.01.27-.08.31-.12-1.67.04-6.43-.05-6.91.04.61.01,2.3.03.65.05l-.6-.05c-2.43-.03-.94-.11-3.96-.12-1.06,0-1.92.06-2.88.1.04.03-.33.05-1.77.06.08,0,.16.02.27.03h1.59c2.64.07,10.95.15-.33.17-.74,0-1.08.04-1.61.06,4.86.01,9.95-.02,14.36.1.54,0,7.07-.01,11.43-.02,1.2-.03,2.68-.03,5.3-.02,7.66.06,15.67.13,23,.19,2.94.15,8.22.12,11.33.29.76.05,1.48.09,2.19.13l1.06.08c.18.02.35.04.52.06.07,0,.21.06.17.03-.02-.04-.02.01-.04-.13.05-.14.04-.08.05-.1.03-.01-.02,0-.02,0l-.11.03c-1.41.19-2.99.25-4.87.37-5.12.28-7.36.28-7.47.18l-8.45.25c.39.06-1.94.16-3.63.25,3.87,0,7.89-.02-.29.26-1.05.04-.36.05.69.04,3.31-.15,8.15-.18,10.94-.32,6.43-.34,5.15-.18,6.01-.14l1.79-.07c.17-.05,1.14-.1,3.18-.22.12-.03.52-.07,1.14-.13.31-.04.67-.06,1.1-.15.07-.03.09,0,.22-.1.13-.24-.08-.27-.09-.29l-.1-.03c-.12-.03-.23-.04-.35-.05-.23-.02-.47-.04-.72-.06l.15.07c-.98-.07-1.39-.1-1.56-.11-.17-.02-.09-.03-.09-.04-3.84-.23-9.64-.32-10.24-.45Z"/><path d="m327.52,8.06c2.2.07,3.75.1,4.9.11,2.43.02,5.42.07.89-.13-7.13-.31-7.45-.18-11.15-.27l-6.8-.25c-3.17-.19-9.29-.28-13.39-.43l-.08-.07c3.94.12,8.5.18,11.45.32,3.71.18,7.57.28,11.92.39,17.1.46,34.28,1.02,51.49,1.66.3.04.27.07-1.86,0l-3.31-.12-1.7-.08c-.52-.03-1.03-.05-1.55-.05-10.87-.35-12.38-.37-8.26-.13.12,0,.16.01.24.02,9.61.26,12.15.53,21.54.86,3.9.13,9.09.33,10.14.45-2.56-.1-5.45-.14-6.29-.21-1.62-.13-4.31-.2-6.92-.3-9.33-.36-18.44-.64-28.03-.94-13.65-.41-27.75-.83-41.73-1.25-2.78-.08-7.21-.17-7.42-.27,1.64-.01,4.27.06,7.16.17,3.5.14,5.88.19,8.06.2,3.6.13,7.2.27,10.71.31Zm17.12.35s.3.04.9.07,1.55.07,2.94.11c2.7.07,6.65.17,6.8.14.3-.05-3.21-.1-4.47-.16-2.46-.07-6.38-.25-6.17-.16Zm7.99.48c1.76.06,4.91.16,5.03.12.07-.02-1.08-.08-2.95-.14-2.02-.06-3.98-.11-6.58-.18,1.92.09,3.11.14,4.51.21Zm-10.37-.5l-1.03-.03h.13c.77.03.8.03.9.03Z"/><path d="m216.61,6.59c4.24-.08,7.55-.11,12.34-.13,6.94-.03,15.61-.17,23.49-.28,3.95-.05,8.17-.06,11.87-.16l.04-.1c-.87-.04-3.12-.08-.45-.13,7.89-.14,6.83-.31,12.3-.46-2.91.04-5.49.09-7.77.15-.29,0-.54.01-.75.02-.3.05.94.1-2.21.15-2.48.05-4.25.05-4.61,0h-.41s.38,0,.38,0c3.66-.01,3.78-.12,6.81-.15.19,0,.26-.01.23-.02-3.48-.07-7.71.09-11.51.12-4.84.16-9.96.22-15.14.19-1.54,0-2.56-.03-4.29.05-2.66.13-6.52.14-10.24.15-5.32.14-2.86.2-1.57.28.34.02,1.45.04-.42.08-1.6.03-2.53.02-3.19,0l-1.89.02c1,.07-4.05.16-3,.23Z"/><path d="m176.34.65c-3.36-.04-6.86-.07-11.5,0-5.78.13-11.92.17-18.47.13-1.24.05-3.57.07-5.65.1h-3.47c.41.02,1.05.08,1.21.08,6.34,0,10.61,0,16.72,0,4.45-.03,8.51-.05,9.72.06.04,0,.49,0,.73,0,.84-.02,1.68-.03,2.53-.05-.74-.12,3.75-.13,7.17-.13,11.25-.04,22.56-.08,33.97-.12,6.88.01,7.26-.02,3.97.12-.99.05-1.65.09-2.47.13,6.54-.05,14.14-.02,19.42-.17-1.23,0-2.43-.01-3.71-.02-2.1,0-5.12.09-6.04.02-.38-.03,2.92-.1,5.02-.14,1.11,0,3.22-.02,4.88-.03,1.39,0,2.9-.01,3.57-.04.87-.04-.58-.06-2.01-.07-2.25-.02-2.86-.09-6.36-.07-4.42-.06-9.29-.08-15.1-.02-6.64.13-14.41.16-22.22.19.1.03-.24.06-1.66.07-2.49,0-.9-.05-1.45-.07-3.3.11-6.71.25-8.82.03Z"/><path d="m371.57,9.28l-1.7-.08-.78-.03-.78-.03c-10.87-.35-12.38-.37-8.26-.13.12,0,.16.01.24.02,9.61.26,12.15.53,21.54.86,3.9.13,9.09.33,10.14.45,2.83.07,7.89.28,10.02.31-2.7-.15-.04-.11,1.38-.06,4.16.16,1.62.12,2.21.18.12.01,0,.01-.01.02,3.18.18,8.61.32,12.17.5,2.2.06,4.14.14,5.81.23.56-.06,6.46.18,10.62.32,2,.07,3.48.11,3.63.1.25-.01-2.33-.1-3.15-.14-1.44-.08-2.47-.13-4.13-.22-1.39-.07-4.44-.22-3.65-.12.09.01-.49,0-1.03-.02-3.29-.1-19.45-.79-21.66-.92-3.71-.21-9.48-.39-14.18-.57-1.95-.07-4.77-.17-7.12-.25-2.29-.07-2.39-.1-2.74-.13l-.03-.05-3.36-.13c.3.04.27.07-1.86,0-.42,0-.73,0-1.28-.01-1.78-.06-1.79-.08-2.02-.1Z"/><path d="m291.43,5.17l.11.04c1.38.06,2.49.11,4.2.19,3.69.12,10.45.06,15.97-.15.69-.03,1.04-.05,1.88-.08,3.14-.08,3.36-.21.22-.2q-1.31,0-2.05.09c-.35.04-.25.09-2.63.12-.73,0-1.54-.02-2.31-.04-4.48.03-4.19-.06-5.2-.12,5.11-.07,10.34-.15,15.61-.23-2.17.15,3,.09,5.45.1l2.66-.11,5.38-.12c.08,0,.1.02.06.03-3.27.18,1.81.2,1.66.32l-3.25.06c-.05,0-.01-.01-.18-.01-2.3,0-1.88-.12-4.69-.06-4.15.1.49.11-.3.18l-1.94.11c-7.86.13-15.9.27-23.59.29l-3.34.04-.14-.07.71-.03-.92.02-2.1.03c-1.07,0-2.58,0-2.54.05l-3.39.08.47-.02h.52c-2.33-.05-8.11.03-9.76-.07-.78-.05-8.08.15-12.05.25-.66.02-1.08.04-1.61.06-.87-.04-3.12-.08-.45-.13,7.89-.14,6.83-.31,12.3-.46,5.27-.11,10.36-.16,15.23-.16Zm22.47.09c.15.02.52.03.81.04.11,0,.27-.01.4-.02s.23-.01.24-.02c.01-.02-.24-.03-.42-.04-.49.02-1.07.04-1.02.04Z"/><path d="m442.65.28c3.05,0,3.32-.04,3.22-.08l-2.85-.02h-2.2c-5.48-.05-10.77-.1-16.59-.07-2.37.01-5.81,0-8.64-.03-3.11-.04-8.98-.06-9.98-.05-10.55.1-20.75.04-30.87-.02-3.72.01-6.06.02-9.11.03l-46.68.06c-1.67,0-3.38,0-4.35.03-.23.12,4.13.13,7.76.09,3.25-.04,5.17-.03,7.6,0,1.13-.05,3.32-.04,5.22-.05l1.82-.03c3.2.13,9.38.07,14.62.08,2.04,0,6.73-.05,5.35.08-.33.03,6.02-.02,6.2-.06.38-.07,2.08-.07,4.39-.07.56-.03,1.15-.03,1.73,0,3.13-.03,6.9-.08,5.58.06.85,0,1.71,0,2.57,0,2.68-.05,5.45-.09,9.16-.03,3.08-.08,6.08-.18,10.02,0h4.91c1.07-.07,4.35-.04,7.01-.04,3.88,0,3.2.06,3.47.1,4.49-.11,8.98-.07,13.47.03.95-.04,1.82-.1,2.88-.1,3.01,0,1.53.09,3.96.12.43-.09,5.19,0,6.86-.04l3.49.02Z"/><path d="m361.37,4.61c2.41.02,5.06.01,8.63-.11-2.04-.02-4.03-.05-1.63-.16,1.9-.08,3.34-.02,5.39-.07,2.68.07,4.22-.03,6-.11,2.03-.1,4.02-.15,5.39-.08,4.84-.1,4.09-.18,4.96-.26-.72-.07-4.63-.03-6.53-.05-3.22-.02-7.49.04-11.57.14-3.06.07-5.7.12-8.64.15-2.99.09.11.16-5.07.25-3.84.07-3.21-.03-3.81-.07l-3.42.06c.25.05.71.09.66.14-.02.02-.42.03-1,.05-.58.01-1.34.03-2.08.04-1.28.02-2.24.02-1.51-.02,1.09-.05,4.08-.13.91-.12-.79,0-3.57.11-5.43.17-.59.02-.9.06-2.1.05l2.15-.05c-1.3-.12-5.56-.02-10.03.09-1.37.14,5.43.08,4.95.2,7.35-.18,7.27-.09,6.71.02,2.95-.07,5.38-.03,8.42-.12-.44-.11,2.82-.27,7.91-.34,7.05-.1-2.27.14.16.16.34,0,.39.01.58.02Z"/><path d="m12.28,2.96l2.78.02h5.37s1.98,0,1.98,0c-.05,0-.1-.02-.17-.03-1.16-.02-1.74-.04-.75-.06.14,0,.62,0,.79,0,1.52.03-.09.04-.09.06,2.8.02,4.87.01,6.17-.03,2.07-.07,4.75-.07,6.9-.04,1.07.02,2.01.04,2.68.05.66.02,1.05.04,1.01.05-.42.12,4.02.14,7.23.19,4.05-.02,8.06-.03,12.18-.05,1.8,0,5.26.03,4.28-.04-.81-.06-4.58-.05-5.52-.07-2.95-.07-7.5.06-9.15-.09-2.24-.02-4.9-.04-5.24-.1-1.89-.01-3.9-.02-5.12-.06-4.15-.03-8.33-.07-12.44-.1-4.07-.01-7.87-.02-11.68-.03-3.81-.02-7.64.03-11.73-.16l-.02.08c2.02.11,4.13.09,5.18.16-.13.04-.2.1-3.29.04l1.46.13,7.23.08Z"/><path d="m468.83,2.59c-1.05.01-1.74,0-.69-.04,8.19-.29,4.17-.27.3-.26-1.05.03-2.1.06-3.16.08l.07.1h.39s-.37,0-.37,0c-2.87.03-9.1.25-8.62.09-4.76.11-9.08.08-14.37.28-.76.03-4.08.05-4.25,0l-5.02.08c-2.18.12-8.51.27-7.29.38-.06,0-1.09.04-1.68.06-3.73-.13-5.29.14-8.22.16.02.01.01.02.01.03,8.59.03,10.63-.18,13.65-.35l.65-.02-.7.02c.86,0,2.08-.02,3.1-.03.51,0,.96,0,1.3-.01.33,0,.54,0,.56,0,.86.23,7.13-.04,12.21-.16,5.29-.12,11.39-.3,16.07-.3,2.3-.02,1.96.07,5.96-.03l.1-.07Z"/><path d="m196.2,6.57h3.15c7.69-.07,7.59.04,6.79.17,2.53.01,2.4-.05,3.64-.08-2.27-.13,1.49-.32,8.48-.42-1.61-.06-1.74-.14,0-.25-1.77-.06-3.25.01-4.78.06,1.02,0,1.28.03-.1.05-1.89.03-1.58-.02-1.77-.04-4.07-.07-10.06.08-14.39.14-7.09.09-14.82.12-21.54.3l.04.05,4.92-.04c1.55-.08,2.95-.07,4.35-.05h5.85c.42-.05.78-.11,3.94-.14,2.13-.02,3.34,0,4.36.02,2.37.06-.86.14-2.93.22Z"/><path d="m47.94,2.93c1.65.15,6.21.02,9.15.09.95.02,4.71,0,5.52.07.98.07-2.48.03-4.28.04-4.11.02-8.12.03-12.18.05l1.47.07h1.98c5.48-.05,12.44.05,18.6.07,1.47-.03,1.11-.07.39-.12-1.25-.08.65-.11,4.62-.07l.08-.03c.06-.05,1.24-.06,3.67-.03.5,0,.99,0,1.46,0-.49-.04-2.76-.09.18-.09l-.14-.04c-9.73-.1-19.45-.21-29.23-.22,1.57.09,4.45.18-1.3.2Z"/><path d="m94.6,1.1c-2.02.02-1.83-.12-5.42,0-2.69.1-5.23,0-7.91.05-.75.14-4.39.14-8.2.12-3.24-.02-5.9.03-8.34.09-2.53.07-3.64.13-.97.17,3.59-.02,6.89,0,10.75-.06,12.01-.18,13.32-.18,22.95-.14.23,0,.69,0,.75,0,4.9-.16,12.36-.03,17.35-.17-.48-.06-.53-.12-3.92-.13-.12.04-.91.05-3.23.06-4.88,0-9.46,0-13.82,0Z"/><path d="m47.94,2.93c5.76-.02,2.87-.12,1.3-.2-3.79-.06-6.33-.14-11.77-.07-3.91.05-11.74-.07-18-.09-4.21-.03-8.53-.05-12.86-.08l-3.24-.05c-.54-.02-1.08-.03-1.61-.06l-.19-.02h-.03s-.08-.03.03.02c.04.03.05.06.07.11.02.04.02.14-.03.2-.05.06-.11.07-.09.06h.02c.1-.02.25-.03.37-.04l.8-.04c2.15-.09,4.3-.12,6.43-.16,3.73-.05,6.2-.09,5.79-.18-.4-.09-3.42-.04-6.79.05l-3.51.09-1.75.06-.87.05-.43.04s-.07.01-.09.02c0,0-.04.03.03-.03.03-.09-.01-.1,0-.11-.04-.03-.03-.02,0-.02.06.01.14.02.2.02,4.1.19,7.93.14,11.74.16,3.81.01,7.61.02,11.68.03,4.11.03,8.29.07,12.44.1,1,0,2.13-.02,2.99-.03,1.89.02,2.07.06,2.14.09.34.06,3,.08,5.24.1Z"/><path d="m429.59,3.2c-3.02.17-5.06.38-13.65.35-2.29.06-4.58.11-6.87.17-1.82.06-3.72.12-3.25.16,3.22.03,7.43-.11,10.96-.17,13.47-.25,26.93-.45,40.49-.8,3.62-.09,4.13-.14,5.51-.21-4.67,0-10.77.18-16.07.3-5.08.12-11.34.39-12.21.16-.02,0-.23,0-.56,0-.33,0-.79,0-1.29.01-1.01.01-2.22.03-3.06.03Z"/><path d="m210.82.98c.81-.04,1.48-.08,2.47-.13,3.29-.14,2.91-.11-3.97-.12-11.41.04-22.72.08-33.97.12-3.42,0-7.91.01-7.17.13,6.38.1,13.36.05,21.03-.05,4.95-.06,8.73-.05,7.77.08,4.98-.08,9.11,0,13.84-.03Z"/><path d="m115.57,1.16c-5,.14-12.46,0-17.35.17-.06,0-.52,0-.75,0-9.63-.04-10.94-.03-22.95.14-3.86.06-7.16.04-10.75.06,1.52.1,3.19.19,9.1.2l4.33-.1c1.6-.08,4.05-.1,7.53-.11,4.24-.03,9.37-.06,13.04-.08,7.41-.03,13.99-.19,21.05-.16l-1.87-.13c-.47,0-.94,0-1.39,0Z"/><path d="m28.93,2.05c2.22-.13,4.02-.26-4.87-.16-2.86.03-1.06-.03-.85-.07,4.38-.12,9.2-.14,12.33-.12,7.93.03,9.73-.08,11.43-.22l1.63-.02c5.21.01,13.78-.03,5.65.22-1.47.04-1.43.1-2.09.16-4.49.04-8.99.09-13.47.13-2.9.03-5.09.05-5.38.13l-5,.05c.19-.03.12-.06.63-.09Zm14.32-.25c.18,0,.47,0,.9-.02-.25,0-.49,0-.9.02Z"/><path d="m46.34,8.51c-1.27-.04-4.15,0-6.7.04-1.28.01-2.47.03-3.35.03-.88,0-1.43-.01-1.43-.05,0-.02.23-.04.59-.06.37-.02.86-.05,1.41-.08,1.09-.06,2.38-.13,3.15-.17,1.6-.11,8.49-.21,13.96-.27,2.47-.02,4.81-.03,7.26-.04,2.37-.02,5.28,0,7.01-.08,1.85-.08-4.69.02-3.48-.06-8.05-.03-18.07.24-26.41.22-2.63,0-2.05.09-4.16.13-2.04.07,7.14.01-.4.14-2.53.14-9.16.28-8.16.42,1.56,0,3.59-.02,4.6-.02,2.53.02,2.47.21,8.9-.04.06,0,2.32,0,3.76,0,4.19-.02,8.17-.08,11.7-.18-1.2-.13-5.87.07-8.24.05Z"/><path d="m23.89,8.29c-2.09.02-3.6.02-4.68,0-2.72-.07-7.86-.07-11.88.04-3.6.1-6.85.24-7.25.36-.74.23,3.77.24,13.85.08,2.46-.04,5.52-.02,8.31-.03,3.05-.12,1.88-.2-1.43-.22-3.34-.02-6.41.06-8.79.16-.87.04-4.9.13-4.55.04.3-.08-2.02-.11-.55-.2.9-.05,1.34-.11,4.07-.15,2.83-.04,4.07,0,4.39.04.34.05.76.09,3.91.04,1.53-.03,2.68-.05,3.45-.07.77-.03,1.15-.06,1.14-.09Z"/><path d="m118.83,1.29c-7.06-.03-13.65.13-21.05.16-3.67.02-8.8.05-13.04.08-3.48.01-5.94.03-7.53.11,5.95.13,14.85-.03,22.2-.07,10.97-.06,22.17-.21,32.85-.16l.88-.05c-1.59-.04-7.16-.07,1.34-.14,2.78-.02,4.35-.09-.43-.08-5.04.05-8.73.22-15.21.16Z"/><path d="m480.52,1.79c.12.1,2.35.1,7.47-.18,1.88-.12,3.45-.18,4.87-.37l.11-.03s.05-.02.02,0c-.01.03,0-.03-.05.1.02.14.02.09.04.13.04.03-.1-.02-.17-.03-.17-.03-.35-.05-.52-.06l-1.06-.08c-.71-.04-1.43-.09-2.19-.13-3.1-.17-8.38-.14-11.33-.29-7.33-.06-15.34-.13-23-.19-2.62-.01-4.1-.01-5.3.02,7.05.13,14.68.19,22.89.26,5.24.06,10.56.11,16.27.32,1.24.06,2.58.09,3.95.22.16.02.36.04.45.07,0,0,.02,0,0,0-.03-.02-.07-.05-.08-.08,0,0-.05-.07-.03-.17.01-.1.08-.15.07-.14.01-.02.04-.03.05-.04l-.07.02-.24.04c-.34.05-.7.08-1.05.11-.72.05-1.45.09-2.18.14-2.95.16-6,.27-8.9.37Z"/><path d="m148.22,6.87l3.69-.04,5.47.03c.78,0,1.55-.02,2.34-.02,2.53-.05,5.06-.11,7.59-.16-4.47-.12-13.38.04-19.78.11-12.71.17-25.55.34-38.34.51l-3.41.08c5.76.05,11.95,0,18.67-.19,5.44-.1,11.2-.23,14.3-.1.82-.01,1.64-.02,2.47-.03.59,0,1.17-.02,1.76-.03-.03-.03-.1-.04-.17-.05-.18,0-.36-.01-.54-.02h1.22s4.74-.08,4.74-.08Z"/><path d="m109.86,3.31c4.86.06,9.72.12,14.64.18,3.89.05,7.62.1,10.49.2,2.62.03,3.93.05,5.25.07,6.22.1,12.28.13,18.89.29,3.44.08,5.28.01,6.3-.04-18.75-.33-37.5-.6-56.25-.76l.69.07Z"/><path d="m23.22,1.83c4.38-.12,9.2-.14,12.33-.12,7.93.03,9.73-.08,11.43-.22-13.05.1-26.1.15-39.13.51-1.58.04-2.86.07-4.07.09-.6.01-1.19.03-1.79.06-.15,0-.3.02-.47.04-.04,0-.09,0-.17.03h-.03c-.06.02-.18.12-.2.26-.02.14.02.18.03.2.02.03.05.07.09.09.2.12.14.06.19.08.11.02.18.02.26.03.32.02.63.04.95.05,3.54.09,8.97.15,9.63.03l-7.23-.08c-.99-.02-1.98-.04-2.97-.08l-.38-.02-.2-.02h-.06s-.03-.02-.03-.02c-.03,0-.08-.03-.11-.06-.03-.05-.06-.03-.06-.16,0-.07.06-.14.1-.16.06-.03.04-.02.05-.02l.07-.02c.28-.04.51-.05.77-.07l1.49-.06,5.94-.14,13.57-.22Z"/><path d="m238.69,5.68c-.18.05.95.13-4.51,0-3.4-.09-6.31-.13-5.72-.04,13.98.36,27.96.73,42.48,1.02l-.08-.04-.49-.04c-.27,0-.55-.01-.85-.02-2.43-.04-4.84-.08-5.55-.17-.43,0-.88-.02-1.33-.03l-5.12-.15c-.78.04-2.51,0-5.25-.09-3.02-.08-6.16-.08-8.89-.2-.91-.04.46-.04,1.95-.02l.13-.02-1.65-.1c-3-.12-3.28-.05-5.12-.09Z"/><path d="m48.6,1.46c5.21.01,13.78-.03,5.65.22-1.47.04-1.43.1-2.09.16,2.49-.01,1.66.03,1.81.06l3.33-.04c-1.04-.06,3.27-.13,3.39-.2h-2.23c.17,0,.47-.01.49-.01.62,0,1.21,0,1.8.01,2.96.02,1.14.1,1.77.15,3.36.06,6.8.04,10.35-.08-5.91,0-7.58-.1-9.1-.2-2.68-.04-1.56-.1.96-.17,2.44-.06,5.1-.11,8.34-.09,3.82.02,7.45.02,8.2-.12-8.59.06-17.36.12-25.84.19-3.35,0-5.11.06-6.83.12Z"/><path d="m134.04,1.12c4.78,0,3.21.06.43.08-8.49.07-2.92.1-1.34.14,1.46-.07,4.11-.04,6.15-.06-.22-.04,1.33-.11,2.59-.1,6.2.05,10.6-.11,16-.12,2.89-.07,3.04-.02,3.27.02,2.92.04,3.65-.01,4.5-.06-.26,0-.7,0-.74,0-1.21-.1-5.27-.09-9.72-.06-6.11,0-10.38,0-16.72,0-.16,0-.8-.05-1.21-.08l-6.63-.03-3.52-.02-.41.1c7.52-.03,7.96.08,7.34.2Z"/><path d="m225.59.45c3.5-.02,4.1.05,6.36.07,1.44.01,2.88.03,2.01.07-.67.03-2.18.04-3.57.04-1.66.01-3.76.02-4.88.03-2.09.04-5.4.11-5.02.14.92.07,3.94-.01,6.04-.02,1.28,0,2.47.01,3.71.02,1.61.05,3.08,0,4.61-.02,2.56-.04,5.29-.09,4.53-.14-2.94-.21,5-.24,12.1-.29-.87-.04-4.57-.01-4.86-.07-5.83.01-11.36.03-17.25.04-4.22.02-3.31.07-3.79.11Z"/><path d="m157.88,1.07c-5.4.02-9.8.18-16,.12-1.25-.01-2.81.06-2.59.1,10.83-.06,21.61-.12,32.43-.18,5.43-.01,11.13-.03,16.51-.04,3.25-.02,5.89-.04,8.74-.06.95-.14-2.83-.15-7.77-.08-7.67.1-14.65.15-21.03.05-.85.02-1.69.03-2.53.05-.84.05-1.57.1-4.49.06l-3.27-.02Z"/><path d="m23.22,1.83l-13.57.22-.13.07c1.85-.04,3.48-.05,3.19,0-.28.05-2.16.08-3.85.11-.63.05-.67.08-.71.12,3.37-.09,6.39-.14,6.79-.05,4.33-.05,8.81-.11,13.37-.16.19-.03.12-.06.63-.09,2.22-.13,4.02-.26-4.87-.16-2.86.03-1.06-.03-.85-.07Z"/><path d="m409.06,3.71l6.88-.17v-.03s-.37,0-.37,0h.36c2.93-.01,4.49-.29,8.22-.16.59-.02,1.62-.05,1.68-.06-1.22-.1,5.11-.25,7.29-.38-.36-.03-1.9,0-3.26.03-1.79.09-4.66.12-7.21.17-1.88.01-3.04.17-4.05.1-1.07-.08-4.17.04-5.91.04-2.98.12-4.34.11-5.35.06-1.78.02-3.89-.01-4.99.1l-.76.07c2.09-.01,3.12.03,6.05-.03,2-.01,1.23.04,1.41.07,9.11-.1-1.21.14.02.18Z"/><path d="m265.99,6.12c2.88.12,6.23.26,8.97.37,5.62.27,16.16.49,20.66.48-4.19-.11-8.86-.23-5.91-.26-8.05-.24-16.08-.47-23.72-.59Z"/><path d="m409.04,3.53c9.11-.1-1.21.14.02.18-1.82.06-3.72.12-3.25.16-5.19.1-10.67.29-15.38.24-.23,0-.3,0-.22-.02,6.82-.22,7.37-.38,7-.53l4.37-.08c2.08-.01,3.12.03,6.05-.03-.19.04-.25.08,1.42.07Zm-5.44.21c1.1,0,2.14-.05,1.79-.06-.69-.03,2.79-.16-2.45-.07-2.61.06-2.39.08-.5.08.36.02.33.06,1.16.05Z"/><path d="m458,.29c1.59.01,2.91.09,4.72.05,4.02-.09,4.39.02,5.69.08,1.19.02,2.73.05,3.55.07,3.2,0,6.22.01,8.57.14,1.93.11-.78.09-2.74.11-3.46.03-6.12-.03-8.92-.12-1.75-.05-4.68-.09-6.11-.08-4.9.06-7.07-.05-9.98-.11,1.74-.05,3.48-.09,5.23-.14Zm19.03.32s-.6,0-.64,0c-.07,0,.02.02.05.03h1.33c-.24,0-.45-.01-.74-.03Z"/><path d="m205.76,5.12c-6.91-.13-14.16-.31-20.38-.31-1.57,0-3.77-.07-5.32-.12-2.81-.08-4.71-.1-6.25-.08,5.83.21,12.89.28,19.5.38,8.57.13,16.58.4,25.23.5,1.25.02,2.8.05,3.36.03-1.75-.1-4.72-.18-8.16-.21-4.14-.03-6.09-.11-7.99-.2Z"/><path d="m23.89,8.29s-.37.06-1.14.09c-.77.02-1.92.04-3.45.07-3.15.04-3.57,0-3.91-.04-.33-.05-1.56-.08-4.39-.04-2.73.04-3.17.1-4.07.15-1.47.09.85.12.55.2-.35.09,3.68,0,4.55-.04,2.38-.1,5.45-.18,8.79-.16,3.3.02,4.48.1,1.43.22,1.13.01,2.26,0,3.4-.04-1-.14,5.63-.28,8.16-.42-1.8-.01-3.44-.02-3.56-.08l-6.34.09Z"/><path d="m425.47.28c-4.49-.09-8.98-.14-13.47-.03-2.63.1-10.73.06-12.18.19l.6.11c2.95.04,5.64.03,8.07,0,.39-.02-.72-.05,1.07-.06l.54.06c.5,0,1.03,0,1.62,0,6.97,0,5.57-.2,11.97-.21,1.44-.01,1.81-.03,1.77-.06Z"/><path d="m47.64,3.25l-1.47-.07c-3.21-.05-7.65-.07-7.23-.19.03,0-.35-.03-1.01-.05-.66-.01-1.6-.03-2.68-.05-2.15-.03-4.83-.04-6.9.04-1.31.05-3.37.05-6.17.03.12,0,.18.02.22.03l-.13.1c8.36.09,16.63.2,25.37.16Z"/><path d="m127.82,4c.66-.08-3.03-.15-6.03-.2-6.48-.11-14.01-.25-19.69-.26-3.93-.03-6.58-.04-10.41-.07-2.32-.02-1.03.05-1.22.08,8.17.1,16.1.23,24.69.27,3.71.05,8.42.11,12.67.17Z"/><path d="m465.28,2.37c1.05-.03,2.11-.06,3.16-.08,1.69-.09,4.01-.19,3.62-.25-8.51.17-17.63.45-26.25.52-3.48.03-4.54.18-7.68.28.17.05,3.49.03,4.25,0,5.29-.2,9.62-.16,14.37-.28,3.07-.27,5.66-.09,8.53-.19Z"/><path d="m377.43.22c-.86,0-1.71,0-2.57,0-1.59.08-1.53.07,1.16.1,1.18.01,2.76.03,3.01.05.9.07-3.88.05-4.64.1l3.59.07,5.62.02,11.38-.12c-7.76-.11-7.59-.14,1.63-.26-3.95-.17-6.94-.07-10.03,0-3.03.01-4.51.2-9.16.03Z"/><path d="m251.48.37c-7.11.04-15.04.07-12.1.29.76.05-1.97.1-4.53.14.8.11,4.41,0,6.57.01,1.56-.11,2.57-.24,10.74-.18,1.35.01,3.53,0,4.09-.05.59-.05-1.1-.05-2.87-.05h-.77s.68,0,.68,0l-1.81-.16Z"/><path d="m390.43,4.12c-.23,0-.3,0-.22-.02-.75-.04-6.05.08-5.06-.02-1.38-.07-3.36-.02-5.39.08-1.78.09-3.31.18-6,.11-2.05.06-3.49-.01-5.39.07-2.41.11-.41.13,1.63.16,6.92-.1,14.26-.13,20.43-.38Z"/><path d="m287.76,5.69c-2.33-.05-8.11.03-9.76-.08-.78-.05-8.08.15-12.05.25-.66.02-1.08.04-1.61.06l-.04.1c6.13,0,11.83-.19,17.88-.23l4.47-.07c.58,0,.95-.02,1.1-.03Z"/><path d="m236.98,5.4c2.36.14,17.77.61,22.72.7,4.89.09,1.79-.06,2.76-.09-3.11-.06-6.24-.1-9.19-.23-.64-.02-2.81-.08-2.94-.09-3.97,0-8.98-.2-13.35-.28Z"/><path d="m46.34,8.51c2.37.02,7.04-.18,8.24-.05,2.43.03,4.85-.03,7.26-.09,4.03-.15,10.41-.17,15.14-.28-.95-.05-.84-.12-5.9,0-3.07.04-7.5.11-11.31.17l-2.11.07h-.67s2.66-.07,2.66-.07c-3.16.01,6.55-.32-5-.08-.4.06,1.11.12-3.45.18-.92.06-5.08.08-4.85.15Z"/><path d="m131.26,3.96c-.1.01.5.04-.97.03,10.35.15,21.25.42,30.21.36l-.24-.05-6.77-.1c-7.4-.08-14.79-.16-22.24-.24Z"/><path d="m76.98,8.09c-4.73.11-11.11.13-15.14.28.55.11,4.3-.03,6.23-.04,7.39-.05,15.02-.17,22.48-.29-1.52-.18-8.85.02-13.58.05Z"/><path d="m199.43,6.68c-5.33.05-11.33.17-14.91.07-1.36-.04-3.33.02-3.65.07-.23.04.19.08-2.06.13-.72.12,3.75.03,6.12.01,5.33-.06,10.74-.12,16.12-.18-.44-.04.92-.11-1.62-.11Z"/><path d="m226.68,5.98c3.72-.01,7.58-.02,10.24-.15,1.73-.08,2.74-.06,4.29-.05,5.18.03,10.3-.03,15.14-.19-4.82-.04-10.84.05-16.71.13-4.32.06-8.61.12-12.92.19l-.05.08Z"/><path d="m307.74.69c1.2-.07,4.87-.18-3.68-.11-4.44.04-6.5-.02-8.78-.08-1.14-.03-.4-.11-3.94-.07-2.86.03-2.2.09-1.66.14.51.05.79.1,1.17.14l16.89-.03Z"/><path d="m344.3,4.88c.56-.11.64-.2-6.71-.02l-5.14.15-3.25.06c-1.38.06-3.31.08-5.17.11l-1.94.11c-.16.07,2.12.02,3.92-.02,6.11-.13,12.19-.26,18.29-.38Z"/><path d="m377.98.54l-3.59-.07c-4.83.01-9.93.09-14.03-.03-1.05-.03-4.13.02-3.94.03.84.05-5.82.07-1.13.12,7.52-.03,15.73.09,22.69-.05Z"/><path d="m342.63,4.57c1.86-.06,4.64-.17,5.43-.17,3.16-.02.17.07-.91.12-.73.04.23.04,1.51.02.73-.02,1.5-.03,2.08-.04.58-.02.98-.03,1-.05.05-.05-.41-.09-.66-.14-6.17,0-13.18.14-20.14.27l-.22.09c.08,0,.1.02.06.03l1.86-.03c4.47-.11,8.74-.21,9.99-.09Z"/><path d="m423.7.35c-6.41.02-5,.21-11.97.21,3.56.09,7.2.17,11.89.05.53-.02.87-.06,1.61-.06,11.28-.01,2.98-.1.33-.16-.27.02.03.06-1.99.05l.4-.06c-.1-.01-.19-.02-.27-.03Z"/><path d="m270.43.26c1.48.06,4.38.13,7.35.06,5.69-.14,15.97.02,19.76-.18-9.21,0-18.25.05-27.11.13Z"/><path d="m130.63.85l6.63.03h3.47s.7-.06,1.77-.07c1.07,0,2.48-.02,3.88-.02,6.54.05,12.68,0,18.47-.13-.55-.03-2.34-.06-3.54-.04-9.91.14-21.05.06-30.67.24Z"/><path d="m76.84,7.61c.33.11,1.48.18,8.01,0,4.86-.13,11-.05,15.69-.22-7.07-.07-15.64.12-23.7.21Z"/><path d="m88.86,3.07c2.27.13,6.76.25,11.69.37-.97-.12,1.58-.19,4.96-.24-3.45-.09-6.54-.08-9.73-.09-1.72.07-4.5-.02-6.92-.05Z"/><path d="m150.3,7.33c-5.94-.07-18.33.09-25.75.33,7.34-.02,14.71-.17,22.07-.26.18-.07,1.99-.07,3.68-.07Z"/><path d="m491.96,1.01c.25.02.49.04.72.06.12.01.23.03.34.05l.1.03s.06.02.09.06c.02.02.03.02.04.06.02.05,0,.14-.03.16-.13.1-.15.07-.22.1-.42.09-.77.11-1.07.14-.58.06-.91.09-.89.11l1.09-.07.55-.05.29-.04c.05-.01.1-.02.17-.05.01,0,.03,0,.07-.04.04-.05.05.02.12-.18,0-.21-.05-.16-.09-.22-.05-.04-.1-.06-.1-.06-.22-.08-.36-.1-.53-.14.14.02.27.03.43.07.06.02.07.01.18.07.04.02.07.06.1.09.01-.01.09.17,0,.3-.08.11-.13.11-.16.14-.11.04-.18.05-.25.06-.29.05-.55.07-.83.09l-1.34.06c-2.04.12-3.01.17-3.17.22,1.56-.07,3.06-.12,4.56-.24l.57-.06.3-.05c.05-.01.11-.02.19-.06.02,0,.08-.04.12-.07l.03-.03s.05-.08.07-.13c.04-.11-.02-.25-.03-.25-.04-.06-.09-.11-.15-.14-.04-.02-.04-.02-.07-.03-.48-.12-.8-.12-1.19-.16-.75-.06-1.49-.1-2.24-.13-2.99-.14-6.07-.21-9.52-.23.6.14,6.4.23,10.24.45.5.03,1,.06,1.5.09Z"/><path d="m188.26.62c7.82-.03,15.58-.06,22.22-.19-2.63-.05-5.09-.06-9,.01-4.96.1-11.13.05-16.61.11l.31.07c1.01,0,2.04,0,3.08,0Z"/><path d="m218.26,6.25c-6.98.1-10.75.28-8.48.42l6.83-.08c-1.05-.07,4-.16,3.01-.23-1.99-.01-1.15-.07-1.36-.11Z"/><path d="m394.98.44l-11.38.12c5.74.06,11.44.1,16.82,0l-.6-.11h-4.84Z"/><path d="m397.21,3.57l4.37-.08.76-.07c-6.37.09-12.85.14-18.76.35,1.9.03,5.81-.01,6.53.05,1.22-.03,2.26-.06,3.3-.09.27-.05.43-.1,3.8-.16Z"/><path d="m226.68,5.98l.05-.08-8.47.1c-1.74.1-1.61.18,0,.25,4.13-.04,3.16.03,3.25.09.66.02,1.59.03,3.19,0,1.87-.04.76-.06.42-.08-1.29-.08-3.75-.14,1.57-.28Z"/><path d="m468.83,2.59l-.1.07c5.79-.14,12.15-.2,17.06-.54-.86-.04.41-.2-6.01.14-2.79.14-7.64.18-10.94.32Z"/><path d="m126.7.93l.41-.1c-6.59-.03-12.55.07-18.65.15l3.18.05c3.38,0,3.44.07,3.92.13.46,0,.92,0,1.39,0,0-.06.26-.13,1.61-.17s3.78-.07,8.13-.06Z"/><path d="m52.16,1.84c-4.49.04-8.99.09-13.47.13-2.9.03-5.09.05-5.38.13,5.99.02,12.66-.13,18.9-.16.01-.03.02-.07-.04-.1Z"/><path d="m111.65,1.03l-3.18-.05c-4.86-.01-9.9-.06-13.86.12,4.37,0,8.94,0,13.82,0,2.31,0,3.11-.02,3.23-.06Z"/><path d="m361.37,4.61c-.19,0-.24-.02-.58-.02-2.43-.02,6.9-.26-.16-.16-5.09.07-8.36.23-7.91.34,2.98-.03,6.16-.03,8.65-.16Z"/><path d="m205.76,5.12c1.9.09,3.86.17,7.99.2,3.43.03,6.41.11,8.16.21,1.2.02,2.74.05,3.19.03-.99-.05-1.97-.11-2.96-.16-5.31-.1-10.56-.21-15.84-.31l-.53.03Z"/><path d="m289.71,6.71c-2.95.03,1.71.14,5.91.26,3.09.1,5.04.13,6.35.12l-.08-.07c-3.99-.1-7.97-.2-12.18-.31Z"/><path d="m68.22,3.32c-6.16-.02-13.13-.12-18.6-.06,6.18.12,12.38.07,18.57.12l.03-.07Z"/><path d="m333.58.64c-.9-.25-8.12-.04-12.29-.05.27.05-.94.12,4.14.08,2.54-.01,5.42-.02,8.15-.03Z"/><path d="m354.5,4.24c.6.04-.03.13,3.81.07,5.18-.09,2.08-.16,5.07-.25-4.14-.03-5.93.12-8.88.18Z"/><path d="m167.31,6.67c-2.53.05-5.05.11-7.59.16,4.78-.04,5.08.03,5.76.1.4.04,1.52.06,3.81.03.85-.01,2.18-.04,2.45-.06.75-.05-1.1-.04-2.56-.04-5.27,0,4.23-.19-.35-.2-.48,0-.98,0-1.51.01Z"/><path d="m298.87,7.3c-3.37-.06-7.95-.37-10.58-.27q1.44.14,10.58.27Z"/><path d="m306.83,5.13c-4.48.03-4.19-.06-5.2-.12-3.5.04-7.36.03-10.2.15l.11.04c2.52-.01,6.93-.1,7.34-.03.91.14,4.49.03,7.95-.04Z"/><path d="m317.24,4.79c-2.17.15,3,.09,5.45.1.89-.04,1.77-.07,2.66-.11l2.09-.18c-3.5.04-6.58.17-10.2.18Z"/><path d="m270.49.67v.1c3.18.02,6.36.04,9.88,0-.02-.03.28-.06-.02-.08-.29-.02-1.18-.04-3.55-.02-3.59.02-5.22-.01-5.09-.08-1.57.03-1.08.06-1.22.09Z"/><path d="m105.52,3.21c-3.38.05-5.93.11-4.96.24,3.48-.04,8.57-.03,9.3-.14l-.69-.07-3.66-.03Z"/><path d="m199.43,6.68c2.53,0,1.18.07,1.62.11l5.09-.05c.8-.13.91-.24-6.79-.17l.08.11Z"/><path d="m185.19.63l-.31-.07c-3.3.01-6.13.05-8.54.1,2.11.22,5.52.08,8.85-.03Z"/><path d="m195.96,4.54s-.35.04-.02.06c.94.07-3.95.08,1.32.18,4.67.09.64-.08,1.32-.11.2,0,1.75.01,2.67.02-1.14-.06-2.16-.12-5.3-.15Z"/><path d="m88.86,3.07c2.42.03,5.2.12,6.92.05l-3.73-.05c-1.41-.01-2.61-.03-3.26-.06l-6.91-.03,1.44.05,5.54.05Z"/><path d="m405.57,10.79s.13,0,.01-.02c-.59-.06,1.95-.01-2.21-.18-1.42-.06-4.08-.09-1.38.06l3.57.14Z"/><path d="m60.7,1.66c-.11.06-4.42.13-3.39.2l5.21-.05c-.62-.05,1.19-.13-1.82-.15Z"/><path d="m30.24,8.2c.12.05,1.76.07,3.56.08,7.53-.12-1.65-.07.39-.14-.33,0-.76,0-1.31,0l-2.26.03c-.47,0-.6.02-.38.02Z"/><path d="m290.17,5.63l-3.39.08c1.5.06,5.64-.01,8.2,0l.19-.07-.14-.07c-.92,0-1.62.02-2.31.02-.26.04-1.41.05-2.54.05Z"/><path d="m246.63.29c.29.06,3.99.03,5.08.07l2.7-.04-2.18-.04c-1.8-.01-3.66-.01-5.61,0Z"/><path d="m407.34,3.32c1.01.04,2.37.06,5.35-.06-1.43,0-2.01-.09-5.35.06Z"/><path d="m20.42,2.98h-5.37c-.25.09,2.72.09,5.35.09v-.09Z"/><path d="m422.65,3.12c2.54-.05,5.41-.09,7.21-.17-3.66,0-5.62.08-7.21.17Z"/><path d="m423.56,11.52c-1.67-.09-3.62-.17-5.81-.23,1.87.08,2.97.2,5.81.23Z"/><path d="m83.32,3.02l-1.44-.05-3.4-.03.14.04c1.54.05,3.1.07,4.7.04Z"/><path d="m267.86,5.47s-.04.01-.23.02c.24,0,.5-.01.79-.02.15-.03.32-.05.48-.08l-1.04.08Z"/><path d="m88.79,3c.65.03,1.86.05,3.26.06.04-.06-1.08-.08-3.26-.06Z"/><path d="m211.6,6.07c.19.02-.12.07,1.77.04,1.38-.02,1.12-.04.1-.05h-1.87Z"/><path d="m295.17,5.62l-.19.07c1.75-.03,2.96-.07,3.52-.11l-3.34.04Z"/><path d="m286.66,5.72l-4.47.07c1.88.02,3.38,0,4.47-.07Z"/><path d="m52.25,1.84l-.04.1c1.13,0,1.71-.02,1.77-.04-.16-.03.67-.07-1.73-.06Z"/><path d="m410.11.55l-.54-.06c-1.79,0-.69.04-1.07.06.54,0,1.08,0,1.62,0Z"/><path d="m150.29,7.33c-1.69,0-3.49,0-3.67.07,1.54,0,3.08-.02,3.67-.07Z"/><path d="m206.29,5.09c5.28.1,10.53.21,15.84.31,1.84.04,2.65.03,2.8,0l.23-.09c-2.92-.07-3.89-.11-2.84-.14.49-.01,1.17-.03-.76-.07-1.13-.01-3.52-.05-3.57-.05.35.14-7.4-.02-10.41,0-.61.01-.87.02-1.3.03Z"/><path d="m316.81,7.75c3.6.13,7.2.27,10.7.31-6.04-.19-1.1-.14-5.35-.29l-6.8-.25c.87.09,4.48.25,1.45.23Z"/><path d="m134.99,3.68c-2.87-.1-6.6-.15-10.49-.2.12.04-.43.08.52.12,1.26.05-3.84.04.79.11,3.21.04,2.58-.02,2.23-.07-.16-.02-.18-.09,1.91,0,3.82.17,3.03,0,5.03.04Z"/><path d="m257.53,6.2l5.12.15c.66-.02,5.05.06,1.18-.07-4.09-.14-5.47-.12-6.31-.08Z"/><path d="m245.33,5.88c-1.49-.02-2.86-.02-1.95.02,2.74.12,5.87.12,8.89.2-.26-.09-4.21-.15-6.94-.22Z"/><path d="m153.5,4.2l6.77.1c-.37-.06-2.5-.12-5.21-.16-2.09-.03-1.4.03-1.56.06Z"/><path d="m78.44,3.07c-.47,0-.96,0-1.46,0l-.2.06c2.06.01,4.59.05,5.51,0l-3.85-.05Z"/><path d="m263.98,6.38c.71.08,3.12.12,5.55.17l-.17-.06c-1.81-.03-3.6-.07-5.38-.1Z"/><path d="m231.22,5.33c-.37-.01-.72-.03-1.06-.04h-.97c.44.02.96.03,1.3.04.33,0,.49,0,.74,0Z"/><path d="m140.23,3.75l-3.95-.05c.5.02.86.06,1.53.07,1.91.03,1.89,0,2.42-.02Z"/><path d="m243.81,5.76l1.65.1c2.57.01.56-.04-1.65-.1Z"/><path d="m269.35,6.48c.46.01,1.03.02,1.48.03.22,0,.42,0,.56,0,.14,0,.22,0,.22,0,0,0-.66-.03-1-.04-1.56-.04-1.12,0-1.25,0Z"/><path d="m225.17,5.33l-.23.09c2.2.02,2.38,0,.23-.09Z"/><path d="m178.72,4.38s.3.02.54.02c-.03-.01-.3-.02-.54-.02Z"/><path d="m73.31,3.1l-.08.03h3.51c-1.12-.01-2.28-.02-3.44-.03Z"/><path d="m238.65,5.68l-.38-.02c.14,0,.29.02.38.02Z"/><path d="m270.37,6.56l.49.04c1.48.02,1.18,0-.49-.04Z"/><path d="m196.2,6.57c2.07-.08,5.3-.17,2.93-.22-1.01-.02-2.23-.04-4.36-.02-3.16.03-3.51.08-3.94.14,1.64.04,2.45.08,1.05.16-.64.04-.48.06,1.37.05,2.24-.02,2.59-.06,2.93-.1Z"/><path d="m51.2,8.36c4.57-.07,3.05-.12,3.45-.18-1.69.01-4.07.07-4.31,0-.12-.03-1.77-.06-3.27-.03-1.54.03-2.96.09-3.5.13-.9.07,2.06,0,2.99.01,1.82.02,3.12.04,4.64.06Z"/><path d="m138.75,7.08c-3.1-.13-8.86,0-14.3.1,3.98.04,8.49.04,14.3-.1Z"/><path d="m142.97,7.02c-.58,0-1.17.02-1.76.03-.3.01-.48.02-.9.04-3.27.08-5.45.16-2.08.19.88,0,3.31,0,2.89-.03-.98-.07,9.79-.23,1.84-.23Z"/><path d="m180.64,6.51l-4.92.04c-.05.05-4.16.16.21.14,3.23-.02,5.48-.11,4.72-.18Z"/><path d="m157.39,6.85l-5.47-.03c.13.04-2.82.12-.31.12,1.99,0,4.15-.04,5.78-.09Z"/><path d="m61.68,8.05c1,0,1.59,0,2.18,0,.63-.02,1.24-.03,1.86-.05-.53,0-1.01,0-1.59-.01-.6.01-1.31.03-2.45.05Z"/><path d="m148.22,6.87l-4.74.08c-.22,0-.45.01-.68.02l.22.03c1.06-.02,2.37-.04,3.41-.05,1.04-.02,1.81-.04,1.79-.08Z"/><path d="m184.99,6.46c-1.4-.01-2.8-.03-4.23.05l4.23-.05Z"/><path d="m71.98,7.75c.49,0,.73,0,.97-.01-.18,0-.35,0-.97.01Z"/><path d="m335.17.16c-1.9,0-4.09,0-5.22.05-.85.11-6.59.04-8.88.11-.86.03-3.78-.07-5.05,0-.79.05,2.06.08,3.82.12,1.79.03,3.2.04,5.68,0,3.12-.05,6.75-.09,9.54.01,1.68.06,4.7.01,6.47-.02,3.1-.05.59-.07-1.22-.1-2.86-.04-5.68-.09-5.14-.17Z"/><path d="m270.49.67c.14-.03-.35-.07,1.22-.09.39-.04,4.58-.06,2.51-.11-.73-.02-2.38-.04-3.48-.03-3.66.02-1.23.07-2.03.11-.45.02-.79.03-1.45.06-1.31.04-5.15.07-3.71.1,1.66.04,4.42-.04,6.93-.04Z"/><path d="m282.91.51c.37,0,.71,0,1.05.01l.99-.03c-.44,0-.94,0-1.3,0-.32.01-.49.02-.74.02Z"/><path d="m367.55.16h1.7c-.55,0-1.14,0-1.7,0Z"/><path d="m380.14,9.58c.34.03.45.06,2.74.13-.31-.03-1.4-.08-2.74-.13Z"/><path d="m442.65.28l-3.49-.02s.76.11-.31.12c-1.89.02-3.58.04-2.95.09.31.03,1.35.02,1.76,0,1.51-.04,6.55,0,5.21-.1-.44-.03-.16-.07-.22-.1Z"/><path d="m452.77.43c-1.07-.04-1.14-.09-3.59-.1-.34,0-1.2.02-1.1.03.48.06,2.84.06,4.69.07Z"/><path d="m491.96,1.01c-.5-.03-1-.06-1.5-.09,0,.01-.08.02.09.04.17.01.58.04,1.56.11l-.15-.07Z"/><path d="m423.96.38l-.4.06c2.02,0,1.72-.03,1.99-.05h-1.59Z"/><path d="m432.3.3l.6.05c1.65-.02-.04-.03-.6-.05Z"/><path d="m322.16,7.77c4.25.15-.69.11,5.35.29,2.2.07,3.75.1,4.9.11,2.43.02,5.42.07.89-.13-7.13-.31-7.45-.18-11.15-.27Z"/><path d="m350.81,8.58c-2.46-.07-6.38-.25-6.17-.16.03.01.3.04.9.07s1.55.07,2.94.11c2.7.07,6.65.17,6.8.14.3-.05-3.21-.1-4.47-.16Z"/><path d="m348.12,8.69c1.92.09,3.11.14,4.51.21,1.76.06,4.91.16,5.03.12.07-.02-1.08-.08-2.95-.14-2.02-.06-3.98-.11-6.58-.18Z"/><path d="m371.57,9.28c.23.02.24.05,2.02.1.55,0,.86,0,1.28.01l-3.31-.12Z"/><path d="m341.36,8.37c.55,0,.21,0-.13-.01h.13Z"/><path d="m368.32,9.14l.78.03.78.03c-.52-.03-1.03-.05-1.55-.05Z"/><path d="m260.86,5.64c.36.05,2.13.05,4.61,0,3.15-.06,1.91-.1,2.21-.15-3.07.03-3.19.14-6.82.15Z"/><path d="m221.5,6.33c-.09-.05.88-.13-3.3-.09.26.04-.58.1,1.41.11.63,0,1.26-.02,1.89-.02Z"/><path d="m260.83,5.64h-.38c.14,0,.27,0,.38,0Z"/><path d="m188.26.62h-3.1c.54.02-1.04.08,1.45.07,1.42,0,1.76-.04,1.66-.07Z"/><path d="m146.38.78c-1.4,0-2.82.02-3.88.02-1.07.01-1.78.04-1.77.08,2.08-.03,4.41-.05,5.65-.1Z"/><path d="m306.83,5.13c-3.46.07-7.04.18-7.95.04-.41-.06-4.82.02-7.34.03,1.38.06,2.49.11,4.2.19,3.69.12,10.45.06,15.97-.15.69-.03,1.04-.05,1.88-.08,3.14-.08,3.36-.21.22-.2q-1.31,0-2.05.09c-.35.04-.25.09-2.63.12-.73,0-1.54-.02-2.31-.04Z"/><path d="m332.64,4.66l-1.86.03c-3.27.18,1.82.2,1.66.32l5.14-.15c.49-.12-6.32-.06-4.95-.2Z"/><path d="m324.03,5.18c1.86-.03,3.79-.05,5.17-.11-.05,0-.01-.01-.17-.01-2.3,0-1.88-.12-4.69-.06-4.15.1.49.11-.3.18Z"/><path d="m314.92,5.22c-.49.02-1.07.04-1.02.04.15.02.52.03.81.04.11,0,.27-.01.4-.02s.23-.01.24-.02c.01-.02-.24-.03-.42-.04Z"/><path d="m290.17,5.63c1.13,0,2.29,0,2.54-.05-1.08,0-2.58,0-2.54.05Z"/><path d="m295.03,5.55l.71-.03c-.31,0-.61.02-.71.03Z"/><path d="m394.98.44h4.84c1.44-.13,9.54-.09,12.17-.19-.26-.05.42-.1-3.47-.1,1.65.07-1.18.09-2.96.11-2.18.02-3.22-.03-4.04-.06h-4.91c-9.22.11-9.39.14-1.63.25Z"/><path d="m401.53.2c.82.04,1.86.09,4.04.06,1.79-.02,4.61-.04,2.96-.11-2.65,0-5.94-.03-7.01.05Z"/><path d="m377.43.22c4.65.16,6.13-.02,9.16-.03-3.72-.06-6.48-.02-9.16.03Z"/><path d="m367.51.16h1.76c-.59-.03-1.17-.03-1.76,0Z"/><path d="m397.21,3.57c-3.36.06-3.53.11-3.79.16.51.06-1.25.07-3.12.09-1.05.09-.31.16-5.14.26-.99.1,4.31-.02,5.06.02,6.82-.22,7.37-.38,6.99-.53Z"/><path d="m342.68,4.57l-2.15.05c1.21.01,1.52-.03,2.15-.05Z"/><path d="m8.27,2.24c.82-.05,1.04-.08,1.26-.12-1.72.04-3.44.08-5.16.13-.86.03-1.71.05-2.57.12-.11,0-.21.02-.33.04h-.05s-.01,0-.07.06c-.04.07-.02.12,0,.12.09.09.12.06.15.07.06.01.11.01.17.02l.65.04,1.29.04c3.09.06,3.16,0,3.29-.04-1.84-.03-4.1-.04-5.18-.16-.07,0-.15-.01-.22-.03-.03-.03-.05.03,0,0,.03,0,.07-.01.11-.02l.44-.04.89-.05,1.78-.07,3.57-.11Z"/><path d="m3.59,2.76l-1.29-.04-.65-.04c-.06,0-.11,0-.17-.02-.03-.01-.05.02-.15-.07-.01,0-.03-.05,0-.12.06-.06.07-.04.07-.05h.05c.12-.03.22-.04.33-.05.86-.06,1.72-.09,2.57-.12l5.14-.13.13-.07-5.94.14-1.49.06c-.25.02-.49.02-.77.07l-.07.02s0,0-.05.02c-.04.02-.1.1-.1.16,0,.13.03.11.06.16.03.03.09.06.11.06h.03s.06.02.06.02l.2.02.38.02c1,.05,1.98.06,2.97.08l-1.46-.13Z"/><path d="m8.27,2.24l-3.57.11-1.78.07-.89.05-.44.04s-.07,0-.11.02c-.05.02-.03-.03,0,0,.07.01.14.02.22.03l.02-.08c-.07,0-.15-.01-.21-.02-.02,0-.04-.02,0,.02,0,.02.03.01.01.1-.06.07-.04.03-.03.04.02,0,.06-.01.09-.02.14-.02.28-.03.43-.04l.87-.05,1.75-.06,3.51-.09.13-.11Z"/><path d="m42.7,2.83c-.07-.03-.24-.07-2.14-.09-.86,0-1.98.02-2.99.03,1.22.05,3.23.05,5.12.06Z"/><path d="m1.7,2.55c1.09.12,3.34.13,5.18.16-1.05-.07-3.16-.06-5.18-.16Z"/><path d="m22.17,2.95s1.62-.03.09-.06c-.16,0-.64,0-.79,0-.99.02-.41.04.69.06Z"/><path d="m465.28,2.37c-2.87.09-5.46-.08-8.53.19-.48.16,5.75-.06,8.62-.09-.04-.03-.07-.06-.09-.1Z"/><path d="m429.55,3.2l.7-.02c-.22,0-.44.01-.7.02Z"/><path d="m465.37,2.47h.37c-.13,0-.26,0-.37,0Z"/><path d="m73.31,3.1l3.47.03.2-.06c-2.43-.03-3.61-.02-3.67.03Z"/><path d="m126.7.93c-4.36,0-6.79.02-8.13.06s-1.6.1-1.61.17l1.87.13c6.48.06,10.17-.11,15.21-.16.62-.12.18-.22-7.34-.2Z"/><path d="m44.15,1.79h-.74s.31.02.74,0Z"/><path d="m143.49,6.95h-1.22c.18,0,.36.02.54.02.23,0,.46-.01.68-.02Z"/><path d="m60.75,1.66c-.59,0-1.19,0-1.8-.01-.01,0-.32.01-.49.02.74,0,1.49,0,2.29,0Z"/><path d="m157.88,1.07l3.27.02c-.23-.04-.38-.09-3.27-.02Z"/><path d="m9.53,2.12c-.22.04-.44.07-.67.11,1.68-.04,3.56-.07,3.84-.11.29-.05-1.34-.03-3.17,0Z"/><path d="m407.63,3.46c-.19.04-.25.08,1.42.07-.18-.03.58-.08-1.42-.07Z"/><path d="m415.93,3.51h-.36c.12,0,.25,0,.36,0Z"/><path d="m402.44,3.69c.36.02.33.06,1.16.05,1.1,0,2.14-.05,1.79-.06-.69-.03,2.79-.16-2.46-.07-.17.03-.33.05-.5.08Z"/><path d="m402.44,3.69c.16-.03.33-.05.5-.08-2.6.06-2.39.08-.5.08Z"/><path d="m477.78.64c-.24-.01-.45-.02-.74-.03-.03,0-.6,0-.64,0-.07,0,.02.02.05.03h1.33Z"/><path d="m253.29.53h-.68c.26,0,.51,0,.68,0Z"/><path d="m59.65,8.26l-2.66.06h.67c.7-.01,1.4-.04,1.99-.06Z"/><path d="m492.09,1.77c.27-.02.54-.05.83-.09.08-.02.14-.02.25-.06.03-.02.09-.02.16-.14.08-.13,0-.31,0-.3-.03-.04-.06-.07-.1-.09-.1-.06-.12-.05-.18-.07-.16-.04-.29-.05-.43-.07.17.03.31.05.53.14,0,0,.05.02.1.06.03.05.1.03.08.26-.04.1-.07.1-.07.12l-.05.04s-.05.02-.07.03c-.08.03-.12.04-.17.05l-.3.05-.57.07Z"/><path d="m493.15,1.08s.05.02.1.06c.04.06.08.01.09.22-.07.21-.09.13-.12.18-.04.03-.06.03-.07.04-.07.03-.12.03-.17.05l-.29.04-.55.05-1.09.07c.16,0,.6,0,1.05-.03l.57-.07.3-.05c.06-.01.1-.02.17-.05.02,0,.02,0,.07-.03l.05-.04s.03-.01.07-.12c.03-.23-.05-.21-.08-.26-.05-.04-.1-.06-.1-.06Z"/><path d="m390.3,3.81c1.87-.01,3.63-.03,3.12-.09-1.04.03-2.08.06-3.12.09Z"/>
                  </g>
                </mask>
              </defs>
              <path class="mask" d="m0,8.81c76.1-.56,182.74-1.59,310.51-3.66,107.59-1.74,183.01-2.96,182.6-3.83C492.07-.89.93,1.26,1.43,2.53c.28.7,152.04-.64,372.78,6.9,37.05,1.27,68.88,2.54,93.61,3.59"
                    mask="url(#path-mask)" stroke="black" stroke-width="2" fill="none"
                    stroke-dasharray="1451.4876708984375" stroke-dashoffset="1451.4876708984375">
              </path>
            </svg>
        