
            <svg xmlns="http://www.w3.org/2000/svg">
              <defs>
                <mask id="path-mask">
                  <g fill="white">
                    <path d="m109.76,8.33c2.07.02.76-.09,1.17-.13l1.49.07c1.22.08,2.63.18,3.8.26,2.38.2,6.85.29,8.76.22,1.31.06,2.14.07,2.69.05,1.74.1,4.33.12,5.67.27.37.08,1.89.19.61.21-.93,0-1.93,0-3.42-.1-1.23-.08-2.34-.12-3.04-.08l-1.15-.04c-1.43-.02-3.37-.27-4.48-.14-.45-.02-1.27-.05-1.29-.05-1.13.11-3.77-.04-6.06-.12l-.03-.04c.63,0,.5-.01-.21-.04-.11,0-.23,0-.36,0l-.07-.06c.39,0,.96.03.96,0,0,0-.28-.02-.42-.03-.66-.02-.47,0-.54.02l-2.27-.04c-.18,0-.37,0-.56-.01.28-.03,2.14,0,.5-.08-1.73-.09-2.32-.05-2.67,0-.33.05-1.07.04-2.23-.03-.11-.09-1.78-.1-2.94-.14l.06-.02c1.09-.02.24-.05-.7-.07-1.27-.09-1.39,0-2.19-.02l-.16-.02.18.02c-.08.05.4.12-1.91.05-1.44-.04-2.67-.05-2.43.03l-1.43-.02-1.25-.12c.78.01,1.12,0,1.19-.03.93-.01,1.01-.04.1-.09-1.24-.03-1.65-.07-1.2-.11.21-.02.5-.04-.32-.06-.24,0-.62,0-.94,0-.32,0-.57,0-.57,0,.15.13-3.14.07-4.42.13-.26.01-.37.03-.55.05l-.23.03c-2.93-.04-6-.13-8.64-.06-.67.02-1.6-.03-2.26-.05-1.19-.05-2-.04-2.65,0l-5.64-.11-.1-.04c-.16-.06-1.06-.09-2.21-.09-.89,0-.59.05-.66.08-3.14,0-6.27.02-9.56.02h.13s.21.05-.41.05c-.18.02-.24.05-1.05.05.28-.09-1.29-.11-2.56-.13-2.75-.03-5.94-.08-8.35-.01-1.67.04-2.79.06-4.41.06-.98,0-.44.06-.52.1l-9.44.1v-.07c.64-.05.48-.08.18-.12-.53-.07.27-.11,1.96-.13l1.49-.05c.89-.01,1.96,0,2.35-.07h-1.63c-.21-.04-1.17-.06.08-.1.65.03,1.31.03,1.99-.02l2.35-.02c.97.11,2.87.17,4.96.23,1.48-.08,3.63-.14,3.94-.25,2.06,0,4.12.03,6.21,0,.05.04-.18.08.22.11.54.04-1.63.09.34.1,1.36,0,1.09-.05.95-.1-.07-.02-.08-.09.81-.02,1.62.12,1.28-.04,2.68-.02.21.02.37.05.65.05.81,0,.8-.03,1.03-.05,2.64.02,5.21-.03,8.01.05,1.46.04,2.24-.05,2.67-.11l12.95.16s-.15.04,0,.06c.4.06-1.68.12.56.16,1.98.03.27-.08.56-.13.08-.01.74,0,1.13-.01,3.65-.01,7.59.08,11.37.16,1.1.03,2.9-.01,3.77.1,1,.11,7.53.39,9.63.42Zm-12.53-.44l-.41.02c.19,0,.41.02.55.02.14,0,.21,0,.31-.01-.16,0-.3-.02-.45-.03Zm-21.51-.26c-.08,0-.19,0-.3,0,.01.01.13.02.3,0Z"/><path d="m52.75,11.89c-4.83.31-9.59.5-14.39.75-.65-.16-3.75.11-5.75.19-.41-.04-.36-.11-2.5.06-1.29.1-3.17.19-4.84.28-1.34.04,2.76-.38-2.12-.03-.72.03-1.72.11-1.83.04-.05-.03-.75-.04-1.39,0-.65.05-1.25.12-1.48.16-.38.08.87-.01,1.27-.02.77,0,1.33.01,1.97.02-.39.07-2.15.13-2.05.2-1.08-.05-4.87.28-4.87.13,0-.07,1.52-.23,2.17-.36.67-.12,3.59-.29,5.91-.39,1.04-.04,2.04-.07,3.08-.11,1-.05,2.24-.05,2.97-.15.78-.1-1.99.07-1.48-.03,1.59-.14,3.26-.24,5.11-.29.15.11.64.17,3.4-.08,2.06-.18,4.66-.16,6.64-.38l.76-.04,1.45-.04c2.44,0,5.07-.13,7.9-.39,1.69,0,3.6-.06,6.06-.26l1.04-.06c-.12.02-.2.03-.38.05-1.38.12-2.3.22-.87.22.37,0,1.4-.04,1.23-.06-.42-.06,4.14-.35.79-.27.9-.06,2.22-.12,2.2-.2l1.56-.09c.06.04-1.19.15-.12.13.85-.02,1.76-.09,2.45-.17l.99-.05c2.03-.1,2.16-.03,2.45.02.17.03.65.04,1.61-.02.36-.02.92-.07,1.03-.09.32-.06-.47-.03-1.09,0-2.23.07,1.78-.24-.16-.19.48-.1,1.73-.17,2.9-.23l.02.05s-1.75.22.1.13c1.37-.06,2.32-.18,2.04-.24l1.79-.1,2.48-.08c.7.01,1.04.05.46.15-.27.05-.2.07.59.03.95-.05,1.09-.1,1.24-.14l1.33-.04.04.11c-2.25.13-4.79.32-6.31.27-.58-.02-1.41.06-1.54.12-.1.05.09.08-.87.16-3.9.32-7.93.57-12.07.73-2.52,0-7.76.31-10.9.63Zm-25.71,1.04c.26-.02.52-.04.79-.06-.22,0-.43,0-.67,0-.25.02-.55.04-1.03.08.42,0,.68-.01.92-.02Z"/><path d="m129.59,2.26c-1.88.09-2.75.06-3.72.03-.48-.01-.17-.1-1.67-.02-1.21.07-.93.11-.7.16.22.04.34.09.5.13l-4.44.17c-.02-.05.5-.14-1.52-.06-1.52.06-2.21.05-2.16-.02.17-.05,1.94-.12,1.06-.15-.31,0-1.01,0-1.47.01-1.55.06-.52.09-.86.14-.19.03-.33.05-.61.08-.55.05-2.18.13-1.57.15.71.02,1.87-.1,2.94-.12v.1c-4.2.17-8.29.3-12.32.39.66-.13,1.08-.27,4.55-.31.57,0,1.5-.05,1.73-.1.25-.05-.47-.04-1.25-.02-.26-.05-.52-.09-.68-.15l1.14-.07h-.92c2.74-.18,5.3-.26,7.71-.26.63.04,1.86.07,3.12-.03,2.41-.21,6.77-.17,8.37-.43,2.34-.03,4.82-.15,7.22-.22-.1.12,1.75.08,3.29,0,1.37-.08,2.19-.09,3.22-.09-.36.12-2.79.12-3.76.22-.36.04-1.6-.03-2.14.07-.33.06.88.06,1.62.07.76.01,1.36,0,2.41-.07,1.32-.09,2.86-.18,4.04-.11.71.04,1.99-.05,2.74-.1,1.31-.08.25-.08-.52-.08-1.21,0-2.41-.02-2.18-.11l.77-.06c1.36.09,3.97-.04,6.2-.1.86-.02,2.85-.13,2.27.02-.14.04,2.55-.1,2.63-.13.16-.08.88-.09,1.86-.12l.72-.02c1.34-.07,2.94-.16,2.39,0-.67.1-.65.09.49.08.5,0,1.17,0,1.28.01.38.06-1.64.1-1.96.16-2.05.07-4.21.21-5.95.14-.45-.02-1.75.07-1.67.08.36.04-2.47.14-.47.14-.08.04-.3.05-1.12.07-2.67.07-5.36.1-8.08.25-.39-.24-3.44.06-5.21.1-2.05.07-3.56.21-5.74.26.5-.09,2.06-.24-1.56-.06Zm-8.52.18l.42-.05c-.19,0-.4,0-.55.01-.14,0-.21.02-.31.03.15,0,.3,0,.45,0Z"/><path d="m179.18,11.72c2.58.12,5.71.37,8.09.45,2.09.21,5.31.34,7.8.52.71.05.98.06,1.49.08,1.56.06,1.96-.07.24-.2-1.81-.13-2.37-.2-2.83-.27-.47-.08-1.36-.18-3.08-.21-.2,0-.9-.05-1.21-.06-2.96-.22-5.81-.35-8.73-.53l-20.16-1.23v.05c.58.03,1.04.07,1.17.1,1,.05,2.19.12,3.02.17,1.99.12,4.44.23,6,.39.94.1,7.78.6,9.17.66.23.01.47.01.44,0-.33-.08.96.03,1.55.08.7.07,1.14.11,1.75.17.35.03,1.44.08,1.33.1-.07.01-.69-.01-1.54-.06-1.76-.1-4.26-.27-4.49-.19Z"/><path d="m204.24,0c-1.76,0-3.85-.01-5.01.08.51,0,1.16.03,1.51.03,1.36-.03,2.64-.06,3.63.04.82.08-.33.1-1.16.14-1.47.07-2.59.04-3.78-.02-.74-.03-1.99-.04-2.59,0-2.07.12-3,.04-4.23,0-.79,0-1.79.04-1.99-.02-.04-.01.32-.04.47-.04,1.04-.01,1.07.04,1.52.06l2.22-.21c-1.46-.12-3.36,0-5.15.05.05.05-.07.09-1.36.12.02.03-.09.07.09.1.57.08-1.57.11-2.2.17-.17.02-.61.04-.75.01-.27-.05.45-.08,1.25-.13.45-.03.11-.08.13-.13-.71.06-2.72.03-2.93.13.26,0,.97,0,.28.04l-.26-.04c-1.03,0-.4-.1-1.68-.07-.45.01-.81.09-1.22.13.02.03-.14.06-.75.09.03,0,.07.02.11.03h.67c1.12.02,4.64,0-.14.15-.31.01-.46.05-.68.08,2.06-.05,4.22-.15,6.09-.08.23,0,3-.1,4.84-.16.51-.05,1.14-.07,2.25-.09,3.25-.06,6.64,0,9.75-.08,1.24.11,3.49.02,4.79.18.32.04.62.08.9.15.06,0,.15.06.12.04-.03-.03-.04-.08-.03-.13.04-.05.01-.02.01-.03,0,0-.04.02-.07.03-.12.04-.27.08-.42.11-.6.12-1.25.22-2.04.34-2.15.33-3.1.36-3.16.26l-3.57.34c.17.05-.81.18-1.52.29,1.64-.05,3.35-.12-.11.27-.44.05-.15.05.3.03,1.39-.19,3.45-.28,4.62-.45,2.7-.41,2.17-.23,2.55-.21l.76-.09c.07-.05.47-.11,1.33-.24.05-.03.21-.07.47-.13.13-.03.28-.06.46-.1.18-.06.35-.05.61-.23-.04,0-.08.01-.11.01.03-.02.06-.03.09-.07.04-.06.04-.13,0-.17-.06-.05-.1-.06-.14-.08-.08-.03-.14-.04-.2-.05-.1-.02-.16-.04-.2-.05-.07-.02-.03-.03-.03-.04-1.64-.24-4.1-.24-4.35-.38Z"/><path d="m138.5,9.45c.93.04,1.59.05,2.08.05,1.03,0,2.3,0,.38-.14-3.02-.22-3.16-.09-4.73-.13l-2.88-.16c-1.34-.15-3.93-.17-5.67-.27l-.03-.07c1.67.07,3.61.07,4.85.18,1.57.14,3.21.18,5.05.25,7.25.25,14.53.59,21.81,1.02.13.04.11.06-.79.02l-1.4-.07-.72-.06c-.22-.02-.44-.04-.66-.03-4.61-.22-5.25-.22-3.5-.03.05,0,.07.01.1.02,4.07.14,5.14.38,9.12.59,1.65.08,3.85.21,4.29.33-1.08-.06-2.31-.07-2.67-.13-.68-.11-1.82-.14-2.93-.21-3.95-.24-7.81-.42-11.87-.6-5.79-.24-11.76-.49-17.68-.73-1.18-.04-3.06-.08-3.14-.17.7-.03,1.81,0,3.04.08,1.48.1,2.49.11,3.42.1,1.52.08,3.05.18,4.54.18Zm7.26.14s.44.1,1.63.13c1.14.04,2.82.08,2.88.06.13-.05-1.36-.07-1.89-.1-1.04-.04-2.7-.17-2.62-.09Zm3.38.38c.75.04,2.08.1,2.13.06.03-.02-.46-.07-1.25-.11-.85-.03-1.69-.06-2.79-.1.81.07,1.32.12,1.91.15Zm-4.39-.38l-.44-.02h.05c.33.03.34.02.38.02Z"/><path d="m91.71,9.65c1.79-.14,3.2-.22,5.22-.31,2.94-.13,6.6-.4,9.94-.62,1.67-.11,3.46-.18,5.02-.34v-.1c-.36-.02-1.32-.04-.19-.12,3.33-.27,2.88-.42,5.18-.65-1.23.08-2.32.17-3.28.27-.12.01-.23.02-.32.03-.13.05.4.08-.93.19-1.05.09-1.8.11-1.95.06h-.17s.16,0,.16,0c1.55-.07,1.59-.18,2.88-.25.08-.01.11-.02.1-.02-1.48,0-3.26.21-4.87.29-2.04.24-4.21.37-6.4.42-.66.01-1.09,0-1.81.11-1.12.17-2.76.23-4.33.3-2.25.21-1.2.24-.65.3.14.02.62.02-.17.08-.67.06-1.07.05-1.35.04l-.8.05c.43.05-1.71.22-1.26.27Z"/><path d="m75.48,3.91c-1.43,0-2.91.01-4.87.14-2.45.2-5.04.32-7.82.35-.52.07-1.51.12-2.39.17l-1.47.03c.18.02.45.07.52.07,2.69-.13,4.5-.08,7.09-.2,1.88-.09,3.61-.15,4.12-.06.02,0,.21,0,.31,0,.35-.03.71-.05,1.07-.08-.32-.11,1.58-.17,3.03-.22,4.77-.16,9.56-.41,14.39-.54,2.92-.07,3.08-.11,1.69.07-.41.06-.7.11-1.04.16,2.77-.13,5.99-.19,8.22-.41-.52,0-1.03.02-1.57.03-.89.03-2.17.15-2.56.09-.16-.02,1.24-.13,2.12-.2.47-.04,1.36-.06,2.07-.09.59-.02,1.23-.05,1.51-.09.37-.05-.25-.05-.86-.05-.96,0-1.21-.05-2.7,0-1.88,0-3.94.04-6.4.17-2.81.21-6.1.34-9.41.46.05.03-.1.07-.7.09-1.05.04-.38-.03-.62-.05-1.39.15-2.83.33-3.74.14Z"/><path d="m157.17,10.12l-.72-.06-.33-.02-.33-.02c-4.61-.22-5.25-.22-3.5-.03.05,0,.07.01.1.02,4.07.14,5.14.38,9.12.59,1.65.08,3.85.21,4.29.33,1.2.04,3.34.19,4.24.19-1.14-.11-.01-.11.59-.07,1.76.11.68.1.93.15.05,0,0,.01,0,.02,1.34.14,3.64.21,5.15.35.93.04,1.75.09,2.46.16.24-.07,2.74.1,4.5.19.85.05,1.47.07,1.54.06.11-.02-.98-.07-1.33-.1-.61-.06-1.05-.1-1.75-.17-.59-.05-1.88-.16-1.55-.08.04,0-.21,0-.44,0-1.39-.06-8.23-.56-9.17-.66-1.57-.17-4.01-.27-6-.39-.83-.05-2.02-.11-3.02-.17-.97-.04-1.01-.07-1.16-.1v-.05s-1.44-.09-1.44-.09c.13.04.11.06-.79.02-.18,0-.31.01-.54,0-.76-.03-.76-.06-.86-.08Z"/><path d="m123.34,7.1l.05.04c.59.04,1.06.09,1.79.12,1.57.06,4.43-.12,6.76-.41.29-.04.43-.07.79-.11,1.33-.12,1.41-.25.08-.2q-.55.02-.86.12c-.15.05-.1.09-1.11.16-.31.02-.65,0-.98,0-1.9.1-1.78,0-2.21-.03,2.16-.19,4.37-.33,6.6-.45-.91.17,1.28.05,2.32.04l1.12-.14,2.27-.19s.04.02.03.03c-1.38.22.78.18.72.3l-1.37.1s0-.01-.08-.01c-.97.03-.8-.1-1.99,0-1.76.15.21.1-.12.19l-.81.13c-3.33.21-6.72.47-9.98.63l-1.41.1-.06-.07.3-.04-.39.04-.89.06c-.45.02-1.09.04-1.07.09l-1.43.13.2-.02h.22c-.99-.02-3.44.15-4.14.07-.33-.04-3.41.27-5.09.44-.27.03-.45.05-.68.08-.37-.02-1.33-.04-.2-.12,3.33-.27,2.88-.42,5.18-.65,2.22-.19,4.38-.32,6.44-.4Zm9.53-.26c.07.01.22.02.35.03.09-.02.26-.04.27-.05,0-.02-.1-.02-.18-.04-.21.03-.45.05-.43.05Z"/><path d="m188.31.26c1.29-.03,1.41-.08,1.36-.12h-1.21s-.93.03-.93.03c-2.33.02-4.57.04-7.03.14-1.01.04-2.46.08-3.66.07-1.32,0-3.81.05-4.23.07-4.47.23-8.79.29-13.08.36-1.58.02-2.57.11-3.86.15l-19.78.63c-.71.02-1.43.03-1.84.09-.1.12,1.75.08,3.29,0,1.37-.08,2.19-.09,3.22-.1.48-.06,1.41-.08,2.21-.11l.77-.06c1.36.09,3.97-.04,6.2-.1.86-.02,2.85-.13,2.27.02-.14.04,2.55-.1,2.63-.13.16-.08.88-.09,1.86-.12.24-.04.48-.04.73-.02,1.33-.07,2.92-.16,2.37,0,.36,0,.72-.02,1.09-.03,1.13-.09,2.3-.16,3.88-.14,1.3-.12,2.57-.26,4.25-.13l2.08-.05c.45-.09,1.84-.1,2.97-.13,1.65-.05,1.36.02,1.47.06,1.9-.17,3.8-.18,5.71-.14.4-.05.77-.12,1.22-.13,1.28-.03.65.07,1.68.07.18-.1,2.2-.06,2.91-.13l1.48-.02Z"/><path d="m152.95,5.61c1.02,0,2.14-.05,3.65-.22-.87,0-1.71,0-.7-.14.8-.11,1.42-.06,2.28-.14,1.14.03,1.79-.08,2.54-.19.85-.13,1.69-.2,2.28-.15,2.04-.16,1.72-.22,2.09-.32-.31-.06-1.96.03-2.77.03-1.37.02-3.18.13-4.9.28-1.29.11-2.41.19-3.65.26-1.26.13.06.16-2.13.31-1.63.11-1.36.01-1.62-.02l-1.44.11c.11.04.3.08.29.13-.01.03-.68.09-1.3.13-.54.04-.95.04-.64,0,.46-.07,1.72-.18.38-.13-.34.01-1.51.16-2.29.24-.25.03-.38.07-.89.07l.91-.07c-.56-.1-2.36.05-4.25.21-.57.15,2.31.02,2.11.14,3.1-.27,3.08-.18,2.85-.06,1.25-.1,2.28-.1,3.56-.22-.19-.11,1.18-.3,3.33-.43,2.99-.18-.96.17.08.16.14,0,.17,0,.25.01Z"/><path d="m4.88,8.26h1.18s2.28-.08,2.28-.08l.84-.02-.07-.03c-.49,0-.74-.02-.32-.05.06,0,.26,0,.33,0,.65,0-.04.04-.04.06,1.19-.01,2.06-.05,2.62-.11.88-.1,2.01-.12,2.92-.12s1.59.04,1.57.06c-.18.13,1.71.09,3.07.1,1.72-.07,3.42-.13,5.16-.2.76-.03,2.23-.03,1.81-.09-.35-.05-1.94.01-2.34,0-1.25-.04-3.18.15-3.88.02-.95,0-2.08.02-2.22-.04-.8.01-1.65.03-2.17,0-1.76.02-3.53.04-5.27.06-1.73.01-3.34.07-4.95.11-.81.02-1.62.03-2.44.05-.41,0-.83,0-1.25-.01-.21,0-.42-.02-.63-.04-.05,0-.11-.02-.12-.02,0,0,.06.05.02.11-.03.03-.01.02-.01.02l.06-.02c.1-.02.2-.04.31-.05v-.08c-.11.02-.22.03-.32.06-.04,0-.12.06-.1.02.04.02.09.02.14.03.21.02.41.03.61.04.39.02.72.03.94.05-.06.04-.08.11-1.4.05l.62.13c1.03.02,2.05.01,3.07,0Z"/><path d="m198.4,2.29c-.44.02-.74.02-.3-.03,3.45-.39,1.75-.32.11-.27l-1.33.12.04.1h.17s-.16,0-.16,0c-1.21.07-3.84.35-3.65.19-2.01.17-3.84.19-6.08.45-.32.04-1.73.1-1.8.05l-2.12.14c-.92.15-3.59.38-3.07.46.02,0-.46.05-.71.08-1.59-.09-2.23.21-3.47.26,0,.01,0,.02,0,.03,3.64-.08,4.5-.31,5.77-.51l.28-.03-.29.03c.37-.02.88-.05,1.31-.07.43-.02.77-.04.79-.03.38.22,3.02-.13,5.17-.31,2.24-.19,4.81-.44,6.79-.49.97-.05.84.05,2.53-.1l.04-.07Z"/><path d="m83.07,9.91l1.33-.05c3.26-.17,3.22-.06,2.89.08,1.07-.02,1.02-.09,1.54-.13-.97-.1.62-.34,3.57-.53-.68-.04-.74-.12-.01-.25-.75-.04-1.38.06-2.02.13.43,0,.54.01-.04.05-.8.05-.67,0-.75-.01-1.73-.01-4.26.22-6.09.33-3,.18-6.28.32-9.12.58l.02.05,2.08-.11c.65-.1,1.25-.1,1.84-.11l2.48-.08c.18-.06.32-.12,1.66-.19.9-.05,1.42-.05,1.85-.04,1.01.02-.36.16-1.23.26Z"/><path d="m19.99,7.79c.7.13,2.63-.06,3.88-.02.4.01,2-.05,2.34,0,.42.06-1.05.07-1.81.09-1.74.07-3.44.13-5.16.2l.63.05h.84c2.32-.14,5.27-.13,7.88-.19.62-.05.47-.08.16-.12-.53-.07.27-.11,1.96-.13l.03-.03s.52-.07,1.55-.08c.21,0,.42,0,.62-.01-.21-.03-1.17-.05.08-.1l-.06-.03c-4.13.02-8.25.03-12.39.15.67.07,1.89.13-.55.22Z"/><path d="m40.86,5.35c-.85.04-.78-.1-2.3.07-1.13.13-2.22.07-3.35.15-.31.15-1.85.19-3.47.22-1.37.02-2.5.1-3.53.19-1.07.1-1.54.17-.4.18,1.52-.07,2.92-.09,4.55-.19,5.08-.32,5.64-.35,9.72-.43.1,0,.29,0,.32,0,2.07-.22,5.24-.18,7.35-.38-.2-.05-.23-.11-1.67-.08-.05.05-.39.07-1.36.1-2.07.06-4,.12-5.86.18Z"/><path d="m19.99,7.79c2.44-.1,1.21-.16.55-.22-1.61-.01-2.69-.06-4.99.07-1.66.1-4.97.08-7.63.13-1.79.03-3.62.07-5.45.07-.45,0-.92,0-1.35-.04-.05,0-.11-.01-.14-.02-.02,0,0,0,0,0-.02,0,.04.01.08.08.02.05.04.14-.02.22-.09.09-.05.04-.04.05.08-.02.2-.04.31-.06l.67-.08c.9-.09,1.81-.15,2.71-.21,1.58-.09,2.62-.16,2.44-.25-.18-.08-1.45,0-2.88.13-.99.08-1.98.15-2.95.29-.11.01-.21.03-.31.05-.03,0-.05.01-.06.02,0,0-.02.01,0-.01.04-.06-.03-.12-.02-.11.01,0,.08.02.12.02.2.03.42.03.63.04.42.01.84.01,1.25.01.82-.02,1.63-.03,2.44-.05,1.61-.04,3.22-.1,4.95-.11,1.74-.02,3.52-.04,5.27-.06.43-.02.9-.06,1.27-.06.8,0,.88.03.91.06.15.06,1.27.04,2.22.04Z"/><path d="m181.79,3.37c-1.27.21-2.12.44-5.77.51l-2.9.25c-.77.08-1.57.16-1.37.2,1.37,0,3.14-.2,4.64-.31,5.69-.41,11.39-.78,17.12-1.29,1.53-.14,1.74-.19,2.32-.27-1.98.06-4.56.3-6.79.49-2.15.18-4.78.53-5.17.31-.01,0-.36,0-.78.03-.43.02-.94.05-1.3.07Z"/><path d="m90.1,3.81c.34-.05.63-.1,1.04-.16,1.39-.18,1.23-.15-1.69-.07-4.84.12-9.63.38-14.39.54-1.45.05-3.35.11-3.03.22,2.71.02,5.66-.12,8.91-.31,2.09-.12,3.7-.16,3.3-.01,2.11-.14,3.86-.11,5.86-.2Z"/><path d="m49.74,5.16c-2.11.2-5.28.16-7.35.38-.03,0-.22,0-.32,0-4.08.08-4.64.1-9.72.43-1.63.1-3.03.12-4.55.19.65.08,1.36.15,3.87.09l1.83-.15c.67-.1,1.71-.14,3.19-.2,1.8-.08,3.97-.17,5.52-.24,3.14-.12,5.92-.36,8.91-.42l-.8-.11c-.2,0-.4.01-.59.02Z"/><path d="m13.07,7.11c.93-.16,1.69-.3-2.07-.1-1.21.07-.45-.02-.36-.06,1.85-.17,3.89-.25,5.22-.27,3.36-.07,4.12-.2,4.84-.36l.69-.04c2.21-.05,5.84-.2,2.4.15-.62.06-.6.12-.88.18-1.9.1-3.81.2-5.7.3-1.23.06-2.15.12-2.28.19l-2.12.11c.08-.03.05-.06.26-.1Zm6.06-.42c.07,0,.2,0,.38-.03-.1,0-.21,0-.38.03Z"/><path d="m19.64,13.55c-1.08-.05-4.87.28-4.87.13,0-.07,1.52-.23,2.17-.36.67-.12,3.59-.29,5.91-.39,1.04-.04,2.04-.07,3.08-.11,1-.05,2.24-.05,2.97-.15.78-.1-1.99.07-1.48-.03-3.41.05-7.65.41-11.19.47-1.12.02-.86.11-1.76.17-.86.08,3.03-.05-.16.14-1.07.16-3.87.36-3.44.49.66-.02,1.52-.06,1.95-.06,1.07,0,1.06.18,3.77-.12.03,0,.99-.02,1.59-.03,1.78-.06,3.46-.16,4.95-.29-.52-.11-2.48.13-3.49.13Z"/><path d="m10.11,13.53c-.88.04-1.52.05-1.98.03-1.16-.04-3.33,0-5.04.14-1.52.13-2.89.29-3.06.42-.3.23,1.61.21,5.87-.03,1.04-.06,2.34-.07,3.52-.1,1.29-.15.79-.22-.61-.21-1.42,0-2.72.11-3.72.24-.37.04-2.07.17-1.93.08.13-.08-.86-.1-.24-.2.38-.06.57-.12,1.72-.18,1.2-.06,1.72-.04,1.86,0,.15.05.33.08,1.66,0,1.29-.07,1.95-.13,1.94-.2Z"/><path d="m51.13,5.24c-2.99.06-5.78.3-8.91.42-1.55.07-3.73.16-5.52.24-1.47.06-2.51.1-3.19.2,2.53.05,6.29-.22,9.4-.35,4.64-.2,9.39-.48,13.92-.56l.37-.06c-.67-.02-3.03.02.56-.16,1.18-.06,1.84-.14-.19-.08-2.13.12-3.69.32-6.44.35Z"/><path d="m203.29,1.36c.06.1,1.01.07,3.16-.26.79-.13,1.44-.22,2.04-.34.15-.03.3-.06.42-.11.03,0,.07-.03.07-.03,0,0,.03-.03-.01.03-.02.05,0,.1.03.13.02.02-.06-.03-.12-.04-.27-.07-.58-.11-.9-.15-1.3-.16-3.55-.07-4.79-.18-3.1.08-6.5.02-9.75.08-1.11.02-1.74.04-2.25.09,2.99.05,6.22,0,9.7-.01,2.22,0,4.48-.02,6.88.15.26.02.53.05.8.08.13.02.27.04.36.07.02,0,.03.02-.01-.02-.05-.05-.08-.15-.06-.23.06-.11.06-.08.06-.09.02-.01-.06.03-.12.04-.52.15-1.15.23-1.75.33-1.23.18-2.52.33-3.74.46Z"/><path d="m62.75,10.82l1.56-.09,2.32-.04c.33-.02.66-.04.99-.05l3.21-.26c-1.9-.07-5.67.21-8.38.35-5.38.32-10.81.63-16.23.95l-1.44.11c2.44,0,5.07-.13,7.91-.39,2.3-.16,4.73-.36,6.06-.26l1.04-.06.74-.05s-.04-.03-.07-.04h-.23s.52-.03.52-.03l2-.14Z"/><path d="m46.24,7.4c2.06,0,4.12.03,6.2,0,1.65,0,3.23,0,4.45.07,1.11,0,1.67,0,2.22,0,2.64.02,5.21-.03,8.01.05,1.46.04,2.24-.05,2.67-.11-7.95-.1-15.9-.13-23.85-.06l.29.06Z"/><path d="m10.63,6.96c1.85-.17,3.89-.25,5.22-.27,3.36-.07,4.12-.2,4.84-.36-5.52.25-11.06.47-16.57.97-.67.06-1.21.1-1.72.13-.26.02-.51.04-.76.06-.27.04-.47.03-.85.15,0,0-.08.04-.11.06,0-.02-.13.14-.12.24,0,.1.03.17.1.24.16.13.17.09.22.11.08.02.12.02.18.03.1,0,.21.01.32.02.21,0,.43.01.65.02.43,0,.87,0,1.27,0,.8,0,1.45-.04,1.58-.1-1.02,0-2.04.02-3.07,0l-.64-.03-.17-.02-.09-.02s-.05,0-.17-.08c-.05-.06-.08-.1-.06-.18.01-.09.09-.15.09-.15.03-.02.07-.04.08-.04.04-.02.07-.02.1-.03l.17-.03c.43-.07.85-.11,1.27-.15l2.51-.19,5.74-.38Z"/><path d="m100.86,8.16c-.08.05.4.12-1.91.05-1.44-.04-2.67-.05-2.43.03,5.92.18,11.85.38,18,.49l-.03-.04-.21-.04c-.11,0-.23,0-.36,0-1.03-.01-2.05-.02-2.35-.1-.18,0-.37,0-.56-.01l-2.17-.09c-.33.05-1.07.04-2.23-.03-1.28-.04-2.61,0-3.77-.09-.38-.03.2-.05.83-.05l.06-.02-.7-.07c-1.27-.09-1.39,0-2.17-.02Z"/><path d="m21.38,6.28c2.21-.05,5.84-.2,2.4.15-.62.06-.6.12-.88.18,1.05-.04.7.01.77.04l1.41-.08c-.44-.05,1.38-.17,1.43-.24l-.95.03c.07,0,.2-.02.21-.02.26,0,.51,0,.76-.01,1.25-.02.49.09.76.13,1.43.02,2.88-.04,4.38-.21-2.5.07-3.22,0-3.87-.09-1.14,0-.67-.08.4-.18,1.03-.09,2.16-.17,3.53-.19,1.62-.03,3.16-.07,3.47-.22-3.64.15-7.35.38-10.94.5-1.42.05-2.16.12-2.89.2Z"/><path d="m57.57,4.9c2.03-.07,1.36.02.19.08-3.6.18-1.23.14-.56.16.62-.09,1.74-.09,2.6-.14-.1-.04.56-.13,1.09-.13,2.63-.02,4.49-.24,6.78-.32,1.22-.1,1.29-.06,1.38-.02,1.24,0,1.55-.06,1.91-.12-.11,0-.3,0-.31,0-.52-.09-2.24-.02-4.12.06-2.59.12-4.4.07-7.09.2-.07,0-.34-.05-.52-.07l-2.81.06-1.49.03-.17.1c3.19-.12,3.37-.02,3.12.11Z"/><path d="m96.34,3.1c1.48-.06,1.74,0,2.7,0,.61,0,1.22,0,.86.05-.28.04-.92.06-1.51.09-.7.03-1.59.06-2.07.09-.89.07-2.28.18-2.12.2.39.06,1.67-.06,2.56-.09.54-.01,1.05-.02,1.57-.03.69.03,1.3-.05,1.95-.08,1.08-.07,2.24-.15,1.92-.2-1.25-.18,2.11-.3,5.12-.43-.37-.03-1.94.04-2.06-.01-2.47.13-4.81.15-7.31.26-1.79.08-1.4.11-1.6.16Z"/><path d="m67.67,4.54c-2.29.08-4.15.3-6.78.32-.53,0-1.19.09-1.09.13,4.59-.19,9.15-.39,13.74-.58,2.3-.1,4.71-.18,6.99-.25,1.38-.04,2.49-.1,3.7-.16.4-.15-1.2-.11-3.3.01-3.25.19-6.2.33-8.91.31-.36.03-.72.05-1.07.08-.36.06-.66.12-1.9.11l-1.38.02Z"/><path d="m10.63,6.96l-5.74.38-.05.07c.78-.06,1.47-.09,1.35-.04-.12.05-.91.1-1.63.16-.26.05-.28.09-.29.13,1.42-.12,2.7-.21,2.87-.13,1.83-.08,3.73-.19,5.66-.32.08-.03.05-.06.26-.1.93-.16,1.69-.3-2.07-.1-1.21.07-.45-.02-.36-.06Z"/><path d="m173.12,4.13l2.91-.25v-.03s-.16,0-.16,0h.15c1.24-.05,1.89-.35,3.47-.26.25-.03.73-.07.71-.08-.52-.09,2.15-.31,3.07-.46-.16-.03-.8.03-1.38.07-.75.11-1.97.18-3.04.26-.79.04-1.28.21-1.71.14-.46-.07-1.77.09-2.51.12-1.26.16-1.83.16-2.27.13-.75.04-1.65.03-2.11.16l-.32.08c.88-.04,1.32-.01,2.56-.1.85-.04.53.03.6.05,3.86-.21-.5.16.02.18Z"/><path d="m112.43,8.27c1.22.08,2.63.18,3.8.26,2.38.2,6.85.29,8.76.22-1.78-.06-3.75-.12-2.5-.19-3.41-.14-6.82-.27-10.05-.29Z"/><path d="m173.1,3.95c3.85-.21-.5.16.02.18-.77.08-1.57.16-1.37.2-2.19.16-4.51.42-6.51.43-.1,0-.13,0-.09-.02,2.88-.31,3.1-.47,2.93-.62l1.85-.13c.88-.04,1.32-.01,2.56-.1-.08.04-.1.08.6.05Zm-2.29.27c.46-.02.9-.08.75-.09-.3-.02,1.17-.2-1.04-.04-1.1.09-1.01.11-.21.09.15.01.14.05.5.04Z"/><path d="m194.81.08c.67,0,1.23.05,2,0,1.7-.14,1.86-.03,2.41.02.51,0,1.16.03,1.51.03,1.36-.03,2.64-.06,3.63.04.82.08-.33.1-1.16.14-1.47.07-2.59.04-3.78-.02-.74-.03-1.99-.04-2.59,0-2.07.12-3,.04-4.23,0,.74-.07,1.47-.14,2.21-.21Zm8.07.09s-.25,0-.27,0c-.03,0,0,.02.02.03h.56c-.1-.02-.19-.02-.31-.03Z"/><path d="m86.89,8.02c-2.93-.04-6-.13-8.64-.06-.67.02-1.6-.03-2.26-.05-1.19-.05-2-.04-2.65,0,2.47.13,5.46.12,8.27.14,3.63.02,7.03.19,10.69.19.53,0,1.19.01,1.43-.01-.74-.08-2-.13-3.46-.11-1.75.02-2.58-.03-3.39-.1Z"/><path d="m10.11,13.53c.01.06-.65.13-1.94.2-1.33.07-1.51.04-1.66,0-.14-.04-.67-.06-1.86,0-1.15.06-1.34.12-1.72.18-.62.1.37.12.24.2-.14.09,1.56-.04,1.93-.08,1-.12,2.3-.23,3.72-.24,1.4,0,1.9.06.61.21.48,0,.96,0,1.44-.07-.43-.13,2.37-.33,3.44-.49-.76,0-1.46,0-1.51-.04l-2.69.15Z"/><path d="m181.03.47c-1.9-.04-3.81-.03-5.71.14-1.11.13-4.55.19-5.15.34l.26.11c1.25,0,2.39-.03,3.42-.11.16-.02-.31-.04.45-.07l.23.06c.21,0,.44,0,.68-.01,2.95-.09,2.35-.26,5.07-.36.61-.03.77-.06.75-.09Z"/><path d="m19.87,8.11l-.63-.05c-1.36-.01-3.24.03-3.07-.1.03-.02-.66-.05-1.57-.06s-2.05.02-2.92.12c-.55.06-1.43.1-2.62.11.05,0,.08.02.1.03l-.05.1c3.55-.02,7.05,0,10.75-.15Z"/><path d="m53.86,7.87c.28-.09-1.29-.11-2.56-.13-2.75-.03-5.94-.08-8.35-.01-1.67.04-2.79.06-4.41.06-.98,0-.44.06-.52.1,3.46,0,6.83.03,10.47-.04,1.57-.03,3.57,0,5.37.01Z"/><path d="m196.87,2.11l1.33-.12c.71-.11,1.69-.24,1.52-.29-3.6.27-7.45.66-11.1.83-1.47.07-1.91.24-3.24.37.07.05,1.48-.01,1.8-.05,2.23-.27,4.07-.28,6.08-.45,1.28-.3,2.39-.16,3.61-.29Z"/><path d="m160.67,1c-.36,0-.73.02-1.09.03-.67.1-.65.09.49.08.5,0,1.17,0,1.28.01.38.06-1.64.1-1.96.16l1.52.02,2.38-.05,4.82-.26c-3.29-.01-3.22-.04.68-.28-1.68-.13-2.94.01-4.25.13-1.28.05-1.9.25-3.88.14Z"/><path d="m107.31,2.69c-3.01.13-6.37.26-5.12.43.32.05-.83.13-1.92.2.34.1,1.87-.05,2.79-.07.66-.13,1.08-.27,4.55-.31.57,0,1.5-.05,1.73-.1.25-.05-.47-.04-1.22-.02l-.32.02.29-.02-.77-.14Z"/><path d="m165.25,4.76c-.1,0-.13,0-.09-.02-.32-.03-2.56.15-2.15.04-.59-.05-1.43.02-2.28.15-.75.11-1.39.22-2.54.19-.86.08-1.48.03-2.28.14-1.01.14-.17.14.7.14,2.93-.19,6.04-.3,8.64-.63Z"/><path d="m121.82,7.68c-.99-.01-3.44.16-4.14.07-.33-.04-3.41.27-5.09.44-.27.03-.45.05-.68.08v.1c2.59-.09,4.99-.38,7.55-.51l1.89-.14c.25-.02.4-.03.47-.05Z"/><path d="m100.13,7.91c1,.11,7.53.39,9.63.42,2.07.02.76-.09,1.17-.13-1.32-.03-2.64-.03-3.9-.12-.28-.01-1.19-.05-1.25-.05-1.68.06-3.81-.09-5.66-.12Z"/><path d="m19.64,13.55c1.01,0,2.98-.25,3.49-.13,1.03.01,2.05-.08,3.07-.15,1.7-.19,4.4-.27,6.41-.43-.41-.04-.36-.11-2.5.06-1.29.1-3.17.19-4.79.28l-.89.09h-.28s1.12-.09,1.12-.09c-1.34.04,2.76-.38-2.12-.03-.17.06.48.11-1.46.22-.39.07-2.15.13-2.05.2Z"/><path d="m55.32,7.78s.21.04-.41.04c4.39.02,9.01.16,12.81-.02l-.1-.04-2.87-.02c-3.14.01-6.27.02-9.43.04Z"/><path d="m32.61,12.83c-2,.16-4.7.24-6.41.43.24.1,1.82-.07,2.64-.1,3.13-.12,6.36-.32,9.52-.52-.65-.16-3.75.11-5.75.19Z"/><path d="m84.44,9.98c-2.25.13-4.79.32-6.31.27-.58-.02-1.41.06-1.54.12-.1.05.09.08-.87.16-.3.13,1.59-.02,2.59-.07,2.26-.13,4.55-.26,6.82-.39-.19-.03.38-.12-.69-.09Z"/><path d="m95.95,8.9c1.58-.07,3.21-.13,4.33-.3.73-.11,1.16-.1,1.81-.11,2.2-.05,4.36-.18,6.4-.42-2.04.03-4.59.21-7.07.38-1.83.12-3.64.25-5.46.37l-.02.08Z"/><path d="m131.16,2.33c.5-.09,2.06-.24-1.56-.06-1.88.09-2.75.06-3.72.03-.48-.01-.17-.1-1.67-.02-1.21.07-.93.11-.7.16.22.04.34.09.5.13l7.16-.24Z"/><path d="m145.73,6.09c.23-.12.26-.21-2.85.06l-2.17.21-1.37.1c-.58.07-1.4.12-2.19.17l-.81.13c-.06.07.9-.01,1.66-.07,2.58-.2,5.15-.41,7.73-.61Z"/><path d="m160.91,1.31l-1.52-.02c-2.05.07-4.21.21-5.95.14-.45-.02-1.75.07-1.67.08.36.04-2.47.14-.47.14,3.19-.12,6.67-.1,9.61-.33Z"/><path d="m145.01,5.8c.79-.08,1.96-.22,2.29-.24,1.34-.05.08.06-.38.13-.31.04.1.04.64,0,.62-.04,1.29-.1,1.3-.13.02-.05-.18-.09-.29-.13-2.61.08-5.58.3-8.52.52l-.09.09s.04.02.03.03l.79-.05c1.89-.17,3.69-.31,4.23-.21Z"/><path d="m180.28.56c-2.71.09-2.11.27-5.07.36,1.51.05,3.05.08,5.04-.1.22-.03.37-.07.68-.08,4.78-.15,1.26-.13.14-.16-.12.03.01.05-.84.07l.17-.06s-.08-.02-.11-.03Z"/><path d="m115.33,2.36c.63.04,1.86.07,3.12-.03,2.41-.21,6.77-.17,8.37-.43-3.9.12-7.73.27-11.48.46Z"/><path d="m56.11,4.66l2.81-.06,1.47-.03c-.01-.08,1.21-.13,2.39-.17,2.78-.03,5.37-.16,7.82-.35-.24-.03-.99-.03-1.5,0-4.19.26-8.92.32-12.99.61Z"/><path d="m32.53,12.35c.15.11.64.17,3.4-.08,2.06-.18,4.66-.16,6.64-.38-3,0-6.63.28-10.04.46Z"/><path d="m37.34,7.42c.97.11,2.87.17,4.96.23-.41-.11.67-.21,2.1-.3-1.46-.05-2.77,0-4.13.03-.73.09-1.91.04-2.93.04Z"/><path d="m63.65,11.26c-2.52,0-7.76.31-10.9.63,3.11-.11,6.23-.34,9.34-.52.07-.07.84-.09,1.55-.11Z"/><path d="m209.2.84c-.27.18-.43.17-.61.23-.17.04-.32.07-.44.1-.24.05-.38.09-.37.11.31-.04.62-.09.93-.15.07,0,.14,0,.22-.02-.24.07-.47.11-.7.14l-.57.05c-.86.13-1.27.19-1.33.24.66-.08,1.29-.15,1.93-.25.16-.03.32-.05.48-.09.08-.02.16-.04.25-.06.09-.04.17-.03.34-.17.07-.05.15-.27.09-.39-.08-.17-.12-.16-.18-.21-.07-.04-.13-.06-.18-.07-.1-.03-.18-.05-.27-.06-.17-.03-.33-.05-.49-.07-1.29-.13-2.59-.16-4.06-.16.26.14,2.71.14,4.35.38.11.01.21.03.33.06.06.01.11.03.18.05.03.01.07.03.12.07.08.07.05.22-.01.27Z"/><path d="m80.53,3.73c3.31-.12,6.6-.25,9.41-.46-1.11-.02-2.16,0-3.81.12-2.1.16-4.71.19-7.03.31l.13.07c.43-.01.87-.03,1.3-.04Z"/><path d="m92.39,9.29c-2.95.2-4.54.43-3.57.53l2.89-.17c-.45-.05,1.69-.22,1.26-.27-.84.02-.49-.05-.58-.09Z"/><path d="m168.11,1l-4.82.26c2.43-.01,4.85-.04,7.13-.21l-.26-.11-2.05.06Z"/><path d="m168.08,4.13l1.85-.13.32-.08c-2.69.17-5.44.3-7.93.57.81,0,2.46-.08,2.77-.03.52-.05.96-.09,1.39-.13.11-.06.18-.11,1.6-.21Z"/><path d="m95.95,8.9l.02-.08-3.58.22c-.73.13-.67.2.01.25,1.75-.1,1.34-.01,1.38.04.28.01.68.01,1.35-.04.79-.06.32-.07.17-.08-.55-.06-1.6-.09.65-.3Z"/><path d="m198.4,2.29l-.04.07c2.45-.2,5.14-.35,7.2-.73-.37-.03.16-.2-2.55.21-1.18.18-3.23.26-4.62.45Z"/><path d="m54.45,4.79l.17-.1c-2.79.05-5.32.23-7.9.38h1.35c1.43-.02,1.46.04,1.67.09.19,0,.39-.01.59-.02,0-.13.43-.26,4.12-.35Z"/><path d="m22.9,6.61c-1.9.1-3.81.2-5.7.3-1.23.06-2.15.12-2.28.19,2.54-.05,5.36-.28,8-.39,0-.03,0-.07-.02-.1Z"/><path d="m48.08,5.08h-1.35c-2.06.04-4.2.05-5.87.28,1.85-.06,3.79-.11,5.86-.18.98-.04,1.32-.06,1.36-.1Z"/><path d="m152.95,5.61c-.08,0-.1-.02-.25-.01-1.03.01,2.91-.34-.08-.16-2.15.13-3.53.33-3.33.43,1.26-.07,2.61-.1,3.66-.26Z"/><path d="m86.89,8.02c.81.07,1.63.12,3.39.1,1.46-.02,2.72.03,3.46.11.51,0,1.16.02,1.35,0-.42-.04-.83-.08-1.25-.12-2.25-.07-4.48-.08-6.71-.11l-.23.03Z"/><path d="m122.48,8.56c-1.25.06.72.12,2.5.19,1.31.06,2.14.07,2.69.05l-.03-.07c-1.69-.05-3.38-.11-5.16-.16Z"/><path d="m28.59,7.92c-2.61.06-5.56.04-7.88.18,2.62.04,5.25-.08,7.87-.11v-.07Z"/><path d="m142.1,1.96c-.39-.24-3.44.06-5.21.1.12.05-.39.13,1.76.03,1.08-.04,2.3-.09,3.45-.13Z"/><path d="m150.02,5.33c.26.03,0,.13,1.62.02,2.19-.15.87-.19,2.13-.31-1.76.02-2.51.19-3.75.29Z"/><path d="m70.82,10.38l-3.21.26c2.02-.1,2.15-.03,2.45.02.17.03.65.04,1.61-.02.36-.02.92-.07,1.03-.09.32-.06-.47-.03-1.09,0-2.23.07,1.78-.24-.16-.19-.2,0-.42.02-.64.03Z"/><path d="m126.36,9.04c-1.43-.02-3.37-.27-4.48-.14q.61.12,4.48.14Z"/><path d="m129.86,6.82c-1.9.1-1.78,0-2.21-.03-1.48.09-3.12.15-4.31.32l.05.04c1.07-.05,2.93-.21,3.11-.15.39.13,1.9-.04,3.37-.17Z"/><path d="m134.25,6.33c-.91.17,1.28.05,2.32.04l1.12-.14.88-.2c-1.48.08-2.78.25-4.32.31Z"/><path d="m115.37,2.77v.1c1.35-.02,2.7-.04,4.19-.13-.02-.05.5-.14-1.52-.06-1.52.06-2.21.05-2.16-.02-.66.05-.46.08-.51.11Z"/><path d="m44.4,7.35c-1.43.09-2.51.19-2.1.3,1.48-.08,3.63-.14,3.94-.25l-.29-.06h-1.55Z"/><path d="m84.44,9.98c1.07-.03.5.06.69.09l2.16-.12c.33-.14.37-.25-2.89-.08l.04.11Z"/><path d="m79.22,3.77l-.13-.07c-1.4.05-2.59.12-3.61.21.9.2,2.34.02,3.75-.14Z"/><path d="m82.74,7.56s-.15.04,0,.06c.4.06-1.68.12.56.16,1.98.03.27-.08.56-.13.08-.01.74,0,1.13-.01-.48-.05-.91-.1-2.24-.08Z"/><path d="m37.34,7.42c1.03,0,2.2.05,2.93-.04h-1.58c-.6,0-1.11,0-1.38-.03l-2.93.05.61.03,2.35-.02Z"/><path d="m171.56,11.22s.06-.01,0-.02c-.25-.05.83-.04-.93-.15-.6-.04-1.73-.04-.59.07l1.51.1Z"/><path d="m26.51,6.33c-.05.07-1.87.19-1.43.24l2.21-.11c-.27-.04.5-.15-.78-.13Z"/><path d="m12.8,13.38c.05.05.75.05,1.51.04,3.19-.19-.7-.06.16-.14-.14,0-.32,0-.55.02l-.96.05c-.2.01-.25.02-.16.03Z"/><path d="m122.83,7.58l-1.43.13c.64.04,2.39-.11,3.48-.14l.07-.07-.06-.07c-.39.02-.68.04-.98.06-.11.05-.6.07-1.08.09Z"/><path d="m105.25,2.68c.12.06,1.69-.02,2.16,0l1.14-.07h-.92c-.76,0-1.55.02-2.38.07Z"/><path d="m172.36,3.76c.43.03,1.01.03,2.27-.13-.61,0-.86-.06-2.27.13Z"/><path d="m8.33,8.18l-2.28.07c-.1.09,1.15.05,2.27.03v-.09Z"/><path d="m178.84,3.38c1.08-.08,2.29-.15,3.04-.26-1.55.04-2.38.14-3.04.26Z"/><path d="m179.17,11.72c-.71-.07-1.53-.12-2.46-.16.79.06,1.25.17,2.46.16Z"/><path d="m34.99,7.44l-.61-.03h-1.44s.06.05.06.05c.65.03,1.31.03,1.99-.02Z"/><path d="m113.37,7.78s-.02.01-.1.02c.1,0,.21-.02.33-.03l.2-.09-.44.09Z"/><path d="m37.31,7.35c.28.03.79.03,1.38.02.02-.06-.46-.06-1.38-.02Z"/><path d="m89.57,9.2c.08.02-.05.07.75.01.58-.04.47-.06.04-.05l-.79.04Z"/><path d="m124.95,7.49l-.07.07c.74-.06,1.25-.12,1.49-.17l-1.41.1Z"/><path d="m121.35,7.73l-1.89.14c.8,0,1.43-.05,1.89-.14Z"/><path d="m22.94,6.61v.1c.47-.02.71-.04.74-.06-.07-.03.28-.08-.74-.04Z"/><path d="m174.52.93l-.23-.06c-.76.03-.29.05-.45.07.23,0,.46,0,.68-.02Z"/><path d="m63.65,11.26c-.72.02-1.48.04-1.55.11.65-.03,1.31-.05,1.55-.11Z"/><path d="m87.12,7.98c2.24.04,4.46.04,6.71.11.78.01,1.12,0,1.19-.03l.1-.09c-1.24-.03-1.65-.07-1.2-.11.21-.02.5-.04-.32-.06-.24,0-.62,0-.94,0-.32,0-.57,0-.57,0,.15.13-3.14.07-4.42.13-.26.01-.37.03-.55.05Z"/><path d="m133.96,9.27c1.52.08,3.05.18,4.53.18-2.56-.11-.46-.13-2.26-.23l-2.88-.16c.37.08,1.89.19.61.21Z"/><path d="m56.89,7.46c-1.22-.06-2.8-.07-4.45-.07.05.04-.18.08.22.11.54.04-1.63.09.34.1,1.36,0,1.09-.05.95-.1-.07-.02-.08-.09.81-.02,1.62.12,1.28-.04,2.13-.02Z"/><path d="m108.84,8.45l2.17.09c.28-.03,2.14,0,.5-.08-1.73-.09-2.32-.05-2.67,0Z"/><path d="m103.67,8.29c-.63,0-1.21.02-.83.05,1.16.09,2.49.05,3.77.09-.11-.09-1.78-.1-2.94-.14Z"/><path d="m64.74,7.74l2.87.02c-.16-.06-1.06-.09-2.21-.09-.89,0-.59.05-.66.08Z"/><path d="m32.92,7.55c-.2,0-.41,0-.62.01l-.08.06c.87-.01,1.94,0,2.34-.07h-1.63Z"/><path d="m111.57,8.55c.3.08,1.32.09,2.35.1l-.07-.06c-.77-.01-1.52-.02-2.28-.04Z"/><path d="m97.69,7.91c-.16,0-.3-.02-.45-.03l-.41.02c.19,0,.41.02.55.02.14,0,.21,0,.31-.01Z"/><path d="m59.12,7.46h-1.67c.21.02.37.05.65.05.81,0,.8-.03,1.03-.05Z"/><path d="m103.03,8.19l.7.07c1.09-.02.24-.05-.7-.07Z"/><path d="m113.85,8.59c.39,0,.96.03.96,0,0,0-.28-.02-.42-.03-.66-.02-.47,0-.53.02Z"/><path d="m95.13,7.98l-.1.09c.93-.01,1.01-.04.1-.09Z"/><path d="m75.43,7.62s.13.02.23.02c-.01-.01-.13-.02-.23-.02Z"/><path d="m30.75,7.64l-.03.03,1.49-.05c-.48,0-.97,0-1.46.01Z"/><path d="m100.84,8.16l-.16-.02c.06,0,.12.01.16.02Z"/><path d="m114.28,8.66l.21.04c.63,0,.5-.01-.21-.04Z"/><path d="m83.07,9.91c.87-.11,2.24-.24,1.23-.26-.43-.01-.95-.01-1.85.04-1.34.07-1.48.13-1.66.19.7.01,1.04.05.46.15-.27.05-.2.07.59.03.95-.05,1.09-.1,1.24-.14Z"/><path d="m21.69,13.35c1.93-.11,1.29-.15,1.46-.22-.72.03-1.72.11-1.83.04-.05-.03-.75-.04-1.39,0-.65.05-1.25.12-1.48.16-.38.08.87-.01,1.27-.02.77,0,1.33.01,1.97.02Z"/><path d="m58.74,11.14c-1.32-.09-3.75.1-6.06.26,1.69,0,3.6-.06,6.06-.26Z"/><path d="m60.53,11.03l-.74.05c-.13.02-.2.03-.38.05-1.38.12-2.3.22-.87.22.37,0,1.4-.04,1.23-.06-.42-.06,4.14-.35.77-.26Z"/><path d="m76.47,10.06l-2.08.11s-1.75.22.1.13c1.37-.06,2.32-.18,1.99-.24Z"/><path d="m66.63,10.69l-2.32.04c.06.04-1.19.15-.12.13.85-.02,1.76-.09,2.45-.17Z"/><path d="m26.12,12.95c.42,0,.68-.01.92-.02.26-.02.52-.04.79-.06-.22,0-.43,0-.67,0-.25.02-.55.04-1.03.08Z"/><path d="m62.75,10.82l-2,.14c-.09,0-.19.02-.29.03l.09.03c.9-.06,2.22-.12,2.2-.2Z"/><path d="m78.31,9.95c-.59,0-1.19,0-1.79.1l1.79-.1Z"/><path d="m30.47,12.55c.21,0,.31-.01.41-.02-.07,0-.15,0-.41.02Z"/><path d="m142.76,1.46c-.8.03-1.73.05-2.21.11-.36.12-2.79.12-3.76.22-.36.04-1.6-.03-2.14.07-.33.06.88.06,1.62.07.76.01,1.36,0,2.41-.07,1.32-.09,2.86-.18,4.04-.11.71.04,1.99-.05,2.74-.1,1.31-.08.25-.08-.52-.08-1.21,0-2.41-.02-2.18-.11Z"/><path d="m115.37,2.77c.06-.03-.15-.06.51-.11.17-.05,1.94-.12,1.06-.15-.31,0-1.01,0-1.47.01-1.55.06-.52.09-.86.14-.19.03-.33.05-.61.08-.55.05-2.18.13-1.57.15.71.02,1.87-.1,2.94-.12Z"/><path d="m120.63,2.45c.15,0,.3,0,.45,0l.42-.05c-.19,0-.4,0-.55.01-.14,0-.21.02-.31.03Z"/><path d="m156.48,1.06l.72-.02c-.23,0-.48.01-.72.02Z"/><path d="m160.8,10.32c.15.03.19.06,1.16.1-.13-.03-.59-.06-1.16-.1Z"/><path d="m188.31.26l-1.48.02s.32.1-.13.13c-.8.05-1.52.08-1.25.13.13.02.57,0,.75-.01.64-.06,2.77-.08,2.2-.17-.19-.03-.07-.06-.09-.1Z"/><path d="m192.6.28c-.45-.02-.48-.07-1.52-.06-.15,0-.51.03-.47.04.2.05,1.2.02,1.99.02Z"/><path d="m209.2.84c.06-.05.09-.2.01-.27-.04-.04-.09-.06-.12-.07-.06-.03-.12-.04-.18-.05-.11-.03-.22-.04-.33-.06,0,.01-.04.02.03.04.04,0,.1.02.2.05.05.01.12.03.2.05.04.02.08.03.14.08.04.04.05.12,0,.17-.03.04-.06.05-.09.07.03,0,.07,0,.11-.01Z"/><path d="m180.39.59l-.17.06c.85-.02.73-.05.84-.07h-.67Z"/><path d="m183.92.41l.26.04c.7-.04-.02-.03-.26-.04Z"/><path d="m136.23,9.23c1.8.1-.3.11,2.26.23.93.04,1.59.05,2.08.05,1.03,0,2.3,0,.38-.14-3.02-.22-3.16-.09-4.73-.13Z"/><path d="m148.37,9.68c-1.04-.04-2.7-.17-2.62-.09.03.03.44.1,1.63.13,1.14.04,2.82.08,2.88.06.13-.05-1.36-.07-1.89-.1Z"/><path d="m147.23,9.82c.81.07,1.32.12,1.91.15.75.04,2.08.1,2.13.06.03-.02-.46-.07-1.25-.11-.85-.03-1.69-.06-2.79-.1Z"/><path d="m157.17,10.12c.1.02.1.04.86.08.24.01.37,0,.54,0l-1.4-.07Z"/><path d="m144.36,9.58c.23,0,.09,0-.05-.01h.05Z"/><path d="m155.79,10.03l.33.02.33.02c-.22-.02-.44-.04-.66-.03Z"/><path d="m110.41,8.06c.15.05.9.02,1.95-.06,1.33-.11.8-.13.93-.19-1.3.08-1.34.19-2.88.25Z"/><path d="m93.78,9.33c-.04-.05.37-.14-1.4-.04.11.04-.24.11.6.09l.8-.05Z"/><path d="m110.4,8.06h-.16c.06,0,.11,0,.16,0Z"/><path d="m80.53,3.73l-1.32.04c.23.02-.44.09.62.05.6-.02.74-.06.7-.09Z"/><path d="m62.78,4.4c-1.19.04-2.4.09-2.39.17.88-.05,1.87-.11,2.39-.17Z"/><path d="m129.86,6.82c-1.46.13-2.97.29-3.37.17-.18-.06-2.04.1-3.11.15.59.04,1.06.09,1.79.12,1.57.06,4.43-.12,6.76-.41.29-.04.43-.07.79-.11,1.33-.12,1.41-.25.08-.2q-.55.02-.86.12c-.15.05-.1.09-1.11.16-.31.02-.65,0-.98,0Z"/><path d="m140.78,6.02l-.79.05c-1.38.22.78.18.72.3l2.17-.21c.2-.12-2.68.02-2.11-.14Z"/><path d="m137.16,6.64c.79-.05,1.6-.1,2.19-.17-.02,0,0-.01-.08-.01-.97.03-.8-.1-1.99,0-1.76.15.21.1-.12.19Z"/><path d="m133.3,6.79c-.21.03-.45.05-.43.05.07.01.22.02.35.03.09-.02.26-.04.27-.05,0-.02-.1-.02-.18-.04Z"/><path d="m122.83,7.58c.48-.02.97-.04,1.08-.09-.46.02-1.09.04-1.08.09Z"/><path d="m124.89,7.43l.3-.04c-.13.01-.26.03-.3.04Z"/><path d="m168.11,1l2.05-.06c.61-.15,4.04-.21,5.15-.34-.11-.04.17-.11-1.47-.06.7.05-.5.11-1.25.15-.92.05-1.37.01-1.71-.02l-2.08.05c-3.91.24-3.98.26-.68.28Z"/><path d="m170.88.68c.35.03.79.06,1.71.02.76-.04,1.95-.1,1.25-.15-1.12.03-2.52.04-2.97.13Z"/><path d="m160.67,1c1.98.11,2.6-.09,3.88-.14-1.58-.02-2.75.06-3.88.14Z"/><path d="m156.47,1.06l.75-.02c-.25-.02-.5-.02-.75.02Z"/><path d="m168.08,4.13c-1.42.1-1.49.15-1.6.21.22.05-.52.09-1.32.12-.44.1-.12.16-2.16.32-.41.11,1.82-.07,2.15-.04,2.88-.31,3.1-.47,2.93-.62Z"/><path d="m145.03,5.8l-.91.07c.51,0,.64-.04.91-.07Z"/><path d="m4.32,7.54c.34-.06.43-.1.53-.14-.73.06-1.46.12-2.18.18l-1.09.11c-.18.02-.36.05-.55.08-.05.01-.09.02-.15.04-.01,0-.03,0-.05.02l-.03.02s-.05.07-.04.11c.07.15.1.09.13.12.11.03.19.03.29.04,1.32.06,1.35-.02,1.4-.05-.39,0-.82,0-1.22-.03-.1,0-.19-.02-.29-.02-.07-.02-.24-.01-.19-.08.16-.06.31-.06.42-.07,1-.15,2-.23,3.01-.32Z"/><path d="m1.19,8.13c-.09,0-.18-.01-.29-.04-.03-.03-.06.03-.13-.12,0-.03.02-.08.04-.11l.03-.02s.04-.02.05-.02c.06-.02.1-.03.15-.04.19-.04.37-.06.55-.08l1.09-.11,2.17-.18.05-.07-2.51.19c-.42.04-.84.08-1.27.15l-.17.03s-.06.01-.1.03c-.01,0-.05.02-.08.04,0,0-.07.05-.09.15-.01.08.02.13.06.18.12.09.13.06.17.08l.09.02.17.02.64.03-.62-.13Z"/><path d="m4.32,7.54c-1,.09-2.01.18-3.01.32v.08c.98-.13,1.97-.21,2.96-.29l.05-.11Z"/><path d="m17.77,7.75s-.1-.07-.91-.06c-.36,0-.84.04-1.27.06.52.03,1.37.01,2.17,0Z"/><path d="m1.31,7.87c-.11,0-.26.01-.42.07-.05.07.13.07.19.08.09,0,.19.02.29.02.39.02.83.03,1.22.03-.22-.03-.56-.04-.94-.05-.19,0-.4-.02-.61-.04-.05,0-.11-.01-.14-.03-.02.04.06-.02.1-.02.1-.03.21-.04.31-.06Z"/><path d="m9.08,8.13s.68-.05.04-.06c-.07,0-.27,0-.33,0-.42.03-.17.04.29.05Z"/><path d="m196.87,2.11c-1.21.13-2.32-.02-3.61.29-.19.16,2.44-.12,3.65-.19-.02-.03-.03-.06-.04-.1Z"/><path d="m181.77,3.37l.29-.03c-.09,0-.18.02-.29.03Z"/><path d="m196.92,2.21h.16c-.06,0-.11,0-.16,0Z"/><path d="m30.75,7.64h1.47s.08-.08.08-.08c-1.03,0-1.53.03-1.55.08Z"/><path d="m54.45,4.79c-3.69.09-4.12.22-4.12.35l.8.11c2.75-.02,4.3-.23,6.44-.35.26-.13.07-.22-3.12-.11Z"/><path d="m19.51,6.66h-.31s.13.02.31,0Z"/><path d="m60.74,10.96l-.52.02h.23c.1,0,.19,0,.29-.02Z"/><path d="m26.54,6.33c-.25,0-.5,0-.76.01,0,0-.13.01-.21.02.31-.01.63-.02.97-.03Z"/><path d="m67.67,4.54l1.38-.02c-.1-.04-.16-.08-1.38.02Z"/><path d="m4.85,7.41l-.28.12c.71-.05,1.51-.11,1.62-.16.12-.05-.57-.02-1.35.04Z"/><path d="m172.5,3.9c-.08.04-.1.08.6.05-.08-.03.24-.09-.6-.05Z"/><path d="m176.02,3.85h-.15c.05,0,.11,0,.15,0Z"/><path d="m170.31,4.19c.15.01.14.05.5.04.46-.02.9-.08.75-.09-.3-.02,1.17-.2-1.05-.04l-.21.09Z"/><path d="m170.31,4.19l.21-.09c-1.1.09-1.01.11-.21.09Z"/><path d="m203.2.2c-.1,0-.19-.01-.31-.02-.01,0-.25,0-.27,0-.03,0,0,.02.02.03h.56Z"/><path d="m108.08,2.83l-.29.02c.11,0,.22-.01.29-.02Z"/><path d="m25.27,13.17l-1.12.08h.28c.3-.02.59-.06.84-.08Z"/><path d="m208.22,1.25c.23-.04.46-.08.7-.14-.08.01-.15.02-.22.02-.16.05-.32.09-.48.12Z"/><path d="m208.7,1.12c-.31.07-.62.11-.93.15.07,0,.26,0,.45-.03.16-.04.32-.08.48-.12Z"/><path d="m165.17,4.46c.79-.04,1.54-.07,1.32-.12l-1.32.12Z"/>
                  </g>
                </mask>
              </defs>
              <path class="mask" d="m0,14.25c32.25-1.5,77.44-3.84,131.63-7.48C177.27,3.7,209.25,1.56,209.12.69,208.77-1.51.71,6.7.87,7.96c.09.7,64.4-2.51,157.56,2.29,15.64.81,29.06,1.68,39.49,2.43"
                    mask="url(#path-mask)" stroke="black" stroke-width="2" fill="none"
                    stroke-dasharray="615.3023071289062" stroke-dashoffset="615.3023071289062">
              </path>
            </svg>
        