
            <svg xmlns="http://www.w3.org/2000/svg">
              <defs>
                <mask id="path-mask">
                  <g fill="white">
                    <path d="m249.37,8.9c-6.07-.03-2.21.1-3.42.15l-4.36-.08c-3.57-.09-7.73-.2-11.13-.28-6.97-.22-20.04-.25-25.62-.12-3.83-.04-6.25-.03-7.87.01-5.09-.08-12.68-.02-16.61-.15-1.08-.08-5.56-.17-1.8-.23,2.71-.04,5.65-.06,10,.01,3.59.06,6.85.07,8.88.02l3.37.02c4.18-.02,9.86.25,13.12.07,1.31.01,3.73.04,3.77.04,3.3-.15,11.04-.01,17.73.07l.1.05c-1.83,0-1.46.02.61.04.33,0,.68,0,1.05,0l.22.07c-.57,0-1.27,0-1.83-.01-.28,0-.52,0-.69,0-.17,0-.27,0-.27.01,0,0,.82.03,1.24.03,1.93.02,1.39-.01,1.59-.03l6.63.03c.54,0,1.09,0,1.64.01-.82.03-6.25,0-1.46.1,5.07.1,6.78.05,7.82,0,.96-.06,3.11-.05,6.52.04.32.1,5.22.13,8.61.18l-.17.03c-3.19.01-.7.05,2.05.09,3.72.11,4.06.02,6.4.05l.48.02-.54-.02c.22-.06-1.18-.15,5.59-.03,4.21.07,7.82.1,7.09,0l4.18.05,3.66.17c-2.28-.03-3.28-.02-3.47,0-2.73,0-2.96.03-.29.1,3.62.06,4.82.11,3.53.15-.61.02-1.46.04.94.08,1.4.01,4.37.04,4.42.04-.44-.16,9.17-.01,12.91-.04.76-.02,1.08-.02,1.61-.04l.66-.03c8.56.14,17.55.36,25.26.39,1.95,0,4.67.1,6.6.16,3.49.11,5.84.14,7.74.12l16.49.42.3.05c.45.08,3.1.17,6.46.24,2.59.05,1.74-.02,1.93-.04,9.17.21,18.33.42,27.94.63l-.38-.02c.12-.01-.61-.06,1.2-.01.52-.01.71-.04,3.07.03-.82.08,3.75.23,7.48.35,8.03.26,17.36.61,24.4.79,4.87.12,8.16.24,12.9.42,2.87.12,1.28-.02,1.52-.04l6.9.3,3.45.19c.58.04,1.14.07,1.75.15l.13.02.09.02s.19.08.22.22c.05.14.01.17-.03.27-.05.09-.16.15-.23.17-.04,0-.03,0-.05,0h-.07s-.13.02-.13.02l-.44.02h-.87s-13.81.05-13.81.05l.04-.07c1.82-.05,1.38-.09.49-.13-1.54-.08.8-.12,5.73-.13l4.35-.05c1.3,0,2.73-.02,3.98-.03.16,0,.31-.01.46-.02.08,0,.15-.01.22-.02.03-.03.03.04.02.03-.03,0-.06-.02-.1-.02-.28-.04-.55-.06-.79-.08-.49-.03-.9-.05-1.19-.05l1.19.09.59.06c.09.01.2.03.28.05.01,0,.03.02-.01-.02,0-.05-.01-.06,0-.09.06-.05,0-.01-.01-.02h-.14c-.79.04-1.59.03-2.38.03-.6-.03-3.42-.06.23-.11.48,0,.95,0,1.43.01.24,0,.48,0,.71-.01h.16s.02-.01.02-.01c-.02,0-.05.02-.08.05-.02.03-.03.07-.02.1,0,.03,0,.11.05.14.07.04-.01,0-.01,0-.11-.02-.23-.03-.35-.05-.96-.09-1.94-.14-2.93-.17l-6.86-.32c-2.81-.24-8.37-.54-14.48-.82-4.32-.07-10.63-.21-11.53-.12-6.03-.2-12.05-.41-18.14-.54-.15-.05.53-.08-.64-.14-1.57-.08,4.76.03-.98-.13-3.98-.11-3.2-.03-2.77.03.2.03.22.11-2.37-.04-4.74-.26-3.75-.05-7.84-.18-.62-.04-1.07-.08-1.89-.1-2.37-.07-2.35-.03-3-.02-7.71-.19-15.21-.37-23.42-.57-4.26-.13-6.54-.07-7.81-.02l-37.85-.76s.43-.04.02-.07c-1.16-.08,4.9-.08-1.64-.21-5.79-.11-.8.09-1.63.13-.25,0-2.16-.02-3.31-.02-10.67-.15-22.19-.32-33.26-.47-3.23-.05-8.47-.03-11.03-.18-2.93-.15-22.04-.53-28.18-.55Zm36.65.62l1.21-.02c-.55-.01-1.19-.02-1.61-.03-.41,0-.61,0-.91.01.46.01.89.03,1.32.04Zm62.9.97c.24,0,.57.01.86.02-.04-.02-.37-.02-.86-.02Z"/><path d="m192.02,2.07c-14.14.15-28.08.3-42.14.45-1.89-.18-10.96.09-16.83.16-1.18-.02-1.04-.16-7.31.09-3.8.14-9.29.33-14.17.51-3.91.13,8.11-.59-6.2.11-2.1.08-5.04.24-5.34.19-.15-.03-2.19.03-4.05.13-1.91.1-3.66.25-4.33.32-1.11.12,2.56-.11,3.7-.14,2.25-.06,3.87-.1,5.75-.15-1.14.11-6.29.33-6.01.39-1.58.03-5.14.22-8.3.41-1.58.09-3.06.17-4.15.23-1.09.06-1.78.08-1.78.04,0-.02.28-.06.73-.11.45-.04,1.07-.1,1.74-.17,1.35-.13,2.94-.27,3.9-.36,1.97-.21,10.5-.69,17.28-.97,3.06-.11,5.96-.21,9-.32,2.94-.11,6.54-.16,8.69-.29,2.29-.14-5.81.16-4.32.04,4.66-.21,9.56-.41,14.97-.44.42.11,1.84.18,9.93-.06,6.03-.17,13.64-.16,19.45-.32l2.24-.03h4.25c7.14.06,14.81,0,23.15-.21,4.94.04,10.53.02,17.73-.14l3.06-.04c-.36.01-.59.02-1.12.04-4.06.09-6.76.18-2.58.21,1.09,0,4.1,0,3.59-.04-1.21-.07,12.13-.28,2.34-.27,1.32-.02,2.94-.05,4.23-.07,1.29-.03,2.25-.05,2.22-.09l4.58-.06c.16.04-3.5.14-.38.13,2.47,0,5.15-.06,7.17-.13l2.89-.04c5.93-.07,6.3,0,7.14.07.49.04,1.89.05,4.72.01,1.05-.02,2.71-.06,3.04-.08.93-.06-1.37-.04-3.18-.03-6.53.03,5.24-.22-.44-.21,1.41-.1,5.07-.14,8.49-.2l.05.05c-.06.05-5.15.2.26.14,4-.04,6.8-.15,5.99-.22l5.25-.08,7.26-.03c2.03.03,3.04.08,1.31.17-.8.04-.6.07,1.7.04,2.78-.03,3.21-.08,3.64-.12h3.9s.09.1.09.1c-6.6.07-14.05.23-18.48.15-1.68-.03-4.12.04-4.52.1-.29.05.24.08-2.56.15-11.45.27-23.24.46-35.35.55-7.37-.04-22.72.16-31.92.42Zm-75.23.87c.78-.03,1.54-.07,2.3-.1-.65.01-1.25.02-1.97.04-.75.03-1.62.07-3.03.13,1.23-.03,1.98-.05,2.7-.06Z"/><path d="m2.24,16.13c-.64.15-1.35.28-1.75.55-.02.04,0-.04,0,0,.05.03.08.06.15.08.12.05.26.08.39.12.27.06.53.11.79.15,1.04.16,1.96.24,2.79.32,1.67.15,3.01.25,4.42.35,1.41.09.49.16,4.87.27,3.54.08,2.73-.01,2.07-.08-.63-.07-.98-.13-1.45-.2,4.33.12,8.66.2,12.98.26.02.03-.35.06.02.09.36.03,1.46.06,4.4.09,4.45.04,6.47.09,6.31.16-.49.04-5.68,0-3.12.09.9.03,2.96.07,4.31.08,4.53.02,1.52-.07,2.52-.1.55-.02.97-.03,1.8-.05,1.63-.02,6.39-.02,4.6-.08-2.06-.06-5.47,0-8.6-.03v-.11c12.31.04,24.26.09,36.05.13-1.93.12-3.18.26-13.32.17-1.68-.02-4.38-.01-5.07.03-.73.05,1.36.06,3.67.07.75.06,1.5.12,1.96.19l-3.35.03,2.7.05c-8.02.07-15.51.03-22.56-.12-1.84-.08-5.43-.19-9.11-.17-7.06.07-19.8-.41-24.5-.53-1.72-.14-3.44-.22-5.22-.58-.23-.06-.44-.09-.74-.27-.05-.02-.21-.16-.24-.35-.01-.28.14-.38.19-.44.15-.12.26-.16.38-.21.46-.18.89-.27,1.33-.37.88-.19,1.75-.33,2.63-.47,3.52-.52,7.07-.9,10.58-1.25-.28.15,5.11-.35,9.6-.76,4.01-.37,6.39-.54,9.4-.74-1.04.19-8.15.66-10.97.99-1.06.12-4.67.33-6.24.56-.97.14,2.55-.15,4.73-.3,2.22-.15,3.96-.29,7.02-.58,3.85-.36,8.33-.73,11.79-.86,2.08-.08,5.81-.39,8-.56,3.83-.3.72-.13-1.51,0-3.54.19-7.03.39-6.37.25l2.25-.19c3.97-.13,11.6-.7,18.09-1.08,2.52-.15,8.32-.54,6.62-.3-.41.05,7.45-.45,7.67-.5.47-.1,2.58-.22,5.43-.37l2.1-.11c3.92-.24,8.58-.53,6.97-.3-1.97.18-1.9.18,1.43.03,1.47-.06,3.41-.14,3.73-.13,1.12.02-4.8.3-5.74.4-5.98.32-12.29.75-17.37.9-1.3.04-5.11.31-4.87.31,1.05-.01-7.2.5-1.39.22-.24.05-.89.09-3.27.23-7.81.46-15.64.91-23.58,1.55-1.14-.2-10.04.68-15.19,1.12-5.97.53-10.38,1.01-16.69,1.78.37-.06.92-.16,1.38-.23.23-.04.44-.07.59-.1.15-.03.24-.05.24-.05s-.1,0-.32.02c-.22.03-.58.07-1.09.12-1.03.14-2.73.32-5.32.83Zm20.81,1.98h-1.23c.55.02,1.16.04,1.61.05.4,0,.61,0,.92,0-.45-.01-.88-.03-1.3-.04Z"/><path d="m46.21,12.69c-7.51.75-16.67,1.81-23.47,3.36-.75.15-1.56.3-2.4.48-.83.22-1.71.45-2.61.68-.45.12-.91.24-1.37.36-.45.16-.92.32-1.38.48-.92.34-1.89.63-2.82,1.03-.93.39-1.87.82-2.76,1.34-.45.25-.88.54-1.28.87-.41.32-.78.71-1.06,1.18-.28.46-.38,1.11-.13,1.62.24.49.6.88,1,1.19.8.61,1.68,1.02,2.54,1.35,1.97.72,2.77.87,4.22,1.19,2.24.46,3.67.57,3.9.55.23-.03-.74-.13-3.21-.63-5.16-1.13-6.65-2.14-7.55-3.04-.11-.13-.25-.25-.34-.43-.05-.09-.1-.17-.16-.27-.04-.1-.06-.21-.09-.31-.1-.44.09-.99.56-1.49.96-1.01,2.67-1.91,4.96-2.9.51-.22,2.47-.9,3.3-1.19,1.03-.33,2.08-.57,3.11-.85.52-.13,1.03-.28,1.55-.4l1.57-.33c1.04-.22,2.08-.44,3.12-.65l3.14-.54c4.18-.71,8.37-1.24,12.62-1.72,9.78-1.07,19.6-1.73,29.43-2.28,9.83-.54,19.67-.93,29.5-1.27l-.05-.06c-1.66.06-3.01.1-3.39.09-2.92.12-6.42.26-8.84.36-5.82.26-12.96.58-17.57.79-1.38.06-7.07.32-12.92.73-2.93.18-5.89.45-8.38.64-2.48.24-4.49.44-5.51.53-.67.07-1.38.15-1.27.15.98-.03-2.78.36-4.5.55-2.06.2-3.32.39-5.1.6-.51.07-1.55.2-2.43.34-.88.15-1.59.27-1.44.23.19-.05,1.99-.39,4.45-.72,5.11-.78,12.4-1.45,13.06-1.61Z"/><path d="m220.21,4.51c-5.14.11-11.24.22-14.63.38,1.48-.02,3.38-.04,4.4-.06,3.97-.11,7.71-.22,10.62-.17,2.39.04-.97.13-3.39.23-4.28.17-7.58.19-11.06.2-2.17,0-5.81.07-7.58.14-6.06.25-8.76.21-12.37.25-2.31.06-5.23.15-5.82.11-.12,0,.94-.06,1.37-.08,3.03-.08,3.12-.03,4.45-.03l6.48-.35c-4.27-.05-9.82.19-15.04.37.14.05-.2.1-3.98.22.06.03-.28.08.27.1,1.66.05-4.58.22-6.45.33-.51.03-1.8.08-2.18.06-.79-.03,1.31-.12,3.65-.22,1.33-.06.33-.1.39-.14-2.07.11-7.97.22-8.56.34.76-.01,2.85-.07.81.02l-.75-.02c-3.01.07-1.17-.08-4.91.05-1.31.05-2.38.16-3.56.24.05.03-.4.07-2.19.15.09,0,.2.01.33.02l1.97-.06c3.28-.05,13.57-.33-.41.19-.91.03-1.34.09-1.99.14,6.02-.21,12.33-.47,17.79-.53.67-.02,8.75-.3,14.16-.49,1.49-.08,3.32-.14,6.57-.23,9.5-.22,19.42-.44,28.51-.65,3.65.05,10.19-.19,14.05-.18,3.77,0,6.8-.01,11.49-.12,3.18-.07,5.46-.1,6.97-.1,1.51,0,2.23.04,2.3.1l10.48-.09c-.48-.07,2.4-.13,4.5-.19-4.8-.07-9.78-.13.37-.28,1.3-.02.45-.04-.85-.05-4.1.09-10.1.03-13.57.12-7.98.22-6.39.06-7.46,0l-2.22.03c-.21.04-1.41.08-3.94.11-.3.06-1.99.1-4.45.13l.19.06c-1.22.01-1.73.01-1.94,0-.21,0-.11-.03-.11-.04-4.76,0-11.95.11-12.7,0Z"/><path d="m165.28,8.16c-2.72,0-4.65,0-6.08.05-3.02.09-6.72.21-1.1.2,8.84.09,9.23-.04,13.82-.07l8.43.09c3.94.13,11.52.07,16.61.15l.1.08c-4.88-.04-10.54.02-14.2-.07-4.61-.11-9.39-.11-14.78-.11-10.6-.09-21.22.23-31.86.49-10.64.32-21.3.63-31.97.95-.38-.02-.35-.06,2.3-.17l4.1-.13,2.11-.04c.64,0,1.28-.02,1.92-.06,13.48-.44,15.35-.51,10.22-.5-.16,0-.2,0-.3,0-11.91.45-15.08.3-26.72.76-4.84.19-11.27.45-12.57.41,3.18-.13,6.74-.36,7.8-.35,2.01.01,5.34-.16,8.58-.27,11.57-.36,22.86-.72,34.75-1.09,8.47-.22,17.07-.46,25.73-.47,8.66.03,17.36.06,26.03.1,3.45.01,8.94.02,9.21.12-2.03.06-5.29.04-8.88-.02-4.35-.07-7.29-.06-10-.01-4.46-.05-8.93-.1-13.28-.04Zm-21.23.47s-.37-.03-1.12-.03c-.75,0-1.92.02-3.64.07-3.34.1-8.24.28-8.43.32-.37.08,3.98-.11,5.55-.13,3.05-.09,7.91-.14,7.65-.23Zm-9.92-.02c-2.19.06-6.08.17-6.23.23-.08.03,1.34.02,3.67-.05,2.5-.08,4.93-.15,8.16-.25-2.39.03-3.86.02-5.6.07Zm12.88-.11l1.28-.02h-.16c-.95.02-1,.02-1.11.02Z"/><path d="m306.13.64c5.26-.04,9.36-.03,15.29.05,8.61.11,19.34.29,29.11.54,4.89.15,10.12.3,14.71.44l.05-.1c-1.08-.09-3.86-.26-.55-.16,9.78.3,8.48.06,15.25.25-3.61-.15-6.8-.25-9.63-.32-.36,0-.68-.02-.93-.03-.38.04,1.16.15-2.75.04-3.07-.09-5.26-.18-5.7-.26l-.51-.03.47.03c4.54.19,4.69.08,8.44.22.23,0,.33,0,.28,0-4.3-.27-9.56-.34-14.26-.5-6-.07-12.35-.22-18.76-.46-1.91-.06-3.17-.12-5.32-.09-3.3.04-8.09-.04-12.7-.11-6.59.05-3.55.16-1.95.27.42.03,1.8.07-.52.07-1.98,0-3.14-.03-3.95-.06h-2.35c1.23.08-5.02.13-3.73.21Z"/><path d="m156.47,18.11c4.17.02,8.51.02,14.25-.09,7.17-.18,14.78-.28,22.89-.29,1.54-.07,4.42-.11,7-.16l4.3-.02c-.51-.03-1.3-.08-1.5-.08-7.86.05-13.15.09-20.73.14-5.51.07-10.55.12-12.05.02-.05,0-.6,0-.91,0-1.04.02-2.08.05-3.13.07.92.12-4.64.17-8.89.2-13.95.1-27.97.3-42.12.33-8.53.02-9,.05-4.93-.11,1.23-.06,2.05-.1,3.06-.15-8.11.08-17.53.07-24.08.24,1.53,0,3.01,0,4.6.01,2.6,0,6.35-.11,7.49-.03.47.03-3.63.11-6.22.16-1.38,0-3.99.03-6.05.04-1.72,0-3.6.01-4.43.05-1.08.05.72.06,2.5.08,2.79.02,3.54.09,7.88.07,5.48.05,11.51.06,18.72-.03,8.23-.17,17.86-.24,27.55-.33-.13-.03.3-.07,2.05-.09,3.08-.03,1.12.04,1.79.06,4.09-.14,8.32-.32,10.93-.09Z"/><path d="m110.66,9.63l2.11-.04.96-.03.96-.03c13.48-.44,15.35-.51,10.22-.5-.16,0-.2,0-.3,0-11.91.45-15.08.3-26.72.76-4.84.19-11.27.45-12.57.41-3.51.19-9.78.45-12.41.67,3.35-.12.06.13-1.7.22-5.16.28-2.02.04-2.75.04-.15,0,0-.02.01-.03-3.94.15-10.66.66-15.07.98-2.72.23-5.11.44-7.19.62-.68.17-7.97.84-13.08,1.62-2.46.33-4.26.66-4.45.72-.15.04.56-.08,1.44-.23.88-.14,1.92-.28,2.43-.34,1.78-.21,3.03-.4,5.1-.6,1.72-.18,5.48-.58,4.5-.55-.11,0,.6-.08,1.27-.15,1.01-.1,3.02-.29,5.51-.53,2.49-.19,5.45-.46,8.38-.64,5.85-.41,11.55-.67,12.92-.73,4.61-.21,11.76-.53,17.57-.79,2.42-.1,5.91-.24,8.83-.36,2.84-.13,2.97-.1,3.4-.09l.05.06,4.17-.14c-.38-.02-.35-.06,2.3-.17.52-.03.9-.07,1.59-.09,2.21-.08,2.22-.05,2.51-.04Z"/><path d="m398.87,2.57l.14.05c1.7.17,3.06.31,5.18.53,4.55.42,12.91.93,19.76,1.27.85.04,1.28.06,2.33.11,3.89.26,4.16.15.29-.19q-1.61-.14-2.54-.12c-.43,0-.32.06-3.26-.13-.9-.06-1.9-.17-2.85-.26-5.54-.38-5.17-.44-6.42-.59,6.33.33,12.8.76,19.31,1.31-2.7-.1,3.69.42,6.71.81,1.1.09,2.19.19,3.29.32.56.09,1.09.13,1.68.35.03.04.13.01.13.24-.07.14-.13.13-.17.16-.08.03-.16.04-.23.06-.14.02-.29.04-.43.05-.28.03-.56.04-.84.06-1.12.05-2.23.06-3.34.07-.1-.01-.13-.02-.08-.03,4.06-.14-2.25-.24-2.05-.38,1.34,0,2.68.01,4.02,0,.07,0,.01.01.22.01,1.41-.02,2.02.02,2.62-.08h.03s0,0,.02.02c.02.02.06.02.04.02-.1.07-.04.02-.1.01-.07-.03-.15-.06-.24-.09-.18-.05-.38-.1-.62-.15-.48-.09-1.09-.19-1.96-.29-5.12-.54.58.18-.4.14l-2.39-.17c-9.69-.93-19.65-1.5-29.15-2.12l-4.13-.23-.17-.08.88.03c-.38-.02-.76-.03-1.15-.05-.87-.05-1.73-.09-2.6-.14-1.33-.08-3.19-.2-3.15-.14l-4.2-.17.58.02.64.04c-2.88-.23-10.04-.55-12.07-.77-.96-.11-10.01-.36-14.93-.48-.82-.01-1.34-.02-2-.03-1.08-.09-3.86-.26-.55-.16,9.78.3,8.48.06,15.25.25,6.53.23,12.83.53,18.86.91Zm27.78,2.1c.18.03.64.09,1,.13.14,0,.33.01.49.02s.29.01.29,0c.02-.02-.29-.06-.52-.09-.61-.03-1.32-.08-1.27-.07Z"/><path d="m173.65,5.73c3.78-.12,4.12-.17,3.98-.22l-3.54.09-2.73.09c-6.8.18-13.35.35-20.56.65-2.94.12-7.19.28-10.71.37-3.85.1-11.13.39-12.37.45-13.07.6-25.69,1.17-38.23,1.75-4.6.21-7.5.43-11.28.63-19.26,1.07-38.52,2.25-57.75,3.93-2.06.18-4.18.37-5.36.53-.28.15,5.11-.35,9.6-.76,4.01-.37,6.39-.54,9.4-.74,1.4-.15,4.1-.34,6.45-.52l2.25-.19c3.97-.13,11.6-.7,18.09-1.08,2.52-.15,8.32-.54,6.62-.3-.41.05,7.45-.45,7.67-.5.47-.1,2.58-.22,5.43-.37.69-.07,1.42-.11,2.14-.11,3.88-.24,8.54-.53,6.92-.3,1.05-.05,2.12-.11,3.18-.16,3.32-.22,6.74-.44,11.35-.59,3.81-.26,7.51-.55,12.41-.58l6.08-.25c1.32-.14,5.39-.28,8.68-.41,4.81-.19,3.97-.1,4.3-.06,5.56-.34,11.12-.51,16.68-.61,1.18-.08,2.25-.19,3.56-.24,3.73-.13,1.9.03,4.91-.05.53-.12,6.42-.23,8.5-.34l4.32-.12Z"/><path d="m399.64,5.44c-2.98-.13-6.26-.24-10.7-.27,2.52.11,5,.23,2.01.24-2.36,0-4.14-.13-6.68-.16-3.32-.19-5.22-.15-7.43-.13-2.52.02-4.98,0-6.68-.14-5.99-.09-5.08.02-6.15.08.89.1,5.73.21,8.08.32,3.99.15,9.29.27,14.33.35,3.79.05,7.07.12,10.71.22,3.71.04-.13-.18,6.29-.04,4.76.11,3.97.18,4.72.25l4.23.09c-.3-.06-.87-.13-.81-.18.02-.02.52-.02,1.24,0,.72.01,1.66.03,2.58.05,1.59.04,2.78.08,1.87.09-1.35,0-5.06-.04-1.14.08.98.03,4.43.04,6.74.06.73,0,1.12-.02,2.61.04l-2.66-.04c1.6.18,6.89.28,12.44.29,1.7-.09-6.73-.27-6.12-.39-9.11-.11-9.01-.22-8.31-.31-3.66-.09-6.66-.17-10.43-.26.54.14-3.51.16-9.82,0-8.74-.22,2.82-.05-.19-.18-.42-.02-.49-.03-.72-.05Z"/><path d="m386.77,15.01l3.44-.03,6.65-.1,2.45-.03c-.06,0-.13-.02-.21-.03-1.44,0-2.16-.01-.93-.05.18,0,.77-.01.97-.01,1.89,0-.11.04-.12.06,3.47-.03,6.03-.07,7.65-.14,2.57-.11,5.89-.15,8.55-.15,1.33,0,2.49.01,3.32.01.82,0,1.3.02,1.26.03-.52.14,4.98.08,8.96.08,5.02-.09,10-.18,15.09-.27,2.23-.04,6.52-.06,5.3-.12-1.01-.05-5.68.04-6.85.03-3.65-.03-9.3.2-11.35.07-2.78.01-6.07.05-6.5-.02-2.35.02-4.84.05-6.35.02-5.14.03-10.33.07-15.43.1-10.1.13-18.84.24-29.04.37v.08c2.5-.04,5.11-.08,6.42-.04-.16.05-.25.1-4.08.15l1.81.08,8.96-.1Z"/><path d="m266.41,4.1c1.3,0,2.15.04.85.05-10.16.15-5.17.21-.38.28,1.3,0,2.61-.02,3.92-.03l-.08-.11h-.49s.46,0,.46,0c3.56.02,11.28-.07,10.69.09,5.9-.02,11.25.12,17.82.03.94-.01,5.06.05,5.26.11l6.22.05c2.71-.08,10.56-.05,9.05-.2.07,0,1.35,0,2.08,0,4.61.25,6.56,0,10.19.08-.02-.01-.02-.02-.01-.04-10.64-.31-13.18-.13-16.93-.04h-.81s.87,0,.87,0c-2.14-.03-6.04-.09-6.14-.09-1.06-.28-8.84-.14-15.13-.14-6.56,0-14.13.06-19.92-.04-2.85-.02-2.42-.12-7.39-.09l-.12.08Z"/><path d="m280.84.6h3.9c9.54-.1,9.41.03,8.41.16,3.14.01,2.98-.06,4.51-.08-2.82-.14,1.85-.34,10.51-.38-1.99-.08-2.15-.17,0-.26-2.19-.09-4.03-.02-5.93.02,1.26.01,1.58.04-.13.05-2.34.02-1.96-.02-2.19-.05-5.04-.1-12.47.07-17.84.15-8.79.12-18.38.21-26.71.43l.05.05c2.04-.02,4.07-.05,6.1-.07,1.92-.09,3.66-.09,5.39-.08l7.26-.03c.52-.06.97-.12,4.88-.16,2.64-.03,4.15-.01,5.4.01,2.93.05-1.07.15-3.63.25Z"/><path d="m430.98,14.36c2.05.13,7.69-.09,11.35-.07,1.17,0,5.84-.08,6.85-.03,1.22.06-3.08.08-5.3.12-5.1.09-10.07.18-15.09.27l1.83.05,2.45-.02c6.79-.16,15.42-.21,23.06-.24,1.82-.05,1.38-.09.49-.13-1.54-.08.8-.12,5.73-.13l.09-.04s.42-.05,1.17-.06c.75,0,1.87,0,3.38-.02.62,0,1.22,0,1.81-.01-.6-.03-3.42-.06.22-.11l-.18-.04c-6.03,0-12.06.01-18.09.02-6.04.06-12.08.12-18.14.18,1.94.06,5.52.12-1.61.25Z"/><path d="m257.79,16.87c2.5-.04,2.27.11,6.72-.07,3.33-.14,6.49-.07,9.8-.15.93-.16,5.43-.2,10.17-.22,4.01-.02,7.31-.09,10.34-.19,3.13-.1,4.51-.18,1.2-.19-4.45.06-8.55.07-13.32.18-14.88.32-16.52.35-28.45.42-.29,0-.85,0-.93,0-6.07.23-15.32.18-21.51.4.59.06.66.12,4.86.09.14-.05,1.13-.07,4-.11,6.05-.06,11.72-.12,17.13-.17Z"/><path d="m430.98,14.36c7.13-.13,3.56-.18,1.61-.25-4.7,0-7.85-.04-14.58.12-4.85.12-14.55.13-22.32.2-10.45.12-21.41.24-31.96.36-4.62.04-7.69.08-7.18.18.5.09,4.23.04,8.42-.03,2.9-.04,5.8-.08,8.7-.12,10.21-.13,18.94-.24,29.04-.37,5.1-.03,10.28-.07,15.43-.1,1.25-.03,2.64-.06,3.7-.08,2.35-.01,2.56.03,2.65.06.43.06,3.71.03,6.5.02Z"/><path d="m315.06,4.38c3.75-.1,6.29-.27,16.93.04,2.84.02,5.69.03,8.52.05,2.26,0,4.62,0,4.04-.06-3.99-.15-9.21-.14-13.59-.18-16.7-.17-33.39-.3-50.2-.22-4.49.02-5.12.06-6.84.11,5.79.1,13.36.04,19.92.04,6.3,0,14.07-.14,15.13.14.1,0,4,.06,6.08.09Z"/><path d="m113.73,17.96c-1.01.05-1.83.09-3.06.15-4.08.17-3.6.13,4.93.11,14.15-.03,28.17-.23,42.12-.33,4.24-.03,9.81-.08,8.89-.2-7.91-.06-16.56.05-26.07.21-6.13.1-10.82.11-9.64-.04-6.17.11-11.3.05-17.16.1Z"/><path d="m231.8,17.05c6.19-.22,15.44-.16,21.51-.4.07,0,.64,0,.93,0,11.93-.07,13.57-.09,28.45-.42,4.78-.1,8.87-.12,13.32-.18-1.89-.09-3.96-.18-11.28-.12l-5.37.16c-1.98.11-5.02.15-9.34.2-5.25.08-11.62.17-16.16.24-9.18.12-17.34.39-26.09.42l2.32.13c.59,0,1.16-.01,1.72-.02Z"/><path d="m339.19,15.27c-2.75.15-4.98.29,6.04.16,3.55-.04,1.31.04,1.05.07-5.42.14-11.41.18-15.28.18-9.83,0-12.06.14-14.17.3l-2.01.03c-6.46.01-17.08.14-7-.2,1.82-.06,1.77-.12,2.59-.18,5.57-.07,11.15-.15,16.7-.22,3.6-.04,6.31-.08,6.67-.16l6.2-.07c-.24.03-.15.06-.78.1Zm-17.75.33c-.22,0-.58.01-1.11.02.31,0,.61-.01,1.11-.02Z"/><path d="m95.1,4.12c-1.58.03-5.14.22-8.3.41-1.58.09-3.06.17-4.15.23-1.09.06-1.78.08-1.78.04,0-.02.28-.06.73-.11.45-.04,1.07-.1,1.74-.17,1.35-.13,2.94-.27,3.9-.36,1.97-.21,10.5-.69,17.28-.97,3.06-.11,5.96-.21,9-.32,2.94-.11,6.54-.16,8.69-.29,2.29-.14-5.81.16-4.32.04-9.98.21-22.39.92-32.72,1.41-3.26.15-2.53.22-5.15.39-2.53.2,8.84-.44-.49.17-3.12.3-11.32.93-10.07,1,1.94-.12,4.45-.27,5.69-.35,3.13-.14,3.07.04,11.01-.6.08,0,2.87-.12,4.65-.2,5.19-.27,10.11-.52,14.48-.75-1.5-.09-7.27.33-10.2.43Z"/><path d="m67.29,5.3c-2.58.17-4.45.3-5.79.35-3.37.14-9.73.59-14.7,1.11-4.44.45-8.45.93-8.93,1.09-.89.3,4.68-.2,17.12-1.24,3.04-.25,6.83-.49,10.27-.71,3.76-.36,2.31-.36-1.78-.12-4.14.24-7.93.59-10.86.91-1.08.11-6.04.58-5.62.46.37-.11-2.51.08-.69-.15,1.11-.14,1.65-.24,5.02-.54,3.5-.3,5.03-.38,5.44-.35.43.02.95.02,4.84-.28,1.89-.15,3.31-.27,4.27-.35.95-.08,1.42-.14,1.41-.18Z"/><path d="m227.75,16.94c8.75-.03,16.92-.3,26.09-.42,4.55-.07,10.91-.16,16.16-.24,4.31-.05,7.36-.09,9.34-.2-7.38-.07-18.41.2-27.52.34-6.8.11-13.67.22-20.5.33-6.83.08-13.61.16-20.23.18l-1.09.06c1.97.03,8.87.01-1.66.17-3.44.05-5.39.13.54.09,6.25-.1,10.82-.31,18.85-.3Z"/><path d="m251.91,4.72c-.07-.06-.8-.09-2.3-.1-1.5,0-3.79.02-6.97.1-4.68.11-7.72.13-11.49.12-3.85-.01-10.4.23-14.05.18-9.09.21-19.01.43-28.51.65-3.25.09-5.08.15-6.57.23,8.74-.18,18.19-.37,28.38-.58,6.49-.14,13.09-.26,20.17-.32,6.17-.08,14.15-.18,21.33-.28Z"/><path d="m221.36,1.17l4.58-.06h6.78c.96,0,1.93-.02,2.9-.03,3.14-.07,6.27-.14,9.4-.21-5.54-.11-16.58.11-24.51.21-15.76.2-31.68.41-47.53.61l-4.23.08c7.14.06,14.81,0,23.15-.21,6.75-.11,13.88-.27,17.72-.14,1.02-.01,2.04-.03,3.06-.04.73-.01,1.45-.02,2.18-.04-.03-.03-.12-.04-.21-.05-.22,0-.44-.01-.66-.02h1.51s5.87-.11,5.87-.11Z"/><path d="m435.12,12.75c-6.03-.2-12.04-.41-18.14-.54-4.82-.13-9.44-.26-13-.42-3.24-.08-4.87-.12-6.5-.16-7.71-.19-15.21-.37-23.42-.57-4.26-.13-6.54-.07-7.81-.02,23.23.54,46.47,1.13,69.71,1.81l-.85-.09Z"/><path d="m346.27,15.49c-5.42.14-11.41.18-15.28.18-9.83,0-12.06.14-14.17.3,16.17-.17,32.35-.31,48.51-.63,3.91-.08,6.35-.03,9.52-.08,4.38-.07,11.11-.12,11.93-.25l-8.96.1-14.72.16-16.82.23Z"/><path d="m275.43,9.14c.22-.06-1.18-.15,5.59-.03,4.21.07,7.82.1,7.09,0-17.33-.32-34.67-.59-52.67-.67l.1.05.61.04c.33,0,.68,0,1.05,0,3.01,0,6,.02,6.88.1.54,0,1.09,0,1.65.01l6.35.1c.96-.06,3.11-.05,6.52.04,3.74.05,7.63.02,11.03.13,1.12.04-.57.05-2.42.05l-.17.03,2.05.09c3.72.11,4.06.02,6.35.05Z"/><path d="m314.8,16c-6.46.01-17.08.14-7-.2,1.82-.06,1.77-.12,2.59-.18-3.08.03-2.06-.03-2.25-.05l-4.13.07c1.28.06-4.06.18-4.2.25l2.77-.03c-.21,0-.58.02-.6.02-.76,0-1.5,0-2.23,0-3.67,0-1.42-.1-2.19-.15-4.17-.03-8.43.03-12.83.19,7.32-.06,9.39.03,11.28.12,3.32.01,1.94.09-1.19.19-3.02.1-6.33.17-10.34.19-4.73.02-9.23.06-10.17.22,10.65-.16,21.52-.32,32.03-.47,4.15-.03,6.33-.1,8.47-.17Z"/><path d="m208.9,17.25c-5.93.05-3.98-.04-.54-.09,10.53-.15,3.62-.13,1.66-.17-1.81.09-5.09.08-7.63.12.28.04-1.65.13-3.21.13-7.69,0-13.14.21-19.84.27-3.58.1-3.77.05-4.05,0-3.62-.02-4.52.04-5.58.1.32,0,.87,0,.92,0,1.5.1,6.54.05,12.05-.02,7.58-.05,12.86-.09,20.73-.14.2,0,.99.05,1.5.08l8.22-.03h4.36s.51-.12.51-.12c-9.32.09-9.86-.01-9.1-.15Z"/><path d="m95.42,18.58c-4.34.02-5.09-.05-7.88-.07-1.78-.01-3.58-.03-2.5-.08.83-.04,2.71-.04,4.43-.05,2.06-.01,4.67-.03,6.05-.04,2.59-.05,6.69-.13,6.22-.16-1.14-.07-4.88.03-7.49.03-1.59,0-3.07,0-4.6-.01-2-.05-3.81.01-5.71.03-3.17.04-6.56.09-5.62.15,3.64.23-6.19.26-15.01.29,1.08.05,5.66.03,6.02.09,7.23-.01,14.08-.03,21.39-.04,5.23-.03,4.1-.08,4.7-.13Z"/><path d="m179.35,17.52c6.7-.06,12.15-.27,19.84-.27,1.55,0,3.48-.09,3.21-.13-13.43.16-26.78.31-40.2.47-6.73.05-13.79.11-20.46.16-4.03.04-7.3.08-10.84.11-1.18.15,3.51.14,9.64.04,9.51-.16,18.16-.26,26.07-.21,1.05-.02,2.1-.05,3.13-.07,1.05-.06,1.95-.12,5.57-.1h4.05Z"/><path d="m346.27,15.49l16.82-.23.17-.08c-2.29.03-4.32.04-3.96,0,.35-.05,2.68-.08,4.77-.11.78-.05.83-.09.88-.13-4.18.07-7.92.12-8.42.03-5.37.03-10.93.1-16.58.19-.24.03-.15.06-.78.1-2.75.15-4.98.29,6.04.16,3.55-.04,1.31.04,1.05.07Z"/><path d="m340.52,4.47l-8.53-.05v.04s.45.02.45.02l-.44-.02c-3.63-.07-5.58.17-10.19-.08-.73,0-2.01,0-2.08,0,1.51.15-6.34.12-9.05.2.45.04,2.35.05,4.04.06,2.22-.04,5.78,0,8.93.02,2.32.04,3.78-.09,5.02.02,1.32.12,5.17.09,7.33.14,3.7-.03,5.38.03,6.64.12,2.2.04,4.82.15,6.19.07l.95-.05c-2.58-.06-3.87-.14-7.5-.19-2.47-.06-1.53-.09-1.75-.13-11.29-.2,1.5-.11-.02-.2Z"/><path d="m241.59,8.97c-3.57-.09-7.73-.2-11.13-.28-6.97-.22-20.04-.25-25.61-.12,5.2.04,10.98.07,7.33.17,9.98.1,19.95.22,29.41.23Z"/><path d="m340.54,4.66c-11.29-.2,1.5-.11-.02-.2,2.26,0,4.62,0,4.04-.06,6.43.07,13.24.08,19.07.31.29.01.38.02.27.03-8.46-.03-9.15.13-8.69.3-1.81-.03-3.62-.05-5.42-.08-2.58-.06-3.86-.14-7.49-.19.24-.04.31-.07-1.75-.13Zm6.74-.03c-1.36-.04-2.65-.02-2.22,0,.86.05-3.46.08,3.03.16,3.23.03,2.97,0,.63-.07-.44-.03-.41-.07-1.44-.1Z"/><path d="m192.68,5.14c1.97-.05,3.61-.01,5.85-.13,4.97-.25,5.44-.14,7.06-.12,1.48-.02,3.38-.04,4.4-.06,3.97-.11,7.71-.22,10.62-.17,2.39.04-.97.13-3.39.23-4.28.17-7.58.19-11.06.2-2.17,0-5.81.07-7.58.14-6.06.25-8.76.21-12.37.25,2.15-.12,4.31-.24,6.47-.35Zm23.6-.36s-.75.02-.79.02c-.09.01.03.02.06.03l1.65-.04c-.29,0-.56,0-.92,0Z"/><path d="m316.26,9.6c8.56.14,17.55.36,25.26.39,1.95,0,4.67.1,6.6.16,3.49.11,5.84.14,7.74.12-7.22-.27-15.98-.4-24.18-.53-10.62-.17-20.56-.47-31.28-.56-1.56-.01-3.47-.04-4.17-.02,2.17.11,5.86.19,10.11.21,5.13.02,7.55.11,9.91.22Z"/><path d="m67.29,5.3s-.46.09-1.41.18c-.95.08-2.38.19-4.27.35-3.89.3-4.41.3-4.84.28-.41-.02-1.94.05-5.44.35-3.37.29-3.91.4-5.02.54-1.81.23,1.06.04.69.15-.42.12,4.54-.35,5.62-.46,2.93-.32,6.72-.67,10.86-.91,4.09-.24,5.54-.24,1.78.12,1.4-.07,2.8-.16,4.2-.3-1.25-.07,6.95-.71,10.08-1-2.23.1-4.26.2-4.41.15l-7.85.55Z"/><path d="m152.37,6.48c-5.57.1-11.13.27-16.69.61-3.26.23-13.29.62-15.07.84l.75.09c3.66-.12,6.98-.26,9.99-.43.48-.04-.89-.02,1.32-.12l.68.04c.61-.02,1.28-.05,2-.07,8.64-.35,6.89-.49,14.82-.8,1.79-.08,2.24-.12,2.19-.15Z"/><path d="m430.61,14.71l-1.83-.05c-3.98,0-9.48.06-8.96-.08.04-.01-.44-.02-1.26-.03-.82,0-1.99,0-3.32-.01-2.66,0-5.98.04-8.55.15-1.62.07-4.18.11-7.65.14.16,0,.22.02.28.03l-.16.11c10.37-.05,20.62-.06,31.45-.25Z"/><path d="m412.87,11.56c-.82.08,3.75.23,7.48.35,8.03.26,17.36.61,24.4.79,4.87.12,8.16.24,12.9.42,2.87.12,1.28-.02,1.52-.04-10.12-.43-19.95-.79-30.6-1.05-4.6-.14-10.43-.31-15.7-.46Z"/><path d="m270.81,4.41c-1.31,0-2.61.02-3.92.03-2.09.06-4.98.12-4.5.19,10.56-.01,21.86-.12,32.55,0,4.31.05,5.64-.09,9.52-.11-.21-.06-4.32-.12-5.26-.11-6.57.09-11.92-.05-17.82-.03-3.81.22-7.01-.02-10.58.02Z"/><path d="m92.86,8.98c-1.06.05-2.12.11-3.18.16-1.96.18-1.89.18,1.44.03,1.47-.06,3.41-.14,3.73-.13,1.12.02-4.8.3-5.74.4,1.48-.05,2.97-.1,4.45-.15l6.95-.32,14.09-.79c-9.62.32-9.41.28,2.01-.37-4.9.03-8.6.31-12.42.58-3.75.19-5.57.48-11.34.59Z"/><path d="m63.31,18.66c8.81-.02,18.65-.05,15.01-.29-.94-.06,2.45-.11,5.62-.15-.99-.12-5.47,0-8.15-.01-1.93.12-3.18.26-13.32.17-1.68-.02-4.38-.01-5.07.03-.73.05,1.36.06,3.56.07h.95s-.85,0-.85,0l2.24.18Z"/><path d="m363.62,4.72c.29.01.38.02.27.03.93.07,7.49.16,6.27.23,1.7.13,4.16.16,6.68.14,2.21-.02,4.11-.05,7.43.13,2.54.03,4.33.17,6.68.16,2.99,0,.52-.12-2.01-.24-8.57-.2-17.67-.48-25.33-.45Z"/><path d="m394.29,2.84c-2.88-.23-10.04-.55-12.07-.77-.96-.11-10.01-.36-14.93-.48-.82-.01-1.34-.02-2-.03l-.05.1c7.58.35,14.66.49,22.15.88l5.53.25c.72.03,1.18.05,1.37.05Z"/><path d="m277.55,9.44c-2.93-.15-22.04-.53-28.18-.55-6.07-.03-2.21.1-3.42.15,3.86.03,7.73.03,11.4.14.79.01,3.48.06,3.65.07,4.92-.06,11.13.13,16.55.19Z"/><path d="m95.1,4.12c2.94-.1,8.71-.52,10.2-.43,3.02-.07,6-.22,8.99-.36,4.99-.28,12.89-.51,18.76-.64-1.18-.02-1.04-.16-7.31.09-3.8.14-9.29.34-14.02.51-.87.05-1.74.1-2.61.15h-.83s3.29-.15,3.29-.15c-3.91.13,8.11-.59-6.2.11-.5.08,1.39.08-4.27.34-1.14.11-6.29.33-6.01.39Z"/><path d="m408.6,11.55c.12-.01-.61-.06,1.2-.01-12.83-.37-26.34-.82-37.45-.84l.3.05,8.39.19c9.17.2,18.33.41,27.56.61Z"/><path d="m133.06,2.69c-5.87.13-13.77.37-18.76.64.68.09,5.33-.16,7.72-.23,2.29-.06,4.6-.12,6.92-.18,2.32-.04,4.65-.08,6.98-.12,4.66-.09,9.34-.18,13.96-.27-1.89-.18-10.96.09-16.83.16Z"/><path d="m284.84.71c-6.6.07-14.05.23-18.48.15-1.68-.03-4.12.04-4.52.1-.29.05.24.08-2.56.15-.89.13,4.65.01,7.58-.02,6.61-.09,13.31-.17,19.98-.26-.54-.04,1.14-.12-2-.11Z"/><path d="m318.63.15c4.61.07,9.4.15,12.7.11,2.14-.03,3.4.03,5.32.09,6.42.23,12.76.38,18.76.46-5.97-.29-13.43-.45-20.7-.58-5.36-.09-10.68-.14-16.02-.16l-.06.08Z"/><path d="m6.75,15.54c.37-.06.92-.16,1.38-.23.23-.04.44-.07.59-.1.15-.03.24-.05.24-.05s-.1,0-.32.02c-.22.03-.58.07-1.09.12-1.03.14-2.73.32-5.32.83-.64.15-1.35.28-1.75.55-.02.04,0-.04,0,0,.05.03.08.06.15.08.12.05.26.08.39.12.27.06.53.11.79.15,1.04.16,1.96.24,2.79.32,1.67.15,3.01.25,4.42.35,1.41.09.49.16,4.87.27,3.54.08,2.73-.01,2.07-.08-.63-.07-.98-.13-1.45-.2-3.48-.11-6.97-.23-10.44-.51-.86-.08-1.73-.16-2.58-.3-.21-.04-.42-.08-.61-.13-.1-.03-.19-.06-.27-.09-.02-.01-.06-.03-.06-.03.02.01.02.03.02.06.02.04-.02.1,0,.1-.03.03.07-.05.15-.08.09-.04.18-.07.28-.11.2-.06.4-.12.61-.17,1.68-.39,3.41-.61,5.14-.85Z"/><path d="m420.8,5.93c-.7.09-.8.2,8.31.31l6.38.02c1.34,0,2.68.01,4.02,0,.43-.02.89-.04,1.39-.06.25-.02.5-.03.76-.05l.38-.04c.06,0,.12-.02.18-.03l.07-.02s0,0,0,0c.01.02.04.07.07.1.02.03.01.04.03.05.05.03.04,0,0,.03-.02,0-.11.12-.11.14l-.05-.02s-.11-.04-.17-.05l-.39-.09c-.27-.05-.55-.09-.83-.14-.57-.07-1.14-.15-1.71-.22l-2.39-.17c-.21.07,2.62.28,4.79.64.22.04.46.09.64.14l.06.02h.01s0,0,0,0c.02-.03.02-.04.03-.06.02-.03.04-.06.06-.09.08-.14.19-.1.08-.13-.01-.01-.02-.03-.03-.05-.03-.03-.05-.06-.07-.1s-.04-.07-.05-.11c-.01-.03,0-.01,0-.02-.04.02-.16.04-.26.05-.44.06-.91.08-1.38.09-.94.03-1.88.04-2.82.05l-5.66-.03-11.33-.18Z"/><path d="m93.57,9.29c-1.48.05-2.97.1-4.45.15-5.98.32-12.29.75-17.37.9-1.3.04-5.11.31-4.87.31,1.05-.01-7.2.5-1.39.22,9.31-.58,19.47-.99,28.08-1.58Z"/><path d="m422.85,6.34c-2.31-.02-5.76-.03-6.74-.06-3.92-.13-.21-.08,1.14-.08.91,0-.28-.05-1.87-.09-.91-.02-1.85-.04-2.58-.05-.72,0-1.22,0-1.24,0-.06.05.51.12.81.18,7.64.27,16.33.49,24.97.53l.27-.09c-.1-.01-.13-.02-.08-.03h-2.3c-5.55-.03-10.84-.13-12.38-.31Z"/><path d="m150.18,6.63c-7.94.32-6.19.45-14.82.8,4.42-.08,8.92-.17,14.73-.52.65-.05,1.07-.11,1.99-.14,13.98-.52,3.68-.24.41-.19-.34.04.03.06-2.46.14l.49-.08c-.13,0-.24-.02-.33-.02Z"/><path d="m39.82,18.63c-1.84-.08-5.43-.19-9.11-.17-7.06.07-19.8-.41-24.5-.53,11.43.62,22.63.64,33.62.7Z"/><path d="m213.13,17.52l-8.22.03c-1.43,0-2.87.01-4.3.02.01.04-.87.08-2.19.1-1.32.02-3.08.04-4.81.06-8.11,0-15.72.11-22.89.29.69.03,2.9.05,4.39.02,12.28-.23,26.09-.24,38.02-.52Z"/><path d="m132.87,2.18c.42.11,1.84.18,9.93-.06,6.03-.17,13.64-.16,19.45-.32-8.76-.09-19.4.23-29.39.38Z"/><path d="m461.13,13.69c-2.81-.24-8.37-.54-14.48-.82,1.2.17-1.97.15-6.15.11,4.27.2,8.11.28,12.06.4,2.13-.02,5.57.17,8.57.31Z"/><path d="m223.94,1.65c-7.37-.04-22.72.16-31.92.42,9.09-.03,18.24-.21,27.36-.33.23-.08,2.46-.08,4.56-.09Z"/><path d="m234.77,4.5c1.23-.02,2.27-.04,3-.06.72-.02,1.13-.04,1.1-.07h-2.7s-.6-.02-.6-.02h2.01s1.66.01,1.66.01c2.53-.03,3.73-.07,3.94-.11-7.72.07-14.41.04-22.96.26.75.12,7.94.01,12.7,0,.62,0,1.24-.01,1.86-.02Z"/><path d="m141.68,18.22c-9.69.08-19.31.16-27.55.33,3.26.04,6.31.05,11.16-.06,6.15-.13,13.79-.12,20.59-.21l-.39-.08c-1.25,0-2.53.01-3.81.02Z"/><path d="m308.18.3c-8.66.04-13.33.24-10.51.38l8.46-.04c-1.3-.08,4.96-.13,3.73-.21-2.46-.03-1.43-.09-1.68-.13Z"/><path d="m114.61,8.19l-14.09.79c7.11-.28,14.17-.55,20.83-.96l-.75-.09-5.99.26Z"/><path d="m355.2,5.05c-1.81-.03-3.62-.05-5.42-.08l-.94.05c7.89.14,15.93.33,23.25.35-2.35-.11-7.19-.22-8.09-.32-1.52-.01-2.81-.02-4.09-.03-.34.05-.54.09-4.71.03Z"/><path d="m318.63.15l.06-.08-10.51-.02c-2.15.09-2,.17,0,.26,5.12,0,3.92.07,4.02.13.81.03,1.97.06,3.95.06,2.32,0,.94-.05.52-.07-1.6-.1-4.64-.22,1.95-.27Z"/><path d="m266.41,4.1l.12-.08c-7.18.03-15.06-.02-21.15.2,1.07.06-.52.21,7.46,0,3.47-.09,9.47-.03,13.57-.12Z"/><path d="m218,17.4l-.51.11c8.17-.03,15.56-.18,23.11-.35h-3.95c-4.2.02-4.26-.05-4.86-.1-.57,0-1.14.01-1.73.02,0,.07-.33.14-1.99.2-1.67.06-4.68.1-10.08.13Z"/><path d="m310.39,15.62c5.57-.07,11.15-.15,16.7-.22,3.6-.04,6.31-.08,6.67-.16-7.43,0-15.7.2-23.43.27-.02.04-.03.07.05.11Z"/><path d="m236.66,17.15h3.95c6.02-.03,12.27-.04,17.18-.28-5.41.05-11.08.11-17.13.17-2.87.04-3.85.06-4,.11Z"/><path d="m399.64,5.44c.23.02.3.03.72.05,3.01.13-8.55-.04.19.18,6.31.16,10.36.14,9.82,0-3.7-.1-7.63-.26-10.73-.23Z"/><path d="m316.26,9.6c-2.36-.11-4.78-.19-9.91-.22-4.26-.02-7.94-.1-10.11-.21-1.49-.01-3.4-.05-3.95-.02,1.22.06,2.44.12,3.67.17,6.58.1,13.09.21,19.64.31l.66-.03Z"/><path d="m212.17,8.74c3.65-.1-2.13-.14-7.33-.17-3.84-.04-6.26-.03-7.88.01l.1.08c4.95.03,9.88.05,15.11.08Z"/><path d="m456.12,14.44c-7.64.04-16.27.09-23.06.24,7.66.03,15.35-.17,23.02-.17l.04-.07Z"/><path d="m38.63,12.65c-1.14-.2-10.04.68-15.19,1.12.34.03-1.15.22,5.13-.33,3.13-.25,6.7-.52,10.06-.79Z"/><path d="m408.14,6.15c-.75-.07.05-.14-4.72-.25-6.43-.14-2.58.08-6.29.04,5.13.22,7.35.14,11.01.21Z"/><path d="m245.02.86c-3.13.07-6.27.14-9.4.21,5.92-.07,6.29,0,7.14.07.49.04,1.89.05,4.72.01,1.05-.02,2.71-.06,3.04-.08.93-.06-1.37-.04-3.18-.03-6.53.03,5.24-.22-.44-.21-.59,0-1.22.01-1.87.02Z"/><path d="m200.81,8.25c4.18-.02,9.86.25,13.12.07q-1.78-.13-13.12-.07Z"/><path d="m417.92,3.83c-5.54-.38-5.17-.44-6.42-.59-4.34-.26-9.11-.58-12.64-.67l.14.05c3.11.18,8.58.45,9.08.55,1.11.23,5.55.41,9.83.66Z"/><path d="m430.81,4.54c-2.7-.1,3.69.42,6.71.81,1.1.09,2.19.19,3.29.32.44.04.87.08,1.31.16.11.02.22.04.36.09.03.01.07.03.12.07.02.02.07.07.1.12.04.12,0,.21-.03.26-.17.19-.21.14-.28.18-.25.07-.46.1-.68.13l.42-.04c.07,0,.14-.02.22-.04.09-.04.13.02.35-.19.03-.05.06-.08.07-.14.02-.07-.01-.18-.04-.21-.05-.08-.1-.12-.13-.14-.07-.05-.1-.06-.15-.08-.08-.03-.15-.05-.22-.07-.14-.04-.27-.07-.41-.09-.53-.1-1.05-.17-1.57-.24-1.04-.13-2.06-.23-3.08-.33-2.05-.18-4.12-.37-6.36-.57Z"/><path d="m39.75,18.18v-.11c-3.94-.05-7.88-.1-12.24-.15.02.03-.35.06.02.09.36.03,1.46.06,4.4.09,4.45.04,6.47.09,6.31.16,1.95-.01,1.34-.05,1.51-.09Z"/><path d="m440.5,12.98c4.18.04,7.35.05,6.15-.11-4.32-.07-10.63-.21-11.53-.12l.85.09,4.53.14Z"/><path d="m284.84.71c3.14,0,1.46.07,2,.11l6.31-.05c.99-.13,1.13-.26-8.41-.17l.09.11Z"/><path d="m145.5,18.2l.39.08c4.09-.03,7.6-.09,10.58-.17-2.61-.22-6.85-.05-10.97.09Z"/><path d="m328.4,10.27s.43-.04.02-.07c-1.16-.08,4.9-.08-1.64-.21-5.79-.11-.8.09-1.63.13-.25,0-2.16-.02-3.31-.02,1.41.07,2.68.14,6.57.17Z"/><path d="m461.13,13.69c-3-.14-6.44-.33-8.57-.31l4.62.19c1.75.06,3.23.13,4.04.2,2.85.11,5.71.22,8.55.39l-1.78-.15-6.86-.32Z"/><path d="m68.5,11.09s-.16.03-.01.03c.73,0-2.41.24,2.75-.04,1.76-.09,5.05-.34,1.7-.22l-4.43.23Z"/><path d="m299.81,15.88c.14-.07,5.48-.19,4.2-.25l-6.46.1c.77.05-1.48.15,2.26.14Z"/><path d="m75.14,4.75c.15.04,2.18-.05,4.41-.15,9.32-.61-2.05.03.48-.17-.4.02-.94.05-1.62.09l-2.79.18c-.58.04-.74.06-.48.05Z"/><path d="m397.28,2.95l-4.2-.17c1.86.17,6.97.4,10.15.62l.23-.06-.17-.08c-1.14-.06-2-.11-2.86-.16-.32.02-1.75-.06-3.15-.14Z"/><path d="m69.33,18.75c-.35-.07-4.94-.04-6.3-.09l-3.35.03,2.7.05c2.23.02,4.54.03,6.95,0Z"/><path d="m441.7,6.69c.22-.03.44-.06.68-.13.07-.04.11,0,.28-.18.04-.05.07-.14.03-.26-.02-.06-.08-.11-.1-.12-.05-.04-.09-.06-.12-.07-.13-.05-.24-.07-.36-.09-.44-.08-.88-.12-1.31-.16.56.09,1.09.13,1.68.35.03.04.14.02.13.25-.07.14-.13.13-.17.16-.08.03-.16.04-.23.06-.14.02-.29.04-.43.05-.28.03-.56.04-.84.06-1.11.05-2.23.06-3.34.07l-.27.09c1.45,0,2.89.02,4.36-.07Z"/><path d="m342.64,4.95c-1.25-.08-2.94-.15-6.64-.12,1.77.06,2.49.16,6.64.12Z"/><path d="m396.87,14.88l-6.65.1c-.31.1,3.37.04,6.64,0v-.1Z"/><path d="m323.66,4.66c-3.15-.02-6.71-.07-8.93-.02,4.54.11,6.96.08,8.93.02Z"/><path d="m46.23,12.69c2.08-.18,4.48-.38,7.19-.62-2.31.19-3.69.16-7.19.62Z"/><path d="m467.99,14.01l1.78.15,1.04.08c.16.02.37.04.47.06,0-.01.05.04-.07-.05-.04-.04-.06-.11-.05-.15,0-.04,0-.06,0-.1.02-.08.11-.13.15-.13h-.03s-.11.01-.11.01h-.25s-2.1.03-2.1.03l.18.04c.48,0,.95,0,1.43.01.24,0,.48,0,.71-.01h.16s.02-.01.02-.01c-.02,0-.05.02-.08.05-.02.03-.03.07-.02.1,0,.03,0,.1.05.13.07.04,0,0-.01.01-.11-.02-.23-.03-.35-.05-.96-.09-1.94-.14-2.93-.17Z"/><path d="m369.68,1.3s-.05.01-.28,0c.3,0,.62.02.98.03.19-.02.39-.04.59-.06l-1.29.02Z"/><path d="m461.22,13.76c-.81-.06-2.3-.13-4.04-.2-.02.03.31.06.99.09.68.02,1.7.06,3.06.1Z"/><path d="m299.94.07c.23.03-.15.07,2.19.05,1.71-.01,1.39-.04.13-.05h-2.32Z"/><path d="m403.46,3.34l-.23.06c2.17.11,3.67.17,4.37.17l-4.13-.23Z"/><path d="m392.93,2.8l-5.53-.25c2.32.15,4.18.24,5.53.25Z"/><path d="m310.29,15.62l.05-.11c-1.4.01-2.13.03-2.19.06.19.03-.84.08,2.15.05Z"/><path d="m133.35,7.51l-.68-.04c-2.22.1-.85.08-1.32.12.67-.03,1.34-.05,2-.08Z"/><path d="m223.93,1.65c-2.09,0-4.33.01-4.55.09,1.91-.02,3.82-.03,4.55-.09Z"/><path d="m315.6,9.63c-6.55-.1-13.06-.2-19.64-.31-2.28-.03-3.29-.02-3.48,0l-.29.1c3.62.06,4.82.11,3.53.15-.61.02-1.46.04.94.08,1.4.01,4.37.04,4.42.04-.44-.16,9.17-.01,12.91-.04.76-.02,1.08-.02,1.61-.04Z"/><path d="m178.55,8.2c-4.46-.05-8.93-.1-13.27-.04,7.49.03,1.37.14,6.64.18l8.43.09c-1.08-.08-5.56-.17-1.8-.23Z"/><path d="m403.98,11.79c3.56.16,8.18.29,13,.42-.15-.05.53-.08-.64-.14-1.57-.08,4.76.03-.98-.13-3.98-.11-3.2-.03-2.77.03.2.03.22.11-2.37-.04-4.74-.26-3.75-.05-6.24-.14Z"/><path d="m252.07,8.75l-6.35-.1c-.82.03-6.26,0-1.46.1,5.07.1,6.78.05,7.82,0Z"/><path d="m267.2,8.96c1.85,0,3.54-.01,2.42-.05-3.39-.11-7.28-.08-11.03-.13.32.1,5.22.13,8.61.18Z"/><path d="m381.04,10.94l-8.39-.19c.45.08,3.1.17,6.46.24,2.59.05,1.74-.02,1.93-.04Z"/><path d="m468.78,14.06c-.58,0-1.19,0-1.81.01l-.24.07c1.28,0,2.7-.02,3.94-.03.16,0,.31-.01.46-.02.08,0,.15-.01.22-.02.03-.03.03.05.01.03-.03,0-.06-.02-.1-.02-.28-.04-.55-.06-.79-.08-.49-.03-.9-.05-1.19-.05l1.19.09.59.06c.09.01.2.03.28.05.01,0,.03.02-.01-.02,0-.05-.01-.06,0-.09.06-.05,0-.01-.01-.02h-.14c-.79.04-1.59.03-2.38.03Z"/><path d="m244.08,8.63c-.88-.09-3.87-.1-6.88-.1l.21.07c2.25.01,4.46.02,6.67.03Z"/><path d="m284.7,9.48c.46.01.89.03,1.32.04l1.21-.02c-.55-.01-1.19-.02-1.61-.03-.41,0-.61,0-.91.01Z"/><path d="m397.48,11.63l4.89.12c-.62-.04-1.07-.08-1.89-.1-2.37-.07-2.35-.03-3-.02Z"/><path d="m269.08,9.09l-2.05-.09c-3.19.01-.7.05,2.05.09Z"/><path d="m237.41,8.6c-.57,0-1.27,0-1.83-.01-.28,0-.52,0-.69,0-.17,0-.27,0-.27.01,0,0,.82.03,1.24.03,1.93.02,1.39-.01,1.55-.03Z"/><path d="m292.19,9.44l.29-.1c-2.73,0-2.95.03-.29.1Z"/><path d="m349.78,10.5s-.37-.02-.67-.03c.04.02.37.02.67.03Z"/><path d="m462.42,14.14l-.09.04,4.35-.05c-1.39,0-2.83,0-4.26,0Z"/><path d="m275.49,9.14l.48.02c-.18,0-.35-.02-.48-.02Z"/><path d="m236.14,8.52l-.61-.04c-1.83,0-1.46.02.61.04Z"/><path d="m280.84.6c2.57-.09,6.57-.19,3.63-.25-1.25-.02-2.76-.04-5.4-.01-3.91.05-4.35.11-4.88.16,2.03.03,3.04.08,1.31.17-.8.04-.6.07,1.7.04,2.78-.03,3.21-.08,3.64-.12Z"/><path d="m101.11,3.73c5.66-.26,3.77-.26,4.27-.34-2.1.08-5.04.24-5.34.19-.15-.03-2.19.03-4.05.13-1.91.1-3.66.25-4.33.32-1.11.12,2.56-.11,3.7-.14,2.25-.06,3.87-.1,5.75-.15Z"/><path d="m209.62,1.42c-3.85-.13-10.98.03-17.72.14,4.94.04,10.53.02,17.72-.14Z"/><path d="m214.86,1.35c-.72.01-1.45.02-2.18.04-.37.01-.6.02-1.12.04-4.06.09-6.76.18-2.58.21,1.09,0,4.1,0,3.59-.04-1.21-.07,12.13-.28,2.29-.25Z"/><path d="m261.54.62c-2.03.02-4.07.05-6.1.07-.06.05-5.15.2.26.14,4-.04,6.8-.15,5.84-.22Z"/><path d="m232.72,1.11h-6.78c.16.03-3.49.13-.38.13,2.47,0,5.15-.06,7.17-.13Z"/><path d="m114.09,3c1.23-.03,1.98-.05,2.7-.06.78-.03,1.54-.07,2.3-.1-.65.01-1.25.02-1.97.04-.75.03-1.62.07-3.03.13Z"/><path d="m221.36,1.17l-5.87.11c-.27,0-.56.02-.85.03l.27.03c1.32-.02,2.94-.05,4.23-.07,1.29-.03,2.25-.05,2.22-.09Z"/><path d="m266.94.54c-1.74,0-3.47-.01-5.25.08l5.25-.08Z"/><path d="m126.85,2.41c.6,0,.9-.02,1.2-.04-.22,0-.43.01-1.2.04Z"/><path d="m40.56,11.99c-2.35.17-5.05.36-6.45.52-1.04.19-8.15.66-10.97.99-1.06.12-4.67.33-6.24.56-.97.14,2.55-.15,4.73-.3,2.22-.15,3.96-.29,7.02-.58,3.85-.36,8.33-.73,11.79-.86,2.08-.08,5.81-.39,8-.56,3.83-.3.72-.13-1.51,0-3.54.19-7.03.39-6.37.25Z"/><path d="m39.75,18.18c-.17.03.44.08-1.51.09-.49.04-5.68,0-3.12.09.9.03,2.96.07,4.31.08,4.53.02,1.52-.07,2.52-.1.55-.02.97-.03,1.8-.05,1.63-.02,6.39-.02,4.6-.08-2.06-.06-5.47,0-8.6-.03Z"/><path d="m24.35,18.15c-.45-.01-.88-.03-1.3-.04h-1.23c.55.02,1.16.04,1.61.05.4,0,.61,0,.92,0Z"/><path d="m80.63,9.55l2.1-.11c-.68.04-1.41.08-2.1.11Z"/><path d="m100.04,10.01c-.43,0-.56-.04-3.4.09.38.01,1.74-.03,3.4-.09Z"/><path d="m173.65,5.73l-4.32.12c-.05.05.94.09-.39.14-2.34.1-4.44.19-3.65.22.39.02,1.67-.04,2.18-.06,1.86-.11,8.11-.28,6.45-.33-.55-.02-.21-.07-.27-.1Z"/><path d="m186.19,5.49c-1.33,0-1.41-.05-4.45.03-.42.01-1.48.07-1.37.08.6.04,3.52-.05,5.81-.11Z"/><path d="m234.77,4.5c-.62,0-1.24.01-1.86.02,0,.01-.1.03.11.04.21,0,.72.01,1.94,0l-.19-.06Z"/><path d="m150.51,6.65l-.49.08c2.5-.08,2.13-.11,2.46-.14l-1.97.06Z"/><path d="m160.83,6.2l.75.02c2.04-.09-.05-.03-.75-.02Z"/><path d="m171.92,8.34c-5.27-.04.85-.15-6.64-.18-2.73,0-4.65,0-6.08.05-3.02.09-6.72.21-1.1.2,8.84.09,9.23-.04,13.82-.07Z"/><path d="m136.4,8.86c3.05-.09,7.91-.14,7.65-.23-.04-.02-.37-.03-1.12-.03-.75,0-1.92.02-3.64.07-3.34.1-8.24.28-8.43.32-.37.08,3.98-.11,5.55-.13Z"/><path d="m139.73,8.54c-2.39.03-3.86.02-5.6.07-2.19.06-6.08.17-6.23.23-.08.03,1.34.02,3.67-.05,2.5-.08,4.93-.15,8.16-.25Z"/><path d="m110.66,9.63c-.29-.01-.3-.04-2.51.04-.69.02-1.07.06-1.59.09l4.1-.13Z"/><path d="m148.12,8.48c-.69.02-.26.02.16,0h-.16Z"/><path d="m114.7,9.53l-.96.03-.96.03c.64,0,1.28-.02,1.92-.06Z"/><path d="m360.99,1.09c.44.08,2.63.17,5.7.26,3.91.12,2.37,0,2.75-.04-3.81-.15-3.96-.04-8.45-.22Z"/><path d="m312.21.43c-.11-.06,1.1-.13-4.09-.13.32.05-.71.1,1.75.13.78,0,1.56,0,2.34,0Z"/><path d="m360.95,1.09l-.47-.03c.17.01.34.02.47.03Z"/><path d="m141.68,18.22l3.85-.02c-.67-.02,1.29-.09-1.79-.06-1.75.01-2.18.06-2.05.09Z"/><path d="m193.61,17.73c1.73-.02,3.49-.04,4.81-.06,1.32-.02,2.2-.06,2.19-.1-2.58.05-5.47.09-7,.16Z"/><path d="m417.92,3.83c-4.29-.24-8.72-.43-9.83-.66-.5-.1-5.97-.37-9.08-.55,1.7.17,3.06.31,5.18.53,4.55.42,12.91.93,19.76,1.27.85.04,1.28.06,2.33.11,3.89.26,4.16.15.29-.19q-1.61-.14-2.54-.12c-.43,0-.32.06-3.26-.13-.9-.06-1.9-.17-2.85-.26Z"/><path d="m435.24,6.63h2.3c4.06-.13-2.25-.22-2.05-.37l-6.38-.02c-.61.12,7.82.29,6.12.39Z"/><path d="m439.13,5.86c.57.07,1.14.15,1.71.22.28.05.56.09.83.14l.39.09c.06.02.12.03.17.05l.05.02s.1-.13.11-.14c.05-.03.05,0,0-.03-.02-.01-.02-.03-.03-.05-.03-.03-.06-.08-.07-.1,0,0,.01,0,0,0l-.07.02c-.06.01-.12.02-.18.03l-.38.04c-.26.02-.51.03-.76.05-.5.02-.97.04-1.39.06.06,0,.01.01.22.01,1.41-.02,2.02.02,2.62-.08h.03s0,0,.02.02c.02.02.06.02.04.02-.1.07-.04.02-.1.01-.07-.03-.15-.06-.24-.09-.18-.05-.38-.1-.62-.15-.48-.09-1.09-.19-1.96-.29-5.12-.54.58.18-.4.14Z"/><path d="m427.91,4.74c-.61-.03-1.32-.08-1.27-.07.18.03.64.09,1,.13.14,0,.33.01.49.02s.29.01.29,0c.02-.02-.29-.06-.52-.09Z"/><path d="m397.28,2.95c1.4.08,2.83.17,3.15.14-1.33-.08-3.2-.21-3.15-.14Z"/><path d="m403.29,3.25l.88.03c-.38-.02-.76-.03-.88-.03Z"/><path d="m114.61,8.19l5.99-.26c1.78-.22,11.81-.6,15.07-.84-.33-.04.51-.13-4.3.06,2.05-.01-1.45.16-3.67.27-2.7.14-3.99.14-5.01.14l-6.08.25c-11.42.65-11.62.69-2.01.37Z"/><path d="m122.7,7.57c1.02,0,2.31,0,5.01-.14,2.21-.11,5.71-.28,3.67-.27-3.29.13-7.36.27-8.68.41Z"/><path d="m92.86,8.98c5.77-.11,7.6-.39,11.34-.59-4.6.15-8.03.36-11.34.59Z"/><path d="m80.59,9.55l2.18-.12c-.73,0-1.45.04-2.18.12Z"/><path d="m355.2,5.05c4.17.07,4.37.02,4.71-.03-.63-.08,1.55-.03,3.87.03,1.31-.05.39-.16,6.38-.07,1.23-.07-5.34-.16-6.27-.23-8.46-.03-9.14.13-8.69.3Z"/><path d="m422.8,6.33l2.66.04c-1.49-.06-1.88-.04-2.66-.04Z"/><path d="m364.8,15.07c-1.01.05-1.29.08-1.56.12,4.27-.06,8.52-.11,12.77-.17,3.83-.05,3.92-.1,4.08-.15-2.28.02-5.08.07-6.43.04l-8.85.15Z"/><path d="m364.8,15.07l8.85-.15v-.08c-2.89.04-5.79.08-8.69.12l-.16.12Z"/><path d="m424.48,14.34c-.08-.04-.3-.08-2.65-.06-1.06.02-2.46.05-3.7.08,1.51.03,4,0,6.35-.02Z"/><path d="m373.65,14.91c1.35.03,4.15-.02,6.43-.04-1.31-.03-3.92,0-6.43.04Z"/><path d="m399.04,14.82s2-.06.12-.06c-.2,0-.8.01-.97.01-1.23.04-.51.05.86.05Z"/><path d="m270.81,4.41c3.56-.04,6.77.2,10.58-.02.6-.16-7.13-.06-10.68-.09.05.04.08.07.11.11Z"/><path d="m315.12,4.38h-.87c.27,0,.54,0,.87,0Z"/><path d="m270.7,4.31h-.46c.16,0,.33,0,.46,0Z"/><path d="m462.42,14.14h4.3s.24-.08.24-.08c-1.51,0-2.62.01-3.38.02-.75.01-1.13.03-1.17.06Z"/><path d="m218,17.4c5.4-.03,8.41-.07,10.08-.13,1.67-.06,1.99-.12,1.99-.2l-2.32-.13c-8.03,0-12.6.2-18.85.3-.77.14-.22.24,9.1.15Z"/><path d="m320.32,15.62h.92s-.39-.02-.92,0Z"/><path d="m215.49,1.27h-1.51c.22.01.45.02.66.03.29,0,.57-.02.84-.03Z"/><path d="m299.74,15.88c.74,0,1.47,0,2.23,0,.02,0,.39-.01.6-.02-.92,0-1.84.02-2.84.03Z"/><path d="m179.35,17.52h-4.05c.28.05.47.1,4.05,0Z"/><path d="m363.24,15.19c.28-.04.55-.08.83-.12-2.09.03-4.41.06-4.77.11-.36.05,1.67.04,3.93,0Z"/><path d="m342.29,4.79c.24-.04.31-.07-1.75-.13.22.04-.72.07,1.75.13Z"/><path d="m332,4.45l.44.02c-.15,0-.31-.01-.44-.02Z"/><path d="m348.72,4.73c-.44-.03-.41-.07-1.44-.1-1.36-.04-2.65-.02-2.22,0,.86.05-3.46.08,3.04.16.21-.02.41-.05.62-.07Z"/><path d="m348.72,4.73c-.21.02-.41.05-.62.07,3.23.03,2.96,0,.62-.07Z"/><path d="m217.19,4.79c-.29,0-.56,0-.92,0-.04,0-.75.02-.79.02-.09.01.03.02.06.03l1.65-.04Z"/><path d="m61.07,18.48h.85c-.32,0-.63,0-.85,0Z"/><path d="m111.58,3.29l-3.29.16h.83c.87-.06,1.74-.11,2.46-.16Z"/><path d="m236.17,4.39h2.7c-.19-.03-.74-.04-1.29-.04l-1.41.04Z"/><path d="m363.77,5.05c-2.32-.06-4.49-.11-3.87-.03,1.29,0,2.58.02,3.87.03Z"/>
                  </g>
                </mask>
              </defs>
              <path class="mask" d="m37.79,7.98c20.71-1.94,52.26-4.39,91.64-5.43,12.1-.32,20.86-.39,27.31-.45C279.43.98,297.15-.46,345.48.74c50.9,1.27,97.25,4.51,97,5.49-.35,1.38-92.07-3.26-212.31-1.52C109.2,6.47-.23,14.1.33,16.7c.73,3.34,183.59.82,231.3.27,31.98-.37,45.65-.7,74.48-1.15,16.1-.25,45.88-.65,78.35-1.01,31.03-.35,46.54-.51,64.77-.58,18.81-.08,22.18-.01,22.18-.13.02-.72-136.32-5.15-297.58-5.75-5.33-.02-9.76-.03-12.83-.04,0,0-11.68-.03-49.24,1.21-35.25,1.17-82.1,2.67-98.85,9.53-2.05.84-6.82,2.79-5.77,5.03,1.27,2.71,9.4,4,11.48,4.25"
                    mask="url(#path-mask)" stroke="black" stroke-width="2" fill="none"
                    stroke-dasharray="1799.3870849609375" stroke-dashoffset="1799.3870849609375">
              </path>
            </svg>
        