
            <svg xmlns="http://www.w3.org/2000/svg">
              <defs>
                <mask id="path-mask">
                  <g fill="white">
                    <path d="m177.84,1.7c.7-.15.25-.45.38-.68l.51.1c.42.21.9.35,1.29.61.81.53,2.32.29,2.95-.35.44.05.72-.06.9-.25.59.17,1.46-.23,1.92.2.13.28.65.54.22.86-.31.21-.65.32-1.15.14-.42-.15-.79-.12-1.02.14h-.39c-.48.16-1.15-.66-1.51.09-.15,0-.43-.03-.44-.03-.37.65-1.27.37-2.04.31v-.17c.2-.08.15-.12-.09-.14-.04.01-.08.01-.12.01l-.03-.25c.13-.02.32.01.32-.1,0-.02-.1-.07-.14-.07-.22,0-.16.1-.18.16l-.76.13c-.06.01-.13.01-.19.01.09-.14.72-.27.16-.42-.59-.16-.78.08-.9.31-.11.24-.35.29-.75.14-.04-.35-.61-.22-1-.26l.02-.11c.37-.19.08-.22-.24-.24-.43-.23-.47.12-.74.13l-.06-.05.06.04c-.02.2.14.46-.64.38-.49-.05-.9.03-.81.35l-.48.04-.43-.4c.26-.01.38-.09.4-.21.31-.12.34-.24.03-.37-.42-.02-.56-.12-.41-.32.07-.09.16-.21-.11-.23-.16-.01-.51.08-.51.12.06.52-1.05.55-1.48.85-.09.06-.12.14-.18.21l-.07.15c-.99.03-2.03-.13-2.91.27-.22.1-.54-.02-.76-.09-.4-.13-.68-.07-.89.12l-1.91-.2-.04-.16c-.06-.22-.36-.32-.75-.29-.3.02-.2.19-.22.3-1.06.09-2.11.19-3.22.24l.04.05c-.01.06.07.14-.14.16-.06.09-.08.19-.35.18.09-.33-.44-.41-.87-.46-.93-.12-2.01-.3-2.82-.1-.56.14-.94.16-1.49.15-.33,0-.14.22-.17.35l-3.19.05v-.24c.21-.14.16-.28.05-.43-.18-.27.09-.4.66-.39l.5-.13c.3-.02.66.03.79-.18l-.55-.07c-.07-.12-.4-.24.02-.35.22.13.44.15.67,0h.79c.33.4.98.67,1.68.92.5-.27,1.22-.46,1.32-.87.7.05,1.39.13,2.09,0,.02.14-.06.31.08.4.18.13-.55.34.12.35.46,0,.37-.2.31-.36-.02-.07-.03-.33.27-.09.55.45.43-.18.9-.1.07.06.13.18.22.18.27.02.27-.11.34-.2.89.03,1.75-.19,2.7.01.49.11.75-.27.89-.51l4.37-.02c0,.08-.05.17,0,.24.14.2-.56.58.2.59.67,0,.09-.34.18-.53.03-.05.25-.08.38-.12,1.23-.29,2.56-.26,3.83-.26.37,0,.97-.33,1.27.06.34.36,2.56.8,3.26.65Zm-4.24-.47l-.14.12c.06.01.14.04.19.03.05,0,.07-.05.1-.09-.05-.02-.1-.04-.15-.06Zm-7.25.47s-.07-.01-.1-.02c0,.05.04.05.1.02Z"/><path d="m17.8,3.15c-1.63.13-3.24-.1-4.86-.13-.21-.67-1.26-.3-1.94-.39-.13-.2-.11-.44-.84-.25-.44.12-1.07.06-1.64.08-.45-.09.95-.82-.71-.48-.24-.02-.58.06-.61-.17-.02-.12-.25-.26-.46-.22-.22.04-.43.18-.5.3-.13.2.29.11.43.16.26.11.44.27.66.4-.13.16-.73.07-.7.32-.36-.36-1.65.12-1.64-.38,0-.25.52-.53.75-.83.23-.31,1.22-.37,2-.32.35.03.69.14,1.04.15.34.02.75.22,1,.03.27-.2-.67-.12-.49-.36.54-.17,1.11-.24,1.73-.09.04.39.2.68,1.14.35.7-.25,1.57.3,2.25-.09h.26s.49.12.49.12c.82.42,1.7.5,2.67.14.57.32,1.21.48,2.04.26h.35s-.07.07-.13.09c-.47.14-.78.3-.3.57.13.07.47.15.41.03-.14-.28,1.4-.37.28-.76.3-.04.75.02.75-.25h.53c.02.16-.41.3-.05.43.28.1.59.04.83-.08l.33.02c.68.05.72.31.82.57.05.15.22.26.54.26.12,0,.31-.06.35-.11.11-.15-.16-.19-.36-.25-.75-.22.61-.47-.04-.69.17-.24.59-.22.98-.22v.17c0,.17-.59.39.03.48.46.07.79-.14.7-.41h.61s.83.25.83.25c.23.19.35.39.14.61-.09.1-.07.2.19.22.32.02.37-.1.42-.22l.45.12v.37c-.75-.04-1.62.11-2.12-.37-.19-.18-.48-.08-.52.1-.03.13.02.28-.3.36-1.32.32-2.69.34-4.08.09-.85-.48-2.62-.46-3.68.04Zm-8.67-1.19c.09,0,.18-.05.27-.08-.07-.04-.14-.1-.23-.1-.09,0-.19.04-.35.08.14.05.23.1.31.1Z"/><path d="m97.6,2c.64-.1.93.13,1.26.33.16.1.06.39.56.28.41-.09.31-.29.24-.47-.07-.17-.11-.35-.17-.52l1.5-.06c0,.18-.17.43.51.4.51-.02.75.09.73.34-.06.14-.65.17-.36.38.1.07.34.15.5.14.52-.03.17-.25.29-.38.06-.07.11-.15.21-.21.19-.11.74-.18.53-.33-.24-.17-.63.1-.99.07v-.34c1.42-.09,2.8.01,4.16.21-.22.38-.36.81-1.53.5-.19-.05-.51-.03-.58.12-.08.16.16.2.42.23.09.19.17.39.23.6l-.39.1.31.16c-.92.24-1.79.18-2.6-.12-.21-.23-.63-.5-1.05-.27-.81.44-2.29-.23-2.83.48-.79-.18-1.63-.05-2.44-.07.03-.42-.59-.48-1.11-.36-.46.11-.74.07-1.09-.04.12-.37.94-.11,1.27-.34.12-.09.54.28.72.01.11-.16-.3-.31-.55-.44-.26-.13-.46-.16-.81-.02-.45.17-.96.29-1.36-.09-.24-.23-.67-.06-.93.03-.44.15-.08.25.17.35.41.16.81.34.74.64l-.26.11c-.46-.47-1.34-.29-2.09-.34-.29-.02-.96.15-.77-.3.05-.11-.86.07-.89.19-.05.25-.3.23-.63.23h-.24c-.45.09-.99.27-.81-.21.23-.27.22-.26-.17-.35-.17-.04-.39-.1-.43-.18-.13-.26.55-.18.66-.36.69-.05,1.42-.32,2.01.13.15.12.59-.06.56-.09-.12-.17.83-.24.16-.43.03-.12.1-.14.38-.12.9.06,1.81.25,2.73.03.13.89,1.16.18,1.76.24.69,0,1.2-.33,1.94-.25-.17.24-.69.59.53.4Zm2.88.39l-.14.11c.06.01.13.04.19.03.05,0,.07-.05.11-.08-.05-.02-.1-.04-.15-.06Z"/><path d="m201.31,2.39c.87-.21,1.94.13,2.73-.28.72.5,1.8.07,2.64.21.24.04.33.02.5-.05.52-.2.63-1.21.05-1.33-.61-.12-.81-.31-.97-.59-.17-.29-.47-.58-1.05-.09-.06.05-.3.11-.41.1-1-.17-1.96.09-2.95.11-2.27.04-4.54.15-6.81.24v.27c.2,0,.36,0,.4.12.34-.06.74-.13,1.02-.13.67-.02,1.49-.29,2.03.09.32.22,2.64.61,3.11.46.08-.03.16-.1.14-.14-.12-.37.32-.2.52-.12.24.09.39.24.6.35.12.06.49-.04.45.1-.02.09-.23.17-.52.21-.6.07-1.44,0-1.51.49Z"/><path d="m72.4,3.63c.59-.08,1.3-.02,1.69-.34-.17-.04-.39-.13-.51-.11-.46.09-.89.23-1.23-.08-.28-.25.11-.39.39-.56.5-.3.88-.16,1.28.05.25.13.67.18.87.08.7-.35,1.01-.02,1.43.16.27.02.6-.03.67.16.01.04-.11.13-.16.13-.35-.01-.36-.18-.51-.29l-.75.62c.49.5,1.13.18,1.74.08-.02-.17.02-.32.46-.35,0-.12.03-.24-.03-.35-.19-.33.53-.28.75-.44.06-.04.21-.08.25,0,.09.18-.15.26-.42.36-.15.06-.04.28-.05.43.24-.17.92.1.99-.24-.09-.04-.33-.07-.09-.16l.09.16c.35.08.13.39.57.38.15,0,.28-.24.41-.38,0-.1.05-.19.25-.24l-.04-.11h-.23c-.38-.2-1.57-.41.05-.57.11-.01.15-.16.23-.24-.7,0-1.42.19-2.05-.18-.08-.04-1.01.25-1.63.27-.17.15-.38.17-.76.19-1.1.05-2.24-.27-3.29.09-.42-.37-1.18.05-1.62-.16-.43-.2-.78-.26-1.33-.08-.73.25-1.05.06-1.07-.32l-1.21.04c.05.24-.28.39-.52.56.55.31,1.13.62-.05.91-.15.04-.05.14.1.19.47-.24,1.17.1,1.57-.1.92-.47.74,0,.86.22h.26c.02-.14.16-.22.46-.22.03-.18.23-.24.51-.25l-.02-.2c.28.02.24.12.24.21.55.2,1.38.24,1.46.68Z"/><path d="m187.55,2.16c.31,0,.53-.09.7-.21.34-.25.77-.49.11-.77-1.03-.44-1.06.24-1.59.36l-.98-.2c-.46-.43-1.33-.04-1.92-.2l-.02-.31c.56.03,1.21-.33,1.64-.06.54.33,1.09.24,1.71.16,2.44-.31,4.9-.31,7.37-.21.05.15.05.29-.26.38h-.47s-.25-.12-.25-.12c-.08-.06-.15-.07-.22,0-1.55.09-1.77.23-1.17.75.02.02.02.04.04.05,1.37-.35,1.75.7,3.09.48.56-.09,1.3-.13,1.46.32-.37.01-.77.38-.9.19-.24-.36-.62-.17-.99-.17-1.34,0-2.64-.03-4.01.05-1.95.12-3.97-.02-5.97.07-.4.02-1.03.13-1.07-.25.23-.26.61-.29,1.02-.14.5.18.84.08,1.15-.14.52.11,1.03.25,1.53-.04Zm2.43-.88c.01.13.16.36.56.29.38-.08.95-.26.97-.4.04-.29-.46,0-.64-.06-.35.04-.92-.21-.88.18Zm1.16,1.07c.25,0,.7,0,.72-.23,0-.13-.16-.25-.43-.23-.29.01-.57.09-.94.15.28.14.45.3.65.31Zm-1.5-.84h-.15s.02.04.02.04c.11,0,.11-.02.13-.04Z"/><path d="m30.97,3.33c.61-.1,1.08-.06,1.76.06.99.18,2.23.06,3.36.03.57-.02,1.17.14,1.7-.06v-.35c-.12-.16-.43-.41-.05-.47,1.13-.17.98-.8,1.77-1.07-.42,0-.79.08-1.11.2-.04,0-.08.01-.11.03-.04.16.13.37-.32.44-.36.06-.61-.01-.66-.21l-.06-.05.05.05c.52.12.54-.26.98-.23.03-.02.04-.04.03-.06-.49-.37-1.1-.01-1.65-.07-.7.36-1.43.34-2.17.03-.22-.09-.36-.22-.61-.01-.38.33-.93.21-1.47.09-.76.25-.42.58-.23.89.05.08.21.2-.06.25-.23.04-.36-.04-.46-.14h-.27c.14.27-.58.39-.44.66Z"/><path d="m115.87,3.27c.48.2.98.36,1.65.19.83-.35,1.7-.41,2.64-.12.18-.16.51-.19.81-.26l.5.1c-.06-.11-.15-.32-.18-.32-.91.08-1.52-.36-2.39-.32-.64.03-1.22.01-1.39-.37,0-.01-.07-.02-.11-.02l-.36.13c.11.43-.53.39-1.02.35-1.61-.11-3.23.13-4.86-.09-.98-.13-1.04-.02-.57-.48.14-.14.24-.29.35-.44-.94.09-2.02-.14-2.78.33.18.04.35.09.53.1.3.02.73-.24.86.02.05.11-.42.31-.72.43-.16.06-.46.04-.7.05-.2,0-.42,0-.51.11-.12.14.08.21.29.28.32.1.41.35.91.34.63.25,1.33.39,2.16.26.95-.37,2.06-.37,3.18-.35-.02-.1.03-.23.24-.22.36,0,.13.17.21.26.47-.35.96-.78,1.26.04Z"/><path d="m193.84,1.09l-.25-.12h-.11s-.11,0-.11,0c-1.55.09-1.77.23-1.17.75.02.02.02.04.04.05,1.37-.35,1.75.7,3.09.48.56-.09,1.3-.13,1.46.32.4-.2,1.13-.1,1.43-.39-.39-.24-.02-.61.18-.6.6,0,.24.32.33.5.02.04,0,.08,0,.12.46.34,1.23-.06,1.75.15.31-.12.59-.12.83.04.07-.49.92-.41,1.51-.49.29-.04.5-.12.52-.21.03-.14-.33-.03-.45-.1-.21-.11-.36-.26-.6-.35-.2-.08-.64-.25-.52.12.01.04-.07.11-.14.14-.47.15-2.79-.23-3.11-.46-.54-.37-1.36-.1-2.03-.09-.28,0-.68.07-1.02.13-.33.12-.34-.01-.39-.12v-.27s-.49,0-.49,0c.05.15.05.29-.26.38-.06.06-.1.16-.18.17-.25.03-.26-.09-.29-.17Z"/><path d="m41.69,1.56v.14c.21.27.36.56.61.82.52.56,1.49.63,2.28.16.1-.06.15-.15.27-.18.45-.11.48-.52.04-.68q-.19-.07-.29.2c-.05.12-.04.29-.38.29-.1,0-.22-.14-.33-.22-.64-.1-.6-.39-.74-.63.73-.15,1.48-.13,2.23-.04-.31.38.43.48.77.68l.38-.23.77-.11s.01.06,0,.1c-.47.43.25.81.23,1.22h-.46s0-.04-.02-.05c-.33-.13-.26-.54-.67-.47-.6.1.07.4-.05.61l-.28.27c-1.12-.05-2.28.06-3.37-.15h-.48s-.02-.24-.02-.24l.1-.06-.13.05h-.3c-.15-.02-.37-.13-.36.07l-.49.12.07-.04.07.04c-.33-.27-1.16-.24-1.39-.68-.11-.21-1.16.18-1.73.35-.09.03-.16.08-.23.13-.12-.16-.44-.41-.06-.47,1.13-.17.98-.8,1.77-1.07.75-.15,1.48-.13,2.18.09Zm3.2,1.32c.02.07.07.13.11.2.03-.03.09-.07.09-.1,0-.05-.03-.11-.06-.18-.07.04-.15.07-.15.09Z"/><path d="m77.77,3.17c-.44.03-.48.18-.46.35l.41.04.31-.02c.78.08,1.54.2,2.37.04.34-.07.83-.08,1.24.05.44.14,1.29.15,1.43.11,1.51-.41,2.97-.2,4.42.01.53.08.87-.11,1.3-.11h6.68c.24,0,.48.05.62-.09.03-.42-.59-.48-1.11-.36-.46.11-.74.07-1.09-.04-.16.16-.47.12-.75.14l-.26.11c-.46-.47-1.34-.29-2.09-.34-.29-.02-.96.15-.77-.3.05-.11-.86.07-.89.19-.05.25-.3.23-.63.23-.08.11-.16.11-.25,0-.45.1-.99.27-.8-.21h-.37c-.38.18-.78.33-1.31.11-.44.28-.87.65-1.43.05l-.7-.02c-.15.29-.62.19-1,.2-.56.02-.46-.19-.5-.35-.64.42-1.28.29-1.93,0-.14.13-.26.37-.41.38-.43.01-.22-.3-.57-.38-.06.34-.74.07-.98.24h-.5Z"/><path d="m51.69,3.33c.34.22.72.34,1.23.12-.29-.2-.57-.41-.23-.64.27-.18.48.14.77.06.38.39.6.16.86-.04.29-.23.58-.28.77.04.69-.07.59-.37.71-.6-.1-.27-.66-.37-.93-.58-.46-.25-1.07-.31-1.65-.2-.44.08-.82.09-1.24.03-.43.15.01.58-.73.59-.55,0-.46-.28-.54-.46l-.49.03c.03.17.1.35.09.52,0,.11-.23.16-.44.15-.18,0-.32-.07-.21-.15.16-.12.58-.23.13-.36-.11-.03-.51.19-.78.29-.08.04-.13.15-.3.04l.31-.04c-.18-.49-.79-.39-1.43-.26-.2.4.77.6.7.98,1.05-.22,1.04.1.96.46.42-.06.77.19,1.2.08-.06-.41.41-.77,1.14-.72,1.01.07-.33.36.02.56.05.03.06.07.08.11Z"/><path d="m142.45,2.91h.4s.77-.14.77-.14l.28-.02-.02-.1c-.17-.04-.25-.1-.11-.19.02-.01.09-.02.11-.01.22.07-.01.14-.01.2.4.02.7-.05.88-.24.59-.6,1.53-.12,1.52.02-.06.45.58.42,1.04.53.58-.16,1.15-.31,1.74-.47.26-.06.75-.02.61-.26-.12-.2-.66-.05-.79-.11-.42-.19-1.07.39-1.31-.1-.32-.03-.7-.02-.75-.25-.27,0-.56.03-.73-.11-.59-.03-1.19-.05-1.78-.1-1.17-.09-2.17.4-3.35.24v.28c.29-.01.59-.04.74.13-.02.16-.03.32-.47.33l.21.35h1.03Z"/><path d="m67.07,3.29c-.15-.05-.25-.15-.1-.19,1.17-.29.6-.6.05-.91l-.45.03v.35s.06.05.06.05l-.05-.05c-.41-.12-1.3.14-1.23-.37-.68.04-1.3-.41-2.06-.06-.11.05-.58-.09-.61-.29l-.72-.05c-.31.29-1.22.4-1.05.84,0,.02-.16.06-.24.09-.53-.7-.76.17-1.18.05v.12c1.23.65,1.52.05,1.96-.35l.09-.03-.1.03c.25.06.7.11.71.17.12.88,1.02.33,1.75.28.76-.05,1.63-.22,2.3.16.33.1.28.41.85.38l.02-.25Z"/><path d="m28.06,2.43l.45.12c1.1.09,1.08.47.96.87.36.14.34-.09.52-.12-.32-.55.22-1.02,1.22-1.07-.23-.28-.24-.56,0-.84-.25-.29-.46-.09-.68,0,.15.06.18.16-.02.17-.27.02-.22-.12-.25-.21-.58-.4-1.44-.14-2.06-.13-1.01.02-2.12-.19-3.08.12v.17s.71.06.71.06c.22-.21.42-.1.62,0l.83.25c.06-.16.11-.33.57-.3.3.02.48.13.62.26.34.3-.13.46-.43.64Z"/><path d="m147.55,2.03c.24.49.89-.09,1.31.1.14.06.67-.09.79.11.14.24-.35.19-.61.26-.58.16-1.16.31-1.74.47l.21.21h.28c.78-.36,1.78-.16,2.66-.27.21-.14.16-.28.05-.43-.18-.27.09-.4.66-.39v-.12c.02-.17.18-.25.53-.23.07,0,.14,0,.21-.02-.07-.12-.4-.24.02-.35l-.02-.12c-1.39-.06-2.78-.18-4.18.02.23.27.64.55-.18.77Z"/><path d="m127.57,3.27c.29-.01.27.48.78.11.38-.28.75.11,1.13,0,.1-.47.62-.38,1.17-.21.46.14.84.07,1.19-.09.36-.17.52-.36.13-.57-.51-.02-.99-.18-1.54-.08-1.72.32-1.9.31-3.28-.05-.03,0-.1-.02-.11-.01-.7.45-1.77-.18-2.48.22.07.21.08.44.56.54.02-.15.13-.17.46-.15.7.05,1.35.14,1.98.29Z"/><path d="m147.55,2.03c.82-.22.4-.5.18-.77-.54-.13-.91-.37-1.68,0-.56.26-1.68,0-2.57.04-1.21.05-2.47.16-3.69,0-.53-.07-.89-.04-.83.29.06.33.49.31.97.25l1-.03c1.18.16,2.18-.33,3.35-.24.59.05,1.19.07,1.78.1.14-.06.3-.17.43-.16.27.02.3.16.31.28.05.23.43.22.75.25Z"/><path d="m61.45,2.55c-.43.4-.73,1-1.95.35l-.98.15c-.26.09-.53.17-.47.36.46.31,1.06.08,1.57.08,1.93-.02,3.85.14,5.79-.04.52-.05.59-.16.79-.3-.67-.38-1.54-.22-2.3-.16-.73.05-1.63.6-1.75-.28,0-.06-.46-.11-.7-.17Z"/><path d="m110.93,1.61c-.12.15-.21.3-.35.44-.47.46-.41.35.57.48,1.63.22,3.25-.02,4.86.09.49.03,1.13.08,1.02-.35-.92-.45-1.91-.38-3.01-.15-.71.15-1.25.06-1.11-.41-.71.2-1.3-.14-1.98-.1Z"/><path d="m124.56,2.6c.71-.4,1.78.23,2.48-.22,0,0,.07,0,.11.01,1.38.36,1.57.37,3.28.05.55-.1,1.02.06,1.54.08-.22-.39-.46-.77-1.31-.96l-.62.25c-.23.25-.58.23-1.08.19-.61-.05-1.34,0-1.87-.03-1.06-.05-2,.36-3.01.11l.27.5c.07,0,.13,0,.2.01Z"/><path d="m136.95,1.82c-.31.38-.57.73.7.77.41.01.15.17.12.27-.62.24-1.32.1-1.76-.05-1.14-.39-1.39-.05-1.63.39l-.23.03c-.75-.21-1.97-.31-.82-.94.21-.11.2-.32.29-.49.64-.01,1.29-.04,1.93-.03.42,0,.73-.01.77-.26l.72.03c-.03.1-.02.2-.09.29Zm-2.05.36s-.07-.01-.13.03c.04,0,.07,0,.13-.03Z"/><path d="m6.62,2.76c-.36-.36-1.65.12-1.64-.38,0-.25.52-.53.75-.83.23-.31,1.22-.37,2-.32.35.03.69.14,1.04.15.34.02.75.22,1,.03.27-.2-.67-.12-.49-.36-1.15-.42-2.59.04-3.77-.35-.38-.12-.3.23-.6.27-.29.14,1.02.34-.06.45-.37.37-1.32.57-1.18,1.08.22.03.51.04.66.11.36.18.34.8,1.27.24,0,0,.33.15.53.18.6.11,1.17.07,1.68-.12-.17-.48-.84,0-1.18-.16Z"/><path d="m3.43,1.08c-.3-.02-.51-.09-.67-.23-.38-.34-1.12-.56-1.69-.35C.55.69.08,1.02.02,1.42c-.12.73.53.97,1.97.85.35-.03.79.15,1.19.24.44-.29.28-.59-.19-.8-.48-.21-.92-.06-1.26.18-.13.09-.7.23-.65-.04.05-.24-.28-.46-.07-.69.13-.14.2-.32.59-.34.41-.02.58.14.62.3.05.18.1.32.56.31.44-.01.66-.12.66-.34Z"/><path d="m124.09,2.09c1.01.25,1.95-.17,3.01-.11.52.03,1.26-.01,1.87.03.5.04.85.06,1.08-.19-.86-.6-2.13-.25-3.18-.27-1.57-.03-3.17.25-4.7-.12l-.12.16c.23.18,1.03.39-.19.48-.4.03-.62.23.06.3.72-.1,1.24-.6,2.17-.27Z"/><path d="m68.74,1.59c.02.38.33.57,1.07.32.54-.18.89-.12,1.33.08.44.21,1.2-.21,1.62.16,1.05-.36,2.19-.04,3.29-.09.37-.02.59-.04.76-.19-1.01-.33-2.1-.35-3.27-.29-.75.03-1.51.06-2.33-.08-.71-.12-1.63.05-2.46.09Z"/><path d="m21.21,1.43h.53s.78.34.78.34l.33.02,1.09-.24c-.63-.61-1.91-.43-2.82-.46-1.82-.06-3.66.08-5.49.14l-.49.12c.82.42,1.7.5,2.67.14.78-.11,1.61-.32,2.04.26h.35s.25-.03.25-.03c0-.09-.01-.13-.02-.17l-.08-.09.17.04.68-.08Z"/><path d="m156.4,1.41c.7.05,1.39.13,2.09,0,.56-.02,1.09,0,1.5.21.37,0,.56-.01.75-.02.89.03,1.75-.19,2.7.01.49.11.75-.27.89-.51-2.68-.09-5.36-.09-8.05.1l.1.21Z"/><path d="m137.78,2.85c-.62.24-1.32.1-1.76-.05-1.14-.39-1.39-.05-1.63.39,1.87.11,3.74.32,5.6-.05.45-.09.73.17,1.1.13.5-.06,1.28.09,1.37-.36h-1.03s-1.7-.09-1.7-.09l-1.94.04Z"/><path d="m174.84,2.01c-.02.2.14.46-.64.38-.49-.05-.9.03-.81.35,2,.22,4.01.44,6.08.11v-.17s-.09-.14-.09-.14c-.04.01-.08.01-.12.01-.35.08-.69.16-.8-.12-.06.01-.13.01-.19.01l-.73-.1c-.11.24-.35.29-.75.14-.43-.03-.88.26-1.27.03-.13-.08.06-.21.27-.28l.02-.11-.24-.24c-.43-.23-.47.12-.73.13Z"/><path d="m134.15,3.22c-.75-.21-1.97-.31-.82-.94.21-.11.2-.32.29-.49-.36-.03-.24-.17-.26-.27l-.48.04c.15.26-.47.37-.48.6l.32.05s-.07.04-.07.04l-.26-.09c-.42-.16-.17-.39-.26-.59-.48-.29-.98-.33-1.48,0,.85.18,1.09.56,1.31.96.38.21.23.4-.13.57-.35.16-.73.24-1.19.09-.55-.17-1.07-.26-1.17.21,1.23.06,2.48-.15,3.7.05.48.08.73-.06.98-.22Z"/><path d="m121.92,2.35c-.68-.07-.46-.27-.06-.3,1.21-.09.42-.29.19-.48-.21.23-.59.06-.88.1.03.15-.19.37-.37.31-.89-.3-1.51.18-2.29.15-.41.19-.43.03-.47-.12-.42-.19-.52-.02-.64.14.04,0,.1.01.11.02.17.38.76.4,1.39.37.87-.04,1.49.39,2.39.32.02,0,.12.21.17.32l.95.22.5.13.06-.34c-1.08-.06-1.14-.42-1.06-.84Z"/><path d="m108.83,3.28c-.5.01-.59-.24-.91-.34-.21-.07-.41-.14-.29-.28.1-.11.31-.1.51-.11.24-.01.54.01.7-.05.3-.12.77-.32.72-.43-.13-.26-.56,0-.86-.02-.18-.01-.35-.07-.53-.1-.23-.19-.44,0-.66.01-.37.1-.76.24-.65.44.42.79-.71.79-1.73.87.12.17.65.09.7.31.83-.13,1.63.1,2.47.06.6-.03.47-.2.54-.35Z"/><path d="m118.51,2.13c.77.04,1.4-.45,2.29-.15.18.06.4-.15.37-.31-1.55-.03-3.09,0-4.64.08-.78.04-1.59-.03-2.36-.11-.47-.05-.84,0-1.25.06-.13.47.41.56,1.11.41,1.1-.23,2.09-.3,3.01.15l.36-.13c.12-.15.22-.33.64-.13l.47.12Z"/><path d="m137.78,2.85l1.94-.04.02-.25c-.26,0-.5-.04-.46-.19.04-.15.31-.15.55-.16.09-.12.09-.25.1-.38-.48.06-.91.08-.97-.25-.62-.13-1.26-.13-1.91-.05-.03.1-.02.2-.09.29-.31.38-.57.73.7.77.41.01.15.17.12.27Z"/><path d="m58.51,3.05l.98-.15v-.12s-.05-.05-.05-.05l.05.05c.42.12.65-.76,1.18-.05.08-.03.25-.07.24-.09-.17-.44.73-.55,1.05-.84-.05-.14-.27-.12-.47-.12-.26.19-.67.13-1.03.15-.27-.08-.44.42-.58.08-.15-.36-.6-.13-.85-.22-.43.24-.62.1-.77-.12-.25-.05-.56-.29-.71.04l-.11.19c.3.08.45.28.86.28.29.08.18.22.2.34,1.3.22-.17.43,0,.64Z"/><path d="m178.73,1.12c.42.21.9.35,1.29.61.81.53,2.32.29,2.95-.35-.6.01-1.27.05-.85-.43-1.15-.08-2.3-.16-3.39.17Z"/><path d="m58.52,2.42c1.3.22-.17.43,0,.64-.26.09-.53.17-.47.36-.74.03-1.53.37-2.2-.09-.03-.02-.04-.05-.03-.08.98-.37,1.06-.9,1.01-1.45h.63c.3.08.44.28.86.27-.03.13-.04.25.2.34Zm-.78.39c.16.06.31-.05.26-.11-.1-.14.4-.4-.35-.4-.37.06-.34.15-.07.25.05.09.05.21.17.26Z"/><path d="m75.58,3.45c-.23,0-.42-.24-.67-.04-.58.44-.63.05-.81-.12-.17-.04-.39-.13-.51-.11-.46.09-.89.23-1.23-.08-.28-.25.11-.39.39-.56.5-.3.88-.16,1.28.05.25.13.67.18.87.08.7-.35,1.01-.02,1.43.16l-.75.62Zm-2.72-.47s.09-.02.09-.03c.01-.03,0-.06,0-.09l-.19.05s.06.05.11.07Z"/><path d="m170.13,2.58c-.99.03-2.03-.13-2.91.27-.22.1-.54-.02-.76-.09-.4-.13-.68-.07-.89.12.84.39,1.85.23,2.79.15,1.22-.11,2.38.33,3.61.04.18-.04.4-.04.48-.16-.25-.27-.68-.34-1.17-.17-.59.21-.87.06-1.15-.16Z"/><path d="m3.43,1.08c0,.22-.22.33-.66.34-.45.01-.51-.13-.56-.31-.04-.17-.22-.32-.62-.3-.39.01-.46.2-.59.34-.21.23.12.45.07.69-.05.28.52.13.65.04.34-.24.79-.38,1.26-.18.47.2.63.51.19.8.16.08.32.13.49,0-.14-.5.82-.71,1.18-1.08-.26-.11-.49-.23-.5-.41l-.91.05Z"/><path d="m80.23,2.95c.64.29,1.28.42,1.93,0,.38-.36,1.54-.27,1.74-.73l-.09-.4c-.42-.13-.81-.1-1.15.07-.06.07.1.18-.15.22l-.08-.22c-.07-.02-.15-.03-.23-.02-1,.07-.8.73-1.71.84-.21.05-.26.14-.25.24Z"/><path d="m147.52,3.17l-.21-.21c-.46-.11-1.1-.09-1.04-.53.02-.14-.93-.62-1.52-.02-.18.19-.48.26-.88.24.02.03.03.06.03.1v.37c1.18.14,2.37.39,3.62.06Z"/><path d="m158.99,3.16c.09-.33-.44-.41-.87-.46-.93-.12-2.01-.3-2.82-.1-.56.14-.94.16-1.49.15-.33,0-.14.22-.17.35,1.17.08,2.31.24,3.53.02.53-.09,1.2.02,1.81.04Z"/><path d="m66.56,2.21l.45-.03c.24-.17.58-.32.52-.56-1.22-.18-2.52.12-3.76-.23-.5-.14-.65.33-1.1.45.02.2.5.34.61.29.76-.35,1.38.1,2.06.06.44-.71.81.11,1.22.02Z"/><path d="m87.1,2.97h.37c.23-.26.22-.25-.17-.34-.17-.04-.39-.1-.43-.18-.13-.26.55-.18.66-.36l-.51-.24-.8-.08-1.63.45c1.11.37,1.09.46-.23.92.56.6.99.23,1.43-.05.43-.05.64-.7,1.31-.12Z"/><path d="m105.12,3.26c1.02-.08,2.15-.08,1.73-.87-.11-.2.28-.34.65-.44-.12-.41-.63-.07-.94-.12-.22.38-.36.81-1.53.5-.19-.05-.51-.03-.58.12-.08.16.16.2.41.22l.11-.02-.1.03.26.58Z"/><path d="m55.85,3.33s-.04-.05-.03-.08c-.11-.19-.86-.08-.72-.38-.19-.32-.48-.27-.77-.04-.26.2-.48.43-.86.04-.29.07-.5-.25-.77-.06-.35.23-.06.44.23.64.99.04,2.04.4,2.92-.12Z"/><path d="m41.16,3.21c-.33-.27-1.16-.24-1.39-.68-.11-.21-1.16.18-1.73.35-.09.03-.16.08-.23.13v.35c.87.27,1.69-.18,2.55-.03l.64-.05c.08,0,.14-.03.16-.07Z"/><path d="m174.58,1.05c.34.36,2.56.8,3.26.65.7-.15.25-.45.38-.68-.44.06-.89.21-1.32-.02-.09-.05-.4-.09-.42-.07-.56.43-1.28.05-1.91.12Z"/><path d="m6.62,2.76c.34.16,1.01-.31,1.18.16.35.21.69.09,1.04.01.58-.33,1.49-.14,2.17-.31-.13-.2-.11-.44-.84-.25-.44.12-1.07.06-1.62.09l-.3.15-.09-.07.38-.09c-.45-.09.95-.82-.71-.48-.06.19.15.44-.5.47-.13.16-.73.07-.7.32Z"/><path d="m159.48,2.83c-.01.06.07.14-.14.16,1.48.06,3.05.47,4.32-.3l-.04-.15h-.97c-1.06.11-2.11.21-3.18.3Z"/><path d="m11,2.63c-.68.17-1.59-.02-2.17.31.07.38.61.08.89.12,1.06.14,2.15.05,3.22-.04-.21-.67-1.26-.3-1.94-.39Z"/><path d="m28.52,2.93c-.76-.04-1.62.11-2.13-.37-.19-.18-.48-.08-.52.1-.03.13.02.28-.3.36-.11.38.53.27.87.3.76.05,1.54.04,2.31.06-.06-.15.13-.33-.23-.45Z"/><path d="m32.43,1.66c.53.11,1.08.24,1.47-.09.25-.21.39-.08.61.01.74.31,1.47.34,2.17-.03-.69-.34-1.55-.29-2.39-.26-.62.02-1.23.07-1.85.1v.26Z"/><path d="m97.07,1.59c-.17.24-.69.59.53.4.64-.1.93.13,1.26.33.16.1.06.39.56.28.41-.09.31-.29.24-.47-.07-.17-.11-.35-.17-.52l-2.42-.03Z"/><path d="m49.25,3.3c.08-.35.1-.67-.96-.46l-.74.23h-.46c-.2.13-.47.11-.74.1l-.28.27c-.02.24.3.18.56.15l2.62-.29Z"/><path d="m87.02,1.85l.51.24c.69-.05,1.42-.32,2.01.13.15.12.59-.06.56-.09-.12-.17.83-.24.16-.43-1.08.08-2.25-.36-3.25.15Z"/><path d="m49.02,2.13c.27-.1.67-.32.78-.29.45.13.02.24-.13.36-.11.08.03.15.21.15.21,0,.44-.04.44-.15,0-.17-.06-.35-.09-.52-.88-.34-1.88-.27-2.88-.22l-.03.3s.01.06,0,.1h.27c.64-.12,1.25-.21,1.43.27Z"/><path d="m80.48,2.71c.92-.11.72-.77,1.71-.84-.51-.3-1.03-.56-1.7-.09-.08.08-.12.23-.23.24-1.61.16-.43.37-.05.56.04-.08,0-.2.28-.19l-.06.2.04.11Z"/><path d="m102.41,3.42c-.21-.23-.63-.5-1.05-.27-.81.44-2.29-.23-2.83.48,1.32.05,2.61-.02,3.88-.21Z"/><path d="m122.41,3.39l-.95-.22-.5-.1c0,.29-.41.27-.81.26-.94-.28-1.82-.23-2.64.12.08.13.34.25.51.21,1.42-.31,3.01.16,4.39-.28Z"/><path d="m11.01.98c.04.39.2.68,1.14.35.7-.25,1.57.3,2.25-.09-1-.54-2.23-.25-3.39-.26Z"/><path d="m153.39,1.36c.33.41.98.68,1.68.92-.14-.41.22-.74.7-1.06-.5-.21-.94-.02-1.39.06-.24.33-.64.11-.99.08Z"/><path d="m21.49,3.11c-.85-.48-2.62-.46-3.68.04,1.05.23,2.1.04,3.16.05.03-.24.29-.15.53-.09Z"/><path d="m70.72,2.94c-.28.01-.48.07-.47.23l.31.08.07.13-.23-.04-.19-.15c-.29,0-.43.08-.46.22.89.05,1.66.45,2.65.23-.09-.43-.92-.48-1.46-.68h-.21Z"/><path d="m114.17,3.19c-1.12-.02-2.23-.02-3.18.35.38.21.73.3,1.29.08.71-.27,1.59-.02,2.38-.12l-.05-.27c-.14-.01-.29-.03-.44-.04Z"/><path d="m31.22,2.23c-1,.05-1.54.53-1.22,1.07l.98.02c-.15-.27.58-.39.44-.65-.28-.13-.16-.29-.19-.44Z"/><path d="m84.59,2.22l1.63-.45c-.82-.2-1.64-.35-2.41.05l.09.4h.69Z"/><path d="m56.83,1.81h.63s.11-.2.11-.2c-.91-.08-1.84-.28-2.68.08.27.21.83.3.93.58.18-.05.32-.09.47-.12.04-.17.06-.34.54-.34Z"/><path d="m32.43,1.66v-.26s-1.2-.01-1.2-.01c-.25.28-.24.56,0,.84.59.03.45.25.46.43.09.09.23.18.46.14.27-.05.11-.17.06-.25-.18-.32-.53-.64.23-.89Z"/><path d="m67.07,3.29l-.02.25c.83.02,1.74.39,2.44-.13-.12-.22.06-.69-.86-.22-.4.21-1.09-.14-1.57.1Z"/><path d="m122.97,3.19l-.06.34c.94.23,1.8-.01,2.67-.15l-.46-.24c-.48-.11-.49-.33-.56-.54-.07,0-.13-.01-.2-.01,0,.46-.14.84-1.39.6Z"/><path d="m133.63,1.79c.64-.01,1.29-.04,1.93-.03.42,0,.73-.01.77-.26-.86-.3-1.81,0-2.7-.08,0,.12,0,.24,0,.36Z"/><path d="m125.13,3.14l.46.24c.7.15,1.42.43,1.98-.1-.63-.15-1.28-.24-1.98-.29-.33-.02-.44,0-.46.15Z"/><path d="m51.69,3.33s-.03-.08-.08-.11c-.35-.2.99-.49-.02-.56-.73-.05-1.2.31-1.14.72.43.06.88.27,1.24-.05Z"/><path d="m170.13,2.58c.28.22.56.37,1.15.16.49-.17.92-.1,1.17.17.17-.03.39-.01.45-.13l-.43-.4c-.76-.1-1.51.04-2.27.05l-.07.15Z"/><path d="m182.12.95c-.41.48.25.44.85.43.44.05.72-.06.9-.25l-.02-.31c-.57.09-1.14.18-1.74.13Z"/><path d="m150.46,2.91c-.88.11-1.88-.09-2.66.27.89.29,1.77-.04,2.66-.03v-.24Z"/><path d="m93.37,1.61c.13.89,1.16.18,1.76.24-.04-.17.13-.43-.59-.31-.36.06-.77.05-1.16.07Z"/><path d="m50.72,1.65c.09.18,0,.46.54.46.74,0,.3-.44.73-.59-.59-.34-.85.08-1.27.13Z"/><path d="m23.94,1.55l-1.09.24c.68.05.72.31.82.57.05.15.22.26.54.26.12,0,.31-.06.35-.11.11-.15-.16-.19-.36-.25-.75-.22.61-.47-.04-.69-.07-.02-.14-.02-.22-.02Z"/><path d="m183.46,2.48c-.48.16-1.15-.66-1.51.09q.21.44,1.51-.09Z"/><path d="m43.89,2.09c-.64-.1-.6-.39-.74-.63-.5-.02-1.05-.2-1.46.1v.14c.37.06,1.01-.05,1.06.19.13.53.64.31,1.14.2Z"/><path d="m45.39,1.43c-.31.38.43.48.77.68l.38-.23.3-.49c-.5-.07-.94.22-1.46.05Z"/><path d="m102.4,1.97v-.34c-.46-.1-.91-.19-1.41-.07,0,.18-.17.43.51.4.51-.02.75.09.73.34.22-.09.15-.21.17-.32Z"/><path d="m155.77,1.22c-.48.32-.84.65-.7,1.06.49-.27,1.22-.46,1.32-.87l-.1-.21-.52.03Z"/><path d="m28.52,2.93c.36.12.17.3.23.45l.73.05c.12-.41.14-.78-.96-.87v.37Z"/><path d="m114.61,3.23l.05.27c.47.01.88-.07,1.22-.23-.31-.82-.79-.39-1.27-.04Z"/><path d="m168.71,1.08c0,.08-.05.17,0,.24.14.2-.56.58.2.59.67,0,.09-.34.18-.53.03-.05.25-.08.38-.12-.16-.15-.31-.31-.76-.17Z"/><path d="m153.39,1.36c.35.03.75.25.99-.08l-.53-.06c-.2.01-.37,0-.47-.1l-.99.12.21.13h.79Z"/><path d="m198.73,2.2s.02-.08,0-.12c-.09-.18.27-.49-.33-.5-.2,0-.58.37-.18.6l.51.02Z"/><path d="m132.41,2.15c.01-.23.63-.34.48-.6l-.75.02c.09.2-.17.43.27.58Z"/><path d="m4.34,1.03c.01.18.25.3.5.41,1.08-.1-.23-.31.06-.45-.05-.03-.11-.05-.19-.03h-.32c-.07.02-.09.04-.06.07Z"/><path d="m41.5,3.09l-.49.12c.21.27.8.19,1.17.31l.03-.24-.02-.24c-.13-.01-.23-.01-.33-.01-.04.14-.2.1-.36.06Z"/><path d="m105.82,3.57c-.04-.22-.57-.14-.73-.29l-.39.1.31.16c.26.07.52.09.8.03Z"/><path d="m58.28,1.57c.14.22.34.36.77.12-.2-.12-.29-.44-.77-.12Z"/><path d="m143.62,2.77l-.77.13c-.03.32.39.24.77.2v-.34Z"/><path d="m60.46,1.83c.36-.01.77.05,1.03-.15-.52-.25-.8-.1-1.03.15Z"/><path d="m201.31,2.39c-.24-.15-.52-.16-.83-.04.27.05.44.51.83.04Z"/><path d="m152.6,1.37l-.21-.13h-.49s.02.13.02.13c.22.13.45.15.67,0Z"/><path d="m38.32,1.63s0,.04-.03.06c.04-.02.07-.03.11-.03l.07-.26-.15.23Z"/><path d="m153.38,1.12c.09.1.27.12.47.1,0-.2-.16-.23-.47-.1Z"/><path d="m30.28,1.36c.03.09-.02.22.25.21.2-.01.16-.11.02-.17l-.27-.04Z"/><path d="m42.22,3.29l-.03.24c.25-.04.42-.11.51-.24h-.48Z"/><path d="m41,3.28l-.64.05c.27.16.48.15.64-.05Z"/><path d="m133.62,1.78v-.36c-.16-.02-.24.01-.25.09.02.1-.09.24.25.26Z"/><path d="m82.43,1.89l.08.22c.26-.04.1-.15.15-.22-.08-.02-.15-.02-.23,0Z"/><path d="m21.49,3.11c-.24-.06-.5-.15-.53.09.22.04.44.07.53-.09Z"/><path d="m170.21,2.43c.76,0,1.5-.15,2.27-.05.26-.01.38-.09.4-.21l.03-.37c-.42-.02-.56-.12-.41-.32.07-.09.16-.21-.11-.23-.16-.01-.51.08-.51.12.06.52-1.05.55-1.48.85-.09.06-.12.14-.18.21Z"/><path d="m186.02,2.2c.52.11,1.03.25,1.53-.04-.87-.02-.17-.52-.78-.62l-.98-.2c.13.28.65.54.22.86Z"/><path d="m159.99,1.62c-.41-.21-.95-.23-1.5-.21.02.14-.06.31.08.4.18.13-.55.34.12.35.46,0,.37-.2.31-.36-.02-.07-.03-.33.27-.09.55.45.43-.18.72-.1Z"/><path d="m177.54,2.34l.73.1c.09-.14.72-.27.16-.42-.59-.16-.78.08-.9.31Z"/><path d="m175.79,2.22c-.21.07-.41.21-.27.28.4.24.84-.06,1.27-.03-.04-.35-.61-.22-1-.26Z"/><path d="m162.66,2.54h.97c-.06-.23-.36-.33-.75-.3-.3.02-.2.19-.22.3Z"/><path d="m151.9,1.72c-.07.01-.14.02-.21.02l-.03.22c.29-.02.66.03.79-.18l-.55-.07Z"/><path d="m178.46,2.43c.11.28.45.2.8.12l-.03-.25c-.26.04-.51.09-.77.13Z"/><path d="m173.76,1.29c-.05-.02-.1-.04-.15-.06l-.14.12c.06.01.14.04.19.03.05,0,.07-.05.1-.09Z"/><path d="m160.74,1.6h-.56c.07.08.13.19.22.2.27.02.27-.11.34-.2Z"/><path d="m175.57,1.88l.24.24c.37-.19.08-.22-.24-.24Z"/><path d="m179.23,2.3c.13-.02.32.01.32-.1,0-.02-.1-.07-.14-.07-.22,0-.16.1-.18.17Z"/><path d="m172.9,1.8l-.03.37c.31-.12.34-.24.03-.37Z"/><path d="m166.25,1.69c0,.05.04.05.08.06,0-.05-.04-.05-.08-.06Z"/><path d="m151.17,1.96v.12s.49-.13.49-.13c-.16,0-.33,0-.49,0Z"/><path d="m174.83,2.01l-.06-.05s.04.03.06.05Z"/><path d="m179.38,2.54l.07.14c.21-.08.17-.12-.07-.14Z"/><path d="m28.06,2.43c.3-.19.76-.35.43-.64-.14-.13-.32-.24-.62-.26-.45-.03-.5.14-.57.3.23.19.35.39.14.61-.09.1-.07.2.19.22.32.02.37-.1.42-.22Z"/><path d="m7.32,2.45c.65-.03.44-.29.5-.47-.24-.02-.58.06-.61-.17-.02-.12-.25-.26-.46-.22-.22.04-.43.18-.5.3-.13.2.29.11.43.16.26.11.44.27.66.4Z"/><path d="m19.85,1.75c-.44-.58-1.26-.37-2.04-.26.57.32,1.21.48,2.04.26Z"/><path d="m20.46,1.72l-.25.03s-.07.08-.13.1c-.47.14-.78.3-.3.57.13.07.47.15.41.03-.14-.28,1.4-.37.27-.72Z"/><path d="m25.85,1.58l-.7-.06c0,.16-.6.39.02.48.46.07.79-.14.68-.41Z"/><path d="m22.52,1.77l-.78-.33c.02.14-.41.28-.05.41.28.1.59.04.83-.08Z"/><path d="m8.82,1.86c.14.05.23.1.31.1.09,0,.18-.05.27-.08-.07-.04-.14-.1-.23-.1-.09,0-.19.04-.35.08Z"/><path d="m21.21,1.43l-.68.08-.1.05.03.12c.3-.04.75.02.75-.25Z"/><path d="m26.47,1.58c-.2-.1-.4-.22-.61,0h.61Z"/><path d="m10.31,1.28c.07.03.1.01.14,0-.02-.01-.05-.02-.14,0Z"/><path d="m93.15,3.3c.27-.02.58.01.75-.14.12-.37.94-.11,1.27-.34.12-.09.54.28.72.01.11-.16-.3-.31-.55-.44-.26-.13-.46-.16-.81-.02-.45.17-.96.29-1.36-.09-.24-.23-.67-.06-.93.03-.44.15-.08.25.17.35.41.16.81.34.74.64Z"/><path d="m102.4,1.97c-.02.11.05.24-.17.32-.06.14-.65.17-.36.38.1.07.34.15.5.14.52-.03.17-.25.29-.38.06-.07.11-.15.21-.21.19-.11.74-.18.53-.33-.24-.17-.63.1-.99.07Z"/><path d="m100.62,2.45c-.05-.02-.1-.04-.15-.06l-.14.11c.06.01.13.04.19.03.05,0,.07-.05.11-.08Z"/><path d="m88.52,3.19h-.24c.08,0,.16,0,.24,0Z"/><path d="m195.06.98c.05.1.07.23.39.12-.05-.11-.2-.12-.39-.12Z"/><path d="m77.77,3.17h.5c0-.14-.11-.36.05-.42.27-.11.51-.18.42-.36-.04-.09-.19-.05-.25,0-.22.16-.94.11-.75.44.06.11.02.23.03.35Z"/><path d="m76.33,2.82c.15.11.16.28.51.29.05,0,.17-.09.16-.13-.07-.19-.41-.15-.67-.16Z"/><path d="m70.72,2.94h.21c0-.08.05-.18-.24-.2l.02.2Z"/><path d="m80.45,2.6l.06-.2c-.29,0-.25.1-.28.19h.23Z"/><path d="m79.25,2.95l-.09-.16c-.24.09,0,.11.09.16Z"/><path d="m186.78,1.54c.61.1-.09.6.78.62.31,0,.54-.09.7-.21.34-.25.77-.49.11-.77-1.03-.44-1.06.24-1.59.36Z"/><path d="m190.87,1.1c-.35.04-.92-.21-.88.18.01.13.16.36.56.29.38-.08.95-.26.97-.4.04-.29-.46,0-.64-.06Z"/><path d="m190.5,2.05c.28.14.45.3.65.31.25,0,.7,0,.72-.23,0-.13-.16-.25-.43-.23-.29.01-.57.09-.94.15Z"/><path d="m193.84,1.09c.03.09.04.2.29.17.08,0,.12-.11.18-.17h-.47Z"/><path d="m189.52,1.55c.08-.04.03-.05-.02-.05l.02.05Z"/><path d="m193.37.98h.11s.11,0,.11,0c-.08-.06-.15-.07-.22,0Z"/><path d="m37.32,1.93c.05.2.3.27.66.21.45-.07.28-.28.32-.44-.44-.03-.46.35-.98.23Z"/><path d="m31.68,2.67c-.01-.18.13-.4-.47-.44.04.15-.09.32.2.44h.27Z"/><path d="m37.31,1.93l-.05-.05s.04.03.05.05Z"/><path d="m114.17,3.19l.44.04c-.08-.09.15-.26-.21-.26-.2,0-.25.12-.24.22Z"/><path d="m120.16,3.33c.4.01.81.04.81-.26-.3.06-.63.1-.81.26Z"/><path d="m43.89,2.09c-.5.11-1.01.33-1.14-.2-.06-.24-.69-.13-1.05-.19.2.27.35.56.59.82.52.56,1.49.63,2.28.16.1-.06.15-.15.27-.18.45-.11.48-.52.04-.68q-.19-.07-.29.2c-.05.12-.04.29-.38.29-.1,0-.22-.14-.33-.22Z"/><path d="m47.59,1.87h-.27c-.47.42.25.8.23,1.21l.74-.23c.07-.38-.9-.58-.7-.98Z"/><path d="m46.35,3.18c.27,0,.54.03.74-.09,0-.02,0-.05-.02-.06-.33-.13-.26-.54-.67-.47-.6.1.07.4-.05.61Z"/><path d="m45.05,2.79c-.07.04-.15.07-.15.09.02.07.07.13.11.2.03-.03.09-.07.09-.1,0-.05-.03-.11-.06-.18Z"/><path d="m41.5,3.09c.16.03.33.07.36-.06-.15-.02-.37-.13-.36.06Z"/><path d="m42.2,3.04l.1-.06s-.09.03-.1.06Z"/><path d="m84.59,2.22h-.69c-.21.47-1.36.38-1.74.74.04.16-.06.37.5.35-.24-.23.17-.34.42-.41.31-.08.46.09.58.21l.7.02c1.32-.46,1.34-.55.23-.92Z"/><path d="m83.66,3.11c-.12-.13-.27-.3-.58-.21-.26.07-.66.18-.42.41.38,0,.85.09,1-.2Z"/><path d="m87.1,2.97c-.67-.58-.88.07-1.31.12.53.22.93.07,1.31-.12Z"/><path d="m88.52,3.19h-.25c.08.11.17.11.25,0Z"/><path d="m56.83,1.81c-.48,0-.51.17-.54.34.07.24-.18.19-.45.12-.15.24-.05.54-.74.61-.14.3.62.19.72.38.98-.37,1.06-.9,1.01-1.44Z"/><path d="m49.02,2.13l-.31.04c.17.11.22,0,.31-.04Z"/><path d="m139.91,2.22c-.12.11-.15.22-.18.34.49,0,.98-.01,1.47-.02.44-.01.45-.17.47-.33-.26-.02-.59.03-.74-.13l-1.02.14Z"/><path d="m146.79,1.78c-.01-.12-.04-.26-.31-.28-.12,0-.28.1-.43.16.18.14.46.11.73.11Z"/><path d="m140.93,2.08c.16.16.48.11.74.13-.15-.17-.45-.14-.74-.13Z"/><path d="m143.87,2.65c0-.07.23-.14.01-.2-.02,0-.09,0-.11.01-.14.09-.06.14.1.19Z"/><path d="m66.56,2.21c-.41.09-.78-.73-1.22-.02-.07.51.82.24,1.23.37v-.35Z"/><path d="m61.45,2.55l.1-.03s-.06.02-.1.03Z"/><path d="m66.57,2.56l.05.05-.05-.05Z"/><path d="m151.17,1.96h.5s.03-.23.03-.23c-.35-.02-.52.06-.52.23Z"/><path d="m122.97,3.19c1.25.23,1.39-.15,1.39-.6l-.27-.5c-.93-.33-1.45.17-2.17.27-.09.41-.02.78,1.06.84Z"/><path d="m134.78,2.21h.11s-.05-.04-.11,0Z"/><path d="m132.4,2.16l.26.09s.05-.03.07-.04c-.11-.02-.21-.03-.33-.05Z"/><path d="m118.51,2.13l-.47-.12c.03.15.06.32.47.12Z"/><path d="m139.73,2.56l.09-.35c-.24,0-.51,0-.55.16-.04.16.19.19.46.19Z"/><path d="m58.31,2.08c-.03.13-.04.25.2.34-.03-.12.08-.26-.2-.34Z"/><path d="m59.5,2.78l-.05-.05.05.05Z"/><path d="m57.57,2.55c.05.09.05.21.17.26.16.06.31-.05.26-.11-.1-.14.4-.4-.35-.4l-.07.25Z"/><path d="m57.57,2.55l.07-.25c-.37.06-.34.15-.07.25Z"/><path d="m72.75,2.9s.06.05.11.07c0,0,.09-.02.09-.03.01-.03,0-.06,0-.09l-.19.05Z"/><path d="m104.86,2.68l.1-.03s-.07.02-.1.03Z"/><path d="m8.53,2.46l-.38.09.09.07c.1-.05.2-.1.29-.16Z"/><path d="m70.56,3.25l-.31-.08c.02.07.09.12.15.17l.16-.09Z"/><path d="m55.83,2.26c.27.07.52.12.45-.12l-.45.12Z"/>
                  </g>
                </mask>
              </defs>
              <path class="mask" d="m0,1.85c63.32.91,127.87.81,193.61-.42,4.68-.09,9.35-.18,14.01-.28"
                    mask="url(#path-mask)" stroke="black" stroke-width="2" fill="none"
                    stroke-dasharray="207.632080078125" stroke-dashoffset="207.632080078125">
              </path>
            </svg>
        