
            <svg xmlns="http://www.w3.org/2000/svg">
              <defs>
                <mask id="path-mask">
                  <g fill="white">
                    <path d="m275.07,1.7c1.08-.15.39-.45.6-.68l.78.1c.64.21,1.38.35,1.99.61,1.25.53,3.58.29,4.57-.35.68.05,1.11-.06,1.4-.25.91.17,2.26-.23,2.97.2.2.28,1,.54.33.86-.48.21-1,.32-1.78.14-.64-.15-1.22-.12-1.58.14h-.6c-.74.16-1.77-.66-2.34.09-.23,0-.67-.03-.67-.03-.58.65-1.97.37-3.16.31l-.02-.17c.33-.08.26-.12-.11-.14-.06.01-.12.01-.19.01l-.04-.25c.2-.02.5.01.5-.1,0-.02-.15-.07-.22-.07-.34,0-.25.1-.28.16l-1.18.13c-.1,0-.19.01-.29.01.14-.14,1.11-.27.26-.42-.91-.16-1.21.08-1.39.31-.17.24-.55.29-1.16.14-.06-.35-.93-.22-1.54-.26l.03-.11c.57-.19.12-.22-.37-.24-.67-.23-.72.12-1.14.13l-.09-.05.1.04c-.04.2.21.46-.99.38-.75-.05-1.4.03-1.26.35l-.74.04-.66-.4c.41-.01.58-.09.62-.21.49-.12.53-.24.05-.37-.65-.02-.86-.12-.63-.32.11-.09.26-.21-.17-.23-.25-.01-.79.08-.79.12.08.52-1.63.55-2.3.85-.14.06-.19.14-.28.21l-.12.15c-1.53.03-3.13-.13-4.51.27-.35.1-.83-.02-1.18-.09-.62-.13-1.04-.07-1.38.12l-2.95-.2-.05-.15c-.08-.22-.56-.32-1.16-.29-.46.02-.31.19-.34.3-1.64.09-3.27.19-4.99.24l.07.05c-.02.06.11.14-.21.16-.09.09-.13.19-.55.18.14-.33-.67-.41-1.34-.46-1.44-.12-3.1-.3-4.36-.1-.87.14-1.46.16-2.3.15-.51,0-.23.22-.27.35l-4.93.05v-.24c.33-.14.25-.28.09-.43-.28-.27.14-.4,1.02-.39l.78-.13c.46-.02,1.02.03,1.23-.18l-.85-.07c-.11-.12-.61-.24.04-.35.34.13.69.15,1.04,0h1.23c.51.4,1.5.67,2.59.92.77-.27,1.89-.46,2.05-.87,1.08.05,2.15.13,3.24,0,.03.14-.09.31.12.4.28.13-.85.34.18.35.71,0,.57-.2.49-.36-.04-.07-.04-.33.42-.09.85.45.67-.18,1.4-.1.11.06.19.18.34.18.42.02.42-.11.53-.2,1.38.03,2.72-.19,4.18.01.76.11,1.16-.27,1.39-.51l6.76-.02c0,.08-.07.17,0,.24.21.2-.87.58.3.59,1.03,0,.14-.34.29-.53.04-.05.39-.08.59-.12,1.9-.29,3.96-.26,5.93-.26.58,0,1.51-.33,1.97.06.53.36,3.94.81,5.04.65Zm-6.55-.47l-.21.12c.1.01.21.04.29.03.07,0,.11-.05.16-.09-.08-.02-.16-.04-.24-.06Zm-11.22.47s-.1-.01-.15-.02c0,.05.07.05.15.02Z"/><path d="m27.55,3.15c-2.52.13-5.01-.1-7.52-.13-.33-.67-1.95-.3-3-.39-.21-.2-.18-.44-1.3-.25-.68.12-1.66.06-2.53.08-.7-.09,1.46-.82-1.1-.48-.37-.02-.9.06-.95-.17-.03-.12-.39-.26-.72-.22-.34.04-.66.18-.78.3-.2.2.46.11.66.16.4.11.69.27,1.02.4-.21.16-1.13.07-1.08.32-.56-.36-2.54.12-2.54-.38,0-.25.8-.53,1.15-.83.36-.31,1.88-.37,3.09-.32.55.03,1.06.14,1.61.15.52.02,1.17.22,1.55.03.41-.2-1.04-.12-.77-.36.83-.17,1.71-.24,2.67-.09.07.39.32.68,1.77.35,1.08-.25,2.43.3,3.47-.09h.4s.76.12.76.12c1.27.42,2.64.5,4.13.14.88.32,1.88.48,3.16.26h.55c-.07.03-.11.07-.2.09-.73.14-1.21.3-.46.57.19.07.73.15.64.03-.21-.28,2.17-.37.42-.76.47-.04,1.16.02,1.15-.25h.82c.03.16-.63.3-.07.43.44.1.92.04,1.28-.08l.52.02c1.06.05,1.12.31,1.27.57.09.15.34.26.84.27.19,0,.48-.06.54-.11.17-.15-.24-.19-.57-.25-1.16-.22.94-.47-.07-.69.25-.24.91-.22,1.52-.22v.17c0,.17-.91.39.05.48.71.07,1.21-.14,1.07-.41h.94s1.29.25,1.29.25c.36.19.54.39.23.61-.14.1-.11.2.3.22.5.02.57-.1.65-.22l.7.12v.37c-1.16-.04-2.49.11-3.28-.37-.3-.18-.74-.08-.81.1-.05.13.04.28-.46.36-2.05.32-4.15.34-6.31.09-1.31-.48-4.05-.46-5.7.04Zm-13.42-1.19c.14,0,.27-.05.41-.08-.12-.04-.22-.1-.35-.1-.13,0-.29.04-.54.08.22.05.35.1.48.1Z"/><path d="m150.96,2c.98-.1,1.44.13,1.94.33.25.1.09.39.87.28.63-.09.49-.29.37-.47-.11-.17-.18-.35-.26-.52l2.32-.06c0,.18-.26.43.79.4.79-.02,1.16.09,1.13.34-.09.14-1.01.17-.56.38.16.07.53.15.77.14.81-.03.27-.25.45-.38.1-.07.17-.15.32-.21.29-.11,1.14-.18.82-.33-.37-.17-.98.1-1.53.07v-.34c2.2-.09,4.33.01,6.43.21-.34.38-.57.81-2.38.5-.3-.05-.78-.03-.9.12-.13.16.24.2.65.23.13.19.27.39.35.6l-.6.1.48.16c-1.43.24-2.77.18-4.03-.12-.33-.23-.97-.5-1.63-.27-1.26.44-3.53-.23-4.37.48-1.22-.18-2.52-.05-3.77-.07.05-.42-.91-.48-1.72-.36-.72.11-1.14.07-1.68-.04.19-.37,1.46-.11,1.96-.34.19-.09.84.28,1.12.01.17-.16-.46-.31-.85-.44-.4-.13-.71-.16-1.26-.02-.69.17-1.49.29-2.11-.09-.37-.23-1.04-.06-1.43.03-.69.15-.13.25.27.35.63.16,1.26.34,1.14.64l-.4.11c-.71-.47-2.07-.29-3.23-.34-.45-.02-1.49.15-1.18-.3.07-.11-1.33.07-1.37.19-.08.25-.46.23-.97.23h-.38c-.7.09-1.53.27-1.24-.21.35-.27.34-.26-.26-.35-.26-.04-.61-.1-.67-.18-.2-.26.86-.18,1.03-.36,1.07-.05,2.2-.32,3.11.13.23.12.91-.06.87-.09-.19-.17,1.29-.24.25-.43.04-.12.16-.14.59-.12,1.4.06,2.8.25,4.22.03.2.89,1.8.18,2.72.24,1.07,0,1.86-.33,3-.25-.26.24-1.08.59.82.4Zm4.45.39l-.22.11c.1.01.21.04.29.03.07,0,.11-.05.16-.08-.08-.02-.16-.04-.23-.06Z"/><path d="m311.36,2.39c1.34-.21,2.99.13,4.23-.28,1.1.5,2.78.07,4.08.21.37.04.51.02.78-.05.81-.2,1-1.21.1-1.33-.95-.12-1.24-.31-1.49-.59-.25-.29-.72-.58-1.61-.09-.1.05-.47.11-.63.1-1.55-.17-3.04.09-4.56.11-3.51.04-7.03.15-10.54.24v.27c.31,0,.55,0,.62.12.52-.06,1.14-.13,1.58-.13,1.04-.02,2.32-.29,3.14.09.49.22,4.08.61,4.8.46.12-.03.25-.1.23-.14-.18-.37.5-.2.81-.12.37.09.6.24.92.35.18.06.75-.04.7.1-.03.09-.36.17-.8.21-.92.07-2.23,0-2.34.49Z"/><path d="m111.98,3.63c.92-.08,2.01-.02,2.61-.34-.26-.04-.6-.13-.79-.11-.71.09-1.38.23-1.9-.08-.43-.25.17-.39.61-.56.77-.3,1.35-.16,1.97.05.39.13,1.04.18,1.35.08,1.08-.35,1.56-.02,2.21.16.41.02.93-.03,1.04.16.02.04-.17.13-.24.13-.54-.01-.56-.18-.79-.29l-1.16.62c.76.5,1.75.18,2.69.08-.02-.17.04-.32.71-.35-.01-.12.05-.24-.05-.35-.3-.33.82-.28,1.15-.44.09-.04.32-.08.39,0,.14.18-.23.26-.65.36-.24.06-.06.28-.07.43.37-.17,1.42.1,1.53-.24-.14-.04-.51-.07-.14-.16l.13.16c.54.08.21.39.88.38.23,0,.43-.24.64-.38,0-.1.07-.19.39-.24-.02-.04-.04-.07-.06-.11h-.35c-.58-.2-2.42-.41.07-.57.16-.01.24-.16.36-.24-1.08,0-2.2.19-3.18-.18-.12-.04-1.56.25-2.53.27-.27.15-.59.17-1.17.19-1.7.05-3.47-.27-5.09.09-.65-.37-1.82.05-2.51-.16-.67-.2-1.21-.26-2.05-.08-1.14.25-1.63.06-1.65-.32l-1.87.04c.09.24-.43.39-.8.56.86.31,1.74.62-.07.91-.23.04-.08.14.15.19.73-.24,1.8.1,2.42-.1,1.42-.47,1.14,0,1.33.22h.4c.04-.14.25-.22.7-.22.05-.18.36-.24.8-.25l-.03-.2c.44.02.36.12.36.21.85.2,2.13.24,2.27.68Z"/><path d="m290.09,2.16c.49,0,.83-.09,1.08-.21.54-.25,1.19-.49.19-.77-1.58-.44-1.65.24-2.46.36l-1.51-.2c-.71-.43-2.06-.04-2.97-.2l-.02-.31c.87.03,1.88-.33,2.53-.06.83.33,1.68.24,2.64.16,3.78-.31,7.58-.31,11.39-.21.07.15.06.29-.41.38h-.73s-.38-.12-.38-.12c-.12-.06-.23-.07-.34,0-2.41.09-2.74.23-1.82.75.03.02.04.04.05.05,2.12-.35,2.7.7,4.78.48.86-.09,2.01-.13,2.25.32-.57.01-1.2.38-1.39.19-.36-.36-.96-.17-1.53-.17-2.07,0-4.08-.03-6.21.05-3.02.12-6.14-.02-9.24.07-.62.02-1.59.13-1.65-.25.36-.26.94-.29,1.58-.14.78.18,1.3.08,1.78-.14.8.11,1.6.25,2.37-.04Zm3.78-.88c.02.13.24.36.85.29.6-.08,1.47-.26,1.5-.4.06-.29-.71,0-.99-.06-.54.04-1.41-.21-1.36.18Zm1.78,1.07c.39,0,1.09,0,1.11-.23.01-.13-.24-.25-.66-.23-.45.01-.88.09-1.46.15.43.14.69.3,1,.31Zm-2.31-.84h-.23s.03.04.03.04c.17,0,.18-.02.2-.04Z"/><path d="m47.92,3.33c.94-.1,1.67-.06,2.73.06,1.54.18,3.45.06,5.2.03.87-.02,1.81.14,2.63-.06v-.35c-.18-.16-.68-.41-.09-.47,1.75-.17,1.52-.8,2.73-1.07-.64,0-1.21.08-1.72.2-.06,0-.12.01-.17.03-.07.16.21.37-.49.44-.55.06-.94-.01-1.02-.21l-.09-.05.08.05c.81.12.84-.26,1.51-.23.04-.02.06-.04.05-.06-.77-.37-1.71-.01-2.55-.07-1.07.36-2.21.34-3.35.03-.34-.09-.57-.22-.95-.01-.59.33-1.44.21-2.27.09-1.18.25-.64.58-.35.89.07.08.32.2-.09.25-.35.04-.56-.04-.7-.14h-.42c.22.27-.9.39-.67.66Z"/><path d="m179.22,3.27c.75.2,1.52.36,2.54.19,1.28-.35,2.64-.41,4.09-.12.27-.16.79-.19,1.25-.26l.77.1c-.09-.11-.23-.32-.27-.32-1.4.08-2.35-.36-3.7-.32-.98.03-1.88.01-2.15-.37,0-.01-.11-.02-.16-.02l-.56.13c.17.43-.83.39-1.58.35-2.49-.11-4.99.13-7.52-.09-1.52-.13-1.61-.02-.88-.48.22-.14.37-.29.54-.44-1.45.09-3.13-.14-4.3.33.27.04.54.09.82.1.46.02,1.13-.24,1.34.02.08.11-.65.31-1.11.43-.25.06-.71.04-1.08.05-.31,0-.64,0-.79.11-.19.14.13.21.45.28.5.1.63.35,1.41.34.98.25,2.06.39,3.34.26,1.47-.37,3.19-.37,4.92-.35-.02-.1.05-.23.37-.22.55,0,.2.17.32.26.73-.35,1.48-.78,1.95.04Z"/><path d="m299.83,1.09l-.38-.12h-.17s-.17,0-.17,0c-2.41.09-2.74.23-1.82.75.03.02.04.04.05.05,2.12-.35,2.7.7,4.78.48.86-.09,2.01-.13,2.25.32.62-.2,1.75-.1,2.21-.39-.6-.24-.02-.61.3-.61.92,0,.36.32.5.5.03.04,0,.08,0,.12.71.34,1.91-.06,2.7.15.48-.12.92-.12,1.29.04.12-.49,1.42-.41,2.34-.49.44-.04.77-.12.8-.21.05-.14-.52-.03-.7-.1-.32-.11-.55-.26-.92-.35-.31-.08-.99-.25-.81.12.02.04-.11.11-.23.14-.73.15-4.31-.23-4.8-.46-.83-.37-2.1-.1-3.14-.09-.43,0-1.06.07-1.58.13-.51.12-.53-.01-.61-.12v-.27s-.76,0-.76,0c.07.15.06.29-.41.38-.09.06-.16.16-.28.17-.39.03-.4-.09-.45-.17Z"/><path d="m64.49,1.56l.02.14c.3.27.54.56.93.82.81.56,2.31.63,3.53.16.15-.06.23-.15.42-.18.7-.11.75-.52.05-.68q-.29-.07-.45.2c-.08.12-.06.29-.58.29-.16,0-.34-.14-.51-.22-.99-.1-.92-.39-1.15-.63,1.13-.15,2.29-.13,3.45-.04-.48.38.66.48,1.2.68l.59-.23,1.19-.11s.02.06.01.1c-.73.43.4.81.36,1.22h-.72s0-.04-.04-.05c-.51-.13-.41-.54-1.04-.47-.92.1.11.4-.07.61l-.43.27c-1.74-.05-3.52.06-5.22-.15h-.74s-.03-.24-.03-.24l.16-.06-.2.05h-.46c-.24-.02-.57-.13-.56.07l-.75.12.1-.04.11.04c-.51-.27-1.79-.24-2.16-.68-.17-.21-1.79.18-2.67.35-.15.03-.24.08-.36.13-.19-.16-.69-.41-.1-.47,1.75-.17,1.52-.8,2.73-1.07,1.17-.15,2.29-.13,3.37.09Zm4.97,1.32c.03.07.12.13.18.2.05-.03.14-.07.14-.1,0-.05-.05-.11-.09-.18-.11.04-.24.07-.23.09Z"/><path d="m120.29,3.18c-.68.03-.74.18-.71.35l.63.04.49-.02c1.21.08,2.38.2,3.67.04.53-.07,1.28-.08,1.91.05.69.14,1.99.15,2.21.11,2.33-.41,4.59-.2,6.83.01.82.08,1.34-.11,2.02-.11h10.33c.37,0,.75.05.96-.09.05-.42-.91-.48-1.72-.36-.72.11-1.14.07-1.68-.04-.25.16-.73.12-1.15.14l-.4.11c-.71-.47-2.07-.29-3.23-.34-.45-.02-1.49.15-1.18-.3.07-.11-1.33.07-1.37.19-.08.25-.46.23-.97.23-.12.11-.25.11-.38,0-.69.1-1.53.27-1.24-.21h-.57c-.59.18-1.2.33-2.03.11-.68.28-1.34.65-2.22.05l-1.09-.02c-.24.29-.96.19-1.55.2-.86.02-.71-.19-.77-.35-.99.42-1.99.29-2.98,0-.21.13-.4.37-.64.38-.67.01-.34-.3-.88-.38-.1.34-1.15.07-1.52.24h-.77Z"/><path d="m79.95,3.33c.53.22,1.12.34,1.91.12-.45-.2-.89-.41-.36-.64.42-.18.74.14,1.19.06.59.39.93.16,1.33-.04.45-.23.89-.28,1.19.04,1.07-.07.91-.37,1.1-.6-.16-.27-1.02-.37-1.44-.58-.71-.25-1.66-.31-2.56-.2-.68.08-1.26.09-1.91.03-.66.15.02.58-1.12.59-.85,0-.71-.28-.84-.46l-.76.03c.05.17.15.35.14.52,0,.11-.36.16-.68.15-.28,0-.5-.07-.33-.15.24-.12.9-.23.2-.36-.18-.03-.79.19-1.2.29-.13.04-.2.15-.47.04l.48-.04c-.28-.49-1.23-.39-2.22-.26-.31.4,1.2.6,1.09.98,1.63-.22,1.61.1,1.48.46.65-.06,1.19.19,1.86.08-.1-.41.63-.77,1.75-.72,1.56.07-.5.36.03.56.07.03.09.07.13.11Z"/><path d="m220.33,2.91h.61s1.19-.14,1.19-.14l.44-.02-.04-.1c-.26-.04-.39-.1-.17-.19.03-.01.14-.02.17-.01.34.07-.02.14-.02.2.62.02,1.08-.05,1.36-.24.91-.6,2.37-.12,2.34.02-.09.45.89.42,1.6.53.9-.16,1.78-.31,2.69-.47.4-.06,1.16-.02.94-.26-.18-.2-1.01-.05-1.22-.11-.65-.19-1.66.39-2.03-.1-.5-.03-1.08-.02-1.16-.25-.42,0-.86.03-1.13-.11-.92-.03-1.84-.06-2.75-.1-1.8-.09-3.36.4-5.18.24v.28c.45-.01.91-.04,1.15.13-.03.16-.04.32-.73.33l.32.35h1.6Z"/><path d="m103.74,3.29c-.23-.05-.38-.15-.15-.19,1.81-.29.92-.6.07-.91l-.7.03v.35s.1.05.1.05l-.08-.05c-.63-.12-2.01.14-1.91-.37-1.05.04-2.01-.41-3.18-.06-.17.05-.9-.09-.94-.29l-1.11-.05c-.48.29-1.89.4-1.62.84.01.02-.24.06-.37.09-.82-.7-1.17.17-1.82.05v.12c1.9.65,2.35.05,3.02-.35l.15-.03-.15.03c.38.06,1.08.11,1.1.17.19.88,1.58.33,2.7.28,1.17-.05,2.52-.22,3.55.16.51.1.43.41,1.32.38l.02-.25Z"/><path d="m43.41,2.43l.7.12c1.7.09,1.68.47,1.5.87.56.14.53-.09.81-.12-.5-.55.34-1.02,1.88-1.07-.35-.28-.38-.56,0-.84-.39-.29-.72-.09-1.06,0,.23.06.28.16-.02.17-.42.02-.35-.12-.39-.21-.9-.4-2.22-.14-3.18-.13-1.57.02-3.28-.19-4.77.12v.17s1.1.06,1.1.06c.34-.21.65-.1.96,0l1.29.25c.09-.16.17-.33.87-.3.47.02.74.13.96.26.52.3-.19.46-.65.64Z"/><path d="m228.21,2.03c.37.49,1.37-.09,2.03.1.21.06,1.04-.09,1.22.11.22.24-.55.19-.94.26-.91.16-1.8.31-2.69.47l.33.21h.44c1.21-.36,2.75-.16,4.11-.27.32-.14.24-.28.08-.43-.28-.27.14-.4,1.02-.39l.02-.12c.01-.17.27-.25.81-.23.11,0,.22,0,.32-.02-.11-.12-.61-.24.04-.35l-.03-.12c-2.15-.06-4.3-.18-6.47.02.35.27.99.55-.28.77Z"/><path d="m197.31,3.27c.45-.01.41.48,1.2.11.59-.28,1.16.11,1.75,0,.16-.47.97-.38,1.81-.21.72.14,1.31.07,1.84-.09.56-.17.8-.36.21-.57-.8-.02-1.53-.18-2.38-.08-2.66.32-2.95.31-5.08-.05-.05,0-.15-.02-.17-.01-1.08.45-2.73-.18-3.84.22.11.21.12.44.87.54.03-.15.2-.17.71-.15,1.08.05,2.09.14,3.06.29Z"/><path d="m228.21,2.03c1.27-.22.63-.5.28-.77-.84-.13-1.4-.37-2.6,0-.86.26-2.6,0-3.98.04-1.86.05-3.82.16-5.7,0-.83-.07-1.37-.04-1.28.29.09.33.76.31,1.5.25l1.55-.03c1.82.16,3.38-.33,5.18-.24.91.03,1.84.06,2.75.1.22-.06.47-.17.66-.16.42.02.46.16.47.28.08.23.66.22,1.16.25Z"/><path d="m95.05,2.55c-.67.4-1.12,1-3.02.35l-1.52.15c-.4.09-.82.17-.72.36.71.31,1.64.08,2.42.08,2.98-.02,5.96.14,8.96-.04.8-.05.91-.16,1.22-.3-1.03-.38-2.38-.22-3.55-.16-1.12.05-2.51.6-2.7-.28-.01-.06-.71-.11-1.09-.17Z"/><path d="m171.59,1.61c-.18.15-.33.3-.54.44-.73.46-.64.35.88.48,2.53.22,5.03-.02,7.52.09.76.03,1.75.08,1.58-.35-1.41-.45-2.96-.38-4.65-.15-1.09.15-1.93.06-1.72-.41-1.1.2-2.02-.14-3.06-.1Z"/><path d="m192.66,2.6c1.1-.4,2.76.23,3.84-.22.01,0,.11,0,.17.01,2.13.36,2.42.37,5.08.05.85-.1,1.58.06,2.38.08-.34-.39-.71-.77-2.02-.96l-.96.25c-.35.25-.9.23-1.67.19-.94-.05-2.07,0-2.89-.03-1.64-.05-3.09.36-4.66.11l.42.5c.1,0,.21,0,.31.01Z"/><path d="m211.83,1.82c-.49.38-.89.73,1.08.77.63.01.24.17.19.27-.97.24-2.04.1-2.73-.05-1.76-.39-2.15-.05-2.53.39l-.36.03c-1.15-.21-3.05-.31-1.25-.94.32-.11.31-.32.46-.49.99-.01,1.99-.04,2.98-.03.64,0,1.13-.01,1.19-.26l1.11.03c-.04.1-.02.2-.14.29Zm-3.17.36s-.1-.01-.2.03c.05,0,.11,0,.2-.03Z"/><path d="m10.25,2.76c-.56-.36-2.54.12-2.54-.38,0-.25.8-.53,1.15-.83.36-.31,1.88-.37,3.09-.32.55.03,1.06.14,1.61.15.52.02,1.17.22,1.55.03.41-.2-1.04-.12-.77-.36-1.78-.42-4,.04-5.84-.35-.58-.12-.45.23-.92.27-.45.14,1.58.34-.09.45-.56.37-2.03.57-1.81,1.08.35.03.79.04,1.02.11.56.18.54.8,1.97.24,0,0,.13.03.3.08s.37.09.53.11c.93.11,1.81.07,2.59-.12-.26-.48-1.3,0-1.82-.16Z"/><path d="m5.29,1.08c-.46-.02-.79-.09-1.03-.23-.6-.34-1.73-.56-2.63-.35C.84.69.11,1.02.02,1.42c-.17.73.83.97,3.06.85.54-.03,1.22.15,1.84.24.68-.29.42-.59-.31-.8-.74-.21-1.42-.06-1.95.18-.19.09-1.09.23-1.01-.04.07-.24-.44-.46-.11-.69.2-.14.3-.32.9-.34.63-.02.9.14.97.3.07.18.17.32.86.31.68-.01,1.02-.12,1.02-.34Z"/><path d="m191.94,2.09c1.56.25,3.02-.17,4.66-.11.81.03,1.95-.01,2.89.03.77.04,1.31.06,1.67-.19-1.32-.6-3.29-.25-4.91-.27-2.43-.03-4.91.25-7.27-.12l-.19.16c.35.18,1.58.39-.29.48-.61.03-.96.23.1.3,1.12-.1,1.93-.6,3.36-.27Z"/><path d="m106.33,1.59c.02.38.52.57,1.65.32.84-.18,1.38-.12,2.05.08.69.21,1.86-.21,2.51.16,1.62-.36,3.39-.04,5.09-.09.58-.02.91-.04,1.17-.19-1.56-.33-3.25-.35-5.07-.29-1.16.03-2.34.06-3.6-.08-1.1-.12-2.53.05-3.81.09Z"/><path d="m32.8,1.43h.82s1.21.34,1.21.34l.52.02,1.68-.24c-.98-.61-2.96-.43-4.37-.46-2.81-.06-5.65.08-8.48.14l-.76.12c1.27.42,2.64.5,4.13.14,1.21-.11,2.48-.32,3.16.26h.55s.39-.03.39-.03c0-.09-.02-.13-.04-.17l-.12-.09.27.04,1.05-.08Z"/><path d="m241.91,1.41c1.08.05,2.15.13,3.24,0,.86-.02,1.69,0,2.32.21.58,0,.87-.01,1.16-.02,1.38.03,2.72-.19,4.18.01.76.11,1.16-.27,1.39-.51-4.15-.09-8.3-.09-12.45.1l.15.21Z"/><path d="m213.1,2.86c-.97.24-2.04.1-2.73-.05-1.76-.39-2.15-.05-2.53.39,2.89.11,5.78.32,8.66-.05.7-.09,1.13.17,1.7.13.78-.06,1.98.09,2.13-.36h-1.6s-2.63-.1-2.63-.1l-3,.04Z"/><path d="m270.42,2.01c-.04.2.21.46-.99.38-.75-.05-1.4.03-1.26.35,3.1.22,6.19.44,9.4.11l-.02-.17-.11-.14c-.06.01-.12.01-.19.01-.54.08-1.07.16-1.23-.12-.1,0-.19.01-.29.01l-1.14-.1c-.17.24-.55.29-1.16.14-.67-.03-1.36.26-1.97.03-.2-.08.1-.21.43-.28l.03-.11-.37-.24c-.67-.23-.72.12-1.13.13Z"/><path d="m207.48,3.22c-1.15-.21-3.05-.31-1.25-.94.32-.11.31-.32.46-.49-.55-.03-.37-.17-.4-.27l-.74.04c.23.26-.72.37-.75.6l.49.05s-.11.04-.11.04c-.14-.03-.27-.06-.4-.09-.66-.16-.26-.39-.39-.59-.75-.29-1.51-.33-2.29,0,1.31.18,1.68.56,2.02.96.59.21.35.4-.21.57-.54.16-1.13.24-1.84.09-.85-.17-1.65-.26-1.81.21,1.9.06,3.84-.15,5.72.05.74.08,1.13-.06,1.51-.22Z"/><path d="m188.58,2.35c-1.06-.07-.71-.27-.1-.3,1.88-.09.65-.29.29-.48-.32.23-.91.06-1.36.1.05.15-.29.37-.57.31-1.37-.3-2.34.18-3.54.15-.64.19-.67.03-.72-.12-.65-.19-.81-.02-1,.14.06,0,.16.01.16.02.27.38,1.17.4,2.15.37,1.35-.04,2.3.39,3.7.32.03,0,.18.21.27.32l1.47.22.78.13.09-.34c-1.66-.06-1.76-.42-1.63-.84Z"/><path d="m168.32,3.28c-.77.01-.91-.24-1.41-.34-.32-.07-.64-.14-.45-.28.15-.11.48-.1.79-.11.37-.01.83.01,1.08-.05.46-.12,1.19-.32,1.11-.43-.2-.26-.87,0-1.34-.02-.28-.01-.55-.07-.82-.1-.36-.19-.68,0-1.02.01-.57.1-1.17.24-1,.44.65.79-1.1.79-2.68.87.19.17,1.01.09,1.07.31,1.29-.13,2.51.1,3.82.06.93-.03.73-.2.84-.35Z"/><path d="m183.3,2.13c1.2.04,2.17-.45,3.54-.15.28.06.62-.15.57-.31-2.4-.03-4.78,0-7.18.08-1.2.04-2.46-.03-3.65-.11-.72-.05-1.3,0-1.93.06-.21.47.63.56,1.72.41,1.7-.23,3.24-.3,4.65.15l.56-.13c.19-.15.35-.33.99-.13l.72.12Z"/><path d="m213.1,2.86l3-.04.03-.25c-.41,0-.77-.04-.71-.19.06-.15.48-.15.85-.16.14-.12.15-.25.16-.38-.75.06-1.41.08-1.5-.25-.96-.13-1.95-.13-2.96-.05-.04.1-.02.2-.14.29-.49.38-.89.73,1.08.77.63.01.24.17.19.27Z"/><path d="m90.51,3.05l1.52-.15v-.12s-.08-.05-.08-.05l.08.05c.65.12,1-.76,1.82-.05.13-.03.38-.07.37-.09-.27-.44,1.13-.55,1.62-.84-.08-.14-.42-.12-.72-.12-.4.19-1.03.13-1.59.15-.41-.08-.68.42-.9.08-.23-.36-.92-.13-1.31-.22-.66.24-.96.1-1.18-.12-.39-.05-.86-.29-1.11.04l-.17.19c.46.08.69.28,1.34.28.44.08.27.22.31.34,2.01.22-.27.43,0,.64Z"/><path d="m276.45,1.12c.64.21,1.38.35,1.99.61,1.25.53,3.58.29,4.57-.35-.93.01-1.96.05-1.31-.43-1.78-.08-3.56-.16-5.25.17Z"/><path d="m90.51,2.42c2.01.22-.27.43,0,.64-.4.09-.82.17-.72.36-1.15.03-2.36.37-3.4-.09-.05-.02-.07-.05-.05-.08,1.51-.37,1.63-.9,1.55-1.45h.97c.46.08.69.28,1.34.27-.04.13-.06.25.31.34Zm-1.2.39c.24.06.47-.05.4-.11-.15-.14.62-.4-.54-.4-.58.06-.53.15-.11.25.08.09.07.21.26.26Z"/><path d="m116.9,3.45c-.35,0-.64-.24-1.04-.04-.89.44-.97.05-1.26-.12-.26-.04-.6-.13-.79-.11-.71.09-1.38.23-1.9-.08-.43-.25.17-.39.61-.56.77-.3,1.35-.16,1.97.05.39.13,1.04.18,1.35.08,1.08-.35,1.56-.02,2.21.16l-1.16.62Zm-4.21-.47s.13-.02.14-.03c.02-.03,0-.06-.01-.09l-.29.05c.05.03.1.05.16.07Z"/><path d="m263.14,2.58c-1.53.03-3.13-.13-4.51.27-.35.1-.83-.02-1.18-.09-.62-.13-1.04-.07-1.38.12,1.29.39,2.86.23,4.32.15,1.9-.11,3.67.33,5.58.04.28-.04.62-.04.74-.16-.39-.27-1.05-.34-1.81-.17-.91.21-1.35.06-1.77-.16Z"/><path d="m5.29,1.08c0,.22-.34.33-1.02.34-.7.01-.79-.13-.86-.31-.07-.17-.34-.32-.97-.3-.6.02-.7.2-.9.34-.33.23.18.45.11.69-.08.28.81.13,1.01.04.53-.24,1.21-.38,1.95-.18.73.2.99.51.31.8.25.08.5.13.75,0-.22-.5,1.25-.71,1.82-1.08-.4-.11-.76-.22-.78-.41l-1.4.05Z"/><path d="m124.1,2.95c.99.29,1.99.42,2.98,0,.58-.36,2.37-.27,2.69-.73l-.13-.4c-.65-.13-1.25-.1-1.78.07-.09.07.16.18-.24.22l-.12-.22c-.11-.02-.23-.03-.36-.02-1.54.07-1.23.73-2.65.84-.32.05-.4.14-.39.24Z"/><path d="m228.15,3.17l-.33-.21c-.71-.11-1.69-.09-1.6-.53.03-.14-1.43-.62-2.34-.02-.29.19-.74.26-1.36.24.03.03.04.06.05.1l-.03.37c1.85.14,3.68.39,5.61.06Z"/><path d="m245.9,3.16c.14-.33-.67-.41-1.34-.46-1.44-.12-3.1-.3-4.36-.1-.87.14-1.46.16-2.3.15-.51,0-.23.22-.27.35,1.81.08,3.57.24,5.46.02.82-.09,1.86.02,2.8.04Z"/><path d="m102.95,2.21l.7-.03c.37-.17.89-.32.8-.56-1.88-.18-3.9.12-5.81-.23-.77-.14-1.01.33-1.7.45.04.2.77.34.94.29,1.17-.35,2.13.1,3.18.06.68-.71,1.25.11,1.89.02Z"/><path d="m134.72,2.97h.57c.35-.26.34-.25-.26-.34-.26-.04-.61-.1-.67-.18-.2-.26.86-.18,1.03-.36l-.8-.24-1.24-.08-2.52.45c1.72.37,1.68.46-.36.92.87.6,1.54.23,2.22-.05.67-.05,1-.7,2.03-.12Z"/><path d="m162.59,3.26c1.57-.08,3.33-.08,2.68-.87-.17-.2.44-.34,1-.44-.18-.41-.98-.07-1.45-.12-.34.38-.57.81-2.38.5-.3-.05-.78-.03-.9.12-.13.16.24.2.64.22l.17-.02-.15.03.4.58Z"/><path d="m86.39,3.33c-.05-.02-.07-.05-.05-.08-.17-.19-1.34-.08-1.12-.38-.3-.32-.74-.27-1.19-.04-.39.2-.74.43-1.33.04-.45.07-.77-.25-1.19-.06-.53.23-.09.44.36.64,1.53.04,3.15.4,4.52-.12Z"/><path d="m63.67,3.21c-.51-.27-1.79-.24-2.16-.68-.17-.21-1.79.18-2.67.35-.15.03-.24.08-.36.13v.35c1.34.27,2.61-.18,3.95-.03l.99-.05c.13,0,.21-.03.24-.07Z"/><path d="m270.03,1.05c.53.36,3.94.81,5.04.65,1.08-.15.39-.45.6-.68-.69.06-1.38.21-2.03-.02-.14-.05-.62-.09-.65-.07-.87.43-1.99.05-2.95.12Z"/><path d="m10.25,2.76c.52.16,1.56-.31,1.82.16.54.21,1.07.09,1.61.01.89-.33,2.3-.14,3.35-.31-.21-.2-.18-.44-1.3-.25-.68.12-1.66.06-2.5.09l-.47.15-.15-.07.59-.09c-.7-.09,1.46-.82-1.1-.48-.09.19.24.44-.77.47-.21.16-1.13.07-1.08.32Z"/><path d="m246.66,2.83c-.02.06.11.14-.21.16,2.29.06,4.71.47,6.68-.3l-.05-.15h-1.5c-1.64.11-3.27.21-4.92.3Z"/><path d="m17.03,2.63c-1.05.17-2.46-.02-3.35.31.12.38.95.08,1.38.12,1.64.14,3.32.05,4.98-.04-.33-.67-1.95-.3-3-.39Z"/><path d="m44.12,2.93c-1.18-.04-2.51.11-3.3-.37-.3-.18-.74-.08-.81.1-.05.13.04.28-.46.36-.16.38.83.27,1.35.3,1.18.05,2.38.04,3.57.06-.1-.15.21-.33-.35-.45Z"/><path d="m50.16,1.66c.82.11,1.68.24,2.27-.09.38-.21.61-.08.95.01,1.14.31,2.28.34,3.35-.03-1.06-.34-2.4-.29-3.69-.26-.96.03-1.91.07-2.86.1v.26Z"/><path d="m150.14,1.59c-.26.24-1.08.59.82.4.98-.1,1.44.13,1.94.33.25.1.09.39.87.28.63-.09.49-.29.37-.47-.11-.17-.18-.35-.26-.52l-3.74-.03Z"/><path d="m76.18,3.3c.13-.35.14-.67-1.48-.46l-1.14.23h-.72c-.31.13-.73.11-1.14.1l-.43.27c-.04.24.47.18.87.15,1.35-.1,2.7-.19,4.05-.29Z"/><path d="m134.6,1.85l.8.24c1.07-.05,2.2-.32,3.11.13.23.12.91-.06.87-.09-.19-.17,1.29-.24.25-.43-1.66.08-3.48-.36-5.02.15Z"/><path d="m75.81,2.13c.41-.1,1.03-.32,1.2-.29.7.13.04.24-.2.36-.16.08.05.15.33.15.33,0,.67-.04.68-.15.01-.17-.09-.35-.14-.52-1.36-.34-2.92-.27-4.46-.22l-.05.3s.02.06.01.1h.41c.99-.12,1.93-.21,2.21.27Z"/><path d="m124.49,2.71c1.42-.11,1.11-.77,2.65-.84-.79-.3-1.59-.56-2.63-.09-.12.08-.19.23-.36.24-2.5.16-.66.37-.07.56.06-.08,0-.2.44-.19l-.09.2s.04.07.06.11Z"/><path d="m158.4,3.42c-.33-.23-.97-.5-1.63-.27-1.26.44-3.53-.23-4.37.48,2.04.05,4.04-.02,6-.21Z"/><path d="m189.33,3.39l-1.47-.22-.77-.1c0,.29-.63.27-1.25.26-1.45-.28-2.81-.23-4.09.12.12.13.52.25.78.21,2.19-.31,4.66.16,6.79-.28Z"/><path d="m17.01.98c.07.39.32.68,1.77.35,1.08-.25,2.43.3,3.47-.09-1.56-.54-3.46-.25-5.24-.26Z"/><path d="m237.26,1.36c.51.41,1.5.68,2.59.92-.22-.41.34-.74,1.09-1.06-.76-.21-1.45-.02-2.15.06-.38.33-.99.11-1.53.08Z"/><path d="m33.25,3.11c-1.31-.48-4.05-.46-5.7.04,1.62.23,3.26.04,4.88.05.04-.24.44-.15.81-.09Z"/><path d="m109.38,2.94c-.44.01-.74.07-.73.23l.48.08.11.13-.36-.04-.3-.15c-.45,0-.67.08-.7.22,1.38.05,2.57.45,4.1.23-.13-.43-1.42-.48-2.27-.68h-.33Z"/><path d="m176.58,3.19c-1.73-.02-3.45-.02-4.92.35.58.21,1.13.3,1.99.08,1.1-.27,2.46-.02,3.67-.12l-.07-.27c-.22-.01-.45-.03-.68-.04Z"/><path d="m48.29,2.23c-1.55.05-2.38.53-1.88,1.07l1.51.02c-.23-.27.89-.39.67-.65-.44-.13-.25-.29-.3-.44Z"/><path d="m130.84,2.22l2.52-.45c-1.27-.2-2.53-.35-3.72.05l.13.4h1.07Z"/><path d="m87.89,1.81h.97s.17-.2.17-.2c-1.41-.08-2.84-.28-4.15.08.42.21,1.28.3,1.44.58.27-.05.5-.09.73-.12.06-.17.1-.34.84-.34Z"/><path d="m50.16,1.66v-.26s-1.86-.01-1.86-.01c-.39.28-.36.56,0,.84.91.03.7.25.72.43.14.09.35.18.7.14.41-.05.17-.17.09-.25-.28-.32-.82-.64.35-.89Z"/><path d="m103.74,3.29l-.02.25c1.28.02,2.69.39,3.78-.13-.19-.22.09-.69-1.33-.22-.62.21-1.69-.14-2.42.1Z"/><path d="m190.2,3.19l-.09.34c1.46.23,2.78-.01,4.13-.15l-.71-.24c-.75-.11-.76-.33-.87-.54-.1,0-.2-.01-.31-.01,0,.46-.22.84-2.15.6Z"/><path d="m206.69,1.79c.99-.01,1.99-.04,2.98-.03.64,0,1.13-.01,1.19-.26-1.33-.3-2.8,0-4.18-.08,0,.12,0,.24.01.36Z"/><path d="m193.53,3.14l.71.24c1.08.15,2.19.43,3.07-.1-.97-.15-1.98-.24-3.06-.29-.51-.02-.69,0-.71.15Z"/><path d="m79.95,3.33s-.05-.08-.13-.11c-.54-.2,1.53-.49-.03-.56-1.13-.05-1.85.31-1.75.72.66.06,1.36.27,1.92-.05Z"/><path d="m263.14,2.58c.42.22.86.37,1.77.16.76-.17,1.42-.1,1.81.17.27-.03.61-.01.7-.13l-.66-.4c-1.18-.1-2.34.04-3.51.05l-.12.15Z"/><path d="m281.7.95c-.65.48.38.44,1.31.43.69.05,1.12-.06,1.4-.25l-.02-.31c-.88.09-1.76.18-2.69.13Z"/><path d="m232.71,2.91c-1.36.11-2.91-.09-4.11.27,1.37.29,2.74-.04,4.11-.03v-.24Z"/><path d="m144.43,1.61c.2.89,1.8.18,2.72.24-.06-.17.21-.43-.92-.31-.56.06-1.2.05-1.8.07Z"/><path d="m78.44,1.65c.13.18,0,.46.84.46,1.15,0,.46-.44,1.12-.59-.91-.34-1.31.08-1.97.13Z"/><path d="m37.02,1.55l-1.68.24c1.06.05,1.12.31,1.27.57.09.15.34.26.84.27.19,0,.48-.06.54-.11.17-.15-.24-.19-.57-.25-1.16-.22.94-.47-.07-.69-.11-.02-.22-.02-.33-.02Z"/><path d="m283.75,2.48c-.74.16-1.77-.66-2.34.09q.32.44,2.34-.09Z"/><path d="m67.89,2.09c-.99-.1-.92-.39-1.15-.63-.78-.02-1.63-.2-2.26.1l.02.14c.56.06,1.53-.05,1.62.19.2.53.99.31,1.76.2Z"/><path d="m70.2,1.43c-.48.38.66.48,1.2.68l.59-.23.47-.49c-.77-.07-1.46.22-2.26.05Z"/><path d="m158.38,1.97v-.34c-.7-.1-1.41-.19-2.19-.07,0,.18-.26.43.79.4.79-.02,1.16.09,1.13.34.35-.09.24-.21.27-.32Z"/><path d="m240.94,1.22c-.74.32-1.31.65-1.09,1.06.77-.27,1.89-.46,2.05-.87l-.15-.21-.81.03Z"/><path d="m44.12,2.93c.56.12.26.3.35.45l1.13.05c.18-.41.21-.78-1.5-.87v.37Z"/><path d="m177.26,3.23l.07.27c.73.01,1.36-.07,1.89-.23-.47-.82-1.22-.39-1.96-.04Z"/><path d="m260.96,1.08c0,.08-.07.17,0,.24.21.2-.87.58.3.59,1.03,0,.14-.34.29-.53.04-.05.39-.08.59-.12-.25-.15-.48-.31-1.17-.17Z"/><path d="m237.26,1.36c.54.03,1.15.25,1.53-.08l-.83-.06c-.31.01-.58,0-.72-.1l-1.53.12.32.13h1.23Z"/><path d="m307.37,2.2s.03-.08,0-.12c-.13-.18.43-.49-.5-.5-.31,0-.9.37-.3.61l.79.02Z"/><path d="m204.8,2.15c.02-.23.98-.34.75-.6l-1.15.02c.14.2-.26.43.41.58Z"/><path d="m6.7,1.03c.02.18.39.3.78.41,1.67-.1-.36-.31.09-.45-.07-.03-.17-.05-.29-.03h-.5c-.1.02-.13.04-.09.07Z"/><path d="m64.2,3.09l-.75.12c.33.27,1.25.19,1.81.31l.04-.24-.03-.24c-.2-.01-.36-.01-.51-.01-.06.14-.31.1-.56.06Z"/><path d="m163.67,3.57c-.06-.22-.88-.14-1.12-.29l-.6.1.48.16c.4.07.81.09,1.24.03Z"/><path d="m90.13,1.57c.22.22.52.36,1.18.12-.32-.12-.44-.44-1.18-.12Z"/><path d="m222.13,2.77l-1.19.13c-.05.32.6.24,1.19.2v-.34Z"/><path d="m93.52,1.83c.56-.01,1.2.05,1.59-.15-.81-.25-1.24-.1-1.59.15Z"/><path d="m311.36,2.39c-.37-.15-.8-.16-1.29-.04.41.05.66.51,1.29.04Z"/><path d="m236.04,1.37l-.32-.13h-.75s.03.13.03.13c.34.13.69.15,1.04,0Z"/><path d="m59.27,1.63s0,.04-.05.06c.05-.02.11-.03.17-.03l.11-.26-.23.23Z"/><path d="m237.24,1.12c.15.1.41.12.72.1,0-.2-.24-.23-.72-.1Z"/><path d="m46.83,1.36c.04.09-.03.22.39.21.31-.01.25-.11.02-.17l-.41-.04Z"/><path d="m65.3,3.29l-.04.24c.39-.04.66-.11.78-.24h-.74Z"/><path d="m63.42,3.28l-.99.05c.41.16.75.15.99-.05Z"/><path d="m206.67,1.78v-.36c-.24-.02-.37.01-.38.09.03.1-.15.24.38.26Z"/><path d="m127.49,1.89l.12.22c.4-.04.15-.15.24-.22-.12-.02-.24-.02-.36,0Z"/><path d="m33.25,3.11c-.37-.06-.77-.15-.81.09.34.04.68.07.81-.09Z"/><path d="m263.26,2.43c1.17,0,2.33-.15,3.51-.05.41-.01.59-.09.62-.21l.05-.37c-.65-.02-.86-.12-.63-.32.11-.09.26-.21-.17-.23-.25-.01-.79.08-.79.12.08.52-1.63.55-2.3.85-.14.06-.19.14-.28.21Z"/><path d="m287.72,2.2c.8.11,1.6.25,2.37-.04-1.34-.02-.25-.52-1.19-.62l-1.51-.2c.2.28,1,.54.33.86Z"/><path d="m247.47,1.62c-.64-.21-1.46-.23-2.32-.21.03.14-.09.31.12.4.28.13-.85.34.18.35.71,0,.57-.2.49-.36-.04-.07-.04-.33.42-.09.85.45.67-.18,1.11-.1Z"/><path d="m274.6,2.34l1.14.1c.15-.14,1.11-.27.26-.42-.91-.16-1.21.08-1.39.31Z"/><path d="m271.9,2.22c-.33.07-.63.21-.43.28.61.24,1.3-.06,1.97-.03-.06-.35-.93-.22-1.54-.26Z"/><path d="m251.58,2.54h1.5c-.08-.23-.56-.33-1.16-.3-.46.02-.31.19-.34.3Z"/><path d="m234.96,1.72c-.1.01-.21.02-.32.02l-.04.22c.46-.02,1.01.03,1.22-.18l-.85-.07Z"/><path d="m276.02,2.43c.16.28.69.2,1.23.12l-.04-.25c-.4.04-.79.09-1.19.13Z"/><path d="m268.76,1.29c-.08-.02-.16-.04-.24-.06l-.21.12c.1.01.21.04.29.03.07,0,.11-.05.16-.09Z"/><path d="m248.63,1.6h-.87c.11.08.19.19.34.2.42.02.42-.11.53-.2Z"/><path d="m271.55,1.88l.37.24c.57-.19.12-.22-.37-.24Z"/><path d="m277.21,2.3c.2-.02.5.01.5-.1,0-.02-.15-.07-.22-.07-.34,0-.25.1-.28.17Z"/><path d="m267.43,1.8l-.05.37c.49-.12.52-.24.05-.37Z"/><path d="m257.15,1.69c0,.05.07.05.12.06,0-.05-.07-.05-.12-.06Z"/><path d="m233.82,1.96l-.02.12.78-.13c-.25,0-.5,0-.76,0Z"/><path d="m270.41,2.01l-.09-.05s.06.03.09.05Z"/><path d="m277.44,2.54l.11.14c.33-.08.26-.12-.11-.14Z"/><path d="m43.41,2.43c.46-.19,1.17-.35.65-.64-.22-.13-.49-.24-.96-.26-.7-.03-.78.14-.87.3.36.19.54.39.23.61-.14.1-.11.2.3.22.5.02.57-.1.65-.22Z"/><path d="m11.32,2.45c1.01-.03.68-.29.77-.47-.37-.02-.9.06-.95-.17-.03-.12-.39-.26-.72-.22-.34.04-.66.18-.78.3-.2.2.46.11.66.16.4.11.69.27,1.02.4Z"/><path d="m30.7,1.75c-.68-.58-1.96-.37-3.16-.26.88.32,1.88.48,3.16.26Z"/><path d="m31.64,1.72l-.39.03c-.07.03-.11.08-.2.1-.73.14-1.21.3-.46.57.19.07.73.15.64.03-.21-.28,2.17-.37.41-.72Z"/><path d="m39.97,1.58l-1.09-.06c-.01.16-.92.39.04.48.71.07,1.21-.14,1.05-.41Z"/><path d="m34.83,1.77l-1.21-.33c.03.14-.63.28-.07.41.44.1.92.04,1.28-.08Z"/><path d="m13.65,1.86c.22.05.35.1.48.1.14,0,.27-.05.41-.08-.12-.04-.22-.1-.35-.1-.13,0-.29.04-.54.08Z"/><path d="m32.8,1.43l-1.05.08-.15.05.05.12c.47-.04,1.16.02,1.15-.25Z"/><path d="m40.93,1.59c-.31-.1-.62-.22-.94,0h.94Z"/><path d="m15.93,1.28c.11.03.16.01.21,0-.04-.01-.08-.02-.21,0Z"/><path d="m144.07,3.3c.42-.02.9.01,1.15-.14.19-.37,1.46-.11,1.96-.34.19-.09.84.28,1.12.01.17-.16-.46-.31-.85-.44-.4-.13-.71-.16-1.26-.02-.69.17-1.49.29-2.11-.09-.37-.23-1.04-.06-1.43.03-.69.15-.13.25.27.35.63.16,1.26.34,1.14.64Z"/><path d="m158.38,1.97c-.03.11.08.24-.27.32-.09.14-1.01.17-.56.38.16.07.53.15.77.14.81-.03.27-.25.45-.38.1-.07.17-.15.32-.21.29-.11,1.14-.18.82-.33-.37-.17-.98.1-1.53.07Z"/><path d="m155.64,2.45c-.08-.02-.16-.04-.23-.06l-.22.11c.1.01.21.04.29.03.07,0,.11-.05.16-.08Z"/><path d="m136.91,3.19h-.38c.12,0,.25,0,.38,0Z"/><path d="m301.72.98c.08.1.1.23.61.12-.07-.11-.31-.12-.61-.12Z"/><path d="m120.29,3.18h.77c0-.14-.17-.36.07-.42.42-.11.79-.18.65-.36-.07-.09-.3-.05-.39,0-.33.16-1.45.11-1.15.44.1.11.04.23.05.35Z"/><path d="m118.06,2.82c.24.11.25.28.79.29.08,0,.27-.09.24-.13-.11-.19-.63-.15-1.04-.16Z"/><path d="m109.38,2.94h.33c0-.08.07-.18-.36-.2l.03.2Z"/><path d="m124.43,2.6l.09-.2c-.45,0-.38.1-.44.19h.35Z"/><path d="m122.58,2.95l-.13-.16c-.36.09,0,.11.13.16Z"/><path d="m288.89,1.54c.94.1-.15.6,1.19.62.49,0,.83-.09,1.08-.21.54-.25,1.19-.49.19-.77-1.58-.44-1.65.24-2.46.36Z"/><path d="m295.23,1.1c-.54.04-1.41-.21-1.36.18.02.13.24.36.85.29.6-.08,1.47-.26,1.5-.4.06-.29-.71,0-.99-.06Z"/><path d="m294.65,2.05c.43.14.69.3,1,.31.39,0,1.09,0,1.11-.23.01-.13-.24-.25-.66-.23-.45.01-.88.09-1.46.15Z"/><path d="m299.83,1.09c.05.09.06.2.45.17.12,0,.19-.11.28-.17h-.73Z"/><path d="m293.14,1.55c.12-.04.05-.05-.03-.05l.03.05Z"/><path d="m299.1.98h.17s.17,0,.17,0c-.12-.06-.23-.07-.34,0Z"/><path d="m57.72,1.93c.08.2.47.27,1.02.21.7-.07.42-.28.49-.44-.68-.03-.71.35-1.51.23Z"/><path d="m49.01,2.67c-.02-.18.2-.4-.73-.44.06.15-.13.32.31.44h.42Z"/><path d="m57.71,1.93l-.08-.05s.06.03.08.05Z"/><path d="m176.58,3.19l.69.04c-.12-.09.23-.26-.32-.26-.31,0-.39.12-.37.22Z"/><path d="m185.85,3.33c.62.01,1.25.04,1.25-.26-.46.06-.98.1-1.25.26Z"/><path d="m67.89,2.09c-.77.11-1.56.33-1.76-.2-.09-.24-1.07-.13-1.62-.19.3.27.54.56.93.82.81.56,2.31.63,3.53.16.15-.06.23-.15.42-.18.7-.11.75-.52.05-.68q-.29-.07-.45.2c-.08.12-.06.29-.58.29-.16,0-.34-.14-.51-.22Z"/><path d="m73.6,1.87h-.41c-.73.42.4.8.36,1.21l1.14-.23c.11-.38-1.39-.58-1.09-.98Z"/><path d="m71.69,3.18c.41,0,.84.03,1.14-.09-.01-.02,0-.05-.04-.06-.51-.13-.41-.54-1.04-.47-.92.1.11.4-.07.61Z"/><path d="m69.68,2.79c-.11.04-.24.07-.23.09.03.07.12.13.18.2.05-.03.14-.07.14-.1,0-.05-.05-.11-.09-.18Z"/><path d="m64.2,3.09c.25.03.51.07.56-.06-.24-.02-.57-.13-.56.06Z"/><path d="m65.27,3.04l.16-.06c-.07.02-.14.03-.16.06Z"/><path d="m130.84,2.22h-1.07c-.32.47-2.11.38-2.69.74.06.16-.09.37.77.35-.36-.23.26-.34.66-.41.48-.08.71.09.89.21l1.09.02c2.04-.46,2.08-.55.36-.92Z"/><path d="m129.39,3.11c-.18-.13-.41-.3-.89-.21-.4.07-1.02.18-.66.41.59,0,1.31.09,1.55-.2Z"/><path d="m134.72,2.97c-1.03-.58-1.36.07-2.03.12.82.22,1.43.07,2.03-.12Z"/><path d="m136.92,3.19h-.39c.13.11.26.11.39,0Z"/><path d="m87.89,1.81c-.74,0-.78.17-.84.34.11.24-.28.19-.69.12-.23.24-.07.54-1.14.61-.22.3.95.19,1.12.38,1.51-.37,1.63-.9,1.55-1.44Z"/><path d="m75.82,2.13l-.48.04c.27.11.34,0,.48-.04Z"/><path d="m216.4,2.22c-.18.11-.23.22-.28.34.76,0,1.52-.01,2.28-.02.68-.01.7-.17.73-.33-.41-.02-.91.03-1.15-.13l-1.58.14Z"/><path d="m227.05,1.78c-.02-.12-.06-.26-.47-.28-.19,0-.44.1-.66.16.27.14.72.11,1.13.11Z"/><path d="m217.98,2.08c.24.16.74.11,1.15.13-.23-.17-.7-.14-1.15-.13Z"/><path d="m222.52,2.65c0-.07.36-.14.02-.2-.04,0-.14,0-.17.01-.22.09-.09.14.15.19Z"/><path d="m102.95,2.21c-.64.09-1.21-.73-1.89-.02-.11.51,1.27.24,1.91.37l-.02-.35Z"/><path d="m95.04,2.55l.15-.03s-.1.02-.15.03Z"/><path d="m102.97,2.56l.08.05s-.06-.04-.08-.05Z"/><path d="m233.82,1.96h.77s.04-.23.04-.23c-.54-.02-.8.06-.81.23Z"/><path d="m190.2,3.19c1.93.23,2.15-.15,2.15-.6l-.42-.5c-1.44-.33-2.25.17-3.36.27-.14.41-.04.78,1.63.84Z"/><path d="m208.46,2.21h.16s-.07-.04-.16,0Z"/><path d="m204.79,2.16c.13.03.26.06.4.09,0,0,.07-.03.11-.04-.16-.02-.33-.03-.51-.05Z"/><path d="m183.3,2.13l-.72-.12c.05.15.09.32.72.12Z"/><path d="m216.12,2.56l.15-.35c-.37,0-.79,0-.85.16-.06.16.3.19.7.19Z"/><path d="m90.2,2.08c-.04.13-.06.25.31.34-.04-.12.13-.26-.31-.34Z"/><path d="m92.03,2.78l-.08-.05s.05.03.08.05Z"/><path d="m89.05,2.55c.08.09.07.21.26.26.24.06.47-.05.4-.11-.15-.14.62-.4-.54-.4l-.11.25Z"/><path d="m89.05,2.55l.11-.25c-.58.06-.53.15-.11.25Z"/><path d="m112.52,2.9c.05.03.1.05.16.07,0,0,.13-.02.14-.03.02-.03,0-.06-.01-.09l-.29.05Z"/><path d="m162.19,2.68l.15-.03c-.06,0-.11.02-.15.03Z"/><path d="m13.19,2.46l-.59.09.15.07c.16-.05.31-.1.44-.16Z"/><path d="m109.13,3.25l-.48-.08c.03.07.13.12.23.17l.25-.09Z"/><path d="m86.36,2.26c.41.07.8.12.69-.12l-.69.12Z"/>
                  </g>
                </mask>
              </defs>
              <path class="mask" d="m0,1.85c97.93.91,197.79.81,299.47-.42,7.23-.09,14.46-.18,21.67-.28"
                    mask="url(#path-mask)" stroke="black" stroke-width="2" fill="none"
                    stroke-dasharray="321.1478271484375" stroke-dashoffset="321.1478271484375">
              </path>
            </svg>
        