
            <svg xmlns="http://www.w3.org/2000/svg">
              <defs>
                <mask id="path-mask">
                  <g fill="white">
                    <path d="m143.78,8.85c-3.57-.02-1.3.1-2.02.15l-2.57-.08c-2.1-.09-4.55-.19-6.55-.28-4.1-.21-11.8-.25-15.1-.11-2.26-.04-3.68-.03-4.64.01-3-.08-7.47-.01-9.79-.14-.64-.08-3.27-.16-1.06-.23,1.6-.04,3.33-.06,5.89,0,2.12.06,4.04.07,5.23.01l1.99.02c2.46-.02,5.81.24,7.73.06.77.01,2.2.04,2.22.04,1.95-.15,6.51-.01,10.45.07l.06.05c-1.08,0-.86.02.36.04.2,0,.4,0,.62,0l.13.07c-.67,0-1.66-.03-1.65,0,0,0,.48.03.73.03,1.14.02.82-.01.94-.03l3.91.03c.32,0,.64,0,.97.01-.48.03-3.69.01-.86.1,2.99.1,4,.05,4.61,0,.57-.06,1.84-.05,3.84.03.19.1,3.07.13,5.07.18l-.1.03c-1.88.02-.41.05,1.21.09,2.19.11,2.39.02,3.77.05l.28.02-.32-.02c.13-.06-.69-.15,3.29-.04,2.48.07,4.61.1,4.18,0l2.46.05,2.16.17c-1.34-.03-1.93-.02-2.04.01-1.61,0-1.74.03-.17.1,2.13.06,2.84.11,2.08.15-.36.02-.86.04.55.08.41,0,1.07.02,1.62.03.55,0,.99,0,.99,0-.26-.16,5.4-.02,7.61-.04.45,0,.64-.02.95-.04l.39-.03c5.05.14,10.34.35,14.88.38,1.15,0,2.75.1,3.89.16,2.05.11,3.44.14,4.56.12l9.71.42.17.05c.27.08,1.82.16,3.8.23,1.53.05,1.03-.02,1.14-.05,5.4.2,10.8.41,16.46.62l-.22-.02c.07-.01-.36-.06.71-.01.31-.01.42-.04,1.81.03-.49.08,2.21.22,4.4.35,4.73.26,10.22.6,14.36.77,2.87.12,4.8.23,7.59.41,1.69.11.76-.02.9-.05,2.71.18,5.41.35,8.13.62.34.04.68.07,1.03.14l.15.03s.05.01.1.03l.08.04s.07.04.12.12c.05.08.07.18.05.22,0,.13-.21.3-.25.29h-.06s-.08.03-.1.03h-.14s-.52.03-.52.03l-2.04.02-4.07.02.02-.07c1.07-.05.81-.09.29-.13-.91-.08.47-.12,3.37-.13l2.56-.06c.19,0,.39,0,.57-.04.02.04-.14-.04-.22-.04l-.29-.05c-.39-.05-.79-.09-1.15-.13-.73-.07-1.36-.11-1.7-.1.93.09,1.87.17,2.79.3.09.02.25.06.41.09.04,0,.08.02.1.03h0s-.07-.08-.05-.12c-.01-.05.06-.1.07-.09h-.02s-.13,0-.17,0c-.09,0-.11-.01.02-.03.03,0,.08,0,.12-.02h.02s.02-.02-.04.02c-.05.04-.06.11-.06.15-.02.06.11.15.08.13h0s-.02,0-.03,0c-.13-.03-.34-.06-.6-.09-1.1-.17-2.24-.27-3.41-.32l-4.04-.29c-1.65-.24-4.92-.52-8.51-.8-2.55-.06-6.26-.2-6.8-.11-3.55-.2-7.09-.4-10.68-.53-.09-.05.32-.08-.37-.14-.92-.08,2.81.03-.57-.13-2.34-.11-1.89-.03-1.63.03.12.03.13.11-1.4-.04-2.78-.26-2.21-.05-4.62-.18-.37-.04-.63-.08-1.11-.1-1.4-.07-1.38-.03-1.77-.02-4.54-.2-8.96-.32-13.79-.56-2.51-.13-3.85-.07-4.6-.02l-22.29-.75s.25-.04.01-.07c-.68-.08,2.89-.08-.96-.21-3.41-.11-.47.09-.96.13-.14.01-1.27-.01-1.95-.02-6.29-.1-13.07-.3-19.59-.46-1.9-.05-4.99-.03-6.5-.17-1.72-.15-12.98-.52-16.6-.54Zm21.59.61l.71-.02c-.32-.01-.7-.02-.95-.03-.24,0-.36,0-.54.01.27.01.52.02.78.04Zm37.05.95c.14,0,.33.01.51.02-.02-.02-.22-.02-.51-.02Z"/><path d="m112.98,2.07c-8.33.23-16.55.23-24.82.45-1.11-.18-6.46.09-9.91.17-.7-.02-.62-.16-4.31.09-2.24.14-5.46.33-8.33.51-2.3.13,4.76-.59-3.65.11-1.23.08-2.97.24-3.15.19-.09-.03-1.29.03-2.39.13-1.12.1-2.15.25-2.54.32-.65.12,1.5-.11,2.18-.14,1.33-.06,2.28-.1,3.39-.16-.67.11-3.7.33-3.52.39-.93.03-3.02.22-4.88.41-1.86.18-3.48.35-3.48.28,0-.08,2.61-.43,3.72-.63,1.15-.21,6.17-.7,10.16-.97,1.8-.11,3.51-.21,5.3-.32,1.73-.11,3.85-.16,5.11-.3,1.35-.14-3.42.16-2.55.04,2.74-.21,5.63-.41,8.82-.44.25.11,1.09.18,5.86-.06,3.55-.17,8.04-.16,11.46-.32l1.32-.03h2.5c4.21.06,8.73,0,13.64-.21,2.91.04,6.21.02,10.44-.14l1.8-.04c-.21.01-.35.02-.66.04-2.39.1-3.98.18-1.52.21.64,0,2.42,0,2.11-.04-.72-.07,7.14-.28,1.38-.27,1.55-.05,3.83-.08,3.8-.17l2.7-.06c.1.04-2.06.14-.22.13,1.46,0,3.03-.06,4.22-.13l1.7-.04c3.49-.07,3.71,0,4.21.07.29.04,1.11.05,2.78.01.62-.02,1.59-.06,1.79-.08.55-.06-.81-.04-1.87-.03-3.85.03,3.08-.22-.26-.21.83-.1,2.98-.14,5-.2l.03.05c-.04.05-3.03.2.15.14,2.36-.04,4-.15,3.53-.22l3.09-.08,4.28-.03c1.2.03,1.79.08.77.17-.47.04-.35.07,1,.04,1.64-.03,1.89-.07,2.14-.12h2.3s.06.1.06.1c-3.89.07-8.28.23-10.89.15-.99-.03-2.43.04-2.66.1-.17.05.14.08-1.5.15-6.74.27-13.69.46-20.82.55-4.34-.04-13.39.16-18.8.42Zm-44.32.87c.46-.03.9-.07,1.35-.1-.38.01-.74.02-1.16.04-.44.03-.95.07-1.78.13.73-.03,1.16-.05,1.59-.07Z"/><path d="m.48,16.66s.1.16.27.22c.17.06.34.12.5.16.34.08.66.14.97.19.61.1,1.15.17,1.64.23.98.11,1.77.21,2.59.3.83.08.28.15,2.87.25,2.09.07,1.61-.02,1.22-.09-.37-.07-.57-.13-.85-.2,2.55.11,5.1.18,7.64.23.02.06-.87.12,2.6.17,2.62.04,3.81.08,3.72.16-.29.04-3.35,0-1.84.09.53.03,1.74.07,2.54.08,2.67.02.9-.07,1.48-.1.33-.02.57-.04,1.06-.05.96-.03,3.76-.03,2.71-.08-1.21-.06-3.23,0-5.06-.02v-.11c7.25.04,14.29.07,21.24.11-1.14.12-1.87.26-7.85.17-.99-.02-2.58,0-2.99.03-.43.05.8.06,2.16.07.44.06.88.12,1.16.18l-1.98.03,1.59.05c-4.72.07-9.14.04-13.29-.1-1.08-.08-3.2-.19-5.37-.16-4.16.07-11.66-.38-14.45-.45-1.01-.1-2.03-.21-3.07-.41-.26-.05-.52-.11-.79-.19-.13-.04-.27-.09-.41-.15-.13-.08-.32-.12-.47-.44-.08-.17,0-.4.08-.48.07-.1.15-.16.21-.21.14-.1.27-.16.4-.23.26-.12.51-.21.77-.3,2.04-.64,4.11-1.01,6.16-1.39-.15.15,3-.38,5.62-.8,2.34-.38,3.74-.55,5.5-.76-.6.19-4.77.68-6.41,1.01-.62.12-2.74.34-3.65.58-.56.14,1.5-.16,2.78-.32,1.3-.16,2.32-.3,4.11-.6,2.25-.37,4.87-.75,6.91-.88,1.22-.08,3.41-.4,4.69-.57,2.24-.3.42-.13-.89,0-2.08.19-4.13.4-3.75.26l1.31-.2c2.34-.14,6.81-.71,10.63-1.1,1.48-.15,4.88-.55,3.89-.31-.24.05,4.37-.46,4.5-.5.27-.1,1.51-.22,3.19-.37l1.23-.11c2.3-.24,5.04-.53,4.1-.3-1.15.18-1.11.18.85.03.86-.06,2.01-.14,2.2-.14.66.02-2.82.3-3.37.4-3.51.33-7.22.76-10.21.91-.77.04-3,.32-2.86.32.62-.01-4.22.51-.8.22-.14.05-.52.09-1.92.24-4.58.46-9.19.92-13.83,1.58-.69-.19-5.89.7-8.9,1.15-3.49.55-6.06,1.03-9.69,1.88.41-.15,1.26-.39,1.26-.41,0,0-.06,0-.19.02-.13.03-.33.07-.63.14-.3.07-.69.17-1.19.32-.25.07-.52.16-.82.27-.27.11-.67.26-.82.48Zm14.23,1.48h-.72c.32.03.69.04.95.05.23,0,.36,0,.54-.01-.27-.01-.52-.03-.77-.04Z"/><path d="m24.22,13.21c-4.37.84-9.7,2.09-13.42,3.92-.42.19-.88.35-1.32.6-.44.26-.91.53-1.38.81-.95.56-1.91,1.27-2.76,2.15-.42.45-.8.95-1.06,1.54-.26.58-.33,1.27-.16,1.89.38,1.25,1.38,2.05,2.29,2.63,1.08.63,1.53.79,2.36,1.1,1.28.44,2.13.55,2.27.54.14-.03-.43-.13-1.83-.61-1.47-.52-2.36-1.04-2.95-1.46-.59-.43-.88-.76-1.11-1.06-.23-.31-.56-.81-.67-1.58-.08-.77.34-1.82,1.35-2.87.2-.25,1.13-1.03,1.57-1.32,2.11-1.39,4.36-2.5,6.73-3.27,1.16-.46,2.38-.73,3.57-1.11,1.2-.33,2.43-.59,3.65-.89,5.66-1.2,11.42-1.96,17.18-2.56,5.77-.6,11.55-1.02,17.34-1.39l-.03-.06c-.98.06-1.77.11-1.99.1-1.72.13-3.77.28-5.2.39-3.42.29-7.6.65-10.33.88-.81.05-4.16.36-7.58.83-3.43.43-6.93,1.08-8.1,1.34-.39.08-.8.18-.73.17.58-.05-1.61.38-2.6.62-1.2.25-1.92.43-2.94.71-.29.08-.89.25-1.39.4-.49.17-.89.32-.82.27.05-.03.33-.14.77-.3.45-.14,1.06-.32,1.76-.53,1.45-.47,3.26-.83,4.72-1.21,1.48-.3,2.63-.55,2.82-.64Z"/><path d="m128.21,4.54c-3.03.11-6.62.22-8.62.39.87-.02,1.99-.05,2.59-.06,2.34-.11,4.54-.22,6.26-.18,1.41.04-.57.13-1.99.23-2.52.17-4.46.2-6.52.21-1.28,0-3.42.07-4.46.15-3.57.25-5.16.22-7.28.26-1.36.06-3.08.15-3.43.11-.07,0,.55-.07.8-.08,1.79-.08,1.84-.03,2.62-.03l3.81-.36c-2.52-.05-5.79.2-8.86.38.08.05-.12.1-2.34.22.04.03-.16.08.16.1.98.05-2.69.22-3.79.33-.3.03-1.06.08-1.29.07-.47-.03.77-.12,2.15-.23.78-.06.19-.1.22-.14-1.22.11-4.69.22-5.04.35.45-.01,1.68-.07.48.02l-.44-.02c-1.77.08-.7-.08-2.89.05-.77.05-1.4.16-2.09.24.03.03-.23.07-1.29.15.06,0,.12.01.2.02l1.16-.07c1.93-.06,7.99-.34-.23.19-.54.04-.78.1-1.17.14,3.54-.22,7.25-.48,10.47-.54.39,0,5.15-.35,8.33-.5.87-.09,1.95-.14,3.86-.23,5.59-.27,11.44-.39,16.79-.67,2.15.04,6-.19,8.27-.19,2.22,0,4.01-.02,6.77-.13,3.75-.15,5.38-.11,5.46,0l6.18-.09c-.28-.07,1.41-.14,2.65-.2-2.83-.07-5.77-.13.22-.28.77-.02.26-.04-.5-.05-2.42.09-5.95.03-8,.13-4.7.22-3.76.07-4.39,0l-1.31.03c-.12.04-.83.08-2.32.11-.17.06-1.17.1-2.62.14l.11.06c-1.44.03-1.2,0-1.21-.04-2.81,0-7.04.12-7.49,0Z"/><path d="m94.23,8.15c-1.61.01-2.74.07-3.58.12-1.78.11-3.96.24-.64.21,5.21-.03,5.44-.12,8.14-.15l4.97.08c2.32.13,6.79.07,9.79.14l.06.08c-2.88-.04-6.21.02-8.36-.06-2.71-.11-5.53-.1-8.71-.1-6.24.03-12.5.36-18.76.64-6.26.33-12.54.66-18.82.99-.22-.02-.21-.06,1.35-.17l2.41-.14,1.25-.04c.38,0,.76-.03,1.13-.06,7.93-.46,9.03-.53,6.01-.51-.09,0-.12,0-.18,0-7,.46-8.88.31-15.73.79-2.85.2-6.63.48-7.4.45,1.87-.15,3.96-.38,4.59-.38,1.19,0,3.15-.17,5.05-.29,6.81-.38,13.46-.75,20.46-1.13,4.98-.25,10.05-.47,15.16-.58,5.11-.05,10.23.03,15.35.05,2.03.01,5.27.01,5.42.12-1.2.06-3.12.05-5.23-.01-2.56-.07-4.29-.05-5.89,0-2.63-.04-5.26-.1-7.82-.03Zm-12.5.61c-.05-.03-.78-.06-2.81.05-1.97.11-4.85.3-4.96.34-.22.08,2.34-.12,3.27-.14,1.79-.1,4.66-.16,4.5-.25Zm-5.85,0c-1.29.06-3.58.18-3.67.24-.05.03.79.02,2.16-.05,1.47-.08,2.9-.16,4.8-.27-1.41.03-2.28.03-3.3.08Zm7.59-.13l.75-.03h-.1c-.56.01-.59.02-.65.03Z"/><path d="m180.21.64c3.1-.04,5.52-.03,9.01.06,5.07.12,11.39.3,17.14.56,2.88.13,5.96.35,8.66.45l.03-.1c-.63-.09-2.26-.26-.32-.16,5.75.3,5,.07,8.99.26-2.12-.15-4-.26-5.67-.33-.21,0-.4-.02-.55-.03-.22.04.68.15-1.62.03-1.81-.09-3.1-.19-3.36-.26l-.3-.03.27.03c2.67.19,2.76.08,4.97.23.14,0,.19,0,.17,0-2.53-.28-5.63-.35-8.4-.51-3.54-.08-7.27-.24-11.05-.47-1.13-.07-1.87-.12-3.13-.1-1.95.04-4.77-.05-7.48-.12-3.89.05-2.1.16-1.15.27.25.03,1.06.07-.31.07-1.17,0-1.85-.03-2.33-.06h-1.38c.73.08-2.96.13-2.2.21Z"/><path d="m93.32,18.08c2.46.02,5.01.02,8.4-.09,4.22-.18,8.7-.29,13.49-.29.9-.07,2.6-.11,4.12-.16l2.54-.02c-.3-.03-.77-.08-.88-.08-4.63.12-7.75.04-12.21.14-3.25.07-6.22.12-7.1.02-.03,0-.35,0-.54,0-.61.02-1.23.05-1.85.07.54.12-2.74.17-5.23.2-8.22.11-16.48.31-24.81.34-5.03.02-5.3.05-2.9-.11.72-.06,1.21-.1,1.8-.16-4.78.09-10.33.07-14.18.24.9,0,1.77,0,2.71,0,1.53,0,3.74-.11,4.41-.03.28.03-2.14.12-3.66.16-.81.01-2.35.03-3.56.04-1.01.01-2.12.02-2.61.05-.64.05.42.06,1.47.08,1.65.02,2.09.09,4.64.07,3.23.05,6.79.05,11.03-.04,4.85-.17,10.52-.25,16.23-.33-.08-.03.18-.07,1.21-.09,1.82-.03.66.04,1.06.06,2.41-.15,4.9-.32,6.44-.09Z"/><path d="m62.08,9.8l1.25-.04.57-.03.57-.03c7.93-.46,9.03-.53,6.01-.51-.09,0-.12,0-.18,0-7,.46-8.88.31-15.73.79-2.85.2-6.63.48-7.4.45-2.06.2-5.75.5-7.29.72,1.97-.15.05.13-.99.24-3.03.31-1.19.05-1.62.05-.09,0,0-.02,0-.03-1.16.08-2.72.28-4.32.48-1.59.22-3.22.44-4.52.62-1.58.3-2.99.5-4.2.71-.19.09-1.35.34-2.83.65-1.46.37-3.27.74-4.73,1.21-.7.21-1.31.39-1.76.53-.44.16-.72.27-.77.3-.08.05.32-.1.82-.27.5-.14,1.1-.31,1.39-.4,1.02-.27,1.74-.46,2.94-.71.99-.24,3.18-.67,2.6-.62-.06,0,.34-.09.73-.17,1.17-.26,4.67-.91,8.1-1.34,3.43-.46,6.77-.77,7.58-.83,2.72-.23,6.91-.59,10.33-.88,1.42-.11,3.48-.26,5.19-.39,1.67-.13,1.75-.1,2-.1l.03.06,2.45-.15c-.22-.02-.21-.06,1.35-.17.31-.03.53-.07.93-.09,1.3-.08,1.31-.05,1.48-.04Z"/><path d="m234.81,2.63l.08.05c1,.17,1.78.33,3.03.53,2.67.42,7.57.94,11.59,1.29.5.04.75.05,1.37.12,2.28.26,2.45.16.19-.19q-.94-.14-1.49-.13c-.26,0-.19.06-1.92-.14-.53-.06-1.11-.17-1.67-.26-3.25-.39-3.03-.44-3.75-.59,3.72.34,7.52.77,11.33,1.33-1.59-.1,2.15.43,3.9.84.64.1,1.28.2,1.92.39.08.03.16.06.25.1.05.03.08.04.14.09.04,0,.14.2.05.27-.07.11-.12.11-.17.13-.05.02-.1.04-.14.04-.09.02-.17.04-.26.05-.34.05-.66.06-.99.08-.66.03-1.31.03-1.97.04-.06-.01-.07-.02-.05-.03,2.4-.12-1.32-.25-1.2-.39.79.01,1.58.02,2.36.01.04,0,0,.01.13.02.82.01,1.17.02,1.56.02.09,0,.2,0,.3-.02.09,0,.26-.08.24-.05-.13-.14-.55-.26-1.02-.37-2.97-.59.32.18-.26.13-.46-.08-.93-.14-1.39-.2-5.64-.97-11.49-1.53-17.06-2.16l-2.43-.23-.09-.08.52.03-.67-.05-1.52-.14c-.78-.08-1.87-.21-1.85-.15l-2.47-.18.34.02.38.04c-1.69-.23-5.9-.55-7.09-.77-.56-.11-5.89-.37-8.79-.49-.48-.01-.79-.02-1.18-.03-.63-.09-2.26-.26-.32-.16,5.75.3,5,.07,8.99.26,3.84.23,7.55.54,11.09.92Zm16.28,2.13c.11.03.37.09.58.14.16.01.46.04.46.03.01-.02-.17-.06-.3-.1-.36-.03-.78-.08-.74-.07Z"/><path d="m100.8,5.8c2.23-.12,2.42-.18,2.34-.22l-2.08.09-1.61.09c-4,.18-7.86.36-12.1.67-1.73.12-4.23.28-6.3.38-2.27.1-6.55.39-7.28.46-7.68.67-15.11,1.19-22.48,1.78-2.71.22-4.41.43-6.63.64-11.32,1.09-22.63,2.28-33.88,4.01-1.21.19-2.45.39-3.13.55-.15.15,3-.38,5.62-.8,2.34-.38,3.74-.55,5.5-.76.81-.16,2.4-.35,3.78-.53l1.31-.2c2.34-.14,6.81-.71,10.63-1.1,1.48-.15,4.88-.55,3.89-.31-.24.05,4.37-.46,4.5-.5.27-.1,1.51-.22,3.19-.37.4-.07.83-.11,1.26-.12,2.28-.24,5.01-.53,4.07-.3.62-.05,1.24-.11,1.87-.16,1.95-.23,3.96-.44,6.67-.6,2.24-.27,4.41-.55,7.3-.59l3.58-.26c.77-.14,3.17-.29,5.1-.42,2.83-.2,2.34-.1,2.54-.06,3.26-.35,6.54-.51,9.82-.62.69-.08,1.32-.19,2.09-.24,2.2-.13,1.12.03,2.89-.05.31-.12,3.78-.23,5-.34l2.54-.13Z"/><path d="m233.94,5.42c-1.75-.13-3.69-.24-6.3-.27,1.49.11,2.94.23,1.18.24-1.39,0-2.44-.13-3.93-.16-1.95-.19-3.08-.15-4.38-.13-1.49.02-2.94,0-3.94-.14-3.53-.09-2.99.02-3.63.08.52.1,3.37.21,4.76.32,2.35.15,5.47.27,8.44.34,2.24.05,4.16.12,6.31.22,2.19.04-.07-.18,3.71-.04,2.81.11,2.34.18,2.77.25l2.49.09c-.18-.06-.51-.13-.47-.18.01-.02.31-.02.73,0,.43.01.98.03,1.52.05.93.04,1.64.09,1.1.09-.79,0-2.98-.05-.67.08.58.03,2.61.04,3.97.06.43,0,.66-.02,1.54.04l-1.57-.05c.94.18,4.05.28,7.33.31,1-.09-3.96-.28-3.6-.4-5.37-.12-5.31-.22-4.89-.31-2.16-.06-3.92-.21-6.14-.26.32.14-2.07.15-5.79,0-5.15-.22,1.67-.05-.11-.18-.25-.02-.29-.03-.42-.05Z"/><path d="m229,14.98l2.03-.03,3.92-.1,1.44-.03s-.08-.02-.12-.03c-.85,0-1.27-.01-.55-.05.1,0,.46-.01.57-.01,1.11,0-.06.04-.07.06,2.05-.03,3.55-.07,4.51-.14,1.51-.11,3.47-.15,5.04-.16,1.57,0,2.75.03,2.7.05-.3.14,2.94.08,5.28.08,2.96-.09,5.89-.18,8.89-.27,1.31-.05,3.84-.03,3.12-.11-.59-.06-3.34.01-4.04,0-2.15-.03-5.48.2-6.69.07-1.64.01-3.58.05-3.83-.02-1.38.02-2.85.05-3.74.02-3.03.03-6.09.07-9.09.1-5.95.07-11.1.26-17.11.35v.08c1.47-.04,3.01-.08,3.78-.04-.09.05-.14.1-2.4.15l1.07.08,5.28-.09Z"/><path d="m155.44,4.11c.77,0,1.27.04.5.05-5.98.15-3.04.21-.22.28l2.31-.03-.05-.11h-.29s.27,0,.27,0c2.1.02,6.65-.08,6.3.08,3.48-.02,6.63.12,10.5.03.56-.01,2.98.04,3.1.11l3.66.04c1.59-.08,6.22-.05,5.33-.2-.04,0,.8,0,1.22,0,2.72.25,3.87,0,6,.08-.01-.01,0-.02,0-.04-6.27-.3-7.76-.13-9.98-.03h-.48s.51,0,.51,0c-.63-.01-1.52-.03-2.26-.05-.37,0-.7-.02-.95-.02-.24,0-.4-.01-.41-.02-.63-.28-5.21-.14-8.92-.13-3.87,0-8.33.07-11.74-.03-1.68-.02-1.43-.12-4.36-.08l-.07.08Z"/><path d="m165.31.6h2.3c5.62-.1,5.54.03,4.96.16,1.85.01,1.75-.06,2.66-.08-1.66-.14,1.09-.35,6.19-.38-1.17-.08-1.27-.17,0-.26-1.29-.09-2.37-.03-3.5.02.75.01.93.04-.07.05-1.38.02-1.15-.02-1.29-.05-2.97-.1-7.35.07-10.51.14-5.18.12-10.83.21-15.73.43l.03.05,3.6-.07c1.13-.1,2.15-.09,3.18-.08l4.28-.03c.31-.06.57-.12,2.87-.16,1.55-.03,2.44-.01,3.18.01,1.73.05-.63.15-2.14.25Z"/><path d="m255.04,14.33c1.21.13,4.53-.09,6.69-.07.69,0,3.44-.07,4.04,0,.72.07-1.81.06-3.12.11-3,.09-5.93.18-8.89.27l1.08.05,1.44-.02c4-.17,9.09-.19,13.59-.22,1.07-.05.81-.09.29-.13-.91-.08.47-.12,3.37-.13l.05-.04c.04-.06.91-.07,2.68-.09h.27s.08-.02.11-.03c0-.03-.08.12,0,.14h-.04c-.15-.05-.33-.08-.5-.1.09.02.25.06.41.09.04,0,.08.02.1.03h0s-.07-.08-.05-.12c-.01-.05.06-.1.07-.09h-.02s-.13,0-.17,0c-.09,0-.11-.01.02-.03.03,0,.07-.01.12-.02h.02s.02-.02-.04.02c-.05.04-.07.11-.06.15-.02.06.1.15.08.13h0s-.02,0-.03,0c-.13-.03-.34-.06-.6-.09l.1.05.32.05.15.03h.05s.01.02-.03,0c-.12-.11-.11-.27,0-.36.13-.07,0-.01-.03-.03h-.16s-.33.02-.33.02h-1.33s-2.66,0-2.66,0h-5.33c-3.56,0-7.12.1-10.69.17,1.15.06,3.25.12-.95.25Z"/><path d="m153.01,16.82c1.47-.04,1.34.11,3.96-.07,1.96-.14,3.82-.07,5.77-.15.55-.16,3.2-.2,5.99-.22,2.36-.02,4.31-.09,6.09-.19,1.84-.1,2.66-.18.7-.19-2.62.06-5.03.08-7.85.18-8.77.33-9.73.35-16.76.42-.17,0-.5,0-.55,0-3.57.23-9.02.18-12.67.4.35.06.39.12,2.86.09.08-.05.67-.07,2.36-.11,3.57-.06,6.9-.12,10.09-.17Z"/><path d="m255.04,14.33c4.2-.13,2.09-.18.95-.25-2.77,0-4.63-.04-8.59.12-2.86.12-8.57.13-13.15.2-6.16.11-12.61.23-18.83.35-2.73.04-4.53.08-4.23.18.29.09,2.5.04,4.96-.03,1.71-.04,3.42-.08,5.12-.12,6.01-.1,11.16-.28,17.11-.35,3-.03,6.06-.07,9.09-.1.73-.03,1.56-.07,2.18-.08,1.38-.02,1.51.03,1.56.06.25.06,2.19.03,3.83.02Z"/><path d="m184.1,4.37c2.21-.1,3.71-.27,9.98.03l5.02.05c1.33,0,2.72,0,2.38-.06-2.35-.15-5.43-.14-8-.18-9.84-.16-19.68-.29-29.58-.2-2.64.03-3.02.06-4.03.11,3.41.1,7.87.03,11.74.03,3.71,0,8.29-.14,8.92.13.01,0,.16.01.41.02.24,0,.57.01.94.02.74.02,1.62.03,2.23.05Z"/><path d="m68.13,17.94c-.59.05-1.08.09-1.8.16-2.4.17-2.12.13,2.9.11,8.34-.04,16.6-.23,24.81-.34,2.5-.03,5.78-.08,5.23-.2-4.66-.05-9.76.05-15.36.21-3.61.1-6.37.11-5.68-.04-3.63.11-6.66.05-10.11.1Z"/><path d="m137.7,17.01c3.65-.22,9.1-.17,12.67-.4.04,0,.38,0,.55,0,7.03-.07,7.99-.09,16.76-.42,2.81-.1,5.23-.12,7.85-.18-1.12-.09-2.34-.18-6.65-.12l-3.16.16c-1.17.11-2.96.15-5.5.2-3.1.08-6.84.17-9.52.24-5.41.12-10.22.38-15.37.43l1.37.12c.35,0,.68-.01,1.01-.02Z"/><path d="m200.96,15.23c-1.62.15-2.93.29,3.56.16,2.09-.04.78.03.62.07-3.19.14-6.72.18-9,.18-5.79,0-7.11.14-8.35.3l-1.19.03c-3.81.02-10.06.12-4.13-.2,1.07-.06,1.04-.12,1.52-.18,3.28-.07,6.57-.15,9.84-.22,2.12-.04,3.72-.08,3.93-.16l3.65-.07c-.14.03-.08.06-.46.1Zm-10.46.33c-.13,0-.34,0-.66.02.18,0,.36,0,.66-.02Z"/><path d="m55.92,4.13c-.93.03-3.02.22-4.88.41-1.86.18-3.48.35-3.48.28,0-.08,2.61-.43,3.72-.63,1.15-.21,6.17-.7,10.16-.97,1.8-.11,3.51-.21,5.3-.32,1.73-.11,3.85-.16,5.11-.3,1.35-.14-3.42.16-2.55.04-5.88.21-13.17.92-19.25,1.41-1.92.15-1.48.22-3.02.4-1.48.2,5.2-.44-.28.17-1.83.3-6.63.93-5.88,1,1.13-.13,2.61-.29,3.34-.35,1.84-.14,1.82.04,6.47-.6.05,0,1.69-.12,2.73-.2,3.05-.25,5.95-.5,8.51-.75-.89-.09-4.27.33-6,.43Z"/><path d="m39.56,5.3c-1.52.17-2.61.3-3.4.35-1.98.14-5.72.59-8.62,1.1-2.59.45-4.92.93-5.2,1.08-.5.3,2.76-.2,10.04-1.24,1.78-.25,4-.49,6.03-.71,2.2-.36,1.34-.36-1.06-.12-2.43.24-4.65.59-6.36.91-.63.11-3.53.58-3.29.46.21-.11-1.48.08-.43-.15.65-.14.96-.24,2.93-.54,2.05-.3,2.95-.38,3.19-.36.26.02.57.02,2.85-.28,2.21-.29,3.34-.46,3.32-.52Z"/><path d="m135.31,16.91c5.16-.05,9.96-.31,15.37-.43,2.68-.07,6.43-.16,9.52-.24,2.54-.05,4.34-.09,5.5-.2-4.35-.07-10.84.2-16.21.34-8.01.21-16.19.5-23.99.52l-.64.06c1.16.03,5.23.01-.97.17-2.03.05-3.17.14.32.09,3.68-.1,6.37-.31,11.11-.3Z"/><path d="m146.9,4.74c-.08-.12-1.72-.15-5.46,0-2.76.11-4.54.13-6.77.13-2.27,0-6.12.23-8.27.19-5.34.28-11.2.4-16.79.67-1.91.09-2.99.15-3.86.23,5.15-.14,10.71-.37,16.71-.59,3.82-.14,7.71-.27,11.88-.33,3.64-.08,8.34-.19,12.57-.29Z"/><path d="m130.26,1.16l2.7-.06h4c.57,0,1.13-.02,1.71-.03,1.85-.07,3.69-.14,5.54-.21-3.27-.11-9.77.11-14.44.21-9.29.2-18.66.41-28,.62l-2.49.08c4.21.06,8.73,0,13.64-.21,3.97-.11,8.17-.27,10.44-.14.6-.01,1.2-.03,1.8-.04.43-.01.86-.02,1.28-.04-.02-.03-.07-.04-.12-.05-.13,0-.26-.01-.39-.02h.89s3.46-.11,3.46-.11Z"/><path d="m253.18,12.63c-3.55-.2-7.09-.4-10.68-.53-2.84-.13-5.56-.26-7.65-.41-1.91-.08-2.87-.12-3.83-.16-4.54-.2-8.96-.32-13.79-.56-2.51-.13-3.85-.07-4.6-.02,13.68.54,27.37,1.12,41.05,1.78l-.5-.09Z"/><path d="m205.14,15.45c-3.19.14-6.72.18-9,.18-5.79,0-7.11.14-8.35.3,9.53-.17,19.06-.31,28.57-.63,2.3-.08,3.74-.03,5.61-.08,2.58-.08,6.55-.1,7.03-.24l-5.28.09-8.67.16-9.91.23Z"/><path d="m159.13,9.08c.13-.06-.69-.15,3.29-.04,2.48.07,4.61.1,4.18,0-10.21-.31-20.42-.58-31.03-.65l.06.05.36.04c.2,0,.4,0,.62,0,1.78,0,3.54.01,4.05.1.32,0,.64,0,.97.01l3.74.1c.57-.06,1.84-.05,3.84.03,2.21.05,4.5.02,6.5.13.66.04-.34.05-1.43.05l-.1.03,1.21.09c2.19.11,2.39.02,3.74.05Z"/><path d="m186.6,15.96c-3.81.02-10.06.12-4.13-.2,1.07-.06,1.04-.12,1.52-.18-1.82.03-1.21-.02-1.33-.05l-2.43.06c.76.06-2.39.17-2.47.24l1.63-.03c-.12,0-.34.02-.35.02-.45,0-.88,0-1.32,0-2.16,0-.84-.1-1.29-.15-2.46-.03-4.97.03-7.56.19,4.32-.06,5.54.03,6.65.12,1.96.01,1.14.09-.7.19-1.78.1-3.73.17-6.09.19-2.79.02-5.44.06-5.99.22,6.27-.14,12.67-.39,18.87-.47,2.44-.03,3.73-.1,4.99-.17Z"/><path d="m124.21,17.22c-3.49.05-2.35-.04-.32-.09,6.2-.15,2.13-.13.97-.17-1.06.09-3,.08-4.49.12.16.04-.97.13-1.89.13-4.53,0-7.74.21-11.69.27-2.11.1-2.22.05-2.39,0-2.14-.02-2.67.04-3.29.1.19,0,.51,0,.54,0,.88.1,3.85.05,7.1-.02,4.47-.1,7.58-.03,12.21-.14.12,0,.58.05.88.08l4.84-.03h2.57s.3-.12.3-.12c-5.49.09-5.81-.01-5.36-.15Z"/><path d="m57.35,18.57c-2.56.03-3-.05-4.64-.07-1.05-.01-2.11-.03-1.47-.08.49-.04,1.59-.04,2.61-.05,1.21-.02,2.75-.03,3.56-.04,1.53-.05,3.94-.13,3.66-.16-.67-.07-2.88.03-4.41.03-.94,0-1.81,0-2.71,0-1.18-.05-2.25.02-3.36.03-1.87.04-3.86.09-3.31.15,2.15.23-3.65.27-8.84.29.64.05,3.34.02,3.55.09,4.26-.02,8.3-.03,12.6-.05,3.08-.03,2.42-.08,2.77-.13Z"/><path d="m106.8,17.49c3.95-.06,7.15-.27,11.69-.27.92,0,2.05-.09,1.89-.13-7.91.16-15.78.32-23.68.47-3.96.05-8.13.11-12.06.17-2.37.04-4.3.08-6.38.11-.69.15,2.07.14,5.68.04,5.6-.16,10.7-.27,15.36-.21.62-.02,1.23-.05,1.85-.07.62-.06,1.15-.12,3.28-.1h2.39Z"/><path d="m205.14,15.45l9.91-.23.1-.08c-1.35.03-2.54.04-2.33,0,.21-.05,1.58-.08,2.81-.11.46-.05.49-.09.52-.13-2.46.07-4.67.12-4.96.03-3.16.03-6.44.1-9.77.19-.14.03-.08.06-.46.1-1.62.15-2.93.29,3.56.16,2.09-.04.78.03.62.07Z"/><path d="m199.1,4.45l-5.02-.05v.04s.27.02.27.02l-.26-.02c-2.14-.07-3.29.18-6-.08-.43,0-1.27,0-1.22,0,.89.15-3.74.12-5.33.2.27.04,1.38.05,2.38.06,1.31-.05,3.41,0,5.26.02,1.37.04,2.23-.09,2.96.02.78.12,3.05.09,4.32.14,2.18-.03,3.17.03,3.91.11,1.3.04,2.84.15,3.65.07l.56-.05c-1.52-.06-2.28-.14-4.41-.18-1.46-.06-.9-.09-1.03-.12-6.65-.2.89-.11,0-.2Z"/><path d="m139.19,8.93c-2.1-.09-4.55-.19-6.55-.28-4.1-.21-11.8-.25-15.09-.11,3.06.03,6.47.07,4.32.17,5.88.1,11.75.21,17.33.22Z"/><path d="m199.11,4.65c-6.65-.2.89-.11,0-.2,1.33,0,2.72,0,2.38-.06,3.79.07,7.8.07,11.23.31.17.01.22.02.16.03-4.98-.03-5.39.13-5.13.3l-3.19-.08c-1.52-.06-2.28-.14-4.41-.18.14-.04.19-.07-1.03-.12Zm3.98-.03c-.8-.04-1.56-.02-1.31,0,.51.05-2.04.08,1.78.16,1.91.03,1.75,0,.37-.07-.26-.03-.24-.07-.85-.1Z"/><path d="m112,5.19c1.16-.05,2.13-.02,3.44-.13,2.93-.25,3.2-.14,4.16-.12.87-.02,1.99-.05,2.59-.06,2.34-.11,4.54-.22,6.26-.18,1.41.04-.57.13-1.99.23-2.52.17-4.46.2-6.52.21-1.28,0-3.42.07-4.46.15-3.57.25-5.16.22-7.28.26,1.26-.12,2.54-.24,3.81-.36Zm13.9-.37s-.44.02-.46.02c-.05.01.02.02.04.03l.97-.05c-.17,0-.33,0-.54,0Z"/><path d="m183.19,9.53c5.05.14,10.34.35,14.88.38,1.15,0,2.75.1,3.89.16,2.05.11,3.44.14,4.56.12-4.25-.27-9.41-.39-14.24-.52-6.26-.16-12.11-.47-18.43-.55-.92-.01-2.04-.04-2.46-.02,1.28.11,3.45.19,5.96.21,3.02.02,4.45.11,5.84.21Z"/><path d="m39.56,5.3c.02.07-1.11.23-3.32.52-2.28.3-2.59.3-2.85.28-.24-.02-1.15.05-3.19.36-1.97.29-2.28.4-2.93.54-1.05.23.63.04.43.15-.24.12,2.66-.35,3.29-.46,1.71-.32,3.93-.67,6.36-.91,2.4-.24,3.26-.24,1.06.12.82-.08,1.65-.16,2.46-.3-.75-.07,4.06-.71,5.89-1-1.31.1-2.51.2-2.6.15l-4.6.55Z"/><path d="m88.27,6.55c-3.28.11-6.56.27-9.82.62-1.91.23-7.81.62-8.86.85l.45.09c2.15-.12,4.11-.26,5.88-.44.28-.04-.53-.02.78-.12l.4.04c.36-.02.75-.05,1.18-.07,5.08-.36,4.04-.49,8.71-.81,1.05-.08,1.32-.12,1.29-.15Z"/><path d="m254.82,14.68l-1.08-.05c-2.34,0-5.59.06-5.28-.08.05-.02-1.13-.05-2.7-.05-1.57,0-3.53.04-5.04.16-.95.07-2.46.11-4.51.14.09,0,.13.02.16.03l-.09.11c6.11-.05,12.15-.06,18.53-.26Z"/><path d="m240.09,11.46c-.49.08,2.21.22,4.4.35,4.73.26,10.22.6,14.36.77,2.87.12,4.8.23,7.59.41,1.69.11.76-.02.9-.05-5.96-.41-11.74-.77-18.01-1.02-2.71-.13-6.14-.3-9.24-.46Z"/><path d="m158.03,4.42l-2.31.03c-1.23.06-2.93.13-2.65.2,6.22-.02,12.88-.13,19.18,0,2.54.05,3.32-.09,5.61-.11-.12-.06-2.54-.12-3.1-.11-3.87.09-7.02-.05-10.5-.03-2.25.22-4.13-.02-6.23.03Z"/><path d="m53.27,9.1c-.62.05-1.25.11-1.87.16-1.15.18-1.11.18.85.03.86-.06,2.01-.14,2.2-.14.66.02-2.82.3-3.37.4l2.62-.15,4.09-.32,8.28-.8c-5.66.33-5.54.29,1.17-.37-2.89.03-5.06.32-7.3.59-2.2.2-3.26.48-6.67.6Z"/><path d="m38.43,18.66c5.19-.02,10.99-.06,8.84-.29-.55-.06,1.44-.11,3.31-.15-.58-.12-3.22,0-4.8-.01-1.14.12-1.87.26-7.85.17-.99-.02-2.58,0-2.99.03-.43.05.8.06,2.1.07h.56s-.5,0-.5,0l1.32.18Z"/><path d="m212.72,4.7c.17.01.22.02.16.03.55.07,4.41.16,3.69.23,1,.13,2.45.16,3.94.14,1.3-.02,2.43-.05,4.38.13,1.5.03,2.55.17,3.93.16,1.76,0,.31-.12-1.18-.24-5.05-.2-10.4-.48-14.92-.45Z"/><path d="m232.09,2.9c-1.69-.23-5.9-.55-7.09-.77-.56-.11-5.89-.37-8.79-.49-.48-.01-.79-.02-1.18-.03l-.03.1c4.46.35,8.62.5,13.03.89l3.25.25c.43.03.69.05.81.05Z"/><path d="m160.38,9.39c-1.72-.15-12.98-.52-16.6-.54-3.57-.02-1.3.1-2.02.15,2.27.03,4.56.03,6.71.14.47.01,2.05.06,2.15.07,2.9-.06,6.56.13,9.75.18Z"/><path d="m55.92,4.13c1.73-.1,5.11-.52,6-.43,1.78-.07,3.53-.22,5.29-.36,2.93-.27,7.58-.51,11.04-.64-.7-.02-.62-.16-4.31.09-2.24.14-5.46.34-8.25.51l-1.53.15h-.49s1.93-.15,1.93-.15c-2.3.13,4.76-.59-3.65.11-.29.08.82.08-2.5.34-.67.11-3.7.33-3.52.39Z"/><path d="m237.58,11.45c.07-.01-.36-.06.71-.01-7.56-.36-15.51-.81-22.06-.83l.17.05,4.94.19c5.4.2,10.8.4,16.23.6Z"/><path d="m78.25,2.69c-3.45.13-8.11.37-11.04.64.41.09,3.14-.16,4.54-.23,1.35-.06,2.71-.12,4.07-.18,1.37-.04,2.74-.08,4.11-.12,2.75-.09,5.5-.18,8.22-.27-1.11-.18-6.46.09-9.91.17Z"/><path d="m167.66.7c-3.89.07-8.28.23-10.89.15-.99-.03-2.43.04-2.66.1-.17.05.14.08-1.5.15-.53.13,2.74.01,4.47-.03,3.89-.09,7.84-.17,11.77-.26-.32-.04.67-.12-1.18-.11Z"/><path d="m187.57.15c2.72.07,5.54.16,7.48.12,1.26-.03,2.01.03,3.13.1,3.78.23,7.51.39,11.05.47-3.51-.29-7.91-.46-12.19-.59-3.16-.09-6.29-.15-9.44-.17l-.04.08Z"/><path d="m2.87,15.84c.41-.15,1.26-.39,1.26-.41,0,0-.06,0-.19.02-.13.03-.33.07-.63.14-.3.07-.69.17-1.19.32-.25.07-.52.16-.82.27-.27.11-.67.26-.82.48-.05.03.1.16.27.22.17.06.34.12.5.16.34.08.66.14.97.19.61.1,1.15.17,1.64.23.98.11,1.77.21,2.59.3.83.08.28.15,2.87.25,2.09.07,1.61-.02,1.22-.09-.37-.07-.57-.13-.85-.2-2.05-.1-4.1-.21-6.14-.44-.51-.06-1.01-.12-1.51-.21-.48-.09-1.02-.19-1.39-.38-.04-.02-.07-.05-.07-.05,0,0,0,.06,0,.06,0,0,.08-.09.17-.14.19-.11.42-.21.66-.29.47-.17.96-.31,1.45-.43Z"/><path d="m246.4,5.91c-.42.09-.48.2,4.89.31l3.76.03c.79.01,1.58.02,2.37.01.5-.03,1.11-.04,1.72-.11.14-.02.34-.05.38-.08,0,0,0,0,0,0,.03.03.02.04.02.05,0,.02.01.05.03.06.02.02.04.03.07.03.03,0-.02,0-.02,0,0,0-.09.05-.14.11,0,0,0,0,0,0-.04-.02-.11-.06-.18-.08-.29-.11-.62-.19-.95-.26-.46-.08-.93-.14-1.39-.2-.06.03.31.11.86.22.27.06.58.13.91.2.16.04.32.08.46.13.08.02.14.05.19.07h.02s0,.07.05-.04c.09-.15.27-.18.16-.17-.04-.02-.06-.06-.06-.09-.02-.04-.13-.2-.1-.15-.01,0,0,0-.03.01l-.16.03c-.13.02-.25.04-.39.04-.26.02-.54.04-.81.05-.55.02-1.1.02-1.66.02l-3.33-.04-6.67-.18Z"/><path d="m53.7,9.4l-2.62.15c-3.51.33-7.22.76-10.21.91-.77.04-3,.32-2.86.32.62-.01-4.22.51-.8.22,5.46-.59,11.44-1.01,16.49-1.6Z"/><path d="m247.6,6.31c-1.36-.02-3.39-.03-3.97-.06-2.31-.13-.12-.08.67-.08.54,0-.17-.05-1.1-.09-.54-.02-1.09-.04-1.52-.05-.42,0-.72,0-.73,0-.04.05.3.12.47.18,4.5.27,9.62.49,14.71.55l.16-.09c-.06-.01-.07-.02-.05-.03l-1.36-.02c-3.27-.03-6.39-.13-7.29-.3Z"/><path d="m86.98,6.71c-4.67.32-3.63.46-8.71.81,2.6-.08,5.25-.17,8.67-.53.38-.05.63-.11,1.17-.14,8.22-.53,2.16-.24.23-.19-.2.04.02.06-1.45.14l.29-.08c-.07,0-.14-.02-.2-.02Z"/><path d="m24.59,18.64c-1.08-.08-3.2-.19-5.37-.16-4.16.07-11.66-.38-14.45-.45,6.74.54,13.34.57,19.82.61Z"/><path d="m126.7,17.49l-4.84.03-2.53.02c.02.09-2.08.12-4.12.16-4.78,0-9.26.11-13.49.29.41.03,1.71.04,2.58.02,7.23-.23,15.37-.25,22.4-.52Z"/><path d="m78.13,2.18c.25.11,1.09.18,5.86-.06,3.55-.17,8.04-.16,11.46-.32-5.16-.1-11.43.23-17.32.38Z"/><path d="m268.48,13.54c-1.65-.24-4.92-.52-8.51-.8.7.16-1.17.16-3.63.12,2.51.2,4.77.27,7.1.39,1.26-.02,3.28.17,5.04.3Z"/><path d="m131.79,1.65c-4.34-.04-13.39.16-18.8.42,5.36-.03,10.75-.21,16.12-.33.13-.08,1.45-.08,2.68-.09Z"/><path d="m136.79,4.53c1.45-.04,2.45-.08,2.41-.13h-1.59s-.35-.02-.35-.02h1.18s.98.01.98.01c1.49-.03,2.2-.07,2.32-.11-4.55.07-8.5.05-13.53.27.45.12,4.68,0,7.49,0,.36,0,.73-.01,1.1-.02Z"/><path d="m84.61,18.2c-5.71.08-11.38.16-16.23.33,1.92.04,3.72.05,6.58-.06,3.62-.13,8.13-.12,12.13-.22l-.23-.08c-.73,0-1.49.02-2.25.02Z"/><path d="m181.41.3c-5.1.03-7.85.24-6.19.38l4.98-.04c-.76-.08,2.92-.13,2.2-.21-1.45-.03-.84-.09-.99-.13Z"/><path d="m66.07,8.29l-8.28.8c4.18-.28,8.34-.56,12.25-.97l-.45-.09-3.53.27Z"/><path d="m207.75,5.03l-3.19-.08-.56.05c4.65.13,9.38.33,13.7.35-1.38-.11-4.24-.22-4.76-.32-.89-.01-1.65-.02-2.41-.03-.2.05-.32.1-2.78.03Z"/><path d="m187.57.15l.04-.08-6.19-.03c-1.27.09-1.18.17,0,.26,3.02,0,2.31.07,2.37.13.48.03,1.16.06,2.33.06,1.37,0,.55-.05.31-.07-.94-.1-2.73-.22,1.15-.27Z"/><path d="m155.44,4.11l.07-.08c-4.23.03-8.87-.02-12.46.21.63.06-.3.21,4.39,0,2.04-.1,5.58-.04,8-.13Z"/><path d="m129.57,17.37l-.3.11c4.82-.02,9.16-.19,13.62-.36h-2.33c-2.47.02-2.51-.05-2.86-.1-.33,0-.67.01-1.02.02,0,.14-.75.28-7.11.33Z"/><path d="m183.99,15.58c3.28-.07,6.57-.15,9.84-.22,2.12-.04,3.72-.08,3.93-.16-4.38,0-9.25.2-13.8.27,0,.04-.02.07.03.11Z"/><path d="m140.56,17.1h2.33c3.55-.04,7.23-.04,10.12-.28-3.19.05-6.53.11-10.09.17-1.69.04-2.27.06-2.36.11Z"/><path d="m233.94,5.42c.14.02.18.03.42.05,1.77.13-5.04-.04.11.18,3.71.16,6.1.14,5.79,0-2.18-.1-4.49-.26-6.32-.23Z"/><path d="m183.19,9.53c-1.39-.11-2.81-.19-5.84-.21-2.51-.02-4.68-.09-5.96-.21-.88-.01-2-.05-2.33-.02.72.06,1.44.11,2.16.17,3.88.1,7.71.2,11.57.3l.39-.03Z"/><path d="m121.86,8.71c2.15-.1-1.25-.14-4.32-.17-2.26-.04-3.69-.03-4.64.01l.06.08c2.91,0,5.82.02,8.9.07Z"/><path d="m269.85,14.43c-4.5.03-9.59.05-13.59.22,4.52.01,9.04-.15,13.56-.15l.02-.07Z"/><path d="m21.46,12.82c-.69-.19-5.89.7-8.9,1.15.2.03-.66.22,3.01-.34,1.83-.28,3.92-.55,5.89-.81Z"/><path d="m238.93,6.13c-.44-.07.03-.14-2.77-.25-3.78-.14-1.52.08-3.71.04,3.02.22,4.33.14,6.48.21Z"/><path d="m144.2.86c-1.84.07-3.69.14-5.54.21,3.49-.07,3.71,0,4.21.07.29.04,1.11.05,2.78.01.62-.02,1.59-.06,1.79-.08.55-.06-.81-.04-1.87-.03-3.85.03,3.08-.22-.26-.21-.35,0-.72.01-1.1.02Z"/><path d="m115.17,8.22c2.46-.02,5.81.24,7.73.06q-1.05-.13-7.73-.06Z"/><path d="m245.99,3.9c-3.25-.39-3.03-.44-3.75-.59-2.55-.27-5.35-.59-7.43-.68l.08.05c1.83.18,5.04.45,5.33.56.64.23,3.25.42,5.77.67Z"/><path d="m253.57,4.64c-1.59-.1,2.15.43,3.9.84.64.1,1.28.2,1.92.39.13.04.25.05.43.19.03,0,.12.2.06.26-.04.1-.13.16-.15.17-.08.05-.16.08-.23.09-.28.09-.53.12-.79.17.34-.04.62-.01,1.05-.17.04-.02.04,0,.1-.06.06-.05.11-.13.14-.21.03-.06,0-.21-.05-.28-.03-.04-.06-.07-.1-.1-.12-.09-.2-.12-.28-.16-.16-.07-.32-.11-.47-.15-.61-.16-1.21-.27-1.81-.38-1.2-.19-2.41-.39-3.72-.6Z"/><path d="m24.55,18.2v-.11c-2.32-.06-4.64-.12-7.21-.14.02.06-.87.12,2.6.17,2.62.04,3.81.08,3.72.16,1.15-.01.79-.05.89-.09Z"/><path d="m256.34,12.86c2.47.04,4.34.05,3.63-.12-2.54-.06-6.26-.2-6.8-.11l.5.09,2.67.13Z"/><path d="m167.66.7c1.85,0,.86.07,1.18.11l3.72-.05c.58-.13.66-.26-4.96-.17l.06.11Z"/><path d="m86.86,18.18l.23.08c2.41-.04,4.48-.09,6.23-.17-1.54-.22-4.04-.05-6.46.09Z"/><path d="m190.33,10.19s.25-.04.01-.07c-.68-.08,2.89-.08-.96-.21-3.41-.11-.47.09-.96.13-.14.01-1.27-.01-1.95-.02.83.07,1.57.14,3.87.17Z"/><path d="m268.48,13.54c-1.76-.13-3.78-.32-5.04-.3l2.72.19c1.03.06,1.9.12,2.38.19l5.03.34-1.05-.12-4.04-.29Z"/><path d="m37.27,11.4s-.1.03,0,.03c.43,0-1.4.25,1.62-.05,1.03-.1,2.96-.38.99-.24l-2.6.26Z"/><path d="m177.76,15.84c.08-.07,3.23-.19,2.47-.24l-3.8.1c.45.05-.87.15,1.33.14Z"/><path d="m44.17,4.75c.09.04,1.29-.05,2.6-.15,5.47-.61-1.21.03.27-.17-.24.01-.56.04-.95.09l-1.64.18c-.34.04-.43.06-.28.05Z"/><path d="m233.84,3.01l-2.47-.18c1.09.17,4.09.41,5.96.62l.14-.06-.09-.08c-.67-.06-1.18-.11-1.68-.16-.19.02-1.03-.06-1.85-.15Z"/><path d="m41.98,18.75c-.21-.07-2.91-.04-3.71-.08l-1.98.03,1.59.05c1.31.02,2.67.02,4.1,0Z"/><path d="m258.71,6.75c.26-.05.52-.08.79-.17.06-.02.14-.05.23-.09.02,0,.11-.07.15-.17.06-.06-.03-.27-.06-.26-.17-.14-.29-.15-.43-.19.08.03.16.06.25.1.05.03.08.04.14.09.04,0,.14.2.05.27-.08.11-.12.1-.17.13-.05.02-.1.04-.14.04-.09.02-.17.04-.26.05-.34.05-.66.06-.99.08-.66.03-1.31.03-1.97.04l-.16.09c.85.01,1.71.02,2.57-.01Z"/><path d="m200.35,4.93c-.74-.08-1.73-.15-3.91-.11,1.04.06,1.46.16,3.91.11Z"/><path d="m234.94,14.85l-3.92.1c-.18.1,1.99.04,3.91,0v-.1Z"/><path d="m189.17,4.65c-1.86-.02-3.95-.07-5.26-.02,2.67.11,4.1.08,5.26.02Z"/><path d="m24.23,13.21c1.21-.21,2.62-.41,4.2-.71-1.35.22-2.17.23-4.2.71Z"/><path d="m272.52,13.83l1.05.12c.82.07,1.65.14,2.46.25l-.1-.05c-1.1-.17-2.24-.27-3.41-.32Z"/><path d="m217.64,1.34s-.03.01-.17,0c.18,0,.36.02.58.03.11-.02.23-.04.35-.06l-.76.02Z"/><path d="m268.53,13.61c-.47-.06-1.35-.12-2.38-.19-.03.06.78.12,2.38.19Z"/><path d="m176.55.07c.14.03-.09.07,1.29.05,1.01-.01.82-.04.07-.05h-1.37Z"/><path d="m237.47,3.4l-.14.06c1.27.11,2.16.17,2.57.17l-2.43-.23Z"/><path d="m231.28,2.85l-3.25-.25c1.36.16,2.45.24,3.25.25Z"/><path d="m183.93,15.58l.03-.11c-.83.01-1.25.03-1.29.06.11.03-.49.08,1.27.05Z"/><path d="m77.09,7.59l-.4-.04c-1.3.1-.5.08-.78.12.4-.03.79-.05,1.18-.08Z"/><path d="m131.78,1.65c-1.23,0-2.55.01-2.68.09,1.13-.02,2.25-.03,2.68-.09Z"/><path d="m182.79,9.56c-3.86-.1-7.69-.2-11.57-.3-1.35-.03-1.94-.02-2.05.01l-.17.1c2.13.06,2.84.11,2.08.15-.36.02-.86.04.55.08.41,0,1.07.02,1.62.03.55,0,.99,0,.99,0-.26-.16,5.4-.02,7.61-.04.45,0,.64-.02.95-.04Z"/><path d="m102.05,8.18c-2.63-.04-5.26-.1-7.82-.03,4.42.02.81.14,3.92.18l4.97.08c-.64-.08-3.27-.16-1.06-.23Z"/><path d="m234.85,11.69c2.09.16,4.81.28,7.65.41-.09-.05.32-.08-.37-.14-.92-.08,2.81.03-.57-.13-2.34-.11-1.89-.03-1.63.03.12.03.13.11-1.4-.04-2.78-.26-2.21-.05-3.67-.14Z"/><path d="m145.37,8.7l-3.74-.1c-.48.03-3.69.01-.86.1,2.99.1,4,.05,4.61,0Z"/><path d="m154.28,8.91c1.09,0,2.09-.02,1.43-.05-2-.11-4.29-.07-6.5-.13.19.1,3.07.13,5.07.18Z"/><path d="m221.34,10.85l-4.94-.19c.27.08,1.82.16,3.8.23,1.53.05,1.03-.02,1.14-.05Z"/><path d="m276.08,14.06c.17.02.35.04.5.08h.04c-.08,0,0-.16,0-.12-.03,0-.07.01-.11.02h-.27s-.14.09-.14.09c.18,0,.4-.01.55-.04-.08-.01-.35-.07-.52-.09-.39-.05-.78-.09-1.15-.13-.73-.07-1.36-.11-1.7-.1.93.09,1.87.17,2.79.3Z"/><path d="m140.66,8.59c-.52-.09-2.28-.1-4.05-.1l.12.07c1.32.01,2.63.02,3.93.03Z"/><path d="m164.59,9.42c.27.01.52.02.78.04l.71-.02c-.32-.01-.7-.02-.95-.03-.24,0-.36,0-.54.01Z"/><path d="m231.02,11.53l2.88.12c-.36-.04-.63-.08-1.11-.1-1.4-.07-1.38-.03-1.77-.02Z"/><path d="m155.39,9.03l-1.21-.09c-1.88.02-.41.05,1.21.09Z"/><path d="m136.73,8.56c-.67,0-1.66-.03-1.65,0,0,0,.48.03.73.03,1.14.02.82-.01.91-.03Z"/><path d="m169,9.38l.17-.1c-1.61,0-1.74.03-.17.1Z"/><path d="m202.92,10.42s-.22-.02-.39-.03c.02.02.22.02.39.03Z"/><path d="m273.56,14.14l-.05.04,2.56-.06c-.82,0-1.67.01-2.51.02Z"/><path d="m159.16,9.08l.28.02c-.1,0-.21-.01-.28-.02Z"/><path d="m135.99,8.48l-.36-.04c-1.08,0-.86.02.36.04Z"/><path d="m165.31.6c1.51-.09,3.87-.19,2.14-.25-.74-.02-1.63-.04-3.18-.01-2.3.05-2.56.11-2.87.16,1.2.03,1.79.08.77.17-.47.04-.35.07,1,.04,1.64-.03,1.89-.07,2.14-.12Z"/><path d="m59.45,3.73c3.32-.26,2.21-.26,2.5-.34-1.23.08-2.96.24-3.14.19-.09-.03-1.29.03-2.39.13-1.12.1-2.15.25-2.54.32-.65.12,1.5-.11,2.18-.14,1.33-.06,2.28-.1,3.39-.16Z"/><path d="m123.35,1.42c-2.27-.13-6.47.03-10.44.14,2.91.04,6.21.02,10.44-.14Z"/><path d="m126.43,1.34c-.43.01-.85.02-1.28.04-.22.01-.35.02-.66.04-2.39.1-3.98.18-1.52.21.64,0,2.42,0,2.11-.04-.72-.07,7.14-.28,1.34-.25Z"/><path d="m153.93.62l-3.6.07c-.04.05-3.03.2.15.14,2.36-.04,4-.15,3.44-.22Z"/><path d="m136.96,1.11h-4c.1.04-2.06.13-.22.13,1.46,0,3.03-.06,4.22-.13Z"/><path d="m67.07,3c.73-.03,1.16-.05,1.59-.07.46-.03.9-.07,1.35-.1-.38.01-.74.02-1.16.04-.44.03-.95.07-1.78.13Z"/><path d="m130.26,1.16l-3.46.11c-.16,0-.33.02-.5.03l.16.03c1.55-.05,3.83-.08,3.8-.17Z"/><path d="m157.11.53c-1.02,0-2.05-.01-3.09.08l3.09-.08Z"/><path d="m74.58,2.4c.36,0,.53-.02.71-.04-.13,0-.26,0-.71.04Z"/><path d="m22.55,12.16c-1.38.18-2.96.37-3.78.53-.6.19-4.77.68-6.41,1.01-.62.12-2.74.34-3.65.58-.56.14,1.5-.16,2.78-.32,1.3-.16,2.32-.3,4.11-.6,2.25-.37,4.87-.75,6.91-.88,1.22-.08,3.41-.4,4.69-.57,2.24-.3.42-.13-.89,0-2.08.19-4.13.4-3.75.26Z"/><path d="m24.55,18.2c-.1.03.26.08-.89.09-.29.04-3.35,0-1.84.09.53.03,1.74.07,2.54.08,2.67.02.9-.07,1.48-.1.33-.02.57-.04,1.06-.05.96-.03,3.76-.03,2.71-.08-1.21-.06-3.23,0-5.06-.02Z"/><path d="m15.47,18.18c-.27-.01-.52-.03-.77-.04h-.72c.32.03.69.04.95.05.23,0,.36,0,.54-.01Z"/><path d="m46.07,9.68l1.23-.11c-.4.04-.83.08-1.23.11Z"/><path d="m55.83,10.19c-.25,0-.33-.03-2,.1.23.01,1.02-.03,2-.1Z"/><path d="m100.8,5.8l-2.54.13s.56.09-.22.14c-1.38.11-2.61.19-2.15.23.23.02.98-.04,1.29-.07,1.1-.11,4.77-.28,3.79-.33-.32-.02-.12-.07-.16-.1Z"/><path d="m108.18,5.55c-.78,0-.84-.05-2.62.03-.25.01-.87.07-.8.08.35.04,2.07-.05,3.42-.11Z"/><path d="m136.79,4.53c-.37,0-.73.01-1.1.02,0,.03-.23.06,1.21.04l-.11-.06Z"/><path d="m87.18,6.73l-.29.08c1.47-.09,1.25-.11,1.45-.14l-1.16.07Z"/><path d="m93.25,6.27l.44.02c1.2-.09-.03-.03-.44-.02Z"/><path d="m98.15,8.33c-3.11-.04.5-.16-3.92-.18-1.61.01-2.74.07-3.58.12-1.78.11-3.96.24-.64.21,5.21-.03,5.44-.12,8.14-.15Z"/><path d="m77.23,9c1.79-.1,4.66-.16,4.5-.25-.05-.03-.78-.06-2.81.05-1.97.11-4.85.3-4.96.34-.22.08,2.34-.12,3.27-.14Z"/><path d="m79.18,8.68c-1.41.03-2.28.03-3.3.08-1.29.06-3.58.18-3.67.24-.05.03.79.02,2.16-.05,1.47-.08,2.9-.16,4.8-.27Z"/><path d="m62.08,9.8c-.17-.01-.18-.04-1.48.04-.41.03-.63.06-.93.09l2.41-.14Z"/><path d="m84.12,8.59c-.4.03-.15.02.1,0h-.1Z"/><path d="m64.46,9.69l-.57.03-.57.03c.38,0,.76-.03,1.13-.06Z"/><path d="m212.52,1.12c.26.08,1.55.17,3.36.26,2.3.12,1.4,0,1.62-.03-2.24-.15-2.33-.04-4.98-.23Z"/><path d="m183.78.43c-.06-.05.65-.13-2.41-.13.19.05-.42.1,1.03.13h1.38Z"/><path d="m212.5,1.12l-.27-.03c.1.01.2.02.27.03Z"/><path d="m84.61,18.2l2.27-.02c-.4-.02.76-.09-1.06-.06-1.03.02-1.29.06-1.21.09Z"/><path d="m115.2,17.7c2.04-.04,4.14-.07,4.12-.16-1.52.05-3.22.1-4.12.16Z"/><path d="m245.99,3.9c-2.52-.25-5.13-.44-5.77-.67-.29-.1-3.5-.38-5.33-.56,1,.17,1.78.33,3.03.53,2.67.42,7.57.94,11.59,1.29.5.04.75.05,1.37.12,2.28.26,2.45.16.19-.19q-.94-.14-1.49-.13c-.26,0-.19.06-1.92-.14-.53-.06-1.11-.17-1.67-.26Z"/><path d="m254.89,6.62l1.36.02c2.39-.12-1.32-.25-1.2-.39l-3.76-.03c-.36.11,4.6.3,3.6.4Z"/><path d="m258.35,5.99c.33.08.66.16.95.26.07.03.14.06.18.08.02,0,.02.01,0,0,.05-.06.14-.11.14-.11,0,0,.05,0,.02,0-.03,0-.05-.01-.07-.03-.02-.02-.03-.04-.03-.06,0-.01,0-.02-.02-.05,0,0,0,0,0,0-.05.03-.24.06-.38.08-.62.07-1.23.08-1.72.11.04,0,0,.01.13.02.82.01,1.17.02,1.56.02.09,0,.2,0,.3-.02.09,0,.26-.08.24-.05-.13-.14-.55-.26-1.02-.37-2.97-.59.32.18-.26.13Z"/><path d="m251.83,4.82c-.36-.03-.78-.08-.74-.07.11.03.37.09.58.14.16.01.46.04.46.03.01-.02-.17-.06-.3-.1Z"/><path d="m233.84,3.01c.82.08,1.66.17,1.85.15-.78-.08-1.88-.21-1.85-.15Z"/><path d="m237.38,3.32l.52.03c-.22-.02-.45-.03-.52-.03Z"/><path d="m66.07,8.29l3.53-.27c1.04-.22,6.94-.61,8.86-.85-.2-.04.3-.13-2.53.06,1.21-.01-.85.16-2.15.28-1.59.14-2.35.14-2.95.15l-3.58.26c-6.71.66-6.83.7-1.17.37Z"/><path d="m70.81,7.66c.6,0,1.36,0,2.95-.15,1.3-.11,3.36-.29,2.15-.28-1.93.14-4.33.28-5.1.42Z"/><path d="m53.27,9.1c3.4-.11,4.46-.4,6.67-.6-2.71.15-4.72.37-6.67.6Z"/><path d="m46.05,9.68l1.28-.12c-.43,0-.86.04-1.28.12Z"/><path d="m207.75,5.03c2.46.07,2.58.02,2.77-.03-.37-.08.91-.03,2.28.03.77-.05.23-.16,3.76-.07.72-.07-3.14-.15-3.69-.23-4.98-.03-5.39.13-5.13.3Z"/><path d="m247.56,6.31l1.57.05c-.88-.06-1.11-.04-1.57-.05Z"/><path d="m216.05,15.02c-.6.05-.76.08-.92.12,2.52-.06,5.02-.11,7.52-.17,2.26-.05,2.31-.1,2.4-.15-1.34.02-2.99.07-3.79.04l-5.21.15Z"/><path d="m251.21,14.31s-.18-.08-1.56-.06c-.63,0-1.45.05-2.18.08.89.03,2.36,0,3.74-.02Z"/><path d="m221.26,14.87c.8.03,2.44-.02,3.79-.04-.77-.03-2.31,0-3.79.04Z"/><path d="m236.22,14.79s1.18-.06.07-.06c-.12,0-.47.01-.57.01-.72.04-.3.05.51.05Z"/><path d="m158.03,4.42c2.1-.04,3.99.2,6.23-.03.35-.16-4.2-.06-6.3-.08.03.04.05.07.06.11Z"/><path d="m184.14,4.37h-.51c.16,0,.32,0,.51,0Z"/><path d="m157.97,4.31h-.27c.1,0,.19,0,.27,0Z"/><path d="m273.56,14.14l2.53-.02.14-.07c-1.77.02-2.63.03-2.68.09Z"/><path d="m129.57,17.37c6.36-.05,7.1-.19,7.11-.33l-1.37-.12c-4.73,0-7.42.2-11.11.3-.45.14-.13.24,5.36.15Z"/><path d="m189.85,15.58h.54s-.23-.02-.54,0Z"/><path d="m126.8,1.27h-.89c.13.01.26.02.39.03.17,0,.33-.02.5-.03Z"/><path d="m177.72,15.84c.43,0,.87,0,1.32,0,.01,0,.23-.01.35-.02-.54,0-1.09.02-1.67.03Z"/><path d="m106.8,17.49h-2.39c.17.05.28.1,2.39,0Z"/><path d="m215.13,15.15c.16-.04.32-.08.49-.12-1.23.03-2.6.06-2.81.11-.21.05.98.04,2.32,0Z"/><path d="m200.14,4.77c.14-.04.19-.07-1.03-.12.13.04-.43.07,1.03.12Z"/><path d="m194.09,4.44l.26.02c-.09,0-.18-.01-.26-.02Z"/><path d="m203.94,4.71c-.26-.03-.24-.07-.85-.1-.8-.04-1.56-.02-1.31,0,.51.05-2.04.08,1.79.16.12-.02.24-.05.37-.07Z"/><path d="m203.94,4.71c-.12.02-.24.05-.37.07,1.9.03,1.75,0,.37-.07Z"/><path d="m126.44,4.82c-.17,0-.33,0-.54,0-.02,0-.44.02-.46.02-.05.01.02.02.04.03l.97-.05Z"/><path d="m37.11,18.48h.5c-.19,0-.37,0-.5,0Z"/><path d="m65.61,3.29l-1.93.16h.49c.51-.06,1.02-.11,1.45-.16Z"/><path d="m137.62,4.41h1.59c-.11-.03-.44-.04-.76-.05l-.83.05Z"/><path d="m212.8,5.03c-1.36-.06-2.65-.11-2.28-.03l2.28.03Z"/>
                  </g>
                </mask>
              </defs>
              <path class="mask" d="m22.31,7.98c12.15-1.94,30.66-4.39,53.76-5.43,7.1-.32,12.24-.39,16.02-.45C164.06.98,174.46-.46,202.81.74c29.86,1.27,57.05,4.51,56.9,5.49-.2,1.38-54.01-3.26-124.55-1.52C64.2,6.47,0,14.1.34,16.7c.43,3.34,107.7.82,135.69.27,18.76-.37,26.78-.7,43.69-1.15,9.45-.25,26.92-.65,45.96-1.01,18.2-.35,27.3-.51,37.99-.58,11.04-.08,13.01-.01,13.01-.13.01-.72-79.97-5.15-174.57-5.75-3.13-.02-5.73-.03-7.53-.04,0,0-6.85-.03-28.89,1.21-20.68,1.17-48.16,2.67-57.99,9.53-1.2.84-4,2.79-3.39,5.03.74,2.71,5.51,4,6.74,4.25"
                    mask="url(#path-mask)" stroke="black" stroke-width="2" fill="none"
                    stroke-dasharray="1060.218017578125" stroke-dashoffset="1060.218017578125">
              </path>
            </svg>
        