
            <svg xmlns="http://www.w3.org/2000/svg">
              <defs>
                <mask id="path-mask">
                  <g fill="white">
                    <path d="m186.5,8.88c-4.58-.02-1.67.1-2.58.15l-3.29-.08c-2.69-.09-5.83-.2-8.4-.28-5.26-.21-15.12-.25-19.34-.12-2.89-.04-4.72-.03-5.94.01-3.85-.08-9.57-.02-12.54-.15-.81-.08-4.2-.16-1.36-.23,2.04-.04,4.26-.06,7.55.01,2.71.06,5.17.07,6.71.01l2.55.02c3.16-.02,7.44.25,9.91.07.99.01,2.81.04,2.85.04,2.49-.15,8.33-.01,13.38.07l.08.05c-1.38,0-1.1.02.46.04.25,0,.52,0,.79,0l.16.07c-.43,0-.96,0-1.38-.01-.42,0-.73,0-.73.01,0,0,.62.03.94.03,1.46.02,1.05-.01,1.2-.03l5,.03c.41,0,.82,0,1.24.01-.62.03-4.72,0-1.1.1,3.83.1,5.12.05,5.9,0,.73-.06,2.35-.05,4.92.04.24.1,3.94.13,6.5.18l-.13.03c-2.41.02-.53.05,1.55.09,2.81.11,3.07.02,4.83.05l.36.02-.4-.02c.16-.06-.89-.15,4.22-.03,3.18.07,5.9.1,5.36,0l3.15.05,2.77.17c-1.72-.03-2.47-.02-2.62.01-2.06,0-2.23.03-.22.1,2.74.06,3.64.11,2.66.15-.46.02-1.1.04.71.08.53,0,1.37.02,2.07.03.7,0,1.24,0,1.26,0-.33-.16,6.92-.02,9.74-.04.57-.02.82-.02,1.21-.04l.5-.03c6.46.14,13.25.35,19.07.39,1.47,0,3.53.1,4.98.16,2.63.11,4.41.14,5.84.12l12.45.42.22.05c.34.08,2.34.16,4.87.23,1.96.05,1.31-.02,1.46-.05,6.92.21,13.84.41,21.09.63l-.29-.02c.09-.01-.46-.06.91-.01.39-.01.54-.04,2.32.03-.62.08,2.83.22,5.64.35,6.06.26,13.1.6,18.41.78,3.68.12,6.16.23,9.73.42,2.16.11.97-.02,1.15-.05l5.21.29,2.6.17,1.3.1c.46.05.81.05,1.38.19l.04.02s.17.11.19.22c.06.16-.07.35-.22.41-.1.03-.1.02-.15.03-.08.01-.12,0-.19.02h-.34s-.66.02-.66.02h-1.31s-2.61.02-2.61.02l-5.21.02.03-.07c1.37-.05,1.04-.09.37-.13-1.17-.08.6-.12,4.32-.13l3.29-.05c.49,0,1.01,0,1.52-.01.25,0,.51,0,.75-.03.08-.03.07.04,0,0l-.18-.03c-.12-.02-.24-.03-.36-.05-.94-.1-1.74-.14-2.18-.14l1.79.16c.3.03.6.06.88.12.02,0,.03,0,.04.01h.02s-.05-.03-.03-.06c-.03-.06.08-.1.03-.08h-.05s-.22.02-.22.02h-.45c-.46-.02-2.57-.04.17-.1.17,0,.37,0,.51-.01h.02s-.11.05-.11.12c-.02.03.02.19.09.2h-.01s-.07-.02-.1-.03l-.26-.04c-.35-.05-.72-.09-1.08-.12-.73-.06-1.47-.1-2.22-.13l-5.17-.3c-2.12-.24-6.31-.53-10.92-.81-3.26-.07-8.02-.21-8.71-.11-4.55-.2-9.09-.4-13.69-.53-.11-.05.4-.08-.48-.14-1.18-.08,3.6.03-.74-.13-3-.11-2.42-.03-2.09.03.15.03.16.11-1.79-.04-3.57-.26-2.83-.05-5.92-.18-.47-.04-.81-.08-1.43-.1-1.79-.07-1.77-.03-2.26-.02-5.82-.21-11.49-.32-17.67-.57-3.21-.13-4.94-.07-5.9-.02l-28.57-.76s.32-.04.02-.07c-.88-.08,3.7-.08-1.24-.21-4.37-.11-.6.09-1.23.13-.18.01-1.63-.01-2.5-.02-8.06-.15-16.75-.31-25.11-.47-2.44-.05-6.39-.03-8.32-.18-2.21-.15-16.63-.52-21.27-.54Zm27.66.61l.91-.02c-.41-.01-.9-.02-1.22-.03-.31,0-.46,0-.69.01.34.01.67.03,1,.04Zm47.47.96c.18,0,.43.01.65.02-.03-.02-.28-.02-.65-.02Z"/><path d="m144.87,2.07c-10.67.23-21.2.22-31.8.45-1.42-.18-8.28.09-12.7.16-.89-.02-.79-.16-5.52.09-2.87.14-7.01.33-10.69.51-2.95.13,6.11-.59-4.68.11-1.58.08-3.8.24-4.03.19-.11-.03-1.65.03-3.06.13-1.44.1-2.76.25-3.26.32-.84.12,1.93-.11,2.79-.14,1.7-.06,2.92-.1,4.34-.16-.86.11-4.75.33-4.53.39-1.19.03-3.88.22-6.26.41-1.19.09-2.31.17-3.13.23-.82.06-1.34.08-1.34.04,0-.02.21-.06.55-.11.34-.04.8-.1,1.31-.17,1.02-.13,2.21-.27,2.93-.36,1.48-.21,7.92-.7,13.03-.97,2.31-.11,4.5-.21,6.79-.32,2.22-.11,4.94-.16,6.55-.29,1.73-.14-4.38.16-3.26.04,3.52-.21,7.21-.41,11.3-.44.32.11,1.39.18,7.5-.06,4.55-.17,10.29-.16,14.68-.32l1.69-.03h3.21c5.39.06,11.18,0,17.47-.21,3.73.04,7.95.02,13.38-.14l2.31-.04c-.28.01-.45.02-.84.04-3.06.1-5.1.18-1.94.21.83,0,3.1,0,2.71-.04-.92-.07,9.16-.28,1.77-.27.99-.02,2.22-.05,3.2-.07.97-.03,1.69-.05,1.67-.09l3.46-.06c.12.04-2.64.14-.29.13,1.87,0,3.88-.06,5.41-.13l2.18-.04c4.48-.07,4.76,0,5.39.07.37.04,1.43.05,3.56.01.79-.02,2.04-.06,2.29-.08.7-.06-1.03-.04-2.4-.03-4.93.03,3.95-.22-.33-.21,1.07-.1,3.82-.14,6.41-.2l.04.05c-.05.05-3.89.2.2.14,3.02-.04,5.13-.15,4.52-.22l3.96-.08,5.48-.03c1.54.03,2.3.08.99.17-.6.04-.45.07,1.29.04,2.1-.03,2.42-.07,2.74-.12h2.95s.07.1.07.1c-4.98.07-10.6.23-13.95.15-1.27-.03-3.11.04-3.41.1-.22.05.18.08-1.93.15-8.64.27-17.54.46-26.68.55-5.56-.04-17.15.16-24.09.42Zm-56.78.87c.59-.03,1.16-.07,1.74-.1-.49.01-.94.02-1.49.04-.56.03-1.22.07-2.29.13.93-.03,1.49-.05,2.04-.06Z"/><path d="m1.12,16.33c-.23.09-.48.18-.61.31-.12.03.09.14.3.21.41.13.83.2,1.22.27.78.12,1.47.2,2.1.27,1.26.12,2.27.22,3.33.33,1.06.09.36.15,3.68.26,2.68.08,2.06-.02,1.56-.09-.48-.07-.73-.13-1.09-.2,3.26.12,6.53.19,9.8.24.02.03-.26.06.01.09.27.03,1.1.06,3.32.09,3.36.04,4.89.09,4.77.16-.37.04-4.29,0-2.36.09.68.03,2.23.07,3.25.08,3.42.02,1.15-.07,1.9-.1.42-.02.74-.03,1.36-.05,1.23-.02,4.82-.03,3.47-.08-1.55-.06-4.13,0-6.49-.03v-.11c9.29.04,18.31.08,27.21.12-1.46.12-2.4.26-10.05.17-1.26-.02-3.31-.01-3.82.03-.55.05,1.03.06,2.77.07.56.06,1.13.12,1.48.19l-2.53.03,2.04.05c-6.05.07-11.71.03-17.03-.11-1.39-.08-4.1-.19-6.88-.17-5.33.07-14.94-.4-18.5-.49-1.3-.12-2.6-.22-3.94-.48-.34-.08-.66-.13-1.05-.33-.09-.06-.25-.13-.33-.42-.01-.36.17-.43.25-.52.19-.14.36-.21.53-.27.67-.25,1.32-.4,1.98-.55,2.64-.56,5.31-.94,7.95-1.3-.2.15,3.85-.36,7.23-.78,3.02-.37,4.81-.55,7.08-.74-.78.19-6.14.67-8.26,1-.8.12-3.52.33-4.7.57-.72.14,1.93-.16,3.57-.31,1.67-.16,2.98-.3,5.28-.59,2.9-.37,6.27-.74,8.88-.87,1.57-.08,4.38-.39,6.03-.57,2.88-.3.54-.13-1.14,0-2.67.19-5.3.39-4.81.25l1.69-.19c2.99-.14,8.75-.7,13.64-1.09,1.9-.15,6.27-.55,4.99-.31-.31.05,5.61-.45,5.78-.5.35-.1,1.94-.22,4.09-.37l1.58-.11c2.96-.24,6.47-.53,5.26-.3-1.48.18-1.43.18,1.08.03,1.11-.06,2.58-.14,2.82-.13.85.02-3.62.3-4.33.4-4.51.32-9.27.75-13.1.91-.98.04-3.85.31-3.67.31.79-.01-5.43.51-1.04.22-.18.05-.67.09-2.47.23-5.89.46-11.79.91-17.77,1.56-.87-.2-7.56.69-11.44,1.13-4.49.54-7.81,1.02-12.53,1.82.27-.06.68-.16,1.03-.24.35-.08.62-.14.62-.16,0,0-.07,0-.24.02-.17.03-.43.07-.82.13-.76.15-2.06.31-3.94.91Zm16.92,1.79h-.93c.41.02.88.04,1.22.05.3,0,.46,0,.69,0-.34-.01-.66-.03-.98-.04Z"/><path d="m33.21,12.91c-5.64.79-12.53,1.92-17.55,3.57-1.11.35-2.37.75-3.68,1.28-1.29.6-2.68,1.18-3.96,2.04-.65.42-1.29.88-1.84,1.45-.53.57-1.05,1.29-1.05,2.15,0,.87.52,1.57,1.07,2.08.57.51,1.2.89,1.82,1.2,1.44.68,2.03.83,3.11,1.15,1.67.45,2.75.56,2.93.55.18-.03-.56-.13-2.39-.62-3.84-1.11-4.82-2.08-5.47-2.78-.15-.2-.36-.44-.48-.78-.16-.32-.23-.75-.1-1.22.26-.97,1.35-1.98,2.92-3,.34-.24,1.71-1,2.33-1.24,1.45-.74,2.99-1.22,4.5-1.76.76-.25,1.54-.44,2.31-.66.77-.22,1.54-.44,2.32-.61,1.56-.35,3.11-.74,4.69-1,1.57-.3,3.15-.59,4.75-.82,7.34-1.13,14.74-1.84,22.14-2.41,7.41-.56,14.83-.97,22.25-1.32l-.04-.06c-1.25.06-2.27.11-2.55.1-2.21.12-4.84.27-6.67.37-4.39.27-9.77.61-13.25.83-1.04.05-5.33.35-9.74.76-4.41.43-8.93,1-10.45,1.25-.5.08-1.03.18-.95.18.74-.03-2.09.35-3.37.56-1.54.25-2.49.41-3.82.63-.75.16-3.1.71-2.88.63.14-.04,1.48-.39,3.31-.78,3.83-.78,9.3-1.55,9.79-1.7Z"/><path d="m165.38,4.53c-3.88.11-8.49.22-11.04.39,1.12-.02,2.55-.04,3.32-.06,3-.11,5.82-.22,8.01-.18,1.81.04-.73.13-2.55.23-3.23.17-5.72.19-8.35.2-1.64,0-4.38.07-5.72.14-4.57.25-6.61.22-9.33.26-1.74.06-3.94.15-4.4.11-.09,0,.71-.07,1.03-.08,2.29-.08,2.36-.03,3.36-.03l4.89-.36c-3.22-.05-7.41.2-11.35.38.1.05-.15.1-3,.22.05.03-.21.08.21.1,1.26.05-3.46.22-4.86.33-.39.03-1.36.08-1.65.07-.59-.03.99-.12,2.75-.22,1-.06.25-.1.29-.14-1.56.11-6.01.22-6.46.34.57-.01,2.15-.07.61.02l-.57-.02c-2.27.07-.89-.08-3.7.05-.99.05-1.8.16-2.68.24.04.03-.3.07-1.65.15.07,0,.15.01.25.02l1.49-.07c2.47-.05,10.24-.34-.3.19-.69.04-1.01.1-1.5.14,4.55-.22,9.3-.48,13.42-.53.5-.02,6.61-.31,10.68-.49,1.12-.08,2.51-.14,4.95-.23,7.17-.26,14.66-.38,21.51-.66,2.76.05,7.69-.19,10.6-.18,2.85,0,5.14-.01,8.67-.12,4.8-.15,6.89-.11,7,0l7.91-.09c-.36-.07,1.81-.13,3.4-.2-3.62-.07-7.39-.13.28-.28.98-.02.34-.04-.64-.05-3.09.09-7.63.03-10.24.13-6.02.22-4.82.06-5.63,0l-1.68.03c-.16.04-1.07.08-2.98.11-.22.06-1.5.1-3.36.13l.14.06c-.92.01-1.31.01-1.46,0s-.08-.03-.08-.04c-3.6,0-9.02.11-9.59,0Z"/><path d="m123.03,8.15c-2.05-.02-3.51.03-4.59.07-2.28.1-5.07.22-.83.21,3.34-.01,5.08,0,6.42-.02,1.34-.03,2.28-.07,4.01-.08l6.37.09c2.97.13,8.69.07,12.54.15l.07.08c-3.69-.04-7.96.02-10.72-.07-3.48-.11-7.09-.1-11.16-.1-8-.05-16.01.29-24.04.55-8.03.32-16.07.65-24.12.97-.28-.02-.26-.06,1.74-.17l3.09-.14,1.6-.04c.49,0,.97-.03,1.45-.06,10.17-.45,11.58-.53,7.71-.5-.12,0-.15,0-.22,0-8.98.46-11.38.31-20.16.77-3.65.19-8.5.47-9.49.42,2.4-.14,5.09-.36,5.88-.36,1.52.01,4.03-.16,6.47-.27,8.73-.37,17.25-.73,26.22-1.11,6.39-.24,12.88-.46,19.42-.53,6.53.03,13.11.06,19.65.09,2.6.01,6.75.01,6.95.12-1.53.06-4,.04-6.71-.01-3.28-.07-5.5-.06-7.55-.01-3.37-.05-6.74-.09-10.02-.04Zm-16.02.53c-.07-.03-.99-.06-3.6.05-2.52.1-6.22.29-6.36.33-.28.08,3.01-.11,4.19-.14,2.3-.09,5.97-.15,5.77-.24Zm-7.49,0c-1.65.06-4.59.18-4.7.24-.06.03,1.02.02,2.77-.05,1.89-.08,3.72-.16,6.16-.26-1.8.03-2.92.03-4.22.07Zm9.72-.12l.96-.03h-.12c-.72.01-.75.02-.84.03Z"/><path d="m231,.64c3.97-.04,7.07-.03,11.54.05,6.49.11,14.59.3,21.97.55,3.69.15,7.63.3,11.1.44l.04-.1c-.81-.09-2.91-.26-.41-.16,7.38.3,6.4.07,11.51.26-2.72-.15-5.13-.25-7.26-.32-.27,0-.51-.02-.7-.03-.29.04.87.15-2.08.04-2.32-.09-3.97-.19-4.3-.26l-.38-.03.35.03c3.42.19,3.54.08,6.37.22.18,0,.25,0,.21,0-3.24-.27-7.21-.34-10.76-.5-4.53-.08-9.32-.23-14.16-.46-1.44-.06-2.39-.12-4.01-.09-2.49.04-6.11-.05-9.59-.11-4.98.05-2.68.16-1.48.27.32.03,1.36.07-.39.07-1.49,0-2.37-.03-2.98-.06h-1.77c.93.08-3.79.13-2.81.21Z"/><path d="m118.75,18.1c3.15.02,6.42.02,10.76-.09,5.41-.18,11.15-.29,17.28-.29,1.16-.07,3.34-.11,5.29-.16l3.25-.02c-.39-.03-.99-.08-1.13-.08-5.94.12-9.92.04-15.65.14-4.16.07-7.97.12-9.1.02-.04,0-.45,0-.69,0-.78.02-1.57.05-2.36.07.7.12-3.51.17-6.71.2-10.53.11-21.11.3-31.79.34-6.44.02-6.79.05-3.72-.11.92-.06,1.55-.1,2.31-.15-6.12.08-13.23.07-18.17.24,1.15,0,2.27,0,3.47.01,1.96,0,4.79-.11,5.65-.03.35.03-2.74.12-4.69.16-1.04,0-3.01.03-4.56.04-1.3.01-2.72.01-3.34.05-.81.05.54.06,1.88.08,2.11.02,2.67.09,5.95.07,4.14.05,8.69.06,14.13-.03,6.22-.17,13.48-.25,20.79-.33-.1-.03.23-.07,1.55-.09,2.33-.03.84.04,1.35.06,3.08-.14,6.28-.32,8.25-.09Z"/><path d="m81.82,9.7l1.6-.04.73-.03.73-.03c10.17-.45,11.58-.53,7.71-.5-.12,0-.15,0-.22,0-8.98.46-11.38.31-20.16.77-3.65.19-8.5.47-9.49.42-2.65.19-7.37.48-9.36.69,2.53-.12.05.13-1.27.23-3.89.31-1.52.05-2.08.05-.11,0,0-.02,0-.03-2.98.15-8.04.69-11.36,1.03-2.04.25-3.85.46-5.41.65-.51.15-5.98.92-9.81,1.7-1.83.39-3.18.73-3.31.78-.22.08,2.13-.47,2.88-.63,1.34-.22,2.28-.38,3.82-.63,1.29-.21,4.12-.59,3.37-.56-.08,0,.45-.09.95-.18,1.52-.25,6.04-.82,10.45-1.25,4.41-.41,8.7-.71,9.74-.76,3.48-.22,8.87-.55,13.25-.83,1.83-.1,4.46-.25,6.66-.37,2.14-.13,2.24-.1,2.56-.1l.04.06,3.15-.14c-.28-.02-.26-.06,1.74-.17.39-.03.68-.07,1.2-.09,1.67-.08,1.68-.05,1.89-.04Z"/><path d="m300.99,2.59l.1.05c1.28.17,2.31.31,3.9.53,3.43.42,9.73.93,14.89,1.28.64.04.97.05,1.76.11,2.93.26,3.14.16.23-.19q-1.21-.14-1.92-.12c-.33,0-.24.06-2.46-.14-.68-.06-1.43-.17-2.14-.26-4.17-.38-3.89-.44-4.83-.59,4.77.34,9.65.76,14.56,1.32-2.04-.1,2.77.43,5.04.82.83.1,1.65.19,2.48.34.21.04.41.09.62.16.11.04.2.05.34.17.03.02.1.17.05.23-.06.1-.09.09-.13.12-.07.03-.12.05-.18.06-.44.09-.86.1-1.28.13-.84.04-1.68.05-2.52.05-.08-.01-.09-.02-.06-.03,3.07-.13-1.7-.25-1.54-.39,1.01.01,2.02.02,3.03,0,.05,0,.01.01.16.01,1.07,0,1.51.02,1.99-.02.11,0,.26-.06.32-.04-.04.06-.03-.01-.12-.03-.06-.03-.15-.06-.23-.09-.34-.11-.8-.21-1.45-.32-3.84-.56.43.18-.31.14l-1.8-.18c-7.28-.95-14.79-1.51-21.95-2.14l-3.12-.23-.12-.08.66.03-.86-.05-1.96-.14c-1-.08-2.4-.21-2.37-.14l-3.17-.17.44.02.48.04c-2.17-.23-7.57-.55-9.1-.77-.72-.11-7.55-.37-11.26-.48-.62-.01-1.01-.02-1.51-.03-.81-.09-2.91-.26-.41-.16,7.38.3,6.4.07,11.51.26,4.92.23,9.68.53,14.23.92Zm20.92,2.11c.14.03.48.09.75.14.21.01.58.04.59.03.01-.02-.22-.06-.39-.09-.46-.04-1-.08-.96-.07Z"/><path d="m130.25,5.76c2.85-.12,3.11-.17,3-.22l-2.67.09-2.06.09c-5.13.18-10.08.36-15.52.66-2.22.12-5.43.28-8.08.38-2.91.1-8.4.39-9.33.45-9.85.66-19.38,1.18-28.84,1.76-3.47.22-5.65.43-8.5.64-14.52,1.08-29.04,2.26-43.52,3.97-1.55.19-3.15.38-4.04.54-.2.15,3.85-.36,7.23-.78,3.02-.37,4.81-.55,7.08-.74,1.05-.15,3.09-.35,4.86-.52l1.69-.19c2.99-.14,8.75-.7,13.64-1.09,1.9-.15,6.27-.55,4.99-.31-.31.05,5.61-.45,5.78-.5.35-.1,1.94-.22,4.09-.37.52-.07,1.07-.11,1.62-.12,2.92-.24,6.43-.53,5.22-.3.79-.05,1.6-.11,2.4-.16,2.5-.22,5.08-.44,8.56-.59,2.87-.27,5.66-.55,9.36-.58l4.59-.25c.99-.14,4.06-.28,6.54-.42,3.63-.2,3-.1,3.25-.06,4.19-.34,8.39-.51,12.59-.61.89-.08,1.69-.19,2.68-.24,2.82-.13,1.44.03,3.7-.05.4-.12,4.85-.23,6.41-.34l3.26-.13Z"/><path d="m300.83,5.43c-2.25-.13-4.73-.24-8.07-.27,1.9.11,3.77.23,1.51.24-1.78,0-3.13-.13-5.04-.16-2.5-.19-3.94-.15-5.61-.13-1.9.02-3.76,0-5.05-.14-4.53-.09-3.83.02-4.64.08.67.1,4.32.21,6.1.32,3.01.15,7.01.27,10.82.34,2.86.05,5.33.12,8.08.22,2.8.04-.1-.18,4.75-.04,3.59.11,3,.18,3.56.25l3.19.09c-.23-.06-.66-.13-.61-.18.02-.02.39-.02.94,0,.54.01,1.26.03,1.94.05,1.2.04,2.1.08,1.41.09-1.02,0-3.82-.04-.86.08.74.03,3.34.04,5.09.06.55,0,.84-.02,1.97.04l-2.01-.04c1.21.18,5.2.28,9.39.3,1.28-.09-5.08-.28-4.62-.39-6.88-.11-6.8-.22-6.27-.31-2.76-.06-5.03-.21-7.87-.26.41.14-2.65.16-7.41,0-6.6-.22,2.13-.05-.14-.18-.31-.02-.37-.03-.54-.05Z"/><path d="m292.59,14.99l2.6-.03,5.02-.1,1.85-.03s-.1-.02-.16-.03c-1.09,0-1.63-.01-.7-.05.13,0,.58-.01.74-.01,1.42,0-.08.04-.09.06,2.62-.03,4.55-.07,5.78-.14,1.94-.11,4.45-.15,6.45-.16,1,0,1.88.01,2.5.01.62,0,.98.02.95.03-.39.14,3.76.08,6.77.08,3.79-.09,7.55-.18,11.39-.27,1.68-.05,4.92-.05,4-.12-.76-.06-4.28.03-5.17.02-2.76-.03-7.02.2-8.57.07-2.1.01-4.58.05-4.9-.02-1.77.02-3.65.05-4.79.02-3.88.03-7.8.07-11.64.1-7.62.07-14.22.27-21.92.36v.08c1.89-.04,3.86-.08,4.85-.04-.12.05-.19.1-3.08.15l1.37.08,6.77-.1Z"/><path d="m200.26,4.11c.98,0,1.63.04.64.05-7.67.15-3.9.21-.28.28.98,0,1.97-.02,2.96-.03l-.06-.11h-.37s.35,0,.35,0c2.68.02,8.52-.08,8.07.08,4.45-.02,8.49.12,13.45.03.71-.01,3.82.05,3.97.11l4.7.05c2.04-.08,7.97-.05,6.83-.2.06,0,1.02,0,1.57,0,3.48.25,4.95,0,7.69.08-.02-.01-.01-.02,0-.04-8.03-.3-9.95-.13-12.78-.04h-.61s.65,0,.65,0c-.81-.01-1.95-.03-2.9-.05-.47,0-.9-.02-1.21-.02-.31,0-.51-.01-.52-.02-.8-.28-6.67-.14-11.42-.14-4.95,0-10.67.06-15.04-.03-2.15-.02-1.83-.12-5.58-.08l-.09.08Z"/><path d="m211.91.6h2.95c7.2-.1,7.1.03,6.35.16,2.37.01,2.25-.06,3.41-.08-2.13-.14,1.4-.34,7.93-.38-1.5-.08-1.62-.17,0-.26-1.65-.09-3.04-.02-4.48.02.95.01,1.2.04-.1.05-1.77.02-1.48-.02-1.65-.05-3.81-.1-9.42.07-13.47.14-6.64.12-13.87.21-20.16.43l.04.05,4.61-.07c1.45-.09,2.76-.09,4.07-.08l5.48-.03c.4-.06.73-.12,3.68-.16,1.99-.03,3.13-.01,4.08.01,2.21.05-.8.15-2.74.25Z"/><path d="m325.95,14.34c1.55.13,5.81-.09,8.57-.07.89.01,4.41-.08,5.17-.02.92.06-2.32.07-4,.12-3.85.09-7.6.18-11.39.27l1.38.05,1.85-.02c5.12-.17,11.64-.2,17.41-.24,1.37-.05,1.04-.09.37-.13-1.17-.08.6-.12,4.32-.13l.07-.04c.06-.05,1.16-.08,3.43-.08.47,0,.92-.01,1.36-.02-.46-.03-2.57-.05.17-.11l-.13-.04c-4.55,0-9.1.01-13.65.02-4.56.02-9.12.1-13.69.17,1.47.06,4.17.12-1.22.25Z"/><path d="m195.23,16.85c1.89-.04,1.71.11,5.07-.07,2.51-.14,4.9-.07,7.4-.15.7-.16,4.1-.2,7.67-.22,3.03-.02,5.52-.09,7.8-.19,2.36-.1,3.41-.18.9-.19-3.36.06-6.45.07-10.06.18-11.23.32-12.47.35-21.47.42-.22,0-.64,0-.7,0-4.58.23-11.56.18-16.23.4.45.06.5.12,3.67.09.11-.05.86-.07,3.02-.11,4.57-.06,8.85-.12,12.93-.17Z"/><path d="m325.95,14.34c5.39-.13,2.68-.18,1.22-.25-3.55,0-5.93-.04-11.01.12-3.66.12-10.98.13-16.85.2-7.89.12-16.16.24-24.13.36-3.49.04-5.81.08-5.42.18.38.09,3.2.04,6.36-.03,2.19-.04,4.38-.08,6.57-.12,7.7-.1,14.3-.3,21.92-.36,3.85-.03,7.76-.07,11.64-.1.94-.03,1.99-.07,2.8-.08,1.77-.01,1.94.03,2,.06.32.06,2.8.03,4.9.02Z"/><path d="m236.99,4.37c2.83-.1,4.75-.27,12.78.04,2.15.02,4.29.03,6.44.05,1.71,0,3.49,0,3.05-.06-3.01-.15-6.95-.14-10.26-.18-12.6-.16-25.21-.29-37.9-.21-3.39.02-3.87.06-5.16.11,4.37.1,10.08.04,15.04.03,4.75,0,10.62-.14,11.42.14.01,0,.21.01.52.02.31,0,.74.01,1.21.02.94.02,2.08.03,2.86.05Z"/><path d="m86.49,17.95c-.76.05-1.38.09-2.31.15-3.08.17-2.72.13,3.72.11,10.68-.03,21.26-.23,31.79-.34,3.2-.03,7.4-.08,6.71-.2-5.97-.05-12.5.05-19.68.21-4.63.1-8.17.11-7.28-.04-4.66.11-8.53.05-12.95.1Z"/><path d="m175.61,17.04c4.67-.22,11.65-.17,16.24-.4.06,0,.48,0,.7,0,9.01-.07,10.24-.09,21.47-.42,3.61-.1,6.7-.12,10.05-.18-1.43-.09-2.99-.18-8.52-.12l-4.05.16c-1.49.11-3.79.15-7.05.2-3.97.08-8.77.17-12.2.24-6.93.12-13.09.39-19.69.42l1.75.13c.44,0,.88-.01,1.3-.02Z"/><path d="m256.67,15.25c-2.08.15-3.76.29,4.56.16,2.68-.04.99.04.79.07-4.09.14-8.61.18-11.54.18-7.42,0-9.1.14-10.7.3l-1.52.03c-4.88.01-12.89.13-5.29-.2,1.37-.06,1.34-.12,1.95-.18,4.2-.07,8.41-.15,12.6-.22,2.72-.04,4.76-.08,5.04-.16l4.68-.07c-.18.03-.11.06-.58.1Zm-13.4.33c-.16,0-.44,0-.84.02.23,0,.46-.01.84-.02Z"/><path d="m71.74,4.13c-1.19.03-3.88.22-6.26.41-1.19.09-2.31.17-3.13.23-.82.06-1.34.08-1.34.04,0-.02.21-.06.55-.11.34-.04.8-.1,1.31-.17,1.02-.13,2.21-.27,2.93-.36,1.48-.21,7.92-.7,13.03-.97,2.31-.11,4.5-.21,6.79-.32,2.22-.11,4.94-.16,6.55-.29,1.73-.14-4.38.16-3.26.04-7.54.21-16.89.92-24.69,1.41-2.46.15-1.91.22-3.88.39-1.9.2,6.67-.44-.36.17-2.35.3-8.53.93-7.58,1,1.46-.12,3.35-.27,4.29-.35,2.36-.14,2.32.04,8.3-.6.06,0,2.17-.12,3.51-.2,3.92-.25,7.63-.5,10.92-.75-1.13-.09-5.48.33-7.7.43Z"/><path d="m50.76,5.3c-1.95.17-3.35.3-4.37.35-2.54.14-7.34.59-11.07,1.11-3.34.45-6.35.93-6.71,1.09-.66.3,3.53-.2,12.9-1.24,2.29-.25,5.14-.49,7.74-.71,2.83-.36,1.73-.36-1.35-.12-3.12.24-5.97.59-8.18.91-.81.11-4.54.58-4.23.46.27-.11-1.89.08-.53-.15.84-.14,1.24-.24,3.78-.54,2.63-.3,3.79-.38,4.1-.35.33.02.72.02,3.65-.28,1.42-.15,2.49-.27,3.21-.35.72-.08,1.07-.14,1.06-.18Z"/><path d="m172.56,16.93c6.61-.04,12.77-.3,19.7-.42,3.43-.07,8.23-.16,12.2-.24,3.26-.05,5.56-.09,7.05-.2-5.57-.07-13.89.2-20.77.34-5.13.11-10.32.22-15.47.33-5.15.09-10.27.16-15.27.18l-.82.06c1.48.03,6.7.01-1.25.17-2.6.05-4.07.13.41.09,4.72-.1,8.17-.31,14.23-.3Z"/><path d="m189.32,4.73c-.11-.12-2.2-.15-7,0-3.53.11-5.82.13-8.67.12-2.91,0-7.85.23-10.6.18-6.85.28-14.35.4-21.51.66-2.45.09-3.83.15-4.95.23,6.6-.18,13.73-.37,21.41-.58,4.9-.14,9.88-.27,15.22-.33,4.66-.08,10.68-.19,16.1-.28Z"/><path d="m167.02,1.16l3.45-.06h5.12c.73,0,1.45-.02,2.19-.03,2.37-.07,4.73-.14,7.1-.21-4.18-.11-12.52.11-18.5.21-11.9.2-23.91.41-35.88.61l-3.19.08c5.39.06,11.18,0,17.47-.21,5.09-.11,10.47-.27,13.38-.14.77-.01,1.54-.03,2.31-.04.55-.01,1.1-.02,1.64-.04-.02-.03-.09-.04-.16-.05-.16,0-.33-.01-.5-.02h1.14s4.43-.11,4.43-.11Z"/><path d="m326.69,12.7c-4.55-.2-9.09-.4-13.69-.53-3.64-.13-7.12-.26-9.81-.42-2.45-.08-3.68-.12-4.91-.16-5.82-.21-11.49-.32-17.67-.57-3.21-.13-4.94-.07-5.9-.02,17.54.54,35.07,1.13,52.61,1.79l-.64-.09Z"/><path d="m262.02,15.48c-4.09.14-8.61.18-11.54.18-7.42,0-9.1.14-10.7.3,12.21-.17,24.42-.31,36.61-.63,2.95-.08,4.79-.03,7.19-.08,3.3-.08,8.39-.11,9-.25l-6.76.1-11.11.16-12.7.23Z"/><path d="m206.17,9.11c.16-.06-.89-.15,4.22-.03,3.18.07,5.9.1,5.36,0-13.08-.32-26.17-.58-39.76-.67l.08.05.46.04c.25,0,.52,0,.8,0,2.27,0,4.53.01,5.19.1.41,0,.82,0,1.24.01l4.79.1c.73-.06,2.35-.05,4.92.04,2.83.05,5.76.02,8.32.13.85.04-.43.05-1.83.05l-.13.03,1.55.09c2.81.11,3.07.02,4.79.05Z"/><path d="m238.27,15.98c-4.88.01-12.89.13-5.29-.2,1.37-.06,1.34-.12,1.95-.18-2.33.03-1.55-.03-1.7-.05l-3.12.07c.97.06-3.06.18-3.17.25l2.09-.03c-.16,0-.44.02-.45.02-.58,0-1.13,0-1.69,0-2.77,0-1.07-.1-1.65-.15-3.15-.03-6.36.03-9.69.19,5.53-.06,7.09.03,8.52.12,2.51.01,1.46.09-.9.19-2.28.1-4.77.17-7.8.19-3.57.02-6.97.06-7.67.22,8.04-.14,16.24-.38,24.18-.47,3.13-.03,4.78-.1,6.39-.17Z"/><path d="m158.33,17.24c-4.47.05-3.01-.04-.41-.09,7.94-.15,2.73-.13,1.25-.17-1.36.09-3.85.08-5.76.12.21.04-1.25.13-2.42.13-5.8,0-9.91.21-14.97.27-2.7.1-2.84.05-3.06,0-2.74-.02-3.42.04-4.21.1.24,0,.66,0,.69,0,1.13.1,4.94.05,9.1-.02,5.72-.1,9.71-.03,15.65-.14.15,0,.75.05,1.13.08l6.2-.03h3.29s.38-.12.38-.12c-7.04.09-7.45-.01-6.87-.15Z"/><path d="m72.67,18.57c-3.27.03-3.84-.05-5.95-.07-1.34-.01-2.7-.03-1.88-.08.62-.04,2.04-.04,3.34-.05,1.56-.01,3.52-.03,4.56-.04,1.96-.05,5.05-.13,4.69-.16-.86-.07-3.69.03-5.65.03-1.2,0-2.32,0-3.47-.01-1.51-.05-2.88.02-4.31.03-2.39.04-4.95.09-4.24.15,2.75.23-4.68.27-11.33.29.81.05,4.28.03,4.54.09,5.46-.02,10.63-.03,16.14-.05,3.95-.03,3.09-.08,3.55-.13Z"/><path d="m136.02,17.51c5.06-.06,9.17-.27,14.97-.27,1.17,0,2.63-.09,2.42-.13-10.13.16-20.22.31-30.35.47-5.08.05-10.41.11-15.45.16-3.04.04-5.51.08-8.18.11-.89.15,2.65.14,7.28.04,7.18-.16,13.7-.26,19.68-.21.79-.02,1.58-.05,2.36-.07.79-.06,1.47-.12,4.2-.1h3.06Z"/><path d="m262.02,15.48l12.7-.23.12-.08c-1.73.03-3.26.04-2.99,0,.27-.05,2.02-.08,3.6-.11.59-.05.63-.09.67-.13-3.16.07-5.98.12-6.35.03-4.05.03-8.25.1-12.51.19-.18.03-.11.06-.58.1-2.08.15-3.76.29,4.56.16,2.68-.04.99.04.79.07Z"/><path d="m256.2,4.46l-6.44-.05v.04s.34.02.34.02l-.33-.02c-2.74-.07-4.21.18-7.69-.08-.55,0-1.51,0-1.57,0,1.14.15-4.79.12-6.83.2.34.04,1.77.05,3.05.06,1.68-.04,4.36,0,6.74.02,1.75.04,2.85-.09,3.79.02.99.12,3.9.09,5.53.14,2.79-.03,4.06.03,5.01.12,1.66.04,3.64.15,4.67.07l.71-.04c-1.95-.06-2.92-.14-5.66-.18-1.87-.06-1.15-.09-1.32-.13-8.52-.2,1.13-.11-.01-.2Z"/><path d="m180.63,8.95c-2.69-.09-5.83-.2-8.4-.28-5.26-.21-15.12-.25-19.33-.12,3.93.03,8.29.07,5.53.17,7.53.1,15.06.22,22.2.23Z"/><path d="m256.22,4.65c-8.52-.2,1.13-.11-.01-.2,1.71,0,3.49,0,3.05-.06,4.86.07,9.99.07,14.39.31.22.01.28.02.2.03-6.38-.03-6.91.13-6.56.3l-4.09-.08c-1.95-.06-2.92-.14-5.66-.18.18-.04.24-.07-1.32-.13Zm5.09-.03c-1.02-.04-2-.02-1.67,0,.65.05-2.61.08,2.29.16,2.44.03,2.24,0,.47-.07-.33-.03-.31-.07-1.09-.1Z"/><path d="m144.6,5.16c1.49-.05,2.72-.01,4.41-.13,3.75-.25,4.1-.14,5.33-.12,1.12-.02,2.55-.04,3.32-.06,3-.11,5.82-.22,8.01-.18,1.81.04-.73.13-2.55.23-3.23.17-5.72.19-8.35.2-1.64,0-4.38.07-5.72.14-4.57.25-6.61.22-9.33.26,1.62-.12,3.25-.24,4.88-.36Zm17.81-.37s-.56.02-.6.02c-.07.01.02.02.05.03l1.24-.05c-.22,0-.42,0-.69,0Z"/><path d="m236.99,9.57c6.46.14,13.25.35,19.07.39,1.47,0,3.53.1,4.98.16,2.63.11,4.41.14,5.84.12-5.45-.27-12.06-.39-18.25-.52-8.02-.17-15.52-.47-23.61-.55-1.17-.01-2.62-.04-3.15-.02,1.64.11,4.42.19,7.63.21,3.87.02,5.7.11,7.48.22Z"/><path d="m50.76,5.3s-.34.09-1.06.18c-.72.08-1.79.19-3.21.35-2.93.3-3.33.3-3.65.28-.31-.02-1.47.05-4.1.35-2.54.29-2.94.4-3.78.54-1.36.23.81.04.53.15-.31.12,3.42-.35,4.23-.46,2.21-.32,5.06-.67,8.18-.91,3.08-.24,4.18-.24,1.35.12,1.06-.07,2.11-.16,3.17-.3-.95-.07,5.23-.71,7.58-1-1.68.1-3.22.2-3.33.15l-5.91.55Z"/><path d="m114.19,6.51c-4.2.1-8.4.27-12.59.61-2.46.23-10.02.62-11.37.84l.57.09c2.76-.12,5.27-.26,7.54-.43.36-.04-.67-.02,1-.12l.51.04c.46-.02.97-.05,1.51-.07,6.52-.35,5.19-.49,11.18-.81,1.35-.08,1.69-.12,1.65-.15Z"/><path d="m325.67,14.69l-1.38-.05c-3,0-7.16.06-6.77-.08.03-.01-.33-.02-.95-.03-.62,0-1.5,0-2.5-.01-2.01,0-4.52.04-6.45.16-1.22.07-3.15.11-5.78.14.12,0,.17.02.21.03l-.12.11c7.83-.05,15.56-.06,23.74-.25Z"/><path d="m309.91,11.52c-.62.08,2.83.22,5.64.35,6.06.26,13.1.6,18.41.78,3.68.12,6.16.23,9.73.42,2.16.11.97-.02,1.15-.05-7.64-.42-15.05-.78-23.09-1.04-3.47-.14-7.87-.31-11.85-.46Z"/><path d="m203.58,4.42c-.99,0-1.97.02-2.96.03-1.58.06-3.76.13-3.39.2,7.97-.01,16.5-.13,24.57,0,3.25.05,4.26-.09,7.19-.11-.16-.06-3.26-.12-3.97-.11-4.96.09-9-.05-13.45-.03-2.88.22-5.29-.02-7.98.02Z"/><path d="m69.3,9.03c-.8.05-1.6.11-2.4.16-1.47.18-1.42.18,1.09.03,1.11-.06,2.58-.14,2.82-.13.85.02-3.62.3-4.33.4l3.36-.15,5.25-.32,10.62-.79c-7.26.32-7.1.28,1.51-.37-3.7.03-6.49.31-9.37.58-2.83.19-4.2.48-8.55.59Z"/><path d="m48.43,18.66c6.65-.02,14.08-.06,11.33-.29-.71-.06,1.85-.11,4.24-.15-.75-.12-4.13,0-6.15-.01-1.46.12-2.4.26-10.05.17-1.26-.02-3.31-.01-3.82.03-.55.05,1.03.06,2.69.07h.72s-.64,0-.64,0l1.69.18Z"/><path d="m273.64,4.71c.22.01.28.02.2.03.7.07,5.66.16,4.73.23,1.28.13,3.14.16,5.04.14,1.67-.02,3.11-.05,5.61.13,1.92.03,3.26.17,5.04.16,2.26,0,.39-.12-1.51-.24-6.47-.2-13.33-.48-19.12-.45Z"/><path d="m297.52,2.87c-2.17-.23-7.57-.55-9.1-.77-.72-.11-7.55-.37-11.26-.48-.62-.01-1.01-.02-1.51-.03l-.04.1c5.72.35,11.06.5,16.71.88l4.17.25c.55.03.89.05,1.03.05Z"/><path d="m207.77,9.42c-2.21-.15-16.63-.52-21.27-.54-4.58-.02-1.67.1-2.58.15,2.91.03,5.84.03,8.6.14.6.01,2.63.06,2.76.07,3.71-.06,8.4.13,12.49.19Z"/><path d="m71.74,4.13c2.22-.1,6.56-.52,7.7-.43,2.28-.07,4.53-.22,6.78-.36,3.76-.27,9.72-.51,14.15-.64-.89-.02-.79-.16-5.52.09-2.87.14-7.01.34-10.57.51l-1.97.15h-.63s2.48-.15,2.48-.15c-2.95.13,6.11-.59-4.68.11-.37.08,1.05.08-3.22.34-.86.11-4.75.33-4.53.39Z"/><path d="m306.69,11.5c.09-.01-.46-.06.91-.01-9.68-.36-19.87-.82-28.27-.83l.22.05,6.33.19c6.92.2,13.84.4,20.8.61Z"/><path d="m100.37,2.69c-4.43.13-10.39.37-14.15.64.52.09,4.02-.16,5.83-.23,1.73-.06,3.47-.12,5.22-.18,1.75-.04,3.51-.08,5.27-.12,3.52-.09,7.05-.18,10.54-.27-1.42-.18-8.28.09-12.7.16Z"/><path d="m214.93.7c-4.98.07-10.6.23-13.95.15-1.27-.03-3.11.04-3.41.1-.22.05.18.08-1.93.15-.67.13,3.51.01,5.72-.02,4.99-.09,10.05-.17,15.08-.26-.41-.04.86-.12-1.51-.11Z"/><path d="m240.44.15c3.48.07,7.1.15,9.59.11,1.62-.03,2.57.03,4.01.09,4.84.23,9.63.39,14.16.46-4.5-.29-10.13-.45-15.63-.58-4.05-.09-8.06-.14-12.09-.17l-.04.08Z"/><path d="m4.47,15.67c.27-.06.68-.16,1.03-.24.35-.08.62-.14.62-.16,0,0-.07,0-.24.02-.17.03-.43.07-.82.13-.76.15-2.06.31-3.94.91-.23.09-.48.18-.61.31-.12.03.09.14.3.21.41.13.83.2,1.22.27.78.12,1.47.2,2.1.27,1.26.12,2.27.22,3.33.33,1.06.09.36.15,3.68.26,2.68.08,2.06-.02,1.56-.09-.48-.07-.73-.13-1.09-.2-2.63-.11-5.26-.23-7.87-.48-.65-.07-1.3-.14-1.94-.25-.32-.06-.64-.12-.92-.21-.12-.04-.31-.13-.29-.14.01.02.02.05,0,.09,0,.02-.02.03,0,.01.02-.02.08-.06.14-.09,1.11-.49,2.47-.7,3.74-.96Z"/><path d="m316.8,5.92c-.53.09-.61.2,6.27.31l4.81.02c1.01.01,2.02.02,3.03,0,.64-.03,1.43-.04,2.2-.15.05,0,.09-.02.13-.03.06,0-.01-.08.14.13.07.04-.02,0-.03.06-.14.12-.1.1-.1.1l-.11-.05c-.17-.06-.38-.11-.59-.16-.41-.09-.85-.17-1.27-.24l-1.8-.18c-.18.07,2,.27,3.53.67.07.02.14.05.16.06h0s.03-.05.04-.07c.03-.04.07-.08.11-.12.06-.04.02-.04.05-.05,0-.01.07,0,.03,0-.01,0-.08-.07-.12-.15-.01-.02,0-.03-.03-.07-.02-.04-.03-.06-.03-.05h0c-.08.03-.27.06-.43.08-.34.03-.69.05-1.04.07-.71.03-1.42.03-2.13.04l-4.27-.03-8.55-.18Z"/><path d="m69.85,9.34l-3.36.15c-4.51.32-9.27.75-13.1.91-.98.04-3.85.31-3.67.31.79-.01-5.43.51-1.04.22,7.01-.58,14.68-1,21.17-1.59Z"/><path d="m318.34,6.33c-1.75-.02-4.35-.03-5.09-.06-2.96-.13-.16-.08.86-.08.69,0-.21-.05-1.41-.09-.69-.02-1.4-.04-1.94-.05-.54,0-.92,0-.94,0-.05.05.38.12.61.18,5.77.27,12.32.49,18.85.54l.2-.09c-.08-.01-.09-.02-.06-.03l-1.74-.02c-4.19-.02-8.18-.12-9.35-.3Z"/><path d="m112.54,6.66c-5.99.32-4.66.45-11.18.81,3.34-.08,6.73-.17,11.11-.52.49-.05.81-.11,1.5-.14,10.55-.52,2.78-.24.3-.19-.25.04.03.06-1.86.14l.37-.08c-.1,0-.18-.02-.25-.02Z"/><path d="m30.7,18.64c-1.39-.08-4.1-.19-6.88-.17-5.33.07-14.94-.4-18.5-.49,8.63.58,17.08.61,25.38.66Z"/><path d="m161.52,17.5l-6.2.03-3.25.02s-.66.08-1.65.1c-1,.02-2.32.04-3.63.06-6.12,0-11.87.11-17.28.29.52.03,2.19.05,3.31.02,9.27-.23,19.69-.25,28.7-.52Z"/><path d="m100.22,2.18c.32.11,1.39.18,7.5-.06,4.55-.17,10.29-.16,14.68-.32-6.62-.09-14.64.23-22.18.38Z"/><path d="m346.32,13.62c-2.12-.24-6.31-.53-10.92-.81.91.17-1.49.16-4.65.12,3.22.2,6.12.28,9.1.39,1.61-.02,4.2.17,6.46.3Z"/><path d="m168.96,1.65c-5.56-.04-17.15.16-24.09.42,6.86-.03,13.77-.21,20.65-.33.17-.08,1.86-.08,3.44-.09Z"/><path d="m176.38,4.51c1.86-.04,3.14-.08,3.09-.12h-2.04s-.45-.02-.45-.02h1.51s1.25.01,1.25.01c1.91-.03,2.82-.07,2.97-.11-5.83.07-10.88.04-17.33.26.57.12,6,.01,9.59,0,.47,0,.93-.01,1.4-.02Z"/><path d="m107.59,18.21c-7.31.08-14.58.16-20.79.33,2.46.04,4.76.05,8.42-.06,4.64-.13,10.41-.12,15.54-.22l-.29-.08c-.94,0-1.91.02-2.88.02Z"/><path d="m232.55.3c-6.54.04-10.06.24-7.93.38l6.39-.04c-.98-.08,3.74-.13,2.82-.21-1.86-.03-1.08-.09-1.27-.13Z"/><path d="m85.71,8.23l-10.62.79c5.36-.28,10.69-.55,15.71-.96l-.57-.09-4.52.26Z"/><path d="m267.28,5.04l-4.09-.08-.71.05c5.96.14,12.02.33,17.55.35-1.78-.11-5.43-.22-6.1-.32-1.15-.01-2.12-.02-3.09-.03-.25.05-.41.09-3.56.03Z"/><path d="m240.44.15l.04-.08-7.93-.02c-1.63.09-1.51.17,0,.26,3.87,0,2.96.07,3.04.13.61.03,1.49.06,2.98.06,1.75,0,.71-.05.39-.07-1.21-.1-3.5-.22,1.48-.27Z"/><path d="m200.26,4.11l.09-.08c-5.42.03-11.37-.02-15.97.21.81.06-.39.21,5.63,0,2.62-.09,7.15-.03,10.24-.13Z"/><path d="m165.2,17.38l-.38.11c6.17-.02,11.74-.18,17.44-.35h-2.98c-3.17.02-3.22-.05-3.67-.1-.43,0-.86.01-1.3.02,0,.07-.25.14-1.5.19-1.26.06-3.53.1-7.61.13Z"/><path d="m234.93,15.6c4.2-.07,8.41-.15,12.6-.22,2.72-.04,4.76-.08,5.04-.16-5.61,0-11.85.2-17.68.27-.01.04-.02.07.04.11Z"/><path d="m179.28,17.13h2.98c4.55-.03,9.26-.04,12.97-.28-4.09.05-8.36.11-12.93.17-2.16.04-2.91.06-3.02.11Z"/><path d="m300.83,5.43c.18.02.23.03.54.05,2.27.13-6.46-.04.14.18,4.76.16,7.82.14,7.41,0-2.79-.1-5.75-.26-8.09-.23Z"/><path d="m236.99,9.57c-1.78-.11-3.61-.19-7.48-.22-3.21-.02-6-.1-7.63-.21-1.12-.01-2.57-.05-2.98-.02.92.06,1.84.11,2.77.17,4.97.1,9.88.2,14.82.31l.5-.03Z"/><path d="m158.43,8.73c2.76-.1-1.6-.14-5.53-.17-2.9-.04-4.72-.03-5.95.01l.07.08c3.73.02,7.46.05,11.4.07Z"/><path d="m344.93,14.44c-5.77.03-12.28.07-17.41.24,5.78.02,11.58-.16,17.37-.16l.03-.07Z"/><path d="m28.44,12.72c-.87-.2-7.56.69-11.44,1.13.26.03-.86.22,3.86-.34,2.36-.27,5.04-.54,7.58-.8Z"/><path d="m307.24,6.14c-.56-.07.04-.14-3.56-.25-4.85-.14-1.95.08-4.75.04,3.87.22,5.55.14,8.31.21Z"/><path d="m184.88.86c-2.36.07-4.73.14-7.1.21,4.47-.07,4.75,0,5.39.07.37.04,1.43.05,3.56.01.79-.02,2.04-.06,2.29-.08.7-.06-1.03-.04-2.4-.03-4.93.03,3.95-.22-.33-.21-.45,0-.92.01-1.41.02Z"/><path d="m149.85,8.23c3.16-.02,7.44.25,9.91.07q-1.35-.13-9.91-.07Z"/><path d="m315.34,3.86c-4.17-.38-3.89-.44-4.83-.59-3.27-.27-6.86-.58-9.53-.68l.1.05c2.35.18,6.47.45,6.85.55.83.23,4.18.41,7.41.66Z"/><path d="m325.07,4.59c-2.04-.1,2.77.43,5.04.82.83.1,1.65.19,2.48.34.16.02.33.05.5.08.08.01.17.04.26.06.09.06.17-.02.34.26.04.1,0,.19-.07.27-.03.03-.08.06-.11.08-.06.03-.11.05-.15.06-.09.03-.18.05-.26.07-.17.04-.34.06-.5.09.21-.01.42-.03.64-.07.12-.03.2,0,.43-.16.08-.06.17-.24.09-.39-.04-.09-.07-.12-.09-.13l-.06-.05c-.1-.07-.13-.07-.2-.1-.43-.15-.81-.22-1.2-.3-.78-.14-1.55-.25-2.32-.35-1.55-.19-3.1-.38-4.79-.58Z"/><path d="m30.64,18.19v-.11c-2.97-.06-5.95-.12-9.24-.15.02.03-.26.06.01.09.27.03,1.1.06,3.32.09,3.36.04,4.89.09,4.76.16,1.47-.01,1.01-.05,1.14-.09Z"/><path d="m330.76,12.92c3.16.04,5.55.05,4.65-.12-3.26-.07-8.02-.21-8.71-.11l.64.09,3.42.14Z"/><path d="m214.93.7c2.37,0,1.1.07,1.51.11l4.77-.05c.75-.13.85-.26-6.35-.17l.07.11Z"/><path d="m110.47,18.19l.29.08c3.09-.03,5.73-.09,7.99-.17-1.97-.22-5.17-.05-8.28.09Z"/><path d="m246.16,10.24s.32-.04.02-.07c-.88-.08,3.7-.08-1.24-.21-4.37-.11-.6.09-1.23.13-.18.01-1.63-.01-2.5-.02,1.06.07,2.02.14,4.95.17Z"/><path d="m346.32,13.62c-2.26-.13-4.85-.33-6.46-.3l3.48.19c1.32.06,2.44.13,3.05.19,2.15.11,4.3.21,6.45.36l-1.34-.13-5.17-.3Z"/><path d="m50,11.22s-.12.03,0,.03c.55,0-1.81.25,2.08-.05,1.33-.1,3.81-.35,1.27-.23l-3.34.25Z"/><path d="m226.95,15.86c.1-.07,4.14-.19,3.17-.25l-4.87.1c.58.05-1.11.15,1.71.14Z"/><path d="m56.67,4.75c.11.04,1.65-.05,3.33-.15,7.03-.61-1.55.03.36-.17-.3.01-.71.04-1.22.09l-2.11.18c-.44.04-.56.06-.36.05Z"/><path d="m299.77,2.98l-3.17-.17c1.4.17,5.26.41,7.65.62l.18-.06-.12-.08c-.86-.06-1.51-.11-2.16-.16-.24.02-1.32-.06-2.38-.14Z"/><path d="m52.98,18.75c-.27-.07-3.73-.04-4.75-.09l-2.53.03,2.04.05c1.68.02,3.42.03,5.25,0Z"/><path d="m332.58,6.72c.17-.02.33-.05.5-.09.09-.02.17-.04.26-.07.04-.01.1-.03.15-.06.03-.01.08-.05.11-.08.06-.07.1-.16.07-.27-.16-.28-.25-.2-.34-.26-.09-.02-.17-.05-.26-.06-.17-.04-.33-.06-.5-.08.21.04.41.09.62.16.11.04.2.05.34.17.03.02.1.17.04.23-.06.1-.09.08-.13.12-.07.03-.12.05-.18.06-.44.09-.85.1-1.28.13-.84.04-1.68.05-2.52.05l-.2.09c1.1,0,2.18.02,3.29-.04Z"/><path d="m257.81,4.94c-.94-.08-2.22-.15-5.01-.12,1.34.06,1.88.16,5.01.12Z"/><path d="m300.21,14.86l-5.02.1c-.23.1,2.54.04,5.01,0v-.1Z"/><path d="m243.48,4.66c-2.38-.02-5.06-.07-6.74-.02,3.43.11,5.26.08,6.74.02Z"/><path d="m33.23,12.91c1.57-.19,3.37-.41,5.41-.65-1.74.17-2.78.21-5.41.65Z"/><path d="m351.49,13.93l1.34.13,1.58.14c.24.03.56.06.72.1-.01,0,.04.02-.03-.02-.08-.04-.09-.18-.09-.22,0-.06.04-.14.1-.17.08-.03.04-.02.04-.02h-.07s-.19.02-.19.02h-.39s.13.05.13.05c.17,0,.37,0,.51-.01h.02s-.11.04-.11.12c-.01.03,0,.18.09.2h-.01s-.07-.02-.1-.03l-.26-.04c-.35-.05-.72-.09-1.08-.12-.73-.06-1.47-.1-2.22-.13Z"/><path d="m278.97,1.32s-.04.01-.21,0c.23,0,.47.02.74.03.15-.02.3-.04.45-.06l-.98.02Z"/><path d="m346.39,13.7c-.61-.06-1.73-.13-3.05-.19-.04.06,1,.12,3.05.19Z"/><path d="m226.33.07c.18.03-.12.07,1.65.05,1.29-.01,1.05-.04.1-.05h-1.75Z"/><path d="m304.43,3.37l-.18.06c1.64.11,2.77.17,3.3.17l-3.12-.23Z"/><path d="m296.49,2.82l-4.17-.25c1.75.15,3.15.24,4.17.25Z"/><path d="m234.85,15.6l.04-.11c-1.06.01-1.6.03-1.66.06.15.03-.63.08,1.62.05Z"/><path d="m99.85,7.54l-.51-.04c-1.67.1-.64.08-1,.12.51-.03,1.01-.05,1.51-.08Z"/><path d="m168.96,1.65c-1.58,0-3.27.01-3.44.09,1.45-.02,2.88-.03,3.44-.09Z"/><path d="m236.49,9.6c-4.94-.1-9.85-.2-14.82-.31-1.72-.03-2.48-.02-2.63.01l-.22.1c2.74.06,3.64.11,2.66.15-.46.02-1.1.04.71.08.53,0,1.37.02,2.07.03.7,0,1.24,0,1.26,0-.33-.16,6.92-.02,9.74-.04.57-.02.82-.02,1.21-.04Z"/><path d="m133.05,8.19c-3.37-.05-6.74-.09-10.02-.04,5.66.03,1.04.14,5.01.18l6.37.09c-.81-.08-4.2-.16-1.36-.23Z"/><path d="m303.2,11.75c2.68.16,6.17.29,9.81.42-.11-.05.4-.08-.48-.14-1.18-.08,3.6.03-.74-.13-3-.11-2.42-.03-2.09.03.15.03.16.11-1.79-.04-3.57-.26-2.83-.05-4.71-.14Z"/><path d="m188.55,8.73l-4.79-.1c-.62.03-4.72,0-1.11.1,3.83.1,5.12.05,5.9,0Z"/><path d="m199.96,8.94c1.39,0,2.68-.01,1.83-.05-2.56-.11-5.5-.08-8.32-.13.24.1,3.94.13,6.5.18Z"/><path d="m285.89,10.9l-6.33-.19c.34.08,2.34.16,4.87.23,1.96.05,1.31-.02,1.46-.05Z"/><path d="m354.48,14.05c-.44,0-.89.01-1.36.02l-.18.07c.48,0,.99,0,1.5-.01.25,0,.51,0,.75-.03.15.03-.11-.03-.19-.04-.12-.02-.24-.03-.35-.04-.93-.1-1.74-.14-2.17-.14l1.79.16c.3.03.6.06.88.12.02,0,.03,0,.04.01h.02s-.05-.03-.03-.06c-.03-.06.08-.1.03-.08h-.05s-.22.02-.22.02h-.45Z"/><path d="m182.51,8.61c-.66-.09-2.92-.1-5.19-.1l.16.07c1.7.01,3.37.02,5.03.03Z"/><path d="m213.17,9.45c.34.01.67.03,1,.04l.91-.02c-.41-.01-.9-.02-1.22-.03-.31,0-.46,0-.69.01Z"/><path d="m298.29,11.58l3.69.12c-.47-.04-.81-.08-1.43-.1-1.79-.07-1.77-.03-2.26-.02Z"/><path d="m201.38,9.06l-1.55-.09c-2.41.02-.53.05,1.55.09Z"/><path d="m177.48,8.58c-.43,0-.96,0-1.38-.01-.42,0-.73,0-.73.01,0,0,.62.03.94.03,1.46.02,1.05-.01,1.17-.03Z"/><path d="m218.83,9.41l.22-.1c-2.06,0-2.23.03-.22.1Z"/><path d="m262.29,10.47s-.28-.02-.5-.03c.03.02.28.02.5.03Z"/><path d="m349.69,14.14l-.07.04,3.29-.05c-1.05,0-2.13,0-3.22,0Z"/><path d="m206.22,9.11l.36.02c-.13,0-.27-.02-.36-.02Z"/><path d="m176.52,8.5l-.46-.04c-1.38,0-1.1.02.46.04Z"/><path d="m211.91.6c1.94-.09,4.96-.19,2.74-.25-.95-.02-2.09-.04-4.08-.01-2.95.05-3.29.11-3.68.16,1.54.03,2.3.08.99.17-.6.04-.45.07,1.29.04,2.1-.03,2.42-.07,2.74-.12Z"/><path d="m76.26,3.73c4.27-.26,2.84-.26,3.22-.34-1.58.08-3.8.24-4.03.19-.11-.03-1.65.03-3.06.13-1.44.1-2.76.25-3.26.32-.84.12,1.93-.11,2.79-.14,1.7-.06,2.92-.1,4.34-.16Z"/><path d="m158.15,1.42c-2.9-.13-8.29.03-13.38.14,3.73.04,7.95.02,13.38-.14Z"/><path d="m162.11,1.34c-.55.01-1.09.02-1.64.04-.28.01-.45.02-.84.04-3.06.1-5.1.18-1.94.21.83,0,3.1,0,2.71-.04-.92-.07,9.16-.28,1.72-.25Z"/><path d="m197.35.62l-4.61.07c-.05.05-3.89.2.2.14,3.02-.04,5.13-.15,4.41-.22Z"/><path d="m175.59,1.11h-5.12c.12.03-2.64.13-.29.13,1.87,0,3.88-.06,5.41-.13Z"/><path d="m86.05,3c.93-.03,1.49-.05,2.04-.06.59-.03,1.16-.07,1.74-.1-.49.01-.94.02-1.49.04-.56.03-1.22.07-2.29.13Z"/><path d="m167.02,1.16l-4.43.11c-.21,0-.42.02-.64.03l.2.03c.99-.02,2.22-.05,3.19-.07.97-.03,1.69-.05,1.67-.09Z"/><path d="m201.42.54c-1.31,0-2.62-.01-3.96.08l3.96-.08Z"/><path d="m95.67,2.4c.45,0,.68-.02.9-.04-.16,0-.33.01-.9.04Z"/><path d="m29.87,12.06c-1.77.17-3.81.37-4.86.52-.78.19-6.14.67-8.26,1-.8.12-3.52.33-4.7.57-.72.14,1.93-.16,3.57-.31,1.67-.16,2.98-.3,5.28-.59,2.9-.37,6.27-.74,8.88-.87,1.57-.08,4.38-.39,6.03-.57,2.88-.3.54-.13-1.14,0-2.67.19-5.3.39-4.81.25Z"/><path d="m30.64,18.19c-.13.03.33.08-1.14.09-.37.04-4.29,0-2.35.09.68.03,2.23.07,3.25.08,3.42.02,1.15-.07,1.9-.1.42-.02.74-.03,1.36-.05,1.23-.02,4.82-.03,3.47-.08-1.55-.06-4.13,0-6.49-.03Z"/><path d="m19.02,18.16c-.34-.01-.66-.03-.98-.04h-.93c.41.02.88.04,1.22.05.3,0,.46,0,.69,0Z"/><path d="m60.07,9.61l1.58-.11c-.51.04-1.06.08-1.58.11Z"/><path d="m73.8,10.08c-.32,0-.42-.03-2.56.1.29.01,1.31-.03,2.56-.1Z"/><path d="m130.25,5.76l-3.26.13s.71.09-.29.14c-1.77.1-3.35.19-2.75.22.29.02,1.26-.04,1.65-.07,1.41-.11,6.12-.28,4.86-.33-.41-.02-.16-.07-.21-.1Z"/><path d="m139.71,5.52c-1,0-1.07-.05-3.36.03-.32.01-1.12.07-1.03.08.45.04,2.65-.05,4.39-.11Z"/><path d="m176.38,4.51c-.47,0-.94.01-1.4.02,0,.01-.07.03.08.04s.54.01,1.46,0l-.14-.06Z"/><path d="m112.79,6.69l-.37.08c1.88-.09,1.6-.11,1.86-.14l-1.49.07Z"/><path d="m120.58,6.23l.57.02c1.54-.09-.04-.03-.57-.02Z"/><path d="m128.05,8.33c-3.98-.04.64-.15-5.01-.18-2.06-.02-3.51.03-4.59.07-2.28.1-5.07.22-.83.21,3.34-.01,5.08,0,6.42-.02,1.34-.03,2.28-.07,4.01-.08Z"/><path d="m101.23,8.92c2.3-.09,5.97-.15,5.77-.24-.07-.03-.99-.06-3.6.05-2.52.1-6.22.29-6.36.33-.28.08,3.01-.11,4.19-.14Z"/><path d="m103.74,8.6c-1.8.03-2.92.03-4.22.07-1.65.06-4.59.18-4.7.24-.06.03,1.02.02,2.77-.05,1.89-.08,3.72-.16,6.16-.26Z"/><path d="m81.82,9.7c-.22-.01-.23-.04-1.89.04-.52.02-.81.06-1.2.09l3.09-.14Z"/><path d="m110.08,8.52c-.52.03-.2.02.12,0h-.12Z"/><path d="m84.86,9.6l-.73.03-.73.03c.49,0,.97-.03,1.45-.06Z"/><path d="m272.41,1.1c.33.08,1.98.17,4.3.26,2.95.12,1.79,0,2.08-.04-2.87-.15-2.99-.04-6.38-.23Z"/><path d="m235.59.43c-.08-.06.83-.13-3.09-.13.24.05-.54.1,1.32.13.59,0,1.18,0,1.77,0Z"/><path d="m272.38,1.1l-.35-.03c.13.01.25.02.35.03Z"/><path d="m107.59,18.21l2.91-.02c-.51-.02.97-.09-1.35-.06-1.32.01-1.65.06-1.55.09Z"/><path d="m146.79,17.71c1.31-.02,2.63-.04,3.63-.06,1-.02,1.66-.06,1.65-.1-1.95.05-4.13.09-5.29.16Z"/><path d="m315.34,3.86c-3.23-.25-6.58-.44-7.41-.66-.37-.1-4.5-.38-6.85-.55,1.28.17,2.31.31,3.9.53,3.43.42,9.73.93,14.89,1.28.64.04.97.05,1.76.11,2.93.26,3.14.16.23-.19q-1.21-.14-1.92-.12c-.33,0-.24.06-2.46-.14-.68-.06-1.43-.17-2.14-.26Z"/><path d="m327.69,6.62l1.74.02c3.07-.13-1.7-.25-1.54-.39l-4.81-.02c-.46.11,5.9.3,4.62.39Z"/><path d="m331.29,5.92c.43.07.86.15,1.27.24.2.05.42.1.59.16l.11.05s-.04.02.1-.1c0-.06.1-.02.03-.06-.16-.2-.08-.13-.14-.13-.04.01-.08.02-.13.03-.77.11-1.57.12-2.2.15.05,0,0,.01.16.01,1.07,0,1.51.02,1.99-.02.11,0,.26-.06.32-.04-.04.06-.03-.01-.12-.03-.06-.03-.15-.06-.23-.09-.34-.11-.8-.21-1.45-.32-3.84-.56.43.18-.31.14Z"/><path d="m322.86,4.77c-.46-.04-1-.08-.96-.07.14.03.48.09.75.14.21.01.58.04.59.03.01-.02-.22-.06-.39-.09Z"/><path d="m299.77,2.98c1.05.08,2.13.17,2.38.14-1-.08-2.41-.21-2.38-.14Z"/><path d="m304.31,3.28l.66.03c-.29-.02-.57-.03-.66-.03Z"/><path d="m85.71,8.23l4.52-.26c1.34-.22,8.91-.61,11.36-.84-.25-.04.38-.13-3.25.06,1.55-.01-1.09.16-2.76.27-2.04.14-3.01.14-3.78.14l-4.59.25c-8.61.65-8.76.69-1.51.37Z"/><path d="m91.81,7.61c.77,0,1.74,0,3.78-.14,1.67-.11,4.31-.29,2.76-.27-2.48.13-5.55.27-6.54.42Z"/><path d="m69.3,9.03c4.36-.11,5.73-.4,8.55-.59-3.47.15-6.05.37-8.55.59Z"/><path d="m60.04,9.61l1.65-.12c-.55,0-1.1.04-1.65.12Z"/><path d="m267.28,5.04c3.15.07,3.3.02,3.55-.03-.47-.08,1.17-.03,2.92.03.99-.05.29-.16,4.82-.07.93-.07-4.03-.15-4.73-.23-6.38-.03-6.9.13-6.56.3Z"/><path d="m318.3,6.32l2.01.04c-1.13-.06-1.42-.04-2.01-.04Z"/><path d="m276,15.05c-.77.05-.97.08-1.18.12,3.22-.06,6.43-.11,9.64-.17,2.89-.05,2.96-.1,3.08-.15-1.72.02-3.83.07-4.85.04l-6.68.15Z"/><path d="m276,15.05l6.68-.15v-.08c-2.18.04-4.37.08-6.56.12l-.12.12Z"/><path d="m321.05,14.32c-.06-.04-.23-.08-2-.06-.8,0-1.86.05-2.8.08,1.14.03,3.02,0,4.79-.02Z"/><path d="m282.68,14.89c1.02.03,3.13-.02,4.85-.04-.99-.03-2.96,0-4.85.04Z"/><path d="m301.84,14.81s1.51-.06.09-.06c-.15,0-.6.01-.74.01-.92.04-.39.05.65.05Z"/><path d="m203.58,4.42c2.69-.04,5.11.2,7.98-.02.45-.16-5.38-.06-8.07-.08.04.04.06.07.08.11Z"/><path d="m237.03,4.37h-.65c.2,0,.41,0,.65,0Z"/><path d="m203.5,4.31h-.35c.12,0,.25,0,.35,0Z"/><path d="m349.69,14.14h3.25s.18-.08.18-.08c-2.27,0-3.38.02-3.43.08Z"/><path d="m165.2,17.38c4.08-.03,6.35-.07,7.61-.13,1.26-.06,1.5-.12,1.5-.19l-1.75-.13c-6.06,0-9.51.2-14.23.3-.58.14-.17.24,6.87.15Z"/><path d="m242.43,15.61h.69s-.29-.02-.69,0Z"/><path d="m162.59,1.27h-1.14c.17.01.34.02.5.03.22,0,.43-.02.64-.03Z"/><path d="m226.89,15.86c.56,0,1.11,0,1.69,0,.01,0,.3-.01.45-.02-.7,0-1.39.02-2.14.03Z"/><path d="m136.02,17.51h-3.06c.21.05.36.1,3.06,0Z"/><path d="m274.82,15.17c.21-.04.42-.08.63-.12-1.58.03-3.33.06-3.6.11-.27.05,1.26.04,2.97,0Z"/><path d="m257.54,4.78c.18-.04.24-.07-1.32-.13.17.04-.55.07,1.32.13Z"/><path d="m249.78,4.45l.33.02c-.12,0-.23-.01-.33-.02Z"/><path d="m262.4,4.72c-.33-.03-.31-.07-1.09-.1-1.02-.04-2-.02-1.67,0,.65.05-2.61.08,2.29.16.16-.02.31-.05.47-.07Z"/><path d="m262.4,4.72c-.15.02-.31.05-.47.07,2.44.03,2.24,0,.47-.07Z"/><path d="m163.11,4.8c-.22,0-.43,0-.69,0-.03,0-.56.02-.6.02-.07.01.02.02.05.03l1.24-.05Z"/><path d="m46.74,18.48h.64c-.24,0-.48,0-.64,0Z"/><path d="m84.16,3.29l-2.48.16h.63c.66-.06,1.31-.11,1.86-.16Z"/><path d="m177.43,4.4h2.04c-.15-.03-.56-.04-.98-.04l-1.06.04Z"/><path d="m273.75,5.04c-1.75-.06-3.39-.11-2.92-.03.97,0,1.95.02,2.92.03Z"/>
                  </g>
                </mask>
              </defs>
              <path class="mask" d="m28.55,7.98c15.6-1.94,39.37-4.39,69.05-5.43,9.12-.32,15.72-.39,20.58-.45C210.62.98,223.97-.46,260.39.74c38.35,1.27,73.27,4.51,73.08,5.49-.26,1.38-69.37-3.26-159.97-1.52C82.36,6.47-.1,14.1.33,16.7c.55,3.34,138.33.82,174.27.27,24.09-.37,34.39-.7,56.12-1.15,12.13-.25,34.57-.65,59.03-1.01,23.38-.35,35.06-.51,48.8-.58,14.18-.08,16.71-.01,16.71-.13.02-.72-102.71-5.15-224.21-5.75-4.02-.02-7.35-.03-9.67-.04,0,0-8.8-.03-37.1,1.21-26.56,1.17-61.86,2.67-74.48,9.53-1.55.84-5.14,2.79-4.35,5.03.96,2.71,7.08,4,8.65,4.25"
                    mask="url(#path-mask)" stroke="black" stroke-width="2" fill="none"
                    stroke-dasharray="1358.2802734375" stroke-dashoffset="1358.2802734375">
              </path>
            </svg>
        