
            <svg xmlns="http://www.w3.org/2000/svg">
              <defs>
                <mask id="path-mask">
                  <g fill="white">
                    <path d="m181.38,5.88c3.42.1,1.25-.06,1.93-.08l2.46.12c2.01.13,4.34.28,6.26.4,3.92.28,11.28.55,14.43.55,2.16.11,3.52.15,4.43.15,2.87.17,7.14.28,9.35.48.6.09,3.12.26,1.01.23-1.53-.03-3.18-.08-5.63-.23-2.02-.13-3.86-.2-5-.2l-1.9-.08c-2.36-.07-5.55-.39-7.39-.3-.74-.03-2.1-.1-2.12-.1-1.86.07-6.22-.18-9.98-.35l-.06-.04c1.03.02.82,0-.34-.05-.19,0-.38-.01-.59-.02l-.12-.06c.32.01.72.03,1.03.04.31.01.55.02.54,0,0,0-.46-.03-.7-.04-1.09-.04-.78,0-.9,0l-3.73-.12c-.3-.01-.61-.02-.93-.03.46-.01,3.52.08.83-.07-2.85-.15-3.82-.14-4.4-.1-.54.04-1.76,0-3.67-.11-.18-.09-2.94-.17-4.85-.25l.09-.02c1.8.02.39-.04-1.15-.1-2.09-.13-2.29-.06-3.61-.1l-.27-.02.3.02c-.12.04.66.14-3.15-.02-2.37-.1-4.41-.15-4-.06l-2.35-.07-2.06-.17c1.28.04,1.85.04,1.95.02,1.54.02,1.67,0,.17-.09-2.04-.08-2.72-.13-1.98-.15.34-.01.82-.02-.53-.08-.39-.01-1.02-.03-1.55-.04-.52,0-.92-.01-.94-.01.24.14-5.17-.04-7.28-.03-.42.01-.61.02-.91.02l-.37.03c-4.82-.15-9.89-.35-14.23-.38-1.1,0-2.63-.09-3.72-.14-1.96-.09-3.29-.12-4.36-.1l-9.29-.32-.17-.05c-.26-.07-1.75-.13-3.64-.18-1.46-.03-.98.02-1.09.05-5.17-.11-10.33-.22-15.75-.33l.22.02c-.07.01.35.05-.68.03-.29.02-.4.04-1.73,0,.47-.08-2.12-.16-4.21-.22-4.53-.14-9.78-.3-13.75-.32-2.75-.02-4.6-.05-7.27-.1-1.62-.03-.72.05-.86.08l-15.56-.26.02-.07c1.03-.02.78-.06.28-.12-.87-.09.45-.1,3.23-.05h2.45c1.46.03,3.23.07,3.87.03l-2.69-.07c-.34-.04-1.92-.1.13-.09,1.07.06,2.16.08,3.29.06l3.87.07c1.59.14,4.72.28,8.16.41,2.43-.03,5.99,0,6.5-.1,3.4.09,6.79.18,10.23.23.08.04-.3.08.36.12.88.06-2.69.03.55.11,2.24.05,1.8-.01,1.56-.06-.11-.02-.12-.09,1.34,0,2.67.19,2.11,0,4.42.08.35.03.6.06,1.07.08,1.34.04,1.32,0,1.69-.01,4.35.12,8.58.17,13.2.35,2.4.1,3.69.03,4.4-.01l21.33.65s-.24.04-.01.06c.65.07-2.76.06.92.18,3.26.11.45-.07.92-.11.14,0,1.22.02,1.87.03,6.01.12,12.5.36,18.74.59,1.82.07,4.77.09,6.21.24,1.65.15,12.41.67,15.87.77Zm-20.64-.91h-.68c.31.02.67.03.91.04.23,0,.34,0,.52,0-.26-.01-.5-.03-.74-.04Zm-35.44-1.07c-.13,0-.32-.01-.49-.02.02.01.21.02.49.02Z"/><path d="m87.02,6.98c-7.97.09-15.83.17-23.75.26-1.06-.18-6.18,0-9.49,0-.67-.05-.58-.12-4.12-.02-2.14.06-5.24.09-7.99.12-2.2,0,4.58-.3-3.49-.1-1.18,0-2.85.05-3.01-.01-.08-.03-1.23-.06-2.28-.04-1.08.03-2.07.08-2.44.12-.63.07,1.44.01,2.09.02,1.27.03,2.18.05,3.24.08-.65.06-3.55.07-3.39.14-.89-.04-2.9,0-4.68.02-1.78.03-3.35.05-3.34-.03,0-.07,2.52-.19,3.6-.29,1.11-.11,5.93-.19,9.75-.22,1.72,0,3.36-.01,5.08-.02,1.66-.02,3.69.02,4.9-.05,1.29-.08-3.27,0-2.43-.08,2.63-.08,5.39-.14,8.44-.13.23.11,1.03.19,5.6.03,3.4-.12,7.68,0,10.96-.16l1.26-.02h2.39c4.02.08,8.35.05,13.04-.11,2.79.06,5.94.07,9.99-.05l1.72-.02c-.21.01-.34.02-.63.04-2.29.07-3.81.14-1.45.18.62.01,2.31.01,2.02-.02-.68-.07,6.84-.2,1.32-.24,1.48-.03,3.67-.04,3.64-.12l2.58-.03c.09.04-1.97.11-.22.12,1.39.01,2.9-.02,4.04-.07l1.63-.02c3.34-.03,3.55.05,4.03.12.28.04,1.06.06,2.66.04.59,0,1.53-.04,1.71-.05.53-.05-.77-.04-1.79-.05-3.68-.02,2.95-.17-.25-.2.8-.08,2.86-.1,4.79-.12l.03.05s-2.9.15.15.14c2.26,0,3.83-.09,3.38-.16l2.96-.03,4.09.02c1.15.04,1.71.09.74.17-.45.03-.34.06.96.05,1.57-.01,1.81-.05,2.05-.09h2.2s.05.12.05.12c-3.72.04-7.92.13-10.41.02-.95-.04-2.32,0-2.55.06-.16.04.13.08-1.44.12-6.45.17-13.1.26-19.92.28-4.15-.09-12.8.03-17.99.24Zm-42.4.19c.44-.01.87-.03,1.3-.04-.37,0-.7-.01-1.11-.02-.42.01-.91.02-1.71.04.7,0,1.11,0,1.52.01Z"/><path d="m212.85.53c-3.1.02-4.54-.04-6.13-.11-.8-.03-.28-.11-2.75-.08-2,.02-1.54.08-1.16.13.36.05.55.1.82.15h-7.32s.83-.11-2.49-.11c-2.51,0-3.65-.03-3.56-.1.28-.04,3.2-.05,1.76-.11-.51-.02-1.67-.05-2.43-.04-2.55,0-.86.07-1.42.11-.31.02-.55.04-1.01.06-.92.03-3.6.05-2.59.09,1.16.05,3.09-.03,4.84-.01v.1c-6.94.02-13.68-.01-20.32-.07,1.09-.11,1.79-.23,7.51-.14.94.01,2.47,0,2.86-.03.41-.04-.77-.06-2.07-.06-.42-.06-.84-.11-1.1-.17l1.89-.03-1.52-.05c4.52-.07,8.74-.05,12.71.04,1.04.07,3.06.14,5.14.08,3.97-.12,11.16.08,13.81-.12,3.86.06,7.94.03,11.91.04-.16.12,2.88.14,5.42.11,2.27-.03,3.61-.01,5.31.02-.59.1-4.61.02-6.21.08-.6.02-2.64-.09-3.53-.01-.55.04,1.44.09,2.67.13,1.25.04,2.24.05,3.97.02,2.18-.04,4.71-.07,6.66.04,1.17.07,3.28.03,4.52,0,2.17-.04.41-.07-.85-.1-2-.05-3.97-.11-3.59-.19l1.27-.03c2.23.14,6.55.1,10.21.13,1.42.01,4.7-.03,3.73.1-.23.03,4.2,0,4.33-.04.27-.07,1.46-.06,3.07-.05h1.19c2.21-.01,4.84-.05,3.93.08-1.11.07-1.08.07.81.1.83.01,1.93.04,2.11.06.63.08-2.71.04-3.24.09-3.37,0-6.94.06-9.8-.08-.73-.04-2.88,0-2.75.02.59.05-4.07.05-.79.12-.14.03-.5.04-1.85.03-4.41-.03-8.83-.1-13.32-.05-.63-.25-5.67-.07-8.59-.09-3.38,0-5.88.08-9.47.05.84-.07,3.4-.16-2.57-.12Zm-14.04-.13l.69-.03c-.31,0-.66,0-.91-.01-.22,0-.34.01-.52.02.26,0,.5.01.73.02Z"/><path d="m295.78,11.86c4.25.22,9.42.59,13.34.75,3.45.29,8.75.54,12.85.81,1.17.07,1.62.09,2.45.14,2.57.12,3.21,0,.39-.19-2.98-.2-3.91-.29-4.66-.38-.78-.09-2.24-.23-5.08-.32-.32-.02-1.49-.08-1.99-.11-4.88-.29-9.58-.57-14.39-.86-11.08-.66-22.15-1.32-33.23-1.98l.02.05c.93.06,1.7.11,1.9.14,1.65.09,3.61.2,4.98.28,3.28.2,7.31.39,9.9.62,1.55.14,12.82.89,15.12,1,.38.02.78.03.72.02-.55-.1,1.58.06,2.55.13,1.16.09,1.88.15,2.88.23.57.05,2.37.14,2.2.15-.11,0-1.14-.04-2.54-.12-2.91-.16-7.02-.42-7.4-.36Z"/><path d="m335.93,1.03c-2.9-.06-6.34-.15-8.25-.1.83.03,1.91.06,2.48.08,2.24.02,4.35.04,5.98.17,1.34.11-.55.09-1.91.1-2.42.02-4.27-.05-6.23-.15-1.22-.06-3.27-.11-4.27-.1-3.42.04-4.94-.07-6.97-.15-1.3-.02-2.95-.03-3.28-.09-.07-.01.53-.03.77-.03,1.71.03,1.76.07,2.51.11l3.66-.12c-2.4-.18-5.54-.13-8.48-.14.08.05-.12.09-2.25.07.04.03-.16.07.15.1.93.1-2.59.05-3.64.09-.29,0-1.01.01-1.23-.02-.44-.06.74-.07,2.06-.08.75,0,.19-.08.22-.12-1.17.03-4.49-.07-4.83.02.43.02,1.61.03.46.05l-.42-.05c-1.69-.04-.66-.12-2.76-.13-.74,0-1.34.06-2.01.09.03.03-.23.05-1.24.06.05,0,.12.02.19.03h1.11c1.85.08,7.65.2-.23.17-.52,0-.75.04-1.12.06,3.4.03,6.95,0,10.03.14.38,0,4.94.01,7.98.02.84-.03,1.87-.02,3.7,0,5.35.06,10.95.24,16.07.27,2.05.16,5.74.15,7.91.34.53.05,1.03.1,1.52.15.25.03.49.06.73.1l.17.04.07.02h.01s-.05-.03-.05-.08c0-.14.04-.12.05-.14h-.01s-.07.03-.07.03l-.17.04c-.99.15-2.08.21-3.39.32-3.57.26-5.14.25-5.22.15l-5.9.22c.27.06-1.35.15-2.53.24,2.71,0,5.52,0-.2.26-.73.03-.25.05.48.04,2.31-.14,5.69-.15,7.64-.28,4.49-.31,3.6-.16,4.2-.12l1.25-.07c.12-.05.79-.1,2.22-.21.08-.03.36-.07.79-.13.22-.03.47-.06.76-.12.07-.02.15-.03.24-.06.02,0,.05-.02.08-.03.02-.03.11-.03.1-.21-.1-.17-.15-.12-.19-.16-.18-.05-.34-.07-.52-.1l.1.07c-1.37-.16-1.15-.14-1.15-.17-2.68-.25-6.73-.36-7.15-.5Z"/><path d="m228.73,8.08c1.53.07,2.62.11,3.42.12,1.7.03,3.79.09.63-.13-4.97-.34-5.2-.21-7.79-.3l-4.75-.27c-2.21-.2-6.48-.31-9.35-.48l-.05-.07c2.75.13,5.94.2,7.99.36,2.59.19,5.28.3,8.32.43,11.94.52,23.93,1.13,35.94,1.84.21.04.19.07-1.3,0l-2.31-.13-1.19-.09c-.36-.03-.72-.05-1.08-.06-7.59-.39-8.65-.41-5.77-.16.09.01.11.01.17.02,6.71.29,8.48.57,15.04.93,2.73.15,6.35.36,7.07.48-1.79-.1-3.8-.16-4.39-.23-1.13-.14-3-.21-4.83-.32-6.51-.39-12.87-.71-19.57-1.04-9.53-.46-19.38-.93-29.14-1.39-1.94-.08-5.04-.2-5.18-.29,1.14,0,2.98.07,5,.2,2.45.15,4.1.21,5.63.23,2.51.14,5.02.29,7.47.35Zm11.96.41s.73.11,2.68.19c1.88.08,4.65.19,4.75.17.21-.05-2.24-.12-3.12-.18-1.72-.08-4.45-.27-4.31-.19Zm5.57.5c1.23.06,3.42.18,3.51.14.05-.02-.75-.09-2.06-.15-1.41-.06-2.78-.12-4.6-.2,1.34.1,2.17.17,3.15.22Zm-7.24-.54l-.72-.04.09.02c.53.02.56.02.63.02Z"/><path d="m151.34,6.23c2.96-.07,5.28-.08,8.62-.09,4.85,0,10.9-.12,16.41-.2,2.76-.04,5.71-.03,8.29-.12l.03-.1c-.61-.04-2.18-.09-.31-.13,5.51-.12,4.77-.29,8.59-.42-2.03.03-3.83.07-5.43.12-.2,0-.38.01-.52.02-.21.05.66.1-1.55.15-1.73.04-2.97.03-3.22-.02h-.29s.26,0,.26,0c2.56,0,2.64-.11,4.76-.13.13,0,.18-.01.16-.02-2.43-.08-5.39.06-8.04.08-3.38.15-6.96.18-10.58.14-1.08-.01-1.79-.04-3,.03-1.86.12-4.56.12-7.16.12-3.71.12-2,.19-1.1.27.24.02,1.02.04-.29.08-1.12.03-1.77,0-2.23-.01l-1.32.02c.7.07-2.83.15-2.1.22Z"/><path d="m123.62.16c-2.35-.05-4.79-.09-8.03-.04-4.04.11-8.33.13-12.9.06-.87.05-2.49.06-3.95.08l-2.43-.02c.29.03.73.09.84.09,4.43-.03,7.41.08,11.68.06,3.11-.02,5.95-.02,6.79.09.03,0,.34,0,.51,0,.58-.01,1.18-.03,1.77-.04-.52-.12,2.62-.11,5.01-.11,7.86.02,15.76-.06,23.74,0,4.81.03,5.07,0,2.78.14-.69.05-1.15.08-1.72.12,4.57-.03,9.88.03,13.57-.1-.86,0-1.7-.02-2.59-.03-1.47,0-3.58.07-4.22,0-.26-.03,2.04-.09,3.51-.12.78,0,2.25,0,3.41-.01.97,0,2.03,0,2.49-.03.61-.04-.4-.06-1.41-.08-1.57-.03-2-.1-4.44-.1-3.09-.07-6.49-.11-10.55-.07-4.64.11-10.07.11-15.53.11.07.03-.17.06-1.16.06-1.74,0-.63-.05-1.01-.07-2.3.1-4.69.23-6.16,0Z"/><path d="m259.49,9.44l-1.19-.09-.54-.03-.54-.03c-7.59-.39-8.65-.41-5.77-.16.09.01.11.01.17.02,6.71.29,8.48.57,15.04.93,2.73.15,6.35.36,7.07.48,1.98.08,5.51.31,6.99.35-1.89-.16-.03-.11.97-.05,2.9.18,1.13.13,1.54.18.08.01,0,.01-.01.02,2.22.19,6.01.35,8.49.54,1.53.07,2.89.15,4.06.25.4-.06,4.51.2,7.42.36,1.39.08,2.43.13,2.54.12.17-.01-1.62-.1-2.2-.15-1.01-.08-1.72-.14-2.88-.23-.97-.07-3.1-.23-2.55-.13.06.01-.34,0-.72-.02-2.29-.11-13.57-.86-15.12-1-2.58-.23-6.62-.42-9.9-.62-1.36-.08-3.33-.19-4.97-.28-1.6-.07-1.67-.1-1.91-.14l-.02-.05-2.35-.14c.21.04.19.07-1.3,0-.29,0-.51,0-.9-.02-1.25-.06-1.25-.08-1.41-.11Z"/><path d="m203.61,5.06l.08.04c.97.07,1.73.14,2.94.2,2.58.13,7.3.1,11.16-.1.48-.03.72-.06,1.31-.08,2.2-.07,2.34-.19.15-.2q-.91,0-1.43.08c-.24.04-.18.09-1.83.11-.51,0-1.07-.03-1.61-.04-3.13.01-2.93-.08-3.63-.14,3.58-.06,7.22-.11,10.91-.17-1.52.14,2.09.1,3.81.12l1.86-.1,3.76-.1c.06,0,.07.02.05.03-2.29.17,1.27.21,1.16.33l-2.27.05s0-.01-.12-.01c-1.61,0-1.31-.13-3.28-.07-2.9.08.34.11-.21.18l-1.35.1c-5.49.1-11.11.21-16.48.21l-2.33.03-.1-.07.49-.02-.65.02-1.46.02c-.75,0-1.8-.02-1.77.04l-2.37.06.33-.02h.36c-1.63-.05-5.67,0-6.82-.11-.54-.05-5.64.12-8.42.21-.46.02-.75.03-1.12.05-.61-.04-2.18-.09-.31-.13,5.51-.12,4.77-.29,8.59-.42,3.68-.09,7.23-.13,10.64-.1Zm15.7.17c.11.02.37.03.57.05.16-.01.44-.03.44-.04,0-.02-.17-.03-.3-.05-.35.02-.75.03-.72.04Z"/><path d="m309.68.7c2.13.02,2.32-.02,2.25-.07l-1.99-.03h-1.54c-3.83-.08-7.53-.15-11.59-.14-1.66,0-4.06-.01-6.04-.06-2.17-.06-6.28-.09-6.97-.08-7.37.07-14.49-.03-21.57-.13-2.6-.03-4.23.01-6.37,0l-32.62-.11c-1.17,0-2.36-.02-3.04.02-.16.12,2.88.14,5.42.11,2.27-.03,3.61-.01,5.31.02.79-.04,2.32-.03,3.65-.03l1.27-.03c2.23.14,6.55.1,10.21.13,1.42.01,4.7-.03,3.73.1-.23.03,4.2,0,4.33-.04.27-.07,1.46-.06,3.07-.05.39-.03.8-.03,1.21,0,2.19-.02,4.82-.05,3.9.08.59,0,1.19,0,1.79.01,1.87-.04,3.81-.08,6.4,0,2.15-.07,4.25-.16,7,.03l3.43.03c.74-.08,3.04-.03,4.9-.02,2.71.01,2.24.07,2.42.12,3.14-.1,6.27-.03,9.41.08.67-.03,1.27-.09,2.01-.09,2.1.02,1.07.09,2.76.13.3-.09,3.62.02,4.79-.02l2.44.03Z"/><path d="m252.48,4.75c1.68.03,3.53.03,6.03-.08-1.42-.03-2.82-.06-1.14-.16,1.33-.08,2.34,0,3.77-.05,1.87.08,2.95-.01,4.19-.09,1.42-.09,2.81-.14,3.77-.06,3.38-.09,2.86-.16,3.46-.24-.5-.07-3.23-.04-4.56-.08-2.25-.03-5.24.01-8.08.1-2.14.06-3.98.1-6.04.12-2.09.08.08.16-3.54.23-2.68.05-2.24-.04-2.66-.08l-2.39.05c.17.05.49.09.46.14-.01.02-.29.03-.7.05-.41.01-.94.02-1.45.04-.89.02-1.57,0-1.05-.02.76-.05,2.85-.12.64-.11-.55,0-2.49.1-3.8.15-.41.02-.63.05-1.47.04l1.5-.04c-.91-.12-3.89-.04-7.01.06-.96.13,3.8.1,3.46.22,5.13-.16,5.08-.07,4.69.04,2.06-.06,3.76-.02,5.88-.09-.31-.11,1.97-.26,5.53-.31,4.93-.07-1.59.13.11.16.24,0,.28.02.41.02Z"/><path d="m8.55,1.9l1.94.03h3.75s1.38.03,1.38.03c-.03,0-.07-.02-.12-.03-.81-.02-1.22-.04-.52-.06.1,0,.44,0,.55,0,1.06.03-.06.04-.07.06,1.96.03,3.4.03,4.31-.01,1.45-.07,3.32-.05,4.82-.01s2.62.1,2.58.11c-.29.12,2.81.15,5.05.22,2.83,0,5.64,0,8.51,0,1.25,0,3.68.05,2.99-.03-.57-.06-3.2-.06-3.86-.09-2.06-.08-5.24.03-6.39-.12-1.57-.03-3.42-.05-3.66-.12-1.32-.02-2.73-.03-3.58-.08-2.9-.05-5.82-.09-8.69-.14-5.66-.05-10.56-.09-16.28-.14l-.03-.07c.23.03.67.06.99.07.35.01.69.03,1.01.04.64.02,1.19.05,1.56.08-.09.04-.14.1-2.3.02l1.02.14,5.05.11Z"/><path d="m327.56,3.1c-.73,0-1.21,0-.48-.04,5.72-.26,2.91-.26.2-.26l-2.21.07.05.1h.28s-.26,0-.26,0c-2,.02-6.35.21-6.02.06-3.32.1-6.34.04-10.04.23-.53.03-2.85.04-2.97-.01l-3.51.06c-1.52.12-5.95.24-5.09.35-.04,0-.76.03-1.17.05-2.6-.15-3.7.13-5.74.13.01.01,0,.02,0,.03,6,.06,7.43-.14,9.54-.3l.46-.02-.49.02c.6,0,1.46-.02,2.16-.02.35,0,.67,0,.9,0,.23,0,.38,0,.39,0,.61.24,4.98-.02,8.53-.12,3.7-.1,7.96-.26,11.22-.24,1.61-.02,1.37.08,4.17-.01l.07-.07Z"/><path d="m137.08,6.14h2.2c5.38-.03,5.3.08,4.74.2,1.77.02,1.68-.05,2.54-.07-1.59-.14,1.04-.31,5.92-.39-1.12-.07-1.21-.15,0-.25-1.24-.07-2.27,0-3.34.04.71,0,.89.03-.07.05-1.32.02-1.1-.02-1.24-.04-2.84-.08-7.03.05-10.05.09-4.95.07-10.36.07-15.05.22l.03.05,3.44-.02c1.08-.08,2.06-.05,3.04-.04l4.09.02c.3-.05.54-.1,2.75-.12,1.49-.01,2.34.01,3.04.04,1.65.07-.6.14-2.05.21Z"/><path d="m33.46,1.99c1.15.15,4.34.04,6.39.12.66.03,3.29.02,3.86.09.69.08-1.73.03-2.99.03-2.87,0-5.68,0-8.51,0l1.03.07,1.38.02c3.83-.05,8.69.08,13,.12,1.03-.02.78-.06.28-.12-.87-.09.45-.1,3.23-.05l.05-.03s.87-.05,2.56-.02c.35,0,.69,0,1.02.01-.34-.04-1.92-.1.13-.09l-.1-.04c-6.8-.13-13.59-.28-20.42-.32,1.09.09,3.11.2-.91.2Z"/><path d="m66.51.32c-1.41.01-1.28-.13-3.79-.01-1.88.09-3.66-.01-5.52.03-.53.13-3.06.12-5.73.09-2.26-.03-4.12,0-5.83.06-1.76.06-2.54.12-.67.16,2.51-.01,4.82.02,7.51-.02,8.39-.14,9.31-.14,16.03-.06.16,0,.48,0,.52,0,3.42-.14,8.63.02,12.12-.11-.33-.06-.37-.12-2.74-.14-.08.04-.64.05-2.25.05-3.41-.01-6.6-.03-9.66-.04Z"/><path d="m33.46,1.99c4.02,0,2.01-.11.91-.2-2.65-.07-4.42-.16-8.22-.11-2.74.04-8.2-.11-12.58-.15-2.94-.04-5.96-.08-8.98-.13l-2.26-.07-.56-.03-.27-.02-.13-.02h-.05s-.01-.01-.01-.01c0,0-.02,0,.01,0,.03.01.07.05.09.09,0,.03.04.08,0,.19-.02.05-.06.08-.09.09h0s0,0,0,0h.05s.13-.03.13-.03l.27-.03.56-.03c1.5-.07,3-.1,4.49-.13,2.61-.04,4.33-.07,4.04-.16-.28-.09-2.39-.05-4.74.03-1.61.06-3.31.06-4.85.24,5.72.05,10.62.09,16.28.14,2.87.05,5.79.09,8.69.14.7,0,1.49-.03,2.09-.02,1.32.02,1.44.06,1.49.1.24.07,2.09.09,3.66.12Z"/><path d="m300.14,3.57c-2.11.16-3.53.36-9.54.3l-4.8.14c-1.27.05-2.6.1-2.27.15,2.25.04,5.19-.08,7.66-.14,9.41-.2,18.81-.36,28.29-.66,2.53-.08,2.88-.12,3.85-.19-3.26-.02-7.53.14-11.22.24-3.55.1-7.92.35-8.53.12-.01,0-.16,0-.39,0-.23,0-.55,0-.9,0-.71,0-1.55.02-2.14.02Z"/><path d="m147.7.6c.57-.04,1.04-.07,1.72-.12,2.3-.13,2.03-.1-2.78-.14-7.97-.06-15.88.02-23.74,0-2.39,0-5.53-.01-5.01.11,4.46.12,9.33.09,14.69.02,3.46-.05,6.1-.02,5.43.11,3.48-.06,6.37.03,9.67.02Z"/><path d="m81.16.45c-3.49.13-8.7-.03-12.12.11-.04,0-.36,0-.52,0-6.73-.07-7.65-.07-16.03.06-2.69.04-5,.01-7.51.02,1.06.1,2.23.2,6.36.23l3.03-.09c1.12-.08,2.83-.08,5.26-.08,2.96-.01,6.55-.02,9.11-.03,5.17,0,9.78-.14,14.71-.09l-1.31-.14c-.33,0-.65,0-.97,0Z"/><path d="m20.63,1.05c1.55-.12,2.81-.24-3.4-.18-2,.02-.74-.04-.59-.07,3.06-.11,6.43-.1,8.61-.08,5.54.06,6.8-.05,7.99-.18l1.14-.02c3.64.03,9.63.02,3.95.24-1.03.04-1,.1-1.46.15-3.14.03-6.28.06-9.41.09-2.03.02-3.55.04-3.76.11l-3.49.03c.13-.03.08-.06.44-.09Zm10-.2c.12,0,.33,0,.63-.01-.17,0-.35,0-.63.01Z"/><path d="m32.38,7.56c-.89-.04-2.9,0-4.68.02-1.78.03-3.35.05-3.34-.03,0-.07,2.52-.19,3.6-.29,1.11-.11,5.93-.19,9.75-.22,1.72,0,3.36-.01,5.08-.02,1.66-.02,3.69.02,4.9-.05,1.29-.08-3.27,0-2.43-.08-5.62-.05-12.62.17-18.45.13-1.84-.01-1.43.09-2.91.12-1.43.06,4.99.04-.28.14-1.77.13-6.4.25-5.7.39,1.09,0,2.51,0,3.22,0,1.76.03,1.73.21,6.22,0,.04,0,1.62.01,2.62.02,2.93,0,5.71-.05,8.17-.14-.84-.13-4.1.05-5.76.03Z"/><path d="m16.69,7.26c-1.46.01-2.51,0-3.27-.03-1.9-.08-5.49-.1-8.3,0-2.51.09-4.79.21-5.06.34-.52.23,2.64.26,9.67.13,1.72-.03,3.86,0,5.8,0,2.13-.11,1.31-.19-1-.22-2.34-.03-4.48.04-6.14.13-.61.03-3.42.11-3.18.03.21-.08-1.41-.12-.38-.2.63-.05.94-.11,2.85-.14,1.98-.03,2.84,0,3.07.05.24.05.53.09,2.73.06,2.13-.03,3.22-.08,3.21-.14Z"/><path d="m83.44.59c-4.93-.05-9.53.08-14.71.09-2.56,0-6.15.02-9.11.03-2.43,0-4.15,0-5.26.08,4.16.15,10.38.02,15.51,0,7.66-.02,15.49-.13,22.95-.05l.62-.05c-1.11-.05-5-.1.93-.14,1.94-.01,3.04-.07-.3-.08-3.52.04-6.1.19-10.63.11Z"/><path d="m335.71,2.35c.08.1,1.65.11,5.22-.15,1.31-.11,2.41-.17,3.39-.32l.17-.04.07-.02h.01s-.05,0-.05.13c0,.06.06.09.05.09h-.01s-.07-.03-.07-.03l-.17-.04c-.24-.04-.48-.07-.73-.1-.5-.05-1-.09-1.52-.15-2.16-.19-5.85-.18-7.91-.34-5.12-.03-10.71-.21-16.07-.27-1.83-.02-2.86-.03-3.7,0,4.92.16,10.25.24,15.99.34,3.66.07,7.38.14,11.36.38.85.06,1.82.1,2.71.26.03,0,.13.06.04-.01-.03-.03-.04-.06-.05-.09-.03-.05-.01-.18.03-.22.02-.04.08-.07.06-.06.01,0-.02,0-.03.01-.09.03-.21.05-.33.06-.24.04-.48.06-.73.09-.5.04-1.01.08-1.52.13-2.05.14-4.19.25-6.21.33Z"/><path d="m103.56,6.27l2.58-.03,3.82.05c.54,0,1.08-.01,1.63-.02,1.77-.05,3.53-.09,5.3-.14-3.12-.14-9.35,0-13.82.04-8.88.13-17.85.25-26.79.38l-2.38.07c4.02.07,8.35.04,13.05-.12,3.8-.08,7.82-.19,9.99-.05l1.73-.02,1.23-.02s-.07-.04-.12-.05c-.12,0-.25-.01-.37-.02h.85s3.31-.06,3.31-.06Z"/><path d="m76.73,2.58c3.4.09,6.79.18,10.22.23,2.72.06,5.32.13,7.33.23,1.83.04,2.75.06,3.66.09,4.35.12,8.58.17,13.2.35,2.4.1,3.69.03,4.4-.01-13.09-.4-26.19-.72-39.29-.95l.48.07Z"/><path d="m16.63.8c3.06-.11,6.43-.1,8.61-.08,5.54.06,6.8-.05,7.99-.18-9.11.05-18.24.06-27.34.37-1.1.03-2,.05-2.84.08-.42.02-.84.03-1.25.05l-.32.02-.17.02-.1.02s-.03,0-.07.02l-.05.02h-.03s-.11.1-.15.18c-.05.19,0,.23.04.3.04.06.15.12.16.12l.07.02c.06.01.07.01.11.02l.18.02.34.02c2.49.11,6.27.18,6.74.07l-5.05-.11c-.69-.03-1.38-.04-2.09-.11l-.14-.02s-.06-.01-.09-.02c-.02-.01-.01.01-.11-.06-.03-.03-.06-.07-.07-.1-.02-.05,0-.17.08-.21.15-.08.16-.05.22-.07l.14-.02.53-.04,1.04-.05,4.15-.11,9.48-.17Z"/><path d="m166.71,5.39c-.12.05.66.14-3.15-.02-2.37-.1-4.41-.15-4-.06,9.76.4,19.52.83,29.66,1.16l-.05-.04-.34-.05c-.19,0-.38-.01-.59-.02-1.7-.05-3.38-.1-3.87-.18-.3-.01-.61-.02-.93-.03l-3.58-.17c-.54.04-1.76,0-3.67-.11-2.11-.09-4.3-.1-6.21-.23-.63-.04.32-.04,1.36-.02l.09-.02-1.15-.1c-2.09-.13-2.29-.06-3.58-.1Z"/><path d="m34.37.53c3.64.03,9.63.02,3.95.24-1.03.04-1,.1-1.46.15,1.74,0,1.16.04,1.27.07l2.33-.03c-.72-.07,2.29-.12,2.37-.19h-1.56c.12,0,.33-.02.34-.02.43,0,.84.01,1.26.02,2.07.03.8.11,1.23.16,2.35.07,4.75.06,7.23-.04-4.13-.03-5.29-.13-6.36-.23-1.87-.05-1.09-.11.67-.16,1.7-.06,3.57-.09,5.83-.06,2.67.03,5.2.04,5.73-.09-6,.03-12.12.06-18.05.1-2.34,0-3.57.04-4.77.1Z"/><path d="m94.06.48c3.34,0,2.24.07.3.08-5.93.04-2.04.09-.93.14,1.02-.07,2.87-.03,4.3-.04-.16-.04.93-.11,1.81-.09,4.33.07,7.4-.07,11.18-.07,2.02-.06,2.12-.01,2.28.03,2.04.05,2.55,0,3.15-.04-.18,0-.49,0-.52,0-.84-.11-3.68-.11-6.79-.09-4.27.02-7.25-.09-11.68-.06-.11,0-.56-.06-.84-.09l-4.63-.05-2.46-.03-.29.1c5.25,0,5.56.1,5.13.22Z"/><path d="m158.03.13c2.44,0,2.87.07,4.44.1,1,.02,2.02.04,1.41.08-.47.03-1.52.03-2.49.03-1.16,0-2.63.01-3.41.01-1.46.03-3.77.09-3.51.12.64.07,2.75,0,4.22,0,.9.01,1.73.02,2.59.03,1.13.05,2.15,0,3.22,0,1.79-.03,3.7-.07,3.17-.12-2.05-.22,3.49-.22,8.46-.24-.61-.05-3.19-.03-3.39-.09-4.07.04-7.94-.03-12.05-.02-2.95,0-2.31.06-2.65.1Z"/><path d="m110.72.51c-3.78,0-6.85.14-11.18.07-.88-.02-1.96.05-1.81.09,7.57-.02,15.1-.05,22.66-.07,3.79,0,7.77,0,11.53.01,2.27,0,4.11-.02,6.11-.03.67-.13-1.98-.16-5.43-.11-5.36.07-10.23.1-14.69-.02-.59.01-1.18.03-1.77.04-.59.04-1.1.09-3.14.04l-2.28-.03Z"/><path d="m16.63.8l-9.48.17-.09.07c1.29-.03,2.43-.04,2.23,0-.2.05-1.51.07-2.69.1-.44.04-.47.08-.5.12,2.36-.08,4.46-.11,4.74-.03,3.03-.01,6.16-.06,9.34-.11.13-.03.08-.06.44-.09,1.55-.12,2.81-.24-3.4-.18-2,.02-.74-.04-.59-.07Z"/><path d="m285.8,4.02l4.8-.14v-.03s-.26,0-.26,0h.25c2.05,0,3.14-.27,5.74-.13.41-.02,1.13-.05,1.17-.05-.86-.11,3.57-.23,5.09-.35-.25-.03-1.33,0-2.28.02-1.25.08-3.26.11-5.03.15-1.31,0-2.13.16-2.83.08-.75-.09-2.91.02-4.13.02-2.08.11-3.03.09-3.74.04-1.24.01-2.72-.03-3.49.08l-.53.06c1.46,0,2.18.04,4.23,0,1.39,0,.86.05.99.08,6.36-.07-.84.14.02.18Z"/><path d="m185.77,5.92c2.01.13,4.34.28,6.26.4,3.92.28,11.28.55,14.42.55-2.93-.13-6.18-.26-4.12-.28-5.62-.27-11.23-.53-16.56-.67Z"/><path d="m285.78,3.84c6.36-.07-.84.14.02.18-1.27.05-2.6.1-2.27.15-3.62.08-7.46.25-10.74.19-.16,0-.21-.01-.15-.02,4.76-.2,5.15-.36,4.88-.51l3.05-.06c1.46,0,2.18.04,4.23,0-.13.04-.17.07.99.08Zm-3.8.19c.77,0,1.49-.04,1.25-.06-.49-.03,1.95-.15-1.71-.08-1.82.05-1.67.08-.35.08.25.02.23.06.81.06Z"/><path d="m320.41.76c1.11.02,2.03.1,3.3.06,2.81-.08,3.07.04,3.98.1.83.03,1.91.06,2.48.08,2.24.02,4.35.04,5.98.17,1.34.11-.55.09-1.91.1-2.42.02-4.27-.05-6.23-.15-1.22-.06-3.27-.11-4.27-.1-3.42.04-4.94-.07-6.97-.15,1.21-.04,2.43-.08,3.65-.12Zm13.3.39s-.42,0-.44,0c-.05,0,.01.02.03.03h.93c-.16,0-.32-.01-.52-.02Z"/><path d="m143.7,4.72c-4.82-.15-9.89-.35-14.23-.38-1.1,0-2.63-.09-3.72-.14-1.96-.09-3.29-.12-4.36-.1,4.07.22,9,.33,13.62.45,5.98.16,11.58.46,17.62.59.88.02,1.95.06,2.35.04-1.22-.11-3.3-.2-5.7-.24-2.89-.04-4.25-.13-5.58-.23Z"/><path d="m16.69,7.26c.01.06-1.08.11-3.21.14-2.2.03-2.49,0-2.73-.06-.23-.05-1.09-.08-3.07-.05-1.91.03-2.21.09-2.85.14-1.03.08.6.13.38.2-.24.09,2.57,0,3.18-.03,1.66-.09,3.81-.16,6.14-.13,2.31.03,3.13.11,1,.22.79.01,1.58.02,2.38-.03-.7-.14,3.93-.26,5.7-.39-1.26-.02-2.41-.04-2.49-.09l-4.43.07Z"/><path d="m297.68.64c-3.14-.11-6.27-.17-9.41-.08-1.84.09-7.5.02-8.51.15l.42.12c2.06.05,3.94.05,5.64.02.27-.02-.5-.05.75-.06l.38.06c.35,0,.72,0,1.13.01,4.87.02,3.89-.18,8.37-.17,1.01,0,1.26-.03,1.24-.06Z"/><path d="m33.25,2.3l-1.03-.07c-2.24-.06-5.34-.1-5.05-.22.05-.02-1.08-.08-2.58-.11s-3.37-.05-4.82.01c-.91.04-2.36.04-4.31.01.09,0,.13.02.16.03l-.09.1c5.84.11,11.62.26,17.72.25Z"/><path d="m89.26,3.34c.47-.08-2.12-.16-4.21-.22-4.53-.14-9.78-.3-13.75-.32-2.75-.02-4.6-.05-7.27-.1-1.62-.03-.72.05-.86.08,5.71.13,11.25.28,17.25.36,2.59.03,5.88.14,8.85.21Z"/><path d="m325.07,2.87l2.21-.07c1.18-.08,2.8-.18,2.53-.24-5.95.14-12.32.38-18.34.43-2.43.02-3.17.17-5.36.25.12.05,2.44.04,2.97.01,3.7-.18,6.72-.13,10.04-.23,2.14-.26,3.95-.07,5.96-.16Z"/><path d="m264.11.42c-.6,0-1.2,0-1.79-.01-1.11.07-1.07.07.81.1.83.01,1.93.04,2.11.06.63.08-2.71.04-3.24.09l2.51.08,3.92.04,7.95-.08c-5.42-.14-5.3-.16,1.14-.25-2.76-.19-4.85-.09-7.01-.03-2.11,0-3.15.18-6.4,0Z"/><path d="m176.12.13c-4.97.02-10.51.02-8.46.24.53.06-1.38.1-3.17.12.56.11,3.08.02,4.59.03,1.09-.11,1.79-.23,7.51-.14.94.01,2.47,0,2.86-.03.41-.04-.77-.06-2.01-.06h-.54s.48,0,.48,0l-1.26-.17Z"/><path d="m272.78,4.36c-.16,0-.21-.01-.15-.02-.53-.04-4.22.06-3.54-.04-.96-.07-2.35-.03-3.77.06-1.24.08-2.31.17-4.19.09-1.43.05-2.44-.02-3.77.05-1.68.1-.29.13,1.14.16,4.83-.08,9.96-.08,14.27-.31Z"/><path d="m201.05,5.57c-1.63-.06-5.67,0-6.82-.11-.54-.05-5.64.12-8.42.21-.46.02-.75.03-1.12.05l-.03.1c4.28.02,8.26-.15,12.49-.16l3.12-.05c.41,0,.66-.02.77-.03Z"/><path d="m165.52,5.11c1.65.15,12.41.67,15.87.77,3.42.1,1.25-.06,1.93-.08-2.17-.07-4.36-.13-6.42-.26-.45-.02-1.96-.09-2.06-.1-2.77,0-6.27-.23-9.32-.33Z"/><path d="m32.38,7.56c1.66.03,4.92-.16,5.76-.03,1.7.04,3.39-.02,5.07-.06,2.81-.13,7.27-.13,10.58-.23-.67-.05-.58-.12-4.12-.02-2.14.06-5.24.09-7.9.13l-1.47.06-.47-.02,1.86-.05c-2.2,0,4.58-.3-3.5-.1-.28.06.78.12-2.41.17-.65.06-3.55.07-3.39.14Z"/><path d="m91.67,3.3c-.07.01.35.05-.68.03,7.23.19,14.84.5,21.11.46l-.17-.05-4.73-.12c-5.17-.11-10.33-.21-15.53-.32Z"/><path d="m53.79,7.25c-3.31.09-7.76.09-10.58.23.38.11,3-.01,4.35-.02,5.17-.02,10.5-.12,15.71-.21-1.06-.18-6.18,0-9.49,0Z"/><path d="m139.34,6.26c-3.72.04-7.92.13-10.41.02-.95-.04-2.32,0-2.55.06-.16.04.13.08-1.44.12-.5.12,2.62.05,4.27.03,3.73-.04,7.5-.08,11.26-.12-.31-.04.64-.1-1.13-.12Z"/><path d="m158.38,5.65c2.6,0,5.3,0,7.16-.12,1.21-.08,1.92-.05,3-.03,3.62.05,7.2,0,10.58-.14-3.37-.06-7.57,0-11.67.07-3.02.05-6.02.09-9.02.14l-.03.08Z"/><path d="m215.42.65c.84-.07,3.4-.16-2.57-.12-3.1.02-4.54-.04-6.13-.11-.8-.03-.28-.11-2.75-.08-2,.02-1.54.08-1.16.13.36.05.55.1.82.15l11.8.03Z"/><path d="m240.55,4.96c.39-.11.45-.2-4.69-.04l-3.59.13-2.27.05c-.96.05-2.31.07-3.61.09l-1.35.1c-.11.07,1.48.02,2.74,0,4.27-.11,8.52-.21,12.78-.32Z"/><path d="m264.5.74l-2.51-.08c-3.37,0-6.94.06-9.8-.08-.73-.04-2.88,0-2.75.02.59.05-4.07.05-.79.12,5.26,0,10.99.15,15.85.03Z"/><path d="m239.39,4.65c1.3-.05,3.24-.15,3.8-.15,2.21,0,.12.07-.64.11-.51.03.16.04,1.05.02.51-.01,1.04-.03,1.45-.04.41-.01.69-.03.7-.05.03-.05-.29-.09-.46-.14-4.31-.02-9.21.09-14.07.2l-.15.09c.06,0,.07.02.04.03l1.3-.02c3.12-.1,6.1-.18,6.98-.06Z"/><path d="m296.44.7c-4.48,0-3.49.19-8.37.17,2.49.1,5.03.2,8.31.09.37-.02.61-.06,1.12-.06,7.88.03,2.08-.09.23-.16-.19.02.02.06-1.39.04l.28-.05c-.07-.01-.13-.02-.19-.03Z"/><path d="m189.36.09c1.04.07,3.06.14,5.14.08,3.97-.12,11.16.08,13.81-.12-6.44-.03-12.75-.01-18.94.03Z"/><path d="m91.68.2l4.63.05,2.42.02c-.01-.08,1.99-.08,3.95-.08,4.57.07,8.86.04,12.9-.06-.39-.03-1.63-.07-2.47-.05-6.92.1-14.7-.01-21.43.13Z"/><path d="m53.69,6.76c.23.11,1.03.19,5.6.03,3.4-.12,7.68,0,10.96-.16-4.94-.1-10.93.06-16.56.13Z"/><path d="m62.06,2.27c1.59.14,4.72.28,8.17.41-.68-.13,1.11-.18,3.47-.22-2.41-.11-4.57-.1-6.8-.12-1.2.07-3.14-.03-4.83-.07Z"/><path d="m105.01,6.74c-4.15-.09-12.8.03-17.99.24,5.13,0,10.28-.12,15.42-.18.13-.07,1.39-.06,2.57-.06Z"/><path d="m344.13,1.63c.18.02.34.04.52.1.05.03.09-.01.19.15.02.17-.07.19-.1.21-.03.01-.06.03-.08.03-.09.03-.16.05-.24.06-.29.06-.54.09-.74.11-.41.05-.64.08-.62.11.51-.04,1-.06,1.56-.18.04,0,.07-.01.12-.03.03-.02.04,0,.09-.05.02-.02.05-.04.07-.07.03-.03.06-.15.04-.22-.02-.08-.1-.17-.14-.19l-.07-.04-.11-.05c.06.03.1,0,.24.12.05.07.1.08.09.25-.05.18-.08.15-.12.2-.06.04-.1.06-.13.07-.13.04-.22.06-.32.07-.2.03-.39.05-.58.07l-.94.05c-1.42.11-2.1.16-2.22.21,1.09-.06,2.14-.11,3.19-.21.27-.03.52-.05.82-.13.04-.01.08-.02.16-.06,0,0,.05-.03.08-.06.03-.04.06-.03.1-.17.01-.06.01-.12,0-.17,0-.03-.02-.05-.04-.08-.03-.05-.08-.1-.12-.12-.14-.08-.21-.08-.28-.11-.15-.03-.28-.05-.41-.07-.53-.07-1.05-.11-1.57-.16-2.09-.15-4.24-.23-6.65-.27.42.14,4.47.25,7.15.5.35.03.7.06,1.05.1Z"/><path d="m131.95.17c5.46,0,10.89,0,15.53-.11-1.83-.06-3.56-.08-6.29-.02-3.47.08-7.77.01-11.6.05l.22.08c.7,0,1.43,0,2.15,0Z"/><path d="m152.49,5.89c-4.88.08-7.51.25-5.92.39l4.77-.05c-.73-.07,2.8-.15,2.1-.22-1.39-.02-.81-.08-.95-.12Z"/><path d="m276.38.7l-7.95.08c4.01.08,7.99.14,11.75.05l-.42-.12-3.38-.02Z"/><path d="m277.51,3.83l3.05-.06.53-.06c-4.45.07-8.98.1-13.1.28,1.33.03,4.06,0,4.56.08.86-.03,1.58-.06,2.31-.08.19-.05.3-.1,2.65-.15Z"/><path d="m158.38,5.65l.03-.08-5.92.07c-1.21.1-1.12.18,0,.25,2.89-.03,2.21.05,2.27.1.46.02,1.11.04,2.23.01,1.31-.03.53-.05.29-.08-.9-.08-2.62-.15,1.1-.27Z"/><path d="m327.56,3.1l-.07.07c4.05-.11,8.49-.16,11.92-.47-.6-.04.28-.2-4.2.12-1.95.13-5.34.15-7.64.28Z"/><path d="m88.94.26l.29-.1c-4.61-.05-8.77.03-13.03.09l2.22.06c2.36.02,2.4.09,2.74.14.32,0,.64,0,.97,0,0-.06.19-.12,1.12-.16.94-.04,2.64-.05,5.68-.03Z"/><path d="m36.86.91c-3.14.03-6.28.06-9.41.09-2.03.02-3.55.04-3.76.11,4.19.04,8.85-.08,13.2-.09,0-.03.02-.07-.03-.1Z"/><path d="m78.42.31l-2.22-.06c-3.39-.03-6.91-.09-9.69.07,3.05.01,6.25.03,9.66.04,1.61,0,2.17,0,2.25-.05Z"/><path d="m252.48,4.75c-.13,0-.17-.02-.41-.02-1.7-.03,4.82-.23-.11-.16-3.56.05-5.84.2-5.53.31,2.08-.02,4.3,0,6.04-.13Z"/><path d="m143.7,4.72c1.33.1,2.69.18,5.58.23,2.4.04,4.47.13,5.7.24.84.02,1.92.06,2.23.04-.69-.06-1.37-.11-2.07-.17-3.71-.12-7.38-.24-11.06-.36l-.37.03Z"/><path d="m202.34,6.59c-2.06.02,1.19.15,4.12.28,2.16.11,3.52.15,4.44.15l-.05-.07c-2.79-.12-5.56-.23-8.51-.35Z"/><path d="m47.63,2.44c-4.3-.04-9.17-.17-13-.12,4.32.14,8.65.11,12.97.19l.02-.07Z"/><path d="m233.48.69c-.63-.25-5.67-.07-8.59-.09.19.05-.66.12,2.9.09,1.77,0,3.79,0,5.69,0Z"/><path d="m247.67,4.35c.42.04-.02.13,2.66.08,3.62-.07,1.45-.15,3.54-.23-2.89-.04-4.14.1-6.2.15Z"/><path d="m116.89,6.14c-1.77.05-3.53.09-5.3.14,3.34-.03,3.55.05,4.02.12.28.04,1.06.06,2.66.04.59,0,1.53-.04,1.71-.05.53-.05-.77-.04-1.79-.05-3.68-.02,2.95-.17-.25-.2-.33,0-.69,0-1.06,0Z"/><path d="m208.72,7.22c-2.36-.07-5.55-.39-7.39-.3q1,.14,7.39.3Z"/><path d="m214.37,5.08c-3.13.01-2.93-.08-3.63-.14-2.45.03-5.14,0-7.13.12l.08.04c1.76,0,4.84-.07,5.13,0,.64.14,3.14.05,5.56-.01Z"/><path d="m221.64,4.78c-1.52.14,2.09.1,3.81.12l1.86-.1,1.46-.17c-2.45.03-4.6.15-7.13.15Z"/><path d="m189.4.5v.1c2.22.03,4.44.06,6.9.03-.02-.05.83-.12-2.49-.12-2.51,0-3.65-.03-3.56-.1-1.1.02-.76.06-.85.09Z"/><path d="m73.69,2.46c-2.36.04-4.15.09-3.47.22,2.43-.03,5.99,0,6.5-.1l-.48-.07-2.56-.05Z"/><path d="m139.34,6.26c1.77.01.82.08,1.13.12l3.56-.03c.56-.13.63-.24-4.74-.2l.05.11Z"/><path d="m129.8.16l-.22-.08c-2.3,0-4.28.03-5.96.07,1.47.23,3.86.1,6.18,0Z"/><path d="m136.87,4.11s-.24.04-.01.06c.65.07-2.76.06.92.18,3.26.11.45-.07.92-.11.14,0,1.22.02,1.87.03-.79-.06-1.51-.13-3.7-.17Z"/><path d="m62.06,2.27c1.69.04,3.63.14,4.83.07l-2.6-.07c-.98-.02-1.82-.04-2.28-.07l-4.83-.06,1.01.05,3.87.07Z"/><path d="m283.21,11.07s.09,0,.01-.02c-.41-.06,1.36,0-1.54-.18-.99-.06-2.85-.1-.97.05l2.49.15Z"/><path d="m42.82.77c-.08.06-3.09.12-2.37.19l3.64-.03c-.43-.05.83-.13-1.27-.16Z"/><path d="m21.12,7.19c.08.05,1.23.07,2.49.09,5.26-.1-1.15-.08.27-.14-.23,0-.53,0-.92,0l-1.58.02c-.33,0-.42.01-.27.02Z"/><path d="m202.73,5.52l-2.37.06c1.05.06,3.94,0,5.73.02l.13-.07-.1-.07c-.64,0-1.13.01-1.61.02-.18.04-.99.04-1.78.04Z"/><path d="m172.73.04c.2.06,2.78.04,3.55.08l1.89-.03-1.52-.05c-1.26-.02-2.56-.03-3.92,0Z"/><path d="m284.59,3.62c.71.05,1.66.07,3.74-.04-1-.01-1.4-.1-3.74.04Z"/><path d="m14.24,1.94h-3.75c-.18.07,1.9.08,3.74.09v-.09Z"/><path d="m295.29,3.47c1.78-.04,3.78-.07,5.03-.15-2.56-.02-3.93.06-5.03.15Z"/><path d="m295.76,11.86c-1.17-.1-2.52-.18-4.06-.25,1.3.09,2.07.21,4.06.25Z"/><path d="m58.18,2.2l-1.01-.05-2.38-.04.1.04c1.07.06,2.17.08,3.29.06Z"/><path d="m187.15,5.29s-.03.01-.16.02c.17,0,.35,0,.55-.01.11-.03.22-.05.33-.08l-.73.07Z"/><path d="m62,2.2c.46.04,1.3.06,2.28.07.03-.06-.75-.08-2.28-.07Z"/><path d="m147.84,5.7c.13.02-.09.07,1.24.04.96-.02.78-.04.07-.05h-1.31Z"/><path d="m206.23,5.53l-.13.07c1.22-.03,2.07-.06,2.46-.1l-2.33.03Z"/><path d="m200.28,5.6l-3.12.05c1.31.03,2.36.01,3.12-.05Z"/><path d="m36.92.91l-.03.1c.79,0,1.2-.01,1.24-.04-.11-.03.47-.07-1.21-.07Z"/><path d="m286.94.86l-.38-.06c-1.25,0-.48.04-.75.06.38,0,.76,0,1.13,0Z"/><path d="m105.01,6.74c-1.18,0-2.44-.01-2.57.06,1.08,0,2.15,0,2.57-.06Z"/><path d="m144.08,4.69c3.69.12,7.35.24,11.06.36,1.29.04,1.85.04,1.96.02l.16-.09c-2.04-.08-2.72-.13-1.98-.15.34-.01.82-.02-.53-.08-.39-.01-1.02-.03-1.55-.04-.52,0-.92-.01-.94-.01.24.14-5.17-.04-7.28-.03-.42.01-.61.02-.91.02Z"/><path d="m221.25,7.73c2.51.14,5.02.29,7.47.35-4.22-.21-.77-.15-3.73-.31l-4.75-.27c.6.09,3.12.26,1.01.23Z"/><path d="m94.27,3.04c-2.01-.11-4.61-.17-7.33-.23.08.04-.3.08.36.12.88.06-2.69.03.55.11,2.24.05,1.8-.01,1.56-.06-.11-.02-.12-.09,1.34,0,2.67.18,2.11,0,3.51.06Z"/><path d="m179.86,5.97l3.58.17c.46-.01,3.53.08.83-.06-2.85-.15-3.82-.14-4.4-.1Z"/><path d="m171.34,5.61c-1.04-.02-2-.03-1.36.02,1.91.13,4.1.14,6.21.23-.18-.09-2.94-.17-4.85-.25Z"/><path d="m107.2,3.62l4.73.12c-.26-.07-1.75-.13-3.64-.18-1.46-.03-.98.02-1.09.05Z"/><path d="m54.77,2.24c-.33,0-.67,0-1.02-.01l-.14.06c1.44.02,3.2.06,3.85.02l-2.69-.07Z"/><path d="m184.36,6.17c.49.09,2.18.13,3.87.18l-.12-.06c-1.27-.04-2.51-.08-3.76-.12Z"/><path d="m161.49,5.02c-.26-.01-.5-.03-.74-.04h-.68c.31.02.67.03.91.04.23,0,.34,0,.52,0Z"/><path d="m97.94,3.12l-2.76-.07c.35.03.6.06,1.07.08,1.34.04,1.32,0,1.69-.01Z"/><path d="m170.28,5.49l1.15.1c1.8.02.39-.04-1.15-.1Z"/><path d="m188.12,6.3c.32.01.72.03,1.03.04.31.01.55.02.54,0,0,0-.46-.03-.7-.04-1.09-.04-.78,0-.88,0Z"/><path d="m157.27,4.99l-.16.09c1.54.02,1.67,0,.16-.09Z"/><path d="m124.82,3.89s.21.02.38.03c-.02-.01-.21-.02-.38-.03Z"/><path d="m51.19,2.24l-.05.03h2.45c-.78,0-1.59-.02-2.4-.03Z"/><path d="m166.67,5.39l-.27-.02c.1,0,.2.02.27.02Z"/><path d="m188.83,6.38l.34.05c1.03.02.82,0-.34-.05Z"/><path d="m137.08,6.14c1.45-.07,3.7-.15,2.05-.21-.71-.03-1.56-.05-3.04-.04-2.2.02-2.45.07-2.75.12,1.15.04,1.71.09.74.17-.45.03-.34.06.96.05,1.57-.01,1.81-.05,2.05-.09Z"/><path d="m35.77,7.43c3.19-.05,2.13-.11,2.41-.17-1.18,0-2.84.05-3.01-.01-.08-.03-1.23-.06-2.28-.04-1.08.03-2.07.08-2.44.12-.63.07,1.44.01,2.09.02,1.27.03,2.18.05,3.24.08Z"/><path d="m96.94,6.45c-2.17-.14-6.19-.03-9.99.05,2.78.06,5.94.07,9.99-.05Z"/><path d="m99.89,6.4l-1.23.02c-.21.01-.34.02-.63.04-2.29.07-3.81.14-1.45.18.62.01,2.31.01,2.02-.02-.68-.07,6.84-.2,1.29-.23Z"/><path d="m126.2,6.03l-3.44.02s-2.9.15.15.14c2.26,0,3.83-.09,3.29-.16Z"/><path d="m109.96,6.29l-3.82-.05c.09.04-1.97.11-.21.12,1.39.01,2.9-.02,4.04-.07Z"/><path d="m43.1,7.16c.7,0,1.11,0,1.52.01.44-.01.87-.03,1.3-.04-.37,0-.7-.01-1.11-.02-.42.01-.91.02-1.71.04Z"/><path d="m103.56,6.27l-3.31.07c-.15,0-.31.01-.48.02l.15.03c1.48-.03,3.67-.04,3.63-.12Z"/><path d="m129.24,5.99c-.98-.02-1.96-.04-2.96.03l2.96-.03Z"/><path d="m50.29,6.9c.34,0,.51,0,.67,0-.12,0-.25,0-.67,0Z"/><path d="m234.59.21c-1.33,0-2.85-.01-3.65.03-.59.1-4.61.02-6.21.08-.6.02-2.64-.09-3.53-.01-.55.04,1.44.09,2.67.13,1.25.04,2.24.05,3.97.02,2.18-.04,4.71-.07,6.66.04,1.17.07,3.28.03,4.52,0,2.17-.04.41-.07-.85-.1-2-.05-3.97-.11-3.59-.19Z"/><path d="m189.4.5c.09-.03-.25-.07.85-.09.27-.04,3.2-.05,1.76-.11-.51-.02-1.67-.05-2.43-.04-2.55,0-.86.07-1.42.11-.31.02-.55.04-1.01.06-.92.03-3.6.05-2.59.09,1.16.05,3.09-.03,4.84-.01Z"/><path d="m198.08.38c.26,0,.5.01.73.02l.69-.03c-.31,0-.66,0-.91-.01-.22,0-.34.01-.52.02Z"/><path d="m257.21.32h1.19c-.39,0-.8,0-1.19,0Z"/><path d="m265.47,9.77c.24.03.31.06,1.91.14-.21-.03-.98-.08-1.91-.14Z"/><path d="m309.68.7l-2.44-.03s.53.11-.22.12c-1.32.02-2.5.02-2.06.08.22.03.94.02,1.23.02,1.05-.03,4.57.02,3.64-.09-.31-.03-.11-.07-.15-.1Z"/><path d="m316.75.89c-.75-.04-.8-.09-2.51-.11-.24,0-.84.01-.77.03.33.06,1.98.07,3.28.09Z"/><path d="m344.13,1.63c-.35-.05-.7-.08-1.05-.1,0,.04-.23.02,1.15.17l-.1-.07Z"/><path d="m296.62.74l-.28.05c1.41.01,1.2-.02,1.39-.04h-1.11Z"/><path d="m302.45.69l.42.05c1.15-.01-.03-.03-.42-.05Z"/><path d="m224.99,7.77c2.97.16-.48.1,3.73.31,1.53.07,2.62.11,3.43.12,1.7.03,3.79.09.63-.13-4.97-.34-5.2-.21-7.79-.3Z"/><path d="m245,8.67c-1.72-.08-4.45-.27-4.31-.19.05.03.73.11,2.68.19,1.88.08,4.65.19,4.75.17.21-.05-2.24-.12-3.12-.18Z"/><path d="m243.11,8.77c1.34.1,2.17.17,3.15.22,1.23.06,3.42.18,3.51.14.05-.02-.75-.09-2.06-.15-1.41-.06-2.78-.12-4.6-.2Z"/><path d="m259.49,9.44c.16.03.17.05,1.41.11.39.02.6.01.9.02l-2.31-.13Z"/><path d="m238.39,8.43c.39.01.15,0-.09-.02l.09.02Z"/><path d="m257.22,9.3l.54.03.54.03c-.36-.03-.72-.05-1.08-.06Z"/><path d="m182.25,5.43c.25.05,1.49.06,3.22.02,2.2-.05,1.33-.1,1.55-.15-2.15.02-2.23.13-4.76.13Z"/><path d="m154.76,5.99c-.06-.05.62-.13-2.31-.1.18.04-.4.1.99.12l1.32-.02Z"/><path d="m182.23,5.43h-.26c.09,0,.19,0,.26,0Z"/><path d="m131.95.17h-2.17c.38.02-.73.06,1.01.06.99,0,1.23-.04,1.16-.06Z"/><path d="m102.68.18c-1.95,0-3.96,0-3.95.08,1.46-.02,3.08-.04,3.95-.08Z"/><path d="m214.37,5.08c-2.42.06-4.92.16-5.56.01-.29-.06-3.37,0-5.13,0,.97.07,1.73.14,2.94.2,2.58.13,7.3.1,11.16-.1.48-.03.72-.06,1.31-.08,2.2-.07,2.34-.19.15-.2q-.91,0-1.43.08c-.24.04-.18.09-1.83.11-.51,0-1.07-.03-1.61-.04Z"/><path d="m232.41,4.7l-1.3.02c-2.29.17,1.27.21,1.16.33l3.59-.13c.34-.11-4.41-.08-3.46-.22Z"/><path d="m226.39,5.19c1.3-.02,2.65-.04,3.61-.09-.04,0,0-.01-.12-.01-1.61,0-1.31-.13-3.28-.07-2.9.08.34.11-.21.18Z"/><path d="m220.03,5.2c-.35.02-.75.03-.72.04.11.02.37.03.57.05.16-.01.44-.03.44-.04,0-.02-.17-.03-.3-.05Z"/><path d="m202.73,5.52c.79,0,1.6,0,1.78-.04-.75,0-1.81-.02-1.78.04Z"/><path d="m206.13,5.46l.49-.02c-.22,0-.43.01-.49.02Z"/><path d="m276.38.7l3.38.02c1.01-.12,6.67-.06,8.51-.15-.18-.05.29-.1-2.42-.12,1.15.07-.82.09-2.07.1-1.53.01-2.25-.04-2.82-.08l-3.43-.03c-6.44.09-6.56.12-1.14.25Z"/><path d="m280.95.47c.57.04,1.3.09,2.82.08,1.25-.01,3.22-.03,2.07-.1-1.85-.01-4.15-.05-4.9.02Z"/><path d="m264.11.42c3.25.18,4.29,0,6.4,0-2.6-.08-4.53-.04-6.4,0Z"/><path d="m257.19.33h1.23c-.41-.03-.82-.03-1.23,0Z"/><path d="m277.51,3.83c-2.35.04-2.46.1-2.65.15.36.06-.87.07-2.18.08-.73.08-.21.16-3.59.24-.69.1,3.01,0,3.54.04,4.76-.2,5.15-.36,4.88-.51Z"/><path d="m239.42,4.65l-1.5.04c.84.02,1.06-.02,1.5-.04Z"/><path d="m6.19,1.16c.57-.04.72-.08.88-.12-1.2.03-2.4.07-3.6.1-.6.02-1.2.05-1.8.09-.16.02-.29.02-.47.06l-.04.02c-.06.01-.09.16-.05.16.08.09.1.06.12.07.05.01.08.01.12.02l.23.02.9.05c2.16.07,2.21.01,2.3-.02-.64-.02-1.36-.04-2.01-.06-.32-.02-.63-.04-.91-.05-.25-.01-.57-.07-.64-.08,1.63-.21,3.31-.2,4.97-.28Z"/><path d="m2.48,1.66l-.9-.05-.23-.02s-.07,0-.12-.02c-.02-.01-.04.02-.12-.07-.04,0,0-.15.05-.16l.04-.02c.18-.04.31-.05.47-.06.6-.05,1.2-.07,1.8-.1l3.59-.1.09-.07-4.15.11-1.04.05-.53.04-.14.02c-.06.02-.07,0-.22.07-.07.04-.09.17-.08.21.01.03.04.07.07.1.09.07.09.05.11.06.03,0,.07.02.09.02l.14.02c.71.07,1.39.08,2.09.11l-1.02-.14Z"/><path d="m6.19,1.16c-1.66.07-3.34.07-4.97.28l.03.07c1.53-.18,3.23-.18,4.85-.24l.09-.11Z"/><path d="m29.8,1.87s-.17-.07-1.49-.1c-.6-.01-1.39.01-2.09.02.85.05,2.26.06,3.58.08Z"/><path d="m1.23,1.44c.07,0,.39.07.64.08.28.02.58.03.91.05.65.02,1.36.04,2.01.06-.37-.03-.92-.06-1.56-.08-.32-.01-.66-.03-1.01-.04-.32-.01-.76-.05-.99-.07Z"/><path d="m15.46,1.92s1.13-.02.07-.06c-.11,0-.45,0-.55,0-.69.02-.29.04.48.06Z"/><path d="m325.07,2.87c-2.01.08-3.82-.1-5.96.16-.33.15,4.02-.04,6.02-.06-.03-.03-.05-.06-.06-.1Z"/><path d="m300.11,3.57l.49-.02c-.15,0-.3.01-.49.02Z"/><path d="m325.13,2.97h.26c-.09,0-.18,0-.26,0Z"/><path d="m51.19,2.24l2.42.04.14-.06c-1.7-.04-2.52-.03-2.56.02Z"/><path d="m88.94.26c-3.04-.02-4.74,0-5.68.03-.94.04-1.12.1-1.12.16l1.31.14c4.53.08,7.1-.07,10.63-.11.43-.12.13-.22-5.13-.22Z"/><path d="m31.26.84h-.52s.22.01.52,0Z"/><path d="m100.25,6.33h-.85c.13,0,.25.01.37.02.16,0,.32-.01.48-.02Z"/><path d="m42.86.77c-.42,0-.83-.01-1.26-.02,0,0-.22,0-.34.01.52,0,1.04,0,1.6,0Z"/><path d="m110.72.51l2.28.03c-.16-.04-.27-.09-2.28-.03Z"/><path d="m7.07,1.05c-.16.04-.31.07-.47.11,1.18-.03,2.49-.05,2.69-.1.2-.05-.94-.04-2.22,0Z"/><path d="m284.79,3.76c-.13.04-.17.07.99.08-.13-.03.41-.08-.99-.08Z"/><path d="m290.6,3.84h-.25c.09,0,.17,0,.25,0Z"/><path d="m281.17,3.97c.25.02.23.06.81.06.77,0,1.49-.04,1.25-.06-.49-.03,1.95-.15-1.72-.08-.12.03-.23.05-.35.08Z"/><path d="m281.17,3.97c.11-.03.23-.05.35-.08-1.82.05-1.67.08-.35.08Z"/><path d="m334.22,1.18c-.17-.01-.32-.02-.52-.03-.02,0-.42,0-.44,0-.05,0,.01.02.03.03h.93Z"/><path d="m177.38.3h-.48c.18,0,.36,0,.48,0Z"/><path d="m41.68,7.35l-1.86.05.47.02c.49-.02.98-.05,1.39-.06Z"/><path d="m343.81,2.38c.19-.02.38-.04.58-.07.1-.02.19-.03.32-.07.03-.01.07-.02.13-.07.05-.06.08-.02.12-.2,0-.18-.04-.18-.09-.25-.15-.11-.18-.1-.24-.12l.11.05.07.04s.12.1.14.19c.02.07-.01.18-.04.22-.02.02-.04.05-.07.07-.05.04-.06.03-.09.05-.05.02-.08.02-.12.03-.29.08-.55.12-.82.16Z"/><path d="m344.63,2.22c-.55.12-1.04.14-1.56.18.11.01.42,0,.74-.02.27-.04.53-.07.82-.16Z"/><path d="m272.69,4.05c1.31,0,2.53-.02,2.18-.08l-2.18.08Z"/>
                  </g>
                </mask>
              </defs>
              <path class="mask" d="m0,7.7c53.18-.3,127.7-.96,217.03-2.59,75.21-1.37,127.94-2.32,127.68-3.2C344.04-.3.89.17,1.2,1.43c.17.71,106.23-.12,260.19,8.17,25.84,1.39,48.03,2.77,65.27,3.91"
                    mask="url(#path-mask)" stroke="black" stroke-width="2" fill="none"
                    stroke-dasharray="1014.1278686523438" stroke-dashoffset="1014.1278686523438">
              </path>
            </svg>
        