
            <svg xmlns="http://www.w3.org/2000/svg">
              <defs>
                <mask id="path-mask">
                  <g fill="white">
                    <path d="m259.77,1.7c1.02-.15.37-.45.57-.68l.74.1c.6.21,1.31.35,1.88.61,1.18.53,3.38.29,4.31-.35.65.05,1.05-.06,1.32-.25.86.17,2.13-.23,2.8.2.19.28.94.54.31.86-.45.21-.95.32-1.68.14-.61-.15-1.16-.12-1.5.14h-.57c-.7.16-1.67-.66-2.21.09-.22,0-.64-.03-.64-.03-.55.65-1.86.37-2.98.31l-.02-.17c.31-.08.24-.12-.1-.14-.06.01-.11.01-.18.01l-.04-.25c.19-.02.47.01.47-.1,0-.02-.14-.07-.21-.07-.33,0-.23.1-.27.16l-1.12.13c-.09,0-.18.01-.28.01.14-.14,1.05-.27.24-.42-.86-.16-1.14.08-1.31.31-.16.24-.52.29-1.1.14-.06-.35-.88-.22-1.45-.26l.03-.11c.54-.19.11-.22-.35-.24-.63-.23-.68.12-1.08.13l-.08-.05.09.04c-.03.2.2.46-.94.38-.71-.05-1.32.03-1.19.35l-.7.04-.62-.4c.38-.01.55-.09.58-.21.46-.12.5-.24.04-.37-.61-.02-.81-.12-.6-.32.1-.09.24-.21-.16-.23-.24-.01-.75.08-.74.12.08.52-1.54.55-2.17.85-.13.06-.18.14-.27.21l-.11.15c-1.44.03-2.96-.13-4.26.27-.33.1-.79-.02-1.11-.09-.59-.13-.99-.07-1.3.12l-2.78-.2-.05-.16c-.08-.22-.53-.32-1.09-.29-.44.02-.29.19-.32.3-1.54.09-3.09.19-4.71.24l.06.05c-.02.06.11.14-.2.16-.09.09-.12.19-.52.18.14-.33-.64-.41-1.27-.46-1.36-.12-2.93-.3-4.12-.1-.82.14-1.37.16-2.17.15-.48,0-.21.22-.25.35l-4.66.05v-.24c.31-.14.24-.28.08-.43-.26-.27.13-.4.96-.39l.73-.13c.44-.02.97.03,1.16-.18l-.81-.07c-.1-.12-.58-.24.04-.35.32.13.65.15.98,0h1.16c.48.4,1.42.67,2.45.92.73-.27,1.79-.46,1.94-.87,1.02.05,2.03.13,3.06,0,.03.14-.09.31.11.4.27.13-.8.34.17.35.67,0,.54-.2.46-.36-.03-.07-.04-.33.4-.09.8.45.63-.18,1.32-.1.11.06.18.18.32.18.4.02.39-.11.5-.2,1.3.03,2.56-.19,3.95.01.72.11,1.1-.27,1.31-.51l6.38-.02c0,.08-.07.17,0,.24.2.2-.82.58.28.59.98,0,.13-.34.27-.53.04-.05.36-.08.56-.12,1.8-.29,3.74-.26,5.6-.26.54,0,1.42-.33,1.86.06.5.36,3.72.8,4.76.65Zm-6.18-.47l-.2.12c.09.01.2.04.27.03.07,0,.1-.05.15-.09-.08-.02-.15-.04-.22-.06Zm-10.6.47s-.1-.01-.15-.02c0,.05.06.05.15.02Z"/><path d="m26.02,3.15c-2.38.13-4.73-.1-7.1-.13-.31-.67-1.85-.3-2.83-.39-.2-.2-.17-.44-1.23-.25-.64.12-1.57.06-2.39.08-.66-.09,1.38-.82-1.04-.48-.35-.02-.85.06-.9-.17-.02-.12-.37-.26-.68-.22-.32.04-.62.18-.73.3-.19.2.43.11.62.16.38.11.65.27.97.4-.19.16-1.06.07-1.02.32-.53-.36-2.4.12-2.4-.38,0-.25.76-.53,1.09-.83.34-.31,1.78-.37,2.92-.32.52.03,1,.14,1.52.15.5.02,1.1.22,1.46.03.39-.2-.98-.12-.72-.36.79-.17,1.61-.24,2.53-.09.07.39.3.68,1.67.35,1.02-.25,2.3.3,3.28-.09h.38s.71.12.71.12c1.2.42,2.49.5,3.9.14.83.32,1.77.48,2.99.26h.52c-.06.03-.1.07-.19.09-.68.14-1.14.3-.44.57.18.07.69.15.6.03-.2-.28,2.05-.37.4-.76.44-.04,1.1.02,1.09-.25h.77c.03.16-.59.3-.07.43.42.1.87.04,1.21-.08l.49.02c1,.05,1.06.31,1.2.57.08.15.32.26.79.26.18,0,.46-.06.51-.11.16-.15-.23-.19-.53-.25-1.1-.22.89-.47-.07-.69.24-.24.86-.22,1.43-.22v.17c0,.16-.86.39.05.48.67.07,1.15-.14,1.01-.41h.88s1.22.25,1.22.25c.34.19.51.39.22.61-.13.1-.1.2.29.22.47.02.54-.1.61-.22l.66.12v.37c-1.1-.04-2.36.11-3.1-.37-.28-.18-.69-.08-.76.1-.05.13.04.28-.43.36-1.93.32-3.92.34-5.96.09-1.24-.48-3.83-.46-5.38.04Zm-12.67-1.19c.13,0,.26-.05.39-.08-.11-.04-.21-.1-.33-.1-.13,0-.27.04-.51.08.21.05.33.1.45.1Z"/><path d="m142.56,2c.93-.1,1.36.13,1.83.33.24.1.08.39.82.28.6-.09.46-.29.35-.47-.11-.17-.17-.35-.25-.52l2.19-.06c0,.18-.25.43.75.4.75-.02,1.09.09,1.07.34-.08.14-.96.17-.52.38.15.07.5.15.73.14.76-.03.26-.25.42-.38.09-.07.16-.15.3-.21.27-.11,1.08-.18.77-.33-.35-.17-.92.1-1.45.07v-.34c2.07-.09,4.09.01,6.08.21-.32.38-.53.81-2.24.5-.28-.05-.74-.03-.85.12-.12.16.23.2.62.23.13.19.25.39.33.6l-.56.1.46.16c-1.35.24-2.61.18-3.8-.12-.31-.23-.92-.5-1.54-.27-1.19.44-3.34-.23-4.13.48-1.16-.18-2.38-.05-3.56-.07.05-.42-.86-.48-1.62-.36-.68.11-1.08.07-1.59-.04.18-.37,1.38-.11,1.86-.34.18-.09.79.28,1.06.01.16-.16-.43-.31-.8-.44-.37-.13-.67-.16-1.19-.02-.65.17-1.41.29-1.99-.09-.35-.23-.98-.06-1.35.03-.65.15-.12.25.25.35.6.16,1.19.34,1.07.64l-.38.11c-.67-.47-1.96-.29-3.05-.34-.43-.02-1.41.15-1.12-.3.07-.11-1.26.07-1.3.19-.08.25-.44.23-.92.23h-.35c-.66.09-1.45.27-1.18-.21.33-.27.32-.26-.24-.35-.25-.04-.58-.1-.63-.18-.19-.26.81-.18.97-.36,1.01-.05,2.08-.32,2.93.13.22.12.86-.06.82-.09-.18-.17,1.22-.24.24-.43.04-.12.15-.14.55-.12,1.32.06,2.64.25,3.98.03.19.89,1.7.18,2.57.24,1.01,0,1.76-.33,2.83-.25-.25.24-1.02.59.77.4Zm4.2.39l-.21.11c.09.01.2.04.27.03.07,0,.1-.05.15-.08-.08-.02-.15-.04-.22-.06Z"/><path d="m294.04,2.39c1.27-.21,2.82.13,3.99-.28,1.04.5,2.62.07,3.86.21.35.04.48.02.73-.05.77-.2.94-1.21.09-1.33-.89-.12-1.18-.31-1.41-.59-.24-.29-.68-.58-1.53-.09-.09.05-.44.11-.59.1-1.46-.17-2.87.09-4.31.11-3.32.04-6.63.15-9.95.24v.27c.29,0,.52,0,.58.12.49-.06,1.08-.13,1.49-.13.98-.02,2.19-.29,2.97.09.47.22,3.85.61,4.54.46.11-.03.23-.1.21-.14-.17-.37.47-.2.76-.12.35.09.57.24.87.35.17.06.71-.04.66.1-.03.09-.34.17-.76.21-.87.07-2.1,0-2.21.49Z"/><path d="m105.75,3.63c.87-.08,1.9-.02,2.47-.34-.25-.04-.57-.13-.74-.11-.67.09-1.3.23-1.79-.08-.4-.25.16-.39.57-.56.72-.3,1.28-.16,1.86.05.37.13.98.18,1.28.08,1.02-.35,1.48-.02,2.08.16.39.02.88-.03.98.16.02.04-.16.13-.23.13-.51-.01-.53-.18-.75-.29l-1.09.62c.72.5,1.66.18,2.54.08-.02-.17.03-.32.67-.35-.01-.12.05-.24-.04-.35-.28-.33.77-.28,1.09-.44.09-.04.3-.08.37,0,.13.18-.22.26-.62.36-.22.06-.06.28-.07.43.35-.17,1.34.1,1.44-.24-.13-.04-.48-.07-.14-.16l.13.16c.51.08.2.39.83.38.22,0,.4-.24.6-.38,0-.1.07-.19.37-.24-.02-.04-.03-.07-.06-.11h-.33c-.55-.2-2.29-.41.07-.57.15-.01.23-.16.34-.24-1.02,0-2.08.19-3-.18-.11-.04-1.48.25-2.39.27-.25.15-.56.17-1.11.19-1.6.05-3.28-.27-4.81.09-.61-.37-1.72.05-2.37-.16-.63-.2-1.15-.26-1.94-.08-1.07.25-1.54.06-1.56-.32l-1.77.04c.08.24-.41.39-.76.56.81.31,1.65.62-.06.91-.22.04-.08.14.14.19.69-.24,1.7.1,2.29-.1,1.35-.47,1.08,0,1.26.22h.37c.04-.14.24-.22.67-.22.05-.18.34-.24.75-.25l-.03-.2c.41.02.34.12.34.21.8.2,2.01.24,2.14.68Z"/><path d="m273.95,2.16c.46,0,.78-.09,1.02-.21.51-.25,1.13-.49.18-.77-1.5-.44-1.55.24-2.33.36l-1.42-.2c-.67-.43-1.94-.04-2.8-.2l-.02-.31c.82.03,1.77-.33,2.39-.06.78.33,1.59.24,2.49.16,3.57-.31,7.16-.31,10.76-.21.07.15.06.29-.38.38h-.69s-.36-.12-.36-.12c-.11-.06-.22-.07-.32,0-2.27.09-2.59.23-1.72.75.03.02.03.04.05.05,2-.35,2.55.7,4.51.48.82-.09,1.9-.13,2.12.32-.54.01-1.13.38-1.31.19-.34-.36-.9-.17-1.45-.17-1.95,0-3.86-.03-5.86.05-2.85.12-5.8-.02-8.72.07-.58.02-1.51.13-1.55-.25.34-.26.89-.29,1.5-.14.73.18,1.23.08,1.68-.14.75.11,1.51.25,2.24-.04Zm3.57-.88c.02.13.23.36.81.29.56-.08,1.39-.26,1.42-.4.06-.29-.67,0-.94-.06-.51.04-1.34-.21-1.29.18Zm1.68,1.07c.37,0,1.03,0,1.05-.23.01-.13-.23-.25-.62-.23-.42.01-.83.09-1.37.15.4.14.65.3.95.31Zm-2.18-.84h-.22s.03.04.03.04c.16,0,.17-.02.19-.04Z"/><path d="m45.25,3.33c.89-.1,1.58-.06,2.58.06,1.45.18,3.26.06,4.91.03.83-.02,1.71.14,2.48-.06v-.35c-.17-.16-.64-.41-.08-.47,1.65-.17,1.43-.8,2.58-1.07-.61,0-1.15.08-1.62.2-.06,0-.11.01-.16.03-.06.16.19.37-.47.44-.52.06-.89-.01-.96-.21l-.09-.05.08.05c.76.12.79-.26,1.42-.23.04-.02.06-.04.05-.06-.72-.37-1.61-.01-2.4-.07-1.01.36-2.08.34-3.16.02-.32-.09-.53-.22-.9-.01-.56.33-1.36.21-2.14.09-1.11.25-.6.58-.33.89.07.08.3.2-.09.25-.33.04-.53-.04-.67-.14h-.4c.21.27-.85.39-.63.66Z"/><path d="m169.25,3.27c.7.2,1.44.36,2.4.19,1.21-.35,2.49-.41,3.86-.12.26-.16.74-.19,1.18-.26l.73.1c-.09-.11-.22-.32-.25-.32-1.33.08-2.22-.36-3.49-.32-.93.03-1.78.01-2.03-.37,0-.01-.1-.02-.15-.02l-.53.13c.16.43-.78.39-1.5.35-2.35-.11-4.71.13-7.1-.09-1.44-.13-1.52-.02-.83-.48.21-.14.34-.29.51-.44-1.37.09-2.96-.14-4.06.33.26.04.51.09.78.1.44.02,1.07-.24,1.26.02.08.11-.61.31-1.05.43-.23.06-.67.04-1.02.05-.29,0-.61,0-.75.11-.18.14.12.21.42.28.47.1.6.35,1.33.34.92.25,1.94.39,3.16.26,1.39-.37,3.01-.37,4.64-.35-.02-.1.05-.23.35-.22.52,0,.19.17.3.26.69-.35,1.4-.78,1.84.04Z"/><path d="m283.14,1.09l-.36-.12h-.16s-.16,0-.16,0c-2.27.09-2.59.23-1.72.75.03.02.03.04.05.05,2-.35,2.55.7,4.51.48.82-.09,1.9-.13,2.12.32.59-.2,1.65-.1,2.09-.39-.57-.24-.02-.61.28-.61.87,0,.34.32.47.5.03.04,0,.08,0,.12.67.34,1.8-.06,2.55.15.46-.12.86-.12,1.22.04.11-.49,1.34-.41,2.21-.49.42-.04.73-.12.76-.21.05-.14-.49-.03-.66-.1-.3-.11-.52-.26-.87-.35-.29-.08-.93-.25-.76.12.02.04-.1.11-.21.14-.68.15-4.07-.23-4.54-.46-.78-.37-1.98-.1-2.97-.09-.41,0-1,.07-1.49.13-.48.12-.5-.01-.57-.12v-.27s-.71,0-.71,0c.07.15.06.29-.38.38-.09.06-.15.16-.27.17-.37.03-.38-.09-.43-.17Z"/><path d="m60.9,1.56l.02.14c.29.27.51.56.87.82.77.56,2.18.63,3.34.16.14-.06.22-.15.39-.18.66-.11.7-.52.05-.68q-.27-.07-.43.2c-.07.12-.05.29-.55.29-.15,0-.32-.14-.48-.22-.93-.1-.87-.39-1.08-.63,1.07-.15,2.16-.13,3.26-.04-.46.38.62.48,1.13.68l.56-.23,1.12-.11s.02.06.01.1c-.69.43.38.81.34,1.22h-.68s0-.04-.04-.05c-.48-.13-.39-.54-.98-.47-.87.1.1.4-.07.61l-.41.27c-1.64-.05-3.32.06-4.93-.15h-.7s-.03-.24-.03-.24l.15-.06-.19.05h-.44c-.22-.02-.54-.13-.53.07l-.71.12.1-.04.11.04c-.49-.27-1.69-.24-2.04-.68-.16-.21-1.69.18-2.52.35-.14.03-.23.08-.34.13-.18-.16-.65-.41-.09-.47,1.65-.17,1.43-.8,2.58-1.07,1.1-.15,2.16-.13,3.18.09Zm4.69,1.32c.03.07.11.13.17.2.05-.03.13-.07.13-.1,0-.05-.05-.11-.09-.18-.1.04-.22.07-.21.09Z"/><path d="m113.6,3.17c-.64.03-.69.18-.67.35l.6.04.46-.02c1.15.08,2.25.2,3.47.04.5-.07,1.21-.08,1.81.05.65.14,1.88.15,2.09.11,2.2-.41,4.34-.2,6.45.01.78.08,1.27-.11,1.9-.11h9.75c.35,0,.71.05.91-.09.05-.42-.86-.48-1.62-.36-.68.11-1.08.07-1.59-.04-.24.16-.69.12-1.09.14l-.38.11c-.67-.47-1.96-.29-3.05-.34-.43-.02-1.41.15-1.12-.3.07-.11-1.26.07-1.3.19-.08.25-.44.23-.92.23-.12.11-.24.11-.36,0-.65.1-1.44.27-1.17-.21h-.54c-.56.18-1.14.33-1.91.11-.64.28-1.27.65-2.09.05l-1.03-.02c-.22.29-.91.19-1.46.2-.81.02-.67-.19-.72-.35-.94.42-1.88.29-2.81,0-.2.13-.38.37-.6.38-.63.01-.32-.3-.83-.38-.09.34-1.08.07-1.43.24h-.73Z"/><path d="m75.51,3.33c.5.22,1.05.34,1.8.12-.43-.2-.84-.41-.34-.64.4-.18.7.14,1.13.06.56.39.88.16,1.25-.04.43-.23.84-.28,1.13.04,1.01-.07.86-.37,1.04-.6-.15-.27-.97-.37-1.36-.58-.67-.25-1.56-.31-2.42-.2-.64.08-1.19.09-1.81.03-.63.15.02.58-1.06.59-.8,0-.67-.28-.79-.46l-.71.03c.05.17.15.35.13.52,0,.11-.34.16-.64.15-.27,0-.47-.07-.31-.15.23-.12.85-.23.19-.36-.17-.03-.75.19-1.14.29-.12.04-.19.15-.44.04l.45-.04c-.27-.49-1.16-.39-2.1-.26-.29.4,1.13.6,1.03.98,1.54-.22,1.52.1,1.4.46.62-.06,1.12.19,1.76.08-.09-.41.59-.77,1.66-.72,1.47.07-.48.36.03.56.07.03.08.07.12.11Z"/><path d="m208.07,2.91h.58s1.12-.14,1.12-.14l.41-.02-.04-.1c-.24-.04-.36-.1-.16-.19.03-.01.13-.02.16-.01.32.07-.02.14-.02.2.59.02,1.02-.05,1.29-.24.86-.6,2.24-.12,2.21.02-.08.45.84.42,1.51.53.85-.16,1.68-.31,2.54-.47.37-.06,1.1-.02.89-.26-.17-.2-.96-.05-1.16-.11-.62-.19-1.56.39-1.91-.1-.47-.03-1.02-.02-1.1-.25-.4,0-.82.03-1.07-.11-.87-.03-1.74-.06-2.6-.1-1.7-.09-3.17.4-4.89.24v.28c.42-.01.86-.04,1.08.13-.03.16-.04.32-.69.33l.31.35h1.51Z"/><path d="m97.96,3.29c-.22-.05-.36-.15-.14-.19,1.71-.29.87-.6.07-.91l-.66.03v.35s.09.05.09.05l-.08-.05c-.6-.12-1.9.14-1.8-.37-.99.04-1.9-.41-3-.06-.16.05-.85-.09-.89-.29l-1.05-.05c-.46.29-1.78.4-1.53.84.01.02-.23.06-.35.09-.78-.7-1.11.17-1.72.05v.12c1.79.65,2.22.05,2.86-.35l.14-.03-.15.03c.36.06,1.02.11,1.03.17.18.88,1.49.33,2.55.28,1.11-.05,2.38-.22,3.36.16.48.1.41.41,1.24.38l.02-.25Z"/><path d="m40.99,2.43l.66.12c1.61.09,1.58.47,1.41.87.53.14.5-.09.76-.12-.47-.55.32-1.02,1.78-1.07-.33-.28-.36-.56,0-.84-.37-.29-.68-.09-1,0,.21.06.27.16-.02.17-.4.02-.33-.12-.37-.21-.85-.4-2.1-.14-3.01-.13-1.48.02-3.1-.19-4.5.12v.17s1.04.06,1.04.06c.33-.21.62-.1.91,0l1.22.25c.09-.16.17-.33.82-.3.44.02.7.13.91.26.49.3-.18.46-.62.64Z"/><path d="m215.52,2.03c.35.49,1.3-.09,1.91.1.2.06.98-.09,1.16.11.21.24-.52.19-.89.26-.86.16-1.7.31-2.54.47l.31.21h.41c1.14-.36,2.6-.16,3.89-.27.31-.14.23-.28.08-.43-.26-.27.13-.4.96-.39v-.12c.03-.17.27-.25.78-.23.1,0,.21,0,.3-.02-.1-.12-.58-.24.04-.35l-.03-.12c-2.03-.06-4.06-.18-6.11.02.33.27.93.55-.27.77Z"/><path d="m186.33,3.27c.42-.01.38.48,1.13.11.56-.28,1.09.11,1.65,0,.16-.47.91-.38,1.71-.21.68.14,1.23.07,1.74-.09.53-.17.76-.36.2-.57-.75-.02-1.44-.18-2.25-.08-2.51.32-2.78.31-4.8-.05-.05,0-.14-.02-.16-.01-1.02.45-2.58-.18-3.62.22.1.21.11.44.82.54.02-.15.19-.17.67-.15,1.02.05,1.98.14,2.89.29Z"/><path d="m215.52,2.03c1.2-.22.6-.5.27-.77-.79-.13-1.33-.37-2.46,0-.82.26-2.45,0-3.76.04-1.76.05-3.61.16-5.39,0-.78-.07-1.3-.04-1.21.29.09.33.72.31,1.42.25l1.47-.03c1.72.16,3.19-.33,4.89-.24.86.03,1.73.06,2.6.1.21-.06.44-.17.62-.16.4.02.43.16.45.28.07.23.63.22,1.1.25Z"/><path d="m89.77,2.55c-.63.4-1.06,1-2.85.35l-1.44.15c-.38.09-.78.17-.68.36.67.31,1.55.08,2.29.08,2.81-.02,5.63.14,8.46-.04.76-.05.86-.16,1.15-.3-.98-.38-2.25-.22-3.36-.16-1.06.05-2.37.6-2.55-.28-.01-.06-.67-.11-1.02-.17Z"/><path d="m162.04,1.61c-.17.15-.31.3-.51.44-.69.46-.61.35.83.48,2.39.22,4.75-.02,7.1.09.71.03,1.65.08,1.5-.35-1.34-.45-2.79-.38-4.39-.15-1.03.15-1.82.06-1.63-.41-1.04.2-1.9-.14-2.89-.1Z"/><path d="m181.94,2.6c1.04-.4,2.6.23,3.63-.22.01,0,.11,0,.16.01,2.01.36,2.29.37,4.8.05.81-.1,1.5.06,2.25.08-.32-.39-.67-.77-1.91-.96l-.9.25c-.33.25-.85.23-1.57.19-.89-.05-1.96,0-2.72-.03-1.55-.05-2.92.36-4.4.11l.39.5c.1,0,.2,0,.29.01Z"/><path d="m200.04,1.82c-.46.38-.84.73,1.02.77.6.01.22.17.18.27-.91.24-1.92.1-2.58-.05-1.66-.39-2.03-.05-2.39.39l-.34.03c-1.09-.21-2.88-.31-1.18-.94.31-.11.3-.32.43-.49.94-.01,1.88-.04,2.81-.03.61,0,1.06-.01,1.12-.26l1.05.03c-.04.1-.02.2-.13.29Zm-2.99.36s-.1-.01-.19.03c.05,0,.1,0,.19-.03Z"/><path d="m9.68,2.76c-.53-.36-2.4.12-2.4-.38,0-.25.76-.53,1.09-.83.34-.31,1.78-.37,2.92-.32.52.03,1,.14,1.52.15.5.02,1.1.22,1.46.03.39-.2-.98-.12-.72-.36-1.68-.42-3.78.04-5.52-.35-.55-.12-.43.23-.87.27-.43.14,1.49.34-.09.45-.53.37-1.92.57-1.71,1.08.33.03.75.04.96.11.53.18.51.8,1.86.24,0,0,.13.03.28.08s.35.09.5.11c.88.11,1.71.07,2.45-.12-.25-.48-1.23,0-1.72-.16Z"/><path d="m5,1.08c-.44-.02-.75-.09-.98-.23-.56-.34-1.64-.56-2.48-.35C.79.69.11,1.02.02,1.42c-.16.73.78.97,2.88.85.51-.03,1.15.15,1.73.24.64-.29.4-.59-.29-.8-.7-.21-1.34-.06-1.84.18-.18.09-1.03.23-.95-.04.07-.24-.42-.46-.11-.69.19-.14.28-.32.85-.34.59-.02.85.14.92.3.07.18.16.32.81.31.64-.01.97-.12.96-.34Z"/><path d="m181.26,2.09c1.48.25,2.85-.17,4.4-.11.77.03,1.84-.01,2.72.03.73.04,1.24.06,1.57-.19-1.25-.6-3.1-.25-4.64-.27-2.29-.03-4.63.25-6.86-.12l-.18.16c.33.18,1.5.39-.28.48-.58.03-.91.23.09.3,1.05-.1,1.82-.6,3.18-.27Z"/><path d="m100.41,1.59c.02.38.49.57,1.56.32.79-.18,1.3-.12,1.94.08.65.21,1.75-.21,2.37.16,1.53-.36,3.2-.04,4.81-.09.55-.02.86-.04,1.11-.19-1.47-.33-3.07-.35-4.78-.29-1.09.03-2.21.06-3.4-.08-1.04-.12-2.39.05-3.6.09Z"/><path d="m30.98,1.43h.77s1.14.34,1.14.34l.49.02,1.59-.24c-.93-.61-2.79-.43-4.13-.46-2.66-.06-5.34.08-8.01.14l-.71.12c1.2.42,2.49.5,3.9.14,1.14-.11,2.34-.32,2.99.26h.52s.37-.03.37-.03c0-.09-.02-.13-.03-.17l-.11-.09.25.04.99-.08Z"/><path d="m228.45,1.41c1.02.05,2.03.13,3.06,0,.81-.02,1.59,0,2.19.21.55,0,.82-.01,1.1-.02,1.3.03,2.56-.19,3.95.01.72.11,1.1-.27,1.31-.51-3.92-.09-7.84-.09-11.75.1l.15.21Z"/><path d="m201.24,2.86c-.91.24-1.92.1-2.58-.05-1.66-.39-2.03-.05-2.39.39,2.73.11,5.46.32,8.18-.05.66-.09,1.07.17,1.61.13.74-.06,1.87.09,2.01-.36h-1.51s-2.48-.09-2.48-.09l-2.84.04Z"/><path d="m255.38,2.01c-.03.2.2.46-.94.38-.71-.05-1.32.03-1.19.35,2.92.22,5.85.44,8.88.11l-.02-.17-.1-.14c-.06.01-.11.01-.18.01-.51.08-1.01.16-1.16-.12-.09,0-.18.01-.28.01l-1.07-.1c-.16.24-.52.29-1.1.14-.63-.03-1.28.26-1.86.03-.19-.08.09-.21.4-.29l.03-.11-.35-.24c-.63-.23-.68.12-1.07.13Z"/><path d="m195.94,3.22c-1.09-.21-2.88-.31-1.18-.94.31-.11.3-.32.43-.49-.52-.03-.35-.17-.38-.27l-.7.04c.22.26-.68.37-.7.6l.47.05s-.1.04-.1.04c-.13-.03-.25-.06-.38-.09-.62-.16-.24-.39-.37-.59-.7-.29-1.42-.33-2.16,0,1.24.18,1.59.56,1.91.96.56.21.33.4-.2.57-.51.16-1.07.24-1.74.09-.8-.17-1.56-.26-1.71.21,1.8.06,3.63-.15,5.4.05.7.08,1.07-.06,1.43-.22Z"/><path d="m178.08,2.35c-1-.07-.67-.27-.09-.3,1.77-.09.61-.29.28-.48-.3.23-.86.06-1.29.1.05.15-.28.37-.54.31-1.3-.3-2.21.18-3.34.15-.6.19-.64.03-.68-.12-.61-.19-.76-.02-.94.13.05,0,.15.01.16.02.25.38,1.1.4,2.03.37,1.28-.04,2.17.39,3.49.32.03,0,.17.21.25.32l1.39.22.74.13.08-.34c-1.57-.06-1.66-.42-1.54-.84Z"/><path d="m158.96,3.28c-.73.01-.86-.24-1.33-.34-.3-.07-.6-.14-.42-.28.14-.11.46-.1.75-.11.35-.01.79.01,1.02-.05.44-.12,1.13-.32,1.05-.43-.19-.26-.82,0-1.26-.02-.27-.01-.52-.07-.78-.1-.34-.19-.64,0-.96.01-.53.1-1.1.24-.95.44.62.79-1.04.79-2.53.87.18.17.96.09,1.02.31,1.22-.13,2.37.1,3.6.06.88-.03.69-.2.79-.35Z"/><path d="m173.1,2.13c1.13.04,2.05-.45,3.34-.15.26.06.59-.15.54-.31-2.26-.03-4.51,0-6.78.08-1.13.04-2.33-.03-3.45-.11-.68-.05-1.23,0-1.83.06-.2.47.59.56,1.63.41,1.6-.23,3.06-.3,4.39.15l.53-.13c.18-.15.33-.33.94-.13l.68.12Z"/><path d="m201.24,2.86l2.84-.04.03-.25c-.39,0-.73-.04-.67-.19.06-.15.45-.15.8-.16.13-.12.14-.25.15-.38-.7.06-1.33.08-1.42-.25-.91-.13-1.84-.13-2.79-.05-.04.1-.02.2-.13.29-.46.38-.84.73,1.02.77.6.01.22.17.18.27Z"/><path d="m85.47,3.05l1.44-.15v-.12s-.08-.05-.08-.05l.07.05c.61.12.94-.76,1.72-.05.12-.03.36-.07.35-.09-.25-.44,1.07-.55,1.53-.84-.08-.14-.4-.12-.68-.12-.38.19-.97.13-1.51.15-.39-.08-.64.42-.85.08-.22-.36-.87-.13-1.24-.22-.62.24-.91.1-1.12-.12-.37-.05-.81-.29-1.04.04l-.16.19c.44.08.65.28,1.26.28.42.08.26.22.29.34,1.9.22-.25.43,0,.64Z"/><path d="m261.07,1.12c.6.21,1.31.35,1.88.61,1.18.53,3.38.29,4.31-.35-.88.01-1.85.05-1.24-.43-1.68-.08-3.36-.16-4.96.17Z"/><path d="m85.47,2.42c1.9.22-.25.43,0,.64-.38.09-.78.17-.68.36-1.08.03-2.23.37-3.21-.09-.05-.02-.06-.05-.05-.08,1.43-.37,1.54-.9,1.47-1.45h.91c.44.08.65.28,1.26.27-.04.13-.05.25.29.34Zm-1.14.39c.23.06.45-.05.37-.11-.14-.14.58-.4-.51-.4-.55.06-.5.15-.11.25.07.09.07.21.24.26Z"/><path d="m110.39,3.45c-.33,0-.61-.24-.99-.04-.84.44-.92.05-1.19-.12-.25-.04-.57-.13-.74-.11-.67.09-1.3.23-1.79-.08-.4-.25.16-.39.57-.56.72-.3,1.28-.16,1.86.05.37.13.98.18,1.28.08,1.02-.35,1.48-.02,2.08.16l-1.09.62Zm-3.98-.47s.13-.02.13-.03c.02-.03,0-.06-.01-.09l-.28.05s.09.05.15.07Z"/><path d="m248.5,2.58c-1.44.03-2.96-.13-4.26.27-.33.1-.79-.02-1.11-.09-.59-.13-.99-.07-1.3.12,1.22.39,2.7.23,4.08.15,1.79-.11,3.47.33,5.27.04.26-.04.58-.04.7-.16-.37-.27-.99-.34-1.71-.17-.86.21-1.27.06-1.67-.16Z"/><path d="m5,1.08c0,.22-.32.33-.96.34-.66.01-.74-.13-.81-.31-.07-.17-.32-.32-.92-.3-.57.01-.66.2-.85.34-.31.23.17.45.11.69-.08.28.77.13.95.04.5-.24,1.14-.38,1.84-.18.69.2.93.51.29.8.24.08.47.13.71,0-.2-.5,1.18-.71,1.72-1.08-.37-.11-.72-.22-.74-.41l-1.33.05Z"/><path d="m117.19,2.95c.94.29,1.88.42,2.81,0,.55-.36,2.24-.27,2.54-.73l-.13-.4c-.62-.13-1.18-.1-1.69.07-.08.07.15.18-.22.22l-.11-.22c-.1-.02-.22-.03-.34-.02-1.46.07-1.16.73-2.5.84-.3.05-.38.14-.37.24Z"/><path d="m215.46,3.17l-.31-.21c-.67-.11-1.6-.09-1.51-.53.03-.14-1.35-.62-2.21-.02-.27.19-.7.26-1.29.24.03.03.04.06.05.1l-.02.37c1.75.14,3.48.39,5.3.06Z"/><path d="m232.22,3.16c.14-.33-.64-.41-1.27-.46-1.36-.12-2.93-.3-4.12-.1-.82.14-1.37.16-2.17.15-.48,0-.21.22-.25.35,1.71.08,3.37.24,5.16.02.78-.09,1.76.02,2.65.04Z"/><path d="m97.23,2.21l.66-.03c.35-.17.84-.32.76-.56-1.78-.18-3.69.12-5.49-.23-.73-.14-.95.33-1.61.45.03.2.73.34.89.29,1.11-.35,2.01.1,3,.06.64-.71,1.18.11,1.78.02Z"/><path d="m127.23,2.97h.54c.33-.26.32-.25-.24-.34-.25-.04-.58-.1-.63-.18-.19-.26.81-.18.97-.36l-.75-.24-1.17-.08-2.38.45c1.62.37,1.59.46-.34.92.83.6,1.45.23,2.1-.05.63-.05.94-.7,1.91-.12Z"/><path d="m153.55,3.26c1.49-.08,3.14-.08,2.53-.87-.16-.2.41-.34.95-.44-.17-.41-.92-.07-1.37-.12-.32.38-.53.81-2.24.5-.28-.05-.74-.03-.85.12-.12.16.23.2.6.22l.16-.02-.14.03.38.58Z"/><path d="m81.58,3.33s-.06-.05-.05-.08c-.16-.19-1.26-.08-1.06-.38-.29-.32-.7-.27-1.13-.04-.37.2-.69.43-1.25.04-.43.07-.73-.25-1.13-.06-.5.23-.09.44.34.64,1.45.04,2.98.4,4.27-.12Z"/><path d="m60.12,3.21c-.49-.27-1.69-.24-2.04-.68-.16-.21-1.69.18-2.52.35-.14.03-.23.08-.34.13v.35c1.27.27,2.46-.18,3.73-.03l.93-.05c.12,0,.2-.03.23-.07Z"/><path d="m255.01,1.05c.5.36,3.72.8,4.76.65,1.02-.15.37-.45.57-.68-.65.06-1.3.21-1.92-.02-.13-.05-.59-.09-.62-.07-.82.43-1.88.05-2.79.12Z"/><path d="m9.68,2.76c.49.16,1.47-.31,1.72.16.51.21,1.01.09,1.52.01.84-.33,2.18-.14,3.17-.31-.2-.2-.17-.44-1.23-.25-.64.12-1.57.06-2.37.09l-.44.15-.14-.07.56-.09c-.66-.09,1.38-.82-1.04-.48-.09.19.23.44-.73.47-.19.16-1.06.07-1.02.32Z"/><path d="m232.93,2.83c-.02.06.11.14-.2.16,2.16.06,4.45.47,6.31-.3l-.05-.15h-1.41c-1.54.11-3.09.21-4.64.3Z"/><path d="m16.08,2.63c-.99.17-2.32-.02-3.17.31.11.38.9.08,1.3.12,1.54.14,3.14.05,4.7-.04-.31-.67-1.85-.3-2.83-.39Z"/><path d="m41.67,2.93c-1.11-.04-2.37.11-3.11-.37-.28-.18-.69-.08-.76.1-.05.13.04.28-.43.36-.15.38.78.27,1.28.3,1.11.05,2.24.04,3.37.06-.09-.15.19-.33-.33-.45Z"/><path d="m47.37,1.66c.78.11,1.58.24,2.14-.09.36-.21.57-.08.9.01,1.08.31,2.15.34,3.16-.02-1.01-.34-2.26-.29-3.49-.26-.9.03-1.8.07-2.7.1v.26Z"/><path d="m141.79,1.59c-.25.24-1.02.59.77.4.93-.1,1.36.13,1.83.33.24.1.08.39.82.28.6-.09.46-.29.35-.47-.11-.17-.17-.35-.25-.52l-3.53-.03Z"/><path d="m71.94,3.3c.12-.35.14-.67-1.4-.46l-1.08.23h-.68c-.29.13-.69.11-1.08.1l-.41.27c-.03.24.44.18.82.15,1.28-.1,2.55-.19,3.82-.29Z"/><path d="m127.11,1.85l.75.24c1.01-.05,2.08-.32,2.93.13.22.12.86-.06.82-.09-.18-.17,1.22-.24.24-.43-1.57.08-3.29-.36-4.74.15Z"/><path d="m71.6,2.13c.39-.1.97-.32,1.14-.29.66.13.03.24-.19.36-.15.08.05.15.31.15.31,0,.64-.04.64-.15.01-.17-.08-.35-.13-.52-1.29-.34-2.75-.27-4.21-.22l-.05.3s.02.06.01.1h.39c.94-.12,1.83-.21,2.09.27Z"/><path d="m117.56,2.71c1.34-.11,1.04-.77,2.5-.84-.74-.3-1.5-.56-2.48-.09-.11.08-.18.23-.34.24-2.36.16-.62.37-.07.56.06-.08,0-.2.42-.19l-.08.2s.04.07.06.11Z"/><path d="m149.59,3.42c-.31-.23-.92-.5-1.54-.27-1.19.44-3.34-.23-4.13.48,1.93.05,3.81-.02,5.66-.21Z"/><path d="m178.8,3.39l-1.39-.22-.73-.1c0,.29-.59.27-1.18.26-1.37-.28-2.65-.23-3.86.12.12.13.49.25.74.21,2.07-.31,4.4.16,6.41-.28Z"/><path d="m16.07.98c.07.39.3.68,1.67.35,1.02-.25,2.3.3,3.28-.09-1.47-.54-3.27-.25-4.95-.26Z"/><path d="m224.06,1.36c.48.41,1.42.68,2.45.92-.21-.41.32-.74,1.03-1.06-.72-.21-1.37-.02-2.03.06-.36.33-.94.11-1.44.08Z"/><path d="m31.4,3.11c-1.24-.48-3.83-.46-5.38.04,1.53.23,3.07.04,4.61.05.04-.24.42-.15.77-.09Z"/><path d="m103.3,2.94c-.42.01-.7.07-.69.23l.46.08.1.13-.34-.04-.28-.15c-.43,0-.63.08-.66.22,1.3.05,2.43.45,3.87.23-.13-.43-1.34-.48-2.14-.68h-.31Z"/><path d="m166.76,3.19c-1.63-.02-3.26-.02-4.64.35.55.21,1.06.3,1.88.08,1.04-.27,2.33-.02,3.47-.12l-.07-.27c-.21-.01-.43-.03-.64-.04Z"/><path d="m45.6,2.23c-1.46.05-2.25.53-1.78,1.07l1.43.02c-.22-.27.84-.39.63-.65-.41-.13-.24-.29-.28-.44Z"/><path d="m123.56,2.22l2.38-.45c-1.2-.2-2.39-.35-3.52.05l.13.4h1.01Z"/><path d="m83,1.81h.91s.16-.2.16-.2c-1.33-.08-2.68-.28-3.92.08.4.21,1.21.3,1.36.58.26-.05.47-.09.69-.12.06-.17.09-.34.79-.34Z"/><path d="m47.37,1.66v-.26s-1.76-.01-1.76-.01c-.36.28-.34.56,0,.84.86.03.66.25.68.43.14.09.33.18.67.14.39-.05.16-.17.09-.25-.27-.32-.78-.64.33-.89Z"/><path d="m97.96,3.29l-.02.25c1.21.02,2.54.39,3.57-.13-.18-.22.09-.69-1.26-.22-.58.21-1.6-.14-2.29.1Z"/><path d="m179.62,3.19l-.08.34c1.38.23,2.62-.01,3.9-.15l-.67-.24c-.71-.11-.72-.33-.82-.54-.1,0-.19-.01-.29-.01,0,.46-.21.84-2.03.6Z"/><path d="m195.19,1.79c.94-.01,1.88-.04,2.81-.03.61,0,1.06-.01,1.12-.26-1.25-.3-2.65,0-3.95-.08,0,.12,0,.24.01.36Z"/><path d="m182.76,3.14l.67.24c1.02.15,2.07.43,2.9-.1-.91-.15-1.87-.24-2.89-.29-.48-.02-.65,0-.67.15Z"/><path d="m75.51,3.33s-.05-.08-.12-.11c-.51-.2,1.44-.49-.03-.56-1.06-.05-1.75.31-1.66.72.62.06,1.29.27,1.81-.05Z"/><path d="m248.5,2.58c.4.22.81.37,1.67.16.72-.17,1.34-.1,1.71.17.25-.03.57-.01.66-.13l-.62-.4c-1.11-.1-2.21.04-3.31.05l-.11.15Z"/><path d="m266.03.95c-.61.48.36.44,1.24.43.65.05,1.05-.06,1.32-.25l-.02-.31c-.83.09-1.66.18-2.54.13Z"/><path d="m219.76,2.91c-1.29.11-2.74-.09-3.89.27,1.29.29,2.59-.04,3.88-.03v-.24Z"/><path d="m136.39,1.61c.19.89,1.7.18,2.57.24-.06-.17.2-.43-.87-.31-.53.06-1.13.05-1.7.07Z"/><path d="m74.08,1.65c.13.18,0,.46.79.46,1.08,0,.44-.44,1.06-.59-.86-.34-1.24.08-1.86.13Z"/><path d="m34.96,1.55l-1.59.24c1,.05,1.06.31,1.2.57.08.15.32.26.79.26.18,0,.46-.06.51-.11.16-.15-.23-.19-.53-.25-1.1-.22.89-.47-.07-.69-.1-.02-.21-.02-.32-.02Z"/><path d="m267.96,2.48c-.7.16-1.67-.66-2.21.09q.31.44,2.21-.09Z"/><path d="m64.11,2.09c-.93-.1-.87-.39-1.08-.63-.73-.02-1.54-.2-2.13.1l.02.14c.53.06,1.45-.05,1.53.19.19.53.94.31,1.66.2Z"/><path d="m66.29,1.43c-.46.38.62.48,1.13.68l.56-.23.44-.49c-.73-.07-1.38.22-2.13.05Z"/><path d="m149.57,1.97v-.34c-.66-.1-1.33-.19-2.06-.07,0,.18-.25.43.75.4.75-.02,1.09.09,1.06.34.33-.09.23-.21.25-.32Z"/><path d="m227.54,1.22c-.7.32-1.23.65-1.03,1.06.73-.27,1.79-.46,1.94-.87l-.15-.21-.76.03Z"/><path d="m41.67,2.93c.53.12.24.3.33.45l1.06.05c.17-.41.2-.78-1.41-.87v.37Z"/><path d="m167.4,3.23l.07.27c.69.01,1.28-.07,1.78-.23-.44-.82-1.16-.39-1.85-.04Z"/><path d="m246.44,1.08c0,.08-.07.17,0,.24.2.2-.82.58.28.59.98,0,.13-.34.27-.53.04-.05.36-.08.56-.12-.24-.15-.45-.31-1.11-.17Z"/><path d="m224.06,1.36c.51.03,1.09.25,1.44-.08l-.78-.06c-.29.01-.55,0-.68-.1l-1.44.12.3.13h1.16Z"/><path d="m290.27,2.2s.03-.08,0-.12c-.13-.18.4-.49-.47-.5-.3,0-.85.37-.28.61l.75.02Z"/><path d="m193.41,2.15c.02-.23.92-.34.7-.6l-1.09.02c.13.2-.25.43.38.58Z"/><path d="m6.33,1.03c.02.18.36.3.74.41,1.58-.1-.34-.31.09-.45-.07-.03-.16-.05-.27-.03h-.47c-.1.02-.12.04-.08.07Z"/><path d="m60.63,3.09l-.71.12c.31.27,1.18.19,1.71.31l.04-.24-.03-.24c-.19-.01-.34-.01-.48-.01-.05.14-.3.1-.53.06Z"/><path d="m154.56,3.57c-.06-.22-.83-.14-1.06-.29l-.57.1.46.16c.38.07.76.09,1.17.03Z"/><path d="m85.12,1.57c.21.22.49.36,1.12.12-.3-.12-.42-.44-1.12-.12Z"/><path d="m209.77,2.77l-1.12.13c-.05.32.57.24,1.12.2v-.34Z"/><path d="m88.32,1.83c.53-.01,1.13.05,1.51-.15-.76-.25-1.17-.1-1.51.15Z"/><path d="m294.03,2.39c-.35-.15-.76-.16-1.22-.04.39.05.63.51,1.22.04Z"/><path d="m222.9,1.37l-.3-.13h-.71s.03.13.03.13c.32.13.65.15.98,0Z"/><path d="m55.97,1.63s0,.04-.05.06c.05-.02.1-.03.17-.03l.1-.26-.22.23Z"/><path d="m224.04,1.12c.14.1.39.12.68.1,0-.2-.23-.23-.68-.1Z"/><path d="m44.22,1.36c.04.09-.03.22.37.21.29-.01.24-.11.02-.17l-.39-.04Z"/><path d="m61.67,3.29l-.04.24c.37-.04.62-.11.74-.24h-.7Z"/><path d="m59.89,3.28l-.93.05c.39.16.7.15.93-.05Z"/><path d="m195.17,1.78v-.36c-.23-.02-.35.01-.36.09.03.1-.14.24.36.26Z"/><path d="m120.4,1.89l.11.22c.37-.04.14-.15.22-.22-.11-.02-.23-.02-.34,0Z"/><path d="m31.4,3.11c-.35-.06-.73-.15-.77.09.32.04.64.07.77-.09Z"/><path d="m248.61,2.43c1.1,0,2.2-.15,3.31-.05.38-.01.55-.09.58-.21l.04-.37c-.61-.02-.81-.12-.6-.32.1-.09.24-.21-.16-.23-.24-.01-.75.08-.74.12.08.52-1.54.55-2.17.85-.13.06-.18.14-.27.21Z"/><path d="m271.71,2.2c.75.11,1.51.25,2.24-.04-1.26-.02-.24-.52-1.13-.62l-1.42-.2c.19.28.94.54.31.86Z"/><path d="m233.7,1.62c-.6-.21-1.38-.23-2.19-.21.03.14-.09.31.11.4.27.13-.8.34.17.35.67,0,.54-.2.46-.36-.03-.07-.04-.33.4-.09.8.45.63-.18,1.05-.1Z"/><path d="m259.32,2.34l1.07.1c.14-.14,1.05-.27.24-.42-.86-.16-1.14.08-1.31.31Z"/><path d="m256.77,2.22c-.31.07-.6.21-.4.29.57.24,1.23-.06,1.86-.03-.06-.35-.88-.22-1.45-.26Z"/><path d="m237.58,2.54h1.41c-.08-.23-.53-.33-1.09-.3-.44.02-.29.19-.32.3Z"/><path d="m221.88,1.72c-.1.01-.2.02-.3.02l-.04.22c.43-.02.96.03,1.15-.18l-.81-.07Z"/><path d="m260.67,2.43c.15.28.65.2,1.16.12l-.04-.25c-.38.04-.75.09-1.12.13Z"/><path d="m253.81,1.29c-.08-.02-.15-.04-.22-.06l-.2.12c.09.01.2.04.27.03.07,0,.1-.05.15-.09Z"/><path d="m234.8,1.6h-.82c.11.08.18.19.32.2.4.02.39-.11.5-.2Z"/><path d="m256.45,1.88l.35.24c.54-.19.11-.22-.35-.24Z"/><path d="m261.79,2.3c.19-.02.47.01.47-.1,0-.02-.14-.07-.21-.07-.33,0-.23.1-.26.17Z"/><path d="m252.55,1.8l-.04.37c.46-.12.5-.24.04-.37Z"/><path d="m242.84,1.69c0,.05.06.05.11.06,0-.05-.06-.05-.11-.06Z"/><path d="m220.81,1.96v.12s.72-.13.72-.13c-.23,0-.48,0-.72,0Z"/><path d="m255.37,2.01l-.08-.05s.06.03.08.05Z"/><path d="m262.01,2.54l.1.14c.31-.08.24-.12-.1-.14Z"/><path d="m40.99,2.43c.43-.19,1.11-.35.62-.64-.21-.13-.46-.24-.91-.26-.66-.03-.74.14-.82.3.34.19.51.39.22.61-.13.1-.1.2.29.22.47.02.54-.1.61-.22Z"/><path d="m10.69,2.45c.95-.03.64-.29.73-.47-.35-.02-.85.06-.9-.17-.02-.12-.37-.26-.68-.22-.32.04-.62.18-.73.3-.19.2.43.11.62.16.38.11.65.27.97.4Z"/><path d="m28.99,1.75c-.64-.58-1.85-.37-2.99-.26.83.32,1.77.48,2.99.26Z"/><path d="m29.88,1.72l-.37.03c-.06.03-.1.08-.19.1-.68.14-1.14.3-.44.57.18.07.69.15.6.03-.2-.28,2.05-.37.39-.72Z"/><path d="m37.75,1.58l-1.03-.06c-.01.16-.87.39.04.48.67.07,1.15-.14.99-.41Z"/><path d="m32.89,1.77l-1.14-.33c.03.14-.59.28-.07.41.42.1.87.04,1.21-.08Z"/><path d="m12.89,1.86c.21.05.33.1.45.1.13,0,.26-.05.39-.08-.11-.04-.21-.1-.33-.1-.13,0-.27.04-.51.08Z"/><path d="m30.98,1.43l-.99.08-.14.05.04.12c.44-.04,1.1.02,1.09-.25Z"/><path d="m38.66,1.58c-.29-.1-.58-.22-.88,0h.88Z"/><path d="m15.05,1.28c.1.03.15.01.2,0-.04-.01-.07-.02-.2,0Z"/><path d="m136.06,3.3c.4-.02.85.01,1.09-.14.18-.37,1.38-.11,1.86-.34.18-.09.79.28,1.06.01.16-.16-.43-.31-.8-.44-.37-.13-.67-.16-1.19-.02-.65.17-1.41.29-1.99-.09-.35-.23-.98-.06-1.35.03-.65.15-.12.25.25.35.6.16,1.19.34,1.07.64Z"/><path d="m149.57,1.97c-.03.11.07.24-.25.32-.08.14-.96.17-.52.38.15.07.5.15.73.14.76-.03.26-.25.42-.38.09-.07.16-.15.3-.21.27-.11,1.08-.18.77-.33-.35-.17-.92.1-1.45.07Z"/><path d="m146.98,2.45c-.08-.02-.15-.04-.22-.06l-.21.11c.09.01.2.04.27.03.07,0,.1-.05.15-.08Z"/><path d="m129.29,3.19h-.35c.12,0,.24,0,.35,0Z"/><path d="m284.93.98c.07.1.1.23.57.12-.07-.11-.29-.12-.57-.12Z"/><path d="m113.6,3.17h.73c0-.14-.16-.36.07-.42.39-.11.75-.18.62-.36-.06-.09-.28-.05-.37,0-.31.16-1.37.11-1.09.44.09.11.03.23.04.35Z"/><path d="m111.49,2.82c.22.11.24.28.75.29.07,0,.25-.09.23-.13-.1-.19-.59-.15-.98-.16Z"/><path d="m103.3,2.94h.31c0-.08.07-.18-.34-.2l.03.2Z"/><path d="m117.51,2.6l.08-.2c-.42,0-.36.1-.42.19h.33Z"/><path d="m115.76,2.95l-.13-.16c-.34.09,0,.11.13.16Z"/><path d="m272.82,1.54c.89.1-.14.6,1.13.62.46,0,.78-.09,1.02-.21.51-.25,1.13-.49.18-.77-1.5-.44-1.55.24-2.33.36Z"/><path d="m278.8,1.1c-.51.04-1.34-.21-1.29.18.02.13.23.36.81.29.56-.08,1.39-.26,1.42-.4.06-.29-.67,0-.94-.06Z"/><path d="m278.25,2.05c.4.14.65.3.95.31.37,0,1.03,0,1.05-.23.01-.13-.23-.25-.62-.23-.42.01-.83.09-1.37.15Z"/><path d="m283.14,1.09c.05.09.05.2.43.17.12,0,.18-.11.27-.17h-.69Z"/><path d="m276.83,1.55c.12-.04.04-.05-.03-.05l.03.05Z"/><path d="m282.46.98h.16s.16,0,.16,0c-.11-.06-.22-.07-.32,0Z"/><path d="m54.51,1.93c.07.2.44.27.96.21.66-.07.4-.28.47-.44-.64-.03-.67.35-1.43.23Z"/><path d="m46.28,2.67c-.02-.18.19-.4-.69-.44.05.15-.12.32.29.44h.39Z"/><path d="m54.5,1.93l-.08-.05s.06.03.08.05Z"/><path d="m166.76,3.19l.65.04c-.11-.09.22-.26-.3-.26-.3,0-.37.12-.35.22Z"/><path d="m175.51,3.33c.58.01,1.18.04,1.18-.26-.43.06-.92.1-1.18.26Z"/><path d="m64.11,2.09c-.72.11-1.47.33-1.66-.2-.08-.24-1.01-.13-1.53-.19.29.27.51.56.87.82.77.56,2.18.63,3.34.16.14-.06.22-.15.39-.18.66-.11.7-.52.05-.68q-.27-.07-.43.2c-.07.12-.05.29-.55.29-.15,0-.32-.14-.48-.22Z"/><path d="m69.51,1.87h-.39c-.69.42.38.8.34,1.21l1.08-.23c.1-.38-1.32-.58-1.03-.98Z"/><path d="m67.7,3.18c.39,0,.79.03,1.08-.09-.01-.02,0-.05-.04-.06-.48-.13-.39-.54-.98-.47-.87.1.1.4-.07.61Z"/><path d="m65.8,2.79c-.1.04-.22.07-.21.09.03.07.11.13.17.2.05-.03.13-.07.13-.1,0-.05-.05-.11-.09-.18Z"/><path d="m60.63,3.09c.24.03.48.07.53-.06-.22-.02-.54-.13-.53.06Z"/><path d="m61.64,3.04l.15-.06c-.06.02-.13.03-.15.06Z"/><path d="m123.56,2.22h-1.01c-.3.47-1.99.38-2.54.74.06.16-.09.37.72.35-.34-.23.25-.34.62-.41.46-.08.67.09.84.21l1.03.02c1.93-.46,1.96-.55.34-.92Z"/><path d="m122.19,3.11c-.17-.13-.39-.3-.84-.21-.37.07-.96.18-.62.41.55,0,1.24.09,1.46-.2Z"/><path d="m127.23,2.97c-.97-.58-1.28.07-1.91.12.78.22,1.35.07,1.91-.12Z"/><path d="m129.3,3.19h-.37c.12.11.25.11.37,0Z"/><path d="m83,1.81c-.7,0-.74.17-.79.34.11.24-.26.19-.65.12-.22.24-.07.54-1.08.61-.21.3.9.19,1.06.38,1.43-.37,1.54-.9,1.47-1.44Z"/><path d="m71.6,2.13l-.45.04c.25.11.32,0,.45-.04Z"/><path d="m204.36,2.22c-.17.11-.22.22-.26.34.72,0,1.44-.01,2.15-.02.65-.01.66-.17.69-.33-.38-.02-.86.03-1.08-.13l-1.49.14Z"/><path d="m214.42,1.78c-.01-.12-.05-.26-.45-.28-.18,0-.41.1-.62.16.26.14.68.11,1.07.11Z"/><path d="m205.85,2.08c.23.16.7.11,1.08.13-.22-.17-.66-.14-1.08-.13Z"/><path d="m210.14,2.65c0-.07.34-.14.02-.2-.03,0-.13,0-.16.01-.21.09-.09.14.15.19Z"/><path d="m97.23,2.21c-.6.09-1.14-.73-1.78-.02-.1.51,1.2.24,1.8.37l-.02-.35Z"/><path d="m89.76,2.55l.15-.03s-.09.02-.15.03Z"/><path d="m97.24,2.56l.08.05-.08-.05Z"/><path d="m220.81,1.96h.73s.04-.23.04-.23c-.51-.02-.75.06-.76.23Z"/><path d="m179.62,3.19c1.82.23,2.03-.15,2.03-.6l-.39-.5c-1.36-.33-2.12.17-3.18.27-.13.41-.03.78,1.54.84Z"/><path d="m196.86,2.21h.16s-.07-.04-.16,0Z"/><path d="m193.39,2.16c.12.03.25.06.38.09,0,0,.07-.03.1-.04-.16-.02-.31-.03-.48-.05Z"/><path d="m173.1,2.13l-.68-.12c.05.15.08.32.68.12Z"/><path d="m204.1,2.56l.14-.35c-.35,0-.74,0-.8.16-.06.16.28.19.66.19Z"/><path d="m85.18,2.08c-.04.13-.05.25.29.34-.04-.12.12-.26-.29-.34Z"/><path d="m86.91,2.78l-.07-.05.07.05Z"/><path d="m84.09,2.55c.07.09.07.21.24.26.23.06.45-.05.37-.11-.14-.14.58-.4-.51-.4l-.1.25Z"/><path d="m84.09,2.55l.1-.25c-.54.06-.5.15-.1.25Z"/><path d="m106.26,2.9s.09.05.15.07c0,0,.13-.02.13-.03.02-.03,0-.06-.01-.09l-.28.05Z"/><path d="m153.17,2.68l.14-.03c-.05,0-.11.02-.14.03Z"/><path d="m12.46,2.46l-.56.09.14.07c.15-.05.29-.1.42-.16Z"/><path d="m103.06,3.25l-.46-.08c.03.07.13.12.22.17l.24-.09Z"/><path d="m81.56,2.26c.39.07.76.12.65-.12l-.65.12Z"/>
                  </g>
                </mask>
              </defs>
              <path class="mask" d="m0,1.85c92.48.91,186.78.81,282.81-.42,6.83-.09,13.65-.18,20.46-.28"
                    mask="url(#path-mask)" stroke="black" stroke-width="2" fill="none"
                    stroke-dasharray="303.2782287597656" stroke-dashoffset="303.2782287597656">
              </path>
            </svg>
        