
            <svg xmlns="http://www.w3.org/2000/svg">
              <defs>
                <mask id="path-mask">
                  <g fill="white">
                    <path d="m245.08,8.9c-5.96-.03-2.17.1-3.36.15l-4.29-.08c-3.51-.09-7.6-.2-10.94-.28-6.85-.22-19.7-.25-25.19-.12-3.77-.04-6.14-.03-7.74.01-5.01-.08-12.46-.02-16.33-.15-1.06-.08-5.46-.17-1.77-.23,2.66-.04,5.55-.06,9.83.01,3.53.06,6.74.07,8.73.02l3.32.02c4.11-.02,9.7.25,12.9.07,1.29.01,3.67.04,3.71.04,3.25-.15,10.85-.01,17.43.07l.1.05c-1.8,0-1.43.02.6.04.33,0,.67,0,1.03,0l.21.07c-.56,0-1.25-.01-1.8-.01-.27,0-.51,0-.68,0-.17,0-.27,0-.26.01,0,0,.81.03,1.22.03,1.9.02,1.36-.01,1.56-.03l6.52.03c.53,0,1.07,0,1.62.01-.81.03-6.15,0-1.44.1,4.98.1,6.67.05,7.69,0,.94-.06,3.06-.05,6.41.04.32.1,5.13.13,8.46.18l-.16.03c-3.14.01-.68.05,2.02.09,3.65.11,4,.02,6.3.05l.47.02-.53-.02c.21-.06-1.16-.15,5.49-.03,4.14.07,7.69.1,6.97,0l4.11.05,3.6.17c-2.24-.03-3.22-.02-3.41,0-2.68,0-2.91.03-.29.1,3.56.06,4.74.11,3.47.15-.6.02-1.43.04.93.08,1.38.01,4.3.04,4.35.04-.43-.16,9.02-.01,12.69-.04.75-.02,1.07-.02,1.58-.04l.65-.03c8.42.14,17.26.36,24.84.39,1.91,0,4.59.1,6.49.16,3.43.11,5.75.14,7.61.12l16.22.42.29.05c.45.08,3.05.17,6.35.24,2.55.05,1.71-.02,1.9-.04,9.01.21,18.03.42,27.48.63l-.38-.02c.12-.01-.6-.06,1.18-.01.51-.01.7-.04,3.02.03-.81.08,3.69.22,7.35.35,7.9.26,17.06.61,23.99.79,4.79.12,8.02.24,12.68.42,2.82.12,1.26-.02,1.49-.04l6.79.3,3.39.19c.57.04,1.13.07,1.71.14.08.01.13.01.26.05h.04s.22.15.23.27c.06.16-.16.39-.29.4l-.14.02-.45.02h-.85s-13.58.05-13.58.05l.04-.07c1.79-.05,1.36-.09.48-.13-1.52-.08.79-.12,5.63-.13l4.28-.04c1.28,0,2.69-.02,3.91-.03.15,0,.3-.01.45-.02.05,0,.18-.05.16,0-.02,0-.12-.02-.18-.03-.28-.04-.54-.05-.78-.07-.49-.03-.89-.05-1.17-.05l1.17.09.58.06.28.04h.06s.04.03,0,0c-.02-.05-.01-.06-.01-.09.05-.06.01-.02,0-.03h-.07c-.77.04-1.56.03-2.34.03-.59-.03-3.36-.06.22-.11.47,0,.94,0,1.41.01.23,0,.47,0,.7-.02h.07s.07-.02,0,0c-.07.04-.08.11-.07.19,0,.05.07.1.09.1h-.01s-.03-.01-.03-.01h-.08s-.34-.06-.34-.06c-.94-.09-1.91-.13-2.88-.17l-6.74-.32c-2.77-.24-8.23-.54-14.23-.82-4.25-.07-10.45-.21-11.34-.12-5.93-.2-11.84-.41-17.83-.54-.14-.05.52-.08-.63-.14-1.54-.08,4.68.03-.96-.13-3.91-.11-3.15-.03-2.72.03.19.03.22.11-2.33-.04-4.66-.26-3.69-.05-7.71-.18-.61-.04-1.05-.08-1.86-.1-2.33-.07-2.31-.03-2.95-.02-7.58-.19-14.96-.37-23.02-.57-4.19-.13-6.43-.07-7.68-.02l-37.22-.76s.42-.04.02-.07c-1.14-.08,4.81-.08-1.61-.21-5.69-.11-.78.09-1.6.13-.24,0-2.13-.02-3.26-.02-10.49-.15-21.82-.32-32.7-.47-3.17-.05-8.32-.03-10.84-.18-2.88-.15-21.67-.53-27.71-.55Zm36.03.62l1.18-.02c-.54-.01-1.17-.02-1.58-.03-.41,0-.6,0-.9.01.45.01.87.03,1.3.04Zm61.84.96c.23,0,.56.01.85.02-.04-.02-.37-.02-.85-.02Z"/><path d="m188.79,2.07c-13.9.15-27.61.3-41.43.45-1.85-.18-10.78.09-16.55.16-1.16-.02-1.02-.16-7.19.09-3.73.14-9.13.33-13.93.51-3.84.13,7.97-.59-6.1.11-2.06.08-4.96.24-5.25.19-.15-.03-2.15.03-3.98.13-1.87.1-3.6.25-4.26.32-1.09.12,2.51-.11,3.64-.14,2.22-.06,3.81-.1,5.65-.15-1.12.11-6.19.33-5.9.39-1.55.03-5.05.22-8.16.41-1.55.09-3.01.17-4.08.23-1.07.06-1.75.08-1.75.04,0-.02.28-.06.72-.11.44-.04,1.05-.1,1.71-.17,1.33-.13,2.89-.27,3.83-.36,1.94-.21,10.33-.69,16.99-.97,3-.11,5.86-.21,8.85-.32,2.89-.11,6.43-.16,8.54-.29,2.25-.14-5.71.16-4.25.04,4.58-.21,9.4-.41,14.72-.44.41.11,1.81.18,9.77-.06,5.93-.17,13.41-.16,19.13-.32l2.2-.03h4.18c7.02.06,14.56,0,22.76-.21,4.86.04,10.35.02,17.43-.14l3.01-.04c-.36.01-.58.02-1.1.04-3.99.09-6.64.18-2.53.21,1.08,0,4.03,0,3.53-.04-1.19-.07,11.93-.28,2.3-.27,1.29-.02,2.89-.05,4.16-.07,1.27-.03,2.21-.05,2.18-.09l4.5-.06c.16.04-3.44.14-.38.13,2.43,0,5.06-.06,7.05-.13l2.84-.04c5.83-.07,6.19,0,7.02.07.48.04,1.86.05,4.64.01,1.04-.02,2.66-.06,2.98-.08.92-.06-1.34-.04-3.12-.03-6.42.03,5.15-.22-.43-.21,1.39-.1,4.98-.14,8.35-.2l.05.05c-.06.05-5.07.2.25.14,3.93-.04,6.68-.15,5.89-.22l5.16-.08,7.14-.03c2,.03,2.99.08,1.29.17-.78.04-.59.07,1.68.04,2.73-.03,3.15-.08,3.57-.12h3.84s.09.1.09.1c-6.49.07-13.81.23-18.17.15-1.66-.03-4.06.04-4.45.1-.28.05.23.08-2.51.15-11.25.27-22.85.46-34.75.55-7.25-.04-22.34.16-31.38.42Zm-73.97.87c.76-.03,1.51-.07,2.26-.1-.64.01-1.23.02-1.94.04-.73.03-1.59.07-2.98.13,1.21-.03,1.94-.05,2.65-.06Z"/><path d="m2.16,16.14c-.33.07-.64.15-.94.23-.28.08-.63.2-.74.32-.03-.06.04.04.18.08.12.05.25.08.38.11.26.06.53.11.78.15,1.02.16,1.93.23,2.74.31,1.64.15,2.96.25,4.35.35,1.39.09.48.16,4.79.27,3.49.08,2.69-.01,2.03-.08-.62-.07-.96-.13-1.42-.2,4.25.12,8.51.2,12.77.26.02.03-.34.06.02.09.36.03,1.43.06,4.33.09,4.37.04,6.36.09,6.21.16-.48.04-5.58,0-3.07.09.88.03,2.91.07,4.24.08,4.46.02,1.5-.07,2.47-.1.54-.02.96-.03,1.77-.05,1.6-.02,6.28-.02,4.52-.08-2.02-.06-5.38,0-8.45-.03v-.11c12.11.04,23.86.09,35.44.13-1.9.12-3.13.26-13.09.17-1.65-.02-4.31-.01-4.98.03-.72.05,1.34.06,3.6.07.73.06,1.47.12,1.93.19l-3.3.03,2.66.05c-7.88.07-15.25.03-22.18-.11-1.81-.08-5.34-.19-8.96-.17-6.94.07-19.47-.41-24.09-.53-1.69-.13-3.39-.22-5.14-.57-.22-.05-.44-.1-.71-.24-.07-.06-.15-.07-.25-.26-.04-.06-.06-.19-.03-.31.03-.1.07-.14.12-.2.15-.15.27-.19.39-.25.45-.19.88-.28,1.31-.38.86-.19,1.72-.33,2.59-.47,3.46-.52,6.95-.9,10.4-1.25-.27.15,5.02-.35,9.44-.76,3.94-.37,6.28-.54,9.24-.74-1.02.19-8.01.66-10.78.99-1.04.12-4.59.33-6.14.56-.95.14,2.51-.15,4.65-.3,2.18-.15,3.89-.29,6.9-.58,3.78-.36,8.19-.73,11.59-.86,2.04-.08,5.71-.39,7.87-.56,3.77-.3.71-.13-1.49,0-3.48.19-6.91.39-6.26.25l2.21-.19c3.9-.13,11.41-.7,17.79-1.08,2.48-.15,8.18-.54,6.51-.3-.4.05,7.32-.45,7.54-.5.46-.1,2.53-.22,5.34-.37l2.06-.11c3.86-.24,8.44-.53,6.85-.3-1.93.18-1.87.18,1.41.03,1.44-.06,3.36-.14,3.67-.13,1.1.02-4.72.3-5.65.4-5.88.32-12.08.75-17.08.9-1.28.04-5.02.31-4.79.31,1.03-.01-7.08.5-1.36.22-.24.05-.87.09-3.22.23-7.68.46-15.38.91-23.19,1.55-1.12-.2-9.87.69-14.93,1.12-5.87.53-10.21,1.01-16.41,1.78.36-.06.9-.16,1.36-.23.23-.04.43-.07.58-.1.15-.03.24-.05.24-.05s-.09,0-.31.02c-.22.03-.57.07-1.07.12-1.01.14-2.68.32-5.22.83Zm20.54,1.97h-1.21c.54.02,1.14.04,1.59.05.39,0,.6,0,.9,0-.44-.01-.86-.03-1.28-.04Z"/><path d="m45.33,12.7c-7.38.75-16.38,1.81-23.07,3.37-2.97.53-6.69,1.56-10.39,3.06-.92.39-1.83.83-2.7,1.34-.44.26-.86.55-1.25.88-.4.32-.76.71-1.01,1.19-.26.47-.32,1.09-.09,1.59.25.48.59.87.98,1.17.78.61,1.65,1.01,2.49,1.34,1.93.72,2.72.87,4.14,1.19,2.2.46,3.61.56,3.83.55.23-.03-.73-.13-3.15-.63-5.07-1.13-6.52-2.14-7.41-3.02-.1-.13-.25-.24-.33-.42-.1-.17-.22-.35-.25-.57-.11-.43.06-.97.51-1.48.91-1.01,2.59-1.91,4.84-2.91.5-.23,2.42-.9,3.24-1.19,1-.35,2.04-.57,3.05-.86l1.52-.41,1.54-.33c1.02-.22,2.05-.44,3.07-.66l3.08-.54c4.1-.72,8.23-1.25,12.4-1.73,9.61-1.08,19.27-1.74,28.93-2.28,9.66-.54,19.33-.93,29.01-1.27l-.05-.06c-1.63.06-2.96.1-3.33.09-2.88.12-6.31.26-8.69.36-5.72.26-12.75.58-17.28.79-1.35.06-6.95.33-12.71.73-2.88.18-5.79.45-8.24.64-2.44.24-4.42.44-5.41.54-.66.07-1.35.16-1.25.16.97-.03-2.73.36-4.42.55-2.03.2-3.26.39-5.01.6-1,.1-4.09.64-3.8.57.18-.05,1.96-.39,4.37-.72,5.03-.78,12.19-1.45,12.84-1.62Z"/><path d="m216.46,4.51c-5.06.11-11.06.22-14.38.39,1.45-.02,3.32-.04,4.33-.06,3.9-.11,7.58-.22,10.44-.17,2.35.04-.95.13-3.33.23-4.21.17-7.45.19-10.88.2-2.14,0-5.71.07-7.45.14-5.96.25-8.61.21-12.16.25-2.27.06-5.14.15-5.73.11-.12,0,.93-.06,1.34-.08,2.98-.08,3.07-.03,4.37-.03l6.37-.35c-4.2-.05-9.66.19-14.79.37.13.05-.2.1-3.91.22.06.03-.27.08.27.1,1.64.05-4.5.22-6.34.33-.5.03-1.77.08-2.15.06-.77-.03,1.29-.12,3.59-.22,1.3-.06.33-.1.38-.14-2.04.11-7.83.22-8.42.34.75-.01,2.8-.07.8.02l-.74-.02c-2.96.07-1.16-.08-4.82.05-1.29.05-2.34.16-3.5.24.05.03-.4.07-2.15.15.09,0,.2.01.32.02l1.94-.06c3.22-.05,13.34-.33-.4.19-.9.03-1.31.09-1.95.14,5.92-.21,12.12-.47,17.49-.53.65-.02,8.61-.3,13.92-.49,1.46-.08,3.26-.14,6.46-.23,9.34-.22,19.1-.44,28.03-.65,3.59.05,10.02-.19,13.81-.18,3.71,0,6.69-.01,11.29-.12,3.13-.07,5.37-.1,6.85-.1,1.48,0,2.2.04,2.27.1l10.31-.09c-.47-.07,2.36-.13,4.43-.19-4.72-.07-9.62-.13.37-.28,1.28-.02.44-.04-.84-.05-4.03.09-9.93.03-13.34.12-7.84.22-6.28.06-7.33,0l-2.18.03c-.2.04-1.39.08-3.88.11-.29.06-1.96.1-4.38.13l.18.06c-1.2.01-1.7.01-1.9,0-.2,0-.11-.03-.11-.04-4.68,0-11.75.11-12.49,0Z"/><path d="m162.4,8.16c-2.68,0-4.57,0-5.98.05-2.96.09-6.61.21-1.08.21,8.69.08,9.08-.04,13.59-.07l8.29.09c3.87.13,11.32.07,16.33.15l.1.08c-4.8-.04-10.37.02-13.96-.07-4.53-.11-9.23-.11-14.53-.11-10.42-.09-20.86.23-31.33.49-10.46.32-20.94.64-31.43.95-.37-.02-.34-.06,2.27-.17l4.03-.13,2.08-.04c.63,0,1.26-.02,1.89-.06,13.25-.44,15.09-.51,10.05-.5-.15,0-.2,0-.29,0-11.71.45-14.82.3-26.27.76-4.76.19-11.08.46-12.36.41,3.12-.13,6.63-.36,7.67-.35,1.98.01,5.25-.16,8.44-.27,11.38-.36,22.48-.72,34.17-1.09,8.32-.22,16.78-.46,25.3-.47,8.51.03,17.07.06,25.6.1,3.39.01,8.79.02,9.05.12-2,.06-5.2.04-8.73-.02-4.27-.07-7.17-.06-9.83-.01-4.39-.05-8.78-.1-13.05-.04Zm-20.87.48s-.37-.03-1.1-.03c-.74,0-1.89.02-3.58.07-3.29.1-8.1.28-8.29.32-.36.08,3.92-.11,5.45-.13,2.99-.09,7.78-.14,7.52-.23Zm-9.75-.02c-2.15.06-5.98.17-6.12.23-.08.03,1.32.02,3.61-.05,2.46-.08,4.85-.15,8.02-.25-2.34.03-3.8.02-5.5.07Zm12.66-.11l1.25-.02h-.16c-.94.02-.98.02-1.09.02Z"/><path d="m300.99.64c5.17-.04,9.21-.03,15.04.05,8.46.11,19.01.29,28.62.54,4.81.15,9.95.3,14.46.44l.05-.1c-1.06-.09-3.79-.26-.54-.16,9.61.3,8.33.06,15,.25-3.55-.15-6.68-.25-9.46-.32-.35,0-.66-.02-.91-.03-.37.04,1.14.15-2.7.04-3.02-.09-5.18-.18-5.61-.26l-.5-.03.46.03c4.46.19,4.61.08,8.3.22.23,0,.32,0,.28,0-4.23-.27-9.4-.34-14.02-.5-5.9-.07-12.14-.22-18.45-.46-1.88-.06-3.12-.12-5.23-.09-3.24.04-7.95-.04-12.49-.11-6.48.05-3.5.16-1.92.27.41.03,1.77.07-.51.07-1.95,0-3.09-.03-3.89-.06h-2.31c1.21.08-4.94.13-3.67.21Z"/><path d="m153.88,18.1c4.1.02,8.36.02,14.01-.09,7.05-.18,14.53-.28,22.51-.29,1.51-.07,4.35-.11,6.89-.16l4.23-.02c-.5-.03-1.28-.08-1.47-.08-7.73.05-12.93.09-20.38.14-5.42.07-10.38.12-11.85.02-.04,0-.59,0-.89,0-1.02.02-2.05.05-3.08.07.91.12-4.57.17-8.74.2-13.71.1-27.5.3-41.41.33-8.39.02-8.85.05-4.84-.11,1.21-.06,2.01-.1,3.01-.15-7.97.08-17.24.07-23.67.24,1.5,0,2.96,0,4.52.01,2.56,0,6.24-.11,7.36-.03.46.03-3.56.11-6.12.16-1.36,0-3.92.03-5.94.04-1.69,0-3.54.01-4.35.05-1.06.05.71.06,2.45.08,2.75.02,3.48.09,7.75.07,5.39.05,11.32.06,18.41-.03,8.1-.17,17.56-.24,27.09-.33-.13-.03.3-.07,2.02-.09,3.03-.03,1.1.04,1.76.06,4.02-.14,8.18-.32,10.75-.09Z"/><path d="m108.7,9.63l2.08-.04.94-.03.94-.03c13.25-.44,15.09-.51,10.05-.5-.15,0-.2,0-.29,0-11.71.45-14.82.3-26.27.76-4.76.19-11.08.46-12.36.41-3.45.19-9.61.46-12.2.67,3.3-.12.06.13-1.67.22-5.07.28-1.98.04-2.7.04-.15,0,0-.02.01-.03-3.88.15-10.48.66-14.82.98-2.67.23-5.03.44-7.07.62-.67.17-7.83.84-12.86,1.62-2.42.33-4.19.67-4.37.72-.29.07,2.8-.47,3.8-.57,1.75-.21,2.98-.4,5.01-.6,1.69-.18,5.39-.58,4.42-.55-.11,0,.59-.09,1.25-.16,1-.1,2.97-.29,5.41-.54,2.45-.19,5.36-.45,8.24-.64,5.75-.41,11.35-.67,12.71-.73,4.53-.21,11.56-.53,17.28-.79,2.38-.1,5.81-.24,8.68-.36,2.79-.13,2.92-.1,3.34-.09l.05.06,4.1-.14c-.37-.02-.34-.06,2.27-.17.51-.03.88-.07,1.56-.09,2.17-.08,2.18-.05,2.47-.04Z"/><path d="m392.17,2.57l.13.05c1.68.17,3.01.31,5.1.53,4.48.42,12.7.93,19.42,1.27.84.04,1.26.04,2.29.11,3.82.26,4.09.15.29-.19q-1.59-.14-2.5-.12c-.43,0-.32.06-3.2-.13-.88-.06-1.86-.17-2.8-.26-5.44-.38-5.08-.44-6.31-.59,6.22.33,12.58.76,18.99,1.31-2.65-.1,3.63.42,6.59.81,1.08.09,2.15.19,3.23.32.55.1,1.06.12,1.66.37.02.01.05.03.08.08.04.06.03.17-.02.21-.08.09-.11.08-.16.1-.08.03-.15.04-.22.05-.14.02-.28.04-.42.05-.28.03-.55.04-.82.06-1.1.05-2.19.06-3.28.07-.1-.01-.12-.02-.08-.03,3.99-.14-2.21-.24-2.01-.38,1.32,0,2.64.01,3.95,0,.07,0,.01.01.21.01,1.39-.02,1.98.02,2.58-.08.05.01.02-.07.09.03.06,0-.03.01-.04.05,0,0-.01-.01-.03-.02-.06-.03-.14-.06-.23-.09-.17-.05-.37-.1-.61-.15-.47-.09-1.07-.19-1.92-.29-5.03-.54.57.18-.39.14l-2.35-.17c-9.53-.93-19.31-1.5-28.66-2.12l-4.06-.23-.17-.08.86.03c-.38-.02-.75-.03-1.13-.05-.85-.05-1.7-.09-2.55-.14-1.3-.08-3.14-.21-3.09-.14l-4.13-.17.57.02.63.04c-2.83-.23-9.87-.55-11.87-.77-.94-.11-9.84-.36-14.68-.48-.8-.01-1.32-.02-1.96-.03-1.06-.09-3.79-.26-.54-.16,9.61.3,8.33.06,15,.25,6.42.23,12.61.53,18.55.91Zm27.31,2.1c.18.03.63.09.98.13.14,0,.33.01.49.02s.28.01.29,0c.02-.02-.29-.06-.51-.09-.6-.03-1.3-.08-1.25-.07Z"/><path d="m170.69,5.73c3.72-.12,4.05-.17,3.91-.22l-3.48.09-2.68.09c-6.68.18-13.13.35-20.22.65-2.89.12-7.07.28-10.53.37-3.78.1-10.95.39-12.16.45-12.85.6-25.26,1.17-37.59,1.75-4.53.21-7.37.43-11.09.63-18.94,1.07-37.87,2.25-56.77,3.93-2.03.18-4.11.37-5.27.53-.27.15,5.02-.35,9.44-.76,3.94-.37,6.28-.54,9.24-.74,1.37-.15,4.03-.34,6.34-.52l2.21-.19c3.9-.13,11.41-.7,17.79-1.08,2.48-.15,8.18-.54,6.51-.3-.4.05,7.32-.45,7.54-.5.46-.1,2.53-.22,5.34-.37.68-.07,1.39-.11,2.11-.11,3.81-.24,8.39-.53,6.8-.3,1.04-.05,2.08-.11,3.12-.16,3.26-.22,6.62-.44,11.15-.59,3.75-.26,7.39-.55,12.2-.58l5.98-.25c1.29-.14,5.3-.28,8.53-.42,4.73-.19,3.9-.1,4.23-.06,5.46-.34,10.93-.51,16.4-.61,1.16-.08,2.21-.19,3.5-.24,3.67-.13,1.87.03,4.82-.05.52-.12,6.32-.23,8.35-.34l4.25-.12Z"/><path d="m392.88,5.44c-2.93-.13-6.16-.24-10.52-.27,2.48.11,4.91.23,1.97.24-2.32,0-4.07-.13-6.57-.16-3.26-.19-5.14-.15-7.31-.13-2.48.02-4.9,0-6.57-.14-5.89-.09-4.99.02-6.05.08.88.1,5.64.21,7.95.32,3.93.15,9.13.27,14.09.35,3.73.05,6.95.12,10.53.22,3.65.04-.13-.18,6.19-.04,4.68.11,3.9.18,4.64.25l4.16.09c-.3-.06-.86-.13-.79-.18.02-.02.51-.02,1.22,0,.71.01,1.64.03,2.53.05,1.56.04,2.73.08,1.84.09-1.33,0-4.97-.04-1.12.08.97.03,4.35.04,6.63.06.72,0,1.1-.02,2.57.04l-2.62-.04c1.58.18,6.77.28,12.23.29,1.67-.09-6.62-.27-6.02-.39-8.96-.11-8.86-.22-8.17-.31-3.6-.09-6.55-.17-10.26-.26.54.14-3.45.16-9.65,0-8.6-.22,2.78-.05-.19-.18-.41-.02-.48-.03-.71-.05Z"/><path d="m380.32,15.01l3.38-.03,6.54-.1,2.41-.03c-.06,0-.13-.02-.2-.03-1.42,0-2.12-.01-.92-.05.17,0,.76-.01.96-.01,1.85,0-.11.04-.11.06,3.41-.03,5.93-.07,7.52-.14,2.52-.11,5.79-.15,8.41-.15,1.31,0,2.45.01,3.26.01.81,0,1.28.02,1.24.03-.51.14,4.9.08,8.81.08,4.94-.09,9.83-.18,14.84-.27,2.19-.04,6.41-.06,5.21-.12-.99-.05-5.58.04-6.73.03-3.59-.03-9.14.2-11.16.07-2.74.01-5.97.05-6.39-.02-2.31.02-4.76.05-6.24.02-5.06.03-10.16.07-15.17.1-9.93.13-18.52.24-28.55.37v.08c2.46-.04,5.03-.08,6.31-.04-.16.05-.24.1-4.01.15l1.78.08,8.81-.1Z"/><path d="m261.89,4.1c1.28,0,2.12.04.84.05-9.98.15-5.08.21-.37.28,1.28,0,2.57-.02,3.85-.03l-.08-.11h-.48s.45,0,.45,0c3.5.02,11.09-.07,10.51.08,5.8-.02,11.06.12,17.52.03.93-.01,4.97.05,5.17.11l6.12.05c2.66-.08,10.38-.05,8.9-.2.07,0,1.33,0,2.04,0,4.53.25,6.45,0,10.02.08-.02-.01-.02-.02-.01-.04-10.46-.31-12.96-.13-16.64-.04h-.8s.85,0,.85,0c-2.1-.03-5.94-.09-6.03-.09-1.05-.28-8.69-.14-14.88-.14-6.45,0-13.89.06-19.58-.04-2.81-.02-2.38-.12-7.27-.09l-.12.08Z"/><path d="m276.12.6h3.84c9.38-.1,9.25.03,8.27.16,3.08.01,2.93-.06,4.44-.08-2.77-.14,1.82-.34,10.33-.38-1.96-.08-2.11-.17,0-.26-2.15-.09-3.96-.02-5.83.02,1.24.01,1.56.04-.12.05-2.31.02-1.92-.02-2.15-.05-4.96-.1-12.26.07-17.54.15-8.64.12-18.07.21-26.26.43l.05.05c2-.02,4-.05,6-.07,1.89-.09,3.6-.09,5.3-.08l7.14-.03c.52-.06.95-.12,4.8-.16,2.59-.03,4.08-.01,5.31.01,2.88.05-1.05.15-3.57.25Z"/><path d="m423.78,14.36c2.01.13,7.57-.09,11.16-.07,1.15,0,5.74-.08,6.73-.03,1.2.06-3.02.08-5.21.12-5.01.09-9.9.18-14.84.27l1.8.05,2.41-.02c6.67-.16,15.16-.21,22.67-.24,1.79-.05,1.36-.09.48-.13-1.52-.08.79-.12,5.63-.13l.09-.04s.41-.05,1.15-.06c.74,0,1.84,0,3.32-.02.61,0,1.2,0,1.78-.01-.59-.03-3.36-.06.22-.11l-.17-.04c-5.93,0-11.86.01-17.79.02-5.93.06-11.88.12-17.84.18,1.91.06,5.43.12-1.58.25Z"/><path d="m253.5,16.86c2.46-.04,2.23.11,6.6-.07,3.27-.14,6.38-.07,9.64-.15.92-.16,5.34-.2,10-.22,3.94-.02,7.19-.09,10.16-.19,3.08-.1,4.44-.18,1.18-.19-4.38.06-8.4.07-13.1.18-14.63.32-16.24.35-27.97.42-.28,0-.84,0-.91,0-5.97.23-15.06.18-21.15.4.58.06.65.12,4.78.09.14-.05,1.11-.07,3.93-.11,5.95-.06,11.52-.12,16.85-.17Z"/><path d="m423.78,14.36c7.01-.13,3.5-.18,1.58-.25-4.62,0-7.72-.04-14.34.12-4.77.12-14.31.13-21.94.2-10.27.12-21.05.24-31.43.36-4.55.04-7.56.08-7.06.18.49.09,4.16.04,8.28-.03,2.85-.04,5.7-.08,8.55-.12,10.03-.13,18.62-.24,28.55-.37,5.01-.03,10.11-.07,15.17-.1,1.22-.03,2.6-.06,3.64-.08,2.31-.01,2.52.03,2.6.06.42.06,3.65.03,6.39.02Z"/><path d="m309.72,4.38c3.69-.1,6.18-.27,16.64.04,2.79.02,5.59.03,8.38.05,2.23,0,4.54,0,3.97-.06-3.92-.15-9.06-.14-13.36-.18-16.41-.17-32.83-.3-49.36-.22-4.41.02-5.03.06-6.72.11,5.69.1,13.13.04,19.58.04,6.19,0,13.83-.14,14.88.14.1,0,3.93.06,5.98.09Z"/><path d="m111.86,17.96c-.99.05-1.8.09-3.01.15-4.01.17-3.54.13,4.84.11,13.91-.03,27.7-.23,41.41-.33,4.17-.03,9.64-.08,8.74-.2-7.78-.06-16.28.05-25.63.21-6.03.1-10.64.11-9.48-.04-6.07.11-11.11.05-16.87.1Z"/><path d="m227.95,17.05c6.09-.22,15.18-.16,21.15-.4.07,0,.63,0,.91,0,11.73-.07,13.34-.09,27.97-.42,4.7-.1,8.72-.12,13.1-.18-1.86-.09-3.89-.18-11.09-.12l-5.28.16c-1.95.11-4.94.15-9.18.2-5.17.08-11.42.17-15.89.24-9.02.12-17.05.39-25.66.42l2.28.13c.58,0,1.14-.01,1.69-.02Z"/><path d="m333.54,15.27c-2.71.15-4.9.29,5.93.16,3.49-.04,1.29.04,1.03.07-5.33.14-11.22.18-15.03.18-9.66,0-11.86.14-13.93.3l-1.98.03c-6.35.01-16.79.14-6.88-.2,1.79-.06,1.74-.12,2.54-.18,5.47-.07,10.96-.15,16.42-.22,3.54-.04,6.2-.08,6.56-.16l6.1-.07c-.23.03-.14.06-.76.1Zm-17.45.33c-.21,0-.57.01-1.1.02.3,0,.6-.01,1.1-.02Z"/><path d="m93.51,4.12c-1.55.03-5.05.22-8.16.41-1.55.09-3.01.17-4.08.23-1.07.06-1.75.08-1.75.04,0-.02.28-.06.72-.11.44-.04,1.05-.1,1.71-.17,1.33-.13,2.89-.27,3.83-.36,1.94-.21,10.33-.69,16.99-.97,3-.11,5.86-.21,8.85-.32,2.89-.11,6.43-.16,8.54-.29,2.25-.14-5.71.16-4.25.04-9.81.21-22.01.92-32.17,1.41-3.21.15-2.49.22-5.06.39-2.48.2,8.69-.44-.48.17-3.07.3-11.13.93-9.9,1,1.9-.12,4.37-.27,5.6-.35,3.07-.14,3.02.04,10.83-.6.08,0,2.82-.12,4.57-.2,5.1-.27,9.94-.52,14.24-.75-1.47-.09-7.14.33-10.03.43Z"/><path d="m66.16,5.3c-2.54.17-4.37.3-5.69.35-3.31.14-9.56.59-14.45,1.11-4.37.45-8.3.93-8.78,1.09-.88.3,4.6-.2,16.83-1.24,2.99-.25,6.71-.49,10.1-.71,3.7-.36,2.27-.36-1.75-.12-4.07.24-7.8.59-10.68.91-1.06.11-5.94.58-5.53.46.36-.11-2.47.08-.68-.15,1.09-.14,1.62-.24,4.94-.54,3.44-.3,4.95-.38,5.35-.35.42.02.93.02,4.76-.28,1.86-.15,3.26-.27,4.19-.35.93-.08,1.4-.14,1.39-.18Z"/><path d="m223.97,16.94c8.6-.03,16.63-.3,25.66-.42,4.47-.07,10.73-.16,15.89-.24,4.24-.05,7.24-.09,9.18-.2-7.26-.07-18.1.2-27.05.34-6.68.11-13.44.22-20.15.33-6.71.08-13.38.16-19.89.18l-1.07.06c1.93.03,8.72.01-1.63.17-3.39.05-5.3.13.53.09,6.15-.1,10.64-.31,18.54-.3Z"/><path d="m247.63,4.72c-.07-.06-.79-.09-2.27-.1-1.48,0-3.72.02-6.85.1-4.6.11-7.59.13-11.29.12-3.79-.01-10.22.23-13.81.18-8.93.21-18.69.43-28.03.65-3.19.09-5,.15-6.46.23,8.6-.18,17.89-.37,27.9-.58,6.38-.14,12.87-.26,19.83-.32,6.07-.08,13.91-.18,20.97-.28Z"/><path d="m217.64,1.17l4.5-.06h6.67c.95,0,1.89-.02,2.85-.03,3.09-.07,6.17-.14,9.25-.21-5.45-.11-16.31.11-24.1.21-15.5.2-31.15.41-46.73.61l-4.16.08c7.02.06,14.56,0,22.76-.21,6.63-.11,13.65-.27,17.43-.14,1-.01,2-.03,3.01-.04.72-.01,1.43-.02,2.14-.04-.03-.03-.12-.04-.2-.05-.21,0-.43-.01-.65-.02h1.48s5.77-.11,5.77-.11Z"/><path d="m427.7,12.74c-5.93-.2-11.84-.41-17.83-.54-4.74-.13-9.28-.26-12.78-.42-3.19-.08-4.79-.12-6.39-.16-7.58-.19-14.96-.37-23.02-.57-4.19-.13-6.43-.07-7.68-.02,22.84.54,45.69,1.13,68.54,1.81l-.84-.09Z"/><path d="m340.5,15.49c-5.33.14-11.22.18-15.03.18-9.66,0-11.86.14-13.93.3,15.9-.17,31.81-.31,47.69-.63,3.85-.08,6.24-.03,9.36-.08,4.3-.07,10.92-.12,11.73-.25l-8.81.1-14.47.16-16.54.23Z"/><path d="m270.7,9.13c.21-.06-1.16-.15,5.49-.03,4.14.07,7.69.1,6.97,0-17.04-.32-34.09-.59-51.79-.67l.1.05.6.04c.33,0,.67,0,1.04,0,2.96,0,5.9.02,6.76.1.53,0,1.07,0,1.62.01l6.25.1c.94-.06,3.06-.05,6.41.04,3.68.05,7.5.02,10.84.13,1.11.04-.56.05-2.38.05l-.16.03,2.02.09c3.65.11,4,.02,6.24.05Z"/><path d="m309.56,16c-6.35.01-16.79.14-6.88-.2,1.79-.06,1.74-.12,2.54-.18-3.03.03-2.02-.03-2.21-.05l-4.06.07c1.26.06-3.99.18-4.13.25l2.72-.03c-.2,0-.57.02-.59.02-.75,0-1.47,0-2.2,0-3.61,0-1.4-.1-2.15-.15-4.1-.03-8.29.03-12.62.19,7.2-.06,9.24.03,11.09.12,3.26.01,1.9.09-1.17.19-2.97.1-6.22.17-10.16.19-4.65.02-9.08.06-10,.22,10.47-.16,21.15-.32,31.49-.47,4.08-.03,6.22-.1,8.33-.17Z"/><path d="m205.44,17.25c-5.83.05-3.92-.04-.53-.09,10.35-.15,3.56-.13,1.63-.17-1.78.09-5.01.08-7.5.12.27.04-1.63.13-3.15.13-7.56,0-12.92.21-19.5.27-3.52.1-3.71.05-3.98,0-3.56-.02-4.45.04-5.49.1.31,0,.86,0,.9,0,1.47.1,6.43.05,11.85-.02,7.45-.05,12.65-.09,20.38-.14.19,0,.97.05,1.47.08l8.08-.03h4.29s.5-.12.5-.12c-9.17.09-9.7-.01-8.94-.15Z"/><path d="m93.86,18.58c-4.27.02-5-.05-7.75-.07-1.75-.01-3.52-.03-2.45-.08.81-.04,2.66-.04,4.35-.05,2.03-.01,4.59-.03,5.94-.04,2.55-.05,6.58-.13,6.12-.16-1.12-.07-4.8.03-7.36.03-1.56,0-3.02,0-4.52-.01-1.97-.05-3.75.01-5.61.03-3.12.04-6.45.09-5.53.15,3.58.23-6.09.26-14.75.29,1.06.05,5.57.03,5.92.09,7.11-.01,13.84-.03,21.03-.04,5.15-.03,4.03-.08,4.62-.13Z"/><path d="m176.38,17.52c6.59-.06,11.94-.27,19.5-.27,1.53,0,3.43-.09,3.15-.13-13.2.16-26.34.31-39.53.47-6.61.05-13.56.11-20.12.16-3.96.04-7.18.08-10.65.11-1.16.15,3.45.14,9.48.04,9.35-.16,17.85-.26,25.63-.21,1.03-.02,2.06-.05,3.08-.07,1.03-.06,1.91-.12,5.48-.1h3.98Z"/><path d="m340.5,15.49l16.54-.23.16-.08c-2.25.03-4.25.04-3.89,0,.35-.05,2.63-.08,4.69-.11.76-.05.82-.09.87-.13-4.11.07-7.79.12-8.28.03-5.28.03-10.74.1-16.3.19-.23.03-.14.06-.76.1-2.71.15-4.9.29,5.93.16,3.49-.04,1.29.04,1.03.07Z"/><path d="m334.75,4.46l-8.38-.05v.04s.44.02.44.02l-.43-.02c-3.57-.07-5.48.17-10.02-.08-.72,0-1.97,0-2.04,0,1.49.15-6.24.12-8.9.2.44.04,2.31.05,3.97.06,2.19-.04,5.68,0,8.78.02,2.29.04,3.71-.09,4.93.02,1.3.12,5.08.09,7.21.14,3.64-.03,5.29.03,6.52.12,2.17.04,4.74.15,6.09.07l.93-.05c-2.54-.06-3.8-.14-7.37-.19-2.43-.06-1.5-.09-1.72-.13-11.1-.2,1.48-.11-.02-.2Z"/><path d="m237.42,8.97c-3.51-.09-7.6-.2-10.94-.28-6.85-.22-19.7-.25-25.18-.12,5.11.04,10.8.07,7.2.17,9.81.1,19.61.22,28.92.23Z"/><path d="m334.77,4.66c-11.1-.2,1.48-.11-.02-.2,2.23,0,4.54,0,3.97-.06,6.32.07,13.02.08,18.75.31.28.01.37.02.27.03-8.31-.03-8.99.13-8.54.3-1.78-.03-3.55-.05-5.33-.08-2.54-.06-3.8-.14-7.37-.19.24-.04.31-.07-1.72-.13Zm6.63-.03c-1.33-.04-2.6-.02-2.18,0,.84.05-3.4.08,2.98.16,3.18.03,2.92,0,.62-.07-.43-.03-.4-.07-1.42-.1Z"/><path d="m189.39,5.14c1.94-.05,3.55-.01,5.75-.13,4.89-.25,5.35-.14,6.94-.12,1.45-.02,3.32-.04,4.33-.06,3.9-.11,7.58-.22,10.44-.17,2.35.04-.95.13-3.33.23-4.21.17-7.45.19-10.88.2-2.14,0-5.71.07-7.45.14-5.96.25-8.61.21-12.16.25,2.11-.12,4.24-.24,6.36-.35Zm23.2-.36s-.74.02-.78.02c-.09.01.03.02.06.03l1.62-.04c-.29,0-.55,0-.9,0Z"/><path d="m310.84,9.6c8.42.14,17.26.36,24.84.39,1.91,0,4.59.1,6.49.16,3.43.11,5.75.14,7.61.12-7.1-.27-15.71-.4-23.77-.53-10.44-.17-20.22-.47-30.75-.56-1.53-.01-3.41-.04-4.1-.02,2.13.11,5.76.19,9.94.21,5.04.02,7.42.11,9.74.22Z"/><path d="m66.16,5.3s-.45.09-1.39.18c-.94.08-2.34.19-4.19.35-3.83.3-4.34.3-4.76.28-.4-.02-1.91.05-5.35.35-3.31.29-3.84.4-4.94.54-1.78.23,1.05.04.68.15-.41.12,4.47-.35,5.53-.46,2.88-.32,6.61-.67,10.68-.91,4.02-.24,5.45-.24,1.75.12,1.38-.07,2.75-.16,4.13-.3-1.23-.07,6.83-.71,9.91-1-2.19.1-4.19.2-4.34.15l-7.72.55Z"/><path d="m149.76,6.48c-5.47.1-10.94.27-16.41.61-3.2.23-13.07.62-14.82.84l.74.09c3.6-.12,6.87-.26,9.82-.43.47-.04-.88-.02,1.3-.12l.67.04c.6-.02,1.26-.05,1.97-.07,8.49-.35,6.77-.49,14.57-.8,1.76-.08,2.2-.12,2.15-.15Z"/><path d="m423.42,14.71l-1.8-.05c-3.91,0-9.32.06-8.81-.08.04-.01-.43-.02-1.24-.03-.81,0-1.95,0-3.26-.01-2.62,0-5.88.04-8.41.15-1.59.07-4.11.11-7.52.14.15,0,.22.02.27.03l-.16.11c10.19-.05,20.27-.06,30.92-.25Z"/><path d="m405.83,11.56c-.81.08,3.69.22,7.35.35,7.9.26,17.06.61,23.99.79,4.79.12,8.02.24,12.68.42,2.82.12,1.26-.02,1.49-.04-9.95-.43-19.62-.79-30.08-1.05-4.53-.14-10.25-.31-15.44-.46Z"/><path d="m266.21,4.41c-1.28,0-2.57.02-3.85.03-2.06.06-4.89.12-4.42.19,10.38-.01,21.5-.12,32.01,0,4.24.05,5.54-.09,9.36-.11-.2-.06-4.25-.12-5.17-.11-6.46.09-11.72-.05-17.52-.03-3.75.22-6.9-.02-10.4.02Z"/><path d="m91.25,8.98c-1.04.05-2.09.11-3.12.16-1.93.18-1.86.18,1.42.03,1.44-.06,3.36-.14,3.67-.13,1.1.02-4.72.3-5.65.4,1.46-.05,2.92-.1,4.38-.15l6.84-.32,13.85-.79c-9.46.32-9.25.28,1.97-.37-4.82.03-8.46.31-12.21.58-3.68.19-5.48.48-11.15.59Z"/><path d="m62.29,18.66c8.66-.02,18.33-.05,14.75-.29-.92-.06,2.41-.11,5.53-.15-.97-.12-5.38,0-8.01-.01-1.9.12-3.13.26-13.09.17-1.65-.02-4.31-.01-4.98.03-.72.05,1.34.06,3.5.07h.93s-.83,0-.83,0l2.2.18Z"/><path d="m357.46,4.72c.28.01.37.02.26.03.92.07,7.37.16,6.16.23,1.67.13,4.09.16,6.57.14,2.17-.02,4.04-.05,7.31.13,2.5.03,4.25.17,6.57.16,2.94,0,.51-.12-1.97-.24-8.43-.2-17.37-.48-24.9-.45Z"/><path d="m387.67,2.84c-2.83-.23-9.87-.55-11.87-.77-.94-.11-9.84-.36-14.68-.48-.8-.01-1.32-.02-1.96-.03l-.05.1c7.46.35,14.41.49,21.78.88l5.44.25c.71.03,1.16.05,1.35.05Z"/><path d="m272.78,9.44c-2.88-.15-21.67-.53-27.71-.55-5.96-.03-2.17.1-3.36.15,3.79.03,7.6.03,11.21.14.78.01,3.42.06,3.59.07,4.84-.06,10.94.13,16.27.19Z"/><path d="m93.51,4.12c2.89-.1,8.56-.52,10.03-.43,2.97-.07,5.9-.22,8.84-.36,4.9-.28,12.67-.51,18.44-.64-1.16-.02-1.02-.16-7.19.09-3.73.14-9.13.34-13.78.51-.86.05-1.71.1-2.57.15h-.82s3.24-.15,3.24-.15c-3.84.13,7.97-.59-6.1.11-.49.08,1.36.08-4.2.34-1.12.11-6.19.33-5.9.39Z"/><path d="m401.63,11.55c.12-.01-.6-.06,1.18-.01-12.62-.37-25.89-.82-36.82-.84l.29.05,8.25.19c9.01.2,18.03.41,27.1.61Z"/><path d="m130.82,2.69c-5.77.13-13.54.37-18.44.64.67.09,5.24-.16,7.59-.23,2.25-.06,4.52-.12,6.8-.18,2.28-.04,4.57-.08,6.86-.12,4.59-.09,9.18-.18,13.73-.27-1.85-.18-10.78.09-16.55.16Z"/><path d="m280.06.71c-6.49.07-13.81.23-18.17.15-1.66-.03-4.06.04-4.45.1-.28.05.23.08-2.51.15-.88.13,4.57.01,7.45-.02,6.5-.09,13.09-.17,19.65-.26-.53-.04,1.12-.12-1.97-.11Z"/><path d="m313.28.15c4.54.07,9.24.15,12.49.11,2.11-.03,3.34.03,5.23.09,6.31.23,12.55.38,18.45.46-5.87-.29-13.2-.45-20.36-.58-5.27-.09-10.5-.14-15.75-.16l-.06.08Z"/><path d="m6.6,15.55c.36-.06.9-.16,1.36-.23.23-.04.43-.07.58-.1.15-.03.24-.05.24-.05s-.09,0-.31.02c-.22.03-.57.07-1.07.12-1.01.14-2.68.32-5.22.83-.33.07-.64.15-.94.23-.28.08-.63.2-.74.32-.03-.06.04.04.18.08.12.05.25.08.38.11.26.06.53.11.78.15,1.02.16,1.93.23,2.74.31,1.64.15,2.96.25,4.35.35,1.39.09.48.16,4.79.27,3.49.08,2.69-.01,2.03-.08-.62-.07-.96-.13-1.42-.2-3.43-.11-6.86-.23-10.26-.51-.85-.08-1.7-.16-2.53-.3-.21-.04-.41-.08-.6-.13-.1-.03-.19-.06-.27-.09-.05-.02-.06-.03-.08-.04-.03-.01.01,0,.01.02,0,.01.01.05,0,.09-.05.1.03,0,.1-.03.08-.04.17-.08.27-.11.19-.07.39-.12.6-.17,1.64-.39,3.35-.62,5.04-.85Z"/><path d="m413.69,5.93c-.69.09-.79.2,8.17.31l6.27.02c1.32,0,2.64.01,3.95,0,.42-.02.88-.04,1.37-.06.24-.02.49-.03.75-.05l.38-.04.18-.03s.05-.01.07-.02c0,0,.03,0,.02,0,0,0-.01-.02,0,.02.02.04.06.08.07.1-.01.04.09.06.05.05-.01,0-.05.03-.1.09-.08.09-.03.06-.05.06h-.03s-.1-.05-.16-.07c-.12-.03-.25-.06-.38-.09-.27-.05-.54-.1-.82-.14-.56-.07-1.12-.15-1.68-.23l-2.35-.17c-.21.07,2.58.28,4.7.64.22.04.45.09.62.15.06,0-.02.1.2-.2.03-.03.06-.04.06-.04-.01,0-.06-.03-.06-.06-.05-.06-.09-.12-.12-.2-.01-.06,0-.02-.01-.03-.05.02-.17.04-.27.05-.43.05-.9.07-1.36.09-.92.03-1.85.04-2.78.05l-5.57-.03-11.14-.18Z"/><path d="m91.95,9.29c-1.46.05-2.92.1-4.38.15-5.88.32-12.08.75-17.08.9-1.28.04-5.02.31-4.79.31,1.03-.01-7.08.5-1.36.22,9.15-.58,19.14-.99,27.61-1.58Z"/><path d="m415.7,6.33c-2.27-.02-5.66-.03-6.63-.06-3.85-.13-.21-.08,1.12-.08.9,0-.28-.05-1.84-.09-.9-.02-1.82-.04-2.53-.05-.71,0-1.2,0-1.22,0-.06.05.5.12.79.18,7.51.27,16.06.49,24.55.53l.27-.09c-.1-.01-.12-.02-.08-.03l-2.26-.02c-5.46-.02-10.65-.12-12.18-.29Z"/><path d="m147.6,6.63c-7.8.32-6.08.45-14.57.8,4.34-.08,8.77-.17,14.48-.52.64-.05,1.05-.11,1.95-.14,13.74-.52,3.62-.24.4-.19-.33.04.03.06-2.42.14l.48-.08c-.12,0-.23-.02-.32-.02Z"/><path d="m39.2,18.63c-1.81-.08-5.34-.19-8.96-.17-6.94.07-19.47-.41-24.09-.53,11.23.62,22.25.64,33.05.7Z"/><path d="m209.59,17.52l-8.08.03c-1.41,0-2.82.01-4.23.02.01.04-.86.08-2.16.1-1.3.02-3.03.04-4.73.06-7.98,0-15.46.11-22.51.29.68.03,2.85.05,4.31.02,12.08-.23,25.65-.24,37.39-.52Z"/><path d="m130.64,2.18c.41.11,1.81.18,9.77-.06,5.93-.17,13.41-.16,19.13-.32-8.62-.09-19.07.23-28.9.38Z"/><path d="m453.28,13.68c-2.77-.24-8.23-.54-14.23-.82,1.18.17-1.93.15-6.05.11,4.2.2,7.97.28,11.86.4,2.1-.02,5.48.17,8.42.31Z"/><path d="m220.17,1.65c-7.25-.04-22.34.16-31.38.42,8.94-.03,17.93-.21,26.9-.33.22-.08,2.42-.08,4.48-.09Z"/><path d="m230.78,4.5c1.21-.02,2.23-.04,2.95-.06.71-.02,1.11-.04,1.09-.07h-2.66s-.59-.02-.59-.02h1.97s1.63.01,1.63.01c2.48-.03,3.67-.07,3.87-.11-7.59.07-14.17.04-22.57.26.74.12,7.81.01,12.49,0,.61,0,1.22-.01,1.83-.02Z"/><path d="m139.35,18.22c-9.53.08-18.99.16-27.09.33,3.2.04,6.2.05,10.97-.06,6.05-.13,13.56-.12,20.24-.21l-.38-.08c-1.23,0-2.49.01-3.75.02Z"/><path d="m303,.3c-8.51.04-13.1.24-10.33.38l8.32-.04c-1.27-.08,4.88-.13,3.67-.21-2.42-.04-1.41-.09-1.65-.13Z"/><path d="m112.64,8.19l-13.85.79c6.99-.28,13.94-.55,20.48-.96l-.74-.09-5.89.26Z"/><path d="m349.19,5.05c-1.78-.03-3.55-.05-5.33-.08l-.93.05c7.76.14,15.66.33,22.86.35-2.31-.11-7.07-.22-7.95-.32-1.49-.01-2.76-.02-4.02-.03-.33.05-.53.09-4.63.03Z"/><path d="m313.28.15l.06-.08-10.33-.02c-2.12.09-1.96.17,0,.26,5.04,0,3.85.07,3.96.13.8.03,1.94.06,3.89.06,2.28,0,.92-.05.51-.07-1.57-.1-4.56-.22,1.92-.27Z"/><path d="m261.89,4.1l.12-.08c-7.06.03-14.8-.02-20.79.2,1.05.06-.51.21,7.33,0,3.41-.09,9.31-.03,13.34-.12Z"/><path d="m214.38,17.4l-.5.11c8.04-.03,15.29-.18,22.72-.35h-3.88c-4.12.02-4.19-.05-4.78-.1-.56,0-1.12.01-1.7.02,0,.07-.32.14-1.96.2-1.64.06-4.6.1-9.91.13Z"/><path d="m305.22,15.62c5.47-.07,10.96-.15,16.42-.22,3.54-.04,6.2-.08,6.56-.16-7.31,0-15.43.2-23.03.27-.02.04-.03.07.05.11Z"/><path d="m232.73,17.15h3.88c5.92-.03,12.06-.04,16.9-.28-5.32.05-10.89.11-16.85.17-2.82.04-3.79.06-3.93.11Z"/><path d="m392.88,5.44c.23.02.3.03.71.05,2.96.13-8.41-.04.19.18,6.2.16,10.19.14,9.65,0-3.64-.1-7.5-.26-10.55-.23Z"/><path d="m310.84,9.6c-2.32-.11-4.7-.19-9.74-.22-4.18-.02-7.81-.1-9.94-.21-1.46-.01-3.35-.05-3.89-.02,1.2.06,2.4.12,3.61.17,6.47.1,12.87.21,19.31.31l.65-.03Z"/><path d="m208.5,8.74c3.59-.1-2.09-.14-7.2-.17-3.77-.04-6.15-.03-7.74.01l.09.08c4.86.03,9.71.05,14.85.08Z"/><path d="m448.5,14.44c-7.51.04-16,.08-22.67.24,7.53.03,15.09-.17,22.63-.17l.04-.07Z"/><path d="m37.94,12.65c-1.12-.2-9.87.69-14.93,1.12.33.03-1.13.22,5.04-.33,3.08-.25,6.58-.52,9.89-.79Z"/><path d="m401.24,6.15c-.73-.07.04-.14-4.64-.25-6.32-.14-2.54.08-6.19.04,5.04.22,7.23.14,10.82.21Z"/><path d="m240.91.86c-3.08.07-6.16.14-9.25.21,5.82-.07,6.19,0,7.02.07.48.04,1.86.05,4.64.01,1.04-.02,2.66-.06,2.98-.08.92-.06-1.34-.04-3.12-.03-6.42.03,5.15-.22-.43-.21-.58,0-1.2.01-1.84.02Z"/><path d="m197.33,8.24c4.11-.02,9.7.25,12.9.07q-1.75-.13-12.9-.07Z"/><path d="m410.9,3.83c-5.44-.38-5.08-.44-6.31-.59-4.26-.26-8.95-.58-12.42-.67l.13.05c3.06.18,8.44.45,8.93.55,1.09.23,5.45.41,9.67.66Z"/><path d="m423.58,4.55c-2.65-.1,3.63.42,6.59.81,1.08.09,2.15.19,3.23.32.43.04.85.08,1.29.16.11.03.22.04.36.1.04.02.07.03.15.11.03.02.08.13.06.24-.02.06-.06.13-.11.17-.1.07-.17.08-.23.11-.24.07-.45.1-.67.13l.41-.04c.15-.03.25,0,.51-.15.06-.05.14-.13.15-.26,0-.19-.07-.22-.12-.28-.07-.06-.12-.08-.16-.1-.08-.03-.15-.06-.22-.08-.14-.04-.27-.07-.4-.1-.52-.11-1.04-.18-1.55-.24-1.02-.13-2.02-.23-3.03-.33-2.02-.18-4.05-.37-6.25-.57Z"/><path d="m39.12,18.19v-.11c-3.87-.05-7.75-.1-12.04-.15.02.03-.34.06.02.09.36.03,1.43.06,4.33.09,4.37.04,6.36.09,6.2.16,1.92-.01,1.32-.05,1.48-.09Z"/><path d="m433,12.97c4.11.04,7.23.05,6.05-.11-4.24-.07-10.45-.21-11.34-.12l.83.09,4.46.14Z"/><path d="m280.06.71c3.09,0,1.44.07,1.97.11l6.21-.05c.98-.13,1.11-.26-8.27-.17l.09.11Z"/><path d="m143.1,18.2l.38.08c4.02-.03,7.47-.09,10.4-.17-2.57-.22-6.73-.05-10.78.09Z"/><path d="m322.78,10.27s.42-.04.02-.07c-1.14-.08,4.81-.08-1.61-.21-5.69-.11-.78.09-1.6.13-.24,0-2.13-.02-3.26-.02,1.38.07,2.63.14,6.46.17Z"/><path d="m453.28,13.68c-2.95-.14-6.33-.33-8.42-.31l4.54.19c1.72.06,3.18.13,3.97.19,2.8.11,5.61.22,8.41.39l-1.75-.15-6.74-.32Z"/><path d="m67.24,11.1s-.16.03-.01.03c.72,0-2.37.24,2.7-.04,1.73-.09,4.96-.34,1.67-.22l-4.36.23Z"/><path d="m294.82,15.88c.14-.07,5.39-.19,4.13-.25l-6.35.1c.76.05-1.45.15,2.22.14Z"/><path d="m73.88,4.75c.14.04,2.15-.05,4.34-.15,9.16-.61-2.01.03.47-.17-.4.02-.93.05-1.59.09l-2.75.18c-.57.04-.73.06-.47.05Z"/><path d="m390.6,2.96l-4.13-.17c1.82.17,6.86.4,9.98.62l.23-.06-.17-.08c-1.12-.06-1.97-.11-2.81-.16-.32.02-1.72-.06-3.1-.14Z"/><path d="m68.21,18.75c-.35-.07-4.86-.04-6.19-.09l-3.3.03,2.66.05c2.19.02,4.46.03,6.83,0Z"/><path d="m434.24,6.7c.22-.03.43-.06.67-.13.06-.02.13-.04.23-.11.05-.04.1-.11.11-.17.02-.11-.03-.21-.06-.24-.07-.08-.11-.09-.15-.11-.14-.06-.24-.08-.36-.1-.44-.08-.86-.12-1.29-.16.55.1,1.06.12,1.66.37.02.01.05.04.08.09.04.06.02.17-.02.21-.08.09-.11.08-.16.1-.08.03-.15.04-.22.05-.14.02-.28.04-.42.05-.28.03-.55.04-.82.06-1.1.05-2.19.06-3.28.07l-.27.09c1.43,0,2.84.02,4.28-.07Z"/><path d="m336.84,4.95c-1.23-.08-2.89-.15-6.52-.12,1.74.06,2.44.16,6.52.12Z"/><path d="m390.25,14.88l-6.54.1c-.3.1,3.31.04,6.53,0v-.1Z"/><path d="m318.18,4.66c-3.1-.02-6.6-.07-8.78-.02,4.46.11,6.85.08,8.78.02Z"/><path d="m45.35,12.7c2.04-.18,4.4-.39,7.07-.62-2.27.19-3.62.16-7.07.62Z"/><path d="m460.03,14l1.75.15,1.03.08c.17.02.34.03.49.06h.04s.02.01.02.01c-.09,0-.16-.18-.14-.23-.01-.05.04-.15.1-.18.08-.03.04-.02.04-.02h-.05c-.06.01-.16.01-.24.02-.68.02-1.38.02-2.07.03l.17.04c.47,0,.94,0,1.41.01.23,0,.47,0,.7-.02h.07s.07-.02,0,0c-.07.04-.08.11-.07.19,0,.05.07.1.09.1h-.01s-.03-.01-.03-.01h-.08s-.34-.06-.34-.06c-.94-.09-1.91-.13-2.88-.17Z"/><path d="m363.47,1.3s-.05.01-.28,0c.3,0,.61.02.96.03.19-.02.39-.04.58-.06l-1.27.02Z"/><path d="m453.37,13.76c-.79-.06-2.26-.13-3.97-.19-.02.03.3.06.97.09.67.02,1.67.06,3.01.1Z"/><path d="m294.9.07c.23.03-.15.07,2.15.05,1.68-.01,1.37-.04.12-.05h-2.28Z"/><path d="m396.68,3.34l-.23.06c2.13.11,3.61.17,4.29.17l-4.06-.23Z"/><path d="m386.32,2.8l-5.44-.25c2.28.15,4.11.24,5.44.25Z"/><path d="m305.12,15.62l.05-.11c-1.38.01-2.09.03-2.16.06.19.03-.82.08,2.11.05Z"/><path d="m131.06,7.51l-.67-.04c-2.18.1-.83.08-1.3.12.66-.03,1.32-.05,1.97-.08Z"/><path d="m220.17,1.65c-2.06,0-4.25.01-4.48.09,1.88-.02,3.76-.03,4.48-.09Z"/><path d="m310.19,9.63c-6.44-.1-12.84-.2-19.31-.31-2.25-.03-3.23-.02-3.42,0l-.28.1c3.56.06,4.74.11,3.47.15-.6.02-1.43.04.93.08,1.38.01,4.3.04,4.35.04-.43-.16,9.02-.01,12.69-.04.75-.02,1.07-.02,1.58-.04Z"/><path d="m175.45,8.2c-4.39-.05-8.78-.1-13.05-.04,7.37.03,1.35.14,6.53.18l8.29.09c-1.06-.08-5.46-.17-1.77-.23Z"/><path d="m397.09,11.79c3.5.16,8.04.29,12.78.42-.14-.05.52-.08-.63-.14-1.54-.08,4.68.03-.96-.13-3.91-.11-3.15-.03-2.72.03.19.03.22.11-2.33-.04-4.66-.26-3.69-.05-6.13-.14Z"/><path d="m247.73,8.75l-6.25-.1c-.81.03-6.15,0-1.44.1,4.98.1,6.67.05,7.69,0Z"/><path d="m262.6,8.96c1.81,0,3.48-.01,2.38-.05-3.34-.11-7.16-.08-10.84-.13.32.1,5.13.13,8.46.18Z"/><path d="m374.53,10.94l-8.25-.19c.45.08,3.05.17,6.35.24,2.55.05,1.71-.02,1.9-.04Z"/><path d="m460.95,14.06c-.57,0-1.17,0-1.78.01l-.24.07c1.26,0,2.65-.02,3.88-.03.15,0,.3-.01.45-.02.06.01.18-.05.16.01-.02,0-.12-.02-.18-.03-.27-.03-.54-.05-.78-.07-.48-.03-.89-.05-1.17-.05l1.17.09.58.06.28.04h.06s.04.03,0,0c-.02-.05-.01-.06-.01-.09.05-.06.01-.02,0-.03h-.07c-.77.04-1.56.03-2.34.03Z"/><path d="m239.87,8.63c-.86-.09-3.8-.1-6.76-.1l.21.07c2.21.01,4.38.02,6.55.03Z"/><path d="m279.81,9.48c.45.01.87.03,1.3.04l1.18-.02c-.54-.01-1.17-.02-1.58-.03-.41,0-.6,0-.9.01Z"/><path d="m390.7,11.62l4.81.12c-.61-.04-1.05-.08-1.86-.1-2.33-.07-2.31-.03-2.95-.02Z"/><path d="m264.46,9.09l-2.02-.09c-3.14.01-.68.05,2.02.09Z"/><path d="m233.32,8.6c-.56,0-1.25-.01-1.8-.01-.27,0-.51,0-.68,0-.17,0-.27,0-.26.01,0,0,.81.03,1.22.03,1.9.02,1.36-.01,1.53-.03Z"/><path d="m287.18,9.44l.28-.1c-2.68,0-2.9.03-.28.1Z"/><path d="m343.8,10.5s-.37-.02-.66-.03c.04.02.37.02.66.03Z"/><path d="m454.7,14.14l-.09.04,4.28-.04c-1.37,0-2.78,0-4.19,0Z"/><path d="m270.75,9.13l.47.02c-.17,0-.35-.02-.47-.02Z"/><path d="m232.07,8.52l-.6-.04c-1.8,0-1.43.02.6.04Z"/><path d="m276.12.6c2.52-.09,6.46-.19,3.57-.25-1.23-.02-2.72-.04-5.31-.01-3.85.05-4.28.11-4.8.16,2,.03,2.99.08,1.29.17-.78.04-.59.07,1.68.04,2.73-.03,3.15-.08,3.57-.12Z"/><path d="m99.41,3.73c5.56-.26,3.71-.26,4.2-.34-2.06.08-4.96.24-5.25.19-.15-.03-2.15.03-3.98.13-1.87.1-3.6.25-4.26.32-1.09.12,2.51-.11,3.64-.14,2.22-.06,3.81-.1,5.65-.15Z"/><path d="m206.1,1.42c-3.78-.13-10.79.03-17.43.14,4.86.05,10.35.02,17.43-.14Z"/><path d="m211.25,1.35c-.71.01-1.42.02-2.14.04-.36.01-.59.02-1.1.04-3.99.09-6.64.18-2.53.21,1.08,0,4.03,0,3.53-.04-1.19-.07,11.93-.28,2.25-.25Z"/><path d="m257.15.62c-2,.02-4,.05-6,.07-.06.05-5.07.2.25.14,3.93-.04,6.68-.15,5.75-.22Z"/><path d="m228.81,1.11h-6.67c.16.03-3.44.13-.38.13,2.43,0,5.06-.06,7.05-.13Z"/><path d="m112.17,3c1.21-.03,1.94-.05,2.65-.06.76-.03,1.51-.07,2.26-.1-.64.01-1.23.02-1.94.04-.73.03-1.59.07-2.98.13Z"/><path d="m217.64,1.17l-5.77.11c-.27,0-.55.02-.83.03l.27.03c1.29-.02,2.89-.05,4.16-.07,1.27-.03,2.21-.05,2.18-.09Z"/><path d="m262.45.54c-1.71,0-3.42-.01-5.16.08l5.16-.08Z"/><path d="m124.71,2.4c.59,0,.88-.02,1.18-.04-.21,0-.43.01-1.18.04Z"/><path d="m39.83,11.99c-2.31.17-4.97.36-6.34.52-1.02.19-8.01.66-10.78.99-1.04.12-4.59.33-6.14.56-.95.14,2.51-.15,4.65-.3,2.18-.15,3.89-.29,6.9-.58,3.78-.36,8.19-.73,11.59-.86,2.04-.08,5.71-.39,7.87-.56,3.77-.3.71-.13-1.49,0-3.48.19-6.91.39-6.26.25Z"/><path d="m39.12,18.19c-.16.03.43.08-1.48.09-.48.04-5.58,0-3.06.09.88.03,2.91.07,4.24.08,4.46.02,1.5-.07,2.47-.1.54-.02.96-.03,1.77-.05,1.6-.02,6.28-.02,4.52-.08-2.02-.06-5.38,0-8.45-.03Z"/><path d="m23.98,18.15c-.44-.01-.86-.03-1.28-.04h-1.21c.54.02,1.14.04,1.59.05.39,0,.6,0,.9,0Z"/><path d="m79.22,9.55l2.06-.11c-.67.04-1.39.08-2.06.11Z"/><path d="m98.26,10.01c-.42,0-.55-.04-3.34.09.38.01,1.71-.03,3.34-.09Z"/><path d="m170.69,5.73l-4.25.12c-.05.05.93.09-.38.14-2.3.1-4.36.19-3.59.22.38.02,1.64-.04,2.15-.06,1.83-.11,7.97-.28,6.34-.33-.54-.02-.2-.07-.27-.1Z"/><path d="m183.02,5.5c-1.3,0-1.39-.05-4.37.03-.42.01-1.46.07-1.34.08.59.04,3.46-.05,5.72-.11Z"/><path d="m230.78,4.5c-.61,0-1.22.01-1.83.02,0,.01-.09.03.11.04.2,0,.7.01,1.9,0l-.18-.06Z"/><path d="m147.93,6.65l-.48.08c2.46-.08,2.09-.11,2.42-.14l-1.94.06Z"/><path d="m158.08,6.2l.74.02c2-.09-.05-.03-.74-.02Z"/><path d="m168.93,8.34c-5.18-.04.84-.15-6.53-.18-2.68,0-4.57,0-5.98.05-2.96.09-6.61.21-1.08.21,8.69.08,9.08-.04,13.59-.07Z"/><path d="m134,8.86c2.99-.09,7.78-.14,7.52-.23-.04-.02-.37-.03-1.1-.03-.74,0-1.89.02-3.58.07-3.29.1-8.1.28-8.29.32-.36.08,3.92-.11,5.45-.13Z"/><path d="m137.27,8.55c-2.34.03-3.8.02-5.5.07-2.15.06-5.98.17-6.12.23-.08.03,1.32.02,3.61-.05,2.46-.08,4.85-.15,8.02-.25Z"/><path d="m108.7,9.63c-.28-.01-.29-.04-2.47.04-.68.02-1.05.06-1.56.09l4.03-.13Z"/><path d="m145.52,8.48c-.68.02-.26.02.16,0h-.16Z"/><path d="m112.67,9.53l-.94.03-.94.03c.63,0,1.26-.02,1.89-.06Z"/><path d="m354.93,1.09c.43.08,2.59.17,5.61.26,3.84.12,2.33,0,2.7-.04-3.74-.15-3.89-.04-8.31-.22Z"/><path d="m306.96.43c-.11-.06,1.08-.13-4.02-.13.31.05-.7.1,1.72.13.77,0,1.53,0,2.3,0Z"/><path d="m354.89,1.09l-.46-.03c.17.01.33.02.46.03Z"/><path d="m139.35,18.22l3.78-.02c-.66-.02,1.27-.09-1.76-.06-1.72.01-2.15.06-2.02.09Z"/><path d="m190.4,17.73c1.7-.02,3.43-.04,4.73-.06,1.3-.02,2.17-.06,2.16-.1-2.54.05-5.37.09-6.89.16Z"/><path d="m410.9,3.83c-4.22-.24-8.58-.43-9.67-.66-.49-.1-5.87-.37-8.93-.55,1.68.17,3.01.31,5.1.53,4.48.42,12.7.93,19.42,1.27.84.04,1.26.04,2.29.11,3.82.26,4.09.15.29-.19q-1.59-.14-2.5-.12c-.43,0-.32.06-3.2-.13-.88-.06-1.86-.17-2.8-.26Z"/><path d="m427.88,6.63l2.26.02c3.99-.14-2.21-.24-2.01-.38l-6.27-.02c-.6.12,7.69.29,6.02.39Z"/><path d="m431.75,5.86c.56.08,1.12.15,1.68.23.28.04.55.09.82.14.13.03.26.06.38.09.06.02.12.04.16.05h.03s-.02.04.05-.05c.05-.06.09-.09.1-.09.04,0-.06-.01-.05-.05-.01-.02-.05-.07-.07-.1-.02-.03,0-.01,0-.02,0,0-.01,0-.02,0-.02,0-.04.01-.07.02l-.18.03-.38.04c-.26.02-.51.03-.75.05-.49.02-.95.04-1.37.06.06,0,.01.01.21.01,1.39-.02,1.98.02,2.58-.08.05.01.02-.07.09.03.06,0-.03.01-.04.05,0,0-.01-.01-.03-.02-.06-.03-.14-.06-.23-.09-.17-.05-.37-.1-.61-.15-.47-.09-1.07-.19-1.92-.29-5.03-.54.57.18-.39.14Z"/><path d="m420.72,4.74c-.6-.03-1.3-.08-1.25-.07.18.03.63.09.98.13.14,0,.33.01.49.02s.28.01.29,0c.02-.02-.29-.06-.51-.09Z"/><path d="m390.6,2.96c1.38.08,2.78.17,3.1.14-1.31-.08-3.14-.21-3.1-.14Z"/><path d="m396.51,3.26l.86.03c-.38-.02-.75-.03-.86-.03Z"/><path d="m112.64,8.19l5.89-.26c1.75-.22,11.61-.6,14.82-.84-.32-.04.5-.13-4.23.06,2.01-.01-1.43.16-3.6.27-2.66.14-3.93.14-4.93.14l-5.98.25c-11.22.65-11.43.69-1.97.37Z"/><path d="m120.59,7.57c1,0,2.27,0,4.93-.14,2.18-.11,5.62-.28,3.6-.27-3.23.13-7.24.27-8.53.42Z"/><path d="m91.25,8.98c5.67-.11,7.47-.39,11.15-.59-4.53.15-7.89.36-11.15.59Z"/><path d="m79.19,9.56l2.15-.12c-.71,0-1.43.04-2.15.12Z"/><path d="m349.19,5.05c4.1.07,4.3.02,4.63-.03-.62-.08,1.52-.03,3.8.03,1.28-.05.38-.16,6.28-.07,1.21-.07-5.25-.15-6.16-.23-8.31-.03-8.99.13-8.54.3Z"/><path d="m415.65,6.33l2.62.04c-1.47-.06-1.85-.04-2.62-.04Z"/><path d="m358.72,15.07c-1,.05-1.27.08-1.54.12,4.2-.06,8.38-.11,12.55-.17,3.77-.05,3.85-.1,4.01-.15-2.24.02-4.99.07-6.32.04l-8.7.15Z"/><path d="m358.72,15.07l8.7-.15v-.08c-2.84.04-5.69.08-8.54.12l-.16.12Z"/><path d="m417.4,14.34c-.08-.04-.29-.08-2.6-.06-1.04.02-2.42.05-3.64.08,1.49.03,3.94,0,6.24-.02Z"/><path d="m367.42,14.91c1.33.03,4.08-.02,6.32-.04-1.28-.03-3.85,0-6.32.04Z"/><path d="m392.38,14.82s1.97-.06.11-.06c-.2,0-.78.01-.96.01-1.2.04-.5.05.84.05Z"/><path d="m266.21,4.41c3.5-.04,6.65.2,10.4-.02.59-.16-7.01-.06-10.5-.08.05.04.08.07.1.11Z"/><path d="m309.78,4.38h-.85c.26,0,.53,0,.85,0Z"/><path d="m266.1,4.31h-.45c.16,0,.32,0,.45,0Z"/><path d="m454.7,14.14h4.23s.24-.08.24-.08c-1.48,0-2.58.01-3.32.02-.74.01-1.12.03-1.15.06Z"/><path d="m214.38,17.4c5.31-.03,8.27-.07,9.91-.13,1.64-.06,1.95-.12,1.96-.2l-2.28-.13c-7.9,0-12.39.2-18.54.3-.75.14-.22.24,8.94.15Z"/><path d="m314.99,15.62h.9s-.38-.02-.9,0Z"/><path d="m211.87,1.27h-1.48c.22.01.44.02.65.03.28,0,.56-.02.83-.03Z"/><path d="m294.75,15.88c.72,0,1.44,0,2.2,0,.02,0,.39-.01.59-.02-.91,0-1.81.02-2.79.03Z"/><path d="m176.38,17.52h-3.98c.28.05.47.1,3.98,0Z"/><path d="m357.18,15.19c.27-.04.54-.08.82-.12-2.05.03-4.34.06-4.69.11-.35.05,1.64.04,3.87,0Z"/><path d="m336.49,4.79c.24-.04.31-.07-1.72-.13.22.04-.71.07,1.72.13Z"/><path d="m326.38,4.45l.43.02c-.15,0-.3-.01-.43-.02Z"/><path d="m342.82,4.73c-.43-.03-.4-.07-1.42-.1-1.33-.04-2.6-.02-2.18,0,.84.05-3.4.08,2.99.16.21-.02.41-.05.61-.07Z"/><path d="m342.82,4.73c-.2.02-.4.05-.61.07,3.17.03,2.91,0,.61-.07Z"/><path d="m213.49,4.79c-.29,0-.55,0-.9,0-.04,0-.74.02-.78.02-.09.01.03.02.06.03l1.62-.04Z"/><path d="m60.09,18.48h.83c-.31,0-.62,0-.83,0Z"/><path d="m109.71,3.29l-3.24.16h.82c.86-.06,1.71-.11,2.42-.16Z"/><path d="m232.15,4.39h2.66c-.19-.03-.73-.04-1.27-.04l-1.39.04Z"/><path d="m357.61,5.05c-2.28-.06-4.42-.11-3.8-.03,1.27,0,2.54.02,3.8.03Z"/>
                  </g>
                </mask>
              </defs>
              <path class="mask" d="m37.16,7.98c20.36-1.94,51.37-4.39,90.09-5.43,11.89-.32,20.51-.39,26.85-.45C274.72.98,292.14-.46,339.66.74c50.04,1.27,95.6,4.51,95.36,5.49-.34,1.38-90.52-3.26-208.73-1.52C107.37,6.47-.22,14.1.34,16.7c.72,3.34,180.49.82,227.39.27,31.44-.37,44.88-.7,73.22-1.15,15.83-.25,45.11-.65,77.03-1.01,30.5-.35,45.75-.51,63.67-.58,18.5-.08,21.81-.01,21.81-.13.02-.72-134.02-5.15-292.56-5.75-5.24-.02-9.6-.03-12.62-.04,0,0-11.49-.03-48.41,1.21-34.65,1.17-80.71,2.67-97.19,9.53-2.02.84-6.71,2.79-5.68,5.03,1.25,2.71,9.24,4,11.29,4.25"
                    mask="url(#path-mask)" stroke="black" stroke-width="2" fill="none"
                    stroke-dasharray="1769.1854248046875" stroke-dashoffset="1769.1854248046875">
              </path>
            </svg>
        