
            <svg xmlns="http://www.w3.org/2000/svg">
              <defs>
                <mask id="path-mask">
                  <g fill="white">
                    <path d="m54.59,7.09c-1.46,0-.54.11-.83.17l-1.05-.06c-.86-.08-1.84-.16-2.67-.24-1.67-.19-4.82-.18-6.17-.04-.92-.03-1.5-.01-1.89.03-1.23-.07-3.05.01-4-.11-.26-.08-1.34-.16-.43-.23.65-.05,1.36-.07,2.41,0,.86.05,1.65.06,2.14,0h.81c1.01-.01,2.37.23,3.16.04.32,0,.89.03.91.03.8-.16,2.66-.05,4.27.01l.02.05c-.44.01-.35.02.15.04.08,0,.16,0,.25,0l.05.07c-.27,0-.68-.02-.67.01,0,0,.2.02.3.03.47.01.33-.02.38-.04h1.6c.13,0,.26,0,.4.01-.2.03-1.51.03-.35.11,1.22.08,1.63.02,1.88-.04.23-.06.75-.06,1.57,0,.08.1,1.25.1,2.07.14l-.04.03c-.77.03-.17.06.49.08.89.09.98,0,1.54.02l.11.02-.13-.02c.05-.06-.28-.14,1.35-.06,1.01.05,1.88.06,1.71-.04l1.01.03.88.15c-.55-.02-.79,0-.84.03-.66.01-.71.04-.07.11.87.04,1.16.08.84.13-.15.02-.35.05.22.08.17,0,.44,0,.66.01.22,0,.4,0,.4,0-.1-.16,2.21-.07,3.11-.12.18-.01.26-.03.39-.05l.16-.04c2.06.08,4.22.24,6.08.21.47,0,1.12.06,1.59.11.84.08,1.4.1,1.86.06l3.96.28.07.05c.11.07.74.14,1.55.18.62.03.42-.03.47-.06,2.21.12,4.41.24,6.72.37l-.09-.02s-.15-.05.29-.03c.13-.02.18-.05.74,0-.2.08.89.19,1.79.27,1.93.18,4.16.41,5.86.5,1.17.06,1.96.12,3.1.23.69.07.31-.04.37-.07,2.21.21,4.42.43,6.62.73l-.02.07c-.44-.02-.34.04-.13.11.36.13-.21.09-1.38-.06l-1.05-.08c-.62-.07-1.37-.16-1.65-.13l1.14.14c.14.05.81.16-.07.1-.45-.09-.91-.15-1.39-.15l-1.64-.16c-.66-.19-1.99-.4-3.45-.59-1.04,0-2.56-.08-2.79.03-1.45-.13-2.89-.27-4.35-.33-.03-.04.13-.08-.15-.13-.37-.07,1.15-.02-.23-.12-.96-.07-.77,0-.67.06.05.03.05.1-.57-.01-1.13-.21-.9-.01-1.89-.1-.15-.03-.25-.07-.45-.09-.57-.05-.57,0-.72.01-1.85-.13-3.66-.18-5.63-.36-1.02-.09-1.58-.01-1.89.04l-9.1-.47s.11-.04,0-.07c-.28-.07,1.18-.12-.39-.19-1.39-.07-.2.09-.4.14-.06.01-.52,0-.8,0-2.57-.03-5.34-.16-8-.27-.78-.03-2.04.02-2.65-.12-.7-.13-5.3-.42-6.77-.41Zm8.81.44l.29-.02c-.13,0-.29-.02-.39-.02-.1,0-.15.01-.22.02.11.01.21.02.32.03Zm15.13.55c.06,0,.14.01.21.02,0-.02-.09-.02-.21-.02Z"/><path d="m45.63,1.76c-3.4.19-6.76.22-10.14.36-.46-.18-2.63.07-4.04.12-.29-.04-.26-.14-1.76.04-.91.11-2.22.27-3.38.42-.94.1,1.9-.53-1.5.06-.5.07-1.2.21-1.28.14-.04-.03-.53,0-.97.1-.45.09-.86.21-1.01.28-.25.11.61-.08.89-.11.54-.06.93-.08,1.38-.11-.27.09-1.49.28-1.41.34-.77,0-3.35.68-3.38.54-.02-.08,1.02-.38,1.46-.56.45-.19,2.47-.6,4.09-.81.73-.11,1.43-.16,2.16-.26.7-.08,1.57-.13,2.08-.23.54-.13-1.4.11-1.05,0,1.11-.19,2.29-.33,3.6-.35.11.11.46.18,2.4-.04,1.45-.18,3.29-.1,4.68-.26l.54-.02h1.02c1.72.08,3.57.02,5.57-.17,1.19.05,2.54.04,4.27-.11l.73-.04c-.09.01-.14.03-.27.04-.97.09-1.62.17-.61.21.26,0,.99,0,.86-.03-.3-.07,2.91-.26.55-.26.63-.04,1.56-.07,1.55-.15l1.1-.05s-.84.13-.09.13c.6,0,1.24-.05,1.72-.11l.69-.03c1.43-.06,1.52.02,1.73.08.12.04.46.06,1.14.02.25-.01.65-.05.73-.07.22-.06-.33-.04-.77-.04-1.57.02,1.25-.21-.12-.21.34-.09,1.21-.13,2.04-.18l.02.05c-.01.05-1.23.19.07.14.96-.03,1.63-.13,1.43-.2l1.26-.06h1.75c.49.03.74.08.32.16-.19.04-.14.07.41.05.67-.02.77-.06.87-.1h.94s.03.12.03.12c-1.59.04-3.37.17-4.45.08-.41-.04-.99.02-1.09.09-.07.05.06.08-.61.14-2.75.25-5.58.41-8.5.48-1.78-.06-5.47.12-7.68.37Zm-18.1.63c.19-.02.37-.06.55-.09-.16,0-.3,0-.47.02-.18.02-.39.06-.72.11.3-.02.48-.03.65-.05Z"/><path d="m6.86,14.63c1.32.03,1.93.11,2.61.2.34.04.12.12,1.17.11.85-.01.66-.08.5-.14-.15-.06-.23-.11-.35-.17h3.12c.01.07-.35.15,1.06.14,1.07,0,1.56.02,1.52.1-.12.04-1.37.06-.75.12.22.02.71.05,1.04.04,1.09-.02.37-.08.6-.12.13-.02.23-.05.43-.07.39-.04,1.54-.07,1.11-.11-.5-.05-1.32.04-2.07.04v-.11c2.96-.02,5.83-.05,8.67-.07-.46.13-.76.27-3.2.22-.4,0-1.05,0-1.22.06-.17.05.33.06.88.05.18.06.36.11.48.18l-.81.05.65.04c-1.93.11-3.74.11-5.43.03-.44-.07-1.31-.15-2.2-.08-1.7.14-4.77-.11-5.91.06-1.65-.11-3.4-.14-5.1-.32.08-.13-1.21-.24-2.31-.48-.24-.06-.47-.12-.67-.21-.19-.09-.43-.19-.55-.5-.1-.36.13-.58.25-.7.15-.14.3-.23.47-.33-.04.06-.17.16-.34.31-.08.08-.17.17-.25.31-.1.12-.09.4.04.53.5.46,1.12.5,1.45.57.26.03,1.11.28,1.5.24.24-.02-.6-.16-1.11-.29-.51-.15-.95-.18-1.6-.51-.1-.06-.18-.15-.21-.27-.01-.12.06-.23.14-.33.16-.19.37-.33.59-.46.43-.25.88-.43,1.28-.53.48-.13,1.31-.48,1.8-.68.86-.33.14-.13-.38.02-.82.23-1.63.51-1.51.36l.5-.23c.95-.22,2.69-.84,4.21-1.24.59-.16,1.93-.57,1.57-.33-.09.05,1.74-.46,1.78-.51.09-.1.59-.22,1.26-.37l.49-.11c.92-.24,2.01-.53,1.65-.3-.45.18-.43.17.36.03.35-.06.81-.14.89-.13.28.02-1.12.3-1.33.4-1.4.32-2.87.75-4.08.91-.31.04-1.19.32-1.13.32.26-.02-1.66.52-.29.21-.05.05-.2.09-.75.24-1.81.49-3.65.96-5.36,1.78-.17-.07-.76.14-1.3.58-.13.11-.25.26-.24.36,0,.09.15.19.3.26.32.14.68.22.97.28,1.4.28,2.48.24,3.99.37-.36.04-1.46.1,1.09.18Zm5.99.27l-.3.03c.13,0,.28,0,.39.01.1,0,.15-.01.22-.02-.11,0-.21-.01-.31-.02Z"/><path d="m6.32,12.33c-.78.5-1.59,1.13-2.31,1.84-.35.36-.65.78-.95,1.15-.27.39-.51.79-.69,1.18-.39.64-.76,1.59-.71,2.63.02,1.04.57,2.04,1.18,2.7.35.38.52.5.82.71.47.32.81.43.87.42.07-.02-.13-.14-.62-.5-1-.79-1.13-1.21-1.27-1.48-.11-.31-.41-.83-.55-1.98-.03-.13,0-.61.05-.81.21-.99.71-1.87,1.29-2.7.6-.8,1.28-1.55,2.1-2.14,1.87-1.41,4.09-2.32,6.34-2.99,2.26-.68,4.58-1.15,6.92-1.52l-.02-.06c-.39.06-.72.11-.81.1-.69.14-1.52.3-2.09.41-1.38.27-3.03.75-4.11.99-.32.07-1.65.44-2.96.98-1.31.54-2.57,1.28-2.96,1.59-.13.1-.26.22-.23.21.25-.06-.54.41-.84.7-.37.34-.64.49-.93.82-.17.18-.64.8-.61.72.01-.05.28-.41.66-.88.85-.94,2.32-1.96,2.43-2.1Z"/><path d="m44.84,4.08c-1.23.13-2.7.25-3.5.42.36-.02.81-.04,1.06-.07.95-.12,1.84-.24,2.55-.2.58.03-.22.14-.8.24-1.02.18-1.81.21-2.65.23-.52.01-1.4.08-1.82.16-1.44.26-2.1.23-2.97.28-.55.06-1.25.16-1.4.12-.03,0,.22-.07.32-.08.73-.08.75-.03,1.07-.04l1.53-.36c-1.04-.04-2.36.21-3.6.4.04.05-.04.1-.94.23.02.03-.06.08.08.1.41.05-1.08.23-1.52.33-.12.03-.43.08-.52.07-.19-.03.3-.12.86-.23.31-.06.07-.1.08-.14-.49.11-1.91.22-2.04.35.18-.01.68-.07.2.02l-.19-.02c-.72.08-.3-.08-1.19.05-.31.05-.56.16-.83.24.02.03-.09.07-.51.15l.08.02.47-.07c.79-.06,3.25-.34-.07.18-.22.04-.31.1-.46.14,1.43-.22,2.93-.48,4.25-.54.16,0,2.08-.35,3.37-.51.35-.09.79-.15,1.56-.24,2.27-.28,4.66-.41,6.82-.72.88.04,2.44-.22,3.37-.22.91,0,1.64-.04,2.76-.16,1.52-.17,2.19-.15,2.23-.03l2.52-.13c-.12-.07.57-.15,1.08-.21-1.16-.05-2.36-.09.08-.28.31-.02.11-.05-.21-.05-.98.11-2.43.07-3.26.18-1.91.25-1.54.09-1.8.03l-.53.03s-.34.09-.94.13c-.07.06-.47.1-1.07.15l.05.06c-.59.04-.49,0-.5-.03-1.15.02-2.88.15-3.07.03Z"/><path d="m34.35,6.76c-.65.05-1.12.11-1.46.17-.72.12-1.6.26-.25.22,2.13-.06,2.21-.23,3.31-.32.68-.02,1.35-.01,2.03.02.95.12,2.77.05,4,.11l.02.08c-1.18-.03-2.54.04-3.42-.04-1.11-.12-2.25-.09-3.54.03-5.08.43-10.18,1.01-15.27,1.67-.09-.02-.09-.06.54-.17l.98-.14.51-.04c.16,0,.31-.02.46-.06,3.22-.41,3.67-.48,2.42-.47-.03,0-.05,0-.07,0-2.84.42-3.63.26-6.4.75-1.15.21-2.67.52-3,.49.75-.17,1.58-.41,1.84-.41.49-.01,1.28-.18,2.05-.3,2.76-.43,5.47-.71,8.31-1.06,2.03-.24,4.09-.45,6.17-.61,1.04-.08,2.09-.15,3.14-.19,1.07-.02,2.1.01,3.15.01.83,0,2.15,0,2.22.1-.49.06-1.28.06-2.14,0-1.05-.06-1.75-.04-2.41,0-1.09-.04-2.16,0-3.21.15Zm-5.07.67s-.32-.06-1.15.05c-.8.1-1.97.28-2.01.32-.08.08.95-.11,1.33-.13.73-.09,1.9-.15,1.83-.24Zm-2.4,0c-.52.06-1.46.17-1.49.23-.02.03.33.02.88-.04.6-.08,1.18-.15,1.95-.25-.57.03-.93.03-1.35.07Zm3.11-.12l.31-.03h-.04c-.23.01-.24.02-.27.03Z"/><path d="m73.06.67c1.26,0,2.25.03,3.66.16,2.06.18,4.63.37,6.96.64,1.17.13,2.41.35,3.51.45l.03-.1c-.25-.09-.9-.26-.11-.16,2.33.3,2.05.06,3.68.25-.86-.14-1.62-.25-2.3-.31-.09,0-.16-.02-.22-.03-.1.04.26.15-.67.04-.73-.09-1.26-.18-1.35-.26l-.12-.03.11.03c1.08.19,1.13.08,2.02.22.06,0,.08,0,.07,0-1.01-.27-2.28-.34-3.4-.5-1.45-.07-2.97-.25-4.5-.49-.46-.07-.76-.14-1.28-.11-.8.03-1.95-.09-3.06-.18-1.59,0-.86.14-.48.25.1.03.43.08-.13.07-.48,0-.75-.04-.95-.08l-.56-.02c.29.08-1.21.1-.9.19Z"/><path d="m44.96,14.4c1.01.02,2.05.03,3.43-.08,1.72-.18,3.55-.27,5.5-.27.37-.07,1.06-.12,1.68-.17l1.04-.03c-.12-.03-.32-.08-.36-.08-1.89.13-3.16.06-4.99.14-1.33.06-2.54.11-2.9,0-.02,0-.15,0-.22,0l-.75.07c.23.12-1.11.16-2.13.2-3.36.1-6.73.3-10.13.35-2.05.03-2.17.06-1.19-.11.3-.05.49-.11.73-.16-1.95.09-4.22.09-5.79.28.37,0,.73,0,1.11,0,.63-.01,1.52-.12,1.8-.05.11.03-.87.12-1.49.17-.33.03-.96.04-1.45.06-.41.01-.87.02-1.06.06-.26.05.17.06.6.07.67.01.86.09,1.9.05,1.32.04,2.78.04,4.51-.06,1.98-.18,4.29-.26,6.63-.34-.03-.03.07-.07.49-.09.74-.03.27.04.43.06.98-.14,1.99-.32,2.63-.09Z"/><path d="m21.29,8.4l.51-.04.23-.03.23-.03c3.22-.41,3.67-.48,2.42-.47-.03,0-.05,0-.07,0-2.84.42-3.63.26-6.4.75-1.15.21-2.67.52-3,.49-.82.21-2.3.55-2.9.81.79-.17.05.13-.36.24-1.19.35-.49.07-.67.08-.04,0,0-.02,0-.03-.93.23-2.45.85-3.42,1.32-.59.3-1.09.6-1.55.84-.11.14-1.58,1.16-2.43,2.1-.38.48-.64.83-.66.88-.02.07.45-.54.61-.72.29-.32.57-.48.93-.82.3-.29,1.09-.76.84-.7-.03,0,.1-.11.23-.21.38-.31,1.65-1.05,2.96-1.59,1.31-.54,2.63-.91,2.96-.98,1.08-.24,2.73-.72,4.11-.99.57-.11,1.39-.28,2.08-.41.67-.13.71-.11.81-.1l.02.06.99-.15c-.09-.02-.09-.06.54-.17.12-.03.21-.07.37-.09.53-.08.53-.05.6-.04Z"/><path d="m95.25,2.79l.02.05c.39.17.69.32,1.17.52,1.03.42,2.98.89,4.55,1.35.19.06.3.08.52.19.21.1.34.25.18.31-.1.06-.17.09-.17.11,0,.02.05.04.18.02.05-.03.2,0,.24-.24-.03-.21-.15-.25-.24-.34-.35-.23-.36-.21-.6-.23-.11,0-.1.04-.77-.19-.21-.07-.42-.18-.64-.27-1.28-.4-1.17-.45-1.45-.6.75.17,1.5.37,2.25.62.38.13.75.26,1.13.47.1.05.19.11.3.21.05.07.12.09.17.28.02.07,0,.17-.05.26-.05.07-.09.1-.15.14-.31.14-.49.12-.7.14.34-.09.09-.09-.31-.11-.4-.02-.97-.07-1.34-.12l-.8.03-1.61-.08s-.03-.02-.02-.03c.99-.06-.52-.29-.46-.41l.97.07s0,.01.05.02c.68.09.55.21,1.39.24,1.24.04-.14-.13.1-.18l.58-.05c.57.02,1.19.06,1.69-.01.06,0,.12-.03.13-.03h0s.05.07.05.08c.02.04.05.07.09.1,0,0,.02.01.02.01-.04,0-.07,0-.1.02-.02.01-.01.02-.04.04l-.09.05h0s-.03-.03-.05-.04c-.04-.03-.09-.06-.15-.09-.23-.12-.5-.23-.77-.32-1.09-.39-2.22-.69-3.32-.99l-.97-.23-.02-.08.21.03-.27-.05-.61-.13c-.31-.08-.74-.2-.74-.14l-1-.17.14.02.15.04c-.66-.22-2.36-.53-2.82-.75-.22-.11-2.38-.36-3.56-.47-.19-.01-.32-.02-.48-.03-.25-.09-.9-.26-.11-.16,2.33.3,2.05.06,3.68.25,1.56.22,3.06.52,4.47.89Zm6.27,2.24s.04.05.05.07c.02,0,0,.09.05.01.01-.02.09-.01.09-.01-.03,0,0,0-.05-.04-.05-.04-.04-.05-.03-.04,0,0,0,.01,0,.01.02.02.05.04.08.07.04,0-.07,0-.06,0,0,0,.01.01,0,0-.02-.01-.03-.03-.05-.04-.04-.03-.07-.04-.07-.04Z"/><path d="m33.69,5.4c.9-.12.98-.18.94-.23l-.85.09-.65.09c-1.63.19-3.2.37-4.91.67-.7.12-1.71.28-2.55.38-.92.1-2.66.39-2.95.45-3.09.66-6.09,1.17-9.06,1.75-1.09.22-1.76.43-2.65.64-2.26.54-4.52,1.13-6.74,1.85-1.11.38-2.22.75-3.29,1.34-.27.16-.53.3-.8.63-.06.08-.13.19-.16.34-.04.16.01.34.08.47.16.23.34.33.49.4.62.29,1.2.36,1.79.47.5.08,1.02.15,1.31.14.08-.13-1.21-.24-2.31-.48-.24-.06-.47-.12-.67-.21-.19-.09-.43-.19-.55-.5-.1-.36.13-.58.25-.7.15-.14.3-.23.47-.33.28-.23.88-.52,1.41-.74l.5-.23c.95-.22,2.69-.84,4.21-1.24.59-.16,1.93-.57,1.57-.33-.09.05,1.74-.46,1.78-.51.09-.1.59-.22,1.26-.37.15-.07.33-.11.5-.12.91-.24,1.99-.53,1.64-.3l.75-.16c.77-.22,1.57-.44,2.67-.59.89-.26,1.74-.54,2.94-.58l1.45-.25c.3-.14,1.27-.28,2.05-.41,1.14-.2.95-.1,1.04-.06,1.3-.34,2.63-.51,3.97-.62.28-.08.52-.19.83-.24.89-.13.47.03,1.19-.05.11-.12,1.53-.23,2.02-.35l1.03-.13Z"/><path d="m88.04,4.11c-.71-.12-1.5-.21-2.57-.21.6.1,1.19.2.47.23-.57.02-.99-.11-1.6-.12-.79-.17-1.25-.12-1.79-.09-.61.04-1.2.02-1.61-.1-1.44-.05-1.23.05-1.49.11.21.09,1.37.18,1.94.27.96.13,2.23.22,3.44.26.91.03,1.7.08,2.57.16.89.02-.02-.18,1.52-.07,1.14.08.95.16,1.12.22l1.02.07c-.07-.06-.2-.12-.18-.17.01-.03.48-.01.92.02.38.03.67.07.45.08-.33.01-1.22-.02-.28.09.23.03,1.07.03,1.62.04.18,0,.27-.02.63.04l-.64-.04c.37.18,1.64.26,2.98.32.42-.09-1.6-.31-1.45-.42-2.19-.11-2.16-.21-1.98-.3-.88-.05-1.6-.19-2.5-.22.12.14-.86.17-2.37.05-2.1-.17.69-.06-.03-.18-.1-.02-.12-.03-.17-.05Z"/><path d="m100.35,11.85l.83-.02,1.6-.08.59-.02s-.03-.02-.05-.03c-.35,0-.52-.02-.23-.05.04,0,.19,0,.23,0,.45.01-.02.04-.03.06.84-.01,1.45-.05,1.84-.11.62-.1,1.42-.13,2.06-.12.64,0,1.12.05,1.1.07-.12.14,1.2.11,2.16.13,1.21-.08,2.4-.1,3.65-.29.03,0,.08-.02.12-.04.03-.02.14-.03.15-.19-.1-.23-.19-.17-.28-.23-.17-.06-.34-.1-.48-.13-.29-.06-.47-.07-.33-.01.11.05.45.12.78.23.07.04.18.04.21.16-.06.09-.15.09-.22.11-.15.03-.27.04-.34.04-.88.01-2.24.2-2.73.06-.67,0-1.46.02-1.57-.05-.57,0-1.16.03-1.53,0-1.24.01-2.49.03-3.71.04-2.43.02-4.53.23-6.99.25v.08c.6-.02,1.23-.05,1.55,0-.04.05-.06.1-.98.13l.44.1,2.16-.06Z"/><path d="m55.96,3.49c.31,0,.52.03.21.05-2.44.19-1.24.23-.08.28l.94-.04-.02-.11h-.12s.11,0,.11,0c.86,0,2.71-.13,2.57.04,1.42-.05,2.71.07,4.29-.05.23-.02,1.22.02,1.27.08h1.5c.65-.08,2.54-.09,2.18-.23-.02,0,.33-.01.5-.02,1.11.23,1.58-.03,2.45.02,0-.01,0-.02,0-.04-2.56-.25-3.17-.06-4.08.05h-.2s.21,0,.21,0c-.26,0-.62-.02-.92-.03-.3,0-.54-.02-.55-.03-.26-.27-2.13-.1-3.65-.06-1.58.04-3.4.13-4.8.06-.69,0-.59-.11-1.78-.05l-.03.08Z"/><path d="m66.98.49h.94c2.29-.03,2.26.09,2.03.22.75.03.71-.03,1.08-.05-.68-.15.44-.34,2.53-.31-.48-.09-.51-.18,0-.26-.53-.1-.97-.04-1.43-.02.31.02.38.05-.03.05-.57,0-.47-.03-.53-.06-1.22-.12-3.01,0-4.3.05-2.12.08-4.43.14-6.43.34l.02.05,1.47-.06c.46-.09.88-.08,1.3-.07h1.75c.12-.06.23-.12,1.17-.15.64-.02,1,0,1.3.03.71.07-.25.15-.87.23Z"/><path d="m110.98,11.38c.5.14,1.85-.05,2.73-.06.07,0,.19-.01.34-.04.07-.02.17-.02.22-.11-.03-.11-.14-.11-.21-.16-.33-.11-.67-.17-.78-.23-.14-.06.05-.05.33.01.14.03.31.07.48.13.08.06.17,0,.28.23-.01.16-.12.17-.15.19-.04.01-.08.03-.12.04-1.25.2-2.44.21-3.65.29l.44.06h.59c.42-.04.85-.07,1.3-.1.47-.04.89-.02,1.47-.15.04-.02.11-.03.19-.13.14-.18.02-.37-.05-.43-.1-.08-.18-.11-.24-.13-.13-.05-.25-.08-.38-.11-.24-.06-.48-.11-.72-.15-.48-.09-.95-.15-1.41-.21-.44-.02-.34.04-.13.11.36.13-.21.09-1.38-.06l-.03.03s-.38.03-1.09-.06c-.15-.01-.29-.03-.43-.04.14.05.81.16-.07.1l.04.04c1.44.17,2.88.35,4.3.6.35.06.71.13,1.03.23.07.02.17.07.16.06.03.03-.08-.06-.06-.15,0-.03,0-.11.04-.15l.05-.05c.05-.02-.02,0-.03,0-.14.03-.33.05-.5.06-.71.05-1.44.07-2.17.1.47.07,1.33.14-.38.24Z"/><path d="m69.33,13.2c.6-.03.55.11,1.62-.05.8-.12,1.56-.04,2.36-.1.22-.15,1.3-.17,2.44-.17.97,0,1.76-.06,2.48-.14.75-.08,1.08-.16.28-.19-1.07.04-2.06.04-3.21.12-3.57.26-3.97.26-6.84.31-.07,0-.2,0-.22,0-1.45.22-3.69.14-5.17.34.15.06.17.13,1.18.1.03-.05.27-.07.96-.1,1.46-.06,2.82-.11,4.12-.13Z"/><path d="m110.98,11.38c1.72-.1.85-.17.38-.24-1.13-.02-1.89-.08-3.51.05-1.17.1-3.5.06-5.37.11-2.52.07-5.15.18-7.69.21-1.11.01-1.85.05-1.73.14.12.1,1.02.06,2.03,0l2.09-.07c2.46-.02,4.56-.22,6.99-.25,1.23-.01,2.48-.03,3.71-.04.3-.02.64-.06.89-.06.57,0,.62.04.64.07.1.07.9.05,1.57.05Z"/><path d="m67.68,3.52c.9-.11,1.52-.3,4.08-.05h2.05c.55,0,1.11-.02.98-.08-.96-.12-2.22-.09-3.27-.11-4.02-.07-8.05-.12-12.1.04-1.08.05-1.23.08-1.64.14,1.4.07,3.22-.02,4.8-.06,1.52-.04,3.39-.21,3.65.06,0,0,.25.02.55.03.3,0,.66.02.91.03Z"/><path d="m34.66,14.27c-.24.05-.44.11-.73.16-.98.17-.86.14,1.19.11,3.41-.05,6.78-.25,10.13-.35,1.02-.03,2.36-.07,2.13-.2-1.91-.06-3.99.05-6.27.2-1.47.1-2.6.11-2.32-.04-1.48.11-2.72.06-4.13.11Z"/><path d="m63.07,13.33c1.48-.2,3.72-.13,5.17-.34.02,0,.15,0,.22,0,2.87-.05,3.27-.05,6.84-.31,1.15-.08,2.13-.08,3.2-.12-.46-.1-.96-.19-2.73-.17l-1.29.13c-.47.1-1.21.12-2.24.16-1.26.04-2.79.13-3.89.18-2.21.1-4.16.33-6.27.37l.56.12c.14,0,.28-.01.41-.02Z"/><path d="m88.89,11.88c-.66.14-1.19.27,1.46.18.85-.03.32.04.26.07-1.3.12-2.74.13-3.68.13-2.37-.02-2.9.11-3.4.27l-.48.03c-1.56,0-4.11.09-1.7-.21.44-.05.42-.12.62-.18,1.34-.06,2.68-.12,4.02-.19.87-.04,1.52-.07,1.6-.15l1.49-.05c-.06.03-.03.06-.18.09Zm-4.27.29c-.05,0-.14,0-.27.02.07,0,.15,0,.27-.02Z"/><path d="m22.41,3.41c-.77,0-3.35.68-3.38.54-.02-.08,1.02-.38,1.46-.56.45-.19,2.47-.6,4.09-.81.73-.11,1.43-.16,2.16-.26.7-.08,1.57-.13,2.08-.23.54-.13-1.4.11-1.05,0-2.41.15-5.36.75-7.83,1.14-.78.12-.59.19-1.2.34-.59.17,2.11-.34-.09.16-.72.26-2.63.79-2.3.88.45-.1,1.04-.24,1.34-.28.75-.11.77.07,2.6-.48.02,0,.69-.1,1.11-.16,1.23-.2,2.4-.4,3.42-.62-.38-.1-1.73.27-2.43.35Z"/><path d="m15.75,4.29c-.61.14-1.05.24-1.37.28-.82.1-2.32.46-3.45.89-1.01.38-1.9.78-1.98.92-.14.27,1.15-.12,4.02-.97.7-.21,1.6-.39,2.41-.57.86-.31.5-.32-.47-.13-.98.19-1.86.48-2.52.75-.24.1-1.38.48-1.3.37.07-.1-.62.05-.22-.15.25-.12.36-.21,1.14-.46.81-.25,1.18-.3,1.29-.28.11.03.25.03,1.15-.21.88-.24,1.33-.38,1.3-.45Z"/><path d="m62.09,13.22c2.11-.04,4.06-.27,6.27-.37,1.09-.05,2.62-.14,3.89-.18,1.04-.03,1.77-.06,2.24-.16-1.78-.1-4.43.11-6.62.23-3.27.17-6.6.43-9.79.49l-.26.06c.47.03,2.14,0-.39.17-.83.05-1.29.14.13.08,1.5-.11,2.59-.32,4.53-.32Z"/><path d="m52.49,4.17c-.04-.12-.71-.14-2.23.03-1.12.13-1.85.16-2.76.16-.93,0-2.49.26-3.37.22-2.17.3-4.55.44-6.82.72-.78.09-1.21.15-1.56.24,2.1-.15,4.36-.39,6.8-.63,1.55-.16,3.13-.3,4.84-.38,1.48-.07,3.39-.25,5.12-.36Z"/><path d="m52.66.9l1.1-.05,1.64.02.7-.03,2.26-.2c-1.34-.12-3.99.08-5.9.17-3.79.18-7.62.36-11.43.54l-1.02.07c1.72.07,3.57.01,5.57-.17,1.62-.11,3.33-.25,4.27-.11l.74-.04.52-.03s-.03-.04-.05-.05l-.16-.02h.36s1.41-.1,1.41-.1Z"/><path d="m99.25,9.52c-1.45-.13-2.89-.27-4.35-.33-1.16-.08-2.27-.16-3.12-.29-.78-.05-1.17-.07-1.56-.1-1.85-.13-3.66-.18-5.63-.36-1.02-.09-1.58-.01-1.89.04,5.58.37,11.16.74,16.75,1.11l-.2-.08Z"/><path d="m90.6,12.14c-1.3.12-2.74.13-3.68.13-2.37-.02-2.9.11-3.4.27,3.89-.15,7.78-.24,11.67-.47.94-.06,1.53,0,2.29-.03,1.05-.05,2.67-.05,2.87-.19l-2.16.06-3.54.08-4.05.15Z"/><path d="m60.87,7.21c.05-.06-.28-.14,1.35-.06,1.01.05,1.88.06,1.71-.04-4.17-.22-8.34-.41-12.68-.42l.02.05.15.04c.08,0,.16,0,.25,0,.73,0,1.45,0,1.66.08.13,0,.26,0,.4,0l1.53.07c.23-.06.75-.06,1.57,0,.9.04,1.84-.02,2.65.08.27.03-.14.06-.58.06l-.04.03.49.08c.89.09.98,0,1.53.02Z"/><path d="m83.04,12.56c-1.56,0-4.11.09-1.7-.21.44-.05.42-.12.62-.18-.74.02-.5-.03-.54-.06l-.99.05c.31.06-.97.16-1,.23h.67s-.14,0-.14,0c-.18,0-.36,0-.54,0-.88,0-.35-.1-.53-.16-1.01-.05-2.03-.01-3.09.14,1.76-.02,2.27.07,2.73.17.8.03.47.1-.28.19-.72.08-1.52.14-2.48.14-1.14,0-2.22.02-2.44.17,2.56-.09,5.17-.28,7.7-.33,1-.02,1.52-.08,2.03-.16Z"/><path d="m57.56,13.55c-1.43.06-.96-.03-.13-.08,2.53-.16.87-.14.39-.17-.43.09-1.22.08-1.83.13.07.04-.39.13-.77.13-1.85.02-3.16.21-4.77.26-.86.1-.91.05-.98,0-.87-.02-1.09.04-1.34.1.08,0,.21,0,.22,0,.36.1,1.58.06,2.9,0,1.82-.08,3.1-.01,4.99-.14.05,0,.24.05.36.08l1.98-.04,1.05-.02.12-.11c-2.24.1-2.38,0-2.2-.14Z"/><path d="m30.27,14.92c-1.04.03-1.23-.04-1.9-.05-.43,0-.86-.02-.6-.07.2-.04.65-.05,1.06-.06.5-.02,1.12-.03,1.45-.06.62-.05,1.61-.14,1.49-.17-.28-.07-1.17.03-1.8.05-.38,0-.74,0-1.11,0-.48-.04-.92.02-1.37.04-.76.05-1.58.11-1.35.17.88.22-1.49.28-3.61.34.26.05,1.36,0,1.45.07,1.74-.08,3.39-.05,5.15-.11,1.26-.04.99-.09,1.13-.14Z"/><path d="m50.45,13.82c1.61-.06,2.92-.25,4.77-.26.37,0,.84-.09.77-.13-3.23.15-6.44.3-9.67.46-1.62.08-3.32.13-4.92.16-.97.02-1.76.07-2.61.12-.28.15.85.14,2.32.04,2.28-.16,4.36-.26,6.27-.2l.75-.07c.25-.06.46-.12,1.34-.1h.98Z"/><path d="m90.6,12.14l4.05-.15.04-.08c-.55.02-1.04.02-.95-.03.08-.05.64-.07,1.15-.08.19-.04.2-.08.21-.12-1.01.05-1.91.09-2.03,0-1.29,0-2.63.05-3.99.12-.06.03-.03.06-.18.09-.66.14-1.19.27,1.46.18.85-.03.32.04.26.07Z"/><path d="m73.81,3.47h-2.05s0,.03,0,.03l.11.02-.11-.02c-.87-.05-1.35.2-2.45-.02-.18,0-.52.01-.5.02.36.14-1.53.16-2.18.24.11.04.57.04.97.04.54-.06,1.39-.03,2.15-.02.56.03.91-.11,1.21,0,.32.12,1.24.06,1.76.1.89-.05,1.3,0,1.59.08.53.03,1.16.12,1.49.04l.23-.05c-.62-.05-.93-.12-1.8-.14-.59-.04-.37-.08-.42-.12-2.72-.14.36-.12,0-.2Z"/><path d="m52.72,7.2c-.86-.08-1.84-.16-2.67-.24-1.67-.19-4.82-.18-6.17-.04,1.25.02,2.64.04,1.76.15,2.4.07,4.8.15,7.08.13Z"/><path d="m73.81,3.67c-2.72-.14.36-.12,0-.2.55-.01,1.11-.02.98-.08,1.55.04,3.19,0,4.59.2.07.01.09.02.06.03-2.04.02-2.21.18-2.11.35l-1.3-.05c-.62-.05-.93-.12-1.8-.14.06-.04.08-.07-.42-.12Zm1.63-.07c-.33-.03-.64,0-.53.02.21.05-.84.1.73.15.78,0,.72-.02.15-.07-.11-.03-.1-.07-.34-.09Z"/><path d="m38.24,4.78c.47-.05.87-.02,1.4-.14,1.18-.26,1.3-.15,1.7-.14.36-.02.81-.04,1.06-.07.95-.12,1.84-.24,2.55-.2.58.03-.22.14-.8.24-1.02.18-1.81.21-2.65.23-.52.01-1.4.08-1.82.16-1.44.26-2.1.23-2.97.28.51-.12,1.02-.24,1.53-.36Zm5.67-.42s-.17.02-.19.03c-.02.01,0,.02.02.03l.39-.05c-.07,0-.14,0-.22,0Z"/><path d="m70.7,7.43c2.06.08,4.22.24,6.08.21.47,0,1.12.06,1.59.11.84.08,1.4.1,1.86.06-1.73-.21-3.84-.27-5.81-.34-2.56-.09-4.94-.33-7.53-.35-.37,0-.84-.02-1,0,.52.1,1.41.16,2.43.15,1.24,0,1.82.06,2.38.15Z"/><path d="m15.75,4.29c.02.06-.42.21-1.3.45-.91.25-1.04.24-1.15.21-.11-.03-.48.03-1.29.28-.78.24-.89.34-1.14.46-.4.2.28.05.22.15-.07.11,1.06-.28,1.3-.37.66-.27,1.53-.56,2.52-.75.97-.19,1.33-.17.47.13.33-.06.66-.12.98-.24-.33-.09,1.58-.61,2.3-.88-.53.08-1.02.15-1.07.11l-1.84.46Z"/><path d="m28.62,6.16c-1.34.11-2.67.27-3.97.62-.76.23-3.15.62-3.54.83l.2.09c.87-.12,1.66-.26,2.37-.43.11-.04-.22-.02.3-.12l.17.04c.15-.02.31-.04.48-.07,2.05-.35,1.6-.49,3.49-.81.42-.08.53-.12.51-.15Z"/><path d="m110.9,11.72l-.44-.06c-.96-.02-2.28,0-2.16-.13.02-.02-.46-.06-1.1-.07-.64,0-1.44.02-2.06.12-.39.06-1,.1-1.84.11.04,0,.05.02.07.03l-.04.11c2.5-.01,4.96.03,7.57-.12Z"/><path d="m93.94,8.59c-.2.08.89.19,1.79.27,1.93.18,4.16.41,5.86.5,1.17.06,1.96.12,3.1.23.69.07.31-.04.37-.07-2.43-.25-4.79-.5-7.35-.63-1.11-.06-2.51-.2-3.77-.29Z"/><path d="m57.03,3.78l-.94.04c-.5.07-1.19.15-1.07.21,2.54-.06,5.25-.22,7.83-.15,1.04.03,1.35-.12,2.29-.15-.05-.06-1.04-.1-1.27-.08-1.58.12-2.87,0-4.29.05-.91.24-1.69.01-2.54.07Z"/><path d="m14.5,8.67l-.75.16c-.44.18-.43.17.36.03.35-.06.81-.14.89-.13.28.02-1.12.3-1.33.4l1.06-.15,1.64-.32,3.31-.78c-2.3.32-2.25.28.43-.36-1.19.03-2.05.31-2.94.58-.88.19-1.28.47-2.67.59Z"/><path d="m22.55,15.1c2.12-.06,4.49-.12,3.61-.34-.23-.06.59-.12,1.35-.17-.24-.12-1.32.01-1.96.01-.46.13-.76.27-3.2.22-.4,0-1.05,0-1.22.06-.17.05.33.06.86.05h.23s-.2,0-.2,0l.54.17Z"/><path d="m79.38,3.6c.07.01.09.02.06.03.22.07,1.8.11,1.5.19.4.12,1,.14,1.61.1.53-.03,1-.08,1.79.09.61.02,1.04.14,1.6.12.72-.02.13-.13-.47-.23-2.06-.15-4.24-.38-6.1-.3Z"/><path d="m94.07,3.06c-.66-.22-2.36-.53-2.82-.75-.22-.11-2.38-.36-3.56-.47-.19-.01-.32-.02-.48-.03l-.03.1c1.79.34,3.49.49,5.25.86l1.31.24c.17.03.28.05.33.04Z"/><path d="m61.37,7.51c-.7-.13-5.3-.42-6.77-.41-1.46,0-.54.11-.83.17.93.01,1.86,0,2.74.09.19.02.84.05.88.05,1.19-.09,2.68.08,3.98.1Z"/><path d="m22.41,3.41c.7-.08,2.05-.44,2.43-.35.73-.04,1.43-.18,2.14-.29,1.18-.25,3.07-.41,4.48-.52-.29-.04-.26-.14-1.76.04-.91.11-2.22.27-3.35.41l-.62.13h-.2s.78-.13.78-.13c-.94.1,1.9-.53-1.5.06-.11.08.35.09-1,.3-.27.09-1.49.28-1.41.34Z"/><path d="m92.91,8.62s-.15-.05.29-.03c-3.08-.23-6.32-.56-9.01-.49l.07.05,2.02.12c2.2.12,4.41.23,6.63.35Z"/><path d="m31.45,2.25c-1.41.11-3.3.27-4.48.52.18.1,1.27-.14,1.85-.18,2.19-.19,4.46-.28,6.67-.46-.46-.18-2.63.07-4.04.12Z"/><path d="m67.94.6c-1.59.04-3.37.17-4.45.08-.41-.04-.99.02-1.09.09-.07.05.06.08-.61.14-.21.13,1.12.03,1.83,0,1.59-.06,3.2-.12,4.8-.19-.13-.04.27-.11-.48-.12Z"/><path d="m76.08.26c1.11.09,2.26.21,3.06.18.52-.03.82.04,1.28.11,1.53.24,3.05.42,4.5.49-1.42-.29-3.21-.47-4.96-.62-1.29-.1-2.57-.19-3.86-.24l-.02.08Z"/><path d="m5.77,14.45c-.36.04-1.46.1,1.09.18,1.32.03,1.93.11,2.61.2.34.04.12.12,1.17.11.85-.01.66-.08.5-.14-.15-.06-.23-.11-.35-.17-1.68-.03-3.35-.09-5.03-.19Z"/><path d="m93.12,4.51c-.18.09-.21.19,1.98.3l1.54.05.97.07c.41,0,.98.04,1.54.07l.58-.05c.05-.07-.62-.08-1.16-.11-1.82-.11-3.63-.22-5.44-.33Z"/><path d="m14.73,8.97l-1.06.15c-1.4.32-2.87.75-4.08.91-.31.04-1.19.32-1.13.32.26-.02-1.66.52-.29.21,2.16-.6,4.57-1.02,6.57-1.6Z"/><path d="m93.59,4.9c-.56-.01-1.39-.01-1.62-.04-.94-.11-.04-.08.28-.09.22,0-.06-.05-.45-.08-.44-.04-.91-.06-.92-.02-.02.05.11.12.18.17,1.83.25,3.91.4,5.99.54l.07-.09s-.03-.02-.02-.03l-.55-.05c-1.33-.06-2.61-.14-2.97-.32Z"/><path d="m28.11,6.31c-1.89.32-1.44.45-3.49.81,1.06-.08,2.14-.17,3.51-.52.15-.05.25-.11.46-.14,3.32-.53.86-.24.07-.18-.08.04.02.06-.58.14l.11-.08-.08-.02Z"/><path d="m16.89,15.22c-.44-.07-1.31-.15-2.2-.08-1.7.14-4.77-.11-5.91.06,2.75.1,5.46.08,8.1.01Z"/><path d="m58.59,13.81l-1.98.04-1.04.03c0,.09-.85.13-1.68.17-1.95,0-3.78.09-5.5.27.17.03.7.05,1.06.02,2.95-.21,6.28-.23,9.14-.52Z"/><path d="m31.37,1.74c.11.11.46.18,2.4-.04,1.45-.18,3.29-.1,4.68-.26-2.11-.12-4.67.15-7.08.29Z"/><path d="m105.48,10.08c-.66-.19-1.99-.4-3.45-.59.28.15-.49.18-1.5.19,1.02.15,1.94.17,2.89.23.52-.05,1.34.09,2.06.17Z"/><path d="m53.31,1.39c-1.78-.06-5.47.12-7.68.37,2.19-.03,4.39-.18,6.58-.29.05-.08.59-.08,1.1-.08Z"/><path d="m48.35,4.02c.59-.05,1-.09.98-.14l-.65.02-.15-.03.48-.02.4.02c.61-.04.9-.08.94-.13-1.86.1-3.48.1-5.52.34.19.12,1.92-.01,3.07-.03l.45-.03Z"/><path d="m41.41,14.52c-2.33.08-4.65.17-6.63.34.79.04,1.52.04,2.69-.07,1.48-.14,3.32-.13,4.95-.22l-.1-.08c-.3,0-.61.02-.92.02Z"/><path d="m73.56.34c-2.09-.03-3.21.16-2.53.31.68,0,1.35,0,2.03.02-.31-.09,1.19-.1.9-.18-.59-.05-.34-.1-.4-.14Z"/><path d="m19.68,7.87l-3.31.78c1.69-.28,3.37-.55,4.92-.95l-.2-.09-1.42.26Z"/><path d="m77.33,3.98l-1.3-.05-.23.05c1.9.09,3.82.24,5.59.22-.56-.09-1.72-.18-1.94-.27-.37,0-.68,0-.99,0-.08.05-.13.1-1.14.06Z"/><path d="m76.08.26l.02-.08c-.84-.05-1.69-.07-2.53-.1-.52.08-.48.16,0,.26,1.23.04.94.11.96.16.19.04.47.07.95.08.56,0,.23-.04.13-.07-.38-.11-1.11-.25.48-.25Z"/><path d="m55.96,3.49l.03-.08c-1.73.06-3.63.04-5.09.29.26.06-.11.21,1.8-.03.83-.11,2.28-.07,3.26-.18Z"/><path d="m59.76,13.69l-.12.11c1.97-.04,3.74-.2,5.56-.34l-.95-.02c-1.01.02-1.03-.05-1.18-.1-.14,0-.27.01-.42.02,0,.14-.3.27-2.9.34Z"/><path d="m81.96,12.18c1.34-.06,2.68-.12,4.02-.19.87-.04,1.52-.07,1.6-.15-1.79-.01-3.78.17-5.64.22,0,.04,0,.07.02.11Z"/><path d="m64.25,13.43l.95.02c1.45-.03,2.96-.03,4.13-.25-1.3.02-2.67.07-4.12.13-.69.03-.93.05-.96.1Z"/><path d="m88.04,4.11c.06.02.07.03.17.05.72.11-2.07,0,.03.18,1.51.12,2.5.09,2.37-.05-.89-.09-1.83-.22-2.58-.18Z"/><path d="m70.7,7.43c-.56-.09-1.15-.16-2.38-.15-1.03,0-1.91-.05-2.43-.15-.36,0-.82-.03-.95,0l.88.15c1.58.09,3.15.12,4.73.19l.16-.04Z"/><path d="m45.64,7.08c.88-.11-.51-.13-1.76-.15-.92-.03-1.51-.01-1.9.03l.02.08c1.19,0,2.38,0,3.64.04Z"/><path d="m111.66,10.31c.46.06.93.12,1.41.21.24.04.48.09.72.15.12.03.24.06.38.11.06.02.14.05.24.13.07.06.19.25.05.43-.08.1-.16.11-.19.13-.58.14-1,.11-1.47.15-.45.03-.89.06-1.3.09.46.01.93.01,1.39,0l.7-.04c.12-.01.24-.02.37-.04.14-.04.21.01.51-.16.02,0,.15-.16.15-.27.01-.1-.02-.2-.08-.28-.11-.14-.12-.1-.19-.16-.09-.05-.15-.07-.22-.09-.13-.04-.25-.07-.37-.1-.24-.05-.47-.09-.7-.13l-1.38-.21-.02.07Z"/><path d="m2.05,12.59c-.17-.07-.76.14-1.3.58-.13.11-.25.26-.24.36,0,.09.15.19.3.26.32.14.68.22.97.28-.03-.03.04-.05-.06-.1-.08-.06-.43-.08-.98-.36-.06-.03-.09-.08-.1-.09,0,0-.01,0,0-.05.05-.1.21-.23.36-.33.31-.22.68-.4,1.05-.56Z"/><path d="m90.05,4.77c-.18-.07.02-.14-1.12-.22-1.54-.11-.63.09-1.52.07,1.22.19,1.77.1,2.65.15Z"/><path d="m58.35.64l-2.26.2c1.42-.06,1.52.02,1.72.08.12.04.46.06,1.14.02.25-.01.65-.05.73-.07.22-.06-.33-.04-.77-.04-1.57.02,1.25-.21-.12-.21-.14,0-.29.01-.45.02Z"/><path d="m42.91,6.61c1.01-.03,2.37.22,3.16.03q-.43-.13-3.16-.03Z"/><path d="m99.68,4.06c-1.28-.4-1.17-.45-1.45-.6-1.02-.27-2.13-.58-2.98-.67l.02.05c.73.17,2.03.44,2.13.55.22.22,1.28.41,2.28.68Z"/><path d="m101.17,5.58c.34-.09.09-.09-.31-.11-.4-.02-.97-.07-1.34-.12l-.8.03-.64.11c1.05.09,1.96.08,3.08.09Z"/><path d="m16.87,14.78v-.11c-.95-.02-1.9-.05-2.95-.02.01.06-.35.13,1.06.12,1.07,0,1.56.02,1.52.1.47-.03.32-.07.36-.1Z"/><path d="m100.53,9.68c1.01-.01,1.78-.05,1.5-.19-1.04,0-2.56-.08-2.79.03l.2.08,1.09.08Z"/><path d="m67.94.6c.76,0,.35.08.48.12l1.52-.02c.24-.13.27-.25-2.03-.22l.03.11Z"/><path d="m42.32,14.49l.1.08c.98-.04,1.83-.09,2.54-.17-.64-.22-1.65-.05-2.64.09Z"/><path d="m73.6,8.02s.11-.04,0-.07c-.28-.07,1.18-.12-.39-.19-1.39-.07-.2.09-.4.14-.06.01-.52,0-.8,0,.34.06.64.12,1.58.13Z"/><path d="m105.48,10.08c-.72-.08-1.54-.22-2.06-.17l1.11.12c.42.03.78.07.97.12l2.05.17-.42-.08-1.64-.16Z"/><path d="m11.28,10.17s-.03.03,0,.03c.18,0-.53.27.67-.08.41-.12,1.15-.42.36-.24l-1.03.3Z"/><path d="m79.42,12.4c.03-.07,1.31-.16,1-.23l-1.55.07c.19.05-.35.15.55.15Z"/><path d="m17.59,3.83s.53-.03,1.07-.11c2.2-.5-.5,0,.09-.16-.1.01-.23.04-.39.07l-.66.15c-.14.04-.17.05-.11.05Z"/><path d="m94.78,3.17l-1-.17c.42.16,1.63.39,2.37.6l.07-.06-.02-.08c-.27-.06-.47-.11-.67-.15-.08.03-.42-.06-.74-.14Z"/><path d="m24,15.17c-.09-.07-1.19-.02-1.52-.06l-.81.05.65.04c.54.01,1.09,0,1.67-.02Z"/><path d="m74.31,3.94c-.3-.07-.7-.13-1.59-.08.43.05.59.15,1.59.08Z"/><path d="m102.78,11.75l-1.6.08c-.07.1.81.05,1.6.02v-.1Z"/><path d="m69.75,3.77c-.76,0-1.61-.03-2.15.02,1.09.08,1.67.04,2.15-.02Z"/><path d="m6.32,12.33c.45-.24.95-.54,1.55-.84-.51.23-.86.3-1.55.84Z"/><path d="m107.13,10.24l.42.08,1.01.11-.04-.04c-.45-.09-.91-.15-1.39-.15Z"/><path d="m88.32,1.55s-.01.01-.07,0c.07,0,.15.02.23.03l.15-.06-.32.02Z"/><path d="m105.5,10.16c-.19-.05-.55-.09-.97-.12-.02.06.31.1.97.12Z"/><path d="m71.57.06c.06.03-.04.07.53.06.41,0,.34-.03.03-.05h-.56Z"/><path d="m96.22,3.54l-.07.06c.51.1.86.17,1.04.17l-.97-.23Z"/><path d="m93.75,3.01l-1.31-.24c.54.15.98.23,1.31.24Z"/><path d="m81.94,12.17v-.11c-.33,0-.5.03-.52.05.05.03-.2.08.52.06Z"/><path d="m24.14,7.19l-.17-.04c-.52.1-.19.08-.3.12.16-.02.32-.05.47-.08Z"/><path d="m53.31,1.39c-.5,0-1.04,0-1.09.08.46-.01.92-.02,1.09-.08Z"/><path d="m70.54,7.47c-1.57-.07-3.14-.09-4.73-.19-.55-.02-.79,0-.84.03l-.07.11c.87.04,1.16.08.84.13-.15.02-.35.05.22.08.17,0,.44,0,.66.01.22,0,.4,0,.4,0-.1-.16,2.21-.07,3.11-.12.18-.01.26-.03.39-.05Z"/><path d="m37.55,6.61c-1.09-.04-2.16,0-3.2.15,1.8-.11.34.11,1.61.06.68-.02,1.35-.01,2.03.02-.26-.08-1.34-.16-.43-.23Z"/><path d="m91.77,8.9c.85.12,1.96.21,3.12.29-.03-.04.13-.08-.15-.13-.37-.07,1.15-.02-.23-.12-.96-.07-.77,0-.67.06.05.03.05.1-.57-.01-1.13-.21-.9-.01-1.5-.07Z"/><path d="m55.25,6.93l-1.53-.07c-.2.03-1.51.03-.36.11,1.22.08,1.63.02,1.88-.04Z"/><path d="m58.89,7.08c.44,0,.85-.03.58-.06-.82-.1-1.75-.04-2.65-.08.08.1,1.25.1,2.07.14Z"/><path d="m86.28,8.27l-2.02-.12c.11.07.74.14,1.55.18.62.03.42-.03.47-.06Z"/><path d="m108.59,10.29c.14.01.28.03.43.04l.07-.06c-.61-.06-1.36-.16-1.64-.12l1.14.14Z"/><path d="m53.33,6.85c-.21-.09-.93-.08-1.66-.08l.05.07c.54,0,1.07,0,1.61,0Z"/><path d="m63.09,7.5c.11.01.21.02.32.03l.29-.02c-.13,0-.29-.02-.39-.02-.1,0-.15.01-.22.02Z"/><path d="m90.21,8.8l1.18.08c-.15-.03-.25-.07-.45-.09-.57-.05-.57,0-.72.01Z"/><path d="m59.34,7.19l-.49-.08c-.77.03-.17.06.49.08Z"/><path d="m51.72,6.85c-.27,0-.68-.02-.67.01,0,0,.2.02.3.03.47.01.33-.02.37-.04Z"/><path d="m64.9,7.42l.07-.11c-.66.01-.71.04-.07.11Z"/><path d="m78.75,8.09s-.09-.02-.16-.03c0,.02.09.02.16.03Z"/><path d="m110.12,10.4l.03-.03-1.05-.08c.33.04.68.08,1.02.12Z"/><path d="m60.88,7.21l.11.02s-.08-.01-.11-.02Z"/><path d="m51.42,6.77l-.15-.04c-.44.01-.35.02.15.04Z"/><path d="m66.98.49c.61-.08,1.58-.16.87-.23-.3-.03-.67-.05-1.3-.03-.94.03-1.05.09-1.17.15.49.04.74.09.32.17-.19.04-.14.07.41.05.67-.02.77-.06.87-.1Z"/><path d="m23.82,3.07c1.34-.22.88-.23,1-.3-.5.07-1.2.21-1.28.14-.04-.03-.53,0-.97.1-.45.09-.86.21-1.01.28-.25.11.61-.08.89-.11.54-.06.93-.08,1.38-.11Z"/><path d="m49.85,1.14c-.93-.14-2.64,0-4.27.11,1.19.05,2.54.04,4.27-.11Z"/><path d="m51.1,1.07l-.52.03c-.09.01-.14.03-.27.04-.97.09-1.62.17-.61.21.26,0,.99,0,.86-.03-.3-.07,2.91-.26.54-.25Z"/><path d="m62.33.44l-1.47.06c-.01.05-1.23.19.07.14.96-.03,1.63-.13,1.4-.2Z"/><path d="m55.4.87l-1.64-.02s-.84.13-.09.13c.6,0,1.24-.05,1.72-.11Z"/><path d="m26.88,2.44c.3-.02.48-.03.65-.05.19-.02.37-.06.55-.09-.16,0-.3,0-.47.02-.18.02-.39.06-.72.11Z"/><path d="m52.66.9l-1.41.09c-.07,0-.13.02-.2.02l.07.03c.63-.04,1.56-.07,1.55-.15Z"/><path d="m63.62.38c-.42-.01-.84-.02-1.26.06l1.26-.06Z"/><path d="m29.92,1.92c.15,0,.22-.01.29-.02-.05,0-.11,0-.29.02Z"/><path d="m2.28,11.93c-.53.22-1.14.51-1.41.74-.04.06-.17.16-.34.31-.08.08-.17.17-.25.31-.1.12-.09.4.04.53.5.46,1.12.5,1.45.57.26.03,1.11.28,1.5.24.24-.02-.6-.16-1.11-.29-.51-.15-.95-.18-1.6-.51-.1-.06-.18-.15-.21-.27-.01-.12.06-.23.14-.33.16-.19.37-.33.59-.46.43-.25.88-.43,1.28-.53.48-.13,1.31-.48,1.8-.68.86-.33.14-.13-.38.02-.82.23-1.63.51-1.51.36Z"/><path d="m16.87,14.78s.11.07-.36.1c-.12.04-1.37.06-.75.12.22.02.71.05,1.04.04,1.09-.02.37-.08.6-.12.13-.02.23-.05.43-.07.39-.04,1.54-.07,1.11-.11-.5-.05-1.32.04-2.07.04Z"/><path d="m13.16,14.92c-.11,0-.21-.01-.31-.02l-.3.03c.13,0,.28,0,.39.01.1,0,.15-.01.22-.02Z"/><path d="m11.6,9.24l.49-.11c-.16.04-.33.08-.49.11Z"/><path d="m18.77,8.79c-.11,0-.14-.03-.81.1.1.01.42-.04.81-.1Z"/><path d="m33.69,5.4l-1.03.13s.24.08-.08.14c-.56.11-1.05.2-.86.23.1.01.4-.04.52-.07.44-.11,1.93-.28,1.52-.33-.13-.02-.06-.06-.08-.1Z"/><path d="m36.71,5.14c-.32,0-.35-.04-1.07.04-.1.01-.35.07-.32.08.15.04.85-.05,1.4-.11Z"/><path d="m48.35,4.02l-.45.03s-.09.07.5.03l-.05-.06Z"/><path d="m28.19,6.33l-.11.08c.6-.09.5-.11.58-.14l-.47.07Z"/><path d="m30.64,5.87l.19.02c.48-.09-.02-.03-.19-.02Z"/><path d="m35.95,6.82c-1.27.05.2-.17-1.61-.06-.66.05-1.12.11-1.46.17-.72.12-1.6.26-.25.22,2.13-.06,2.21-.23,3.31-.32Z"/><path d="m27.45,7.67c.73-.09,1.9-.15,1.83-.24-.02-.03-.32-.06-1.15.05-.8.1-1.97.28-2.01.32-.08.08.95-.11,1.33-.13Z"/><path d="m28.22,7.35c-.57.03-.93.03-1.35.07-.52.06-1.46.17-1.49.23-.02.03.33.02.88-.04.6-.08,1.18-.15,1.95-.25Z"/><path d="m21.29,8.4c-.07-.01-.08-.04-.6.04-.16.03-.25.06-.37.09l.98-.14Z"/><path d="m30.24,7.27c-.16.03-.06.02.04,0h-.04Z"/><path d="m22.26,8.3l-.23.03-.23.03c.16,0,.31-.02.46-.06Z"/><path d="m86.23,1.33c.1.08.62.17,1.35.26.93.12.58,0,.67-.04-.91-.15-.96-.04-2.03-.22Z"/><path d="m74.52.5c-.02-.05.27-.12-.98-.16.08.05-.17.09.42.14l.56.02Z"/><path d="m86.22,1.33l-.11-.03s.08.02.11.03Z"/><path d="m41.41,14.52l.93-.02c-.16-.02.31-.09-.43-.06-.42.02-.52.06-.49.09Z"/><path d="m53.9,14.04c.83-.04,1.69-.08,1.68-.17-.62.05-1.31.1-1.68.17Z"/><path d="m99.68,4.06c-1-.27-2.06-.45-2.28-.68-.1-.1-1.39-.37-2.13-.55.39.17.69.32,1.17.52,1.03.42,2.98.89,4.55,1.35.19.06.3.08.52.19.21.1.34.25.18.31-.1.06-.17.09-.17.11,0,.02.05.04.18.02.05-.03.2,0,.24-.24-.03-.21-.15-.25-.24-.34-.35-.23-.36-.21-.6-.23-.11,0-.1.04-.77-.19-.21-.07-.42-.18-.64-.27Z"/><path d="m96.55,5.22l.55.05c.98-.06-.52-.29-.46-.41l-1.54-.05c-.15.1,1.86.33,1.45.42Z"/><path d="m99.15,5c-.55-.03-1.12-.08-1.54-.07.02,0,0,.01.05.02.68.09.55.21,1.39.24,1.24.04-.14-.13.1-.18Z"/><path d="m101.7,5.1s-.07,0-.06,0c0,0,.01.01,0,0-.02-.01-.03-.03-.05-.04-.04-.03-.07-.04-.07-.04,0,.02.04.05.05.07.02,0,0,.09.05.01.01-.02.09-.01.09-.01-.03,0,0,0-.05-.04-.05-.04-.04-.05-.03-.04,0,0,0,.01,0,.01.02.02.05.04.08.07Z"/><path d="m94.78,3.17c.33.08.66.17.74.14-.31-.08-.74-.2-.74-.14Z"/><path d="m96.2,3.46l.21.03c-.09-.02-.18-.03-.21-.03Z"/><path d="m19.68,7.87l1.42-.26c.4-.22,2.79-.6,3.54-.83-.09-.03.1-.13-1.04.06.5-.01-.33.16-.85.27-.64.14-.95.14-1.2.14l-1.45.25c-2.68.64-2.72.69-.43.36Z"/><path d="m21.55,7.25c.25,0,.56,0,1.2-.14.52-.11,1.35-.28.85-.27-.78.13-1.75.27-2.05.41Z"/><path d="m14.5,8.67c1.4-.11,1.79-.39,2.67-.59-1.1.15-1.9.36-2.67.59Z"/><path d="m11.59,9.25l.51-.12c-.18,0-.35.04-.51.12Z"/><path d="m77.33,3.98c1,.04,1.05,0,1.14-.06-.15-.08.37-.04.93,0,.32-.06.1-.16,1.54-.11.3-.08-1.28-.12-1.5-.19-2.04.02-2.21.18-2.11.35Z"/><path d="m93.58,4.9l.64.04c-.36-.06-.45-.04-.64-.04Z"/><path d="m95.06,11.79c-.24.04-.31.08-.37.12,1.03-.03,2.05-.07,3.07-.1.92-.03.94-.08.98-.13-.55,0-1.22.04-1.55,0l-2.13.11Z"/><path d="m109.42,11.33s-.07-.08-.64-.07c-.26,0-.59.04-.89.06.36.04.96.02,1.53,0Z"/><path d="m97.18,11.68c.33.04,1,0,1.55,0-.32-.04-.94-.02-1.55,0Z"/><path d="m103.3,11.7s.48-.05.03-.06c-.05,0-.19,0-.23,0-.29.03-.12.05.21.05Z"/><path d="m57.03,3.78c.86-.06,1.63.17,2.54-.07.14-.16-1.72-.03-2.57-.04.01.04.02.07.03.11Z"/><path d="m67.69,3.53h-.21c.07,0,.13,0,.21,0Z"/><path d="m57,3.67h-.11s.08,0,.11,0Z"/><path d="m110.12,10.4l-1.03-.12-.07.06c.72.09,1.07.11,1.09.06Z"/><path d="m59.76,13.69c2.6-.07,2.9-.2,2.9-.34l-.56-.12c-1.94,0-3.03.21-4.53.32-.18.14-.04.24,2.2.14Z"/><path d="m84.36,12.2h.22s-.09-.02-.22,0Z"/><path d="m79.4,12.4c.18,0,.35,0,.54,0,0,0,.09-.01.14-.02-.22,0-.44.01-.68.02Z"/><path d="m50.45,13.82h-.98c.07.05.12.1.98,0Z"/><path d="m94.68,11.91l.2-.11c-.5.02-1.06.04-1.15.08-.09.05.4.04.95.03Z"/><path d="m74.23,3.79c.06-.04.08-.07-.42-.12.05.04-.18.07.42.12Z"/><path d="m71.76,3.51l.11.02s-.07-.01-.11-.02Z"/><path d="m75.78,3.69c-.11-.03-.1-.07-.34-.09-.33-.03-.64,0-.53.02.21.05-.84.1.73.15l.15-.07Z"/><path d="m75.78,3.69l-.15.07c.78,0,.71-.02.15-.07Z"/><path d="m44.13,4.36c-.07,0-.14,0-.22,0-.01,0-.17.02-.19.03-.02.01,0,.02.02.03l.39-.05Z"/><path d="m22,14.93h.2c-.08,0-.15,0-.2,0Z"/><path d="m26.31,2.71l-.78.13h.2c.2-.05.41-.1.58-.13Z"/><path d="m48.68,3.9l.65-.02s-.18-.02-.31-.03l-.34.05Z"/><path d="m79.4,3.92c-.56-.05-1.08-.09-.93,0h.93Z"/>
                  </g>
                </mask>
              </defs>
              <path class="mask" d="m8.96,6.51c4.75-1.57,11.99-3.54,21.02-4.38,2.78-.26,4.79-.32,6.27-.36,28.15-.9,32.21-2.06,43.3-1.09,11.68,1.02,22.31,3.64,22.25,4.43-.08,1.11-21.12-2.63-48.71-1.23C25.34,5.3.23,11.45.37,13.55c.17,2.7,42.12.66,53.06.22,7.34-.3,10.47-.56,17.09-.93,3.69-.2,10.53-.53,17.97-.82,20.1-.79,25.76-.48,25.77-.86.02-.94-34.72-3.87-74.09-4.35-1.19-.01-2.2-.02-2.94-.03,0,0-2.68-.03-11.3.98-8.09.94-18.83,2.15-22.68,7.68-.47.68-1.57,2.25-1.32,4.06.28,2.12,2.23,3.21,2.63,3.43"
                    mask="url(#path-mask)" stroke="black" stroke-width="2" fill="none"
                    stroke-dasharray="433.1661376953125" stroke-dashoffset="433.1661376953125">
              </path>
            </svg>
        