
            <svg xmlns="http://www.w3.org/2000/svg">
              <defs>
                <mask id="path-mask">
                  <g fill="white">
                    <path d="m235.31,6.59c4.43.07,1.62-.07,2.5-.1l3.19.1c2.61.11,5.65.24,8.13.34,5.09.25,14.64.43,18.72.4,2.8.09,4.57.11,5.75.1,3.72.14,9.26.21,12.14.39.79.08,4.06.23,1.31.22-1.98-.01-4.13-.05-7.3-.18-2.62-.11-5.01-.17-6.49-.15l-2.47-.07c-3.06-.05-7.2-.34-9.59-.23-.96-.03-2.72-.08-2.76-.08-2.42.09-8.07-.12-12.96-.25l-.07-.04c1.34.01,1.07,0-.44-.04-.24,0-.5-.01-.77-.02l-.16-.06c.42,0,.93.02,1.34.03.41,0,.71.01.7,0,0,0-.6-.03-.91-.04-1.41-.03-1.01,0-1.16.01l-4.84-.08c-.39,0-.79-.02-1.2-.03.6-.02,4.57.04,1.07-.07-3.7-.12-4.96-.1-5.71-.06-.7.04-2.28.02-4.76-.07-.24-.09-3.81-.14-6.29-.2l.12-.02c2.33,0,.51-.04-1.5-.09-2.72-.11-2.97-.03-4.68-.07l-.35-.02.39.02c-.16.05.86.13-4.08,0-3.08-.08-5.72-.11-5.18-.02l-3.05-.05-2.68-.15c1.66.03,2.4.03,2.53,0,1.99,0,2.16-.02.21-.09-2.65-.06-3.53-.1-2.58-.13.45-.01,1.06-.03-.69-.07-1.02-.01-3.19-.03-3.23-.03.32.14-6.7,0-9.44.04-.55.02-.79.02-1.18.03l-.48.03c-6.26-.1-12.83-.26-18.46-.24-1.42,0-3.41-.06-4.82-.1-2.55-.07-4.27-.08-5.66-.05l-12.06-.23-.22-.04c-.33-.06-2.27-.12-4.72-.14-1.9-.02-1.27.03-1.41.06-6.7-.06-13.4-.12-20.43-.18l.28.02c-.09.02.45.04-.88.03-.38.02-.52.05-2.24.03.6-.08-2.75-.14-5.47-.18-5.87-.09-12.69-.2-17.84-.19-3.57-.01-5.96-.02-9.43-.03-2.1-.02-.94.05-1.11.09l-20.19-.1.03-.07c1.33-.03,1.01-.07.36-.12-1.13-.08.59-.11,4.19-.09l3.18-.02c1.9,0,4.19.03,5.02-.02l-3.49-.04c-.44-.03-2.5-.08.17-.1,1.39.05,2.81.06,4.26.03l5.02.03c2.06.13,6.13.23,10.59.33,3.16-.05,7.77-.06,8.43-.17,4.41.04,8.81.08,13.27.13.11.04-.39.08.47.11,1.15.05-3.48.06.72.1,2.91.03,2.34-.03,2.02-.08-.14-.02-.16-.09,1.73,0,3.46.16,2.74-.02,5.73.04.45.02.78.06,1.39.07,1.73.03,1.72-.01,2.19-.03,5.64.08,11.13.09,17.12.22,3.11.07,4.78,0,5.71-.06l27.67.44s-.31.04-.02.06c.85.07-3.58.09,1.2.17,4.23.08.58-.08,1.19-.12.18,0,1.58,0,2.42.01,7.8.07,16.22.24,24.31.41,2.36.05,6.19.05,8.06.18,2.14.13,16.1.55,20.59.62Zm-26.78-.71h-.88c.4.02.87.03,1.18.04.3,0,.45,0,.67,0-.33-.01-.65-.02-.97-.04Zm-45.98-.72c-.17,0-.42,0-.63-.01.03.01.27.02.63.01Z"/><path d="m112.86,8.62c-10.34.17-20.53.33-30.8.5-1.38-.17-8.02.05-12.3.1-.86-.04-.76-.12-5.34.02-2.78.05-6.79.13-10.36.2-2.86.02,5.93-.35-4.53-.06-1.53.02-3.69.08-3.91.02-.11-.03-1.6-.05-2.96-.01-1.4.04-2.68.1-3.17.14-.82.07,1.87,0,2.71,0,1.65.02,2.83.03,4.2.05-.84.06-4.61.1-4.4.17-1.16-.03-3.76.02-6.07.06-1.16.02-2.24.03-3.04.05-.79,0-1.3,0-1.3-.04,0-.04.82-.09,1.81-.15.99-.06,2.15-.13,2.86-.18,1.45-.12,7.69-.24,12.65-.31,2.23-.02,4.36-.05,6.58-.07,2.15-.03,4.78-.02,6.35-.1,1.68-.09-4.25.04-3.16-.05,3.41-.11,6.99-.19,10.95-.22.3.11,1.34.18,7.26-.02,4.41-.15,9.97-.08,14.22-.27l1.63-.03,3.1-.02c5.22.04,10.83-.04,16.92-.25,3.61.03,7.7,0,12.96-.15l2.23-.04c-.27.01-.43.02-.82.04-2.97.09-4.94.17-1.88.2.8,0,3,0,2.62-.04-.89-.07,8.87-.26,1.71-.25.96-.02,2.15-.05,3.09-.07.94-.02,1.64-.05,1.62-.09l3.35-.05c.12.04-2.56.13-.28.13,1.81,0,3.76-.05,5.24-.11l2.11-.03c4.33-.06,4.6.01,5.22.08.36.04,1.38.05,3.45.02.77-.01,1.98-.05,2.22-.07.68-.06-1-.04-2.32-.03-4.78.02,3.83-.2-.32-.2,1.03-.09,3.7-.13,6.21-.17l.04.05s-3.77.18.19.14c2.92-.03,4.97-.13,4.38-.2l3.84-.06,5.3-.02c1.49.03,2.22.08.96.16-.58.04-.44.07,1.25.04,2.03-.03,2.34-.07,2.66-.11h2.85s.07.09.07.09c-4.83.07-10.27.21-13.51.13-1.23-.03-3.02.03-3.31.09-.21.04.17.08-1.87.14-8.37.24-16.99.39-25.84.47-5.39-.05-16.61.15-23.33.42Zm-55,.6c.57-.02,1.12-.03,1.68-.05-.48,0-.91,0-1.44,0-.55.02-1.18.03-2.22.06.9,0,1.45,0,1.97,0Z"/><path d="m275.6.92c-4.03.05-5.89,0-7.96-.04-1.03-.02-.36-.11-3.57-.06-2.59.04-2,.09-1.51.14.47.05.72.09,1.06.14l-9.5.08s.25-.06-.01-.08-1.07-.03-3.22-.01c-3.25.03-4.73,0-4.62-.06.36-.04,4.15-.08,2.28-.12-.66-.02-2.16-.03-3.15-.02-3.31.03-1.11.08-1.84.12-.4.02-.71.04-1.32.07-1.19.04-4.67.08-3.36.12,1.51.04,4-.06,6.28-.06v.1c-9,.09-17.74.12-26.35.13,1.41-.12,2.32-.25,9.73-.21,1.22,0,3.2-.02,3.7-.06.53-.05-.99-.05-2.68-.04-.55-.05-1.09-.1-1.43-.16l2.45-.05-1.98-.03c5.86-.11,11.34-.13,16.49-.08,1.34.06,3.97.11,6.66.03,5.15-.16,14.47-.03,17.9-.25,5.01.02,10.3-.05,15.45-.07-.21.12,3.74.11,7.04.06,2.94-.05,4.68-.05,6.89-.03-.77.11-5.98.06-8.05.14-.78.03-3.42-.06-4.58.02-.71.05,1.87.08,3.46.1,1.62.03,2.9.03,5.15-.02,2.83-.06,6.11-.12,8.64-.02,1.52.06,4.26,0,5.86-.04,2.81-.06.53-.07-1.1-.09-2.59-.03-5.15-.07-4.66-.16l1.65-.04c2.9.12,8.5.04,13.25.03,1.84,0,6.09-.07,4.84.06-.3.03,5.45-.04,5.62-.08.34-.07,1.89-.07,3.98-.08h1.54c2.87-.05,6.28-.11,5.1.03-1.44.08-1.39.08,1.05.09,1.07,0,2.5.02,2.73.04.82.07-3.51.07-4.21.12-4.38.03-9,.13-12.72.02-.95-.03-3.74.03-3.57.04.77.04-5.28.09-1.02.13-.18.03-.65.04-2.4.05-5.72.01-11.46-.01-17.28.08-.82-.25-7.36,0-11.14,0-4.39.02-7.63.14-12.28.14,1.08-.08,4.41-.19-3.34-.09Zm-18.21,0l.9-.04c-.4,0-.85,0-1.18,0-.29.01-.44.02-.67.03.33,0,.64,0,.95.01Z"/><path d="m383.8,11.45c5.51.18,12.23.49,17.31.62,4.48.26,11.36.45,16.69.68,1.52.05,2.1.08,3.18.11,3.33.1,4.16-.03.49-.19-3.87-.17-5.08-.25-6.06-.33-1.02-.09-2.92-.21-6.6-.27-.41-.01-1.93-.06-2.58-.09-6.33-.24-12.44-.48-18.69-.72-14.38-.55-28.76-1.1-43.14-1.66l.03.05c1.21.05,2.2.09,2.47.12,2.14.08,4.69.17,6.46.23,4.26.16,9.49.32,12.85.52,2.01.12,16.65.76,19.63.85.49.01,1.01.02.93.01-.71-.09,2.05.05,3.31.11,1.51.08,2.44.13,3.75.21.74.04,3.08.11,2.85.13-.14,0-1.48-.03-3.29-.09-3.77-.13-9.11-.35-9.61-.29Z"/><path d="m435.22.21c-3.76-.03-8.22-.09-10.7-.01,1.08.02,2.47.04,3.22.06,2.9,0,5.64,0,7.76.11,1.75.1-.71.1-2.48.12-3.13.05-5.54-.01-8.09-.09-1.59-.05-4.24-.08-5.54-.06-4.44.08-6.41-.02-9.04-.08-1.69,0-3.82,0-4.26-.06-.09-.01.69-.03,1-.03,2.22,0,2.28.06,3.25.09l4.75-.16c-3.12-.15-7.18-.07-11-.05.1.05-.15.09-2.91.1.05.03-.2.07.2.1,1.21.1-3.35.08-4.72.12-.37.01-1.31.02-1.6,0-.57-.05.96-.07,2.67-.1.97-.02.25-.08.28-.12-1.52.05-5.82-.03-6.26.07.56.01,2.08.02.59.04l-.55-.04c-2.2-.02-.86-.11-3.59-.1-.96,0-1.74.07-2.61.11.03.03-.3.05-1.6.07.07,0,.15.02.24.03h1.44c2.39.05,9.92.11-.3.16-.67,0-.98.05-1.45.07,4.41,0,9.02-.06,13.01.05.49,0,6.4-.04,10.35-.06,1.09-.04,2.43-.04,4.8-.04,6.95,0,14.2.13,20.84.11,2.67.14,7.45.09,10.26.25.69.04,1.34.08,1.99.12l.96.08c.16.02.32.04.47.07.03,0,.08.02.1.02,0,0,.05.02,0,0-.02-.02-.02-.02-.04-.08-.01-.04,0-.1.03-.12v-.02s-.08.02-.14.03c-1.28.18-2.71.25-4.41.38-4.64.3-6.67.3-6.77.21l-7.66.28c.35.06-1.75.17-3.28.26,3.51-.02,7.15-.05-.27.27-.95.04-.33.05.62.03,2.99-.16,7.38-.21,9.91-.36,5.82-.36,4.67-.19,5.45-.16l1.62-.08c.15-.05,1.03-.1,2.88-.23.11-.03.47-.07,1.03-.14.28-.03.61-.06.99-.14.05-.01.1-.02.16-.05.02,0,.03,0,.06-.03.02-.03.06,0,.08-.15-.03-.15-.13-.16-.14-.17-.13-.05-.22-.05-.33-.07-.21-.03-.43-.05-.65-.07l.13.07c-1.78-.13-1.49-.12-1.49-.15-3.48-.21-8.74-.29-9.28-.42Z"/><path d="m296.75,8.32c1.99.06,3.4.08,4.44.09,2.2.01,4.92.05.81-.14-6.46-.29-6.75-.15-10.1-.23l-6.16-.22c-2.87-.18-8.41-.25-12.14-.39l-.07-.07c3.57.1,7.71.15,10.37.28,3.36.17,6.86.25,10.8.35,15.49.4,31.06.9,46.66,1.48.27.04.25.07-1.69,0l-3-.11-1.54-.08c-.47-.03-.94-.05-1.41-.05-9.85-.32-11.22-.33-7.48-.1.11,0,.15.01.22.02,8.71.23,11.01.49,19.52.78,3.54.12,8.24.3,9.19.42-2.32-.09-4.93-.12-5.7-.18-1.47-.13-3.9-.18-6.27-.27-8.46-.33-16.71-.58-25.4-.85-12.37-.36-25.15-.74-37.82-1.11-2.52-.07-6.54-.15-6.73-.24,1.48-.02,3.87.04,6.49.15,3.17.13,5.32.17,7.3.18,3.26.12,6.52.24,9.7.27Zm15.52.29c.06.03.96.1,3.48.17,2.44.06,6.03.14,6.17.12.27-.05-2.91-.09-4.05-.14-2.23-.06-5.78-.23-5.59-.14Zm7.24.45c1.6.05,4.45.14,4.56.1.06-.02-.98-.08-2.68-.13-1.83-.05-3.6-.1-5.96-.16,1.74.08,2.82.13,4.09.19Zm-9.4-.47l-.93-.03h.12c.7.03.73.03.81.03Z"/><path d="m196.27,7.23c3.84-.09,6.85-.14,11.18-.17,6.29-.05,14.14-.23,21.29-.36,3.58-.07,7.41-.09,10.76-.2l.03-.1c-.79-.03-2.83-.07-.41-.13,7.15-.17,6.19-.34,11.14-.5-2.64.05-4.97.11-7.04.18-.26,0-.49.01-.68.02-.27.05.85.09-2,.16-2.25.06-3.85.06-4.17.01h-.37s.34,0,.34,0c3.32-.02,3.42-.13,6.17-.17.17,0,.24-.02.21-.02-3.15-.05-6.99.12-10.43.16-4.38.18-9.02.25-13.72.24-1.4,0-2.32-.02-3.88.06-2.41.14-5.91.16-9.28.19-4.82.16-2.59.21-1.42.28.31.02,1.32.03-.38.08-1.45.04-2.3.03-2.89,0l-1.71.03c.9.06-3.67.18-2.72.24Z"/><path d="m159.86,1.43c-3.05-.03-6.22-.05-10.42.04-5.24.15-10.8.21-16.73.19-1.12.05-3.23.09-5.12.12h-3.15c.37.03.95.09,1.1.08,5.75-.08,9.61,0,15.15-.05,4.03-.05,7.71-.08,8.81.02.03,0,.44,0,.66,0,.76-.02,1.52-.04,2.29-.06-.67-.12,3.4-.14,6.5-.16,10.19-.08,20.44-.16,30.79-.24,6.24-.01,6.58-.05,3.6.11-.89.06-1.5.09-2.24.14,5.93-.07,12.82-.06,17.6-.23-1.12,0-2.2,0-3.36,0-1.9,0-4.64.1-5.47.04-.34-.03,2.65-.11,4.55-.16,1.01-.01,2.91-.03,4.42-.05,1.26-.01,2.63-.02,3.24-.06.79-.05-.52-.06-1.82-.06-2.04-.01-2.59-.08-5.76-.05-4.01-.04-8.42-.04-13.68.03-6.02.15-13.05.21-20.14.27.09.03-.22.07-1.5.08-2.25.02-.82-.04-1.31-.06-2.99.12-6.08.27-7.99.06Z"/><path d="m336.68,9.38l-1.54-.08-.7-.02-.7-.02c-9.85-.32-11.22-.33-7.48-.1.11,0,.15.01.22.02,8.71.23,11.01.49,19.52.78,3.54.12,8.24.3,9.19.42,2.57.06,7.15.26,9.08.28-2.45-.14-.04-.11,1.25-.06,3.77.15,1.47.12,2,.17.11.01,0,.01-.01.02,2.88.17,7.8.29,11.03.45,1.99.05,3.75.12,5.27.21.51-.07,5.85.15,9.62.29,1.81.06,3.15.1,3.29.09.22-.01-2.11-.09-2.85-.13-1.31-.07-2.24-.12-3.75-.21-1.26-.06-4.02-.2-3.31-.11.08.01-.44,0-.93-.01-2.98-.09-17.62-.73-19.63-.85-3.36-.2-8.59-.36-12.85-.52-1.77-.06-4.32-.15-6.45-.23-2.07-.06-2.17-.09-2.48-.12l-.03-.05-3.05-.12c.27.04.25.07-1.69,0-.38,0-.66,0-1.16,0-1.62-.05-1.62-.07-1.83-.1Z"/><path d="m264.06,5.55l.1.04c1.25.06,2.24.12,3.81.17,3.34.1,9.47.02,14.47-.21.62-.03.94-.05,1.7-.09,2.85-.1,3.04-.22.2-.2q-1.18,0-1.86.1c-.32.04-.23.09-2.38.13-.66.01-1.39-.02-2.09-.03-4.06.04-3.79-.05-4.71-.1,4.64-.09,9.36-.19,14.14-.28-1.97.15,2.71.08,4.94.09l2.41-.12,4.87-.14c.07,0,.09.02.06.03-2.97.19,1.65.2,1.5.32l-2.94.07s-.01-.01-.16-.01c-2.08,0-1.7-.12-4.25-.04-3.76.11.44.11-.27.18l-1.75.11c-7.13.15-14.41.32-21.37.37l-3.03.05-.13-.07.64-.03-.84.03-1.9.03c-.97.01-2.34,0-2.3.06l-3.07.09.43-.02h.47c-2.11-.04-7.35.06-8.85-.04-.7-.05-7.32.18-10.91.29-.6.03-.98.04-1.46.06-.79-.03-2.83-.07-.41-.13,7.15-.17,6.19-.34,11.14-.5,4.77-.12,9.38-.2,13.8-.21Zm20.36.02c.14.02.48.03.74.04.2-.01.57-.03.57-.04.01-.02-.22-.03-.38-.04-.45.02-.97.04-.93.04Z"/><path d="m401.18.14c2.76,0,3.01-.05,2.91-.1h-2.59s-1.99-.01-1.99-.01c-4.97-.03-9.76-.06-15.04,0-2.15.02-5.26.03-7.83,0-2.81-.03-8.14-.03-9.05-.01-9.56.14-18.8.11-27.97.09-3.37,0-5.49.05-8.25.07l-42.3.22c-1.51,0-3.07,0-3.94.05-.21.12,3.74.11,7.04.06,2.94-.05,4.68-.05,6.89-.03,1.03-.05,3.01-.05,4.73-.07l1.65-.04c2.9.12,8.5.04,13.25.03,1.84,0,6.09-.07,4.84.06-.3.03,5.45-.04,5.62-.08.34-.07,1.89-.07,3.98-.08.51-.03,1.04-.03,1.57,0,2.84-.04,6.25-.1,5.06.04.77,0,1.55,0,2.33,0,2.43-.06,4.93-.11,8.3-.06,2.79-.09,5.5-.2,9.08-.04h4.45c.97-.09,3.94-.07,6.35-.08,3.52-.01,2.9.05,3.14.09,4.07-.13,8.14-.1,12.2-.02.86-.04,1.65-.11,2.61-.11,2.73,0,1.39.08,3.59.1.39-.1,4.7-.02,6.22-.07h3.16Z"/><path d="m327.44,4.75c2.18.01,4.58,0,7.82-.14-1.85-.01-3.66-.04-1.48-.15,1.72-.09,3.03-.03,4.88-.09,2.43.06,3.82-.04,5.43-.13,1.84-.11,3.64-.16,4.89-.1,4.38-.12,3.71-.19,4.49-.27-.65-.06-4.19-.01-5.92-.03-2.92,0-6.79.06-10.48.18-2.77.09-5.16.14-7.83.18-2.71.1.1.16-4.59.27-3.48.08-2.91-.01-3.45-.06l-3.09.08c.22.05.64.09.6.14-.01.02-.38.04-.9.05-.53.01-1.22.03-1.88.05-1.16.02-2.03.02-1.37-.01.98-.06,3.69-.15.83-.12-.72,0-3.23.12-4.92.19-.53.02-.81.06-1.91.05l1.95-.05c-1.18-.11-5.04,0-9.09.12-1.24.14,4.92.06,4.48.18,6.66-.21,6.59-.12,6.08,0,2.67-.08,4.87-.05,7.63-.15-.4-.11,2.56-.28,7.17-.37,6.39-.12-2.06.15.15.16.31,0,.36.01.53.02Z"/><path d="m11.09,4.3h2.52s4.86-.01,4.86-.01h1.79s-.09-.02-.15-.03c-1.05-.01-1.58-.03-.68-.05.13,0,.57,0,.71,0,1.38.02-.08.04-.09.06,2.54.01,4.41,0,5.59-.05,1.88-.08,4.31-.08,6.25-.06.97.02,1.82.03,2.42.05.6.02.95.03.92.04-.38.12,3.64.13,6.55.17,3.67-.03,7.31-.06,11.03-.09,1.63-.01,4.77.02,3.88-.05-.74-.06-4.15-.03-5.01-.05-2.67-.06-6.8.08-8.29-.06-2.03-.02-4.44-.02-4.75-.08-1.72,0-3.54,0-4.64-.04-3.76-.02-7.55-.04-11.28-.05-3.69,0-7.13,0-10.59,0-3.45,0-6.92.06-10.63-.13l-.02.08c1.83.11,3.74.08,4.7.15-.12.04-.18.1-2.98.05l1.32.12,6.55.05Z"/><path d="m424.81,2.37c-.95.01-1.57,0-.62-.03,7.42-.32,3.77-.29.27-.27-.95.03-1.91.06-2.86.09l.06.1h.36s-.34,0-.34,0c-2.6.04-8.24.28-7.81.12-4.31.13-8.23.11-13.02.33-.69.03-3.7.07-3.85.02l-4.55.1c-1.97.13-7.71.3-6.6.4-.06,0-.99.04-1.52.06-3.38-.12-4.79.16-7.45.19.02.01.01.02,0,.03,7.78,0,9.63-.21,12.37-.4l.59-.02-.63.02c.78-.01,1.89-.03,2.81-.05.46,0,.87-.01,1.17-.02.3,0,.49,0,.51,0,.78.23,6.46-.07,11.06-.2,4.8-.14,10.32-.34,14.56-.35,2.09-.03,1.77.07,5.4-.05l.09-.07Z"/><path d="m177.78,7.28h2.85c6.97-.11,6.88,0,6.15.14,2.29,0,2.18-.06,3.3-.09-2.06-.12,1.35-.32,7.68-.44-1.46-.06-1.57-.14,0-.25-1.6-.06-2.94.02-4.33.08.92,0,1.16.03-.09.05-1.71.03-1.43-.01-1.6-.03-3.68-.05-9.12.11-13.04.19-6.42.12-13.43.18-19.52.37l.04.05,4.46-.06c1.4-.09,2.67-.08,3.94-.07l5.3-.02c.38-.05.71-.11,3.57-.15,1.93-.03,3.03-.01,3.95,0,2.14.05-.78.15-2.65.23Z"/><path d="m43.41,4.15c1.5.14,5.62,0,8.29.06.86.02,4.27,0,5.01.05.89.07-2.25.04-3.88.05-3.73.03-7.36.06-11.03.09l1.34.06h1.79c4.96-.08,11.27,0,16.86,0,1.33-.03,1.01-.07.36-.12-1.13-.08.59-.11,4.19-.09l.07-.03c.05-.05,1.12-.06,3.33-.04.45,0,.89,0,1.32,0-.44-.03-2.5-.08.17-.1l-.13-.04c-8.82-.07-17.62-.14-26.49-.12,1.42.08,4.04.17-1.18.21Z"/><path d="m85.8,2.16c-1.83.02-1.66-.12-4.91.02-2.43.11-4.74.02-7.16.08-.68.14-3.97.15-7.43.15-2.93,0-5.35.05-7.56.12-2.29.08-3.3.14-.87.17,3.26-.04,6.25-.03,9.74-.1,10.88-.22,12.07-.23,20.8-.22.21,0,.62,0,.68,0,4.44-.18,11.2-.07,15.72-.23-.43-.06-.48-.12-3.55-.12-.11.04-.83.06-2.92.07-4.43.02-8.57.04-12.52.05Z"/><path d="m43.41,4.15c5.22-.04,2.6-.13,1.18-.21-3.44-.05-5.74-.12-10.66-.03-3.55.06-10.64-.03-16.31-.03-3.82-.01-7.73-.03-11.65-.04l-2.94-.04c-.49-.01-.98-.02-1.45-.06l-.15-.02s-.03,0,0,0c.04.01.07.05.09.08.01.02,0,.02.03.08.01.05,0,.14-.06.18-.06.05-.08.04-.06.04h0s.05,0,.05,0c.1-.02.23-.03.35-.04l.73-.05c1.95-.09,3.89-.14,5.82-.18,3.38-.07,5.62-.11,5.25-.2-.36-.08-3.1-.03-6.15.07l-3.18.1-1.59.07-.79.05-.39.04h-.09s-.04.02-.04.02h-.02s.07-.11.04-.12c-.06-.08,0-.02.02-.03h.09c3.71.2,7.18.13,10.63.14,3.45,0,6.89,0,10.59,0,3.73.02,7.52.04,11.28.05.91-.01,1.93-.03,2.71-.04,1.72,0,1.87.05,1.93.08.31.06,2.71.07,4.75.08Z"/><path d="m389.25,3.11c-2.74.18-4.58.4-12.37.4-2.08.06-4.15.13-6.23.19-1.65.06-3.37.13-2.95.17,2.92.02,6.73-.13,9.93-.21,12.2-.29,24.4-.54,36.68-.94,3.28-.11,3.74-.15,5-.23-4.23.02-9.76.21-14.56.35-4.6.13-10.28.43-11.06.2-.01,0-.2,0-.5,0-.3,0-.71.01-1.17.02-.91.01-2.01.03-2.77.05Z"/><path d="m191.1,1.64c.74-.05,1.34-.08,2.24-.14,2.98-.15,2.63-.12-3.6-.11-10.34.08-20.59.16-30.79.24-3.1.02-7.17.04-6.5.16,5.79.08,12.11,0,19.06-.12,4.48-.08,7.91-.08,7.05.06,4.51-.09,8.26-.03,12.54-.08Z"/><path d="m104.8,2.15c-4.53.16-11.29.05-15.72.23-.05,0-.47,0-.68,0-8.72,0-9.92,0-20.8.22-3.49.07-6.48.06-9.74.1,1.38.09,2.89.18,8.25.17l3.92-.12c1.45-.09,3.67-.11,6.83-.13,3.84-.04,8.49-.09,11.82-.12,6.71-.06,12.68-.24,19.07-.23l-1.7-.12c-.43,0-.85,0-1.26,0Z"/><path d="m26.29,3.34c2.01-.14,3.64-.27-4.41-.14-2.59.04-.96-.03-.77-.06,3.96-.14,8.34-.17,11.17-.17,7.18,0,8.82-.11,10.36-.26l1.47-.03c4.72,0,12.48-.08,5.12.2-1.33.05-1.3.11-1.89.16-4.07.06-8.15.12-12.21.18-2.63.04-4.61.07-4.88.15l-4.53.06c.17-.03.11-.06.57-.09Zm12.97-.3c.16,0,.43,0,.81-.02-.22,0-.45.01-.81.02Z"/><path d="m41.99,9.73c-1.16-.03-3.76.02-6.07.06-1.16.02-2.24.03-3.04.05-.79,0-1.3,0-1.3-.04,0-.04.82-.09,1.81-.15.99-.06,2.15-.13,2.86-.18,1.45-.12,7.69-.24,12.65-.31,2.23-.02,4.36-.05,6.58-.07,2.15-.03,4.78-.02,6.35-.1,1.68-.09-4.25.04-3.16-.05-7.3,0-16.37.3-23.93.31-2.39,0-1.85.1-3.77.15-1.85.07,6.47-.01-.36.14-2.29.15-8.3.32-7.39.45,1.42-.01,3.25-.03,4.17-.04,2.29.01,2.24.2,8.06-.07.06,0,2.1,0,3.4,0,3.8-.03,7.41-.11,10.6-.22-1.09-.12-5.32.09-7.47.08Z"/><path d="m21.65,9.59c-1.89.03-3.26.03-4.24,0-2.46-.06-7.12-.04-10.77.08-3.26.11-6.21.26-6.57.39-.67.23,3.42.23,12.55.04,2.23-.05,5-.04,7.53-.06,2.76-.13,1.7-.21-1.29-.21-3.03,0-5.81.08-7.97.19-.79.04-4.44.15-4.12.06.27-.08-1.83-.11-.5-.2.82-.06,1.22-.12,3.69-.16,2.57-.05,3.69-.02,3.98.02.31.05.69.08,3.55.03,1.38-.04,2.43-.06,3.13-.08.7-.03,1.05-.06,1.04-.09Z"/><path d="m107.75,2.26c-6.4,0-12.37.17-19.08.23-3.32.03-7.97.08-11.82.12-3.15.03-5.38.05-6.83.13,5.39.1,13.46-.08,20.11-.15,9.94-.1,20.09-.28,29.77-.27l.8-.05c-1.44-.04-6.48-.05,1.21-.15,2.52-.03,3.94-.1-.39-.08-4.57.07-7.91.25-13.78.21Z"/><path d="m435.39,1.53c.11.1,2.13.1,6.77-.21,1.7-.13,3.13-.19,4.41-.38.06,0,.18-.05.15-.03v.02s-.05.08-.04.12c.02.06.02.05.04.08.05.03,0,0,0,0-.02,0-.06-.02-.1-.02-.15-.03-.31-.05-.47-.07l-.96-.08c-.65-.04-1.3-.08-1.99-.12-2.81-.16-7.6-.12-10.26-.25-6.64.02-13.9-.11-20.84-.11-2.37,0-3.72,0-4.8.04,6.39.11,13.3.14,20.74.18,4.75.04,9.57.07,14.74.27,1.12.05,2.34.08,3.57.21l.22.03.1.02h.02s.01.01,0,0c-.03-.01-.07-.05-.08-.08,0,.03-.08-.22.02-.29.01-.02.03-.04.05-.05.02-.01,0,0,0,0l-.09.02-.22.04c-.31.04-.63.08-.95.11-.65.05-1.31.1-1.98.15-2.67.17-5.44.29-8.06.4Z"/><path d="m134.3,7.74l3.35-.05h4.96c.7,0,1.41-.01,2.12-.02,2.29-.06,4.58-.13,6.87-.19-4.05-.11-12.12.08-17.92.18-11.52.21-23.15.43-34.74.64l-3.09.09c5.22.04,10.83-.04,16.92-.25,4.93-.12,10.14-.27,12.96-.15.75-.01,1.49-.03,2.24-.04.53-.01,1.06-.02,1.59-.04-.02-.03-.09-.04-.15-.05-.16,0-.32-.01-.49-.02h1.1s4.29-.1,4.29-.1Z"/><path d="m99.52,4.31c4.41.04,8.81.08,13.26.13,3.52.03,6.9.07,9.5.16,2.37.03,3.56.04,4.75.05,5.64.08,11.13.09,17.12.22,3.11.07,4.78,0,5.71-.06-16.99-.27-33.98-.47-50.98-.57l.62.06Z"/><path d="m21.11,3.13c3.96-.14,8.34-.17,11.17-.17,7.18,0,8.82-.11,10.36-.26-11.82.14-23.65.24-35.46.64-1.43.04-2.59.08-3.68.11-.55.02-1.08.03-1.62.07l-.42.04-.12.02s-.06.01-.09.02h-.03s0,0-.1.07c-.08.06-.13.21-.11.29.01.09.03.08.05.13.05.07.14.12.2.14h.04s.08.02.08.02h.12c.3.04.57.05.87.06,3.21.08,8.13.12,8.73,0l-6.55-.05c-.9-.02-1.79-.03-2.7-.08l-.34-.03c-.06,0-.12-.01-.2-.03-.04,0-.16-.07-.17-.18-.04-.1.13-.25.13-.23h.03c.05-.03.08-.03.11-.03.24-.04.46-.05.69-.06l1.35-.07,5.38-.15,12.29-.26Z"/><path d="m216.26,6.24c-.16.05.86.13-4.08,0-3.08-.08-5.72-.11-5.18-.02,12.67.31,25.34.63,38.49.87l-.07-.04-.45-.04c-.24,0-.5-.01-.77-.02-2.2-.03-4.39-.07-5.03-.15-.39,0-.79-.02-1.2-.03l-4.64-.13c-.7.04-2.28.02-4.76-.07-2.74-.07-5.58-.06-8.06-.17-.82-.04.42-.04,1.77-.03l.12-.02-1.5-.09c-2.72-.11-2.97-.03-4.64-.07Z"/><path d="m44.12,2.68c4.72,0,12.48-.08,5.12.2-1.33.05-1.3.11-1.89.16,2.25-.02,1.5.03,1.64.05l3.02-.05c-.94-.06,2.97-.14,3.07-.21h-2.02c.15,0,.43,0,.44,0,.56,0,1.09,0,1.63,0,2.68.01,1.04.1,1.6.15,3.05.04,6.16.02,9.38-.11-5.35.01-6.87-.08-8.25-.17-2.43-.03-1.42-.1.87-.17,2.21-.07,4.62-.12,7.56-.12,3.46,0,6.75,0,7.43-.15-7.78.09-15.73.18-23.41.27-3.03.02-4.63.08-6.19.14Z"/><path d="m121.53,2.05c4.33-.02,2.91.05.39.08-7.69.1-2.65.11-1.21.15,1.32-.08,3.72-.05,5.58-.08-.2-.04,1.21-.12,2.34-.11,5.62.03,9.6-.14,14.5-.18,2.61-.08,2.75-.03,2.96,0,2.65.03,3.31-.02,4.08-.08-.23,0-.64,0-.67,0-1.1-.1-4.78-.07-8.81-.02-5.54.06-9.4-.02-15.15.05-.14,0-.72-.05-1.1-.08h-6.01s-3.19,0-3.19,0l-.37.1c6.81-.05,7.21.05,6.65.17Z"/><path d="m204.49,1.06c3.17-.03,3.72.04,5.76.05,1.3,0,2.61.02,1.82.06-.6.04-1.98.04-3.24.06-1.51.02-3.41.04-4.42.05-1.9.05-4.89.13-4.55.16.83.07,3.57-.03,5.47-.04,1.16,0,2.24,0,3.36,0,1.46.04,2.79-.02,4.17-.04,2.32-.04,4.79-.1,4.11-.16-2.66-.2,4.53-.26,10.97-.33-.79-.04-4.14,0-4.4-.06-5.28.03-10.29.07-15.63.1-3.83.04-3,.08-3.43.13Z"/><path d="m143.14,1.91c-4.9.03-8.88.21-14.5.18-1.14,0-2.55.07-2.34.11,9.81-.1,19.58-.2,29.39-.3,4.92-.03,10.08-.07,14.96-.1,2.95-.03,5.34-.06,7.92-.09.86-.14-2.56-.14-7.05-.06-6.95.12-13.27.2-19.06.12-.77.02-1.53.04-2.29.06-.76.05-1.42.11-4.07.08h-2.96Z"/><path d="m21.11,3.13l-12.29.26-.12.07c1.67-.04,3.16-.06,2.89-.01-.26.05-1.96.09-3.49.13-.57.05-.61.09-.64.12,3.06-.1,5.79-.16,6.15-.07,3.93-.07,7.98-.14,12.12-.21.17-.03.11-.06.57-.09,2.01-.14,3.64-.27-4.41-.14-2.59.04-.96-.03-.77-.06Z"/><path d="m370.65,3.69l6.23-.19v-.03s-.33,0-.33,0h.32c2.65-.02,4.07-.3,7.45-.19.53-.02,1.46-.06,1.52-.06-1.11-.1,4.63-.27,6.6-.4-.33-.03-1.72,0-2.95.04-1.62.09-4.22.14-6.53.2-1.7.02-2.76.18-3.67.11-.97-.08-3.78.05-5.36.07-2.7.13-3.93.12-4.85.08-1.61.02-3.53,0-4.53.12l-.69.07c1.89-.02,2.83.02,5.48-.05,1.81-.02,1.12.04,1.28.07,8.25-.13-1.09.15.02.18Z"/><path d="m241,6.59c2.61.11,5.65.24,8.13.34,5.09.25,14.64.43,18.72.4-3.8-.1-8.02-.2-5.35-.24-7.29-.21-14.58-.42-21.49-.51Z"/><path d="m370.63,3.51c8.25-.13-1.09.15.02.18-1.65.06-3.37.13-2.95.17-4.7.12-9.67.33-13.93.29-.21,0-.27,0-.2-.02,6.18-.25,6.68-.41,6.34-.56l3.96-.09c1.89-.02,2.83.02,5.48-.05-.17.04-.23.08,1.28.07Zm-4.93.23c.99,0,1.94-.06,1.62-.07-.63-.02,2.52-.17-2.22-.06-2.36.07-2.17.09-.46.08.32.02.3.05,1.06.05Z"/><path d="m415.09.1c1.44,0,2.64.08,4.27.03,3.64-.1,3.98,0,5.16.06,1.08.02,2.47.04,3.22.06,2.9,0,5.64,0,7.76.11,1.75.1-.71.1-2.48.12-3.13.05-5.54-.01-8.09-.09-1.59-.05-4.24-.08-5.54-.06-4.44.08-6.41-.02-9.04-.08,1.57-.05,3.16-.11,4.74-.16Zm17.25.25s-.55,0-.58,0c-.07,0,.02.02.04.03h1.2c-.21,0-.41-.02-.67-.03Z"/><path d="m186.42,5.8c-6.26-.1-12.83-.26-18.46-.24-1.42,0-3.41-.06-4.82-.1-2.55-.07-4.27-.08-5.66-.05,5.28.19,11.68.24,17.67.32,7.76.1,15.03.34,22.86.42,1.14.01,2.54.04,3.05.02-1.59-.1-4.28-.17-7.39-.18-3.75-.02-5.52-.09-7.24-.17Z"/><path d="m21.65,9.59s-.34.06-1.04.09c-.7.02-1.74.05-3.13.08-2.85.05-3.23.02-3.55-.03-.3-.04-1.42-.07-3.98-.02-2.47.05-2.87.11-3.69.16-1.33.09.77.12.5.2-.31.09,3.33-.02,4.12-.06,2.16-.11,4.94-.2,7.97-.19,2.99,0,4.06.08,1.29.21,1.03,0,2.05,0,3.08-.05-.91-.13,5.1-.3,7.39-.45-1.63,0-3.12-.01-3.22-.06l-5.75.12Z"/><path d="m385.61.21c-4.07-.08-8.14-.11-12.21.02-2.39.11-9.72.1-11.03.23l.55.11c2.68.03,5.11.02,7.31-.04.35-.02-.65-.05.97-.06l.49.06c.45,0,.94,0,1.46,0,6.32-.03,5.04-.22,10.85-.25,1.31-.02,1.64-.04,1.6-.07Z"/><path d="m43.13,4.46l-1.34-.06c-2.91-.04-6.93-.04-6.55-.17.03,0-.32-.03-.92-.04-.6-.01-1.45-.03-2.42-.05-1.94-.02-4.37-.02-6.25.06-1.18.05-3.06.07-5.59.05.11,0,.16.02.2.03l-.12.1c7.58.06,15.07.14,22.99.07Z"/><path d="m115.79,4.95c.6-.08-2.75-.14-5.47-.18-5.87-.09-12.69-.2-17.84-.19-3.57-.01-5.96-.02-9.43-.03-2.1-.02-.94.05-1.11.09,7.4.07,14.59.17,22.37.19,3.37.04,7.63.08,11.48.12Z"/><path d="m421.59,2.16c.95-.03,1.91-.06,2.86-.09,1.53-.09,3.63-.2,3.28-.26-7.71.2-15.97.51-23.79.61-3.15.04-4.12.2-6.96.3.15.05,3.16.02,3.85-.02,4.8-.22,8.71-.2,13.02-.33,2.78-.28,5.13-.11,7.73-.22Z"/><path d="m342.08.31c-.78,0-1.55,0-2.33,0-1.44.08-1.39.08,1.05.09,1.07,0,2.5.02,2.73.04.82.07-3.51.07-4.21.12l3.26.06h5.09s10.31-.16,10.31-.16c-7.03-.08-6.88-.11,1.48-.26-3.58-.16-6.29-.05-9.09.04-2.74.02-4.08.21-8.3.06Z"/><path d="m227.95.89c-6.44.07-13.63.12-10.97.33.69.05-1.79.11-4.11.16.72.11,4,0,5.96-.01,1.41-.12,2.32-.25,9.73-.21,1.22,0,3.2-.02,3.7-.06.53-.05-.99-.05-2.6-.04h-.69s.62,0,.62,0l-1.64-.15Z"/><path d="m353.77,4.16c-.21,0-.27,0-.2-.02-.68-.04-5.48.1-4.59,0-1.25-.06-3.05,0-4.88.1-1.61.09-3,.19-5.43.13-1.85.06-3.16,0-4.88.09-2.18.11-.37.14,1.48.15,6.27-.13,12.92-.17,18.51-.45Z"/><path d="m260.75,6.08c-2.11-.04-7.35.06-8.85-.05-.7-.05-7.32.18-10.91.29-.6.03-.98.04-1.46.06l-.03.1c5.55-.02,10.72-.23,16.2-.29l4.05-.08c.53-.01.86-.02,1-.04Z"/><path d="m214.71,5.97c2.14.13,16.1.55,20.59.62,4.43.07,1.62-.07,2.5-.1-2.82-.05-5.65-.08-8.33-.2-.58-.02-2.54-.07-2.67-.08-3.6.02-8.14-.17-12.1-.24Z"/><path d="m41.99,9.73c2.15,0,6.38-.2,7.47-.08,2.21.02,4.39-.05,6.58-.11,3.65-.16,9.43-.2,13.72-.33-.86-.04-.76-.12-5.34.02-2.78.06-6.79.14-10.25.2l-1.91.08h-.61s2.41-.08,2.41-.08c-2.86.02,5.93-.35-4.53-.06-.37.06,1.01.11-3.13.19-.84.06-4.61.1-4.4.17Z"/><path d="m118.91,4.89c-.09.02.45.04-.88.03,9.38.12,19.26.35,27.38.25l-.22-.04-6.13-.08c-6.7-.05-13.4-.11-20.15-.16Z"/><path d="m69.76,9.21c-4.29.13-10.07.17-13.72.33.5.1,3.9-.04,5.65-.06,6.7-.08,13.61-.22,20.37-.37-1.38-.17-8.02.05-12.3.1Z"/><path d="m180.7,7.38c-4.83.07-10.27.21-13.51.13-1.23-.03-3.02.03-3.31.09-.21.04.17.08-1.87.14-.65.12,3.4.02,5.54,0,4.83-.08,9.73-.16,14.61-.23-.4-.04.83-.11-1.47-.11Z"/><path d="m205.4,6.58c3.37-.02,6.87-.05,9.28-.19,1.56-.09,2.49-.07,3.88-.06,4.7.01,9.33-.06,13.72-.24-4.37-.02-9.82.08-15.14.18-3.92.08-7.8.15-11.7.23l-.04.08Z"/><path d="m278.94,1.02c1.08-.08,4.41-.19-3.34-.09-4.03.05-5.89,0-7.96-.04-1.03-.02-.36-.11-3.57-.06-2.59.04-2,.09-1.51.14.47.05.72.09,1.06.14l15.3-.09Z"/><path d="m311.97,5.08c.51-.11.58-.21-6.08,0l-4.66.17-2.94.07c-1.25.06-3,.09-4.68.13l-1.75.11c-.14.07,1.92,0,3.55-.04,5.53-.15,11.05-.3,16.57-.45Z"/><path d="m342.59.63l-3.26-.06c-4.38.03-9,.13-12.72.02-.95-.03-3.74.03-3.57.04.77.04-5.28.09-1.02.13,6.82-.06,14.25.04,20.56-.13Z"/><path d="m310.46,4.78c1.69-.07,4.2-.18,4.92-.19,2.86-.03.16.06-.83.12-.67.04.21.04,1.37.01.67-.02,1.36-.04,1.88-.05.53-.02.89-.04.9-.05.04-.05-.37-.09-.6-.14-5.59.02-11.94.19-18.25.34l-.19.09c.07,0,.09.02.06.03l1.68-.03c4.05-.13,7.92-.24,9.05-.12Z"/><path d="m384.01.28c-5.81.04-4.53.22-10.85.25,3.23.08,6.52.15,10.78,0,.48-.02.79-.07,1.45-.07,10.22-.05,2.7-.11.3-.16-.25.02.02.06-1.8.05l.36-.06c-.09-.01-.17-.02-.24-.03Z"/><path d="m245.12.72c1.34.06,3.97.11,6.66.03,5.15-.16,14.47-.03,17.9-.25-8.35.04-16.54.11-24.57.22Z"/><path d="m118.44,1.78h6.01s3.14,0,3.14,0c0-.04.64-.07,1.6-.08.97-.01,2.25-.02,3.52-.04,5.93.02,11.49-.04,16.73-.19-.5-.03-2.12-.05-3.21-.03-8.98.17-19.07.13-27.8.34Z"/><path d="m69.63,8.72c.3.11,1.34.18,7.26-.02,4.41-.15,9.97-.08,14.22-.27-6.41-.05-14.17.17-21.48.3Z"/><path d="m80.49,4.15c2.06.13,6.13.23,10.6.33-.88-.12,1.43-.19,4.49-.25-3.12-.08-5.93-.06-8.82-.05-1.56.08-4.07,0-6.27-.02Z"/><path d="m136.19,8.2c-5.39-.05-16.61.15-23.33.42,6.65-.05,13.33-.22,20-.33.17-.07,1.8-.07,3.33-.08Z"/><path d="m445.87.71c.23.02.44.04.65.07.11.02.2.03.33.07.01,0,.11.03.14.15.01.05-.02.12-.04.13l-.04.03s-.05.03-.06.03c-.07.03-.11.04-.16.05-.38.08-.7.11-.96.14-.53.06-.83.09-.8.12l.99-.07.5-.05.26-.04s.09-.02.14-.03c.02,0,.06-.02.09-.03,0,0,.05-.03.08-.05.02-.02.03-.02.05-.05.03-.04.06-.13.04-.2-.03-.13-.14-.19-.17-.2l-.08-.03-.13-.04-.23-.05c.13.02.24.03.43.09h.04s.07.06.1.09c.03.04.05.04.08.13.04.1-.06.28-.07.26-.12.11-.15.09-.2.11-.08.02-.14.04-.21.05-.26.04-.5.07-.75.09l-1.22.06c-1.85.13-2.72.18-2.88.23,1.41-.07,2.77-.13,4.13-.25l.52-.06.27-.04.15-.04s.06-.02.12-.05c.04-.03.08-.06.11-.09.05-.05.08-.17.07-.26-.02-.11-.03-.09-.05-.13-.04-.05-.1-.11-.15-.13l-.05-.02s-.08-.03-.1-.03l-.15-.03-.27-.04-.51-.05c-.68-.06-1.35-.1-2.03-.13-2.71-.13-5.5-.19-8.62-.2.55.13,5.8.21,9.28.42.45.03.91.06,1.36.09Z"/><path d="m170.67,1.36c7.08-.06,14.12-.11,20.14-.27-2.38-.04-4.61-.05-8.16.04-4.5.11-10.08.09-15.05.16l.28.07c.91,0,1.85,0,2.79-.01Z"/><path d="m197.76,6.88c-6.33.12-9.74.32-7.68.44l6.19-.1c-.95-.06,3.63-.18,2.72-.24-1.8,0-1.05-.07-1.23-.11Z"/><path d="m357.99.47l-10.31.16c5.2.04,10.37.07,15.25-.06l-.55-.11h-4.39Z"/><path d="m359.91,3.59l3.96-.09.69-.07c-5.77.11-11.64.19-17,.41,1.72.02,5.26-.03,5.92.03,1.11-.04,2.05-.07,2.99-.1.24-.05.39-.11,3.44-.17Z"/><path d="m205.4,6.58l.04-.08-7.68.13c-1.57.11-1.46.19,0,.25,3.74-.06,2.86.02,2.94.08.59.02,1.44.03,2.89,0,1.7-.04.69-.06.38-.08-1.17-.07-3.4-.13,1.42-.28Z"/><path d="m424.81,2.37l-.09.07c5.25-.16,11.01-.24,15.45-.6-.78-.03.37-.2-5.45.16-2.53.15-6.92.2-9.91.36Z"/><path d="m114.88,1.88l.37-.1c-5.97,0-11.37.12-16.9.21l2.89.04c3.07,0,3.12.06,3.55.12.41,0,.83,0,1.26,0,0-.07.24-.13,1.46-.17,1.22-.05,3.42-.08,7.37-.09Z"/><path d="m47.34,3.04c-4.07.06-8.15.12-12.21.18-2.63.04-4.61.07-4.88.15,5.43,0,11.47-.17,17.12-.22.01-.03.02-.07-.04-.1Z"/><path d="m101.24,2.03l-2.89-.04c-4.4,0-8.97-.03-12.56.16,3.96-.02,8.1-.03,12.52-.05,2.09-.02,2.82-.03,2.92-.07Z"/><path d="m327.44,4.75c-.17,0-.22-.02-.53-.02-2.2,0,6.25-.28-.15-.16-4.61.09-7.57.26-7.17.37,2.7-.04,5.58-.05,7.84-.19Z"/><path d="m186.42,5.8c1.72.09,3.49.16,7.24.17,3.11.01,5.81.08,7.39.18,1.09.01,2.49.04,2.89.02-.89-.05-1.79-.1-2.68-.15-4.81-.09-9.57-.17-14.35-.26l-.48.03Z"/><path d="m262.49,7.1c-2.67.04,1.55.14,5.35.24,2.8.09,4.57.11,5.76.1l-.07-.07c-3.61-.09-7.22-.18-11.04-.27Z"/><path d="m61.78,4.47c-5.58,0-11.89-.08-16.86,0,5.6.1,11.22.03,16.83.06l.03-.07Z"/><path d="m302.35.88c-.82-.25-7.36,0-11.14,0,.24.05-.85.13,3.76.07,2.3-.02,4.91-.04,7.38-.06Z"/><path d="m321.21,4.41c.55.04-.03.13,3.45.06,4.7-.11,1.88-.17,4.59-.27-3.75-.01-5.37.14-8.05.21Z"/><path d="m151.6,7.48c-2.29.06-4.58.13-6.87.19,4.33-.06,4.6.01,5.22.08.36.04,1.38.05,3.45.02.77-.01,1.98-.05,2.22-.07.68-.06-1-.04-2.32-.03-4.78.02,3.83-.2-.32-.2-.43,0-.89.01-1.37.02Z"/><path d="m270.79,7.66c-3.06-.05-7.2-.34-9.59-.23q1.3.13,9.59.23Z"/><path d="m278.02,5.46c-4.06.04-3.79-.05-4.71-.1-3.18.05-6.67.06-9.25.19l.1.04c2.28-.02,6.28-.12,6.65-.06.82.14,4.07.02,7.2-.07Z"/><path d="m287.45,5.08c-1.97.15,2.71.08,4.94.09.8-.04,1.61-.08,2.41-.12l1.9-.18c-3.17.05-5.96.19-9.25.22Z"/><path d="m245.18,1.13v.1c2.88,0,5.77.02,8.95-.04-.02-.03.25-.06-.01-.08s-1.07-.03-3.22-.01c-3.25.03-4.73,0-4.61-.06-1.42.03-.98.07-1.1.1Z"/><path d="m95.58,4.23c-3.06.06-5.38.13-4.49.25,3.16-.05,7.77-.06,8.43-.17l-.62-.06-3.32-.02Z"/><path d="m180.7,7.38c2.3,0,1.07.07,1.47.11l4.62-.06c.73-.13.82-.24-6.15-.15l.07.11Z"/><path d="m167.88,1.37l-.28-.07c-2.99.02-5.55.07-7.73.13,1.91.21,5.01.06,8.02-.06Z"/><path d="m177.54,5.25s-.31.04-.02.06c.85.07-3.58.09,1.2.17,4.23.08.58-.08,1.19-.12.18,0,1.58,0,2.42.01-1.03-.06-1.96-.12-4.8-.13Z"/><path d="m80.49,4.15c2.2.02,4.71.1,6.27.02l-3.38-.04c-1.28,0-2.37-.02-2.96-.05h-6.26s1.31.04,1.31.04l5.02.03Z"/><path d="m367.49,10.78s.12-.01.01-.02c-.53-.05,1.77-.02-2-.17-1.29-.05-3.7-.08-1.25.06l3.24.13Z"/><path d="m55.08,2.84c-.1.07-4.01.15-3.07.21l4.72-.06c-.56-.05,1.08-.14-1.65-.14Z"/><path d="m27.4,9.47c.1.05,1.59.06,3.22.06,6.83-.15-1.5-.07.36-.14-.29,0-.69,0-1.19.01l-2.05.04c-.42.01-.54.02-.35.02Z"/><path d="m262.93,6.01l-3.07.09c1.36.05,5.11-.03,7.43-.04l.17-.07-.13-.07c-.83.01-1.47.02-2.09.03-.23.04-1.28.05-2.3.06Z"/><path d="m223.55.83c.26.06,3.61.01,4.6.05l2.45-.05-1.98-.03c-1.63,0-3.32,0-5.08.03Z"/><path d="m369.08,3.31c.92.04,2.15.05,4.85-.08-1.3,0-1.82-.08-4.85.08Z"/><path d="m18.47,4.29l-4.86.02c-.23.09,2.46.08,4.85.07v-.09Z"/><path d="m382.96,3.05c2.3-.06,4.9-.1,6.53-.2-3.32,0-5.09.1-6.53.2Z"/><path d="m383.78,11.45c-1.52-.09-3.28-.16-5.27-.21,1.69.07,2.69.19,5.27.21Z"/><path d="m75.47,4.12l-1.31-.04-3.08-.02.13.04c1.39.05,2.81.06,4.26.03Z"/><path d="m242.71,5.94s-.03.01-.21.02c.22,0,.45-.01.72-.02.14-.03.29-.06.43-.08l-.94.08Z"/><path d="m80.42,4.08c.59.03,1.68.04,2.96.05.04-.06-.98-.07-2.96-.05Z"/><path d="m191.73,6.73c.17.02-.11.07,1.6.03,1.25-.02,1.02-.05.09-.05l-1.69.02Z"/><path d="m267.45,5.99l-.17.07c1.59-.04,2.68-.08,3.19-.12l-3.03.05Z"/><path d="m259.74,6.12l-4.05.08c1.7.02,3.06-.01,4.05-.08Z"/><path d="m47.42,3.04l-.03.1c1.02,0,1.55-.02,1.6-.05-.14-.03.61-.07-1.57-.05Z"/><path d="m371.69.53l-.49-.06c-1.62.01-.62.04-.97.06.49,0,.98,0,1.46,0Z"/><path d="m136.18,8.2c-1.53,0-3.16.01-3.33.08,1.4-.01,2.79-.03,3.33-.08Z"/><path d="m186.9,5.77c4.78.09,9.54.17,14.35.26,1.67.03,2.4.03,2.54,0l.21-.09c-2.65-.06-3.53-.1-2.58-.13.45-.01,1.06-.03-.69-.07-1.02-.01-3.19-.03-3.23-.03.32.14-6.7,0-9.44.04-.55.02-.79.02-1.18.03Z"/><path d="m287.05,8.05c3.26.12,6.52.24,9.7.27-5.48-.17-1-.14-4.85-.27l-6.16-.22c.79.08,4.06.23,1.31.22Z"/><path d="m122.28,4.6c-2.6-.09-5.98-.13-9.5-.16.11.04-.39.08.47.11,1.15.05-3.48.06.72.1,2.91.03,2.34-.03,2.02-.08-.14-.02-.16-.09,1.73,0,3.46.16,2.74-.02,4.56.02Z"/><path d="m233.33,6.7l4.64.13c.6-.02,4.57.04,1.07-.07-3.7-.12-4.96-.1-5.71-.06Z"/><path d="m222.28,6.42c-1.35-.01-2.59,0-1.77.03,2.48.11,5.32.1,8.06.17-.24-.09-3.81-.14-6.29-.2Z"/><path d="m139.06,5.05l6.13.08c-.33-.06-2.27-.12-4.72-.14-1.9-.02-1.27.03-1.41.06Z"/><path d="m71.04,4.19c-.43,0-.87,0-1.32,0l-.18.06c1.87,0,4.16.03,4.99-.02l-3.49-.04Z"/><path d="m239.17,6.85c.64.08,2.82.11,5.03.15l-.15-.06c-1.64-.03-3.26-.06-4.87-.08Z"/><path d="m209.49,5.92c-.33-.01-.65-.02-.97-.04h-.88c.4.02.87.03,1.18.04.3,0,.45,0,.67,0Z"/><path d="m127.04,4.65l-3.58-.04c.45.02.78.06,1.38.07,1.73.03,1.72-.01,2.19-.03Z"/><path d="m220.9,6.31l1.5.09c2.33,0,.51-.04-1.5-.09Z"/><path d="m244.05,6.94c.42,0,.93.02,1.34.03.41,0,.71.01.7,0,0,0-.6-.03-.91-.04-1.41-.03-1.01,0-1.13.01Z"/><path d="m204.01,5.94l-.21.09c1.99,0,2.16-.02.21-.09Z"/><path d="m161.92,5.15s.27.02.49.02c-.03-.01-.27-.02-.49-.02Z"/><path d="m66.39,4.23l-.07.03,3.18-.02c-1.02,0-2.07-.01-3.11-.02Z"/><path d="m216.22,6.24l-.35-.02c.13,0,.26.01.35.02Z"/><path d="m244.97,7.02l.45.04c1.34.01,1.07,0-.45-.04Z"/><path d="m177.78,7.28c1.87-.09,4.8-.18,2.65-.23-.92-.02-2.02-.04-3.95,0-2.86.04-3.18.1-3.57.15,1.49.03,2.22.08.96.16-.58.04-.44.07,1.25.04,2.03-.03,2.34-.07,2.66-.11Z"/><path d="m46.39,9.56c4.14-.08,2.76-.13,3.13-.19-1.53.02-3.69.08-3.91.02-.11-.03-1.6-.05-2.96-.01-1.4.04-2.68.1-3.17.14-.82.07,1.87,0,2.71,0,1.65.02,2.83.03,4.2.05Z"/><path d="m125.72,7.98c-2.81-.12-8.03.03-12.96.15,3.61.03,7.7,0,12.96-.15Z"/><path d="m129.55,7.91c-.53.01-1.06.02-1.59.04-.27.01-.44.02-.82.04-2.97.09-4.94.17-1.88.2.8,0,3,0,2.62-.04-.89-.07,8.87-.26,1.67-.24Z"/><path d="m163.67,7.28l-4.46.06s-3.77.18.19.14c2.92-.03,4.97-.13,4.27-.19Z"/><path d="m142.61,7.7h-4.96c.12.03-2.55.12-.28.11,1.81,0,3.76-.05,5.24-.11Z"/><path d="m55.89,9.22c.9,0,1.45,0,1.97,0,.57-.02,1.12-.03,1.68-.05-.48,0-.91,0-1.44,0-.55.02-1.18.03-2.22.06Z"/><path d="m134.3,7.74l-4.29.1c-.2,0-.41.02-.62.02l.2.03c.96-.02,2.15-.05,3.09-.07.94-.02,1.64-.05,1.62-.09Z"/><path d="m167.62,7.21c-1.27,0-2.54-.02-3.84.06l3.84-.06Z"/><path d="m65.22,8.89c.44,0,.66,0,.88-.02-.16,0-.32,0-.88.02Z"/><path d="m303.79.39c-1.72.01-3.7.02-4.73.07-.77.11-5.98.06-8.05.14-.78.03-3.42-.06-4.58.02-.71.05,1.87.08,3.46.1,1.62.03,2.9.03,5.15-.02,2.83-.06,6.11-.12,8.64-.02,1.52.06,4.26,0,5.86-.04,2.81-.06.53-.07-1.1-.09-2.59-.03-5.15-.07-4.66-.16Z"/><path d="m245.18,1.13c.12-.03-.32-.06,1.1-.1.36-.04,4.15-.08,2.28-.12-.66-.02-2.16-.03-3.15-.02-3.31.03-1.11.08-1.84.12-.4.02-.71.04-1.32.07-1.19.04-4.67.08-3.36.12,1.51.04,4-.06,6.28-.06Z"/><path d="m256.44.92c.33,0,.64,0,.95.01l.9-.04c-.4,0-.85,0-1.18,0-.29.01-.44.02-.67.03Z"/><path d="m333.12.28h1.54c-.5,0-1.03,0-1.54,0Z"/><path d="m344.44,9.66c.31.03.41.06,2.48.12-.28-.03-1.27-.07-2.48-.12Z"/><path d="m401.18.14h-3.16s.69.1-.28.12c-1.71.03-3.25.05-2.67.1.28.03,1.22.02,1.6,0,1.36-.05,5.93-.03,4.72-.12-.4-.03-.15-.07-.2-.1Z"/><path d="m410.35.26c-.97-.03-1.03-.08-3.25-.09-.31,0-1.09.02-1,.03.44.06,2.57.05,4.25.06Z"/><path d="m445.87.71c-.46-.03-.91-.06-1.36-.09,0,.03-.29.02,1.49.15l-.13-.07Z"/><path d="m384.25.31l-.36.06c1.83,0,1.56-.03,1.8-.05h-1.44Z"/><path d="m391.8.2l.55.04c1.49-.03-.04-.03-.55-.04Z"/><path d="m291.9,8.05c3.85.13-.63.11,4.85.27,1.99.06,3.4.08,4.44.09,2.2.01,4.92.05.81-.14-6.46-.29-6.75-.15-10.1-.23Z"/><path d="m317.86,8.76c-2.23-.06-5.78-.23-5.59-.14.06.03.96.1,3.48.17,2.44.06,6.03.14,6.17.12.27-.05-2.91-.09-4.05-.14Z"/><path d="m315.42,8.87c1.74.08,2.82.13,4.09.19,1.6.05,4.45.14,4.56.1.06-.02-.98-.08-2.68-.13-1.83-.05-3.6-.1-5.96-.16Z"/><path d="m336.68,9.38c.21.02.22.05,1.83.1.5,0,.78,0,1.16,0l-3-.11Z"/><path d="m309.3,8.58c.5,0,.19,0-.12-.01h.12Z"/><path d="m333.73,9.26l.7.02.7.02c-.47-.03-.94-.05-1.41-.05Z"/><path d="m236.36,6.13c.32.05,1.93.05,4.17-.01,2.86-.07,1.73-.11,2-.16-2.78.04-2.89.15-6.18.17Z"/><path d="m200.71,6.96c-.08-.05.8-.13-2.99-.08.23.04-.52.1,1.28.11.57-.01,1.14-.02,1.71-.03Z"/><path d="m236.34,6.13h-.34c.12,0,.25,0,.34,0Z"/><path d="m170.67,1.36h-2.81c.49.03-.94.09,1.31.08,1.28,0,1.6-.05,1.5-.08Z"/><path d="m132.71,1.66c-1.27.01-2.55.03-3.52.04-.97.02-1.61.04-1.6.08,1.89-.04,4-.07,5.12-.12Z"/><path d="m278.02,5.46c-3.14.08-6.38.2-7.2.07-.37-.06-4.37.04-6.65.06,1.25.06,2.24.12,3.81.17,3.34.1,9.47.02,14.47-.21.62-.03.94-.05,1.7-.09,2.85-.1,3.04-.22.2-.2q-1.18,0-1.86.1c-.32.04-.23.09-2.38.13-.66.01-1.39-.02-2.09-.03Z"/><path d="m301.41,4.9l-1.68.03c-2.96.19,1.65.2,1.51.32l4.66-.17c.44-.12-5.72-.04-4.48-.18Z"/><path d="m293.61,5.45c1.69-.03,3.43-.07,4.68-.13-.05,0,0-.01-.16-.01-2.08,0-1.7-.12-4.25-.04-3.76.11.44.11-.27.18Z"/><path d="m285.35,5.52c-.45.02-.97.04-.93.04.14.02.48.03.74.04.2-.01.57-.03.57-.04.01-.02-.22-.03-.38-.04Z"/><path d="m262.93,6.01c1.02,0,2.07-.01,2.3-.06-.98.01-2.34,0-2.3.06Z"/><path d="m267.32,5.92l.64-.03c-.28,0-.56.02-.64.03Z"/><path d="m357.99.47h4.39c1.31-.15,8.65-.14,11.03-.25-.24-.04.38-.1-3.14-.09,1.49.06-1.06.1-2.69.12-1.98.03-2.92-.02-3.66-.05h-4.45c-8.36.16-8.51.19-1.48.27Z"/><path d="m363.92.2c.74.03,1.68.08,3.66.05,1.62-.02,4.18-.06,2.69-.12-2.4,0-5.38-.01-6.35.07Z"/><path d="m342.08.31c4.22.15,5.56-.04,8.3-.06-3.37-.05-5.87,0-8.3.06Z"/><path d="m333.1.28h1.6c-.53-.04-1.06-.03-1.6,0Z"/><path d="m359.91,3.59c-3.05.07-3.19.12-3.44.17.46.06-1.13.08-2.82.1-.95.09-.28.16-4.66.28-.89.11,3.9-.03,4.58,0,6.18-.25,6.67-.41,6.33-.56Z"/><path d="m310.5,4.78l-1.95.05c1.09,0,1.37-.03,1.95-.05Z"/><path d="m7.57,3.6c.74-.05.94-.09,1.14-.13-1.56.05-3.12.1-4.67.14-.78.03-1.55.06-2.33.12-.1,0-.19.02-.3.03-.03,0-.05,0-.08.02-.02.01-.01,0-.07.03-.05.03-.06.12-.05.13.01.02.03.04.05.05.13.06.13.04.2.05.2.02.39.03.59.04l1.17.04c2.8.05,2.87-.01,2.98-.05-1.67-.03-3.71-.03-4.7-.15-.05,0-.16-.03-.16-.01.02,0,.11-.02.17-.03l.4-.04.81-.05,1.62-.08,3.23-.12Z"/><path d="m3.21,4.12l-1.17-.04c-.2,0-.39-.02-.59-.04-.06-.01-.07,0-.2-.05-.02-.01-.04-.03-.05-.05-.01-.02,0-.11.05-.13.05-.03.04-.02.07-.03.03-.01.06-.01.08-.02.1-.02.2-.03.3-.03.78-.06,1.55-.09,2.33-.12l4.66-.14.12-.07-5.38.15-1.35.07c-.23.02-.45.03-.69.06-.03,0-.06,0-.11.02h-.03s-.17.14-.13.24c.01.1.13.17.17.18.08.02.14.03.2.03l.34.03c.9.05,1.8.06,2.7.08l-1.32-.12Z"/><path d="m7.57,3.6l-3.23.12-1.62.08-.81.05-.4.04c-.06,0-.15.03-.17.03,0-.02.11.02.16.01l.02-.08h-.09s-.09-.06-.02.02c.02,0,.01.12-.04.12h.01s.04-.01.04-.01h.09s.39-.05.39-.05l.79-.05,1.59-.07,3.18-.1.12-.11Z"/><path d="m38.66,4.06c-.06-.03-.22-.07-1.93-.08-.78.01-1.8.03-2.71.04,1.1.04,2.93.04,4.64.04Z"/><path d="m1.5,3.92c.98.13,3.03.13,4.7.15-.95-.07-2.87-.04-4.7-.15Z"/><path d="m20.06,4.26s1.46-.03.09-.06c-.15,0-.58,0-.71,0-.9.02-.37.04.63.05Z"/><path d="m421.59,2.16c-2.6.1-4.95-.06-7.73.22-.43.16,5.21-.08,7.81-.12-.04-.03-.06-.06-.08-.1Z"/><path d="m389.21,3.11l.63-.02c-.2,0-.4.01-.63.02Z"/><path d="m421.67,2.26h.34c-.12,0-.24,0-.34,0Z"/><path d="m66.39,4.23l3.15.02.18-.06c-2.2-.02-3.27,0-3.32.04Z"/><path d="m114.88,1.88c-3.95,0-6.15.04-7.37.09-1.22.05-1.45.11-1.46.17l1.7.12c5.87.03,9.21-.14,13.78-.21.56-.12.16-.22-6.65-.17Z"/><path d="m40.08,3.02h-.67s.28.02.67,0Z"/><path d="m130.01,7.84h-1.1c.16.01.33.02.49.02.21,0,.42-.02.62-.02Z"/><path d="m55.13,2.83c-.54,0-1.07,0-1.63,0-.01,0-.29.01-.44.02.67,0,1.35,0,2.07-.01Z"/><path d="m143.14,1.91h2.96c-.21-.03-.35-.08-2.96,0Z"/><path d="m8.72,3.47c-.2.04-.4.08-.61.11,1.53-.04,3.23-.08,3.48-.13.26-.05-1.22-.03-2.88.01Z"/><path d="m369.35,3.45c-.17.04-.23.08,1.28.07-.16-.03.53-.09-1.28-.07Z"/><path d="m376.87,3.47h-.32c.11,0,.23,0,.32,0Z"/><path d="m364.65,3.69c.32.02.3.05,1.06.05.99,0,1.94-.06,1.62-.07-.63-.02,2.52-.17-2.23-.06-.15.03-.3.06-.45.08Z"/><path d="m364.65,3.69c.15-.03.3-.05.45-.08-2.36.07-2.16.09-.45.08Z"/><path d="m433.01.38c-.22,0-.41-.02-.67-.03-.03,0-.55,0-.58,0-.07,0,.02.02.04.03h1.21Z"/><path d="m229.59,1.04h-.62c.23,0,.46,0,.62,0Z"/><path d="m54.05,9.43l-2.41.07h.61c.64-.02,1.27-.04,1.8-.07Z"/><path d="m445.88,1.47c.25-.02.49-.05.75-.09.07-.01.13-.03.21-.05.05-.03.08,0,.2-.11,0,.02.11-.16.07-.26-.03-.09-.04-.09-.08-.13-.03-.03-.07-.06-.1-.07h-.04c-.19-.08-.29-.08-.43-.11l.23.05.13.04.08.03s.14.07.17.2c.01.07-.01.16-.05.2-.02.02-.03.03-.05.04-.03.03-.07.05-.08.05-.03.01-.07.03-.09.03-.05.02-.1.03-.14.04l-.27.05-.52.07Z"/><path d="m447.08.98c.01.07,0,.15-.04.2-.02.03-.03.03-.05.05-.03.02-.07.05-.08.05-.03.01-.07.03-.09.03-.05.01-.1.03-.14.03l-.26.04-.5.05-.99.07c.14,0,.55,0,.95-.03l.52-.07.27-.05s.09-.02.14-.04c.02,0,.06-.02.09-.03,0,0,.05-.02.08-.05.02-.01.03-.03.05-.04.04-.04.06-.13.05-.2Z"/><path d="m353.65,3.86c1.69-.02,3.29-.04,2.82-.1-.94.03-1.88.07-2.82.1Z"/>
                  </g>
                </mask>
              </defs>
              <path class="mask" d="m0,10.19c68.96-.82,165.59-2.22,281.38-4.72,97.5-2.11,165.84-3.58,165.47-4.45C445.91-1.19.87,2.64,1.31,3.91c.25.7,137.77-1.16,337.76,5.62,33.57,1.14,62.4,2.3,84.81,3.27"
                    mask="url(#path-mask)" stroke="black" stroke-width="2" fill="none"
                    stroke-dasharray="1315.298828125" stroke-dashoffset="1315.298828125">
              </path>
            </svg>
        