
            <svg xmlns="http://www.w3.org/2000/svg">
              <defs>
                <mask id="path-mask">
                  <g fill="white">
                    <path d="m238.17,1.72c-2.84-.05-1.05.34-1.63.5l-2.03-.19c-1.66-.26-3.59-.48-5.17-.78-3.24-.59-9.36-.52-11.97-.02-1.79-.06-2.92.02-3.68.17-2.38-.17-5.92.12-7.76-.2-.51-.23-2.6-.42-.85-.7,1.26-.18,2.64-.3,4.67-.14,1.68.14,3.21.13,4.16-.09h1.58c.98-.05,2.13.1,3.23.18,1.1.1,2.14.15,2.91-.16.61.02,1.74.06,1.77.07,1.56-.52,5.18-.22,8.3,0l.04.16c-.86.03-.69.08.28.13.16,0,.32,0,.49.01l.09.22c-.53-.01-1.31-.07-1.31.03,0,.02.38.08.58.08.9.03.65-.06.75-.11l3.1.02c.25,0,.51.02.77.02-.39.11-2.93.11-.7.34,2.36.26,3.17.13,3.67-.06.46-.19,1.47-.17,3.05.07.13.33,2.42.34,4,.54l-.09.09c-1.5.04-.34.17.94.3,1.71.37,1.9.06,2.99.15l.22.06-.25-.06c.12-.17-.51-.48,2.64-.11,1.95.27,3.64.4,3.34.06l1.95.19,1.66.57c-1.06-.11-1.53-.1-1.64,0-1.28-.04-1.4.07-.18.33,1.68.21,2.22.39,1.6.5-.29.06-.7.11.41.28.32.05.84.11,1.27.15.43.04.79.06.78.04-.14-.5,4.32.06,6.08.12.36,0,.52-.05.78-.07l.33-.09c1.98.34,4,.71,5.97,1.15,1.97.42,3.9.73,5.7,1,.91.12,2.13.56,2.99.85,1.56.51,2.62.82,3.54.86,2.48.75,4.91,1.65,7.33,2.54l.08.2c.13.27,1.26.8,2.74,1.33,1.14.41.83.1.96.02,4.06,1.44,8.06,3.06,12.13,5.05l-.14-.13c.08-.03-.19-.27.58.11.26.03.4-.04,1.38.48-.51.13,1.36,1.24,2.85,2.17,3.22,2.03,6.7,4.76,9.11,7.15.84.83,1.49,1.6,2.01,2.46.55.84.97,1.8,1.24,2.99.24,1.47.36.63.53.73.17,1.26-.03,2.51-.36,3.7-.38,1.18-.96,2.25-1.63,3.21-1.37,1.92-3.09,3.43-4.87,4.78l-.16-.25c.6-.66.32-.66-.13-.56-.79.16.06-.55,1.78-2.08.48-.49.9-1.02,1.32-1.54.78-.92,1.64-2.11,1.62-2.7-.34.64-.77,1.22-1.23,1.78-.29.14-1.17,1.01-.26-.33.33-.28.58-.62.83-.97.21-.37.38-.77.48-1.19.39-.9.6-1.85.64-2.81.26-.58.38-1.53.14-2.68-.23-1.14-.83-2.41-1.63-3.63-1.51-1.43-3.91-3.14-4.52-3.01-2.12-1.78-4.45-3.34-6.98-4.61.01-.16.38-.17-.05-.53-.57-.48,2.13.76-.22-.56-1.62-.92-1.42-.53-1.31-.29.04.12-.07.36-1.03-.42-1.76-1.42-1.63-.65-3.32-1.52-.23-.19-.37-.38-.72-.55-.99-.49-1.04-.35-1.36-.4-1.63-.75-3.3-1.38-4.96-2.06-1.68-.64-3.4-1.27-5.15-2.05-1.85-.74-2.98-.71-3.61-.66-5.57-1.8-11.24-3.37-17-4.52.03-.07.23-.12.06-.23-.49-.31,2.35-.08-.63-.73-2.65-.56-.43.25-.84.35-.12.02-1.01-.11-1.54-.17-2.47-.29-5.01-.75-7.6-1.08-1.29-.19-2.59-.38-3.88-.57-1.29-.18-2.59-.32-3.87-.48-1.49-.17-3.94-.19-5.1-.64-.66-.23-3.21-.65-5.95-1.03-2.74-.33-5.69-.58-7.12-.62Zm17.01,1.92l.57-.04c-.25-.04-.55-.1-.74-.12-.19-.02-.29.02-.43.03.21.05.41.09.61.13Zm28.91,4.86c.11.03.25.08.39.11,0-.05-.16-.09-.39-.11Z"/><path d="m200.45,2.03c6.63-.27,13.19.17,19.78.56.82,1.11,5.11.78,7.84,1.14.53.37.42.75,3.38.69,1.79-.02,4.34.31,6.62.56,1.8.35-3.93.86,2.79,1.11.97.16,2.36.19,2.44.59.04.2.95.54,1.83.6.89.06,1.74-.05,2.08-.18.56-.23-1.16-.34-1.68-.49-1.02-.32-1.73-.66-2.58-1,.57-.17,2.94.3,2.86-.09,1.39.74,6.64.86,6.5,1.61-.07.37-2.2.45-3.16.77-.99.32-4.94-.14-8.06-.6-1.41-.21-2.73-.55-4.14-.72-1.36-.18-2.99-.67-4.02-.46-1.1.22,2.67.45,1.94.77-2.19.06-4.46-.03-6.95-.48-.14-.64-.76-1.16-4.57-.87-2.82.22-6.31-.82-9.05-.27h-1.04s-1.97-.27-1.97-.27c-3.3-.76-6.9-.89-10.78-.28-2.31-.49-4.92-.72-8.28-.33l-1.43.02c.17-.05.28-.13.52-.16,1.89-.25,3.15-.52,1.2-.93-.51-.11-1.92-.21-1.68-.02.57.44-5.66.67-1.09,1.24-1.23.08-3.04,0-3.01.43h-2.14c-.08-.22,1.63-.47.18-.66-1.16-.15-2.4-.04-3.35.17h-1.35c-2.77-.05-2.95-.47-3.34-.87-.23-.23-.89-.41-2.21-.39-.49,0-1.26.1-1.42.19-.43.24.64.29,1.49.37,3.05.31-2.44.77.21,1.1-.66.39-2.36.38-3.97.4l-.03-.27c.03-.26,2.4-.65-.13-.75-1.87-.08-3.17.26-2.79.69l-2.45.02-3.39-.34c-.95-.29-1.43-.59-.62-.95.37-.16.28-.32-.8-.33-1.3-.01-1.5.19-1.7.37l-1.83-.17-.05-.58c3.09.01,6.57-.28,8.64.44.79.28,1.93.11,2.11-.19.13-.21-.11-.45,1.19-.58,5.35-.58,10.86-.69,16.52-.37,3.45.73,10.62.62,14.92-.24Zm35.1,3.46c-.36-.04-.72,0-1.08.01.3.09.56.21.9.26.35.05.76.02,1.42.03-.56-.14-.9-.27-1.23-.3Z"/><path d="m110.57,65.64c2.57.05,3.74.42,5.04.82.65.19.19.58,2.25.55,1.66-.02,1.3-.35,1-.63-.28-.27-.43-.54-.63-.81,2.02.1,4.04.16,6.06.24,0,.27-.72.6,2.03.69,2.08.07,3.01.26,2.92.62-.24.2-2.66.15-1.48.5.42.12,1.37.28,2,.29,2.12.04.73-.34,1.2-.51.26-.09.46-.2.85-.27.76-.13,2.99-.14,2.16-.4-.95-.29-2.56.04-4.01-.06l.02-.5c5.74.12,11.3.44,16.8.76-.91.54-1.5,1.2-6.23.63-.78-.1-2.04-.09-2.37.12-.35.22.63.31,1.7.38.34.29.69.59.9.91l-1.57.11,1.26.27c-3.77.26-7.28.05-10.56-.53-.85-.38-2.51-.83-4.25-.59-3.33.5-9.23-.83-11.49.06-3.19-.44-6.58-.54-9.87-.81.18-.6-2.33-.89-4.45-.9-1.89,0-3-.15-4.39-.44.54-.5,3.83.17,5.18-.05.51-.09,2.15.61,2.92.27.47-.2-1.16-.54-2.16-.82-1.02-.28-1.83-.39-3.27-.32-1.82.09-3.93.1-5.49-.63-.93-.44-2.7-.37-3.73-.34-1.81.04-.38.33.65.59,1.62.41,3.23.83,2.87,1.24l-1.07.06c-1.78-.89-5.37-.97-8.39-1.39-1.17-.17-3.9-.25-3.03-.82.21-.14-3.48-.32-3.6-.16-.27.34-1.24.2-2.57.03l-.98-.14c-1.84-.13-4.04-.19-3.19-.79.97-.26.94-.25-.59-.6-.67-.15-1.56-.38-1.69-.51-.46-.45,2.26.06,2.74-.13,1.39.14,2.82.29,4.2.43,1.38.14,2.69.37,3.83.85.58.24,2.38.21,2.28.14-.45-.31,3.38.06.72-.56.13-.16.44-.15,1.54.01,3.61.51,7.23,1.13,10.95,1.21.4,1.37,4.65.67,7.05.97,2.79.26,4.89-.1,7.84.23-.72.31-2.87.66,2.08.75Zm11.58,1.28l-.58.13c.25.03.54.08.75.08.19,0,.29-.06.43-.1-.21-.04-.41-.08-.6-.12Z"/><path d="m143.24,3.16c-3.51.39-7.8.63-11.03,1.1-2.88.04-7.24.65-10.64.94-.97.08-1.34.13-2.02.23-2.11.3-2.6.74-.25.56,2.47-.2,3.24-.2,3.88-.14.66.06,1.88.07,4.21-.35.26-.05,1.22-.16,1.64-.19,4.04-.28,7.92-.71,11.91-1,9.17-.68,18.35-1.26,27.53-1.72l-.03-.18c-.77.04-1.41.06-1.58,0-1.36.1-2.99.21-4.12.29-2.72.15-6.05.49-8.21.4-1.29-.08-10.66.38-12.55.62-.31.04-.64.1-.59.11.47.15-1.3.2-2.11.22-.96.01-1.56.02-2.4.03-.48.01-1.96.19-1.82.11.09-.05.94-.16,2.09-.28,2.4-.24,5.81-.48,6.11-.76Z"/><path d="m10.38,47.37c2.21,1.14,4.82,2.45,6.47,2.67-.62-.34-1.37-.84-1.82-1.02-1.75-.67-3.44-1.34-4.42-2.42-.8-.89.68-.25,1.8.05,1.98.55,3.27,1.38,4.63,2.33.84.6,2.38,1.34,3.22,1.48,2.85.55,3.83,1.45,5.33,2.31.99.45,2.34.74,2.51,1.11.04.07-.48.05-.67-.01-1.36-.42-1.3-.74-1.83-1.09l-3.18-.24c.81.71,1.88,1.19,3.04,1.59,1.15.42,2.44.58,3.63.89.02-.26.24-.43,1.95.06.02-.17.23-.3.03-.53-.6-.7,2.17.23,3.07.26.25,0,.83.13.97.31.28.37-.69.19-1.78.01-.62-.1-.27.36-.35.56.5.02,1.38.35,2.2.58.82.21,1.57.37,1.77.16-.33-.15-1.27-.42-.31-.32l.28.31c1.34.45.39.69,2.09,1.1.6.14,1.18-.08,1.76-.13.01-.15.25-.23,1.08-.1-.03-.06-.07-.13-.11-.2l-.89-.24c-1.42-.65-5.99-2.11.39-.76.42.09.66-.07.98-.12-1.37-.32-2.76-.64-4.13-.96-1.36-.34-2.68-.72-3.8-1.38-.27-.15-3.99-.84-6.4-1.56-.74.02-1.54-.26-2.96-.78-2.07-.77-4.15-1.63-6.2-2.53-2.03-.93-4.03-1.85-6.01-2.61-1.23-1.25-4.14-2.29-5.35-3.64-1.17-1.3-2.13-2.22-3.53-3.71-.94-1.04-1.25-2.02-1.27-2.65-.02-.64.24-.93.5-.95.01-1.26.58-2.54,1.53-3.66-.41-.07.25-1.16.82-1.98-.97.55-1.92,1.24-2.25,1.35-.32.12-.25-.67,1.5-2.49.46-.44.04-.31-.51.06-.65.82-1.56,1.71-2.3,2.79-.75,1.06-1.23,2.39-1.12,3.38.08,1.13.33,1.84.49,2.34.15.5.26.78.26.99.04.4-.22.44-.24.78.18.36.39.71.6,1.04.24-.02.65.47,1.49,1.42.3-.06.91.51,1.82,1.28l.13-.28c.86.78.63.76.54.87,1.58,1.72,4.53,3.52,4.53,4.25Z"/><path d="m198.89.59c-1.27.01-2.17.12-2.84.22-1.41.23-3.13.45-.5.62,4.14.26,4.31-.24,6.45-.36l3.94.14c1.84.32,5.38.03,7.76.2l.04.26c-2.28-.04-4.92.2-6.63,0-2.15-.26-4.39-.17-6.9-.1-9.9.31-19.84.62-29.8.93-.18-.1-.17-.19,1.06-.31l1.91-.08.99.05c.3.03.6.03.9-.04,6.29-.3,7.16-.42,4.76-.74-.07,0-.09-.02-.14-.04-5.55.45-7.06-.23-12.5.22-2.26.18-5.26.38-5.88.14,1.48-.1,3.14-.45,3.64-.35.95.19,2.5-.03,4.01-.12,5.41-.31,10.68-.5,16.24-.74,3.96-.17,7.98-.24,12.03-.33,4.05-.05,8.12-.09,12.18-.14,1.61,0,4.19-.09,4.31.24-.95.21-2.48.22-4.16.09-2.03-.16-3.41-.04-4.67.14-2.09-.07-4.18-.16-6.21.08Zm-9.91.89c-.04-.1-.62-.27-2.23-.17-1.56.1-3.85.31-3.93.42-.17.22,1.86-.06,2.59-.03,1.42-.08,3.7.08,3.57-.22Zm-4.66-.7c-1.02.03-2.84.1-2.91.27-.04.1.63.16,1.72.12,1.17-.05,2.3-.14,3.81-.23-1.12-.07-1.81-.18-2.62-.16Zm6.04.49h.6s-.08-.04-.08-.04c-.45.01-.47.03-.52.04Z"/><path d="m147.11,2.54c-2.46.2-4.38.2-7.15.06-4.03-.19-9.05.14-13.62.34-2.29.09-4.75-.06-6.88.33v.53c.51.23,1.82.57.28.71-4.56.42-3.91,1.38-7.05,1.92,1.68-.08,3.17-.25,4.48-.49.17-.01.31-.03.43-.06.17-.25-.56-.54,1.26-.72,1.43-.14,2.46-.07,2.68.23l.24.06-.22-.07c-2.12-.1-2.17.48-3.93.5-.11.03-.15.07-.13.1,2.03.49,4.46-.14,6.66-.12,2.78-.64,5.75-.69,8.76-.29.9.12,1.49.31,2.48-.04,1.53-.54,3.77-.42,5.93-.28,3.07-.45,1.64-.93.89-1.41-.2-.12-.85-.29.24-.39.92-.09,1.47.04,1.85.18l1.1-.03c-.58-.4,2.34-.65,1.73-1.06Z"/><path d="m184.49,69.04c1.95.28,3.99.46,6.67.17,3.35-.58,6.9-.71,10.7-.39.71-.25,2.06-.35,3.26-.48l2.02.08c-.25-.16-.62-.45-.72-.45-3.67.23-6.16-.33-9.7-.21-2.58.09-4.93.11-5.64-.44-.02-.02-.28-.02-.43-.03-.48.07-.97.14-1.46.21.44.62-2.16.61-4.14.59-6.52-.13-13.07.31-19.68-.04-3.99-.21-4.21-.05-2.3-.72.58-.2.96-.42,1.43-.64-3.79.12-8.19-.23-11.25.45.71.06,1.4.14,2.15.16,1.22.03,2.97-.34,3.5.05.22.16-1.7.45-2.91.61-.64.09-1.86.05-2.83.06-.8,0-1.68,0-2.07.15-.51.21.33.32,1.16.41,1.3.15,1.65.52,3.68.51,2.56.38,5.38.59,8.75.41,3.85-.51,8.35-.55,12.88-.55-.06-.15.14-.33.96-.33,1.44,0,.53.25.84.38,1.91-.52,3.88-1.17,5.11.02Z"/><path d="m173.39,2.12l.99.05.45-.02.45-.02c6.29-.3,7.16-.42,4.76-.74-.07,0-.09-.02-.14-.04-5.55.45-7.06-.23-12.5.22-2.26.18-5.26.38-5.88.14-1.63.23-4.56.36-5.78.62,1.57.04.05.36-.77.41-2.41.15-.95-.13-1.3-.21-.07-.02,0-.05,0-.07-1.85-.07-4.98.39-7.05.44-1.26.17-2.39.25-3.36.25-.31.27-3.71.51-6.12.76-1.15.12-2,.23-2.09.28-.14.07,1.35-.1,1.82-.11.84-.01,1.44-.02,2.4-.03.81-.03,2.58-.08,2.11-.22-.05-.02.28-.08.59-.11,1.89-.24,11.25-.7,12.55-.62,2.16.09,5.49-.25,8.21-.4,1.13-.08,2.76-.19,4.12-.29,1.32-.14,1.39-.06,1.59,0l.03.18,1.95-.08c-.18-.1-.17-.19,1.06-.31.24-.05.41-.13.74-.15,1.03-.07,1.04.02,1.18.08Z"/><path d="m103.88,6.73l-.08-.21c-.82-.37-1.48-.75-2.5-1.09-2.18-.73-6.11-.53-9.25.44-.39.12-.58.28-1.06.36-1.8.33-1.87.94-.04,1.03q.76.03,1.16-.4c.19-.2.11-.44,1.48-.57.42-.04.9.15,1.36.23,2.6-.04,2.46.4,3.06.72-2.93.42-5.94.64-8.98.77,1.2-.68-1.78-.54-3.23-.69l-1.5.5-3.07.52c-.05-.04-.07-.09-.05-.14,1.81-.86-1.18-1.07-1.16-1.69l1.87-.24s.01.07.11.07c1.35.05,1.17.66,2.78.39,2.38-.39-.34-.57.08-.93l1.08-.51c4.56-.41,9.21-.93,13.69-.93l1.94-.12.1.36-.4.12.53-.1,1.21-.08c.62,0,1.5.1,1.47-.19l1.96-.29-.27.07-.3-.04c1.37.34,4.72.11,5.7.74.46.3,4.67-.48,6.96-.83.38-.06.62-.15.93-.23.51.23,1.83.57.28.71-4.56.42-3.91,1.38-7.05,1.92-3.03.36-5.97.48-8.8.3Zm-13.11-1.03c-.1-.09-.32-.17-.5-.25-.13.06-.35.13-.35.18,0,.08.15.15.27.25.28-.08.61-.15.58-.18Z"/><path d="m31.04,55.07c-1.71-.48-1.94-.32-1.95-.06l1.58.54,1.24.35c3.02,1.13,6,1.95,9.35,2.57.68.12,1.51.3,2.37.52.85.22,1.74.42,2.53.69,1.73.56,5.09,1.28,5.67,1.34,6.15.56,11.93,1.87,17.73,2.98,2.13.41,3.51.37,5.27.58,8.97,1.14,17.97,2.08,26.98,2.82.97.09,1.95.24,2.53.06.18-.6-2.33-.89-4.45-.9-1.89,0-3-.15-4.39-.44-.68.17-1.94.02-3.04-.07l-1.07.06c-1.78-.89-5.37-.97-8.39-1.39-1.17-.17-3.9-.25-3.03-.82.21-.14-3.48-.32-3.6-.16-.27.34-1.24.2-2.57.03-.34.12-.68.06-.99-.15-1.82-.12-4.02-.19-3.16-.78-.49-.07-.98-.15-1.47-.23-1.58.03-3.21.06-5.29-.62-1.83.1-3.64.35-5.75-.92l-2.8-.52c-.69.33-2.53-.23-4.05-.52-2.22-.44-1.77-.65-1.87-.92-1.34.04-2.64-.12-3.92-.41-1.27-.31-2.5-.8-3.71-1.32-.58.06-1.16.28-1.76.13-1.71-.41-.76-.64-2.09-1.1-.19.21-.92.05-1.74-.16-.81-.23-1.69-.56-2.2-.58l-1.94-.62Z"/><path d="m63.33,8.48c-1.43-.1-2.99-.03-4.98.66,1.22.08,2.41.2,1.09.78-1.04.46-1.95.12-3.1.45-1.63-.28-2.45.22-3.41.71-1.09.57-2.2.88-3.08.57-2.73.67-2.21,1.04-2.63,1.48.49.3,2.73-.03,3.87.06,1.89-.02,4.33-.37,6.61-.96,1.72-.42,3.22-.7,4.91-.88,1.67-.49-.2-.84,2.76-1.33,2.2-.34,1.89.13,2.28.35l1.95-.33c-.18-.24-.48-.45-.49-.71,0-.17.89-.37,1.73-.48.73-.1,1.3-.07.9.1-.6.27-2.29.67-.45.6.46-.02,2.01-.56,3.06-.86.33-.11.49-.29,1.2-.22l-1.23.22c.84.62,3.26.15,5.81-.35.72-.69-3.23-.5-3.02-1.09-4.19.86-4.2.41-3.95-.16-1.69.33-3.13.14-4.86.58.34.58-1.46,1.36-4.38,1.76-4.06.54,1.22-.74-.22-.82-.2,0-.24-.07-.36-.11Z"/><path d="m291.57,58.15l1.55-.48,2.94-1.09,1.09-.37s-.08-.07-.13-.1c-.67.15-1.01.17-.49-.1.07-.04.34-.13.43-.15.86-.21.01.19.03.27,1.54-.53,2.64-1.03,3.28-1.51,2.02-1.46,5.72-2.44,5.73-2.23,0,.61,2.38-.4,4.12-1.12,1.02-.6,2.04-1.2,3.06-1.81,1-.63,2.01-1.27,3-1.94.88-.57,2.62-1.6,1.98-1.54-.52.06-2.31,1.32-2.83,1.51-.8.31-1.7.93-2.56,1.44-.86.51-1.66.91-2.23.84-1.19.52-2.57,1.19-2.87,1.02-1,.44-2.06.9-2.78,1.01-1.12.42-2.21.92-3.35,1.29-1.14.38-2.27.76-3.39,1.14-4.47,1.4-8.2,3.13-12.88,4.06l.08.36c1.13-.31,2.3-.64,2.95-.58-.02.22,0,.43-1.74.9l.94.24c1.36-.36,2.73-.67,4.08-1.07Z"/><path d="m4.18,28.51c.54-.37.96-.51.51-.06-1.76,1.82-1.83,2.61-1.5,2.49.33-.1,1.27-.8,2.25-1.35.45-.39.91-.78,1.39-1.14l-.34-.4-.23.08.22-.07c1.42-.88,4.4-2.98,4.52-2.17,2.38-1.38,4.93-1.82,7.49-3.57.37-.24,2.22-.79,2.42-.56.89-.36,1.8-.69,2.7-1.01,1-.88,4.4-2.25,3.53-2.63-.04-.02.57-.29.88-.44,2.37.29,2.84-1.19,4.52-1.55-.03-.05-.04-.11-.06-.17-5.06.58-5.92,1.88-7.36,3.02l-.34.18.37-.18c-.96.28-2.71.87-2.78.79-.47-.53-1.49-.25-2.71.33-1.24.55-2.65,1.44-3.98,2.11-2.78,1.37-5.8,3.19-8.44,4.24-.61.32-.95.35-1.37.51-.42.15-.95.39-1.89,1.23l.2.32Z"/><path d="m158.95,3.72l-1.83-.17c-4.46-.06-4.4-.65-3.95-1.3-1.47-.2-1.39.16-2.11.23,1.33.83-.84,1.61-4.89,1.77.94.42,1.02.86.02,1.32,1.03.43,1.88.11,2.77-.06-.59-.09-.74-.23.06-.27,1.09-.04.92.17,1.03.31,2.36.59,5.83.12,8.33.07,4.11-.09,8.59.18,12.47-.35l-.03-.27-2.85-.07c-.89.35-1.71.18-2.52.03l-3.39-.34c-.24.25-.45.53-2.27.51-1.23-.01-1.94-.18-2.53-.37-1.38-.44.49-.72,1.69-1.04Z"/><path d="m310.53,49.78c.56.07,1.37-.34,2.23-.84.85-.52,1.75-1.13,2.56-1.44.52-.2,2.31-1.45,2.83-1.51.64-.06-1.1.97-1.98,1.54-1,.68-2,1.31-3,1.94-1.02.6-2.04,1.2-3.06,1.81l.89-.14,1.05-.49c2.68-1.79,6.39-3.54,9.28-5.84.6-.66.32-.66-.13-.56-.79.16.06-.55,1.78-2.08l-.07-.14c-.11-.18.34-.68,1.28-1.68.18-.22.34-.44.5-.66-.29.14-1.17,1.01-.27-.33l-.17-.03c-.81,1.03-1.81,1.95-2.86,2.79-1.05.85-2.18,1.62-3.35,2.36-2.33,1.46-4.78,2.81-7.26,4.11.96-.08,2.63-.5-.26,1.18Z"/><path d="m231.88,67.45c1.17-.1,1.11.63,3.15-.05,1.53-.5,3.04-.05,4.58-.3.38-.72,2.49-.77,4.72-.73,1.89.04,3.42-.21,4.81-.56,1.44-.37,2.05-.71.48-.85-2.08.16-4,.09-6.22.43-3.45.55-5.36.8-7.12.89-1.76.11-3.35.08-6.15,0-.13,0-.4,0-.43,0-2.79.87-7.16.1-10.02.83.29.29.34.62,2.31.69.06-.23.52-.28,1.86-.31,1.42-.04,2.79-.04,4.13-.05,1.34-.02,2.64-.02,3.91.01Z"/><path d="m310.53,49.78c2.88-1.68,1.22-1.26.26-1.18-2.05.78-3.44,1.18-6.16,2.75-.98.57-2.52,1.26-4.29,1.81-1.77.57-3.67,1.25-5.4,1.75-2.31.73-4.66,1.54-7.08,2.12-1.21.31-2.42.61-3.62.92-1.21.28-2.43.48-3.64.69-2.12.35-3.51.68-3.19,1.07.31.39,2.01,0,3.9-.49,1.32-.3,2.65-.56,3.95-.93,4.68-.93,8.42-2.66,12.88-4.06,1.12-.38,2.26-.76,3.39-1.14,1.14-.37,2.23-.87,3.35-1.29.51-.29,1.05-.67,1.51-.85,1.02-.39,1.18-.28,1.27-.16.3.17,1.68-.5,2.87-1.02Z"/><path d="m25.12,18.99c1.44-1.13,2.29-2.44,7.36-3.02l3.78-1.34c.99-.41,2.03-.81,1.69-1.01-1.94.02-4.22,1.06-6.19,1.66-7.51,2.34-15.01,5.06-21.92,9.11-1.84,1.12-2.01,1.45-2.6,2.07,2.64-1.04,5.66-2.87,8.44-4.24,1.33-.67,2.74-1.56,3.98-2.11,1.22-.58,2.24-.86,2.71-.33.07.07,1.81-.51,2.75-.79Z"/><path d="m164.5,66.7c-.47.21-.85.43-1.43.64-1.9.67-1.68.51,2.3.72,6.61.35,13.16-.09,19.68.04,1.98.03,4.58.03,4.14-.59-3.71-.57-7.74-.48-12.18-.1-2.86.24-5.05.12-4.51-.57-2.88.32-5.28-.18-8.01-.14Z"/><path d="m219.68,67.11c2.86-.74,7.23.03,10.03-.83.03-.01.3-.01.43,0,2.8.08,4.39.11,6.15,0,1.76-.1,3.68-.34,7.12-.89,2.21-.34,4.14-.28,6.22-.43-.94-.48-1.95-.94-5.38-.91l-2.46.57c-.89.44-2.31.56-4.32.62-2.45.09-5.41.34-7.53.44-4.28.21-8.06.93-12.16.78l1.12.68c.27-.01.54-.02.81-.02Z"/><path d="m269.5,61.44c-1.18.74-2.14,1.39,2.95.55,1.64-.27.65.12.55.28-1.22.38-2.54.65-3.77.83-1.24.17-2.4.22-3.31.25-4.64.1-5.6.74-6.51,1.46l-.93.14c-3.05.06-8,.47-3.41-.95.83-.26.77-.55,1.12-.82l3.87-.47c1.29-.18,2.57-.36,3.85-.55,1.66-.22,2.91-.42,3.03-.78.96-.12,1.91-.24,2.86-.4-.09.15-.02.28-.29.45Zm-8.13,1.67c-.1,0-.27.02-.51.11.14-.01.29-.03.51-.11Z"/><path d="m245.8,5.5c1.39.74,6.64.86,6.5,1.61-.07.37-2.2.45-3.16.77-.99.32-4.94-.14-8.06-.6-1.41-.21-2.73-.55-4.14-.72-1.36-.18-2.99-.67-4.02-.46-1.1.22,2.67.45,1.94.77,4.53,1.13,10.36,1.1,15.02,2.43,1.47.41,1.22-.17,2.44-.04,1.2-.02-3.98-1.17.34-.63,1.54-.32,5.38.07,4.94-.76-.88-.22-2.04-.44-2.6-.65-1.39-.52-1.21-1.46-5.04-1.24-.02,0-.34-.11-.76-.24-.42-.13-.94-.29-1.35-.38-2.39-.53-4.7-.82-6.77-.77.6.83,3.38.46,4.72.91Z"/><path d="m258.21,10.12c1.18.24,2.01.5,2.59.81,1.44.77,4.28,1.61,6.61,1.81,2.08.18,4.02.17,4.36-.28.65-.81-1.81-1.81-7.56-2.89-1.4-.26-3.09-.87-4.66-1.31-1.82.07-1.23.65.58,1.29,1.84.66,3.62.81,5.04.77.52-.02,2.84.3,2.56.63-.25.29,1,.87.1.99-.55.08-.86.26-2.4-.04-1.6-.3-2.26-.64-2.39-.91-.14-.28-.34-.53-2.13-.86-1.74-.32-2.66-.32-2.7,0Z"/><path d="m217.75,66.45c4.1.15,7.88-.57,12.16-.78,2.12-.1,5.08-.35,7.53-.44,2.02-.06,3.43-.18,4.32-.62-1.75-.26-3.9-.22-6.14-.07-2.24.16-4.58.43-6.7.56-3.17.19-6.37.38-9.55.57-1.59.09-3.18.17-4.75.19-1.58.01-3.14-.02-4.69-.11l-.5.25c.93.24,4.16.44-.75.72-1.61.09-2.51.42.27.43,2.91-.25,5.02-.99,8.79-.71Z"/><path d="m3.08,35.23c-.26.02-.52.31-.5.95.02.63.33,1.61,1.27,2.65,1.4,1.49,2.36,2.41,3.53,3.71,1.21,1.35,4.12,2.39,5.35,3.64,1.98.76,3.97,1.67,6.01,2.61,2.04.91,4.13,1.76,6.2,2.53,1.42.52,2.22.8,2.96.78-1.85-.85-3.74-1.81-5.76-2.62-2.02-.81-4.13-1.69-6.26-2.67-2.7-1.24-5.43-2.65-7.85-4.7-1.04-.9-2.23-1.89-3.22-3.05-1-1.15-1.72-2.5-1.73-3.82Z"/><path d="m186.75,4.96h-2.14s-3.17-.49-3.17-.49c-.45,0-.9,0-1.35,0l-4.39.44c2.6.94,7.75.59,11.46.6,7.37.04,14.8-.36,22.17-.35l1.97-.16c-3.3-.76-6.9-.89-10.78-.28-3.15.21-6.48.59-8.28-.33l-1.43.02-1.02.06c.02.14.06.2.1.27.1.05.21.09.31.14l-.7-.06-2.74.16Z"/><path d="m320.35,25.08c-2.12-1.78-4.45-3.34-6.98-4.61-1.94-1.1-3.86-2.06-5.25-3.01-1.37-.63-2.06-.95-2.75-1.26-1.63-.75-3.3-1.38-4.96-2.06-1.68-.64-3.4-1.27-5.15-2.05-1.85-.74-2.98-.71-3.61-.66,5.13,1.7,10.11,3.77,15,6.03,4.87,2.29,9.66,4.81,13.86,8.05l-.16-.43Z"/><path d="m273,62.27c-1.22.38-2.54.65-3.77.83-1.24.17-2.4.22-3.31.25-4.64.1-5.6.74-6.51,1.46,7.53-.88,15.13-1.7,22.44-3.9,1.77-.49,2.97-.41,4.4-.85,1.98-.6,5.11-1.18,5.31-1.9-1.35.4-2.72.71-4.08,1.07l-3.36.8-3.39.67-3.85.86-3.88.72Z"/><path d="m250.33,2.39c.12-.17-.51-.48,2.64-.11,1.95.27,3.64.4,3.34.06-8.05-1.15-16.16-1.94-24.6-1.97l.04.16.28.13c.16,0,.32,0,.49.01,1.41-.01,2.81-.02,3.21.25.25,0,.51.02.77.02l2.96.28c.46-.19,1.47-.17,3.05.08,1.75.13,3.58.01,5.15.38.52.12-.28.17-1.15.16l-.09.09.94.3c1.71.37,1.9.06,2.96.15Z"/><path d="m258.48,64.95c-3.05.06-8,.47-3.41-.95.83-.26.77-.55,1.12-.82-1.44.11-.98-.13-1.09-.26l-1.91.26c.64.3-1.82.73-1.86,1.06l1.29-.07c-.09.03-.27.09-.27.09-.36,0-.7,0-1.05-.01-1.73-.03-.72-.48-1.1-.72-1.98-.24-3.96-.14-5.96.51,3.43-.03,4.44.43,5.38.91,1.58.14.96.49-.48.85-1.39.36-2.92.6-4.81.56-2.23-.05-4.34.01-4.72.73,4.98-.39,10.03-1.05,14.96-1.39,1.95-.11,2.94-.42,3.91-.76Z"/><path d="m208.97,67.16c-2.77-.01-1.87-.34-.27-.43,4.91-.28,1.67-.48.75-.72-.83.37-2.37.16-3.55.25.14.22-.76.56-1.48.49-3.6-.31-6.13.42-9.26.43-1.66.31-1.76.08-1.89-.14-1.7-.25-2.11.01-2.6.24.15,0,.41.01.43.03.71.55,3.07.53,5.64.44,3.54-.11,6.03.45,9.7.21.09,0,.47.29.72.45l3.85.2,2.05.13.22-.5c-4.36.06-4.63-.47-4.3-1.09Z"/><path d="m155.94,69.11c-2.03.01-2.38-.36-3.68-.51-.83-.1-1.67-.21-1.16-.41.39-.16,1.27-.15,2.07-.15.96-.01,2.18.03,2.83-.06,1.21-.17,3.13-.45,2.91-.61-.53-.39-2.28-.01-3.5-.05-.74-.02-1.43-.11-2.15-.16-.93-.28-1.78,0-2.67,0-1.48.12-3.07.31-2.63.62,1.69,1.16-2.9,1.16-7.04,1.17.5.26,2.65.19,2.82.51,3.38-.17,6.59.23,10,.17,2.45-.03,1.92-.28,2.2-.51Z"/><path d="m195.16,67.19c3.13,0,5.66-.74,9.26-.43.73.07,1.62-.27,1.48-.49-6.26.19-12.5.27-18.76.52-3.14.11-6.44,0-9.56-.08-1.88-.06-3.41.02-5.06.13-.55.69,1.64.81,4.51.57,4.44-.38,8.48-.47,12.18.1.49-.07.98-.14,1.46-.21.48-.23.9-.5,2.6-.24l1.89.14Z"/><path d="m273,62.27l3.88-.72,3.85-.86v-.34c-1.05.22-1.98.37-1.86.13.12-.24,1.18-.46,2.14-.67.32-.23.31-.41.29-.58-1.89.49-3.59.87-3.9.49-2.49.31-5.04.71-7.61,1.27-.09.15-.02.28-.29.45-1.18.74-2.14,1.39,2.95.55,1.64-.27.65.12.55.28Z"/><path d="m36.26,14.63l-3.78,1.34.05.17h.23s-.22,0-.22,0c-1.68.36-2.15,1.83-4.52,1.55-.31.15-.92.42-.88.44.88.38-2.53,1.75-3.53,2.63.27.11,1.08-.23,1.81-.5.87-.63,2.46-1.07,3.84-1.58,1.06-.22,1.48-1.12,2.19-.82.74.32,2.35-.54,3.35-.69,1.55-.82,2.36-.84,3.01-.67,1.01-.19,2.27-.16,2.76-.8l.36-.39c-1.19.18-1.84.05-3.48.5-1.15.18-.77-.13-.92-.27-5.16,1.16.5-.8-.26-.91Z"/><path d="m234.52,2.03c-1.66-.26-3.59-.48-5.17-.78-3.24-.59-9.36-.52-11.97-.02,2.43.01,5.13.08,3.42.43,2.33.1,4.65.2,6.95.26,2.29.09,4.56.15,6.77.11Z"/><path d="m36.53,15.54c-5.16,1.16.5-.8-.26-.91.99-.41,2.03-.81,1.69-1.01,1.46-.42,2.93-.94,4.4-1.34,1.47-.42,2.93-.7,4.34-.66.14,0,.19.03.15.09-3.76,1.39-3.87,2.28-3.48,3.01l-2.45.61c-1.19.18-1.84.05-3.48.5.06-.21.04-.4-.92-.27Zm2.9-1.38c-.64.08-1.18.38-.96.43.44.09-1.41.99,1.52.21,1.44-.47,1.29-.56.19-.44-.23-.08-.26-.26-.75-.2Z"/><path d="m22.42,52.54c-.87-.35-1.46-.94-2.56-1.06-2.47-.24-2.39-.92-3-1.44-.62-.34-1.37-.84-1.82-1.02-1.75-.67-3.44-1.34-4.42-2.42-.8-.89.68-.25,1.8.05,1.98.55,3.27,1.38,4.63,2.33.84.6,2.38,1.34,3.22,1.48,2.85.55,3.83,1.45,5.33,2.31-1.05-.08-2.11-.16-3.17-.24Zm-9.92-5.11s.33.14.35.14c.06-.02.03-.09.04-.14l-.72-.3c.1.1.2.19.33.3Z"/><path d="m269.35,4.38c1.98.34,4,.71,5.97,1.15,1.97.42,3.9.73,5.7,1,.91.12,2.13.56,2.99.85,1.56.51,2.62.82,3.54.86-.79-.33-1.63-.65-2.51-.94-.89-.26-1.81-.51-2.75-.74-.94-.22-1.9-.45-2.86-.68-.96-.18-1.93-.37-2.88-.55-1.23-.23-2.43-.51-3.62-.76-1.19-.24-2.38-.48-3.57-.72-2.37-.51-4.77-.86-7.28-1.09-.73-.07-1.62-.2-1.96-.13.98.4,2.67.72,4.67.84,2.41.13,3.51.52,4.56.91Z"/><path d="m258.21,10.12c.05-.31.97-.31,2.7,0,1.79.33,1.99.58,2.13.86.14.27.79.61,2.39.91,1.54.3,1.85.11,2.4.04.9-.12-.34-.7-.1-.99.28-.32-2.04-.65-2.56-.63-1.42.04-3.2-.11-5.04-.77-1.82-.65-2.41-1.22-.58-1.29-.62-.25-1.25-.44-1.94-.39.43.83-3.41.44-4.95.76,1,.33,1.9.67,1.92.94l3.62.55Z"/><path d="m40.78,57.4c1.22.52,2.44,1.01,3.71,1.32,1.27.29,2.58.45,3.92.41,1.61-.22,6.17.9,7.13.32l-.24-.64c-1.65-.45-3.16-.78-4.59-.81-.24.06.35.35-.67.19l-.24-.38c-.27-.09-.58-.17-.91-.22-3.96-.74-3.39.46-7.03-.3-.83-.13-1.07-.06-1.08.1Z"/><path d="m311,51.14l-.89.14c-1.73.73-4.12,1.73-4.12,1.12-.01-.21-3.72.77-5.73,2.23-.63.48-1.73.98-3.28,1.51.08.02.13.05.17.08l.08.47c4.66-1.46,9.36-2.88,13.77-5.55Z"/><path d="m312.6,17.84c-.51.13,1.36,1.24,2.85,2.17,3.22,2.03,6.7,4.76,9.11,7.15.84.83,1.49,1.6,2.01,2.46.55.84.97,1.8,1.24,2.99.24,1.47.36.63.53.73-.13-1.39-.62-2.68-1.24-3.82-.61-1.16-1.42-2.15-2.24-3.1-1.7-1.87-3.69-3.38-5.86-4.71-1.86-1.18-4.21-2.66-6.4-3.87Z"/><path d="m6.82,28.44c-.49.36-.94.75-1.39,1.14-.57.82-1.23,1.91-.82,1.98,1.55-1.59,3.57-3.01,5.72-4.27,2.15-1.25,4.47-2.38,6.82-3.16,1.88-.65,2.16-1.53,3.76-2.38-.2-.23-2.05.32-2.42.56-2.56,1.74-5.11,2.18-7.49,3.57-1.03,1.77-2.89,1.47-4.18,2.56Z"/><path d="m68.16,62.63c.49.08.98.15,1.47.23.97-.26.93-.25-.59-.6-.67-.15-1.56-.38-1.69-.51-.46-.45,2.26.06,2.74-.13l-2-.66-3.19-.58c-2.2-.11-4.39-.3-6.59-.45,4.33,1.3,4.23,1.42-1.17,1.17,2.11,1.27,3.92,1.03,5.75.92,1.75.23,2.74-.63,5.28.62Z"/><path d="m140.92,68.94c4.14-.01,8.73,0,7.04-1.17-.43-.3,1.15-.49,2.63-.62-.46-.6-2.55-.13-3.8-.22-.91.54-1.5,1.2-6.23.63-.78-.1-2.04-.09-2.37.12-.35.22.63.31,1.66.37l.44-.03-.4.03,1.03.88Z"/><path d="m46.7,11.61c.14,0,.19.03.15.09.48.16,3.47-.62,3-.06.88.31,1.99,0,3.08-.57.96-.49,1.78-.99,3.41-.71,1.15-.33,2.06.01,3.1-.45,1.32-.58.13-.69-1.09-.78-3.97.63-8.29.93-11.64,2.48Z"/><path d="m105.87,4.12c1.37.34,4.72.11,5.7.74.46.3,4.67-.48,6.96-.83.38-.06.62-.15.93-.23v-.53c-3.56-.27-6.85.55-10.36.51l-2.59.2c-.34.03-.55.07-.64.14Z"/><path d="m251.24,3.37c-.66-.23-3.21-.65-5.95-1.03-2.74-.33-5.69-.58-7.12-.62-2.84-.05-1.05.34-1.63.5,1.8.07,3.61.06,5.3.38.37.07,1.61.19,1.69.19,2.32-.24,5.17.42,7.7.58Z"/><path d="m245.8,5.5c-1.33-.45-4.12-.08-4.72-.91-1.36-.53-2.78-.51-4.2-.52-2.39.25-6.05-.39-8.82-.34.53.37.42.75,3.38.69,1.79-.02,4.34.31,6.55.53l1.25-.1.37.16-1.55-.04c1.8.35-3.93.86,2.79,1.11.27-.26-.55-.78,2.09-.49.57-.17,2.94.3,2.86-.09Z"/><path d="m310.63,17.26c.08-.03-.19-.27.58.11-5.36-2.81-11.15-5.6-16.35-6.58l.08.2c1.25.41,2.46.91,3.7,1.36,4.06,1.44,8.05,3.07,11.99,4.93Z"/><path d="m228.07,3.73c2.77-.05,6.43.59,8.82.34-.25-.65-2.48-.41-3.59-.57-4.27-.64-8.72-.84-13.07-.91.82,1.11,5.11.78,7.84,1.14Z"/><path d="m157.07,2.97c3.09.01,6.57-.28,8.64.44.79.28,1.93.11,2.11-.19.13-.21-.11-.45,1.19-.58.41-.6-2.18-.41-3.55-.42-3.09-.02-6.22.03-9.34.06.26.23-.53.53.94.69Z"/><path d="m141.31,5.25c-2.16-.14-4.4-.26-5.93.28-.99.35-1.58.17-2.48.04-3.01-.41-5.97-.35-8.76.29,2.8.44,6.28.25,9.67.13,2.5-.11,4.98-.22,7.47-.33l.02-.41Z"/><path d="m108.49,64.89c-.72.31-2.87.66,2.08.75,2.57.05,3.74.42,5.04.82.65.19.19.58,2.25.55,1.66-.02,1.3-.35,1-.63-.28-.27-.43-.54-.63-.81-3.25-.21-6.5-.41-9.74-.68Z"/><path d="m73.15,7.07c-.25.58-.24,1.03,3.95.16l2.92-.71,1.87-.24c.78-.27,1.89-.38,2.97-.47l1.08-.51c.06-.37-1.25-.14-2.29.01-3.53.54-7.02,1.12-10.51,1.75Z"/><path d="m68.09,60.95l2,.66c1.39.14,2.82.29,4.2.43,1.38.14,2.69.37,3.83.85.58.24,2.38.21,2.28.14-.45-.31,3.38.06.72-.56-2.16-.21-4.4-.61-6.61-.94-2.2-.36-4.37-.66-6.42-.58Z"/><path d="m74.33,8.68c-1.05.3-2.6.84-3.06.86-1.84.07-.15-.34.45-.6.4-.18-.16-.2-.9-.1-.84.11-1.74.31-1.73.48,0,.26.31.48.49.71,3.6,0,7.6-.67,11.58-1.21l.07-.46c-.05-.04-.07-.09-.05-.14l-1.07.11c-2.54.51-4.97.97-5.78.36Z"/><path d="m41.86,57.3c3.64.76,3.07-.44,7.03.3-1.92-.87-3.89-1.59-6.67-1.62-.32.05-.57.21-.98.12-6.38-1.36-1.81.11-.39.76.18-.08.05-.28,1.18.01l-.29.23c.05.07.08.13.11.2Z"/><path d="m129.92,68.81c-.85-.38-2.51-.83-4.25-.59-3.33.5-9.23-.83-11.49.06,5.33.42,10.58.59,15.73.53Z"/><path d="m211,68.62l-3.85-.2-2.02-.08c.02.43-1.64.45-3.26.48-3.81-.32-7.36-.19-10.7.39.32.18,1.36.34,2.06.27,2.87-.29,5.92-.26,8.95-.32,3.03-.06,6.05-.14,8.83-.54Z"/><path d="m227.93,6.4c-.14-.64-.76-1.16-4.57-.87-2.82.22-6.31-.82-9.05-.27,4.04.99,8.98.79,13.62,1.14Z"/><path d="m326.37,34.41c.26-.58.38-1.53.14-2.68-.23-1.14-.83-2.41-1.63-3.63-.02.74-1.2-.22-2.81-1.25,1.23,1.49,2.46,2.66,3.36,4.13.36.33.65.88.81,1.5.14.63.18,1.31.14,1.93Z"/><path d="m185.54,2.27c3.45.73,10.62.62,14.92-.24-4.26-.32-8.53.03-12.79.08-.1.38-1.15.25-2.13.17Z"/><path d="m5.18,42.53c-.91-.77-1.52-1.35-1.68-1.16.28.36.56.71.86,1.05l.08.35c-.23-.25-.46-.49-.68-.75-.14-.26-.28-.5-.41-.76-.84-.95-1.25-1.44-1.49-1.42,1.09,1.74,2.34,3.1,3.71,4.35,1.38,1.23,2.93,2.32,4.81,3.19,0-.72-2.95-2.52-4.53-4.24-.23-.19-.45-.39-.67-.6Z"/><path d="m177.58,68.97c-4.53,0-9.03.04-12.88.55,1.52.31,2.95.46,5.22.13,2.88-.42,6.45-.07,9.63-.25l-.18-.39c-.58-.02-1.18-.03-1.78-.05Z"/><path d="m146.18,4.26c4.04-.16,6.22-.94,4.89-1.77l-3.96.04c.61.4-2.31.66-1.73,1.06,1.15.17.68.44.8.67Z"/><path d="m58.3,59.92c2.2.15,4.39.34,6.59.45-3.23-.82-6.42-1.63-9.59-1.56l.23.64,2.76.47Z"/><path d="m43.37,14.71l-2.45.61-.35.39c3.59-.77,7.28-1.34,10.51-2.53-1.14-.09-3.37.24-3.87-.06-.68.22-1.25.41-1.82.6-.1.28-.14.54-2.02.99Z"/><path d="m141.31,5.25l-.02.41,4.9-.08c1-.45.92-.89-.02-1.32-2.39,0-1.84-.35-1.89-.64-.38-.14-.93-.26-1.85-.18-1.08.1-.43.27-.24.39.76.48,2.19.96-.89,1.41Z"/><path d="m4.18,28.51l-.2-.32c-1.36,1.2-2.9,2.67-3.63,4.79-.36,1.05-.44,2.21-.26,3.23.19,1.03.62,1.92,1.17,2.57.02-.34.28-.38.24-.78,0-.21-.11-.49-.26-.99-.17-.49-.42-1.21-.49-2.34-.11-.99.37-2.33,1.12-3.38.74-1.08,1.65-1.97,2.3-2.79Z"/><path d="m213.26,68.25l-.22.5c3.84.21,7.28-.34,10.8-.69l-1.86-.26c-1.97-.06-2.02-.39-2.31-.69-.26,0-.53.01-.81.02.02.66-.54,1.28-5.61,1.12Z"/><path d="m256.19,63.19l3.87-.47c1.29-.18,2.57-.36,3.85-.55,1.66-.22,2.91-.42,3.03-.78-3.49.05-7.23,1.06-10.83,1.29.01.17.02.33.08.5Z"/><path d="m221.99,67.8l1.86.26c1.41.04,2.86.13,4.23.09,1.37-.06,2.67-.23,3.8-.7-1.27-.03-2.57-.03-3.91-.01-1.34,0-2.71.01-4.13.05-1.34.03-1.8.08-1.86.31Z"/><path d="m63.33,8.48c.12.04.16.1.36.11,1.44.07-3.84,1.36.22.82,2.92-.4,4.73-1.18,4.38-1.76-1.73.16-3.6.13-4.96.84Z"/><path d="m269.35,4.38c-1.05-.4-2.15-.79-4.56-.91-2-.12-3.7-.44-4.67-.84-.7-.06-1.59-.17-1.86-.09.55.19,1.11.38,1.66.57,1.52.27,3.04.48,4.56.68l2.28.3,2.27.38.33-.09Z"/><path d="m220.79,1.67c1.71-.35-.99-.42-3.42-.43-1.79-.06-2.92.02-3.68.17l.04.26c2.31-.04,4.61-.13,7.05,0Z"/><path d="m321.32,44.8c-2.89,2.3-6.6,4.05-9.28,5.84,3.42-1.27,6.44-3.41,9.44-5.59l-.16-.25Z"/><path d="m93.6,63.69c.4,1.37,4.65.67,7.05.97-.13-.27.59-.58-2.35-.66-1.47-.04-3.13-.2-4.7-.31Z"/><path d="m67.64,10.35c-.38-.22-.08-.69-2.28-.35-2.96.48-1.09.84-2.76,1.33,2.44.12,3.36-.67,5.04-.98Z"/><path d="m175.7,4.9l4.39-.44c-2.77-.04-2.94-.47-3.34-.86-.23-.23-.89-.41-2.21-.39-.49,0-1.26.1-1.42.19-.43.24.64.29,1.49.37,3.05.31-2.44.77.21,1.1.28.02.57.03.87.03Z"/><path d="m215.5.29c.98-.06,2.13.09,3.23.17,1.1.1,2.14.15,2.91-.16-.83-.37-.83-.44-6.14-.02Z"/><path d="m94.94,6.53c2.6-.04,2.46.4,3.06.72,2.02-.13,4.26.03,5.88-.52l-.08-.21c-1.46,0-4,.32-4.25-.03-.57-.76-2.62-.27-4.61.03Z"/><path d="m89.02,8.01c1.2-.68-1.78-.54-3.23-.69l-1.5.5-1.12.86c2.02-.12,3.74-.72,5.85-.68Z"/><path d="m129.97,66.68l.02-.5c-1.83-.21-3.66-.44-5.7-.37,0,.27-.72.6,2.03.69,2.08.07,3.01.26,2.92.62.91-.09.64-.28.72-.44Z"/><path d="m322.07,26.85c1.61,1.03,2.79,1.99,2.81,1.25-1.51-1.43-3.9-3.14-4.52-3.01l.16.43c.52.45,1.05.88,1.56,1.34Z"/><path d="m157.07,2.97c-1.47-.16-.69-.45-.94-.69l-2.95-.03c-.46.64-.51,1.24,3.95,1.3l-.05-.58Z"/><path d="m179.36,69.02l.18.39c1.91,0,3.55-.12,4.95-.37-1.24-1.19-3.21-.54-5.13-.02Z"/><path d="m274.65,6.91c.03-.07.23-.12.06-.23-.49-.31,2.35-.08-.63-.73-2.65-.56-.43.25-.84.35-.12.02-1.01-.11-1.54-.17.62.26,1.17.51,2.96.78Z"/><path d="m326.37,34.41c.04-.62,0-1.3-.14-1.93-.16-.62-.45-1.17-.81-1.5.12.31.26.61.37.91.08.31.21.61.24.93.2.69.18,1.31.05,1.63.03,1.15-.3,2.3-.84,3.39.16-.2.34-.4.48-.61.39-.9.6-1.85.64-2.81Z"/><path d="m153.66,2.47s-.07.05,0,.07c.35.08-1.11.36,1.3.21.82-.05,2.35-.38.77-.41l-2.07.13Z"/><path d="m251.34,64.25c.03-.33,2.49-.76,1.86-1.06l-2.99.35c.39.24-.62.68,1.13.71Z"/><path d="m254.59,9.57c-.02-.27-.92-.61-1.92-.94-4.32-.54.86.61-.34.63.18.08.42.14.74.17l1.29.2c.27.02.35.01.24-.06Z"/><path d="m104.48,4.37l1.96-.29c-.89-.37-3.28-.09-4.78-.19l-.09.36.1.36c.53-.01.94-.04,1.34-.07.14-.21.81-.2,1.47-.19Z"/><path d="m143.74,69.45c-.16-.32-2.32-.25-2.95-.49l-1.57.11,1.26.27c1.04.13,2.13.18,3.26.11Z"/><path d="m37.81,16.5c-.65-.17-1.46-.15-3.01.67.84-.05,1.28.29,3.01-.67Z"/><path d="m296.05,56.58l-2.94,1.09c-.02.45,1.61-.16,3.07-.67l-.13-.42Z"/><path d="m29.26,18.68c-1.37.51-2.97.95-3.84,1.58,2.11-.36,3.09-.93,3.84-1.58Z"/><path d="m143.25,3.16c.97,0,2.1-.08,3.36-.25-1.08.06-1.74-.12-3.36.25Z"/><path d="m325.73,37.21c-.14.21-.33.41-.48.61-.13.27-.29.52-.46.77-.17.25-.32.51-.53.74l.17.03c.33-.28.58-.62.83-.97.21-.37.38-.77.48-1.19Z"/><path d="m117.49,5.98s.02-.07.13-.1c-.14.03-.29.05-.46.06-.08.13-.17.27-.26.41l.59-.37Z"/><path d="m326.09,34.44c.13-.32.15-.94-.05-1.63-.25.05-.08.55.05,1.63Z"/><path d="m150.05,5.55c-.11-.14.07-.35-1.03-.31-.8.03-.65.18-.06.27l1.08.04Z"/><path d="m101.57,4.26l.09-.36c-1.01.12-1.71.28-2.02.48l1.94-.12Z"/><path d="m106.5,3.98l2.59-.2c-1.1-.18-1.97-.12-2.59.2Z"/><path d="m256.14,63.18l-.04-.5c-.65.04-.98.12-1,.24.11.13-.35.37,1.04.26Z"/><path d="m49.8,57.81l.24.38c1.02.15.43-.13.67-.19-.3-.1-.61-.16-.91-.19Z"/><path d="m185.54,2.27c.98.09,2.02.22,2.13-.16-.89-.05-1.79-.09-2.13.16Z"/><path d="m269.02,4.47l-2.27-.38-2.28-.3c-1.52-.2-3.04-.41-4.56-.68-1.06-.12-1.54-.1-1.64,0l-.18.33c1.68.21,2.22.39,1.6.5-.29.06-.7.11.41.28.32.05.84.11,1.27.15.43.04.79.06.78.04-.14-.5,4.32.06,6.08.12.36,0,.52-.05.78-.07Z"/><path d="m205.09.51c-2.09-.07-4.18-.16-6.21.08,3.5-.01.65.41,3.11.48l3.94.14c-.51-.23-2.6-.42-.85-.7Z"/><path d="m308.13,17.47c1.38.94,3.3,1.9,5.25,3.01.01-.16.38-.17-.05-.53-.57-.48,2.13.76-.22-.56-1.62-.92-1.42-.53-1.31-.29.04.12-.07.36-1.03-.42-1.76-1.43-1.64-.64-2.64-1.21Z"/><path d="m239.47,1.23l-2.96-.28c-.39.11-2.94.11-.7.34,2.36.26,3.17.13,3.67-.06Z"/><path d="m246.52,1.84c.87.01,1.67-.04,1.15-.16-1.57-.37-3.4-.25-5.15-.38.13.33,2.42.34,4,.54Z"/><path d="m298.65,12.33c-1.23-.45-2.45-.94-3.7-1.36.13.27,1.26.8,2.74,1.33,1.14.41.83.1.96.02Z"/><path d="m324.69,39.7c-.15.22-.32.43-.5.66l.13.26c.76-.91,1.63-2.1,1.61-2.69-.34.64-.77,1.22-1.23,1.78Z"/><path d="m235.73.92c-.4-.27-1.8-.26-3.21-.25l.09.22c1.05,0,2.09.01,3.12.02Z"/><path d="m254.57,3.51c.21.05.41.09.61.13l.57-.04c-.25-.04-.55-.1-.74-.12-.19-.02-.29.02-.43.03Z"/><path d="m305.37,16.2l2.07.95c-.23-.18-.37-.38-.72-.55-.99-.49-1.04-.35-1.36-.4Z"/><path d="m247.37,2.24l-.94-.3c-1.5.04-.34.17.94.3Z"/><path d="m232.61.9c-.53-.01-1.31-.07-1.31.03,0,.02.38.08.58.08.9.03.65-.06.73-.11Z"/><path d="m258.1,3.44l.18-.33c-1.28-.04-1.4.07-.18.33Z"/><path d="m284.48,8.62c0-.05-.16-.09-.29-.13,0,.05.16.09.29.13Z"/><path d="m322.91,42.03l.07.14c.48-.49.9-1.02,1.32-1.54-.44.47-.89.96-1.39,1.41Z"/><path d="m250.36,2.39l.22.06c-.08-.02-.16-.04-.22-.06Z"/><path d="m232.03.66l-.28-.13c-.86.03-.69.08.28.13Z"/><path d="m158.95,3.72c-1.2.32-3.06.59-1.69,1.04.59.19,1.3.36,2.53.37,1.83.02,2.03-.25,2.27-.51-.95-.29-1.43-.59-.62-.95.37-.16.28-.32-.8-.33-1.3-.01-1.5.19-1.7.37Z"/><path d="m242.94,5.6c-2.64-.29-1.82.23-2.09.49.97.16,2.35.19,2.44.59.04.2.95.54,1.83.6.89.06,1.74-.05,2.08-.18.56-.23-1.16-.34-1.68-.49-1.02-.32-1.73-.66-2.58-1Z"/><path d="m192.24,4.38c1.8.91,5.13.54,8.28.33-2.31-.49-4.92-.72-8.28-.33Z"/><path d="m189.79,4.46l1.02-.06c.17-.05.28-.13.52-.16,1.89-.25,3.15-.52,1.2-.93-.51-.11-1.92-.21-1.68-.02.57.44-5.66.67-1.06,1.17Z"/><path d="m167.98,4.94l2.85.07c.03-.26,2.4-.65-.13-.75-1.87-.08-3.17.26-2.73.69Z"/><path d="m181.44,4.47l3.17.49c-.08-.22,1.63-.47.17-.66-1.16-.15-2.4-.04-3.35.17Z"/><path d="m236.79,5.8c-.56-.14-.9-.27-1.23-.3-.36-.04-.72,0-1.08.01.3.09.56.21.9.26.35.05.76.02,1.42.03Z"/><path d="m186.75,4.96l2.74-.16c.13-.03.26-.05.4-.08l-.13-.19c-1.23.08-3.04,0-3.01.43Z"/><path d="m165.46,4.97c.81.15,1.63.32,2.45-.02l-2.45.02Z"/><path d="m230.77,6.14c-.28-.07-.42-.05-.56-.04.1.03.2.05.56.04Z"/><path d="m92.45,66.07c1.1.09,2.36.24,3.04.07.54-.5,3.83.17,5.18-.05.51-.09,2.15.61,2.92.27.47-.2-1.16-.54-2.16-.82-1.02-.28-1.83-.39-3.27-.32-1.82.09-3.93.1-5.49-.63-.93-.44-2.7-.37-3.73-.34-1.81.04-.38.33.65.59,1.62.41,3.23.83,2.87,1.24Z"/><path d="m129.97,66.68c-.08.16.19.35-.72.44-.24.2-2.66.15-1.48.5.42.12,1.37.28,2,.29,2.12.04.73-.34,1.2-.51.26-.09.46-.2.85-.27.76-.13,2.99-.14,2.16-.4-.95-.29-2.56.04-4.01-.06Z"/><path d="m122.76,67.03c-.21-.04-.41-.08-.6-.12l-.58.13c.25.03.54.08.75.08.19,0,.29-.06.43-.1Z"/><path d="m73.8,63.78l-.98-.14c.32.05.65.09.98.14Z"/><path d="m168.43,2.41c-.2-.06-.27-.15-1.59,0,.18.06.81.05,1.59,0Z"/><path d="m31.04,55.07l1.94.62c.09-.21-.27-.66.35-.56,1.09.17,2.06.36,1.78-.01-.14-.18-.72-.31-.97-.31-.9-.03-3.67-.96-3.07-.26.2.23,0,.36-.03.53Z"/><path d="m25.6,52.77c.53.36.47.67,1.83,1.09.19.06.71.08.67.01-.17-.36-1.52-.66-2.51-1.11Z"/><path d="m5.18,42.53c.22.21.45.4.67.6.09-.11.32-.09-.55-.87l-.13.28Z"/><path d="m41.75,57.1l.29-.23c-1.13-.3-1-.09-1.18-.01l.89.24Z"/><path d="m36.92,56.43l-.28-.31c-.96-.1-.02.17.28.31Z"/><path d="m202,1.07c-2.46-.06.39-.49-3.11-.48-1.27.01-2.17.12-2.84.22-1.41.23-3.13.45-.5.62,4.14.26,4.31-.24,6.45-.36Z"/><path d="m185.41,1.7c1.42-.08,3.7.08,3.57-.22-.04-.1-.62-.27-2.23-.17-1.56.1-3.85.31-3.93.42-.17.22,1.86-.06,2.59-.03Z"/><path d="m186.94.93c-1.12-.07-1.81-.18-2.62-.16-1.02.03-2.84.1-2.91.27-.04.1.63.16,1.72.12,1.17-.05,2.3-.14,3.81-.23Z"/><path d="m173.39,2.12c-.14-.06-.15-.14-1.18-.08-.32.02-.5.1-.74.15l1.91-.08Z"/><path d="m190.88,1.23c-.32.04-.12.04.08.04l-.08-.04Z"/><path d="m175.28,2.13l-.45.02-.45.02c.3.03.6.03.9-.04Z"/><path d="m121.53,5.38c-.22-.3-1.24-.37-2.68-.23-1.82.18-1.09.47-1.26.72,1.78-.01,1.83-.6,3.93-.49Z"/><path d="m144.29,3.63c.05.28-.5.64,1.92.64-.15-.23.33-.5-.83-.67l-1.09.03Z"/><path d="m121.54,5.38l.22.07c-.08-.02-.16-.04-.22-.07Z"/><path d="m177.58,68.97l1.8.05c-.32-.13.6-.38-.84-.38-.82,0-1.02.19-.96.33Z"/><path d="m201.86,68.82c1.62-.03,3.29-.05,3.26-.48-1.2.13-2.55.23-3.26.48Z"/><path d="m94.94,6.53c1.99-.3,4.03-.79,4.61-.03.26.34,2.8.02,4.25.03-.82-.37-1.48-.75-2.5-1.09-2.18-.73-6.11-.53-9.25.44-.39.12-.58.28-1.06.36-1.8.33-1.87.94-.04,1.03q.76.03,1.16-.4c.19-.2.11-.44,1.48-.57.42-.04.9.15,1.36.23Z"/><path d="m80.11,8.32l1.07-.11c1.81-.86-1.18-1.07-1.17-1.69l-2.92.71c-.21.59,3.74.39,3.02,1.09Z"/><path d="m84.86,5.82c-1.08.09-2.2.19-2.97.47.03.02.01.07.11.07,1.35.05,1.17.66,2.78.39,2.38-.39-.34-.57.08-.93Z"/><path d="m90.18,5.87c.28-.08.61-.15.58-.18-.1-.09-.32-.17-.5-.25-.13.06-.35.13-.35.18,0,.08.15.15.27.25Z"/><path d="m104.48,4.37c-.66-.01-1.33-.03-1.47.19.63,0,1.51.1,1.47-.19Z"/><path d="m101.67,4.62l-.4.12c.18-.03.35-.07.4-.12Z"/><path d="m58.3,59.92l-2.76-.47c-.96.57-5.52-.55-7.13-.32.1.26-.35.48,1.87.92-.87-.52.77-.35,1.81-.24,1.27.13,1.81.51,2.24.77l2.8.52c5.4.25,5.5.13,1.17-1.17Z"/><path d="m54.32,60.57c-.44-.25-.98-.63-2.24-.77-1.04-.11-2.68-.28-1.81.24,1.52.29,3.36.85,4.05.52Z"/><path d="m68.16,62.63c-2.54-1.25-3.54-.39-5.28-.62,2.08.68,3.71.65,5.28.62Z"/><path d="m73.81,63.78l-1.01-.15c.31.21.65.27,1.01.15Z"/><path d="m43.37,14.71c1.88-.46,1.92-.71,2.02-.99-.37-.28.65-.43,1.72-.56.52-.47,0-.84,2.73-1.51.47-.56-2.51.23-2.99.06-3.76,1.39-3.87,2.28-3.48,3.01Z"/><path d="m74.31,8.67l1.23-.22c-.71-.07-.87.11-1.23.22Z"/><path d="m281.35,59.75c-.43.24-.52.42-.62.6,1.96-.42,3.9-.84,5.82-1.38,1.74-.47,1.72-.68,1.74-.9-1.04.24-2.29.63-2.95.58-1.31.43-2.66.74-3.99,1.1Z"/><path d="m286.55,58.98c-1.92.54-3.86.96-5.81,1.37v.34s3.38-.67,3.38-.67l3.36-.8-.94-.24Z"/><path d="m281.35,59.75c1.33-.36,2.68-.67,3.99-1.09l-.08-.36c-1.3.37-2.63.63-3.95.93l.04.52Z"/><path d="m307.66,50.8c-.1-.12-.26-.23-1.27.16-.46.18-1,.56-1.51.85.72-.11,1.78-.57,2.78-1.01Z"/><path d="m285.34,58.66c.66.05,1.91-.34,2.95-.58-.65-.06-1.82.27-2.95.58Z"/><path d="m296.98,56.14c-.02-.08.83-.48-.03-.27-.09.02-.36.11-.43.15-.51.28-.17.25.46.12Z"/><path d="m6.82,28.44c1.28-1.09,3.15-.79,4.18-2.56-.13-.82-3.1,1.28-4.52,2.17.12.12.23.26.35.39Z"/><path d="m25.15,18.98l-.37.18c.11-.06.23-.11.37-.18Z"/><path d="m6.48,28.05l-.22.07c.08-.03.15-.05.22-.07Z"/><path d="m322.91,42.03c.5-.44.95-.93,1.41-1.42l-.13-.26c-.94,1-1.39,1.5-1.28,1.68Z"/><path d="m213.26,68.25c5.07.16,5.63-.46,5.61-1.12l-1.12-.68c-3.77-.28-5.87.46-8.79.71-.34.61-.07,1.14,4.3,1.09Z"/><path d="m260.87,63.23l.43-.04c-.02-.07-.19-.05-.43.04Z"/><path d="m189.5,4.8l.7.06c-.1-.05-.21-.09-.31-.14-.13.03-.27.05-.39.08Z"/><path d="m251.3,64.26c.35,0,.69,0,1.05.01,0,0,.18-.06.27-.09-.43.03-.86.05-1.32.08Z"/><path d="m195.16,67.19l-1.89-.14c.14.22.23.46,1.89.14Z"/><path d="m280.73,60.35c.09-.18.19-.36.28-.54-.95.21-2.02.44-2.14.67-.12.24.82.09,1.85-.13Z"/><path d="m37.45,15.81c.06-.21.04-.4-.92-.27.15.15-.22.45.92.27Z"/><path d="m32.54,16.14h.22c-.08,0-.15,0-.22,0Z"/><path d="m40.17,14.36c-.23-.08-.26-.26-.75-.2-.64.08-1.18.38-.96.43.44.09-1.41.99,1.52.21.06-.15.12-.29.19-.44Z"/><path d="m40.17,14.36c-.06.15-.12.29-.19.44,1.44-.47,1.29-.56.19-.44Z"/><path d="m12.16,47.13c.1.1.2.19.33.3.02.01.33.14.35.14.06-.02.03-.09.04-.14l-.72-.3Z"/><path d="m139.89,68.05l.4-.03c-.15,0-.3.02-.4.03Z"/><path d="m238.07,4.97l1.55.04-.37-.16c-.42.03-.83.07-1.18.12Z"/><path d="m3.77,42.01c.22.26.45.5.68.75l-.08-.35c-.2-.13-.4-.26-.59-.4Z"/><path d="m4.36,42.41c-.3-.33-.58-.69-.86-1.05-.01.14.13.39.27.64.19.14.4.27.59.4Z"/><path d="m47.11,13.15c-1.08.14-2.09.28-1.72.56l1.72-.56Z"/>
                  </g>
                </mask>
              </defs>
              <path class="mask" d="m271.95,11.92c-5.75-1.42-14.41-3.35-25.09-4.97-21.71-3.28-38.6-3.24-48.36-3.18-62.86.41-94.9.91-119.37,3.95-24.22,3-46.44,7.2-64.14,15.75-6.44,3.11-13.08,6.74-13.16,11.69-.11,6.91,12.38,12.36,17.34,14.52,38.15,16.64,119.17,17.98,124.66,18.05,1.83.02,4.29.05,7.29.07,99.7.63,136.39-6.08,161.38-18.88,7.37-3.77,14.62-8.53,14.66-14.58.02-2.89-1.58-9.62-22.14-18.73C280.17,4.63,248.68-.51,187.08,1.36c-17.56.53-41.28,1.75-69.33,4.69"
                    mask="url(#path-mask)" stroke="black" stroke-width="2" fill="none"
                    stroke-dasharray="840.7637939453125" stroke-dashoffset="840.7637939453125">
              </path>
            </svg>
        