
            <svg xmlns="http://www.w3.org/2000/svg">
              <defs>
                <mask id="path-mask">
                  <g fill="white">
                    <path d="m239.27,59.33c2.06-.71.64-.66,1-1,.51-.09,1.03-.2,1.53-.31,1.29-.15,2.77-.4,4.01-.52,2.57-.17,6.94-2.03,8.55-3.35,1.29-.48,2.05-.89,2.51-1.29.86-.3,1.88-.8,2.84-1.29.95-.51,1.88-.94,2.6-1.09.46.06,2-.52.97.42-.75.68-1.67,1.23-3.16,1.78-1.24.42-2.3.92-2.87,1.46l-1.13.47c-1.34.75-3.55.69-4.39,1.82-.22.08-.54.19-.81.27-.27.08-.48.16-.48.16-.91,1.03-3.67,1.65-6,2.28l-.09-.16c.61-.26.47-.27-.25-.07-.11.04-.23.08-.36.12l-.15-.23c.39-.13.98-.27.94-.38,0-.02-.3.01-.45.06-.67.2-.45.24-.5.32l-2.26.79c-.18.06-.37.11-.57.16.25-.21,2.09-.87.39-.56-1.81.31-2.34.7-2.63,1.04-.27.34-1.01.58-2.24.71-.2-.34-1.88.23-3.08.45l.03-.12c1.07-.45.19-.28-.78-.08-1.36.05-1.4.44-2.22.64l-.18-.02h.2c-.03.24.52.4-1.88.81-1.49.26-2.75.59-2.43.88l-1.47.32-1.38-.18c.8-.16,1.14-.31,1.18-.46.94-.31.99-.46.03-.41-1.28.22-1.73.18-1.31-.11.2-.14.47-.32-.38-.19-.49.09-1.56.36-1.54.4.26.54-3.13,1.16-4.41,1.69-.26.11-.36.22-.53.33l-.21.2c-3.04.52-6.27.79-8.95,1.6-.68.21-1.67.2-2.37.2-1.27,0-2.1.17-2.75.48l-5.93.42-.13-.17c-.19-.24-1.15-.26-2.35-.11-.92.12-.6.29-.65.42-3.27.42-6.55.81-9.99,1.14l.14.04c-.04.08.23.15-.42.22-.18.12-.24.25-1.08.3.27-.42-1.39-.4-2.73-.38-2.89.04-6.25,0-8.77.38-1.74.27-2.92.33-4.62.4-1.03.04-.45.3-.53.47-3.31.16-6.62.29-9.93.38v-.32c.66-.2.49-.37.17-.57-.56-.34.27-.53,2.04-.55l1.56-.2c.93-.05,2.06-.02,2.46-.3l-1.72-.03c-.22-.14-1.23-.27.07-.45.69.15,1.38.15,2.09-.06l2.46-.09c1.03.48,3.04.76,5.25.96,1.53-.42,3.78-.76,4.07-1.3,2.16-.06,4.32-.07,6.49-.39.06.17-.16.39.27.48.57.12-1.68.53.38.41,1.43-.09,1.13-.32.96-.5-.08-.09-.11-.4.84-.16,1.74.42,1.32-.31,2.8-.33.23.06.4.18.7.17.85-.03.83-.2,1.05-.32,2.76-.19,5.42-.68,8.37-.73,1.54-.01,2.3-.55,2.72-.88,4.5-.46,8.98-1.02,13.45-1.65,0,.09-.12.21.03.27.45.17-1.64.9.68.57,2.06-.29.22-.42.49-.67.08-.07.75-.2,1.15-.3,3.73-.9,7.8-1.5,11.69-2.25,1.14-.2,2.9-.94,3.88-.71.56.1,2.53-.13,4.63-.44,2.1-.35,4.32-.81,5.36-1.18Zm-12.92,2.41l-.4.2c.2-.02.43-.04.57-.08.14-.04.2-.1.3-.16-.16,0-.32.02-.48.03Zm-22.19,3.96c-.09,0-.2.01-.31.02.02.06.14.04.31-.02Z"/><path d="m242.01,4.67c5.09.22,10.03,1.18,15.05,1.74.56,1.12,3.85.85,5.96,1.28.38.37.27.71,2.56.79,1.39.06,3.33.54,5.05.98,1.32.51-3.14.45,1.94,1.34.71.25,1.76.48,1.73.86,0,.19.59.64,1.23.82.65.18,1.31.24,1.61.16.5-.12-.78-.51-1.13-.75-.69-.45-1.16-.89-1.74-1.31.48-.11,2.2.69,2.25.3.43.48,1.66.95,2.72,1.46,1.06.51,1.95,1.06,1.74,1.38-.1.16-.56.13-1.09.08-.54-.04-1.15-.1-1.55-.05-.84.11-3.57-1.02-5.84-1.78-1.01-.37-1.95-.8-2.99-1.09-1-.28-2.18-.86-2.99-.72-.86.15,1.97.6,1.37.86-1.66-.09-3.35-.29-5.19-.79-.06-.62-.48-1.15-3.44-.94-2.19.15-4.81-.99-6.95-.6l-.8-.07-1.49-.36c-1.24-.47-2.54-.8-3.91-.99-1.37-.17-2.81-.19-4.33-.05-1.71-.65-3.69-1.08-6.29-.97l-1.09-.09c.13-.04.22-.1.41-.11,1.47-.09,2.46-.25,1-.8-.38-.14-1.45-.36-1.28-.16.39.47-4.39.19-.95,1.11-.95-.02-2.32-.24-2.34.17l-1.63-.15c-.04-.22,1.29-.35.19-.63-.87-.22-1.84-.2-2.57-.06l-1.03-.1c-2.12-.23-2.21-.65-2.49-1.07-.16-.24-.64-.46-1.66-.54-.38-.03-.98.01-1.1.09-.35.2.47.32,1.11.47,2.31.52-1.93.58.07,1.09-.53.34-1.84.2-3.06.12v-.26c.04-.25,1.89-.46-.04-.74-1.42-.21-2.45.03-2.19.48l-1.88-.12-2.57-.53c-.71-.34-1.05-.67-.41-.97.3-.14.24-.29-.59-.37-.99-.09-1.16.09-1.33.26l-1.39-.27v-.58c2.37.2,5.06.12,6.59.96.58.32,1.47.22,1.63-.06.12-.2-.05-.45.96-.49,4.14-.19,8.38.09,12.68.8,2.58.96,8.06,1.45,11.44.96Zm26.6,5.09c-.27-.07-.55-.05-.83-.06.22.1.4.24.65.31.26.07.58.07,1.08.13-.41-.18-.65-.32-.9-.38Z"/><path d="m2.45,34.48c-.07,1.86-.1,2.73-.13,3.7.02.52-.55.4.3,1.78.75,1.07.88.61.99.28.11-.32.28-.56.44-.82.7,1.21,1.66,2.32,2.7,3.34-.17.2-.86.12.68,1.49,1.18,1.01,1.67,1.56,1.39,1.83-.28.08-1.75-1.08-1.24-.25.18.3.69.86,1.09,1.15,1.35.95.67.02,1.08.08.22.03.41.02.71.12.57.21,2.04,1.04,1.63.51-.46-.62-1.69-.95-2.54-1.66l.32-.42c3.5,2.47,7.14,4.62,10.78,6.75-.86.2-1.59.63-4.57-1.52-.49-.36-1.35-.81-1.67-.74-.35.07.27.51.98.95.09.39.18.78.18,1.15l-1.15-.46.75.7c-2.75-1.1-5.1-2.67-6.92-4.63-.34-.71-1.11-1.82-2.35-2.49-1.2-.64-2.46-2.09-3.44-3.62-.99-1.55-1.61-3.16-2.33-4.05-.18-1.48-.17-3.05.21-4.53.37-1.48,1.04-2.85,1.88-3.99.45.43,1.75-1.17,2.9-2.44,1.01-1.15,1.78-1.65,2.77-2.16.01.35-.57.81-1.22,1.35-.64.53-1.34,1.15-1.59,1.64-.18.35-1.53.97-1.57,1.72-.03.43.94-.46,1.64-.87.7-.43,1.16-.82,1.88-1.68.45-.54.99-1.08,1.58-1.51.6-.42,1.27-.72,1.94-.81.78-.13,1.83-.96,2.45-1.47,1.09-.87.06-.47-.73-.21-.62.2-1.25.39-1.71.49-.46.11-.78.1-.8-.16l.62-.6c.83-.04,1.81-.47,2.87-1,1.08-.47,2.2-1.12,3.31-1.53.85-.33,2.71-1.4,2.39-.51-.08.2,2.48-1.05,2.5-1.25.03-.42.75-.67,1.74-.99l.72-.25c1.3-.61,2.84-1.34,2.5-.47-.56.6-.53.58.65.35.52-.1,1.22-.21,1.36-.13.5.26-1.57.78-1.81,1.13-2.02.72-4.01,1.83-5.94,1.84-.5,0-1.68.72-1.57.76.44.1-2.22,1.34-.2.81-.01.2-.21.32-.99.62-1.3.47-2.55,1.03-3.83,1.57-1.22.64-2.46,1.28-3.5,2.2-.53-.46-1.34-.06-2.14.66-.8.71-1.58,1.69-2.24,2.27-.74.72-1.22,1.48-1.64,2.25-.41.78-.76,1.56-1.14,2.46-.09-.27-.12-.81-.25-.87-.09-.06-.51.38-.7,2.13Zm2.32,8.01c-.14-.07-.27-.16-.41-.23.11.17.22.37.34.48.1.1.2.11.31.17-.08-.14-.16-.28-.24-.41Z"/><path d="m270.93,12.97c-2.29-1.53-5.04-3.45-7.41-4.39-1.8-1.36-5.03-2.55-7.43-3.63-.69-.31-.96-.39-1.48-.55-1.59-.47-2.19.01-.54.73,1.73.78,2.22,1.14,2.59,1.5.38.37,1.15.93,2.91,1.39.19.05.88.34,1.16.49,2.71,1.48,5.37,2.81,7.87,4.53,2.86,1.99,5.56,4.25,7.67,6.98,2.13,2.69,3.46,6.02,3.37,9.42h.22c-.01-.59,0-1.06.08-1.2-.1-1.03-.37-2.23-.66-3.03-.22-1.01-.83-1.99-1.29-2.97-.28-.46-.56-.92-.82-1.34-.25-.43-.46-.85-.67-1.2-.12-.22-.48-.74-.96-1.42-.52-.65-1.22-1.43-1.95-2.19-1.5-1.49-3.23-2.82-3.85-3.21-.21-.12-.45-.22-.44-.18.13.42-.91-.45-1.39-.84-.57-.48-.93-.78-1.43-1.19-.29-.24-1.31-.76-1.17-.78.09-.02.7.25,1.47.71,1.64.9,3.76,2.49,4.17,2.37Z"/><path d="m72.25,6c-1.82.37-4,.61-5.14,1.27.54-.02,1.23.02,1.59-.07,1.39-.36,2.7-.74,3.8-.42.9.27-.26.64-1.09,1.02-1.46.66-2.66.64-3.94.5-.8-.09-2.1.03-2.71.29-2.07.87-3.1.51-4.43.46-.82.11-1.85.36-2.11.1-.05-.05.3-.25.45-.27,1.08-.16,1.15.1,1.65.18l2.15-1.32c-1.64-.52-3.54.3-5.37.76.09.25.01.5-1.32.78.05.17-.03.38.19.51.68.4-1.55.72-2.16,1.08-.17.1-.61.23-.77.12-.33-.23.39-.47,1.19-.78.45-.18.04-.45.02-.68-.69.38-2.85.37-2.96.92.28.02,1.03-.09.33.18l-.31-.19c-1.08.09-.53-.51-1.84-.24-.46.1-.77.53-1.15.82.05.15-.09.32-.7.52.04.05.09.1.15.15l.7-.13c1.21.06,4.9-.32.02.88-.32.08-.42.33-.63.51,2.11-.44,4.28-1.13,6.3-.93.25.03,3.01-.94,4.92-1.28.49-.31,1.13-.45,2.27-.67,3.35-.62,6.94-.67,10.09-1.67,1.37.39,3.61-.58,5.02-.44,1.38.13,2.47.08,4.1-.4,2.22-.66,3.24-.5,3.36.08l3.72-.49c-.21-.34.79-.69,1.51-1.03-1.76-.28-3.6-.55-.02-1.41.46-.11.14-.23-.34-.26-1.42.53-3.63.25-4.83.72-2.76,1.06-2.28.28-2.7-.01l-.79.11c-.05.22-.46.39-1.37.51-.07.29-.67.45-1.54.58l.1.29c-.87.09-.75-.08-.77-.22-1.74-.08-4.31.2-4.67-.42Z"/><path d="m267.37,48.35c.81-.58,1.33-1.04,1.68-1.44.71-.88,1.59-1.87-.14-.82-2.77,1.54-2.55,2.07-3.89,3.05-.89.49-1.82.88-2.72,1.33-.72.15-1.65.59-2.6,1.09-.96.48-1.98.99-2.84,1.29l-.16-.27c.8-.34,1.62-.8,2.4-1.21.77-.43,1.49-.82,2.13-.99,1.6-.47,3.06-1.38,4.62-2.47.79-.51,1.51-1.12,2.27-1.66.73-.58,1.44-1.19,2.15-1.8,1.42-1.26,2.77-2.55,4.01-3.95,2.46-2.78,4.52-6,5.19-9.63.12-.11.3-.08.15.84-.11.47-.2.94-.37,1.39l-.34.67c-.11.2-.22.39-.25.62-.92,2.18-1.7,3.31-1.92,3.81-.24.49.07.37.78-.28.04-.04.07-.04.1-.06,1.03-1.9,1.73-3.08,2.3-4.35.58-1.25,1.07-2.64.94-4.84-.02-.46-.05-.95-.15-1.43-.1-.48-.11-.98-.24-1.4-.22-.86-.36-1.58-.26-1.88.18.58.44,1.18.65,1.69.24.51.27.97.25,1.17-.14.8.09,2.06,0,3.31-.15,2.23-.81,4.36-1.8,6.3-1,1.94-2.28,3.7-3.71,5.37-2.07,2.38-4.42,4.44-7.02,6.33-2.6,1.85-5.38,3.42-8.2,4.84-1.12.56-2.91,1.48-3.14,1.17.57-.54,1.63-1.05,2.87-1.46,1.48-.56,2.41-1.11,3.16-1.78,1.47-.67,2.93-1.43,4.1-2.53Zm5.41-5.46c.1.06.59-.07,1.39-1.02.4-.45.83-1.06,1.18-1.54.32-.51.55-.9.52-.97-.12-.26-.88,1.11-1.32,1.47-.68.85-2.1,1.87-1.78,2.07Zm3.19-1.93c.53-.61,1.39-1.77,1.24-1.94-.09-.1-.45.29-.98.94-.56.72-1.08,1.44-1.85,2.32.7-.53,1.16-.85,1.59-1.33Zm-3.82,2.81l-.35.3h.08c.25-.23.25-.26.27-.3Z"/><path d="m201.11,1.47c-1.9.07-3.37-.05-5.49-.34-3.08-.44-6.95-.38-10.47-.43-1.76-.03-3.64-.34-5.29-.07l-.03.54c.38.26,1.37.69.18.74-3.52.18-3.07,1.18-5.51,1.55,1.29.01,2.44-.07,3.46-.24.13,0,.24-.01.33-.04.14-.24-.4-.58,1-.66,1.11-.05,1.89.08,2.04.39l.18.08-.17-.08c-1.62-.23-1.69.34-3.04.28-.08.03-.12.06-.1.09,1.53.6,3.43.12,5.11.26,2.17-.49,4.44-.39,6.73.17.68.16,1.12.38,1.9.09,1.2-.45,2.91-.19,4.55.06,2.38-.28,1.32-.84.77-1.35-.14-.14-.63-.33.21-.38.71-.04,1.12.12,1.41.28l.84.03c-.42-.43,1.84-.52,1.39-.95Z"/><path d="m47.51,63.16c1.42.59,2.91,1.13,5,1.26,2.64-.02,5.34.36,8.17,1.22.58-.13,1.62-.03,2.55.01l1.51.37c-.16-.19-.4-.53-.47-.54-2.82-.3-4.59-1.23-7.29-1.63-1.96-.29-3.74-.64-4.16-1.3-.01-.02-.21-.06-.31-.09-.38,0-.76-.02-1.14-.03.21.69-1.75.24-3.23-.12-4.87-1.18-9.87-2-14.65-3.8-2.88-1.08-3.07-1.02-1.47-1.21.48-.07.83-.2,1.24-.3-2.8-.72-5.82-2.15-8.21-2.42.48.26.94.54,1.45.77.86.36,2.24.45,2.49.97.1.21-1.37-.02-2.31-.18-.5-.08-1.35-.48-2.04-.75-.58-.21-1.19-.51-1.53-.49-.45.04.1.4.65.76.88.52.98.99,2.47,1.56,1.73,1.06,3.76,2,6.33,2.57,3.02.35,6.37,1.27,9.78,2.09-.01-.15.18-.3.8-.15,1.08.26.34.34.54.53,1.56-.19,3.17-.47,3.85.89Z"/><path d="m279.26,33.11l-.34.67c-.04.11-.07.21-.12.31l-.14.31c-.92,2.18-1.7,3.31-1.92,3.81-.24.49.07.37.78-.28.04-.04.07-.04.1-.06,1.03-1.9,1.73-3.08,2.3-4.35.58-1.25,1.07-2.64.94-4.84-.02-.46-.05-.95-.15-1.43-.1-.48-.11-.98-.24-1.4-.22-.86-.36-1.58-.26-1.88-.29-.61-.75-1.41-1.14-2.2-.45-.75-.97-1.41-1.31-1.76.51,1.15-.37.27-.73-.24-1.17-1.46-.27-.72-.33-1.01-.01-.06.05-.04.07-.05-.18-.32-.43-.68-.72-1.04-.31-.35-.67-.69-1.03-1.04-.7-.73-1.5-1.36-2.07-1.95-.8-.61-1.52-1.11-2.05-1.67-.41.12-2.53-1.47-4.17-2.37-.77-.45-1.38-.73-1.47-.71-.14.02.89.54,1.17.78.5.42.86.72,1.43,1.19.48.4,1.53,1.27,1.39.84-.01-.05.23.06.44.18.62.39,2.35,1.72,3.85,3.21.73.76,1.42,1.54,1.95,2.19.49.68.84,1.2.96,1.42.22.35.43.77.67,1.2.26.42.54.88.82,1.34.46.98,1.07,1.97,1.29,2.97.1.41.33.89.41,1.43.08.53.23,1.08.26,1.6.11,1,0,1.05-.08,1.19h-.22c-.04.49-.11.96-.16,1.43.12-.11.3-.08.15.84,0,.19.06.34.02.58-.16.77-.3.73-.39.81Z"/><path d="m167.73,3.2l-.05-.22c-.61-.43-1.09-.87-1.85-1.28-1.63-.88-4.65-.99-7.11-.29-.31.09-.46.23-.84.28-1.4.19-1.49.82-.1,1.06.58.1.58.1.91-.31.16-.19.11-.44,1.17-.44.32,0,.68.23,1.02.35,1.99.16,1.86.61,2.3.98-2.27.22-4.59.16-6.93.04.97-.6-1.33-.73-2.42-1.03l-1.18.37-2.39.19s-.05-.1-.03-.15c1.45-.67-.82-1.25-.75-1.88l1.45-.03s0,.07.08.09c1.03.2.84.83,2.09.71,1.85-.17-.22-.62.13-.95l.86-.42c3.51.03,7.09-.11,10.52.24h1.49s.06.38.06.38l-.32.1.41-.07h.93c.48.04,1.15.21,1.13-.09l1.52-.16-.21.06-.23-.06c1.03.44,3.61.43,4.33,1.13.34.33,3.6-.21,5.38-.45.29-.04.48-.12.72-.18.38.26,1.37.69.18.74-3.52.18-3.07,1.18-5.51,1.55-2.34.19-4.6.11-6.76-.26Zm-9.98-2.08c-.07-.1-.23-.2-.36-.3-.1.05-.28.11-.28.16,0,.08.11.17.19.28.22-.06.48-.1.46-.14Z"/><path d="m55.8,9.28c1.33-.28,1.41-.53,1.32-.78l-1.26.17-.96.2c-2.44.3-4.8.57-7.3,1.32-1.02.32-2.52.62-3.8.71-1.4.1-3.98.63-4.4.81-4.46,1.67-8.95,2.52-13.41,3.6-1.64.38-2.55,1.03-3.85,1.46-3.31,1.2-6.6,2.52-9.79,4.17-.79.44-1.58.86-2.36,1.32l-2.29,1.5c-1.46,1.03-2.93,2.22-4.23,3.61-.55.61-1.16,1.23-1.25,1.77.45.43,1.75-1.17,2.9-2.44,1.01-1.15,1.78-1.65,2.77-2.17.26-.5,1.16-1,1.87-1.51l.62-.6c.83-.04,1.81-.47,2.87-1,1.08-.47,2.2-1.12,3.31-1.53.85-.33,2.71-1.4,2.39-.51-.08.2,2.48-1.05,2.5-1.25.03-.42.75-.67,1.74-.99.18-.24.44-.32.74-.25,1.28-.61,2.82-1.34,2.48-.47.37-.11.73-.22,1.1-.33,1.06-.63,2.19-1.2,3.89-1.32,1.21-.8,2.38-1.67,4.32-1.22.71-.18,1.43-.33,2.14-.49.36-.54,1.83-.74,2.98-1.01,1.69-.4,1.46-.02,1.63.19,1.82-1.07,3.83-1.27,5.88-1.23.38-.29.68-.72,1.15-.82,1.32-.27.76.32,1.84.24.09-.55,2.25-.53,2.94-.91l1.54-.25Z"/><path d="m136.58.76c-1.08-.3-2.27-.47-3.85-.05.92.27,1.82.56.76.96-.84.32-1.5-.15-2.4,0-1.22-.55-1.89-.17-2.67.18-.89.4-1.77.53-2.4.06-2.15.22-1.79.66-2.16,1.04.34.4,2.08.47,2.94.74,1.45.31,3.34.33,5.14.09,1.35-.18,2.52-.24,3.83-.18,1.32-.26-.08-.9,2.23-.97,1.71-.06,1.43.38,1.71.66l1.52-.09c-.11-.27-.32-.53-.31-.8,0-.18.71-.26,1.36-.27.57,0,1,.09.68.22-.48.2-1.81.39-.4.56.35.04,1.58-.32,2.41-.49.26-.07.4-.24.94-.08l-.95.08c.59.74,2.48.56,4.47.32.6-.63-2.42-.88-2.22-1.47-3.27.4-3.24-.1-3-.65-1.31.12-2.4-.26-3.76-.04.21.63-1.23,1.23-3.5,1.22-3.14-.02,1-.59-.09-.87-.15-.04-.18-.11-.26-.16Z"/><path d="m129.95,70.58l1.24.02,2.39-.14.88-.02s-.04-.09-.07-.14c-.52-.06-.77-.15-.33-.25.06-.02.28-.03.35-.02.68.1-.04.18-.04.27,1.25.03,2.17-.06,2.75-.3,1.85-.77,4.77-.14,4.71.05-.18.58,1.79.56,3.23.69,1.8-.22,3.59-.44,5.42-.67.8-.1,2.34-.06,1.9-.37-.37-.25-2.04-.03-2.46-.1-1.31-.22-3.33.54-4.07-.1-1-.04-2.18-.02-2.33-.32-.84,0-1.74.03-2.28-.15-1.84-.04-3.7-.09-5.53-.17-3.62-.16-6.76.43-10.41.12v.37c.89,0,1.83,0,2.29.23-.06.21-.1.42-1.47.41l.64.49,3.22.08Z"/><path d="m88.81,4.45c.47.03.79.15.34.26-3.58.86-1.74,1.13.02,1.41l1.39-.2-.09-.54-.18-.06.17.06c1.29.05,4-.65,3.87.16,2.1-.28,4.08.21,6.37-.55.33-.11,1.82-.03,1.92.27l2.23-.13c.93-.53,3.72-.95,3.12-1.58-.03-.03.48-.13.73-.2,1.74.94,2.33-.46,3.64-.38-.01-.06-.02-.12-.02-.18-3.89-.68-4.73.31-6.01,1.05l-.29.07.31-.07c-.77-.02-2.18.03-2.22-.07-.5-1.31-3.21-.21-5.45.09-2.34.31-5.02.85-7.15.49-1.04-.05-.93-.54-2.7-.29v.38Z"/><path d="m210.1,3.36l-1.39-.27c-3.41-.34-3.33-.92-2.94-1.53-1.11-.29-1.08.07-1.63.1.96.9-.76,1.54-3.86,1.49.69.47.72.91-.07,1.31.76.49,1.43.21,2.12.08-.45-.12-.55-.27.06-.26.84.01.69.22.77.36,1.77.72,4.45.48,6.37.58,3.15.17,6.55.65,9.57.42v-.26s-2.17-.26-2.17-.26c-.71.29-1.32.08-1.93-.12l-2.57-.53c-.2.23-.38.49-1.78.36-.94-.09-1.47-.3-1.91-.52-1.02-.52.43-.68,1.37-.92Z"/><path d="m145.83,69.51c.74.64,2.76-.12,4.07.1.42.07,2.09-.15,2.46.1.44.31-1.1.27-1.9.37-1.83.23-3.61.44-5.42.67l.66.28h.88c2.44-.49,5.54-.28,8.29-.48.65-.2.49-.37.16-.57-.56-.34.27-.53,2.04-.55l.03-.16c.02-.22.54-.33,1.62-.33.22,0,.44-.02.65-.05-.22-.14-1.23-.27.07-.45l-.07-.16c-4.32.04-8.64-.05-12.98.23.7.35,1.99.71-.57,1.01Z"/><path d="m83.62,68.46c.9.07.75.75,2.39.39,1.23-.27,2.31.36,3.51.32.39-.62,1.99-.35,3.67.01,1.42.31,2.62.31,3.72.16,1.14-.15,1.65-.38.49-.76-1.59-.13-3.04-.49-4.76-.48-5.36,0-5.95-.07-10.16-1.01-.1-.02-.3-.06-.33-.06-2.24.41-5.44-.85-7.71-.55.18.32.16.65,1.64.97.08-.21.43-.2,1.45-.05,2.16.3,4.17.65,6.09,1.05Z"/><path d="m145.83,69.51c2.56-.31,1.27-.66.57-1.01-1.69-.15-2.81-.47-5.22,0-1.74.35-5.21-.03-7.99-.03-3.74,0-7.67.07-11.45-.28-1.65-.14-2.75-.15-2.58.3.16.46,1.5.48,3.01.44l3.12.06c3.66.31,6.8-.28,10.41-.12,1.83.08,3.69.13,5.53.17.45-.08.95-.22,1.33-.21.84.03.92.21.95.37.15.3,1.33.28,2.33.32Z"/><path d="m106.31,3.85c1.29-.74,2.12-1.73,6.01-1.05l3.04-.48c.8-.2,1.63-.39,1.4-.67-1.46-.37-3.31.13-4.88.26-5.98.51-11.99.81-17.97,1.72-1.6.25-1.81.44-2.4.72,2.13.36,4.81-.18,7.15-.49,2.24-.3,4.95-1.4,5.45-.09.04.1,1.45.05,2.2.06Z"/><path d="m33.25,57c-.41.1-.75.23-1.24.3-1.59.19-1.4.13,1.47,1.21,4.78,1.8,9.79,2.62,14.65,3.8,1.48.36,3.43.81,3.23.12-2.66-1.19-5.7-1.72-9.09-2.19-2.19-.28-3.78-.87-3.2-1.43-1.1-.13-2.06-.45-2.99-.8-.94-.34-1.84-.73-2.84-1.01Z"/><path d="m74.43,66.48c2.27-.3,5.47.97,7.71.55.03,0,.23.03.33.06,4.21.93,4.8,1,10.16,1.01,1.72,0,3.17.35,4.76.48-.64-.59-1.34-1.17-3.94-1.64l-1.95.19c-.74.29-1.82.17-3.36-.03-1.87-.2-4.14-.44-5.76-.61-3.26-.42-6.24-.17-9.31-.91l.74.81c.21.03.41.06.61.09Z"/><path d="m112.92,68.55c-1.01.48-1.83.92,2.12,1.15,1.27.06.46.25.36.38-1.96.24-4.1-.05-5.48-.32-3.5-.73-4.32-.3-5.12.25h-.73c-2.31-.44-6.1-.83-2.43-1.47.66-.12.66-.41.97-.62,1.99.11,3.99.22,5.98.32,1.29.08,2.26.11,2.41-.22l2.22.14c-.09.13-.06.27-.29.38Zm-6.38.16c-.08-.02-.21-.03-.4.02.11.01.22.03.4-.02Z"/><path d="m276.53,10.89c.43.48,1.66.95,2.72,1.46,1.06.51,1.95,1.06,1.74,1.38-.1.16-.56.13-1.09.08-.54-.04-1.15-.1-1.55-.05-.84.11-3.57-1.02-5.84-1.78-1.01-.37-1.95-.8-2.99-1.09-1-.28-2.18-.86-2.99-.72-.86.15,1.97.6,1.37.86,1.63.7,3.51,1.18,5.37,1.79,1.85.6,3.69,1.34,5.09,2.42.88.68.92.1,1.74.48.88.27-2.37-2,.51-.5.61.04,1.56.42,2.34.79.79.35,1.42.67,1.54.23-.46-.6-1.19-1.24-1.51-1.61-.38-.49-.46-.9-.82-1.34-.18-.23-.44-.43-.83-.63-.4-.21-.94-.4-1.71-.54-.02,0-.23-.18-.51-.39-.29-.21-.65-.46-.94-.62-1.72-.96-3.5-1.52-5.13-1.71.3.85,2.55.85,3.48,1.49Z"/><path d="m283.39,18.25c.52.65.76,1.2.77,1.64.01.28.06.58.08.91.06.32.06.65.09.98.05.66,0,1.26-.05,1.88-.03,1.12-.72,2.32-.51,2.82.18.45.7.45,1.55-.25.4-.36.89-.92,1.21-1.76.34-.82.52-1.94.27-3.14-.23-1.16-.58-2.62-1.28-3.8-1.26-.89-1.17-.12-.62,1.21.53,1.36,1.1,2.46,1.46,3.53.04.19.16.76.04,1.24-.05.5-.29.87-.42.73-.28-.21-.84.54-.94-.13-.07-.39-.19-.59-.17-1.48-.02-.92,0-1.38.2-1.57.09-.09.22-.2.19-.42-.01-.22-.07-.59-.4-1.15-.64-1.09-1.26-1.44-1.48-1.23Z"/><path d="m73.08,65.58c3.07.75,6.05.49,9.31.91,1.62.17,3.89.41,5.76.61,1.54.19,2.62.32,3.36.03-2.56-1.06-6.54-.95-9.78-1.32-4.83-.55-9.83-.77-14.44-1.97l-.42.17c.66.36,3.07,1-.68.6-1.23-.14-1.96.05.13.45,2.24.17,3.96-.31,6.75.52Z"/><path d="m83.94,7.64c-.12-.58-1.14-.75-3.36-.08-1.63.48-2.72.53-4.1.4-1.41-.14-3.65.82-5.02.44-3.15,1-6.74,1.05-10.09,1.67-1.14.22-1.79.37-2.27.67,3.17-.02,6.51-.52,10.11-1.13,2.29-.39,4.63-.76,7.17-.87,2.21-.11,5.01-.73,7.56-1.1Z"/><path d="m231.27,6.4l-1.63-.15-2.38-.69c-.34-.03-.69-.07-1.03-.1l-3.39.12c1.91,1.09,5.87,1.09,8.7,1.36,5.61.62,11.32.85,16.98,1.36l1.53-.02c-1.24-.47-2.54-.8-3.91-.99-1.37-.17-2.81-.19-4.33-.05-2.43-.04-5,.05-6.29-.97l-1.09-.09-.78-.03c0,.14.03.2.05.26l.22.16-.53-.11-2.11-.07Z"/><path d="m173.32,67.94c2.16-.06,4.32-.07,6.49-.39,1.72-.13,3.38-.22,4.67-.06,1.16-.1,1.74-.15,2.32-.2,2.76-.19,5.42-.68,8.37-.73,1.54-.01,2.3-.55,2.72-.88-8.29.77-16.59,1.33-24.89,2l.32.25Z"/><path d="m115.4,70.08c-1.96.24-4.1-.05-5.48-.32-3.5-.73-4.32-.3-5.12.25,5.8.49,11.61,1.03,17.43.7,1.41-.08,2.28.3,3.42.27,1.58-.04,3.99.21,4.3-.4l-3.22-.08-5.29-.26-6.04-.16Z"/><path d="m230.24,61.8c-.03.23.52.39-1.88.81-1.49.26-2.75.59-2.43.88,6.17-.95,12.35-2.19,18.5-4.36l-.09-.16-.25-.07c-.11.04-.23.08-.36.12-1.02.38-2.03.77-2.42.57-.18.06-.37.11-.57.16l-2.24.48c-.27.34-1.01.58-2.24.71-1.32.3-2.61.92-3.86.94-.41,0,.15-.27.78-.49l.03-.12-.78-.08c-1.36.05-1.4.44-2.2.63Z"/><path d="m104.07,70c-2.31-.43-6.1-.82-2.43-1.46.66-.12.66-.41.97-.62-1.1-.12-.72-.28-.78-.42l-1.48-.05c.44.39-1.48.41-1.56.72l.98.14c-.08.02-.21.04-.22.05-.27-.06-.53-.12-.79-.19-1.3-.31-.47-.58-.73-.87-1.46-.51-2.98-.69-4.58-.36,2.6.47,3.3,1.05,3.94,1.64,1.17.38.66.6-.48.76-1.1.15-2.29.15-3.72-.16-1.68-.37-3.28-.64-3.67-.01,3.81.43,7.74.4,11.49.94,1.48.2,2.28.06,3.06-.11Z"/><path d="m66.32,65.06c-2.09-.4-1.36-.59-.13-.45,3.75.4,1.34-.24.68-.6-.69.25-1.82-.18-2.72-.26.07.24-.66.44-1.2.27-2.65-.86-4.69-.47-7.05-.95-1.31.06-1.34-.19-1.4-.43-1.23-.52-1.59-.33-2-.18.11.03.3.08.32.09.42.66,2.2,1.01,4.16,1.3,2.69.39,4.47,1.32,7.29,1.63.07,0,.31.35.47.54l2.89.73,1.53.4.24-.45c-3.32-.54-3.43-1.09-3.08-1.64Z"/><path d="m26.22,57.22c-1.48-.56-1.59-1.03-2.47-1.56-.55-.36-1.1-.73-.65-.76.34-.03.95.27,1.53.49.69.26,1.54.67,2.04.75.94.16,2.41.39,2.31.18-.25-.52-1.63-.61-2.49-.97-.52-.23-.97-.51-1.45-.77-.55-.52-1.24-.54-1.86-.8-1.08-.32-2.27-.68-2.1-.25.66,1.64-2.55.15-5.42-1.29.22.42,1.75,1.09,1.72,1.44,1.22.51,2.35,1.11,3.47,1.71,1.14.58,2.32,1.23,3.57,1.69,1.8.69,1.51.29,1.8.15Z"/><path d="m55.91,63.06c2.36.48,4.39.09,7.05.95.54.17,1.27-.03,1.2-.27-4.74-.76-9.46-1.52-14.19-2.36-2.37-.42-4.82-1.05-7.11-1.73-1.38-.4-2.53-.61-3.77-.85-.58.56,1,1.14,3.2,1.43,3.39.47,6.43,1,9.09,2.19.38,0,.76.02,1.14.03.41-.15.77-.34,2,.18l1.4.43Z"/><path d="m115.4,70.08l6.04.16.07-.33c-.82-.03-1.55-.1-1.41-.31.13-.2.97-.18,1.72-.16.28-.15.31-.33.33-.5-1.5.04-2.84.02-3.01-.44-1.92-.26-3.91-.33-5.93-.33-.09.13-.06.27-.29.38-1.01.48-1.83.92,2.12,1.15,1.27.06.46.25.36.38Z"/><path d="m115.36,2.32l-3.04.48v.19s.18.06.18.06l-.16-.06c-1.31-.08-1.9,1.32-3.64.38-.26.07-.76.17-.73.2.6.63-2.19,1.05-3.12,1.58.18.2.86.11,1.46.06.77-.37,2.05-.38,3.17-.5.84.05,1.3-.75,1.78-.27.52.51,1.86.05,2.65.12,1.29-.47,1.91-.3,2.38,0,.79.02,1.77.31,2.21-.23l.31-.32c-.93-.06-1.42-.33-2.71-.22-.89-.06-.57-.3-.66-.47-4.07-.02.49-.7-.08-.98Z"/><path d="m241.8,58.02c1.29-.15,2.77-.4,4.01-.52,2.57-.17,6.94-2.03,8.55-3.35-1.73.68-3.66,1.43-2.6.53-3.38,1.13-6.78,2.13-9.95,3.35Z"/><path d="m115.44,3.3c-4.07-.02.49-.7-.08-.98.8-.2,1.63-.39,1.4-.67,2.29-.24,4.73-.91,6.87-.33.1.03.14.07.1.11-3.01.76-3.2,1.58-2.98,2.42l-1.93.15c-.93-.06-1.42-.33-2.71-.22.07-.2.08-.39-.67-.47Zm2.37-.79c-.49-.05-.94.14-.78.23.32.18-1.19.71,1.13.53,1.15-.18,1.05-.31.19-.41-.17-.12-.17-.32-.55-.36Z"/><path d="m62.48,7.73c.7-.1,1.34.16,2.09-.26,1.67-.95,1.92-.38,2.54-.2.54-.02,1.23.02,1.59-.07,1.39-.36,2.7-.74,3.8-.42.9.27-.26.64-1.09,1.02-1.46.66-2.66.64-3.94.5-.8-.09-2.1.03-2.71.29-2.07.87-3.1.51-4.43.46.71-.44,1.43-.88,2.15-1.32Zm8.5-.55s-.26.06-.27.08c-.03.05.02.09.04.14l.58-.15c-.11-.02-.21-.05-.34-.07Z"/><path d="m215.92,65.07c-3.04.52-6.27.79-8.95,1.6-.68.21-1.67.2-2.37.2-1.27,0-2.1.17-2.75.48,2.64.15,5.75-.45,8.66-.95,3.77-.67,7.39-.74,11.14-1.74.54-.14,1.22-.26,1.45-.44-.82-.14-2.15,0-3.62.46-1.78.55-2.67.5-3.55.4Z"/><path d="m283.39,18.25c.23-.21.84.14,1.48,1.23.33.56.39.93.4,1.15.03.22-.09.33-.19.42-.21.19-.22.65-.2,1.57-.02.89.1,1.09.17,1.48.1.66.66-.08.94.13.14.14.37-.23.42-.73.12-.49,0-1.06-.04-1.24-.36-1.07-.93-2.16-1.46-3.53-.55-1.32-.64-2.09.62-1.21-.23-.5-.51-1-1.03-1.27-.12.44-.75.11-1.54-.23-.78-.37-1.74-.74-2.34-.79.56.55.99,1.11.84,1.36.7.49,1.35,1.05,1.93,1.66Z"/><path d="m48.32,11.02c-2.05-.04-4.06.16-5.88,1.23-1.03.77-4.57,1.48-5.03,2.32l.41.54c1.32-.11,2.46-.43,3.45-.92.14-.15-.37-.2.39-.43l.31.28c.22-.01.46-.05.71-.12,3-.77,2.18-1.62,4.94-2.36.61-.2.75-.37.7-.52Z"/><path d="m145.71,71.02l-.66-.28c-1.43-.13-3.41-.11-3.22-.69.06-.19-2.87-.82-4.71-.05-.58.25-1.5.33-2.75.3.06.04.08.09.1.13l-.06.49c3.73.22,7.42.57,11.31.1Z"/><path d="m181.44,69.61c.27-.42-1.39-.4-2.73-.38-2.89.04-6.25,0-8.77.38-1.74.27-2.92.33-4.62.4-1.03.04-.45.3-.53.47,3.64-.05,7.19-.02,11-.53,1.65-.21,3.75-.22,5.64-.33Z"/><path d="m90.56,5.92l-1.39.2c-.72.34-1.72.69-1.51,1.03,3.79-.16,7.77-1.04,11.63-.87,1.56.07,1.96-.71,3.33-1.01-.1-.29-1.59-.38-1.92-.27-2.29.76-4.27.26-6.37.55-1.25,1.24-2.52.1-3.78.38Z"/><path d="m27.49,16.1c-.37.11-.74.22-1.1.33-.55.6-.53.58.65.35.52-.1,1.22-.21,1.36-.13.5.26-1.57.78-1.81,1.13l1.63-.11c.8-.21,1.6-.41,2.41-.59,1.55-.68,3.11-1.35,4.69-1.97-3.48.32-3.46.16.36-1.55-1.94-.46-3.11.42-4.32,1.22-1.29.45-1.64,1.55-3.89,1.32Z"/><path d="m15.66,52.23c2.88,1.44,6.09,2.93,5.42,1.29-.17-.43,1.02-.07,2.1.25-.06-.69-1.71-.92-2.54-1.42-.86.2-1.59.63-4.57-1.52-.49-.36-1.35-.81-1.67-.74-.35.07.27.51.95.93l.32.13-.29-.11.28,1.17Z"/><path d="m123.63,1.31c.1.03.14.07.1.12.35.27,2.7-.01,2.28.47.64.47,1.51.34,2.4-.06.78-.35,1.45-.73,2.67-.18.91-.15,1.57.32,2.4,0,1.06-.4.16-.69-.76-.96-3.08.05-6.39-.35-9.1.61Z"/><path d="m169.4.67c1.03.44,3.61.43,4.33,1.13.34.33,3.6-.21,5.38-.45.29-.04.48-.12.72-.18l.03-.54c-2.72-.48-5.28.17-7.97-.1l-1.99.03c-.26,0-.42.04-.49.1Z"/><path d="m229.27,60.95c.56.1,2.53-.13,4.63-.44,2.1-.35,4.32-.81,5.36-1.18,2.06-.71.64-.66,1-1-1.32.4-2.62.93-3.95.98-.29.01-1.23.2-1.29.23-1.6.86-3.87.93-5.75,1.4Z"/><path d="m276.53,10.89c-.93-.64-3.18-.64-3.48-1.49-.97-.65-2.1-.76-3.19-.9-1.9.06-4.67-.79-6.84-.8.38.37.27.71,2.56.79,1.39.06,3.33.54,5,.95.33,0,.65.01.98.03l.26.19c-.4-.07-.79-.14-1.19-.19,1.32.51-3.14.45,1.94,1.34.26-.21-.27-.83,1.71-.22.48-.11,2.2.69,2.25.3Z"/><path d="m182.94,69.09c-.04.08.23.15-.42.22,4.61-.27,9.51-.22,13.39-1.54l-.13-.17-3,.31c-3.27.42-6.55.81-9.85,1.18Z"/><path d="m263.02,7.7c2.17,0,4.94.85,6.84.8-.1-.64-1.89-.58-2.74-.79-1.63-.43-3.33-.72-5.04-.91-1.69-.17-3.36-.27-5.02-.38.56,1.12,3.85.85,5.96,1.28Z"/><path d="m208.71,2.51c2.36.2,5.05.12,6.59.96.58.32,1.47.22,1.63-.06.12-.2-.05-.45.96-.49.36-.57-1.64-.54-2.69-.63-2.37-.21-4.78-.35-7.17-.52.18.25-.44.49.68.74Z"/><path d="m196.49,3.85c-1.64-.25-3.35-.52-4.55-.06-.78.29-1.22.07-1.9-.09-2.28-.56-4.56-.66-6.73-.17,2.12.59,4.8.6,7.4.63,1.92.03,3.83.06,5.74.1l.04-.41Z"/><path d="m3.4,33.22c-.09-.27-.12-.81-.25-.87-.09-.06-.51.38-.7,2.13-.07,1.86-.1,2.73-.13,3.7.02.52-.55.4.3,1.78.75,1.07.88.61.99.28.11-.32.28-.56.44-.82-1.1-1.98-1.4-4.18-.66-6.21Z"/><path d="m144.2.61c-.24.55-.27,1.05,3,.65l2.29-.4,1.45-.03c.61-.19,1.47-.16,2.3-.16l.86-.42c.07-.38-.95-.27-1.75-.22-2.72.15-5.44.36-8.15.56Z"/><path d="m28.23,17.67l-1.63.11c-2.02.72-4.01,1.83-5.94,1.84-.5,0-1.68.72-1.57.76.44.1-2.22,1.34-.2.81,3.02-1.36,6.63-1.92,9.35-3.52Z"/><path d="m144.97,2.42c-.83.17-2.05.53-2.41.49-1.41-.17-.08-.37.4-.56.32-.13-.11-.23-.68-.22-.65,0-1.35.09-1.36.27-.02.27.19.53.31.8,2.75.48,5.86.29,8.95.18l.09-.47s-.05-.1-.03-.15h-.83c-1.99.23-3.88.4-4.45-.33Z"/><path d="m47.63,11.55c-2.76.74-1.95,1.59-4.94,2.36,1.64.1,3.29.16,5.19-.96.2-.17.31-.42.63-.51,4.87-1.19,1.19-.81-.02-.88-.09.15.07.29-.81.46l.11-.33c-.06-.05-.11-.1-.15-.15Z"/><path d="m8.23,47.82c-.34-.71-1.11-1.82-2.35-2.49-1.2-.64-2.46-2.09-3.44-3.62-.99-1.55-1.61-3.16-2.33-4.05.49,2.46,1.82,4.46,3.26,6.1,1.47,1.63,3.14,2.94,4.85,4.07Z"/><path d="m67.62,66.75l-2.89-.73-1.51-.37c-.05.42-1.32.21-2.55-.01-2.82-.86-5.53-1.24-8.17-1.22.21.23.96.55,1.5.59,4.44.34,9.26,1.77,13.62,1.73Z"/><path d="m262.71,10.25c-.06-.62-.48-1.15-3.44-.94-2.19.15-4.81-.99-6.95-.6,3.01,1.18,6.9,1.11,10.39,1.54Z"/><path d="m163.99,68.27c1.03.48,3.04.76,5.25.96-.46-.5.66-.97,2.13-1.44-1.54-.19-2.9.11-4.31.26-.74.44-1.99.22-3.07.21Z"/><path d="m230.58,3.72c2.58.96,8.06,1.45,11.44.96-3.22-.65-6.53-.65-9.79-.95-.11.36-.9.15-1.64,0Z"/><path d="m77.58,6.35c.87-.14,1.47-.3,1.42-.54h-.98s-.24-.18-.24-.18l.72-.02.62.16c.9-.11,1.32-.29,1.36-.51-2.76.26-5.23-.03-8.24.74.36.62,2.93.34,4.67.42l.67-.07Z"/><path d="m42.32,61.89c-3.41-.82-6.75-1.73-9.78-2.09,1.04.66,2.08,1.08,3.86,1.25,2.26.2,4.85,1.23,7.29,1.62l-.05-.41c-.43-.12-.88-.25-1.33-.37Z"/><path d="m200.28,3.14c3.11.05,4.83-.59,3.86-1.49l-3.04-.17c.44.43-1.81.52-1.39.95.87.23.49.48.57.71Z"/><path d="m35.34,15.11c-1.58.63-3.14,1.29-4.69,1.97,2.53-.4,5.01-.8,7.18-1.97l-.41-.54c-.7.16-1.39.36-2.08.54Z"/><path d="m120.75,3.85l-1.93.15-.31.32c2.82-.08,5.7.05,8.29-.63-.86-.28-2.6-.34-2.94-.74-.54.1-1,.19-1.45.28-.1.27-.16.54-1.65.62Z"/><path d="m196.49,3.85l-.04.41,3.76.18c.79-.4.76-.84.07-1.31-1.83-.13-1.38-.45-1.41-.74-.28-.16-.69-.32-1.41-.28-.84.04-.35.24-.21.38.55.52,1.61,1.07-.77,1.35Z"/><path d="m88.81,4.45v-.38c-2.57.25-5.45.02-7.53,1.09.42.3-.06,1.07,2.7.01,1.2-.47,3.4-.19,4.83-.72Z"/><path d="m69.4,66.7l-.24.45c2.88.71,5.57.69,8.29.81l-1.37-.5c-1.48-.32-1.47-.65-1.64-.97-.2-.03-.4-.06-.61-.09-.08.65-.6,1.14-4.42.31Z"/><path d="m102.61,67.92c1.99.11,3.99.22,5.98.32,1.29.08,2.26.11,2.41-.22-2.64-.55-5.62-.3-8.37-.6-.02.16-.03.33-.01.5Z"/><path d="m76.07,67.46l1.37.5c2.13.44,4.33,1.08,6.17.5-1.92-.4-3.93-.75-6.09-1.05-1.02-.15-1.38-.16-1.45.05Z"/><path d="m136.58.76c.09.05.11.12.26.16,1.09.28-3.05.85.09.87,2.27.01,3.71-.59,3.5-1.22-1.33-.06-2.76-.33-3.86.19Z"/><path d="m215.92,65.07c.88.1,1.77.16,3.55-.4,1.48-.46,2.8-.59,3.62-.46.52-.13,1.2-.25,1.37-.41-.46-.06-.92-.12-1.38-.18-2.35.31-4.63.87-6.95,1.24l-.21.2Z"/><path d="m251.75,54.67c-1.06.9.87.16,2.6-.53,1.29-.48,2.05-.9,2.51-1.29l-.16-.27c-1.59.75-3.18,1.51-4.96,2.09Z"/><path d="m154.88,70.54c-2.74.2-5.85,0-8.29.48,2.76.36,5.52-.12,8.28-.16v-.32Z"/><path d="m10.56,25.58c-.53-.46-1.34-.06-2.14.66-.8.71-1.58,1.69-2.24,2.27.29.13.13.71,1.62-.81.76-.74,1.79-1.48,2.76-2.12Z"/><path d="m139.71,3.27c-.27-.28,0-.72-1.71-.66-2.3.08-.91.71-2.23.97,1.85.47,2.63-.21,3.94-.32Z"/><path d="m222.82,5.59l3.39-.12c-2.11-.23-2.21-.65-2.48-1.07-.16-.24-.64-.46-1.66-.54-.38-.03-.98.01-1.1.09-.35.2.47.32,1.11.47,2.31.52-1.93.58.07,1.09.21.04.43.07.67.09Z"/><path d="m256.12,54.61c-1.34.75-3.55.69-4.39,1.82.74.16.79.23,4.39-1.82Z"/><path d="m160.89,2.34c1.99.16,1.86.61,2.3.98,1.56.03,3.26.32,4.53-.13l-.05-.22c-1.12-.1-3.08.06-3.26-.31-.39-.82-1.99-.49-3.53-.33Z"/><path d="m156.26,3.37c.97-.6-1.33-.73-2.42-1.03l-1.18.37-.93.77c1.56.1,2.92-.36,4.53-.11Z"/><path d="m9.54,46.03l.32-.42c-1-.95-1.94-1.92-3.11-2.84-.17.2-.86.12.68,1.49,1.18,1.01,1.67,1.56,1.38,1.83.63.33.57.04.72-.06Z"/><path d="m171.37,67.8c-1.47.47-2.59.94-2.13,1.44,1.53-.42,3.78-.76,4.07-1.3l-.32-.25-1.62.11Z"/><path d="m208.71,2.51c-1.12-.25-.5-.49-.68-.74l-2.26-.22c-.39.61-.48,1.19,2.94,1.53v-.58Z"/><path d="m43.65,62.26l.05.41c1.44.33,2.7.5,3.81.48-.68-1.36-2.29-1.08-3.86-.9Z"/><path d="m211.34,64.04c0,.09-.12.21.03.27.45.17-1.64.9.68.57,2.06-.29.22-.42.49-.67.08-.07.75-.2,1.15-.3-.53-.09-1-.21-2.36.13Z"/><path d="m163.99,68.27c1.08,0,2.32.23,3.07-.21l-1.66-.02c-.62.04-1.16.04-1.45-.08l-3.06.25.65.15,2.46-.09Z"/><path d="m276.79,18.67s-.09,0-.07.05c.06.29-.84-.44.33,1.01.36.51,1.24,1.39.73.24-.27-.48-.65-.88-.98-1.31Z"/><path d="m98.79,68.17c.07-.31,1.99-.33,1.56-.72l-2.31-.15c.26.29-.57.56.75.87Z"/><path d="m281.46,16.6c.15-.26-.29-.81-.84-1.36-2.88-1.5.37.77-.51.5.09.11.22.23.42.33.26.16.52.32.75.51.16.1.22.11.18.02Z"/><path d="m168.32.83l1.52-.16c-.66-.43-2.51-.33-3.65-.52l-.09.36.06.38c.41.03.72.02,1.03.02.12-.21.63-.15,1.14-.09Z"/><path d="m17.38,53.68c.04-.35-1.5-1.03-1.82-1.47l-1.15-.46.75.7c.66.49,1.4.91,2.23,1.23Z"/><path d="m116.29,4.55c-.47-.3-1.09-.47-2.38,0,.65.14.94.61,2.38,0Z"/><path d="m133.58,70.45l-2.39.14c-.12.43,1.21.34,2.38.31v-.45Z"/><path d="m109.48,4.7c-1.12.12-2.4.13-3.17.5,1.65.24,2.5-.06,3.17-.5Z"/><path d="m270.94,12.97c.53.56,1.25,1.06,2.05,1.67-.61-.6-.8-1.17-2.05-1.67Z"/><path d="m161.53,68.36l-.65-.15-1.51.05.07.16c.69.15,1.38.15,2.09-.06Z"/><path d="m178.2,3.27s.02-.07.1-.09c-.11.02-.22.04-.35.04-.07.13-.15.27-.22.4l.47-.34Z"/><path d="m163.95,67.97c.3.12.83.12,1.45.08,0-.26-.49-.28-1.45-.08Z"/><path d="m203.16,4.62c-.08-.14.07-.34-.77-.36-.61,0-.51.14-.06.26l.83.1Z"/><path d="m166.1.52l.09-.36c-.78.05-1.32.17-1.58.36h1.49Z"/><path d="m169.89.57l1.99-.03c-.83-.26-1.5-.25-1.99.03Z"/><path d="m102.58,67.91l.05-.49c-.5-.06-.76-.04-.79.08.06.15-.32.31.74.41Z"/><path d="m41.98,14.03l-.31-.28c-.76.23-.25.29-.39.43.24-.02.48-.07.7-.16Z"/><path d="m230.58,3.72c.74.15,1.53.36,1.64,0-.68-.12-1.36-.23-1.64,0Z"/><path d="m281.28,16.58c-.23-.19-.5-.35-.75-.51l.33.48.42.03Z"/><path d="m216.12,64.87c2.33-.37,4.61-.93,6.95-1.24.81-.16,1.14-.32,1.19-.46l.03-.41c-1.28.22-1.73.18-1.31-.11.2-.14.47-.32-.38-.19-.49.09-1.56.36-1.54.4.26.54-3.13,1.16-4.41,1.69-.26.11-.36.22-.53.33Z"/><path d="m263.28,50.89c1.47-.67,2.93-1.43,4.1-2.53-2.29,1.46-.69-.14-2.34.79-.89.49-1.82.88-2.72,1.33.46.06,2-.52.97.42Z"/><path d="m184.48,67.49c-1.29-.15-2.95-.07-4.67.06.06.17-.16.39.27.48.57.12-1.68.53.38.41,1.43-.09,1.13-.32.96-.5-.08-.09-.11-.4.84-.16,1.74.42,1.32-.31,2.22-.28Z"/><path d="m238.5,60.22l2.24-.48c.25-.21,2.09-.87.39-.56-1.81.31-2.34.7-2.63,1.04Z"/><path d="m233.18,61.38c-.63.22-1.2.49-.78.49,1.25-.01,2.55-.64,3.86-.94-.2-.34-1.88.23-3.08.45Z"/><path d="m192.79,67.91l3-.31c-.19-.24-1.15-.26-2.35-.11-.92.12-.6.29-.65.42Z"/><path d="m159.38,68.88c-.21.02-.42.04-.65.05l-.08.29c.92-.06,2.04-.03,2.44-.31l-1.72-.03Z"/><path d="m241.31,59.58c.38.2,1.4-.19,2.42-.57l-.15-.23c-.77.27-1.52.53-2.27.8Z"/><path d="m226.82,61.71c-.16,0-.32.02-.48.03l-.4.2c.2-.02.43-.04.57-.08.14-.04.2-.1.3-.16Z"/><path d="m186.8,67.3l-1.75.15c.23.06.4.18.7.17.85-.03.83-.2,1.05-.32Z"/><path d="m232.44,61.17l.78.08c1.07-.45.19-.28-.78-.08Z"/><path d="m243.58,58.78c.39-.13.98-.27.94-.38,0-.02-.3.01-.45.06-.67.2-.45.24-.49.32Z"/><path d="m224.29,62.75l-.03.41c.94-.31.99-.46.03-.41Z"/><path d="m203.84,65.72c.02.06.14.04.25.04-.02-.06-.14-.04-.25-.04Z"/><path d="m157.11,69.26l-.03.16,1.56-.2c-.5.01-1.01.03-1.53.04Z"/><path d="m230.22,61.81l-.18-.02c.07,0,.13,0,.18.02Z"/><path d="m244.09,58.89l.25.07c.61-.26.47-.27-.25-.07Z"/><path d="m210.1,3.36c-.94.24-2.39.4-1.37.92.44.22.97.43,1.91.52,1.4.13,1.57-.13,1.78-.36-.71-.34-1.05-.67-.41-.97.3-.14.24-.29-.59-.37-.99-.09-1.16.09-1.33.26Z"/><path d="m274.28,10.59c-1.98-.61-1.45,0-1.71.22.71.25,1.76.48,1.73.86,0,.19.59.64,1.23.82.65.18,1.31.24,1.61.16.5-.12-.78-.51-1.13-.75-.69-.45-1.16-.89-1.74-1.31Z"/><path d="m235.51,6.27c1.29,1.02,3.86.93,6.29.97-1.71-.65-3.69-1.08-6.29-.97Z"/><path d="m233.63,6.15l.78.03c.14-.04.22-.1.41-.11,1.47-.09,2.46-.25,1-.8-.38-.14-1.45-.36-1.28-.16.39.47-4.39.19-.92,1.04Z"/><path d="m216.92,5.09l2.17.26c.04-.25,1.89-.46-.04-.74-1.42-.21-2.45.03-2.14.48Z"/><path d="m227.25,5.56l2.38.69c-.04-.22,1.29-.35.19-.63-.87-.22-1.84-.2-2.57-.06Z"/><path d="m269.51,10.15c-.41-.18-.65-.32-.9-.38-.27-.07-.55-.05-.83-.06.22.1.4.24.65.31.26.07.58.07,1.08.13Z"/><path d="m231.27,6.4l2.11.07c.1-.01.2-.03.31-.05l-.08-.19c-.95-.02-2.32-.24-2.34.17Z"/><path d="m214.99,4.97c.61.2,1.22.41,1.88.12l-1.88-.12Z"/><path d="m264.88,10.11c-.2-.08-.31-.07-.42-.07.07.03.15.06.42.07Z"/><path d="m9.75,23.02c-.71.51-1.61,1-1.87,1.51.01.35-.57.81-1.22,1.35-.64.53-1.34,1.15-1.59,1.64-.18.35-1.53.97-1.57,1.72-.03.43.94-.46,1.64-.87.7-.43,1.16-.82,1.88-1.68.45-.54.99-1.08,1.58-1.51.6-.42,1.27-.72,1.94-.81.78-.13,1.83-.96,2.45-1.47,1.09-.87.06-.47-.73-.21-.62.2-1.25.39-1.71.49-.46.11-.78.1-.8-.16Z"/><path d="m9.54,46.03c-.15.1-.09.39-.72.06-.28.08-1.74-1.08-1.24-.25.18.3.69.86,1.09,1.15,1.35.95.67.02,1.08.08.22.03.41.02.71.12.57.21,2.04,1.04,1.63.51-.46-.62-1.69-.95-2.54-1.66Z"/><path d="m5.02,42.9c-.08-.14-.16-.28-.24-.41-.14-.07-.27-.16-.41-.23.11.17.22.37.34.48.1.1.2.11.31.17Z"/><path d="m23.17,17.14l.72-.25c-.23.08-.48.16-.72.25Z"/><path d="m279.86,29.44c.08-.15.18-.19.08-1.19-.08.14-.09.61-.08,1.19Z"/><path d="m55.8,9.28l-1.54.25c.02.23.43.51-.02.68-.8.31-1.52.55-1.19.78.16.11.6-.03.77-.12.62-.36,2.84-.68,2.16-1.08-.22-.13-.13-.34-.19-.51Z"/><path d="m60.33,9.05c-.5-.08-.57-.34-1.65-.18-.15.02-.5.22-.45.27.26.26,1.28.02,2.1-.09Z"/><path d="m77.58,6.35l-.67.07c.02.14-.1.31.77.22l-.1-.29Z"/><path d="m47.77,11.69l-.11.33c.88-.17.72-.31.81-.46l-.7.13Z"/><path d="m51.32,10.44l.31.19c.69-.27-.05-.17-.31-.19Z"/><path d="m265.03,49.15c1.65-.93.05.67,2.34-.79.81-.58,1.33-1.04,1.68-1.44.71-.88,1.59-1.87-.14-.82-2.77,1.54-2.55,2.07-3.89,3.05Z"/><path d="m274.56,40.82c-.68.85-2.1,1.87-1.78,2.07.1.06.59-.07,1.39-1.02.4-.45.83-1.06,1.18-1.54.32-.51.55-.9.52-.97-.12-.26-.88,1.11-1.32,1.47Z"/><path d="m274.39,42.29c.7-.53,1.16-.85,1.59-1.33.53-.61,1.39-1.77,1.24-1.94-.09-.1-.45.29-.98.94-.56.72-1.08,1.44-1.85,2.32Z"/><path d="m279.26,33.11c.09-.08.23-.04.39-.81.05-.24,0-.39-.02-.58-.11.47-.2.94-.37,1.39Z"/><path d="m271.88,44.07c.16-.19.04-.1-.08,0h.08Z"/><path d="m278.67,34.4l.14-.31c.05-.1.08-.21.12-.31-.11.2-.22.39-.25.62Z"/><path d="m181.32,2.9c-.15-.31-.93-.45-2.04-.39-1.41.09-.86.42-1,.66,1.36.07,1.43-.5,3.04-.27Z"/><path d="m198.87,2.4c.02.28-.43.61,1.43.74-.1-.24.28-.48-.59-.72l-.84-.03Z"/><path d="m181.34,2.9l.17.08c-.06-.03-.12-.05-.17-.08Z"/><path d="m42.32,61.89l1.34.38c-.21-.18.54-.26-.54-.53-.61-.15-.81,0-.8.15Z"/><path d="m60.67,65.64c1.23.23,2.5.43,2.55.01-.93-.04-1.97-.15-2.55-.01Z"/><path d="m160.89,2.34c1.54-.16,3.14-.49,3.53.33.18.37,2.14.2,3.26.31-.61-.43-1.09-.87-1.85-1.28-1.63-.88-4.65-.99-7.11-.29-.31.09-.46.23-.84.28-1.4.19-1.49.82-.1,1.06.58.1.58.1.91-.31.16-.19.11-.44,1.17-.44.32,0,.68.23,1.02.35Z"/><path d="m149.41,2.74h.83c1.45-.66-.82-1.23-.75-1.87l-2.29.4c-.21.59,2.82.84,2.22,1.47Z"/><path d="m153.23.69c-.83,0-1.69-.04-2.3.16.02.03,0,.07.08.09,1.03.2.84.83,2.09.71,1.85-.17-.22-.62.13-.95Z"/><path d="m157.29,1.25c.22-.06.48-.1.46-.14-.07-.1-.23-.2-.36-.3-.1.05-.28.11-.28.16,0,.08.11.17.19.28Z"/><path d="m168.32.83c-.5-.06-1.02-.12-1.14.09.48.04,1.15.21,1.14-.09Z"/><path d="m166.16.89l-.32.1c.14-.02.27-.05.32-.1Z"/><path d="m35.34,15.11c.69-.18,1.38-.37,2.08-.54.46-.83,4-1.54,5.03-2.31-.17-.22.06-.59-1.63-.19.8.18-.4.62-1.15.91-.92.35-1.43.2-1.83.1-.71.16-1.43.31-2.14.49-3.82,1.71-3.84,1.86-.36,1.55Z"/><path d="m37.83,13.08c.4.1.91.25,1.83-.1.75-.3,1.95-.73,1.15-.91-1.15.28-2.62.48-2.98,1.01Z"/><path d="m27.49,16.1c2.24.23,2.6-.87,3.89-1.32-1.69.12-2.83.68-3.89,1.32Z"/><path d="m23.16,17.15l.75-.25c-.3-.08-.56,0-.75.25Z"/><path d="m120.75,3.85c1.49-.08,1.55-.36,1.65-.62-.25-.35.54-.32,1.37-.27.45-.4.09-.84,2.24-1.06.42-.49-1.93-.2-2.28-.47-3.01.76-3.2,1.58-2.98,2.42Z"/><path d="m144.95,2.41l.95-.08c-.54-.16-.67.01-.95.08Z"/><path d="m122.08,69.46c-.37.13-.47.29-.57.44,1.53.04,3.06.07,4.58.11,1.38.01,1.41-.2,1.47-.41-.82-.05-1.82,0-2.3-.23l-3.18.09Z"/><path d="m143.5,69.19c-.03-.16-.11-.34-.95-.37-.38-.01-.88.14-1.33.21.54.19,1.44.15,2.28.15Z"/><path d="m125.26,69.36c.48.23,1.48.18,2.3.23-.46-.24-1.4-.23-2.3-.23Z"/><path d="m134.36,70.3c0-.09.72-.18.04-.27-.07,0-.29,0-.35.02-.44.11-.19.19.31.26Z"/><path d="m90.56,5.92c1.26-.28,2.53.86,3.78-.38.13-.81-2.58-.1-3.87-.16l.1.53Z"/><path d="m106.33,3.85l-.31.07c.1-.02.19-.04.31-.07Z"/><path d="m90.46,5.39l-.17-.06c.06.02.12.04.17.06Z"/><path d="m157.11,69.26l1.54-.04.08-.29c-1.08,0-1.6.11-1.62.33Z"/><path d="m69.4,66.7c3.82.83,4.33.34,4.42-.31l-.74-.81c-2.8-.82-4.51-.35-6.75-.52-.36.55-.24,1.1,3.08,1.64Z"/><path d="m106.13,68.72l.33.04c0-.08-.13-.08-.33-.04Z"/><path d="m233.37,6.46l.53.11-.22-.16c-.1.02-.21.03-.31.05Z"/><path d="m98.77,68.17c.26.06.52.12.79.19,0,0,.14-.03.22-.05-.33-.05-.66-.09-1.01-.14Z"/><path d="m55.91,63.06l-1.4-.43c.06.24.09.48,1.4.43Z"/><path d="m121.51,69.9l.31-.46c-.75-.02-1.58-.04-1.72.16-.14.21.59.28,1.4.31Z"/><path d="m116.11,3.77c.07-.2.08-.39-.67-.47.09.18-.23.41.67.47Z"/><path d="m112.34,2.98l.16.06c-.06-.02-.11-.04-.16-.06Z"/><path d="m118.36,2.87c-.17-.12-.17-.32-.55-.36-.49-.05-.94.14-.78.23.32.18-1.19.71,1.13.53l.19-.41Z"/><path d="m118.36,2.87l-.19.41c1.15-.18,1.04-.31.19-.41Z"/><path d="m71.33,7.25c-.11-.02-.21-.05-.34-.07-.02,0-.26.06-.27.08-.03.05.02.09.04.14l.58-.15Z"/><path d="m15.37,51.06l.29.11c-.11-.04-.21-.09-.29-.11Z"/><path d="m270.63,9.47c.4.05.8.12,1.19.19l-.26-.19c-.33-.01-.65-.03-.93,0Z"/><path d="m78.02,5.81h.98c-.08-.09-.29-.14-.49-.2l-.49.2Z"/><path d="m123.78,2.96c-.84-.05-1.62-.09-1.37.27l1.37-.27Z"/>
                  </g>
                </mask>
              </defs>
              <path class="mask" d="m284.11,26.92c4.28-3.69,1.99-9.14-3.17-12.36-6.16-3.85-14.42-5.45-19.44-6.07C177.44-1.74,118.03,3.14,118.03,3.14c-15.28,1.1-87.4,6.56-109.15,22-1.96,1.39-6.49,4.69-7.11,9.3-1.25,9.21,14.02,16.56,20.17,19.52,43.88,21.12,211.64,23.45,248.64-8.8,3.11-2.71,11.27-9.82,9.34-18.9-2.55-12.04-21.18-19.54-26.9-21.68"
                    mask="url(#path-mask)" stroke="black" stroke-width="2" fill="none"
                    stroke-dasharray="645.7869262695312" stroke-dashoffset="645.7869262695312">
              </path>
            </svg>
        