
            <svg xmlns="http://www.w3.org/2000/svg">
              <defs>
                <mask id="path-mask">
                  <g fill="white">
                    <path d="m360.87,64.4c3.2-.64,1.1-.64,1.71-.97l2.33-.25c1.93-.1,4.17-.29,6.01-.35,3.79-.09,10.67-1.66,13.46-2.93,2.03-.36,3.27-.78,4.07-1.15,1.35-.22,3-.66,4.57-1.08,1.57-.41,3.07-.78,4.14-.87.63.11,3.03-.3,1.16.55-1.35.6-2.86,1.12-5.18,1.51-1.91.35-3.62.75-4.63,1.25l-1.77.41c-2.18.63-5.33.48-6.91,1.54-.7.13-1.98.36-2,.36-1.62,1-5.79,1.47-9.36,2l-.08-.17c.96-.24.75-.25-.35-.09-.18.04-.36.07-.56.1l-.16-.24c.6-.11,1.5-.23,1.47-.34,0-.02-.45,0-.67.04-1.03.17-.72.22-.82.31l-3.5.7c-.28.05-.58.1-.87.14.42-.21,3.29-.78.71-.55-2.72.24-3.6.62-4.11.95-.47.33-1.62.55-3.45.64-.23-.34-2.82.16-4.63.35l.07-.12c1.68-.42.34-.28-1.13-.11-2.02.01-2.15.4-3.4.57l-.26-.02h.29c-.09.23.69.44-2.94.77-2.26.21-4.18.52-3.75.82l-2.23.28-2.01-.22c1.22-.14,1.74-.28,1.83-.43,1.45-.29,1.55-.43.11-.42-1.94.18-2.6.14-1.93-.15.31-.14.75-.31-.53-.2-.38.03-.97.12-1.46.2-.5.08-.9.16-.89.18.3.55-4.85,1.07-6.82,1.61-.4.11-.57.21-.84.31l-.34.2c-4.59.46-9.43.67-13.53,1.44-1.04.19-2.51.16-3.55.15-1.88-.01-3.15.14-4.15.43l-8.88.33-.17-.17c-.26-.24-1.69-.28-3.49-.14-1.39.1-.92.27-1.02.41-4.92.38-9.85.73-15.01,1.01l.21.05c-.06.08.34.16-.64.22-.27.12-.37.25-1.64.29.43-.42-2.04-.42-4.05-.4-4.33,0-9.35-.06-13.14.29-2.62.25-4.39.3-6.94.35-1.55.03-.68.3-.81.46-4.96.13-9.91.23-14.87.3l.02-.32c.98-.19.74-.37.25-.57-.84-.34.42-.52,3.07-.54l2.34-.19c1.4-.05,3.08,0,3.69-.28l-2.57-.05c-.33-.15-1.84-.28.11-.45,1.03.16,2.07.16,3.13-.05l3.69-.06c1.53.49,4.53.78,7.82,1.01,2.31-.41,5.7-.73,6.17-1.26,3.24-.04,6.48-.03,9.75-.32.09.17-.27.39.37.48.85.12-2.54.52.55.41,2.14-.07,1.71-.31,1.47-.49-.11-.09-.14-.4,1.27-.16,2.57.45,2.01-.29,4.21-.3.34.06.59.19,1.03.18,1.28-.03,1.25-.19,1.6-.31,4.15-.15,8.16-.61,12.58-.62,2.3,0,3.49-.51,4.15-.84,6.77-.42,13.54-.88,20.29-1.44,0,.09-.21.21.01.27.64.18-2.57.87.94.59,3.1-.26.39-.42.82-.67.12-.07,1.15-.19,1.76-.29,5.69-.8,11.85-1.37,17.76-1.99,1.72-.2,4.48-.87,5.9-.61.8.1,3.77-.05,6.94-.31,3.17-.28,6.55-.66,8.17-1Zm-19.61,2.01l-.63.2c.29-.02.64-.03.86-.06.22-.03.32-.1.48-.15-.25,0-.48,0-.71.01Zm-33.63,3.53c-.13,0-.31.01-.46.02.03.06.21.05.46-.02Z"/><path d="m372.85,4.15c3.8.14,7.58.36,11.34.71,3.76.34,7.51.71,11.28,1,.93,1.11,5.85.88,8.99,1.25.61.37.49.7,3.9.7,2.06,0,5.01.41,7.62.77,2.06.45-4.51.6,3.19,1.26,1.11.22,2.69.39,2.78.78.04.19,1.07.62,2.06.77,1.01.15,1.98.16,2.38.05.66-.16-1.3-.48-1.89-.69-1.15-.42-1.96-.84-2.92-1.23.66-.14,3.37.57,3.3.16.78.46,2.67.85,4.34,1.29,1.67.43,3.11.91,2.99,1.27-.06.18-.71.2-1.47.19-.77,0-1.65,0-2.2.08-1.15.18-5.57-.81-9.13-1.47-1.6-.32-3.11-.72-4.71-.97-1.55-.23-3.43-.78-4.61-.6-1.25.18,3.06.53,2.23.81-2.51-.03-5.08-.17-7.97-.61-.17-.62-.9-1.12-5.28-.92-3.26.15-7.28-.99-10.44-.6l-1.2-.07-2.26-.36c-3.78-.96-7.9-1.27-12.4-1-2.62-.65-5.61-1.08-9.49-.97l-1.64-.09c.2-.04.32-.1.61-.11,2.19-.09,3.66-.25,1.44-.8-.58-.14-2.19-.36-1.92-.16.62.47-6.55.2-1.33,1.11-1.42-.03-3.49-.21-3.49.2l-2.46-.14c-.07-.22,1.9-.35.24-.63-1.32-.22-2.76-.2-3.86-.05l-1.55-.1c-3.18-.22-3.36-.65-3.79-1.06-.25-.24-.99-.46-2.51-.53-.57-.03-1.46.02-1.64.09-.51.21.72.32,1.69.46,3.49.51-2.85.59.18,1.09-.78.34-2.74.21-4.58.13l-.02-.26c.05-.25,2.8-.47-.1-.75-2.14-.21-3.66.06-3.25.51l-2.82-.12-3.88-.52c-1.08-.34-1.61-.66-.66-.97.43-.14.34-.3-.9-.37-1.49-.09-1.73.1-1.97.27l-2.09-.27-.03-.58c3.55.19,7.57.1,9.91.93.89.32,2.21.21,2.44-.07.16-.2-.11-.45,1.4-.51,6.18-.21,12.53.07,19.01.76,3.92.91,12.16,1.42,17.16.91Zm40.24,4.82c-.42-.06-.83-.02-1.25-.03.34.1.65.23,1.03.28.4.06.87.05,1.63.09-.65-.16-1.03-.3-1.42-.34Z"/><path d="m5.16,32.49c-1.89,2.09-2.59,3.09-3.13,4.52-.13.36-.27.42-.36.7-.09.27-.2.81.27,1.96.41.91.73,1.15.87,1.17.15,0,.18-.24.23-.46.09-.41.25-.67.42-.97.8,1.78,2.4,3.34,4.17,4.65-.08.12-.33.13-.25.35.08.21.47.64,1.78,1.48,1.99,1.24,2.88,1.86,2.62,2.16-.34.09-2.77-1.31-1.75-.33.36.35,1.27,1.01,1.93,1.34,2.2,1.1.91.04,1.47.11.31.04.57.03,1.01.15.85.24,3.21,1.2,2.44.59-.89-.69-2.71-1.08-4.16-1.92l.25-.46c5.81,2.9,11.76,5.22,17.66,7.5-1.15.2-2.03.67-6.99-1.65-.82-.39-2.18-.88-2.61-.81-.45.08.57.56,1.72,1.04.27.42.55.84.67,1.23l-1.76-.5,1.29.75c-4.21-1.18-8-2.88-11.22-5.12-.74-.79-2.24-2.08-4.12-2.94-1.8-.83-4.05-2.6-5.6-4.99-.77-1.18-1.31-2.56-1.49-3.86-.22-1.32,0-2.45-.02-3.3.99-2.15,2.51-3.72,4.1-5.05,1.59-1.33,3.31-2.42,5.05-3.33.18.62,2.81-.67,5.03-1.77.49-.26.93-.48,1.35-.68.42-.17.82-.32,1.2-.46.76-.27,1.47-.47,2.27-.67-.34.73-4.12,1.67-5.38,2.68-.48.34-2.51.64-3.09,1.42-.35.46,1.44-.23,2.6-.5,1.19-.28,2.03-.66,3.5-1.44.93-.48,1.94-.98,2.97-1.37,1.04-.35,2.1-.58,3.07-.59,1.16-.03,3.01-.82,4.12-1.27,1.92-.79.28-.47-.93-.3-1.91.25-3.79.61-3.59.05l1.12-.54c1.14.04,2.68-.27,4.37-.72,1.69-.43,3.54-.93,5.25-1.33,1.33-.29,4.34-1.23,3.59-.35-.18.2,3.9-.98,3.99-1.16.17-.43,1.29-.63,2.81-.94l1.11-.22c2.06-.53,4.48-1.26,3.76-.37-.97.6-.94.58.85.38.79-.1,1.84-.17,2.03-.09.66.28-2.49.73-2.95,1.1-3.15.64-6.39,1.74-9.21,1.62-.72-.02-2.66.69-2.52.72.6.13-3.69,1.22-.58.82-.09.2-.42.31-1.67.57-4.07.91-8.24,1.66-12.16,3.32-.49-.55-1.82-.25-3.29.42-.74.32-1.53.71-2.29,1.07-.76.38-1.47.76-2.11,1.01-1.46.61-2.67,1.34-3.84,2.09-1.17.76-2.33,1.54-3.67,2.45.19-.37.71-1,.63-1.12-.04-.06-.23.01-.69.31-.45.3-1.18.84-2.12,1.83Zm-.11,11.02c-.2-.11-.4-.22-.59-.35.18.24.41.48.59.65.16.14.29.17.44.25-.15-.19-.3-.37-.45-.55Z"/><path d="m422.22,14.22c-3.72-1.73-8.26-3.81-11.9-4.81-3.01-1.46-7.96-2.7-11.73-3.83-1.07-.32-1.5-.41-2.28-.58-2.42-.48-3.16.01-.57.76,2.73.81,3.55,1.18,4.19,1.57.67.4,1.95.97,4.62,1.47.3.05,1.37.36,1.82.52,4.36,1.58,8.61,3.01,12.75,4.95,4.73,2.24,9.41,4.83,13.04,8.53.89.93,1.68,1.94,2.34,3.03.61,1.1,1.1,2.28,1.3,3.51.45,2.47-.35,5.01-1.73,7.15l.19.1c.47-.74.8-1.37.95-1.51.32-.7.57-1.51.74-2.3.17-.79.2-1.56.2-2.19-.02-1.52-.55-3.16-1.35-4.57-.79-1.42-1.78-2.61-2.51-3.6-.43-.59-2.58-2.81-5.22-4.56-2.59-1.82-5.5-3.3-6.51-3.73-.33-.15-.7-.26-.66-.21.36.47-1.42-.52-2.25-.94-.98-.53-1.59-.86-2.44-1.32-.49-.25-2.12-.82-1.93-.84.12-.02,1.06.28,2.31.76,2.61.99,6.15,2.77,6.63,2.63Z"/><path d="m118.4,6.2c-2.75.36-6.03.58-7.8,1.24.8-.02,1.83.03,2.38-.05,2.11-.35,4.1-.73,5.7-.39,1.32.27-.47.64-1.74,1.01-2.26.66-4.04.62-5.93.47-1.18-.09-3.14.01-4.07.27-3.2.86-4.69.48-6.65.43-1.24.11-2.79.34-3.14.08-.07-.05.48-.25.71-.27,1.63-.15,1.7.11,2.43.2l3.38-1.31c-2.36-.54-5.29.27-8.07.72.1.25-.06.5-2.08.77.05.18-.11.39.2.52.94.41-2.4.71-3.37,1.06-.27.1-.95.23-1.17.12-.45-.24.66-.47,1.89-.77.7-.17.13-.45.13-.69-1.08.38-4.28.33-4.54.89.41.02,1.54-.08.46.19l-.43-.19c-1.62.07-.7-.52-2.69-.26-.7.09-1.23.53-1.84.8.04.15-.18.32-1.13.52.06.05.12.1.2.15l1.06-.12c1.79.09,7.32-.25-.12.88-.49.08-.68.33-1.02.5,3.21-.41,6.55-1.09,9.53-.86.36.03,4.63-.92,7.52-1.24.77-.31,1.75-.45,3.48-.66,5.08-.6,10.43-.62,15.25-1.6,2,.4,5.45-.56,7.55-.41,2.05.14,3.68.1,6.17-.38,3.38-.65,4.89-.48,5.01.1l5.62-.48c-.28-.35,1.25-.69,2.35-1.03-2.61-.29-5.32-.57.1-1.41.69-.11.23-.23-.48-.26-2.18.52-5.44.24-7.27.7-4.23,1.05-3.43.27-4.03-.03l-1.19.1c-.1.22-.73.39-2.09.5-.14.28-1.04.45-2.36.58l.12.29c-1.31.09-1.11-.09-1.12-.23-2.58-.09-6.44.18-6.9-.45Z"/><path d="m405.18,55.26c1.39-.47,2.35-.88,3.05-1.24,1.45-.78,3.23-1.7.31-.88-4.62,1.15-4.62,1.79-6.96,2.61-1.46.39-2.94.71-4.41,1.05-1.07.09-2.57.46-4.14.87-1.57.43-3.21.87-4.56,1.08l-.12-.29c2.57-.53,5.42-1.63,7.38-1.85,2.47-.33,4.92-1.1,7.65-2.03,5.36-1.85,10.71-3.84,15.71-6.5,2.49-1.31,4.96-2.79,7.29-4.37,2.31-1.62,4.56-3.35,6.38-5.48.21-.08.33.03-.57,1.12-.5.53-1.02,1.04-1.56,1.52-.3.23-.61.45-.92.66-.29.18-.56.39-.79.65-2.81,2.24-4.58,3.3-5.21,3.83-.64.51-.19.42,1.11-.11.08-.03.11-.03.16-.04,2.62-1.87,4.32-2.99,5.95-4.23.81-.62,1.6-1.28,2.41-2.13.8-.86,1.65-1.9,2.39-3.38.62-1.22,1.16-2.75,1.33-4.11.19-1.35.14-2.49.23-2.89.38,1.84.2,4.06-.14,4.61-.29.54-.61,1.24-.97,2.02-.38.76-.83,1.59-1.36,2.35-1.92,2.67-4.33,4.78-6.88,6.65-1.28.93-2.61,1.79-3.96,2.62-.68.41-1.36.82-2.04,1.23-.7.39-1.41.79-2.12,1.18-4.08,2.21-8.45,3.93-12.89,5.44-4.45,1.51-8.98,2.8-13.52,3.98-1.8.5-4.67,1.26-4.89.92,1.01-.5,2.72-.9,4.63-1.25,2.32-.39,3.83-.91,5.18-1.51,2.35-.52,4.7-1.13,6.85-2.09Zm10.39-4.82c.09.09.78,0,2.43-.86,1.59-.86,3.8-2.29,3.82-2.46.05-.31-1.86,1.04-2.63,1.38-1.42.81-3.9,1.65-3.61,1.94Zm5.24-1.51c1.07-.54,2.86-1.64,2.83-1.86-.02-.12-.74.19-1.81.82-1.19.65-2.29,1.39-3.84,2.19,1.23-.42,1.99-.72,2.83-1.15Zm-6.61,2.33l-.64.26h.1c.47-.19.49-.22.54-.26Z"/><path d="m311.48,1.13c-2.84.08-5.04-.03-8.23-.31-2.31-.2-4.92-.3-7.6-.34-2.68,0-5.45-.02-8.08-.02-2.64-.02-5.45-.31-7.92-.03l-.03.54c.58.26,2.07.68.29.74-5.27.19-4.57,1.2-8.22,1.59,1.94,0,3.66-.09,5.18-.27.19,0,.36-.02.5-.04.21-.24-.62-.58,1.49-.67,1.65-.06,2.83.07,3.07.38l.27.08-.25-.08c-2.44-.22-2.53.36-4.55.3-.13.03-.18.06-.15.1,2.31.6,5.14.1,7.67.23,3.24-.51,6.65-.42,10.09.12,1.03.16,1.7.37,2.86.08,1.78-.46,4.35-.21,6.83.04,3.55-.3,1.94-.84,1.09-1.36-.22-.13-.96-.33.29-.38,1.07-.04,1.69.11,2.12.27l1.26.02c-.65-.43,2.72-.53,2.04-.96Z"/><path d="m72.53,66.3c2.19.58,4.48,1.16,7.58,1.29,3.9-.02,7.97.39,12.28,1.26.85-.14,2.4-.02,3.79.03l2.29.37c-.26-.19-.65-.53-.76-.54-4.22-.32-6.98-1.25-11.04-1.67-2.95-.29-5.64-.67-6.37-1.33-.02-.02-.32-.06-.48-.1-.56,0-1.13-.02-1.69-.03.41.69-2.55.22-4.81-.14-7.41-1.21-14.92-2.07-22.33-3.92-4.46-1.11-4.72-1.07-2.44-1.25.69-.07,1.17-.2,1.74-.31-4.28-.76-9.09-2.25-12.64-2.56.77.27,1.51.56,2.33.81,1.34.39,3.39.48,3.88,1.02.21.22-2-.02-3.4-.19-.74-.1-2.09-.51-3.16-.79-.9-.22-1.86-.56-2.33-.52-.62.04.28.42,1.17.8,1.41.57,1.7,1.03,3.98,1.64,2.78,1.1,5.93,2.07,9.79,2.66,4.47.38,9.58,1.31,14.74,2.15-.05-.16.21-.3,1.15-.15,1.64.27.56.35.89.54,2.26-.18,4.6-.48,5.83.92Z"/><path d="m430.62,40.88c-.3.23-.61.45-.92.66l-.39.33-.4.32c-2.81,2.24-4.58,3.3-5.21,3.83-.64.51-.19.42,1.11-.11.08-.03.11-.03.16-.04,2.62-1.87,4.32-2.99,5.95-4.23.81-.62,1.6-1.28,2.41-2.13.8-.86,1.65-1.9,2.39-3.38.62-1.22,1.16-2.75,1.33-4.11.19-1.35.14-2.49.23-2.89-.23-1.01-.67-2.39-1.36-3.54-.3-.6-.71-1.11-1.03-1.58-.37-.44-.7-.81-.97-1.06.99,1.6-.31.28-.98-.39-1.95-2.01-.6-.95-.78-1.34-.04-.08.04-.04.07-.06-1.38-1.75-4.6-3.66-6.59-4.99-1.32-.68-2.48-1.3-3.43-1.92-.5.14-4.03-1.65-6.64-2.64-1.25-.48-2.19-.79-2.31-.76-.19.02,1.44.59,1.93.84.85.46,1.46.79,2.44,1.32.83.41,2.61,1.41,2.25.94-.04-.05.33.06.66.21,1.01.43,3.92,1.91,6.51,3.73,2.64,1.76,4.79,3.97,5.22,4.56.73.99,1.73,2.19,2.51,3.6.79,1.4,1.33,3.05,1.35,4.57,0,.63-.03,1.4-.2,2.19-.17.79-.42,1.59-.74,2.3-.59,1.38-.79,1.36-.96,1.52l-.19-.1c-.41.6-.84,1.18-1.31,1.73.21-.08.33.03-.57,1.12-.15.24-.23.44-.49.71-.83.84-.91.77-1.07.82Z"/><path d="m261.53,3.08l-.07-.22c-.92-.43-1.64-.86-2.79-1.27-2.46-.87-6.97-.95-10.65-.22-.46.09-.69.24-1.25.28-2.1.18-2.23.82-.14,1.05q.87.1,1.37-.31c.23-.19.17-.44,1.75-.46.49,0,1.02.22,1.54.34,2.98.14,2.79.59,3.46.96-3.41.24-6.89.21-10.4.1,1.44-.61-2-.71-3.64-1l-1.77.38-3.58.22c-.05-.05-.07-.1-.04-.15,2.18-.69-1.22-1.24-1.12-1.87l2.17-.04s0,.07.12.08c1.54.19,1.26.82,3.14.69,2.77-.19-.33-.62.19-.95l1.29-.43c5.25,0,10.62-.15,15.75.15h2.23s.09.37.09.37l-.47.1.62-.07h1.4c.72.02,1.72.2,1.7-.1l2.27-.17-.31.06-.34-.06c1.55.43,5.41.4,6.5,1.1.51.33,5.39-.24,8.04-.49.44-.04.72-.12,1.08-.18.58.26,2.07.68.29.74-5.27.19-4.57,1.2-8.22,1.59-3.51.21-6.9.16-10.15-.21Zm-14.98-2c-.1-.1-.35-.2-.54-.3-.15.05-.42.11-.42.16,0,.08.16.17.28.28.33-.06.71-.1.68-.13Z"/><path d="m93.51,9.35c2.02-.27,2.18-.52,2.08-.77l-1.9.15-1.46.19c-3.65.27-7.19.52-11.02,1.24-1.56.3-3.83.61-5.74.66-2.08.07-5.98.59-6.64.73-6.89,1.62-13.67,2.37-20.4,3.29-2.47.35-3.96.9-5.96,1.33-5.12,1.02-10.21,2.22-15.27,3.61-5.06,1.4-10.09,3-14.96,5.28-1.02.48-2.12.94-2.6,1.46.18.62,2.81-.67,5.03-1.77.49-.26.93-.48,1.35-.68.42-.17.82-.32,1.2-.46.76-.27,1.47-.47,2.27-.67.64-.5,2.07-.88,3.27-1.31l1.12-.54c1.14.04,2.68-.27,4.37-.72,1.69-.43,3.54-.93,5.25-1.33,1.33-.29,4.34-1.23,3.59-.35-.18.2,3.9-.98,3.99-1.16.17-.43,1.29-.63,2.81-.94.33-.24.72-.32,1.14-.22,2.03-.53,4.46-1.26,3.73-.37.56-.1,1.12-.2,1.69-.3,1.71-.58,3.5-1.13,6-1.22,1.96-.75,3.85-1.63,6.6-1.12l3.25-.44c.64-.54,2.84-.71,4.59-.96,2.57-.38,2.16,0,2.37.22,2.88-1.06,5.89-1.21,8.91-1.16.61-.28,1.13-.71,1.84-.8,2-.26,1.07.33,2.69.26.23-.55,3.43-.51,4.51-.88l2.32-.24Z"/><path d="m214.86.92c-1.61-.29-3.39-.43-5.77-.02,1.37.26,2.71.55,1.11.96-1.26.31-2.24-.14-3.6.02-1.81-.54-2.82-.14-4,.22-1.34.41-2.66.53-3.6.07-3.22.25-2.71.69-3.27,1.07.5.4,3.1.43,4.38.7,2.16.31,5.01.3,7.71.03,2.03-.2,3.79-.25,5.75-.21,1.99-.28-.1-.9,3.36-1,2.56-.08,2.15.36,2.55.64l2.27-.09c-.17-.27-.48-.53-.45-.8.02-.18,1.07-.26,2.05-.28.85-.01,1.5.08,1.01.22-.72.2-2.71.41-.6.57.53.04,2.37-.33,3.61-.52.39-.07.6-.24,1.4-.09l-1.43.09c.88.74,3.71.52,6.69.29.91-.63-3.63-.89-3.32-1.47-4.9.43-4.85-.06-4.49-.62-1.97.14-3.59-.22-5.62,0,.31.63-1.86,1.23-5.25,1.25-4.71.02,1.5-.61-.13-.87-.23-.04-.27-.1-.39-.16Z"/><path d="m196.25,74.13l1.85.03,3.58-.13,1.32-.02s-.07-.09-.11-.14c-.78-.07-1.16-.15-.5-.25.09-.02.42-.02.52-.01,1.01.1-.06.18-.07.27,1.87.04,3.25-.04,4.12-.28,2.77-.76,7.15-.11,7.06.08-.28.59,2.68.57,4.82.71,2.7-.21,5.38-.42,8.12-.63,1.2-.09,3.51-.04,2.85-.35-.54-.26-3.05-.05-3.69-.12-1.97-.23-5,.52-6.1-.13-1.5-.04-3.27-.03-3.49-.33-1.26,0-2.6.02-3.41-.17-2.77-.06-5.55-.1-8.29-.2-5.43-.18-10.13.4-15.62.06v.37c1.34.01,2.74,0,3.44.25-.09.21-.14.42-2.2.4l.96.5,4.82.09Z"/><path d="m143.24,4.74c.7.03,1.17.15.48.26-5.42.84-2.71,1.12-.1,1.41l2.1-.19-.08-.54-.27-.06.25.06c1.92.06,6.04-.64,5.77.17,3.16-.27,6.08.23,9.57-.52.5-.11,2.72-.02,2.85.27l3.34-.12c1.43-.53,5.63-.94,4.79-1.57-.04-.03.72-.13,1.11-.19,2.54.95,3.51-.45,5.47-.37-.01-.06-.01-.12-.02-.18-5.77-.69-7.09.3-9.07,1.03l-.43.07.46-.07c-1.15-.02-3.26.02-3.31-.07-.65-1.32-4.78-.22-8.15.07-3.52.3-7.56.83-10.71.46-1.54-.05-1.34-.54-4.01-.3l-.04.39Z"/><path d="m325.04,2.96l-2.09-.27c-5.12-.32-5.03-.91-4.47-1.52-1.68-.28-1.61.08-2.44.1,1.49.9-1.05,1.55-5.71,1.52,1.06.47,1.13.91-.04,1.31,1.16.48,2.16.2,3.19.07-.68-.12-.84-.27.08-.26,1.26,0,1.05.21,1.17.35,2.69.7,6.69.46,9.58.54,4.72.16,9.86.63,14.35.36l-.02-.26-3.27-.24c-1.05.29-1.97.08-2.9-.11l-3.88-.52c-.29.24-.54.49-2.64.37-1.42-.08-2.22-.29-2.89-.51-1.56-.52.6-.69,1.99-.93Z"/><path d="m220.04,73.16c1.1.65,4.14-.11,6.1.13.63.08,3.14-.13,3.69.12.66.31-1.65.26-2.85.35-2.74.21-5.42.42-8.12.63l.98.28h1.32c3.65-.47,8.3-.24,12.41-.41.98-.19.74-.37.25-.57-.84-.34.42-.52,3.07-.54l.05-.16c.04-.22.82-.33,2.44-.32.33,0,.66-.02.97-.04-.33-.15-1.84-.28.11-.45l-.1-.16c-6.48,0-12.96-.12-19.48.14,1.04.36,2.97.72-.86,1.01Z"/><path d="m126.84,71.77c1.34.08,1.17.76,3.6.4,1.82-.28,3.48.38,5.27.34.54-.62,2.95-.36,5.48.03,2.14.33,3.93.31,5.57.17,1.7-.14,2.45-.37.68-.75-2.39-.16-4.58-.49-7.15-.5-8.02-.03-8.9-.1-15.27-1.06-.15-.02-.46-.06-.5-.06-3.31.41-8.2-.87-11.56-.59.29.32.3.66,2.54.99.09-.21.63-.2,2.16-.05,3.24.33,6.28.67,9.17,1.09Z"/><path d="m220.04,73.16c3.84-.29,1.91-.65.86-1.01-2.53-.17-4.22-.49-7.84-.04-2.61.33-7.82-.07-12-.07-5.61-.03-11.51.01-17.18-.35-2.48-.16-4.13-.17-3.87.29.26.45,2.27.48,4.52.46l4.68.07c5.48.34,10.19-.24,15.62-.06,2.74.1,5.53.15,8.29.2.67-.07,1.42-.22,1.99-.2,1.26.03,1.38.21,1.42.37.23.3,2,.29,3.49.33Z"/><path d="m169.44,4.2c1.98-.74,3.29-1.73,9.07-1.03l4.56-.47c1.2-.21,2.46-.42,2.13-.69-2.18-.33-4.93.14-7.29.27-8.97.49-17.96.78-26.97,1.67-2.4.24-2.73.44-3.64.71,3.15.37,7.19-.16,10.71-.46,3.38-.29,7.5-1.39,8.15-.07.05.1,2.16.05,3.28.07Z"/><path d="m50.3,59.97c-.57.1-1.05.24-1.74.31-2.28.17-2.02.14,2.44,1.25,7.4,1.85,14.92,2.72,22.33,3.92,2.26.36,5.22.83,4.81.14-4.13-1.23-8.74-1.77-13.83-2.26-3.29-.3-5.74-.9-5-1.46-3.31-.29-5.92-1.29-9-1.89Z"/><path d="m112.96,69.75c3.37-.29,8.26,1,11.56.59.04,0,.34.03.5.06,6.37.96,7.25,1.03,15.27,1.06,2.57.02,4.76.35,7.15.5-.99-.6-2.07-1.19-5.99-1.66l-2.9.17c-1.08.29-2.72.17-5.03-.04-2.82-.21-6.23-.46-8.67-.64-4.92-.43-9.34-.19-14-.95l1.18.82c.31.03.62.07.92.1Z"/><path d="m170.69,72.01c-1.5.46-2.71.92,3.21,1.15,1.91.08.7.25.55.39-2.93.24-6.14-.06-8.22-.35-5.27-.73-6.48-.34-7.64.23h-1.09c-3.46-.45-9.16-.87-3.71-1.48.98-.11.97-.4,1.42-.61,2.99.12,5.99.24,8.97.36,1.93.08,3.39.11,3.6-.21l3.33.16c-.13.13-.09.27-.43.38Zm-9.56.12c-.12-.02-.31-.03-.6.02.16.01.33.03.6-.02Z"/><path d="m424.87,9.68c.78.46,2.67.85,4.34,1.29,1.67.43,3.11.91,2.99,1.27-.06.18-.71.2-1.47.19-.77,0-1.65,0-2.2.08-1.15.18-5.57-.81-9.13-1.47-1.6-.32-3.11-.72-4.71-.97-1.55-.23-3.43-.78-4.61-.6-1.25.18,3.06.53,2.23.81,5.17,1.26,11.83,1.69,16.92,3.78,1.6.65,1.38.04,2.72.38,1.35.2-4.31-1.92.47-.58.88,0,2.39.28,3.63.52,1.23.23,2.22.42,2.08-.08-.96-.52-2.23-1.05-2.84-1.39-1.5-.83-1.18-1.82-5.64-2.21-.02,0-.39-.16-.86-.36-.48-.19-1.07-.42-1.53-.57-2.73-.84-5.4-1.3-7.8-1.4.67.85,3.89.71,5.41,1.3Z"/><path d="m438.17,16.75c1.17.63,1.88,1.25,2.3,1.79.47.7,1.31,1.54,1.81,2.48.11.23.22.45.34.67.04.21.19.43.2.62.03.19.11.39.09.56,0,.09.03.18.03.28-.02.09-.03.18-.03.28-.07.68-.5,1.51-.97,2.13-.45.64-.84,1.13-.81,1.42.02.27.19.39.54.35.34-.06.91-.19,1.55-.68.16-.12.35-.24.53-.39.16-.17.34-.35.52-.55.2-.19.35-.43.51-.7.16-.26.33-.54.42-.89.49-1.31.2-3.16-.9-4.59-1.03-1.41-2.51-2.99-4.11-4.1-1.01-.38-1.41-.28-1.31,0,.1.27.66.81,1.5,1.51,1.64,1.47,3.17,2.67,4.11,4.01.08.13.21.38.35.69.09.32.2.72.21,1.09.02.76-.26,1.36-.4,1.18-.13-.14-.36.13-.58.26-.25.13-.42.15-.39-.26-.1-.52-.06-.73-.39-1.91-.49-1.25-.95-1.9-.85-2.21.02-.15.03-.32-.16-.6-.17-.3-.56-.72-1.36-1.32-1.6-1.14-2.62-1.39-2.75-1.1Z"/><path d="m110.86,68.83c4.66.76,9.08.52,14,.95,2.44.18,5.85.43,8.67.64,2.31.21,3.95.32,5.03.04-3.91-1.06-9.85-.98-14.73-1.37-7.28-.58-14.76-.81-21.79-2.04l-.61.17c1.03.36,4.69,1.02-.95.59-1.85-.15-2.92.04.25.46,3.36.18,5.87-.29,10.13.55Z"/><path d="m135.65,7.92c-.12-.59-1.63-.75-5.01-.1-2.49.47-4.12.52-6.17.38-2.09-.15-5.54.81-7.55.41-4.81.98-10.17,1-15.25,1.6-1.73.21-2.71.35-3.48.66,4.72,0,9.78-.46,15.22-1.05,3.47-.37,7-.73,10.81-.83,3.32-.09,7.57-.7,11.42-1.06Z"/><path d="m356.92,5.92l-2.46-.14-3.62-.68c-.52-.03-1.03-.06-1.55-.1-1.69.05-3.38.09-5.07.14,2.93,1.09,8.87,1.08,13.13,1.33,8.45.56,17.01.86,25.52,1.29l2.28-.02c-3.78-.96-7.9-1.27-12.41-1-3.63-.04-7.48.06-9.49-.97l-1.64-.09-1.17-.03c0,.14.05.2.1.26.11.05.23.11.35.16l-.81-.11-3.16-.04Z"/><path d="m261.3,71.82c3.24-.04,6.48-.03,9.75-.32,2.59-.12,5.07-.18,7,0,1.74-.09,2.62-.13,3.49-.18,4.15-.15,8.16-.61,12.58-.62,2.3,0,3.49-.51,4.15-.84-12.48.57-24.96,1.14-37.44,1.71l.47.26Z"/><path d="m174.46,73.54c-2.93.24-6.14-.06-8.22-.35-5.27-.73-6.48-.34-7.64.23,8.69.52,17.4,1.1,26.11.8,2.11-.07,3.41.3,5.12.29,2.36-.02,5.98.23,6.43-.37l-4.82-.09-7.92-.29-9.05-.19Z"/><path d="m347.02,66.6c-.09.22.69.43-2.94.76-2.26.21-4.18.52-3.75.82,9.3-.81,18.61-1.83,28.14-3.76l-.08-.17-.35-.09c-.18.04-.36.07-.56.1-1.59.35-3.17.7-3.68.47-.28.05-.58.1-.87.14l-3.4.4c-.47.33-1.62.55-3.45.64-2,.25-4.03.85-5.88.82-.61,0,.28-.27,1.25-.47l.07-.12-1.13-.11c-2.02.01-2.15.4-3.37.56Z"/><path d="m157.51,73.41c-3.46-.44-9.16-.86-3.71-1.48.98-.11.97-.4,1.42-.61-1.65-.13-1.09-.29-1.19-.43l-2.22-.06c.67.39-2.2.41-2.3.72l1.48.15c-.11.02-.32.04-.33.05-.41-.06-.8-.12-1.19-.19-1.96-.32-.73-.58-1.13-.88-2.22-.53-4.5-.7-6.89-.39,3.92.48,5,1.06,5.99,1.66,1.77.39,1.01.61-.68.75-1.64.14-3.42.16-5.57-.17-2.53-.39-4.94-.65-5.48-.03,5.72.43,11.58.45,17.23.99,2.23.21,3.41.09,4.57-.09Z"/><path d="m100.73,68.28c-3.16-.42-2.09-.6-.25-.46,5.64.42,1.98-.23.95-.59-1,.23-2.73-.19-4.09-.28.13.24-.94.44-1.76.26-4.06-.88-7.05-.5-10.62-.99-1.94.06-2.02-.21-2.14-.44-1.9-.53-2.41-.34-3-.18.17.03.46.08.49.1.73.66,3.41,1.04,6.37,1.33,4.06.42,6.82,1.35,11.04,1.67.1,0,.5.35.76.54l4.38.75,2.32.41.32-.46c-4.99-.54-5.23-1.11-4.76-1.66Z"/><path d="m40.13,60.17c-2.28-.61-2.57-1.07-3.98-1.64-.89-.38-1.79-.76-1.17-.8.48-.04,1.43.3,2.33.52,1.07.28,2.42.69,3.16.79,1.4.17,3.6.41,3.4.19-.5-.54-2.54-.63-3.88-1.02-.82-.24-1.56-.54-2.33-.81-.96-.55-1.95-.59-2.93-.86-1.67-.35-3.46-.74-3.08-.28,1.5,1.73-3.56.15-8.08-1.4.46.45,2.84,1.18,2.92,1.55,3.77,1.08,7.17,2.57,11.05,3.59,2.76.71,2.23.3,2.6.16Z"/><path d="m84.96,66.23c3.57.48,6.56.11,10.62.99.82.18,1.89-.03,1.76-.26-7.17-.79-14.3-1.57-21.46-2.44-3.59-.43-7.33-1.08-10.84-1.78-2.12-.41-3.86-.64-5.75-.88-.74.56,1.71,1.17,5,1.46,5.1.49,9.7,1.03,13.83,2.26.57,0,1.13.02,1.69.03.59-.15,1.1-.34,2.99.18l2.14.44Z"/><path d="m174.46,73.54l9.05.19.1-.33c-1.23-.04-2.32-.11-2.12-.32.2-.2,1.45-.17,2.57-.14.42-.15.45-.33.49-.5-2.25.03-4.26,0-4.52-.46-2.88-.26-5.86-.36-8.91-.36-.13.13-.09.27-.43.38-1.5.46-2.71.92,3.21,1.15,1.91.08.7.25.55.39Z"/><path d="m183.07,2.7l-4.56.47v.19s.26.06.26.06l-.24-.06c-1.96-.08-2.93,1.32-5.47.37-.39.07-1.15.16-1.11.19.85.63-3.36,1.04-4.79,1.57.25.2,1.27.11,2.18.06,1.18-.37,3.09-.37,4.78-.49,1.25.05,1.99-.75,2.69-.26.74.52,2.79.05,3.95.13,1.97-.47,2.89-.3,3.59-.01,1.19,0,2.61.29,3.31-.26l.49-.32c-1.39-.06-2.1-.32-4.05-.19-1.34-.04-.84-.29-.97-.46-6.08-.03.77-.7-.07-.98Z"/><path d="m364.92,63.19c1.93-.1,4.17-.29,6.01-.35,3.79-.09,10.67-1.66,13.46-2.93-2.73.6-5.77,1.23-3.94.38-5.27.95-10.56,1.78-15.53,2.9Z"/><path d="m183.13,3.68c-6.08-.03.77-.7-.07-.98,1.2-.21,2.46-.42,2.13-.69,3.46-.26,7.1-.96,10.27-.39.16.03.21.07.15.11-4.53.77-4.85,1.62-4.56,2.45l-2.91.16c-1.39-.06-2.1-.32-4.04-.19.12-.2.14-.39-.97-.46Zm3.59-.82c-.74-.05-1.42.15-1.18.24.47.18-1.82.73,1.66.52,1.73-.19,1.58-.31.31-.41-.24-.12-.24-.32-.8-.35Z"/><path d="m103.66,7.86c1.06-.09,1.97.18,3.14-.25,2.6-.94,2.91-.36,3.8-.18.8-.02,1.83.03,2.38-.05,2.11-.35,4.1-.73,5.7-.39,1.32.27-.47.64-1.74,1.01-2.26.66-4.04.62-5.93.47-1.18-.09-3.14.01-4.07.27-3.2.86-4.69.48-6.65.43,1.12-.43,2.25-.87,3.37-1.31Zm12.72-.48s-.4.06-.42.08c-.04.05.02.09.05.14l.88-.15c-.16-.03-.31-.05-.5-.07Z"/><path d="m325.23,69.54c-4.59.46-9.43.67-13.53,1.44-1.04.19-2.51.16-3.55.15-1.88-.01-3.15.14-4.15.43,3.91.19,8.61-.35,13-.81,5.69-.59,11.07-.6,16.79-1.51.83-.14,1.85-.25,2.22-.41-1.2-.17-3.18-.03-5.44.37-2.73.5-4.04.47-5.33.33Z"/><path d="m438.17,16.75c.13-.29,1.16-.03,2.75,1.1.8.61,1.19,1.02,1.36,1.32.19.28.18.45.16.6-.1.31.36.97.85,2.21.33,1.18.28,1.39.39,1.91-.03.41.14.39.39.26.22-.13.44-.4.58-.26.14.17.42-.42.4-1.18,0-.37-.12-.76-.21-1.09-.14-.31-.27-.56-.35-.69-.94-1.34-2.47-2.53-4.11-4.01-.83-.7-1.39-1.24-1.5-1.51-.1-.27.3-.37,1.31,0-.6-.54-1.28-.94-2.06-1.14.14.5-.84.31-2.08.08-1.24-.24-2.75-.52-3.63-.52,1.06.55,2.02,1.07,1.98,1.37,1.29.48,2.58.91,3.77,1.52Z"/><path d="m82.16,11.02c-3.03-.06-6.03.1-8.92,1.16-1.67.77-7.04,1.4-7.88,2.25l.49.55c1.97-.1,3.73-.4,5.3-.87.24-.15-.51-.21.66-.43l.41.28c.33,0,.69-.05,1.07-.12,4.59-.74,3.53-1.59,7.75-2.31.94-.2,1.17-.36,1.13-.52Z"/><path d="m219.84,74.67l-.98-.28c-2.14-.15-5.1-.13-4.82-.71.09-.19-4.29-.84-7.06-.08-.87.24-2.25.32-4.12.28.08.04.12.09.15.13l-.09.49c5.58.24,11.1.62,16.93.17Z"/><path d="m273.36,73.57c.43-.42-2.04-.42-4.05-.4-4.33,0-9.35-.06-13.14.29-2.62.25-4.39.3-6.94.35-1.55.03-.68.3-.81.46,5.45-.01,10.76.04,16.48-.43,2.47-.2,5.62-.17,8.45-.27Z"/><path d="m145.71,6.22l-2.1.19c-1.1.34-2.63.68-2.35,1.03,5.68-.14,11.71-1.01,17.48-.83,2.33.08,2.99-.7,5.07-1-.13-.29-2.35-.38-2.85-.27-3.49.75-6.41.25-9.57.52-1.97,1.24-3.77.09-5.68.36Z"/><path d="m50.43,15.7c-.56.1-1.13.2-1.69.3-.97.6-.93.58.86.38.79-.1,1.84-.17,2.03-.09.66.28-2.49.73-2.95,1.09l2.42-.07,3.7-.52c2.45-.67,4.91-1.26,7.37-1.89-5.19.26-5.12.09.86-1.56-2.75-.51-4.64.37-6.6,1.12-1.98.42-2.78,1.57-6,1.22Z"/><path d="m23.57,54.87c4.53,1.55,9.58,3.13,8.08,1.4-.38-.46,1.41-.07,3.08.28-.32-.73-2.76-.99-4.1-1.51-1.15.2-2.03.67-6.99-1.65-.82-.39-2.18-.88-2.61-.81-.45.08.57.55,1.67,1.01l.49.14-.44-.12.82,1.26Z"/><path d="m195.47,1.61c.16.03.21.07.15.11.51.27,4.04-.05,3.4.44.94.46,2.26.34,3.6-.07,1.18-.36,2.19-.75,4-.22,1.36-.16,2.34.3,3.6-.02,1.6-.4.26-.69-1.11-.96-4.62.1-9.54-.29-13.63.71Z"/><path d="m263.99.54c1.55.43,5.41.4,6.5,1.1.51.33,5.39-.24,8.04-.49.44-.04.72-.12,1.08-.18l.03-.54c-4.08-.47-7.9.22-11.94-.04l-2.98.05c-.39,0-.64.04-.74.1Z"/><path d="m345.76,65.71c.8.1,3.77-.05,6.94-.31,3.17-.28,6.55-.66,8.17-1,3.2-.64,1.1-.64,1.71-.97-2.04.36-4.08.84-6.06.85-.43,0-1.87.16-1.95.19-2.55.82-5.92.81-8.8,1.24Z"/><path d="m424.87,9.68c-1.52-.59-4.74-.45-5.41-1.3-1.56-.61-3.21-.66-4.84-.75-2.75.14-6.99-.6-10.17-.52.61.37.49.7,3.9.7,2.06,0,5.01.42,7.54.75l1.44-.02.43.18-1.78-.13c2.06.45-4.51.6,3.19,1.26.32-.23-.62-.82,2.41-.32.66-.14,3.37.57,3.3.16Z"/><path d="m275.64,73.07c-.06.08.34.16-.64.22,6.91-.22,14.21-.1,20.12-1.38l-.17-.17-4.51.27c-4.92.38-9.85.73-14.81,1.06Z"/><path d="m404.45,7.1c3.18-.07,7.42.67,10.17.52-.29-.64-2.86-.5-4.15-.68-2.47-.38-5-.58-7.49-.73-2.51-.15-5.03-.26-7.51-.37.93,1.11,5.85.88,8.99,1.25Z"/><path d="m322.92,2.12c3.55.19,7.57.1,9.91.93.89.32,2.21.21,2.44-.07.16-.2-.11-.45,1.4-.51.51-.57-2.48-.52-4.06-.61-3.55-.2-7.16-.33-10.75-.49.28.25-.63.49,1.05.73Z"/><path d="m304.68,3.53c-2.47-.24-5.04-.5-6.83-.04-1.16.3-1.83.08-2.86-.08-3.44-.54-6.85-.63-10.09-.12,3.2.58,7.21.56,11.12.58,2.88.02,5.74.04,8.61.06l.04-.41Z"/><path d="m7.34,31.47c.19-.37.71-1,.63-1.12-.04-.06-.23.01-.69.31-.45.3-1.18.84-2.12,1.83-1.89,2.09-2.59,3.09-3.13,4.52-.13.36-.27.42-.36.7-.09.27-.2.81.27,1.96.41.91.73,1.15.87,1.17.15,0,.18-.24.23-.46.09-.41.25-.67.42-.97-.58-1.45-.46-2.94.36-4.31.79-1.38,2.1-2.58,3.52-3.63Z"/><path d="m226.26.7c-.37.56-.41,1.05,4.49.62l3.43-.4,2.17-.04c.92-.2,2.21-.18,3.45-.18l1.29-.43c.1-.38-1.42-.25-2.62-.2-4.08.19-8.14.39-12.2.63Z"/><path d="m51.1,17.32l-2.42.07c-3.15.64-6.39,1.74-9.21,1.62-.72-.02-2.66.69-2.52.72.6.13-3.69,1.22-.58.82,4.84-1.27,10.32-1.62,14.73-3.22Z"/><path d="m227.4,2.5c-1.24.18-3.09.56-3.61.52-2.11-.15-.12-.36.6-.57.49-.14-.16-.23-1.01-.22-.98.02-2.03.1-2.05.28-.03.27.29.53.45.8,4.12.46,8.79.21,13.42.1l.14-.47c-.05-.05-.07-.1-.04-.15h-1.24c-2.98.22-5.82.45-6.66-.29Z"/><path d="m81.03,11.54c-4.22.72-3.16,1.57-7.75,2.31,2.41.13,4.86.22,7.87-.89.33-.17.53-.42,1.02-.5,7.44-1.14,1.9-.8.12-.88-.17.15.05.29-1.28.45l.23-.34c-.08-.05-.14-.1-.2-.15Z"/><path d="m11.72,49.98c-.74-.79-2.24-2.08-4.12-2.94-1.8-.83-4.05-2.6-5.6-4.99-.77-1.18-1.31-2.56-1.49-3.86-.22-1.32,0-2.45-.02-3.3-.73,1.84-.62,4.11.16,5.84.78,1.74,1.94,3.07,3.15,4.2,2.45,2.23,5.18,3.75,7.92,5.05Z"/><path d="m102.85,69.99l-4.38-.75-2.29-.37c-.03.43-1.94.19-3.79-.03-4.3-.87-8.38-1.27-12.28-1.26.34.23,1.51.55,2.31.6,6.63.36,13.96,1.82,20.43,1.8Z"/><path d="m404.34,9.68c-.17-.62-.9-1.12-5.28-.92-3.26.15-7.28-.99-10.44-.6,4.64,1.17,10.37,1.14,15.72,1.52Z"/><path d="m247.31,72.07c1.53.49,4.53.78,7.82,1.01-.66-.5,1.03-.97,3.26-1.42-2.3-.2-4.36.08-6.48.22-1.13.44-2.99.2-4.61.19Z"/><path d="m355.69,3.24c3.92.91,12.16,1.42,17.16.91-4.86-.64-9.8-.65-14.7-.93-.14.36-1.34.17-2.46.02Z"/><path d="m126.3,6.59c1.32-.13,2.22-.29,2.17-.53h-1.46s-.34-.18-.34-.18l1.08-.02.91.16c1.36-.11,1.99-.28,2.09-.5-4.15.25-7.79-.06-12.35.69.46.63,4.32.36,6.9.45.33-.02.67-.04,1-.06Z"/><path d="m64.66,64.98c-5.16-.85-10.26-1.77-14.74-2.15,1.66.67,3.26,1.12,5.9,1.29,3.34.22,7.35,1.26,11,1.68l-.15-.42c-.66-.13-1.34-.25-2.02-.38Z"/><path d="m310.32,2.8c4.66.04,7.2-.62,5.71-1.52l-4.55-.15c.68.43-2.69.53-2.04.96,1.32.23.76.47.88.71Z"/><path d="m62.17,14.91c-2.46.63-4.92,1.22-7.37,1.89,3.82-.33,7.59-.7,11.05-1.82l-.49-.55-3.19.49Z"/><path d="m191.06,4.18l-2.91.16-.49.32c4.24-.1,8.56,0,12.47-.71-1.28-.27-3.88-.3-4.38-.7-.81.11-1.5.2-2.19.29-.17.27-.27.53-2.5.64Z"/><path d="m304.68,3.53l-.04.41,5.64.16c1.17-.4,1.1-.84.04-1.31-2.75-.12-2.09-.44-2.14-.73-.43-.16-1.05-.31-2.12-.27-1.25.05-.51.24-.29.38.85.52,2.47,1.06-1.09,1.36Z"/><path d="m143.24,4.74l.04-.39c-3.86.24-8.13,0-11.34,1.05.6.3-.2,1.08,4.03.03,1.84-.46,5.1-.17,7.27-.7Z"/><path d="m105.49,69.94l-.32.46c4.36.73,8.35.72,12.43.84l-2.09-.5c-2.24-.33-2.25-.66-2.54-.99-.3-.03-.61-.06-.92-.1-.06.64-.79,1.16-6.55.29Z"/><path d="m155.22,71.32c2.99.12,5.99.24,8.97.36,1.93.08,3.39.11,3.6-.21-3.98-.56-8.43-.33-12.58-.64-.02.16-.03.33,0,.5Z"/><path d="m115.51,70.74l2.09.5c3.22.47,6.55,1.1,9.24.53-2.89-.42-5.93-.76-9.17-1.09-1.54-.15-2.07-.16-2.16.05Z"/><path d="m214.86.92c.13.05.17.12.39.16,1.63.26-4.58.89.13.87,3.39-.02,5.56-.62,5.25-1.25-1.99-.06-4.12-.3-5.77.23Z"/><path d="m325.23,69.54c1.29.14,2.6.17,5.33-.33,2.26-.41,4.24-.54,5.44-.37.79-.12,1.82-.21,2.1-.37-.67-.07-1.34-.15-2.02-.22-3.53.28-7.01.76-10.52,1.1l-.34.2Z"/><path d="m380.44,60.29c-1.83.85,1.21.22,3.94-.38,2.03-.36,3.27-.78,4.08-1.15l-.12-.29c-2.56.69-5.14,1.3-7.9,1.82Z"/><path d="m233.58,74.26c-4.11.18-8.76-.05-12.41.42,4.13.38,8.26-.08,12.39-.1l.02-.32Z"/><path d="m22.53,24.43c-.49-.55-1.82-.25-3.29.42-.74.32-1.53.71-2.29,1.07-.76.38-1.47.76-2.11,1.01.28.19-.31.81,2.68-.62,1.53-.66,3.3-1.33,5.01-1.88Z"/><path d="m219.5,3.4c-.41-.27,0-.72-2.55-.64-3.45.11-1.37.72-3.36,1,2.77.44,3.95-.24,5.91-.37Z"/><path d="m344.22,5.13c1.69-.05,3.38-.09,5.07-.14-3.18-.22-3.35-.65-3.79-1.06-.25-.24-.99-.46-2.51-.53-.57-.03-1.46.02-1.64.09-.51.21.72.32,1.69.46,3.49.51-2.85.59.18,1.09.32.04.65.07,1,.09Z"/><path d="m386.75,60.52c-2.18.63-5.33.48-6.91,1.54,1.03.25,1.04.26,6.91-1.54Z"/><path d="m251.27,2.28c2.98.14,2.79.59,3.46.96,2.34.02,4.9.29,6.8-.16l-.07-.22c-1.68-.1-4.62.09-4.89-.28-.6-.82-2.99-.47-5.3-.29Z"/><path d="m244.33,3.34c1.44-.61-2-.71-3.64-1l-1.77.38-1.39.78c2.33.08,4.38-.4,6.8-.16Z"/><path d="m12.72,48l.25-.46c-1.77-1.11-3.46-2.28-5.34-3.48-.08.12-.33.13-.25.35.08.21.47.64,1.78,1.48,1.99,1.24,2.88,1.86,2.62,2.16.98.39.78.06.94-.05Z"/><path d="m258.4,71.65c-2.24.45-3.93.92-3.26,1.42,2.31-.41,5.7-.73,6.17-1.26l-.47-.26-2.44.09Z"/><path d="m322.92,2.12c-1.68-.24-.77-.49-1.05-.73l-3.4-.21c-.56.61-.65,1.2,4.47,1.52l-.03-.58Z"/><path d="m66.69,65.37l.15.42c2.18.34,4.07.5,5.7.5-1.22-1.4-3.57-1.1-5.84-.93Z"/><path d="m318.57,68.41c0,.09-.21.21.01.27.64.18-2.57.87.94.59,3.1-.26.39-.42.82-.67.12-.07,1.15-.19,1.76-.29-.77-.1-1.46-.22-3.53.1Z"/><path d="m247.31,72.07c1.61.01,3.47.25,4.61-.19l-2.49-.03c-.94.04-1.74.03-2.18-.09l-4.6.22.96.15,3.69-.06Z"/><path d="m432.25,21.15s-.11-.02-.07.06c.18.39-1.18-.66.78,1.34.66.67,1.96,1.99.98.39-.54-.62-1.09-1.23-1.68-1.79Z"/><path d="m149.52,71.55c.09-.31,2.97-.33,2.3-.72l-3.47-.15c.4.29-.82.55,1.17.87Z"/><path d="m434.4,15.23c.04-.3-.92-.82-1.98-1.37-4.78-1.33.89.78-.47.58.19.11.45.22.79.32l1.39.47c.29.1.38.1.27,0Z"/><path d="m262.39.71l2.27-.17c-1-.42-3.76-.32-5.47-.5l-.13.37.09.38c.61.02,1.08.02,1.54.01.17-.21.94-.15,1.7-.09Z"/><path d="m26.48,56.42c-.07-.37-2.46-1.1-3.07-1.57l-1.76-.5,1.29.75c1.1.53,2.27.97,3.54,1.32Z"/><path d="m184.35,4.91c-.69-.29-1.61-.46-3.59.01.96.13,1.38.62,3.59-.01Z"/><path d="m201.69,74.02l-3.58.13c-.17.43,1.81.36,3.57.32v-.45Z"/><path d="m174.12,5.06c-1.69.12-3.61.12-4.78.49,2.46.25,3.75-.06,4.78-.49Z"/><path d="m422.23,14.23c.95.62,2.1,1.24,3.43,1.92-1.07-.67-1.56-1.34-3.43-1.92Z"/><path d="m243.62,72.13l-.96-.15-2.27.04.1.16c1.03.16,2.07.16,3.13-.05Z"/><path d="m277.24,3.07s.03-.07.15-.1c-.16.02-.33.04-.53.04-.1.13-.21.27-.32.4l.7-.35Z"/><path d="m247.25,71.76c.44.12,1.24.13,2.18.09.02-.26-.72-.29-2.18-.09Z"/><path d="m314.71,4.27c-.12-.14.09-.34-1.17-.35-.92,0-.75.15-.08.26l1.24.09Z"/><path d="m259.05.4l.13-.37c-1.17.06-1.98.18-2.35.37h2.23Z"/><path d="m264.73.44l2.98-.05c-1.25-.25-2.25-.24-2.98.05Z"/><path d="m155.17,71.31l.05-.49c-.75-.07-1.14-.04-1.18.07.1.15-.46.31,1.14.42Z"/><path d="m72.21,13.96l-.41-.28c-1.17.22-.42.29-.66.43.36-.02.72-.07,1.07-.15Z"/><path d="m355.69,3.24c1.12.15,2.31.34,2.46-.02-1.03-.1-2.05-.21-2.46.02Z"/><path d="m325.57,69.34c3.51-.34,6.98-.82,10.52-1.1,1.22-.14,1.75-.28,1.84-.43l.11-.42c-1.94.18-2.6.14-1.93-.15.31-.14.75-.31-.53-.2-.38.03-.97.12-1.46.2-.5.08-.9.16-.89.18.3.55-4.85,1.07-6.82,1.61-.4.11-.57.21-.84.31Z"/><path d="m398.33,57.35c2.35-.52,4.7-1.13,6.85-2.09-3.86,1.2-.86-.25-3.6.49-1.46.39-2.94.71-4.41,1.05.63.11,3.03-.3,1.16.55Z"/><path d="m278.05,71.49c-1.92-.17-4.41-.11-7,0,.09.17-.27.39.37.48.85.12-2.54.52.55.41,2.14-.07,1.71-.31,1.47-.49-.11-.09-.14-.4,1.27-.16,2.57.45,2.01-.29,3.35-.25Z"/><path d="m359.53,65.28l3.4-.4c.42-.21,3.29-.78.71-.55-2.72.24-3.6.62-4.11.95Z"/><path d="m351.45,66.27c-.98.2-1.86.46-1.25.47,1.85.03,3.88-.57,5.88-.82-.23-.34-2.82.16-4.63.35Z"/><path d="m290.44,72.01l4.51-.27c-.26-.24-1.69-.28-3.49-.14-1.39.1-.92.27-1.02.41Z"/><path d="m240.37,72.63c-.31.02-.64.03-.97.04l-.13.29c1.37-.05,3.06-.01,3.67-.29l-2.57-.05Z"/><path d="m363.81,64.74c.51.23,2.09-.12,3.68-.47l-.16-.24c-1.19.24-2.36.47-3.52.71Z"/><path d="m341.98,66.41c-.25,0-.48,0-.71.01l-.63.2c.29-.02.64-.03.86-.06.22-.03.32-.1.48-.15Z"/><path d="m281.54,71.31l-2.63.13c.34.06.59.19,1.03.18,1.28-.03,1.25-.19,1.6-.31Z"/><path d="m350.39,66.03l1.13.11c1.68-.42.34-.28-1.13-.11Z"/><path d="m367.33,64.03c.6-.11,1.5-.23,1.47-.34,0-.02-.45,0-.67.04-1.03.17-.72.22-.8.3Z"/><path d="m338.03,67.4l-.11.42c1.44-.29,1.55-.43.11-.42Z"/><path d="m307.16,69.97c.03.06.21.05.36.04-.03-.06-.21-.05-.36-.04Z"/><path d="m236.95,72.99l-.05.16,2.34-.19c-.75,0-1.52.02-2.29.03Z"/><path d="m346.99,66.6l-.26-.02c.1,0,.19,0,.26.02Z"/><path d="m368.05,64.16l.35.09c.96-.24.75-.25-.35-.09Z"/><path d="m325.04,2.96c-1.39.24-3.55.41-1.99.93.67.22,1.47.43,2.89.51,2.1.12,2.35-.14,2.64-.37-1.08-.34-1.61-.66-.66-.97.43-.14.34-.3-.9-.37-1.49-.09-1.73.1-1.97.27Z"/><path d="m421.57,9.52c-3.02-.5-2.09.09-2.41.32,1.11.22,2.69.39,2.78.78.04.19,1.07.62,2.06.77,1.01.15,1.98.16,2.38.05.66-.16-1.3-.48-1.89-.69-1.15-.42-1.96-.84-2.92-1.23Z"/><path d="m363.26,5.76c2.01,1.02,5.86.93,9.49.97-2.62-.65-5.61-1.08-9.49-.97Z"/><path d="m360.44,5.65l1.17.03c.2-.04.33-.1.61-.11,2.19-.09,3.66-.25,1.44-.8-.58-.14-2.19-.36-1.92-.16.62.47-6.55.2-1.29,1.04Z"/><path d="m335.35,4.67l3.27.24c.05-.25,2.8-.47-.1-.75-2.14-.21-3.66.06-3.17.5Z"/><path d="m350.85,5.09l3.62.68c-.08-.22,1.9-.35.24-.63-1.32-.22-2.76-.2-3.86-.05Z"/><path d="m414.5,9.31c-.65-.16-1.03-.3-1.42-.34-.42-.06-.83-.02-1.25-.03.34.1.65.23,1.03.28.4.06.87.05,1.63.09Z"/><path d="m356.92,5.92l3.16.04c.15-.02.3-.03.46-.05l-.13-.19c-1.42-.03-3.49-.21-3.49.2Z"/><path d="m332.45,4.56c.93.2,1.85.41,2.82.12l-2.82-.12Z"/><path d="m407.6,9.46c-.32-.07-.48-.06-.64-.05.11.03.23.05.64.05Z"/><path d="m22.75,21.63c-1.21.43-2.64.81-3.27,1.31-.34.73-4.12,1.67-5.38,2.68-.48.34-2.51.64-3.09,1.42-.35.46,1.44-.23,2.6-.5,1.19-.28,2.03-.66,3.5-1.44.93-.48,1.94-.98,2.97-1.37,1.04-.35,2.1-.58,3.07-.59,1.16-.03,3.01-.82,4.12-1.27,1.92-.79.28-.47-.93-.3-1.91.25-3.79.61-3.59.05Z"/><path d="m12.72,48c-.16.11.03.44-.94.05-.34.09-2.77-1.3-1.75-.33.36.35,1.27,1.01,1.93,1.34,2.2,1.1.91.04,1.47.11.31.04.57.03,1.01.15.85.24,3.21,1.2,2.44.59-.89-.69-2.71-1.08-4.16-1.92Z"/><path d="m5.49,44.06c-.15-.19-.3-.37-.45-.55-.2-.11-.4-.22-.59-.35.18.24.41.48.59.65.16.14.29.17.44.25Z"/><path d="m43.87,16.59l1.11-.22c-.36.07-.75.15-1.11.22Z"/><path d="m434.26,36.6c.17-.15.36-.13.96-1.52-.16.15-.49.78-.96,1.52Z"/><path d="m93.51,9.35l-2.32.24c0,.23.57.51-.13.69-1.23.3-2.34.54-1.89.77.22.12.9-.02,1.17-.12.97-.36,4.32-.65,3.37-1.06-.31-.14-.15-.34-.2-.52Z"/><path d="m100.28,9.17c-.73-.09-.8-.35-2.43-.2-.23.02-.78.22-.71.27.35.26,1.91.03,3.14-.07Z"/><path d="m126.3,6.59c-.33.02-.67.04-1,.06.01.14-.19.32,1.12.23l-.12-.29Z"/><path d="m81.23,11.69l-.23.34c1.33-.16,1.12-.3,1.28-.45l-1.06.12Z"/><path d="m86.69,10.48l.43.19c1.07-.27-.05-.17-.43-.19Z"/><path d="m401.58,55.75c2.74-.74-.27.7,3.6-.49,1.4-.47,2.35-.89,3.05-1.24,1.45-.78,3.23-1.7.31-.88-4.62,1.15-4.62,1.79-6.96,2.61Z"/><path d="m419.19,48.49c-1.42.81-3.9,1.65-3.61,1.94.09.09.78,0,2.43-.86,1.59-.86,3.8-2.29,3.82-2.46.05-.31-1.86,1.04-2.63,1.38Z"/><path d="m417.99,50.08c1.23-.42,1.99-.72,2.83-1.15,1.07-.54,2.86-1.64,2.83-1.86-.02-.12-.74.19-1.81.82-1.19.65-2.29,1.39-3.84,2.19Z"/><path d="m430.62,40.88c.16-.05.24.03,1.07-.82.25-.27.33-.47.49-.71-.5.53-1.02,1.04-1.56,1.52Z"/><path d="m413.67,51.52c.33-.18.11-.1-.1-.01h.1Z"/><path d="m428.92,42.19l.4-.32.39-.33c-.29.18-.56.39-.79.65Z"/><path d="m281.91,2.68c-.23-.31-1.41-.44-3.07-.38-2.1.08-1.28.42-1.49.67,2.05.07,2.13-.51,4.55-.29Z"/><path d="m308.18,2.07c.05.28-.61.61,2.18.74-.16-.24.4-.48-.92-.71l-1.26-.02Z"/><path d="m281.93,2.68l.25.08c-.09-.03-.18-.05-.25-.08Z"/><path d="m64.66,64.98l2.04.39c-.34-.19.75-.27-.89-.54-.93-.16-1.19,0-1.15.15Z"/><path d="m92.39,68.84c1.86.22,3.76.46,3.79.03-1.39-.05-2.94-.17-3.79-.03Z"/><path d="m251.27,2.28c2.31-.17,4.7-.52,5.3.29.27.37,3.21.18,4.89.28-.92-.43-1.64-.86-2.79-1.27-2.46-.87-6.97-.95-10.65-.22-.46.09-.69.24-1.25.28-2.1.18-2.23.82-.14,1.05q.87.1,1.37-.31c.23-.19.17-.44,1.75-.46.49,0,1.02.22,1.54.34Z"/><path d="m234.06,2.78h1.24c2.18-.69-1.22-1.23-1.13-1.87l-3.43.4c-.32.58,4.22.84,3.32,1.47Z"/><path d="m239.79.69c-1.24,0-2.53-.02-3.45.18.04.03,0,.07.12.08,1.54.19,1.26.82,3.14.69,2.77-.19-.33-.62.19-.95Z"/><path d="m245.87,1.21c.33-.06.71-.1.68-.13-.1-.1-.35-.2-.54-.3-.15.05-.42.11-.42.16,0,.08.16.17.28.28Z"/><path d="m262.39.71c-.75-.06-1.52-.12-1.7.09.72.03,1.72.21,1.7-.09Z"/><path d="m259.15.78l-.47.1c.21-.02.41-.05.47-.1Z"/><path d="m62.17,14.91l3.19-.49c.85-.85,6.21-1.48,7.88-2.25-.21-.22.2-.6-2.37-.22,1.14.2-.71.62-1.87.89-1.42.34-2.15.18-2.72.07l-3.25.44c-5.98,1.65-6.06,1.81-.86,1.56Z"/><path d="m66.28,12.92c.57.11,1.29.27,2.72-.07,1.17-.27,3.01-.69,1.87-.89-1.75.25-3.95.42-4.59.96Z"/><path d="m50.43,15.7c3.22.35,4.02-.8,6-1.22-2.5.09-4.29.63-6,1.22Z"/><path d="m43.85,16.6l1.16-.23c-.42-.1-.8-.02-1.16.23Z"/><path d="m191.06,4.18c2.24-.11,2.33-.37,2.5-.64-.35-.35.82-.32,2.07-.27.69-.4.17-.84,3.39-1.09.64-.49-2.88-.17-3.4-.44-4.52.77-4.85,1.62-4.56,2.45Z"/><path d="m227.37,2.49l1.43-.09c-.81-.15-1.01.02-1.43.09Z"/><path d="m184.45,72.96c-.55.13-.7.29-.85.44,2.3.04,4.58.09,6.87.13,2.06.03,2.11-.19,2.2-.4-1.23-.06-2.73-.02-3.45-.25l-4.76.08Z"/><path d="m216.55,72.83c-.04-.16-.16-.34-1.42-.37-.57-.01-1.32.13-1.99.2.81.19,2.15.17,3.41.17Z"/><path d="m189.21,72.88c.72.23,2.23.19,3.45.25-.7-.24-2.1-.24-3.45-.25Z"/><path d="m202.85,73.88c0-.09,1.08-.17.07-.27-.11-.01-.43,0-.52.01-.66.11-.28.19.46.26Z"/><path d="m145.71,6.22c1.9-.28,3.7.87,5.68-.36.27-.81-3.85-.12-5.77-.17.04.18.07.36.09.54Z"/><path d="m169.47,4.2l-.46.07c.14-.02.29-.04.46-.07Z"/><path d="m145.62,5.69l-.25-.06c.09.02.18.04.25.06Z"/><path d="m236.95,72.99l2.31-.02.13-.29c-1.62,0-2.4.1-2.44.32Z"/><path d="m105.49,69.94c5.76.87,6.49.35,6.55-.29l-1.18-.82c-4.26-.84-6.77-.37-10.13-.55-.47.55-.23,1.12,4.76,1.66Z"/><path d="m160.53,72.14l.49.04c0-.08-.21-.09-.49-.04Z"/><path d="m360.08,5.96l.81.11c-.12-.05-.23-.11-.35-.16-.15.02-.31.03-.46.05Z"/><path d="m149.48,71.56c.39.06.79.12,1.19.19,0,0,.21-.03.33-.05-.49-.05-.99-.09-1.52-.14Z"/><path d="m84.96,66.23l-2.14-.44c.12.24.2.5,2.14.44Z"/><path d="m183.59,73.4c.15-.15.3-.31.46-.46-1.12-.03-2.37-.06-2.57.14-.2.21.89.28,2.11.32Z"/><path d="m184.1,4.14c.12-.2.14-.39-.97-.46.13.17-.37.42.97.46Z"/><path d="m178.52,3.35l.24.06c-.08-.02-.17-.04-.24-.06Z"/><path d="m187.52,3.21c-.24-.12-.24-.32-.8-.35-.74-.05-1.42.15-1.18.24.47.18-1.82.73,1.67.52.11-.14.21-.27.31-.41Z"/><path d="m187.52,3.21c-.1.14-.21.27-.31.41,1.73-.19,1.58-.31.31-.41Z"/><path d="m116.88,7.45c-.16-.03-.31-.05-.5-.07-.02,0-.4.06-.42.08-.04.05.02.09.05.14l.88-.15Z"/><path d="m22.74,53.61l.44.12c-.16-.05-.33-.1-.44-.12Z"/><path d="m415.97,8.57l1.78.13-.43-.18c-.48,0-.96.01-1.36.05Z"/><path d="m127.01,6.05h1.46c-.11-.09-.41-.14-.72-.2l-.75.2Z"/><path d="m195.63,3.26c-1.25-.05-2.42-.08-2.07.27l2.07-.27Z"/>
                  </g>
                </mask>
              </defs>
              <path class="mask" d="m441.36,27.49c6.68-3.85,3.11-9.56-4.94-12.93-9.61-4.02-22.51-5.71-30.34-6.35C274.89-2.49,183.38,3.7,183.38,3.7c-23.85,1.15-136.4,6.86-170.34,23.02-3.06,1.46-10.12,4.91-11.1,9.73C0,46.08,23.82,53.77,33.41,56.86c68.47,22.09,330.3,24.54,388.04-9.21,4.85-2.83,17.59-10.28,14.58-19.77-3.99-12.6-33.05-20.44-41.98-22.68"
                    mask="url(#path-mask)" stroke="black" stroke-width="2" fill="none"
                    stroke-dasharray="967.8855590820312" stroke-dashoffset="967.8855590820312">
              </path>
            </svg>
        