
            <svg xmlns="http://www.w3.org/2000/svg">
              <defs>
                <mask id="path-mask">
                  <g fill="white">
                    <path d="m113.27,80.29c5.25.38,1.93-.05,2.98-.07l3.77.35c3.08.32,6.69.64,9.62.97,6.01.76,17.36,1.13,22.21,1.11,3.32.16,5.42.17,6.83.13,4.42.23,11,.29,14.41.52.93.15,4.82.34,1.56.44-2.35.04-4.91.11-8.68-.13-3.12-.18-5.95-.26-7.71-.2l-2.93-.1c-3.64-.01-8.54-.73-11.39-.5-1.14-.06-3.23-.18-3.27-.18-2.88.2-9.58-.41-15.38-.85l-.08-.09c1.59.08,1.27.03-.52-.1-.29-.02-.59-.04-.91-.06l-.18-.13c.99.06,2.44.18,2.42.12,0,0-.18-.03-.4-.05-.22-.02-.49-.04-.67-.06-1.67-.11-1.2-.04-1.38-.02-1.91-.12-3.83-.21-5.75-.36-.47-.04-.94-.07-1.42-.11.71,0,5.42.32,1.28-.09-4.38-.44-5.87-.46-6.78-.43-.84.04-2.71-.1-5.64-.46-.27-.19-4.5-.55-7.43-.87l.15-.04c2.77.2.61-.04-1.76-.3-3.2-.46-3.51-.33-5.53-.55l-.41-.07.46.07c-.2.07.99.34-4.84-.38-3.63-.46-6.74-.83-6.13-.59l-3.6-.45-3.13-.61c1.96.26,2.83.34,3,.3,2.36.25,2.56.22.27-.14-3.12-.43-4.14-.62-3.01-.56.53.03,1.26.07-.8-.22-.6-.08-1.56-.2-2.36-.31-.4-.05-.77-.09-1.03-.12-.26-.03-.42-.04-.42-.04.17.15-1.81-.06-4.23-.37-.61-.08-1.24-.16-1.88-.24-.63-.12-1.26-.24-1.87-.36-1.21-.23-2.32-.45-3.12-.6-.65-.12-.93-.15-1.38-.22l-.58-.06c-7.25-1.71-14.73-3.99-21.12-6.05-1.62-.51-3.82-1.44-5.35-2.13-2.77-1.26-4.61-2.17-6.12-2.88-2.11-1.16-4.14-2.47-6.04-3.97-1.9-1.49-3.65-3.21-5-5.26l-.07-.27c-.09-.38-1.51-2.41-1.59-5.43.01-1.15.11-1.53.1-1.65,0-.12-.07.02-.08-.07.36-2.04,1.5-3.84,2.81-5.38,1.36-1.51,2.95-2.8,4.64-3.93,3.36-2.3,7.09-4.05,10.94-5.68l-.32.11c.09-.07-.52.14.94-.47.4-.21.54-.32,2.46-1.05-.62.4,3.13-.99,6.22-1.95,6.66-2.13,14.52-4.13,20.45-5.63,4.12-1,6.88-1.73,10.92-2.54,2.44-.51,1.06-.33,1.25-.44,7.82-1.7,15.7-3.09,23.59-4.45l-.02.12c-1.55.34-1.16.34-.38.28,1.34-.1-.65.31-4.87,1.03l-3.71.7c-2.22.42-4.89.91-5.85,1.19l4.08-.74c.53-.04,2.93-.44-.16.2-1.63.25-3.29.55-4.97.95-1.95.36-3.9.76-5.84,1.18-1.22.15-3.02.45-5.16.82-2.14.39-4.62.92-7.22,1.45-3.63.94-8.91,2.43-9.61,2.83-5.06,1.33-10.09,2.76-15.06,4.55-.14-.02.38-.3-.59,0-1.31.39,3.85-1.53-.86.13-3.25,1.18-2.57,1.07-2.2.99.17-.03.24.08-1.9.78-1.94.68-2.69,1.02-3.34,1.37-.66.35-1.26.66-2.85,1.44-.5.21-.88.32-1.5.67-1.82.96-1.76,1.03-2.22,1.35-2.84,1.71-5.59,3.67-7.51,6.39-.93,1.35-1.66,2.91-1.8,4.59-.11.84-.02,1.68.12,2.53.2.83.45,1.67.85,2.45.8,1.65,1.78,2.71,2.53,3.47.77.77,1.39,1.21,1.83,1.54,2.03,1.79,4.3,3.3,6.67,4.63,2.37,1.34,4.83,2.51,7.35,3.56,5.04,2.09,10.27,3.72,15.51,5.27-.04.03-.38-.03-.05.1.94.37-4.16-.92,1.3.66,4.84,1.34.71.03,1.43.14.21.03,1.82.46,2.79.69,2.25.55,4.54,1.09,6.87,1.61,2.34.5,4.67,1.07,7.08,1.35,4.8.69,9.66,1.37,14.43,1.98,2.78.36,7.31.75,9.5,1.19,1.25.23,5.99.88,11.09,1.47,5.1.6,10.55,1.13,13.21,1.32Zm-31.61-3.58l-1.04-.08c.47.06,1.02.14,1.39.19.36.04.53.04.79.06-.39-.06-.76-.12-1.13-.17Zm-52.93-12.45c-.19-.08-.45-.2-.68-.31.02.04.29.15.68.31Z"/><path d="m123.27,3.75c12.24-1.02,24.35-1.53,36.53-2.16,1.65.26,9.52-.33,14.61-.48,1.03.06.91.19,6.35-.11,3.29-.17,8.07-.29,12.3-.39,3.4-.03-7.04.58,5.39.14,1.82-.02,4.38-.11,4.64.01.13.06,1.9.11,3.52.07,1.66-.04,3.18-.13,3.77-.19.97-.11-2.22-.04-3.22-.05-1.96-.06-3.36-.1-5-.15.99-.11,5.47-.1,5.22-.23,2.75.13,12.38-.11,12.37.15,0,.13-3.89.25-5.55.43-1.72.17-9.13.25-15.02.34-2.65.03-5.18.06-7.82.09-2.55.06-5.68.03-7.54.2-1.99.17,5.04-.09,3.75.07-4.04.2-8.29.39-12.99.49-.36-.18-1.61-.3-8.62.2-5.22.39-11.83.45-16.86.94l-1.94.11-3.68.15c-6.2.13-12.85.52-20.05,1.26-4.29.17-9.13.47-15.34,1.22l-2.64.27c.31-.05.51-.09.96-.15,3.5-.43,5.82-.76,2.2-.53-.95.06-3.55.29-3.1.3,1.06,0-10.44,1.4-1.98.62-2.27.29-5.61.64-5.55.78-1.32.15-2.63.34-3.94.5-.15-.06,2.99-.55.3-.26-2.13.23-4.43.55-6.15.9l-2.48.36c-5.09.75-5.42.72-6.17.69-.43,0-1.64.11-4.06.57-.9.17-2.31.47-2.58.55-.78.23,1.18-.12,2.73-.39,2.8-.45,1.69-.19.49.09-1.2.29-2.48.6-.05.2-1.18.37-4.3.91-7.21,1.52l-.06-.08c.03-.11,4.34-1.1-.27-.2-3.4.69-5.76,1.3-5.04,1.3l-4.43,1.04c-2.06.42-4.1.91-6.14,1.41-1.73.35-2.61.47-1.18-.03.66-.23.48-.24-1.46.26-2.33.61-2.67.79-3.02.94l-3.28.84-.13-.17c2.77-.76,5.7-1.6,8.43-2.29,1.37-.34,2.68-.67,3.88-.97,1.21-.26,2.32-.48,3.27-.64,1.45-.24,3.5-.79,3.81-.95.23-.12-.23-.11,2.13-.65,9.69-2.27,19.83-3.97,30.28-5.17,3.19-.28,8.1-.8,13.21-1.3,5.1-.52,10.41-1.06,14.39-1.47ZM188.54.98c-.67.03-1.33.06-2,.09.57,0,1.08.02,1.71,0,.65-.03,1.41-.06,2.63-.11-1.07,0-1.72,0-2.34,0Z"/><path d="m452.34,54.59c4.22-2.21,6.06-3.41,8.03-4.87.49-.36.6-.41.94-.68.32-.28.96-.73,2.05-2.33.83-1.32.92-1.94.94-2.07,0-.14-.17.14-.33.38-.27.47-.57.64-.83.94.92-1.53,1.38-3.33.94-5.03-.41-1.71-1.5-3.22-2.77-4.52.03-.05.29.13.11-.13-.2-.23-.78-.99-2.83-2.48-3.15-2.17-4.76-2.91-4.55-3.01.21.06,1.31.62,2.1,1.06.79.44,1.3.71.37.08-.64-.45-2.19-1.37-3.25-1.88-3.56-1.7-1.26-.44-2.07-.75-.45-.16-.8-.28-1.48-.52-1.31-.53-5.18-1.95-3.76-1.31,1.63.72,4.43,1.68,6.84,2.9l-.09.18c-4.77-2.33-9.74-4.06-14.7-5.56-4.98-1.48-9.97-2.71-14.96-3.82.84.07,1.54.08,3.1.37,1.55.29,3.98.78,8.21,2,1.4.41,3.66,1.03,4.25,1.12.64.09-1.1-.45-3.03-1-.59-.29-1.19-.56-1.55-.78.95.22,1.89.47,2.83.71l-2.24-.72c6.78,1.66,13.03,3.81,18.5,6.69,1.38.84,4.1,2.42,6.75,4.3,1.26.91,2.71,2.15,3.88,3.85.57.85,1.07,1.82,1.32,2.89.26,1.06.28,2.21,0,3.26-.49,2.14-1.8,3.81-2.99,5.07-1.2,1.29-2.39,2.19-3.16,2.9-5.05,3.39-10.89,5.91-16.67,7.98.15-.31-4.29,1.24-8.03,2.41-3.33,1.07-5.35,1.58-7.9,2.2.83-.43,6.84-1.92,9.15-2.81.87-.32,3.93-1.07,5.18-1.69.77-.36-2.16.56-3.99,1.05-1.86.5-3.31.94-5.86,1.74-3.2,1.02-6.97,2.06-9.94,2.54-1.78.29-4.93,1.12-6.78,1.57-3.24.8-.59.28,1.32-.08,3.02-.57,6-1.19,5.48-.88l-1.89.52c-3.42.53-9.9,2.03-15.46,3.03-2.16.41-7.12,1.34-5.7.83.34-.12-6.38,1.14-6.56,1.24-.38.22-2.2.48-4.65.87l-1.81.28c-3.36.6-7.36,1.25-6.01.78,1.68-.4,1.62-.38-1.26-.03-1.26.16-2.95.35-3.23.35-.98-.01,4.12-.69,4.92-.9,2.57-.37,5.2-.86,7.74-1.26,2.54-.4,4.99-.76,7.18-1.02,1.13-.12,4.37-.79,4.16-.77-.91.06,6.15-1.22,1.15-.46.2-.11.75-.2,2.79-.57,6.67-1.2,13.37-2.49,20.04-4.27,1.08.31,8.49-2.04,12.76-3.37,4.96-1.55,8.54-2.98,13.6-5.1-.55.33-1.73.91-1.7.96.01.03.32-.08,1.16-.42.83-.36,2.18-.94,4.22-1.99Zm11.6-15.42c.18.31.33.63.47.96-.15-.45-.36-.95-.55-1.3-.16-.31-.3-.44-.45-.66.21.34.38.66.53,1Z"/><path d="m289.53,79.39c3.26-.33,6.88-.7,10.43-1.07,3.55-.37,7.04-.74,10.03-1.18,5.32-.4,13.42-1.57,19.71-2.35,1.79-.23,2.47-.33,3.75-.53,3.91-.61,4.83-1.12.5-.58-4.56.57-6,.69-7.17.73-1.22.04-3.47.21-7.79.94-.48.08-2.27.33-3.03.41-3.74.42-7.41.84-11.07,1.25-3.66.39-7.31.79-11,1.19-17,1.67-34.05,2.98-51.11,3.85l.05.12c1.44-.07,2.61-.14,2.94-.11,2.54-.16,5.56-.35,7.66-.49,5.05-.26,11.24-.87,15.24-.97,1.2-.01,6.13-.38,11.21-.74,5.08-.36,10.29-.88,12.05-1.06.58-.07,1.19-.15,1.1-.16-.86-.07,2.42-.3,3.91-.44,1.79-.13,2.89-.21,4.44-.32.88-.07,3.64-.4,3.38-.32-.16.05-1.74.25-3.88.49-4.46.52-10.78,1.09-11.34,1.33Z"/><path d="m265.86,83.36c4.46-.22,9.76-.42,12.69-.76-1.28.04-2.94.06-3.82.12-3.44.22-6.69.41-9.21.35-2.08-.06.83-.26,2.93-.44,3.71-.32,6.57-.38,9.6-.4,1.89-.02,5.04-.13,6.58-.27,5.25-.49,7.6-.42,10.73-.5,2-.12,4.53-.3,5.05-.22.1.02-.81.13-1.18.15-2.63.16-2.71.06-3.86.07l-5.61.67c3.72.1,8.53-.38,13.05-.73-.12-.09.17-.2,3.44-.42-.06-.06.23-.16-.25-.19-1.45-.09,3.96-.45,5.57-.65.44-.06,1.55-.16,1.89-.13.69.06-1.13.23-3.15.44-1.15.12-.28.19-.32.28,1.79-.23,6.91-.43,7.41-.67-.66.03-2.47.14-.71-.04l.66.04c2.61-.16,1.03.14,4.26-.12,1.14-.09,2.05-.31,3.07-.47-.05-.06.34-.14,1.89-.29-.08-.02-.18-.03-.29-.04l-1.71.13c-2.84.12-11.76.71.33-.35.79-.07,1.15-.18,1.71-.28-5.21.43-10.67.98-15.41,1.09-.58.03-7.57.69-12.26.97-1.28.16-2.87.29-5.69.45-8.23.5-16.85.75-24.72,1.27-3.17-.08-8.84.39-12.19.38-3.27,0-5.91.06-9.97.28-5.52.31-7.92.28-8.05.05l-9.1.25c.42.13-2.08.27-3.9.41,4.17.09,8.5.15-.31.53-1.13.05-.39.09.74.09,3.56-.21,8.77-.16,11.78-.35,6.92-.46,5.54-.16,6.48-.06l1.93-.06c.18-.08,1.22-.16,3.42-.23.25-.11,1.73-.19,3.86-.27l-.16-.11c2.12-.07,1.77,0,1.78.06,4.14-.02,10.37-.24,11.04-.02Z"/><path d="m186.19,83.89c2.36,0,4.04-.04,5.28-.09,2.62-.11,5.84-.22.95-.36-7.68-.22-8.02.11-12,.09l-7.32-.23c-3.41-.22-9.99-.29-14.41-.52l-.08-.15c4.24.14,9.15.2,12.31.36,3.99.23,8.15.26,12.82.3,18.4.02,36.89-.3,55.41-1.09.33.05.3.11-1.99.26l-3.56.15-1.84.03c-.56,0-1.11.02-1.67.07-11.7.4-13.32.49-8.87.61.14,0,.17.01.26.02,10.33-.43,13.1-.15,23.2-.7,4.2-.28,9.78-.61,10.92-.48-2.75.16-5.85.5-6.76.47-1.75-.07-4.64.22-7.45.32-10.04.47-19.85.8-30.18,1.04-14.71.39-29.9.15-44.96-.17-2.99-.09-7.77-.2-7.99-.4,1.77-.06,4.6.02,7.71.2,3.77.24,6.33.17,8.68.13,3.87.11,7.75.28,11.53.15Zm18.43-.46c.08.06,1.14.15,4.14.08,2.9-.07,7.16-.22,7.32-.31.32-.13-3.46.08-4.82.06-2.64.06-6.87,0-6.64.17Zm8.62.38c1.9-.01,5.28-.15,5.41-.24.07-.06-1.17-.08-3.19-.01-2.17.06-4.28.11-7.09.18,2.07.04,3.36.09,4.86.07Zm-11.18-.23h-1.11s.14.03.14.03c.83-.01.87-.02.97-.03Z"/><path d="m26.1,22.44c-4.29,1.61-7.66,2.85-12.33,5.13-3.36,1.68-7.11,3.86-10.16,7.17-1.52,1.63-2.75,3.67-3.32,5.93-.58,2.26-.29,4.71.62,6.74.88,2.06,2.25,3.91,3.77,5.52,1.53,1.61,3.2,3.01,4.86,4.15l.15-.13c-.71-.64-2.54-2.23-.23-.5,1.71,1.26,3.02,2.05,4.04,2.64,1.03.58,1.77.96,2.46,1.29,1.38.64,2.46,1.14,5.11,2.37-2.79-1.39-5.22-2.7-7.33-3.94-.27-.16-.5-.3-.69-.42-.31-.12.72.75-2.11-1.13-2.2-1.51-3.61-2.8-3.82-3.14l-.31-.31.28.29c1.45,1.32,2.3,1.88,3.06,2.41.78.51,1.49.97,2.85,1.85.17.1.25.14.22.1-3-2.16-6.8-4.74-9.28-7.94-.79-1-1.59-2.04-2.11-3.25-.32-.58-.47-1.22-.69-1.84-.12-.65-.29-1.29-.28-1.96-.07-.67.05-1.33.12-1.99.06-.33.17-.65.26-.97.08-.33.18-.65.34-.95.49-1.26,1.27-2.4,2.16-3.43,1.09-1.22,1.9-1.91,3.24-3.16,2.08-1.94,5.71-4.02,9.35-5.64,2.56-1.26,3.26-1.6,3.11-1.63-.14-.04-1.1.29-1.77.49-.35.11-1.48.54.36-.31,1.57-.71,2.53-1.04,3.21-1.26.63-.26,1.26-.5,1.9-.74-1.06.23,4.03-1.71,2.93-1.45Z"/><path d="m353.8,10.71c-3.59-.5-7.33-.94-12.31-1.33-6.22-.38-12.8-.93-19.81-1.66-1.34-.03-3.84-.18-6.08-.32l-3.72-.33c.44.1,1.12.27,1.28.28,6.81.45,11.37,1.08,17.93,1.61,4.77.42,9.13.81,10.4,1.16.04,0,.52.06.78.09.9.06,1.81.13,2.71.19-.77-.32,4.04.16,7.7.57,12.04,1.31,24.15,2.56,36.32,4.27,7.33,1.05,7.74,1.06,4.2.84-1.07-.06-1.79-.08-2.66-.1,6.99.87,15.05,2.2,20.69,2.9-1.31-.24-2.57-.47-3.92-.72-2.23-.37-5.46-.71-6.42-1.01-.39-.13,3.14.29,5.38.57,1.19.15,3.42.53,5.18.83,1.47.25,3.08.53,3.8.61.94.09-.59-.25-2.11-.54-2.38-.48-3-.73-6.72-1.33-4.68-.9-9.86-1.73-16.08-2.47-7.12-.73-15.42-1.73-23.78-2.68.1.07-.27.1-1.79-.07-2.66-.3-.95-.21-1.53-.32-3.55-.21-7.23-.32-9.44-1.03Z"/><path d="m233.6,82.6l-1.84.03-.83.04-.83.04c-11.7.4-13.32.49-8.87.61.14,0,.17.01.26.02,10.33-.43,13.1-.15,23.2-.7,4.2-.28,9.78-.61,10.92-.48,3.04-.26,8.48-.63,10.75-.9-2.91.1-.07-.26,1.46-.36,4.47-.31,1.76.01,2.39.05.13,0,0,.03-.01.05,3.43-.14,9.24-.78,13.08-1.02,2.35-.27,4.44-.47,6.24-.57.58-.25,6.91-.81,11.36-1.34,2.14-.24,3.72-.44,3.88-.49.26-.08-2.49.25-3.38.32-1.55.11-2.65.19-4.44.32-1.49.14-4.77.37-3.91.44.09,0-.52.09-1.1.16-1.76.18-6.97.69-12.05,1.06-5.08.36-10.02.73-11.21.74-4,.1-10.19.71-15.24.97-2.1.13-5.13.33-7.65.49-2.46.19-2.57.14-2.95.11l-.05-.12-3.62.15c.33.05.3.11-1.99.26-.45.05-.78.11-1.38.14-1.92.09-1.93.04-2.18.02Z"/><path d="m36.11,69.14l.09.11c1.34.64,2.42,1.14,4.16,1.81,3.72,1.43,10.84,3.13,16.74,3.94.73.1,1.11.11,2.01.26,3.35.53,3.61.35.3-.33q-1.38-.28-2.19-.28c-.38,0-.3.1-2.81-.39-.77-.15-1.61-.39-2.41-.61-4.7-1.05-4.34-1.19-5.37-1.55,5.36,1.19,10.87,2.25,16.45,3.25-2.34-.17,3.13.78,5.72,1.29l2.85.28c1.91.27,3.82.51,5.74.73.08.03.1.05.06.06-3.53-.22,1.87.7,1.68.9l-3.47-.45c-.06-.02,0-.03-.18-.06-2.44-.4-1.96-.58-4.97-.97-4.44-.59.48.3-.37.29l-2.09-.16c-8.37-1.33-16.92-2.81-24.94-5.02-1.16-.3-2.32-.63-3.48-.97l-.11-.17.74.19-.96-.26c-.73-.22-1.45-.44-2.16-.68-1.1-.37-2.6-1-2.6-.88-1.15-.4-2.3-.81-3.45-1.24l.48.17.51.22c-1.16-.51-3.16-1.39-5.08-2.23-1.91-.87-3.71-1.76-4.45-2.25-.35-.23-2.33-1.14-4.65-2.33-2.32-1.19-4.97-2.7-6.76-3.89-.59-.4-.99-.63-1.46-.95-.71-.64-2.54-2.23-.23-.5,1.71,1.26,3.02,2.05,4.04,2.64,1.03.58,1.77.96,2.46,1.29,1.38.64,2.46,1.14,5.11,2.37,5.09,2.44,10.15,4.5,15.04,6.38Zm23.28,6.38c.15.06.54.17.84.26.24.02.67.08.68.06.02-.03-.24-.1-.43-.18-.53-.07-1.14-.17-1.09-.15Z"/><path d="m306.23,80.97c-3.28.23-3.57.33-3.44.42l3.07-.17,2.36-.18c2.95-.19,5.84-.37,8.78-.56,2.94-.23,5.92-.47,9.04-.77,2.55-.23,6.22-.6,9.27-.79,3.34-.2,9.64-.86,10.71-.98,11.27-1.43,22.19-2.59,33-4.06,3.97-.52,6.44-1.05,9.69-1.55,16.54-2.64,33.07-5.82,49.1-10.93,1.72-.55,3.48-1.13,4.43-1.57.15-.31-4.29,1.24-8.03,2.41-3.33,1.07-5.35,1.58-7.9,2.2-1.16.4-3.45.97-5.44,1.45l-1.89.52c-3.42.53-9.9,2.03-15.46,3.03-2.16.41-7.12,1.34-5.7.83.34-.12-6.38,1.14-6.56,1.24-.38.22-2.2.48-4.65.87-.58.16-1.21.25-1.84.29-3.32.6-7.32,1.25-5.96.77-.91.13-1.82.25-2.74.38-2.84.51-5.78,1.03-9.77,1.38-3.27.58-6.44,1.22-10.71,1.33l-5.26.58c-1.12.31-4.65.59-7.49.89-4.16.43-3.44.24-3.74.17-4.79.67-9.61,1.08-14.44,1.28-1.02.16-1.93.37-3.07.47-3.23.27-1.66-.04-4.26.12-.45.24-5.57.44-7.36.66l-3.75.26Z"/><path d="m110.1,82c2.57.33,5.41.64,9.26.81-2.18-.27-4.31-.57-1.72-.49,2.05.06,3.58.33,5.79.45,2.86.42,4.52.37,6.45.38,2.19.01,4.33.08,5.8.34,5.2.23,4.41,0,5.35-.08-.77-.18-4.96-.43-7-.66-3.45-.32-8.04-.62-12.41-.88-3.29-.17-6.12-.42-9.27-.7-3.21-.18.09.35-5.47-.13-4.12-.38-3.42-.47-4.06-.63l-3.66-.32c.25.12.74.26.67.35-.04.06-1.73-.07-3.3-.24-1.37-.14-2.4-.29-1.61-.25,1.17.05,4.38.33,1-.1-.85-.11-3.83-.3-5.83-.45-.63-.04-.97-.03-2.25-.24l2.3.24c-1.35-.43-5.92-.88-10.7-1.43-.75.01.69.29,2.25.57,1.56.27,3.24.54,2.96.62,7.87.82,7.78.91,7.15,1.07,3.17.28,5.75.74,9.02.96-.45-.28,3.07-.13,8.53.37,7.57.65-2.46,0,.14.33.36.04.42.07.62.11Z"/><path d="m154.07,7.04l-2.98.26-5.75.56-2.12.2c.05.01.11.02.18.03,1.25-.1,1.87-.11.81.02-.15.02-.67.07-.84.09-1.63.13.09-.08.09-.11-3,.29-5.21.54-6.6.77-2.21.36-5.07.69-7.37.92-2.3.22-4.03.34-3.96.29.42-.29-4.32.29-7.76.68-4.32.59-8.58,1.32-12.96,2-1.91.3-5.6.87-4.53.82.88-.04,4.87-.74,5.89-.83,3.15-.34,7.97-1.34,9.77-1.29,2.4-.28,5.23-.64,5.61-.58,2.02-.27,4.17-.51,5.48-.58,2.22-.24,4.45-.48,6.67-.72,2.23-.21,4.45-.42,6.65-.63,8.73-.8,16.27-1.64,25.11-2.17v-.14c-2.17.15-4.44.34-5.57.33.13-.09.2-.18,3.52-.43l-1.58-.07-7.77.57Z"/><path d="m225.75,84.4c-1.13,0-1.87-.05-.74-.09,8.81-.37,4.48-.44.32-.53-1.13.03-2.27.06-3.4.09l.07.2.42.02-.4-.02c-3.09,0-9.79.27-9.28-.04-5.12.11-9.77-.08-15.47.16-.82.03-4.39-.02-4.57-.13h-5.4c-2.35.16-9.17.2-7.85.45.06.01-1.17.02-1.8.03-4-.43-5.7.05-8.85-.06.02.02.01.04,0,.07,9.24.48,11.44.14,14.7-.08h.71s-.75,0-.75,0c.93.01,2.24.04,3.33.05.55,0,1.04.01,1.39.02.36,0,.58.02.6.02.93.5,7.67.17,13.14.07,5.7-.09,12.27-.29,17.3-.17,2.48.01,2.11.19,6.42.08l.11-.14Z"/><path d="m47.28,16.52l-3.28.84c-7.98,2.21-7.92,2.04-7.15,1.57-2.64.71-2.47.79-3.74,1.21,2.44-.4-1.42.89-8.48,3.46,1.68-.45,1.85-.35.15.43,1.83-.51,3.3-1.12,4.85-1.69-1.05.32-1.33.36.08-.12,1.93-.64,1.63-.47,1.84-.48,4.22-1.14,10.37-3.05,14.86-4.3,7.35-2.05,15.42-4,22.47-5.56l-.06-.08-5.18,1.07c-1.6.48-3.08.78-4.56,1.07-2.06.42-4.1.91-6.14,1.41-.42.2-.77.37-4.05,1.24-2.21.6-3.49.89-4.55,1.12-2.49.54.83-.49,2.95-1.18Z"/><path d="m115.94,11.45c-1.8-.05-6.61.95-9.77,1.29-1.02.09-5.01.79-5.89.83-1.06.05,2.62-.52,4.53-.82,4.37-.68,8.64-1.4,12.96-2l-1.59.09-2.11.26c-2.91.49-6.22.98-9.63,1.47-3.4.54-6.89,1.08-10.17,1.6-1.55.34-1.16.34-.38.28,1.34-.1-.65.31-4.87,1.03l-.07.07c-.05.09-1.29.35-3.87.78-.53.1-1.04.2-1.54.3.53-.04,2.93-.44-.16.2l.16.03c10.3-1.85,20.64-3.38,31.06-4.87-1.69.09-4.79.36,1.34-.55Z"/><path d="m266.03,4.58c-2.17-.06-1.96-.33-5.83-.25-2.9.07-5.63-.19-8.51-.21-.82.23-4.72.11-8.83-.03-3.48-.14-6.35-.11-8.98-.03-2.72.08-3.92.18-1.04.31,3.87.01,7.42.14,11.57.15,12.93.04,14.35.11,24.69.65.25.01.74.03.8.04,2.64-.02,5.96.15,9.29.31,3.33.18,6.68.39,9.37.41-.51-.14-.56-.27-4.2-.52-.13.08-.99.05-3.47-.09-5.25-.27-10.17-.51-14.86-.75Z"/><path d="m115.94,11.45c-6.13.91-3.03.65-1.34.55,4.06-.42,6.77-.71,12.56-1.52,4.17-.62,12.55-1.36,19.27-1.96,9.03-.83,18.52-1.55,27.66-2,4.01-.19,6.67-.31,6.22-.47-.44-.14-3.68-.01-7.3.26-2.51.16-5.03.32-7.54.47-8.84.53-16.39,1.36-25.11,2.17-2.2.21-4.42.42-6.65.63-2.22.24-4.45.48-6.67.72-1.07.15-2.27.34-3.19.44-2.02.24-2.22.2-2.3.15-.38-.07-3.21.29-5.61.58Z"/><path d="m183.5,84.47c-3.26.22-5.46.57-14.7.08-2.47-.01-4.94-.03-7.4-.04-1.97.02-4.01,0-3.51.13,3.46.26,8,.22,11.8.26,14.5.19,29,.19,43.6-.15,3.89-.09,4.44-.17,5.93-.28-5.03-.12-11.6.08-17.3.17-5.47.09-12.21.43-13.14-.07-.02,0-.24-.02-.6-.02-.36,0-.85-.01-1.39-.02-1.09-.02-2.39-.04-3.29-.05Z"/><path d="m390.54,15.97c.88.03,1.59.04,2.66.1,3.54.22,3.13.21-4.2-.84-12.16-1.71-24.28-2.96-36.32-4.27-3.66-.41-8.47-.88-7.7-.57,6.81.91,14.28,1.66,22.5,2.46,5.3.51,9.33,1.07,8.28,1.2,5.33.51,9.73,1.26,14.77,1.91Z"/><path d="m288.56,5.94c-2.69-.02-6.04-.23-9.37-.41-3.33-.17-6.66-.33-9.29-.31-.06,0-.56-.02-.8-.04-10.35-.54-11.77-.61-24.69-.65-4.15-.01-7.7-.13-11.57-.15,1.64.24,3.43.4,9.79.61l4.66-.07c1.72-.13,4.36-.04,8.11.07,4.56.11,10.08.31,14.02.44,7.96.34,15.06.43,22.63,1l-1.99-.4c-.51-.03-1.01-.06-1.49-.08Z"/><path d="m195.35,5.29c2.38-.28,4.31-.56-5.25-.21-3.08.11-1.14-.05-.92-.11,2.35-.15,4.83-.26,7.13-.34,2.31-.05,4.45-.07,6.13-.08,8.54-.03,10.47-.17,12.3-.46l1.75-.04c5.61.06,14.83.07,6.08.47-1.58.07-1.54.19-2.25.28-4.83.03-9.68.15-14.49.23-3.12.08-5.47.15-5.79.29l-5.38.15c.21-.06.12-.11.67-.18Zm15.4-.58c.19,0,.51,0,.97-.03-.27,0-.53,0-.97.03Z"/><path d="m207.39.21c2.75.13,12.38-.11,12.37.15,0,.13-3.89.25-5.55.43-1.72.17-9.13.25-15.02.34-2.65.03-5.18.06-7.82.09-2.55.06-5.68.03-7.54.2-1.99.17,5.04-.09,3.75.07,8.66-.04,19.44-.44,28.41-.28,2.83.05,2.2-.12,4.48-.15,2.2-.07-7.68-.16.43-.22,2.72-.19,9.86-.23,8.78-.47-1.68-.04-3.87-.05-4.96-.09-2.72-.11-2.66-.42-9.58-.15-.07,0-2.5-.05-4.04-.08-4.52-.03-8.8.05-12.59.22,1.3.22,6.32-.1,8.87-.04Z"/><path d="m231.55,1.04c2.25.03,3.87.08,5.03.16,2.92.19,8.45.38,12.78.39,3.87.02,7.38-.02,7.81-.16.81-.26-4.04-.57-14.89-.77-2.65-.03-5.94-.19-8.94-.26-3.29.09-2.02.26,1.53.39,3.6.15,6.9.13,9.46.09.94-.02,5.27.03,4.89.14-.33.09,2.17.26.58.31-.97.04-1.45.11-4.39.05-3.05-.06-4.38-.14-4.72-.23-.37-.08-.82-.16-4.21-.21-3.29-.04-4.97,0-4.95.1Z"/><path d="m292.05,6.41c-7.58-.56-14.67-.66-22.63-1-3.95-.13-9.47-.33-14.02-.44-3.74-.1-6.39-.19-8.11-.07,3.2.21,7.19.36,11.37.45,4.18.12,8.55.21,12.5.37,11.79.46,23.84.97,35.29,1.96l.95-.03c-1.69-.22-7.67-.74,1.45-.17,2.98.19,4.68.19-.45-.2-5.42-.32-9.4-.3-16.34-.88Z"/><path d="m238.31,83.13c.13.22,2.53.25,8.05-.05,4.06-.22,6.69-.29,9.97-.28,3.35.01,9.02-.46,12.19-.38,7.87-.53,16.49-.78,24.72-1.27,2.81-.16,4.4-.29,5.69-.45-7.58.29-15.78.7-24.61,1.15-5.63.26-11.35.53-17.5.66-5.36.13-12.28.44-18.51.64Z"/><path d="m97.99,7.14c-1.32.15-2.63.34-3.94.5-1.95.2-3.91.39-5.85.63-.83.12-1.65.24-2.49.37-2.69.42-5.36.96-8.03,1.45,4.78-.54,14.23-2.07,21.07-2.86,13.57-1.61,27.34-2.72,41.08-3.59l3.66-.28c-6.2.13-12.85.52-20.05,1.26-5.83.51-11.99,1.17-15.33,1.22-.88.09-1.76.18-2.64.27-.63.07-1.25.14-1.88.21.03.04.11.05.19.07.19,0,.38,0,.58-.01l-1.3.12-5.05.63Z"/><path d="m50.57,24.08c-5.06,1.33-10.08,2.76-15.05,4.55-3.94,1.38-7.66,2.87-10.49,4.1-2.53,1.23-3.76,1.91-4.97,2.64-2.84,1.71-5.59,3.67-7.51,6.39-.93,1.35-1.66,2.91-1.8,4.59-.11.84-.02,1.68.12,2.53.2.83.45,1.67.85,2.45.8,1.65,1.78,2.71,2.53,3.47.77.77,1.39,1.21,1.83,1.54-1.85-1.65-3.5-3.57-4.46-5.81-.98-2.23-.95-4.82.14-6.99,1.06-2.19,2.84-3.99,4.81-5.49,1.97-1.52,4.13-2.8,6.34-3.96,4.47-2.27,9.16-4.11,13.92-5.73,4.76-1.62,9.6-3.04,14.47-4.36l-.74.09Z"/><path d="m189.18,4.98c2.35-.15,4.83-.26,7.13-.34,2.31-.05,4.45-.07,6.13-.08,8.54-.03,10.47-.17,12.3-.46-14.05.14-28.11.53-42.11,1.55-3.39.26-5.51.24-8.26.45-3.79.31-9.63.66-10.32.95l7.76-.57c4.25-.32,8.51-.51,12.76-.77,4.86-.25,9.72-.54,14.59-.72Z"/><path d="m90.75,78.17c-.2.07.99.34-4.84-.38-3.63-.46-6.74-.83-6.13-.59,14.93,1.99,29.91,3.65,45.52,4.57l-.08-.09-.52-.1c-.29-.02-.59-.04-.91-.06-2.61-.14-5.21-.29-5.95-.49-.47-.04-.94-.07-1.42-.11l-5.49-.53c-.84.04-2.71-.1-5.64-.46-3.24-.32-6.61-.53-9.53-.96-.97-.15.5-.04,2.1.09l.15-.04-1.76-.3c-3.2-.46-3.51-.33-5.48-.55Z"/><path d="m216.5,4.05c5.61.06,14.83.07,6.08.47-1.58.07-1.54.19-2.25.28,2.68,0,1.78.08,1.95.14l3.59-.04c-1.11-.14,3.52-.22,3.65-.34l-2.4-.03c.18,0,.51-.03.52-.03.66.02,1.3.04,1.94.06,3.18.1,1.23.22,1.9.33,3.62.18,7.31.2,11.14.09-6.36-.2-8.15-.37-9.79-.61-2.88-.13-1.68-.23,1.04-.31,2.63-.08,5.5-.11,8.98.03,4.11.14,8.02.26,8.83.03-9.25-.23-18.69-.2-27.83-.25-3.6-.02-5.5.05-7.36.17Z"/><path d="m308.4,7.29c5.13.39,3.44.39.45.2-9.12-.56-3.15-.05-1.45.17,1.58-.03,4.41.26,6.61.42-.23-.11,1.45-.1,2.79.04,6.64.67,11.38.8,17.17,1.33,3.1.17,3.26.28,3.49.39,3.12.39,3.91.37,4.83.37-.27-.03-.75-.09-.79-.09-1.27-.35-5.63-.74-10.4-1.16-6.56-.53-11.11-1.16-17.93-1.61-.17-.01-.85-.18-1.28-.28l-7.11-.61-3.78-.33-.45.16c8.08.57,8.53.81,7.85,1Z"/><path d="m406.42,17.3c3.72.6,4.34.85,6.72,1.33,1.52.3,3.04.63,2.11.54-.72-.07-2.32-.35-3.8-.61-1.76-.3-4-.68-5.18-.83-2.24-.29-5.77-.7-5.38-.57.95.29,4.19.63,6.42,1.01,1.36.25,2.62.48,3.92.72,1.69.41,3.26.57,4.88.86,2.72.44,5.61.95,4.84.67-3.02-1.04,5.4.49,12.82,2.42-.88-.35-4.77-1.25-5.04-1.44-6.15-1.35-11.98-2.6-18.25-3.64-4.49-.72-3.54-.46-4.06-.46Z"/><path d="m333.96,9.45c-5.79-.54-10.53-.66-17.17-1.33-1.34-.14-3.02-.14-2.79-.04,11.62.87,23.18,1.86,34.77,2.99,5.81.57,11.91,1.25,17.66,1.95,3.48.39,6.3.71,9.35,1.05,1.05-.14-2.98-.7-8.28-1.2-8.22-.8-15.69-1.55-22.5-2.46-.91-.06-1.82-.13-2.71-.19-.91,0-1.7.02-4.82-.37l-3.49-.39Z"/><path d="m189.18,4.98c-4.87.18-9.73.47-14.59.72l-.14.14c1.99-.12,3.75-.17,3.44-.08-.3.1-2.32.18-4.13.31-.67.1-.71.17-.76.25,3.62-.27,6.86-.4,7.3-.26,4.66-.19,9.47-.38,14.38-.58.21-.06.12-.11.67-.18,2.38-.28,4.31-.56-5.25-.21-3.08.11-1.14-.05-.92-.11Z"/><path d="m161.4,84.51l7.41.04v-.07s-.39-.03-.39-.03l.38.03c3.15.12,4.84-.36,8.85.06.63-.01,1.87-.02,1.8-.03-1.31-.25,5.51-.3,7.85-.46-.39-.07-2.04-.07-3.51-.07-1.93.11-5.02.07-7.75.05-2.02-.06-3.28.21-4.36,0-1.14-.22-4.49-.13-6.36-.21-3.21.07-4.67-.04-5.76-.18-1.91-.07-4.18-.27-5.37-.12l-.82.08c2.24.11,3.35.26,6.5.33,2.15.09,1.32.15,1.52.22,9.8.32-1.31.21.01.36Z"/><path d="m120.03,80.57c3.08.32,6.69.64,9.62.97,6.01.76,17.36,1.13,22.21,1.11-4.51-.23-9.52-.47-6.34-.53-8.65-.42-17.27-1.13-25.48-1.55Z"/><path d="m161.39,84.14c9.8.32-1.31.21.01.36-1.97.02-4.01,0-3.51.13-5.59-.13-11.5-.12-16.55-.61-.25-.02-.32-.04-.23-.05,7.35.11,7.95-.21,7.57-.52l4.7.15c2.24.11,3.35.26,6.5.33-.21.07-.27.13,1.52.22Zm-5.86.08c1.18.07,2.3.04,1.93-.01-.74-.1,3.01-.15-2.63-.3-2.81-.04-2.58.01-.55.13.38.06.35.13,1.25.18Z"/><path d="m289.74,82.13c-1.71.09-3.14.03-5.07.25-4.3.47-4.72.26-6.12.23-1.28.04-2.94.06-3.82.12-3.44.22-6.69.41-9.21.35-2.08-.06.83-.26,2.93-.44,3.71-.32,6.57-.38,9.6-.4,1.89-.02,5.04-.13,6.58-.27,5.25-.49,7.6-.42,10.73-.5-1.86.22-3.73.45-5.6.67Zm-20.48.72s.65-.04.68-.04c.08-.02-.02-.04-.05-.05l-1.43.09c.25,0,.49,0,.8.01Z"/><path d="m55.64,73.18c-7.25-1.71-14.73-3.99-21.12-6.05-1.62-.51-3.82-1.44-5.35-2.13-2.77-1.26-4.61-2.17-6.12-2.88,2.74,1.59,5.91,3.07,9.28,4.35,3.37,1.28,6.88,2.39,10.3,3.42,4.43,1.32,8.74,2.52,13.1,3.59,2.19.54,4.35,1.03,6.6,1.5,2.25.36,4.53.66,6.83.96,1.34.17,2.99.4,3.6.42-1.85-.38-5.01-.86-8.69-1.32-.55-.07-1.07-.14-1.56-.2-.48-.1-.93-.19-1.36-.27-.84-.17-1.57-.34-2.22-.49-1.3-.31-2.31-.59-3.29-.88Z"/><path d="m231.55,1.04c-.02-.1,1.66-.14,4.95-.1,3.39.05,3.84.12,4.21.21.35.08,1.68.16,4.72.23,2.93.06,3.41-.01,4.39-.05,1.59-.06-.91-.22-.58-.31.38-.11-3.95-.15-4.89-.14-2.56.04-5.87.06-9.46-.09-3.55-.13-4.81-.3-1.53-.39-1.22-.05-2.44-.09-3.66-.05,1.08.24-6.06.29-8.79.47,1.94.05,3.7.12,3.83.21l6.83.02Z"/><path d="m324.66,79.46c4.83-.2,9.65-.61,14.44-1.28,2.8-.5,11.48-1.31,12.99-1.78l-.67-.16c-3.16.3-6.04.57-8.63.94-.41.08.78.03-1.13.25l-.59-.07c-.53.04-1.11.09-1.73.16-7.47.73-5.92.98-12.79,1.65-1.54.15-1.93.24-1.89.29Z"/><path d="m116.18,10.85l1.59-.09c3.44-.39,8.18-.97,7.76-.68-.07.04,1.66-.07,3.96-.29,2.3-.23,5.16-.56,7.37-.92,1.39-.23,3.6-.49,6.6-.77-.14,0-.2-.01-.25-.03l.12-.2c-8.97.8-17.85,1.59-27.16,2.98Z"/><path d="m31.85,29.06c-.62.4,3.13-.99,6.22-1.95,6.66-2.13,14.52-4.13,20.45-5.63,4.12-1,6.88-1.73,10.92-2.54,2.44-.51,1.06-.33,1.25-.44-8.62,1.79-16.98,3.63-25.85,6.3-3.83,1.16-8.7,2.62-13,4.26Z"/><path d="m221.92,83.87c1.13-.03,2.27-.06,3.4-.09,1.82-.13,4.32-.28,3.9-.41-9.16.12-18.97.47-28.25.36-3.74-.05-4.89.23-8.26.32.18.12,3.75.17,4.57.13,5.7-.24,10.35-.05,15.47-.16,3.3-.46,6.09-.05,9.18-.16Z"/><path d="m376.07,73.83c.91-.13,1.83-.25,2.74-.38,1.67-.39,1.61-.38-1.27-.03-1.26.16-2.95.35-3.23.35-.98-.01,4.12-.69,4.92-.9l-3.85.4-5.99.78c-4.04.58-8.07,1.23-12.12,1.76,4.16-.35,6.19-.59,5.96-.47-.23.1-2.73.52-7.65,1.2,4.27-.11,7.44-.75,10.71-1.33,3.23-.43,4.76-1.01,9.77-1.38Z"/><path d="m433.77,22.84c-7.43-1.93-15.84-3.47-12.82-2.42.77.28-2.12-.23-4.84-.67.8.38,4.65.92,6.92,1.44.84.07,1.54.08,3.1.37,1.55.29,3.98.78,8.21,2,1.4.41,3.66,1.03,4.25,1.12.63.09-1.1-.45-2.94-.97l-.8-.21.71.18c-.59-.29-1.19-.56-1.79-.84Z"/><path d="m141.34,84.02c-.25-.02-.32-.04-.23-.05-.8-.13-6.5-.35-5.43-.47-1.47-.26-3.6-.33-5.79-.34-1.92,0-3.58.04-6.45-.38-2.2-.12-3.74-.39-5.79-.45-2.6-.08-.46.22,1.72.49,7.43.59,15.31,1.21,21.97,1.21Z"/><path d="m32.09,68.61c-1.16-.51-3.16-1.39-5.08-2.23-1.91-.87-3.71-1.76-4.45-2.25-.35-.23-2.33-1.14-4.65-2.33-2.32-1.19-4.97-2.7-6.76-3.89-.59-.4-.99-.63-1.46-.95l-.15.13c5.33,4.05,11.01,6.62,16.95,9.31,1.48.63,2.97,1.24,4.47,1.82.59.23.96.36,1.13.4Z"/><path d="m88.97,77.5c1.25.23,5.99.88,11.09,1.47,5.1.6,10.55,1.13,13.21,1.32,5.25.38,1.93-.05,2.98-.07-3.34-.25-6.7-.48-9.85-.89-.69-.07-3-.33-3.15-.34-4.27-.21-9.61-.97-14.29-1.48Z"/><path d="m207.39.21c-2.56-.06-7.57.27-8.87.04-2.62-.06-5.22.06-7.82.17-4.33.28-11.2.4-16.29.7,1.03.06.91.19,6.35-.11,3.29-.17,8.07-.29,12.17-.4l2.27-.13.72.02-2.86.11c3.4-.03-7.04.58,5.39.14.43-.1-1.2-.21,3.71-.31.99-.11,5.47-.1,5.22-.23Z"/><path d="m28.45,30.58c.09-.07-.52.14.94-.47-2.6,1.03-5.19,2.2-7.71,3.52-2.51,1.33-4.95,2.83-7.08,4.71-2.11,1.85-3.93,4.25-4.46,7.03-.26,1.38-.17,2.79.19,4.06.37,1.28.97,2.43,1.68,3.44l-.07-.27c-1.35-2.06-2.07-4.67-1.56-7.15.36-2.04,1.5-3.84,2.81-5.37,1.36-1.51,2.94-2.79,4.6-3.92,3.32-2.28,6.97-4.01,10.66-5.6Z"/><path d="m174.41,1.11c5.09-.3,11.96-.42,16.29-.7-.6-.18-4.63.07-6.71.13-7.96.18-16.17.57-24.19,1.04,1.65.26,9.52-.33,14.61-.48Z"/><path d="m43.86,17.19c2.77-.76,5.7-1.6,8.43-2.29,1.37-.34,2.68-.67,3.88-.97,1.21-.26,2.32-.48,3.27-.64,1.45-.24,3.5-.79,3.81-.95.23-.12-.23-.11,2.13-.65.36-.18-.64,0-2.03.28-1.4.3-3.18.75-4.43,1.03-5.61,1.3-11.22,2.86-16.8,4.42.47-.05-.9.44,1.74-.24Z"/><path d="m16.37,27.34c-3.64,1.62-7.27,3.7-9.35,5.64-1.34,1.25-2.16,1.95-3.24,3.16-.89,1.03-1.68,2.17-2.16,3.43-.16.3-.26.62-.34.95-.08.32-.2.64-.26.97-.07.66-.19,1.33-.12,1.99-.02.67.16,1.31.28,1.96.22.62.37,1.27.69,1.84.52,1.2,1.32,2.25,2.11,3.25-1.47-2.05-2.86-4.67-2.81-7.59.05-1.45.45-2.89,1.11-4.25.68-1.35,1.63-2.58,2.71-3.68,3.21-3.23,7.26-5.54,11.4-7.53l-.02-.15Z"/><path d="m448.66,56.04c-.55.33-1.73.91-1.7.96.01.03.32-.08,1.16-.42.83-.36,2.18-.94,4.22-1.99,4.22-2.21,6.06-3.41,8.03-4.87.49-.36.6-.41.94-.68.32-.28.96-.73,2.05-2.33.83-1.32.92-1.94.94-2.07,0-.14-.17.14-.33.38-.27.47-.57.64-.83.94-1.54,2.47-3.98,4.33-6.47,5.94-2.54,1.59-5.24,2.93-8,4.13Z"/><path d="m91.8,80.24c.63-.15.72-.25-7.15-1.07-1.84-.17-3.68-.35-5.52-.55l-3.47-.45c-1.49-.11-3.53-.45-5.52-.74l-2.09-.16c-.19.11,2.24.43,4.17.69,6.52.89,13.04,1.63,19.58,2.27Z"/><path d="m375.38,73.26l3.85-.4c2.57-.37,5.2-.86,7.74-1.26,2.54-.4,4.99-.76,7.18-1.02,1.13-.12,4.37-.79,4.16-.77-.91.06,6.15-1.22,1.15-.46-7.96,1.45-16.71,2.61-24.09,3.91Z"/><path d="m90.09,79.41c2,.15,4.99.34,5.83.45,3.38.42.17.15-1,.1-.79-.04.24.11,1.61.25,1.57.17,3.26.3,3.3.24.06-.09-.42-.23-.67-.35-6.58-.85-14.09-1.6-21.51-2.57l-.25.14c.08.03.1.05.06.06l1.98.27c4.78.55,9.35.99,10.66,1.42Z"/><path d="m326.55,79.17c6.87-.66,5.32-.92,12.79-1.65-3.84.18-7.74.39-12.75,1.1-.56.09-.92.21-1.71.28-12.09,1.07-3.18.47-.33.35.29-.07-.04-.11,2.13-.28l-.42.15c.11.01.21.03.29.04Z"/><path d="m453.1,29.57c1.38.84,4.1,2.42,6.75,4.3,1.26.91,2.71,2.15,3.88,3.85.57.85,1.07,1.82,1.32,2.89.26,1.06.28,2.21,0,3.26-.49,2.14-1.8,3.81-2.99,5.07-1.2,1.29-2.39,2.19-3.16,2.9,1.02-.75,2.04-1.52,2.94-2.43.93-.88,1.76-1.88,2.42-3.03.67-1.13,1.13-2.44,1.18-3.8.05-1.36-.31-2.71-.92-3.86-1.23-2.33-3.15-4.04-5.13-5.49-2-1.45-4.13-2.62-6.3-3.67Z"/><path d="m304.77,6.46l7.11.61,3.72.33c0-.16,3.08.07,6.08.32,7.01.72,13.59,1.27,19.81,1.66-.59-.13-2.49-.37-3.78-.47-10.64-.81-22.57-2.02-32.94-2.45Z"/><path d="m174.59,1.97c-.36-.18-1.61-.3-8.62.2-5.22.39-11.83.45-16.86.94,7.61-.14,16.82-.79,25.48-1.13Z"/><path d="m72.56,18.98c-1.22.15-3.02.45-5.16.82-2.14.39-4.62.92-7.22,1.45,1.07-.03-1.58.71-5.06,1.75,3.62-.82,6.85-1.6,10.18-2.43,1.76-.59,4.72-1.06,7.27-1.59Z"/><path d="m95.67,6.53c3.19-.28,8.1-.8,13.21-1.3,5.1-.52,10.41-1.06,14.39-1.47-7.89.48-15.8,1.32-23.67,2.25-.18.16-2.12.31-3.93.52Z"/><path d="m253.21,83.44c-2.14.09-3.61.17-3.55.25l2.35-.03.52.06-1.74.04-1.44-.04c-2.19.07-3.24.14-3.41.23,6.7-.17,12.52-.14,19.93-.57-.66-.21-6.9,0-11.04.02-.53.02-1.07.03-1.61.05Z"/><path d="m366.56,12.14c8.36.96,16.66,1.95,23.78,2.68-2.79-.49-5.41-.88-9.61-1.27-5.32-.49-11.9-1.41-17.77-1.99l.32.19c1.08.13,2.18.26,3.29.39Z"/><path d="m24.62,23.6c7.06-2.57,10.92-3.87,8.48-3.46-2.34.73-4.68,1.49-7,2.3,1.1-.26-3.99,1.67-2.93,1.45,2.03-.69,1.22-.28,1.45-.29Z"/><path d="m357.27,75.8c4.05-.53,8.08-1.18,12.12-1.76-3.07.33-6.13.66-9.13,1.04-3.01.34-5.97.71-8.83,1.16l.67.16,5.18-.59Z"/><path d="m148.67,83.45l4.7.15.82-.09c-6.85-.25-13.81-.62-20.17-.77,2.03.23,6.23.49,7,.66,1.32.03,2.44.06,3.55.08.29-.08.47-.17,4.09-.04Z"/><path d="m16.37,27.34l.02.15c2.74-1.28,5.55-2.42,8.39-3.46,1.7-.78,1.53-.88-.15-.43-4.17,1.54-3.22,1.1-3.35,1.03-.68.21-1.63.54-3.21,1.26-1.84.85-.71.41-.36.31.67-.2,1.63-.52,1.77-.49.14.04-.55.37-3.11,1.63Z"/><path d="m225.75,84.4l-.11.14c6.24-.13,13.08-.08,18.36-.55-.93-.1.44-.4-6.48.06-3.01.19-8.22.14-11.78.35Z"/><path d="m300.55,6.29l.45-.16c-3.54-.28-6.91-.47-10.22-.64-3.31-.13-6.55-.25-9.83-.38l3.42.31c3.64.24,3.69.37,4.2.52.49.03.99.05,1.5.08.03-.26,1.13-.41,10.49.27Z"/><path d="m220.34,4.8c-4.83.03-9.68.15-14.49.23-3.12.08-5.47.15-5.79.29,6.45-.03,13.62-.32,20.33-.33.01-.06.03-.13-.05-.2Z"/><path d="m284.36,5.42l-3.42-.31c-5.22-.3-10.64-.71-14.92-.53,4.7.24,9.61.49,14.86.75,2.48.14,3.34.17,3.47.09Z"/><path d="m110.1,82c-.2-.04-.26-.07-.62-.11-2.6-.32,7.43.33-.14-.33-5.45-.5-8.98-.65-8.53-.37,3.2.32,6.59.78,9.28.81Z"/><path d="m55.64,73.18c.99.29,1.99.57,3.29.88.65.15,1.38.32,2.22.49.42.08.87.18,1.36.27.49.06,1,.13,1.56.2,3.68.46,6.84.93,8.69,1.32,1.28.16,2.93.39,3.41.39-1.04-.2-2.09-.41-3.14-.61-2.83-.4-5.65-.81-8.46-1.21l-2.11-.31-2.09-.44c-1.39-.3-2.78-.6-4.16-.93l-.58-.06Z"/><path d="m145.51,82.12c-3.18.06,1.83.3,6.34.53,3.33.16,5.43.17,6.84.13l-.08-.15c-2.15-.06-4.29-.12-6.46-.17-2.17-.11-4.37-.22-6.64-.34Z"/><path d="m94.27,14.17c3.28-.52,6.77-1.07,10.17-1.6,3.41-.48,6.72-.98,9.63-1.47-3.31.38-6.61.86-9.91,1.34l-9.88,1.6-.02.12Z"/><path d="m422.3,64.52c1.08.31,8.49-2.04,12.76-3.37-.31-.03.9-.5-4.32,1.09-2.61.79-5.6,1.57-8.45,2.28Z"/><path d="m102.82,80.41c.64.16-.06.25,4.06.63,5.56.47,2.25-.06,5.47.13-4.42-.53-6.36-.49-9.53-.76Z"/><path d="m77.68,10.08c2.67-.48,5.34-1.03,8.03-1.45-5.08.75-5.41.72-6.16.69-.43,0-1.64.11-4.06.57-.9.17-2.31.47-2.58.55-.78.23,1.18-.12,2.73-.39,2.8-.45,1.69-.19.49.09-1.2.29-2.48.6-.05.2.51-.09,1.04-.18,1.6-.27Z"/><path d="m155.34,83.31c-3.64-.01-8.54-.73-11.39-.5,1.54.27,1.54.34,11.39.5Z"/><path d="m52.01,73.65c-4.7-1.05-4.34-1.19-5.37-1.55-3.66-.88-7.61-2.07-10.52-2.96l.09.11c2.52.97,7.11,2.15,7.51,2.36.87.54,4.64,1.35,8.3,2.04Z"/><path d="m63.08,75.35c-2.34-.17,3.13.78,5.72,1.29.95.09,1.9.19,2.85.28l2.27.06c-1.86-.29-3.62-.51-5.39-.75-1.77-.25-3.55-.53-5.46-.88Z"/><path d="m452.78,30.37l-.09.18c1.51.78,2.98,1.63,4.43,2.58,1.45.95,2.87,2.01,4.19,3.29.03-.05.29.13.11-.13-.2-.23-.78-.99-2.83-2.48-3.15-2.17-4.76-2.91-4.55-3.01-1.52-.73-1.09-.42-1.25-.43Z"/><path d="m55.12,23c3.48-1.04,6.13-1.78,5.06-1.75-3.63.94-8.91,2.43-9.61,2.83l.74-.09,3.81-.99Z"/><path d="m43.86,17.19c-2.64.68-1.27.19-1.74.24l-5.28,1.5c-.76.47-.83.64,7.15-1.57l-.13-.17Z"/><path d="m363.27,11.75l-.32-.19c-3.53-.41-6.57-.66-9.15-.85,2.21.71,5.89.82,9.47,1.04Z"/><path d="m45.62,69.79s-.38-.03-.05.1c.94.37-4.16-.92,1.3.66,4.84,1.34.71.03,1.43.14.21.03,1.82.46,2.79.69-1.16-.38-2.21-.73-5.47-1.59Z"/><path d="m72.56,18.98c-2.55.53-5.51,1-7.27,1.59,1.3-.3,2.61-.56,3.92-.82,1.48-.32,2.75-.58,3.45-.67,2.42-.55,4.85-1.03,7.28-1.51l-1.54.23c-1.95.36-3.9.76-5.84,1.18Z"/><path d="m270.2,80.98s.14-.05.01-.05c-.64-.04,2.08-.35-2.39-.05-1.53.1-4.37.46-1.46.36l3.84-.26Z"/><path d="m229.52,4.56c-.12.11-4.76.2-3.65.34h5.6c-.67-.12,1.28-.24-1.96-.34Z"/><path d="m224.72,1.03c-.12-.08-1.89-.16-3.83-.21-8.11.06,1.77.15-.43.22.35.02.82.02,1.41.01h2.43c.5,0,.64-.01.41-.03Z"/><path d="m34.55,69.47c-1.15-.4-2.3-.81-3.45-1.24,1.45.73,5.64,2.29,8.31,3.12l.23-.07-.11-.17c-.95-.29-1.67-.52-2.38-.76-.29-.01-1.47-.44-2.6-.88Z"/><path d="m428.73,21.39c.27.19,4.16,1.09,5.28,1.49.95.22,1.89.47,2.83.71l-2.24-.72c-1.87-.54-3.81-1.04-5.87-1.49Z"/><path d="m73.93,76.98l-2.27-.06c1.91.27,3.82.51,5.74.73l.25-.14-3.72-.54Z"/><path d="m159.57,83.63c1.08.14,2.54.25,5.76.18-1.54-.1-2.15-.29-5.76-.18Z"/><path d="m145.34,7.86l5.75-.56c.25-.19-2.93.12-5.75.39v.17Z"/><path d="m176.04,84.02c2.74.02,5.82.06,7.75-.05-3.94-.15-6.04-.08-7.75.05Z"/><path d="m289.52,79.39c-1.8.11-3.89.3-6.24.57,2.01-.17,3.21-.09,6.24-.57Z"/><path d="m78.41,17.8l1.54-.23,3.6-.69-.16-.03c-1.64.25-3.29.55-4.97.95Z"/><path d="m13.25,58.48s-.05,0-.22-.1c.22.14.46.28.72.44.16.05.34.1.51.15-.34-.16-.68-.31-1.01-.48Z"/><path d="m72.67,19.07c-.7.1-1.96.35-3.45.67-.02.11,1.16-.13,3.45-.67Z"/><path d="m31.54,21.73c-.21.02.09-.16-1.84.48-1.4.48-1.12.44-.08.12l1.92-.6Z"/><path d="m39.64,71.28l-.23.07c1.83.52,3.1.83,3.71.91-1.16-.3-2.32-.63-3.48-.97Z"/><path d="m30.97,68.21c-1.5-.58-2.99-1.19-4.47-1.82,1.83.89,3.34,1.48,4.47,1.82Z"/><path d="m220.43,4.8l-.04.19c1.22,0,1.84-.02,1.9-.06-.17-.05.73-.13-1.86-.13Z"/><path d="m341.07,77.36l.59.07c1.91-.22.73-.16,1.13-.25-.58.05-1.16.11-1.73.18Z"/><path d="m95.67,6.53c1.81-.22,3.74-.37,3.92-.52-1.66.17-3.3.35-3.92.52Z"/><path d="m56.22,73.24c1.38.33,2.77.64,4.16.93l2.09.44,2.11.31c2.81.4,5.63.8,8.46,1.21,1.97.26,2.83.34,3.01.3l.27-.14c-3.12-.43-4.14-.62-3.01-.56.53.03,1.26.07-.8-.22-.6-.08-1.56-.2-2.36-.31-.4-.05-.77-.09-1.03-.12-.26-.03-.42-.04-.42-.04.17.15-1.81-.06-4.23-.37-.61-.08-1.24-.16-1.88-.24-.63-.12-1.26-.24-1.87-.36-1.21-.23-2.32-.45-3.12-.6-.65-.12-.93-.15-1.38-.22Z"/><path d="m174.66,83.74c3.87.11,7.75.28,11.53.15-6.51-.06-1.19-.25-5.77-.36l-7.32-.23c.93.15,4.82.34,1.56.44Z"/><path d="m25.02,32.73c2.83-1.22,6.55-2.72,10.49-4.1-.14-.02.38-.3-.59,0-1.31.39,3.85-1.53-.86.13-3.25,1.18-2.57,1.07-2.2.99.17-.03.24.08-1.9.78-3.89,1.37-2.96,1.35-4.94,2.19Z"/><path d="m110.91,80.39l5.49.53c.72,0,5.42.32,1.28-.09-4.38-.44-5.87-.46-6.78-.43Z"/><path d="m97.84,79.05c-1.6-.13-3.07-.23-2.1-.09,2.92.43,6.29.64,9.53.96-.27-.19-4.5-.55-7.43-.87Z"/><path d="m10.38,45.47c-.51,2.48.21,5.09,1.56,7.15-.09-.38-1.51-2.41-1.59-5.43.01-1.15.11-1.53.1-1.65,0-.12-.07.02-.08-.07Z"/><path d="m83.54,16.64c.5-.1,1.01-.2,1.54-.3l.19-.14c-2.18.41-4.85.91-5.81,1.19l4.08-.74Z"/><path d="m117.83,81.02c.75.21,3.34.35,5.95.49l-.18-.13c-1.95-.12-3.87-.22-5.78-.36Z"/><path d="m82.8,76.88c-.39-.06-.76-.12-1.13-.17l-1.04-.08c.47.06,1.02.14,1.39.19.36.04.53.04.79.06Z"/><path d="m20.05,35.37c.6-.38,1.22-.71,1.84-1.04.62-.34,1.24-.67,1.88-.98-.49.21-.88.32-1.5.67-1.82.96-1.76,1.03-2.22,1.35Z"/><path d="m96.23,78.72l1.76.3c2.77.2.61-.04-1.76-.3Z"/><path d="m123.61,81.39c.99.06,2.44.18,2.42.12,0,0-.18-.03-.4-.05-.22-.02-.49-.04-.67-.06-1.67-.11-1.2-.04-1.35-.02Z"/><path d="m76.31,76.29l-.27.14c2.35.25,2.56.22.27-.14Z"/><path d="m28.05,63.95s.29.15.52.26c-.02-.04-.29-.15-.52-.26Z"/><path d="m88.95,15.56l.07-.07-3.71.7c1.19-.21,2.42-.42,3.64-.63Z"/><path d="m90.7,78.16l-.41-.07c.15.03.3.05.41.07Z"/><path d="m124.69,81.58l.52.1c1.59.08,1.27.03-.52-.1Z"/><path d="m47.28,16.52c-2.12.69-5.44,1.72-2.95,1.18,1.07-.23,2.34-.52,4.55-1.12,3.28-.87,3.63-1.04,4.05-1.24-1.73.35-2.61.47-1.18-.03.66-.23.48-.24-1.46.26-2.33.61-2.67.79-3.02.94Z"/><path d="m202.16.44c-4.92.1-3.28.2-3.71.31,1.82-.02,4.38-.11,4.64.01.13.06,1.9.11,3.52.07,1.66-.04,3.18-.13,3.77-.19.97-.11-2.22-.04-3.22-.05-1.96-.06-3.36-.1-5-.15Z"/><path d="m108.1,5.84c3.35-.05,9.5-.71,15.33-1.22-4.28.17-9.13.47-15.33,1.22Z"/><path d="m103.58,6.33c.62-.07,1.25-.14,1.88-.21.32-.05.51-.09.96-.15,3.5-.43,5.82-.76,2.2-.53-.95.06-3.55.29-3.1.3,1.06,0-10.44,1.4-1.94.59Z"/><path d="m63.62,12.86l5.18-1.07c.03-.11,4.34-1.1-.27-.2-3.4.69-5.76,1.3-4.92,1.27Z"/><path d="m88.2,8.27c1.95-.25,3.9-.43,5.85-.63-.15-.06,2.99-.55.3-.26-2.13.23-4.43.55-6.15.9Z"/><path d="m190.88.97c-1.07,0-1.72,0-2.34,0-.67.03-1.33.06-2,.09.57,0,1.08.02,1.71,0,.65-.03,1.41-.06,2.63-.11Z"/><path d="m97.99,7.14l5.05-.63c.24-.04.48-.07.73-.11l-.24-.04c-2.27.29-5.61.64-5.54.78Z"/><path d="m59.07,13.93c1.48-.29,2.95-.59,4.43-1.04l-4.43,1.04Z"/><path d="m179.82,1.61c-.52,0-.78.02-1.04.04.19,0,.38,0,1.04-.04Z"/><path d="m420.87,65.9c1.99-.49,4.28-1.05,5.44-1.45.83-.43,6.84-1.92,9.15-2.81.87-.32,3.93-1.07,5.18-1.69.77-.36-2.16.56-3.99,1.05-1.86.5-3.31.94-5.86,1.74-3.2,1.02-6.97,2.06-9.94,2.54-1.78.29-4.93,1.12-6.78,1.57-3.24.8-.59.28,1.32-.08,3.02-.57,6-1.19,5.48-.88Z"/><path d="m452.78,30.37c.16,0-.28-.3,1.25.43.21.06,1.3.62,2.09,1.06.79.44,1.3.71.37.08-.64-.45-2.19-1.37-3.25-1.88-3.56-1.7-1.26-.44-2.07-.75-.45-.16-.8-.28-1.48-.52-1.31-.53-5.18-1.95-3.76-1.31,1.63.72,4.43,1.68,6.84,2.9Z"/><path d="m463.4,38.17c.21.34.38.66.53,1,.18.31.33.63.47.96-.15-.45-.36-.95-.55-1.3-.16-.31-.3-.44-.45-.66Z"/><path d="m386.61,72.39l-1.81.28c.59-.09,1.21-.19,1.81-.28Z"/><path d="m242.82,82.16c.37.03.49.08,2.95-.11-.34-.03-1.51.04-2.95.11Z"/><path d="m306.23,80.97l3.75-.26c.04-.09-.83-.16.32-.28,2.02-.21,3.84-.38,3.15-.44-.34-.03-1.45.07-1.89.13-1.61.21-7.02.56-5.57.65.48.03.19.12.25.19Z"/><path d="m295.35,81.45c1.15-.01,1.23.08,3.86-.07.37-.02,1.28-.13,1.18-.15-.52-.08-3.05.1-5.04.22Z"/><path d="m253.21,83.44c.54-.02,1.08-.03,1.61-.05,0-.05.34-.12-1.78-.06l.16.11Z"/><path d="m326.26,79.12l.42-.15c-2.16.17-1.84.21-2.13.28l1.71-.13Z"/><path d="m317.33,80.05l-.66-.04c-1.76.18.05.07.66.04Z"/><path d="m180.42,83.53c4.58.11-.74.3,5.77.36,2.37,0,4.04-.04,5.28-.09,2.62-.11,5.84-.22.95-.36-7.68-.22-8.02.11-12,.09Z"/><path d="m211.26,83.26c-2.64.06-6.87,0-6.64.17.08.06,1.14.15,4.14.08,2.9-.07,7.16-.22,7.32-.31.32-.13-3.46.08-4.82.06Z"/><path d="m208.38,83.73c2.07.04,3.36.09,4.86.07,1.9-.01,5.28-.15,5.41-.24.07-.06-1.17-.08-3.19-.01-2.17.06-4.28.11-7.09.18Z"/><path d="m233.6,82.6c.25.03.26.08,2.18-.02.6-.03.93-.09,1.38-.14l-3.56.15Z"/><path d="m201.09,83.61c.6-.03.23-.03-.14-.02l.14.02Z"/><path d="m230.1,82.7l.83-.04.83-.04c-.56,0-1.11.02-1.67.07Z"/><path d="m7.14,54.13c.21.34,1.62,1.63,3.82,3.14,2.82,1.87,1.79,1.01,2.11,1.13-1.38-.9-2.09-1.36-2.88-1.87-.76-.53-1.61-1.09-3.05-2.4Z"/><path d="m21.27,24.63c.13.08-.82.51,3.41-1.05-.29.02.52-.39-1.51.31-.63.24-1.27.49-1.9.74Z"/><path d="m7.11,54.11l-.28-.29c.1.11.2.21.28.29Z"/><path d="m366.56,12.14l-3.32-.4c.58.12-1.13.02,1.53.32,1.51.17,1.89.14,1.79.07Z"/><path d="m321.68,7.72c-3-.25-6.08-.48-6.08-.32,2.24.13,4.74.29,6.08.32Z"/><path d="m52.01,73.65c-3.66-.69-7.43-1.51-8.3-2.04-.4-.21-4.99-1.39-7.51-2.36,1.34.64,2.42,1.14,4.16,1.81,3.72,1.43,10.84,3.13,16.74,3.94.73.1,1.11.11,2.01.26,3.35.53,3.61.35.3-.33q-1.38-.28-2.19-.28c-.38,0-.3.1-2.81-.39-.77-.15-1.61-.39-2.41-.61Z"/><path d="m79.44,77.98l-1.98-.27c-3.53-.22,1.88.7,1.68.9,1.84.21,3.67.39,5.52.55.27-.07-1.4-.35-2.96-.62-1.56-.29-2.99-.56-2.25-.57Z"/><path d="m70.14,77.43c1.99.29,4.04.62,5.52.74-.05-.02,0-.03-.18-.05-2.44-.4-1.96-.58-4.97-.97-4.44-.59.48.3-.37.29Z"/><path d="m60.49,75.66c-.53-.07-1.14-.17-1.09-.15.15.06.54.17.84.26.24.02.67.08.68.06.02-.03-.24-.1-.43-.18Z"/><path d="m34.55,69.47c1.13.44,2.32.87,2.6.88-1.11-.38-2.61-1-2.6-.88Z"/><path d="m39.53,71.11l.74.19c-.32-.08-.64-.18-.74-.19Z"/><path d="m357.27,75.8l-5.18.59c-1.51.48-10.19,1.28-12.99,1.78.29.06-.43.26,3.73-.17-1.78.05,1.24-.33,3.15-.56,2.33-.29,3.46-.29,4.34-.33l5.26-.58c4.92-.68,7.41-1.1,7.65-1.2.23-.12-1.8.12-5.96.47Z"/><path d="m350.33,77.12c-.88.03-2.01.04-4.34.33-1.91.24-4.93.61-3.15.56,2.84-.3,6.37-.58,7.49-.89Z"/><path d="m376.07,73.83c-5.01.37-6.54.95-9.77,1.38,3.99-.36,6.92-.87,9.77-1.38Z"/><path d="m386.64,72.38l-1.88.29c.63-.03,1.26-.13,1.88-.29Z"/><path d="m148.67,83.45c-3.62-.13-3.8-.04-4.09.04.54.16-1.35.05-3.36-.08-1.14.08-.35.31-5.55.08-1.07.12,4.63.35,5.43.47,7.35.11,7.95-.21,7.56-.52Z"/><path d="m90.14,79.41l-2.3-.24c1.28.21,1.62.2,2.3.24Z"/><path d="m173.13,6.1c.88-.11,1.11-.19,1.35-.26-3.7.24-7.38.47-11.06.7-3.32.25-3.39.34-3.52.43,1.98-.13,4.39-.34,5.57-.33l7.67-.54Z"/><path d="m163.41,6.54l11.04-.7.14-.14c-4.25.26-8.51.46-12.76.77l1.58.07Z"/><path d="m173.13,6.1l-7.67.54v.14c2.51-.16,5.02-.32,7.54-.47l.13-.21Z"/><path d="m121.55,10.88c.08.05.27.1,2.3-.15.92-.1,2.11-.29,3.19-.44-1.31.07-3.46.32-5.48.58Z"/><path d="m165.46,6.64c-1.18-.01-3.6.2-5.57.33,1.14,0,3.4-.18,5.57-.33Z"/><path d="m143.47,8.09s-1.72.24-.09.11c.17-.02.69-.07.84-.09,1.06-.13.43-.12-.75-.03Z"/><path d="m221.92,83.87c-3.09.11-5.88-.3-9.18.16-.51.3,6.19.03,9.28.04-.05-.07-.07-.13-.1-.2Z"/><path d="m183.46,84.46h.75c-.23,0-.47,0-.75,0Z"/><path d="m222.02,84.07l.4.02c-.14,0-.28-.01-.4-.02Z"/><path d="m88.95,15.56l-3.68.64-.19.14c2.58-.43,3.82-.69,3.87-.78Z"/><path d="m300.55,6.29c-9.36-.68-10.46-.53-10.49-.27l1.99.4c6.95.58,10.93.56,16.35.88.68-.19.23-.43-7.85-1Z"/><path d="m211.72,4.68h-.8s.34.03.8,0Z"/><path d="m103.05,6.5l1.3-.12c-.19,0-.39.01-.58.01-.24.04-.49.07-.72.11Z"/><path d="m229.59,4.56c-.64-.02-1.28-.04-1.94-.06-.02,0-.34.02-.52.03.8,0,1.6.02,2.46.03Z"/><path d="m333.96,9.45l3.49.39c-.23-.11-.39-.22-3.49-.39Z"/><path d="m174.48,5.84c-.24.08-.47.15-.71.23,1.81-.12,3.83-.21,4.13-.31.31-.09-1.45-.04-3.42.08Z"/><path d="m159.87,83.92c-.21.07-.27.13,1.52.22-.19-.07.63-.13-1.52-.22Z"/><path d="m168.79,84.48l-.38-.03c.13.01.27.02.38.03Z"/><path d="m154.28,84.04c.38.06.35.13,1.25.18,1.18.07,2.3.04,1.93-.01-.74-.1,3.01-.15-2.63-.3-.18.04-.36.09-.54.13Z"/><path d="m154.28,84.04c.18-.04.36-.08.54-.13-2.8-.04-2.57.01-.54.13Z"/><path d="m268.46,82.84c.26,0,.49,0,.8.01.04,0,.65-.04.68-.04.08-.02-.02-.04-.05-.05l-1.43.09Z"/><path d="m435.57,23.67l-.71-.18c.27.07.53.14.71.18Z"/><path d="m193.06.61l2.86-.11-.72-.02c-.76.05-1.51.09-2.14.13Z"/><path d="m252,83.66l-2.35.03c.17.03.65.05,1.13.06l1.22-.09Z"/><path d="m141.23,83.41c2.01.12,3.9.23,3.36.08-1.12-.03-2.24-.05-3.36-.08Z"/>
                  </g>
                </mask>
              </defs>
              <path class="mask" d="m257.26,1.26c-39.38-1.36-72.32-.44-95.97.78-39.96,2.06-75.62,4.06-111.71,13.99C30.52,21.27,7.36,27.64,1.82,38.44c-8.06,15.7,27.41,28.62,33.84,30.97,5.05,1.84,24.82,8.34,82.81,12.74,35.33,2.68,72.74,2.57,109.7,1.72,59.2-1.36,119.92-4.73,172.77-14.31,31.54-5.72,61.88-14.99,63.72-26.19,1.2-7.3-10.38-14.1-26.75-18.87-16.37-4.77-37.16-7.78-58.14-10.34-51.15-6.24-106.09-10.23-162.24-9.58-56.15.65-113.68,6.17-159.68,17.36-18.03,4.38-34.64,9.83-42.48,16.5-11.71,9.97-1.27,21.16,20.2,28.57,8.67,2.99,17.69,5.42,27.07,7.37,17,2.53,35.94,4.78,56.76,6.43,89.58,7.09,168.46-.55,217.39-7.43"
                    mask="url(#path-mask)" stroke="black" stroke-width="2" fill="none"
                    stroke-dasharray="1562.2025146484375" stroke-dashoffset="1562.2025146484375">
              </path>
            </svg>
        