
            <svg xmlns="http://www.w3.org/2000/svg">
              <defs>
                <mask id="path-mask">
                  <g fill="white">
                    <path d="m329.11,1.95c-3.92-.09-1.44.33-2.23.49l-2.81-.22c-2.29-.29-4.97-.54-7.15-.86-2.24-.33-5.47-.45-8.59-.47-3.12-.02-6.13.09-7.94.35-2.47-.07-4.03,0-5.08.15-1.64-.09-3.69-.07-5.64-.07-1.95.01-3.81.02-5.08-.16-.7-.23-3.59-.42-1.17-.7,1.75-.18,3.65-.29,6.45-.13,2.32.15,4.43.15,5.74-.06l2.18.02c2.7-.12,6.36.62,8.48.05.85.03,2.41.08,2.44.08,2.15-.5,7.14-.19,11.46.09l.06.16c-1.19.02-.95.07.39.14.22,0,.44,0,.68.02l.13.23c-.74-.02-1.81-.09-1.81,0,0,.02.53.08.8.09,1.25.05.9-.05,1.03-.1l4.28.07c.35.01.7.02,1.06.04-.54.1-4.05.06-.96.33,3.26.27,4.37.18,5.06,0,.63-.18,2.02-.14,4.21.14.19.34,3.35.39,5.53.61l-.11.09c-2.07,0-.46.16,1.3.33,2.37.41,2.62.11,4.13.24l.3.07-.34-.07c.16-.17-.72-.49,3.63-.04,2.7.31,5.03.52,4.59.16l2.69.26,2.31.63c-1.46-.15-2.12-.15-2.25-.05-1.76-.08-1.92.02-.22.33,2.32.28,3.08.46,2.23.56-.4.04-.96.1.58.29.45.05,1.16.13,1.76.19.3.03.57.05.77.07.2.01.31.02.31.01-.22-.52,5.93.26,8.36.36.5.02.71-.02,1.06-.03l.44-.07c5.48.83,11.16,2.1,16.12,2.76,1.25.19,2.95.71,4.14,1.06,2.18.62,3.66.96,4.9,1.1l5.14,1.49,5.08,1.67.14.21c.21.31,1.83.88,3.88,1.59,1.59.53,1.13.18,1.28.11,1.41.47,2.83.91,4.23,1.41,1.4.52,2.8,1.04,4.21,1.56,1.42.51,2.82,1.07,4.23,1.66,1.41.59,2.84,1.15,4.26,1.81l-.2-.15c.1-.02-.3-.31.78.18.34.06.51,0,1.89.66-.32.05.19.39,1.04.9.84.51,2.03,1.16,3.09,1.73,1.14.63,2.3,1.36,3.48,2.05,1.17.73,2.33,1.5,3.47,2.26,2.25,1.58,4.38,3.2,6.13,4.74.6.54,1.12,1.07,1.63,1.57.46.55.92,1.06,1.31,1.62.79,1.12,1.48,2.34,1.92,3.95.26.98.28,1.21.38,1.19.08-.02.15-.28.23-.2.28,1.69,0,3.41-.54,4.98-.53,1.6-1.48,2.94-2.45,4.19-2.04,2.44-4.49,4.37-7.03,6.04l-.14-.26c.9-.81.56-.79-.02-.61-1.04.25.22-.62,2.74-2.56.68-.65,1.38-1.28,1.99-1.98.61-.57,1.2-1.28,1.69-1.91.46-.66.83-1.23.87-1.62-.24.44-.57.83-.87,1.23-.29.41-.65.77-.99,1.14-.35.21-1.66,1.37-.22-.38.92-.76,1.62-1.77,2.03-2.91.6-1.24.97-2.56,1.01-3.91.26-.82.31-2.15-.2-3.68-.47-1.54-1.49-3.19-2.76-4.73-2.13-1.88-5.52-4.13-6.28-4.04-3.11-2.25-6.43-4.28-10-5.89-.02-.18.46-.15-.17-.58-.84-.59,2.91,1.07-.39-.63-2.31-1.14-1.96-.69-1.78-.43.08.13-.02.39-1.42-.56-2.57-1.74-2.27-.84-4.66-1.96-.34-.22-.56-.45-1.05-.66-1.4-.63-1.44-.49-1.86-.55-2.31-.91-4.6-1.79-6.95-2.62-2.37-.78-4.73-1.67-7.22-2.57-2.59-.92-4.11-.99-4.96-.98-7.79-2.27-15.68-4.19-23.67-5.69.03-.07.3-.11.06-.23-.7-.34,3.2.05-.94-.78-3.68-.64-.56.24-1.13.33-.16.03-1.39-.15-2.13-.24-1.71-.22-3.44-.46-5.2-.72-1.75-.26-3.54-.45-5.33-.7-1.79-.24-3.58-.48-5.37-.72-1.79-.2-3.58-.41-5.36-.61-2.07-.24-5.45-.3-7.06-.78-.93-.24-4.45-.75-8.24-1.19-3.8-.37-7.86-.7-9.84-.76Zm23.53,2.33l.78-.02c-.35-.05-.76-.12-1.03-.14-.27-.02-.4,0-.59.01.29.05.57.1.84.15Zm40.04,6.25c.15.04.35.09.54.14-.01-.06-.22-.11-.54-.14Z"/><path d="m278.12,2.71c9.15-.24,18.19.27,27.27.79,1.16,1.13,7.06.88,10.83,1.33.74.38.61.76,4.68.78,2.46.03,5.99.45,9.13.78,2.49.42-5.36.72,3.89,1.22,1.34.19,3.25.29,3.39.69.07.2,1.35.59,2.55.68,1.23.1,2.38.02,2.84-.1.76-.21-1.61-.39-2.34-.57-1.42-.36-2.42-.74-3.6-1.11.77-.15,4.06.43,3.92.02,1.95.8,9.15,1.16,9.03,1.92-.06.37-2.99.35-4.27.63-1.33.28-6.79-.36-11.12-.95-1.95-.26-3.79-.66-5.73-.88-1.88-.23-4.16-.78-5.56-.6-1.5.19,3.71.54,2.71.83-3.02,0-6.16-.17-9.61-.69-.21-.65-1.09-1.19-6.33-.99-3.89.15-8.74-.95-12.51-.44l-1.44-.03-2.73-.28c-4.57-.8-9.53-.96-14.91-.37-3.19-.5-6.8-.74-11.44-.35l-1.97.02c.24-.05.38-.13.72-.16,2.62-.24,4.36-.51,1.66-.92-.71-.11-2.65-.22-2.32-.03.78.45-7.83.65-1.51,1.24-1.7.08-4.2,0-4.16.42h-2.96c-.1-.23,2.26-.47.25-.67-1.6-.15-3.32-.04-4.62.16h-1.86c-3.83-.06-4.07-.48-4.61-.88-.32-.23-1.22-.41-3.05-.4-.68,0-1.75.1-1.96.19-.6.24.88.29,2.05.38,4.22.32-3.38.77.29,1.1-.91.39-3.27.37-5.48.4l-.04-.27c.04-.26,3.32-.64-.17-.75-2.58-.08-4.39.25-3.86.69h-3.39s-4.68-.33-4.68-.33c-1.31-.29-1.97-.6-.85-.95.51-.16.39-.32-1.1-.33-1.79-.02-2.07.18-2.34.37l-2.52-.17-.06-.58c4.26.02,9.07-.27,11.93.46,1.09.28,2.66.11,2.92-.18.18-.21-.15-.45,1.65-.58,7.39-.57,15-.67,22.82-.33,4.76.74,14.66.65,20.6-.2Zm48.47,4.11c-.5-.05-1-.02-1.49-.02.41.1.79.23,1.25.29.48.06,1.05.05,1.96.08-.78-.16-1.25-.3-1.71-.35Z"/><path d="m152.9,82.87c3.55.1,5.17.51,6.98.93.9.21.28.59,3.12.6,2.29,0,1.78-.33,1.37-.62-.4-.28-.6-.55-.89-.82l8.37.35c.02.27-.98.59,2.82.72,2.87.1,4.17.31,4.05.67-.33.2-3.67.1-2.04.47.58.13,1.9.31,2.77.33,2.93.08,1-.33,1.64-.49.36-.09.63-.19,1.17-.26,1.05-.12,4.13-.11,2.98-.37-1.32-.3-3.53.02-5.54-.12l.02-.5c7.94.19,15.62.6,23.22.95-1.25.53-2.07,1.19-8.6.58-1.08-.11-2.82-.12-3.27.09-.48.22.87.32,2.36.4.47.3.95.6,1.24.92l-2.17.09,1.74.28c-5.19.21-10.04-.04-14.57-.67-1.17-.39-3.47-.88-5.87-.66-4.58.44-12.76-.99-15.84-.16-4.41-.53-9.09-.66-13.62-1.04.23-.6-3.24-.95-6.16-1-2.61-.04-4.14-.24-6.06-.57.72-.49,5.28.3,7.13.1.7-.07,2.98.65,4.03.34.64-.19-1.61-.57-3-.88-1.41-.31-2.53-.43-4.53-.39-2.51.03-5.42-.03-7.59-.8-1.3-.46-3.73-.44-5.16-.44-2.49-.03-.51.32.92.61,2.25.45,4.48.92,4.01,1.32l-1.47.03c-2.49-.92-7.43-1.15-11.6-1.66-1.62-.21-5.38-.37-4.21-.91.28-.12-4.8-.45-4.97-.3-.35.33-1.7.14-3.53-.08l-1.35-.17c-2.54-.19-5.56-.33-4.43-.9,1.32-.23,1.27-.22-.85-.62-.93-.18-2.16-.46-2.35-.6-.66-.47,3.11.17,3.75-.02,3.84.45,7.93.55,11.11,1.59.81.28,3.29.29,3.14.22-.64-.33,4.67.16.97-.54.18-.15.59-.14,2.12.06,5,.63,10.01,1.41,15.15,1.56.6,1.37,6.44.84,9.76,1.17,3.86.31,6.74.03,10.82.43-.98.29-3.94.61,2.9.79Zm16.01,1.52l-.8.12c.35.04.75.09,1.04.1.26,0,.39-.05.6-.09-.29-.05-.56-.09-.84-.13Z"/><path d="m197.99,3.58c-4.85.45-10.78.76-15.25,1.29-3.97.1-10.01.79-14.71,1.16-1.34.11-1.85.16-2.8.28-2.92.35-3.61.8-.38.56,3.41-.25,4.48-.27,5.36-.23.91.04,2.59.03,5.82-.44.35-.05,1.69-.18,2.27-.22,5.58-.41,10.95-.81,16.46-1.22,12.67-.84,25.36-1.54,38.05-2.07l-.04-.18c-1.07.05-1.94.07-2.19,0-1.89.11-4.14.24-5.7.33-3.76.18-8.36.56-11.34.5-1.78-.07-14.71.53-17.33.81-.43.04-.89.11-.82.12.64.14-1.8.22-2.91.26-1.33.03-2.16.05-3.31.07-.66.02-2.71.22-2.52.15.12-.05,1.3-.18,2.89-.32,3.32-.29,8.03-.58,8.45-.86Z"/><path d="m14.39,58.77c3.06,1.47,6.71,3.12,8.92,3.51-.87-.42-1.95-1.03-2.58-1.26-2.42-.9-4.74-1.78-6.21-3.07-1.2-1.06.82-.2,2.34.26,2.68.81,4.54,1.83,6.5,2.98,1.22.73,3.38,1.65,4.52,1.9,3.84.94,5.34,1.88,7.47,2.88,1.4.52,3.25.95,3.53,1.35.06.08-.64,0-.9-.08-1.88-.58-1.85-.85-2.62-1.27l-4.29-.47c1.19.79,2.7,1.36,4.3,1.86,1.61.48,3.34.81,4.99,1.23-.01-.28.26-.39,2.63.22,0-.18.27-.3-.03-.54-.9-.75,2.97.37,4.2.45.34.02,1.15.19,1.36.38.42.39-.92.16-2.42-.09-.85-.14-.32.35-.41.55,1.35.14,4.96,1.44,5.46,1.03-.46-.18-1.77-.53-.45-.35l.41.34c1.86.57.6.74,2.96,1.29.83.19,1.59-.02,2.38-.04,0-.16.32-.22,1.46-.04-.05-.07-.1-.14-.17-.21l-1.24-.29c-1-.35-3.1-1-3.84-1.34-.74-.35-.14-.27,4.28.59.58.11.89-.04,1.33-.07-3.79-.81-7.8-1.52-11.06-2.93-.39-.17-5.53-1.09-8.86-2.11-.98-.06-2.12-.38-4.11-1.03-5.83-1.87-11.6-4.63-17.07-6.68-1.87-1.49-5.84-2.96-7.67-4.66-.88-.8-1.67-1.53-2.51-2.3-.83-.77-1.71-1.56-2.67-2.62-1.32-1.45-1.74-2.83-1.78-3.7-.03-.44.07-.77.15-.98.12-.21.26-.31.4-.31.08-1.83,1.28-3.57,2.77-5.03-.47-.05.67-1.45,1.63-2.42-1.39.68-2.67,1.63-3.1,1.75-.4.16-.1-.78,2.5-2.99.68-.54.12-.36-.63.12-1.01.96-2.34,2.04-3.46,3.37-1.13,1.3-1.93,2.98-2,4.3-.08,1.53.24,2.51.42,3.2.2.68.34,1.06.38,1.33.08.54-.17.55-.14.98.24.49.55.93.84,1.38.26,0,.81.67,2.01,1.91.33-.04,1.18.72,2.47,1.73l.09-.3c1.24,1.01.96.95.87,1.07,2.33,2.16,6.48,4.44,6.63,5.22Z"/><path d="m274.85.53c-1.76.02-3,.12-3.92.23-1.94.23-4.33.46-.7.62,5.71.25,5.95-.25,8.92-.37l5.44.15c1.27.18,3.13.17,5.08.16,1.95,0,3.99-.02,5.64.07l.06.26c-3.15-.06-6.8.17-9.15-.02-2.97-.26-6.06-.18-9.53-.11-13.68.35-27.41.71-41.18,1.07-.25-.1-.23-.19,1.48-.32l2.64-.1,1.37.04c.42.03.83.02,1.24-.04,8.69-.34,9.9-.47,6.58-.77-.1,0-.13-.02-.19-.03-7.68.49-9.75-.18-17.26.32-3.12.2-7.27.44-8.12.2,2.05-.11,4.34-.48,5.03-.39,1.31.18,3.45-.05,5.54-.15,7.47-.35,14.76-.58,22.44-.84,5.46-.19,11.02-.26,16.61-.36,5.59-.04,11.21-.09,16.81-.13,2.23,0,5.78-.06,5.95.27-1.31.21-3.42.21-5.74.06-2.81-.16-4.71-.04-6.45.13-2.88-.08-5.77-.17-8.57.07Zm-13.69.91c-.06-.1-.85-.27-3.08-.16-2.16.11-5.32.33-5.43.44-.23.22,2.57-.07,3.58-.04,1.96-.09,5.11.06,4.93-.24Zm-6.42-.69c-1.41.03-3.93.12-4.02.29-.05.1.87.16,2.37.11,1.61-.08,3.18-.15,5.26-.25-1.54-.07-2.5-.17-3.62-.15Zm8.32.47h.82s-.11-.04-.11-.04c-.61.01-.64.03-.72.04Z"/><path d="m204.45,3.1c-3.4.2-6.05.2-9.88.06-5.56-.18-12.49.14-18.81.35-3.16.09-6.55-.05-9.5.35l-.02.53c.7.22,2.51.56.38.71-6.3.44-5.43,1.39-9.78,1.95,2.32-.09,4.38-.27,6.2-.51.23-.01.44-.03.6-.06.23-.25-.77-.54,1.75-.72,1.98-.14,3.4-.08,3.69.22l.33.06-.3-.07c-2.93-.09-3.01.49-5.44.51-.15.03-.21.07-.18.1,2.79.49,6.17-.16,9.2-.14,3.86-.64,7.95-.71,12.1-.3,1.24.12,2.05.31,3.43-.05,2.12-.54,5.21-.42,8.19-.28,4.25-.45,2.28-.93,1.24-1.41-.27-.12-1.17-.29.33-.39,1.28-.09,2.03.04,2.55.18l1.51-.03c-.8-.4,3.24-.65,2.4-1.06Z"/><path d="m255,87.01c2.7.3,5.5.47,9.21.17,4.63-.58,9.53-.72,14.78-.39.99-.25,2.85-.36,4.51-.49l2.78.07c-.34-.15-.85-.45-.98-.44-2.54.12-4.66.05-6.76-.04-2.1-.11-4.18-.22-6.63-.16-3.56.09-6.81.11-7.78-.43-.03-.02-.39-.02-.59-.03-.67.07-1.34.14-2.02.21.6.61-2.99.62-5.73.58-9-.16-18.05.29-27.18-.1-5.5-.23-5.81-.07-3.18-.73.8-.2,1.32-.42,1.98-.63-5.23.1-11.31-.27-15.54.39.99.06,1.94.15,2.96.17,1.68.04,4.1-.33,4.83.06.3.16-2.34.44-4.02.6-.89.09-2.57.04-3.9.05-1.11,0-2.32-.01-2.86.14-.7.2.46.32,1.61.42,1.8.16,2.28.53,5.08.53,3.54.4,7.43.61,12.08.46,5.32-.48,11.53-.51,17.79-.5-.08-.15.19-.33,1.33-.33,1.99,0,.72.25,1.16.38,2.64-.52,5.36-1.16,7.06.03Z"/><path d="m239.62,2.18l1.37.04.62-.02.62-.02c8.69-.34,9.9-.47,6.58-.77-.1,0-.13-.02-.19-.03-7.68.49-9.75-.18-17.26.32-3.12.2-7.27.44-8.12.2-2.26.25-6.31.41-8,.69,2.17.02.06.36-1.08.42-3.33.18-1.31-.11-1.79-.19-.1-.02,0-.05,0-.07-2.55-.05-6.88.46-9.73.54-1.75.19-3.3.29-4.65.3-.43.28-5.14.58-8.46.86-1.59.14-2.77.27-2.89.32-.19.08,1.86-.13,2.52-.15,1.16-.03,1.98-.04,3.31-.07,1.11-.04,3.56-.12,2.91-.26-.07-.02.38-.08.82-.12,2.62-.28,15.55-.88,17.33-.81,2.98.06,7.59-.32,11.34-.5,1.56-.09,3.81-.22,5.69-.33,1.83-.15,1.92-.07,2.19,0l.04.18,2.69-.09c-.25-.1-.23-.19,1.48-.32.33-.05.58-.14,1.02-.16,1.43-.07,1.44,0,1.62.06Z"/><path d="m144.67,7.4l-.1-.21c-1.12-.36-2.01-.74-3.41-1.06-2.99-.71-8.41-.47-12.78.54-.54.13-.81.29-1.48.38-2.5.36-2.62.98-.11,1.03q1.05.02,1.61-.42c.27-.2.17-.45,2.07-.58.58-.04,1.24.14,1.86.22,3.58-.08,3.37.37,4.2.68-4.06.47-8.22.7-12.43.9,1.69-.7-2.44-.54-4.42-.64l-2.09.54c-1.42.17-2.84.37-4.26.58-.07-.04-.09-.09-.07-.14,2.54-.91-1.56-1.05-1.5-1.67l2.59-.28s.02.07.15.07c1.85,0,1.57.66,3.81.35,3.3-.45-.44-.56.16-.93l1.51-.53c3.15-.24,6.33-.49,9.49-.73,3.16-.19,6.31-.38,9.4-.38l2.67-.14.13.36-.56.13.74-.11,1.68-.1c.86-.01,2.07.09,2.03-.2l2.71-.3-.37.08-.42-.04c1.88.33,6.51.07,7.85.7.63.3,6.45-.51,9.62-.86.53-.06.86-.15,1.28-.23.7.22,2.51.56.38.71-6.3.44-5.43,1.39-9.78,1.95-4.2.36-8.26.53-12.17.35Zm-18.06-.88c-.13-.09-.43-.16-.67-.24-.18.06-.49.14-.5.19,0,.08.2.15.36.24.39-.09.85-.16.81-.19Z"/><path d="m42.99,68.81c-2.37-.61-2.64-.5-2.63-.22.73.23,1.46.49,2.19.69l1.72.44c2.11.64,4.19,1.28,6.33,1.81,2.13.56,4.31,1.07,6.62,1.44,1.88.33,4.58.9,6.78,1.51,2.4.72,7.05,1.58,7.85,1.67,8.44.91,16.47,2.45,24.48,3.84,2.94.49,4.84.49,7.27.77,12.39,1.51,24.81,2.71,37.24,3.68,1.33.11,2.7.29,3.48.13.23-.6-3.24-.95-6.16-1-2.61-.04-4.14-.24-6.06-.57-.92.15-2.67-.04-4.18-.16l-1.47.03c-2.49-.92-7.43-1.15-11.6-1.66-1.62-.21-5.38-.37-4.21-.91.28-.12-4.8-.45-4.97-.3-.35.33-1.7.14-3.53-.08-.46.11-.93.04-1.38-.18-2.51-.18-5.53-.32-4.4-.89-.68-.09-1.36-.19-2.04-.29-2.16-.04-4.39-.11-7.29-.87-2.5.02-4.97.23-7.95-1.18l-3.88-.69c-.92.29-3.48-.35-5.58-.72-3.07-.54-2.47-.75-2.64-1.02-3.65-.1-7.15-1-10.57-2.22-.79.02-1.55.23-2.38.04-2.36-.56-1.09-.72-2.96-1.29-.46.41-4.07-.89-5.42-1.03l-2.7-.75Z"/><path d="m88.72,9.99c-1.95-.04-4.09.05-6.88.83,1.66.04,3.29.1,1.43.74-1.46.5-2.68.21-4.28.57-2.21-.23-3.37.32-4.73.86-1.55.6-3.1.97-4.27.7-3.79.8-3.13,1.13-3.74,1.61.64.28,3.74-.13,5.28-.11,2.6-.08,5.97-.57,9.15-1.23,2.39-.5,4.48-.83,6.81-1.06,2.34-.55-.21-.85,3.89-1.43,3.05-.41,2.59.07,3.11.28l2.7-.4c-.23-.23-.62-.45-.62-.71,0-.17,1.25-.39,2.41-.53,1.02-.12,1.79-.12,1.23.08-.84.29-3.19.74-.66.62.63-.03,2.8-.63,4.26-.95.46-.11.69-.3,1.67-.25l-1.7.25c1.11.61,4.48.04,8.01-.5,1.03-.71-4.41-.44-4.09-1.02-5.81.99-5.8.52-5.42-.06-2.34.39-4.31.24-6.71.72.43.57-2.1,1.43-6.15,1.91-5.61.69,1.73-.8-.24-.81-.27,0-.33-.06-.48-.09Z"/><path d="m403.03,74.09c.73-.16,1.44-.39,2.15-.58l4.11-1.33,1.52-.45s-.1-.06-.17-.09c-.92.2-1.38.25-.65-.07.11-.05.47-.16.6-.19,1.2-.24-.02.19,0,.27,1.09-.28,2.02-.59,2.78-.91.77-.31,1.39-.6,1.85-.87,1.45-.9,3.49-1.54,5.13-2.08,1.63-.53,2.91-.81,2.89-.71-.06.32.74.16,1.87-.19.56-.17,1.21-.39,1.86-.61.65-.25,1.31-.5,1.91-.73,2.91-1.49,5.8-2.92,8.66-4.6,1.26-.72,3.72-2.01,2.89-1.89-.68.12-3.26,1.68-3.98,1.93-2.2.86-5.26,2.95-6.72,2.92-1.66.68-3.6,1.54-3.98,1.34-1.41.54-2.9,1.14-3.87,1.32l-2.33.85c-.79.27-1.58.5-2.37.75-1.58.49-3.16.98-4.73,1.46-3.12.89-6.02,1.76-8.91,2.7-2.92.83-5.88,1.61-9.1,2.25l.07.36c1.57-.38,3.21-.8,4.08-.77-.05.23-.06.44-2.47,1.02l1.24.19,5.66-1.31Z"/><path d="m6.28,34.59c.75-.48,1.3-.65.63-.12-2.6,2.21-2.91,3.15-2.51,2.99.43-.12,1.71-1.07,3.1-1.75.66-.5,1.35-.98,2.06-1.43l-.32-.42-.31.1.3-.09c2.02-1.11,6.33-3.66,6.32-2.79,3.41-1.7,6.83-2.44,10.56-4.47.54-.29,3.09-1.03,3.31-.81,1.26-.44,2.53-.84,3.79-1.26,1.49-1.02,6.29-2.64,5.16-2.99-.05-.01.81-.35,1.25-.52,3.16.19,4-1.45,6.32-1.87-.03-.05-.04-.11-.05-.17-6.91.9-8.23,2.31-10.35,3.6l-.49.2.52-.2c-1.35.31-3.76,1.12-3.84,1.03-1.08-1.02-5.59,1.44-9.31,3.11-3.92,1.69-8.24,3.93-11.83,5.31-.86.39-1.27.48-1.84.67-.56.2-1.27.5-2.63,1.52l.15.35Z"/><path d="m220.79,4.3l-2.52-.17c-6.16-.07-6.08-.66-5.44-1.3-2.03-.2-1.92.16-2.91.23,1.83.83-1.18,1.61-6.77,1.76,1.29.42,1.4.86.01,1.32,1.42.43,2.6.11,3.83-.06-.82-.09-1.02-.23.08-.27,1.51-.04,1.26.17,1.42.31,3.26.6,8.05.13,11.51.08,5.67-.08,11.86.19,17.23-.33l-.04-.27-3.94-.07c-1.24.35-2.36.18-3.48.02l-4.68-.34c-.34.25-.62.53-3.15.5-1.7-.01-2.68-.19-3.49-.38-1.9-.45.68-.72,2.34-1.04Z"/><path d="m429.75,63.92c1.46.03,4.52-2.05,6.72-2.92.72-.25,3.3-1.82,3.98-1.93.84-.12-1.63,1.17-2.89,1.89-2.86,1.68-5.75,3.11-8.66,4.6l1.19-.23,1.46-.63c3.87-2.15,9.04-4.38,13.19-7.25.9-.81.56-.79-.02-.61-1.04.25.22-.62,2.74-2.56l-.05-.15c-.05-.09.09-.31.43-.66.35-.33.86-.82,1.55-1.49.29-.27.54-.56.77-.85-.35.21-1.66,1.37-.22-.38l-.18-.02c-2.51,2.74-5.77,4.81-9.09,6.7-3.35,1.86-6.82,3.58-10.36,5.19,1.28-.19,3.54-.8-.57,1.29Z"/><path d="m320.43,85.23c1.61-.11,1.5.62,4.34-.09,2.13-.53,4.2-.09,6.33-.36.56-.69,3.47-.81,6.53-.8,2.6,0,4.72-.27,6.65-.66,2-.4,2.86-.73.7-.87-2.87.2-5.52.17-8.59.55-4.77.63-7.43.85-9.86.99-2.43.13-4.62.12-8.48.08-.18,0-.55,0-.6.01-3.88.87-9.89.15-13.86.91.39.29.45.62,3.17.67.08-.23.72-.28,2.57-.33,3.91-.08,7.58-.1,11.08-.11Z"/><path d="m429.75,63.92c4.11-2.08,1.84-1.47.57-1.29-1.42.53-2.61.92-3.93,1.45-1.34.47-2.81,1.06-4.74,2.03-.7.35-1.59.74-2.62,1.13-1.04.35-2.21.72-3.44,1.1-1.23.38-2.51.77-3.78,1.16-1.29.35-2.56.7-3.77,1.03-1.61.46-3.24.93-4.88,1.4-1.66.4-3.34.8-5.01,1.21-1.68.38-3.35.81-5.04,1.13-1.69.31-3.38.6-5.06.87-2.94.47-4.86.88-4.47,1.25.39.39,2.75-.1,5.39-.69,1.83-.37,3.67-.71,5.49-1.11,3.22-.64,6.18-1.42,9.1-2.25,2.89-.95,5.79-1.82,8.92-2.7,1.57-.48,3.14-.97,4.73-1.46.79-.25,1.59-.49,2.37-.75l2.33-.85c.72-.35,1.51-.8,2.15-1.03,1.42-.51,1.61-.4,1.72-.28.37.2,2.32-.66,3.98-1.34Z"/><path d="m35.53,22.6c2.12-1.29,3.44-2.71,10.35-3.6,1.76-.53,3.52-1.11,5.29-1.6,1.39-.47,2.85-.95,2.42-1.14-1.31.08-2.78.39-4.25.79-1.47.42-2.96.9-4.33,1.26-5.22,1.46-10.44,2.99-15.57,4.82-5.13,1.86-10.18,3.94-15.07,6.44-2.61,1.37-2.89,1.74-3.78,2.47,3.59-1.38,7.91-3.62,11.83-5.31,3.72-1.67,8.22-4.13,9.31-3.11.08.09,2.49-.72,3.8-1.02Z"/><path d="m227.41,84.6c-.65.21-1.18.43-1.98.63-2.63.66-2.33.5,3.18.73,9.13.4,18.18-.05,27.18.1,2.74.04,6.33.04,5.73-.58-5.11-.56-10.69-.5-16.83-.13-3.96.23-6.98.11-6.22-.58-3.98.31-7.29-.21-11.07-.18Z"/><path d="m303.61,85c3.97-.76,9.98-.04,13.86-.91.05-.01.41-.02.6-.01,3.86.04,6.05.05,8.48-.08,2.42-.14,5.08-.36,9.86-.99,3.07-.39,5.72-.36,8.59-.55-1.26-.46-2.64-.9-7.37-.81l-3.43.62c-1.25.47-3.21.58-5.99.67-3.39.12-7.48.42-10.41.55-5.92.23-11.16,1-16.81.88l1.52.67c.38,0,.75-.02,1.11-.03Z"/><path d="m372.58,78.44c-.84.37-1.61.72-1.28.87.17.08.6.1,1.44.05.84-.07,2.07-.23,3.83-.49,2.27-.34.88.1.73.26-1.71.42-3.52.78-5.23.97-1.71.19-3.31.29-4.56.34-6.37.27-7.74.91-9.04,1.65l-1.29.17c-4.19.13-11.03.68-4.64-.86,1.15-.28,1.09-.57,1.59-.85l5.36-.56c1.79-.19,3.56-.45,5.34-.66,2.3-.28,4.03-.52,4.22-.88,1.32-.16,2.65-.29,3.97-.47-.13.15-.05.29-.44.47Zm-11.3,1.92c-.14,0-.38.03-.71.13.2-.02.39-.04.71-.13Z"/><path d="m340.68,7.22c1.95.8,9.15,1.16,9.03,1.92-.06.37-2.99.35-4.27.63-1.33.28-6.79-.36-11.12-.95-1.95-.26-3.79-.66-5.73-.88-1.88-.23-4.16-.78-5.56-.6-1.5.19,3.71.54,2.71.83,6.31,1.29,14.33,1.49,20.83,3.05,2.05.49,1.67-.11,3.35.07,1.65.04-5.55-1.37.42-.62,2.09-.25,7.37.35,6.71-.52-1.23-.27-2.83-.56-3.61-.79-1.95-.6-1.76-1.54-6.99-1.49-.02,0-.48-.13-1.06-.28-.59-.15-1.31-.33-1.88-.44-3.31-.63-6.49-1.03-9.34-1.05.87.85,4.67.6,6.53,1.11Z"/><path d="m358.03,12.48c1.64.31,2.8.62,3.62.96,2.04.86,6.01,1.88,9.21,2.23,2.86.32,5.5.43,5.92,0,.79-.79-2.65-1.97-10.6-3.41-1.94-.35-4.3-1.06-6.47-1.6-2.48-.02-1.63.59.91,1.34,2.58.77,5.02,1.03,6.96,1.07.71,0,3.9.48,3.55.79-.31.28,1.45.94.23,1.01-.75.04-1.14.21-3.28-.18-2.22-.41-3.15-.79-3.36-1.07-.22-.29-.51-.56-2.99-1-2.41-.42-3.66-.47-3.7-.15Z"/><path d="m300.98,84.36c5.66.12,10.9-.65,16.81-.88,2.93-.13,7.03-.42,10.41-.55,2.78-.09,4.75-.19,5.99-.67-4.8-.51-11.87.33-17.73.66-8.76.31-17.69,1.16-26.25.78l-.7.25c1.27.23,5.74.42-1.05.72-2.22.1-3.47.43.36.43,4.03-.27,6.95-1.01,12.15-.75Z"/><path d="m3.1,43.15c-.14,0-.28.1-.4.31-.08.21-.18.54-.15.98.04.87.46,2.26,1.78,3.7.96,1.06,1.85,1.85,2.67,2.62.84.77,1.63,1.49,2.51,2.3,1.83,1.7,5.8,3.18,7.67,4.66,5.47,2.05,11.24,4.82,17.07,6.68,1.99.65,3.12.97,4.11,1.03-5.22-2.13-10.9-4.16-16.92-6.69-3.81-1.62-7.65-3.43-11.21-6.08-1.53-1.16-3.28-2.48-4.74-4.09-1.46-1.58-2.55-3.54-2.39-5.43Z"/><path d="m259.18,5.6h-2.95s-4.38-.5-4.38-.5c-.62,0-1.24,0-1.87-.01-2.02.14-4.05.28-6.07.43,3.58.95,10.7.61,15.82.63,10.18.06,20.45-.34,30.64-.25l2.73-.13c-4.57-.8-9.53-.96-14.91-.37-4.35.2-8.95.57-11.44-.35-.66,0-1.31.01-1.98.02-.47.02-.94.03-1.41.05.02.14.08.2.14.27.14.05.28.09.43.14l-.97-.06-3.79.15Z"/><path d="m443.76,31.48c-3.11-2.25-6.42-4.28-9.99-5.89-1.37-.72-2.75-1.35-4.02-1.98-1.27-.64-2.44-1.24-3.45-1.78-1.93-.81-2.89-1.23-3.86-1.62-2.31-.91-4.6-1.79-6.95-2.62-2.37-.78-4.73-1.67-7.22-2.57-2.59-.92-4.11-.99-4.96-.98,7.16,2.15,14.16,4.77,21.05,7.63,1.71.73,3.44,1.45,5.12,2.25l2.54,1.17,2.49,1.26c1.68.81,3.27,1.76,4.9,2.65,1.58.97,3.17,1.92,4.66,2.99l-.3-.51Z"/><path d="m377.3,79.13c-1.71.42-3.52.78-5.23.97-1.71.19-3.31.29-4.56.34-6.37.27-7.74.91-9.04,1.65,2.61-.19,5.21-.55,7.81-.82,2.6-.31,5.21-.56,7.8-.95,5.18-.81,10.36-1.61,15.44-2.94,2.46-.62,4.09-.51,6.09-1.06,2.75-.72,7.05-1.54,7.42-2.23l-5.66,1.31c-3.09.74-6.23,1.24-9.35,1.82-3.55.76-7.14,1.31-10.72,1.9Z"/><path d="m345.91,2.9c.16-.17-.72-.49,3.63-.04,2.7.31,5.03.52,4.59.16-11.13-1.38-22.32-2.38-33.96-2.5l.06.16.39.14c.22,0,.44,0,.68.02,1.95,0,3.88.02,4.44.3.35.01.7.02,1.06.04,1.37.08,2.73.22,4.09.33.63-.18,2.02-.14,4.21.14,2.41.17,4.94.06,7.11.49.72.13-.38.17-1.58.13l-.11.09,1.3.33c2.37.41,2.62.11,4.09.24Z"/><path d="m357.18,82.26c-4.19.13-11.03.68-4.64-.86,1.15-.28,1.09-.57,1.59-.85-1.98.15-1.34-.1-1.48-.23l-2.65.31c.86.28-2.55.78-2.62,1.11l1.78-.1c-.13.03-.37.1-.38.1-.49,0-.97,0-1.45.01-2.38-.02-.96-.48-1.48-.71-2.72-.21-5.45-.06-8.25.62,4.73-.1,6.1.35,7.37.81,2.16.13,1.3.47-.7.87-1.93.38-4.05.66-6.65.66-3.07,0-5.98.11-6.53.8,3.44-.19,6.9-.55,10.36-.84,1.73-.14,3.45-.28,5.17-.42,1.72-.15,3.43-.3,5.13-.4,2.68-.16,4.07-.49,5.42-.86Z"/><path d="m288.83,85.11c-3.83,0-2.58-.33-.36-.43,6.79-.3,2.32-.49,1.05-.72-1.16.37-3.28.17-4.91.27.18.22-1.05.56-2.06.5-4.97-.29-8.47.42-12.79.44-2.3.31-2.43.08-2.62-.14-2.34-.25-2.92.01-3.6.25.2,0,.56.01.59.03.97.55,4.23.53,7.78.43,2.45-.06,4.52.05,6.63.16,2.1.08,4.23.16,6.76.04.13,0,.64.29.98.44l5.31.18,2.82.12.31-.5c-6.02.07-6.39-.45-5.91-1.07Z"/><path d="m215.58,86.97c-2.8,0-3.28-.37-5.08-.53-1.15-.1-2.31-.22-1.61-.42.54-.15,1.75-.14,2.86-.14,1.33,0,3.01.04,3.9-.05,1.68-.16,4.32-.44,4.02-.6-.73-.39-3.15-.02-4.83-.06-1.03-.02-1.98-.11-2.96-.17-1.29-.29-2.46-.02-3.68-.01-2.05.11-4.23.29-3.63.6,2.33,1.17-4.01,1.15-9.71,1.11.69.26,3.66.22,3.89.54,4.67-.14,9.09.28,13.81.24,3.38-.02,2.65-.27,3.04-.5Z"/><path d="m269.75,85.16c4.32-.02,7.83-.73,12.79-.44,1,.06,2.24-.28,2.06-.5-2.16.05-4.33.1-6.49.15l-6.48.1c-4.32.1-8.64.2-12.96.29-4.34.1-8.9,0-13.2-.11-2.6-.06-4.71.01-6.99.11-.76.69,2.26.81,6.22.58,6.14-.38,11.71-.43,16.83.13.68-.07,1.35-.14,2.02-.21.67-.23,1.25-.5,3.59-.25l2.62.14Z"/><path d="m377.3,79.13c3.58-.59,7.16-1.14,10.72-1.9l.04-.35c-1.46.28-2.75.48-2.56.23.19-.25,1.66-.53,2.99-.79.46-.25.46-.43.46-.61-2.63.59-4.99,1.07-5.38.69-3.45.36-6.98.91-10.56,1.57-.13.15-.05.29-.44.47-.84.37-1.61.72-1.28.87.17.08.6.1,1.44.05.84-.07,2.07-.23,3.83-.49,2.27-.34.88.1.73.26Z"/><path d="m51.17,17.4c-1.77.49-3.53,1.07-5.29,1.6l.04.18h.31s-.29,0-.29,0c-2.33.42-3.16,2.06-6.32,1.87-.44.17-1.3.51-1.25.52,1.13.35-3.67,1.97-5.16,2.99.34.1,1.47-.35,2.51-.65,1.28-.69,3.47-1.34,5.42-1.9,1.47-.3,2.16-1.27,3.07-1,.95.26,3.26-.67,4.64-.91,2.21-.96,3.33-.97,4.18-.86,1.4-.26,3.11-.32,3.86-.97l.53-.41c-1.65.22-2.52.14-4.79.69-1.58.25-1.04-.09-1.22-.22-7.15,1.48.78-.87-.24-.92Z"/><path d="m324.07,2.22c-2.29-.29-4.97-.54-7.15-.86-2.24-.33-5.47-.45-8.59-.47-3.12-.02-6.13.09-7.94.35,3.36,0,7.08.13,4.72.45,3.22.13,6.43.25,9.6.33,3.17.1,6.3.21,9.36.2Z"/><path d="m51.41,18.32c-7.15,1.48.78-.87-.24-.92,1.39-.47,2.85-.95,2.42-1.14,4.04-1.02,8.27-2.4,12.11-2.47.19,0,.25.03.19.08-5.27,1.61-5.53,2.48-5.07,3.22l-3.41.76c-1.65.22-2.52.14-4.79.69.11-.22.11-.41-1.22-.22Zm4.1-1.58c-.87.12-1.65.46-1.36.5.59.07-2.04,1.09,2.04.13,2.02-.53,1.82-.62.31-.45-.31-.07-.33-.25-1-.17Z"/><path d="m31.07,65.5c-1.21-.43-2.08-1.15-3.55-1.39-3.28-.54-3.32-1.21-4.2-1.83-.87-.42-1.95-1.03-2.58-1.26-2.42-.9-4.74-1.78-6.21-3.07-1.2-1.06.82-.2,2.34.26,2.68.81,4.54,1.83,6.5,2.98,1.22.73,3.38,1.65,4.52,1.9,3.84.94,5.34,1.88,7.47,2.88-1.42-.16-2.85-.31-4.28-.47Zm-13.94-6.45s.45.19.48.18c.07-.02.02-.09.02-.14l-1-.4c.15.12.29.23.49.36Z"/><path d="m372.16,5.55c5.48.83,11.16,2.1,16.12,2.76,1.25.19,2.95.71,4.14,1.06,2.18.62,3.66.96,4.9,1.1-2.2-.84-4.73-1.44-7.33-2.05-2.6-.64-5.31-1.08-7.92-1.56-6.77-1.24-13.08-2.61-20-3.24-1-.1-2.23-.26-2.7-.19,1.37.4,3.72.82,6.47,1.02,1.66.12,2.87.28,3.85.45.98.2,1.73.42,2.47.65Z"/><path d="m358.03,12.48c.04-.31,1.3-.27,3.7.15,2.48.44,2.77.7,2.99,1,.21.28,1.14.66,3.36,1.07,2.14.4,2.53.23,3.28.18,1.22-.07-.54-.74-.23-1.01.35-.31-2.84-.78-3.55-.79-1.93-.05-4.38-.3-6.96-1.07-2.54-.76-3.39-1.37-.91-1.34-.87-.28-1.75-.52-2.68-.5.66.86-4.62.26-6.71.52,1.39.39,2.66.77,2.71,1.04l5.01.75Z"/><path d="m56.45,71.84c3.41,1.23,6.92,2.12,10.57,2.22,2.17-.13,8.52,1.18,9.78.68l-.38-.67c-2.3-.56-4.4-.94-6.36-1.04-.32.05.52.37-.9.17l-.37-.4c-.38-.11-.8-.19-1.26-.27-5.47-1.02-4.58.22-9.62-.74-1.14-.18-1.46-.11-1.46.04Z"/><path d="m430.09,65.32l-1.19.23c-.6.23-1.26.48-1.91.73-.66.22-1.3.44-1.86.61-1.13.34-1.93.51-1.87.19.02-.1-1.26.17-2.89.71-1.63.53-3.67,1.18-5.13,2.08-.46.28-1.08.57-1.85.87-.77.31-1.69.63-2.78.91.11.01.16.04.21.07l.03.48c1.64-.38,3.24-.92,4.86-1.38,1.61-.49,3.24-.95,4.84-1.5,3.17-1.2,6.43-2.33,9.54-4.01Z"/><path d="m432.22,22.68c-.32.05.19.39,1.04.9.84.51,2.03,1.16,3.09,1.73,1.14.63,2.3,1.36,3.48,2.05,1.17.73,2.33,1.5,3.47,2.26,2.25,1.58,4.38,3.2,6.13,4.74.6.54,1.12,1.07,1.63,1.57.46.55.92,1.06,1.31,1.62.79,1.12,1.48,2.34,1.92,3.95.26.98.28,1.21.38,1.19.08-.02.15-.28.23-.2-.24-1.87-1.02-3.56-1.99-5.01-.22-.39-.49-.72-.76-1.07-.27-.34-.52-.7-.81-1.02-.59-.61-1.13-1.3-1.78-1.85-2.49-2.33-5.27-4.31-8.33-5.99-1.3-.77-2.81-1.55-4.33-2.44-1.56-.8-3.14-1.7-4.69-2.43Z"/><path d="m9.56,34.28c-.71.45-1.39.93-2.06,1.43-.96.97-2.1,2.37-1.63,2.41,2.41-2.09,5.39-3.85,8.49-5.44,3.1-1.58,6.37-2.98,9.62-4.04,2.62-.87,3.18-1.77,5.44-2.84-.22-.23-2.77.52-3.31.81-3.73,2.03-7.16,2.77-10.56,4.47-1.73,2.01-4.09,1.87-5.99,3.2Z"/><path d="m94.35,78.55c.68.1,1.36.19,2.04.29,1.31-.23,1.27-.22-.85-.62-.93-.18-2.16-.46-2.35-.6-.66-.47,3.11.17,3.75-.02l-2.8-.74-4.43-.75c-3.03-.22-6.06-.47-9.09-.73,6.04,1.49,5.9,1.63-1.51,1.12,2.98,1.42,5.45,1.2,7.95,1.18,2.41.29,3.72-.51,7.29.87Z"/><path d="m194.85,86.69c5.71.03,12.05.06,9.71-1.11-.6-.31,1.59-.49,3.63-.6-.63-.6-3.53-.15-5.25-.24-1.25.53-2.07,1.19-8.6.58-1.08-.11-2.82-.12-3.27.09-.48.22.87.32,2.29.39l.61-.02-.55.03,1.43.9Z"/><path d="m65.7,13.79c.19,0,.25.03.19.08.64.14,4.79-.77,4.09-.19,1.17.28,2.72-.1,4.27-.7,1.36-.53,2.52-1.09,4.73-.86,1.6-.36,2.82-.07,4.28-.57,1.86-.64.23-.7-1.43-.74-5.49.76-11.41,1.27-16.14,2.97Z"/><path d="m147.49,4.78c1.88.33,6.51.07,7.85.7.63.3,6.45-.51,9.62-.86.53-.06.86-.15,1.28-.23l.02-.53c-4.92-.27-9.46.58-14.31.56l-3.57.23c-.47.03-.76.08-.88.14Z"/><path d="m347.19,3.91c-.93-.24-4.45-.75-8.24-1.19-3.8-.37-7.86-.7-9.84-.76-3.92-.09-1.44.33-2.23.49,2.48.07,4.99.12,7.33.48.51.08,2.23.23,2.34.22,3.19-.22,7.15.54,10.64.77Z"/><path d="m340.68,7.22c-1.85-.51-5.66-.25-6.53-1.11-1.9-.58-3.85-.62-5.79-.68-3.27.17-8.34-.59-12.15-.61.74.38.61.76,4.68.78,2.46.03,5.99.45,9.04.75l1.71-.05.52.18-2.13-.1c2.49.42-5.36.72,3.89,1.22.36-.25-.8-.81,2.84-.41.77-.15,4.06.43,3.92.02Z"/><path d="m429.54,21.84c.1-.02-.3-.31.78.18-7.53-3.56-15.67-6.97-22.79-8.39l.14.21c1.74.5,3.45,1.11,5.16,1.7,1.41.47,2.83.91,4.22,1.41l4.18,1.55,2.09.78,2.07.84c1.38.57,2.78,1.1,4.14,1.72Z"/><path d="m316.22,4.83c3.81.02,8.88.78,12.15.61-.37-.66-3.42-.5-4.96-.69-5.89-.78-12.02-1.09-18.02-1.25,1.16,1.13,7.06.88,10.83,1.33Z"/><path d="m218.2,3.55c4.26.02,9.07-.27,11.93.46,1.09.28,2.66.11,2.92-.18.18-.21-.15-.45,1.65-.58.58-.6-3-.41-4.9-.42-4.27-.03-8.6.02-12.9.04.35.23-.73.53,1.3.69Z"/><path d="m196.41,5.81c-2.98-.14-6.07-.27-8.19.28-1.38.35-2.19.17-3.43.05-4.15-.41-8.25-.34-12.1.3,3.86.44,8.67.24,13.36.12,3.46-.11,6.89-.22,10.33-.33l.03-.41Z"/><path d="m150,82.08c-.98.29-3.94.61,2.9.79,3.55.1,5.17.51,6.98.93.9.21.28.59,3.12.6,2.29,0,1.78-.33,1.37-.62-.4-.28-.6-.55-.89-.82-4.49-.26-8.98-.57-13.47-.89Z"/><path d="m102.3,8.27c-.39.58-.39,1.05,5.42.06l4.06-.78,2.59-.28c1.08-.31,2.63-.39,4.12-.52l1.51-.53c.1-.37-1.72-.11-3.15.06-4.88.59-9.72,1.28-14.55,2Z"/><path d="m94.13,76.85l2.8.74c3.84.45,7.93.55,11.11,1.59.81.28,3.29.29,3.14.22-.64-.33,4.67.16.97-.54-5.99-.53-12.41-2-18.02-2.01Z"/><path d="m103.82,9.86c-1.47.32-3.63.92-4.26.95-2.53.12-.18-.33.66-.62.57-.19-.21-.2-1.23-.08-1.17.14-2.41.36-2.41.53,0,.26.39.47.62.71,4.95-.09,10.5-.9,16.02-1.52l.13-.47c-.07-.04-.09-.09-.06-.14l-1.48.14c-3.53.55-6.9,1.11-7.98.5Z"/><path d="m57.91,71.8c5.04.96,4.15-.28,9.62.74-2.7-1.02-5.47-1.9-9.26-2.06-.44.03-.75.18-1.33.07-4.42-.86-5.02-.94-4.28-.59.74.34,2.84.98,3.84,1.34.24-.07.04-.29,1.62.08l-.38.22c.07.07.13.14.17.21Z"/><path d="m179.67,86.42c-1.17-.39-3.47-.88-5.87-.66-4.58.44-12.76-.99-15.84-.16,7.36.53,14.6.8,21.71.81Z"/><path d="m291.6,86.55l-5.31-.18-2.78-.07c.03.43-2.27.46-4.51.49-5.25-.33-10.16-.19-14.78.39.45.18,1.88.34,2.84.27,3.96-.29,8.18-.27,12.36-.32,4.19-.07,8.34-.17,12.19-.58Z"/><path d="m316.12,7.49c-.21-.65-1.09-1.19-6.33-.99-3.89.15-8.74-.95-12.51-.44,5.6,1.05,12.44.95,18.85,1.43Z"/><path d="m452.99,43.94c.26-.82.31-2.15-.2-3.69-.47-1.54-1.49-3.19-2.76-4.73.18.89-1.43-.41-3.69-1.8,1.9,1.91,3.73,3.46,5.08,5.46.27.22.48.53.68.88.23.35.38.76.52,1.19.27.86.39,1.82.35,2.69Z"/><path d="m257.51,2.91c4.76.74,14.66.65,20.6-.2-5.88-.34-11.77,0-17.66.04-.15.38-1.59.25-2.94.16Z"/><path d="m6.8,52.78c-1.28-1-2.13-1.77-2.28-1.57.41.46.82.91,1.26,1.33l.18.41c-.33-.31-.66-.63-.98-.95-.22-.32-.45-.62-.65-.95-1.2-1.24-1.74-1.91-2.01-1.9,1.57,2.28,3.39,3.99,5.34,5.56,1.97,1.55,4.14,2.91,6.73,4.06-.15-.78-4.3-3.06-6.63-5.22-.32-.25-.65-.5-.96-.77Z"/><path d="m245.46,86.93c-6.26,0-12.47.02-17.79.5,2.1.32,4.07.47,7.21.16,3.97-.41,8.91-.06,13.3-.22l-.25-.39c-.81-.02-1.63-.03-2.46-.05Z"/><path d="m203.14,4.82c5.59-.15,8.59-.93,6.77-1.76l-5.46.04c.84.4-3.2.66-2.4,1.06,1.59.17.93.44,1.09.67Z"/><path d="m80.62,75.37c3.03.26,6.06.52,9.09.73-4.49-.96-8.95-1.88-13.28-2.03l.37.67,3.82.63Z"/><path d="m60.83,17.09l-3.41.76-.53.41c4.98-1,10.1-1.71,14.64-3.07-1.54-.03-4.64.38-5.28.11-.95.26-1.75.48-2.55.7-.16.29-.24.56-2.87,1.1Z"/><path d="m196.41,5.81l-.03.41,6.78-.08c1.38-.45,1.28-.89-.01-1.32-3.31,0-2.53-.35-2.61-.64-.53-.14-1.28-.26-2.55-.18-1.5.1-.6.27-.33.39,1.04.48,3.01.96-1.24,1.41Z"/><path d="m6.28,34.59l-.15-.35c-1.95,1.46-4.13,3.15-5.37,5.81l-.23.49-.16.53c-.09.36-.22.7-.27,1.06-.09.73-.15,1.45-.05,2.15.17,1.39.74,2.6,1.43,3.5-.02-.43.22-.44.14-.98-.04-.27-.18-.65-.38-1.33-.18-.68-.5-1.67-.42-3.2.07-1.33.87-3,2-4.3,1.11-1.33,2.45-2.42,3.46-3.37Z"/><path d="m294.73,86.18l-.31.5c5.29.22,10.05-.39,14.92-.76l-2.56-.24c-2.71-.04-2.77-.37-3.17-.67-.37,0-.74.02-1.11.03.01.65-.78,1.31-7.76,1.15Z"/><path d="m354.13,80.54l5.36-.56c1.79-.19,3.56-.45,5.34-.66,2.3-.28,4.03-.52,4.22-.88-2.4.09-4.91.4-7.43.76-2.52.36-5.09.64-7.57.84,0,.17.01.33.09.5Z"/><path d="m306.78,85.67l2.56.24c1.95.03,3.94.1,5.83.06,1.89-.05,3.69-.26,5.26-.74-3.5,0-7.17.02-11.08.11-1.85.04-2.49.1-2.57.33Z"/><path d="m88.72,9.99c.16.03.21.09.48.09,1.97.02-5.37,1.51.24.81,4.05-.48,6.57-1.34,6.15-1.91-2.38.23-4.95.24-6.87,1Z"/><path d="m372.16,5.55c-.74-.23-1.49-.45-2.47-.65-.98-.17-2.2-.32-3.85-.45-2.75-.2-5.1-.62-6.47-1.02-.96-.08-2.19-.23-2.56-.15.77.21,1.54.42,2.32.63,2.11.28,4.21.57,6.3.85,2.1.27,4.2.49,6.28.86l.44-.07Z"/><path d="m305.11,1.69c2.36-.33-1.36-.45-4.72-.45-2.48-.07-4.04,0-5.08.15l.06.26c3.19-.02,6.37-.11,9.74.04Z"/><path d="m444.75,57.44c-4.15,2.87-9.32,5.1-13.19,7.25,2.37-.82,4.62-1.9,6.84-3.09,2.21-1.2,4.37-2.5,6.49-3.89l-.14-.26Z"/><path d="m129.42,80.48c.6,1.37,6.44.84,9.76,1.17-.19-.27.8-.56-3.26-.71-2.03-.09-4.32-.3-6.49-.46Z"/><path d="m94.5,11.74c-.51-.21-.06-.69-3.11-.28-4.1.58-1.56.88-3.89,1.43,3.34.02,4.67-.78,7-1.15Z"/><path d="m243.91,5.51c2.02-.14,4.04-.28,6.07-.43-3.82-.05-4.06-.47-4.61-.87-.32-.23-1.22-.41-3.05-.4-.68,0-1.75.1-1.96.19-.6.24.88.29,2.05.38,4.22.32-3.38.77.29,1.1.38.02.79.03,1.21.03Z"/><path d="m297.79.29c2.7-.12,6.36.62,8.48.05-1.14-.39-1.15-.45-8.48-.05Z"/><path d="m132.34,7.3c3.58-.08,3.37.37,4.2.68,2.8-.13,5.88-.01,8.13-.57l-.1-.21c-2.01,0-5.53.36-5.87.02-.77-.77-3.61-.25-6.36.08Z"/><path d="m124.11,8.88c1.69-.7-2.44-.54-4.42-.64l-2.09.54-1.6.88c2.79-.13,5.2-.82,8.11-.77Z"/><path d="m179.7,84.29l.02-.5c-2.53-.25-5.07-.5-7.88-.46.02.27-.98.59,2.82.72,2.87.1,4.17.31,4.05.67,1.26-.07.88-.27.99-.43Z"/><path d="m446.35,33.72c2.25,1.4,3.87,2.69,3.69,1.8-2.13-1.88-5.52-4.12-6.28-4.04l.3.51c.81.52,1.53,1.15,2.29,1.73Z"/><path d="m218.2,3.55c-2.03-.16-.95-.46-1.3-.69l-4.08-.03c-.64.64-.72,1.23,5.44,1.3l-.06-.58Z"/><path d="m247.92,86.98l.25.39c2.64,0,4.91-.12,6.83-.35-1.7-1.19-4.42-.55-7.08-.04Z"/><path d="m379.64,8.35c.03-.07.3-.11.06-.23-.7-.34,3.2.05-.94-.78-3.68-.64-.56.24-1.13.33-.16.03-1.39-.15-2.13-.24.87.31,1.66.55,4.13.92Z"/><path d="m452.99,43.94c.04-.88-.07-1.83-.35-2.69-.14-.43-.3-.84-.52-1.19-.21-.35-.42-.66-.68-.88.48.8.83,1.66,1.08,2.52.31.97.31,1.84.19,2.29.03,1.62-.5,3.25-1.39,4.72l.66-.86c.6-1.24.97-2.56,1.01-3.91Z"/><path d="m212.39,2.73s-.1.05,0,.07c.48.08-1.54.37,1.79.19,1.14-.06,3.25-.41,1.08-.42l-2.86.16Z"/><path d="m347.39,81.73c.06-.33,3.47-.83,2.62-1.11-1.38.13-2.76.31-4.14.41.52.23-.9.69,1.52.7Z"/><path d="m353.03,11.73c-.05-.28-1.31-.66-2.71-1.04-5.97-.75,1.23.66-.42.62.25.09.59.16,1.02.21l1.78.26c.37.04.48.03.32-.05Z"/><path d="m145.57,5.05l2.71-.3c-1.22-.36-4.52-.08-6.59-.15l-.13.36.13.36c.74-.02,1.3-.05,1.85-.08.2-.21,1.12-.21,2.03-.2Z"/><path d="m198.73,87.23c-.23-.32-3.19-.28-4.07-.52l-2.17.09,1.74.28c1.44.14,2.93.2,4.5.14Z"/><path d="m116,9.65l1.6-.88c-1.42.17-2.84.37-4.26.58l-.13.47,2.78-.17Z"/><path d="m53.03,19.22c-.85-.11-1.97-.1-4.18.86,1.15-.12,1.7.22,4.18-.86Z"/><path d="m409.3,72.18l-4.11,1.33c-.09.46,2.19-.28,4.22-.9l-.11-.43Z"/><path d="m41.14,21.99c-1.95.56-4.14,1.21-5.42,1.9,2.89-.52,4.3-1.22,5.42-1.9Z"/><path d="m198,3.58c1.34-.02,2.9-.12,4.65-.3-1.5.08-2.39-.1-4.65.3Z"/><path d="m451.98,47.85l-.66.86c-.47.7-.96,1.4-1.55,2.03l.18.02c.92-.76,1.62-1.77,2.03-2.91Z"/><path d="m163.49,6.58s.03-.07.18-.1c-.19.03-.4.05-.63.06-.12.13-.24.27-.37.41l.82-.37Z"/><path d="m452.7,43.99c.12-.45.12-1.32-.19-2.29-.27.06.04.77.19,2.29Z"/><path d="m208.48,6.12c-.15-.14.1-.35-1.42-.31-1.1.03-.9.18-.08.27l1.5.04Z"/><path d="m141.56,4.96l.13-.36c-1.4.13-2.36.3-2.8.51l2.67-.14Z"/><path d="m148.37,4.64l3.57-.23c-1.51-.17-2.71-.1-3.57.23Z"/><path d="m354.07,80.54l-.02-.5c-.9.06-1.36.15-1.39.27.14.13-.5.39,1.41.23Z"/><path d="m68.8,72.81l.37.4c1.42.2.58-.12.9-.17-.42-.11-.84-.19-1.27-.23Z"/><path d="m257.52,2.91c1.35.09,2.79.22,2.94-.16-1.24-.05-2.47-.09-2.94.16Z"/><path d="m371.71,5.63c-2.08-.37-4.19-.59-6.28-.86-2.09-.28-4.19-.57-6.3-.85-1.47-.15-2.12-.15-2.26-.05l-.22.33c2.32.28,3.08.46,2.23.56-.4.04-.96.1.58.29.45.05,1.16.13,1.76.19.3.03.57.05.77.07.2.01.31.02.31.01-.22-.52,5.93.26,8.36.36.5.02.71-.02,1.06-.03Z"/><path d="m283.42.46c-2.88-.08-5.77-.17-8.57.07,4.84,0,.89.41,4.29.48l5.44.15c-.7-.23-3.59-.42-1.17-.7Z"/><path d="m426.29,21.83c1.02.54,2.19,1.15,3.45,1.78,1.27.63,2.65,1.26,4.02,1.98-.02-.18.46-.15-.17-.58-.84-.59,2.91,1.07-.39-.63-2.31-1.14-1.96-.69-1.78-.43.08.13-.02.39-1.42-.56-2.57-1.74-2.27-.84-3.7-1.55Z"/><path d="m330.88,1.49c-1.36-.11-2.73-.25-4.09-.33-.54.1-4.05.06-.96.33,3.26.27,4.37.18,5.06,0Z"/><path d="m340.63,2.25c1.19.04,2.3,0,1.58-.13-2.17-.42-4.7-.31-7.11-.49.19.34,3.35.39,5.53.61Z"/><path d="m412.83,15.55c-1.71-.59-3.42-1.2-5.16-1.7.21.31,1.83.88,3.88,1.59,1.59.53,1.13.18,1.28.11Z"/><path d="m450.17,51.13c-.23.29-.48.58-.77.85l.08.3c.6-.56,1.18-1.27,1.67-1.89.45-.66.82-1.23.87-1.62-.24.44-.57.83-.87,1.23-.29.41-.65.77-.99,1.14Z"/><path d="m325.73,1.13c-.55-.28-2.49-.29-4.44-.3l.13.23c1.45.02,2.88.05,4.31.07Z"/><path d="m351.8,4.13c.29.05.57.1.84.15l.78-.02c-.35-.05-.76-.12-1.03-.14-.27-.02-.4,0-.59.01Z"/><path d="m422.43,20.21c.98.39,1.94.81,2.91,1.22-.34-.22-.56-.45-1.05-.66-1.4-.63-1.44-.49-1.86-.55Z"/><path d="m341.82,2.67l-1.3-.33c-2.07,0-.46.16,1.3.33Z"/><path d="m321.42,1.06c-.74-.02-1.81-.09-1.81,0,0,.02.53.08.8.09,1.25.05.9-.05,1.01-.1Z"/><path d="m356.65,4.19l.22-.33c-1.76-.08-1.92.02-.22.33Z"/><path d="m393.22,10.68c-.01-.06-.22-.11-.41-.15.01.06.22.11.41.15Z"/><path d="m447.42,54.12l.05.15c.68-.65,1.38-1.28,1.99-1.98-.62.64-1.34,1.23-2.04,1.83Z"/><path d="m345.94,2.9l.3.07c-.11-.02-.23-.05-.3-.07Z"/><path d="m320.61.81l-.39-.14c-1.19.02-.94.07.39.14Z"/><path d="m220.79,4.3c-1.65.31-4.23.59-2.34,1.04.81.19,1.79.36,3.49.38,2.52.02,2.81-.25,3.15-.5-1.31-.29-1.97-.6-.85-.95.51-.16.39-.32-1.1-.33-1.79-.02-2.07.18-2.34.37Z"/><path d="m336.76,7.2c-3.64-.39-2.48.16-2.84.41,1.34.19,3.25.29,3.39.69.07.2,1.35.59,2.55.68,1.23.1,2.38.02,2.84-.1.76-.21-1.61-.39-2.34-.57-1.42-.36-2.42-.74-3.6-1.11Z"/><path d="m266.76,5.03c2.48.92,7.09.55,11.44.35-3.18-.5-6.79-.74-11.44-.35Z"/><path d="m263.38,5.1c.47-.02.94-.03,1.41-.05.24-.05.38-.13.72-.16,2.62-.24,4.36-.51,1.66-.92-.71-.11-2.65-.22-2.32-.03.78.45-7.83.65-1.47,1.16Z"/><path d="m233.25,5.53l3.94.07c.04-.26,3.32-.64-.17-.75-2.58-.08-4.39.25-3.77.68Z"/><path d="m251.85,5.1l4.38.5c-.11-.23,2.25-.47.25-.66-1.6-.15-3.32-.04-4.62.16Z"/><path d="m328.31,7.17c-.78-.16-1.25-.3-1.71-.35-.5-.05-1-.02-1.49-.02.41.1.79.23,1.25.29.48.06,1.05.05,1.96.08Z"/><path d="m259.18,5.6l3.79-.15c.18-.03.36-.05.55-.08l-.17-.19c-1.7.08-4.2,0-4.16.42Z"/><path d="m229.77,5.55c1.12.15,2.24.33,3.39-.01h-3.39Z"/><path d="m320.02,7.32c-.38-.08-.58-.07-.77-.05.14.03.28.06.77.05Z"/><path d="m127.93,82.84c1.52.12,3.26.31,4.18.16.72-.49,5.28.3,7.13.1.7-.07,2.98.65,4.03.34.64-.19-1.61-.57-3-.88-1.41-.31-2.53-.43-4.53-.39-2.51.03-5.42-.03-7.59-.8-1.3-.46-3.73-.44-5.16-.44-2.49-.03-.51.32.92.61,2.25.45,4.48.92,4.01,1.32Z"/><path d="m179.7,84.29c-.11.16.27.36-.99.43-.32.2-3.67.1-2.03.47.58.13,1.9.31,2.77.33,2.93.08,1-.33,1.64-.49.36-.09.63-.19,1.17-.26,1.05-.12,4.13-.11,2.98-.37-1.32-.3-3.53.02-5.54-.12Z"/><path d="m169.75,84.52c-.29-.05-.56-.09-.84-.13l-.8.12c.35.04.75.09,1.04.1.26,0,.39-.05.6-.09Z"/><path d="m102.16,79.91l-1.35-.17c.44.06.91.12,1.35.17Z"/><path d="m232.77,2.5c-.28-.06-.37-.14-2.19,0,.25.06,1.12.04,2.19,0Z"/><path d="m42.99,68.81l2.7.75c.09-.21-.44-.69.41-.55,1.5.25,2.84.48,2.42.09-.21-.19-1.02-.36-1.36-.38-1.22-.09-5.1-1.21-4.2-.45.3.25.03.37.03.54Z"/><path d="m35.36,65.97c.77.42.74.69,2.62,1.27.26.08.96.15.9.08-.28-.4-2.13-.83-3.52-1.35Z"/><path d="m6.8,52.78c.31.27.64.51.96.77.08-.12.36-.06-.87-1.07l-.09.3Z"/><path d="m57.74,71.59l.38-.22c-1.57-.36-1.38-.15-1.62-.08l1.24.29Z"/><path d="m51.12,70.59l-.41-.34c-1.31-.18,0,.17.41.34Z"/><path d="m279.15,1.02c-3.4-.07.55-.49-4.29-.48-1.76.02-3,.12-3.92.23-1.94.23-4.33.46-.7.62,5.71.25,5.95-.25,8.92-.37Z"/><path d="m256.23,1.68c1.96-.09,5.11.06,4.93-.24-.06-.1-.85-.27-3.08-.16-2.16.11-5.32.33-5.43.44-.23.22,2.57-.07,3.58-.04Z"/><path d="m258.36.91c-1.54-.07-2.5-.17-3.62-.15-1.41.03-3.93.12-4.02.29-.05.1.87.16,2.37.11,1.61-.08,3.18-.15,5.26-.25Z"/><path d="m239.62,2.18c-.19-.06-.2-.14-1.62-.06-.45.02-.69.11-1.02.16l2.64-.1Z"/><path d="m263.78,1.19c-.44.04-.17.04.11.04l-.11-.04Z"/><path d="m242.23,2.17l-.62.02-.62.02c.42.03.83.02,1.24-.04Z"/><path d="m169.08,5.97c-.29-.3-1.71-.36-3.69-.22-2.52.18-1.52.47-1.75.72,2.46-.02,2.54-.6,5.44-.5Z"/><path d="m200.54,4.19c.07.28-.7.64,2.65.64-.21-.23.46-.5-1.14-.67l-1.51.03Z"/><path d="m169.1,5.97l.3.07c-.11-.02-.22-.04-.3-.07Z"/><path d="m245.46,86.93l2.49.05c-.44-.13.83-.38-1.16-.38-1.13,0-1.41.18-1.33.33Z"/><path d="m278.99,86.8c2.24-.04,4.54-.07,4.51-.49-1.66.14-3.53.24-4.51.49Z"/><path d="m132.34,7.3c2.75-.34,5.6-.85,6.36-.08.34.34,3.86-.01,5.87-.02-1.12-.36-2.01-.74-3.41-1.06-2.99-.71-8.41-.47-12.78.54-.54.13-.81.29-1.48.38-2.5.36-2.62.98-.11,1.03q1.05.02,1.61-.42c.27-.2.17-.45,2.07-.58.58-.04,1.24.14,1.86.22Z"/><path d="m111.8,9.35l1.48-.14c2.54-.91-1.56-1.05-1.5-1.67l-4.06.78c-.33.59,5.12.32,4.09,1.02Z"/><path d="m118.49,6.74c-1.49.12-3.03.21-4.12.52.04.02.01.07.15.07,1.85,0,1.57.66,3.81.35,3.3-.45-.44-.56.16-.93Z"/><path d="m125.81,6.71c.39-.09.85-.16.81-.19-.13-.09-.43-.16-.67-.24-.18.06-.49.14-.5.19,0,.08.2.15.36.24Z"/><path d="m145.57,5.05c-.91-.02-1.83-.02-2.03.2.86-.01,2.08.09,2.03-.2Z"/><path d="m141.69,5.32l-.56.13c.25-.04.49-.07.56-.13Z"/><path d="m80.62,75.37l-3.82-.63c-1.26.5-7.61-.8-9.78-.68.16.27-.43.48,2.64,1.02-1.24-.57,1.02-.32,2.45-.16,1.74.2,2.52.59,3.13.88l3.88.69c7.41.52,7.55.37,1.51-1.12Z"/><path d="m75.24,75.8c-.62-.29-1.39-.68-3.13-.88-1.43-.16-3.69-.41-2.45.16,2.1.37,4.66,1.01,5.58.72Z"/><path d="m94.35,78.55c-3.57-1.38-4.88-.58-7.29-.87,2.9.76,5.13.84,7.29.87Z"/><path d="m102.18,79.91l-1.4-.18c.44.22.91.29,1.4.18Z"/><path d="m60.83,17.09c2.63-.54,2.71-.8,2.87-1.1-.47-.27.93-.47,2.41-.66.76-.52.09-.85,3.88-1.65.7-.58-3.45.33-4.09.19-5.27,1.61-5.53,2.48-5.07,3.22Z"/><path d="m103.79,9.85l1.7-.25c-.98-.05-1.2.14-1.7.25Z"/><path d="m388.95,76.24c-.62.27-.76.45-.91.64,1.36-.27,2.71-.53,4.06-.8l2.02-.4,2-.47c2.41-.58,2.42-.8,2.47-1.02-1.44.3-3.18.78-4.08.77-1.85.46-3.71.85-5.57,1.28Z"/><path d="m396.13,75.21l-2,.47-2.02.4-4.04.79-.04.35c3.12-.58,6.26-1.08,9.35-1.82l-1.24-.19Z"/><path d="m388.95,76.24c1.86-.43,3.72-.82,5.57-1.28l-.07-.36c-1.82.4-3.66.74-5.49,1.11v.53Z"/><path d="m425.77,65.26c-.11-.12-.3-.23-1.72.28-.64.23-1.43.68-2.15,1.03.97-.18,2.46-.78,3.87-1.32Z"/><path d="m394.52,74.96c.9.01,2.64-.47,4.08-.77-.87-.03-2.5.39-4.08.77Z"/><path d="m410.6,71.65c-.02-.09,1.2-.52,0-.27-.13.03-.5.14-.6.19-.73.32-.27.27.6.09Z"/><path d="m9.56,34.28c1.9-1.33,4.26-1.19,5.99-3.2,0-.87-4.3,1.68-6.32,2.79.12.13.23.27.33.41Z"/><path d="m35.57,22.6l-.52.2c.16-.06.33-.13.52-.2Z"/><path d="m9.22,33.88l-.3.09c.1-.03.21-.07.3-.09Z"/><path d="m447.42,54.12c.7-.6,1.42-1.18,2.06-1.84l-.08-.3c-.69.66-1.2,1.15-1.55,1.49-.34.34-.48.56-.43.66Z"/><path d="m294.73,86.18c6.99.16,7.78-.5,7.76-1.15l-1.52-.67c-5.19-.26-8.12.48-12.15.75-.48.62-.12,1.14,5.91,1.07Z"/><path d="m360.57,80.49l.59-.05c-.02-.07-.26-.05-.59.05Z"/><path d="m262.97,5.45l.97.06c-.14-.05-.29-.1-.43-.14-.18.03-.37.05-.54.08Z"/><path d="m347.35,81.74c.48,0,.95,0,1.45-.01.01,0,.25-.07.38-.1-.59.04-1.19.07-1.83.11Z"/><path d="m269.75,85.16l-2.62-.14c.18.22.31.46,2.62.14Z"/><path d="m388.05,76.88c.15-.19.29-.37.44-.56-1.32.26-2.8.54-2.98.79-.19.25,1.1.05,2.54-.23Z"/><path d="m52.63,18.54c.11-.22.11-.41-1.22-.22.18.14-.36.48,1.22.22Z"/><path d="m45.94,19.17h.29c-.1,0-.21,0-.29,0Z"/><path d="m56.51,16.91c-.31-.07-.33-.25-1-.17-.87.12-1.65.46-1.36.5.59.07-2.04,1.09,2.05.13.1-.15.21-.3.31-.45Z"/><path d="m56.51,16.91c-.1.15-.2.3-.31.45,2.01-.53,1.82-.62.31-.45Z"/><path d="m16.64,58.7c.16.12.29.23.49.36.02.02.45.19.48.18.07-.02.02-.09.02-.14l-1-.4Z"/><path d="m193.42,85.8l.55-.03c-.2,0-.41.01-.55.03Z"/><path d="m330.03,6.39l2.13.1-.52-.18c-.57,0-1.14.04-1.61.08Z"/><path d="m4.99,52c.32.32.65.64.98.95l-.18-.41c-.26-.18-.54-.35-.8-.54Z"/><path d="m5.79,52.54c-.44-.43-.85-.88-1.26-1.33.02.16.24.48.46.79.26.19.54.36.8.54Z"/><path d="m66.11,15.33c-1.48.2-2.88.39-2.41.66l2.41-.66Z"/>
                  </g>
                </mask>
              </defs>
              <path class="mask" d="m376.97,15.14c-8-1.83-20.03-4.33-34.88-6.43-30.17-4.27-53.64-4.3-67.2-4.26-87.33.24-131.83.73-165.81,4.47-33.64,3.71-64.49,8.94-89.04,19.74-8.93,3.93-18.13,8.52-18.22,14.8-.12,8.78,17.26,15.77,24.16,18.54,53.07,21.34,165.63,23.41,173.27,23.52,2.54.04,5.96.08,10.12.12,138.51,1.26,189.45-7.11,224.11-23.26,10.22-4.76,20.27-10.78,20.3-18.48.01-3.68-2.24-12.24-30.85-23.91C388.35,5.9,344.58-.77,259.02,1.32c-24.39.6-57.33,2.04-96.29,5.65"
                    mask="url(#path-mask)" stroke="black" stroke-width="2" fill="none"
                    stroke-dasharray="1161.276123046875" stroke-dashoffset="1161.276123046875">
              </path>
            </svg>
        