
            <svg xmlns="http://www.w3.org/2000/svg">
              <defs>
                <mask id="path-mask">
                  <g fill="white">
                    <path d="m71.52,67.62c3.49.37,1.29-.06,2-.08l2.5.35c2.04.35,4.43.64,6.36.96,1.99.32,4.87.67,7.66.87,2.79.18,5.49.27,7.11.25,2.21.2,3.6.24,4.54.19,2.94.23,7.32.3,9.58.58.62.15,3.2.35,1.03.44-1.57.07-3.27.02-5.78-.2-2.07-.18-3.96-.27-5.14-.2-.65-.04-1.3-.06-1.95-.11-2.42-.11-5.67-.74-7.57-.53-.76-.06-2.15-.17-2.18-.18-1.93.14-6.37-.45-10.22-.86l-.05-.09c1.06.07.85.03-.34-.1-.19-.02-.39-.04-.6-.06l-.11-.13c.66.06,1.62.17,1.61.11,0,0-.47-.08-.71-.1-1.11-.11-.8-.03-.92-.01l-3.82-.38c-.31-.04-.62-.07-.94-.11.48,0,3.61.31.86-.1-2.9-.43-3.9-.45-4.5-.42-.57.04-1.8-.1-3.74-.44-.16-.19-2.97-.53-4.91-.84l.1-.04c1.84.18.41-.04-1.16-.29-2.11-.43-2.33-.31-3.67-.52l-.27-.07.3.07c-.14.07.64.33-3.22-.36-2.4-.43-4.46-.78-4.07-.55l-2.38-.42-2.05-.58c1.29.25,1.87.31,1.99.28,1.56.23,1.7.2.2-.14-2.06-.4-2.73-.58-1.97-.53.35.02.84.06-.51-.21-.4-.07-1.03-.19-1.56-.29-.27-.05-.51-.09-.68-.12-.17-.03-.28-.04-.28-.04.05.07-.26.06-.8,0h0c-1.54-.3-4.9-1.29-6.46-1.72-.43-.11-.62-.14-.91-.2l-.39-.06c-4.7-1.64-9.48-3.67-13.53-5.64-.51-.26-1.11-.58-1.69-.93-.57-.38-1.13-.76-1.6-1.07-1.66-1.18-2.76-2-3.67-2.66-2.41-2.11-4.65-4.64-5.67-7.79v-.19c.04-.15-.15-.57-.2-1.25-.05-.33-.11-.71-.17-1.14,0-.43,0-.89,0-1.39.17-1.51.07-1.02.02-1.15.47-2.72,2.14-5.05,4.07-6.94,1.99-1.87,4.27-3.42,6.7-4.8l-.2.09c.05-.06-.35.11.57-.41.25-.18.32-.28,1.54-.92-.35.36,2.04-.82,4.03-1.66,4.29-1.84,9.43-3.52,13.29-4.83,2.68-.88,4.5-1.43,7.15-2.18,1.61-.43.69-.3.8-.39,2.57-.7,5.15-1.39,7.75-2,2.59-.66,5.2-1.2,7.8-1.78v.12c-1.01.29-.75.3-.23.27.9-.06-.41.29-3.2.89-.81.2-1.63.39-2.44.62-1.46.36-3.22.76-3.84,1.02l2.69-.62c.35-.03,1.94-.35-.09.2-1.08.19-2.17.45-3.27.79-1.28.31-2.56.68-3.83,1.01-1.63.2-4.76.97-8.18,1.87-2.35.85-5.78,2.11-6.2,2.48-3.29,1.12-6.54,2.36-9.7,3.9-.11-.02.21-.26-.42-.02-.85.33,2.43-1.31-.59.09-2.07,1.02-1.61.92-1.36.86.12-.02.19.08-1.19.68-2.49,1.15-1.85,1.13-3.84,2.38-.31.18-.55.28-.95.55-1.1.82-1.03.87-1.31,1.13l-1.24,1.1c-.37.4-.79.77-1.13,1.2l-1.01,1.3c-.29.46-.55.95-.82,1.42-.99,1.96-1.35,4.27-.83,6.56.15.59.35,1.09.5,1.54.18.44.42.79.6,1.1.35.63.72.99.97,1.26,1.98,2.98,4.87,5.28,7.9,7.23,3.05,1.94,6.34,3.49,9.7,4.89-.03.03-.26-.02-.05.1.58.35-2.72-.84.77.62,3.11,1.24.49.02.97.12.14.03,1.17.42,1.8.64,3.4,1.21,7.01,2.35,10.67,3.37h-.03c2.62.52,5.26,1.03,7.86,1.5,1.83.34,4.84.7,6.27,1.12.82.23,3.95.84,7.32,1.4,3.37.57,6.98,1.09,8.75,1.27Zm-20.9-3.43l-.69-.07c.31.06.67.13.91.18.24.04.35.04.53.05-.26-.06-.5-.11-.75-.16Zm-34.05-11.85c-.11-.08-.27-.19-.4-.29,0,.03.16.15.4.29Z"/><path d="m78.67,2.94c8.14-.87,16.2-1.27,24.31-1.75,1.11.28,6.34-.23,9.73-.34.69.08.61.19,4.23-.05,2.19-.15,5.37-.23,8.19-.31,2.26,0-4.69.53,3.59.17,1.21,0,2.92-.08,3.09.04.09.06,1.27.12,2.34.09,1.1-.03,2.12-.11,2.51-.18.65-.11-1.48-.04-2.14-.07-1.3-.07-2.24-.12-3.33-.17.66-.1,3.64-.08,3.48-.2,1.83.15,8.24-.05,8.23.2,0,.12-2.59.24-3.7.4-1.14.16-6.08.21-10,.25-1.77.02-3.45,0-5.2.04-1.7.04-3.78,0-5.02.14-1.32.15,3.36-.05,2.5.1-2.69.18-5.52.32-8.64.39-.25-.19-1.08-.32-5.74.12-3.47.33-7.87.32-11.22.75l-1.29.09-2.45.1c-4.13.07-8.56.37-13.33,1.03-2.86.11-6.08.37-10.19,1.03l-1.75.24c.21-.05.33-.09.63-.14,2.31-.38,3.86-.65,1.44-.49-.63.03-2.36.24-2.06.26.71.05-6.91,1.2-1.28.6-1.5.23-3.72.56-3.66.7l-2.61.42c-.1-.06,1.97-.48.18-.25-1.42.19-2.93.52-4.06.8-.55.1-1.09.2-1.64.32-3.35.7-3.59.59-4.1.58-.29,0-1.09.12-2.69.5-.59.15-1.52.39-1.69.48-.5.21.79-.11,1.82-.31,3.7-.77-2.88.95.33.3-.77.3-2.81.82-4.71,1.35l-.05-.08c.01-.09,2.82-.98-.21-.21-2.24.56-3.75,1.19-3.26,1.18-.96.3-1.94.56-2.89.89l-4.01,1.21c-1.14.3-1.73.39-.82-.05.42-.2.29-.22-.97.22-1.52.53-1.73.68-1.94.82l-2.14.71-.12-.17c3.59-1.31,7.64-2.79,10.16-3.34.96-.21,2.3-.65,2.49-.82.14-.12-.18-.11,1.36-.61,6.32-2.04,13.02-3.54,19.96-4.57,4.24-.51,13.05-1.66,18.33-2.41ZM122.13.83c-.45.01-.89.05-1.33.08.38,0,.72.03,1.14.02.43,0,.94-.05,1.75-.09-.71,0-1.14-.02-1.56,0Z"/><path d="m296.15,47.15c2.54-1.87,3.66-2.81,4.81-3.96.28-.3.37-.32.58-.52.19-.21.55-.59,1.12-1.74.42-.95.46-1.36.44-1.46-.02-.1-.14.09-.24.25-.2.31-.4.44-.59.64.49-1.08.71-2.26.65-3.42-.06-1.17-.5-2.29-1.07-3.33.04-.04.2.11.14-.09-.07-.19-.29-.78-1.37-2.07-1.69-1.88-2.65-2.57-2.47-2.64.31.07,2.5,2.13,1.5,1.02-.33-.41-1.23-1.21-1.84-1.7-2.15-1.54-.8-.4-1.31-.68-.28-.16-.51-.24-.93-.48-.8-.49-3.21-1.79-2.36-1.21.97.68,2.74,1.54,4.15,2.65l-.12.16c-2.82-2.09-5.91-3.71-9.06-5.1-3.15-1.4-6.37-2.54-9.6-3.58.57.05,1.04.07,2.06.33,1.02.26,2.6.75,5.3,1.88.89.39,2.34.96,2.73,1.06.42.09-.66-.44-1.9-.95-.36-.27-.72-.54-.93-.75l1.83.67-1.43-.68c4.39,1.59,8.37,3.6,11.59,6.25.77.78,2.33,2.19,3.77,3.85.72.77,1.4,1.88,1.89,3.17.5,1.3.56,2.86.27,4.26-.3,1.41-.96,2.64-1.62,3.62-.66.98-1.3,1.75-1.73,2.32-3.01,2.8-6.68,4.99-10.38,6.77.04-.29-2.8,1.03-5.22,2.05-2.15.93-3.46,1.37-5.13,1.88.51-.38,4.44-1.66,5.9-2.44.55-.28,2.57-.91,3.33-1.45.47-.32-1.42.46-2.61.87-1.21.43-2.15.79-3.78,1.5-2.05.88-4.5,1.79-6.48,2.17-1.18.24-3.23.95-4.43,1.35-2.11.68-.36.27.89-.04,2-.47,3.96-.99,3.64-.71l-1.23.45c-2.28.41-6.51,1.72-10.18,2.57-1.42.35-4.68,1.17-3.78.69.22-.11-4.21.96-4.32,1.06-.24.21-1.43.46-3.06.76l-1.19.23c-2.22.5-4.86,1.1-3.99.64,1.09-.36,1.06-.34-.85-.06-.84.13-1.96.28-2.15.27-.66-.04,2.72-.59,3.24-.78,3.39-.69,6.95-1.53,9.87-1.92.75-.09,2.88-.66,2.74-.65-.61.05,4.03-1.08.73-.42.12-.1.48-.2,1.83-.5,4.39-1.02,8.8-2.11,13.12-3.64.39.15,1.78-.27,3.41-.89,1.63-.62,3.5-1.44,4.88-1.98,3.19-1.34,5.43-2.58,8.59-4.36-.33.28-1.04.78-1.01.83.01.02.21-.07.74-.36.52-.29,1.36-.8,2.61-1.67Zm7.07-11.4c.1.22.11.46.18.69-.02-.32-.06-.68-.16-.92-.07-.22-.13-.33-.19-.5.06.25.12.49.17.73Z"/><path d="m188.78,68.16c4.33-.57,9.62-1.13,13.59-1.85,3.55-.29,8.91-1.29,13.08-1.93,1.19-.19,1.64-.27,2.48-.44,2.59-.52,3.16-1,.29-.56-3.03.46-3.98.56-4.77.57-.82.01-2.32.13-5.17.77-.31.07-1.5.28-2.01.34-4.96.66-9.74,1.39-14.64,1.99-11.29,1.36-22.62,2.39-33.98,3.04l.03.12c.96-.05,1.74-.08,1.96-.05,1.69-.13,3.7-.28,5.1-.39,3.36-.2,7.48-.69,10.14-.74,1.6,0,13.15-1.03,15.48-1.4.39-.05.79-.13.73-.14-.58-.09,1.6-.25,2.59-.36,1.19-.12,1.93-.15,2.96-.24.59-.05,2.41-.33,2.25-.25-.11.05-1.15.22-2.57.42-2.96.44-7.16.88-7.53,1.12Z"/><path d="m173.35,71.43c2.97-.18,6.5-.32,8.44-.62-.86.03-1.96.03-2.55.08-2.29.18-4.45.34-6.14.25-1.39-.08.55-.25,1.94-.41,2.47-.28,4.37-.3,6.39-.3,1.26,0,3.36-.08,4.38-.2,3.49-.43,5.06-.33,7.14-.37,1.33-.09,3.01-.24,3.37-.16.07.02-.54.11-.78.13-1.75.12-1.81.03-2.58.02l-3.72.6c2.48.14,5.68-.27,8.69-.56-.09-.09.1-.19,2.28-.38-.04-.06.15-.15-.17-.19-.97-.11,2.63-.39,3.7-.57.29-.05,1.03-.14,1.26-.1.46.07-.74.21-2.09.39-.76.1-.18.18-.2.27,1.19-.2,4.6-.33,4.92-.57-.44.02-1.65.11-.47-.05l.44.05c1.73-.12.7.16,2.84-.06.76-.08,1.36-.28,2.03-.42-.03-.06.22-.13,1.25-.26-.05-.02-.12-.03-.2-.05l-1.14.1c-1.9.07-7.83.53.21-.35.53-.06.76-.17,1.13-.25-3.46.34-7.08.81-10.25.86-.38.02-5.03.58-8.14.8-.85.14-1.91.25-3.78.38-5.48.39-11.22.55-16.45.99-2.12-.11-5.88.3-8.11.26-2.18-.03-3.93,0-6.64.19-3.67.26-5.27.2-5.36-.02l-6.06.18c.28.13-1.38.25-2.59.37,2.78.12,5.66.23-.21.52-.75.04-.26.08.49.1,2.37-.18,5.84-.08,7.84-.25,4.6-.39,3.69-.11,4.31,0l1.28-.04c.12-.08.81-.15,2.28-.2.17-.11,1.15-.17,2.57-.23l-.11-.11c1.41-.05,1.18.02,1.18.07,2.76.01,6.91-.13,7.36.09Z"/><path d="m119.98,71.39c1.57.04,2.69,0,3.52-.05,1.75-.1,3.89-.2.64-.36-5.11-.24-5.34,0-7.99,0l-4.87-.24c-2.26-.28-6.65-.36-9.58-.58l-.05-.15c2.82.16,6.09.17,8.19.4,2.65.26,5.42.28,8.53.35,12.25.15,24.56,0,36.88-.55.22.06.2.12-1.32.23l-2.37.11h-1.22c-.37,0-.74,0-1.11.05-7.79.27-8.87.37-5.9.52.09,0,.12.01.17.02,6.88-.34,8.73,0,15.45-.42,2.79-.22,6.51-.49,7.27-.34-1.83.13-3.89.43-4.5.39-1.17-.07-3.09.13-4.96.22-3.35.16-6.65.36-9.98.43-3.33.1-6.68.23-10.12.27-9.8.23-19.92-.05-29.94-.49-1.99-.1-5.17-.21-5.31-.4,1.18-.06,3.06.02,5.14.2,2.51.22,4.21.26,5.78.2,2.58.13,5.16.27,7.68.22Zm12.28-.31c.05.06.76.16,2.76.1,1.93-.06,4.77-.17,4.87-.24.21-.13-2.3.03-3.21,0-1.76.04-4.57-.05-4.42.13Zm5.74.44c1.27,0,3.52-.05,3.6-.17.05-.07-.78-.07-2.12-.06-1.45.04-2.85.07-4.72.12,1.38.05,2.23.12,3.24.11Zm-7.45-.31h-.74s.09.01.09.01c.55,0,.58,0,.64-.01Z"/><path d="m14.88,19.27c-2.71,1.43-4.85,2.53-7.69,4.57-2.03,1.5-4.23,3.48-5.68,6.16-.7,1.34-1.25,2.81-1.43,4.35-.2,1.54-.02,3.1.39,4.52.81,2.87,2.59,5.56,4.51,7.46l.16-.11c-.38-.51-1.3-1.86-.03-.41,1.96,2.06,3.02,2.72,3.85,3.3.85.55,1.53.96,3.15,2.03-1.69-1.2-3.13-2.33-4.37-3.37-.15-.14-.29-.26-.4-.35-.21-.09.33.63-1.3-.93-1.25-1.26-1.99-2.3-2.05-2.57l-.15-.25.14.23c.76,1.06,1.25,1.53,1.7,1.95.44.43.87.79,1.64,1.54.11.08.15.11.14.08-1.67-1.81-3.8-3.95-5.01-6.35-.87-1.45-1.46-3.15-1.54-4.93-.08-1.77.34-3.59,1.25-5.16.13-.24.24-.45.36-.66.12-.2.27-.38.4-.57.28-.37.48-.81.83-1.3.98-1.62,3.11-3.43,5.32-4.86,3.1-2.18,1.57-1.36.67-1.03-.23.09-.95.46.19-.27.97-.63,1.57-.95,2.01-1.12l1.19-.66c-.71.19,2.5-1.52,1.77-1.3Z"/><path d="m233.02,10.1c-2.37-.46-4.84-.91-8.15-1.25-4.14-.36-8.51-.87-13.15-1.56-.89-.01-2.55-.19-4.04-.3l-2.47-.31c.29.09.73.26.84.27,4.53.42,7.53,1.03,11.89,1.54,3.17.37,6.05.76,6.88,1.1.03,0,.34.06.52.08.6.06,1.2.11,1.8.17-.49-.32,2.69.14,5.12.52,7.97,1.23,16,2.35,24.03,3.95,4.83.98,5.11.99,2.75.8-.71-.06-1.19-.06-1.78-.08,4.62.8,9.91,2.05,13.63,2.7-.85-.24-1.68-.45-2.57-.67-1.46-.35-3.61-.66-4.22-.94-.25-.12,2.09.26,3.57.52.79.14,2.25.49,3.41.78.97.23,2.02.5,2.5.57.62.08-.37-.24-1.36-.52-1.55-.45-1.94-.7-4.39-1.25-3.07-.85-6.48-1.63-10.59-2.32-4.73-.67-10.22-1.57-15.75-2.47.06.07-.19.1-1.19-.05-1.76-.27-.62-.2-1-.31-2.37-.16-4.82-.29-6.25-.96Z"/><path d="m151.55,70.54h-1.22s-.56.03-.56.03l-.56.02c-7.79.27-8.87.37-5.9.52.09,0,.12.01.17.02,6.88-.34,8.73,0,15.45-.42,2.79-.22,6.51-.49,7.27-.34,2.02-.2,5.64-.5,7.15-.74-1.94.06-.06-.26.96-.34,2.97-.24,1.17.04,1.6.08.09,0,0,.03,0,.05,2.29-.06,6.14-.63,8.7-.79,1.56-.22,2.95-.39,4.15-.46.38-.25,4.58-.68,7.54-1.12,1.42-.2,2.47-.37,2.57-.42.17-.08-1.66.2-2.25.25-1.03.09-1.77.12-2.96.24-.99.11-3.18.27-2.59.36.06,0-.34.08-.73.14-2.33.37-13.88,1.4-15.48,1.4-2.66.05-6.78.54-10.14.74-1.4.11-3.41.26-5.09.39-1.63.15-1.71.08-1.96.05l-.03-.12-2.41.11c.22.06.2.12-1.32.23-.3.04-.52.1-.91.12-1.28.07-1.28.02-1.45,0Z"/><path d="m21.37,56.76l.04.11c.81.58,1.44,1.07,2.5,1.73,2.26,1.44,6.9,3.07,10.79,3.86.49.1.74.11,1.33.25,2.2.51,2.4.33.25-.32q-.89-.27-1.45-.27c-.26,0-.22.1-1.85-.37-.5-.14-1.03-.38-1.55-.59-3.04-1.02-2.77-1.15-3.41-1.5,3.45,1.16,7.04,2.17,10.68,3.12-1.56-.17,2.01.78,3.71,1.24l1.89.28c1.26.25,2.53.46,3.79.69.05.03.06.05.03.06-2.35-.22,1.19.69,1.04.89l-2.29-.44s0-.03-.12-.05c-1.6-.4-1.26-.53-3.25-.93-2.92-.58.29.29-.28.29l-1.39-.15c-2.76-.63-5.54-1.3-8.27-2.09-2.74-.78-5.44-1.67-8-2.77-.75-.3-1.49-.63-2.22-.98l-.03-.16.48.19-.61-.26-1.36-.66c-.69-.36-1.62-.91-1.64-.8-.73-.36-1.46-.73-2.18-1.11l.31.15.32.2c-1.42-.91-4.98-3.08-5.8-3.98-.2-.21-1.41-.99-2.82-2.02-1.41-1.02-2.98-2.31-4.02-3.31-.35-.33-.57-.53-.86-.8-.38-.51-1.3-1.86-.03-.41,1.96,2.06,3.02,2.72,3.85,3.3.85.55,1.53.96,3.15,2.03,3.1,2.11,6.23,3.93,9.27,5.63Zm14.82,6.19c.1.06.35.17.54.25.16.02.44.08.45.06.02-.03-.15-.1-.27-.17-.35-.07-.75-.16-.72-.14Z"/><path d="m200.22,69.53c-2.18.18-2.37.28-2.28.38l2.04-.13,1.57-.14c1.96-.15,3.89-.29,5.85-.44,1.95-.18,3.94-.38,6.01-.63,1.69-.2,4.14-.5,6.17-.64,2.23-.15,6.41-.7,7.12-.8,7.47-1.22,14.72-2.2,21.9-3.39,2.63-.46,4.26-.9,6.41-1.32,10.93-2.24,21.85-4.97,32.2-9.37,1.11-.48,2.25-.97,2.84-1.36.04-.29-2.8,1.03-5.22,2.05-2.15.93-3.46,1.37-5.13,1.88-.74.36-2.24.84-3.54,1.26l-1.23.45c-2.28.41-6.51,1.72-10.18,2.57-1.42.35-4.68,1.17-3.78.69.22-.11-4.21.96-4.32,1.06-.24.21-1.43.46-3.06.76-.38.14-.8.22-1.22.24-2.19.5-4.83,1.09-3.96.64-.6.1-1.21.21-1.81.31-1.88.43-3.81.9-6.47,1.17-2.16.5-4.24,1.08-7.1,1.11l-3.49.48c-.73.29-3.08.51-4.97.76-2.76.36-2.29.18-2.49.11-3.17.61-6.38.91-9.6,1.05-.67.14-1.27.34-2.03.42-2.15.22-1.11-.07-2.84.06-.29.23-3.7.36-4.89.56l-2.49.21Z"/><path d="m69.67,69.18c1.7.35,3.58.61,6.14.78-1.44-.27-2.85-.55-1.12-.48,1.37.05,2.37.36,3.84.46,1.89.4,3,.4,4.28.39,1.46,0,2.88.09,3.85.35,3.46.22,2.94.01,3.57-.07-.5-.2-3.29-.44-4.63-.68-2.29-.33-5.33-.64-8.23-.89-2.18-.2-4.06-.41-6.15-.68-2.14-.18.04.33-3.64-.13-2.73-.35-2.26-.44-2.67-.6l-2.42-.33c.16.12.47.26.42.35-.03.06-1.15-.08-2.19-.23-.91-.13-1.59-.27-1.06-.24.78.04,2.91.29.68-.1-.56-.09-2.54-.27-3.87-.43-.42-.04-.65-.02-1.49-.22l1.52.22c-.44-.21-1.41-.42-2.67-.63-1.26-.24-2.8-.48-4.39-.72-1.01.04,3.77,1.01,3.39,1.15,5.22.75,5.14.89,4.71,1.03,2.1.31,3.8.67,5.97.92-.28-.26,2.07-.14,5.68.34,5.01.67-1.64,0,.07.33.24.05.28.08.41.11Z"/><path d="m100.16,5.79l-1.98.21-3.82.47-1.41.18s.08.03.12.04c.83-.08,1.24-.1.55.03-.1.02-.44.06-.56.08-1.09.1.05-.08.05-.11-2,.23-3.46.45-4.38.65-1.46.32-3.35.62-4.88.79-1.53.18-2.68.26-2.64.22.26-.28-2.88.23-5.16.53-2.86.52-5.68,1.13-8.56,1.72-1.26.28-3.7.74-2.99.72.59-.01,3.22-.62,3.9-.7,2.1-.27,5.26-1.13,6.47-1.07,1.59-.23,3.47-.53,3.73-.46,1.34-.21,2.76-.44,3.64-.48,2.95-.39,5.91-.8,8.84-1.1,5.79-.66,10.8-1.37,16.68-1.79v-.14c-1.45.13-2.95.28-3.71.26.09-.09.13-.18,2.34-.38l-1.06-.09-5.17.46Z"/><path d="m146.63,72.09c-.75-.01-1.25-.06-.49-.1,5.87-.29,2.98-.41.21-.52l-2.26.06.05.2.28.02-.27-.02c-2.06-.03-6.52.19-6.18-.11-3.41.07-6.5-.16-10.3.04-.54.03-2.92-.06-3.04-.17l-3.59-.05c-1.56.16-6.1.15-5.23.41.04.01-.78.02-1.2.03-2.66-.44-3.79,0-5.89-.11.01.02,0,.04,0,.07,6.15.53,7.62.2,9.79,0h.47s-.5,0-.5,0c.62.02,1.49.05,2.22.07.73.02,1.31.05,1.33.06.61.5,5.11.21,8.75.16,3.8-.05,8.17-.19,11.52-.04,1.65.03,1.41.21,4.28.14l.07-.14Z"/><path d="m28.63,14.16l-2.14.71c-5.19,1.89-5.17,1.74-4.72,1.3-1.72.61-1.59.69-2.4,1.06,1.63-.34-.82.83-5.29,3.09,1.1-.38,1.24-.28.21.41,1.19-.43,2.09-.99,3.07-1.49-.67.27-.86.3.03-.11,1.22-.58,1.05-.4,1.19-.42,2.73-.98,6.67-2.64,9.59-3.7,4.77-1.76,10.03-3.41,14.62-4.84l-.05-.08c-1.14.28-2.26.61-3.39.95-1.03.44-2.01.64-2.97.92l-4.01,1.21c-.26.18-.47.35-2.6,1.1-1.44.5-2.28.74-2.98.93-1.64.44.49-.45,1.86-1.04Z"/><path d="m74.87,9.52c-1.21-.06-4.37.81-6.47,1.07-.67.08-3.31.69-3.9.7-.72.02,1.73-.44,2.99-.72,2.89-.58,5.7-1.2,8.57-1.72l-1.06.06c-.47.07-.93.14-1.4.23-1.92.44-4.12.83-6.37,1.25-2.25.46-4.57.87-6.72,1.37-1.01.29-.75.3-.23.27.9-.06-.41.29-3.2.89l-.04.07c-.02.1-.84.28-2.54.69-.35.09-.69.17-1.01.26.35-.03,1.94-.35-.09.2l.11.03c6.78-1.57,13.62-2.87,20.5-4.13-1.13.06-3.19.27.86-.53Z"/><path d="m174.71,4.21c-1.44-.06-1.3-.33-3.88-.25-1.93.05-3.75-.21-5.67-.23-.55.24-3.15.08-5.88-.07-2.32-.14-4.23-.15-5.98-.07-1.81.07-2.61.16-.7.3,2.58.03,4.94.19,7.7.2,8.61.09,9.55.16,16.43.72.16.01.49.04.53.04,3.52-.05,8.83.67,12.42.72-.33-.15-.36-.27-2.78-.51-.09.08-.66.05-2.31-.08-3.49-.27-6.76-.53-9.88-.77Z"/><path d="m74.87,9.52c-4.05.8-1.98.59-.86.53,2.69-.36,4.5-.54,8.32-1.27,1.38-.25,3.46-.55,5.75-.83,2.3-.26,4.8-.54,7.03-.79,5.99-.67,12.3-1.28,18.39-1.61,2.67-.15,4.44-.24,4.13-.4-.3-.15-2.45-.05-4.86.17-1.67.13-3.34.25-5.01.37-5.88.42-10.89,1.13-16.68,1.79-2.93.31-5.9.71-8.84,1.1-.71.13-1.5.29-2.11.39-1.34.2-1.48.15-1.53.1-.26-.07-2.14.22-3.73.46Z"/><path d="m118.5,71.85c-2.17.2-3.64.53-9.79,0l-4.93-.08c-1.31,0-2.67-.02-2.34.11,2.3.28,5.33.25,7.86.33,9.66.26,19.32.37,29.04.14,2.59-.06,2.96-.14,3.95-.23-3.35-.16-7.72-.01-11.52.04-3.64.05-8.14.34-8.75-.16-.02-.02-.6-.04-1.32-.06-.72-.02-1.59-.05-2.19-.07Z"/><path d="m257.24,15.03c.59.02,1.07.02,1.78.08,2.36.19,2.09.18-2.75-.8-8.03-1.59-16.06-2.72-24.03-3.95-2.42-.38-5.61-.84-5.12-.52,4.5.87,9.44,1.57,14.89,2.29,3.51.48,6.18.97,5.46,1.13,3.54.47,6.42,1.17,9.75,1.77Z"/><path d="m189.69,5.58c-3.59-.05-8.9-.78-12.42-.72-.04,0-.37-.03-.53-.04-6.88-.56-7.82-.63-16.43-.72-2.76-.02-5.13-.17-7.7-.2,1.09.24,2.28.43,6.51.66l3.11-.06c1.15-.1,2.91-.02,5.4.09,3.03.14,6.71.32,9.33.48,5.29.35,10.02.44,15.05,1l-1.31-.39c-.34-.03-.67-.06-.99-.09Z"/><path d="m127.65,4.54c1.58-.25,2.86-.52-3.5-.26-2.05.08-.76-.06-.61-.12,1.56-.13,3.21-.22,4.75-.27,1.54-.03,2.96-.03,4.09-.02,5.69.05,6.97-.09,8.2-.37l1.17-.03c3.74.1,9.88.16,4.05.51-1.05.06-1.02.18-1.5.27-3.22-.01-6.44.08-9.65.12-2.08.05-3.64.11-3.85.24-1.19.03-2.39.05-3.58.1.14-.06.08-.11.44-.17Zm10.25-.45c.13,0,.34,0,.64-.03-.18,0-.35,0-.64.03Z"/><path d="m134.68.18c1.83.15,8.24-.05,8.23.2,0,.12-2.59.24-3.7.4-1.14.16-6.08.21-10,.25-1.77.02-3.45,0-5.2.04-1.7.04-3.78,0-5.02.14-1.32.15,3.36-.05,2.5.1,5.77.03,12.94-.3,18.91-.11,1.89.06,1.47-.11,2.98-.13,1.47-.06-5.11-.2.29-.22,1.81-.18,6.57-.19,5.85-.44-1.12-.04-2.58-.06-3.3-.11-1.81-.12-1.77-.42-6.38-.18-.05,0-1.66-.06-2.69-.1-3.01-.05-5.86,0-8.39.15.87.24,4.21-.07,5.91.01Z"/><path d="m150.76,1.11c1.5.04,2.57.09,3.35.17,1.94.2,5.61.39,8.5.41,2.58.02,4.91-.01,5.21-.16.55-.26-2.68-.57-9.9-.78-1.76-.04-3.95-.2-5.95-.29-2.19.08-1.35.25,1.01.39,2.39.15,4.59.15,6.3.11.63-.02,3.51.04,3.26.15-.22.09,1.44.26.38.31-.65.04-.97.1-2.92.04-2.03-.07-2.91-.15-3.14-.23-.24-.09-.54-.16-2.8-.22-2.19-.04-3.31-.01-3.3.09Z"/><path d="m192,6.06c-5.03-.56-9.76-.65-15.05-1-2.62-.16-6.3-.33-9.33-.48-2.49-.11-4.25-.2-5.4-.09,4.25.47,10.62.54,15.87.88,7.84.48,15.85.96,23.44,1.93l.64-.03c-1.12-.21-5.08-.71.98-.17,1.98.19,3.11.2-.29-.2-3.6-.28-6.26-.28-10.87-.84Z"/><path d="m154.99,70.92c.09.22,1.69.28,5.36.02,2.7-.19,4.45-.21,6.64-.19,2.23.04,6-.36,8.11-.26,5.23-.44,10.97-.59,16.45-.99,1.87-.12,2.93-.24,3.78-.38-5.05.19-10.5.5-16.38.85-3.75.2-7.55.41-11.65.47-3.57.08-8.17.32-12.32.46Z"/><path d="m61.95,6l-2.61.42-3.88.55c-.55.1-1.09.2-1.64.32-1.76.43-3.53.82-5.27,1.3,3.17-.45,9.38-1.84,13.91-2.5,8.98-1.41,18.12-2.37,27.25-3.08l2.43-.24c-4.13.07-8.56.37-13.33,1.03-3.88.43-7.95,1.04-10.19,1.03-.58.08-1.17.16-1.75.24-.42.07-.83.13-1.24.2.02.04.08.06.13.07.13,0,.26,0,.39,0l-.86.1c-1.12.17-2.23.35-3.34.56Z"/><path d="m31.91,20.29c-3.29,1.12-6.54,2.36-9.7,3.9-2.51,1.18-4.85,2.45-6.62,3.49-.79.5-1.34.93-1.83,1.26-.46.36-.83.65-1.2.94l-1.24,1.1c-.37.4-.79.77-1.13,1.2l-1.01,1.3c-.29.46-.55.95-.82,1.42-.99,1.96-1.35,4.27-.83,6.56.15.59.35,1.09.5,1.54.18.44.42.79.6,1.1.35.63.72.99.97,1.26-.5-.66-.82-1.41-1.2-2.13-.17-.37-.27-.76-.41-1.14l-.19-.58-.1-.6c-.05-.4-.17-.79-.16-1.19v-1.2c.04-.4.15-.79.21-1.18.04-.2.06-.4.12-.59l.21-.56c1.09-3.06,3.62-5.42,6.29-7.33,2.7-1.93,5.67-3.48,8.7-4.88,3.04-1.4,6.16-2.6,9.32-3.73l-.5.06Z"/><path d="m123.54,4.16c1.56-.13,3.21-.22,4.75-.27,1.54-.03,2.96-.03,4.09-.02,5.69.05,6.97-.09,8.2-.37-9.36.04-18.73.29-28.04,1.14-2.25.22-3.67.17-5.5.34-2.52.26-6.41.51-6.86.81l5.16-.46c2.83-.26,5.66-.4,8.49-.61,3.24-.2,6.47-.43,9.71-.56Z"/><path d="m56.59,65.59c-.14.07.64.33-3.22-.36-2.4-.43-4.46-.78-4.07-.55,9.85,1.89,19.78,3.46,30.16,4.41l-.05-.09-.34-.1c-.19-.02-.39-.04-.61-.06-1.74-.15-3.46-.32-3.95-.51-.31-.04-.62-.07-.95-.11l-3.64-.51c-.57.04-1.8-.1-3.74-.44-2.14-.32-4.39-.5-6.31-.92-.64-.14.34-.05,1.4.08l.1-.04-1.16-.29c-2.11-.43-2.33-.31-3.63-.52Z"/><path d="m141.73,3.47c3.74.1,9.88.16,4.05.51-1.05.06-1.02.18-1.5.27,1.78.02,1.19.09,1.3.15l2.39-.02c-.74-.15,2.35-.19,2.43-.31l-1.6-.05c.12,0,.34-.02.35-.02.44.02.86.05,1.29.07,2.12.11.82.23,1.26.34,2.41.19,4.87.25,7.41.14-4.23-.22-5.42-.42-6.51-.66-1.92-.14-1.12-.23.7-.3,1.75-.08,3.66-.07,5.98.07,2.73.15,5.33.3,5.88.07-6.16-.27-12.45-.27-18.53-.38-2.4-.04-3.66.03-4.9.13Z"/><path d="m202.86,6.9c3.4.4,2.27.39.29.2-6.06-.54-2.1-.04-.98.17,1.05-.03,2.93.27,4.39.4-.15-.1.97-.11,1.86.02,4.4.66,7.56.75,11.39,1.26,2.07.15,2.16.25,2.31.36,2.06.39,2.59.36,3.21.35-.18-.03-.5-.07-.52-.08-.83-.34-3.72-.73-6.88-1.1-4.35-.51-7.36-1.12-11.89-1.54-.11-.01-.55-.18-.84-.27-1.57-.21-3.14-.41-4.72-.6l-2.51-.31-.31.16c5.37.54,5.66.78,5.19.97Z"/><path d="m267.81,16.21c2.45.56,2.84.81,4.39,1.25.99.28,1.98.6,1.36.52-.48-.07-1.53-.33-2.5-.57-1.16-.28-2.62-.63-3.41-.78-1.48-.27-3.82-.64-3.57-.52.61.28,2.76.59,4.22.94.89.22,1.72.44,2.57.67,1.09.38,2.14.53,3.19.81,1.78.41,3.68.88,3.2.62-1.91-1,3.61.45,8.41,2.26-.55-.33-3.07-1.18-3.23-1.36-4.01-1.28-7.81-2.45-11.94-3.43-2.96-.68-2.34-.43-2.7-.42Z"/><path d="m219.82,8.96c-3.84-.51-7-.6-11.39-1.26-.89-.13-2.01-.13-1.86-.02,7.71.84,15.37,1.77,23.06,2.81,3.85.52,7.88,1.17,11.68,1.81,2.29.4,4.16.68,6.19.97.72-.16-1.95-.64-5.46-1.13-5.45-.72-10.4-1.42-14.89-2.29-.6-.06-1.21-.11-1.8-.17-.61,0-1.14.03-3.2-.35l-2.31-.36Z"/><path d="m123.54,4.16c-3.24.13-6.48.36-9.71.56l-.09.14c1.32-.1,2.49-.13,2.29-.04-.2.09-1.54.16-2.75.26-.44.1-.47.17-.5.24,2.41-.22,4.57-.32,4.86-.17,3.1-.12,6.31-.25,9.57-.43.14-.06.08-.11.44-.17,1.58-.25,2.86-.52-3.5-.26-2.05.08-.76-.06-.61-.12Z"/><path d="m103.78,71.76l4.93.08v-.07s-.26-.03-.26-.03l.25.03c2.1.12,3.23-.33,5.89.11.42,0,1.24-.02,1.2-.03-.87-.26,3.67-.25,5.23-.41-.26-.08-1.36-.08-2.33-.09-1.29.1-3.34.02-5.16,0-1.34-.07-2.19.18-2.9-.03-.76-.22-2.98-.15-4.23-.25-2.14.07-3.11-.05-3.83-.21-1.27-.09-2.78-.27-3.57-.14l-.55.08c1.49.13,2.22.26,4.32.35,1.43.11.88.16,1,.23,6.52.35-.87.22,0,.36Z"/><path d="m76.02,67.89c2.04.35,4.43.64,6.36.96,1.99.32,4.87.67,7.66.87,2.79.18,5.49.27,7.1.25-3-.22-6.33-.45-4.21-.52-2.87-.21-5.74-.51-8.57-.8-2.83-.26-5.62-.51-8.35-.75Z"/><path d="m103.78,71.4c6.52.35-.88.22,0,.36-1.31,0-2.67-.02-2.34.11-3.72-.13-7.66-.18-11.02-.66-.16-.03-.21-.04-.15-.06,4.9.11,5.31-.17,5.06-.49l3.13.16c1.49.13,2.22.26,4.32.35-.14.07-.19.13,1,.23Zm-3.91.05c.78.07,1.53.04,1.28,0-.49-.1,2.01-.14-1.74-.3-1.87-.06-1.72,0-.37.12.25.06.23.13.83.19Z"/><path d="m189.25,70.46c-1.14.07-2.09,0-3.38.19-2.86.41-3.14.2-4.08.16-.86.03-1.96.03-2.55.08-2.29.18-4.45.34-6.14.25-1.39-.08.55-.25,1.94-.41,2.47-.28,4.37-.3,6.39-.3,1.26,0,3.36-.08,4.38-.2,3.49-.43,5.06-.33,7.14-.37-1.23.2-2.48.4-3.72.6Zm-13.64.49s.43-.03.45-.04c.05-.02-.02-.04-.04-.05l-.95.07c.17,0,.33.01.53.02Z"/><path d="m33.51,60.65c-4.7-1.64-9.48-3.67-13.53-5.64-.51-.26-1.11-.58-1.69-.93-.57-.38-1.13-.76-1.6-1.07-1.66-1.18-2.76-2-3.67-2.66,1.53,1.49,3.49,2.8,5.55,4.04,2.09,1.19,4.34,2.27,6.52,3.19,5.31,2.26,10.39,4.23,15.99,5.7h.03s.01.01.01.01c.38.07.77.14,1.16.21.89.16,1.97.37,2.38.39-.82-.25-2.03-.53-3.5-.82h-.01s-.02,0-.02,0c-.67-.18-1.41-.38-2.19-.59-2.88-.76-4.19-1.29-5.45-1.84Z"/><path d="m150.76,1.11c-.01-.1,1.11-.13,3.3-.09,2.26.06,2.55.13,2.8.22.23.08,1.11.16,3.14.23,1.95.06,2.27,0,2.92-.04,1.06-.06-.6-.22-.38-.31.25-.11-2.63-.16-3.26-.15-1.71.04-3.91.05-6.3-.11-2.36-.14-3.2-.31-1.01-.39-.81-.06-1.62-.1-2.44-.06.71.25-4.04.26-5.86.44,1.29.06,2.46.13,2.55.22l4.54.04Z"/><path d="m212.47,68.28c3.22-.14,6.43-.44,9.6-1.05,1.85-.44,7.61-1.11,8.6-1.55l-.46-.17c-2.1.24-4.01.47-5.72.79-.27.08.52.04-.75.22l-.4-.08c-.35.03-.74.07-1.15.13-4.96.61-3.91.88-8.47,1.44-1.03.13-1.28.21-1.25.26Z"/><path d="m74.99,8.92l1.06-.06c2.28-.3,5.43-.81,5.16-.53-.04.04,1.11-.04,2.64-.22,1.53-.17,3.43-.47,4.88-.79.92-.21,2.38-.42,4.38-.65-.09,0-.13-.02-.17-.03l.07-.2c-5.97.62-11.87,1.3-18.03,2.48Z"/><path d="m19.69,24.47c-.35.36,2.04-.82,4.03-1.66,4.29-1.84,9.43-3.52,13.29-4.83,2.68-.88,4.5-1.43,7.15-2.18,1.61-.43.69-.3.8-.39-5.66,1.53-11.16,3.08-16.9,5.4-2.48,1-5.63,2.26-8.37,3.65Z"/><path d="m144.08,71.53l2.26-.06c1.21-.12,2.87-.24,2.59-.37-6.1.04-12.63.31-18.81.14-2.49-.08-3.26.2-5.5.26.12.11,2.5.2,3.04.17,3.79-.2,6.89.03,10.3-.04,2.2-.43,4.05,0,6.11-.09Z"/><path d="m246.59,63.61c.61-.11,1.21-.21,1.81-.31,1.09-.36,1.05-.34-.86-.06-.84.13-1.96.28-2.15.27-.66-.04,2.72-.59,3.24-.78l-2.56.31-3.97.65c-2.67.51-5.34,1.04-8.01,1.51,5.53-.64,5.43-.53-1.08.69,2.86-.03,4.95-.61,7.1-1.11,2.14-.36,3.12-.93,6.47-1.17Z"/><path d="m285.68,21.42c-4.8-1.81-10.32-3.26-8.41-2.26.49.27-1.41-.2-3.2-.62.49.37,3.03.86,4.5,1.35.57.05,1.04.07,2.06.33,1.02.26,2.6.75,5.3,1.88.89.39,2.34.96,2.73,1.06.42.09-.67-.44-1.85-.92l-.52-.19.46.17c-.36-.27-.72-.54-1.09-.8Z"/><path d="m90.42,71.2c-.16-.03-.21-.04-.15-.06-.53-.15-4.32-.37-3.6-.48-.97-.26-2.39-.36-3.85-.35-1.28,0-2.39.01-4.28-.39-1.47-.1-2.47-.41-3.84-.46-1.73-.07-.32.21,1.12.48,4.93.58,10.17,1.24,14.61,1.25Z"/><path d="m18.62,56.33c-1.42-.91-4.98-3.08-5.8-3.98-.2-.21-1.41-.99-2.82-2.02-1.41-1.02-2.98-2.31-4.02-3.31-.35-.33-.57-.53-.86-.8l-.16.11c2.95,3.4,6.49,5.65,10.14,8.03.92.56,1.85,1.1,2.79,1.62.37.21.61.32.71.36Z"/><path d="m55.46,64.94c.82.23,3.95.84,7.32,1.4,3.37.57,6.98,1.09,8.75,1.27,3.49.37,1.29-.06,2-.08-2.21-.25-4.45-.46-6.53-.87-.45-.08-1.99-.32-2.08-.33-2.84-.2-6.36-.92-9.46-1.41Z"/><path d="m134.68.18c-1.7-.08-5.04.23-5.91-.01-1.75-.07-3.48.02-5.21.12-2.88.24-7.46.31-10.85.57.69.08.61.19,4.23-.05,2.19-.15,5.37-.23,8.11-.31l1.51-.11.48.03-1.9.09c2.26,0-4.69.53,3.59.17.29-.1-.8-.22,2.47-.28.66-.1,3.64-.08,3.48-.2Z"/><path d="m17.57,25.79c.05-.06-.35.11.57-.41-3.25,1.81-6.61,3.88-8.99,6.91-2.52,2.88-3.25,7.22-1.81,10.26v-.19c-.31-.77-.36-1.62-.51-2.43.01-.83-.05-1.67.17-2.49.47-2.72,2.14-5.04,4.05-6.92,1.96-1.85,4.2-3.38,6.52-4.73Z"/><path d="m112.72.85c3.39-.25,7.96-.32,10.85-.57-.4-.19-3.08.04-4.47.08-5.3.11-10.77.44-16.11.83,1.11.28,6.34-.23,9.73-.34Z"/><path d="m26.37,14.7c3.59-1.31,7.64-2.79,10.16-3.34.96-.21,2.3-.65,2.49-.82.14-.12-.18-.11,1.36-.61.44-.34-2.63.62-4.25,1.14-3.66,1.18-7.31,2.47-10.93,3.81.32-.03-.56.39,1.17-.18Z"/><path d="m9.06,23.65c-2.22,1.43-4.35,3.24-5.32,4.86-.35.5-.56.93-.83,1.3-.13.19-.27.37-.4.57-.11.21-.23.42-.36.66-.91,1.57-1.33,3.39-1.25,5.16.08,1.78.67,3.48,1.54,4.93-.69-1.53-1.24-3.36-1.26-5.3-.07-1.95.61-3.93,1.61-5.68,1.55-2.56,3.84-4.63,6.33-6.37l-.05-.14Z"/><path d="m293.82,48.35c-.33.28-1.04.78-1.01.83.01.02.21-.07.74-.36.52-.29,1.36-.8,2.61-1.67,2.54-1.87,3.66-2.81,4.81-3.96.28-.3.37-.32.58-.52.19-.21.55-.59,1.12-1.74.42-.95.46-1.36.44-1.46-.02-.1-.14.09-.24.25-.2.31-.4.44-.59.64-.8,1.74-2.12,3.25-3.6,4.54-1.49,1.3-3.14,2.43-4.85,3.45Z"/><path d="m57.54,67.48c.43-.14.51-.28-4.71-1.03l-3.66-.52-2.29-.44c-.99-.12-2.34-.4-3.65-.7l-1.39-.15c-.14.11,1.47.42,2.74.68,4.31.82,8.63,1.55,12.96,2.16Z"/><path d="m246.08,63.03l2.56-.31c3.39-.69,6.95-1.53,9.87-1.92.75-.09,2.88-.66,2.74-.65-.61.05,4.03-1.08.73-.42-5.24,1.22-11.04,2.16-15.9,3.31Z"/><path d="m56.46,66.64c1.33.16,3.31.35,3.87.43,2.23.39.1.15-.68.1-.53-.03.15.11,1.06.24,1.04.15,2.16.29,2.19.23.05-.09-.26-.23-.42-.35-4.36-.75-9.3-1.6-14.2-2.45l-.18.13c.05.03.06.05.03.06l1.3.26c1.58.24,3.13.49,4.38.72,1.26.21,2.22.42,2.65.63Z"/><path d="m213.72,68.02c4.56-.56,3.52-.82,8.47-1.44-2.56.13-5.15.26-8.47.9-.37.09-.61.19-1.13.25-8.03.88-2.1.42-.21.35.19-.07-.03-.11,1.41-.25l-.27.14c.08.01.14.03.2.05Z"/><path d="m297.84,27.7c.77.78,2.33,2.19,3.77,3.85.72.77,1.4,1.88,1.89,3.17.5,1.3.56,2.86.27,4.26-.3,1.41-.96,2.64-1.62,3.62-.66.98-1.3,1.75-1.73,2.32,1.22-1.2,2.31-2.57,3.01-4.2.72-1.6.93-3.5.48-5.21-.42-1.72-1.35-3.22-2.42-4.49-1.09-1.27-2.35-2.33-3.65-3.3Z"/><path d="m200.49,6.09c1.57.18,3.15.38,4.72.6l2.47.31c0-.17,2.05.06,4.04.3,4.65.69,9.01,1.2,13.15,1.56-.38-.12-1.64-.37-2.5-.46-7.07-.74-14.98-1.9-21.88-2.31Z"/><path d="m112.85,1.71c-.25-.19-1.08-.32-5.74.12-3.47.33-7.87.32-11.22.75,5.07-.04,11.19-.6,16.96-.87Z"/><path d="m46.29,15.94c-1.63.2-4.76.97-8.18,1.87.73-.01-.98.66-3.22,1.57,2.37-.69,4.47-1.39,6.65-2.07.57-.25,1.33-.49,2.17-.73.84-.21,1.75-.43,2.59-.64Z"/><path d="m60.35,5.36c4.24-.51,13.05-1.66,18.33-2.41-5.25.4-10.51,1.13-15.73,1.94-.11.15-1.39.31-2.6.48Z"/><path d="m164.92,71.38c-1.42.07-2.4.12-2.36.21h1.56s.35.06.35.06l-1.16.02-.96-.06c-1.46.05-2.15.11-2.27.2,4.46-.11,8.34-.03,13.28-.38-.45-.22-4.6-.08-7.35-.09-.36.01-.72.02-1.07.03Z"/><path d="m241.47,11.42c5.53.9,11.02,1.8,15.75,2.47-1.83-.46-3.56-.83-6.35-1.18-3.54-.44-7.87-1.3-11.77-1.83l.2.19c.71.12,1.44.24,2.18.36Z"/><path d="m14.09,20.33c4.46-2.26,6.92-3.43,5.29-3.09-1.51.63-3.01,1.31-4.49,2.03.73-.22-2.49,1.49-1.77,1.3,1.29-.61.81-.24.97-.24Z"/><path d="m234.1,65.2c2.68-.47,5.34-1.01,8.01-1.51-4.08.54-8.12,1.08-11.91,1.83l.46.17,3.43-.49Z"/><path d="m95.33,70.66l3.13.16.55-.08c-4.55-.26-9.17-.69-13.4-.83,1.34.24,4.13.48,4.64.68.88.03,1.62.06,2.37.08.2-.08.32-.17,2.73-.02Z"/><path d="m9.06,23.65l.05.14c.8-.6,1.69-1.07,2.53-1.61.88-.48,1.75-.99,2.65-1.44,1.04-.69.89-.79-.21-.41-2.62,1.38-2.06.97-2.16.9-.44.17-1.04.49-2.01,1.12-1.13.74-.41.37-.19.27.9-.33,2.43-1.14-.67,1.03Z"/><path d="m146.63,72.09l-.07.14c4.15-.07,8.71.02,12.23-.39-.62-.11.29-.39-4.31,0-2,.17-5.48.07-7.84.25Z"/><path d="m197.67,5.93l.31-.16c-4.7-.56-8.97-.77-13.34-1l2.27.3c2.42.24,2.45.36,2.78.51.33.03.66.06.99.09.03-.25.78-.42,6.99.26Z"/><path d="m144.29,4.25c-3.22-.01-6.44.08-9.65.12-2.08.05-3.64.11-3.85.24,4.29.03,9.06-.21,13.53-.17,0-.06.02-.13-.03-.2Z"/><path d="m186.91,5.07l-2.27-.3c-3.47-.33-7.07-.7-9.93-.56,3.12.24,6.39.5,9.88.77,1.65.13,2.22.16,2.31.08Z"/><path d="m69.67,69.18c-.13-.04-.17-.07-.41-.11-1.72-.33,4.94.35-.07-.33-3.62-.48-5.97-.6-5.68-.34,2.11.34,4.36.72,6.16.78Z"/><path d="m33.51,60.65c1.26.55,2.57,1.08,5.45,1.84.78.21,1.52.41,2.19.59h.02s.01,0,.01,0c1.47.29,2.68.57,3.5.82.85.15,1.94.36,2.26.37-.68-.19-1.37-.39-2.05-.58-1.23-.25-2.45-.5-3.68-.74h0s0,0,0,0c-2.45-.68-4.88-1.4-7.29-2.23l-.39-.06Z"/><path d="m92.94,69.44c-2.12.07,1.21.3,4.21.52,2.21.2,3.61.24,4.55.19l-.05-.15c-2.86-.1-5.7-.32-8.71-.56Z"/><path d="m60.5,11.77c2.15-.5,4.47-.91,6.72-1.37,2.25-.43,4.45-.82,6.37-1.25-2.2.32-4.39.69-6.57,1.13l-6.53,1.37v.12Z"/><path d="m276.93,55.58c.39.15,1.78-.27,3.41-.89,1.63-.62,3.5-1.44,4.88-1.98-.22-.03.53-.46-2.82.91-1.68.67-3.62,1.35-5.47,1.96Z"/><path d="m64.91,67.62c.42.16-.06.25,2.67.6,3.68.46,1.51-.05,3.64.13-2.92-.55-4.22-.49-6.32-.73Z"/><path d="m48.55,8.59c1.74-.49,3.51-.87,5.27-1.3-3.35.7-3.59.59-4.09.58-.29,0-1.09.12-2.69.5-.59.15-1.52.39-1.69.48-.5.21.79-.11,1.82-.31,3.7-.77-2.88.95.33.3.33-.08.69-.16,1.05-.24Z"/><path d="m99.44,70.66c-2.42-.11-5.67-.74-7.57-.53q1.01.28,7.57.53Z"/><path d="m31.44,61.15c-3.04-1.02-2.77-1.15-3.41-1.5-1.17-.43-2.38-.93-3.51-1.45-1.12-.52-2.21-1.05-3.15-1.43l.04.11c1.58.87,4.46,2.11,4.7,2.3.48.53,2.94,1.32,5.32,1.98Z"/><path d="m38.71,62.76c-1.56-.17,2.01.78,3.71,1.24l1.89.28,1.52.04c-2.44-.54-4.63-.85-7.12-1.55Z"/><path d="m297.36,28.41l-.12.16c1.74,1.4,3.35,2.99,4.62,5.03.04-.04.2.11.14-.09-.07-.19-.29-.78-1.37-2.07-1.69-1.88-2.65-2.57-2.47-2.64-.9-.68-.68-.38-.79-.39Z"/><path d="m34.89,19.38c2.24-.9,3.95-1.58,3.22-1.57-2.35.84-5.77,2.11-6.2,2.48l.5-.06c.82-.29,1.65-.58,2.47-.85Z"/><path d="m26.37,14.7c-1.73.57-.85.14-1.17.18-1.14.43-2.29.84-3.43,1.3-.45.44-.47.58,4.72-1.3l-.12-.17Z"/><path d="m239.29,11.07l-.2-.19c-2.34-.37-4.35-.63-6.07-.78,1.43.67,3.88.8,6.27.96Z"/><path d="m27.2,57.46s-.26-.02-.05.1c.58.35-2.72-.84.77.62,3.11,1.24.49.02.97.12.14.03,1.17.42,1.8.64-.73-.36-1.39-.68-3.49-1.48Z"/><path d="m46.29,15.94c-.84.21-1.75.43-2.59.64-.83.23-1.6.48-2.17.73.86-.24,1.71-.49,2.57-.71.97-.27,1.81-.48,2.27-.55,1.59-.44,3.17-.9,4.77-1.29l-1.02.18c-1.28.31-2.56.68-3.83,1.01Z"/><path d="m175.92,69.42s.09-.04,0-.05c-.43-.04,1.37-.32-1.6-.08-1.02.08-2.9.4-.96.34l2.56-.21Z"/><path d="m150.4,4.07c-.08.11-3.17.16-2.43.31,1.24,0,2.49.02,3.73.03-.44-.11.86-.23-1.3-.34Z"/><path d="m146.22,1.08c-.08-.09-1.26-.16-2.55-.22-5.4.02,1.18.16-.28.22.23.02.55.02.94.02h1.62c.34,0,.43,0,.28-.02Z"/><path d="m20.18,57.09c-.73-.36-1.46-.73-2.18-1.11.87.67,3.53,2.03,5.17,2.87l.18-.06-.03-.16c-.59-.29-1.04-.52-1.49-.74-.2-.02-.93-.41-1.65-.8Z"/><path d="m282.44,20.06c.16.17,2.69,1.03,3.39,1.4l1.84.67-1.43-.68c-1.2-.5-2.46-.98-3.8-1.39Z"/><path d="m45.84,64.32l-1.52-.04c1.26.25,2.52.46,3.78.69l.18-.13-2.44-.52Z"/><path d="m102.58,70.88c.72.15,1.69.28,3.83.21-1.02-.11-1.43-.28-3.83-.21Z"/><path d="m94.36,6.46l3.82-.47c.16-.19-1.95.08-3.83.29v.17Z"/><path d="m113.54,71.36c1.82.02,3.88.1,5.16,0-2.62-.17-4.02-.12-5.16,0Z"/><path d="m188.77,68.16c-1.2.07-2.59.24-4.15.46,1.34-.12,2.14-.03,4.15-.46Z"/><path d="m50.13,14.93l1.02-.18,2.37-.57-.11-.03c-1.08.2-2.17.45-3.27.79Z"/><path d="m7.45,47.48s-.04,0-.14-.08c.13.11.27.23.42.37.11.04.23.08.35.12l-.63-.41Z"/><path d="m46.37,16.04c-.46.07-1.3.29-2.27.55,0,.1.77-.09,2.27-.55Z"/><path d="m18.58,18.72c-.14.01.03-.16-1.19.42-.89.42-.7.39-.03.11.41-.18.81-.37,1.22-.53Z"/><path d="m23.35,58.8l-.18.06c1.16.53,1.99.83,2.4.92-.75-.3-1.49-.63-2.22-.98Z"/><path d="m17.91,55.97c-.94-.52-1.87-1.06-2.79-1.62,1.11.78,2.05,1.33,2.79,1.62Z"/><path d="m144.34,4.25l-.03.19c.81.01,1.23,0,1.27-.05-.11-.06.48-.13-1.24-.14Z"/><path d="m223.34,66.45l.4.08c1.27-.18.48-.15.75-.22-.39.04-.77.08-1.15.15Z"/><path d="m60.35,5.35c1.2-.16,2.49-.33,2.6-.48-1.1.16-2.19.33-2.6.48Z"/><path d="m33.89,60.7c2.41.83,4.84,1.55,7.29,2.23h0s0,0,0,0c1.22.25,2.45.49,3.68.74,1.3.25,1.88.31,1.99.28l.2-.14c-2.06-.4-2.73-.58-1.97-.53.35.02.84.06-.51-.21-.4-.07-1.03-.19-1.56-.29-.27-.05-.51-.09-.68-.12-.17-.03-.28-.04-.28-.04.05.07-.26.06-.8,0h0c-1.54-.3-4.9-1.29-6.46-1.72-.43-.11-.62-.14-.91-.2Z"/><path d="m112.3,71.17c2.58.13,5.16.27,7.67.22-4.33-.14-.79-.27-3.83-.41l-4.87-.24c.62.15,3.2.35,1.03.44Z"/><path d="m15.59,27.68c1.77-1.04,4.11-2.31,6.62-3.49-.11-.02.21-.26-.42-.02-.85.33,2.43-1.31-.59.09-2.07,1.02-1.61.92-1.36.86.12-.02.19.08-1.19.68-2.49,1.15-1.84,1.14-3.07,1.87Z"/><path d="m69.93,67.72l3.64.51c.48,0,3.61.31.86-.1-2.9-.43-3.9-.45-4.5-.42Z"/><path d="m61.28,66.43c-1.06-.13-2.04-.22-1.4-.08,1.92.42,4.17.6,6.31.92-.16-.19-2.97-.53-4.91-.84Z"/><path d="m7.01,37.44c-.21.81-.15,1.65-.17,2.49.14.82.2,1.66.52,2.43.03-.15-.16-.57-.21-1.25-.05-.33-.11-.71-.17-1.14,0-.43,0-.89,0-1.39.17-1.51.07-1.02.02-1.15Z"/><path d="m53.49,13.94c.33-.08.66-.17,1.01-.26l.11-.14c-1.43.36-3.2.76-3.82,1.01l2.69-.62Z"/><path d="m74.52,68.34c.49.2,2.21.36,3.95.51l-.11-.13c-1.29-.13-2.57-.26-3.84-.38Z"/><path d="m51.37,64.35c-.26-.06-.5-.11-.75-.16l-.69-.07c.31.06.67.13.91.18.24.04.35.04.53.05Z"/><path d="m12.57,29.88c.73-.59,1.47-1.16,2.25-1.69-.31.18-.55.28-.95.55-1.1.82-1.03.87-1.31,1.13Z"/><path d="m60.23,66.11l1.16.29c1.84.18.41-.04-1.16-.29Z"/><path d="m78.36,68.72c.66.06,1.62.17,1.61.11,0,0-.47-.08-.71-.1-1.11-.11-.8-.03-.9,0Z"/><path d="m47.07,63.81l-.2.14c1.56.23,1.7.2.2-.14Z"/><path d="m16.17,52.04s.16.15.3.25c0-.03-.16-.15-.3-.25Z"/><path d="m57.04,13l.04-.07c-.81.2-1.63.39-2.44.62.78-.2,1.59-.37,2.4-.55Z"/><path d="m56.56,65.59l-.27-.07c.1.03.2.05.27.07Z"/><path d="m79.07,68.91l.34.1c1.06.07.84.03-.34-.1Z"/><path d="m28.63,14.16c-1.36.59-3.5,1.49-1.86,1.04.7-.19,1.54-.43,2.98-.93,2.13-.74,2.35-.91,2.6-1.1-1.14.3-1.73.39-.82-.05.42-.2.29-.22-.97.22-1.52.53-1.73.68-1.94.82Z"/><path d="m131.2.38c-3.27.06-2.18.18-2.47.28,1.21,0,2.92-.08,3.09.04.09.06,1.27.12,2.34.09,1.1-.03,2.12-.11,2.51-.18.65-.11-1.48-.04-2.14-.07-1.3-.07-2.24-.12-3.33-.17Z"/><path d="m68.64,4.83c2.24.02,6.31-.6,10.19-1.03-2.85.11-6.08.37-10.19,1.03Z"/><path d="m65.64,5.27c.41-.06.83-.13,1.24-.2.21-.05.33-.09.63-.14,2.31-.38,3.86-.65,1.44-.49-.63.03-2.36.24-2.06.26.71.05-6.91,1.2-1.26.57Z"/><path d="m39.35,11.05c1.13-.33,2.25-.66,3.39-.95.01-.09,2.82-.98-.21-.21-2.24.56-3.75,1.19-3.18,1.15Z"/><path d="m55.47,6.97l3.88-.55c-.11-.06,1.97-.48.18-.25-1.42.19-2.93.52-4.06.8Z"/><path d="m123.69.84c-.71,0-1.14-.02-1.56,0-.45.01-.89.05-1.33.08.38,0,.72.03,1.14.02.43,0,.94-.05,1.75-.09Z"/><path d="m61.95,6c1.11-.21,2.23-.39,3.34-.56.16-.03.32-.06.48-.1l-.16-.04c-1.5.23-3.71.56-3.66.7Z"/><path d="m36.37,11.97c.96-.27,1.95-.48,2.89-.89-.96.3-1.94.56-2.89.89Z"/><path d="m116.33,1.4c-.35,0-.52.02-.69.03.13,0,.25,0,.69-.03Z"/><path d="m276.15,56.88c1.3-.42,2.8-.9,3.54-1.26.51-.38,4.44-1.66,5.9-2.44.55-.28,2.57-.91,3.33-1.45.47-.32-1.42.46-2.61.87-1.21.43-2.15.79-3.78,1.5-2.05.88-4.5,1.79-6.48,2.17-1.18.24-3.23.95-4.43,1.35-2.11.68-.36.27.89-.04,2-.47,3.96-.99,3.64-.71Z"/><path d="m297.36,28.41c.11.01-.1-.28.79.39.31.07,2.5,2.13,1.5,1.02-.33-.41-1.23-1.21-1.84-1.7-2.15-1.54-.8-.4-1.31-.68-.28-.16-.51-.24-.93-.48-.8-.49-3.21-1.79-2.36-1.21.97.68,2.74,1.54,4.15,2.65Z"/><path d="m303.05,35.01c.06.25.12.49.17.73.1.22.11.46.18.69-.02-.32-.06-.68-.16-.92-.07-.22-.13-.33-.19-.5Z"/><path d="m253.58,62.42l-1.19.23c.39-.08.8-.16,1.19-.23Z"/><path d="m157.68,70.2c.25.03.33.1,1.96-.05-.22-.03-1.01,0-1.96.05Z"/><path d="m200.22,69.53l2.49-.21c.02-.09-.56-.17.2-.27,1.34-.18,2.55-.32,2.09-.39-.23-.03-.97.05-1.26.1-1.07.18-4.67.46-3.7.57.32.04.13.12.17.19Z"/><path d="m192.97,69.86c.77,0,.83.1,2.58-.02.24-.02.85-.11.78-.13-.35-.09-2.03.06-3.36.15Z"/><path d="m164.92,71.38c.36-.01.72-.02,1.07-.03,0-.05.22-.12-1.19-.07l.11.11Z"/><path d="m213.53,67.97l.27-.14c-1.44.14-1.22.18-1.41.25l1.14-.1Z"/><path d="m207.6,68.76l-.44-.05c-1.17.15.03.07.44.05Z"/><path d="m116.15,70.98c3.04.14-.5.27,3.83.41,1.58.04,2.69,0,3.52-.05,1.75-.1,3.89-.2.64-.36-5.11-.24-5.34,0-7.99,0Z"/><path d="m136.68,70.95c-1.76.04-4.57-.05-4.42.13.05.06.76.16,2.76.1,1.93-.06,4.77-.17,4.87-.24.21-.13-2.3.03-3.21,0Z"/><path d="m134.76,71.41c1.38.05,2.23.12,3.24.11,1.27,0,3.52-.05,3.6-.17.05-.07-.78-.07-2.12-.06-1.45.04-2.85.07-4.72.12Z"/><path d="m151.55,70.54c.17.03.18.08,1.45,0,.4-.02.61-.08.91-.12l-2.37.11Z"/><path d="m129.9,71.21c.4-.02.15-.02-.09-.02l.09.02Z"/><path d="m149.22,70.59l.56-.02.56-.02c-.37,0-.74,0-1.11.04Z"/><path d="m3.99,43.92c.06.27.79,1.31,2.05,2.57,1.63,1.56,1.09.84,1.3.93-.79-.75-1.21-1.13-1.66-1.56-.45-.42-.93-.89-1.69-1.94Z"/><path d="m11.92,21.23c.11.07-.46.48,2.2-.92-.2.02.29-.35-1.01.26l-1.19.66Z"/><path d="m3.97,43.9l-.14-.23c.05.08.1.17.14.23Z"/><path d="m241.47,11.42l-2.2-.36c.38.11-.76.03,1,.31,1,.16,1.26.12,1.19.05Z"/><path d="m211.72,7.3c-1.99-.25-4.04-.47-4.04-.3,1.49.11,3.15.29,4.04.3Z"/><path d="m31.44,61.15c-2.39-.66-4.84-1.46-5.32-1.98-.24-.19-3.12-1.43-4.7-2.3.81.58,1.44,1.07,2.5,1.73,2.26,1.44,6.9,3.07,10.79,3.86.49.1.74.11,1.33.25,2.2.51,2.4.33.25-.32q-.89-.27-1.45-.27c-.26,0-.22.1-1.85-.37-.5-.14-1.03-.38-1.55-.59Z"/><path d="m49.44,65.3l-1.3-.26c-2.35-.22,1.19.69,1.04.89l3.66.52c.38-.15-4.4-1.11-3.39-1.15Z"/><path d="m43.23,64.79c1.31.3,2.66.57,3.65.7-.03-.02,0-.03-.12-.05-1.6-.4-1.26-.53-3.25-.93-2.92-.58.29.29-.28.29Z"/><path d="m36.91,63.09c-.35-.07-.75-.16-.72-.14.1.06.35.17.54.25.16.02.44.08.45.06.02-.03-.15-.1-.27-.17Z"/><path d="m20.18,57.09c.71.39,1.45.79,1.65.8-.69-.36-1.62-.91-1.65-.8Z"/><path d="m23.32,58.63l.48.19c-.21-.09-.41-.17-.48-.19Z"/><path d="m234.1,65.2l-3.43.49c-.98.44-6.75,1.1-8.6,1.55.2.07-.27.25,2.49-.11-1.19.01.81-.3,2.08-.5,1.55-.24,2.3-.24,2.89-.25l3.49-.48c6.51-1.23,6.61-1.33,1.08-.69Z"/><path d="m229.53,66.37c-.59.01-1.34.02-2.89.25-1.27.2-3.27.52-2.08.5,1.89-.24,4.24-.47,4.97-.76Z"/><path d="m246.59,63.61c-3.35.24-4.32.82-6.47,1.17,2.66-.27,4.59-.74,6.47-1.17Z"/><path d="m253.6,62.41l-1.24.24c.42-.02.84-.1,1.24-.24Z"/><path d="m95.33,70.66c-2.4-.15-2.53-.06-2.72.02.35.15-.9.05-2.23-.08-.76.08-.24.29-3.7.07-.72.12,3.07.34,3.6.48,4.9.11,5.31-.17,5.06-.49Z"/><path d="m56.49,66.65l-1.52-.22c.84.2,1.07.17,1.52.22Z"/><path d="m112.86,5.1c.58-.1.74-.17.89-.24-2.46.19-4.92.34-7.36.56-2.21.2-2.25.29-2.34.38,1.32-.1,2.92-.27,3.71-.25l5.1-.44Z"/><path d="m106.39,5.42c2.45-.22,4.9-.37,7.35-.56l.09-.14c-2.83.2-5.67.35-8.49.61l1.06.09Z"/><path d="m78.6,9.06c.06.05.19.1,1.53-.1.61-.1,1.4-.26,2.11-.39-.88.04-2.3.27-3.64.48Z"/><path d="m107.76,5.54c-.79-.02-2.39.15-3.71.25.76.02,2.26-.13,3.71-.25Z"/><path d="m93.12,6.67s-1.14.21-.05.11c.11-.01.46-.06.56-.08.7-.13.28-.11-.5-.04Z"/><path d="m144.08,71.53c-2.06.09-3.92-.34-6.11.09-.34.3,4.12.08,6.18.11-.03-.07-.05-.13-.06-.2Z"/><path d="m118.47,71.84h.5c-.16,0-.31,0-.5,0Z"/><path d="m144.15,71.73l.27.02c-.09,0-.19-.02-.27-.02Z"/><path d="m57.04,13c-.81.18-1.62.35-2.43.55l-.11.14c1.69-.41,2.52-.59,2.54-.69Z"/><path d="m197.67,5.93c-6.21-.69-6.96-.51-6.99-.26l1.31.39c4.61.56,7.26.55,10.87.84.46-.19.18-.43-5.19-.97Z"/><path d="m138.54,4.06h-.53s.22.03.53,0Z"/><path d="m65.3,5.44l.86-.1c-.13,0-.26,0-.39,0-.16.03-.32.06-.48.09Z"/><path d="m150.44,4.07c-.43-.02-.85-.04-1.29-.07-.01,0-.23.01-.35.02.53.02,1.07.03,1.64.05Z"/><path d="m219.82,8.96l2.31.36c-.15-.11-.25-.21-2.31-.36Z"/><path d="m113.75,4.85c-.16.07-.31.14-.47.22,1.2-.1,2.55-.16,2.75-.26.2-.09-.97-.06-2.28.04Z"/><path d="m102.78,71.17c-.14.07-.19.13,1,.23-.13-.07.42-.13-1-.23Z"/><path d="m108.71,71.78l-.25-.03c.09.01.18.02.25.03Z"/><path d="m99.05,71.27c.25.06.23.13.83.19.78.07,1.53.04,1.28,0-.49-.1,2.01-.14-1.75-.3-.12.04-.24.08-.36.12Z"/><path d="m99.05,71.27c.12-.04.24-.08.36-.12-1.86-.06-1.71,0-.36.12Z"/><path d="m175.07,70.93c.17,0,.33.01.53.02.02,0,.43-.03.45-.04.05-.02-.02-.04-.04-.05l-.95.07Z"/><path d="m286.76,22.21l-.46-.17c.17.06.34.13.46.17Z"/><path d="m125.14.49l1.9-.09-.48-.03c-.5.04-1,.08-1.42.11Z"/><path d="m164.12,71.59h-1.56c.11.04.43.06.75.08l.81-.08Z"/><path d="m90.37,70.6c1.33.13,2.59.23,2.23.08l-2.23-.08Z"/>
                  </g>
                </mask>
              </defs>
              <path class="mask" d="m167.88,1.37c-25.7-1.35-47.19-.72-62.61.21-26.06,1.56-49.32,3.09-72.81,11.37C20.04,17.33,4.96,22.64,1.4,31.8c-5.18,13.33,18.02,24.5,22.23,26.52,3.3,1.59,16.24,7.22,54.09,11.24,23.06,2.45,47.47,2.53,71.58,1.99,38.62-.87,78.22-3.45,112.65-11.36,20.55-4.72,40.3-12.46,41.45-21.99.75-6.21-6.84-12.05-17.54-16.19-10.7-4.14-24.28-6.8-37.98-9.08-33.4-5.55-69.26-9.21-105.89-8.93-36.63.28-74.13,4.71-104.1,14.01-11.74,3.65-22.55,8.2-27.63,13.85-7.59,8.43-.72,18.01,13.32,24.42,5.67,2.59,11.56,4.7,17.69,6.4,11.11,2.24,23.47,4.24,37.06,5.74,58.48,6.47,109.9.34,141.8-5.28"
                    mask="url(#path-mask)" stroke="black" stroke-width="2" fill="none"
                    stroke-dasharray="1040.178955078125" stroke-dashoffset="1040.178955078125">
              </path>
            </svg>
        