
            <svg xmlns="http://www.w3.org/2000/svg">
              <defs>
                <mask id="path-mask">
                  <g fill="white">
                    <path d="m377.32,64.56c3.35-.63,1.16-.64,1.8-.97l2.44-.24c2.02-.08,4.35-.3,6.28-.33,3.96-.09,11.17-1.62,14.11-2.89,2.12-.37,3.43-.74,4.28-1.13,2.84-.42,6.89-1.77,9.13-1.91.65.11,3.16-.29,1.19.55-1.42.61-3.02,1.08-5.44,1.48-2,.33-3.8.72-4.86,1.23l-1.86.4c-2.28.62-5.57.45-7.24,1.51-.73.13-2.07.36-2.1.36-1.71.97-6.06,1.46-9.8,1.96l-.08-.17c1.01-.24.79-.25-.36-.09-.18.04-.38.07-.58.1l-.16-.24c.63-.11,1.57-.23,1.54-.34,0-.02-.47,0-.7.04-1.07.17-.76.22-.86.31-1.22.24-2.44.47-3.67.69-.3.05-.6.1-.91.14.44-.21,3.44-.77.75-.55-2.85.24-3.76.62-4.31.95-.5.32-1.7.53-3.62.62-.23-.34-2.94.16-4.84.34l.08-.12c1.76-.42.36-.28-1.18-.11-2.11,0-2.25.4-3.56.57l-.27-.02h.3c-.1.24.72.43-3.08.77-2.36.21-4.37.52-3.93.81l-2.33.28-2.1-.22c1.27-.14,1.82-.28,1.92-.43,1.51-.29,1.63-.43.12-.42-2.03.18-2.71.13-2.01-.15.33-.14.79-.31-.55-.2-.39.03-1.01.12-1.53.2-.52.08-.94.15-.93.17.3.55-5.07,1.08-7.14,1.6-.42.11-.59.21-.88.31l-.36.2c-4.8.45-9.86.66-14.15,1.42-1.08.19-2.63.16-3.71.15-1.97,0-3.29.13-4.34.43-3.09.13-6.19.24-9.28.33l-.18-.17c-.27-.24-1.76-.27-3.65-.14-1.46.1-.96.27-1.07.41-5.15.38-10.29.73-15.7,1l.22.05c-.07.08.35.16-.67.22-.29.12-.39.25-1.72.29.45-.42-2.13-.41-4.23-.41-4.52.01-9.78-.07-13.73.28-2.74.25-4.58.3-7.25.35-1.61.03-.71.3-.84.46-5.18.12-10.36.23-15.54.29l.02-.32c1.02-.19.77-.37.27-.57-.87-.34.44-.52,3.21-.54l2.45-.19c1.46-.04,3.22,0,3.86-.28l-2.69-.05c-.34-.15-1.92-.28.12-.45,1.07.16,2.16.17,3.28-.05l3.86-.06c1.6.49,4.73.78,8.17,1.01,2.42-.41,5.96-.73,6.45-1.26,3.39-.03,6.78-.03,10.19-.31.09.17-.28.39.38.48.89.12-2.66.52.57.41,2.24-.07,1.79-.31,1.54-.49-.11-.09-.14-.4,1.33-.15,2.69.45,2.1-.28,4.4-.29.35.06.61.19,1.08.18,1.33-.03,1.31-.19,1.67-.31,4.34-.14,8.53-.61,13.15-.61,2.4,0,3.65-.51,4.35-.84,7.08-.42,14.15-.86,21.22-1.42,0,.09-.22.21.01.27.67.18-2.69.87.98.59,3.24-.25.41-.42.86-.66.13-.07,1.2-.19,1.84-.29,5.95-.8,12.4-1.34,18.58-1.97,1.8-.18,4.69-.86,6.17-.6.84.11,3.94-.04,7.26-.29,3.31-.28,6.85-.65,8.54-.98Zm-20.51,1.97l-.66.2c.31-.02.67-.03.9-.06.23-.03.33-.1.5-.15-.26,0-.5,0-.74.01Zm-35.18,3.48c-.13,0-.32.01-.49.02.03.06.21.05.49-.02Z"/><path d="m390.69,4.14c3.98.14,7.92.36,11.85.7,3.93.34,7.85.7,11.8.99.98,1.11,6.12.88,9.4,1.25.64.37.52.7,4.08.69,2.15,0,5.23.4,7.97.75,2.16.44-4.7.62,3.35,1.25,1.16.22,2.82.38,2.91.77.05.2,1.13.61,2.16.76,1.06.14,2.07.15,2.48.05.68-.16-1.37-.48-1.98-.69-1.21-.43-2.06-.83-3.07-1.22.68-.14,3.53.55,3.45.15.82.45,2.8.84,4.56,1.27,1.75.43,3.27.88,3.15,1.26-.12.35-2.67.09-3.82.29-1.19.17-5.84-.78-9.56-1.44-1.68-.31-3.26-.71-4.94-.95-1.63-.23-3.6-.77-4.82-.59-1.31.18,3.21.52,2.34.81-2.62-.02-5.32-.16-8.34-.59-.18-.62-.95-1.12-5.53-.91-3.41.15-7.61-.99-10.92-.6l-1.26-.07-2.37-.36c-3.96-.96-8.26-1.26-12.97-.99-2.74-.65-5.87-1.08-9.92-.96l-1.72-.09c.21-.04.34-.1.63-.11,2.29-.09,3.82-.25,1.5-.8-.61-.14-2.29-.36-2.01-.16.66.47-6.84.21-1.38,1.11-1.48-.03-3.65-.2-3.64.2l-2.57-.14c-.08-.22,1.99-.35.25-.63-1.38-.22-2.89-.2-4.03-.05l-1.62-.1c-3.33-.22-3.51-.65-3.97-1.06-.26-.24-1.04-.46-2.63-.53-.59-.03-1.52.02-1.71.09-.54.21.75.32,1.77.46,3.65.51-2.98.59.19,1.09-.81.34-2.86.21-4.79.13l-.02-.26c.05-.25,2.92-.47-.11-.75-2.24-.21-3.83.07-3.39.51l-2.95-.12-4.06-.52c-1.13-.34-1.68-.66-.7-.97.45-.14.35-.3-.94-.37-1.56-.09-1.81.1-2.06.27l-2.19-.27-.03-.58c3.71.19,7.91.1,10.36.93.93.32,2.31.21,2.55-.07.17-.2-.11-.45,1.46-.51,6.46-.21,13.09.06,19.88.76,4.1.9,12.72,1.42,17.94.91Zm42.08,4.79c-.44-.05-.87-.02-1.3-.02.36.1.68.23,1.08.28.42.06.91.05,1.71.08-.68-.16-1.08-.3-1.49-.34Z"/><path d="m5.8,32.05c-1.09,1.02-1.8,1.8-2.37,2.47-.59.67-.97,1.28-1.32,1.99-.13.37-.28.42-.43.7-.09.14-.1.34-.11.67-.03.33.07.78.26,1.4.39.97.73,1.23.87,1.25.15.01.19-.24.23-.46.07-.41.28-.68.45-.97.72,1.86,2.46,3.48,4.31,4.82-.07.12-.33.14-.25.35.09.21.51.65,1.89,1.51,2.11,1.26,3.05,1.89,2.79,2.19-.35.09-2.92-1.32-1.82-.34.38.36,1.35,1.02,2.04,1.36,2.32,1.11.94.04,1.53.12.33.04.59.03,1.05.15.89.25,3.37,1.21,2.55.6-.95-.7-2.85-1.09-4.38-1.94l.24-.47c6.13,2.93,12.39,5.26,18.59,7.55-1.2.2-2.1.67-7.32-1.66-.86-.39-2.3-.88-2.74-.81-.47.08.61.56,1.82,1.04.3.42.59.84.73,1.24l-1.84-.5,1.36.75c-4.41-1.19-8.39-2.89-11.81-5.15-.79-.8-2.39-2.1-4.36-2.98-1.87-.85-4.29-2.64-5.9-5.18-.8-1.25-1.32-2.76-1.38-4.15-.06-1.38.2-2.58.34-3.42.6-1.05,1.33-1.96,2.12-2.73.78-.79,1.62-1.49,2.48-2.12,1.72-1.28,3.54-2.33,5.39-3.21.07.33.81.16,1.81-.21,1-.37,2.32-.91,3.47-1.5,2.08-.99,3.4-1.36,5.07-1.75-.2.34-1.27.79-2.48,1.22-.6.22-1.24.44-1.81.67-.56.25-1.06.5-1.4.74-.5.36-2.64.61-3.27,1.39-.39.46,1.5-.2,2.72-.46,1.24-.28,2.13-.66,3.69-1.41.98-.47,2.04-1.01,3.14-1.34,1.1-.34,2.2-.57,3.21-.58,1.21-.01,3.17-.78,4.33-1.24,2.02-.79.3-.48-.96-.3-1.99.26-3.97.56-3.74.02.39-.18.78-.36,1.18-.52,1.19.06,2.8-.27,4.57-.71,1.78-.39,3.71-.92,5.5-1.3,1.4-.27,4.55-1.22,3.75-.34-.2.19,4.09-.95,4.19-1.15.19-.43,1.36-.63,2.95-.94l1.17-.21c2.15-.53,4.7-1.26,3.93-.37-1.02.6-.99.58.88.38.82-.08,1.92-.15,2.12-.07.68.29-2.62.71-3.1,1.08-1.64.36-3.33.73-4.96,1.08-1.63.35-3.21.59-4.68.52-.76-.05-2.79.68-2.65.7.63.13-3.88,1.22-.62.82-.1.2-.44.31-1.75.57-2.15.42-4.29.87-6.44,1.34-2.12.55-4.28,1.07-6.34,1.91-.49-.56-1.87-.24-3.44.39-1.54.68-3.35,1.47-4.67,2.05-.77.32-1.47.64-2.15.97-.67.35-1.31.71-1.94,1.09-1.23.75-2.49,1.51-3.97,2.4.22-.38.81-1,.73-1.12-.04-.1-.91.17-3.08,2.08Zm-.78,11.29c-.21-.11-.4-.24-.61-.37.2.24.42.51.62.67.17.14.31.17.47.26-.17-.19-.32-.38-.48-.56Z"/><path d="m442.76,14.24c-3.91-1.75-8.69-3.83-12.51-4.82-3.17-1.46-8.36-2.7-12.31-3.83-1.13-.32-1.57-.41-2.39-.58-2.53-.48-3.3.01-.57.76,2.86.81,3.73,1.19,4.41,1.57.71.4,2.05.97,4.85,1.47.31.05,1.43.36,1.91.53,4.59,1.58,9.05,3.02,13.42,4.97,4.98,2.26,9.94,4.86,13.8,8.67,1.87,1.9,3.43,4.22,3.74,6.82.15,1.29-.01,2.6-.43,3.84-.43,1.24-1.1,2.41-1.9,3.48l.19.11c.55-.74.93-1.37,1.11-1.51.8-1.41,1.31-3.29,1.33-4.6.05-.79-.07-1.62-.28-2.44-.11-.41-.24-.82-.42-1.2l-.24-.59-.31-.56c-.81-1.48-1.85-2.73-2.65-3.74-.46-.61-2.75-2.89-5.55-4.66-2.75-1.84-5.82-3.34-6.88-3.77-.35-.15-.74-.26-.7-.21.39.48-1.49-.53-2.37-.94-1.04-.53-1.68-.86-2.58-1.32-.52-.25-2.23-.82-2.03-.84.12-.02,1.11.28,2.43.76,2.75.99,6.47,2.79,6.97,2.64Z"/><path d="m124.73,6.15c-2.88.36-6.31.57-8.16,1.23.83-.02,1.91.03,2.48-.05,2.21-.35,4.29-.72,5.96-.39,1.37.27-.49.64-1.83,1.01-2.36.66-4.23.62-6.2.47-1.23-.09-3.28,0-4.26.26-3.35.86-4.9.48-6.95.42-1.29.11-2.92.34-3.29.08-.07-.05.51-.25.75-.27,1.7-.15,1.78.11,2.53.2l3.54-1.3c-2.46-.54-5.53.26-8.44.71.1.26-.06.5-2.18.77.05.18-.12.39.21.52.98.41-2.52.71-3.54,1.06-.28.1-.99.23-1.22.12-.47-.24.69-.47,1.98-.77.73-.17.14-.45.15-.69-1.13.38-4.48.32-4.75.88.43.02,1.6-.08.48.19l-.45-.19c-1.69.07-.72-.52-2.81-.26-.74.09-1.29.53-1.93.8.04.16-.19.32-1.18.51.06.05.13.1.2.15l1.1-.11c1.87.09,7.65-.25-.13.88-.51.07-.72.32-1.07.5,3.36-.39,6.85-1.08,9.96-.84.38.03,4.85-.91,7.87-1.23.81-.3,1.83-.45,3.65-.66,5.31-.59,10.91-.61,15.95-1.59,2.09.4,5.7-.55,7.89-.4,2.14.14,3.84.1,6.45-.37,3.54-.65,5.11-.48,5.23.11l5.87-.48c-.29-.35,1.31-.69,2.47-1.03-2.72-.29-5.55-.57.12-1.41.73-.11.24-.23-.5-.26-2.28.52-5.68.23-7.6.69-4.42,1.05-3.58.27-4.21-.03l-1.24.1c-.1.22-.77.39-2.19.5-.15.29-1.09.44-2.47.58l.13.29c-1.37.09-1.16-.09-1.17-.23-2.69-.09-6.73.17-7.21-.46Z"/><path d="m423.76,55.6c1.47-.45,2.47-.88,3.21-1.23,1.55-.73,3.43-1.65.36-.88-4.84,1.14-4.89,1.73-7.33,2.58l-4.63,1.02c-2.25.13-6.29,1.48-9.13,1.91l-.12-.29c2.69-.53,5.7-1.59,7.74-1.83,2.58-.32,5.17-1.06,8.04-1.99,5.66-1.8,11.27-3.79,16.62-6.33,2.63-1.33,5.28-2.73,7.77-4.32,2.49-1.59,4.92-3.3,6.97-5.41.22-.07.33.04-.68,1.12-.55.52-1.13,1.03-1.72,1.5-.33.22-.65.44-.99.65-.31.18-.61.38-.86.64-3.04,2.21-4.93,3.26-5.61,3.78-.69.5-.22.42,1.15-.1.08-.03.11-.03.17-.04,2.81-1.84,4.63-2.94,6.39-4.15.88-.61,1.73-1.25,2.63-2.09.89-.84,1.83-1.88,2.72-3.34.75-1.21,1.41-2.77,1.7-4.17.32-1.4.28-2.59.42-3.01.13.98.13,2.04.03,2.93-.11.89-.31,1.59-.5,1.87-.34.54-.71,1.25-1.16,2.03-.45.77-.98,1.59-1.58,2.34-2.17,2.64-4.79,4.71-7.53,6.54-2.76,1.82-5.62,3.4-8.66,4.96-4.34,2.15-8.94,3.83-13.62,5.29-4.68,1.45-9.43,2.74-14.19,3.89-1.89.48-4.9,1.23-5.12.9,1.06-.51,2.85-.9,4.86-1.23,2.42-.41,4.02-.88,5.44-1.48,1.23-.27,2.47-.52,3.67-.85,1.21-.34,2.39-.72,3.53-1.19Zm11-4.74c.09.09.83.06,2.56-.82,1.71-.79,4.05-2.27,4.09-2.41.06-.33-1.97,1.03-2.79,1.36-1.54.75-4.12,1.63-3.86,1.88Zm5.51-1.42c.55-.28,1.32-.68,1.95-1.04.62-.36,1.08-.7,1.07-.8-.02-.13-.76.2-1.93.8-1.25.67-2.44,1.37-4.09,2.15,1.28-.44,2.12-.64,2.99-1.11Zm-6.97,2.24l-.67.26h.1c.5-.19.51-.22.57-.26Z"/><path d="m326.55,1.13c-2.96.08-5.27-.03-8.6-.31-2.42-.2-5.14-.3-7.94-.34-2.8,0-5.69-.01-8.44-.02-2.75-.02-5.7-.31-8.28-.03l-.03.54c.6.26,2.16.68.3.74-5.5.19-4.78,1.2-8.59,1.59,2.03,0,3.82-.09,5.42-.27.2,0,.38-.02.52-.04.21-.24-.65-.58,1.55-.67,1.73-.06,2.96.07,3.2.38l.28.08-.26-.08c-2.55-.22-2.64.36-4.75.3-.13.03-.18.06-.16.1,2.41.6,5.37.1,8.02.23,3.38-.51,6.95-.42,10.55.12,1.07.16,1.78.37,2.99.08,1.86-.46,4.55-.21,7.14.04,3.71-.3,2.02-.84,1.13-1.36-.23-.13-1-.33.3-.38,1.11-.04,1.76.11,2.22.27l1.32.02c-.68-.43,2.84-.53,2.13-.96Z"/><path d="m75.86,66.28c2.29.58,4.69,1.16,7.93,1.29,4.07-.02,8.33.38,12.84,1.26.88-.14,2.51-.02,3.96.03l2.4.37c-.27-.19-.69-.53-.8-.54-4.42-.32-7.31-1.25-11.55-1.67-3.09-.29-5.9-.67-6.67-1.33-.02-.02-.33-.06-.5-.1-.59,0-1.18-.02-1.77-.03.44.69-2.66.22-5.02-.13-7.75-1.21-15.61-2.07-23.37-3.92-4.67-1.11-4.95-1.07-2.57-1.25.72-.07,1.21-.2,1.81-.31-4.49-.76-9.53-2.26-13.24-2.56.81.27,1.59.56,2.45.81,1.41.4,3.54.48,4.07,1.02.22.22-2.08-.02-3.55-.19-.77-.1-2.18-.51-3.31-.79-.94-.23-1.95-.56-2.44-.52-.65.04.3.42,1.24.8,1.48.58,1.8,1.03,4.18,1.64,2.93,1.1,6.22,2.07,10.26,2.66,4.67.38,10.01,1.3,15.41,2.15-.05-.16.22-.3,1.19-.15,1.72.27.58.35.94.54,2.36-.17,4.8-.48,6.09.92Z"/><path d="m450.86,41.48c-.33.22-.65.44-.99.65l-.43.32-.43.32c-3.04,2.21-4.93,3.26-5.61,3.78-.69.5-.22.42,1.15-.1.08-.03.11-.03.17-.04,2.81-1.84,4.63-2.94,6.39-4.15.88-.61,1.73-1.25,2.63-2.09.89-.84,1.83-1.88,2.72-3.34.75-1.21,1.41-2.77,1.7-4.17.32-1.4.28-2.59.42-3.01-.18-1.08-.64-2.53-1.33-3.75-.65-1.25-1.53-2.24-2.1-2.76,1.06,1.65-.3.28-1-.41-2.07-2.07-.65-.98-.85-1.38-.04-.08.04-.04.07-.06-.74-.89-1.96-1.83-3.25-2.72-1.3-.88-2.67-1.68-3.73-2.36-1.39-.69-2.61-1.31-3.62-1.94-.51.14-4.23-1.66-6.98-2.65-1.31-.48-2.3-.79-2.43-.76-.19.02,1.51.59,2.03.84.9.46,1.54.79,2.58,1.32.88.42,2.76,1.42,2.37.94-.04-.05.34.06.7.21,1.06.43,4.13,1.93,6.88,3.77,2.8,1.77,5.09,4.06,5.55,4.66.8,1.01,1.84,2.26,2.65,3.74l.31.56.24.59c.18.39.31.79.42,1.2.2.82.33,1.65.28,2.44-.01,1.31-.53,3.19-1.32,4.6-.73,1.4-.92,1.36-1.11,1.51l-.19-.11c-.46.6-.96,1.18-1.49,1.72.22-.07.33.04-.68,1.12-.17.24-.28.44-.55.71-.92.83-.99.75-1.16.8Z"/><path d="m274.34,3.08l-.08-.22c-.96-.43-1.72-.86-2.92-1.27-2.57-.87-7.28-.95-11.14-.22-.48.09-.72.24-1.31.28-2.19.18-2.34.82-.15,1.05q.91.1,1.43-.31c.24-.19.18-.44,1.83-.46.51,0,1.07.22,1.61.34,3.12.14,2.92.59,3.62.96-3.56.24-7.2.21-10.87.09,1.51-.61-2.09-.71-3.8-1l-1.85.38-3.74.22c-.06-.05-.07-.1-.05-.15,2.28-.69-1.28-1.24-1.17-1.87l2.26-.04s0,.07.12.08c1.61.19,1.31.82,3.28.69,2.9-.19-.34-.62.2-.95l1.35-.43c5.49,0,11.09-.15,16.46.15h2.33s.1.37.1.37l-.49.1.65-.07h1.46c.75.03,1.8.2,1.77-.1l2.37-.17-.33.06-.36-.06c1.62.43,5.66.4,6.8,1.1.54.33,5.64-.25,8.41-.49.46-.04.75-.12,1.12-.18.6.26,2.16.68.3.74-5.5.19-4.78,1.2-8.59,1.59-3.67.21-7.21.16-10.61-.21Zm-15.66-2c-.11-.1-.37-.2-.57-.3-.16.05-.44.11-.44.16,0,.08.17.17.3.28.34-.06.75-.1.71-.13Z"/><path d="m98.69,9.28c2.11-.27,2.28-.51,2.18-.77l-1.99.15-1.52.19c-3.82.27-7.51.51-11.52,1.22-1.63.3-4.01.61-6,.66-2.18.06-6.26.58-6.94.72-7.22,1.61-14.31,2.35-21.35,3.24-2.58.35-4.15.89-6.25,1.32-5.36,1.01-10.69,2.2-16,3.55-5.3,1.37-10.57,2.97-15.72,5.17-1.11.44-2.23.91-2.77,1.42.07.33.81.16,1.81-.21,1-.37,2.32-.91,3.47-1.5,2.08-.99,3.4-1.36,5.07-1.75.69-.46,2.18-.87,3.45-1.29.39-.18.78-.36,1.18-.52,1.19.06,2.8-.27,4.57-.71,1.78-.39,3.71-.92,5.5-1.3,1.4-.27,4.55-1.22,3.75-.34-.2.19,4.09-.95,4.19-1.15.19-.43,1.36-.63,2.95-.94.35-.24.76-.3,1.19-.21,2.13-.53,4.68-1.26,3.9-.37.59-.1,1.18-.2,1.77-.29,1.8-.58,3.67-1.14,6.29-1.21,2.06-.74,4.05-1.64,6.91-1.11l3.4-.44c.68-.55,2.97-.71,4.81-.95,2.69-.38,2.25,0,2.47.22,3.02-1.04,6.16-1.22,9.33-1.14.64-.28,1.19-.71,1.93-.8,2.09-.26,1.11.33,2.81.26.24-.56,3.58-.5,4.72-.88l2.42-.24Z"/><path d="m225.56.92c-1.69-.29-3.54-.43-6.03-.02,1.43.26,2.83.55,1.16.96-1.32.32-2.34-.15-3.76.02-1.89-.54-2.95-.14-4.18.21-1.4.41-2.78.53-3.76.07-3.37.25-2.83.69-3.42,1.07.52.4,3.24.43,4.58.71,2.26.31,5.23.3,8.06.03,2.13-.19,3.96-.25,6.01-.21,2.08-.28-.1-.9,3.51-1,2.68-.08,2.24.37,2.67.64l2.38-.09c-.18-.27-.5-.53-.47-.8.02-.18,1.11-.26,2.14-.28.89-.01,1.57.08,1.06.22-.75.2-2.83.41-.63.57.55.04,2.48-.33,3.78-.52.41-.07.62-.24,1.47-.09l-1.5.09c.92.74,3.88.52,7,.29.95-.63-3.8-.89-3.46-1.47-5.12.43-5.07-.06-4.69-.62-2.06.14-3.76-.22-5.88,0,.32.63-1.95,1.23-5.49,1.25-4.92.02,1.57-.61-.13-.87-.24-.04-.28-.1-.41-.16Z"/><path d="m205.2,74.12l1.94.03,3.74-.13,1.38-.02s-.07-.09-.11-.14c-.81-.07-1.21-.15-.52-.25.1-.02.44-.02.55-.01,1.06.1-.06.18-.07.27,1.95.04,3.39-.04,4.31-.28,2.89-.76,7.48-.11,7.38.08-.29.58,2.8.57,5.04.72,2.82-.21,5.62-.41,8.49-.62,1.25-.09,3.67-.04,2.98-.35-.57-.26-3.19-.05-3.85-.12-2.05-.23-5.23.52-6.38-.13-1.56-.05-3.41-.03-3.65-.33-1.32,0-2.72.02-3.57-.17-2.89-.05-5.81-.11-8.67-.21-5.67-.19-10.59.39-16.32.05v.37c1.4.01,2.87,0,3.6.25-.09.21-.15.42-2.3.4l1.01.5,5.04.1Z"/><path d="m150.69,4.7c.74.03,1.22.15.5.26-5.67.84-2.84,1.12-.12,1.41l2.19-.19-.08-.54-.28-.06.26.06c2.01.06,6.32-.64,6.03.18,3.31-.27,6.35.23,10-.52.52-.11,2.85-.02,2.98.27l3.49-.12c1.49-.53,5.89-.94,5.01-1.57-.04-.03.75-.13,1.16-.19,2.65.95,3.67-.45,5.72-.37-.01-.06-.01-.12-.02-.18-6.03-.7-7.41.29-9.48,1.03l-.45.07.48-.07c-1.2-.02-3.41.02-3.46-.07-.67-1.32-4.99-.23-8.52.06-3.68.3-7.91.83-11.2.45-1.61-.05-1.4-.54-4.19-.3l-.04.39Z"/><path d="m340.72,2.96l-2.19-.27c-5.36-.32-5.26-.91-4.68-1.52-1.76-.28-1.68.08-2.54.1,1.56.89-1.09,1.55-5.96,1.52,1.11.47,1.18.91-.04,1.31,1.22.48,2.26.2,3.33.07-.71-.12-.88-.27.08-.26,1.32,0,1.09.21,1.22.35,2.81.7,7,.46,10.01.54,4.94.15,10.31.64,15.01.36l-.02-.26-3.42-.24c-1.09.29-2.06.08-3.03-.11l-4.06-.52c-.3.24-.56.49-2.76.37-1.48-.08-2.32-.29-3.02-.51-1.63-.52.63-.69,2.08-.93Z"/><path d="m230.07,73.17c1.15.65,4.33-.1,6.38.13.66.08,3.28-.13,3.85.12.69.31-1.73.26-2.98.35-2.87.21-5.66.42-8.49.62l1.03.28h1.38c3.82-.46,8.68-.23,12.97-.41,1.02-.19.77-.37.27-.57-.87-.34.44-.52,3.21-.54l.05-.16c.04-.22.86-.33,2.55-.32.35,0,.69-.02,1.02-.04-.34-.15-1.92-.28.12-.45l-.1-.16c-6.78,0-13.55-.12-20.36.12,1.09.36,3.11.72-.9,1.01Z"/><path d="m132.65,71.75c1.4.08,1.23.77,3.76.4,1.9-.28,3.64.38,5.51.34.56-.62,3.08-.36,5.73.03,2.24.33,4.11.31,5.82.17,1.77-.14,2.56-.37.71-.75-2.5-.16-4.79-.49-7.48-.51-8.38-.03-9.3-.1-15.96-1.06-.16-.02-.48-.06-.52-.06-3.45.41-8.57-.87-12.09-.59.31.33.32.66,2.66.99.1-.21.66-.2,2.26-.05,3.39.33,6.57.67,9.59,1.09Z"/><path d="m230.07,73.17c4.01-.29,2-.65.9-1.01-2.64-.17-4.41-.49-8.19-.04-2.73.33-8.17-.07-12.54-.08-5.87-.03-12.03.01-17.95-.35-2.6-.16-4.32-.17-4.04.29.27.45,2.37.48,4.72.46l4.89.08c5.73.34,10.65-.24,16.32-.05,2.86.1,5.78.15,8.67.21.7-.07,1.49-.22,2.08-.2,1.32.03,1.44.21,1.49.37.24.3,2.09.29,3.65.33Z"/><path d="m178.07,4.18c2.07-.74,3.45-1.73,9.48-1.03l4.77-.47c1.26-.22,2.58-.42,2.23-.69-2.28-.34-5.15.15-7.62.28-9.38.49-18.78.77-28.2,1.65-2.51.24-2.86.44-3.81.71,3.29.37,7.52-.15,11.2-.45,3.53-.29,7.85-1.38,8.52-.06.05.1,2.26.05,3.43.07Z"/><path d="m52.56,59.95c-.6.1-1.09.24-1.81.31-2.37.17-2.1.14,2.57,1.25,7.76,1.85,15.62,2.72,23.37,3.92,2.36.36,5.46.83,5.02.13-4.33-1.23-9.15-1.76-14.48-2.26-3.44-.3-6.01-.9-5.24-1.46-3.46-.29-6.2-1.3-9.43-1.89Z"/><path d="m118.14,69.73c3.52-.29,8.64,1,12.09.59.04,0,.36.03.52.06,6.66.96,7.58,1.03,15.96,1.06,2.69.02,4.98.35,7.48.51-1.03-.6-2.17-1.18-6.27-1.66l-3.03.17c-1.13.29-2.84.17-5.26-.04-2.95-.21-6.51-.46-9.06-.64-5.14-.43-9.76-.19-14.64-.95l1.24.82c.33.03.65.07.96.1Z"/><path d="m178.48,71.99c-1.56.46-2.83.92,3.36,1.15,1.99.07.73.25.58.39-3.06.24-6.42-.07-8.59-.36-5.51-.74-6.78-.34-7.99.23h-1.13c-3.62-.45-9.58-.87-3.88-1.49,1.03-.11,1.02-.4,1.48-.61,3.13.12,6.26.24,9.38.36,2.02.08,3.54.11,3.76-.21l3.48.16c-.14.13-.09.27-.45.38Zm-9.99.12c-.12-.02-.33-.03-.63.02.17.01.34.03.63-.02Z"/><path d="m445.09,9.6c.82.45,2.8.84,4.56,1.27,1.75.43,3.27.88,3.15,1.26-.12.35-2.67.09-3.82.29-1.19.17-5.84-.78-9.56-1.44-1.68-.31-3.26-.71-4.94-.95-1.63-.23-3.6-.77-4.82-.59-1.31.18,3.21.52,2.34.81,5.43,1.25,12.4,1.65,17.77,3.72,1.68.65,1.44.02,2.85.37,1.42.19-4.56-1.9.47-.58.92-.01,2.5.26,3.79.49,1.3.2,2.31.41,2.15-.1-1.01-.53-2.35-1.02-2.99-1.37-1.6-.81-1.28-1.82-5.93-2.18-.02,0-.41-.16-.91-.35-.5-.19-1.12-.42-1.61-.56-2.86-.83-5.65-1.28-8.15-1.37.71.86,4.07.69,5.67,1.29Z"/><path d="m459.18,16.6c1.25.61,2.03,1.24,2.49,1.78.57.68,1.46,1.56,2.06,2.52.33.47.52.93.69,1.34.06.4.19.75.11,1.12-.06.68-.53,1.55-1.05,2.18-.49.65-.92,1.15-.9,1.45,0,.27.18.39.54.35.35-.06.95-.19,1.63-.69.17-.12.37-.24.56-.4.18-.18.36-.36.56-.56.21-.19.36-.46.53-.73.08-.14.18-.28.26-.43.06-.16.11-.33.17-.5.27-.68.25-1.53.08-2.37-.24-.82-.64-1.64-1.25-2.36-1.14-1.41-2.76-2.97-4.48-4.06-1.07-.34-1.47-.26-1.36.02.11.29.74.79,1.63,1.51,1.82,1.43,3.43,2.65,4.51,3.98.2.24.6,1.03.68,1.82-.01.39-.03.76-.11.99-.11.23-.2.34-.27.26-.13-.14-.38.14-.58.28-.26.14-.41.16-.4-.27-.04-.27-.04-.45-.12-.73-.05-.14-.06-.29-.09-.48-.04-.1-.07-.21-.1-.33-.01-.06-.03-.13-.04-.19-.03-.07-.07-.14-.1-.22-.08-.16-.11-.31-.19-.46-.09-.14-.16-.27-.22-.4-.11-.26-.27-.46-.37-.64-.19-.37-.28-.62-.27-.77,0-.3.03-.72-1.7-1.93-1.72-1.12-2.8-1.36-2.92-1.07Z"/><path d="m115.93,68.81c4.87.76,9.5.52,14.64.95,2.55.18,6.12.43,9.06.64,2.42.21,4.13.33,5.26.04-4.09-1.06-10.3-.98-15.41-1.37-7.61-.58-15.43-.82-22.78-2.04l-.63.17c1.07.37,4.91,1.02-.99.59-1.93-.15-3.05.04.26.46,3.51.18,6.13-.29,10.59.55Z"/><path d="m142.74,7.88c-.12-.58-1.69-.76-5.23-.11-2.6.47-4.31.51-6.45.37-2.19-.15-5.8.8-7.89.4-5.04.98-10.64,1-15.95,1.59-1.81.21-2.84.35-3.65.66,4.93,0,10.22-.45,15.92-1.04,3.63-.37,7.32-.72,11.3-.82,3.47-.09,7.92-.7,11.94-1.06Z"/><path d="m374.06,5.91l-2.57-.14-3.78-.68c-.54-.03-1.08-.06-1.62-.1-1.77.05-3.53.09-5.3.14,3.06,1.09,9.28,1.08,13.73,1.33,8.84.56,17.78.86,26.68,1.28l2.39-.02c-3.96-.96-8.26-1.26-12.97-.99-3.8-.04-7.82.06-9.92-.96l-1.72-.09-1.23-.03c.01.14.06.2.1.27.12.05.24.11.36.16l-.84-.11-3.3-.04Z"/><path d="m273.2,71.84c3.39-.03,6.77-.03,10.19-.31,2.71-.12,5.3-.18,7.31,0,1.82-.09,2.74-.13,3.65-.18,4.34-.14,8.53-.61,13.15-.61,2.4,0,3.65-.51,4.35-.84-13.05.56-26.09,1.12-39.14,1.68l.49.26Z"/><path d="m182.42,73.53c-3.06.24-6.42-.07-8.59-.36-5.51-.74-6.78-.34-7.99.23,9.09.53,18.19,1.1,27.29.8,2.2-.06,3.57.31,5.35.29,2.46-.02,6.25.24,6.72-.37l-5.04-.1-8.28-.3-9.46-.2Z"/><path d="m362.82,66.73c-.1.23.72.41-3.08.75-2.36.21-4.37.52-3.93.81,9.73-.79,19.46-1.79,29.44-3.7l-.08-.17-.36-.09c-.18.04-.38.07-.58.1-1.66.36-3.32.68-3.85.46-.3.05-.6.1-.92.14l-3.56.4c-.5.32-1.7.53-3.62.62-2.09.25-4.23.83-6.16.8-.64,0,.29-.27,1.31-.47l.08-.12-1.18-.11c-2.11,0-2.25.4-3.53.56Z"/><path d="m164.71,73.39c-3.62-.44-9.58-.86-3.88-1.48,1.03-.11,1.02-.4,1.48-.61-1.73-.13-1.14-.28-1.25-.43l-2.32-.06c.71.39-2.3.41-2.4.72l1.55.15c-.12.02-.33.04-.34.05-.43-.06-.84-.12-1.25-.19-2.05-.33-.77-.59-1.19-.88-2.32-.53-4.71-.7-7.2-.39,4.1.48,5.23,1.06,6.27,1.66,1.85.39,1.06.61-.71.75-1.71.14-3.57.16-5.82-.17-2.65-.39-5.17-.65-5.73-.03,5.98.43,12.11.45,18.01.99,2.33.21,3.56.09,4.78-.09Z"/><path d="m105.34,68.26c-3.31-.41-2.19-.6-.26-.46,5.9.43,2.06-.23.99-.59-1.04.23-2.86-.19-4.28-.28.13.24-.98.44-1.84.26-4.25-.87-7.37-.5-11.1-.99-2.03.06-2.11-.21-2.24-.44-1.99-.53-2.52-.33-3.14-.18.18.03.49.08.51.1.77.66,3.58,1.04,6.67,1.33,4.24.42,7.13,1.35,11.55,1.67.11,0,.52.35.79.54l4.58.75,2.43.41.33-.46c-5.22-.53-5.47-1.11-4.99-1.66Z"/><path d="m41.96,60.16c-2.38-.61-2.7-1.07-4.18-1.64-.94-.38-1.88-.76-1.24-.8.5-.04,1.5.29,2.44.52,1.13.28,2.54.69,3.31.79,1.46.17,3.77.41,3.55.19-.53-.54-2.66-.62-4.07-1.02-.86-.24-1.64-.54-2.45-.81-1.01-.55-2.05-.59-3.07-.86-1.74-.35-3.62-.74-3.21-.28,1.61,1.74-3.7.16-8.45-1.4.49.45,2.99,1.18,3.07,1.55,3.95,1.08,7.53,2.57,11.59,3.6,2.89.71,2.33.3,2.71.16Z"/><path d="m88.85,66.21c3.74.48,6.85.11,11.1.99.86.18,1.97-.03,1.84-.26-7.5-.79-14.96-1.57-22.44-2.44-3.75-.43-7.67-1.08-11.35-1.78-2.22-.41-4.04-.64-6.01-.88-.77.56,1.8,1.17,5.24,1.46,5.33.49,10.15,1.03,14.48,2.26.59.01,1.18.02,1.77.03.61-.15,1.14-.34,3.13.18l2.24.44Z"/><path d="m182.42,73.53l9.46.2.1-.33c-1.29-.04-2.43-.11-2.22-.32.2-.2,1.51-.17,2.69-.14.44-.15.47-.33.51-.5-2.35.03-4.45,0-4.72-.46-3.01-.26-6.13-.36-9.31-.36-.14.13-.09.27-.45.38-1.56.46-2.83.92,3.36,1.15,1.99.07.73.25.58.39Z"/><path d="m192.32,2.68l-4.77.47v.19s.27.06.27.06l-.25-.06c-2.05-.09-3.07,1.32-5.72.37-.41.07-1.2.16-1.16.19.88.63-3.52,1.04-5.01,1.57.26.2,1.33.11,2.28.06,1.23-.37,3.23-.37,5-.49,1.31.05,2.09-.75,2.81-.26.77.52,2.91.06,4.13.13,2.07-.46,3.02-.31,3.75-.01,1.24,0,2.72.29,3.46-.25l.52-.32c-1.46-.06-2.19-.32-4.23-.2-1.4-.04-.88-.29-1.01-.46-6.35-.03.81-.69-.07-.98Z"/><path d="m381.56,63.36c2.02-.08,4.35-.3,6.28-.33,3.96-.09,11.17-1.62,14.11-2.89-2.86.6-6.05,1.19-4.12.36-5.52.96-11.06,1.73-16.26,2.86Z"/><path d="m192.39,3.66c-6.35-.03.81-.69-.07-.98,1.26-.22,2.58-.42,2.23-.69,3.62-.25,7.43-.95,10.74-.39.16.03.21.07.16.11-4.73.77-5.08,1.62-4.78,2.45l-3.04.16c-1.46-.06-2.19-.32-4.23-.2.12-.2.15-.4-1.01-.46Zm3.75-.82c-.77-.05-1.49.15-1.24.24.49.18-1.91.73,1.74.52,1.81-.18,1.66-.31.33-.41-.26-.12-.25-.32-.83-.36Z"/><path d="m109.31,7.8c1.11-.09,2.06.18,3.28-.24,2.73-.93,3.04-.36,3.97-.18.83-.02,1.91.03,2.48-.05,2.21-.35,4.29-.72,5.96-.39,1.37.27-.49.64-1.83,1.01-2.36.66-4.23.62-6.2.47-1.23-.09-3.28,0-4.26.26-3.35.86-4.9.48-6.95.42,1.18-.43,2.36-.87,3.54-1.3Zm13.29-.47s-.42.06-.44.08c-.05.05.02.09.05.14l.92-.15c-.17-.03-.32-.05-.52-.07Z"/><path d="m340.03,69.63c-4.8.45-9.86.66-14.15,1.42-1.08.19-2.63.16-3.71.15-1.97,0-3.29.13-4.34.43,4.09.2,9-.34,13.59-.79,5.95-.58,11.57-.59,17.55-1.49.87-.13,1.94-.24,2.32-.41-1.25-.16-3.32-.05-5.69.36-2.85.51-4.23.45-5.57.32Z"/><path d="m459.18,16.6c.12-.29,1.2-.05,2.92,1.07,1.73,1.21,1.71,1.63,1.7,1.93,0,.15.09.4.27.77.09.19.26.39.37.64.06.13.14.26.22.4.08.14.11.3.19.46.04.08.07.15.1.22.01.07.03.13.04.19.03.12.06.23.1.33.03.19.05.35.09.48.08.28.08.46.12.73,0,.43.14.4.4.27.2-.15.45-.42.58-.28.07.08.17-.02.27-.26.08-.24.1-.61.11-.99-.08-.79-.48-1.58-.68-1.82-1.08-1.32-2.69-2.55-4.51-3.98-.9-.71-1.52-1.22-1.63-1.51-.11-.28.28-.36,1.36-.02-.66-.49-1.36-.96-2.19-1.1.17.51-.85.3-2.15.1-1.29-.23-2.88-.51-3.8-.49,1.13.53,2.14,1.07,2.12,1.36l2.04.7c.65.26,1.33.49,1.96.8Z"/><path d="m86.82,10.94c-3.16-.07-6.3.1-9.33,1.14-1.75.78-7.37,1.39-8.26,2.24l.5.55c2.06-.1,3.91-.39,5.55-.86.25-.15-.53-.21.7-.43l.42.28c.35,0,.72-.05,1.12-.11,4.8-.72,3.71-1.59,8.12-2.3.99-.2,1.23-.36,1.18-.51Z"/><path d="m229.86,74.67l-1.03-.28c-2.24-.15-5.33-.13-5.04-.72.09-.19-4.49-.84-7.38-.08-.91.24-2.35.32-4.31.28.09.04.12.09.16.13l-.1.49c5.83.25,11.6.62,17.7.18Z"/><path d="m285.79,73.61c.45-.42-2.13-.41-4.23-.41-4.52.01-9.78-.07-13.73.28-2.74.25-4.58.3-7.25.35-1.61.03-.71.3-.84.46,5.7-.01,11.24.04,17.22-.42,2.59-.2,5.87-.16,8.84-.26Z"/><path d="m153.27,6.19l-2.19.19c-1.16.34-2.76.68-2.46,1.03,5.93-.14,12.25-1.01,18.27-.82,2.43.08,3.13-.7,5.3-1-.13-.29-2.45-.38-2.98-.27-3.65.75-6.7.25-10.01.52-2.07,1.23-3.94.09-5.94.36Z"/><path d="m53.62,15.57c-.59.1-1.18.2-1.77.29-1.02.6-.98.58.89.38.82-.08,1.92-.15,2.12-.07.68.29-2.62.71-3.1,1.08.84-.03,1.68-.05,2.53-.05l3.87-.51c2.57-.65,5.15-1.25,7.73-1.88-5.43.26-5.35.08.92-1.55-2.86-.53-4.85.37-6.91,1.11-2.08.4-2.93,1.56-6.28,1.21Z"/><path d="m24.59,54.85c4.75,1.56,10.06,3.14,8.45,1.4-.41-.46,1.47-.07,3.21.28-.35-.73-2.9-.99-4.31-1.52-1.2.2-2.1.67-7.32-1.66-.86-.39-2.3-.88-2.74-.81-.47.08.61.56,1.76,1.01l.52.15-.46-.12.89,1.26Z"/><path d="m205.29,1.6c.16.03.21.07.16.11.54.27,4.22-.05,3.55.44.98.46,2.36.34,3.76-.07,1.23-.36,2.29-.75,4.18-.21,1.42-.17,2.44.3,3.76-.02,1.67-.4.27-.69-1.16-.96-4.83.1-9.97-.29-14.24.7Z"/><path d="m276.91.54c1.62.43,5.66.4,6.8,1.1.54.33,5.64-.25,8.41-.49.46-.04.75-.12,1.12-.18l.03-.54c-4.27-.47-8.26.21-12.47-.04l-3.12.05c-.41,0-.66.04-.77.1Z"/><path d="m361.51,65.83c.84.11,3.94-.04,7.26-.29,3.31-.28,6.85-.65,8.54-.98,3.35-.63,1.16-.64,1.8-.97-2.13.37-4.27.83-6.35.84-.45,0-1.95.16-2.04.18-2.68.8-6.2.81-9.21,1.22Z"/><path d="m445.09,9.6c-1.59-.6-4.95-.42-5.67-1.29-1.64-.59-3.36-.65-5.06-.73-2.87.15-7.31-.58-10.62-.5.64.37.52.7,4.08.69,2.15,0,5.23.4,7.89.73l1.5-.03.45.18-1.86-.13c2.16.44-4.7.62,3.35,1.25.33-.24-.66-.82,2.51-.33.68-.14,3.53.55,3.45.15Z"/><path d="m288.17,73.1c-.07.08.35.16-.67.22,7.22-.21,14.85-.09,21.04-1.36l-.18-.17-4.71.27c-5.15.38-10.29.72-15.48,1.05Z"/><path d="m423.74,7.08c3.31-.08,7.75.65,10.62.5-.31-.64-2.99-.49-4.34-.67-2.59-.37-5.22-.56-7.83-.71-2.62-.15-5.25-.26-7.85-.37.98,1.11,6.12.88,9.4,1.25Z"/><path d="m338.5,2.11c3.71.19,7.91.1,10.36.93.93.32,2.31.21,2.55-.07.17-.2-.11-.45,1.46-.51.53-.57-2.6-.52-4.24-.61-3.71-.2-7.49-.33-11.23-.48.3.24-.66.49,1.1.73Z"/><path d="m319.44,3.54c-2.59-.24-5.27-.5-7.14-.04-1.21.3-1.91.08-2.99-.08-3.6-.54-7.17-.63-10.55-.12,3.35.58,7.54.56,11.63.58,3.01.02,6,.04,9,.06l.04-.41Z"/><path d="m8.14,31.09c.22-.38.81-1,.73-1.12-.04-.1-.91.17-3.08,2.08-1.09,1.02-1.8,1.8-2.37,2.47-.59.67-.97,1.28-1.32,1.99-.13.37-.28.42-.43.7-.09.14-.1.34-.11.67-.03.33.07.78.26,1.4.39.97.73,1.23.87,1.25.15.01.19-.24.23-.46.07-.41.28-.68.45-.97-.59-1.5-.22-3.03.76-4.42,1-1.38,2.44-2.57,4-3.58Z"/><path d="m237.47.69c-.38.56-.43,1.05,4.69.62l3.58-.4,2.26-.04c.96-.2,2.31-.18,3.61-.18l1.35-.43c.11-.38-1.48-.25-2.74-.2-4.26.19-8.51.39-12.76.63Z"/><path d="m54.29,17.19c-.84,0-1.69.03-2.53.05-1.64.36-3.33.73-4.96,1.08-1.63.35-3.21.59-4.68.52-.76-.05-2.79.68-2.65.7.63.13-3.88,1.22-.62.82,5.08-1.24,10.81-1.6,15.44-3.18Z"/><path d="m238.66,2.49c-1.3.18-3.23.56-3.78.52-2.21-.15-.13-.36.63-.57.51-.14-.16-.23-1.06-.22-1.02.02-2.12.1-2.14.28-.03.27.3.53.47.8,4.31.46,9.18.21,14.03.1l.15-.47c-.06-.05-.07-.1-.05-.15h-1.29c-3.11.23-6.08.44-6.97-.29Z"/><path d="m85.64,11.45c-4.41.71-3.32,1.58-8.12,2.3,2.52.13,5.07.24,8.23-.88.35-.17.56-.42,1.07-.5,7.78-1.13,2-.8.13-.88-.17.15.05.29-1.34.45l.24-.34c-.08-.05-.15-.1-.2-.15Z"/><path d="m12.14,49.93c-.79-.8-2.39-2.1-4.36-2.98-1.87-.85-4.29-2.64-5.9-5.18-.8-1.25-1.32-2.76-1.38-4.15-.06-1.38.2-2.58.34-3.42-.49.88-.74,1.95-.84,3.01-.02,1.07.12,2.17.52,3.09.74,1.91,2,3.29,3.27,4.46,2.59,2.31,5.47,3.83,8.34,5.16Z"/><path d="m107.57,69.97l-4.58-.75-2.4-.37c-.03.43-2.02.19-3.96-.03-4.5-.87-8.76-1.27-12.84-1.26.36.23,1.58.55,2.42.6,6.93.36,14.6,1.82,21.35,1.8Z"/><path d="m423.64,9.65c-.18-.62-.95-1.12-5.53-.91-3.41.15-7.61-.99-10.92-.6,4.85,1.17,10.84,1.14,16.44,1.52Z"/><path d="m258.57,72.09c1.6.49,4.73.78,8.18,1.01-.69-.5,1.08-.97,3.42-1.42-2.41-.2-4.56.08-6.78.22-1.19.44-3.13.2-4.82.19Z"/><path d="m372.75,3.23c4.1.9,12.72,1.42,17.94.91-5.09-.64-10.24-.65-15.37-.93-.15.36-1.4.17-2.57.02Z"/><path d="m132.98,6.54c1.38-.13,2.32-.29,2.27-.53h-1.53s-.35-.19-.35-.19l1.13-.02.95.16c1.42-.11,2.08-.28,2.18-.5-4.34.24-8.14-.07-12.91.68.48.63,4.51.37,7.21.46.35-.02.7-.04,1.04-.06Z"/><path d="m67.63,64.97c-5.4-.85-10.74-1.77-15.41-2.15,1.74.67,3.42,1.12,6.18,1.28,3.49.22,7.69,1.26,11.51,1.67l-.16-.42c-.69-.13-1.4-.25-2.12-.38Z"/><path d="m325.34,2.8c4.87.04,7.52-.62,5.96-1.52l-4.76-.15c.72.43-2.81.53-2.13.96,1.38.23.79.47.93.71Z"/><path d="m65.89,14.8c-2.58.63-5.16,1.23-7.73,1.88,3.99-.32,7.94-.68,11.57-1.8l-.5-.55-3.34.48Z"/><path d="m200.67,4.16l-3.04.16-.51.32c4.43-.1,8.95.01,13.04-.71-1.33-.28-4.06-.3-4.58-.71-.85.11-1.57.2-2.29.29-.18.27-.28.53-2.62.64Z"/><path d="m319.44,3.54l-.04.41,5.9.16c1.22-.4,1.15-.84.04-1.31-2.88-.12-2.19-.44-2.24-.73-.45-.16-1.1-.31-2.22-.27-1.31.05-.54.24-.3.38.89.52,2.58,1.06-1.13,1.36Z"/><path d="m150.69,4.7l.04-.39c-4.04.24-8.5-.01-11.86,1.05.62.3-.22,1.08,4.21.03,1.92-.46,5.33-.17,7.6-.69Z"/><path d="m110.33,69.92l-.33.46c4.56.73,8.73.72,12.99.84l-2.19-.5c-2.34-.33-2.36-.66-2.66-.99-.32-.03-.64-.06-.97-.1-.06.64-.81,1.16-6.84.29Z"/><path d="m162.31,71.31c3.13.12,6.26.24,9.38.36,2.02.08,3.54.11,3.76-.21-4.16-.56-8.81-.33-13.15-.64-.02.16-.03.33,0,.5Z"/><path d="m120.8,70.72l2.19.5c3.36.47,6.85,1.1,9.66.53-3.03-.42-6.2-.76-9.59-1.09-1.61-.15-2.16-.16-2.26.05Z"/><path d="m225.56.92c.13.05.17.12.41.16,1.7.26-4.79.89.13.87,3.55-.02,5.82-.62,5.49-1.25-2.08-.06-4.3-.31-6.03.23Z"/><path d="m340.03,69.63c1.35.14,2.72.19,5.57-.32,2.37-.41,4.44-.53,5.69-.36.83-.12,1.9-.21,2.2-.37-.7-.07-1.4-.15-2.1-.22-3.7.26-7.33.75-11,1.08l-.36.2Z"/><path d="m397.82,60.5c-1.93.83,1.26.24,4.12-.36,2.13-.37,3.44-.74,4.28-1.13l-.12-.29c-2.69.66-5.39,1.29-8.29,1.78Z"/><path d="m244.21,74.27c-4.3.17-9.16-.06-12.97.42,4.31.38,8.64-.08,12.95-.1l.02-.32Z"/><path d="m24.31,24.19c-.49-.56-1.87-.24-3.44.39-1.54.68-3.35,1.47-4.67,2.05.14.09.05.3.32.3.28.01.88-.24,2.5-.89.8-.33,1.68-.66,2.56-.99.91-.29,1.83-.58,2.72-.87Z"/><path d="m230.41,3.4c-.43-.27,0-.72-2.67-.64-3.61.11-1.43.72-3.51,1,2.89.44,4.12-.24,6.18-.36Z"/><path d="m360.78,5.13c1.77-.05,3.53-.09,5.3-.14-3.32-.22-3.51-.65-3.96-1.06-.26-.24-1.04-.46-2.63-.53-.59-.03-1.52.02-1.71.09-.54.21.75.32,1.77.46,3.65.51-2.98.59.19,1.09.33.04.68.07,1.05.09Z"/><path d="m404.4,60.76c-2.28.62-5.57.45-7.24,1.51,1.07.24,1.08.28,7.24-1.51Z"/><path d="m263.61,2.28c3.12.14,2.92.59,3.62.96,2.44.02,5.12.28,7.11-.16l-.08-.22c-1.75-.1-4.83.09-5.11-.28-.63-.82-3.13-.47-5.54-.29Z"/><path d="m256.36,3.34c1.51-.61-2.09-.71-3.8-1l-1.85.38-1.45.78c2.44.08,4.58-.4,7.11-.16Z"/><path d="m13.1,47.93l.24-.47c-1.87-1.12-3.66-2.31-5.65-3.54-.07.12-.33.14-.25.35.09.21.51.65,1.89,1.51,2.11,1.26,3.05,1.89,2.79,2.19,1.02.4.81.06.97-.05Z"/><path d="m270.16,71.68c-2.34.45-4.11.92-3.42,1.42,2.42-.41,5.96-.73,6.45-1.26l-.49-.26-2.55.09Z"/><path d="m338.5,2.11c-1.76-.24-.81-.49-1.1-.73l-3.55-.21c-.58.61-.68,1.2,4.68,1.52l-.03-.58Z"/><path d="m69.75,65.35l.16.42c2.28.35,4.26.5,5.95.5-1.3-1.4-3.74-1.09-6.11-.93Z"/><path d="m333.07,68.49c0,.09-.22.21.01.27.67.18-2.69.87.98.59,3.24-.25.41-.42.86-.66.13-.07,1.2-.19,1.84-.29-.8-.1-1.53-.22-3.69.09Z"/><path d="m258.57,72.09c1.69.01,3.63.25,4.82-.19l-2.6-.03c-.98.04-1.82.03-2.28-.09l-4.81.22,1.01.15,3.86-.06Z"/><path d="m453.37,21.27s-.11-.02-.07.06c.19.4-1.23-.69.85,1.38.7.69,2.07,2.06,1,.41-.57-.65-1.15-1.28-1.78-1.85Z"/><path d="m156.35,71.54c.09-.31,3.1-.33,2.4-.72l-3.63-.15c.42.29-.86.55,1.23.87Z"/><path d="m455.19,15.1c.02-.28-.98-.83-2.12-1.36-5.02-1.32.95.78-.47.59.2.12.48.21.84.31l1.46.47c.31.09.4.08.28,0Z"/><path d="m275.23.71l2.37-.17c-1.05-.42-3.93-.32-5.72-.5l-.13.37.1.38c.64.02,1.13.02,1.61.01.18-.21.99-.14,1.77-.09Z"/><path d="m27.66,56.4c-.09-.37-2.59-1.1-3.23-1.58l-1.84-.5,1.36.75c1.16.53,2.39.97,3.72,1.32Z"/><path d="m193.65,4.89c-.72-.29-1.68-.45-3.75.01,1.01.13,1.44.63,3.75-.01Z"/><path d="m210.88,74.02l-3.74.13c-.18.43,1.89.35,3.73.33v-.45Z"/><path d="m182.96,5.04c-1.77.12-3.77.12-5,.49,2.57.25,3.92-.06,5-.49Z"/><path d="m442.77,14.25c1.01.63,2.23,1.25,3.62,1.94-1.13-.68-1.66-1.36-3.62-1.94Z"/><path d="m254.71,72.15l-1.01-.15-2.37.04.1.16c1.07.16,2.16.17,3.28-.05Z"/><path d="m290.76,3.07s.03-.07.16-.1c-.17.02-.35.04-.55.04-.11.13-.22.27-.34.4l.73-.35Z"/><path d="m258.51,71.78c.46.12,1.3.13,2.28.09.02-.26-.76-.28-2.28-.09Z"/><path d="m329.93,4.27c-.13-.14.1-.34-1.22-.35-.96,0-.79.15-.08.26l1.3.09Z"/><path d="m271.75.41l.13-.37c-1.22.06-2.07.18-2.46.37h2.33Z"/><path d="m277.68.44l3.12-.05c-1.31-.25-2.35-.24-3.12.05Z"/><path d="m162.25,71.3l.05-.49c-.78-.07-1.19-.04-1.24.07.1.15-.48.31,1.19.42Z"/><path d="m76.39,13.87l-.42-.28c-1.23.22-.44.29-.7.43.38-.02.75-.07,1.11-.15Z"/><path d="m372.76,3.23c1.17.15,2.42.34,2.57-.02-1.07-.1-2.14-.21-2.57.02Z"/><path d="m340.38,69.43c3.67-.33,7.3-.82,11-1.08,1.28-.14,1.83-.28,1.92-.43l.12-.42c-2.03.18-2.71.13-2.01-.15.33-.14.79-.31-.55-.2-.39.03-1.01.12-1.53.2-.52.08-.94.15-.93.17.3.55-5.07,1.08-7.14,1.6-.42.11-.59.21-.88.31Z"/><path d="m416.55,57.65c1.23-.27,2.47-.52,3.67-.85,1.21-.34,2.39-.72,3.53-1.19-4.06,1.16-.89-.26-3.76.47l-4.63,1.02c.65.11,3.16-.29,1.19.55Z"/><path d="m290.7,71.53c-2.01-.18-4.61-.11-7.31,0,.09.17-.28.39.38.48.89.12-2.66.52.57.41,2.24-.07,1.79-.31,1.54-.49-.11-.09-.14-.4,1.33-.15,2.69.45,2.1-.29,3.5-.25Z"/><path d="m375.91,65.44l3.56-.4c.44-.21,3.44-.77.75-.55-2.85.24-3.76.62-4.31.95Z"/><path d="m367.45,66.4c-1.02.2-1.95.46-1.31.47,1.93.02,4.06-.55,6.16-.8-.23-.34-2.94.16-4.84.34Z"/><path d="m303.65,72.05l4.71-.27c-.27-.24-1.76-.27-3.65-.14-1.46.1-.96.27-1.07.41Z"/><path d="m251.31,72.65c-.33.02-.67.03-1.02.04l-.13.29c1.44-.04,3.2,0,3.84-.29l-2.69-.05Z"/><path d="m380.38,64.9c.53.22,2.19-.1,3.85-.46l-.16-.24c-1.24.23-2.47.46-3.69.69Z"/><path d="m357.55,66.52c-.26,0-.5,0-.74.01l-.66.2c.31-.02.67-.03.9-.06.23-.03.33-.1.5-.15Z"/><path d="m294.35,71.35l-2.75.13c.35.06.61.19,1.07.18,1.33-.03,1.31-.19,1.67-.31Z"/><path d="m366.35,66.17l1.18.11c1.76-.42.36-.28-1.18-.11Z"/><path d="m384.07,64.21c.63-.11,1.57-.23,1.54-.34,0-.02-.47,0-.7.04-1.07.17-.76.22-.84.3Z"/><path d="m353.42,67.51l-.12.42c1.51-.29,1.62-.43.12-.42Z"/><path d="m321.14,70.04c.03.06.21.05.38.04-.03-.06-.21-.05-.38-.04Z"/><path d="m247.74,73l-.05.16,2.45-.19c-.78,0-1.59.02-2.4.03Z"/><path d="m362.79,66.73l-.27-.02c.1,0,.2,0,.27.02Z"/><path d="m384.81,64.34l.36.09c1.01-.24.79-.25-.36-.09Z"/><path d="m340.72,2.96c-1.45.24-3.71.41-2.08.93.7.22,1.54.43,3.02.51,2.2.12,2.45-.14,2.76-.37-1.13-.34-1.68-.66-.7-.97.45-.14.35-.3-.94-.37-1.56-.09-1.81.1-2.06.27Z"/><path d="m441.64,9.44c-3.17-.49-2.18.09-2.51.33,1.16.22,2.82.38,2.91.77.05.2,1.13.61,2.16.76,1.06.14,2.07.15,2.48.05.68-.16-1.37-.48-1.98-.69-1.21-.43-2.06-.83-3.07-1.22Z"/><path d="m380.68,5.75c2.11,1.02,6.13.93,9.92.96-2.74-.65-5.86-1.08-9.92-.96Z"/><path d="m377.73,5.64l1.23.03c.21-.04.34-.1.64-.11,2.29-.09,3.82-.25,1.5-.8-.61-.14-2.29-.36-2.01-.16.66.47-6.84.21-1.35,1.04Z"/><path d="m351.51,4.67l3.42.24c.05-.25,2.92-.47-.11-.75-2.24-.21-3.83.07-3.31.51Z"/><path d="m367.71,5.09l3.78.68c-.08-.22,1.99-.35.25-.63-1.38-.22-2.89-.2-4.03-.05Z"/><path d="m434.26,9.26c-.68-.16-1.08-.3-1.49-.34-.44-.05-.87-.02-1.3-.02.36.1.68.23,1.08.28.42.06.91.05,1.71.08Z"/><path d="m374.06,5.91l3.3.04c.16-.02.32-.03.48-.05l-.14-.19c-1.48-.03-3.65-.21-3.64.2Z"/><path d="m348.48,4.55c.97.2,1.94.41,2.95.12l-2.95-.12Z"/><path d="m427.05,9.43c-.33-.07-.5-.06-.67-.05.12.03.24.05.67.05Z"/><path d="m24.63,21.38c-1.27.42-2.76.83-3.45,1.29-.2.34-1.27.79-2.48,1.22-.6.22-1.24.44-1.81.67-.56.25-1.06.5-1.4.74-.5.36-2.64.61-3.27,1.39-.39.46,1.5-.2,2.72-.46,1.24-.28,2.13-.66,3.69-1.41.98-.47,2.04-1.01,3.14-1.34,1.1-.34,2.2-.57,3.21-.58,1.21-.01,3.17-.78,4.33-1.24,2.02-.79.3-.48-.96-.3-1.99.26-3.97.56-3.74.02Z"/><path d="m13.1,47.93c-.16.11.05.44-.97.05-.35.09-2.92-1.32-1.82-.33.38.36,1.35,1.02,2.04,1.36,2.32,1.11.94.04,1.53.12.33.04.59.03,1.05.15.89.25,3.37,1.21,2.55.6-.95-.7-2.85-1.09-4.38-1.94Z"/><path d="m5.5,43.9c-.17-.19-.32-.38-.48-.56-.21-.11-.4-.24-.61-.37.2.24.42.51.62.67.17.14.31.17.47.26Z"/><path d="m46.76,16.43l1.17-.21c-.38.07-.78.14-1.17.21Z"/><path d="m454.94,37.23c.19-.15.38-.12,1.11-1.51-.17.15-.56.78-1.11,1.51Z"/><path d="m98.69,9.28l-2.42.24c0,.23.59.52-.15.69-1.29.3-2.45.54-1.98.77.23.12.94-.02,1.22-.12,1.02-.36,4.52-.65,3.54-1.06-.32-.14-.15-.35-.21-.52Z"/><path d="m105.77,9.11c-.76-.09-.83-.35-2.53-.2-.24.02-.82.22-.75.27.36.26,1.99.03,3.28-.07Z"/><path d="m132.98,6.54c-.35.02-.7.04-1.04.06.01.14-.2.32,1.17.23l-.13-.29Z"/><path d="m85.84,11.6l-.24.34c1.4-.15,1.17-.3,1.34-.45l-1.1.11Z"/><path d="m91.55,10.4l.45.19c1.12-.27-.05-.17-.45-.19Z"/><path d="m419.99,56.08c2.87-.74-.3.69,3.76-.47,1.47-.45,2.47-.88,3.21-1.23,1.55-.73,3.43-1.65.36-.88-4.84,1.14-4.89,1.73-7.33,2.58Z"/><path d="m438.61,48.98c-1.54.75-4.12,1.63-3.86,1.88.09.09.83.06,2.56-.82,1.71-.79,4.05-2.27,4.09-2.41.06-.33-1.97,1.03-2.79,1.36Z"/><path d="m437.27,50.55c1.28-.44,2.12-.64,2.99-1.11.55-.28,1.32-.68,1.95-1.04.62-.36,1.08-.7,1.07-.8-.02-.13-.76.2-1.93.8-1.25.67-2.44,1.37-4.09,2.15Z"/><path d="m450.86,41.48c.17-.04.25.04,1.16-.8.28-.27.38-.47.55-.71-.55.52-1.13,1.03-1.72,1.5Z"/><path d="m432.72,51.95c.34-.18.12-.1-.1-.01h.1Z"/><path d="m449.02,42.77l.43-.32.43-.32c-.31.18-.61.38-.86.64Z"/><path d="m295.65,2.68c-.24-.31-1.47-.44-3.2-.38-2.2.08-1.34.42-1.55.67,2.14.07,2.23-.51,4.76-.29Z"/><path d="m323.1,2.07c.05.28-.64.61,2.28.74-.17-.24.42-.48-.96-.71l-1.32-.02Z"/><path d="m295.67,2.68l.26.08c-.09-.03-.19-.05-.26-.08Z"/><path d="m67.63,64.97l2.14.39c-.36-.19.77-.27-.94-.54-.98-.15-1.24,0-1.19.15Z"/><path d="m96.64,68.82c1.94.22,3.93.46,3.96.03-1.46-.05-3.08-.17-3.96-.03Z"/><path d="m263.61,2.28c2.41-.17,4.91-.52,5.54.29.28.37,3.36.18,5.11.28-.96-.43-1.72-.86-2.92-1.27-2.57-.87-7.28-.95-11.14-.22-.48.09-.72.24-1.31.28-2.19.18-2.34.82-.15,1.05q.91.1,1.43-.31c.24-.19.18-.44,1.83-.46.51,0,1.07.22,1.61.34Z"/><path d="m245.63,2.78h1.29c2.27-.69-1.28-1.23-1.17-1.87l-3.58.4c-.33.58,4.41.84,3.46,1.47Z"/><path d="m251.62.69c-1.3,0-2.64-.02-3.61.18.04.03,0,.07.12.08,1.61.19,1.31.82,3.28.69,2.9-.19-.34-.62.2-.95Z"/><path d="m257.97,1.21c.34-.06.75-.1.71-.13-.11-.1-.37-.2-.57-.3-.16.05-.44.11-.44.16,0,.08.17.17.3.28Z"/><path d="m275.23.71c-.79-.06-1.59-.12-1.77.09.75.04,1.8.21,1.77-.09Z"/><path d="m271.85.78l-.49.1c.22-.03.43-.05.49-.1Z"/><path d="m65.89,14.8l3.34-.48c.9-.85,6.51-1.46,8.26-2.24-.21-.22.22-.6-2.47-.22,1.19.2-.75.63-1.97.89-1.49.33-2.24.18-2.84.06l-3.4.44c-6.27,1.63-6.35,1.81-.92,1.55Z"/><path d="m70.22,12.81c.59.11,1.35.27,2.84-.06,1.22-.27,3.16-.69,1.97-.89-1.83.25-4.13.41-4.81.95Z"/><path d="m53.62,15.57c3.35.36,4.21-.8,6.28-1.21-2.62.07-4.49.63-6.28,1.21Z"/><path d="m46.74,16.44l1.21-.22c-.43-.09-.84-.03-1.21.22Z"/><path d="m200.67,4.16c2.34-.11,2.44-.37,2.62-.64-.37-.35.86-.32,2.16-.27.72-.4.18-.84,3.55-1.09.67-.49-3.01-.17-3.55-.44-4.73.77-5.08,1.62-4.78,2.45Z"/><path d="m238.63,2.49l1.5-.09c-.84-.15-1.06.02-1.5.09Z"/><path d="m192.86,72.95c-.57.13-.73.29-.89.44,2.4.04,4.79.09,7.18.13,2.16.02,2.21-.19,2.3-.4-1.28-.06-2.85-.02-3.61-.25l-4.98.08Z"/><path d="m226.41,72.83c-.05-.16-.17-.34-1.49-.37-.6-.01-1.38.13-2.08.2.85.19,2.25.16,3.57.17Z"/><path d="m197.84,72.88c.76.23,2.33.19,3.61.25-.73-.24-2.2-.24-3.61-.25Z"/><path d="m212.1,73.87c0-.09,1.13-.17.07-.27-.11-.01-.45,0-.55.01-.69.11-.29.19.48.26Z"/><path d="m153.27,6.19c1.99-.27,3.87.87,5.94-.36.29-.81-4.02-.12-6.03-.18.04.18.07.36.09.54Z"/><path d="m178.11,4.18l-.48.07c.15-.02.3-.04.48-.07Z"/><path d="m153.17,5.65l-.26-.06c.09.02.19.04.26.06Z"/><path d="m247.74,73l2.42-.02.13-.29c-1.69-.01-2.51.1-2.55.32Z"/><path d="m110.33,69.92c6.03.87,6.78.35,6.84-.29l-1.24-.82c-4.46-.84-7.08-.37-10.59-.55-.48.54-.23,1.13,4.99,1.66Z"/><path d="m167.87,72.13l.52.04c-.01-.08-.21-.09-.52-.04Z"/><path d="m377.36,5.95l.84.11c-.12-.05-.25-.11-.36-.16-.16.02-.32.03-.48.05Z"/><path d="m156.31,71.54c.41.06.82.12,1.25.19,0,0,.22-.03.34-.05-.52-.05-1.03-.09-1.59-.14Z"/><path d="m88.85,66.21l-2.24-.44c.13.24.21.5,2.24.44Z"/><path d="m191.97,73.39c.16-.15.32-.31.48-.46-1.17-.03-2.48-.06-2.68.14-.21.21.93.28,2.2.32Z"/><path d="m193.4,4.12c.12-.2.15-.4-1.01-.46.14.17-.38.42,1.01.46Z"/><path d="m187.57,3.33l.25.06c-.09-.02-.18-.04-.25-.06Z"/><path d="m196.97,3.2c-.26-.12-.25-.32-.83-.36-.77-.05-1.49.15-1.24.24.49.18-1.91.73,1.74.52.11-.14.22-.27.33-.41Z"/><path d="m196.97,3.2c-.11.14-.22.27-.33.41,1.81-.18,1.65-.31.33-.41Z"/><path d="m123.13,7.4c-.17-.03-.32-.05-.52-.07-.02,0-.42.06-.44.08-.05.05.02.09.05.14l.92-.15Z"/><path d="m23.69,53.58l.46.12c-.17-.05-.35-.1-.46-.12Z"/><path d="m435.79,8.52l1.86.13-.45-.18c-.5,0-1,.02-1.42.05Z"/><path d="m133.72,6h1.53c-.12-.09-.43-.14-.75-.19l-.78.19Z"/><path d="m205.45,3.25c-1.31-.05-2.53-.08-2.16.27l2.16-.27Z"/>
                  </g>
                </mask>
              </defs>
              <path class="mask" d="m462.82,27.49c7-3.85,3.26-9.56-5.18-12.93-10.08-4.02-23.6-5.71-31.81-6.35C288.22-2.49,192.25,3.7,192.25,3.7c-25.01,1.15-143.05,6.86-178.65,23.02-3.21,1.46-10.61,4.91-11.64,9.73C-.09,46.08,24.9,53.77,34.97,56.86c71.81,22.09,346.41,24.54,406.97-9.21,5.08-2.83,18.44-10.28,15.29-19.77-4.18-12.6-34.66-20.44-44.03-22.68"
                    mask="url(#path-mask)" stroke="black" stroke-width="2" fill="none"
                    stroke-dasharray="1011.7003173828125" stroke-dashoffset="1011.7003173828125">
              </path>
            </svg>
        