
            <svg xmlns="http://www.w3.org/2000/svg">
              <defs>
                <mask id="path-mask">
                  <g fill="white">
                    <path d="m113.96,33.28c.14-1.03-.23-.44-.35-.68l.25-.69c.31-.55.49-1.23.78-1.77.56-1.12.52-3.42.02-4.34.01-.65-.06-1.05-.23-1.31,0-.43-.07-.96-.16-1.45-.11-.5-.19-.97-.11-1.33.15-.22.08-1,.46-.42.24.42.39.92.43,1.68,0,.63.06,1.19.28,1.52.03.19.04.39.05.58.15.73-.37,1.71.1,2.28-.01.23-.04.66-.04.66.41.6.12,1.96-.14,3.1h-.13c0-.33-.04-.27-.11.08,0,.06,0,.12-.02.18h-.18c.02-.19.09-.47,0-.48-.02,0-.07.13-.08.2-.05.33.03.25.07.29-.02.38-.1.76-.15,1.14-.01.09-.03.19-.06.28-.07-.16.05-1.09-.24-.32-.3.82-.23,1.14-.11,1.36.13.21.06.58-.22,1.11-.26-.03-.47.79-.69,1.33l-.07-.06c.05-.56-.11-.17-.29.26-.42.51-.19.67-.35,1.04l-.07.06.07-.07c.12.09.42-.03-.13,1-.36.63-.59,1.21-.31,1.22-.1.22-.22.43-.33.65l-.6.39c.19-.34.22-.52.16-.6.15-.45.09-.53-.23-.19-.33.52-.51.65-.53.38-.01-.13-.02-.3-.24.04-.12.2-.34.67-.32.67.4.16-.48,1.54-.69,2.19-.04.14-.02.22-.02.33l.03.17c-.43.61-.97,1.15-1.42,1.73-.5.54-.93,1.13-1.29,1.72-.18.3-.59.56-.88.74-.52.33-.79.63-.92.98-.75.59-1.53,1.15-2.32,1.67l-.13-.08c-.19-.11-.6.08-1.05.45-.35.27-.14.32-.1.42-1.23.99-2.52,1.91-3.92,2.79h.08c.01.07.16.08-.1.24-.04.12-.01.23-.37.42-.04-.36-.76-.03-1.36.21-1.28.53-2.79,1.06-3.82,1.73-.7.48-1.22.7-1.97,1.01-.46.18-.11.31-.1.45-1.46.62-2.96,1.15-4.44,1.7l-.08-.26c.24-.25.12-.37-.08-.49-.35-.2-.01-.47.78-.73l.65-.37c.41-.16.93-.29,1.03-.56l-.79.19c-.14-.09-.64-.06-.1-.37.35.03.67-.05.93-.32l1.08-.41c.61.25,1.59.17,2.65-.01.56-.55,1.45-1.17,1.4-1.63.95-.37,1.89-.76,2.74-1.35.09.11.07.32.29.31.3-.02-.55.69.32.23.6-.32.38-.43.24-.54-.07-.05-.2-.27.31-.27.92,0,.46-.47,1.1-.75.12,0,.25.06.37,0,.36-.18.28-.3.33-.43,1.12-.67,2.06-1.52,3.28-2.19.64-.34.73-.85.75-1.17,1.65-1.3,3.21-2.73,4.61-4.29.05.05.06.15.15.14.26-.04-.17.96.56.12.64-.75-.14-.29-.17-.5,0-.06.18-.32.28-.49.95-1.52,2.09-3.05,2.99-4.65.24-.48.43-1.35.88-1.61.21-.17.79-.93,1.21-1.84.48-.89.8-1.92.91-2.43Zm-2.64,5.59v.22c.04-.08.11-.16.14-.23.03-.06,0-.11.01-.17-.05.06-.1.12-.15.17Zm-6.21,8.5s-.08.06-.12.09c.04.03.08,0,.12-.09Z"/><path d="m88.45,2.22c1.24.04,2.41.39,3.58.72,1.17.34,2.32.71,3.5,1,0,1.25,1.67,1.04,2.59,1.48.09.41-.07.84,1.07.79.69-.03,1.57.32,2.38.53.58.37-1.8,1,.7,1.21.32.16.85.18.74.61-.05.22.18.58.5.62.33.04.7-.11.89-.29.31-.29-.34-.33-.48-.5-.29-.33-.45-.69-.66-1.04.29-.21,1.07.23,1.18-.22.27.82,2.4.62,2.05,1.49-.18.43-1.09.68-1.6,1.09-.53.43-1.91.06-2.94-.43-.47-.21-.85-.6-1.33-.76-.46-.16-.93-.7-1.38-.46-.48.25.87.49.49.84-.85.09-1.66-.02-2.45-.54.14-.71.06-1.29-1.41-1.08-1.08.12-2.08-1.08-3.21-.61l-.37-.06-.64-.38c-.99-1-2.23-1.49-3.75-1.05-.71-.7-1.6-1.14-2.86-.94l-.51-.07c.07-.05.12-.12.21-.14.72-.14,1.22-.35.6-.94-.16-.15-.65-.37-.6-.15.12.53-2.13.34-.61,1.3-.45,0-1.08-.21-1.14.26-.25-.05-.51-.07-.76-.11,0-.25.66-.44.17-.73-.39-.22-.86-.16-1.22.02l-.48-.08c-.99-.19-1-.66-1.09-1.12-.05-.27-.27-.5-.75-.55-.18-.02-.47.05-.54.14-.18.25.2.35.5.49,1.06.5-.97.73-.05,1.24-.28.4-.88.3-1.46.25l.02-.3c.04-.29.93-.6.03-.85-.66-.2-1.17.17-1.07.66l-.88-.05-1.19-.49c-.32-.35-.48-.71-.16-1.08.15-.17.12-.34-.27-.39-.47-.06-.56.16-.64.36l-.66-.24v-.65c1.14.11,2.44-.11,3.14.77.26.33.69.18.79-.15.07-.24,0-.5.49-.61,2.01-.38,4.07-.22,6.09.42,1.14,1.02,3.71,1.43,5.46.76Zm11.97,5.15c-.13-.04-.28.02-.42.03.08.1.15.23.26.28.12.05.29,0,.54,0-.17-.15-.26-.28-.38-.31Z"/><path d="m10.8,49.7c.81.45.92.99,1.12,1.53.1.27-.29.54.42.84.57.24.64-.11.71-.4.07-.29.18-.55.27-.82.59.4,1.22.74,1.83,1.12-.14.24-.58.45.29.92.65.35.86.68.64,1-.18.15-.96-.26-.76.24.07.18.31.47.52.58.7.34.42-.22.67-.31.14-.05.26-.12.42-.13.33-.02,1.07.28.92-.08-.17-.41-.87-.31-1.31-.61l.27-.47c1.83.9,3.52,1.91,5.21,2.98-.53.42-1.01.95-2.36-.23-.22-.19-.64-.37-.85-.21-.22.16.07.38.4.6-.02.33-.03.66-.1.99-.2-.03-.4-.07-.6-.11l.31.43c-1.43-.28-2.57-.99-3.41-2.01-.1-.48-.41-1.16-1.15-1.18-.71-.02-1.38-.59-2.04-1.06-.64-.51-1.27-.93-1.93-.73-.8-.96-1.92-1.62-2.82-2.51.49-.46-.14-1.16-.82-1.61-.63-.39-.86-.76-1.08-1.27.56-.24,1.08.97,1.7,1.06.22.04.27.89.76.78.3-.07.02-.66-.1-1.06-.11-.42-.28-.66-.8-.88-.63-.3-1.3-.78-1.17-1.62.06-.49-.5-.83-.84-1.06-.57-.4-.4.12-.31.53.13.65.3,1.3-.14,1.51l-.39-.21c.18-1.03-.84-1.95-1.32-3.02-.21-.39-.89-1.23-.1-1.26.17,0-.63-1.14-.81-1.12-.41.07-.53-.3-.67-.8l-.12-.37c-.35-.64-.8-1.44.02-1.31.51.25.48.23.49-.36.02-.26.07-.61.18-.68.38-.25.4.75.73.84.28.96,1.02,1.74.67,2.79-.1.28.44.73.47.67.18-.27.85.88.72-.1.19-.05.24.03.41.37.48,1.13.97,2.36,2.04,3.15-1,1.05.84,1.46,1.36,2.1.69.71,1.58.81,2.28,1.58-.42.13-1.38.07.17.97Zm3.02,2.96l-.27.03c.07.07.13.16.2.19.06.03.13-.01.2-.02-.05-.07-.09-.14-.13-.2Z"/><path d="m98.49,6.85c-.33,0-.68-.03-1.04-.07-.36,0-.72,0-1.08,0-.72-.04-1.43.1-2.02.26-.56-.08-1.23.11-1.92.27-.67.25-1.37.5-1.96.74-.34.15-.46.22-.68.37-.68.46-.55.99.23.67.82-.35,1.11-.39,1.38-.31.28.07.71.05,1.42-.44.08-.05.41-.15.55-.18,1.39-.27,2.76-.44,4.18-.4,1.63.09,3.23.45,4.78.96,1.55.54,3.01,1.31,4.37,2.2l.08-.12c-.23-.15-.42-.28-.44-.36-.44-.23-.93-.54-1.31-.71-.44-.21-.93-.45-1.41-.65-.49-.18-.93-.38-1.26-.62-.2-.12-1.09-.52-2.05-.79-.48-.12-.98-.26-1.4-.33-.42-.05-.77-.09-.94-.08-.12,0-.24.03-.22.05.15.21-.48.05-.77.03-.35-.05-.57-.12-.88-.18-.18-.05-.72.05-.67-.02.03-.05.34-.14.77-.14.45-.01.99-.04,1.43-.02.44.02.79,0,.87-.12Z"/><path d="m10.19,17.86c-.64.66-1.54,1.28-1.64,2.08.23-.13.58-.23.7-.37.44-.55.8-1.17,1.52-1.07.58.08.25.6.1,1.08-.25.85-.83,1.01-1.5,1.15-.42.09-.94.45-1.05.77-.34,1.15-1.06,1.05-1.68,1.34-.29.28-.57.71-.88.58-.06-.03-.05-.26,0-.31.37-.38.59-.21.87-.26,0-.52.02-1.02.06-1.53-1.13-.04-1.44,1.1-1.92,1.91.23.16.38.37,0,.92.16.11.28.28.48.32.61.12-.15.89-.09,1.32,0,.11-.06.33-.22.3-.32-.06-.22-.42-.13-.86.05-.25-.34-.32-.53-.47.02.46-.94,1.09-.54,1.48.14-.07.37-.35.29.02l-.29-.03c-.39.38-.64-.16-.97.44-.11.21.13.57.22.85.16.07.23.21.17.52.06.01.12.02.19.03.05-.1.12-.19.18-.29.56-.35,1.69-1.63.77.49-.06.14.12.31.19.47.22-.43.41-.89.65-1.31.25-.41.61-.76,1.09-.95.1-.05.52-1.37,1.09-2.06-.01-.34.16-.59.5-1.01,1.05-1.21,2.61-1.91,3.43-3.31.86.11,1.3-1.11,2.04-1.2.71-.09,1.16-.3,1.66-.97.67-.93,1.24-.9,1.58-.38.48-.32.97-.64,1.48-.93-.27-.3.04-.75.21-1.16-.96-.06-1.97-.08-.68-1.34.17-.16-.04-.24-.28-.2-.42.68-1.61.68-1.95,1.3-.77,1.38-.93.59-1.29.38l-.32.22c.09.21-.01.43-.38.67.12.27-.07.51-.41.78l.21.25c-.36.22-.4.04-.48-.08-.87.2-1.9.91-2.45.42Z"/><path d="m113.92,19.11c-.17-.44-.32-.74-.49-.93-.36-.41-.75-.91-.5.01.29,1.48.7,1.39.98,2.12.08.47.18.94.24,1.41-.07.36,0,.83.11,1.33.09.5.17,1.03.16,1.45l-.2.04c-.03-.4-.13-.83-.2-1.24-.1-.4-.18-.77-.16-1.09.05-.4,0-.79-.12-1.18-.11-.39-.21-.8-.39-1.22-1.24-3.3-3.27-6.29-6.12-8.45,0-.1.05-.16.43.07.18.14.37.27.54.43l.22.29c.06.1.13.17.24.22.87.72,1.26,1.24,1.5,1.37.22.15.2-.01.01-.43-.01-.03,0-.04-.01-.06-1.52-1.34-1.59-2.11-3.32-3.2-.37-.2-.79-.45-1.13-.68-.35-.22-.63-.41-.68-.57.51.23,1.14.39,1.25.58.19.36.76.55,1.21.9,1.66,1.17,3.07,2.6,4.34,4.27,1.86,2.38,2.85,5.37,3.44,8.34.11.59.28,1.55.04,1.62-.22-.34-.28-.89-.28-1.52-.03-.76-.19-1.26-.43-1.68-.14-.76-.25-1.55-.7-2.19Zm-2.01-3.05c.06-.05.07-.3-.28-.78-.37-.44-.95-1.04-1.02-1.02-.16.05.4.54.52.77.35.38.61,1.18.78,1.02Zm-.45-1.75c-.22-.32-.65-.84-.77-.77-.07.04.07.25.3.57.26.34.54.65.91,1.08-.18-.38-.26-.63-.44-.88Zm.82,2.11l.1.19v-.04c-.07-.14-.09-.14-.1-.15Z"/><path d="m68.84.29c-.91.19-1.62.15-2.65-.05-.75-.13-1.59-.18-2.45-.08-.86.11-1.74.22-2.58.32-.84.09-1.77-.11-2.53.3l.04.59c.21.26.72.65.17.79-1.64.41-1.3,1.52-2.38,2.11.6-.09,1.12-.28,1.57-.55.06-.01.11-.04.15-.07.04-.27-.26-.61.39-.78.51-.14.89-.04.99.29l.09.07-.09-.08c-.78-.14-.75.5-1.38.5-.04.03-.05.07-.04.11.78.57,1.6-.1,2.4-.05.96-.69,2.04-.73,3.14-.27.33.14.54.33.89-.03.54-.57,1.35-.37,2.13-.19,1.1-.45.59-1.01.31-1.55-.07-.14-.31-.34.08-.43.34-.08.54.07.68.23l.4-.02c-.21-.46.86-.69.65-1.15Z"/><path d="m34.42,62.38c.64.45,1.33.83,2.35.78,1.31-.28,2.6-.15,3.92.48.3-.19.79-.16,1.25-.2l.71.24c-.07-.18-.16-.51-.19-.51-1.35-.06-2.14-.88-3.42-1.02-.93-.11-1.77-.31-1.91-.92,0-.02-.1-.04-.14-.06l-.56.08c.03.67-.89.42-1.59.21-2.28-.67-4.69-.93-6.9-1.98-1.32-.65-1.44-.51-.56-.98.26-.14.47-.32.69-.48-1.33-.29-2.69-1.14-3.96-.87.22.15.42.32.66.43.4.18,1.13.01,1.17.47.02.19-.73.24-1.21.26-.26.02-.66-.18-.99-.3-.28-.1-.57-.22-.77-.12-.26.14-.01.35.24.56.39.32.37.75,1.08.99.75.7,1.69,1.25,2.94,1.44,1.54-.12,3.12.35,4.73.78.02-.15.13-.32.42-.24.51.14.12.31.2.47.81-.34,1.65-.84,1.82.48Z"/><path d="m108.22,11.85l.22.29.12.11.12.11c.87.72,1.26,1.24,1.5,1.37.22.15.2-.01.01-.43-.01-.03,0-.04-.01-.06-1.52-1.34-1.59-2.11-3.32-3.2-.37-.2-.79-.45-1.13-.68-.35-.22-.63-.41-.68-.57-.3-.09-.68-.29-1.06-.43-.39-.14-.76-.26-1-.27.49.33-.11.3-.38.19-.83-.31-.27-.27-.36-.41-.02-.03.01-.04.02-.06-.3-.18-.75-.31-1.21-.43-.46-.12-.95-.17-1.32-.31-.48-.04-.89-.1-1.25-.21-.08.12-.43.14-.87.12-.44-.02-.99.01-1.43.02-.43,0-.74.09-.77.14-.05.07.5-.03.67.02.31.06.53.14.88.18.29.02.92.18.77-.03-.02-.02.11-.05.22-.05.17,0,.52.03.94.08.42.06.91.21,1.4.33.96.27,1.85.67,2.05.79.33.24.78.43,1.26.62.48.2.97.43,1.41.65.37.17.87.48,1.3.71.44.2.42.27.44.36l-.08.12.55.43c0-.1.05-.16.43.07.09.03.17.02.27.09.31.21.26.28.27.34Z"/><path d="m53.31,4.53l-.06-.23c-.35-.42-.65-.87-1.08-1.26-.91-.84-2.36-.63-3.36.35-.12.12-.17.29-.33.38-.62.32-.52,1,.17,1.14q.29.06.36-.41c.03-.22-.04-.49.45-.59.15-.03.36.18.54.28.95-.02.97.48,1.24.84-1,.45-2.06.62-3.17.68.32-.72-.77-.67-1.34-.9l-.46.49c-.36.12-.7.29-1.05.44-.03-.05-.04-.1-.05-.16.51-.88-.67-1.23-.79-1.91l.67-.19s.02.08.06.08c.52.09.58.79,1.14.56.83-.34-.24-.64-.15-1.03l.31-.52c1.67-.24,3.33-.75,5-.72.23-.05.47-.07.71-.11l.09.4-.13.13.18-.11.44-.07c.23,0,.57.15.52-.18l.69-.29-.09.08-.12-.05c.55.39,1.77.17,2.2.87.2.34,1.65-.55,2.47-.91.14-.06.22-.16.32-.24.21.26.72.65.17.79-1.64.41-1.3,1.52-2.38,2.11-1.06.39-2.1.5-3.16.26Zm-5.01-1.36c-.05-.1-.15-.19-.23-.29-.04.07-.11.14-.1.19.01.09.08.17.15.28.09-.09.2-.15.19-.18Z"/><path d="m4.79,24.16c.38-.56.23-.76,0-.92l-.45.47-.29.41c-.44.44-.83.93-1.22,1.42-.37.51-.66,1.1-.88,1.74-.13.56-.48,1.25-.9,1.81-.23.3-.46.79-.64,1.23-.16.45-.24.86-.24.98,0,.33-.01.64-.02.96,0,.32,0,.63,0,.94-.05.61-.05,1.22-.08,1.82-.1,1.21-.1,2.43-.02,3.66.07.91.53,1.36.76,2.04,1.23,3.47,3.41,6.38,5.87,8.83.27.26.49.59.8.56.49-.46-.14-1.16-.82-1.61-.63-.39-.86-.76-1.08-1.27-.36-.02-.62-.44-.91-.75l-.39-.21c.18-1.03-.84-1.95-1.32-3.02-.21-.39-.89-1.23-.1-1.26.17,0-.63-1.14-.81-1.12-.41.07-.53-.3-.67-.8-.21-.07-.24-.2-.12-.37-.35-.63-.8-1.44.02-1.3-.05-.18-.07-.37-.09-.56-.19-.27-.38-.55-.48-.89-.08-.33-.08-.71.06-1.14-.23-.34-.48-.69-.56-1.07-.07-.38.01-.8.58-1.19l.19-1.1c-.42-.32-.07-1.03.06-1.62.24-.86.53-.59.78-.57-.33-1.17.32-2.08,1.19-2.72-.09-.28-.33-.64-.22-.85.33-.6.58-.06.97-.44-.41-.38.55-1,.54-1.46l.49-.59Z"/><path d="m38.31,4.84c-.59-.19-1.2-.22-1.82.38.51.18,1.02.39.65.91-.29.42-.74,0-1.12.25-.74-.45-.94.02-1.19.46-.29.5-.65.71-1.11.29-.93.44-.61.89-.65,1.31.29.37,1.11.23,1.6.45.78.19,1.65.02,2.39-.41.56-.33,1.08-.5,1.69-.59.52-.42-.3-.93.73-1.27.77-.24.77.27.97.53l.68-.22c-.13-.27-.3-.53-.36-.81-.04-.19.26-.34.56-.41.26-.06.49,0,.37.17-.17.25-.73.59-.03.63.17.01.64-.49.98-.75.1-.1.12-.29.41-.18l-.42.17c.46.72,1.28.35,2.14-.09.13-.73-1.33-.7-1.38-1.34-1.42.74-1.54.22-1.57-.39-.58.26-1.2-.02-1.78.33.28.66-.25,1.36-1.29,1.63-1.46.34.29-.73-.3-.9-.08-.02-.11-.09-.17-.14Z"/><path d="m73.72,62.66l.58-.12,1.09-.38.41-.11-.06-.11c-.25,0-.39-.05-.2-.19.03-.02.12-.05.16-.05.33.02.02.17.03.25.59-.1.99-.29,1.21-.57.69-.9,2.17-.63,2.19-.48.04.53.95.26,1.64.21.79-.4,1.55-.8,2.33-1.23.34-.18,1.06-.35.78-.55-.23-.16-.94.23-1.15.22-.65-.02-1.39.88-1.89.41-.47.08-1,.23-1.14,0-.38.1-.78.24-1.07.14-.86.15-1.72.32-2.57.45-1.69.2-3.02,1.1-4.77,1.14l.05.34c.42-.08.85-.18,1.11,0,0,.2.03.4-.62.51l.38.39c.51-.07,1.01-.16,1.51-.26Z"/><path d="m17.27,13.92c.24-.03.45.04.28.2-1.29,1.26-.28,1.28.68,1.34l.56-.35-.29-.5-.11-.03.11.04c.63-.11,1.57-1.13,1.88-.33.86-.52,1.95-.36,2.71-1.31.11-.14.84-.22,1.01.05l.98-.37c.21-.63,1.34-1.36.81-1.92-.02-.03.17-.18.26-.28,1.18.74.9-.74,1.55-.81l-.08-.18c-2.08-.23-2.09.87-2.39,1.75l-.11.1.12-.1c-.37.07-1.01.28-1.07.18-.78-1.24-1.61.15-2.54.69-.95.62-1.95,1.48-3.12,1.4-.51.09-.69-.39-1.42.07l.18.37Z"/><path d="m73.14,1.92l-.66-.24c-1.62-.22-1.58-.88-1.39-1.58-.54-.27-.52.14-.79.21.46.94-.36,1.79-1.82,1.9.34.49.36.98,0,1.47.36.5.67.15.99-.03-.21-.11-.26-.27.03-.3.39-.03.33.2.36.35.83.66,2.07.32,2.97.32,1.47.05,3.04.44,4.47.03l.02-.3c-.34-.08-.67-.15-1.01-.19-.35.36-.63.15-.91-.05l-1.19-.49c-.1.28-.2.57-.85.49-.44-.05-.68-.27-.89-.5-.47-.54.21-.79.67-1.1Z"/><path d="m80.83,59.96c.49.47,1.24-.43,1.89-.41.21,0,.92-.39,1.15-.22.28.2-.43.36-.78.55-.78.43-1.55.84-2.33,1.23l.37.16.41-.1c1.01-.71,2.48-.96,3.7-1.47.24-.25.12-.37-.08-.49-.35-.2-.01-.47.78-.73l-.03-.14c-.05-.18.15-.34.64-.49.1-.04.19-.07.28-.12-.14-.09-.64-.06-.1-.37l-.08-.12c-1.94.61-3.91,1.05-5.81,1.8.4.22,1.08.38-.02.93Z"/><path d="m51.69,64.67c.43,0,.36.71,1.15.2.59-.38,1.11.2,1.69.05.17-.66.94-.53,1.75-.29.69.21,1.26.1,1.78-.15.53-.25.76-.51.19-.79-.76,0-1.46-.24-2.27-.1-2.54.44-2.83.38-4.83-.22-.05-.01-.14-.04-.16-.03-1.07.57-2.58-.43-3.67.03.07.32.05.66.76.88.04-.22.21-.24.7-.17,1.03.13,1.99.36,2.91.6Z"/><path d="m80.83,59.96c1.1-.55.42-.71.02-.93-.81.05-1.38-.09-2.37.59-.73.46-2.38.55-3.65.81-1.71.39-3.51.8-5.29.85-.78,0-1.29.09-1.15.5.14.41.76.32,1.45.15l1.45-.25c1.75-.04,3.08-.94,4.77-1.14.85-.13,1.71-.29,2.57-.45.19-.11.38-.31.56-.34.39-.08.47.07.51.2.14.24.67.09,1.14,0Z"/><path d="m25.23,11.21c.3-.87.3-1.97,2.39-1.75l1.26-.77c.31-.28.63-.56.42-.82-.83-.23-1.53.46-2.23.74-1.3.62-2.63,1.18-3.96,1.77-.66.3-1.32.59-1.96.93-.63.36-1.25.75-1.85,1.17-.64.44-.65.66-.8,1,1.17.08,2.17-.78,3.12-1.4.93-.54,1.76-1.92,2.54-.69.06.09.7-.12,1.06-.19Z"/><path d="m28.07,58.02c-.23.16-.43.34-.69.48-.88.46-.75.33.56.98,2.2,1.05,4.62,1.31,6.9,1.98.7.2,1.61.46,1.59-.21-1.18-.94-2.61-1.16-4.25-1.22-1.06-.03-1.79-.4-1.41-1.03-1.08.02-1.76-.74-2.7-.98Z"/><path d="m47.31,63.37c1.09-.47,2.6.54,3.67-.03.01,0,.11.02.16.03,2,.6,2.3.66,4.83.22.81-.13,1.51.1,2.27.1-.33-.54-.69-1.04-1.92-1.33l-.91.33c-.34.35-.85.33-1.58.24-.89-.11-1.96-.1-2.73-.17-1.54-.21-2.97.33-4.41-.21l.32.77c.1.01.2.03.29.05Z"/><path d="m65.51,62.38c-.41.54-.76,1.04,1.12.91.6-.05.25.19.22.33-.89.4-1.94.32-2.61.17-1.71-.39-2.06.06-2.39.68l-.34.06c-1.13-.19-2.94-.32-1.26-1.22.3-.16.28-.45.41-.68.94-.06,1.88-.14,2.81-.17.61-.04,1.06-.1,1.09-.42l1.04-.05c-.03.13,0,.26-.09.39Zm-2.96.69s-.1,0-.19.05c.05,0,.1,0,.19-.05Z"/><path d="m104.44,7.14c.27.82,2.4.62,2.05,1.49-.18.43-1.09.68-1.6,1.09-.53.43-1.91.06-2.94-.43-.47-.21-.85-.6-1.33-.76-.46-.16-.93-.7-1.38-.46-.48.25.87.49.49.84.68.58,1.56.88,2.45,1.18.89.29,1.8.58,2.47,1.22.42.4.56-.26,1-.19.5-.1-1.16-1.11.39-.75.76-.49,2.2-.3,2.38-1.26-.28-.19-.67-.37-.82-.57-.37-.5.06-1.58-1.62-1.06,0,0-.1-.1-.22-.23-.12-.13-.28-.28-.41-.36-.78-.49-1.62-.71-2.45-.62-.06.93,1.18.43,1.56.88Z"/><path d="m107.68,11.76c.38.21.61.46.71.78.13.4.38.83.73,1.1.36.27.8.42,1.27.39.84-.05,1.74-.36,2.12-.94.71-1.09.03-1.88-2.01-2.56-.5-.16-.96-.73-1.44-1.12-.82.25-.81.88-.33,1.51.49.64,1.18.64,1.84.42.24-.08,1.13.02.84.45-.25.38.03.93-.44,1.2-.29.17-.51.44-1.05.27-.56-.17-.68-.53-.61-.85.07-.33.1-.62-.51-.86-.59-.23-.97-.17-1.13.21Z"/><path d="m46.7,62.55c1.44.54,2.87,0,4.41.21.77.08,1.84.07,2.73.17.73.09,1.24.11,1.58-.24-1.23-.85-3.08-.47-4.61-.59-2.27-.21-4.64-.01-6.78-.87l-.21.21c.29.31,1.41.78-.37.66-.58-.04-.95.22.03.45,1.07,0,1.92-.63,3.22-.02Z"/><path d="m16.54,17.54c-.34-.53-.91-.55-1.58.38-.5.67-.95.88-1.66.97-.74.09-1.18,1.31-2.04,1.2-.82,1.4-2.38,2.1-3.43,3.31-.34.42-.51.68-.5,1.01,1.33-.73,2.46-1.73,3.66-2.89.78-.72,1.61-1.43,2.7-1.92.94-.42,1.87-1.39,2.85-2.07Z"/><path d="m82.99,4.5c-.25-.05-.51-.07-.76-.11l-1.06-.7-.48-.08-1.62.27c.81,1.18,2.67,1.02,3.98,1.24,1.29.27,2.6.45,3.91.6l1.98.22,1.96.34.74-.06c-.99-1-2.23-1.49-3.75-1.05-1.16.02-2.39.2-2.86-.94l-.51-.07h-.37c-.02.14-.01.22-.01.29l.09.18-.24-.12-.99-.02Z"/><path d="m92.8,54.98c.94-.37,1.89-.76,2.73-1.35.71-.39,1.4-.74,2.02-.87.47-.29.71-.42.93-.57,1.12-.67,2.06-1.52,3.28-2.19.64-.34.73-.85.75-1.17-3.11,2.32-6.48,4.24-9.95,6.01l.23.14Z"/><path d="m66.85,63.62c-.89.4-1.94.32-2.61.17-1.71-.39-2.06.06-2.39.68,2.78.01,5.6-.06,8.29-.91.65-.22,1.11.04,1.64-.1.73-.18,1.91-.21,1.94-.8-.5.1-1.01.19-1.51.26l-2.51.28-2.85.41Z"/><path d="m112.66,37.53c.12.09.42-.03-.13,1-.36.63-.59,1.21-.31,1.22,1.55-2.58,2.79-5.47,3.06-8.63h-.13s-.11.08-.11.08c0,.06,0,.12-.02.18-.02.53-.11,1.05-.33,1.15-.01.09-.03.19-.06.28-.1.35-.22.7-.35,1.04.13.21.06.58-.22,1.11-.24.6-.26,1.32-.64,1.8-.13.16-.11-.15-.06-.47l-.07-.06-.29.26c-.42.51-.19.67-.35,1.03Z"/><path d="m61.5,64.53c-1.13-.19-2.94-.32-1.26-1.22.3-.16.28-.45.41-.68-.52-.02-.36-.22-.39-.35l-.69.06c.23.35-.67.52-.68.83l.47.06s-.1.06-.1.06c-.13-.04-.26-.08-.38-.12-.63-.21-.25-.54-.39-.8-.71-.39-1.42-.44-2.16,0,1.23.29,1.59.79,1.92,1.33.57.28.34.54-.19.79-.51.24-1.09.35-1.78.15-.81-.24-1.58-.37-1.75.29.92.05,1.85,0,2.77-.04.92-.05,1.84-.09,2.76.02.72.09,1.09-.14,1.44-.37Z"/><path d="m43.48,62.56c-.98-.23-.62-.49-.03-.45,1.78.12.66-.35.37-.66-.34.3-.86-.03-1.29-.03.02.23-.35.5-.6.38-1.21-.66-2.23-.09-3.34-.34-.65.17-.64-.07-.64-.31-.55-.4-.74-.17-.96.02.05.02.14.05.15.06.14.61.98.81,1.91.92,1.28.14,2.07.96,3.42,1.02.03,0,.13.33.19.51l1.36.51.72.29.14-.49c-1.58-.29-1.6-.84-1.39-1.43Z"/><path d="m24.3,59.45c-.71-.24-.69-.67-1.08-.99-.25-.21-.49-.42-.24-.56.2-.11.49.02.77.12.33.11.73.31.99.3.48-.02,1.23-.08,1.21-.26-.04-.45-.77-.29-1.17-.47-.24-.11-.44-.29-.66-.43-.2-.4-.59-.24-.9-.34-.55-.06-1.16-.09-1.14.26.1,1.38-1.47.74-2.9.18.06.32.83.55.75.89,1.23.33,2.2,1.13,3.42,1.53.87.3.78-.04.96-.22Z"/><path d="m38.59,61.45c1.11.25,2.13-.32,3.34.34.25.13.61-.14.6-.38-2.23-.36-4.44-.72-6.67-1.08-1.12-.18-2.25-.55-3.3-.96-.64-.24-1.18-.31-1.78-.38-.38.63.34,1,1.41,1.03,1.64.06,3.07.28,4.25,1.22l.56-.08c.22-.19.42-.43.96-.02l.64.31Z"/><path d="m66.85,63.62l2.85-.41-.02-.32c-.39.04-.74.04-.7-.16.03-.2.43-.25.78-.3.11-.17.09-.34.08-.5-.69.17-1.32.26-1.45-.15-.92-.07-1.84.05-2.78.21-.03.13,0,.26-.09.39-.41.54-.76,1.04,1.12.91.6-.05.25.19.22.33Z"/><path d="m28.88,8.69l-1.26.77.08.19.1.04-.1-.05c-.65.07-.36,1.55-1.55.81-.09.1-.29.25-.26.28.53.56-.6,1.29-.81,1.92.16.17.44.01.7-.1.21-.45.79-.61,1.26-.85.4-.05.3-.9.71-.47.43.45.88-.15,1.28-.14.43-.59.78-.48,1.11-.22.38-.06.93.15.94-.44l.03-.35c-.46.03-.78-.2-1.34.03-.44.03-.38-.24-.49-.41-1.92.37-.03-.75-.4-.98Z"/><path d="m113.86,31.91c.31-.55.49-1.23.78-1.77.56-1.12.52-3.42.02-4.34.06.88,0,1.85-.29,1.23-.08,1.67-.41,3.28-.51,4.87Z"/><path d="m29.28,9.67c-1.92.37-.03-.75-.4-.98.31-.28.63-.56.42-.82,1.01-.46,1.92-1.42,3.11-1.07.06.02.09.06.09.11-1.15,1.12-.94,1.98-.54,2.8l-.84.35c-.45.03-.78-.2-1.34.03-.04-.21-.1-.4-.49-.41Zm.83-1.03c-.25,0-.39.24-.28.31.22.16-.3.84.72.43.47-.29.38-.41-.05-.43-.12-.11-.19-.31-.39-.31Z"/><path d="m6.71,21.32c.26-.24.73-.17.79-.69.17-1.12.66-.72,1.06-.69.23-.13.58-.23.7-.37.44-.55.8-1.17,1.52-1.07.58.08.25.6.1,1.08-.25.85-.83,1.01-1.5,1.15-.42.09-.94.45-1.05.77-.34,1.15-1.06,1.05-1.68,1.34,0-.51.02-1.01.06-1.53Zm3.6-2.2s-.08.1-.08.12c.02.05.07.08.1.11l.17-.24c-.07,0-.13,0-.2,0Z"/><path d="m109.44,43.77c-.43.61-.97,1.15-1.42,1.73-.5.54-.93,1.13-1.29,1.72-.18.3-.59.56-.88.74-.52.33-.79.63-.92.98,1.18-.56,2.18-1.76,3.08-2.87,1.16-1.44,2.54-2.59,3.35-4.33.13-.24.28-.54.27-.69-.37.22-.77.72-1.07,1.41-.35.85-.74,1.09-1.12,1.31Z"/><path d="m107.68,11.76c.16-.38.54-.44,1.13-.21.61.24.58.53.51.86-.07.32.05.68.61.85.54.17.77-.1,1.05-.27.47-.27.19-.81.44-1.2.28-.43-.6-.54-.84-.45-.66.22-1.35.22-1.84-.42-.48-.63-.49-1.26.33-1.51-.16-.24-.35-.41-.66-.3-.18.96-1.62.77-2.38,1.26.28.32.51.64.41.96l1.24.43Z"/><path d="m3.01,27.51c-.87.64-1.52,1.54-1.19,2.72.16.36.1.95.11,1.51,0,.28,0,.55.05.77.07.23.18.41.35.51h.66c.27-.55.4-1.04.24-1.59-.09-.11-.32.06-.29-.31h.38c.07-.08.12-.18.14-.29.35-1.34-.7-1.48-.29-2.81.07-.32,0-.45-.17-.52Z"/><path d="m81.13,61.27l-.37-.16c-.69.05-1.6.33-1.64-.21-.01-.15-1.5-.42-2.19.48-.22.28-.63.47-1.21.57.03.03.05.07.07.11l.07.44c1.77-.23,3.58-.34,5.27-1.24Z"/><path d="m97,54.85c-.04-.36-.76-.03-1.36.21-1.28.53-2.79,1.06-3.82,1.73-.7.48-1.22.7-1.97,1.01-.46.18-.11.31-.1.45,1.65-.58,3.28-1.13,4.83-2.16.66-.45,1.62-.81,2.42-1.25Z"/><path d="m18.79,15.1l-.56.35c-.17.41-.48.86-.21,1.16,1.69-.59,3.12-1.94,4.96-2.26.76-.09.61-.89,1.12-1.34-.17-.28-.9-.2-1.01-.05-.76.95-1.85.79-2.71,1.31,0,1.35-1.12.41-1.58.83Z"/><path d="m1.18,37.8c.03.19.05.38.09.56.51.25.48.23.49-.36.02-.26.07-.61.18-.68.38-.25.4.75.73.84.06-.26.16-.52.25-.78-.02-.37-.04-.74,0-1.1-.32-.71-.5-1.47-.71-2.27-.33.77-.52,1.18-.72,1.13-.18-.05-.46-.55-.7-1.63-.56.39-.65.81-.58,1.19.08.38.32.74.56,1.08.14.7,1.16.88.41,2.02Z"/><path d="m19.18,57.25c1.43.56,3,1.2,2.9-.18-.02-.36.59-.33,1.14-.26.08-.64-.8-.46-1.18-.71-.53.42-1.01.95-2.36-.23-.22-.19-.64-.37-.85-.21-.22.16.07.38.39.58l.16.03-.15-.02-.05.99Z"/><path d="m32.41,6.8c.06.02.09.06.09.11.25.22,1.25-.33,1.22.23.45.42.82.21,1.11-.29.25-.44.44-.91,1.19-.46.38-.25.83.17,1.12-.25.37-.53-.13-.74-.65-.91-1.42.41-3.14.27-4.08,1.58Z"/><path d="m53.69,1.66c.55.39,1.77.17,2.2.87.2.34,1.65-.55,2.47-.91.14-.06.22-.16.32-.24l-.04-.59c-1.35-.36-2.48.61-3.79.53l-.94.2c-.12.03-.2.07-.22.15Z"/><path d="m111.83,37.55c.21-.17.79-.93,1.21-1.84.48-.89.8-1.92.91-2.43.14-1.03-.23-.44-.35-.68-.09.64-.21,1.28-.55,1.82-.07.12-.25.53-.25.56,0,.44-.15.88-.34,1.31-.22.42-.47.84-.63,1.26Z"/><path d="m104.44,7.14c-.38-.45-1.62.05-1.56-.88-.36-.55-.92-.53-1.47-.51-1.02.35-2.22-.37-3.29-.34.09.41-.07.84,1.07.79.69-.03,1.57.32,2.36.51l.51-.12.09.18-.58-.04c.58.37-1.8,1,.7,1.21.2-.3.05-.86.99-.59.29-.21,1.07.23,1.18-.22Z"/><path d="m97.48,54.2c.01.06.16.07-.1.24,1.95-1.04,4.15-2.06,5.23-3.82l-.13-.08c-.39.29-.76.6-1.15.87-1.23.99-2.52,1.9-3.85,2.8Z"/><path d="m98.12,5.42c1.07-.03,2.26.68,3.29.34.11-.71-.84-.4-1.22-.58-1.45-.67-3.08-.99-4.66-1.23,0,1.25,1.67,1.04,2.59,1.48Z"/><path d="m72.5,1.02c1.13.11,2.43-.11,3.13.77.26.33.69.18.79-.15.07-.24,0-.5.49-.61.21-.66-.76-.52-1.27-.57-1.14-.13-2.3-.16-3.45-.23.08.27-.22.57.31.8Z"/><path d="m66.72,3.22c-.78-.19-1.59-.38-2.13.19-.35.36-.56.18-.89.03-1.1-.46-2.18-.42-3.14.27,1.04.51,2.27.33,3.48.2.89-.08,1.78-.15,2.67-.23v-.46Z"/><path d="m10.63,48.73c-.42.13-1.38.07.17.97.81.45.92.99,1.12,1.53.1.27-.29.54.42.84.57.24.64-.11.71-.4.07-.29.18-.55.27-.82-.94-.68-1.83-1.38-2.69-2.13Z"/><path d="m41.84,3.92c.03.61.15,1.13,1.57.39l.97-.65.67-.19c.24-.28.65-.32,1.04-.38l.31-.52c-.05-.41-.51-.2-.88-.08-1.24.45-2.47.96-3.69,1.43Z"/><path d="m2.93,37.38c-.09.25-.19.52-.25.78.28.96,1.02,1.74.67,2.79-.1.28.44.73.47.67.18-.27.85.88.72-.1-.39-.64-.56-1.41-.73-2.13-.18-.73-.38-1.4-.88-2.01Z"/><path d="m42.66,5.75c-.34.27-.81.76-.98.75-.69-.04-.14-.38.03-.63.11-.17-.11-.23-.37-.17-.3.07-.6.22-.56.41.07.28.24.54.36.81,1.39.24,2.76-.24,4.14-.68l-.07-.51s-.04-.1-.05-.16l-.38.08c-.86.45-1.67.82-2.13.1Z"/><path d="m3.18,28.03c-.42,1.34.63,1.47.29,2.81.35-.25.67-.5.87-.82.22-.31.31-.7.17-1.29-.08-.16-.26-.33-.19-.47.92-2.12-.2-.85-.77-.49.09.12.27.14.07.51l-.25-.22c-.06,0-.12-.02-.19-.03Z"/><path d="m15.43,55.58c-.1-.48-.41-1.16-1.15-1.18-.71-.02-1.38-.59-2.04-1.06-.64-.51-1.27-.93-1.93-.73,1.58,1.27,3.31,2.27,5.12,2.98Z"/><path d="m44.01,64.19l-1.36-.51-.71-.24c-.06.44-.66.32-1.25.2-1.32-.63-2.6-.76-3.92-.48.08.21.42.46.69.45,2.17-.08,4.42.97,6.55.59Z"/><path d="m97.27,8.37c.14-.71.06-1.29-1.41-1.08-1.08.12-2.08-1.08-3.21-.61.6.64,1.35.93,2.16,1.11.8.23,1.66.35,2.46.58Z"/><path d="m88.74,56.63c.61.25,1.59.17,2.65-.01-.36-.32-.01-.86.49-1.43-.75.08-1.25.52-1.84.84-.2.45-.82.47-1.31.6Z"/><path d="m82.99,1.46c1.14,1.02,3.71,1.43,5.46.76-1.48-.65-3.11-.56-4.66-.81-.1.42-.46.19-.8.05Z"/><path d="m12.91,17.27c.33-.26.52-.51.37-.72l-.46.15-.21-.12.33-.14.38.04c.37-.24.47-.46.38-.67-1.17.65-2.52.82-3.51,2.04.55.49,1.58-.23,2.45-.42l.27-.17Z"/><path d="m31.97,61.67c-1.62-.43-3.2-.9-4.73-.78.44.48.92.76,1.82.69,1.14-.11,2.32.61,3.5.73l.03-.41c-.2-.07-.41-.15-.62-.22Z"/><path d="m68.48,2.2c1.47-.11,2.29-.96,1.82-1.9h-1.46c.22.45-.86.69-.65,1.14.42.21.24.5.29.76Z"/><path d="m2.21,34.01c.22.8.39,1.56.71,2.27.24-1.15.55-2.14.07-3.27h-.66s-.13,1-.13,1Z"/><path d="m31.95,9.71l-.84.35-.03.35c1.29-.34,2.62-.58,3.6-1.51-.49-.22-1.31-.08-1.6-.45-.21.17-.39.31-.57.45.04.28.11.57-.54.82Z"/><path d="m66.72,3.22v.46s1.76,0,1.76,0c.36-.49.34-.98,0-1.47-.87-.04-.67-.42-.69-.74-.14-.16-.34-.31-.68-.23-.4.1-.16.29-.08.43.28.54.79,1.1-.31,1.55Z"/><path d="m17.27,13.92l-.18-.37c-1.11.54-2.62.74-3.06,2.05.36.21.52,1,1.29-.38.34-.62,1.53-.62,1.95-1.3Z"/><path d="m44.88,64l-.14.49c1.37.46,2.68.28,3.99.16l-.65-.4c-.71-.22-.69-.56-.76-.88-.09-.02-.19-.04-.29-.05-.06.67-.33,1.21-2.15.68Z"/><path d="m60.65,62.63c.94-.06,1.88-.14,2.81-.17.61-.04,1.06-.1,1.09-.42-1.27-.28-2.63.15-3.94.1,0,.16,0,.32.03.49Z"/><path d="m48.07,64.25l.65.4c1.02.28,2.08.79,2.96.03-.92-.24-1.88-.47-2.91-.6-.49-.07-.66-.05-.7.17Z"/><path d="m38.31,4.84c.06.05.09.11.17.14.58.16-1.16,1.24.3.9,1.04-.27,1.57-.96,1.29-1.63-.65.05-1.4-.09-1.75.59Z"/><path d="m109.44,43.77c.39-.22.78-.46,1.12-1.31.3-.7.7-1.19,1.07-1.41.11-.24.29-.52.25-.65l-.6.39c-.65.93-1.19,1.92-1.88,2.82l.03.17Z"/><path d="m114.37,27.04c.28.62.35-.35.29-1.23.01-.65-.06-1.05-.23-1.31l-.2.04c.08.4.1.82.13,1.23.03.42.06.84,0,1.27Z"/><path d="m85.23,59.7c-1.22.51-2.69.76-3.7,1.47,1.37-.03,2.52-.82,3.78-1.2l-.08-.26Z"/><path d="m6.99,45.04c-1,1.05.84,1.46,1.36,2.1.16-.23.62-.34-.23-.94-.4-.32-.78-.75-1.14-1.16Z"/><path d="m40.47,7.15c-.2-.26-.2-.77-.97-.53-1.03.34-.21.85-.73,1.27.98.28,1.13-.53,1.71-.74Z"/><path d="m79.07,3.88l1.62-.27c-.98-.18-.99-.66-1.09-1.12-.05-.27-.27-.5-.75-.55-.18-.02-.47.05-.54.14-.18.25.2.35.5.49,1.06.5-.97.73-.05,1.24.1.04.2.06.31.08Z"/><path d="m115.36,25.08c.15.73-.37,1.71.1,2.28.29-.3.36-.32-.1-2.28Z"/><path d="m50,4.19c.95-.02.97.48,1.24.84.72-.13,1.55.08,2.07-.49l-.06-.23c-.54-.04-1.42.27-1.56-.1-.33-.85-1.01-.33-1.69-.01Z"/><path d="m48.07,5.7c.32-.72-.77-.67-1.34-.9l-.47.49-.25.89c.73-.03,1.26-.63,2.06-.48Z"/><path d="m16.55,53.59l.27-.47c-.48-.47-.96-.93-1.67-1.15-.14.24-.58.45.29.92.65.35.86.68.64,1,.35.05.36-.17.47-.31Z"/><path d="m91.89,55.18c-.51.58-.86,1.12-.49,1.43.56-.55,1.45-1.17,1.4-1.63l-.23-.14-.68.34Z"/><path d="m72.5,1.02c-.53-.23-.23-.53-.31-.8l-1.09-.13c-.19.7-.23,1.36,1.39,1.58v-.65Z"/><path d="m32.59,61.89l-.03.41c.68.19,1.31.19,1.86.07-.17-1.32-1.01-.82-1.83-.49Z"/><path d="m107.13,44.54s.06.15.15.14c.26-.04-.17.96.56.12.64-.75-.14-.29-.17-.5,0-.06.18-.32.28-.49-.25.1-.5.17-.83.73Z"/><path d="m88.74,56.63c.49-.14,1.11-.15,1.31-.6l-.75.23c-.27.12-.51.19-.67.14l-1.3.62.33.03,1.08-.41Z"/><path d="m102.27,7.8s-.04.03-.02.06c.09.14-.47.1.36.41.28.11.88.15.38-.19-.24-.09-.47-.21-.72-.28Z"/><path d="m58.88,63.17c.02-.31.91-.48.68-.83l-1.08.04c.14.27-.24.6.4.8Z"/><path d="m106.43,11.33c.11-.32-.13-.64-.41-.96-1.55-.35.11.66-.39.76.04.08.12.13.23.15l.45.14c.1.01.14-.01.12-.08Z"/><path d="m53.21,1.93l.69-.29c-.38-.41-1.24-.15-1.81-.29l.02.4.09.4c.2,0,.34-.02.49-.05.02-.23.28-.2.52-.18Z"/><path d="m19.92,58.14c.08-.34-.69-.57-.8-.88-.2-.03-.4-.07-.6-.11l.31.43c.3.27.66.46,1.08.56Z"/><path d="m46.02,6.18l.25-.89c-.36.12-.7.29-1.05.44l.07.51.73-.06Z"/><path d="m30.14,10.85c-.33-.26-.68-.37-1.11.22.35.08.66.53,1.11-.22Z"/><path d="m75.39,62.17l-1.09.38c.02.4.63.18,1.17.02l-.08-.41Z"/><path d="m27.04,11.69c-.47.25-1.06.4-1.26.85.86.06,1.12-.34,1.26-.85Z"/><path d="m98.49,6.85c.36.11.77.16,1.25.21-.39-.11-.6-.4-1.25-.21Z"/><path d="m87.66,57.04l-.33-.03-.67.23.08.12c.35.03.67-.05.93-.32Z"/><path d="m58.16,3.77s0-.08.04-.11c-.05.03-.1.06-.16.07l-.06.46.18-.41Z"/><path d="m88.63,56.39c.17.05.41-.02.67-.14-.08-.21-.3-.15-.67.14Z"/><path d="m69.86,3.7c-.04-.15.03-.39-.36-.35-.29.02-.24.19-.03.3l.39.06Z"/><path d="m52.11,1.74l-.02-.4c-.36.11-.6.27-.69.51.23-.05.47-.07.71-.11Z"/><path d="m53.91,1.51l.94-.2c-.43-.21-.75-.15-.94.2Z"/><path d="m60.64,62.62v-.48c-.25-.02-.37.02-.38.14.04.14-.13.33.38.35Z"/><path d="m3.32,31.13h-.38c-.03.37.19.2.29.31.06-.1.08-.2.09-.31Z"/><path d="m82.99,1.46c.35.14.7.37.8-.05-.32-.12-.64-.22-.8.05Z"/><path d="m109.41,43.61c.69-.9,1.23-1.89,1.88-2.82.19-.34.23-.52.16-.6l-.23-.19c-.33.52-.51.65-.53.38-.01-.13-.02-.3-.24.04-.12.2-.34.67-.32.67.4.16-.48,1.54-.69,2.19-.04.14-.02.22-.02.33Z"/><path d="m114.61,21.3c-.14-.76-.25-1.55-.7-2.19.43,1.22-.19.32,0,1.2.08.47.18.94.24,1.41.15-.22.08-1,.46-.42Z"/><path d="m97.55,52.76c-.62.13-1.31.48-2.02.87.09.11.07.32.29.31.3-.02-.55.69.32.23.6-.32.38-.43.24-.54-.07-.05-.2-.27.31-.27.92,0,.46-.47.86-.61Z"/><path d="m114.28,33.85c.14-.34.25-.69.35-1.04-.07-.16.05-1.09-.24-.32-.3.82-.23,1.14-.11,1.36Z"/><path d="m113.37,36.29c-.05.32-.08.63.06.47.38-.48.4-1.2.64-1.8-.26-.03-.47.79-.69,1.33Z"/><path d="m101.33,51.4c.4-.27.77-.58,1.15-.87-.19-.11-.6.08-1.05.45-.35.27-.14.32-.1.42Z"/><path d="m86.83,57.73c-.09.05-.18.08-.28.12l.05.25c.4-.16.92-.29,1.03-.56l-.79.19Z"/><path d="m114.69,32.53c.23-.1.31-.62.33-1.15h-.18c-.03.39-.1.77-.15,1.15Z"/><path d="m111.47,38.7c-.05.06-.1.12-.15.17v.22c.04-.08.11-.16.14-.23.03-.06,0-.11.01-.17Z"/><path d="m98.48,52.19c-.23.15-.47.29-.7.43.12,0,.25.06.37,0,.36-.18.28-.3.33-.43Z"/><path d="m113.01,36.5l.29-.26c.05-.56-.11-.17-.29.26Z"/><path d="m114.84,31.39c.02-.2.09-.48,0-.49-.02,0-.07.13-.08.2-.05.33.03.25.07.29Z"/><path d="m111.22,40l.23.19c.15-.45.09-.53-.23-.19Z"/><path d="m104.99,47.46s.08,0,.12-.04c-.04-.03-.08,0-.12.04Z"/><path d="m85.91,58.34l.03.14.65-.37c-.22.08-.45.16-.68.24Z"/><path d="m112.66,37.54l-.07.06s.05-.05.07-.06Z"/><path d="m115.05,31.2l.11-.09c0-.32-.04-.26-.11.09Z"/><path d="m73.14,1.92c-.45.31-1.14.57-.67,1.1.2.23.45.44.89.5.65.08.74-.22.85-.49-.32-.35-.48-.71-.16-1.08.15-.17.12-.34-.27-.39-.47-.06-.56.16-.64.36Z"/><path d="m103.26,7.36c-.93-.27-.79.29-.99.59.32.16.85.18.74.61-.05.22.18.58.5.62.33.04.7-.11.89-.29.31-.29-.34-.33-.48-.5-.29-.33-.45-.69-.66-1.04Z"/><path d="m85.03,4.24c.47,1.14,1.7.96,2.86.94-.71-.7-1.6-1.14-2.86-.94Z"/><path d="m84.15,4.16h.37c.07-.04.12-.11.21-.13.72-.14,1.22-.35.6-.94-.16-.15-.65-.37-.6-.15.12.53-2.13.34-.58,1.22Z"/><path d="m76.31,3.56c.34.05.68.12,1.01.19.04-.29.93-.6.03-.85-.66-.2-1.17.17-1.04.65Z"/><path d="m81.17,3.69l1.06.7c0-.25.66-.44.17-.73-.39-.22-.86-.16-1.22.02Z"/><path d="m100.8,7.68c-.17-.15-.26-.28-.38-.31-.13-.04-.28.02-.42.03.08.1.15.23.26.28.12.05.29,0,.54,0Z"/><path d="m82.99,4.5l.99.02.15-.06v-.22c-.46,0-1.09-.21-1.15.26Z"/><path d="m75.4,3.51c.28.2.55.41.88.05l-.88-.05Z"/><path d="m98.4,8.12c-.08-.08-.14-.06-.2-.05.03.03.06.06.2.05Z"/><path d="m4.68,46.46c.29.31.55.73.91.75.56-.24,1.08.97,1.7,1.06.22.04.27.89.76.78.3-.07.02-.66-.1-1.06-.11-.42-.28-.66-.8-.88-.63-.3-1.3-.78-1.17-1.62.06-.49-.5-.83-.84-1.06-.57-.4-.4.12-.31.53.13.65.3,1.3-.14,1.51Z"/><path d="m16.55,53.59c-.11.14-.12.36-.47.31-.18.15-.96-.26-.76.24.07.18.31.47.52.58.7.34.42-.22.67-.31.14-.05.26-.12.42-.13.33-.02,1.07.28.92-.08-.17-.41-.87-.31-1.31-.61Z"/><path d="m13.96,52.86c-.05-.07-.09-.14-.13-.2l-.27.03c.07.07.13.16.2.19.06.03.13-.01.2-.02Z"/><path d="m1.37,40.04l-.12-.37c.04.12.08.25.12.37Z"/><path d="m106.77,10.81c-.02-.09,0-.16-.44-.36.02.08.21.21.44.36Z"/><path d="m4.79,24.16l-.49.59c.19.15.58.23.53.47-.09.44-.19.8.13.86.16.03.23-.18.22-.3-.05-.43.7-1.2.09-1.32-.2-.04-.32-.21-.48-.32Z"/><path d="m6.65,22.85c-.28.05-.5-.12-.87.26-.05.05-.07.29,0,.31.31.13.59-.3.88-.58Z"/><path d="m12.91,17.27l-.27.17c.09.12.13.3.48.08l-.21-.25Z"/><path d="m3.36,28.06l.25.22c.2-.37.03-.39-.07-.51-.06.1-.13.19-.18.29Z"/><path d="m3.76,26.21l.29.03c.08-.37-.16-.09-.29-.03Z"/><path d="m113.92,20.31c-.19-.88.42.02,0-1.2-.17-.44-.32-.74-.49-.94-.36-.41-.75-.91-.5.01.29,1.48.7,1.39.98,2.12Z"/><path d="m111.13,15.03c.35.38.61,1.18.78,1.02.06-.05.07-.3-.28-.78-.37-.44-.95-1.04-1.02-1.02-.16.05.4.54.52.77Z"/><path d="m111.9,15.19c-.18-.38-.26-.63-.44-.88-.22-.32-.65-.84-.77-.77-.07.04.07.25.3.57.26.34.54.65.91,1.08Z"/><path d="m108.22,11.85c0-.06.04-.13-.27-.34-.1-.07-.18-.06-.27-.09.18.14.37.27.54.43Z"/><path d="m112.39,16.57c-.08-.09-.05-.03-.01.04v-.04Z"/><path d="m108.67,12.36l-.12-.11-.12-.11c.06.1.13.17.24.22Z"/><path d="m59.57,3.16c-.1-.33-.48-.42-.99-.29-.65.17-.35.51-.39.78.64,0,.61-.64,1.39-.49Z"/><path d="m67.8,1.46c.02.32-.18.7.7.75-.05-.26.12-.56-.3-.77l-.4.02Z"/><path d="m59.58,3.15l.09.08s-.06-.05-.09-.08Z"/><path d="m31.97,61.67l.63.22c-.08-.16.31-.33-.2-.47-.29-.08-.41.09-.42.24Z"/><path d="m40.69,63.64c.59.12,1.19.24,1.25-.2-.45.04-.95,0-1.25.2Z"/><path d="m50,4.19c.68-.32,1.36-.83,1.69.01.14.36,1.03.06,1.56.1-.35-.42-.65-.87-1.08-1.26-.91-.84-2.36-.63-3.36.35-.12.12-.17.29-.33.38-.62.32-.52,1,.17,1.14q.29.06.36-.41c.03-.22-.04-.49.45-.59.15-.03.36.18.54.28Z"/><path d="m44.79,5.65l.38-.08c.51-.87-.67-1.23-.79-1.91l-.97.65c.05.64,1.51.61,1.38,1.34Z"/><path d="m46.09,3.09c-.39.06-.81.1-1.04.38.02.03.02.08.06.08.52.09.58.79,1.14.56.83-.34-.24-.64-.15-1.03Z"/><path d="m48.11,3.35c.09-.09.2-.15.19-.18-.05-.1-.15-.19-.23-.29-.04.07-.11.14-.1.19.01.09.08.17.15.28Z"/><path d="m53.21,1.93c-.25-.03-.5-.06-.52.18.23,0,.58.15.52-.18Z"/><path d="m52.2,2.15l-.13.13c.06-.04.12-.07.13-.13Z"/><path d="m2.21,34.01l.13-.98c-.17-.1-.28-.28-.35-.51-.05-.22-.05-.49-.05-.77,0-.56.05-1.15-.11-1.51-.26-.02-.55-.29-.78.57.44-.26.46.41.48.82.02.5-.32.66-.54.81l-.19,1.1c.24,1.07.52,1.58.7,1.63.21.05.39-.36.72-1.13Z"/><path d="m.98,32.42c.22-.15.56-.31.54-.81-.02-.41-.03-1.08-.48-.82-.13.59-.48,1.3-.06,1.62Z"/><path d="m1.18,37.8c.75-1.14-.27-1.32-.41-2.02-.15.43-.14.8-.07,1.14.1.33.28.62.48.89Z"/><path d="m1.38,40.04l-.12-.38c-.13.18-.09.31.12.38Z"/><path d="m31.95,9.71c.66-.25.59-.53.54-.82-.24-.33.14-.39.54-.42.07-.45-.25-.89.68-1.34.03-.56-.97,0-1.22-.23-1.15,1.12-.94,1.98-.54,2.8Z"/><path d="m42.65,5.75l.42-.17c-.29-.11-.31.08-.42.17Z"/><path d="m69.88,62.42c-.15.16-.18.31-.2.47.72-.12,1.43-.24,2.15-.36.64-.12.62-.32.62-.51-.39.03-.85.17-1.11,0l-1.46.4Z"/><path d="m79.69,59.96c-.05-.13-.13-.28-.51-.2-.18.03-.37.23-.56.34.29.11.69-.04,1.07-.14Z"/><path d="m71.34,62.02c.26.17.72.03,1.11,0-.26-.17-.69-.08-1.11,0Z"/><path d="m75.72,61.95c-.02-.08.3-.23-.03-.25-.04,0-.13.03-.16.05-.18.14-.05.19.19.2Z"/><path d="m18.79,15.1c.46-.43,1.57.51,1.58-.83-.31-.8-1.25.22-1.88.33l.3.5Z"/><path d="m25.24,11.21l-.12.1s.07-.07.12-.1Z"/><path d="m18.49,14.61l-.11-.04s.08.02.11.04Z"/><path d="m85.91,58.34l.69-.24-.05-.25c-.49.14-.69.3-.64.49Z"/><path d="m44.88,64c1.81.53,2.08,0,2.15-.68l-.32-.77c-1.3-.62-2.14.02-3.22.02-.21.59-.19,1.15,1.39,1.43Z"/><path d="m62.36,63.12h.16c0-.06-.07-.06-.16,0Z"/><path d="m58.87,63.18c.13.04.25.08.38.12,0,0,.07-.04.1-.06-.16-.02-.31-.04-.48-.06Z"/><path d="m38.59,61.45l-.64-.31c0,.24,0,.48.64.31Z"/><path d="m69.68,62.89l.08-.46c-.35.05-.74.09-.78.3-.03.21.31.21.7.16Z"/><path d="m29.77,10.09c-.04-.21-.1-.4-.49-.41.11.17.05.44.49.41Z"/><path d="m27.7,9.64l.1.05s-.07-.03-.1-.05Z"/><path d="m30.49,8.96c-.12-.11-.19-.31-.39-.31-.25,0-.39.24-.28.31.22.16-.3.84.72.43l-.06-.43Z"/><path d="m30.49,8.96l.06.43c.47-.29.38-.41-.06-.43Z"/><path d="m10.51,19.12c-.07,0-.13,0-.2,0,0,0-.08.1-.08.12.02.05.07.08.1.11l.17-.24Z"/><path d="m19.22,56.27l.15.02c-.05-.01-.11-.02-.15-.02Z"/><path d="m101.57,6.74l.58.04-.09-.18c-.17.04-.34.07-.49.14Z"/><path d="m12.82,16.7l.46-.15c-.09-.08-.22-.09-.34-.11l-.12.26Z"/><path d="m33.04,8.47c-.4.04-.78.09-.54.42l.54-.42Z"/>
                  </g>
                </mask>
              </defs>
              <path class="mask" d="m112.87,12.41C82.87-2.36,45.49-1.02,16.63,15.88,9.15,20.26,1.51,27,1.78,35.67c.2,6.32,4.69,11.73,9.76,15.5,7.89,5.86,17.52,8.97,27.21,10.66,16.33,2.85,33.47,1.83,48.98-4.01,8.47-3.19,16.64-8,21.91-15.37,5.27-7.36,7.1-17.62,2.87-25.62-4.23-8-15.29-12.23-23.05-7.57"
                    mask="url(#path-mask)" stroke="black" stroke-width="2" fill="none"
                    stroke-dasharray="305.4839782714844" stroke-dashoffset="305.4839782714844">
              </path>
            </svg>
        