
            <svg xmlns="http://www.w3.org/2000/svg">
              <defs>
                <mask id="path-mask">
                  <g fill="white">
                    <path d="m121.56,85.35c5.63.4,2.07-.06,3.2-.08l4.04.37c3.3.34,7.17.68,10.31,1.03,6.45.81,18.61,1.2,23.8,1.17,3.56.17,5.81.18,7.32.13,4.73.25,11.79.31,15.44.55,1,.16,5.17.36,1.67.46-2.52.04-5.26.11-9.3-.14-3.34-.19-6.37-.28-8.27-.21l-3.14-.11c-3.9-.01-9.15-.77-12.2-.53-1.22-.07-3.47-.19-3.51-.19-3.09.22-10.27-.42-16.48-.9l-.09-.09c1.71.08,1.36.03-.56-.11-.31-.02-.63-.04-.98-.06l-.19-.14c1.06.07,2.61.19,2.6.13,0,0-.19-.03-.43-.05-.24-.02-.53-.05-.72-.06-1.79-.12-1.29-.04-1.48-.02-2.05-.13-4.11-.22-6.16-.38-.5-.04-1.01-.08-1.52-.12.77,0,5.81.33,1.37-.1-4.69-.46-6.29-.49-7.26-.46-.9.04-2.9-.11-6.04-.49-.29-.2-4.83-.58-7.96-.93l.16-.04c2.96.21.65-.04-1.89-.32-3.43-.48-3.77-.34-5.93-.58l-.44-.07.49.08c-.21.07,1.06.37-5.19-.4-3.89-.49-7.23-.87-6.57-.63l-3.86-.48-3.36-.65c2.1.28,3.03.36,3.21.32,2.53.26,2.74.23.29-.15-3.34-.45-4.44-.66-3.23-.59.57.03,1.36.07-.85-.23-.65-.08-1.67-.22-2.53-.33-.43-.05-.82-.1-1.1-.13-.28-.03-.45-.05-.45-.05.18.16-1.94-.06-4.54-.39-.65-.08-1.33-.17-2.01-.25-.68-.13-1.35-.25-2-.37-1.3-.25-2.49-.48-3.34-.64-.7-.12-1-.16-1.48-.23l-.62-.07c-7.78-1.81-15.8-4.23-22.65-6.41-1.74-.54-4.09-1.53-5.74-2.26-2.98-1.34-4.96-2.3-6.57-3.05-2.26-1.24-4.46-2.61-6.5-4.21-2.04-1.59-3.94-3.41-5.41-5.59l-.08-.29c-.07-.22-.43-.85-.87-1.84-.4-.99-.85-2.37-.87-3.97,0-1.23.11-1.64.1-1.77,0-.13-.07.02-.08-.08.39-2.19,1.62-4.11,3.04-5.75,1.47-1.61,3.18-2.99,4.99-4.19,3.61-2.45,7.62-4.31,11.75-6.04l-.34.11c.09-.07-.56.15,1.01-.5.43-.23.58-.34,2.64-1.12-.66.42,3.36-1.04,6.67-2.07,7.14-2.26,15.57-4.38,21.93-5.98,4.41-1.06,7.37-1.83,11.71-2.7,2.62-.54,1.14-.36,1.34-.47,8.38-1.8,16.83-3.29,25.28-4.73l-.02.13c-1.66.36-1.24.36-.41.3,1.44-.1-.7.33-5.22,1.1l-3.98.75c-2.38.44-5.24.97-6.27,1.27l4.37-.79c.56-.04,3.14-.47-.17.22-1.75.26-3.52.59-5.33,1.01-2.09.38-4.18.81-6.26,1.25-1.31.16-3.23.47-5.53.87-2.3.41-4.95.98-7.74,1.54-3.89,1-9.55,2.58-10.31,3.01-5.43,1.41-10.81,2.94-16.15,4.84-.15-.02.41-.32-.63,0-1.4.42,4.13-1.63-.92.13-3.49,1.25-2.75,1.14-2.36,1.06.19-.03.25.08-2.04.83-2.08.73-2.88,1.08-3.59,1.45-.71.37-1.35.7-3.06,1.53-.53.23-.94.34-1.62.71-1.95,1.02-1.89,1.09-2.38,1.44-3.05,1.82-6.01,3.9-8.09,6.8-1,1.45-1.8,3.11-1.94,4.91-.12.89,0,1.8.14,2.71.22.89.49,1.78.94,2.62.87,1.76,1.93,2.89,2.75,3.7.41.41.79.73,1.13.99.33.27.61.48.85.64,2.18,1.9,4.64,3.5,7.18,4.92,2.55,1.42,5.2,2.66,7.9,3.77,5.41,2.21,11.02,3.95,16.65,5.58-.04.03-.41-.03-.05.11,1.01.4-4.46-.97,1.39.71,5.19,1.42.76.03,1.53.14.22.05,1.95.48,2.99.73,2.41.58,4.87,1.15,7.37,1.7,2.51.54,5.01,1.12,7.6,1.42,5.15.73,10.36,1.45,15.46,2.09,2.98.38,7.83.79,10.18,1.26,1.34.25,6.42.93,11.89,1.55,5.46.63,11.31,1.19,14.16,1.4Zm-33.88-3.8l-1.12-.08c.5.07,1.09.15,1.49.2.38.04.57.04.85.06-.42-.06-.82-.12-1.22-.18Zm-56.76-13.18c-.2-.09-.48-.21-.73-.32.02.04.31.16.73.32Z"/><path d="m132.25,4c13.12-1.08,26.09-1.63,39.15-2.31,1.77.28,10.2-.36,15.66-.51,1.1.07.97.2,6.8-.12,3.53-.18,8.64-.31,13.19-.42,3.64-.03-7.55.62,5.77.15,1.95-.02,4.7-.11,4.98.01.14.06,2.04.12,3.77.08,1.78-.04,3.41-.14,4.04-.21,1.04-.12-2.38-.04-3.45-.06-2.1-.06-3.6-.1-5.35-.15,1.07-.11,5.87-.11,5.6-.25,2.94.14,13.26-.12,13.25.15,0,.13-4.17.27-5.95.46-1.84.18-9.79.27-16.1.36-2.84.03-5.55.06-8.38.09-2.73.07-6.09.04-8.08.21-2.13.18,5.4-.1,4.02.08-4.33.22-8.89.41-13.92.52-.39-.19-1.72-.32-9.24.21-5.6.41-12.68.48-18.07,1l-2.08.12-3.95.16c-6.64.14-13.77.56-21.49,1.34-4.59.18-9.79.5-16.44,1.3l-2.83.29c.34-.05.54-.1,1.03-.16,3.75-.46,6.24-.81,2.35-.56-1.02.06-3.81.3-3.32.32,1.13,0-11.19,1.48-2.12.66-2.43.31-6.01.69-5.94.83-1.41.15-2.81.36-4.22.53-.16-.06,3.2-.58.33-.28-2.29.24-4.75.59-6.6.95l-2.66.39c-5.46.79-5.81.77-6.61.74-.46,0-1.76.12-4.35.6-.96.18-2.47.5-2.77.58-.84.24,1.27-.13,2.93-.41,3-.48,1.81-.19.53.1-1.28.31-2.66.64-.06.21-1.27.39-4.61.97-7.73,1.61l-.07-.08c.04-.12,4.66-1.16-.29-.22-3.65.73-6.17,1.38-5.4,1.38l-4.75,1.1c-2.2.45-4.39.96-6.58,1.49-1.86.37-2.79.5-1.26-.03.7-.24.51-.25-1.57.28-2.5.65-2.87.84-3.23,1l-3.52.9-.14-.18c2.97-.81,6.11-1.7,9.04-2.43,1.47-.36,2.87-.71,4.16-1.03,1.3-.27,2.48-.5,3.5-.67,1.55-.25,3.75-.84,4.09-1.01.25-.13-.25-.11,2.29-.69,10.39-2.41,21.26-4.21,32.46-5.49,3.42-.29,8.68-.85,14.15-1.38,5.47-.55,11.16-1.1,15.42-1.57Zm69.95-2.95c-.72.03-1.43.07-2.14.1.61,0,1.16.02,1.83,0,.69-.03,1.51-.06,2.82-.12-1.15,0-1.84,0-2.51.01Z"/><path d="m484.96,57.98c4.53-2.35,6.52-3.62,8.63-5.18.53-.39.64-.43,1.01-.72.35-.3,1.04-.78,2.21-2.48.9-1.41.99-2.07,1.02-2.22,0-.15-.18.15-.35.4-.29.5-.61.69-.89,1,.99-1.63,1.49-3.56,1-5.38-.45-1.83-1.64-3.43-3.01-4.81.03-.06.31.13.11-.14-.21-.25-.85-1.05-3.06-2.64-3.4-2.31-5.13-3.09-4.9-3.19.22.06,1.4.66,2.25,1.12.84.47,1.39.75.4.08-.69-.48-2.35-1.46-3.49-2-3.83-1.8-1.35-.46-2.22-.79-.49-.17-.86-.3-1.58-.56-1.4-.56-5.56-2.06-4.04-1.39,1.75.76,4.76,1.78,7.35,3.08l-.1.19c-5.12-2.47-10.46-4.3-15.78-5.89-5.34-1.56-10.7-2.87-16.04-4.05.9.07,1.66.08,3.32.38,1.67.3,4.27.83,8.8,2.12,1.5.43,3.92,1.09,4.56,1.19.68.09-1.18-.48-3.25-1.06-.64-.31-1.28-.59-1.67-.83,1.02.23,2.03.5,3.04.75-.8-.25-1.6-.52-2.41-.76,7.27,1.76,13.97,4.03,19.85,7.09,1.49.9,4.41,2.57,7.26,4.56,1.35.97,2.92,2.28,4.19,4.09.62.91,1.16,1.94,1.45,3.08.28,1.14.31,2.37.02,3.5-.53,2.29-1.94,4.08-3.23,5.42-1.3,1.37-2.57,2.33-3.4,3.09-5.43,3.6-11.7,6.28-17.9,8.48.17-.33-4.6,1.31-8.61,2.56-3.58,1.14-5.74,1.68-8.47,2.33.89-.45,7.34-2.04,9.82-2.99.94-.34,4.22-1.13,5.55-1.79.83-.39-2.31.59-4.28,1.12-2,.53-3.55.99-6.28,1.85-3.43,1.08-7.47,2.19-10.66,2.7-1.91.31-5.28,1.19-7.27,1.67-3.47.85-.63.3,1.42-.08,3.24-.61,6.43-1.26,5.87-.93l-2.03.55c-3.66.56-10.61,2.16-16.57,3.22-2.31.44-7.63,1.43-6.11.88.37-.13-6.84,1.21-7.03,1.32-.41.23-2.35.52-4.98.92l-1.93.3c-3.6.64-7.89,1.33-6.44.83,1.8-.42,1.73-.41-1.35-.03-1.36.17-3.16.37-3.46.37-1.05-.02,4.41-.73,5.27-.96,2.76-.39,5.57-.91,8.3-1.33,2.73-.42,5.35-.81,7.7-1.09,1.21-.13,4.69-.84,4.46-.82-.98.06,6.59-1.29,1.23-.49.21-.12.8-.21,2.99-.61,7.15-1.27,14.33-2.64,21.48-4.53,1.15.33,9.1-2.17,13.69-3.58,5.32-1.65,9.16-3.17,14.59-5.42-.59.36-1.86.96-1.83,1.02.01.03.34-.09,1.24-.45.89-.38,2.34-1,4.53-2.11Zm12.45-16.46c.2.32.36.67.51,1.02-.16-.48-.39-1.02-.6-1.38-.18-.33-.32-.47-.49-.71.22.36.41.71.57,1.07Z"/><path d="m310.45,84.34c3.5-.36,7.37-.75,11.18-1.14,3.81-.39,7.55-.79,10.75-1.26,5.7-.42,14.38-1.67,21.12-2.5,1.92-.24,2.65-.35,4.02-.56,4.19-.65,5.18-1.19.54-.62-4.89.6-6.43.74-7.69.78-1.3.04-3.72.22-8.35,1-.51.09-2.43.35-3.25.43-4.01.45-7.94.89-11.86,1.33-3.92.42-7.83.84-11.79,1.26-18.22,1.78-36.49,3.17-54.78,4.1l.05.12c1.54-.08,2.8-.15,3.15-.11,2.72-.17,5.96-.38,8.21-.52,5.41-.28,12.05-.93,16.33-1.03,1.28-.02,6.57-.4,12.02-.79,5.44-.39,11.03-.93,12.92-1.13.63-.07,1.28-.16,1.18-.17-.92-.07,2.59-.32,4.19-.47,1.92-.14,3.1-.22,4.76-.34.95-.07,3.9-.42,3.62-.34-.17.05-1.87.27-4.16.52-4.78.56-11.55,1.16-12.16,1.42Z"/><path d="m285.06,88.57c4.78-.23,10.46-.45,13.6-.81-1.38.04-3.15.07-4.09.13-3.69.24-7.17.44-9.87.37-2.23-.06.89-.27,3.14-.47,3.98-.34,7.04-.4,10.29-.43,2.02-.02,5.4-.14,7.05-.29,5.63-.52,8.14-.45,11.5-.53,2.15-.12,4.86-.32,5.42-.24.11.02-.87.13-1.26.16-2.82.17-2.91.07-4.14.08l-6.01.72c3.98.1,9.14-.41,13.98-.78-.13-.1.18-.21,3.69-.45-.06-.07.25-.17-.26-.2-1.56-.1,4.25-.48,5.97-.7.47-.06,1.67-.17,2.03-.14.74.06-1.21.25-3.38.47-1.23.12-.3.2-.34.29,1.92-.24,7.4-.46,7.94-.71-.71.03-2.65.15-.76-.04l.7.05c2.79-.18,1.1.15,4.57-.13,1.22-.1,2.2-.33,3.29-.5-.05-.06.37-.15,2.02-.31-.09-.02-.19-.03-.31-.04l-1.83.14c-3.05.12-12.61.76.36-.38.85-.07,1.23-.2,1.83-.3-5.59.45-11.43,1.04-16.51,1.16-.62.03-8.11.73-13.13,1.03-1.38.17-3.08.31-6.09.48-8.82.53-18.06.8-26.49,1.36-3.4-.08-9.47.42-13.06.41-3.51,0-6.33.07-10.68.3-5.91.33-8.49.29-8.63.06l-9.75.27c.45.14-2.23.29-4.18.43,4.47.09,9.11.16-.34.56-1.21.05-.42.09.8.1,3.81-.22,9.4-.17,12.62-.37,7.41-.49,5.94-.17,6.94-.06l2.06-.07c.19-.09,1.31-.17,3.66-.24.27-.11,1.85-.2,4.14-.29l-.18-.11c2.27-.07,1.9,0,1.9.06,4.43-.03,11.12-.26,11.83-.03Z"/><path d="m199.7,89.15c2.53,0,4.32-.04,5.66-.1,2.81-.12,6.25-.24,1.02-.39-8.23-.23-8.59.12-12.86.1l-7.84-.24c-3.66-.24-10.71-.3-15.44-.55l-.09-.16c4.54.15,9.8.21,13.2.37,4.28.24,8.73.27,13.74.32,19.72.01,39.54-.33,59.37-1.18.35.06.33.12-2.14.27l-3.81.16-1.97.03c-.6,0-1.19.02-1.79.08-12.53.43-14.28.53-9.51.65.15,0,.19.01.28.02,5.54-.24,9.05-.25,12.52-.33,3.48-.07,6.93-.09,12.34-.42,4.5-.3,10.48-.65,11.7-.52-2.95.17-6.27.54-7.25.5-1.88-.08-4.97.23-7.98.35-10.76.5-21.27.86-32.34,1.11-15.76.42-32.04.17-48.18-.17-3.21-.1-8.32-.22-8.56-.42,1.89-.07,4.93.02,8.27.21,4.04.25,6.78.18,9.3.14,4.15.11,8.31.3,12.35.16Zm19.75-.5c.08.07,1.22.16,4.44.08,3.11-.08,7.67-.23,7.84-.33.34-.14-3.7.09-5.16.06-2.83.06-7.36,0-7.12.19Zm9.23.4c2.04-.01,5.66-.16,5.8-.26.08-.06-1.25-.08-3.41-.02-2.33.06-4.59.12-7.59.2,2.22.04,3.6.1,5.21.08Zm-11.99-.25h-1.19s.15.03.15.03c.89-.01.93-.02,1.04-.03Z"/><path d="m28.09,23.85c-4.61,1.71-8.22,3.02-13.23,5.44-3.6,1.79-7.65,4.09-10.93,7.62-1.64,1.74-2.98,3.91-3.6,6.33-.33,1.2-.37,2.47-.28,3.71.08.61.2,1.22.34,1.81.21.57.35,1.17.61,1.7.95,2.2,2.44,4.17,4.08,5.89,1.65,1.71,3.45,3.2,5.23,4.41l.15-.14c-.76-.68-2.74-2.37-.25-.53,1.85,1.34,3.25,2.18,4.35,2.81,1.1.62,1.91,1.02,2.64,1.37,1.48.68,2.64,1.21,5.49,2.52-3-1.47-5.61-2.87-7.87-4.19-.29-.17-.54-.32-.74-.44-.34-.12.78.79-2.26-1.2-2.37-1.6-3.89-2.98-4.11-3.33l-.33-.34.3.31c1.57,1.4,2.48,2,3.3,2.56.84.54,1.6,1.03,3.06,1.96.19.11.27.15.24.11-3.23-2.3-7.32-5.03-10-8.45-.85-1.06-1.71-2.18-2.28-3.46-.35-.62-.51-1.31-.75-1.97-.12-.69-.32-1.39-.3-2.1-.08-.71.06-1.42.14-2.13.07-.35.19-.69.28-1.04l.15-.52.22-.5c.52-1.35,1.38-2.56,2.34-3.66,1.17-1.29,2.05-2.03,3.5-3.36,2.24-2.06,6.15-4.27,10.06-5.99,2.75-1.34,3.5-1.69,3.34-1.73-.15-.04-1.18.3-1.9.52-.38.11-1.59.57.39-.33,1.69-.76,2.72-1.11,3.44-1.33l2.04-.79c-1.14.24,4.33-1.81,3.14-1.54Z"/><path d="m379.26,11.34c-3.85-.54-7.86-.99-13.19-1.41-6.67-.4-13.72-.98-21.23-1.75-1.43-.02-4.11-.19-6.51-.33l-3.99-.35c.47.1,1.2.28,1.38.3,7.3.48,12.18,1.15,19.21,1.7,5.11.44,9.78.86,11.15,1.23.04,0,.56.06.84.1.96.07,1.94.14,2.91.2-.83-.34,4.33.17,8.25.6,12.9,1.38,25.89,2.71,38.92,4.52,7.86,1.12,8.3,1.13,4.5.9-1.15-.07-1.91-.08-2.86-.11,7.49.92,16.13,2.33,22.18,3.07-1.4-.25-2.75-.5-4.21-.76-2.39-.39-5.86-.75-6.88-1.07-.42-.13,3.37.3,5.76.61,1.27.16,3.67.56,5.56.88,1.58.27,3.3.56,4.07.64,1,.1-.63-.26-2.26-.58-2.55-.51-3.21-.78-7.2-1.41-5.02-.95-10.57-1.83-17.23-2.62-7.63-.77-16.52-1.83-25.49-2.84.11.07-.29.11-1.92-.08-2.85-.32-1.02-.22-1.64-.34-3.8-.22-7.75-.34-10.12-1.09Z"/><path d="m250.51,87.76l-1.97.03-.89.04-.89.04c-12.53.43-14.28.53-9.51.65.15,0,.19.01.28.02,5.54-.24,9.05-.25,12.52-.33,3.48-.07,6.93-.09,12.34-.42,4.5-.3,10.48-.65,11.7-.52,3.26-.28,9.08-.67,11.52-.96-3.12.11-.07-.27,1.56-.38,4.79-.33,1.88.01,2.57.05.14,0,0,.04-.01.05,3.67-.15,9.9-.83,14.01-1.08,2.52-.29,4.75-.5,6.69-.61.63-.27,7.4-.87,12.18-1.42,2.29-.25,3.98-.47,4.16-.52.28-.09-2.67.26-3.62.34-1.66.12-2.84.21-4.76.34-1.6.15-5.11.39-4.19.47.1,0-.55.1-1.18.17-1.89.19-7.47.74-12.92,1.13-5.44.39-10.73.77-12.02.79-4.28.1-10.92.75-16.33,1.03-2.25.14-5.49.35-8.2.52-2.63.2-2.76.15-3.16.11l-.05-.12-3.88.16c.35.06.33.12-2.14.27-.48.05-.83.11-1.47.14-2.06.1-2.07.05-2.34.02Z"/><path d="m38.83,73.55l.09.12c1.44.67,2.59,1.21,4.46,1.91,4,1.52,11.62,3.32,17.95,4.17.79.1,1.19.12,2.16.27,3.59.56,3.87.37.33-.35q-1.47-.3-2.35-.3c-.41,0-.32.11-3.01-.41-.82-.16-1.72-.41-2.58-.65-5.04-1.12-4.66-1.26-5.76-1.65,5.74,1.26,11.65,2.38,17.63,3.44-2.51-.18,3.36.83,6.14,1.37l3.06.3c2.05.28,4.1.54,6.15.77.09.03.11.05.07.07-3.78-.23,2.01.74,1.8.96l-3.72-.48c-.06-.02,0-.03-.2-.06-2.62-.42-2.1-.61-5.32-1.03-4.75-.62.52.31-.4.31l-2.24-.16c-8.97-1.4-18.14-2.98-26.73-5.32-1.25-.31-2.49-.67-3.73-1.03l-.11-.18.8.19-1.04-.28c-.78-.23-1.55-.47-2.32-.72-1.18-.39-2.8-1.06-2.79-.93-1.24-.42-2.47-.86-3.7-1.32l.52.18.55.23c-1.24-.54-3.39-1.47-5.45-2.36-2.05-.92-3.98-1.87-4.78-2.39-.38-.25-2.5-1.21-4.99-2.47-2.5-1.26-5.34-2.87-7.27-4.13-.64-.41-1.06-.68-1.57-1.01-.76-.68-2.74-2.37-.25-.53,1.85,1.34,3.25,2.18,4.35,2.81,1.1.62,1.91,1.02,2.64,1.37,1.48.68,2.64,1.21,5.49,2.52,5.47,2.59,10.9,4.77,16.14,6.77Zm24.98,6.76c.16.07.58.18.9.28.26.03.72.09.73.07.02-.03-.26-.11-.46-.19-.57-.08-1.22-.18-1.17-.16Z"/><path d="m328.33,86.02c-3.51.24-3.82.35-3.69.45l3.29-.18,2.53-.19c3.16-.2,6.26-.4,9.41-.6,3.15-.24,6.34-.5,9.69-.82,2.73-.25,6.67-.64,9.94-.84,3.58-.21,10.33-.92,11.47-1.05,12.08-1.52,23.78-2.76,35.37-4.32,4.26-.55,6.91-1.12,10.39-1.64,17.73-2.8,35.45-6.19,52.64-11.62,1.84-.59,3.73-1.2,4.75-1.66.17-.33-4.6,1.31-8.61,2.56-3.58,1.14-5.74,1.68-8.47,2.33-1.24.43-3.7,1.03-5.83,1.54l-2.03.55c-3.66.56-10.61,2.16-16.57,3.22-2.31.44-7.63,1.43-6.11.88.37-.13-6.84,1.21-7.03,1.32-.41.23-2.35.52-4.98.92-.63.17-1.3.27-1.98.3-3.56.64-7.85,1.33-6.39.82-.97.13-1.95.27-2.93.4-3.05.54-6.19,1.09-10.47,1.47-3.51.62-6.91,1.29-11.48,1.41l-5.63.62c-1.2.32-4.98.63-8.03.94-4.46.46-3.69.25-4,.18-5.13.72-10.3,1.15-15.48,1.36-1.09.17-2.07.4-3.29.5-3.46.28-1.78-.04-4.57.13-.48.25-5.96.47-7.88.71l-4.01.28Z"/><path d="m118.15,87.17c2.76.34,5.8.68,9.93.85-2.34-.28-4.62-.61-1.84-.52,2.19.06,3.84.35,6.2.48,3.07.45,4.85.39,6.91.4,2.35.01,4.64.08,6.21.36,5.57.24,4.73,0,5.73-.09-.82-.19-5.32-.46-7.5-.7-3.7-.34-8.61-.66-13.3-.93-3.52-.18-6.56-.44-9.93-.74-3.45-.19.1.37-5.86-.13-4.41-.4-3.67-.5-4.35-.67l-3.92-.34c.27.13.79.28.72.38-.04.06-1.85-.07-3.54-.26-1.47-.15-2.57-.31-1.72-.27,1.25.06,4.69.35,1.07-.1-.91-.11-4.11-.31-6.25-.47-.68-.04-1.04-.03-2.42-.25l2.47.26c-1.45-.46-6.35-.93-11.47-1.51-.8.02.74.3,2.41.61,1.67.28,3.47.58,3.18.65,8.44.86,8.34.97,7.66,1.13,3.39.3,6.16.78,9.66,1.01-.48-.3,3.29-.14,9.14.39,8.11.69-2.64,0,.15.35.39.05.45.08.66.12Z"/><path d="m165.21,7.5l-3.19.27-6.16.6-2.27.22c.05.01.12.03.2.04,1.34-.11,2.01-.12.87.02-.16.02-.72.08-.9.09-1.75.13.09-.08.1-.12-3.22.31-5.59.57-7.08.82-2.36.38-5.43.73-7.9.98-2.46.24-4.32.36-4.25.31.45-.31-4.63.31-8.32.72-4.63.63-9.2,1.4-13.89,2.12-2.05.32-6,.93-4.86.87.94-.05,5.22-.78,6.31-.88,3.38-.36,8.54-1.42,10.47-1.37,2.57-.3,5.61-.68,6.01-.61,2.17-.28,4.47-.54,5.87-.62,2.38-.25,4.77-.51,7.15-.77,2.39-.22,4.77-.44,7.13-.66,9.35-.85,17.44-1.74,26.91-2.31v-.15c-2.33.16-4.75.36-5.97.35.14-.1.22-.19,3.77-.46l-1.69-.08-8.32.61Z"/><path d="m242.08,89.68c-1.21,0-2-.05-.8-.1,9.44-.4,4.8-.47.34-.56-1.21.03-2.43.06-3.64.1l.08.21.45.02-.43-.02c-3.31,0-10.49.29-9.94-.04-5.49.11-10.47-.09-16.58.17-.88.04-4.7-.02-4.9-.14h-5.79c-2.52.17-9.82.22-8.42.49.07.01-1.26.02-1.93.04-4.29-.45-6.11.06-9.48-.06.02.02.01.05.01.07,9.9.51,12.26.14,15.75-.09l.76-.02h-.81c.99.03,2.4.05,3.57.07.59,0,1.11.02,1.49.02.38,0,.63.02.64.03.99.53,8.22.17,14.08.08,6.11-.1,13.14-.31,18.53-.19,2.66.01,2.26.21,6.88.09l.11-.15Z"/><path d="m50.79,17.56l-3.52.9c-8.56,2.35-8.49,2.17-7.67,1.66-2.83.75-2.65.84-4.01,1.28,1.3-.23.93.03-.73.66-1.65.63-4.59,1.64-8.37,3.02,1.8-.47,1.99-.37.16.46,1.97-.54,3.54-1.19,5.2-1.8-1.13.34-1.42.38.08-.13,2.07-.68,1.75-.49,1.97-.51,4.52-1.21,11.12-3.24,15.93-4.57,7.88-2.18,16.53-4.24,24.1-5.91l-.07-.08-5.56,1.14c-1.72.5-3.3.83-4.88,1.13-2.2.45-4.39.96-6.58,1.49-.45.22-.83.4-4.34,1.32-2.37.64-3.74.95-4.88,1.19-2.67.57.89-.52,3.16-1.26Z"/><path d="m124.34,12.19c-1.93-.05-7.09,1.01-10.47,1.37-1.09.1-5.37.84-6.31.88-1.14.06,2.81-.55,4.86-.87,4.69-.72,9.26-1.49,13.89-2.12l-1.7.1-2.26.28c-3.12.52-6.67,1.05-10.32,1.56-3.64.57-7.39,1.15-10.9,1.7-1.66.36-1.24.36-.41.3,1.44-.1-.7.33-5.22,1.1l-.07.08c-.05.1-1.38.37-4.15.83-.57.11-1.12.22-1.65.32.56-.04,3.14-.47-.17.22l.17.03c11.04-1.97,22.12-3.59,33.29-5.18-1.81.1-5.13.38,1.44-.59Z"/><path d="m285.19,4.85c-2.33-.07-2.1-.35-6.25-.26-3.1.08-6.03-.2-9.12-.22-.88.24-5.06.12-9.47-.03-3.73-.15-6.81-.12-9.62-.03-2.92.09-4.2.19-1.12.33,4.14.01,7.95.14,12.4.16,13.85.04,15.37.12,26.46.68.27.01.79.03.86.04,2.83-.02,6.39.15,9.96.33,3.57.19,7.16.42,10.04.44-.54-.15-.6-.29-4.5-.55-.14.09-1.06.05-3.72-.09-5.63-.28-10.9-.54-15.93-.79Z"/><path d="m124.34,12.19c-6.57.97-3.24.69-1.44.59,4.35-.45,7.26-.75,13.46-1.62,4.47-.66,13.45-1.44,20.65-2.09,9.67-.89,19.84-1.65,29.64-2.13,4.3-.2,7.15-.34,6.66-.51-.47-.15-3.94-.01-7.83.27-2.69.17-5.39.34-8.08.5-9.48.56-17.56,1.45-26.91,2.31-2.36.22-4.74.44-7.13.66-2.38.26-4.77.51-7.15.77-1.15.16-2.43.36-3.41.47-2.17.26-2.38.21-2.46.16-.41-.07-3.44.31-6.01.61Z"/><path d="m196.81,89.76c-3.49.23-5.85.61-15.75.09-2.65-.01-5.29-.03-7.93-.04-2.11.02-4.3.01-3.76.14,3.71.27,8.57.24,12.64.28,15.54.2,31.08.19,46.72-.17,4.17-.1,4.76-.19,6.36-.3-5.39-.13-12.43.09-18.53.19-5.86.1-13.09.46-14.08-.08-.02,0-.26-.02-.64-.03-.38,0-.91-.01-1.49-.02-1.16-.02-2.56-.04-3.53-.05Z"/><path d="m418.64,16.92c.94.03,1.71.04,2.86.11,3.8.23,3.36.22-4.5-.9-13.04-1.81-26.02-3.14-38.92-4.52-3.92-.43-9.08-.93-8.25-.6,7.3.97,15.31,1.76,24.11,2.61,5.68.54,10,1.13,8.88,1.28,5.72.54,10.42,1.34,15.83,2.02Z"/><path d="m309.34,6.29c-2.89-.02-6.47-.24-10.04-.44-3.57-.18-7.13-.35-9.96-.33-.07,0-.6-.03-.86-.04-11.09-.57-12.61-.65-26.46-.68-4.45-.01-8.25-.14-12.4-.16,1.76.25,3.68.43,10.49.65l5-.08c1.85-.14,4.68-.04,8.69.07,4.89.12,10.8.32,15.03.46,4.27.19,8.3.29,12.28.43,3.98.17,7.91.31,11.97.62l-2.14-.42c-.54-.03-1.08-.06-1.6-.09Z"/><path d="m209.45,5.64c2.55-.3,4.62-.6-5.62-.22-3.3.12-1.23-.05-.98-.12,2.52-.16,5.17-.28,7.65-.36,2.47-.06,4.77-.08,6.57-.08,9.15-.03,11.22-.19,13.19-.5l1.88-.05c6.02.06,15.9.07,6.52.5-1.69.08-1.65.2-2.41.3-5.18.03-10.37.16-15.53.25-3.35.09-5.86.16-6.2.31-1.92.05-3.85.08-5.77.16.22-.06.13-.12.72-.19Zm16.5-.62c.2,0,.54,0,1.04-.03-.28,0-.57,0-1.04.03Z"/><path d="m222.4.22c2.94.14,13.26-.12,13.25.15,0,.13-4.17.27-5.95.46-1.84.18-9.79.27-16.1.36-2.84.03-5.55.06-8.38.09-2.73.07-6.09.04-8.08.21-2.13.18,5.4-.1,4.02.08,9.28-.04,20.83-.47,30.45-.31,3.04.06,2.36-.13,4.8-.16,2.36-.08-8.23-.17.46-.24,2.92-.2,10.57-.25,9.41-.51-1.8-.04-4.15-.05-5.31-.1-2.91-.11-2.85-.44-10.26-.15-.07,0-2.68-.05-4.33-.08-4.84-.03-9.43.06-13.5.24,1.39.24,6.77-.11,9.51-.05Z"/><path d="m248.29,1.11c2.41.04,4.15.08,5.39.17,3.13.21,9.05.4,13.7.41,4.15.02,7.9-.02,8.37-.18.87-.27-4.33-.61-15.95-.81-2.84-.03-6.37-.2-9.58-.28-3.52.1-2.17.27,1.64.41,3.85.16,7.39.14,10.14.09,1.01-.02,5.65.03,5.24.15-.35.1,2.32.27.62.33-1.04.04-1.55.11-4.7.05-3.26-.07-4.69-.15-5.06-.24-.39-.09-.88-.17-4.51-.22-3.52-.04-5.32,0-5.3.11Z"/><path d="m313.08,6.8c-4.06-.31-7.99-.46-11.97-.62-3.98-.14-8.02-.24-12.28-.43-4.23-.14-10.14-.35-15.03-.46-4.01-.11-6.84-.2-8.69-.07,3.43.22,7.71.38,12.19.47,4.48.13,9.16.22,13.39.39,12.63.48,25.55,1.03,37.82,2.07l1.02-.03c-1.82-.23-8.22-.78,1.56-.18,3.2.2,5.01.2-.49-.21-5.81-.34-10.07-.31-17.52-.93Z"/><path d="m255.55,88.32c.14.24,2.72.27,8.63-.06,4.35-.23,7.17-.31,10.68-.3,3.59.01,9.66-.49,13.06-.41,8.43-.56,17.67-.83,26.49-1.36,3.02-.17,4.72-.31,6.09-.48-8.13.31-16.91.75-26.37,1.22-6.03.28-12.16.57-18.75.7-5.74.14-13.16.47-19.83.69Z"/><path d="m105.16,7.6c-1.41.15-2.81.36-4.22.53-2.09.22-4.19.41-6.27.67-.88.13-1.77.26-2.66.39-2.88.45-5.74,1.02-8.61,1.54,5.12-.57,15.25-2.19,22.58-3.03,14.55-1.71,29.31-2.89,44.02-3.82l3.93-.3c-6.64.14-13.77.56-21.49,1.34-6.25.55-12.85,1.25-16.43,1.3-.94.1-1.89.19-2.83.29-.67.08-1.34.15-2.01.23.03.05.12.06.2.07.2,0,.41,0,.62-.01l-1.4.13-5.42.67Z"/><path d="m54.27,25.61c-5.42,1.41-10.81,2.94-16.15,4.84-4.23,1.46-8.22,3.05-11.26,4.35-2.71,1.31-4.04,2.03-5.34,2.8-3.05,1.82-6.01,3.9-8.09,6.8-1,1.45-1.8,3.11-1.94,4.91-.12.89,0,1.8.14,2.71.22.89.49,1.78.94,2.62.87,1.76,1.93,2.89,2.75,3.7.41.41.79.73,1.13.99.33.27.61.48.85.64-2-1.75-3.79-3.79-4.83-6.19-.52-1.19-.81-2.48-.79-3.76.02-1.28.35-2.56.92-3.72,1.14-2.34,3.06-4.26,5.18-5.86,2.12-1.61,4.44-2.97,6.82-4.21,4.8-2.41,9.83-4.37,14.95-6.09,5.11-1.72,10.3-3.24,15.52-4.63l-.8.1Z"/><path d="m202.84,5.3c2.52-.16,5.17-.28,7.65-.36,2.47-.06,4.77-.08,6.57-.08,9.15-.03,11.22-.19,13.19-.5-15.05.15-30.12.57-45.12,1.66-3.63.28-5.9.26-8.85.47-4.06.33-10.32.7-11.06,1.01l8.32-.61c4.55-.34,9.12-.55,13.67-.82,5.21-.27,10.42-.58,15.64-.77Z"/><path d="m97.42,83.1c-.21.07,1.06.37-5.19-.4-3.89-.49-7.23-.87-6.57-.63,16,2.11,32.06,3.87,48.79,4.84l-.09-.09-.56-.11c-.31-.02-.63-.04-.98-.06-2.8-.15-5.58-.3-6.38-.52-.5-.04-1.01-.08-1.53-.12l-5.89-.56c-.9.04-2.9-.11-6.04-.49-3.47-.34-7.08-.56-10.21-1.02-1.04-.15.54-.05,2.25.09l.16-.04-1.89-.32c-3.43-.48-3.77-.34-5.88-.58Z"/><path d="m232.12,4.31c6.02.06,15.9.07,6.52.5-1.69.08-1.65.2-2.41.3,2.87,0,1.91.09,2.09.15l3.84-.04c-1.19-.15,3.78-.24,3.91-.36l-2.57-.03c.19-.01.54-.03.56-.03.71.02,1.39.04,2.08.06,3.41.11,1.32.24,2.03.35,3.88.19,7.84.21,11.94.09-6.81-.22-8.73-.39-10.49-.65-3.09-.14-1.8-.24,1.11-.33,2.81-.09,5.89-.12,9.62.03,4.4.15,8.59.28,9.47.03-9.91-.24-20.03-.2-29.82-.26-3.86-.02-5.89.06-7.88.19Z"/><path d="m330.6,7.72c5.5.42,3.68.41.49.21-9.77-.6-3.37-.05-1.56.18,1.69-.03,4.73.28,7.08.44-.25-.11,1.55-.11,2.99.04,7.12.71,12.19.84,18.4,1.41,3.32.18,3.49.29,3.75.41,3.35.41,4.19.39,5.18.39-.29-.03-.81-.09-.85-.1-1.36-.37-6.03-.79-11.15-1.23-7.03-.56-11.91-1.23-19.21-1.7-.18-.01-.91-.19-1.38-.3l-7.62-.65-4.05-.35-.48.17c8.66.61,9.14.86,8.41,1.06Z"/><path d="m435.65,18.32c3.99.63,4.65.9,7.2,1.41,1.63.31,3.26.67,2.26.58-.77-.08-2.49-.37-4.07-.64-1.89-.31-4.28-.72-5.56-.88-2.4-.31-6.18-.74-5.76-.61,1.02.31,4.49.67,6.88,1.07,1.46.26,2.81.51,4.21.76,1.81.43,3.49.6,5.23.92,2.91.46,6.01,1.01,5.19.71-3.24-1.11,5.78.52,13.75,2.56-.94-.37-5.12-1.32-5.41-1.53-6.59-1.42-12.84-2.76-19.56-3.86-4.82-.77-3.79-.49-4.36-.48Z"/><path d="m358,10.01c-6.21-.57-11.28-.7-18.4-1.41-1.44-.14-3.24-.15-2.99-.04,12.45.92,24.84,1.97,37.26,3.16,6.23.6,12.76,1.32,18.92,2.07,3.73.41,6.75.75,10.02,1.11,1.12-.15-3.2-.74-8.88-1.28-8.81-.85-16.81-1.64-24.11-2.61-.97-.07-1.95-.14-2.91-.2-.98,0-1.82.02-5.17-.39l-3.75-.41Z"/><path d="m202.84,5.3c-5.22.19-10.42.5-15.64.77l-.15.15c2.13-.13,4.01-.18,3.68-.08-.32.11-2.49.2-4.43.33-.72.11-.76.19-.81.26,3.88-.28,7.36-.42,7.83-.27,4.99-.2,10.15-.41,15.41-.62.22-.06.13-.12.72-.19,2.55-.3,4.62-.6-5.62-.22-3.3.12-1.23-.05-.98-.12Z"/><path d="m173.12,89.81l7.94.04v-.07s-.42-.03-.42-.03l.41.03c3.38.12,5.19-.39,9.48.06.68-.01,2-.02,1.93-.04-1.41-.27,5.9-.32,8.42-.5-.42-.08-2.19-.07-3.76-.08-2.07.11-5.38.07-8.31.05-2.16-.06-3.51.23-4.67,0-1.22-.23-4.81-.14-6.82-.22-3.44.08-5.01-.04-6.17-.19-2.05-.07-4.48-.29-5.76-.12l-.88.09c2.4.11,3.59.27,6.97.34,2.3.09,1.42.16,1.62.24,10.5.34-1.4.23.01.38Z"/><path d="m128.8,85.64c3.3.34,7.17.68,10.31,1.03,6.45.81,18.61,1.2,23.8,1.17-4.83-.24-10.2-.5-6.8-.57-9.27-.45-18.51-1.19-27.31-1.63Z"/><path d="m173.11,89.42c10.5.34-1.4.23.01.38-2.11.02-4.3.01-3.76.14-5.99-.13-12.33-.12-17.74-.65-.26-.03-.35-.04-.25-.06,7.87.12,8.52-.23,8.11-.56l5.04.16c2.4.11,3.59.27,6.97.34-.22.07-.29.14,1.63.24Zm-6.28.09c1.26.07,2.47.04,2.06-.01-.8-.1,3.22-.16-2.82-.32-3.01-.04-2.76.01-.59.14.41.06.37.14,1.34.19Z"/><path d="m310.66,87.25c-1.83.09-3.36.04-5.44.27-4.61.5-5.05.28-6.56.24-1.38.04-3.15.07-4.09.13-3.69.24-7.17.44-9.87.37-2.23-.06.89-.27,3.14-.47,3.98-.34,7.04-.4,10.29-.43,2.02-.02,5.4-.14,7.05-.29,5.63-.52,8.14-.45,11.5-.53-1.99.24-4,.48-6,.72Zm-21.95.77s.69-.04.73-.05c.08-.02-.03-.04-.06-.06l-1.53.09c.27,0,.52,0,.86.01Z"/><path d="m59.79,77.83c-7.78-1.81-15.8-4.23-22.65-6.41-1.74-.54-4.09-1.53-5.74-2.26-2.98-1.34-4.96-2.3-6.57-3.05,2.94,1.69,6.36,3.26,9.97,4.61,3.61,1.35,7.38,2.53,11.05,3.62,4.75,1.4,9.38,2.67,14.05,3.8,2.34.57,4.67,1.09,7.08,1.59,2.42.36,4.85.7,7.32,1,1.44.18,3.2.42,3.86.45-1.99-.41-5.37-.91-9.32-1.4-.59-.08-1.15-.15-1.67-.21-.52-.09-1-.19-1.45-.28-.91-.18-1.68-.36-2.38-.52-1.4-.33-2.47-.63-3.53-.94Z"/><path d="m248.29,1.11c-.02-.11,1.78-.15,5.3-.11,3.63.05,4.11.13,4.51.22.37.09,1.8.17,5.06.24,3.14.06,3.66-.01,4.7-.05,1.7-.06-.98-.23-.62-.33.4-.12-4.24-.16-5.24-.15-2.75.05-6.29.07-10.14-.09-3.81-.14-5.16-.31-1.64-.41-1.3-.06-2.61-.1-3.92-.05,1.15.26-6.5.31-9.42.51,2.07.05,3.97.13,4.1.22l7.32.02Z"/><path d="m348.08,84.41c5.18-.22,10.34-.65,15.48-1.36,3-.54,12.3-1.39,13.92-1.9l-.72-.17c-3.39.32-6.47.61-9.25,1-.44.09.84.03-1.22.26l-.64-.07c-.57.04-1.19.1-1.85.17-8,.78-6.35,1.05-13.71,1.75-1.66.16-2.07.25-2.02.31Z"/><path d="m124.61,11.54l1.7-.1c3.68-.41,8.77-1.03,8.31-.72-.07.05,1.78-.07,4.25-.31,2.46-.24,5.54-.6,7.9-.98,1.49-.25,3.86-.52,7.08-.82-.15,0-.21-.02-.26-.03l.13-.21c-9.61.85-19.13,1.69-29.11,3.17Z"/><path d="m34.2,30.9c-.66.42,3.36-1.04,6.67-2.07,7.14-2.26,15.57-4.38,21.93-5.98,4.41-1.06,7.37-1.83,11.71-2.7,2.62-.54,1.14-.36,1.34-.47-9.24,1.9-18.2,3.86-27.72,6.7-4.11,1.23-9.33,2.79-13.94,4.52Z"/><path d="m237.98,89.12c1.22-.03,2.43-.06,3.64-.1,1.95-.14,4.62-.3,4.18-.43-9.82.13-20.33.51-30.28.39-4.01-.05-5.24.25-8.86.34.19.12,4.02.18,4.9.14,6.11-.26,11.09-.06,16.58-.17,3.54-.49,6.52-.05,9.84-.17Z"/><path d="m403.18,78.41c.98-.13,1.96-.27,2.93-.4,1.79-.42,1.73-.41-1.36-.03-1.36.17-3.16.37-3.46.37-1.05-.02,4.41-.73,5.27-.96l-4.12.42c-2.14.28-4.28.58-6.42.83-4.33.62-8.65,1.31-12.99,1.88,4.46-.37,6.64-.62,6.39-.5-.25.11-2.92.56-8.2,1.28,4.57-.12,7.97-.79,11.48-1.41,3.46-.46,5.1-1.08,10.47-1.47Z"/><path d="m464.98,24.18c-7.97-2.05-16.99-3.67-13.75-2.56.83.3-2.27-.25-5.19-.71.86.41,4.99.97,7.42,1.52.9.07,1.66.08,3.32.38,1.67.3,4.27.83,8.8,2.12,1.5.43,3.92,1.09,4.56,1.19.68.09-1.18-.48-3.15-1.03l-.86-.22.76.19c-.64-.31-1.28-.59-1.93-.89Z"/><path d="m151.63,89.3c-.26-.03-.35-.04-.25-.06-.86-.13-6.97-.37-5.82-.5-1.57-.28-3.86-.35-6.21-.36-2.06,0-3.84.05-6.91-.4-2.36-.12-4.01-.42-6.2-.48-2.78-.09-.5.24,1.84.52,7.96.62,16.41,1.28,23.55,1.28Z"/><path d="m34.52,73c-1.24-.54-3.39-1.47-5.45-2.36-2.05-.92-3.98-1.87-4.78-2.39-.38-.25-2.5-1.21-4.99-2.47-2.5-1.26-5.34-2.87-7.27-4.13-.64-.41-1.06-.68-1.57-1.01l-.15.14c5.74,4.3,11.83,7.03,18.22,9.88,1.59.67,3.19,1.31,4.8,1.93.63.24,1.03.38,1.21.42Z"/><path d="m95.51,82.4c1.34.25,6.42.93,11.89,1.55,5.46.63,11.31,1.19,14.16,1.4,5.63.4,2.07-.06,3.2-.08-3.58-.27-7.18-.5-10.56-.94-.73-.08-3.22-.34-3.38-.36-4.57-.22-10.3-1.02-15.31-1.57Z"/><path d="m222.4.22c-2.74-.07-8.12.28-9.51.05-2.81-.07-5.59.06-8.38.18-4.64.3-12,.43-17.46.74,1.1.07.97.2,6.8-.12,3.53-.18,8.64-.31,13.05-.42l2.43-.14.77.02-3.06.11c3.64-.03-7.55.62,5.77.15.47-.11-1.29-.22,3.98-.33,1.07-.11,5.87-.11,5.6-.25Z"/><path d="m30.56,32.52c.09-.07-.56.15,1.01-.5-2.79,1.1-5.57,2.34-8.28,3.74-2.7,1.41-5.32,3.01-7.62,5.01-2.27,1.97-4.24,4.53-4.81,7.51-.28,1.47-.18,2.99.22,4.36.4,1.37,1.07,2.6,1.83,3.68l-.08-.29c-1.46-2.2-2.27-4.98-1.72-7.65.39-2.19,1.62-4.11,3.03-5.74,1.46-1.61,3.16-2.98,4.96-4.17,3.57-2.43,7.49-4.26,11.45-5.95Z"/><path d="m187.06,1.19c5.45-.32,12.81-.45,17.46-.74-.64-.19-4.96.08-7.19.14-8.53.19-17.33.6-25.92,1.11,1.77.28,10.2-.36,15.66-.51Z"/><path d="m47.13,18.28c2.97-.81,6.11-1.7,9.04-2.43,1.47-.36,2.87-.71,4.16-1.03,1.3-.27,2.48-.5,3.5-.67,1.55-.25,3.75-.84,4.09-1.01.25-.13-.25-.11,2.29-.69.39-.19-.68,0-2.18.3-1.5.31-3.41.79-4.75,1.09-6.01,1.38-12.04,3.04-18.01,4.7.51-.05-.97.47,1.86-.25Z"/><path d="m17.63,29.06c-3.91,1.72-7.81,3.92-10.06,5.99-1.45,1.33-2.33,2.07-3.5,3.36-.96,1.1-1.82,2.3-2.34,3.66l-.22.5-.15.52c-.09.35-.21.69-.28,1.04-.08.71-.21,1.42-.14,2.13-.02.72.17,1.41.3,2.1.24.67.4,1.36.75,1.97.57,1.29,1.43,2.4,2.28,3.46-1.59-2.18-3.11-4.98-3.04-8.11.05-1.55.5-3.09,1.21-4.55.75-1.44,1.77-2.75,2.93-3.92,3.47-3.44,7.83-5.88,12.27-7.99l-.02-.16Z"/><path d="m481.01,59.51c-.59.36-1.86.96-1.83,1.02.01.03.34-.09,1.24-.45.89-.38,2.34-1,4.53-2.11,4.53-2.35,6.52-3.62,8.63-5.18.53-.39.64-.43,1.01-.72.35-.3,1.04-.78,2.21-2.48.9-1.41.99-2.07,1.02-2.22,0-.15-.18.15-.35.4-.29.5-.61.69-.89,1-1.66,2.64-4.29,4.62-6.97,6.33-2.73,1.69-5.63,3.11-8.59,4.39Z"/><path d="m98.54,85.31c.67-.16.77-.27-7.66-1.13-1.97-.18-3.94-.37-5.91-.58l-3.72-.48c-1.59-.12-3.79-.48-5.92-.78l-2.24-.16c-.2.12,2.41.45,4.47.73,6.99.94,13.98,1.72,20.98,2.4Z"/><path d="m402.44,77.81l4.12-.42c2.76-.39,5.57-.91,8.3-1.33,2.73-.42,5.35-.81,7.7-1.09,1.21-.13,4.69-.84,4.46-.82-.98.06,6.59-1.29,1.23-.49-4.27.74-8.74,1.51-13.15,2.13-2.2.34-4.38.68-6.5,1.01-2.13.33-4.2.65-6.17,1.01Z"/><path d="m96.71,84.42c2.15.16,5.35.36,6.25.47,3.62.45.18.16-1.07.1-.85-.04.25.12,1.72.27,1.69.18,3.5.32,3.54.26.07-.1-.45-.25-.72-.38-7.05-.9-15.1-1.69-23.06-2.72l-.27.15c.09.03.11.05.06.07l2.12.28c5.13.58,10.02,1.05,11.42,1.5Z"/><path d="m350.11,84.09c7.36-.71,5.7-.98,13.71-1.75-4.11.19-8.29.42-13.66,1.17-.6.1-.99.22-1.83.3-12.96,1.14-3.4.5-.36.38.31-.08-.04-.12,2.28-.3l-.45.16c.12.01.22.03.31.04Z"/><path d="m485.72,31.32c1.49.9,4.41,2.57,7.26,4.56,1.35.97,2.92,2.28,4.19,4.09.62.91,1.16,1.94,1.45,3.08.28,1.14.31,2.37.02,3.5-.53,2.29-1.94,4.08-3.23,5.42-1.3,1.37-2.57,2.33-3.4,3.09,1.1-.8,2.19-1.61,3.17-2.58,1-.94,1.9-2.01,2.61-3.23.72-1.2,1.22-2.61,1.27-4.07.05-1.46-.35-2.91-1.02-4.14-1.34-2.49-3.42-4.3-5.54-5.83-2.15-1.53-4.44-2.78-6.77-3.89Z"/><path d="m326.72,6.84l7.62.65,3.99.35c0-.18,3.3.07,6.51.33,7.51.77,14.57,1.35,21.23,1.75-.63-.14-2.67-.39-4.05-.5-11.4-.86-24.19-2.14-35.3-2.59Z"/><path d="m187.25,2.1c-.39-.19-1.72-.32-9.24.21-5.6.41-12.68.48-18.07,1,8.16-.14,18.02-.84,27.31-1.21Z"/><path d="m77.86,20.19c-1.31.16-3.23.47-5.53.87-2.3.41-4.95.98-7.74,1.54,1.15-.03-1.7.75-5.43,1.86,3.88-.87,7.35-1.7,10.91-2.58,1.89-.63,5.06-1.13,7.79-1.69Z"/><path d="m102.67,6.95c3.42-.29,8.68-.85,14.15-1.38,5.47-.55,11.16-1.1,15.42-1.57-8.45.51-16.93,1.4-25.37,2.39-.2.17-2.27.33-4.21.56Z"/><path d="m271.51,88.65c-2.29.09-3.87.18-3.81.27l2.52-.03.56.06-1.87.04-1.54-.04c-2.35.07-3.47.15-3.66.24,7.18-.18,13.42-.15,21.36-.61-.71-.23-7.39,0-11.83.03-.57.02-1.15.04-1.73.05Z"/><path d="m392.94,12.85c8.96,1.01,17.85,2.07,25.49,2.84-2.99-.52-5.8-.93-10.3-1.35-5.71-.51-12.75-1.5-19.05-2.11l.34.2c1.15.14,2.34.28,3.52.42Z"/><path d="m26.5,25.09c3.78-1.38,6.72-2.39,8.37-3.02,1.65-.63,2.03-.89.73-.66-2.51.77-5.02,1.58-7.51,2.45,1.18-.27-4.28,1.78-3.15,1.54,2.18-.73,1.31-.3,1.56-.3Z"/><path d="m383.03,80.52c4.34-.56,8.66-1.25,12.99-1.88-3.29.35-6.57.71-9.79,1.1-3.23.37-6.4.76-9.46,1.23l.72.17,5.55-.63Z"/><path d="m159.48,88.69l5.04.16.88-.09c-7.34-.26-14.8-.65-21.61-.81,2.18.24,6.68.51,7.5.7,1.41.03,2.61.06,3.81.09.31-.09.51-.18,4.38-.05Z"/><path d="m17.63,29.06l.02.16c2.94-1.36,5.96-2.57,9.01-3.67,1.82-.83,1.64-.93-.16-.46-4.48,1.64-3.46,1.17-3.59,1.09-.72.23-1.75.58-3.44,1.33-1.98.89-.76.44-.39.33.72-.22,1.75-.56,1.9-.52.15.04-.6.4-3.34,1.73Z"/><path d="m242.08,89.68l-.11.15c6.68-.14,14.01-.09,19.67-.59-1-.11.47-.43-6.94.06-3.22.2-8.81.15-12.62.37Z"/><path d="m322.18,6.66l.48-.17c-3.79-.29-7.41-.5-10.95-.67-3.55-.13-7.02-.27-10.54-.4l3.66.32c3.9.26,3.95.39,4.5.55.53.03,1.06.06,1.6.09.03-.28,1.22-.43,11.24.29Z"/><path d="m236.23,5.1c-5.18.03-10.37.16-15.53.25-3.35.09-5.86.16-6.2.31,6.91-.03,14.59-.34,21.78-.35.01-.07.03-.14-.05-.21Z"/><path d="m304.84,5.74l-3.66-.32c-5.6-.32-11.4-.75-15.99-.56,5.03.25,10.3.51,15.93.79,2.66.14,3.58.18,3.72.09Z"/><path d="m118.15,87.17c-.21-.04-.28-.07-.66-.12-2.79-.34,7.96.34-.15-.35-5.85-.53-9.62-.68-9.14-.39,3.43.34,7.06.83,9.95.85Z"/><path d="m59.79,77.83c1.06.31,2.13.6,3.53.94.7.16,1.48.34,2.38.52.45.09.94.19,1.45.28.52.07,1.08.14,1.67.21,3.95.49,7.33.99,9.32,1.4,1.38.17,3.14.41,3.66.42-1.12-.22-2.24-.43-3.37-.65-3.04-.43-6.05-.85-9.07-1.28l-2.26-.32-2.24-.46c-1.49-.32-2.98-.64-4.46-.99l-.62-.07Z"/><path d="m156.11,87.28c-3.41.07,1.97.32,6.8.57,3.57.17,5.82.18,7.33.14l-.08-.16c-2.3-.06-4.6-.12-6.92-.18-2.33-.12-4.69-.24-7.12-.36Z"/><path d="m101.12,15.08c3.51-.55,7.26-1.13,10.9-1.7,3.65-.51,7.2-1.04,10.32-1.56-3.54.41-7.08.91-10.62,1.43-3.53.57-7.06,1.13-10.59,1.7l-.02.13Z"/><path d="m452.74,68.52c1.15.33,9.1-2.17,13.69-3.58-.33-.03.97-.54-4.63,1.16-2.8.83-6.01,1.67-9.06,2.42Z"/><path d="m110.35,85.48c.68.17-.06.27,4.35.67,5.96.5,2.41-.06,5.86.13-4.74-.57-6.82-.52-10.21-.8Z"/><path d="m83.39,10.74c2.87-.52,5.72-1.09,8.61-1.54-5.45.79-5.8.77-6.6.73-.46,0-1.76.12-4.35.6-.96.18-2.47.5-2.77.58-.84.24,1.27-.13,2.93-.41,3-.48,1.81-.19.53.1-1.28.31-2.66.64-.06.21.54-.09,1.12-.19,1.72-.29Z"/><path d="m166.64,88.54c-3.9-.01-9.15-.77-12.2-.53,1.65.28,1.65.36,12.2.53Z"/><path d="m55.88,78.33c-5.04-1.12-4.66-1.26-5.76-1.65-3.92-.93-8.16-2.2-11.29-3.13l.09.12c2.7,1.02,7.63,2.27,8.06,2.5.93.57,4.98,1.42,8.9,2.16Z"/><path d="m67.75,80.12c-2.51-.18,3.36.83,6.14,1.37,1.02.1,2.04.2,3.06.3l2.43.06c-1.99-.31-3.88-.55-5.77-.79-1.89-.26-3.8-.56-5.86-.93Z"/><path d="m485.39,32.17l-.1.19c1.62.83,3.2,1.73,4.76,2.73,1.56,1.01,3.09,2.13,4.52,3.49.03-.06.31.13.11-.14-.21-.25-.85-1.05-3.06-2.64-3.4-2.31-5.13-3.09-4.9-3.19-1.64-.77-1.17-.44-1.34-.45Z"/><path d="m59.15,24.46c3.73-1.11,6.58-1.89,5.43-1.86-3.89,1-9.55,2.58-10.3,3.01l.79-.1,4.08-1.05Z"/><path d="m47.13,18.28c-2.83.72-1.36.2-1.86.25l-5.67,1.59c-.82.5-.89.69,7.67-1.66l-.14-.18Z"/><path d="m389.41,12.44l-.34-.2c-3.78-.43-7.04-.7-9.81-.9,2.37.76,6.31.87,10.15,1.1Z"/><path d="m49.04,74.23s-.41-.03-.05.11c1.01.4-4.46-.97,1.39.71,5.19,1.42.76.03,1.53.14.22.05,1.95.48,2.99.73-1.25-.4-2.37-.77-5.86-1.69Z"/><path d="m77.86,20.19c-2.73.57-5.9,1.07-7.79,1.69,1.39-.32,2.8-.59,4.21-.87,1.59-.34,2.95-.61,3.69-.72,2.59-.58,5.19-1.09,7.8-1.6l-1.65.24c-2.09.38-4.18.81-6.26,1.25Z"/><path d="m289.73,86.03s.15-.05.01-.05c-.69-.04,2.23-.38-2.57-.05-1.64.11-4.69.49-1.56.38l4.12-.28Z"/><path d="m246.07,4.85c-.13.12-5.1.21-3.91.36h6.01c-.72-.13,1.38-.26-2.1-.36Z"/><path d="m240.97,1.1c-.13-.09-2.03-.17-4.1-.22-8.69.07,1.9.16-.46.24.38.02.88.02,1.51.01h2.6c.54,0,.69-.01.44-.03Z"/><path d="m37.15,73.9c-1.24-.42-2.47-.86-3.7-1.32,1.56.78,6.06,2.43,8.92,3.31l.25-.07-.11-.18c-1.02-.31-1.79-.55-2.56-.8-.31-.01-1.58-.47-2.8-.94Z"/><path d="m459.57,22.65c.29.2,4.46,1.16,5.66,1.58,1.02.23,2.03.5,3.04.75-.8-.25-1.6-.52-2.41-.76-2-.57-4.09-1.1-6.29-1.58Z"/><path d="m79.38,81.85l-2.43-.06c2.05.28,4.1.54,6.15.77l.27-.15-3.99-.57Z"/><path d="m171.16,88.88c1.16.15,2.73.27,6.17.19-1.65-.11-2.31-.31-6.17-.19Z"/><path d="m155.86,8.37l6.16-.6c.27-.2-3.14.13-6.17.41v.19Z"/><path d="m188.81,89.28c2.93.02,6.24.06,8.31-.05-4.22-.15-6.48-.08-8.31.05Z"/><path d="m310.43,84.34c-1.93.11-4.17.32-6.69.61,2.15-.18,3.44-.1,6.69-.61Z"/><path d="m84.12,18.94l1.65-.24,3.85-.73-.17-.03c-1.75.26-3.53.59-5.33,1.01Z"/><path d="m14.27,62.24s-.05,0-.24-.11c.24.15.49.3.78.47.18.05.36.1.55.15l-1.09-.51Z"/><path d="m77.97,20.29c-.75.1-2.11.38-3.69.72-.02.11,1.24-.13,3.69-.72Z"/><path d="m33.91,23.11c-.22.02.1-.17-1.97.51-1.51.51-1.21.46-.08.13l2.05-.64Z"/><path d="m42.62,75.82l-.25.07c1.96.55,3.33.87,3.98.96-1.25-.31-2.49-.67-3.73-1.03Z"/><path d="m33.31,72.57c-1.61-.62-3.21-1.26-4.8-1.93,1.96.94,3.58,1.58,4.8,1.93Z"/><path d="m236.33,5.11l-.04.21c1.3,0,1.98-.02,2.04-.07-.18-.06.78-.14-2-.14Z"/><path d="m365.67,82.17l.64.07c2.05-.23.78-.17,1.22-.26-.63.05-1.24.11-1.85.19Z"/><path d="m102.68,6.95c1.94-.23,4.01-.39,4.21-.56-1.77.18-3.54.37-4.21.56Z"/><path d="m60.4,77.9c1.48.35,2.97.67,4.46.99l2.24.46,2.26.32c3.01.42,6.03.85,9.07,1.28,2.11.28,3.04.36,3.22.32l.29-.15c-3.34-.45-4.44-.66-3.23-.59.57.03,1.36.07-.85-.23-.65-.08-1.67-.22-2.53-.33-.43-.05-.82-.1-1.1-.13-.28-.03-.45-.05-.45-.05.18.16-1.94-.06-4.54-.39-.65-.08-1.33-.17-2.01-.25-.68-.13-1.35-.25-2-.37-1.3-.25-2.49-.48-3.34-.64-.7-.12-1-.16-1.48-.23Z"/><path d="m187.35,88.99c4.15.11,8.31.3,12.35.16-6.97-.06-1.27-.27-6.18-.39l-7.84-.24c1,.16,5.17.36,1.67.46Z"/><path d="m26.87,34.8c3.04-1.3,7.03-2.89,11.26-4.35-.15-.02.41-.32-.63,0-1.4.42,4.13-1.63-.92.13-3.49,1.25-2.75,1.14-2.36,1.06.19-.03.25.08-2.04.83-4.17,1.45-3.17,1.44-5.3,2.33Z"/><path d="m119.03,85.45l5.89.56c.77,0,5.81.33,1.37-.1-4.69-.46-6.29-.49-7.26-.46Z"/><path d="m105.03,84.04c-1.71-.14-3.29-.25-2.25-.09,3.13.46,6.75.67,10.21,1.02-.29-.2-4.83-.58-7.96-.93Z"/><path d="m11.11,48.38c-.55,2.67.26,5.45,1.72,7.65-.07-.22-.44-.85-.87-1.84-.4-.99-.85-2.37-.87-3.97,0-1.23.11-1.64.1-1.77,0-.13-.07.02-.08-.08Z"/><path d="m89.62,17.71c.53-.1,1.08-.21,1.65-.32l.2-.15c-2.34.44-5.2.96-6.23,1.26l4.37-.79Z"/><path d="m126.44,86.13c.8.22,3.58.37,6.38.52l-.19-.14c-2.09-.13-4.14-.23-6.19-.38Z"/><path d="m88.9,81.73c-.42-.06-.82-.12-1.22-.18l-1.12-.08c.5.07,1.09.15,1.49.2.38.04.57.04.85.06Z"/><path d="m21.53,37.6c.64-.4,1.31-.75,1.98-1.11.66-.37,1.33-.71,2.02-1.04-.53.23-.94.34-1.61.71-1.95,1.02-1.89,1.09-2.38,1.44Z"/><path d="m103.3,83.68l1.89.32c2.96.21.65-.04-1.89-.32Z"/><path d="m132.64,86.51c1.06.07,2.61.19,2.6.13,0,0-.19-.03-.43-.05-.24-.02-.53-.05-.72-.06-1.79-.12-1.29-.04-1.45-.02Z"/><path d="m81.95,81.12l-.29.15c2.52.26,2.74.23.29-.15Z"/><path d="m30.18,68.05s.31.16.56.27c-.03-.04-.31-.16-.56-.27Z"/><path d="m95.42,16.56l.07-.08-3.98.75c1.28-.22,2.59-.45,3.91-.67Z"/><path d="m97.37,83.1l-.44-.07c.16.03.33.05.44.07Z"/><path d="m133.8,86.71l.56.11c1.7.08,1.36.03-.56-.11Z"/><path d="m50.79,17.56c-2.28.73-5.84,1.82-3.16,1.26,1.14-.24,2.51-.55,4.88-1.19,3.52-.92,3.89-1.11,4.34-1.32-1.86.37-2.79.5-1.26-.03.7-.24.51-.25-1.57.28-2.5.65-2.87.84-3.23,1Z"/><path d="m216.8.47c-5.27.11-3.51.22-3.98.33,1.95-.02,4.7-.11,4.97.01.14.06,2.04.12,3.77.08,1.78-.04,3.41-.14,4.04-.21,1.04-.12-2.38-.04-3.45-.06-2.1-.06-3.6-.1-5.35-.15Z"/><path d="m116,6.23c3.59-.05,10.18-.75,16.43-1.3-4.59.18-9.79.5-16.43,1.3Z"/><path d="m111.15,6.74c.67-.08,1.34-.15,2.01-.23.34-.05.55-.1,1.03-.16,3.75-.46,6.24-.81,2.35-.56-1.02.06-3.81.3-3.32.32,1.13,0-11.19,1.48-2.08.62Z"/><path d="m68.32,13.68l5.56-1.14c.04-.12,4.66-1.16-.29-.22-3.65.73-6.17,1.38-5.27,1.35Z"/><path d="m94.67,8.81c2.09-.26,4.18-.46,6.27-.67-.16-.06,3.2-.58.32-.28-2.29.24-4.75.59-6.6.95Z"/><path d="m204.71,1.04c-1.15,0-1.84,0-2.51.01-.72.03-1.43.07-2.14.1.61,0,1.16.02,1.83,0,.69-.03,1.51-.06,2.82-.12Z"/><path d="m105.16,7.6l5.42-.67c.25-.04.51-.08.78-.12l-.26-.04c-2.43.31-6.01.69-5.94.83Z"/><path d="m63.44,14.82c1.59-.31,3.17-.63,4.75-1.1l-4.75,1.1Z"/><path d="m192.85,1.72c-.56,0-.84.02-1.11.04.2,0,.4,0,1.11-.04Z"/><path d="m451.2,69.99c2.13-.52,4.59-1.12,5.83-1.54.89-.45,7.34-2.04,9.82-2.99.94-.34,4.22-1.13,5.55-1.79.83-.39-2.31.59-4.28,1.12-2,.53-3.55.99-6.28,1.85-3.43,1.08-7.47,2.19-10.66,2.7-1.91.31-5.28,1.19-7.27,1.67-3.47.85-.63.3,1.42-.08,3.24-.61,6.43-1.26,5.87-.93Z"/><path d="m485.39,32.17c.17,0-.3-.32,1.34.45.22.06,1.4.66,2.25,1.12.84.47,1.39.75.4.08-.69-.48-2.35-1.46-3.49-2-3.83-1.8-1.35-.46-2.22-.79-.49-.17-.86-.3-1.58-.56-1.4-.56-5.56-2.06-4.04-1.39,1.75.76,4.76,1.78,7.35,3.08Z"/><path d="m496.83,40.45c.22.36.41.71.57,1.07.2.32.36.67.51,1.02-.16-.48-.39-1.02-.6-1.38-.18-.33-.32-.47-.49-.71Z"/><path d="m414.48,76.89l-1.93.3c.63-.1,1.3-.2,1.93-.3Z"/><path d="m260.39,87.29c.4.03.52.09,3.16-.11-.36-.03-1.62.04-3.16.11Z"/><path d="m328.33,86.02l4.01-.28c.04-.1-.89-.17.34-.29,2.17-.22,4.11-.4,3.38-.47-.36-.03-1.55.08-2.03.14-1.73.22-7.53.6-5.97.7.51.03.2.13.26.2Z"/><path d="m316.67,86.53c1.24-.01,1.32.09,4.14-.08.39-.02,1.38-.14,1.26-.16-.56-.09-3.27.11-5.41.23Z"/><path d="m271.51,88.65c.58-.02,1.16-.04,1.73-.05,0-.06.36-.13-1.91-.06l.18.11Z"/><path d="m349.79,84.05l.45-.16c-2.32.18-1.97.22-2.28.3l1.83-.14Z"/><path d="m340.23,85.04l-.7-.05c-1.89.19.05.07.7.05Z"/><path d="m193.52,88.76c4.9.12-.8.32,6.18.39,2.54,0,4.33-.04,5.66-.1,2.81-.12,6.25-.24,1.02-.39-8.23-.23-8.59.12-12.86.1Z"/><path d="m226.57,88.46c-2.83.06-7.36,0-7.12.19.08.07,1.22.16,4.44.08,3.11-.08,7.67-.23,7.84-.33.34-.14-3.7.09-5.16.06Z"/><path d="m223.48,88.97c2.22.04,3.6.1,5.21.08,2.04-.01,5.66-.16,5.8-.26.08-.06-1.25-.08-3.41-.02-2.33.06-4.59.12-7.59.2Z"/><path d="m250.51,87.76c.27.03.28.08,2.34-.02.64-.03.99-.1,1.47-.14l-3.81.16Z"/><path d="m215.67,88.84c.64-.03.24-.03-.15-.02l.15.02Z"/><path d="m246.76,87.87l.89-.04.89-.04c-.6,0-1.19.02-1.79.08Z"/><path d="m7.7,57.62c.23.36,1.74,1.73,4.11,3.33,3.04,1.99,1.93,1.07,2.26,1.2-1.48-.95-2.25-1.45-3.09-1.98-.82-.56-1.73-1.16-3.28-2.55Z"/><path d="m22.9,26.18c.14.08-.88.55,3.65-1.11-.31.02.56-.41-1.62.32-.68.26-1.36.52-2.04.79Z"/><path d="m7.67,57.6l-.3-.31c.11.11.22.23.3.31Z"/><path d="m392.94,12.85l-3.56-.42c.62.12-1.21.02,1.64.34,1.62.18,2.03.15,1.92.08Z"/><path d="m344.84,8.17c-3.22-.26-6.52-.51-6.51-.33,2.4.14,5.08.31,6.51.33Z"/><path d="m55.88,78.33c-3.92-.74-7.97-1.59-8.9-2.16-.43-.23-5.36-1.47-8.06-2.5,1.44.67,2.59,1.21,4.46,1.91,4,1.52,11.62,3.32,17.95,4.17.79.1,1.19.12,2.16.27,3.59.56,3.87.37.33-.35q-1.47-.3-2.35-.3c-.41,0-.32.11-3.01-.41-.82-.16-1.72-.41-2.58-.65Z"/><path d="m85.28,82.91l-2.12-.28c-3.78-.23,2.01.74,1.8.96,1.97.22,3.94.41,5.91.58.29-.08-1.51-.37-3.18-.65-1.67-.3-3.21-.59-2.41-.61Z"/><path d="m75.32,82.33c2.13.3,4.33.66,5.92.78-.06-.02,0-.03-.2-.06-2.62-.42-2.1-.61-5.32-1.03-4.75-.62.52.31-.4.31Z"/><path d="m64.98,80.46c-.57-.08-1.22-.18-1.17-.16.16.07.58.18.9.28.26.03.72.09.73.07.02-.03-.26-.11-.46-.19Z"/><path d="m37.15,73.9c1.22.47,2.49.92,2.8.94-1.19-.39-2.8-1.06-2.8-.94Z"/><path d="m42.51,75.64l.8.19c-.35-.08-.69-.18-.8-.19Z"/><path d="m383.03,80.52l-5.55.63c-1.62.51-10.92,1.36-13.92,1.9.31.07-.46.28,4-.18-1.91.05,1.33-.35,3.38-.6,2.5-.31,3.7-.31,4.65-.35l5.63-.62c5.27-.72,7.95-1.17,8.2-1.28.25-.13-1.93.13-6.39.5Z"/><path d="m375.59,81.91c-.95.03-2.15.04-4.65.35-2.05.25-5.28.65-3.38.6,3.04-.32,6.83-.62,8.03-.94Z"/><path d="m403.18,78.41c-5.36.39-7,1.01-10.47,1.47,4.27-.38,7.42-.93,10.47-1.47Z"/><path d="m414.51,76.88l-2.01.31c.68-.03,1.35-.14,2.01-.31Z"/><path d="m159.48,88.69c-3.88-.13-4.07-.04-4.38.05.58.17-1.44.05-3.6-.08-1.22.08-.37.33-5.95.09-1.15.13,4.96.36,5.82.5,7.87.12,8.52-.23,8.11-.56Z"/><path d="m96.76,84.42l-2.47-.26c1.37.22,1.74.21,2.47.26Z"/><path d="m185.64,6.49c.94-.12,1.19-.2,1.44-.28-3.97.25-7.91.5-11.86.75-3.56.27-3.63.36-3.77.46,2.12-.14,4.71-.37,5.97-.35l8.22-.58Z"/><path d="m175.22,6.96l11.83-.75.15-.15c-4.56.28-9.12.49-13.67.82l1.69.07Z"/><path d="m185.64,6.49l-8.22.58v.15c2.69-.17,5.38-.34,8.08-.5l.14-.23Z"/><path d="m130.36,11.58c.08.05.29.1,2.46-.16.98-.1,2.27-.31,3.41-.47-1.41.08-3.71.34-5.87.62Z"/><path d="m177.42,7.07c-1.26-.01-3.85.21-5.97.35,1.22,0,3.64-.19,5.97-.35Z"/><path d="m153.85,8.61s-1.85.26-.1.12c.18-.02.74-.08.9-.09,1.13-.14.47-.13-.8-.03Z"/><path d="m237.98,89.12c-3.31.12-6.3-.32-9.84.17-.55.33,6.63.03,9.94.04-.05-.07-.08-.14-.1-.21Z"/><path d="m196.76,89.76h.81c-.25,0-.5,0-.81,0Z"/><path d="m238.08,89.33l.43.02c-.15,0-.3-.02-.43-.02Z"/><path d="m95.42,16.56l-3.95.68-.2.15c2.76-.46,4.1-.73,4.15-.83Z"/><path d="m322.18,6.66c-10.03-.72-11.21-.57-11.24-.29l2.14.42c7.45.62,11.71.59,17.52.93.73-.2.24-.46-8.41-1.06Z"/><path d="m226.99,4.98h-.86s.36.03.86,0Z"/><path d="m110.58,6.93l1.4-.13c-.21,0-.42,0-.62.01-.26.04-.52.08-.78.12Z"/><path d="m246.14,4.85c-.69-.02-1.37-.04-2.08-.06-.02,0-.37.02-.56.03.86,0,1.72.02,2.64.03Z"/><path d="m358,10.01l3.75.41c-.25-.12-.42-.23-3.75-.41Z"/><path d="m187.08,6.21c-.25.08-.51.16-.76.24,1.94-.13,4.1-.22,4.42-.33.33-.1-1.55-.04-3.66.08Z"/><path d="m171.49,89.19c-.22.07-.29.14,1.63.24-.21-.08.67-.14-1.63-.24Z"/><path d="m181.05,89.78l-.41-.03c.14.01.29.02.41.03Z"/><path d="m165.5,89.32c.41.06.37.14,1.34.19,1.26.07,2.47.04,2.06-.01-.8-.1,3.22-.16-2.82-.32-.2.05-.39.09-.58.14Z"/><path d="m165.5,89.32c.19-.05.38-.09.58-.14-3-.04-2.76.02-.58.14Z"/><path d="m287.85,88.01c.27,0,.53,0,.86.01.04,0,.69-.04.73-.05.08-.02-.03-.04-.06-.06l-1.53.09Z"/><path d="m466.9,25.07l-.76-.19c.29.07.57.14.76.19Z"/><path d="m207.04.65l3.06-.11-.77-.02c-.81.05-1.62.1-2.29.14Z"/><path d="m270.22,88.89l-2.52.03c.18.04.69.05,1.21.07l1.31-.1Z"/><path d="m151.51,88.65c2.15.13,4.17.25,3.6.08-1.2-.03-2.4-.05-3.6-.08Z"/>
                  </g>
                </mask>
              </defs>
              <path class="mask" d="m275.84,1.33c-42.22-1.44-77.54-.45-102.9.85-42.84,2.19-81.09,4.33-119.78,14.89C32.72,22.65,7.88,29.42,1.94,40.89c-8.65,16.69,29.38,30.41,36.28,32.9,5.41,1.95,26.62,8.86,88.79,13.51,37.88,2.84,77.99,2.71,117.62,1.8,63.47-1.45,128.59-5.05,185.25-15.24,33.82-6.08,66.36-15.94,68.33-27.84,1.29-7.76-11.13-14.98-28.68-20.05-17.55-5.07-39.85-8.26-62.34-10.97-54.85-6.61-113.75-10.84-173.95-10.14-60.2.7-121.89,6.58-171.22,18.48-19.34,4.66-37.14,10.45-45.55,17.55-12.56,10.59-1.36,22.48,21.66,30.35,9.3,3.18,18.96,5.76,29.02,7.82,18.23,2.69,38.54,5.07,60.86,6.82,96.05,7.52,180.63-.62,233.1-7.94"
                    mask="url(#path-mask)" stroke="black" stroke-width="2" fill="none"
                    stroke-dasharray="1674.109130859375" stroke-dashoffset="1674.109130859375">
              </path>
            </svg>
        