
            <svg xmlns="http://www.w3.org/2000/svg">
              <defs>
                <mask id="path-mask">
                  <g fill="white">
                    <path d="m287.58,57.04c1.67-1.72.4-.83.63-1.28l1.21-1.2c.54-.46,1.1-.98,1.6-1.54.51-.55,1.06-1.08,1.51-1.58.46-.52.97-1.19,1.5-1.94.47-.79.93-1.65,1.36-2.52.34-.9.69-1.79.91-2.6.18-.83.3-1.56.36-2.11.19-.73.26-1.34.33-1.84.07-.5.09-.9.02-1.22.38-2-.23-4.91-.36-6.45.11-.46-.39-2.19.32-.84.28.49.37,1.06.55,1.69.08.32.15.66.22,1.03.05.37.04.78.05,1.23.09,1.46-.08,2.76.08,3.6-.01.46-.14.9-.2,1.36-.05.42-.14.88-.25,1.34-.15.45-.34.91-.5,1.35-.17.44-.3.89-.43,1.29-.14.4-.24.78-.24,1.13-.11.24-.26.59-.38.88-.12.29-.24.52-.24.52-.13.67-.55,1.74-1.23,2.84-.35.54-.74,1.11-1.14,1.69-.4.57-.88,1.09-1.3,1.62l-.12-.05c.41-.62.29-.52-.23.13-.08.11-.16.22-.26.34l-.19-.05c.27-.37.7-.88.63-.92-.01,0-.24.23-.34.36-.47.61-.29.48-.3.57-.53.71-1.13,1.36-1.7,2.04-.14.16-.29.32-.44.49.15-.32,1.55-1.97.17-.64-1.48,1.37-1.9,1.91-2.07,2.34-.14.41-.78,1-1.91,1.77-.13-.06-.56.24-1.09.66-.54.4-1.21.88-1.75,1.28v-.11c.94-.87.13-.3-.76.33-1.3.7-1.29.97-2.05,1.5l-.18.07.2-.09c0,.16.61.07-1.71,1.44-1.46.83-2.66,1.61-2.29,1.68l-1.45.82-1.44.41c.79-.44,1.11-.68,1.13-.81.91-.6.94-.73-.04-.32-1.27.67-1.73.81-1.35.43.18-.18.42-.42-.41,0-.25.12-.64.33-.96.51-.32.18-.58.33-.57.34.17.15-.59.65-1.55,1.23-.98.54-2.15,1.15-2.77,1.57-.25.17-.34.29-.51.43l-.19.22c-3.13,1.36-6.5,2.54-9.27,3.87-.7.35-1.76.61-2.51.78-1.35.32-2.22.67-2.89,1.07-2.11.59-4.21,1.18-6.33,1.7l-.15-.11c-.23-.15-1.26.06-2.54.41-.99.28-.62.35-.67.47-3.49,1.03-7.01,1.95-10.72,2.84h.16c-.03.08.27.1-.43.26-.18.13-.24.25-1.15.44.25-.39-1.54-.07-3,.16-3.15.48-6.81,1.05-9.53,1.7-1.88.47-3.16.71-5.01,1.03-1.13.17-.46.31-.53.46-3.61.56-7.21,1.17-10.84,1.63l-.02-.28c.69-.25.5-.38.13-.51-.65-.23.26-.49,2.19-.72.56-.12,1.13-.23,1.69-.37,1.01-.17,2.25-.3,2.66-.59l-1.88.2c-.25-.09-1.37-.07.03-.39.76.04,1.53-.05,2.28-.33l2.68-.4c1.18.3,3.39.2,5.82.05,1.64-.57,4.06-1.18,4.33-1.69,2.35-.4,4.7-.75,7.04-1.35.09.12-.14.35.33.35.63,0-1.77.73.45.27,1.54-.32,1.2-.45,1-.58-.09-.06-.16-.31.9-.28,1.93.05,1.41-.49,3-.77.25,0,.45.08.77.01.92-.18.88-.31,1.11-.45,2.98-.67,5.8-1.59,8.97-2.26,1.65-.36,2.42-.94,2.84-1.29,4.78-1.38,9.51-2.93,14.14-4.72.01.07-.11.19.07.19.49,0-1.63,1.16.79.24,2.13-.84.18-.39.43-.65.07-.08.76-.39,1.17-.6,3.8-1.81,7.94-3.65,11.74-5.78,1.1-.63,2.74-1.88,3.75-2.17.55-.21,2.49-1.21,4.42-2.53,1.95-1.29,3.87-2.9,4.7-3.8Zm-11.9,8.16l-.36.32c.19-.1.42-.21.56-.3.14-.09.18-.16.28-.24-.16.08-.32.15-.47.22Zm-22.6,10.16c-.09.03-.22.06-.33.09.03.04.16,0,.33-.09Z"/><path d="m232.52,3.5c2.8.23,5.57.62,8.32,1.04,2.75.45,5.5.82,8.25,1.34.55,1.34,4.21,1.24,6.48,1.78.4.44.26.88,2.78.92,1.52.04,3.67.43,5.56.82,1.49.46-3.44.87,2.23,1.37.81.21,1.98.28,2.01.74.01.23.75.65,1.49.72.75.07,1.49-.05,1.8-.22.51-.28-.95-.4-1.37-.59-.83-.38-1.4-.79-2.08-1.19.51-.2,2.48.36,2.46-.12,1.09.92,5.6.89,5.39,1.81-.11.46-1.96.63-2.82,1.03-.89.41-4.22-.14-6.82-.77-1.17-.29-2.26-.71-3.43-.98-1.13-.28-2.47-.85-3.37-.65-.96.23,2.22.59,1.56.94-1.87.02-3.8-.16-5.85-.79-.04-.74-.5-1.35-3.76-1.26-2.42.08-5.22-1.46-7.61-.99l-.88-.09-1.63-.44c-2.69-1.13-5.69-1.64-9.03-1.41-1.86-.86-4.04-1.3-6.91-1.17l-1.2-.1c.15-.05.25-.12.46-.13,1.62-.11,2.72-.3,1.12-.93-.42-.16-1.59-.41-1.41-.18.42.55-4.85.24-1.06,1.29-1.04-.02-2.56-.27-2.58.21l-1.8-.19c-.04-.26,1.42-.38.22-.72-.96-.27-2.02-.26-2.83-.11l-1.13-.13c-2.33-.27-2.44-.72-2.74-1.19-.17-.27-.71-.51-1.83-.58-.42-.03-1.08.04-1.21.12-.39.24.52.36,1.22.51,2.55.54-2.13.71.08,1.24-.59.4-2.02.27-3.37.2v-.3c.04-.29,2.08-.57-.05-.85-1.57-.21-2.7.08-2.41.6l-2.07-.14-2.84-.6c-.79-.39-1.17-.75-.46-1.1.32-.16.25-.34-.66-.42-1.1-.11-1.28.14-1.46.33l-1.54-.25v-.65c2.61.09,5.57.05,7.27.98.65.36,1.62.24,1.8-.08.13-.23-.06-.51,1.05-.58,2.29-.15,4.6-.18,6.94-.07,2.34.07,4.69.46,7.07.88,1.42.56,3.64.97,5.98,1.17,2.33.21,4.79.14,6.65-.05Zm29.19,6.41c-.3-.05-.62,0-.93,0,.24.11.45.26.73.32.29.06.64.04,1.21.08-.46-.19-.73-.35-1.01-.39Z"/><path d="m21.73,69.58c2,.82,2.78,1.52,3.66,2.29.45.37-.06.64,1.6,1.17,1.35.41,1.18-.02,1.04-.38-.13-.34-.15-.65-.22-.97,1.59.59,3.17,1.21,4.78,1.77-.08.28-.78.44,1.42,1.18,1.65.57,2.36.98,2.17,1.33-.26.17-2.21-.49-1.36.16.29.24,1.03.61,1.54.77,1.72.52.7-.19,1.13-.25.24-.04.44-.1.78-.08.66.05,2.48.52,1.88.08-.69-.5-2.09-.53-3.25-.96l.17-.51c4.62,1.44,9.08,2.89,13.5,4.34-.88.37-1.55.95-5.27-.62-.61-.26-1.66-.5-1.98-.37-.35.15.43.46,1.3.74.2.37.4.75.49,1.12l-1.33-.21.97.53c-3.18-.51-6.03-1.49-8.54-2.85-.59-.57-1.79-1.43-3.29-1.6-2.91-.27-7.22-3.18-9.38-2.96-2.4-1.38-5.1-2.51-7.56-3.98.22-.26-.13-.68-.75-1.13-.6-.47-1.46-.98-2.28-1.39-1.44-.77-2.21-1.38-3.06-2.28.68-.19,2.75,1.84,3.92,2.13.44.1,1.34,1.39,2.12,1.33.46-.02-.63-.93-1.25-1.57-.64-.63-1.18-1.05-2.3-1.57-1.4-.64-2.95-1.63-3.56-3-.2-.39-.58-.81-1.02-1.18-.44-.38-.93-.7-1.25-.99-1.17-.98-.5.04-.01.83.41.59.82,1.18,1.07,1.65.26.46.36.78.09.87-.27-.15-.55-.31-.81-.49-.68-1.64-3.04-3.75-4.27-6.23-.27-.45-.63-1.27-.88-1.87-.21-.63-.18-1.09.25-.85.12.05-.16-.66-.39-1.43-.18-.78-.42-1.62-.5-1.66-.39-.18-.43-1.12-.26-2.35.04-.3.11-.6.17-.9.18-1.71.85-3.68,1.25-2.72.11.95.05.86.76-.29.3-.52.81-1.12.97-1.16.29-.08.11.36-.13.88-.2.54-.48,1.13-.4,1.36-.43,1.06-.59,2.22-.71,3.3-.14,1.1-.1,2.12-.32,3.14-.08.27.07.75.24,1.13.17.39.34.69.36.64.06-.41,1.41,2.32.83.25.21.02.33.21.64,1.01,1.16,2.55,3.02,5.03,5.55,6.75-.64,1.42,2.88,2.66,4.49,3.8,1.97,1.27,3.73,1.67,5.85,2.92-.68.06-2.54-.24,1.3,1.37Zm8.76,4.47l-.51-.02c.19.1.41.23.58.28.15.05.25.01.38.02-.15-.1-.3-.19-.45-.28Z"/><path d="m252.51,8.98c-1.51,0-3.17,0-4.81,0-1.64.07-3.25.19-4.62.39-1.23.03-2.77.2-4.36.44-1.57.36-3.22.64-4.63,1-.81.2-1.11.31-1.67.5-1.73.6-1.98,1.22-.05.74,2.03-.5,2.67-.61,3.23-.55.58.04,1.59,0,3.49-.65.21-.06,1.02-.19,1.37-.23.85-.09,1.68-.18,2.52-.29.83-.09,1.67-.12,2.5-.2.83-.05,1.66-.16,2.49-.17.83,0,1.67-.02,2.51-.03.48,0,.97-.01,1.45,0l1.45.08,2.9.16c1.92.23,3.86.35,5.77.7,3.84.54,7.61,1.5,11.31,2.64l.03-.14c-.62-.22-1.13-.37-1.25-.46-1.12-.29-2.45-.64-3.38-.88-1.12-.23-2.38-.5-3.57-.74-1.19-.25-2.34-.41-3.22-.67-.26-.07-.95-.24-1.86-.39-.91-.13-2.05-.29-3.2-.45-1.15-.18-2.33-.2-3.32-.29-.99-.06-1.79-.12-2.19-.09-.27.01-.55.05-.51.07.39.19-1.11.1-1.79.07-.82-.03-1.32-.15-2.04-.16-.41,0-1.67.12-1.55.04.07-.05.8-.14,1.78-.22,2.05-.05,4.96-.04,5.23-.23Z"/><path d="m46.42,18.15c-1.92.71-4.27,1.33-5.4,2.21.58-.11,1.35-.18,1.73-.33,1.46-.6,2.82-1.24,4.07-1.09,1.03.12-.19.72-1.02,1.26-1.48.96-2.79,1.12-4.22,1.19-.89.03-2.28.42-2.9.8-2.09,1.31-3.27,1.16-4.71,1.39-.87.29-1.93.78-2.26.56-.07-.04.28-.33.44-.39,1.14-.41,1.27-.15,1.82-.17l2.09-1.83c-1.88-.2-3.8,1.05-5.68,1.97.15.24.11.52-1.27,1.12.09.17.04.41.31.49.81.26-1.51,1.11-2.09,1.65-.16.15-.6.4-.8.32-.41-.15.31-.59,1.1-1.11.45-.3-.05-.48-.13-.71-.66.57-2.99,1.11-2.98,1.72.31-.06,1.08-.36.4.1l-.38-.11c-1.14.38-.69-.38-2.04.27-.48.23-.69.77-1.02,1.17.09.14-.01.35-.61.74.06.04.13.07.2.1l.71-.33c1.31-.3,5.12-1.69.25.89-.32.17-.36.46-.53.7,2.1-1.06,4.25-2.35,6.45-2.64.26-.05,3.01-1.69,5-2.46.46-.43,1.13-.72,2.32-1.19,1.75-.67,3.6-1.19,5.41-1.74,1.83-.52,3.62-1.06,5.25-1.86,1.56.17,3.83-1.24,5.39-1.35,1.52-.1,2.68-.37,4.38-1.16,2.33-1.01,3.47-1,3.68-.4l3.99-1.09c-.28-.33.76-.85,1.5-1.33-1.96-.03-4-.02-.22-1.49.48-.19.12-.27-.4-.22-1.48.79-3.93.83-5.18,1.5-2.86,1.54-2.45.64-2.96.39l-.85.23c-.02.24-.45.47-1.41.77-.03.32-.65.6-1.58.9l.16.29c-.93.26-.83.05-.87-.1-1.9.24-4.65.99-5.15.39Z"/><path d="m294.74,27.08c-.62-.9-1.07-1.54-1.48-1.94-.9-.83-1.94-1.84-.64-.05.27.34.48.66.64.96.18.29.34.54.48.76.29.44.54.76.77,1.02.38.58.7.96,1.15,1.76.26.49.38,1.04.55,1.57.15.54.36,1.05.45,1.6.13,1.55.74,4.46.35,6.45l-.21.02c.05-.94.13-1.96-.02-2.9-.05-.47-.09-.93-.12-1.36-.07-.42-.14-.81-.17-1.17-.04-.44-.08-.9-.17-1.35-.13-.44-.27-.88-.42-1.33-.25-.92-.78-1.77-1.25-2.7-2.02-3.6-5.07-6.55-8.51-8.86-3.47-2.3-7.3-4.06-11.24-5.5-.11-.12-.08-.19.93.1.51.16,1.01.37,1.51.59l.74.38c.22.13.45.23.7.29,1.24.47,2.16.97,2.87,1.3.71.34,1.19.56,1.47.66.56.23.33-.01-.52-.59-.05-.04-.06-.05-.09-.08-1.08-.48-1.93-.95-2.7-1.31-.78-.35-1.45-.69-2.11-1.02-.33-.17-.67-.33-1.01-.51-.36-.14-.72-.29-1.11-.45-.79-.3-1.68-.64-2.79-.97-1.87-.47-4.33-1.17-4.8-1.47,1.25.23,2.66.5,3.04.69.72.4,2.03.64,3.25,1.09,4.38,1.48,8.55,3.3,12.56,5.93,2.84,1.89,5.47,4.28,7.49,7.17,2.03,2.88,3.39,6.31,3.72,9.86.23,1.41.07,3.68-.17,3.76-.15-.84.01-2.14-.08-3.6-.01-.44,0-.85-.05-1.23-.07-.37-.14-.71-.22-1.03-.18-.63-.27-1.2-.55-1.69l-.4-1.29c-.13-.43-.27-.86-.49-1.26-.2-.4-.4-.8-.62-1.19-.21-.39-.43-.77-.73-1.1Zm-5.94-5.96c.02-.08-.29-.47-1.41-1.25-1.05-.82-2.82-1.65-2.9-1.64-.21.06,1.34.81,1.84,1.17.98.7,2.42,1.96,2.47,1.72Zm-2.85-2.78c-.75-.46-2.08-1.26-2.19-1.19-.06.04.39.4,1.18.87.86.51,1.72.96,2.75,1.73-.72-.64-1.14-1.07-1.74-1.41Zm3.81,3.46l.36.35-.03-.07c-.28-.26-.3-.26-.34-.28Z"/><path d="m187.31.36c-2.09.13-3.72,0-6.07-.23-3.42-.28-7.69-.03-11.57.07-1.94.06-4.03-.25-5.84.21v.59c.43.26,1.54.64.23.79-3.86.44-3.31,1.49-5.97,2.06,1.42-.07,2.68-.24,3.79-.49.14,0,.27-.03.37-.07.14-.28-.48-.61,1.07-.79,1.21-.14,2.08-.07,2.26.28l.2.08-.19-.08c-1.8-.14-1.84.52-3.32.53-.09.04-.13.07-.11.11,1.71.55,3.77-.14,5.63-.02,2.36-.63,4.87-.61,7.41-.09.76.16,1.25.37,2.1,0,1.3-.56,3.2-.4,5.01-.17,2.61-.37,1.42-.96.79-1.53-.16-.15-.71-.36.21-.43.79-.06,1.24.11,1.56.28h.93c-.48-.46,2.01-.61,1.5-1.09Z"/><path d="m81.49,87.73c1.6.53,3.28,1,5.58,1.02,2.89-.17,5.89.09,9.05.83.63-.17,1.77-.1,2.8-.1l1.69.3c-.19-.18-.47-.53-.55-.53-3.12-.17-5.13-1.04-8.12-1.32-2.17-.19-4.15-.46-4.67-1.12-.02-.02-.23-.05-.35-.08-.41.01-.83.02-1.25.03.28.7-1.9.35-3.56.06-5.44-.92-10.99-1.45-16.44-2.82-3.27-.86-3.49-.73-1.77-1.12.52-.12.88-.28,1.31-.43-3.17-.48-6.71-1.6-9.39-1.48.57.2,1.12.42,1.73.57,1,.25,2.53.17,2.88.67.15.21-1.5.16-2.54.12-.56-.02-1.55-.28-2.35-.46-.67-.15-1.39-.33-1.75-.24-.47.12.2.39.86.65,1.04.4,1.24.88,2.93,1.22,1.02.43,2.11.82,3.3,1.15,1.19.32,2.49.57,3.91.76,3.33.06,7.08.73,10.88,1.35-.03-.16.17-.32.86-.21,1.21.19.4.33.64.51,1.68-.28,3.43-.69,4.29.68Z"/><path d="m277.32,14.76l.74.38.35.15.35.15c1.24.47,2.16.97,2.87,1.3.71.34,1.19.56,1.47.66.56.23.33-.01-.52-.59-.05-.04-.06-.05-.09-.08-1.08-.48-1.93-.95-2.7-1.31-.78-.35-1.45-.69-2.11-1.02-.33-.17-.67-.33-1.01-.51-.36-.14-.72-.29-1.11-.45-.79-.3-1.68-.64-2.79-.97-1.87-.47-4.33-1.17-4.8-1.47-1.39-.21-3.82-.81-4.89-.78,1.29.34-.03.32-.72.2-2.02-.34-.76-.3-1.04-.44-.06-.03,0-.04.02-.06-.76-.24-1.82-.33-2.9-.44-1.08-.11-2.18-.22-3.06-.31-1.09,0-2.04-.05-2.87-.18-.28.19-3.19.18-5.24.23-.98.08-1.71.17-1.78.22-.12.08,1.14-.05,1.55-.04.71,0,1.22.12,2.04.16.68.04,2.18.13,1.79-.07-.04-.02.24-.06.51-.07.4-.04,1.2.03,2.19.09.99.08,2.17.11,3.32.29,1.15.16,2.28.32,3.2.45.91.15,1.59.32,1.86.39.88.26,2.03.42,3.22.67,1.19.25,2.45.51,3.57.74.92.24,2.26.59,3.37.88,1.1.24,1.11.37,1.26.47l-.03.14,1.55.54c-.11-.12-.08-.19.93.1.21.04.37.03.63.12.81.32.79.38.88.47Z"/><path d="m150.64,3.98l-.07-.24c-.7-.43-1.26-.92-2.13-1.29-1.86-.82-5.19-.68-7.84.3-.33.12-.49.29-.9.37-1.53.31-1.58,1-.03,1.15q.65.06.98-.4c.16-.22.09-.49,1.25-.58.36-.03.77.19,1.15.29,2.2,0,2.09.51,2.6.87-2.48.43-5.03.58-7.61.61,1.01-.72-1.52-.69-2.75-.94l-1.27.49c-.87.12-1.74.27-2.6.43-.04-.05-.06-.1-.05-.16,1.53-.89-1-1.26-.99-1.96l1.59-.19s.01.08.09.08c1.14.1,1,.82,2.36.6,2.02-.32-.29-.66.06-1.04l.91-.52c3.87-.2,7.8-.67,11.6-.59l1.64-.12.09.41-.34.13.45-.11,1.03-.05c.53.02,1.28.17,1.24-.16l1.66-.27-.23.08-.26-.05c1.17.41,4,.24,4.84.96.39.34,3.95-.46,5.89-.84.32-.06.53-.17.79-.25.43.26,1.55.64.24.79-3.86.44-3.31,1.49-5.97,2.06-2.57.35-5.05.42-7.45.13Zm-11.12-1.47c-.08-.11-.27-.2-.42-.3-.11.07-.3.14-.3.19,0,.09.13.17.23.29.24-.08.52-.15.49-.18Z"/><path d="m29.1,24.82c1.38-.6,1.42-.88,1.27-1.12l-1.34.47-1,.44c-2.57.91-5.06,1.82-7.56,3.34-1.01.63-2.53,1.43-3.87,1.96-1.48.55-4.03,2.12-4.4,2.47-2.04,1.77-4.1,3.42-6.02,5.27-1.92,1.83-3.76,3.87-5.09,6.4-.93,1.89-.96,3.33-1.07,5.05-.14,2.23.37,4.49,1.25,6.44.88,1.97,2.08,3.73,3.46,5.24,2.71,3.1,5.97,5.43,9.29,7.53.71.46,1.42.95,1.96,1,.22-.26-.13-.68-.75-1.13-.6-.47-1.46-.98-2.28-1.39-1.44-.77-2.21-1.38-3.06-2.28-.62-.13-1.43-.9-2.18-1.51-.27-.15-.55-.31-.81-.49-.68-1.64-3.04-3.75-4.27-6.23-.27-.45-.63-1.27-.88-1.87-.21-.63-.18-1.09.25-.85.12.05-.16-.66-.39-1.43-.18-.78-.42-1.62-.5-1.66-.39-.18-.43-1.12-.26-2.35-.14-.32-.06-.64.17-.92.18-1.7.84-3.66,1.24-2.7.2-.39.4-.79.61-1.18.41-1.34,1.07-2.72,2.6-3.91.7-1.45,1.47-3.03,3.64-3.54.66-.5,1.31-1,1.99-1.46.16-.69,1.61-1.52,2.73-2.23,1.64-1.05,1.53-.57,1.77-.42,1.58-1.72,3.68-2.61,5.87-3.15.33-.4.54-.94,1.02-1.17,1.35-.65.89.11,2.04-.27-.03-.59,2.3-1.14,2.96-1.7l1.6-.64Z"/><path d="m116.21,4.02c-1.22-.2-2.54-.22-4.23.4,1.04.18,2.05.4.93.95-.88.43-1.66,0-2.64.26-1.39-.46-2.09.03-2.91.49-.93.52-1.88.75-2.63.3-2.34.45-1.9.89-2.26,1.33.42.4,2.34.29,3.31.51,1.62.2,3.7,0,5.65-.45,1.46-.34,2.74-.54,4.18-.64,1.42-.43-.18-1,2.35-1.28,1.87-.21,1.61.29,1.94.57l1.66-.22c-.15-.28-.41-.55-.42-.84,0-.19.75-.34,1.47-.41.62-.06,1.11,0,.76.18-.51.26-1.94.6-.38.65.39.01,1.71-.49,2.6-.76.28-.1.41-.3,1.02-.18l-1.04.17c.71.74,2.77.37,4.93-.08.61-.74-2.74-.72-2.56-1.38-3.55.74-3.57.21-3.36-.42-1.43.26-2.67-.04-4.13.31.29.67-1.24,1.44-3.73,1.61-3.45.36,1.03-.76-.19-.93-.17-.02-.21-.09-.31-.14Z"/><path d="m172.66,90.58l1.36-.1,2.62-.35.97-.09s-.06-.08-.09-.12c-.57-.01-.86-.06-.39-.2.07-.02.3-.05.38-.04.75.03-.03.17-.03.25,1.37-.07,2.38-.23,3-.52,1.96-.89,5.23-.59,5.18-.42-.16.54,2.02.33,3.6.28,1.96-.39,3.9-.78,5.89-1.18.87-.17,2.56-.34,2.05-.55-.42-.17-2.23.23-2.71.2-1.46-.07-3.61.84-4.48.35-1.1.08-2.39.22-2.58-.02-.92.08-1.9.19-2.51.08-2.03.13-4.07.29-6.08.38-3.99.13-7.39,1-11.43.96v.35c1-.06,2.03-.15,2.56.04-.05.2-.08.4-1.59.49l.74.41c1.18-.06,2.37-.1,3.55-.19Z"/><path d="m64.25,13.77c.52-.05.89.03.4.22-3.78,1.47-1.74,1.47.22,1.49l1.49-.43-.17-.56-.21-.03.2.04c1.41-.15,4.27-1.36,4.24-.45,2.27-.56,4.49-.28,6.91-1.39.35-.16,1.99-.27,2.13.03l2.42-.44c.95-.7,3.95-1.53,3.22-2.12-.03-.03.51-.19.78-.29,2.02.83,2.5-.73,3.96-.79-.02-.06-.03-.13-.04-.19-4.35-.33-5.17.82-6.48,1.81l-.31.11.33-.11c-.84.09-2.38.33-2.43.23-.71-1.34-3.54.21-5.96.82-2.53.64-5.4,1.5-7.76,1.5-1.14.12-1.09-.42-2.99.12l.05.41Z"/><path d="m197.29,2.16l-1.54-.25c-3.77-.25-3.7-.91-3.28-1.61-1.24-.28-1.19.12-1.8.18,1.09.98-.79,1.77-4.22,1.77.78.51.83,1-.03,1.47.85.53,1.58.2,2.34.05-.5-.12-.62-.29.06-.29.93,0,.77.23.85.38,1.97.76,4.91.38,7.02.41,3.47.09,7.21.74,10.53.37v-.3s-2.4-.26-2.4-.26c-.78.33-1.45.09-2.13-.13l-2.84-.6c-.22.27-.41.55-1.95.42-1.04-.06-1.63-.28-2.11-.51-1.14-.55.45-.79,1.49-1.1Z"/><path d="m190.01,88.09c.87.49,3.02-.42,4.48-.35.47.03,2.28-.37,2.71-.2.51.21-1.18.38-2.05.55-1.99.4-3.93.79-5.89,1.18l.75.17.97-.1c1.32-.36,2.83-.57,4.39-.75,1.56-.2,3.16-.39,4.66-.64.69-.25.5-.38.13-.51-.65-.23.26-.49,2.19-.72l.02-.14c0-.2.57-.33,1.75-.49.24-.04.48-.08.7-.13-.25-.09-1.37-.07.03-.39l-.09-.13c-4.73.58-9.46,1.01-14.2,1.7.8.23,2.24.41-.54.95Z"/><path d="m121.52,91.42c.99.03.87.75,2.66.27,1.34-.35,2.57.24,3.89.15.39-.66,2.17-.43,4.04-.17,1.59.23,2.9.15,4.1-.05,1.25-.21,1.8-.46.49-.78-1.76-.06-3.38-.33-5.27-.23-5.9.22-6.56.25-11.25-.55-.11-.02-.34-.05-.36-.04-2.44.53-6.04-.6-8.52-.22.21.33.22.66,1.87.94.07-.22.46-.22,1.6-.11,2.39.2,4.63.46,6.76.79Z"/><path d="m190.01,88.09c2.78-.55,1.33-.72.54-.95-1.86.04-3.12-.1-5.73.52-1.88.46-5.72.49-8.78.7-4.11.35-8.43.66-12.6.65-1.83-.03-3.04.03-2.82.45.21.41,1.69.36,3.34.21l3.43-.19c4.04.04,7.45-.83,11.44-.96,2.01-.09,4.05-.25,6.08-.38.48-.11,1.02-.29,1.44-.31.93-.06,1.03.1,1.07.24.19.25,1.49.1,2.58.02Z"/><path d="m83.32,10.68c1.31-.99,2.13-2.14,6.48-1.81l3.28-.84c.86-.3,1.75-.61,1.47-.88-1.65-.23-3.63.51-5.34.82-1.63.31-3.27.55-4.9.87l-4.88,1c-3.25.68-6.51,1.39-9.74,2.24-1.71.51-1.91.76-2.52,1.15,2.36,0,5.24-.86,7.76-1.5,2.42-.61,5.25-2.15,5.96-.82.05.1,1.59-.15,2.41-.24Z"/><path d="m65.23,82.46c-.43.14-.79.31-1.31.43-1.72.39-1.51.26,1.77,1.12,5.44,1.38,10.99,1.9,16.44,2.82,1.66.29,3.83.63,3.56-.06-3.02-1.07-6.4-1.46-10.17-1.69-2.43-.16-4.23-.62-3.65-1.24-2.45-.11-4.35-.99-6.62-1.37Z"/><path d="m111.3,89.81c2.48-.38,6.08.74,8.52.22.03,0,.25.02.36.04,4.69.8,5.35.77,11.25.55,1.89-.1,3.51.16,5.27.23-.74-.56-1.55-1.11-4.43-1.44l-2.13.28c-.79.32-2,.25-3.7.12-2.07-.15-4.59-.2-6.38-.36-1.81-.15-3.53-.11-5.22-.11-1.69-.02-3.37-.09-5.08-.4l.86.8c.23.02.46.04.68.07Z"/><path d="m153.78,89.93c-1.08.51-1.95,1.01,2.41.96,1.41-.03.53.2.43.34-2.14.39-4.52.22-6.06.04-3.9-.46-4.78-.03-5.62.56l-.8.03c-2.57-.29-6.77-.44-2.77-1.29.72-.15.7-.44,1.03-.66,2.2,0,4.4-.01,6.6-.02,1.42,0,2.49-.04,2.63-.36h2.45c-.09.14-.05.28-.3.39Zm-7.01.54c-.09-.01-.23-.02-.44.04.12,0,.24.01.44-.04Z"/><path d="m270.44,10.11c1.09.92,5.6.89,5.39,1.81-.11.46-1.96.63-2.82,1.03-.89.41-4.22-.14-6.82-.77-1.17-.29-2.26-.71-3.43-.98-1.13-.28-2.47-.85-3.37-.65-.96.23,2.22.59,1.56.94,3.71,1.5,8.67,1.65,12.51,3.17,1.21.48,1.07-.23,2.1-.1,1.04-.05-3.28-1.33.38-.78,1.37-.48,4.61-.03,4.36-1.1-.73-.24-1.7-.48-2.15-.73-1.13-.62-.86-1.72-4.19-1.32-.02,0-.28-.12-.63-.27-.35-.15-.77-.33-1.11-.43-1.99-.6-3.93-.92-5.7-.9.4.99,2.83.58,3.92,1.09Z"/><path d="m280.51,15.53c.98.28,1.67.58,2.12.96.57.47,1.43.97,2.41,1.33.98.35,2.07.58,3.08.6,1.8.04,3.51-.2,3.88-.82.69-1.15-1.34-2.11-6.2-3.11-1.19-.23-2.57-.92-3.86-1.4-1.59.19-1.16.88.32,1.64,1.5.77,3.02.86,4.27.68.46-.06,2.44.16,2.15.61-.26.4.75,1.05-.06,1.3-.5.15-.79.43-2.1.17-1.36-.26-1.88-.68-1.95-1.03-.08-.36-.21-.68-1.72-1.02-1.46-.33-2.25-.31-2.33.09Z"/><path d="m109.76,88.94c1.71.31,3.38.38,5.08.4,1.7,0,3.42-.03,5.22.11,1.79.16,4.31.21,6.38.36,1.7.13,2.9.2,3.7-.12-2.88-.98-7.25-.64-10.84-.91-2.68-.17-5.39-.24-8.08-.43-2.69-.17-5.36-.41-7.93-.94l-.45.2c.75.34,3.44.9-.71.64-1.36-.08-2.15.15.17.46,2.48.08,4.33-.47,7.46.23Z"/><path d="m59.39,17.9c-.21-.6-1.35-.61-3.68.4-1.7.79-2.86,1.06-4.38,1.16-1.55.11-3.83,1.52-5.39,1.35-1.63.8-3.43,1.34-5.25,1.86-1.82.54-3.66,1.06-5.41,1.74-1.19.47-1.86.75-2.32,1.19,3.41-.7,6.9-1.92,10.73-3.12,2.43-.79,4.91-1.58,7.65-2.16,1.19-.25,2.52-.68,3.89-1.14,1.38-.44,2.81-.88,4.17-1.27Z"/><path d="m220.62,5.48l-1.8-.19-2.62-.83c-.38-.04-.76-.09-1.14-.13-1.25.02-2.5.13-3.74.19,2.11,1.16,6.46,1.26,9.57,1.6,3.09.34,6.2.59,9.32.82,3.11.33,6.22.65,9.33.98h1.69c-2.69-1.13-5.69-1.64-9.03-1.42-1.33-.08-2.71-.08-3.93-.19-1.22-.12-2.28-.39-2.98-.98l-1.21-.1-.86-.03c0,.16.03.23.05.31l.25.18-.58-.13-2.32-.07Z"/><path d="m219.95,83.2c2.35-.4,4.7-.75,7.04-1.35,1.86-.41,3.65-.75,5.07-.87,1.25-.29,1.88-.44,2.5-.58,2.98-.67,5.8-1.59,8.97-2.26,1.65-.36,2.42-.94,2.84-1.29-8.84,2.43-17.79,4.4-26.79,6.2l.37.16Z"/><path d="m156.61,91.22c-2.14.39-4.52.22-6.06.04-3.9-.46-4.78-.03-5.62.56,3.21.1,6.42.1,9.63.09,3.21-.06,6.42-.23,9.61-.59,1.54-.19,2.53.09,3.78-.03,1.73-.16,4.41-.12,4.7-.72-1.18.09-2.37.13-3.55.19l-5.83.18-6.66.27Z"/><path d="m279.57,63.54c0,.17.61.07-1.71,1.44-1.46.83-2.66,1.61-2.29,1.68,3.04-1.65,6.01-3.47,8.82-5.58,2.79-2.16,5.39-4.65,7.57-7.58l-.12-.05-.23.13c-.08.11-.16.22-.26.34-.71.98-1.53,1.88-1.9,2.01-.14.16-.29.32-.44.49-.62.58-1.26,1.13-1.89,1.7-.14.41-.78,1-1.91,1.77-1.14.97-2.3,2.01-3.49,2.68-.4.22.09-.27.65-.75v-.11s-.76.33-.76.33c-1.3.7-1.29.97-2.03,1.48Z"/><path d="m144.14,91.86c-2.57-.29-6.77-.44-2.77-1.29.72-.15.7-.44,1.03-.66-1.22-.05-.81-.23-.89-.37l-1.63.03c.5.36-1.61.5-1.67.8l1.09.09c-.08.02-.23.06-.24.06-.3-.05-.59-.1-.88-.15-1.45-.25-.55-.55-.85-.83-1.64-.45-3.32-.55-5.07-.14,2.88.33,3.69.88,4.43,1.44,1.31.32.76.57-.49.78-1.2.2-2.52.28-4.1.05-1.87-.26-3.65-.49-4.04.17,2.11.13,4.25.12,6.38.12,2.13,0,4.25.07,6.34.19,1.65.11,2.51-.07,3.36-.29Z"/><path d="m102.3,88.71c-2.33-.31-1.53-.54-.17-.46,4.15.25,1.46-.3.71-.64-.74.28-2.01-.09-3.01-.13.09.24-.7.49-1.31.34-2.98-.76-5.19-.26-7.82-.63-1.44.13-1.49-.12-1.57-.37-1.38-.47-1.77-.25-2.21-.08.12.03.34.06.36.08.52.66,2.49.93,4.67,1.12,2.99.28,5,1.14,8.12,1.32.08,0,.36.35.55.53l3.22.62,1.71.35.24-.48c-3.68-.41-3.84-.98-3.48-1.56Z"/><path d="m57.61,83.51c-1.69-.34-1.89-.82-2.93-1.22-.66-.26-1.33-.53-.86-.65.36-.09,1.08.09,1.75.24.8.18,1.8.44,2.35.46,1.04.04,2.69.08,2.54-.12-.35-.5-1.88-.42-2.88-.67-.61-.15-1.16-.37-1.73-.57-.7-.47-1.46-.35-2.2-.5-1.25-.13-2.6-.27-2.32.13,1.11,1.53-2.7.63-6.1-.23.34.37,2.13.75,2.18,1.12,2.84.53,5.4,1.55,8.26,2.14,2.04.43,1.66.05,1.95-.13Z"/><path d="m90.7,87.17c2.63.37,4.84-.13,7.82.63.6.15,1.39-.1,1.31-.34-5.27-.57-10.51-1.13-15.78-1.7-2.64-.3-5.39-.8-7.96-1.34-1.56-.31-2.84-.47-4.23-.6-.58.63,1.22,1.08,3.65,1.24,3.77.23,7.15.62,10.17,1.69.42-.01.84-.02,1.25-.03.44-.18.82-.4,2.21.08l1.57.37Z"/><path d="m156.61,91.22l6.66-.27.05-.32c-.91.02-1.71,0-1.58-.2.13-.2,1.05-.22,1.88-.26.3-.17.31-.33.33-.5-1.65.15-3.13.2-3.34-.21-2.13-.12-4.32-.03-6.55.08-.09.13-.05.26-.3.38-1.08.51-1.95,1.01,2.41.96,1.41-.03.53.2.43.34Z"/><path d="m93.09,8.03l-3.28.84.03.2.2.04-.19-.05c-1.45.05-1.94,1.62-3.96.79-.27.1-.82.25-.78.29.72.59-2.28,1.43-3.22,2.12.22.18.95,0,1.6-.14.79-.5,2.19-.7,3.41-.92.93-.04,1.34-.94,1.93-.47.62.5,2.05-.14,2.91-.15,1.37-.64,2.06-.54,2.61-.26.87-.07,1.95.14,2.39-.49l.32-.38c-1.03.04-1.58-.2-2.99.06-.99.04-.66-.25-.78-.43-4.46.42.46-.8-.19-1.05Z"/><path d="m289.42,54.56c.54-.46,1.1-.98,1.6-1.54.51-.55,1.06-1.08,1.51-1.58.46-.52.97-1.19,1.5-1.94.47-.79.93-1.65,1.36-2.52.34-.9.69-1.79.91-2.6.18-.83.3-1.56.35-2.11-.31.97-.55,2.03-.85,2.6-.28.58-.43.74-.3.03-1.47,3.6-3.76,6.77-6.07,9.65Z"/><path d="m93.28,9.07c-4.46.42.46-.8-.19-1.05.86-.3,1.75-.61,1.47-.88,2.51-.48,5.07-1.58,7.49-1.13.12.02.16.06.13.11-3.23,1.09-3.34,2.08-3.02,2.93l-2.1.39c-1.03.04-1.58-.2-2.99.06.06-.22.05-.43-.78-.43Zm2.52-1.11c-.55,0-1.02.26-.83.34.37.16-1.23.9,1.29.45,1.24-.32,1.12-.45.17-.46-.2-.12-.22-.32-.63-.32Z"/><path d="m36.05,21.73c.75-.25,1.49-.1,2.23-.69,1.66-1.31,2.03-.77,2.73-.68.58-.11,1.35-.18,1.73-.33,1.46-.6,2.82-1.24,4.07-1.09,1.03.12-.19.72-1.02,1.26-1.48.96-2.79,1.12-4.22,1.19-.89.03-2.28.42-2.9.8-2.09,1.31-3.27,1.16-4.71,1.39.69-.61,1.39-1.22,2.09-1.83Zm9.18-2.12s-.28.11-.29.13c-.02.06.04.09.07.14l.6-.26c-.12,0-.24-.02-.38-.01Z"/><path d="m265.46,71.51c-3.13,1.36-6.5,2.54-9.27,3.87-.7.35-1.76.61-2.51.78-1.35.32-2.22.67-2.89,1.07,2.84-.54,6.11-1.81,9.12-3.05,3.92-1.58,7.72-2.83,11.44-4.97.54-.31,1.23-.64,1.43-.86-.87.2-2.21.8-3.67,1.68-1.79,1-2.71,1.3-3.65,1.5Z"/><path d="m280.51,15.53c.09-.4.88-.43,2.33-.09,1.5.34,1.64.66,1.72,1.02.08.35.59.76,1.95,1.03,1.31.26,1.6-.02,2.1-.17.81-.25-.2-.89.06-1.3.29-.45-1.69-.67-2.15-.61-1.25.18-2.77.08-4.27-.68-1.48-.76-1.91-1.46-.32-1.64-.5-.29-1.03-.5-1.62-.41.25,1.07-2.99.62-4.36,1.09.82.37,1.55.76,1.53,1.12l3.03.64Z"/><path d="m21.48,28.6c-2.2.55-4.3,1.43-5.88,3.16-.42.58-1.49,1.36-2.45,2.17-.97.79-1.82,1.62-1.89,2.12l.62.35c1.26-.67,2.29-1.42,3.15-2.28.09-.2-.45-.06.25-.58l.41.16c.23-.09.46-.21.69-.37,2.87-1.78,1.76-2.39,4.49-3.99.6-.39.7-.59.61-.74Z"/><path d="m190.01,89.43l-.75-.17c-1.58.05-3.75.26-3.6-.28.05-.17-3.22-.47-5.18.42-.62.29-1.63.44-3,.52.06.03.09.07.12.11l-.03.45c2.06-.04,4.1-.13,6.17-.27,2.07-.14,4.15-.34,6.26-.79Z"/><path d="m228.95,83.24c.25-.39-1.54-.07-3,.16-3.15.48-6.81,1.05-9.53,1.7-1.88.47-3.16.71-5.01,1.03-1.13.17-.46.31-.53.46,3.97-.6,7.86-1.06,11.96-2.14,1.77-.45,4.07-.77,6.12-1.21Z"/><path d="m66.37,15.06l-1.49.43c-.73.48-1.78,1-1.5,1.33,2.05-.37,4.13-.96,6.22-1.51,2.1-.52,4.23-.92,6.35-1.09,1.71-.13,2.06-1.01,3.52-1.51-.15-.3-1.78-.19-2.13-.03-2.41,1.11-4.64.83-6.91,1.39-1.2,1.49-2.73.5-4.06,1Z"/><path d="m2.87,43.31c-.2.39-.41.79-.61,1.18.11.94.06.86.76-.29.3-.52.81-1.12.97-1.16.29-.08.11.36-.13.88-.2.54-.48,1.13-.4,1.36.35-.46.71-.91,1.1-1.32.47-.73.99-1.42,1.57-2.08.91-1.53,2.04-2.99,3.29-4.36-1.63.99-2.4,1.56-2.47,1.34-.06-.21.57-1.24,2.14-2.99-2.17.51-2.93,2.09-3.64,3.54-.5.59-.62,1.24-.92,1.85-.27.64-.68,1.25-1.68,2.05Z"/><path d="m45.23,80.37c3.4.87,7.21,1.76,6.1.23-.28-.4,1.06-.27,2.32-.13-.23-.69-2.07-.62-3.07-.97-.88.37-1.55.95-5.27-.62-.61-.26-1.66-.5-1.98-.37-.35.15.43.46,1.26.72l.37.07-.34-.04.61,1.12Z"/><path d="m102.05,6.02c.12.02.16.06.13.11.41.26,2.96-.28,2.56.28.75.44,1.7.22,2.63-.3.82-.46,1.51-.95,2.91-.49.98-.26,1.75.17,2.64-.26,1.12-.55.11-.76-.93-.95-3.38.41-7.05.32-9.93,1.61Z"/><path d="m152.31,1.12c1.17.41,4,.24,4.84.96.39.34,3.95-.46,5.89-.84.32-.06.53-.17.79-.25V.4c-3.02-.33-5.8.54-8.79.41l-2.19.17c-.29.02-.47.07-.54.14Z"/><path d="m278.46,63.37c.55-.21,2.49-1.21,4.42-2.53,1.95-1.29,3.87-2.9,4.7-3.8,1.67-1.72.4-.83.63-1.28-1.08,1.05-2.07,2.23-3.33,2.97-.26.17-1.1.81-1.14.86-.65.73-1.56,1.35-2.47,2-.92.63-1.93,1.17-2.81,1.78Z"/><path d="m270.44,10.11c-1.09-.52-3.51-.1-3.92-1.09-1.1-.63-2.31-.64-3.5-.72-2.06.24-5.1-.57-7.46-.64.4.44.26.88,2.78.92,1.52.04,3.67.43,5.51.79l1.07-.07.3.2-1.31-.1c1.49.46-3.44.87,2.23,1.37.26-.3-.37-.92,1.84-.54.51-.2,2.48.36,2.46-.12Z"/><path d="m230.54,82.55c-.03.07.27.08-.43.25,4.98-1.03,10.3-1.98,14.35-3.89l-.15-.11c-1.06.32-2.14.6-3.21.89-3.49,1.03-7.01,1.95-10.56,2.85Z"/><path d="m255.56,7.66c2.35.06,5.39.88,7.46.64-.13-.78-2.06-.51-2.99-.73-3.55-.83-7.3-1.27-10.95-1.69.55,1.34,4.21,1.24,6.48,1.78Z"/><path d="m195.74,1.25c2.62.09,5.58.05,7.28.98.65.36,1.62.24,1.8-.08.13-.23-.06-.51,1.05-.58.4-.65-1.81-.59-2.97-.69-2.62-.24-5.28-.39-7.93-.44.2.27-.47.57.76.8Z"/><path d="m182.31,3.13c-1.82-.22-3.71-.39-5.01.17-.85.37-1.34.15-2.1,0-2.53-.52-5.05-.54-7.41.09,2.37.57,5.3.46,8.17.4,2.11-.07,4.21-.13,6.32-.2l.03-.46Z"/><path d="m20.42,68.21c-.68.06-2.54-.24,1.3,1.37,2,.82,2.78,1.52,3.66,2.29.45.37-.06.64,1.6,1.17,1.35.41,1.18-.02,1.04-.38-.13-.34-.15-.65-.22-.97-2.51-1.06-4.98-2.22-7.39-3.48Z"/><path d="m124.57,3.16c-.21.62-.2,1.16,3.36.42l2.48-.65,1.59-.19c.66-.29,1.61-.3,2.52-.36l.91-.52c.04-.41-1.06-.22-1.95-.11-2.98.42-5.95.94-8.91,1.41Z"/><path d="m4.58,43.96c-.4.41-.76.86-1.1,1.32-.43,1.06-.59,2.22-.71,3.3-.14,1.1-.1,2.12-.32,3.14-.08.27.07.75.24,1.13.17.39.34.69.36.64.06-.41,1.41,2.32.83.25-.64-1.56-.81-3.33-.55-4.98.23-1.67.8-3.21,1.25-4.8Z"/><path d="m125.58,5.04c-.89.27-2.21.77-2.6.76-1.56-.05-.13-.39.38-.65.34-.18-.14-.24-.76-.18-.72.07-1.48.22-1.47.41,0,.29.26.56.42.84,3.06.25,6.45-.23,9.83-.67l.06-.52c-.04-.05-.06-.1-.05-.16l-.91.08c-2.16.45-4.22.83-4.91.08Z"/><path d="m20.87,29.34c-2.73,1.6-1.62,2.21-4.49,3.99,1.74-.46,3.43-.93,5.12-2.63.17-.24.21-.52.53-.7,4.86-2.58,1.06-1.19-.25-.89-.06.18.15.27-.74.7l.03-.38c-.07-.03-.14-.07-.2-.1Z"/><path d="m36.21,77.85c-.59-.57-1.79-1.43-3.29-1.6-2.91-.27-7.22-3.18-9.38-2.96,4.17,1.98,8.42,3.41,12.67,4.56Z"/><path d="m103.83,90.39l-3.22-.62-1.69-.3c-.03.44-1.44.27-2.8.1-3.16-.74-6.16-1-9.05-.83.25.22,1.1.51,1.69.53,4.9.11,10.29,1.35,15.07,1.11Z"/><path d="m255.11,10.7c-.04-.74-.5-1.35-3.76-1.26-2.42.08-5.22-1.46-7.61-.99.82.36,1.7.61,2.62.84.91.24,1.87.43,2.84.58,1.94.31,3.97.52,5.91.83Z"/><path d="m209.8,84.84c1.18.3,3.39.2,5.82.05-.55-.35.63-.91,2.2-1.5-1.7.06-3.16.5-4.69.84-.77.48-2.15.49-3.33.61Z"/><path d="m219.89,2.38c1.42.56,3.64.97,5.98,1.17,2.33.21,4.79.14,6.65-.05-1.77-.46-3.57-.6-5.38-.74-1.81-.13-3.63-.21-5.43-.37-.13.42-1,.18-1.82,0Z"/><path d="m52.27,17.56c.93-.3,1.55-.59,1.45-.83l-1.07.18-.29-.14.78-.16.7.05c.96-.3,1.39-.53,1.41-.77-2.97.75-5.7.93-8.85,2.26.49.6,3.25-.15,5.14-.39l.71-.19Z"/><path d="m75.71,86.76c-3.8-.62-7.56-1.29-10.88-1.35,1.21.57,2.39.91,4.35.93,2.48,0,5.42.9,8.11,1.13l-.09-.43c-.49-.09-.99-.19-1.49-.29Z"/><path d="m186.46,2.24c3.42,0,5.3-.79,4.22-1.77l-3.36-.11c.5.48-1.98.63-1.51,1.1.97.24.56.52.65.78Z"/><path d="m9.44,37.52c-1.25,1.37-2.38,2.83-3.29,4.36,1.91-1.9,4.07-3.43,5.74-5.49l-.62-.35c-.62.48-1.24.96-1.83,1.48Z"/><path d="m99.15,9.06l-2.1.39-.31.38c1.55-.2,3.11-.37,4.63-.6,1.53-.19,3.02-.47,4.41-.97-.97-.21-2.89-.11-3.31-.51-.58.16-1.08.3-1.57.43-.09.3-.12.6-1.74.88Z"/><path d="m182.31,3.13l-.03.46,4.14.13c.86-.46.81-.95.03-1.47-2.03-.1-1.54-.47-1.58-.79-.32-.17-.78-.34-1.56-.28-.92.07-.38.28-.21.43.63.57,1.81,1.16-.79,1.53Z"/><path d="m64.25,13.77l-.05-.41c-2.77.67-5.96.87-8.09,2.3.51.25.1,1.15,2.96-.39,1.25-.67,3.7-.72,5.18-1.5Z"/><path d="m105.78,90.27l-.24.48c3.21.59,6.16.44,9.17.46l-1.54-.46c-1.65-.28-1.65-.61-1.87-.94-.22-.03-.45-.05-.68-.07-.05.67-.6,1.21-4.84.53Z"/><path d="m142.4,89.91c2.2,0,4.4-.01,6.6-.02,1.42,0,2.49-.04,2.63-.36-1.47-.19-3.02-.17-4.58-.12-1.56.02-3.14.08-4.67.01,0,.16-.01.32.02.49Z"/><path d="m113.17,90.74l1.54.46c2.37.35,4.83.89,6.82.22-2.13-.33-4.37-.59-6.76-.79-1.13-.11-1.52-.11-1.6.11Z"/><path d="m116.21,4.02c.1.05.14.12.31.14,1.22.17-3.26,1.29.19.93,2.49-.18,4.02-.95,3.73-1.61-1.47.06-3.07-.14-4.22.54Z"/><path d="m265.46,71.51c.94-.2,1.86-.5,3.65-1.5,1.46-.88,2.8-1.47,3.67-1.68.51-.3,1.19-.66,1.34-.85-.48.14-.96.28-1.44.42-1.18.57-2.35,1.14-3.5,1.73l-3.52,1.66-.19.22Z"/><path d="m295.49,44.91c-.13.71.02.55.3-.03.3-.57.54-1.63.85-2.6.19-.73.26-1.34.33-1.84.07-.5.09-.9.02-1.22l-.21.02c-.05.95-.25,1.89-.4,2.85-.29.93-.49,1.9-.91,2.83Z"/><path d="m200.02,87.94c-1.49.25-3.1.44-4.66.64-1.56.18-3.08.39-4.39.75,1.53,0,3.04-.18,4.55-.4,1.51-.24,3-.53,4.51-.72l-.02-.28Z"/><path d="m10.07,61.49c-.64,1.42,2.88,2.66,4.49,3.8.05-.31.72-.29-1.37-1.52-.53-.3-1.05-.67-1.58-1.07-.53-.38-1.06-.79-1.54-1.21Z"/><path d="m119.89,6.45c-.33-.27-.07-.77-1.94-.57-2.52.28-.92.86-2.35,1.28,2.07.26,2.86-.47,4.29-.72Z"/><path d="m211.33,4.52c1.24-.06,2.49-.17,3.74-.19-2.33-.27-2.44-.72-2.74-1.19-.17-.27-.71-.51-1.83-.58-.42-.03-1.08.04-1.21.12-.39.24.52.36,1.22.51,2.55.54-2.13.71.08,1.24.23.04.48.07.73.09Z"/><path d="m297.67,40.84c-.05.42-.14.88-.25,1.34-.15.45-.34.91-.5,1.35-.17.44-.3.89-.43,1.29-.14.4-.24.78-.24,1.13.48-.56.82-.52,1.42-5.12Z"/><path d="m143.07,3.58c2.2,0,2.09.51,2.6.87,1.71-.09,3.6.05,4.97-.47l-.07-.24c-1.24-.08-3.38.28-3.6-.11-.49-.86-2.22-.36-3.91-.05Z"/><path d="m138.06,5.07c1.01-.72-1.52-.69-2.75-.94l-1.27.49-.95.9c1.72,0,3.18-.61,4.97-.44Z"/><path d="m36.9,75.68l.17-.51c-1.43-.62-2.82-1.32-4.49-1.71-.08.28-.78.44,1.42,1.18,1.65.57,2.36.98,2.17,1.33.77.12.61-.14.73-.29Z"/><path d="m217.82,83.38c-1.57.6-2.74,1.16-2.2,1.5,1.64-.57,4.06-1.18,4.33-1.69l-.37-.16c-.58.12-1.17.24-1.76.34Z"/><path d="m195.74,1.25c-1.24-.23-.56-.53-.76-.8l-2.51-.15c-.42.7-.49,1.36,3.28,1.61v-.65Z"/><path d="m77.19,87.05l.09.43c1.6.27,3,.34,4.21.26-.86-1.37-2.6-.96-4.3-.69Z"/><path d="m260.51,72.13c.01.07-.11.19.07.19.49,0-1.63,1.16.79.24,2.13-.84.18-.39.43-.65.07-.08.76-.39,1.17-.6-.56.09-1.07.17-2.46.81Z"/><path d="m209.8,84.84c1.18-.12,2.56-.13,3.33-.61l-1.81.23c-.68.13-1.26.18-1.6.12l-3.33.61.72.04,2.68-.4Z"/><path d="m261.35,9.91s-.07.03-.02.06c.27.14-.98.1,1.04.44.69.12,2.01.14.72-.2l-1.74-.3Z"/><path d="m138.21,90.37c.06-.3,2.17-.44,1.67-.8-.85,0-1.7-.01-2.55-.03.3.28-.59.58.88.83Z"/><path d="m277.48,14.89c.02-.36-.71-.75-1.53-1.12-3.66-.54.66.73-.37.79.14.1.35.16.61.19.36.07.72.13,1.08.21.23.04.3.01.21-.07Z"/><path d="m151.13,1.36l1.66-.27c-.76-.42-2.79-.21-4.06-.36l-.07.41.09.41c.45,0,.8-.01,1.14-.03.12-.23.69-.19,1.24-.16Z"/><path d="m47.41,81.49c-.05-.37-1.84-.75-2.3-1.12l-1.33-.21.97.53c.83.35,1.71.62,2.66.79Z"/><path d="m133.09,5.51l.95-.9c-.87.12-1.74.27-2.6.43l-.06.52,1.71-.05Z"/><path d="m94.34,10.32c-.55-.27-1.24-.38-2.61.26.72.08,1.09.55,2.61-.26Z"/><path d="m176.64,90.13l-2.62.35c-.1.41,1.35.2,2.64.07l-.02-.41Z"/><path d="m86.89,11.2c-1.23.22-2.62.42-3.41.92,1.83.02,2.72-.4,3.41-.92Z"/><path d="m252.52,8.98c.82.13,1.78.18,2.87.18-.92-.08-1.45-.35-2.87-.18Z"/><path d="m207.12,85.24l-.72-.04-1.65.24.09.13c.77.04,1.53-.05,2.28-.33Z"/><path d="m162.16,3.41s.02-.07.11-.11c-.12.03-.24.05-.39.06-.07.15-.15.3-.22.45l.5-.41Z"/><path d="m209.72,84.59c.33.06.92,0,1.6-.12-.02-.22-.56-.17-1.6.12Z"/><path d="m189.67,3.84c-.09-.16.07-.39-.85-.38-.68,0-.55.17-.06.29l.91.09Z"/><path d="m148.66,1.14l.07-.41c-.86.13-1.45.3-1.71.53l1.64-.12Z"/><path d="m152.84.98l2.19-.17c-.93-.23-1.67-.18-2.19.17Z"/><path d="m142.36,89.9l.02-.48c-.55-.03-.84,0-.87.12.08.14-.33.32.85.37Z"/><path d="m15.7,33.7l-.41-.16c-.7.52-.15.38-.25.58.24-.11.46-.25.66-.42Z"/><path d="m219.89,2.38c.82.19,1.69.42,1.82,0-.75-.13-1.5-.26-1.82,0Z"/><path d="m277.27,14.96c-.36-.09-.72-.15-1.08-.21l.6.39.48-.18Z"/><path d="m265.65,71.29l3.52-1.66c1.15-.6,2.32-1.17,3.5-1.73.79-.44,1.12-.69,1.13-.81l-.04-.31c-1.27.67-1.73.81-1.35.43.18-.18.42-.42-.41,0-.25.12-.64.33-.96.51-.32.18-.58.33-.57.34.17.15-.59.65-1.55,1.23-.98.54-2.15,1.15-2.77,1.57-.25.17-.34.29-.51.43Z"/><path d="m296.97,31.93l-.4-1.29c-.13-.43-.27-.86-.49-1.26-.2-.4-.4-.8-.62-1.19-.21-.39-.43-.77-.73-1.1.44.61.54,1.03.64,1.23.07.22.06.27.02.3-.06.06-.18.03.26.97.26.49.38,1.04.55,1.57.15.54.36,1.05.45,1.6.11-.46-.39-2.19.32-.84Z"/><path d="m232.05,80.98c-1.42.12-3.21.46-5.07.87.09.12-.14.35.33.35.63,0-1.77.73.45.27,1.54-.32,1.2-.45,1-.58-.09-.06-.16-.31.9-.28,1.93.05,1.41-.49,2.39-.62Z"/><path d="m287.12,58.12c.63-.56,1.27-1.12,1.89-1.7.15-.32,1.55-1.97.18-.64-1.48,1.37-1.9,1.91-2.07,2.34Z"/><path d="m282.36,61.83c-.56.48-1.05.96-.65.75,1.19-.67,2.35-1.71,3.49-2.68-.13-.06-.56.24-1.09.66-.54.4-1.21.88-1.75,1.28Z"/><path d="m241.1,79.7c1.07-.29,2.14-.57,3.21-.89-.23-.15-1.26.06-2.54.41-.99.28-.62.35-.67.47Z"/><path d="m204.81,85.96c-.23.05-.46.09-.7.13l-.06.26c1-.17,2.23-.3,2.64-.59l-1.88.2Z"/><path d="m289.45,55.93c.37-.13,1.19-1.02,1.9-2.01l-.19-.05c-.54.72-1.14,1.37-1.71,2.05Z"/><path d="m276.15,64.98c-.16.08-.32.15-.47.22l-.36.32c.19-.1.42-.21.56-.3.14-.09.18-.16.28-.24Z"/><path d="m234.56,80.39l-1.88.44c.25,0,.45.08.77.01.92-.18.88-.31,1.11-.45Z"/><path d="m281.61,62.06l.76-.33c.94-.87.12-.3-.76.33Z"/><path d="m291.16,53.88c.27-.37.7-.88.63-.92-.01,0-.24.23-.34.36-.47.61-.29.48-.29.56Z"/><path d="m273.77,66.77l.04.31c.91-.6.94-.73-.04-.31Z"/><path d="m252.75,75.45s.16,0,.27-.03c-.03-.04-.16,0-.27.03Z"/><path d="m202.36,86.58l-.02.14c.56-.12,1.13-.23,1.69-.37-.54.09-1.11.16-1.67.23Z"/><path d="m279.55,63.55l-.18.07c.07-.03.13-.06.18-.07Z"/><path d="m291.61,53.59l.23-.13c.41-.62.29-.51-.23.13Z"/><path d="m197.29,2.16c-1.03.31-2.62.55-1.49,1.1.49.23,1.07.45,2.11.51,1.54.13,1.73-.15,1.95-.42-.79-.39-1.17-.75-.46-1.1.32-.16.25-.34-.66-.42-1.1-.11-1.28.14-1.46.33Z"/><path d="m267.98,10.23c-2.21-.39-1.57.23-1.84.54.8.21,1.98.28,2.01.74.01.23.75.65,1.49.72.75.07,1.49-.05,1.8-.22.51-.28-.95-.4-1.37-.59-.83-.38-1.4-.79-2.08-1.19Z"/><path d="m225.3,5.32c.7.59,1.76.86,2.98.98,1.22.11,2.6.11,3.93.19-1.86-.86-4.04-1.3-6.91-1.17Z"/><path d="m223.23,5.19l.86.03c.15-.05.25-.12.46-.13,1.62-.11,2.72-.3,1.12-.93-.42-.16-1.59-.41-1.41-.18.42.55-4.85.24-1.03,1.2Z"/><path d="m204.83,4.07l2.4.26c.04-.29,2.08-.57-.05-.85-1.57-.21-2.7.08-2.35.59Z"/><path d="m216.21,4.46l2.62.83c-.04-.26,1.42-.38.22-.72-.96-.27-2.02-.26-2.83-.11Z"/><path d="m262.72,10.3c-.46-.19-.73-.35-1.01-.39-.3-.05-.62,0-.93,0,.24.11.45.26.73.32.29.06.64.04,1.21.08Z"/><path d="m220.62,5.48l2.32.07c.11-.02.23-.04.34-.05l-.08-.22c-1.04-.02-2.56-.27-2.58.21Z"/><path d="m202.7,3.94c.67.22,1.35.46,2.07.14l-2.07-.14Z"/><path d="m257.55,10.53c-.23-.09-.35-.08-.47-.07.08.03.16.07.47.07Z"/><path d="m7.71,63c.75.61,1.56,1.38,2.18,1.51.68-.19,2.75,1.84,3.92,2.13.44.1,1.34,1.39,2.12,1.33.46-.02-.63-.93-1.25-1.57-.64-.63-1.18-1.05-2.3-1.57-1.4-.64-2.95-1.63-3.56-3-.2-.39-.58-.81-1.02-1.18-.44-.38-.93-.7-1.25-.99-1.17-.98-.5.04-.01.83.41.59.82,1.18,1.07,1.65.26.46.36.78.09.87Z"/><path d="m36.9,75.68c-.12.15.05.41-.73.29-.26.17-2.21-.49-1.36.16.29.24,1.03.61,1.54.77,1.72.52.7-.19,1.13-.25.24-.04.44-.1.78-.08.66.05,2.48.52,1.88.08-.69-.5-2.09-.53-3.25-.96Z"/><path d="m30.93,74.33c-.15-.1-.3-.19-.45-.28l-.51-.02c.19.1.41.23.58.28.15.05.25.01.38.02Z"/><path d="m.85,48.1c.04-.3.11-.6.17-.9-.05.29-.12.6-.17.9Z"/><path d="m273.36,13.38c-.15-.09-.16-.22-1.26-.47.13.09.64.24,1.26.47Z"/><path d="m29.1,24.82l-1.6.64c.08.23.58.41.13.71-.79.52-1.51.96-1.1,1.11.2.08.64-.18.8-.32.57-.54,2.9-1.39,2.09-1.65-.27-.08-.22-.32-.31-.49Z"/><path d="m33.96,23.56c-.55.02-.68-.24-1.82.17-.16.06-.5.34-.44.39.34.21,1.39-.27,2.26-.56Z"/><path d="m52.27,17.56l-.71.19c.04.14-.06.35.87.1l-.16-.29Z"/><path d="m21.07,29.44l-.03.38c.89-.43.68-.52.74-.7l-.71.33Z"/><path d="m24.54,27.16l.38.11c.68-.46-.09-.16-.38-.11Z"/><path d="m295.65,29.6c-.44-.94-.32-.91-.26-.97.03-.03.05-.09-.02-.3-.09-.2-.19-.62-.64-1.23-.62-.9-1.07-1.54-1.48-1.94-.9-.83-1.94-1.84-.64-.05.27.34.48.66.64.96.18.29.34.54.48.76.29.44.54.76.77,1.02.38.58.7.96,1.15,1.76Z"/><path d="m286.32,19.4c.98.7,2.42,1.96,2.47,1.72.02-.08-.29-.47-1.41-1.25-1.05-.82-2.82-1.65-2.9-1.64-.21.06,1.34.81,1.84,1.17Z"/><path d="m287.68,19.76c-.72-.64-1.14-1.07-1.74-1.41-.75-.46-2.08-1.26-2.19-1.19-.06.04.39.4,1.18.87.86.51,1.72.96,2.75,1.73Z"/><path d="m277.32,14.76c-.09-.09-.07-.15-.88-.47-.26-.09-.42-.08-.63-.12.51.16,1.01.37,1.51.59Z"/><path d="m290.09,22.08c-.22-.17-.09-.05.03.07l-.03-.07Z"/><path d="m278.77,15.43l-.35-.15-.35-.15c.22.13.45.23.7.29Z"/><path d="m165.57,2.78c-.18-.34-1.05-.42-2.26-.28-1.54.19-.92.52-1.07.79,1.5,0,1.55-.66,3.33-.52Z"/><path d="m184.88,1.45c.04.32-.45.69,1.6.8-.12-.27.3-.55-.68-.79h-.93Z"/><path d="m165.59,2.77l.19.08c-.07-.03-.13-.05-.19-.08Z"/><path d="m75.71,86.76l1.5.29c-.24-.18.56-.31-.64-.51-.69-.11-.89.05-.86.21Z"/><path d="m96.12,89.59c1.37.16,2.77.34,2.8-.1-1.03,0-2.17-.07-2.8.1Z"/><path d="m143.07,3.58c1.68-.3,3.41-.81,3.91.05.22.39,2.37.02,3.6.11-.7-.43-1.26-.92-2.13-1.29-1.86-.82-5.19-.68-7.84.3-.33.12-.49.29-.9.37-1.53.31-1.58,1-.03,1.15q.65.06.98-.4c.16-.22.09-.49,1.25-.58.36-.03.77.19,1.15.29Z"/><path d="m130.49,4.96l.91-.08c1.53-.89-1-1.26-.99-1.96l-2.48.65c-.18.66,3.17.64,2.56,1.38Z"/><path d="m134.51,2.38c-.91.06-1.87.07-2.52.36.03.03.01.08.09.08,1.14.1,1,.82,2.36.6,2.02-.32-.29-.66.06-1.04Z"/><path d="m139.02,2.69c.24-.08.52-.15.49-.18-.08-.11-.27-.2-.42-.3-.11.07-.3.14-.3.19,0,.09.13.17.23.29Z"/><path d="m151.13,1.36c-.56-.04-1.13-.08-1.24.16.53.02,1.28.17,1.24-.16Z"/><path d="m148.75,1.55l-.34.13c.15-.04.3-.08.34-.13Z"/><path d="m9.44,37.52c.59-.52,1.21-.99,1.83-1.48.06-.5.91-1.33,1.88-2.12.97-.8,2.04-1.59,2.45-2.17-.24-.15-.13-.63-1.77.42.9-.12-.21.77-.88,1.36-.83.71-1.4.79-1.85.87-.68.46-1.33.97-1.99,1.46-1.57,1.76-2.2,2.78-2.14,2.99.07.23.84-.34,2.47-1.34Z"/><path d="m11.1,34.4c.45-.08,1.03-.15,1.85-.87.67-.59,1.78-1.48.88-1.36-1.12.71-2.58,1.53-2.73,2.23Z"/><path d="m2.87,43.31c1-.81,1.41-1.41,1.68-2.05.3-.61.42-1.26.92-1.85-1.53,1.19-2.19,2.56-2.6,3.9Z"/><path d="m.85,48.12c.04-.31.12-.62.17-.93-.23.27-.31.59-.17.93Z"/><path d="m99.15,9.06c1.62-.28,1.66-.58,1.74-.88-.31-.36.56-.39,1.48-.41.45-.47.01-.91,2.35-1.36.41-.57-2.14-.02-2.56-.28-3.23,1.09-3.34,2.08-3.02,2.93Z"/><path d="m125.56,5.04l1.04-.17c-.61-.12-.74.08-1.04.17Z"/><path d="m163.92,90.17c-.39.16-.5.31-.6.46,1.69-.09,3.37-.18,5.05-.27,1.52-.09,1.54-.29,1.59-.49-.9.01-2,.13-2.55-.04l-3.49.34Z"/><path d="m187.43,88.07c-.05-.14-.15-.29-1.07-.24-.42.03-.96.2-1.44.31.61.12,1.59,0,2.51-.08Z"/><path d="m167.41,89.83c.55.18,1.65.06,2.55.04-.53-.19-1.56-.1-2.55-.04Z"/><path d="m177.48,89.93c0-.08.78-.22.03-.25-.08,0-.31.02-.38.04-.48.14-.19.19.36.21Z"/><path d="m66.37,15.06c1.33-.49,2.86.49,4.06-1,.03-.91-2.83.3-4.24.45.07.18.12.37.18.55Z"/><path d="m83.35,10.68l-.33.11c.1-.04.2-.07.33-.11Z"/><path d="m66.19,14.51l-.2-.04c.07.01.14.02.2.04Z"/><path d="m202.36,86.58c.56-.07,1.13-.14,1.69-.23l.06-.26c-1.18.16-1.74.29-1.75.49Z"/><path d="m105.78,90.27c4.25.68,4.79.14,4.84-.53l-.86-.8c-3.13-.7-4.99-.15-7.46-.23-.36.58-.19,1.15,3.48,1.56Z"/><path d="m146.33,90.51l.36.02c0-.07-.15-.08-.36-.02Z"/><path d="m222.94,5.55l.58.13-.25-.18c-.11.02-.23.04-.34.05Z"/><path d="m138.19,90.37c.29.05.58.1.88.15,0,0,.16-.04.24-.06-.36-.03-.73-.06-1.12-.09Z"/><path d="m90.7,87.17l-1.57-.37c.08.24.13.49,1.57.37Z"/><path d="m163.32,90.63l.31-.46c-.83.04-1.75.06-1.88.26-.14.2.67.22,1.57.2Z"/><path d="m94.06,9.51c.06-.22.05-.43-.78-.43.12.18-.21.47.78.43Z"/><path d="m89.84,9.07l.19.05c-.07-.01-.13-.03-.19-.05Z"/><path d="m96.43,8.29c-.2-.12-.22-.32-.63-.32-.55,0-1.02.26-.83.34.37.16-1.23.9,1.3.45.06-.16.11-.31.17-.46Z"/><path d="m96.43,8.29c-.06.15-.11.3-.17.46,1.24-.32,1.11-.45.17-.46Z"/><path d="m45.62,19.63c-.12,0-.24-.02-.39-.01-.02,0-.28.11-.29.13-.02.06.04.09.07.14l.6-.26Z"/><path d="m44.62,79.25l.34.04c-.12-.02-.25-.04-.34-.04Z"/><path d="m263.91,9.4l1.31.1-.3-.2c-.36.02-.71.05-1.02.1Z"/><path d="m52.66,16.91l1.07-.18c-.1-.09-.34-.1-.57-.12l-.5.3Z"/><path d="m102.38,7.77c-.92.02-1.79.05-1.48.41l1.48-.41Z"/>
                  </g>
                </mask>
              </defs>
              <path class="mask" d="m292.24,16.87C213.84-4.5,116.16-2.55,40.74,21.88,21.18,28.22,1.22,37.97,1.93,50.51c.52,9.14,12.26,16.97,25.52,22.42,20.62,8.48,45.79,12.97,71.1,15.42,42.68,4.12,87.46,2.65,128-5.81,22.14-4.62,43.49-11.58,57.25-22.22,13.76-10.65,18.55-25.49,7.5-37.06-11.05-11.57-39.95-17.68-60.24-10.95"
                    mask="url(#path-mask)" stroke="black" stroke-width="2" fill="none"
                    stroke-dasharray="711.904052734375" stroke-dashoffset="711.904052734375">
              </path>
            </svg>
        