
            <svg xmlns="http://www.w3.org/2000/svg">
              <defs>
                <mask id="path-mask">
                  <g fill="white">
                    <path d="m151.77,5.91c-1.85-.17-.73.29-1.13.43l-1.3-.31c-1.05-.34-2.3-.63-3.3-1-2.05-.79-6.08-.95-7.83-.62-1.16-.15-1.91-.13-2.42-.01-1.54-.28-3.88-.17-5.05-.59-.31-.25-1.67-.55-.51-.74.84-.11,1.75-.16,3.07.1,1.09.22,2.09.28,2.73.12l1.03.09c1.3-.04,2.96.85,4.02.32.4.05,1.14.15,1.15.15,1.07-.47,3.41.07,5.45.41v.16c-.56,0-.45.05.18.14.1,0,.21.02.32.03l.04.23c-.35-.03-.86-.13-.86-.03,0,.02.24.09.37.11.59.07.43-.03.5-.08.68.05,1.36.1,2.03.18.16.02.33.04.5.07-.27.08-1.93-.08-.5.3,1.51.39,2.06.27,2.41.11.33-.16.99-.11,2,.21.04.33,1.54.51,2.55.74l-.07.09c-1-.02-.25.15.58.33,1.08.42,1.25.13,1.95.29l.13.08-.15-.08c.1-.17-.26-.5,1.75.04,1.25.33,2.35.52,2.21.18l1.25.31.99.66c-.68-.17-1-.18-1.08-.09-.84-.11-.93-.02-.17.31,1.07.31,1.39.51.96.58-.2.04-.48.08.22.29.41.13,1.33.29,1.33.26,0-.52,2.82.35,4.01.43.24.02.36-.02.53-.03l.24-.07c2.51.86,5.02,2.04,7.34,2.73.59.17,1.3.65,1.81.98.89.64,1.55.94,2.17,1.06.74.42,1.44.93,2.15,1.41.71.48,1.41.97,2.08,1.5l-.02.19c-.02.27.6.82,1.45,1.41.65.47.55.17.66.11,2.3,1.67,4.54,3.49,6.48,5.87l-.04-.13c.08,0,0-.25.37.2.17.08.3.06.74.69-.44-.02.33,1.24.82,2.35.53,1.19.92,2.55,1.09,3.91.16,1.35.15,2.67.05,3.81-.12,1.58-.45,2.64-1.13,4-.41.83.04.49.14.63-1.41,2.69-3.4,4.94-5.53,6.92l-.19-.23c.31-.51.09-.53-.24-.49-.58.07-.12-.5.95-1.56.28-.35.55-.71.81-1.07.52-.6,1.17-1.3,1.18-1.73-.3.38-.64.72-.97,1.07-.22.05-.89.58-.27-.32.49-.32.88-.77,1.08-1.35.4-.55.78-1.1,1.11-1.69.85-.46,1.92-1.84,2.6-3.66.02-1.4-.25-3.31-.75-3.51-.1-1.73-.64-3.48-1.67-4.96.1-.11.38-.03.28-.39-.13-.49,1.07,1.07.17-.46-.65-1.05-.73-.69-.79-.5-.03.09-.25.26-.49-.53-.51-1.44-.84-.78-1.6-1.75-.07-.19-.08-.37-.25-.55-.48-.54-.58-.43-.78-.51-1.66-1.66-3.56-2.94-5.47-4.55-.99-.85-1.78-.92-2.25-.9-3.19-2.08-6.59-3.85-10.14-5.28.04-.07.18-.1.09-.22-.25-.32,1.6.06-.25-.74-1.65-.65-.35.22-.65.29-.09.02-.65-.15-.99-.24-1.56-.46-3.17-.94-4.8-1.43-1.62-.53-3.29-.94-4.9-1.41-.95-.26-2.57-.3-3.25-.85-.78-.59-6.45-2.12-8.34-2.25Zm10.89,2.68l.38-.02c-.16-.05-.34-.12-.47-.14-.13-.02-.19,0-.29.01.13.05.25.1.38.15Zm18.12,6.21c.06.04.15.09.22.14.01-.05-.08-.1-.22-.14Z"/><path d="m137.37,3.63c4.34.55,8.49,1.79,12.7,2.84.3,1.19,3.16,1.27,4.87,1.91.27.41.12.76,2.06.99,1.18.13,2.77.7,4.22,1.13,1.1.49-2.77.5,1.58,1.31.6.23,1.5.39,1.47.77-.02.19.5.6,1.06.72.57.13,1.15.09,1.41-.01.43-.18-.69-.41-.99-.61-.6-.39-.99-.77-1.47-1.16.41-.12,1.87.52,1.92.13.73.84,4.2,1.32,3.93,2.04-.13.35-1.57.28-2.28.52-.73.23-3.23-.5-5.17-1.2-.87-.32-1.67-.74-2.55-1.04-.85-.28-1.81-.92-2.52-.81-.76.12,1.64.68,1.09.92-1.44-.14-2.9-.43-4.42-1.1.05-.63-.25-1.21-2.78-1.3-1.88-.06-3.92-1.46-5.8-1.22l-.67-.13-1.22-.47c-1.98-1.13-4.28-1.69-6.88-1.57-1.39-.77-3.04-1.3-5.27-1.29l-.93-.12c.12-.04.2-.1.36-.1,1.26-.05,2.12-.16.92-.79-.31-.16-1.21-.41-1.08-.2.3.5-3.77.07-.89,1.11-.81-.05-1.96-.31-2.01.12l-1.38-.2c-.02-.23,1.12-.31.2-.64-.73-.26-1.55-.27-2.19-.14l-.87-.12c-1.79-.27-1.86-.71-2.07-1.13-.12-.24-.53-.47-1.4-.55-.32-.03-.84.01-.95.09-.31.21.39.33.93.48,1.96.53-1.67.6.02,1.11-.47.34-1.57.21-2.61.12v-.27c.05-.26,1.63-.47,0-.76-1.21-.21-2.09.03-1.88.49l-1.6-.11-2.19-.52c-.6-.34-.89-.67-.34-.98.25-.14.2-.3-.5-.37-.85-.08-.99.11-1.13.28-.4-.09-.79-.16-1.19-.24v-.58c2.03.13,4.34.06,5.64.88.49.32,1.25.2,1.4-.07.11-.2-.04-.46.83-.5,1.78-.1,3.58-.08,5.4.06,1.81.17,3.64.46,5.47.9,2.16,1.04,6.81,1.7,9.76,1.41Zm22.07,7.15c-.23-.07-.47-.06-.71-.09.17.11.32.26.53.33.22.08.49.08.93.15-.34-.19-.53-.33-.74-.4Z"/><path d="m55.82,65c1.68.12,2.4.55,3.22.99.41.21.07.59,1.42.61,1.09.02.89-.31.72-.6-.16-.28-.23-.55-.34-.82l3.94.41c-.02.27-.52.58,1.27.74,1.35.12,1.95.34,1.87.7-.17.2-1.76.07-1.01.46.26.14.88.32,1.29.35,1.39.1.5-.32.82-.47.18-.09.32-.19.58-.24.51-.12,1.97-.08,1.45-.35-.6-.31-1.68,0-2.62-.16l.05-.5c3.75.26,7.36.71,10.94,1.2-.62.52-1.05,1.14-4.11.45-.51-.11-1.33-.14-1.56.05-.24.21.39.33,1.09.42.21.3.41.61.53.93l-1.04.07.81.3c-2.49.16-4.8-.13-6.91-.8-.53-.39-1.58-.9-2.75-.7-2.24.4-6-1.09-7.58-.29-2.05-.57-4.29-.73-6.42-1.16.2-.6-1.43-.96-2.82-1.06-1.25-.07-1.96-.27-2.84-.63.43-.46,2.5.35,3.42.18.34-.06,1.34.68,1.89.37.34-.19-.69-.58-1.31-.89-.63-.32-1.15-.46-2.11-.44-1.21.02-2.6-.11-3.51-.88-.54-.47-1.71-.49-2.4-.52-1.2-.05-.3.3.33.61,1,.48,2,.97,1.7,1.36h-.71c-1.04-.94-3.39-1.24-5.31-1.82-.74-.23-2.54-.47-1.85-.98.16-.11-2.23-.54-2.35-.4-.25.31-.87.1-1.71-.17l-.62-.21c-1.2-.25-2.65-.47-1.94-.98.71-.19.68-.17-.25-.63-.41-.21-.93-.51-.99-.64-.19-.48,1.47.26,1.83.1.88.25,1.8.44,2.67.7.87.24,1.68.56,2.33,1.1.33.29,1.53.35,1.47.27-.24-.33,2.21.25.58-.5.12-.15.31-.12,1.01.1,2.27.7,4.53,1.54,6.97,1.75.05,1.36,2.95.9,4.48,1.27,1.8.35,3.21.1,5.1.53-.5.28-1.96.56,1.28.81Zm7.47,1.63l-.39.11c.16.04.35.1.49.11.12,0,.19-.05.29-.08-.13-.05-.26-.09-.39-.14Z"/><path d="m89.63,3.36c-2.3.31-5.12.44-7.23.84-1.9-.03-4.75.48-6.97.69-.63.06-.88.1-1.32.18-1.38.25-1.67.68-.14.55,1.62-.14,2.13-.12,2.55-.06.44.07,1.24.11,2.76-.25.17-.04.8-.13,1.07-.15,2.65-.19,5.18-.53,7.8-.72,6.01-.46,12.02-.81,18.04-.96l-.02-.18c-.51.02-.92,0-1.04-.06-.89.06-1.96.14-2.7.16-1.78.07-3.97.32-5.38.17-.85-.12-7,.1-8.23.31-.21.03-.42.08-.38.1.32.16-.85.16-1.38.17-.64,0-1.03-.02-1.58-.02-.31,0-1.28.14-1.2.07.05-.04.61-.14,1.37-.23,1.57-.19,3.81-.34,4-.61Z"/><path d="m.12,34c-.3,1.84-.06,4.1.72,5.08-.1-.5-.06-1.16-.14-1.5-.2-.65-.24-1.32-.27-1.94.03-.62.15-1.2.48-1.63.54-.7.45.44.66,1.2.14.68.27,1.24.25,1.79.07.54-.05,1.08-.03,1.64-.04.71.31,1.83.68,2.27,1.27,1.47,1.37,2.33,1.84,3.42.43.59,1.08,1.24,1,1.56-.02.07-.34-.1-.43-.2-.62-.75-.42-.94-.56-1.36-.65-.36-1.32-.73-1.95-1.2.13,1.63,1.69,2.86,2.96,3.94.15-.21.38-.27,1.27.53.11-.14.31-.2.3-.43-.03-.7,1.32.67,1.91.85.16.05.5.26.5.44.01.36-.56.05-1.21-.32-.37-.21-.36.24-.52.4.64.26,1.83,1.72,2.29,1.44-.15-.2-.63-.63-.05-.34l.04.33c.67.66-.06.68.87,1.36.34.24.83.14,1.24.2.08-.13.27-.16.76.1,0-.06.01-.13.01-.19l-.49-.36c-.34-.4-1.08-1.13-1.29-1.48-.21-.36.08-.24,1.88.88.24.15.46.04.69.05-1.48-1-3.2-1.98-4.07-3.45-.11-.17-2.2-1.44-3.26-2.66-.44-.2-.84-.58-1.42-1.35-.85-1.13-1.5-2.44-1.9-3.77-.41-1.34-.58-2.66-.75-4,.31-.51.41-1.21.59-1.93.07-.37.21-.72.32-1.05.15-.32.3-.61.51-.82.79-.82,1.35-1.44,2.04-2.67.99-1.66,1.86-2.01,2.25-1.62.75-.71,1.53-1.4,2.34-2.08-.33-.18.2-.91.56-1.49-1.43.53-2.94,1.16-.74-1.14.29-.29-.01-.25-.39-.06-.79,1.05-2.55,1.86-3.16,2.83-1.35,2.23-1.44,1.42-1.93,1.43l-.48.54c.11.19-.07.55-.58,1.2.15.25-.13.71-.54,1.39l.28.11c-.44.63-.49.46-.61.39-.53.58-1.03,1.44-1.44,2.19-.19.38-.37.73-.55.99-.16.27-.32.45-.49.49Z"/><path d="m126.17,2.83c-.83-.04-1.43,0-1.87.08-.93.15-2.08.29-.37.59,2.69.48,2.83-.03,4.24-.03l2.57.34c1.18.42,3.51.31,5.05.59v.26c-1.48-.15-3.22-.05-4.32-.32-1.39-.37-2.85-.39-4.5-.45-3.24-.1-6.49-.19-9.74-.29-3.25-.08-6.51-.11-9.77-.12-.12-.1-.11-.2.7-.27h1.26s.65.07.65.07c.2.05.39.05.59,0,4.12-.06,4.7-.13,3.13-.55-.05-.01-.06-.03-.09-.04-3.65.23-4.63-.51-8.21-.23-1.48.11-3.46.22-3.87-.04.97-.06,2.06-.35,2.39-.24.63.21,1.64.05,2.64.01,3.56-.13,7.03-.13,10.69-.1,5.21.06,10.56.46,15.89.77,1.06.07,2.75.12,2.8.45-.64.17-1.64.1-2.73-.12-1.32-.27-2.23-.22-3.07-.1-1.36-.18-2.72-.38-4.07-.24Zm-6.53.37c-.02-.11-.39-.3-1.45-.27-1.03.02-2.53.13-2.59.24-.12.22,1.22.02,1.7.09.93,0,2.41.25,2.34-.05Zm-3.02-.92c-.67-.02-1.87-.03-1.92.14-.03.09.41.19,1.12.2.77,0,1.52-.04,2.51-.05-.73-.13-1.18-.27-1.71-.28Zm3.93.79l.39.03-.05-.04c-.29-.01-.31,0-.34.01Z"/><path d="m102.33.18c-1.63.15-2.89.08-4.73-.09-1.33-.11-2.83-.1-4.37-.05-1.54.07-3.12.22-4.63.31-1.51.08-3.14-.01-4.53.39l.02.53c.35.22,1.23.55.22.71-2.98.46-2.5,1.43-4.52,2.01,1.09-.11,2.05-.3,2.9-.56.11-.01.2-.03.28-.07.1-.25-.4-.54.79-.73.93-.15,1.61-.09,1.76.2l.16.06-.15-.07c-1.4-.08-1.4.5-2.55.53-.07.03-.1.07-.08.1,1.35.48,2.91-.18,4.35-.18,1.8-.66,3.75-.7,5.71-.3.59.13.98.32,1.62-.02,1-.52,2.46-.37,3.87-.21,2.01-.38,1.09-.89.6-1.39-.13-.13-.55-.31.16-.39.61-.07.97.07,1.22.22h.72c-.38-.42,1.55-.6,1.16-1.02Z"/><path d="m104.12,69.67c1.29.25,2.63.46,4.39.14,2.19-.59,4.51-.77,7.03-.5.46-.25,1.34-.36,2.13-.5l1.33.06c-.17-.15-.43-.44-.49-.44-2.4.26-4.06-.29-6.38-.12-1.69.13-3.23.15-3.71-.39-.01-.02-.19-.02-.28-.02-.32.07-.63.15-.95.22.3.62-1.4.61-2.71.6-4.28-.05-8.58.33-12.91,0-2.61-.21-2.76-.06-1.5-.72.38-.2.63-.42.94-.63-2.49.11-5.34-.26-7.36.34.46.07.91.17,1.4.21.79.06,1.94-.31,2.28.09.14.16-1.12.44-1.92.58-.43.08-1.22.02-1.86,0-.53,0-1.1-.05-1.36.1-.34.2.21.32.75.44.85.18,1.07.57,2.41.59,1.7.42,3.54.64,5.76.47,2.54-.52,5.49-.52,8.47-.53-.04-.15.09-.33.63-.33.95,0,.35.25.56.38,1.25-.53,2.53-1.2,3.36-.01Z"/><path d="m109.42,3.19l.65.08h.29s.29,0,.29,0c4.12-.06,4.7-.13,3.13-.55-.05-.01-.06-.03-.09-.04-3.65.23-4.63-.51-8.21-.23-1.48.11-3.46.22-3.87-.04-1.07.18-3,.23-3.8.46,1.04.08.04.36-.5.39-1.58.08-.63-.15-.86-.25-.05-.02,0-.05,0-.07-1.22-.11-3.27.26-4.63.26-.83.14-1.57.19-2.21.17-.19.27-2.43.42-4,.61-.75.09-1.31.18-1.37.23-.09.07.88-.07,1.2-.07.55,0,.94.03,1.58.02.53,0,1.69-.01,1.38-.17-.03-.02.18-.07.38-.1,1.24-.21,7.38-.42,8.23-.31,1.42.15,3.6-.1,5.38-.17.74-.02,1.81-.1,2.7-.16.87-.1.91,0,1.04.06l.02.18,1.28-.02c-.12-.1-.11-.2.7-.27.16-.04.27-.12.48-.13.68-.03.68.05.77.12Z"/><path d="m74.06,4.45l-.07-.21c-.57-.36-1.03-.72-1.73-1.03-1.49-.67-4.08-.41-6.05.61-.25.12-.35.28-.67.38-1.16.36-1.14.97.07,1.02q.5.02.72-.41c.1-.2.03-.44.92-.58.27-.04.61.13.91.2,1.7-.11,1.65.36,2.08.65-1.88.48-3.84.74-5.82.92.72-.7-1.23-.51-2.2-.65l-.93.52-1.97.53s-.05-.09-.05-.14c1.11-.85-.89-1.06-.94-1.67l1.22-.24s.02.07.08.07c.9.04.84.66,1.88.37,1.53-.41-.28-.56-.04-.92l.66-.51c2.98-.43,5.99-1.08,8.95-1.14l1.27-.17.1.36-.26.13.34-.12.79-.11c.41-.01,1,.08.95-.2l1.27-.32-.17.08-.2-.04c.93.31,3.12,0,3.8.63.32.3,3.03-.57,4.53-.94.25-.06.4-.16.6-.24.35.22,1.23.55.22.71-2.98.46-2.5,1.43-4.52,2.01-1.96.38-3.87.6-5.74.46Zm-8.71-.78c-.07-.09-.23-.16-.35-.24-.08.06-.22.14-.21.19,0,.08.11.15.2.24.18-.09.39-.16.37-.19Z"/><path d="m6.6,47.62c-.89-.81-1.12-.74-1.27-.53.26.28.5.58.77.85l.66.58c.77.77,1.54,1.53,2.37,2.21.82.69,1.69,1.3,2.71,1.87.81.48,1.95,1.17,2.81,1.91.93.82,2.96,1.93,3.33,2.06,3.93,1.35,7.43,3.1,11.04,4.69,1.33.55,2.27.6,3.39.94,5.73,1.78,11.56,3.13,17.42,4.24.63.12,1.26.31,1.66.16.2-.6-1.43-.96-2.82-1.06-1.25-.07-1.96-.27-2.84-.63-.47.13-1.28-.08-2-.21h-.71c-1.04-.94-3.39-1.24-5.31-1.82-.74-.23-2.54-.47-1.85-.98.16-.11-2.23-.54-2.35-.4-.25.31-.87.1-1.71-.17-.25.09-.47.01-.63-.21-1.18-.24-2.64-.46-1.93-.97-.31-.1-.61-.23-.92-.34-1.05-.1-2.14-.23-3.34-1.09-.63-.03-1.26-.03-1.87-.19-.6-.19-1.19-.54-1.7-1.26-.57-.26-1.14-.55-1.69-.84-.55.19-1.65-.47-2.54-.98-1.33-.71-.95-.85-.92-1.1-1.8-.33-3.22-1.42-4.37-2.79-.41-.05-.91.04-1.24-.2-.93-.68-.2-.71-.87-1.36-.44.29-1.63-1.17-2.27-1.43-.34-.3-.67-.62-.99-.94Z"/><path d="m47.45,6.44c-.97-.12-2-.07-3.26.57.83.1,1.64.24.82.78-.64.43-1.29.09-2.02.39-1.13-.31-1.62.16-2.2.63-.66.54-1.37.81-2,.48-1.75.61-1.35.96-1.57,1.39.38.31,1.83.03,2.61.15,1.27.04,2.84-.28,4.3-.8,1.09-.39,2.06-.63,3.16-.79,1.06-.45-.23-.84,1.69-1.27,1.42-.32,1.27.15,1.55.36l1.26-.31c-.14-.23-.37-.45-.4-.71-.02-.17.55-.36,1.1-.46.48-.09.86-.07.61.11-.37.26-1.45.65-.23.59.3-.01,1.27-.54,1.93-.84.21-.11.29-.29.77-.22l-.79.21c.62.61,2.18.17,3.81-.35.4-.69-2.19-.49-2.11-1.07-2.69.85-2.74.4-2.64-.17-1.08.32-2.07.13-3.16.54.29.57-.82,1.34-2.72,1.69-2.65.47.73-.72-.24-.81-.13-.01-.17-.07-.25-.11Z"/><path d="m173.84,58.32l1-.38,1.83-.97.69-.33s-.07-.07-.11-.1c-.43.12-.66.14-.36-.11.04-.04.21-.12.27-.14.57-.15.04.17.07.26,1-.39,1.67-.84,2.01-1.27.54-.7,1.45-1.14,2.2-1.47.75-.32,1.39-.45,1.41-.36.13.56,1.63-.26,2.74-.84.6-.52,1.23-.98,1.8-1.53.57-.54,1.15-1.08,1.73-1.62.51-.46,1.56-1.27,1.09-1.26-.38.02-1.4,1.04-1.74,1.19-.52.24-1.02.76-1.51,1.2-.49.44-.99.76-1.42.68-.74.42-1.59.97-1.84.79-.62.34-1.27.74-1.76.8-1.37.75-2.83,1.35-4.24,1.98-2.85,1.1-5.09,2.7-8.12,3.47l.12.35c.72-.27,1.47-.53,1.92-.48.02.21.08.43-1.04.82l.68.26c.87-.3,1.73-.64,2.6-.96Z"/><path d="m9.63,22.44c.37-.19.67-.23.39.06-2.2,2.29-.69,1.67.74,1.14l.93-.75-.33-.4-.16.03.16-.03c.96-.54,2.72-2.17,2.98-1.45.73-.53,1.54-.85,2.33-1.24.8-.38,1.61-.78,2.34-1.51.22-.2,1.43-.6,1.61-.37.56-.28,1.13-.55,1.71-.79.27-.37.93-.86,1.44-1.3.51-.42.88-.81.53-1.01-.03-.02.35-.25.53-.38,1.7.37,1.76-1.01,2.87-1.28-.03-.05-.05-.11-.07-.16-1.7.17-2.66.55-3.28,1.03-.62.47-.92.99-1.3,1.52l-.21.15.22-.15c-.63.21-1.75.67-1.81.6-.88-1.02-2.68.81-4.3,1.88-1.73,1.08-3.52,2.59-5.32,3.18-.8.41-.96-.03-2.18.95l.19.31Z"/><path d="m110.07,1.78c-.4-.09-.79-.16-1.19-.24-2.92-.23-2.87-.82-2.54-1.45-.96-.25-.93.11-1.4.15.84.89-.62,1.55-3.27,1.64.6.44.64.88-.02,1.32.66.46,1.22.15,1.81,0-.38-.1-.48-.25.04-.26.72-.02.59.2.66.34,1.52.68,3.78.35,5.42.39,2.67.16,5.56.59,8.12.37v-.27s-1.84-.27-1.84-.27c-.61.29-1.12.09-1.64-.11l-2.19-.52c-.18.24-.33.5-1.51.39-.8-.08-1.25-.28-1.63-.49-.88-.49.36-.71,1.16-.97Z"/><path d="m185.52,51.28c.43.08.93-.23,1.42-.68.48-.45.99-.96,1.51-1.2.35-.14,1.36-1.17,1.74-1.19.47-.02-.57.79-1.09,1.26-.58.55-1.16,1.09-1.73,1.62-.57.54-1.2,1.01-1.8,1.53l.63-.09.65-.41c1.52-1.58,3.81-2.98,5.5-4.71.31-.51.09-.53-.24-.49-.58.07-.12-.5.95-1.56l-.09-.12c-.13-.16.13-.53.76-1.18.13-.14.25-.28.34-.42-.22.05-.89.58-.27-.32l-.15-.06c-2.39,2.63-5.4,4.74-8.26,6.95.67-.03,1.8-.34.11,1.06Z"/><path d="m135.21,67.57c.76-.11.78.62,2.08-.09.97-.53,2-.11,3-.4.19-.7,1.58-.78,3.06-.76,1.25.02,2.24-.25,3.12-.64.91-.4,1.28-.73.23-.86-1.35.21-2.63.17-4.06.53-4.45,1.11-4.96,1.16-8.66,1.06-.09,0-.26,0-.28.01-1.78.86-4.7.24-6.53.98.21.29.26.62,1.56.66.02-.23.32-.28,1.2-.34,1.86-.12,3.61-.17,5.29-.15Z"/><path d="m185.52,51.28c1.69-1.39.56-1.09-.11-1.06-1.29.62-2.21.88-3.78,2.21-.28.25-.66.5-1.11.76-.46.24-.98.48-1.54.72-.56.24-1.13.5-1.71.74-.59.23-1.17.45-1.7.69-1.43.67-2.95,1.24-4.46,1.84-1.54.53-3.08,1.06-4.65,1.41-1.37.31-2.25.6-1.98.99.27.38,1.36.04,2.56-.41.85-.25,1.67-.57,2.51-.85,3.04-.77,5.27-2.38,8.12-3.47,1.41-.63,2.87-1.23,4.24-1.98.3-.25.6-.57.88-.72.63-.32.78-.2.88-.09.25.18,1.1-.37,1.84-.79Z"/><path d="m23.04,15.53c.39-.53.69-1.05,1.3-1.52.61-.48,1.57-.86,3.28-1.03.78-.41,1.59-.77,2.38-1.15.61-.38,1.26-.72,1-.93-1.32-.02-2.74.86-4,1.39-4.81,1.95-9.64,4.13-13.88,7.31-1.12.86-1.18,1.11-1.5,1.59,1.8-.58,3.59-2.09,5.32-3.18,1.63-1.07,3.43-2.89,4.3-1.88.06.07,1.18-.39,1.79-.59Z"/><path d="m91,67.35c-.31.21-.56.43-.94.63-1.25.66-1.11.51,1.5.72,4.34.34,8.64-.04,12.91,0,1.3.01,3.01.03,2.71-.6-2.45-.59-5.08-.41-7.99-.04-1.87.24-3.31.11-2.95-.57-1.89.3-3.45-.2-5.24-.15Z"/><path d="m127.16,67.41c1.84-.74,4.75-.12,6.53-.98.02-.01.2-.01.28-.01,3.7.1,4.21.05,8.66-1.06,1.43-.36,2.7-.32,4.06-.53-.67-.46-1.38-.87-3.63-.81l-1.57.59c-.54.46-1.47.55-2.79.66-1.6.15-3.53.43-4.91.55-2.8.24-5.23,1.08-7.93.95l.77.66c.18-.02.36-.02.53-.03Z"/><path d="m159.45,61.24c-.69.69-1.24,1.36,2.05.56,1.06-.27.45.12.41.27-1.53.77-3.38.98-4.59,1.06-3.07.13-3.64.71-4.15,1.46l-.6.16c-2.02.09-5.24.56-2.37-.9.52-.26.45-.55.65-.82,1.67-.31,3.33-.71,4.99-1.04,1.08-.22,1.87-.45,1.9-.79l1.85-.4c-.04.14.02.28-.13.44Zm-5.18,1.67c-.07,0-.18.02-.33.11.09-.01.19-.03.33-.11Z"/><path d="m166.2,11.63c.73.84,4.2,1.32,3.93,2.04-.13.35-1.57.28-2.28.52-.73.23-3.23-.5-5.17-1.2-.87-.32-1.67-.74-2.55-1.04-.85-.28-1.81-.92-2.52-.81-.76.12,1.64.68,1.09.92,2.7,1.5,6.54,1.93,9.3,3.54.87.5.85-.07,1.62.13.8.07-2.36-1.4.38-.58,1.1-.2,3.56.42,3.48-.4-.54-.27-1.25-.56-1.58-.79-.8-.6-.45-1.48-3.05-1.54-.01,0-.2-.13-.45-.29-.25-.16-.56-.35-.81-.47-1.46-.7-2.92-1.15-4.3-1.28.2.86,2.13.72,2.9,1.26Z"/><path d="m173.31,16.94c.73.31,1.22.61,1.52.93.77.82,2.45,1.78,3.97,2.1,1.35.29,2.67.36,3.02-.04.66-.74-.76-1.79-4.35-3.16-.88-.33-1.85-1.02-2.79-1.54-1.24-.05-.99.54.07,1.27,1.06.74,2.22.99,3.19,1.03.36.01,1.84.45,1.56.74-.24.26.45.88-.19.94-.39.04-.65.2-1.61-.16-1-.38-1.35-.74-1.37-1.01-.03-.27-.09-.53-1.21-.95-1.08-.41-1.69-.47-1.81-.17Z"/><path d="m125.86,66.77c2.7.13,5.13-.71,7.93-.95,1.39-.12,3.31-.4,4.91-.55,1.32-.12,2.25-.21,2.79-.66-2.35-.54-5.62.38-8.39.66-4.13.41-8.32,1.18-12.4.92l-.32.26c.62.22,2.75.39-.46.73-1.05.11-1.62.45.2.42,1.9-.26,3.24-1.11,5.73-.83Z"/><path d="m7.85,27.21c-.4-.39-1.26-.04-2.25,1.62-.69,1.23-1.25,1.85-2.04,2.67-.2.21-.35.5-.51.82-.11.33-.25.69-.32,1.05-.18.72-.28,1.42-.59,1.93.17,1.34.35,2.66.75,4,.4,1.33,1.04,2.64,1.9,3.77.58.77.98,1.16,1.42,1.35-1.29-2.27-2.77-4.55-3.18-7.27-.28-1.72.01-3.56,1.1-5.17.92-1.39,2.18-3.29,3.72-4.78Z"/><path d="m128.03,5l-1.38-.2-1.99-.78-.88-.12c-.97.03-1.93.03-2.9.09,1.58,1.11,4.94,1.22,7.33,1.58,4.73.73,9.54,1.32,14.3,2.19l1.3.08c-1.98-1.13-4.28-1.69-6.88-1.57-2.06-.18-4.26-.18-5.27-1.29l-.93-.12-.67-.05c-.01.14,0,.21.02.27l.18.17-.45-.13-1.79-.12Z"/><path d="m197.85,33.12c-.1-1.73-.64-3.48-1.67-4.96-.72-1.22-1.57-2.31-2.11-3.27-.65-.74-1.02-1.06-1.36-1.42-1.66-1.66-3.56-2.94-5.47-4.55-.99-.85-1.78-.92-2.25-.9,2.89,1.98,5.69,4.14,8.05,6.65,2.35,2.48,4.27,5.44,4.58,8.72l.23-.26Z"/><path d="m161.91,62.07c-1.53.77-3.38.98-4.59,1.06-3.07.13-3.64.71-4.15,1.46,4.91-.84,9.88-1.8,14.51-3.78,1.12-.47,1.94-.41,2.86-.77,1.27-.48,3.29-1.09,3.31-1.72-.87.32-1.73.66-2.6.96-1.45.43-2.89.93-4.36,1.31l-2.48.78-2.5.7Z"/><path d="m159.67,7.14c.1-.17-.26-.5,1.75.04,1.25.33,2.35.52,2.21.18-5.14-1.51-10.4-2.64-15.94-3.11v.16s.18.14.18.14c.1,0,.21.02.32.03.93.04,1.85.11,2.08.41.16.02.33.04.5.07l1.91.41c.33-.16.99-.11,2,.21,1.13.25,2.35.21,3.34.63.33.14-.21.16-.78.11l-.07.09.58.33c1.08.42,1.25.13,1.93.29Z"/><path d="m152.56,64.75c-2.02.09-5.24.56-2.37-.9.52-.26.45-.55.65-.82-.93.13-.66-.12-.75-.25l-1.23.28c.45.29-1.13.73-1.11,1.05l.85-.07c-.06.03-.17.09-.17.09-.24,0-.47-.01-.7-.02-1.15-.04-.52-.48-.8-.71-1.33-.2-2.61-.05-3.87.6,2.25-.06,2.96.35,3.63.81,1.06.13.68.46-.23.86-.88.39-1.87.66-3.12.64-1.48-.02-2.86.06-3.06.76,3.27-.37,6.53-1.22,9.77-1.54,1.28-.13,1.91-.45,2.51-.79Z"/><path d="m120.13,67.6c-1.82.02-1.24-.31-.2-.42,3.21-.34,1.07-.5.46-.73-.53.37-1.55.19-2.32.29.1.22-.47.57-.95.51-2.37-.3-4,.49-6.05.52-1.08.33-1.15.09-1.25-.13-1.12-.24-1.38.02-1.7.26.1,0,.27,0,.28.02.48.54,2.03.52,3.71.39,2.32-.17,3.97.38,6.38.12.06,0,.32.29.49.44l2.55.15,1.35.09.12-.5c-2.87.14-3.07-.41-2.88-1.02Z"/><path d="m85.34,69.7c-1.34-.02-1.56-.41-2.41-.59-.54-.12-1.09-.25-.75-.44.26-.15.84-.11,1.36-.1.63.01,1.43.07,1.86,0,.8-.15,2.06-.42,1.92-.58-.34-.39-1.49-.03-2.28-.09-.48-.03-.93-.13-1.4-.21-.6-.3-1.16-.06-1.74-.06-.97.09-2.02.24-1.75.55,1.05,1.22-1.97,1.06-4.68.96.31.27,1.73.26,1.82.59,2.24-.05,4.33.41,6.59.44,1.62.02,1.28-.25,1.47-.47Z"/><path d="m111.07,67.77c2.05-.04,3.68-.83,6.05-.52.48.06,1.05-.28.95-.51-4.1.22-8.17.45-12.27.67-2.05.12-4.22.06-6.26-.03-1.23-.05-2.23.02-3.31.12-.36.68,1.08.82,2.95.57,2.91-.37,5.54-.54,7.99.04.32-.07.64-.15.95-.22.31-.24.58-.5,1.7-.26l1.25.13Z"/><path d="m161.91,62.07l2.5-.7,2.48-.78-.05-.33c-.68.2-1.29.33-1.24.1.05-.23.73-.43,1.34-.62.18-.22.14-.39.11-.56-1.2.44-2.29.79-2.56.41-1.62.27-3.25.7-4.9,1.21-.04.14.02.28-.13.44-.69.69-1.24,1.36,2.05.56,1.06-.27.45.12.41.27Z"/><path d="m30,11.83c-.8.39-1.6.74-2.38,1.15l.06.17h.16s-.15,0-.15,0c-1.11.27-1.16,1.66-2.87,1.28-.19.13-.57.36-.53.38.35.2-.02.59-.53,1.01-.51.44-1.16.93-1.44,1.3.21.12.72-.15,1.18-.37.48-.57,1.51-.9,2.38-1.31.68-.19.82-1.01,1.36-.69.57.35,1.52-.43,2.18-.52.93-.72,1.48-.71,1.94-.54.66-.15,1.52-.07,1.75-.67l.18-.36c-.78.14-1.25-.02-2.29.36-.75.15-.55-.14-.67-.29-3.36.91.21-.75-.33-.89Z"/><path d="m149.34,6.02c-1.05-.34-2.3-.63-3.3-1-2.05-.79-6.08-.95-7.82-.62,1.58.16,3.34.33,2.19.61,3.03.39,6.03.89,8.93,1.01Z"/><path d="m30.33,12.72c-3.36.91.21-.75-.33-.89.61-.38,1.26-.72,1-.93,1.86-.71,3.74-1.84,5.67-1.69.09,0,.13.04.11.09-2.35,1.27-2.3,2.11-1.92,2.84-.52.17-1.05.33-1.56.52-.78.14-1.25-.02-2.29.36,0-.2-.03-.38-.67-.28Zm1.76-1.24c-.42.05-.75.33-.59.38.31.1-.8.91,1.07.26.91-.41.79-.5.06-.42-.17-.08-.22-.26-.54-.22Z"/><path d="m2.37,43.14c-.35-.57-.29-1.2-.88-1.75-.64-.63-.81-1.1-.85-1.43,0-.35.15-.58.2-.88-.1-.5-.06-1.16-.14-1.5-.2-.65-.24-1.32-.27-1.94.03-.62.15-1.2.48-1.63.54-.7.45.44.66,1.2.14.68.27,1.24.25,1.79.07.54-.05,1.08-.03,1.64-.04.71.31,1.83.68,2.27,1.27,1.47,1.37,2.33,1.84,3.42-.64-.36-1.32-.73-1.95-1.2Zm-1.47-7.67s0,.25.03.26c.05.03.09,0,.14-.01-.03-.18-.02-.36-.03-.54-.05.09-.09.18-.14.29Z"/><path d="m171.91,10.02c2.51.86,5.02,2.04,7.34,2.73.59.17,1.3.65,1.81.98.89.64,1.55.94,2.17,1.06-.89-.71-1.95-1.4-3.12-1.93-.58-.28-1.17-.55-1.77-.81-.6-.25-1.21-.47-1.81-.7-3.07-1.22-5.88-2.57-9.15-3.28-.48-.09-1.05-.24-1.29-.2.58.41,1.66.79,2.96,1.04,1.57.29,2.25.64,2.86,1.11Z"/><path d="m173.31,16.94c.11-.3.72-.24,1.81.17,1.12.42,1.18.68,1.21.95.02.26.37.63,1.37,1.01.96.37,1.21.21,1.61.16.64-.07-.05-.69.19-.94.27-.29-1.21-.73-1.56-.74-.97-.04-2.12-.29-3.19-1.03-1.05-.73-1.3-1.32-.07-1.27-.35-.27-.73-.5-1.2-.5.08.82-2.38.2-3.48.4.58.39,1.1.77,1.04,1.03l2.27.76Z"/><path d="m11.98,51.55c1.15,1.37,2.57,2.47,4.37,2.79.58,0,1.51.44,2.43.77.92.32,1.79.6,2.18.42l.05-.64c-.9-.67-1.83-1.04-2.74-1.28-.18.02.11.37-.51.09l-.02-.38c-.15-.12-.32-.23-.51-.32-1.17-.58-1.72-.67-2.31-.68-.57-.04-1.15-.02-2.19-.67-.49-.26-.69-.23-.76-.1Z"/><path d="m186.2,52.54l-.63.09c-1.11.58-2.61,1.41-2.74.84-.02-.09-.66.03-1.41.36-.75.33-1.66.77-2.2,1.47-.34.43-1.01.88-2.01,1.27.06.02.1.05.13.08l.15.45c3.01-1.15,6.07-2.33,8.7-4.56Z"/><path d="m197.1,26.04c-.44-.02.33,1.24.82,2.35.53,1.19.92,2.55,1.09,3.91.16,1.35.15,2.67.05,3.81-.12,1.58-.45,2.64-1.13,4-.41.83.04.49.14.63.81-1.45,1.45-3.04,1.72-4.75.26-1.7.18-3.53-.45-5.23-.52-1.47-1.25-3.28-2.23-4.7Z"/><path d="m11.68,22.89l-.93.75c-.36.58-.89,1.31-.56,1.49,2.63-1.78,5.17-4.1,8.23-5.25,1.21-.47,1.23-1.27,2.19-1.97-.19-.23-1.4.17-1.61.37-.74.73-1.54,1.14-2.34,1.51-.79.4-1.6.71-2.33,1.24-.35,1.54-1.86,1.06-2.64,1.85Z"/><path d="m28.42,59.8c.31.11.61.24.92.34.71-.19.68-.17-.25-.63-.41-.21-.93-.51-.99-.64-.19-.48,1.47.26,1.83.1-.39-.25-.77-.53-1.16-.8l-1.94-.84c-1.4-.34-2.82-.64-4.21-1.05,1.22.86,1.84,1.27,1.69,1.41-.16.15-1.06,0-2.81-.44.51.72,1.09,1.07,1.7,1.26.61.17,1.25.16,1.87.19,1.11.38,1.97-.33,3.34,1.09Z"/><path d="m75.47,69.15c2.71.1,5.74.25,4.68-.96-.27-.31.78-.46,1.75-.55-.27-.61-1.66-.19-2.48-.31-.62.52-1.05,1.14-4.11.45-.51-.11-1.33-.14-1.56.05-.24.21.39.33,1.06.41h.29s-.26.01-.26.01l.62.91Z"/><path d="m36.67,9.2c.09,0,.13.04.11.09.35.18,2.26-.53,2.02,0,.63.33,1.34.06,2-.48.58-.47,1.07-.94,2.2-.63.73-.3,1.38.04,2.02-.39.82-.55,0-.68-.82-.78-2.58.57-5.47.76-7.53,2.19Z"/><path d="m75.17,1.82c.93.31,3.12,0,3.8.63.32.3,3.03-.57,4.53-.94.25-.06.4-.16.6-.24l-.02-.53c-2.37-.25-4.49.66-6.81.66l-1.69.26c-.22.03-.36.08-.41.15Z"/><path d="m160.11,8.16c-.78-.59-6.45-2.12-8.34-2.25-1.85-.17-.73.29-1.13.43,1.17.14,2.36.2,3.43.6.23.09,1.03.29,1.08.28,1.54-.07,3.35.59,4.96.94Z"/><path d="m166.2,11.63c-.78-.54-2.7-.4-2.9-1.26-.78-.62-1.72-.72-2.64-.86-1.63.05-3.88-.93-5.71-1.13.27.41.12.76,2.06.99,1.18.13,2.77.7,4.18,1.1l.84.02.21.19-1.01-.18c1.1.49-2.77.5,1.58,1.31.24-.23-.18-.8,1.49-.3.41-.12,1.87.52,1.92.13Z"/><path d="m195.99,25.15c.08,0,0-.25.37.2-2.47-3.3-5.6-6.34-8.91-7.65l-.02.19c.71.5,1.43.98,2.11,1.52,2.3,1.66,4.53,3.49,6.44,5.74Z"/><path d="m154.94,8.38c1.82.2,4.08,1.18,5.71,1.13-.02-.65-1.54-.61-2.23-.87-2.66-1.01-5.53-1.64-8.34-2.16.3,1.19,3.16,1.27,4.87,1.91Z"/><path d="m108.88.96c2.03.13,4.34.06,5.64.88.49.32,1.25.2,1.4-.07.11-.2-.04-.46.83-.5.33-.58-1.39-.56-2.3-.63-2.04-.17-4.1-.35-6.16-.41.16.24-.37.51.59.72Z"/><path d="m98.47,2.75c-1.41-.16-2.88-.31-3.87.21-.65.34-1.03.15-1.62.02-1.97-.4-3.92-.36-5.71.3,1.85.43,4.11.24,6.32.13,1.63-.08,3.25-.17,4.87-.25l.02-.41Z"/><path d="m54.54,64.19c-.5.28-1.96.56,1.28.81,1.68.12,2.4.55,3.22.99.41.21.07.59,1.42.61,1.09.02.89-.31.72-.6-.16-.28-.23-.55-.34-.82-2.11-.3-4.21-.63-6.3-.99Z"/><path d="m53.83,5.13c-.1.57-.05,1.02,2.64.17l1.86-.71,1.22-.24c.49-.27,1.22-.37,1.92-.49l.66-.51c0-.36-.84-.13-1.51.04-2.28.55-4.54,1.13-6.79,1.73Z"/><path d="m28.78,58.17c.38.27.76.55,1.16.8.88.25,1.8.44,2.67.7.87.24,1.68.56,2.33,1.1.33.29,1.53.35,1.47.27-.24-.33,2.21.25.58-.5-2.78-.63-5.5-2.18-8.21-2.37Z"/><path d="m54.79,6.72c-.66.29-1.63.82-1.93.84-1.21.06-.13-.33.23-.59.25-.18-.13-.2-.61-.11-.55.11-1.12.3-1.1.46.03.26.26.48.4.71,2.39.02,4.96-.62,7.54-1.17v-.46s-.05-.09-.05-.14l-.69.11c-1.63.51-3.18.96-3.79.35Z"/><path d="m12.74,51.65c1.04.65,1.62.64,2.19.67.58.01,1.13.11,2.31.68-.48-.51-.94-1.04-1.51-1.47-.58-.43-1.28-.76-2.17-.99-.23-.01-.46.09-.69-.05-1.8-1.12-2.08-1.24-1.88-.88.21.35.96,1.08,1.29,1.48.16-.04.16-.24.78.21l-.29.15c0,.07,0,.13-.01.19Z"/><path d="m68.24,68.74c-.53-.39-1.58-.9-2.75-.7-2.24.4-6-1.09-7.58-.29,3.48.59,6.93.91,10.32.98Z"/><path d="m121.54,69.03l-2.55-.15-1.33-.06c.03.43-1.06.46-2.13.5-2.52-.27-4.84-.09-7.03.5.22.18.91.33,1.36.26,3.75-.61,8.04-.16,11.67-1.04Z"/><path d="m154.28,10.96c.05-.63-.25-1.21-2.78-1.3-1.88-.06-3.92-1.46-5.8-1.22,2.41,1.42,5.64,1.74,8.58,2.52Z"/><path d="m196,40.29c.85-.46,1.92-1.84,2.6-3.66-.55.26-.66-.78-.96-1.97-.3,1.18-.33,2.25-.66,3.35.07.35-.04.75-.26,1.13-.2.39-.48.78-.73,1.14Z"/><path d="m127.62,2.23c2.16,1.04,6.81,1.7,9.76,1.41-2.7-.85-5.55-.97-8.34-1.37-.12.36-.79.14-1.42-.04Z"/><path d="m2.94,29.83c.41-.68.7-1.14.49-1.28-.21.21-.43.41-.62.64l-.27.06c.14-.17.28-.35.44-.51l.5-.3c.51-.64.68-1.01.58-1.19-.86.92-1.72,1.78-2.46,2.85-.73,1.05-1.35,2.34-1.47,3.91.17-.04.33-.22.49-.49.18-.26.36-.61.55-.99.41-.75.91-1.61,1.44-2.19.1-.17.22-.34.33-.5Z"/><path d="m99.57,69.64c-2.98.01-5.93.01-8.47.53,1,.31,1.94.45,3.43.13,1.89-.4,4.24-.05,6.33-.24l-.13-.39c-.38-.01-.78-.03-1.17-.04Z"/><path d="m101.67,1.88c2.65-.09,4.11-.75,3.27-1.64-.87-.05-1.74-.06-2.61-.07.39.42-1.54.6-1.16,1.01.76.2.43.46.51.69Z"/><path d="m22.63,56.29c1.39.41,2.81.71,4.21,1.05-1.9-1.07-3.75-2.09-5.82-2.44l-.05.64c.55.27,1.11.5,1.67.75Z"/><path d="m34.86,12.13c-.52.17-1.05.33-1.56.52l-.18.36c2.31-.65,4.71-1.08,6.72-2.18-.78-.12-2.23.16-2.61-.15-.43.2-.79.36-1.15.53-.03.27,0,.54-1.22.91Z"/><path d="m98.47,2.75l-.02.41,3.2.03c.66-.43.62-.87.02-1.32-1.57-.05-1.2-.4-1.23-.68-.25-.15-.61-.29-1.22-.22-.71.08-.29.26-.16.39.49.5,1.42,1.01-.6,1.39Z"/><path d="m9.63,22.44l-.19-.31c-1.77,1.32-4.08,2.58-4.9,4.58.49-.02.58.8,1.93-1.43.61-.98,2.37-1.78,3.16-2.83Z"/><path d="m123.01,68.62l-.12.5c2.54.14,4.78-.41,7.07-.83l-1.24-.23c-1.3-.04-1.35-.37-1.56-.66-.17,0-.35.01-.53.03.06.66-.28,1.27-3.62,1.18Z"/><path d="m150.84,63.03c1.67-.31,3.33-.71,4.99-1.04,1.08-.22,1.87-.45,1.9-.79-1.15.07-2.31.31-3.49.59-1.17.29-2.35.61-3.52.75.03.16.05.33.11.5Z"/><path d="m128.72,68.06l1.24.23c1.87.03,3.83.24,5.25-.72-1.68-.02-3.43.03-5.29.15-.88.06-1.18.11-1.2.34Z"/><path d="m47.45,6.44c.08.04.12.1.25.11.97.09-2.41,1.28.24.81,1.91-.35,3.01-1.12,2.72-1.69-1.13.14-2.38.1-3.21.77Z"/><path d="m171.91,10.02c-.61-.47-1.29-.83-2.86-1.11-1.3-.25-2.37-.63-2.96-1.04-.45-.1-1.02-.26-1.21-.2l1,.66c.97.29,1.94.58,2.9.87.96.3,1.95.53,2.89.88l.24-.07Z"/><path d="m140.41,5.01c1.15-.28-.61-.45-2.19-.61-1.17-.15-1.91-.13-2.42-.01v.26c1.52.06,3.03.12,4.61.36Z"/><path d="m192.35,47.42c-1.69,1.73-3.98,3.13-5.5,4.71,1.12-.5,2.06-1.29,3.01-2.04.91-.78,1.77-1.62,2.68-2.44l-.19-.23Z"/><path d="m44.96,62.39c.05,1.36,2.95.9,4.48,1.27-.05-.27.47-.55-1.45-.74-.96-.1-2.01-.35-3.03-.53Z"/><path d="m50.53,8.34c-.28-.22-.13-.68-1.55-.36-1.92.43-.63.81-1.69,1.27,1.63.16,2.16-.61,3.24-.91Z"/><path d="m120.89,3.99c.97-.05,1.93-.06,2.9-.09-1.79-.27-1.86-.71-2.07-1.13-.12-.24-.53-.47-1.4-.55-.32-.03-.84.01-.95.09-.31.21.39.33.93.48,1.96.53-1.67.6.02,1.11.18.04.37.07.56.09Z"/><path d="m137.07,3.37c1.3-.04,2.96.85,4.02.32-.51-.42-.51-.46-4.02-.32Z"/><path d="m68.18,4.43c1.7-.11,1.65.36,2.08.65,1.32-.14,2.79-.07,3.81-.64l-.07-.21c-.96.01-2.59.41-2.79.07-.44-.74-1.75-.25-3.03.12Z"/><path d="m64.43,6.01c.72-.7-1.23-.51-2.2-.65l-.94.52-.65.86c1.32-.14,2.39-.75,3.79-.73Z"/><path d="m68.43,66.61l.05-.5c-1.18-.26-2.36-.54-3.7-.51-.02.27-.52.58,1.27.74,1.35.12,1.95.34,1.87.7.61-.06.44-.26.51-.42Z"/><path d="m197.64,34.66c.29,1.19.41,2.23.96,1.97.02-1.4-.25-3.31-.75-3.51l-.23.26c.05.42.04.85.02,1.28Z"/><path d="m108.88.96c-.96-.21-.43-.48-.59-.72l-1.95-.14c-.33.63-.39,1.22,2.54,1.45v-.58Z"/><path d="m100.75,69.69l.13.39c1.26,0,2.33-.15,3.25-.4-.84-1.18-2.11-.52-3.37.01Z"/><path d="m174.86,12.74c.04-.07.18-.1.09-.22-.25-.32,1.6.06-.25-.74-1.65-.65-.35.22-.65.29-.09.02-.65-.15-.99-.24.35.3.66.54,1.79.9Z"/><path d="m196,40.29c.24-.37.53-.75.73-1.14.22-.38.34-.78.26-1.13-.16.41-.37.8-.59,1.19-.19.47-.45.82-.66.97-.37.73-.81,1.44-1.29,2.13l.44-.33c.4-.55.78-1.1,1.11-1.69Z"/><path d="m96.47,2.93s-.05.05,0,.07c.23.09-.72.33.86.25.54-.03,1.54-.31.5-.39l-1.36.08Z"/><path d="m147.75,64.12c-.01-.32,1.57-.76,1.11-1.05l-1.94.35c.28.23-.34.68.82.7Z"/><path d="m171.04,16.18c.05-.26-.46-.64-1.04-1.03-2.73-.82.42.65-.38.58.1.09.25.16.45.21l.8.28c.17.04.23.03.17-.04Z"/><path d="m74.27,2.09l1.27-.32c-.61-.33-2.17-.05-3.17-.09l-.03.36.1.36c.35-.02.61-.06.88-.1.07-.21.52-.21.95-.2Z"/><path d="m77.29,69.73c-.09-.32-1.51-.31-1.91-.57l-1.04.07.81.3c.68.16,1.39.23,2.14.2Z"/><path d="m31.36,13.68c-.46-.17-1.02-.18-1.94.54.57-.02.93.35,1.94-.54Z"/><path d="m176.66,56.97l-1.83.97c.07.44,1.09-.11,2-.56l-.17-.41Z"/><path d="m25.87,15.44c-.86.42-1.9.75-2.38,1.31,1.39-.25,1.97-.73,2.38-1.31Z"/><path d="m89.63,3.36c.64.02,1.38-.03,2.21-.17-.71.03-1.15-.17-2.21.17Z"/><path d="m194.89,41.98l-.44.33c-.24.33-.53.64-.79.96l.15.06c.49-.32.88-.77,1.08-1.35Z"/><path d="m82.92,3.47s0-.07.08-.1c-.09.03-.19.05-.29.06-.05.14-.1.28-.15.41l.37-.38Z"/><path d="m195.74,40.18c.21-.15.47-.5.66-.97-.21-.11-.39.23-.66.97Z"/><path d="m104.17,3.27c-.07-.14.06-.36-.66-.34-.52.02-.43.16-.04.26.23.02.47.04.7.07Z"/><path d="m72.35,2.04l.03-.36c-.66.14-1.1.32-1.29.53l1.27-.17Z"/><path d="m75.58,1.67l1.69-.26c-.74-.15-1.31-.07-1.69.26Z"/><path d="m150.81,63.03l-.08-.49c-.42.05-.63.13-.63.25.08.13-.19.37.71.24Z"/><path d="m17.75,53.33l.02.38c.62.28.33-.07.51-.09-.16-.13-.34-.22-.53-.29Z"/><path d="m127.62,2.22c.63.18,1.29.4,1.41.04-.58-.14-1.16-.26-1.41-.04Z"/><path d="m171.67,10.09c-.95-.35-1.93-.59-2.89-.88-.96-.29-1.93-.58-2.9-.87-.68-.18-1-.19-1.08-.09l-.17.31c1.07.31,1.39.51.96.58-.2.04-.48.08.22.29.41.13,1.33.29,1.33.26,0-.52,2.82.35,4.01.43.24.02.36-.02.53-.03Z"/><path d="m130.24,3.07c-1.36-.18-2.72-.38-4.07-.24,2.29.17.4.45,2,.63l2.57.34c-.31-.25-1.67-.55-.51-.74Z"/><path d="m194.07,24.89c.54.96,1.38,2.04,2.11,3.27.1-.11.38-.03.28-.39-.13-.49,1.07,1.07.17-.46-.65-1.05-.73-.69-.79-.5-.03.09-.25.26-.49-.53-.51-1.44-.85-.78-1.27-1.39Z"/><path d="m152.68,5.48l-1.91-.41c-.27.08-1.93-.08-.5.3,1.51.39,2.06.27,2.41.11Z"/><path d="m157.23,6.43c.57.05,1.11.02.78-.11-.98-.41-2.21-.38-3.34-.63.04.33,1.54.51,2.56.74Z"/><path d="m189.55,19.41c-.68-.54-1.4-1.02-2.11-1.52-.02.27.6.82,1.45,1.41.65.47.55.17.66.11Z"/><path d="m194.08,43.65c-.1.15-.22.28-.34.42l.15.23c.51-.59,1.16-1.3,1.17-1.73-.3.38-.64.72-.97,1.07Z"/><path d="m150.27,5c-.23-.3-1.15-.37-2.08-.41l.03.23c.69.05,1.37.1,2.04.18Z"/><path d="m162.28,8.44c.13.05.25.1.38.15l.38-.02c-.16-.05-.34-.12-.47-.14-.13-.02-.19,0-.29.01Z"/><path d="m192.71,23.47l1.03,1.06c-.07-.19-.08-.37-.25-.55-.48-.54-.58-.43-.78-.51Z"/><path d="m157.74,6.85l-.58-.33c-1-.02-.25.15.58.33Z"/><path d="m148.22,4.82c-.35-.03-.86-.13-.86-.03,0,.02.24.09.37.11.59.07.43-.03.49-.08Z"/><path d="m164.61,8.56l.17-.31c-.84-.11-.93-.02-.17.31Z"/><path d="m181,14.94c.01-.05-.08-.1-.15-.15-.01.05.08.1.15.15Z"/><path d="m192.98,45.25l.09.12c.28-.35.55-.71.81-1.07-.28.32-.58.64-.89.94Z"/><path d="m159.68,7.14l.13.08c-.05-.03-.1-.05-.13-.08Z"/><path d="m147.86,4.55l-.17-.14c-.57,0-.46.05.17.14Z"/><path d="m110.07,1.78c-.8.25-2.04.48-1.16.97.37.21.82.4,1.63.49,1.19.12,1.34-.15,1.51-.39-.6-.34-.89-.67-.34-.98.25-.14.2-.3-.5-.37-.85-.08-.99.11-1.13.28Z"/><path d="m164.28,11.5c-1.67-.5-1.25.07-1.49.3.6.23,1.5.39,1.47.77-.02.19.5.6,1.06.72.57.13,1.15.09,1.41-.01.43-.18-.69-.41-.99-.61-.6-.39-.99-.77-1.47-1.16Z"/><path d="m131.66,4.98c1.02,1.1,3.21,1.11,5.27,1.29-1.39-.77-3.04-1.3-5.27-1.29Z"/><path d="m130.06,4.81l.67.05c.12-.04.2-.1.36-.1,1.26-.05,2.12-.16.92-.79-.31-.16-1.21-.41-1.08-.2.3.5-3.77.07-.87,1.04Z"/><path d="m115.87,3.48l1.85.27c.04-.26,1.63-.47-.01-.76-1.21-.21-2.09.03-1.83.49Z"/><path d="m124.66,4.03l1.99.78c-.02-.23,1.12-.31.2-.64-.73-.26-1.55-.27-2.19-.14Z"/><path d="m160.19,11.18c-.34-.19-.53-.33-.74-.4-.23-.07-.47-.06-.71-.09.17.11.32.26.53.33.22.08.49.08.93.15Z"/><path d="m128.03,5l1.79.12c.09-.01.18-.03.27-.04l-.05-.2c-.81-.05-1.96-.31-2.01.12Z"/><path d="m114.23,3.37c.52.2,1.03.4,1.6.11l-1.6-.11Z"/><path d="m156.18,10.97c-.16-.09-.26-.09-.35-.09.06.03.12.07.35.09Z"/><path d="m43.84,64.69c.72.13,1.53.34,2,.21.43-.46,2.5.35,3.42.18.34-.06,1.34.68,1.89.37.34-.19-.69-.58-1.31-.89-.63-.32-1.15-.46-2.11-.44-1.21.02-2.6-.11-3.51-.88-.54-.47-1.71-.49-2.4-.52-1.2-.05-.3.3.33.61,1,.48,2,.97,1.7,1.36Z"/><path d="m68.43,66.61c-.07.16.1.36-.51.42-.17.2-1.76.07-1.01.46.26.14.88.32,1.29.35,1.39.1.5-.32.82-.47.18-.09.32-.19.58-.24.51-.12,1.97-.08,1.45-.35-.6-.31-1.68,0-2.62-.16Z"/><path d="m63.67,66.77c-.13-.05-.26-.09-.39-.14l-.39.11c.16.04.35.1.49.11.12,0,.19-.05.29-.08Z"/><path d="m31.9,61.33l-.62-.21c.2.07.41.14.62.21Z"/><path d="m106.17,3.3c-.13-.07-.18-.16-1.04-.06.12.07.53.07,1.04.06Z"/><path d="m6.6,47.62c.33.32.65.64.99.94.16-.16.15-.61.52-.4.64.37,1.22.68,1.21.32,0-.18-.34-.39-.5-.44-.59-.18-1.95-1.56-1.91-.85.01.23-.19.29-.3.43Z"/><path d="m4.32,44.35c.14.42-.05.61.56,1.36.09.1.41.27.43.2.08-.32-.57-.97-.99-1.56Z"/><path d="m2.94,29.83c-.12.16-.23.33-.33.5.12.07.17.24.61-.39l-.28-.11Z"/><path d="m12.76,51.45l.29-.15c-.62-.45-.62-.25-.78-.21l.49.36Z"/><path d="m9.87,49.99l-.04-.33c-.58-.29-.09.14.04.33Z"/><path d="m128.18,3.46c-1.61-.19.29-.47-2-.63-.84-.04-1.43,0-1.87.08-.93.15-2.08.29-.37.59,2.69.48,2.83-.03,4.24-.03Z"/><path d="m117.3,3.25c.93,0,2.41.25,2.34-.05-.02-.11-.39-.3-1.45-.27-1.03.02-2.53.13-2.59.24-.12.22,1.22.02,1.7.09Z"/><path d="m118.34,2.57c-.73-.13-1.18-.27-1.71-.28-.67-.02-1.87-.03-1.92.14-.03.09.41.19,1.12.2.77,0,1.52-.04,2.51-.05Z"/><path d="m109.42,3.19c-.09-.06-.09-.14-.77-.12-.21,0-.33.08-.48.13h1.26Z"/><path d="m120.89,3.05c-.21.02-.08.03.05.04l-.05-.04Z"/><path d="m110.65,3.26h-.29s-.29,0-.29,0c.2.05.39.05.59,0Z"/><path d="m85.53,2.84c-.15-.29-.83-.36-1.76-.2-1.19.19-.69.48-.79.73,1.16-.03,1.17-.61,2.55-.52Z"/><path d="m100.44,1.2c.03.28-.34.63,1.25.69-.09-.24.23-.5-.53-.69h-.72Z"/><path d="m85.54,2.83l.15.07c-.05-.02-.11-.04-.15-.07Z"/><path d="m99.57,69.64l1.18.05c-.21-.13.39-.38-.56-.38-.54,0-.67.19-.63.33Z"/><path d="m115.54,69.31c1.07-.04,2.16-.07,2.13-.5-.79.14-1.67.24-2.13.5Z"/><path d="m68.18,4.43c1.27-.37,2.58-.86,3.03-.12.2.34,1.83-.06,2.79-.07-.57-.36-1.03-.72-1.73-1.03-1.49-.67-4.08-.41-6.05.61-.25.12-.35.28-.67.38-1.16.36-1.14.97.07,1.02q.5.02.72-.41c.1-.2.03-.44.92-.58.27-.04.61.13.91.2Z"/><path d="m58.58,6.37l.69-.11c1.11-.85-.89-1.06-.95-1.67l-1.86.71c-.08.59,2.52.39,2.11,1.07Z"/><path d="m61.47,3.87c-.7.11-1.43.21-1.92.49.02.02.02.07.08.07.9.04.84.66,1.88.37,1.53-.41-.28-.56-.04-.92Z"/><path d="m64.98,3.85c.18-.09.39-.16.37-.19-.07-.09-.23-.16-.35-.24-.08.06-.22.14-.21.19,0,.08.11.15.2.24Z"/><path d="m74.27,2.09c-.43,0-.88-.01-.95.2.41-.01,1,.08.95-.2Z"/><path d="m72.44,2.4l-.26.13c.11-.04.23-.08.26-.13Z"/><path d="m22.63,56.29c-.56-.25-1.12-.48-1.67-.75-.39.18-1.26-.1-2.18-.42-.92-.33-1.85-.76-2.43-.77-.03.26-.41.39.92,1.1-.39-.61.63-.21,1.29,0,.81.26,1.05.66,1.25.97.56.3,1.12.58,1.69.84,1.75.43,2.66.58,2.81.44.15-.14-.46-.56-1.69-1.41Z"/><path d="m19.81,56.42c-.2-.31-.44-.71-1.25-.97-.66-.21-1.68-.62-1.29,0,.9.51,1.99,1.16,2.54.98Z"/><path d="m28.42,59.8c-1.37-1.42-2.24-.71-3.34-1.09,1.2.85,2.29.98,3.34,1.09Z"/><path d="m31.91,61.33l-.64-.21c.16.22.38.3.64.21Z"/><path d="m34.86,12.13c1.21-.38,1.19-.64,1.22-.91-.29-.28.37-.4,1.08-.5.28-.45-.11-.81,1.63-1.42.24-.54-1.66.18-2.01,0-2.35,1.27-2.3,2.11-1.92,2.84Z"/><path d="m54.78,6.72l.79-.21c-.48-.07-.56.11-.79.21Z"/><path d="m167.15,59.68c-.25.23-.29.4-.32.57,1.26-.36,2.49-.83,3.73-1.24,1.11-.39,1.06-.61,1.04-.82-.67.22-1.46.54-1.92.47-.84.34-1.67.71-2.52,1.02Z"/><path d="m170.55,59.02c-1.24.41-2.46.88-3.72,1.24l.05.33c1.47-.37,2.9-.87,4.36-1.31l-.69-.26Z"/><path d="m167.15,59.68c.85-.31,1.68-.68,2.52-1.01l-.12-.35c-.84.28-1.66.6-2.51.85l.11.51Z"/><path d="m183.68,52.07c-.1-.12-.25-.23-.88.09-.29.14-.59.47-.88.72.49-.06,1.14-.46,1.76-.8Z"/><path d="m169.67,58.67c.46.07,1.26-.26,1.92-.47-.45-.06-1.2.21-1.92.47Z"/><path d="m177.22,56.56c-.03-.08.5-.41-.07-.26-.06.02-.22.1-.27.14-.3.25-.07.23.34.12Z"/><path d="m11.68,22.89c.78-.79,2.29-.3,2.64-1.85-.26-.72-2.02.91-2.98,1.45l.34.4Z"/><path d="m23.06,15.53l-.22.15c.07-.05.14-.1.22-.15Z"/><path d="m11.34,22.49l-.16.03c.05-.01.11-.02.16-.03Z"/><path d="m192.98,45.25c.31-.31.61-.63.9-.95l-.15-.23c-.63.66-.89,1.02-.76,1.18Z"/><path d="m123.01,68.62c3.34.09,3.68-.52,3.62-1.18l-.77-.66c-2.49-.28-3.82.56-5.73.83-.19.61.01,1.16,2.88,1.02Z"/><path d="m153.94,63.02l.28-.04c-.02-.07-.13-.05-.28.04Z"/><path d="m129.82,5.12l.45.13-.18-.17c-.09.01-.18.03-.27.04Z"/><path d="m147.73,64.13c.23,0,.46.01.7.02,0,0,.11-.06.17-.09-.28.02-.57.05-.87.08Z"/><path d="m111.07,67.77l-1.25-.13c.09.22.16.46,1.25.13Z"/><path d="m166.82,60.26l.11-.52c-.61.19-1.29.39-1.34.62-.05.23.56.1,1.23-.1Z"/><path d="m31,13.01c0-.2-.03-.38-.67-.28.12.14-.08.43.67.28Z"/><path d="m27.69,13.15l.15.02c-.05,0-.11,0-.15-.02Z"/><path d="m32.64,11.7c-.17-.08-.22-.26-.54-.22-.42.05-.75.33-.59.38.31.1-.8.91,1.07.26l.06-.42Z"/><path d="m32.64,11.7l-.06.42c.91-.4.79-.5.06-.42Z"/><path d="m1.04,35.18c-.05.09-.09.18-.14.29-.01.01,0,.25.03.26.05.03.09,0,.14-.01-.03-.18-.02-.36-.03-.54Z"/><path d="m74.84,68.24l.26-.02c-.1,0-.2,0-.26.02Z"/><path d="m161.22,10.49l1.01.18-.21-.19c-.28,0-.56-.01-.8.01Z"/><path d="m2.98,28.74c-.15.16-.29.33-.44.51l.27-.06c.05-.16.11-.31.17-.45Z"/><path d="m2.81,29.2c.2-.23.42-.43.62-.64-.12-.01-.29.09-.46.19-.06.15-.12.3-.17.45Z"/><path d="m37.16,10.72c-.71.1-1.37.22-1.08.5l1.08-.5Z"/>
                  </g>
                </mask>
              </defs>
              <path class="mask" d="m182.08,19.44c-5.86-2.71-13.69-5.95-23.3-8.88-4.86-1.48-18.46-5.42-36.89-7.43-33.52-3.65-59.51,1.62-72.38,4.34-14.77,3.12-28.38,7.46-39.42,16.22-4.01,3.19-8.17,6.91-8.41,11.95-.33,7.04,7.02,12.56,9.93,14.75,22.44,16.85,71.41,18,74.73,18.06,12.83.21,77.22.86,102.78-19.61,3.02-2.41,9.58-7.82,9.43-14.9-.1-4.62-3.04-9.26-10.05-14.5-12.62-9.43-31.94-15.08-69.12-16.4-11.32-.4-27.28.23-46.44,2.63"
                    mask="url(#path-mask)" stroke="black" stroke-width="2" fill="none"
                    stroke-dasharray="551.32763671875" stroke-dashoffset="551.32763671875">
              </path>
            </svg>
        