
            <svg xmlns="http://www.w3.org/2000/svg">
              <defs>
                <mask id="path-mask">
                  <g fill="white">
                    <path d="m40.43,50.91c2.11.31.8-.08,1.24-.11l1.5.31c1.23.29,2.64.62,3.82.9,2.39.58,6.97,1.1,8.95.96,1.34.16,2.19.2,2.76.17,1.77.26,4.44.24,5.81.56.37.16,1.93.4.61.45-.96.03-1.99,0-3.51-.2-1.26-.16-2.4-.23-3.12-.2l-1.18-.12c-1.47-.09-3.42-.66-4.6-.45-.46-.07-1.3-.19-1.32-.19-1.19.14-3.88-.32-6.2-.72l-.02-.09c.64.06.52.02-.2-.1-.12-.02-.24-.04-.37-.05l-.06-.13c.4.06.98.16.98.11,0-.01-.28-.08-.43-.1-.67-.11-.49-.03-.56-.01l-2.31-.32c-.19-.03-.38-.06-.57-.1.29-.01,2.19.25.54-.11-1.74-.38-2.35-.39-2.73-.34-.35.05-1.1-.06-2.26-.37-.08-.18-1.78-.47-2.94-.74l.07-.04c1.12.14.26-.05-.68-.26-1.25-.39-1.41-.25-2.21-.43l-.16-.06.18.06c-.1.07.35.31-1.95-.27-1.44-.37-2.67-.65-2.46-.44l-1.43-.35-.91-.39h-.03s-.28-.16-.28-.16c.12.04.22.08.3.11h.02s0,0,0,0c.57.14.83.17.9.14.94.19,1.03.15.14-.14-.44-.12-.78-.22-.96-.28h0c-.42-.18-.47-.25-.18-.2.22.03.51.08-.27-.22-.23-.08-.6-.22-.9-.33-.31-.11-.56-.18-.56-.18.04.31-3.07-1-4.31-1.47-.25-.09-.37-.11-.55-.16l-.24-.04c-2.71-1.35-5.41-3.03-7.64-4.67-.58-.4-1.24-1.12-1.71-1.63-.83-.94-1.35-1.6-1.85-2.08-1.15-1.62-2.02-3.48-2.3-5.47l.06-.12c.04-.09.04-.37,0-.78.03-.41,0-.95.06-1.54.12-.92,0-.63-.05-.71.26-1.65,1.01-3.19,1.98-4.54,1-1.34,2.23-2.52,3.58-3.57l-.12.06s-.22.08.3-.32c.13-.14.14-.24.84-.71-.15.29,1.21-.61,2.37-1.24,2.48-1.41,5.51-2.69,7.77-3.73,1.56-.72,2.66-1.1,4.22-1.69.95-.35.39-.26.44-.35,3.07-1.06,6.16-2.08,9.3-2.91l.02.12c-.6.24-.43.26-.11.25.56-.01-.22.26-1.89.72l-1.45.5c-.87.28-1.93.57-2.28.79l1.61-.46c.22,0,1.18-.24-.03.19-.66.14-1.31.31-1.95.61l-2.28.77c-1,.13-2.88.68-4.93,1.36-1.36.68-3.35,1.67-3.55,1.99-1.92.86-3.82,1.8-5.58,2.99-.08-.03.08-.23-.3-.04-.5.24,1.33-1.03-.39.04-1.16.78-.88.71-.71.69.08,0,.15.07-.65.52-1.45.84-.99.86-2.08,1.78-.18.13-.32.2-.53.4-.6.58-.51.64-.64.83-.44.5-.85,1.03-1.18,1.61-.37.55-.62,1.17-.88,1.78-.44,1.26-.65,2.61-.57,4.02.04.37.08.69.13.97.09.28.17.51.25.72.15.41.34.66.48.84.77,2,2.08,3.79,3.62,5.33,1.55,1.53,3.32,2.85,5.2,3.97-.03.03-.17-.01-.06.09.3.3-1.6-.67.35.54,1.76,1.02.32,0,.62.07.08.02.68.34,1.04.52,2.69,1.35,5.62,2.66,8.58,3.75h-.03c.74.18,1.47.37,2.19.56,1.1.28,2.92.57,3.75.95.95.44,7.48,2.05,9.62,2.33Zm-12.53-2.95l-.42-.05c.18.05.4.12.55.15.14.03.21.03.32.04-.15-.05-.3-.09-.44-.14Zm-19.32-10.02c-.05-.06-.13-.15-.2-.23,0,.03.07.11.2.23Z"/><path d="m45.15,2.2c4.94-.7,9.85-.98,14.78-1.33.68.3,3.86-.13,5.92-.2.42.08.38.21,2.57,0,1.33-.13,3.26-.18,4.98-.23,1.38,0-2.84.5,2.18.2.74,0,1.77-.06,1.88.06.05.06.77.12,1.42.1.67-.02,1.29-.1,1.52-.16.39-.1-.9-.05-1.3-.08-.79-.06-1.36-.12-2.02-.19.4-.09,2.22-.06,2.12-.19,1.11.17,5.02-.03,5.01.23,0,.12-1.58.24-2.25.4-.7.15-3.69.19-6.07.21-1.07,0-2.09-.03-3.16,0-1.03.02-2.3-.03-3.05.1-.8.14,2.04-.02,1.52.13-1.63.15-3.35.27-5.24.3-.15-.19-.66-.33-3.49.05-2.1.28-4.79.19-6.81.57l-.78.07-1.49.06c-2.51,0-5.2.23-8.08.79-1.74.06-3.7.24-6.17.81l-1.06.19c.12-.04.2-.08.38-.12,1.39-.33,2.31-.58.84-.46-.39.03-1.44.18-1.25.21.44.04-4.14,1.05-.73.55-.9.21-2.24.45-2.19.59l-1.56.36c-.07-.06,1.16-.43.08-.24-.86.14-1.76.4-2.43.66l-.98.26c-2,.55-2.16.48-2.49.43-.19-.02-.68.05-1.62.38-.35.12-.89.34-.99.4-.29.18.49-.06,1.1-.24,2.21-.63-1.66.83.26.3-.42.29-1.65.66-2.76,1.11l-.05-.08c-.01-.09,1.62-.84-.17-.21-1.33.46-2.19.94-1.87.97l-1.69.72c-.8.29-1.59.61-2.38.92-.69.2-1.06.25-.55-.11.23-.16.15-.18-.59.14-.89.4-1,.53-1.11.65l-1.27.54-.12-.17c2.1-1.01,4.46-2.16,5.99-2.54.58-.14,1.35-.53,1.45-.68.07-.1-.14-.12.76-.52,3.7-1.66,7.72-2.9,11.91-3.74,2.59-.37,7.9-1.33,11.09-1.97Zm26.43-1.44c-.27.01-.54.05-.81.07.23.01.44.03.69.03.26,0,.57-.04,1.06-.08-.43-.01-.7-.03-.95-.02Z"/><path d="m175.84,36.13c1.3-1.39,1.93-2.01,2.54-2.79.15-.2.22-.21.34-.34.12-.13.33-.38.55-1.13.1-.3.16-.51.19-.65,0-.15,0-.23-.02-.26-.04-.07-.12.05-.19.15-.15.18-.31.26-.46.37.44-1.36.52-2.82.06-4.18.05-.02.15.08.16-.05-.01-.12-.04-.51-.5-1.41-.36-.67-.65-1.14-.84-1.45-.18-.32-.24-.47-.16-.5.09.04.39.43.63.71.23.29.36.48.19.05-.15-.28-.52-.93-.85-1.28-1.07-1.21-.47-.31-.75-.52-.16-.11-.3-.19-.52-.37-.22-.18-.65-.53-.97-.79-.33-.24-.55-.38-.34-.15.48.53,1.45,1.22,2.13,2.07l-.16.13c-2.78-3.16-6.47-5.28-10.17-7.04.68.1,1.27-.07,4.29,1.83.5.31,1.3.82,1.56.87.27.06-.34-.35-1.02-.8-.17-.23-.34-.46-.42-.65.36.18.71.36,1.06.56-.25-.2-.52-.39-.78-.58,2.55,1.31,4.75,3.03,6.28,5.12.35.61.99,1.72,1.67,2.89.34.56.6,1.31.77,2.15.11.84.14,1.77-.08,2.62-.34,1.72-1.2,3.12-1.55,3.92-1.58,1.99-3.59,3.7-5.71,5.07-.05-.25-1.68.75-3.06,1.56-1.23.73-2.01,1.07-3,1.46.12-.18.77-.5,1.49-.85.71-.37,1.49-.78,1.9-1.07.3-.24,1.52-.68,1.91-1.12.24-.26-.87.31-1.57.63-.71.34-1.27.57-2.19,1.16-1.17.69-2.59,1.41-3.8,1.67-.72.17-1.91.72-2.61,1.05-1.24.53-.19.24.57,0,1.2-.36,2.38-.73,2.23-.48-.23.13-.47.25-.71.36-1.41.27-3.9,1.31-6.1,1.97-.85.26-2.79.94-2.29.51.13-.09-2.52.74-2.58.83-.12.18-.84.38-1.82.63l-.72.18c-1.33.38-2.91.87-2.42.46.64-.32.62-.31-.54-.08-.51.09-1.19.2-1.31.18-.42-.06,1.63-.46,1.92-.66,1.01-.27,2.06-.55,3.06-.83,1-.28,1.97-.52,2.87-.63.46-.05,1.72-.51,1.63-.52-.38,0,2.38-.87.4-.39.06-.09.27-.17,1.08-.4,2.62-.79,5.25-1.61,7.75-2.82.58.36,3.26-1.33,4.85-2.18,1.82-1.04,3.03-2.01,4.77-3.32-.16.21-.52.59-.49.64.02.02.13-.04.43-.26.31-.2.72-.62,1.4-1.24Zm3.77-7.45c.03.14.08.28.09.43.02-.19-.01-.41-.02-.57-.02-.14-.05-.21-.08-.32,0,.16,0,.31.01.46Z"/><path d="m111.61,52.36c2.62-.44,5.84-.82,8.22-1.4,2.16-.17,5.39-.95,7.92-1.42.72-.14.99-.2,1.5-.34,1.55-.41,1.86-.86.12-.54-1.83.33-2.41.39-2.9.37-.5-.02-1.42.04-3.12.57-.19.06-.9.21-1.21.26-3,.47-5.88,1.05-8.85,1.48-6.84,1-13.71,1.74-20.61,2.17l.02.12c.58-.04,1.06-.05,1.19-.01,1.02-.09,2.25-.2,3.09-.28,2.04-.14,4.53-.5,6.16-.51.98.05,7.99-.67,9.4-.96.23-.04.48-.11.44-.12-.36-.1.97-.21,1.57-.27.72-.08,1.17-.09,1.8-.14.36-.03,1.46-.25,1.36-.18-.06.04-.69.18-1.55.33-1.79.34-4.34.64-4.55.88Z"/><path d="m102.51,54.8c1.81-.14,3.95-.22,5.13-.49-.52.01-1.19,0-1.55.04-1.39.13-2.7.28-3.73.15-.85-.1.33-.24,1.17-.38,1.5-.25,2.66-.23,3.88-.2.77.03,2.04-.03,2.66-.12,2.11-.36,3.07-.24,4.34-.24.81-.06,1.83-.18,2.05-.09.04.02-.32.1-.47.12-1.06.09-1.1,0-1.57-.03l-2.25.53c1.52.18,3.46-.17,5.28-.39-.06-.1.05-.19,1.38-.33-.03-.07.08-.15-.11-.19-.6-.13,1.59-.33,2.23-.49.18-.04.62-.11.76-.07.29.08-.44.2-1.26.34-.46.08-.1.18-.11.26.72-.18,2.8-.22,2.98-.45-.27,0-1,.07-.29-.06l.27.06c1.06-.08.43.18,1.74.01.46-.06.82-.24,1.22-.37-.02-.06.13-.13.75-.23-.03-.02-.08-.03-.12-.05l-.69.08c-1.16.02-4.76.33.1-.34.32-.04.46-.15.68-.22-2.1.25-4.29.63-6.22.61-.23,0-3.04.46-4.93.63-.51.13-1.15.21-2.29.3-3.33.29-6.82.35-9.99.71-1.29-.14-3.57.21-4.93.14-1.33-.05-2.39-.06-4.03.1-2.23.22-3.2.13-3.26-.08l-3.68.11c.17.13-.84.24-1.57.35,1.69.14,3.44.28-.12.52-.46.03-.16.08.3.1,1.44-.16,3.55-.02,4.77-.17,2.8-.34,2.25-.07,2.62.05l.78-.03c.07-.08.49-.14,1.38-.17.1-.11.7-.16,1.56-.2l-.07-.11c.86-.03.72.04.72.09,1.68.04,4.2-.04,4.48.19Z"/><path d="m69.77,54.37c.96.04,1.63.04,2.14,0,1.06-.1,2.37-.19.4-.36-3.1-.32-3.24-.03-4.86-.04-.99-.08-1.97-.15-2.95-.27-1.36-.32-4.03-.3-5.81-.56l-.02-.15c1.7.19,3.7.14,4.97.37,1.6.3,3.28.33,5.17.38,7.44.2,14.91.19,22.4-.15.14.06.13.12-.8.21l-1.44.08-.74-.03c-.23-.02-.45-.02-.67.02-4.73.19-5.39.25-3.58.45.06,0,.07.01.11.02,2.09-.15,3.42-.11,4.74-.06,1.32.03,2.62.03,4.67-.13,1.7-.13,3.95-.35,4.43-.19-1.11.09-2.36.36-2.73.3-.72-.09-1.88.04-3.02.11-1.02.06-2.03.11-3.04.17-1.01.03-2.02.07-3.03.1-2.03.09-4.07.11-6.16.14-5.96.08-12.13-.17-18.22-.64-1.21-.07-3.15-.18-3.22-.39.72-.04,1.87.03,3.12.2,1.52.2,2.56.23,3.51.2,1.56.16,3.13.27,4.67.22Zm7.47-.21c.03.07.46.18,1.67.13,1.18-.04,2.9-.14,2.96-.2.13-.13-1.4.01-1.95-.02-1.07.03-2.78-.08-2.69.09Zm3.49.49c.77,0,2.14-.02,2.19-.12.03-.06-.47-.11-1.29-.1-.88.03-1.73.06-2.87.09.84.06,1.36.13,1.97.13Zm-4.53-.4h-.45s.06.01.06.01c.33,0,.35,0,.39-.01Z"/><path d="m7.29,15.23c-1.49,1.15-2.67,2.05-4.15,3.63-1.07,1.14-2.06,2.69-2.63,4.47-.59,1.77-.66,3.76-.28,5.53.34,1.78,1.1,3.6,2.07,4.95l.17-.09c-.13-.38-.5-1.3.12-.3.96,1.45,1.55,1.93,2.02,2.34.48.39.88.68,1.75,1.47-.88-.89-1.62-1.71-2.27-2.45-.07-.1-.14-.19-.2-.25-.14-.06.06.46-.74-.65-.63-.88-.93-1.59-.91-1.78l-.06-.17.05.16c.7,1.42.92,1.35,1.65,2.42.06.06.08.08.08.06-.72-1.3-1.81-2.76-2.3-4.31-.87-1.85-1.07-4.2-.28-6.26.27-.6.43-.98.65-1.68.28-1.12,1.33-2.46,2.47-3.56,1.53-1.69.69-1.08.13-.83-.13.08-.53.38.04-.22.51-.49.84-.74,1.1-.88l.65-.52c-.21.08.1-.24.42-.55.33-.3.66-.6.43-.52Z"/><path d="m139.64,8.42c-1.42-.39-2.9-.78-4.91-1.05-2.52-.26-5.16-.68-7.96-1.29-.55,0-1.56-.13-2.46-.23l-1.49-.27c.17.09.43.25.5.25,2.74.37,4.54.9,7.17,1.32,1.92.3,3.65.64,4.13.95.01,0,.21.05.31.07.36.04.73.09,1.1.13-.27-.3,1.64.09,3.11.39,4.79,1.03,9.65,1.92,14.44,3.26,2.88.83,3.05.83,1.6.71-.44-.03-.74-.02-1.1-.03,2.77.66,5.89,1.72,8.13,2.23-.5-.2-.98-.4-1.51-.57-.86-.3-2.16-.53-2.5-.79-.14-.11,1.27.19,2.16.41.47.11,1.34.41,2.03.65.58.19,1.19.43,1.49.47.39.05-.19-.2-.77-.46-.91-.38-1.11-.62-2.57-1.08-1.8-.73-3.83-1.4-6.31-1.97-2.87-.52-6.16-1.28-9.5-2,.03.07-.13.1-.73-.03-1.06-.23-.36-.18-.59-.28-1.45-.1-2.96-.15-3.77-.79Z"/><path d="m88.97,53.87l-.74-.03h-.34s-.34.02-.34.02c-4.73.19-5.39.25-3.58.45.06,0,.07.01.11.02,2.09-.15,3.42-.11,4.74-.06,1.32.03,2.62.03,4.67-.13,1.7-.13,3.95-.35,4.43-.19,1.23-.17,3.43-.34,4.34-.56-1.18.02-.05-.26.57-.32,1.81-.18.72.06.98.12.05.01,0,.03,0,.05,1.4.02,3.73-.47,5.29-.56.95-.16,1.78-.29,2.52-.33.21-.24,2.77-.54,4.56-.88.86-.15,1.49-.29,1.55-.33.1-.07-1,.15-1.36.18-.63.05-1.08.07-1.8.14-.6.06-1.93.17-1.57.27.04.01-.2.07-.44.12-1.41.29-8.42,1.01-9.4.96-1.62,0-4.12.36-6.16.51-.85.08-2.07.19-3.09.28-.99.11-1.04.05-1.19.01l-.02-.12-1.46.08c.14.06.13.12-.8.21-.18.04-.31.09-.55.11-.78.05-.78,0-.88-.03Z"/><path d="m11.31,41.53v.09c.39.47.69.87,1.23,1.42.59.57,1.48,1.28,2.58,1.91,1.09.62,2.35,1.13,3.52,1.47.29.08.45.1.8.22,1.31.42,1.47.24.23-.32-.51-.24-.51-.25-.87-.23-.16,0-.17.12-1.12-.3-.29-.13-.58-.34-.86-.53-1.72-.9-1.51-1.03-1.82-1.34,1.93,1.02,4.01,1.89,6.13,2.71-.96-.12,1.13.69,2.12,1.11l1.14.22c.75.21,1.51.39,2.26.59.03.03.03.05.01.06-1.43-.16.64.65.52.84-.46-.11-.91-.25-1.37-.38-.02-.02,0-.03-.07-.05-.94-.35-.71-.5-1.89-.83-1.75-.49.13.28-.23.28l-.86-.11c-3.26-1.1-6.65-2.32-9.46-4.31l-1.23-.81.03-.15.28.14-.35-.21-.76-.52c-.38-.28-.87-.72-.92-.63l-1.22-.86.18.11.17.16c-.73-.73-2.66-2.4-2.99-3.09-.08-.16-.73-.75-1.47-1.51-.75-.75-1.57-1.69-2.1-2.39-.17-.24-.3-.38-.45-.56-.13-.38-.5-1.3.12-.3.96,1.45,1.55,1.93,2.02,2.34.48.39.88.68,1.75,1.47,1.64,1.56,3.32,2.96,4.95,4.3Zm8.19,5.33c.05.06.19.15.29.23.1.02.27.06.28.05.02-.03-.08-.09-.14-.16-.21-.06-.45-.13-.44-.11Z"/><path d="m118.84,53.37c-1.32.14-1.43.23-1.38.33l1.24-.09.95-.11c2.39-.19,4.69-.38,7.2-.78,1.02-.17,2.51-.38,3.75-.48,1.36-.1,3.9-.5,4.32-.59,4.51-.98,8.9-1.71,13.25-2.6,1.59-.35,2.56-.68,3.85-1.03,6.57-1.74,13.13-3.86,19.12-7.3.64-.36,1.31-.74,1.61-1.06-.05-.25-1.68.75-3.06,1.56-1.23.73-2.01,1.07-3,1.46-.41.31-1.31.65-2.06.99-.23.13-.47.25-.71.36-1.41.27-3.9,1.31-6.1,1.97-.85.26-2.79.94-2.29.51.13-.09-2.52.74-2.58.83-.12.18-.84.38-1.82.63-.22.12-.47.18-.73.18-1.32.38-2.89.87-2.4.46-.36.09-.73.17-1.09.25-1.12.35-2.28.72-3.89.91-1.29.41-2.53.9-4.29.85l-2.11.35c-.43.25-1.86.43-3,.6-1.67.27-1.4.1-1.53.03-1.9.53-3.86.72-5.82.79-.4.13-.76.31-1.22.37-1.3.16-.68-.09-1.74-.01-.16.23-2.25.27-2.96.45l-1.51.15Z"/><path d="m39.51,52.26c1.02.29,2.14.58,3.71.68-.86-.24-1.7-.5-.64-.46.83.02,1.43.29,2.32.39,1.12.4,1.81.36,2.59.35.9,0,1.76.07,2.33.32,2.1.21,1.8,0,2.19-.09-.3-.18-1.98-.44-2.78-.64-1.37-.31-3.2-.6-4.96-.81-1.32-.15-2.46-.33-3.71-.58-1.3-.14,0,.33-2.23-.05-1.64-.31-1.34-.41-1.58-.56l-1.46-.26c.08.12.26.25.22.34-.03.06-.7-.05-1.33-.19-.55-.12-.95-.24-.63-.22.48.03,1.76.24.43-.11-.33-.09-1.54-.21-2.34-.35-.25-.04-.4,0-.9-.19l.92.19c-.49-.39-2.31-.75-4.2-1.19-.64.06,2.2.92,1.95,1.06,3.15.62,3.08.78,2.8.92,1.27.23,2.27.61,3.59.79-.14-.27,1.29-.18,3.47.24,3.03.56-1.01.03.01.32.14.04.16.07.24.1Z"/><path d="m59,4.36l-1.2.15-2.31.37-.85.14s.05.03.08.04c.51-.05.76-.06.34.05-.06.02-.27.05-.34.06-.66.06.03-.07.03-.11-1.21.17-2.1.34-2.64.52-.87.29-2.01.51-2.94.63-.93.12-1.63.17-1.61.13.14-.26-1.76.13-3.15.34-1.71.45-3.41.88-5.14,1.38-.75.22-2.23.56-1.78.57.37.01,1.94-.45,2.35-.52,1.27-.21,3.15-.9,3.9-.82.96-.19,2.1-.4,2.26-.32.81-.16,1.66-.34,2.2-.36,1.78-.28,3.58-.6,5.35-.82,3.51-.49,6.53-1.08,10.1-1.36v-.14c-.89.1-1.8.21-2.26.17.05-.09.07-.17,1.41-.32l-.65-.12c-1.05.12-2.09.21-3.14.35Z"/><path d="m86.26,55.15c-.46-.02-.76-.07-.3-.1,3.57-.24,1.81-.38.12-.52l-1.38.04.03.2.17.03-.16-.03c-1.25-.05-3.96.13-3.76-.16-2.07.04-3.95-.21-6.26-.04-.33.02-1.78-.07-1.85-.18l-2.18-.07c-.95.15-3.71.12-3.19.39.02.01-.48.02-.73.02-1.61-.46-2.31,0-3.58-.13,0,.02,0,.04,0,.07,3.73.55,4.63.22,5.96.03h.29s-.3,0-.3,0c.75.06,2.13.11,2.15.15.36.51,3.11.25,5.32.22,2.31-.02,4.97-.14,7.01.06,1,.04.86.22,2.6.18l.04-.14Z"/><path d="m15.33,11.27l-1.27.54c-3.02,1.46-3.05,1.33-2.86.95-1.02.46-.9.56-1.36.85,1.03-.23-.34.73-2.79,2.52.66-.28.79-.18.27.37.71-.31,1.15-.77,1.69-1.17-.39.21-.51.23-.01-.1.68-.45.61-.31.7-.32,1.59-.74,3.81-2.07,5.51-2.87,2.78-1.32,5.88-2.63,8.54-3.79l-.05-.08c-.67.25-1.34.47-2,.75-.57.37-1.16.55-1.74.74-.8.29-1.59.61-2.38.92-.13.16-.24.3-1.49.87-.84.38-1.34.56-1.77.69-.99.31.23-.39,1-.87Z"/><path d="m43.73,7.29c-.75-.08-2.64.61-3.9.82-.41.07-1.98.53-2.35.52-.45-.01,1.03-.35,1.78-.57,1.72-.5,3.42-.93,5.14-1.38l-.65.02-.84.18c-2.3.68-5.29,1.28-7.87,2.05-.6.24-.43.26-.11.25.56-.01-.22.26-1.89.72v.07c-.02.09-.5.27-1.51.57-.21.07-.41.13-.6.19.22,0,1.18-.24-.03.19l.08.04c4.05-1.21,8.15-2.2,12.29-3.16-.69.01-1.95.15.47-.5Z"/><path d="m104.34,3.44c-.88-.06-.78-.32-2.36-.23-1.18.07-2.28-.22-3.45-.22-.34.25-1.92.09-3.58-.06-1.41-.13-2.57-.15-3.64-.08-1.1.07-1.59.16-.43.3,1.57.04,3,.21,4.68.21,5.23.09,5.81.14,9.98.68.1.01.3.03.32.04,2.15-.08,5.35.59,7.54.62-.19-.14-.2-.28-1.66-.49-.06.08-.41.06-1.41-.06-2.12-.25-4.1-.46-5.99-.71Z"/><path d="m43.73,7.29c-2.43.64-1.17.51-.47.5,1.62-.29,2.73-.36,5.02-.98.83-.21,2.08-.42,3.47-.64,1.39-.19,2.91-.4,4.26-.59,3.63-.5,7.45-.98,11.14-1.18,1.62-.1,2.69-.16,2.5-.33-.19-.15-1.5-.08-2.96.09l-3.04.28c-3.57.29-6.59.88-10.1,1.36-1.78.22-3.57.54-5.35.82-.43.1-.89.26-1.26.32-.81.15-.9.09-.94.04-.17-.08-1.3.13-2.26.32Z"/><path d="m69.16,54.69c-1.32.19-2.23.51-5.96-.03l-3-.08c-.8,0-1.63-.01-1.43.11,1.39.27,3.24.26,4.78.33,5.87.28,11.75.44,17.67.29,1.58-.04,1.8-.11,2.4-.2-2.04-.19-4.7-.07-7.01-.06-2.21.03-4.95.29-5.32-.22-.03-.04-1.41-.09-2.14-.14Z"/><path d="m154.08,12.64c.36,0,.66,0,1.1.03,1.45.12,1.28.12-1.6-.71-4.79-1.34-9.65-2.24-14.44-3.26-1.46-.3-3.38-.7-3.11-.39,2.68.77,5.67,1.32,8.96,1.91,2.13.36,3.72.79,3.25.96,2.14.37,3.84.98,5.83,1.47Z"/><path d="m113.41,4.7c-2.19-.03-5.39-.7-7.54-.62-.03,0-.22-.02-.32-.04-4.16-.53-4.74-.59-9.98-.68-1.68,0-3.11-.17-4.68-.21.66.23,1.38.45,3.94.66l1.89-.05c.7-.1,1.77-.03,3.28.08,1.84.16,4.07.28,5.66.44,3.21.3,6.09.36,9.12.86l-.78-.37c-.2-.03-.4-.05-.6-.08Z"/><path d="m75.72,3.61c.96-.23,1.74-.48-2.14-.31-1.25.05-.47-.07-.38-.13,1.9-.23,4.01-.23,5.38-.18,3.46.12,4.24-.03,4.99-.29l.71-.02c2.28.13,6.01.21,2.46.53-.64.06-.62.17-.91.26-1.95-.02-3.91.03-5.86.04-1.26.03-2.21.07-2.34.2-.73.02-1.45.02-2.17.06.08-.06.05-.11.27-.17Zm6.23-.34c.08,0,.2,0,.39-.02-.11,0-.22,0-.39.02Z"/><path d="m79.21.18c1.11.17,5.02-.03,5.01.23,0,.12-1.58.24-2.25.4-.7.15-3.69.19-6.07.21-1.07,0-2.09-.03-3.16,0-1.03.02-2.3-.03-3.05.1-.8.14,2.04-.02,1.52.13,3.5.07,7.86-.21,11.48,0,1.14.06.89-.11,1.81-.13.89-.06-3.1-.21.18-.22,1.1-.18,4-.19,3.57-.44-.68-.04-1.57-.06-2.01-.11-1.1-.11-1.07-.43-3.88-.19-.01,0-.27-.02-.59-.05-.33-.02-.73-.06-1.04-.07-1.83-.06-3.57-.02-5.11.11.53.23,2.56-.04,3.6.04Z"/><path d="m88.97,1.14c.91.04,1.56.09,2.03.17,1.17.2,3.4.38,5.15.38,1.57,0,2.99-.04,3.17-.19.34-.26-1.61-.54-6-.73-1.07-.04-2.4-.19-3.61-.27-1.33.08-.83.25.61.39,1.45.14,2.79.14,3.83.09.38-.02,2.14.02,1.98.13-.14.1.87.25.22.31-.4.04-.59.11-1.78.06-1.23-.06-1.76-.14-1.9-.22-.15-.08-.32-.16-1.69-.21-1.33-.04-2.01,0-2,.09Z"/><path d="m114.79,5.15c-3.04-.5-5.92-.57-9.13-.86-1.59-.17-3.82-.28-5.66-.44-1.51-.11-2.58-.18-3.28-.08,2.57.47,6.44.51,9.62.82,4.75.43,9.62.83,14.19,1.67l.39-.04c-.67-.2-3.05-.65.61-.18,1.2.16,1.89.14-.16-.19-2.18-.25-3.81-.18-6.59-.7Z"/><path d="m91.34,54.06c.05.21,1.03.31,3.26.08,1.64-.16,2.71-.16,4.03-.1,1.36.06,3.64-.28,4.93-.14,3.17-.36,6.66-.42,9.99-.71,1.14-.09,1.78-.18,2.29-.3-3.07.08-6.38.3-9.95.56-2.28.14-4.59.29-7.07.3-2.17.03-4.96.22-7.48.31Z"/><path d="m35.13,4.83l-1.56.36c-.79.12-1.57.26-2.35.41-.33.09-.65.17-.98.26-1.05.34-2.08.71-3.12,1.07,1.94-.29,5.62-1.43,8.34-1.99,5.39-1.14,10.91-1.93,16.45-2.48l1.47-.2c-2.51,0-5.2.23-8.08.79-2.34.37-4.79.85-6.16.81l-1.06.19c-.25.05-.5.1-.75.16.02.04.05.06.09.07h.24s-.52.08-.52.08l-2.01.46Z"/><path d="m18.18,15.64c-1.92.86-3.82,1.8-5.58,2.99-1.42.9-2.71,1.86-3.7,2.61-.84.76-1.22,1.18-1.59,1.61-.44.5-.85,1.03-1.18,1.61-.37.55-.62,1.17-.88,1.78-.44,1.26-.65,2.61-.57,4.02.04.37.08.69.13.97.09.28.17.51.25.72.15.41.34.66.48.84-.37-.92-.55-1.89-.64-2.86-.01-.97.03-1.96.34-2.89.54-1.87,1.7-3.54,3.12-4.93,2.87-2.79,6.48-4.77,10.13-6.52l-.31.03Z"/><path d="m73.21,3.17c1.9-.23,4.01-.23,5.38-.18,3.46.12,4.24-.03,4.99-.29-5.69-.03-11.41.11-17.06.77-1.37.17-2.24.09-3.35.23-1.53.2-3.9.36-4.16.65,1.04-.14,2.09-.23,3.14-.35,1.72-.18,3.44-.29,5.16-.43,1.97-.15,3.93-.31,5.91-.4Z"/><path d="m31.43,49.2c-.1.07.35.31-1.95-.27-1.44-.37-2.67-.65-2.46-.44,5.89,1.61,11.87,2.95,18.16,3.79l-.02-.09-.2-.1c-.12-.02-.24-.04-.37-.05-1.05-.13-2.1-.27-2.38-.45-.19-.03-.38-.06-.57-.1l-2.19-.45c-.35.05-1.1-.06-2.26-.37-1.29-.27-2.66-.42-3.8-.78-.38-.12.22-.05.86.05l.07-.04-.68-.26c-1.25-.39-1.41-.25-2.19-.43Z"/><path d="m84.28,2.68c2.28.13,6.01.21,2.46.53-.64.06-.62.17-.91.26,1.08.03.72.1.79.15h1.45c-.45-.16,1.43-.18,1.48-.3l-.97-.05c.07,0,.21-.02.21-.02.27.02.53.05.78.07,1.29.12.49.23.76.34,1.46.19,2.95.27,4.5.15-2.56-.21-3.28-.44-3.94-.66-1.16-.14-.68-.24.43-.3,1.07-.07,2.23-.05,3.64.08,1.66.15,3.24.31,3.58.06-3.74-.26-7.58-.25-11.28-.41-1.46-.05-2.23.02-2.98.1Z"/><path d="m121.38,5.85c2.06.33,1.36.35.16.19-3.67-.47-1.28-.02-.61.18.65-.04,1.78.22,2.66.33-.08-.1.61-.12,1.14,0,2.64.57,4.57.62,6.89,1.04,1.26.12,1.31.22,1.39.32,1.23.34,1.56.29,1.94.27-.11-.02-.3-.06-.32-.07-.48-.3-2.22-.65-4.13-.95-2.63-.43-4.43-.96-7.17-1.32-.07,0-.33-.17-.5-.25l-2.85-.53-1.51-.27-.2.16c3.25.45,3.41.71,3.11.89Z"/><path d="m160.54,13.5c1.46.46,1.66.7,2.57,1.08.58.25,1.16.51.77.46-.3-.04-.91-.28-1.49-.47-.69-.24-1.55-.53-2.03-.65-.89-.22-2.3-.52-2.16-.41.34.26,1.64.49,2.5.79.53.18,1.01.38,1.51.57.63.33,1.25.46,1.88.67,1.06.34,2.18.73,1.92.49-1.02-.9,2.24.33,4.99,1.85-.28-.29-1.75-1.01-1.81-1.17-2.35-1.07-4.56-2.09-7.02-2.91-1.76-.58-1.42-.35-1.64-.33Z"/><path d="m131.61,7.58c-2.32-.41-4.25-.46-6.89-1.04-.53-.12-1.22-.1-1.14,0,4.66.71,9.28,1.49,13.92,2.34,2.32.42,4.75.96,7.03,1.5,1.38.32,2.51.54,3.72.78.46-.17-1.13-.59-3.25-.96-3.29-.58-6.28-1.13-8.96-1.91-.37-.04-.73-.09-1.1-.13-.38.02-.71.06-1.94-.27l-1.39-.32Z"/><path d="m73.21,3.17c-1.97.09-3.94.26-5.91.4l-.05.14c.8-.07,1.52-.09,1.4,0-.12.09-.93.14-1.67.21-.27.09-.28.16-.29.23,1.46-.17,2.77-.24,2.96-.09,1.88-.07,3.83-.15,5.81-.28.08-.06.05-.11.27-.17.96-.23,1.74-.48-2.14-.31-1.25.05-.47-.07-.38-.13Z"/><path d="m60.2,54.58l3,.08v-.07s-.15-.03-.15-.03l.15.03c1.27.14,1.98-.33,3.58.13.26,0,.76,0,.73-.02-.52-.27,2.24-.24,3.19-.39-.16-.08-.82-.08-1.42-.1-.78.09-2.03.02-3.14-.02-.81-.08-1.33.19-1.76-.03-.45-.23-1.81-.16-2.56-.25-1.3.05-1.89-.06-2.32-.21-.77-.08-1.67-.28-2.17-.14l-.34.08c.9.11,1.34.26,2.61.35.86.1.53.16.6.23,3.95.37-.54.21-.02.36Z"/><path d="m43.16,51.11c1.23.29,2.64.62,3.82.9,2.39.58,6.97,1.1,8.95.96-1.82-.18-3.84-.39-2.54-.47-3.47-.51-6.93-.97-10.23-1.39Z"/><path d="m60.21,54.22c3.95.37-.54.21-.02.36-.8,0-1.63-.01-1.43.11-2.26-.14-4.67-.16-6.69-.64-.1-.02-.13-.04-.09-.05,2.99.1,3.25-.2,3.12-.51l1.9.16c.9.11,1.34.26,2.61.35-.09.07-.12.13.6.23Zm-2.38.06c.47.07.93.04.78,0-.3-.1,1.23-.14-1.05-.3-1.14-.05-1.05,0-.23.13.15.06.13.13.49.18Z"/><path d="m112.18,54.09c-.69.05-1.28-.04-2.05.13-1.73.36-1.91.15-2.48.09-.52.01-1.19,0-1.55.04-1.39.13-2.7.28-3.73.15-.85-.1.33-.24,1.17-.38,1.5-.25,2.66-.23,3.88-.2.77.03,2.04-.03,2.66-.12,2.11-.36,3.07-.24,4.34-.24-.75.18-1.5.35-2.24.53Zm-8.3.26s.26-.02.28-.03c.03-.02-.01-.04-.02-.05l-.58.06c.1,0,.2.02.32.03Z"/><path d="m17.76,44.8c-2.71-1.35-5.41-3.03-7.64-4.67-.58-.4-1.24-1.12-1.71-1.63-.83-.94-1.35-1.6-1.85-2.08,1.41,2.22,3.84,4.35,6.34,5.87,3.22,1.99,6.3,3.74,9.88,5.04.52.19,1.15.43,1.41.46-.68-.39-1.88-.89-3.29-1.42-1.7-.64-2.44-1.1-3.14-1.56Z"/><path d="m88.97,1.14c0-.1.68-.13,2-.09,1.37.05,1.55.13,1.69.21.14.08.67.16,1.9.22,1.19.05,1.38-.02,1.78-.06.65-.06-.36-.21-.22-.31.16-.11-1.6-.15-1.98-.13-1.04.06-2.38.06-3.83-.09-1.43-.14-1.94-.31-.61-.39-.49-.06-.98-.1-1.48-.06.43.25-2.46.26-3.57.44.78.06,1.5.13,1.54.22l2.76.04Z"/><path d="m126.27,52.42c1.96-.07,3.92-.26,5.82-.79,1.11-.37,4.6-.88,5.17-1.27l-.3-.19c-1.28.16-2.43.35-3.46.61-.16.07.33.06-.44.2l-.25-.09c-.22.02-.45.05-.7.1-3,.48-2.34.76-5.1,1.2-.62.1-.77.17-.75.23Z"/><path d="m43.74,6.7l.65-.02c1.39-.21,3.29-.6,3.15-.34-.02.04.68-.01,1.61-.13.93-.12,2.07-.34,2.94-.63.55-.18,1.43-.35,2.64-.52-.06,0-.08-.02-.1-.04l.03-.19c-3.63.43-7.21.96-10.92,1.88Z"/><path d="m10.91,18.73c-.15.29,1.21-.61,2.37-1.24,2.48-1.41,5.51-2.69,7.77-3.73,1.56-.72,2.66-1.1,4.22-1.69.95-.35.39-.26.44-.35-3.37,1.19-6.66,2.37-9.98,4.18-1.44.78-3.27,1.75-4.83,2.82Z"/><path d="m84.71,54.56l1.38-.04c.73-.11,1.74-.22,1.57-.35-3.71-.02-7.68.2-11.43-.02-1.51-.08-1.98.17-3.34.22.07.11,1.51.21,1.85.18,2.31-.18,4.19.07,6.26.04,1.34-.42,2.46.04,3.72-.04Z"/><path d="m146.92,48.88c.37-.08.73-.16,1.09-.25.64-.32.61-.31-.54-.08-.51.09-1.19.2-1.31.18-.42-.06,1.63-.46,1.92-.66-.52.08-1.04.15-1.55.21l-2.39.48c-1.59.44-3.2.82-4.8,1.23,3.35-.44,3.3-.35-.6.65,1.76.05,3-.44,4.29-.85,1.29-.29,1.83-.82,3.89-.91Z"/><path d="m171.02,17.9c-2.76-1.52-6.01-2.75-4.99-1.85.26.23-.87-.15-1.92-.49.24.34,1.76.74,2.61,1.14.68.1,1.27-.07,4.29,1.83.5.31,1.3.82,1.56.87.27.06-.34-.35-.99-.78l-.3-.15.27.13-.52-.69Z"/><path d="m52.08,54.05c-.1-.02-.13-.04-.09-.05-.32-.13-2.62-.35-2.17-.46-.57-.25-1.44-.33-2.33-.32-.79.01-1.47.05-2.59-.35-.89-.09-1.48-.36-2.32-.39-1.06-.04-.22.22.64.46,2.98.5,6.14,1.12,8.86,1.11Z"/><path d="m9.48,41.29c-.73-.73-2.66-2.4-2.99-3.09-.08-.16-.73-.75-1.47-1.51-.75-.75-1.57-1.69-2.1-2.39-.17-.24-.3-.38-.45-.56l-.17.09c1.36,2.42,3.31,4.12,5.25,5.95.5.43,1.01.84,1.53,1.25.2.16.34.25.41.27Z"/><path d="m30.8,48.58c.95.44,7.48,2.05,9.62,2.33,2.11.31.8-.08,1.24-.11-1.34-.21-2.69-.39-3.93-.75-.27-.08-1.19-.28-1.25-.29-1.73-.14-3.83-.78-5.68-1.19Z"/><path d="m79.21.18c-1.04-.08-3.07.19-3.6-.04-1.06-.09-2.12,0-3.17.08-1.75.23-4.54.24-6.59.46.42.08.38.21,2.57,0,1.33-.13,3.26-.18,4.93-.23l.92-.1.29.03-1.16.07c1.38,0-2.84.5,2.19.2.17-.1-.49-.23,1.5-.27.4-.09,2.22-.06,2.12-.19Z"/><path d="m9.77,19.75s-.22.08.3-.32c-1.84,1.36-3.65,2.98-4.83,5.04-1.25,2.02-1.51,4.51-.99,6.46l.06-.12-.1-.75v-.76c-.04-.51.06-1.01.12-1.51.26-1.65,1.01-3.18,1.97-4.53.98-1.33,2.18-2.49,3.47-3.51Z"/><path d="m65.85.67c2.06-.21,4.84-.23,6.59-.46-.25-.2-1.88.02-2.72.04-3.23.06-6.56.32-9.79.62.68.3,3.86-.13,5.92-.2Z"/><path d="m13.94,11.64c2.1-1.01,4.46-2.16,5.99-2.54.58-.14,1.35-.53,1.45-.68.07-.1-.14-.12.76-.52.21-.32-1.58.49-2.53.89-2.14.91-4.29,1.89-6.41,2.94.21-.01-.28.33.74-.1Z"/><path d="m4.51,18.76c-1.14,1.1-2.19,2.44-2.47,3.56-.22.7-.39,1.08-.65,1.68-.79,2.06-.6,4.41.28,6.26-.52-1.96-.78-4.52.08-6.83.58-1.7,1.6-3.23,2.85-4.56l-.09-.11Z"/><path d="m174.5,36.99c-.16.21-.52.59-.49.64.02.02.13-.04.43-.26.31-.2.72-.62,1.4-1.24,1.3-1.39,1.93-2.01,2.54-2.79.15-.2.22-.21.34-.34.12-.13.33-.38.55-1.13.1-.3.16-.51.19-.65,0-.15,0-.23-.02-.26-.04-.07-.12.05-.19.15-.15.18-.31.26-.46.37-.77,2.19-2.43,4.02-4.29,5.52Z"/><path d="m32.19,50.8c.28-.14.35-.29-2.8-.92l-2.21-.44c-.46-.11-.91-.25-1.37-.38-.6-.1-1.41-.34-2.18-.6l-.86-.11c-.11.11.86.37,1.62.59,2.58.72,5.19,1.31,7.8,1.85Z"/><path d="m146.54,48.29c.52-.06,1.04-.13,1.55-.21,1.01-.27,2.06-.55,3.06-.83,1-.28,1.97-.52,2.87-.63.46-.05,1.72-.51,1.63-.52-.38,0,2.38-.87.4-.39-1.55.5-3.23.87-4.84,1.3-1.64.37-3.22.8-4.67,1.27Z"/><path d="m31.63,50c.8.14,2.01.25,2.34.35,1.33.35.05.14-.43.11-.32-.02.08.1.63.22.63.14,1.3.25,1.33.19.04-.09-.14-.22-.22-.34-2.59-.73-5.56-1.35-8.48-2.12l-.14.14s.03.05.01.06l.78.22c1.9.43,3.71.79,4.18,1.18Z"/><path d="m127.02,52.19c2.76-.44,2.1-.72,5.1-1.2-1.56.07-3.14.11-5.13.66-.22.08-.36.18-.68.22-4.87.67-1.26.37-.1.34.11-.06-.03-.11.85-.21l-.16.13s.09.03.12.05Z"/><path d="m177.67,23.03c.35.61.99,1.72,1.67,2.89.34.56.6,1.31.77,2.15.11.84.14,1.77-.08,2.62-.34,1.72-1.2,3.12-1.55,3.92,1.25-1.69,2.1-3.86,1.86-6.04-.21-2.18-1.35-4.05-2.67-5.54Z"/><path d="m119.99,5.06l2.85.53,1.49.27c.02-.17,1.25.04,2.46.23,2.8.6,5.44,1.03,7.96,1.29-.23-.11-.98-.32-1.5-.39-4.29-.59-9.05-1.61-13.25-1.93Z"/><path d="m65.96,1.53c-.15-.19-.66-.33-3.49.05-2.1.28-4.79.19-6.81.57,3.09.03,6.8-.4,10.3-.61Z"/><path d="m26.66,12.3c-1,.13-2.88.68-4.93,1.36.47.03-.51.58-1.79,1.3,1.41-.49,2.62-1.09,3.91-1.59.65-.4,1.8-.75,2.81-1.06Z"/><path d="m34.06,4.17c2.59-.37,7.9-1.33,11.09-1.97-3.2.28-6.38.9-9.53,1.58-.05.14-.84.25-1.56.39Z"/><path d="m97.38,54.63c-.86.04-1.46.09-1.44.18l.95.02.21.07h-.71s-.59-.07-.59-.07c-.89.03-1.31.09-1.38.17,2.71-.06,5.08.07,8.08-.2-.28-.23-2.8-.15-4.48-.19l-.65.02Z"/><path d="m144.73,9.53c3.33.72,6.63,1.48,9.5,2-1.08-.4-2.12-.72-3.81-.99-2.15-.35-4.74-1.06-7.09-1.5l.1.18c.43.1.87.2,1.31.31Z"/><path d="m7.05,16.13c2.45-1.8,3.82-2.75,2.79-2.52-.87.51-1.72,1.04-2.55,1.63.23-.07-.1.22-.43.52-.33.31-.64.63-.43.55.73-.49.49-.18.61-.18Z"/><path d="m139.34,49.99c1.6-.41,3.21-.79,4.8-1.23-2.47.39-4.91.79-7.18,1.4l.3.19,2.08-.37Z"/><path d="m55.11,53.49l1.9.16.34-.08c-2.76-.26-5.55-.65-8.12-.76.81.21,2.49.47,2.78.64.53.03.99.05,1.44.08.13-.09.21-.16,1.66-.03Z"/><path d="m4.51,18.76l.09.11c.82-.88,1.76-1.64,2.72-2.38.52-.55.39-.65-.27-.37-1.43,1.1-1.17.75-1.26.7-.26.14-.59.39-1.1.88-.57.6-.17.3-.04.22.56-.25,1.4-.86-.13.83Z"/><path d="m86.26,55.15l-.04.14c2.53-.03,5.3.1,7.44-.26-.38-.12.17-.39-2.62-.05-1.22.15-3.33,0-4.77.17Z"/><path d="m118.27,4.95l.2-.16c-2.84-.5-5.44-.67-8.1-.85l1.37.27c1.46.21,1.47.35,1.66.49.2.03.4.05.6.08.03-.24.5-.45,4.26.18Z"/><path d="m85.83,3.47c-1.95-.02-3.91.03-5.86.04-1.26.03-2.21.07-2.34.2,2.61.08,5.5-.12,8.22-.05,0-.06.01-.13-.02-.2Z"/><path d="m111.74,4.21l-1.37-.27c-2.1-.31-4.28-.64-6.03-.49,1.89.25,3.88.46,5.99.71,1,.11,1.35.14,1.41.06Z"/><path d="m39.51,52.26c-.08-.03-.1-.06-.24-.1-1.03-.29,3.01.24-.01-.32-2.18-.42-3.61-.51-3.47-.24,1.27.27,2.61.67,3.72.66Z"/><path d="m17.76,44.8c.7.47,1.44.93,3.14,1.56,1.41.53,2.61,1.03,3.29,1.42.13.04.26.09.4.14h.03s.02.01.02.01c.41.1.81.2.96.19l-.91-.39h-.03s-.28-.16-.28-.16c-2.16-.85-4.3-1.71-6.37-2.74l-.24-.04Z"/><path d="m53.39,52.5c-1.3.08.72.29,2.54.47,1.34.16,2.19.2,2.76.17l-.02-.15c-1.73-.14-3.46-.28-5.28-.49Z"/><path d="m35.03,8.93c2.58-.77,5.57-1.37,7.87-2.05-2.67.43-5.28,1.21-7.88,1.93l.02.12Z"/><path d="m164.88,42.5c.58.36,3.26-1.33,4.85-2.18-.15-.04.24-.41-1.67.67-.97.51-2.09,1.05-3.18,1.51Z"/><path d="m36.74,50.79c.24.15-.06.25,1.58.56,2.22.39.94-.09,2.23.05-1.74-.48-2.55-.4-3.81-.62Z"/><path d="m27.13,6.94c1.03-.36,2.07-.74,3.12-1.07-2,.55-2.16.48-2.49.43-.19-.02-.68.05-1.62.38-.35.12-.89.34-.99.4-.29.18.49-.06,1.1-.24,2.21-.63-1.66.83.26.3.2-.06.41-.13.62-.2Z"/><path d="m57.29,53.64c-1.47-.09-3.42-.66-4.6-.45.6.3.6.28,4.6.45Z"/><path d="m16.83,45.26c-1.72-.9-1.51-1.03-1.82-1.34-1.29-.78-2.62-1.79-3.7-2.38v.09c.85.68,2.48,1.67,2.57,1.87.17.46,1.56,1.19,2.96,1.76Z"/><path d="m21.14,46.63c-.96-.12,1.13.69,2.12,1.11l1.14.22h.95c-1.44-.46-2.76-.72-4.21-1.33Z"/><path d="m177.03,23.61l-.16.13c.81,1.07,1.48,2.22,1.98,3.56.05-.02.15.08.16-.05-.01-.12-.04-.51-.5-1.41-.36-.67-.65-1.14-.84-1.45-.18-.32-.24-.47-.16-.5-.47-.49-.39-.28-.48-.29Z"/><path d="m19.94,14.96c1.28-.72,2.26-1.28,1.79-1.3-1.36.68-3.35,1.67-3.55,1.99l.31-.03,1.44-.66Z"/><path d="m13.94,11.64c-1.02.43-.53.09-.74.1-.67.33-1.34.66-2,1.02-.2.38-.17.51,2.86-.95l-.12-.17Z"/><path d="m143.42,9.22l-.1-.18c-1.41-.3-2.63-.5-3.68-.62.81.64,2.32.69,3.78.8Z"/><path d="m14.36,42.11s-.17-.01-.06.09c.3.3-1.6-.67.35.54,1.76,1.02.32,0,.62.07.08.02.68.34,1.04.52-.4-.31-.75-.57-1.95-1.22Z"/><path d="m26.66,12.3c-1,.31-2.16.66-2.81,1.06l1.53-.54c.57-.23,1.07-.39,1.35-.43l2.82-1.01-.61.14-2.28.77Z"/><path d="m103.79,53.25s.05-.04,0-.05c-.26-.05.82-.29-.98-.12-.62.06-1.76.33-.57.32l1.55-.15Z"/><path d="m89.55,3.32c-.05.12-1.93.14-1.48.29l2.27.04c-.27-.11.53-.22-.79-.34Z"/><path d="m86.21,1.1c-.05-.09-.76-.16-1.54-.22-3.28.01.72.16-.18.22.14.02.33.03.57.02h.98c.2,0,.26,0,.17-.02Z"/><path d="m10.36,41.88l-1.22-.86c.42.54,1.91,1.6,2.81,2.28l.14-.06.03-.15c-.33-.23-.58-.41-.83-.59-.14,0-.54-.32-.92-.63Z"/><path d="m169.2,16.73c.06.16,1.54.87,1.91,1.2.36.18.71.36,1.06.56-.25-.2-.52-.39-.78-.58-.67-.44-1.4-.83-2.18-1.19Z"/><path d="m59.51,53.7c.43.15,1.02.26,2.32.21-.62-.11-.86-.3-2.32-.21Z"/><path d="m55.49,4.88l2.31-.37c.09-.18-1.19.02-2.33.2l.02.17Z"/><path d="m66.15,54.18c1.11.04,2.35.11,3.14.02-1.59-.19-2.44-.13-3.14-.02Z"/><path d="m111.6,52.36c-.73.03-1.57.17-2.52.33.81-.07,1.31.04,2.52-.33Z"/><path d="m28.94,11.53l.61-.14,1.41-.43-.08-.04c-.66.14-1.32.31-1.95.61Z"/><path d="m3.97,34.58s-.03,0-.08-.06c.07.08.14.17.21.27l.24.07c-.13-.09-.25-.18-.37-.28Z"/><path d="m26.73,12.4c-.29.04-.78.2-1.35.43.02.11.47-.07,1.35-.43Z"/><path d="m9.7,14.92c-.09,0-.02-.13-.7.32-.5.33-.38.31.01.1l.69-.42Z"/><path d="m12.09,43.24l-.14.06c.65.42,1.12.67,1.37.75l-1.23-.81Z"/><path d="m9.08,41.02c-.52-.41-1.03-.82-1.53-1.25.56.61,1.09,1.03,1.53,1.25Z"/><path d="m85.87,3.48l-.02.19c.49.02.75,0,.77-.04-.07-.06.29-.13-.75-.15Z"/><path d="m132.82,50.89l.25.09c.77-.14.28-.13.44-.2-.24.02-.47.06-.69.11Z"/><path d="m34.06,4.17c.73-.15,1.51-.25,1.56-.39-.67.11-1.33.25-1.56.39Z"/><path d="m18,44.84c2.07,1.03,4.21,1.89,6.37,2.74.12.04.22.08.3.11h.02s0,0,0,0c.57.14.83.17.9.14l.14-.14c-.44-.12-.78-.22-.96-.28h0c-.42-.18-.47-.25-.18-.2.22.03.51.08-.27-.22-.23-.08-.6-.22-.9-.33-.31-.11-.56-.18-.56-.18.04.31-3.07-1-4.31-1.47-.25-.09-.37-.11-.55-.16Z"/><path d="m65.1,54.15c1.56.16,3.13.27,4.67.22-2.63-.13-.47-.27-2.32-.4-.99-.08-1.97-.15-2.95-.27.37.16,1.93.4.61.45Z"/><path d="m8.9,21.25c.99-.75,2.28-1.71,3.7-2.61-.08-.03.08-.23-.3-.04-.5.24,1.33-1.03-.39.04-1.16.78-.88.71-.71.69.08,0,.15.07-.65.52-1.45.84-.99.87-1.66,1.41Z"/><path d="m39.44,51.03l2.19.45c.3-.01,2.19.25.54-.11-1.74-.38-2.35-.39-2.73-.34Z"/><path d="m34.23,49.93c-.64-.1-1.24-.17-.86-.05,1.14.37,2.51.51,3.8.78-.08-.18-1.78-.47-2.94-.74Z"/><path d="m4.33,27.8c-.07.5-.16,1-.13,1.51v.76s.11.75.11.75c.04-.09.04-.37,0-.78.03-.41,0-.95.06-1.54.12-.92,0-.63-.05-.71Z"/><path d="m30.92,10.73c.2-.06.4-.13.6-.19l.05-.13c-.86.27-1.92.56-2.27.79l1.61-.46Z"/><path d="m42.2,51.58c.28.18,1.33.33,2.38.45l-.06-.13c-.78-.11-1.55-.22-2.32-.33Z"/><path d="m28.34,48.1c-.15-.05-.3-.09-.44-.14l-.42-.05c.18.05.4.12.55.15.14.03.21.03.32.04Z"/><path d="m7.31,22.86c.36-.44.77-.83,1.17-1.23-.18.12-.32.2-.53.4-.6.58-.51.64-.64.83Z"/><path d="m33.62,49.63l.68.26c1.12.14.26-.05-.68-.26Z"/><path d="m44.52,51.9c.4.06.98.16.98.11,0-.01-.28-.08-.43-.1-.67-.11-.49-.03-.55,0Z"/><path d="m25.73,47.69l-.14.14c.94.19,1.03.15.14-.14Z"/><path d="m8.38,37.71s.07.11.14.19c0-.03-.07-.11-.14-.19Z"/><path d="m33.02,9.96v-.07s-1.43.5-1.43.5c.47-.14.95-.29,1.43-.44Z"/><path d="m31.41,49.19l-.16-.06c.06.02.12.04.16.06Z"/><path d="m44.95,52.09l.2.1c.64.06.52.02-.2-.1Z"/><path d="m15.33,11.27c-.77.48-1.99,1.18-1,.87.43-.13.92-.31,1.77-.69,1.25-.57,1.36-.71,1.49-.87-.69.2-1.06.25-.55-.11.23-.16.15-.18-.59.14-.89.4-1,.53-1.11.65Z"/><path d="m77.09.36c-1.99.04-1.33.17-1.5.27.74,0,1.77-.06,1.88.06.05.06.77.12,1.42.1.67-.02,1.29-.1,1.52-.16.39-.1-.9-.05-1.3-.08-.79-.06-1.36-.12-2.02-.19Z"/><path d="m39.14,3.87c1.38.05,3.83-.44,6.16-.81-1.74.06-3.7.24-6.16.81Z"/><path d="m37.34,4.22c.25-.06.5-.11.75-.16.12-.04.2-.08.38-.12,1.39-.33,2.31-.58.84-.46-.39.03-1.44.18-1.25.21.44.04-4.14,1.05-.72.53Z"/><path d="m21.7,8.92c.66-.27,1.33-.5,2-.75-.01-.09,1.62-.84-.17-.21-1.33.46-2.19.94-1.83.95Z"/><path d="m31.23,5.61c.78-.16,1.56-.3,2.35-.41-.07-.06,1.16-.43.08-.24-.86.14-1.76.4-2.43.66Z"/><path d="m72.53.77c-.43-.01-.7-.03-.95-.02-.27.01-.54.05-.81.07.23.01.44.03.69.03.26,0,.57-.04,1.06-.08Z"/><path d="m35.13,4.83l2.01-.46c.09-.03.19-.06.29-.08l-.1-.04c-.9.21-2.24.45-2.19.59Z"/><path d="m19.96,9.66c.58-.19,1.16-.37,1.69-.72l-1.69.72Z"/><path d="m68.06,1.26c-.21,0-.32,0-.42.02.08,0,.15,0,.42-.02Z"/><path d="m164.64,43.69c.76-.35,1.66-.69,2.06-.99.12-.18.77-.5,1.49-.85.71-.37,1.49-.78,1.9-1.07.3-.24,1.52-.68,1.91-1.12.24-.26-.87.31-1.57.63-.71.34-1.27.57-2.19,1.16-1.17.69-2.59,1.41-3.8,1.67-.72.17-1.91.72-2.61,1.05-1.24.53-.19.24.57,0,1.2-.36,2.38-.73,2.23-.48Z"/><path d="m177.03,23.61c.09,0,0-.21.48.29.09.04.39.43.63.71.23.29.36.48.19.05-.15-.28-.52-.93-.85-1.28-1.07-1.21-.47-.31-.75-.52-.16-.11-.3-.19-.52-.37-.22-.18-.65-.53-.97-.79-.33-.24-.55-.38-.34-.15.48.53,1.45,1.22,2.13,2.07Z"/><path d="m179.6,28.23c0,.16,0,.31.01.46.03.14.08.28.09.43.02-.19-.01-.41-.02-.57-.02-.14-.05-.21-.08-.32Z"/><path d="m151.14,47.99l-.72.18c.23-.06.48-.12.72-.18Z"/><path d="m92.69,53.63c.15.04.2.09,1.19-.01-.14-.04-.61-.02-1.19.01Z"/><path d="m118.84,53.37l1.51-.15c0-.09-.35-.18.11-.26.81-.15,1.54-.26,1.26-.34-.14-.04-.59.03-.76.07-.64.16-2.83.36-2.23.49.2.04.08.13.11.19Z"/><path d="m114.43,53.56c.47.02.51.12,1.57.03.15-.01.52-.1.47-.12-.22-.09-1.24.02-2.04.09Z"/><path d="m97.38,54.63l.65-.02c0-.05.13-.12-.72-.09l.07.11Z"/><path d="m126.9,52.14l.16-.13c-.87.1-.74.15-.85.21l.69-.08Z"/><path d="m123.31,52.77l-.27-.06c-.71.13.02.07.27.06Z"/><path d="m67.45,53.97c1.85.13-.31.27,2.32.4.96.04,1.64.04,2.14,0,1.06-.1,2.37-.19.4-.36-3.1-.32-3.24-.03-4.86-.04Z"/><path d="m79.93,54.07c-1.07.03-2.78-.08-2.69.09.03.07.46.18,1.67.13,1.18-.04,2.9-.14,2.96-.2.13-.13-1.4.01-1.95-.02Z"/><path d="m78.76,54.51c.84.06,1.36.13,1.97.13.77,0,2.14-.02,2.19-.12.03-.06-.47-.11-1.29-.1-.88.03-1.73.06-2.87.09Z"/><path d="m88.97,53.87c.1.04.11.09.88.03.24-.02.37-.07.55-.11l-1.44.08Z"/><path d="m75.81,54.26c.24-.02.09-.02-.06-.03l.06.03Z"/><path d="m87.55,53.87h.34s.34-.02.34-.02c-.23-.02-.45-.02-.67.02Z"/><path d="m2.24,32.11c-.03.18.28.9.91,1.78.81,1.11.6.59.74.65-.74-1.08-.96-1.01-1.65-2.42Z"/><path d="m5.78,16.83c.09.05-.17.4,1.28-.71-.14,0,.09-.3-.63.19l-.65.52Z"/><path d="m2.23,32.1l-.05-.16c.02.06.04.11.05.16Z"/><path d="m144.73,9.53l-1.32-.31c.22.1-.47.05.59.28.6.13.77.09.73.03Z"/><path d="m126.78,6.09c-1.21-.2-2.44-.4-2.46-.23.9.1,1.91.24,2.46.23Z"/><path d="m16.83,45.26c-1.39-.57-2.78-1.3-2.96-1.76-.08-.2-1.72-1.19-2.57-1.87.39.47.69.87,1.24,1.42.59.57,1.48,1.28,2.58,1.91,1.09.62,2.35,1.13,3.52,1.47.29.08.45.1.8.22,1.31.42,1.47.24.23-.32-.51-.24-.51-.25-.87-.23-.16,0-.17.12-1.12-.3-.29-.13-.58-.34-.86-.53Z"/><path d="m27.45,48.82l-.78-.22c-1.43-.16.64.65.52.84l2.21.44c.25-.15-2.59-1-1.95-1.06Z"/><path d="m23.63,48.47c.78.26,1.58.5,2.18.6-.02-.02,0-.03-.07-.05-.94-.35-.71-.5-1.89-.83-1.75-.49.13.28-.23.28Z"/><path d="m19.93,46.98c-.21-.06-.45-.13-.44-.11.05.06.19.15.29.23.1.02.27.06.28.05.02-.03-.08-.09-.14-.16Z"/><path d="m10.36,41.88c.39.31.79.63.92.63-.38-.28-.88-.72-.92-.63Z"/><path d="m12.12,43.1l.28.14c-.12-.07-.23-.14-.28-.14Z"/><path d="m139.34,49.99l-2.08.37c-.57.39-4.06.9-5.17,1.27.13.07-.15.24,1.53-.03-.73-.02.48-.27,1.24-.43.93-.19,1.39-.19,1.76-.17l2.11-.35c3.91-1,3.96-1.09.6-.65Z"/><path d="m136.62,51c-.37-.02-.83-.02-1.76.17-.76.16-1.97.41-1.24.43,1.14-.18,2.57-.35,3-.6Z"/><path d="m146.92,48.88c-2.06.1-2.6.63-3.89.91,1.62-.2,2.77-.56,3.89-.91Z"/><path d="m151.16,47.98l-.75.18c.26,0,.51-.06.75-.18Z"/><path d="m55.11,53.49c-1.46-.13-1.54-.05-1.66.04.21.16-.55.05-1.36-.07-.47.09-.17.3-2.27.09-.45.11,1.85.34,2.17.46,2.98.1,3.25-.2,3.12-.51Z"/><path d="m31.65,50.01l-.92-.19c.5.18.64.15.92.19Z"/><path d="m66.73,3.94c.35-.09.44-.16.53-.23-1.5.14-2.99.24-4.47.41-1.34.15-1.36.24-1.41.32.8-.07,1.77-.2,2.25-.17l3.09-.34Z"/><path d="m62.79,4.13c1.48-.17,2.98-.27,4.46-.41l.05-.14c-1.72.14-3.45.25-5.16.43l.65.12Z"/><path d="m46,6.97c.04.05.13.11.94-.04.37-.06.84-.22,1.26-.32-.54.02-1.39.21-2.2.36Z"/><path d="m63.64,4.28c-.48-.03-1.46.1-2.25.17.47.04,1.38-.07,2.25-.17Z"/><path d="m54.74,5.05s-.69.17-.03.11c.07,0,.28-.04.34-.06.42-.11.17-.1-.31-.05Z"/><path d="m84.71,54.56c-1.25.08-2.38-.38-3.72.04-.21.29,2.51.12,3.76.16-.02-.07-.03-.13-.04-.2Z"/><path d="m69.14,54.69h.3c-.09,0-.19,0-.3,0Z"/><path d="m84.75,54.76l.16.03c-.06,0-.11-.02-.16-.03Z"/><path d="m33.02,9.96l-1.45.44-.05.13c1.02-.3,1.49-.48,1.5-.57Z"/><path d="m118.27,4.95c-3.75-.62-4.22-.42-4.26-.18l.78.37c2.78.52,4.41.45,6.59.7.3-.18.14-.45-3.11-.89Z"/><path d="m82.34,3.25h-.32s.14.02.32,0Z"/><path d="m37.14,4.37l.52-.08h-.24c-.1.03-.19.06-.28.08Z"/><path d="m89.57,3.32c-.26-.02-.52-.05-.78-.07,0,0-.14.01-.21.02.32.02.65.03,1,.05Z"/><path d="m131.61,7.58l1.39.32c-.08-.1-.13-.21-1.39-.32Z"/><path d="m67.26,3.71l-.28.21c.73-.07,1.55-.12,1.66-.21.12-.09-.59-.07-1.39,0Z"/><path d="m59.61,53.99c-.09.07-.12.13.6.23-.07-.07.26-.13-.6-.23Z"/><path d="m63.2,54.59l-.15-.03c.05.01.11.02.15.03Z"/><path d="m57.34,54.09c.15.06.13.13.49.18.47.07.93.04.78,0-.3-.1,1.23-.14-1.05-.3l-.23.13Z"/><path d="m57.34,54.09l.23-.13c-1.13-.05-1.04,0-.23.13Z"/><path d="m103.55,54.33c.1,0,.2.02.33.03.01,0,.26-.02.28-.03.03-.02-.01-.04-.02-.05l-.58.06Z"/><path d="m171.53,18.59l-.27-.13c.1.05.2.1.27.13Z"/><path d="m73.4.43l1.16-.07-.29-.03c-.3.04-.61.07-.87.11Z"/><path d="m96.89,54.83l-.95-.02c.07.04.26.06.46.08l.49-.07Z"/><path d="m52.09,53.45c.81.12,1.56.23,1.36.07l-1.36-.07Z"/>
                  </g>
                </mask>
              </defs>
              <path class="mask" d="m99.38,1.32c-15.2-1.13-27.9-.74-37.01-.1-15.4,1.08-29.15,2.15-43,8.35C12.04,12.85,3.14,16.83,1.07,23.78c-3.01,10.11,10.75,18.7,13.25,20.26,1.96,1.22,9.63,5.55,32.02,8.76,13.64,1.96,28.08,2.12,42.33,1.8,22.83-.51,46.23-2.31,66.56-8.18,12.13-3.5,23.78-9.31,24.42-16.55.42-4.72-4.09-9.19-10.44-12.38-6.34-3.19-14.39-5.27-22.49-7.06-19.77-4.36-40.99-7.29-62.64-7.22-21.66.07-43.81,3.28-61.49,10.23-6.93,2.73-13.3,6.14-16.28,10.42-4.45,6.38-.36,13.69,7.97,18.62,3.36,1.99,6.86,3.62,10.49,4.94,6.58,1.75,13.9,3.32,21.94,4.52,34.6,5.15,64.98.7,83.82-3.44"
                    mask="url(#path-mask)" stroke="black" stroke-width="2" fill="none"
                    stroke-dasharray="632.3441772460938" stroke-dashoffset="632.3441772460938">
              </path>
            </svg>
        