
            <svg xmlns="http://www.w3.org/2000/svg">
              <defs>
                <mask id="path-mask">
                  <g fill="white">
                    <path d="m376.19,63.32c2.58-1.73.78-.88,1.22-1.34.65-.36,1.26-.77,1.89-1.16,1.58-.91,3.34-2.11,4.78-3.1,1.48-1.02,3.4-2.76,4.96-4.72,1.57-1.95,2.71-4.09,3.16-5.45.93-1.72,1.22-2.94,1.34-3.75.43-1.21.67-2.81.68-4.33.01-1.52-.18-2.96-.3-3.95.07-.57-.52-2.84.27-1.04.53,1.31.96,2.88.79,5.17-.14,1.89-.53,3.55-.66,4.63-.2.56-.35,1.13-.59,1.67-.35,1.05-1.03,2.16-1.7,3.19-.33.52-.69,1-.96,1.47-.3.46-.54.9-.69,1.32-.21.27-.52.65-.77.96-.25.32-.47.57-.47.57-.75,1.63-3.74,4.44-6.54,6.48l-.12-.07c.72-.63.54-.53-.31.12-.13.11-.27.22-.43.34l-.2-.08c.46-.37,1.15-.88,1.1-.94-.01-.01-.37.22-.54.35-.78.61-.52.49-.58.6-.9.7-1.81,1.39-2.75,2.04-.23.16-.46.32-.71.47.31-.3,2.57-1.96.46-.67-2.24,1.32-2.94,1.87-3.31,2.29-.34.39-1.26,1.03-2.87,1.73-.28-.17-2.44,1.12-4.04,1.83l.04-.11c1.42-.83.25-.3-1.03.28-1.8.64-1.84.99-2.94,1.46l-.24.06.27-.08c-.04.19.7.09-2.52,1.4-2.01.8-3.73,1.5-3.28,1.61l-1.99.8-1.88.34c1.1-.4,1.56-.63,1.62-.76,1.28-.58,1.35-.72.04-.33-1.75.61-2.36.73-1.79.36.27-.18.64-.41-.52-.02-.34.12-.87.32-1.31.5-.22.09-.42.18-.56.23-.14.06-.23.1-.22.11.35.32-4.3,1.92-6.07,2.69-.36.16-.5.28-.74.41l-.29.22c-4.2,1.32-8.69,2.36-12.44,3.68-.95.32-2.34.55-3.31.72-1.77.32-2.94.62-3.85,1.01-2.76.58-5.54,1.09-8.31,1.61l-.18-.11c-.27-.15-1.62.01-3.3.36-1.3.27-.84.35-.92.47-4.6.96-9.21,1.88-14.08,2.69h.2c-.05.08.33.1-.58.26-.25.13-.33.25-1.53.42.37-.39-1.97-.11-3.86.13-4.09.53-8.86.92-12.41,1.63-2.46.45-4.13.66-6.55.94-1.46.17-.62.32-.73.47-4.68.61-9.39,1.04-14.08,1.56v-.28c.91-.25.67-.38.2-.51-.82-.23.37-.49,2.88-.73l2.2-.36c1.32-.15,2.92-.26,3.48-.54l-2.44.17c-.32-.1-1.77-.09.08-.4.98.05,1.97-.03,2.97-.29,1.17-.11,2.33-.26,3.49-.39,1.48.28,4.35.24,7.49.13,2.16-.56,5.33-1.2,5.73-1.68,3.07-.34,6.13-.68,9.19-1.29.1.13-.22.35.39.35.81,0-2.36.71.55.28,2.02-.3,1.59-.44,1.35-.57-.11-.06-.16-.31,1.19-.27,2.47.07,1.87-.45,3.95-.72.32.01.57.08.99.02,1.2-.18,1.17-.31,1.48-.44,3.9-.62,7.64-1.52,11.79-2.13,2.16-.32,3.23-.91,3.82-1.26,6.31-1.31,12.6-2.77,18.82-4.46,0,.07-.17.2.05.2.62,0-2.28,1.16.95.26,2.86-.79.31-.39.68-.66.11-.08,1.05-.36,1.6-.55,5.17-1.74,10.78-3.5,16.06-5.51.77-.3,1.75-.75,2.71-1.14.95-.42,1.86-.8,2.53-.91.37-.09,1.23-.34,2.32-.77,1.09-.44,2.45-.98,3.83-1.59,1.36-.65,2.78-1.31,4-1.97,1.21-.67,2.25-1.27,2.92-1.69Zm-17.02,7.78l-.54.31c.26-.09.58-.19.78-.27.2-.08.27-.15.41-.23-.22.07-.44.13-.65.2Zm-30.65,9.65c-.12.02-.29.06-.43.09.03.04.2,0,.43-.09Z"/><path d="m309.7,3.83c3.62.24,7.21.64,10.78,1.07,3.57.43,7.14.88,10.71,1.4.8,1.35,5.51,1.26,8.47,1.81.55.44.41.88,3.65.93,1.96.03,4.75.46,7.22.86,1.95.47-4.34.86,3,1.39,1.05.21,2.57.29,2.65.75.04.23,1.03.66,1.98.73.98.08,1.91-.04,2.29-.21.63-.28-1.26-.4-1.82-.6-1.11-.39-1.88-.8-2.79-1.21.63-.2,3.21.37,3.15-.11,1.49.93,7.26.92,7.09,1.85-.09.46-2.44.63-3.5,1.03-1.1.41-5.43-.16-8.83-.81-1.54-.29-2.97-.73-4.5-1.01-1.48-.29-3.25-.9-4.39-.68-1.22.23,2.91.6,2.09.95-2.41.02-4.91-.18-7.61-.82-.11-.74-.76-1.36-4.95-1.29-3.12.08-6.84-1.51-9.89-1.05l-1.14-.09-2.13-.45c-3.54-1.14-7.44-1.66-11.75-1.44-1.23-.41-2.55-.77-4.02-1.01-1.48-.2-3.11-.29-4.97-.23l-1.56-.1c.19-.05.31-.12.58-.13,2.09-.1,3.5-.29,1.4-.93-.55-.17-2.07-.41-1.83-.18.58.55-6.25.23-1.31,1.29-1.35-.02-3.32-.27-3.33.2l-2.33-.2c-.06-.26,1.82-.38.25-.72-1.25-.27-2.62-.26-3.67-.12l-1.47-.13c-3.02-.31-3.18-.79-3.58-1.26-.23-.27-.94-.51-2.39-.58-.54-.03-1.39.04-1.57.12-.49.24.68.36,1.6.51,3.32.55-2.73.7.15,1.24-.75.4-2.61.27-4.36.19v-.3c.04-.29,2.66-.57-.1-.85-2.04-.21-3.49.08-3.1.59l-2.68-.14-3.69-.6c-1.03-.39-1.53-.76-.62-1.1.41-.16.32-.33-.86-.42-1.42-.1-1.65.11-1.88.3-.66-.1-1.33-.22-1.99-.3l-.02-.65c3.38.2,7.21.11,9.44,1.06.85.36,2.1.25,2.33-.07.16-.23-.1-.51,1.34-.57,2.95-.15,5.94-.17,8.96-.06,3.02.18,6.07.51,9.15.95,1.85.57,4.74.98,7.76,1.18,1.51.1,3.06.15,4.53.13,1.46.02,2.85-.01,4.05-.13Zm38.05,6.58c-.39-.07-.79-.01-1.19-.02.32.11.61.26.97.32.38.07.83.06,1.55.1-.61-.19-.97-.35-1.34-.41Z"/><path d="m26.95,72.48c2.66.89,3.76,1.66,5.01,2.45.63.4.03.67,2.22,1.24,1.77.44,1.47,0,1.24-.37-.22-.36-.3-.68-.44-1.01,2.1.67,4.22,1.27,6.33,1.9-.06.28-.92.45,1.99,1.23,2.19.59,3.14,1.04,2.96,1.4-.3.15-2.87-.54-1.7.14.41.23,1.39.66,2.07.82,2.26.54.86-.18,1.4-.25.3-.03.54-.1.97-.08.85.04,3.23.56,2.4.1-.95-.53-2.74-.56-4.27-1.02l.14-.52c6.08,1.53,11.98,3.04,17.81,4.57-1.09.39-1.86.92-6.82-.69-.82-.25-2.17-.56-2.57-.41-.42.15.6.47,1.75.78.31.38.61.76.77,1.14l-1.72-.23,1.3.56c-2.05-.27-4.01-.69-5.89-1.18-1.87-.5-3.65-1.13-5.34-1.82-.82-.59-2.48-1.52-4.4-1.69-1.85-.14-4.25-1.03-6.53-1.77-2.28-.77-4.4-1.51-5.73-1.4-3.24-1.48-6.8-2.69-10.1-4.3.41-.54-2.07-1.81-4.22-2.77-1.92-.86-2.96-1.57-4.19-2.58.76-.16,3.71,2.1,5.2,2.45.54.14,1.95,1.51,2.87,1.48.56-.01-.97-1.01-1.87-1.7-.91-.72-1.67-1.16-3.13-1.77-1.84-.76-3.9-1.9-4.93-3.47-.61-.93-2.21-1.94-3.09-2.65-1.52-1.25-.57.01.16.94,1.15,1.46,2.45,2.78,1.88,2.95l-1.05-.61c-.57-.97-1.65-2.07-2.77-3.39-1.12-1.31-2.29-2.88-2.93-4.58-.28-.64-.65-1.76-.75-2.64-.11-.89.06-1.45.41-1,.12.11-.03-.89.08-1.94.06-1.05.32-2.14.27-2.22-.29-.37.14-1.53,1.01-2.84.2-.33.41-.66.65-.96,1.14-1.84,2.85-3.73,2.74-2.57-.43,1.05-.42.98.92-.11.6-.47,1.44-1.03,1.65-1.03.69-.05-1.71,1.78-1.8,2.36-1.05,1.07-1.95,2.32-2.66,3.57-.73,1.25-1.28,2.46-1.87,3.62-.11.3-.24.94-.15,1.48.05.54.15.97.19.9.13-.26.26.6.51,1.12.1.27.21.46.26.41.04-.04.05-.32-.01-.97.09.04.18.13.25.33.07.21.14.53.3,1.04,1.05,3.36,3.82,6.43,7.17,8.48-.2.74.8,1.55,2.14,2.29,1.34.75,3.02,1.4,4.15,2.05,2.68,1.43,4.94,1.89,7.84,3.27-.83.04-3.2-.31,1.9,1.47Zm11.8,4.77l-.65-.02c.26.1.55.24.78.29.2.05.32.02.48.02-.21-.1-.41-.2-.61-.29Z"/><path d="m334.22,9.33c-1.94.01-4.09.02-6.21.03-2.11.11-4.19.19-5.97.42-1.58.04-3.58.19-5.64.47-1.03.17-2.07.34-3.09.51-1.02.17-2.02.31-2.94.52-1.05.21-1.45.32-2.19.52-2.27.62-2.69,1.25-.17.75,2.66-.51,3.49-.65,4.21-.58.73.04,2.06-.02,4.56-.67.27-.08,1.33-.2,1.78-.24,1.1-.1,2.19-.2,3.27-.3,1.08-.12,2.17-.13,3.25-.22l3.24-.19c1.08,0,2.17-.02,3.26-.03,10.05-.03,20.09,1.19,29.88,3.46v-.14c-.82-.18-1.49-.34-1.66-.44-1.47-.28-3.21-.69-4.44-.87-1.47-.24-3.11-.5-4.67-.76-1.57-.19-3.06-.4-4.21-.65-.69-.2-3.59-.5-6.58-.82-1.5-.12-3.02-.19-4.3-.26-.64-.03-1.22-.06-1.7-.08-.48,0-.87.01-1.13.02-.35.01-.71.05-.66.07.5.19-1.44.1-2.32.07-1.06-.05-1.71-.13-2.63-.13-.52,0-2.16.13-2,.05.1-.05,1.03-.14,2.3-.22,2.65-.1,6.4-.04,6.76-.28Z"/><path d="m68.24,17.37c-2.54.73-5.61,1.38-7.18,2.28.75-.12,1.74-.19,2.24-.35,1.95-.62,3.77-1.28,5.33-1.14,1.28.12-.34.73-1.49,1.29-2.03.98-3.72,1.16-5.53,1.24-1.13.05-2.96.4-3.81.77-2.89,1.27-4.36,1.05-6.22,1.26-1.15.27-2.58.74-2.96.51-.08-.04.41-.33.62-.38,1.51-.38,1.63-.13,2.33-.13.99-.61,1.98-1.22,2.98-1.79-2.33-.29-4.98.96-7.52,1.84.14.25.04.53-1.82,1.11.08.17-.03.42.29.51.97.29-2.13,1.09-2.97,1.62-.23.14-.84.39-1.08.31-.47-.17.52-.59,1.62-1.1.62-.29.03-.49,0-.73-.95.56-3.97,1.03-4.1,1.66.4-.05,1.43-.33.47.12l-.44-.13c-1.51.35-.76-.42-2.59.19-.64.22-1.04.77-1.55,1.16.08.15-.1.36-.94.73.06.04.14.08.22.12l.96-.31c1.69-.25,6.79-1.54.09.93-.44.16-.57.46-.83.7,2.89-1.01,5.88-2.26,8.72-2.49.34-.04,4.17-1.65,6.83-2.39.67-.43,1.57-.71,3.17-1.15,4.7-1.23,9.77-1.88,14.15-3.53,1.96.19,5.04-1.33,7.06-1.35,1.96-.06,3.5-.27,5.79-1.03,3.11-1.04,4.56-1.03,4.75-.42l5.24-1.12c-.31-.34,1.09-.87,2.09-1.36-2.5-.02-5.1,0-.09-1.51.65-.17.18-.28-.49-.22-1.99.81-5.11.86-6.79,1.55-3.86,1.58-3.21.66-3.82.4l-1.11.24c-.06.24-.64.49-1.91.75-.09.32-.92.58-2.16.85l.16.3c-1.23.22-1.07.02-1.1-.13-2.47.13-6.06.97-6.6.34Z"/><path d="m390.93,28.4c-.44-.56-.83-1.02-1.2-1.38-.36-.37-.68-.67-.97-.9-.6-.5-1.28-1.04-1.57-1.17-.29-.14-.12.05.85,1.1,1.52,1.66,2.22,2.59,2.82,3.26.29.34.55.64.82.96.25.34.51.71.82,1.21.63,1.29,1.12,2.65,1.42,4.05.12,1,.31,2.43.3,3.95-.01,1.52-.25,3.12-.68,4.33h-.21c.36-1.17.53-2.48.59-3.7.04-1.23-.06-2.37-.11-3.27-.15-2.29-1.09-4.61-2.64-6.82-1.52-2.18-3.42-4.11-5.56-5.73-2.13-1.63-4.43-3.04-6.84-4.26-1.23-.57-2.42-1.21-3.68-1.72l-3.78-1.51-3.86-1.3c-1.28-.45-2.61-.76-3.92-1.14-.16-.13-.13-.2,1.19.11l2.02.56,1.01.4c.3.14.61.24.93.31,3.3,1,5.08,1.82,5.84,2.02.74.23.39,0-.77-.63-.07-.04-.09-.06-.13-.08-5.76-2-7.18-2.95-13.03-4.29-1.22-.25-2.64-.54-3.83-.83-1.2-.25-2.17-.46-2.48-.64.81.14,1.67.23,2.4.33.72.12,1.31.23,1.56.33.97.43,2.67.65,4.29,1.08,5.78,1.45,11.32,3.35,16.85,6.06,1.01.42,1.93,1.06,2.9,1.59l1.44.83,1.36.98c1.86,1.26,3.55,2.77,5.07,4.47,1.5,1.7,2.83,3.62,3.72,5.76.89,2.13,1.41,4.45,1.36,6.78,0,.92-.1,2.12-.31,3.08-.2.96-.48,1.68-.6,1.71.13-1.08.52-2.73.66-4.63.17-2.3-.26-3.86-.79-5.17-.6-2.26-1.72-4.41-3.25-6.08Zm-8.53-6.74c0-.09-.47-.52-2.02-1.38-1.52-.79-3.86-1.73-3.96-1.72-.24.06,1.83.88,2.54,1.26.72.3,1.56.86,2.25,1.27.68.41,1.2.69,1.2.56Zm-4.18-2.96c-.51-.24-1.22-.57-1.81-.85-.59-.28-1.1-.4-1.16-.37-.07.06.6.35,1.67.88.58.27,1.16.53,1.78.82.62.29,1.3.55,2.01.98-.51-.36-.93-.62-1.33-.84-.4-.23-.76-.43-1.16-.62Zm5.53,3.65l.52.39-.05-.07c-.39-.29-.42-.29-.47-.32Z"/><path d="m251.24.45c-2.7.12-4.81.02-7.85-.25-2.21-.23-4.69-.21-7.25-.17-2.56.06-5.19.12-7.7.17-2.51.05-5.2-.21-7.55.16l-.02.59c.56.27,1.99.69.3.8-5.01.34-4.32,1.46-7.77,2.01,1.84-.07,3.47-.24,4.91-.49.18,0,.35-.03.47-.07.19-.27-.61-.63,1.39-.77,1.57-.11,2.7,0,2.93.34l.26.08-.24-.08c-2.32-.18-2.39.45-4.31.43-.12.04-.17.07-.14.11,2.21.6,4.89-.01,7.3.07,3.06-.63,6.31-.61,9.6-.09.98.16,1.62.37,2.72,0,1.69-.59,4.14-.35,6.49-.09,3.38-.37,1.84-.96,1.02-1.53-.21-.15-.92-.36.27-.43,1.02-.06,1.61.11,2.02.28h1.2c-.62-.46,2.59-.61,1.94-1.09Z"/><path d="m105.55,91.65c2.09.52,4.28,1.03,7.24,1.06,3.72-.15,7.6.12,11.71.9.81-.17,2.28-.1,3.61-.09l2.19.32c-.25-.18-.63-.53-.73-.54-4.03-.21-6.67-1.09-10.54-1.38-2.82-.21-5.38-.51-6.09-1.16-.02-.02-.3-.05-.46-.08-.53,0-1.07.02-1.61.02.4.7-2.43.32-4.58.03-7.08-.97-14.25-1.55-21.37-2.99-4.28-.88-4.55-.75-2.37-1.13.66-.12,1.11-.28,1.65-.42-2.06-.25-4.26-.66-6.37-1.02-2.11-.33-4.13-.61-5.84-.57.76.2,1.48.43,2.28.59,1.3.27,3.26.19,3.76.7.21.21-1.91.16-3.25.11-.71-.03-2.02-.32-3.06-.5-.87-.15-1.81-.34-2.26-.25-.59.12.3.4,1.18.66,1.38.42,1.69.88,3.88,1.27,2.71.86,5.73,1.62,9.42,1.98,4.27.1,9.15.78,14.08,1.45-.05-.16.2-.32,1.09-.2,1.57.2.54.33.86.51,2.15-.28,4.37-.67,5.57.72Z"/><path d="m366.73,15.02l1.01.4.47.15.47.15c3.3,1,5.08,1.82,5.84,2.02.74.23.39,0-.77-.63-.07-.04-.09-.06-.13-.08-5.76-2-7.18-2.95-13.03-4.29-1.22-.25-2.64-.54-3.83-.83-1.2-.25-2.17-.46-2.48-.64-.9-.1-2.14-.31-3.33-.49-1.19-.14-2.33-.26-3.01-.27,1.69.35-.01.32-.91.2-2.62-.35-1.01-.3-1.37-.45-.07-.03,0-.04.01-.06-1-.2-2.37-.3-3.77-.41-.7-.05-1.41-.11-2.08-.16-.67-.04-1.32-.07-1.88-.12-1.4,0-2.64-.06-3.71-.18-.36.24-4.12.18-6.77.28-1.27.08-2.21.17-2.3.22-.15.08,1.48-.05,2-.05.92,0,1.57.09,2.63.13.88.04,2.82.13,2.32-.07-.05-.02.31-.06.66-.07.26,0,.65-.01,1.13-.02.48.02,1.06.05,1.7.08,1.28.07,2.8.14,4.3.26,2.99.33,5.89.63,6.58.82,1.15.25,2.64.46,4.21.65,1.56.25,3.2.52,4.67.76,1.23.18,2.96.59,4.43.87,1.43.26,1.48.34,1.68.44v.14s2.04.56,2.04.56c-.16-.13-.13-.2,1.19.11.27.04.47.04.81.13,1.1.29,1.08.34,1.21.43Z"/><path d="m203.75,3.9l-.08-.24c-.89-.44-1.6-.9-2.71-1.31-1.19-.43-2.86-.68-4.66-.62-1.81.06-3.75.34-5.48.83-.43.12-.64.29-1.18.37-1.98.31-2.08,1-.08,1.16q.83.06,1.28-.41c.21-.22.14-.49,1.64-.59.46-.03.98.19,1.48.29,2.84,0,2.68.5,3.34.87-3.22.43-6.53.59-9.87.63,1.34-.72-1.94-.69-3.51-.94l-1.66.49-3.39.38c-.05-.05-.07-.11-.05-.16,2.03-.84-1.23-1.29-1.18-1.99l2.06-.14s.01.08.12.09c1.47.14,1.24.84,3.02.62,2.62-.32-.35-.66.13-1.05l1.2-.52c5-.18,10.09-.73,14.99-.56l2.12-.07.1.41-.44.12.58-.1,1.33-.05c.68.02,1.65.17,1.61-.16l2.15-.27-.3.08-.33-.05c1.49.41,5.17.24,6.23.96.5.35,5.12-.48,7.64-.82.42-.05.68-.15,1.02-.22.56.27,1.99.69.3.8-5.01.34-4.32,1.46-7.77,2.01-3.33.36-6.55.42-9.65.14Zm-14.34-1.57c-.1-.11-.34-.2-.53-.3-.14.07-.39.14-.39.19,0,.09.16.17.28.29.31-.08.67-.15.64-.18Z"/><path d="m45.2,23.87c1.86-.58,1.96-.86,1.82-1.11l-1.77.44-1.34.42c-3.4.85-6.7,1.68-10.14,3.14-1.4.6-3.47,1.35-5.24,1.81-1.95.48-5.46,1.93-6.03,2.25-3.01,1.64-5.96,3.25-8.88,4.85-2.91,1.65-5.79,3.39-8.41,5.68-1.91,1.72-2.72,3.24-3.76,5.18-1.34,2.48-1.86,5.66-1.1,8.52.74,2.87,2.42,5.19,4.24,7.12,3.72,3.84,8.15,6.48,12.63,8.8.96.5,1.93,1.05,2.59,1.11.41-.54-2.07-1.81-4.22-2.77-1.92-.86-2.96-1.57-4.19-2.58-.76-.19-1.9-1.05-2.91-1.78l-1.05-.61c-.57-.97-1.65-2.07-2.77-3.39-1.12-1.31-2.29-2.88-2.93-4.58-.28-.64-.65-1.76-.75-2.64-.11-.89.06-1.45.41-1,.12.11-.03-.89.08-1.94.06-1.05.32-2.14.27-2.22-.29-.37.14-1.53,1.01-2.84.05-.42.28-.77.67-.97,1.13-1.82,2.83-3.71,2.72-2.55.39-.4.83-.74,1.25-1.12,1.14-1.35,2.47-2.66,4.69-3.66,1.44-1.44,2.88-2.94,5.59-3.24.94-.47,1.9-.91,2.86-1.34.42-.72,2.42-1.43,3.99-2.1,2.3-.97,2.02-.48,2.27-.31,2.42-1.69,5.21-2.48,8.07-2.95.51-.4.91-.95,1.55-1.16,1.83-.61,1.08.16,2.59-.19.1-.61,3.12-1.08,4.07-1.64l2.14-.6Z"/><path d="m159.26,3.74c-1.56-.23-3.26-.31-5.49.27,1.32.19,2.62.46,1.13.96-1.17.41-2.13,0-3.42.26-1.76-.46-2.69.03-3.78.5-1.24.53-2.49.76-3.41.31-3.04.46-2.52.9-3.02,1.35.51.4,2.98.29,4.22.5,2.07.19,4.77,0,7.32-.47,1.91-.37,3.58-.49,5.45-.55,1.87-.4-.16-.96,3.12-1.25,2.43-.21,2.06.29,2.47.57l2.15-.23c-.18-.28-.49-.55-.48-.84,0-.19,1-.34,1.93-.42.81-.06,1.43,0,.97.18-.67.26-2.55.61-.53.65.5.01,2.23-.5,3.4-.77.37-.1.55-.3,1.33-.18l-1.35.18c.88.77,3.56.32,6.38-.04.82-.73-3.51-.8-3.24-1.42-4.63.75-4.62.21-4.31-.41-1.86.26-3.43-.04-5.35.32.34.67-1.68,1.45-4.91,1.63-4.48.25,1.39-.73-.18-.93-.22-.03-.26-.1-.38-.15Z"/><path d="m223.49,95.12l1.76-.07c1.13-.1,2.27-.2,3.4-.32l1.25-.1s-.07-.08-.11-.12c-.74-.01-1.11-.06-.49-.2.09-.02.4-.05.5-.04.97.03-.05.17-.05.25,1.78-.08,3.08-.23,3.9-.5,1.29-.43,2.99-.55,4.35-.55,1.36-.02,2.4.1,2.36.18-.23.54,2.58.32,4.63.31,2.56-.35,5.08-.74,7.67-1.14,1.13-.17,3.33-.3,2.68-.52-.53-.18-2.9.19-3.51.17-1.88-.05-4.71.84-5.8.33-1.42.06-3.1.18-3.34-.07-1.2.08-2.47.2-3.25.08-2.63.15-5.28.22-7.89.31-5.16.18-9.61.89-14.83.9v.35c1.29-.07,2.63-.15,3.3.04-.07.2-.11.4-2.07.49l.94.41,4.59-.18Z"/><path d="m91.57,13.06c.67-.06,1.13.05.49.22-5.02,1.51-2.41,1.5.08,1.51.65-.14,1.31-.26,1.97-.39l-.14-.57-.26-.04.25.04c1.83-.1,5.66-1.2,5.5-.32,2.97-.57,5.79-.3,9.01-1.43.46-.16,2.57-.28,2.73.02,1.05-.16,2.1-.3,3.15-.41,1.3-.67,5.25-1.41,4.38-2.02-.04-.03.67-.19,1.03-.29,2.5.83,3.29-.75,5.16-.81-.02-.06-.03-.13-.03-.2-5.55-.31-6.71.85-8.51,1.78l-.4.1.43-.1c-1.1.06-3.1.25-3.16.15-.76-1.39-4.55.21-7.72.83-3.3.65-7.08,1.57-10.11,1.45-1.47.09-1.35-.47-3.85.04v.41Z"/><path d="m264.15,2.29c-.66-.1-1.33-.22-1.99-.3-4.88-.25-4.79-.91-4.26-1.61-1.6-.28-1.53.12-2.32.18,1.42.98-1,1.77-5.43,1.77,1.01.51,1.08,1-.03,1.47,1.11.53,2.05.2,3.03.05-.64-.12-.8-.29.07-.29,1.2,0,.99.23,1.11.38,2.55.77,6.36.36,9.11.44,4.49.18,9.36.78,13.64.43v-.3s-3.12-.26-3.12-.26c-1,.33-1.88.09-2.76-.13l-3.69-.6c-.28.27-.52.56-2.52.41-1.35-.09-2.11-.34-2.74-.58-1.48-.55.58-.8,1.9-1.05Z"/><path d="m246.04,92.79c1.09.51,3.92-.38,5.8-.33.6.02,2.97-.35,3.51-.17.65.22-1.55.35-2.68.52-2.59.4-5.11.79-7.67,1.14l.95.18,1.25-.08c3.44-.68,7.87-.86,11.76-1.31.91-.25.67-.38.2-.51-.82-.23.37-.49,2.88-.73l.03-.14c.02-.19.75-.35,2.29-.48.32-.03.62-.07.92-.11-.32-.1-1.77-.09.07-.4l-.1-.13c-6.14.57-12.29.9-18.46,1.59,1.01.25,2.87.45-.76.95Z"/><path d="m157.37,95.6c1.28.03,1.13.74,3.44.3,1.72-.32,3.32.26,5.03.17.5-.65,2.8-.45,5.22-.15,2.05.27,3.75.18,5.3-.02,1.61-.21,2.32-.45.63-.78-2.28-.06-4.37-.33-6.82-.27-3.82.11-5.94.16-7.86.09-1.92-.09-3.66-.3-6.7-.7-.15-.02-.43-.05-.47-.04-3.14.54-7.82-.68-11.02-.27.28.33.3.66,2.44.94.09-.22.59-.22,2.06-.11,3.09.26,5.99.5,8.76.84Z"/><path d="m246.04,92.79c3.62-.5,1.77-.7.76-.95-2.41,0-4.03-.17-7.44.47-2.46.48-7.43.38-11.39.63-5.33.25-10.93.64-16.33.52-2.37-.04-3.93.03-3.66.45.26.42,2.18.35,4.31.22l4.45-.14c5.23,0,9.67-.72,14.83-.9,2.61-.09,5.26-.16,7.89-.31.63-.11,1.34-.29,1.88-.32,1.2-.06,1.32.1,1.37.23.24.25,1.91.13,3.34.07Z"/><path d="m116.37,10.18c1.8-.93,2.96-2.08,8.51-1.78l4.29-.86c1.13-.31,2.31-.62,1.97-.89-2.09-.23-4.7.52-6.92.84-4.25.58-8.49,1.16-12.74,1.74-4.24.7-8.47,1.43-12.7,2.3-2.26.47-2.54.7-3.37,1.08,3.04.12,6.81-.8,10.11-1.45,3.17-.61,6.96-2.22,7.72-.83.06.1,2.06-.1,3.13-.16Z"/><path d="m84.21,86.2c-.54.14-.99.31-1.65.42-2.17.38-1.91.25,2.37,1.13,7.11,1.44,14.29,2.01,21.37,2.99,2.15.29,4.98.67,4.58-.03-3.96-1.11-8.35-1.51-13.22-1.79-3.14-.18-5.5-.64-4.8-1.27-3.16-.16-5.69-1.02-8.65-1.45Z"/><path d="m144.11,93.93c3.2-.41,7.88.82,11.02.27.04,0,.33.02.47.04,3.04.4,4.77.61,6.7.7,1.93.07,4.04.02,7.86-.09,2.45-.06,4.54.21,6.82.27-.96-.57-2.01-1.08-5.74-1.47l-2.75.25c-1.02.32-2.58.25-4.79.12-2.69-.13-5.94-.3-8.26-.41-4.69-.27-8.89.04-13.34-.57l1.14.8c.3.02.59.05.88.07Z"/><path d="m199.09,94.33c-1.4.52-2.54.99,3.1.98,1.82,0,.68.21.54.35-2.78.34-5.85.2-7.83.02-5.04-.54-6.18-.09-7.27.51l-1.03.03c-3.31-.26-8.75-.54-3.58-1.31.93-.14.91-.42,1.33-.65,2.85,0,5.7.01,8.54.02,1.84.03,3.23-.01,3.41-.34h3.17c-.12.14-.07.28-.39.39Zm-9.08.49c-.11-.01-.3-.02-.57.04.16,0,.31.01.57-.04Z"/><path d="m358.98,10.66c1.49.93,7.26.92,7.09,1.85-.09.46-2.44.63-3.5,1.03-1.1.41-5.43-.16-8.83-.81-1.54-.29-2.97-.73-4.5-1.01-1.48-.29-3.25-.9-4.39-.68-1.22.23,2.91.6,2.09.95,4.91,1.57,11.31,1.72,16.4,3.28,1.6.49,1.35-.22,2.69-.09,1.33-.05-4.35-1.35.4-.79,1.71-.46,5.91,0,5.46-1.08-.97-.25-2.23-.5-2.84-.75-1.51-.65-1.28-1.75-5.51-1.36-.02,0-.37-.12-.83-.28s-1.02-.33-1.47-.44c-2.6-.62-5.12-.94-7.39-.93.61,1,3.69.59,5.13,1.12Z"/><path d="m372.47,16.18c1.29.29,2.2.6,2.83.99.78.48,1.95.99,3.25,1.36,1.3.36,2.73.6,4.02.62,2.31.05,4.47-.19,4.86-.81.73-1.17-1.99-2.15-8.31-3.18-1.54-.24-3.39-.95-5.1-1.44-2.01.18-1.38.89.6,1.66,2.01.79,3.97.89,5.55.71.58-.06,3.14.17,2.82.62-.28.4,1.09,1.07.08,1.31-.62.15-.96.43-2.67.16-1.77-.28-2.49-.7-2.63-1.05-.15-.37-.36-.69-2.32-1.04-1.91-.35-2.92-.33-2.98.08Z"/><path d="m142.09,93.06c4.45.61,8.66.3,13.34.57,2.32.12,5.58.28,8.26.41,2.2.13,3.76.2,4.79-.12-1.87-.49-4.22-.65-6.68-.73-2.46-.1-5.04-.11-7.36-.23-6.94-.39-14.06-.42-20.77-1.48l-.57.2c.98.34,4.48.91-.9.64-1.76-.09-2.78.15.24.46,3.2.08,5.58-.47,9.65.28Z"/><path d="m84.81,17.28c-.19-.61-1.64-.62-4.75.42-2.29.77-3.83.98-5.79,1.03-2.01.02-5.1,1.54-7.06,1.35-4.38,1.65-9.45,2.29-14.15,3.53-1.6.44-2.49.73-3.17,1.15,4.43-.67,9.16-1.66,14.2-2.97,3.22-.8,6.47-1.68,10.06-2.21,3.13-.43,7.07-1.51,10.65-2.31Z"/><path d="m294.44,5.75l-2.33-.2-3.42-.84c-.49-.04-.98-.09-1.48-.13-1.61.03-3.22.04-4.83.13,2.76,1.2,8.4,1.35,12.44,1.68,4.01.37,8.05.56,12.09.88,4.04.34,8.08.68,12.12,1.01h2.18c-3.54-1.14-7.44-1.66-11.75-1.45-3.45-.18-7.12-.05-8.99-1.23l-1.56-.1-1.12-.03c0,.16.04.23.08.31.11.06.22.12.33.19l-.76-.13-3.01-.07Z"/><path d="m285.04,88.15c3.07-.34,6.13-.68,9.19-1.29,2.43-.39,4.78-.71,6.61-.79,1.63-.28,2.46-.42,3.28-.56,3.9-.62,7.64-1.52,11.79-2.13,2.16-.32,3.23-.91,3.82-1.26-11.64,2.34-23.39,4.13-35.15,5.88l.46.16Z"/><path d="m202.74,95.65c-2.78.34-5.85.2-7.83.02-5.04-.54-6.18-.09-7.27.51,4.15.09,8.3.2,12.44.15,4.15,0,8.29-.16,12.43-.52,2-.17,3.26.14,4.89.02,2.24-.16,5.7-.12,6.1-.7l-4.59.18c-2.51.08-5.03.09-7.54.12-2.87.09-5.74.2-8.62.24Z"/><path d="m364.41,69.59c-.04.19.7.09-2.52,1.4-2.01.8-3.73,1.5-3.28,1.61,4.2-1.51,8.32-3.26,12.36-5.29,4.03-2.03,8-4.38,11.62-7.36l-.12-.07-.31.12c-.13.11-.27.22-.43.34-1.21.98-2.46,1.9-2.96,1.98-.23.16-.46.32-.71.47-.93.57-1.88,1.11-2.84,1.63-.34.39-1.26,1.03-2.87,1.73-1.71.88-3.39,2-5.07,2.56-.55.19.2-.28,1.03-.73l.04-.11-1.03.28c-1.8.64-1.84.99-2.92,1.44Z"/><path d="m186.6,96.21c-3.31-.26-8.75-.54-3.58-1.31.93-.14.91-.42,1.33-.65-1.58-.07-1.05-.25-1.15-.39h-2.11c.65.37-2.08.47-2.16.79l1.41.1c-.11.02-.3.05-.31.05-.39-.05-.76-.1-1.14-.15-1.87-.25-.72-.55-1.11-.83-2.12-.45-4.3-.53-6.56-.17,3.74.39,4.79.9,5.74,1.47,1.7.32.98.57-.63.78-1.55.2-3.25.29-5.3.02-2.42-.31-4.72-.5-5.22.15,2.73.12,5.49.16,8.24.18,2.75,0,5.49.05,8.19.22,2.13.15,3.25-.05,4.35-.26Z"/><path d="m132.44,92.77c-3.02-.32-2-.55-.24-.46,5.38.26,1.88-.3.9-.64-.95.27-2.61-.09-3.9-.15.12.24-.89.48-1.67.32-3.88-.76-6.72-.31-10.13-.68-1.85.11-1.92-.15-2.04-.39-1.82-.48-2.3-.26-2.86-.08.16.03.44.06.46.08.7.65,3.27.95,6.09,1.16,3.87.3,6.51,1.17,10.54,1.38.1,0,.48.35.73.54l4.18.62,2.22.35.29-.48c-4.76-.42-5-.98-4.56-1.57Z"/><path d="m74.53,87.2c-2.19-.39-2.5-.85-3.88-1.27-.88-.27-1.76-.54-1.18-.66.45-.09,1.39.1,2.26.25,1.04.18,2.35.46,3.06.5,1.34.05,3.46.1,3.25-.11-.5-.51-2.46-.42-3.76-.7-.8-.17-1.52-.39-2.28-.59-.95-.48-1.91-.37-2.87-.52-1.62-.18-3.36-.31-2.95.1,1.59,1.57-3.37.61-7.81-.29.48.38,2.81.77,2.92,1.15,3.68.58,7.06,1.63,10.77,2.25,2.66.45,2.13.09,2.47-.1Z"/><path d="m117.39,91.15c3.41.37,6.25-.09,10.13.68.79.16,1.79-.08,1.67-.32-6.84-.61-13.64-1.22-20.47-1.83-3.43-.31-7-.85-10.37-1.4-2.03-.35-3.7-.49-5.5-.64-.7.63,1.66,1.09,4.8,1.27,4.87.27,9.27.68,13.22,1.79.54,0,1.08-.02,1.61-.02.56-.18,1.04-.39,2.86.08l2.04.39Z"/><path d="m202.74,95.65c2.87-.03,5.75-.15,8.62-.24l.08-.32c-1.17.02-2.21,0-2.03-.2.18-.2,1.37-.23,2.44-.26.39-.16.42-.33.44-.49-2.14.13-4.05.19-4.31-.22-2.75-.09-5.59-.11-8.48.02-.12.13-.07.26-.39.38-1.4.52-2.54.99,3.1.98,1.82,0,.68.21.54.35Z"/><path d="m129.17,7.54l-4.3.86.02.2.25.04-.23-.05c-1.87.06-2.65,1.64-5.16.81-.36.1-1.07.26-1.03.29.87.62-3.08,1.36-4.38,2.02.26.19,1.22.03,2.07-.08,1.08-.47,2.9-.62,4.49-.87,1.19-.04,1.82-.95,2.52-.48.75.5,2.65-.15,3.76-.16,1.82-.65,2.7-.55,3.38-.28,1.13-.07,2.5.13,3.13-.5l.44-.37c-1.33,0-2.02-.21-3.86.05-1.27.04-.82-.25-.96-.43-5.77.44.67-.81-.15-1.05Z"/><path d="m379.3,60.82c1.58-.91,3.34-2.11,4.78-3.1,1.48-1.02,3.4-2.77,4.96-4.72,1.57-1.95,2.71-4.09,3.16-5.45-1.19,2.38-3.04,4.68-2.18,3.01-2.98,4.08-6.89,7.34-10.71,10.25Z"/><path d="m129.32,8.59c-5.77.44.67-.81-.15-1.05,1.13-.31,2.31-.62,1.97-.89,3.26-.53,6.68-1.4,9.73-1,.15.02.2.06.15.11-4.24,1.1-4.48,2.01-4.14,2.89l-2.75.32c-1.33,0-2.02-.21-3.86.05.09-.23.11-.43-.96-.43Zm3.34-1.13c-.7,0-1.33.26-1.1.34.46.16-1.67.91,1.62.44,1.63-.29,1.48-.41.27-.46-.24-.12-.25-.33-.79-.33Z"/><path d="m54.55,20.93c.99-.22,1.9-.05,2.94-.63,2.32-1.29,2.7-.73,3.57-.65.75-.12,1.74-.19,2.24-.35,1.95-.62,3.77-1.28,5.33-1.14,1.28.12-.34.73-1.49,1.29-2.03.98-3.72,1.16-5.53,1.24-1.13.05-2.96.4-3.81.77-2.89,1.27-4.36,1.05-6.22,1.26.98-.61,1.98-1.21,2.97-1.79Zm11.96-2.06s-.37.11-.38.14c-.03.06.04.1.06.14l.8-.27c-.16,0-.3-.02-.49-.01Z"/><path d="m344.89,77.17c-4.2,1.32-8.69,2.36-12.44,3.68-.95.32-2.34.55-3.31.72-1.77.32-2.94.62-3.85,1.01,3.7-.46,8.04-1.7,12.09-2.85,5.24-1.53,10.25-2.65,15.39-4.68.74-.3,1.67-.64,1.98-.85-1.12.18-2.93.76-4.96,1.57-2.44,1.01-3.68,1.23-4.9,1.4Z"/><path d="m372.47,16.18c.06-.41,1.07-.43,2.98-.08,1.96.35,2.17.67,2.32,1.04.14.36.85.78,2.63,1.05,1.71.27,2.05-.01,2.67-.16,1-.24-.36-.91-.08-1.31.32-.46-2.24-.69-2.82-.62-1.58.17-3.54.07-5.55-.71-1.98-.77-2.61-1.48-.6-1.66-.68-.29-1.37-.51-2.12-.42.45,1.08-3.75.62-5.47,1.07,1.09.37,2.07.79,2.08,1.14l3.96.66Z"/><path d="m34.86,27.47c-2.86.47-5.65,1.26-8.07,2.95-1.36,1.12-6.14,3.07-6.63,4.16l.62.42c1.76-.62,3.29-1.31,4.59-2.16.18-.2-.53-.1.49-.59l.45.2c.3-.08.62-.2.96-.35,4.06-1.69,2.86-2.38,6.64-3.91.84-.38,1.02-.58.94-.73Z"/><path d="m245.95,94.13l-.95-.18c-2.04,0-4.86.24-4.63-.31.04-.09-1-.2-2.36-.18-1.36,0-3.06.12-4.35.55-.81.27-2.12.43-3.9.5.08.03.12.07.15.11l-.06.45c2.66-.06,5.31-.09,7.98-.2,2.67-.14,5.37-.36,8.12-.75Z"/><path d="m296.59,88.29c.37-.39-1.97-.11-3.86.13-4.09.53-8.86.92-12.41,1.63-2.46.45-4.13.66-6.55.94-1.46.17-.62.32-.73.47,2.58-.27,5.14-.5,7.71-.81,2.57-.33,5.17-.71,7.86-1.19,2.33-.4,5.29-.79,7.97-1.17Z"/><path d="m94.1,14.41c-.66.13-1.32.24-1.97.39-1,.49-2.4,1.02-2.09,1.36,2.66-.43,5.42-.89,8.17-1.39,2.76-.48,5.53-.93,8.27-1.1,2.21-.13,2.75-1.03,4.68-1.55-.15-.3-2.27-.18-2.73-.02-3.22,1.13-6.04.86-9.01,1.43-1.72,1.49-3.57.42-5.34.88Z"/><path d="m7.4,41.07c-.42.37-.86.72-1.25,1.12-.43,1.05-.42.98.93-.11.6-.47,1.44-1.03,1.65-1.03.69-.05-1.71,1.78-1.8,2.36.6-.44,1.27-.81,1.9-1.2l1.4-1.03,1.45-.96c1.8-1.53,3.75-2.94,5.76-4.25-2.31.87-3.43,1.37-3.42,1.11.03-.23,1.19-1.22,3.67-2.89-2.71.29-4.16,1.8-5.59,3.24-.8.57-1.26,1.19-1.86,1.82-.61.62-1.37,1.21-2.83,1.83Z"/><path d="m58.37,83.9c4.44.9,9.4,1.86,7.81.29-.41-.41,1.33-.27,2.95-.1-.37-.72-2.71-.67-4.04-1.02-1.09.39-1.86.92-6.82-.69-.82-.25-2.17-.56-2.57-.41-.42.15.61.47,1.7.76l.48.07-.43-.05.92,1.14Z"/><path d="m140.87,5.65c.15.02.2.06.15.11.51.26,3.84-.29,3.27.28.93.44,2.17.22,3.41-.31,1.09-.46,2.02-.96,3.78-.5,1.28-.26,2.24.15,3.42-.26,1.49-.51.19-.77-1.13-.96-4.38.42-9.09.34-12.9,1.64Z"/><path d="m205.99,1.03c1.49.41,5.17.24,6.23.96.5.35,5.12-.48,7.64-.82.42-.05.68-.15,1.02-.22l.02-.59c-3.9-.42-7.52.51-11.37.37l-2.84.17c-.37.02-.6.07-.7.14Z"/><path d="m363.11,69.33c.37-.09,1.23-.34,2.32-.77,1.09-.44,2.45-.98,3.83-1.59,1.36-.65,2.78-1.31,4-1.97,1.21-.67,2.25-1.27,2.92-1.69,2.58-1.73.78-.88,1.22-1.34-.81.55-1.64,1.09-2.48,1.57-.84.49-1.67.97-2.54,1.34-.38.15-1.61.75-1.68.8-.52.36-1.09.7-1.7,1.04-.62.32-1.27.61-1.93.91-1.32.6-2.69,1.16-3.97,1.7Z"/><path d="m358.98,10.66c-1.44-.53-4.52-.12-5.13-1.12-1.47-.64-3.02-.65-4.56-.74-2.62.19-6.6-.61-9.63-.69.55.44.41.88,3.65.93,1.96.03,4.75.46,7.14.83l1.37-.06.4.2-1.69-.11c1.95.47-4.34.86,3,1.39.31-.3-.57-.93,2.31-.53.63-.2,3.21.37,3.15-.11Z"/><path d="m298.7,87.62c-.05.07.33.09-.58.25,6.51-.95,13.41-1.84,18.86-3.68l-.18-.11-4.22.83c-4.6.96-9.22,1.88-13.88,2.71Z"/><path d="m339.65,8.11c3.03.08,7.01.88,9.63.69-.12-.38-.79-.53-1.58-.61-.79-.06-1.71-.05-2.31-.16-4.63-.85-9.48-1.3-14.21-1.73.8,1.35,5.51,1.26,8.47,1.81Z"/><path d="m262.14,1.34c3.38.2,7.21.11,9.44,1.06.85.36,2.1.25,2.33-.07.16-.23-.1-.51,1.34-.57.49-.65-2.36-.59-3.86-.69-3.39-.22-6.82-.42-10.24-.52.27.27-.6.57,1,.8Z"/><path d="m244.78,3.21c-2.35-.26-4.8-.5-6.49.09-1.1.37-1.74.15-2.72,0-3.28-.52-6.53-.54-9.6.09,3.06.57,6.87.46,10.59.4,1.37-.03,2.73-.07,4.1-.1l4.09-.02.04-.46Z"/><path d="m25.05,71.01c-.83.04-3.2-.31,1.9,1.47,2.66.89,3.76,1.66,5.01,2.45.63.4.03.67,2.22,1.24,1.77.44,1.47,0,1.24-.37-.22-.36-.3-.68-.44-1.01-3.36-1.14-6.67-2.39-9.92-3.77Z"/><path d="m170.08,2.88c-.31.62-.32,1.17,4.31.41,1.08-.23,2.16-.42,3.24-.61l2.06-.14c.86-.26,2.09-.29,3.27-.34l1.2-.52c.08-.41-1.36-.22-2.5-.11-1.93.19-3.87.38-5.8.57l-5.78.73Z"/><path d="m8.82,42.2c-.63.39-1.3.76-1.9,1.2-1.05,1.07-1.95,2.32-2.66,3.57-.73,1.25-1.28,2.46-1.87,3.62-.11.3-.24.94-.15,1.48.05.54.15.97.19.9.13-.26.26.6.51,1.12.1.27.21.46.26.41.04-.04.05-.32-.01-.97-.4-2.08.27-4.29,1.47-6.15,1.21-1.88,2.77-3.51,4.14-5.2Z"/><path d="m171.28,4.76c-1.17.27-2.89.78-3.4.77-2.01-.04-.14-.39.53-.65.45-.18-.16-.24-.97-.18-.93.07-1.92.23-1.93.42,0,.29.31.56.48.84,1.97.12,4.06.06,6.2-.09,2.14-.18,4.35-.36,6.55-.54l.1-.52c-.05-.05-.07-.11-.05-.16l-1.18.05c-2.82.36-5.5.81-6.35.05Z"/><path d="m33.92,28.21c-3.78,1.53-2.58,2.21-6.64,3.91,2.27-.37,4.53-.79,7.08-2.47.27-.24.4-.53.83-.7,6.7-2.47,1.6-1.18-.09-.93-.12.18.12.29-1.1.69l.13-.39c-.08-.04-.15-.07-.22-.12Z"/><path d="m46.58,81.23c-.82-.59-2.48-1.52-4.4-1.69-1.85-.14-4.25-1.03-6.53-1.77-2.28-.77-4.4-1.51-5.73-1.4,5.54,2.1,11.13,3.62,16.66,4.86Z"/><path d="m134.49,94.46l-4.18-.62-2.19-.32c-.02.44-1.84.26-3.61.09-4.11-.78-8-1.05-11.71-.9.33.22,1.44.52,2.21.54,6.32.14,13.32,1.45,19.48,1.22Z"/><path d="m339.32,11.16c-.11-.74-.76-1.36-4.95-1.29-3.12.08-6.84-1.51-9.89-1.05,2.18.68,4.61,1.17,7.14,1.48,2.53.32,5.16.53,7.69.86Z"/><path d="m271.82,89.7c1.48.28,4.35.24,7.49.13-.67-.36.9-.9,2.97-1.51-2.19.08-4.12.49-6.12.8-1.04.47-2.82.44-4.35.58Z"/><path d="m293.36,2.63c1.85.57,4.74.98,7.76,1.18,1.51.1,3.06.15,4.53.13,1.46.02,2.85-.01,4.05-.13-4.6-.93-9.33-.81-13.99-1.18-.15.42-1.28.18-2.35-.01Z"/><path d="m75.77,16.86c1.23-.27,2.07-.54,1.98-.79l-1.39.14-.34-.15,1.02-.13.88.07c1.27-.26,1.85-.51,1.91-.75-3.89.72-7.42.68-11.6,2.12.54.62,4.13-.22,6.6-.34.31-.06.62-.11.94-.17Z"/><path d="m98.03,90.63c-4.93-.67-9.82-1.35-14.08-1.45,1.6.59,3.14.96,5.65.97,3.19.05,7.03.93,10.51,1.21l-.15-.43c-.63-.1-1.28-.2-1.93-.3Z"/><path d="m250.14,2.33c4.43,0,6.85-.79,5.43-1.77l-4.34-.12c.65.48-2.56.63-1.94,1.1,1.26.24.72.52.85.78Z"/><path d="m17.43,35.96c-2.01,1.32-3.96,2.72-5.76,4.25,3.13-1.73,6.34-3.18,9.12-5.2l-.62-.43c-.92.44-1.83.9-2.73,1.37Z"/><path d="m136.89,8.65l-2.75.32-.44.37c4.03-.31,8.14-.44,11.8-1.45-1.23-.21-3.71-.1-4.22-.5-.76.16-1.41.3-2.06.44-.14.3-.21.6-2.33.82Z"/><path d="m244.78,3.21l-.04.46,5.37.13c1.11-.46,1.04-.95.03-1.47-2.62-.1-2-.48-2.05-.79-.41-.17-1.01-.34-2.02-.28-1.19.07-.49.28-.27.43.81.57,2.35,1.16-1.02,1.53Z"/><path d="m91.57,13.06v-.41c-3.63.69-7.72.91-10.61,2.37.61.25-.04,1.17,3.82-.4,1.68-.69,4.8-.74,6.79-1.55Z"/><path d="m137,94.34l-.29.48c4.16.65,7.97.49,11.85.52l-2-.46c-2.14-.28-2.15-.61-2.44-.94-.29-.02-.58-.05-.88-.07-.05.66-.73,1.23-6.23.48Z"/><path d="m184.36,94.26c2.85,0,5.7.01,8.54.02,1.84.03,3.23-.01,3.41-.34-3.8-.39-8.03-.04-11.98-.17,0,.16-.02.32.02.49Z"/><path d="m146.55,94.87l2,.46c3.07.41,6.26.93,8.81.27-2.76-.34-5.66-.57-8.76-.84-1.46-.12-1.97-.12-2.06.11Z"/><path d="m159.26,3.74c.12.05.17.12.38.15,1.57.2-4.29,1.19.18.93,3.23-.18,5.25-.96,4.91-1.63-1.9.06-3.94-.12-5.48.54Z"/><path d="m344.89,77.17c1.21-.18,2.45-.4,4.9-1.4,2.04-.81,3.84-1.39,4.96-1.57.71-.28,1.64-.6,1.88-.79-.63.11-1.26.22-1.89.34-1.6.55-3.19,1.09-4.78,1.63-1.58.56-3.17,1.09-4.78,1.57l-.29.22Z"/><path d="m390.01,50.56c-.85,1.67.99-.63,2.18-3.01.93-1.72,1.22-2.94,1.34-3.75h-.21c-.66,2.36-1.74,4.64-3.31,6.76Z"/><path d="m258.96,92.75c-3.89.45-8.32.63-11.76,1.31,3.95.03,7.84-.71,11.76-1.03v-.28Z"/><path d="m10.92,63.4c-.2.74.8,1.55,2.14,2.29,1.34.75,3.02,1.4,4.15,2.05,0-.34.81-.29-2.02-1.69-1.41-.71-2.9-1.69-4.27-2.65Z"/><path d="m163.85,6.19c-.41-.27-.04-.78-2.47-.57-3.28.28-1.25.85-3.12,1.25,2.66.35,3.73-.45,5.59-.68Z"/><path d="m282.39,4.7c1.61-.09,3.22-.1,4.83-.13-3.02-.31-3.17-.79-3.58-1.26-.23-.27-.94-.51-2.39-.58-.54-.03-1.39.04-1.57.12-.49.24.68.36,1.6.51,3.32.55-2.73.7.15,1.24.3.04.62.07.95.09Z"/><path d="m393.72,45.96c-.35,1.05-1.03,2.16-1.7,3.19-.33.52-.69,1-.96,1.47-.3.46-.54.9-.69,1.32.39-.29.59-.44,1.08-1.15.44-.74,1.29-2.01,2.27-4.84Z"/><path d="m193.96,3.4c2.84,0,2.68.5,3.34.87,2.22-.05,4.67.19,6.46-.37l-.08-.24c-1.6-.06-4.39.22-4.66-.17-.61-.89-2.87-.41-5.05-.09Z"/><path d="m187.42,4.89c1.34-.72-1.94-.69-3.51-.94l-1.66.49-1.28.9c2.22,0,4.14-.61,6.45-.45Z"/><path d="m47.13,79.03l.14-.52c-1.9-.68-3.78-1.39-5.97-1.82-.06.28-.92.45,1.99,1.23,2.19.59,3.14,1.04,2.96,1.4,1,.13.75-.14.88-.29Z"/><path d="m282.28,88.32c-2.08.62-3.64,1.16-2.97,1.51,2.16-.56,5.33-1.2,5.73-1.68l-.46-.16-2.3.33Z"/><path d="m262.14,1.34c-1.6-.23-.73-.53-1-.8l-3.24-.15c-.53.7-.62,1.36,4.26,1.61l-.02-.65Z"/><path d="m99.97,90.93l.15.43c2.08.26,3.89.36,5.43.3-1.19-1.39-3.42-1-5.58-.72Z"/><path d="m338.54,77.66c0,.07-.17.2.05.2.62,0-2.28,1.16.95.26,2.86-.79.31-.39.68-.66.11-.08,1.05-.36,1.6-.55-.73.07-1.39.11-3.27.75Z"/><path d="m271.82,89.7c1.53-.14,3.31-.11,4.35-.58l-2.36.2c-.89.12-1.64.18-2.07.12-1.44.21-2.89.42-4.34.59l.93.05c1.17-.11,2.33-.26,3.49-.39Z"/><path d="m345.67,10.2s-.09.03-.01.06c.36.14-1.26.1,1.37.45.89.12,2.6.15.91-.2l-2.26-.3Z"/><path d="m178.94,94.66c.08-.31,2.81-.41,2.16-.78l-3.3-.04c.39.28-.77.58,1.14.83Z"/><path d="m368.5,15.52c0-.35-.99-.77-2.08-1.14-4.75-.56.93.74-.4.79.19.1.46.16.81.19.47.06.94.14,1.41.23.29.04.38.01.26-.07Z"/><path d="m204.46,1.28l2.15-.27c-.97-.42-3.59-.2-5.23-.36l-.1.4.1.41c.58,0,1.03,0,1.47-.03.16-.23.89-.19,1.61-.16Z"/><path d="m61.29,85.05c-.11-.37-2.43-.77-3.06-1.15l-1.72-.23,1.3.56c1.09.36,2.25.64,3.48.82Z"/><path d="m130.57,9.84c-.68-.27-1.56-.38-3.38.28.92.07,1.35.55,3.38-.28Z"/><path d="m228.65,94.73c-1.13.12-2.27.23-3.4.32-.14.4,1.74.24,3.41.09v-.41Z"/><path d="m120.9,10.76c-1.59.25-3.41.39-4.49.87,2.36.09,3.55-.33,4.49-.87Z"/><path d="m334.24,9.33c1.07.13,2.3.19,3.71.18-1.19-.08-1.88-.35-3.71-.18Z"/><path d="m268.33,90.09l-.93-.05-2.15.21.1.13c.99.05,1.97-.03,2.97-.29Z"/><path d="m218.67,3.31s.02-.07.14-.11c-.15.03-.32.05-.5.06-.1.15-.2.3-.29.46l.65-.41Z"/><path d="m271.74,89.45c.42.06,1.18,0,2.07-.12,0-.22-.71-.17-2.07.12Z"/><path d="m254.32,3.93c-.12-.16.09-.39-1.11-.38-.87,0-.72.17-.07.29l1.18.09Z"/><path d="m201.28,1.05l.1-.4c-1.11.1-1.88.25-2.23.47l2.12-.07Z"/><path d="m206.69.89l2.84-.17c-1.2-.23-2.15-.18-2.84.17Z"/><path d="m184.31,94.25l.03-.48c-.72-.03-1.09,0-1.12.11.1.14-.43.32,1.09.38Z"/><path d="m26.32,32.46l-.45-.2c-1.02.49-.31.39-.49.59.33-.1.64-.23.94-.39Z"/><path d="m293.36,2.63c1.06.19,2.19.43,2.34.01-.98-.13-1.95-.26-2.34-.01Z"/><path d="m368.24,15.59c-.47-.09-.94-.17-1.41-.23.27.14.54.26.81.41l.6-.17Z"/><path d="m345.17,76.96c1.61-.48,3.2-1.02,4.78-1.57,1.59-.54,3.18-1.09,4.78-1.63,1.1-.4,1.56-.64,1.62-.76l.03-.33c-1.75.61-2.36.73-1.79.36.27-.18.64-.41-.52-.02-.34.12-.87.32-1.31.5-.22.09-.42.18-.56.23-.14.06-.23.1-.22.11.35.32-4.3,1.92-6.07,2.69-.36.16-.5.28-.74.41Z"/><path d="m394.18,34.48c-.6-2.26-1.72-4.41-3.25-6.08,1.16,1.57,1.15,1.79,1.1,1.86-.06.07-.19.03.47,1.21.63,1.29,1.12,2.65,1.42,4.05.07-.57-.52-2.84.27-1.04Z"/><path d="m300.84,86.07c-1.83.08-4.18.4-6.61.79.1.13-.22.35.39.35.81,0-2.36.71.55.28,2.02-.3,1.59-.44,1.35-.57-.11-.06-.16-.31,1.19-.27,2.47.07,1.87-.45,3.14-.58Z"/><path d="m375.23,64.42c.96-.51,1.91-1.05,2.84-1.63.31-.3,2.57-1.96.46-.67-2.24,1.32-2.94,1.87-3.31,2.29Z"/><path d="m368.32,67.98c-.83.45-1.58.92-1.03.73,1.67-.56,3.35-1.68,5.07-2.56-.28-.17-2.44,1.12-4.04,1.83Z"/><path d="m312.58,84.91l4.22-.83c-.27-.15-1.62.01-3.3.36-1.3.27-.84.35-.92.47Z"/><path d="m265.28,90.78c-.3.04-.6.08-.92.11l-.1.26c1.3-.15,2.9-.26,3.46-.54l-2.44.17Z"/><path d="m378.78,62.32c.49-.08,1.75-.99,2.96-1.98l-.19-.08c-.92.71-1.83,1.4-2.76,2.05Z"/><path d="m359.81,70.9c-.22.07-.44.13-.65.2l-.54.31c.26-.09.58-.19.78-.27.2-.08.27-.15.41-.23Z"/><path d="m304.12,85.51l-2.47.42c.32.01.57.08.99.02,1.2-.18,1.17-.31,1.48-.44Z"/><path d="m367.33,68.15l1.03-.28c1.42-.83.25-.3-1.03.28Z"/><path d="m381.54,60.27c.46-.37,1.15-.88,1.1-.94-.01-.01-.37.22-.54.35-.78.61-.52.49-.56.58Z"/><path d="m356.39,72.66l-.03.33c1.28-.58,1.35-.72.03-.33Z"/><path d="m328.08,80.84s.2,0,.34-.03c-.03-.04-.2,0-.34.03Z"/><path d="m262.07,91.37l-.03.14,2.2-.36c-.71.07-1.44.15-2.17.22Z"/><path d="m364.38,69.61l-.24.06c.09-.03.18-.05.24-.06Z"/><path d="m382.16,60l.31-.12c.72-.63.54-.53-.31.12Z"/><path d="m264.15,2.29c-1.33.25-3.38.5-1.9,1.05.63.24,1.4.49,2.74.58,2,.14,2.23-.15,2.52-.41-1.03-.39-1.53-.76-.62-1.1.41-.16.32-.33-.86-.42-1.42-.1-1.65.11-1.88.3Z"/><path d="m355.83,10.76c-2.88-.4-2,.23-2.31.53,1.05.21,2.57.29,2.65.75.04.23,1.03.66,1.98.73.98.08,1.91-.04,2.29-.21.63-.28-1.26-.4-1.82-.6-1.11-.39-1.88-.8-2.79-1.21Z"/><path d="m300.48,5.6c1.87,1.18,5.54,1.06,8.99,1.23-1.23-.41-2.55-.77-4.02-1.01-1.48-.2-3.11-.29-4.97-.23Z"/><path d="m297.8,5.46l1.12.03c.19-.04.32-.12.59-.13,2.09-.1,3.5-.29,1.4-.93-.55-.17-2.07-.41-1.83-.18.58.55-6.25.23-1.27,1.2Z"/><path d="m273.95,4.25l3.11.26c.05-.29,2.67-.57-.08-.85-2.04-.21-3.49.08-3.03.59Z"/><path d="m288.69,4.71l3.42.84c-.06-.26,1.82-.38.25-.72-1.25-.27-2.62-.26-3.67-.12Z"/><path d="m349.08,10.81c-.61-.19-.97-.35-1.34-.41-.39-.07-.79-.01-1.19-.02.32.11.61.26.97.32.38.07.83.06,1.55.1Z"/><path d="m294.44,5.75l3.01.07c.14-.02.29-.04.44-.05l-.12-.22c-1.35-.02-3.32-.27-3.32.2Z"/><path d="m271.2,4.11c.88.22,1.75.47,2.68.14l-2.68-.14Z"/><path d="m342.46,11c-.3-.09-.45-.08-.61-.07.11.03.21.07.61.07Z"/><path d="m8.5,64.94c1.01.73,2.16,1.6,2.91,1.78.76-.16,3.71,2.1,5.2,2.45.54.14,1.95,1.51,2.87,1.48.56-.01-.97-1.01-1.87-1.7-.91-.72-1.67-1.16-3.13-1.77-1.84-.76-3.9-1.9-4.93-3.47-.61-.93-2.21-1.94-3.09-2.65-1.52-1.25-.57.01.16.94,1.15,1.46,2.45,2.78,1.88,2.95Z"/><path d="m47.13,79.03c-.13.15.12.42-.88.29-.3.15-2.87-.54-1.69.14.41.23,1.39.66,2.07.82,2.26.54.86-.18,1.4-.25.3-.03.54-.1.97-.08.85.04,3.23.56,2.4.1-.95-.53-2.74-.56-4.27-1.02Z"/><path d="m39.37,77.54c-.21-.1-.41-.2-.61-.29l-.65-.02c.26.1.55.24.78.29.2.05.32.02.48.02Z"/><path d="m2.76,45.71c.2-.33.41-.66.65-.96-.23.29-.45.63-.65.96Z"/><path d="m361.48,13.64c-.2-.1-.25-.18-1.68-.44.18.1.85.26,1.68.44Z"/><path d="m45.2,23.87l-2.14.6c.04.24.63.44,0,.73-1.1.51-2.1.93-1.62,1.1.23.08.84-.16,1.08-.31.84-.53,3.94-1.33,2.97-1.62-.32-.09-.21-.34-.29-.51Z"/><path d="m51.57,22.72c-.7,0-.82-.26-2.33.13-.21.05-.7.34-.62.38.38.23,1.8-.24,2.95-.51Z"/><path d="m75.77,16.86c-.31.06-.63.11-.94.17.03.15-.13.35,1.1.13l-.16-.3Z"/><path d="m34.14,28.32l-.13.39c1.21-.4.98-.51,1.1-.69l-.96.31Z"/><path d="m38.99,26.12l.44.13c.96-.45-.08-.17-.44-.13Z"/><path d="m392.49,31.47c-.65-1.18-.52-1.14-.47-1.21.05-.07.06-.29-1.1-1.86-.44-.56-.83-1.02-1.2-1.38-.36-.37-.68-.67-.97-.9-.6-.5-1.28-1.04-1.57-1.17-.29-.14-.12.05.85,1.1,1.52,1.66,2.22,2.59,2.82,3.26.29.34.55.64.82.96.25.34.51.71.82,1.21Z"/><path d="m378.95,19.83c.72.3,1.56.86,2.25,1.27.68.41,1.2.69,1.2.56,0-.09-.47-.52-2.02-1.38-1.52-.79-3.86-1.73-3.96-1.72-.24.06,1.83.88,2.54,1.26Z"/><path d="m380.7,20.17c-.51-.36-.93-.62-1.33-.84-.4-.23-.76-.43-1.16-.62-.51-.24-1.22-.57-1.81-.85-.59-.28-1.1-.4-1.16-.37-.07.06.6.35,1.67.88.58.27,1.16.53,1.78.82.62.29,1.3.55,2.01.98Z"/><path d="m366.73,15.02c-.13-.09-.12-.14-1.21-.43-.34-.09-.54-.09-.81-.13l2.02.56Z"/><path d="m384.22,22.68c-.3-.19-.12-.06.05.07l-.05-.07Z"/><path d="m368.67,15.72l-.47-.15-.47-.15c.3.14.61.24.93.31Z"/><path d="m223.11,2.78c-.23-.34-1.35-.45-2.93-.34-2,.13-1.21.5-1.39.77,1.95.03,2.01-.61,4.32-.42Z"/><path d="m248.1,1.54c.05.32-.58.69,2.08.8-.16-.27.38-.55-.88-.79h-1.2Z"/><path d="m223.13,2.77l.24.08c-.09-.03-.17-.05-.24-.08Z"/><path d="m98.03,90.63l1.95.31c-.33-.18.71-.31-.86-.51-.89-.12-1.13.04-1.09.2Z"/><path d="m124.51,93.61c1.77.16,3.59.35,3.61-.09-1.33-.01-2.81-.08-3.61.09Z"/><path d="m193.96,3.4c2.18-.32,4.44-.8,5.05.09.27.39,3.06.12,4.66.17-.89-.44-1.6-.9-2.71-1.31-1.19-.43-2.86-.68-4.66-.62-1.81.06-3.75.34-5.48.83-.43.12-.64.29-1.18.37-1.98.31-2.08,1-.08,1.16q.83.06,1.28-.41c.21-.22.14-.49,1.64-.59.46-.03.98.19,1.48.29Z"/><path d="m177.63,4.71l1.18-.05c2.03-.84-1.24-1.29-1.18-1.99-1.08.19-2.16.38-3.24.61-.27.63,4.07.69,3.24,1.42Z"/><path d="m182.96,2.2c-1.18.06-2.41.09-3.27.34.04.03.01.08.12.09,1.47.14,1.24.84,3.02.62,2.62-.32-.35-.66.13-1.05Z"/><path d="m188.77,2.51c.31-.08.67-.15.64-.18-.1-.11-.34-.2-.53-.3-.14.07-.39.14-.39.19,0,.09.16.17.28.29Z"/><path d="m204.46,1.28c-.72-.04-1.46-.08-1.61.16.69.02,1.65.17,1.61-.16Z"/><path d="m201.38,1.46l-.44.12c.19-.03.39-.07.44-.12Z"/><path d="m17.43,35.96c.9-.47,1.81-.93,2.73-1.37.49-1.1,5.27-3.04,6.63-4.16-.25-.17.03-.66-2.27.31,1.11-.07-.48.8-1.49,1.35-1.22.7-1.94.7-2.5.75-.96.43-1.91.87-2.86,1.34-2.48,1.67-3.64,2.66-3.67,2.89-.01.26,1.1-.23,3.42-1.11Z"/><path d="m20.53,32.83c.56-.05,1.28-.05,2.5-.75,1-.55,2.6-1.42,1.49-1.35-1.56.67-3.56,1.38-3.99,2.1Z"/><path d="m7.4,41.07c1.45-.62,2.21-1.21,2.83-1.83.6-.63,1.06-1.25,1.86-1.82-2.22,1-3.55,2.31-4.69,3.66Z"/><path d="m2.75,45.73c.21-.34.43-.68.68-.99-.39.2-.62.55-.68.99Z"/><path d="m136.89,8.65c2.12-.23,2.19-.53,2.33-.82-.37-.36.75-.39,1.94-.41.62-.47.09-.92,3.14-1.37.57-.57-2.76-.02-3.27-.28-4.24,1.1-4.48,2-4.14,2.89Z"/><path d="m171.25,4.76l1.35-.18c-.78-.12-.96.08-1.35.18Z"/><path d="m212.21,94.64c-.52.15-.65.3-.79.45,2.19-.07,4.36-.1,6.54-.21,1.96-.09,2-.29,2.07-.49-1.17.02-2.6.14-3.3-.04l-4.53.29Z"/><path d="m217.96,94.89c-2.17.11-4.35.14-6.52.21l-.08.32c2.51-.03,5.03-.04,7.54-.12l-.94-.41Z"/><path d="m242.7,92.72c-.05-.14-.17-.29-1.37-.23-.54.03-1.25.21-1.88.32.78.12,2.05,0,3.25-.08Z"/><path d="m216.74,94.36c.7.18,2.13.06,3.3.04-.68-.19-2.01-.1-3.3-.04Z"/><path d="m229.76,94.52c0-.08,1.02-.22.05-.25-.1,0-.41.02-.5.04-.62.14-.25.19.45.21Z"/><path d="m94.1,14.41c1.77-.46,3.62.61,5.34-.88.16-.88-3.67.21-5.5.32.06.18.11.37.16.56Z"/><path d="m116.39,10.18l-.43.1c.13-.03.27-.06.43-.1Z"/><path d="m93.95,13.85l-.25-.04c.09.01.17.03.25.04Z"/><path d="m262.07,91.37l2.19-.22.1-.26c-1.54.13-2.27.29-2.29.48Z"/><path d="m137,94.34c5.5.75,6.18.18,6.23-.48l-1.14-.8c-4.07-.75-6.45-.21-9.65-.28-.44.58-.2,1.15,4.56,1.57Z"/><path d="m189.44,94.85l.47.02c-.01-.07-.2-.08-.47-.02Z"/><path d="m297.45,5.82l.76.13c-.11-.06-.22-.12-.33-.19-.15.02-.29.04-.44.05Z"/><path d="m178.9,94.66c.38.05.75.1,1.14.15,0,0,.2-.04.31-.05-.47-.03-.94-.06-1.45-.09Z"/><path d="m117.39,91.15l-2.04-.39c.12.24.19.5,2.04.39Z"/><path d="m211.42,95.1c.14-.15.28-.3.42-.46-1.07.03-2.26.06-2.44.26-.18.2.86.22,2.02.2Z"/><path d="m130.28,9.03c.09-.23.11-.43-.96-.43.14.18-.31.47.96.43Z"/><path d="m124.91,8.6l.23.05c-.08-.02-.16-.03-.23-.05Z"/><path d="m133.44,7.8c-.24-.12-.25-.33-.79-.33-.7,0-1.33.26-1.1.34.46.16-1.67.91,1.63.44.09-.16.18-.31.26-.46Z"/><path d="m133.44,7.8c-.09.15-.17.3-.26.46,1.63-.29,1.48-.41.26-.46Z"/><path d="m66.99,18.88c-.16,0-.3-.02-.49-.01-.02,0-.37.11-.38.14-.03.06.04.1.06.14l.8-.27Z"/><path d="m57.45,82.76l.43.05c-.16-.02-.32-.05-.43-.05Z"/><path d="m350.53,9.9l1.69.11-.4-.2c-.46.02-.91.04-1.29.09Z"/><path d="m76.37,16.21l1.39-.14c-.12-.09-.41-.12-.71-.14l-.68.28Z"/><path d="m141.16,7.42c-1.19.02-2.31.05-1.94.41l1.94-.41Z"/>
                  </g>
                </mask>
              </defs>
              <path class="mask" d="m387.63,17.6C283.47-4.81,153.7-2.77,53.49,22.86,27.5,29.51.98,39.74,1.92,52.89c.69,9.59,16.28,17.8,33.9,23.52,27.4,8.89,60.84,13.61,94.46,16.17,56.7,4.32,116.21,2.78,170.07-6.09,29.41-4.84,57.78-12.15,76.07-23.32,18.29-11.17,24.65-26.74,9.96-38.88-14.68-12.14-53.08-18.55-80.03-11.49"
                    mask="url(#path-mask)" stroke="black" stroke-width="2" fill="none"
                    stroke-dasharray="921.2843627929688" stroke-dashoffset="921.2843627929688">
              </path>
            </svg>
        