
            <svg xmlns="http://www.w3.org/2000/svg">
              <defs>
                <mask id="path-mask">
                  <g fill="white">
                    <path d="m114.14,4.92c-1.39-.1-.56.32-.87.47l-.97-.26c-.78-.3-1.71-.56-2.45-.89-1.52-.71-4.55-.78-5.87-.4-.87-.12-1.43-.09-1.81.04-1.15-.25-2.91-.09-3.78-.49-.23-.25-1.25-.52-.37-.73.63-.13,1.32-.19,2.3.05.81.2,1.56.24,2.05.06l.77.06c.98-.06,2.21.78,3.02.23.15.02.36.05.54.08.18.02.32.04.32.04.82-.49,2.57-.03,4.09.24v.16c-.43.01-.35.06.13.14.08,0,.16,0,.24.02l.02.23c-.26-.02-.64-.1-.65,0,0,.02.18.09.28.1.44.05.33-.04.38-.09.51.03,1.02.06,1.53.1.12.01.25.03.38.05-.21.09-1.46,0-.39.31,1.13.33,1.55.19,1.82.02.25-.18.75-.15,1.5.13.02.33,1.14.44,1.91.62l-.06.09c-.75.03-.2.16.42.3.8.37.94.07,1.47.19l.1.07-.11-.07c.09-.17-.17-.48,1.33-.05.94.26,1.77.39,1.67.06l.94.22.72.59c-.51-.13-.75-.12-.82-.02-.64-.06-.71.04-.15.32.8.24,1.04.41.7.51-.16.05-.37.11.15.27.3.1,1,.2,1,.17.04-.51,2.15.14,3.07.13.18,0,.28-.04.42-.07l.19-.08c1.89.64,3.76,1.57,5.55,2,.45.11.98.5,1.35.76.65.51,1.16.73,1.65.77.56.33,1.08.72,1.61,1.08.53.37,1.06.74,1.56,1.15l-.04.17c-.04.25.4.68,1.04,1.12.49.35.44.09.55.02,1.74,1.24,3.45,2.59,4.93,4.39l-.02-.1c.07-.02.02-.21.32.12.15.05.27.02.6.5-.4.04.17,1.01.53,1.85.39.91.67,1.96.79,2.99.12,1.03.11,2.03.06,2.9-.05,1.21-.3,2.03-.82,3.07-.31.63.08.4.19.52-1.07,2.07-2.58,3.78-4.2,5.29l-.19-.22c.21-.41.01-.46-.27-.46-.49,0-.17-.47.64-1.25.2-.27.39-.55.58-.83.38-.45.88-.97.84-1.33-.23.28-.49.53-.74.78-.19.02-.72.38-.28-.31.4-.21.69-.54.8-.99.29-.4.58-.81.82-1.25.73-.28,1.61-1.27,2.19-2.63-.06-1.07-.32-2.5-.81-2.63-.06-1.27-.44-2.57-1.23-3.65.11-.1.35-.07.3-.35-.07-.39.88.76.21-.39-.49-.79-.59-.49-.67-.32-.04.08-.26.25-.39-.38-.28-1.15-.67-.55-1.21-1.29-.04-.15-.03-.31-.15-.45-.36-.41-.45-.3-.62-.34-1.23-1.25-2.68-2.16-4.08-3.41-.72-.67-1.37-.64-1.75-.57-2.37-1.56-4.91-2.88-7.56-3.95.04-.07.15-.11.09-.22-.17-.29,1.25-.09-.13-.69-1.24-.49-.29.25-.53.34-.07.03-.49-.1-.75-.15-2.34-.67-4.85-1.39-7.27-2.08-.71-.19-1.94-.16-2.43-.65-.56-.52-4.79-1.78-6.21-1.84Zm8.13,2.13l.29-.04c-.12-.04-.26-.1-.35-.11-.09-.01-.15.02-.22.03.1.04.19.09.28.13Zm13.59,4.57s.11.07.16.11c.02-.05-.05-.09-.16-.11Z"/><path d="m103.45,2.79c3.28.35,6.38,1.37,9.54,2.16.16,1.15,2.35,1.07,3.62,1.58.18.38.04.74,1.52.83.9.05,2.09.5,3.17.81.82.4-2.18.69,1.12,1.16.45.18,1.14.26,1.08.64-.03.19.34.54.77.62.44.08.89,0,1.1-.12.35-.21-.5-.35-.72-.52-.43-.33-.71-.68-1.05-1.02.33-.15,1.42.36,1.48-.02.5.76,3.17.95,2.9,1.67-.13.35-1.25.4-1.82.69-.59.29-2.47-.23-3.91-.77-.65-.25-1.23-.6-1.89-.83-.63-.22-1.33-.77-1.89-.61-.6.17,1.21.56.78.83-1.1-.03-2.19-.22-3.31-.78.08-.63-.11-1.17-2.04-1.1-1.43.06-2.91-1.21-4.35-.87l-.5-.09-.9-.4c-1.44-1.01-3.16-1.46-5.14-1.22-1.02-.7-2.25-1.16-3.93-1.06l-.69-.09c.09-.04.15-.1.28-.12.95-.09,1.61-.24.73-.82-.23-.15-.9-.36-.81-.16.2.48-2.85.21-.72,1.14-.61-.02-1.47-.23-1.52.19l-1.03-.15c0-.23.85-.35.17-.64-.54-.23-1.16-.22-1.65-.07l-.65-.1c-1.34-.22-1.38-.66-1.53-1.07-.09-.24-.39-.45-1.04-.51-.24-.02-.63.03-.71.11-.24.22.28.32.69.45,1.46.48-1.27.63-.01,1.11-.36.36-1.19.25-1.96.18v-.27c.05-.26,1.24-.51.02-.76-.91-.18-1.57.08-1.42.54l-1.2-.09-1.63-.48c-.45-.33-.66-.65-.24-.97.19-.15.16-.3-.37-.36-.64-.07-.75.12-.86.3-.3-.09-.59-.15-.89-.23v-.58c1.53.11,3.27,0,4.23.8.37.31.94.18,1.05-.1.08-.21-.02-.45.64-.52,1.34-.14,2.7-.16,4.07-.07,1.36.12,2.73.35,4.1.73,1.59.97,5.08,1.44,7.33,1.02Zm16.46,5.79c-.17-.05-.36-.03-.54-.03.13.1.23.23.38.29.16.06.37.05.7.08-.25-.16-.38-.29-.54-.34Z"/><path d="m42.32,48.95c1.26.07,1.79.46,2.39.87.3.2.03.59,1.05.57.82-.01.68-.34.56-.62-.11-.27-.15-.54-.23-.81l2.95.3c-.02.27-.41.59.93.71,1.01.08,1.46.29,1.38.65-.13.2-1.32.11-.77.47.19.13.65.3.96.32,1.04.06.39-.33.63-.49.14-.09.24-.19.44-.26.39-.13,1.48-.11,1.09-.37-.44-.3-1.26.02-1.97-.11l.05-.5c2.81.18,5.51.56,8.18,1.02-.47.52-.81,1.14-3.09.5-.38-.11-1-.13-1.17.08-.19.22.29.32.81.4.15.3.3.6.38.92l-.78.08.6.29c-1.88.2-3.61-.06-5.18-.67-.39-.38-1.17-.87-2.05-.63-1.7.45-4.49-.92-5.71-.07-1.53-.5-3.22-.58-4.82-.91.17-.6-1.04-.9-2.1-.93-.95-.01-1.48-.19-2.13-.49.35-.48,1.88.23,2.59.02.26-.08.98.61,1.42.29.26-.2-.5-.55-.95-.83-.47-.29-.85-.4-1.58-.34-.92.07-1.97.02-2.62-.7-.39-.44-1.28-.38-1.8-.38-.91.02-.25.32.22.58.74.42,1.47.85,1.22,1.25l-.55.04c-.74-.88-2.52-1.04-3.96-1.48-.56-.18-1.92-.3-1.36-.84.13-.12-1.68-.37-1.78-.23-.21.32-.67.16-1.31-.05l-.47-.15c-.91-.16-2.02-.27-1.44-.82.56-.23.54-.22-.15-.59-.3-.15-.69-.41-.72-.54-.11-.44,1.13.12,1.42-.06,1.32.38,2.81.42,3.73,1.39.24.25,1.15.24,1.11.17-.16-.31,1.68.1.48-.53.1-.15.25-.14.76.03,1.69.54,3.36,1.24,5.21,1.32-.03,1.34,2.19.74,3.33,1.04,1.34.27,2.43-.05,3.83.31-.39.3-1.51.64.93.76Zm5.57,1.39l-.3.12c.12.03.26.09.36.09.09,0,.15-.06.22-.09-.1-.04-.19-.09-.29-.13Z"/><path d="m67.56,2.73c-1.72.26-3.84.34-5.41.7-1.43-.06-3.56.4-5.23.58-.47.05-.66.09-.99.16-1.03.23-1.23.65-.07.54,1.21-.12,1.6-.09,1.92-.02.33.08.94.13,2.06-.21.12-.04.59-.12.8-.13,1.98-.14,3.88-.43,5.83-.58,4.5-.34,9-.57,13.51-.63v-.18c-.39,0-.7,0-.79-.08-.67.05-1.47.11-2.03.12-1.34.04-2.97.25-4.04.08-.64-.13-5.25-.04-6.17.15-.15.03-.31.07-.29.09.24.16-.63.15-1.03.14-.48,0-.77-.04-1.19-.05-.24,0-.96.11-.9.05.04-.04.46-.13,1.02-.2,1.18-.17,2.86-.26,2.99-.53Z"/><path d="m.08,25.89c-.21,1.45-.05,3.24.66,3.97-.06-.39,0-.9-.07-1.16-.29-.99-.42-2.1.19-2.76.5-.52.47.37.69.95.37,1.02.24,1.7.15,2.58-.08.55.16,1.41.49,1.72,1.08,1.04,1.02,1.76,1.34,2.62.31.45.82.93.7,1.22-.02.06-.3-.04-.36-.12-.46-.57-.28-.75-.34-1.1-.56-.21-1.11-.48-1.67-.79-.04,1.34,1.25,2.24,2.25,3.04.16-.2.38-.29,1.05.32.11-.14.29-.21.31-.42.06-.62,1.07.43,1.55.52.13.03.39.17.37.33-.03.32-.48.1-.99-.14-.29-.14-.34.26-.49.42.53.15,1.35,1.33,1.77,1.02-.1-.16-.45-.49,0-.3v.29c.47.52-.15.62.58,1.13.26.18.67.05,1.01.05.08-.14.23-.17.62,0,.01-.06.02-.12.03-.18-.13-.08-.24-.19-.36-.28-.46-.69-2.12-2.3.55-.62.17.11.38-.01.57-.04-1.09-.75-2.41-1.41-2.98-2.62-.07-.14-1.7-.99-2.48-1.9-.38-.1-.67-.39-1.12-.96-.64-.83-1.08-1.82-1.37-2.8-.29-.99-.42-1.94-.62-2.94.3-.37.37-.87.49-1.41.11-.53.28-1.08.61-1.37.65-.56,1.07-1,1.53-1.95.66-1.29,1.36-1.51,1.75-1.11.55-.53,1.13-1.05,1.73-1.56-.3-.2.06-.79.29-1.28-1.14.31-2.35.69-.76-1.12.21-.23-.04-.23-.33-.1-.54.86-1.94,1.37-2.36,2.16-.9,1.81-1.09,1.07-1.52,1.03l-.37.41c.12.18,0,.47-.38.96.16.22-.03.59-.34,1.11l.27.12c-.34.47-.4.33-.53.26-.44.42-.83,1.08-1.18,1.65-.33.58-.62,1.07-.95,1.12Z"/><path d="m94.96,2.49c-.63-.03-1.07.02-1.4.1-.7.16-1.56.31-.28.59,2.01.45,2.12-.06,3.18-.09l1.92.3c.88.4,2.63.24,3.78.49v.26c-1.11-.12-2.42.03-3.24-.24-1.03-.35-2.13-.35-3.37-.38-2.43-.02-4.87-.11-7.3-.19-2.44-.06-4.88-.13-7.32-.19-.09-.1-.08-.2.53-.27h.94s.49.09.49.09c.15.05.29.05.44,0,3.09-.02,3.52-.1,2.35-.53-.04-.01-.05-.03-.07-.04-2.74.21-3.47-.55-6.15-.32-1.11.1-2.59.16-2.9-.1.73-.04,1.55-.31,1.79-.2.47.22,1.23.07,1.98.05,2.67-.08,5.27-.04,8.02-.03,3.91.03,7.92.35,11.91.57.79.05,2.07.06,2.1.39-.48.18-1.23.13-2.05-.06-.99-.24-1.67-.18-2.3-.05-1.02-.16-2.04-.33-3.05-.17Zm-4.9.44c-.02-.11-.29-.3-1.09-.26-.77.03-1.9.14-1.94.24-.09.22.91.02,1.27.09.7,0,1.81.24,1.76-.07Zm-2.25-.91c-.5-.02-1.4-.03-1.44.14-.02.09.31.19.84.2.58,0,1.14-.04,1.88-.06-.55-.13-.88-.26-1.28-.28Zm2.94.76l.29.02-.04-.04c-.22,0-.23,0-.26.02Z"/><path d="m77.12.2c-1.22.16-2.17.09-3.55-.09-2-.25-4.5.02-6.76.21-1.13.07-2.36-.06-3.4.32l.03.53c.27.23.93.57.18.71-2.23.41-1.85,1.38-3.35,1.92.82-.08,1.53-.26,2.16-.5.08-.01.15-.03.21-.06.07-.25-.31-.54.58-.72.7-.14,1.21-.06,1.33.23l.12.06-.11-.07c-1.05-.11-1.04.48-1.9.49-.05.03-.07.06-.06.1,1.02.5,2.18-.13,3.26-.11,1.34-.63,2.8-.66,4.27-.24.44.14.73.33,1.21,0,.74-.52,1.84-.36,2.9-.2,1.51-.38.82-.89.45-1.39-.1-.13-.42-.31.12-.39.46-.07.73.07.91.22h.54c-.28-.42,1.17-.61.88-1.03Z"/><path d="m78.48,53.05c.97.27,1.98.47,3.3.17,1.64-.57,3.38-.73,5.27-.42.34-.25,1-.33,1.59-.47l1,.08c-.13-.16-.33-.45-.38-.45-1.8.23-3.05-.35-4.79-.21-1.26.1-2.42.12-2.79-.43-.01-.02-.14-.02-.21-.03l-.71.21c.23.63-1.05.6-2.02.57-3.21-.08-6.43.3-9.68-.05-1.96-.21-2.07-.06-1.12-.72.28-.2.47-.42.71-.63-1.87.11-3.99-.25-5.5.35.35.07.68.17,1.04.2.59.06,1.45-.31,1.71.08.1.16-.84.44-1.44.59-.32.08-.92.02-1.39.01-.4,0-.83-.04-1.02.11-.26.2.15.32.55.44.64.18.79.56,1.8.58,1.28.42,2.66.63,4.33.46,1.91-.52,4.12-.52,6.35-.52-.03-.15.06-.33.47-.33.71,0,.26.25.42.38.93-.53,1.89-1.18,2.52,0Z"/><path d="m82.4,2.89l.49.09h.22s.22,0,.22,0c3.09-.02,3.52-.1,2.35-.53-.04-.01-.05-.03-.07-.04-2.74.21-3.47-.55-6.15-.32-1.11.1-2.59.16-2.9-.1-.8.16-2.25.17-2.85.39.78.1.03.36-.37.38-1.19.05-.47-.16-.65-.26-.04-.02,0-.05,0-.07-.92-.13-2.45.2-3.47.17-.62.12-1.17.15-1.66.13-.14.27-1.82.37-3,.53-.57.08-.98.16-1.02.2-.06.07.66-.05.9-.05.42.01.71.05,1.19.05.4,0,1.27.02,1.03-.14-.03-.02.13-.07.29-.09.93-.19,5.54-.28,6.17-.15,1.07.17,2.7-.03,4.04-.08.56-.01,1.36-.07,2.02-.12.65-.08.68,0,.78.08v.18s.97,0,.97,0c-.09-.1-.08-.2.53-.27.12-.04.21-.12.36-.12.51-.02.51.06.58.13Z"/><path d="m55.96,4.11l-.06-.21c-.44-.37-.79-.75-1.33-1.08-1.15-.71-3.09-.53-4.54.41-.18.12-.26.27-.49.35-.86.31-.82.92.09,1.02q.38.04.53-.38c.07-.2,0-.44.67-.54.2-.03.46.15.7.23,1.28-.05,1.26.41,1.59.72-1.4.42-2.86.6-4.35.71.52-.66-.95-.56-1.68-.74l-.69.47-1.47.44s-.05-.09-.04-.14c.8-.8-.72-1.09-.79-1.7l.91-.18s.02.07.06.07c.68.08.67.69,1.44.45,1.14-.35-.24-.57-.07-.92l.48-.48c2.24-.31,4.5-.84,6.73-.81l.95-.13.08.36-.19.12.25-.11.59-.09c.31,0,.76.11.71-.18l.95-.29-.13.07-.15-.04c.71.33,2.35.09,2.88.72.25.3,2.27-.49,3.39-.84.19-.06.3-.15.45-.23.27.23.93.57.18.71-2.23.41-1.85,1.38-3.35,1.92-1.46.34-2.89.5-4.3.31Zm-6.59-1.07c-.06-.09-.18-.17-.27-.25-.06.06-.16.13-.16.18,0,.08.09.15.16.24.13-.08.29-.14.27-.17Z"/><path d="m5.18,36.37c-.68-.61-.9-.52-1.05-.32l.58.65.51.44c1.14,1.22,2.27,2.28,3.84,3.12.65.3,1.5.86,2.14,1.44.35.31.9.69,1.4,1.01.51.3.97.51,1.11.56,3.04.87,5.65,2.24,8.35,3.5.99.45,1.72.42,2.57.66,4.32,1.33,8.7,2.34,13.1,3.18.47.1.94.25,1.26.09.17-.6-1.04-.9-2.1-.93-.95-.01-1.48-.19-2.13-.49-.37.16-.97-.01-1.51-.11l-.55.04c-.74-.88-2.52-1.04-3.96-1.48-.56-.18-1.92-.3-1.36-.84.13-.12-1.68-.37-1.78-.23-.21.32-.67.16-1.31-.05-.2.11-.36.06-.47-.15-.9-.15-2.02-.26-1.42-.81l-.69-.25c-.81-.02-1.65-.07-2.53-.76-.97.04-2.02.24-2.7-1.06l-1.28-.62c-.46.24-1.25-.33-1.95-.66-1.01-.52-.68-.7-.63-.94-1.44-.09-2.49-.98-3.31-2.07-.34,0-.75.13-1.01-.05-.73-.52-.11-.62-.59-1.13-.41.32-1.23-.86-1.76-1.01-.26-.23-.5-.47-.75-.71Z"/><path d="m35.91,4.97c-.74-.17-1.53-.17-2.46.39.64.15,1.26.32.67.82-.47.39-.98.02-1.52.27-.88-.37-1.23.06-1.65.49-.47.49-1,.71-1.51.35-1.31.48-.97.86-1.12,1.26.31.33,1.41.15,2.01.32.97.12,2.15-.09,3.23-.53.81-.32,1.53-.5,2.36-.6.78-.39-.22-.84,1.22-1.17,1.06-.24.98.21,1.2.44l.94-.24c-.12-.24-.3-.47-.34-.72-.03-.17.4-.32.81-.4.36-.07.65-.03.47.14-.27.24-1.06.57-.15.58.23,0,.94-.48,1.43-.73.15-.09.21-.27.58-.18l-.59.17c.5.64,1.66.27,2.87-.17.28-.66-1.68-.59-1.65-1.16-2,.72-2.06.26-2.01-.29-.81.26-1.57.03-2.38.38.25.58-.55,1.29-1.99,1.53-1.99.33.52-.67-.22-.81-.1-.02-.13-.08-.2-.12Z"/><path d="m130.8,44.42l.75-.29,1.36-.77.51-.25s-.06-.07-.1-.1c-.33.08-.51.08-.3-.14.03-.03.15-.1.2-.11.44-.09.05.17.08.25.76-.28,1.24-.65,1.48-1.02.74-1.16,2.65-1.53,2.71-1.36.17.55,1.29-.09,2.14-.49.91-.77,1.74-1.64,2.58-2.49.37-.36,1.17-.96.77-1-.33-.03-1.06.77-1.33.86-.8.31-1.46,1.66-2.21,1.38-.56.3-1.19.71-1.42.52-.46.26-.95.56-1.34.57-1.03.54-2.12.99-3.19,1.44-2.14.79-3.76,2.13-6.05,2.66l.12.35c.54-.19,1.1-.42,1.45-.32.03.2.1.43-.74.72l.55.31,1.96-.72Z"/><path d="m7.45,17.06c.29-.13.54-.13.33.1-1.59,1.81-.38,1.43.76,1.12l.69-.57-.33-.41h-.13s.13,0,.13,0c.74-.37,2.01-1.68,2.31-.98,1.1-.8,2.47-.86,3.51-2.04.15-.17,1.08-.42,1.26-.18.42-.2.85-.4,1.28-.58.35-.67,1.92-1.57,1.34-2.01-.03-.02.25-.2.39-.31,1.38.52,1.3-.82,2.15-.98-.03-.05-.05-.11-.07-.16-2.66.04-2.86,1.14-3.39,2.03l-.15.12.16-.12c-.48.14-1.33.47-1.39.39-.8-1.05-2.07.5-3.28,1.32-1.3.83-2.6,2.02-4.04,2.34-.63.28-.82-.14-1.73.61l.2.31Z"/><path d="m82.91,1.73c-.3-.09-.59-.15-.89-.23-2.19-.2-2.14-.79-1.89-1.42-.72-.24-.7.12-1.05.17.63.88-.47,1.56-2.46,1.65.45.44.48.88-.02,1.32.49.46.91.15,1.35,0-.29-.1-.36-.25.03-.26.54-.02.44.2.49.33,1.13.67,2.83.31,4.05.33,2,.11,4.15.51,6.08.22v-.27s-1.37-.22-1.37-.22c-.46.3-.84.11-1.23-.08l-1.63-.48c-.14.24-.25.51-1.14.41-.6-.07-.93-.26-1.21-.47-.65-.48.28-.72.88-.98Z"/><path d="m139.45,38.89c.76.28,1.41-1.07,2.21-1.38.27-.09,1-.89,1.33-.86.4.04-.39.64-.77,1-.84.85-1.67,1.72-2.58,2.49h.51s.5-.31.5-.31c1.09-1.29,2.85-2.29,4.1-3.62.21-.41.01-.46-.27-.46-.49,0-.17-.47.64-1.25l-.09-.12c-.13-.16.04-.45.52-.93.09-.1.18-.21.25-.32-.19.02-.72.38-.28-.31l-.14-.07c-1.78,1.93-4.06,3.46-6.14,5.15.55.05,1.45-.11.21.99Z"/><path d="m101.81,51.49c.57-.09.61.64,1.56-.03.71-.5,1.51-.04,2.25-.29.12-.7,1.16-.73,2.28-.65.95.07,1.69-.18,2.34-.52.67-.36.94-.67.14-.84-1.02.14-1.98.07-3.05.37-3.32.95-3.71.99-6.49.77-.07,0-.2,0-.21,0-1.31.82-3.53.1-4.89.81.16.29.21.63,1.19.69.01-.23.24-.28.9-.31,1.4-.06,2.71-.08,3.98,0Z"/><path d="m139.45,38.89c1.23-1.1.33-.94-.21-.99-.99.42-1.7.55-2.82,1.63-.4.41-1.12.79-1.96,1.13-.42.17-.85.35-1.28.53-.44.16-.88.33-1.28.5-2.14.97-4.46,1.9-6.8,2.41-1.03.2-1.69.43-1.45.83.23.39,1.05.13,1.94-.22l1.88-.65c2.29-.53,3.91-1.87,6.05-2.66,1.06-.45,2.16-.89,3.19-1.44.21-.2.42-.47.64-.58.48-.23.61-.11.7,0,.23.19.86-.22,1.42-.52Z"/><path d="m17.67,12.09c.52-.89.72-2,3.39-2.03.58-.33,1.18-.61,1.77-.92.45-.31.93-.6.7-.83-1.04-.12-2.08.62-3.02,1.02-3.62,1.48-7.3,3.07-10.46,5.53-.83.67-.86.89-1.07,1.29,1.44-.33,2.74-1.51,4.04-2.34,1.21-.82,2.48-2.38,3.28-1.32.06.08.91-.25,1.37-.39Z"/><path d="m68.64,50.69c-.23.21-.42.43-.71.63-.94.66-.83.51,1.12.72,3.25.35,6.47-.03,9.68.05.98.03,2.26.05,2.02-.57-1.84-.6-3.81-.45-5.98-.09-1.4.24-2.48.1-2.21-.58-1.41.3-2.59-.2-3.92-.16Z"/><path d="m95.75,51.12c1.36-.71,3.57,0,4.89-.81.02,0,.15,0,.21,0,2.79.21,3.18.18,6.49-.77,1.07-.3,2.03-.23,3.04-.37-.52-.48-1.08-.93-2.77-.95l-1.16.52c-.4.42-1.09.5-2.08.57-1.2.09-2.64.33-3.68.4-2.1.16-3.9.94-5.93.75l.6.68c.13-.01.27-.02.4-.01Z"/><path d="m119.9,46.25c-.49.64-.87,1.27,1.6.67.8-.19.35.15.33.29-1.13.65-2.53.78-3.45.78-2.33-.02-2.74.51-3.09,1.23l-.45.13c-1.53,0-3.96.3-1.84-1,.38-.23.31-.52.45-.78,1.25-.23,2.49-.55,3.73-.78.8-.17,1.4-.34,1.4-.68l1.39-.28c-.02.14.03.27-.08.42Zm-3.86,1.36c-.05,0-.13.01-.24.09.07,0,.14-.02.24-.09Z"/><path d="m125.07,8.91c.5.76,3.17.95,2.9,1.67-.13.35-1.25.4-1.82.69-.59.29-2.47-.23-3.91-.77-.65-.25-1.23-.6-1.89-.83-.63-.22-1.33-.77-1.89-.61-.6.17,1.21.56.78.83,1.97,1.28,4.9,1.4,6.91,2.74.63.42.67-.14,1.25,0,.62,0-1.72-1.16.35-.59.87-.28,2.75.11,2.76-.68-.4-.21-.93-.44-1.17-.63-.57-.51-.23-1.39-2.26-1.24,0,0-.15-.11-.33-.24-.18-.13-.41-.3-.59-.39-1.08-.57-2.19-.89-3.25-.92.09.82,1.6.54,2.16,1.01Z"/><path d="m130.19,13.47c.54.23.9.48,1.11.76.53.72,1.76,1.49,2.93,1.65,1.04.15,2.07.1,2.39-.32.59-.77-.43-1.63-3.15-2.62-.66-.23-1.37-.81-2.06-1.23-.97.06-.82.61-.06,1.22.77.62,1.66.75,2.41.71.28-.02,1.41.26,1.17.56-.21.27.27.8-.24.92-.31.08-.53.26-1.25,0-.75-.27-.99-.59-.99-.84,0-.26-.02-.5-.86-.81-.81-.3-1.29-.3-1.4,0Z"/><path d="m94.75,50.45c2.03.19,3.84-.59,5.94-.75,1.04-.07,2.48-.31,3.68-.4.99-.06,1.68-.14,2.08-.57-1.79-.61-4.22.19-6.29.39-3.09.29-6.22.98-9.28.64l-.23.25c.47.23,2.07.42-.33.72-.78.09-1.21.42.15.43,1.42-.25,2.41-1.03,4.28-.72Z"/><path d="m6.52,21.11c-.39-.4-1.09-.18-1.75,1.11-.46.95-.88,1.39-1.53,1.95-.33.29-.5.84-.61,1.37-.12.53-.19,1.04-.49,1.41.19,1,.33,1.95.62,2.94.28.98.72,1.97,1.37,2.8.45.56.74.85,1.12.96-.88-1.75-1.89-3.42-2.22-5.35-.22-1.22-.02-2.54.82-3.68.7-.97,1.55-2.4,2.69-3.51Z"/><path d="m96.33,4.52l-1.03-.15-1.47-.71-.66-.1c-.73.05-1.45.09-2.18.16,1.16,1.07,3.67,1.07,5.46,1.35,3.54.57,7.14.94,10.7,1.56h.98c-1.44-1-3.16-1.45-5.14-1.21-1.55-.09-3.21,0-3.93-1.06l-.69-.09-.5-.03c-.01.14,0,.21,0,.27l.13.16-.33-.12-1.35-.06Z"/><path d="m148.52,25.32c-.06-1.27-.44-2.57-1.23-3.65-.54-.9-1.16-1.71-1.52-2.46-.48-.55-.76-.79-1.02-1.06-1.23-1.25-2.68-2.16-4.08-3.41-.72-.67-1.37-.64-1.75-.57,2.14,1.49,4.22,3.11,5.97,4.98,1.74,1.84,3.14,4,3.39,6.38l.23-.2Z"/><path d="m121.83,47.21c-1.13.65-2.53.78-3.45.78-2.33-.02-2.74.51-3.09,1.23,3.7-.6,7.45-1.24,10.9-2.85.83-.4,1.48-.25,2.16-.54.95-.38,2.48-.8,2.45-1.41l-1.96.72c-1.1.32-2.18.67-3.28.95-1.24.39-2.48.78-3.73,1.12Z"/><path d="m120.07,5.78c.09-.17-.17-.48,1.33-.05.94.26,1.77.39,1.67.06-3.85-1.19-7.8-2.08-11.96-2.37v.16s.13.14.13.14c.08,0,.16,0,.24.02.7.01,1.39.05,1.56.33.12.01.25.03.38.05l1.43.33c.25-.18.75-.15,1.5.13.84.19,1.78.1,2.51.47.24.12-.17.17-.6.15l-.06.09.42.3c.8.37.94.07,1.45.19Z"/><path d="m114.84,49.35c-1.53,0-3.96.3-1.84-1,.38-.23.31-.52.45-.78-.7.08-.51-.15-.58-.28l-.92.22c.36.3-.82.69-.79,1l.64-.04s-.12.09-.12.09c-.18,0-.35-.02-.53-.04-.87-.09-.42-.5-.64-.74-1.01-.27-1.97-.15-2.89.45,1.69.02,2.25.46,2.77.95.81.17.54.49-.14.84-.65.34-1.39.59-2.34.52-1.12-.08-2.16-.05-2.28.65,2.46-.27,4.89-.97,7.34-1.15.97-.07,1.43-.35,1.87-.67Z"/><path d="m90.47,51.17c-1.37-.01-.94-.34-.15-.43,2.4-.29.79-.49.33-.72-.39.36-1.16.16-1.73.25.08.22-.34.56-.7.49-1.78-.34-2.99.43-4.53.44-.81.32-.86.08-.94-.14-.84-.25-1.04,0-1.27.24.07,0,.2.01.21.03.37.55,1.52.53,2.79.43,1.74-.14,2.99.44,4.79.21.04,0,.25.29.38.45l1.92.19,1.02.12.08-.5c-2.15.08-2.31-.45-2.18-1.07Z"/><path d="m64.39,53.05c-1.01-.02-1.17-.4-1.8-.58-.41-.12-.81-.24-.55-.44.2-.15.63-.12,1.02-.11.47,0,1.07.07,1.39-.01.6-.15,1.54-.42,1.44-.59-.26-.39-1.11-.03-1.71-.08-.36-.03-.7-.13-1.04-.2-.44-.3-.87-.05-1.3-.05-.73.1-1.52.26-1.32.57.77,1.21-1.5,1.08-3.54,1.02.23.26,1.3.24,1.35.56,1.68-.08,3.24.36,4.95.38,1.22.01.97-.25,1.11-.47Z"/><path d="m83.68,51.2c1.54,0,2.75-.78,4.53-.44.36.07.78-.27.7-.49-3.07.14-6.12.33-9.18.53-1.54.1-3.16.03-4.69-.07-.92-.06-1.67.02-2.48.11-.27.68.81.82,2.21.58,2.18-.36,4.15-.51,5.98.09l.71-.21c.23-.23.43-.5,1.27-.24l.94.14Z"/><path d="m121.83,47.21c1.25-.34,2.49-.73,3.73-1.12l-.06-.33c-.51.15-.97.23-.95,0,.02-.22.53-.37.99-.51.12-.2.08-.37.04-.54-.89.35-1.71.61-1.94.22-1.22.18-2.45.46-3.67.89-.02.14.03.27-.08.42-.49.64-.87,1.27,1.6.67.8-.19.35.15.33.29Z"/><path d="m22.83,9.13c-.59.31-1.19.6-1.77.92l.06.17.12.02-.12-.03c-.85.16-.77,1.5-2.15.98-.14.11-.41.29-.39.31.58.45-.99,1.35-1.34,2.01.18.14.55-.07.9-.23.32-.49,1.11-.71,1.75-1.03.52-.11.55-.9,1.01-.54.48.39,1.15-.27,1.66-.32.66-.63,1.09-.57,1.46-.36.5-.09,1.17.05,1.3-.51l.11-.34c-.59.07-.97-.11-1.75.17-.57.08-.44-.18-.55-.33-2.55.61.1-.71-.33-.89Z"/><path d="m112.3,5.13c-.78-.3-1.71-.56-2.45-.89-1.52-.71-4.55-.78-5.87-.4,1.19.12,2.51.24,1.63.55,2.27.31,4.51.71,6.69.73Z"/><path d="m23.16,10.02c-2.55.61.1-.71-.33-.89.45-.31.93-.6.7-.83,1.4-.55,2.78-1.52,4.28-1.25.07.02.1.05.09.09-1.73,1.09-1.63,1.91-1.28,2.64-.39.13-.78.25-1.17.39-.59.07-.97-.11-1.75.17-.01-.2-.06-.37-.55-.33Zm1.27-1.07c-.33.02-.56.26-.43.33.25.13-.55.82.85.33.67-.33.58-.43.02-.4-.14-.09-.19-.27-.44-.26Z"/><path d="m1.87,33.02c-.25-.46-.16-.96-.66-1.36-1.12-.96-.61-1.34-.47-1.8-.06-.39,0-.9-.07-1.16-.29-.99-.42-2.1.19-2.76.5-.52.47.37.69.95.37,1.02.24,1.7.15,2.58-.08.55.16,1.41.49,1.72,1.08,1.04,1.02,1.76,1.34,2.62-.56-.21-1.11-.48-1.67-.79Zm-.97-5.96s0,.19.03.2c.05.02.09,0,.14,0-.03-.14-.03-.28-.04-.42-.04.07-.09.13-.13.22Z"/><path d="m129.29,7.83c1.89.64,3.76,1.57,5.55,2,.45.11.98.5,1.35.76.65.51,1.16.73,1.65.77-.65-.58-1.44-1.11-2.32-1.51-.87-.43-1.8-.8-2.71-1.12-2.32-.89-4.4-2.01-6.88-2.48-.36-.06-.79-.17-.98-.11.42.37,1.22.67,2.21.82,1.2.17,1.7.47,2.14.87Z"/><path d="m130.19,13.47c.11-.3.59-.3,1.4,0,.84.31.87.54.86.81,0,.25.24.57.99.84.72.26.94.09,1.25,0,.51-.12.03-.65.24-.92.24-.3-.89-.59-1.17-.56-.76.05-1.64-.09-2.41-.71-.76-.61-.91-1.16.06-1.22-.25-.23-.53-.42-.9-.38,0,.79-1.89.4-2.76.68.42.33.79.65.73.91l1.71.54Z"/><path d="m9.29,39.28c.82,1.09,1.87,1.98,3.31,2.07.91-.06,2.92,1.08,3.59.63l.1-.61c-.67-.52-1.34-.84-2.06-.92-.15.05.05.33-.42.15l.02-.36c-.1-.1-.23-.18-.38-.25-1.74-.87-1.89.14-3.54-.72-.39-.17-.54-.14-.62,0Z"/><path d="m140.16,40.13h-.51c-.86.42-1.98,1.05-2.14.5-.06-.17-1.97.2-2.71,1.36-.24.37-.72.74-1.48,1.02.05.02.08.06.11.09l.16.45c2.28-.83,4.64-1.65,6.58-3.43Z"/><path d="m148.38,19.81c-.4.04.17,1.01.53,1.85.39.91.67,1.96.79,2.99.12,1.03.11,2.03.06,2.9-.05,1.21-.3,2.03-.82,3.07-.31.63.08.4.19.52.63-1.11,1.14-2.33,1.35-3.66.2-1.32.13-2.75-.39-4.06-.42-1.12-.96-2.53-1.71-3.62Z"/><path d="m9.23,17.71l-.69.57c-.23.48-.59,1.07-.29,1.28,2-1.27,3.82-3.09,6.17-3.84.93-.3.85-1.05,1.55-1.62-.17-.24-1.1.02-1.26.18-1.04,1.18-2.41,1.24-3.51,2.04-.11,1.38-1.41.75-1.98,1.38Z"/><path d="m21.69,45.41l.69.25c.56-.23.54-.22-.15-.59-.3-.15-.69-.41-.72-.54-.11-.44,1.13.12,1.42-.06-.28-.22-.57-.44-.84-.67l-1.44-.66c-1.07-.17-2.14-.38-3.22-.6,1.81,1.34,1.74,1.49-.97,1.04.68,1.31,1.73,1.1,2.7,1.06.84.26,1.57-.51,2.53.76Z"/><path d="m56.97,52.58c2.04.06,4.3.18,3.54-1.02-.2-.31.59-.47,1.32-.57-.19-.6-1.24-.18-1.85-.29-.47.52-.81,1.14-3.09.5-.38-.11-1-.13-1.17.08-.19.22.29.32.79.39l.22-.02-.2.03.45.9Z"/><path d="m27.81,7.05c.07.02.1.05.09.09.29.21,1.7-.37,1.55.14.51.36,1.03.14,1.51-.35.41-.43.76-.86,1.65-.49.54-.25,1.05.12,1.52-.27.59-.49-.03-.67-.67-.82-1.94.41-4.15.43-5.65,1.69Z"/><path d="m56.72,1.51c.71.33,2.35.09,2.88.72.25.3,2.27-.49,3.39-.84.19-.06.3-.15.45-.23l-.03-.53c-1.79-.28-3.37.57-5.11.52l-1.27.22c-.17.03-.27.07-.3.14Z"/><path d="m120.35,6.77c-.56-.52-4.79-1.78-6.21-1.84-1.39-.1-.56.32-.87.47.88.1,1.77.11,2.56.46.17.08.76.24.8.23,1.17-.15,2.51.43,3.71.68Z"/><path d="m125.07,8.91c-.56-.46-2.07-.18-2.16-1.01-.56-.55-1.28-.58-1.99-.65-1.26.16-2.93-.64-4.32-.72.18.38.04.74,1.52.83.9.05,2.09.5,3.15.78l.65-.04.15.17-.77-.1c.82.4-2.18.69,1.12,1.16.2-.24-.08-.77,1.17-.4.33-.15,1.42.36,1.48-.02Z"/><path d="m147.46,19.18c.07-.02.02-.21.32.12-1.86-2.52-4.18-4.9-6.78-5.72l-.04.17c.53.38,1.08.74,1.59,1.14,1.75,1.23,3.44,2.59,4.91,4.28Z"/><path d="m116.6,6.53c1.39.08,3.06.89,4.32.72.03-.63-1.15-.49-1.66-.7-1.99-.81-4.16-1.25-6.28-1.6.16,1.15,2.35,1.07,3.62,1.58Z"/><path d="m82.03.92c1.52.11,3.26,0,4.23.8.37.31.94.18,1.05-.1.08-.21-.02-.45.64-.52.26-.58-1.04-.53-1.72-.58-1.53-.14-3.08-.27-4.63-.32.11.24-.29.51.43.72Z"/><path d="m74.22,2.78c-1.05-.16-2.15-.32-2.9.2-.48.34-.77.14-1.21,0-1.48-.42-2.94-.39-4.27.24,1.39.45,3.07.29,4.73.19,1.22-.06,2.43-.16,3.64-.23v-.41Z"/><path d="m41.38,48.19c-.39.3-1.51.64.93.76,1.26.07,1.79.46,2.39.87.3.2.03.59,1.05.57.82-.01.68-.34.56-.62-.11-.27-.15-.54-.23-.81-1.57-.23-3.14-.49-4.71-.77Z"/><path d="m40.7,3.99c-.05.56.01,1.01,2.01.29l1.38-.62.91-.18c.36-.25.91-.32,1.43-.4l.48-.48c-.01-.36-.65-.16-1.15-.02-1.7.45-3.39.92-5.07,1.41Z"/><path d="m22.09,43.8c.27.24.56.45.84.67,1.32.38,2.81.42,3.73,1.39.24.25,1.15.24,1.11.17-.16-.31,1.68.1.48-.53-2.09-.43-4.07-1.76-6.16-1.7Z"/><path d="m41.51,5.61c-.49.26-1.2.73-1.43.73-.92,0-.12-.34.15-.58.18-.16-.11-.21-.47-.14-.41.08-.84.24-.81.4.04.26.22.48.34.72,1.82.14,3.73-.37,5.66-.8l-.02-.45s-.05-.09-.04-.14l-.52.08c-1.21.43-2.37.8-2.86.17Z"/><path d="m9.91,39.28c1.64.86,1.8-.15,3.54.72-.32-.44-.65-.86-1.08-1.19-.41-.34-.93-.58-1.67-.65-.19.02-.4.15-.57.04-2.68-1.68-1.01-.07-.55.62.14-.06.15-.23.62.1l-.26.18c0,.06-.02.12-.03.18Z"/><path d="m51.55,52.3c-.39-.38-1.17-.87-2.05-.63-1.7.45-4.49-.92-5.71-.07,2.61.47,5.2.7,7.76.7Z"/><path d="m91.55,52.61l-1.92-.19-1-.08c.03.43-.79.45-1.59.47-1.89-.31-3.64-.15-5.27.42.17.18.68.34,1.03.27,2.81-.57,6.04-.06,8.75-.88Z"/><path d="m115.93,9.11c.08-.63-.11-1.17-2.04-1.1-1.43.06-2.91-1.21-4.35-.87,1.75,1.27,4.19,1.39,6.39,1.97Z"/><path d="m147.14,30.58c.73-.28,1.61-1.27,2.19-2.63-.53.17-.71-.63-1.02-1.5-.28.85-.25,1.63-.47,2.45.2.56-.34,1.16-.71,1.68Z"/><path d="m96.11,1.77c1.59.97,5.08,1.44,7.33,1.02-2.02-.72-4.17-.74-6.27-1.03-.11.37-.6.17-1.07,0Z"/><path d="m2.47,22.74c.31-.52.51-.89.31-1.02-.17.15-.34.3-.5.47l-.25.02c.12-.13.23-.27.35-.38l.43-.2c.39-.49.5-.78.38-.96-.67.7-1.36,1.34-1.96,2.15-.59.81-1.09,1.82-1.16,3.06.33-.05.61-.54.95-1.12.35-.56.74-1.22,1.18-1.64.08-.13.17-.26.26-.38Z"/><path d="m75.07,53c-2.23,0-4.45,0-6.35.52.75.31,1.46.45,2.58.14,1.42-.4,3.19-.04,4.75-.22l-.1-.39c-.29-.02-.58-.03-.88-.05Z"/><path d="m76.62,1.9c1.99-.09,3.09-.77,2.46-1.65-.65-.04-1.31-.04-1.96-.05.29.42-1.16.6-.88,1.02.57.2.32.46.38.69Z"/><path d="m17.44,42.54c1.07.23,2.14.43,3.22.6-1.4-.86-2.75-1.67-4.37-1.77l-.1.61,1.25.56Z"/><path d="m26.62,9.79c-.39.13-.78.25-1.17.39l-.11.34c1.73-.46,3.55-.71,5.01-1.66-.6-.17-1.7.01-2.01-.32-.31.16-.58.3-.85.44,0,.26.03.52-.88.8Z"/><path d="m74.22,2.78v.41s2.38.03,2.38.03c.5-.43.47-.87.02-1.32-1.18-.05-.9-.39-.92-.68-.19-.15-.45-.29-.91-.22-.54.08-.22.26-.12.39.37.49,1.06,1-.45,1.39Z"/><path d="m7.45,17.06l-.2-.31c-1.33.99-3.18,1.84-3.68,3.51.43.04.62.78,1.52-1.03.42-.8,1.82-1.31,2.36-2.16Z"/><path d="m92.65,52.23l-.08.5c1.91.19,3.59-.3,5.31-.67l-.94-.26c-.98-.06-1.03-.4-1.19-.69-.13,0-.26,0-.4.01.06.66-.18,1.26-2.7,1.11Z"/><path d="m113.45,47.57c1.25-.23,2.49-.55,3.73-.78.8-.17,1.4-.34,1.4-.68-1.74-.02-3.49.76-5.25.97.03.16.06.33.11.5Z"/><path d="m96.94,51.8l.94.26c1.41.08,2.9.33,3.93-.57-1.27-.08-2.58-.06-3.98,0-.66.03-.89.09-.9.31Z"/><path d="m35.91,4.97c.06.04.09.1.2.12.74.14-1.77,1.14.22.81,1.43-.24,2.23-.95,1.99-1.53-.85.09-1.81-.02-2.41.6Z"/><path d="m129.29,7.83c-.44-.4-.94-.71-2.14-.87-.99-.15-1.79-.45-2.21-.82-.34-.07-.77-.19-.92-.12l.72.59c.72.24,1.45.44,2.18.66.72.22,1.46.39,2.18.65l.19-.08Z"/><path d="m105.61,4.4c.87-.31-.45-.43-1.63-.55-.87-.12-1.43-.09-1.82.04v.26c1.13.03,2.27.06,3.45.25Z"/><path d="m144.75,36.21c-1.25,1.33-3.01,2.33-4.1,3.62.86-.35,1.58-.95,2.29-1.53.68-.6,1.31-1.25,2-1.87l-.19-.22Z"/><path d="m34.22,46.84c-.03,1.34,2.19.74,3.33,1.04-.03-.27.38-.57-1.06-.66-.72-.06-1.51-.24-2.27-.37Z"/><path d="m38.35,7.01c-.22-.23-.13-.68-1.2-.44-1.43.33-.44.77-1.22,1.17,1.25.24,1.6-.49,2.41-.73Z"/><path d="m90.99,3.72c.73-.07,1.45-.11,2.18-.16-1.34-.22-1.38-.66-1.53-1.07-.09-.24-.39-.45-1.04-.51-.24-.02-.63.03-.71.11-.24.22.28.32.69.45,1.46.48-1.27.63-.01,1.11.13.04.27.06.42.08Z"/><path d="m103.14,2.84c.98-.06,2.21.78,3.02.23-.37-.41-.37-.44-3.02-.23Z"/><path d="m51.53,3.9c1.28-.05,1.26.41,1.59.72.99-.1,2.09.02,2.84-.51l-.06-.21c-.72-.01-1.94.33-2.1-.02-.36-.75-1.33-.3-2.28.02Z"/><path d="m48.77,5.33c.52-.66-.95-.56-1.68-.74l-.69.47-.46.83c.99-.08,1.78-.65,2.83-.56Z"/><path d="m51.75,50.18l.05-.5c-.88-.25-1.76-.48-2.76-.43-.02.27-.41.59.93.71,1.01.08,1.46.29,1.38.65.46-.07.34-.27.39-.43Z"/><path d="m148.31,26.45c.31.87.49,1.67,1.02,1.5-.06-1.07-.32-2.5-.81-2.63l-.23.2c.04.31.04.62.02.93Z"/><path d="m82.03.92c-.72-.2-.32-.48-.43-.72l-1.46-.12c-.25.63-.3,1.22,1.89,1.42v-.58Z"/><path d="m75.95,53.04l.1.39c.94,0,1.75-.13,2.43-.38-.63-1.18-1.59-.53-2.53,0Z"/><path d="m131.37,10.21c.04-.07.15-.11.09-.22-.17-.29,1.25-.09-.13-.69-1.24-.49-.29.25-.53.34-.07.03-.49-.1-.75-.15.25.26.47.48,1.32.71Z"/><path d="m147.14,30.58c.37-.52.91-1.13.71-1.68-.13.3-.28.58-.45.87-.13.34-.33.6-.51.69-.26.54-.58,1.07-.92,1.59l.36-.22c.29-.4.58-.81.82-1.25Z"/><path d="m72.69,2.43s-.04.05,0,.07c.17.1-.54.31.65.26.4-.02,1.15-.28.37-.38l-1.02.05Z"/><path d="m111.16,48.5c-.02-.32,1.15-.7.79-1-.48.1-.96.19-1.45.27.22.25-.23.66.65.73Z"/><path d="m128.48,12.93c.06-.26-.31-.58-.73-.91-2.06-.57.27.6-.34.59.07.08.18.13.33.17l.6.2c.13.02.18.01.14-.06Z"/><path d="m56.05,1.77l.95-.29c-.47-.35-1.64-.1-2.39-.18v.36s.07.36.07.36c.26-.01.46-.04.66-.07.05-.21.39-.19.71-.18Z"/><path d="m58.33,53.14c-.06-.33-1.12-.3-1.42-.54l-.78.08.6.29c.51.15,1.04.21,1.6.17Z"/><path d="m24.03,11.04c-.37-.21-.8-.26-1.46.36.44.03.75.41,1.46-.36Z"/><path d="m132.91,43.36l-1.36.77c.09.42.85-.01,1.53-.36l-.17-.41Z"/><path d="m19.9,12.26c-.64.32-1.42.54-1.75,1.03,1.08-.1,1.49-.51,1.75-1.03Z"/><path d="m67.56,2.73c.48.03,1.04,0,1.66-.13-.53.02-.87-.19-1.66.13Z"/><path d="m146.32,31.82l-.36.22c-.18.25-.39.47-.58.71l.14.07c.4-.21.69-.54.8-.99Z"/><path d="m62.58,3.34s0-.07.06-.1c-.07.03-.14.05-.22.06l-.1.41.27-.37Z"/><path d="m146.88,30.46c.18-.09.38-.35.51-.69-.21-.11-.35.13-.51.69Z"/><path d="m78.48,3.28c-.05-.14.04-.35-.49-.33-.39.02-.32.16-.03.26l.53.07Z"/><path d="m54.6,1.65v-.36c-.48.12-.81.28-.95.49l.95-.13Z"/><path d="m57.02,1.37l1.27-.22c-.56-.17-.99-.11-1.27.22Z"/><path d="m113.42,47.56l-.08-.49c-.32.03-.47.1-.47.22.07.13-.13.36.55.28Z"/><path d="m13.82,40.25l-.02.36c.47.18.27-.1.42-.15-.12-.1-.25-.16-.4-.21Z"/><path d="m96.11,1.77c.47.16.96.36,1.07,0-.43-.12-.87-.22-1.07,0Z"/><path d="m129.1,7.91c-.71-.26-1.45-.43-2.18-.65-.72-.22-1.45-.42-2.18-.66-.51-.13-.75-.12-.83-.02l-.15.32c.8.24,1.04.41.7.51-.16.05-.37.11.15.27.3.1,1,.2,1,.17.04-.51,2.15.14,3.07.13.18,0,.28-.04.42-.07Z"/><path d="m98.01,2.67c-1.02-.16-2.04-.33-3.05-.17,1.72.13.29.44,1.5.6l1.92.3c-.23-.25-1.25-.52-.37-.73Z"/><path d="m145.77,19.2c.36.75.98,1.56,1.52,2.46.11-.1.35-.07.3-.35-.07-.39.88.76.21-.39-.49-.79-.59-.49-.67-.32-.04.08-.26.25-.39-.38-.28-1.15-.67-.55-.97-1.02Z"/><path d="m114.84,4.46l-1.43-.33c-.21.09-1.46,0-.39.31,1.13.33,1.55.19,1.82.02Z"/><path d="m118.25,5.2c.43.02.84-.03.6-.15-.73-.36-1.66-.27-2.51-.47.02.33,1.14.43,1.91.62Z"/><path d="m142.55,14.9c-.51-.41-1.06-.76-1.59-1.14-.04.25.4.68,1.04,1.12.49.35.44.09.55.02Z"/><path d="m145.8,33.12c-.07.11-.16.22-.25.32l.16.22c.37-.45.88-.97.83-1.32-.23.28-.49.53-.74.78Z"/><path d="m113.04,4.08c-.16-.29-.86-.32-1.56-.33l.02.23c.52.03,1.03.06,1.54.11Z"/><path d="m121.99,6.93c.1.04.19.09.28.13l.29-.04c-.12-.04-.26-.1-.35-.11-.09-.01-.15.02-.22.03Z"/><path d="m144.76,18.14l.77.79c-.04-.15-.03-.31-.15-.45-.36-.41-.45-.3-.62-.34Z"/><path d="m118.62,5.59l-.42-.3c-.75.03-.2.16.42.3Z"/><path d="m111.5,3.97c-.26-.02-.64-.1-.65,0,0,.02.18.09.28.1.44.05.33-.04.37-.1Z"/><path d="m123.77,6.9l.15-.32c-.64-.06-.71.04-.15.32Z"/><path d="m136.02,11.73c.02-.05-.05-.09-.11-.13-.02.05.05.09.11.13Z"/><path d="m145.03,34.37l.09.12c.2-.27.39-.55.58-.83-.21.24-.43.48-.67.71Z"/><path d="m120.08,5.78l.1.07s-.07-.05-.1-.07Z"/><path d="m111.24,3.72l-.12-.14c-.43.01-.35.06.12.14Z"/><path d="m82.91,1.73c-.61.26-1.53.5-.88.98.28.21.61.4,1.21.47.89.1,1.01-.17,1.14-.41-.45-.33-.66-.65-.24-.97.19-.15.16-.3-.37-.36-.64-.07-.75.12-.86.3Z"/><path d="m123.6,8.93c-1.26-.36-.97.16-1.17.4.45.18,1.13.26,1.08.64-.03.19.34.54.77.62.44.08.89,0,1.1-.12.35-.21-.5-.35-.72-.52-.43-.33-.71-.68-1.05-1.02Z"/><path d="m99.07,4.37c.72,1.06,2.38.97,3.93,1.06-1.02-.7-2.24-1.16-3.93-1.06Z"/><path d="m97.87,4.25l.5.03c.09-.04.15-.1.28-.12.95-.09,1.61-.24.73-.82-.23-.15-.9-.36-.81-.16.2.48-2.85.21-.69,1.07Z"/><path d="m87.24,3.34l1.38.22c.04-.26,1.23-.51,0-.76-.91-.18-1.57.08-1.39.53Z"/><path d="m93.83,3.66l1.47.71c0-.23.85-.35.17-.64-.54-.23-1.16-.22-1.65-.07Z"/><path d="m120.45,8.92c-.25-.16-.38-.29-.54-.34-.17-.05-.36-.03-.54-.03.13.1.23.23.38.29.16.06.37.05.7.08Z"/><path d="m96.33,4.52l1.35.06c.07-.02.13-.03.2-.05l-.03-.2c-.61-.02-1.47-.23-1.52.19Z"/><path d="m86.01,3.26c.38.19.76.38,1.2.09l-1.2-.09Z"/><path d="m117.38,9c-.12-.08-.19-.07-.26-.06.04.03.09.06.26.06Z"/><path d="m33.24,49.18c.54.09,1.14.26,1.51.11.35-.48,1.88.23,2.59.02.26-.08.98.61,1.42.29.26-.2-.5-.55-.95-.83-.47-.29-.85-.4-1.58-.34-.92.07-1.97.02-2.62-.7-.39-.44-1.28-.38-1.8-.38-.91.02-.25.32.22.58.74.42,1.47.85,1.22,1.25Z"/><path d="m51.75,50.18c-.06.16.06.36-.39.43-.13.2-1.32.1-.77.47.19.13.65.3.96.32,1.04.06.39-.33.63-.49.14-.09.24-.19.44-.26.39-.13,1.48-.11,1.09-.37-.44-.3-1.26.02-1.97-.11Z"/><path d="m48.17,50.46c-.1-.04-.19-.09-.29-.13l-.3.12c.12.03.26.09.36.09.09,0,.15-.06.22-.09Z"/><path d="m24.28,46.62l-.47-.15c.15.05.31.1.47.15Z"/><path d="m79.96,2.97c-.1-.07-.13-.16-.78-.08.09.07.4.08.78.08Z"/><path d="m5.18,36.37c.25.24.49.48.75.71.16-.16.2-.56.49-.42.51.24.96.46.99.14.02-.16-.24-.31-.37-.33-.48-.09-1.49-1.13-1.55-.52-.02.2-.2.28-.31.42Z"/><path d="m3.55,33.8c.07.35-.12.53.34,1.1.06.08.33.18.36.12.12-.3-.39-.77-.7-1.22Z"/><path d="m2.47,22.74c-.09.12-.17.25-.26.38.12.07.19.22.53-.26l-.27-.12Z"/><path d="m9.94,39.1l.26-.18c-.47-.33-.49-.16-.62-.1.12.09.23.2.36.28Z"/><path d="m7.69,38.1v-.29c-.44-.19-.08.14,0,.29Z"/><path d="m96.46,3.1c-1.2-.16.22-.47-1.5-.6-.63-.03-1.07.02-1.4.1-.7.16-1.56.31-.28.59,2.01.45,2.12-.06,3.18-.09Z"/><path d="m88.3,3c.7,0,1.81.24,1.76-.07-.02-.11-.29-.3-1.09-.26-.77.03-1.9.14-1.94.24-.09.22.91.02,1.27.09Z"/><path d="m89.09,2.31c-.55-.13-.88-.26-1.28-.28-.5-.02-1.4-.03-1.44.14-.02.09.31.19.84.2.58,0,1.14-.04,1.88-.06Z"/><path d="m82.4,2.89c-.07-.06-.07-.14-.58-.13-.16,0-.24.08-.36.12h.94Z"/><path d="m91,2.78c-.16.03-.06.03.04.04l-.04-.04Z"/><path d="m83.33,2.99h-.22s-.22,0-.22,0c.15.05.29.05.44,0Z"/><path d="m64.53,2.75c-.12-.3-.63-.37-1.33-.23-.89.17-.51.47-.58.72.87-.01.86-.59,1.9-.48Z"/><path d="m75.7,1.22c.02.28-.26.63.93.68-.07-.24.17-.5-.39-.69h-.54Z"/><path d="m64.54,2.75l.11.07s-.08-.04-.11-.07Z"/><path d="m75.07,53l.89.05c-.16-.13.29-.38-.42-.38-.4,0-.5.18-.47.33Z"/><path d="m87.05,52.81c.8-.02,1.62-.04,1.59-.47-.59.13-1.25.22-1.59.47Z"/><path d="m51.53,3.9c.95-.31,1.92-.77,2.28-.02.16.34,1.38,0,2.1.02-.44-.37-.79-.75-1.33-1.08-1.15-.71-3.09-.53-4.54.41-.18.12-.26.27-.49.35-.86.31-.82.92.09,1.02q.38.04.53-.38c.07-.2,0-.44.67-.54.2-.03.46.15.7.23Z"/><path d="m44.36,5.45l.52-.08c.8-.8-.72-1.09-.79-1.7l-1.38.62c-.03.58,1.93.5,1.65,1.16Z"/><path d="m46.44,3.08c-.53.08-1.08.15-1.43.4.02.03.01.07.06.07.68.08.67.69,1.44.45,1.14-.35-.24-.57-.07-.92Z"/><path d="m49.1,3.21c.13-.08.29-.14.27-.17-.06-.09-.18-.17-.27-.25-.06.06-.16.13-.16.18,0,.08.09.15.16.24Z"/><path d="m56.05,1.77c-.33-.01-.66-.03-.71.18.31,0,.76.11.71-.18Z"/><path d="m54.68,2.01l-.19.12c.08-.04.17-.07.19-.12Z"/><path d="m17.44,42.54l-1.25-.56c-.66.45-2.68-.69-3.59-.63-.05.24-.38.42.63.94-.27-.51.54-.29,1.05-.15.62.17.77.54.9.81l1.28.62c2.72.45,2.78.3.97-1.04Z"/><path d="m15.18,42.96c-.13-.27-.29-.64-.9-.81-.51-.14-1.32-.37-1.05.15.7.34,1.49.91,1.95.66Z"/><path d="m21.69,45.41c-.96-1.28-1.69-.51-2.53-.76.88.7,1.72.75,2.53.76Z"/><path d="m24.29,46.62l-.48-.15c.11.21.27.26.48.15Z"/><path d="m26.62,9.79c.9-.28.87-.54.87-.8-.24-.3.26-.37.8-.42.19-.42-.14-.8,1.16-1.28.15-.52-1.27.06-1.55-.14-1.73,1.09-1.63,1.91-1.28,2.64Z"/><path d="m41.49,5.61l.59-.17c-.37-.09-.42.08-.59.17Z"/><path d="m125.7,45.22c-.18.2-.19.37-.21.54.94-.28,1.87-.63,2.8-.93.83-.3.77-.52.74-.72-.5.16-1.09.42-1.45.31l-1.87.81Z"/><path d="m128.29,44.83c-.93.31-1.85.65-2.79.93l.06.33c1.1-.29,2.19-.64,3.28-.95l-.55-.31Z"/><path d="m138.03,39.41c-.09-.12-.22-.24-.7,0-.22.1-.42.38-.64.58.39,0,.87-.3,1.34-.57Z"/><path d="m127.58,44.42c.36.1.96-.15,1.45-.31-.35-.1-.91.12-1.45.31Z"/><path d="m133.31,43.02c-.03-.08.35-.34-.08-.25-.05,0-.17.07-.2.11-.22.21-.03.22.28.15Z"/><path d="m9.23,17.71c.57-.62,1.87,0,1.98-1.38-.3-.7-1.57.61-2.31.98l.33.4Z"/><path d="m17.69,12.09l-.16.12s.1-.08.16-.12Z"/><path d="m8.9,17.31h-.13s.09,0,.13,0Z"/><path d="m145.03,34.37c.23-.23.46-.47.68-.71l-.16-.22c-.48.48-.65.77-.52.93Z"/><path d="m92.65,52.23c2.52.15,2.76-.44,2.7-1.11l-.6-.68c-1.87-.31-2.86.47-4.28.72-.13.61.03,1.15,2.18,1.07Z"/><path d="m115.8,47.7l.21-.02c-.02-.07-.1-.06-.21.02Z"/><path d="m111.14,48.51c.17.02.35.03.53.04,0,0,.08-.06.12-.09-.21.01-.42.03-.65.05Z"/><path d="m83.68,51.2l-.94-.14c.07.22.13.46.94.14Z"/><path d="m125.49,45.76l.04-.5c-.46.14-.97.29-.99.51-.02.22.44.14.95,0Z"/><path d="m23.7,10.35c-.01-.2-.06-.37-.55-.33.11.15-.02.42.55.33Z"/><path d="m21.13,10.22l.12.03s-.08-.02-.12-.03Z"/><path d="m24.87,9.21c-.14-.09-.19-.27-.44-.26-.33.02-.56.26-.43.33.25.13-.55.82.85.33v-.4Z"/><path d="m24.87,9.21v.4c.66-.32.56-.43,0-.4Z"/><path d="m1.03,26.84c-.04.07-.09.14-.13.22,0,.01,0,.19.03.2.05.02.09,0,.14,0-.03-.14-.03-.28-.04-.42Z"/><path d="m56.53,51.68l.2-.03c-.07,0-.15.01-.2.03Z"/><path d="m121.3,8.17l.77.1-.15-.17c-.22.01-.43.03-.62.07Z"/><path d="m2.39,21.83c-.12.12-.23.25-.35.38l.25-.02c.03-.12.06-.25.1-.37Z"/><path d="m2.28,22.19c.16-.17.33-.32.5-.47-.11-.03-.25.04-.4.11-.04.12-.07.24-.1.37Z"/><path d="m28.29,8.57c-.54.05-1.04.12-.8.42l.8-.42Z"/>
                  </g>
                </mask>
              </defs>
              <path class="mask" d="m136.87,15.07c-4.39-2.03-10.26-4.46-17.46-6.65-3.64-1.11-13.83-4.06-27.65-5.57-25.12-2.74-44.6,1.22-54.24,3.25-11.07,2.34-21.27,5.59-29.54,12.16-2.91,2.31-6.12,5.11-6.3,8.95-.23,5,4.7,8.91,6.63,10.44,16.84,13.35,56.81,14.14,56.81,14.14,8.13.16,57.64.83,77.02-14.7,2.26-1.81,7.18-5.86,7.07-11.16-.07-3.46-2.28-6.94-7.53-10.87-9.46-7.07-23.93-11.3-51.8-12.29-8.2-.29-20.28-.19-34.8,1.97"
                    mask="url(#path-mask)" stroke="black" stroke-width="2" fill="none"
                    stroke-dasharray="413.12664794921875" stroke-dashoffset="413.12664794921875">
              </path>
            </svg>
        