
            <svg xmlns="http://www.w3.org/2000/svg">
              <defs>
                <mask id="path-mask">
                  <g fill="white">
                    <path d="m91.92,6.03c-1.13-.17-.51.28-.78.42l-.76-.3c-.59-.36-1.31-.68-1.88-1.04-1.16-.77-3.62-1.05-4.73-.71-.7-.16-1.15-.15-1.48-.05-.91-.32-2.35-.17-3.03-.64-.17-.26-.98-.56-.25-.74.53-.11,1.09-.11,1.87.15.65.21,1.26.29,1.67.14l.63.1c.8-.01,1.72.88,2.44.37.24.06.69.16.69.16.72-.44,2.11.14,3.32.47l-.02.15c-.35-.01-.29.03.08.15.06,0,.13.02.19.04v.22c-.22-.04-.52-.15-.54-.05,0,.02.14.09.21.11.35.09.27-.02.32-.06l1.23.21c.1.02.2.04.3.07-.18.08-1.2-.07-.36.29.88.38,1.24.26,1.49.12.23-.16.64-.08,1.21.24-.04.32.88.48,1.47.71l-.06.08c-.62-.03-.18.14.29.33.59.43.75.15,1.17.29l.07.07-.08-.07c.1-.16-.07-.47,1.11.02.72.33,1.38.52,1.36.19l.75.26.5.61c-.4-.15-.6-.16-.68-.06-.52-.09-.6,0-.18.3.62.27.79.45.49.53-.14.04-.33.08.08.27.24.1.78.28.79.24.13-.49,1.76.25,2.53.28.16,0,.24-.03.36-.05l.17-.07c.71.38,1.45.77,2.16,1.15.72.37,1.41.76,2.15.96.37.11.75.48,1.02.73.47.49.87.69,1.28.74.83.65,1.65,1.29,2.42,2.01l-.06.16c-.07.23.25.62.75,1.01.39.3.38.07.48,0,1.37,1.09,2.72,2.29,3.77,3.93v-.09c.07-.01.06-.19.27.12.14.04.25.03.48.47-.39.01-.02.88.13,1.64.19.81.24,1.71.19,2.56-.05.85-.2,1.66-.31,2.37-.16.99-.46,1.61-.96,2.41-.32.48.07.36.17.47-1.03,1.58-2.29,2.89-3.56,4.12l-.19-.22c.14-.36-.04-.42-.29-.44-.44-.04-.21-.45.46-1.08l.47-.68c.32-.36.76-.75.71-1.07-.21.2-.43.4-.65.6-.18-.01-.63.26-.28-.31.36-.14.6-.39.7-.78.26-.31.51-.63.75-.96.68-.13,1.53-.8,2.2-1.82.04-.89-.02-2.07-.49-2.24.13-1.01.06-2.1-.47-3.03.13-.08.35-.04.36-.27.01-.33.7.69.28-.32-.31-.7-.46-.45-.57-.3-.06.07-.3.2-.28-.34-.04-1-.51-.49-.87-1.13-.01-.13.03-.27-.06-.4-.25-.36-.36-.27-.51-.29-.9-1.1-2.05-1.87-3.09-3-.54-.59-1.12-.53-1.45-.47-.94-.68-1.89-1.34-2.84-2-.99-.6-1.96-1.24-2.98-1.8.04-.07.15-.11.12-.2-.1-.28,1.08-.07,0-.65-.95-.51-.29.23-.51.31-.06.02-.39-.12-.6-.18-.92-.36-1.87-.75-2.82-1.16-.93-.44-1.89-.85-2.84-1.24-.55-.23-1.55-.31-1.87-.8-.2-.25-1.09-.78-2.1-1.26-1.01-.45-2.12-.87-2.69-.97Zm6.3,2.64l.25-.02c-.09-.05-.19-.12-.27-.14-.07-.02-.12,0-.19,0,.07.05.14.1.21.15Zm10.56,4.95s.08.07.12.11c.02-.05-.03-.08-.12-.11Z"/><path d="m81.4,2.75c2.68.37,5.16,1.39,7.69,2.22.01,1.13,1.83,1.08,2.83,1.59.1.38-.06.73,1.16.84.74.07,1.68.52,2.54.84.62.4-1.91.64.78,1.15.35.19.91.28.81.64-.05.18.21.53.55.61.35.08.74.02.93-.1.32-.19-.37-.35-.53-.51-.32-.33-.49-.67-.73-1.01.3-.14,1.13.38,1.24,0,.31.75,2.52.98,2.18,1.67-.17.33-1.11.36-1.63.63-.54.27-2.02-.26-3.15-.81-.51-.25-.94-.61-1.45-.84-.5-.22-1-.77-1.48-.62-.51.16.93.56.53.82-.9-.04-1.78-.24-2.63-.8.14-.61.05-1.15-1.55-1.1-1.18.04-2.26-1.21-3.48-.89l-.4-.09-.7-.4c-1.09-1-2.46-1.47-4.1-1.23-.77-.7-1.75-1.17-3.13-1.06l-.56-.09c.08-.04.13-.1.23-.11.78-.09,1.34-.25.65-.81-.18-.15-.71-.37-.65-.16.14.47-2.34.21-.66,1.13-.49-.02-1.19-.22-1.25.2l-.83-.16c0-.23.71-.34.18-.64-.43-.23-.94-.2-1.34-.06l-.53-.1c-1.08-.21-1.1-.63-1.2-1.05-.06-.24-.3-.45-.83-.52-.2-.02-.52.03-.59.11-.2.21.22.32.55.46,1.17.49-1.06.63-.05,1.11-.31.35-.97.24-1.6.17l.02-.27c.04-.26,1.02-.5.03-.76-.73-.16-1.28.12-1.17.57l-.97-.09-1.31-.49c-.36-.33-.53-.64-.18-.97.16-.15.13-.31-.3-.35-.52-.05-.61.14-.7.32l-.72-.22v-.58c.63.06,1.3.04,1.91.1.61.09,1.16.26,1.54.67.29.31.76.19.86-.1.07-.21,0-.45.54-.53,2.21-.3,4.47-.1,6.67.65,1.26.96,4.08,1.46,5.97,1.05Zm13.01,5.86c-.14-.05-.3-.03-.45-.04.09.1.16.23.28.29.13.06.3.05.57.09-.18-.16-.28-.29-.41-.34Z"/><path d="m32.09,49.51c1.03.04,1.43.45,1.9.85.23.2,0,.58.84.55.68-.03.57-.35.48-.63-.08-.27-.1-.53-.15-.8.79.08,1.58.18,2.38.24-.02.27-.35.6.74.67.82.06,1.18.26,1.12.62-.11.2-1.08.14-.64.49.16.12.53.29.78.3.85.05.32-.34.52-.5.11-.09.2-.2.36-.27.32-.14,1.21-.17.89-.41-.36-.29-1.02.08-1.6-.04l.05-.5c1.13.05,2.25.12,3.35.27,1.1.11,2.19.28,3.28.46-.37.55-.63,1.16-2.5.62-.31-.09-.81-.07-.95.13-.15.22.24.31.67.37.12.29.25.58.32.9l-.64.12.5.26c-1.54.27-2.96.07-4.25-.5-.32-.38-.95-.84-1.67-.58-1.41.5-3.66-.83-4.7.03-1.24-.49-2.63-.55-3.94-.91.19-.6-.79-.88-1.66-.94-.78-.05-1.2-.22-1.71-.53.34-.48,1.54.26,2.14.08.22-.07.76.6,1.14.29.23-.19-.37-.55-.72-.82-.36-.28-.65-.42-1.26-.37-.76.04-1.63.01-2.08-.74-.27-.44-1-.42-1.43-.43-.75-.01-.25.3.1.58.55.44,1.11.89.86,1.27l-.46.02c-.5-.9-1.97-1.08-3.09-1.63-.44-.2-1.56-.37-1-.87.13-.1-1.32-.48-1.44-.34-.23.3-.59.11-1.08-.13l-.36-.17c-.74-.2-1.64-.43-1.03-.9.52-.17.49-.17,0-.58-.22-.18-.49-.44-.49-.57,0-.43.92.19,1.19.05.99.5,2.23.56,2.81,1.58.15.27.9.31.88.23-.08-.3,1.37.16.48-.5.11-.14.23-.13.62.05,1.28.63,2.57,1.33,4.05,1.48-.18,1.33,1.72.75,2.6,1.08,1.08.26,1.98-.05,3.09.33-.33.28-1.27.64.71.74Zm4.48,1.31l-.25.13c.1.03.21.09.29.09.07,0,.12-.06.18-.09-.08-.04-.15-.08-.23-.12Z"/><path d="m54.23,2.74c-1.4.26-3.12.34-4.39.7-1.17-.06-2.89.4-4.24.59-.39.05-.53.09-.8.17-.83.23-.96.65-.03.54.98-.12,1.3-.1,1.57-.02.28.08.77.13,1.67-.21.1-.04.48-.12.64-.13,1.61-.14,3.14-.44,4.73-.58,3.65-.35,7.31-.55,10.97-.59v-.18c-.32,0-.57,0-.64-.08-.54.04-1.19.09-1.65.11-1.09.03-2.41.23-3.28.06-.52-.14-4.27-.04-5.02.13-.12.03-.25.07-.23.09.2.16-.51.15-.84.15-.39,0-.63-.04-.97-.05-.19,0-.78.12-.73.05.03-.04.37-.13.82-.2.96-.16,2.32-.27,2.42-.53Z"/><path d="m.02,26.84c.04.57.03,1.2.12,1.76.13.55.25,1.06.58,1.36-.03-.31.09-.73.02-.93-.13-.4-.25-.8-.24-1.18,0-.38.04-.73.31-1.01.42-.45.53.26.8.72.41.81.31,1.38.1,2.1-.09.44-.02,1.16.26,1.43.42.47.58.84.66,1.19.06.36.02.72.09,1.08.19.41.53.86.36,1.1-.04.05-.26-.05-.31-.13-.29-.53-.07-.68-.06-.97-.49-.21-.93-.48-1.4-.77-.32,1.13.68,1.99,1.4,2.76.2-.17.4-.22.89.35.13-.11.32-.17.39-.35.22-.54.84.46,1.27.56.11.03.31.18.25.32-.11.29-.45.06-.85-.19-.23-.14-.37.21-.55.34.44.16.89,1.29,1.35,1.03-.05-.15-.29-.47.07-.27l-.08.26c.31.5-.28.57.25,1.07.19.18.58.08.88.1.1-.12.26-.15.55.03.03-.05.05-.11.07-.16l-.26-.27c-.24-.65-1.33-2.2.64-.54.13.1.34,0,.51,0-.79-.74-1.79-1.4-1.98-2.5-.04-.12-1.25-.99-1.78-1.8-.31-.12-.51-.39-.81-.89-.4-.75-.65-1.59-.8-2.42-.09-.41-.17-.82-.23-1.23-.1-.4-.17-.8-.29-1.21.27-.32.27-.75.3-1.2.03-.44.06-.92.32-1.19.49-.53.76-.93.92-1.78.25-1.17.81-1.43,1.27-1.11.35-.5.71-1,1.11-1.48-.32-.16-.15-.71-.07-1.16-.92.34-1.92.79-.94-.97.13-.22-.09-.2-.32-.07-.27.82-1.41,1.4-1.57,2.15-.33,1.68-.69,1.06-1.11,1.06-.08.13-.15.26-.22.4.16.14.13.4-.1.87.21.17.13.51-.04.97l.28.08c-.19.44-.3.31-.43.27-.64.79-.92,2.3-1.55,2.42Z"/><path d="m76.55,2.72c-.51-.05-.87-.01-1.15.05-.58.14-1.28.28-.26.59,1.61.51,1.73-.02,2.59,0l1.54.36c.68.47,2.12.32,3.03.64l-.02.26c-.89-.2-1.97-.04-2.61-.36-.81-.4-1.71-.41-2.7-.48-3.94-.21-7.88-.42-11.85-.55-.07-.1-.07-.2.43-.26h.76s.39.1.39.1c.12.05.24.05.36,0,2.51,0,2.86-.07,1.92-.51-.03-.01-.04-.03-.05-.04-2.23.19-2.82-.57-5.01-.36-.91.08-2.11.15-2.37-.12.6-.03,1.26-.31,1.46-.19.38.23,1.01.08,1.62.06,2.18-.06,4.3,0,6.54.04,3.19.05,6.46.46,9.71.85.65.06,1.69.14,1.68.47-.41.15-1.02.07-1.67-.14-.79-.26-1.35-.26-1.87-.15-.82-.18-1.64-.4-2.48-.25Zm-4.01.35c-.01-.1-.23-.3-.88-.28-.63.02-1.55.12-1.58.22-.08.21.74.03,1.03.1.57,0,1.46.26,1.43-.05Zm-1.81-.93c-.41-.03-1.14-.04-1.18.13-.02.09.25.19.68.2.47.01.93-.03,1.53-.04-.44-.14-.71-.27-1.04-.29Zm2.37.79l.24.03-.03-.04c-.18-.01-.19,0-.21.01Z"/><path d="m59.9.23c-1,.13-1.78.13-2.91-.04-.82-.13-1.74-.1-2.69-.02-.95.07-1.92.2-2.84.32-.92.11-1.94-.05-2.77.38l.05.53c.23.22.79.55.18.71-1.79.47-1.44,1.38-2.62,1.97.66-.11,1.23-.29,1.73-.53.07-.01.12-.03.17-.07.04-.25-.28-.53.43-.73.56-.15.98-.09,1.09.2l.1.06-.09-.07c-.86-.08-.82.5-1.52.53-.04.03-.05.07-.04.1.85.48,1.75-.2,2.63-.17,1.06-.65,2.24-.73,3.45-.3.36.12.6.31.98-.04.59-.55,1.49-.38,2.34-.22,1.21-.42.65-.91.34-1.4-.08-.13-.34-.3.09-.39.37-.08.59.05.75.19l.44-.02c-.23-.41.95-.6.71-1.02Z"/><path d="m61.53,52.49c.81.22,1.65.39,2.7.04,1.29-.65,2.7-.87,4.27-.65.26-.26.79-.37,1.26-.53l.82.03c-.12-.15-.31-.44-.34-.43-1.45.31-2.51-.22-3.91,0-1.02.15-1.96.22-2.3-.31,0-.02-.11-.01-.17-.02l-.56.24c.23.61-.81.64-1.61.66-2.61.05-5.21.56-7.87.3-1.6-.15-1.68.01-.94-.68.22-.21.37-.44.55-.66-1.5.19-3.24-.16-4.46.53.28.06.56.14.85.16.48.03,1.18-.36,1.39.03.09.16-.67.45-1.16.63-.26.09-.75.07-1.13.07-.32,0-.67-.01-.83.14-.21.21.13.32.46.42.52.16.66.53,1.48.51,1.03.37,2.19.57,3.54.34,1.54-.57,3.34-.66,5.17-.74-.03-.14.03-.33.36-.35.58-.03.23.24.36.36.73-.56,1.47-1.24,2.06-.09Z"/><path d="m66.32,2.96l.39.09h.18s.18,0,.18,0c2.51,0,2.86-.07,1.92-.51-.03-.01-.04-.03-.05-.04-2.23.19-2.82-.57-5.01-.36-.91.08-2.11.15-2.37-.12-.65.16-1.83.17-2.32.38.64.1.03.36-.3.38-.96.05-.39-.16-.53-.26-.03-.02,0-.05,0-.07-.75-.14-1.99.19-2.83.16-.5.12-.95.16-1.35.12-.1.27-1.47.37-2.42.53-.46.08-.79.16-.82.2-.05.07.54-.05.73-.05.34.01.58.05.97.05.32,0,1.04.02.84-.15-.02-.02.11-.07.23-.09.75-.18,4.5-.28,5.02-.13.87.18,2.19-.03,3.28-.06.45-.01,1.1-.07,1.64-.11.53-.08.55,0,.63.08v.18s.79.01.79.01c-.07-.1-.07-.2.43-.26.1-.04.17-.11.3-.12.41-.02.41.07.47.13Z"/><path d="m42.83,4.46l-.06-.21c-.38-.36-.7-.74-1.16-1.05-.99-.68-2.57-.46-3.68.5-.14.12-.19.27-.37.36-.68.33-.59.93.16,1.01q.31.03.4-.39c.04-.2-.03-.43.5-.55.16-.04.39.14.59.22,1.04-.07,1.06.38,1.35.69-1.11.44-2.28.65-3.48.79.36-.67-.82-.54-1.44-.7l-.52.49-1.16.46s-.05-.09-.05-.14c.58-.8-.7-1.07-.81-1.67l.73-.2s.02.07.06.07c.57.06.61.67,1.22.42.9-.38-.25-.56-.14-.91l.35-.49c1.81-.35,3.62-.93,5.45-.95l.77-.15.1.36-.15.13.2-.11.48-.09c.25,0,.63.09.57-.19l.76-.31-.1.08-.13-.04c.6.3,1.93.05,2.4.67.22.28,1.82-.53,2.72-.9.15-.06.24-.16.35-.24.23.22.79.55.18.7-1.79.47-1.44,1.38-2.62,1.97-1.16.38-2.31.53-3.47.39Zm-5.47-.93c-.06-.09-.16-.16-.25-.24-.04.06-.12.13-.11.18.01.08.09.15.15.24.1-.08.22-.15.21-.18Z"/><path d="m3.59,35.69c-.48-.57-.68-.52-.89-.35.11.21.24.42.37.62l.35.43c.74,1.15,1.51,2.25,2.7,3.07.48.33,1.1.88,1.5,1.46.45.65,1.49,1.54,1.74,1.64,1.22.52,2.23,1.26,3.27,1.92.51.35,1,.73,1.49,1.1l1.51,1.07c.73.55,1.37.53,2.04.84,3.39,1.59,6.93,2.78,10.52,3.67.39.09.77.25,1.04.1.19-.6-.79-.88-1.66-.94-.78-.05-1.2-.22-1.71-.53-.32.15-.81-.02-1.24-.15l-.46.02c-.5-.9-1.97-1.08-3.09-1.63-.44-.2-1.56-.37-1-.87.13-.1-1.32-.48-1.44-.34-.23.3-.59.11-1.08-.13-.19.09-.32.03-.37-.18-.73-.19-1.63-.43-1.02-.89l-.53-.3c-.68-.06-1.39-.17-1.96-.94-.82-.05-1.78.04-2.03-1.25l-.91-.73c-.45.18-1.02-.4-1.5-.78-.72-.56-.4-.7-.3-.92-1.2-.2-1.9-1.07-2.36-2.12-.3-.02-.69.08-.88-.1-.52-.51.06-.57-.25-1.07-.45.27-.9-.87-1.34-1.02-.17-.22-.33-.46-.5-.69Z"/><path d="m26.48,5.7c-.63-.13-1.3-.13-1.99.46.55.12,1.09.27.66.78-.33.4-.8.06-1.22.32-.78-.34-1.01.12-1.29.55-.33.48-.72.73-1.2.4-1.01.52-.68.87-.73,1.27.31.3,1.19.11,1.71.23.82.08,1.75-.17,2.57-.63.62-.34,1.19-.55,1.85-.66.59-.41-.28-.83.85-1.18.85-.26.82.18,1.03.41l.74-.26c-.12-.23-.3-.46-.35-.71-.04-.16.3-.32.62-.41.29-.08.53-.04.4.13-.2.24-.81.59-.06.57.19,0,.72-.49,1.1-.75.12-.09.14-.27.45-.19l-.47.18c.47.62,1.39.23,2.34-.21.16-.66-1.43-.55-1.47-1.12-1.57.75-1.67.29-1.68-.26-.64.27-1.29.06-1.93.42.26.56-.32,1.3-1.47,1.56-1.6.4.35-.68-.28-.79-.09-.02-.12-.07-.18-.11Z"/><path d="m103.4,41.99c.19-.1.38-.21.57-.32l1-.79.39-.26-.1-.09c-.26.09-.42.09-.28-.12.02-.03.11-.1.15-.11.35-.1.07.16.12.24.58-.31.93-.67,1.06-1.03.4-1.14,1.99-1.5,2.07-1.34.24.51,1.08-.11,1.77-.45.63-.75,1.27-1.47,1.88-2.23.27-.34.91-.82.55-.89-.3-.06-.84.65-1.05.74-.67.25-1.07,1.45-1.75,1.21-.43.29-.93.65-1.16.46-.36.25-.72.54-1.05.56-.79.53-1.64.98-2.46,1.44-1.65.84-2.75,2.2-4.55,2.84l.16.33c.42-.22.83-.47,1.15-.39.07.19.16.4-.48.74l.52.26,1.5-.79Z"/><path d="m4.75,18.63c.23-.13.45-.15.32.07-.98,1.76.02,1.31.94.97l.47-.56-.39-.35-.12.02h.11c.58-.37,1.37-1.65,1.81-1.02.37-.4.86-.64,1.33-.91.46-.28.9-.6,1.22-1.17.09-.16.81-.48,1.02-.26l.96-.61c.14-.65,1.28-1.58.69-1.98-.03-.02.17-.21.26-.32,1.29.44.92-.87,1.61-1.06l-.09-.15c-2.24.2-2.19,1.25-2.44,2.13l-.1.12.11-.12c-.39.14-1.02.52-1.09.45-.93-.95-1.66.61-2.52,1.43-.91.87-1.79,2.01-2.97,2.4-.49.28-.77-.1-1.4.65l.25.27Z"/><path d="m64.63,1.73l-.72-.22c-1.78-.21-1.74-.79-1.53-1.43-.59-.23-.57.13-.86.19.51.86-.39,1.6-2,1.67.37.44.39.88,0,1.32.4.46.74.15,1.09,0-.23-.1-.29-.25.03-.26.43-.02.36.19.4.33.91.62,2.28.28,3.27.3,1.62.01,3.34.53,4.92.16l.02-.27-1.11-.19c-.39.31-.69.11-.99-.08l-1.31-.49c-.11.24-.21.51-.93.43-.48-.05-.75-.24-.98-.45-.52-.49.23-.71.73-.99Z"/><path d="m109.76,36.54c.68.25,1.07-.96,1.75-1.21.21-.09.75-.8,1.05-.74.37.07-.28.56-.55.89-.61.76-1.25,1.48-1.88,2.23h.44s.37-.29.37-.29c.76-1.13,2.14-2.03,3.15-3.1.14-.36-.04-.42-.29-.44-.44-.04-.21-.45.46-1.08l-.09-.12c-.13-.15,0-.41.41-.78.08-.08.15-.17.21-.26-.18-.01-.63.26-.28-.31l-.13-.08c-.77.76-1.61,1.47-2.48,2.15-.43.35-.84.71-1.25,1.08-.43.35-.84.71-1.24,1.1.49.05,1.23-.09.35.94Z"/><path d="m80.42,49.97c.46-.11.55.62,1.27-.07.54-.51,1.23-.08,1.81-.35.04-.7.89-.74,1.81-.69.78.04,1.36-.19,1.87-.54.52-.36.71-.68.04-.84-.82.15-1.62.08-2.46.41-2.63,1.01-2.94,1.06-5.23.94-.05,0-.16,0-.17.01-1,.85-2.86.23-3.91.99.16.29.23.61,1.03.64-.01-.23.17-.28.7-.34,1.13-.12,2.2-.17,3.24-.15Z"/><path d="m109.76,36.54c.88-1.03.14-.89-.35-.94-.77.41-1.43.47-2.18,1.54-.27.4-.83.76-1.47,1.11-.64.37-1.36.72-1.97,1.08-1.61,1.02-3.36,2.05-5.21,2.67-.81.26-1.31.51-1.05.89.26.37.89.07,1.56-.33l1.44-.73c1.8-.64,2.9-2,4.55-2.84.82-.46,1.67-.91,2.46-1.44.15-.19.28-.45.44-.56.37-.23.5-.11.6,0,.23.18.73-.17,1.16-.46Z"/><path d="m12.47,13.43c.24-.88.2-1.94,2.44-2.13.43-.33.86-.67,1.31-.98.32-.31.67-.63.44-.84-.9-.07-1.63.73-2.36,1.15-2.77,1.65-5.58,3.38-7.76,5.85-.58.65-.55.85-.64,1.24,1.18-.39,2.06-1.53,2.97-2.4.86-.82,1.59-2.38,2.52-1.43.07.07.7-.31,1.08-.45Z"/><path d="m53.42,50.48c-.18.22-.33.44-.55.66-.74.7-.66.54.94.68,2.66.25,5.26-.25,7.87-.3.79-.02,1.84-.04,1.61-.66-1.53-.52-3.12-.3-4.86.15-1.13.29-2.01.19-1.82-.5-1.13.35-2.1-.11-3.18-.03Z"/><path d="m75.44,49.82c1.05-.75,2.91-.14,3.91-.99.01-.01.12-.01.17-.01,2.29.12,2.6.07,5.23-.94.84-.33,1.64-.26,2.46-.41-.47-.47-.96-.92-2.35-.9l-.91.54c-.29.43-.85.52-1.65.61-.97.12-2.13.39-2.97.51-1.69.23-3.1,1.07-4.77.96l.54.65c.11-.02.22-.03.32-.03Z"/><path d="m94.68,44.36c-.29.67-.52,1.28,1.43.58.63-.23.32.12.32.27-.84.68-1.98.91-2.74.94-1.94.07-2.19.62-2.42,1.33l-.37.14c-1.33.05-3.24.31-1.62-.97.29-.23.22-.52.31-.78.97-.23,1.96-.56,2.93-.86.64-.19,1.1-.38,1.05-.72.36-.11.73-.22,1.09-.35,0,.14.07.27,0,.42Zm-2.96,1.51s-.11.02-.19.1c.06,0,.11-.02.19-.1Z"/><path d="m98.67,9.02c.31.75,2.52.98,2.18,1.67-.17.33-1.11.36-1.63.63-.54.27-2.02-.26-3.15-.81-.51-.25-.94-.61-1.45-.84-.5-.22-1-.77-1.48-.62-.51.16.93.56.53.82,1.45,1.27,3.86,1.43,5.34,2.76.46.41.58-.13,1.05.01.52.01-1.26-1.15.38-.57.77-.26,2.29.16,2.42-.6-.3-.21-.72-.44-.88-.64-.4-.51.02-1.35-1.71-1.25,0,0-.11-.11-.24-.24-.13-.14-.3-.29-.44-.39-.82-.57-1.71-.91-2.59-.96-.04.8,1.26.56,1.67,1.02Z"/><path d="m102.25,13.53c.42.23.68.48.81.76.32.7,1.22,1.46,2.18,1.64.85.16,1.73.13,2.08-.26.64-.72-.08-1.57-2.21-2.58-.52-.24-1.02-.81-1.54-1.23-.83.04-.79.57-.25,1.17.55.61,1.27.76,1.92.73.24-.01,1.15.28.89.57-.23.25.09.77-.36.88-.28.07-.49.23-1.05-.03-.58-.28-.73-.59-.69-.83.05-.25.06-.48-.59-.79-.63-.31-1.03-.32-1.17-.03Z"/><path d="m74.57,49.2c1.67.11,3.07-.74,4.77-.96.84-.11,2-.39,2.97-.51.8-.09,1.36-.18,1.65-.61-1.52-.58-3.43.29-5.1.57-2.49.4-4.98,1.2-7.49,1l-.17.26c.4.22,1.72.34-.21.73-.63.12-.95.47.16.42,1.14-.29,1.87-1.14,3.42-.89Z"/><path d="m4.99,22.31c-.46-.32-1.02-.06-1.27,1.11-.16.85-.43,1.25-.92,1.78-.26.27-.29.74-.32,1.19-.03.45-.03.88-.3,1.2.12.41.19.81.29,1.21.06.41.14.81.23,1.23.15.83.4,1.67.8,2.42.3.5.5.77.81.89-.39-1.57-.96-3.01-1.23-4.64-.17-1.03-.16-2.16.39-3.17.44-.86.83-2.14,1.52-3.2Z"/><path d="m75.45,4.45l-.83-.16-1.16-.7-.53-.1-1.78.18c.89,1.07,2.93,1.04,4.36,1.34,2.84.56,5.75.93,8.6,1.58h.81c-1.09-.99-2.46-1.46-4.1-1.22-1.26-.09-2.61-.02-3.13-1.06l-.56-.09-.41-.03c-.02.14-.01.2-.01.27l.09.16-.26-.12-1.09-.05Z"/><path d="m117.69,25.54c.13-1.01.06-2.1-.47-3.03-.32-.77-.71-1.47-.9-2.13-.34-.48-.55-.7-.73-.93-.9-1.1-2.05-1.87-3.09-3-.54-.59-1.12-.53-1.45-.47,1.66,1.33,3.24,2.75,4.48,4.35,1.25,1.59,2.02,3.42,1.91,5.33l.25-.12Z"/><path d="m96.44,45.21c-.84.68-1.98.91-2.74.94-1.94.07-2.19.62-2.42,1.33,3.03-.71,6.04-1.61,8.63-3.36.62-.43,1.19-.33,1.71-.65.71-.44,1.93-.9,1.78-1.49l-1.5.79c-.85.38-1.7.77-2.56,1.11-.95.47-1.92.9-2.9,1.32Z"/><path d="m96.64,7.28c.1-.16-.07-.47,1.11.02.72.33,1.38.52,1.36.19-2.97-1.41-6.08-2.6-9.45-3.13l-.02.15.08.15c.06,0,.13.02.19.04.57.07,1.13.15,1.23.44.1.02.2.04.3.07.38.14.76.26,1.13.41.23-.16.64-.08,1.21.24.66.23,1.45.19,1.98.62.18.14-.17.15-.51.1l-.06.08.29.33c.59.43.75.15,1.16.29Z"/><path d="m90.91,47.62c-1.33.05-3.24.31-1.62-.97.29-.23.22-.52.31-.78-.57.08-.43-.15-.5-.28l-.74.21c.32.3-.62.67-.57.99l.52-.04s-.1.08-.1.08c-.15-.01-.29-.02-.44-.04-.72-.07-.38-.49-.58-.73-.85-.24-1.63-.14-2.34.48,1.39-.02,1.88.43,2.35.9.67.16.48.48-.04.84-.5.35-1.09.59-1.87.54-.92-.05-1.77-.01-1.81.69,1.98-.31,3.91-1.07,5.89-1.23.39-.03.68-.12.9-.24.28-.13.43-.28.62-.45Z"/><path d="m71.15,50.09c-1.11.05-.79-.29-.16-.42,1.92-.39.61-.51.21-.73-.28.38-.93.21-1.38.32.08.22-.23.57-.53.52-1.48-.27-2.39.57-3.64.64-.63.35-.69.12-.77-.1-.7-.21-.84.06-1.01.3.06,0,.16,0,.17.02.33.53,1.28.46,2.3.31,1.4-.23,2.46.3,3.91,0,.04,0,.22.28.34.43l1.58.11.84.07.02-.5c-1.75.18-1.92-.36-1.87-.97Z"/><path d="m50.04,52.97c-.82.02-.96-.35-1.48-.51-.33-.1-.67-.21-.46-.42.16-.16.51-.14.83-.14.39,0,.87.02,1.13-.07.48-.17,1.24-.47,1.16-.63-.22-.39-.91,0-1.39-.03-.3-.02-.57-.09-.85-.16-.37-.29-.71-.02-1.06,0-.59.13-1.23.32-1.06.62.66,1.18-1.19,1.14-2.86,1.16.19.26,1.06.19,1.12.51,1.37-.12,2.66.21,4.05.19.99-.05.78-.29.89-.52Z"/><path d="m65.64,50.42c1.25-.07,2.17-.91,3.64-.64.3.05.61-.31.53-.52-2.48.27-4.94.6-7.41.92-1.24.17-2.56.16-3.8.12-.75-.02-1.35.07-2,.2-.18.69.7.79,1.82.5,1.75-.45,3.33-.67,4.86-.15l.56-.24c.17-.24.31-.52,1.01-.3l.77.1Z"/><path d="m96.44,45.21c.98-.42,1.95-.85,2.9-1.32l-.11-.32c-.4.17-.76.29-.79.07-.02-.21.37-.39.73-.56.06-.21,0-.37-.06-.53-.67.39-1.3.69-1.56.33-.99.22-1.92.6-2.86,1.05,0,.14.07.27,0,.42-.29.67-.52,1.28,1.43.58.63-.23.32.12.32.27Z"/><path d="m16.22,10.31c-.45.32-.88.66-1.31.98l.09.16.11.02-.11-.02c-.7.19-.32,1.5-1.61,1.06-.09.11-.29.31-.26.32.59.4-.55,1.33-.69,1.98.18.12.45-.11.71-.27.18-.46.76-.76,1.25-1.07.42-.12.27-.89.73-.58.47.33.92-.3,1.32-.39.42-.65.8-.6,1.15-.42.39-.12.96-.02.98-.56l.03-.33c-.49.08-.82-.06-1.42.25-.46.1-.4-.16-.52-.3-2.01.73-.06-.7-.44-.84Z"/><path d="m90.39,6.15c-.59-.36-1.31-.68-1.88-1.04-1.16-.77-3.62-1.05-4.73-.71.95.17,2.01.36,1.27.62.9.22,1.8.44,2.68.66.89.2,1.77.36,2.65.46Z"/><path d="m16.66,11.15c-2.01.73-.06-.7-.44-.84.32-.31.67-.63.44-.84,1.07-.61,2.08-1.61,3.37-1.43.06.01.09.04.09.09-1.27,1.15-1.04,1.92-.63,2.63l-.89.44c-.49.08-.82-.06-1.42.25-.05-.19-.12-.36-.52-.3Zm.86-1.1c-.27.04-.42.29-.3.34.23.11-.3.83.77.27.51-.34.41-.43-.06-.39-.13-.08-.21-.26-.41-.23Z"/><path d="m1.31,32.59c-.17-.38.06-.82-.38-1.16-.95-.81-.38-1.11-.22-1.47-.03-.31.09-.73.02-.93-.13-.4-.25-.8-.24-1.18,0-.38.04-.73.31-1.01.42-.45.53.26.8.72.41.81.31,1.38.1,2.1-.09.44-.02,1.16.26,1.43.42.47.58.84.66,1.19.06.36.02.72.09,1.08-.48-.21-.93-.48-1.4-.76Zm-.36-4.87s.02.15.04.16c.04.02.09,0,.14-.01l-.07-.33c-.04.06-.08.11-.11.18Z"/><path d="m103.91,9.8c.71.38,1.45.77,2.16,1.15.72.37,1.41.76,2.15.96.37.11.75.48,1.02.73.47.49.87.69,1.28.74-.89-1.15-2.45-1.84-3.82-2.58-.92-.44-1.75-.96-2.59-1.47-.85-.49-1.75-.92-2.73-1.22-.28-.09-.62-.24-.79-.18.29.38.88.76,1.68.94.96.23,1.33.54,1.63.95Z"/><path d="m102.25,13.53c.14-.28.54-.27,1.17.03.65.31.64.54.59.79-.05.24.1.55.69.83.56.27.77.1,1.05.03.45-.11.14-.62.36-.88.26-.29-.65-.58-.89-.57-.65.03-1.37-.12-1.92-.73-.54-.6-.58-1.14.25-1.17-.18-.23-.38-.42-.7-.38-.13.76-1.65.34-2.42.6.3.32.56.65.46.89l1.34.55Z"/><path d="m6.56,38.57c.46,1.05,1.16,1.92,2.36,2.12.8,0,2.23,1.24,2.9.89l.24-.56c-.42-.55-.93-.86-1.52-1.02-.14.03-.04.31-.4.1l.11-.33c-.06-.1-.15-.19-.26-.26-1.27-.95-1.68,0-2.89-.9-.3-.18-.45-.14-.55-.03Z"/><path d="m110.57,37.71h-.44c-.69.35-1.53.97-1.77.45-.08-.15-1.66.2-2.07,1.34-.13.36-.48.72-1.06,1.03.05.02.08.05.11.08l.22.42c.89-.43,1.78-.88,2.65-1.39.84-.55,1.67-1.13,2.35-1.94Z"/><path d="m118.64,20.99c-.39.01-.02.88.13,1.64.19.81.24,1.71.19,2.56-.05.85-.2,1.66-.31,2.37-.16.99-.46,1.61-.96,2.41-.32.48.07.36.17.47.61-.84,1.17-1.76,1.51-2.81.34-1.05.46-2.23.22-3.38-.19-.99-.44-2.24-.94-3.25Z"/><path d="m6.48,19.11l-.47.56c-.08.45-.25,1,.07,1.16,1.41-1.24,2.62-2.99,4.43-3.82.74-.31.48-1.02.95-1.59-.21-.22-.93.09-1.02.26-.32.57-.76.89-1.22,1.17-.47.27-.96.51-1.33.91.21,1.24-1.05.77-1.42,1.35Z"/><path d="m15.62,45.31l.53.3c.51-.17.49-.17,0-.58-.22-.18-.49-.44-.49-.57,0-.43.92.19,1.19.05l-.55-.71c-.35-.24-.71-.46-1.05-.72l-2.54-.84c1.2,1.4,1.11,1.56-1.08.88.25,1.29,1.21,1.2,2.03,1.25.65.34,1.41-.32,1.96.94Z"/><path d="m43.99,52.79c1.67-.02,3.52.02,2.86-1.16-.17-.3.47-.5,1.06-.62-.17-.6-1.01-.13-1.51-.21-.37.55-.63,1.16-2.5.62-.31-.09-.81-.07-.95.13-.15.22.24.31.65.36l.18-.03-.16.04.38.88Z"/><path d="m20.03,8.05c.06.01.09.04.09.09.27.18,1.37-.43,1.32.07.48.33.87.08,1.2-.4.28-.43.51-.88,1.29-.55.42-.26.89.08,1.22-.32.43-.51-.11-.66-.66-.78-1.56.45-3.4.6-4.46,1.88Z"/><path d="m43.27,1.85c.6.3,1.93.05,2.4.67.22.28,1.82-.53,2.72-.9.15-.06.24-.16.35-.24l-.05-.53c-1.48-.25-2.73.62-4.16.61-.34.07-.68.16-1.02.24-.13.03-.21.08-.24.14Z"/><path d="m96.71,8.26c-.2-.25-1.09-.78-2.1-1.26-1.01-.45-2.12-.87-2.69-.97-1.13-.17-.51.28-.78.42.7.13,1.43.22,2.02.63.13.09.59.27.62.27.99-.12,1.96.63,2.92.91Z"/><path d="m98.67,9.02c-.41-.46-1.71-.21-1.67-1.02-.39-.54-.99-.59-1.57-.67-1.08.14-2.37-.67-3.51-.77.1.38-.06.73,1.16.84.74.07,1.68.52,2.52.81l.55-.03.1.17-.63-.11c.62.4-1.91.64.78,1.15.2-.23.04-.75,1.04-.37.3-.14,1.13.38,1.24,0Z"/><path d="m117.89,20.4c.07-.01.06-.19.27.12-1.27-2.31-3.07-4.45-5.22-5.14l-.06.16c.42.32.83.67,1.23,1.01,1.37,1.09,2.71,2.29,3.77,3.84Z"/><path d="m91.91,6.57c1.15.1,2.44.91,3.51.77.11-.62-.89-.5-1.3-.71-1.56-.83-3.32-1.28-5.04-1.66.01,1.13,1.83,1.08,2.83,1.59Z"/><path d="m63.92.92c.62.06,1.29.04,1.9.1.61.09,1.16.26,1.54.67.29.31.76.19.86-.1.07-.21,0-.45.54-.53.23-.58-.84-.5-1.39-.57-1.25-.18-2.52-.22-3.79-.29.09.24-.24.51.35.72Z"/><path d="m57.57,2.85c-.86-.15-1.75-.33-2.34.22-.38.35-.62.16-.98.04-1.21-.43-2.4-.35-3.45.3,1.14.42,2.5.23,3.83.13.98-.1,1.96-.2,2.94-.27v-.41Z"/><path d="m31.38,48.77c-.33.28-1.27.64.71.74,1.03.04,1.43.45,1.9.85.23.2,0,.58.84.55.68-.03.57-.35.48-.63-.08-.27-.1-.53-.15-.8-1.27-.18-2.52-.48-3.78-.71Z"/><path d="m30.34,4.63c0,.55.11,1.01,1.68.26l1.07-.64.73-.2c.27-.25.72-.33,1.14-.42l.35-.49c-.05-.36-.54-.14-.94,0-1.36.47-2.7.98-4.03,1.49Z"/><path d="m16.3,43.8l.55.71c.99.5,2.23.56,2.81,1.58.15.27.9.31.88.23-.08-.3,1.37.16.48-.5-1.63-.55-3.01-1.9-4.72-2.02Z"/><path d="m31.16,6.22c-.38.26-.91.74-1.1.75-.75.01-.13-.33.06-.57.13-.16-.11-.2-.4-.13-.33.09-.66.25-.62.41.06.25.23.47.35.71,1.49.11,3.03-.42,4.55-.89l-.06-.45s-.05-.09-.05-.14l-.42.09c-.95.45-1.86.83-2.33.22Z"/><path d="m7.11,38.6c1.21.91,1.61-.05,2.89.9-.34-.87-.69-1.66-1.93-1.88-.17,0-.38.11-.51,0-1.96-1.66-.88-.11-.64.54.13-.04.2-.21.53.12l-.27.15c-.02.06-.04.11-.07.16Z"/><path d="m39.54,52.7c-.32-.38-.95-.84-1.67-.58-1.41.5-3.66-.83-4.7.03,2.14.45,4.28.62,6.38.55Z"/><path d="m72.15,51.48l-1.58-.11-.82-.03c.06.43-.61.48-1.26.53-1.57-.22-2.97,0-4.27.65.15.17.58.3.85.22,2.25-.68,4.92-.33,7.07-1.26Z"/><path d="m91.04,9.08c.14-.61.05-1.15-1.55-1.1-1.18.04-2.26-1.21-3.48-.89,1.3,1.27,3.29,1.4,5.03,1.99Z"/><path d="m115.97,29.61c.68-.13,1.53-.8,2.2-1.82-.52.05-.64-.65-.84-1.39-.38.62-.42,1.25-.65,1.9.17.5-.38.91-.71,1.3Z"/><path d="m75.43,1.71c1.26.96,4.08,1.46,5.97,1.05-1.61-.73-3.39-.76-5.09-1.04-.11.37-.5.16-.88,0Z"/><path d="m1.72,24.08c.17-.46.24-.8.03-.9-.12.14-.23.3-.34.45l-.23.04.23-.36c.11-.08.23-.14.35-.21.22-.47.26-.72.1-.87-.43.67-.91,1.29-1.28,2.03-.37.73-.64,1.61-.55,2.57.63-.12.91-1.63,1.55-2.42l.15-.34Z"/><path d="m58.75,52.57c-1.82.08-3.63.17-5.17.74.62.29,1.21.42,2.11.06,1.14-.46,2.6-.14,3.87-.4l-.1-.38c-.24,0-.48,0-.72-.01Z"/><path d="m59.51,1.93c1.61-.07,2.51-.81,2-1.67l-1.61-.04c.24.42-.94.6-.71,1.02.46.2.27.46.31.69Z"/><path d="m12.72,42.24l2.54.84c-.94-.97-1.89-1.78-3.18-2.06l-.24.56.89.66Z"/><path d="m19.49,10.76l-.89.44-.03.33c1.36-.51,2.79-.83,3.85-1.82-.51-.13-1.4.07-1.71-.23-.23.18-.43.32-.62.47.04.26.11.5-.59.81Z"/><path d="m57.57,2.85v.41c.64,0,1.29-.04,1.93-.02.4-.43.38-.87,0-1.32-.96-.05-.73-.38-.75-.67-.15-.14-.37-.27-.75-.19-.44.09-.17.26-.09.39.31.48.87.98-.34,1.4Z"/><path d="m4.75,18.63l-.25-.27c-.97.99-2.42,1.98-2.43,3.48.42,0,.78.62,1.11-1.06.16-.75,1.3-1.33,1.57-2.15Z"/><path d="m73.02,51.06l-.02.5c1.58.11,2.9-.46,4.27-.88l-.79-.22c-.8-.03-.87-.35-1.03-.64-.11,0-.21.01-.32.03.11.66-.04,1.26-2.1,1.21Z"/><path d="m89.61,45.88c.97-.23,1.96-.56,2.93-.86.64-.19,1.1-.38,1.05-.72-1.42.05-2.74.9-4.11,1.09.04.16.07.33.13.49Z"/><path d="m76.47,50.46l.79.22c1.15.02,2.39.22,3.16-.71-1.04-.03-2.11.02-3.24.15-.53.06-.71.12-.7.34Z"/><path d="m26.48,5.7c.06.04.09.1.18.11.63.11-1.32,1.19.28.79,1.15-.27,1.74-1,1.47-1.56-.7.11-1.5.03-1.93.66Z"/><path d="m103.91,9.8c-.29-.41-.66-.72-1.63-.95-.8-.18-1.4-.56-1.68-.94-.27-.08-.6-.23-.74-.16l.5.61c1.1.58,2.26.98,3.38,1.51l.17-.07Z"/><path d="m85.05,5.02c.74-.26-.32-.45-1.27-.62-.7-.16-1.16-.15-1.48-.05l-.02.26c.91.09,1.83.16,2.77.41Z"/><path d="m114.1,34.33c-1.01,1.06-2.39,1.96-3.15,3.1,1.39-.61,2.24-1.92,3.34-2.87l-.19-.22Z"/><path d="m25.69,47.36c-.18,1.33,1.72.75,2.6,1.08,0-.27.36-.55-.79-.69-.58-.07-1.2-.25-1.81-.4Z"/><path d="m28.72,7.65c-.21-.22-.18-.67-1.03-.41-1.14.36-.27.77-.85,1.18,1.04.19,1.26-.51,1.89-.78Z"/><path d="m71.15,3.67l1.78-.18c-1.08-.21-1.09-.63-1.2-1.05-.06-.24-.3-.45-.83-.52-.2-.02-.52.03-.59.11-.2.21.22.32.55.46,1.17.49-1.06.63-.05,1.11.11.04.22.06.34.08Z"/><path d="m83.19,3.36c.8-.01,1.72.88,2.44.37-.26-.42-.26-.46-2.44-.37Z"/><path d="m39.21,4.33c1.04-.07,1.06.38,1.35.69.79-.12,1.7-.03,2.27-.56l-.06-.21c-.59,0-1.55.36-1.71.02-.35-.74-1.11-.27-1.85.06Z"/><path d="m37.07,5.81c.36-.67-.82-.54-1.44-.7l-.52.49-.3.83c.8-.1,1.39-.68,2.26-.61Z"/><path d="m39.72,50.58l.05-.5c-.71-.22-1.41-.44-2.23-.35-.02.27-.35.6.74.67.82.06,1.18.26,1.11.62.37-.09.28-.28.32-.44Z"/><path d="m117.34,26.4c.2.74.31,1.44.84,1.39.04-.89-.02-2.07-.49-2.24l-.25.12c-.02.25-.04.49-.1.74Z"/><path d="m63.92.92c-.58-.21-.26-.48-.35-.72l-1.2-.13c-.21.63-.25,1.22,1.53,1.43v-.58Z"/><path d="m59.47,52.58l.1.38c.77-.04,1.42-.19,1.96-.48-.59-1.15-1.32-.47-2.06.09Z"/><path d="m105.22,12.19c.04-.07.15-.11.12-.2-.1-.28,1.08-.07,0-.65-.95-.51-.29.23-.51.31-.06.02-.39-.12-.6-.18.16.25.29.51.98.73Z"/><path d="m115.97,29.61c.34-.4.88-.8.71-1.3-.14.22-.3.44-.46.65-.14.26-.32.46-.49.51-.26.42-.53.84-.84,1.25l.33-.14c.26-.31.51-.63.75-.96Z"/><path d="m58.41,2.45s-.03.05,0,.07c.14.1-.43.31.53.26.33-.02.93-.28.3-.38l-.83.05Z"/><path d="m87.8,46.81c-.05-.32.89-.69.57-.99l-1.17.28c.2.24-.14.65.59.72Z"/><path d="m100.91,12.98c.09-.25-.16-.57-.46-.89-1.64-.59.14.58-.38.57.04.08.13.13.25.17l.47.21c.11.02.14.02.12-.05Z"/><path d="m42.74,2.12l.76-.31c-.41-.34-1.35-.06-1.98-.14l.02.36.1.36c.21-.02.38-.05.54-.08.03-.21.3-.2.57-.19Z"/><path d="m45.1,53.3c-.05-.32-.93-.25-1.17-.48l-.64.12.5.26c.42.13.85.17,1.31.1Z"/><path d="m17.59,12.09c-.35-.18-.73-.23-1.15.42.37,0,.7.35,1.15-.42Z"/><path d="m104.97,40.88l-1,.79c.16.4.71-.05,1.22-.41l-.22-.38Z"/><path d="m14.39,13.47c-.48.31-1.07.61-1.25,1.07.9-.14,1.12-.58,1.25-1.07Z"/><path d="m54.24,2.74c.4.04.85,0,1.35-.12-.43.02-.71-.19-1.35.12Z"/><path d="m115.22,30.57l-.33.14c-.16.19-.33.37-.51.56l.13.08c.36-.14.6-.39.7-.78Z"/><path d="m48.16,3.58s0-.07.04-.1c-.05.03-.11.05-.18.06l-.06.41.2-.37Z"/><path d="m115.73,29.46c.17-.05.35-.25.49-.51-.19-.13-.35.04-.49.51Z"/><path d="m61.02,3.31c-.04-.14.03-.35-.4-.33-.32.02-.26.16-.03.26l.43.06Z"/><path d="m41.54,2.04l-.02-.36c-.4.13-.65.3-.75.51l.77-.15Z"/><path d="m43.51,1.71c.34-.08.68-.17,1.02-.24-.47-.17-.82-.09-1.02.24Z"/><path d="m89.59,45.87l-.1-.49c-.26.03-.38.1-.37.21.07.13-.08.36.47.27Z"/><path d="m10.26,39.76l-.11.33c.36.22.26-.07.4-.1-.08-.1-.17-.18-.29-.23Z"/><path d="m75.43,1.71c.38.16.77.37.88,0-.35-.11-.7-.22-.88,0Z"/><path d="m103.73,9.88c-1.12-.53-2.28-.93-3.38-1.51-.4-.15-.61-.16-.68-.06l-.18.3c.62.27.79.45.49.53-.14.04-.33.08.08.27.24.1.78.28.79.24.13-.49,1.76.25,2.53.28.16,0,.24-.03.36-.05Z"/><path d="m79.03,2.97c-.82-.18-1.64-.4-2.48-.25,1.4.16.21.44,1.18.63l1.54.36c-.17-.26-.98-.56-.25-.74Z"/><path d="m116.32,20.38c.19.66.59,1.36.9,2.13.13-.08.35-.04.36-.27.01-.33.7.69.28-.32-.31-.7-.46-.45-.57-.3-.06.07-.3.2-.28-.34-.04-1-.51-.49-.7-.9Z"/><path d="m92.57,5.62c-.37-.15-.75-.28-1.13-.41-.18.08-1.2-.07-.36.29.88.38,1.24.26,1.49.12Z"/><path d="m95.25,6.58c.35.05.69.04.51-.1-.53-.43-1.32-.38-1.98-.62-.03.32.88.48,1.47.71Z"/><path d="m114.12,16.56c-.41-.35-.81-.69-1.23-1.01-.07.23.25.62.75,1.01.39.3.38.07.48,0Z"/><path d="m114.79,31.65c-.06.09-.13.17-.21.26l.16.22c.31-.36.75-.75.7-1.07-.21.2-.43.4-.65.6Z"/><path d="m91.14,5.14c-.09-.29-.66-.36-1.23-.44v.22c.4.07.81.14,1.23.21Z"/><path d="m98.02,8.52c.07.05.14.1.21.15l.25-.02c-.09-.05-.19-.12-.27-.14-.07-.02-.12,0-.19,0Z"/><path d="m115.58,19.46c.19.23.38.46.56.69-.01-.13.03-.27-.06-.4-.25-.36-.36-.27-.51-.29Z"/><path d="m95.48,7l-.29-.33c-.62-.03-.18.14.29.33Z"/><path d="m89.9,4.93c-.21-.04-.51-.15-.53-.05,0,.02.14.09.21.11.35.09.27-.02.32-.07Z"/><path d="m99.49,8.61l.18-.3c-.52-.09-.6,0-.18.3Z"/><path d="m108.91,13.73s-.03-.08-.07-.12c-.02.05.03.08.07.12Z"/><path d="m114.18,32.69l.09.12.47-.68c-.18.18-.36.38-.56.56Z"/><path d="m96.65,7.28l.07.07s-.05-.05-.07-.07Z"/><path d="m89.72,4.66l-.08-.15c-.35-.01-.29.03.08.15Z"/><path d="m64.63,1.73c-.5.28-1.25.5-.73.99.22.21.49.4.98.45.72.08.82-.19.93-.43-.36-.33-.53-.64-.18-.97.16-.15.13-.31-.3-.35-.52-.05-.61.14-.7.32Z"/><path d="m97.43,9.02c-1-.38-.83.14-1.04.37.35.19.91.28.81.64-.05.18.21.53.55.61.35.08.74.02.93-.1.32-.19-.37-.35-.53-.51-.32-.33-.49-.67-.73-1.01Z"/><path d="m77.69,4.31c.52,1.04,1.87.97,3.13,1.06-.77-.7-1.75-1.17-3.13-1.06Z"/><path d="m76.72,4.18l.41.03c.08-.04.13-.1.23-.11.78-.09,1.34-.25.65-.81-.18-.15-.71-.37-.65-.16.14.47-2.34.21-.63,1.06Z"/><path d="m68.11,3.3l1.11.19c.04-.26,1.02-.5.03-.76-.73-.16-1.28.12-1.15.56Z"/><path d="m73.46,3.59l1.16.7c0-.23.71-.34.18-.64-.43-.23-.94-.2-1.34-.06Z"/><path d="m94.81,8.96c-.18-.16-.28-.29-.41-.34-.14-.05-.3-.03-.45-.04.09.1.16.23.28.29.13.06.3.05.57.09Z"/><path d="m75.45,4.45l1.09.05.17-.05v-.2c-.51-.02-1.2-.22-1.26.19Z"/><path d="m67.12,3.22c.31.19.61.39.97.09l-.97-.09Z"/><path d="m92.26,8.99c-.09-.08-.15-.07-.21-.07.03.03.06.06.21.07Z"/><path d="m24.61,49.63c.43.12.92.3,1.24.15.34-.48,1.54.26,2.14.08.22-.07.76.6,1.14.29.23-.19-.37-.55-.72-.82-.36-.28-.65-.42-1.26-.37-.76.04-1.63.01-2.08-.74-.27-.44-1-.42-1.43-.43-.75-.01-.25.3.1.58.55.44,1.11.89.86,1.27Z"/><path d="m39.72,50.58c-.05.16.05.35-.32.44-.11.2-1.08.14-.64.49.16.12.53.29.78.3.85.05.32-.34.52-.5.11-.09.2-.2.36-.27.32-.14,1.21-.17.89-.41-.36-.29-1.02.08-1.6-.04Z"/><path d="m36.8,50.95c-.08-.04-.15-.08-.23-.12l-.25.13c.1.03.21.09.29.09.07,0,.12-.06.18-.09Z"/><path d="m17.54,46.68l-.36-.17c.12.05.25.11.36.17Z"/><path d="m64.34,3.02c-.08-.07-.11-.16-.63-.08.07.07.33.08.63.08Z"/><path d="m3.59,35.69c.17.23.32.47.5.69.18-.13.32-.48.55-.34.41.24.74.48.85.19.06-.14-.14-.29-.25-.32-.42-.1-1.05-1.1-1.27-.56-.07.18-.26.24-.39.35Z"/><path d="m2.71,33.35c-.01.3-.23.44.06.97.04.07.27.18.31.13.17-.24-.17-.69-.36-1.1Z"/><path d="m1.72,24.08l-.15.34c.13.05.24.17.43-.27l-.28-.08Z"/><path d="m7.18,38.44l.27-.15c-.33-.33-.4-.16-.53-.12l.26.27Z"/><path d="m5.43,37.41l.08-.26c-.36-.2-.12.12-.08.26Z"/><path d="m77.73,3.35c-.97-.19.21-.47-1.18-.63-.51-.05-.87-.01-1.15.05-.58.14-1.28.28-.26.59,1.61.51,1.73-.02,2.59,0Z"/><path d="m71.11,3.12c.57,0,1.46.26,1.43-.05-.01-.1-.23-.3-.88-.28-.63.02-1.55.12-1.58.22-.08.21.74.03,1.03.1Z"/><path d="m71.76,2.43c-.44-.14-.71-.27-1.04-.29-.41-.03-1.14-.04-1.18.13-.02.09.25.19.68.2.47.01.93-.03,1.53-.04Z"/><path d="m66.32,2.96c-.05-.06-.05-.15-.47-.13-.13,0-.2.08-.3.12h.76Z"/><path d="m73.31,2.91c-.13.02-.05.03.03.04l-.03-.04Z"/><path d="m67.07,3.06h-.18s-.18,0-.18,0c.12.05.24.05.36,0Z"/><path d="m49.71,2.95c-.11-.29-.53-.35-1.09-.2-.71.2-.39.48-.43.73.7-.03.67-.61,1.52-.53Z"/><path d="m58.75,1.26c.02.29-.2.62.77.68-.06-.24.14-.5-.33-.69l-.44.02Z"/><path d="m49.72,2.94l.09.07s-.07-.04-.09-.07Z"/><path d="m58.75,52.57h.73c-.14-.11.21-.38-.36-.35-.33.02-.4.21-.36.35Z"/><path d="m68.5,51.87c.65-.05,1.32-.11,1.26-.53-.47.16-1,.27-1.26.53Z"/><path d="m39.21,4.33c.75-.33,1.51-.8,1.85-.06.16.34,1.12-.03,1.71-.02-.38-.36-.7-.74-1.16-1.05-.99-.68-2.57-.46-3.68.5-.14.12-.19.27-.37.36-.68.33-.59.93.16,1.01q.31.03.4-.39c.04-.2-.03-.43.5-.55.16-.04.39.14.59.22Z"/><path d="m33.49,6.01l.42-.09c.58-.8-.7-1.07-.81-1.67l-1.07.64c.03.57,1.63.47,1.47,1.12Z"/><path d="m34.97,3.63c-.43.09-.87.17-1.14.42.02.02.02.07.06.07.57.06.61.67,1.22.42.9-.38-.25-.56-.14-.91Z"/><path d="m37.16,3.7c.1-.08.22-.15.21-.18-.06-.09-.16-.16-.25-.24-.04.06-.12.13-.11.18.01.08.09.15.15.24Z"/><path d="m42.74,2.12c-.27,0-.55-.02-.57.19.25,0,.63.09.57-.19Z"/><path d="m41.64,2.39l-.15.13c.07-.04.13-.07.15-.13Z"/><path d="m12.72,42.24l-.89-.66c-.67.35-2.1-.89-2.9-.89-.1.22-.42.36.3.92-.08-.51.52-.21.93-.04.49.21.53.56.57.82l.91.73c2.19.68,2.28.52,1.08-.88Z"/><path d="m10.72,42.39c-.04-.27-.08-.61-.57-.82-.41-.17-1.01-.47-.93.04.48.38,1.05.96,1.5.78Z"/><path d="m15.62,45.31c-.54-1.26-1.31-.6-1.96-.94.57.77,1.27.88,1.96.94Z"/><path d="m17.55,46.68l-.38-.18c.05.2.18.27.38.18Z"/><path d="m19.49,10.76c.7-.31.63-.55.59-.81-.25-.28.16-.37.59-.45.09-.42-.25-.78.77-1.29.05-.5-1.05.1-1.32-.07-1.27,1.15-1.04,1.92-.63,2.63Z"/><path d="m31.15,6.22l.47-.18c-.31-.08-.34.09-.47.18Z"/><path d="m99.29,43.05c-.11.21-.09.37-.07.53.73-.33,1.44-.71,2.15-1.06.63-.34.55-.55.48-.74-.39.18-.83.47-1.15.39l-1.41.88Z"/><path d="m101.37,42.52c-.72.35-1.42.73-2.15,1.06l.11.32c.86-.35,1.71-.74,2.56-1.11l-.52-.26Z"/><path d="m108.6,37c-.1-.11-.24-.23-.6,0-.17.1-.3.37-.44.56.33-.01.69-.31,1.05-.56Z"/><path d="m100.7,42.16c.33.08.76-.21,1.15-.39-.32-.08-.73.18-1.15.39Z"/><path d="m105.24,40.54c-.04-.08.23-.34-.12-.24-.04.01-.13.08-.15.11-.14.21.01.21.27.13Z"/><path d="m6.48,19.11c.37-.58,1.63-.11,1.42-1.35-.44-.63-1.22.65-1.8,1l.39.35Z"/><path d="m12.48,13.43l-.11.12s.07-.08.11-.12Z"/><path d="m6.09,18.76h-.11s.08,0,.11,0Z"/><path d="m114.18,32.69l.57-.56-.16-.22c-.41.38-.54.63-.41.78Z"/><path d="m73.02,51.06c2.06.05,2.21-.55,2.1-1.21l-.54-.65c-1.55-.25-2.28.6-3.42.89-.06.61.12,1.15,1.87.97Z"/><path d="m91.53,45.98l.17-.03c-.03-.07-.09-.05-.17.03Z"/><path d="m87.79,46.82c.14.01.29.02.44.04,0,0,.06-.06.1-.08-.17.02-.35.03-.53.05Z"/><path d="m65.64,50.42l-.77-.1c.08.22.14.45.77.1Z"/><path d="m99.22,43.58l-.06-.49c-.35.16-.75.34-.73.56.02.22.39.11.78-.07Z"/><path d="m17.18,11.45c-.05-.19-.12-.36-.52-.3.12.14.06.4.52.3Z"/><path d="m15,11.45l.11.02s-.07-.01-.11-.02Z"/><path d="m17.94,10.28c-.13-.08-.21-.26-.41-.23-.27.04-.42.29-.3.34.23.11-.3.83.77.27l-.06-.39Z"/><path d="m17.94,10.28l.06.39c.5-.34.41-.43-.06-.39Z"/><path d="m1.07,27.54c-.04.06-.08.11-.11.18,0,0,.02.15.04.16.04.02.09,0,.14-.01l-.07-.33Z"/><path d="m43.61,51.91l.16-.04c-.06,0-.12.02-.16.04Z"/><path d="m95.61,8.24l.63.11-.1-.17c-.18,0-.37.02-.53.06Z"/><path d="m1.4,23.64c.11-.16.22-.31.34-.45-.11,0-.23.06-.34.13v.32Z"/><path d="m20.67,9.5c-.43.08-.84.17-.59.45l.59-.45Z"/>
                  </g>
                </mask>
              </defs>
              <path class="mask" d="m107.62,15.2c-3.36-2.04-7.86-4.47-13.4-6.67-2.81-1.12-10.66-4.08-21.39-5.61C53.32.15,38,4.06,30.41,6.08c-8.71,2.32-16.77,5.55-23.44,12.09-4.04,3.96-5.05,6.68-5.21,8.93-.46,6.46,5.92,11.63,8.56,13.77,23.18,18.79,69.82,7.88,79.63,5.58,0,0,12.85-3.01,23.44-12.84,2.8-2.6,5.02-5.29,4.99-8.59-.03-3.67-2.84-6.77-6.99-9.83-13.8-10.18-31.61-11.96-40.01-12.36-6.39-.3-15.82-.22-27.21,1.92"
                    mask="url(#path-mask)" stroke="black" stroke-width="2" fill="none"
                    stroke-dasharray="335.9451599121094" stroke-dashoffset="335.9451599121094">
              </path>
            </svg>
        