
            <svg xmlns="http://www.w3.org/2000/svg">
              <defs>
                <mask id="path-mask">
                  <g fill="white">
                    <path d="m274.05,62.59c2.39-.7.78-.66,1.21-1l1.76-.31c1.48-.11,3.17-.4,4.58-.5,1.46-.08,3.46-.6,5.35-1.21,1.88-.66,3.65-1.42,4.62-2.11,1.5-.45,2.41-.86,2.96-1.28,2.03-.55,4.75-2.05,6.39-2.33.51.07,2.3-.47,1.02.45-.93.67-2.01,1.23-3.75,1.75-1.43.43-2.69.89-3.38,1.44-.43.17-.87.33-1.31.47-.79.35-1.81.53-2.76.75-.95.21-1.84.46-2.37,1.02-.52.15-1.48.43-1.5.43-1.12,1.01-4.28,1.63-6.97,2.24l-.09-.16c.71-.27.55-.27-.28-.07-.13.04-.27.09-.42.12l-.15-.23c.45-.13,1.12-.28,1.09-.39,0-.02-.35.02-.51.06-.77.21-.53.24-.59.33l-2.62.77c-.21.06-.43.12-.66.17.3-.22,2.44-.87.48-.56-2.06.33-2.7.69-3.06,1.03-.33.33-1.19.58-2.59.72-.21-.33-2.15.19-3.53.44l.04-.13c1.25-.46.23-.28-.88-.08-1.55.04-1.62.43-2.56.62h-.2s.22,0,.22,0c-.05.23.57.4-2.18.82-1.72.24-3.16.57-2.81.87l-1.69.33-1.56-.19c.92-.16,1.32-.3,1.37-.45,1.09-.31,1.15-.46.05-.42-1.47.21-1.98.17-1.49-.13.23-.14.55-.32-.42-.19-.57.08-1.79.36-1.77.4.27.56-3.63,1.14-5.1,1.69-.3.11-.42.22-.62.33l-.25.2c-3.49.51-7.18.78-10.27,1.59-.78.2-1.91.19-2.71.19-1.44,0-2.4.17-3.15.47-2.26.15-4.52.3-6.78.41l-.14-.17c-.21-.24-1.3-.26-2.67-.11-1.06.11-.69.28-.76.42-3.75.42-7.5.81-11.44,1.12l.16.05c-.05.08.26.15-.48.22-.21.12-.28.25-1.24.3.31-.42-1.57-.39-3.11-.38-3.31.04-7.14,0-10.02.37-1.99.25-3.34.32-5.29.39-1.18.03-.52.3-.61.46-3.78.15-7.57.28-11.35.37v-.32c.75-.2.57-.37.2-.57-.64-.34.32-.52,2.34-.55l1.78-.2c1.07-.04,2.35-.01,2.81-.29l-1.96-.04c-.25-.15-1.41-.28.08-.45.79.16,1.58.16,2.39-.06l2.82-.08c1.17.5,3.47.75,5.99.97,1.76-.41,4.33-.77,4.68-1.3,2.47-.04,4.94-.08,7.43-.37.07.17-.19.39.29.48.65.12-1.93.54.43.41,1.63-.09,1.3-.32,1.11-.51-.09-.09-.12-.4.96-.16,1.98.42,1.52-.3,3.2-.32.26.06.45.18.79.17.97-.04.95-.2,1.21-.32,3.16-.17,6.21-.68,9.58-.71,1.75-.02,2.64-.54,3.13-.87,5.15-.48,10.29-1.01,15.42-1.64,0,.09-.15.21.03.27.5.17-1.91.89.75.58,2.36-.3.27-.43.59-.68.09-.07.87-.21,1.33-.31,4.29-.86,8.97-1.51,13.44-2.23,1.3-.22,3.36-.91,4.46-.7,1.25.2,9.05-.83,11.47-1.59Zm-14.85,2.36l-.47.21c.22-.02.49-.04.66-.08.17-.04.24-.1.35-.15-.19,0-.37.02-.55.02Zm-25.49,3.94c-.1,0-.23.01-.35.02.02.06.16.04.35-.02Z"/><path d="m279.31,3.98c5.81.28,11.5,1.05,17.24,1.61.67,1.11,4.44.89,6.82,1.27.45.36.35.73,2.95.67,1.57-.03,3.81.26,5.81.43.79.14-.07.38-.4.59-.32.24-.1.31,2.84.5.84.18,2.06.33,2.08.72.01.2.75.61,1.49.77.75.16,1.5.2,1.82.12.54-.14-.93-.52-1.35-.74-.84-.44-1.42-.85-2.14-1.24.54-.16,2.59.59,2.59.21.55.47,1.99.93,3.22,1.46,1.24.52,2.27,1.09,2.08,1.42-.18.32-2.04-.12-2.93.02-.92.09-4.11-1.04-6.74-1.57-1.18-.26-2.29-.56-3.55-.7-1.2-.14-2.63-.6-3.54-.39-.97.23,2.35.42,1.7.73-1.93.09-3.94,0-6.12-.45-.11-.62-.64-1.12-4-.92-2.5.14-5.52-1.01-7.96-.57l-.92-.06-1.72-.34c-2.86-.89-5.99-1.26-9.44-.98-1.98-.67-4.25-1.06-7.22-.91l-1.25-.07c.15-.04.25-.1.47-.12,1.68-.11,2.8-.29,1.12-.81-.44-.14-1.66-.34-1.47-.14.46.47-5.01.26-1.04,1.12-1.08,0-2.66-.2-2.67.21l-1.87-.14c-.05-.22,1.46-.35.2-.63-1-.22-2.1-.2-2.94-.06l-1.18-.1c-2.42-.23-2.55-.63-2.87-1.04-.19-.24-.75-.45-1.91-.51-.43-.02-1.12.03-1.26.1-.4.21.54.32,1.28.45,2.66.48-2.19.61.11,1.09-.6.35-2.1.23-3.5.17v-.26c.03-.25,2.14-.49-.07-.74-1.63-.19-2.8.07-2.49.52l-2.15-.12-2.95-.53c-.82-.34-1.22-.67-.49-.97.33-.14.26-.29-.68-.37-1.14-.09-1.32.11-1.51.28l-1.59-.25v-.58c2.7.15,5.77.09,7.54.92.68.32,1.68.22,1.86-.06.13-.2-.07-.45,1.08-.5,4.73-.26,9.57-.05,14.51.68,2.97.96,9.26,1.29,13.09.82Zm30.61,4.55c-.32-.03-.64.02-.95.03.26.08.49.2.79.24.3.04.67,0,1.25,0-.5-.13-.79-.24-1.08-.27Z"/><path d="m2.86,34.76c-.27,1.01-.37,1.74-.47,2.37-.05.32-.11.61-.13.9-.04.29-.08.58-.07.87.01.58-.61.39.29,2.03.81,1.26.93.76,1.03.4.1-.35.26-.59.43-.87.77,1.39,1.86,2.65,3.09,3.79-.17.21-.91.1.89,1.62,1.39,1.11,1.98,1.7,1.71,1.97-.3.08-2.02-1.2-1.38-.3.23.31.84.93,1.31,1.24,1.58,1.03.74.04,1.18.11.25.04.45.03.79.15.65.22,2.35,1.14,1.85.56-.58-.65-1.96-1.04-2.97-1.81l.3-.43c4.11,2.7,8.39,4.98,12.66,7.21-.94.19-1.72.62-5.24-1.64-.58-.38-1.58-.86-1.93-.79-.38.07.35.53,1.18,1,.14.4.28.81.31,1.19l-1.32-.49.9.73c-3.16-1.17-5.91-2.84-8.1-4.94-.45-.74-1.41-1.94-2.81-2.7-1.36-.73-2.87-2.32-3.98-4.1-1.15-1.77-1.75-3.72-2.36-4.85-.05-1.75.35-3.53,1.06-5.08.71-1.56,1.72-2.89,2.83-4.01.37.51,2.08-1.05,3.54-2.3,1.29-1.14,2.18-1.6,3.38-2.1-.04.37-.78.81-1.56,1.33-.78.52-1.65,1.12-2.02,1.62-.27.36-1.82.9-2.03,1.68-.13.46,1.09-.4,1.92-.78.84-.41,1.42-.79,2.36-1.66.58-.56,1.28-1.06,2-1.5.36-.21.73-.4,1.1-.55.39-.12.77-.21,1.16-.23.91-.07,2.16-.99,2.94-1.44,1.35-.84.13-.47-.79-.24-1.44.36-2.84.82-2.81.27l.77-.58c1.8-.11,4.61-1.59,7.17-2.46.98-.36,3.19-1.35,2.74-.47-.11.2,2.88-1.08,2.93-1.26.07-.42.91-.66,2.05-1l.83-.25c1.52-.57,3.32-1.34,2.86-.45-.68.62-.65.6.71.35.59-.11,1.4-.19,1.55-.12.54.26-1.84.76-2.14,1.14-2.35.7-4.69,1.86-6.89,1.82-.56,0-1.96.76-1.84.78.49.11-2.66,1.3-.32.81-.03.2-.27.31-1.2.61-2.98,1.03-6.08,1.94-8.75,3.74-1.05-1.01-3.7,1.74-5.34,2.92-1.89,1.47-2.84,3.02-4.12,4.9-.05-.33.1-.92-.02-1.01-.06-.04-.18.05-.42.38-.21.34-.56.92-.82,1.9Zm2.03,9.09l-.46-.27c.13.18.27.4.4.53.12.12.22.14.34.2-.1-.16-.19-.31-.28-.46Z"/><path d="m313.44,13.56c-2.68-1.65-5.93-3.67-8.65-4.66-2.14-1.43-5.85-2.68-8.64-3.8-.8-.32-1.11-.42-1.7-.58-1.82-.49-2.47-.01-.55.74,2.02.81,2.6,1.18,3.05,1.56.46.39,1.37.96,3.39,1.46.22.05,1.02.36,1.34.52,3.17,1.55,6.28,2.96,9.23,4.81,3.37,2.13,6.6,4.57,9.09,7.63,1.23,1.53,2.25,3.23,2.9,5.06.14.46.29.92.38,1.4l.24,1.43c.03.48.03.96.04,1.45,0,.48-.09.96-.13,1.44h.22c.06-.65.17-1.18.23-1.33-.05-.59-.02-1.24-.14-1.85-.13-.61-.19-1.2-.33-1.66-.55-2.31-2.25-4.67-3.21-6.28-.28-.49-1.71-2.35-3.52-3.96-1.79-1.63-3.84-3.05-4.57-3.46-.25-.13-.52-.25-.5-.2.19.44-1.04-.5-1.63-.9-.68-.51-1.11-.83-1.71-1.27-.35-.24-1.54-.8-1.39-.82.1-.02.8.28,1.71.74,1.91.97,4.42,2.66,4.84,2.54Z"/><path d="m85.15,6.04c-2.09.38-4.59.61-5.9,1.28.61-.02,1.4.02,1.82-.07,1.6-.35,3.1-.75,4.35-.43,1.02.26-.32.64-1.28,1.02-1.69.68-3.06.63-4.51.51-.91-.08-2.4.04-3.1.29-2.39.87-3.56.53-5.06.47-.94.11-2.12.36-2.4.1-.06-.05.35-.25.53-.28,1.24-.16,1.31.09,1.87.17l2.51-1.32c-1.85-.51-4.05.29-6.15.78.09.25,0,.5-1.54.78.05.17-.06.38.19.52.75.4-1.79.72-2.51,1.09-.2.1-.71.24-.89.13-.36-.23.47-.48,1.39-.79.52-.18.07-.45.05-.68-.8.39-3.26.37-3.42.92.32.01,1.17-.09.37.18l-.34-.19c-1.24.09-.57-.51-2.08-.23-.53.1-.9.54-1.35.82.05.15-.11.32-.82.52.05.05.1.1.16.15l.8-.12c1.38.06,5.59-.34-.02.88-.37.08-.5.33-.74.5,2.43-.43,4.93-1.14,7.23-.94.28.02,3.48-.95,5.67-1.29.57-.31,1.31-.47,2.62-.68,3.85-.64,7.94-.69,11.57-1.7,1.55.38,4.14-.58,5.75-.45,1.57.13,2.82.09,4.69-.41,2.55-.66,3.71-.5,3.83.08l4.27-.5c-.23-.34.92-.69,1.75-1.04-2-.28-4.09-.54.02-1.41.53-.11.16-.23-.38-.26-1.64.54-4.15.26-5.53.73-3.18,1.07-2.61.28-3.08-.01l-.91.11c-.06.22-.54.39-1.57.51-.09.29-.77.45-1.78.59l.11.29c-1,.09-.85-.09-.87-.23-1.98-.06-4.92.21-5.31-.41Z"/><path d="m306.85,51.83c.98-.56,1.64-1.01,2.08-1.42.93-.87,2.08-1.87,0-.86-3.3,1.48-3.16,2.06-4.79,3.02-1.05.48-2.14.86-3.21,1.29-1.63.28-4.36,1.78-6.39,2.33l-.14-.28c.94-.34,1.92-.76,2.84-1.19.92-.43,1.78-.8,2.52-.97,1.85-.45,3.59-1.35,5.5-2.42,3.78-2.08,7.27-4.61,10.48-7.49,1.6-1.43,3.09-2.98,4.36-4.68,1.26-1.7,2.35-3.55,2.96-5.56.08-.05.14-.07.17.05.03.13,0,.4-.15.91-.19.52-.38,1.04-.64,1.52l-.47.72c-.17.2-.32.41-.39.67-1.39,2.33-2.45,3.5-2.77,4.03-.33.53,0,.39.88-.25.05-.04.08-.04.12-.06,1.47-1.99,2.4-3.24,3.23-4.59.82-1.33,1.59-2.83,1.73-5.36.15-2.12-.55-4.8-.43-5.44.47,1.3.94,2.86.85,3.34-.13.46-.15,1.05-.14,1.7-.08.65-.08,1.38-.22,2.08-.48,2.51-1.59,4.79-2.99,6.82-1.42,2.02-3.09,3.84-4.93,5.53-1.32,1.21-2.66,2.34-4.13,3.4-.73.54-1.46,1.08-2.23,1.55-.76.49-1.52.99-2.32,1.42-3.14,1.81-6.43,3.34-9.75,4.72-1.31.58-3.42,1.44-3.65,1.13.69-.55,1.95-1.01,3.38-1.44,1.73-.51,2.82-1.08,3.75-1.75,1.73-.64,3.45-1.38,4.9-2.48Zm6.83-5.5c.1.07.64-.06,1.68-1.03,1.01-.94,2.35-2.45,2.29-2.61-.07-.28-1.15,1.14-1.68,1.51-.89.87-2.6,1.91-2.29,2.13Zm3.76-1.92c.68-.61,1.81-1.81,1.69-1.99-.06-.1-.55.25-1.22.95-.73.73-1.42,1.47-2.41,2.38.83-.54,1.4-.84,1.93-1.34Zm-4.58,2.83l-.43.3h.08c.31-.23.32-.26.35-.3Z"/><path d="m232.49,1.16c-2.17.07-3.85-.06-6.28-.31-3.53-.38-7.95-.3-11.97-.35-2.01,0-4.16-.29-6.05,0l-.03.54c.44.26,1.57.67.21.74-4.02.2-3.5,1.19-6.28,1.57,1.48.01,2.79-.08,3.95-.25.15,0,.28-.02.38-.04.16-.24-.47-.58,1.14-.67,1.26-.07,2.16.05,2.34.36l.21.08-.19-.08c-1.86-.21-1.93.38-3.47.31-.1.03-.14.06-.12.09,1.76.6,3.92.08,5.85.2,2.47-.54,5.08-.4,7.69.14.78.17,1.29.38,2.18.07,1.37-.47,3.33-.23,5.21,0,2.72-.31,1.49-.85.85-1.37-.17-.13-.73-.33.23-.38.82-.04,1.29.12,1.61.27l.96.03c-.49-.43,2.09-.52,1.57-.96Z"/><path d="m54.5,65.84c1.64.59,3.36,1.16,5.74,1.3,3,0,6.1.4,9.35,1.28.66-.13,1.84-.01,2.91.03l1.74.37c-.19-.19-.47-.53-.55-.54-3.22-.32-5.28-1.26-8.36-1.68-2.25-.3-4.28-.67-4.79-1.33-.02-.02-.24-.06-.36-.1-.43-.01-.86-.02-1.3-.03.26.69-1.98.22-3.68-.15-5.59-1.22-11.32-2.1-16.84-3.97-3.33-1.12-3.53-1.08-1.75-1.24.54-.07.93-.19,1.38-.29-3.22-.77-6.75-2.25-9.46-2.57.56.27,1.1.56,1.7.8.99.39,2.57.49,2.88,1.02.13.22-1.55-.03-2.62-.21-.57-.1-1.56-.51-2.36-.79-.67-.22-1.37-.55-1.75-.52-.5.03.15.41.8.78,1.02.56,1.19,1.02,2.89,1.63,2.03,1.1,4.38,2.07,7.31,2.68,3.44.4,7.29,1.34,11.19,2.2-.02-.16.19-.3.9-.14,1.24.28.4.35.64.54,1.76-.18,3.58-.45,4.41.93Z"/><path d="m322.43,36.09l-.47.72c-.06.11-.13.22-.19.33l-.2.33c-1.39,2.33-2.45,3.5-2.77,4.03-.33.53,0,.39.88-.25.05-.04.08-.04.12-.06,1.47-1.99,2.4-3.24,3.23-4.59.82-1.33,1.59-2.83,1.73-5.36.15-2.12-.55-4.8-.43-5.44-.33-.7-.75-1.68-1.27-2.54-.5-.87-1.08-1.63-1.5-2.02.66,1.27-.35.28-.8-.29-1.35-1.66-.35-.8-.43-1.13-.02-.07.05-.04.07-.05-.88-1.46-3.17-3.19-4.54-4.41-.96-.62-1.77-1.21-2.42-1.79-.44.12-2.94-1.57-4.85-2.54-.91-.47-1.61-.77-1.71-.74-.15.02,1.04.58,1.39.82.6.44,1.02.76,1.71,1.27.59.4,1.83,1.34,1.63.9-.02-.05.25.06.5.2.73.41,2.79,1.83,4.57,3.46,1.8,1.62,3.24,3.48,3.52,3.96.96,1.61,2.66,3.97,3.21,6.28.14.47.2,1.06.33,1.66.12.61.09,1.26.14,1.84,0,1.15-.14,1.19-.23,1.35h-.22c-.04.53-.25,1.05-.36,1.59.08-.05.14-.07.17.05.03.13,0,.4-.15.91-.03.21,0,.39-.09.65-.31.85-.45.79-.55.87Z"/><path d="m194.35,3.15l-.05-.22c-.7-.43-1.25-.87-2.13-1.28-1.87-.89-5.32-.99-8.13-.24-.35.09-.53.24-.96.29-1.6.19-1.71.82-.11,1.06q.66.1,1.04-.31c.18-.19.13-.45,1.34-.46.37,0,.78.22,1.17.34,2.28.13,2.13.6,2.64.97-2.6.22-5.25.22-7.93.09,1.1-.6-1.52-.73-2.77-1.03l-1.35.37-2.73.21s-.05-.1-.03-.15c1.66-.69-.93-1.24-.86-1.87l1.65-.04s0,.07.09.08c1.17.19.96.81,2.4.7,2.11-.17-.25-.62.15-.95l.98-.42c4.01.06,8.1-.17,12.02.19h1.7s.07.38.07.38l-.36.1.47-.07h1.07c.55.04,1.31.21,1.29-.09l1.73-.18-.24.06-.26-.06c1.18.43,4.13.38,4.96,1.08.39.33,4.12-.21,6.14-.46.34-.04.55-.12.82-.19.44.26,1.57.67.21.73-4.02.2-3.5,1.19-6.28,1.57-2.68.18-5.27.17-7.74-.2Zm-11.42-2.03c-.08-.1-.27-.2-.41-.3-.11.05-.32.11-.32.16,0,.08.12.17.22.28.25-.06.54-.1.52-.14Z"/><path d="m66.27,9.36c1.53-.27,1.63-.53,1.54-.78l-1.45.16-1.11.2c-2.78.31-5.48.58-8.37,1.34-1.18.3-2.9.65-4.36.72-1.6.07-4.56.66-5.05.81-5.16,1.7-10.31,2.54-15.42,3.6-1.88.4-2.96.98-4.46,1.46-3.84,1.15-7.64,2.48-11.37,4.1-.93.39-1.86.81-2.77,1.28-.92.46-1.84.9-2.72,1.45-1.81,1.02-3.51,2.12-5.17,3.49-.7.59-1.46,1.17-1.67,1.73.37.51,2.08-1.05,3.54-2.3,1.29-1.14,2.18-1.6,3.37-2.1.39-.51,1.4-1.06,2.28-1.5l.77-.58c1.8-.11,4.61-1.59,7.17-2.46.98-.36,3.19-1.35,2.74-.47-.11.2,2.88-1.08,2.93-1.26.07-.42.91-.66,2.05-1,.22-.25.52-.33.85-.25,1.5-.57,3.3-1.34,2.84-.45.42-.11.84-.22,1.27-.33,1.25-.61,2.57-1.19,4.5-1.32,1.43-.77,2.8-1.7,4.97-1.22l2.46-.49c.44-.56,2.12-.74,3.44-1.01,1.94-.41,1.66-.03,1.84.18,2.13-1.05,4.42-1.29,6.75-1.24.44-.28.81-.72,1.35-.82,1.51-.28.85.32,2.08.23.13-.55,2.59-.52,3.39-.91l1.76-.26Z"/><path d="m158.74.8c-1.23-.31-2.59-.45-4.4-.05,1.05.27,2.07.56.86.96-.96.31-1.71-.16-2.75,0-1.38-.56-2.15-.18-3.05.18-1.02.4-2.03.52-2.75.05-2.46.21-2.06.65-2.48,1.03.38.4,2.37.47,3.35.75,1.65.32,3.82.33,5.88.1,1.55-.18,2.89-.23,4.39-.19,1.51-.26-.08-.9,2.56-.97,1.95-.05,1.64.39,1.95.66l1.73-.08c-.13-.27-.37-.53-.35-.8.01-.18.81-.26,1.56-.27.65-.01,1.14.08.77.22-.55.2-2.07.41-.46.57.4.04,1.81-.32,2.76-.5.3-.07.45-.24,1.07-.08l-1.09.07c.67.74,2.84.57,5.11.33.69-.63-2.77-.89-2.53-1.47-3.74.39-3.71-.1-3.43-.66-1.5.12-2.74-.24-4.29-.02.24.63-1.41,1.23-4.01,1.21-3.59-.03,1.14-.59-.1-.87-.17-.04-.2-.11-.3-.16Z"/><path d="m148.81,73.66l1.41.02,2.74-.14,1.01-.02s-.05-.09-.08-.14c-.59-.07-.88-.15-.38-.26.07-.02.32-.02.4-.01.77.1-.05.18-.05.27,1.43.04,2.48-.05,3.14-.29,2.11-.77,5.46-.12,5.39.06-.21.59,2.05.55,3.68.7,2.06-.22,4.1-.43,6.19-.65.91-.1,2.68-.06,2.17-.37-.42-.25-2.33-.02-2.81-.1-1.5-.24-3.81.54-4.66-.1-1.14-.04-2.49-.03-2.67-.33-.96,0-1.99.04-2.61-.15-2.11-.06-4.24-.12-6.33-.18-4.14-.18-7.73.42-11.91.09v.37c1.02.01,2.09,0,2.62.23-.07.21-.11.42-1.68.41l.73.49,3.68.09Z"/><path d="m104.09,4.46c.54.03.9.15.38.26-4.11.87-2.02,1.13-.02,1.41l1.6-.19-.08-.54-.21-.06.2.06c1.47.04,4.59-.66,4.42.15,2.4-.29,4.65.21,7.29-.56.38-.11,2.08-.03,2.19.26l2.55-.13c1.07-.54,4.27-.96,3.6-1.59-.03-.03.55-.13.84-.2,1.97.94,2.67-.46,4.17-.38-.01-.06-.01-.12-.02-.18-4.43-.68-5.41.32-6.89,1.06l-.33.07.35-.07c-.88-.02-2.49.03-2.53-.06-.54-1.32-3.66-.21-6.23.1-2.68.32-5.75.85-8.17.5-1.18-.04-1.05-.53-3.08-.29v.38Z"/><path d="m242.81,2.95l-1.59-.25c-3.91-.29-3.83-.87-3.39-1.49-1.28-.27-1.23.09-1.86.12,1.12.89-.83,1.56-4.38,1.5.8.47.85.91-.05,1.31.88.48,1.64.21,2.43.08-.51-.12-.64-.27.06-.26.96.01.79.21.88.35,2.04.71,5.1.42,7.3.48,3.6.11,7.51.67,10.95.36v-.26s-2.5-.23-2.5-.23c-.8.29-1.51.08-2.21-.12l-2.95-.53c-.23.24-.42.49-2.02.37-1.08-.07-1.69-.27-2.19-.49-1.18-.5.47-.69,1.54-.94Z"/><path d="m166.97,72.63c.85.64,3.16-.13,4.66.1.48.08,2.4-.15,2.81.1.51.31-1.26.27-2.17.37-2.09.22-4.13.44-6.2.65l.75.28h1.01c2.79-.49,6.34-.27,9.47-.46.74-.2.56-.37.19-.57-.64-.34.32-.52,2.34-.55l.03-.16c.03-.22.62-.33,1.86-.33.25,0,.5-.02.74-.04-.25-.15-1.41-.28.08-.45l-.08-.16c-4.95.03-9.88-.07-14.85.21.8.35,2.27.71-.65,1.01Z"/><path d="m95.83,71.38c1.03.07.87.76,2.74.39,1.4-.27,2.65.38,4.02.34.44-.63,2.27-.34,4.19.03,1.63.32,2.99.31,4.25.17,1.3-.15,1.88-.38.54-.76-1.82-.15-3.48-.5-5.45-.5-6.13-.03-6.8-.1-11.63-1.06-.12-.02-.35-.06-.38-.06-2.54.41-6.23-.88-8.82-.59.21.33.2.65,1.9.98.08-.21.49-.2,1.66-.04,2.47.33,4.78.67,6.97,1.09Z"/><path d="m166.97,72.63c2.93-.31,1.45-.66.65-1.01-1.93-.15-3.22-.49-5.98-.01-1.99.33-5.96-.03-9.15-.05-4.28,0-8.78.04-13.1-.3-1.89-.15-3.15-.17-2.95.29.19.45,1.72.49,3.44.45l3.57.07c4.18.32,7.78-.27,11.91-.09,2.09.06,4.22.12,6.33.18.51-.08,1.08-.22,1.52-.21.96.03,1.05.21,1.09.37.18.3,1.53.29,2.67.33Z"/><path d="m124.1,3.83c1.49-.74,2.46-1.74,6.89-1.06l3.48-.48c.92-.2,1.88-.4,1.62-.67-1.67-.37-3.79.13-5.58.27-6.84.52-13.71.83-20.56,1.75-1.83.24-2.07.44-2.76.73,2.42.36,5.49-.18,8.17-.5,2.57-.3,5.68-1.41,6.23-.1.04.1,1.65.04,2.51.06Z"/><path d="m37.97,59.5c-.45.1-.84.23-1.38.29-1.79.16-1.58.12,1.75,1.24,5.53,1.87,11.25,2.75,16.84,3.97,1.7.37,3.94.84,3.68.15-3.08-1.22-6.57-1.78-10.45-2.28-2.51-.3-4.34-.92-3.71-1.47-2.52-.3-4.43-1.3-6.74-1.9Z"/><path d="m85.3,69.35c2.59-.29,6.27,1,8.82.59.03,0,.26.03.38.06,4.83.96,5.51,1.03,11.63,1.06,1.97,0,3.63.35,5.45.5-.74-.59-1.55-1.19-4.53-1.66l-2.22.17c-.84.29-2.08.16-3.84-.04-2.14-.26-4.75-.42-6.6-.64-3.74-.44-7.13-.19-10.66-.96l.87.82c.24.03.47.06.7.1Z"/><path d="m129.32,71.58c-1.15.47-2.09.92,2.43,1.15,1.46.08.53.25.42.39-2.24.23-4.69-.05-6.27-.35-4.01-.73-4.94-.32-5.84.24h-.83c-2.64-.44-6.98-.87-2.8-1.47.75-.12.75-.41,1.1-.62,2.28.11,4.57.23,6.84.34,1.47.08,2.58.12,2.75-.21l2.54.15c-.1.13-.07.27-.33.38Zm-7.3.14c-.09-.02-.24-.03-.46.02.13.01.25.03.46-.02Z"/><path d="m319.07,8.9c.55.47,1.99.93,3.22,1.46,1.24.52,2.27,1.09,2.08,1.42-.18.32-2.04-.12-2.93.02-.92.09-4.11-1.04-6.74-1.57-1.18-.26-2.29-.56-3.55-.7-1.2-.14-2.63-.6-3.54-.39-.97.23,2.35.42,1.7.73,1,.26,2.08.44,3.17.58,1.05.14,2.12.32,3.19.55,2.14.45,4.27,1.19,5.96,2.31,1.06.72,1.05.1,2,.52,1.01.28-2.88-2.1.51-.51.69.06,1.81.43,2.72.76.93.31,1.66.6,1.7.13-.61-.58-1.52-1.21-1.91-1.57-.49-.47-.61-.9-1.04-1.33-.43-.43-1.18-.88-2.92-1.2-.02,0-.28-.18-.62-.4-.34-.22-.77-.47-1.12-.64-2.04-.96-4.17-1.46-6.07-1.5.49.82,3.05.65,4.19,1.3Z"/><path d="m327.82,16.43c.69.67,1.05,1.25,1.15,1.74.06.31.17.64.24,1,.11.35.17.72.21,1.1.1.74.09,1.5.03,2.28-.07,1.39-.76,2.84-.51,3.32.12.23.3.31.58.22.28-.08.65-.32,1.06-.78.4-.46.87-1.14,1.18-2.1.31-.95.46-2.21.1-3.56-.32-1.31-.96-2.92-1.94-4.13-1.5-.87-1.25-.05-.4,1.34.84,1.44,1.55,2.66,1.97,3.87.1.21.18.85.12,1.41-.07.56-.25,1.01-.41.87-.28-.21-.87.72-.96-.03-.08-.44-.19-.68-.19-1.74-.07-1.09-.14-1.59.05-1.81.08-.11.2-.24.14-.48-.04-.25-.16-.66-.6-1.26-.88-1.15-1.63-1.47-1.81-1.24Z"/><path d="m83.73,68.43c3.53.77,6.92.52,10.66.96,1.85.22,4.46.39,6.6.64,1.76.2,3,.32,3.84.04-2.95-1.07-7.49-.97-11.2-1.37-5.54-.58-11.24-.81-16.55-2.05l-.47.17c.76.36,3.54,1.01-.76.59-1.4-.15-2.24.03.16.46,2.57.18,4.51-.28,7.72.55Z"/><path d="m98.43,7.67c-.12-.58-1.28-.74-3.83-.08-1.88.49-3.12.53-4.69.41-1.61-.13-4.19.83-5.75.45-3.63,1.01-7.72,1.06-11.57,1.7-1.31.21-2.05.37-2.62.68,3.62-.03,7.45-.53,11.58-1.15,2.63-.39,5.31-.76,8.22-.88,2.53-.11,5.75-.74,8.67-1.12Z"/><path d="m267.09,5.84l-1.87-.14-2.74-.69c-.39-.03-.79-.07-1.18-.1-1.29.03-2.58.11-3.87.16,2.21,1.04,6.74,1.07,9.99,1.32,3.22.26,6.46.43,9.71.59,3.25.2,6.5.4,9.74.6l1.75-.05c-2.86-.89-5.99-1.26-9.44-.98-2.77-.06-5.71.11-7.22-.91l-1.25-.07-.89-.02c0,.14.04.2.07.26l.26.16-.61-.11-2.41-.03Z"/><path d="m198.42,71.1c2.47-.04,4.94-.08,7.43-.37,1.97-.14,3.86-.22,5.34-.05,1.33-.1,1.99-.15,2.66-.2,3.16-.17,6.21-.68,9.58-.71,1.75-.02,2.64-.54,3.13-.87-9.5.73-19,1.34-28.51,1.96l.36.25Z"/><path d="m132.17,73.12c-2.24.23-4.69-.05-6.27-.35-4.01-.73-4.94-.32-5.84.24,6.63.51,13.27,1.07,19.93.76,1.61-.08,2.6.3,3.91.28,1.8-.04,4.57.21,4.91-.39l-3.68-.09-6.04-.28-6.91-.18Z"/><path d="m263.63,65.03c-.05.23.57.4-2.18.82-1.72.24-3.16.57-2.81.87,7.07-.96,14.15-2.14,21.28-4.3l-.08-.16-.28-.07c-.13.04-.27.09-.42.12-1.19.37-2.37.74-2.78.54-.21.06-.43.12-.66.17-.86.18-1.72.31-2.58.47-.33.33-1.19.58-2.59.72-1.52.27-3.02.9-4.44.93-.47,0,.19-.26.92-.49l.04-.13-.88-.08c-1.55.04-1.62.43-2.54.61Z"/><path d="m119.23,73c-2.64-.43-6.98-.86-2.8-1.46.75-.12.75-.41,1.1-.62-1.26-.12-.83-.28-.9-.43l-1.69-.06c.5.39-1.69.41-1.77.72l1.13.15c-.09.02-.24.04-.25.04-.31-.06-.61-.13-.91-.19-1.49-.32-.55-.58-.84-.87-1.68-.51-3.41-.71-5.25-.38,2.98.47,3.79,1.07,4.53,1.66,1.34.38.76.61-.54.76-1.25.14-2.62.15-4.25-.17-1.92-.37-3.76-.66-4.19-.03,4.36.45,8.84.43,13.14.98,1.7.21,2.6.07,3.49-.1Z"/><path d="m76.01,67.88c-2.4-.42-1.57-.61-.16-.46,4.3.42,1.53-.23.76-.59-.78.24-2.08-.19-3.11-.28.08.24-.74.43-1.36.26-3.06-.88-5.37-.51-8.07-1-1.49.05-1.53-.2-1.61-.44-1.42-.53-1.82-.34-2.29-.19.13.03.35.08.37.1.51.66,2.55,1.03,4.79,1.33,3.08.42,5.14,1.36,8.36,1.68.08,0,.36.35.55.54l3.31.75,1.76.41.26-.45c-3.8-.55-3.95-1.11-3.56-1.66Z"/><path d="m30.04,59.64c-1.7-.61-1.87-1.06-2.89-1.63-.65-.37-1.29-.75-.8-.78.38-.03,1.08.3,1.75.52.8.28,1.79.69,2.36.79,1.07.17,2.75.42,2.62.21-.32-.53-1.89-.63-2.88-1.02-.6-.24-1.14-.53-1.7-.8-.67-.54-1.43-.59-2.16-.85-1.25-.35-2.61-.74-2.38-.29.9,1.69-2.83.12-6.17-1.41.29.43,2.06,1.16,2.05,1.51,2.81,1.08,5.25,2.54,8.17,3.58,2.07.72,1.71.32,2.02.18Z"/><path d="m64.05,65.81c2.71.49,5.02.12,8.07,1,.62.17,1.45-.02,1.36-.26-5.44-.8-10.85-1.59-16.27-2.47-2.72-.44-5.54-1.1-8.17-1.8-1.6-.41-2.91-.64-4.34-.89-.63.55,1.2,1.17,3.71,1.47,3.88.5,7.36,1.06,10.45,2.28.43.01.87.02,1.3.03.46-.15.87-.34,2.28.19l1.61.44Z"/><path d="m132.17,73.12l6.91.18.08-.33c-.94-.03-1.77-.11-1.62-.31.15-.2,1.1-.17,1.97-.15.32-.15.35-.33.38-.5-1.72.04-3.25,0-3.44-.45-2.19-.26-4.47-.34-6.79-.35-.1.13-.07.27-.33.38-1.15.47-2.09.92,2.43,1.15,1.46.08.53.25.42.39Z"/><path d="m134.47,2.29l-3.48.48v.19s.2.06.2.06l-.19-.06c-1.5-.08-2.2,1.33-4.17.38-.29.07-.87.17-.84.2.67.63-2.53,1.05-3.6,1.59.2.2.98.1,1.67.06.89-.37,2.35-.39,3.64-.5.96.05,1.5-.75,2.04-.27.58.52,2.13.05,3.02.12,1.49-.47,2.19-.31,2.73,0,.91.01,1.99.31,2.52-.22l.37-.32c-1.07-.07-1.6-.35-3.09-.24-1.02-.06-.65-.3-.75-.47-4.65-.01.57-.7-.07-.98Z"/><path d="m277.02,61.28c1.48-.11,3.17-.4,4.58-.5,1.46-.08,3.46-.6,5.35-1.21,1.88-.66,3.65-1.42,4.62-2.11-2.01.7-4.28,1.39-2.99.51-3.92,1.14-7.87,2.09-11.56,3.31Z"/><path d="m134.54,3.27c-4.65-.01.57-.7-.07-.98.92-.2,1.88-.4,1.62-.67,2.65-.23,5.42-.87,7.85-.29.12.03.16.07.12.12-3.45.74-3.69,1.57-3.46,2.4l-2.22.13c-1.06-.07-1.6-.35-3.09-.24.09-.2.1-.39-.75-.47Zm2.73-.79c-.56-.06-1.09.14-.9.23.37.19-1.37.71,1.28.54,1.32-.17,1.2-.3.23-.41-.19-.13-.19-.32-.61-.37Z"/><path d="m73.95,7.8c.81-.1,1.52.15,2.39-.27,1.94-.94,2.21-.38,2.9-.2.61-.02,1.4.02,1.82-.07,1.6-.35,3.1-.75,4.35-.43,1.02.26-.32.64-1.28,1.02-1.69.68-3.06.63-4.51.51-.91-.08-2.4.04-3.1.29-2.39.87-3.56.53-5.06.47.83-.44,1.67-.88,2.5-1.32Zm9.71-.56s-.3.06-.32.08c-.03.05.02.09.04.14l.66-.16c-.12-.02-.24-.05-.39-.07Z"/><path d="m247.16,68.29c-3.49.51-7.18.78-10.27,1.59-.78.2-1.91.19-2.71.19-1.44,0-2.4.17-3.15.47,3.01.15,6.57-.44,9.91-.94,4.32-.65,8.45-.73,12.77-1.72.63-.15,1.4-.27,1.67-.44-.93-.16-2.44.02-4.14.45-2.05.53-3.07.51-4.06.4Z"/><path d="m327.82,16.43c.18-.23.93.09,1.81,1.24.44.6.56,1.01.6,1.26.06.24-.06.38-.14.48-.2.22-.13.73-.05,1.81,0,1.06.1,1.3.19,1.74.1.75.68-.18.96.03.16.14.34-.31.41-.87.06-.56-.02-1.2-.12-1.41-.42-1.21-1.13-2.43-1.97-3.87-.86-1.39-1.1-2.21.4-1.34-.17-.26-.36-.52-.57-.75-.22-.21-.48-.39-.78-.52-.04.47-.77.18-1.7-.13-.91-.33-2.03-.71-2.72-.77.7.58,1.3,1.16,1.19,1.43.89.52,1.71,1.04,2.48,1.66Z"/><path d="m57.68,11.12c-2.33-.06-4.63.18-6.75,1.24-1.21.8-5.28,1.48-5.85,2.34l.43.54c1.5-.13,2.83-.43,3.99-.93.17-.15-.41-.2.47-.44l.34.28c.25-.01.52-.06.81-.13,3.46-.76,2.57-1.63,5.75-2.38.71-.2.87-.37.82-.52Z"/><path d="m166.82,74.14l-.75-.28c-1.64-.15-3.9-.11-3.68-.7.07-.18-3.28-.83-5.39-.06-.67.24-1.72.34-3.14.29.06.04.09.09.11.13l-.07.49c4.26.23,8.48.58,12.93.13Z"/><path d="m207.67,72.78c.31-.42-1.57-.39-3.11-.38-3.31.04-7.14,0-10.02.37-1.99.25-3.34.32-5.29.39-1.18.03-.52.3-.61.46,4.17-.04,8.22-.02,12.58-.52,1.88-.22,4.29-.2,6.45-.32Z"/><path d="m106.05,5.94l-1.6.19c-.83.35-1.98.7-1.75,1.04,4.33-.16,8.9-1.07,13.31-.9,1.78.07,2.26-.71,3.83-1.02-.11-.29-1.81-.37-2.19-.26-2.64.76-4.89.27-7.29.56-1.46,1.24-2.88.1-4.32.38Z"/><path d="m33.71,16.21c-.42.11-.85.22-1.27.33-.67.61-.65.59.71.35.59-.11,1.4-.19,1.55-.12.54.26-1.84.76-2.14,1.14.62-.04,1.23-.09,1.85-.11l2.79-.58c1.81-.69,3.64-1.33,5.46-1.99-3.96.35-3.94.17.51-1.55-2.17-.48-3.54.45-4.98,1.22-1.49.44-1.97,1.6-4.5,1.31Z"/><path d="m17.8,54.37c3.34,1.53,7.07,3.1,6.17,1.41-.23-.45,1.13-.05,2.38.29-.13-.7-2.01-.97-2.98-1.49-.94.19-1.72.62-5.24-1.64-.58-.38-1.58-.86-1.93-.79-.38.07.35.53,1.15.97l.37.14-.33-.12.43,1.21Z"/><path d="m143.94,1.33c.12.03.16.07.12.12.4.27,3.08,0,2.6.48.72.47,1.73.35,2.75-.05.89-.35,1.67-.73,3.05-.18,1.04-.15,1.79.32,2.75,0,1.22-.4.19-.69-.86-.96-3.52.04-7.29-.36-10.4.58Z"/><path d="m196.24.6c1.18.43,4.13.38,4.96,1.08.39.33,4.12-.21,6.14-.46.34-.04.55-.12.82-.19l.03-.54c-3.11-.45-6.03.17-9.11-.07l-2.28.06c-.3,0-.49.04-.56.1Z"/><path d="m262.59,64.18c1.25.2,9.05-.83,11.47-1.59,2.39-.7.78-.66,1.21-1-1.52.41-3.04.9-4.56.98-.33.02-1.42.19-1.48.22-1.88.85-4.46.93-6.63,1.39Z"/><path d="m319.07,8.9c-1.13-.66-3.7-.48-4.19-1.3-.61-.27-1.25-.41-1.9-.46-.65-.06-1.24-.02-1.87-.02-2.1.32-5.3-.29-7.73-.25.45.36.35.73,2.95.67,1.57-.03,3.81.26,5.75.41.36-.05.73-.08,1.11-.11l.33.15c-.47-.01-.94-.03-1.39-.02.79.14-.07.38-.4.59-.32.24-.1.31,2.84.5.26-.24-.45-.82,1.9-.36.54-.16,2.59.59,2.59.21Z"/><path d="m209.4,72.26c-.05.08.26.15-.48.22,5.27-.26,10.86-.2,15.33-1.53l-.14-.17-3.43.31c-3.75.42-7.5.81-11.28,1.17Z"/><path d="m303.38,6.86c2.43-.04,5.63.57,7.73.25-.21-.62-2.17-.34-3.14-.49-3.73-.57-7.61-.81-11.41-1.03.67,1.11,4.44.89,6.82,1.27Z"/><path d="m241.21,2.12c2.71.15,5.78.09,7.55.92.68.32,1.68.22,1.86-.06.13-.2-.07-.45,1.08-.5.4-.57-1.88-.52-3.09-.62-2.71-.22-5.46-.35-8.2-.47.21.24-.49.5.79.73Z"/><path d="m227.27,3.57c-1.88-.23-3.84-.47-5.21,0-.89.31-1.4.09-2.18-.07-2.62-.55-5.22-.68-7.69-.14,2.44.55,5.49.58,8.48.61,2.2,0,4.38,0,6.57.01l.04-.41Z"/><path d="m4.12,33.49c-.05-.33.1-.92-.02-1.01-.06-.04-.18.05-.42.38-.21.34-.56.92-.82,1.9-.27,1.01-.37,1.74-.47,2.37-.05.32-.11.61-.13.9-.04.29-.08.58-.07.87.01.58-.61.39.29,2.03.81,1.26.93.76,1.03.4.1-.35.26-.59.43-.87-.58-1.14-.9-2.34-.88-3.53.02-1.19.43-2.36,1.06-3.45Z"/><path d="m167.44.64c-.28.55-.31,1.05,3.43.66l2.62-.4,1.65-.04c.7-.2,1.68-.18,2.63-.17l.98-.42c.08-.38-1.08-.27-2-.22-3.11.2-6.21.39-9.32.59Z"/><path d="m34.43,17.8c-.62.02-1.24.07-1.85.11-2.35.7-4.69,1.86-6.89,1.82-.56,0-1.96.76-1.84.78.49.11-2.66,1.3-.32.81,3.54-1.4,7.71-1.86,10.91-3.52Z"/><path d="m168.31,2.45c-.95.17-2.35.53-2.76.5-1.61-.16-.09-.36.46-.57.37-.14-.12-.23-.77-.22-.75.01-1.55.1-1.56.27-.02.27.22.53.35.8,3.14.44,6.7.3,10.24.16l.11-.47s-.05-.1-.03-.15h-.94c-2.27.24-4.44.41-5.09-.32Z"/><path d="m56.86,11.64c-3.18.75-2.29,1.61-5.75,2.38,1.86.11,3.74.17,5.96-.97.24-.17.37-.42.74-.5,5.61-1.22,1.4-.81.02-.88-.11.15.06.29-.95.45l.15-.33c-.06-.05-.12-.1-.16-.15Z"/><path d="m9.16,49.64c-.45-.74-1.41-1.94-2.81-2.7-1.36-.73-2.87-2.32-3.98-4.1-1.15-1.77-1.75-3.72-2.36-4.85.12,1.45.59,2.81,1.23,4,.64,1.19,1.43,2.22,2.29,3.15,1.71,1.85,3.66,3.28,5.65,4.5Z"/><path d="m77.54,69.58l-3.31-.75-1.74-.37c-.05.42-1.5.2-2.91-.03-3.25-.88-6.35-1.28-9.35-1.28.25.23,1.12.56,1.73.61,5.07.37,10.61,1.84,15.57,1.83Z"/><path d="m303.19,9.43c-.11-.62-.64-1.12-4-.92-2.5.14-5.52-1.01-7.96-.57,3.51,1.09,7.88,1.12,11.96,1.5Z"/><path d="m187.75,71.42c1.17.5,3.47.75,5.99.97-.52-.5.76-.96,2.46-1.44-1.76-.18-3.32.09-4.94.26-.86.44-2.28.23-3.51.21Z"/><path d="m266.22,3.16c2.97.96,9.26,1.29,13.09.82-3.7-.66-7.48-.57-11.22-.83-.12.36-1.03.17-1.88.01Z"/><path d="m91.22,6.39c1-.13,1.69-.3,1.63-.54h-1.12s-.27-.18-.27-.18l.83-.02.7.15c1.03-.12,1.51-.29,1.57-.51-3.16.27-5.97-.02-9.42.75.39.62,3.33.35,5.31.41l.76-.07Z"/><path d="m48.55,64.52c-3.91-.86-7.76-1.8-11.19-2.2,1.22.67,2.42,1.12,4.45,1.3,2.57.23,5.57,1.28,8.35,1.71l-.08-.42c-.5-.13-1.01-.26-1.53-.39Z"/><path d="m231.58,2.83c3.55.06,5.5-.61,4.38-1.5l-3.47-.17c.52.43-2.06.52-1.57.96,1,.23.57.48.66.71Z"/><path d="m42.68,15.23c-1.83.66-3.66,1.3-5.46,1.99,2.9-.39,5.75-.81,8.29-1.97l-.43-.54-2.4.53Z"/><path d="m140.6,3.85l-2.22.13-.37.32c3.23-.06,6.53.09,9.51-.58-.98-.28-2.97-.35-3.35-.75-.62.1-1.14.19-1.67.27-.13.27-.2.54-1.9.61Z"/><path d="m227.27,3.57l-.04.41c1.44.03,2.87.11,4.3.16.9-.4.85-.84.05-1.31-2.1-.13-1.59-.45-1.63-.74-.33-.16-.8-.32-1.61-.27-.96.06-.4.25-.23.38.64.51,1.87,1.05-.85,1.37Z"/><path d="m104.09,4.46v-.38c-2.93.26-6.21.03-8.62,1.1.47.3-.1,1.08,3.08.01,1.38-.47,3.89-.19,5.53-.73Z"/><path d="m79.57,69.54l-.26.45c3.3.73,6.37.73,9.48.85l-1.58-.51c-1.7-.33-1.69-.65-1.9-.98-.23-.04-.46-.07-.7-.1-.08.65-.66,1.14-5.03.28Z"/><path d="m117.53,70.92c2.28.11,4.57.23,6.84.34,1.47.08,2.58.12,2.75-.21-3.02-.56-6.43-.32-9.58-.63-.02.16-.03.33,0,.5Z"/><path d="m87.2,70.34l1.58.51c2.44.47,4.97,1.1,7.05.54-2.2-.42-4.51-.76-6.97-1.09-1.17-.15-1.58-.17-1.66.04Z"/><path d="m158.74.8c.1.05.13.12.3.16,1.25.28-3.49.84.1.87,2.59.02,4.24-.58,4.01-1.21-1.52-.06-3.15-.34-4.41.18Z"/><path d="m247.16,68.29c1,.12,2.01.13,4.06-.4,1.71-.43,3.21-.61,4.14-.45.6-.13,1.38-.23,1.58-.4-.52-.06-1.04-.13-1.56-.19-2.69.33-5.32.85-7.98,1.24l-.25.2Z"/><path d="m288.58,57.98c-1.29.88.98.2,2.99-.51,1.51-.46,2.41-.87,2.97-1.28l-.14-.28c-1.87.75-3.75,1.5-5.81,2.07Z"/><path d="m177.31,73.67c-3.14.19-6.69-.02-9.47.47,3.16.36,6.31-.11,9.46-.15v-.32Z"/><path d="m13.58,25.66c-1.05-1.01-3.7,1.74-5.34,2.92.28.15-.01.77,1.94-.79.5-.4,1.07-.75,1.64-1.1.59-.34,1.16-.73,1.76-1.04Z"/><path d="m162.3,3.32c-.31-.28,0-.72-1.95-.66-2.64.07-1.04.71-2.56.97,2.12.47,3.01-.2,4.51-.31Z"/><path d="m257.42,5.07c1.29-.06,2.58-.13,3.87-.16-2.42-.23-2.55-.63-2.87-1.04-.19-.24-.75-.45-1.91-.51-.43-.02-1.12.03-1.26.1-.4.21.54.32,1.28.45,2.66.48-2.19.61.11,1.09.24.04.5.06.76.08Z"/><path d="m293.51,57.97c-.79.35-1.81.53-2.76.75-.95.21-1.84.46-2.37,1.02.82.18.86.25,5.12-1.77Z"/><path d="m186.53,2.31c2.28.13,2.13.6,2.64.97,1.78.03,3.74.32,5.19-.13l-.05-.22c-1.28-.1-3.52.06-3.73-.31-.46-.82-2.28-.5-4.04-.31Z"/><path d="m181.23,3.37c1.1-.6-1.52-.73-2.77-1.03l-1.35.37-1.06.77c1.78.09,3.34-.37,5.19-.11Z"/><path d="m10.41,47.8l.3-.43c-1.2-1.03-2.33-2.09-3.68-3.12-.17.21-.91.1.89,1.62,1.39,1.11,1.98,1.7,1.7,1.97.73.35.63.05.78-.05Z"/><path d="m196.2,70.96c-1.69.47-2.98.94-2.46,1.44,1.76-.41,4.33-.77,4.68-1.3l-.36-.25-1.86.11Z"/><path d="m241.21,2.12c-1.28-.23-.58-.48-.79-.73l-2.59-.18c-.44.61-.52,1.2,3.39,1.49v-.58Z"/><path d="m50.07,64.91l.08.42c1.65.34,3.1.52,4.35.52-.83-1.38-2.65-1.1-4.43-.93Z"/><path d="m241.99,67.25c0,.09-.15.21.03.27.5.17-1.91.89.75.58,2.36-.3.27-.43.59-.68.09-.07.87-.21,1.33-.31-.6-.09-1.13-.21-2.7.14Z"/><path d="m187.75,71.42c1.23.01,2.65.23,3.51-.21h-1.9c-.71.03-1.33.02-1.66-.1l-3.5.25.74.14,2.82-.08Z"/><path d="m320.4,19.77s-.09-.01-.07.05c.08.33-.92-.53.43,1.13.45.56,1.46,1.55.8.29-.37-.5-.75-1-1.16-1.47Z"/><path d="m113.17,71.15c.08-.31,2.27-.33,1.77-.72l-2.64-.15c.3.29-.64.56.87.87Z"/><path d="m325.34,14.76c.1-.27-.49-.85-1.19-1.43-3.39-1.58.5.79-.51.52.12.12.29.24.53.35.32.17.64.36.96.54.2.11.27.11.21.02Z"/><path d="m195.02.78l1.73-.18c-.76-.42-2.87-.3-4.18-.5l-.1.36.07.38c.47.03.82.02,1.18.02.13-.21.72-.15,1.3-.09Z"/><path d="m19.85,55.88c0-.36-1.76-1.08-2.17-1.54l-1.32-.49.9.73c.78.52,1.64.96,2.59,1.3Z"/><path d="m135.49,4.52c-.53-.3-1.24-.47-2.73,0,.74.14,1.06.6,2.73,0Z"/><path d="m152.96,73.54l-2.74.14c-.13.43,1.38.34,2.72.31v-.45Z"/><path d="m127.7,4.68c-1.29.12-2.75.14-3.64.5,1.89.25,2.86-.07,3.64-.5Z"/><path d="m313.44,13.57c.65.58,1.46,1.17,2.42,1.79-.74-.62-1.01-1.25-2.42-1.79Z"/><path d="m184.94,71.51l-.74-.14-1.73.05.08.16c.79.16,1.58.16,2.39-.06Z"/><path d="m206.33,3.16s.02-.07.12-.09c-.12.02-.25.04-.4.04-.08.13-.17.27-.25.4l.53-.35Z"/><path d="m187.7,71.11c.34.12.95.13,1.66.08,0-.26-.56-.28-1.66-.08Z"/><path d="m234.91,4.31c-.09-.14.08-.34-.88-.35-.7,0-.58.14-.06.26l.95.09Z"/><path d="m192.47.47l.1-.36c-.89.05-1.51.17-1.8.36h1.7Z"/><path d="m196.81.5l2.28-.06c-.95-.25-1.72-.23-2.28.06Z"/><path d="m117.49,70.91l.05-.49c-.57-.06-.87-.04-.91.07.07.15-.36.31.86.42Z"/><path d="m50.3,14.15l-.34-.28c-.88.24-.3.29-.47.44.28-.02.55-.08.8-.16Z"/><path d="m266.22,3.16c.85.16,1.76.35,1.88-.01-.78-.11-1.56-.21-1.88.01Z"/><path d="m325.13,14.75c-.32-.18-.63-.37-.96-.54l.47.52.49.02Z"/><path d="m247.41,68.09c2.66-.39,5.29-.91,7.98-1.24.93-.16,1.32-.31,1.37-.45l.05-.42c-1.47.21-1.98.17-1.49-.13.23-.14.55-.32-.42-.19-.57.08-1.79.36-1.77.4.27.56-3.63,1.14-5.1,1.69-.3.11-.42.22-.62.33Z"/><path d="m301.95,54.31c1.73-.64,3.45-1.38,4.9-2.48-2.75,1.44-.74-.17-2.71.74-1.05.48-2.14.86-3.21,1.29.51.07,2.3-.47,1.02.45Z"/><path d="m211.19,70.67c-1.48-.17-3.37-.08-5.34.05.07.17-.19.39.29.48.65.12-1.93.54.43.41,1.63-.09,1.3-.32,1.11-.51-.09-.09-.12-.4.96-.16,1.98.43,1.52-.3,2.55-.27Z"/><path d="m273.12,63.48c.86-.16,1.72-.29,2.58-.47.3-.22,2.44-.87.48-.56-2.06.33-2.7.69-3.06,1.03Z"/><path d="m267,64.63c-.73.23-1.39.49-.92.49,1.42-.02,2.93-.65,4.44-.93-.21-.33-2.15.19-3.53.44Z"/><path d="m220.67,71.09l3.43-.31c-.21-.24-1.3-.26-2.67-.11-1.06.11-.69.28-.76.42Z"/><path d="m182.47,72.02c-.24.02-.49.03-.74.04l-.09.29c1.05-.05,2.33-.01,2.79-.3l-1.96-.04Z"/><path d="m276.35,62.84c.42.2,1.6-.17,2.78-.54l-.15-.23c-.89.26-1.76.52-2.64.77Z"/><path d="m259.75,64.93c-.19,0-.37.02-.55.02l-.47.21c.22-.02.49-.04.66-.08.17-.04.24-.1.35-.15Z"/><path d="m213.85,70.47l-2,.15c.26.06.45.18.79.17.97-.04.95-.2,1.21-.32Z"/><path d="m266.17,64.43l.88.08c1.25-.46.23-.28-.88-.08Z"/><path d="m278.98,62.07c.45-.13,1.12-.28,1.09-.39,0-.02-.35.02-.51.06-.77.21-.53.24-.58.33Z"/><path d="m256.81,65.99l-.05.42c1.08-.31,1.15-.46.05-.42Z"/><path d="m233.36,68.92c.02.06.16.04.28.04-.02-.06-.16-.04-.28-.04Z"/><path d="m179.87,72.39l-.03.16,1.78-.2c-.57.01-1.16.03-1.75.04Z"/><path d="m263.61,65.04h-.2c.07-.01.15-.01.2,0Z"/><path d="m279.55,62.18l.28.07c.71-.27.55-.27-.28-.07Z"/><path d="m242.81,2.95c-1.07.25-2.72.44-1.54.94.5.22,1.12.42,2.19.49,1.6.12,1.79-.13,2.02-.37-.82-.34-1.22-.67-.49-.97.33-.14.26-.29-.68-.37-1.14-.09-1.32.11-1.51.28Z"/><path d="m316.48,8.69c-2.34-.46-1.64.12-1.9.36.84.18,2.06.33,2.08.72.01.2.75.61,1.49.77.75.16,1.5.2,1.82.12.54-.14-.93-.52-1.35-.74-.84-.44-1.42-.85-2.14-1.24Z"/><path d="m271.93,5.65c1.51,1.01,4.45.84,7.22.91-1.98-.67-4.25-1.06-7.22-.91Z"/><path d="m269.79,5.56l.89.02c.15-.04.25-.1.47-.12,1.68-.11,2.8-.29,1.12-.81-.44-.14-1.66-.34-1.47-.14.46.47-5.01.26-1.02,1.05Z"/><path d="m250.65,4.66l2.49.23c.04-.25,2.15-.49-.06-.74-1.63-.19-2.8.07-2.43.51Z"/><path d="m262.48,5l2.74.69c-.05-.22,1.46-.35.2-.63-1-.22-2.1-.2-2.94-.06Z"/><path d="m311.01,8.8c-.5-.13-.79-.24-1.08-.27-.32-.03-.64.02-.95.03.26.08.49.2.79.24.3.04.67,0,1.25,0Z"/><path d="m267.09,5.84l2.41.03c.11-.02.23-.03.35-.05l-.1-.19c-1.08,0-2.66-.2-2.67.21Z"/><path d="m248.44,4.54c.7.2,1.4.41,2.15.12l-2.15-.12Z"/><path d="m305.7,9.2c-.24-.07-.37-.05-.49-.04.09.03.17.05.49.04Z"/><path d="m13.1,23c-.88.44-1.9.99-2.28,1.5-.04.37-.78.81-1.56,1.33-.78.52-1.65,1.12-2.02,1.62-.27.36-1.82.9-2.03,1.68-.13.46,1.09-.4,1.92-.78.84-.41,1.42-.79,2.36-1.66.58-.56,1.28-1.06,2-1.5.36-.21.73-.4,1.1-.55.39-.12.77-.21,1.16-.23.91-.07,2.16-.99,2.94-1.44,1.35-.84.13-.47-.79-.24-1.44.36-2.84.82-2.81.27Z"/><path d="m10.41,47.8c-.15.1-.06.4-.78.05-.3.08-2.01-1.2-1.38-.3.23.31.84.93,1.31,1.24,1.58,1.03.74.04,1.18.11.25.04.45.03.79.15.65.22,2.35,1.14,1.85.56-.58-.65-1.96-1.04-2.97-1.81Z"/><path d="m5.17,44.31c-.1-.16-.19-.31-.28-.46l-.46-.27c.13.18.27.4.4.53.12.12.22.14.34.2Z"/><path d="m28.75,17.24l.83-.25c-.27.08-.56.17-.83.25Z"/><path d="m323.64,32.01c.09-.16.23-.2.23-1.35-.06.15-.17.69-.23,1.35Z"/><path d="m66.27,9.36l-1.76.26c.01.23.47.51-.05.68-.92.32-1.76.56-1.39.79.18.11.69-.03.89-.13.72-.37,3.26-.69,2.51-1.09-.25-.13-.14-.34-.19-.52Z"/><path d="m71.45,9.12c-.56-.09-.64-.34-1.87-.17-.17.02-.58.22-.53.28.29.26,1.46,0,2.4-.1Z"/><path d="m91.22,6.39l-.76.07c.02.14-.13.31.87.22l-.11-.29Z"/><path d="m57.02,11.79l-.15.33c1.01-.16.83-.31.95-.45l-.8.12Z"/><path d="m61.11,10.53l.34.19c.8-.27-.05-.17-.34-.19Z"/><path d="m304.14,52.57c1.97-.91-.04.7,2.71-.74.98-.56,1.64-1.01,2.08-1.42.93-.87,2.08-1.87,0-.86-3.3,1.48-3.16,2.06-4.79,3.02Z"/><path d="m315.96,44.2c-.89.87-2.6,1.91-2.29,2.13.1.07.64-.06,1.68-1.03,1.01-.94,2.35-2.45,2.29-2.61-.07-.28-1.15,1.14-1.68,1.51Z"/><path d="m315.5,45.75c.83-.54,1.4-.84,1.93-1.34.68-.61,1.81-1.81,1.69-1.99-.06-.1-.55.25-1.22.95-.73.73-1.42,1.47-2.41,2.38Z"/><path d="m322.43,36.09c.1-.08.24-.02.55-.87.09-.27.06-.44.09-.65-.19.52-.38,1.04-.64,1.52Z"/><path d="m312.5,47.54c.2-.2.06-.1-.08,0h.08Z"/><path d="m321.57,37.47l.2-.33c.06-.11.14-.22.19-.33-.17.2-.32.41-.39.67Z"/><path d="m209.91,2.75c-.17-.31-1.07-.43-2.34-.36-1.61.09-.98.42-1.14.67,1.56.07,1.63-.52,3.47-.3Z"/><path d="m229.96,2.09c.03.28-.47.61,1.65.74-.12-.24.31-.48-.69-.72l-.96-.03Z"/><path d="m209.92,2.75l.19.08c-.07-.03-.14-.05-.19-.08Z"/><path d="m48.55,64.52l1.54.4c-.25-.19.6-.26-.64-.54-.71-.16-.92-.01-.9.14Z"/><path d="m69.59,68.42c1.41.23,2.86.46,2.91.03-1.07-.05-2.25-.17-2.91-.03Z"/><path d="m186.53,2.31c1.76-.19,3.59-.51,4.04.31.21.37,2.45.2,3.73.31-.7-.43-1.25-.87-2.13-1.28-1.87-.89-5.32-.99-8.13-.24-.35.09-.53.24-.96.29-1.6.19-1.71.82-.11,1.06q.66.1,1.04-.31c.18-.19.13-.45,1.34-.46.37,0,.78.22,1.17.34Z"/><path d="m173.4,2.77h.94c1.66-.69-.93-1.23-.86-1.87l-2.62.4c-.24.59,3.22.85,2.53,1.47Z"/><path d="m177.77.69c-.95,0-1.93-.03-2.63.17.03.03,0,.07.09.08,1.17.19.96.81,2.4.7,2.11-.17-.25-.62.15-.95Z"/><path d="m182.41,1.25c.25-.06.54-.1.52-.14-.08-.1-.27-.2-.41-.3-.11.05-.32.11-.32.16,0,.08.12.17.22.28Z"/><path d="m195.02.78c-.58-.06-1.16-.12-1.3.09.55.04,1.31.21,1.3-.09Z"/><path d="m192.54.85l-.36.1c.16-.02.31-.05.36-.1Z"/><path d="m42.68,15.23l2.4-.53c.57-.86,4.64-1.54,5.85-2.34-.18-.22.1-.59-1.84-.18.89.18-.49.63-1.36.91-1.07.34-1.64.2-2.09.1l-2.46.49c-4.44,1.72-4.47,1.89-.51,1.55Z"/><path d="m45.65,13.19c.45.1,1.02.24,2.09-.1.87-.28,2.25-.73,1.36-.91-1.33.28-3,.46-3.44,1.01Z"/><path d="m33.71,16.21c2.53.29,3.01-.88,4.5-1.31-1.92.12-3.24.71-4.5,1.31Z"/><path d="m28.74,17.25l.87-.26c-.34-.08-.63,0-.87.26Z"/><path d="m140.6,3.85c1.71-.08,1.78-.35,1.9-.61-.27-.36.62-.32,1.58-.26.52-.4.12-.84,2.58-1.05.48-.49-2.2-.21-2.6-.48-3.45.74-3.69,1.57-3.46,2.4Z"/><path d="m168.29,2.44l1.09-.07c-.62-.16-.77.01-1.09.07Z"/><path d="m139.81,72.52c-.42.13-.54.29-.66.44,1.75.04,3.5.08,5.24.12,1.57.02,1.61-.2,1.68-.41-.94-.05-2.08,0-2.63-.24l-3.64.08Z"/><path d="m164.3,72.3c-.03-.16-.12-.34-1.09-.37-.44-.01-1.01.14-1.52.21.62.19,1.64.15,2.61.15Z"/><path d="m143.44,72.43c.55.24,1.7.19,2.63.24-.53-.24-1.6-.22-2.63-.24Z"/><path d="m153.85,73.39c0-.09.82-.17.05-.27-.08-.01-.33,0-.4.01-.5.11-.21.19.35.26Z"/><path d="m106.05,5.94c1.44-.28,2.87.85,4.32-.38.17-.81-2.95-.11-4.42-.15.04.18.07.35.09.53Z"/><path d="m124.12,3.83l-.35.07c.11-.02.22-.04.35-.07Z"/><path d="m105.95,5.4l-.2-.06c.07.02.14.04.2.06Z"/><path d="m179.87,72.39l1.77-.04.09-.29c-1.24,0-1.83.11-1.86.33Z"/><path d="m79.57,69.54c4.37.86,4.95.36,5.03-.28l-.87-.82c-3.22-.84-5.16-.38-7.73-.55-.39.55-.24,1.11,3.56,1.66Z"/><path d="m121.57,71.74l.38.04c0-.08-.15-.08-.38-.04Z"/><path d="m269.5,5.87l.61.11-.26-.16c-.12.02-.24.03-.35.05Z"/><path d="m113.14,71.15c.3.06.6.12.91.19,0,0,.16-.03.25-.04-.38-.05-.75-.09-1.16-.14Z"/><path d="m64.05,65.81l-1.61-.44c.08.24.12.49,1.61.44Z"/><path d="m139.15,72.96l.36-.46c-.86-.02-1.81-.05-1.96.15-.15.2.68.29,1.61.31Z"/><path d="m135.29,3.75c.09-.2.1-.39-.75-.47.1.18-.27.41.75.47Z"/><path d="m131.01,2.96l.19.06c-.07-.02-.13-.04-.19-.06Z"/><path d="m137.88,2.85c-.19-.13-.19-.32-.61-.37-.56-.06-1.09.14-.9.23.37.19-1.37.71,1.28.54.08-.14.15-.27.23-.41Z"/><path d="m137.88,2.85c-.08.13-.15.27-.23.41,1.32-.17,1.2-.3.23-.41Z"/><path d="m84.06,7.3c-.12-.02-.24-.05-.39-.07-.02,0-.3.06-.32.08-.03.05.02.09.04.14l.66-.16Z"/><path d="m17.37,53.16l.33.12c-.12-.05-.24-.1-.33-.12Z"/><path d="m312.14,7.96c.45,0,.92.01,1.39.02l-.33-.15c-.38.03-.75.06-1.05.13Z"/><path d="m91.74,5.85h1.12c-.09-.09-.32-.15-.56-.2l-.56.2Z"/><path d="m144.07,2.98c-.95-.06-1.85-.1-1.58.26l1.58-.26Z"/>
                  </g>
                </mask>
              </defs>
              <path class="mask" d="m329.32,26.25c3-3.28,3.59-8.21-2.79-12.35-3.43-2.23-8.23-4.49-14.03-5.13C215.2-1.93,136.42,3.18,136.42,3.18c-17.68,1.15-101.15,6.86-126.32,23.02-2.27,1.46-7.51,4.91-8.23,9.73-1.45,9.63,16.22,17.32,23.34,20.42,50.78,22.09,244.95,24.54,287.77-9.21,3.59-2.83,13.04-10.28,10.82-19.77-2.96-12.6-24.51-20.44-31.14-22.68"
                    mask="url(#path-mask)" stroke="black" stroke-width="2" fill="none"
                    stroke-dasharray="738.5240478515625" stroke-dashoffset="738.5240478515625">
              </path>
            </svg>
        