
            <svg xmlns="http://www.w3.org/2000/svg">
              <defs>
                <mask id="path-mask">
                  <g fill="white">
                    <path d="m79.44,67.9c3.8.35,1.4-.06,2.17-.09l2.72.34c2.22.34,4.82.61,6.94.93,2.17.3,5.3.68,8.34.82,3.04.17,5.97.26,7.73.23,2.4.2,3.92.19,4.94.15,3.2.21,7.96.3,10.42.54.67.15,3.49.34,1.12.44-1.7.07-3.56.06-6.28-.16-2.25-.17-4.3-.26-5.58-.19l-2.12-.1c-2.63-.08-6.17-.72-8.24-.5-.82-.06-2.34-.17-2.37-.17-2.1.2-6.93-.42-11.12-.8l-.06-.09c1.15.06.92.02-.38-.1-.21-.02-.43-.03-.66-.05l-.12-.13c.72.06,1.76.16,1.75.11,0,0-.51-.08-.77-.1-1.21-.1-.87-.03-1-.01-1.39-.09-2.77-.23-4.15-.35-.34-.03-.68-.07-1.03-.11.52,0,3.92.28.93-.1-3.16-.41-4.24-.43-4.9-.39-.61.04-1.96-.09-4.08-.42-.18-.19-3.24-.51-5.35-.81l.11-.04c2,.18.45-.04-1.26-.28-2.3-.43-2.54-.29-3.99-.5l-.29-.07.33.07c-.15.07.7.33-3.5-.33-2.61-.42-4.86-.75-4.43-.52l-2.6-.41-2.24-.57c1.41.24,2.04.3,2.17.26,1.7.22,1.85.19.21-.14-2.25-.38-2.98-.57-2.16-.52.38.02.92.05-.57-.21-.43-.07-1.12-.18-1.7-.28-.29-.04-.55-.08-.74-.11-.19-.03-.3-.04-.3-.04.06.07-.27.06-.83,0-.56-.07-1.36-.15-2.22-.37-1.72-.42-3.76-.91-4.91-1.18-.47-.11-.67-.13-1-.19l-.42-.05c-5.17-1.57-10.46-3.59-14.97-5.44-1.14-.48-2.66-1.3-3.7-1.95-1.9-1.14-3.14-1.96-4.18-2.59-2.78-2.08-5.44-4.6-6.87-7.9v-.21c-.02-.3-.7-1.91-.63-4.08.14-1.65.05-1.12,0-1.25.56-2.97,2.55-5.41,4.79-7.29,2.27-1.9,4.83-3.46,7.54-4.83l-.23.09c.06-.06-.38.11.65-.4.28-.17.36-.3,1.72-.91-.41.36,2.24-.83,4.44-1.65,4.73-1.83,10.36-3.5,14.6-4.81,2.94-.87,4.93-1.45,7.83-2.17,1.75-.43.76-.3.89-.39l4.22-1.04,4.24-.95c2.82-.66,5.67-1.19,8.51-1.78v.12c-1.11.29-.83.3-.26.27.98-.06-.46.29-3.49.9l-2.67.61c-1.59.36-3.52.77-4.2,1.02l2.94-.62c.38-.03,2.12-.35-.1.2-1.18.2-2.37.45-3.57.8-1.41.3-2.8.67-4.19,1.01-.88.12-2.18.34-3.73.66-1.54.36-3.33.77-5.2,1.21-2.59.84-6.35,2.1-6.82,2.47-3.61,1.13-7.2,2.34-10.69,3.89-.11-.03.25-.27-.45-.02-.93.33,2.69-1.32-.64.08-2.28,1.02-1.79.91-1.52.87.13,0,.18.06-1.32.68-2.76,1.15-2.07,1.13-4.3,2.38-.34.18-.61.29-1.05.57-1.25.81-1.18.89-1.49,1.15-1.94,1.42-3.71,3.08-4.88,5.18-1.19,2.07-1.59,4.63-.81,7.07.38,1.27.94,2.14,1.39,2.77.48.62.87,1.01,1.16,1.28,2.47,3.01,5.78,5.28,9.21,7.18,3.45,1.9,7.13,3.36,10.84,4.74-.03.03-.28-.02-.05.1.65.34-2.98-.8.87.62,3.43,1.21.52.01,1.05.1.15.03,1.29.41,1.99.62,3.19.99,6.55,1.95,9.94,2.8,3.41.68,6.94,1.25,10.36,1.82,2,.33,5.28.67,6.84,1.09.9.22,4.31.82,7.99,1.36,3.68.55,7.61,1.05,9.54,1.22Zm-22.79-3.31l-.76-.07c.34.06.73.13,1,.17.26.04.38.03.57.05-.28-.05-.55-.11-.82-.16Zm-37.58-11.38c-.13-.08-.3-.19-.46-.28,0,.03.19.14.46.28Z"/><path d="m87,3.01c8.86-.87,17.62-1.27,26.44-1.77,1.2.28,6.89-.24,10.58-.35.75.07.66.19,4.6-.06,2.38-.15,5.84-.23,8.91-.32,2.46,0-5.1.54,3.9.17,1.32,0,3.17-.08,3.36.04.09.06,1.38.12,2.55.09,1.2-.03,2.3-.12,2.73-.18.7-.11-1.61-.04-2.33-.06-1.42-.07-2.43-.11-3.62-.17.72-.1,3.96-.08,3.78-.21,1.99.15,8.96-.06,8.95.19,0,.12-2.82.25-4.02.41-1.24.16-6.61.22-10.87.27-1.92.02-3.75,0-5.66.05-1.85.04-4.11,0-5.46.15-1.44.15,3.65-.06,2.72.1-2.93.18-6,.33-9.4.4-.27-.19-1.17-.31-6.24.13-3.78.34-8.56.34-12.2.76l-1.4.09-2.67.11c-4.49.07-9.31.38-14.5,1.04-3.1.11-6.61.36-11.09,1.02l-1.91.23c.22-.05.36-.09.69-.14,2.52-.37,4.2-.66,1.57-.49-.69.04-2.57.22-2.24.25.77.05-7.53,1.21-1.41.6-1.64.24-4.05.54-4,.68l-2.84.43c-.11-.06,2.15-.48.21-.25-1.55.17-3.19.51-4.43.79l-1.79.3c-3.66.69-3.91.6-4.46.57-.32-.02-1.19.1-2.93.49-.65.14-1.66.4-1.85.47-.56.2.86-.09,1.98-.3,4.03-.78-3.16.96.35.3-.84.32-3.08.79-5.16,1.33l-.05-.08c.02-.1,3.09-.98-.22-.21-2.45.55-4.11,1.16-3.59,1.16l-3.17.88-4.39,1.21c-1.25.27-1.88.38-.88-.07.46-.2.33-.22-1.05.22-1.66.53-1.9.68-2.14.82l-2.35.71-.12-.17c3.94-1.31,8.39-2.79,11.14-3.32,1.05-.19,2.51-.65,2.73-.81.16-.12-.18-.11,1.5-.61,6.94-1.99,14.25-3.47,21.8-4.49,4.62-.49,14.2-1.64,19.95-2.39Zm47.26-2.15c-.49.01-.97.05-1.45.08.41,0,.78.03,1.24.02.47,0,1.02-.05,1.9-.09-.78,0-1.24-.02-1.7,0Z"/><path d="m324.18,46.97c2.88-1.88,4.13-2.84,5.46-4.02.31-.31.41-.33.64-.54.12-.1.27-.26.48-.54.1-.14.23-.31.38-.51.13-.22.28-.47.45-.78.5-1.01.55-1.46.54-1.56-.02-.11-.15.1-.26.27-.21.34-.43.47-.63.68.58-1.15.83-2.43.69-3.68-.14-1.25-.66-2.46-1.42-3.51.04-.04.21.11.13-.1-.04-.1-.13-.31-.4-.64-.26-.33-.63-.83-1.3-1.46-.99-.96-1.78-1.58-2.29-1.99-.5-.42-.71-.63-.63-.66.16.04.88.57,1.42.93.53.39.86.64.28.06-.42-.38-1.42-1.22-2.16-1.67-2.43-1.52-.89-.38-1.46-.66-.32-.14-.57-.23-1.03-.47-.46-.22-1.36-.66-2.02-.97-.67-.29-1.1-.47-.62-.18,1.12.64,3.07,1.5,4.7,2.59l-.11.17c-6.49-4.07-13.7-6.4-20.78-8.45.61.05,1.13.07,2.25.31,1.12.26,2.85.71,5.84,1.82.99.35,2.58.95,3.02,1.01.46.07-.76-.41-2.12-.92-.41-.26-.82-.52-1.06-.73.67.21,1.35.41,2.02.64-.52-.23-1.05-.45-1.58-.66,4.84,1.5,9.25,3.46,12.94,6.07.92.74,2.7,2.18,4.43,3.81.8.8,1.74,1.86,2.33,3.25.63,1.37.85,3.07.5,4.61-.34,1.54-1.13,2.85-1.9,3.87-.79,1.01-1.52,1.82-2.03,2.39-3.42,2.86-7.52,5-11.61,6.79.07-.29-3.08,1.02-5.73,2.04-2.37.92-3.81,1.37-5.64,1.88.57-.39,4.88-1.65,6.5-2.43.61-.27,2.81-.91,3.67-1.44.53-.33-1.55.46-2.86.86-1.33.43-2.37.78-4.16,1.49-2.26.88-4.95,1.78-7.11,2.16-1.29.24-3.53.95-4.86,1.34-2.32.68-.41.26.97-.04,2.18-.47,4.32-.99,3.97-.7l-1.35.45c-2.48.41-7.12,1.71-11.12,2.56-1.55.35-5.12,1.16-4.12.69.24-.11-4.59.96-4.72,1.06-.26.21-1.57.45-3.34.76l-1.3.24c-2.42.51-5.3,1.09-4.34.64,1.2-.36,1.16-.34-.92-.06-.91.13-2.13.28-2.33.27-.72-.04,2.96-.59,3.54-.79,3.7-.69,7.58-1.52,10.76-1.92.82-.09,3.15-.67,2.99-.66-.66.05,4.41-1.07.81-.42.14-.1.53-.19,2-.5,4.8-1.02,9.61-2.09,14.37-3.63.83.33,6.08-1.73,9.11-2.86,3.52-1.33,6.01-2.57,9.54-4.36-.38.28-1.17.79-1.15.84.01.03.23-.06.81-.36.58-.3,1.53-.79,2.92-1.68Zm7.96-11.98c.09.24.22.47.26.73-.02-.35-.18-.71-.25-.99-.08-.24-.13-.36-.24-.53.12.26.15.53.23.78Z"/><path d="m206.98,68.02c4.71-.57,10.47-1.15,14.79-1.88,3.85-.3,9.7-1.3,14.24-1.95,1.29-.19,1.79-.27,2.7-.44,2.82-.52,3.46-1.01.33-.56-3.3.46-4.33.56-5.19.57-.89.01-2.52.13-5.63.77-.34.07-1.63.28-2.19.34-5.4.67-10.6,1.41-15.94,2.02-12.29,1.38-24.62,2.43-36.97,3.12l.04.12c1.04-.05,1.89-.09,2.13-.06,1.83-.13,4.03-.29,5.54-.4,3.66-.2,8.13-.72,11.03-.77,1.74,0,14.3-1.05,16.83-1.43.42-.06.86-.13.79-.14-.63-.09,1.75-.26,2.82-.37,1.3-.1,2.09-.16,3.22-.24.64-.05,2.63-.33,2.44-.25-.12.05-1.26.22-2.8.42-3.22.44-7.79.89-8.19,1.13Z"/><path d="m190.06,71.34c3.23-.18,7.07-.33,9.18-.63-.93.03-2.13.03-2.77.08-2.49.18-4.84.35-6.67.26-1.51-.08.6-.25,2.11-.41,2.68-.29,4.76-.31,6.95-.31,1.37,0,3.65-.08,4.76-.21,3.8-.43,5.5-.34,7.77-.38,1.45-.09,3.28-.25,3.66-.16.08.02-.59.12-.85.13-1.9.13-1.96.03-2.8.03l-4.05.61c2.7.14,6.17-.28,9.45-.58-.09-.09.11-.19,2.49-.38-.04-.06.16-.15-.18-.19-1.06-.11,2.86-.39,4.02-.58.32-.05,1.12-.14,1.37-.1.5.07-.81.21-2.27.39-.83.1-.2.18-.22.27,1.29-.2,5-.34,5.36-.57-.48.02-1.79.11-.52-.05l.48.05c1.89-.13.75.16,3.09-.06.82-.08,1.48-.28,2.21-.42-.04-.06.24-.13,1.36-.27-.06-.02-.13-.03-.21-.05l-1.24.11c-2.06.08-8.52.54.23-.35.57-.06.83-.17,1.23-.25-3.77.35-7.71.83-11.15.87-.42.02-5.47.59-8.86.82-.93.14-2.08.26-4.11.39-5.96.4-12.2.57-17.89,1.02-2.3-.11-6.4.31-8.82.27-2.37-.03-4.28.01-7.22.2-3.99.27-5.73.21-5.83,0l-6.59.19c.3.13-1.51.25-2.82.38,3.02.11,6.16.22-.22.52-.82.04-.28.09.54.1,2.57-.18,6.35-.09,8.53-.27,5.01-.41,4.01-.12,4.69,0l1.39-.05c.13-.08.88-.15,2.47-.2.18-.11,1.25-.17,2.79-.24l-.12-.11c1.53-.05,1.28.02,1.29.07,3,0,7.51-.15,8,.07Z"/><path d="m132.17,71.45c1.71.01,2.92-.02,3.82-.07,1.9-.1,4.23-.2.69-.36-5.55-.23-5.8.04-8.69.03l-5.3-.23c-2.47-.24-7.23-.33-10.42-.54l-.05-.15c3.06.15,6.62.16,8.91.37,2.89.23,5.89.26,9.28.32,13.32.09,26.7-.09,40.1-.68.24.05.22.12-1.44.24l-2.57.12h-1.33c-.4,0-.81.02-1.21.06-8.47.29-9.65.39-6.42.53.1,0,.13.01.19.02,7.48-.35,9.49-.02,16.8-.47,3.04-.23,7.08-.5,7.9-.36-1.99.13-4.23.44-4.89.4-1.27-.08-3.36.15-5.39.23-7.27.37-14.38.61-21.86.76-10.65.28-21.65,0-32.56-.37-2.17-.09-5.62-.19-5.78-.39,1.28-.07,3.33.02,5.58.19,2.73.23,4.58.23,6.28.16,2.8.12,5.61.26,8.35.2Zm13.35-.37c.06.06.83.16,3,.1,2.1-.06,5.18-.18,5.3-.25.23-.13-2.5.03-3.49.01-1.91.04-4.97-.04-4.81.14Zm6.24.42c1.38,0,3.83-.08,3.92-.19.05-.06-.85-.08-2.31-.05-1.57.04-3.1.08-5.13.13,1.5.05,2.43.11,3.52.1Zm-8.1-.29h-.8s.1.02.1.02c.6,0,.63-.02.7-.02Z"/><path d="m17.22,19.14c-3.02,1.41-5.38,2.52-8.6,4.51-2.3,1.48-4.82,3.44-6.65,6.18-.26.32-.41.72-.61,1.08-.18.37-.4.73-.55,1.12l-.42,1.19-.27,1.24c-.26,1.67-.07,3.39.44,4.93,1.01,3.11,3.2,5.84,5.39,7.78l.15-.12c-.43-.55-1.58-1.88-.07-.43,2.27,2.1,3.46,2.75,4.39,3.32.95.55,1.72.94,3.54,2.02-1.91-1.2-3.55-2.32-4.97-3.37-.18-.14-.33-.26-.46-.35-.23-.09.42.64-1.46-.94-1.46-1.26-2.33-2.35-2.43-2.62l-.18-.26.16.24c1.87,2.13,2.12,2.02,3.88,3.55.12.09.17.11.16.09-1.93-1.84-4.45-3.99-5.9-6.53-1.03-1.52-1.79-3.34-1.86-5.27-.09-1.92.46-3.9,1.58-5.52.27-.52.65-.85.93-1.27.15-.2.3-.41.46-.63.18-.21.37-.44.57-.7,1.23-1.64,3.65-3.47,6.16-4.88,3.52-2.14,1.79-1.37.82-1.02-.25.09-1.04.47.22-.28,1.07-.65,1.77-.9,2.24-1.1.44-.22.88-.45,1.33-.65-.77.2,2.8-1.52,2-1.3Z"/><path d="m254.47,9.76c-2.59-.46-5.28-.88-8.88-1.21-4.5-.33-9.26-.83-14.32-1.5-.97-.02-2.78-.17-4.4-.28l-2.69-.31c.32.09.8.26.92.27,4.93.41,8.21,1.01,12.95,1.49,3.45.37,6.59.73,7.5,1.07.03,0,.37.05.57.08.65.05,1.31.11,1.96.17-.54-.31,2.93.12,5.57.5,8.68,1.19,17.43,2.29,26.19,3.84,5.28.95,5.57.97,3.01.79-.78-.05-1.3-.05-1.94-.07,5.04.77,10.82,2,14.89,2.6-.94-.22-1.83-.45-2.81-.65-1.6-.34-3.94-.63-4.61-.91-.28-.11,2.27.24,3.88.5.86.13,2.46.48,3.73.74,1.06.22,2.21.49,2.73.54.68.07-.41-.22-1.5-.5-1.7-.44-2.13-.68-4.81-1.22-3.36-.82-7.08-1.58-11.57-2.25-5.15-.64-11.13-1.53-17.16-2.39.07.07-.21.1-1.3-.05-1.92-.27-.68-.2-1.1-.3-2.57-.16-5.24-.26-6.81-.93Z"/><path d="m166.49,70.49h-1.33s-.6.04-.6.04l-.6.02c-8.47.29-9.65.39-6.42.53.1,0,.13.01.19.02,7.48-.35,9.49-.02,16.8-.47,3.04-.23,7.08-.5,7.9-.36,2.2-.21,6.13-.51,7.78-.75-2.11.06-.06-.26,1.05-.34,3.24-.25,1.27.04,1.74.08.1,0,0,.03,0,.05,2.48-.08,6.68-.64,9.46-.81,1.7-.23,3.21-.39,4.51-.47.41-.24,4.99-.69,8.21-1.13,1.55-.2,2.69-.37,2.8-.42.18-.08-1.8.2-2.44.25-1.12.09-1.92.15-3.22.24-1.08.11-3.46.28-2.82.37.07,0-.37.08-.79.14-2.54.38-15.1,1.43-16.83,1.43-2.9.05-7.37.56-11.03.77-1.52.11-3.71.27-5.54.4-1.78.16-1.86.09-2.13.06l-.04-.12-2.62.12c.24.05.22.12-1.44.24-.33.04-.56.1-.99.12-1.39.08-1.4.03-1.58,0Z"/><path d="m24.36,57.52l.05.11c.92.57,1.63,1.07,2.83,1.7,1.28.67,3.19,1.42,5.32,2.08,2.13.64,4.46,1.21,6.59,1.58.53.09.8.11,1.45.24,2.41.48,2.62.29.25-.33q-.98-.27-1.58-.26c-.28,0-.23.12-2.03-.33-.55-.14-1.14-.38-1.71-.57-3.34-.98-3.07-1.1-3.78-1.46,3.81,1.1,7.75,2.08,11.74,2.98-1.7-.15,2.22.76,4.08,1.21.69.09,1.37.19,2.06.26l4.13.67c.06.03.07.05.04.06-2.55-.2,1.32.68,1.16.87-.83-.13-1.67-.26-2.5-.41-.04-.02,0-.03-.13-.05-1.75-.39-1.39-.55-3.56-.9-3.19-.57.33.29-.3.29l-1.51-.15c-6.02-1.21-12.18-2.56-17.85-4.64-.82-.29-1.65-.59-2.46-.92l-.05-.16.53.17-.69-.24-1.51-.65c-.76-.35-1.81-.89-1.82-.79-.81-.35-1.62-.71-2.42-1.09l.34.14.35.2c-.8-.45-2.18-1.22-3.51-1.97-1.32-.76-2.54-1.55-3.03-1.98-.23-.2-1.59-1-3.18-2.02-1.59-1.02-3.39-2.31-4.58-3.31-.4-.33-.66-.54-.98-.8-.43-.55-1.58-1.88-.07-.43,2.27,2.1,3.46,2.75,4.39,3.32.95.55,1.72.94,3.54,2.02,3.5,2.1,7.01,3.9,10.4,5.57Zm16.42,5.96c.11.06.38.17.59.25.18.02.49.07.5.05.02-.03-.17-.1-.3-.17-.38-.06-.82-.15-.79-.13Z"/><path d="m219.28,69.38c-2.37.19-2.58.29-2.49.38l2.22-.13,1.71-.15c2.13-.15,4.23-.3,6.36-.45,2.13-.18,4.28-.39,6.54-.64,1.84-.2,4.5-.5,6.71-.65,2.42-.15,6.97-.71,7.75-.81,8.14-1.23,16.03-2.2,23.84-3.4,2.87-.45,4.64-.9,6.99-1.32,11.92-2.24,23.84-4.95,35.24-9.34,1.22-.47,2.48-.97,3.13-1.35.07-.29-3.08,1.02-5.73,2.04-2.37.92-3.81,1.37-5.64,1.88-.82.36-2.46.83-3.88,1.25l-1.35.45c-2.48.41-7.12,1.71-11.12,2.56-1.55.35-5.12,1.16-4.12.69.24-.11-4.59.96-4.72,1.06-.26.21-1.57.45-3.34.76-.42.14-.87.22-1.33.24-2.39.51-5.27,1.09-4.31.64-.66.11-1.32.21-1.98.32-2.05.44-4.16.9-7.05,1.18-2.35.5-4.63,1.09-7.74,1.12l-3.8.48c-.8.29-3.36.51-5.41.76-3.01.36-2.49.18-2.71.11-3.45.61-6.94.92-10.44,1.06-.73.14-1.39.34-2.21.42-2.34.22-1.2-.06-3.09.06-.32.23-4.03.36-5.32.57l-2.71.21Z"/><path d="m77.31,69.46c1.85.31,3.9.59,6.69.74-1.57-.27-3.11-.54-1.23-.48,1.48.05,2.59.34,4.18.43,2.06.4,3.27.38,4.66.36,1.59,0,3.13.08,4.19.33,3.77.21,3.2,0,3.88-.09-.55-.18-3.58-.44-5.05-.65-2.49-.33-5.8-.62-8.96-.85-2.38-.18-4.42-.39-6.7-.65-2.33-.16.05.35-3.96-.1-2.97-.34-2.46-.44-2.92-.59-.88-.09-1.76-.19-2.64-.3.18.12.52.26.47.35-.03.06-1.25-.07-2.39-.22-.99-.13-1.73-.26-1.15-.23.85.04,3.17.28.73-.11-.61-.1-2.77-.24-4.22-.41-.46-.04-.71-.02-1.63-.21l1.66.22c-.96-.41-4.26-.81-7.7-1.31-1.09.05,4.12,1,3.72,1.14,5.69.7,5.61.87,5.14,1,2.29.27,4.15.64,6.51.89-.31-.27,2.24-.18,6.18.3,5.46.62-1.79.02.09.33.26.05.3.07.44.11Z"/><path d="m109.95,5.85l-2.15.21-4.16.47-1.53.18s.08.03.13.04c.9-.08,1.35-.1.59.03-.11.01-.48.06-.61.08-1.18.1.06-.08.06-.11-2.17.24-3.77.45-4.77.66-1.59.32-3.66.61-5.32.79-1.66.18-2.92.26-2.87.22.29-.28-3.13.23-5.62.53-3.12.51-6.19,1.14-9.34,1.71-1.37.28-4.04.74-3.26.72.64-.01,3.51-.63,4.25-.7,2.28-.27,5.74-1.15,7.05-1.08,1.73-.23,3.78-.53,4.06-.46,1.46-.22,3.01-.44,3.96-.48,3.21-.4,6.44-.8,9.63-1.11,6.31-.66,11.76-1.39,18.15-1.81v-.14c-1.58.13-3.21.28-4.04.26.09-.09.14-.18,2.54-.38l-1.15-.09-5.62.47Z"/><path d="m161.02,72.06c-.82-.01-1.35-.06-.54-.1,6.38-.31,3.24-.41.23-.52l-2.46.07.05.2.31.02-.29-.02c-2.24-.03-7.09.2-6.72-.1-3.71.08-7.07-.14-11.2.07-.59.03-3.18-.04-3.31-.16l-3.91-.03c-1.7.16-6.64.17-5.69.43.04.01-.85.02-1.31.03-2.89-.43-4.13.02-6.41-.09.01.02,0,.04,0,.07,6.69.51,8.29.17,10.64-.03h.51s-.54,0-.54,0c.67.02,1.62.04,2.41.06.79.02,1.42.04,1.44.06.67.5,5.56.2,9.51.14,4.13-.07,8.88-.22,12.52-.07,1.79.03,1.53.21,4.65.12l.08-.14Z"/><path d="m32.34,14.09l-2.35.71c-5.7,1.88-5.67,1.72-5.16,1.28-1.88.61-1.75.69-2.65,1.05.89-.17.65.05-.42.58-1.08.53-3.01,1.35-5.48,2.49,1.2-.38,1.35-.28.19.42,1.3-.44,2.33-.95,3.4-1.48-.74.28-.95.31.04-.12,1.36-.55,1.16-.39,1.32-.4,3.01-.97,7.36-2.62,10.56-3.68,5.24-1.78,11.01-3.4,16.05-4.8l-.05-.08c-1.24.3-2.49.58-3.72.93-1.13.43-2.2.67-3.26.91l-4.39,1.21c-.29.18-.53.34-2.87,1.09-1.58.51-2.5.74-3.27.93-1.8.44.56-.45,2.06-1.05Z"/><path d="m82.41,9.61c-1.31-.07-4.77.81-7.05,1.08-.74.07-3.61.69-4.25.7-.78.02,1.89-.44,3.26-.72,3.15-.57,6.22-1.21,9.34-1.71l-1.15.06-1.53.22c-2.09.44-4.49.84-6.94,1.25-2.45.46-4.98.88-7.33,1.36-1.11.29-.83.3-.26.27.98-.06-.46.29-3.49.9l-.05.07c-.03.1-.92.3-2.78.68-.38.09-.75.17-1.11.26.38-.03,2.12-.35-.1.2l.12.04c7.41-1.57,14.86-2.86,22.37-4.13-1.22.07-3.47.27.94-.53Z"/><path d="m191.01,4.1c-1.57-.06-1.41-.33-4.22-.24-2.1.06-4.08-.2-6.16-.22-.6.23-3.42.1-6.4-.05-2.52-.14-4.6-.13-6.5-.05-1.97.07-2.84.17-.76.31,2.8.03,5.37.17,8.38.18,9.36.06,10.39.13,17.87.66.18.01.53.04.58.04,1.91-.02,4.32.13,6.73.29,2.41.18,4.83.37,6.78.39-.36-.14-.4-.27-3.03-.5-.1.08-.72.05-2.52-.08-3.8-.26-7.35-.5-10.75-.74Z"/><path d="m82.41,9.61c-4.41.79-2.17.59-.94.53,2.93-.35,4.9-.55,9.07-1.27,3-.54,9.07-1.13,13.92-1.64,6.52-.69,13.39-1.29,20-1.63,2.9-.15,4.82-.25,4.49-.41-.32-.15-2.67-.05-5.29.18-1.82.13-3.64.26-5.45.38-6.4.42-11.85,1.15-18.16,1.81-3.19.31-6.42.71-9.63,1.11-.77.13-1.64.27-2.3.38-1.46.2-1.61.15-1.67.1-.28-.07-2.33.23-4.06.46Z"/><path d="m130.43,71.89c-2.36.21-3.96.54-10.64.03l-5.36-.06c-1.42,0-2.91,0-2.54.12,2.5.27,5.79.23,8.54.29,10.5.23,21,.3,31.57.05,2.82-.07,3.22-.15,4.3-.24-3.64-.15-8.4,0-12.52.07-3.96.06-8.85.36-9.51-.14-.02-.02-.65-.03-1.44-.06-.79-.02-1.73-.05-2.38-.06Z"/><path d="m280.91,14.59c.64.02,1.16.02,1.94.07,2.57.18,2.27.17-3.01-.79-8.76-1.55-17.51-2.65-26.19-3.84-2.64-.37-6.11-.81-5.57-.5,4.91.85,10.29,1.53,16.23,2.23,3.83.47,6.73.95,5.96,1.11,3.85.45,7.01,1.14,10.64,1.72Z"/><path d="m207.31,5.42c-1.95-.01-4.37-.2-6.78-.39-2.41-.16-4.81-.32-6.73-.29-.05,0-.4-.03-.58-.04-7.48-.53-8.51-.61-17.87-.66-3.01-.01-5.57-.15-8.37-.18,1.18.24,2.48.42,7.08.64l3.38-.06c1.25-.11,3.16-.03,5.87.08,3.3.14,7.29.32,10.15.44,5.76.33,10.9.4,16.37.95l-1.43-.39c-.37-.03-.73-.06-1.08-.08Z"/><path d="m139.84,4.56c1.72-.26,3.12-.52-3.8-.26-2.23.09-.83-.06-.67-.12,1.7-.13,3.49-.22,5.17-.28,1.67-.03,3.22-.04,4.44-.03,6.18.04,7.58-.11,8.91-.39l1.27-.03c4.07.09,10.74.14,4.4.5-1.14.07-1.11.18-1.63.27-3.5,0-7,.1-10.49.15-2.26.06-3.96.11-4.19.25-1.3.03-2.6.05-3.89.11.15-.06.09-.11.48-.17Zm11.15-.47c.14,0,.37,0,.7-.03-.19,0-.39,0-.7.03Z"/><path d="m147.9.18c1.99.15,8.96-.06,8.95.19,0,.12-2.82.25-4.02.41-1.24.16-6.61.22-10.87.27-1.92.02-3.75,0-5.66.05-1.85.04-4.11,0-5.46.15-1.44.15,3.65-.06,2.72.1,6.27.02,14.07-.32,20.56-.15,2.05.06,1.59-.12,3.24-.14,1.59-.06-5.56-.18.31-.22,1.97-.18,7.14-.21,6.36-.46-1.22-.04-2.8-.06-3.59-.1-1.97-.11-1.92-.42-6.94-.17-.05,0-1.81-.06-2.93-.1-3.27-.04-6.38.02-9.12.16.94.23,4.57-.07,6.43,0Z"/><path d="m165.39,1.08c1.63.04,2.8.08,3.64.16,2.11.2,6.11.38,9.25.39,2.8.02,5.34-.02,5.66-.17.59-.26-2.92-.56-10.77-.76-1.92-.03-4.3-.19-6.47-.27-2.38.09-1.47.25,1.1.39,2.6.15,4.99.14,6.85.09.68-.02,3.82.03,3.54.14-.24.09,1.57.25.41.31-.71.04-1.05.11-3.18.05-2.2-.06-3.17-.14-3.42-.23-.27-.08-.59-.16-3.04-.21-2.38-.04-3.6,0-3.58.1Z"/><path d="m209.82,5.89c-5.47-.54-10.61-.62-16.37-.95-2.85-.12-6.85-.3-10.15-.44-2.71-.11-4.62-.19-5.87-.08,2.31.23,5.2.36,8.23.46,3.02.14,6.19.2,9.04.37,8.53.45,17.25.91,25.52,1.84l.69-.03c-1.22-.21-5.53-.69,1.06-.18,2.16.19,3.39.18-.32-.2-3.92-.28-6.8-.25-11.82-.8Z"/><path d="m170.11,70.87c.09.22,1.84.28,5.83,0,2.94-.19,4.84-.23,7.22-.2,2.43.04,6.52-.38,8.82-.27,5.69-.45,11.93-.62,17.89-1.02,2.04-.13,3.18-.24,4.11-.39-5.49.2-11.42.52-17.81.88-4.08.21-8.21.42-12.66.5-3.88.09-8.89.34-13.4.49Z"/><path d="m68.78,6.03l-2.84.43c-1.41.14-2.82.35-4.23.53-.6.1-1.19.2-1.79.3-1.93.43-3.85.83-5.76,1.29,3.46-.42,10.25-1.79,15.18-2.46,9.79-1.38,19.74-2.34,29.68-3.06l2.65-.24c-4.49.07-9.31.38-14.5,1.04-4.22.42-8.65,1.03-11.09,1.02-.64.08-1.27.15-1.91.23-.45.07-.9.13-1.35.2.03.04.08.06.14.07.14,0,.28,0,.42,0l-.94.1c-1.21.18-2.43.34-3.65.55Z"/><path d="m35.45,20.37c-3.61,1.13-7.19,2.34-10.69,3.89-2.78,1.18-5.38,2.45-7.36,3.48-1.76,1.02-2.58,1.62-3.41,2.22-1.94,1.42-3.71,3.08-4.88,5.18-1.19,2.07-1.59,4.63-.81,7.07.38,1.27.94,2.14,1.39,2.77.48.62.87,1.01,1.16,1.28-1.12-1.39-2.03-2.95-2.46-4.65-.45-1.69-.32-3.5.33-5.12.65-1.62,1.74-3.07,3.03-4.29,1.28-1.25,2.74-2.32,4.26-3.29,6.14-3.84,13.07-6.34,19.97-8.6l-.54.06Z"/><path d="m135.36,4.19c1.7-.13,3.49-.22,5.17-.28,1.67-.03,3.22-.04,4.44-.03,6.18.04,7.58-.11,8.91-.39-10.17.06-20.36.34-30.49,1.2-2.45.22-3.99.18-5.98.35-2.74.26-6.97.52-7.46.82l5.62-.47c3.08-.26,6.16-.41,9.24-.62,3.52-.2,7.04-.44,10.56-.58Z"/><path d="m63.17,65.96c-.15.07.7.33-3.5-.33-2.61-.42-4.86-.75-4.43-.52,10.75,1.83,21.57,3.35,32.86,4.23l-.06-.09-.38-.1c-.21-.02-.43-.03-.66-.05-1.89-.12-3.77-.3-4.3-.48-.34-.03-.68-.07-1.03-.11l-3.97-.49c-.61.04-1.96-.09-4.08-.42-2.34-.3-4.78-.48-6.88-.88-.7-.13.37-.05,1.53.07l.11-.04-1.26-.28c-2.3-.43-2.54-.29-3.96-.5Z"/><path d="m155.15,3.46c4.07.09,10.74.14,4.4.5-1.14.07-1.11.18-1.63.27,1.94.01,1.29.09,1.41.14l2.6-.02c-.81-.15,2.55-.2,2.64-.32l-1.74-.04c.13,0,.37-.02.38-.02.48.02.94.04,1.4.06,2.3.11.89.22,1.37.34,2.62.18,5.29.23,8.06.12-4.6-.21-5.9-.4-7.08-.64-2.09-.14-1.22-.23.75-.31,1.9-.08,3.98-.09,6.5.05,2.97.15,5.8.28,6.4.05-6.7-.24-13.54-.23-20.15-.33-2.61-.03-3.98.04-5.33.14Z"/><path d="m221.64,6.69c3.71.38,2.48.38.32.2-6.6-.51-2.28-.03-1.06.18,1.14-.04,3.19.26,4.78.38-.16-.1,1.05-.11,2.02.02,4.79.64,8.22.72,12.41,1.22,2.25.14,2.36.25,2.52.35,2.25.37,2.82.35,3.49.34-.2-.03-.54-.08-.57-.08-.91-.34-4.05-.7-7.5-1.07-4.74-.48-8.02-1.08-12.95-1.49-.12-.01-.61-.18-.92-.27l-5.14-.58-2.73-.31-.33.16c5.84.52,6.16.76,5.66.95Z"/><path d="m292.41,15.7c2.68.53,3.11.78,4.81,1.22,1.08.28,2.18.57,1.5.5-.52-.05-1.67-.32-2.73-.54-1.27-.27-2.87-.62-3.73-.74-1.61-.26-4.16-.61-3.88-.5.67.28,3.01.57,4.61.91.98.2,1.88.43,2.81.65,1.2.38,2.34.52,3.5.78,1.95.4,4.03.85,3.49.59-2.11-.99,3.92.41,9.21,2.16-.61-.33-3.39-1.14-3.57-1.32-4.4-1.22-8.57-2.38-13.08-3.31-3.23-.67-2.55-.4-2.94-.4Z"/><path d="m240.11,8.68c-4.18-.5-7.62-.57-12.41-1.22-.97-.13-2.19-.12-2.02-.02,8.4.81,16.74,1.71,25.11,2.71,4.19.52,8.59,1.13,12.74,1.77,2.5.38,4.54.66,6.74.94.77-.16-2.13-.64-5.96-1.11-5.94-.69-11.33-1.38-16.23-2.23-.66-.06-1.31-.11-1.96-.17-.66.01-1.24.03-3.49-.34l-2.52-.35Z"/><path d="m135.36,4.19c-3.52.14-7.04.37-10.56.58l-.1.14c1.44-.1,2.71-.13,2.49-.04-.22.1-1.68.16-2.99.26-.48.1-.51.17-.54.24,2.62-.22,4.97-.32,5.29-.18,3.37-.13,6.86-.27,10.41-.45.15-.06.09-.11.48-.17,1.72-.26,3.12-.52-3.8-.26-2.23.09-.83-.06-.67-.12Z"/><path d="m114.42,71.87l5.36.06v-.07s-.28-.03-.28-.03l.28.03c2.28.11,3.51-.34,6.41.09.46-.01,1.35-.02,1.31-.03-.95-.25,3.99-.27,5.69-.43-.28-.08-1.48-.08-2.54-.09-1.4.11-3.63.04-5.61.02-1.46-.06-2.38.19-3.15-.01-.82-.22-3.25-.14-4.6-.23-2.33.07-3.38-.04-4.16-.19-1.38-.08-3.02-.27-3.89-.12l-.6.08c1.62.12,2.42.25,4.7.33,1.55.1.96.15,1.09.23,7.09.33-.95.21,0,.36Z"/><path d="m84.33,68.15c2.22.34,4.82.61,6.94.93,2.17.3,5.3.68,8.34.82,3.04.17,5.97.26,7.72.22-3.26-.21-6.89-.44-4.58-.51-1.56-.11-3.13-.23-4.68-.34-1.56-.14-3.11-.27-4.65-.41-3.08-.28-6.12-.49-9.09-.71Z"/><path d="m114.42,71.51c7.09.33-.95.21,0,.36-1.42,0-2.91,0-2.54.12-4.04-.12-8.33-.15-11.98-.61-.18-.02-.23-.04-.17-.05,5.32.09,5.77-.2,5.49-.52l3.4.15c1.62.12,2.42.25,4.7.33-.15.06-.2.14,1.09.23Zm-4.24.07c.85.06,1.67.04,1.4-.01-.54-.1,2.18-.15-1.9-.29-2.03-.05-1.87,0-.4.13.28.06.25.13.9.18Z"/><path d="m207.35,70.34c-1.24.07-2.27,0-3.67.2-3.11.42-3.41.21-4.43.17-.93.03-2.13.03-2.77.08-2.49.18-4.84.35-6.67.26-1.51-.08.6-.25,2.11-.41,2.68-.29,4.76-.31,6.95-.31,1.37,0,3.65-.08,4.76-.21,3.8-.43,5.5-.34,7.77-.38-1.34.2-2.69.4-4.04.61Zm-14.83.52s.47-.03.49-.04c.06-.02-.02-.04-.04-.05l-1.03.07c.18,0,.35.01.58.02Z"/><path d="m37.92,61.29c-5.17-1.57-10.46-3.59-14.97-5.44-1.14-.48-2.66-1.3-3.7-1.95-1.9-1.14-3.14-1.96-4.18-2.59,1.8,1.44,3.99,2.76,6.33,3.94,2.34,1.17,4.84,2.17,7.26,3.08,3.14,1.18,6.2,2.27,9.3,3.24,1.55.49,3.11.95,4.7,1.37.79.21,1.6.43,2.43.61.82.14,1.66.27,2.49.41.97.15,2.15.36,2.6.38-.66-.18-1.56-.38-2.63-.58-1.07-.23-2.32-.36-3.63-.7-3.16-.73-4.6-1.24-5.99-1.77Z"/><path d="m165.39,1.08c-.01-.1,1.2-.14,3.58-.1,2.45.05,2.78.13,3.04.21.25.08,1.21.16,3.42.23,2.12.06,2.47-.01,3.18-.05,1.15-.06-.66-.22-.41-.31.27-.11-2.86-.15-3.54-.14-1.86.05-4.25.06-6.85-.09-2.57-.14-3.48-.3-1.1-.39-.88-.06-1.76-.1-2.65-.06.78.25-4.39.27-6.37.46,1.4.05,2.68.13,2.77.21l4.94.03Z"/><path d="m232.62,68.12c3.5-.14,6.99-.46,10.45-1.06,2.02-.45,8.29-1.11,9.37-1.56l-.5-.17c-2.29.24-4.36.47-6.23.79-.29.08.57.04-.81.22l-.44-.08c-.39.03-.8.08-1.25.13-5.4.62-4.27.88-9.23,1.45-1.12.13-1.4.21-1.36.27Z"/><path d="m82.55,9.01l1.15-.06c2.49-.31,5.91-.81,5.62-.53-.05.04,1.21-.04,2.87-.22,1.66-.18,3.73-.47,5.32-.79,1-.21,2.6-.42,4.77-.66-.1,0-.14-.02-.18-.03l.08-.2c-6.49.64-12.92,1.31-19.63,2.49Z"/><path d="m22.04,24.52c-.41.36,2.24-.83,4.44-1.65,4.73-1.83,10.36-3.5,14.6-4.81,2.94-.87,4.93-1.45,7.83-2.17,1.75-.43.76-.3.89-.39-6.19,1.53-12.2,3.07-18.52,5.38-2.73.99-6.19,2.25-9.23,3.64Z"/><path d="m158.24,71.51l2.46-.07c1.31-.13,3.12-.25,2.82-.38-6.63.05-13.73.35-20.45.19-2.71-.07-3.54.21-5.98.27.13.11,2.71.19,3.31.16,4.13-.21,7.49,0,11.2-.07,2.39-.44,4.41-.01,6.65-.1Z"/><path d="m269.76,63.41c.66-.11,1.32-.21,1.98-.32,1.19-.35,1.15-.34-.93-.05-.91.13-2.13.28-2.33.27-.72-.04,2.96-.59,3.54-.79l-2.79.31-4.32.65c-2.91.5-5.82,1.05-8.74,1.52,3.01-.29,4.48-.47,4.32-.36-.16.09-1.96.47-5.51,1.05,3.1-.03,5.38-.61,7.74-1.12,2.33-.36,3.41-.93,7.05-1.17Z"/><path d="m312,20.72c-5.29-1.74-11.33-3.15-9.21-2.16.54.26-1.54-.19-3.49-.59.55.37,3.33.84,4.94,1.31.61.05,1.13.07,2.25.31,1.12.26,2.85.71,5.84,1.82.99.35,2.58.95,3.02,1.01.46.07-.76-.4-2.06-.89l-.57-.18.51.15-1.23-.78Z"/><path d="m99.9,71.37c-.18-.02-.23-.04-.17-.05-.58-.14-4.7-.35-3.92-.47-1.06-.24-2.6-.34-4.19-.33-1.39.01-2.6.04-4.66-.36-1.59-.09-2.7-.38-4.18-.43-1.88-.06-.35.21,1.23.48,5.37.54,11.07,1.17,15.9,1.17Z"/><path d="m21.38,57.12c-.8-.45-2.18-1.22-3.51-1.97-1.32-.76-2.54-1.55-3.03-1.98-.23-.2-1.59-1-3.18-2.02-1.59-1.02-3.39-2.31-4.58-3.31-.4-.33-.66-.54-.98-.8l-.15.12c3.47,3.43,7.43,5.67,11.53,8.02,1.03.55,2.07,1.09,3.12,1.6.41.2.68.32.79.35Z"/><path d="m61.91,65.31c.9.22,4.31.82,7.99,1.36,3.68.55,7.61,1.05,9.54,1.22,3.8.35,1.4-.06,2.17-.09-2.41-.23-4.84-.44-7.11-.83-.49-.09-2.17-.31-2.27-.32-3.09-.18-6.94-.89-10.31-1.35Z"/><path d="m147.9.18c-1.85-.07-5.48.23-6.43,0-1.9-.07-3.78.02-5.66.12-3.14.25-8.11.33-11.79.58.75.07.66.19,4.6-.06,2.38-.15,5.84-.23,8.81-.32l1.64-.11.52.03-2.07.09c2.46,0-5.1.54,3.9.17.31-.1-.87-.22,2.69-.29.72-.1,3.96-.08,3.78-.21Z"/><path d="m19.67,25.84c.06-.06-.38.11.65-.4-3.63,1.79-7.34,3.89-10.17,6.95-1.39,1.53-2.46,3.4-2.82,5.41-.36,2.01.06,4.01.87,5.61v-.21c-.72-1.65-.97-3.54-.63-5.33.56-2.97,2.55-5.4,4.76-7.27,2.24-1.89,4.75-3.42,7.34-4.76Z"/><path d="m124.02.88c3.68-.26,8.66-.34,11.79-.58-.43-.19-3.35.05-4.86.09-5.77.12-11.71.45-17.51.84,1.2.28,6.89-.24,10.58-.35Z"/><path d="m29.87,14.63c3.94-1.31,8.39-2.79,11.14-3.32,1.05-.19,2.51-.65,2.73-.81.16-.12-.18-.11,1.5-.61.49-.35-2.86.64-4.65,1.12-4.01,1.17-8.02,2.46-12,3.8.35-.03-.62.4,1.27-.18Z"/><path d="m10.61,23.49c-2.51,1.41-4.93,3.24-6.16,4.88-.2.26-.39.49-.57.7-.16.22-.31.43-.46.63-.28.41-.66.75-.93,1.27-1.12,1.62-1.67,3.6-1.58,5.52.07,1.93.82,3.76,1.86,5.27-.87-1.61-1.58-3.57-1.58-5.67-.04-2.11.83-4.23,2.08-6.03,1.89-2.66,4.56-4.71,7.38-6.43l-.04-.14Z"/><path d="m321.59,48.17c-.38.28-1.17.79-1.15.84.01.03.23-.06.81-.36.58-.3,1.53-.79,2.92-1.68,2.88-1.88,4.13-2.84,5.46-4.02.31-.31.41-.33.64-.54.12-.1.27-.26.48-.54.1-.14.23-.31.38-.51.13-.22.28-.47.45-.78.5-1.01.55-1.46.54-1.56-.02-.11-.15.1-.26.27-.21.34-.43.47-.63.68-.94,1.86-2.5,3.4-4.18,4.72-1.69,1.33-3.55,2.46-5.47,3.48Z"/><path d="m64.09,67.83c.46-.13.55-.3-5.14-1l-3.98-.51c-.83-.13-1.67-.26-2.5-.41-1.07-.13-2.55-.39-3.98-.67l-1.51-.15c-.15.1,1.6.43,2.99.65,4.7.83,9.41,1.46,14.13,2.08Z"/><path d="m269.23,62.84l2.79-.31c3.7-.69,7.58-1.52,10.76-1.92.82-.09,3.15-.67,2.99-.66-.66.05,4.41-1.07.81-.42-5.73,1.22-12.04,2.17-17.35,3.31Z"/><path d="m62.9,67c1.44.16,3.61.31,4.22.41,2.43.38.11.15-.73.11-.57-.03.17.11,1.15.23,1.14.15,2.36.28,2.39.22.05-.09-.29-.23-.47-.35-4.74-.78-10.15-1.49-15.5-2.36l-.2.14c.06.03.07.05.04.06l1.43.23c3.45.5,6.74.9,7.67,1.31Z"/><path d="m233.98,67.85c4.96-.56,3.83-.83,9.23-1.45-2.78.13-5.6.27-9.22.91-.4.09-.66.2-1.23.25-8.74.89-2.29.42-.23.35.21-.07-.03-.11,1.53-.25l-.3.14c.08.01.15.03.21.05Z"/><path d="m325.56,26.82c.92.74,2.7,2.18,4.43,3.81.8.8,1.74,1.86,2.33,3.25.63,1.37.85,3.07.5,4.61-.34,1.54-1.13,2.85-1.9,3.87-.79,1.01-1.52,1.82-2.03,2.39,1.38-1.23,2.68-2.63,3.5-4.38.87-1.71,1.04-3.85.42-5.67-.6-1.84-1.76-3.34-3.04-4.61-1.29-1.27-2.72-2.34-4.21-3.26Z"/><path d="m219.05,5.88l5.14.58,2.69.31c0-.16,2.23.04,4.4.28,5.06.67,9.82,1.17,14.32,1.5-.42-.12-1.79-.36-2.73-.44-7.69-.72-16.31-1.84-23.82-2.23Z"/><path d="m124.16,1.74c-.27-.19-1.17-.31-6.24.13-3.78.34-8.56.34-12.2.76,5.51-.05,12.17-.61,18.44-.89Z"/><path d="m51.2,16.03c-.88.12-2.18.34-3.73.66-1.54.36-3.33.77-5.2,1.21.79,0-1.1.66-3.56,1.56,2.6-.68,4.9-1.37,7.29-2.06,1.24-.52,3.37-.93,5.21-1.36Z"/><path d="m67.05,5.39c4.62-.49,14.2-1.64,19.95-2.39-5.71.4-11.43,1.11-17.12,1.92-.13.13-1.52.31-2.83.47Z"/><path d="m180.9,71.3c-1.55.07-2.61.13-2.57.22h1.7s.38.05.38.05l-1.26.02-1.04-.05c-1.59.05-2.34.12-2.47.2,4.85-.11,9.07-.05,14.43-.41-.48-.22-5-.07-8-.07-.39.01-.78.02-1.17.04Z"/><path d="m263.68,11.05c6.03.87,12.02,1.75,17.16,2.39-2-.45-3.89-.81-6.93-1.15-3.85-.42-8.58-1.27-12.83-1.78l.22.18c.78.11,1.57.23,2.37.35Z"/><path d="m16.28,20.21c2.47-1.15,4.4-1.96,5.48-2.49,1.07-.53,1.31-.75.42-.58-1.66.63-3.32,1.3-4.96,2,.8-.22-2.77,1.5-2,1.3,1.44-.59.89-.23,1.06-.23Z"/><path d="m256.17,65.01c2.92-.47,5.82-1.01,8.74-1.52-2.22.26-4.43.54-6.6.85-2.17.3-4.31.6-6.37.99l.5.17,3.74-.49Z"/><path d="m105.23,70.8l3.4.15.6-.08c-4.95-.25-9.98-.64-14.59-.76,1.47.21,4.5.47,5.05.65.95.03,1.76.05,2.57.07.22-.09.35-.16,2.96-.03Z"/><path d="m10.61,23.49l.04.14c1.89-1.08,3.82-2.12,5.82-3,1.16-.7,1.02-.8-.19-.42-2.93,1.33-2.27.96-2.39.88-.47.2-1.17.44-2.24,1.1-1.27.75-.47.37-.22.28.97-.35,2.7-1.12-.82,1.02Z"/><path d="m161.02,72.06l-.08.14c4.52-.09,9.47,0,13.29-.42-.67-.11.32-.4-4.69,0-2.18.17-5.95.08-8.53.27Z"/><path d="m215.98,5.74l.33-.16c-5.11-.54-9.76-.73-14.51-.95l2.47.29c2.63.23,2.66.36,3.03.5.35.03.71.06,1.08.08.03-.25.84-.42,7.6.24Z"/><path d="m157.93,4.23c-3.5,0-7,.1-10.49.15-2.26.06-3.96.11-4.19.25,4.67.02,9.86-.23,14.71-.2,0-.06.02-.13-.03-.2Z"/><path d="m204.28,4.92l-2.47-.29c-3.78-.31-7.69-.68-10.8-.52,3.4.23,6.95.48,10.75.74,1.8.13,2.42.16,2.52.08Z"/><path d="m77.31,69.46c-.14-.04-.18-.07-.44-.11-1.87-.31,5.38.29-.09-.33-3.94-.48-6.49-.57-6.18-.3,2.31.3,4.75.69,6.71.74Z"/><path d="m37.92,61.29c1.39.53,2.84,1.05,5.99,1.77,1.32.34,2.57.47,3.63.7,1.07.2,1.97.4,2.63.58.93.14,2.11.35,2.46.35-.75-.19-1.5-.38-2.25-.57-2.03-.39-4.07-.68-6.09-1.14-2-.5-3.98-1.04-5.96-1.63l-.42-.05Z"/><path d="m102.74,69.61c-2.31.07,1.32.3,4.58.51,2.4.2,3.93.19,4.95.15l-.05-.15c-3.11-.07-6.2-.28-9.48-.51Z"/><path d="m66.75,11.85c2.35-.48,4.88-.91,7.33-1.36,2.46-.42,4.85-.82,6.94-1.25-2.39.32-4.78.7-7.15,1.13l-7.12,1.37v.12Z"/><path d="m302.94,55.4c.83.33,6.08-1.73,9.11-2.86-.24-.04.61-.46-3.09.91-1.85.67-3.99,1.34-6.02,1.95Z"/><path d="m72.1,67.92c.46.15-.06.25,2.92.59,4.01.45,1.64-.05,3.96.1-3.18-.52-4.59-.47-6.88-.69Z"/><path d="m54.15,8.58c1.91-.46,3.84-.86,5.76-1.29-3.65.69-3.91.6-4.46.57-.32-.02-1.19.1-2.93.49-.65.14-1.66.4-1.85.47-.56.2.86-.09,1.98-.3,4.03-.78-3.16.96.35.3.36-.08.75-.16,1.15-.24Z"/><path d="m109.83,70.8c-2.63-.08-6.17-.72-8.24-.5,1.11.28,1.11.29,8.24.5Z"/><path d="m35.53,61.73c-3.34-.98-3.07-1.1-3.78-1.46-1.3-.4-2.63-.9-3.9-1.37-1.26-.49-2.45-1-3.49-1.38l.05.11c1.76.88,4.97,2.01,5.25,2.21.57.52,3.27,1.25,5.88,1.9Z"/><path d="m43.5,63.25c-1.7-.15,2.22.76,4.08,1.21.69.09,1.37.19,2.06.26l1.66.02c-2.68-.51-5.06-.81-7.79-1.49Z"/><path d="m325.13,27.56l-.11.17c.5.35,1.01.69,1.48,1.08.49.37.96.76,1.42,1.18.94.81,1.81,1.73,2.59,2.79.04-.04.21.11.13-.1-.04-.1-.13-.31-.4-.64-.26-.33-.63-.83-1.3-1.46-.99-.96-1.78-1.58-2.29-1.99-.5-.42-.71-.63-.63-.66-1.05-.63-.77-.36-.89-.36Z"/><path d="m38.71,19.45c2.47-.9,4.35-1.57,3.56-1.56-2.58.84-6.35,2.1-6.82,2.47l.54-.06,2.72-.85Z"/><path d="m29.87,14.63c-1.89.57-.92.14-1.27.18l-3.77,1.28c-.51.43-.54.6,5.16-1.28l-.12-.17Z"/><path d="m261.31,10.7l-.22-.18c-2.55-.36-4.74-.6-6.61-.75,1.57.67,4.24.77,6.83.94Z"/><path d="m30.91,58.17s-.28-.02-.05.1c.65.34-2.98-.8.87.62,3.43,1.21.52.01,1.05.1.15.03,1.29.41,1.99.62-.82-.35-1.55-.67-3.86-1.44Z"/><path d="m51.2,16.03c-1.84.43-3.96.84-5.21,1.36.94-.24,1.87-.49,2.81-.71,1.06-.27,1.97-.48,2.48-.56,1.73-.45,3.47-.9,5.22-1.29l-1.11.18c-1.41.3-2.8.67-4.19,1.01Z"/><path d="m192.99,69.3s.1-.04,0-.05c-.46-.04,1.5-.33-1.74-.08-1.1.08-3.16.4-1.05.34l2.78-.21Z"/><path d="m164.58,4.03c-.09.11-3.45.17-2.64.32l4.06.02c-.48-.11.93-.23-1.42-.33Z"/><path d="m160.45,1.05c-.09-.09-1.37-.16-2.77-.21-5.87.04,1.28.16-.31.22.25.02.59.02,1.02.02h1.76c.37,0,.46,0,.3-.02Z"/><path d="m23.11,57.87c-.81-.35-1.62-.71-2.42-1.09.99.67,3.93,2,5.78,2.83l.19-.07-.05-.16c-.66-.29-1.17-.5-1.66-.72-.21-.01-1.03-.4-1.83-.79Z"/><path d="m308.43,19.4c.18.18,2.96.99,3.74,1.37.68.21,1.35.41,2.02.64-.52-.23-1.05-.45-1.58-.66-1.32-.5-2.71-.95-4.18-1.35Z"/><path d="m113.11,70.99c.78.16,1.84.26,4.16.19-1.11-.1-1.56-.28-4.16-.19Z"/><path d="m103.63,6.54l4.16-.47c.18-.19-2.12.08-4.17.3v.17Z"/><path d="m125.03,71.42c1.98.02,4.22.09,5.61-.02-2.85-.16-4.37-.11-5.61.02Z"/><path d="m206.97,68.02c-1.31.08-2.82.24-4.51.47,1.45-.13,2.33-.04,4.51-.47Z"/><path d="m55.4,15.02l1.11-.18,2.59-.58-.12-.04c-1.18.2-2.37.45-3.57.8Z"/><path d="m8.66,48.28s-.04,0-.16-.09c.15.12.3.24.48.37.12.04.25.08.38.11-.23-.13-.48-.26-.71-.4Z"/><path d="m51.29,16.13c-.51.07-1.42.29-2.48.56,0,.1.84-.09,2.48-.56Z"/><path d="m21.23,18.63c-.15.01.04-.15-1.32.4-.98.42-.78.39-.04.12l1.36-.51Z"/><path d="m26.65,59.54l-.19.07c1.29.5,2.21.77,2.65.85-.82-.29-1.65-.59-2.46-.92Z"/><path d="m20.59,56.77c-1.05-.51-2.09-1.04-3.12-1.6,1.25.78,2.3,1.31,3.12,1.6Z"/><path d="m157.99,4.23l-.03.19c.88.01,1.34,0,1.38-.05-.12-.06.53-.13-1.35-.14Z"/><path d="m244.46,66.27l.44.08c1.38-.18.52-.15.81-.22-.42.04-.84.09-1.25.15Z"/><path d="m67.05,5.39c1.31-.17,2.7-.34,2.83-.47-1.2.15-2.39.32-2.83.47Z"/><path d="m38.34,61.34c1.98.6,3.96,1.13,5.96,1.63,2.02.47,4.06.75,6.09,1.14,1.42.24,2.04.3,2.17.27l.21-.14c-2.25-.38-2.98-.57-2.16-.52.38.02.92.05-.57-.21-.43-.07-1.12-.18-1.7-.28-.29-.04-.55-.08-.74-.11-.19-.03-.3-.04-.3-.04.06.07-.27.06-.83,0-.56-.07-1.36-.15-2.22-.37-1.72-.42-3.76-.91-4.91-1.18-.47-.11-.67-.13-1-.19Z"/><path d="m123.82,71.25c2.8.12,5.61.26,8.34.2-4.71-.13-.86-.27-4.17-.4l-5.3-.23c.67.15,3.49.34,1.12.44Z"/><path d="m17.41,27.74c1.98-1.03,4.58-2.31,7.36-3.48-.11-.03.25-.27-.45-.02-.93.33,2.69-1.32-.64.08-2.28,1.02-1.79.91-1.52.87.13,0,.18.06-1.32.68-1.39.54-1.89.87-2.23,1.1-.34.23-.52.4-1.2.78Z"/><path d="m77.71,68.01l3.97.49c.52,0,3.93.28.94-.1-3.16-.41-4.24-.43-4.9-.39Z"/><path d="m68.28,66.78c-1.15-.12-2.22-.2-1.53-.07,2.1.4,4.54.58,6.88.88-.18-.19-3.24-.51-5.35-.81Z"/><path d="m7.57,37.87c-.34,1.79-.09,3.68.62,5.33-.01-.3-.7-1.91-.62-4.08.14-1.65.05-1.12,0-1.25Z"/><path d="m59.07,14.03c.36-.08.73-.17,1.11-.26l.13-.14c-1.57.36-3.49.76-4.17,1.02l2.94-.62Z"/><path d="m82.71,68.61c.54.18,2.41.36,4.3.48l-.12-.13c-1.41-.1-2.79-.23-4.18-.35Z"/><path d="m57.46,64.75c-.28-.05-.55-.11-.82-.16l-.76-.07c.34.06.73.13,1,.17.26.04.38.03.57.05Z"/><path d="m14,29.96c.82-.61,1.67-1.16,2.54-1.71-.34.18-.61.29-1.05.57-1.25.81-1.18.89-1.49,1.15Z"/><path d="m67.13,66.46l1.26.28c2,.18.45-.04-1.26-.28Z"/><path d="m86.89,68.96c.72.06,1.76.16,1.75.11,0,0-.51-.08-.77-.1-1.21-.1-.87-.03-.98,0Z"/><path d="m52.77,64.24l-.21.14c1.7.22,1.85.19.21-.14Z"/><path d="m18.6,52.93s.19.14.35.24c-.01-.03-.19-.14-.35-.24Z"/><path d="m62.96,13.09l.05-.07-2.67.61c.85-.19,1.74-.36,2.62-.54Z"/><path d="m63.13,65.96l-.29-.07c.11.02.22.05.29.07Z"/><path d="m87.67,69.14l.38.1c1.15.06.92.02-.38-.1Z"/><path d="m32.34,14.09c-1.5.6-3.86,1.48-2.06,1.05.77-.18,1.69-.42,3.27-.93,2.34-.75,2.58-.91,2.87-1.09-1.25.27-1.88.38-.88-.07.46-.2.33-.22-1.05.22-1.66.53-1.9.68-2.14.82Z"/><path d="m144.12.39c-3.56.07-2.37.19-2.69.29,1.32,0,3.17-.08,3.36.04.09.06,1.38.12,2.55.09,1.2-.03,2.3-.12,2.73-.18.7-.11-1.61-.04-2.33-.06-1.42-.07-2.43-.11-3.62-.17Z"/><path d="m76.06,4.89c2.43.01,6.87-.59,11.09-1.02-3.1.11-6.61.36-11.09,1.02Z"/><path d="m72.8,5.32c.45-.07.9-.13,1.35-.2.23-.05.37-.09.69-.14,2.52-.37,4.2-.66,1.57-.49-.69.04-2.57.22-2.24.25.77.05-7.53,1.21-1.38.57Z"/><path d="m44.07,11c1.23-.35,2.47-.62,3.72-.93.02-.1,3.09-.98-.22-.21-2.45.55-4.11,1.16-3.5,1.13Z"/><path d="m61.71,6.99c1.41-.18,2.81-.39,4.23-.53-.11-.06,2.15-.48.2-.25-1.55.17-3.19.51-4.43.79Z"/><path d="m135.95.86c-.78,0-1.24-.02-1.7,0-.49.01-.97.05-1.45.08.41,0,.78.03,1.24.02.47,0,1.02-.05,1.9-.09Z"/><path d="m68.78,6.03c1.21-.21,2.43-.36,3.65-.55.17-.03.35-.06.52-.1l-.18-.04c-1.64.24-4.05.54-3.99.68Z"/><path d="m40.81,11.91c1.07-.24,2.13-.47,3.17-.88l-3.17.88Z"/><path d="m127.94,1.43c-.38,0-.57.02-.75.03.14,0,.27,0,.75-.03Z"/><path d="m302.03,56.7c1.42-.42,3.07-.9,3.88-1.25.57-.39,4.88-1.65,6.5-2.43.61-.27,2.81-.91,3.67-1.44.53-.33-1.55.46-2.86.86-1.33.43-2.37.78-4.16,1.49-2.26.88-4.95,1.78-7.11,2.16-1.29.24-3.53.95-4.86,1.34-2.32.68-.41.26.97-.04,2.18-.47,4.32-.99,3.97-.7Z"/><path d="m325.13,27.56c.12,0-.15-.27.89.36.16.04.88.57,1.42.93.53.39.86.64.28.06-.42-.38-1.42-1.22-2.16-1.67-2.43-1.52-.89-.38-1.46-.66-.32-.14-.57-.23-1.03-.47-.46-.22-1.36-.66-2.02-.97-.67-.29-1.1-.47-.62-.18,1.12.64,3.07,1.5,4.7,2.59Z"/><path d="m331.91,34.21c.12.26.15.53.23.78.09.24.22.47.26.73-.02-.35-.18-.71-.25-.99-.08-.24-.13-.36-.24-.53Z"/><path d="m277.38,62.22l-1.3.24c.42-.08.87-.16,1.3-.24Z"/><path d="m173.16,70.13c.27.03.36.1,2.13-.06-.24-.03-1.09.02-2.13.06Z"/><path d="m219.28,69.38l2.71-.21c.03-.09-.61-.17.22-.27,1.46-.18,2.77-.33,2.27-.39-.25-.03-1.05.05-1.37.1-1.16.19-5.08.47-4.02.58.35.04.14.12.18.19Z"/><path d="m211.4,69.73c.84,0,.9.1,2.8-.03.27-.02.93-.12.85-.13-.38-.09-2.21.07-3.65.16Z"/><path d="m180.9,71.3c.39-.01.78-.02,1.17-.04,0-.05.24-.12-1.29-.07l.12.11Z"/><path d="m233.76,67.81l.3-.14c-1.56.14-1.33.18-1.53.25l1.24-.11Z"/><path d="m227.31,68.6l-.48-.05c-1.27.15.04.07.48.05Z"/><path d="m128,71.05c3.31.13-.54.27,4.17.4,1.71.01,2.92-.02,3.83-.07,1.9-.1,4.23-.2.69-.36-5.55-.23-5.8.04-8.69.03Z"/><path d="m150.32,70.94c-1.91.04-4.97-.04-4.81.14.06.06.83.16,3,.1,2.1-.06,5.18-.18,5.3-.25.23-.13-2.5.03-3.49.01Z"/><path d="m148.23,71.4c1.5.05,2.43.11,3.52.1,1.38,0,3.83-.08,3.92-.19.05-.06-.85-.08-2.31-.05-1.57.04-3.1.08-5.13.13Z"/><path d="m166.49,70.49c.18.03.19.08,1.58,0,.43-.02.67-.08.99-.12l-2.57.12Z"/><path d="m142.96,71.23c.43-.02.16-.02-.1-.02l.1.02Z"/><path d="m163.96,70.55l.6-.02.6-.03c-.4-.01-.81.01-1.21.05Z"/><path d="m4.63,44.66c.11.27.97,1.35,2.43,2.62,1.87,1.58,1.23.85,1.46.94-1.79-1.55-2.03-1.44-3.89-3.55Z"/><path d="m13.89,21.09c.12.08-.54.45,2.43-.89-.22,0,.34-.34-1.1.24-.45.2-.88.43-1.33.65Z"/><path d="m4.62,44.65l-.16-.24c.06.09.12.18.16.24Z"/><path d="m263.68,11.05l-2.39-.35c.41.11-.82.04,1.1.3,1.09.15,1.37.12,1.3.05Z"/><path d="m231.27,7.05c-2.17-.24-4.4-.44-4.4-.28,1.62.11,3.43.27,4.4.28Z"/><path d="m35.53,61.73c-2.62-.64-5.32-1.38-5.88-1.9-.27-.2-3.49-1.33-5.25-2.21.92.57,1.63,1.07,2.83,1.7,1.28.67,3.19,1.42,5.32,2.08,2.13.64,4.46,1.21,6.59,1.58.53.09.8.11,1.45.24,2.41.48,2.62.29.25-.33q-.98-.27-1.58-.26c-.28,0-.23.12-2.03-.33-.55-.14-1.14-.38-1.71-.57Z"/><path d="m55.23,65.69l-1.43-.23c-2.55-.2,1.32.68,1.16.87l3.98.51c.41-.14-4.81-1.09-3.72-1.14Z"/><path d="m48.48,65.25c1.43.27,2.91.54,3.98.67-.04-.02,0-.03-.13-.05-1.75-.39-1.39-.55-3.56-.9-3.19-.57.33.29-.3.29Z"/><path d="m41.57,63.61c-.38-.06-.82-.15-.79-.13.11.06.38.17.59.25.18.02.49.07.5.05.02-.03-.17-.1-.3-.17Z"/><path d="m23.11,57.87c.79.39,1.61.77,1.83.79-.77-.35-1.81-.9-1.83-.79Z"/><path d="m26.6,59.38l.53.17c-.23-.08-.46-.16-.53-.17Z"/><path d="m256.17,65.01l-3.74.49c-1.08.44-7.35,1.11-9.37,1.55.21.07-.3.25,2.71-.11-1.29.02.89-.3,2.27-.51,1.69-.24,2.5-.24,3.14-.26l3.8-.48c3.55-.58,5.34-.96,5.51-1.05.16-.11-1.31.07-4.32.36Z"/><path d="m251.18,66.19c-.64.01-1.46.01-3.14.26-1.38.2-3.56.52-2.27.51,2.05-.25,4.61-.47,5.41-.76Z"/><path d="m269.76,63.41c-3.63.25-4.71.81-7.05,1.17,2.89-.27,5-.74,7.05-1.17Z"/><path d="m277.4,62.22l-1.35.24c.46-.02.91-.1,1.35-.24Z"/><path d="m105.23,70.8c-2.62-.13-2.75-.05-2.96.04.39.16-.98.05-2.43-.07-.83.09-.26.29-4.03.08-.78.12,3.34.33,3.92.47,5.32.09,5.77-.2,5.49-.52Z"/><path d="m62.93,67.01l-1.66-.22c.92.19,1.17.17,1.66.22Z"/><path d="m123.75,5.15c.63-.1.8-.17.97-.25-2.68.19-5.35.35-8.01.57-2.4.21-2.45.29-2.54.38,1.43-.1,3.18-.28,4.03-.26l5.55-.45Z"/><path d="m116.71,5.48c2.66-.22,5.33-.38,7.99-.57l.1-.14c-3.08.21-6.16.36-9.24.62l1.15.09Z"/><path d="m86.47,9.15c.06.05.2.1,1.67-.1.66-.11,1.52-.26,2.3-.38-.95.04-2.5.26-3.96.48Z"/><path d="m118.2,5.6c-.86-.02-2.6.16-4.03.26.82.02,2.46-.13,4.03-.26Z"/><path d="m102.28,6.74s-1.24.21-.06.11c.12-.02.5-.06.61-.08.76-.13.31-.11-.55-.04Z"/><path d="m158.24,71.51c-2.24.09-4.26-.33-6.65.1-.37.3,4.48.07,6.72.1-.03-.07-.05-.13-.07-.2Z"/><path d="m130.4,71.89h.54c-.17,0-.34,0-.54,0Z"/><path d="m158.31,71.71l.29.02c-.1,0-.2-.02-.29-.02Z"/><path d="m62.96,13.09c-.88.18-1.77.35-2.65.54l-.13.14c1.85-.39,2.75-.59,2.78-.68Z"/><path d="m215.98,5.74c-6.76-.66-7.57-.49-7.6-.24l1.43.39c5.02.55,7.9.52,11.82.8.5-.19.18-.43-5.66-.95Z"/><path d="m151.68,4.06h-.58s.24.03.58,0Z"/><path d="m72.42,5.49l.94-.1c-.14,0-.28,0-.42,0-.18.03-.35.06-.52.1Z"/><path d="m164.62,4.03c-.46-.02-.92-.04-1.4-.06-.01,0-.25.02-.38.02.58.01,1.16.03,1.78.04Z"/><path d="m240.11,8.68l2.52.35c-.16-.11-.27-.21-2.52-.35Z"/><path d="m124.72,4.9c-.17.07-.34.15-.51.22,1.31-.1,2.77-.17,2.99-.26.22-.09-1.05-.05-2.47.04Z"/><path d="m113.33,71.28c-.15.06-.2.14,1.09.23-.14-.07.46-.13-1.09-.23Z"/><path d="m119.78,71.86l-.28-.03c.1.01.19.02.28.03Z"/><path d="m109.28,71.4c.28.06.25.13.9.18.85.06,1.67.04,1.4-.01-.54-.1,2.18-.15-1.9-.29-.13.04-.26.09-.39.13Z"/><path d="m109.28,71.4c.13-.04.26-.08.39-.13-2.03-.05-1.86,0-.39.13Z"/><path d="m191.94,70.84c.19,0,.36.01.58.02.03,0,.47-.03.49-.04.06-.02-.02-.04-.04-.05l-1.03.07Z"/><path d="m313.23,21.5l-.51-.15c.19.06.38.12.51.15Z"/><path d="m137.53.51l2.07-.09-.52-.03c-.55.04-1.09.08-1.55.12Z"/><path d="m180.03,71.52h-1.7c.12.05.47.06.82.08l.88-.08Z"/><path d="m99.84,70.76c1.45.12,2.82.22,2.43.07l-2.43-.07Z"/>
                  </g>
                </mask>
              </defs>
              <path class="mask" d="m184,1.3C155.84,0,132.29.69,115.39,1.65c-28.56,1.62-54.06,3.21-79.83,11.54C21.94,17.59,5.4,22.94,1.48,32.11c-5.71,13.34,19.69,24.46,24.3,26.47,3.61,1.58,17.78,7.18,59.25,11.11,25.27,2.4,52.02,2.42,78.44,1.82,42.32-.96,85.73-3.64,123.48-11.62,22.53-4.76,44.2-12.56,45.48-22.08.83-6.21-7.47-12.04-19.19-16.15-11.72-4.12-26.6-6.74-41.61-8.99-36.6-5.48-75.89-9.05-116.03-8.69-40.14.37-81.26,4.88-114.12,14.25-12.88,3.67-24.73,8.25-30.32,13.91-8.34,8.45-.84,18.01,14.54,24.39,6.21,2.58,12.66,4.67,19.38,6.36,12.17,2.21,25.71,4.19,40.61,5.66,64.07,6.33,120.45.09,155.42-5.61"
                    mask="url(#path-mask)" stroke="black" stroke-width="2" fill="none"
                    stroke-dasharray="1130.99560546875" stroke-dashoffset="1130.99560546875">
              </path>
            </svg>
        