
            <svg xmlns="http://www.w3.org/2000/svg">
              <defs>
                <mask id="path-mask">
                  <g fill="white">
                    <path d="m127.27,42.1c1-.65.17-.61.28-.92.28-.08.53-.2.79-.3.7-.15,1.48-.42,2.2-.53.76-.08,1.59-.63,2.34-1.23.37-.31.72-.62.99-.96.25-.35.44-.69.55-.99.6-.45.89-.83,1-1.17.85-.54,1.5-1.91,2.35-2.19.35.01,1.09-.54.88.24-.16.55-.52,1.05-1.23,1.59-.6.44-1,.95-1.16,1.38l-.51.45c-.56.67-1.89.81-1.99,1.75-.11.07-.27.17-.4.26-.13.08-.24.15-.24.16-.08.46-.49.86-1.02,1.23-.52.38-1.22.63-1.82.95l-.11-.14c.28-.25.19-.25-.18-.06-.05.04-.11.08-.18.11l-.17-.2c.19-.13.49-.27.43-.36-.01-.02-.18.02-.25.06-.33.2-.19.23-.19.3l-1.08.78c-.09.07-.18.12-.28.16.09-.19.95-.86.05-.52-.97.3-1.17.65-1.24.96-.06.31-.43.54-1.1.69-.21-.31-1.03.24-1.67.44l-.02-.12c.5-.42.03-.26-.47-.08-.77.05-.69.42-1.12.6h-.11s.12,0,.12,0c.04.22.4.37-.87.79-.79.26-1.45.54-1.19.83l-.77.3-.83-.18c.42-.16.58-.3.57-.44.47-.3.46-.44-.08-.4-.68.21-.94.17-.77-.11.08-.13.19-.31-.26-.18-.26.07-.79.36-.78.39.27.55-1.54,1.08-2.15,1.61-.12.11-.16.21-.24.32l-.08.2c-1.61.53-3.39.72-4.76,1.54-.35.2-.9.21-1.3.19-.71-.01-1.15.15-1.47.44-1.08.13-2.16.3-3.24.4l-.09-.17c-.14-.24-.67-.27-1.31-.13-.5.11-.3.28-.31.42-1.76.43-3.53.79-5.4,1.1l.08.04c-.01.08.14.15-.21.22-.09.12-.11.25-.57.3.11-.42-.8-.38-1.54-.38-1.59.02-3.44,0-4.79.37-.94.25-1.58.32-2.52.39-.56.04-.23.3-.26.47-1.81.19-3.62.27-5.44.4v-.32c.34-.2.24-.37.06-.57-.32-.34.13-.53,1.09-.56l.84-.21c.51-.05,1.12-.02,1.33-.29l-.94-.04c-.13-.14-.69-.28.02-.45.38.15.76.16,1.14-.06.45-.02.89-.06,1.34-.1.59.48,1.7.75,2.93.96.82-.39,2.02-.76,2.14-1.29,1.18-.05,2.36-.07,3.52-.35.05.16-.06.39.19.48.33.12-.87.53.25.4.78-.09.59-.32.48-.5-.05-.09-.1-.4.45-.17.99.42.7-.31,1.5-.32.13.06.24.18.4.17.46-.03.44-.19.55-.31,1.5-.15,2.9-.68,4.53-.68.85,0,1.2-.52,1.39-.85l3.61-.71,3.58-.84c.02.09-.03.2.06.26.28.17-.77.86.48.57,1.1-.26.05-.41.16-.65.03-.06.38-.2.59-.3.96-.44,1.97-.79,3.01-1.11,1.03-.34,2.07-.68,3.09-1.02.3-.1.66-.31,1.02-.47.35-.18.71-.3,1.02-.2.33.08,1.41-.12,2.55-.41,1.12-.33,2.26-.81,2.77-1.13Zm-6.79,2.29l-.18.19c.11-.02.23-.03.31-.07.07-.03.09-.09.14-.14-.09,0-.18.01-.27.02Zm-11.68,3.76s-.11,0-.17.02c.02.06.09.04.17-.02Z"/><path d="m129.03,3.7c2.79.17,5.45.98,8.18,1.43.17,1.07,2.1.79,3.22,1.28.15.37,0,.7,1.3.8.79.07,1.8.56,2.7.98.62.48-1.99.39.73,1.24.33.24.9.44.73.78-.08.17.12.56.43.72.33.16.73.21.95.15.37-.09-.27-.46-.41-.65-.25-.41-.38-.78-.58-1.18.34-.08,1.13.65,1.32.33.1.43.69.84,1.21,1.34.5.49.87.99.55,1.21-.31.21-1.23-.22-1.81-.12-.57.07-1.81-.84-2.84-1.53-.46-.32-.86-.72-1.36-.99-.48-.25-.99-.82-1.48-.68-.51.14.94.57.53.81-.89-.08-1.75-.26-2.64-.76.1-.59-.06-1.14-1.66-.94-1.18.18-2.54-.87-3.75-.45l-.43-.05-.79-.32c-1.27-.85-2.74-1.23-4.44-.88-.89-.61-1.94-1-3.38-.84l-.59-.07c.08-.04.13-.11.24-.12.82-.12,1.38-.3.62-.81-.2-.13-.77-.33-.69-.13.18.46-2.43.28-.61,1.12-.52,0-1.26-.19-1.3.22l-.88-.13c0-.22.73-.35.15-.63-.46-.21-.99-.17-1.41-.02l-.56-.08c-1.15-.19-1.17-.61-1.29-1.02-.07-.24-.32-.44-.87-.5-.21-.02-.54.03-.61.1-.21.21.24.31.58.45,1.23.47-1.1.61-.03,1.08-.32.35-1.02.24-1.69.17l.02-.26c.04-.25,1.07-.49.03-.74-.77-.18-1.35.07-1.23.52l-1.02-.1-1.38-.49c-.37-.33-.54-.65-.17-.96.17-.14.15-.3-.3-.36-.54-.08-.64.11-.74.28l-.75-.25.03-.58c1.29.17,2.77.05,3.57.86.3.31.79.2.9-.08.08-.2,0-.45.56-.5,2.29-.26,4.62-.06,6.94.58,1.35.93,4.33,1.28,6.24.73Zm14.12,4.75c-.14-.06-.31-.04-.46-.06.1.1.16.23.29.29.13.07.31.07.59.13-.18-.17-.28-.31-.41-.36Z"/><path d="m2.37,26.75c.04.5.07.85,0,1.17-.08.32-.2.6-.28.9-.08.3-.56.24-.16,1.05.38.62.61.34.82.13.2-.2.43-.35.65-.52.28.7.64,1.37,1.06,2.02-.24.15-.71.11-.08,1.01.51.66.62,1.06.3,1.28-.23.06-.88-.73-.83-.14.02.21.16.63.35.83.63.67.49-.02.77.01.15.01.29,0,.46.06.32.14,1.04.71.96.31-.08-.45-.81-.66-1.15-1.15l.41-.33c1.54,1.67,3.11,3.27,4.73,4.88-.63.23-1.27.61-2.47-1.04-.19-.28-.61-.6-.86-.52-.27.08-.01.41.31.74-.09.32-.17.64-.31.95l-.62-.34.25.55c-1.48-.81-2.58-2.02-3.15-3.48.03-.53-.09-1.35-.8-1.79-.69-.43-1.16-1.42-1.5-2.37-.37-.95-.58-1.87-1.22-2.32.02-.41,0-.82-.02-1.23.01-.41.02-.82.03-1.24.02-.83.15-1.67.41-2.44.6.23,1.02-.84,1.33-1.78.26-.85.61-1.26,1.12-1.67.32.49-.83,1.52-.76,2.23.02.24-.81.72-.52,1.19.17.27.61-.34.97-.64.37-.31.54-.57.68-1.19.16-.78.59-1.63,1.48-1.75.52-.07.82-.77,1.04-1.15.38-.68-.16-.38-.6-.18-.68.31-1.34.69-1.6.28l.19-.47c1.07-.11,2.03-1.39,3.13-2.15.42-.3,1.25-1.17,1.36-.4.02.09.3-.15.58-.42.29-.26.57-.57.55-.66-.12-.37.25-.59.76-.87l.37-.21c.62-.51,1.34-1.19,1.39-.38-.16.55-.15.52.5.35.29-.08.68-.15.78-.08.37.26-.72.67-.76.99-.49.31-.95.7-1.44,1-.48.31-.97.54-1.58.51-.32-.02-.77.63-.7.65.31.11-.91,1.08.17.7.07.17-.01.27-.39.5-1.18.8-2.5,1.58-3.18,2.92-.59-.36-.96-.03-1.2.48-.25.52-.36,1.2-.6,1.59-.48.99-.22,1.87-.47,2.87-.17-.14-.36-.44-.5-.46-.12-.03-.3.25-.15,1.21Zm.59,4.64l-.26-.14c.03.1.05.23.1.31.04.07.12.07.19.1-.01-.09-.02-.18-.03-.27Z"/><path d="m138.25,9.75c-1.16-.99-2.4-2.39-3.68-3.02-.76-1.04-2.49-1.86-3.69-2.68-.34-.23-.49-.3-.77-.41-.86-.33-1.36.15-.55.7.85.59,1.05.88,1.18,1.18.13.31.43.74,1.41,1.02.11.03.46.23.59.34,1.28,1.08,2.61,1.98,3.78,3.14,2.65,2.64,4.91,5.86,5.54,9.55l.21-.05c-.06-.31-.1-.57-.03-.66-.12-.55-.42-1.16-.55-1.61-.15-.54-.5-1.07-.73-1.61-.27-.53-.54-1.02-.62-1.49-.02-.15-.17-.45-.38-.86-.2-.41-.48-.91-.82-1.38-.31-.49-.67-.95-1-1.32-.31-.38-.59-.67-.76-.79-.11-.08-.24-.14-.25-.11-.06.33-.48-.29-.69-.56-.26-.32-.37-.57-.58-.86-.11-.18-.65-.52-.54-.56.07-.02.39.16.77.47.82.63,1.79,1.71,2.15,1.56Z"/><path d="m36.21,4.71c-.97.33-2.17.5-2.72,1.13.3,0,.7.05.88-.03.73-.3,1.41-.67,2.07-.32.54.29-.07.62-.48.97-.73.63-1.4.55-2.14.39-.46-.1-1.17-.02-1.48.21-1.04.79-1.66.43-2.42.34-.45.09-.98.3-1.17.04-.04-.05.13-.24.21-.26.59-.13.67.12.96.22l1.02-1.23c-1-.55-1.96.19-2.92.61.09.25.09.49-.62.72.06.17.04.37.19.51.45.41-.75.66-1.04,1-.08.09-.31.21-.42.1-.23-.23.14-.45.54-.73.23-.16-.05-.44-.1-.66-.32.36-1.56.27-1.53.81.16.02.57-.06.22.18l-.21-.19c-.6.06-.39-.51-1.09-.28-.25.08-.34.5-.51.76.06.15,0,.3-.3.48.03.05.07.1.11.14l.37-.1c.71.1,2.72-.17.18.85-.17.07-.18.31-.26.47,1.11-.35,2.21-.98,3.39-.71.14.03,1.54-.83,2.55-1.11.23-.29.56-.42,1.17-.59,1.78-.53,3.78-.47,5.4-1.38.81.41,1.94-.48,2.74-.31.78.17,1.38.14,2.23-.3,1.15-.6,1.74-.42,1.87.16l2-.41c-.15-.35.37-.66.73-.99-1-.32-2.05-.62-.15-1.4.24-.1.05-.23-.21-.26-.74.49-1.99.18-2.61.61-1.42,1-1.24.23-1.51-.07l-.43.09c0,.22-.21.37-.7.47,0,.28-.32.43-.79.54l.09.29c-.47.07-.43-.1-.46-.24-.98-.12-2.38.1-2.66-.53Z"/><path d="m140.18,31.91c.31-.45.43-.83.48-1.13.11-.64.24-1.37-.52-.55-1.24,1.23-.78,1.61-1.21,2.42-.38.4-.77.8-1.17,1.18-.86.28-1.5,1.64-2.35,2.19l-.23-.21c.73-.6,1.14-1.65,1.82-1.98.85-.43,1.34-1.26,1.88-2.13,2.12-3.45,3.57-7.31,3.28-11.35.12-.08.23-.1.35.4.03.26.05.52.03.79l-.1.41c-.05.12-.06.24,0,.37-.04,1.28-.14,2.01-.08,2.32.03.3.23.19.54-.28.02-.03.04-.03.06-.05.04-1.19.21-1.92.36-2.69.09-.38.13-.76.13-1.2.02-.44-.07-.93-.24-1.5-.07-.24-.14-.5-.2-.76-.09-.25-.17-.51-.23-.74-.12-.47-.16-.88-.05-1.07.23.61.73,1.25.65,1.5-.15.48.09,1.12.26,1.79.45,2.39.22,4.82-.47,7.2-.47,1.71-1.27,3.32-2.21,4.82-.97,1.51-2.01,2.87-3.22,4.2-.23.27-.52.63-.79.9-.27.27-.56.39-.7.27.15-.43.56-.95,1.16-1.38.72-.54,1.07-1.04,1.23-1.59.63-.62,1.28-1.28,1.54-2.16Zm1.27-4.07c.13.03.41-.11.58-.77.16-.64.26-1.61.13-1.67-.22-.13-.19.74-.35,1.01-.14.57-.71,1.35-.36,1.44Zm1.59-1.54c.15-.42.29-1.22.1-1.29-.11-.04-.28.22-.37.68-.12.49-.18.98-.35,1.61.3-.4.51-.66.62-1Zm-1.63,2.15l-.11.22h.06c.07-.18.06-.2.05-.22Z"/><path d="m106.69,1.18c-1.05.09-1.85,0-3-.28-1.67-.4-3.8-.31-5.73-.32-.96-.01-1.99-.31-2.9-.02l-.03.54c.2.26.73.67.08.74-1.93.2-1.71,1.2-3.04,1.59.7,0,1.33-.09,1.89-.26.07,0,.13-.02.18-.04.08-.24-.21-.58.56-.67.61-.06,1.03.06,1.1.37l.1.08-.09-.08c-.88-.21-.93.36-1.66.3-.05.03-.07.06-.06.09.82.59,1.86.09,2.78.22,1.2-.51,2.44-.43,3.66.11.37.16.6.37,1.04.07.67-.47,1.6-.22,2.49,0,1.31-.31.76-.85.48-1.36-.07-.13-.33-.33.13-.38.39-.05.61.11.76.26l.46.02c-.21-.43,1.03-.54.81-.97Z"/><path d="m23.54,47.2c.7.52,1.47,1.01,2.64,1.1,1.52-.14,2.98.21,4.45.96.35-.15.92-.08,1.44-.06l.8.32c-.06-.18-.15-.51-.19-.52-1.54-.24-2.41-1.06-3.86-1.4-1.06-.24-2.01-.51-2.14-1.13,0-.02-.11-.05-.16-.08h-.64c0,.65-1.03.27-1.82-.03-2.56-.96-5.28-1.65-7.67-3.13-1.41-.95-1.55-.84-.53-1.09.31-.08.55-.21.81-.31-.71-.3-1.44-.71-2.13-1.1-.67-.41-1.35-.73-2.08-.77.22.2.41.42.66.6.41.3,1.21.34,1.2.8,0,.19-.82.02-1.35-.1-.28-.07-.7-.37-1.05-.58-.29-.18-.58-.41-.81-.36-.3.05-.07.35.16.63.36.44.29.83,1.05,1.29.38.45.8.93,1.32,1.29.53.36,1.13.67,1.83.92.86.17,1.76.34,2.63.67.87.33,1.77.67,2.68,1.01.03-.15.17-.29.5-.17.57.22.12.32.2.49.94-.19,1.92-.54,2.05.75Z"/><path d="m142.55,21.54l-.1.41v.18s0,.18,0,.18c-.04,1.28-.14,2.01-.08,2.32.03.3.23.19.54-.28.02-.03.04-.03.06-.05.04-1.19.21-1.92.36-2.69.09-.38.13-.76.13-1.2.02-.44-.07-.93-.24-1.5-.07-.24-.14-.5-.2-.76-.09-.25-.17-.51-.23-.74-.12-.47-.16-.88-.05-1.07-.22-.31-.44-.76-.66-1.19-.22-.43-.5-.79-.72-.98.17.68-.41.24-.57-.07-.51-.89,0-.47.05-.67,0-.04.05-.03.08-.05-.11-.4-.43-.85-.76-1.29-.36-.42-.73-.84-.95-1.25-.44-.35-.75-.71-.95-1.11-.36.15-1.34-.94-2.15-1.57-.38-.31-.71-.49-.77-.47-.11.03.43.38.54.56.21.3.32.54.58.86.21.28.63.89.69.56,0-.04.14.03.25.11.17.12.44.4.76.79.32.37.68.84,1,1.32.33.47.62.97.82,1.38.21.41.36.72.38.86.08.47.36.96.62,1.49.23.54.59,1.07.73,1.61.13.45.43,1.06.55,1.61.19.52.1.56.03.66l-.21.05c.05.26.09.52.1.78.12-.08.23-.1.35.4.06.1.15.16.17.29.05.43-.07.43-.14.49Z"/><path d="m88.39,3.18l-.02-.22c-.33-.43-.58-.87-1-1.28-.88-.88-2.53-.98-3.88-.27-.17.09-.25.23-.46.28-.77.19-.82.82-.06,1.05.32.1.32.1.5-.31.09-.19.06-.44.64-.45.18,0,.37.23.56.35,1.08.16,1.01.61,1.25.98-1.24.23-2.5.17-3.78.05.53-.6-.72-.73-1.32-1.03l-.64.37-1.3.19s-.03-.1-.02-.15c.79-.67-.45-1.25-.42-1.88l.79-.02s0,.07.04.09c.56.2.46.83,1.15.71,1.01-.17-.12-.62.07-.95l.47-.42c1.92.04,3.89-.11,5.76.23h.82s.03.38.03.38l-.17.1.23-.07h.51c.26.03.62.2.62-.1l.83-.16-.12.06-.12-.06c.56.43,1.97.41,2.35,1.11.18.33,1.97-.23,2.95-.48.16-.04.27-.12.4-.18.2.26.73.67.08.74-1.93.2-1.71,1.2-3.04,1.59-1.28.2-2.51.14-3.68-.23Zm-5.43-2.06c-.04-.1-.13-.2-.2-.3-.05.05-.15.11-.15.16,0,.08.06.17.1.28.12-.06.26-.1.25-.13Z"/><path d="m27.41,7.51c.71-.23.72-.47.62-.72l-.69.12-.52.17c-1.33.23-2.64.43-3.94,1.09-.53.28-1.33.55-2.06.59-.79.06-2.19.5-2.4.66-2.25,1.49-4.68,2.16-7.12,3.06-.89.35-1.28.88-1.95,1.28-1.71,1.01-3.37,2.19-4.87,3.63-1.47,1.38-2.86,3.08-3.75,5.13-.19.43-.43.89-.3,1.22.6.23,1.02-.84,1.33-1.78.26-.85.61-1.26,1.12-1.67-.02-.38.38-.82.68-1.2l.19-.47c1.07-.11,2.03-1.39,3.13-2.15.42-.3,1.25-1.17,1.36-.4.02.09.3-.15.58-.42.29-.26.57-.57.55-.66-.12-.37.25-.59.76-.87.04-.22.17-.28.38-.21.61-.51,1.33-1.19,1.38-.38l.57-.27c.46-.55.99-1.07,1.97-1.13.51-.71,1-1.53,2.25-1.03.38-.15.76-.27,1.14-.4.09-.5.9-.66,1.51-.88.9-.34.84.02.98.23.83-.98,1.96-1.12,3.13-1.02.16-.26.26-.68.51-.76.7-.23.49.33,1.09.28-.04-.53,1.19-.44,1.52-.81l.83-.21Z"/><path d="m71.37.69c-.6-.31-1.26-.49-2.11-.09.51.27,1.01.58.44.96-.45.31-.82-.17-1.32-.03-.68-.57-1.04-.19-1.46.15-.47.38-.95.5-1.32.02-1.17.19-.96.64-1.14,1.01.2.41,1.16.49,1.63.78.8.33,1.83.38,2.81.15.73-.17,1.37-.21,2.08-.14.71-.25-.06-.9,1.19-.96.93-.05.79.39.95.67l.82-.07c-.07-.27-.19-.53-.18-.8,0-.18.38-.25.74-.26.31,0,.55.09.37.23-.26.19-.98.39-.21.56.19.04.86-.31,1.31-.48.14-.07.21-.24.51-.08l-.52.07c.33.74,1.36.57,2.44.34.33-.63-1.33-.9-1.22-1.48-1.78.38-1.77-.11-1.65-.67-.72.12-1.32-.27-2.06-.06.13.64-.65,1.22-1.89,1.19-1.72-.04.53-.59-.07-.87-.08-.04-.1-.11-.15-.16Z"/><path d="m68.49,53.02h.68s1.31-.15,1.31-.15l.48-.02-.04-.14c-.28-.06-.42-.14-.18-.25.03-.02.15-.03.19-.02.37.1-.02.18-.02.27.68.04,1.19-.07,1.5-.32,1-.8,2.6-.17,2.58.02-.09.58.99.56,1.78.68.98-.23,1.95-.46,2.95-.69.43-.1,1.28-.06,1.03-.36-.21-.25-1.11-.03-1.35-.1-.72-.23-1.81.56-2.23-.08-.55-.03-1.19,0-1.28-.31-.46,0-.95.04-1.24-.15-1.01-.04-2.02-.06-3.01-.13-1.97-.16-3.68.47-5.68.2v.37c.48,0,.99-.03,1.24.21-.04.21-.06.42-.81.43l.34.48,1.76.04Z"/><path d="m45.27,3.55c.27.04.46.16.21.26-1.9.77-.85,1.08.15,1.4l.75-.16-.1-.53-.11-.06.1.06c.72.08,2.15-.56,2.15.23,1.13-.24,2.26.29,3.46-.42.17-.1,1,0,1.08.3l1.21-.09c.47-.51,1.97-.88,1.59-1.52-.02-.03.25-.12.39-.18,1.03.97,1.25-.42,1.98-.32l-.02-.18c-2.19-.74-2.58.23-3.23.94l-.15.06.16-.06c-.43-.03-1.2,0-1.23-.11-.38-1.32-1.79-.27-3-.01-1.27.26-2.69.74-3.91.34-.58-.07-.57-.55-1.53-.34l.04.38Z"/><path d="m111.54,2.94l-.75-.25c-1.85-.29-1.78-.87-1.53-1.48-.6-.27-.6.09-.9.12.48.89-.49,1.54-2.19,1.53.36.46.35.9-.1,1.31.39.48.77.19,1.16.06-.24-.11-.29-.26.05-.26.46,0,.37.21.4.35.93.7,2.41.42,3.45.49,1.71.12,3.54.56,5.21.28l.02-.26-1.18-.22c-.41.29-.73.09-1.05-.1l-1.38-.49c-.13.24-.24.5-.99.39-.51-.07-.79-.27-1.02-.49-.53-.5.27-.69.8-.94Z"/><path d="m77.16,51.87c.42.64,1.5-.15,2.23.08.23.07,1.14-.15,1.35.1.25.31-.59.27-1.03.36-.99.23-1.97.46-2.95.69l.37.27h.48c1.32-.53,3.03-.29,4.53-.51.35-.2.25-.37.07-.57-.32-.34.13-.53,1.09-.56v-.16c.01-.22.29-.34.88-.34.12,0,.24-.02.35-.04-.13-.14-.69-.28.02-.45l-.04-.16-3.53.05c-1.18,0-2.35.06-3.53.22.39.35,1.1.69-.29,1.02Z"/><path d="m43.12,51.53c.49.05.35.73,1.29.33.7-.3,1.25.32,1.92.27.26-.62,1.13-.38,2.03-.05.76.29,1.43.25,2.04.09.64-.16.93-.4.31-.76-.87-.12-1.64-.44-2.59-.4-2.95.09-3.28.01-5.52-.81-.05-.02-.16-.06-.18-.05-1.27.44-2.92-.74-4.21-.38.06.32.02.64.81.92.06-.21.26-.21.81-.09,1.17.25,2.25.58,3.28.93Z"/><path d="m77.16,51.87c1.39-.32.67-.67.29-1.02-.92-.14-1.54-.45-2.84.02-.94.33-2.84.03-4.35.02-2.04.02-4.18.13-6.23-.18-.9-.13-1.49-.12-1.41.33.08.45.81.46,1.63.41l1.7.04c1.99.28,3.71-.35,5.68-.2,1,.06,2.01.09,3.01.13.24-.08.51-.23.72-.22.46.02.5.21.52.36.09.3.73.28,1.28.31Z"/><path d="m54.89,3.28c.65-.71,1.04-1.69,3.23-.94l1.64-.43c.43-.18.87-.37.73-.65-.83-.39-1.82.08-2.67.18-3.26.41-6.56.6-9.8,1.39-.86.21-.96.4-1.26.67,1.22.4,2.64-.08,3.91-.34,1.21-.26,2.62-1.3,3,.01.03.1.8.07,1.22.1Z"/><path d="m16.67,41.83c-.27.11-.51.24-.81.31-1.02.25-.87.14.53,1.09,2.39,1.48,5.11,2.16,7.67,3.13.78.29,1.81.68,1.82.02-1.29-1.09-2.91-1.48-4.76-1.83-1.21-.19-2-.68-1.52-1.24-1.19-.22-1.94-1.01-2.93-1.49Z"/><path d="m38.22,49.76c1.29-.36,2.94.82,4.22.38.02,0,.12.03.18.05,2.24.82,2.57.9,5.52.81.95-.04,1.72.28,2.59.4-.31-.58-.66-1.16-2.05-1.57l-1.08.22c-.43.31-1.01.19-1.84.03-1.01-.21-2.25-.32-3.12-.49-1.75-.38-3.43-.02-5.05-.71l.32.79c.11.02.22.05.33.08Z"/><path d="m59.22,51.16c-.57.49-1.03.94,1.12,1.12.69.06.25.25.19.38-1.08.26-2.25,0-3-.26-1.89-.66-2.36-.26-2.82.32h-.4c-1.25-.39-3.31-.71-1.26-1.42.37-.13.38-.42.56-.63,1.08.08,2.17.15,3.25.25.7.05,1.23.07,1.32-.26l1.2.12c-.05.13-.04.27-.17.38Zm-3.5.24s-.11-.03-.22.02c.06.01.12.02.22-.02Z"/><path d="m147.6,9.59c.1.43.69.84,1.21,1.34.5.49.87.99.55,1.21-.31.21-1.23-.22-1.81-.12-.57.07-1.81-.84-2.84-1.53-.46-.32-.86-.72-1.36-.99-.48-.25-.99-.82-1.48-.68-.51.14.94.57.53.81.71.65,1.6,1.07,2.45,1.59.83.5,1.7,1.16,1.99,1.93.19.49.53.07.86.37.46.24-.52-1.54.62-.33.39.07.87.4,1.3.69.41.3.81.55,1.11.29-.11-.41-.33-.92-.38-1.21-.04-.38.11-.67.08-1.04-.04-.35-.31-.79-1.25-1.17,0,0-.09-.16-.19-.36-.11-.2-.25-.44-.38-.58-.76-.88-1.71-1.46-2.67-1.67-.12.79,1.31.81,1.66,1.42Z"/><path d="m148.83,15.31c.12.41.11.73-.05.96-.36.61-.54,1.34-.44,2.02.12.62.13,1.39.46,1.79.31.36.68.39,1.17-.03.45-.41.97-1.37.92-2.72-.02-.64.18-1.48.09-2.26-.66-.67-.96-.17-1.06.63-.11.82.13,1.44.4,2.07.13.22.07,1.28-.28,1.07-.29-.15-.73.21-.92-.19-.12-.23-.33-.38-.29-.87.03-.5.18-.74.44-.81.23-.07.45-.18.31-.86-.16-.66-.45-.92-.76-.81Z"/><path d="m37.57,48.89c1.62.68,3.3.32,5.05.71.87.17,2.11.28,3.12.49.83.17,1.42.29,1.84-.03-1.33-1.02-3.51-.83-5.26-1.13-1.3-.24-2.63-.37-3.95-.57-1.31-.23-2.6-.52-3.8-1.03l-.25.18c.32.33,1.58.9-.45.6-.66-.11-1.1.09.01.44,1.23.12,2.24-.43,3.69.34Z"/><path d="m42.9,6.6c-.13-.58-.71-.75-1.87-.16-.85.44-1.44.47-2.23.3-.8-.16-1.92.72-2.74.31-1.62.91-3.61.85-5.4,1.38-.61.18-.95.31-1.17.59,1.77.07,3.56-.33,5.48-.84,1.22-.32,2.47-.62,3.87-.68,1.21-.05,2.69-.6,4.05-.91Z"/><path d="m122.95,5.63l-.88-.13-1.26-.64-.56-.08-1.87.19c.97,1.06,3.14.96,4.67,1.22,3.03.5,6.15.6,9.22,1.02l.85-.06c-1.27-.85-2.74-1.23-4.44-.88-1.33,0-2.76.15-3.38-.84l-.6-.07h-.43c-.01.12,0,.19,0,.25l.11.15-.28-.1-1.15-.02Z"/><path d="m92.09,50.26c1.18-.05,2.36-.07,3.52-.35.93-.14,1.83-.23,2.55-.06.63-.09.94-.14,1.26-.19,1.5-.15,2.9-.68,4.53-.68.85,0,1.2-.52,1.39-.85-4.47.67-8.95,1.28-13.44,1.89l.19.25Z"/><path d="m60.53,52.66c-1.08.26-2.25,0-3-.26-1.89-.66-2.36-.26-2.82.32,1.58.23,3.17.43,4.76.55,1.59.14,3.19.14,4.79-.05.77-.09,1.24.28,1.87.25.86-.05,2.19.16,2.36-.44l-1.76-.04-2.89-.23c-1.1-.03-2.21-.03-3.31-.09Z"/><path d="m122.72,44.45c.04.22.4.37-.87.79-.79.26-1.45.54-1.19.83.84-.2,1.66-.47,2.48-.76.82-.29,1.65-.55,2.46-.89,1.6-.73,3.22-1.48,4.68-2.58l-.11-.14-.18-.06c-.05.04-.11.08-.18.11-.48.38-.96.75-1.25.58-.09.07-.18.12-.29.16l-1.19.45c-.06.31-.43.54-1.1.69-.68.31-1.27.88-2,.9-.24,0,.02-.25.32-.46l-.02-.12-.47-.08c-.77.05-.69.42-1.11.59Z"/><path d="m54.31,52.72c-1.25-.4-3.31-.71-1.26-1.42.37-.13.38-.42.56-.63-.6-.1-.38-.27-.4-.41l-.81-.02c.22.38-.84.44-.89.75l.53.13s-.12.05-.12.05c-.14-.06-.28-.12-.42-.18-.69-.3-.22-.57-.35-.86-.77-.5-1.58-.65-2.48-.29,1.39.41,1.74.99,2.05,1.57.62.36.32.59-.31.76-.61.16-1.28.19-2.04-.09-.9-.33-1.76-.57-2.03.05,2.08.34,4.24.28,6.29.75.81.18,1.25.03,1.69-.16Z"/><path d="m33.87,48.55c-1.11-.35-.68-.56-.01-.44,2.04.3.77-.27.45-.6-.41.25-.98-.14-1.47-.2,0,.23-.43.45-.71.29-1.36-.75-2.55-.33-3.81-.73-.75.09-.72-.15-.72-.38-.61-.46-.84-.25-1.1-.09.06.03.16.06.16.08.13.62,1.08.9,2.14,1.13,1.45.34,2.32,1.16,3.86,1.4.04,0,.13.34.19.52.51.22,1.01.46,1.53.65l.81.35.19-.45c-1.8-.42-1.79-.99-1.52-1.53Z"/><path d="m12.32,42.24c-.76-.46-.69-.85-1.05-1.29-.23-.28-.46-.57-.16-.63.23-.04.52.19.81.36.35.21.77.51,1.05.58.53.13,1.35.29,1.35.1.02-.46-.79-.51-1.2-.8-.25-.18-.44-.4-.66-.6-.16-.44-.6-.43-.92-.62-.58-.24-1.24-.47-1.27-.11-.13,1.39-1.72.26-3.16-.83,0,.34.79.84.64,1.15,1.29.76,2.17,1.86,3.44,2.63.95.55.89.21,1.12.07Z"/><path d="m28.33,46.86c1.25.4,2.44-.01,3.81.73.28.15.71-.06.71-.29-1.27-.32-2.54-.59-3.79-.93-1.26-.32-2.53-.6-3.78-.96-.63-.17-1.26-.38-1.89-.61-.62-.25-1.22-.54-1.8-.82-.7-.35-1.33-.46-1.98-.66-.48.55.31,1.05,1.52,1.24,1.85.35,3.46.74,4.76,1.83h.64c.26-.16.5-.36,1.1.1l.72.38Z"/><path d="m60.53,52.66c1.1.06,2.21.06,3.31.09l.04-.33c-.45-.02-.85-.09-.77-.29.08-.2.53-.19.94-.17.16-.16.17-.33.19-.5-.82.05-1.55.04-1.63-.41-1.04-.22-2.12-.3-3.23-.27-.05.13-.04.27-.17.38-.57.49-1.03.94,1.12,1.12.69.06.25.25.19.38Z"/><path d="m59.76,1.91l-1.64.43.02.19.1.06-.09-.06c-.73-.1-.95,1.29-1.98.32-.14.06-.41.15-.39.18.38.64-1.13,1-1.59,1.52.11.2.48.12.81.09.39-.35,1.09-.34,1.7-.44.46.06.66-.73.96-.23.32.52,1.03.08,1.46.16.68-.45,1.03-.27,1.31.04.44.03.95.35,1.18-.18l.16-.31c-.51-.08-.78-.37-1.49-.28-.49-.07-.33-.3-.4-.48-2.24-.09.22-.69-.11-.98Z"/><path d="m128.34,40.88c.7-.15,1.48-.42,2.2-.53.76-.08,1.59-.63,2.34-1.23.37-.31.72-.62.99-.96.25-.35.44-.69.55-.99-.74.7-1.66,1.34-1.36.56-.82.51-1.63,1.01-2.4,1.56-.82.48-1.6.99-2.31,1.59Z"/><path d="m59.87,2.9c-2.24-.09.22-.69-.11-.98.43-.18.87-.37.73-.65,1.29-.18,2.59-.8,3.79-.19.06.03.08.07.06.12-1.63.7-1.69,1.52-1.54,2.36l-1.05.1c-.51-.08-.78-.37-1.49-.28.03-.2.02-.39-.4-.48Zm1.26-.74c-.28-.07-.52.12-.42.22.19.19-.61.68.65.56.62-.15.56-.28.09-.4-.1-.13-.11-.32-.32-.37Z"/><path d="m30.95,6.17c.38-.08.78.19,1.14-.21.81-.88,1.03-.32,1.4-.13.3,0,.7.05.88-.03.73-.3,1.41-.67,2.07-.32.54.29-.07.62-.48.97-.73.63-1.4.55-2.14.39-.46-.1-1.17-.02-1.48.21-1.04.79-1.66.43-2.42.34l1.01-1.23Zm4.7-.33s-.14.05-.14.07c0,.05.03.09.04.14l.3-.14c-.06-.03-.12-.06-.2-.07Z"/><path d="m115.28,47.58c-1.61.53-3.39.72-4.76,1.54-.35.2-.9.21-1.3.19-.71-.01-1.15.15-1.47.44,1.5.18,3.15-.42,4.71-.9,1.01-.3,2.02-.48,3.02-.71,1-.23,2.01-.44,2.97-.95.28-.14.64-.27.73-.43-.51-.15-1.21.04-1.97.45-.91.51-1.42.48-1.94.37Z"/><path d="m148.83,15.31c.31-.11.61.15.76.81.14.68-.08.78-.31.86-.25.07-.41.31-.44.81-.04.48.17.63.29.87.19.4.62.04.92.19.35.21.41-.85.28-1.07-.28-.63-.51-1.25-.4-2.07.09-.8.4-1.3,1.06-.63.06-.34,0-.66-.26-.89-.31.26-.7.01-1.11-.29-.43-.29-.91-.63-1.3-.7.08.43.11.82-.13.98.24.36.48.73.65,1.13Z"/><path d="m23.46,9c-1.18-.09-2.31.05-3.13,1.02-.43.72-2.33,1.29-2.4,2.07l.36.53c.73-.07,1.31-.34,1.78-.77.05-.14-.26-.21.13-.4l.24.27c.12,0,.25-.04.38-.1,1.55-.65.92-1.49,2.35-2.13.31-.18.36-.33.3-.48Z"/><path d="m77.13,53.37l-.37-.27c-.79-.13-1.87-.1-1.78-.68.03-.19-1.57-.82-2.58-.02-.32.25-.82.36-1.5.32.03.04.04.09.05.13l-.03.49c2.04.18,4.08.52,6.2.03Z"/><path d="m96.69,51.94c.11-.42-.8-.38-1.54-.38-1.59.02-3.44,0-4.79.37-.94.25-1.58.32-2.52.39-.56.04-.23.3-.26.47,2-.05,3.96-.01,6.02-.53.89-.22,2.05-.18,3.09-.31Z"/><path d="m46.38,5.04l-.75.16c-.36.33-.88.64-.73.99,2.07-.07,4.18-.87,6.32-.63.86.1,1.02-.66,1.75-.94-.08-.29-.91-.4-1.08-.3-1.2.71-2.33.18-3.46.42-.57,1.2-1.38.04-2.05.3Z"/><path d="m12.47,13.25l-.57.27c-.16.55-.15.52.5.34.29-.08.68-.15.78-.08.37.26-.72.67-.76.99l.94-.05c.42-.16.83-.33,1.26-.47.73-.58,1.47-1.16,2.23-1.71-1.95.19-2,.06-.16-1.46-1.25-.49-1.74.32-2.25,1.03-.66.38-.55,1.42-1.97,1.13Z"/><path d="m7.12,38.39c1.43,1.09,3.03,2.22,3.16.83.04-.36.69-.13,1.27.11.2-.61-.79-.71-1.16-1.08-.63.23-1.27.61-2.47-1.04-.19-.28-.61-.6-.86-.52-.27.08-.01.41.3.72l.17.1-.16-.08-.25.97Z"/><path d="m64.28,1.08c.06.03.08.07.06.12.2.28,1.48.02,1.27.51.37.48.84.36,1.32-.02.42-.34.77-.72,1.46-.15.49-.14.87.33,1.32.03.57-.39.07-.69-.44-.96-1.69.02-3.52-.43-4.98.49Z"/><path d="m89.34.64c.56.43,1.97.41,2.35,1.11.18.33,1.97-.23,2.95-.48.16-.04.27-.12.4-.18l.03-.54c-1.48-.46-2.9.2-4.37-.05l-1.09.05c-.14,0-.23.04-.27.1Z"/><path d="m121.95,43.64c.33.08,1.41-.12,2.55-.41,1.12-.33,2.26-.81,2.77-1.13,1-.65.17-.61.28-.92-.65.37-1.26.84-2,.92-.16.02-.65.2-.67.23-.68.82-1.98.85-2.92,1.31Z"/><path d="m147.6,9.59c-.35-.61-1.78-.63-1.66-1.42-.39-.61-1.06-.75-1.68-.89-1.16.02-2.57-.82-3.82-.87.15.37,0,.7,1.3.8.79.07,1.8.56,2.68.96l.59.04.1.18c-.22-.07-.44-.13-.66-.19.62.48-1.99.39.73,1.24.24-.19.11-.75,1.12-.17.34-.08,1.13.65,1.32.33Z"/><path d="m97.47,51.42c-.01.08.14.15-.21.22,1.26-.14,2.57-.16,3.82-.34,1.25-.19,2.43-.51,3.43-1.13l-.09-.17-1.63.29c-1.76.43-3.53.79-5.32,1.14Z"/><path d="m140.43,6.41c1.25.05,2.66.89,3.82.87.12-.61-.98-.58-1.43-.8-1.72-.88-3.78-1.25-5.61-1.35.17,1.07,2.1.79,3.22,1.28Z"/><path d="m110.82,2.11c1.29.17,2.77.05,3.57.86.3.31.79.2.9-.08.08-.2,0-.45.56-.5.24-.56-.87-.53-1.44-.6-1.29-.18-2.61-.28-3.92-.41.09.24-.27.5.33.73Z"/><path d="m104.06,3.61c-.89-.23-1.81-.48-2.49,0-.44.3-.67.09-1.04-.07-1.23-.54-2.47-.62-3.66-.11,1.14.58,2.6.56,4.02.57,1.05.03,2.09.02,3.13.03l.04-.41Z"/><path d="m3.02,26c-.17-.14-.36-.44-.5-.46-.12-.03-.3.25-.15,1.21.04.5.07.85,0,1.17-.08.32-.2.6-.28.9-.08.3-.56.24-.16,1.05.38.62.61.34.82.13.2-.2.43-.35.65-.52-.38-1.15-.5-2.33-.38-3.48Z"/><path d="m75.54.58c-.12.55-.13,1.05,1.65.67l1.25-.39.79-.02c.33-.19.81-.16,1.26-.15l.47-.42c.04-.38-.52-.27-.96-.22-1.49.15-2.98.34-4.46.53Z"/><path d="m13.36,14.72l-.94.05c-.49.31-.95.7-1.44,1-.48.31-.97.54-1.58.51-.32-.02-.77.63-.7.65.31.11-.91,1.08.17.7,1.36-1.14,3.36-1.49,4.49-2.9Z"/><path d="m75.98,2.39c-.45.17-1.11.52-1.31.48-.77-.18-.05-.37.21-.56.18-.13-.06-.23-.37-.23-.36,0-.74.08-.74.26,0,.27.11.54.18.8,1.51.5,3.19.32,4.88.22l.05-.47s-.03-.1-.02-.15h-.45c-1.08.22-2.11.39-2.43-.35Z"/><path d="m23.16,9.49c-1.43.65-.8,1.48-2.35,2.13.96.15,1.9.27,2.76-.77.08-.16.09-.4.26-.47,2.54-1.02.53-.75-.18-.85-.03.14.09.28-.38.42v-.32s-.08-.1-.11-.14Z"/><path d="m3.54,35.12c.03-.53-.09-1.35-.8-1.79-.69-.43-1.16-1.42-1.5-2.37-.37-.95-.58-1.87-1.22-2.32.4,2.68,1.86,4.88,3.52,6.48Z"/><path d="m34.39,50.18c-.51-.2-1.02-.43-1.53-.65l-.8-.33c-.09.42-.77.23-1.44.06-1.47-.76-2.93-1.1-4.45-.96.08.21.46.5.76.52,2.47.21,5,1.49,7.45,1.36Z"/><path d="m139.75,8.89c.1-.59-.06-1.14-1.66-.94-1.18.18-2.54-.87-3.75-.45.78.54,1.69.78,2.66.92.96.13,1.86.21,2.76.46Z"/><path d="m87.02,50.59c.59.48,1.7.75,2.93.96-.28-.5.3-.96,1.07-1.42-.86-.19-1.58.08-2.34.25-.38.44-1.07.22-1.66.22Z"/><path d="m122.78,2.97c1.35.93,4.33,1.28,6.24.73-1.73-.58-3.56-.52-5.34-.75-.09.36-.51.17-.91.02Z"/><path d="m39.23,5.18c.47-.11.78-.26.73-.5l-.55-.03-.15-.18h.4s.36.16.36.16c.49-.1.7-.25.7-.47-1.51.2-2.93-.15-4.52.54.28.63,1.68.41,2.66.53l.36-.05Z"/><path d="m20.79,46.13c-.91-.34-1.81-.68-2.68-1.01-.88-.33-1.77-.5-2.63-.67.45.6.98.95,2.01,1.05.66.05,1.29.35,1.95.61.66.26,1.32.56,1.99.72l.06-.4c-.23-.1-.46-.21-.7-.32Z"/><path d="m106.17,2.85c1.7.01,2.67-.64,2.19-1.53-.55-.06-1.11-.1-1.66-.14.22.43-1.02.54-.81.97.47.22.25.47.28.7Z"/><path d="m16.85,12.54c-.77.55-1.51,1.13-2.23,1.71,1.38-.29,2.69-.59,3.67-1.63l-.36-.53c-.37.13-.72.3-1.08.44Z"/><path d="m62.8,3.56l-1.05.1-.16.31c1.53-.01,3.11.17,4.5-.47-.48-.29-1.43-.38-1.63-.78-.29.09-.54.17-.78.25-.05.26-.07.53-.88.59Z"/><path d="m104.06,3.61l-.04.41,2.05.14c.45-.41.45-.84.1-1.31-1-.11-.74-.43-.74-.72-.15-.16-.37-.31-.76-.26-.46.05-.2.25-.13.38.28.51.84,1.05-.48,1.36Z"/><path d="m45.27,3.55l-.04-.38c-1.4.19-3.04-.09-4.08.92.27.3.09,1.07,1.51.07.62-.43,1.87-.11,2.61-.61Z"/><path d="m35.39,50.08l-.19.45c1.53.62,3.04.58,4.54.61l-.71-.46c-.79-.28-.75-.6-.81-.92-.11-.03-.22-.06-.33-.08-.12.65-.46,1.13-2.5.4Z"/><path d="m53.61,50.67c1.08.08,2.17.15,3.25.25.7.05,1.23.07,1.32-.26-1.42-.49-3.05-.24-4.54-.49-.02.16-.03.33-.03.5Z"/><path d="m39.03,50.69l.71.46c1.14.39,2.31,1.01,3.38.38-1.03-.35-2.11-.68-3.28-.93-.55-.12-.75-.12-.81.09Z"/><path d="m71.37.69c.05.05.06.12.15.16.6.28-1.65.83.07.87,1.24.03,2.02-.56,1.89-1.19-.73-.07-1.52-.35-2.11.16Z"/><path d="m115.28,47.58c.52.11,1.03.14,1.94-.37.76-.4,1.46-.6,1.97-.45.27-.12.64-.23.7-.39l-.83-.18c-1.26.34-2.45.82-3.69,1.19l-.08.2Z"/><path d="m133.05,37.74c-.29.78.63.14,1.36-.56.6-.45.89-.83,1-1.17l-.23-.21c-.67.66-1.3,1.38-2.13,1.94Z"/><path d="m82.14,52.86c-1.5.22-3.21-.02-4.53.51,1.52.32,3.03-.12,4.54-.19v-.32Z"/><path d="m5.3,21.05c-.59-.36-.96-.03-1.2.48-.25.52-.36,1.2-.6,1.59.28.07.47.46.85-.57.21-.52.59-1.02.96-1.51Z"/><path d="m73.13,3.22c-.15-.28-.01-.72-.95-.67-1.26.06-.48.7-1.19.96,1.02.48,1.43-.19,2.14-.29Z"/><path d="m118.38,4.96l1.87-.19c-1.14-.19-1.17-.61-1.29-1.02-.07-.24-.32-.44-.87-.5-.21-.02-.54.03-.61.1-.21.21.24.31.58.45,1.23.47-1.1.61-.03,1.08.11.04.23.06.36.08Z"/><path d="m135.74,37.49c-.56.67-1.89.81-1.99,1.75.28.07.42.11.69-.09.25-.22.61-.71,1.31-1.65Z"/><path d="m84.67,2.34c1.08.16,1.01.61,1.25.98.85.03,1.77.31,2.47-.14l-.02-.22c-.61-.1-1.68.07-1.77-.3-.21-.82-1.08-.48-1.92-.32Z"/><path d="m82.14,3.37c.53-.6-.72-.73-1.32-1.03l-.64.37-.5.76c.85.1,1.59-.36,2.47-.1Z"/><path d="m5.25,33.7l.41-.33c-.33-.67-.63-1.31-1.19-1.88-.24.15-.71.11-.08,1.01.51.66.62,1.06.3,1.28.33.22.41,0,.56-.08Z"/><path d="m91.02,50.12c-.77.46-1.35.92-1.07,1.42.81-.39,2.02-.76,2.14-1.29l-.19-.25-.88.12Z"/><path d="m110.82,2.11c-.6-.23-.25-.48-.33-.73l-1.23-.18c-.25.61-.32,1.2,1.53,1.48l.03-.58Z"/><path d="m21.48,46.45l-.06.4c.77.31,1.47.41,2.11.36-.13-1.29-1.11-.94-2.05-.75Z"/><path d="m112.53,46.56c.02.09-.03.2.06.26.28.17-.77.86.48.57,1.1-.26.05-.41.16-.65.03-.06.38-.2.59-.3-.31-.09-.59-.2-1.29.12Z"/><path d="m87.02,50.59c.59,0,1.28.22,1.66-.22h-.9c-.34.03-.63.03-.8-.09-.55.09-1.1.18-1.65.25l.36.15c.45-.02.89-.06,1.34-.1Z"/><path d="m140.91,13.4s-.07,0-.08.05c-.05.2-.56-.21-.05.67.16.3.74.75.57.07-.15-.26-.27-.54-.44-.79Z"/><path d="m51.51,50.98c.06-.3,1.11-.36.89-.75-.42-.03-.84-.07-1.25-.11.12.29-.35.56.36.86Z"/><path d="m148.18,14.18c.24-.16.22-.54.13-.98-1.14-1.21-.17.57-.62.33,0,.08.03.17.11.25.08.13.18.24.26.38.06.07.1.08.12.02Z"/><path d="m88.74.81l.83-.16c-.36-.43-1.37-.31-1.99-.51l-.05.36.03.38c.22.02.39.02.56.02.07-.21.35-.15.62-.09Z"/><path d="m7.76,39.54c.15-.31-.64-.81-.7-1.16l-.62-.34.25.55c.27.39.63.7,1.07.95Z"/><path d="m60.42,4.15c-.28-.31-.63-.48-1.31-.04.37.15.55.62,1.31.04Z"/><path d="m70.48,52.87l-1.31.16c-.07.43.66.34,1.31.3v-.45Z"/><path d="m56.69,4.18c-.61.1-1.31.09-1.7.44.93.27,1.37-.02,1.7-.44Z"/><path d="m138.25,9.76c.2.39.52.76.95,1.11-.28-.37-.22-.81-.95-1.11Z"/><path d="m85.69,50.68l-.36-.15-.82.04.04.16c.38.15.76.16,1.14-.06Z"/><path d="m94.1,3.2s.01-.07.06-.09c-.06.02-.12.04-.19.04l-.13.4.26-.35Z"/><path d="m86.98,50.28c.17.12.46.12.8.07-.01-.26-.28-.28-.8-.07Z"/><path d="m107.67,4.3c-.03-.14.06-.34-.4-.35-.33,0-.28.15-.05.26l.45.09Z"/><path d="m87.53.5l.05-.36c-.43.05-.73.17-.87.36h.82Z"/><path d="m89.61.54l1.09-.05c-.45-.25-.82-.25-1.09.05Z"/><path d="m53.59,50.66l.05-.49c-.27-.05-.41-.02-.44.09.03.14-.19.31.39.4Z"/><path d="m20.43,11.72l-.24-.27c-.39.2-.08.27-.13.4.13-.01.26-.05.37-.13Z"/><path d="m122.78,2.97c.4.15.81.34.91-.02-.37-.1-.73-.2-.91.02Z"/><path d="m148.05,14.16c-.08-.13-.17-.25-.26-.38l-.04.34c.1,0,.2.02.29.03Z"/><path d="m115.36,47.39c1.24-.37,2.43-.85,3.69-1.19.42-.16.58-.3.57-.44l-.08-.4c-.68.21-.94.17-.77-.11.08-.13.19-.31-.26-.18-.26.07-.79.36-.78.39.27.55-1.54,1.08-2.15,1.61-.12.11-.16.21-.24.32Z"/><path d="m138.64,34.07c.63-.62,1.28-1.28,1.53-2.16-.86,1.22-.56-.05-1.24.74-.38.4-.77.8-1.17,1.18.35.01,1.09-.54.88.24Z"/><path d="m98.17,49.84c-.73-.16-1.62-.07-2.55.06.05.16-.06.39.19.48.33.12-.87.53.25.4.78-.09.59-.32.48-.5-.05-.09-.1-.4.45-.17.99.42.7-.31,1.19-.28Z"/><path d="m127.09,42.93l1.19-.45c.09-.19.95-.86.05-.52-.97.3-1.17.65-1.24.96Z"/><path d="m124.31,44.06c-.31.2-.56.46-.32.46.73-.02,1.32-.59,2-.9-.21-.31-1.03.24-1.67.44Z"/><path d="m102.79,50.28l1.63-.29c-.14-.24-.67-.27-1.31-.13-.5.11-.3.28-.31.42Z"/><path d="m84.53,51.19c-.11.02-.23.04-.35.04l-.03.29c.5-.05,1.11-.02,1.32-.3l-.94-.04Z"/><path d="m128.56,42.32c.29.17.77-.2,1.25-.58l-.17-.2c-.37.26-.73.52-1.09.78Z"/><path d="m120.75,44.38c-.09,0-.18.01-.27.02l-.18.19c.11-.02.23-.03.31-.07.07-.03.09-.09.14-.14Z"/><path d="m99.42,49.65l-.95.14c.13.06.24.18.4.17.46-.03.44-.19.55-.31Z"/><path d="m123.82,43.86l.47.08c.5-.42.03-.26-.47-.08Z"/><path d="m129.65,41.54c.19-.13.49-.27.43-.36-.01-.02-.18.02-.25.06-.33.2-.19.23-.18.3Z"/><path d="m119.55,45.36l.08.4c.47-.3.46-.44-.08-.4Z"/><path d="m108.63,48.17c.02.06.09.04.14.04-.02-.06-.09-.04-.14-.04Z"/><path d="m83.31,51.57v.16s.83-.21.83-.21c-.27.01-.55.03-.83.05Z"/><path d="m122.71,44.46h-.11s.08,0,.11,0Z"/><path d="m129.99,41.63l.18.06c.28-.25.19-.25-.18-.06Z"/><path d="m111.54,2.94c-.53.25-1.33.44-.8.94.23.22.51.42,1.02.49.76.11.87-.15.99-.39-.37-.33-.54-.65-.17-.96.17-.14.15-.3-.3-.36-.54-.08-.64.11-.74.28Z"/><path d="m146.28,9.27c-1.01-.58-.89-.02-1.12.17.33.24.9.44.73.78-.08.17.12.56.43.72.33.16.73.21.95.15.37-.09-.27-.46-.41-.65-.25-.41-.38-.78-.58-1.18Z"/><path d="m125.3,5.42c.62.99,2.05.85,3.38.84-.88-.61-1.94-1-3.38-.84Z"/><path d="m124.27,5.34h.43c.08-.03.13-.09.24-.11.82-.12,1.38-.3.62-.81-.2-.13-.77-.33-.69-.13.18.46-2.43.28-.59,1.05Z"/><path d="m115.17,4.57l1.18.22c.04-.25,1.07-.49.03-.74-.77-.18-1.35.07-1.2.52Z"/><path d="m120.81,4.85l1.26.64c0-.22.73-.35.15-.63-.46-.21-.99-.17-1.41-.02Z"/><path d="m143.56,8.81c-.18-.17-.28-.31-.41-.36-.14-.06-.31-.04-.46-.06.1.1.16.23.29.29.13.07.31.07.59.13Z"/><path d="m122.95,5.63l1.15.02.17-.05-.03-.19c-.52,0-1.26-.19-1.3.22Z"/><path d="m114.13,4.47c.32.19.64.39,1.02.1l-1.02-.1Z"/><path d="m140.96,8.76c-.09-.08-.15-.07-.21-.06.03.03.07.06.21.06Z"/><path d="m3.58,19.07c-.31.39-.7.82-.68,1.2.32.49-.83,1.52-.76,2.23.02.24-.81.72-.52,1.19.17.27.61-.34.97-.64.37-.31.54-.57.68-1.19.16-.78.59-1.63,1.48-1.75.52-.07.82-.77,1.04-1.15.38-.68-.16-.38-.6-.18-.68.31-1.34.69-1.6.28Z"/><path d="m5.25,33.7c-.15.08-.23.3-.56.08-.23.06-.87-.73-.83-.14.02.21.16.63.35.83.63.67.49-.02.77.01.15.01.29,0,.46.06.32.14,1.04.71.96.31-.08-.45-.81-.66-1.15-1.15Z"/><path d="m3,31.66c-.01-.09-.02-.18-.03-.27l-.26-.14c.03.1.05.23.1.31.04.07.12.07.19.1Z"/><path d="m10.14,14.1l.37-.21c-.12.07-.25.14-.37.21Z"/><path d="m142.28,19.53c.07-.09.16-.14-.03-.66-.07.09-.03.35.03.66Z"/><path d="m27.41,7.51l-.83.21c.05.23.33.5.1.66-.4.28-.77.5-.54.73.11.11.34,0,.42-.1.29-.33,1.49-.59,1.04-1-.15-.13-.13-.34-.19-.51Z"/><path d="m29.94,7.41c-.29-.1-.37-.35-.96-.22-.08.02-.25.2-.21.26.19.26.73.05,1.17-.04Z"/><path d="m39.23,5.18l-.36.05c.03.14-.02.31.46.24l-.09-.29Z"/><path d="m23.27,9.63v.32c.47-.14.35-.28.37-.42l-.37.1Z"/><path d="m25.06,8.52l.21.19c.35-.25-.06-.16-.21-.19Z"/><path d="m138.93,32.65c.68-.79.38.49,1.24-.74.31-.45.43-.83.48-1.13.11-.64.24-1.37-.52-.55-1.24,1.23-.78,1.61-1.21,2.42Z"/><path d="m141.81,26.4c-.14.57-.71,1.35-.36,1.44.13.03.41-.11.58-.77.16-.64.26-1.61.13-1.67-.22-.13-.19.74-.35,1.01Z"/><path d="m142.42,27.3c.3-.4.51-.66.62-1,.15-.42.29-1.22.1-1.29-.11-.04-.28.22-.37.68-.12.49-.18.98-.35,1.61Z"/><path d="m142.55,21.54c.07-.06.18-.06.14-.49-.02-.13-.11-.2-.17-.29.03.26.05.52.03.79Z"/><path d="m141.37,28.67c.02-.14-.02-.07-.06,0h.06Z"/><path d="m142.45,22.32v-.18s0-.18,0-.18c-.05.12-.06.24,0,.37Z"/><path d="m95.81,2.8c-.07-.31-.5-.44-1.1-.37-.77.09-.48.43-.56.67.74.06.79-.51,1.67-.3Z"/><path d="m105.43,2.13c0,.28-.26.61.75.73-.05-.24.18-.48-.29-.71l-.46-.02Z"/><path d="m95.82,2.8l.09.08s-.06-.05-.09-.08Z"/><path d="m20.79,46.13l.7.32c-.08-.17.37-.27-.2-.49-.33-.12-.47.02-.5.17Z"/><path d="m30.63,49.26c.67.17,1.35.36,1.44-.06-.52-.02-1.09-.1-1.44.06Z"/><path d="m84.67,2.34c.84-.16,1.72-.5,1.92.32.09.37,1.17.2,1.77.3-.33-.43-.58-.87-1-1.28-.88-.88-2.53-.98-3.88-.27-.17.09-.25.23-.46.28-.77.19-.82.82-.06,1.05.32.1.32.1.5-.31.09-.19.06-.44.64-.45.18,0,.37.23.56.35Z"/><path d="m78.41,2.73h.45c.79-.66-.45-1.23-.42-1.87l-1.25.39c-.11.59,1.55.86,1.22,1.48Z"/><path d="m80.49.69c-.45,0-.93-.04-1.26.15.01.03,0,.07.04.09.56.2.46.83,1.15.71,1.01-.17-.12-.62.07-.95Z"/><path d="m82.71,1.25c.12-.06.26-.1.25-.13-.04-.1-.13-.2-.2-.3-.05.05-.15.11-.15.16,0,.08.06.17.1.28Z"/><path d="m88.74.81c-.27-.06-.56-.12-.62.09.26.04.63.21.62-.09Z"/><path d="m87.56.88l-.17.1c.08-.02.15-.05.17-.1Z"/><path d="m16.85,12.54c.36-.15.72-.31,1.08-.44.07-.78,1.97-1.35,2.4-2.07-.14-.21-.09-.57-.98-.23.5.2-.1.58-.47.84-.46.31-.79.15-1.04.04-.38.13-.76.26-1.14.4-1.84,1.51-1.79,1.65.16,1.46Z"/><path d="m17.83,10.68c.26.11.59.27,1.04-.04.37-.26.97-.64.47-.84-.61.23-1.43.38-1.51.88Z"/><path d="m12.47,13.25c1.42.29,1.31-.75,1.97-1.13-.98.06-1.51.58-1.97,1.13Z"/><path d="m10.13,14.11l.39-.21c-.21-.08-.34-.01-.39.21Z"/><path d="m62.8,3.56c.81-.06.83-.33.88-.59-.15-.36.28-.31.74-.24.23-.39.02-.84,1.19-1.02.21-.48-1.07-.23-1.27-.51-1.63.7-1.69,1.52-1.54,2.36Z"/><path d="m75.97,2.39l.52-.07c-.3-.16-.37,0-.52.07Z"/><path d="m64.2,51.97c-.2.14-.26.29-.32.45.84.03,1.67.05,2.51.08.75,0,.77-.22.81-.43-.45-.04-1,.02-1.26-.21l-1.74.12Z"/><path d="m75.88,51.56c-.02-.16-.07-.34-.52-.36-.21-.01-.48.14-.72.22.3.19.79.15,1.24.15Z"/><path d="m65.94,51.85c.26.23.81.17,1.26.21-.25-.23-.76-.2-1.26-.21Z"/><path d="m70.91,52.72c0-.09.39-.18.02-.27-.04-.01-.16,0-.19.02-.24.11-.1.19.17.26Z"/><path d="m46.38,5.04c.67-.25,1.48.91,2.05-.3,0-.8-1.44-.16-2.15-.23l.11.53Z"/><path d="m54.9,3.29l-.16.06c.05-.02.1-.04.16-.06Z"/><path d="m46.28,4.51l-.1-.06s.07.04.1.06Z"/><path d="m83.31,51.57l.84-.04.03-.29c-.59,0-.87.12-.87.34Z"/><path d="m35.39,50.08c2.04.74,2.38.25,2.5-.4l-.32-.79c-1.45-.77-2.46-.23-3.69-.34-.27.54-.28,1.11,1.52,1.53Z"/><path d="m55.5,51.42l.18.04c0-.08-.07-.08-.18-.04Z"/><path d="m51.49,50.98c.14.06.28.12.42.18,0,0,.08-.03.12-.05-.18-.04-.36-.08-.55-.13Z"/><path d="m28.33,46.86l-.72-.38c0,.23-.03.47.72.38Z"/><path d="m63.88,52.42l.18-.47c-.41-.01-.86-.03-.94.17-.08.21.32.27.76.29Z"/><path d="m60.27,3.38c.03-.2.02-.39-.4-.48.06.18-.1.41.4.48Z"/><path d="m58.14,2.52l.09.06s-.07-.04-.09-.06Z"/><path d="m61.45,2.52c-.1-.13-.11-.32-.32-.37-.28-.07-.52.12-.42.22.19.19-.61.68.65.56l.09-.4Z"/><path d="m61.45,2.52l-.09.4c.62-.15.56-.28.09-.4Z"/><path d="m35.85,5.92c-.06-.03-.12-.06-.2-.07,0,0-.14.05-.14.07,0,.05.03.09.04.14l.3-.14Z"/><path d="m7.36,37.42l.16.08c-.06-.03-.11-.06-.16-.08Z"/><path d="m144.43,8.19c.22.06.44.12.66.19l-.1-.18c-.2-.02-.39-.03-.57-.01Z"/><path d="m39.41,4.66l.55.03c-.06-.1-.18-.15-.3-.21l-.25.18Z"/><path d="m64.42,2.73c-.46-.08-.89-.12-.74.24l.74-.24Z"/>
                  </g>
                </mask>
              </defs>
              <path class="mask" d="m149.22,20.43c2.17-2.73,1.01-6.76-1.61-9.15-3.12-2.85-7.31-4.04-9.85-4.49C95.15-.77,60.64,2.84,60.64,2.84c-7.75.81-44.3,4.85-55.33,16.28-.99,1.03-3.29,3.47-3.6,6.88-.63,6.81,7.11,12.25,10.22,14.44,22.24,15.63,107.28,17.35,126.04-6.51,1.57-2,5.71-7.27,4.74-13.98-1.29-8.91-10.74-14.46-13.64-16.04"
                    mask="url(#path-mask)" stroke="black" stroke-width="2" fill="none"
                    stroke-dasharray="352.5704345703125" stroke-dashoffset="352.5704345703125">
              </path>
            </svg>
        