
            <svg xmlns="http://www.w3.org/2000/svg">
              <defs>
                <mask id="path-mask">
                  <g fill="white">
                    <path d="m203.25,45.1c.9-1.46.08-.7.14-1.07l.74-.97c.35-.37.64-.82.97-1.25.33-.43.65-.86.92-1.27.28-.41.61-.93.88-1.53.24-.61.49-1.27.68-1.93.14-.68.27-1.35.34-1.94.02-.61.01-1.14-.03-1.54.19-1.06.08-1.75,0-2.2.06-.71-.04-1.59-.13-2.43-.18-.82-.24-1.62-.29-2.18.09-.33-.12-1.61.38-.64.39.7.59,1.55.69,2.81-.03,1.05.1,1.98.22,2.57l-.04.98c.05.62-.19,1.31-.34,1.98-.14.67-.32,1.28-.19,1.8-.1.37-.28,1.04-.29,1.06.05.52-.14,1.31-.46,2.19-.4.84-.82,1.82-1.35,2.64l-.12-.03c.21-.49.13-.41-.17.11-.04.09-.09.18-.14.27l-.19-.03c.15-.29.4-.7.33-.73-.02,0-.16.18-.22.29-.27.49-.13.38-.12.46-.27.58-.58,1.13-.92,1.67-.08.13-.17.26-.25.4.05-.26.83-1.6-.02-.52-.88,1.15-1.08,1.6-1.11,1.95-.04.31-.35.87-1.1,1.52-.28-.11-1.09,1.03-1.82,1.67l-.02-.09c.55-.74.02-.25-.55.28-.88.61-.75.88-1.26,1.31l-.13.06.14-.07c.06.16.49.05-1.01,1.27-.95.73-1.74,1.4-1.42,1.48-.31.25-.61.51-.94.75l-1.04.34c.53-.38.72-.6.71-.71.58-.53.56-.65-.11-.29-.85.58-1.18.7-.97.36.1-.16.24-.37-.33,0-.16.11-.41.3-.61.47-.2.17-.37.3-.36.31.34.28-1.93,1.78-2.73,2.51-.16.15-.21.26-.3.39l-.1.2c-2.11,1.24-4.45,2.27-6.31,3.5-.47.31-1.22.54-1.75.7-.96.28-1.56.59-1.99.96-1.48.53-2.95,1.06-4.45,1.53l-.13-.11c-.19-.15-.93.03-1.82.36-.69.25-.41.33-.43.44-2.43.94-4.9,1.77-7.51,2.59h.12c-.02.08.21.1-.29.26-.12.12-.14.24-.79.41.14-.38-1.14-.11-2.17.11-2.24.47-4.86.87-6.76,1.52-1.31.47-2.23.66-3.55.92-.8.16-.31.31-.35.45-2.55.57-5.13,1.03-7.71,1.52l-.03-.27c.48-.25.33-.37.05-.5-.48-.23.15-.48,1.52-.71l1.19-.35c.72-.15,1.6-.24,1.88-.52l-1.34.16c-.19-.1-1-.1,0-.39.56.05,1.1-.01,1.62-.28l1.9-.38c.87.27,2.48.28,4.22.15,1.13-.55,2.82-1.14,2.97-1.61,1.68-.31,3.34-.66,4.97-1.21.08.12-.06.34.28.35.46,0-1.21.68.36.27,1.09-.29.82-.42.66-.55-.07-.06-.15-.3.62-.26,1.41.07.97-.46,2.1-.7.19.01.34.08.57.03.65-.16.6-.29.76-.43,2.09-.6,4.04-1.44,6.29-2.03,1.17-.31,1.65-.85,1.9-1.19,3.32-1.24,6.59-2.62,9.75-4.22.02.06-.04.18.09.19.37,0-1.01,1.07.64.24,1.45-.77.06-.37.2-.62.04-.07.5-.35.77-.53,2.52-1.63,5.29-3.28,7.77-5.14.73-.54,1.71-1.64,2.44-1.89.2-.08.63-.33,1.15-.72.51-.4,1.14-.9,1.77-1.45.59-.58,1.21-1.19,1.72-1.76.49-.59.89-1.11,1.14-1.47Zm-7.54,7l-.21.28c.13-.09.28-.18.37-.26.09-.08.11-.14.16-.21-.11.06-.22.13-.32.19Zm-15.16,9.07c-.06.02-.15.05-.23.08.03.04.12,0,.23-.08Z"/><path d="m162.31,2.81c4.02.37,7.9,1.28,11.83,2.01.3,1.32,2.96,1.12,4.57,1.6.26.43.12.86,1.95.84,1.1,0,2.63.33,3.98.65,1.04.41-2.58.97,1.51,1.29.57.18,1.42.22,1.4.67-.01.23.49.62,1.02.67.54.05,1.09-.09,1.33-.27.4-.29-.66-.36-.95-.54-.57-.35-.95-.74-1.41-1.11.39-.21,1.78.28,1.81-.19.71.87,4,.71,3.76,1.62-.12.45-1.49.68-2.16,1.1-.69.43-3.05,0-4.89-.55-.83-.24-1.58-.64-2.4-.86-.8-.22-1.72-.76-2.39-.53-.71.25,1.56.53,1.05.89-1.36.07-2.73-.07-4.16-.64.03-.73-.26-1.33-2.62-1.16-.88.06-1.79-.26-2.71-.54-.92-.28-1.85-.46-2.71-.24l-.63-.07-1.14-.41c-1.86-1.07-4-1.51-6.41-1.22-1.3-.77-2.84-1.19-4.91-1.02l-.86-.08c.11-.05.18-.12.33-.14,1.17-.13,1.97-.34.85-.94-.29-.16-1.13-.38-1.01-.16.28.54-3.49.31-.82,1.3-.75,0-1.82-.23-1.86.25l-1.28-.16c-.02-.26,1.03-.4.18-.72-.68-.26-1.44-.23-2.03-.07-.27-.04-.54-.07-.81-.09-1.66-.2-1.73-.68-1.93-1.14-.12-.27-.49-.5-1.29-.56-.3-.02-.77.05-.87.13-.28.25.36.35.86.5,1.81.52-1.54.73.02,1.24-.43.4-1.45.29-2.42.23v-.3c.05-.29,1.51-.59,0-.85-1.12-.19-1.93.11-1.74.62l-1.48-.12-2.02-.57c-.56-.36-.82-.71-.31-1.08.23-.17.19-.34-.46-.39-.79-.06-.92.16-1.05.36l-1.1-.25v-.65c.94.06,1.94.04,2.86.11.92.09,1.75.3,2.35.76.46.35,1.16.23,1.29-.09.1-.23-.03-.51.77-.59,1.64-.18,3.31-.22,4.99-.14.84.05,1.68.1,2.52.23.84.14,1.69.31,2.53.51,2,1.09,6.32,1.48,9.05.89Zm20.68,5.68c-.22-.04-.45,0-.67.02.17.1.31.24.51.29.2.06.47,0,.87.03-.32-.18-.51-.3-.71-.34Z"/><path d="m16.51,58c1.42.62,1.88,1.26,2.44,1.91.28.32-.15.62,1.04,1.02.97.3.9-.08.85-.42-.05-.32-.01-.61-.01-.92,1.11.48,2.2.99,3.33,1.42-.1.27-.65.46.89,1.07,1.16.46,1.64.81,1.45,1.16-.21.16-1.6-.34-1.04.23.19.2.69.53,1.05.66,1.22.43.55-.21.88-.29.18-.05.34-.12.59-.11.49.01,1.79.36,1.39-.03-.45-.44-1.49-.39-2.29-.77l.2-.5c3.25,1.14,6.35,2.38,9.44,3.61-.68.4-1.24.98-3.81-.39-.42-.23-1.16-.43-1.42-.27-.28.17.26.42.87.66.1.36.21.71.23,1.07l-.96-.15.66.48c-1.15-.18-2.23-.47-3.23-.88-1.01-.39-1.94-.89-2.79-1.49-.36-.54-1.16-1.28-2.26-1.38-2.16-.13-5-2.66-6.71-2.3-1.63-1.18-3.55-2.05-5.25-3.22.44-.52-.81-1.44-1.97-2.09-1.05-.56-1.54-1.08-2.1-1.77.61-.24,1.93,1.39,2.82,1.57.32.08.84,1.15,1.45,1.05.38-.06-.34-.81-.71-1.33-.38-.55-.76-.85-1.56-1.23-1.02-.46-2.12-1.19-2.39-2.31-.15-.67-1.07-1.22-1.56-1.62-.89-.67-.44.09-.14.69.47.94,1.02,1.84.54,2.05l-.6-.35c-.16-.67-.62-1.41-1.21-2.15-.27-.39-.58-.8-.88-1.2-.29-.41-.55-.86-.79-1.28-.36-.66-1.32-2.17-.44-1.98.1.02-.11-.48-.38-.99-.26-.52-.48-1.09-.59-1.1-.21-.03-.35-.2-.46-.48-.08-.29-.11-.67-.16-1.12-.03-.22-.06-.44-.04-.66-.06-.61-.14-1.3-.11-1.76.06-.46.26-.66.58-.36.14.32.25.47.32.43.05-.05.15-.29.31-.75.15-.41.37-.93.5-.98.46-.19.01,1.38.23,1.67-.04.4.02.81.04,1.21.02.4.03.8.12,1.19.08.78.21,1.5.03,2.28-.05.4.57,1.29.6,1.2.14-.35,1.2,1.56.8.05.2-.02.3.11.54.67.86,1.81,2.04,3.67,3.84,4.91-.38.61.09,1.15.78,1.63.71.47,1.62.87,2.18,1.32,1.34,1,2.65,1.22,4.08,2.24-.54.11-1.94-.05.77,1.19Zm5.98,3.7h-.39c.13.09.27.21.39.25.11.04.19,0,.29-.01-.1-.08-.2-.16-.3-.24Z"/><path d="m177.19,7.7c-1.08-.05-2.28.01-3.46-.02-1.18.03-2.33.16-3.32.32-.88,0-2,.15-3.14.34-1.12.3-2.3.55-3.31.84-.57.17-.79.25-1.18.42-1.22.52-1.31,1.11.05.72,1.44-.41,1.9-.48,2.31-.41.42.06,1.15.04,2.47-.53.15-.05.72-.17.97-.19.6-.07,1.2-.15,1.79-.24.59-.05,1.19-.1,1.78-.16,1.18-.15,2.36-.15,3.56-.16,2.75.06,5.52.3,8.22.85,1.37.22,2.69.61,4.03.94.66.2,1.31.42,1.97.63.66.2,1.31.44,1.94.71l.04-.14c-.43-.17-.78-.33-.86-.42-.79-.24-1.73-.53-2.38-.74-1.57-.47-3.55-.85-4.79-1.26-.18-.07-.67-.2-1.31-.36-.64-.14-1.45-.27-2.27-.41-1.64-.28-3.36-.34-3.93-.37-.19.01-.39.05-.36.07.27.19-.79.1-1.28.06-.59-.04-.95-.13-1.46-.18-.29-.01-1.19.11-1.11.03.05-.05.57-.14,1.27-.2,1.47-.05,3.55,0,3.76-.2Z"/><path d="m29.54,16.23c-1.34.58-3,1.21-3.7,2.04.41-.11.98-.16,1.23-.31.99-.57,1.92-1.16,2.87-.96.79.16-.04.69-.58,1.17-.96.89-1.9,1.03-2.94,1.08-.65.04-1.63.37-2.03.72-1.35,1.21-2.25,1.04-3.31,1.22-.6.27-1.31.7-1.61.5-.06-.04.15-.31.26-.36.79-.37.93-.13,1.35-.14l1.26-1.7c-1.46-.24-2.7.94-3.96,1.76.16.23.18.49-.75,1.05.11.16.11.38.34.47.67.26-.93,1.02-1.27,1.5-.09.14-.37.37-.54.3-.34-.14.11-.56.61-1.03.29-.27-.14-.45-.24-.67-.39.51-2.07,1.02-1.94,1.57.23-.05.76-.32.33.1l-.32-.11c-.81.33-.62-.38-1.52.23-.32.21-.36.71-.53,1.08.1.13.07.32-.31.67.06.04.12.07.18.1l.48-.29c.96-.25,3.54-1.53.41.82-.2.15-.17.42-.25.63.7-.46,1.37-1,2.08-1.44.72-.42,1.47-.78,2.27-.9.2,0,1.93-1.54,3.3-2.21.27-.39.71-.67,1.52-1.08,2.39-1.22,5.16-1.79,7.33-3.26,1.19.23,2.68-1.04,3.82-1.08,1.11-.04,1.95-.23,3.09-.96,1.56-.98,2.39-.96,2.63-.38.92-.35,1.86-.62,2.79-.94-.25-.33.46-.8.94-1.24-1.45-.1-2.96-.16-.34-1.46.34-.17.05-.26-.32-.23-1,.72-2.81.66-3.64,1.3-1.89,1.5-1.71.62-2.11.37l-.59.22c.02.23-.26.47-.94.71.02.3-.41.56-1.06.81l.16.29c-.66.21-.61.01-.66-.13-1.38.15-3.33.77-3.79.17Z"/><path d="m206.4,22.61c-.39-.68-.7-1.14-.98-1.45-.63-.62-1.35-1.38-.56,0,1.07,2.24,1.42,2.16,1.99,3.33.31.73.43,1.53.63,2.29.05.56.11,1.36.29,2.18.09.83.19,1.72.13,2.43l-.21.03c.04-.67-.1-1.39-.16-2.07-.11-.67-.25-1.29-.25-1.8,0-.65-.2-1.27-.37-1.93-.18-.65-.53-1.28-.83-1.96-1.32-2.63-3.23-4.94-5.52-6.8-2.29-1.87-4.89-3.37-7.61-4.61-.07-.11-.03-.18.68.06l1.03.52.5.32c.15.11.31.19.48.24,3.32,1.82,3.72,2.21,2.7,1.1-.03-.03-.04-.05-.06-.07-.75-.39-1.34-.75-1.86-1.09-.51-.33-.98-.59-1.43-.88-.46-.28-.9-.59-1.45-.85-.55-.26-1.17-.53-1.96-.82-1.31-.45-3.07-.98-3.36-1.32.87.26,1.9.41,2.16.6.49.34,1.41.6,2.27.96,3.07,1.28,5.94,2.86,8.64,5.01,3.86,3.05,6.76,7.7,7.45,12.79.12,1,.29,2.63-.01,2.7-.13-.59-.25-1.52-.22-2.57-.1-1.26-.3-2.11-.69-2.81-.14-.63-.29-1.27-.56-1.85-.26-.59-.48-1.19-.9-1.68Zm-3.98-4.55c.05-.08-.11-.42-.88-1.03-.38-.29-.82-.67-1.22-.92-.41-.24-.72-.42-.77-.4-.19.08.93.63,1.21.98.65.55,1.59,1.55,1.66,1.37Zm-1.71-2.33c-.51-.37-1.42-1.02-1.53-.94-.06.04.23.34.78.72.6.39,1.14.82,1.86,1.41-.46-.51-.72-.87-1.11-1.18Zm2.37,2.85l.24.27v-.05c-.19-.2-.21-.2-.24-.22Z"/><path d="m129.92.27c-1.5.12-2.67.04-4.35-.14-2.45-.29-5.51-.03-8.29.06-1.39.02-2.89-.13-4.18.27v.59c.32.26,1.12.65.19.79-2.76.42-2.34,1.47-4.23,2.03,1.01-.06,1.91-.22,2.7-.47.1,0,.19-.03.26-.06.1-.28-.35-.61.75-.79.86-.14,1.49-.05,1.62.28l.15.07-.13-.08c-1.29-.14-1.31.51-2.37.51-.06.03-.09.07-.08.11,1.23.57,2.69-.11,4.02-.07,1.67-.64,3.47-.61,5.29-.09.54.16.89.38,1.5,0,.93-.57,2.28-.38,3.58-.19,1.86-.45,1.02-1.01.57-1.55-.12-.14-.51-.34.15-.43.56-.09.89.09,1.12.25h.67c-.34-.46,1.44-.63,1.08-1.1Z"/><path d="m58.51,73.17c1.12.5,2.31.9,3.97.89,2.1-.24,4.24-.04,6.48.65.46-.18,1.28-.15,2.02-.17l1.2.27c-.13-.18-.32-.52-.37-.52-2.23-.11-3.64-.95-5.78-1.15-1.55-.17-2.97-.38-3.3-1.02,0-.02-.16-.05-.25-.07-.3.02-.6.04-.9.06.16.68-1.39.39-2.57.15-3.87-.78-7.85-1.16-11.69-2.36-2.31-.73-2.47-.61-1.19-1.04.39-.13.66-.3.99-.46-1.12-.19-2.31-.53-3.46-.78-1.14-.28-2.25-.46-3.23-.35.4.17.78.35,1.21.48.7.21,1.82.09,2.03.56.09.2-1.1.21-1.86.2-.4,0-1.11-.22-1.68-.36-.47-.12-.98-.28-1.25-.17-.36.13.11.38.57.61.72.37.83.8,2.03,1.09,1.41.79,3.05,1.38,5.1,1.65,2.42-.06,5.09.51,7.81,1.02,0-.16.15-.32.63-.23.86.17.27.32.43.49,1.24-.32,2.52-.79,3.06.57Z"/><path d="m194.67,12.82l.5.32.24.12.24.12c3.32,1.82,3.72,2.21,2.7,1.1-.03-.03-.04-.05-.06-.07-.75-.39-1.34-.75-1.86-1.09-.51-.33-.98-.59-1.43-.88-.46-.28-.9-.59-1.45-.85-.55-.26-1.17-.53-1.96-.82-1.31-.45-3.07-.98-3.36-1.32-1.01-.13-2.72-.71-3.5-.66.91.31-.05.32-.54.22-1.44-.29-.53-.28-.72-.41-.04-.03,0-.04.02-.06-1.07-.44-3.02-.43-4.26-.7-.78.01-1.47-.04-2.06-.16-.21.2-2.29.16-3.76.2-.7.06-1.22.15-1.27.2-.08.08.82-.04,1.11-.03.51.05.87.13,1.46.18.49.04,1.56.13,1.28-.06-.03-.02.17-.06.36-.07.58.02,2.29.08,3.93.37.82.14,1.63.27,2.27.41.64.16,1.12.29,1.31.36,1.24.41,3.22.79,4.79,1.26.65.2,1.59.49,2.38.73.76.25.77.33.86.42l-.04.14,1.08.45c-.07-.11-.03-.18.68.06.14.04.26.03.44.12.57.27.54.32.59.4Z"/><path d="m103.74,4l-.05-.23c-.51-.42-.93-.87-1.56-1.26-1.36-.84-3.75-.74-5.61.21-.23.12-.34.29-.63.36-1.08.29-1.09.98.03,1.15q.47.07.68-.39c.1-.22.04-.49.87-.57.25-.02.56.2.84.3,1.58.03,1.51.53,1.9.9-1.76.4-3.57.53-5.42.53.7-.69-1.12-.73-2.01-.94l-.88.51-1.84.42c-.03-.05-.05-.1-.04-.16,1.06-.86-.78-1.27-.81-1.96l1.13-.16s.01.08.07.09c.83.12.75.82,1.72.58,1.43-.35-.24-.65,0-1.04l.63-.53c2.77-.19,5.58-.6,8.31-.49l1.17-.1.08.41-.24.13.32-.11.74-.07c.38,0,.92.14.88-.18.39-.11.79-.2,1.18-.28l-.16.07-.19-.06c.85.42,2.88.26,3.49.99.29.34,2.82-.44,4.2-.8.23-.06.37-.16.56-.25.32.26,1.12.65.18.79-2.76.42-2.34,1.47-4.23,2.03-1.82.36-3.6.35-5.32.13Zm-8.02-1.53c-.06-.11-.2-.2-.32-.3-.07.06-.21.13-.21.19,0,.09.1.18.18.29.17-.08.36-.14.35-.17Z"/><path d="m17.63,22.31c.93-.56.91-.82.75-1.05l-.93.43-.68.4c-1.79.81-3.54,1.65-5.16,3.04-.66.57-1.65,1.32-2.6,1.79-.51.28-1.19.76-1.77,1.21-.57.47-1.02.94-1.14,1.09-1.22,1.59-2.38,3.16-3.49,4.81-.49.87-1.07,1.69-1.45,2.64-.48.91-.75,1.91-1.03,2.93-.27,1.53-.01,2.53.17,3.75.25,1.57.72,3.11,1.45,4.46.32.71.76,1.32,1.15,1.98.44.6.86,1.23,1.35,1.78,1.9,2.27,4.11,4.15,6.42,5.8.5.34.97.77,1.39.77.44-.52-.81-1.44-1.97-2.09-1.05-.56-1.54-1.08-2.1-1.77-.46-.1-1.04-.65-1.55-1.13l-.6-.35c-.16-.67-.62-1.41-1.21-2.15-.27-.39-.58-.8-.88-1.2-.29-.41-.55-.86-.79-1.28-.36-.66-1.32-2.17-.44-1.98.1.02-.11-.48-.38-.99-.26-.52-.48-1.09-.59-1.1-.21-.03-.35-.2-.46-.48-.08-.29-.11-.67-.16-1.12-.2-.2-.23-.44-.03-.67-.06-.6-.14-1.29-.11-1.75.06-.46.26-.66.58-.36l.21-.94c-.02-.26-.04-.53-.04-.81.04-.26.09-.53.16-.81.16-.54.36-1.15.88-1.66.08-.6.11-1.27.38-1.83.29-.55.76-1.05,1.57-1.34l1.22-1.33c-.1-.64.92-1.33,1.6-2.03,1.05-.95,1.09-.52,1.33-.39.4-.77.96-1.4,1.64-1.84.67-.45,1.41-.81,2.22-1.03.16-.36.21-.86.53-1.08.9-.61.72.11,1.52-.23-.14-.54,1.53-1.04,1.92-1.56l1.1-.57Z"/><path d="m79.04,3.84c-.89-.22-1.85-.27-3.04.31.76.2,1.51.44.74.96-.61.41-1.2-.03-1.89.21-1.04-.49-1.51-.02-2.07.42-.64.5-1.31.7-1.88.25-1.64.47-1.29.9-1.52,1.35.34.41,1.7.25,2.42.5,1.19.23,2.67.09,4.04-.33,1.03-.31,1.94-.47,2.97-.54.99-.41-.19-.96,1.6-1.27,1.33-.23,1.17.27,1.43.54.39-.09.78-.15,1.17-.21-.13-.28-.33-.55-.35-.84-.02-.19.52-.33,1.03-.39.45-.05.8.02.56.19-.35.25-1.36.57-.24.64.28.02,1.2-.46,1.82-.72.2-.09.28-.29.72-.16l-.74.16c.56.75,2.01.41,3.54,0,.4-.73-2.01-.76-1.92-1.41-2.52.69-2.56.15-2.44-.47-1.02.23-1.92-.08-2.96.25.25.65-.8,1.45-2.57,1.65-2.46.29.7-.74-.2-.93-.12-.03-.16-.1-.23-.15Z"/><path d="m123.75,75.07l.97-.08c.62-.11,1.25-.21,1.87-.33l.69-.1s-.04-.08-.07-.12c-.41-.01-.62-.06-.29-.2.05-.02.22-.05.27-.05.54.03-.01.17,0,.25.98-.08,1.7-.24,2.13-.51,1.37-.84,3.72-.55,3.7-.38-.08.54,1.46.31,2.6.3,1.39-.35,2.76-.76,4.16-1.14.61-.17,1.82-.3,1.44-.51-.32-.18-1.6.18-1.94.17-1.05-.06-2.54.84-3.19.33-.79.06-1.71.18-1.86-.07-.66.08-1.35.2-1.8.08-1.44.15-2.91.24-4.34.33-2.84.19-5.25.93-8.14.95l.02.35c.71-.06,1.44-.16,1.83.03-.03.2-.04.4-1.12.5l.54.4,2.54-.2Z"/><path d="m42.17,12.48c.38-.03.66.06.32.23-2.62,1.3-1.1,1.37.34,1.46l1.05-.36-.19-.55-.16-.04.15.04c1.02-.1,2.99-1.16,3.06-.3,1.58-.55,3.21-.3,4.86-1.28.24-.15,1.42-.21,1.56.09l1.72-.36c.62-.65,2.73-1.38,2.14-1.99-.03-.03.35-.19.54-.28,1.54.82,1.73-.75,2.78-.79-.02-.06-.03-.13-.05-.19-3.18-.32-3.65.83-4.52,1.74l-.21.1.23-.1c-.61.06-1.71.25-1.75.16-.65-1.34-2.57.1-4.28.62-1.77.59-3.74,1.5-5.49,1.37-.82.08-.86-.45-2.2.02l.09.4Z"/><path d="m137.05,2.03l-1.1-.25c-2.7-.23-2.64-.89-2.33-1.59-.89-.27-.85.13-1.29.18.77.97-.58,1.77-3.03,1.79.55.51.58,1-.03,1.47.61.52,1.13.19,1.67.04-.35-.12-.44-.29.04-.29.66,0,.55.22.61.38,1.39.75,3.5.36,5.01.38,2.48,0,5.14.63,7.51.22v-.3s-1.7-.23-1.7-.23c-.57.34-1.04.11-1.52-.11l-2.02-.57c-.16.27-.3.57-1.4.49-.74-.06-1.16-.27-1.5-.5-.81-.54.34-.79,1.08-1.1Z"/><path d="m136.09,72.69c.66.51,2.14-.39,3.19-.33.34.02,1.62-.35,1.94-.17.39.22-.83.35-1.44.51-1.4.38-2.77.79-4.16,1.14l.55.18.69-.08c1.85-.7,4.31-.84,6.43-1.31.48-.25.33-.37.05-.5-.48-.23.15-.48,1.52-.71v-.14c-.01-.19.38-.34,1.22-.47.17-.03.34-.07.5-.11-.19-.1-1-.1,0-.39l-.07-.13c-3.36.53-6.73.87-10.09,1.56.59.24,1.64.44-.33.94Z"/><path d="m87.15,76.16c.71.01.61.72,1.9.24.96-.36,1.84.23,2.78.12.29-.65,1.56-.5,2.9-.23,1.13.23,2.08.14,2.94-.06.89-.23,1.29-.49.35-.78-1.26-.04-2.41-.31-3.77-.2-4.23.34-4.7.26-8.04-.41-.08-.02-.24-.05-.26-.04-1.76.53-4.31-.54-6.1-.11.14.32.14.67,1.31.9.06-.22.34-.23,1.15-.15,1.71.17,3.31.44,4.83.72Z"/><path d="m136.09,72.69c1.97-.5.92-.7.33-.94-1.34.01-2.25-.17-4.08.48-1.32.48-4.08.4-6.25.66-2.93.28-6,.67-8.98.6-1.31-.02-2.17.06-2,.48.16.41,1.21.34,2.39.19l2.45-.16c2.89-.02,5.3-.76,8.14-.95,1.44-.09,2.9-.18,4.34-.33.34-.11.72-.29,1.01-.32.66-.06.74.1.78.23.15.25,1.07.12,1.86.07Z"/><path d="m55.79,9.92c.86-.91,1.34-2.06,4.52-1.74l2.31-.75c.6-.28,1.22-.55.99-.83-1.22-.27-2.6.41-3.81.67-2.3.6-4.62,1.13-6.93,1.7-1.16.28-2.31.57-3.47.89-1.15.33-2.27.74-3.4,1.16-1.2.45-1.32.68-1.72,1.04,1.76.13,3.72-.78,5.49-1.37,1.71-.52,3.62-1.95,4.28-.62.05.1,1.15-.1,1.74-.16Z"/><path d="m47.11,68.4c-.33.16-.6.33-.99.46-1.28.43-1.12.31,1.19,1.04,3.84,1.2,7.82,1.58,11.69,2.36,1.18.24,2.73.53,2.57-.15-2.11-1-4.52-1.29-7.23-1.43-1.75-.07-3.02-.5-2.55-1.13-1.77-.03-3.07-.86-4.69-1.15Z"/><path d="m79.85,74.69c1.79-.43,4.34.64,6.1.11.02,0,.18.02.26.04,3.35.67,3.82.75,8.04.41,1.36-.11,2.51.16,3.77.2-.53-.54-1.1-1.1-3.16-1.42l-1.52.3c-.57.34-1.43.29-2.64.17-1.48-.14-3.28-.17-4.56-.28-2.58-.27-4.93.22-7.36-.38l.59.79c.17.02.33.04.48.06Z"/><path d="m110.22,74.43c-.76.53-1.38,1.02,1.74.95,1.01-.02.38.21.31.34-1.53.36-3.23.27-4.34.07-2.8-.48-3.42-.02-4.01.59l-.57.05c-1.84-.29-4.85-.44-1.99-1.29.51-.15.5-.44.73-.66,1.57.02,3.15-.06,4.71-.06,1.02,0,1.78-.03,1.87-.36h1.75c-.06.12-.03.25-.21.37Zm-5,.56c-.06-.01-.17-.01-.31.04.09,0,.17.01.31-.04Z"/><path d="m189.33,8.41c.71.87,4,.71,3.76,1.62-.12.45-1.49.68-2.16,1.1-.69.43-3.05,0-4.89-.55-.83-.24-1.58-.64-2.4-.86-.8-.22-1.72-.76-2.39-.53-.71.25,1.56.53,1.05.89,2.57,1.34,6.15,1.36,8.79,2.73.83.44.8-.26,1.54-.17.76-.09-2.26-1.2.35-.78,1.05-.5,3.38-.2,3.3-1.23-.51-.21-1.2-.41-1.51-.64-.77-.56-.46-1.66-2.94-1.17-.01,0-.19-.11-.43-.25-.24-.14-.53-.3-.77-.39-1.39-.53-2.79-.78-4.08-.72.21.97,2.01.48,2.76.96Z"/><path d="m196.15,13.4c.69.24,1.16.51,1.45.86.37.44.94.9,1.62,1.21.68.3,1.45.49,2.19.47,1.31-.02,2.6-.33,2.94-.94.65-1.15-.74-2.02-4.21-2.82-.85-.19-1.79-.81-2.69-1.24-1.19.24-.94.91.06,1.6,1.02.7,2.12.73,3.06.52.34-.08,1.78.06,1.51.52-.23.4.43,1-.19,1.27-.38.17-.63.45-1.56.24-.96-.21-1.3-.6-1.32-.94-.02-.35-.08-.66-1.15-.94-1.03-.27-1.61-.22-1.72.18Z"/><path d="m78.77,73.83c2.43.61,4.78.11,7.36.38,1.28.11,3.08.14,4.56.28,1.21.12,2.08.17,2.64-.17-2.05-.9-5.17-.6-7.73-.78-3.82-.29-7.76-.2-11.41-1.14l-.33.2c.52.33,2.43.85-.53.65-.97-.06-1.55.18.11.46,1.77.06,3.12-.58,5.34.11Z"/><path d="m39.1,16.36c-.23-.59-1.07-.61-2.63.38-1.15.72-1.98.92-3.09.96-1.14.05-2.64,1.31-3.82,1.08-2.17,1.46-4.95,2.04-7.33,3.26-.82.41-1.25.69-1.52,1.08,2.42-.61,4.84-1.63,7.45-2.78,1.65-.75,3.41-1.36,5.36-1.83,1.7-.39,3.71-1.41,5.6-2.16Z"/><path d="m153.66,5l-1.28-.16-1.84-.79c-.27-.04-.54-.07-.81-.09l-2.68.25c.73.59,1.88.86,3.12,1.01,1.24.2,2.57.27,3.67.42,2.2.29,4.41.5,6.64.67,2.22.2,4.44.49,6.65.75l1.21-.04c-1.86-1.07-4-1.51-6.41-1.22-1.91-.04-3.95.14-4.91-1.02l-.86-.08-.62-.02c0,.16,0,.23.02.3l.17.18-.41-.12-1.66-.03Z"/><path d="m157.29,68.19c1.67-.31,3.34-.65,4.97-1.21,1.31-.36,2.57-.68,3.6-.76.88-.26,1.32-.38,1.76-.53,2.09-.6,4.04-1.44,6.29-2.03,1.17-.31,1.65-.85,1.9-1.19-6.16,2.18-12.46,3.95-18.8,5.56l.29.16Z"/><path d="m112.27,75.71c-1.53.36-3.23.27-4.34.07-2.8-.48-3.42-.02-4.01.59,4.59.08,9.22.21,13.77-.57,1.1-.18,1.81.11,2.71,0,1.23-.17,3.16-.15,3.34-.73l-2.54.2c-1.39.08-2.78.1-4.18.16-1.59.13-3.17.22-4.76.29Z"/><path d="m198.41,50.67c.06.16.49.05-1.01,1.27-.95.73-1.74,1.4-1.42,1.48,2.04-1.42,3.96-3.05,5.71-4.9,1.75-1.84,3.27-3.97,4.4-6.34l-.12-.03-.17.11c-.04.09-.09.18-.14.27-.35.81-.8,1.55-1.11,1.65-.08.13-.16.27-.26.4-.34.5-.74.97-1.14,1.43-.04.31-.35.87-1.1,1.52-.37.39-.7.84-1.03,1.26-.34.41-.72.78-1.13,1.06-.27.18,0-.23.34-.64l-.02-.09-.55.28c-.88.61-.75.88-1.25,1.3Z"/><path d="m103.35,76.42c-1.84-.29-4.85-.44-1.99-1.29.51-.15.5-.44.73-.66-.87-.05-.58-.23-.63-.37l-1.17.03c.36.36-1.15.5-1.19.81l.78.08c-.06.02-.17.06-.17.06-.22-.05-.42-.09-.63-.13-1.03-.23-.4-.54-.61-.82-1.17-.41-2.36-.53-3.62-.11,2.06.32,2.63.88,3.16,1.42.94.3.54.55-.35.78-.86.2-1.8.29-2.94.06-1.34-.27-2.61-.42-2.9.23,3.03.16,6.12-.06,9.11.19,1.18.11,1.8-.07,2.41-.29Z"/><path d="m73.43,73.72c-1.66-.28-1.08-.52-.11-.46,2.97.2,1.06-.32.53-.65-.54.29-1.44-.07-2.15-.09.05.24-.52.49-.95.36-2.1-.68-3.71-.16-5.59-.47-1.04.15-1.06-.1-1.11-.34-.97-.43-1.26-.2-1.59-.02.09.02.24.06.25.07.34.64,1.75.85,3.3,1.02,2.14.2,3.55,1.04,5.78,1.15.06,0,.25.34.37.52l2.29.57,1.22.31.19-.48c-2.63-.33-2.72-.91-2.45-1.49Z"/><path d="m41.47,69.68c-1.2-.29-1.31-.72-2.03-1.09-.46-.23-.92-.48-.57-.61.27-.1.78.05,1.25.17.57.14,1.27.35,1.68.36.76,0,1.95,0,1.86-.2-.21-.48-1.33-.35-2.03-.56-.43-.13-.81-.32-1.21-.48-.46-.44-1.03-.3-1.55-.42-.9-.1-1.88-.15-1.71.23.65,1.47-2.04.7-4.47.02.21.35,1.49.65,1.49.99,2.04.42,3.82,1.3,5.86,1.79,1.46.33,1.21,0,1.44-.2Z"/><path d="m65.17,72.41c1.87.31,3.48-.22,5.59.47.43.14,1-.12.95-.36-3.76-.46-7.49-.91-11.25-1.36-1.88-.24-3.83-.66-5.65-1.13-1.1-.27-2.02-.37-3.01-.48-.46.63.8,1.05,2.55,1.13,2.7.14,5.11.43,7.23,1.43.3-.02.6-.04.9-.06.32-.18.61-.41,1.59.02l1.11.34Z"/><path d="m112.27,75.71c1.59-.07,3.18-.16,4.76-.29l.03-.32c-.65.03-1.22.02-1.13-.18.09-.2.75-.24,1.34-.28.21-.17.22-.33.22-.49-1.17.14-2.23.22-2.39-.19-1.52-.11-3.09-.07-4.68.08-.06.13-.03.26-.21.39-.76.53-1.38,1.02,1.74.95,1.01-.02.38.21.31.34Z"/><path d="m62.61,7.43l-2.31.75.04.2.15.05-.14-.05c-1.05.04-1.24,1.61-2.78.79-.19.1-.56.26-.54.28.59.61-1.52,1.33-2.14,1.99.18.19.69.03,1.15-.08.53-.47,1.53-.61,2.38-.86.66-.04.87-.94,1.34-.47.49.48,1.47-.12,2.09-.1.93-.6,1.45-.48,1.87-.19.62-.05,1.43.19,1.69-.42l.2-.37c-.74.01-1.16-.24-2.16-.02-.71,0-.5-.27-.6-.45-3.21.3.26-.78-.23-1.04Z"/><path d="m204.14,43.06c.35-.37.64-.82.97-1.25.33-.43.65-.86.92-1.27.28-.41.61-.93.88-1.53.24-.61.49-1.27.68-1.93.14-.68.27-1.35.34-1.94.02-.61.01-1.14-.03-1.54-.16,1.46-.59,3.02-.65,1.96-.69,2.68-1.9,5.17-3.11,7.51Z"/><path d="m62.85,8.46c-3.2.3.26-.78-.23-1.04.6-.28,1.22-.55.99-.83,1.78-.43,3.57-1.38,5.34-.98.09.02.12.06.1.11-2.24,1.11-2.25,2-1.94,2.87l-1.49.33c-.74.01-1.16-.24-2.16-.02.02-.22,0-.42-.6-.45Zm1.73-1.03c-.4-.02-.72.23-.58.31.28.17-.82.86.98.47.87-.28.77-.41.09-.45-.15-.12-.19-.32-.49-.34Z"/><path d="m22.34,19.5c.52-.22,1.1-.08,1.56-.62,1.03-1.22,1.4-.7,1.94-.61.41-.11.98-.16,1.23-.31.99-.57,1.92-1.16,2.87-.96.79.16-.04.69-.58,1.17-.96.89-1.9,1.03-2.94,1.08-.65.04-1.63.37-2.03.72-1.35,1.21-2.25,1.04-3.31,1.22.42-.56.84-1.13,1.26-1.7Zm6.52-1.9s-.19.1-.19.12c0,.06.04.09.07.14l.41-.24c-.09-.01-.18-.03-.29-.03Z"/><path d="m189.19,57.75c-2.11,1.24-4.45,2.27-6.31,3.5-.47.31-1.22.54-1.75.7-.96.28-1.56.59-1.99.96,2.04-.47,4.29-1.61,6.34-2.75,2.66-1.45,5.35-2.54,7.78-4.46.35-.28.8-.6.91-.79-.63.19-1.54.72-2.49,1.5-1.14.95-1.83,1.16-2.5,1.34Z"/><path d="m196.15,13.4c.11-.4.69-.45,1.72-.18,1.06.28,1.13.58,1.15.94.02.34.35.73,1.32.94.93.2,1.18-.08,1.56-.24.62-.27-.04-.87.19-1.27.27-.45-1.17-.6-1.51-.52-.94.22-2.04.18-3.06-.52-1-.69-1.25-1.36-.06-1.6-.34-.26-.7-.45-1.15-.34.08,1.03-2.26.73-3.3,1.23.56.34,1.06.69,1,1.04l2.15.51Z"/><path d="m12.55,25.74c-.81.22-1.55.58-2.22,1.03-.68.44-1.24,1.06-1.64,1.84-.39.99-2.53,2.93-2.27,3.83l.62.28c.77-.63,1.45-1.22,1.84-2.01.02-.18-.38-.05.03-.51l.38.15c.16-.08.3-.19.45-.33.88-.8,1.07-1.34,1.27-1.84.19-.51.36-1.03,1.24-1.76.38-.35.41-.54.31-.67Z"/><path d="m136.16,74.03l-.55-.18c-1.14.01-2.68.24-2.6-.3.03-.16-2.33-.46-3.7.38-.43.27-1.15.43-2.13.51.05.03.07.07.09.11v.45c1.47-.07,2.94-.11,4.42-.22,1.48-.15,2.96-.36,4.46-.76Z"/><path d="m163.85,68.39c.14-.38-1.14-.11-2.17.11-2.24.47-4.86.87-6.76,1.52-1.31.47-2.23.66-3.55.92-.8.16-.31.31-.35.45,2.84-.46,5.6-.98,8.5-1.9,1.25-.42,2.88-.72,4.33-1.11Z"/><path d="m43.88,13.81l-1.05.36c-.48.44-1.19.91-.94,1.24,2.93-.57,5.82-2.02,8.87-2.26,1.24-.07,1.39-.92,2.4-1.38-.14-.3-1.32-.24-1.56-.09-1.65.98-3.29.73-4.86,1.28-.7,1.44-1.94.4-2.87.84Z"/><path d="m1.58,38.79l-.21.94c.14.32.25.47.32.42.05-.05.15-.29.31-.75.15-.41.37-.93.5-.98.46-.19.01,1.38.23,1.67l.63-1.08.12-.43.19-.41.38-.82c.26-1.22.71-2.44,1.31-3.63-.51.45-.9.8-1.18,1-.25.23-.41.31-.47.22-.16-.19.11-1,.83-2.6-.81.29-1.28.79-1.57,1.34-.28.56-.3,1.23-.38,1.83-.26.51-.14,1.03-.16,1.53-.01.52-.25.99-.84,1.74Z"/><path d="m32.68,67.09c2.43.68,5.12,1.45,4.47-.02-.17-.38.81-.33,1.71-.23-.1-.69-1.45-.52-2.15-.82-.68.4-1.24.98-3.81-.39-.42-.23-1.16-.43-1.42-.27-.28.17.26.42.85.65l.27.05-.24-.03.32,1.07Z"/><path d="m68.95,5.62c.09.02.12.06.1.11.32.25,2.11-.31,1.86.26.57.45,1.24.25,1.88-.25.56-.44,1.03-.91,2.07-.42.69-.24,1.28.2,1.89-.21.77-.52.03-.76-.74-.96-2.41.36-5.1.12-7.06,1.47Z"/><path d="m104.84,1.11c.85.42,2.88.26,3.49.99.29.34,2.82-.44,4.2-.8.23-.06.37-.16.56-.25V.46c-2.18-.35-4.16.5-6.3.36l-1.57.15c-.21.02-.33.06-.38.13Z"/><path d="m197.46,50.5c.2-.08.63-.33,1.15-.72.51-.4,1.14-.9,1.77-1.45.59-.58,1.21-1.19,1.72-1.76.49-.59.89-1.11,1.14-1.47.9-1.46.08-.7.14-1.07-.27.47-.57.91-.9,1.34-.33.42-.64.84-1.05,1.16-.18.14-.7.67-.73.71-.17.31-.38.61-.63.9-.26.28-.55.55-.84.81l-.89.79c-.31.25-.62.49-.9.75Z"/><path d="m189.33,8.41c-.75-.48-2.55,0-2.76-.96-.75-.59-1.63-.56-2.49-.6-1.53.33-3.66-.43-5.37-.43.26.43.12.86,1.95.84,1.1,0,2.63.33,3.94.62l.78-.1.2.19-.95-.06c1.04.41-2.58.97,1.51,1.29.22-.31-.19-.9,1.39-.59.39-.21,1.78.28,1.81-.19Z"/><path d="m164.93,67.74c-.02.07.21.09-.29.24,3.53-.93,7.33-1.76,10.06-3.54l-.13-.11c-.75.27-1.49.55-2.24.8-2.43.94-4.9,1.77-7.4,2.6Z"/><path d="m178.71,6.42c1.7,0,3.84.75,5.37.43-.03-.75-1.46-.44-2.11-.63-2.52-.74-5.2-1.07-7.82-1.4.3,1.32,2.96,1.12,4.57,1.6Z"/><path d="m135.95,1.13c.94.06,1.94.04,2.85.11.92.09,1.75.3,2.35.76.46.35,1.16.23,1.29-.09.1-.23-.03-.51.77-.59.3-.65-1.29-.57-2.12-.66-1.87-.24-3.78-.25-5.68-.33.14.27-.35.57.54.8Z"/><path d="m126.33,3.11c-1.3-.19-2.65-.38-3.58.19-.6.37-.96.15-1.5,0-1.81-.52-3.61-.55-5.29.09,1.7.56,3.79.46,5.83.39,1.51-.05,3-.14,4.51-.21l.02-.46Z"/><path d="m15.74,56.8c-.54.11-1.94-.05.77,1.19,1.42.62,1.88,1.26,2.44,1.91.28.32-.15.62,1.04,1.02.97.3.9-.08.85-.42-.05-.32-.01-.61-.01-.92-1.74-.86-3.45-1.77-5.09-2.78Z"/><path d="m85,3.01c-.12.62-.08,1.15,2.44.47l1.75-.61,1.13-.16c.46-.27,1.14-.31,1.79-.38l.63-.53c.01-.41-.77-.2-1.4-.07-2.12.43-4.23.86-6.35,1.29Z"/><path d="m3.36,39.02l-.63,1.08c-.04.4.02.81.04,1.21.02.4.03.8.12,1.19.08.78.21,1.5.03,2.28-.05.4.57,1.29.6,1.2.14-.35,1.2,1.56.8.05-.56-1.07-.82-2.32-.85-3.51-.05-1.2.01-2.32-.11-3.5Z"/><path d="m85.84,4.9c-.63.25-1.54.74-1.82.72-1.13-.07-.11-.39.24-.64.24-.17-.11-.24-.56-.19-.51.06-1.05.2-1.03.39.02.29.22.56.35.84,2.22.3,4.62-.13,7.02-.52l.02-.52c-.03-.05-.05-.1-.04-.16l-.65.06c-1.53.42-2.98.76-3.52,0Z"/><path d="m12.24,26.41c-.88.72-1.04,1.25-1.24,1.76-.2.5-.39,1.04-1.27,1.84,1.24-.43,2.45-.79,3.32-2.34.08-.21.04-.47.25-.63,3.14-2.35.56-1.07-.41-.82,0,.16.18.26-.42.63l-.06-.34c-.06-.03-.12-.06-.18-.1Z"/><path d="m26.27,65.05c-.36-.54-1.16-1.28-2.26-1.38-2.16-.13-5-2.66-6.71-2.3,2.92,1.6,5.92,2.8,8.97,3.68Z"/><path d="m74.47,75.39l-2.29-.57-1.2-.27c-.04.43-1.04.3-2.02.17-2.24-.69-4.39-.89-6.48-.65.17.22.77.48,1.19.48,3.52.03,7.35,1.13,10.8.84Z"/><path d="m178.14,9.43c.03-.73-.26-1.33-2.62-1.16-.88.06-1.79-.26-2.71-.54-.92-.28-1.85-.46-2.71-.24,2.28,1.28,5.27,1.43,8.04,1.93Z"/><path d="m150.09,69.66c.87.27,2.48.28,4.22.15-.43-.35.37-.89,1.44-1.47-1.23.04-2.23.49-3.31.78-.52.46-1.52.42-2.35.55Z"/><path d="m153.26,1.92c2,1.09,6.32,1.48,9.05.89-2.52-.72-5.16-.62-7.74-.91-.11.42-.73.19-1.31.02Z"/><path d="m33.83,15.89c.65-.26,1.07-.51.97-.75l-.77.13-.23-.15.56-.12.53.07c.68-.24.96-.48.94-.71-2.1.66-4.12.69-6.29,1.86.45.6,2.41-.02,3.79-.17l.5-.16Z"/><path d="m54.38,72.35c-2.71-.51-5.39-1.07-7.81-1.02.84.51,1.67.83,3.09.79,1.8-.06,3.87.73,5.81.9l-.04-.42c-.35-.08-.7-.17-1.06-.25Z"/><path d="m129.3,2.16c2.45-.02,3.8-.81,3.03-1.79l-2.41-.1c.36.47-1.43.64-1.08,1.11.69.24.39.52.46.78Z"/><path d="m5.36,33.72c-.6,1.18-1.05,2.41-1.31,3.63,1.07-1.56,2.21-2.9,2.98-4.64l-.62-.28c-.36.42-.75.82-1.05,1.29Z"/><path d="m67.11,8.6l-1.49.33-.2.37c2.21-.31,4.47-.49,6.39-1.46-.72-.25-2.08-.09-2.42-.5-.4.16-.75.3-1.09.44-.04.29-.04.59-1.19.82Z"/><path d="m126.33,3.11l-.02.46c.99-.02,1.97.02,2.96.06.62-.47.59-.96.03-1.47-1.45-.09-1.1-.47-1.12-.78-.23-.17-.55-.34-1.12-.25-.66.1-.27.29-.15.43.45.54,1.29,1.1-.57,1.55Z"/><path d="m42.17,12.48l-.09-.4c-.99.28-2.06.44-3.07.69-1,.26-1.91.69-2.6,1.37.41.25.22,1.13,2.11-.37.83-.64,2.64-.58,3.64-1.3Z"/><path d="m75.88,75.21l-.19.48c2.29.52,4.41.39,6.57.31l-1.09-.42c-1.18-.24-1.17-.59-1.31-.9-.16-.03-.32-.05-.49-.06-.06.67-.46,1.2-3.49.59Z"/><path d="m102.09,74.47c1.57.02,3.15-.06,4.71-.06,1.02,0,1.78-.03,1.87-.36-2.1-.4-4.42.07-6.6-.08,0,.16,0,.32.02.49Z"/><path d="m81.17,75.59l1.09.42c1.69.32,3.45.87,4.89.14-1.53-.28-3.12-.54-4.83-.72-.81-.09-1.09-.07-1.15.15Z"/><path d="m79.04,3.84c.07.05.11.12.23.15.89.19-2.27,1.22.2.93,1.77-.21,2.82-1,2.57-1.65-1.05.06-2.21-.09-3,.58Z"/><path d="m189.19,57.75c.67-.19,1.36-.4,2.5-1.34.95-.77,1.86-1.3,2.49-1.5.34-.27.79-.57.86-.74l-1.05.35c-1.58,1.02-3.09,2.09-4.7,3.03l-.1.2Z"/><path d="m207.24,35.55c.05,1.06.49-.5.65-1.96.19-1.06.08-1.75,0-2.2l-.21.03c.02,1.36-.07,2.73-.44,4.14Z"/><path d="m143.28,72.64c-2.12.47-4.58.61-6.43,1.31,2.2,0,4.31-.69,6.46-1.03l-.03-.27Z"/><path d="m8.7,51.62c-.38.61.09,1.15.78,1.63.71.47,1.62.87,2.18,1.32.1-.28.65-.34-.82-1.24-.36-.23-.73-.51-1.09-.8-.35-.3-.7-.61-1.05-.91Z"/><path d="m81.84,6.24c-.25-.27-.1-.77-1.43-.54-1.79.31-.61.85-1.6,1.27,1.51.32,2.02-.48,3.02-.72Z"/><path d="m147.05,4.2l2.68-.25c-1.66-.2-1.72-.68-1.92-1.14-.12-.27-.49-.5-1.29-.56-.3-.02-.77.05-.87.13-.28.25.36.35.86.5,1.81.52-1.54.73.02,1.24.16.04.34.07.52.08Z"/><path d="m208.72,32.51c.05.62-.19,1.31-.34,1.98-.14.67-.32,1.28-.19,1.8.37-.43.57-.45.53-3.78Z"/><path d="m98.31,3.58c1.58.03,1.51.53,1.9.9,1.22-.08,2.58.11,3.54-.47l-.05-.23c-.88-.03-2.41.29-2.58-.1-.38-.86-1.61-.38-2.8-.1Z"/><path d="m94.78,5c.7-.69-1.12-.73-2.01-.94l-.88.51-.64.91c1.22-.03,2.24-.68,3.53-.48Z"/><path d="m27.08,62.92l.2-.5c-.97-.54-1.93-1.1-3.12-1.41-.1.27-.65.46.89,1.07,1.16.46,1.64.81,1.45,1.16.56.08.47-.17.58-.31Z"/><path d="m155.76,68.33c-1.07.58-1.87,1.12-1.44,1.47,1.13-.55,2.82-1.14,2.97-1.61l-.29-.16-1.24.3Z"/><path d="m135.95,1.13c-.88-.23-.39-.53-.54-.8l-1.8-.14c-.31.7-.37,1.36,2.33,1.59v-.65Z"/><path d="m55.44,72.6l.04.42c1.15.22,2.15.25,3.03.15-.54-1.35-1.82-.88-3.07-.57Z"/><path d="m185.55,58.25c.02.06-.04.18.09.19.37,0-1.01,1.07.64.24,1.45-.77.06-.37.2-.62.04-.07.5-.35.77-.53-.41.07-.79.12-1.7.72Z"/><path d="m150.09,69.66c.84-.13,1.84-.09,2.35-.55l-1.29.19c-.48.11-.9.17-1.14.11l-2.34.58.52.05,1.9-.38Z"/><path d="m183.52,8.55s-.05.03-.02.06c.19.13-.72.12.72.41.49.1,1.45.09.54-.22l-1.24-.25Z"/><path d="m99.1,74.94c.04-.31,1.55-.45,1.19-.81h-1.82c.21.27-.42.59.63.81Z"/><path d="m194,12.88c.05-.35-.45-.7-1-1.04-2.61-.42.41.7-.35.78.09.09.24.14.43.17.26.06.51.1.77.17.16.03.22,0,.16-.08Z"/><path d="m104.01,1.37c.39-.11.79-.2,1.18-.28-.56-.45-2-.16-2.92-.3l-.04.4.08.41c.32,0,.57-.03.81-.05.08-.24.49-.21.89-.18Z"/><path d="m34.17,68.09c0-.35-1.28-.64-1.58-.99l-.96-.15.66.48c.57.3,1.19.55,1.88.66Z"/><path d="m63.73,9.72c-.42-.28-.94-.41-1.87.19.53.09.84.57,1.87-.19Z"/><path d="m126.59,74.66c-.62.13-1.24.22-1.87.33-.05.4.98.23,1.9.08l-.04-.41Z"/><path d="m58.42,10.49c-.86.24-1.85.39-2.38.86,1.34.09,1.94-.33,2.38-.86Z"/><path d="m177.2,7.7c.59.12,1.28.17,2.06.16-.66-.07-1.04-.34-2.06-.16Z"/><path d="m148.2,70.04l-.52-.05-1.17.2.07.13c.56.05,1.1-.01,1.62-.28Z"/><path d="m111.95,3.45s.01-.07.08-.11c-.08.03-.17.05-.27.06-.05.15-.1.3-.15.45l.35-.4Z"/><path d="m150.02,69.41c.25.06.66,0,1.14-.11-.03-.22-.42-.18-1.14.11Z"/><path d="m131.58,3.75c-.06-.16.05-.39-.61-.38-.48,0-.4.17-.04.29l.65.08Z"/><path d="m102.23,1.2l.04-.4c-.61.12-1.03.28-1.21.51l1.17-.1Z"/><path d="m105.23.98l1.57-.15c-.68-.23-1.2-.19-1.57.15Z"/><path d="m102.06,74.46v-.48c-.38-.03-.59,0-.61.12.05.14-.24.32.61.37Z"/><path d="m9.29,30.33l-.38-.15c-.41.46-.01.34-.03.51.15-.1.29-.23.41-.37Z"/><path d="m153.26,1.92c.58.18,1.2.4,1.31-.02-.54-.12-1.07-.24-1.31.02Z"/><path d="m193.84,12.96c-.25-.06-.51-.11-.77-.17l.39.37.37-.2Z"/><path d="m189.29,57.54c1.61-.94,3.13-2.01,4.7-3.03.53-.38.72-.6.71-.71l-.11-.29c-.85.58-1.18.7-.97.36.1-.16.24-.37-.33,0-.16.11-.41.3-.61.47-.2.17-.37.3-.36.31.34.28-1.93,1.78-2.73,2.51-.16.15-.21.26-.3.39Z"/><path d="m207.85,26.15c-.14-.63-.29-1.27-.56-1.85-.26-.59-.48-1.19-.9-1.68.53.94.42,1.11.37,1.15-.07.05-.18.04.08.73.31.73.43,1.53.63,2.29.09-.33-.12-1.61.38-.64Z"/><path d="m165.85,66.22c-1.02.08-2.29.4-3.6.76.08.12-.06.34.28.35.46,0-1.21.68.36.27,1.09-.29.82-.42.66-.55-.07-.06-.15-.3.62-.26,1.41.07.97-.46,1.67-.57Z"/><path d="m203.15,46c.4-.46.79-.93,1.14-1.43.05-.26.83-1.6-.02-.52-.88,1.15-1.08,1.6-1.11,1.95Z"/><path d="m200.23,49.19c-.34.41-.62.82-.34.64.41-.28.79-.64,1.13-1.06.34-.42.66-.86,1.03-1.26-.28-.11-1.09,1.03-1.82,1.67Z"/><path d="m172.33,65.14c.75-.25,1.5-.53,2.24-.8-.19-.15-.93.03-1.82.36-.69.25-.41.33-.43.44Z"/><path d="m146.58,70.71c-.16.04-.33.08-.5.11l-.02.26c.71-.15,1.59-.24,1.87-.52l-1.34.16Z"/><path d="m204.55,44.17c.31-.1.76-.84,1.11-1.65l-.19-.03c-.27.59-.59,1.14-.92,1.68Z"/><path d="m196.03,51.92c-.11.06-.22.13-.32.19l-.21.28c.13-.09.28-.18.37-.26.09-.08.11-.14.16-.21Z"/><path d="m167.61,65.69l-1.32.4c.19.01.34.08.57.03.65-.16.6-.29.76-.43Z"/><path d="m199.66,49.37l.55-.28c.55-.74.02-.25-.55.28Z"/><path d="m205.47,42.48c.15-.29.4-.7.33-.73-.02,0-.16.18-.22.29-.27.49-.13.38-.11.45Z"/><path d="m194.6,53.52l.11.29c.58-.53.56-.65-.11-.29Z"/><path d="m180.32,61.26s.12,0,.19-.03c-.03-.04-.12,0-.19.03Z"/><path d="m144.86,71.28v.14s1.19-.35,1.19-.35c-.39.07-.79.14-1.19.21Z"/><path d="m198.4,50.69l-.13.06s.09-.05.13-.06Z"/><path d="m205.8,42.25l.17-.11c.21-.49.13-.41-.17.11Z"/><path d="m137.05,2.03c-.74.31-1.88.56-1.08,1.1.34.23.76.45,1.5.5,1.1.08,1.24-.22,1.4-.49-.56-.36-.82-.71-.31-1.08.23-.17.19-.34-.46-.39-.79-.06-.92.16-1.05.36Z"/><path d="m187.52,8.6c-1.58-.31-1.17.28-1.39.59.57.18,1.42.22,1.39.67-.01.23.49.62,1.02.67.54.05,1.09-.09,1.33-.27.4-.29-.66-.36-.95-.54-.57-.35-.95-.74-1.41-1.11Z"/><path d="m157.02,4.77c.95,1.17,2.99.98,4.91,1.02-1.3-.77-2.84-1.19-4.91-1.02Z"/><path d="m155.54,4.67l.62.02c.11-.05.18-.12.33-.14,1.17-.13,1.97-.34.85-.94-.29-.16-1.13-.38-1.01-.16.28.54-3.49.31-.79,1.22Z"/><path d="m142.4,3.82l1.71.23c.04-.29,1.5-.59-.01-.85-1.12-.19-1.93.11-1.7.61Z"/><path d="m150.54,4.05l1.84.79c-.02-.26,1.03-.4.18-.72-.68-.26-1.44-.23-2.03-.07Z"/><path d="m183.69,8.83c-.32-.18-.51-.3-.71-.34-.22-.04-.45,0-.67.02.17.1.31.24.51.29.2.06.47,0,.87.03Z"/><path d="m153.66,5l1.66.03c.08-.02.16-.04.25-.06l-.05-.22c-.75,0-1.82-.23-1.86.25Z"/><path d="m140.89,3.71c.48.22.95.45,1.48.12l-1.48-.12Z"/><path d="m179.92,9.2c-.16-.08-.24-.07-.33-.06.06.03.11.06.33.06Z"/><path d="m6.43,53.16c.51.48,1.09,1.03,1.55,1.13.61-.24,1.93,1.39,2.82,1.57.32.08.84,1.15,1.45,1.05.38-.06-.34-.81-.71-1.33-.38-.55-.76-.85-1.56-1.23-1.02-.46-2.12-1.19-2.39-2.31-.15-.67-1.07-1.22-1.56-1.62-.89-.67-.44.09-.14.69.47.94,1.02,1.84.54,2.05Z"/><path d="m27.08,62.92c-.11.15-.02.39-.58.31-.21.16-1.6-.34-1.04.23.19.2.69.53,1.05.66,1.22.43.55-.21.88-.29.18-.05.34-.12.59-.11.49.01,1.79.36,1.39-.03-.45-.44-1.49-.39-2.29-.77Z"/><path d="m22.79,61.94c-.1-.08-.2-.16-.3-.24h-.39c.13.09.27.21.39.25.11.04.19,0,.29-.01Z"/><path d="m.93,42.51c-.03-.22-.06-.44-.04-.66-.01.21.01.44.04.66Z"/><path d="m191.92,11.66c-.09-.1-.1-.18-.86-.42.08.09.43.25.86.42Z"/><path d="m17.63,22.31l-1.1.57c.11.22.53.41.24.67-.5.47-.95.89-.61,1.03.17.07.45-.16.54-.3.33-.48,1.94-1.24,1.27-1.5-.22-.08-.23-.31-.34-.47Z"/><path d="m21.08,21.2c-.41.01-.56-.23-1.35.14-.11.05-.32.32-.26.36.29.21,1.01-.23,1.61-.49Z"/><path d="m33.83,15.89l-.5.16c.05.14,0,.34.66.13l-.16-.29Z"/><path d="m12.42,26.51l.06.34c.6-.37.41-.47.42-.63l-.48.29Z"/><path d="m14.6,24.43l.32.11c.43-.42-.11-.15-.32-.11Z"/><path d="m206.85,24.49c-.26-.7-.16-.68-.08-.73.05-.04.16-.2-.37-1.15-.39-.68-.7-1.14-.98-1.45-.63-.62-1.35-1.38-.56,0,1.07,2.24,1.42,2.16,1.99,3.33Z"/><path d="m200.76,16.7c.65.55,1.59,1.55,1.66,1.37.05-.08-.11-.42-.88-1.03-.38-.29-.82-.67-1.22-.92-.41-.24-.72-.42-.77-.4-.19.08.93.63,1.21.98Z"/><path d="m201.81,16.92c-.46-.51-.72-.87-1.11-1.18-.51-.37-1.42-1.02-1.53-.94-.06.04.23.34.78.72.6.39,1.14.82,1.86,1.41Z"/><path d="m194.67,12.82c-.05-.08-.03-.13-.59-.4-.18-.08-.3-.08-.44-.12l1.03.52Z"/><path d="m203.3,18.81c-.15-.13-.07-.04,0,.05v-.05Z"/><path d="m195.66,13.39l-.24-.12-.24-.12c.15.11.31.19.48.24Z"/><path d="m114.38,2.84c-.13-.33-.76-.42-1.62-.28-1.1.18-.65.51-.75.79,1.07,0,1.09-.65,2.37-.5Z"/><path d="m128.17,1.38c.02.32-.32.69,1.14.79-.08-.27.21-.55-.48-.79h-.66Z"/><path d="m114.39,2.83l.13.08s-.1-.05-.13-.08Z"/><path d="m54.38,72.35l1.07.26c-.17-.17.43-.32-.43-.49-.49-.09-.64.07-.63.23Z"/><path d="m68.96,74.71c.98.14,1.98.27,2.02-.17-.74.02-1.56,0-2.02.17Z"/><path d="m98.31,3.58c1.19-.29,2.42-.77,2.8.1.17.39,1.7.07,2.58.1-.51-.42-.93-.87-1.56-1.26-1.36-.84-3.75-.74-5.61.21-.23.12-.34.29-.63.36-1.08.29-1.09.98.03,1.15q.47.07.68-.39c.1-.22.04-.49.87-.57.25-.02.56.2.84.3Z"/><path d="m89.36,4.89l.65-.06c1.06-.86-.78-1.27-.81-1.96l-1.75.61c-.09.65,2.32.69,1.92,1.41Z"/><path d="m92.12,2.32c-.65.07-1.33.12-1.79.38.02.03.01.08.07.09.83.12.75.82,1.72.58,1.43-.35-.24-.65,0-1.04Z"/><path d="m95.37,2.64c.17-.08.36-.14.35-.17-.06-.11-.2-.2-.32-.3-.07.06-.21.13-.21.19,0,.09.1.18.18.29Z"/><path d="m104.01,1.37c-.4-.02-.81-.05-.89.18.38,0,.92.14.89-.18Z"/><path d="m102.31,1.61l-.24.13c.11-.04.21-.07.24-.13Z"/><path d="m5.36,33.72c.3-.47.69-.87,1.05-1.29-.26-.9,1.88-2.83,2.27-3.82-.24-.13-.27-.57-1.33.39.68-.14.06.71-.33,1.23-.47.63-.93.7-1.28.8l-1.22,1.33c-.72,1.61-.99,2.41-.83,2.6.07.09.22,0,.47-.22.28-.21.68-.55,1.18-1Z"/><path d="m5.76,31.02c.34-.1.8-.16,1.28-.8.38-.52,1.01-1.37.33-1.23-.68.69-1.71,1.39-1.6,2.03Z"/><path d="m1.58,38.79c.59-.75.83-1.22.84-1.74.03-.51-.09-1.03.16-1.53-.52.51-.72,1.12-.88,1.66-.08.28-.13.54-.16.81,0,.28.02.54.04.81Z"/><path d="m.93,42.52c-.03-.23-.06-.45-.04-.68-.2.23-.17.47.04.68Z"/><path d="m67.11,8.6c1.15-.23,1.15-.53,1.19-.82-.25-.35.37-.39,1.03-.42.29-.47-.06-.91,1.58-1.37.25-.57-1.54,0-1.86-.26-2.24,1.11-2.25,2-1.94,2.87Z"/><path d="m85.82,4.9l.74-.16c-.44-.13-.53.07-.74.16Z"/><path d="m117.48,74.65c-.28.15-.35.31-.42.46,1.21-.08,2.41-.16,3.61-.24,1.08-.1,1.09-.3,1.12-.5-.65.02-1.43.16-1.83-.03l-2.49.32Z"/><path d="m120.67,74.87l-3.6.24-.03.32c1.39-.05,2.78-.07,4.18-.16l-.54-.4Z"/><path d="m134.23,72.62c-.04-.14-.12-.29-.78-.23-.3.03-.67.21-1.01.32.44.11,1.14,0,1.8-.08Z"/><path d="m119.97,74.33c.4.19,1.18.05,1.83.03-.38-.18-1.12-.08-1.83-.03Z"/><path d="m127.19,74.45c0-.08.55-.22,0-.25-.06,0-.22.03-.27.05-.34.14-.13.19.26.21Z"/><path d="m43.88,13.81c.92-.44,2.17.6,2.87-.84-.07-.86-2.04.2-3.06.3l.2.54Z"/><path d="m55.8,9.92l-.23.1c.07-.03.14-.07.23-.1Z"/><path d="m43.68,13.27l-.15-.04c.05.01.1.03.15.04Z"/><path d="m144.86,71.28l1.2-.21.02-.26c-.84.12-1.23.28-1.22.47Z"/><path d="m75.88,75.21c3.03.61,3.43.08,3.49-.59l-.59-.79c-2.22-.69-3.57-.05-5.34-.11-.28.58-.18,1.17,2.45,1.49Z"/><path d="m104.9,75.03l.26.02c0-.07-.11-.07-.26-.02Z"/><path d="m155.32,5.04l.41.12-.17-.18c-.08.02-.17.04-.25.06Z"/><path d="m99.08,74.95c.21.04.42.09.63.13,0,0,.11-.04.17-.06-.26-.02-.52-.05-.8-.07Z"/><path d="m65.17,72.41l-1.11-.34c.05.24.07.49,1.11.34Z"/><path d="m117.06,75.11l.21-.46c-.59.04-1.25.08-1.34.28-.09.2.48.22,1.13.18Z"/><path d="m63.45,8.91c.02-.22,0-.42-.6-.45.1.18-.11.46.6.45Z"/><path d="m60.35,8.37l.14.05s-.1-.03-.14-.05Z"/><path d="m65.07,7.77c-.15-.12-.19-.32-.49-.34-.4-.02-.72.23-.58.31.28.17-.82.86.98.47l.08-.45Z"/><path d="m65.07,7.77l-.08.45c.87-.28.77-.41.08-.45Z"/><path d="m29.15,17.62c-.09-.01-.18-.03-.29-.03-.01,0-.19.1-.19.12,0,.06.04.09.07.14l.41-.24Z"/><path d="m32.36,66.03l.24.03c-.09-.02-.18-.03-.24-.03Z"/><path d="m184.63,7.9l.95.06-.2-.19c-.26.03-.52.07-.75.13Z"/><path d="m34.03,15.28l.77-.13c-.09-.09-.26-.11-.44-.14l-.33.27Z"/><path d="m69.33,7.36c-.66.02-1.28.06-1.03.42l1.03-.42Z"/>
                  </g>
                </mask>
              </defs>
              <path class="mask" d="m204.6,14.29C149.9-3.34,81.76-1.74,29.15,18.43,15.5,23.66,1.57,31.71,2.07,42.05c.36,7.54,8.55,14,17.8,18.5,14.39,7,31.95,10.71,49.6,12.72,29.77,3.4,61.02,2.19,89.3-4.79,15.44-3.81,30.34-9.55,39.94-18.34,9.6-8.79,12.94-21.03,5.23-30.59-7.71-9.55-27.87-14.59-42.02-9.03"
                    mask="url(#path-mask)" stroke="black" stroke-width="2" fill="none"
                    stroke-dasharray="508.9635314941406" stroke-dashoffset="508.9635314941406">
              </path>
            </svg>
        