
            <svg xmlns="http://www.w3.org/2000/svg">
              <defs>
                <mask id="path-mask">
                  <g fill="white">
                    <path d="m207.18,2.19c-2.48-.11-.93.32-1.44.47l-1.76-.27c-1.44-.29-3.12-.53-4.49-.85-2.81-.71-8.17-.66-10.46-.24-1.56-.1-2.55-.02-3.21.12-2.08-.18-5.17.04-6.77-.31-.44-.23-2.27-.44-.73-.7,1.11-.18,2.31-.26,4.09-.07,1.47.15,2.8.16,3.63-.04l1.38.03c1.72-.11,4.01.72,5.37.12.54.03,1.52.09,1.54.09,1.38-.53,4.53-.09,7.26.16l.03.16c-.75.02-.6.07.24.14.14,0,.28,0,.43.02l.07.23c-.47-.02-1.15-.09-1.15.01,0,.02.33.08.5.09.79.05.57-.05.66-.1.9.02,1.81.04,2.71.09.22.01.44.03.67.05-.35.09-2.57,0-.63.32,2.05.34,2.76.2,3.21.03.41-.18,1.3-.14,2.67.13.1.33,2.1.47,3.47.68l-.08.09c-1.32,0-.31.16.8.32,1.48.4,1.66.09,2.61.22l.19.07-.21-.08c.11-.17-.42-.5,2.31.01,1.7.32,3.17.48,2.92.14.57.07,1.13.16,1.69.27l1.41.66c-.92-.17-1.33-.18-1.43-.08-1.12-.11-1.22-.01-.18.32,1.45.31,1.91.51,1.35.59-.26.04-.62.08.33.29.28.06.73.13,1.1.18.38.05.68.08.68.07-.04-.25.91-.23,2.05-.06,1.14.17,2.48.41,3.26.45.32.01.46-.03.69-.05l.3-.08c1.71.4,3.42.98,5.12,1.44,1.69.47,3.32,1.02,4.9,1.31.8.14,1.8.67,2.52,1.03,1.29.64,2.21.94,3.02,1.04,2.04,1,4.12,1.9,6.09,3.02l.04.2c.07.29.99.86,2.23,1.46.94.5.72.17.84.11,3.35,1.72,6.64,3.58,9.91,5.85l-.1-.13c.08-.02-.12-.27.5.16.23.05.36,0,1.15.6-.47.06.97,1.31,2.12,2.34,2.48,2.25,4.96,5.25,6.59,7.74,1.12,1.74,1.67,3.13,1.9,5.21.07,1.27.28.56.44.66.03,2.1-.46,4.21-1.4,6.03-.93,1.83-2.18,3.43-3.54,4.85l-.2-.22c.42-.67.16-.64-.23-.51-.7.22-.06-.52,1.2-2.09.34-.49.62-1.01.9-1.53.27-.45.56-.96.76-1.42.18-.47.33-.88.29-1.14-.27.57-.52,1.15-.87,1.68-.24.15-.89,1.02-.32-.27.26-.28.45-.6.6-.94.17-.34.26-.71.28-1.1.29-.82.42-1.69.49-2.55.28-.52.47-1.34.46-2.37-.01-1.02-.28-2.22-.71-3.42-1.05-1.49-2.79-3.38-3.4-3.34-1.48-1.89-3.21-3.63-5.22-5.06.05-.16.38-.13.07-.51-.41-.51,1.74.94-.07-.56-1.28-1.01-1.17-.62-1.13-.38.02.11-.14.34-.83-.5-1.27-1.55-1.35-.74-2.67-1.74-.17-.2-.26-.4-.53-.6-.78-.57-.87-.42-1.14-.48-1.33-.84-2.66-1.63-4.05-2.35-1.38-.75-2.77-1.54-4.22-2.36-1.5-.88-2.49-.97-3.07-.93-4.62-2.19-9.44-3.94-14.32-5.45.03-.07.21-.11.07-.22-.4-.32,2.08,0-.48-.74-2.27-.66-.4.24-.78.31-.11.02-.87-.17-1.33-.26-1.05-.25-2.14-.47-3.24-.69-1.09-.24-2.2-.49-3.31-.74-2.23-.44-4.47-.93-6.69-1.34-1.3-.21-3.44-.26-4.42-.79-1.11-.55-8.81-1.95-11.33-1.99Zm14.76,2.39l.5-.03c-.22-.05-.47-.12-.64-.14-.17-.02-.25.01-.38.02.18.05.35.1.52.14Zm24.81,6.19c.09.04.21.09.32.14,0-.05-.12-.11-.32-.14Z"/><path d="m171.79,2.14c5.8-.23,11.55.27,17.31.74.69,1.13,4.45.83,6.83,1.26.45.37.34.75,2.93.75,1.57,0,3.79.39,5.77.69,1.56.39-3.48.77,2.38,1.17.84.18,2.05.25,2.1.64.03.2.8.57,1.56.64.78.08,1.52,0,1.83-.13.51-.21-.99-.36-1.44-.53-.87-.34-1.47-.71-2.19-1.06.51-.17,2.56.38,2.52-.02,1.17.77,5.77,1.03,5.59,1.78-.09.36-1.97.39-2.83.68-.89.3-4.31-.28-7.01-.8-1.22-.25-2.35-.6-3.57-.81-1.17-.21-2.58-.73-3.49-.54-.97.2,2.31.51,1.65.81-1.91.02-3.89-.12-6.04-.6-.09-.63-.62-1.19-3.95-.94-2.47.18-5.49-.92-7.89-.38l-.91-.03-1.71-.27c-2.87-.79-6.01-.95-9.41-.37-2.01-.51-4.3-.77-7.23-.4h-1.25c.15-.04.24-.11.46-.14,1.66-.23,2.76-.49,1.05-.92-.45-.11-1.67-.23-1.46-.04.49.45-4.95.62-.96,1.23-1.08.07-2.66-.02-2.64.4l-1.87-.02c-.07-.23,1.43-.46.16-.66-1.01-.16-2.1-.06-2.93.14l-1.18-.02c-2.42-.07-2.57-.49-2.92-.89-.2-.23-.77-.41-1.93-.41-.43,0-1.11.09-1.24.18-.38.24.56.29,1.3.39,2.67.34-2.14.75.18,1.1-.58.39-2.07.36-3.47.37l-.02-.27c.03-.26,2.1-.62-.11-.75-1.63-.1-2.78.23-2.44.67h-2.14s-2.96-.37-2.96-.37c-.83-.3-1.24-.61-.54-.95.32-.16.24-.31-.7-.34-1.13-.03-1.31.17-1.48.36l-1.59-.18-.04-.58c2.7.03,5.74-.23,7.55.51.69.28,1.68.12,1.85-.17.12-.21-.1-.45,1.04-.57,4.67-.54,9.49-.6,14.44-.23,3.01.76,9.27.72,13.04-.11Zm30.6,3.9c-.31-.04-.63,0-.95,0,.26.09.48.22.77.27.3.05.66.04,1.24.06-.49-.15-.77-.29-1.06-.33Z"/><path d="m94.1,70.74c2.25.08,3.25.49,4.37.91.56.2.15.59,1.95.58,1.45,0,1.15-.33.9-.62-.24-.27-.36-.54-.53-.82l5.28.33c0,.27-.64.59,1.76.72,1.81.09,2.63.3,2.54.66-.21.2-2.33.1-1.31.47.36.13,1.19.31,1.74.33,1.85.07.64-.33,1.06-.49.23-.09.41-.19.75-.26.67-.12,2.62-.11,1.9-.37-.82-.3-2.24.02-3.5-.11l.03-.5c5.02.18,9.85.57,14.65.94-.8.53-1.33,1.18-5.45.57-.68-.1-1.78-.12-2.07.09-.31.22.54.32,1.48.4.29.3.59.6.77.92l-1.38.09,1.1.28c-3.3.22-6.37-.03-9.22-.66-.73-.39-2.17-.87-3.7-.65-2.93.45-8.05-.97-10.05-.12-2.77-.52-5.74-.63-8.6-.98.18-.6-2-.93-3.86-.97-1.66-.03-2.62-.22-3.82-.53.5-.49,3.34.27,4.53.06.45-.08,1.85.64,2.54.32.42-.19-.99-.56-1.85-.86-.88-.3-1.58-.42-2.85-.37-1.59.05-3.44,0-4.77-.76-.79-.45-2.34-.41-3.25-.41-1.58-.01-.35.32.54.6,1.4.44,2.78.88,2.45,1.29l-.94.04c-1.51-.91-4.65-1.09-7.27-1.58-1.02-.19-3.41-.32-2.6-.87.19-.12-3.02-.42-3.15-.26-.25.33-1.1.16-2.25-.06l-.85-.16c-1.61-.16-3.54-.27-2.75-.85.87-.24.84-.23-.47-.61-.58-.18-1.34-.43-1.44-.57-.37-.47,1.97.14,2.4-.05,2.41.4,5.01.47,6.94,1.48.49.27,2.07.27,1.99.2-.38-.32,2.96.12.67-.54.13-.15.39-.14,1.35.04,3.13.59,6.25,1.33,9.51,1.45.28,1.36,4.03.8,6.11,1.12,2.43.29,4.28,0,6.84.38-.64.3-2.54.62,1.79.78Zm10.07,1.47l-.51.12c.22.03.47.09.65.1.16,0,.25-.05.38-.09-.18-.05-.35-.09-.52-.13Z"/><path d="m124.25,2.69c-3.06.38-6.81.62-9.62,1.09-2.52.04-6.32.65-9.29.94-.84.08-1.17.13-1.77.23-1.84.3-2.25.75-.21.56,2.15-.2,2.83-.2,3.39-.15.58.06,1.65.07,3.67-.35.22-.05,1.07-.16,1.43-.19,3.53-.29,6.91-.71,10.39-.99,8-.67,16.02-1.22,24.04-1.63l-.03-.18c-.68.03-1.23.05-1.38-.01-1.19.09-2.61.2-3.6.27-2.37.14-5.28.47-7.17.37-1.13-.09-9.31.35-10.96.59-.27.04-.56.1-.51.11.42.15-1.13.2-1.84.22-.85.03-1.37,0-2.1.03-.42.01-1.71.19-1.59.11.07-.05.82-.16,1.82-.28,2.1-.24,5.07-.48,5.33-.75Z"/><path d="m8.01,49.07c1.79,1.26,3.92,2.72,5.36,3.04-.5-.36-1.09-.91-1.46-1.11-1.45-.78-2.87-1.53-3.55-2.65-.55-.91.67-.19,1.61.19,1.67.68,2.68,1.55,3.74,2.57.66.63,1.9,1.45,2.62,1.67,1.22.37,2.01.79,2.64,1.24.64.44,1.15.87,1.76,1.31.85.43,1.95.9,2.07,1.24.02.07-.43.02-.59-.05-1.12-.56-1.05-.81-1.47-1.19-.93-.12-1.89-.2-2.82-.38.6.77,1.51,1.25,2.5,1.68.49.21,1.01.41,1.53.6.52.17,1.05.34,1.57.51.05-.25.27-.4,1.72.18.04-.17.24-.28.1-.52-.22-.36.25-.27.88-.09.63.17,1.42.43,1.82.46.22.02.73.15.83.34.2.37-.63.16-1.59-.04-.54-.11-.28.34-.39.54.89.08,3.01,1.33,3.42.92-.27-.16-1.07-.48-.23-.33l.21.32c1.13.52.26.7,1.72,1.19.52.17,1.04-.01,1.57-.05.03-.15.25-.22.97-.07-.02-.06-.04-.13-.08-.2l-.76-.26c-1.18-.71-5.02-2.38.42-.74.36.1.59-.06.88-.09-2.32-.75-4.84-1.34-6.69-2.67-.11-.08-.98-.3-2.05-.63-1.07-.35-2.37-.78-3.38-1.21-.63-.07-1.32-.36-2.52-.9-3.47-1.68-6.74-4.07-9.99-5.79-.86-1.29-3.28-2.49-4.11-3.85-.81-1.29-1.47-2.23-2.56-3.67-.73-.99-1-1.87-1.01-2.44-.05-.57.17-.86.45-.91-.18-1.21.07-2.42.57-3.56-.4.02-.14-1.05.13-1.89-.72.65-1.37,1.46-1.66,1.61-.14.08-.24-.05-.17-.44.04-.2.11-.46.22-.82.14-.34.32-.76.6-1.25.3-.48-.06-.29-.45.15-.37.87-.93,1.86-1.32,2.94-.35,1.08-.53,2.23-.29,3.03.17.93.47,1.49.58,1.92.1.43.21.66.19.84,0,.35-.27.38-.33.68.12.33.25.64.42.93.11,0,.26.1.44.33.18.23.4.58.72,1.03.3-.04.75.54,1.44,1.32l.18-.25c.62.81.43.76.32.86,1.11,1.73,3.43,3.7,3.3,4.38Z"/><path d="m172.88.44c-1.11,0-1.9.07-2.48.18-1.23.22-2.74.43-.44.62,3.61.32,3.77-.19,5.64-.29l3.44.17c1.6.35,4.7.13,6.77.31l.03.26c-1.99-.07-4.3.16-5.79-.09-1.88-.28-3.83-.21-6.03-.16-8.65.23-17.33.46-26.04.7-.16-.1-.15-.19.93-.31l1.67-.07.87.05c.26.03.53.03.78-.03,5.5-.26,6.26-.37,4.15-.71-.06-.01-.08-.02-.12-.04-4.85.42-6.18-.28-10.92.15-1.97.18-4.6.36-5.14.11,1.3-.09,2.74-.44,3.18-.34.83.19,2.19-.02,3.51-.1,4.72-.28,9.34-.44,14.2-.63,3.46-.12,6.98-.19,10.52-.23,3.54.02,7.1-.03,10.65.01,1.41.01,3.66-.04,3.76.29-.83.2-2.17.2-3.63.04-1.78-.19-2.98-.11-4.09.07-1.82-.09-3.65-.2-5.43.03Zm-8.66.8c-.04-.1-.54-.27-1.95-.19-1.36.08-3.36.28-3.43.39-.15.22,1.63-.05,2.26,0,1.24-.06,3.23.12,3.12-.19Zm-4.07-.74c-.89.02-2.49.08-2.54.25-.03.1.55.17,1.5.13,1.02-.03,2.01-.13,3.33-.2-.98-.09-1.58-.2-2.29-.18Zm5.27.55h.52s-.07-.04-.07-.04c-.39,0-.41.02-.45.04Z"/><path d="m125.17,2.21c-2.15.19-3.83.15-6.25.01-3.52-.22-7.91.09-11.91.26-2,.1-4.15-.08-6.02.31v.53c.45.23,1.6.56.25.71-3.98.44-3.41,1.35-6.15,1.91,1.47-.09,2.76-.24,3.91-.48.15,0,.27-.03.38-.06.14-.25-.5-.54,1.09-.72,1.25-.15,2.15-.07,2.34.23l.21.07-.19-.07c-1.86-.12-1.9.48-3.43.5-.09.03-.13.07-.11.1,1.77.48,3.89-.14,5.82-.1,2.43-.64,5.02-.67,7.65-.25.78.12,1.3.31,2.17-.03,1.34-.53,3.29-.38,5.18-.24,2.68-.43,1.44-.92.78-1.4-.17-.13-.74-.29.21-.39.81-.08,1.28.05,1.62.19l.96-.02c-.51-.41,2.05-.64,1.51-1.04Z"/><path d="m158.62,74.97c1.71.27,3.48.48,5.83.2,2.93-.56,6.03-.63,9.36-.34.62-.25,1.8-.34,2.85-.46l1.76.09c-.22-.16-.55-.46-.63-.45-3.21.19-5.38-.34-8.48-.25-2.25.07-4.31.07-4.93-.48-.02-.02-.25-.02-.37-.03-.42.07-.85.13-1.28.2.38.63-1.89.59-3.62.56-5.7-.16-11.42.19-17.2-.19-3.48-.25-3.67-.09-2-.74.51-.2.84-.41,1.25-.62-3.31.08-7.15-.31-9.83.33.62.06,1.22.15,1.87.18,1.06.05,2.59-.31,3.05.08.19.16-1.49.43-2.55.58-.56.08-1.63.03-2.47.03-.7,0-1.47-.02-1.81.13-.44.2.29.32,1.01.43,1.14.17,1.44.54,3.21.55,2.23.41,4.7.64,7.65.5,3.37-.46,7.3-.5,11.26-.44-.05-.15.12-.33.84-.32,1.26.01.46.26.73.39,1.67-.51,3.39-1.13,4.47.06Z"/><path d="m150.6,1.76l.87.05.39-.02.39-.02c5.5-.26,6.26-.37,4.15-.71-.06-.01-.08-.02-.12-.04-4.85.42-6.18-.28-10.92.15-1.97.18-4.6.36-5.14.11-1.43.21-3.99.35-5.05.59,1.38.05.05.36-.67.41-2.1.14-.83-.13-1.14-.21-.06-.02,0-.05,0-.07-1.62-.07-4.35.38-6.16.42-1.1.17-2.08.25-2.94.25-.26.27-3.24.51-5.34.75-1.01.12-1.75.23-1.82.28-.12.07,1.17-.1,1.59-.11.73-.02,1.25,0,2.1-.03.71-.03,2.25-.08,1.84-.22-.05-.02.24-.08.51-.11,1.65-.24,9.83-.68,10.96-.59,1.89.1,4.8-.23,7.17-.37.99-.07,2.41-.18,3.6-.27,1.15-.14,1.21-.05,1.39.01l.03.18,1.7-.07c-.16-.1-.15-.19.93-.31.21-.05.36-.13.64-.15.9-.06.91.03,1.03.08Z"/><path d="m87.41,6.26l-.07-.21c-.72-.37-1.3-.76-2.21-1.08-.96-.35-2.3-.47-3.75-.39-1.44.1-2.98.41-4.34.89-.34.13-.5.29-.92.38-1.57.36-1.6.97,0,1.02q.66.02,1-.41c.16-.2.08-.44,1.28-.56.37-.04.79.14,1.19.22,2.27-.08,2.16.37,2.69.69-2.55.45-5.16.67-7.81.86,1.02-.69-1.58-.55-2.85-.65l-1.28.53c-.89.17-1.77.36-2.66.56-.05-.04-.06-.09-.05-.14,1.54-.88-1.08-1.05-1.1-1.67l1.63-.27s.02.07.1.07c1.18.02,1.06.66,2.46.36,2.07-.44-.32-.56.03-.93l.93-.53c3.99-.45,8.05-1.05,11.97-1.05l1.69-.14.1.36-.35.12.46-.11,1.06-.09c.55,0,1.32.11,1.28-.18l1.71-.29-.23.08-.27-.04c1.21.32,4.13.11,5,.73.41.28,4.07-.48,6.07-.83.33-.06.54-.15.81-.23.45.23,1.6.56.25.71-3.98.44-3.41,1.35-6.15,1.91-2.64.35-5.2.48-7.68.31Zm-11.49-.95c-.09-.09-.29-.16-.44-.24-.11.06-.31.14-.3.19,0,.08.14.15.24.24.24-.09.53-.16.5-.19Z"/><path d="m25.23,57.93c-1.45-.58-1.67-.43-1.72-.18l1.33.63c.35.14.7.29,1.05.41,2.57,1.15,5.07,2.25,7.98,2.96,1.19.26,2.85.82,4.2,1.38.73.32,1.82.69,2.79,1,.97.29,1.82.5,2.08.54,5.36.81,10.34,2.24,15.34,3.55,1.84.46,3.06.42,4.59.7,7.8,1.39,15.63,2.52,23.49,3.43.84.1,1.7.27,2.21.11.18-.6-2-.93-3.86-.97-1.66-.03-2.62-.22-3.82-.53-.6.16-1.7-.03-2.65-.13l-.94.04c-1.51-.91-4.65-1.09-7.27-1.58-1.02-.19-3.41-.32-2.6-.87.19-.12-3.02-.42-3.15-.26-.25.33-1.1.16-2.25-.06-.31.11-.6.05-.86-.17-1.59-.16-3.52-.27-2.73-.84-.42-.09-.85-.18-1.27-.27-1.38-.02-2.82-.05-4.59-.79-1.61.06-3.24.27-4.98-1.08l-2.42-.63c-.63.27-2.21-.3-3.52-.64-1.91-.51-1.49-.72-1.56-.98-2.37-.02-4.51-.9-6.54-2.01-.52.04-1.05.22-1.57.05-1.46-.49-.59-.68-1.72-1.19-.39.42-2.51-.84-3.39-.92-.55-.23-1.11-.43-1.65-.68Z"/><path d="m52,8.49c-1.26-.07-2.63.02-4.34.76,1.08.05,2.13.14,1.01.74-.88.48-1.7.17-2.69.52-1.46-.24-2.14.29-2.94.8-.92.58-1.86.94-2.66.65-2.35.74-1.85,1.1-2.18,1.54.46.27,2.4-.11,3.4-.06,1.66-.07,3.76-.49,5.71-1.12,1.47-.46,2.76-.78,4.24-.98,1.43-.52-.23-.84,2.33-1.38,1.91-.37,1.67.1,2.02.31l1.68-.36c-.17-.23-.44-.44-.46-.7-.02-.17.76-.38,1.49-.5.64-.11,1.14-.1.79.09-.51.27-1.97.7-.36.61.4-.02,1.73-.59,2.63-.9.28-.11.41-.29,1.04-.23l-1.06.23c.77.61,2.86.11,5.07-.42.6-.7-2.85-.46-2.7-1.05-3.63.92-3.66.46-3.47-.11-1.46.36-2.74.18-4.23.65.33.57-1.2,1.39-3.74,1.83-3.53.62,1.02-.77-.24-.81-.18,0-.22-.06-.32-.1Z"/><path d="m251.83,63.11l1.33-.5c.84-.36,1.65-.8,2.46-1.23l.91-.44s-.08-.06-.13-.09c-.57.19-.86.24-.45-.07.06-.04.28-.15.36-.18.74-.23.03.18.06.26,1.31-.57,2.25-1.05,2.73-1.58,1.52-1.65,4.77-2.61,4.78-2.47.09.6,2.03-.59,3.52-1.3,1.67-1.24,3.27-2.56,4.83-3.97.69-.61,2.08-1.71,1.5-1.61-.46.1-1.84,1.42-2.28,1.64-1.32.7-2.86,2.57-3.9,2.5-.99.56-2.15,1.23-2.44,1.08-.82.48-1.68,1.03-2.3,1.18-.94.46-1.88.92-2.82,1.38-.94.46-1.87.93-2.84,1.29-1.91.75-3.57,1.71-5.34,2.44-1.76.77-3.5,1.61-5.53,2.08l.11.35c.97-.33,1.98-.65,2.55-.65,0,.21.06.47-1.44.94l.86.22c1.17-.4,2.31-.85,3.47-1.28Z"/><path d="m2.36,31.06c.39-.45.75-.64.45-.15-.28.49-.46.91-.6,1.25-.12.35-.19.62-.22.82-.07.39.04.52.17.44.29-.15.94-.96,1.66-1.61.3-.42.59-.85.94-1.25l-.41-.32-.19.1.18-.09c.53-.51,1.34-1.34,2.06-1.96.74-.6,1.37-.97,1.51-.59,1.87-1.51,4.06-2.09,6.09-3.89.3-.25,1.85-.9,2.07-.68.73-.41,1.5-.76,2.25-1.12.75-.92,3.58-2.42,2.75-2.75-.04-.02.47-.31.72-.48,2.14.17,2.36-1.31,3.8-1.74-.03-.05-.05-.11-.07-.16-4.42.81-5,2.15-6.12,3.32l-.28.19.3-.19c-.82.32-2.28,1-2.35.93-.5-.48-1.37-.17-2.37.47-1.01.63-2.16,1.54-3.23,2.26-2.28,1.49-4.68,3.45-6.82,4.8-.49.38-.78.46-1.13.68-.35.2-.78.52-1.42,1.47l.27.25Z"/><path d="m135.51,3.48l-1.6-.18c-3.9-.1-3.85-.69-3.44-1.33-1.28-.21-1.22.15-1.84.22,1.16.84-.75,1.6-4.28,1.74.82.43.89.87.01,1.32.9.44,1.64.12,2.42-.04-.52-.09-.65-.24.05-.27.96-.04.8.17.9.31,2.06.61,5.09.18,7.28.14,3.59-.05,7.5.25,10.9-.25l-.02-.27-2.49-.09c-.78.34-1.49.17-2.2,0l-2.96-.37c-.21.25-.39.52-1.99.49-1.08-.02-1.69-.2-2.21-.39-1.2-.45.43-.72,1.48-1.03Z"/><path d="m267.55,54.07c1.05.08,2.58-1.8,3.9-2.5.44-.21,1.82-1.54,2.28-1.64.58-.1-.82,1-1.5,1.61-1.57,1.41-3.17,2.73-4.83,3.97.26-.05.53-.1.79-.17l.86-.54c2.11-1.91,5.19-3.81,7.36-6.25.42-.67.16-.64-.23-.51-.7.22-.06-.52,1.2-2.09l-.09-.12c-.14-.15.16-.65.83-1.65.13-.21.23-.43.33-.64-.24.15-.89,1.02-.32-.27h-.16c-1.13,2-2.82,3.69-4.61,5.25-1.82,1.54-3.77,2.96-5.77,4.37.84-.14,2.26-.65-.04,1.15Z"/><path d="m200.05,73.5c1.02-.09.98.63,2.76-.04,1.33-.49,2.66-.07,4-.36.32-.71,2.16-.77,4.12-.73,1.66.04,3-.21,4.2-.62,1.24-.41,1.77-.75.39-.87-1.81.24-3.5.16-5.42.5-3,.53-4.67.83-6.2.95-1.53.1-2.93.07-5.38-.02-.12,0-.35,0-.38,0-1.21.41-2.78.48-4.35.5-1.57,0-3.15,0-4.4.35.26.3.3.62,2.03.69.05-.23.45-.28,1.62-.3,2.48-.06,4.8-.13,7.03-.06Z"/><path d="m267.55,54.07c2.3-1.8.87-1.29.04-1.15-1.69.89-2.96,1.21-5.07,2.98-.79.59-2.1,1.26-3.56,1.96-1.45.72-3.13,1.28-4.54,1.95-.95.46-1.94.84-2.95,1.23-1,.39-2.01.78-3.02,1.17-2.05.71-4.15,1.31-6.21,1.85-1.84.38-3.03.72-2.72,1.1.31.37,1.78,0,3.4-.55l3.37-1.09c2.03-.47,3.78-1.31,5.54-2.08,1.77-.74,3.43-1.7,5.34-2.44.97-.36,1.9-.83,2.84-1.29.94-.46,1.88-.92,2.82-1.38.4-.32.82-.73,1.19-.94.83-.46,1-.35,1.1-.24.29.15,1.45-.52,2.44-1.08Z"/><path d="m19.39,20.2c1.12-1.17,1.7-2.5,6.12-3.32l3.18-1.49c.83-.44,1.7-.88,1.38-1.07-1.72.1-3.62,1.22-5.29,1.9-3.19,1.33-6.35,2.78-9.42,4.41-3.05,1.69-6.03,3.43-8.81,5.74-1.45,1.27-1.53,1.61-1.92,2.27,2.14-1.35,4.54-3.31,6.82-4.8,1.08-.72,2.22-1.63,3.23-2.26,1-.64,1.87-.95,2.37-.47.07.07,1.53-.61,2.33-.92Z"/><path d="m141.17,72.46c-.41.21-.75.42-1.25.62-1.67.65-1.48.49,2,.74,5.77.38,11.5.03,17.2.19,1.73.03,4.01.06,3.62-.56-1.62-.31-3.31-.42-5.08-.43-1.77-.02-3.62.08-5.56.25-2.5.21-4.42.07-3.93-.61-2.52.28-4.61-.21-7-.2Z"/><path d="m189.37,73.18c1.25-.35,2.83-.35,4.4-.35,1.57-.02,3.14-.08,4.35-.5.03-.01.26-.01.38,0,2.45.09,3.85.12,5.38.02,1.53-.13,3.2-.43,6.2-.95,1.93-.34,3.62-.26,5.42-.5-.84-.46-1.73-.85-4.73-.84l-2.14.57c-.77.44-2.01.54-3.76.66-2.14.15-4.73.32-6.58.45-3.73.23-7.03.97-10.62.78l.98.68c.24-.01.47-.02.7-.01Z"/><path d="m232.73,67.08c-.99.74-1.79,1.41,2.64.52,1.43-.29.58.11.5.27-2.11.78-4.56,1.11-6.15,1.23-4.07.16-4.88.76-5.64,1.52l-.81.18c-2.67.16-7,.52-3.03-.88.71-.26.65-.55.95-.82,2.23-.38,4.47-.76,6.7-1.14,1.45-.21,2.52-.49,2.6-.85l2.47-.48c-.07.15,0,.28-.23.45Zm-7.01,1.83c-.09,0-.24.02-.44.12.12-.01.25-.03.44-.12Z"/><path d="m211.37,6.29c1.17.77,5.77,1.03,5.59,1.78-.09.36-1.97.39-2.83.68-.89.3-4.31-.28-7.01-.8-1.22-.25-2.35-.6-3.57-.81-1.17-.21-2.58-.73-3.49-.54-.97.2,2.31.51,1.65.81,3.89,1.22,8.98,1.32,12.96,2.77,1.25.45,1.08-.13,2.14.03,1.05.02-3.4-1.28.35-.61,1.37-.27,4.71.23,4.4-.6-.76-.25-1.76-.5-2.23-.73-1.18-.56-.95-1.49-4.33-1.37-.02,0-.29-.12-.65-.26-.36-.14-.81-.31-1.16-.42-2.07-.59-4.08-.94-5.9-.94.47.84,2.94.54,4.08,1.02Z"/><path d="m221.9,11.23c1.01.28,1.72.56,2.2.88,1.2.81,3.6,1.73,5.62,2.02,1.81.25,3.51.31,3.86-.11.66-.78-1.41-1.86-6.37-3.13-1.21-.31-2.64-.97-3.98-1.46-1.61.01-1.14.6.4,1.3,1.56.71,3.1.92,4.36.93.46,0,2.47.4,2.19.71-.24.27.79.89-.01.98-.49.06-.78.23-2.1-.12-1.38-.36-1.92-.72-2.01-.99-.1-.28-.25-.54-1.79-.92-1.5-.37-2.3-.4-2.37-.09Z"/><path d="m187.68,72.51c3.59.19,6.88-.56,10.62-.78,1.85-.13,4.44-.3,6.58-.45,1.76-.12,3-.21,3.76-.66-1.54-.29-3.41-.17-5.36,0-1.95.16-3.99.42-5.84.54-2.76.21-5.55.43-8.33.59-2.78.15-5.54.3-8.25.08l-.44.25c.81.24,3.64.47-.65.72-1.4.08-2.19.4.24.43,2.55-.2,4.38-1.02,7.67-.71Z"/><path d="m3.12,37.25c-.28.05-.5.33-.45.91,0,.57.27,1.44,1.01,2.44,1.09,1.44,1.75,2.37,2.56,3.67.83,1.36,3.25,2.56,4.11,3.85,3.25,1.72,6.52,4.11,9.99,5.79,1.2.55,1.88.84,2.52.9-1.49-.99-3.09-1.87-4.71-2.86-1.64-.93-3.37-1.95-5.1-3.01-2.19-1.37-4.37-2.91-6.13-5.02-.78-.91-1.62-1.93-2.38-3.04-.72-1.13-1.26-2.38-1.42-3.62Z"/><path d="m159.79,4.95l-1.87-.02-2.77-.52c-.39,0-.79-.01-1.18-.02l-3.84.4c2.26.96,6.77.66,10.01.7,6.43.11,12.95-.23,19.37-.17l1.72-.14c-2.87-.79-6.01-.95-9.41-.37-2.75.19-5.67.53-7.23-.4h-1.25s-.89.06-.89.06c.01.14.05.2.08.27l.27.14-.62-.07-2.4.13Z"/><path d="m275.85,29.57c-1.48-1.89-3.21-3.63-5.22-5.06-.75-.62-1.51-1.19-2.21-1.74-.69-.57-1.33-1.09-1.87-1.58-1.1-.72-1.64-1.11-2.21-1.44-1.33-.84-2.66-1.63-4.05-2.35-1.38-.75-2.77-1.54-4.22-2.36-1.5-.88-2.49-.97-3.07-.93,4.22,2.08,8.34,4.37,12.26,6.95,3.89,2.6,7.66,5.43,10.64,8.93l-.04-.41Z"/><path d="m235.87,67.86c-2.11.78-4.56,1.11-6.15,1.23-4.07.16-4.88.76-5.64,1.52l4.94-.72c1.64-.26,3.27-.61,4.91-.94l2.44-.52c.81-.19,1.61-.43,2.41-.66,1.6-.48,3.2-.93,4.76-1.53,1.5-.6,2.57-.57,3.8-1.02.43-.16.91-.31,1.41-.47.49-.18.98-.37,1.43-.56.89-.38,1.59-.75,1.64-1.08-1.16.42-2.3.88-3.47,1.28-1.94.57-3.87,1.16-5.81,1.7-2.23.59-4.44,1.23-6.68,1.78Z"/><path d="m217.78,3.16c.11-.17-.42-.5,2.31.01,1.7.32,3.17.48,2.92.14-6.97-1.46-14.06-2.36-21.43-2.62l.03.16.24.14c.14,0,.28,0,.43.02,1.24,0,2.46.03,2.8.32.22.01.44.03.67.05l2.58.34c.41-.18,1.3-.14,2.67.13,1.52.21,3.13.15,4.48.54.45.13-.26.17-1.02.14l-.08.09.8.32c1.48.4,1.66.09,2.59.22Z"/><path d="m223.28,70.79c-2.67.16-7,.52-3.03-.88.71-.26.65-.55.95-.82-1.25.12-.86-.13-.96-.26l-1.66.27c.57.29-1.57.73-1.58,1.06l1.13-.07c-.08.03-.23.09-.24.09-.32,0-.62,0-.92-.01-1.51-.03-.65-.48-.99-.71-.87-.1-1.73-.11-2.59,0-.86.09-1.73.27-2.6.59,3-.01,3.89.38,4.73.84,1.38.12.86.46-.38.87-1.2.41-2.54.66-4.2.62-1.96-.04-3.8.01-4.12.73,2.18-.18,4.37-.46,6.55-.72,2.18-.32,4.35-.62,6.52-.77,1.71-.11,2.57-.43,3.4-.82Z"/><path d="m180.01,73.21c-2.42-.03-1.64-.35-.24-.43,4.29-.25,1.46-.47.65-.72-.72.36-2.07.15-3.1.23.12.22-.66.56-1.29.49-3.15-.35-5.35.44-8.09.4-1.45.3-1.54.06-1.66-.16-1.48-.27-1.85,0-2.27.23.13,0,.36.01.38.03.62.56,2.68.55,4.93.48,3.09-.09,5.27.44,8.48.25.08,0,.41.29.63.45l3.37.22c.6.04,1.19.1,1.79.14l.19-.5c-3.82.05-4.06-.49-3.76-1.1Z"/><path d="m133.66,74.78c-1.77,0-2.07-.38-3.21-.55-.72-.11-1.46-.22-1.01-.43.34-.16,1.11-.13,1.81-.13.84,0,1.91.05,2.47-.03,1.06-.16,2.74-.42,2.55-.58-.46-.4-1.99-.04-3.05-.08-.65-.03-1.25-.12-1.87-.18-.81-.29-1.56-.03-2.33-.02-1.3.12-2.68.28-2.31.59,1.46,1.19-2.55,1.12-6.17,1.1.43.27,2.32.21,2.46.53,2.96-.13,5.76.29,8.74.27,2.14,0,1.68-.26,1.93-.49Z"/><path d="m167.94,73.18c2.74.04,4.94-.74,8.09-.4.64.07,1.41-.26,1.29-.49-5.47.14-10.92.28-16.39.42-2.74.11-5.63-.02-8.35-.14-1.64-.08-2.98,0-4.42.08-.48.68,1.43.82,3.93.61,1.94-.16,3.79-.27,5.56-.25,1.77,0,3.46.12,5.08.43.43-.07.85-.13,1.28-.2.42-.23.79-.49,2.27-.22l1.66.16Z"/><path d="m235.87,67.86c2.24-.55,4.45-1.19,6.68-1.78l-.03-.34c-.91.23-1.73.4-1.64.16.09-.24,1.01-.47,1.83-.7.26-.25.23-.42.2-.59-1.61.55-3.09.92-3.4.55-1.08.18-2.16.42-3.25.69-1.1.24-2.21.48-3.32.77-.07.15,0,.28-.23.45-.99.74-1.79,1.41,2.64.52,1.43-.29.58.11.5.27Z"/><path d="m28.7,15.4l-3.18,1.49.06.17h.2s-.2,0-.2,0c-1.44.43-1.66,1.91-3.8,1.74-.25.17-.76.46-.72.48.83.33-2,1.83-2.75,2.75.25.1.92-.28,1.53-.59.68-.64,2.03-1.18,3.17-1.73.91-.27,1.16-1.17,1.82-.91.69.27,2-.63,2.87-.82,1.26-.88,1.98-.93,2.57-.79.87-.23,1.97-.25,2.34-.9l.27-.39c-1.03.22-1.62.12-3.01.63-.99.22-.7-.1-.85-.23-4.42,1.38.35-.82-.34-.89Z"/><path d="m203.97,2.4c-1.44-.29-3.12-.53-4.49-.85-2.81-.71-8.17-.66-10.45-.24,2.12.09,4.48.16,2.97.5,4.06.22,8.1.61,11.97.59Z"/><path d="m29.04,16.28c-4.42,1.38.35-.82-.34-.89.83-.44,1.7-.88,1.38-1.07,2.48-.96,5.03-2.27,7.53-2.3.12,0,.17.03.14.08-3.19,1.51-3.19,2.39-2.77,3.09l-2.09.69c-1.03.22-1.62.12-3.01.63.03-.21,0-.39-.85-.23Zm2.4-1.48c-.55.1-1,.43-.8.46.4.07-1.13,1.04,1.36.14,1.22-.51,1.08-.59.12-.44-.21-.06-.26-.24-.68-.16Z"/><path d="m17.91,54.96c-.72-.41-1.15-1.03-2.11-1.22-2.11-.45-1.99-1.06-2.43-1.62-.5-.36-1.09-.91-1.46-1.11-1.45-.78-2.87-1.53-3.55-2.65-.55-.91.67-.19,1.61.19,1.67.68,2.68,1.55,3.74,2.57.66.63,1.9,1.45,2.62,1.67,1.22.37,2.01.79,2.64,1.24.64.44,1.15.87,1.76,1.31-.93-.12-1.88-.2-2.81-.38Zm-8-5.66s.27.16.29.16c.06-.01.04-.08.06-.13l-.59-.34c.08.1.14.2.24.31Z"/><path d="m234.28,5.88c1.71.4,3.42.98,5.12,1.44,1.69.47,3.32,1.02,4.9,1.31.8.14,1.8.67,2.52,1.03,1.29.64,2.21.94,3.02,1.04-1.31-.72-2.83-1.37-4.42-1.98-1.61-.55-3.29-1.04-4.91-1.54-2.12-.54-4.12-1.25-6.17-1.82-2.05-.53-4.1-1.14-6.3-1.39-.64-.08-1.41-.24-1.71-.19.82.44,2.3.76,4.04.99,2.09.29,3.03.67,3.92,1.11Z"/><path d="m221.9,11.23c.07-.31.88-.28,2.37.09,1.54.39,1.69.64,1.79.92.09.27.64.63,2.01.99,1.33.35,1.61.18,2.1.12.8-.09-.23-.71.01-.98.28-.31-1.73-.71-2.19-.71-1.25-.01-2.8-.22-4.36-.93-1.54-.7-2.01-1.29-.4-1.3-.52-.26-1.07-.48-1.67-.45.31.83-3.03.33-4.4.6.85.36,1.61.72,1.61.99l3.12.66Z"/><path d="m33.55,60.67c2.04,1.11,4.18,1.99,6.55,2.01,1.43-.12,5.36,1.04,6.24.56l-.15-.65c-1.39-.55-2.7-.87-3.96-.94-.22.05.28.35-.61.17l-.18-.39c-.23-.1-.49-.19-.77-.26-3.4-.88-3,.26-6.15-.58-.72-.15-.94-.08-.97.07Z"/><path d="m268.18,55.35c-.26.07-.52.11-.79.17-1.49.72-3.43,1.9-3.52,1.3,0-.13-3.25.83-4.78,2.47-.48.53-1.42,1.01-2.73,1.58.07.01.12.04.16.07l.13.46c4.01-1.52,7.91-3.36,11.52-6.05Z"/><path d="m270.49,21.95c-.47.06.97,1.31,2.12,2.34,2.48,2.25,4.96,5.25,6.59,7.74,1.12,1.74,1.67,3.13,1.9,5.21.07,1.27.28.56.44.66-.01-2.35-.79-4.55-1.87-6.49-1.1-1.93-2.55-3.62-4.23-5.13-.7-.68-1.54-1.38-2.36-2.16-.85-.73-1.72-1.51-2.6-2.17Z"/><path d="m4.76,30.57c-.35.39-.64.83-.94,1.25-.27.84-.53,1.9-.13,1.89,1.84-3.29,5.49-6.26,9.39-8.06,1.59-.73,1.7-1.57,2.98-2.5-.21-.21-1.77.43-2.07.68-2.03,1.8-4.22,2.38-6.09,3.89-.54,1.76-2.27,1.66-3.15,2.85Z"/><path d="m57.16,66.81c.43.09.85.18,1.27.27.87-.24.84-.23-.48-.61-.58-.18-1.34-.43-1.44-.57-.37-.47,1.97.14,2.4-.05l-1.71-.71-2.75-.69c-1.91-.21-3.83-.38-5.75-.64,1.84.74,2.75,1.08,2.59,1.25-.15.15-1.36.11-3.72-.13,1.74,1.36,3.36,1.14,4.98,1.08,1.52.27,2.45-.53,4.59.79Z"/><path d="m120.54,74.47c3.62.01,7.63.08,6.17-1.1-.38-.31,1.01-.48,2.31-.59-.39-.6-2.23-.16-3.32-.26-.8.53-1.33,1.18-5.45.57-.68-.1-1.78-.12-2.07.09-.31.22.54.32,1.44.39l.39-.02-.35.03.88.89Z"/><path d="m37.61,12.03c.12,0,.17.03.14.08.44.14,3-.72,2.63-.15.8.29,1.75-.07,2.66-.65.8-.51,1.48-1.03,2.94-.8.99-.34,1.81-.04,2.69-.52,1.12-.61.07-.69-1.01-.74-3.45.71-7.24,1.14-10.06,2.78Z"/><path d="m89.11,3.65c1.21.32,4.13.11,5,.73.41.28,4.07-.48,6.07-.83.33-.06.54-.15.81-.23v-.53c-3.12-.28-5.99.54-9.07.5l-2.26.21c-.3.03-.48.08-.55.14Z"/><path d="m218.51,4.18c-1.11-.55-8.81-1.95-11.33-1.99-2.48-.11-.93.32-1.44.47,1.57.1,3.15.12,4.62.48.32.07,1.4.25,1.47.24,2.03-.11,4.5.51,6.69.8Z"/><path d="m211.37,6.29c-1.14-.49-3.61-.18-4.08-1.02-1.16-.56-2.42-.56-3.65-.62-2.11.21-5.29-.52-7.72-.5.45.37.34.75,2.93.75,1.57,0,3.79.39,5.71.66l1.1-.07.32.17-1.36-.07c1.56.39-3.48.77,2.38,1.17.25-.25-.44-.79,1.86-.44.51-.17,2.56.38,2.52-.02Z"/><path d="m268.85,21.2c.08-.02-.12-.27.5.16-4.25-3.2-8.94-6.34-13.42-7.64l.04.2c1.02.53,2.08.99,3.07,1.57,3.36,1.72,6.64,3.58,9.81,5.71Z"/><path d="m195.92,4.15c2.43-.02,5.61.71,7.72.5-.18-.66-2.15-.45-3.12-.64-3.71-.72-7.62-.99-11.42-1.12.69,1.13,4.45.83,6.83,1.26Z"/><path d="m133.87,2.72c2.7.03,5.74-.23,7.55.51.69.28,1.68.12,1.85-.17.12-.21-.1-.45,1.04-.57.37-.6-1.9-.42-3.1-.44-2.7-.05-5.44-.03-8.16-.01.22.23-.46.53.82.69Z"/><path d="m120.1,4.87c-1.88-.14-3.84-.29-5.18.24-.87.34-1.38.16-2.17.03-2.63-.42-5.22-.39-7.65.25,2.45.43,5.48.29,8.45.17,2.18-.1,4.35-.19,6.53-.28l.02-.41Z"/><path d="m92.31,69.96c-.64.3-2.54.62,1.79.78,2.25.08,3.25.49,4.37.91.56.2.15.59,1.95.58,1.45,0,1.15-.33.9-.62-.24-.27-.36-.54-.53-.82-2.83-.25-5.66-.54-8.48-.84Z"/><path d="m60.54,6.92c-.19.57-.16,1.03,3.47.11l2.53-.75,1.63-.27c.66-.29,1.65-.38,2.59-.5l.93-.53c.03-.37-1.11-.11-2.01.05-3.07.57-6.09,1.21-9.12,1.87Z"/><path d="m57.21,65.13l1.71.71c2.41.4,5.01.47,6.94,1.48.49.27,2.07.27,1.99.2-.38-.32,2.96.12.67-.54-3.77-.49-7.72-1.87-11.3-1.84Z"/><path d="m61.66,8.5c-.91.31-2.23.88-2.63.9-1.6.09-.15-.33.36-.61.34-.19-.15-.2-.79-.09-.73.13-1.51.33-1.49.5.02.26.3.47.46.7,3.15-.05,6.61-.76,10.07-1.35l.04-.46s-.06-.09-.05-.14l-.93.13c-2.21.53-4.3,1.04-5.05.42Z"/><path d="m34.52,60.6c3.15.84,2.75-.3,6.15.58-1.61-.92-3.23-1.8-5.69-1.87-.29.04-.52.19-.88.09-5.45-1.64-1.6.02-.42.74.17-.07.08-.28,1.05.04l-.28.22c.03.07.06.13.08.2Z"/><path d="m110.91,74.21c-.73-.39-2.17-.87-3.7-.65-2.93.45-8.05-.97-10.05-.12,4.65.51,9.24.76,13.75.77Z"/><path d="m181.8,74.68l-3.37-.22-1.76-.09c.02.43-1.43.44-2.85.46-3.33-.29-6.43-.22-9.36.34.28.18,1.19.35,1.8.29,5.01-.48,10.69-.01,15.55-.77Z"/><path d="m195.69,6.8c-.09-.63-.62-1.19-3.95-.94-2.47.18-5.49-.92-7.89-.38,3.5,1.03,7.81.89,11.83,1.32Z"/><path d="m279.5,38.7c.28-.52.47-1.34.46-2.37-.01-1.02-.28-2.22-.71-3.42-.21.65-1.08-.37-2.28-1.52.73,1.51,1.56,2.71,2.08,4.13.58.68.59,2.06.44,3.17Z"/><path d="m158.75,2.25c3.01.76,9.27.72,13.04-.11-3.72-.36-7.45-.05-11.17-.04-.09.38-1.01.25-1.86.15Z"/><path d="m4.21,44.08c-.69-.78-1.14-1.36-1.33-1.21.19.35.37.71.59,1.03v.32c-.15-.25-.33-.47-.48-.74l-.23-.73c-.32-.45-.54-.8-.72-1.03-.18-.23-.33-.33-.44-.33.74,1.61,1.62,2.96,2.63,4.25,1.01,1.29,2.23,2.43,3.77,3.43.13-.68-2.19-2.65-3.3-4.38-.18-.19-.33-.41-.49-.61Z"/><path d="m152.57,74.84c-3.96-.05-7.89-.02-11.26.44,1.33.33,2.58.49,4.56.17,2.52-.39,5.64-.01,8.42-.16l-.16-.39c-.51-.02-1.03-.04-1.56-.06Z"/><path d="m124.35,3.92c3.53-.13,5.44-.9,4.28-1.74l-3.46.02c.53.41-2.02.64-1.51,1.04,1.01.18.59.45.69.68Z"/><path d="m48.71,63.81c1.91.25,3.83.43,5.75.64-1.38-.46-2.76-.9-4.14-1.23-1.37-.35-2.75-.59-4.14-.62l.15.65,2.38.57Z"/><path d="m34.97,15.2l-2.09.69-.27.39c3.08-.89,6.25-1.58,8.98-2.84-1-.05-2.94.33-3.4.06-.57.24-1.06.45-1.55.65-.06.29-.07.53-1.68,1.05Z"/><path d="m120.1,4.87l-.02.41,4.28-.05c.87-.45.81-.89-.01-1.32-2.09-.02-1.6-.37-1.65-.65-.33-.14-.81-.27-1.62-.19-.95.1-.38.26-.21.39.66.48,1.91.97-.78,1.4Z"/><path d="m2.36,31.06l-.27-.25c-.95,1.35-1.83,3.05-2.04,4.89-.18,1.81.19,3.63,1.14,4.77.07-.29.33-.33.33-.68.02-.18-.09-.41-.19-.84-.1-.43-.4-1-.58-1.92-.24-.8-.05-1.95.29-3.03.39-1.08.95-2.07,1.32-2.94Z"/><path d="m183.77,74.32l-.19.5c3.36.16,6.37-.33,9.45-.68l-1.63-.27c-1.72-.07-1.77-.4-2.03-.69-.23,0-.47,0-.71.01.03.67-.46,1.25-4.89,1.13Z"/><path d="m221.19,69.09c2.23-.38,4.47-.76,6.7-1.14,1.45-.21,2.52-.49,2.6-.85-1.51.13-3.09.35-4.67.66-1.58.29-3.17.66-4.73.83.02.17.04.33.1.5Z"/><path d="m191.4,73.87l1.63.27c2.47.09,5.06.27,7.01-.64-2.23-.07-4.55,0-7.03.06-1.17.03-1.58.08-1.62.3Z"/><path d="m52,8.49c.1.03.15.09.32.1,1.27.04-3.28,1.43.24.81,2.54-.44,4.08-1.26,3.74-1.83-1.51.2-3.16.19-4.31.92Z"/><path d="m234.28,5.88c-.89-.44-1.83-.81-3.92-1.11-1.74-.23-3.21-.56-4.04-.99-.61-.09-1.37-.26-1.62-.19.47.22.94.44,1.41.66,1.31.32,2.63.54,3.94.82l3.92.88.3-.08Z"/><path d="m192,1.8c1.5-.34-.85-.41-2.97-.5-1.56-.1-2.55-.02-3.22.12l.03.26c2.02-.04,4.03-.03,6.16.12Z"/><path d="m276.4,48.56c-2.17,2.44-5.25,4.34-7.36,6.25,2.86-1.46,5.27-3.69,7.56-6.03l-.2-.22Z"/><path d="m79.36,68.46c.28,1.36,4.03.8,6.11,1.12-.1-.27.54-.57-2.02-.69-1.28-.07-2.72-.27-4.09-.42Z"/><path d="m55.89,10.27c-.35-.21-.11-.68-2.02-.31-2.56.54-.9.86-2.33,1.38,2.14.06,2.9-.73,4.35-1.07Z"/><path d="m150.14,4.8l3.84-.4c-2.42-.07-2.57-.49-2.91-.89-.2-.23-.77-.41-1.93-.41-.43,0-1.11.09-1.24.18-.38.24.56.29,1.3.39,2.67.34-2.14.75.18,1.1.24.02.5.04.76.04Z"/><path d="m187.41.33c1.72-.11,4.01.72,5.37.12-.71-.39-.72-.43-5.37-.12Z"/><path d="m79.6,6.11c2.27-.08,2.16.37,2.69.69,1.76-.11,3.71-.02,5.12-.54l-.07-.21c-1.28-.02-3.48.35-3.72,0-.52-.76-2.3-.28-4.03.06Z"/><path d="m74.48,7.66c1.02-.69-1.58-.55-2.85-.65l-1.28.53-.94.87c1.76-.13,3.23-.81,5.07-.74Z"/><path d="m111.01,72.08l.03-.5c-1.59-.25-3.19-.49-4.97-.45,0,.27-.64.59,1.76.72,1.81.09,2.63.3,2.54.66.8-.07.57-.27.64-.43Z"/><path d="m276.97,31.4c1.2,1.15,2.07,2.17,2.28,1.52-1.05-1.49-2.79-3.38-3.4-3.34l.03.41,1.08,1.41Z"/><path d="m133.87,2.72c-1.28-.17-.6-.46-.82-.69l-2.58-.05c-.4.64-.45,1.23,3.44,1.33l-.04-.58Z"/><path d="m154.13,74.9l.16.39c1.67.02,3.11-.08,4.32-.33-1.08-1.19-2.8-.57-4.48-.06Z"/><path d="m238.66,8.65c.03-.07.21-.11.07-.22-.4-.32,2.08,0-.48-.74-2.27-.66-.4.24-.78.31-.11.02-.87-.17-1.33-.26.51.3.96.6,2.51.91Z"/><path d="m279.5,38.7c.15-1.11.14-2.49-.44-3.17.13.57.22,1.14.26,1.71.07.64.05,1.2-.1,1.49,0,1.05-.24,2.09-.57,3.12.13-.19.24-.39.36-.59.29-.82.42-1.69.49-2.55Z"/><path d="m133.36,2.02s-.06.05,0,.07c.31.08-.96.36,1.14.21.72-.05,2.05-.36.67-.41l-1.81.13Z"/><path d="m216.98,70.16c.02-.33,2.15-.77,1.58-1.06l-2.6.36c.35.23-.52.68,1.02.7Z"/><path d="m218.78,10.57c0-.27-.76-.63-1.61-.99-3.74-.66.71.64-.35.62.15.08.36.15.63.19l1.11.23c.24.03.3.02.21-.05Z"/><path d="m87.9,3.9l1.71-.29c-.79-.35-2.88-.1-4.19-.18l-.07.36.1.36c.47-.02.82-.05,1.17-.07.12-.21.71-.19,1.28-.18Z"/><path d="m122.99,75c-.13-.32-2.02-.27-2.57-.51l-1.38.09,1.1.28c.91.14,1.87.2,2.85.13Z"/><path d="m69.41,8.4l.94-.87c-.89.17-1.77.36-2.66.56l-.04.46,1.76-.15Z"/><path d="m30.28,17.18c-.59-.14-1.31-.1-2.57.79.74-.08,1.15.22,2.57-.79Z"/><path d="m255.62,61.38c-.81.42-1.62.87-2.46,1.23.02.22.37.17.88,0,.5-.19,1.14-.52,1.75-.82l-.17-.41Z"/><path d="m23.02,19.69c-1.15.56-2.49,1.09-3.17,1.73,1.82-.45,2.6-1.07,3.17-1.73Z"/><path d="m124.26,2.69c.85,0,1.83-.08,2.94-.25-.95.06-1.52-.13-2.94.25Z"/><path d="m279.01,41.25c-.12.2-.23.4-.36.59-.22.48-.41.98-.69,1.44h.16c.26-.27.45-.59.6-.93.17-.34.26-.71.28-1.1Z"/><path d="m99.29,5.5s.02-.07.11-.1c-.12.03-.25.05-.4.06-.07.13-.15.27-.22.41l.51-.37Z"/><path d="m279.22,38.72c.16-.29.17-.85.1-1.49-.25.02-.19.49-.1,1.49Z"/><path d="m127.73,5.24c-.1-.14.06-.35-.9-.31-.7.03-.57.17-.05.27l.95.05Z"/><path d="m85.35,3.8l.07-.36c-.89.13-1.49.29-1.76.5l1.69-.14Z"/><path d="m89.66,3.5l2.26-.21c-.96-.19-1.73-.11-2.26.21Z"/><path d="m221.14,69.09l-.05-.5c-.57.04-.85.12-.87.24.1.13-.29.37.92.25Z"/><path d="m41.44,61.44l.18.39c.89.18.39-.12.61-.17-.26-.1-.52-.17-.79-.21Z"/><path d="m158.75,2.25c.85.1,1.77.23,1.86-.15-.78-.05-1.56-.1-1.86.15Z"/><path d="m25.89,58.79c-.36-.12-.7-.27-1.05-.41l.36.29c.23.05.46.09.69.12Z"/><path d="m233.98,5.96l-3.92-.88c-1.31-.28-2.63-.5-3.94-.82-.92-.17-1.34-.18-1.43-.08l-.18.32c1.45.31,1.91.51,1.35.59-.26.04-.62.08.33.29.28.06.73.13,1.1.18.38.05.68.08.68.07-.04-.25.91-.23,2.05-.06,1.14.17,2.48.41,3.26.45.32.01.46-.03.69-.05Z"/><path d="m178.31.41c-1.82-.09-3.65-.2-5.42.03,3.06.02.56.42,2.72.5l3.44.17c-.44-.23-2.27-.44-.73-.7Z"/><path d="m266.55,21.19c.54.49,1.19,1.02,1.87,1.58.7.55,1.47,1.12,2.21,1.74.05-.16.38-.13.07-.51-.41-.51,1.74.94-.07-.56-1.28-1.01-1.17-.62-1.13-.38.02.11-.14.34-.83-.5-1.27-1.55-1.35-.74-2.13-1.38Z"/><path d="m208.33,1.73l-2.58-.34c-.35.09-2.57,0-.63.32,2.05.34,2.76.2,3.21.03Z"/><path d="m214.47,2.53c.76.03,1.46,0,1.02-.14-1.35-.39-2.97-.33-4.48-.54.1.33,2.1.47,3.47.68Z"/><path d="m259.03,15.49c-.99-.58-2.05-1.04-3.07-1.57.07.29.99.86,2.23,1.46.94.5.72.17.84.11Z"/><path d="m278.44,43.57c-.1.21-.2.43-.33.64l.17.22c.26-.45.55-.95.75-1.41.18-.47.33-.88.28-1.14-.27.57-.52,1.15-.87,1.68Z"/><path d="m205.08,1.33c-.34-.29-1.56-.32-2.8-.32l.07.23c.92.02,1.83.04,2.73.1Z"/><path d="m221.41,4.44c.18.05.35.1.52.14l.5-.03c-.22-.05-.47-.12-.64-.14-.17-.02-.25.01-.38.02Z"/><path d="m264.33,19.75c.57.33,1.11.72,1.67,1.08-.17-.2-.26-.4-.53-.6-.78-.57-.87-.42-1.14-.48Z"/><path d="m215.19,2.94l-.8-.32c-1.32,0-.31.16.8.32Z"/><path d="m202.35,1.24c-.47-.02-1.15-.09-1.15.01,0,.02.33.08.5.09.79.05.57-.05.64-.1Z"/><path d="m224.5,4.49l.18-.32c-1.11-.11-1.22-.01-.18.32Z"/><path d="m247.07,10.92c0-.05-.12-.11-.23-.15,0,.05.12.1.23.15Z"/><path d="m277.27,45.85l.09.12c.34-.49.62-1.01.9-1.53-.31.47-.62.96-.99,1.41Z"/><path d="m217.8,3.16l.19.07c-.07-.03-.14-.05-.19-.07Z"/><path d="m201.85.99l-.24-.14c-.75.02-.6.07.24.14Z"/><path d="m135.51,3.48c-1.05.31-2.68.58-1.48,1.03.51.19,1.13.37,2.21.39,1.6.04,1.78-.24,1.99-.49-.83-.3-1.24-.61-.54-.95.32-.16.24-.31-.7-.34-1.13-.03-1.31.17-1.48.36Z"/><path d="m208.86,6.31c-2.3-.35-1.6.18-1.86.44.84.18,2.05.25,2.1.64.03.2.8.57,1.56.64.78.08,1.52,0,1.83-.13.51-.21-.99-.36-1.44-.53-.87-.34-1.47-.71-2.19-1.06Z"/><path d="m164.59,4.42c1.57.93,4.48.59,7.23.4-2.01-.51-4.3-.77-7.23-.4Z"/><path d="m162.45,4.47l.89-.05c.15-.05.24-.13.46-.16,1.66-.23,2.76-.49,1.05-.92-.45-.11-1.67-.23-1.46-.04.49.45-4.95.62-.94,1.16Z"/><path d="m143.39,4.77l2.49.09c.03-.26,2.1-.62-.11-.75-1.63-.1-2.78.23-2.39.66Z"/><path d="m155.16,4.41l2.77.52c-.07-.23,1.43-.46.16-.66-1.01-.16-2.1-.06-2.93.14Z"/><path d="m203.45,6.37c-.49-.15-.77-.29-1.06-.33-.31-.04-.63,0-.95,0,.26.09.48.22.77.27.3.05.66.04,1.24.06Z"/><path d="m159.79,4.95l2.4-.13c.11-.02.23-.05.35-.08l-.11-.19c-1.07.07-2.66-.02-2.63.4Z"/><path d="m141.19,4.78c.71.16,1.42.33,2.14,0h-2.14Z"/><path d="m198.18,6.6c-.24-.07-.36-.06-.48-.05.09.03.17.06.48.05Z"/><path d="m78.23,70.82c.96.11,2.05.29,2.65.13.5-.49,3.34.27,4.53.06.45-.08,1.85.64,2.54.32.42-.19-.99-.56-1.85-.86-.88-.3-1.58-.42-2.85-.37-1.59.05-3.44,0-4.77-.76-.79-.45-2.34-.41-3.25-.41-1.58-.01-.35.32.54.6,1.4.44,2.78.88,2.45,1.29Z"/><path d="m111.01,72.08c-.08.16.16.36-.64.43-.21.2-2.33.1-1.31.47.36.13,1.19.31,1.74.33,1.85.07.64-.33,1.06-.49.23-.09.41-.19.75-.26.67-.12,2.62-.11,1.9-.37-.82-.3-2.24.02-3.5-.11Z"/><path d="m104.7,72.34c-.18-.05-.35-.09-.52-.13l-.51.12c.22.03.47.09.65.1.16,0,.25-.05.38-.09Z"/><path d="m62.02,68.08l-.85-.16c.28.05.57.11.85.16Z"/><path d="m146.27,2.02c-.18-.06-.24-.15-1.39-.01.16.06.71.05,1.39.01Z"/><path d="m25.23,57.93c.54.25,1.1.46,1.65.68.1-.2-.16-.65.39-.54.95.2,1.79.41,1.59.04-.1-.18-.61-.32-.83-.34-.4-.03-1.19-.29-1.82-.46-.63-.18-1.1-.28-.88.09.14.24-.06.35-.1.52Z"/><path d="m20.73,55.34c.42.38.35.62,1.47,1.19.16.07.62.12.59.05-.11-.34-1.22-.81-2.06-1.24Z"/><path d="m4.21,44.08c.17.2.32.43.49.61.11-.1.3-.05-.32-.86l-.18.25Z"/><path d="m34.44,60.4l.28-.22c-.97-.32-.88-.12-1.05-.04l.76.26Z"/><path d="m30.27,59.52l-.21-.32c-.83-.15-.04.16.21.32Z"/><path d="m175.6.94c-2.15-.08.35-.49-2.72-.5-1.11,0-1.9.07-2.48.18-1.23.22-2.74.43-.44.62,3.61.32,3.77-.19,5.64-.29Z"/><path d="m161.1,1.42c1.24-.06,3.23.12,3.12-.19-.04-.1-.54-.27-1.95-.19-1.36.08-3.36.28-3.43.39-.15.22,1.63-.05,2.26,0Z"/><path d="m162.44.67c-.98-.09-1.58-.2-2.29-.18-.89.02-2.49.08-2.54.25-.03.1.55.17,1.5.13,1.02-.03,2.01-.13,3.33-.2Z"/><path d="m150.6,1.76c-.12-.06-.13-.14-1.03-.08-.28.02-.43.1-.64.15l1.67-.07Z"/><path d="m165.88,1c-.28.04-.11.04.07.04l-.07-.04Z"/><path d="m152.25,1.78l-.39.02-.39.02c.26.03.53.03.78-.03Z"/><path d="m102.81,4.91c-.19-.3-1.09-.38-2.34-.23-1.59.18-.95.47-1.09.72,1.55-.01,1.59-.61,3.43-.49Z"/><path d="m122.7,3.27c.05.28-.44.63,1.68.66-.13-.23.29-.5-.72-.68l-.96.02Z"/><path d="m102.83,4.91l.19.07c-.07-.02-.14-.04-.19-.07Z"/><path d="m152.57,74.84l1.57.07c-.28-.13.53-.38-.73-.39-.72,0-.89.18-.84.32Z"/><path d="m173.81,74.83c1.42-.02,2.88-.03,2.85-.46-1.05.12-2.23.21-2.85.46Z"/><path d="m79.6,6.11c1.73-.34,3.51-.82,4.03-.06.23.35,2.44-.02,3.72,0-.72-.37-1.3-.76-2.21-1.08-.96-.35-2.3-.47-3.75-.39-1.44.1-2.98.41-4.34.89-.34.13-.5.29-.92.38-1.57.36-1.6.97,0,1.02q.66.02,1-.41c.16-.2.08-.44,1.28-.56.37-.04.79.14,1.19.22Z"/><path d="m66.71,8.08l.93-.13c1.54-.88-1.08-1.05-1.1-1.67l-2.53.75c-.16.59,3.29.35,2.7,1.05Z"/><path d="m70.75,5.52c-.94.12-1.92.21-2.59.5.03.02.02.07.1.07,1.18.02,1.06.66,2.46.36,2.07-.44-.32-.56.03-.93Z"/><path d="m75.42,5.5c.24-.09.53-.16.5-.19-.09-.09-.29-.16-.44-.24-.11.06-.31.14-.3.19,0,.08.14.15.24.24Z"/><path d="m87.9,3.9c-.58-.01-1.17-.03-1.28.18.55,0,1.32.11,1.28-.18Z"/><path d="m85.44,4.16l-.35.12c.15-.04.31-.07.35-.12Z"/><path d="m48.71,63.81l-2.38-.57c-.87.48-4.81-.68-6.24-.56.07.26-.36.47,1.56.98-.72-.54.71-.33,1.62-.2,1.1.16,1.55.55,1.91.83l2.42.63c2.35.24,3.56.28,3.72.13.16-.17-.75-.51-2.59-1.25Z"/><path d="m45.17,64.3c-.36-.29-.8-.67-1.91-.83-.9-.13-2.34-.34-1.62.2,1.31.33,2.89.91,3.52.64Z"/><path d="m57.16,66.81c-2.14-1.32-3.07-.52-4.59-.79,1.77.74,3.2.78,4.59.79Z"/><path d="m62.04,68.08l-.88-.17c.26.21.56.28.88.17Z"/><path d="m34.97,15.2c1.61-.52,1.62-.76,1.68-1.05-.35-.27.53-.44,1.46-.62.42-.48-.08-.84,2.27-1.58.37-.57-2.19.29-2.63.15-3.19,1.51-3.19,2.39-2.77,3.09Z"/><path d="m61.64,8.5l1.06-.23c-.63-.06-.76.12-1.06.23Z"/><path d="m243,65.13c-.35.27-.42.44-.49.62,1.67-.53,3.33-1.06,4.99-1.59,1.5-.48,1.44-.74,1.44-.94-.88.31-1.96.68-2.55.65l-3.39,1.26Z"/><path d="m247.51,64.17l-4.98,1.58.03.34c1.94-.54,3.87-1.13,5.81-1.7l-.86-.22Z"/><path d="m265.11,55.15c-.11-.11-.27-.22-1.1.24-.38.21-.79.62-1.19.94.62-.15,1.47-.7,2.3-1.18Z"/><path d="m246.4,63.87c.59.03,1.67-.34,2.55-.65-.57,0-1.58.32-2.55.65Z"/><path d="m256.37,60.88c-.03-.08.68-.5-.06-.26-.08.02-.3.14-.36.18-.41.31-.12.26.42.08Z"/><path d="m4.76,30.57c.88-1.19,2.61-1.1,3.15-2.85-.14-.38-.77,0-1.51.59-.72.61-1.53,1.44-2.06,1.96.14.1.28.2.42.31Z"/><path d="m19.41,20.2l-.3.19c.09-.06.18-.13.3-.19Z"/><path d="m4.34,30.26l-.18.09c.06-.04.13-.07.18-.09Z"/><path d="m277.27,45.85c.37-.45.68-.94,1.01-1.42l-.17-.22c-.67.99-.97,1.5-.83,1.65Z"/><path d="m183.77,74.32c4.43.12,4.92-.45,4.89-1.13l-.98-.68c-3.29-.31-5.12.51-7.67.71-.29.61-.05,1.15,3.76,1.1Z"/><path d="m225.28,69.02l.37-.04c-.02-.07-.17-.05-.37.04Z"/><path d="m162.19,4.82l.62.07-.27-.14c-.12.03-.23.05-.34.08Z"/><path d="m216.96,70.17c.3,0,.61,0,.92.01,0,0,.15-.06.24-.09-.38.03-.75.05-1.16.08Z"/><path d="m167.94,73.18l-1.66-.16c.12.22.2.46,1.66.16Z"/><path d="m242.52,65.75c.07-.18.13-.36.2-.54-.82.23-1.74.46-1.83.7-.09.24.73.08,1.63-.16Z"/><path d="m29.88,16.52c.03-.21,0-.39-.85-.23.15.13-.14.46.85.23Z"/><path d="m25.58,17.05h.2c-.07,0-.14,0-.2,0Z"/><path d="m32.12,14.97c-.21-.06-.26-.24-.68-.16-.55.1-1,.43-.8.46.4.07-1.13,1.04,1.37.14.04-.15.08-.3.12-.44Z"/><path d="m32.12,14.97c-.04.15-.08.29-.12.44,1.22-.51,1.08-.59.12-.44Z"/><path d="m9.66,48.98c.08.1.14.2.25.31.01.01.27.16.29.16.06-.01.04-.08.06-.13l-.6-.34Z"/><path d="m119.65,73.58l.35-.03c-.13,0-.26.01-.35.03Z"/><path d="m204.62,5.58l1.36.07-.32-.17c-.37.02-.73.05-1.04.09Z"/><path d="m2.99,43.49c.14.27.33.49.49.74v-.32c-.17-.13-.34-.26-.49-.41Z"/><path d="m3.47,43.9c-.22-.32-.4-.68-.59-1.03-.04.13.04.37.11.62.15.15.32.28.48.41Z"/><path d="m38.11,13.53c-.93.17-1.81.35-1.46.62l1.46-.62Z"/>
                  </g>
                </mask>
              </defs>
              <path class="mask" d="m233.8,13.5c-4.88-1.61-12.22-3.81-21.31-5.67-18.47-3.8-32.93-3.92-41.29-3.94-53.82-.16-81.25.08-102.29,3.16-20.83,3.05-39.99,7.42-55.43,16.6-5.61,3.34-11.42,7.25-11.65,12.65-.33,7.55,10.19,13.63,14.36,16.04,32.09,18.57,101.39,20.82,106.09,20.95,1.56.04,3.67.1,6.23.15,85.31,1.66,116.94-5.32,138.75-19.07,6.43-4.05,12.8-9.18,13.04-15.8.11-3.16-1.03-10.54-18.33-20.69C241.07,5.6,214.3-.32,161.52,1.12c-15.04.41-35.39,1.51-59.49,4.46"
                    mask="url(#path-mask)" stroke="black" stroke-width="2" fill="none"
                    stroke-dasharray="734.62939453125" stroke-dashoffset="734.62939453125">
              </path>
            </svg>
        