
            <svg xmlns="http://www.w3.org/2000/svg">
              <defs>
                <mask id="path-mask">
                  <g fill="white">
                    <path d="m134.17,5.44c-1.64-.14-.65.3-1.01.45l-1.15-.29c-.93-.32-2.02-.6-2.9-.95-1.81-.75-5.37-.87-6.91-.52-1.03-.13-1.69-.11-2.14.01-1.36-.27-3.42-.13-4.46-.54-.27-.25-1.47-.54-.44-.73.74-.12,1.55-.17,2.71.08.96.21,1.84.26,2.41.09l.91.08c1.15-.05,2.61.82,3.55.28.18.02.43.06.64.09.21.03.38.05.38.05.95-.48,3.02.02,4.81.33v.16c-.5,0-.4.05.15.14.09,0,.19.01.28.03l.03.23c-.31-.03-.75-.11-.76-.01,0,.02.21.09.33.1.52.06.38-.04.45-.09.6.04,1.2.08,1.8.14.15.01.29.04.44.06-.24.09-1.71-.04-.45.3,1.33.37,1.82.23,2.14.07.29-.17.88-.13,1.77.17.03.33,1.35.48,2.25.68l-.06.09c-.88,0-.22.16.5.32.95.4,1.1.1,1.72.24l.12.07-.13-.07c.1-.17-.22-.49,1.55,0,1.11.3,2.08.46,1.96.13l1.11.27.87.63c-.6-.15-.88-.15-.96-.06-.74-.09-.83,0-.16.32.94.28,1.23.46.84.55-.18.04-.43.09.19.28.36.11,1.18.25,1.18.22.02-.51,2.51.25,3.57.29.21.01.32-.03.48-.05l.22-.07c2.22.76,4.43,1.82,6.5,2.39.53.14,1.15.58,1.59.88.78.58,1.37.84,1.93.92.66.38,1.27.83,1.9,1.26.63.42,1.25.86,1.84,1.34l-.03.18c-.03.26.51.75,1.26,1.27.57.42.5.13.61.07,2.04,1.46,4.03,3.07,5.75,5.18l-.03-.11c.07-.01,0-.23.35.16.16.06.29.04.68.6-.42,0,.26,1.13.68,2.12.46,1.06.8,2.28.95,3.48.14,1.2.13,2.37.06,3.39-.09,1.41-.38,2.35-.98,3.57-.37.73.06.45.16.58-1.25,2.4-3.02,4.4-4.91,6.15l-.19-.23c.26-.46.06-.5-.25-.47-.54.04-.15-.49.81-1.41.25-.31.48-.63.7-.95.46-.53,1.04-1.15,1.02-1.54-.27.33-.57.63-.86.94-.21.04-.81.48-.28-.31.45-.27.79-.66.95-1.18.35-.48.69-.97.97-1.48.79-.37,1.77-1.57,2.41-3.18-.02-1.25-.28-2.93-.78-3.1-.08-1.52-.54-3.05-1.46-4.35.11-.11.37-.05.29-.37-.1-.44.98.93.19-.43-.58-.93-.67-.6-.73-.41-.04.09-.26.26-.44-.46-.4-1.3-.76-.67-1.42-1.54-.06-.17-.06-.34-.2-.51-.42-.48-.52-.37-.71-.43-1.46-1.47-3.15-2.58-4.82-4.02-.87-.77-1.59-.79-2.01-.75-2.81-1.84-5.81-3.4-8.93-4.66.04-.07.17-.11.09-.22-.22-.31,1.43-.01-.19-.71-1.46-.58-.32.23-.6.32-.08.03-.57-.13-.88-.2-2.75-.8-5.7-1.69-8.57-2.49-.84-.23-2.28-.23-2.87-.75-.67-.56-5.67-1.96-7.34-2.06Zm9.6,2.43l.34-.03c-.14-.04-.3-.11-.42-.13-.11-.02-.17.01-.26.02.11.05.22.09.33.14Zm16,5.44c.05.04.13.08.2.13.01-.05-.06-.1-.2-.13Z"/><path d="m121.5,3.24c3.84.46,7.5,1.59,11.22,2.52.24,1.17,2.78,1.18,4.28,1.75.22.4.08.75,1.81.91,1.05.1,2.45.61,3.73.98.97.45-2.5.59,1.36,1.24.53.21,1.33.33,1.29.71-.02.19.43.57.93.67.51.1,1.03.05,1.26-.07.39-.19-.6-.38-.86-.57-.52-.36-.86-.73-1.27-1.09.37-.14,1.66.44,1.71.06.63.81,3.72,1.15,3.45,1.86-.13.35-1.42.34-2.07.6-.66.26-2.87-.37-4.58-1-.77-.28-1.46-.68-2.24-.94-.75-.25-1.58-.85-2.23-.71-.69.14,1.44.62.94.88-1.28-.09-2.57-.33-3.9-.95.06-.63-.18-1.19-2.43-1.21-1.67,0-3.45-1.34-5.12-1.05l-.59-.11-1.07-.44c-1.73-1.07-3.75-1.58-6.07-1.41-1.22-.74-2.67-1.24-4.64-1.18l-.82-.11c.11-.04.18-.1.32-.11,1.12-.07,1.88-.2.83-.8-.28-.16-1.07-.39-.96-.18.25.49-3.34.14-.81,1.13-.71-.03-1.73-.27-1.78.15l-1.22-.18c-.01-.23,1-.33.19-.64-.64-.24-1.37-.25-1.94-.1l-.77-.11c-1.58-.25-1.63-.69-1.82-1.1-.11-.24-.47-.46-1.23-.53-.28-.03-.74.02-.84.1-.28.21.34.33.82.46,1.72.5-1.48.61,0,1.11-.42.35-1.39.23-2.31.15v-.27c.05-.26,1.45-.49,0-.76-1.07-.2-1.85.05-1.66.51l-1.41-.1-1.93-.5c-.53-.34-.78-.66-.29-.98.22-.14.18-.3-.44-.37-.75-.08-.88.11-1,.29-.35-.09-.7-.16-1.05-.23v-.58c1.79.12,3.84.03,4.98.84.43.32,1.11.19,1.24-.08.09-.21-.03-.45.74-.51,1.57-.12,3.17-.12,4.78,0,1.6.15,3.22.41,4.83.82,1.89,1.01,6,1.58,8.62,1.23Zm19.45,6.51c-.2-.06-.42-.04-.63-.06.15.11.28.25.46.31.19.07.44.07.82.12-.3-.17-.46-.31-.65-.37Z"/><path d="m49.49,57.54c1.49.09,2.12.51,2.83.93.36.2.05.58,1.25.59.97,0,.79-.32.64-.61-.14-.27-.19-.54-.29-.81l3.48.36c-.02.27-.47.58,1.12.72,1.19.11,1.72.32,1.64.68-.15.2-1.55.09-.9.47.23.14.77.31,1.14.33,1.23.08.45-.33.73-.48.16-.09.28-.19.51-.25.45-.12,1.74-.1,1.28-.36-.53-.3-1.48,0-2.32-.13l.05-.5c3.31.22,6.49.63,9.65,1.1-.55.52-.93,1.14-3.63.48-.45-.11-1.18-.13-1.38.07-.22.21.34.33.96.41.18.3.36.6.46.92l-.92.08.72.29c-2.2.18-4.24-.08-6.1-.73-.46-.39-1.39-.88-2.42-.66-1.99.43-5.29-1-6.7-.17-1.81-.54-3.79-.65-5.67-1.04.19-.6-1.25-.93-2.48-1-1.11-.05-1.74-.23-2.5-.56.39-.47,2.21.3,3.03.11.31-.07,1.17.64,1.67.33.3-.19-.6-.56-1.15-.86-.55-.3-1.01-.43-1.86-.4-1.07.04-2.3-.05-3.1-.8-.47-.46-1.51-.44-2.12-.45-1.06-.02-.28.31.28.6.88.45,1.75.92,1.48,1.31l-.64.02c-.9-.91-2.98-1.15-4.68-1.67-.66-.21-2.25-.39-1.62-.91.15-.11-1.97-.47-2.08-.32-.23.31-.78.13-1.52-.11l-.55-.18c-1.06-.21-2.36-.38-1.71-.9.64-.21.61-.19-.2-.61-.36-.19-.82-.46-.86-.6-.15-.46,1.31.2,1.64.03,1.55.46,3.28.59,4.4,1.61.29.27,1.35.3,1.3.23-.2-.32,1.96.18.53-.52.11-.15.28-.13.89.06,2,.63,3.98,1.4,6.14,1.55.01,1.35,2.59.83,3.94,1.16,1.59.31,2.84.03,4.51.43-.45.29-1.75.6,1.12.79Zm6.58,1.51l-.35.12c.14.04.31.1.43.1.11,0,.17-.05.26-.09-.12-.05-.23-.09-.34-.13Z"/><path d="m79.31,3.13c-2.03.28-4.52.39-6.38.76-1.68-.05-4.19.42-6.16.6-.56.05-.77.09-1.17.17-1.22.23-1.47.66-.11.55,1.43-.12,1.88-.09,2.26-.02.39.08,1.1.13,2.43-.22.15-.04.7-.12.94-.14,2.34-.16,4.58-.46,6.88-.63,5.3-.4,10.61-.71,15.93-.84l-.02-.18c-.45.01-.81,0-.92-.06-.79.05-1.73.13-2.39.15-1.57.06-3.5.3-4.75.14-.75-.12-6.18.04-7.27.24-.18.03-.37.08-.34.1.28.16-.75.16-1.22.16-.56,0-.91-.03-1.4-.04-.28,0-1.13.12-1.06.06.05-.04.54-.13,1.2-.21,1.39-.18,3.36-.3,3.53-.57Z"/><path d="m.1,30.21c-.25,1.66-.05,3.69.7,4.56-.09-.45-.03-1.04-.11-1.34-.31-1.15-.44-2.41.2-3.19.52-.61.46.41.67,1.08.15.6.27,1.1.25,1.58.05.47-.06.96-.06,1.45-.06.63.24,1.64.59,2.02,1.18,1.27,1.22,2.06,1.61,3.04.38.52.96,1.09.86,1.4-.02.06-.32-.07-.4-.16-.55-.66-.35-.86-.46-1.24-.6-.3-1.23-.61-1.82-1.01.05,1.49,1.48,2.57,2.63,3.52.16-.21.38-.28,1.17.43.11-.14.3-.21.31-.43.01-.66,1.2.56,1.74.7.15.04.45.22.44.39,0,.34-.52.08-1.11-.24-.33-.17-.35.25-.51.41.59.21,1.61,1.54,2.05,1.24-.12-.18-.55-.56-.03-.32l.02.31c.58.59-.09.66.73,1.26.3.21.76.09,1.14.12.08-.13.26-.17.7.05.01-.06.02-.12.02-.19l-.43-.32c-.29-.37-.94-1.03-1.11-1.35-.17-.33.09-.24,1.68.74.21.13.43.01.64.01-1.31-.88-2.84-1.72-3.57-3.06-.09-.15-1.97-1.23-2.9-2.3-.41-.16-.77-.49-1.28-1.17-.75-.99-1.31-2.15-1.65-3.31-.35-1.18-.5-2.32-.69-3.5.31-.44.39-1.05.54-1.69.14-.63.36-1.28.72-1.64.73-.7,1.22-1.23,1.8-2.33.84-1.49,1.62-1.78,2.02-1.38.65-.63,1.34-1.24,2.05-1.84-.32-.19.14-.86.43-1.39-1.3.43-2.66.94-.75-1.13.25-.26-.03-.24-.36-.08-.67.96-2.27,1.63-2.79,2.52-1.14,2.04-1.27,1.26-1.74,1.25l-.43.48c.11.18-.03.52-.49,1.09.16.24-.08.65-.45,1.26l.27.12c-.4.56-.45.4-.57.33-.49.51-.94,1.27-1.32,1.94-.37.67-.67,1.24-1,1.31Z"/><path d="m111.58,2.67c-.74-.03-1.26.01-1.65.09-.83.16-1.83.3-.33.59,2.37.46,2.5-.05,3.75-.06l2.26.32c1.04.41,3.1.28,4.46.54v.26c-1.31-.14-2.85-.01-3.81-.28-1.22-.36-2.52-.37-3.97-.41-2.86-.04-5.74-.16-8.6-.24-2.87-.07-5.74-.11-8.62-.13-.1-.1-.1-.2.62-.27h1.11s.57.07.57.07c.17.05.35.05.52,0,3.64-.05,4.15-.13,2.77-.55-.04-.01-.05-.03-.08-.04-3.22.23-4.09-.51-7.25-.24-1.31.11-3.05.2-3.42-.06.86-.05,1.82-.34,2.11-.23.55.21,1.45.06,2.33.02,3.14-.12,6.21-.11,9.44-.1,4.61.04,9.33.41,14.03.67.93.06,2.43.09,2.47.42-.57.17-1.45.12-2.41-.09-1.16-.25-1.97-.2-2.71-.08-1.2-.17-2.4-.36-3.59-.21Zm-5.77.41c-.02-.11-.34-.3-1.28-.27-.91.02-2.23.14-2.29.24-.1.22,1.08.02,1.5.08.82,0,2.13.24,2.07-.06Zm-2.66-.91c-.59-.02-1.65-.03-1.69.14-.02.09.36.19.99.19.68,0,1.34-.04,2.21-.06-.64-.13-1.04-.27-1.51-.28Zm3.47.77l.34.03-.04-.04c-.26-.01-.27,0-.3.02Z"/><path d="m90.53.18c-1.44.15-2.56.08-4.18-.09-1.18-.12-2.5-.11-3.86-.05-1.36.07-2.76.21-4.09.29-1.33.08-2.77-.04-4,.36l.02.53c.31.22,1.09.56.2.71-2.63.44-2.19,1.41-3.97,1.97.96-.1,1.81-.28,2.55-.53.1-.01.18-.03.25-.06.08-.25-.36-.54.69-.72.82-.15,1.42-.08,1.56.22l.14.06-.13-.07c-1.23-.09-1.23.49-2.25.51-.06.03-.08.07-.07.1,1.2.49,2.57-.16,3.84-.15,1.58-.64,3.3-.68,5.04-.27.52.13.86.33,1.43-.01.88-.52,2.17-.37,3.42-.21,1.78-.38.96-.89.53-1.39-.11-.13-.49-.31.14-.39.54-.07.85.07,1.07.22h.64c-.33-.42,1.37-.61,1.03-1.02Z"/><path d="m92.11,61.89c1.14.26,2.33.46,3.88.16,1.93-.58,3.98-.75,6.21-.46.4-.25,1.18-.35,1.88-.48l1.18.07c-.15-.15-.38-.45-.44-.44-2.12.24-3.59-.32-5.63-.16-1.49.12-2.85.13-3.28-.41-.01-.02-.16-.02-.25-.03-.28.07-.56.14-.84.22.27.62-1.24.6-2.39.59-3.78-.06-7.57.31-11.4-.03-2.31-.21-2.43-.06-1.33-.72.33-.2.56-.42.83-.63-2.2.11-4.71-.25-6.49.35.41.07.8.17,1.23.2.7.06,1.71-.31,2.02.08.12.16-.99.44-1.69.59-.38.08-1.08.02-1.64.01-.47,0-.97-.04-1.2.11-.3.2.18.32.66.44.75.18.94.56,2.13.58,1.5.41,3.12.63,5.09.46,2.24-.52,4.85-.52,7.48-.53-.04-.15.08-.33.55-.33.84,0,.31.25.49.38,1.1-.53,2.23-1.19,2.97,0Z"/><path d="m96.79,3.07l.57.08h.26s.26,0,.26,0c3.64-.05,4.15-.13,2.77-.55-.04-.01-.05-.03-.08-.04-3.22.23-4.09-.51-7.25-.24-1.31.11-3.05.2-3.42-.06-.95.18-2.65.21-3.35.44.92.09.04.36-.44.39-1.4.07-.56-.16-.76-.25-.04-.02,0-.05,0-.07-1.08-.12-2.88.23-4.09.22-.73.13-1.38.17-1.95.15-.17.27-2.14.39-3.53.57-.67.08-1.16.17-1.2.21-.08.07.78-.06,1.06-.06.49,0,.83.04,1.4.04.47,0,1.5,0,1.22-.16-.03-.02.16-.07.34-.1,1.09-.19,6.52-.36,7.27-.24,1.25.16,3.18-.08,4.75-.14.65-.02,1.6-.1,2.38-.15.76-.09.8,0,.92.06l.02.18h1.13c-.1-.11-.1-.21.62-.28.14-.04.24-.12.43-.13.6-.03.6.06.68.12Z"/><path d="m65.59,4.29l-.06-.21c-.51-.36-.92-.73-1.54-1.05-1.33-.69-3.62-.47-5.35.52-.22.12-.31.28-.58.36-1.02.34-.99.95.08,1.02q.45.03.63-.39c.09-.2.02-.44.81-.56.24-.04.54.14.81.21,1.5-.08,1.47.38,1.85.69-1.66.45-3.38.68-5.14.82.63-.68-1.1-.54-1.96-.69l-.82.5-1.74.49s-.05-.09-.05-.14c.97-.83-.81-1.08-.87-1.69l1.07-.21s.02.07.07.07c.8.06.76.67,1.67.4,1.35-.38-.26-.56-.05-.92l.58-.5c2.63-.38,5.29-.97,7.91-.99l1.12-.15.09.36-.22.13.3-.11.7-.1c.36,0,.89.1.84-.19l1.12-.31-.15.08-.18-.04c.83.32,2.76.04,3.37.67.29.3,2.68-.53,3.99-.89.22-.06.35-.15.53-.23.31.22,1.09.56.2.71-2.63.44-2.19,1.41-3.97,1.97-1.73.36-3.41.55-5.06.39Zm-7.72-.91c-.07-.09-.2-.17-.32-.25-.07.06-.19.13-.19.19,0,.08.1.15.18.24.15-.09.34-.15.32-.18Z"/><path d="m5.94,42.36c-.79-.71-1.01-.64-1.17-.43.23.25.45.51.68.76l.59.52c.68.69,1.35,1.37,2.09,1.97.73.61,1.5,1.15,2.41,1.64.72.42,1.74,1.03,2.49,1.7.81.74,2.61,1.73,2.94,1.84,3.51,1.13,6.59,2.71,9.77,4.15,1.17.5,2.01.52,3.01.81,5.07,1.57,10.22,2.77,15.4,3.75.56.1,1.11.28,1.47.12.19-.6-1.25-.93-2.48-1-1.11-.05-1.74-.23-2.5-.56-.42.15-1.14-.05-1.77-.16l-.64.02c-.9-.91-2.98-1.15-4.68-1.67-.66-.21-2.25-.39-1.62-.91.15-.11-1.97-.47-2.08-.32-.23.31-.78.13-1.52-.11-.23.1-.42.03-.56-.19-1.05-.2-2.35-.37-1.69-.9-.27-.09-.54-.2-.81-.3-.94-.06-1.92-.15-2.96-.94-1.12,0-2.3.1-3.16-1.27-.51-.23-1-.48-1.5-.75-.51.21-1.47-.39-2.26-.83-1.18-.63-.82-.78-.78-1.03-1.63-.23-2.88-1.22-3.87-2.47-.38-.03-.84.09-1.14-.12-.83-.6-.15-.67-.73-1.26-.43.3-1.45-1.03-2.04-1.24-.3-.27-.59-.55-.88-.83Z"/><path d="m42.05,5.75c-.86-.15-1.78-.12-2.88.49.74.13,1.46.28.75.8-.56.41-1.14.06-1.79.34-1.02-.34-1.44.11-1.94.57-.57.51-1.19.76-1.77.42-1.54.55-1.17.91-1.36,1.32.35.32,1.63.09,2.33.23,1.13.07,2.52-.19,3.8-.68.96-.36,1.82-.57,2.79-.7.93-.43-.22-.84,1.47-1.22,1.25-.28,1.13.18,1.39.4l1.11-.28c-.13-.24-.34-.46-.37-.72-.02-.17.48-.34.96-.44.42-.08.76-.05.54.12-.32.25-1.27.61-.19.59.27,0,1.11-.51,1.7-.79.18-.1.25-.28.68-.2l-.7.2c.57.62,1.94.21,3.37-.26.34-.67-1.95-.53-1.9-1.12-2.36.79-2.43.33-2.35-.23-.95.29-1.83.08-2.8.47.27.58-.69,1.32-2.38,1.62-2.34.41.63-.7-.23-.81-.12-.02-.15-.08-.23-.12Z"/><path d="m153.7,51.82l.88-.34,1.61-.87.6-.29s-.07-.07-.11-.1c-.38.1-.59.11-.33-.12.04-.03.18-.11.24-.12.51-.12.04.17.08.26.89-.34,1.47-.75,1.76-1.15.46-.66,1.26-1.05,1.93-1.33.67-.28,1.24-.37,1.26-.28.15.55,1.47-.18,2.46-.68.53-.47,1.07-.89,1.58-1.38.5-.48,1-.97,1.51-1.46.45-.42,1.38-1.13.94-1.14-.36,0-1.24.91-1.55,1.03-.47.2-.9.67-1.33,1.07-.42.4-.87.68-1.26.58-.66.37-1.4.85-1.64.67-.55.3-1.12.65-1.56.69-1.21.65-2.5,1.18-3.75,1.72-2.52.95-4.46,2.44-7.15,3.09l.12.35c.64-.24,1.3-.48,1.7-.4.03.21.08.43-.9.77l.62.29c.77-.26,1.53-.57,2.3-.85Z"/><path d="m8.61,19.92c.33-.16.61-.18.36.08-1.92,2.07-.55,1.56.75,1.13l.81-.67-.33-.41-.15.02.15-.02c.86-.46,2.39-1.94,2.67-1.23,1.3-.93,2.85-1.11,4.13-2.42.19-.19,1.27-.52,1.45-.29.5-.24,1-.48,1.51-.69.45-.72,2.31-1.75,1.67-2.17-.03-.02.3-.23.47-.35,1.55.44,1.54-.92,2.53-1.14-.03-.05-.05-.11-.07-.16-1.53.1-2.38.44-2.91.88-.54.44-.78.93-1.11,1.43l-.18.13.2-.14c-.56.18-1.55.58-1.61.5-.84-1.03-2.4.67-3.83,1.62-1.53.97-3.09,2.32-4.72,2.79-.72.35-.89-.08-1.97.79l.2.31Z"/><path d="m97.36,1.76c-.35-.09-.7-.16-1.05-.23-2.58-.22-2.53-.81-2.23-1.44-.85-.25-.82.11-1.24.16.74.88-.55,1.56-2.89,1.64.53.44.57.88-.02,1.32.58.46,1.08.15,1.59,0-.34-.1-.42-.25.04-.26.63-.02.52.2.58.33,1.33.68,3.34.33,4.78.36,2.36.13,4.9.55,7.17.3v-.27s-1.62-.25-1.62-.25c-.54.29-.99.1-1.45-.1l-1.93-.5c-.16.24-.29.5-1.34.4-.71-.08-1.1-.27-1.43-.48-.77-.49.32-.72,1.03-.97Z"/><path d="m163.96,45.49c.4.1.84-.18,1.26-.58.42-.4.86-.87,1.33-1.07.31-.12,1.19-1.04,1.55-1.03.44.01-.49.72-.94,1.14-.51.49-1.01.98-1.51,1.46-.5.49-1.05.91-1.58,1.38l.57-.05.58-.36c1.32-1.44,3.36-2.66,4.85-4.2.26-.46.06-.5-.25-.47-.54.04-.15-.49.81-1.41l-.09-.12c-.13-.16.09-.49.64-1.07.11-.12.22-.24.3-.37-.21.04-.81.48-.28-.31l-.14-.06c-2.11,2.3-4.78,4.14-7.27,6.11.62,0,1.64-.23.16,1.03Z"/><path d="m119.58,60.05c.67-.1.7.63,1.84-.06.85-.52,1.77-.08,2.65-.35.16-.7,1.38-.75,2.69-.71,1.11.05,1.99-.21,2.76-.58.8-.38,1.12-.71.18-.85-1.19.18-2.33.12-3.58.45-3.92,1.04-4.38,1.08-7.65.92-.08,0-.23,0-.25,0-1.56.84-4.15.18-5.76.9.19.29.24.62,1.39.67.02-.23.28-.28,1.06-.33,1.64-.1,3.19-.12,4.68-.08Z"/><path d="m163.96,45.49c1.48-1.25.46-1.02-.16-1.03-1.15.53-1.97.72-3.33,1.94-.24.22-.58.45-.97.68-.4.21-.87.42-1.36.63-.97.44-2.07.83-3.01,1.25-2.53,1.14-5.27,2.23-8.03,2.86-1.21.26-1.99.52-1.73.92.25.39,1.21.08,2.27-.32.75-.23,1.48-.51,2.22-.76,2.69-.66,4.63-2.14,7.15-3.09,1.25-.55,2.54-1.07,3.75-1.72.26-.22.51-.53.77-.65.56-.28.7-.16.8-.04.24.18.99-.3,1.64-.67Z"/><path d="m20.53,13.92c.33-.5.57-1,1.11-1.43.53-.44,1.38-.78,2.91-.88.69-.37,1.4-.69,2.1-1.04.53-.35,1.1-.67.86-.89-1.19-.07-2.43.75-3.54,1.21-4.26,1.73-8.54,3.63-12.28,6.48-.98.77-1.03,1.01-1.3,1.45,1.63-.46,3.19-1.82,4.72-2.79,1.43-.95,2.99-2.65,3.83-1.62.06.08,1.05-.32,1.6-.5Z"/><path d="m80.53,59.55c-.27.21-.5.43-.83.63-1.11.67-.98.51,1.33.72,3.83.34,7.62-.03,11.4.03,1.15.02,2.66.04,2.39-.59-2.16-.59-4.49-.43-7.05-.07-1.65.24-2.92.11-2.61-.58-1.66.3-3.05-.2-4.63-.15Z"/><path d="m112.45,59.78c1.61-.72,4.2-.06,5.76-.9.02-.01.17-.01.25,0,3.27.15,3.73.11,7.65-.92,1.26-.33,2.39-.27,3.58-.45-.6-.47-1.24-.89-3.23-.87l-1.38.56c-.47.44-1.3.52-2.46.62-1.41.16-3.12.34-4.34.48-2.47.2-4.61,1.01-7,.85l.69.67c.16-.01.31-.02.47-.02Z"/><path d="m140.94,54.23c-.6.67-1.07,1.31,1.84.62.94-.23.4.13.37.28-1.34.72-2.99.88-4.06.93-2.73.05-3.22.62-3.66,1.35l-.53.14c-1.79.05-4.64.44-2.12-.94.45-.25.39-.54.56-.81,1.48-.27,2.94-.63,4.4-.92.95-.19,1.65-.39,1.67-.74l1.63-.34c-.03.14.03.28-.11.43Zm-4.56,1.53c-.06,0-.16.02-.29.1.08-.01.16-.02.29-.1Z"/><path d="m146.96,10.35c.63.81,3.72,1.15,3.45,1.86-.13.35-1.42.34-2.07.6-.66.26-2.87-.37-4.58-1-.77-.28-1.46-.68-2.24-.94-.75-.25-1.58-.85-2.23-.71-.69.14,1.44.62.94.88,2.36,1.4,5.77,1.68,8.18,3.17.76.46.76-.11,1.45.07.72.04-2.06-1.29.36-.59.99-.24,3.18.28,3.14-.53-.47-.24-1.1-.5-1.39-.72-.69-.56-.35-1.44-2.68-1.4-.01,0-.18-.12-.39-.27-.22-.15-.49-.33-.71-.43-1.28-.64-2.58-1.03-3.81-1.11.15.84,1.88.64,2.56,1.14Z"/><path d="m153.14,15.32c.64.27,1.07.55,1.33.85.66.77,2.13,1.65,3.48,1.89,1.21.22,2.39.24,2.73-.17.63-.76-.61-1.72-3.79-2.91-.78-.28-1.63-.92-2.45-1.39-1.11,0-.91.58,0,1.25.93.69,1.96.88,2.83.88.32,0,1.64.36,1.38.66-.23.26.37.84-.21.93-.36.06-.59.23-1.44-.09-.88-.33-1.18-.67-1.19-.93-.01-.27-.06-.51-1.05-.88-.95-.36-1.5-.39-1.62-.1Z"/><path d="m111.3,59.13c2.39.16,4.53-.65,7-.85,1.22-.13,2.93-.32,4.34-.48,1.16-.1,1.98-.17,2.46-.62-2.09-.58-4.96.29-7.41.53-3.64.35-7.34,1.08-10.94.79l-.28.25c.55.23,2.43.41-.4.72-.93.1-1.43.43.18.43,1.68-.25,2.85-1.08,5.05-.77Z"/><path d="m7.23,24.36c-.39-.39-1.18-.1-2.02,1.38-.58,1.1-1.08,1.63-1.8,2.33-.37.36-.59,1.01-.72,1.64-.15.63-.24,1.25-.54,1.69.19,1.18.34,2.33.69,3.5.35,1.17.9,2.33,1.65,3.31.51.68.87,1.01,1.28,1.17-1.09-2.03-2.37-4.02-2.74-6.37-.25-1.48,0-3.08.96-4.47.82-1.19,1.89-2.87,3.24-4.19Z"/><path d="m113.2,4.77l-1.22-.18-1.75-.75-.77-.11c-.86.04-1.71.06-2.56.12,1.38,1.09,4.35,1.15,6.45,1.48,4.17.65,8.42,1.14,12.61,1.9l1.15.04c-1.73-1.07-3.75-1.58-6.07-1.41-1.82-.14-3.76-.1-4.64-1.18l-.82-.11-.59-.04c-.01.14,0,.21.02.27l.16.17-.39-.12-1.58-.09Z"/><path d="m174.77,29.48c-.08-1.52-.54-3.05-1.46-4.35-.64-1.07-1.37-2.03-1.83-2.89-.57-.65-.9-.94-1.2-1.25-1.46-1.47-3.15-2.58-4.82-4.02-.87-.77-1.59-.79-2.01-.75,2.54,1.75,5,3.66,7.07,5.87,2.07,2.19,3.74,4.76,4.02,7.62l.23-.23Z"/><path d="m143.15,55.12c-1.34.72-2.99.88-4.06.93-2.73.05-3.22.62-3.66,1.35,4.35-.73,8.74-1.54,12.82-3.35.99-.43,1.72-.33,2.53-.66,1.12-.43,2.91-.95,2.91-1.58-.77.28-1.53.59-2.3.85-1.29.38-2.56.82-3.85,1.14l-2.19.69-2.2.62Z"/><path d="m141.15,6.5c.1-.17-.22-.49,1.55,0,1.11.3,2.08.46,1.96.13-4.54-1.36-9.19-2.38-14.08-2.76v.16s.15.14.15.14c.09,0,.19.01.28.03.82.03,1.64.08,1.83.37.15.01.29.04.44.06l1.69.37c.29-.17.88-.13,1.77.17.99.22,2.08.16,2.95.55.29.13-.19.16-.7.13l-.06.09.5.32c.95.4,1.1.1,1.71.24Z"/><path d="m134.91,57.55c-1.79.05-4.64.44-2.12-.94.45-.25.39-.54.56-.81-.83.11-.59-.13-.67-.26l-1.08.25c.41.3-.98.7-.97,1.03l.75-.05c-.05.03-.15.09-.15.09-.21-.01-.41-.02-.62-.03-1.02-.06-.47-.49-.73-.72-1.18-.23-2.31-.1-3.41.53,1.99-.02,2.63.4,3.23.87.94.15.62.47-.18.85-.77.37-1.64.63-2.76.58-1.31-.04-2.54,0-2.69.71,2.89-.32,5.76-1.1,8.63-1.35,1.13-.11,1.68-.41,2.21-.74Z"/><path d="m106.25,59.91c-1.61,0-1.1-.32-.18-.43,2.83-.31.94-.49.4-.72-.46.37-1.36.18-2.04.27.09.22-.41.57-.84.5-2.1-.32-3.53.46-5.34.48-.95.32-1.02.08-1.1-.13-.99-.25-1.22.02-1.5.25.09,0,.24,0,.25.02.43.54,1.79.53,3.28.41,2.05-.15,3.51.4,5.63.16.05,0,.29.29.44.44l2.25.17,1.2.1.1-.5c-2.53.11-2.72-.43-2.55-1.04Z"/><path d="m75.53,61.91c-1.19-.02-1.38-.4-2.13-.58-.48-.12-.96-.24-.66-.44.23-.15.74-.11,1.2-.11.56,0,1.26.07,1.64-.01.71-.15,1.82-.43,1.69-.59-.3-.39-1.32-.03-2.02-.08-.43-.03-.82-.13-1.23-.2-.53-.3-1.03-.05-1.54-.05-.86.1-1.78.25-1.55.56.92,1.21-1.74,1.07-4.14,1,.27.27,1.53.25,1.6.57,1.98-.06,3.82.38,5.82.4,1.43.01,1.13-.25,1.3-.47Z"/><path d="m98.25,60.01c1.81-.02,3.24-.81,5.34-.48.42.07.93-.28.84-.5-3.62.2-7.21.4-10.83.6-1.81.11-3.72.05-5.52-.05-1.09-.05-1.97.02-2.92.12-.31.68.95.82,2.61.58,2.57-.37,4.89-.53,7.05.07.28-.07.56-.14.84-.21.27-.24.51-.5,1.5-.25l1.1.13Z"/><path d="m143.15,55.12l2.2-.62,2.19-.69-.06-.33c-.6.17-1.14.29-1.11.06.03-.22.64-.4,1.18-.57.15-.21.12-.38.08-.55-1.05.4-2.02.71-2.27.32-1.44.22-2.88.59-4.33,1.06-.03.14.03.28-.11.43-.6.67-1.07,1.31,1.84.62.94-.23.4.13.37.28Z"/><path d="m26.64,10.57c-.7.35-1.41.67-2.1,1.05l.06.17.14.02-.14-.02c-.99.22-.98,1.59-2.53,1.14-.16.12-.5.33-.47.35.63.42-1.22,1.45-1.67,2.17.2.13.64-.12,1.05-.31.41-.53,1.33-.81,2.08-1.18.61-.15.7-.96,1.19-.62.53.37,1.35-.35,1.94-.43.8-.68,1.3-.65,1.72-.46.58-.12,1.35-.01,1.54-.6l.15-.35c-.69.11-1.12-.06-2.04.27-.66.12-.5-.16-.61-.31-2.98.77.16-.74-.33-.89Z"/><path d="m132.02,5.61c-.93-.32-2.02-.6-2.9-.95-1.81-.75-5.37-.87-6.91-.52,1.4.14,2.95.29,1.93.58,2.67.35,5.32.81,7.88.88Z"/><path d="m26.97,11.46c-2.98.77.16-.74-.33-.89.53-.35,1.1-.67.86-.89,1.65-.63,3.29-1.69,5.02-1.49.08.01.12.04.1.09-2.06,1.19-1.98,2.02-1.62,2.75-.46.15-.92.29-1.38.46-.69.11-1.12-.06-2.04.27,0-.2-.04-.38-.61-.31Zm1.53-1.16c-.38.04-.66.3-.52.36.29.11-.69.87.97.29.8-.37.69-.47.04-.41-.16-.09-.21-.26-.49-.24Z"/><path d="m2.14,38.41c-.31-.51-.22-1.09-.78-1.57-1.2-1.15-.69-1.55-.56-2.07-.09-.45-.03-1.04-.11-1.34-.31-1.15-.44-2.41.2-3.19.52-.61.46.41.67,1.08.15.6.27,1.1.25,1.58.05.47-.06.96-.06,1.45-.06.63.24,1.64.59,2.02,1.18,1.27,1.22,2.06,1.61,3.04-.6-.3-1.23-.61-1.81-1.01Zm-1.24-6.87s0,.22.03.23c.05.03.09,0,.14-.01-.03-.16-.02-.32-.04-.48-.05.08-.09.16-.14.26Z"/><path d="m151.98,8.99c2.22.76,4.43,1.82,6.5,2.39.53.14,1.15.58,1.59.88.78.58,1.37.84,1.93.92-.78-.65-1.71-1.27-2.75-1.74-1.02-.5-2.11-.95-3.17-1.33-2.72-1.07-5.19-2.31-8.09-2.91-.42-.07-.93-.21-1.14-.16.51.39,1.45.73,2.61.94,1.4.23,1.99.56,2.52,1Z"/><path d="m153.14,15.32c.11-.3.66-.27,1.62.1.99.37,1.03.61,1.05.88,0,.26.31.6,1.19.93.85.32,1.08.15,1.44.09.58-.09-.01-.67.21-.93.26-.3-1.06-.66-1.38-.66-.87,0-1.9-.2-2.83-.88-.92-.67-1.12-1.24,0-1.25-.31-.26-.64-.46-1.06-.44.04.81-2.15.29-3.14.53.51.36.96.72.9.97l2.01.66Z"/><path d="m10.72,45.81c.99,1.25,2.24,2.24,3.87,2.47.53-.02,1.36.35,2.17.63.82.27,1.6.51,1.96.31l.08-.63c-.79-.61-1.61-.93-2.42-1.12-.16.03.08.35-.47.11v-.37c-.13-.11-.28-.2-.45-.28-1.04-.5-1.54-.56-2.07-.54-.52,0-1.05.04-1.97-.53-.44-.22-.62-.19-.7-.05Z"/><path d="m164.65,46.74l-.57.05c-.99.5-2.31,1.23-2.46.68-.02-.09-.6,0-1.26.28-.66.28-1.47.67-1.93,1.33-.29.41-.88.81-1.76,1.15.05.02.09.05.12.09l.15.45c2.67-1,5.4-2.01,7.71-4.03Z"/><path d="m174.32,23.13c-.42,0,.26,1.13.68,2.12.46,1.06.8,2.28.95,3.48.14,1.2.13,2.37.06,3.39-.09,1.41-.38,2.35-.98,3.57-.37.73.06.45.16.58.73-1.29,1.31-2.71,1.55-4.24.24-1.52.16-3.17-.42-4.68-.47-1.31-1.11-2.93-1.99-4.2Z"/><path d="m10.53,20.46l-.81.67c-.3.53-.75,1.2-.43,1.39,2.33-1.54,4.54-3.63,7.26-4.59,1.08-.39,1.05-1.17,1.89-1.8-.18-.23-1.26.1-1.45.29-1.28,1.31-2.83,1.49-4.13,2.42-.24,1.46-1.65.91-2.33,1.63Z"/><path d="m25.26,53.1c.27.1.54.21.81.3.64-.21.61-.19-.2-.61-.36-.19-.82-.46-.86-.6-.15-.46,1.31.2,1.64.03-.34-.23-.67-.49-1.01-.74l-1.71-.75c-1.24-.27-2.5-.52-3.74-.85,1.07.79,1.6,1.17,1.46,1.32-.15.15-.95.04-2.52-.31.86,1.37,2.04,1.28,3.16,1.27.98.33,1.78-.41,2.96.94Z"/><path d="m66.81,61.41c2.4.07,5.07.21,4.14-1-.24-.31.69-.47,1.55-.56-.24-.61-1.46-.18-2.18-.3-.55.52-.93,1.14-3.63.48-.45-.11-1.18-.13-1.38.07-.22.21.34.33.94.4l.26-.02-.23.03.54.9Z"/><path d="m32.52,8.2c.08.01.12.04.1.09.32.19,2-.46,1.8.07.58.34,1.2.09,1.77-.42.5-.45.93-.9,1.94-.57.64-.28,1.23.07,1.79-.34.71-.52-.01-.67-.75-.8-2.28.49-4.85.61-6.65,1.96Z"/><path d="m66.54,1.67c.83.32,2.76.04,3.37.67.29.3,2.68-.53,3.99-.89.22-.06.35-.15.53-.23l-.02-.53c-2.1-.27-3.96.62-6.02.6l-1.49.24c-.2.03-.31.08-.36.14Z"/><path d="m141.52,7.5c-.67-.56-5.67-1.96-7.34-2.06-1.64-.14-.65.3-1.01.45,1.03.12,2.09.16,3.02.53.2.08.9.26.95.26,1.37-.11,2.95.52,4.38.82Z"/><path d="m146.96,10.35c-.68-.5-2.41-.3-2.56-1.14-.67-.59-1.51-.65-2.34-.76-1.46.1-3.44-.8-5.06-.94.22.4.08.75,1.81.91,1.05.1,2.45.61,3.69.95h.75s.18.17.18.17l-.9-.14c.97.45-2.5.59,1.37,1.24.22-.24-.14-.79,1.34-.35.37-.14,1.66.44,1.71.06Z"/><path d="m173.3,22.36c.07-.01,0-.23.35.16-2.18-2.94-4.93-5.67-7.91-6.75l-.03.18c.63.44,1.27.87,1.87,1.34,2.04,1.46,4.02,3.07,5.72,5.06Z"/><path d="m137.01,7.51c1.62.15,3.6,1.04,5.06.94,0-.64-1.35-.56-1.97-.79-2.35-.92-4.89-1.46-7.38-1.9.24,1.17,2.78,1.18,4.28,1.75Z"/><path d="m96.32.94c1.79.12,3.83.03,4.98.84.43.32,1.11.19,1.24-.08.09-.21-.03-.45.74-.51.29-.58-1.23-.54-2.03-.61-1.8-.16-3.63-.31-5.45-.36.14.24-.33.51.51.72Z"/><path d="m87.13,2.76c-1.24-.16-2.54-.31-3.42.21-.57.34-.91.15-1.43.01-1.74-.41-3.46-.37-5.04.27,1.63.44,3.62.26,5.57.16,1.44-.08,2.87-.16,4.3-.24v-.41Z"/><path d="m48.37,56.75c-.45.29-1.75.6,1.12.79,1.49.09,2.12.51,2.83.93.36.2.05.58,1.25.59.97,0,.79-.32.64-.61-.14-.27-.19-.54-.29-.81-1.86-.26-3.71-.56-5.56-.88Z"/><path d="m47.69,4.59c-.08.56-.02,1.02,2.35.23l1.64-.67,1.07-.21c.43-.26,1.07-.35,1.69-.45l.58-.5c0-.36-.75-.14-1.34,0-2.01.5-4,1.03-5.99,1.58Z"/><path d="m25.64,51.49c.33.25.66.51,1.01.74,1.55.46,3.28.59,4.4,1.61.29.27,1.35.3,1.3.23-.2-.32,1.96.18.53-.52-2.45-.54-4.83-1.98-7.25-2.06Z"/><path d="m48.57,6.2c-.58.28-1.43.78-1.7.79-1.07.03-.13-.33.19-.59.22-.17-.12-.2-.54-.12-.48.09-.99.27-.96.44.04.26.24.48.37.72,2.12.07,4.39-.5,6.66-1v-.46s-.06-.09-.06-.14l-.61.1c-1.43.47-2.8.88-3.35.26Z"/><path d="m11.42,45.86c.93.57,1.45.53,1.97.53.53-.01,1.03.04,2.07.54-.41-.47-.8-.96-1.3-1.35-.5-.39-1.12-.66-1.94-.83-.21,0-.43.12-.64-.01-1.6-.97-1.86-1.07-1.68-.74.17.32.82.98,1.11,1.35.15-.05.16-.24.71.16l-.28.16c0,.07-.01.13-.02.19Z"/><path d="m60.42,61.08c-.46-.39-1.39-.88-2.42-.66-1.99.43-5.29-1-6.7-.17,3.07.53,6.12.8,9.13.84Z"/><path d="m107.5,61.35l-2.25-.17-1.17-.07c.03.43-.93.45-1.88.48-2.22-.29-4.28-.12-6.21.46.19.18.8.33,1.2.26,3.31-.59,7.11-.11,10.3-.96Z"/><path d="m136.34,10.09c.06-.63-.18-1.19-2.43-1.21-1.67,0-3.45-1.34-5.12-1.05,2.1,1.35,4.96,1.58,7.55,2.26Z"/><path d="m173.13,35.75c.79-.37,1.77-1.57,2.41-3.18-.54.22-.68-.71-.98-1.75-.29,1.02-.3,1.96-.57,2.93.09.32-.01.67-.21,1-.17.35-.44.68-.65,1Z"/><path d="m112.88,2.01c1.89,1.01,6,1.58,8.62,1.23-2.38-.79-4.91-.86-7.37-1.21-.12.36-.7.15-1.25-.02Z"/><path d="m2.72,26.52c.36-.6.61-1.02.41-1.16-.19.19-.39.36-.57.56l-.26.04c.13-.15.26-.31.4-.45l.47-.25c.45-.57.6-.9.49-1.08-.77.81-1.55,1.57-2.22,2.52-.67.94-1.23,2.1-1.32,3.51.33-.07.63-.64,1-1.31.38-.66.83-1.43,1.32-1.94.09-.15.19-.3.3-.44Z"/><path d="m88.1,61.85c-2.63,0-5.24,0-7.48.53.88.31,1.72.45,3.03.13,1.67-.4,3.75-.05,5.59-.23l-.11-.39c-.34-.01-.69-.03-1.04-.04Z"/><path d="m89.95,1.89c2.34-.09,3.63-.76,2.89-1.64-.77-.04-1.54-.05-2.31-.06.35.42-1.36.6-1.03,1.02.67.2.38.46.45.69Z"/><path d="m20.19,49.88c1.24.34,2.5.58,3.74.85-1.66-.98-3.28-1.9-5.13-2.14l-.08.63c.48.24.98.44,1.47.66Z"/><path d="m31,11.04c-.46.15-.92.29-1.38.46l-.15.35c2.04-.56,4.17-.9,5.92-1.93-.69-.14-1.98.09-2.33-.23-.37.18-.69.34-1.01.49-.01.27,0,.53-1.06.86Z"/><path d="m87.13,2.76v.41s2.81.03,2.81.03c.58-.43.55-.87.02-1.32-1.39-.05-1.06-.4-1.08-.68-.22-.15-.53-.29-1.07-.22-.63.08-.26.26-.14.39.44.49,1.25,1.01-.53,1.39Z"/><path d="m8.61,19.92l-.2-.31c-1.57,1.17-3.66,2.23-4.33,4.08.47,0,.6.79,1.74-1.25.52-.89,2.12-1.56,2.79-2.52Z"/><path d="m108.8,60.95l-.1.5c2.25.17,4.22-.36,6.25-.75l-1.1-.24c-1.15-.05-1.2-.38-1.39-.67-.15,0-.31,0-.47.02.06.66-.23,1.27-3.19,1.15Z"/><path d="m133.34,55.8c1.48-.27,2.94-.63,4.4-.92.95-.19,1.65-.39,1.67-.74-1.02.03-2.05.25-3.08.5-1.03.26-2.07.55-3.1.67.03.16.06.33.11.5Z"/><path d="m113.84,60.46l1.1.24c1.65.05,3.4.28,4.63-.65-1.49-.04-3.03-.02-4.68.08-.78.05-1.04.1-1.06.33Z"/><path d="m42.05,5.75c.07.04.11.1.23.12.86.11-2.11,1.22.23.81,1.69-.3,2.65-1.04,2.38-1.62-1,.12-2.11.05-2.84.69Z"/><path d="m151.98,8.99c-.53-.44-1.12-.77-2.52-1-1.16-.21-2.1-.54-2.61-.94-.4-.08-.9-.23-1.08-.16l.87.63c.85.27,1.71.51,2.56.77.85.26,1.72.46,2.56.77l.22-.07Z"/><path d="m124.14,4.72c1.02-.29-.53-.44-1.93-.58-1.03-.13-1.69-.11-2.14.01v.26c1.34.05,2.67.09,4.07.31Z"/><path d="m170.08,42.18c-1.48,1.54-3.53,2.76-4.85,4.2,1-.43,1.84-1.13,2.68-1.8.8-.69,1.56-1.45,2.36-2.17l-.19-.23Z"/><path d="m39.92,55.16c.01,1.35,2.59.83,3.94,1.16-.04-.27.43-.56-1.27-.71-.85-.07-1.78-.3-2.67-.46Z"/><path d="m44.83,7.71c-.25-.22-.13-.68-1.39-.4-1.69.38-.54.79-1.47,1.22,1.45.19,1.9-.55,2.85-.82Z"/><path d="m106.9,3.86c.85-.06,1.71-.08,2.56-.12-1.58-.25-1.63-.69-1.82-1.1-.11-.24-.47-.46-1.23-.53-.28-.03-.74.02-.84.1-.28.21.34.33.82.46,1.72.5-1.48.61,0,1.11.16.04.32.07.5.08Z"/><path d="m121.2,3.12c1.15-.05,2.61.82,3.55.28-.44-.41-.45-.45-3.55-.28Z"/><path d="m60.39,4.18c1.5-.08,1.47.38,1.85.69,1.16-.12,2.46-.03,3.36-.58l-.06-.21c-.85,0-2.28.37-2.47.03-.4-.74-1.55-.27-2.67.07Z"/><path d="m57.1,5.69c.63-.68-1.1-.54-1.96-.69l-.82.5-.56.85c1.16-.11,2.11-.7,3.34-.65Z"/><path d="m60.61,58.96l.05-.5c-1.04-.25-2.08-.51-3.26-.47-.02.27-.47.58,1.12.72,1.19.11,1.72.32,1.64.68.54-.07.39-.27.45-.43Z"/><path d="m174.56,30.82c.3,1.04.44,1.97.98,1.75-.02-1.25-.28-2.93-.78-3.1l-.23.23c.04.37.04.74.02,1.11Z"/><path d="m96.32.94c-.85-.21-.38-.48-.51-.72l-1.72-.13c-.29.63-.35,1.22,2.23,1.44v-.58Z"/><path d="m89.14,61.89l.11.39c1.11,0,2.06-.14,2.87-.39-.74-1.18-1.87-.52-2.98,0Z"/><path d="m154.52,11.56c.04-.07.17-.11.09-.22-.22-.31,1.43-.01-.19-.71-1.46-.58-.32.23-.6.32-.08.03-.57-.13-.88-.2.3.28.57.51,1.57.81Z"/><path d="m173.13,35.75c.22-.32.48-.65.65-1,.2-.34.29-.69.21-1-.15.36-.33.7-.53,1.04-.16.41-.39.72-.59.84-.32.64-.7,1.27-1.12,1.88l.4-.28c.35-.48.69-.97.97-1.48Z"/><path d="m85.35,2.76s-.04.05,0,.07c.2.09-.64.32.76.25.48-.02,1.36-.3.44-.39l-1.2.07Z"/><path d="m130.62,56.81c-.02-.32,1.37-.72.97-1.03l-1.71.31c.25.24-.29.67.74.72Z"/><path d="m151.13,14.66c.06-.26-.39-.62-.9-.97-2.42-.7.35.62-.36.59.08.08.21.15.39.19l.71.24c.16.03.2.02.16-.05Z"/><path d="m65.75,1.94l1.12-.31c-.55-.34-1.92-.07-2.81-.14l-.02.36.09.36c.31-.02.54-.05.77-.09.06-.21.46-.2.84-.19Z"/><path d="m68.41,61.99c-.08-.32-1.33-.3-1.68-.55l-.92.08.72.29c.6.15,1.22.22,1.89.18Z"/><path d="m27.93,12.44c-.42-.19-.92-.22-1.72.46.51,0,.85.38,1.72-.46Z"/><path d="m156.19,50.61l-1.61.87c.08.44.98-.06,1.78-.47l-.17-.41Z"/><path d="m23.08,13.95c-.76.37-1.68.65-2.08,1.18,1.25-.18,1.75-.63,2.08-1.18Z"/><path d="m79.32,3.13c.57.03,1.22-.02,1.95-.15-.63.03-1.02-.18-1.95.15Z"/><path d="m172.16,37.23l-.4.28c-.21.29-.46.56-.69.84l.14.06c.45-.27.79-.66.95-1.18Z"/><path d="m73.4,3.4s0-.07.07-.1c-.08.03-.16.05-.26.06-.04.14-.09.27-.13.41l.32-.37Z"/><path d="m172.88,35.63c.2-.12.43-.43.59-.84-.21-.11-.37.18-.59.84Z"/><path d="m92.15,3.27c-.06-.14.05-.36-.58-.33-.46.02-.38.16-.04.26l.62.07Z"/><path d="m64.04,1.86l.02-.36c-.58.13-.97.3-1.14.51l1.12-.15Z"/><path d="m66.9,1.53l1.49-.24c-.65-.16-1.16-.09-1.49.24Z"/><path d="m133.31,55.8l-.08-.49c-.38.04-.56.12-.56.23.08.13-.16.37.64.26Z"/><path d="m15.91,47.22v.37c.55.24.3-.08.47-.11-.14-.12-.3-.2-.47-.26Z"/><path d="m112.88,2.01c.55.17,1.14.38,1.25.02-.51-.13-1.02-.24-1.25-.02Z"/><path d="m151.76,9.07c-.84-.31-1.71-.52-2.56-.77-.85-.26-1.71-.5-2.56-.77-.6-.15-.88-.15-.96-.06l-.16.32c.94.28,1.23.46.84.55-.18.04-.43.09.19.28.36.11,1.18.25,1.18.22.02-.51,2.51.25,3.57.29.21.01.32-.03.48-.05Z"/><path d="m115.17,2.88c-1.2-.17-2.4-.36-3.59-.21,2.02.15.35.44,1.77.62l2.26.32c-.27-.25-1.47-.54-.44-.73Z"/><path d="m171.48,22.23c.45.86,1.19,1.82,1.83,2.89.11-.11.37-.05.29-.37-.1-.44.98.93.19-.43-.58-.93-.67-.6-.73-.41-.04.09-.26.26-.44-.46-.4-1.3-.76-.67-1.13-1.22Z"/><path d="m134.99,5l-1.69-.37c-.24.09-1.71-.04-.45.3,1.33.37,1.82.23,2.14.07Z"/><path d="m139.01,5.85c.5.03.98,0,.7-.13-.86-.39-1.95-.33-2.95-.55.03.33,1.35.48,2.25.68Z"/><path d="m167.57,17.3c-.6-.48-1.24-.9-1.87-1.34-.03.26.51.75,1.26,1.27.57.42.5.13.61.07Z"/><path d="m171.49,38.73c-.09.13-.19.25-.3.37l.15.23c.45-.52,1.03-1.14,1.01-1.54-.27.33-.57.63-.86.94Z"/><path d="m132.86,4.56c-.2-.29-1.01-.35-1.83-.37l.03.23c.61.04,1.21.08,1.81.15Z"/><path d="m143.44,7.73c.11.05.22.09.33.14l.34-.03c-.14-.04-.3-.11-.42-.13-.11-.02-.17.01-.26.02Z"/><path d="m170.29,20.98l.91.93c-.06-.17-.06-.34-.2-.51-.42-.48-.52-.37-.71-.43Z"/><path d="m139.45,6.26l-.5-.32c-.88,0-.22.16.5.32Z"/><path d="m131.05,4.42c-.31-.03-.75-.11-.76-.01,0,.02.21.09.33.1.52.06.38-.04.44-.09Z"/><path d="m145.51,7.78l.16-.32c-.74-.09-.83,0-.16.32Z"/><path d="m159.97,13.44c.01-.05-.06-.1-.13-.14-.01.05.06.1.13.14Z"/><path d="m170.55,40.17l.09.12c.25-.31.48-.63.7-.95-.25.28-.51.56-.79.83Z"/><path d="m141.17,6.5l.12.07s-.09-.05-.12-.07Z"/><path d="m130.74,4.16l-.15-.14c-.5,0-.41.05.15.14Z"/><path d="m97.36,1.76c-.71.26-1.8.49-1.03.97.33.21.73.4,1.43.48,1.05.11,1.18-.16,1.34-.4-.53-.34-.78-.66-.29-.97.22-.14.18-.3-.44-.37-.75-.08-.88.11-1,.29Z"/><path d="m145.25,10.29c-1.48-.44-1.12.11-1.34.35.53.21,1.33.33,1.29.71-.02.19.43.57.93.67.51.1,1.03.05,1.26-.07.39-.19-.6-.38-.86-.57-.52-.36-.86-.73-1.27-1.09Z"/><path d="m116.41,4.69c.88,1.08,2.82,1.04,4.64,1.18-1.22-.74-2.67-1.24-4.64-1.18Z"/><path d="m115,4.55l.59.04c.11-.04.18-.1.32-.11,1.12-.07,1.88-.2.83-.8-.28-.16-1.07-.39-.96-.18.25.49-3.34.14-.78,1.05Z"/><path d="m102.47,3.41l1.63.25c.04-.26,1.44-.49,0-.76-1.07-.2-1.85.05-1.63.51Z"/><path d="m110.24,3.85l1.75.75c-.01-.23.99-.33.19-.64-.64-.24-1.37-.25-1.94-.1Z"/><path d="m141.6,10.12c-.3-.17-.46-.31-.65-.37-.2-.06-.42-.04-.63-.06.15.11.28.25.46.31.19.07.44.07.82.12Z"/><path d="m113.2,4.77l1.58.09c.08-.01.16-.03.24-.04l-.04-.2c-.71-.03-1.73-.27-1.78.15Z"/><path d="m101.03,3.32c.45.19.91.39,1.41.1l-1.41-.1Z"/><path d="m138.03,10.05c-.14-.09-.23-.08-.31-.08.05.03.1.07.31.08Z"/><path d="m38.86,57.48c.63.11,1.35.31,1.77.16.39-.47,2.21.3,3.03.11.31-.07,1.17.64,1.67.33.3-.19-.6-.56-1.15-.86-.55-.3-1.01-.43-1.86-.4-1.07.04-2.3-.05-3.1-.8-.47-.46-1.51-.44-2.12-.45-1.06-.02-.28.31.28.6.88.45,1.75.92,1.48,1.31Z"/><path d="m60.61,58.96c-.06.16.08.36-.45.43-.15.2-1.55.09-.9.47.23.14.77.31,1.14.33,1.23.08.45-.33.73-.48.16-.09.28-.19.51-.25.45-.12,1.74-.1,1.28-.36-.53-.3-1.48,0-2.32-.13Z"/><path d="m56.41,59.18c-.12-.05-.23-.09-.34-.13l-.35.12c.14.04.31.1.43.1.11,0,.17-.05.26-.09Z"/><path d="m28.32,54.49l-.55-.18c.18.06.37.12.55.18Z"/><path d="m93.92,3.18c-.12-.07-.16-.16-.92-.06.11.07.47.08.92.06Z"/><path d="m5.94,42.36c.29.28.58.57.88.83.16-.16.17-.58.51-.41.58.31,1.1.58,1.11.24,0-.17-.3-.35-.44-.39-.54-.14-1.73-1.36-1.74-.7,0,.22-.2.29-.31.43Z"/><path d="m3.96,39.42c.11.38-.08.57.46,1.24.08.09.38.23.4.16.09-.31-.48-.88-.86-1.4Z"/><path d="m2.72,26.52c-.11.14-.21.29-.3.44.12.07.18.23.57-.33l-.27-.12Z"/><path d="m11.44,45.67l.28-.16c-.54-.4-.56-.21-.71-.16l.43.32Z"/><path d="m8.86,44.43l-.02-.31c-.52-.24-.09.14.02.31Z"/><path d="m113.35,3.29c-1.42-.18.26-.47-1.77-.62-.74-.03-1.26.01-1.65.09-.83.16-1.83.3-.33.59,2.37.46,2.5-.05,3.75-.06Z"/><path d="m103.74,3.14c.82,0,2.13.24,2.07-.06-.02-.11-.34-.3-1.28-.27-.91.02-2.23.14-2.29.24-.1.22,1.08.02,1.5.08Z"/><path d="m104.66,2.44c-.64-.13-1.04-.27-1.51-.28-.59-.02-1.65-.03-1.69.14-.02.09.36.19.99.19.68,0,1.34-.04,2.21-.06Z"/><path d="m96.79,3.07c-.08-.06-.08-.14-.68-.12-.19,0-.29.08-.43.13h1.11Z"/><path d="m106.92,2.92c-.19.02-.07.03.04.04l-.04-.04Z"/><path d="m97.88,3.15h-.26s-.26,0-.26,0c.17.05.35.05.52,0Z"/><path d="m75.71,2.8c-.14-.3-.74-.36-1.56-.22-1.05.18-.61.47-.69.72,1.03-.02,1.03-.6,2.25-.51Z"/><path d="m88.87,1.21c.03.28-.3.63,1.1.69-.08-.24.2-.5-.47-.69h-.64Z"/><path d="m75.72,2.79l.13.07s-.09-.04-.13-.07Z"/><path d="m88.1,61.85l1.05.05c-.19-.13.34-.38-.49-.38-.48,0-.59.19-.55.33Z"/><path d="m102.2,61.59c.94-.03,1.91-.05,1.88-.48-.69.13-1.47.23-1.88.48Z"/><path d="m60.39,4.18c1.12-.34,2.27-.81,2.67-.07.18.34,1.62-.03,2.47-.03-.51-.36-.92-.73-1.54-1.05-1.33-.69-3.62-.47-5.35.52-.22.12-.31.28-.58.36-1.02.34-.99.95.08,1.02q.45.03.63-.39c.09-.2.02-.44.81-.56.24-.04.54.14.81.21Z"/><path d="m51.93,5.94l.61-.1c.97-.83-.81-1.08-.87-1.69l-1.64.67c-.05.58,2.24.44,1.9,1.12Z"/><path d="m54.43,3.5c-.62.1-1.27.18-1.69.45.02.02.02.07.07.07.8.06.76.67,1.67.4,1.35-.38-.26-.56-.05-.92Z"/><path d="m57.55,3.55c.15-.09.34-.15.32-.18-.07-.09-.2-.17-.32-.25-.07.06-.19.13-.19.19,0,.08.1.15.18.24Z"/><path d="m65.75,1.94c-.38,0-.78-.02-.84.19.36,0,.89.1.84-.19Z"/><path d="m64.13,2.22l-.22.13c.1-.04.2-.07.22-.13Z"/><path d="m20.19,49.88c-.49-.22-.99-.42-1.47-.66-.36.2-1.14-.03-1.96-.31-.81-.28-1.65-.65-2.17-.63-.04.25-.39.4.78,1.03-.33-.57.59-.24,1.17-.06.72.22.92.6,1.09.89.49.26.99.52,1.5.75,1.57.34,2.37.46,2.52.31.14-.14-.39-.53-1.46-1.32Z"/><path d="m17.64,50.14c-.17-.29-.37-.67-1.09-.89-.59-.18-1.5-.52-1.17.06.79.45,1.76,1.04,2.26.83Z"/><path d="m25.26,53.1c-1.18-1.35-1.98-.61-2.96-.94,1.05.79,2.02.88,2.96.94Z"/><path d="m28.33,54.49l-.57-.19c.14.22.33.29.57.19Z"/><path d="m31,11.04c1.07-.33,1.04-.6,1.06-.86-.27-.29.32-.38.95-.46.24-.44-.13-.8,1.41-1.35.2-.53-1.48.12-1.8-.07-2.06,1.19-1.98,2.02-1.62,2.75Z"/><path d="m48.56,6.2l.7-.2c-.43-.08-.5.1-.7.2Z"/><path d="m147.75,52.92c-.22.22-.24.39-.27.56,1.12-.32,2.2-.73,3.29-1.1.98-.34.93-.57.9-.77-.59.19-1.29.48-1.7.4-.74.31-1.47.64-2.22.92Z"/><path d="m150.77,52.38c-1.09.37-2.18.78-3.29,1.1l.06.33c1.3-.33,2.57-.76,3.85-1.14l-.62-.29Z"/><path d="m147.75,52.92c.75-.28,1.48-.61,2.22-.91l-.12-.35c-.74.25-1.47.53-2.22.75l.11.51Z"/><path d="m162.32,46.15c-.1-.12-.24-.24-.8.04-.25.13-.51.43-.77.65.44-.04,1.01-.39,1.56-.69Z"/><path d="m149.97,52c.42.08,1.12-.21,1.7-.4-.4-.08-1.07.16-1.7.4Z"/><path d="m156.67,50.23c-.03-.08.43-.38-.08-.26-.05.01-.2.09-.24.12-.26.23-.05.23.31.13Z"/><path d="m10.53,20.46c.68-.71,2.09-.16,2.33-1.63-.28-.71-1.81.77-2.66,1.23l.33.4Z"/><path d="m20.54,13.92l-.2.14c.06-.04.12-.09.2-.14Z"/><path d="m10.2,20.06l-.15.02c.05,0,.1-.01.15-.02Z"/><path d="m170.55,40.17c.28-.27.54-.55.8-.84l-.15-.23c-.56.58-.78.91-.64,1.07Z"/><path d="m108.8,60.95c2.96.12,3.25-.48,3.19-1.15l-.69-.67c-2.2-.3-3.37.52-5.05.77-.16.61.02,1.16,2.55,1.04Z"/><path d="m136.09,55.86l.25-.03c-.02-.07-.12-.05-.25.03Z"/><path d="m130.61,56.82c.2,0,.41.02.62.03,0,0,.1-.06.15-.09-.25.02-.5.04-.77.06Z"/><path d="m98.25,60.01l-1.1-.13c.08.22.15.46,1.1.13Z"/><path d="m147.48,53.48l.08-.51c-.54.16-1.14.35-1.18.57-.03.23.51.12,1.1-.06Z"/><path d="m27.59,11.76c0-.2-.04-.38-.61-.31.12.14-.05.43.61.31Z"/><path d="m24.62,11.78l.14.02s-.1-.01-.14-.02Z"/><path d="m29,10.53c-.16-.09-.21-.26-.49-.24-.38.04-.66.3-.52.36.29.11-.69.87.97.29l.04-.41Z"/><path d="m29,10.53l-.04.41c.8-.37.69-.47.04-.41Z"/><path d="m1.04,31.28c-.05.08-.09.16-.14.26-.01.01,0,.22.03.23.05.03.09,0,.14-.01-.03-.16-.02-.32-.04-.48Z"/><path d="m66.26,60.51l.23-.03c-.09,0-.17.01-.23.03Z"/><path d="m142.54,9.4l.9.14-.18-.18c-.25,0-.5,0-.72.04Z"/><path d="m2.7,25.51c-.14.14-.27.3-.4.45l.26-.04c.04-.14.09-.28.14-.41Z"/><path d="m2.56,25.92c.18-.2.38-.38.57-.56-.12-.02-.27.06-.43.15-.05.13-.1.27-.14.41Z"/><path d="m33.01,9.71c-.63.08-1.22.17-.95.46l.95-.46Z"/>
                  </g>
                </mask>
              </defs>
              <path class="mask" d="m160.93,17.39c-5.17-2.39-12.09-5.25-20.57-7.84-4.29-1.31-16.29-4.79-32.57-6.56-29.59-3.23-52.54,1.43-63.89,3.83-13.04,2.76-25.05,6.58-34.8,14.32-3.54,2.81-7.21,6.1-7.43,10.54-.29,6.21,6.19,11.08,8.77,13.02,19.81,14.88,63.04,15.89,65.97,15.94,11.33.19,68.16.76,90.73-17.31,2.66-2.13,8.46-6.9,8.33-13.15-.08-4.08-2.68-8.18-8.87-12.8-11.14-8.33-28.19-13.31-61.02-14.48-9.99-.36-24.08.2-41,2.33"
                    mask="url(#path-mask)" stroke="black" stroke-width="2" fill="none"
                    stroke-dasharray="486.70556640625" stroke-dashoffset="486.70556640625">
              </path>
            </svg>
        