
            <svg xmlns="http://www.w3.org/2000/svg">
              <defs>
                <mask id="path-mask">
                  <g fill="white">
                    <path d="m137.21,7.12c2.59.05.95-.07,1.46-.11l1.86.09c1.52.1,3.29.22,4.74.31,2.97.23,8.54.39,10.93.34,1.63.08,2.66.1,3.36.08,2.17.13,5.41.18,7.08.35.46.08,2.36.22.76.22-1.16,0-2.41-.04-4.26-.15-1.53-.1-2.92-.15-3.79-.13l-1.44-.06c-1.78-.04-4.2-.32-5.6-.2-.56-.02-1.59-.07-1.61-.07-1.41.09-4.71-.09-7.56-.21l-.04-.04c.78,0,.62,0-.26-.04-.14,0-.29,0-.45-.01l-.09-.06c.49.01,1.2.05,1.19.02,0,0-.35-.03-.53-.03-.82-.03-.59,0-.68.01l-2.83-.07c-.23,0-.46-.01-.7-.02.35-.02,2.67.03.63-.08-2.16-.11-2.89-.08-3.34-.04-.41.04-1.33.02-2.78-.06-.14-.09-2.22-.13-3.67-.18l.07-.02c1.36,0,.3-.04-.87-.08-1.58-.11-1.73-.03-2.73-.05l-.2-.02.23.02c-.09.05.5.13-2.38.02-1.8-.07-3.34-.09-3.03,0l-1.78-.04-1.56-.14c.97.02,1.4.02,1.48-.01,1.16,0,1.26-.02.13-.09-1.55-.05-2.06-.09-1.5-.12.26-.02.62-.04-.4-.07-.3,0-.77-.02-1.17-.02-.4,0-.71,0-.71,0,.18.14-3.92.03-5.51.07-.33,0-.46.02-.69.04l-.28.03c-3.65-.08-7.49-.22-10.78-.18-.83,0-1.99-.05-2.82-.08-1.49-.07-2.49-.07-3.3-.04l-7.04-.19-.13-.04c-.19-.06-1.32-.11-2.76-.13-1.11-.01-.74.04-.82.07-3.91-.04-7.83-.07-11.93-.11h.16c-.05.03.26.06-.51.05-.22.02-.3.05-1.31.03.35-.08-1.6-.13-3.19-.16-3.43-.07-7.41-.16-10.42-.13-2.08.02-3.48.02-5.51,0-1.23,0-.55.06-.65.09l-11.79-.04.02-.07c.78-.04.59-.07.21-.12-.66-.08.34-.11,2.44-.1l1.86-.03c1.11,0,2.44.02,2.93-.04l-2.04-.03c-.26-.03-1.46-.07.1-.1.81.04,1.64.05,2.49.01l2.93.02c1.2.12,3.58.21,6.18.3,1.84-.06,4.54-.09,4.92-.19,2.57.04,5.14.09,7.74.08.06.04-.23.08.27.11.67.04-2.03.07.42.1,1.7.02,1.37-.04,1.18-.08-.08-.02-.09-.09,1.01-.01,2.02.15,1.6-.03,3.35.02.27.02.46.05.81.06,1.01.02,1-.02,1.28-.03,3.29.06,6.5.05,9.99.17,1.82.06,2.79-.02,3.33-.08l16.15.35s-.18.04,0,.06c.49.06-2.09.1.7.17,2.47.06.34-.08.7-.12.1-.01.92,0,1.41,0,4.55.04,9.47.19,14.19.33,1.38.04,3.61.03,4.71.16,1.25.12,9.4.5,12.02.55Zm-15.63-.62h-.51c.23.02.51.03.69.04.18,0,.26,0,.39,0-.19-.01-.38-.02-.56-.03Zm-26.84-.57c-.1,0-.24,0-.37-.01.02.01.16.02.37.01Z"/><path d="m65.87,9.55c-6.03.25-11.98.39-17.97.59-.81-.17-4.68.08-7.18.14-.51-.04-.44-.12-3.12.04-1.62.09-3.96.16-6.05.24-1.67.03,3.46-.36-2.65-.05-.9.02-2.15.09-2.28.03-.06-.03-.94-.04-1.73,0-.81.04-1.56.11-1.85.15-.48.08,1.09,0,1.58,0,.96.01,1.65.02,2.46.03-.49.06-2.69.12-2.56.18-1.35-.06-6.08.25-6.08.1,0-.07,1.91-.22,2.72-.34.84-.12,4.48-.27,7.38-.35,1.3-.03,2.54-.06,3.84-.09,1.25-.04,2.79-.03,3.71-.12.98-.09-2.48.05-1.84-.04,1.99-.12,4.08-.21,6.39-.25.18.11.79.17,4.24-.05,2.57-.16,5.82-.11,8.3-.32l.95-.04,1.81-.03c3.05.02,6.32-.07,9.87-.3,2.11.02,4.5-.02,7.56-.19l1.3-.05c-.16.02-.25.03-.48.04-1.73.1-2.88.19-1.09.2.47,0,1.75-.02,1.53-.05-.52-.06,5.17-.29.99-.26,1.12-.05,2.77-.09,2.75-.17l1.95-.06c.07.04-1.49.14-.16.13,1.06,0,2.2-.06,3.06-.13l1.23-.04c2.53-.07,2.69,0,3.05.06.21.04.81.05,2.01,0,.45-.02,1.15-.06,1.29-.08.4-.06-.58-.03-1.36-.02-2.79.03,2.23-.21-.19-.2.6-.09,2.16-.14,3.62-.19l.02.05s-2.19.19.11.14c1.71-.04,2.9-.14,2.55-.21l2.24-.08,3.1-.04c.87.03,1.3.07.56.16-.34.04-.25.07.73.04,1.18-.03,1.37-.08,1.55-.12l1.67-.02.04.11c-2.82.09-5.99.24-7.88.17-.72-.03-1.76.04-1.93.1-.12.04.1.08-1.09.14-4.88.26-9.91.45-15.08.55-3.15-.03-9.69.2-13.61.49Zm-32.1.78c.33-.02.66-.04.98-.06-.28,0-.53,0-.84,0-.32.02-.69.04-1.29.07.53,0,.84,0,1.15,0Z"/><path d="m161.45,1.34c-2.35.06-3.44.02-4.65-.02-.6-.02-.21-.11-2.08-.05-1.51.05-1.16.1-.88.15.27.04.42.09.62.14l-5.54.11c-.02-.05.62-.13-1.89-.08-1.9.04-2.76.02-2.7-.05.21-.04,2.42-.09,1.33-.13-.38-.01-1.26-.02-1.84,0-1.93.04-.65.08-1.07.13-.23.02-.41.05-.77.07-.69.04-2.72.1-1.96.13.88.03,2.34-.07,3.67-.08v.1c-5.25.11-10.35.18-15.38.21.82-.12,1.35-.25,5.68-.24.71,0,1.87-.03,2.16-.07.31-.05-.58-.05-1.57-.04-.32-.05-.64-.1-.84-.16l1.43-.05-1.15-.02c3.42-.13,6.62-.17,9.63-.13.78.05,2.32.1,3.89,0,3.01-.18,8.45-.08,10.45-.31,2.93,0,6.01-.08,9.02-.12-.12.12,2.18.1,4.11.04,1.72-.06,2.73-.06,4.02-.05-.45.11-3.49.08-4.7.17-.46.03-2-.05-2.67.04-.41.05,1.09.07,2.02.09.95.02,1.69.02,3-.04,1.65-.07,3.57-.13,5.05-.05.89.05,2.49-.02,3.42-.06,1.64-.07.31-.07-.64-.09-1.51-.02-3.01-.05-2.72-.14l.96-.05c1.69.11,4.96.01,7.73-.01,1.08,0,3.56-.09,2.83.05-.18.03,3.18-.06,3.28-.1.2-.07,1.1-.08,2.32-.09h.9c1.68-.06,3.67-.13,2.98.01-.84.09-.81.08.61.09.63,0,1.46.01,1.59.03.48.07-2.05.08-2.45.13-2.55.04-5.25.15-7.42.06-.56-.03-2.18.04-2.08.05.45.04-3.08.11-.59.13-.1.03-.38.04-1.4.05-3.34.03-6.69.02-10.09.13-.48-.25-4.29.01-6.5.03-2.56.04-4.45.16-7.17.18.63-.08,2.57-.21-1.95-.08Zm-10.63.06l.52-.04c-.23,0-.5,0-.69,0-.17,0-.26.02-.39.03.19,0,.38,0,.56,0Z"/><path d="m223.83,11.51c3.22.16,7.13.45,10.1.57,2.61.24,6.62.41,9.73.63.88.05,1.22.07,1.86.1,1.94.09,2.44-.04.3-.19-2.25-.16-2.96-.23-3.53-.31-.59-.08-1.7-.2-3.85-.25-.24-.01-1.12-.06-1.5-.08-3.7-.22-7.25-.44-10.9-.66l-25.16-1.52.02.05c.71.04,1.28.08,1.44.11,1.25.07,2.74.15,3.77.21,2.48.15,5.54.29,7.49.48,1.17.11,9.71.71,11.44.79.29.01.59.02.55.01-.41-.09,1.2.04,1.93.1.87.08,1.42.13,2.18.19.43.04,1.79.1,1.66.12-.08,0-.86-.02-1.92-.08-2.2-.12-5.31-.33-5.61-.26Z"/><path d="m254.63.13c-2.2-.02-4.8-.06-6.25.02.63.02,1.44.04,1.88.05,1.69,0,3.29-.02,4.53.09,1.02.09-.42.1-1.45.13-1.83.05-3.24,0-4.72-.07-.93-.04-2.48-.07-3.23-.04-2.59.09-3.74,0-5.28-.05-.99,0-2.23.01-2.49-.04-.05-.01.4-.04.58-.04,1.3,0,1.33.05,1.9.08l2.77-.17c-1.82-.14-4.19-.05-6.42-.02.06.05-.09.09-1.7.1.03.03-.12.07.11.1.71.09-1.96.09-2.75.14-.22.01-.77.03-.93,0-.34-.05.56-.08,1.56-.11.57-.02.14-.08.17-.12-.89.05-3.4-.01-3.65.09.32.01,1.22.01.35.04l-.32-.04c-1.28-.01-.5-.11-2.09-.09-.56,0-1.02.08-1.52.12.02.03-.17.06-.94.08.04,0,.09.02.14.03h.84c1.4.04,5.79.07-.18.16-.39,0-.57.05-.85.07,2.57-.02,5.27-.09,7.6,0,.29,0,3.74-.06,6.04-.09.63-.04,1.42-.05,2.8-.06,4.05-.01,8.29.09,12.17.05,1.55.13,4.35.07,5.98.24.4.04.78.08,1.15.14.17.02.4.07.48.11.02.02-.05-.05-.05-.12.04-.11.05-.07.03-.07,0,0-.06.02-.09.03-.08.02-.17.04-.26.06-.75.13-1.57.22-2.56.34-2.7.31-3.88.32-3.95.22l-4.46.3c.21.05-1.02.17-1.91.27,2.05-.03,4.18-.07-.14.27-.55.04-.19.05.37.03,1.74-.17,4.31-.23,5.78-.39,3.39-.37,2.72-.2,3.18-.17l.95-.08c.09-.05.6-.11,1.67-.23.06-.03.27-.07.6-.13.16-.03.36-.07.57-.11.11-.03.23-.05.36-.1.04-.02.08-.04.12-.07.04-.03.08-.12.07-.18,0-.06-.07-.12-.09-.12-.1-.06-.16-.07-.23-.09l.07.08c-1.05-.19-.87-.15-.87-.19-2.03-.23-5.1-.28-5.42-.42Z"/><path d="m173.06,8.66c1.16.05,1.98.07,2.59.08,1.29,0,2.87.03.48-.14-3.77-.27-3.94-.13-5.9-.2l-3.59-.2c-1.67-.17-4.91-.22-7.08-.35l-.04-.07c2.08.09,4.5.12,6.05.25,1.96.16,4,.23,6.3.32,9.04.36,18.12.8,27.22,1.34.16.04.14.06-.99.01l-1.75-.1-.9-.07c-.27-.03-.55-.04-.82-.04-5.75-.28-6.55-.29-4.37-.08.06,0,.08.01.13.02,5.08.2,6.42.45,11.38.72,2.06.11,4.81.27,5.35.39-1.35-.08-2.88-.1-3.33-.17-.85-.12-2.27-.17-3.65-.25-4.93-.3-9.75-.53-14.82-.77-7.22-.32-14.67-.66-22.06-.99-1.47-.06-3.81-.13-3.92-.22.87-.02,2.26.03,3.79.13,1.85.12,3.11.15,4.26.15,1.9.11,3.8.22,5.66.24Zm9.06.24s.56.1,2.03.16c1.43.05,3.52.12,3.6.1.16-.05-1.7-.08-2.36-.13-1.3-.06-3.37-.21-3.26-.13Zm4.22.43c.93.05,2.59.13,2.66.09.04-.02-.57-.08-1.56-.13-1.07-.04-2.1-.09-3.48-.14,1.02.08,1.64.14,2.38.18Zm-5.48-.44l-.54-.03h.07c.41.03.43.03.47.03Z"/><path d="m114.54,7.89c2.24-.11,3.99-.16,6.52-.21,3.67-.07,8.25-.27,12.42-.43,2.09-.08,4.32-.11,6.28-.24l.02-.1c-.46-.03-1.65-.06-.24-.13,4.17-.19,3.6-.36,6.49-.54-1.54.06-2.9.12-4.1.2-.15,0-.29.02-.4.02-.16.05.5.09-1.17.17-1.31.06-2.25.07-2.44.02h-.22s.2,0,.2,0c1.94-.03,2-.15,3.6-.19.1,0,.14-.02.12-.02-1.84-.04-4.08.14-6.09.19-2.56.19-5.26.28-8,.29-.82,0-1.36-.02-2.27.08-1.4.14-3.45.18-5.41.21-2.81.17-1.51.22-.82.29.18.02.77.03-.22.08-.84.04-1.34.03-1.69.02l-1,.04c.53.06-2.14.19-1.58.25Z"/><path d="m93.88,2.21c-1.78-.02-3.63-.03-6.08.07-3.06.16-6.3.25-9.77.24-.66.06-1.89.1-2.99.14h-1.84c.22.04.56.09.64.09,3.35-.09,5.61-.02,8.84-.1,2.35-.06,4.5-.1,5.14,0,.02,0,.26,0,.39,0,.44-.02.89-.04,1.34-.06-.39-.11,1.98-.15,3.79-.18,5.95-.09,11.93-.28,17.97-.33,3.64-.03,3.84-.07,2.1.1-.52.06-.87.1-1.3.15,3.46-.09,7.48-.1,10.27-.29-.65,0-1.28,0-1.96,0-1.11.02-2.71.12-3.19.05-.2-.03,1.55-.12,2.65-.17.59-.01,1.7-.04,2.58-.06.73-.02,1.54-.03,1.89-.07.46-.05-.31-.05-1.07-.06-1.19,0-1.51-.07-3.36-.03-2.34-.03-4.91-.02-7.99.08-3.51.17-7.62.25-11.75.33.06.03-.13.07-.88.08-1.32.02-.48-.04-.77-.06-1.74.13-3.55.29-4.67.08Z"/><path d="m196.36,9.6l-.9-.07-.41-.02-.41-.02c-5.75-.28-6.55-.29-4.37-.08.06,0,.08.01.13.02,5.08.2,6.42.45,11.38.72,2.06.11,4.81.27,5.35.39,1.5.05,4.17.24,5.3.25-1.43-.13-.02-.11.73-.07,2.2.14.85.11,1.16.16.06.01,0,.01,0,.02,1.68.16,4.55.27,6.43.42,1.16.05,2.19.11,3.07.19.3-.07,3.41.14,5.62.26,1.06.06,1.84.09,1.92.08.13-.02-1.23-.08-1.66-.12-.76-.07-1.31-.12-2.18-.19-.73-.06-2.35-.19-1.93-.1.05,0-.26,0-.55-.01-1.74-.08-10.27-.67-11.44-.79-1.96-.19-5.01-.33-7.49-.48-1.03-.06-2.52-.14-3.76-.21-1.21-.05-1.26-.08-1.45-.11l-.02-.05-1.78-.11c.16.04.14.06-.99.01-.22,0-.39,0-.68,0-.94-.04-.95-.07-1.07-.09Z"/><path d="m154.09,6.01l.06.04c.73.05,1.31.12,2.23.16,1.96.09,5.53,0,8.45-.25.36-.03.54-.07.99-.09,1.66-.1,1.77-.23.11-.2q-.69.01-1.08.1c-.18.04-.13.09-1.39.14-.38.01-.81-.01-1.22-.02-2.37.05-2.22-.04-2.75-.08,2.7-.13,5.46-.22,8.25-.32-1.14.16,1.59.07,2.89.07l1.4-.13,2.84-.15s.05.02.03.03c-1.73.2.97.19.89.31l-1.72.08s0-.01-.09-.01c-1.22.01-1-.11-2.49-.03-2.2.12.26.1-.15.18l-1.02.12c-4.16.18-8.4.37-12.47.44l-1.77.06-.08-.07.37-.03-.49.03-1.11.04c-.57.01-1.36,0-1.34.06l-1.79.1.25-.02h.27c-1.23-.03-4.29.08-5.17-.02-.41-.05-4.27.2-6.37.32-.35.03-.57.04-.85.07-.46-.03-1.65-.06-.24-.13,4.17-.19,3.6-.36,6.49-.54,2.78-.14,5.47-.23,8.05-.25Zm11.89-.05c.08.02.28.03.43.04.12-.01.33-.03.33-.04,0-.02-.13-.03-.23-.04-.26.02-.56.04-.54.05Z"/><path d="m234.75.16c1.61-.01,1.76-.06,1.7-.1h-1.51s-1.16,0-1.16,0c-2.9-.01-5.7-.03-8.78.04-1.26.03-3.07.04-4.57.02-1.64-.03-4.75,0-5.28.01-5.58.17-10.97.17-16.33.17-1.97,0-3.2.07-4.82.09l-24.69.35c-.88.01-1.79.01-2.3.06-.12.12,2.18.1,4.11.04,1.72-.06,2.73-.06,4.02-.05.6-.05,1.76-.06,2.76-.08l.96-.05c1.69.11,4.96.01,7.73-.01,1.08,0,3.56-.09,2.83.05-.18.03,3.18-.06,3.28-.1.2-.07,1.1-.08,2.32-.09.29-.04.61-.04.92-.01,1.66-.05,3.65-.12,2.95.02.45,0,.9,0,1.36-.01,1.42-.07,2.88-.13,4.85-.09,1.63-.1,3.21-.22,5.3-.07l2.6-.02c.56-.09,2.3-.08,3.71-.09,2.05-.02,1.69.04,1.84.08,2.37-.14,4.75-.12,7.12-.06.5-.04.96-.11,1.52-.12,1.59-.01.81.08,2.09.09.23-.1,2.74-.03,3.63-.08h1.85Z"/><path d="m191.08,5.01c1.27,0,2.68-.02,4.56-.16-1.08,0-2.14-.02-.87-.15,1-.1,1.77-.04,2.85-.11,1.42.05,2.23-.05,3.17-.15,1.07-.11,2.12-.17,2.85-.11,2.56-.13,2.16-.2,2.61-.29-.38-.06-2.45,0-3.46-.01-1.71,0-3.96.08-6.12.21-1.62.09-3.01.16-4.57.21-1.58.11.07.16-2.67.28-2.03.09-1.7,0-2.02-.04l-1.8.09c.13.04.38.08.35.13-.02.03-.85.08-1.62.11-.68.03-1.19.03-.8,0,.57-.06,2.15-.16.48-.12-.42,0-1.88.13-2.87.21-.31.03-.47.06-1.11.06l1.14-.06c-.69-.11-2.94.01-5.31.15-.72.15,2.88.05,2.62.17,3.88-.23,3.85-.14,3.55-.02,1.56-.09,2.84-.07,4.45-.17-.24-.11,1.48-.29,4.18-.39,3.73-.14-1.2.16.09.16.18,0,.21.01.31.02Z"/><path d="m6.32,5.56h1.47s2.84-.04,2.84-.04h1.05s-.06-.03-.09-.04c-.62-.01-.92-.03-.4-.05.08,0,.33,0,.42,0,.81.02-.05.04-.05.06,1.48,0,2.58-.02,3.27-.07,1.1-.09,2.51-.1,3.65-.08,1.14.02,1.99.06,1.95.08-.22.12,2.13.11,3.83.15,2.14-.04,4.27-.08,6.44-.13.95-.02,2.78,0,2.26-.07-.43-.06-2.42-.02-2.92-.03-1.56-.05-3.97.11-4.84-.03-1.19,0-2.59,0-2.77-.07-1,0-2.07,0-2.71-.03-2.2,0-4.41-.01-6.58-.02-2.15-.01-4.16.02-6.18.04-1.01,0-2.02,0-3.05.01-.51,0-1.03-.02-1.56-.02-.26-.01-.53-.02-.79-.03-.13,0-.27-.02-.39-.04-.03,0-.07-.01-.08-.02h-.01s.04.03.04.06c-.04.13-.03.05-.03.07.05-.01.12-.03.18-.04v-.08c-.5.06.08.08.28.1.26.01.52.02.76.03.48.02.9.03,1.18.06-.07.04-.11.1-1.75.05l.77.13,3.83.04Z"/><path d="m247.88,2.33c-.56.02-.92,0-.37-.03,4.32-.34,2.19-.3.15-.27l-1.67.1.04.1h.21s-.2,0-.2,0c-1.52.05-4.81.3-4.56.14-2.51.14-4.8.13-7.6.37-.4.03-2.16.08-2.25.03l-2.65.11c-1.15.14-4.5.33-3.84.42.03,0-.58.04-.88.07-1.98-.11-2.79.18-4.34.21,0,.01,0,.02,0,.03,4.55-.02,5.62-.24,7.21-.43l.35-.02-.37.02c.46-.02,1.1-.04,1.64-.05.27,0,.51-.02.68-.02.18,0,.29,0,.3,0,.47.23,3.77-.09,6.45-.24,2.8-.15,6.02-.37,8.49-.4,1.22-.04,1.04.06,3.16-.07l.05-.07Z"/><path d="m103.75,8.01l1.67-.02c4.07-.12,4.02,0,3.6.13,1.34,0,1.27-.07,1.92-.1-1.21-.12.78-.33,4.47-.47-.85-.05-.92-.13,0-.25-.94-.05-1.72.03-2.53.09.54,0,.68.02-.05.05-1,.04-.84,0-.94-.03-2.15-.04-5.32.14-7.61.23-3.75.14-7.84.22-11.39.43l.02.05,2.6-.07c.82-.09,1.56-.08,2.3-.08l3.1-.04c.22-.05.41-.11,2.08-.16,1.12-.03,1.77-.02,2.31,0,1.25.04-.45.15-1.54.24Z"/><path d="m25.18,5.3c.87.14,3.28-.02,4.84.03.5.02,2.49-.02,2.92.03.52.07-1.31.05-2.26.07-2.17.04-4.3.08-6.44.13l.78.06h1.05c2.9-.1,6.58-.04,9.84-.06.78-.04.59-.07.21-.12-.66-.08.34-.11,2.44-.1l.04-.03s.65-.07,1.94-.05c.27,0,.52,0,.77,0-.26-.03-1.46-.07.1-.1l-.08-.03c-5.15-.04-10.29-.09-15.46-.03.83.08,2.36.15-.69.21Z"/><path d="m50.65,3.17c-1.07.03-.97-.11-2.87.04-1.42.11-2.77.04-4.18.1-.4.14-2.32.17-4.34.17-1.71,0-3.12.06-4.41.14-1.33.08-1.92.15-.51.17,1.9-.05,3.65-.05,5.69-.13,6.35-.25,7.04-.27,12.14-.29.12,0,.36,0,.4,0,2.59-.19,6.54-.1,9.18-.28-.25-.05-.28-.12-2.08-.11-.06.05-.48.06-1.71.08-2.58.03-5,.06-7.31.09Z"/><path d="m25.18,5.3c3.04-.06,1.52-.14.69-.21-2.01-.04-3.35-.1-6.22,0-2.07.07-6.21,0-9.52.02-2.23,0-4.51.02-6.8,0-.57,0-1.14-.02-1.71-.05-.14,0-.28-.02-.41-.03h-.09s0-.02,0-.01c-.03-.02.08.03.1.11,0,.03.02.08,0,.15-.02.06-.1.11-.08.1-.05.02.07-.01.12-.02.27-.04.55-.06.83-.09,1.13-.09,2.27-.14,3.39-.18,1.97-.07,3.28-.13,3.06-.22-.22-.08-1.81-.02-3.59.09-1.23.07-2.48.12-3.69.27-.06,0-.13.02-.18.04,0-.02-.02.06.03-.07,0-.03-.01-.06-.04-.07h.01s.05.01.08.02c.13.02.26.03.39.04.27.01.53.02.79.03.53,0,1.05.02,1.56.02,1.03,0,2.04,0,3.05-.01,2.02-.02,4.02-.05,6.18-.04,2.18,0,4.39.01,6.58.02.53-.02,1.13-.05,1.58-.05,1,0,1.09.04,1.13.08.18.06,1.59.06,2.77.07Z"/><path d="m227.13,3.18c-1.59.19-2.67.41-7.21.43l-3.63.21c-.96.07-1.97.14-1.72.18,1.71.01,3.93-.15,5.79-.24,7.12-.33,14.24-.62,21.4-1.05,1.91-.12,2.18-.16,2.91-.24-2.47.03-5.7.24-8.49.4-2.68.15-5.99.46-6.45.24,0,0-.12,0-.29,0-.18,0-.42.01-.68.02-.53.02-1.17.04-1.62.05Z"/><path d="m112.13,2.32c.43-.05.79-.09,1.3-.15,1.74-.16,1.54-.13-2.1-.1-6.04.06-12.02.24-17.97.33-1.81.03-4.18.06-3.79.18,3.38.06,7.07-.04,11.12-.18,2.62-.09,4.62-.11,4.11.03,2.63-.11,4.82-.06,7.32-.11Z"/><path d="m61.74,3.1c-2.64.17-6.59.09-9.18.28-.03,0-.27,0-.4,0-5.09.02-5.79.04-12.14.29-2.04.08-3.79.08-5.68.13.81.09,1.69.17,4.82.14l2.29-.13c.84-.09,2.14-.12,3.98-.16,2.24-.05,4.96-.11,6.9-.16,3.92-.08,7.4-.28,11.13-.29l-.99-.12c-.25,0-.5,0-.73.01Z"/><path d="m15.93,4.53c1.17-.15,2.12-.28-2.58-.13-1.51.05-.56-.03-.45-.06,2.31-.15,4.87-.19,6.52-.2,4.2-.02,5.15-.14,6.04-.29l.86-.03c2.76-.02,7.29-.12,2.99.18-.78.05-.75.11-1.1.17-2.37.07-4.76.14-7.12.22-1.54.05-2.69.09-2.84.16l-2.64.08c.1-.03.06-.06.33-.09Zm7.57-.34c.09,0,.25,0,.48-.02-.13,0-.26,0-.48.02Z"/><path d="m24.51,10.88c-1.35-.06-6.08.25-6.08.1,0-.07,1.91-.22,2.72-.34.84-.12,4.48-.27,7.38-.35,1.3-.03,2.54-.06,3.84-.09,1.25-.04,2.79-.03,3.71-.12.98-.09-2.48.05-1.84-.04-4.26.03-9.55.35-13.97.39-1.39.01-1.08.11-2.2.16-1.08.08,3.78-.03-.21.14-1.33.16-4.84.34-4.31.47.83-.02,1.9-.04,2.43-.05,1.34,0,1.31.19,4.71-.09.03,0,1.23,0,1.99-.02,2.22-.05,4.32-.13,6.18-.25-.64-.12-3.1.11-4.36.11Z"/><path d="m12.63,10.8c-1.1.03-1.9.04-2.48.02-1.44-.05-4.16-.02-6.29.12-1.9.12-3.62.28-3.83.41-.39.23,2,.22,7.33,0,1.3-.05,2.92-.06,4.39-.08,1.61-.14.99-.21-.76-.21-1.77,0-3.39.1-4.65.22-.46.04-2.59.16-2.41.07.16-.08-1.07-.1-.29-.2.48-.06.71-.12,2.15-.18,1.5-.06,2.15-.04,2.33,0,.18.05.41.08,2.07.02,1.62-.06,2.44-.12,2.43-.19Z"/><path d="m63.47,3.2c-3.73.01-7.22.21-11.13.29-1.94.04-4.65.11-6.9.16-1.84.03-3.14.06-3.98.16,3.15.09,7.85-.13,11.74-.21,5.8-.13,11.73-.34,17.38-.36l.46-.06c-.84-.03-3.79-.03.7-.15,1.47-.04,2.3-.12-.23-.08-2.67.09-4.61.27-8.04.26Z"/><path d="m254.03,1.46c.07.1,1.25.09,3.95-.22.99-.12,1.81-.21,2.56-.34.09-.02.18-.04.26-.06.04-.01.09-.03.09-.03.02,0,.02-.04-.03.07,0,.07.06.14.05.12-.08-.04-.31-.08-.48-.11-.37-.05-.75-.1-1.15-.14-1.63-.17-4.43-.11-5.98-.24-3.88.04-8.11-.07-12.17-.05-1.39,0-2.17.01-2.8.06,3.73.09,7.76.09,12.11.12,2.77.03,5.59.04,8.59.24.33.03.66.05,1.01.08.17.02.34.04.51.06.08.01.17.03.24.05l.06.02h-.02s-.07-.1-.08-.15c-.02-.05,0-.14.04-.19.06-.06.02-.02.03-.03-.03.01-.27.08-.43.1l-.55.09c-.38.05-.76.09-1.14.14-1.55.17-3.16.3-4.69.41Z"/><path d="m78.37,8.6l1.95-.06h2.9c.41-.02.82-.03,1.24-.04l4.01-.21c-2.37-.1-7.08.12-10.46.23-6.72.25-13.51.5-20.27.75l-1.8.1c3.05.02,6.32-.07,9.87-.3,2.88-.13,5.92-.3,7.56-.19l1.31-.05.93-.04s-.05-.04-.09-.05c-.09,0-.19-.01-.28-.02h.64s2.5-.12,2.5-.12Z"/><path d="m57.94,5.28c2.57.04,5.14.09,7.74.08,2.06.02,4.03.05,5.55.13,1.38.02,2.08.03,2.78.03,3.29.06,6.5.05,9.99.17,1.82.06,2.79-.02,3.33-.08-9.92-.21-19.84-.36-29.76-.4l.36.06Z"/><path d="m12.9,4.34c2.31-.15,4.87-.19,6.52-.2,4.2-.02,5.15-.14,6.04-.29-6.9.18-13.81.31-20.69.74-.84.04-1.51.08-2.15.11-.32.02-.63.04-.95.06-.16.01-.32.03-.49.05l-.14.02-.09.02s-.05.02-.08.03l-.05.03s-.15.14-.14.25c-.03.16.15.31.2.32l.07.02c.06.02.06.01.1.02l.15.02c1.92.11,4.76.11,5.12,0l-3.83-.04-.79-.03-.4-.03-.21-.02s-.07,0-.14-.03c.03.01-.21-.06-.14-.28.08-.14.09-.1.11-.12l.05-.02c.59-.12,1.07-.13,1.61-.17l3.14-.16,7.17-.3Z"/><path d="m126.09,6.83c-.09.05.5.13-2.38.02-1.8-.07-3.34-.09-3.03,0,7.39.27,14.78.55,22.46.75l-.04-.04-.26-.04c-.14,0-.29,0-.45-.01-1.29-.03-2.56-.05-2.93-.13-.23,0-.46-.01-.7-.02l-2.71-.12c-.41.04-1.33.02-2.78-.06-1.6-.06-3.26-.04-4.7-.14-.48-.03.25-.04,1.03-.04l.07-.02-.87-.08c-1.58-.11-1.73-.03-2.71-.05Z"/><path d="m26.32,3.82c2.76-.02,7.29-.12,2.99.18-.78.05-.75.11-1.1.17,1.32-.03.88.02.96.05l1.76-.06c-.55-.06,1.73-.15,1.79-.22l-1.18.02c.09,0,.25-.02.26-.02.33,0,.64,0,.95,0,1.57,0,.61.09.94.14,1.78.04,3.6,0,5.47-.14-3.13.03-4.01-.05-4.82-.14-1.42-.02-.83-.09.51-.17,1.29-.08,2.7-.14,4.41-.14,2.02,0,3.94-.03,4.34-.17-4.54.1-9.18.28-13.67.35-1.77.03-2.7.09-3.61.16Z"/><path d="m71.51,2.95c2.53-.04,1.7.04.23.08-4.49.12-1.54.12-.7.15.77-.08,2.17-.07,3.25-.1-.12-.04.7-.12,1.37-.12,3.28.01,5.6-.17,8.46-.22,1.52-.09,1.61-.04,1.73,0,1.55.02,1.93-.04,2.38-.09-.14,0-.37,0-.39,0-.64-.1-2.79-.06-5.14,0-3.23.08-5.49,0-8.84.1-.08,0-.42-.05-.64-.08l-3.51.02h-1.86s-.21.1-.21.1c3.98-.07,4.21.03,3.89.15Z"/><path d="m119.93,1.7c1.85-.04,2.17.03,3.36.03.76,0,1.53,0,1.07.06-.35.04-1.15.05-1.89.07-.88.02-1.99.05-2.58.06-1.11.05-2.85.14-2.65.17.49.07,2.08-.04,3.19-.05.68,0,1.31,0,1.96,0,.85.04,1.63-.03,2.44-.05,1.35-.05,2.8-.12,2.4-.17-1.56-.19,2.64-.27,6.4-.36-.46-.04-2.42.02-2.57-.04-3.08.09-6.01.08-9.13.15-2.23.05-1.75.09-2,.14Z"/><path d="m84.12,2.74c-2.86.05-5.18.24-8.46.22-.66,0-1.49.08-1.37.12,5.73-.13,11.43-.26,17.15-.39,2.87-.05,5.89-.1,8.73-.15,1.72-.02,3.12-.06,4.62-.11.5-.14-1.5-.13-4.11-.03-4.06.15-7.75.24-11.12.18-.45.02-.89.04-1.34.06-.45.05-.83.11-2.38.09h-1.73Z"/><path d="m12.9,4.34l-7.17.3-.07.07c.98-.05,1.84-.07,1.69-.02-.15.05-1.14.09-2.03.14-.33.05-.35.09-.37.13,1.78-.11,3.37-.17,3.59-.09,2.29-.05,4.66-.14,7.07-.24.1-.03.06-.06.33-.09,1.17-.15,2.12-.28-2.58-.13-1.51.05-.56-.03-.45-.06Z"/><path d="m216.29,3.82l3.63-.21v-.03s-.2,0-.2,0h.19c1.55-.03,2.37-.32,4.34-.21.31-.02.92-.06.88-.07-.65-.09,2.7-.28,3.84-.42-.19-.03-1,.01-1.72.05-.95.1-2.46.15-3.81.22-.99.02-1.6.19-2.14.12-.57-.08-2.21.06-3.13.08-1.57.14-2.29.13-2.83.09-.94.03-2.06.01-2.64.13l-.4.07c1.1-.03,1.65,0,3.2-.06,1.06-.02.65.03.75.06,4.82-.16-.63.15.02.18Z"/><path d="m140.53,7.11c1.52.1,3.29.22,4.74.31,2.97.23,8.54.39,10.92.34-2.22-.09-4.68-.18-3.12-.22-4.25-.19-8.51-.37-12.54-.44Z"/><path d="m216.27,3.64c4.81-.16-.63.15.02.18-.96.07-1.97.14-1.72.18-2.74.13-5.64.36-8.13.34-.12,0-.16,0-.12-.02,3.6-.27,3.89-.43,3.68-.58l2.31-.11c1.1-.03,1.65,0,3.2-.06-.1.04-.13.08.75.06Zm-2.87.24c.58,0,1.13-.06.94-.07-.37-.02,1.47-.18-1.3-.06-1.38.08-1.26.1-.26.08.19.02.18.05.62.05Z"/><path d="m242.88.08c.84,0,1.54.07,2.5.02,2.13-.12,2.32,0,3.01.05.63.02,1.44.04,1.88.05,1.69,0,3.29-.02,4.53.09,1.02.09-.42.1-1.45.13-1.83.05-3.24,0-4.72-.07-.93-.04-2.48-.07-3.23-.04-2.59.09-3.74,0-5.28-.05.92-.06,1.84-.12,2.77-.17Zm10.07.2s-.32,0-.34,0c-.04,0,.01.02.03.03h.7c-.13-.01-.24-.02-.39-.03Z"/><path d="m108.67,6.49c-3.65-.08-7.49-.22-10.78-.18-.83,0-1.99-.05-2.82-.08-1.49-.07-2.49-.07-3.3-.04,3.08.17,6.82.2,10.32.26,4.53.08,8.77.29,13.34.34.66,0,1.48.03,1.78,0-.92-.09-2.5-.15-4.31-.16-2.19,0-3.22-.07-4.23-.15Z"/><path d="m12.63,10.8c.01.06-.81.13-2.43.19-1.67.06-1.89.03-2.07-.02-.17-.04-.83-.07-2.33,0-1.44.06-1.67.12-2.15.18-.78.1.45.12.29.2-.18.09,1.95-.03,2.41-.07,1.26-.12,2.88-.22,4.65-.22,1.75,0,2.37.07.76.21.6,0,1.2,0,1.8-.06-.53-.13,2.97-.32,4.31-.47-.95,0-1.82,0-1.88-.05l-3.35.13Z"/><path d="m225.66.28c-2.38-.07-4.75-.08-7.13.06-1.39.11-5.68.13-6.44.27l.32.11c1.56.02,2.98,0,4.27-.06.2-.02-.38-.05.57-.07l.29.06c.26,0,.55,0,.85,0,3.69-.05,2.94-.23,6.33-.29.76-.02.96-.05.94-.08Z"/><path d="m25.03,5.62l-.78-.06c-1.7-.03-4.05-.02-3.82-.15.04-.02-.82-.06-1.95-.08-1.14-.02-2.55,0-3.65.08-.69.05-1.78.07-3.27.07.07,0,.1.02.12.03l-.07.1c4.43.03,8.8.09,13.42,0Z"/><path d="m67.44,5.87c.35-.08-1.6-.13-3.19-.16-3.43-.07-7.41-.16-10.42-.13-2.08.02-3.48.02-5.51,0-1.23,0-.55.06-.65.09,4.32.05,8.52.13,13.06.11,1.96,0,4.45.05,6.7.09Z"/><path d="m245.99,2.13l1.67-.1c.89-.1,2.11-.21,1.91-.27-4.5.22-9.31.55-13.87.68-1.84.05-2.4.21-4.05.32.09.05,1.85,0,2.25-.03,2.79-.24,5.08-.22,7.6-.37,1.61-.29,2.99-.13,4.51-.24Z"/><path d="m200.25.52c-.45,0-.91,0-1.36.01-.84.09-.81.08.62.09.63,0,1.46.01,1.59.03.48.07-2.05.08-2.45.13l1.9.05h2.97s6.02-.2,6.02-.2c-4.11-.06-4.02-.09.86-.27-2.09-.15-3.67-.03-5.3.07-1.6.03-2.38.22-4.85.09Z"/><path d="m133.63,1.45c-3.76.09-7.95.17-6.4.36.4.05-1.04.12-2.4.17.42.11,2.33-.02,3.48-.03.82-.12,1.35-.25,5.68-.24.71,0,1.87-.03,2.16-.07.31-.05-.58-.05-1.52-.04h-.4s.36,0,.36,0l-.96-.15Z"/><path d="m206.44,4.34c-.12,0-.16,0-.12-.02-.4-.04-3.2.12-2.68,0-.73-.06-1.78,0-2.85.11-.94.1-1.75.2-3.17.15-1.08.07-1.85,0-2.85.11-1.27.12-.21.14.87.15,3.66-.15,7.54-.21,10.8-.51Z"/><path d="m152.17,6.55c-1.23-.04-4.29.08-5.17-.02-.41-.05-4.27.2-6.37.32-.35.03-.57.04-.85.07l-.02.1c3.24-.04,6.25-.27,9.45-.34l2.36-.1c.31-.01.5-.03.58-.04Z"/><path d="m125.19,6.57c1.25.12,9.4.5,12.02.55,2.59.05.95-.07,1.46-.11-1.64-.04-3.3-.06-4.86-.17-.34-.02-1.48-.07-1.56-.07-2.1.03-4.75-.14-7.06-.2Z"/><path d="m24.51,10.88c1.26,0,3.72-.22,4.36-.11,1.29.02,2.56-.06,3.84-.13,2.13-.17,5.5-.23,8-.37-.51-.04-.44-.12-3.12.04-1.62.09-3.96.16-5.98.24l-1.11.08h-.35s1.4-.08,1.4-.08c-1.67.03,3.46-.36-2.65-.05-.21.06.59.11-1.82.2-.49.06-2.69.12-2.56.18Z"/><path d="m69.26,5.8c-.05.02.26.04-.51.04,5.48.09,11.24.29,15.98.17l-.13-.04-3.58-.06c-3.91-.03-7.83-.07-11.76-.1Z"/><path d="m40.71,10.27c-2.5.14-5.88.2-8,.37.29.1,2.27-.06,3.3-.08,3.91-.1,7.94-.26,11.89-.43-.81-.17-4.68.08-7.18.14Z"/><path d="m105.46,8.09c-2.82.09-5.99.24-7.88.17-.72-.03-1.76.04-1.93.1-.12.04.1.08-1.09.14-.38.12,1.99.01,3.24-.03,2.82-.09,5.68-.19,8.52-.28-.23-.04.48-.11-.86-.1Z"/><path d="m119.86,7.22c1.97-.04,4.01-.07,5.41-.21.91-.09,1.45-.07,2.27-.08,2.74,0,5.45-.09,8-.29-2.55-.01-5.73.11-8.83.23-2.29.09-4.55.18-6.83.27l-.02.08Z"/><path d="m163.39,1.42c.63-.08,2.57-.21-1.95-.08-2.35.06-3.44.02-4.65-.02-.6-.02-.21-.11-2.08-.05-1.51.05-1.16.1-.88.15.27.04.42.09.62.14l8.93-.14Z"/><path d="m182.06,5.39c.29-.11.33-.21-3.55.02l-2.72.18-1.72.08c-.73.07-1.75.1-2.73.14l-1.02.12c-.08.07,1.12,0,2.07-.05,3.23-.17,6.44-.33,9.66-.5Z"/><path d="m200.55.83l-1.9-.05c-2.55.04-5.25.15-7.42.06-.56-.03-2.18.04-2.08.05.45.04-3.08.11-.59.13,3.98-.08,8.32,0,12-.19Z"/><path d="m181.16,5.09c.98-.07,2.45-.2,2.87-.21,1.67-.04.09.06-.48.12-.39.04.12.04.8,0,.78-.03,1.61-.08,1.62-.11.02-.05-.22-.09-.35-.13-3.26.04-6.97.22-10.65.39l-.11.09s.05.02.03.03l.98-.04c2.36-.14,4.62-.26,5.28-.15Z"/><path d="m224.73.35c-3.39.06-2.64.24-6.33.29,1.89.07,3.81.13,6.29-.03.28-.03.46-.07.85-.07,5.97-.08,1.57-.11.18-.16-.14.02.01.06-1.05.06l.21-.06c-.05-.01-.1-.02-.14-.03Z"/><path d="m143.65,1.23c.78.05,2.32.1,3.89,0,3.01-.18,8.45-.08,10.45-.31-4.87.06-9.65.16-14.34.3Z"/><path d="m69.7,2.69l3.51-.02h1.84c-.01-.1,1.51-.12,2.99-.15,3.46,0,6.71-.08,9.77-.24-.29-.03-1.24-.04-1.87-.02-5.24.2-11.13.19-16.22.43Z"/><path d="m40.63,9.79c.18.11.79.17,4.24-.05,2.57-.16,5.82-.11,8.3-.32-3.74-.03-8.27.21-12.53.36Z"/><path d="m46.83,5.18c1.2.12,3.58.21,6.19.3-.51-.12.84-.2,2.62-.27-1.82-.07-3.46-.04-5.15-.03-.91.08-2.38.01-3.66,0Z"/><path d="m79.48,9.06c-3.15-.03-9.69.2-13.61.49,3.88-.07,7.78-.26,11.67-.4.1-.07,1.05-.08,1.94-.09Z"/><path d="m260.86.66c.07.02.13.02.23.09.01,0,.08.07.09.12,0,.06-.03.15-.07.18-.04.02-.08.05-.12.07-.13.05-.25.07-.35.1-.21.04-.4.08-.56.11-.31.05-.48.09-.46.11.39-.04.77-.08,1.17-.16.1-.01.18-.01.32-.07-.38.15-.62.15-.92.2l-.71.05c-1.08.12-1.59.18-1.67.23.82-.07,1.62-.14,2.41-.24.2-.03.4-.05.61-.1.12-.03.19-.02.4-.15,0,0,.12-.11.13-.22.03-.11,0-.19-.05-.27-.07-.09-.08-.08-.11-.11-.03-.02-.06-.04-.08-.04-.08-.03-.13-.05-.19-.06-.43-.1-.82-.13-1.22-.17-1.59-.13-3.22-.19-5.05-.19.32.14,3.39.19,5.42.42.26.03.53.05.8.11Z"/><path d="m100.19,2.11c4.13-.08,8.24-.16,11.75-.33-1.39-.03-2.69-.03-4.76.07-2.62.13-5.89.12-8.78.21l.17.07c.53,0,1.08-.01,1.63-.02Z"/><path d="m115.41,7.54c-3.69.14-5.68.35-4.47.47l3.61-.12c-.56-.06,2.11-.19,1.58-.25-1.05,0-.61-.06-.72-.1Z"/><path d="m209.54.63l-6.02.19c3.04.02,6.05.03,8.9-.11l-.32-.11-2.56.03Z"/><path d="m210.01,3.75l2.31-.11.4-.07c-3.37.13-6.8.22-9.91.46,1.01.02,3.07-.05,3.46.01.65-.04,1.2-.08,1.74-.11.14-.05.23-.11,2-.18Z"/><path d="m119.86,7.22l.02-.08-4.48.15c-.92.11-.85.19,0,.25,2.19-.07,1.67.01,1.72.07.35.02.84.02,1.69-.02.99-.05.4-.06.22-.08-.69-.07-1.99-.12.82-.29Z"/><path d="m247.88,2.33l-.05.07c3.06-.17,6.42-.28,9.01-.63-.46-.03.21-.2-3.18.17-1.47.16-4.04.22-5.78.39Z"/><path d="m67.63,2.8l.21-.1c-3.49.01-6.64.15-9.86.27l1.69.03c1.79-.01,1.82.05,2.08.11.24,0,.49,0,.74-.01,0-.13.54-.25,5.15-.29Z"/><path d="m28.22,4.17c-2.37.07-4.76.14-7.12.22-1.54.05-2.69.09-2.84.16,3.17-.02,6.7-.21,9.99-.27,0-.03.01-.07-.03-.1Z"/><path d="m59.67,2.99l-1.69-.03c-2.57.02-5.24,0-7.33.2,2.31-.03,4.73-.06,7.31-.09,1.22-.02,1.64-.04,1.71-.08Z"/><path d="m191.08,5.01c-.1,0-.13-.02-.31-.02-1.29,0,3.64-.3-.09-.16-2.69.1-4.41.28-4.18.39,1.58-.05,3.26-.06,4.57-.21Z"/><path d="m108.67,6.49c1.01.08,2.04.15,4.23.15,1.82,0,3.39.06,4.31.16.64.01,1.45.04,1.69.01-.52-.05-1.04-.1-1.57-.14-2.81-.1-5.59-.14-8.38-.21l-.28.03Z"/><path d="m153.08,7.54c-1.56.05.9.13,3.12.22,1.64.08,2.67.1,3.36.08l-.04-.07c-2.11-.08-4.21-.15-6.44-.24Z"/><path d="m35.91,5.56c-3.26.02-6.94-.04-9.84.06,3.27.08,6.55,0,9.82,0l.02-.07Z"/><path d="m177.06,1.21c-.48-.25-4.29.01-6.5.03.14.05-.5.13,2.19.05,1.34-.03,2.87-.06,4.31-.08Z"/><path d="m187.43,4.68c.32.04-.01.13,2.02.04,2.74-.12,1.09-.17,2.67-.28-2.19,0-3.13.16-4.69.24Z"/><path d="m88.46,8.28l-4.01.21c2.53-.07,2.69,0,3.05.06.21.04.81.05,2.01,0,.45-.02,1.15-.06,1.29-.08.4-.06-.58-.03-1.36-.02-2.79.03,2.23-.21-.19-.2-.25,0-.52.01-.8.02Z"/><path d="m157.91,8.08c-1.78-.04-4.2-.32-5.6-.2q.76.13,5.6.2Z"/><path d="m162.24,5.88c-2.37.05-2.22-.04-2.75-.08-1.85.06-3.89.08-5.39.21l.06.04c1.33-.03,3.66-.14,3.88-.08.49.14,2.38,0,4.21-.09Z"/><path d="m167.73,5.47c-1.14.16,1.59.07,2.89.07l1.4-.13,1.1-.19c-1.85.06-3.48.21-5.39.25Z"/><path d="m143.69,1.64v.1c1.68,0,3.37,0,5.23-.07-.02-.05.62-.13-1.89-.08-1.9.04-2.76.02-2.7-.05-.83.04-.57.07-.64.1Z"/><path d="m55.64,5.21c-1.79.07-3.14.15-2.62.27,1.84-.06,4.54-.09,4.92-.19l-.36-.06h-1.94Z"/><path d="m105.46,8.09c1.34-.01.63.06.86.1l2.69-.08c.42-.13.47-.25-3.6-.13l.04.11Z"/><path d="m98.56,2.13l-.17-.07c-1.74.03-3.24.09-4.51.16,1.12.21,2.92.05,4.68-.08Z"/><path d="m103.49,5.97s-.18.04,0,.06c.49.06-2.09.1.7.17,2.47.06.34-.08.7-.12.1-.01.92,0,1.41,0-.6-.05-1.14-.11-2.8-.12Z"/><path d="m46.83,5.18c1.28.02,2.75.09,3.66,0l-1.97-.03c-.75,0-1.38,0-1.73-.04h-3.66s.76.05.76.05l2.93.02Z"/><path d="m214.32,10.9s.07-.01,0-.02c-.31-.05,1.03-.03-1.16-.16-.75-.05-2.16-.07-.73.07l1.89.12Z"/><path d="m32.73,3.94c-.06.07-2.34.16-1.79.22l2.75-.08c-.33-.05.63-.14-.97-.14Z"/><path d="m15.98,10.67c.06.05.93.06,1.88.05,3.98-.17-.87-.06.21-.14-.17,0-.4,0-.69.01l-1.19.04c-.25.01-.32.02-.2.03Z"/><path d="m153.44,6.47l-1.79.1c.8.05,2.98-.05,4.34-.06l.1-.07-.08-.07c-.49.02-.86.03-1.22.04-.14.04-.75.05-1.34.06Z"/><path d="m131.06,1.41c.15.06,2.11,0,2.69.03l1.43-.05-1.15-.02c-.95,0-1.94.01-2.97.05Z"/><path d="m215.36,3.44c.54.04,1.26.04,2.83-.09-.76,0-1.07-.08-2.83.09Z"/><path d="m10.63,5.52l-2.84.04c-.13.09,1.44.07,2.83.06v-.09Z"/><path d="m223.46,3.14c1.34-.07,2.86-.12,3.81-.22-1.94.02-2.97.11-3.81.22Z"/><path d="m223.82,11.51c-.88-.08-1.91-.15-3.07-.19.99.07,1.56.18,3.07.19Z"/><path d="m43.9,5.16l-.76-.04h-1.8s.08.03.08.03c.81.04,1.64.05,2.49.01Z"/><path d="m141.63,6.46s-.02.01-.12.02c.13,0,.26-.01.42-.02.08-.03.17-.06.25-.08l-.55.08Z"/><path d="m46.79,5.11c.35.03.98.04,1.73.04.02-.06-.57-.07-1.73-.04Z"/><path d="m111.88,7.41c.1.02-.06.07.94.03.73-.03.59-.05.05-.05l-.99.02Z"/><path d="m156.08,6.44l-.1.07c.93-.04,1.57-.09,1.86-.13l-1.77.06Z"/><path d="m151.58,6.59l-2.36.1c.99.01,1.79-.02,2.36-.1Z"/><path d="m28.26,4.17l-.02.1c.6-.01.91-.03.94-.05-.08-.03.35-.08-.92-.05Z"/><path d="m217.54.64l-.29-.06c-.95.02-.36.05-.57.07.29,0,.57,0,.85,0Z"/><path d="m79.48,9.06c-.89.01-1.85.02-1.94.09.82-.02,1.63-.04,1.94-.09Z"/><path d="m108.95,6.46c2.79.07,5.57.11,8.38.21.97.02,1.4.02,1.48-.01l.13-.09c-1.55-.05-2.06-.09-1.5-.12.26-.02.62-.04-.4-.07-.3,0-.77-.02-1.17-.02-.4,0-.71,0-.71,0,.18.14-3.92.03-5.51.07-.33,0-.46.02-.69.04Z"/><path d="m167.4,8.42c1.9.11,3.8.22,5.66.24-3.19-.15-.58-.14-2.83-.26l-3.59-.2c.46.08,2.36.22.76.22Z"/><path d="m71.24,5.5c-1.52-.08-3.49-.11-5.55-.13.06.04-.23.08.27.11.67.04-2.03.07.42.1,1.7.02,1.37-.04,1.18-.08-.08-.02-.09-.09,1.01-.01,2.02.15,1.6-.03,2.66,0Z"/><path d="m136.05,7.24l2.71.12c.35-.02,2.67.03.63-.08-2.16-.11-2.89-.08-3.34-.04Z"/><path d="m129.6,7c-.79,0-1.51,0-1.03.04,1.45.1,3.11.08,4.7.14-.14-.09-2.22-.13-3.67-.18Z"/><path d="m81.03,5.9l3.58.06c-.19-.06-1.32-.11-2.76-.13-1.11-.01-.74.04-.82.07Z"/><path d="m41.32,5.25c-.25,0-.51,0-.77,0l-.1.06c1.09,0,2.43.02,2.91-.04l-2.04-.03Z"/><path d="m139.46,7.38c.37.08,1.65.1,2.93.13l-.09-.06c-.96-.02-1.9-.05-2.84-.07Z"/><path d="m122.14,6.54c-.19-.01-.38-.02-.56-.03h-.51c.23.02.51.03.69.04.18,0,.26,0,.39,0Z"/><path d="m74.01,5.53l-2.09-.03c.26.02.46.05.81.06,1.01.02,1-.02,1.28-.03Z"/><path d="m128.8,6.89l.87.08c1.36,0,.3-.04-.87-.08Z"/><path d="m142.31,7.44c.49.01,1.2.05,1.19.02,0,0-.35-.03-.53-.03-.82-.03-.59,0-.66.02Z"/><path d="m118.94,6.57l-.13.09c1.16,0,1.26-.02.13-.09Z"/><path d="m94.37,5.92s.16.02.29.02c-.02-.01-.16-.02-.29-.02Z"/><path d="m38.6,5.31l-.04.03,1.86-.03c-.59,0-1.21,0-1.82,0Z"/><path d="m126.07,6.83l-.2-.02c.08,0,.15.01.2.02Z"/><path d="m142.84,7.52l.26.04c.78,0,.62,0-.26-.04Z"/><path d="m103.75,8.01c1.09-.09,2.8-.2,1.54-.24-.54-.02-1.18-.03-2.31,0-1.67.05-1.86.11-2.08.16.87.03,1.3.07.56.16-.34.04-.25.07.73.04,1.18-.03,1.37-.08,1.55-.12Z"/><path d="m27.08,10.7c2.41-.09,1.61-.14,1.82-.2-.89.02-2.15.09-2.28.03-.06-.03-.94-.04-1.73,0-.81.04-1.56.11-1.85.15-.48.08,1.09,0,1.58,0,.96.01,1.65.02,2.46.03Z"/><path d="m73.36,8.87c-1.65-.11-4.69.05-7.56.19,2.11.02,4.49-.02,7.56-.19Z"/><path d="m75.6,8.78l-.93.04c-.16.02-.25.03-.48.04-1.73.1-2.88.19-1.09.2.47,0,1.75-.02,1.53-.05-.52-.06,5.17-.29.97-.24Z"/><path d="m95.51,8.05l-2.6.07s-2.19.19.11.14c1.71-.04,2.9-.14,2.49-.21Z"/><path d="m83.22,8.53h-2.9c.07.04-1.49.14-.16.13,1.06,0,2.2-.06,3.06-.13Z"/><path d="m32.62,10.33c.53,0,.84,0,1.15,0,.33-.02.66-.04.98-.06-.28,0-.53,0-.84,0-.32.02-.69.04-1.29.07Z"/><path d="m78.37,8.6l-2.5.11c-.12,0-.24.02-.36.03l.12.03c1.12-.05,2.77-.09,2.75-.17Z"/><path d="m97.81,7.97c-.74,0-1.48-.01-2.24.08l2.24-.08Z"/><path d="m38.06,9.97c.26,0,.38,0,.51-.02-.09,0-.19,0-.51.02Z"/><path d="m177.9.72c-1,.02-2.16.03-2.76.08-.45.11-3.49.08-4.7.17-.46.03-2-.05-2.67.04-.41.05,1.09.07,2.02.09.95.02,1.69.02,3-.04,1.65-.07,3.57-.13,5.05-.05.89.05,2.49-.02,3.42-.06,1.64-.07.31-.07-.64-.09-1.51-.02-3.01-.05-2.72-.14Z"/><path d="m143.69,1.64c.07-.03-.19-.06.64-.1.21-.04,2.42-.09,1.33-.13-.38-.01-1.26-.02-1.84,0-1.93.04-.65.08-1.07.13-.23.02-.41.05-.77.07-.69.04-2.72.1-1.96.13.88.03,2.34-.07,3.67-.08Z"/><path d="m150.26,1.39c.19,0,.38,0,.56,0l.52-.04c-.23,0-.5,0-.69,0-.17,0-.26.02-.39.03Z"/><path d="m195.02.52h.9c-.29,0-.6,0-.9,0Z"/><path d="m200.89,9.84c.18.03.24.06,1.45.11-.16-.03-.74-.07-1.45-.11Z"/><path d="m234.75.16h-1.85s.4.11-.17.13c-1,.03-1.9.06-1.56.11.16.02.71.01.93,0,.8-.05,3.46-.04,2.75-.14-.23-.03-.09-.07-.11-.1Z"/><path d="m240.11.25c-.57-.03-.6-.08-1.9-.08-.18,0-.63.03-.58.04.25.05,1.5.04,2.48.04Z"/><path d="m260.86.66c-.28-.06-.54-.09-.8-.11,0,.04-.18,0,.87.19l-.07-.08Z"/><path d="m224.87.38l-.21.06c1.07,0,.91-.04,1.05-.06h-.84Z"/><path d="m229.28.25l.32.04c.87-.03-.02-.03-.32-.04Z"/><path d="m170.23,8.4c2.25.12-.37.11,2.83.26,1.16.05,1.98.07,2.59.08,1.29,0,2.87.03.48-.14-3.77-.27-3.94-.13-5.9-.2Z"/><path d="m185.38,9.03c-1.3-.06-3.37-.21-3.26-.13.04.03.56.1,2.03.16,1.43.05,3.52.12,3.6.1.16-.05-1.7-.08-2.36-.13Z"/><path d="m183.96,9.15c1.02.08,1.64.14,2.38.18.93.05,2.59.13,2.66.09.04-.02-.57-.08-1.56-.13-1.07-.04-2.1-.09-3.48-.14Z"/><path d="m196.36,9.6c.12.02.12.05,1.07.09.29.01.46,0,.68,0l-1.75-.1Z"/><path d="m180.38,8.88c.29,0,.11,0-.07-.01h.07Z"/><path d="m194.64,9.48l.41.02.41.02c-.27-.03-.55-.04-.82-.04Z"/><path d="m137.93,6.67c.19.05,1.13.04,2.44-.02,1.67-.08,1.01-.12,1.17-.17-1.62.05-1.68.16-3.6.19Z"/><path d="m117.13,7.61c-.05-.05.46-.13-1.75-.07.14.04-.3.1.75.1l1-.04Z"/><path d="m137.91,6.67h-.2c.07,0,.14,0,.2,0Z"/><path d="m100.19,2.11l-1.64.02c.29.02-.55.08.77.06.75-.01.93-.05.88-.08Z"/><path d="m78.03,2.53c-1.48.03-3,.05-2.99.14,1.1-.04,2.33-.08,2.99-.14Z"/><path d="m162.24,5.88c-1.83.09-3.72.22-4.21.09-.22-.06-2.55.05-3.88.08.73.05,1.31.12,2.23.16,1.96.09,5.53,0,8.45-.25.36-.03.54-.07.99-.09,1.66-.1,1.77-.23.11-.2q-.69.01-1.08.1c-.18.04-.13.09-1.39.14-.38.01-.81-.01-1.22-.02Z"/><path d="m175.88,5.24l-.98.04c-1.73.2.97.19.89.31l2.72-.18c.25-.12-3.34-.02-2.62-.17Z"/><path d="m171.34,5.82c.99-.04,2-.08,2.73-.14-.03,0,0-.01-.09-.01-1.22.01-1-.11-2.49-.03-2.2.12.26.1-.15.18Z"/><path d="m166.52,5.91c-.26.02-.56.04-.54.05.08.02.28.03.43.04.12-.01.33-.03.33-.04,0-.02-.13-.03-.23-.04Z"/><path d="m153.44,6.47c.6-.01,1.21-.02,1.34-.06-.57.01-1.37,0-1.34.06Z"/><path d="m156,6.37l.37-.03c-.16.01-.32.02-.37.03Z"/><path d="m209.54.63l2.56-.03c.76-.14,5.05-.15,6.44-.27-.14-.04.22-.11-1.83-.08.87.06-.62.1-1.57.13-1.15.03-1.7,0-2.14-.04l-2.6.02c-4.88.18-4.97.21-.86.27Z"/><path d="m213,.34c.43.03.98.07,2.14.04.95-.03,2.44-.07,1.57-.13-1.4.02-3.14,0-3.71.09Z"/><path d="m200.25.52c2.46.14,3.25-.06,4.85-.09-1.97-.04-3.43.02-4.85.09Z"/><path d="m195.01.52h.93c-.31-.04-.62-.04-.93,0Z"/><path d="m210.01,3.75c-1.78.08-1.86.13-2,.18.27.06-.66.08-1.65.11-.55.09-.16.16-2.71.29-.52.11,2.28-.04,2.68,0,3.6-.27,3.89-.43,3.68-.58Z"/><path d="m181.19,5.09l-1.14.06c.64,0,.8-.03,1.14-.06Z"/><path d="m5.01,4.84c.43-.05.55-.09.66-.13-.91.05-1.82.1-2.73.15-.45.03-.91.06-1.36.11l-.34.04-.18.03s-.06.01-.11.04c0-.01-.07.06-.06.11,0,.04.03.07.06.1.04.03.05.02.07.03.25.05.47.05.7.07,1.64.05,1.68-.01,1.75-.05-.49-.01-1.03-.03-1.52-.04-.25-.01-.48-.02-.69-.05-.09-.01-.23-.03-.25-.06.08-.03.16-.03.23-.04,1.25-.16,2.51-.22,3.76-.3Z"/><path d="m1.72,5.39c-.23-.01-.45-.02-.7-.07-.03-.01-.03,0-.07-.03-.03-.02-.06-.06-.06-.09,0-.05.06-.12.06-.11.05-.03.08-.03.11-.04l.18-.03.34-.04c.45-.05.91-.08,1.36-.11l2.72-.15.07-.07-3.14.16c-.54.05-1.02.05-1.61.17l-.05.02s-.03-.02-.11.12c-.07.23.17.3.14.28.07.02.09.02.14.03l.21.02.4.03.79.03-.77-.13Z"/><path d="m5.01,4.84c-1.26.08-2.52.14-3.76.3v.08c1.22-.15,2.47-.2,3.7-.27l.06-.11Z"/><path d="m22.41,5.23s-.13-.07-1.13-.08c-.45,0-1.05.03-1.58.05.64.04,1.71.03,2.71.03Z"/><path d="m1.24,5.15c-.07,0-.16.01-.23.04.01.03.16.05.25.06.21.02.44.04.69.05.49.01,1.03.03,1.52.04-.28-.03-.7-.04-1.18-.06-.24-.01-.5-.02-.76-.03-.2-.02-.77-.04-.28-.1Z"/><path d="m11.55,5.49s.85-.04.05-.06c-.09,0-.34,0-.42,0-.52.02-.22.04.37.05Z"/><path d="m245.99,2.13c-1.52.11-2.89-.05-4.51.24-.25.16,3.04-.09,4.56-.14-.02-.03-.04-.06-.05-.1Z"/><path d="m227.11,3.18l.37-.02c-.11,0-.23.02-.37.02Z"/><path d="m246.04,2.23h.2c-.07,0-.14,0-.2,0Z"/><path d="m38.6,5.31h1.84s.1-.05.1-.05c-1.29-.01-1.91,0-1.94.05Z"/><path d="m67.63,2.8c-4.61.04-5.14.16-5.15.29l.99.12c3.43.01,5.38-.17,8.04-.26.32-.12.09-.22-3.89-.15Z"/><path d="m23.98,4.17h-.39s.17.02.39,0Z"/><path d="m75.87,8.71h-.64c.1.02.19.02.28.03.12,0,.24-.02.36-.03Z"/><path d="m32.76,3.94c-.31,0-.63,0-.95,0,0,0-.17.01-.26.02.39,0,.79-.01,1.21-.02Z"/><path d="m84.12,2.74h1.73c-.12-.04-.2-.09-1.73,0Z"/><path d="m5.67,4.71l-.35.12c.89-.04,1.88-.09,2.03-.14.15-.05-.71-.02-1.68.02Z"/><path d="m215.52,3.58c-.1.04-.13.08.75.06-.1-.03.3-.09-.75-.06Z"/><path d="m219.91,3.58h-.19c.07,0,.13,0,.19,0Z"/><path d="m212.78,3.83c.19.02.18.05.62.05.58,0,1.13-.06.94-.07-.37-.02,1.47-.18-1.3-.06l-.26.08Z"/><path d="m212.78,3.83l.26-.08c-1.37.08-1.26.1-.26.08Z"/><path d="m253.34.31c-.13,0-.24-.02-.39-.03-.02,0-.32,0-.34,0-.04,0,.01.02.03.03h.7Z"/><path d="m134.59,1.6l-.36.02c.13,0,.27-.01.36-.02Z"/><path d="m31.55,10.55l-1.4.07h.35c.37-.02.74-.05,1.05-.07Z"/><path d="m260.17,1.4c.3-.05.54-.05.92-.2-.14.05-.22.05-.32.07-.21.06-.41.1-.61.14Z"/><path d="m260.78,1.27c-.4.08-.78.12-1.17.16.08.01.32,0,.56-.03.2-.04.4-.08.61-.14Z"/><path d="m206.36,4.04c.99-.02,1.92-.05,1.65-.11l-1.65.11Z"/>
                  </g>
                </mask>
              </defs>
              <path class="mask" d="m0,11.48c40.26-1.04,96.69-2.74,164.33-5.61,56.96-2.41,96.89-4.1,96.7-4.97C260.57-1.31.78,3.93.99,5.19c.12.7,80.42-1.6,196.86,4.55,19.55,1.03,36.33,2.1,49.36,2.99"
                    mask="url(#path-mask)" stroke="black" stroke-width="2" fill="none"
                    stroke-dasharray="767.87353515625" stroke-dashoffset="767.87353515625">
              </path>
            </svg>
        