
            <svg xmlns="http://www.w3.org/2000/svg">
              <defs>
                <mask id="path-mask">
                  <g fill="white">
                    <path d="m150.27,8.85c-3.73-.02-1.36.1-2.1.15l-2.68-.08c-2.19-.09-4.74-.19-6.83-.28-4.28-.21-12.31-.25-15.74-.11-2.35-.04-3.84-.03-4.83.01-3.13-.08-7.79-.01-10.2-.14-.66-.08-3.41-.16-1.11-.23,1.66-.04,3.47-.06,6.14,0,2.21.06,4.21.07,5.46.01l2.07.02c2.57-.02,6.06.24,8.06.07.8.01,2.29.04,2.32.04,2.03-.15,6.78-.01,10.89.07l.06.05c-1.13,0-.9.02.37.04.2,0,.42,0,.64,0l.13.07c-.35,0-.78,0-1.13-.01-.34,0-.6,0-.59.01,0,0,.5.03.76.03,1.19.02.85-.01.98-.03l4.07.03c.33,0,.67,0,1.01.01-.5.03-3.84.01-.9.1,3.11.1,4.17.05,4.8,0,.59-.06,1.91-.05,4,.03.2.1,3.21.13,5.29.18l-.1.03c-1.96.02-.43.05,1.26.09,2.28.11,2.5.02,3.93.05l.29.02-.33-.02c.13-.06-.72-.15,3.43-.04,2.59.07,4.8.1,4.36,0l2.57.05,2.25.17c-1.4-.03-2.01-.02-2.13.01-1.68,0-1.82.03-.18.1,2.23.06,2.96.11,2.16.15-.37.02-.89.04.58.08.43,0,1.11.02,1.69.03.57,0,1.03,0,1.03,0-.27-.16,5.63-.02,7.93-.04.47,0,.67-.02.99-.04l.41-.03c5.26.14,10.78.35,15.52.38,1.2,0,2.87.1,4.05.16,2.14.11,3.59.14,4.76.12l10.13.42.18.05c.28.08,1.9.16,3.96.23,1.59.05,1.07-.02,1.19-.05,5.63.21,11.26.41,17.16.63l-.23-.02c.08-.01-.38-.06.74-.01.32-.01.44-.04,1.88.03-.51.08,2.3.22,4.59.35,4.93.26,10.65.6,14.98.77,2.99.12,5.01.23,7.92.41,1.76.11.79-.02.94-.05,2.83.18,5.64.35,8.48.63l.54.07.27.04.15.03.09.02.07.03s.03-.04.18.17c.08.18.03.29-.1.42-.17.1-.11.05-.15.07l-.11.02h-.15s-.28.02-.28.02h-.54s-2.12.02-2.12.02l-4.24.02.03-.07c1.12-.05.85-.09.3-.13-.95-.08.49-.12,3.52-.13l2.67-.05c.2,0,.4-.01.61-.02.08,0,.26-.04.24,0-.08-.03-.19-.05-.29-.07-.41-.06-.82-.1-1.2-.14-.76-.07-1.42-.11-1.77-.11.97.09,1.95.17,2.91.31.04.01.11.03.18.05.03.01.07.02.11.03h.01s0,.03-.04-.04c0-.05-.02-.1.03-.13.06-.02,0,0,0-.01-.14.01-.34,0-.43,0-.1,0-.12-.01.03-.03.07,0,.18-.02.34-.03h.04s.02-.01.02-.01c-.05,0-.14.11-.11.18,0,.04.03.11.07.13.03.02,0,0,.01.01,0,0,0,0,0,0h-.06c-.1-.03-.22-.05-.35-.07-1.14-.19-2.33-.28-3.55-.33l-4.21-.29c-1.72-.24-5.13-.53-8.87-.8-2.65-.06-6.53-.21-7.09-.11-3.7-.2-7.39-.4-11.14-.53-.09-.05.33-.08-.39-.14-.96-.08,2.93.03-.6-.13-2.44-.11-1.97-.03-1.7.03.12.03.13.11-1.45-.04-2.9-.26-2.3-.05-4.82-.18-.38-.04-.66-.08-1.16-.1-1.46-.07-1.44-.03-1.84-.02-4.74-.2-9.35-.32-14.38-.56-2.62-.13-4.02-.07-4.8-.02l-23.24-.75s.26-.04.01-.07c-.71-.08,3.01-.08-1.01-.21-3.55-.11-.49.09-1,.13-.15.01-1.33-.01-2.04-.02-6.55-.1-13.63-.3-20.43-.46-1.98-.05-5.2-.03-6.77-.18-1.8-.15-13.53-.52-17.31-.54Zm22.51.61l.74-.02c-.34-.01-.73-.02-.99-.03-.26,0-.37,0-.56.01.28.01.55.03.81.04Zm38.63.95c.15,0,.35.01.53.02-.02-.02-.23-.02-.53-.02Z"/><path d="m117.82,2.07c-8.68.23-17.26.23-25.88.45-1.16-.18-6.73.09-10.33.17-.73-.02-.64-.16-4.49.09-2.33.14-5.7.33-8.69.51-2.4.13,4.96-.59-3.81.11-1.29.08-3.09.24-3.28.19-.09-.03-1.35.03-2.49.13-1.17.1-2.24.25-2.65.32-.68.12,1.57-.11,2.27-.14,1.38-.06,2.38-.1,3.53-.16-.7.11-3.86.33-3.68.39-.97.03-3.15.22-5.09.41-1.94.18-3.63.35-3.63.28,0-.08,2.72-.43,3.88-.63,1.2-.21,6.43-.7,10.59-.97,1.88-.11,3.66-.21,5.52-.32,1.8-.11,4.02-.16,5.33-.3,1.41-.14-3.57.16-2.66.04,2.86-.21,5.87-.41,9.2-.44.26.11,1.13.18,6.11-.06,3.7-.17,8.38-.16,11.95-.32l1.37-.03h2.61c4.39.06,9.1,0,14.22-.21,3.04.04,6.47.02,10.89-.14l1.88-.04c-.22.01-.37.02-.69.04-2.49.1-4.15.18-1.58.21.67,0,2.52,0,2.2-.04-.75-.07,7.45-.28,1.43-.27,1.62-.05,4-.08,3.96-.17l2.81-.06c.1.04-2.15.14-.23.13,1.52,0,3.16-.06,4.4-.13l1.77-.04c3.64-.07,3.87,0,4.39.07.3.04,1.16.05,2.9.01.65-.02,1.66-.06,1.86-.08.57-.06-.84-.04-1.95-.03-4.01.03,3.22-.22-.27-.21.87-.1,3.11-.14,5.22-.2l.03.05c-.04.05-3.16.2.16.14,2.46-.04,4.18-.15,3.68-.22l3.22-.08,4.46-.03c1.25.03,1.87.08.81.17-.49.04-.37.07,1.05.04,1.71-.03,1.97-.07,2.23-.12h2.4s.06.1.06.1c-4.06.07-8.63.23-11.35.15-1.04-.03-2.53.04-2.78.1-.18.05.15.08-1.57.15-7.03.27-14.27.46-21.71.55-4.53-.04-13.96.16-19.61.42Zm-46.21.87c.48-.03.94-.07,1.41-.1-.4.01-.77.02-1.21.04-.46.03-.99.07-1.86.13.76-.03,1.21-.05,1.66-.06Z"/><path d="m.53,16.59c-.06.07-.07.08-.05.11.03.04.1.09.18.13.16.08.34.13.51.18.35.09.69.15,1.01.2.64.1,1.2.17,1.71.24,1.02.12,1.84.21,2.71.31.86.08.29.15,2.99.25,2.18.07,1.68-.02,1.27-.09-.39-.07-.6-.13-.88-.2,2.66.11,5.31.18,7.97.23.03.06-.9.12,2.71.18,2.73.04,3.98.08,3.88.16-.3.04-3.49,0-1.92.09.55.03,1.82.07,2.65.08,2.78.02.94-.07,1.55-.1.34-.02.6-.03,1.11-.05,1-.02,3.92-.03,2.83-.08-1.26-.06-3.36,0-5.28-.02v-.11c7.56.04,14.9.08,22.14.11-1.19.12-1.95.26-8.18.17-1.03-.02-2.69-.01-3.11.03-.45.05.84.06,2.25.07.46.06.92.12,1.2.18l-2.06.03,1.66.05c-4.93.07-9.53.04-13.86-.1-1.13-.08-3.33-.19-5.6-.16-4.34.07-12.16-.39-15.06-.46-1.05-.11-2.12-.22-3.2-.42-.27-.06-.54-.11-.82-.2-.14-.04-.28-.1-.44-.18-.08-.06-.16-.09-.26-.21-.1-.08-.18-.36-.09-.52.15-.3.31-.34.44-.44.14-.08.27-.14.41-.2.27-.11.53-.2.8-.28,2.13-.62,4.29-1,6.43-1.37-.15.15,3.13-.37,5.87-.79,2.45-.38,3.9-.55,5.74-.75-.63.19-4.98.68-6.69,1.01-.65.12-2.86.34-3.81.58-.58.14,1.57-.16,2.9-.31,1.36-.16,2.42-.3,4.28-.6,2.35-.37,5.08-.75,7.21-.88,1.27-.08,3.56-.4,4.89-.57,2.34-.3.44-.13-.93,0-2.17.19-4.31.39-3.91.25l1.37-.2c2.44-.14,7.11-.71,11.08-1.1,1.54-.15,5.09-.55,4.06-.31-.25.06,4.56-.46,4.7-.5.28-.1,1.57-.22,3.32-.37l1.29-.11c2.4-.24,5.25-.53,4.28-.3-1.2.18-1.16.18.88.03.9-.06,2.09-.14,2.29-.14.69.02-2.94.3-3.51.4-3.66.33-7.53.76-10.65.91-.8.04-3.13.32-2.98.32.64-.01-4.41.51-.84.22-.15.05-.54.09-2,.24-4.78.46-9.58.92-14.43,1.57-.72-.19-6.14.7-9.28,1.15-3.64.55-6.33,1.03-10.12,1.86.43-.15,1.32-.38,1.32-.41,0,0-.06,0-.2.02-.14.03-.35.07-.66.14-.31.07-.72.17-1.24.31-.5.16-1.22.3-1.81.73Zm14.68,1.54h-.75c.34.02.71.04.99.05.24,0,.37,0,.56,0-.28-.01-.54-.03-.8-.04Z"/><path d="m25.6,13.15c-4.56.83-10.13,2.05-14.06,3.86-.44.18-.91.38-1.4.58-.47.24-.96.53-1.46.81-1.02.54-2.02,1.26-2.96,2.12-.46.44-.89.94-1.19,1.53-.31.58-.43,1.3-.27,1.96.35,1.32,1.43,2.14,2.38,2.73,1.13.64,1.61.8,2.48,1.11,1.34.44,2.23.55,2.37.54.15-.03-.45-.13-1.91-.61-1.54-.52-2.48-1.05-3.1-1.48-.62-.44-.94-.77-1.17-1.09-.25-.32-.6-.84-.67-1.65-.07-.81.49-1.86,1.59-2.91.23-.25,1.23-1.02,1.69-1.31,2.24-1.4,4.64-2.43,7.11-3.23,1.23-.42,2.49-.72,3.74-1.09,1.27-.29,2.54-.6,3.82-.87,5.92-1.18,11.93-1.93,17.94-2.53,6.02-.59,12.05-1.01,18.08-1.38l-.03-.06c-1.02.06-1.85.11-2.08.1-1.79.13-3.93.28-5.42.38-3.56.29-7.93.64-10.77.87-.84.05-4.33.36-7.91.81-3.58.42-7.23,1.06-8.46,1.32-.41.08-.83.18-.77.17.3-.02-.12.07-.75.19-.62.13-1.45.31-1.97.42-1.25.25-2.01.41-3.08.69-.61.14-2.49.71-2.31.65.1-.08,1.18-.4,2.65-.81.76-.23,1.62-.43,2.47-.62.85-.19,1.7-.41,2.47-.56,1.54-.3,2.75-.55,2.94-.64Z"/><path d="m133.86,4.54c-3.16.11-6.91.22-8.98.39.91-.02,2.08-.05,2.7-.06,2.44-.11,4.73-.22,6.52-.18,1.47.04-.59.13-2.08.23-2.63.17-4.65.2-6.79.21-1.33,0-3.57.07-4.65.15-3.72.25-5.38.22-7.59.26-1.42.06-3.21.15-3.58.11-.07,0,.58-.07.84-.08,1.86-.08,1.92-.03,2.73-.03l3.98-.36c-2.63-.05-6.03.2-9.24.38.09.05-.12.1-2.44.22.04.03-.17.08.17.1,1.02.05-2.81.22-3.95.33-.31.03-1.1.08-1.34.07-.48-.03.8-.12,2.24-.23.81-.06.2-.1.23-.14-1.27.11-4.89.22-5.25.35.47-.01,1.75-.07.5.02l-.46-.02c-1.85.08-.73-.08-3.02.05-.81.05-1.46.16-2.18.24.03.03-.25.07-1.34.15.06,0,.13.01.2.02l1.21-.07c2.01-.06,8.33-.34-.24.19-.56.04-.82.1-1.22.14,3.7-.22,7.56-.48,10.92-.54.41,0,5.37-.35,8.69-.5.91-.09,2.04-.14,4.03-.23,5.83-.26,11.93-.39,17.5-.66,2.24.04,6.26-.19,8.63-.19,2.32,0,4.18-.02,7.05-.13,3.91-.15,5.61-.11,5.7,0l6.44-.09c-.3-.07,1.48-.13,2.76-.2-2.95-.07-6.01-.13.23-.28.8-.02.28-.05-.52-.05-2.52.09-6.21.03-8.34.13-4.9.22-3.92.07-4.58,0l-1.36.03c-.13.04-.87.08-2.42.11-.18.06-1.22.1-2.74.13l.11.06c-1.5.03-1.25,0-1.26-.04-2.93,0-7.34.12-7.81,0Z"/><path d="m98.62,8.14c-1.68,0-2.86.06-3.74.11-1.85.11-4.12.24-.67.21,5.43-.02,5.67-.1,8.49-.14l5.18.08c2.42.13,7.07.07,10.2.14l.06.08c-3-.04-6.48.02-8.72-.06-2.83-.11-5.77-.1-9.08-.1-6.5,0-13.03.35-19.56.63-6.53.33-13.07.66-19.62.99-.23-.02-.21-.06,1.41-.17l2.51-.14,1.3-.04c.4,0,.79-.03,1.18-.06,8.27-.46,9.42-.53,6.27-.51-.09,0-.12,0-.18,0-7.3.46-9.26.31-16.4.79-2.97.2-6.91.48-7.72.44,1.95-.15,4.13-.37,4.78-.38,1.24,0,3.28-.17,5.27-.29,7.1-.38,14.03-.74,21.33-1.13,5.2-.25,10.48-.47,15.8-.57,5.33-.03,10.67.04,16,.06,2.12.01,5.49.01,5.66.12-1.25.06-3.25.05-5.46-.01-2.67-.07-4.48-.05-6.14,0-2.74-.04-5.48-.09-8.16-.04Zm-13.04.59c-.06-.03-.81-.06-2.93.05-2.05.11-5.06.29-5.17.34-.23.08,2.44-.12,3.41-.14,1.87-.1,4.86-.15,4.69-.25Zm-6.1,0c-1.34.06-3.73.18-3.82.24-.05.03.83.02,2.25-.05,1.53-.08,3.03-.16,5.01-.27-1.47.03-2.37.03-3.44.08Zm7.91-.13l.78-.03h-.1c-.58.01-.61.02-.68.03Z"/><path d="m187.91.64c3.23-.04,5.75-.03,9.39.06,5.28.12,11.87.3,17.87.56,3,.13,6.21.35,9.03.45l.04-.1c-.66-.09-2.36-.26-.33-.16,6,.3,5.21.07,9.37.26-2.21-.15-4.17-.26-5.91-.33-.22,0-.41-.02-.57-.03-.23.04.71.15-1.69.03-1.89-.09-3.23-.19-3.5-.26l-.31-.03.29.03c2.78.19,2.88.08,5.18.23.14,0,.2,0,.17,0-2.63-.27-5.87-.35-8.76-.51-3.69-.08-7.58-.23-11.52-.47-1.17-.07-1.95-.12-3.27-.1-2.03.04-4.97-.05-7.8-.12-4.05.05-2.18.16-1.2.27.26.03,1.11.07-.32.07-1.22,0-1.93-.03-2.43-.06h-1.44c.76.08-3.09.13-2.29.21Z"/><path d="m97.17,18.08c2.56.02,5.23.02,8.76-.09,4.4-.18,9.08-.29,14.06-.29.94-.07,2.72-.11,4.3-.16l2.64-.02c-.32-.03-.8-.08-.92-.08-4.83.12-8.08.04-12.73.14-3.39.07-6.48.12-7.4.02-.03,0-.37,0-.56,0-.64.02-1.28.05-1.92.07.57.12-2.85.17-5.46.2-8.57.11-17.18.31-25.87.34-5.24.02-5.53.05-3.03-.11.75-.06,1.26-.1,1.88-.15-4.98.09-10.77.07-14.79.24.94,0,1.85,0,2.82.01,1.6,0,3.9-.11,4.6-.03.29.03-2.23.12-3.82.16-.85.01-2.45.03-3.71.04-1.06.01-2.21.02-2.72.05-.66.05.44.06,1.53.08,1.72.02,2.18.09,4.84.07,3.37.05,7.07.05,11.5-.04,5.06-.17,10.97-.25,16.92-.33-.08-.03.18-.07,1.26-.09,1.89-.03.69.04,1.1.06,2.51-.15,5.11-.32,6.72-.09Z"/><path d="m65.09,9.78l1.3-.04.59-.03.59-.03c8.27-.46,9.42-.53,6.27-.51-.09,0-.12,0-.18,0-7.3.46-9.26.31-16.4.79-2.97.2-6.91.48-7.72.44-2.15.19-5.99.5-7.6.72,2.06-.14.05.13-1.03.24-3.16.31-1.24.05-1.69.05-.09,0,0-.02,0-.03-2.42.16-6.52.75-9.22,1.08-1.65.29-3.12.51-4.38.69-.2.09-1.41.34-2.95.65-.77.15-1.62.37-2.47.56-.85.19-1.71.39-2.47.62-1.47.41-2.55.74-2.65.81-.18.06,1.7-.51,2.31-.65,1.07-.29,1.83-.44,3.08-.69.52-.11,1.35-.29,1.97-.42.63-.12,1.05-.21.75-.19-.07,0,.36-.09.77-.17,1.22-.26,4.88-.9,8.46-1.32,3.58-.45,7.07-.76,7.91-.81,2.84-.23,7.21-.58,10.77-.87,1.48-.1,3.63-.26,5.41-.38,1.74-.13,1.82-.1,2.08-.1l.03.06,2.56-.15c-.23-.02-.21-.06,1.41-.17.32-.03.55-.07.97-.09,1.36-.08,1.36-.05,1.54-.04Z"/><path d="m244.84,2.62l.08.05c1.04.17,1.86.33,3.16.53,2.78.42,7.9.93,12.09,1.29.52.04.79.05,1.43.11,2.38.26,2.56.16.2-.19q-.99-.14-1.56-.13c-.27,0-.2.06-2-.14-.55-.06-1.16-.17-1.74-.26-3.39-.39-3.16-.44-3.92-.59,3.88.34,7.84.77,11.82,1.33-1.66-.1,2.25.43,4.07.83.67.1,1.34.2,2.01.38.08.03.17.05.25.09.08.05.18.05.28.22.03.07.02.14-.02.2-.03.04-.07.07-.1.08-.06.03-.1.04-.15.06-.09.02-.18.04-.27.05-.35.05-.69.07-1.04.09-.69.03-1.37.04-2.05.04-.06-.01-.08-.02-.05-.03,2.5-.12-1.38-.25-1.25-.39.82.01,1.65.02,2.47.01.04,0,0,.01.13.02.87,0,1.23.03,1.63.02.1,0,.2,0,.31-.03.05,0,.11-.02.16-.04.04,0,0-.03.06,0-.02,0-.04,0-.02,0l-.03-.02c-.21-.15-.6-.25-1.12-.37-3.1-.58.34.18-.27.13-.48-.08-.97-.14-1.45-.19-5.89-.97-11.99-1.53-17.81-2.16l-2.53-.23-.1-.08.54.03-.7-.05-1.59-.14c-.81-.08-1.95-.21-1.93-.15l-2.58-.18.36.02.39.04c-1.76-.23-6.15-.55-7.39-.77-.58-.11-6.14-.37-9.16-.49-.5-.01-.82-.02-1.23-.03-.66-.09-2.36-.26-.33-.16,6,.3,5.21.07,9.37.26,4.01.23,7.87.54,11.57.92Zm16.98,2.12c.11.03.39.09.61.14.17.01.48.04.48.03.01-.02-.18-.06-.31-.09-.37-.03-.81-.08-.78-.07Z"/><path d="m105.27,5.79c2.32-.12,2.53-.18,2.44-.22l-2.17.09-1.67.09c-4.17.18-8.2.36-12.62.66-1.8.12-4.41.28-6.57.38-2.36.1-6.83.39-7.59.46-8.01.66-15.76,1.19-23.45,1.77-2.82.22-4.6.43-6.91.64-11.8,1.09-23.6,2.27-35.34,4-1.26.19-2.55.38-3.27.55-.15.15,3.13-.37,5.87-.79,2.45-.38,3.9-.55,5.74-.75.85-.16,2.51-.35,3.94-.53l1.37-.2c2.44-.14,7.11-.71,11.08-1.1,1.54-.15,5.09-.55,4.06-.31-.25.06,4.56-.46,4.7-.5.28-.1,1.57-.22,3.32-.37.42-.07.87-.11,1.31-.12,2.38-.24,5.23-.53,4.24-.3.65-.05,1.3-.11,1.95-.16,2.03-.22,4.13-.44,6.95-.59,2.33-.27,4.6-.55,7.61-.58l3.73-.26c.8-.14,3.3-.29,5.32-.42,2.95-.2,2.44-.1,2.64-.06,3.4-.35,6.82-.51,10.24-.62.72-.08,1.37-.19,2.18-.24,2.29-.13,1.17.03,3.02-.05.32-.12,3.94-.23,5.21-.34l2.65-.13Z"/><path d="m244.09,5.42c-1.83-.13-3.84-.24-6.57-.27,1.55.11,3.07.23,1.23.24-1.45,0-2.54-.13-4.1-.16-2.04-.19-3.21-.15-4.57-.13-1.55.02-3.06,0-4.11-.14-3.68-.09-3.12.02-3.78.08.55.1,3.52.21,4.96.32,2.45.15,5.7.27,8.8.34,2.33.05,4.34.12,6.58.22,2.28.04-.08-.18,3.87-.04,2.92.11,2.44.18,2.89.25l2.6.09c-.18-.06-.53-.13-.49-.18.01-.02.32-.02.76,0,.44.01,1.02.03,1.58.05.97.04,1.71.09,1.15.09-.83,0-3.11-.04-.7.08.6.03,2.72.04,4.14.06.45,0,.69-.02,1.6.04l-1.64-.05c.98.18,4.23.28,7.64.31,1.05-.09-4.13-.28-3.76-.39-5.6-.12-5.53-.22-5.1-.31-2.25-.06-4.09-.21-6.41-.26.33.14-2.16.15-6.03,0-5.37-.22,1.74-.05-.11-.18-.26-.02-.3-.03-.44-.05Z"/><path d="m238.63,14.98l2.11-.03,4.09-.1,1.5-.03s-.08-.02-.13-.03c-.89,0-1.33-.01-.57-.05.11,0,.48-.01.6-.01,1.16,0-.07.04-.07.06,2.13-.03,3.71-.07,4.7-.14,1.58-.11,3.62-.15,5.25-.16s2.86.03,2.81.05c-.32.14,3.06.08,5.51.08,3.09-.09,6.14-.18,9.27-.27,1.37-.05,4.01-.04,3.26-.11-.62-.06-3.49.01-4.21.01-2.24-.03-5.71.2-6.97.07-1.71.01-3.73.05-3.99-.02-1.44.02-2.97.05-3.9.02-3.16.03-6.35.07-9.48.1-6.2.07-11.57.26-17.84.36v.08c1.54-.04,3.14-.08,3.94-.04-.1.05-.15.1-2.5.15l1.11.08,5.51-.09Z"/><path d="m162.24,4.11c.8,0,1.32.04.52.05-6.24.15-3.17.21-.23.28l2.41-.03-.05-.11h-.3s.28,0,.28,0c2.18.02,6.93-.08,6.56.08,3.62-.02,6.91.12,10.95.03.58-.01,3.11.04,3.23.11l3.82.04c1.66-.08,6.49-.05,5.56-.2.05,0,.83,0,1.28-.01,2.83.25,4.03,0,6.26.08-.01-.01,0-.02,0-.04-6.54-.3-8.1-.13-10.4-.03h-.5s.53,0,.53,0c-.66-.01-1.59-.03-2.36-.05-.39,0-.73-.02-.99-.02-.25,0-.41-.01-.42-.02-.65-.28-5.43-.14-9.3-.13-4.03,0-8.68.07-12.24-.03-1.75-.02-1.49-.12-4.54-.08l-.08.08Z"/><path d="m172.38.6h2.4c5.86-.1,5.78.03,5.17.16,1.93.01,1.83-.06,2.77-.08-1.73-.14,1.13-.34,6.45-.38-1.22-.08-1.32-.17,0-.26-1.35-.09-2.47-.03-3.64.02.78.01.97.04-.08.05-1.44.02-1.2-.02-1.35-.05-3.1-.1-7.66.07-10.96.14-5.4.12-11.29.21-16.4.43l.03.05,3.75-.07c1.18-.09,2.25-.09,3.31-.08l4.46-.03c.32-.06.59-.12,3-.16,1.62-.03,2.55-.01,3.32.01,1.8.05-.65.15-2.23.25Z"/><path d="m265.78,14.33c1.26.13,4.73-.09,6.97-.07.72,0,3.59-.07,4.21-.01.75.07-1.89.06-3.26.11-3.13.09-6.18.18-9.27.27l1.12.05,1.5-.02c4.17-.17,9.47-.19,14.16-.23,1.12-.05.85-.09.3-.13-.95-.08.49-.12,3.52-.13l.06-.04c.04-.05.94-.07,2.79-.08.19,0,.38,0,.56-.02.02,0,.04,0,.06,0,0,0,.08-.03,0,.02-.01.03-.02.07.01.11.02.02,0,0,0,0,0,0-.03,0-.05-.01-.08-.02-.17-.03-.26-.05.04.01.11.03.18.05.03.01.07.02.11.03h.01s0,.03-.04-.04c0-.05-.02-.1.03-.13.06-.02,0,0,0-.01-.14.01-.34,0-.43,0-.1,0-.12-.01.03-.03.07,0,.18-.02.34-.03.02,0,.03,0,.04,0h.02s-.14.1-.11.17c0,.04.02.11.06.14.04.03.01,0,.02.02,0,0,0,0,0,0h-.06c-.1-.03-.22-.05-.35-.07l.1.05c.11.02.23.04.3.06h0s-.07-.03-.1-.12c-.02-.09-.02-.12.01-.19.03-.07.12-.11.12-.1h0s-.02,0-.02,0h-.15s-.68.03-.68.03h-1.39s-2.78,0-2.78,0h-5.56c-3.71.01-7.42.1-11.14.17,1.19.06,3.39.12-.99.25Z"/><path d="m159.41,16.83c1.53-.04,1.4.11,4.13-.07,2.04-.14,3.98-.07,6.02-.15.57-.16,3.34-.2,6.24-.22,2.46-.02,4.49-.09,6.35-.19,1.92-.1,2.77-.18.73-.19-2.74.06-5.25.07-8.18.18-9.14.33-10.14.35-17.47.42-.18,0-.52,0-.57,0-3.73.23-9.41.18-13.21.4.36.06.41.12,2.99.09.09-.05.7-.07,2.46-.11,3.72-.06,7.2-.12,10.52-.17Z"/><path d="m265.78,14.33c4.38-.13,2.18-.18.99-.25-2.89,0-4.82-.04-8.96.12-2.98.12-8.94.13-13.71.2-6.42.11-13.15.23-19.63.35-2.84.04-4.73.08-4.41.18.31.09,2.6.04,5.17-.03,1.78-.04,3.56-.08,5.34-.12,6.27-.1,11.64-.28,17.84-.36,3.13-.03,6.32-.07,9.48-.1.76-.03,1.62-.07,2.27-.08,1.44-.02,1.58.03,1.63.06.26.06,2.28.03,3.99.02Z"/><path d="m192.13,4.37c2.3-.1,3.86-.27,10.4.03l5.24.05c1.39,0,2.84,0,2.48-.06-2.45-.15-5.66-.14-8.35-.18-10.26-.16-20.51-.29-30.84-.2-2.76.02-3.15.06-4.2.11,3.56.1,8.21.04,12.24.03,3.87,0,8.64-.14,9.3.13.01,0,.17.01.42.02.25,0,.6.01.98.02.77.02,1.69.03,2.33.05Z"/><path d="m70.91,17.95c-.62.05-1.13.09-1.88.15-2.5.17-2.21.13,3.03.11,8.69-.04,17.31-.23,25.87-.34,2.61-.03,6.02-.08,5.46-.2-4.86-.05-10.17.05-16.02.21-3.77.1-6.65.11-5.92-.04-3.79.11-6.94.05-10.54.1Z"/><path d="m143.44,17.02c3.8-.22,9.48-.17,13.21-.4.05,0,.39,0,.57,0,7.33-.07,8.33-.09,17.47-.42,2.93-.1,5.45-.12,8.18-.18-1.16-.09-2.44-.18-6.94-.12l-3.3.16c-1.22.11-3.09.15-5.74.2-3.23.08-7.13.17-9.93.24-5.64.12-10.65.38-16.03.43l1.43.12c.36,0,.71-.01,1.06-.02Z"/><path d="m209.4,15.23c-1.69.15-3.06.29,3.71.16,2.18-.04.81.04.65.07-3.33.14-7.01.18-9.39.18-6.04,0-7.41.14-8.7.3l-1.24.03c-3.97.02-10.49.12-4.3-.2,1.12-.06,1.09-.12,1.59-.18,3.42-.07,6.85-.15,10.26-.22,2.21-.04,3.87-.08,4.1-.16l3.81-.07c-.15.03-.09.06-.48.1Zm-10.9.33c-.13,0-.36,0-.68.02.19,0,.38,0,.68-.02Z"/><path d="m58.32,4.13c-.97.03-3.15.22-5.09.41-1.94.18-3.63.35-3.63.28,0-.08,2.72-.43,3.88-.63,1.2-.21,6.43-.7,10.59-.97,1.88-.11,3.66-.21,5.52-.32,1.8-.11,4.02-.16,5.33-.3,1.41-.14-3.57.16-2.66.04-6.13.21-13.74.92-20.08,1.41-2,.15-1.55.22-3.15.4-1.55.2,5.42-.44-.29.17-1.91.3-6.92.93-6.14,1,1.18-.13,2.72-.29,3.49-.35,1.92-.14,1.89.04,6.75-.6.05,0,1.76-.12,2.85-.2,3.18-.25,6.2-.5,8.87-.75-.92-.09-4.45.33-6.26.43Z"/><path d="m41.26,5.3c-1.58.17-2.72.3-3.55.35-2.07.14-5.96.59-8.99,1.1-2.71.45-5.14.93-5.43,1.08-.53.3,2.87-.2,10.47-1.24,1.86-.25,4.18-.49,6.29-.71,2.3-.36,1.4-.36-1.11-.12-2.54.24-4.85.59-6.64.91-.66.11-3.68.58-3.43.46.22-.11-1.54.08-.44-.15.68-.14,1-.24,3.06-.54,2.14-.3,3.08-.38,3.33-.35.27.02.59.02,2.97-.28,1.15-.15,2.02-.27,2.61-.35.58-.08.87-.14.86-.18Z"/><path d="m140.95,16.92c5.38-.05,10.39-.31,16.03-.43,2.79-.07,6.7-.16,9.93-.24,2.65-.05,4.52-.09,5.74-.2-4.54-.07-11.31.2-16.9.34-8.35.21-16.88.49-25.02.52l-.67.06c1.21.03,5.45.01-1.02.17-2.12.05-3.31.13.33.08,3.84-.1,6.64-.31,11.58-.3Z"/><path d="m153.34,4.74c-.09-.12-1.79-.15-5.7,0-2.88.11-4.74.13-7.05.13-2.37,0-6.38.23-8.63.19-5.57.28-11.67.4-17.5.66-1.99.09-3.12.15-4.03.23,5.37-.14,11.17-.37,17.42-.59,3.99-.14,8.04-.27,12.39-.33,3.79-.08,8.69-.19,13.1-.29Z"/><path d="m135.84,1.16l2.81-.06h4.17c.59,0,1.18-.02,1.78-.03,1.93-.07,3.85-.14,5.77-.21-3.41-.11-10.19.11-15.06.21-9.68.2-19.46.41-29.19.62l-2.6.08c4.39.06,9.1,0,14.22-.21,4.14-.11,8.52-.27,10.89-.14.63-.01,1.25-.03,1.88-.04.45-.01.89-.02,1.34-.04-.02-.03-.08-.04-.13-.05-.13,0-.27-.01-.41-.02h.93s3.61-.11,3.61-.11Z"/><path d="m264.34,12.64c-3.7-.2-7.39-.4-11.13-.53-2.96-.13-5.79-.26-7.98-.41-1.99-.08-2.99-.12-3.99-.16-4.74-.2-9.35-.32-14.38-.56-2.62-.13-4.02-.07-4.8-.02,14.27.54,28.53,1.12,42.8,1.78l-.52-.09Z"/><path d="m213.76,15.46c-3.33.14-7.01.18-9.39.18-6.04,0-7.41.14-8.7.3,9.93-.17,19.87-.31,29.79-.63,2.4-.08,3.9-.03,5.85-.08,2.69-.08,6.83-.1,7.33-.24l-5.51.09-9.04.16-10.33.23Z"/><path d="m166.28,9.09c.13-.06-.72-.15,3.43-.04,2.59.07,4.8.1,4.36,0-10.65-.31-21.29-.58-32.36-.66l.06.05.37.04c.2,0,.42,0,.65,0,1.85,0,3.69.01,4.23.1.33,0,.67,0,1.01.01l3.9.1c.59-.06,1.91-.05,4,.03,2.3.05,4.69.02,6.77.13.69.04-.35.05-1.49.05l-.1.03,1.26.09c2.28.11,2.5.02,3.9.05Z"/><path d="m194.43,15.97c-3.97.02-10.49.12-4.3-.2,1.12-.06,1.09-.12,1.59-.18-1.89.03-1.26-.02-1.38-.05l-2.54.06c.79.06-2.49.17-2.58.25l1.7-.03c-.13,0-.36.02-.37.02-.47,0-.92,0-1.37,0-2.25,0-.87-.1-1.35-.15-2.56-.03-5.18.03-7.88.19,4.5-.06,5.77.03,6.94.12,2.04.01,1.19.09-.73.19-1.86.1-3.88.17-6.35.19-2.91.02-5.67.06-6.24.22,6.54-.14,13.22-.38,19.67-.47,2.55-.03,3.89-.1,5.2-.17Z"/><path d="m129.37,17.22c-3.64.05-2.45-.04-.33-.08,6.47-.15,2.22-.13,1.02-.17-1.11.09-3.13.08-4.68.12.17.04-1.01.13-1.97.13-4.72,0-8.07.21-12.18.27-2.2.1-2.31.05-2.49,0-2.23-.02-2.78.04-3.43.1.19,0,.54,0,.56,0,.92.1,4.02.05,7.4-.02,4.66-.1,7.9-.03,12.73-.14.12,0,.61.05.92.08l5.05-.03h2.68s.31-.12.31-.12c-5.73.09-6.06-.01-5.59-.15Z"/><path d="m59.67,18.57c-2.67.03-3.13-.05-4.84-.07-1.09-.01-2.2-.03-1.53-.08.51-.04,1.66-.04,2.72-.05,1.27-.02,2.86-.03,3.71-.04,1.59-.05,4.11-.13,3.82-.16-.7-.07-3,.03-4.6.03-.98,0-1.88,0-2.82-.01-1.23-.05-2.34.02-3.51.03-1.95.04-4.03.09-3.45.15,2.24.23-3.8.27-9.22.29.66.05,3.48.02,3.7.09,4.44-.02,8.65-.03,13.14-.05,3.22-.03,2.52-.08,2.88-.13Z"/><path d="m111.22,17.49c4.12-.06,7.46-.27,12.18-.27.95,0,2.14-.09,1.97-.13-8.25.16-16.45.31-24.69.47-4.13.05-8.47.11-12.57.17-2.48.04-4.48.08-6.66.11-.72.15,2.16.14,5.92.04,5.84-.16,11.15-.26,16.02-.21.64-.02,1.29-.05,1.92-.07.64-.06,1.19-.12,3.42-.1h2.49Z"/><path d="m213.76,15.46l10.33-.23.1-.08c-1.41.03-2.65.04-2.43,0,.22-.05,1.64-.08,2.93-.11.48-.05.51-.09.54-.13-2.57.07-4.86.12-5.17.03-3.3.03-6.71.1-10.18.19-.15.03-.09.06-.48.1-1.69.15-3.06.29,3.71.16,2.18-.04.81.04.65.07Z"/><path d="m207.77,4.45l-5.24-.05v.04s.28.02.28.02l-.27-.02c-2.23-.07-3.43.18-6.26-.08-.45,0-1.23,0-1.28.01.93.15-3.9.12-5.56.2.28.04,1.44.05,2.48.06,1.37-.05,3.55,0,5.49.02,1.43.04,2.32-.09,3.08.02.81.12,3.18.09,4.5.14,2.27-.03,3.31.03,4.07.11,1.35.04,2.96.15,3.8.07l.58-.05c-1.59-.06-2.37-.14-4.6-.18-1.52-.06-.94-.09-1.07-.13-6.93-.2.92-.11-.01-.2Z"/><path d="m145.49,8.93c-2.19-.09-4.74-.19-6.83-.28-4.28-.21-12.31-.25-15.73-.11,3.19.03,6.75.07,4.5.17,6.13.1,12.25.21,18.07.22Z"/><path d="m207.78,4.65c-6.93-.2.92-.11-.01-.2,1.39,0,2.84,0,2.48-.06,3.95.07,8.13.07,11.71.31.18.01.23.02.17.03-5.2-.03-5.62.13-5.34.3l-3.33-.08c-1.59-.06-2.37-.14-4.6-.18.15-.04.19-.07-1.07-.13Zm4.14-.03c-.83-.04-1.63-.02-1.36,0,.53.05-2.13.08,1.86.16,1.99.03,1.82,0,.39-.07-.27-.03-.25-.07-.88-.1Z"/><path d="m116.95,5.18c1.21-.05,2.22-.02,3.59-.13,3.05-.25,3.34-.14,4.33-.12.91-.02,2.08-.05,2.7-.06,2.44-.11,4.73-.22,6.52-.18,1.47.04-.59.13-2.08.23-2.63.17-4.65.2-6.79.21-1.33,0-3.57.07-4.65.15-3.72.25-5.38.22-7.59.26,1.32-.12,2.64-.24,3.97-.36Zm14.49-.37s-.46.02-.48.02c-.06.01.02.02.04.03l1.01-.05c-.18,0-.35,0-.56,0Z"/><path d="m191.36,9.54c5.26.14,10.78.35,15.52.38,1.2,0,2.87.1,4.05.16,2.14.11,3.59.14,4.76.12-4.43-.27-9.81-.39-14.85-.52-6.52-.16-12.63-.47-19.21-.55-.96-.01-2.13-.04-2.56-.02,1.33.11,3.6.19,6.21.21,3.15.02,4.64.11,6.09.21Z"/><path d="m41.26,5.3s-.28.09-.86.18c-.58.08-1.45.19-2.61.35-2.38.3-2.7.3-2.97.28-.25-.02-1.19.05-3.33.35-2.06.29-2.38.4-3.06.54-1.1.23.66.04.44.15-.25.12,2.78-.35,3.43-.46,1.79-.32,4.1-.67,6.64-.91,2.5-.24,3.4-.24,1.11.12.86-.08,1.72-.16,2.57-.3-.78-.07,4.24-.71,6.15-1-1.37.1-2.62.2-2.71.15l-4.8.55Z"/><path d="m92.21,6.55c-3.42.11-6.84.27-10.24.62-2,.23-8.15.62-9.24.84l.47.09c2.25-.12,4.28-.26,6.13-.44.29-.04-.55-.02.81-.12l.42.04c.38-.02.79-.05,1.23-.07,5.3-.36,4.22-.49,9.09-.81,1.1-.08,1.37-.12,1.34-.15Z"/><path d="m265.56,14.68l-1.12-.05c-2.44,0-5.82.06-5.51-.08.05-.02-1.18-.05-2.81-.05s-3.68.04-5.25.16c-.99.07-2.57.11-4.7.14.1,0,.14.02.17.03l-.1.11c6.37-.05,12.67-.06,19.32-.26Z"/><path d="m250.7,11.47c-.51.08,2.3.22,4.59.35,4.93.26,10.65.6,14.98.77,2.99.12,5.01.23,7.92.41,1.76.11.79-.02.94-.05-6.21-.41-12.24-.77-18.78-1.02-2.83-.13-6.4-.3-9.64-.46Z"/><path d="m164.94,4.42l-2.41.03c-1.29.06-3.06.13-2.76.2,6.48-.01,13.43-.13,20,0,2.65.05,3.46-.09,5.85-.11-.13-.06-2.65-.12-3.23-.11-4.03.09-7.32-.05-10.95-.03-2.34.22-4.31-.02-6.5.03Z"/><path d="m55.71,9.09c-.65.05-1.3.11-1.95.16-1.2.18-1.16.18.89.03.9-.06,2.09-.14,2.29-.14.69.02-2.94.3-3.51.4l2.73-.15,4.26-.32,8.63-.79c-5.9.33-5.78.28,1.22-.37-3.01.03-5.28.32-7.61.58-2.3.19-3.41.48-6.95.59Z"/><path d="m39.94,18.66c5.41-.02,11.46-.06,9.22-.29-.58-.06,1.5-.11,3.45-.15-.61-.12-3.36,0-5.01-.01-1.19.12-1.95.26-8.18.17-1.03-.02-2.69-.01-3.11.03-.45.05.84.06,2.19.07h.58s-.52,0-.52,0l1.38.18Z"/><path d="m221.96,4.7c.18.01.23.02.16.03.57.07,4.6.16,3.85.23,1.04.13,2.56.16,4.1.14,1.36-.02,2.53-.05,4.57.13,1.56.03,2.65.17,4.1.16,1.84,0,.32-.12-1.23-.24-5.27-.19-10.85-.48-15.56-.45Z"/><path d="m242.01,2.89c-1.76-.23-6.15-.55-7.39-.77-.58-.11-6.14-.37-9.16-.49-.5-.01-.82-.02-1.23-.03l-.04.1c4.65.35,8.99.5,13.58.89l3.39.25c.44.03.72.05.84.05Z"/><path d="m167.58,9.39c-1.8-.15-13.53-.52-17.31-.54-3.73-.02-1.36.1-2.1.15,2.37.03,4.75.03,7,.14.49.01,2.14.06,2.24.07,3.02-.06,6.84.13,10.17.18Z"/><path d="m58.32,4.13c1.8-.1,5.33-.52,6.26-.43,1.85-.07,3.68-.22,5.51-.36,3.06-.28,7.91-.51,11.51-.64-.73-.02-.64-.16-4.49.09-2.33.14-5.7.34-8.6.51l-1.6.15h-.51s2.02-.15,2.02-.15c-2.4.13,4.96-.59-3.81.11-.3.08.86.08-2.61.34-.7.11-3.86.33-3.68.39Z"/><path d="m248.07,11.46c.08-.01-.38-.06.74-.01-7.88-.36-16.17-.81-23-.83l.18.05,5.15.19c5.63.2,11.26.4,16.93.6Z"/><path d="m81.6,2.69c-3.6.13-8.45.37-11.51.64.42.09,3.27-.16,4.74-.23,1.41-.06,2.82-.12,4.25-.18,1.42-.04,2.85-.08,4.29-.12,2.86-.09,5.73-.18,8.57-.27-1.16-.18-6.73.09-10.33.17Z"/><path d="m174.83.7c-4.06.07-8.63.23-11.35.15-1.04-.03-2.53.04-2.78.1-.18.05.15.08-1.57.15-.55.13,2.86.01,4.66-.02,4.06-.09,8.18-.17,12.27-.26-.33-.04.7-.12-1.23-.11Z"/><path d="m195.59.15c2.83.07,5.78.16,7.8.12,1.32-.03,2.09.03,3.27.1,3.94.23,7.84.39,11.52.47-3.66-.29-8.24-.46-12.71-.59-3.29-.09-6.56-.15-9.84-.17l-.04.08Z"/><path d="m3.12,15.81c.43-.15,1.32-.38,1.32-.41,0,0-.06,0-.2.02-.14.03-.35.07-.66.14-.31.07-.72.17-1.24.31-.5.16-1.22.3-1.81.73-.06.07-.07.08-.05.11.03.04.1.09.18.13.16.08.34.13.51.18.35.09.69.15,1.01.2.64.1,1.2.17,1.71.24,1.02.12,1.84.21,2.71.31.86.08.29.15,2.99.25,2.18.07,1.68-.02,1.27-.09-.39-.07-.6-.13-.88-.2-2.14-.1-4.28-.22-6.4-.44-.53-.06-1.06-.13-1.58-.22-.49-.09-1.09-.2-1.4-.41-.02-.02,0-.02,0,.03-.01.05,0,.03.01,0,.05-.05.16-.12.27-.17.22-.11.46-.2.71-.28.5-.16,1.01-.3,1.53-.42Z"/><path d="m257.08,5.91c-.43.09-.5.2,5.1.31l3.92.03c.82.01,1.65.02,2.47.01.52-.03,1.16-.04,1.8-.11.08-.01.16-.02.23-.04.04,0,.07-.02.09-.03.02,0,.02,0,.03-.01h0s.02.04.03.05c.01.03.04.06.07.08.03.04.05.02,0,.03.01,0-.11.08-.14.12.03.01-.03-.02-.05-.03-.06-.03-.13-.06-.21-.08-.31-.11-.66-.19-1-.26-.48-.08-.97-.14-1.45-.19-.07.03.33.1.9.22.28.06.61.13.95.2.17.04.33.08.49.13.07.03.16.05.21.08.03.01.06.03.07.03.01-.01.01.05.03-.03.03-.07.12-.14.17-.17.05-.05.07.02-.05-.1,0-.02-.1-.16-.1-.18,0,0,0,0-.01,0-.03.01-.09.03-.15.04-.12.02-.26.04-.4.05-.28.03-.56.04-.85.05-.57.02-1.15.03-1.73.03l-3.48-.04-6.96-.18Z"/><path d="m56.16,9.39l-2.73.15c-3.66.33-7.53.76-10.65.91-.8.04-3.13.32-2.98.32.64-.01-4.41.51-.84.22,5.7-.59,11.93-1.01,17.2-1.6Z"/><path d="m258.33,6.32c-1.42-.02-3.54-.03-4.14-.06-2.4-.13-.13-.08.7-.08.56,0-.17-.05-1.15-.09-.56-.02-1.14-.04-1.58-.05-.44,0-.75,0-.76,0-.04.05.31.12.49.18,4.69.27,10.03.49,15.34.55l.17-.09c-.06-.01-.08-.02-.05-.03l-1.42-.02c-3.41-.03-6.66-.13-7.6-.3Z"/><path d="m90.87,6.7c-4.87.32-3.79.46-9.09.81,2.71-.08,5.48-.17,9.04-.53.4-.05.66-.11,1.22-.14,8.58-.53,2.26-.24.24-.19-.21.04.02.06-1.51.14l.3-.08c-.08,0-.14-.02-.2-.02Z"/><path d="m25.51,18.64c-1.13-.08-3.33-.19-5.6-.16-4.34.07-12.16-.39-15.06-.46,7.02.55,13.91.58,20.66.62Z"/><path d="m131.98,17.49l-5.05.03-2.64.02c.02.09-2.17.12-4.3.16-4.98,0-9.66.11-14.06.29.42.03,1.78.04,2.7.02,7.54-.23,16.03-.25,23.36-.52Z"/><path d="m81.48,2.18c.26.11,1.13.18,6.11-.06,3.7-.17,8.38-.16,11.95-.32-5.38-.1-11.92.23-18.06.38Z"/><path d="m280.3,13.55c-1.72-.24-5.13-.53-8.87-.8.73.16-1.21.16-3.79.12,2.62.2,4.98.27,7.4.39,1.31-.02,3.42.17,5.26.3Z"/><path d="m137.43,1.65c-4.53-.04-13.96.16-19.61.42,5.59-.03,11.2-.21,16.81-.33.14-.08,1.51-.08,2.8-.09Z"/><path d="m142.81,4.52c1.51-.04,2.55-.08,2.52-.12h-1.66s-.37-.02-.37-.02h1.23s1.02.01,1.02.01c1.55-.03,2.29-.07,2.42-.11-4.74.07-8.86.05-14.11.27.47.12,4.88,0,7.81,0,.38,0,.76-.02,1.14-.02Z"/><path d="m88.09,18.2c-5.95.08-11.86.16-16.92.33,2,.04,3.88.05,6.86-.06,3.78-.13,8.47-.12,12.65-.22l-.24-.08c-.77,0-1.55.02-2.34.02Z"/><path d="m189.17.3c-5.32.03-8.19.24-6.45.38l5.2-.04c-.8-.08,3.05-.13,2.29-.21-1.51-.03-.88-.09-1.03-.13Z"/><path d="m69.05,8.28l-8.63.79c4.36-.28,8.7-.56,12.77-.97l-.47-.09-3.68.27Z"/><path d="m216.79,5.03l-3.33-.08-.58.05c4.85.13,9.78.33,14.28.35-1.44-.11-4.42-.22-4.96-.32-.93-.01-1.72-.02-2.51-.03-.21.05-.33.09-2.89.03Z"/><path d="m195.59.15l.04-.08-6.46-.03c-1.32.09-1.23.17,0,.26,3.15,0,2.41.07,2.47.13.5.03,1.21.06,2.43.06,1.43,0,.58-.05.32-.07-.98-.1-2.85-.22,1.2-.27Z"/><path d="m162.24,4.11l.08-.08c-4.41.03-9.25-.02-12.99.21.66.06-.32.21,4.58,0,2.13-.1,5.82-.03,8.34-.13Z"/><path d="m134.97,17.37l-.31.11c5.02-.02,9.55-.19,14.2-.36h-2.43c-2.58.02-2.62-.05-2.99-.1-.35,0-.7.01-1.06.02,0,.07-.2.14-1.22.2-1.02.06-2.87.1-6.19.13Z"/><path d="m191.71,15.59c3.42-.07,6.85-.15,10.26-.22,2.21-.04,3.87-.08,4.1-.16-4.57,0-9.64.2-14.39.27,0,.04-.02.07.04.11Z"/><path d="m146.43,17.11h2.43c3.7-.04,7.54-.04,10.55-.28-3.33.06-6.81.11-10.52.17-1.76.04-2.37.06-2.46.11Z"/><path d="m244.09,5.42c.14.02.19.03.44.05,1.85.13-5.26-.04.11.18,3.87.16,6.36.14,6.03,0-2.27-.1-4.68-.26-6.59-.23Z"/><path d="m191.36,9.54c-1.45-.11-2.93-.19-6.09-.21-2.61-.02-4.88-.1-6.21-.21-.92-.01-2.09-.05-2.43-.02.75.06,1.5.11,2.25.17,4.04.1,8.04.2,12.06.3l.41-.03Z"/><path d="m127.42,8.71c2.25-.1-1.31-.14-4.5-.17-2.36-.04-3.84-.03-4.84.01l.06.08c3.04,0,6.07.02,9.28.07Z"/><path d="m281.23,14.44c-4.69.03-10,.05-14.16.23,4.71.02,9.43-.15,14.14-.15l.03-.07Z"/><path d="m22.52,12.8c-.72-.19-6.14.7-9.28,1.15.21.03-.69.22,3.14-.34,1.91-.28,4.09-.55,6.15-.8Z"/><path d="m249.3,6.13c-.46-.07.03-.14-2.89-.25-3.95-.14-1.59.08-3.87.04,3.15.22,4.51.14,6.76.21Z"/><path d="m150.37.86c-1.92.07-3.85.14-5.77.21,3.64-.07,3.87,0,4.39.07.3.04,1.16.05,2.9.01.65-.02,1.66-.06,1.86-.08.57-.06-.84-.04-1.95-.03-4.01.03,3.22-.22-.27-.21-.36,0-.75.01-1.15.02Z"/><path d="m120.44,8.22c2.57-.02,6.06.24,8.06.07q-1.09-.13-8.06-.07Z"/><path d="m256.51,3.89c-3.39-.39-3.16-.44-3.92-.59-2.66-.27-5.58-.59-7.75-.68l.08.05c1.91.18,5.26.45,5.56.56.67.23,3.39.42,6.02.67Z"/><path d="m264.41,4.63c-1.66-.1,2.25.43,4.07.83.67.1,1.34.2,2.01.38.14.04.27.06.42.14.04.02.09.06.14.12.03.06.05.13.03.19-.02.07-.06.12-.08.14-.12.1-.19.11-.26.14-.29.09-.55.13-.83.18.17,0,.34-.02.51-.04.19-.04.31,0,.61-.18.02-.02.05-.04.07-.06.03-.04.06-.1.08-.15.03-.09-.02-.25-.06-.3-.07-.08-.14-.13-.18-.15-.11-.06-.18-.09-.27-.12-.17-.06-.33-.1-.49-.14-.64-.16-1.26-.27-1.89-.37-1.25-.19-2.52-.38-3.89-.59Z"/><path d="m25.47,18.2v-.11c-2.42-.06-4.84-.12-7.52-.14.03.06-.9.12,2.71.18,2.73.04,3.98.08,3.88.16,1.2-.01.83-.05.93-.09Z"/><path d="m267.64,12.87c2.57.04,4.52.05,3.79-.12-2.65-.06-6.53-.2-7.09-.11l.52.09,2.78.14Z"/><path d="m174.83.7c1.93,0,.9.07,1.23.11l3.88-.05c.61-.13.69-.26-5.17-.17l.06.11Z"/><path d="m90.43,18.18l.24.08c2.51-.04,4.67-.09,6.5-.17-1.61-.22-4.21-.05-6.74.09Z"/><path d="m198.81,10.2s.26-.04.01-.07c-.71-.08,3.01-.08-1.01-.21-3.55-.11-.49.09-1,.13-.15.01-1.33-.01-2.04-.02.86.07,1.64.14,4.03.17Z"/><path d="m280.3,13.55c-1.84-.13-3.95-.32-5.26-.3l2.83.19c1.07.06,1.98.12,2.48.19l5.25.34-1.09-.13-4.21-.29Z"/><path d="m39.21,11.37s-.1.03,0,.03c.45,0-1.47.25,1.69-.05,1.08-.11,3.09-.38,1.03-.24l-2.71.26Z"/><path d="m185.21,15.84c.08-.07,3.37-.19,2.58-.25l-3.97.1c.47.05-.91.15,1.39.14Z"/><path d="m46.06,4.75c.09.04,1.34-.05,2.71-.15,5.71-.61-1.26.03.29-.17-.25.01-.58.04-.99.09l-1.71.18c-.35.04-.45.06-.29.05Z"/><path d="m243.84,3.01l-2.58-.18c1.13.17,4.27.41,6.21.62l.15-.06-.1-.08c-.7-.06-1.23-.11-1.75-.16-.2.02-1.07-.06-1.93-.15Z"/><path d="m43.64,18.75c-.22-.07-3.04-.04-3.87-.08l-2.06.03,1.66.05c1.37.02,2.79.02,4.27,0Z"/><path d="m269.92,6.74c.27-.05.54-.08.83-.18.08-.03.14-.04.26-.14.02-.02.07-.07.08-.14.01-.06,0-.13-.03-.19-.05-.06-.1-.1-.14-.12-.16-.08-.28-.1-.42-.14.08.03.17.05.25.09.08.05.18.05.28.22.03.07.02.14-.03.2-.03.03-.07.07-.09.08-.06.03-.1.04-.15.06-.09.02-.18.04-.27.05-.35.05-.69.07-1.04.09-.69.03-1.37.04-2.05.04l-.17.09c.89.01,1.78.02,2.68-.02Z"/><path d="m209.07,4.93c-.77-.08-1.8-.15-4.07-.11,1.09.06,1.53.16,4.07.11Z"/><path d="m244.83,14.85l-4.09.1c-.19.1,2.07.04,4.08,0v-.1Z"/><path d="m197.41,4.65c-1.94-.02-4.12-.07-5.49-.02,2.79.11,4.28.08,5.49.02Z"/><path d="m25.61,13.14c1.27-.19,2.73-.41,4.38-.69-1.41.21-2.26.23-4.38.69Z"/><path d="m284.51,13.85l1.09.13c.86.07,1.72.14,2.56.26l-.1-.05c-1.14-.19-2.34-.28-3.55-.33Z"/><path d="m226.94,1.34s-.03.01-.17,0c.19,0,.38.02.6.03.12-.02.24-.04.37-.06l-.8.02Z"/><path d="m280.36,13.63c-.49-.06-1.41-.13-2.48-.19-.03.06.81.12,2.48.19Z"/><path d="m184.1.07c.14.03-.09.07,1.35.05,1.05-.01.85-.04.08-.05h-1.42Z"/><path d="m247.63,3.39l-.15.06c1.33.11,2.25.17,2.68.17l-2.53-.23Z"/><path d="m241.17,2.84l-3.39-.25c1.42.16,2.56.24,3.39.25Z"/><path d="m191.65,15.59l.03-.11c-.86.01-1.31.03-1.35.06.12.03-.51.08,1.32.05Z"/><path d="m80.55,7.58l-.42-.04c-1.36.1-.52.08-.81.12.41-.03.82-.05,1.23-.08Z"/><path d="m137.42,1.65c-1.29,0-2.66.01-2.8.09,1.18-.02,2.35-.03,2.8-.09Z"/><path d="m190.95,9.57c-4.02-.1-8.02-.2-12.06-.3-1.4-.03-2.02-.02-2.14.01l-.18.1c2.23.06,2.96.11,2.16.15-.37.02-.89.04.58.08.43,0,1.11.02,1.69.03.57,0,1.03,0,1.03,0-.27-.16,5.63-.02,7.93-.04.47,0,.67-.02.99-.04Z"/><path d="m106.77,8.18c-2.74-.04-5.48-.09-8.15-.04,4.6.03.84.14,4.08.18l5.18.08c-.66-.08-3.41-.16-1.11-.23Z"/><path d="m245.23,11.7c2.18.16,5.02.29,7.98.41-.09-.05.33-.08-.39-.14-.96-.08,2.93.03-.6-.13-2.44-.11-1.97-.03-1.7.03.12.03.13.11-1.45-.04-2.9-.26-2.3-.05-3.83-.14Z"/><path d="m151.94,8.7l-3.9-.1c-.5.03-3.84.01-.9.1,3.11.1,4.17.05,4.8,0Z"/><path d="m161.23,8.92c1.13,0,2.18-.01,1.49-.05-2.08-.11-4.47-.07-6.77-.13.2.1,3.21.13,5.29.18Z"/><path d="m231.15,10.86l-5.15-.19c.28.08,1.9.16,3.96.23,1.59.05,1.07-.02,1.19-.05Z"/><path d="m288.22,14.09c.09.01.18.03.26.05.02,0,.04.01.05.01,0,0,.03.01,0,0-.03-.04-.03-.08-.01-.11.06-.05-.04,0-.06-.01-.18.02-.37.02-.56.02l-.15.07c.2,0,.4-.01.6-.02h.15c.05-.03.11-.02.07-.01-.09-.03-.19-.05-.29-.07-.41-.06-.81-.1-1.19-.14-.76-.07-1.42-.11-1.77-.11.97.09,1.95.17,2.91.31Z"/><path d="m147.02,8.59c-.54-.09-2.37-.1-4.23-.1l.13.07c1.38.01,2.74.02,4.1.03Z"/><path d="m171.97,9.42c.28.01.55.03.81.04l.74-.02c-.34-.01-.73-.02-.99-.03-.26,0-.37,0-.56.01Z"/><path d="m241.24,11.54l3,.12c-.38-.04-.66-.08-1.16-.1-1.46-.07-1.44-.03-1.84-.02Z"/><path d="m162.38,9.04l-1.26-.09c-1.96.02-.43.05,1.26.09Z"/><path d="m142.93,8.56c-.35,0-.78,0-1.13-.01-.34,0-.6,0-.59.01,0,0,.5.03.76.03,1.19.02.85-.01.95-.03Z"/><path d="m176.58,9.38l.18-.1c-1.68,0-1.82.03-.18.1Z"/><path d="m211.94,10.43s-.23-.02-.41-.03c.03.02.23.02.41.03Z"/><path d="m285.1,14.14l-.06.04,2.67-.05c-.85,0-1.74,0-2.62.01Z"/><path d="m166.32,9.09l.29.02c-.11,0-.22-.02-.29-.02Z"/><path d="m142.15,8.48l-.37-.04c-1.13,0-.9.02.37.04Z"/><path d="m172.38.6c1.57-.09,4.03-.19,2.23-.25-.77-.02-1.7-.04-3.32-.01-2.4.05-2.67.11-3,.16,1.25.03,1.87.08.81.17-.49.04-.37.07,1.05.04,1.71-.03,1.97-.07,2.23-.12Z"/><path d="m62,3.73c3.47-.26,2.31-.26,2.61-.34-1.29.08-3.09.24-3.28.19-.09-.03-1.35.03-2.49.13-1.17.1-2.24.25-2.65.32-.68.12,1.57-.11,2.27-.14,1.38-.06,2.38-.1,3.53-.16Z"/><path d="m128.62,1.42c-2.37-.13-6.74.03-10.89.14,3.04.04,6.47.02,10.89-.14Z"/><path d="m131.84,1.34c-.44.01-.89.02-1.34.04-.23.01-.37.02-.69.04-2.49.1-4.15.18-1.58.21.67,0,2.52,0,2.2-.04-.75-.07,7.45-.28,1.4-.25Z"/><path d="m160.52.62l-3.75.07c-.04.05-3.16.2.16.14,2.46-.04,4.18-.15,3.59-.22Z"/><path d="m142.82,1.11h-4.17c.1.03-2.15.13-.23.13,1.52,0,3.16-.06,4.4-.13Z"/><path d="m69.95,3c.76-.03,1.21-.05,1.66-.06.48-.03.94-.07,1.41-.1-.4.01-.77.02-1.21.04-.46.03-.99.07-1.86.13Z"/><path d="m135.84,1.16l-3.61.11c-.17,0-.34.02-.52.03l.17.03c1.62-.05,3.99-.08,3.96-.17Z"/><path d="m163.83.54c-1.07,0-2.13-.01-3.22.08l3.22-.08Z"/><path d="m77.78,2.4c.37,0,.55-.02.74-.04-.13,0-.27,0-.74.04Z"/><path d="m23.66,12.14c-1.44.18-3.09.37-3.94.53-.63.19-4.98.68-6.69,1.01-.65.12-2.86.34-3.81.58-.58.14,1.57-.16,2.9-.31,1.36-.16,2.42-.3,4.28-.6,2.35-.37,5.08-.75,7.21-.88,1.27-.08,3.56-.4,4.89-.57,2.34-.3.44-.13-.93,0-2.17.19-4.31.39-3.91.25Z"/><path d="m25.47,18.2c-.1.03.27.08-.93.09-.3.04-3.49,0-1.92.09.55.03,1.82.07,2.65.08,2.78.02.94-.07,1.55-.1.34-.02.6-.03,1.11-.05,1-.02,3.92-.03,2.83-.08-1.26-.06-3.36,0-5.28-.02Z"/><path d="m16.01,18.18c-.28-.01-.54-.03-.8-.04h-.75c.34.02.71.04.99.05.24,0,.37,0,.56,0Z"/><path d="m48.2,9.66l1.29-.11c-.42.04-.86.08-1.29.11Z"/><path d="m58.57,10.17c-.26,0-.35-.03-2.08.1.24.01,1.07-.03,2.08-.1Z"/><path d="m105.27,5.79l-2.65.13s.58.09-.23.14c-1.44.11-2.72.19-2.24.23.24.02,1.03-.04,1.34-.07,1.14-.11,4.98-.28,3.95-.33-.34-.02-.13-.07-.17-.1Z"/><path d="m112.97,5.54c-.82,0-.87-.05-2.73.03-.26.01-.91.07-.84.08.37.04,2.16-.05,3.57-.11Z"/><path d="m142.81,4.52c-.38,0-.76.02-1.14.02,0,.03-.24.06,1.26.04l-.11-.06Z"/><path d="m91.07,6.72l-.3.08c1.53-.09,1.3-.11,1.51-.14l-1.21.07Z"/><path d="m97.4,6.26l.46.02c1.25-.09-.03-.03-.46-.02Z"/><path d="m102.7,8.33c-3.24-.04.52-.15-4.08-.18-1.68,0-2.86.06-3.74.11-1.85.11-4.12.24-.67.21,5.43-.02,5.67-.1,8.49-.14Z"/><path d="m80.89,8.98c1.87-.1,4.86-.15,4.69-.25-.06-.03-.81-.06-2.93.05-2.05.11-5.06.29-5.17.34-.23.08,2.44-.12,3.41-.14Z"/><path d="m82.92,8.66c-1.47.03-2.37.03-3.44.08-1.34.06-3.73.18-3.82.24-.05.03.83.02,2.25-.05,1.53-.08,3.03-.16,5.01-.27Z"/><path d="m65.09,9.78c-.18-.01-.19-.04-1.54.04-.42.03-.65.06-.97.09l2.51-.14Z"/><path d="m88.08,8.57c-.42.03-.16.02.1,0h-.1Z"/><path d="m67.57,9.67l-.59.03-.59.03c.4,0,.79-.03,1.18-.06Z"/><path d="m221.6,1.12c.27.08,1.61.17,3.5.26,2.4.12,1.46,0,1.69-.03-2.34-.15-2.43-.04-5.19-.23Z"/><path d="m191.64.43c-.07-.06.68-.13-2.51-.13.2.05-.44.1,1.07.13h1.44Z"/><path d="m221.58,1.12l-.29-.03c.1.01.21.02.29.03Z"/><path d="m88.09,18.2l2.36-.02c-.41-.02.79-.09-1.1-.06-1.08.02-1.34.06-1.26.09Z"/><path d="m119.99,17.7c2.13-.04,4.32-.07,4.3-.16-1.59.05-3.36.09-4.3.16Z"/><path d="m256.51,3.89c-2.63-.25-5.35-.44-6.02-.67-.3-.1-3.66-.38-5.56-.56,1.04.17,1.86.33,3.16.53,2.78.42,7.9.93,12.09,1.29.52.04.79.05,1.43.11,2.38.26,2.56.16.2-.19q-.99-.14-1.56-.13c-.27,0-.2.06-2-.14-.55-.06-1.16-.17-1.74-.26Z"/><path d="m265.94,6.62l1.42.02c2.5-.12-1.38-.25-1.25-.39l-3.92-.03c-.38.11,4.8.3,3.76.39Z"/><path d="m269.42,5.98c.34.07.69.15,1,.26.08.03.15.06.21.08.01,0,.07.04.05.03.02-.04.15-.11.14-.12.05-.01.02,0,0-.03-.03-.02-.05-.05-.07-.08,0-.01-.01-.03-.03-.05h0s0,0-.03.01c-.02,0-.06.02-.09.03-.07.02-.15.03-.23.04-.64.08-1.28.09-1.8.11.04,0,0,.01.13.02.87,0,1.23.03,1.63.02.1,0,.2,0,.31-.03.05,0,.11-.02.16-.04.04,0,0-.03.06,0-.02,0-.04,0-.02,0l-.03-.02c-.21-.15-.6-.25-1.12-.37-3.1-.58.34.18-.27.13Z"/><path d="m262.6,4.81c-.37-.03-.81-.08-.78-.07.11.03.39.09.61.14.17.01.48.04.48.03.01-.02-.18-.06-.31-.09Z"/><path d="m243.84,3.01c.86.08,1.73.17,1.93.15-.82-.08-1.96-.21-1.93-.15Z"/><path d="m247.53,3.31l.54.03c-.23-.02-.47-.03-.54-.03Z"/><path d="m69.05,8.28l3.68-.27c1.09-.22,7.24-.61,9.24-.84-.2-.04.31-.13-2.64.06,1.26-.01-.89.16-2.24.28-1.66.14-2.45.14-3.08.15l-3.73.26c-7,.65-7.12.7-1.22.37Z"/><path d="m74,7.65c.63,0,1.42,0,3.08-.15,1.36-.11,3.5-.29,2.24-.28-2.02.14-4.52.28-5.32.42Z"/><path d="m55.71,9.09c3.55-.11,4.66-.4,6.95-.59-2.83.15-4.92.37-6.95.59Z"/><path d="m48.18,9.67l1.34-.12c-.45,0-.89.04-1.34.12Z"/><path d="m216.79,5.03c2.56.07,2.69.02,2.89-.03-.38-.08.95-.03,2.38.03.8-.05.24-.16,3.92-.07.76-.07-3.28-.15-3.85-.23-5.2-.03-5.62.13-5.34.3Z"/><path d="m258.3,6.31l1.64.05c-.92-.06-1.15-.04-1.64-.05Z"/><path d="m225.13,15.03c-.62.05-.79.08-.96.12,2.62-.06,5.23-.11,7.84-.17,2.35-.05,2.41-.1,2.5-.15-1.4.02-3.12.07-3.95.04l-5.44.15Z"/><path d="m261.79,14.31c-.05-.04-.18-.08-1.63-.06-.65,0-1.51.05-2.27.08.93.03,2.46,0,3.9-.02Z"/><path d="m230.57,14.87c.83.03,2.55-.02,3.95-.04-.8-.03-2.41,0-3.95.04Z"/><path d="m246.17,14.79s1.23-.06.07-.06c-.12,0-.49.01-.6.01-.75.04-.31.05.53.05Z"/><path d="m164.94,4.42c2.19-.04,4.16.2,6.5-.03.37-.16-4.38-.06-6.56-.08.03.04.05.07.07.11Z"/><path d="m192.17,4.37h-.53c.17,0,.33,0,.53,0Z"/><path d="m164.88,4.31h-.28c.1,0,.2,0,.28,0Z"/><path d="m285.1,14.14h2.64s.15-.08.15-.08c-1.85.01-2.75.03-2.79.08Z"/><path d="m134.97,17.37c3.32-.03,5.17-.07,6.19-.13,1.02-.06,1.22-.13,1.22-.2l-1.43-.12c-4.94,0-7.74.2-11.58.3-.47.14-.13.24,5.59.15Z"/><path d="m197.81,15.59h.56s-.24-.02-.56,0Z"/><path d="m132.23,1.27h-.93c.14.01.27.02.41.03.18,0,.35-.02.52-.03Z"/><path d="m185.17,15.84c.45,0,.9,0,1.37,0,.01,0,.24-.01.37-.02-.57,0-1.13.02-1.74.03Z"/><path d="m111.22,17.49h-2.49c.17.05.29.1,2.49,0Z"/><path d="m224.17,15.15c.17-.04.34-.08.51-.12-1.28.03-2.71.06-2.93.11-.22.05,1.02.04,2.42,0Z"/><path d="m208.85,4.77c.15-.04.19-.07-1.07-.13.14.04-.45.07,1.07.13Z"/><path d="m202.54,4.44l.27.02c-.09,0-.19-.01-.27-.02Z"/><path d="m212.81,4.71c-.27-.03-.25-.07-.88-.1-.83-.04-1.63-.02-1.36,0,.53.05-2.13.08,1.87.16.13-.02.26-.05.38-.07Z"/><path d="m212.81,4.71c-.13.02-.25.05-.38.07,1.98.03,1.82,0,.38-.07Z"/><path d="m132.01,4.82c-.18,0-.35,0-.57,0-.03,0-.46.02-.48.02-.06.01.02.02.04.03l1.01-.05Z"/><path d="m38.57,18.48h.52c-.19,0-.39,0-.52,0Z"/><path d="m68.42,3.29l-2.02.16h.51c.53-.06,1.06-.11,1.51-.16Z"/><path d="m143.66,4.41h1.66c-.12-.03-.46-.04-.8-.05l-.86.05Z"/><path d="m222.05,5.03c-1.42-.06-2.76-.11-2.38-.03l2.38.03Z"/>
                  </g>
                </mask>
              </defs>
              <path class="mask" d="m23.26,7.98c12.67-1.94,31.98-4.39,56.08-5.43,7.4-.32,12.77-.39,16.71-.45C171.13.98,181.97-.46,211.55.74c31.15,1.27,59.51,4.51,59.36,5.49-.21,1.38-56.34-3.26-129.92-1.52C66.96,6.47-.01,14.1.33,16.7c.45,3.34,112.35.82,141.54.27,19.57-.37,27.93-.7,45.58-1.15,9.85-.25,28.08-.65,47.95-1.01,18.99-.35,28.48-.51,39.63-.58,11.51-.08,13.57-.01,13.58-.13.01-.72-83.42-5.15-182.1-5.75-3.26-.02-5.97-.03-7.85-.04,0,0-7.15-.03-30.13,1.21-21.57,1.17-50.24,2.67-60.49,9.53-1.26.84-4.17,2.79-3.53,5.03.78,2.71,5.75,4,7.03,4.25"
                    mask="url(#path-mask)" stroke="black" stroke-width="2" fill="none"
                    stroke-dasharray="1105.42919921875" stroke-dashoffset="1105.42919921875">
              </path>
            </svg>
        