
            <svg xmlns="http://www.w3.org/2000/svg">
              <defs>
                <mask id="path-mask">
                  <g fill="white">
                    <path d="m174.1,8.87c-4.29-.02-1.56.1-2.42.15l-3.08-.08c-2.52-.09-5.46-.19-7.86-.28-4.92-.21-14.16-.25-18.1-.12-2.71-.04-4.42-.03-5.56.01-3.6-.08-8.96-.02-11.74-.15-.76-.08-3.93-.16-1.27-.23,1.91-.04,3.99-.06,7.06.01,2.54.06,4.84.07,6.28.01l2.38.02c2.96-.02,6.97.25,9.27.07.93.01,2.63.04,2.67.04,2.33-.15,7.8-.01,12.53.07l.07.05c-1.3,0-1.03.02.43.04.24,0,.48,0,.74,0l.15.07c-.4,0-.9,0-1.29-.01-.39,0-.69,0-.68.01,0,0,.58.03.88.03,1.37.02.98-.01,1.12-.03l4.68.03c.38,0,.77,0,1.16.01-.58.03-4.42,0-1.03.1,3.58.1,4.79.05,5.52,0,.68-.06,2.2-.05,4.6.04.23.1,3.69.13,6.08.18l-.12.03c-2.26.02-.49.05,1.45.09,2.63.11,2.87.02,4.53.05l.34.02-.38-.02c.15-.06-.83-.15,3.95-.04,2.98.07,5.53.1,5.01,0l2.95.05,2.59.17c-1.61-.03-2.32-.02-2.45.01-1.93,0-2.09.03-.21.1,2.56.06,3.41.11,2.49.15-.43.02-1.03.04.67.08.5,0,1.28.02,1.94.03.66,0,1.18,0,1.18,0-.31-.16,6.48-.02,9.12-.04.54,0,.77-.02,1.14-.04l.47-.03c6.05.14,12.4.35,17.85.38,1.38,0,3.3.1,4.66.16,2.46.11,4.13.14,5.47.12l11.65.42.21.05c.32.08,2.19.16,4.56.23,1.83.05,1.23-.02,1.37-.05,6.48.21,12.95.41,19.74.63l-.27-.02c.09-.01-.43-.06.85-.01.37-.01.51-.04,2.17.03-.58.08,2.65.22,5.28.35,5.67.26,12.26.6,17.23.78,3.44.12,5.76.23,9.11.41,2.03.11.91-.02,1.08-.05,3.25.19,6.49.33,9.76.68.11.02.21.03.34.06l.08.03.04.02c.07.04.16.14.18.24.05.14-.09.34-.23.38-.06.02-.05.01-.08.02-.09.02-.14.02-.19.02l-.63.02h-1.22s-2.44.02-2.44.02l-4.88.02.03-.07c1.29-.05.98-.09.34-.13-1.09-.08.57-.12,4.05-.13l3.08-.05c.46,0,.94-.01,1.42-.02.12,0,.24,0,.35-.02.16,0-.06-.01-.15-.04-.23-.04-.46-.06-.68-.08-.88-.08-1.63-.13-2.04-.13l1.68.15.83.1c.13.02.29.04.38.07-.04-.02-.05-.12-.01-.14.04-.02-.02,0-.02,0-.03,0-.06,0-.09,0h-.21c-.43-.01-2.4-.02.15-.1h.11s.04,0,.04,0c.04,0-.07,0-.1.09-.02.06-.03.14.04.22.08.06,0,0-.02,0l-.11-.02-.49-.07-1.01-.11c-.68-.06-1.37-.1-2.08-.13l-4.84-.3c-1.98-.24-5.91-.53-10.22-.81-3.05-.07-7.51-.21-8.15-.11-4.26-.2-8.51-.4-12.81-.53-.1-.05.38-.08-.45-.14-1.11-.08,3.37.03-.69-.13-2.81-.11-2.26-.03-1.96.03.14.03.15.11-1.67-.04-3.34-.26-2.65-.05-5.54-.18-.44-.04-.76-.08-1.34-.1-1.68-.07-1.66-.03-2.12-.02-5.45-.2-10.75-.32-16.54-.57-3.01-.13-4.62-.07-5.52-.02l-26.74-.76s.3-.04.02-.07c-.82-.08,3.46-.08-1.16-.21-4.09-.11-.56.09-1.15.13-.17.01-1.53-.01-2.34-.02-7.54-.1-15.68-.3-23.5-.47-2.28-.05-5.98-.03-7.79-.18-2.07-.15-15.57-.52-19.91-.54Zm25.89.61l.85-.02c-.39-.01-.84-.02-1.14-.03-.29,0-.43,0-.65.01.32.01.63.03.93.04Zm44.44.95c.17,0,.4.01.61.02-.03-.02-.26-.02-.61-.02Z"/><path d="m135.59,2.07c-9.99.23-19.85.22-29.77.45-1.33-.18-7.75.09-11.89.16-.83-.02-.74-.16-5.16.09-2.68.14-6.56.33-10,.51-2.76.13,5.72-.59-4.38.11-1.48.08-3.56.24-3.77.19-.11-.03-1.55.03-2.86.13-1.35.1-2.58.25-3.05.32-.78.12,1.8-.11,2.61-.14,1.59-.06,2.73-.1,4.06-.16-.8.11-4.44.33-4.23.39-1.12.03-3.63.22-5.86.41-1.11.09-2.16.17-2.93.23-.77.06-1.25.08-1.26.04,0-.04.78-.15,1.74-.27.95-.13,2.07-.27,2.74-.36,1.39-.21,7.41-.7,12.2-.97,2.16-.11,4.21-.21,6.36-.32,2.07-.11,4.62-.16,6.14-.29,1.62-.14-4.1.16-3.05.04,3.29-.21,6.75-.41,10.58-.44.3.11,1.3.18,7.02-.06,4.26-.17,9.64-.16,13.75-.32l1.58-.03h3c5.04.06,10.47,0,16.35-.21,3.49.04,7.44.02,12.53-.14l2.16-.04c-.26.01-.42.02-.79.04-2.87.1-4.77.18-1.82.21.77,0,2.9,0,2.53-.04-.86-.07,8.57-.28,1.65-.27.93-.02,2.08-.05,2.99-.07.91-.03,1.59-.05,1.57-.09l3.24-.06c.11.04-2.47.14-.27.13,1.75,0,3.64-.06,5.06-.13l2.04-.04c4.19-.07,4.45,0,5.05.07.35.04,1.34.05,3.33.01.74-.02,1.91-.06,2.14-.08.66-.06-.97-.04-2.24-.03-4.62.03,3.7-.22-.31-.21,1-.1,3.58-.14,6-.2l.04.05c-.04.05-3.64.2.18.14,2.83-.04,4.8-.15,4.23-.22l3.71-.08,5.13-.03c1.44.03,2.15.08.93.17-.56.04-.42.07,1.2.04,1.96-.03,2.27-.07,2.57-.12h2.76s.07.1.07.1c-4.66.07-9.93.23-13.06.15-1.19-.03-2.91.04-3.2.1-.2.05.17.08-1.81.15-8.09.27-16.42.46-24.97.55-5.21-.04-16.05.16-22.55.42Zm-53.16.87c.55-.03,1.08-.07,1.63-.1-.46.01-.88.02-1.39.04-.53.03-1.14.07-2.14.13.87-.03,1.4-.05,1.91-.06Z"/><path d="m.9,16.4c-.2.07-.45.26-.42.28.01.06.27.18.45.22.39.12.78.18,1.15.25.73.12,1.38.19,1.97.26,1.18.12,2.12.22,3.12.32.99.09.34.15,3.44.26,2.5.07,1.93-.02,1.46-.09-.45-.07-.69-.13-1.02-.2,3.06.12,6.11.19,9.17.24.03.06-1.04.12,3.12.18,3.14.04,4.57.08,4.46.16-.35.04-4.01,0-2.21.09.64.03,2.09.07,3.04.08,3.2.02,1.08-.07,1.78-.1.39-.02.69-.03,1.27-.05,1.15-.02,4.51-.03,3.25-.08-1.45-.06-3.87,0-6.07-.03v-.11c8.7.04,17.14.08,25.47.12-1.36.12-2.25.26-9.41.17-1.18-.02-3.1-.01-3.58.03-.52.05.96.06,2.59.07.53.06,1.06.12,1.39.19l-2.37.03,1.91.05c-5.67.07-10.96.03-15.94-.11-1.3-.08-3.84-.19-6.44-.17-4.99.07-13.99-.39-17.32-.48-1.21-.11-2.44-.23-3.69-.46-.32-.07-.63-.13-.96-.27-.08-.03-.18-.08-.28-.16-.09-.07-.29-.26-.21-.55.18-.39.37-.39.52-.5.63-.3,1.24-.43,1.86-.59,2.47-.58,4.96-.96,7.43-1.32-.19.15,3.6-.37,6.76-.78,2.82-.37,4.5-.55,6.62-.75-.73.19-5.74.67-7.72,1-.75.12-3.29.33-4.39.57-.68.14,1.8-.16,3.34-.31,1.56-.16,2.79-.3,4.94-.59,2.71-.37,5.86-.74,8.31-.87,1.47-.08,4.1-.39,5.64-.57,2.7-.3.51-.13-1.07,0-2.5.19-4.96.39-4.5.25l1.58-.19c2.8-.14,8.18-.71,12.76-1.09,1.78-.15,5.87-.55,4.67-.31-.29.05,5.25-.45,5.41-.5.33-.1,1.81-.22,3.83-.37l1.48-.11c2.77-.24,6.05-.53,4.92-.3-1.39.18-1.34.18,1.02.03,1.03-.06,2.41-.14,2.64-.13.79.02-3.38.3-4.05.4-4.22.32-8.67.75-12.26.91-.92.04-3.6.31-3.43.31.74-.01-5.08.51-.97.22-.17.05-.62.09-2.31.23-5.51.46-11.03.92-16.63,1.56-.82-.2-7.08.69-10.7,1.14-4.2.54-7.3,1.02-11.71,1.83.26-.06.64-.16.96-.24.32-.08.58-.14.58-.16,0,0-.07,0-.23.02-.16.03-.4.07-.76.13-.71.16-1.93.31-3.66.94Zm16.17,1.73h-.87c.39.02.82.04,1.14.05.28,0,.43,0,.65,0-.32-.01-.62-.03-.92-.04Z"/><path d="m30.62,12.97c-5.27.82-11.71,1.94-16.36,3.65-2.05.71-4.68,1.69-7.03,3.38-.59.43-1.15.9-1.63,1.48-.48.56-.83,1.33-.78,2.12.07.79.54,1.45,1.06,1.92.52.48,1.1.85,1.68,1.17,1.33.67,1.89.82,2.9,1.14,1.56.45,2.57.56,2.74.55.17-.03-.52-.13-2.23-.62-1.79-.53-2.9-1.07-3.65-1.53-.73-.47-1.13-.82-1.41-1.19-.26-.36-.75-.96-.63-1.88.14-.92,1.05-1.97,2.47-2.99.31-.23,1.54-1.03,2.12-1.27,2.67-1.46,5.59-2.27,8.45-3.1,2.9-.74,5.82-1.37,8.8-1.85,6.85-1.14,13.77-1.86,20.7-2.44,6.93-.57,13.87-.98,20.82-1.34l-.04-.06c-1.17.06-2.13.11-2.39.1-2.06.12-4.53.27-6.24.37-4.1.28-9.14.62-12.4.84-.97.05-4.99.35-9.11.78-4.12.43-8.35,1-9.77,1.27-.47.08-.96.18-.89.18.7-.02-1.95.33-3.15.57-1.44.27-2.33.39-3.57.65-.7.16-2.89.71-2.69.63.13-.05,1.38-.37,3.09-.79,3.57-.78,8.68-1.58,9.14-1.73Z"/><path d="m154.58,4.53c-3.63.11-7.95.22-10.33.39,1.05-.02,2.39-.04,3.11-.06,2.8-.11,5.45-.22,7.5-.18,1.69.04-.68.13-2.39.23-3.03.17-5.35.2-7.82.21-1.54,0-4.1.07-5.35.14-4.28.25-6.19.22-8.74.26-1.63.06-3.69.15-4.11.11-.08,0,.66-.07.96-.08,2.14-.08,2.21-.03,3.14-.03l4.58-.36c-3.02-.05-6.94.2-10.63.38.1.05-.14.1-2.81.22.05.03-.19.08.19.1,1.18.05-3.23.22-4.55.33-.36.03-1.27.08-1.54.07-.56-.03.92-.12,2.58-.22.94-.06.23-.1.27-.14-1.46.11-5.63.22-6.04.34.54-.01,2.01-.07.57.02l-.53-.02c-2.12.08-.83-.08-3.47.05-.93.05-1.68.16-2.51.24.04.03-.28.07-1.54.15.07,0,.15.01.23.02l1.39-.07c2.32-.05,9.59-.34-.28.19-.64.04-.94.1-1.4.14,4.25-.22,8.71-.48,12.56-.54.47-.02,6.18-.31,10-.5,1.05-.08,2.34-.14,4.64-.23,6.71-.26,13.73-.38,20.14-.66,2.58.05,7.2-.19,9.92-.18,2.66,0,4.81-.01,8.12-.12,4.49-.15,6.45-.11,6.55,0l7.41-.09c-.34-.07,1.7-.13,3.18-.2-3.39-.07-6.91-.13.26-.28.92-.02.32-.05-.6-.05-2.9.09-7.14.03-9.59.13-5.63.22-4.51.06-5.27,0l-1.57.03c-.15.04-1,.08-2.79.11-.21.06-1.41.1-3.15.13l.13.06c-.86.01-1.22.01-1.37,0-.15,0-.08-.03-.08-.04-3.37,0-8.44.11-8.98,0Z"/><path d="m114.67,8.15c-1.93-.02-3.29.04-4.3.09-2.13.1-4.75.23-.77.21,3.12-.01,4.75,0,6.01-.03,1.26-.03,2.14-.07,3.76-.08l5.96.09c2.78.13,8.14.07,11.74.15l.07.08c-3.45-.04-7.45.02-10.03-.07-3.26-.11-6.64-.1-10.44-.1-7.49-.04-14.99.31-22.51.58-7.51.32-15.04.65-22.58.97-.27-.02-.25-.06,1.63-.17l2.89-.14,1.49-.04c.45,0,.91-.03,1.36-.06,9.52-.45,10.84-.53,7.22-.5-.11,0-.14,0-.21,0-8.41.46-10.65.31-18.87.77-3.42.19-7.96.47-8.88.43,2.24-.14,4.76-.37,5.5-.37,1.42,0,3.77-.16,6.06-.28,8.17-.37,16.15-.73,24.55-1.11,5.98-.24,12.06-.46,18.18-.54,6.12.03,12.27.05,18.4.08,2.44.01,6.32.01,6.51.12-1.43.06-3.74.05-6.28-.01-3.07-.07-5.15-.06-7.06-.01-3.15-.05-6.31-.09-9.38-.04Zm-15,.55c-.06-.03-.93-.06-3.37.05-2.36.11-5.82.29-5.95.33-.26.08,2.81-.12,3.92-.14,2.15-.09,5.59-.15,5.4-.24Zm-7.01,0c-1.54.06-4.3.18-4.4.24-.06.03.95.02,2.59-.05,1.77-.08,3.48-.16,5.76-.26-1.69.03-2.73.03-3.95.08Zm9.1-.12l.9-.03h-.11c-.67.01-.71.02-.79.03Z"/><path d="m216.22.64c3.72-.04,6.62-.03,10.8.06,6.08.11,13.66.3,20.56.55,3.46.13,7.15.34,10.39.44l.04-.1c-.76-.09-2.72-.26-.38-.16,6.9.3,5.99.07,10.78.26-2.55-.15-4.8-.25-6.8-.32-.25,0-.48-.02-.66-.03-.27.04.82.15-1.94.03-2.17-.09-3.72-.19-4.03-.26l-.36-.03.33.03c3.2.19,3.31.08,5.96.22.17,0,.23,0,.2,0-3.03-.27-6.75-.34-10.07-.5-4.24-.08-8.72-.23-13.26-.46-1.35-.07-2.24-.12-3.76-.09-2.33.04-5.72-.05-8.98-.12-4.66.05-2.51.16-1.38.27.3.03,1.27.07-.37.07-1.4,0-2.22-.03-2.79-.06h-1.66c.87.08-3.55.13-2.63.21Z"/><path d="m111.34,18.09c2.95.02,6.01.02,10.07-.09,5.07-.18,10.44-.29,16.17-.29,1.09-.07,3.12-.11,4.95-.16l3.04-.02c-.36-.03-.92-.08-1.06-.08-5.56.12-9.29.04-14.65.14-3.9.07-7.46.12-8.52.02-.03,0-.43,0-.64,0-.73.02-1.47.05-2.21.07.65.12-3.28.17-6.28.2-9.85.11-19.76.3-29.76.34-6.03.02-6.36.05-3.48-.11.86-.06,1.45-.1,2.16-.15-5.73.08-12.39.07-17.01.24,1.08,0,2.13,0,3.25.01,1.84,0,4.48-.11,5.29-.03.33.03-2.56.12-4.39.16-.98,0-2.82.03-4.27.04-1.22.01-2.54.02-3.13.05-.76.05.51.06,1.76.08,1.97.02,2.5.09,5.57.07,3.88.05,8.14.06,13.23-.03,5.82-.17,12.62-.25,19.47-.33-.09-.03.21-.07,1.45-.09,2.18-.03.79.04,1.27.06,2.89-.14,5.88-.32,7.73-.09Z"/><path d="m76.1,9.72l1.49-.04.68-.03.68-.03c9.52-.45,10.84-.53,7.22-.5-.11,0-.14,0-.21,0-8.41.46-10.65.31-18.87.77-3.42.19-7.96.47-8.88.43-2.48.19-6.9.49-8.76.7,2.37-.12.05.13-1.19.23-3.64.31-1.43.05-1.94.05-.11,0,0-.02,0-.03-2.79.14-7.52.71-10.63,1.04-1.91.23-3.6.51-5.06.66-.48.15-5.58.95-9.16,1.73-1.7.42-2.96.74-3.09.79-.2.08,1.99-.47,2.69-.63,1.24-.26,2.13-.38,3.57-.65,1.2-.24,3.85-.59,3.15-.57-.08,0,.42-.09.89-.18,1.42-.26,5.64-.84,9.77-1.27,4.12-.43,8.14-.73,9.11-.78,3.26-.22,8.3-.56,12.4-.84,1.71-.1,4.17-.25,6.23-.37,2-.13,2.1-.1,2.4-.1l.04.06,2.95-.14c-.27-.02-.25-.06,1.63-.17.37-.03.63-.07,1.12-.09,1.56-.08,1.57-.05,1.77-.04Z"/><path d="m281.73,2.6l.09.05c1.2.17,2.16.31,3.65.53,3.21.42,9.1.93,13.93,1.28.6.04.9.05,1.64.11,2.74.26,2.94.16.22-.19q-1.14-.14-1.79-.12c-.31,0-.23.06-2.3-.14-.63-.06-1.34-.17-2.01-.26-3.9-.38-3.64-.44-4.52-.59,4.47.34,9.03.76,13.62,1.32-1.91-.1,2.59.43,4.71.82.77.1,1.54.19,2.32.35.19.05.39.09.59.17.05.03.1.04.16.08.03.03.06.04.1.09.04.08.04.17-.02.24-.16.13-.25.12-.36.15-.41.07-.8.09-1.2.11-.79.04-1.58.04-2.36.05-.07-.01-.09-.02-.06-.03,2.87-.13-1.59-.25-1.44-.39.95.01,1.89.02,2.84,0,.05,0,.01.01.15.02,1,0,1.41.02,1.87,0,.11,0,.23-.02.34-.05.04,0,0-.04.07,0,0-.01-.06.01-.03.02l-.02-.02s-.11-.07-.19-.1c-.31-.12-.74-.22-1.35-.33-3.59-.56.4.18-.29.14l-1.68-.19c-6.81-.95-13.83-1.52-20.53-2.14l-2.92-.23-.12-.08.62.03-.81-.05-1.83-.14c-.94-.08-2.25-.21-2.22-.14l-2.97-.17.41.02.45.04c-2.03-.23-7.08-.55-8.52-.77-.67-.11-7.07-.37-10.54-.48-.58-.01-.95-.02-1.41-.03-.76-.09-2.72-.26-.38-.16,6.9.3,5.99.07,10.78.26,4.61.23,9.06.53,13.32.92Zm19.57,2.12c.13.03.45.09.7.14.2.01.55.04.55.03.01-.02-.2-.06-.36-.09-.43-.04-.93-.08-.89-.07Z"/><path d="m121.69,5.77c2.67-.12,2.91-.17,2.81-.22l-2.5.09-1.93.09c-4.8.18-9.43.36-14.52.66-2.08.12-5.08.28-7.56.38-2.72.1-7.86.39-8.73.45-9.22.66-18.14,1.18-26.99,1.76-3.25.22-5.29.43-7.96.64-13.59,1.09-27.18,2.27-40.71,3.98-1.45.19-2.94.38-3.77.54-.19.15,3.6-.37,6.76-.78,2.82-.37,4.5-.55,6.62-.75.98-.16,2.89-.35,4.54-.52l1.58-.19c2.8-.14,8.18-.71,12.76-1.09,1.78-.15,5.87-.55,4.67-.31-.29.05,5.25-.45,5.41-.5.33-.1,1.81-.22,3.83-.37.49-.07,1-.11,1.51-.12,2.74-.24,6.02-.53,4.88-.3.74-.05,1.49-.11,2.24-.16,2.34-.22,4.75-.44,8.01-.59,2.69-.27,5.3-.55,8.76-.58l4.3-.26c.93-.14,3.8-.28,6.12-.42,3.4-.2,2.8-.1,3.04-.06,3.92-.34,7.85-.51,11.78-.62.83-.08,1.58-.19,2.51-.24,2.64-.13,1.34.03,3.47-.05.37-.12,4.54-.23,6-.34l3.05-.13Z"/><path d="m281.37,5.43c-2.1-.13-4.42-.24-7.56-.27,1.78.11,3.53.23,1.42.24-1.66,0-2.93-.13-4.72-.16-2.34-.19-3.69-.15-5.25-.13-1.78.02-3.52,0-4.72-.14-4.24-.09-3.59.02-4.35.08.63.1,4.05.21,5.71.32,2.82.15,6.56.27,10.13.34,2.68.05,4.99.12,7.57.22,2.62.04-.09-.18,4.45-.04,3.36.11,2.8.18,3.33.25l2.99.09c-.21-.06-.61-.13-.57-.18.01-.02.37-.02.88,0,.51.01,1.18.03,1.82.05,1.12.04,1.96.08,1.32.09-.95,0-3.57-.04-.81.08.69.03,3.13.04,4.76.06.52,0,.79-.02,1.84.04l-1.88-.05c1.13.18,4.87.28,8.79.3,1.2-.09-4.75-.28-4.32-.39-6.44-.11-6.37-.22-5.87-.31-2.59-.06-4.7-.21-7.37-.26.38.14-2.48.16-6.94,0-6.18-.22,2-.05-.13-.18-.29-.02-.34-.03-.51-.05Z"/><path d="m274.07,14.99l2.43-.03,4.7-.1,1.73-.03s-.09-.02-.15-.03c-1.02,0-1.52-.01-.66-.05.13,0,.55-.01.69-.01,1.33,0-.08.04-.08.06,2.45-.03,4.26-.07,5.41-.14,1.81-.11,4.16-.15,6.04-.16.94,0,1.76.01,2.34.01.58,0,.92.02.89.03-.37.14,3.52.08,6.33.08,3.55-.09,7.06-.18,10.66-.27,1.57-.05,4.61-.05,3.75-.11-.71-.06-4.01.03-4.84.02-2.58-.03-6.57.2-8.02.07-1.97.01-4.29.05-4.59-.02-1.66.02-3.42.05-4.49.02-3.64.03-7.3.07-10.9.1-7.14.07-13.31.26-20.52.36v.08c1.77-.04,3.61-.08,4.54-.04-.11.05-.17.1-2.88.15l1.28.08,6.33-.09Z"/><path d="m187.23,4.11c.92,0,1.52.04.6.05-7.18.15-3.65.21-.26.28l2.77-.03-.06-.11h-.34s.33,0,.33,0c2.51.02,7.97-.08,7.55.08,4.17-.02,7.95.12,12.59.03.67-.01,3.57.05,3.72.11l4.4.04c1.91-.08,7.46-.05,6.39-.2.05,0,.95,0,1.47-.01,3.26.25,4.64,0,7.2.08-.01-.01-.01-.02,0-.04-7.52-.3-9.31-.13-11.96-.04h-.57s.61,0,.61,0c-.75-.01-1.83-.03-2.71-.05-.44,0-.84-.02-1.13-.02-.29,0-.47-.01-.49-.02-.75-.28-6.24-.14-10.69-.14-4.64,0-9.98.06-14.08-.03-2.02-.02-1.71-.12-5.22-.08l-.09.08Z"/><path d="m198.35.6h2.76c6.74-.1,6.65.03,5.95.16,2.22.01,2.1-.06,3.19-.08-1.99-.14,1.31-.34,7.43-.38-1.41-.08-1.52-.17,0-.26-1.55-.09-2.85-.02-4.19.02.89.01,1.12.04-.09.05-1.66.02-1.38-.02-1.55-.05-3.56-.1-8.82.07-12.61.14-6.21.12-12.99.21-18.87.43l.04.05,4.31-.07c1.36-.1,2.58-.09,3.81-.08l5.13-.03c.37-.06.68-.12,3.45-.16,1.86-.03,2.93-.01,3.82.01,2.07.05-.75.15-2.56.25Z"/><path d="m305.3,14.34c1.45.13,5.44-.09,8.02-.07.83,0,4.13-.08,4.84-.02.86.07-2.17.07-3.75.11-3.6.09-7.11.18-10.66.27l1.29.05,1.73-.02c4.8-.17,10.9-.2,16.29-.23,1.29-.05.98-.09.34-.13-1.09-.08.57-.12,4.05-.13l.07-.04c.05-.05,1.08-.07,3.21-.08.44,0,.87,0,1.27-.03-.43-.02-2.4-.03.15-.11l-.12-.03c-4.26.01-8.51.02-12.78.03-4.27.01-8.54.1-12.82.17,1.37.06,3.9.12-1.14.25Z"/><path d="m182.94,16.84c1.77-.04,1.61.11,4.75-.07,2.35-.14,4.58-.07,6.92-.15.66-.16,3.84-.2,7.18-.22,2.83-.02,5.17-.09,7.3-.19,2.21-.1,3.19-.18.84-.19-3.15.06-6.04.07-9.41.18-10.51.32-11.67.35-20.1.42-.2,0-.6,0-.65,0-4.29.23-10.82.18-15.2.4.42.06.47.12,3.43.09.1-.05.8-.07,2.83-.11,4.28-.06,8.28-.12,12.11-.17Z"/><path d="m305.3,14.34c5.04-.13,2.51-.18,1.14-.25-3.32,0-5.55-.04-10.31.12-3.43.12-10.28.13-15.77.2-7.38.12-15.13.24-22.58.35-3.27.04-5.44.08-5.07.18.35.09,2.99.04,5.95-.03,2.05-.04,4.1-.08,6.15-.12,7.21-.1,13.38-.29,20.52-.36,3.6-.03,7.27-.07,10.9-.1.88-.03,1.87-.07,2.62-.08,1.66-.01,1.81.03,1.87.06.3.06,2.63.03,4.59.02Z"/><path d="m221.61,4.37c2.65-.1,4.44-.27,11.96.04l6.02.05c1.6,0,3.26,0,2.85-.06-2.82-.15-6.51-.14-9.6-.18-11.8-.16-23.6-.29-35.48-.21-3.17.02-3.62.06-4.83.11,4.09.1,9.44.04,14.08.03,4.45,0,9.94-.14,10.69.14.01,0,.2.01.49.02.29,0,.69.01,1.13.02.88.02,1.94.03,2.68.05Z"/><path d="m81.14,17.95c-.71.05-1.3.09-2.16.15-2.88.17-2.55.13,3.48.11,10-.03,19.91-.23,29.76-.34,3-.03,6.93-.08,6.28-.2-5.59-.05-11.7.05-18.42.21-4.33.1-7.64.11-6.81-.04-4.36.11-7.98.05-12.12.1Z"/><path d="m164.57,17.03c4.38-.22,10.91-.17,15.2-.4.05,0,.45,0,.65,0,8.43-.07,9.59-.09,20.1-.42,3.38-.1,6.27-.12,9.41-.18-1.34-.09-2.8-.18-7.98-.12l-3.79.16c-1.4.11-3.55.15-6.6.2-3.71.08-8.21.17-11.42.24-6.49.12-12.25.38-18.44.42l1.64.13c.41,0,.82-.01,1.22-.02Z"/><path d="m240.45,15.24c-1.94.15-3.52.29,4.27.16,2.51-.04.93.04.74.07-3.83.14-8.06.18-10.8.18-6.95,0-8.52.14-10.01.3l-1.42.03c-4.57.02-12.07.13-4.95-.2,1.28-.06,1.25-.12,1.83-.18,3.93-.07,7.88-.15,11.8-.22,2.54-.04,4.46-.08,4.71-.16l4.38-.07c-.17.03-.1.06-.55.1Zm-12.54.33c-.15,0-.41,0-.79.02.22,0,.43,0,.79-.02Z"/><path d="m67.14,4.13c-1.12.03-3.63.22-5.86.41-1.11.09-2.16.17-2.93.23-.77.06-1.25.08-1.26.04,0-.04.78-.15,1.74-.27.95-.13,2.07-.27,2.74-.36,1.39-.21,7.41-.7,12.2-.97,2.16-.11,4.21-.21,6.36-.32,2.07-.11,4.62-.16,6.14-.29,1.62-.14-4.1.16-3.05.04-7.05.21-15.81.92-23.1,1.41-2.3.15-1.78.22-3.63.39-1.78.2,6.24-.44-.34.17-2.2.3-7.98.93-7.08,1,1.36-.12,3.13-.27,4.02-.35,2.21-.14,2.17.04,7.77-.6.05,0,2.03-.12,3.28-.2,3.66-.25,7.14-.5,10.22-.75-1.06-.09-5.13.33-7.2.43Z"/><path d="m47.5,5.3c-1.82.17-3.14.3-4.09.35-2.38.14-6.87.59-10.36,1.11-3.12.45-5.94.93-6.27,1.09-.62.3,3.31-.2,12.07-1.24,2.14-.25,4.81-.49,7.24-.71,2.65-.36,1.62-.36-1.27-.12-2.92.24-5.59.59-7.65.91-.76.11-4.25.58-3.96.46.26-.11-1.77.08-.5-.15.78-.14,1.16-.24,3.53-.54,2.46-.3,3.55-.38,3.84-.36.31.02.67.02,3.42-.28,1.33-.15,2.33-.27,3-.35.67-.08,1-.14.99-.18Z"/><path d="m161.71,16.93c6.18-.04,11.95-.3,18.44-.42,3.21-.07,7.71-.16,11.42-.24,3.05-.05,5.2-.09,6.6-.2-5.22-.07-13.01.2-19.44.34-4.8.11-9.66.22-14.48.33-4.82.09-9.62.16-14.3.18l-.77.06c1.39.03,6.27.01-1.17.17-2.43.05-3.81.13.38.08,4.42-.1,7.64-.31,13.32-.3Z"/><path d="m176.98,4.73c-.1-.12-2.06-.15-6.55,0-3.31.11-5.45.13-8.12.12-2.72,0-7.34.23-9.92.18-6.41.28-13.43.4-20.14.66-2.29.09-3.59.15-4.64.23,6.17-.14,12.85-.36,20.05-.59,4.59-.14,9.24-.27,14.25-.33,4.36-.08,10-.19,15.07-.28Z"/><path d="m156.32,1.16l3.23-.06h4.79c.68,0,1.36-.02,2.05-.03,2.22-.07,4.43-.14,6.64-.21-3.92-.11-11.72.11-17.32.21-11.14.2-22.38.41-33.58.61l-2.99.08c5.04.06,10.47,0,16.36-.21,4.77-.11,9.8-.27,12.52-.14.72-.01,1.44-.03,2.16-.04.52-.01,1.03-.02,1.54-.04-.02-.03-.09-.04-.15-.05-.15,0-.31-.01-.47-.02h1.07s4.15-.11,4.15-.11Z"/><path d="m305.32,12.68c-4.26-.2-8.5-.4-12.81-.53-3.4-.13-6.67-.26-9.18-.42-2.29-.08-3.44-.12-4.59-.16-5.45-.2-10.75-.32-16.54-.57-3.01-.13-4.62-.07-5.52-.02,16.41.54,32.83,1.12,49.24,1.79l-.6-.09Z"/><path d="m245.46,15.47c-3.83.14-8.06.18-10.8.18-6.95,0-8.52.14-10.01.3,11.43-.17,22.86-.31,34.27-.63,2.76-.08,4.49-.03,6.73-.08,3.09-.08,7.85-.11,8.43-.25l-6.33.09-10.4.16-11.88.23Z"/><path d="m192.51,9.1c.15-.06-.83-.15,3.95-.04,2.98.07,5.53.1,5.01,0-12.25-.32-24.5-.58-37.22-.66l.07.05.43.04c.24,0,.48,0,.74,0,2.13,0,4.24.01,4.86.1.38,0,.77,0,1.16.01l4.49.1c.68-.06,2.2-.05,4.6.04,2.65.05,5.39.02,7.79.13.79.04-.41.05-1.71.05l-.12.03,1.45.09c2.63.11,2.87.02,4.48.05Z"/><path d="m223.22,15.98c-4.57.02-12.07.13-4.95-.2,1.28-.06,1.25-.12,1.83-.18-2.18.03-1.45-.03-1.59-.05l-2.92.06c.91.06-2.87.18-2.96.25l1.95-.03c-.15,0-.41.02-.43.02-.54,0-1.06,0-1.58,0-2.59,0-1-.1-1.55-.15-2.95-.03-5.96.03-9.07.19,5.18-.06,6.64.03,7.98.12,2.35.01,1.37.09-.84.19-2.14.1-4.47.17-7.3.19-3.34.02-6.52.06-7.18.22,7.52-.14,15.2-.38,22.63-.47,2.93-.03,4.47-.1,5.98-.17Z"/><path d="m148.39,17.23c-4.19.05-2.82-.04-.38-.08,7.44-.15,2.56-.13,1.17-.17-1.28.09-3.6.08-5.39.12.2.04-1.17.13-2.27.13-5.43,0-9.28.21-14.01.27-2.53.1-2.66.05-2.86,0-2.56-.02-3.2.04-3.94.1.22,0,.62,0,.65,0,1.06.1,4.62.05,8.52-.02,5.36-.1,9.09-.03,14.65-.14.14,0,.7.05,1.06.08l5.81-.03h3.08s.36-.12.36-.12c-6.59.09-6.97-.01-6.43-.15Z"/><path d="m68.2,18.57c-3.07.03-3.59-.05-5.57-.07-1.26-.01-2.53-.03-1.76-.08.58-.04,1.91-.04,3.13-.05,1.46-.01,3.3-.03,4.27-.04,1.83-.05,4.73-.13,4.39-.16-.8-.07-3.45.03-5.29.03-1.12,0-2.17,0-3.25-.01-1.41-.05-2.69.02-4.03.03-2.24.04-4.63.09-3.97.15,2.57.23-4.38.27-10.6.29.76.05,4,.03,4.25.09,5.11-.02,9.95-.03,15.11-.05,3.7-.03,2.9-.08,3.32-.13Z"/><path d="m127.51,17.5c4.73-.06,8.58-.27,14.01-.27,1.1,0,2.46-.09,2.27-.13-9.49.16-18.93.31-28.41.47-4.75.05-9.75.11-14.46.16-2.85.04-5.16.08-7.66.11-.83.15,2.48.14,6.81.04,6.72-.16,12.83-.26,18.42-.21.74-.02,1.48-.05,2.21-.07.74-.06,1.37-.12,3.94-.1h2.86Z"/><path d="m245.46,15.47l11.88-.23.12-.08c-1.62.03-3.05.04-2.8,0,.25-.05,1.89-.08,3.37-.11.55-.05.59-.09.62-.13-2.96.07-5.6.12-5.95.03-3.79.03-7.72.1-11.72.19-.17.03-.1.06-.55.1-1.94.15-3.52.29,4.27.16,2.51-.04.93.04.74.07Z"/><path d="m239.6,4.46l-6.03-.05v.04s.32.02.32.02l-.31-.02c-2.56-.07-3.94.18-7.2-.08-.51,0-1.42,0-1.47.01,1.07.15-4.48.12-6.39.2.32.04,1.66.05,2.85.06,1.57-.04,4.08,0,6.31.02,1.64.04,2.67-.09,3.55.02.93.12,3.65.09,5.18.14,2.61-.03,3.8.03,4.69.11,1.56.04,3.41.15,4.37.07l.67-.05c-1.83-.06-2.73-.14-5.3-.18-1.75-.06-1.08-.09-1.24-.12-7.98-.2,1.06-.11-.01-.2Z"/><path d="m168.59,8.95c-2.52-.09-5.46-.19-7.86-.28-4.92-.21-14.16-.25-18.1-.12,3.67.03,7.76.07,5.18.17,7.05.1,14.09.22,20.78.23Z"/><path d="m239.61,4.65c-7.97-.2,1.06-.11-.01-.2,1.6,0,3.26,0,2.85-.06,4.55.07,9.35.07,13.47.31.2.01.26.02.19.03-5.98-.03-6.47.13-6.14.3l-3.83-.08c-1.82-.06-2.73-.14-5.29-.18.17-.04.22-.07-1.24-.13Zm4.77-.03c-.96-.04-1.87-.02-1.57,0,.61.05-2.44.08,2.14.16,2.28.03,2.1,0,.44-.07-.31-.03-.29-.07-1.02-.1Z"/><path d="m135.13,5.17c1.39-.05,2.55-.01,4.13-.13,3.51-.25,3.84-.14,4.99-.12,1.05-.02,2.39-.04,3.11-.06,2.8-.11,5.45-.22,7.5-.18,1.69.04-.68.13-2.39.23-3.03.17-5.35.2-7.82.21-1.54,0-4.1.07-5.35.14-4.28.25-6.19.22-8.74.26,1.52-.12,3.04-.24,4.57-.36Zm16.67-.37s-.53.02-.56.02c-.06.01.02.02.04.03l1.16-.05c-.21,0-.4,0-.65,0Z"/><path d="m221.36,9.56c6.05.14,12.4.35,17.85.38,1.38,0,3.3.1,4.66.16,2.46.11,4.13.14,5.47.12-5.1-.27-11.29-.39-17.08-.52-7.5-.17-14.53-.47-22.1-.55-1.1-.01-2.45-.04-2.95-.02,1.53.11,4.14.19,7.15.21,3.62.02,5.33.11,7,.22Z"/><path d="m47.5,5.3s-.32.09-.99.18c-.67.08-1.68.19-3,.35-2.74.3-3.11.3-3.42.28-.29-.02-1.37.05-3.84.36-2.37.29-2.75.4-3.53.54-1.27.23.76.04.5.15-.29.12,3.2-.35,3.96-.46,2.06-.32,4.73-.67,7.65-.91,2.88-.24,3.92-.24,1.27.12.99-.07,1.98-.16,2.96-.3-.89-.07,4.89-.71,7.09-1-1.57.1-3.01.2-3.12.15l-5.53.55Z"/><path d="m106.66,6.52c-3.93.1-7.86.27-11.78.62-2.3.23-9.38.62-10.64.84l.54.09c2.58-.12,4.93-.26,7.05-.44.34-.04-.63-.02.93-.12l.48.04c.43-.02.9-.05,1.41-.07,6.1-.35,4.86-.49,10.46-.81,1.26-.08,1.58-.12,1.54-.15Z"/><path d="m305.04,14.69l-1.29-.05c-2.81,0-6.7.06-6.33-.08.03-.01-.31-.02-.89-.03-.58,0-1.4,0-2.34-.01-1.88,0-4.23.04-6.04.16-1.14.07-2.95.11-5.41.14.11,0,.16.02.2.03l-.11.11c7.33-.05,14.57-.06,22.22-.26Z"/><path d="m289.62,11.51c-.58.08,2.65.22,5.28.35,5.67.26,12.26.6,17.23.78,3.44.12,5.76.23,9.11.41,2.03.11.91-.02,1.08-.05-7.15-.42-14.09-.78-21.61-1.03-3.25-.13-7.37-.31-11.09-.46Z"/><path d="m190.34,4.42l-2.77.03c-1.48.06-3.52.13-3.18.2,7.46-.01,15.45-.13,23,0,3.05.05,3.98-.09,6.73-.11-.15-.06-3.05-.12-3.72-.11-4.64.09-8.42-.05-12.59-.03-2.69.22-4.96-.02-7.47.02Z"/><path d="m64.65,9.05c-.75.05-1.5.11-2.24.16-1.38.18-1.33.18,1.02.03,1.03-.06,2.41-.14,2.64-.13.79.02-3.38.3-4.05.4l3.14-.15,4.91-.32,9.94-.79c-6.79.33-6.65.28,1.41-.37-3.46.03-6.07.32-8.76.58-2.64.19-3.93.48-8,.59Z"/><path d="m45.52,18.66c6.23-.02,13.18-.06,10.6-.29-.66-.06,1.73-.11,3.97-.15-.7-.12-3.86,0-5.76-.01-1.36.12-2.25.26-9.41.17-1.18-.02-3.1-.01-3.58.03-.52.05.96.06,2.52.07h.67s-.6,0-.6,0l1.58.18Z"/><path d="m255.92,4.71c.2.01.26.02.19.03.66.07,5.3.16,4.43.23,1.2.13,2.94.16,4.72.14,1.56-.02,2.91-.05,5.25.13,1.79.03,3.05.17,4.72.16,2.11,0,.37-.12-1.42-.24-6.06-.2-12.48-.48-17.89-.45Z"/><path d="m278.48,2.87c-2.03-.23-7.08-.55-8.52-.77-.67-.11-7.07-.37-10.54-.48-.58-.01-.95-.02-1.41-.03l-.04.1c5.35.35,10.35.5,15.64.89l3.9.25c.51.03.83.05.97.05Z"/><path d="m194,9.41c-2.07-.15-15.57-.52-19.91-.54-4.29-.02-1.56.1-2.42.15,2.72.03,5.46.03,8.05.14.56.01,2.46.06,2.58.07,3.48-.06,7.86.13,11.69.18Z"/><path d="m67.14,4.13c2.08-.1,6.14-.52,7.2-.43,2.13-.07,4.24-.22,6.35-.36,3.52-.27,9.1-.51,13.24-.64-.83-.02-.74-.16-5.16.09-2.68.14-6.56.34-9.9.51l-1.84.15h-.59s2.32-.15,2.32-.15c-2.76.13,5.72-.59-4.38.11-.35.08.98.08-3.01.34-.8.11-4.44.33-4.23.39Z"/><path d="m286.6,11.49c.09-.01-.43-.06.85-.01-9.06-.36-18.6-.81-26.46-.83l.21.05,5.93.19c6.48.2,12.95.4,19.47.6Z"/><path d="m93.93,2.69c-4.14.13-9.73.37-13.24.64.49.09,3.76-.16,5.45-.23,1.62-.06,3.25-.12,4.89-.18,1.64-.04,3.28-.08,4.93-.12,3.29-.09,6.6-.18,9.86-.27-1.33-.18-7.75.09-11.89.16Z"/><path d="m201.18.7c-4.66.07-9.93.23-13.06.15-1.19-.03-2.91.04-3.2.1-.2.05.17.08-1.81.15-.63.13,3.29.01,5.36-.02,4.67-.09,9.41-.17,14.12-.26-.38-.04.8-.12-1.42-.11Z"/><path d="m225.06.15c3.26.07,6.64.15,8.98.12,1.51-.03,2.4.03,3.76.09,4.53.23,9.02.39,13.26.46-4.21-.29-9.49-.46-14.63-.59-3.79-.09-7.55-.14-11.32-.17l-.04.08Z"/><path d="m4.01,15.71c.26-.06.64-.16.96-.24.32-.08.58-.14.58-.16,0,0-.07,0-.23.02-.16.03-.4.07-.76.13-.71.16-1.93.31-3.66.94-.2.07-.45.26-.42.28.01.06.27.18.45.22.39.12.78.18,1.15.25.73.12,1.38.19,1.97.26,1.18.12,2.12.22,3.12.32.99.09.34.15,3.44.26,2.5.07,1.93-.02,1.46-.09-.45-.07-.69-.13-1.02-.2-2.46-.1-4.92-.22-7.37-.47-.61-.06-1.22-.14-1.82-.24-.3-.05-.59-.11-.87-.19-.13-.04-.28-.09-.36-.15-.05-.02-.05-.06-.04,0,0,.08-.02.07.01.04.39-.27,1.05-.44,1.61-.59.59-.15,1.19-.28,1.79-.4Z"/><path d="m296.32,5.92c-.5.09-.57.2,5.87.31l4.51.02c.95.01,1.89.02,2.84,0,.6-.03,1.34-.04,2.06-.14.09-.01.18-.04.22-.05,0,0,.01,0,.01,0,.02.04.04.08.07.11.05.06.07.03.02.06.03,0-.19.17-.13.12.01,0-.01,0-.03-.01-.13-.06-.33-.12-.52-.17-.38-.1-.78-.17-1.18-.24l-1.68-.19c-.07.03.38.1,1.05.22.65.12,1.58.25,2.22.47l.07.03s-.03.02.05-.09c.07-.08.15-.13.15-.14.11.02-.08-.04-.14-.25-.02-.05-.02,0-.06,0-.11.03-.28.05-.43.07-.32.03-.65.05-.98.06-.66.02-1.33.03-1.99.03l-4-.04-8-.18Z"/><path d="m65.16,9.35l-3.14.15c-4.22.32-8.67.75-12.26.91-.92.04-3.6.31-3.43.31.74-.01-5.08.51-.97.22,6.56-.58,13.74-1,19.81-1.59Z"/><path d="m297.76,6.32c-1.63-.02-4.07-.03-4.76-.06-2.77-.13-.15-.08.81-.08.64,0-.2-.05-1.32-.09-.64-.02-1.31-.04-1.82-.05-.51,0-.86,0-.88,0-.05.05.36.12.57.18,5.4.27,11.54.49,17.64.54l.19-.09c-.07-.01-.09-.02-.05-.03l-1.63-.02c-3.92-.02-7.66-.12-8.75-.3Z"/><path d="m105.11,6.67c-5.6.32-4.36.46-10.46.81,3.12-.08,6.3-.17,10.4-.52.46-.05.76-.11,1.4-.14,9.87-.52,2.6-.24.28-.19-.24.04.03.06-1.74.14l.35-.08c-.09,0-.17-.02-.23-.02Z"/><path d="m28.92,18.64c-1.3-.08-3.84-.19-6.44-.17-4.99.07-13.99-.39-17.32-.48,8.08.57,15.99.6,23.76.65Z"/><path d="m151.38,17.5l-5.81.03-3.04.02s-.62.08-1.55.1c-.93.02-2.17.04-3.4.06-5.73,0-11.11.11-16.17.29.49.03,2.05.04,3.1.02,8.68-.23,18.43-.25,26.87-.52Z"/><path d="m93.8,2.18c.3.11,1.3.18,7.02-.06,4.26-.17,9.64-.16,13.75-.32-6.19-.09-13.71.23-20.77.38Z"/><path d="m323.69,13.6c-1.98-.24-5.91-.53-10.22-.81.85.16-1.39.16-4.35.12,3.01.2,5.73.27,8.52.39,1.51-.02,3.93.17,6.05.3Z"/><path d="m158.15,1.65c-5.21-.04-16.05.16-22.55.42,6.43-.03,12.89-.21,19.33-.33.16-.08,1.74-.08,3.22-.09Z"/><path d="m164.87,4.51c1.74-.04,2.94-.08,2.9-.12h-1.91s-.42-.02-.42-.02h1.42s1.17.01,1.17.01c1.78-.03,2.64-.07,2.78-.11-5.45.07-10.19.05-16.23.26.53.12,5.61.01,8.98,0,.44,0,.87-.01,1.31-.02Z"/><path d="m100.9,18.21c-6.85.08-13.65.16-19.47.33,2.3.04,4.46.05,7.89-.06,4.35-.13,9.75-.12,14.55-.22l-.27-.08c-.88,0-1.79.02-2.69.02Z"/><path d="m217.67.3c-6.12.04-9.42.24-7.43.38l5.98-.04c-.92-.08,3.51-.13,2.64-.21-1.74-.03-1.01-.09-1.19-.13Z"/><path d="m80.01,8.24l-9.94.79c5.02-.28,10.01-.56,14.7-.96l-.53-.09-4.23.26Z"/><path d="m249.97,5.04l-3.83-.08-.67.05c5.58.14,11.25.33,16.43.35-1.66-.11-5.08-.22-5.71-.32-1.07-.01-1.98-.02-2.89-.03-.24.05-.38.09-3.33.03Z"/><path d="m225.06.15l.04-.08-7.43-.02c-1.52.09-1.41.17,0,.26,3.62,0,2.77.07,2.84.13.57.03,1.39.06,2.79.06,1.64,0,.66-.05.37-.07-1.13-.1-3.28-.22,1.38-.27Z"/><path d="m187.23,4.11l.09-.08c-5.08.03-10.64-.02-14.95.21.76.06-.37.21,5.27,0,2.45-.09,6.69-.03,9.59-.13Z"/><path d="m154.82,17.38l-.36.11c5.78-.02,10.99-.19,16.33-.35h-2.79c-2.96.02-3.01-.05-3.43-.1-.4,0-.81.01-1.22.02,0,.07-.23.14-1.41.19-1.18.06-3.31.1-7.12.13Z"/><path d="m220.1,15.6c3.93-.07,7.88-.15,11.8-.22,2.54-.04,4.46-.08,4.71-.16-5.25,0-11.09.2-16.55.27-.01.04-.02.07.04.11Z"/><path d="m168,17.12h2.79c4.26-.03,8.67-.04,12.14-.28-3.83.05-7.83.11-12.11.17-2.02.04-2.72.06-2.83.11Z"/><path d="m281.37,5.43c.16.02.21.03.51.05,2.13.13-6.05-.04.13.18,4.46.16,7.32.14,6.94,0-2.61-.1-5.39-.26-7.58-.23Z"/><path d="m221.36,9.56c-1.67-.11-3.38-.19-7-.22-3.01-.02-5.61-.1-7.15-.21-1.05-.01-2.4-.05-2.79-.02.86.06,1.73.11,2.59.17,4.65.1,9.25.2,13.88.3l.47-.03Z"/><path d="m147.81,8.72c2.58-.1-1.5-.14-5.18-.17-2.71-.04-4.42-.03-5.57.01l.07.08c3.49,0,6.98.02,10.68.07Z"/><path d="m323.07,14.44c-5.4.03-11.5.07-16.29.23,5.41.02,10.84-.16,16.26-.16l.03-.07Z"/><path d="m26.42,12.74c-.82-.2-7.08.69-10.7,1.14.24.03-.8.22,3.61-.34,2.2-.27,4.71-.55,7.09-.8Z"/><path d="m287.37,6.14c-.53-.07.03-.14-3.33-.25-4.54-.14-1.83.08-4.45.04,3.62.22,5.19.14,7.78.21Z"/><path d="m173.04.86c-2.21.07-4.43.14-6.64.21,4.18-.07,4.45,0,5.04.07.35.04,1.34.05,3.33.01.74-.02,1.91-.06,2.14-.08.66-.06-.97-.04-2.24-.03-4.62.03,3.7-.22-.31-.21-.42,0-.86.01-1.32.02Z"/><path d="m139.78,8.23c2.96-.02,6.97.25,9.27.07q-1.26-.13-9.27-.07Z"/><path d="m295.16,3.87c-3.9-.38-3.64-.44-4.52-.59-3.06-.27-6.42-.58-8.92-.68l.09.05c2.2.18,6.06.45,6.41.56.78.23,3.91.42,6.93.66Z"/><path d="m304.26,4.6c-1.91-.1,2.59.43,4.71.82.77.1,1.54.19,2.32.35.15.03.31.05.47.09.08.02.16.04.25.08.04.01.11.06.16.12.04.07.07.17.04.25-.04.1-.08.12-.12.14-.42.21-.67.2-1,.26.2-.01.39-.03.59-.06.1-.02.2-.03.34-.08.04-.05.21-.01.28-.34,0-.07-.02-.15-.06-.2-.04-.07-.04-.05-.07-.08-.03-.03-.09-.08-.12-.09-.44-.21-.77-.25-1.15-.34-.73-.15-1.45-.25-2.17-.35-1.45-.19-2.9-.38-4.48-.59Z"/><path d="m28.87,18.19v-.11c-2.78-.06-5.57-.12-8.65-.14.03.06-1.04.12,3.12.18,3.14.04,4.57.08,4.46.16,1.38-.01.95-.05,1.07-.09Z"/><path d="m309.12,12.91c2.96.04,5.2.05,4.35-.12-3.05-.07-7.51-.21-8.15-.11l.6.09,3.2.14Z"/><path d="m201.18.7c2.22,0,1.03.07,1.42.11l4.46-.05c.7-.13.79-.26-5.95-.17l.07.11Z"/><path d="m103.59,18.19l.27.08c2.89-.04,5.37-.09,7.48-.17-1.85-.22-4.84-.05-7.75.09Z"/><path d="m229.94,10.23s.3-.04.02-.07c-.82-.08,3.46-.08-1.16-.21-4.09-.11-.56.09-1.15.13-.17.01-1.53-.01-2.34-.02.99.07,1.89.14,4.64.17Z"/><path d="m323.69,13.6c-2.12-.13-4.54-.32-6.05-.3l3.26.19c1.23.06,2.28.13,2.85.19,2.01.1,4.03.21,6.04.35l-1.26-.13-4.84-.3Z"/><path d="m46.32,11.27s-.12.03,0,.03c.52,0-1.69.25,1.94-.05,1.24-.11,3.56-.35,1.19-.23l-3.12.26Z"/><path d="m212.62,15.86c.1-.07,3.87-.19,2.96-.25l-4.56.1c.55.05-1.04.15,1.6.14Z"/><path d="m53.04,4.75c.11.04,1.54-.05,3.12-.15,6.57-.61-1.45.03.33-.17-.28.01-.67.04-1.14.09l-1.97.18c-.41.04-.52.06-.33.05Z"/><path d="m280.59,2.99l-2.97-.17c1.31.17,4.92.41,7.16.62l.17-.06-.12-.08c-.8-.06-1.41-.11-2.02-.16-.23.02-1.24-.06-2.22-.15Z"/><path d="m49.77,18.75c-.25-.07-3.49-.04-4.45-.09l-2.37.03,1.91.05c1.57.02,3.21.03,4.91,0Z"/><path d="m311.09,6.73c.33-.07.58-.05,1-.26.03-.03.07-.05.12-.14.04-.07,0-.18-.04-.25-.06-.06-.13-.11-.16-.12-.09-.04-.17-.06-.25-.08-.16-.04-.31-.07-.47-.09.19.05.39.09.59.17.05.03.1.04.16.08.03.03.06.03.1.1.04.08.04.17-.02.24-.16.13-.25.12-.35.15-.41.07-.8.09-1.19.11-.79.04-1.58.04-2.36.05l-.19.09c1.03,0,2.04.02,3.08-.03Z"/><path d="m241.1,4.94c-.88-.08-2.07-.15-4.69-.11,1.25.06,1.76.16,4.69.11Z"/><path d="m281.2,14.86l-4.7.1c-.22.1,2.38.04,4.69,0v-.1Z"/><path d="m227.68,4.66c-2.23-.02-4.74-.07-6.31-.02,3.21.11,4.92.08,6.31.02Z"/><path d="m30.63,12.97c1.46-.16,3.15-.43,5.06-.66-1.63.17-2.6.23-5.06.66Z"/><path d="m328.53,13.9l1.26.13,1.48.13.73.08.17.03.08.02s.02,0,.02,0h0s.01,0-.01,0c-.03-.02-.06-.05-.08-.09-.03-.1-.02-.14,0-.2.02-.07.09-.12.14-.12h-.02s-.03,0-.07,0h-.18s.12.04.12.04h.11s.04,0,.04,0c.04,0-.06,0-.1.08-.02.06-.04.13.03.22.1.07,0,0-.02.02l-.11-.02-.49-.07-1.01-.11c-.68-.06-1.37-.1-2.08-.13Z"/><path d="m261.12,1.32s-.03.01-.2,0c.21,0,.44.02.69.03.14-.02.28-.04.42-.06l-.91.02Z"/><path d="m323.75,13.68c-.57-.06-1.62-.13-2.85-.19-.04.06.94.12,2.85.19Z"/><path d="m211.84.07c.17.03-.11.07,1.55.05,1.21-.01.98-.04.09-.05h-1.64Z"/><path d="m284.94,3.37l-.17.06c1.53.11,2.59.17,3.08.17l-2.92-.23Z"/><path d="m277.52,2.83l-3.9-.25c1.64.15,2.95.24,3.9.25Z"/><path d="m220.03,15.6l.03-.11c-.99.01-1.5.03-1.55.06.14.03-.59.08,1.52.05Z"/><path d="m93.24,7.55l-.48-.04c-1.56.1-.6.08-.93.12.48-.03.95-.05,1.41-.08Z"/><path d="m158.14,1.65c-1.48,0-3.06.01-3.22.09,1.35-.02,2.7-.03,3.22-.09Z"/><path d="m220.89,9.59c-4.63-.1-9.22-.2-13.88-.3-1.61-.03-2.32-.02-2.46.01l-.21.1c2.56.06,3.41.11,2.49.15-.43.02-1.03.04.67.08.5,0,1.28.02,1.94.03.66,0,1.18,0,1.18,0-.31-.16,6.48-.02,9.12-.04.54,0,.77-.02,1.14-.04Z"/><path d="m124.06,8.19c-3.15-.05-6.31-.09-9.38-.04,5.3.03.97.14,4.69.18l5.96.09c-.76-.08-3.93-.16-1.27-.23Z"/><path d="m283.33,11.73c2.51.16,5.78.29,9.18.42-.1-.05.38-.08-.45-.14-1.11-.08,3.37.03-.69-.13-2.81-.11-2.26-.03-1.96.03.14.03.15.11-1.67-.04-3.34-.26-2.65-.05-4.4-.14Z"/><path d="m176.01,8.72l-4.49-.1c-.58.03-4.42,0-1.04.1,3.58.1,4.79.05,5.52,0Z"/><path d="m186.69,8.93c1.3,0,2.5-.01,1.71-.05-2.4-.11-5.15-.08-7.79-.13.23.1,3.69.13,6.08.18Z"/><path d="m267.13,10.89l-5.93-.19c.32.08,2.19.16,4.56.23,1.83.05,1.23-.02,1.37-.05Z"/><path d="m332.01,14.04c-.41.02-.83.02-1.27.03l-.17.07c.45,0,.93-.01,1.4-.02.12,0,.24,0,.35-.02.16.02-.08-.02-.16-.04-.23-.04-.45-.06-.67-.08-.87-.08-1.63-.13-2.03-.13l1.68.15.83.1c.13.02.29.04.38.07-.04-.02-.05-.12-.01-.14.04-.02-.02,0-.02,0-.03,0-.06,0-.09,0h-.21Z"/><path d="m170.36,8.61c-.62-.09-2.73-.1-4.86-.1l.15.07c1.59.01,3.15.02,4.71.03Z"/><path d="m199.05,9.44c.32.01.63.03.93.04l.85-.02c-.39-.01-.84-.02-1.14-.03-.29,0-.43,0-.65.01Z"/><path d="m278.74,11.57l3.46.12c-.44-.04-.75-.08-1.34-.1-1.68-.07-1.66-.03-2.12-.02Z"/><path d="m188.02,9.06l-1.45-.09c-2.26.02-.49.05,1.45.09Z"/><path d="m165.65,8.58c-.4,0-.9,0-1.29-.01-.39,0-.69,0-.68.01,0,0,.58.03.88.03,1.37.02.98-.01,1.1-.03Z"/><path d="m204.35,9.4l.21-.1c-1.93,0-2.09.03-.21.1Z"/><path d="m245.04,10.46s-.26-.02-.47-.03c.03.02.26.02.47.03Z"/><path d="m327.52,14.14l-.07.04,3.08-.05c-.98,0-2,0-3.01,0Z"/><path d="m192.55,9.1l.34.02c-.13,0-.25-.01-.34-.02Z"/><path d="m164.75,8.5l-.43-.04c-1.29,0-1.03.02.43.04Z"/><path d="m198.35.6c1.81-.09,4.64-.19,2.56-.25-.89-.02-1.95-.04-3.82-.01-2.76.05-3.08.11-3.45.16,1.44.03,2.15.08.93.17-.56.04-.42.07,1.2.04,1.96-.03,2.27-.07,2.57-.12Z"/><path d="m71.38,3.73c3.99-.26,2.66-.26,3.01-.34-1.48.08-3.56.24-3.77.19-.11-.03-1.55.03-2.86.13-1.35.1-2.58.25-3.05.32-.78.12,1.8-.11,2.61-.14,1.59-.06,2.73-.1,4.06-.16Z"/><path d="m148.03,1.42c-2.72-.13-7.76.03-12.52.14,3.49.04,7.44.02,12.52-.14Z"/><path d="m151.73,1.34c-.51.01-1.02.02-1.54.04-.26.01-.42.02-.79.04-2.87.1-4.77.18-1.82.21.77,0,2.9,0,2.53-.04-.86-.07,8.57-.28,1.61-.25Z"/><path d="m184.71.62l-4.31.07c-.04.05-3.64.2.18.14,2.83-.04,4.8-.15,4.13-.22Z"/><path d="m164.35,1.11h-4.79c.12.03-2.47.13-.27.13,1.75,0,3.64-.06,5.06-.13Z"/><path d="m80.53,3c.87-.03,1.4-.05,1.91-.06.55-.03,1.08-.07,1.63-.1-.46.01-.88.02-1.39.04-.53.03-1.14.07-2.14.13Z"/><path d="m156.32,1.16l-4.15.11c-.19,0-.39.02-.6.03l.19.03c.93-.02,2.08-.05,2.99-.07.91-.03,1.59-.05,1.57-.09Z"/><path d="m188.53.54c-1.23,0-2.46-.01-3.71.08l3.71-.08Z"/><path d="m89.54,2.4c.43,0,.64-.02.85-.04-.15,0-.31.01-.85.04Z"/><path d="m27.75,12.08c-1.65.17-3.56.37-4.54.52-.73.19-5.74.67-7.72,1-.75.12-3.29.33-4.39.57-.68.14,1.8-.16,3.34-.31,1.56-.16,2.79-.3,4.94-.59,2.71-.37,5.86-.74,8.31-.87,1.47-.08,4.1-.39,5.64-.57,2.7-.3.51-.13-1.07,0-2.5.19-4.96.39-4.5.25Z"/><path d="m28.87,18.19c-.12.03.31.08-1.07.09-.35.04-4.01,0-2.2.09.64.03,2.09.07,3.04.08,3.2.02,1.08-.07,1.78-.1.39-.02.69-.03,1.27-.05,1.15-.02,4.51-.03,3.25-.08-1.45-.06-3.87,0-6.07-.03Z"/><path d="m17.98,18.17c-.32-.01-.62-.03-.92-.04h-.87c.39.02.82.04,1.14.05.28,0,.43,0,.65,0Z"/><path d="m56.01,9.62l1.48-.11c-.48.04-1,.08-1.48.11Z"/><path d="m68.6,10.11c-.3,0-.4-.03-2.4.1.27.01,1.23-.03,2.4-.1Z"/><path d="m121.69,5.77l-3.05.13s.67.09-.27.14c-1.65.1-3.13.19-2.58.22.27.02,1.18-.04,1.54-.07,1.32-.11,5.73-.28,4.55-.33-.39-.02-.15-.07-.19-.1Z"/><path d="m130.55,5.52c-.94,0-1-.05-3.14.03-.3.01-1.05.07-.96.08.42.04,2.48-.05,4.11-.11Z"/><path d="m164.87,4.51c-.44,0-.88.01-1.31.02,0,.01-.07.03.08.04.15,0,.51.01,1.37,0l-.13-.06Z"/><path d="m105.35,6.7l-.35.08c1.76-.09,1.5-.11,1.74-.14l-1.39.07Z"/><path d="m112.64,6.24l.53.02c1.44-.09-.04-.03-.53-.02Z"/><path d="m119.37,8.33c-3.72-.04.6-.15-4.69-.18-1.93-.02-3.29.04-4.3.09-2.13.1-4.75.23-.77.21,3.12-.01,4.75,0,6.01-.03,1.26-.03,2.14-.07,3.76-.08Z"/><path d="m94.28,8.94c2.15-.09,5.59-.15,5.4-.24-.06-.03-.93-.06-3.37.05-2.36.11-5.82.29-5.95.33-.26.08,2.81-.12,3.92-.14Z"/><path d="m96.62,8.62c-1.69.03-2.73.03-3.95.08-1.54.06-4.3.18-4.4.24-.06.03.95.02,2.59-.05,1.77-.08,3.48-.16,5.76-.26Z"/><path d="m76.1,9.72c-.2-.01-.21-.04-1.77.04-.49.02-.75.06-1.12.09l2.89-.14Z"/><path d="m102.55,8.54c-.48.03-.18.02.11,0h-.11Z"/><path d="m78.95,9.62l-.68.03-.68.03c.45,0,.91-.03,1.36-.06Z"/><path d="m254.98,1.11c.31.08,1.86.17,4.03.26,2.76.12,1.68,0,1.94-.03-2.69-.15-2.8-.04-5.97-.23Z"/><path d="m220.51.43c-.08-.06.78-.13-2.89-.13.23.05-.51.1,1.24.13h1.65Z"/><path d="m254.95,1.11l-.33-.03c.12.01.24.02.33.03Z"/><path d="m100.9,18.21l2.72-.02c-.48-.02.91-.09-1.27-.06-1.24.01-1.54.06-1.45.09Z"/><path d="m137.59,17.71c1.23-.02,2.47-.04,3.4-.06.93-.02,1.56-.06,1.55-.1-1.82.05-3.86.09-4.95.16Z"/><path d="m295.16,3.87c-3.02-.25-6.16-.44-6.93-.66-.35-.1-4.21-.38-6.41-.56,1.2.17,2.16.31,3.65.53,3.21.42,9.1.93,13.93,1.28.6.04.9.05,1.64.11,2.74.26,2.94.16.22-.19q-1.14-.14-1.79-.12c-.31,0-.23.06-2.3-.14-.63-.06-1.34-.17-2.01-.26Z"/><path d="m306.51,6.62l1.63.02c2.87-.13-1.59-.25-1.44-.39l-4.51-.02c-.43.11,5.52.3,4.32.39Z"/><path d="m310.07,5.93c.4.07.8.15,1.18.24.19.05.39.11.52.17.01,0,.04.02.03.01-.07.04.16-.13.13-.12.06-.02.04,0-.02-.06-.03-.03-.06-.07-.07-.11,0,0-.01,0-.01,0-.04.02-.14.04-.22.05-.73.1-1.47.11-2.06.14.05,0,0,.01.15.02,1,0,1.41.02,1.87,0,.11,0,.23-.02.34-.05.04,0,0-.04.07,0,0-.01-.06.01-.03.02l-.02-.02s-.11-.07-.19-.1c-.31-.12-.74-.22-1.35-.33-3.59-.56.4.18-.29.14Z"/><path d="m302.19,4.79c-.43-.04-.93-.08-.89-.07.13.03.45.09.7.14.2.01.55.04.55.03.01-.02-.2-.06-.36-.09Z"/><path d="m280.59,2.99c.99.08,1.99.17,2.22.15-.94-.08-2.25-.21-2.22-.15Z"/><path d="m284.83,3.29l.62.03c-.27-.02-.54-.03-.62-.03Z"/><path d="m80.01,8.24l4.23-.26c1.25-.22,8.34-.61,10.63-.84-.23-.04.36-.13-3.04.06,1.45-.01-1.02.16-2.58.27-1.91.14-2.82.14-3.54.14l-4.3.26c-8.06.65-8.2.7-1.41.37Z"/><path d="m85.71,7.62c.72,0,1.63,0,3.54-.14,1.56-.11,4.03-.29,2.58-.27-2.32.13-5.2.27-6.12.42Z"/><path d="m64.65,9.05c4.08-.11,5.36-.4,8-.59-3.25.15-5.67.37-8,.59Z"/><path d="m55.98,9.63l1.54-.12c-.51,0-1.03.04-1.54.12Z"/><path d="m249.97,5.04c2.94.07,3.09.02,3.33-.03-.44-.08,1.09-.03,2.73.03.92-.05.28-.16,4.51-.07.87-.07-3.77-.15-4.43-.23-5.98-.03-6.46.13-6.14.3Z"/><path d="m297.73,6.32l1.88.05c-1.06-.06-1.33-.04-1.88-.05Z"/><path d="m258.54,15.04c-.72.05-.91.08-1.1.12,3.02-.06,6.02-.11,9.02-.17,2.71-.05,2.77-.1,2.88-.15-1.61.02-3.59.07-4.54.04l-6.25.15Z"/><path d="m300.71,14.32c-.06-.04-.21-.08-1.87-.06-.75,0-1.74.05-2.62.08,1.07.03,2.83,0,4.49-.02Z"/><path d="m264.8,14.89c.96.03,2.93-.02,4.54-.04-.92-.03-2.77,0-4.54.04Z"/><path d="m282.74,14.8s1.41-.06.08-.06c-.14,0-.56.01-.69.01-.87.04-.36.05.61.05Z"/><path d="m190.34,4.42c2.52-.04,4.78.2,7.47-.02.42-.16-5.04-.06-7.55-.08.04.04.06.07.08.11Z"/><path d="m221.65,4.37h-.61c.19,0,.38,0,.61,0Z"/><path d="m190.26,4.31h-.33c.12,0,.23,0,.33,0Z"/><path d="m327.52,14.14h3.04s.17-.08.17-.08c-2.13,0-3.16.03-3.21.08Z"/><path d="m154.82,17.38c3.82-.03,5.95-.07,7.12-.13,1.18-.06,1.4-.12,1.41-.19l-1.64-.13c-5.68,0-8.91.2-13.32.3-.54.14-.16.24,6.43.15Z"/><path d="m227.12,15.6h.65s-.27-.02-.65,0Z"/><path d="m152.18,1.27h-1.07c.16.01.32.02.47.03.2,0,.4-.02.6-.03Z"/><path d="m212.57,15.86c.52,0,1.04,0,1.58,0,.01,0,.28-.01.43-.02-.65,0-1.3.02-2,.03Z"/><path d="m127.51,17.5h-2.86c.2.05.34.1,2.86,0Z"/><path d="m257.44,15.17c.2-.04.39-.08.59-.12-1.48.03-3.12.06-3.37.11-.25.05,1.18.04,2.78,0Z"/><path d="m240.84,4.78c.17-.04.22-.07-1.24-.13.16.04-.51.07,1.24.13Z"/><path d="m233.58,4.44l.31.02c-.11,0-.22-.01-.31-.02Z"/><path d="m245.39,4.72c-.31-.03-.29-.07-1.02-.1-.96-.04-1.87-.02-1.57,0,.61.05-2.44.08,2.15.16.15-.02.29-.05.44-.07Z"/><path d="m245.39,4.72c-.15.02-.29.05-.44.07,2.28.03,2.09,0,.44-.07Z"/><path d="m152.45,4.8c-.21,0-.4,0-.65,0-.03,0-.53.02-.56.02-.06.01.02.02.04.03l1.16-.05Z"/><path d="m43.93,18.48h.6c-.22,0-.45,0-.6,0Z"/><path d="m78.77,3.29l-2.32.16h.59c.61-.06,1.23-.11,1.74-.16Z"/><path d="m165.86,4.4h1.91c-.14-.03-.53-.04-.92-.04l-1,.04Z"/><path d="m256.03,5.04c-1.64-.06-3.17-.11-2.73-.03l2.73.03Z"/>
                  </g>
                </mask>
              </defs>
              <path class="mask" d="m26.74,7.98c14.6-1.94,36.84-4.39,64.6-5.43,8.53-.32,14.71-.39,19.25-.45C197.08.98,209.56-.46,243.64.74c35.88,1.27,68.55,4.51,68.38,5.49-.24,1.38-64.9-3.26-149.66-1.52C77.08,6.47-.07,14.1.34,16.7c.52,3.34,129.42.82,163.05.27,22.54-.37,32.18-.7,52.5-1.15,11.35-.25,32.34-.65,55.23-1.01,21.87-.35,32.81-.51,45.65-.58,13.26-.08,15.63-.01,15.64-.13.02-.72-96.1-5.15-209.77-5.75-3.76-.02-6.88-.03-9.05-.04,0,0-8.24-.03-34.71,1.21-24.85,1.17-57.87,2.67-69.68,9.53-1.45.84-4.81,2.79-4.07,5.03.89,2.71,6.63,4,8.09,4.25"
                    mask="url(#path-mask)" stroke="black" stroke-width="2" fill="none"
                    stroke-dasharray="1271.5252685546875" stroke-dashoffset="1271.5252685546875">
              </path>
            </svg>
        