
            <svg xmlns="http://www.w3.org/2000/svg">
              <defs>
                <mask id="path-mask">
                  <g fill="white">
                    <path d="m77.82,5.48c1.47.06.54-.07.84-.1l1.05.1c.86.11,1.85.23,2.68.33,1.68.24,4.84.41,6.2.38.93.08,1.51.11,1.91.09,1.23.13,3.07.2,4.01.36.26.08,1.33.23.42.22-.66,0-1.37-.04-2.42-.16-.87-.1-1.65-.16-2.15-.14l-.82-.06c-1.01-.04-2.37-.33-3.17-.22-.32-.03-.9-.07-.91-.07-.81.09-2.67-.11-4.29-.23l-.02-.04c.44.01.35,0-.15-.04-.08,0-.17,0-.25-.02l-.05-.06c.28.02.68.05.68.02,0,0-.2-.03-.3-.04-.47-.03-.34,0-.39.01l-1.6-.08c-.13,0-.26-.02-.4-.02.2-.02,1.52.04.36-.07-1.22-.12-1.64-.09-1.9-.05-.24.04-.76.02-1.58-.07-.07-.09-1.26-.13-2.08-.19l.04-.02c.78,0,.17-.04-.49-.09-.9-.11-.98-.03-1.55-.06l-.11-.02.13.02c-.06.05.28.13-1.36.01-1.02-.07-1.89-.1-1.72-.01l-1.01-.05-.88-.15c.55.03.79.02.84,0,.66,0,.72-.02.08-.09-.88-.06-1.17-.1-.85-.13.15-.01.36-.03-.23-.07-.34-.02-1.07-.03-1.07-.03.1.14-2.23.01-3.14.04-.19,0-.26.02-.39.03l-.16.03c-2.07-.1-4.25-.25-6.12-.23-.47,0-1.13-.06-1.6-.1-.84-.07-1.41-.08-1.88-.05l-3.99-.22-.07-.04c-.11-.06-.75-.12-1.56-.14-.63-.02-.42.03-.47.06-2.22-.06-4.44-.12-6.77-.18l.09.02s.15.04-.29.03c-.13.02-.17.05-.74.02.2-.08-.91-.14-1.81-.18-1.95-.09-4.21-.21-5.91-.2-1.18,0-1.98,0-3.13-.04-.7-.02-.31.05-.37.09l-6.69-.12v-.07c.45-.03.35-.07.13-.12-.37-.08.2-.11,1.39-.08h1.06c.63,0,1.39.02,1.67-.03l-1.16-.04c-.15-.04-.83-.08.06-.1.46.05.93.06,1.41.03l1.67.04c.68.13,2.03.23,3.51.34,1.05-.05,2.58-.06,2.8-.16,1.46.05,2.92.12,4.4.13.03.04-.13.08.15.11.38.05-1.16.06.24.1.96.03.78-.03.67-.07-.05-.02-.05-.09.57,0,1.14.16.91-.02,1.9.04.15.02.26.06.46.07.57.03.57-.01.73-.03,1.87.08,3.69.09,5.67.22,1.03.07,1.59,0,1.9-.06l9.17.43s-.11.04,0,.06c.28.07-1.19.09.39.17,1.4.07.2-.08.4-.12.06-.01.52,0,.8.01,2.59.06,5.38.23,8.06.39.78.05,2.05.04,2.67.18.7.13,5.32.53,6.81.6Zm-8.86-.68h-.29c.13.02.29.03.39.04.1,0,.15,0,.22,0-.11-.01-.21-.02-.32-.03Zm-15.24-.69c-.06,0-.14,0-.21-.01,0,.01.09.02.21.01Z"/><path d="m37.43,7.35c-3.42.17-6.81.22-10.21.33-.46-.18-2.66,0-4.08.02-.29-.05-.25-.12-1.77-.01-.92.06-2.25.09-3.43.14-.95,0,1.96-.3-1.51-.1-.51,0-1.22.06-1.3-.01-.04-.03-.53-.06-.98-.03-.46.03-.89.08-1.05.12-.27.07.62.01.9.02.55.02.94.05,1.4.07-.28.06-1.53.07-1.46.14-.77-.08-3.45.14-3.45,0,0-.07,1.08-.19,1.54-.29.48-.11,2.55-.19,4.19-.22.74,0,1.45-.02,2.18-.02.71-.02,1.59.01,2.11-.06.55-.08-1.41.01-1.05-.07,1.13-.09,2.32-.15,3.63-.15.1.11.45.19,2.41.02,1.46-.12,3.31-.02,4.71-.19l.54-.02h1.03c1.73.06,3.59.02,5.61-.16,1.2.05,2.56.05,4.3-.09l.74-.03c-.09.01-.14.03-.27.04-.98.08-1.63.15-.62.19.27.01,1,0,.87-.03-.3-.07,2.94-.22.56-.25.64-.04,1.58-.06,1.56-.13l1.11-.04s-.84.12-.09.12c.6,0,1.25-.04,1.74-.09l.7-.02c1.44-.04,1.53.03,1.74.1.12.04.46.06,1.15.03.26-.01.66-.04.73-.06.22-.05-.33-.04-.77-.04-1.58,0,1.26-.19-.11-.2.34-.08,1.23-.11,2.06-.15v.05s-1.23.16.08.14c.97-.02,1.65-.11,1.45-.18l1.27-.05h1.76c.5.03.74.08.32.16-.19.04-.14.06.42.05.67-.02.78-.06.88-.1h.95s.03.1.03.1c-1.6.06-3.4.18-4.48.08-.41-.04-1,.02-1.09.08-.07.04.06.08-.62.13-2.77.21-5.63.33-8.56.37-1.79-.07-5.51.08-7.73.31Zm-18.24.29c.19,0,.37-.03.56-.04-.16,0-.3-.02-.48-.01-.18.01-.39.02-.73.05.3,0,.48.02.65,0Z"/><path d="m92.49.69c-1.33.04-1.95-.02-2.64-.07-.34-.03-.12-.11-1.18-.07-.86.03-.66.09-.5.14.15.05.24.1.35.14l-3.15.05c-.01-.05.35-.13-1.07-.1-1.08.02-1.57,0-1.53-.08.12-.04,1.38-.07.75-.12-.22-.02-.72-.03-1.04-.03-1.1.02-.37.08-.61.11-.13.02-.23.04-.44.06-.39.04-1.55.07-1.11.11.5.04,1.33-.05,2.08-.04v.1c-2.98.06-5.88.07-8.74.06.47-.11.77-.24,3.23-.18.41,0,1.06,0,1.23-.05.18-.05-.33-.05-.89-.05-.18-.05-.36-.11-.48-.16l.81-.04-.66-.04c1.94-.09,3.76-.1,5.47-.04.45.06,1.32.12,2.21.05,1.71-.14,4.8.01,5.94-.2,1.66.03,3.42-.02,5.12-.03-.07.12,1.24.12,2.33.08.98-.04,1.55-.03,2.28,0-.25.11-1.98.05-2.67.12-.26.03-1.14-.07-1.52.01-.24.05.62.08,1.15.11.54.03.96.04,1.71,0,.94-.06,2.03-.1,2.87,0,.5.06,1.41,0,1.94-.02.93-.05.18-.07-.37-.1-.86-.04-1.71-.08-1.55-.17l.55-.04c.96.13,2.82.06,4.39.06.61,0,2.02-.06,1.61.08-.1.03,1.81-.03,1.86-.06.11-.07.63-.07,1.32-.07h.51c.95-.03,2.08-.09,1.69.05-.48.08-.46.08.35.1.36,0,.83.03.91.05.27.07-1.17.06-1.39.11-1.45.02-2.98.1-4.22-.02-.32-.03-1.24.02-1.18.03.25.05-1.75.08-.34.13-.06.03-.22.04-.8.04-1.9,0-3.8-.04-5.73.03-.27-.25-2.44-.03-3.69-.03-1.45.01-2.53.12-4.07.11.36-.07,1.46-.18-1.11-.1Zm-6.04-.04l.3-.03c-.13,0-.28,0-.39,0-.1,0-.15.02-.22.03.11,0,.21,0,.32.01Z"/><path d="m126.88,9.99c1.82.16,4.03.45,5.72.57,1.47.24,3.75.41,5.5.63.5.06.69.08,1.05.1,1.1.09,1.39-.04.18-.19-1.27-.16-1.67-.23-1.99-.31-.33-.08-.95-.2-2.18-.25-.13,0-.64-.05-.85-.08-2.09-.26-4.1-.43-6.17-.66l-14.24-1.52v.05c.41.04.73.08.82.11.71.07,1.55.15,2.13.21,1.4.15,3.14.29,4.24.48.66.11,5.48.71,6.47.79.16.01.34.02.31.01-.23-.09.68.04,1.09.1.49.08.8.13,1.23.19.24.04,1.02.1.94.12-.05,0-.49-.02-1.09-.08-1.25-.12-3.01-.33-3.18-.26Z"/><path d="m145.44.33c-1.25-.04-2.73-.1-3.56-.03.36.02.82.06,1.07.06.96,0,1.87,0,2.58.12.58.1-.24.09-.83.12-1.04.04-1.84-.02-2.68-.1-.53-.05-1.41-.09-1.84-.07-1.47.07-2.12-.03-3-.1-.56-.01-1.27,0-1.41-.06-.03-.01.23-.03.33-.03.74.01.76.06,1.08.1l1.58-.15c-1.03-.16-2.38-.09-3.65-.07.03.05-.05.09-.97.09.02.03-.07.07.06.1.4.1-1.11.07-1.57.11-.12.01-.44.02-.53,0-.19-.05.32-.07.89-.1.32-.01.08-.08.1-.12-.5.04-1.93-.04-2.08.05.18.01.69.02.2.05l-.18-.05c-.73-.03-.28-.11-1.19-.11-.32,0-.58.07-.87.1.01.03-.1.05-.53.07l.08.03h.48c.79.06,3.29.13-.1.16-.22,0-.32.04-.48.07,1.46,0,2.99-.04,4.31.07.16.01,2.12-.05,3.43-.04.36-.04.81-.04,1.59-.03,2.3.02,4.71.16,6.91.15.88.14,2.47.1,3.38.29.11.02.21.05.31.08.04.02.1.03.12.05.01,0,.04.03,0-.02,0-.02,0-.04,0-.07.01-.04.03-.05.02-.04-.08.04-.35.1-.54.13-.43.07-.88.14-1.44.24-1.52.24-2.2.24-2.24.13l-2.53.22c.12.06-.57.15-1.08.24,1.17,0,2.38,0-.07.26-.31.03-.11.05.21.04.99-.14,2.45-.16,3.28-.29,1.92-.31,1.54-.15,1.81-.11l.54-.06s.33-.1.95-.18c.07-.07.47-.11,1.07-.28l-.06-.04c.07-.02.14-.04.2-.07.04-.02.15-.06.14-.19-.04-.1-.09-.11-.11-.13-.02-.02-.04-.03-.06-.04-.05-.03-.02-.03-.01-.04-1.18-.33-2.91-.35-3.09-.51Z"/><path d="m98.14,7.11c.66.06,1.12.08,1.47.08.73,0,1.63.04.28-.14-2.13-.27-2.23-.14-3.35-.21l-2.03-.21c-.94-.17-2.78-.23-4.01-.36l-.02-.07c1.18.1,2.55.13,3.43.26,1.11.16,2.27.24,3.57.33,5.13.37,10.27.83,15.42,1.37.09.04.08.06-.56.01l-.99-.09-.51-.07c-.15-.03-.31-.04-.46-.04-3.26-.29-3.71-.3-2.48-.08.03,0,.05.01.07.02,2.88.2,3.63.46,6.44.73,1.17.11,2.72.27,3.03.39-.77-.08-1.63-.1-1.88-.17-.48-.12-1.28-.17-2.07-.25-2.79-.3-5.52-.53-8.39-.78-4.09-.34-8.31-.72-12.5-1.03-.83-.06-2.16-.14-2.22-.23.49-.02,1.28.03,2.15.14,1.05.12,1.76.15,2.42.16,1.08.11,2.15.23,3.21.26Zm5.14.26s.31.1,1.15.16c.81.06,2,.13,2.04.1.1-.05-.96-.09-1.34-.13-.74-.06-1.91-.22-1.85-.13Zm2.38.43c.53.05,1.47.13,1.51.09.02-.02-.32-.08-.88-.13-.6-.04-1.19-.09-1.97-.15.57.08.93.14,1.35.18Zm-3.09-.45l-.31-.03h.04c.23.03.24.03.27.03Z"/><path d="m65.08,6.27c1.27-.08,2.27-.12,3.71-.15,2.09-.04,4.69-.2,7.05-.32,1.19-.06,2.46-.07,3.56-.19v-.1c-.26-.03-.93-.08-.13-.13,2.37-.16,2.04-.33,3.68-.49-.87.04-1.65.1-2.33.17-.09,0-.16.01-.22.02-.09.05.29.09-.66.16-.74.05-1.28.06-1.39,0h-.12s.11,0,.11,0c1.1-.02,1.13-.13,2.04-.17.06,0,.08-.02.07-.02-1.05-.06-2.32.11-3.46.14-1.45.17-2.99.24-4.54.22-.46,0-.77-.03-1.29.06-.79.13-1.96.15-3.07.17-1.59.15-.85.21-.46.28.1.02.44.04-.12.08-.48.03-.76.02-.96,0l-.57.03c.3.06-1.21.17-.89.23Z"/><path d="m54.1.86c-1.01-.04-2.06-.07-3.46,0-1.74.13-3.58.18-5.55.14-.37.05-1.07.08-1.7.11h-1.04c.12.02.32.08.37.08,1.91-.06,3.19.04,5.03,0,1.34-.03,2.56-.05,2.92.05.02,0,.15,0,.22,0,.25-.02.51-.03.76-.05-.23-.12,1.12-.13,2.15-.14,3.38-.03,6.78-.15,10.21-.14,2.07,0,2.18-.03,1.2.12-.3.04-.5.09-.74.13,1.97-.06,4.25-.03,5.84-.18-.37,0-.73,0-1.11-.01-.63,0-1.54.09-1.81.02-.11-.03.88-.1,1.51-.14.33-.02.97-.03,1.47-.04.42,0,.87-.01,1.07-.05.26-.04-.17-.06-.61-.07-.68-.02-.86-.09-1.91-.07-1.33-.05-2.79-.07-4.54,0-1.99.13-4.33.17-6.68.2.03.03-.07.06-.5.07-.75.01-.27-.04-.44-.07-.99.11-2.01.26-2.65.03Z"/><path d="m111.35,8.07l-.51-.07-.23-.02-.23-.02c-3.26-.29-3.71-.3-2.48-.08.03,0,.05.01.07.02,2.88.2,3.63.46,6.44.73,1.17.11,2.72.27,3.03.39.85.05,2.36.23,3,.25-.8-.13,0-.11.42-.07,1.24.14.48.11.65.16.04.01,0,.01,0,.02.94.16,2.57.27,3.64.42.66.05,1.24.11,1.74.19.18-.07,1.94.14,3.18.26.6.06,1.04.09,1.09.08.08-.01-.7-.08-.94-.12-.43-.07-.74-.12-1.23-.19-.41-.06-1.32-.19-1.09-.1.03,0-.15,0-.31-.01-.99-.08-5.81-.67-6.47-.79-1.1-.19-2.83-.33-4.24-.48-.58-.06-1.43-.14-2.13-.21-.69-.05-.72-.08-.82-.11v-.05s-1.01-.11-1.01-.11c.09.04.08.06-.56.01-.13,0-.22.01-.39,0-.53-.05-.53-.07-.6-.09Z"/><path d="m87.52,4.7l.04.04c.42.06.75.12,1.27.17,1.11.11,3.14.02,4.8-.2.21-.03.31-.06.56-.08.94-.08,1-.2.06-.2q-.39,0-.61.09c-.1.04-.07.09-.78.12-.22.01-.46-.02-.7-.03-1.35.04-1.26-.05-1.57-.1,1.53-.12,3.1-.19,4.69-.25-.65.14.91.09,1.64.11l.8-.11,1.61-.12s.03.02.02.03c-.98.17.56.2.51.32l-.97.05s0-.01-.05-.01c-.69,0-.57-.13-1.42-.06-1.25.09.15.11-.08.18l-.58.11c-2.36.11-4.77.26-7.08.32l-1,.05-.05-.07.21-.03-.28.03-.63.03c-.32,0-.78,0-.76.06l-1.02.09.14-.02h.16c-.7-.04-2.44.05-2.94-.05-.24-.05-2.42.17-3.61.28-.19.02-.32.04-.48.06-.26-.03-.94-.08-.14-.13,2.37-.16,2.04-.33,3.68-.49,1.58-.12,3.11-.19,4.57-.2Zm6.76.04s.16.03.25.04c.07-.01.19-.03.19-.04,0-.02-.07-.03-.13-.05-.15.02-.32.04-.31.04Z"/><path d="m134.14.21c.92,0,1-.04.97-.09l-.86-.02h-.66c-1.65-.04-3.24-.08-4.99-.04-.71.02-1.75.02-2.6-.02-.93-.04-2.7-.04-3-.03-3.17.12-6.24.07-9.28.02-1.12-.02-1.82.04-2.74.04l-14.03.11c-.5,0-1.02,0-1.31.04-.07.12,1.24.12,2.33.08.98-.04,1.55-.03,2.28,0,.34-.05,1-.04,1.57-.05l.55-.04c.96.13,2.82.06,4.39.06.61,0,2.02-.06,1.61.08-.1.03,1.81-.03,1.86-.06.11-.07.63-.07,1.32-.07.17-.03.34-.03.52,0,.94-.03,2.07-.09,1.68.05h.77c.81-.06,1.64-.1,2.75-.04.93-.08,1.83-.19,3.01-.02h1.48c.32-.08,1.31-.05,2.11-.05,1.17,0,.96.05,1.04.1,1.35-.12,2.7-.08,4.05,0,.29-.04.55-.1.87-.1.91,0,.46.09,1.19.11.13-.09,1.56,0,2.06-.05h1.05Z"/><path d="m108.54,4.13c.73.02,1.52.02,2.59-.1-.61-.02-1.22-.05-.5-.16.57-.08,1.01-.01,1.62-.07.81.07,1.27-.02,1.8-.11.61-.1,1.2-.15,1.62-.07,1.45-.1,1.22-.17,1.48-.25-.22-.07-1.39-.03-1.97-.06-.97-.02-2.25.03-3.47.12-.92.07-1.71.11-2.59.14-.9.09.04.16-1.51.25-1.15.06-.97-.03-1.15-.07l-1.02.06c.08.05.22.09.2.14,0,.03-.48.07-.92.09-.38.02-.67.01-.46-.02.32-.05,1.22-.13.27-.12-.24,0-1.07.11-1.63.17-.18.02-.27.06-.63.04l.64-.04c-.4-.12-1.67-.03-3.02.08-.41.14,1.64.09,1.5.2,2.2-.18,2.18-.08,2.02.03.89-.06,1.62-.03,2.53-.11-.14-.11.84-.27,2.37-.33,2.12-.09-.68.14.06.16.1,0,.12.01.18.02Z"/><path d="m3.5,3.13l.84.02h1.61s.59-.01.59-.01l-.05-.03c-.35-.02-.52-.04-.23-.06.04,0,.19,0,.24,0,.46.02-.03.04-.03.06.84.01,1.46,0,1.86-.05.62-.08,1.43-.08,2.07-.05s1.13.07,1.11.09c-.13.12,1.21.13,2.17.18,1.22-.03,2.43-.05,3.66-.08.54,0,1.58.02,1.29-.05-.24-.06-1.38-.04-1.66-.06-.88-.07-2.26.07-2.75-.07-.67-.02-1.47-.03-1.57-.09-.57,0-1.17,0-1.54-.05-1.25-.02-2.5-.05-3.74-.07-1.22-.03-2.37-.01-3.51-.01-.57,0-1.15,0-1.73-.02-.29-.01-.59-.02-.88-.05-.07,0-.15-.02-.21-.03h-.05s.04.02.02.05c-.05.12,0,.03.03.04.14-.03.29-.05.44-.06v-.08c-.16.02-.31.04-.45.07-.08.03-.12.02-.02.04.07.02.14.02.2.03.27.03.51.05.66.08-.02.02-.04.04-.16.05-.06,0-.16,0-.29,0-.07,0-.15,0-.24-.01-.05,0-.1-.01-.15-.02l-.09-.02s-.01,0-.07-.03c-.04-.03-.09-.08-.07-.13-.03.06.05.14.09.16l.06.03s.08.03.12.05l.22.07c.74.06,1.46.07,2.19.09Z"/><path d="m140.79,2.26c-.32,0-.52,0-.21-.04,2.45-.27,1.24-.26.07-.26l-.95.08.03.1h.12s-.11,0-.11,0c-.86.03-2.73.23-2.59.07-1.43.11-2.73.06-4.31.25-.23.03-1.23.05-1.28,0l-1.51.07c-.65.12-2.55.26-2.18.36.02,0-.33.03-.5.05-1.13-.14-1.59.14-2.47.15,0,.01,0,.02,0,.03,2.59.04,3.19-.16,4.09-.33l.2-.02-.21.02c.26,0,.63-.02.93-.03.3,0,.55-.02.56,0,.27.23,2.14-.03,3.67-.14,1.59-.11,3.41-.28,4.82-.27.69-.02.59.08,1.8-.02l.03-.07Z"/><path d="m58.94,6.28h.95c2.31-.08,2.28.03,2.05.16.76,0,.72-.06,1.09-.08-.69-.13.44-.32,2.53-.42-.49-.06-.53-.14,0-.25-.53-.06-.98.02-1.44.06.31,0,.39.03-.03.05-.57.03-.48-.01-.53-.04-1.23-.06-3.02.09-4.32.15-2.13.09-4.45.13-6.47.31v.05s1.49-.04,1.49-.04c.46-.08.88-.07,1.31-.05h1.76c.13-.05.23-.11,1.18-.14.64-.02,1.01,0,1.31.02.71.05-.25.14-.87.23Z"/><path d="m14.22,3.02c.49.14,1.87,0,2.75.07.28.02,1.42,0,1.66.06.29.07-.75.04-1.29.05-1.23.03-2.44.05-3.66.08l.44.07h.59c1.65-.07,3.74.02,5.59.02.44-.03.34-.07.12-.12-.37-.08.2-.11,1.39-.08l.02-.03s.37-.06,1.1-.04c.15,0,.3,0,.44,0-.15-.04-.83-.08.06-.1l-.04-.04c-2.92-.08-5.84-.16-8.79-.15.47.08,1.34.17-.39.21Z"/><path d="m29.54,1.34c-.61.02-.55-.12-1.63,0-.81.1-1.57,0-2.38.06-.22.14-1.32.14-2.46.12-.97-.02-1.77.03-2.51.09-.76.07-1.09.13-.29.17,1.08-.02,2.07,0,3.23-.06,3.61-.18,4-.19,6.9-.15.07,0,.21,0,.22,0,1.47-.16,3.71-.03,5.21-.18-.14-.06-.16-.12-1.18-.13-.03.04-.27.06-.97.06-1.47.02-2.84.02-4.15.01Z"/><path d="m14.22,3.02c1.73-.04.86-.13.39-.21-1.14-.05-1.9-.13-3.54-.05-1.18.06-3.53-.04-5.41-.06-1.26-.01-2.57-.02-3.86-.07l-.48-.03-.23-.03-.08-.02s.09.04.1.1c.01.06.02.09,0,.17-.12.16-.08.07-.07.09.23-.06.6-.09.9-.11.64-.05,1.29-.08,1.92-.11,1.12-.04,1.86-.08,1.73-.17-.12-.09-1.03-.04-2.04.03-.7.04-1.4.09-2.1.17-.15.01-.3.03-.44.06-.02-.01-.08.07-.03-.04.03-.03-.04-.07-.02-.06h.05c.06.03.14.03.21.04.29.03.59.04.88.05.58.02,1.16.02,1.73.02,1.14,0,2.29-.02,3.51.01,1.24.02,2.49.05,3.74.07.3-.01.64-.04.9-.03.57.01.62.05.64.08.1.06.9.07,1.57.09Z"/><path d="m129.01,2.8c-.9.17-1.5.37-4.09.33l-2.06.16c-.55.06-1.12.11-.97.16.97.04,2.23-.1,3.29-.16,4.04-.23,8.09-.42,12.15-.74,1.08-.09,1.24-.13,1.65-.2-1.41-.01-3.24.15-4.82.27-1.52.11-3.39.38-3.67.14,0,0-.25,0-.56,0-.3.01-.67.02-.92.03Z"/><path d="m64.47,1.16c.24-.05.44-.09.74-.13.99-.15.87-.11-1.2-.12-3.43,0-6.83.11-10.21.14-1.03,0-2.38.02-2.15.14,1.92.09,4.02.04,6.32-.07,1.49-.07,2.62-.06,2.34.08,1.49-.08,2.74,0,4.16-.04Z"/><path d="m35.84,1.39c-1.5.14-3.74.01-5.21.18-.02,0-.16,0-.22,0-2.89-.04-3.29-.03-6.9.15-1.16.06-2.15.04-3.23.06.46.1.96.19,2.74.2l1.3-.1c.48-.08,1.22-.1,2.26-.11,1.27-.03,2.82-.06,3.92-.08,2.23-.04,4.2-.19,6.32-.17l-.56-.13c-.14,0-.28,0-.42,0Z"/><path d="m9.82,2.3c.66-.13,1.2-.25-1.47-.16-.86.03-.32-.04-.26-.07,1.31-.12,2.76-.13,3.7-.12,2.39.03,2.92-.08,3.43-.22l.49-.02c1.57.01,4.14-.03,1.7.22-.44.04-.43.1-.62.16-1.35.04-2.7.09-4.05.13-.87.03-1.53.05-1.61.13l-1.5.04c.06-.03.03-.06.19-.09Zm4.3-.24c.05,0,.14,0,.27-.02-.07,0-.15,0-.27.02Z"/><path d="m13.93,8.04c-.77-.08-3.45.14-3.45,0,0-.07,1.08-.19,1.54-.29.48-.11,2.55-.19,4.19-.22.74,0,1.45-.02,2.18-.02.71-.02,1.59.01,2.11-.06.55-.08-1.41.01-1.05-.07-2.42-.05-5.43.19-7.94.15-.79-.01-.61.09-1.25.12-.61.06,2.15.04-.12.14-.76.13-2.75.25-2.44.39.47,0,1.08-.02,1.38,0,.76.03.75.21,2.67-.01.02,0,.7.01,1.13.02,1.26,0,2.46-.06,3.51-.15-.37-.13-1.76.05-2.48.03Z"/><path d="m7.17,7.75c-.63.01-1.08,0-1.41-.03-.82-.08-2.36-.1-3.57,0-1.08.08-2.05.21-2.17.33-.22.23,1.14.26,4.17.14.74-.03,1.66,0,2.5,0,.91-.11.56-.19-.43-.22-1.01-.03-1.93.04-2.64.13-.26.03-1.47.11-1.37.03.09-.08-.61-.12-.17-.2.27-.05.4-.11,1.22-.13.85-.03,1.22,0,1.32.05.1.05.23.09,1.18.06.92-.03,1.39-.08,1.38-.14Z"/><path d="m36.82,1.52c-2.12-.03-4.1.13-6.32.17-1.1.02-2.64.05-3.92.08-1.05.01-1.78.03-2.26.11,1.79.12,4.46-.04,6.67-.08,3.3-.07,6.66-.21,9.87-.17l.26-.05c-.48-.04-2.15-.07.4-.14.83-.02,1.31-.09-.13-.08-1.51.06-2.62.22-4.57.17Z"/><path d="m144.26,1.5c.04.1.72.11,2.24-.13.56-.09,1.01-.17,1.44-.24.19-.03.46-.09.54-.13.01,0,0,0-.02.04,0,.04,0,.05,0,.07.04.05.02.02,0,.02-.01-.02-.08-.03-.12-.05-.1-.03-.2-.06-.31-.08-.91-.2-2.5-.15-3.38-.29-2.2,0-4.61-.13-6.91-.15-.79,0-1.23,0-1.59.03,2.12.12,4.41.16,6.87.22,1.57.05,3.18.08,4.85.31.17.03.37.06.51.11.02,0,.01,0,.02,0,0,0,.01,0,0,0-.03-.02-.06-.06-.07-.11,0-.29.13-.22.05-.22-.05.02-.15.05-.24.07-.39.09-.82.15-1.25.21-.87.12-1.79.22-2.65.31Z"/><path d="m44.52,6.57l1.11-.04,1.65.03.7-.02,2.28-.16c-1.35-.12-4.02.04-5.94.1-3.82.16-7.67.31-11.51.47l-1.02.07c1.73.06,3.59.02,5.61-.16,1.63-.1,3.36-.22,4.3-.09l.74-.03.53-.03s-.03-.04-.05-.05l-.16-.02h.37s1.42-.08,1.42-.08Z"/><path d="m32.83,3.24c1.46.05,2.92.12,4.4.13,1.17.03,2.29.08,3.15.16.79.03,1.18.04,1.58.05,1.87.08,3.69.09,5.67.22,1.03.07,1.59,0,1.9-.06-5.63-.27-11.26-.47-16.9-.58l.21.06Z"/><path d="m8.09,2.07c1.31-.12,2.76-.13,3.7-.12,2.39.03,2.92-.08,3.43-.22-3.92.09-7.85.15-11.76.47-.95.09-1.53.04-2.33.16-.08.02-.13.02-.25.06-.04.02-.03,0-.12.06-.08.05-.14.16-.15.25,0,.07.02.14.08.22.17.16.18.11.2.13l.08.02c.18.03.33.04.49.05.31.02.62.03.91.04.57.01,1.03,0,1.13-.06-.73-.02-1.45-.03-2.18-.09-.08,0-.15-.01-.23-.03-.04,0-.08-.01-.13-.03-.03-.01-.03,0-.09-.03-.1-.06-.19-.17-.11-.3.12-.16.13-.1.16-.12l.08-.02.12-.02.23-.03c.3-.04.6-.06.9-.08l1.79-.1,4.08-.2Z"/><path d="m71.51,5.15c-.06.05.28.13-1.36.01-1.02-.07-1.89-.1-1.72-.01,4.19.3,8.38.61,12.74.83l-.02-.04-.15-.04c-.08,0-.17,0-.25-.02-.73-.03-1.45-.06-1.66-.14-.13,0-.26-.02-.4-.02l-1.53-.13c-.24.04-.76.02-1.58-.07-.91-.07-1.85-.05-2.67-.16-.27-.04.14-.04.59-.03l.04-.02-.49-.09c-.9-.11-.98-.03-1.54-.06Z"/><path d="m15.72,1.71c1.57.01,4.14-.03,1.7.22-.44.04-.43.1-.62.16.75-.01.5.03.55.06l1-.04c-.31-.06.98-.13,1.01-.2h-.67c.05,0,.15-.01.15-.01.19,0,.36,0,.54.01.89.02.35.1.53.15,1.01.06,2.05.04,3.11-.08-1.78,0-2.28-.1-2.74-.2-.81-.04-.47-.1.29-.17.73-.07,1.53-.11,2.51-.09,1.15.02,2.24.02,2.46-.12-2.58.04-5.21.17-7.77.19-1.01,0-1.53.06-2.05.12Z"/><path d="m41.39,1.35c1.44,0,.97.06.13.08-2.55.07-.88.1-.4.14.44-.07,1.23-.04,1.85-.06-.07-.04.4-.11.78-.1,1.87.05,3.18-.11,4.81-.13.87-.07.91-.03.98.02.88.04,1.1-.01,1.35-.06-.08,0-.21,0-.22,0-.36-.1-1.59-.08-2.92-.05-1.84.05-3.12-.05-5.03,0-.05,0-.24-.05-.36-.08l-1.99-.02-1.06-.02-.12.1c2.26-.03,2.39.07,2.21.19Z"/><path d="m68.9.62c1.05-.02,1.23.05,1.91.07.43.01.87.03.61.07-.2.03-.66.04-1.07.05-.5,0-1.13.01-1.47.04-.63.04-1.62.11-1.51.14.28.07,1.18-.02,1.81-.02.38,0,.74,0,1.11.01.49.05.92-.01,1.38-.02.77-.04,1.59-.09,1.36-.14-.89-.21,1.5-.25,3.63-.29-.26-.04-1.37,0-1.46-.07-1.75.06-3.41.02-5.18.06-1.27.03-.99.07-1.14.12Z"/><path d="m48.56,1.28c-1.62.02-2.94.18-4.81.13-.38-.01-.84.06-.78.1,3.25-.07,6.49-.13,9.74-.2,1.63-.04,3.34-.05,4.96-.05.98,0,1.77-.03,2.63-.06.28-.14-.85-.14-2.34-.08-2.3.1-4.4.16-6.32.07-.25.02-.51.03-.76.05-.25.05-.47.1-1.35.06l-.98-.02Z"/><path d="m8.09,2.07l-4.08.2-.04.07c.56-.03,1.05-.04.96,0-.08.05-.65.07-1.15.1-.19.04-.2.08-.21.12,1.01-.08,1.92-.12,2.04-.03,1.3-.02,2.65-.08,4.02-.15.06-.03.03-.06.19-.09.66-.13,1.2-.25-1.47-.16-.86.03-.32-.04-.26-.07Z"/><path d="m122.85,3.29l2.06-.16v-.03s-.11,0-.11,0h.11c.88,0,1.34-.28,2.47-.15.18-.02.52-.05.5-.05-.37-.1,1.53-.24,2.18-.36-.11-.03-.57,0-.98.02-.54.09-1.4.12-2.16.16-.56.01-.91.17-1.21.09-.32-.08-1.25.03-1.78.04-.89.12-1.3.1-1.61.05-.53.02-1.17-.02-1.5.09l-.23.07c.63-.01.94.03,1.82-.02.6,0,.37.04.43.07,2.74-.09-.36.14.02.18Z"/><path d="m79.71,5.47c.86.11,1.85.23,2.68.33,1.68.24,4.84.41,6.2.38-1.26-.09-2.66-.19-1.76-.23-2.41-.2-4.82-.39-7.12-.47Z"/><path d="m122.84,3.11c2.74-.09-.36.14.02.18-.55.06-1.12.11-.97.16-1.56.09-3.2.28-4.62.22-.07,0-.09,0-.07-.02,2.04-.22,2.2-.37,2.08-.52l1.31-.07c.63-.01.94.03,1.82-.02-.06.04-.07.08.43.07Zm-1.63.2c.33,0,.64-.05.54-.06-.21-.03.83-.16-.74-.07-.78.06-.72.08-.15.08.11.02.1.06.35.05Z"/><path d="m138.75.19c.48.01.87.08,1.42.04,1.21-.1,1.32.01,1.71.07.36.02.82.06,1.07.06.96,0,1.87,0,2.58.12.58.1-.24.09-.83.12-1.04.04-1.84-.02-2.68-.1-.53-.05-1.41-.09-1.84-.07-1.47.07-2.12-.03-3-.1.52-.05,1.05-.1,1.57-.15Zm5.72.28h-.19s0,.02.01.03h.4c-.07,0-.14-.02-.22-.03Z"/><path d="m61.62,4.73c-2.07-.1-4.25-.25-6.12-.23-.47,0-1.13-.06-1.6-.1-.84-.07-1.41-.08-1.88-.05,1.75.18,3.87.23,5.85.31,2.57.1,4.97.33,7.57.4.38.01.84.04,1.01.02-.52-.1-1.41-.17-2.45-.18-1.24-.01-1.83-.08-2.4-.17Z"/><path d="m7.17,7.75c0,.06-.46.11-1.38.14-.95.03-1.07,0-1.18-.06-.1-.05-.47-.08-1.32-.05-.82.03-.95.09-1.22.13-.44.08.26.13.17.2-.1.09,1.11,0,1.37-.03.71-.09,1.63-.16,2.64-.13.99.03,1.35.11.43.22.34.01.68.02,1.02-.03-.31-.14,1.69-.26,2.44-.39-.54-.02-1.04-.04-1.07-.09l-1.91.07Z"/><path d="m128.97.24c-1.35-.09-2.7-.13-4.05,0-.79.1-3.23.08-3.66.21l.18.11c.89.03,1.69.03,2.42-.02.12-.02-.22-.05.32-.06l.16.06c.15,0,.31,0,.49,0,2.1-.02,1.67-.2,3.6-.23.43-.01.54-.04.53-.07Z"/><path d="m14.12,3.34l-.44-.07c-.96-.04-2.3-.05-2.17-.18.02-.02-.46-.07-1.11-.09s-1.45-.03-2.07.05c-.39.05-1.01.06-1.86.05.04,0,.05.02.07.03l-.04.1c2.51.07,5,.17,7.62.11Z"/><path d="m38.21,3.89c.2-.08-.91-.14-1.81-.18-1.95-.09-4.21-.21-5.91-.2-1.18,0-1.98,0-3.13-.04-.7-.02-.31.05-.37.09,2.45.08,4.84.18,7.42.2,1.12,0,2.53.08,3.8.13Z"/><path d="m139.71,2.03l.95-.08c.5-.08,1.2-.18,1.08-.24-2.55.14-5.28.41-7.88.46-1.05.02-1.36.18-2.3.27.05.05,1.05.03,1.28,0,1.58-.19,2.89-.15,4.31-.25.91-.26,1.7-.08,2.56-.17Z"/><path d="m114.53.25h-.77c-.48.08-.46.08.35.1.36,0,.83.03.91.05.27.07-1.17.06-1.39.11l1.08.06,1.69.02,3.42-.14c-2.33-.1-2.28-.13.49-.26-1.19-.17-2.09-.06-3.01.02-.91.02-1.35.2-2.75.04Z"/><path d="m76.68.52c-2.14.05-4.52.08-3.63.29.23.05-.59.11-1.36.14.24.11,1.33,0,1.98,0,.47-.11.77-.24,3.23-.18.41,0,1.06,0,1.23-.05.18-.05-.33-.05-.86-.05h-.23s.2,0,.2,0l-.55-.16Z"/><path d="m117.26,3.67c-.07,0-.09,0-.07-.02-.23-.04-1.82.07-1.52-.03-.42-.07-1.01-.02-1.62.07-.53.09-.99.18-1.8.11-.61.05-1.05-.02-1.62.07-.72.1-.12.13.5.16,2.08-.1,4.28-.11,6.13-.36Z"/><path d="m86.44,5.23c-.7-.04-2.44.05-2.94-.05-.24-.05-2.42.17-3.61.28-.19.02-.32.04-.48.06v.1c1.84-.01,3.54-.22,5.36-.27l1.34-.08c.18-.01.29-.02.33-.04Z"/><path d="m71.01,4.88c.7.13,5.32.53,6.81.6,1.47.06.54-.07.84-.1-.93-.05-1.87-.08-2.76-.19-.19-.02-.84-.08-.88-.08-1.2.03-2.69-.16-4.01-.23Z"/><path d="m13.93,8.04c.71.02,2.11-.16,2.48-.03.73.04,1.46-.02,2.18-.07,1.21-.14,3.13-.14,4.55-.24-.29-.05-.25-.12-1.77-.01-.92.06-2.25.09-3.4.14l-.63.06h-.2s.8-.07.8-.07c-.95,0,1.96-.3-1.51-.1-.12.06.34.12-1.03.17-.28.06-1.53.07-1.46.14Z"/><path d="m39.25,3.83s.15.04-.29.03c3.11.12,6.38.35,9.08.26l-.07-.04-2.03-.08c-2.22-.06-4.44-.11-6.68-.17Z"/><path d="m23.14,7.71c-1.42.1-3.34.11-4.55.24.17.11,1.29-.02,1.87-.03,2.22-.03,4.51-.13,6.75-.24-.46-.18-2.66,0-4.08.02Z"/><path d="m59.92,6.38c-1.6.06-3.4.18-4.48.08-.41-.04-1,.02-1.09.08-.07.04.06.08-.62.13-.21.12,1.13.03,1.84,0,1.6-.06,3.23-.13,4.84-.19-.13-.04.27-.11-.49-.11Z"/><path d="m68.09,5.65c1.12-.02,2.28-.03,3.07-.17.52-.09.82-.06,1.29-.06,1.56.02,3.1-.05,4.54-.22-1.45-.03-3.26.07-5.02.16-1.3.07-2.59.14-3.88.21v.08Z"/><path d="m93.59.79c.36-.07,1.46-.18-1.11-.1-1.33.04-1.95-.02-2.64-.07-.34-.03-.12-.11-1.18-.07-.86.03-.66.09-.5.14.15.05.24.1.35.14l5.08-.05Z"/><path d="m103.42,4.39c.16-.11.18-.2-2.02-.03l-1.54.15-.97.05c-.41.06-.99.08-1.55.11l-.58.11c-.04.07.64.02,1.18-.02,1.83-.12,3.66-.24,5.49-.37Z"/><path d="m114.7.56l-1.08-.06c-1.45.02-2.98.1-4.22-.02-.32-.03-1.24.02-1.18.03.25.05-1.75.08-.34.13,2.26-.04,4.73.07,6.82-.08Z"/><path d="m102.9,4.08c.56-.06,1.39-.16,1.63-.17.95-.01.05.07-.27.12-.22.03.07.04.46.02.44-.02.91-.06.92-.09.01-.05-.13-.09-.2-.14-1.86,0-3.96.13-6.05.25l-.06.09s.03.02.02.03l.56-.03c1.34-.11,2.62-.2,3-.08Z"/><path d="m128.44.31c-1.93.03-1.5.21-3.6.23,1.07.09,2.16.16,3.57.03.16-.02.26-.06.48-.07,3.39-.03.9-.1.1-.16-.08.02,0,.06-.6.05l.12-.06-.08-.03Z"/><path d="m82.37.4c.45.06,1.32.12,2.21.05,1.71-.14,4.8.01,5.94-.2-2.77.01-5.48.07-8.15.15Z"/><path d="m40.36,1.08l1.99.02h1.04c0-.08.86-.09,1.7-.1,1.97.04,3.81,0,5.55-.14-.17-.03-.7-.06-1.06-.04-2.98.14-6.33.07-9.22.25Z"/><path d="m23.08,7.22c.1.11.45.19,2.41.02,1.46-.12,3.31-.02,4.71-.19-2.13-.08-4.7.09-7.12.17Z"/><path d="m26.52,3.06c.68.13,2.03.23,3.51.34-.29-.12.48-.19,1.5-.25-1.03-.09-1.97-.06-2.93-.06-.52.08-1.35,0-2.08-.03Z"/><path d="m45.16,7.04c-1.79-.07-5.51.08-7.73.31,2.21-.01,4.42-.15,6.63-.24.05-.07.59-.07,1.1-.07Z"/><path d="m148.44,1.34c-.6.17-1.01.21-.99.26.22-.02.44-.05.66-.09h.16c-.17.04-.33.06-.5.09l-.41.02c-.61.09-.9.14-.95.18.47-.05.92-.1,1.37-.16.23-.03.45-.06.7-.13.06-.02.13-.04.22-.08.02,0,.06-.04.09-.06.03-.03.06-.03.11-.15.05-.11.04-.2,0-.28-.03-.08-.12-.17-.14-.18-.1-.07-.19-.1-.25-.11-.07-.03-.13-.04-.19-.05-.94-.19-1.85-.23-2.9-.26.18.15,1.91.18,3.09.51.04,0,.09.04.14.07.02,0,.08.08.09.13.02.05-.03.17-.05.17-.12.1-.18.1-.26.13Z"/><path d="m57.68.82c2.35-.03,4.68-.07,6.68-.2-.79-.05-1.53-.06-2.71.02-1.49.1-3.34.06-4.99.12l.09.07c.3,0,.61,0,.92,0Z"/><path d="m65.56,5.93c-2.1.11-3.22.29-2.53.42l2.05-.08c-.32-.06,1.2-.17.9-.23-.6-.01-.35-.07-.41-.11Z"/><path d="m119.81.44l-3.42.14c1.72.05,3.44.09,5.06-.03l-.18-.11h-1.45Z"/><path d="m119.28,3.13l1.31-.07.23-.07c-1.91.08-3.86.13-5.63.32.57.03,1.75,0,1.97.06.37-.03.68-.06.99-.09.08-.05.13-.1,1.13-.16Z"/><path d="m68.09,5.65v-.08s-2.53.11-2.53.11c-.52.1-.48.18,0,.25,1.24-.05.95.03.98.08.2.02.48.03.96,0,.56-.04.23-.06.12-.08-.39-.07-1.13-.14.46-.28Z"/><path d="m140.79,2.26l-.03.07c1.74-.12,3.65-.17,5.11-.47-.27-.04.11-.2-1.81.11-.83.13-2.29.15-3.28.29Z"/><path d="m39.18,1.16l.12-.1c-1.98-.02-3.77.08-5.6.16l.96.05c1.02,0,1.04.07,1.18.13.14,0,.28,0,.42,0,0-.13.3-.24,2.92-.23Z"/><path d="m16.8,2.09c-1.35.04-2.7.09-4.05.13-.87.03-1.53.05-1.61.13,1.8.02,3.8-.12,5.68-.15,0-.03,0-.07-.02-.1Z"/><path d="m34.66,1.27l-.96-.05c-1.46,0-2.98-.06-4.17.12,1.31.01,2.69,0,4.15-.01.69,0,.93-.02.97-.06Z"/><path d="m108.54,4.13c-.06,0-.07-.02-.18-.02-.73-.02,2.06-.25-.06-.16-1.53.06-2.5.22-2.37.33.9-.03,1.85-.02,2.6-.15Z"/><path d="m61.62,4.73c.57.09,1.15.16,2.4.17,1.03.01,1.92.08,2.45.18.36.01.82.04.96.02l-.88-.15c-1.59-.11-3.17-.17-4.75-.25l-.16.03Z"/><path d="m86.82,5.94c-.89.04.51.14,1.76.23.93.08,1.51.11,1.91.09l-.02-.07c-1.2-.08-2.39-.15-3.65-.25Z"/><path d="m20.31,3.36c-1.85,0-3.94-.09-5.59-.01,1.86.11,3.72.04,5.58.08v-.07Z"/><path d="m101.36.71c-.27-.25-2.44-.03-3.69-.03.08.05-.28.12,1.25.08.76-.01,1.63-.03,2.45-.04Z"/><path d="m106.45,3.76c.18.04,0,.13,1.15.07,1.56-.08.62-.16,1.51-.25-1.25-.03-1.78.12-2.66.18Z"/><path d="m50.26,6.38l-2.28.16c1.44-.04,1.53.03,1.73.1.12.04.46.06,1.15.03.26-.01.66-.04.73-.06.22-.05-.33-.04-.77-.04-1.58,0,1.26-.19-.11-.2-.14,0-.3,0-.45.01Z"/><path d="m89.55,6.49c-1.01-.04-2.37-.33-3.17-.22.42.13.42.13,3.17.22Z"/><path d="m92.15,4.62c-1.35.04-1.26-.05-1.57-.1-1.05.05-2.21.05-3.06.18l.04.04c.76-.02,2.08-.12,2.21-.06.28.14,1.35.02,2.39-.06Z"/><path d="m95.27,4.27c-.65.14.91.09,1.64.11l.8-.11.62-.17c-1.05.03-1.97.17-3.06.17Z"/><path d="m82.4.81v.1c.96.02,1.91.03,2.97-.02-.01-.05.35-.13-1.07-.1-1.08.02-1.57,0-1.53-.08-.47.03-.32.06-.36.1Z"/><path d="m31.52,3.15c-1.02.06-1.79.13-1.5.25,1.05-.05,2.58-.06,2.8-.16l-.2-.06-1.1-.02Z"/><path d="m59.92,6.38c.76,0,.36.07.49.11l1.53-.05c.24-.13.26-.24-2.05-.17l.03.11Z"/><path d="m56.76.82l-.09-.07c-.99.01-1.84.05-2.56.11.64.22,1.66.08,2.66-.03Z"/><path d="m58.69,4.19s-.11.04,0,.06c.28.07-1.19.09.39.17,1.4.07.2-.08.4-.12.06-.01.52,0,.8.01-.34-.06-.64-.12-1.59-.13Z"/><path d="m26.52,3.06c.73.03,1.56.11,2.08.03l-1.12-.04c-.42,0-.78-.02-.98-.05h-2.08s.43.03.43.03l1.67.04Z"/><path d="m121.5,9.37s.04-.01,0-.02c-.17-.05.59-.03-.65-.16-.42-.05-1.23-.07-.42.07l1.07.12Z"/><path d="m19.36,1.91c-.03.06-1.33.13-1.01.2l1.56-.05c-.19-.05.36-.13-.55-.15Z"/><path d="m9.08,7.68c.04.05.53.07,1.07.09,2.26-.1-.5-.08.11-.14-.1,0-.23,0-.39,0l-.68.02c-.14,0-.18.01-.12.02Z"/><path d="m87.16,5.16l-1.02.09c.45.06,1.69-.03,2.47-.03l.05-.07-.05-.07c-.28.01-.49.02-.69.03-.08.04-.42.05-.76.06Z"/><path d="m75.22.45c.09.06,1.2.02,1.53.06l.81-.04-.66-.04c-.54-.01-1.1,0-1.68.01Z"/><path d="m122.31,2.89c.31.05.72.06,1.61-.05-.43-.01-.61-.09-1.61.05Z"/><path d="m5.95,3.13h-1.61c-.08.1.82.1,1.61.09v-.09Z"/><path d="m126.91,2.71c.76-.05,1.62-.08,2.16-.16-1.1,0-1.69.07-2.16.16Z"/><path d="m126.87,9.99c-.5-.08-1.08-.14-1.74-.19.56.07.88.18,1.74.19Z"/><path d="m24.85,3.03l-.43-.04-1.02-.02.04.04c.46.05.93.06,1.41.03Z"/><path d="m80.45,5.07s-.01.01-.07.02c.07,0,.15-.01.24-.02l.14-.08-.31.08Z"/><path d="m26.5,3c.2.03.56.05.98.05.01-.06-.32-.07-.98-.05Z"/><path d="m63.56,5.77c.06.02-.03.07.53.04.41-.02.34-.05.03-.05h-.56Z"/><path d="m88.67,5.14l-.05.07c.53-.04.89-.08,1.06-.12l-1,.05Z"/><path d="m86.11,5.27l-1.34.08c.57.02,1.02,0,1.34-.08Z"/><path d="m16.82,2.09v.1c.33,0,.51-.02.52-.04-.05-.03.2-.07-.52-.06Z"/><path d="m124.36.53l-.16-.06c-.54.01-.21.04-.32.06.16,0,.33,0,.49,0Z"/><path d="m45.16,7.04c-.51,0-1.05,0-1.1.07.46,0,.93-.02,1.1-.07Z"/><path d="m61.78,4.7c1.58.08,3.16.13,4.75.25.55.03.8.02.84,0l.07-.09c-.88-.06-1.17-.1-.85-.13.15-.01.36-.03-.23-.07-.34-.02-1.07-.03-1.07-.03.1.14-2.23.01-3.14.04-.19,0-.26.02-.39.03Z"/><path d="m94.93,6.85c1.08.11,2.15.23,3.21.26-1.81-.16-.32-.14-1.59-.26l-2.03-.21c.26.08,1.33.23.42.22Z"/><path d="m40.38,3.54c-.86-.09-1.98-.13-3.15-.16.03.04-.13.08.15.11.38.05-1.16.06.24.1.96.03.78-.03.67-.07-.05-.02-.05-.09.57,0,1.14.16.91-.02,1.51.03Z"/><path d="m77.15,5.58l1.53.13c.2-.02,1.52.04.36-.07-1.22-.12-1.64-.09-1.9-.05Z"/><path d="m73.5,5.32c-.45-.01-.86,0-.59.03.82.11,1.76.09,2.67.16-.07-.09-1.26-.13-2.08-.19Z"/><path d="m45.93,4l2.03.08c-.11-.06-.75-.12-1.56-.14-.63-.02-.42.03-.47.06Z"/><path d="m23.38,3.09c-.14,0-.29,0-.44,0l-.06.06c.62,0,1.38.04,1.66-.02l-1.16-.04Z"/><path d="m79.09,5.73c.21.08.93.11,1.66.14l-.05-.06c-.54-.03-1.08-.05-1.61-.08Z"/><path d="m69.27,4.83c-.11-.01-.21-.02-.32-.03h-.29c.13.02.29.03.39.04.1,0,.15,0,.22,0Z"/><path d="m41.95,3.59l-1.19-.04c.15.02.26.06.46.07.57.03.57-.01.73-.03Z"/><path d="m73.04,5.21l.49.09c.78,0,.17-.04-.49-.09Z"/><path d="m80.7,5.81c.28.02.68.05.68.02,0,0-.2-.03-.3-.04-.47-.03-.34,0-.38.01Z"/><path d="m67.45,4.85l-.07.09c.66,0,.72-.02.07-.09Z"/><path d="m53.51,4.09s.09.02.16.02c0-.01-.09-.02-.16-.02Z"/><path d="m21.84,3.13l-.02.03h1.06c-.34-.02-.69-.03-1.03-.03Z"/><path d="m71.49,5.15l-.11-.02s.08.01.11.02Z"/><path d="m81,5.89l.15.04c.44.01.35,0-.15-.04Z"/><path d="m58.94,6.28c.62-.08,1.59-.17.87-.23-.31-.02-.67-.04-1.31-.02-.95.03-1.05.09-1.18.14.5.04.74.08.32.16-.19.04-.14.06.42.05.67-.02.78-.06.88-.1Z"/><path d="m15.39,7.9c1.37-.05.91-.11,1.03-.17-.51,0-1.22.06-1.3-.01-.04-.03-.53-.06-.98-.03-.46.03-.89.08-1.05.12-.27.07.62.01.9.02.55.02.94.05,1.4.07Z"/><path d="m41.68,6.78c-.94-.13-2.66,0-4.3.09,1.2.05,2.56.05,4.3-.09Z"/><path d="m42.95,6.72l-.53.03c-.09.01-.14.03-.27.04-.98.08-1.63.15-.62.19.27.01,1,0,.87-.03-.3-.07,2.94-.22.55-.23Z"/><path d="m54.26,6.23l-1.48.04s-1.24.16.07.14c.97-.02,1.65-.11,1.41-.18Z"/><path d="m47.28,6.57l-1.65-.03s-.84.12-.09.12c.6,0,1.25-.04,1.74-.09Z"/><path d="m18.53,7.63c.3,0,.48.02.65,0,.19,0,.37-.03.56-.04-.16,0-.3-.02-.48-.01-.18.01-.39.02-.73.05Z"/><path d="m44.52,6.57l-1.42.08c-.07,0-.14.01-.21.02l.07.03c.64-.04,1.58-.06,1.56-.13Z"/><path d="m55.56,6.17c-.42-.01-.84-.03-1.27.05l1.27-.05Z"/><path d="m21.62,7.36c.15,0,.22,0,.29-.01-.05,0-.11,0-.29.01Z"/><path d="m101.83.23c-.57.01-1.23,0-1.57.05-.25.11-1.98.05-2.67.12-.26.03-1.14-.07-1.52.01-.24.05.62.08,1.15.11.54.03.96.04,1.71,0,.94-.06,2.03-.1,2.87,0,.5.06,1.41,0,1.94-.02.93-.05.18-.07-.37-.1-.86-.04-1.71-.08-1.55-.17Z"/><path d="m82.4.81s-.11-.07.36-.1c.12-.04,1.38-.07.75-.12-.22-.02-.72-.03-1.04-.03-1.1.02-.37.08-.61.11-.13.02-.23.04-.44.06-.39.04-1.55.07-1.11.11.5.04,1.33-.05,2.08-.04Z"/><path d="m86.13.63c.11,0,.21,0,.32.01l.3-.03c-.13,0-.28,0-.39,0-.1,0-.15.02-.22.03Z"/><path d="m111.56.2h.51c-.17,0-.34,0-.51,0Z"/><path d="m113.91,8.32c.1.03.13.06.82.11-.09-.03-.42-.07-.82-.11Z"/><path d="m134.14.21h-1.05s.23.09-.1.11c-.57.03-1.08.04-.89.1.09.03.41.02.53,0,.45-.04,1.97-.01,1.57-.11-.13-.03-.05-.07-.06-.1Z"/><path d="m137.18.34c-.32-.03-.34-.08-1.08-.1-.1,0-.36.02-.33.03.14.06.85.05,1.41.06Z"/><path d="m148.44,1.34c.08-.03.15-.03.26-.13.02,0,.08-.13.05-.17-.01-.05-.07-.13-.09-.13-.04-.02-.1-.06-.14-.07,0,.01-.03.02.02.04.02,0,.03.02.06.04.02.01.07.02.11.13,0,.12-.09.17-.14.19-.06.03-.12.05-.2.07l.06.04Z"/><path d="m128.52.34l-.12.06c.61,0,.52-.03.6-.05h-.48Z"/><path d="m131.03.25l.18.05c.49-.02-.01-.03-.18-.05Z"/><path d="m96.54,6.84c1.27.13-.22.11,1.59.26.66.06,1.12.08,1.47.08.73,0,1.63.04.28-.14-2.13-.27-2.23-.14-3.35-.21Z"/><path d="m105.13,7.5c-.74-.06-1.91-.22-1.85-.13.02.03.31.1,1.15.16.81.06,2,.13,2.04.1.1-.05-.96-.09-1.34-.13Z"/><path d="m104.31,7.62c.57.08.93.14,1.35.18.53.05,1.47.13,1.51.09.02-.02-.32-.08-.88-.13-.6-.04-1.19-.09-1.97-.15Z"/><path d="m111.35,8.07c.07.02.07.05.6.09.17.01.26,0,.39,0l-.99-.09Z"/><path d="m102.29,7.34c.17,0,.06,0-.04-.01h.04Z"/><path d="m110.38,7.96l.23.02.23.02c-.15-.03-.31-.04-.46-.04Z"/><path d="m78.35,5.25c.11.05.64.05,1.39,0,.95-.07.57-.11.66-.16-.92.04-.95.15-2.04.16Z"/><path d="m66.54,6.02c-.03-.05.26-.13-1-.08.08.04-.17.1.43.11l.57-.03Z"/><path d="m78.34,5.26h-.11s.08,0,.11,0Z"/><path d="m57.68.82h-.93c.16.03-.31.08.44.07.43,0,.53-.04.5-.07Z"/><path d="m45.09,1c-.84.01-1.7.02-1.7.11.63-.03,1.32-.05,1.7-.11Z"/><path d="m92.15,4.62c-1.04.08-2.11.2-2.39.06-.13-.06-1.45.04-2.21.06.42.06.75.12,1.27.17,1.11.11,3.14.02,4.8-.2.21-.03.31-.06.56-.08.94-.08,1-.2.06-.2q-.39,0-.61.09c-.1.04-.07.09-.78.12-.22.01-.46-.02-.7-.03Z"/><path d="m99.9,4.16l-.56.03c-.98.17.56.2.51.32l1.54-.15c.14-.12-1.9-.07-1.5-.2Z"/><path d="m97.33,4.67c.56-.03,1.14-.05,1.55-.11-.02,0,0-.01-.05-.01-.69,0-.57-.13-1.42-.06-1.25.09.15.11-.08.18Z"/><path d="m94.59,4.7c-.15.02-.32.04-.31.04.05.02.16.03.25.04.07-.01.19-.03.19-.04,0-.02-.07-.03-.13-.05Z"/><path d="m87.16,5.16c.34,0,.69-.01.76-.06-.32,0-.78,0-.76.06Z"/><path d="m88.62,5.07l.21-.03c-.09,0-.18.02-.21.03Z"/><path d="m119.81.44h1.45c.43-.13,2.87-.11,3.66-.21-.08-.05.13-.1-1.04-.1.5.06-.35.1-.89.12-.66.02-.97-.02-1.21-.06h-1.48c-2.77.13-2.82.16-.49.25Z"/><path d="m121.78.19c.25.04.56.08,1.21.06.54-.02,1.39-.05.89-.12-.8,0-1.79-.03-2.11.06Z"/><path d="m114.53.25c1.4.16,1.84-.03,2.75-.04-1.12-.06-1.95-.01-2.75.04Z"/><path d="m111.55.2h.53c-.18-.03-.35-.03-.53,0Z"/><path d="m119.28,3.13c-1.01.05-1.06.1-1.13.16.16.06-.37.07-.93.08-.31.09-.09.16-1.54.26-.29.1,1.3-.01,1.52.03,2.04-.22,2.2-.37,2.08-.52Z"/><path d="m102.91,4.08l-.64.04c.36.01.45-.02.64-.04Z"/><path d="m3.61,2.45c.24-.04.31-.08.37-.12l-1.55.1-.77.07-.39.05-.2.03s-.06.01-.1.02c-.05.04-.05-.04-.16.12-.02.05.02.1.07.13.05.03.04.02.07.03l.09.02c.05,0,.1.01.15.02.09,0,.17.01.24.01.13,0,.23,0,.29,0,.13-.01.14-.03.16-.05-.28-.02-.58-.02-.86-.08-.03-.01-.07,0-.1-.04-.02-.03.04-.05.07-.06.06-.02.13-.03.18-.03.12-.01.22-.02.3-.02.71-.09,1.42-.15,2.14-.2Z"/><path d="m.82,2.73c.11-.16.11-.08.16-.12.04-.01.07-.02.1-.02l.2-.03.39-.05.77-.07,1.54-.1.04-.07-1.79.1c-.3.02-.6.04-.9.08l-.23.03-.12.02-.08.02s-.03-.03-.16.12c-.08.13.01.24.11.3.05.02.06.02.09.03.05.01.1.02.13.03.08.01.16.02.23.03l-.22-.07s-.07-.03-.12-.05l-.06-.03s-.13-.11-.09-.16Z"/><path d="m3.61,2.45c-.71.06-1.43.11-2.14.2v.08c.7-.08,1.4-.12,2.1-.17l.03-.11Z"/><path d="m12.64,2.93s-.07-.07-.64-.08c-.26,0-.6.02-.9.03.37.04.97.04,1.54.05Z"/><path d="m1.47,2.66c-.08,0-.19,0-.3.02-.06,0-.12.02-.18.03-.02,0-.09.02-.07.06.03.03.07.03.1.04.28.05.59.06.86.08-.16-.03-.39-.05-.66-.08-.07-.01-.14-.02-.2-.03-.1-.02-.06,0,.02-.04.14-.03.3-.05.45-.07Z"/><path d="m6.47,3.1s.49-.03.03-.06c-.05,0-.19,0-.24,0-.3.02-.12.04.21.06Z"/><path d="m139.71,2.03c-.86.09-1.65-.09-2.56.17-.14.15,1.73-.04,2.59-.07-.02-.03-.02-.06-.03-.1Z"/><path d="m128.99,2.8l.21-.02c-.07,0-.13.01-.21.02Z"/><path d="m139.74,2.13h.11s-.08,0-.11,0Z"/><path d="m21.84,3.13l1.04.02.06-.06c-.73-.02-1.08,0-1.1.04Z"/><path d="m39.18,1.16c-2.62-.01-2.92.1-2.92.23l.56.13c1.95.05,3.05-.11,4.57-.17.18-.12.05-.22-2.21-.19Z"/><path d="m14.39,2.04h-.22s.09.02.22,0Z"/><path d="m19.37,1.91c-.18,0-.36,0-.54-.01,0,0-.1.01-.15.02.22,0,.45,0,.69,0Z"/><path d="m48.56,1.28l.98.02c-.07-.04-.12-.09-.98-.02Z"/><path d="m3.98,2.34l-.2.11c.51-.03,1.07-.06,1.15-.1.09-.05-.41-.03-.96,0Z"/><path d="m122.41,3.03c-.06.04-.07.08.43.07-.06-.03.17-.08-.43-.07Z"/><path d="m124.91,3.1h-.11s.07,0,.11,0Z"/><path d="m120.86,3.25c.11.02.1.06.35.05.33,0,.64-.05.54-.06-.21-.03.83-.16-.74-.07l-.15.08Z"/><path d="m120.86,3.25l.15-.08c-.78.06-.71.08-.15.08Z"/><path d="m144.7.5c-.07,0-.14-.02-.22-.03h-.19s0,.02.01.03h.4Z"/><path d="m77.23.67h-.2c.08,0,.15,0,.2,0Z"/><path d="m17.93,7.83l-.8.05h.2c.21,0,.42-.03.6-.05Z"/><path d="m147.77,1.6c.16-.02.33-.05.5-.08h-.16s-.34.08-.34.08Z"/><path d="m148.11,1.51c-.22.04-.44.07-.66.09.05.01.19,0,.32,0l.34-.09Z"/><path d="m117.21,3.37c.56-.01,1.09-.02.93-.08l-.93.08Z"/>
                  </g>
                </mask>
              </defs>
              <path class="mask" d="m0,8.18c22.89-.58,54.98-1.61,93.5-3.56,32.43-1.64,55.17-2.79,55.12-3.55C148.48-.84.86,1.66.91,2.75c.03.61,45.69-.75,111.38,5.48,11.03,1.05,20.48,2.1,27.83,2.98"
                    mask="url(#path-mask)" stroke="black" stroke-width="2" fill="none"
                    stroke-dasharray="436.24127197265625" stroke-dashoffset="436.24127197265625">
              </path>
            </svg>
        