
            <svg xmlns="http://www.w3.org/2000/svg">
              <defs>
                <mask id="path-mask">
                  <g fill="white">
                    <path d="m322.24,1.7c1.27-.15.46-.45.71-.68l.91.1c.75.21,1.62.35,2.33.61,1.46.53,4.19.29,5.35-.35.8.05,1.31-.06,1.64-.25,1.07.17,2.65-.23,3.48.2.23.28,1.17.54.39.86-.56.21-1.18.32-2.09.14-.75-.15-1.43-.12-1.86.14h-.71c-.87.16-2.07-.66-2.74.09-.14,0-.33-.01-.49-.02s-.29-.01-.3,0c-.68.65-2.3.37-3.7.31l-.02-.17c.38-.08.3-.12-.13-.14-.07.01-.14.01-.22.01l-.05-.25c.24-.02.59.01.58-.1,0-.02-.17-.07-.26-.07-.4,0-.29.1-.33.16l-1.38.13c-.11,0-.23.01-.34.01.17-.14,1.31-.27.3-.42-1.06-.16-1.42.08-1.63.31-.2.24-.65.29-1.36.14-.07-.35-1.09-.22-1.8-.26l.03-.11c.67-.19.14-.22-.43-.24-.78-.23-.85.12-1.34.13l-.1-.05.11.04c-.04.2.25.46-1.16.38-.88-.05-1.64.03-1.48.35l-.87.04-.77-.4c.48-.01.68-.09.72-.21.57-.12.62-.24.06-.37-.76-.02-1.01-.12-.74-.32.13-.09.3-.21-.2-.23-.29-.01-.93.08-.92.12.1.52-1.91.55-2.69.85-.16.06-.23.14-.33.21l-.14.15c-1.79.03-3.67-.13-5.28.27-.41.1-.98-.02-1.38-.09-.73-.13-1.22-.07-1.62.12l-3.45-.2-.06-.15c-.1-.22-.65-.32-1.35-.29-.54.02-.36.19-.4.3-1.92.09-3.83.19-5.84.24l.08.05c-.03.06.13.14-.25.16-.11.09-.15.19-.64.18.17-.33-.79-.41-1.57-.46-1.68-.12-3.63-.3-5.1-.1-1.02.14-1.71.16-2.7.15-.6,0-.27.22-.31.35l-5.78.05v-.24c.39-.14.29-.28.11-.43-.32-.27.17-.4,1.2-.39l.91-.13c.54-.02,1.2.03,1.44-.18l-1-.07c-.13-.12-.72-.24.05-.35.4.13.8.15,1.22,0h1.44c.59.4,1.76.67,3.04.92.9-.27,2.22-.46,2.41-.87,1.26.05,2.52.13,3.79,0,.03.14-.11.31.14.4.33.13-.99.34.21.35.83,0,.67-.2.58-.36-.04-.07-.05-.33.49-.09.99.45.78-.18,1.64-.1.13.06.23.18.4.18.5.02.49-.11.63-.2,1.61.03,3.18-.19,4.9.01.89.11,1.37-.27,1.63-.51l7.92-.02c0,.08-.09.17,0,.24.24.2-1.02.58.35.59,1.21,0,.16-.34.34-.53.05-.05.45-.08.69-.12,2.23-.29,4.64-.26,6.95-.26.67,0,1.77-.33,2.31.06.62.36,4.62.81,5.9.65Zm-7.67-.47l-.25.12c.11.01.25.04.34.03.09,0,.13-.05.19-.09-.1-.02-.19-.04-.28-.06Zm-13.15.47s-.12-.01-.18-.02c0,.05.08.05.18.02Z"/><path d="m32.28,3.15c-2.96.13-5.87-.1-8.81-.13-.39-.67-2.29-.3-3.52-.39-.25-.2-.21-.44-1.53-.25-.79.12-1.94.06-2.96.08-.82-.09,1.7-.82-1.29-.48-.44-.02-1.06.06-1.12-.17-.03-.12-.46-.26-.85-.22-.4.04-.77.18-.91.3-.24.2.53.11.77.16.47.11.81.27,1.2.4-.24.16-1.32.07-1.26.32-.66-.36-2.98.12-2.97-.38,0-.25.94-.53,1.34-.83.42-.31,2.2-.37,3.62-.32.64.03,1.25.14,1.88.15.61.02,1.37.22,1.82.03.48-.2-1.21-.12-.9-.36.98-.17,2-.24,3.13-.09.08.39.38.68,2.07.35,1.26-.25,2.85.3,4.07-.09h.47s.89.12.89.12c1.49.42,3.09.5,4.84.14,1.03.32,2.2.48,3.7.26h.64c-.08.03-.12.07-.23.09-.85.14-1.42.3-.54.57.23.07.86.15.75.03-.25-.28,2.54-.37.49-.76.55-.04,1.36.02,1.35-.25h.96c.03.16-.73.3-.08.43.52.1,1.08.04,1.5-.08l.6.02c1.24.05,1.32.31,1.49.57.1.15.39.26.98.27.22,0,.57-.06.64-.11.2-.15-.28-.19-.66-.25-1.36-.22,1.1-.47-.09-.69.3-.24,1.06-.22,1.78-.22v.17c0,.17-1.07.39.06.48.84.07,1.42-.14,1.26-.41h1.1s1.52.25,1.52.25c.42.19.63.39.27.61-.17.1-.13.2.35.22.58.02.67-.1.76-.22l.82.12.02.37c-1.38-.04-2.94.11-3.86-.37-.35-.18-.86-.08-.95.1-.06.13.05.28-.54.36-2.4.32-4.86.34-7.39.09-1.54-.48-4.75-.46-6.67.04Zm-15.72-1.19c.16,0,.32-.05.48-.08-.14-.04-.26-.1-.41-.1-.16,0-.34.04-.63.08.26.05.41.1.56.1Z"/><path d="m176.84,2c1.15-.1,1.68.13,2.28.33.3.1.1.39,1.02.28.74-.09.57-.29.43-.47-.13-.17-.21-.35-.3-.52l2.72-.06c0,.18-.31.43.93.4.93-.02,1.35.09,1.32.34-.1.14-1.19.17-.65.38.19.07.62.15.9.14.95-.03.32-.25.53-.38.12-.07.2-.15.38-.21.34-.11,1.34-.18.96-.33-.43-.17-1.14.1-1.8.07v-.34c2.57-.09,5.07.01,7.54.21-.4.38-.66.81-2.78.5-.35-.05-.92-.03-1.06.12-.15.16.28.2.77.23.16.19.31.39.41.6l-.7.1.57.16c-1.68.24-3.24.18-4.72-.12-.38-.23-1.14-.5-1.91-.27-1.47.44-4.14-.23-5.12.48-1.43-.18-2.95-.05-4.42-.07.06-.42-1.07-.48-2.01-.36-.84.11-1.34.07-1.97-.04.22-.37,1.71-.11,2.3-.34.22-.09.98.28,1.31.01.2-.16-.53-.31-.99-.44-.46-.13-.83-.16-1.47-.02-.81.17-1.75.29-2.47-.09-.43-.23-1.22-.06-1.68.03-.8.15-.15.25.32.35.74.16,1.47.34,1.33.64l-.47.11c-.83-.47-2.43-.29-3.79-.34-.53-.02-1.74.15-1.39-.3.09-.11-1.56.07-1.61.19-.1.25-.54.23-1.14.23h-.44c-.82.09-1.8.27-1.46-.21.41-.27.4-.26-.3-.35-.31-.04-.71-.1-.78-.18-.23-.26,1-.18,1.2-.36,1.25-.05,2.57-.32,3.64.13.27.12,1.07-.06,1.02-.09-.22-.17,1.51-.24.29-.43.05-.12.19-.14.69-.12,1.64.06,3.28.25,4.94.03.23.89,2.1.18,3.19.24,1.25,0,2.18-.33,3.51-.25-.31.24-1.26.59.95.4Zm5.21.39l-.26.11c.11.01.24.04.34.03.08,0,.13-.05.19-.08-.09-.02-.18-.04-.27-.06Z"/><path d="m364.75,2.39c1.58-.21,3.5.13,4.95-.28,1.29.5,3.25.07,4.78.21.43.04.6.02.91-.05.95-.2,1.18-1.21.12-1.33-1.11-.12-1.46-.31-1.74-.59-.3-.29-.84-.58-1.89-.09-.12.05-.55.11-.74.1-1.81-.17-3.56.09-5.35.11-4.12.04-8.23.15-12.35.24v.27c.36,0,.64,0,.72.12.61-.06,1.34-.13,1.85-.13,1.22-.02,2.71-.29,3.68.09.58.22,4.77.61,5.63.46.14-.03.29-.1.27-.14-.21-.37.58-.2.95-.12.43.09.7.24,1.08.35.21.06.88-.04.82.1-.04.09-.42.17-.94.21-1.08.07-2.61,0-2.74.49Z"/><path d="m131.18,3.63c1.08-.08,2.35-.02,3.06-.34-.31-.04-.71-.13-.92-.11-.83.09-1.61.23-2.22-.08-.5-.25.2-.39.71-.56.9-.3,1.59-.16,2.31.05.45.13,1.21.18,1.58.08,1.27-.35,1.83-.02,2.59.16.48.02,1.09-.03,1.22.16.02.04-.2.13-.29.13-.63-.01-.65-.18-.93-.29l-1.36.62c.89.5,2.05.18,3.15.08-.03-.17.04-.32.83-.35-.01-.12.06-.24-.06-.35-.35-.33.96-.28,1.35-.44.11-.04.38-.08.46,0,.16.18-.27.26-.76.36-.28.06-.07.28-.08.43.43-.17,1.67.1,1.79-.24-.16-.04-.6-.07-.17-.16l.16.16c.63.08.24.39,1.03.38.28,0,.5-.24.75-.38,0-.1.08-.19.46-.24-.02-.04-.04-.07-.07-.11h-.41c-.68-.2-2.84-.41.09-.57.19-.01.28-.16.42-.24-1.26,0-2.58.19-3.72-.18-.14-.04-1.83.25-2.96.27-.31.15-.69.17-1.37.19-1.99.05-4.06-.27-5.96.09-.76-.37-2.13.05-2.94-.16-.79-.2-1.42-.26-2.4-.08-1.33.25-1.91.06-1.94-.32l-2.19.04c.1.24-.5.39-.94.56,1,.31,2.04.62-.08.91-.27.04-.09.14.18.19.86-.24,2.11.1,2.84-.1,1.67-.47,1.34,0,1.56.22h.46c.04-.14.3-.22.82-.22.06-.18.42-.24.93-.25l-.04-.2c.51.02.43.12.43.21,1,.2,2.5.24,2.66.68Z"/><path d="m339.83,2.16c.57,0,.97-.09,1.27-.21.63-.25,1.4-.49.22-.77-1.85-.44-1.93.24-2.89.36l-1.77-.2c-.83-.43-2.41-.04-3.47-.2l-.02-.31c1.02.03,2.2-.33,2.97-.06.97.33,1.97.24,3.09.16,4.43-.31,8.88-.31,13.35-.21.08.15.07.29-.48.38h-.86s-.44-.12-.44-.12c-.14-.06-.27-.07-.4,0-2.82.09-3.21.23-2.13.75.03.02.04.04.06.05,2.49-.35,3.16.7,5.59.48,1.01-.09,2.36-.13,2.63.32-.66.01-1.41.38-1.63.19-.42-.36-1.12-.17-1.8-.17-2.42,0-4.78-.03-7.27.05-3.54.12-7.2-.02-10.82.07-.72.02-1.87.13-1.93-.25.42-.26,1.1-.29,1.86-.14.91.18,1.52.08,2.09-.14.93.11,1.87.25,2.78-.04Zm4.43-.88c.02.13.28.36,1,.29.7-.08,1.72-.26,1.76-.4.08-.29-.83,0-1.16-.06-.64.04-1.66-.21-1.6.18Zm2.08,1.07c.46,0,1.27,0,1.3-.23.02-.13-.28-.25-.77-.23-.52.01-1.03.09-1.71.15.5.14.81.3,1.17.31Zm-2.7-.84h-.27s.03.04.03.04c.2,0,.21-.02.23-.04Z"/><path d="m56.14,3.33c1.1-.1,1.96-.06,3.2.06,1.8.18,4.05.06,6.09.03,1.02-.02,2.12.14,3.08-.06v-.35c-.21-.16-.79-.41-.1-.47,2.05-.17,1.78-.8,3.19-1.07-.75,0-1.42.08-2.01.2-.08,0-.14.01-.19.03-.08.16.24.37-.58.44-.64.06-1.1-.01-1.19-.21l-.11-.05.1.05c.95.12.98-.26,1.77-.23.05-.02.07-.04.06-.06-.9-.37-2-.01-2.98-.07-1.26.36-2.58.34-3.92.03-.4-.09-.66-.22-1.11-.01-.69.33-1.69.21-2.66.09-1.38.25-.75.58-.41.89.09.08.38.2-.11.25-.41.04-.66-.04-.83-.14h-.49c.26.27-1.05.39-.78.66Z"/><path d="m209.95,3.27c.87.2,1.78.36,2.98.19,1.5-.35,3.09-.41,4.79-.12.32-.16.92-.19,1.46-.26l.9.1c-.11-.11-.27-.32-.31-.32-1.64.08-2.75-.36-4.33-.32-1.15.03-2.21.01-2.52-.37,0-.01-.13-.02-.19-.02l-.65.13c.19.43-.97.39-1.86.35-2.92-.11-5.85.13-8.81-.09-1.78-.13-1.88-.02-1.03-.48.26-.14.43-.29.64-.44-1.7.09-3.67-.14-5.03.33.32.04.63.09.96.1.54.02,1.33-.24,1.57.02.1.11-.76.31-1.3.43-.29.06-.83.04-1.26.05-.36,0-.75,0-.93.11-.23.14.15.21.52.28.58.1.74.35,1.65.34,1.15.25,2.41.39,3.91.26,1.72-.37,3.73-.37,5.76-.35-.03-.1.06-.23.43-.22.64,0,.23.17.38.26.85-.35,1.74-.78,2.29.04Z"/><path d="m351.24,1.09l-.44-.12h-.2s-.2,0-.2,0c-2.82.09-3.21.23-2.13.75.03.02.04.04.06.05,2.49-.35,3.16.7,5.59.48,1.01-.09,2.36-.13,2.63.32.73-.2,2.05-.1,2.59-.39-.7-.24-.02-.61.35-.61,1.08,0,.42.32.58.5.03.04,0,.08,0,.12.83.34,2.23-.06,3.16.15.57-.12,1.07-.12,1.51.04.14-.49,1.67-.41,2.75-.49.52-.04.9-.12.94-.21.06-.14-.6-.03-.82-.1-.38-.11-.64-.26-1.08-.35-.36-.08-1.16-.25-.95.12.02.04-.12.11-.27.14-.85.15-5.05-.23-5.63-.46-.97-.37-2.46-.1-3.68-.09-.51,0-1.24.07-1.85.13-.59.12-.62-.01-.71-.12v-.27s-.89,0-.89,0c.08.15.07.29-.48.38-.11.06-.19.16-.33.17-.46.03-.47-.09-.53-.17Z"/><path d="m75.54,1.56l.03.14c.36.27.64.56,1.08.82.95.56,2.71.63,4.14.16.18-.06.27-.15.49-.18.82-.11.87-.52.06-.68q-.34-.07-.53.2c-.09.12-.07.29-.68.29-.19,0-.4-.14-.6-.22-1.16-.1-1.08-.39-1.34-.63,1.33-.15,2.68-.13,4.05-.04-.56.38.77.48,1.41.68l.69-.23,1.39-.11s.03.06.02.1c-.85.43.47.81.42,1.22h-.84s0-.04-.05-.05c-.6-.13-.48-.54-1.21-.47-1.08.1.12.4-.08.61l-.5.27c-2.04-.05-4.12.06-6.11-.15h-.87s-.04-.24-.04-.24l.18-.06-.24.05h-.54c-.28-.02-.67-.13-.66.07l-.88.12.12-.04.13.04c-.6-.27-2.1-.24-2.53-.68-.2-.21-2.09.18-3.12.35-.17.03-.28.08-.42.13-.22-.16-.81-.41-.11-.47,2.05-.17,1.78-.8,3.19-1.07,1.37-.15,2.68-.13,3.95.09Zm5.82,1.32c.04.07.14.13.21.2.06-.03.16-.07.16-.1,0-.05-.06-.11-.11-.18-.13.04-.28.07-.27.09Z"/><path d="m140.92,3.18c-.79.03-.86.18-.83.35l.74.04.57-.02c1.42.08,2.79.2,4.3.04.62-.07,1.5-.08,2.24.05.81.14,2.33.15,2.59.11,2.73-.41,5.38-.2,8,.01.96.08,1.57-.11,2.36-.11h12.1c.43,0,.88.05,1.13-.09.06-.42-1.07-.48-2.01-.36-.84.11-1.34.07-1.97-.04-.29.16-.86.12-1.35.14l-.47.11c-.83-.47-2.43-.29-3.79-.34-.53-.02-1.74.15-1.39-.3.09-.11-1.56.07-1.61.19-.1.25-.54.23-1.14.23-.14.11-.3.11-.45,0-.81.1-1.79.27-1.45-.21h-.67c-.69.18-1.41.33-2.38.11-.8.28-1.57.65-2.6.05l-1.27-.02c-.28.29-1.13.19-1.82.2-1.01.02-.83-.19-.9-.35-1.16.42-2.33.29-3.49,0-.25.13-.47.37-.75.38-.78.01-.4-.3-1.03-.38-.11.34-1.34.07-1.78.24h-.9Z"/><path d="m93.67,3.33c.62.22,1.31.34,2.24.12-.53-.2-1.04-.41-.42-.64.49-.18.87.14,1.4.06.69.39,1.09.16,1.55-.04.53-.23,1.04-.28,1.4.04,1.25-.07,1.06-.37,1.29-.6-.19-.27-1.2-.37-1.69-.58-.83-.25-1.94-.31-3-.2-.79.08-1.48.09-2.24.03-.78.15.03.58-1.32.59-1,0-.83-.28-.99-.46l-.89.03c.06.17.18.35.17.52,0,.11-.42.16-.8.15-.33,0-.58-.07-.39-.15.28-.12,1.06-.23.24-.36-.21-.03-.93.19-1.41.29-.15.04-.23.15-.55.04l.56-.04c-.33-.49-1.44-.39-2.6-.26-.36.4,1.41.6,1.28.98,1.91-.22,1.88.1,1.74.46.77-.06,1.39.19,2.18.08-.11-.41.74-.77,2.05-.72,1.83.07-.59.36.04.56.09.03.1.07.15.11Z"/><path d="m258.11,2.91h.72s1.39-.14,1.39-.14l.51-.02s-.03-.07-.04-.1c-.3-.04-.45-.1-.2-.19.04-.01.16-.02.2-.01.39.07-.02.14-.02.2.73.02,1.26-.05,1.6-.24,1.07-.6,2.78-.12,2.74.02-.11.45,1.04.42,1.88.53,1.05-.16,2.09-.31,3.15-.47.47-.06,1.36-.02,1.11-.26-.21-.2-1.19-.05-1.43-.11-.76-.19-1.94.39-2.37-.1-.58-.03-1.27-.02-1.36-.25-.49,0-1.01.03-1.33-.11-1.08-.03-2.16-.06-3.23-.1-2.11-.09-3.94.4-6.07.24v.28c.52-.01,1.07-.04,1.34.13-.03.16-.05.32-.85.33l.38.35h1.87Z"/><path d="m121.52,3.29c-.27-.05-.45-.15-.18-.19,2.12-.29,1.08-.6.08-.91l-.82.03.02.35.1.05-.1-.05c-.74-.12-2.36.14-2.23-.37-1.23.04-2.35-.41-3.73-.06-.2.05-1.06-.09-1.1-.29l-1.3-.05c-.57.29-2.21.4-1.89.84.01.02-.28.06-.43.09-.96-.7-1.37.17-2.13.05,0,.04,0,.08,0,.12,2.22.65,2.76.05,3.54-.35l.17-.03-.18.03c.45.06,1.27.11,1.28.17.22.88,1.85.33,3.16.28,1.37-.05,2.95-.22,4.16.16.6.1.51.41,1.54.38l.03-.25Z"/><path d="m50.85,2.43l.82.12c1.99.09,1.96.47,1.75.87.66.14.62-.09.94-.12-.59-.55.39-1.02,2.2-1.07-.42-.28-.45-.56,0-.84-.46-.29-.84-.09-1.24,0,.26.06.33.16-.03.17-.49.02-.41-.12-.46-.21-1.05-.4-2.61-.14-3.73-.13-1.84.02-3.84-.19-5.59.12v.17s1.29.06,1.29.06c.4-.21.77-.1,1.13,0l1.52.25c.11-.16.2-.33,1.02-.3.55.02.87.13,1.13.26.61.3-.23.46-.76.64Z"/><path d="m267.35,2.03c.43.49,1.61-.09,2.37.1.25.06,1.22-.09,1.43.11.26.24-.64.19-1.11.26-1.06.16-2.1.31-3.15.47l.38.21h.51c1.42-.36,3.22-.16,4.82-.27.38-.14.29-.28.1-.43-.32-.27.17-.4,1.2-.39l.02-.12c.01-.17.32-.25.95-.23.13,0,.26,0,.38-.02-.13-.12-.72-.24.04-.35l-.04-.12c-2.52-.06-5.04-.18-7.58.02.41.27,1.16.55-.33.77Z"/><path d="m231.14,3.27c.52-.01.48.48,1.41.11.7-.28,1.36.11,2.05,0,.19-.47,1.14-.38,2.13-.21.84.14,1.53.07,2.16-.09.65-.17.94-.36.25-.57-.93-.02-1.79-.18-2.79-.08-3.11.32-3.45.31-5.95-.05-.06,0-.18-.02-.19-.01-1.27.45-3.2-.18-4.5.22.12.21.14.44,1.02.54.03-.15.24-.17.84-.15,1.27.05,2.45.14,3.58.29Z"/><path d="m267.35,2.03c1.49-.22.74-.5.33-.77-.98-.13-1.64-.37-3.05,0-1.01.26-3.04,0-4.67.04-2.18.05-4.48.16-6.68,0-.97-.07-1.61-.04-1.5.29.11.33.89.31,1.76.25l1.82-.03c2.13.16,3.96-.33,6.07-.24,1.07.03,2.15.06,3.23.1.26-.06.55-.17.77-.16.49.02.54.16.56.28.09.23.78.22,1.36.25Z"/><path d="m111.35,2.55c-.78.4-1.32,1-3.54.35l-1.78.15c-.47.09-.97.17-.84.36.83.31,1.93.08,2.84.08,3.49-.02,6.98.14,10.5-.04.94-.05,1.07-.16,1.43-.3-1.21-.38-2.79-.22-4.16-.16-1.32.05-2.94.6-3.16-.28-.02-.06-.84-.11-1.27-.17Z"/><path d="m201.01,1.61c-.21.15-.38.3-.64.44-.85.46-.75.35,1.03.48,2.96.22,5.89-.02,8.81.09.89.03,2.05.08,1.86-.35-1.66-.45-3.46-.38-5.45-.15-1.28.15-2.26.06-2.02-.41-1.29.2-2.36-.14-3.59-.1Z"/><path d="m225.7,2.6c1.29-.4,3.23.23,4.5-.22.02,0,.13,0,.19.01,2.5.36,2.84.37,5.95.05,1-.1,1.86.06,2.79.08-.4-.39-.83-.77-2.36-.96l-1.12.25c-.41.25-1.05.23-1.95.19-1.1-.05-2.43,0-3.38-.03-1.92-.05-3.63.36-5.46.11l.49.5c.12,0,.24,0,.36.01Z"/><path d="m248.15,1.82c-.57.38-1.04.73,1.27.77.74.01.28.17.22.27-1.13.24-2.39.1-3.2-.05-2.06-.39-2.52-.05-2.96.39l-.42.03c-1.35-.21-3.57-.31-1.47-.94.38-.11.37-.32.54-.49,1.16,0,2.33-.02,3.49-.03.75,0,1.32-.01,1.39-.26l1.3.03c-.05.1-.03.2-.16.29Zm-3.71.36s-.12-.01-.23.03c.06,0,.13,0,.23-.03Z"/><path d="m12.01,2.76c-.66-.36-2.98.12-2.97-.38,0-.25.94-.53,1.34-.83.42-.31,2.2-.37,3.62-.32.64.03,1.25.14,1.88.15.61.02,1.37.22,1.82.03.48-.2-1.21-.12-.9-.36-2.08-.42-4.68.04-6.84-.35-.68-.12-.53.23-1.08.27-.53.14,1.85.34-.11.45-.66.37-2.38.57-2.12,1.08.41.03.93.04,1.19.11.65.18.63.8,2.3.24,0,0,.16.03.35.08.19.04.43.09.62.11,1.09.11,2.12.07,3.03-.12-.31-.48-1.52,0-2.13-.16Z"/><path d="m6.2,1.08c-.54-.02-.93-.09-1.21-.23-.7-.34-2.03-.56-3.08-.35C.98.69.13,1.02.02,1.42c-.2.73.97.97,3.58.85.64-.03,1.43.15,2.15.24.79-.29.49-.59-.36-.8-.86-.21-1.66-.06-2.28.18-.23.09-1.27.23-1.18-.04.08-.24-.52-.46-.14-.69.24-.14.35-.32,1.06-.34.73-.02,1.05.14,1.14.3.09.18.2.32,1.01.31.79-.01,1.2-.12,1.19-.34Z"/><path d="m224.85,2.09c1.83.25,3.54-.17,5.46-.11.95.03,2.28-.01,3.38.03.9.04,1.54.06,1.95-.19-1.55-.6-3.85-.25-5.75-.27-2.84-.03-5.75.25-8.52-.12l-.23.16c.41.18,1.86.39-.34.48-.72.03-1.13.23.11.3,1.31-.1,2.26-.6,3.94-.27Z"/><path d="m124.56,1.59c.03.38.61.57,1.94.32.98-.18,1.61-.12,2.4.08.81.21,2.17-.21,2.94.16,1.9-.36,3.98-.04,5.96-.09.68-.02,1.06-.04,1.37-.19-1.83-.33-3.8-.35-5.93-.29-1.36.03-2.74.06-4.22-.08-1.29-.12-2.96.05-4.46.09Z"/><path d="m38.42,1.43h.96s1.42.34,1.42.34l.61.02,1.97-.24c-1.15-.61-3.46-.43-5.12-.46-3.3-.06-6.62.08-9.94.14l-.89.12c1.49.42,3.09.5,4.84.14,1.41-.11,2.9-.32,3.7.26h.64s.46-.03.46-.03c0-.09-.02-.13-.04-.17l-.14-.09.31.04,1.23-.08Z"/><path d="m283.39,1.41c1.26.05,2.52.13,3.79,0,1.01-.02,1.97,0,2.72.21.68,0,1.02-.01,1.36-.02,1.61.03,3.18-.19,4.9.01.89.11,1.37-.27,1.63-.51-4.86-.08-9.72-.09-14.58.1l.18.21Z"/><path d="m249.64,2.86c-1.13.24-2.39.1-3.2-.05-2.06-.39-2.52-.05-2.96.39,3.38.11,6.77.32,10.14-.05.82-.09,1.33.17,1.99.13.92-.06,2.32.09,2.49-.36h-1.87s-3.08-.1-3.08-.1l-3.52.04Z"/><path d="m316.79,2.01c-.04.2.25.46-1.16.38-.88-.05-1.64.03-1.48.35,3.63.22,7.25.44,11.02.11l-.02-.17-.13-.14c-.07.01-.14.01-.22.01-.63.08-1.25.16-1.44-.12-.11,0-.23.01-.34.01l-1.33-.1c-.2.24-.65.29-1.36.14-.78-.03-1.59.26-2.31.03-.24-.08.12-.21.5-.28l.03-.11-.43-.24c-.78-.23-.85.12-1.33.13Z"/><path d="m243.06,3.22c-1.35-.21-3.57-.31-1.47-.94.38-.11.37-.32.54-.49-.64-.03-.43-.17-.47-.27l-.86.04c.27.26-.85.37-.88.6l.58.05s-.13.04-.13.04c-.16-.03-.31-.06-.47-.09-.77-.16-.3-.39-.46-.59-.87-.29-1.76-.33-2.68,0,1.53.18,1.97.56,2.36.96.7.21.41.4-.25.57-.63.16-1.32.24-2.16.09-.99-.17-1.93-.26-2.13.21,2.23.06,4.5-.15,6.7.05.87.08,1.32-.06,1.77-.22Z"/><path d="m220.91,2.35c-1.24-.07-.83-.27-.11-.3,2.2-.09.76-.29.34-.48-.38.23-1.07.06-1.59.1.06.15-.34.37-.67.31-1.61-.3-2.75.18-4.15.15-.75.19-.79.03-.85-.12-.76-.19-.95-.02-1.17.14.07,0,.18.01.19.02.31.38,1.37.4,2.52.37,1.58-.04,2.69.39,4.33.32.04,0,.21.21.31.32l1.72.22.91.13.1-.34c-1.95-.06-2.06-.42-1.9-.84Z"/><path d="m197.18,3.28c-.91.01-1.06-.24-1.65-.34-.37-.07-.75-.14-.52-.28.17-.11.57-.1.93-.11.43-.01.98.01,1.26-.05.54-.12,1.4-.32,1.3-.43-.24-.26-1.02,0-1.57-.02-.33-.01-.64-.07-.96-.1-.42-.19-.8,0-1.19.01-.66.1-1.37.24-1.17.44.76.79-1.29.79-3.14.87.23.17,1.18.09,1.26.31,1.51-.13,2.94.1,4.47.06,1.09-.03.86-.2.98-.35Z"/><path d="m214.73,2.13c1.4.04,2.54-.45,4.15-.15.33.06.73-.15.67-.31-2.81-.03-5.6,0-8.41.08-1.41.04-2.88-.03-4.28-.11-.84-.05-1.53,0-2.27.06-.25.47.73.56,2.02.41,1.99-.23,3.8-.3,5.45.15l.65-.13c.22-.15.41-.33,1.16-.13l.85.12Z"/><path d="m249.64,2.86l3.52-.04.03-.25c-.48,0-.9-.04-.83-.19.07-.15.56-.15,1-.16.16-.12.17-.25.18-.38-.87.06-1.66.08-1.76-.25-1.12-.13-2.28-.13-3.47-.05-.05.1-.03.2-.16.29-.57.38-1.04.73,1.27.77.74.01.28.17.22.27Z"/><path d="m106.03,3.05l1.78-.15v-.12s-.09-.05-.09-.05l.09.05c.76.12,1.17-.76,2.13-.05.15-.03.45-.07.43-.09-.32-.44,1.33-.55,1.89-.84-.09-.14-.49-.12-.84-.12-.47.19-1.21.13-1.87.15-.49-.08-.79.42-1.05.08-.28-.36-1.08-.13-1.53-.22-.77.24-1.13.1-1.39-.12-.46-.05-1.01-.29-1.29.04l-.2.19c.54.08.81.28,1.57.28.52.08.32.22.37.34,2.36.22-.31.43,0,.64Z"/><path d="m323.86,1.12c.75.21,1.62.35,2.33.61,1.46.53,4.19.29,5.35-.35-1.09.01-2.3.05-1.54-.43-2.09-.08-4.17-.16-6.15.17Z"/><path d="m106.03,2.42c2.36.22-.31.43,0,.64-.47.09-.97.17-.84.36-1.34.03-2.77.37-3.99-.09-.06-.02-.08-.05-.06-.08,1.77-.37,1.91-.9,1.82-1.45h1.13c.54.08.81.28,1.57.27-.05.13-.07.25.37.34Zm-1.41.39c.28.06.55-.05.46-.11-.18-.14.72-.4-.63-.4-.68.06-.62.15-.13.25.09.09.08.21.3.26Z"/><path d="m136.94,3.45c-.41,0-.75-.24-1.22-.04-1.04.44-1.14.05-1.48-.12-.31-.04-.71-.13-.92-.11-.83.09-1.61.23-2.22-.08-.5-.25.2-.39.71-.56.9-.3,1.59-.16,2.31.05.45.13,1.21.18,1.58.08,1.27-.35,1.83-.02,2.59.16l-1.36.62Zm-4.93-.47s.16-.02.17-.03c.02-.03,0-.06-.01-.09l-.34.05c.06.03.12.05.19.07Z"/><path d="m308.26,2.58c-1.79.03-3.67-.13-5.28.27-.41.1-.98-.02-1.38-.09-.73-.13-1.22-.07-1.62.12,1.51.39,3.34.23,5.06.15,2.22-.11,4.3.33,6.54.04.32-.04.73-.04.87-.16-.46-.27-1.23-.34-2.12-.17-1.07.21-1.58.06-2.07-.16Z"/><path d="m6.2,1.08c0,.22-.4.33-1.19.34-.82.01-.92-.13-1.01-.31-.08-.17-.4-.32-1.14-.3-.71.02-.82.2-1.06.34-.38.23.22.45.14.69-.09.28.95.13,1.18.04.62-.24,1.42-.38,2.28-.18.85.2,1.16.51.36.8.29.08.59.13.88,0-.26-.5,1.46-.71,2.12-1.08-.47-.11-.89-.22-.92-.41l-1.64.05Z"/><path d="m145.37,2.95c1.16.29,2.33.42,3.49,0,.68-.36,2.78-.27,3.16-.73l-.16-.4c-.77-.13-1.46-.1-2.09.07-.1.07.19.18-.28.22l-.14-.22c-.13-.02-.27-.03-.42-.02-1.81.07-1.44.73-3.1.84-.37.05-.47.14-.46.24Z"/><path d="m267.27,3.17l-.38-.21c-.83-.11-1.98-.09-1.88-.53.03-.14-1.67-.62-2.74-.02-.34.19-.87.26-1.6.24.03.03.05.06.06.1l-.03.37c2.17.14,4.31.39,6.58.06Z"/><path d="m288.06,3.16c.17-.33-.79-.41-1.57-.46-1.68-.12-3.63-.3-5.1-.1-1.02.14-1.71.16-2.7.15-.6,0-.27.22-.31.35,2.12.08,4.18.24,6.4.02.96-.09,2.18.02,3.28.04Z"/><path d="m120.61,2.21l.82-.03c.44-.17,1.04-.32.94-.56-2.21-.18-4.57.12-6.81-.23-.9-.14-1.18.33-1.99.45.04.2.9.34,1.1.29,1.37-.35,2.49.1,3.73.06.8-.71,1.47.11,2.21.02Z"/><path d="m157.83,2.97h.67c.41-.26.4-.25-.3-.34-.31-.04-.71-.1-.78-.18-.23-.26,1-.18,1.2-.36l-.93-.24-1.46-.08-2.95.45c2.01.37,1.97.46-.42.92,1.02.6,1.8.23,2.6-.05.78-.05,1.17-.7,2.37-.12Z"/><path d="m190.47,3.26c1.84-.08,3.9-.08,3.14-.87-.2-.2.51-.34,1.17-.44-.21-.41-1.14-.07-1.7-.12-.4.38-.66.81-2.78.5-.35-.05-.92-.03-1.06.12-.15.16.28.2.74.22l.2-.02-.18.03.47.58Z"/><path d="m101.2,3.33c-.06-.02-.08-.05-.06-.08-.19-.19-1.57-.08-1.31-.38-.36-.32-.87-.27-1.4-.04-.46.2-.86.43-1.55.04-.53.07-.9-.25-1.4-.06-.63.23-.11.44.42.64,1.79.04,3.69.4,5.3-.12Z"/><path d="m74.58,3.21c-.6-.27-2.1-.24-2.53-.68-.2-.21-2.09.18-3.12.35-.17.03-.28.08-.42.13v.35c1.58.27,3.06-.18,4.62-.03l1.16-.05c.15,0,.25-.03.29-.07Z"/><path d="m316.34,1.05c.62.36,4.62.81,5.9.65,1.27-.15.46-.45.71-.68-.81.06-1.62.21-2.38-.02-.17-.05-.73-.09-.76-.07-1.02.43-2.33.05-3.46.12Z"/><path d="m12.01,2.76c.61.16,1.83-.31,2.13.16.63.21,1.26.09,1.88.01,1.05-.33,2.7-.14,3.93-.31-.25-.2-.21-.44-1.53-.25-.79.12-1.94.06-2.93.09l-.55.15-.17-.07.69-.09c-.82-.09,1.7-.82-1.29-.48-.11.19.29.44-.9.47-.24.16-1.32.07-1.26.32Z"/><path d="m288.95,2.83c-.03.06.13.14-.25.16,2.68.06,5.51.47,7.83-.3l-.06-.15h-1.75c-1.92.11-3.83.21-5.76.3Z"/><path d="m19.95,2.63c-1.23.17-2.88-.02-3.93.31.14.38,1.11.08,1.61.12,1.92.14,3.89.05,5.83-.04-.39-.67-2.29-.3-3.52-.39Z"/><path d="m51.69,2.93c-1.38-.04-2.94.11-3.86-.37-.35-.18-.86-.08-.95.1-.06.13.05.28-.54.36-.19.38.97.27,1.58.3,1.38.05,2.78.04,4.18.06-.11-.15.24-.33-.42-.45Z"/><path d="m58.76,1.66c.96.11,1.96.24,2.66-.09.45-.21.71-.08,1.11.01,1.34.31,2.67.34,3.92-.03-1.25-.34-2.81-.29-4.33-.26-1.12.03-2.23.07-3.35.1v.26Z"/><path d="m175.89,1.59c-.31.24-1.26.59.95.4,1.15-.1,1.68.13,2.28.33.3.1.1.39,1.02.28.74-.09.57-.29.43-.47-.13-.17-.21-.35-.3-.52l-4.38-.03Z"/><path d="m89.24,3.3c.15-.35.17-.67-1.74-.46l-1.33.23h-.84c-.36.13-.86.11-1.34.1l-.5.27c-.04.24.55.18,1.02.15,1.58-.1,3.16-.19,4.74-.29Z"/><path d="m157.68,1.85l.93.24c1.25-.05,2.57-.32,3.64.13.27.12,1.07-.06,1.02-.09-.22-.17,1.51-.24.29-.43-1.95.08-4.08-.36-5.88.15Z"/><path d="m88.81,2.13c.48-.1,1.2-.32,1.41-.29.82.13.04.24-.24.36-.19.08.06.15.39.15.38,0,.79-.04.8-.15.01-.17-.11-.35-.17-.52-1.6-.34-3.42-.27-5.22-.22l-.06.3s.03.06.02.1h.48c1.16-.12,2.27-.21,2.59.27Z"/><path d="m145.83,2.71c1.66-.11,1.3-.77,3.1-.84-.92-.3-1.86-.56-3.08-.09-.14.08-.23.23-.42.24-2.92.16-.77.37-.09.56.07-.08,0-.2.52-.19l-.1.2s.05.07.07.11Z"/><path d="m185.56,3.42c-.38-.23-1.14-.5-1.91-.27-1.47.44-4.14-.23-5.12.48,2.39.05,4.73-.02,7.03-.21Z"/><path d="m221.8,3.39l-1.72-.22-.9-.1c0,.29-.74.27-1.46.26-1.7-.28-3.29-.23-4.79.12.14.13.61.25.92.21,2.57-.31,5.46.16,7.95-.28Z"/><path d="m19.93.98c.08.39.38.68,2.07.35,1.26-.25,2.85.3,4.07-.09-1.83-.54-4.05-.25-6.14-.26Z"/><path d="m277.95,1.36c.59.41,1.76.68,3.04.92-.26-.41.4-.74,1.28-1.06-.9-.21-1.7-.02-2.52.06-.44.33-1.16.11-1.79.08Z"/><path d="m38.95,3.11c-1.54-.48-4.75-.46-6.67.04,1.9.23,3.81.04,5.72.05.05-.24.52-.15.95-.09Z"/><path d="m128.14,2.94c-.51.01-.87.07-.86.23l.57.08.12.13-.42-.04-.35-.15c-.53,0-.78.08-.82.22,1.61.05,3.01.45,4.8.23-.16-.43-1.66-.48-2.65-.68h-.39Z"/><path d="m206.86,3.19c-2.03-.02-4.04-.02-5.76.35.68.21,1.32.3,2.33.08,1.29-.27,2.88-.02,4.3-.12l-.08-.27c-.26-.01-.53-.03-.8-.04Z"/><path d="m56.57,2.23c-1.81.05-2.79.53-2.2,1.07l1.77.02c-.27-.27,1.04-.39.78-.65-.51-.13-.3-.29-.35-.44Z"/><path d="m153.28,2.22l2.95-.45c-1.49-.2-2.97-.35-4.36.05l.16.4h1.25Z"/><path d="m102.96,1.81h1.13s.2-.2.2-.2c-1.65-.08-3.33-.28-4.86.08.49.21,1.5.3,1.69.58.32-.05.59-.09.86-.12.07-.17.11-.34.99-.34Z"/><path d="m58.76,1.66v-.26s-2.18-.01-2.18-.01c-.45.28-.42.56,0,.84,1.07.03.82.25.84.43.17.09.41.18.83.14.49-.05.2-.17.11-.25-.33-.32-.97-.64.41-.89Z"/><path d="m121.52,3.29l-.03.25c1.5.02,3.15.39,4.42-.13-.22-.22.11-.69-1.56-.22-.73.21-1.98-.14-2.84.1Z"/><path d="m222.82,3.19l-.1.34c1.71.23,3.25-.01,4.83-.15l-.83-.24c-.88-.11-.89-.33-1.02-.54-.12,0-.24-.01-.36-.01,0,.46-.26.84-2.52.6Z"/><path d="m242.13,1.79c1.16,0,2.33-.02,3.49-.03.75,0,1.32-.01,1.39-.26-1.56-.3-3.28,0-4.9-.08,0,.12,0,.24.01.36Z"/><path d="m226.72,3.14l.83.24c1.26.15,2.57.43,3.59-.1-1.13-.15-2.32-.24-3.58-.29-.6-.02-.81,0-.84.15Z"/><path d="m93.67,3.33s-.06-.08-.15-.11c-.63-.2,1.79-.49-.04-.56-1.32-.05-2.17.31-2.05.72.77.06,1.59.27,2.24-.05Z"/><path d="m308.26,2.58c.5.22,1,.37,2.07.16.89-.17,1.66-.1,2.12.17.31-.03.71-.01.83-.13l-.77-.4c-1.38-.1-2.74.04-4.11.05l-.14.15Z"/><path d="m330.01.95c-.76.48.45.44,1.54.43.8.05,1.31-.06,1.64-.25l-.02-.31c-1.03.09-2.06.18-3.16.13Z"/><path d="m272.61,2.91c-1.6.11-3.4-.09-4.82.27,1.6.29,3.21-.04,4.81-.03v-.24Z"/><path d="m169.19,1.61c.23.89,2.1.18,3.19.24-.07-.17.24-.43-1.07-.31-.66.06-1.4.05-2.11.07Z"/><path d="m91.89,1.65c.16.18-.01.46.99.46,1.34,0,.54-.44,1.32-.59-1.07-.34-1.54.08-2.3.13Z"/><path d="m43.37,1.55l-1.97.24c1.24.05,1.31.31,1.49.57.1.15.39.26.98.27.22,0,.57-.06.64-.11.2-.15-.28-.19-.66-.25-1.36-.22,1.1-.47-.09-.69-.12-.02-.25-.02-.39-.02Z"/><path d="m332.4,2.48c-.87.16-2.07-.66-2.74.09q.38.44,2.74-.09Z"/><path d="m79.53,2.09c-1.16-.1-1.08-.39-1.34-.63-.91-.02-1.91-.2-2.65.1l.03.14c.65.06,1.8-.05,1.9.19.23.53,1.16.31,2.06.2Z"/><path d="m82.23,1.43c-.56.38.77.48,1.41.68l.69-.23.55-.49c-.91-.07-1.71.22-2.65.05Z"/><path d="m185.54,1.97v-.34c-.82-.1-1.65-.19-2.56-.07,0,.18-.31.43.93.4.93-.02,1.35.09,1.32.34.41-.09.28-.21.32-.32Z"/><path d="m282.26,1.22c-.87.32-1.53.65-1.28,1.06.9-.27,2.22-.46,2.41-.87l-.18-.21-.95.03Z"/><path d="m51.69,2.93c.66.12.3.3.42.45l1.32.05c.21-.41.24-.78-1.75-.87l.02.37Z"/><path d="m207.66,3.23l.08.27c.86.01,1.59-.07,2.21-.23-.55-.82-1.43-.39-2.29-.04Z"/><path d="m305.71,1.08c0,.08-.09.17,0,.24.24.2-1.02.58.35.59,1.21,0,.16-.34.34-.53.05-.05.45-.08.69-.12-.3-.15-.56-.31-1.37-.17Z"/><path d="m277.95,1.36c.63.03,1.35.25,1.79-.08l-.97-.06c-.37.01-.68,0-.85-.1l-1.79.12.38.13h1.44Z"/><path d="m360.07,2.2s.03-.08,0-.12c-.15-.18.5-.49-.58-.5-.37,0-1.05.37-.35.61l.93.02Z"/><path d="m239.92,2.15c.03-.23,1.15-.34.88-.6l-1.35.02c.16.2-.31.43.47.58Z"/><path d="m7.84,1.03c.03.18.45.3.92.41,1.95-.1-.43-.31.11-.45-.08-.03-.2-.05-.34-.03h-.59c-.12.02-.15.04-.1.07Z"/><path d="m75.21,3.09l-.88.12c.39.27,1.46.19,2.13.31l.05-.24-.04-.24c-.24-.01-.42-.01-.6-.01-.07.14-.37.1-.66.06Z"/><path d="m191.73,3.57c-.07-.22-1.03-.14-1.32-.29l-.7.1.57.16c.47.07.95.09,1.45.03Z"/><path d="m105.59,1.57c.26.22.61.36,1.39.12-.37-.12-.52-.44-1.39-.12Z"/><path d="m260.22,2.77l-1.39.13c-.06.32.71.24,1.39.2v-.34Z"/><path d="m109.56,1.83c.66-.01,1.4.05,1.87-.15-.95-.25-1.46-.1-1.87.15Z"/><path d="m364.74,2.39c-.44-.15-.94-.16-1.51-.04.49.05.78.51,1.51.04Z"/><path d="m276.51,1.37l-.38-.13h-.88s.04.13.04.13c.4.13.8.15,1.22,0Z"/><path d="m69.43,1.63s-.01.04-.06.06c.06-.02.13-.03.2-.03l.12-.26-.27.23Z"/><path d="m277.93,1.12c.17.1.48.12.85.1,0-.2-.28-.23-.85-.1Z"/><path d="m54.85,1.36c.05.09-.03.22.46.21.36-.01.29-.11.03-.17l-.48-.04Z"/><path d="m76.5,3.29l-.05.24c.45-.04.77-.11.91-.24h-.87Z"/><path d="m74.3,3.28l-1.16.05c.49.16.87.15,1.16-.05Z"/><path d="m242.11,1.78v-.36c-.28-.02-.44.01-.45.09.04.1-.17.24.45.26Z"/><path d="m149.36,1.89l.14.22c.46-.04.18-.15.28-.22-.14-.02-.28-.02-.42,0Z"/><path d="m38.95,3.11c-.44-.06-.9-.15-.95.09.4.04.8.07.95-.09Z"/><path d="m308.4,2.43c1.37,0,2.73-.15,4.11-.05.48-.01.69-.09.73-.21l.06-.37c-.76-.02-1.01-.12-.74-.32.13-.09.3-.21-.2-.23-.29-.01-.93.08-.92.12.1.52-1.91.55-2.69.85-.16.06-.23.14-.33.21Z"/><path d="m337.05,2.2c.93.11,1.87.25,2.77-.04-1.57-.02-.29-.52-1.4-.62l-1.77-.2c.23.28,1.17.54.39.86Z"/><path d="m289.9,1.62c-.75-.21-1.71-.23-2.72-.21.03.14-.11.31.14.4.33.13-.99.34.21.35.83,0,.67-.2.58-.36-.04-.07-.05-.33.49-.09.99.45.78-.18,1.3-.1Z"/><path d="m321.68,2.34l1.33.1c.17-.14,1.31-.27.3-.42-1.06-.16-1.42.08-1.63.31Z"/><path d="m318.52,2.22c-.39.07-.74.21-.5.28.71.24,1.52-.06,2.31-.03-.07-.35-1.09-.22-1.8-.26Z"/><path d="m294.71,2.54h1.75c-.1-.23-.65-.33-1.35-.3-.54.02-.36.19-.4.3Z"/><path d="m275.25,1.72c-.12.01-.25.02-.38.02l-.05.22c.53-.02,1.19.03,1.43-.18l-1-.07Z"/><path d="m323.35,2.43c.19.28.81.2,1.44.12l-.05-.25c-.47.04-.93.09-1.39.13Z"/><path d="m314.85,1.29c-.1-.02-.19-.04-.28-.06l-.25.12c.11.01.25.04.34.03.09,0,.13-.05.19-.09Z"/><path d="m291.26,1.6h-1.02c.13.08.23.19.4.2.5.02.49-.11.63-.2Z"/><path d="m318.12,1.88l.43.24c.67-.19.14-.22-.43-.24Z"/><path d="m324.75,2.3c.24-.02.59.01.58-.1,0-.02-.17-.07-.26-.07-.4,0-.29.1-.32.17Z"/><path d="m313.29,1.8l-.06.37c.57-.12.62-.24.06-.37Z"/><path d="m301.24,1.69c0,.05.08.05.14.06,0-.05-.08-.05-.14-.06Z"/><path d="m273.92,1.96l-.02.12.91-.13c-.29,0-.59,0-.89,0Z"/><path d="m316.78,2.01l-.1-.05s.07.03.1.05Z"/><path d="m325.01,2.54l.13.14c.38-.08.3-.12-.13-.14Z"/><path d="m50.85,2.43c.54-.19,1.38-.35.76-.64-.26-.13-.58-.24-1.13-.26-.82-.03-.91.14-1.02.3.42.19.63.39.27.61-.17.1-.13.2.35.22.58.02.67-.1.76-.22Z"/><path d="m13.27,2.45c1.18-.03.79-.29.9-.47-.44-.02-1.06.06-1.12-.17-.03-.12-.46-.26-.85-.22-.4.04-.77.18-.91.3-.24.2.53.11.77.16.47.11.81.27,1.2.4Z"/><path d="m35.97,1.75c-.8-.58-2.29-.37-3.7-.26,1.03.32,2.2.48,3.7.26Z"/><path d="m37.06,1.72l-.46.03c-.08.03-.12.08-.23.1-.85.14-1.42.3-.54.57.23.07.86.15.75.03-.25-.28,2.54-.37.48-.72Z"/><path d="m46.82,1.58l-1.28-.06c-.01.16-1.08.39.05.48.84.07,1.42-.14,1.22-.41Z"/><path d="m40.8,1.77l-1.42-.33c.03.14-.73.28-.08.41.52.1,1.08.04,1.5-.08Z"/><path d="m15.99,1.86c.26.05.41.1.56.1.16,0,.32-.05.48-.08-.14-.04-.26-.1-.41-.1-.16,0-.34.04-.63.08Z"/><path d="m38.42,1.43l-1.23.08-.18.05.06.12c.55-.04,1.36.02,1.35-.25Z"/><path d="m47.95,1.59c-.36-.1-.72-.22-1.1,0h1.1Z"/><path d="m18.66,1.28c.13.03.19.01.25,0-.05-.01-.09-.02-.25,0Z"/><path d="m168.78,3.3c.49-.02,1.06.01,1.35-.14.22-.37,1.71-.11,2.3-.34.22-.09.98.28,1.31.01.2-.16-.53-.31-.99-.44-.46-.13-.83-.16-1.47-.02-.81.17-1.75.29-2.47-.09-.43-.23-1.22-.06-1.68.03-.8.15-.15.25.32.35.74.16,1.47.34,1.33.64Z"/><path d="m185.54,1.97c-.03.11.09.24-.32.32-.1.14-1.19.17-.65.38.19.07.62.15.9.14.95-.03.32-.25.53-.38.12-.07.2-.15.38-.21.34-.11,1.34-.18.96-.33-.43-.17-1.14.1-1.8.07Z"/><path d="m182.32,2.45c-.09-.02-.18-.04-.27-.06l-.26.11c.11.01.24.04.34.03.08,0,.13-.05.19-.08Z"/><path d="m160.39,3.19h-.44c.14,0,.3,0,.44,0Z"/><path d="m353.46.98c.09.1.12.23.71.12-.08-.11-.36-.12-.71-.12Z"/><path d="m140.92,3.18h.9c.01-.14-.2-.36.08-.42.49-.11.93-.18.76-.36-.08-.09-.35-.05-.46,0-.39.16-1.7.11-1.35.44.11.11.04.23.06.35Z"/><path d="m138.3,2.82c.28.11.3.28.93.29.09,0,.31-.09.29-.13-.12-.19-.73-.15-1.22-.16Z"/><path d="m128.14,2.94h.39c0-.08.08-.18-.43-.2l.04.2Z"/><path d="m145.76,2.6l.1-.2c-.52,0-.45.1-.52.19h.41Z"/><path d="m143.6,2.95l-.16-.16c-.43.09.01.11.16.16Z"/><path d="m338.43,1.54c1.1.1-.17.6,1.4.62.57,0,.97-.09,1.27-.21.63-.25,1.4-.49.22-.77-1.85-.44-1.93.24-2.89.36Z"/><path d="m345.86,1.1c-.64.04-1.66-.21-1.6.18.02.13.28.36,1,.29.7-.08,1.72-.26,1.76-.4.08-.29-.83,0-1.16-.06Z"/><path d="m345.17,2.05c.5.14.81.3,1.17.31.46,0,1.27,0,1.3-.23.02-.13-.28-.25-.77-.23-.52.01-1.03.09-1.71.15Z"/><path d="m351.24,1.09c.06.09.06.2.53.17.14,0,.22-.11.33-.17h-.86Z"/><path d="m343.41,1.55c.14-.04.05-.05-.03-.05l.03.05Z"/><path d="m350.39.98h.2s.2,0,.2,0c-.14-.06-.27-.07-.4,0Z"/><path d="m67.62,1.93c.09.2.55.27,1.19.21.82-.07.5-.28.58-.44-.8-.03-.83.35-1.77.23Z"/><path d="m57.41,2.67c-.02-.18.23-.4-.85-.44.07.15-.15.32.36.44h.49Z"/><path d="m67.61,1.93l-.1-.05s.07.03.1.05Z"/><path d="m206.86,3.19l.8.04c-.14-.09.27-.26-.38-.26-.37,0-.46.12-.43.22Z"/><path d="m217.72,3.33c.73.01,1.47.04,1.46-.26-.54.06-1.14.1-1.46.26Z"/><path d="m79.53,2.09c-.9.11-1.83.33-2.06-.2-.1-.24-1.25-.13-1.9-.19.36.27.64.56,1.08.82.95.56,2.71.63,4.14.16.18-.06.27-.15.49-.18.82-.11.87-.52.06-.68q-.34-.07-.53.2c-.09.12-.07.29-.68.29-.19,0-.4-.14-.6-.22Z"/><path d="m86.22,1.87h-.48c-.85.42.47.8.42,1.21l1.33-.23c.13-.38-1.63-.58-1.28-.98Z"/><path d="m83.99,3.18c.48,0,.98.03,1.34-.09-.01-.02,0-.05-.05-.06-.6-.13-.48-.54-1.21-.47-1.08.1.12.4-.08.61Z"/><path d="m81.63,2.79c-.13.04-.28.07-.27.09.04.07.14.13.21.2.06-.03.16-.07.16-.1,0-.05-.06-.11-.11-.18Z"/><path d="m75.21,3.09c.29.03.59.07.66-.06-.28-.02-.67-.13-.66.06Z"/><path d="m76.47,3.04l.18-.06c-.08.02-.16.03-.18.06Z"/><path d="m153.28,2.22h-1.25c-.37.47-2.47.38-3.16.74.07.16-.11.37.9.35-.43-.23.3-.34.77-.41.57-.08.84.09,1.05.21l1.27.02c2.39-.46,2.43-.55.42-.92Z"/><path d="m151.58,3.11c-.21-.13-.48-.3-1.05-.21-.46.07-1.2.18-.77.41.69,0,1.54.09,1.82-.2Z"/><path d="m157.83,2.97c-1.21-.58-1.59.07-2.37.12.96.22,1.68.07,2.37-.12Z"/><path d="m160.4,3.19h-.46c.15.11.3.11.46,0Z"/><path d="m102.96,1.81c-.87,0-.91.17-.98.34.13.24-.32.19-.81.12-.27.24-.08.54-1.34.61-.26.3,1.12.19,1.31.38,1.77-.37,1.91-.9,1.82-1.44Z"/><path d="m88.82,2.13l-.56.04c.31.11.39,0,.56-.04Z"/><path d="m253.51,2.22c-.21.11-.27.22-.33.34.89,0,1.78-.01,2.67-.02.8-.01.82-.17.85-.33-.48-.02-1.06.03-1.35-.13l-1.85.14Z"/><path d="m265.99,1.78c-.02-.12-.06-.26-.56-.28-.22,0-.51.1-.77.16.32.14.84.11,1.33.11Z"/><path d="m255.36,2.08c.28.16.87.11,1.35.13-.27-.17-.82-.14-1.35-.13Z"/><path d="m260.67,2.65c0-.07.42-.14.02-.2-.04,0-.17,0-.2.01-.26.09-.11.14.18.19Z"/><path d="m120.61,2.21c-.75.09-1.41-.73-2.21-.02-.13.51,1.49.24,2.23.37l-.02-.35Z"/><path d="m111.34,2.55l.18-.03c-.06,0-.11.02-.18.03Z"/><path d="m120.63,2.56l.1.05s-.07-.04-.1-.05Z"/><path d="m273.92,1.96h.9s.05-.23.05-.23c-.63-.02-.94.06-.95.23Z"/><path d="m222.82,3.19c2.26.23,2.52-.15,2.52-.6l-.49-.5c-1.68-.33-2.63.17-3.94.27-.16.41-.04.78,1.9.84Z"/><path d="m244.21,2.21h.19s-.08-.04-.19,0Z"/><path d="m239.9,2.16c.15.03.31.06.47.09,0,0,.08-.03.13-.04-.19-.02-.39-.03-.59-.05Z"/><path d="m214.73,2.13l-.85-.12c.06.15.1.32.85.12Z"/><path d="m253.18,2.56l.17-.35c-.44,0-.92,0-1,.16-.07.16.35.19.82.19Z"/><path d="m105.66,2.08c-.05.13-.07.25.37.34-.05-.12.15-.26-.37-.34Z"/><path d="m107.81,2.78l-.09-.05s.06.03.09.05Z"/><path d="m104.32,2.55c.09.09.08.21.3.26.28.06.55-.05.46-.11-.18-.14.72-.4-.64-.4l-.13.25Z"/><path d="m104.32,2.55l.13-.25c-.67.06-.62.15-.13.25Z"/><path d="m131.82,2.9c.06.03.12.05.19.07,0,0,.16-.02.17-.03.02-.03,0-.06-.01-.09l-.34.05Z"/><path d="m190,2.68l.18-.03c-.07,0-.13.02-.18.03Z"/><path d="m15.46,2.46l-.69.09.17.07c.18-.05.36-.1.52-.16Z"/><path d="m127.85,3.25l-.57-.08c.04.07.16.12.27.17l.29-.09Z"/><path d="m101.17,2.26c.48.07.94.12.81-.12l-.81.12Z"/>
                  </g>
                </mask>
              </defs>
              <path class="mask" d="m0,1.85c114.73.91,231.7.81,350.82-.42,8.48-.09,16.94-.18,25.39-.28"
                    mask="url(#path-mask)" stroke="black" stroke-width="2" fill="none"
                    stroke-dasharray="376.2166748046875" stroke-dashoffset="376.2166748046875">
              </path>
            </svg>
        