
            <svg xmlns="http://www.w3.org/2000/svg">
              <defs>
                <mask id="path-mask">
                  <g fill="white">
                    <path d="m277.36,8.9c-6.73-.03-2.45.1-3.79.15l-4.84-.08c-3.96-.09-8.58-.2-12.35-.28-7.73-.22-22.23-.25-28.42-.12-4.25-.04-6.93-.03-8.73.01-5.65-.08-14.06-.02-18.43-.15-1.2-.08-6.17-.17-2-.23,3-.04,6.27-.06,11.09.01,3.98.06,7.61.07,9.86.02l3.74.02c4.64-.01,10.94.25,14.56.07,1.45.01,4.14.04,4.19.04,3.66-.15,12.25,0,19.67.07l.11.05c-2.03,0-1.62.02.68.04.37,0,.76,0,1.16,0l.24.07c-.63,0-1.41-.01-2.03-.01-.31,0-.58,0-.77,0-.19,0-.3,0-.3.01,0,0,.91.03,1.38.03,2.14.02,1.54-.01,1.76-.03l7.35.03c.6,0,1.21,0,1.82.01-.91.03-6.94,0-1.62.1,5.62.1,7.52.05,8.67,0,1.07-.06,3.46-.05,7.23.04.36.1,5.79.13,9.55.18l-.18.03c-3.54.01-.77.05,2.28.09,4.12.11,4.51.02,7.1.05l.53.02-.59-.02c.24-.06-1.31-.15,6.2-.03,4.67.07,8.68.1,7.87,0l4.63.05,4.07.17c-2.52-.03-3.64-.02-3.85,0-3.03,0-3.28.03-.32.1,4.02.06,5.35.11,3.91.15-.68.02-1.61.04,1.05.08,1.55.01,4.86.04,4.9.04-.49-.16,10.17-.01,14.32-.04.84-.02,1.2-.02,1.78-.04l.73-.03c9.5.14,19.48.36,28.03.39,2.16,0,5.18.1,7.32.16,3.87.11,6.48.14,8.59.12l18.3.42.33.05c.5.08,3.44.17,7.16.24,2.88.05,1.93-.02,2.14-.04,10.17.21,20.34.42,31.01.64l-.42-.02c.14-.01-.68-.06,1.33-.01.57-.01.79-.04,3.4.03-.91.07,4.17.23,8.3.35,8.91.26,19.26.56,27.07.79,5.41.12,9.05.24,14.31.43,3.18.12,1.42-.02,1.69-.04l7.66.3,3.83.2.96.07.49.05.14.02.09.02s.22.09.24.23c.04.15,0,.17-.05.28-.06.09-.17.14-.24.15h-.04s-.07.01-.07.01h-.14c-.66.04-1.29.04-1.93.04l-15.32.04.05-.07c2.02-.05,1.53-.09.54-.13-1.71-.08.89-.12,6.35-.13l4.83-.04c1.44,0,3.03-.01,4.42-.02.35,0,.68-.02,1-.03.08,0,.16,0,.23-.02.05-.02.02.01.04.04-.04,0-.07-.02-.1-.02-.14-.02-.29-.03-.42-.04-.55-.04-1-.06-1.32-.06l1.32.1.33.04c.05,0,.11.01.15.03h.03s-.04-.07-.04-.07c-.01-.03.02-.06.03-.05h-.03c-.21.02-.43.02-.65.03h-2.65c-.67-.02-3.79-.05.25-.1.53,0,1.06.01,1.59.02h.8s.4-.01.4-.01c.06,0,.14,0,.19-.01h.09s-.12.07-.1.13c0,.02,0,.11.05.14.06.04.04.02.03.02-.99-.14-2.13-.16-3.22-.2l-7.61-.33c-3.12-.25-9.29-.54-16.06-.83-4.79-.07-11.79-.21-12.8-.12-6.69-.21-13.37-.41-20.13-.54-.16-.05.59-.08-.71-.14-1.74-.08,5.28.03-1.09-.13-4.41-.11-3.55-.03-3.07.03.22.03.24.11-2.63-.04-5.26-.26-4.16-.05-8.7-.18-.69-.04-1.19-.08-2.1-.1-2.63-.07-2.6-.03-3.33-.02-8.56-.19-16.88-.37-25.98-.57-4.73-.13-7.26-.07-8.67-.02l-42-.76s.48-.04.02-.07c-1.29-.08,5.43-.08-1.82-.21-6.42-.11-.88.09-1.81.13-.27,0-2.4-.02-3.68-.02-11.84-.15-24.62-.32-36.9-.47-3.58-.05-9.39-.03-12.24-.18-3.25-.15-24.45-.53-31.27-.55Zm40.66.62l1.34-.02c-.61-.01-1.32-.02-1.79-.03-.46,0-.68,0-1.01.01.51.01.99.03,1.47.04Zm69.79.97c.26,0,.63.01.96.02-.04-.02-.42-.02-.96-.02Z"/><path d="m213.07,2.07c-15.69.15-31.16.3-46.75.45-2.09-.18-12.17.09-18.67.16-1.31-.02-1.15-.16-8.11.09-4.21.14-10.31.33-15.72.51-4.34.13,9-.59-6.88.11-2.33.08-5.6.24-5.93.19-.17-.03-2.43.03-4.5.13-2.12.1-4.06.25-4.81.32-1.24.12,2.84-.11,4.11-.14,2.5-.06,4.29-.1,6.38-.15-1.27.11-6.99.33-6.67.39-1.75.03-5.7.22-9.21.41-1.75.09-3.4.17-4.6.23-.6.02-1.09.04-1.44.06-.34,0-.53,0-.53-.02,0-.02.31-.06.81-.11.5-.04,1.18-.1,1.93-.17,1.5-.13,3.26-.27,4.33-.36,2.19-.21,11.66-.69,19.18-.97,3.39-.11,6.61-.21,9.99-.32,3.26-.11,7.26-.16,9.64-.29,2.54-.14-6.45.16-4.79.04,5.17-.21,10.61-.41,16.61-.44.46.11,2.04.18,11.02-.06,6.69-.17,15.13-.16,21.58-.32l2.48-.03h4.71c7.92.06,16.43,0,25.68-.21,5.48.04,11.68.02,19.67-.14l3.39-.04c-.4.01-.66.02-1.24.04-4.5.09-7.5.18-2.86.21,1.21,0,4.55,0,3.98-.04-1.35-.07,13.46-.28,2.6-.27,1.46-.02,3.26-.05,4.7-.07,1.43-.03,2.49-.05,2.46-.09l5.08-.06c.18.04-3.88.14-.43.13,2.74,0,5.71-.06,7.95-.13l3.2-.04c6.58-.07,6.99,0,7.93.07.54.04,2.1.05,5.23.01,1.17-.02,3-.06,3.37-.08,1.04-.06-1.52-.04-3.52-.03-7.25.03,5.81-.22-.49-.21,1.57-.1,5.62-.14,9.42-.2l.06.05c-.07.05-5.72.2.29.14,4.44-.04,7.54-.15,6.65-.22l5.82-.08,8.05-.03c2.26.03,3.37.08,1.45.17-.88.04-.67.07,1.89.04,3.08-.03,3.56-.08,4.03-.12h4.33s.1.1.1.1c-7.33.07-15.59.23-20.5.15-1.87-.03-4.58.04-5.02.1-.32.05.26.08-2.84.15-12.7.27-25.78.46-39.22.55-8.18-.04-25.2.16-35.41.42Zm-83.47.87c.86-.03,1.7-.07,2.56-.1-.72.01-1.38.02-2.19.04-.83.03-1.8.07-3.36.13,1.37-.03,2.19-.05,2.99-.06Z"/><path d="m2.72,16.08c-.74.14-1.46.27-2.05.5-.07.03-.13.07-.18.1-.03.05,0-.04-.01-.01.09.06.24.12.38.15.29.08.59.13.87.17,1.15.17,2.17.25,3.1.33,1.85.15,3.34.26,4.91.35,1.56.09.54.16,5.41.28,3.93.08,3.03-.01,2.29-.08-.7-.07-1.08-.14-1.61-.2,4.8.13,9.61.2,14.41.26.02.03-.38.06.02.09.4.03,1.62.06,4.89.09,4.94.04,7.18.09,7.01.16-.55.04-6.3,0-3.46.09,1,.03,3.28.07,4.78.08,5.03.02,1.69-.07,2.79-.1.61-.02,1.08-.03,2-.05,1.8-.02,7.09-.02,5.1-.08-2.28-.06-6.07,0-9.54-.03v-.11c13.66.04,26.92.09,39.99.13-2.14.12-3.53.26-14.78.17-1.86-.02-4.86-.01-5.62.03-.81.05,1.51.06,4.07.07.83.06,1.66.12,2.18.19l-3.72.03,3,.05c-8.9.07-17.21.03-25.03-.12-2.04-.08-6.02-.2-10.11-.17-7.83.07-21.97-.41-27.19-.54-1.91-.15-3.82-.21-5.8-.62-.12-.03-.26-.07-.4-.12-.06-.02-.17-.09-.24-.13-.06-.05-.13-.15-.17-.24-.04-.09,0-.33.05-.36.22-.27.33-.25.47-.33.13-.05.25-.09.38-.13.49-.14.98-.24,1.46-.33.97-.18,1.95-.32,2.93-.45,3.91-.51,7.86-.89,11.75-1.24-.31.15,5.67-.35,10.66-.76,4.45-.37,7.09-.54,10.43-.73-1.15.19-9.05.66-12.18.98-1.18.12-5.19.32-6.93.56-1.07.14,2.83-.15,5.25-.3,2.46-.15,4.39-.29,7.79-.58,4.27-.36,9.25-.73,13.09-.86,2.3-.08,6.45-.39,8.88-.56,4.25-.3.8-.13-1.68,0-3.93.19-7.8.38-7.07.24l2.49-.19c4.4-.13,12.88-.7,20.08-1.07,2.8-.15,9.24-.54,7.35-.3-.46.05,8.27-.45,8.52-.5.52-.1,2.86-.22,6.03-.37l2.33-.11c4.35-.24,9.52-.53,7.73-.3-2.18.18-2.11.18,1.59.03,1.63-.06,3.79-.14,4.14-.13,1.24.02-5.32.3-6.37.4-6.63.32-13.64.75-19.28.9-1.45.04-5.67.31-5.41.31,1.16-.01-8,.5-1.54.22-.27.05-.98.09-3.63.23-8.67.46-17.36.9-26.18,1.55-1.26-.2-11.14.68-16.86,1.12-6.63.53-11.53,1.01-18.54,1.77.41-.06,1.02-.15,1.54-.23.26-.04.49-.07.66-.1.17-.03.27-.05.27-.05,0,0-.11,0-.35.02-.25.03-.64.06-1.21.12-1.14.14-3.03.32-5.92.81Zm22.58,2.03h-1.36c.61.02,1.29.04,1.79.05.44,0,.67,0,1.02,0-.5-.01-.97-.03-1.45-.04Z"/><path d="m51.93,12.63c-8.34.73-18.51,1.77-26.1,3.3-.84.15-1.74.31-2.68.48-.94.17-1.91.43-2.92.66-2.03.42-4.12,1.13-6.26,1.83-1.05.39-2.11.81-3.14,1.3-.51.25-1.01.52-1.49.84-.48.31-.95.66-1.32,1.12-.38.44-.66,1.11-.44,1.72.07.32.29.53.45.77.2.2.41.4.63.57.91.65,1.9,1.05,2.86,1.39,2.2.73,3.09.88,4.71,1.2,2.5.46,4.08.57,4.33.55.25-.03-.83-.13-3.57-.63-2.89-.54-4.73-1.12-6.01-1.63-1.27-.52-1.98-.99-2.48-1.5-.15-.12-.26-.29-.38-.47-.06-.09-.13-.19-.15-.3-.03-.11-.09-.22-.07-.34-.03-.49.33-1.05.93-1.54,1.21-.99,3.16-1.86,5.76-2.83.58-.19,2.77-.91,3.71-1.18,9.31-2.32,18.55-3.45,27.98-4.4,21.74-2.03,43.59-2.78,65.42-3.5l-.05-.06c-1.84.06-3.34.1-3.76.09-3.25.12-7.12.26-9.81.36-6.46.26-14.39.58-19.5.78-1.53.05-7.85.31-14.34.72-6.5.38-13.17.93-15.42,1.15-.75.07-1.53.15-1.41.15,1.09-.03-3.09.35-5,.54-2.29.2-3.69.36-5.66.59-.56.07-1.72.21-2.7.33-.98.13-1.77.26-1.6.22.21-.07,2.22-.37,4.95-.7,2.84-.4,6.29-.71,9.11-1.03,2.83-.27,5.03-.48,5.4-.56Z"/><path d="m244.65,4.51c-5.71.11-12.48.22-16.23.38,1.64-.02,3.75-.04,4.88-.06,4.4-.11,8.56-.22,11.78-.17,2.65.04-1.07.13-3.76.23-4.75.17-8.41.19-12.27.2-2.41,0-6.44.07-8.41.14-6.73.25-9.72.21-13.72.25-2.56.05-5.8.15-6.46.11-.13,0,1.04-.06,1.52-.08,3.37-.08,3.46-.03,4.94-.03l7.2-.35c-4.74-.05-10.9.19-16.69.37.15.05-.22.1-4.42.22.07.03-.31.08.3.1,1.84.05-5.08.22-7.15.33-.57.03-1.99.08-2.42.06-.87-.03,1.46-.12,4.05-.22,1.47-.06.37-.1.43-.14-2.3.11-8.84.22-9.5.34.84-.01,3.16-.07.9.02l-.83-.02c-3.33.07-1.3-.08-5.44.05-1.46.05-2.64.16-3.95.24.05.03-.45.07-2.43.15.1,0,.23.01.37.02l2.19-.06c3.64-.05,15.06-.33-.45.19-1.01.03-1.48.09-2.2.14,6.69-.21,13.68-.47,19.74-.53.74-.02,9.71-.3,15.71-.49,1.65-.08,3.69-.14,7.29-.23,10.54-.22,21.55-.44,31.63-.65,4.05.05,11.31-.19,15.58-.18,4.18,0,7.55-.01,12.74-.12,3.53-.07,6.06-.1,7.73-.09,1.67,0,2.48.04,2.56.1l11.63-.09c-.53-.07,2.67-.13,4.99-.19-5.32-.07-10.85-.13.41-.28,1.44-.02.5-.04-.95-.05-4.55.09-11.21.03-15.05.12-8.85.22-7.09.06-8.27,0l-2.46.03c-.23.04-1.57.08-4.37.11-.33.06-2.21.1-4.94.13l.21.06c-1.35.01-1.92.01-2.15,0-.23,0-.12-.03-.12-.04-5.28,0-13.26.11-14.1-.01Z"/><path d="m184.06,8.16c-3.02,0-5.15,0-6.74.04-3.35.09-7.46.2-1.22.2,9.81.1,10.24-.04,15.34-.06l9.36.09c4.37.13,12.78.07,18.43.15l.11.08c-5.42-.04-11.7.02-15.75-.07-5.11-.11-10.42-.11-16.4-.11-11.76-.09-23.55.21-35.35.47-11.81.32-23.63.63-35.47.95-.42-.02-.38-.06,2.56-.17l4.55-.13,2.35-.04c.71,0,1.42-.02,2.13-.06,14.95-.44,17.03-.51,11.35-.5-.17,0-.22,0-.33,0-13.21.44-16.73.3-29.65.75-5.37.19-12.51.45-13.95.41,3.52-.13,7.49-.36,8.65-.35,2.23,0,5.93-.16,9.52-.27,12.84-.36,25.37-.71,38.56-1.09,9.39-.22,18.94-.46,28.55-.45,9.6.03,19.26.06,28.88.1,3.83.01,9.92.02,10.21.12-2.25.06-5.87.04-9.86-.02-4.82-.07-8.09-.06-11.09-.01-4.95-.05-9.91-.1-14.73-.04Zm-23.55.46s-.41-.03-1.24-.03c-.83,0-2.13.02-4.04.07-3.71.1-9.15.28-9.35.32-.41.08,4.42-.11,6.15-.13,3.38-.09,8.78-.14,8.49-.23Zm-11.01-.02c-2.43.06-6.75.17-6.91.23-.09.03,1.49.02,4.07-.05,2.77-.08,5.47-.15,9.05-.25-2.65.03-4.28.02-6.21.07Zm14.29-.1l1.41-.02h-.18c-1.06.02-1.11.02-1.23.02Z"/><path d="m339.68.64c5.84-.04,10.39-.03,16.97.05,9.55.11,21.46.29,32.3.54,5.43.15,11.23.3,16.32.44l.06-.1c-1.2-.09-4.28-.26-.61-.16,10.85.3,9.4.06,16.92.25-4-.15-7.54-.25-10.68-.32-.4,0-.75-.02-1.03-.03-.42.04,1.29.15-3.05.04-3.41-.09-5.84-.18-6.33-.26l-.56-.03.52.03c5.03.19,5.2.08,9.37.22.26,0,.36,0,.31,0-4.77-.27-10.61-.34-15.83-.5-6.66-.07-13.7-.22-20.82-.46-2.12-.06-3.52-.12-5.9-.09-3.66.04-8.97-.04-14.09-.11-7.32.05-3.94.16-2.17.27.47.03,2,.07-.58.07-2.2,0-3.49-.03-4.39-.06h-2.6c1.37.08-5.57.13-4.14.21Z"/><path d="m173.34,18.11c4.63.02,9.44.02,15.81-.09,7.96-.18,16.4-.28,25.4-.29,1.71-.07,4.91-.11,7.77-.16l4.77-.02c-.57-.03-1.45-.08-1.66-.08-8.72.05-14.59.09-23,.14-6.12.07-11.71.12-13.37.02-.05,0-.67,0-1.01,0-1.15.02-2.31.05-3.48.07,1.02.12-5.15.17-9.86.2-15.47.1-31.03.3-46.73.33-9.46.02-9.99.05-5.46-.11,1.36-.06,2.27-.1,3.39-.15-9,.08-19.45.07-26.71.24,1.7,0,3.34,0,5.1.01,2.89,0,7.04-.11,8.3-.03.52.03-4.02.11-6.9.16-1.53,0-4.42.03-6.71.04-1.91,0-3.99.01-4.91.05-1.2.05.8.06,2.77.08,3.1.02,3.93.09,8.74.07,6.08.05,12.77.06,20.77-.03,9.14-.17,19.82-.24,30.57-.33-.14-.03.33-.07,2.28-.09,3.42-.03,1.24.04,1.99.06,4.53-.14,9.23-.32,12.13-.09Z"/><path d="m123.46,9.61l2.35-.04,1.07-.03,1.07-.03c14.95-.44,17.03-.51,11.35-.5-.17,0-.22,0-.33,0-13.21.44-16.73.3-29.65.75-5.37.19-12.51.45-13.95.41-3.89.19-10.85.45-13.77.66,3.72-.12.07.13-1.88.22-5.72.27-2.24.04-3.05.03-.17,0,0-.02.02-.03-4.38.15-11.83.66-16.73.97-3.01.23-5.68.43-7.98.61-.38.09-2.59.3-5.42.57-2.82.32-6.27.63-9.11,1.03-2.73.34-4.74.64-4.95.7-.16.04.63-.09,1.6-.22.98-.12,2.14-.26,2.7-.33,1.98-.22,3.37-.38,5.66-.59,1.91-.19,6.09-.57,5-.54-.12,0,.66-.08,1.41-.15,2.25-.23,8.92-.78,15.42-1.15,6.5-.41,12.82-.67,14.34-.72,5.11-.21,13.05-.52,19.5-.78,2.69-.1,6.56-.24,9.79-.36,3.15-.13,3.29-.1,3.77-.09l.05.06,4.63-.14c-.42-.02-.38-.06,2.56-.17.58-.03,1-.07,1.76-.09,2.45-.08,2.47-.05,2.78-.04Z"/><path d="m442.57,2.56l.15.05c1.89.17,3.4.31,5.76.53,5.06.42,14.34.93,21.93,1.27.94.04,1.42.06,2.59.11,4.32.26,4.62.15.32-.19q-1.79-.14-2.82-.12c-.48,0-.35.06-3.61-.13-1-.06-2.11-.17-3.16-.26-6.15-.38-5.74-.44-7.13-.59,7.03.33,14.2.76,21.44,1.3-2.99-.1,4.1.42,7.45.81,1.22.09,2.43.18,3.65.32.62.08,1.22.15,1.85.31.04.01.08.03.13.05.04.03.1.01.17.16.02.14-.04.16-.09.21l-.08.04c-.05.02-.09.03-.13.04-.16.03-.32.05-.48.07-.31.03-.62.05-.93.06-1.24.05-2.47.06-3.7.07-.11,0-.14-.02-.09-.03,4.51-.15-2.49-.24-2.27-.38,1.49,0,2.98.01,4.46,0,.07,0,.02.01.24.01,1.54-.02,2.17-.03,2.89-.04-.1.08-.05.04-.11.02-.04-.02-.08-.03-.12-.05-.09-.03-.18-.05-.28-.08-.2-.05-.43-.09-.69-.14-.53-.09-1.21-.18-2.18-.28-5.69-.53.65.18-.44.14l-2.66-.17c-10.77-.93-21.81-1.49-32.36-2.11l-4.59-.23-.19-.08.97.03c-.42-.02-.85-.03-1.27-.05-.96-.05-1.92-.09-2.88-.14-1.47-.08-3.54-.2-3.49-.14l-4.66-.17.65.02.71.04c-3.2-.23-11.15-.55-13.4-.76-1.06-.11-11.11-.36-16.56-.48-.91-.01-1.49-.02-2.21-.03-1.2-.09-4.28-.26-.61-.16,10.85.3,9.4.06,16.92.25,7.24.23,14.24.53,20.93.91Zm30.83,2.1c.21.03.72.09,1.11.13.15,0,.37.01.55.02.18,0,.32.01.32,0,.02-.02-.33-.06-.58-.09-.68-.03-1.47-.08-1.41-.07Z"/><path d="m192.99,5.73c4.19-.12,4.57-.17,4.42-.22l-3.92.09-3.03.09c-7.54.18-14.82.35-22.81.65-3.26.12-7.98.28-11.88.37-4.27.1-12.35.38-13.72.45-14.5.6-28.51,1.17-42.42,1.74-5.11.21-8.32.42-12.52.63-21.38,1.07-42.75,2.25-64.1,3.92-2.29.18-4.64.37-5.96.53-.31.15,5.67-.35,10.66-.76,4.45-.37,7.09-.54,10.43-.73,1.55-.15,4.55-.34,7.16-.52l2.49-.19c4.4-.13,12.88-.7,20.08-1.07,2.8-.15,9.24-.54,7.35-.3-.46.05,8.27-.45,8.52-.5.52-.1,2.86-.22,6.03-.37.77-.07,1.57-.11,2.38-.11,4.3-.24,9.47-.53,7.67-.3,1.17-.05,2.35-.11,3.53-.16,3.68-.22,7.48-.44,12.59-.59,4.23-.26,8.34-.55,13.77-.58l6.75-.25c1.46-.14,5.98-.28,9.63-.41,5.34-.19,4.4-.1,4.77-.06,6.17-.34,12.34-.51,18.51-.61,1.31-.08,2.49-.19,3.95-.24,4.14-.13,2.11.03,5.44-.05.59-.12,7.13-.22,9.43-.34l4.8-.12Z"/><path d="m443.74,5.44c-3.31-.13-6.95-.24-11.87-.27,2.8.11,5.54.23,2.23.24-2.61,0-4.6-.13-7.41-.16-3.68-.19-5.8-.15-8.25-.13-2.8.02-5.53,0-7.42-.14-6.65-.09-5.63.02-6.82.08.99.1,6.36.21,8.97.32,4.43.15,10.3.27,15.9.35,4.21.05,7.84.12,11.88.22,4.12.04-.15-.18,6.98-.04,5.28.11,4.41.18,5.23.25l4.7.09c-.33-.06-.97-.13-.9-.18.02-.02.57-.02,1.37,0,.8.01,1.85.03,2.86.05,1.76.04,3.08.08,2.07.09-1.5,0-5.61-.04-1.26.08,1.09,0,4.91.04,7.48.06.81,0,1.24-.02,2.9.04l-2.96-.04c1.78.18,7.65.28,13.8.29,1.89-.09-7.47-.27-6.79-.39-10.11-.11-10-.22-9.22-.31-4.06-.09-7.39-.17-11.58-.26.6.14-3.89.16-10.89,0-9.7-.22,3.13-.05-.21-.18-.46-.02-.54-.03-.8-.05Z"/><path d="m428.87,15.01l3.82-.03,7.38-.1,2.72-.03c-.06,0-.14-.02-.23-.03-1.6,0-2.39-.01-1.03-.05.2,0,.86-.01,1.08-.01,2.09,0-.12.04-.13.06,3.85-.03,6.69-.07,8.49-.14,2.85-.11,6.54-.15,9.49-.15,1.48,0,2.77.01,3.68.01.91,0,1.44.02,1.4.03-.58.14,5.53.08,9.95.08,5.57-.09,11.09-.18,16.75-.27,2.47-.04,7.24-.06,5.88-.12-1.12-.05-6.3.04-7.6.03-4.05-.03-10.32.2-12.59.07-3.09.01-6.74.05-7.21-.02-2.6.02-5.37.05-7.05.02-5.71.03-11.46.07-17.12.1-11.2.13-20.9.24-32.22.37v.08c2.77-.04,5.67-.08,7.12-.04-.18.05-.27.1-4.53.15l2.01.08,9.95-.1Z"/><path d="m295.91,4.1c1.44,0,2.39.04.95.05-11.27.15-5.74.21-.42.28,1.45,0,2.9-.02,4.35-.03l-.09-.11h-.54s.51,0,.51,0c3.95.02,12.52-.07,11.86.09,6.54-.02,12.48.12,19.77.03,1.05-.01,5.61.05,5.84.11l6.9.05c3-.08,11.72-.05,10.04-.2.08,0,1.5,0,2.31,0,5.12.25,7.28,0,11.3.08-.02-.01-.02-.02-.01-.04-11.81-.31-14.62-.14-18.78-.04h-.9s.96,0,.96,0c-2.37-.03-6.7-.09-6.81-.09-1.18-.28-9.8-.15-16.79-.14-7.28,0-15.68.06-22.1-.04-3.17-.02-2.69-.12-8.2-.09l-.14.08Z"/><path d="m311.62.61h4.33c10.58-.1,10.44.03,9.33.16,3.48.01,3.31-.06,5.01-.08-3.13-.14,2.06-.34,11.66-.38-2.21-.08-2.38-.17,0-.26-2.43-.09-4.47-.02-6.58.03,1.4.01,1.76.04-.14.05-2.6.02-2.17-.02-2.43-.05-5.59-.09-13.84.07-19.79.15-9.75.12-20.39.21-29.63.43l.06.05c2.26-.02,4.51-.05,6.77-.07,2.13-.09,4.06-.09,5.99-.08l8.05-.03c.58-.06,1.07-.12,5.41-.16,2.93-.03,4.6-.01,5.99.01,3.25.05-1.18.15-4.03.25Z"/><path d="m477.91,14.36c2.27.13,8.54-.09,12.59-.07,1.3,0,6.48-.08,7.6-.03,1.35.06-3.41.08-5.88.12-5.65.09-11.17.18-16.75.27l2.03.05,2.72-.02c7.53-.16,17.11-.21,25.59-.25,2.02-.05,1.53-.09.54-.13-1.71-.08.89-.12,6.35-.13l.1-.04s.47-.05,1.3-.06c.83,0,2.07,0,3.75-.02.69,0,1.36,0,2-.01-.67-.03-3.79-.06.25-.11l-.2-.04c-6.69,0-13.38.01-20.08.02-6.7.06-13.4.12-20.13.18,2.16.06,6.13.12-1.79.25Z"/><path d="m285.75,16.87c2.77-.04,2.52.11,7.45-.07,3.7-.14,7.2-.07,10.87-.15,1.04-.16,6.03-.2,11.28-.22,4.45-.02,8.12-.09,11.47-.19,3.47-.1,5.01-.18,1.33-.19-4.94.06-9.48.11-14.78.18-16.51.32-18.32.35-31.56.42-.32,0-.95,0-1.03,0-6.74.23-16.99.18-23.86.39.66.06.73.12,5.39.09.16-.05,1.26-.07,4.44-.11,6.72-.06,13.01-.12,19.01-.17Z"/><path d="m477.91,14.36c7.92-.13,3.94-.18,1.79-.25-5.22,0-8.71-.04-16.18.12-5.38.12-16.14.13-24.76.2-11.59.12-23.75.24-35.46.36-5.13.04-8.54.08-7.97.18.55.09,4.7.04,9.34-.03,3.22-.04,6.44-.08,9.65-.12,11.32-.13,21.02-.24,32.22-.37,5.66-.03,11.41-.07,17.12-.1,1.38-.03,2.93-.06,4.11-.08,2.6-.01,2.85.03,2.94.06.47.06,4.12.03,7.21.02Z"/><path d="m349.89,4.38c4.16-.1,6.97-.27,18.78.04,3.15.02,6.31.03,9.46.05,2.51,0,5.12,0,4.48-.06-4.43-.15-10.22-.14-15.07-.18-18.52-.17-37.05-.3-55.7-.22-4.98.02-5.68.06-7.59.11,6.42.1,14.82.04,22.1.04,6.99,0,15.61-.14,16.79.14.11,0,4.44.06,6.75.09Z"/><path d="m125.92,17.96c-1.12.05-2.03.09-3.39.15-4.52.17-4,.13,5.46.11,15.7-.03,31.26-.23,46.73-.33,4.71-.03,10.88-.08,9.86-.2-8.78-.06-18.37.05-28.93.21-6.8.1-12,.11-10.69-.04-6.85.11-12.54.05-19.04.1Z"/><path d="m256.91,17.06c6.87-.22,17.13-.16,23.87-.39.08,0,.71,0,1.03,0,13.24-.07,15.05-.09,31.56-.42,5.3-.06,9.84-.12,14.78-.18-2.1-.09-4.39-.18-12.52-.12l-5.96.16c-2.2.11-5.58.15-10.36.2-5.83.08-12.89.17-17.93.24-10.18.12-19.24.39-28.95.42l2.57.13c.65,0,1.29-.01,1.91-.02Z"/><path d="m376.07,15.27c-3.05.15-5.53.29,6.7.16,3.94-.04,1.46.04,1.17.07-6.02.14-12.66.18-16.96.18-10.9,0-13.38.14-15.72.3l-2.24.03c-7.17.01-18.95.14-7.77-.2,2.02-.06,1.97-.12,2.87-.18,6.18-.07,12.37-.15,18.53-.22,3.99-.04,7-.08,7.4-.16l6.88-.07c-.27.03-.16.06-.86.1Zm-19.69.33c-.24,0-.65.01-1.24.02.34,0,.68-.01,1.24-.02Z"/><path d="m105.53,4.12c-1.75.03-5.7.22-9.21.41-1.75.09-3.4.17-4.6.23-.6.02-1.09.04-1.44.06-.34,0-.53,0-.53-.02,0-.02.31-.06.81-.11.5-.04,1.18-.1,1.93-.17,1.5-.13,3.26-.27,4.33-.36,2.19-.21,11.66-.69,19.18-.97,3.39-.11,6.61-.21,9.99-.32,3.26-.11,7.26-.16,9.64-.29,2.54-.14-6.45.16-4.79.04-11.07.21-24.84.92-36.31,1.41-3.62.15-2.81.22-5.72.39-2.81.2,9.81-.44-.54.17-3.47.3-12.57.93-11.18,1,2.15-.12,4.93-.27,6.32-.35,3.47-.14,3.4.04,12.22-.6.09,0,3.19-.12,5.16-.2,5.76-.27,11.23-.52,16.07-.75-1.66-.09-8.06.33-11.32.43Z"/><path d="m74.67,5.3c-2.87.17-4.94.3-6.43.35-3.74.14-10.8.59-16.31,1.11-4.93.45-9.38.93-9.92,1.09-1,.3,5.19-.2,19-1.24,3.37-.25,7.58-.49,11.4-.71,4.18-.36,2.56-.36-1.97-.12-4.59.24-8.8.59-12.06.91-1.2.11-6.71.58-6.24.46.41-.11-2.78.08-.77-.15,1.24-.14,1.84-.24,5.58-.54,3.88-.3,5.58-.38,6.04-.35.48.02,1.05.02,5.38-.28,2.1-.15,3.68-.27,4.74-.35,1.06-.08,1.58-.14,1.57-.18Z"/><path d="m252.43,16.95c9.71-.03,18.77-.3,28.95-.42,5.05-.07,12.1-.16,17.93-.24,4.79-.05,8.17-.09,10.36-.2-8.19-.07-20.42.2-30.53.34-7.54.11-15.17.22-22.74.33-7.57.06-15.1.12-22.45.18l-1.21.06c2.18.03,9.84.01-1.84.17-3.82.05-5.98.13.6.09,6.93-.1,12.01-.31,20.92-.3Z"/><path d="m279.82,4.72c-.08-.06-.89-.09-2.56-.1-1.67,0-4.2.02-7.73.09-5.2.11-8.56.13-12.74.12-4.28-.01-11.53.22-15.58.18-10.08.21-21.09.43-31.63.65-3.6.09-5.64.15-7.29.23,9.7-.18,20.19-.37,31.48-.58,7.2-.14,14.52-.26,22.38-.32,6.85-.08,15.7-.18,23.67-.27Z"/><path d="m245.63,1.17l5.08-.06h7.53c1.07,0,2.14-.02,3.21-.03,3.48-.07,6.96-.14,10.43-.21-6.15-.11-18.4.11-27.2.21-17.49.2-35.15.41-52.74.61l-4.7.08c7.92.06,16.43,0,25.68-.21,7.49-.11,15.4-.27,19.67-.14,1.13-.01,2.26-.03,3.4-.04.81-.01,1.61-.02,2.42-.04-.04-.03-.14-.04-.23-.05-.24,0-.49-.01-.74-.02h1.67s6.51-.11,6.51-.11Z"/><path d="m483.46,12.76c-6.69-.2-13.36-.41-20.12-.54-5.34-.13-10.47-.26-14.42-.42-3.6-.08-5.41-.12-7.21-.16-8.56-.19-16.88-.37-25.98-.57-4.73-.13-7.26-.07-8.67-.02,25.78.54,51.56,1.13,77.35,1.81l-.95-.09Z"/><path d="m383.93,15.5c-6.02.14-12.66.18-16.96.18-10.9,0-13.38.14-15.72.3,17.94-.17,35.9-.31,53.82-.63,4.34-.08,7.04-.03,10.56-.08,4.86-.07,12.33-.12,13.24-.25l-9.94.1-16.33.16-18.66.23Z"/><path d="m306.27,9.14c.24-.06-1.31-.15,6.2-.03,4.67.07,8.68.1,7.87,0-19.23-.32-38.47-.59-58.44-.68l.11.05.68.04c.37,0,.76,0,1.17,0,3.34,0,6.66.02,7.63.1.6,0,1.21,0,1.83.01l7.05.1c1.07-.06,3.46-.05,7.23.04,4.15.05,8.47.02,12.23.13,1.25.04-.64.05-2.68.05l-.18.03,2.28.09c4.12.11,4.51.02,7.04.05Z"/><path d="m349.01,16.01c-7.17.01-18.95.14-7.77-.2,2.02-.06,1.97-.12,2.87-.18-3.42.03-2.28-.03-2.49-.05l-4.59.07c1.43.06-4.5.18-4.66.25l3.07-.03c-.23,0-.65.02-.67.02-.85,0-1.66,0-2.48,0-4.07,0-1.57-.1-2.43-.15-4.62-.03-9.35.03-14.24.19,8.13-.06,10.42.03,12.52.12,3.68.01,2.15.09-1.32.19-3.35.1-7.02.17-11.47.19-5.25.02-10.24.06-11.28.22,11.81-.16,23.87-.32,35.54-.47,4.6-.03,7.02-.1,9.4-.17Z"/><path d="m231.51,17.25c-6.58.05-4.42-.04-.6-.09,11.68-.15,4.02-.13,1.84-.17-2.01.09-5.65.08-8.46.12.31.04-1.84.13-3.56.13-8.53,0-14.57.21-22.01.27-3.97.1-4.18.05-4.49,0-4.02-.02-5.02.04-6.19.1.35,0,.97,0,1.02,0,1.66.1,7.25.05,13.37-.02,8.41-.05,14.27-.09,23-.14.22,0,1.09.05,1.66.08l9.12-.03h4.84s.56-.12.56-.12c-10.34.09-10.94-.01-10.09-.15Z"/><path d="m105.6,18.58c-4.81.02-5.64-.05-8.74-.07-1.97-.01-3.97-.03-2.77-.08.92-.04,3-.04,4.91-.05,2.29-.01,5.18-.03,6.71-.04,2.88-.05,7.42-.13,6.9-.16-1.26-.07-5.42.03-8.3.03-1.76,0-3.4,0-5.1-.01-2.22-.05-4.23.01-6.34.03-3.52.04-7.27.09-6.24.15,4.04.23-6.87.26-16.65.28,1.2.05,6.28.03,6.68.09,8.02-.01,15.62-.03,23.73-.04,5.81-.03,4.55-.08,5.21-.13Z"/><path d="m198.72,17.52c7.43-.06,13.48-.27,22.01-.27,1.72,0,3.87-.09,3.56-.13-14.9.16-29.72.31-44.61.47-7.46.05-15.31.11-22.71.16-4.47.04-8.1.08-12.02.11-1.31.15,3.89.14,10.69.04,10.55-.16,20.15-.26,28.93-.21,1.16-.02,2.32-.05,3.48-.07,1.16-.06,2.16-.12,6.18-.1h4.49Z"/><path d="m383.93,15.5l18.66-.23.18-.08c-2.54.03-4.79.04-4.39,0,.39-.05,2.97-.08,5.3-.11.86-.05.92-.09.98-.13-4.64.07-8.79.12-9.34.03-5.96.03-12.12.1-18.4.19-.27.03-.16.06-.86.1-3.05.15-5.53.29,6.7.16,3.94-.04,1.46.04,1.17.07Z"/><path d="m378.13,4.47l-9.46-.05v.04s.5.02.5.02l-.49-.02c-4.03-.07-6.19.17-11.3-.08-.81,0-2.23,0-2.31,0,1.68.15-7.04.12-10.04.2.5.04,2.61.05,4.48.06,2.47-.04,6.41,0,9.91.02,2.58.04,4.19-.09,5.57.02,1.46.12,5.74.09,8.13.14,4.1-.03,5.97.03,7.36.12,2.44.04,5.35.15,6.87.07l1.05-.05c-2.87-.06-4.29-.14-8.32-.19-2.74-.06-1.7-.09-1.94-.13-12.52-.2,1.66-.11-.02-.2Z"/><path d="m268.73,8.98c-3.96-.09-8.58-.2-12.35-.28-7.73-.22-22.23-.25-28.42-.12,5.77.04,12.18.07,8.13.17,11.07.1,22.13.22,32.63.23Z"/><path d="m378.16,4.66c-12.52-.2,1.67-.11-.02-.2,2.51,0,5.12,0,4.48-.06,7.14.07,14.69.08,21.15.31.32.01.42.02.3.03-9.38-.03-10.15.13-9.64.3-2.01-.03-4.01-.05-6.01-.08-2.87-.06-4.29-.14-8.31-.19.27-.04.35-.07-1.94-.13Zm7.48-.03c-1.51-.04-2.94-.02-2.46,0,.95.05-3.84.08,3.37.16,3.59.03,3.29,0,.69-.07-.49-.03-.45-.07-1.6-.1Z"/><path d="m214.1,5.13c2.19-.05,4-.01,6.49-.12,5.52-.25,6.03-.14,7.83-.12,1.64-.02,3.75-.04,4.88-.06,4.4-.11,8.56-.22,11.78-.17,2.65.04-1.07.13-3.76.23-4.75.17-8.41.19-12.27.2-2.41,0-6.44.07-8.41.14-6.73.25-9.72.21-13.72.25,2.39-.12,4.79-.24,7.18-.35Zm26.18-.36s-.83.02-.88.02c-.1.01.03.02.07.03l1.83-.04c-.32,0-.62,0-1.02,0Z"/><path d="m351.57,9.61c9.5.14,19.48.36,28.03.39,2.16,0,5.18.1,7.32.16,3.87.11,6.48.14,8.59.12-8.01-.27-17.73-.4-26.83-.53-11.78-.17-22.81-.47-34.7-.56-1.73-.01-3.85-.04-4.63-.02,2.41.11,6.5.19,11.22.21,5.69.02,8.38.11,10.99.22Z"/><path d="m74.67,5.3s-.51.09-1.57.18c-1.06.08-2.64.19-4.74.35-4.32.3-4.9.3-5.38.28-.45-.02-2.15.05-6.04.35-3.74.29-4.34.4-5.58.54-2.01.23,1.18.04.77.15-.47.12,5.04-.35,6.24-.46,3.26-.32,7.47-.67,12.06-.91,4.54-.24,6.15-.24,1.97.12,1.55-.07,3.11-.16,4.67-.3-1.39-.07,7.72-.71,11.19-1-2.47.1-4.73.2-4.89.15l-8.71.55Z"/><path d="m169.37,6.47c-6.18.1-12.35.27-18.52.61-3.62.23-14.75.61-16.73.83l.83.09c4.06-.12,7.75-.26,11.09-.43.53-.04-.99-.02,1.47-.12l.75.04c.68-.02,1.42-.05,2.22-.07,9.59-.35,7.64-.49,16.45-.8,1.98-.08,2.48-.12,2.43-.15Z"/><path d="m477.5,14.71l-2.03-.05c-4.41,0-10.52.06-9.94-.08.05-.01-.48-.02-1.4-.03-.91,0-2.2,0-3.68-.01-2.95,0-6.64.04-9.49.15-1.8.07-4.64.11-8.49.14.17,0,.25.02.31.03l-.18.11c11.5-.05,22.88-.06,34.89-.25Z"/><path d="m458.77,11.58c-.91.07,4.17.23,8.3.35,8.91.26,19.26.56,27.07.79,5.41.12,9.05.24,14.31.43,3.18.12,1.42-.02,1.69-.04-11.23-.43-22.14-.8-33.95-1.05-5.11-.14-11.57-.31-17.42-.46Z"/><path d="m300.79,4.41c-1.45,0-2.9.02-4.35.03-2.32.06-5.52.12-4.99.19,11.71,0,24.26-.12,36.12,0,4.78.05,6.25-.09,10.57-.11-.23-.06-4.79-.12-5.84-.11-7.29.09-13.23-.05-19.77-.03-4.23.22-7.78-.02-11.74.02Z"/><path d="m103.35,8.97c-1.18.05-2.36.11-3.53.16-2.17.18-2.1.18,1.6.03,1.63-.06,3.79-.14,4.14-.13,1.24.02-5.32.3-6.37.4,1.64-.05,3.29-.1,4.94-.15l7.72-.32,15.63-.78c-10.67.32-10.44.28,2.23-.37-5.43.03-9.54.31-13.78.58-4.16.19-6.19.48-12.59.59Z"/><path d="m69.98,18.66c9.78-.02,20.69-.05,16.65-.28-1.04-.06,2.72-.11,6.24-.15-1.1-.12-6.07,0-9.04-.01-2.14.12-3.53.26-14.78.17-1.86-.02-4.86-.01-5.62.03-.81.05,1.51.06,3.95.07h1.05s-.94,0-.94,0l2.49.18Z"/><path d="m403.77,4.72c.32.01.42.02.3.03,1.03.07,8.32.16,6.96.23,1.89.13,4.62.16,7.41.14,2.45-.02,4.56-.05,8.25.13,2.82.03,4.8.17,7.41.16,3.31,0,.57-.12-2.23-.24-9.51-.2-19.6-.48-28.1-.45Z"/><path d="m437.51,2.83c-3.2-.23-11.15-.55-13.4-.76-1.06-.11-11.11-.36-16.56-.48-.91-.01-1.49-.02-2.21-.03l-.06.1c8.42.35,16.26.49,24.58.88l6.14.25c.8.03,1.31.05,1.52.05Z"/><path d="m308.63,9.45c-3.25-.15-24.45-.53-31.27-.55-6.73-.03-2.45.1-3.79.15,4.28.03,8.58.03,12.65.14.88.01,3.86.06,4.05.07,5.46-.06,12.35.13,18.36.19Z"/><path d="m105.53,4.12c3.26-.1,9.67-.52,11.32-.43,3.35-.07,6.66-.22,9.98-.36,5.53-.28,14.3-.51,20.81-.64-1.31-.02-1.15-.16-8.11.09-4.21.14-10.31.34-15.55.51-.97.05-1.93.1-2.9.15h-.92s3.65-.15,3.65-.15c-4.34.13,9-.59-6.88.11-.55.08,1.54.08-4.74.34-1.27.11-6.99.33-6.67.39Z"/><path d="m454.03,11.56c.14-.01-.68-.06,1.33-.01-14.24-.37-29.22-.82-41.55-.84l.33.05,9.31.19c10.17.2,20.34.41,30.58.61Z"/><path d="m147.65,2.69c-6.51.13-15.28.37-20.81.64.76.09,5.91-.16,8.57-.23,2.54-.06,5.1-.12,7.68-.18,2.57-.04,5.16-.08,7.75-.12,5.18-.09,10.36-.18,15.49-.27-2.09-.18-12.17.09-18.67.16Z"/><path d="m316.05.71c-7.33.07-15.59.23-20.5.15-1.87-.03-4.58.04-5.02.1-.32.05.26.08-2.84.15-.99.13,5.16.01,8.41-.02,7.33-.09,14.77-.17,22.17-.26-.6-.04,1.26-.12-2.22-.11Z"/><path d="m353.55.14c5.12.06,10.43.15,14.09.11,2.38-.03,3.77.03,5.9.09,7.12.23,14.16.38,20.82.46-6.62-.29-14.9-.45-22.97-.57-5.95-.09-11.85-.14-17.77-.16l-.06.08Z"/><path d="m7.74,15.51c.41-.06,1.02-.15,1.54-.23.26-.04.49-.07.66-.1.17-.03.27-.05.27-.05,0,0-.11,0-.35.02-.25.03-.64.06-1.21.12-1.14.14-3.03.32-5.92.81-.74.14-1.46.27-2.05.5-.07.03-.13.07-.18.1-.03.05,0-.04-.01-.01.09.06.24.12.38.15.29.08.59.13.87.17,1.15.17,2.17.25,3.1.33,1.85.15,3.34.26,4.91.35,1.56.09.54.16,5.41.28,3.93.08,3.03-.01,2.29-.08-.7-.07-1.08-.14-1.61-.2-3.87-.12-7.74-.24-11.59-.53-.96-.08-1.92-.16-2.86-.32-.23-.04-.47-.09-.66-.16-.04-.02-.11-.03-.13-.05l-.04-.02s.03.02.03.05c.02.01,0,.13-.01.12,0,0-.03.02,0,0,.02-.02.06-.04.11-.06.39-.17.88-.27,1.34-.37,1.88-.37,3.81-.6,5.73-.82Z"/><path d="m467.21,5.93c-.78.09-.89.2,9.22.31l7.08.02c1.49,0,2.98.01,4.46,0,.47-.02.99-.04,1.54-.06.27-.02.56-.04.84-.05.14-.01.29-.03.42-.05.07-.01.13-.02.18-.04,0,.01-.02-.03.02.03.04.05.06.09.06.11.01.02.04.04.06.04,0,0-.06.02-.09.08-.1.12-.05.08-.07.08-.46-.16-1.16-.24-1.76-.32-.63-.07-1.27-.15-1.91-.22l-2.66-.17c-.23.06,2.91.28,5.33.63.25.04.51.08.74.14l.16.04.05.02h0s.03-.06.03-.06c.02-.04.05-.08.07-.11.03-.06.1-.1.1-.1.04,0-.07-.02-.06-.06-.02-.05-.11-.17-.12-.23.03,0-.02,0-.03,0-.04.01-.1.02-.15.03-.48.07-1.01.09-1.53.11-1.04.04-2.09.05-3.14.05l-6.28-.03-12.57-.17Z"/><path d="m104.13,9.28c-1.65.05-3.3.1-4.94.15-6.63.32-13.64.75-19.28.9-1.45.04-5.67.31-5.41.31,1.16-.01-8,.5-1.54.22,10.33-.58,21.61-.99,31.17-1.57Z"/><path d="m469.49,6.34c-2.57-.02-6.39-.05-7.48-.06-4.35-.13-.23-.08,1.26-.08,1.01,0-.31-.05-2.07-.09-1.01-.02-2.06-.04-2.86-.05-.8,0-1.35,0-1.37,0-.07.05.56.12.9.18,8.48.27,18.12.49,27.71.52l.3-.09c-.11,0-.14-.02-.09-.03h-2.56c-6.16-.03-12.02-.13-13.74-.3Z"/><path d="m166.94,6.62c-8.81.32-6.87.45-16.45.8,4.9-.08,9.9-.17,16.35-.52.72-.05,1.19-.11,2.2-.14,15.51-.52,4.09-.24.45-.19-.37.04.04.06-2.73.14l.55-.08c-.14,0-.26-.02-.37-.02Z"/><path d="m43.92,18.63c-2.04-.08-6.02-.2-10.11-.17-7.83.07-21.97-.41-27.19-.54,6.34.35,12.61.46,18.83.56,6.22.09,12.37.13,18.47.14Z"/><path d="m236.2,17.52l-9.12.03c-1.59,0-3.18.01-4.77.02,0,.02-.24.04-.66.06-.43.01-1.04.02-1.77.04-1.47.02-3.41.04-5.34.06-9,0-17.44.11-25.4.29.76.03,3.22.05,4.87.02,13.63-.23,28.95-.24,42.19-.52Z"/><path d="m147.45,2.18c.46.11,2.04.18,11.02-.06,6.69-.17,15.13-.16,21.58-.32-9.72-.09-21.52.23-32.61.38Z"/><path d="m512.32,13.7c-3.12-.25-9.29-.54-16.07-.83,1.34.17-2.18.15-6.82.11,4.74.2,9,.28,13.38.4,2.36-.02,6.18.18,9.51.31Z"/><path d="m248.48,1.65c-8.18-.04-25.2.16-35.41.42,10.09-.03,20.24-.21,30.36-.33.25-.08,2.73-.08,5.06-.09Z"/><path d="m260.81,4.5c1.37-.02,2.52-.04,3.32-.06.8-.02,1.26-.04,1.22-.07h-3s-.66-.02-.66-.02h2.23s1.84.01,1.84.01c2.8-.03,4.14-.07,4.37-.11-8.56.07-15.99.04-25.47.25.84.12,8.81.01,14.09.01.68,0,1.37-.01,2.06-.02Z"/><path d="m156.93,18.22c-10.75.08-21.43.16-30.57.33,3.61.04,7,.05,12.38-.06,6.83-.13,15.3-.12,22.84-.21l-.43-.08c-1.38,0-2.81.01-4.23.02Z"/><path d="m341.95.3c-9.61.04-14.79.24-11.66.38l9.39-.04c-1.44-.08,5.51-.13,4.14-.21-2.73-.03-1.59-.09-1.87-.13Z"/><path d="m127.48,8.18l-15.63.78c7.89-.28,15.73-.55,23.12-.95l-.83-.09-6.65.26Z"/><path d="m394.43,5.05c-2.01-.03-4.01-.05-6.01-.08l-1.05.05c8.76.14,17.67.33,25.8.35-2.61-.11-7.98-.22-8.97-.32-1.68-.01-3.11-.02-4.54-.03-.37.05-.6.09-5.22.03Z"/><path d="m353.55.14l.06-.08-11.66-.02c-2.39.09-2.22.17,0,.26,5.68,0,4.35.07,4.46.13.9.02,2.19.06,4.39.06,2.58,0,1.04-.05.58-.07-1.78-.1-5.15-.22,2.17-.27Z"/><path d="m295.91,4.1l.14-.08c-7.97.03-16.71-.02-23.47.2,1.18.06-.58.21,8.27,0,3.85-.09,10.51-.03,15.05-.12Z"/><path d="m241.6,17.4l-.56.11c9.07-.03,17.26-.18,25.64-.35h-4.38c-4.65.02-4.73-.05-5.39-.11-.63,0-1.26.01-1.91.02-.01.07-.36.14-2.21.2-1.85.06-5.19.1-11.19.13Z"/><path d="m344.12,15.62c6.18-.07,12.37-.15,18.53-.22,3.99-.04,7-.08,7.4-.16-8.25,0-17.42.2-25.99.27-.02.04-.03.07.06.11Z"/><path d="m262.31,17.15h4.38c6.68-.03,13.61-.04,19.07-.28-6,.05-12.29.11-19.01.17-3.18.04-4.28.06-4.44.11Z"/><path d="m443.74,5.44c.26.02.34.03.8.05,3.34.13-9.49-.04.21.18,7,.16,11.5.14,10.89,0-4.1-.1-8.46-.26-11.9-.23Z"/><path d="m351.57,9.61c-2.62-.11-5.31-.2-10.99-.22-4.72-.02-8.81-.1-11.22-.21-1.65-.01-3.78-.05-4.39-.02,1.36.06,2.71.12,4.08.17,7.3.1,14.53.21,21.79.31l.73-.03Z"/><path d="m236.09,8.74c4.05-.1-2.36-.14-8.13-.17-4.26-.04-6.94-.03-8.74,0l.11.08c5.49.03,10.96.05,16.76.08Z"/><path d="m505.8,14.44c-8.47.04-18.05.09-25.59.25,8.5.03,17.03-.17,25.54-.17l.05-.07Z"/><path d="m43.15,12.63c-1.26-.2-11.14.68-16.86,1.12.37.03-1.28.22,5.69-.33,3.48-.24,7.43-.52,11.17-.79Z"/><path d="m453.17,6.15c-.83-.07.05-.14-5.23-.25-7.13-.14-2.86.08-6.98.04,5.69.22,8.16.14,12.22.21Z"/><path d="m271.88.87c-3.48.07-6.95.14-10.43.21,6.57-.07,6.98,0,7.92.07.54.04,2.1.05,5.23.01,1.17-.02,3-.06,3.37-.08,1.04-.06-1.52-.04-3.52-.03-7.25.03,5.81-.22-.49-.21-.66,0-1.35.01-2.08.02Z"/><path d="m223.48,8.25c4.64-.01,10.94.25,14.56.07q-1.98-.13-14.56-.07Z"/><path d="m463.72,3.82c-6.15-.38-5.74-.44-7.13-.59-4.81-.26-10.11-.58-14.02-.67l.15.05c3.46.18,9.52.45,10.08.55,1.24.23,6.16.41,10.92.66Z"/><path d="m478.03,4.53c-2.99-.1,4.1.42,7.45.81,1.22.09,2.43.18,3.65.32.48.04.96.08,1.45.15.12.02.24.04.37.07.06.02.13.03.21.07.04.03.1.03.19.17.03.06.03.14.02.2-.01.03-.03.07-.06.1-.07.08-.09.08-.12.09-.35.14-.54.14-.8.18.15-.01.31-.03.47-.05.08-.01.17-.03.27-.06.06-.05.13.01.28-.24.03-.05.02-.2-.02-.26-.02-.04-.05-.07-.08-.1-.04-.04-.07-.05-.11-.07-.38-.15-.64-.17-.94-.23-.59-.1-1.17-.17-1.74-.23-1.15-.13-2.28-.23-3.42-.33-2.28-.18-4.57-.37-7.06-.57Z"/><path d="m43.83,18.18v-.11c-4.37-.05-8.75-.1-13.58-.15.02.03-.38.06.02.09.4.03,1.62.06,4.89.09,4.94.04,7.18.09,7,.16,2.16-.01,1.49-.05,1.68-.09Z"/><path d="m489.44,12.99c4.64.04,8.16.05,6.82-.11-4.79-.07-11.79-.21-12.8-.12.31.03.63.06.94.09l5.03.14Z"/><path d="m316.05.71c3.48,0,1.62.07,2.22.11l7.01-.05c1.1-.13,1.25-.26-9.33-.17l.1.11Z"/><path d="m161.16,18.2l.43.08c4.54-.03,8.43-.09,11.74-.17-2.9-.22-7.6-.05-12.17.09Z"/><path d="m365.05,10.28s.48-.04.02-.07c-1.29-.08,5.43-.08-1.82-.21-6.42-.11-.88.09-1.81.13-.27,0-2.4-.02-3.68-.02,1.56.07,2.97.14,7.29.17Z"/><path d="m512.32,13.7c-3.33-.14-7.14-.33-9.51-.31l5.12.19c1.94.06,3.59.13,4.49.2,3.16.11,6.33.22,9.49.41l-1.98-.15-7.61-.33Z"/><path d="m76.67,11.05s-.18.03-.02.03c.81,0-2.67.23,3.05-.03,1.95-.09,5.6-.34,1.88-.22l-4.92.23Z"/><path d="m332.38,15.89c.16-.07,6.08-.19,4.66-.25l-7.17.1c.85.05-1.64.15,2.51.14Z"/><path d="m83.38,4.75c.16.04,2.42-.05,4.89-.15,10.35-.61-2.27.03.53-.17-.45.02-1.05.05-1.8.09l-3.1.18c-.64.04-.82.06-.53.05Z"/><path d="m440.82,2.95l-4.66-.17c2.06.17,7.74.4,11.26.62l.26-.06-.19-.08c-1.26-.06-2.22-.11-3.18-.16-.36.02-1.94-.06-3.5-.14Z"/><path d="m76.66,18.75c-.39-.07-5.48-.04-6.99-.09l-3.72.03,3,.05c2.47.02,5.03.03,7.71,0Z"/><path d="m490.4,6.68c.26-.05.45-.04.8-.18.02-.01.05-.02.12-.09.03-.03.05-.07.06-.1.02-.06,0-.14-.02-.2-.09-.14-.15-.14-.19-.17-.08-.03-.15-.05-.21-.07-.13-.03-.25-.05-.37-.07-.49-.07-.97-.11-1.45-.15.62.08,1.22.15,1.85.31.04.01.08.03.13.05.04.03.1.01.17.17.02.14-.04.16-.09.21l-.08.04c-.05.02-.09.03-.13.04-.16.03-.32.05-.48.07-.31.03-.62.05-.93.06-1.24.05-2.47.06-3.7.07l-.3.09c1.61,0,3.2.02,4.83-.08Z"/><path d="m380.5,4.95c-1.39-.08-3.26-.15-7.36-.12,1.97.06,2.76.16,7.36.12Z"/><path d="m440.07,14.88l-7.38.1c-.34.1,3.74.04,7.37,0l.02-.1Z"/><path d="m359.43,4.67c-3.5-.02-7.44-.07-9.91-.02,5.04.11,7.73.08,9.91.02Z"/><path d="m51.96,12.63c2.3-.18,4.97-.38,7.98-.61-2.57.19-4.09.16-7.98.61Z"/><path d="m519.94,14.03l1.98.15c.38.03.78.05,1.14.1h.06s.02.01.02.01h.01s-.08-.03-.11-.09c-.05-.14-.03-.17,0-.25.03-.08.15-.11.13-.1h-.06c-.07.02-.18.02-.27.02h-.58s-2.34.03-2.34.03l.2.04c.53,0,1.06.01,1.59.02h.8s.4-.01.4-.01c.06,0,.14,0,.19-.01h.09s-.12.07-.1.13c0,.02,0,.11.05.14.06.04.04.02.04.02-.99-.14-2.13-.16-3.22-.2Z"/><path d="m410.19,1.29c.05,0-.05.01-.31,0,.34,0,.69.02,1.09.03.21-.02.44-.04.66-.06l-1.43.02Z"/><path d="m512.43,13.78c-.9-.06-2.55-.13-4.49-.2-.03.03.34.06,1.09.09.75.02,1.89.06,3.39.1Z"/><path d="m332.81.07c.26.03-.17.07,2.43.05,1.9-.01,1.54-.04.14-.05h-2.57Z"/><path d="m447.67,3.33l-.26.06c2.41.11,4.07.17,4.85.17l-4.59-.23Z"/><path d="m435.99,2.79l-6.14-.25c2.57.15,4.64.24,6.14.25Z"/><path d="m344,15.62l.05-.11c-1.55.01-2.36.03-2.43.06.21.03-.93.08,2.38.05Z"/><path d="m148.27,7.5l-.75-.04c-2.46.1-.94.08-1.47.12.75-.03,1.49-.05,2.22-.08Z"/><path d="m248.48,1.65c-2.32,0-4.8.01-5.05.09,2.12-.02,4.24-.03,5.05-.09Z"/><path d="m350.84,9.64c-7.26-.1-14.49-.21-21.79-.31-2.53-.03-3.65-.02-3.86,0l-.32.1c4.02.06,5.35.11,3.91.15-.68.02-1.61.04,1.05.08,1.55.01,4.86.04,4.9.04-.49-.16,10.17-.01,14.32-.04.84-.02,1.2-.02,1.78-.04Z"/><path d="m198.79,8.2c-4.95-.05-9.91-.1-14.73-.04,8.31.03,1.52.14,7.37.18l9.36.09c-1.2-.08-6.17-.17-2-.23Z"/><path d="m448.91,11.8c3.95.16,9.08.29,14.42.42-.16-.05.59-.08-.71-.14-1.74-.08,5.28.03-1.09-.13-4.41-.11-3.55-.03-3.07.03.22.03.24.11-2.63-.04-5.26-.26-4.16-.05-6.92-.14Z"/><path d="m280.36,8.75l-7.05-.1c-.91.03-6.94,0-1.62.1,5.62.1,7.52.05,8.67,0Z"/><path d="m297.14,8.97c2.05,0,3.93-.01,2.68-.05-3.77-.11-8.08-.08-12.23-.13.36.1,5.79.13,9.55.18Z"/><path d="m423.45,10.95l-9.31-.19c.5.08,3.44.17,7.16.24,2.88.05,1.93-.02,2.14-.04Z"/><path d="m519.85,14.06c-.65,0-1.32,0-2.01.01l-.27.07c1.42,0,3-.01,4.38-.02.34,0,.68-.02.99-.03.08,0,.15-.01.23-.02.05-.02.02.02.04.04-.03,0-.07-.02-.1-.02-.14-.02-.29-.03-.42-.04-.55-.04-1-.06-1.32-.06l1.32.1.33.04c.05,0,.11.01.15.03h.03s-.04-.07-.04-.07c-.01-.03.02-.06.03-.05h-.03c-.21.02-.43.02-.65.03h-2.65Z"/><path d="m271.49,8.64c-.97-.09-4.29-.1-7.63-.1l.24.07c2.49.01,4.95.02,7.4.03Z"/><path d="m316.56,9.48c.51.01.99.03,1.47.04l1.34-.02c-.61-.01-1.32-.02-1.79-.03-.46,0-.68,0-1.01.01Z"/><path d="m441.7,11.64l5.43.12c-.69-.04-1.19-.08-2.1-.1-2.63-.07-2.6-.03-3.33-.02Z"/><path d="m299.23,9.09l-2.28-.09c-3.54.01-.77.05,2.28.09Z"/><path d="m264.09,8.61c-.63,0-1.41-.01-2.03-.01-.31,0-.58,0-.77,0-.19,0-.3,0-.3.01,0,0,.91.03,1.38.03,2.14.02,1.54-.01,1.72-.03Z"/><path d="m324.87,9.45l.32-.1c-3.03,0-3.28.03-.32.1Z"/><path d="m388.77,10.51s-.42-.02-.74-.03c.05.02.42.02.74.03Z"/><path d="m512.8,14.15l-.1.04,4.83-.04c-1.54,0-3.14,0-4.73,0Z"/><path d="m306.34,9.14l.53.02c-.2,0-.39-.02-.53-.02Z"/><path d="m262.69,8.53l-.68-.04c-2.03,0-1.62.02.68.04Z"/><path d="m311.62.61c2.85-.09,7.29-.19,4.03-.25-1.39-.02-3.07-.04-5.99-.01-4.34.05-4.83.11-5.41.16,2.26.03,3.37.08,1.45.17-.88.04-.67.07,1.89.04,3.08-.03,3.56-.08,4.03-.12Z"/><path d="m112.2,3.73c6.28-.26,4.19-.26,4.74-.34-2.33.08-5.6.24-5.93.19-.17-.03-2.43.03-4.5.13-2.12.1-4.06.25-4.81.32-1.24.12,2.84-.11,4.11-.14,2.5-.06,4.29-.1,6.38-.15Z"/><path d="m232.6,1.42c-4.27-.13-12.18.03-19.67.14,5.48.04,11.68.02,19.67-.14Z"/><path d="m238.41,1.35c-.8.01-1.61.02-2.42.04-.41.01-.66.02-1.24.04-4.5.09-7.5.18-2.86.21,1.21,0,4.55,0,3.98-.04-1.35-.07,13.46-.28,2.54-.25Z"/><path d="m290.21.63c-2.26.02-4.51.05-6.77.07-.07.05-5.72.2.29.14,4.44-.04,7.54-.15,6.49-.22Z"/><path d="m258.23,1.12h-7.53c.18.03-3.88.13-.42.13,2.74,0,5.71-.06,7.95-.13Z"/><path d="m126.6,3c1.37-.03,2.19-.05,2.99-.06.86-.03,1.7-.07,2.56-.1-.72.01-1.38.02-2.19.04-.83.03-1.8.07-3.36.13Z"/><path d="m245.63,1.17l-6.51.11c-.3,0-.62.02-.94.03l.3.03c1.46-.02,3.26-.05,4.7-.07,1.43-.03,2.49-.05,2.46-.09Z"/><path d="m296.19.54c-1.93,0-3.85-.01-5.82.08l5.82-.08Z"/><path d="m140.76,2.41c.67-.02,1-.03,1.33-.04-.24,0-.48.01-1.33.04Z"/><path d="m45.3,11.97c-2.61.17-5.61.36-7.16.52-1.15.19-9.05.66-12.18.98-1.18.12-5.19.32-6.93.56-1.07.14,2.83-.15,5.25-.3,2.46-.15,4.39-.29,7.79-.58,4.27-.36,9.25-.73,13.09-.86,2.3-.08,6.45-.39,8.88-.56,4.25-.3.8-.13-1.68,0-3.93.19-7.8.38-7.07.24Z"/><path d="m43.83,18.18c-.19.03.49.08-1.68.09-.54.04-6.3,0-3.46.09,1,.03,3.28.07,4.78.08,5.03.02,1.69-.07,2.79-.1.61-.02,1.08-.03,2-.05,1.8-.02,7.09-.02,5.1-.08-2.28-.06-6.07,0-9.54-.03Z"/><path d="m26.75,18.15c-.5-.01-.97-.03-1.45-.04h-1.36c.61.02,1.29.04,1.79.05.44,0,.67,0,1.02,0Z"/><path d="m89.77,9.54l2.33-.11c-.76.04-1.57.08-2.33.11Z"/><path d="m111.68,9.99c-.48,0-.62-.04-3.77.09.43,0,1.93-.03,3.77-.09Z"/><path d="m192.99,5.73l-4.8.12c-.06.05,1.04.09-.43.14-2.6.1-4.93.19-4.05.22.43.02,1.85-.04,2.42-.06,2.07-.11,9-.28,7.15-.33-.61-.02-.23-.07-.3-.1Z"/><path d="m206.91,5.49c-1.47,0-1.57-.05-4.94.03-.47.01-1.65.07-1.52.08.66.04,3.9-.05,6.45-.1Z"/><path d="m260.81,4.5c-.69,0-1.38.01-2.06.02,0,.01-.11.03.12.04.23,0,.8.01,2.15,0l-.21-.06Z"/><path d="m167.31,6.64l-.55.08c2.77-.08,2.36-.11,2.73-.14l-2.19.06Z"/><path d="m178.77,6.19l.83.02c2.26-.09-.06-.03-.83-.02Z"/><path d="m191.44,8.34c-5.85-.04.94-.15-7.37-.18-3.03,0-5.16,0-6.75.04-3.35.09-7.46.2-1.22.2,9.81.1,10.24-.04,15.34-.06Z"/><path d="m152.02,8.85c3.38-.09,8.78-.14,8.49-.23-.05-.02-.41-.03-1.24-.03-.83,0-2.13.02-4.04.07-3.71.1-9.15.28-9.35.32-.41.08,4.42-.11,6.15-.13Z"/><path d="m155.71,8.53c-2.65.03-4.28.02-6.21.07-2.43.06-6.75.17-6.91.23-.09.03,1.49.02,4.07-.05,2.77-.08,5.47-.15,9.05-.25Z"/><path d="m123.46,9.61c-.32-.01-.33-.04-2.78.04-.77.02-1.18.06-1.76.09l4.55-.13Z"/><path d="m165.02,8.46c-.76.02-.29.02.18,0h-.18Z"/><path d="m127.94,9.51l-1.07.03-1.07.03c.71,0,1.42-.02,2.13-.06Z"/><path d="m400.55,1.08c.49.08,2.92.17,6.33.26,4.34.12,2.63,0,3.05-.04-4.22-.15-4.39-.04-9.38-.22Z"/><path d="m346.42.43c-.12-.06,1.22-.13-4.54-.13.35.05-.79.1,1.94.13.86,0,1.73,0,2.6,0Z"/><path d="m400.5,1.08l-.52-.03c.19.01.37.02.52.03Z"/><path d="m156.93,18.22l4.27-.02c-.75-.02,1.43-.09-1.99-.06-1.95.01-2.42.06-2.28.09Z"/><path d="m214.54,17.73c1.92-.02,3.87-.04,5.34-.06.73-.02,1.34-.03,1.77-.04.43-.02.67-.04.66-.06-2.86.05-6.07.09-7.77.16Z"/><path d="m463.72,3.82c-4.76-.24-9.68-.43-10.92-.66-.56-.1-6.62-.37-10.08-.55,1.89.17,3.4.31,5.76.53,5.06.42,14.34.93,21.93,1.27.94.04,1.42.06,2.59.11,4.32.26,4.62.15.32-.19q-1.79-.14-2.82-.12c-.48,0-.35.06-3.61-.13-1-.06-2.11-.17-3.16-.26Z"/><path d="m483.23,6.63h2.56c4.5-.13-2.49-.22-2.27-.37l-7.08-.02c-.67.12,8.68.29,6.79.39Z"/><path d="m487.28,5.84c.63.07,1.27.15,1.91.22.61.09,1.3.17,1.76.32.02,0-.03.03.07-.08.03-.06.09-.09.09-.08-.02,0-.05-.02-.06-.04,0-.02-.02-.05-.06-.11-.04-.07-.01-.02-.02-.03-.05.01-.11.03-.18.04-.14.02-.28.04-.42.05-.29.02-.57.04-.84.05-.55.02-1.07.04-1.54.06.07,0,.01.01.24.01,1.54-.02,2.17-.03,2.89-.04-.1.08-.05.04-.11.02-.04-.02-.08-.03-.12-.05-.09-.03-.18-.05-.28-.08-.2-.05-.43-.09-.69-.14-.53-.09-1.21-.18-2.18-.28-5.69-.53.65.18-.44.14Z"/><path d="m474.82,4.72c-.68-.03-1.47-.08-1.41-.07.21.03.72.09,1.11.13.15,0,.37.01.55.02.18,0,.32.01.32,0,.02-.02-.33-.06-.58-.09Z"/><path d="m440.82,2.95c1.55.08,3.14.17,3.5.14-1.48-.08-3.55-.2-3.5-.14Z"/><path d="m447.49,3.25l.97.03c-.42-.02-.85-.03-.97-.03Z"/><path d="m127.48,8.18l6.65-.26c1.98-.22,13.11-.6,16.73-.83-.36-.04.57-.13-4.77.06,2.27-.01-1.61.16-4.07.27-3,.14-4.43.14-5.56.14l-6.75.25c-12.67.65-12.9.69-2.23.37Z"/><path d="m136.46,7.55c1.13,0,2.56,0,5.56-.14,2.46-.11,6.34-.28,4.07-.27-3.65.13-8.17.27-9.63.41Z"/><path d="m103.35,8.97c6.4-.11,8.43-.39,12.59-.59-5.11.15-8.91.36-12.59.59Z"/><path d="m89.72,9.54l2.42-.12c-.81,0-1.61.04-2.42.12Z"/><path d="m394.43,5.05c4.62.07,4.85.02,5.22-.03-.7-.08,1.72-.03,4.29.03,1.45-.05.43-.16,7.08-.07,1.36-.07-5.92-.16-6.95-.23-9.38-.03-10.15.13-9.64.3Z"/><path d="m469.43,6.34l2.96.04c-1.66-.06-2.08-.04-2.96-.04Z"/><path d="m404.49,15.07c-1.13.05-1.43.08-1.74.12,4.74-.06,9.45-.11,14.16-.17,4.25-.05,4.35-.1,4.53-.15-2.53.02-5.63.07-7.13.04l-9.82.15Z"/><path d="m404.49,15.07l9.82-.15v-.08c-3.2.04-6.42.08-9.64.12l-.18.12Z"/><path d="m470.7,14.34c-.09-.04-.33-.08-2.94-.06-1.18.02-2.73.05-4.11.08,1.68.03,4.44,0,7.05-.02Z"/><path d="m414.31,14.92c1.5.03,4.6-.02,7.13-.04-1.45-.03-4.35,0-7.13.04Z"/><path d="m442.47,14.83s2.22-.06.13-.06c-.22,0-.88.01-1.08.01-1.36.04-.57.05.95.05Z"/><path d="m300.79,4.41c3.96-.04,7.51.2,11.74-.02.66-.16-7.91-.06-11.85-.09.06.04.09.07.12.11Z"/><path d="m349.95,4.38h-.96c.3,0,.6,0,.96,0Z"/><path d="m300.67,4.3h-.51c.18,0,.36,0,.51,0Z"/><path d="m512.8,14.15h4.77s.27-.08.27-.08c-1.67,0-2.91.01-3.75.02-.83.01-1.26.03-1.3.06Z"/><path d="m241.6,17.4c5.99-.03,9.34-.07,11.19-.13,1.85-.06,2.2-.12,2.21-.2l-2.57-.13c-8.91,0-13.98.2-20.92.3-.85.14-.25.24,10.09.15Z"/><path d="m355.14,15.63h1.02s-.43-.02-1.02,0Z"/><path d="m239.11,1.27h-1.67c.25.01.5.02.74.03.32,0,.63-.02.94-.03Z"/><path d="m332.3,15.89c.82,0,1.63,0,2.48,0,.02,0,.44-.01.67-.02-1.02,0-2.05.02-3.15.03Z"/><path d="m198.72,17.52h-4.49c.31.05.52.1,4.49,0Z"/><path d="m402.75,15.19c.31-.04.61-.08.92-.12-2.32.03-4.9.06-5.29.11-.4.05,1.85.04,4.36,0Z"/><path d="m380.1,4.79c.27-.04.35-.07-1.94-.13.25.04-.8.07,1.94.13Z"/><path d="m368.69,4.45l.49.02c-.17,0-.34-.01-.49-.02Z"/><path d="m387.24,4.73c-.49-.03-.45-.07-1.6-.1-1.51-.04-2.94-.02-2.46,0,.95.05-3.84.08,3.37.16.23-.02.46-.05.69-.07Z"/><path d="m387.24,4.73c-.23.02-.45.05-.69.07,3.58.03,3.29,0,.69-.07Z"/><path d="m241.3,4.78c-.33,0-.63,0-1.02,0-.05,0-.83.02-.88.02-.1.01.03.02.07.03l1.83-.04Z"/><path d="m67.5,18.48h.94c-.35,0-.7,0-.94,0Z"/><path d="m123.82,3.29l-3.65.16h.92c.97-.06,1.93-.11,2.73-.16Z"/><path d="m262.36,4.38h3c-.21-.03-.83-.04-1.44-.04l-1.56.04Z"/><path d="m403.94,5.05c-2.57-.06-4.99-.11-4.29-.03,1.43,0,2.86.02,4.29.03Z"/>
                  </g>
                </mask>
              </defs>
              <path class="mask" d="m41.91,7.98c22.99-1.94,58.01-4.39,101.72-5.43,13.43-.32,23.16-.39,30.32-.45C310.15.98,329.81-.46,383.47.74c56.5,1.27,107.95,4.51,107.67,5.49-.38,1.38-102.21-3.26-235.67-1.52C121.18,6.47-.3,14.1.34,16.7c.81,3.34,203.79.82,256.75.27,35.5-.37,50.67-.7,82.67-1.15,17.88-.25,50.93-.65,86.97-1.01,34.44-.35,51.66-.51,71.89-.58,20.88-.08,24.62-.01,24.62-.13.03-.72-151.33-5.15-330.33-5.75-5.92-.02-10.84-.03-14.24-.04,0,0-12.97-.03-54.66,1.21-39.12,1.17-91.13,2.67-109.73,9.53-2.28.84-7.57,2.79-6.41,5.03,1.41,2.71,10.43,4,12.75,4.25"
                    mask="url(#path-mask)" stroke="black" stroke-width="2" fill="none"
                    stroke-dasharray="1996.409912109375" stroke-dashoffset="1996.409912109375">
              </path>
            </svg>
        