
            <svg xmlns="http://www.w3.org/2000/svg">
              <defs>
                <mask id="path-mask">
                  <g fill="white">
                    <path d="m94.12,8.05c1.78.01.65-.09,1.01-.13l1.28.06c1.05.08,2.25.16,3.26.24,2.04.18,5.87.25,7.52.16,1.12.05,1.83.05,2.31.03,1.49.09,3.72.09,4.87.23.31.07,1.63.18.52.21-.8.01-1.66,0-2.93-.08-1.05-.07-2.01-.1-2.61-.06l-.99-.03c-1.23,0-2.89-.25-3.85-.11-.38-.01-1.09-.04-1.11-.04-.97.12-3.24-.01-5.2-.08l-.03-.04c.54,0,.43-.02-.18-.04-.1,0-.2,0-.31,0l-.06-.06c.33,0,.82.03.82,0,0,0-.24-.02-.36-.03-.57-.01-.41.01-.47.02l-1.94-.02c-.16,0-.32,0-.48-.01.24-.03,1.84-.01.43-.09-1.49-.08-1.99-.04-2.29.01-.28.05-.92.05-1.91-.01-.09-.09-1.53-.09-2.52-.12l.05-.02c.94-.02.21-.05-.6-.07-1.09-.08-1.19,0-1.88-.01h-.14s.16,0,.16,0c-.06.05.34.12-1.64.06-1.24-.04-2.29-.04-2.08.05h-1.23s-1.07-.13-1.07-.13c.67,0,.96,0,1.02-.03.8-.01.87-.04.09-.09-1.06-.03-1.41-.06-1.03-.1.18-.02.43-.05-.28-.06-.21,0-.53,0-.81,0-.27,0-.49,0-.49,0,.13.13-2.69.09-3.79.15-.22.01-.32.03-.47.05l-.19.04c-2.51-.03-5.15-.1-7.41-.02-.57.02-1.37-.02-1.94-.04-1.02-.04-1.71-.03-2.27.01l-4.84-.08-.09-.04c-.13-.06-.91-.09-1.9-.08-.76,0-.51.05-.57.08-2.69.02-5.38.04-8.2.06h.11s.18.05-.35.06c-.15.02-.21.05-.9.05.24-.09-1.1-.11-2.2-.12-2.36-.02-5.1-.05-7.16.02-1.43.05-2.39.06-3.79.08-.84,0-.37.07-.44.1l-8.1.12v-.07c.54-.05.42-.08.15-.12-.45-.07.23-.11,1.68-.13l1.28-.05c.76-.02,1.68-.01,2.02-.08h-1.4c-.18-.03-1-.05.07-.1.56.03,1.13.03,1.71-.02l2.02-.03c.83.1,2.46.16,4.26.21,1.27-.09,3.12-.15,3.38-.26,1.77,0,3.54.01,5.33-.03.04.04-.16.08.19.11.46.03-1.4.1.29.09,1.17,0,.94-.06.81-.1-.06-.02-.07-.09.7-.03,1.39.12,1.1-.05,2.3-.03.18.02.31.05.56.05.7,0,.69-.03.88-.05,2.26,0,4.47-.05,6.87.02,1.25.03,1.92-.06,2.29-.13l11.11.1s-.13.04,0,.06c.34.06-1.44.13.48.16,1.7.02.23-.09.48-.13.07-.01.63-.01.97-.02,3.13-.03,6.51.04,9.76.11.95.02,2.49-.03,3.24.08.86.1,6.46.35,8.26.36Zm-10.75-.37l-.35.02c.16,0,.35.01.47.02.12,0,.18,0,.27-.02-.13,0-.26-.02-.39-.02Zm-18.46-.15c-.07,0-.17,0-.25,0,.01.01.11.02.25,0Z"/><path d="m45.26,11.57c-4.14.31-8.23.5-12.34.74-.56-.16-3.22.11-4.94.19-.35-.04-.31-.11-2.15.06-1.11.1-2.72.19-4.15.27-1.15.04,2.37-.38-1.82-.03-.62.03-1.48.11-1.57.04-.05-.03-.65-.04-1.19,0-.56.05-1.07.12-1.27.16-.32.08.75-.01,1.09-.02.66,0,1.14.01,1.69.02-.33.07-1.85.13-1.76.2-.93-.05-4.17.28-4.18.13,0-.07,1.3-.23,1.86-.35.57-.12,3.08-.29,5.06-.39.9-.04,1.75-.07,2.64-.11.86-.05,1.92-.05,2.55-.14.67-.1-1.7.07-1.27-.03,1.36-.13,2.8-.24,4.39-.29.13.11.55.17,2.91-.08,1.76-.18,4-.16,5.7-.38l.65-.04,1.25-.04c2.1,0,4.35-.13,6.78-.39,1.45,0,3.09-.06,5.2-.26l.9-.06c-.11.02-.17.03-.33.05-1.19.12-1.97.22-.74.22.32,0,1.2-.04,1.05-.06-.36-.06,3.55-.34.67-.27.77-.06,1.91-.12,1.88-.2l1.34-.08s-1.02.15-.11.13c.73-.02,1.51-.09,2.1-.16l.85-.05c1.74-.1,1.85-.03,2.1.02.15.03.56.04,1.39-.02.31-.02.79-.07.89-.09.27-.06-.4-.03-.93,0-1.92.06,1.53-.24-.14-.19.41-.1,1.48-.16,2.48-.23l.02.05s-1.5.21.08.13c1.17-.06,1.99-.18,1.75-.24l1.54-.1,2.13-.07c.6.02.9.05.39.15-.23.05-.17.07.5.03.81-.05.94-.09,1.06-.14l1.15-.04.03.11c-1.93.12-4.11.32-5.42.27-.5-.02-1.21.06-1.32.12-.08.05.07.08-.74.16-3.35.32-6.8.56-10.35.72-2.17,0-6.66.3-9.35.62Zm-22.06,1.03l.67-.06c-.19,0-.37,0-.58,0-.22.02-.47.04-.89.08.36,0,.58,0,.79-.02Z"/><path d="m111.28,2.39c-1.61.09-2.36.06-3.19.04-.42-.01-.15-.1-1.43-.02-1.04.07-.8.12-.6.16.19.04.29.09.43.13l-3.81.18c-.02-.05.43-.14-1.3-.06-1.3.06-1.9.06-1.86-.02.14-.05,1.66-.12.91-.15-.26,0-.87,0-1.26.01-1.33.07-.44.09-.73.14-.16.03-.28.05-.53.08-.48.05-1.87.13-1.34.15.61.02,1.6-.1,2.52-.13v.1c-3.6.18-7.11.3-10.57.4.56-.13.92-.27,3.9-.31.49,0,1.28-.05,1.48-.1.21-.05-.4-.04-1.08-.02-.22-.05-.44-.09-.58-.15l.98-.07h-.79c2.35-.18,4.54-.26,6.61-.26.54.04,1.6.07,2.68-.04,2.06-.21,5.81-.18,7.18-.43,2.01-.03,4.13-.16,6.2-.23-.08.12,1.51.08,2.83-.01,1.18-.08,1.88-.09,2.76-.1-.3.12-2.4.12-3.22.22-.31.04-1.38-.02-1.84.07-.28.06.75.06,1.39.07.65.01,1.17,0,2.06-.08,1.13-.09,2.45-.18,3.47-.11.61.04,1.71-.05,2.35-.1,1.12-.09.21-.08-.45-.08-1.04,0-2.07-.02-1.88-.11l.66-.06c1.17.09,3.41-.05,5.32-.11.74-.02,2.44-.13,1.95.01-.12.04,2.19-.1,2.25-.14.14-.08.76-.09,1.59-.12l.62-.02c1.15-.07,2.52-.17,2.05-.01-.58.1-.56.09.42.08.43,0,1,0,1.1.01.33.06-1.41.1-1.68.16-1.76.08-3.61.22-5.1.15-.38-.02-1.5.07-1.43.08.31.04-2.11.15-.4.14-.07.04-.26.05-.96.07-2.29.07-4.6.1-6.93.26-.34-.24-2.95.07-4.47.11-1.76.07-3.06.22-4.92.27.43-.09,1.76-.24-1.34-.06Zm-7.31.19l.36-.05c-.16,0-.34,0-.47.01-.12,0-.18.02-.27.03.13,0,.26,0,.38,0Z"/><path d="m153.69,10.94c2.21.1,4.9.33,6.94.38,1.79.19,4.55.29,6.69.45.61.04.84.05,1.28.07,1.34.05,1.68-.09.21-.2-1.55-.12-2.03-.18-2.42-.25-.41-.07-1.16-.17-2.65-.18-.17,0-.77-.04-1.03-.05-2.54-.19-4.99-.3-7.49-.46l-17.3-1.06v.05c.5.03.89.06,1,.09.86.05,1.88.1,2.59.14,1.71.11,3.81.19,5.15.34.8.09,6.67.53,7.87.58.2,0,.41,0,.38,0-.28-.08.82.02,1.33.06.6.06.98.1,1.5.15.3.03,1.23.07,1.14.09-.06.01-.6,0-1.32-.05-1.51-.08-3.65-.23-3.86-.16Z"/><path d="m175.33,0c-1.51,0-3.31,0-4.3.1.43,0,.99.03,1.29.02,1.17-.03,2.27-.07,3.12.03.7.08-.29.1-1,.15-1.26.08-2.22.05-3.25,0-.64-.03-1.7-.03-2.22,0-1.78.12-2.57.05-3.63.02-.68,0-1.53.04-1.71-.01-.03-.01.28-.04.4-.04.89-.01.92.03,1.31.06l1.9-.21c-1.25-.12-2.88,0-4.42.07.04.05-.06.09-1.17.13.02.03-.08.07.08.1.49.08-1.34.11-1.89.17-.15.02-.53.04-.64.01-.23-.05.38-.08,1.07-.13.39-.03.1-.08.11-.13-.61.06-2.34.03-2.51.13.22,0,.84,0,.24.04l-.22-.04c-.88,0-.35-.1-1.44-.07-.39.01-.7.09-1.04.14.01.03-.12.06-.64.09.03,0,.06.02.1.03h.58c.96.01,3.98-.01-.12.15-.27.01-.39.06-.58.08,1.77-.05,3.62-.15,5.22-.09.2,0,2.57-.14,4.15-.17.44-.05.97-.07,1.93-.09,2.79-.07,5.7-.02,8.36-.11,1.07.11,2.99,0,4.11.16.26.04.55.07.74.15,0,0,.07.04,0,0-.01-.03,0-.04-.01-.09,0-.02.02-.04.03-.05h0s-.07.03-.12.05c-.11.04-.24.06-.36.09-.51.11-1.07.2-1.74.32-1.84.31-2.65.34-2.71.24l-3.06.33c.15.05-.69.18-1.3.28,1.41-.05,2.87-.11-.08.27-.38.05-.13.05.25.03,1.19-.18,2.95-.26,3.96-.43,2.31-.4,1.86-.22,2.18-.19l.65-.09c.06-.05.4-.11,1.14-.23.08-.08.56-.11,1.3-.38l-.08-.02s.09-.03.13-.07c.02,0,.05-.05.06-.11,0-.04-.03-.07-.05-.1-.09-.06-.14-.07-.19-.09-.09-.03-.14-.04-.17-.05-.06-.02-.03-.03-.03-.04-1.41-.24-3.52-.23-3.74-.36Z"/><path d="m118.78,8.99c.8.03,1.36.04,1.78.03.89-.02,1.98-.02.33-.15-2.59-.2-2.71-.07-4.06-.1l-2.47-.14c-1.15-.14-3.38-.14-4.87-.23l-.03-.07c1.43.06,3.09.05,4.16.15,1.35.12,2.75.16,4.33.21,6.22.2,12.47.49,18.72.86.11.04.1.06-.68.03l-1.2-.06-.62-.05c-.19-.02-.38-.03-.56-.03-3.95-.18-4.5-.18-3.01,0,.04,0,.06.01.09.02,3.49.11,4.41.34,7.83.52,1.42.07,3.3.18,3.68.29-.93-.06-1.98-.05-2.29-.11-.59-.1-1.56-.13-2.51-.19-3.39-.21-6.7-.36-10.19-.5-4.97-.2-10.09-.41-15.17-.61-1.01-.03-2.62-.07-2.7-.15.6-.04,1.55,0,2.61.06,1.27.09,2.14.09,2.93.08,1.31.08,2.62.15,3.89.15Zm6.23.09s.38.09,1.39.12c.98.03,2.42.06,2.48.04.11-.05-1.17-.05-1.63-.09-.89-.03-2.32-.15-2.24-.07Zm2.9.35c.64.03,1.78.08,1.83.04.03-.02-.39-.07-1.07-.1-.73-.02-1.45-.05-2.39-.08.7.06,1.13.11,1.64.14Zm-3.77-.34l-.37-.02h.05c.28.02.29.02.33.02Z"/><path d="m78.67,9.36c1.54-.14,2.74-.21,4.48-.3,2.52-.13,5.66-.39,8.53-.61,1.43-.11,2.97-.18,4.31-.33v-.1c-.31-.02-1.13-.04-.17-.12,2.86-.26,2.46-.42,4.44-.64-1.06.08-1.99.17-2.81.27-.1.01-.2.02-.27.03-.11.05.35.08-.79.19-.9.08-1.54.11-1.68.06h-.15s.14,0,.14,0c1.33-.06,1.37-.18,2.47-.25.07-.01.1-.02.08-.02-1.27-.01-2.8.2-4.18.29-1.75.23-3.61.36-5.49.41-.56.01-.93,0-1.56.11-.96.16-2.36.23-3.71.29-1.92.21-1.03.24-.55.3.12.02.53.02-.15.08-.58.05-.92.05-1.16.04l-.69.05c.37.05-1.46.22-1.08.27Z"/><path d="m64.85,4.08c-1.23,0-2.5.02-4.18.14-2.1.2-4.33.32-6.71.36-.45.07-1.29.12-2.05.17l-1.26.03c.15.02.39.07.44.07,2.3-.13,3.86-.09,6.08-.2,1.62-.09,3.09-.15,3.54-.06.02,0,.18,0,.27,0,.3-.03.61-.05.92-.08-.28-.11,1.36-.17,2.6-.22,4.09-.16,8.2-.42,12.35-.55,2.5-.08,2.64-.11,1.45.07-.36.06-.6.11-.89.16,2.38-.13,5.14-.19,7.05-.41-.45.01-.88.02-1.35.03-.76.03-1.86.15-2.19.09-.14-.02,1.06-.13,1.82-.2.4-.04,1.17-.06,1.77-.09.5-.02,1.05-.05,1.3-.09.31-.05-.21-.05-.74-.05-.82,0-1.04-.05-2.31,0-1.61,0-3.38.04-5.49.17-2.41.21-5.23.34-8.07.47.04.03-.09.07-.6.09-.9.04-.33-.03-.53-.05-1.19.15-2.43.33-3.21.14Z"/><path d="m134.8,9.52l-.62-.05h-.28s-.28-.03-.28-.03c-3.95-.18-4.5-.18-3.01,0,.04,0,.06.01.09.02,3.49.11,4.41.34,7.83.52,1.42.07,3.3.18,3.68.29,1.03.03,2.87.16,3.64.15-.98-.1-.01-.11.51-.08,1.51.1.59.1.8.14.04,0,0,.01,0,.02,1.15.13,3.13.18,4.42.3.8.03,1.51.07,2.11.14.21-.07,2.35.07,3.86.16.73.04,1.26.06,1.32.05.09-.02-.85-.06-1.14-.09-.52-.05-.9-.09-1.5-.15-.5-.04-1.61-.15-1.33-.06.03,0-.18,0-.38,0-1.2-.05-7.06-.49-7.87-.58-1.34-.15-3.44-.24-5.15-.34-.71-.04-1.73-.09-2.59-.14-.83-.03-.87-.06-.99-.09v-.05s-1.23-.08-1.23-.08c.11.04.1.06-.68.03-.15,0-.27.02-.47,0-.65-.03-.65-.05-.73-.07Z"/><path d="m105.78,6.86l.04.04c.51.04.91.09,1.54.12,1.35.06,3.8-.11,5.8-.4.25-.04.37-.07.68-.1,1.14-.12,1.21-.24.07-.2q-.47.02-.74.11c-.12.05-.09.09-.95.16-.26.02-.56,0-.84,0-1.63.1-1.53,0-1.9-.04,1.85-.18,3.75-.32,5.66-.44-.78.17,1.1.05,1.99.04l.96-.14,1.95-.18s.04.02.03.03c-1.18.21.67.18.63.3l-1.18.09s0-.01-.07-.01c-.84.03-.69-.1-1.71,0-1.51.15.18.1-.1.18l-.7.13c-2.85.21-5.77.46-8.56.61l-1.21.09-.06-.07.25-.04-.33.04-.76.06c-.39.02-.94.03-.92.09l-1.23.13.17-.02h.19c-.85-.02-2.95.15-3.55.07-.29-.04-2.93.27-4.36.43-.23.03-.39.05-.58.08-.32-.02-1.14-.04-.17-.12,2.86-.26,2.46-.42,4.44-.64,1.91-.19,3.75-.32,5.53-.39Zm8.18-.24c.06.01.19.02.3.03.08-.02.23-.04.23-.05,0-.02-.09-.02-.16-.04-.18.03-.39.05-.37.05Z"/><path d="m161.66.3c1.11-.03,1.21-.08,1.17-.13h-1.04s-.8.04-.8.04c-2,.03-3.92.04-6.04.15-.86.04-2.11.08-3.14.08-1.13,0-3.27.06-3.63.08-3.83.24-7.54.31-11.22.38-1.35.03-2.2.11-3.31.15l-16.97.65c-.61.02-1.23.03-1.58.09-.08.12,1.51.08,2.83-.01,1.18-.08,1.88-.09,2.76-.1.41-.06,1.21-.08,1.9-.12l.66-.06c1.17.09,3.41-.05,5.32-.11.74-.02,2.44-.13,1.95.01-.12.04,2.19-.1,2.25-.14.14-.08.76-.09,1.59-.12.2-.04.42-.05.63-.02,1.14-.07,2.51-.17,2.03-.01l.93-.03c.97-.09,1.98-.16,3.33-.15,1.12-.12,2.2-.26,3.64-.14l1.79-.05c.38-.09,1.58-.1,2.55-.14,1.41-.05,1.17.02,1.26.06,1.63-.17,3.26-.18,4.9-.15.35-.05.66-.12,1.04-.14,1.1-.03.56.07,1.44.07.15-.1,1.89-.07,2.49-.13l1.27-.03Z"/><path d="m131.19,5.41c.88,0,1.84-.04,3.13-.21-.74,0-1.47,0-.6-.14.68-.11,1.22-.06,1.96-.13.98.04,1.53-.07,2.17-.18.73-.12,1.45-.2,1.96-.14,1.75-.16,1.48-.22,1.79-.31-.27-.06-1.69.03-2.38.02-1.17.02-2.72.12-4.2.27-1.11.11-2.07.19-3.13.25-1.08.13.05.16-1.83.31-1.39.11-1.17.01-1.39-.02l-1.24.1c.09.04.26.08.25.13,0,.03-.58.09-1.11.13-.46.04-.82.04-.55,0,.39-.07,1.47-.18.32-.13-.29.01-1.29.15-1.97.23-.21.03-.32.07-.76.07l.78-.07c-.48-.1-2.03.04-3.65.21-.49.15,1.98.02,1.81.14,2.66-.27,2.64-.17,2.44-.06,1.07-.1,1.95-.1,3.06-.21-.17-.11,1.01-.3,2.86-.43,2.56-.18-.82.17.07.16.12,0,.14,0,.21.01Z"/><path d="m4.12,8.39l1.01-.02,1.95-.07.72-.02-.06-.03c-.42,0-.63-.02-.27-.05.05,0,.23,0,.29-.01.55,0-.03.04-.03.06,1.02-.02,1.77-.05,2.24-.12.75-.1,1.73-.13,2.51-.13.78,0,1.37.03,1.34.05-.15.13,1.46.09,2.63.09,1.47-.07,2.93-.14,4.43-.21.65-.03,1.91-.04,1.55-.1-.3-.05-1.67.02-2.01,0-1.07-.03-2.73.16-3.33.03-.82,0-1.78.03-1.91-.03-.69.01-1.42.04-1.86,0-1.51.02-3.03.05-4.53.07-1.48.02-2.86.08-4.25.12-.69.02-1.39.03-2.09.05-.35,0-.71,0-1.07,0-.18,0-.37-.01-.52-.05-.05-.02.04.01.01.05.01.02,0,.06-.02.07-.02,0,.01,0,.01,0,.03-.01.07-.02.12-.03l.27-.04v-.08s-.28.05-.28.05c-.07.02-.23.05-.14.05.17.04.35.04.52.05.33.02.62.03.81.05-.05.03-.07.11-1.21.05.18.05.36.09.54.13.89.02,1.76,0,2.64,0Z"/><path d="m170.16,2.18c-.38.02-.63.02-.25-.03,2.96-.37,1.49-.32.09-.27l-1.14.12.03.1h.14s-.14,0-.14,0c-1.04.06-3.29.34-3.13.18-1.72.17-3.3.18-5.21.44-.27.04-1.48.1-1.55.05l-1.82.14c-.78.15-3.08.37-2.63.46.02,0-.39.05-.61.07-1.37-.09-1.91.2-2.98.26,0,.01,0,.02,0,.03,3.13-.07,3.86-.3,4.94-.5l.24-.03-.25.03c.31-.02.76-.05,1.13-.07.37-.02.66-.04.67-.03.33.22,2.59-.12,4.43-.3,1.92-.18,4.12-.42,5.83-.47.84-.05.72.05,2.17-.1l.03-.07Z"/><path d="m71.25,9.62l1.15-.04c2.79-.17,2.76-.06,2.48.08.92-.02.87-.09,1.32-.13-.84-.1.52-.34,3.06-.53-.59-.04-.64-.12-.02-.25-.65-.04-1.18.06-1.74.12.37,0,.47.01-.03.05-.69.05-.58,0-.65-.02-1.48-.01-3.65.21-5.22.33-2.57.18-5.38.31-7.82.57l.02.05,1.79-.1c.56-.1,1.07-.1,1.58-.11l2.13-.07c.15-.06.28-.12,1.42-.19.77-.05,1.22-.04,1.59-.03.86.03-.3.16-1.05.26Z"/><path d="m17.09,7.88c.6.12,2.26-.07,3.33-.03.34.01,1.71-.06,2.01,0,.36.06-.9.07-1.55.1-1.49.07-2.95.14-4.43.21l.54.05h.72c1.99-.15,4.52-.14,6.76-.21.53-.05.4-.08.14-.12-.45-.07.23-.11,1.68-.13l.03-.03s.45-.07,1.33-.08c.18,0,.36,0,.53-.01-.18-.03-1-.05.06-.1l-.05-.03c-3.54.03-7.08.06-10.63.18.57.06,1.62.12-.47.22Z"/><path d="m35.15,5.54c-.73.04-.67-.1-1.97.07-.97.13-1.9.07-2.87.15-.27.15-1.59.19-2.98.22-1.18.02-2.14.1-3.03.19-.91.1-1.32.17-.34.18,1.31-.07,2.51-.09,3.91-.19,4.36-.32,4.84-.35,8.34-.43.08,0,.25,0,.27-.01,1.77-.22,4.49-.18,6.3-.38-.18-.05-.2-.11-1.43-.08-.04.05-.33.07-1.17.1-1.78.08-3.44.14-5.03.18Z"/><path d="m17.09,7.88c2.09-.1,1.04-.16.47-.22-1.38,0-2.3-.06-4.28.08-1.42.1-4.27.09-6.55.15-1.53.03-3.1.08-4.67.08-.38,0-.81,0-1.14-.04,0,0-.07-.02-.02,0,.09.05.15.18.04.33-.09.06,0,.01-.01.02,0,0,.03,0,.05-.01.08-.02.18-.03.27-.05l.58-.07c.77-.08,1.55-.14,2.32-.2,1.35-.09,2.25-.16,2.09-.24-.15-.08-1.25,0-2.47.12-.85.08-1.7.15-2.53.27l-.27.04s-.09.02-.12.03c0,0-.03.01-.01,0,.02,0,.03-.05.02-.07.03-.04-.06-.07-.01-.05.15.03.35.04.52.05.36.01.72.01,1.07,0,.71-.02,1.4-.03,2.09-.05,1.38-.05,2.77-.1,4.25-.12,1.5-.02,3.02-.05,4.53-.07.36-.02.77-.06,1.09-.07.69,0,.75.03.78.06.13.06,1.09.04,1.91.03Z"/><path d="m155.92,3.22c-1.09.2-1.81.43-4.94.5l-2.49.24c-.66.08-1.35.16-1.17.2,1.17,0,2.7-.19,3.98-.3,4.88-.4,9.77-.76,14.68-1.25,1.31-.13,1.49-.18,1.99-.27-1.7.05-3.91.29-5.83.47-1.84.17-4.1.52-4.43.3-.01,0-.31,0-.67.03-.37.02-.81.05-1.11.07Z"/><path d="m77.4,3.97c.29-.05.53-.11.89-.16,1.19-.18,1.05-.15-1.45-.07-4.15.13-8.26.38-12.35.55-1.24.05-2.88.11-2.6.22,2.33.02,4.86-.12,7.64-.32,1.8-.13,3.17-.16,2.83-.02,1.81-.14,3.31-.11,5.03-.2Z"/><path d="m42.78,5.34c-1.81.2-4.53.16-6.3.38-.02,0-.19,0-.27.01-3.5.08-3.98.1-8.34.43-1.4.1-2.6.12-3.9.19.56.08,1.17.15,3.32.09l1.57-.15c.58-.1,1.47-.14,2.73-.2,1.54-.08,3.4-.17,4.74-.24,2.69-.12,5.08-.36,7.65-.42l-.69-.11c-.17,0-.34.01-.51.02Z"/><path d="m11.32,7.29c.8-.16,1.45-.3-1.78-.1-1.04.07-.39-.02-.31-.06,1.58-.17,3.34-.24,4.48-.27,2.89-.06,3.53-.2,4.15-.36l.59-.04c1.9-.05,5.01-.2,2.07.15-.53.06-.51.12-.75.18-1.63.1-3.27.2-4.89.29-1.05.06-1.85.12-1.95.19l-1.82.11c.07-.03.04-.06.22-.1Zm5.19-.42c.06,0,.17,0,.33-.03-.09,0-.18,0-.33.03Z"/><path d="m16.85,13.21c-.93-.05-4.17.28-4.18.13,0-.07,1.3-.23,1.86-.35.57-.12,3.08-.29,5.06-.39.9-.04,1.75-.07,2.64-.11.86-.05,1.92-.05,2.55-.14.67-.1-1.7.07-1.27-.03-2.93.05-6.56.41-9.6.47-.96.02-.74.11-1.51.17-.74.08,2.6-.05-.14.14-.91.16-3.32.36-2.95.49.57-.02,1.31-.06,1.67-.06.92,0,.91.18,3.23-.12.02,0,.85-.02,1.37-.03,1.53-.06,2.97-.16,4.25-.29-.44-.12-2.13.13-3,.13Z"/><path d="m8.67,13.19c-.76.04-1.31.05-1.7.03-.99-.04-2.86,0-4.32.14-1.3.13-2.48.29-2.62.42-.26.23,1.39.21,5.04-.03.89-.06,2.01-.07,3.02-.1,1.1-.15.67-.22-.53-.21-1.22,0-2.33.11-3.19.24-.32.04-1.77.17-1.65.08.11-.08-.74-.1-.21-.2.33-.06.48-.12,1.47-.18,1.03-.06,1.48-.04,1.6,0,.13.05.28.08,1.43,0,1.11-.07,1.67-.13,1.66-.2Z"/><path d="m43.97,5.42c-2.57.06-4.96.3-7.65.42-1.33.07-3.2.16-4.74.24-1.27.06-2.16.1-2.73.2,2.17.05,5.4-.22,8.07-.35,3.98-.2,8.05-.48,11.94-.57l.32-.06c-.58-.02-2.6.02.48-.16,1.01-.06,1.58-.14-.16-.08-1.83.12-3.16.32-5.52.35Z"/><path d="m174.34,1.27c.05.1.87.08,2.71-.24.67-.12,1.23-.21,1.74-.32.13-.03.25-.05.36-.09.05-.01.12-.05.12-.05h0s-.03.03-.03.05c0,.05,0,.06.01.09.06.05,0,0,0,0-.19-.07-.48-.11-.74-.15-1.12-.15-3.04-.05-4.11-.16-2.66.09-5.58.04-8.36.11-.95.02-1.49.04-1.93.09,2.57.04,5.34,0,8.33-.04,1.9,0,3.85-.04,5.9.12.22.02.45.04.67.08.06,0,.1.02.15.03.03,0,.04.01.05.02,0-.01.05.05-.05-.06-.02-.05-.03-.08-.02-.17,0-.04.03-.08.05-.1h0s.01-.02-.01,0c-.03.02-.09.03-.14.05-.45.13-.98.21-1.51.29-1.06.17-2.16.31-3.2.43Z"/><path d="m53.82,10.5l1.34-.08,1.99-.04.85-.05,2.75-.26c-1.63-.07-4.86.2-7.19.35-4.61.31-9.27.63-13.92.94l-1.24.11c2.1,0,4.35-.13,6.78-.39,1.97-.16,4.06-.35,5.2-.26l.9-.06.64-.05s-.04-.03-.06-.04h-.2s.44-.03.44-.03l1.72-.14Z"/><path d="m39.61,7.41c1.77,0,3.54.01,5.32-.03,1.41,0,2.77,0,3.82.05.95,0,1.43,0,1.91,0,2.26,0,4.47-.05,6.87.02,1.25.03,1.92-.06,2.29-.13-6.82-.06-13.64-.06-20.47.03l.25.06Z"/><path d="m9.23,7.13c1.58-.17,3.34-.24,4.48-.27,2.89-.06,3.53-.2,4.15-.36-4.74.25-9.48.46-14.21.96-1.15.14-1.84.09-2.83.29l-.09.03s-.02-.06-.22.18c-.06.12-.05.2-.01.26.03.08.11.15.18.18.11.04.08.02.13.04.13.03.2.02.3.03.18,0,.37.01.56.02.37,0,.75,0,1.09,0,.69-.01,1.24-.04,1.36-.11-.88,0-1.75.02-2.64,0-.18,0-.36-.01-.56-.03l-.17-.03c-.08-.02-.24-.15-.18-.28.02-.08.13-.16.13-.15l.04-.02c.13-.04.2-.05.3-.07.37-.06.72-.1,1.08-.13l2.16-.18,4.93-.37Z"/><path d="m86.48,7.93c-.06.05.34.12-1.64.06-1.24-.04-2.29-.04-2.08.05,5.08.15,10.17.32,15.45.39l-.03-.04-.18-.04c-.1,0-.2,0-.31,0-.88,0-1.76,0-2.02-.08-.16,0-.32,0-.48-.01l-1.86-.07c-.28.05-.92.05-1.91-.01-1.1-.04-2.24.01-3.23-.07-.33-.03.17-.05.71-.05l.05-.02-.6-.07c-1.09-.08-1.19,0-1.86-.01Z"/><path d="m18.45,6.46c1.9-.05,5.01-.2,2.07.15-.53.06-.51.12-.75.18.9-.04.6.01.66.04l1.21-.08c-.38-.05,1.18-.17,1.22-.24l-.81.03c.06,0,.17-.02.18-.02.22,0,.44,0,.66-.01,1.08-.02.42.09.65.13,1.23.02,2.48-.04,3.76-.2-2.15.07-2.76,0-3.32-.09-.98,0-.57-.08.34-.18.88-.09,1.85-.17,3.03-.19,1.39-.03,2.71-.07,2.98-.22-3.12.15-6.3.38-9.39.5-1.22.05-1.85.12-2.48.2Z"/><path d="m49.49,5.07c1.74-.07,1.17.02.16.08-3.08.18-1.06.14-.48.16.53-.09,1.49-.09,2.23-.14-.08-.04.48-.13.94-.13,2.26-.02,3.85-.24,5.81-.32,1.05-.1,1.1-.06,1.19-.02,1.06,0,1.33-.06,1.63-.12-.09,0-.25,0-.27,0-.44-.09-1.92-.02-3.54.06-2.22.12-3.78.07-6.08.2-.06,0-.29-.04-.44-.07l-2.41.06-1.28.03-.14.1c2.73-.12,2.9-.02,2.68.1Z"/><path d="m82.75,3.25c1.27-.06,1.49,0,2.31,0,.52,0,1.05,0,.74.05-.24.04-.79.06-1.3.09-.6.03-1.37.06-1.77.09-.76.07-1.96.18-1.82.2.34.06,1.43-.06,2.19-.09.47-.01.9-.02,1.35-.03.59.03,1.12-.05,1.67-.08.93-.07,1.92-.15,1.64-.2-1.08-.18,1.81-.3,4.39-.44-.32-.03-1.66.05-1.77-.01-2.12.13-4.13.15-6.27.26-1.53.08-1.2.11-1.37.16Z"/><path d="m58.16,4.72c-1.96.08-3.55.3-5.81.32-.46,0-1.02.09-.94.13,3.94-.2,7.85-.39,11.78-.59,1.97-.1,4.04-.18,6-.25,1.18-.04,2.14-.1,3.18-.16.34-.15-1.03-.11-2.83.02-2.78.19-5.32.33-7.64.32-.31.03-.61.05-.92.08-.3.06-.57.12-1.63.12l-1.19.02Z"/><path d="m9.23,7.13l-4.93.37-.04.07c.67-.05,1.26-.09,1.16-.04-.1.05-.78.1-1.39.15-.22.05-.24.09-.25.13,1.22-.12,2.31-.2,2.47-.12,1.57-.08,3.2-.19,4.85-.31.07-.03.04-.06.22-.1.8-.16,1.45-.3-1.78-.1-1.04.07-.39-.02-.31-.06Z"/><path d="m148.48,3.97l2.49-.24v-.03s-.14,0-.14,0h.13c1.06-.05,1.61-.34,2.98-.25.21-.03.63-.07.61-.07-.45-.09,1.84-.31,2.63-.46-.14-.03-.69.02-1.18.06-.65.11-1.69.18-2.61.26-.68.03-1.09.21-1.47.14-.39-.07-1.52.09-2.15.11-1.08.15-1.57.15-1.94.12-.65.04-1.42.03-1.81.16l-.27.08c.76-.04,1.14,0,2.2-.1.73-.03.45.03.52.06,3.31-.2-.43.16.02.18Z"/><path d="m96.41,7.97c1.05.08,2.25.16,3.26.24,2.04.18,5.87.25,7.51.16-1.53-.05-3.22-.1-2.15-.17-2.93-.12-5.85-.23-8.63-.23Z"/><path d="m148.46,3.79c3.31-.2-.43.16.02.18-.66.08-1.35.16-1.17.2-1.88.16-3.86.41-5.58.42-.08,0-.11,0-.08-.02,2.47-.3,2.65-.47,2.51-.61l1.59-.13c.76-.04,1.14,0,2.2-.1-.07.04-.09.08.52.06Zm-1.96.27c.4-.01.77-.07.65-.08-.25-.02,1-.19-.9-.04-.94.09-.87.11-.18.09.13.02.12.05.43.04Z"/><path d="m167.24.11c.58,0,1.06.05,1.72-.02,1.46-.14,1.6-.04,2.07,0,.43,0,.99.03,1.29.02,1.17-.03,2.27-.07,3.12.03.7.08-.29.1-1,.15-1.26.08-2.22.05-3.25,0-.64-.03-1.7-.03-2.22,0-1.78.12-2.57.05-3.63.02.63-.07,1.26-.14,1.9-.21Zm6.93.07s-.22,0-.23,0c-.03,0,0,.02.02.03h.48c-.09-.02-.17-.03-.27-.03Z"/><path d="m74.5,7.86c-2.51-.03-5.15-.1-7.41-.02-.57.02-1.37-.02-1.94-.04-1.02-.04-1.71-.03-2.27.01,2.12.12,4.69.1,7.09.1,3.12,0,6.03.16,9.18.14.46,0,1.02,0,1.22-.02-.64-.08-1.72-.12-2.97-.09-1.5.03-2.22-.02-2.91-.08Z"/><path d="m8.67,13.19c.01.06-.55.13-1.66.2-1.14.07-1.3.04-1.43,0-.12-.04-.57-.06-1.6,0-.99.06-1.15.12-1.47.18-.53.1.32.12.21.2-.12.09,1.34-.04,1.65-.08.86-.12,1.97-.23,3.19-.24,1.2,0,1.63.06.53.21.41,0,.82,0,1.23-.07-.37-.13,2.03-.33,2.95-.49-.66,0-1.25,0-1.3-.04l-2.3.15Z"/><path d="m155.41.53c-1.63-.04-3.27-.02-4.9.15-.95.13-3.9.2-4.42.35l.22.11c1.07,0,2.05-.04,2.93-.11.14-.03-.26-.04.39-.07l.2.06c.18,0,.38,0,.59-.01,2.54-.1,2.02-.27,4.35-.37.52-.03.66-.06.64-.09Z"/><path d="m16.98,8.2l-.54-.05c-1.17,0-2.78.03-2.63-.09.02-.02-.56-.05-1.34-.05-.78,0-1.76.03-2.51.13-.47.06-1.22.1-2.24.12.05,0,.07.02.08.03l-.05.1c3.04-.03,6.05-.02,9.23-.18Z"/><path d="m46.15,7.86c.24-.09-1.1-.11-2.2-.12-2.36-.02-5.1-.05-7.16.02-1.43.05-2.39.06-3.79.08-.84,0-.37.07-.44.1,2.97-.01,5.86,0,8.98-.07,1.35-.03,3.06-.01,4.61,0Z"/><path d="m168.85,2l1.14-.12c.61-.11,1.44-.23,1.3-.28-3.09.26-6.38.63-9.52.8-1.26.07-1.64.23-2.77.36.06.05,1.27-.01,1.55-.05,1.91-.26,3.49-.27,5.21-.44,1.1-.3,2.05-.15,3.09-.28Z"/><path d="m137.94,1.1l-.93.03c-.57.1-.55.09.43.08.43,0,1,0,1.1.01.33.06-1.41.1-1.68.16l1.31.02,2.04-.05,4.13-.27c-2.83,0-2.76-.04.58-.28-1.44-.12-2.53.02-3.64.14-1.1.05-1.63.25-3.33.15Z"/><path d="m92.16,2.84c-2.58.13-5.46.26-4.39.44.28.05-.71.13-1.64.2.29.1,1.6-.05,2.39-.07.56-.13.92-.27,3.9-.31.49,0,1.28-.05,1.48-.1.21-.05-.4-.04-1.05-.02l-.28.02.25-.02-.66-.14Z"/><path d="m141.73,4.59c-.08,0-.11,0-.08-.02-.28-.03-2.19.15-1.84.04-.51-.05-1.22.02-1.96.14-.64.11-1.19.22-2.17.18-.74.08-1.27.03-1.96.13-.87.13-.14.14.6.14,2.51-.18,5.18-.29,7.41-.61Z"/><path d="m104.49,7.43c-.85-.01-2.95.15-3.55.07-.29-.04-2.93.27-4.36.43-.23.03-.39.05-.58.08v.1c2.22-.09,4.28-.37,6.48-.49l1.62-.13c.21-.02.34-.03.4-.05Z"/><path d="m85.86,7.69c.86.1,6.46.35,8.26.36,1.78.01.65-.09,1.01-.13-1.13-.02-2.27-.01-3.34-.1-.24-.01-1.02-.04-1.07-.05-1.45.07-3.27-.07-4.86-.09Z"/><path d="m16.85,13.21c.86,0,2.55-.25,3-.13.89.01,1.76-.08,2.64-.15,1.46-.19,3.78-.27,5.49-.43-.35-.04-.31-.11-2.15.06-1.11.1-2.72.19-4.11.27l-.76.09h-.24s.96-.09.96-.09c-1.15.04,2.37-.38-1.82-.03-.14.06.41.11-1.25.21-.33.07-1.85.13-1.76.2Z"/><path d="m47.4,7.76s.18.04-.35.04c3.77,0,7.73.12,10.99-.07l-.09-.04h-2.46c-2.69.02-5.38.04-8.09.07Z"/><path d="m27.98,12.5c-1.72.16-4.04.24-5.49.43.21.1,1.56-.07,2.27-.1,2.69-.12,5.46-.32,8.16-.51-.56-.16-3.22.11-4.94.19Z"/><path d="m72.43,9.68c-1.93.12-4.11.32-5.42.27-.5-.02-1.21.06-1.32.12-.08.05.07.08-.74.16-.26.13,1.37-.01,2.23-.07,1.94-.13,3.9-.26,5.85-.39-.16-.03.33-.12-.6-.09Z"/><path d="m82.3,8.61c1.35-.06,2.76-.13,3.71-.29.62-.11.99-.1,1.56-.11,1.89-.05,3.74-.18,5.49-.41-1.76.03-3.94.2-6.07.37-1.57.12-3.12.24-4.69.37v.08Z"/><path d="m112.63,2.45c.43-.09,1.76-.24-1.34-.06-1.61.09-2.36.06-3.19.04-.42-.01-.15-.1-1.43-.02-1.04.07-.8.12-.6.16.19.04.29.09.43.13l6.14-.24Z"/><path d="m125,5.88c.2-.12.22-.21-2.44.06l-1.86.21-1.18.09c-.5.07-1.2.12-1.87.17l-.7.13c-.05.07.77,0,1.42-.07,2.21-.2,4.42-.4,6.63-.59Z"/><path d="m138.16,1.4l-1.31-.02c-1.76.08-3.61.22-5.1.15-.38-.02-1.5.07-1.43.08.31.04-2.11.15-.4.14,2.73-.13,5.72-.11,8.25-.34Z"/><path d="m124.37,5.59c.67-.08,1.68-.22,1.97-.23,1.15-.05.07.06-.32.13-.26.04.09.04.55,0,.53-.04,1.1-.1,1.11-.13.01-.05-.16-.09-.25-.13-2.24.07-4.79.29-7.31.5l-.07.09s.04.02.02.03l.67-.05c1.62-.16,3.16-.31,3.63-.21Z"/><path d="m154.77.62c-2.33.1-1.81.27-4.35.37,1.3.04,2.62.08,4.32-.11.19-.03.31-.07.58-.08,4.1-.16,1.08-.13.12-.16-.1.03.01.06-.72.07l.14-.06s-.07-.02-.1-.03Z"/><path d="m99.04,2.5c.54.04,1.6.07,2.68-.04,2.06-.21,5.81-.18,7.18-.43-3.35.12-6.63.28-9.85.47Z"/><path d="m48.24,4.84l2.41-.06,1.26-.03c-.01-.08,1.03-.13,2.05-.17,2.38-.04,4.61-.16,6.71-.36-.2-.03-.85-.03-1.29,0-3.6.26-7.65.32-11.14.62Z"/><path d="m27.9,12.01c.13.11.55.17,2.91-.08,1.76-.18,4-.16,5.7-.38-2.58,0-5.68.28-8.61.46Z"/><path d="m31.97,7.46c.83.1,2.46.16,4.26.21-.36-.11.57-.21,1.8-.3-1.26-.05-2.38.01-3.54.05-.62.09-1.63.05-2.52.05Z"/><path d="m54.6,10.94c-2.17,0-6.66.3-9.35.62,2.67-.1,5.34-.33,8.01-.51.06-.07.72-.09,1.33-.11Z"/><path d="m179.39.86c-.74.26-1.22.29-1.2.35.26-.04.53-.08.8-.13h.19c-.21.04-.4.08-.6.11l-.49.04c-.74.12-1.09.18-1.14.23.56-.07,1.11-.14,1.66-.23.28-.06.52-.08.87-.22.02,0,.05-.02.09-.05.05-.04.05-.01.12-.13.07-.13.06-.27.02-.33-.03-.08-.15-.18-.17-.18-.12-.06-.21-.09-.28-.1-.16-.04-.3-.06-.44-.08-1.11-.13-2.23-.15-3.49-.14.22.14,2.33.13,3.74.36.09.01.18.03.29.07l.08.04s.1.09.12.14c-.01.22-.13.2-.17.24Z"/><path d="m69.19,3.9c2.84-.13,5.66-.25,8.07-.47-.96-.02-1.85,0-3.27.13-1.8.16-4.04.19-6.03.31l.12.07c.37-.01.74-.03,1.12-.04Z"/><path d="m79.25,9c-2.53.19-3.89.43-3.06.53l2.48-.17c-.38-.05,1.45-.21,1.08-.27-.72.01-.42-.06-.5-.09Z"/><path d="m144.33,1.09l-4.13.27c2.09-.01,4.16-.04,6.12-.22l-.22-.11-1.76.06Z"/><path d="m144.16,3.96l1.59-.13.27-.08c-2.31.16-4.67.29-6.8.56.69,0,2.11-.08,2.38-.02.44-.05.82-.09,1.19-.13.09-.06.15-.11,1.37-.2Z"/><path d="m82.3,8.61v-.08s-3.06.22-3.06.22c-.62.13-.57.2.02.25,1.5-.1,1.15,0,1.19.04.24.01.58.01,1.16-.04.68-.06.27-.07.15-.08-.48-.06-1.37-.09.55-.3Z"/><path d="m170.16,2.18l-.03.07c2.1-.2,4.41-.33,6.17-.7-.32-.03.13-.2-2.18.19-1.01.17-2.77.25-3.96.43Z"/><path d="m46.82,4.97l.14-.1c-2.4.06-4.56.23-6.77.38h1.16c1.23-.02,1.25.04,1.43.09.17,0,.33-.01.51-.02,0-.13.36-.26,3.53-.35Z"/><path d="m19.76,6.79c-1.63.1-3.27.2-4.89.29-1.05.06-1.85.12-1.95.19,2.18-.05,4.6-.28,6.86-.38,0-.03,0-.07-.02-.1Z"/><path d="m41.35,5.26h-1.16c-1.77.04-3.6.05-5.04.28,1.59-.04,3.25-.1,5.03-.18.84-.04,1.13-.06,1.17-.1Z"/><path d="m131.19,5.41c-.07,0-.09-.02-.21-.01-.89.01,2.49-.33-.07-.16-1.85.13-3.02.32-2.86.43,1.08-.07,2.24-.1,3.14-.26Z"/><path d="m74.5,7.86c.69.07,1.4.12,2.91.08,1.25-.03,2.33.01,2.97.09.44,0,1,.01,1.16-.01l-1.08-.12c-1.93-.06-3.84-.05-5.76-.08l-.19.04Z"/><path d="m105.04,8.21c-1.07.07.62.12,2.15.17,1.13.05,1.84.05,2.31.03l-.03-.07c-1.45-.04-2.9-.08-4.43-.13Z"/><path d="m24.47,7.99c-2.24.06-4.77.06-6.76.2,2.25.04,4.5-.09,6.75-.13v-.07Z"/><path d="m122.02,2.07c-.34-.24-2.95.07-4.47.11.1.05-.34.13,1.51.03.92-.04,1.97-.09,2.96-.14Z"/><path d="m128.66,5.12c.22.04,0,.13,1.39.02,1.88-.15.75-.18,1.83-.31-1.51.02-2.15.19-3.22.29Z"/><path d="m60.75,10.07l-2.75.26c1.73-.1,1.85-.03,2.1.02.15.03.56.04,1.39-.02.31-.02.79-.07.89-.09.27-.06-.4-.03-.93,0-1.92.06,1.53-.24-.14-.19-.17,0-.36.02-.55.03Z"/><path d="m108.36,8.66c-1.23,0-2.89-.25-3.85-.11.52.12.52.11,3.85.11Z"/><path d="m111.38,6.58c-1.63.1-1.53,0-1.9-.04-1.27.09-2.67.15-3.7.31l.04.04c.91-.05,2.51-.21,2.67-.15.34.13,1.63-.04,2.89-.16Z"/><path d="m115.14,6.1c-.78.17,1.1.05,1.99.04l.96-.14.75-.2c-1.27.08-2.38.25-3.7.3Z"/><path d="m99.08,2.91v.1c1.16-.02,2.32-.04,3.6-.13-.02-.05.43-.14-1.3-.06-1.3.06-1.9.06-1.85-.02-.57.05-.39.08-.44.11Z"/><path d="m38.03,7.37c-1.23.1-2.16.2-1.8.3,1.27-.09,3.12-.15,3.38-.26l-.25-.06-1.33.02Z"/><path d="m72.43,9.68c.92-.03.43.06.6.09l1.85-.11c.28-.14.31-.25-2.48-.08l.03.11Z"/><path d="m68.07,3.94l-.12-.07c-1.2.05-2.23.12-3.1.21.78.2,2.01.01,3.22-.14Z"/><path d="m70.93,7.42s-.13.04,0,.06c.34.06-1.44.13.48.16,1.7.02.23-.09.48-.13.07-.01.63-.01.97-.02-.41-.04-.79-.09-1.93-.07Z"/><path d="m31.97,7.46c.88,0,1.89.05,2.52-.05h-1.36c-.51,0-.95,0-1.19-.02l-2.51.06.53.03,2.02-.03Z"/><path d="m147.15,10.5s.05-.01,0-.02c-.21-.05.71-.04-.8-.14-.52-.03-1.49-.03-.51.08l1.3.08Z"/><path d="m22.85,6.51c-.04.07-1.6.19-1.22.24l1.89-.11c-.23-.04.43-.15-.67-.13Z"/><path d="m10.97,13.04c.04.05.64.05,1.3.04,2.73-.19-.6-.06.14-.14-.12,0-.28,0-.48.02l-.82.05c-.17.01-.22.02-.14.03Z"/><path d="m105.36,7.33l-1.23.13c.55.04,2.05-.1,2.98-.14l.06-.07-.06-.07c-.33.02-.59.04-.84.06-.09.05-.51.07-.92.09Z"/><path d="m90.39,2.83c.11.06,1.45-.02,1.85,0l.98-.07h-.79c-.65,0-1.33.02-2.04.07Z"/><path d="m147.83,3.6c.37.03.87.03,1.94-.12-.52,0-.74-.07-1.94.12Z"/><path d="m7.08,8.3l-1.95.07c-.09.09.99.05,1.95.02v-.09Z"/><path d="m153.38,3.22c.92-.08,1.96-.15,2.61-.26-1.33.04-2.04.14-2.61.26Z"/><path d="m153.68,10.94c-.61-.06-1.31-.11-2.11-.14.68.05,1.07.16,2.11.14Z"/><path d="m29.95,7.49l-.53-.03-1.24.02.05.03c.56.03,1.13.03,1.71-.02Z"/><path d="m97.24,7.52s-.01.01-.08.02c.09,0,.18-.02.29-.03l.17-.09-.37.09Z"/><path d="m31.94,7.4c.24.02.68.02,1.19.02.01-.06-.39-.06-1.19-.02Z"/><path d="m76.82,8.91c.07.02-.04.07.65.02.5-.04.41-.06.03-.05l-.68.04Z"/><path d="m107.17,7.25l-.06.07c.63-.06,1.07-.11,1.27-.17l-1.21.09Z"/><path d="m104.09,7.48l-1.62.13c.68,0,1.23-.05,1.62-.13Z"/><path d="m19.79,6.79v.1c.4-.02.61-.04.63-.06-.06-.03.24-.08-.63-.04Z"/><path d="m149.83,1l-.2-.06c-.65.03-.25.05-.39.07.2,0,.39,0,.59-.02Z"/><path d="m54.6,10.94c-.61.02-1.27.04-1.33.11.56-.03,1.12-.05,1.33-.11Z"/><path d="m74.69,7.83c1.92.03,3.83.02,5.76.08.67,0,.96,0,1.02-.03l.09-.09c-1.06-.03-1.41-.06-1.03-.1.18-.02.43-.05-.28-.06-.21,0-.53,0-.81,0-.27,0-.49,0-.49,0,.13.13-2.69.09-3.79.15-.22.01-.32.03-.47.05Z"/><path d="m114.89,8.84c1.31.08,2.62.15,3.89.15-2.2-.1-.4-.13-1.94-.21l-2.47-.14c.31.07,1.63.18.52.21Z"/><path d="m48.75,7.43c-1.05-.06-2.4-.06-3.82-.05.04.04-.16.08.19.11.46.03-1.4.1.29.09,1.17,0,.94-.06.81-.1-.06-.02-.07-.09.7-.03,1.39.12,1.1-.05,1.83-.03Z"/><path d="m93.33,8.18l1.86.07c.24-.03,1.84-.01.43-.09-1.49-.08-1.99-.04-2.29.01Z"/><path d="m88.89,8.04c-.54,0-1.04.03-.71.05.99.08,2.14.03,3.23.07-.09-.09-1.53-.09-2.52-.12Z"/><path d="m55.49,7.69h2.46c-.13-.05-.91-.08-1.9-.08-.76,0-.51.05-.57.08Z"/><path d="m28.18,7.61c-.17,0-.35,0-.53.01l-.07.06c.75-.02,1.67-.01,2-.08h-1.4Z"/><path d="m95.67,8.26c.26.07,1.13.08,2.02.08l-.06-.06c-.66,0-1.31-.02-1.96-.02Z"/><path d="m83.76,7.7c-.13,0-.26-.02-.39-.02l-.35.02c.16,0,.35.01.47.02.12,0,.18,0,.27-.02Z"/><path d="m50.66,7.43h-1.44c.18.02.31.05.56.05.7,0,.69-.03.88-.05Z"/><path d="m88.34,7.94l.6.07c.94-.02.21-.05-.6-.07Z"/><path d="m97.63,8.28c.33,0,.82.03.82,0,0,0-.24-.02-.36-.03-.57-.01-.41.01-.46.03Z"/><path d="m81.56,7.78l-.09.09c.8-.01.87-.04.09-.09Z"/><path d="m64.66,7.51s.11.01.2.02c-.01-.01-.11-.02-.2-.02Z"/><path d="m26.31,7.7l-.03.03,1.28-.05c-.41,0-.83.01-1.25.02Z"/><path d="m86.46,7.93h-.14c.05,0,.1,0,.14,0Z"/><path d="m98,8.35l.18.04c.54,0,.43-.02-.18-.04Z"/><path d="m71.25,9.62c.75-.11,1.92-.24,1.05-.26-.37-.01-.81-.01-1.59.03-1.15.07-1.27.13-1.42.19.6.02.9.05.39.15-.23.05-.17.07.5.03.81-.05.94-.09,1.06-.14Z"/><path d="m18.61,13.01c1.66-.11,1.1-.15,1.25-.21-.61.03-1.48.11-1.57.04-.05-.03-.65-.04-1.19,0-.56.05-1.07.12-1.27.16-.32.08.75-.01,1.09-.02.66,0,1.14.01,1.69.02Z"/><path d="m50.38,10.82c-1.14-.09-3.22.1-5.2.26,1.45,0,3.09-.06,5.2-.26Z"/><path d="m51.92,10.71l-.64.05c-.11.02-.17.03-.33.05-1.19.12-1.97.22-.74.22.32,0,1.2-.04,1.05-.06-.36-.06,3.55-.34.66-.25Z"/><path d="m65.59,9.75l-1.79.1s-1.5.21.08.13c1.17-.06,1.99-.18,1.7-.24Z"/><path d="m57.15,10.38l-1.99.04c.05.04-1.02.15-.1.13.73-.02,1.51-.09,2.1-.16Z"/><path d="m22.41,12.61c.36,0,.58,0,.79-.02l.67-.06c-.19,0-.37,0-.58,0-.22.02-.47.04-.89.08Z"/><path d="m53.82,10.5l-1.72.14c-.08,0-.16.02-.25.03l.08.03c.77-.06,1.9-.12,1.88-.2Z"/><path d="m67.16,9.65c-.51,0-1.02,0-1.54.1l1.54-.1Z"/><path d="m26.14,12.21c.18,0,.26-.01.35-.02-.06,0-.13,0-.35.02Z"/><path d="m122.58,1.57c-.69.03-1.49.05-1.9.12-.3.12-2.4.12-3.22.22-.31.04-1.38-.02-1.84.07-.28.06.75.06,1.39.07.65.01,1.17,0,2.06-.08,1.13-.09,2.45-.18,3.47-.11.61.04,1.71-.05,2.35-.1,1.12-.09.21-.08-.45-.08-1.04,0-2.07-.02-1.88-.11Z"/><path d="m99.08,2.91s-.13-.06.44-.11c.14-.05,1.66-.12.91-.15-.26,0-.87,0-1.26.01-1.33.07-.44.09-.73.14-.16.03-.28.05-.53.08-.48.05-1.87.13-1.34.15.61.02,1.6-.1,2.52-.13Z"/><path d="m103.59,2.59c.13,0,.26,0,.38,0l.36-.05c-.16,0-.34,0-.47.01-.12,0-.18.02-.27.03Z"/><path d="m134.35,1.16l.62-.02c-.2,0-.41.02-.62.02Z"/><path d="m137.92,9.68c.12.03.16.05.99.09-.11-.03-.51-.06-.99-.09Z"/><path d="m161.66.3l-1.27.03s.28.1-.11.13c-.69.05-1.3.08-1.07.13.11.02.49,0,.64-.01.55-.06,2.38-.09,1.89-.17-.16-.03-.06-.06-.08-.1Z"/><path d="m165.34.32c-.39-.02-.42-.07-1.31-.06-.12,0-.44.03-.4.04.18.05,1.03.02,1.71.01Z"/><path d="m179.39.86s.15-.02.17-.24c-.02-.06-.09-.14-.12-.14l-.08-.04c-.11-.04-.2-.06-.29-.07,0,.01-.03.02.03.04.04.01.09.03.17.05.05.01.1.03.19.09.02.03.05.06.05.1,0,.05-.04.1-.06.11-.05.04-.09.05-.13.07l.08.02Z"/><path d="m154.86.65l-.14.06c.73-.02.62-.05.72-.07h-.58Z"/><path d="m157.89.46l.22.04c.6-.04-.02-.03-.22-.04Z"/><path d="m116.84,8.78c1.54.08-.25.12,1.94.21.8.03,1.36.04,1.78.03.89-.02,1.98-.02.33-.15-2.59-.2-2.71-.07-4.06-.1Z"/><path d="m127.26,9.15c-.89-.03-2.32-.15-2.24-.07.02.03.38.09,1.39.12.98.03,2.42.06,2.48.04.11-.05-1.17-.05-1.63-.09Z"/><path d="m126.27,9.29c.7.06,1.13.11,1.64.14.64.03,1.78.08,1.83.04.03-.02-.39-.07-1.07-.1-.73-.02-1.45-.05-2.39-.08Z"/><path d="m134.8,9.52c.08.02.09.04.73.07.2,0,.31,0,.47,0l-1.2-.06Z"/><path d="m123.82,9.08c.2,0,.08,0-.05-.01h.05Z"/><path d="m133.62,9.44h.28s.28.03.28.03c-.19-.02-.38-.03-.56-.03Z"/><path d="m94.7,7.79c.13.05.78.02,1.68-.06,1.14-.11.69-.13.79-.19-1.11.07-1.15.19-2.47.25Z"/><path d="m80.44,9.04c-.04-.05.31-.14-1.21-.04.1.04-.2.11.52.09l.69-.05Z"/><path d="m94.69,7.79h-.14s.1,0,.14,0Z"/><path d="m69.19,3.9l-1.13.04c.2.02-.38.09.53.05.51-.02.64-.06.6-.09Z"/><path d="m53.96,4.58c-1.02.05-2.06.09-2.05.17.76-.06,1.6-.11,2.05-.17Z"/><path d="m111.38,6.58c-1.25.13-2.55.29-2.89.16-.15-.06-1.75.1-2.67.15.51.04.91.09,1.54.12,1.35.06,3.8-.11,5.8-.4.25-.04.37-.07.68-.1,1.14-.12,1.21-.24.07-.2q-.47.02-.74.11c-.12.05-.09.09-.95.16-.26.02-.56,0-.84,0Z"/><path d="m120.74,5.8l-.67.05c-1.18.21.68.18.63.3l1.86-.21c.17-.12-2.3.01-1.81-.14Z"/><path d="m117.64,6.41c.68-.05,1.38-.1,1.87-.17-.02,0,0-.01-.06-.01-.84.03-.69-.1-1.71,0-1.51.15.18.1-.1.18Z"/><path d="m114.33,6.56c-.18.03-.39.05-.37.05.06.01.19.02.3.03.08-.02.23-.04.23-.05,0-.02-.09-.02-.16-.04Z"/><path d="m105.36,7.33c.41-.02.83-.04.92-.09-.39.02-.94.03-.92.09Z"/><path d="m107.12,7.18l.25-.04c-.11.01-.22.03-.25.04Z"/><path d="m144.33,1.09l1.76-.06c.52-.15,3.47-.22,4.42-.35-.1-.04.15-.11-1.26-.06.6.05-.42.11-1.07.15-.79.05-1.17.01-1.47-.01l-1.79.05c-3.35.24-3.41.27-.58.28Z"/><path d="m146.7.76c.3.03.68.06,1.47.01.65-.04,1.68-.1,1.07-.15-.96.03-2.16.04-2.55.14Z"/><path d="m137.94,1.1c1.7.1,2.23-.1,3.33-.15-1.35-.02-2.36.06-3.33.15Z"/><path d="m134.34,1.16l.64-.02c-.21-.02-.43-.02-.64.02Z"/><path d="m144.16,3.96c-1.22.09-1.28.15-1.37.2.19.05-.45.09-1.13.12-.38.1-.1.16-1.85.32-.35.11,1.57-.07,1.84-.04,2.46-.3,2.65-.47,2.51-.61Z"/><path d="m124.39,5.59l-.78.07c.44,0,.55-.04.78-.07Z"/><path d="m3.82,7.7c.29-.05.37-.09.45-.13l-1.87.17-.93.11c-.16.02-.31.04-.47.07-.08.02-.15.02-.26.08-.2.14.1.27.08.24.04,0,.09.02.13.02,1.14.06,1.16-.02,1.21-.05-.33,0-.71,0-1.05-.03-.08,0-.17-.01-.24-.03-.03,0-.1-.02-.09-.05.03-.03.07-.03.1-.04.14-.03.27-.04.36-.05.85-.13,1.72-.22,2.58-.31Z"/><path d="m.95,8.26s-.09-.01-.13-.02c.01.03-.28-.1-.08-.24.11-.06.18-.06.26-.08.16-.03.31-.05.47-.07l.93-.11,1.86-.17.04-.07-2.16.18c-.36.04-.72.07-1.08.13-.1.02-.17.03-.3.07l-.04.02s-.12.07-.13.15c-.06.13.1.26.18.28l.17.03c.19.02.37.03.56.03-.18-.04-.36-.08-.54-.13Z"/><path d="m3.82,7.7c-.86.09-1.72.17-2.58.3v.08c.84-.12,1.69-.19,2.54-.27l.04-.11Z"/><path d="m15.18,7.85s-.09-.07-.78-.06c-.31,0-.72.04-1.09.07.44.03,1.18,0,1.86,0Z"/><path d="m1.24,8.01c-.1,0-.23.01-.36.05-.03.01-.08,0-.1.04,0,.03.06.05.09.05.08.02.16.02.24.03.34.02.71.02,1.05.03-.19-.03-.48-.04-.81-.05-.16-.01-.35-.01-.51-.05-.09,0,.07-.03.14-.05l.27-.05Z"/><path d="m7.72,8.25s.59-.05.03-.06c-.06,0-.23,0-.29.01-.36.03-.15.04.25.05Z"/><path d="m168.85,2c-1.04.12-1.99-.02-3.09.28-.16.16,2.09-.12,3.13-.18-.02-.03-.03-.06-.04-.1Z"/><path d="m155.9,3.22l.25-.03c-.08,0-.16.02-.25.03Z"/><path d="m168.89,2.1h.14s-.1,0-.14,0Z"/><path d="m26.31,7.7l1.26-.02.07-.06c-.88,0-1.31.03-1.33.08Z"/><path d="m46.82,4.97c-3.17.09-3.53.22-3.53.35l.69.11c2.36-.03,3.69-.23,5.52-.35.22-.13.06-.22-2.68-.1Z"/><path d="m16.84,6.84h-.27s.11.02.27,0Z"/><path d="m52.1,10.64l-.44.02h.2c.08,0,.17,0,.25-.02Z"/><path d="m22.88,6.51c-.22,0-.43,0-.66.01,0,0-.12.01-.18.02.27-.01.54-.02.83-.03Z"/><path d="m58.16,4.72l1.19-.02c-.08-.04-.14-.08-1.19.02Z"/><path d="m4.27,7.57l-.24.12c.61-.05,1.29-.1,1.39-.15.1-.05-.49-.02-1.16.04Z"/><path d="m147.94,3.73c-.07.04-.09.08.52.06-.07-.03.21-.09-.52-.06Z"/><path d="m150.97,3.69h-.13s.09,0,.13,0Z"/><path d="m146.07,4.02c.13.02.12.05.43.04.4-.01.77-.07.65-.08-.25-.02,1-.19-.9-.04l-.18.09Z"/><path d="m146.07,4.02l.18-.09c-.94.09-.86.11-.18.09Z"/><path d="m174.44.2c-.09,0-.17-.01-.27-.02-.01,0-.22,0-.23,0-.03,0,0,.02.02.03h.48Z"/><path d="m92.82,2.98l-.25.02c.09,0,.18-.01.25-.02Z"/><path d="m21.68,12.83l-.96.08h.24c.25-.02.51-.06.72-.08Z"/><path d="m178.58,1.2c.2-.03.39-.07.6-.12h-.19s-.41.12-.41.12Z"/><path d="m178.99,1.08c-.27.06-.53.09-.8.13.06.01.22,0,.39-.02l.41-.11Z"/><path d="m141.66,4.29c.68-.03,1.32-.07,1.13-.12l-1.13.12Z"/>
                  </g>
                </mask>
              </defs>
              <path class="mask" d="m0,13.9c27.66-1.5,66.44-3.83,112.94-7.38C152.09,3.54,179.54,1.44,179.42.65,179.13-1.38.64,6.95.77,8.11c.07.65,55.25-2.55,135.14,1.54,13.41.69,24.92,1.45,33.86,2.09"
                    mask="url(#path-mask)" stroke="black" stroke-width="2" fill="none"
                    stroke-dasharray="528.006103515625" stroke-dashoffset="528.006103515625">
              </path>
            </svg>
        