
            <svg xmlns="http://www.w3.org/2000/svg">
              <defs>
                <mask id="path-mask">
                  <g fill="white">
                    <path d="m123.88,7.7c2.34.04.86-.08,1.32-.12l1.68.08c1.38.09,2.97.2,4.28.29,2.68.21,7.72.34,9.87.28,1.48.07,2.41.08,3.03.07,1.96.11,4.88.15,6.4.31.41.08,2.14.21.69.21-1.04,0-2.18-.02-3.85-.13-1.38-.09-2.64-.13-3.42-.11l-1.3-.05c-1.61-.03-3.79-.29-5.06-.17-.5-.02-1.43-.06-1.45-.06-1.28.1-4.26-.07-6.83-.17l-.04-.04c.71,0,.56,0-.23-.04-.13,0-.26,0-.4-.01l-.08-.06c.44.01,1.08.04,1.08.01,0,0-.32-.03-.48-.03-.74-.02-.53,0-.61.02l-2.55-.05c-.21,0-.42-.01-.63-.02.32-.02,2.41.02.57-.08-1.95-.1-2.61-.07-3.01-.02-.37.05-1.2.03-2.51-.04-.12-.09-2.01-.11-3.32-.16l.06-.02c1.23,0,.27-.05-.79-.08-1.43-.1-1.57-.02-2.47-.04l-.18-.02.21.02c-.08.05.45.12-2.15.03-1.62-.06-3.01-.07-2.74.01l-1.61-.03-1.41-.13c.88.02,1.26,0,1.34-.02,1.05,0,1.14-.03.11-.09-1.4-.04-1.86-.08-1.36-.12.24-.02.56-.04-.36-.07-.27,0-.7-.01-1.06-.02-.36,0-.65,0-.65,0,.17.14-3.54.05-4.98.1-.29,0-.42.03-.62.04l-.26.03c-3.3-.06-6.77-.17-9.74-.12-.75.01-1.8-.04-2.54-.07-1.34-.06-2.25-.06-2.99-.02l-6.36-.15-.11-.04c-.18-.06-1.2-.1-2.49-.11-1,0-.67.04-.75.07-3.53-.02-7.07-.03-10.77-.05h.15s.24.05-.46.05c-.2.02-.28.05-1.18.04.32-.09-1.45-.12-2.88-.15-3.1-.05-6.69-.12-9.41-.07-1.88.03-3.15.03-4.97.03-1.11,0-.49.06-.58.09l-10.65.03.02-.07c.7-.04.53-.08.19-.12-.6-.07.31-.11,2.21-.11l1.68-.04c1,0,2.21,0,2.65-.05l-1.84-.02c-.23-.03-1.32-.06.09-.1.73.04,1.48.04,2.25,0h2.65c1.09.11,3.23.19,5.59.26,1.66-.07,4.1-.11,4.45-.22,2.33.02,4.65.06,7,.04.06.04-.2.08.25.11.6.04-1.84.08.38.1,1.53.01,1.23-.04,1.07-.09-.08-.02-.08-.09.91-.02,1.83.14,1.45-.04,3.02,0,.24.02.41.05.73.06.91.02.91-.02,1.16-.04,2.97.04,5.87.01,9.03.11,1.64.05,2.52-.04,3.01-.09l14.59.26s-.17.04,0,.06c.45.06-1.89.11.63.17,2.23.05.31-.08.63-.12.09-.01.83,0,1.28,0,4.11.01,8.56.13,12.82.25,1.24.03,3.27,0,4.25.13,1.13.12,8.49.44,10.86.49Zm-14.12-.53l-.46.02c.21,0,.46.02.62.02.16,0,.24,0,.35-.01-.18-.01-.34-.02-.51-.03Zm-24.25-.42c-.09,0-.22,0-.33-.01.02.01.14.02.33.01Z"/><path d="m59.49,10.51c-5.44.28-10.82.46-16.23.69-.73-.17-4.23.1-6.49.18-.46-.04-.4-.11-2.82.05-1.46.1-3.58.18-5.46.27-1.51.04,3.12-.38-2.39-.04-.81.03-1.94.11-2.06.04-.06-.03-.85-.04-1.56,0-.73.05-1.41.12-1.67.16-.43.08.99-.01,1.43-.02.86,0,1.49.01,2.22.02-.44.07-2.43.13-2.31.2-1.22-.05-5.49.28-5.49.13,0-.07,1.72-.24,2.45-.36.76-.13,4.05-.29,6.66-.39,1.18-.04,2.3-.07,3.47-.11,1.13-.05,2.52-.05,3.35-.14.88-.1-2.24.06-1.67-.03,1.79-.13,3.68-.24,5.77-.29.16.11.71.17,3.83-.07,2.32-.18,5.25-.15,7.49-.36l.86-.04,1.64-.04c2.75,0,5.71-.11,8.92-.36,1.91,0,4.06-.04,6.83-.23l1.18-.05c-.14.02-.23.03-.43.05-1.56.11-2.6.21-.99.21.42,0,1.58-.03,1.38-.05-.47-.06,4.67-.32.89-.26,1.01-.06,2.51-.11,2.48-.18l1.76-.07c.06.04-1.34.14-.14.13.95-.01,1.98-.08,2.76-.15l1.11-.05c2.28-.09,2.43-.02,2.76.04.19.03.73.04,1.82,0,.41-.02,1.04-.06,1.17-.08.36-.06-.53-.03-1.23-.02-2.52.05,2.01-.23-.18-.2.54-.1,1.95-.15,3.27-.21l.02.05s-1.98.2.1.13c1.54-.05,2.62-.16,2.3-.22l2.02-.09,2.8-.05c.79.02,1.18.06.51.15-.31.04-.23.07.66.03,1.07-.04,1.23-.09,1.4-.13l1.5-.03.04.11c-2.54.1-5.41.28-7.12.21-.65-.02-1.59.05-1.74.11-.11.04.09.08-.98.15-4.4.29-8.95.5-13.61.64-2.84-.01-8.75.26-12.29.56Zm-28.99.95c.3-.02.59-.04.89-.06-.25,0-.48,0-.76,0-.29.02-.62.04-1.17.08.48,0,.76-.01,1.04-.02Z"/><path d="m145.96,1.78c-2.12.08-3.11.04-4.2,0-.55-.02-.19-.11-1.88-.03-1.37.06-1.05.11-.79.15.25.04.38.09.56.13l-5.01.14c-.02-.05.56-.14-1.71-.07-1.71.05-2.5.04-2.44-.03.19-.05,2.19-.1,1.2-.14-.35-.01-1.14-.02-1.66,0-1.75.05-.58.09-.97.13-.21.03-.37.05-.69.08-.63.05-2.46.11-1.77.14.79.03,2.11-.08,3.31-.1v.1c-4.74.14-9.35.23-13.89.3.74-.13,1.22-.26,5.13-.27.65,0,1.69-.04,1.95-.08.28-.05-.53-.04-1.41-.03-.29-.05-.58-.1-.76-.15l1.29-.06-1.04-.02c3.09-.15,5.98-.21,8.69-.19.71.05,2.1.09,3.51-.01,2.71-.19,7.63-.12,9.44-.36,2.64-.01,5.43-.12,8.15-.17-.11.12,1.97.09,3.71.02,1.55-.07,2.47-.08,3.63-.07-.4.11-3.15.1-4.24.19-.41.03-1.81-.04-2.41.05-.37.05.99.06,1.83.08.86.02,1.53,0,2.71-.06,1.49-.08,3.22-.15,4.56-.08.8.05,2.25-.03,3.09-.08,1.48-.07.28-.08-.58-.09-1.37-.02-2.72-.04-2.46-.13l.87-.05c1.53.1,4.48-.02,6.99-.05.97-.02,3.21-.11,2.56.03-.16.03,2.88-.08,2.96-.11.18-.07.99-.09,2.1-.11l.81-.02c1.51-.06,3.31-.14,2.69,0-.76.09-.73.09.55.09.57,0,1.32,0,1.44.02.43.06-1.85.09-2.22.14-2.31.06-4.74.18-6.71.1-.5-.02-1.97.06-1.88.07.4.04-2.78.13-.54.13-.09.03-.34.05-1.26.06-3.02.05-6.04.06-9.11.19-.44-.24-3.88.04-5.87.07-2.31.05-4.02.19-6.47.22.57-.08,2.32-.22-1.76-.07Zm-9.6.12l.47-.04c-.21,0-.45,0-.62,0-.15,0-.23.02-.35.03.17,0,.34,0,.5,0Z"/><path d="m202.13,11.6c2.91.14,6.44.42,9.12.51,2.36.23,5.98.38,8.79.57.8.06,1.11.07,1.68.09,1.76.08,2.2-.06.27-.2-2.04-.15-2.67-.22-3.19-.29-.53-.08-1.53-.19-3.48-.23-.22-.01-1.02-.05-1.36-.07-3.33-.24-6.55-.4-9.84-.6l-22.73-1.38v.05c.65.04,1.17.07,1.32.1,1.13.06,2.47.14,3.4.19,2.24.14,5,.26,6.77.44,1.06.11,8.77.65,10.34.72.26.01.53.02.49,0-.37-.09,1.08.03,1.74.09.79.07,1.28.12,1.97.18.39.04,1.62.09,1.5.11-.07,0-.78-.02-1.74-.07-1.99-.11-4.8-.3-5.07-.23Z"/><path d="m230.14.05c-1.99-.01-4.34-.04-5.65.05.57.01,1.3.04,1.7.04,1.53-.02,2.98-.04,4.1.07.92.09-.38.1-1.31.14-1.65.06-2.92.02-4.27-.04-.84-.04-2.24-.05-2.92-.02-2.34.1-3.38.02-4.77-.02-.89,0-2.02.02-2.25-.03-.05-.01.36-.04.53-.04,1.17,0,1.2.04,1.72.07l2.5-.19c-1.65-.13-3.79-.03-5.8.02.05.05-.08.09-1.54.11.02.03-.11.07.1.1.64.09-1.77.1-2.49.15-.2.01-.69.03-.84,0-.3-.05.51-.08,1.41-.12.51-.02.13-.08.15-.12-.8.06-3.07,0-3.3.11.29,0,1.1,0,.31.04l-.29-.04c-1.16,0-.45-.1-1.89-.08-.51,0-.92.08-1.37.12.02.03-.16.06-.84.08.04,0,.08.02.13.03h.76c1.26.03,5.23.04-.16.15-.35,0-.52.05-.77.08,2.32-.03,4.76-.12,6.86-.04.26,0,3.38-.08,5.46-.13.57-.05,1.28-.06,2.53-.07,3.66-.04,7.49.05,10.99-.01,1.4.12,3.93.05,5.41.21.36.04.7.08,1.03.14.08.02.16.03.23.05.04,0,.07.02.08.03,0,0,0,.01-.04-.06-.05-.04.05-.15.03-.12-.06.03-.26.09-.42.11-.67.13-1.41.22-2.3.34-2.43.32-3.5.34-3.56.24l-4.03.32c.19.05-.92.18-1.72.28,1.85-.04,3.77-.09-.13.27-.5.05-.17.05.33.03,1.57-.18,3.89-.25,5.22-.42,3.06-.39,2.46-.22,2.87-.19l.85-.09c.08-.05.54-.11,1.51-.24.05-.03.24-.07.54-.13.15-.03.32-.07.52-.11.1-.02.2-.05.32-.08.06-.02.11-.03.19-.09.02.02.15-.17.06-.26-.06-.08-.1-.08-.14-.1.02.03.05.06.06.1-.52-.21-.68-.15-.77-.2-.08-.02-.04-.03-.04-.04-1.84-.23-4.61-.26-4.9-.4Z"/><path d="m156.27,9.03c1.05.05,1.79.06,2.34.06,1.16,0,2.59.02.43-.14-3.4-.25-3.56-.11-5.33-.16l-3.25-.18c-1.51-.16-4.44-.19-6.4-.31l-.04-.07c1.88.08,4.06.1,5.47.21,1.77.15,3.62.21,5.69.28,8.17.3,16.37.7,24.59,1.18.14.04.13.06-.89.02l-1.58-.09-.81-.07c-.25-.03-.49-.04-.74-.04-5.19-.25-5.92-.26-3.95-.05.06,0,.08.01.11.02,4.59.17,5.8.42,10.28.66,1.86.1,4.34.24,4.84.36-1.22-.07-2.6-.09-3-.15-.77-.12-2.05-.16-3.3-.23-4.45-.27-8.8-.47-13.38-.68-6.52-.28-13.26-.57-19.93-.86-1.33-.05-3.45-.11-3.54-.2.78-.03,2.04.02,3.42.11,1.67.11,2.81.13,3.85.13,1.72.1,3.44.2,5.11.21Zm8.18.19s.5.1,1.83.15c1.29.05,3.18.1,3.25.08.15-.05-1.53-.08-2.14-.12-1.17-.05-3.05-.19-2.95-.11Zm3.81.4c.84.04,2.34.11,2.4.07.03-.02-.52-.07-1.41-.12-.96-.04-1.9-.07-3.14-.12.92.07,1.48.13,2.15.17Zm-4.95-.41l-.49-.03h.06c.37.03.38.03.43.03Z"/><path d="m103.44,8.59c2.02-.12,3.61-.18,5.89-.25,3.32-.09,7.45-.32,11.22-.49,1.88-.09,3.9-.13,5.67-.27v-.1c-.4-.03-1.48-.05-.21-.13,3.76-.22,3.25-.38,5.86-.57-1.39.06-2.62.14-3.71.22-.14,0-.26.02-.36.02-.14.05.45.09-1.05.17-1.18.07-2.03.09-2.2.04h-.2s.18,0,.18,0c1.75-.04,1.8-.16,3.25-.21.09,0,.13-.02.11-.02-1.66-.03-3.68.16-5.5.22-2.31.21-4.75.31-7.23.33-.74,0-1.23-.01-2.05.09-1.27.15-3.11.2-4.89.24-2.54.19-1.36.23-.74.29.16.02.7.03-.2.08-.76.05-1.21.04-1.52.03l-.9.04c.48.06-1.93.2-1.43.25Z"/><path d="m84.93,3.02c-1.61,0-3.28,0-5.49.11-2.76.18-5.69.28-8.82.3-.59.06-1.7.11-2.7.15l-1.66.02c.2.03.51.08.58.07,3.03-.11,5.07-.05,7.99-.15,2.12-.07,4.07-.12,4.65-.03.02,0,.23,0,.35,0,.4-.02.8-.05,1.21-.07-.36-.11,1.79-.16,3.42-.2,5.38-.12,10.78-.34,16.23-.43,3.29-.05,3.47-.09,1.9.08-.46.06-.79.1-1.18.16,3.12-.11,6.76-.15,9.28-.35-.59,0-1.16.01-1.77.02-1,.02-2.44.13-2.88.07-.18-.03,1.4-.12,2.39-.18.53-.03,1.54-.05,2.33-.08.66-.02,1.39-.04,1.7-.08.41-.05-.28-.05-.96-.05-1.08,0-1.37-.06-3.04-.02-2.11-.02-4.44.01-7.22.12-3.17.19-6.88.29-10.61.39.05.03-.11.07-.79.09-1.19.03-.43-.04-.69-.06-1.57.14-3.2.31-4.21.11Z"/><path d="m177.32,9.84l-.81-.07-.37-.02-.37-.02c-5.19-.25-5.92-.26-3.95-.05.06,0,.08.01.11.02,4.59.17,5.8.42,10.28.66,1.86.1,4.34.24,4.84.36,1.35.05,3.77.21,4.78.22-1.29-.12-.02-.11.66-.07,1.99.12.77.11,1.05.16.06.01,0,.01,0,.02,1.51.15,4.11.24,5.81.38,1.05.04,1.98.1,2.78.18.27-.07,3.08.12,5.07.23.95.05,1.66.08,1.74.07.12-.02-1.11-.07-1.5-.11-.69-.06-1.18-.11-1.97-.18-.66-.05-2.12-.17-1.74-.09.04,0-.23,0-.49,0-1.57-.07-9.28-.62-10.34-.72-1.77-.18-4.53-.3-6.77-.44-.93-.05-2.28-.13-3.4-.19-1.09-.05-1.14-.07-1.31-.1v-.05s-1.62-.1-1.62-.1c.14.04.13.06-.89.02-.2,0-.35.01-.61,0-.85-.04-.85-.06-.96-.08Z"/><path d="m139.15,6.49l.06.04c.66.05,1.19.11,2.02.15,1.77.08,5-.04,7.63-.3.33-.03.49-.07.89-.1,1.5-.11,1.59-.24.1-.2q-.62.01-.98.11c-.16.04-.12.09-1.25.14-.35.02-.74,0-1.1-.02-2.14.07-2-.02-2.49-.07,2.44-.15,4.93-.25,7.45-.37-1.03.17,1.44.06,2.61.05l1.27-.14,2.56-.17s.05.02.03.03c-1.56.21.88.19.81.31l-1.55.09s0-.01-.08-.01c-1.1.02-.9-.11-2.25-.01-1.98.14.24.1-.14.18l-.92.13c-3.75.2-7.59.41-11.26.51l-1.59.07-.07-.07.34-.03-.44.03-1,.05c-.51.02-1.23.02-1.21.07l-1.62.11.22-.02h.25c-1.12-.03-3.88.1-4.67.01-.37-.04-3.86.22-5.75.36-.31.03-.51.05-.77.07-.42-.03-1.49-.05-.22-.13,3.76-.22,3.25-.38,5.86-.57,2.51-.15,4.94-.26,7.27-.3Zm10.75-.11c.07.02.25.02.39.04.11-.02.3-.04.3-.05,0-.02-.12-.03-.2-.04-.24.02-.51.05-.49.05Z"/><path d="m212.18.2c1.46-.02,1.59-.07,1.54-.11h-1.36s-1.05.02-1.05.02c-2.62,0-5.15,0-7.93.09-1.13.03-2.77.06-4.13.05-1.48-.02-4.29.03-4.77.04-5.04.2-9.91.23-14.75.26-1.78.01-2.89.09-4.35.12l-22.31.48c-.8.02-1.62.02-2.08.07-.11.12,1.97.09,3.71.02,1.55-.07,2.47-.08,3.63-.07.54-.06,1.59-.07,2.49-.1l.87-.05c1.53.1,4.48-.02,6.99-.05.97-.02,3.21-.11,2.56.03-.16.03,2.88-.08,2.96-.11.18-.07.99-.09,2.1-.11.27-.04.55-.04.83-.02,1.5-.06,3.29-.14,2.67,0,.41,0,.82-.01,1.23-.02,1.28-.08,2.6-.14,4.38-.12,1.47-.11,2.9-.24,4.79-.1l2.35-.03c.51-.09,2.08-.09,3.35-.11,1.86-.03,1.53.03,1.66.07,2.14-.15,4.29-.15,6.44-.09.46-.04.87-.12,1.37-.12,1.44-.02.73.07,1.89.08.21-.1,2.48-.05,3.28-.1h1.67Z"/><path d="m172.56,5.29c1.15,0,2.42-.03,4.12-.19-.98,0-1.93-.01-.78-.14.9-.1,1.6-.05,2.57-.12,1.29.04,2.01-.06,2.86-.17.97-.12,1.91-.19,2.57-.13,2.31-.15,1.95-.21,2.36-.3-.35-.06-2.21.02-3.12,0-1.54.01-3.58.11-5.52.24-1.46.1-2.72.17-4.12.23-1.43.12.06.16-2.41.3-1.83.1-1.53,0-1.82-.03l-1.63.1c.12.04.34.08.32.13-.01.03-.76.09-1.47.12-.61.03-1.07.04-.72,0,.52-.06,1.94-.17.43-.13-.38.01-1.7.14-2.59.22-.28.03-.43.07-1,.07l1.03-.07c-.63-.11-2.66.03-4.79.18-.65.15,2.6.03,2.37.15,3.5-.25,3.47-.16,3.21-.04,1.41-.09,2.57-.08,4.02-.19-.22-.11,1.34-.29,3.77-.41,3.37-.16-1.08.16.08.16.16,0,.19.01.28.02Z"/><path d="m5.63,6.86h1.33s2.57-.06,2.57-.06h.94s-.05-.03-.08-.04c-.56,0-.83-.02-.36-.05.07,0,.3,0,.38,0,.73.01-.04.04-.04.06,1.34,0,2.33-.03,2.95-.09.99-.09,2.27-.11,3.3-.1,1.03,0,1.8.05,1.76.07-.2.13,1.92.1,3.46.12,1.94-.05,3.85-.11,5.82-.16.86-.02,2.51-.02,2.04-.08-.39-.05-2.19,0-2.64-.02-1.41-.05-3.58.13-4.37,0-1.07,0-2.34,0-2.51-.05-.91,0-1.87.02-2.45-.01-1.98,0-3.98.01-5.95.02-1.95,0-3.76.04-5.58.07-.91,0-1.82.02-2.75.03-.46,0-.93-.01-1.41-.02-.24-.01-.47-.02-.71-.04-.11,0-.26-.03-.31-.04.02.01.03.04.03.07,0,.05-.05.08-.03.07,0,0,0,0,.02,0l.08-.02.18-.03v-.08c-.11,0-.28.06-.31.06.08.03.22.04.33.05.24.01.47.02.69.03.44.02.81.03,1.06.06-.06.04-.09.1-1.58.05l.7.13c1.16.03,2.31.02,3.46.02Z"/><path d="m223.84,2.29c-.5.02-.83.01-.33-.03,3.9-.36,1.98-.31.13-.27l-1.51.11.04.1h.19s-.18,0-.18,0c-1.37.06-4.34.33-4.12.17-2.27.16-4.34.16-6.86.41-.36.04-1.95.09-2.03.04l-2.39.13c-1.04.14-4.06.35-3.47.44.03,0-.52.05-.8.07-1.79-.1-2.52.19-3.92.24,0,.01,0,.02,0,.03,4.11-.05,5.07-.27,6.51-.47l.31-.03-.33.03c.41-.02,1-.04,1.48-.06.24,0,.46-.02.62-.02.16,0,.26,0,.27,0,.42.22,3.41-.11,5.83-.27,2.52-.17,5.43-.4,7.67-.44,1.1-.05.94.05,2.85-.09l.04-.07Z"/><path d="m93.69,8.77l1.51-.03c3.67-.14,3.63-.03,3.25.11,1.21-.01,1.15-.08,1.74-.11-1.09-.11.7-.33,4.03-.49-.77-.05-.84-.13,0-.25-.85-.05-1.55.04-2.28.1.49,0,.61.02-.05.05-.9.05-.76,0-.85-.02-1.95-.03-4.8.17-6.87.27-3.39.16-7.08.26-10.29.49l.02.05,2.35-.09c.74-.1,1.41-.09,2.08-.09l2.8-.05c.2-.06.37-.11,1.88-.17,1.02-.04,1.6-.03,2.08-.02,1.13.04-.41.15-1.39.25Z"/><path d="m22.67,6.49c.79.13,2.97-.04,4.37,0,.45.01,2.25-.04,2.64.02.47.06-1.19.06-2.04.08-1.96.05-3.88.11-5.82.16l.71.05h.94c2.62-.12,5.95-.08,8.89-.12.7-.04.53-.08.19-.12-.6-.07.31-.11,2.21-.11l.04-.03s.59-.07,1.75-.07c.24,0,.47,0,.7,0-.23-.03-1.32-.06.09-.1l-.07-.03c-4.65-.01-9.3-.03-13.97.05.75.07,2.13.14-.62.22Z"/><path d="m45.88,4.22c-.96.04-.88-.11-2.59.05-1.28.12-2.5.05-3.78.13-.36.14-2.09.18-3.92.19-1.55.01-2.82.08-3.98.17-1.2.09-1.74.16-.46.18,1.72-.06,3.29-.07,5.14-.16,5.73-.29,6.36-.31,10.96-.35.11,0,.33,0,.36,0,2.34-.2,5.9-.14,8.29-.33-.23-.05-.26-.12-1.88-.09-.05.05-.44.06-1.54.09-2.33.05-4.52.09-6.6.13Z"/><path d="m22.67,6.49c2.75-.08,1.37-.15.62-.22-1.81-.02-3.03-.08-5.62.03-1.87.09-5.61.04-8.6.07-2.01.02-4.08.05-6.14.03-.51,0-1.03-.01-1.54-.04-.12,0-.27-.02-.34-.04h0s0,0,0,0c.02,0,.06.03.07.07.03.05.06.15-.02.25-.06.06-.03.03-.05.04-.02,0,.02,0,.04,0l.17-.03c.24-.04.5-.06.76-.08,1.02-.09,2.05-.15,3.06-.19,1.78-.08,2.96-.15,2.76-.23-.2-.08-1.63,0-3.24.11-1.11.08-2.24.14-3.33.28l-.18.03-.08.02s-.02,0-.02,0c-.02,0,.03-.01.03-.06,0-.03,0-.06-.03-.07.04.01.2.03.31.04.24.01.48.02.71.04.48,0,.94.01,1.41.02.93,0,1.84-.02,2.75-.03,1.82-.03,3.64-.07,5.58-.07,1.97,0,3.96-.01,5.95-.02.48-.02,1.02-.06,1.43-.06.91,0,.99.04,1.02.07.16.06,1.43.05,2.51.05Z"/><path d="m205.1,3.25c-1.44.2-2.4.42-6.51.47l-3.28.23c-.87.07-1.77.15-1.55.19,1.54,0,3.55-.18,5.23-.27,6.43-.37,12.85-.7,19.32-1.17,1.73-.13,1.97-.17,2.63-.26-2.23.04-5.14.27-7.67.44-2.42.16-5.4.5-5.83.27,0,0-.11,0-.27,0-.16,0-.38.01-.62.02-.48.02-1.06.05-1.46.06Z"/><path d="m101.41,3.03c.39-.05.71-.09,1.18-.16,1.57-.17,1.39-.14-1.9-.08-5.45.09-10.86.31-16.23.43-1.63.04-3.78.09-3.42.2,3.05.04,6.39-.08,10.05-.25,2.36-.11,4.17-.13,3.72.01,2.38-.12,4.36-.08,6.61-.16Z"/><path d="m55.91,4.09c-2.38.19-5.95.12-8.29.33-.03,0-.25,0-.36,0-4.6.05-5.23.07-10.96.35-1.84.09-3.42.1-5.13.16.73.08,1.53.16,4.36.12l2.07-.14c.76-.1,1.93-.13,3.6-.18,2.03-.06,4.48-.14,6.23-.2,3.54-.1,6.68-.32,10.05-.35l-.9-.11c-.23,0-.45.01-.66.02Z"/><path d="m14.53,5.77c1.06-.15,1.91-.29-2.33-.12-1.37.06-.51-.03-.41-.06,2.09-.16,4.39-.22,5.89-.24,3.79-.04,4.65-.17,5.46-.32l.78-.04c2.49-.04,6.58-.16,2.71.17-.7.06-.68.12-.99.18-2.14.08-4.29.17-6.43.25-1.39.05-2.43.1-2.57.18l-2.39.09c.09-.03.05-.06.3-.09Zm6.83-.38c.08,0,.22,0,.43-.03-.12,0-.24,0-.43.03Z"/><path d="m22.14,12.08c-1.22-.05-5.49.28-5.49.13,0-.07,1.72-.24,2.45-.36.76-.13,4.05-.29,6.66-.39,1.18-.04,2.3-.07,3.47-.11,1.13-.05,2.52-.05,3.35-.14.88-.1-2.24.06-1.67-.03-3.85.05-8.63.4-12.61.46-1.26.02-.97.11-1.99.17-.97.08,3.41-.05-.19.14-1.2.16-4.37.37-3.88.5.75-.02,1.72-.07,2.2-.07,1.21,0,1.19.18,4.25-.12.03,0,1.11-.02,1.79-.03,2-.06,3.9-.16,5.58-.29-.58-.12-2.8.12-3.94.13Z"/><path d="m11.4,12.07c-1,.04-1.72.05-2.24.03-1.3-.04-3.76,0-5.68.15-1.72.13-3.27.3-3.45.43-.35.23,1.81.21,6.62-.04,1.17-.06,2.64-.07,3.97-.11,1.45-.15.89-.22-.69-.21-1.6.01-3.06.12-4.2.24-.42.05-2.34.17-2.17.08.14-.08-.97-.09-.27-.2.43-.06.64-.12,1.94-.19,1.35-.07,1.94-.05,2.1,0,.17.04.37.08,1.87,0,1.46-.07,2.2-.14,2.19-.2Z"/><path d="m57.47,4.18c-3.37.04-6.52.25-10.06.35-1.75.06-4.2.13-6.23.2-1.66.05-2.84.08-3.6.18,2.85.07,7.1-.17,10.61-.28,5.24-.16,10.59-.41,15.69-.46l.42-.06c-.76-.03-3.42,0,.63-.15,1.33-.05,2.08-.13-.21-.08-2.41.1-4.17.3-7.26.3Z"/><path d="m229.38,1.39c.06.1,1.13.08,3.56-.24.89-.12,1.63-.22,2.3-.34.16-.03.36-.08.42-.11.03-.03-.07.08-.03.12.03.07.04.06.04.06-.01,0-.05-.02-.08-.03-.07-.02-.15-.04-.23-.05-.33-.06-.67-.1-1.03-.14-1.47-.16-4-.09-5.41-.21-3.5.06-7.33-.02-10.99.01-1.25.01-1.96.03-2.53.07,3.37.07,7.01.05,10.94.06,2.5.01,5.05.01,7.76.19.29.03.6.05.91.08.15.02.31.04.45.07.06.01.15.04.16.04-.03-.02,0,.03-.08-.09-.05-.07,0-.25.05-.27,0-.01.02,0-.03,0-.54.16-1.28.24-1.96.33-1.4.17-2.85.31-4.23.43Z"/><path d="m70.77,9.5l1.76-.07,2.62-.02c.37-.02.74-.03,1.12-.05l3.62-.23c-2.14-.08-6.39.16-9.45.29-6.07.29-12.2.57-18.3.86l-1.63.11c2.75,0,5.71-.11,8.92-.36,2.6-.15,5.34-.33,6.83-.23l1.18-.05.84-.05s-.05-.03-.08-.05h-.26s.58-.03.58-.03l2.26-.12Z"/><path d="m52.26,6.29c2.33.02,4.65.06,7,.04,1.86,0,3.64.03,5.01.1,1.25,0,1.88.01,2.51.02,2.97.04,5.87.01,9.03.11,1.64.05,2.52-.04,3.01-.09-8.96-.16-17.92-.25-26.89-.24l.33.06Z"/><path d="m11.79,5.6c2.09-.16,4.39-.22,5.89-.24,3.79-.04,4.65-.17,5.46-.32-6.23.21-12.47.39-18.69.86-.76.05-1.37.09-1.94.12-.29.02-.57.04-.86.06-.15.02-.29.03-.44.05-.08.01-.15.02-.25.05l-.08.02s-.04.01-.07.03c-.02.03-.06-.03-.17.21-.04.19.06.29.16.37l.07.03c.06.02.07.02.1.02,1.79.13,4.32.1,4.66,0-1.15,0-2.3,0-3.46-.02l-.72-.03c-.12,0-.24-.02-.37-.03l-.1-.02s-.03,0-.06-.02l-.04-.02s-.05-.01-.1-.09c-.04-.05-.06-.13,0-.24.08-.09.05-.04.08-.07.04-.02.06-.03.08-.03.04-.01.07-.02.11-.03.5-.09.96-.11,1.43-.15l2.84-.18,6.48-.34Z"/><path d="m113.83,7.47c-.08.05.45.12-2.15.03-1.62-.06-3.01-.07-2.74.01,6.68.23,13.36.47,20.3.62l-.04-.04-.23-.04c-.13,0-.26,0-.41-.01-1.16-.02-2.31-.04-2.65-.11-.21,0-.42-.01-.63-.02l-2.45-.1c-.37.05-1.2.03-2.51-.04-1.44-.05-2.94-.02-4.25-.12-.43-.03.22-.05.93-.04l.06-.02-.79-.08c-1.43-.1-1.57-.02-2.45-.04Z"/><path d="m23.91,5c2.49-.04,6.58-.16,2.71.17-.7.06-.68.12-.99.18,1.19-.04.79.02.87.04l1.59-.07c-.5-.05,1.56-.16,1.61-.23l-1.07.02c.08,0,.22-.02.23-.02.29,0,.58,0,.86,0,1.41,0,.55.09.85.14,1.61.03,3.25-.02,4.94-.17-2.82.05-3.62-.03-4.36-.12-1.28-.01-.75-.09.45-.18,1.16-.09,2.44-.15,3.98-.17,1.82-.02,3.56-.05,3.92-.19-4.1.12-8.29.33-12.34.42-1.6.04-2.44.11-3.26.18Z"/><path d="m64.73,3.88c2.29-.05,1.54.03.21.08-4.06.15-1.39.13-.63.15.69-.09,1.96-.08,2.94-.12-.11-.04.63-.12,1.23-.12,2.97,0,5.06-.2,7.64-.27,1.38-.1,1.45-.05,1.56-.01,1.4.01,1.74-.05,2.15-.1-.12,0-.33,0-.35,0-.58-.09-2.52-.04-4.65.03-2.92.1-4.96.04-7.99.15-.08,0-.38-.05-.58-.07l-3.17.03h-1.68s-.19.11-.19.11c3.59-.1,3.8,0,3.51.13Z"/><path d="m108.46,2.37c1.67-.05,1.96.02,3.04.02.69,0,1.38,0,.96.05-.32.04-1.04.06-1.7.08-.79.02-1.8.04-2.33.08-1,.06-2.58.16-2.39.18.44.06,1.88-.05,2.88-.07.61,0,1.18-.01,1.77-.02.77.03,1.47-.04,2.2-.06,1.22-.06,2.53-.13,2.16-.18-1.41-.19,2.38-.29,5.78-.4-.42-.04-2.18.03-2.32-.03-2.78.11-5.43.12-8.24.2-2.02.06-1.58.1-1.81.15Z"/><path d="m76.12,3.6c-2.58.07-4.68.27-7.64.27-.6,0-1.34.08-1.23.12,5.17-.16,10.32-.32,15.49-.48,2.59-.06,5.32-.13,7.89-.19,1.55-.03,2.81-.08,4.18-.14.45-.14-1.36-.12-3.72-.01-3.66.17-7,.28-10.05.25-.4.02-.81.05-1.21.07-.4.06-.75.11-2.15.1h-1.56Z"/><path d="m11.79,5.6l-6.48.34-.06.07c.88-.05,1.66-.08,1.53-.03-.13.05-1.03.1-1.84.15-.3.05-.32.09-.33.13,1.61-.12,3.05-.19,3.24-.11,2.07-.07,4.21-.16,6.38-.28.09-.03.05-.06.3-.09,1.06-.15,1.91-.29-2.33-.12-1.37.06-.51-.03-.41-.06Z"/><path d="m195.32,3.96l3.28-.23v-.03s-.18,0-.18,0h.17c1.4-.04,2.13-.33,3.92-.23.28-.02.83-.07.8-.07-.59-.09,2.43-.3,3.47-.44-.18-.03-.91.02-1.56.06-.85.1-2.22.17-3.44.24-.9.03-1.45.2-1.93.13-.51-.07-1.99.08-2.83.1-1.42.15-2.07.15-2.56.11-.85.03-1.86.02-2.38.14l-.36.07c1-.03,1.49,0,2.89-.08.95-.03.59.03.68.06,4.35-.18-.57.15.02.18Z"/><path d="m126.88,7.66c1.38.09,2.97.2,4.28.29,2.68.21,7.72.34,9.87.28-2-.08-4.23-.15-2.82-.2-3.84-.16-7.68-.32-11.33-.37Z"/><path d="m195.3,3.78c4.35-.18-.57.15.02.18-.87.07-1.77.15-1.55.19-2.48.15-5.09.39-7.34.38-.11,0-.15,0-.11-.02,3.25-.29,3.51-.45,3.32-.6l2.09-.12c1-.03,1.49,0,2.89-.08-.09.04-.12.08.68.06Zm-2.59.26c.52-.01,1.02-.07.85-.08-.33-.02,1.32-.19-1.17-.05-1.24.09-1.14.11-.24.09.17.02.16.05.56.04Z"/><path d="m219.51.07c.76,0,1.39.06,2.25,0,1.92-.13,2.1-.02,2.72.03.57.01,1.3.04,1.7.04,1.53-.02,2.98-.04,4.1.07.92.09-.38.1-1.31.14-1.65.06-2.92.02-4.27-.04-.84-.04-2.24-.05-2.92-.02-2.34.1-3.38.02-4.77-.02.83-.06,1.66-.13,2.5-.19Zm9.1.15s-.29,0-.3,0c-.04,0,.01.02.02.03h.64c-.11-.01-.22-.02-.35-.03Z"/><path d="m98.09,7.22c-3.3-.06-6.77-.17-9.74-.12-.75.01-1.8-.04-2.54-.07-1.34-.06-2.25-.06-2.99-.02,2.78.15,6.16.16,9.32.2,4.09.05,7.92.24,12.06.27.6,0,1.34.02,1.61,0-.84-.09-2.26-.14-3.9-.13-1.98,0-2.91-.05-3.82-.13Z"/><path d="m11.4,12.07c.01.06-.73.13-2.19.2-1.5.07-1.71.04-1.87,0-.16-.04-.75-.06-2.1,0-1.3.06-1.51.13-1.94.19-.7.1.41.12.27.2-.16.09,1.76-.04,2.17-.08,1.13-.12,2.6-.23,4.2-.24,1.58-.01,2.14.05.69.21.54,0,1.08-.01,1.62-.07-.48-.13,2.68-.33,3.89-.5-.86,0-1.65,0-1.7-.04l-3.03.15Z"/><path d="m203.96.36c-2.15-.05-4.29-.06-6.44.09-1.26.12-5.13.16-5.81.3l.29.11c1.41.01,2.69-.02,3.85-.08.18-.02-.34-.05.51-.07l.26.06c.24,0,.49,0,.77,0,3.33-.07,2.66-.25,5.72-.32.69-.02.86-.05.84-.08Z"/><path d="m22.53,6.81l-.71-.05c-1.53-.02-3.65,0-3.46-.12.03-.02-.74-.06-1.76-.07-1.03,0-2.31,0-3.3.1-.62.06-1.61.08-2.95.09.06,0,.09.02.11.03l-.06.1c4,0,7.95.05,12.13-.07Z"/><path d="m60.85,6.83c.32-.09-1.45-.12-2.88-.15-3.1-.05-6.69-.12-9.41-.07-1.88.03-3.15.03-4.97.03-1.11,0-.49.06-.58.09,3.9.03,7.7.08,11.8.04,1.77-.02,4.02.03,6.05.05Z"/><path d="m222.13,2.11l1.51-.11c.8-.1,1.91-.23,1.72-.28-4.06.24-8.41.6-12.53.75-1.66.06-2.16.23-3.66.35.08.05,1.67,0,2.03-.04,2.52-.25,4.59-.25,6.86-.41,1.45-.3,2.7-.14,4.07-.26Z"/><path d="m181.01.74c-.41,0-.82.01-1.23.02-.76.09-.73.09.56.09.57,0,1.32,0,1.44.02.43.06-1.85.09-2.22.14l1.72.04,2.68-.03,5.44-.23c-3.71-.04-3.63-.07.77-.27-1.89-.14-3.32,0-4.79.1-1.45.04-2.15.24-4.38.12Z"/><path d="m120.83,2.04c-3.4.11-7.18.21-5.78.4.36.05-.94.12-2.16.18.38.1,2.11-.04,3.14-.05.74-.13,1.22-.26,5.13-.27.65,0,1.69-.04,1.95-.08.28-.05-.53-.04-1.37-.03l-.37.02.33-.02-.87-.14Z"/><path d="m186.43,4.53c-.11,0-.15,0-.1-.02-.36-.03-2.89.14-2.42.02-.66-.06-1.61.01-2.57.13-.85.1-1.58.21-2.86.17-.98.07-1.67.02-2.57.12-1.15.13-.19.14.78.14,3.3-.17,6.81-.26,9.75-.57Z"/><path d="m137.42,7.04c-1.12-.03-3.88.1-4.67.01-.37-.04-3.86.22-5.75.36-.31.03-.51.05-.77.07v.1c2.91-.05,5.63-.3,8.52-.39l2.13-.11c.28-.01.45-.03.53-.04Z"/><path d="m113.02,7.21c1.13.12,8.49.44,10.86.49,2.34.04.86-.08,1.32-.12-1.49-.04-2.98-.05-4.39-.15-.31-.01-1.34-.06-1.41-.06-1.9.04-4.29-.12-6.38-.16Z"/><path d="m22.14,12.08c1.13,0,3.36-.24,3.94-.13,1.16.01,2.31-.08,3.47-.15,1.92-.18,4.97-.26,7.23-.42-.46-.04-.4-.11-2.82.05-1.46.1-3.58.18-5.4.27l-1.01.09h-.32s1.27-.09,1.27-.09c-1.51.04,3.12-.38-2.39-.04-.19.06.54.11-1.64.21-.44.07-2.43.13-2.31.2Z"/><path d="m62.49,6.75s.24.04-.46.04c4.95.06,10.15.22,14.44.08l-.11-.04-3.23-.04c-3.53-.01-7.07-.02-10.63-.03Z"/><path d="m36.77,11.38c-2.26.15-5.31.23-7.23.42.27.1,2.05-.07,2.98-.1,3.53-.12,7.17-.31,10.74-.5-.73-.17-4.23.1-6.49.18Z"/><path d="m95.24,8.84c-2.54.1-5.41.28-7.12.21-.65-.02-1.59.05-1.74.11-.11.04.09.08-.98.15-.34.13,1.79,0,2.92-.04,2.55-.11,5.13-.22,7.7-.33-.21-.03.43-.12-.78-.1Z"/><path d="m108.24,7.89c1.78-.05,3.62-.09,4.89-.24.82-.1,1.31-.08,2.05-.09,2.48-.02,4.92-.12,7.23-.33-2.31,0-5.18.15-7.98.28-2.06.1-4.11.2-6.17.3l-.02.08Z"/><path d="m147.72,1.85c.57-.08,2.32-.22-1.76-.07-2.12.08-3.11.04-4.2,0-.55-.02-.19-.11-1.88-.03-1.37.06-1.05.11-.79.15.25.04.38.09.56.13l8.07-.18Z"/><path d="m164.41,5.72c.26-.12.3-.21-3.21.04l-2.45.2-1.55.09c-.66.07-1.58.11-2.47.16l-.92.13c-.07.07,1.01,0,1.87-.06,2.91-.18,5.82-.37,8.73-.55Z"/><path d="m181.28,1.05l-1.72-.04c-2.31.06-4.74.18-6.71.1-.5-.02-1.97.06-1.88.07.4.04-2.78.13-.54.13,3.59-.1,7.52-.05,10.84-.26Z"/><path d="m163.6,5.42c.89-.08,2.21-.21,2.59-.22,1.51-.04.08.06-.43.13-.35.04.11.04.72,0,.7-.04,1.45-.09,1.47-.12.02-.05-.2-.09-.32-.13-2.95.06-6.29.26-9.62.45l-.1.09s.05.02.03.03l.89-.04c2.13-.15,4.17-.29,4.77-.18Z"/><path d="m203.12.44c-3.06.07-2.39.25-5.72.32,1.7.06,3.44.1,5.68-.06.25-.03.41-.07.77-.08,5.39-.12,1.42-.12.16-.16-.13.03.01.06-.95.07l.19-.06s-.09-.02-.13-.03Z"/><path d="m129.88,1.77c.71.05,2.1.09,3.51-.01,2.71-.19,7.63-.12,9.44-.36-4.4.09-8.72.22-12.95.38Z"/><path d="m63.09,3.64l3.17-.03,1.66-.02c-.01-.08,1.36-.12,2.7-.15,3.13-.01,6.06-.12,8.82-.3-.27-.03-1.12-.04-1.69,0-4.73.23-10.06.26-14.65.52Z"/><path d="m36.68,10.9c.16.11.71.17,3.83-.07,2.32-.18,5.25-.15,7.49-.36-3.38,0-7.47.26-11.32.43Z"/><path d="m42.23,6.25c1.09.11,3.23.19,5.59.26-.47-.11.76-.2,2.37-.28-1.65-.06-3.13-.02-4.65,0-.82.09-2.15.03-3.31.02Z"/><path d="m71.78,9.95c-2.84-.01-8.75.26-12.29.56,3.51-.09,7.03-.3,10.54-.46.09-.07.95-.09,1.75-.1Z"/><path d="m235.78.59s.07.02.14.1c.09.08-.05.28-.06.26-.08.06-.14.07-.19.09-.11.04-.22.06-.31.08-.19.04-.36.07-.5.1-.28.05-.43.09-.42.11.35-.04.69-.08,1.05-.16.09-.01.16-.01.26-.04-.29.09-.54.12-.81.17l-.64.05c-.97.13-1.43.19-1.51.24.74-.07,1.46-.15,2.18-.25.18-.03.36-.06.55-.1.1-.02.19-.04.3-.09.02,0,.06-.02.11-.05.05-.05.05.02.17-.19.03-.09.04-.18.01-.25-.03-.08-.1-.16-.12-.16-.06-.05-.11-.07-.14-.08-.46-.15-.77-.15-1.15-.2-1.44-.13-2.91-.17-4.56-.17.29.14,3.06.17,4.9.4.24.03.47.05.74.14Z"/><path d="m90.63,2.88c3.73-.1,7.44-.2,10.61-.39-1.26-.02-2.43-.02-4.3.09-2.37.14-5.32.15-7.93.26l.15.07c.48,0,.98-.02,1.47-.03Z"/><path d="m104.22,8.24c-3.33.16-5.13.38-4.03.49l3.26-.14c-.5-.06,1.91-.2,1.43-.25-.95,0-.55-.06-.65-.1Z"/><path d="m189.4.8l-5.44.23c2.74,0,5.47,0,8.04-.16l-.29-.11-2.31.04Z"/><path d="m189.64,3.92l2.09-.12.36-.07c-3.04.15-6.14.26-8.95.52.91,0,2.77-.06,3.12,0,.58-.05,1.08-.08,1.57-.12.13-.05.2-.11,1.81-.2Z"/><path d="m108.24,7.89l.02-.08-4.05.18c-.83.12-.76.2,0,.25,1.97-.08,1.51,0,1.56.06.31.01.76.02,1.52-.03.89-.06.36-.06.2-.08-.62-.06-1.8-.11.74-.29Z"/><path d="m223.84,2.29l-.04.07c2.76-.19,5.8-.31,8.13-.68-.42-.03.18-.2-2.87.19-1.33.17-3.64.24-5.22.42Z"/><path d="m61.22,3.75l.19-.1c-3.15.03-5.99.19-8.91.32l1.52.02c1.62-.02,1.65.04,1.88.09.22,0,.44-.01.67-.02,0-.13.49-.25,4.65-.32Z"/><path d="m25.63,5.34c-2.14.08-4.29.17-6.43.25-1.39.05-2.43.1-2.57.18,2.87-.03,6.05-.24,9.03-.33,0-.03,0-.07-.02-.1Z"/><path d="m54.03,3.99l-1.52-.02c-2.32.03-4.73.03-6.62.24,2.09-.04,4.27-.09,6.6-.13,1.1-.03,1.49-.05,1.54-.09Z"/><path d="m172.56,5.29c-.09,0-.12-.02-.28-.02-1.16,0,3.28-.32-.08-.16-2.43.12-3.98.3-3.77.41,1.42-.06,2.94-.08,4.13-.24Z"/><path d="m98.09,7.22c.91.08,1.84.14,3.82.13,1.64,0,3.06.05,3.9.13.57,0,1.31.03,1.52,0-.47-.04-.94-.09-1.41-.13-2.54-.09-5.05-.11-7.57-.16l-.26.03Z"/><path d="m138.21,8.03c-1.41.05.82.13,2.82.2,1.48.07,2.41.08,3.04.07l-.03-.07c-1.91-.07-3.81-.13-5.82-.2Z"/><path d="m32.36,6.69c-2.94.04-6.27,0-8.89.12,2.95.06,5.92-.04,8.87-.05l.02-.07Z"/><path d="m160.07,1.56c-.44-.24-3.88.04-5.87.07.13.05-.45.13,1.98.04,1.21-.03,2.59-.07,3.89-.11Z"/><path d="m169.25,4.98c.29.04,0,.13,1.82.03,2.47-.14.99-.18,2.41-.3-1.98.01-2.83.18-4.24.27Z"/><path d="m79.88,9.13l-3.62.23c2.28-.09,2.43-.02,2.76.04.19.03.73.04,1.82,0,.41-.02,1.04-.06,1.17-.08.36-.06-.53-.03-1.23-.02-2.52.05,2.01-.23-.18-.2-.23,0-.47.02-.72.02Z"/><path d="m142.58,8.53c-1.61-.03-3.79-.29-5.06-.17q.68.12,5.06.17Z"/><path d="m146.51,6.31c-2.14.07-2-.02-2.49-.07-1.67.07-3.52.1-4.87.24l.06.04c1.2-.04,3.31-.16,3.51-.1.44.13,2.15,0,3.8-.11Z"/><path d="m151.47,5.87c-1.03.17,1.44.06,2.61.05l1.27-.14.99-.19c-1.67.07-3.14.23-4.87.28Z"/><path d="m129.92,2.18v.1c1.52-.01,3.04-.02,4.72-.1-.02-.05.56-.14-1.71-.07-1.71.05-2.5.04-2.44-.03-.75.04-.52.07-.58.11Z"/><path d="m50.19,6.23c-1.61.08-2.83.17-2.37.28,1.66-.07,4.1-.11,4.45-.22l-.33-.06h-1.75Z"/><path d="m95.24,8.84c1.21-.02.57.06.78.1l2.43-.09c.38-.14.42-.25-3.25-.11l.04.11Z"/><path d="m89.16,2.91l-.15-.07c-1.58.04-2.93.1-4.08.18,1.01.2,2.64.03,4.23-.11Z"/><path d="m93.42,6.73s-.17.04,0,.06c.45.06-1.89.11.63.17,2.23.05.31-.08.63-.12.09-.01.83,0,1.28,0-.54-.05-1.03-.1-2.53-.1Z"/><path d="m42.23,6.25c1.16.01,2.49.07,3.31-.02l-1.78-.02c-.67,0-1.25,0-1.56-.03l-3.3.03.69.03h2.65Z"/><path d="m193.54,11.04s.06-.01,0-.02c-.28-.05.93-.03-1.05-.16-.68-.04-1.95-.05-.66.07l1.71.11Z"/><path d="m29.7,5.09c-.05.07-2.11.17-1.61.23l2.49-.09c-.3-.04.57-.14-.88-.13Z"/><path d="m14.43,11.91c.06.05.84.05,1.7.04,3.6-.19-.79-.06.18-.14-.16,0-.36,0-.63.02l-1.08.05c-.22.01-.28.02-.18.03Z"/><path d="m138.57,6.96l-1.62.11c.72.05,2.69-.07,3.92-.08l.09-.07-.07-.07c-.44.02-.77.03-1.1.05-.12.04-.67.06-1.21.07Z"/><path d="m118.51,2.02c.14.06,1.91,0,2.43.02l1.29-.06-1.04-.02c-.86,0-1.75.02-2.68.06Z"/><path d="m194.47,3.58c.49.04,1.14.04,2.56-.11-.68,0-.96-.07-2.56.11Z"/><path d="m9.52,6.8l-2.57.05c-.12.09,1.3.06,2.56.04v-.09Z"/><path d="m201.78,3.24c1.21-.07,2.58-.14,3.44-.24-1.75.03-2.68.13-3.44.24Z"/><path d="m202.12,11.6c-.8-.08-1.73-.13-2.78-.18.89.06,1.41.18,2.78.18Z"/><path d="m39.58,6.26l-.69-.03h-1.63s.07.04.07.04c.73.04,1.48.04,2.25,0Z"/><path d="m127.9,7.01s-.02.01-.11.02c.12,0,.24-.02.38-.02l.22-.09-.49.09Z"/><path d="m42.19,6.19c.31.03.89.03,1.56.03.02-.06-.51-.07-1.56-.03Z"/><path d="m101.03,8.13c.09.02-.06.07.85.02.66-.03.53-.05.05-.05l-.89.03Z"/><path d="m140.95,6.9l-.09.07c.84-.05,1.41-.1,1.68-.14l-1.59.07Z"/><path d="m136.89,7.08l-2.13.11c.9,0,1.61-.03,2.13-.11Z"/><path d="m25.67,5.35l-.02.1c.54-.01.82-.03.84-.06-.08-.03.32-.08-.83-.04Z"/><path d="m196.63.77l-.26-.06c-.86.02-.33.05-.51.07.26,0,.52,0,.77-.01Z"/><path d="m71.78,9.95c-.81.02-1.67.03-1.75.1.74-.02,1.47-.05,1.75-.1Z"/><path d="m98.35,7.19c2.52.05,5.03.08,7.57.16.88.02,1.27,0,1.34-.02l.11-.09c-1.4-.04-1.86-.08-1.36-.12.24-.02.56-.04-.36-.07-.27,0-.7-.01-1.06-.02-.36,0-.65,0-.65,0,.17.14-3.54.05-4.98.1-.29,0-.42.03-.62.04Z"/><path d="m151.15,8.82c1.72.1,3.44.2,5.11.21-2.89-.13-.52-.13-2.55-.24l-3.25-.18c.41.08,2.14.21.69.21Z"/><path d="m64.27,6.43c-1.37-.07-3.15-.09-5.01-.1.06.04-.2.08.25.11.6.04-1.84.08.38.1,1.53.01,1.23-.04,1.07-.09-.08-.02-.08-.09.91-.02,1.83.14,1.45-.03,2.4,0Z"/><path d="m122.83,7.81l2.45.1c.32-.02,2.41.02.57-.08-1.95-.1-2.61-.07-3.01-.02Z"/><path d="m117,7.61c-.71,0-1.37.01-.93.04,1.31.09,2.81.07,4.25.12-.12-.09-2.01-.11-3.32-.16Z"/><path d="m73.12,6.78l3.23.04c-.18-.06-1.2-.1-2.49-.11-1,0-.67.04-.75.07Z"/><path d="m37.24,6.35c-.22,0-.46,0-.7,0l-.09.06c.99,0,2.19,0,2.63-.05l-1.84-.02Z"/><path d="m125.91,7.93c.34.08,1.49.09,2.65.11l-.08-.06c-.87-.02-1.72-.04-2.57-.05Z"/><path d="m110.26,7.19c-.18-.01-.34-.02-.51-.03l-.46.02c.21,0,.46.02.62.02.16,0,.24,0,.35-.01Z"/><path d="m66.78,6.45l-1.89-.02c.24.02.41.05.73.06.91.02.91-.02,1.16-.04Z"/><path d="m116.28,7.51l.79.08c1.23,0,.27-.05-.79-.08Z"/><path d="m128.48,7.99c.44.01,1.08.04,1.08.01,0,0-.32-.03-.48-.03-.74-.02-.53,0-.6.02Z"/><path d="m107.37,7.24l-.11.09c1.05,0,1.14-.03.11-.09Z"/><path d="m85.17,6.73s.14.02.26.02c-.02-.01-.14-.02-.26-.02Z"/><path d="m34.79,6.43l-.04.03,1.68-.04c-.54,0-1.09,0-1.64,0Z"/><path d="m113.81,7.47l-.18-.02c.07,0,.14.01.18.02Z"/><path d="m128.97,8.06l.23.04c.71,0,.56,0-.23-.04Z"/><path d="m93.69,8.77c.99-.1,2.52-.21,1.39-.25-.48-.02-1.07-.02-2.08.02-1.51.06-1.68.12-1.88.17.79.02,1.18.06.51.15-.31.04-.23.07.66.03,1.07-.04,1.23-.09,1.4-.13Z"/><path d="m24.45,11.88c2.18-.11,1.45-.15,1.64-.21-.81.03-1.94.11-2.06.04-.06-.03-.85-.04-1.56,0-.73.05-1.41.12-1.67.16-.43.08.99-.01,1.43-.02.86,0,1.49.01,2.22.02Z"/><path d="m66.25,9.8c-1.49-.1-4.23.08-6.83.23,1.91,0,4.06-.04,6.83-.23Z"/><path d="m68.27,9.7l-.84.05c-.14.02-.23.03-.43.05-1.56.11-2.6.21-.99.21.42,0,1.58-.03,1.38-.05-.47-.06,4.67-.32.87-.25Z"/><path d="m86.25,8.85l-2.35.09s-1.98.2.1.13c1.54-.05,2.62-.16,2.25-.22Z"/><path d="m75.15,9.4l-2.62.02c.06.04-1.34.14-.14.13.95-.01,1.98-.08,2.76-.15Z"/><path d="m29.45,11.48c.48,0,.76-.01,1.04-.02.3-.02.59-.04.89-.06-.25,0-.48,0-.76,0-.29.02-.62.04-1.17.08Z"/><path d="m70.77,9.5l-2.26.12c-.11,0-.21.02-.33.03l.11.03c1.01-.06,2.51-.11,2.48-.18Z"/><path d="m88.33,8.76c-.67,0-1.34,0-2.02.09l2.02-.09Z"/><path d="m34.36,11.09c.23,0,.35-.01.46-.02-.08,0-.17,0-.46.02Z"/><path d="m160.82,1.07c-.91.03-1.95.04-2.49.1-.4.11-3.15.1-4.24.19-.41.03-1.81-.04-2.41.05-.37.05.99.06,1.83.08.86.02,1.53,0,2.71-.06,1.49-.08,3.22-.15,4.56-.08.8.05,2.25-.03,3.09-.08,1.48-.07.28-.08-.58-.09-1.37-.02-2.72-.04-2.46-.13Z"/><path d="m129.92,2.18c.06-.03-.17-.06.58-.11.19-.05,2.19-.1,1.2-.14-.35-.01-1.14-.02-1.66,0-1.75.05-.58.09-.97.13-.21.03-.37.05-.69.08-.63.05-2.46.11-1.77.14.79.03,2.11-.08,3.31-.1Z"/><path d="m135.85,1.89c.17,0,.34,0,.5,0l.47-.04c-.21,0-.45,0-.62,0-.15,0-.23.02-.35.03Z"/><path d="m176.29.77l.81-.02c-.26,0-.54.01-.81.02Z"/><path d="m181.41,10.06c.16.03.21.06,1.31.1-.15-.03-.67-.07-1.31-.1Z"/><path d="m212.18.2h-1.67c-.02.06.36.12-.15.14-.9.04-1.71.07-1.41.12.15.02.64,0,.84,0,.72-.05,3.13-.06,2.49-.15-.21-.03-.08-.07-.1-.1Z"/><path d="m217.01.26c-.51-.03-.55-.08-1.72-.07-.16,0-.57.03-.53.04.23.05,1.36.03,2.24.03Z"/><path d="m235.78.59c-.27-.09-.5-.11-.74-.14,0,.01-.04.02.04.04.09.05.25-.01.77.2-.02-.04-.05-.07-.06-.1Z"/><path d="m203.25.47l-.19.06c.96-.01.82-.04.95-.07h-.76Z"/><path d="m207.23.31l.29.04c.79-.04-.02-.03-.29-.04Z"/><path d="m153.71,8.79c2.03.11-.33.11,2.55.24,1.05.05,1.79.06,2.34.06,1.16,0,2.59.02.43-.14-3.4-.25-3.56-.11-5.33-.16Z"/><path d="m167.4,9.33c-1.17-.05-3.05-.19-2.95-.11.03.03.5.1,1.83.15,1.29.05,3.18.1,3.25.08.15-.05-1.53-.08-2.14-.12Z"/><path d="m166.11,9.46c.92.07,1.48.13,2.15.17.84.04,2.34.11,2.4.07.03-.02-.52-.07-1.41-.12-.96-.04-1.9-.07-3.14-.12Z"/><path d="m177.32,9.84c.11.02.11.04.96.08.27.01.41,0,.61,0l-1.58-.09Z"/><path d="m162.88,9.21c.26,0,.1,0-.06-.01h.06Z"/><path d="m175.76,9.73l.37.02.37.02c-.25-.03-.49-.04-.74-.04Z"/><path d="m124.56,7.24c.17.05,1.02.03,2.2-.04,1.5-.09.91-.12,1.05-.17-1.47.06-1.52.17-3.25.21Z"/><path d="m105.77,8.3c-.04-.05.42-.14-1.58-.06.12.04-.27.1.68.1l.9-.04Z"/><path d="m124.54,7.24h-.18c.06,0,.13,0,.18,0Z"/><path d="m90.63,2.88l-1.48.03c.26.02-.5.09.69.06.68-.02.84-.06.79-.09Z"/><path d="m70.62,3.43c-1.34.04-2.71.07-2.7.15.99-.05,2.11-.09,2.7-.15Z"/><path d="m146.51,6.31c-1.65.1-3.36.24-3.8.11-.2-.06-2.3.07-3.51.1.66.05,1.19.11,2.02.15,1.77.08,5-.04,7.63-.3.33-.03.49-.07.89-.1,1.5-.11,1.59-.24.1-.2q-.62.01-.98.11c-.16.04-.12.09-1.25.14-.35.02-.74,0-1.1-.02Z"/><path d="m158.83,5.6l-.89.04c-1.56.21.88.19.81.31l2.45-.2c.23-.12-3.02,0-2.37-.15Z"/><path d="m154.73,6.2c.89-.05,1.81-.09,2.47-.16-.03,0,0-.01-.08-.01-1.1.02-.9-.11-2.25-.01-1.98.14.24.1-.14.18Z"/><path d="m150.38,6.32c-.24.02-.51.05-.49.05.07.02.25.02.39.04.11-.02.3-.04.3-.05,0-.02-.12-.03-.2-.04Z"/><path d="m138.57,6.96c.54-.01,1.09-.03,1.21-.07-.51.02-1.24.02-1.21.07Z"/><path d="m140.88,6.84l.34-.03c-.15.01-.29.02-.34.03Z"/><path d="m189.4.8l2.31-.04c.69-.14,4.56-.18,5.81-.3-.13-.04.2-.11-1.66-.07.79.05-.56.11-1.41.14-1.04.04-1.54,0-1.93-.03l-2.35.03c-4.41.21-4.49.24-.77.27Z"/><path d="m192.52.49c.39.03.89.07,1.93.03.85-.03,2.2-.09,1.41-.14-1.27.02-2.84.02-3.35.11Z"/><path d="m181.01.74c2.23.12,2.93-.07,4.38-.12-1.78-.03-3.1.04-4.38.12Z"/><path d="m176.27.77l.84-.02c-.28-.03-.56-.02-.84.02Z"/><path d="m189.64,3.92c-1.6.09-1.68.14-1.81.2.25.05-.59.09-1.49.12-.5.1-.14.16-2.45.31-.47.11,2.06-.06,2.42-.02,3.25-.29,3.5-.45,3.32-.6Z"/><path d="m163.62,5.42l-1.03.07c.58,0,.72-.04,1.03-.07Z"/><path d="m4.67,6.14c.39-.05.49-.09.6-.13-.82.05-1.64.11-2.46.16l-1.23.11c-.21.03-.4.04-.63.11-.01,0-.04.02-.06.03,0,0-.06.06-.05.1,0,.04.02.07.05.09.06.04.09.04.12.05.06.01.11.02.16.02l.31.02c1.48.05,1.52-.02,1.58-.05-.44-.01-.93-.02-1.37-.03-.22-.01-.43-.02-.62-.06-.04-.01-.1-.02-.11-.04.02-.02.07-.03.11-.04.08-.01.15-.02.22-.02,1.12-.16,2.26-.23,3.4-.31Z"/><path d="m1.47,6.71l-.31-.02c-.05,0-.1-.01-.16-.02-.03,0-.05,0-.12-.05-.03-.02-.05-.06-.05-.09,0-.04.05-.11.05-.1.02-.01.05-.03.06-.03.23-.07.42-.08.63-.11l1.23-.11,2.45-.16.06-.07-2.84.18c-.48.04-.94.07-1.43.15-.03,0-.06.01-.11.03-.02,0-.04,0-.08.03-.03.03,0-.02-.08.07-.06.1-.04.18,0,.24.05.07.1.09.1.09l.04.02s.04.01.06.02l.1.02c.13.02.25.02.37.03l.72.03-.7-.13Z"/><path d="m4.67,6.14c-1.13.09-2.27.16-3.4.31v.08c1.1-.14,2.23-.2,3.34-.28l.06-.11Z"/><path d="m20.16,6.44s-.12-.07-1.02-.07c-.41,0-.95.04-1.43.06.58.03,1.54.02,2.45.01Z"/><path d="m1.27,6.46c-.07,0-.14.01-.22.02-.04,0-.09.02-.11.04,0,.03.07.03.11.04.19.03.4.04.62.06.44.01.93.02,1.37.03-.25-.03-.63-.04-1.06-.06-.22-.01-.45-.02-.69-.03-.11,0-.26-.02-.33-.05.03,0,.2-.05.31-.06Z"/><path d="m10.36,6.76s.77-.04.04-.06c-.08,0-.31,0-.38,0-.47.03-.2.04.33.05Z"/><path d="m222.13,2.11c-1.37.12-2.62-.03-4.07.26-.22.16,2.75-.11,4.12-.17-.02-.03-.03-.06-.05-.1Z"/><path d="m205.08,3.26l.33-.03c-.1,0-.21.02-.33.03Z"/><path d="m222.18,2.2h.18c-.06,0-.13,0-.18,0Z"/><path d="m34.79,6.43h1.66s.09-.07.09-.07c-1.16,0-1.72.02-1.75.07Z"/><path d="m61.22,3.75c-4.16.06-4.65.19-4.65.32l.9.11c3.1,0,4.86-.2,7.26-.3.29-.13.08-.22-3.51-.13Z"/><path d="m21.8,5.37h-.35s.15.02.35,0Z"/><path d="m68.51,9.63h-.58s.26.03.26.03c.11,0,.22-.02.32-.03Z"/><path d="m29.73,5.09c-.28,0-.57,0-.86,0,0,0-.15.01-.23.02.36,0,.71-.02,1.09-.03Z"/><path d="m76.12,3.6h1.56c-.11-.05-.18-.1-1.56,0Z"/><path d="m5.26,6.01l-.32.12c.8-.05,1.7-.1,1.83-.15.14-.05-.64-.02-1.52.03Z"/><path d="m194.62,3.72c-.09.04-.12.08.68.06-.09-.03.27-.09-.68-.06Z"/><path d="m198.59,3.69h-.17c.06,0,.12,0,.17,0Z"/><path d="m192.15,3.99c.17.02.16.05.56.04.52-.01,1.02-.07.85-.08-.33-.02,1.32-.19-1.18-.05l-.23.09Z"/><path d="m192.15,3.99l.23-.09c-1.24.09-1.14.11-.23.09Z"/><path d="m228.97.24c-.11,0-.22-.02-.35-.03-.02,0-.29,0-.3,0-.04,0,.01.02.02.03h.64Z"/><path d="m121.7,2.19l-.33.02c.12,0,.24-.01.33-.02Z"/><path d="m28.49,11.7l-1.27.08h.32c.33-.02.67-.06.95-.08Z"/><path d="m234.93,1.31c.26-.04.51-.07.81-.17-.1.03-.17.02-.26.04-.18.05-.36.09-.55.13Z"/><path d="m235.48,1.18c-.36.07-.7.12-1.05.16.08.01.29,0,.51-.03.18-.04.36-.08.55-.13Z"/><path d="m186.35,4.23c.89-.03,1.73-.06,1.49-.12l-1.49.12Z"/>
                  </g>
                </mask>
              </defs>
              <path class="mask" d="m0,12.81c36.37-1.26,87.34-3.28,148.44-6.52C199.9,3.56,235.97,1.65,235.81.78,235.39-1.42.75,5.26.93,6.52c.1.7,72.64-2.04,177.76,3.45,17.65.92,32.79,1.9,44.56,2.72"
                    mask="url(#path-mask)" stroke="black" stroke-width="2" fill="none"
                    stroke-dasharray="693.7081909179688" stroke-dashoffset="693.7081909179688">
              </path>
            </svg>
        