
            <svg xmlns="http://www.w3.org/2000/svg">
              <defs>
                <mask id="path-mask">
                  <g fill="white">
                    <path d="m134.34,1.7c.53-.15.18-.45.28-.68l.38.1c.32.21.68.35.98.61.62.53,1.75.29,2.23-.35.34.05.54-.06.68-.25.45.17,1.1-.23,1.45.2.1.28.5.54.18.86-.23.21-.49.32-.87.14-.32-.15-.6-.12-.77.14h-.29c-.36.16-.87-.66-1.14.09-.11,0-.33-.03-.33-.03-.27.65-.95.37-1.54.31v-.17c.15-.08.11-.12-.07-.14-.03.01-.06.01-.09.01l-.02-.25c.1-.02.25.01.24-.1,0-.02-.07-.07-.11-.07-.17,0-.12.1-.14.16l-.58.13s-.09.01-.14.01c.07-.14.54-.27.12-.42-.45-.16-.59.08-.67.31-.08.24-.27.29-.57.14-.04-.35-.46-.22-.76-.26v-.11c.29-.19.07-.22-.17-.24-.33-.23-.35.12-.56.13l-.04-.05.05.04c-.01.2.11.46-.48.38-.37-.05-.68.03-.61.35l-.36.04-.33-.4c.2-.01.28-.09.3-.21.24-.12.25-.24.02-.37-.32-.02-.42-.12-.31-.32.05-.09.12-.21-.09-.23-.12-.01-.39.08-.38.12.05.52-.79.55-1.11.85-.07.06-.09.14-.14.21l-.05.15c-.75.03-1.53-.13-2.2.27-.17.1-.41-.02-.58-.09-.31-.13-.51-.07-.67.12l-1.44-.2-.03-.15c-.04-.22-.28-.32-.57-.29-.23.02-.15.19-.16.3-.8.09-1.6.19-2.43.24l.03.05c0,.06.06.14-.1.16-.04.09-.06.19-.26.18.07-.33-.33-.41-.66-.46-.7-.12-1.52-.3-2.13-.1-.42.14-.71.16-1.12.15-.25,0-.11.22-.13.35l-2.41.05v-.24c.16-.14.12-.28.04-.43-.14-.27.06-.4.49-.39l.38-.13c.23-.02.5.03.6-.18l-.42-.07c-.05-.12-.3-.24.01-.35.17.13.34.15.51,0h.6c.25.4.74.67,1.28.92.37-.27.92-.46.99-.87.53.05,1.05.13,1.58,0,.02.14-.04.31.06.4.14.13-.41.34.09.35.35,0,.28-.2.24-.36-.02-.07-.02-.33.21-.09.42.45.32-.18.68-.1.06.06.1.18.17.18.21.02.2-.11.26-.2.67.03,1.32-.19,2.04.01.37.11.57-.27.67-.51l3.3-.02c0,.08-.03.17,0,.24.11.2-.42.58.15.59.5,0,.06-.34.13-.53.02-.05.19-.08.29-.12.92-.29,1.93-.26,2.89-.26.28,0,.73-.33.96.06.26.36,1.94.8,2.47.65Zm-3.21-.47l-.1.12s.1.04.14.03c.04,0,.05-.05.08-.09l-.12-.06Zm-5.47.47s-.05-.01-.08-.02c0,.05.03.05.08.02Z"/><path d="m13.44,3.15c-1.23.13-2.45-.1-3.67-.13-.15-.67-.95-.3-1.46-.39-.1-.2-.08-.44-.63-.25-.33.12-.81.06-1.24.08-.34-.09.72-.82-.53-.48-.18-.02-.44.06-.46-.17-.01-.12-.19-.26-.35-.22-.17.04-.32.18-.38.3-.1.2.22.11.32.16.19.11.33.27.49.4-.1.16-.55.07-.53.32-.27-.36-1.24.12-1.23-.38,0-.25.4-.53.57-.83.18-.31.92-.37,1.51-.32.27.03.52.14.78.15.26.02.57.22.76.03.2-.2-.5-.12-.37-.36.41-.17.84-.24,1.31-.09.03.39.15.68.86.35.53-.25,1.18.3,1.7-.09h.2s.37.12.37.12c.62.42,1.28.5,2.02.14.43.32.91.48,1.54.26h.27s-.05.07-.1.09c-.36.14-.59.3-.23.57.09.07.36.15.31.03-.1-.28,1.06-.37.22-.76.23-.04.57.02.57-.25h.4c.01.16-.31.3-.04.43.21.1.45.04.63-.08h.25c.52.06.54.33.61.58.04.15.16.26.41.26.09,0,.24-.06.27-.11.08-.15-.12-.19-.27-.25-.57-.22.46-.47-.03-.69.13-.24.44-.22.74-.22v.17c0,.16-.45.39.02.48.35.07.59-.14.53-.41h.46s.63.25.63.25c.17.19.26.39.11.61-.07.1-.05.2.15.22.24.02.28-.1.32-.22l.34.12v.37c-.57-.04-1.22.11-1.6-.37-.14-.18-.36-.08-.4.1-.03.13.02.28-.23.36-1,.32-2.03.34-3.08.09-.64-.48-1.97-.46-2.78.04Zm-6.54-1.19c.07,0,.13-.05.2-.08-.06-.04-.11-.1-.17-.1-.07,0-.14.04-.27.08.11.05.17.1.23.1Z"/><path d="m73.73,2c.48-.1.7.13.95.33.12.1.04.39.43.28.31-.09.24-.29.18-.47-.06-.17-.09-.35-.13-.52l1.13-.06c0,.18-.13.43.39.4.39-.02.56.09.55.34-.04.14-.49.17-.27.38.08.07.26.15.38.14.39-.03.13-.25.22-.38.05-.07.08-.15.16-.21.14-.11.56-.18.4-.33-.18-.17-.48.1-.75.07v-.34c1.07-.09,2.11.01,3.14.21-.17.38-.27.81-1.16.5-.15-.05-.38-.03-.44.12-.06.16.12.2.32.23.07.19.13.39.17.6l-.29.1.24.16c-.7.24-1.35.18-1.97-.12-.16-.23-.48-.5-.8-.27-.61.44-1.73-.23-2.13.48-.6-.18-1.23-.05-1.84-.07.02-.42-.45-.48-.84-.36-.35.11-.56.07-.82-.04.09-.37.71-.11.96-.34.09-.09.41.28.55.01.08-.16-.22-.31-.41-.44-.19-.13-.35-.16-.61-.02-.34.17-.73.29-1.03-.09-.18-.23-.51-.06-.7.03-.33.15-.06.25.13.35.31.16.61.34.56.64l-.2.11c-.35-.47-1.01-.29-1.58-.34-.22-.02-.73.15-.58-.3.04-.11-.65.07-.67.19-.04.25-.23.23-.47.23h-.18c-.34.09-.75.27-.61-.21.17-.27.17-.26-.12-.35-.13-.04-.3-.1-.33-.18-.1-.26.42-.18.5-.36.52-.05,1.07-.32,1.52.13.11.12.45-.06.43-.09-.09-.17.63-.24.12-.43.02-.12.08-.14.29-.12.68.06,1.37.25,2.06.03.1.89.88.18,1.33.24.52,0,.91-.33,1.46-.25-.13.24-.52.59.4.4Zm2.17.39l-.11.11s.1.04.14.03c.03,0,.05-.05.08-.08l-.11-.06Z"/><path d="m152.09,2.39c.65-.21,1.46.13,2.06-.28.55.5,1.36.07,2,.21.18.04.25.02.38-.05.39-.2.46-1.21.02-1.33-.47-.12-.61-.31-.74-.59-.13-.29-.36-.58-.79-.09-.05.05-.23.11-.3.1-.76-.17-1.48.09-2.23.11-1.72.04-3.43.15-5.14.24v.27c.16,0,.27,0,.31.12.25-.06.56-.13.77-.13.51-.02,1.13-.29,1.54.09.25.22,2,.61,2.36.46.06-.03.12-.1.11-.14-.1-.37.24-.2.39-.12.18.09.3.24.46.35.09.06.37-.04.34.1-.01.09-.17.17-.39.21-.45.07-1.09,0-1.13.49Z"/><path d="m54.69,3.63c.45-.08.98-.02,1.28-.34-.13-.04-.29-.13-.38-.11-.35.09-.67.23-.93-.08-.21-.25.09-.39.3-.56.37-.3.66-.16.96.05.19.13.51.18.66.08.53-.35.76-.02,1.08.16.2.02.46-.03.51.16.01.04-.08.13-.12.13-.26-.01-.27-.18-.39-.29l-.57.62c.37.5.86.18,1.31.08-.01-.17.02-.32.35-.35,0-.12.02-.24-.02-.35-.14-.33.4-.28.56-.44.04-.04.16-.08.19,0,.07.18-.11.26-.32.36-.12.06-.03.28-.03.43.18-.17.69.1.75-.24-.07-.04-.25-.07-.07-.16l.07.16c.26.08.1.39.43.38.11,0,.21-.24.31-.38,0-.1.04-.19.19-.24l-.03-.11h-.17c-.29-.2-1.18-.41.04-.57.08-.01.12-.16.17-.24-.53,0-1.08.19-1.55-.18-.06-.04-.76.25-1.23.27-.13.15-.29.17-.57.19-.83.05-1.69-.27-2.49.09-.32-.37-.89.05-1.22-.16-.33-.2-.59-.26-1-.08-.56.25-.8.06-.81-.32l-.91.04c.04.24-.21.39-.39.56.42.31.85.62-.04.91-.11.04-.04.14.07.19.36-.24.88.1,1.18-.1.7-.47.56,0,.65.22h.19c.02-.14.12-.22.34-.22.03-.18.17-.24.39-.25l-.02-.2c.21.02.18.12.18.21.41.2,1.04.24,1.11.68Z"/><path d="m141.69,2.16c.24,0,.4-.09.53-.21.26-.25.57-.49.08-.77-.78-.44-.8.24-1.2.36l-.74-.2c-.35-.43-1-.04-1.45-.2l-.02-.31c.43.03.91-.33,1.24-.06.41.33.82.24,1.29.16,1.84-.31,3.7-.31,5.56-.21.04.15.04.29-.19.38h-.36s-.19-.12-.19-.12c-.06-.06-.11-.07-.17,0-1.17.09-1.33.23-.87.75.01.02.02.04.03.05,1.03-.35,1.33.7,2.34.48.42-.09.98-.13,1.11.32-.28.01-.58.38-.68.19-.18-.36-.47-.17-.75-.17-1.01,0-2-.03-3.03.05-1.47.12-3-.02-4.51.07-.3.02-.78.13-.81-.25.17-.26.46-.29.77-.14.38.18.64.08.87-.14.39.11.78.25,1.16-.04Zm1.83-.88c.01.13.12.36.42.29.29-.08.71-.26.73-.4.03-.29-.35,0-.49-.06-.26.04-.7-.21-.66.18Zm.89,1.07c.19,0,.53,0,.54-.23,0-.13-.12-.25-.33-.23-.22.01-.43.09-.71.15.21.14.34.3.5.31Zm-1.14-.84h-.11s.02.04.02.04c.08,0,.09-.02.1-.04Z"/><path d="m23.39,3.33c.46-.1.82-.06,1.33.06.75.18,1.69.06,2.54.03.43-.02.88.14,1.28-.06v-.35c-.08-.16-.32-.41-.04-.47.85-.17.75-.8,1.34-1.07-.31,0-.59.08-.84.2-.03,0-.06.01-.08.03-.03.16.1.37-.24.44-.27.06-.46-.01-.5-.21l-.04-.05.04.05c.39.12.41-.26.74-.23.02-.02.03-.04.03-.06-.37-.37-.83-.01-1.24-.07-.53.36-1.08.34-1.64.03-.17-.09-.27-.22-.46-.01-.29.33-.71.2-1.11.09-.58.25-.32.58-.18.89.04.08.15.2-.05.25-.17.04-.27-.04-.34-.14h-.2c.1.27-.44.39-.33.66Z"/><path d="m87.54,3.27c.37.2.74.36,1.24.19.62-.35,1.29-.41,2-.12.13-.16.38-.19.61-.26l.38.1c-.05-.11-.12-.32-.13-.32-.68.08-1.15-.36-1.81-.32-.48.03-.92.01-1.05-.37,0-.01-.05-.02-.08-.02l-.27.13c.08.43-.4.39-.77.35-1.22-.11-2.44.13-3.67-.09-.74-.13-.78-.02-.43-.48.11-.14.18-.29.26-.44-.71.09-1.53-.14-2.1.33.13.04.26.09.4.1.23.02.55-.24.65.02.04.11-.31.31-.54.43-.12.06-.35.04-.53.05-.15,0-.31,0-.39.11-.09.14.06.21.22.28.24.1.31.35.69.34.48.25,1.01.39,1.63.26.72-.37,1.56-.37,2.4-.35-.01-.1.02-.23.18-.22.27,0,.1.17.16.26.35-.35.72-.78.95.04Z"/><path d="m146.42,1.09l-.19-.12h-.08s-.08,0-.08,0c-1.17.09-1.33.23-.87.75.01.02.02.04.03.05,1.03-.35,1.33.7,2.34.48.42-.09.98-.13,1.11.32.3-.2.85-.1,1.07-.39-.3-.24-.02-.61.13-.6.45,0,.18.32.25.5.01.04,0,.08,0,.12.35.34.93-.06,1.32.15.23-.12.44-.12.63.04.05-.49.69-.41,1.14-.49.22-.04.37-.12.39-.21.02-.14-.25-.03-.34-.1-.16-.11-.27-.26-.46-.35-.15-.08-.49-.25-.39.12.01.04-.05.11-.11.14-.35.15-2.11-.23-2.36-.46-.41-.37-1.03-.1-1.54-.09-.21,0-.51.07-.77.13-.24.12-.26-.01-.3-.12v-.27s-.37,0-.37,0c.04.15.04.29-.19.38-.04.06-.07.16-.13.17-.19.03-.2-.09-.22-.17Z"/><path d="m31.5,1.56v.14c.16.27.27.56.46.82.39.56,1.12.63,1.72.16.07-.06.11-.15.2-.18.34-.11.37-.52.03-.68q-.14-.07-.22.2c-.04.12-.03.29-.29.29-.08,0-.16-.14-.25-.22-.48-.1-.45-.39-.56-.63.55-.15,1.12-.13,1.69-.03-.24.38.32.48.58.68l.29-.23.58-.11s.01.06,0,.1c-.36.43.19.81.17,1.22h-.35s0-.04-.02-.05c-.25-.13-.2-.54-.5-.47-.45.1.05.4-.04.61l-.21.27c-.85-.05-1.72.06-2.55-.15h-.36s-.01-.24-.01-.24l.08-.06-.1.05h-.23c-.12-.02-.28-.13-.28.07l-.37.12.05-.04.06.04c-.25-.27-.87-.24-1.05-.68-.08-.21-.88.18-1.31.35-.07.03-.12.08-.18.13-.09-.16-.33-.41-.04-.47.85-.17.75-.8,1.34-1.07.57-.15,1.12-.13,1.64.09Zm2.42,1.32c.02.07.06.13.09.2.02-.03.07-.07.07-.1,0-.05-.02-.11-.04-.18-.05.04-.12.07-.11.09Z"/><path d="m58.75,3.17c-.33.03-.36.18-.35.35l.31.04.24-.02c.59.08,1.16.2,1.79.04.26-.07.63-.08.93.05.34.14.97.15,1.08.11,1.14-.41,2.24-.2,3.34.01.4.08.65-.11.98-.11h5.05c.18,0,.37.05.47-.09.02-.42-.45-.48-.84-.36-.35.11-.56.07-.82-.04-.12.16-.36.12-.56.14l-.2.11c-.35-.47-1.01-.29-1.58-.34-.22-.02-.73.15-.58-.3.04-.11-.65.07-.67.19-.04.25-.23.23-.47.23-.06.11-.12.11-.19,0-.34.1-.75.27-.6-.21h-.28c-.29.18-.59.33-.99.11-.33.28-.66.65-1.08.05l-.53-.02c-.12.29-.47.19-.76.2-.42.02-.35-.19-.37-.35-.49.42-.97.29-1.46,0-.1.13-.2.37-.31.38-.33.01-.17-.3-.43-.38-.05.34-.56.07-.74.24h-.38Z"/><path d="m39.04,3.33c.26.22.54.34.93.12-.22-.2-.43-.41-.17-.64.21-.18.36.14.58.06.29.39.45.16.65-.04.22-.23.44-.28.58.04.52-.07.44-.37.54-.6-.08-.27-.5-.37-.7-.58-.35-.25-.81-.31-1.25-.2-.33.08-.62.09-.93.03-.32.14,0,.58-.55.59-.42,0-.34-.28-.41-.46l-.37.03c.03.17.07.35.07.52,0,.11-.17.16-.33.15-.14,0-.24-.07-.16-.15.12-.12.44-.23.1-.36-.09-.03-.39.19-.59.29-.06.04-.1.15-.23.04l.23-.04c-.14-.49-.6-.39-1.08-.26-.15.4.58.6.53.98.8-.22.79.1.72.46.32-.06.58.19.91.08-.04-.41.31-.77.86-.72.76.07-.25.36.01.56.04.03.04.07.06.11Z"/><path d="m107.62,2.9h.3s.58-.14.58-.14l.21-.02-.02-.1c-.13-.04-.19-.1-.08-.19.02-.01.07-.02.08-.01.17.07,0,.14,0,.2.3.02.53-.05.66-.24.44-.6,1.16-.12,1.14.02-.04.45.44.42.79.53.44-.16.87-.31,1.31-.47.19-.06.57-.02.46-.26-.09-.2-.5-.05-.6-.11-.32-.19-.81.39-.99-.1-.24-.03-.53-.02-.57-.25-.2,0-.42.03-.56-.11-.45-.03-.9-.05-1.35-.1-.88-.09-1.64.4-2.53.24v.28c.22-.01.45-.04.56.13-.01.16-.02.32-.35.33l.16.35h.78Z"/><path d="m50.66,3.29c-.11-.05-.19-.15-.07-.19.89-.29.45-.6.04-.91l-.34.03v.35s.05.05.05.05l-.04-.05c-.31-.12-.98.14-.93-.37-.51.04-.98-.41-1.55-.06-.08.05-.44-.09-.46-.29l-.54-.05c-.24.29-.92.4-.79.84,0,.02-.12.06-.18.09-.4-.7-.57.17-.89.05v.12c.92.65,1.15.05,1.48-.35l.07-.03-.08.03c.19.06.53.11.53.17.09.88.77.33,1.32.28.57-.05,1.23-.22,1.74.16.25.1.21.41.64.38v-.25Z"/><path d="m21.2,2.43l.34.12c.83.09.81.47.72.87.27.14.26-.09.4-.12-.24-.55.17-1.02.93-1.07-.17-.28-.18-.56.01-.84-.19-.29-.35-.09-.52,0,.11.06.14.16-.01.17-.2.02-.17-.12-.19-.21-.43-.4-1.09-.14-1.55-.13-.77.02-1.6-.19-2.33.12v.17s.53.06.53.06c.17-.21.32-.1.47,0l.63.25c.05-.16.09-.33.43-.3.23.02.36.13.47.26.25.3-.1.46-.33.64Z"/><path d="m111.46,2.03c.19.49.67-.09.99.1.1.06.51-.09.6.11.11.24-.27.19-.46.26-.44.16-.87.31-1.31.47l.16.21h.21c.59-.36,1.34-.16,2.01-.27.16-.14.12-.28.04-.43-.14-.27.06-.4.49-.39v-.12c.01-.17.14-.25.4-.23.05,0,.11,0,.16-.02-.05-.12-.3-.24.01-.35l-.02-.12c-1.05-.06-2.1-.18-3.16.02.17.27.49.55-.13.77Z"/><path d="m96.37,3.27c.22-.01.2.48.59.11.29-.28.57.11.85,0,.08-.47.47-.38.88-.21.35.14.64.07.9-.09.27-.17.39-.36.1-.57-.39-.02-.75-.18-1.16-.08-1.29.32-1.44.31-2.48-.05-.02,0-.07-.02-.08-.01-.53.45-1.34-.18-1.87.22.05.21.06.44.43.54.01-.15.1-.17.35-.15.53.05,1.02.14,1.5.29Z"/><path d="m111.46,2.03c.62-.22.3-.5.13-.77-.41-.13-.69-.37-1.27,0-.42.26-1.27,0-1.94.04-.91.05-1.86.16-2.79,0-.4-.07-.67-.04-.62.29.05.33.37.31.74.25l.76-.03c.89.16,1.65-.33,2.53-.24.44.05.9.07,1.35.1.11-.06.23-.17.32-.16.2.02.23.16.23.28.04.23.33.22.57.25Z"/><path d="m46.42,2.55c-.33.4-.55,1-1.48.35l-.74.15c-.2.09-.4.17-.35.36.35.31.8.08,1.18.08,1.46-.02,2.91.14,4.38-.04.39-.05.45-.16.6-.3-.5-.38-1.16-.22-1.74-.16-.55.05-1.23.6-1.32-.28,0-.06-.35-.11-.53-.17Z"/><path d="m83.8,1.61c-.09.15-.16.3-.26.44-.35.46-.31.35.43.48,1.23.22,2.46-.02,3.67.09.37.03.86.08.77-.35-.69-.45-1.45-.38-2.27-.15-.53.15-.94.06-.84-.41-.54.2-.99-.14-1.5-.1Z"/><path d="m94.1,2.6c.54-.4,1.35.23,1.87-.22,0,0,.06,0,.08.01,1.04.36,1.19.37,2.48.05.42-.1.77.06,1.16.08-.17-.39-.35-.77-.99-.96l-.47.25c-.17.25-.44.23-.81.19-.46-.05-1.01,0-1.41-.03-.8-.05-1.51.36-2.27.11l.21.5c.05,0,.1,0,.15.01Z"/><path d="m103.45,1.82c-.24.38-.43.73.54.77.31.01.12.17.09.27-.47.24-.99.1-1.33-.05-.86-.39-1.05-.05-1.23.39l-.18.03c-.57-.21-1.49-.31-.62-.94.16-.11.15-.32.22-.49.49-.01.97-.04,1.46-.03.31,0,.55-.01.58-.26l.54.03c-.02.1-.01.2-.06.29Zm-1.54.36s-.05-.01-.1.03c.03,0,.05,0,.1-.03Z"/><path d="m4.99,2.76c-.27-.36-1.24.12-1.23-.38,0-.25.4-.53.57-.83.18-.31.92-.37,1.51-.32.27.03.52.14.78.15.26.02.57.22.76.03.2-.2-.5-.12-.37-.36-.86-.42-1.95.04-2.85-.35-.28-.12-.23.23-.45.27-.22.14.77.34-.05.45-.28.37-1,.57-.9,1.08.17.03.39.04.5.11.27.18.25.8.96.24,0,0,.25.15.4.18.45.11.88.07,1.27-.12-.12-.48-.63,0-.89-.16Z"/><path d="m2.6,1.08c-.23-.02-.39-.09-.5-.23-.29-.34-.84-.56-1.28-.35C.43.69.07,1.02.02,1.42c-.09.73.39.97,1.48.85.27-.03.59.15.89.24.34-.29.21-.59-.14-.8-.36-.21-.69-.06-.95.18-.1.09-.53.23-.49-.04.04-.24-.21-.46-.05-.69.1-.14.15-.32.45-.34.31-.02.44.14.47.3.03.18.08.32.42.31.33-.01.5-.12.5-.34Z"/><path d="m93.74,2.08c.77.25,1.47-.17,2.27-.11.4.03.95-.01,1.41.03.38.04.64.06.81-.19-.65-.6-1.61-.25-2.4-.27-1.19-.03-2.39.25-3.55-.12l-.09.16c.17.18.78.39-.14.48-.3.03-.47.23.05.3.54-.1.94-.6,1.64-.27Z"/><path d="m51.93,1.59c.01.38.25.57.81.32.41-.18.67-.12,1,.08.34.21.91-.21,1.22.16.79-.36,1.66-.04,2.49-.09.28-.02.44-.04.57-.19-.76-.33-1.59-.35-2.47-.29-.57.04-1.14.06-1.76-.08-.54-.12-1.23.05-1.86.09Z"/><path d="m16.03,1.43h.4s.59.34.59.34h.25s.82-.23.82-.23c-.47-.61-1.44-.43-2.13-.46-1.37-.06-2.76.08-4.15.14l-.37.12c.62.42,1.28.5,2.02.14.59-.11,1.21-.32,1.54.26h.27s.19-.03.19-.03c0-.09,0-.13-.02-.17l-.06-.09.13.04.51-.08Z"/><path d="m118.14,1.41c.53.05,1.05.13,1.58,0,.42-.02.82,0,1.14.21.28,0,.42-.01.57-.02.67.03,1.32-.19,2.04.01.37.11.57-.27.67-.51-2.03-.09-4.05-.09-6.08.1l.08.21Z"/><path d="m104.08,2.85c-.47.24-.99.1-1.33-.05-.86-.39-1.05-.05-1.23.39,1.41.11,2.83.32,4.23-.05.34-.09.56.17.83.13.38-.06.97.09,1.04-.36h-.78s-1.28-.09-1.28-.09l-1.47.04Z"/><path d="m132.08,2.01c-.01.2.11.46-.48.38-.37-.05-.68.03-.61.35,1.52.22,3.03.44,4.6.11v-.17s-.07-.14-.07-.14c-.03.01-.06.01-.09.01-.26.08-.52.16-.6-.12-.05.01-.09.01-.14.01l-.56-.1c-.08.24-.27.29-.57.14-.33-.03-.66.26-.96.03-.1-.08.05-.21.2-.28v-.11s-.17-.24-.17-.24c-.33-.23-.35.12-.55.13Z"/><path d="m101.34,3.22c-.57-.21-1.49-.31-.62-.94.16-.11.15-.32.22-.49-.27-.03-.18-.17-.2-.27l-.36.04c.11.26-.35.37-.36.6l.24.05s-.05.04-.05.04l-.2-.09c-.32-.16-.13-.39-.2-.59-.37-.29-.74-.33-1.12,0,.64.18.82.56.99.96.29.21.17.4-.1.57-.26.16-.55.24-.9.09-.41-.17-.81-.26-.88.21.93.06,1.87-.15,2.79.05.36.08.55-.06.74-.22Z"/><path d="m92.1,2.35c-.52-.07-.35-.27-.05-.3.92-.09.31-.29.14-.48-.16.23-.44.06-.66.1.03.15-.14.37-.28.31-.67-.3-1.14.18-1.73.15-.31.19-.33.03-.35-.12-.32-.19-.39-.02-.49.14.03,0,.08.01.08.02.13.38.57.4,1.05.37.66-.04,1.12.39,1.81.32.02,0,.09.21.13.32l.72.22.38.13.04-.34c-.81-.06-.86-.42-.8-.84Z"/><path d="m82.21,3.28c-.38.01-.44-.24-.69-.34-.16-.07-.31-.14-.22-.28.07-.11.24-.1.39-.11.18-.01.41.01.53-.05.23-.12.58-.32.54-.43-.1-.26-.43,0-.65-.02-.14-.01-.27-.07-.4-.1-.18-.19-.33,0-.5.01-.28.1-.57.24-.49.44.32.79-.54.79-1.3.87.09.17.49.09.53.31.63-.13,1.23.1,1.87.06.46-.03.36-.2.41-.35Z"/><path d="m89.52,2.13c.58.04,1.06-.45,1.73-.15.14.06.3-.15.28-.31-1.17-.03-2.33,0-3.5.08-.59.04-1.2-.03-1.78-.11-.35-.05-.64,0-.94.06-.1.47.31.56.84.41.83-.23,1.58-.3,2.27.15l.27-.13c.09-.15.17-.33.48-.13l.35.12Z"/><path d="m104.08,2.85l1.47-.04v-.25c-.19,0-.37-.04-.34-.19.03-.15.23-.15.41-.16.07-.12.07-.25.07-.38-.36.06-.69.08-.74-.25-.47-.13-.95-.13-1.45-.05-.02.1-.01.2-.06.29-.24.38-.43.73.54.77.31.01.12.17.09.27Z"/><path d="m44.2,3.05l.74-.15v-.12s-.04-.05-.04-.05l.04.05c.32.12.49-.76.89-.05.06-.03.19-.07.18-.09-.13-.44.56-.55.79-.84-.04-.14-.2-.12-.35-.12-.19.19-.5.13-.78.15-.2-.08-.33.42-.44.08-.11-.36-.45-.13-.64-.22-.32.24-.47.1-.58-.12-.19-.05-.42-.29-.54.04l-.08.19c.22.08.34.28.65.28.22.08.13.22.15.34.98.22-.13.43,0,.64Z"/><path d="m135.01,1.12c.32.21.68.35.98.61.62.53,1.75.29,2.23-.35-.45.01-.96.05-.65-.43-.87-.08-1.74-.16-2.56.17Z"/><path d="m44.2,2.41c.98.22-.13.43,0,.64-.2.09-.4.17-.35.36-.56.03-1.16.37-1.66-.09-.02-.02-.03-.05-.02-.08.74-.37.8-.9.77-1.45h.47c.22.08.34.28.65.27-.02.13-.03.25.15.34Zm-.59.39c.12.06.23-.05.19-.11-.07-.14.3-.4-.26-.4-.28.06-.26.15-.06.25.04.09.03.21.12.26Z"/><path d="m57.09,3.45c-.17,0-.31-.24-.51-.04-.43.44-.47.05-.61-.12-.13-.04-.29-.13-.38-.11-.35.09-.67.23-.93-.08-.21-.25.09-.39.3-.56.37-.3.66-.16.96.05.19.13.51.18.66.08.53-.35.76-.02,1.08.16l-.57.62Zm-2.06-.47s.07-.02.07-.03c0-.03,0-.06,0-.09l-.14.05s.05.05.08.07Z"/><path d="m128.53,2.58c-.75.03-1.53-.13-2.2.27-.17.1-.41-.02-.58-.09-.31-.13-.51-.07-.67.12.64.39,1.4.23,2.11.15.92-.11,1.8.33,2.73.04.13-.04.3-.04.36-.16-.19-.27-.52-.34-.89-.17-.44.21-.66.06-.87-.16Z"/><path d="m2.6,1.08c0,.22-.17.33-.5.34-.34.01-.38-.13-.42-.31-.03-.17-.16-.32-.47-.3-.3.01-.35.2-.45.34-.16.23.08.45.05.69-.04.28.39.13.49.04.26-.24.6-.38.95-.18.35.2.47.51.14.8.12.08.24.13.37,0-.1-.5.62-.71.9-1.08-.19-.11-.37-.22-.38-.41l-.69.05Z"/><path d="m60.61,2.95c.48.29.97.42,1.46,0,.28-.36,1.16-.27,1.32-.73l-.07-.4c-.32-.13-.61-.1-.87.07-.04.07.08.18-.12.22l-.06-.22c-.05-.02-.11-.03-.17-.02-.75.07-.6.73-1.29.84-.16.05-.2.14-.19.24Z"/><path d="m111.44,3.17l-.16-.21c-.35-.11-.83-.09-.79-.53.01-.14-.71-.62-1.14-.02-.14.19-.36.26-.66.24.01.03.02.06.03.1v.37c.9.14,1.79.39,2.73.06Z"/><path d="m120.11,3.16c.07-.33-.33-.41-.66-.46-.7-.12-1.52-.3-2.13-.1-.42.14-.71.16-1.12.15-.25,0-.11.22-.13.35.88.08,1.74.24,2.67.02.4-.09.91.02,1.37.04Z"/><path d="m50.28,2.21l.34-.03c.18-.17.43-.32.39-.56-.92-.18-1.91.12-2.84-.23-.38-.14-.49.33-.83.45.02.2.38.34.46.29.57-.35,1.04.1,1.55.06.34-.71.61.11.92.02Z"/><path d="m65.8,2.97h.28c.17-.26.17-.25-.13-.34-.13-.04-.3-.1-.33-.18-.1-.26.42-.18.5-.36l-.39-.24-.61-.08-1.23.45c.84.37.82.46-.18.92.43.6.75.23,1.08-.05.33-.05.49-.7.99-.12Z"/><path d="m79.41,3.26c.77-.08,1.63-.08,1.3-.87-.08-.2.21-.34.49-.44-.09-.41-.48-.07-.71-.12-.17.38-.27.81-1.16.5-.15-.05-.38-.03-.44.12-.06.16.12.2.31.22l.08-.02-.07.03.2.58Z"/><path d="m42.18,3.33s-.03-.05-.02-.08c-.08-.19-.65-.08-.54-.38-.15-.32-.36-.27-.58-.04-.19.2-.36.43-.65.04-.22.07-.38-.25-.58-.06-.26.23-.05.44.17.64.75.04,1.54.4,2.21-.12Z"/><path d="m31.09,3.21c-.25-.27-.87-.24-1.05-.68-.08-.21-.88.18-1.31.35-.07.03-.12.08-.18.13v.35c.65.27,1.27-.18,1.93-.03l.48-.05c.06,0,.1-.03.12-.07Z"/><path d="m131.87,1.05c.26.36,1.94.8,2.47.65.53-.15.18-.45.28-.68-.33.06-.67.21-.99-.02-.07-.05-.31-.09-.32-.07-.42.43-.97.05-1.44.12Z"/><path d="m4.99,2.76c.25.16.77-.31.89.16.26.21.52.09.78.01.44-.33,1.13-.14,1.64-.31-.1-.2-.08-.44-.63-.25-.33.12-.81.06-1.22.09l-.23.15-.07-.07.29-.09c-.34-.09.72-.82-.53-.48-.05.19.11.44-.38.47-.1.16-.55.07-.53.32Z"/><path d="m120.48,2.83c0,.06.06.14-.1.16,1.12.06,2.31.47,3.26-.3l-.03-.15h-.73c-.8.11-1.6.21-2.4.3Z"/><path d="m8.31,2.63c-.51.17-1.2-.02-1.64.31.05.38.46.08.67.12.8.14,1.62.05,2.43-.04-.15-.67-.95-.3-1.46-.39Z"/><path d="m21.54,2.93c-.58-.04-1.23.11-1.61-.37-.14-.18-.36-.08-.4.1-.03.13.02.28-.23.36-.08.38.4.27.66.3.58.05,1.16.04,1.74.06-.05-.15.1-.33-.17-.45Z"/><path d="m24.5,1.66c.4.11.82.24,1.11-.09.19-.21.3-.08.46.01.56.31,1.11.34,1.64-.03-.52-.34-1.17-.29-1.8-.26-.47.02-.93.07-1.4.1v.26Z"/><path d="m73.33,1.59c-.13.24-.52.59.4.4.48-.1.7.13.95.33.12.1.04.39.43.28.31-.09.24-.29.18-.47-.06-.17-.09-.35-.13-.52l-1.82-.03Z"/><path d="m37.2,3.3c.06-.35.07-.67-.72-.46l-.56.23h-.35c-.15.13-.36.11-.56.1l-.21.27c-.02.24.23.18.42.15l1.98-.29Z"/><path d="m65.74,1.85l.39.24c.52-.05,1.07-.32,1.52.13.11.12.45-.06.43-.09-.09-.17.63-.24.12-.43-.81.08-1.7-.36-2.45.15Z"/><path d="m37.03,2.13c.2-.1.5-.32.59-.29.34.13.02.24-.1.36-.08.08.02.15.16.15.16,0,.33-.04.33-.15,0-.17-.04-.35-.07-.52-.66-.34-1.42-.27-2.17-.22l-.03.3s.01.06,0,.1h.2c.48-.12.95-.21,1.08.27Z"/><path d="m60.8,2.71c.69-.11.54-.77,1.29-.84-.39-.3-.78-.56-1.28-.09-.06.08-.09.23-.17.24-1.22.16-.32.37-.04.56.03-.08,0-.2.22-.19l-.04.2.03.11Z"/><path d="m77.37,3.42c-.16-.23-.48-.5-.8-.27-.61.44-1.73-.23-2.13.48,1,.05,1.97-.02,2.93-.21Z"/><path d="m92.48,3.39l-.72-.22-.38-.1c0,.29-.31.27-.61.26-.71-.28-1.37-.23-2,.12.06.13.25.25.38.21,1.07-.31,2.28.16,3.31-.28Z"/><path d="m8.32.98c.03.39.15.68.86.35.53-.25,1.18.3,1.7-.09-.76-.54-1.69-.25-2.56-.26Z"/><path d="m115.87,1.36c.25.41.74.68,1.28.92-.11-.41.16-.74.52-1.06-.38-.21-.71-.02-1.05.06-.18.33-.48.11-.75.08Z"/><path d="m16.23,3.11c-.64-.48-1.97-.46-2.78.04.79.23,1.59.04,2.39.05.02-.24.22-.15.4-.09Z"/><path d="m53.42,2.94c-.21.01-.36.07-.36.23l.24.08.05.13-.17-.04-.14-.15c-.22,0-.33.08-.34.22.67.05,1.26.45,2,.23-.06-.43-.69-.48-1.11-.68h-.16Z"/><path d="m86.25,3.19c-.84-.02-1.68-.02-2.4.35.29.21.55.3.97.08.53-.27,1.2-.02,1.79-.12l-.04-.27c-.11-.01-.22-.03-.33-.04Z"/><path d="m23.58,2.23c-.76.05-1.17.53-.93,1.07l.74.02c-.11-.27.44-.39.33-.65-.21-.13-.12-.29-.14-.44Z"/><path d="m63.9,2.22l1.23-.45c-.62-.2-1.24-.35-1.82.05l.07.4h.52Z"/><path d="m42.93,1.81h.47s.08-.2.08-.2c-.69-.08-1.39-.28-2.03.08.2.21.63.3.7.58.13-.05.25-.09.36-.12.03-.17.05-.34.41-.34Z"/><path d="m24.5,1.66v-.26s-.91-.01-.91-.01c-.19.28-.18.56-.01.84.45.03.34.25.35.43.07.09.17.18.34.14.2-.05.08-.17.05-.25-.14-.32-.4-.64.18-.89Z"/><path d="m50.66,3.29v.25c.61.02,1.3.39,1.83-.13-.09-.22.05-.69-.65-.22-.3.21-.83-.14-1.18.1Z"/><path d="m92.9,3.19l-.04.34c.71.23,1.36-.01,2.01-.15l-.35-.24c-.37-.11-.37-.33-.43-.54-.05,0-.1-.01-.15-.01,0,.46-.1.84-1.05.6Z"/><path d="m100.94,1.79c.49-.01.97-.04,1.46-.03.31,0,.55-.01.58-.26-.65-.3-1.37,0-2.04-.08,0,.12,0,.24,0,.36Z"/><path d="m94.53,3.14l.35.24c.53.15,1.07.43,1.5-.1-.47-.15-.97-.24-1.5-.29-.25-.02-.34,0-.35.15Z"/><path d="m39.04,3.33s-.03-.08-.06-.11c-.26-.2.75-.49-.01-.56-.55-.05-.91.31-.86.72.32.06.66.27.94-.05Z"/><path d="m128.53,2.58c.21.22.42.37.87.16.37-.17.69-.1.89.17.13-.03.3-.01.34-.13l-.33-.4c-.58-.1-1.14.04-1.71.05l-.05.15Z"/><path d="m137.57.95c-.31.48.2.44.65.43.34.05.54-.06.68-.25l-.02-.31c-.43.09-.86.18-1.31.13Z"/><path d="m113.66,2.91c-.66.11-1.42-.09-2.01.27.67.29,1.34-.04,2.01-.03v-.24Z"/><path d="m70.54,1.61c.1.89.88.18,1.33.24-.03-.17.1-.43-.45-.31-.27.06-.59.05-.88.07Z"/><path d="m38.31,1.65c.06.18,0,.46.41.46.56,0,.23-.44.55-.59-.44-.34-.64.08-.96.13Z"/><path d="m18.09,1.55l-.82.24c.52.05.54.31.61.57.04.15.16.26.41.26.09,0,.24-.06.27-.11.08-.15-.12-.19-.27-.25-.57-.22.46-.47-.03-.69-.05-.02-.11-.02-.16-.02Z"/><path d="m138.59,2.48c-.36.16-.87-.66-1.14.09q.17.44,1.14-.09Z"/><path d="m33.16,2.09c-.48-.1-.45-.39-.56-.63-.38-.02-.79-.2-1.1.1v.14c.28.06.76-.05.8.19.09.53.48.31.86.2Z"/><path d="m34.29,1.43c-.24.38.32.48.58.68l.29-.23.23-.49c-.38-.07-.71.22-1.1.05Z"/><path d="m77.35,1.97v-.34c-.35-.1-.69-.19-1.07-.07,0,.18-.13.43.39.4.39-.02.56.09.55.34.17-.09.12-.21.13-.32Z"/><path d="m117.67,1.22c-.36.32-.63.65-.52,1.06.37-.27.92-.46.99-.87l-.08-.21-.4.03Z"/><path d="m21.54,2.93c.27.12.12.3.17.45l.55.05c.09-.41.11-.78-.72-.87v.37Z"/><path d="m86.58,3.23l.04.27c.36.01.66-.07.92-.23-.23-.82-.6-.39-.96-.04Z"/><path d="m127.44,1.08c0,.08-.03.17,0,.24.11.2-.42.58.15.59.5,0,.06-.34.13-.53.02-.05.19-.08.29-.12-.13-.15-.24-.31-.58-.17Z"/><path d="m115.87,1.36c.26.03.57.25.75-.08l-.4-.06c-.15.01-.28,0-.35-.1l-.74.12.16.13h.6Z"/><path d="m150.13,2.2s.01-.08,0-.12c-.07-.18.2-.49-.25-.5-.15,0-.43.37-.13.6l.39.02Z"/><path d="m100.02,2.15c0-.23.47-.34.36-.6l-.56.02c.07.2-.12.43.2.58Z"/><path d="m3.28,1.03c0,.18.18.3.38.41.82-.1-.17-.31.05-.45-.03-.03-.08-.05-.14-.03h-.24c-.05.02-.07.04-.04.07Z"/><path d="m31.35,3.09l-.37.12c.16.27.61.19.88.31l.02-.24v-.24c-.11-.01-.19-.01-.26-.01-.03.14-.15.1-.28.06Z"/><path d="m79.94,3.57c-.03-.22-.43-.14-.55-.29l-.29.1.24.16c.19.07.4.09.61.03Z"/><path d="m44.02,1.57c.11.22.25.36.58.12-.15-.12-.21-.44-.58-.12Z"/><path d="m108.49,2.77l-.58.13c-.02.32.3.24.58.2v-.34Z"/><path d="m45.68,1.83c.28-.01.58.05.78-.15-.39-.25-.61-.1-.78.15Z"/><path d="m152.08,2.39c-.19-.15-.4-.16-.63-.04.2.05.33.51.63.04Z"/><path d="m115.27,1.37l-.16-.13h-.37s.02.13.02.13c.17.13.34.15.51,0Z"/><path d="m28.95,1.63s0,.04-.03.06c.03-.02.05-.03.09-.03l.05-.26-.11.23Z"/><path d="m115.86,1.12c.07.1.2.12.35.1,0-.2-.12-.23-.35-.1Z"/><path d="m22.88,1.36c.02.09-.02.22.19.21.15-.01.12-.11.01-.17l-.2-.04Z"/><path d="m31.89,3.29l-.02.24c.19-.04.32-.11.38-.24h-.36Z"/><path d="m30.97,3.28l-.48.05c.2.16.36.15.48-.05Z"/><path d="m100.93,1.78v-.36c-.12-.02-.18.01-.19.09.02.1-.07.24.19.26Z"/><path d="m62.27,1.89l.06.22c.19-.04.07-.15.12-.22-.06-.02-.12-.02-.17,0Z"/><path d="m16.23,3.11c-.18-.06-.38-.15-.4.09.17.04.33.07.4-.09Z"/><path d="m128.58,2.43c.57,0,1.14-.15,1.71-.05.2-.01.28-.09.3-.21l.02-.37c-.32-.02-.42-.12-.31-.32.05-.09.12-.21-.09-.23-.12-.01-.39.08-.38.12.05.52-.79.55-1.11.85-.07.06-.09.14-.14.21Z"/><path d="m140.53,2.2c.39.11.78.25,1.16-.04-.65-.02-.13-.52-.59-.62l-.74-.2c.1.28.5.54.18.86Z"/><path d="m120.86,1.62c-.31-.21-.72-.23-1.14-.21.02.14-.04.31.06.4.14.13-.41.34.09.35.35,0,.28-.2.24-.36-.02-.07-.02-.33.21-.09.42.45.32-.18.54-.1Z"/><path d="m134.12,2.34l.56.1c.07-.14.54-.27.12-.42-.45-.16-.59.08-.67.31Z"/><path d="m132.8,2.22c-.16.07-.3.21-.2.28.3.24.63-.06.96-.03-.04-.35-.46-.22-.76-.26Z"/><path d="m122.88,2.54h.73c-.04-.23-.28-.33-.57-.3-.23.02-.15.19-.16.3Z"/><path d="m114.75,1.72c-.05.01-.1.02-.16.02l-.02.22c.22-.02.5.03.59-.18l-.42-.07Z"/><path d="m134.82,2.43c.08.28.34.2.6.12l-.02-.25c-.19.04-.39.09-.58.13Z"/><path d="m131.25,1.29l-.12-.06-.1.12s.1.04.14.03c.04,0,.05-.05.08-.09Z"/><path d="m121.43,1.6h-.43c.06.08.1.19.17.2.21.02.2-.11.26-.2Z"/><path d="m132.63,1.88l.18.24c.27-.19.06-.22-.18-.24Z"/><path d="m135.4,2.3c.1-.02.25.01.24-.1,0-.02-.07-.07-.11-.07-.17,0-.12.1-.13.17Z"/><path d="m130.61,1.8l-.02.37c.24-.12.25-.24.02-.37Z"/><path d="m125.59,1.69c0,.05.03.05.06.06,0-.05-.03-.05-.06-.06Z"/><path d="m114.2,1.96v.12s.37-.13.37-.13c-.12,0-.25,0-.37,0Z"/><path d="m132.07,2.01l-.04-.05s.03.03.04.05Z"/><path d="m135.51,2.54l.06.14c.16-.08.12-.12-.06-.14Z"/><path d="m21.2,2.43c.23-.19.58-.35.33-.64-.11-.13-.24-.24-.47-.26-.34-.03-.38.14-.43.3.17.19.26.39.11.61-.07.1-.05.2.15.22.24.02.28-.1.32-.22Z"/><path d="m5.52,2.45c.49-.03.33-.29.38-.47-.18-.02-.44.06-.46-.17-.01-.12-.19-.26-.35-.22-.17.04-.32.18-.38.3-.1.2.22.11.32.16.19.11.33.27.49.4Z"/><path d="m15,1.75c-.33-.58-.95-.37-1.54-.26.43.32.91.48,1.54.26Z"/><path d="m15.45,1.72l-.19.03s-.05.08-.1.1c-.36.14-.59.3-.23.57.09.07.36.15.31.03-.1-.28,1.06-.37.21-.72Z"/><path d="m19.53,1.58l-.53-.06c0,.16-.45.39.02.48.35.07.59-.14.52-.41Z"/><path d="m17.01,1.77l-.59-.33c.01.14-.31.28-.04.41.21.1.45.04.63-.08Z"/><path d="m6.67,1.86c.11.05.17.1.23.1.07,0,.13-.05.2-.08-.06-.04-.11-.1-.17-.1-.07,0-.14.04-.27.08Z"/><path d="m16.03,1.43l-.51.08-.07.05.02.12c.23-.04.57.02.57-.25Z"/><path d="m20,1.58c-.15-.1-.3-.22-.46,0h.46Z"/><path d="m7.79,1.28c.05.03.08.01.1,0-.02-.01-.04-.02-.1,0Z"/><path d="m70.37,3.3c.21-.02.44.01.56-.14.09-.37.71-.11.96-.34.09-.09.41.28.55.01.08-.16-.22-.31-.41-.44-.19-.13-.35-.16-.61-.02-.34.17-.73.29-1.03-.09-.18-.23-.51-.06-.7.03-.33.15-.06.25.13.35.31.16.61.34.56.64Z"/><path d="m77.35,1.97c-.01.11.04.24-.13.32-.04.14-.49.17-.27.38.08.07.26.15.38.14.39-.03.13-.25.22-.38.05-.07.08-.15.16-.21.14-.11.56-.18.4-.33-.18-.17-.48.1-.75.07Z"/><path d="m76.01,2.44l-.11-.06-.11.11s.1.04.14.03c.03,0,.05-.05.08-.08Z"/><path d="m66.87,3.19h-.18s.18,0,.18,0Z"/><path d="m147.35.98c.04.1.05.23.3.12-.04-.11-.15-.12-.3-.12Z"/><path d="m58.75,3.17h.38c0-.14-.08-.36.03-.42.2-.11.39-.18.32-.36-.03-.09-.15-.05-.19,0-.16.16-.71.11-.56.44.05.11.02.23.02.35Z"/><path d="m57.66,2.82c.12.11.12.28.39.29.04,0,.13-.09.12-.13-.05-.19-.31-.15-.51-.17Z"/><path d="m53.42,2.94h.16c0-.08.03-.18-.18-.2l.02.2Z"/><path d="m60.77,2.6l.04-.2c-.22,0-.19.1-.22.19h.17Z"/><path d="m59.87,2.95l-.07-.16c-.18.09,0,.11.07.16Z"/><path d="m141.09,1.54c.46.1-.06.6.59.62.24,0,.4-.09.53-.21.26-.25.57-.49.08-.77-.78-.44-.8.24-1.2.36Z"/><path d="m144.18,1.1c-.26.04-.7-.21-.66.18.01.13.12.36.42.29.29-.08.71-.26.73-.4.03-.29-.35,0-.49-.06Z"/><path d="m143.91,2.05c.21.14.34.3.5.31.19,0,.53,0,.54-.23,0-.13-.12-.25-.33-.23-.22.01-.43.09-.71.15Z"/><path d="m146.42,1.09c.03.09.03.2.22.17.06,0,.09-.11.13-.17h-.36Z"/><path d="m143.17,1.55c.06-.04.02-.05-.02-.05l.02.05Z"/><path d="m146.07.98h.08s.08,0,.08,0c-.06-.06-.11-.07-.17,0Z"/><path d="m28.19,1.93c.04.2.23.27.5.21.34-.07.21-.28.24-.44-.33-.03-.35.35-.74.23Z"/><path d="m23.93,2.67c0-.18.1-.4-.35-.44.03.15-.07.32.15.44h.2Z"/><path d="m28.19,1.93l-.04-.05s.03.03.04.05Z"/><path d="m86.25,3.19l.34.04c-.06-.09.11-.26-.16-.26-.15,0-.19.12-.18.22Z"/><path d="m90.77,3.33c.3.01.61.04.61-.26-.22.06-.48.1-.61.26Z"/><path d="m33.16,2.09c-.38.11-.76.33-.86-.2-.04-.24-.52-.13-.79-.19.15.27.26.56.45.82.39.56,1.12.63,1.72.16.07-.06.11-.15.2-.18.34-.11.37-.52.03-.68q-.14-.07-.22.2c-.04.12-.03.29-.29.29-.08,0-.16-.14-.25-.22Z"/><path d="m35.95,1.87h-.2c-.36.42.19.8.17,1.21l.56-.23c.06-.38-.68-.58-.53-.98Z"/><path d="m35.01,3.18c.2,0,.41.03.56-.09,0-.02,0-.05-.02-.06-.25-.13-.2-.54-.5-.47-.45.1.05.4-.04.61Z"/><path d="m34.03,2.79c-.05.04-.12.07-.11.09.02.07.06.13.09.2.02-.03.07-.07.07-.1,0-.05-.02-.11-.04-.18Z"/><path d="m31.35,3.09c.12.03.25.07.28-.06-.12-.02-.28-.13-.28.06Z"/><path d="m31.87,3.04l.08-.06s-.07.03-.08.06Z"/><path d="m63.9,2.22h-.52c-.16.47-1.03.38-1.32.74.03.16-.05.37.37.35-.18-.23.13-.34.32-.41.24-.08.35.09.44.21l.53.02c1-.46,1.01-.55.18-.92Z"/><path d="m63.19,3.11c-.09-.13-.2-.3-.44-.21-.19.07-.5.18-.32.41.29,0,.64.09.76-.2Z"/><path d="m65.8,2.97c-.5-.58-.66.07-.99.12.4.22.7.07.99-.12Z"/><path d="m66.87,3.19h-.19c.06.11.13.11.19,0Z"/><path d="m42.93,1.81c-.36,0-.38.17-.41.34.05.24-.14.19-.34.12-.12.24-.04.54-.56.61-.11.3.46.19.54.38.74-.37.8-.9.77-1.44Z"/><path d="m37.03,2.13l-.23.04c.13.11.16,0,.23-.04Z"/><path d="m105.69,2.22c-.09.11-.11.22-.13.34l1.11-.02c.33-.01.34-.17.35-.33-.2-.02-.44.03-.56-.13l-.77.14Z"/><path d="m110.89,1.78c0-.12-.03-.26-.23-.28-.09,0-.21.1-.32.16.13.14.35.11.56.11Z"/><path d="m106.46,2.08c.12.16.36.11.56.13-.12-.17-.34-.14-.56-.13Z"/><path d="m108.68,2.65c0-.07.17-.14,0-.2-.02,0-.07,0-.08.01-.11.09-.04.14.08.19Z"/><path d="m50.28,2.21c-.31.09-.59-.73-.92-.02-.05.51.62.24.93.37v-.35Z"/><path d="m46.42,2.55l.08-.03s-.05.02-.08.03Z"/><path d="m50.29,2.56l.04.05-.04-.05Z"/><path d="m114.2,1.96h.38s.02-.23.02-.23c-.26-.02-.39.06-.39.23Z"/><path d="m92.9,3.19c.94.23,1.05-.15,1.05-.6l-.21-.5c-.7-.33-1.1.17-1.64.27-.06.41-.01.78.8.84Z"/><path d="m101.81,2.21h.08s-.03-.04-.08,0Z"/><path d="m100.02,2.16l.2.09s.03-.03.05-.04c-.08-.02-.16-.03-.25-.05Z"/><path d="m89.52,2.13l-.35-.12c.03.15.04.32.35.12Z"/><path d="m105.56,2.56l.07-.35c-.18,0-.38,0-.41.16-.03.16.15.19.35.19Z"/><path d="m44.05,2.08c-.02.13-.03.25.15.34-.02-.12.06-.26-.15-.34Z"/><path d="m44.94,2.78l-.04-.05.04.05Z"/><path d="m43.49,2.55c.04.09.03.21.12.26.12.06.23-.05.19-.11-.07-.14.3-.4-.26-.4l-.06.25Z"/><path d="m43.49,2.55l.06-.25c-.28.06-.26.15-.06.25Z"/><path d="m54.95,2.9s.05.05.08.07c0,0,.07-.02.07-.03,0-.03,0-.06,0-.09l-.14.05Z"/><path d="m79.21,2.68l.07-.03s-.06.02-.07.03Z"/><path d="m6.44,2.46l-.29.09.07.07c.08-.05.15-.1.22-.16Z"/><path d="m53.3,3.25l-.24-.08c.02.07.06.12.11.17l.12-.09Z"/><path d="m42.18,2.26c.2.07.39.12.34-.12l-.34.12Z"/>
                  </g>
                </mask>
              </defs>
              <path class="mask" d="m0,1.85c47.83.91,96.6.81,146.25-.42,3.53-.09,7.06-.18,10.58-.28"
                    mask="url(#path-mask)" stroke="black" stroke-width="2" fill="none"
                    stroke-dasharray="156.8459930419922" stroke-dashoffset="156.8459930419922">
              </path>
            </svg>
        