
            <svg xmlns="http://www.w3.org/2000/svg">
              <defs>
                <mask id="path-mask">
                  <g fill="white">
                    <path d="m122.33,8.81c-3.07-.01-1.12.11-1.73.16l-2.21-.07c-1.81-.08-3.91-.18-5.63-.26-3.53-.2-10.15-.23-12.97-.09-1.94-.04-3.16-.02-3.99.02-2.58-.07-6.42-.01-8.41-.14-.55-.08-2.81-.16-.91-.23,1.37-.04,2.86-.06,5.06,0,1.82.06,3.47.07,4.5,0l1.71.02c2.12-.02,4.99.24,6.65.06.66.01,1.89.03,1.91.03,1.67-.16,5.59-.03,8.98.05l.05.05c-.93,0-.74.02.31.04.17,0,.35,0,.53,0l.11.07c-.58,0-1.42-.03-1.42,0,0,0,.42.03.63.03.98.01.7-.02.81-.03l3.36.02c.27,0,.55,0,.83.01-.42.03-3.17.02-.74.1,2.57.09,3.43.04,3.96-.02.49-.06,1.58-.05,3.3.02.16.1,2.64.12,4.36.16l-.08.03c-1.62.02-.35.06,1.04.09,1.88.11,2.06,0,3.24.03l.24.02-.27-.02c.11-.06-.59-.15,2.83-.05,2.13.06,3.96.08,3.59-.02l2.11.04,1.85.16c-1.15-.02-1.66-.01-1.76.02-1.38,0-1.5.04-.15.11,1.84.05,2.44.1,1.78.14-.31.02-.74.05.48.08.35,0,.92.02,1.39.02.47,0,.85,0,.85,0-.22-.16,4.65-.04,6.54-.08.39,0,.55-.03.82-.04l.34-.04c4.34.11,8.89.29,12.79.29.99,0,2.37.08,3.34.13,1.76.1,2.96.12,3.92.09l8.35.35.15.05c.23.07,1.57.15,3.27.21,1.31.04.88-.02.98-.05,4.64.16,9.28.32,14.15.49l-.19-.02c.06-.02-.31-.06.61-.02.26-.01.36-.04,1.55.01-.42.08,1.9.2,3.78.31,4.06.22,8.78.5,12.35.63,2.47.09,4.13.18,6.53.32,1.45.09.65-.03.77-.06l6.98.45c2.33.18,4.65.33,6.99.67l-.03.07c-.93-.1-.71-.02-.27.09.76.21-.42.02-2.9-.21l-2.2-.15c-1.31-.1-2.89-.23-3.47-.2l2.41.19c.3.06,1.72.2-.12.1-.96-.11-1.94-.19-2.94-.21l-3.47-.22c-1.42-.21-4.23-.46-7.31-.7-2.19-.04-5.38-.14-5.85-.04-3.05-.17-6.09-.33-9.18-.43-.07-.04.27-.08-.32-.14-.79-.07,2.41,0-.49-.13-2.01-.09-1.62-.01-1.41.05.1.03.11.1-1.2-.03-2.39-.24-1.9-.03-3.97-.14-.31-.03-.54-.08-.96-.09-1.2-.06-1.19-.01-1.52,0-3.9-.17-7.71-.24-11.85-.46-2.16-.11-3.31-.04-3.96.01l-19.16-.61s.22-.04.01-.07c-.59-.08,2.48-.1-.83-.2-2.93-.09-.41.09-.83.13-.12.01-1.1,0-1.68-.01-5.4-.07-11.24-.23-16.84-.37-1.63-.04-4.29,0-5.58-.15-1.48-.14-11.16-.47-14.27-.48Zm18.55.53l.61-.02c-.28,0-.6-.02-.82-.03-.21,0-.31,0-.46.01.23.01.45.02.67.03Zm31.85.75c.12,0,.29.01.44.02-.02-.02-.19-.02-.44-.02Z"/><path d="m96.52,2.03c-7.16.22-14.22.27-21.34.45-.96-.18-5.55.1-8.52.17-.6-.04-.53-.13-3.7.07-1.92.13-4.69.33-7.16.5-1.98.13,4.08-.59-3.14.1-1.06.09-2.55.25-2.7.19-.08-.03-1.11.03-2.05.13-.96.11-1.84.24-2.18.32-.56.12,1.29-.11,1.87-.14,1.14-.08,1.96-.12,2.91-.16-.57.09-3.17.34-3.02.39-.8.02-2.59.23-4.19.41-1.59.19-2.98.35-2.99.28,0-.08,2.23-.43,3.18-.64.99-.21,5.29-.71,8.72-.97,1.54-.11,3.02-.21,4.55-.32,1.49-.1,3.31-.17,4.39-.28,1.16-.14-2.94.15-2.19.03,2.35-.22,4.84-.39,7.58-.41.21.11.94.18,5.03-.07,3.05-.2,6.91-.14,9.85-.31l1.13-.03h2.15c3.62.06,7.5-.02,11.72-.23,2.5.04,5.33.01,8.98-.15l1.55-.04c-.18.02-.3.03-.56.05-2.05.1-3.42.18-1.3.21.55,0,2.08-.01,1.82-.04-.62-.07,6.14-.29,1.18-.27,1.33-.05,3.29-.09,3.26-.17l2.32-.06c.08.04-1.77.14-.19.13,1.25,0,2.61-.07,3.63-.13l1.46-.04c3-.08,3.19,0,3.62.06.25.04.96.05,2.39,0,.53-.02,1.37-.06,1.54-.08.47-.06-.69-.04-1.61-.03-3.31.03,2.65-.23-.23-.21.71-.1,2.56-.15,4.3-.2l.03.05c-.03.05-2.61.2.13.14,2.03-.04,3.44-.15,3.03-.22l2.66-.08,3.68-.03c1.03.03,1.54.08.67.17-.4.04-.3.07.86.04,1.41-.03,1.62-.08,1.84-.11h1.98s.05.11.05.11c-3.34.05-7.11.21-9.36.13-.85-.03-2.09.04-2.29.1-.14.05.12.08-1.29.15-5.79.28-11.76.47-17.89.58-3.73-.04-11.5.18-16.16.45Zm-38.09.85c.39-.04.78-.07,1.16-.11-.33.01-.63.02-1,.04-.38.03-.82.07-1.53.13.63-.03,1-.05,1.37-.06Z"/><path d="m12.23,18.03c2.79.06,4.08.15,5.51.24.71.04.25.13,2.47.13,1.8,0,1.38-.07,1.05-.13-.32-.06-.49-.11-.73-.17l6.58.04c.02.06-.74.13,2.24.13,2.25,0,3.28.03,3.2.1-.25.05-2.88.05-1.58.12.46.02,1.5.05,2.18.04,2.3-.01.77-.08,1.27-.12.28-.02.49-.05.91-.07.82-.04,3.23-.07,2.33-.11-1.04-.05-2.77.04-4.35.03v-.11c6.23-.03,12.28-.05,18.25-.07-.98.13-1.61.27-6.74.23-.85,0-2.22.01-2.57.06-.37.05.69.06,1.86.05.38.06.76.11.99.18l-1.7.05,1.37.04c-4.06.11-7.86.11-11.43.03-.93-.07-2.75-.15-4.62-.08-3.57.13-10.03-.14-12.41,0-3.47-.14-7.14-.2-10.71-.48.08-.06-.57-.14-1.52-.26-.95-.13-2.2-.22-3.35-.6-.13-.05-.26-.1-.39-.21-.13-.07-.29-.35-.17-.59.2-.34.42-.4.61-.53.4-.21.77-.34,1.13-.46.72-.24,1.39-.41,2.14-.58-.24.13-1.25.37-2.35.76-.27.1-.55.21-.82.34-.13.08-.27.14-.39.24-.12.08-.28.23-.27.48.07.24.23.31.35.38.13.06.25.11.37.15.23.07.45.12.63.15.54.12,2.35.46,3.16.44.5,0-1.28-.2-2.37-.42-.55-.12-1.05-.21-1.56-.42-.12-.05-.25-.12-.34-.22-.1-.1-.02-.23.08-.34.23-.2.55-.35.91-.51,1.82-.74,4.06-1.23,5.79-1.48,1.04-.15,2.9-.55,3.99-.77,1.91-.38.35-.14-.77.03-1.77.27-3.52.58-3.21.42l1.11-.26c2-.25,5.81-.97,9.07-1.44,1.26-.19,4.17-.66,3.34-.4-.2.06,3.74-.55,3.85-.59.23-.11,1.29-.25,2.72-.43l1.06-.14c1.97-.28,4.31-.62,3.51-.37-.98.2-.95.2.73.02.74-.08,1.72-.17,1.89-.17.57.01-2.41.34-2.88.46-3.01.38-6.17.88-8.74,1.1-.66.05-2.56.38-2.44.37.53-.03-3.61.6-.68.23-.12.05-.44.11-1.64.28-3.91.58-7.85,1.16-11.77,2.06-.3-.07-1.56.17-3.02.59-.73.21-1.53.46-2.23.8-.34.15-.72.45-.53.5.23.17.6.27.9.34,1.46.32,2.79.39,4.12.49,1.34.07,2.7.14,4.31.23-.75.03-3.06.06,2.3.21Zm12.61.35l-.62.03c.28,0,.59.01.82.02.2,0,.31-.01.46-.02-.23,0-.45-.02-.66-.02Z"/><path d="m19.65,13.37c-3.71.89-8.25,2.23-11.28,4.16-1.33.83-3.05,1.91-4.25,3.69-.59.87-.94,2.05-.58,3.11.32,1.06,1.12,1.8,1.86,2.37.88.61,1.27.78,1.96,1.09,1.08.46,1.79.61,1.91.6.13-.02-.35-.16-1.52-.66-1.22-.54-1.95-1.05-2.42-1.45-.48-.4-.7-.71-.88-.98-.17-.29-.44-.71-.55-1.39-.12-.67.04-1.6.72-2.64.13-.24.8-1.03,1.15-1.32.78-.75,1.71-1.33,2.56-1.96.95-.49,1.85-1.08,2.85-1.47l1.47-.64,1.51-.53c1-.38,2.04-.65,3.08-.95,4.8-1.32,9.73-2.07,14.67-2.71,4.94-.62,9.91-1.06,14.88-1.44l-.03-.06c-.84.06-1.52.11-1.71.1-1.48.13-3.24.29-4.46.4-2.94.26-6.54.7-8.86.91-.35.03-1.24.12-2.41.28-1.17.14-2.62.35-4.09.59-1.47.21-2.94.54-4.19.77-1.23.27-2.23.52-2.73.64-.33.08-.68.19-.62.19.5-.06-1.35.43-2.2.65-1.01.28-1.62.49-2.49.76-.51.12-1.97.83-1.84.73.09-.03.91-.5,2.11-.89,2.45-.97,6.08-1.77,6.39-1.95Z"/><path d="m97.82,4.94c-2.6.14-5.69.29-7.4.48.75-.03,1.71-.05,2.23-.08,2.01-.13,3.9-.27,5.37-.24,1.21.02-.49.14-1.71.25-2.16.2-3.83.24-5.6.27-1.1.02-2.94.11-3.83.19-3.06.28-4.43.27-6.26.33-1.17.07-2.64.18-2.95.14-.06,0,.47-.07.69-.08,1.53-.1,1.58-.05,2.25-.06l3.27-.4c-2.17-.02-4.97.26-7.61.47.07.05-.1.1-2.01.25.03.03-.14.08.14.1.85.04-2.31.25-3.25.37-.26.03-.91.09-1.1.08-.4-.03.66-.13,1.84-.25.67-.07.16-.1.19-.15-1.04.13-4.03.27-4.32.4.39-.02,1.44-.09.41.02l-.38-.02c-1.52.1-.6-.07-2.49.08-.66.06-1.2.17-1.79.26.03.03-.2.07-1.1.17.05,0,.11.01.17.02l1-.08c1.66-.08,6.86-.43-.19.19-.46.04-.67.1-1,.16,3.04-.26,6.22-.56,8.99-.65.34-.01,4.42-.4,7.15-.58.75-.09,1.68-.16,3.32-.27,4.8-.32,9.83-.5,14.42-.83,1.85.03,5.16-.25,7.11-.26,1.91-.02,3.45-.05,5.81-.19,3.22-.18,4.62-.16,4.7-.05l5.31-.15c-.24-.07,1.21-.15,2.28-.22-2.43-.04-4.96-.08.18-.28.66-.02.23-.05-.43-.05-2.08.12-5.12.08-6.87.2-4.03.26-3.23.1-3.78.05l-1.12.04c-.1.05-.71.09-1.99.14-.15.06-1.01.11-2.25.16l.1.06c-1.23.04-1.03,0-1.04-.02-2.41.03-6.05.18-6.44.07Z"/><path d="m79.74,8.16c-1.38-.02-2.36.04-3.08.09-1.53.11-3.4.24-.55.21,2.24-.02,3.4,0,4.3-.04.9-.03,1.53-.07,2.69-.08l4.27.09c1.99.13,5.83.07,8.41.14l.05.08c-2.47-.04-5.34.03-7.19-.06-2.33-.11-4.76-.1-7.48-.1-5.36-.04-10.74.32-16.12.6-5.38.3-10.77.66-16.16,1.02-.19-.02-.18-.06,1.16-.17l2.07-.14,1.07-.04c.33,0,.65-.03.97-.07,6.81-.47,7.76-.55,5.16-.52-.08,0-.1,0-.15,0-6.02.47-7.63.32-13.51.81-2.45.2-5.69.5-6.36.46,1.6-.16,3.4-.39,3.94-.39,1.02,0,2.7-.18,4.34-.3,5.85-.42,11.56-.8,17.57-1.16,4.28-.25,8.64-.48,13.03-.57,4.39.03,8.8.05,13.19.08,1.75.01,4.53,0,4.66.11-1.03.06-2.68.05-4.5,0-2.2-.07-3.69-.05-5.06,0-2.26-.05-4.52-.09-6.72-.04Zm-10.74.56s-.67-.06-2.41.05c-1.69.11-4.17.3-4.26.34-.18.08,2.01-.12,2.81-.15,1.54-.1,4-.16,3.87-.25Zm-5.03,0c-1.11.06-3.08.18-3.15.24-.04.03.68.02,1.86-.05,1.26-.08,2.49-.16,4.13-.27-1.21.03-1.96.03-2.83.08Zm6.52-.14l.65-.03h-.08c-.48.01-.5.02-.56.03Z"/><path d="m154.29.66c2.66-.01,4.74.03,7.74.16,4.35.18,9.78.42,14.72.74,2.47.16,5.11.41,7.43.53l.03-.1c-.54-.09-1.94-.28-.27-.17,4.94.36,4.3.12,7.72.36-1.82-.18-3.43-.3-4.86-.39-.18-.01-.34-.02-.47-.03-.19.03.58.16-1.4.02-1.55-.11-2.66-.22-2.88-.3l-.26-.03.24.03c2.29.22,2.37.11,4.27.28.12,0,.17,0,.14,0-2.16-.3-4.83-.4-7.21-.59-3.04-.11-6.25-.31-9.49-.58-.97-.08-1.6-.14-2.69-.13-1.67.02-4.1-.1-6.43-.21-3.34,0-1.8.14-1,.25.21.03.91.08-.27.07-1,0-1.59-.05-2-.08h-1.19c.62.07-2.54.08-1.89.17Z"/><path d="m92.41,17.77c2.11.01,4.31,0,7.22-.11,3.63-.19,7.48-.31,11.59-.32.78-.07,2.24-.11,3.54-.17l2.18-.04c-.26-.03-.66-.08-.76-.07-3.98.16-6.66.06-10.5.17-2.79.08-5.34.13-6.1.03-.02,0-.31,0-.46,0-.52.03-1.06.05-1.59.08.47.12-2.35.17-4.5.21-7.06.13-14.16.36-21.33.43-4.32.04-4.56.08-2.5-.1.61-.06,1.04-.11,1.55-.16-4.11.11-8.88.12-12.19.31.77,0,1.52,0,2.33,0,1.32-.01,3.21-.13,3.79-.05.24.03-1.83.13-3.15.18-.7.03-2.02.04-3.06.06-.87.02-1.82.03-2.24.07-.55.05.36.06,1.27.07,1.42.01,1.8.08,3.99.04,2.78.03,5.83.02,9.48-.09,4.17-.19,9.04-.29,13.95-.39-.07-.03.15-.07,1.04-.09,1.56-.03.57.04.91.06,2.07-.15,4.21-.33,5.54-.11Z"/><path d="m52.12,9.79l1.07-.04.49-.03.49-.03c6.81-.47,7.76-.55,5.16-.52-.08,0-.1,0-.15,0-6.02.47-7.63.32-13.51.81-2.45.2-5.69.5-6.36.46-1.77.2-4.93.51-6.25.75,1.69-.15.05.13-.84.24-2.6.31-1.02.05-1.4.06-.08,0,0-.02,0-.03-1,.1-2.34.29-3.7.5-1.36.23-2.75.47-3.87.66-1.36.28-2.54.53-3.59.75-.32.18-3.95.99-6.4,1.96-1.2.4-2.02.86-2.11.89-.12.1,1.34-.61,1.84-.73.87-.27,1.48-.48,2.49-.76.85-.22,2.7-.71,2.2-.65-.06,0,.29-.11.62-.19.5-.12,1.49-.37,2.73-.64,1.24-.23,2.72-.55,4.19-.77,1.47-.25,2.92-.45,4.09-.59,1.17-.16,2.06-.25,2.41-.28,2.32-.21,5.92-.65,8.86-.91,1.22-.11,2.98-.27,4.46-.4,1.43-.13,1.5-.11,1.72-.1l.03.06,2.11-.15c-.19-.02-.18-.06,1.16-.17.26-.03.45-.07.8-.1,1.12-.08,1.12-.06,1.27-.05Z"/><path d="m201.17,3.24l.06.05c.85.19,1.52.36,2.58.58,2.27.47,6.47,1.05,9.89,1.58.43.07.64.08,1.16.19.97.2,1.47.36,1.51.34.05-.03-.37-.26-1.33-.51-.8-.21-.8-.2-1.27-.22-.22,0-.17.05-1.64-.22-.45-.08-.94-.21-1.42-.31-2.77-.47-2.58-.51-3.2-.68,1.59.21,3.2.44,4.82.73.81.14,1.62.3,2.43.49.41.09.81.19,1.22.32.21.07.41.13.63.25.05.03.12.07.19.13.05.06.08.06.12.19.04.13,0,.22-.06.31-.23.22-.33.17-.45.22.19-.06.33-.11.41-.24.07-.15,0,0-.11.06-.22.1-.53.11-.96.13-.84.03-2.04-.02-2.81-.06l-1.67.03-3.38-.09c-.05-.01-.06-.02-.04-.03,2.06-.04-1.13-.3-1.02-.42l2.04.08s0,.01.11.02c1.44.1,1.17.21,2.94.25,2.61.03-.3-.13.2-.18l1.21-.05c.61.01,1.23.02,1.84,0,.3,0,.61-.02.9-.05.13-.02.3-.05.34-.07-.04-.07.14.19.14.19.01,0,.04.02.05.01-.01,0-.03,0-.04,0,0,0-.08.04-.12.09-.02.02-.04.05-.06.07h0s-.02-.02-.02-.02l-.07-.04c-1.05-.41-2.34-.62-3.53-.86-2.43-.45-4.87-.81-7.25-1.16l-2.08-.27-.08-.09.44.04-.58-.06-1.31-.16c-.67-.09-1.6-.23-1.58-.17l-2.12-.21.29.02.32.05c-1.44-.25-5.05-.62-6.07-.86-.48-.12-5.05-.44-7.54-.58-.41-.02-.68-.03-1.01-.04-.54-.09-1.94-.28-.27-.17,4.94.36,4.3.12,7.72.36,3.3.28,6.48.63,9.51,1.06Zm13.87,2.55c.09.04.31.12.47.18.14.02.38.09.38.08.01-.01-.13-.07-.23-.13-.3-.07-.65-.15-.62-.13Z"/><path d="m74.28,6.46c1.91-.14,2.08-.2,2.01-.25l-1.79.11-1.38.1c-3.44.22-6.75.44-10.39.79-1.48.14-3.63.33-5.41.45-1.95.13-5.62.47-6.25.54-6.6.71-12.95,1.4-19.28,2.09-2.32.26-3.77.5-5.67.75-4.85.64-9.68,1.34-14.51,2.18-2.41.43-4.82.88-7.2,1.45-1.2.3-2.38.58-3.57,1.12-.15.07-.3.15-.45.26-.08.07-.15.1-.24.22-.04.06-.08.09-.11.18-.03.1-.05.2-.04.3.13.44.37.48.52.58.17.08.33.14.48.18.63.18,1.24.28,1.85.36,1.05.15,2.13.25,2.74.25.08-.06-.57-.14-1.52-.26-.95-.13-2.2-.22-3.35-.6-.13-.05-.26-.1-.39-.21-.13-.07-.29-.35-.17-.59.2-.34.42-.4.61-.53.4-.21.77-.34,1.13-.46.72-.24,1.39-.41,2.14-.58.68-.23,2.03-.52,3.2-.76l1.11-.26c2-.25,5.81-.97,9.07-1.44,1.26-.19,4.17-.66,3.34-.4-.2.06,3.74-.55,3.85-.59.23-.11,1.29-.25,2.72-.43.34-.08.71-.12,1.08-.14,1.95-.28,4.29-.61,3.49-.37.53-.06,1.07-.13,1.6-.19,1.66-.26,3.38-.5,5.71-.69,1.91-.3,3.77-.61,6.26-.68l3.07-.3c.66-.15,2.72-.32,4.37-.48,2.43-.23,2.01-.13,2.18-.09,2.79-.38,5.61-.59,8.42-.73.59-.09,1.13-.21,1.79-.26,1.89-.15.97.01,2.49-.08.26-.12,3.25-.27,4.29-.4l2.18-.15Z"/><path d="m188.7,5.14c-1.51-.13-3.17-.24-5.41-.26,1.28.11,2.53.22,1.01.24-1.19,0-2.1-.12-3.38-.15-1.68-.18-2.64-.14-3.76-.12-1.28.03-2.52,0-3.38-.12-3.04-.07-2.57.04-3.12.09.45.1,2.9.2,4.09.3,2.02.14,4.7.25,7.25.32,1.92.05,3.58.11,5.42.21,1.88.03-.06-.18,3.19-.04,2.41.1,2.01.17,2.38.25l2.14.09c-.15-.06-.44-.13-.4-.18.02-.03,1.01,0,1.93.04.8.04,1.41.09.94.09-.68,0-2.56-.05-.58.08.5.03,2.24.05,3.41.07.37,0,.57-.02,1.32.05l-1.35-.05c.81.19,3.48.29,6.29.37.87-.08-3.4-.34-3.09-.44-4.61-.15-4.56-.25-4.2-.34-1.85-.07-3.37-.22-5.28-.27.27.14-1.78.15-4.98,0-4.43-.21,1.43-.05-.09-.18-.21-.02-.25-.03-.36-.05Z"/><path d="m209.01,14.62l1.74-.03,3.37-.09,1.24-.02s-.07-.02-.1-.03c-.73,0-1.09-.01-.47-.05.09,0,.39,0,.49-.01.96,0-.05.04-.06.06,1.76-.02,3.06-.06,3.87-.13,1.3-.11,2.98-.14,4.33-.13,1.35,0,2.36.04,2.32.06-.26.14,2.52.1,4.54.12,2.54-.07,5.06-.14,7.64-.22,1.13-.03,3.31-.06,2.68-.12-.51-.04-2.88.04-3.47.02-1.85-.04-4.71.16-5.75.03-1.41,0-3.08.02-3.29-.04-1.19.01-2.45.03-3.22,0-2.61.02-5.23.04-7.81.07-5.11.04-9.54.26-14.71.31v.08c1.27-.03,2.59-.06,3.25-.02-.08.05-.12.1-2.06.14l.92.09,4.54-.08Z"/><path d="m121.22,4.26c.66,0,1.09.03.43.05-5.14.2-2.61.24-.19.28l1.98-.05-.04-.11h-.25s.23,0,.23,0c1.8,0,5.71-.13,5.41.03,2.99-.05,5.7.07,9.02-.05.48-.02,2.56.02,2.66.08l3.15.02c1.37-.09,5.35-.09,4.58-.23-.04,0,.68-.01,1.05-.02,2.33.24,3.32-.02,5.16.04-.01-.01,0-.02,0-.04-5.39-.27-6.67-.09-8.57.02h-.41s.44,0,.44,0c-.54,0-1.31-.02-1.95-.03-.32,0-.6-.01-.81-.02-.21,0-.34-.01-.35-.01-.54-.27-4.48-.11-7.67-.07-3.32.03-7.16.13-10.09.06-1.45,0-1.23-.11-3.75-.05l-.06.08Z"/><path d="m141.49.52h1.98c4.83-.07,4.76.07,4.26.19,1.59.02,1.51-.05,2.28-.06-1.43-.15.94-.34,5.32-.32-1.01-.1-1.09-.18,0-.26-1.11-.1-2.04-.05-3.01-.01.64.02.8.05-.06.05-1.19,0-.99-.03-1.11-.06-2.55-.13-6.32.02-9.04.09-4.45.11-9.31.19-13.52.42l.03.05,3.09-.08c.97-.09,1.85-.09,2.73-.08l3.68-.03c.26-.06.49-.11,2.47-.16,1.34-.03,2.1,0,2.74.02,1.49.06-.54.15-1.84.24Z"/><path d="m231.39,14.07c1.04.14,3.9-.06,5.75-.03.59.01,2.96-.07,3.47-.02.62.06-1.56.09-2.68.12-2.58.07-5.1.14-7.64.22l.93.06h1.24c1.72-.08,3.67-.11,5.68-.14,1-.02,2.02-.04,3.03-.06.51-.02,1.01-.03,1.52-.08.13-.01.25-.03.39-.05.07-.02.13-.02.24-.07.02,0,.09-.05.12-.08.09-.1.1-.24.03-.35-.1-.13-.15-.13-.19-.15-.3-.12-.53-.14-.78-.18-.93-.1-.71-.02-.27.09.76.21-.42.02-2.9-.21l-.05.03s-.78,0-2.3-.13c-.31-.02-.62-.04-.91-.06.3.06,1.72.2-.12.1l.09.04c1.52.12,3.04.25,4.55.41.75.09,1.52.17,2.23.32.08.02.18.04.22.07.01,0,.03.01,0,0,.02.04-.15-.16-.03-.31.06-.07.08-.06.06-.06,0,0-.02,0-.03,0-.14.03-.34.05-.52.06-.37.03-.75.04-1.13.05-3.05.05-6.11.1-9.18.16.98.07,2.8.14-.81.24Z"/><path d="m143.71,16.33c1.27-.04,1.15.11,3.4-.07,1.68-.14,3.28-.07,4.96-.14.47-.16,2.75-.19,5.15-.2,2.03,0,3.7-.08,5.23-.16,1.58-.09,2.28-.17.6-.19-2.26.05-4.33.06-6.75.15-7.53.29-8.36.33-14.4.4-.14,0-.43,0-.47.01-3.07.23-7.76.19-10.89.41.3.06.34.12,2.46.09.07-.05.57-.07,2.02-.11,3.06-.06,5.93-.12,8.68-.18Z"/><path d="m231.39,14.07c3.61-.1,1.8-.17.81-.24-2.38-.02-3.98-.07-7.39.07-2.46.1-7.37.09-11.3.16-5.29.09-10.84.19-16.19.28-2.34.03-3.9.07-3.64.16.25.09,2.15.05,4.26-.01l4.4-.09c5.17-.05,9.59-.27,14.71-.31,2.58-.02,5.21-.04,7.81-.07.63-.02,1.34-.07,1.88-.07,1.19,0,1.3.03,1.34.07.22.07,1.88.05,3.29.04Z"/><path d="m145.86,4.31c1.9-.11,3.19-.29,8.57-.02l4.32.02c1.15,0,2.34,0,2.05-.07-2.02-.13-4.67-.11-6.88-.14-8.46-.11-16.92-.17-25.43,0-2.27.04-2.59.08-3.46.14,2.93.07,6.77-.03,10.09-.06,3.19-.03,7.13-.2,7.67.07,0,0,.14,0,.35.01.21,0,.49,0,.81.02.63.01,1.39.02,1.92.03Z"/><path d="m70.76,17.72c-.51.05-.93.1-1.55.16-2.06.18-1.82.14,2.5.1,7.16-.07,14.26-.3,21.33-.43,2.15-.04,4.97-.09,4.5-.21-4.01-.04-8.39.08-13.2.26-3.1.11-5.48.13-4.88-.02-3.12.13-5.72.07-8.69.14Z"/><path d="m130.54,16.53c3.13-.22,7.82-.17,10.89-.41.04,0,.32,0,.47-.01,6.04-.07,6.87-.11,14.4-.4,2.42-.09,4.49-.1,6.75-.15-.96-.09-2.01-.18-5.72-.14l-2.72.15c-1,.1-2.54.14-4.73.18-2.66.08-5.88.18-8.18.24-4.65.13-8.78.38-13.21.45l1.18.12c.3,0,.59-.02.87-.02Z"/><path d="m184.91,14.78c-1.39.15-2.52.29,3.06.15,1.8-.04.67.04.53.07-2.74.14-5.78.18-7.74.18-4.98,0-6.11.14-7.17.3l-1.02.03c-3.27.02-8.65.13-3.55-.2.92-.06.9-.12,1.31-.18,2.82-.08,5.64-.15,8.46-.23,1.82-.05,3.19-.09,3.38-.16l3.14-.07c-.12.03-.07.06-.39.1Zm-8.99.34c-.11,0-.3,0-.56.02.16,0,.31,0,.56-.02Z"/><path d="m47.5,4.06c-.8.02-2.59.23-4.19.41-1.59.19-2.98.35-2.99.28,0-.08,2.23-.43,3.18-.64.99-.21,5.29-.71,8.72-.97,1.54-.11,3.02-.21,4.55-.32,1.49-.1,3.31-.17,4.39-.28,1.16-.14-2.94.15-2.19.03-5.06.21-11.32.91-16.54,1.41-1.65.16-1.27.22-2.59.4-1.27.2,4.46-.44-.23.17-1.56.3-5.68.94-5.03,1.01.97-.13,2.24-.29,2.87-.36,1.58-.14,1.56.03,5.55-.61.04,0,1.45-.13,2.35-.2,2.62-.25,5.1-.5,7.3-.75-.76-.08-3.67.33-5.15.44Z"/><path d="m33.45,5.26c-1.3.18-2.24.3-2.92.36-1.71.14-4.91.61-7.38,1.13-2.22.46-4.2.95-4.43,1.1-.42.3,2.37-.21,8.6-1.28,1.52-.26,3.43-.5,5.16-.73,1.88-.36,1.14-.36-.92-.11-2.09.25-3.98.6-5.44.93-.54.11-3.02.59-2.82.47.18-.11-1.27.09-.37-.14.55-.14.81-.25,2.5-.55,1.75-.31,2.53-.39,2.74-.37.22.02.49.02,2.44-.29,1.9-.3,2.86-.46,2.84-.53Z"/><path d="m128.49,16.44c4.43-.06,8.56-.32,13.21-.45,2.3-.07,5.52-.17,8.18-.24,2.19-.05,3.73-.08,4.73-.18-3.74-.1-9.32.19-13.93.33-6.88.21-13.91.51-20.62.6l-.55.07c1,.02,4.49-.02-.84.17-1.74.06-2.73.16.27.08,3.16-.13,5.47-.35,9.54-.38Z"/><path d="m113.89,4.95c-.07-.12-1.48-.13-4.7.05-2.37.14-3.9.18-5.81.19-1.95.01-5.26.29-7.11.26-4.59.33-9.62.51-14.42.83-1.64.11-2.57.18-3.32.27,4.42-.19,9.2-.48,14.35-.76,3.28-.18,6.62-.34,10.2-.45,3.13-.12,7.16-.27,10.79-.4Z"/><path d="m111.37,1.1l2.32-.06h3.44c.49-.01.97-.03,1.47-.04,1.59-.07,3.17-.15,4.76-.22-2.81-.1-8.4.13-12.41.23-7.98.22-16.04.43-24.06.65l-2.14.08c3.62.06,7.5-.02,11.72-.22,3.42-.12,7.02-.28,8.98-.15l1.55-.04,1.1-.04s-.06-.04-.11-.05c-.11,0-.22-.01-.34-.02h.76s2.97-.12,2.97-.12Z"/><path d="m216.36,11.92c-3.05-.17-6.09-.33-9.18-.43-2.44-.1-4.78-.21-6.58-.35-1.64-.06-2.47-.1-3.29-.13-3.9-.17-7.71-.24-11.85-.46-2.16-.11-3.31-.04-3.96.01,11.76.44,23.52.91,35.29,1.44l-.43-.09Z"/><path d="m188.5,15.01c-2.74.14-5.78.18-7.74.18-4.98,0-6.11.14-7.17.3,8.19-.18,16.38-.34,24.56-.6,1.98-.07,3.21,0,4.82-.05,2.22-.06,5.63-.07,6.04-.22l-4.54.08-7.45.11-8.52.19Z"/><path d="m135.52,8.99c.11-.06-.59-.15,2.83-.05,2.13.06,3.96.08,3.59-.02-8.78-.27-17.55-.5-26.67-.55l.05.05.31.04c.17,0,.35,0,.53,0,1.53,0,3.04,0,3.48.09.27,0,.55,0,.83.01l3.22.09c.49-.06,1.58-.05,3.3.02,1.9.04,3.87,0,5.58.1.57.03-.29.06-1.23.06l-.08.03,1.04.09c1.88.11,2.06,0,3.21.03Z"/><path d="m172.57,15.53c-3.27.02-8.65.13-3.55-.2.92-.06.9-.12,1.31-.18-1.56.03-1.04-.02-1.14-.05l-2.09.06c.65.06-2.05.17-2.12.24l1.4-.02c-.11,0-.3.02-.3.02-.39,0-.76,0-1.13,0-1.86,0-.72-.1-1.11-.15-2.11-.04-4.27,0-6.5.17,3.71-.04,4.76.05,5.72.14,1.68.02.98.1-.6.19-1.53.09-3.2.16-5.23.16-2.4.01-4.68.04-5.15.2,5.39-.12,10.89-.33,16.22-.41,2.1-.03,3.2-.1,4.29-.18Z"/><path d="m118.95,16.82c-3,.07-2.02-.02-.27-.08,5.33-.19,1.83-.15.84-.17-.91.1-2.58.1-3.86.15.14.04-.84.14-1.62.14-3.89,0-6.65.22-10.04.29-1.81.1-1.91.06-2.05.01-1.84-.01-2.29.05-2.82.11.16,0,.44,0,.47,0,.76.1,3.31.04,6.1-.03,3.84-.12,6.52-.02,10.5-.17.1,0,.5.05.76.07l4.16-.06,2.21-.03.25-.11c-4.72.13-5,.03-4.61-.11Z"/><path d="m61.49,18.39c-2.2.04-2.58-.03-3.99-.04-.9,0-1.81-.02-1.27-.07.42-.04,1.37-.05,2.24-.07,1.04-.02,2.36-.03,3.06-.06,1.31-.06,3.39-.15,3.15-.18-.58-.07-2.47.04-3.79.05-.8,0-1.55,0-2.33,0-1.01-.04-1.93.03-2.89.05-1.61.05-3.32.12-2.84.17,1.85.22-3.13.29-7.6.35.55.05,2.87,0,3.05.06,3.66-.04,7.13-.08,10.83-.13,2.65-.05,2.08-.09,2.38-.15Z"/><path d="m103.99,17.15c3.39-.07,6.15-.28,10.04-.29.79,0,1.76-.1,1.62-.14-6.8.18-13.56.35-20.36.53-3.41.07-6.98.14-10.36.2-2.04.03-3.7.08-5.49.14-.6.16,1.78.13,4.88.02,4.81-.18,9.19-.3,13.2-.26.53-.03,1.06-.05,1.59-.08.53-.06.98-.12,2.82-.11h2.05Z"/><path d="m188.5,15.01l8.52-.19.08-.08c-1.16.02-2.19.03-2.01-.02.18-.05,1.36-.07,2.42-.1.39-.04.42-.08.45-.12-2.12.06-4.01.11-4.26.01-2.72.02-5.53.07-8.4.18-.12.03-.07.06-.39.1-1.39.15-2.52.29,3.06.15,1.8-.04.67.04.53.07Z"/><path d="m158.76,4.3l-4.32-.02v.04s.23.02.23.02l-.22-.02c-1.84-.06-2.83.19-5.16-.04-.37,0-1.09.01-1.05.02.77.14-3.21.15-4.58.23.23.04,1.19.04,2.04.05,1.13-.05,2.93-.02,4.52-.01,1.18.03,1.91-.11,2.54,0,.67.12,2.62.07,3.71.12,1.87-.04,2.73.02,3.36.09,1.12.03,2.44.14,3.14.05l.48-.05c-1.31-.05-1.96-.13-3.79-.16-1.25-.05-.77-.08-.88-.12-5.72-.16.76-.12,0-.2Z"/><path d="m118.39,8.91c-1.81-.08-3.91-.18-5.63-.26-3.53-.2-10.15-.23-12.97-.09,2.63.03,5.56.06,3.71.16,5.05.09,10.1.19,14.89.19Z"/><path d="m158.76,4.5c-5.71-.16.76-.12,0-.2,1.15,0,2.34,0,2.05-.07,3.26.05,6.71.04,9.66.26.14.01.19.02.14.03-4.29,0-4.64.15-4.41.33l-2.74-.06c-1.31-.05-1.96-.13-3.79-.16.12-.04.16-.07-.89-.12Zm3.42-.05c-.69-.03-1.34-.01-1.12.01.43.05-1.75.09,1.53.15,1.64.02,1.5-.01.32-.07-.22-.03-.2-.07-.73-.09Z"/><path d="m83.9,5.74c1-.06,1.83-.04,2.96-.16,2.51-.28,2.75-.17,3.57-.16.75-.03,1.71-.05,2.23-.08,2.01-.13,3.9-.27,5.37-.24,1.21.02-.49.14-1.71.25-2.16.2-3.83.24-5.6.27-1.1.02-2.94.11-3.83.19-3.06.28-4.43.27-6.26.33,1.08-.13,2.17-.26,3.26-.39Zm11.94-.51s-.38.03-.4.03c-.05.01.01.02.03.03l.83-.06h-.47Z"/><path d="m156.2,9.33c4.34.11,8.89.29,12.79.29.99,0,2.37.08,3.34.13,1.76.1,2.96.12,3.92.09-3.65-.24-8.09-.33-12.24-.43-5.38-.13-10.41-.4-15.84-.45-.79,0-1.76-.03-2.11,0,1.1.11,2.96.18,5.12.18,2.6,0,3.82.09,5.02.18Z"/><path d="m33.45,5.26c.02.07-.94.23-2.84.53-1.96.3-2.22.31-2.44.29-.21-.02-.99.06-2.74.37-1.69.3-1.95.41-2.5.55-.9.23.55.04.37.14-.2.12,2.28-.36,2.82-.47,1.46-.33,3.36-.68,5.44-.93,2.06-.24,2.8-.25.92.11.71-.08,1.41-.16,2.11-.3-.65-.07,3.47-.71,5.04-1.01-1.12.11-2.15.2-2.23.16l-3.95.57Z"/><path d="m63.53,7.35c-2.82.14-5.63.35-8.43.73-1.64.26-6.7.72-7.59.95l.39.08c1.85-.15,3.52-.32,5.04-.51.24-.04-.45-.01.66-.13l.35.04c.31-.03.65-.06,1.01-.09,4.36-.41,3.46-.54,7.47-.91.9-.09,1.13-.14,1.1-.17Z"/><path d="m231.21,14.42l-.93-.06c-2.02-.02-4.8.02-4.54-.12.04-.02-.97-.06-2.32-.06-1.35,0-3.03.03-4.33.13-.82.07-2.12.11-3.87.13.08,0,.11.02.14.03l-.08.11c5.25-.03,10.44-.02,15.93-.17Z"/><path d="m205.12,10.86c-.42.08,1.9.2,3.78.31,4.06.22,8.78.5,12.35.63,2.47.09,4.13.18,6.53.32,1.45.09.65-.03.77-.06-5.12-.33-10.09-.64-15.48-.83-2.33-.11-5.28-.25-7.95-.37Z"/><path d="m123.45,4.54l-1.98.05c-1.06.07-2.52.15-2.27.22,5.34-.07,11.07-.24,16.48-.15,2.18.03,2.85-.11,4.82-.15-.1-.06-2.19-.1-2.66-.08-3.33.12-6.04,0-9.03.05-1.93.24-3.55.02-5.36.07Z"/><path d="m33.51,10.34c-.53.06-1.07.13-1.6.19-.98.2-.94.2.74.02.74-.08,1.72-.17,1.89-.17.57.01-2.41.34-2.88.46l2.25-.2,3.5-.38,7.09-.91c-4.86.41-4.76.36.99-.38-2.49.07-4.34.38-6.26.68-1.89.23-2.79.53-5.71.69Z"/><path d="m45.23,18.6c4.46-.06,9.44-.13,7.6-.35-.48-.06,1.24-.12,2.84-.17-.5-.12-2.77.02-4.13.02-.98.13-1.61.27-6.74.23-.85,0-2.22.01-2.57.06-.37.05.69.06,1.8.05h.48s-.43,0-.43,0l1.14.17Z"/><path d="m170.46,4.49c.14.01.19.02.14.03.47.07,3.79.14,3.17.21.86.13,2.11.15,3.38.12,1.12-.02,2.09-.06,3.76.12,1.29.03,2.19.16,3.38.15,1.51-.01.26-.13-1.01-.24-4.34-.18-8.94-.45-12.82-.39Z"/><path d="m198.83,3.47c-1.44-.25-5.05-.62-6.07-.86-.48-.12-5.05-.44-7.54-.58-.41-.02-.68-.03-1.01-.04l-.03.1c3.82.4,7.4.59,11.17,1.03l2.79.29c.36.04.59.06.69.06Z"/><path d="m136.6,9.3c-1.48-.14-11.16-.47-14.27-.48-3.07-.01-1.12.11-1.73.16,1.95.02,3.92.01,5.77.12.4.01,1.76.06,1.85.06,2.49-.07,5.64.1,8.38.15Z"/><path d="m47.5,4.06c1.48-.11,4.39-.52,5.15-.44,1.53-.06,3.03-.22,4.54-.36,2.51-.29,6.51-.49,9.48-.61-.6-.04-.53-.13-3.7.07-1.92.14-4.69.33-7.08.5l-1.32.15h-.42s1.66-.15,1.66-.15c-1.98.13,4.08-.59-3.14.1-.25.08.71.08-2.15.34-.57.09-3.17.34-3.02.39Z"/><path d="m202.96,10.87c.06-.02-.31-.06.61-.02-6.49-.3-13.33-.68-18.96-.65l.15.05,4.25.15c4.64.16,9.28.31,13.96.47Z"/><path d="m66.67,2.66c-2.97.12-6.97.33-9.48.61.35.1,2.69-.17,3.9-.22,2.32-.14,4.67-.19,7.03-.28,2.36-.09,4.72-.19,7.06-.28-.96-.18-5.55.1-8.52.17Z"/><path d="m143.51.63c-3.34.05-7.11.21-9.36.13-.85-.03-2.09.04-2.29.1-.14.05.12.08-1.29.15-.45.13,2.36.01,3.84-.02,3.35-.08,6.74-.16,10.11-.24-.27-.04.57-.11-1.02-.12Z"/><path d="m160.63.25c2.34.11,4.76.22,6.43.21,1.09-.01,1.72.05,2.69.13,3.24.26,6.45.47,9.49.58-3.01-.32-6.79-.55-10.47-.71-2.71-.13-5.41-.22-8.11-.28l-.03.08Z"/><path d="m9.93,17.81c-.75.03-3.06.06,2.3.21,2.79.06,4.08.15,5.51.24.71.04.25.13,2.47.13,1.8,0,1.38-.07,1.05-.13-.32-.06-.49-.11-.73-.17-3.53-.05-7.06-.13-10.59-.29Z"/><path d="m199.41,5.63c-.36.09-.41.19,4.2.34l3.23.08,2.04.08c.87,0,2.07.05,3.24.09l1.21-.05c.1-.07-1.32-.08-2.45-.11-3.83-.11-7.65-.27-11.47-.42Z"/><path d="m33.9,10.63l-2.25.2c-3.01.38-6.17.88-8.74,1.1-.66.05-2.56.38-2.44.37.53-.03-3.61.6-.68.23,4.67-.71,9.79-1.23,14.11-1.9Z"/><path d="m200.43,6.04c-1.17-.02-2.92-.04-3.41-.07-1.98-.13-.1-.08.58-.08.46,0-.14-.05-.94-.09-.92-.04-1.91-.08-1.93-.04-.03.05.25.12.4.18,3.86.28,8.26.48,12.63.65l.14-.09c-.05-.01-.06-.02-.04-.03l-1.16-.05c-2.81-.08-5.48-.19-6.26-.37Z"/><path d="m62.43,7.51c-4.01.37-3.11.5-7.47.91,2.24-.11,4.51-.24,7.44-.63.33-.05.54-.12,1-.16,7.06-.62,1.85-.27.19-.19-.17.04.02.06-1.24.16l.24-.08c-.06,0-.12-.01-.17-.02Z"/><path d="m33.34,18.72c-.93-.07-2.75-.15-4.62-.08-3.57.13-10.03-.14-12.41,0,5.79.14,11.46.14,17.03.08Z"/><path d="m121.1,17.07l-4.16.06-2.18.04c.01.09-1.79.14-3.54.17-4.11.01-7.96.13-11.59.32.35.03,1.47.04,2.22.01,6.22-.25,13.21-.26,19.25-.6Z"/><path d="m66.56,2.14c.21.11.94.18,5.03-.07,3.05-.2,6.91-.14,9.85-.31-4.44-.11-9.82.2-14.89.37Z"/><path d="m229.53,12.65c-1.42-.21-4.23-.46-7.31-.7.6.16-1,.17-3.12.16,2.16.17,4.1.22,6.1.31,1.08-.04,2.82.13,4.34.23Z"/><path d="m112.68,1.58c-3.73-.04-11.5.18-16.16.45,4.61-.05,9.24-.22,13.85-.35.11-.08,1.25-.08,2.31-.09Z"/><path d="m105.2,4.83c1.25-.05,2.1-.1,2.07-.15l-1.37.03-.3-.03,1.02-.02.84.02c1.28-.04,1.89-.09,1.99-.13-3.91.12-7.3.13-11.63.4.39.11,4.02-.03,6.44-.07.31-.01.63-.02.94-.03Z"/><path d="m84.92,17.92c-4.91.1-9.78.2-13.95.39,1.65.03,3.2.03,5.65-.08,3.11-.15,6.98-.15,10.42-.26l-.2-.08c-.63,0-1.28.02-1.93.03Z"/><path d="m155.33.33c-4.39-.02-6.75.17-5.32.32,1.43,0,2.85-.02,4.28,0-.66-.09,2.51-.1,1.89-.18-1.25-.05-.72-.1-.85-.14Z"/><path d="m44.49,9.34l-7.09.91c3.59-.35,7.15-.68,10.5-1.13l-.39-.09-3.02.31Z"/><path d="m166.19,4.84l-2.74-.06-.48.05c4,.11,8.06.28,11.77.29-1.19-.1-3.64-.21-4.09-.3-.77,0-1.42-.01-2.07-.02-.17.05-.28.1-2.39.04Z"/><path d="m160.63.25l.03-.08c-1.77-.04-3.55-.09-5.32-.09-1.09.08-1.01.16,0,.26,2.59.03,1.98.1,2.04.15.41.04,1,.08,2,.08,1.18,0,.48-.04.27-.07-.81-.11-2.35-.25,1-.25Z"/><path d="m121.22,4.26l.06-.08c-3.64.07-7.63.06-10.71.32.54.05-.26.22,3.78-.05,1.75-.12,4.8-.08,6.87-.2Z"/><path d="m123.56,16.93l-.25.11c4.14-.06,7.88-.25,11.7-.41h-2c-2.12.02-2.16-.04-2.46-.1-.29,0-.58.02-.87.02,0,.14-.64.28-6.11.38Z"/><path d="m170.33,15.15c2.82-.08,5.64-.15,8.46-.23,1.82-.05,3.19-.09,3.38-.16-3.76,0-7.95.21-11.86.28,0,.04-.01.07.03.11Z"/><path d="m133.01,16.62h2c3.05-.04,6.21-.05,8.7-.29-2.74.06-5.61.12-8.68.18-1.45.04-1.95.06-2.02.11Z"/><path d="m188.7,5.14c.12.02.15.03.36.05,1.52.13-4.33-.03.09.18,3.19.15,5.25.14,4.98,0-1.87-.1-3.86-.25-5.43-.22Z"/><path d="m156.2,9.33c-1.19-.1-2.42-.18-5.02-.18-2.16,0-4.02-.07-5.12-.18-.75,0-1.72-.04-2,0,.62.05,1.24.11,1.86.16,3.34.08,6.63.16,9.94.24l.34-.04Z"/><path d="m103.49,8.72c1.85-.1-1.08-.13-3.71-.16-1.94-.04-3.17-.02-3.99.02l.05.08c2.5,0,5,.01,7.65.06Z"/><path d="m242.49,13.26c.25.05.47.07.78.18.04.02.09.02.19.15.07.1.06.24-.03.35-.03.03-.1.08-.12.08-.11.05-.17.05-.24.07-.14.02-.26.04-.39.05-.51.04-1.01.06-1.52.08-1.01.02-2.03.04-3.03.06-2.01.03-3.96.06-5.68.13,1.94.02,3.88,0,5.83-.03l2.92-.08c.49-.02.97-.04,1.47-.08.13-.01.25-.02.39-.05.07-.01.13-.02.25-.06.03-.01.05-.02.11-.06.03-.03.04-.02.09-.09.04-.07.07-.16.06-.22,0-.07-.03-.15-.08-.2-.04-.05-.04-.04-.07-.07-.04-.03-.09-.06-.1-.07-.34-.14-.54-.15-.8-.2l-.03.07Z"/><path d="m6.38,14.87c-.3-.07-1.56.17-3.02.59-.73.21-1.53.46-2.23.8-.34.15-.72.45-.53.5.23.17.6.27.9.34-.07-.05.07-.04-.14-.12-.1-.04-.31-.09-.59-.23-.06-.03-.13-.09-.13-.09,0,.01.02.04.01.06,0,0,.03-.03.04-.05.14-.14.45-.29.8-.44,1.44-.58,3.22-.97,4.88-1.35Z"/><path d="m192.98,5.84c-.38-.07.03-.14-2.38-.25-3.25-.14-1.31.08-3.19.04,2.59.21,3.72.13,5.57.2Z"/><path d="m123.35.78c-1.59.07-3.17.15-4.76.22,3-.08,3.19,0,3.62.06.25.04.96.05,2.39,0,.53-.02,1.37-.06,1.54-.08.47-.06-.69-.04-1.61-.03-3.31.03,2.65-.23-.23-.21-.3,0-.62.01-.95.02Z"/><path d="m97.74,8.24c2.12-.02,4.99.24,6.65.06q-.9-.13-6.65-.06Z"/><path d="m210.73,4.72c-2.77-.47-2.58-.51-3.2-.68-2.18-.32-4.58-.68-6.36-.8l.06.05c1.57.2,4.32.53,4.57.64.54.24,2.78.47,4.93.79Z"/><path d="m216.42,6.67c.19-.06.33-.11.41-.24.07-.15,0,0-.11.06-.22.1-.53.11-.96.13-.84.03-2.04-.02-2.81-.06l-1.67.03-1.32.1c1.1.05,2.13.07,3.18.07,1.06-.01,2.08.04,3.29-.1Z"/><path d="m33.3,18.27v-.11c-1.99-.03-3.99-.06-6.2-.03.02.06-.74.13,2.24.13,2.25,0,3.28.03,3.2.1.99-.03.68-.06.76-.1Z"/><path d="m219.09,12.11c2.12.01,3.73,0,3.12-.16-2.19-.04-5.38-.14-5.85-.04l.43.09,2.29.11Z"/><path d="m143.51.63c1.59,0,.74.08,1.02.12l3.2-.03c.5-.12.57-.26-4.26-.2l.05.11Z"/><path d="m86.85,17.89l.2.08c2.07-.04,3.85-.11,5.36-.19-1.33-.22-3.47-.04-5.55.11Z"/><path d="m162.34,9.96s.22-.04.01-.07c-.59-.08,2.48-.1-.83-.2-2.93-.09-.41.09-.83.13-.12.01-1.1,0-1.68-.01.71.06,1.35.13,3.32.15Z"/><path d="m229.53,12.65c-1.52-.1-3.25-.27-4.34-.23l2.33.15c.88.05,1.64.1,2.04.15l4.33.25-.9-.1-3.47-.22Z"/><path d="m30.81,11.46s-.08.03,0,.03c.37,0-1.2.26,1.4-.06.89-.11,2.54-.39.84-.24l-2.23.27Z"/><path d="m164.97,15.4c.07-.07,2.77-.18,2.12-.24l-3.27.09c.39.05-.75.15,1.15.15Z"/><path d="m37.39,4.7c.08.04,1.11-.05,2.23-.16,4.69-.61-1.04.03.23-.17-.2.02-.48.05-.82.09l-1.41.18c-.29.04-.37.06-.24.05Z"/><path d="m200.33,3.61l-2.12-.21c.93.18,3.5.46,5.1.71l.12-.06-.08-.09c-.57-.07-1.01-.13-1.44-.18-.17.02-.88-.08-1.59-.17Z"/><path d="m48.28,18.66c-.18-.06-2.5-.02-3.19-.06l-1.7.05,1.37.04c1.13.01,2.3,0,3.52-.03Z"/><path d="m159.83,4.78c-.63-.08-1.49-.14-3.36-.09.9.05,1.26.15,3.36.09Z"/><path d="m214.12,14.5l-3.37.09c-.16.1,1.71.05,3.36.01v-.1Z"/><path d="m150.22,4.56c-1.6-.01-3.4-.04-4.52.01,2.3.09,3.53.05,4.52-.01Z"/><path d="m19.66,13.37c1.04-.22,2.23-.46,3.59-.75-1.15.24-1.87.22-3.59.75Z"/><path d="m233,12.88l.9.1,2.13.15-.09-.04c-.96-.11-1.94-.19-2.94-.21Z"/><path d="m186.45,1.75s-.03.01-.14,0c.15.01.31.02.49.03.1-.02.2-.04.31-.05h-.66Z"/><path d="m229.57,12.73c-.41-.06-1.16-.11-2.04-.15-.03.06.67.11,2.04.15Z"/><path d="m151.16.05c.12.03-.08.07,1.11.06.87,0,.71-.03.06-.05h-1.17Z"/><path d="m203.43,4.05l-.12.06c1.09.13,1.85.21,2.2.22l-2.08-.27Z"/><path d="m198.13,3.42l-2.79-.29c1.17.17,2.1.27,2.79.29Z"/><path d="m170.28,15.15l.02-.11c-.71.01-1.08.03-1.11.06.1.03-.42.08,1.09.05Z"/><path d="m53.95,8.51l-.35-.04c-1.12.12-.42.09-.66.13.34-.03.68-.06,1.01-.09Z"/><path d="m112.68,1.58c-1.06.01-2.19.02-2.31.09.97-.02,1.93-.03,2.31-.09Z"/><path d="m155.87,9.37c-3.31-.08-6.61-.16-9.94-.24-1.16-.02-1.66-.01-1.76.02l-.15.11c1.84.05,2.44.1,1.78.14-.31.02-.74.05.48.08.35,0,.92.02,1.39.02.47,0,.85,0,.85,0-.22-.16,4.65-.04,6.54-.08.39,0,.55-.03.82-.04Z"/><path d="m86.47,8.2c-2.26-.05-4.52-.09-6.72-.04,3.8.03.69.14,3.36.18l4.27.09c-.55-.08-2.81-.16-.91-.23Z"/><path d="m200.61,11.14c1.8.14,4.14.24,6.58.35-.07-.04.27-.08-.32-.14-.79-.07,2.41,0-.49-.13-2.01-.09-1.62-.01-1.41.05.1.03.11.1-1.2-.03-2.39-.24-1.9-.03-3.16-.1Z"/><path d="m123.7,8.66l-3.22-.09c-.42.03-3.17.02-.74.1,2.57.09,3.43.04,3.96-.02Z"/><path d="m131.36,8.84c.94,0,1.8-.02,1.23-.06-1.72-.1-3.69-.06-5.58-.1.16.1,2.64.12,4.36.16Z"/><path d="m189,10.4l-4.25-.15c.23.07,1.57.15,3.27.21,1.31.04.88-.02.98-.05Z"/><path d="m236.06,12.99c.29.02.6.04.91.06l.13-.06c-1.29-.1-2.87-.22-3.45-.2l2.41.19Z"/><path d="m119.65,8.56c-.44-.09-1.96-.09-3.48-.09l.11.07c1.14,0,2.26.01,3.38.02Z"/><path d="m140.22,9.31c.23.01.45.02.67.03l.61-.02c-.28,0-.6-.02-.82-.03-.21,0-.31,0-.46.01Z"/><path d="m197.32,11.01l2.48.1c-.31-.03-.54-.08-.96-.09-1.2-.06-1.19-.01-1.52,0Z"/><path d="m132.31,8.96l-1.04-.09c-1.62.02-.35.06,1.04.09Z"/><path d="m116.27,8.54c-.58,0-1.42-.03-1.42,0,0,0,.42.03.63.03.98.01.7-.02.79-.03Z"/><path d="m144.01,9.25l.15-.11c-1.38,0-1.5.04-.15.11Z"/><path d="m173.17,10.11s-.19-.02-.34-.03c.02.02.19.02.34.03Z"/><path d="m239.28,13.18l.05-.03-2.2-.15c.7.06,1.43.12,2.15.18Z"/><path d="m135.55,8.99l.24.02c-.09,0-.18-.01-.24-.02Z"/><path d="m115.63,8.46l-.31-.04c-.93,0-.74.02.31.04Z"/><path d="m141.49.52c1.3-.09,3.32-.18,1.84-.24-.64-.02-1.4-.05-2.74-.02-1.98.04-2.2.1-2.47.16,1.03.03,1.54.08.67.17-.4.04-.3.07.86.04,1.41-.03,1.62-.08,1.84-.11Z"/><path d="m50.52,3.67c2.85-.27,1.9-.26,2.15-.34-1.06.09-2.54.25-2.7.19-.08-.03-1.11.03-2.05.13-.96.11-1.84.24-2.18.32-.56.12,1.29-.11,1.87-.14,1.14-.08,1.96-.12,2.91-.16Z"/><path d="m105.42,1.37c-1.95-.13-5.56.03-8.98.15,2.5.04,5.33.01,8.98-.15Z"/><path d="m108.08,1.28l-1.1.04c-.19.02-.3.03-.57.05-2.05.1-3.42.18-1.3.21.55,0,2.08-.01,1.82-.04-.62-.07,6.14-.29,1.15-.25Z"/><path d="m131.71.53l-3.09.08c-.03.05-2.61.2.13.14,2.03-.04,3.44-.15,2.96-.22Z"/><path d="m117.12,1.04h-3.44c.08.04-1.77.14-.19.13,1.25,0,2.61-.07,3.63-.13Z"/><path d="m57.07,2.94c.63-.03,1-.05,1.37-.06.39-.04.78-.07,1.16-.11-.33.01-.63.02-1,.04-.38.03-.82.07-1.53.13Z"/><path d="m111.37,1.1l-2.97.11c-.14,0-.28.02-.43.03l.14.03c1.33-.05,3.29-.09,3.26-.17Z"/><path d="m134.44.45c-.88,0-1.76-.01-2.66.08l2.66-.08Z"/><path d="m63.51,2.34c.31,0,.46-.01.61-.02-.11,0-.22,0-.61.02Z"/><path d="m7.25,14.16c-1.17.24-2.52.54-3.2.76-.24.13-1.25.37-2.35.76-.27.1-.55.21-.82.34-.13.08-.27.14-.39.24-.12.08-.28.23-.27.48.07.24.23.31.35.38.13.06.25.11.37.15.23.07.45.12.63.15.54.12,2.35.46,3.16.44.5,0-1.28-.2-2.37-.42-.55-.12-1.05-.21-1.56-.42-.12-.05-.25-.12-.34-.22-.1-.1-.02-.23.08-.34.23-.2.55-.35.91-.51,1.82-.74,4.06-1.23,5.79-1.48,1.04-.15,2.9-.55,3.99-.77,1.91-.38.35-.14-.77.03-1.77.27-3.52.58-3.21.42Z"/><path d="m33.3,18.27c-.08.03.22.07-.76.1-.25.04-2.87.05-1.58.12.46.02,1.5.05,2.18.04,2.3-.01.77-.08,1.27-.12.28-.02.49-.05.91-.07.82-.04,3.23-.07,2.33-.11-1.04-.05-2.77.04-4.35.03Z"/><path d="m25.5,18.4c-.23,0-.45-.02-.66-.02l-.62.03c.28,0,.59.01.82.02.2,0,.31-.01.46-.02Z"/><path d="m27.35,11.03l1.06-.14c-.34.04-.71.09-1.06.14Z"/><path d="m46.75,10.2c-.22,0-.29-.03-1.72.1.2.01.88-.04,1.72-.1Z"/><path d="m74.28,6.46l-2.18.15s.48.08-.19.15c-1.18.12-2.24.22-1.84.25.2.01.85-.05,1.1-.08.94-.12,4.1-.33,3.25-.37-.28-.01-.11-.06-.14-.1Z"/><path d="m80.63,6.13c-.67.01-.72-.04-2.25.06-.21.01-.75.08-.69.08.3.04,1.78-.07,2.94-.14Z"/><path d="m105.2,4.83c-.31.01-.63.02-.94.03,0,.03-.2.07,1.04.02l-.1-.06Z"/><path d="m62.6,7.53l-.24.08c1.26-.1,1.07-.12,1.24-.16l-1,.08Z"/><path d="m67.81,7.01l.38.02c1.03-.11-.03-.03-.38-.02Z"/><path d="m83.11,8.35c-2.67-.04.43-.15-3.36-.18-1.38-.02-2.36.04-3.08.09-1.53.11-3.4.24-.55.21,2.24-.02,3.4,0,4.3-.04.9-.03,1.53-.07,2.69-.08Z"/><path d="m65.13,8.98c1.54-.1,4-.16,3.87-.25-.05-.03-.67-.06-2.41.05-1.69.11-4.17.3-4.26.34-.18.08,2.01-.12,2.81-.15Z"/><path d="m66.8,8.65c-1.21.03-1.96.03-2.83.08-1.11.06-3.08.18-3.15.24-.04.03.68.02,1.86-.05,1.26-.08,2.49-.16,4.13-.27Z"/><path d="m52.12,9.79c-.15-.01-.15-.04-1.27.05-.35.03-.54.06-.8.1l2.07-.14Z"/><path d="m71.06,8.56c-.35.03-.13.02.08,0h-.08Z"/><path d="m54.16,9.68l-.49.03-.49.03c.33,0,.65-.03.97-.07Z"/><path d="m182.05,1.48c.22.08,1.32.18,2.88.3,1.98.14,1.2.02,1.4-.02-1.92-.17-2.01-.06-4.28-.28Z"/><path d="m157.37.48c-.05-.05.56-.12-2.07-.16.16.05-.36.09.88.14h1.19Z"/><path d="m182.03,1.48l-.24-.03c.08.01.17.02.24.03Z"/><path d="m84.92,17.92l1.95-.03c-.34-.02.65-.09-.91-.06-.89.02-1.11.06-1.04.09Z"/><path d="m111.21,17.34c1.76-.03,3.56-.08,3.54-.17-1.31.07-2.77.1-3.54.17Z"/><path d="m210.73,4.72c-2.15-.32-4.39-.55-4.93-.79-.24-.11-3-.44-4.57-.64.85.19,1.52.36,2.58.58,2.27.47,6.47,1.05,9.89,1.58.43.07.64.08,1.16.19.97.2,1.47.36,1.51.34.05-.03-.37-.26-1.33-.51-.8-.21-.8-.2-1.27-.22-.22,0-.17.05-1.64-.22-.45-.08-.94-.21-1.42-.31Z"/><path d="m206.69,6.41l1.16.05c2.06-.04-1.13-.3-1.02-.42l-3.23-.08c-.31.1,3.95.36,3.09.44Z"/><path d="m212.12,6.21c-1.17-.03-2.38-.09-3.24-.09.03,0,0,.01.11.02,1.44.1,1.17.21,2.94.25,2.61.03-.3-.13.2-.18Z"/><path d="m215.66,5.92c-.3-.07-.65-.15-.62-.13.09.04.31.12.47.18.14.02.38.09.38.08.01-.01-.13-.07-.23-.13Z"/><path d="m200.33,3.61c.7.09,1.42.19,1.59.17-.67-.09-1.6-.23-1.59-.17Z"/><path d="m203.36,3.97l.44.04c-.19-.02-.38-.04-.44-.04Z"/><path d="m44.49,9.34l3.02-.31c.89-.24,5.95-.7,7.59-.95-.17-.03.25-.14-2.18.09,1.04-.03-.72.17-1.84.3-1.36.16-2.02.17-2.53.18l-3.07.3c-5.75.74-5.85.79-.99.38Z"/><path d="m48.55,8.66c.52-.01,1.17-.02,2.53-.18,1.12-.13,2.88-.33,1.84-.3-1.66.16-3.72.33-4.37.48Z"/><path d="m33.51,10.34c2.92-.17,3.82-.47,5.71-.69-2.33.19-4.05.44-5.71.69Z"/><path d="m27.33,11.04l1.1-.14c-.37.01-.74.06-1.1.14Z"/><path d="m166.19,4.84c2.11.05,2.22,0,2.38-.04-.32-.08.79-.04,1.96.02.66-.05.2-.16,3.24-.09.62-.07-2.7-.14-3.17-.21-4.28,0-4.64.15-4.41.33Z"/><path d="m200.4,6.04l1.35.05c-.75-.07-.95-.04-1.35-.05Z"/><path d="m197.88,14.62c-.51.04-.65.08-.79.12,2.16-.04,4.31-.09,6.46-.13,1.94-.04,1.98-.09,2.06-.14-1.16.01-2.57.05-3.26.02l-4.48.13Z"/><path d="m228.1,14.03s-.15-.08-1.34-.07c-.54,0-1.24.04-1.88.07.77.03,2.03.01,3.22,0Z"/><path d="m202.36,14.49c.69.04,2.1,0,3.26-.02-.66-.04-1.99,0-3.26.02Z"/><path d="m215.22,14.45s1.01-.06.06-.06c-.1,0-.4,0-.49.01-.62.04-.26.05.44.05Z"/><path d="m123.45,4.54c1.8-.06,3.43.17,5.36-.07.3-.16-3.61-.03-5.41-.03.03.04.04.07.06.11Z"/><path d="m145.89,4.31h-.44c.14,0,.27,0,.44,0Z"/><path d="m123.4,4.44h-.23c.08,0,.16,0,.23,0Z"/><path d="m239.28,13.18l-2.17-.19-.13.06c1.52.13,2.26.18,2.3.13Z"/><path d="m123.56,16.93c5.47-.1,6.1-.23,6.11-.38l-1.18-.12c-4.07.03-6.38.25-9.54.38-.39.14-.11.24,4.61.11Z"/><path d="m175.36,15.15h.47s-.2-.02-.47,0Z"/><path d="m108.4,1.21h-.76c.11.01.23.02.34.03.14,0,.29-.02.43-.03Z"/><path d="m164.94,15.4c.37,0,.74,0,1.13,0,0,0,.2-.01.3-.02-.47,0-.93.01-1.44.02Z"/><path d="m103.99,17.15h-2.05c.14.06.24.1,2.05,0Z"/><path d="m197.09,14.74l.42-.11c-1.06.02-2.23.05-2.41.1-.18.05.84.04,1.99.02Z"/><path d="m159.65,4.62c.12-.04.16-.07-.89-.12.11.04-.37.07.89.12Z"/><path d="m154.44,4.32l.22.02c-.08,0-.16-.01-.22-.02Z"/><path d="m162.91,4.54c-.22-.03-.2-.07-.73-.09-.69-.03-1.34-.01-1.12.01.43.05-1.75.09,1.54.15l.31-.07Z"/><path d="m162.91,4.54l-.31.07c1.63.02,1.5-.01.31-.07Z"/><path d="m96.31,5.23c-.15,0-.29,0-.47,0-.02,0-.38.03-.4.03-.05.01.01.02.03.03l.83-.06Z"/><path d="m44.1,18.43h.43c-.16,0-.32,0-.43,0Z"/><path d="m55.81,3.22l-1.66.16h.42c.44-.06.87-.12,1.24-.16Z"/><path d="m105.91,4.71l1.37-.03c-.1-.02-.38-.02-.66-.03l-.71.05Z"/><path d="m170.53,4.82c-1.17-.05-2.27-.1-1.96-.02l1.96.02Z"/>
                  </g>
                </mask>
              </defs>
              <path class="mask" d="m18.69,7.99c10.13-1.94,25.56-4.39,44.83-5.43,5.92-.32,10.21-.39,13.36-.45C136.9.99,145.57-.45,169.22.76c24.9,1.27,47.57,4.51,47.45,5.49-.17,1.38-45.04-3.26-103.86-1.52C53.62,6.48.09,14.11.36,16.71c.36,3.34,89.82.82,113.15.27,15.64-.37,22.33-.7,36.44-1.15,7.88-.25,22.45-.65,38.33-1.01,42.87-.98,54.94-.59,54.96-1.06.05-1.17-74.05-4.79-158-5.4-2.54-.02-4.69-.03-6.28-.04,0,0-5.72-.03-24.09,1.21-17.24,1.17-40.16,2.67-48.36,9.53-1,.84-3.34,2.79-2.82,5.03.6,2.63,4.75,3.98,5.62,4.25"
                    mask="url(#path-mask)" stroke="black" stroke-width="2" fill="none"
                    stroke-dasharray="911.2979125976562" stroke-dashoffset="911.2979125976562">
              </path>
            </svg>
        