
            <svg xmlns="http://www.w3.org/2000/svg">
              <defs>
                <mask id="path-mask">
                  <g fill="white">
                    <path d="m151.79,1.7c.59-.15.21-.45.32-.68l.43.1c.36.21.77.35,1.11.61.7.53,1.98.29,2.52-.35.38.05.61-.06.77-.25.51.17,1.24-.23,1.64.2.11.28.56.54.2.86-.26.21-.55.32-.98.14-.36-.15-.68-.12-.87.14h-.33c-.41.16-.98-.66-1.29.09-.13,0-.37-.03-.37-.03-.31.65-1.08.37-1.74.31v-.17c.17-.08.13-.12-.08-.14-.03.01-.07.01-.1.01l-.03-.25c.11-.02.28.01.27-.1,0-.02-.08-.07-.12-.07-.19,0-.13.1-.15.16l-.65.13c-.05,0-.11.01-.16.01.08-.14.61-.27.14-.42-.5-.16-.67.08-.76.31-.09.24-.3.29-.64.14-.04-.35-.52-.22-.85-.26v-.11c.33-.19.08-.22-.19-.24-.37-.23-.4.12-.63.13l-.05-.05.05.04c-.02.2.12.46-.54.38-.42-.05-.77.03-.69.35l-.41.04-.37-.4c.22-.01.32-.09.34-.21.27-.12.29-.24.02-.37-.36-.02-.48-.12-.35-.32.06-.09.14-.21-.1-.23-.14-.01-.44.08-.43.12.05.52-.89.55-1.26.85-.07.06-.1.14-.15.21l-.06.15c-.84.03-1.73-.13-2.48.27-.19.1-.46-.02-.65-.09-.35-.13-.58-.07-.76.12l-1.63-.2-.03-.15c-.05-.22-.31-.32-.64-.29-.26.02-.17.19-.19.3-.9.09-1.8.19-2.75.24l.04.05c-.01.06.06.14-.12.16-.05.09-.07.19-.3.18.08-.33-.38-.41-.74-.46-.79-.12-1.72-.3-2.41-.1-.48.14-.8.16-1.27.15-.28,0-.12.22-.14.35l-2.72.05v-.24c.18-.14.13-.28.04-.43-.16-.27.07-.4.56-.39l.43-.13c.26-.02.56.03.67-.18l-.47-.07c-.06-.12-.34-.24.02-.35.19.13.38.15.57,0h.68c.28.4.84.67,1.44.92.42-.27,1.04-.46,1.12-.87.6.05,1.19.13,1.79,0,.02.14-.05.31.07.4.16.13-.46.34.1.35.39,0,.31-.2.27-.36-.02-.07-.03-.33.23-.09.47.45.37-.18.77-.1.06.06.11.18.19.18.23.02.23-.11.29-.2.76.03,1.5-.19,2.31.01.42.11.64-.27.76-.51l3.73-.02c0,.08-.04.17,0,.24.12.2-.47.58.17.59.57,0,.07-.34.15-.53.02-.05.21-.08.32-.12,1.05-.29,2.18-.26,3.27-.26.32,0,.83-.33,1.09.06.29.36,2.19.8,2.79.65Zm-3.62-.47l-.12.12c.05.01.12.04.16.03.04,0,.06-.05.09-.09l-.13-.06Zm-6.19.47s-.06-.01-.09-.02c0,.05.04.05.09.02Z"/><path d="m15.19,3.15c-1.39.13-2.77-.1-4.15-.13-.18-.67-1.08-.3-1.65-.39-.11-.2-.1-.44-.72-.25-.38.12-.92.06-1.4.08-.38-.09.81-.82-.6-.48-.21-.02-.5.06-.52-.17-.01-.12-.21-.26-.4-.22-.19.04-.36.18-.43.3-.11.2.25.11.36.16.22.11.38.27.56.4-.12.16-.62.07-.6.32-.31-.36-1.41.12-1.4-.38,0-.25.45-.53.64-.83.2-.31,1.04-.37,1.71-.32.3.03.59.14.88.15.29.02.64.22.86.03.23-.2-.57-.12-.42-.36.46-.17.95-.24,1.48-.09.03.39.17.68.97.35.6-.25,1.34.3,1.92-.09h.22s.42.12.42.12c.7.42,1.45.5,2.28.14.48.32,1.03.48,1.74.26h.3s-.06.07-.11.09c-.4.14-.67.3-.26.57.11.07.4.15.35.03-.12-.28,1.2-.37.24-.76.26-.04.64.02.64-.25h.45c.01.16-.35.3-.04.43.24.1.51.04.71-.08h.28c.58.06.62.33.7.58.05.15.18.26.46.26.1,0,.27-.06.3-.11.09-.15-.13-.19-.31-.25-.64-.22.52-.47-.03-.69.14-.24.5-.22.84-.22v.17c0,.17-.51.39.02.48.39.07.67-.14.6-.41h.52s.71.25.71.25c.2.19.29.39.12.61-.08.1-.06.2.17.22.27.02.32-.1.36-.22l.38.12v.37c-.65-.04-1.38.11-1.81-.37-.16-.18-.41-.08-.45.1-.03.13.02.28-.26.36-1.13.32-2.29.34-3.48.09-.72-.48-2.23-.46-3.15.04Zm-7.4-1.19c.08,0,.15-.05.23-.08-.06-.04-.12-.1-.19-.1-.07,0-.16.04-.3.08.12.05.19.1.26.1Z"/><path d="m83.3,2c.54-.1.79.13,1.07.33.14.1.05.39.48.28.35-.09.27-.29.2-.47-.06-.17-.1-.35-.14-.52l1.28-.06c0,.18-.14.43.44.4.44-.02.64.09.62.34-.05.14-.56.17-.31.38.09.07.29.15.42.14.45-.03.15-.25.25-.38.05-.07.09-.15.18-.21.16-.11.63-.18.45-.33-.2-.17-.54.1-.85.07v-.34c1.21-.09,2.39.01,3.55.21-.19.38-.31.81-1.31.5-.17-.05-.43-.03-.5.12-.07.16.13.2.36.23.07.19.15.39.2.6l-.33.1.27.16c-.79.24-1.53.18-2.22-.12-.18-.23-.54-.5-.9-.27-.69.44-1.95-.23-2.41.48-.68-.18-1.39-.05-2.08-.07.03-.42-.5-.48-.95-.36-.4.11-.63.07-.93-.04.1-.37.81-.11,1.08-.34.11-.09.46.28.62.01.1-.16-.25-.31-.47-.44-.22-.13-.39-.16-.69-.02-.38.17-.82.29-1.16-.09-.2-.23-.57-.06-.79.03-.38.15-.07.25.15.35.35.16.69.34.63.64l-.22.11c-.39-.47-1.15-.29-1.79-.34-.25-.02-.82.15-.65-.3.04-.11-.73.07-.76.19-.05.25-.25.23-.54.23h-.21c-.39.09-.85.27-.69-.21.19-.27.19-.26-.14-.35-.14-.04-.34-.1-.37-.18-.11-.26.47-.18.57-.36.59-.05,1.21-.32,1.71.13.13.12.5-.06.48-.09-.1-.17.71-.24.14-.43.02-.12.09-.14.32-.12.77.06,1.54.25,2.33.03.11.89.99.18,1.5.24.59,0,1.03-.33,1.65-.25-.15.24-.59.59.45.4Zm2.45.39l-.12.11c.05.01.11.04.16.03.04,0,.06-.05.09-.08-.04-.02-.09-.04-.13-.06Z"/><path d="m171.84,2.39c.74-.21,1.65.13,2.33-.28.62.5,1.53.07,2.26.21.21.04.28.02.43-.05.44-.2.53-1.21.03-1.33-.52-.12-.69-.31-.83-.59-.14-.29-.41-.58-.89-.09-.05.05-.26.11-.35.1-.86-.17-1.67.09-2.52.11-1.94.04-3.88.15-5.81.24v.27c.17,0,.31,0,.35.12.29-.06.63-.13.87-.13.57-.02,1.27-.29,1.74.09.28.22,2.26.61,2.66.46.07-.03.13-.1.12-.14-.11-.37.27-.2.44-.12.21.09.33.24.51.35.1.06.41-.04.39.1-.02.09-.2.17-.44.21-.51.07-1.23,0-1.28.49Z"/><path d="m61.79,3.63c.51-.08,1.11-.02,1.44-.34-.15-.04-.33-.13-.43-.11-.39.09-.76.23-1.05-.08-.23-.25.1-.39.34-.56.42-.3.75-.16,1.09.05.21.13.57.18.75.08.6-.35.86-.02,1.22.16.23.02.52-.03.57.16.01.04-.09.13-.13.13-.3-.01-.31-.18-.44-.29l-.64.62c.42.5.97.18,1.48.08-.01-.17.02-.32.39-.35,0-.12.03-.24-.03-.35-.16-.33.45-.28.64-.44.05-.04.18-.08.22,0,.08.18-.13.26-.36.36-.13.06-.03.28-.04.43.2-.17.78.1.84-.24-.07-.04-.28-.07-.08-.16l.07.16c.3.08.12.39.48.38.13,0,.24-.24.35-.38,0-.1.04-.19.22-.24l-.03-.11h-.19c-.32-.2-1.34-.41.04-.57.09-.01.13-.16.2-.24-.59,0-1.22.19-1.75-.18-.07-.04-.86.25-1.4.27-.15.15-.33.17-.65.19-.94.05-1.91-.27-2.81.09-.36-.37-1,.05-1.38-.16-.37-.2-.67-.26-1.13-.08-.63.25-.9.06-.91-.32l-1.03.04c.05.24-.24.39-.45.56.47.31.96.62-.04.91-.13.04-.04.14.08.19.4-.24.99.1,1.34-.1.79-.47.63,0,.73.22h.22c.02-.14.14-.22.39-.22.03-.18.2-.24.44-.25l-.02-.2c.24.02.2.12.2.21.47.2,1.18.24,1.25.68Z"/><path d="m160.09,2.16c.27,0,.46-.09.59-.21.29-.25.65-.49.09-.77-.88-.44-.9.24-1.35.36l-.84-.2c-.4-.43-1.14-.04-1.64-.2l-.02-.31c.48.03,1.03-.33,1.4-.06.46.33.93.23,1.46.16,2.08-.31,4.18-.31,6.29-.21.04.15.04.29-.22.38h-.4s-.21-.12-.21-.12c-.06-.06-.13-.07-.19,0-1.33.09-1.51.23-.99.75.02.02.02.04.03.05,1.17-.35,1.5.7,2.64.48.48-.09,1.11-.13,1.25.32-.31.01-.66.38-.76.19-.21-.36-.53-.17-.85-.17-1.14,0-2.25-.03-3.42.05-1.67.12-3.39-.02-5.1.07-.34.02-.88.13-.91-.25.19-.26.52-.29.87-.14.43.18.72.08.98-.14.44.11.88.25,1.31-.04Zm2.07-.88c.01.13.14.36.48.29.33-.08.81-.26.82-.4.03-.29-.39,0-.55-.06-.3.04-.78-.21-.75.18Zm1,1.07c.22,0,.6,0,.61-.23,0-.13-.14-.25-.37-.23-.25.01-.48.09-.8.15.24.14.39.3.56.31Zm-1.29-.84h-.13s.02.04.02.04c.09,0,.1-.02.11-.04Z"/><path d="m26.43,3.33c.52-.1.92-.06,1.51.06.85.18,1.91.06,2.87.03.48-.02,1,.14,1.45-.06v-.35c-.1-.16-.37-.41-.04-.47.96-.17.84-.8,1.51-1.07-.36,0-.67.08-.95.2-.04,0-.07.01-.09.03-.04.16.11.37-.27.44-.3.06-.52-.01-.56-.21l-.05-.05.05.05c.45.12.46-.26.83-.23.02-.02.03-.04.03-.06-.42-.37-.94-.01-1.4-.07-.59.36-1.22.34-1.85.03-.19-.09-.31-.22-.52-.01-.33.33-.8.21-1.25.09-.65.25-.36.58-.2.89.04.08.18.2-.05.25-.2.04-.31-.04-.39-.14h-.23c.12.27-.5.39-.37.66Z"/><path d="m98.9,3.27c.41.2.84.36,1.41.19.7-.35,1.45-.41,2.25-.12.15-.16.43-.19.69-.26l.42.1c-.05-.11-.13-.32-.15-.32-.77.08-1.3-.36-2.04-.32-.54.03-1.04.01-1.19-.37,0-.01-.06-.02-.09-.02l-.31.13c.09.43-.46.39-.87.35-1.37-.11-2.75.13-4.15-.09-.84-.13-.89-.02-.49-.48.12-.14.2-.29.3-.44-.8.09-1.73-.14-2.37.33.15.04.3.09.45.1.26.02.62-.24.74.02.05.11-.36.31-.61.43-.14.06-.39.04-.6.05-.17,0-.35,0-.44.11-.11.14.07.21.25.28.28.1.35.35.78.34.54.25,1.14.39,1.85.26.81-.37,1.76-.37,2.71-.35-.01-.1.03-.23.2-.22.3,0,.11.17.18.26.4-.35.81-.78,1.08.04Z"/><path d="m165.45,1.09l-.21-.12h-.09s-.09,0-.09,0c-1.33.09-1.51.23-.99.75.02.02.02.04.03.05,1.17-.35,1.5.7,2.64.48.48-.09,1.11-.13,1.25.32.34-.2.96-.1,1.22-.39-.34-.24-.02-.61.15-.6.51,0,.21.32.28.5.02.04,0,.08,0,.12.4.34,1.05-.06,1.49.15.27-.12.5-.12.71.04.06-.49.78-.41,1.29-.49.24-.04.42-.12.44-.21.03-.14-.29-.03-.39-.1-.18-.11-.31-.26-.51-.35-.17-.08-.55-.25-.44.12.01.04-.06.11-.12.14-.4.15-2.38-.23-2.66-.46-.46-.37-1.16-.1-1.74-.09-.24,0-.58.07-.87.13-.28.12-.29-.01-.34-.12v-.27s-.42,0-.42,0c.04.15.04.29-.22.38-.05.06-.09.16-.15.17-.22.03-.22-.09-.25-.17Z"/><path d="m35.59,1.56v.14c.18.27.31.56.52.82.45.56,1.27.63,1.95.16.08-.06.13-.15.23-.18.39-.11.41-.52.03-.68q-.16-.07-.25.2c-.04.12-.03.29-.32.29-.09,0-.19-.14-.28-.22-.55-.1-.51-.39-.63-.63.63-.15,1.26-.13,1.91-.04-.27.38.36.48.66.68l.33-.23.66-.11s.01.06,0,.1c-.4.43.22.81.19,1.22h-.4s0-.04-.02-.05c-.28-.13-.22-.54-.57-.47-.51.1.06.4-.04.61l-.24.27c-.96-.05-1.94.06-2.88-.15h-.41s-.01-.24-.01-.24l.09-.06-.11.05h-.26c-.13-.02-.31-.13-.31.07l-.42.12.06-.04.06.04c-.28-.27-.99-.24-1.19-.68-.09-.21-.99.18-1.47.35-.08.03-.13.08-.2.13-.1-.16-.38-.41-.05-.47.96-.17.84-.8,1.51-1.07.64-.15,1.27-.13,1.86.09Zm2.73,1.32c.02.07.06.13.1.2.03-.03.08-.07.08-.1,0-.05-.03-.11-.05-.18-.06.04-.13.07-.13.09Z"/><path d="m66.38,3.17c-.37.03-.41.18-.39.35l.35.04.27-.02c.67.08,1.32.2,2.03.04.29-.07.71-.08,1.06.05.38.14,1.1.15,1.22.11,1.29-.41,2.53-.2,3.77.01.45.08.74-.11,1.11-.11h5.7c.2,0,.41.05.53-.09.03-.42-.5-.48-.95-.36-.4.11-.63.07-.93-.04-.14.16-.41.12-.64.14l-.22.11c-.39-.47-1.15-.29-1.79-.34-.25-.02-.82.15-.65-.3.04-.11-.73.07-.76.19-.05.25-.25.23-.54.23-.07.11-.14.11-.21,0-.38.1-.84.27-.68-.21h-.31c-.33.18-.66.33-1.12.11-.38.28-.74.65-1.22.05l-.6-.02c-.13.29-.53.19-.86.2-.47.02-.39-.19-.42-.35-.55.42-1.1.29-1.64,0-.12.13-.22.37-.35.38-.37.01-.19-.3-.48-.38-.05.34-.63.07-.84.24h-.43Z"/><path d="m44.12,3.33c.29.22.62.34,1.05.12-.25-.2-.49-.41-.19-.64.23-.18.41.14.66.06.32.39.51.16.73-.04.25-.23.49-.28.66.04.59-.07.5-.37.61-.6-.09-.27-.56-.37-.79-.58-.39-.25-.91-.31-1.41-.2-.37.08-.7.09-1.06.03-.37.15,0,.58-.62.59-.47,0-.39-.28-.46-.46l-.42.03c.03.17.08.35.08.52,0,.11-.2.16-.38.15-.16,0-.27-.07-.18-.15.13-.12.5-.23.11-.36-.1-.03-.44.19-.67.29-.07.04-.11.15-.26.04l.26-.04c-.15-.49-.68-.39-1.22-.26-.17.4.66.6.6.98.9-.22.89.1.82.46.36-.06.66.19,1.03.08-.05-.41.35-.77.97-.72.86.07-.28.36.02.56.04.03.05.07.07.11Z"/><path d="m121.59,2.9h.34s.65-.14.65-.14l.24-.02-.02-.1c-.14-.04-.21-.1-.09-.19.02-.01.08-.02.1-.01.19.07,0,.14,0,.2.34.02.59-.05.75-.24.5-.6,1.31-.12,1.29.02-.05.45.5.42.89.53.49-.16.98-.31,1.48-.47.22-.06.64-.02.52-.26-.1-.2-.56-.05-.68-.11-.36-.19-.91.39-1.12-.1-.27-.03-.6-.02-.64-.25-.23,0-.48.03-.63-.11-.51-.03-1.02-.05-1.52-.1-1-.09-1.85.4-2.86.24v.28c.25-.01.51-.04.64.13-.01.16-.02.32-.4.33l.18.35h.88Z"/><path d="m57.24,3.29c-.13-.05-.21-.15-.08-.19,1-.29.51-.6.04-.91l-.39.03v.35s.05.05.05.05l-.05-.05c-.35-.12-1.11.14-1.05-.37-.58.04-1.11-.41-1.75-.06-.09.05-.5-.09-.52-.29l-.61-.05c-.27.29-1.04.4-.89.84,0,.02-.13.06-.21.09-.45-.7-.65.17-1,.05v.12c1.05.65,1.3.05,1.67-.35l.08-.03-.09.03c.21.06.6.11.6.17.1.88.87.33,1.49.28.65-.05,1.39-.22,1.96.16.28.1.24.41.73.38v-.25Z"/><path d="m23.95,2.43l.38.12c.94.09.92.47.82.87.31.14.29-.09.45-.12-.27-.55.19-1.02,1.05-1.07-.19-.28-.21-.56,0-.84-.21-.29-.4-.09-.58,0,.12.06.15.16-.01.17-.23.02-.19-.12-.21-.21-.49-.4-1.23-.14-1.76-.13-.87.02-1.81-.19-2.63.12v.17s.6.06.6.06c.19-.21.36-.1.53,0l.71.25c.05-.16.1-.33.48-.3.26.02.41.13.53.26.29.3-.11.46-.37.64Z"/><path d="m125.94,2.03c.21.49.76-.09,1.12.1.12.06.57-.09.68.11.12.24-.3.19-.52.26-.5.16-.99.31-1.48.47l.18.21h.24c.66-.36,1.52-.16,2.27-.27.18-.14.13-.28.04-.43-.16-.27.07-.4.56-.39v-.12c.01-.17.16-.25.45-.23.06,0,.12,0,.18-.02-.06-.12-.34-.24.02-.35l-.02-.12c-1.19-.06-2.38-.18-3.57.02.19.27.55.55-.15.77Z"/><path d="m108.89,3.27c.25-.01.23.48.66.11.33-.28.64.11.97,0,.09-.47.53-.38,1-.21.4.14.72.07,1.02-.09.31-.17.44-.36.11-.57-.44-.02-.84-.18-1.31-.08-1.46.32-1.62.31-2.8-.05-.03,0-.08-.02-.09-.01-.59.45-1.51-.18-2.12.22.06.21.07.44.48.54.01-.15.11-.17.39-.15.6.05,1.16.14,1.69.29Z"/><path d="m125.94,2.03c.7-.22.34-.5.15-.77-.46-.13-.78-.37-1.44,0-.47.26-1.43,0-2.2.04-1.03.05-2.11.16-3.15,0-.46-.07-.76-.04-.7.29.05.33.42.31.83.25l.86-.03c1.01.16,1.86-.33,2.86-.24.5.05,1.01.07,1.52.1.12-.06.26-.17.36-.16.23.02.25.16.26.28.04.23.37.22.64.25Z"/><path d="m52.45,2.55c-.37.4-.62,1-1.67.35l-.84.15c-.22.09-.46.17-.4.36.39.31.91.08,1.34.08,1.64-.02,3.29.14,4.95-.04.44-.05.51-.16.67-.3-.57-.38-1.31-.22-1.96-.16-.62.05-1.39.6-1.49-.28,0-.06-.39-.11-.6-.17Z"/><path d="m94.69,1.61c-.1.15-.18.3-.3.44-.4.46-.35.35.49.48,1.39.22,2.77-.02,4.15.09.42.03.97.08.87-.35-.78-.45-1.63-.38-2.57-.15-.6.15-1.07.06-.95-.41-.61.2-1.11-.14-1.69-.1Z"/><path d="m106.32,2.6c.61-.4,1.52.23,2.12-.22,0,0,.06,0,.09.01,1.18.36,1.34.37,2.8.05.47-.1.87.06,1.31.08-.19-.39-.4-.77-1.12-.96l-.53.25c-.19.25-.49.23-.92.19-.52-.05-1.14,0-1.59-.03-.9-.05-1.71.36-2.57.11l.23.5c.06,0,.11,0,.17.01Z"/><path d="m116.89,1.82c-.27.38-.48.73.6.77.35.01.13.17.11.27-.53.24-1.12.1-1.51-.05-.97-.39-1.19-.05-1.39.39l-.2.03c-.64-.21-1.69-.31-.7-.94.18-.11.17-.32.25-.49.55-.01,1.1-.04,1.64-.03.35,0,.62-.01.65-.26l.61.03c-.02.1-.01.2-.07.29Zm-1.74.36s-.06-.01-.11.03c.03,0,.06,0,.11-.03Z"/><path d="m5.65,2.76c-.31-.36-1.41.12-1.4-.38,0-.25.45-.53.64-.83.2-.31,1.04-.37,1.71-.32.3.03.59.14.88.15.29.02.64.22.86.03.23-.2-.57-.12-.42-.36-.98-.42-2.21.04-3.22-.35-.32-.12-.25.23-.51.27-.25.14.87.34-.06.45-.31.37-1.13.57-1.01,1.08.19.03.44.04.56.11.31.18.29.8,1.08.24,0,0,.28.15.46.18.51.11,1,.07,1.43-.12-.14-.48-.72,0-1-.16Z"/><path d="m2.93,1.08c-.25-.02-.44-.09-.57-.23-.33-.34-.95-.56-1.45-.35C.48.69.07,1.02.02,1.42c-.1.73.44.97,1.68.85.3-.03.67.15,1.01.24.38-.29.24-.59-.16-.8-.4-.21-.78-.06-1.08.18-.11.09-.6.23-.55-.04.04-.24-.24-.46-.06-.69.11-.14.17-.32.5-.34.35-.02.49.14.53.3.04.18.09.32.47.31.37-.01.57-.12.57-.34Z"/><path d="m105.92,2.08c.86.25,1.67-.17,2.57-.11.45.03,1.07-.01,1.59.03.43.04.73.06.92-.19-.73-.6-1.82-.25-2.71-.27-1.34-.03-2.71.25-4.01-.12l-.11.16c.19.18.88.39-.16.48-.34.03-.53.23.06.3.61-.1,1.06-.6,1.85-.27Z"/><path d="m58.68,1.59c.01.38.28.57.91.32.46-.18.76-.12,1.13.08.38.21,1.02-.21,1.38.16.9-.36,1.87-.04,2.81-.09.32-.02.5-.04.65-.19-.86-.33-1.79-.35-2.79-.29-.64.03-1.29.06-1.99-.08-.61-.12-1.39.05-2.1.09Z"/><path d="m18.11,1.43h.45s.66.34.66.34h.28s.93-.23.93-.23c-.54-.61-1.63-.43-2.41-.46-1.55-.06-3.12.08-4.68.14l-.42.12c.7.42,1.45.5,2.28.14.67-.11,1.37-.32,1.74.26h.3s.21-.03.21-.03c0-.09-.01-.13-.02-.17l-.06-.09.15.04.58-.08Z"/><path d="m133.49,1.41c.59.05,1.19.13,1.79,0,.47-.02.93,0,1.28.21.32,0,.48-.01.64-.02.76.03,1.5-.19,2.31.01.42.11.64-.27.76-.51-2.29-.09-4.58-.09-6.87.1l.09.21Z"/><path d="m117.6,2.85c-.53.24-1.12.1-1.51-.05-.97-.39-1.19-.05-1.39.39,1.59.11,3.19.32,4.78-.05.38-.09.63.17.94.13.43-.06,1.1.09,1.17-.36h-.88s-1.45-.09-1.45-.09l-1.66.04Z"/><path d="m149.23,2.01c-.02.2.12.46-.54.38-.42-.05-.77.03-.69.35,1.71.22,3.42.44,5.19.11v-.17s-.08-.14-.08-.14c-.03.01-.07.01-.1.01-.3.08-.59.16-.68-.12-.05,0-.11.01-.16.01l-.63-.1c-.09.24-.3.29-.64.14-.37-.03-.75.26-1.09.03-.11-.08.05-.21.23-.28v-.11s-.19-.24-.19-.24c-.37-.23-.4.12-.62.13Z"/><path d="m114.5,3.22c-.64-.21-1.69-.31-.7-.94.18-.11.17-.32.25-.49-.3-.03-.2-.17-.22-.27l-.41.04c.13.26-.4.37-.41.6l.27.05s-.06.04-.06.04l-.22-.09c-.36-.16-.14-.39-.22-.59-.41-.29-.83-.33-1.26,0,.72.18.93.56,1.12.96.33.21.19.4-.11.57-.3.16-.62.24-1.02.09-.47-.17-.91-.26-1,.21,1.05.06,2.12-.15,3.16.05.41.08.62-.06.83-.22Z"/><path d="m104.06,2.35c-.58-.07-.39-.27-.06-.3,1.04-.09.35-.29.16-.48-.18.23-.5.06-.75.1.03.15-.16.37-.31.31-.76-.3-1.29.18-1.95.15-.35.19-.37.03-.4-.12-.36-.19-.45-.02-.55.14.03,0,.09.01.09.02.15.38.65.4,1.19.37.75-.04,1.27.39,2.04.32.02,0,.1.21.15.32l.81.22.43.13.05-.34c-.92-.06-.97-.42-.9-.84Z"/><path d="m92.89,3.28c-.43.01-.5-.24-.78-.34-.18-.07-.35-.14-.25-.28.08-.11.27-.1.44-.11.2-.01.46.01.6-.05.25-.12.66-.32.61-.43-.11-.26-.48,0-.74-.02-.16-.01-.3-.07-.45-.1-.2-.19-.38,0-.56.01-.31.1-.64.24-.55.44.36.79-.61.79-1.47.87.11.17.56.09.59.31.71-.13,1.39.1,2.11.06.52-.03.4-.2.46-.35Z"/><path d="m101.15,2.13c.66.04,1.19-.45,1.95-.15.15.06.34-.15.31-.31-1.32-.03-2.64,0-3.96.08-.66.04-1.36-.03-2.02-.11-.4-.05-.72,0-1.07.06-.11.47.35.56.95.41.94-.23,1.79-.3,2.57.15l.31-.13c.1-.15.19-.33.55-.13l.4.12Z"/><path d="m117.6,2.85l1.66-.04v-.25c-.21,0-.41-.04-.38-.19.03-.15.26-.15.47-.16.08-.12.08-.25.08-.38-.41.06-.78.08-.83-.25-.53-.13-1.08-.13-1.63-.05-.02.1-.01.2-.07.29-.27.38-.48.73.6.77.35.01.13.17.11.27Z"/><path d="m49.94,3.05l.84-.15v-.12s-.04-.05-.04-.05l.04.05c.36.12.55-.76,1-.05.07-.03.21-.07.21-.09-.15-.44.63-.55.89-.84-.04-.14-.23-.12-.4-.12-.22.19-.57.13-.88.15-.23-.08-.37.42-.49.08-.13-.36-.51-.13-.72-.22-.37.24-.53.1-.65-.12-.22-.05-.47-.29-.61.04l-.09.19c.25.08.38.28.74.28.24.08.15.22.17.34,1.11.22-.15.43,0,.64Z"/><path d="m152.55,1.12c.36.21.77.35,1.11.61.7.53,1.98.29,2.52-.35-.51.01-1.08.05-.73-.43-.98-.08-1.97-.16-2.89.17Z"/><path d="m49.94,2.42c1.11.22-.15.43,0,.64-.22.09-.46.17-.4.36-.63.03-1.31.37-1.88-.09-.03-.02-.04-.05-.03-.08.84-.37.91-.9.86-1.45h.53c.25.08.38.28.74.27-.02.13-.03.25.17.34Zm-.67.39c.13.06.26-.05.22-.11-.08-.14.34-.4-.3-.4-.32.06-.29.15-.06.25.04.09.04.21.14.26Z"/><path d="m64.51,3.45c-.19,0-.35-.24-.58-.04-.49.44-.54.05-.69-.12-.15-.04-.33-.13-.43-.11-.39.09-.76.23-1.05-.08-.23-.25.1-.39.34-.56.42-.3.75-.16,1.09.05.21.13.57.18.75.08.6-.35.86-.02,1.22.16l-.64.62Zm-2.32-.47s.07-.02.08-.03c0-.03,0-.06,0-.09l-.16.05s.06.05.09.07Z"/><path d="m145.22,2.58c-.84.03-1.73-.13-2.48.27-.19.1-.46-.02-.65-.09-.35-.13-.58-.07-.76.12.72.39,1.58.23,2.39.15,1.04-.11,2.03.33,3.08.04.15-.04.34-.04.41-.16-.22-.27-.58-.34-1-.17-.5.21-.74.06-.98-.16Z"/><path d="m2.93,1.08c0,.22-.19.33-.57.34-.38.01-.43-.13-.47-.31-.04-.17-.19-.32-.53-.3-.33.01-.39.2-.5.34-.18.23.1.45.06.69-.05.28.45.13.55.04.29-.24.67-.38,1.08-.18.4.2.54.51.16.8.14.08.27.13.42,0-.11-.5.7-.71,1.01-1.08-.22-.11-.42-.23-.43-.41l-.78.05Z"/><path d="m68.48,2.95c.55.29,1.1.42,1.64,0,.32-.36,1.31-.27,1.49-.73l-.07-.4c-.36-.13-.69-.1-.98.07-.05.07.09.18-.13.22l-.07-.22c-.06-.02-.13-.03-.2-.02-.85.07-.68.73-1.46.84-.18.05-.22.14-.22.24Z"/><path d="m125.91,3.17l-.18-.21c-.39-.11-.94-.09-.89-.53.01-.14-.79-.62-1.29-.02-.16.19-.41.26-.75.24.02.03.02.06.03.1v.37c1.01.14,2.03.39,3.09.06Z"/><path d="m135.71,3.16c.08-.33-.38-.41-.74-.46-.79-.12-1.72-.3-2.41-.1-.48.14-.8.16-1.27.15-.28,0-.12.22-.14.35,1,.08,1.97.24,3.02.02.45-.09,1.03.02,1.55.04Z"/><path d="m56.81,2.21l.39-.03c.21-.17.49-.32.44-.56-1.04-.18-2.15.12-3.2-.23-.42-.14-.56.33-.94.45.02.2.42.34.52.29.65-.35,1.17.1,1.76.06.38-.71.69.11,1.04.02Z"/><path d="m74.35,2.97h.31c.19-.26.19-.25-.14-.34-.14-.04-.34-.1-.37-.18-.11-.26.47-.18.57-.36l-.44-.24-.69-.08-1.39.45c.95.37.93.46-.2.92.48.6.85.23,1.22-.05.37-.05.55-.7,1.12-.12Z"/><path d="m89.73,3.26c.87-.08,1.84-.08,1.47-.87-.09-.2.24-.34.55-.44-.1-.41-.54-.07-.8-.12-.19.38-.31.81-1.31.5-.17-.05-.43-.03-.5.12-.07.16.13.2.35.22l.09-.02-.08.03.22.58Z"/><path d="m47.67,3.33s-.04-.05-.03-.08c-.09-.19-.74-.08-.62-.38-.17-.32-.41-.27-.66-.04-.22.2-.41.43-.73.04-.25.07-.42-.25-.66-.06-.3.23-.05.44.19.64.84.04,1.74.4,2.5-.12Z"/><path d="m35.13,3.21c-.28-.27-.99-.24-1.19-.68-.09-.21-.99.18-1.47.35-.08.03-.13.08-.2.13v.35c.74.27,1.44-.18,2.18-.03l.55-.05c.07,0,.12-.03.14-.07Z"/><path d="m149.01,1.05c.29.36,2.19.8,2.79.65.59-.15.21-.45.32-.68-.38.06-.76.21-1.12-.02-.08-.05-.34-.09-.36-.07-.48.43-1.1.05-1.63.12Z"/><path d="m5.65,2.76c.29.16.86-.31,1,.16.29.21.59.09.89.01.5-.33,1.27-.14,1.85-.31-.11-.2-.1-.44-.72-.25-.38.12-.92.06-1.38.09l-.26.15-.08-.07.33-.09c-.38-.09.81-.82-.6-.48-.05.19.13.44-.43.47-.12.16-.62.07-.6.32Z"/><path d="m136.12,2.83c-.01.06.06.14-.12.16,1.27.06,2.6.47,3.69-.3l-.03-.15h-.83c-.9.11-1.8.21-2.71.3Z"/><path d="m9.39,2.63c-.58.17-1.36-.02-1.85.31.06.38.52.08.76.12.9.14,1.83.05,2.75-.04-.18-.67-1.08-.3-1.65-.39Z"/><path d="m24.34,2.93c-.65-.04-1.39.11-1.82-.37-.16-.18-.41-.08-.45.1-.03.13.02.28-.26.36-.09.38.45.27.74.3.65.05,1.31.04,1.97.06-.05-.15.12-.33-.19-.45Z"/><path d="m27.68,1.66c.45.11.92.24,1.25-.09.21-.21.34-.08.52.01.63.31,1.25.34,1.85-.03-.59-.34-1.32-.29-2.04-.26-.53.02-1.05.07-1.58.1v.26Z"/><path d="m82.85,1.59c-.15.24-.59.59.45.4.54-.1.79.13,1.07.33.14.1.05.39.48.28.35-.09.27-.29.2-.47-.06-.17-.1-.35-.14-.52l-2.06-.03Z"/><path d="m42.03,3.3c.07-.35.08-.67-.82-.46l-.63.23h-.4c-.17.13-.4.11-.63.1l-.24.27c-.02.24.26.18.48.15l2.24-.29Z"/><path d="m74.28,1.85l.44.24c.59-.05,1.21-.32,1.71.13.13.12.5-.06.48-.09-.1-.17.71-.24.14-.43-.92.08-1.92-.36-2.77.15Z"/><path d="m41.84,2.13c.23-.1.57-.32.67-.29.39.13.02.24-.11.36-.09.08.03.15.18.15.18,0,.37-.04.38-.15,0-.17-.05-.35-.08-.52-.75-.34-1.61-.27-2.46-.22l-.03.3s.01.06,0,.1h.23c.55-.12,1.07-.21,1.22.27Z"/><path d="m68.7,2.71c.78-.11.61-.77,1.46-.84-.44-.3-.88-.56-1.45-.09-.06.08-.11.23-.2.24-1.38.16-.36.37-.04.56.03-.08,0-.2.24-.19l-.05.2.03.11Z"/><path d="m87.41,3.42c-.18-.23-.54-.5-.9-.27-.69.44-1.95-.23-2.41.48,1.13.05,2.23-.02,3.31-.21Z"/><path d="m104.49,3.39l-.81-.22-.42-.1c0,.29-.35.27-.69.26-.8-.28-1.55-.23-2.25.12.07.13.29.25.43.21,1.21-.31,2.57.16,3.74-.28Z"/><path d="m9.4.98c.03.39.17.68.97.35.6-.25,1.34.3,1.92-.09-.86-.54-1.91-.25-2.89-.26Z"/><path d="m130.92,1.36c.28.41.84.68,1.44.92-.12-.41.18-.74.59-1.06-.42-.21-.8-.02-1.19.06-.21.33-.55.11-.84.08Z"/><path d="m18.34,3.11c-.72-.48-2.23-.46-3.15.04.89.23,1.8.04,2.7.05.03-.24.24-.15.45-.09Z"/><path d="m60.36,2.94c-.24.01-.41.07-.4.23l.27.08.06.13-.2-.04-.16-.15c-.25,0-.37.08-.39.22.76.05,1.42.45,2.26.23-.07-.43-.78-.48-1.25-.68h-.18Z"/><path d="m97.45,3.19c-.95-.02-1.9-.02-2.71.35.32.21.62.3,1.1.08.6-.27,1.36-.02,2.03-.12l-.04-.27c-.12-.01-.25-.03-.38-.04Z"/><path d="m26.65,2.23c-.85.05-1.32.53-1.05,1.07l.83.02c-.12-.27.49-.39.37-.65-.24-.13-.14-.29-.16-.44Z"/><path d="m72.2,2.22l1.39-.45c-.7-.2-1.4-.35-2.05.05l.07.4h.59Z"/><path d="m48.5,1.81h.53s.09-.2.09-.2c-.78-.08-1.57-.28-2.29.08.23.21.71.3.79.58.15-.05.28-.09.4-.12.03-.17.05-.34.47-.34Z"/><path d="m27.68,1.66v-.26s-1.03-.01-1.03-.01c-.22.28-.2.56,0,.84.5.03.38.25.39.43.08.09.19.18.39.14.23-.05.09-.17.05-.25-.15-.32-.45-.64.2-.89Z"/><path d="m57.24,3.29v.25c.69.02,1.47.39,2.07-.13-.1-.22.05-.69-.73-.22-.34.21-.93-.14-1.34.1Z"/><path d="m104.97,3.19l-.05.34c.81.23,1.53-.01,2.28-.15l-.39-.24c-.41-.11-.42-.33-.48-.54-.06,0-.11-.01-.17-.01,0,.46-.12.84-1.19.6Z"/><path d="m114.06,1.79c.55-.01,1.1-.04,1.64-.03.35,0,.62-.01.65-.26-.73-.3-1.55,0-2.31-.08,0,.12,0,.24,0,.36Z"/><path d="m106.8,3.14l.39.24c.59.15,1.21.43,1.69-.1-.53-.15-1.09-.24-1.69-.29-.28-.02-.38,0-.39.15Z"/><path d="m44.12,3.33s-.03-.08-.07-.11c-.3-.2.85-.49-.02-.56-.62-.05-1.02.31-.97.72.36.06.75.27,1.06-.05Z"/><path d="m145.22,2.58c.24.22.48.37.98.16.42-.17.78-.1,1,.17.15-.03.34-.01.39-.13l-.37-.4c-.65-.1-1.29.04-1.93.05l-.06.15Z"/><path d="m155.44.95c-.35.48.22.44.73.43.38.05.62-.06.77-.25l-.02-.31c-.49.09-.97.18-1.49.13Z"/><path d="m128.42,2.91c-.75.11-1.6-.09-2.27.27.76.29,1.51-.04,2.27-.03v-.24Z"/><path d="m79.7,1.61c.11.89.99.18,1.5.24-.03-.17.11-.43-.51-.31-.31.06-.66.05-.99.07Z"/><path d="m43.29,1.65c.07.18,0,.46.46.46.63,0,.26-.44.62-.59-.5-.34-.72.08-1.09.13Z"/><path d="m20.43,1.55l-.93.24c.58.05.62.31.7.57.05.15.18.26.46.26.1,0,.27-.06.3-.11.09-.15-.13-.19-.31-.25-.64-.22.52-.47-.03-.69-.06-.02-.12-.02-.18-.02Z"/><path d="m156.59,2.48c-.41.16-.98-.66-1.29.09q.18.44,1.29-.09Z"/><path d="m37.47,2.09c-.55-.1-.51-.39-.63-.63-.43-.02-.9-.2-1.25.1v.14c.32.06.86-.05.91.19.11.53.55.31.97.2Z"/><path d="m38.74,1.43c-.27.38.36.48.66.68l.33-.23.26-.49c-.43-.07-.81.22-1.25.05Z"/><path d="m87.4,1.97v-.34c-.39-.1-.78-.19-1.21-.07,0,.18-.14.43.44.4.44-.02.64.09.62.34.19-.09.13-.21.15-.32Z"/><path d="m132.96,1.22c-.41.32-.71.65-.59,1.06.42-.27,1.04-.46,1.12-.87l-.09-.21-.45.03Z"/><path d="m24.34,2.93c.31.12.14.3.19.45l.62.05c.1-.41.12-.78-.82-.87v.37Z"/><path d="m97.82,3.23l.04.27c.4.01.75-.07,1.04-.23-.26-.82-.68-.39-1.08-.04Z"/><path d="m144,1.08c0,.08-.04.17,0,.24.12.2-.47.58.17.59.57,0,.07-.34.15-.53.02-.05.21-.08.32-.12-.14-.15-.27-.31-.65-.17Z"/><path d="m130.92,1.36c.3.03.64.25.84-.08l-.46-.06c-.17.01-.32,0-.4-.1l-.84.12.18.13h.68Z"/><path d="m169.63,2.2s.01-.08,0-.12c-.08-.18.23-.49-.28-.5-.17,0-.49.37-.15.6l.44.02Z"/><path d="m113.02,2.15c.01-.23.54-.34.41-.6l-.64.02c.08.2-.14.43.23.58Z"/><path d="m3.71,1.03c.01.18.21.3.43.41.92-.1-.2-.31.06-.45-.04-.03-.09-.05-.16-.03h-.28c-.06.02-.07.04-.05.07Z"/><path d="m35.42,3.09l-.42.12c.18.27.69.19,1,.31l.02-.24v-.24c-.13-.01-.21-.01-.3-.01-.03.14-.17.1-.31.06Z"/><path d="m90.32,3.57c-.04-.22-.49-.14-.62-.29l-.33.1.27.16c.22.07.45.09.68.03Z"/><path d="m49.74,1.57c.12.22.29.36.65.12-.17-.12-.24-.44-.65-.12Z"/><path d="m122.59,2.77l-.65.13c-.03.32.33.24.66.2v-.34Z"/><path d="m51.61,1.83c.31-.01.66.05.88-.15-.45-.25-.69-.1-.88.15Z"/><path d="m171.83,2.39c-.21-.15-.45-.16-.71-.04.23.05.38.51.71.04Z"/><path d="m130.25,1.37l-.18-.13h-.42s.02.13.02.13c.19.13.38.15.57,0Z"/><path d="m32.71,1.63s0,.04-.03.06c.03-.02.06-.03.1-.03l.06-.26-.13.23Z"/><path d="m130.91,1.12c.08.1.23.12.4.1,0-.2-.13-.23-.4-.1Z"/><path d="m25.85,1.36c.02.09-.02.22.21.21.17-.01.14-.11.01-.17l-.23-.04Z"/><path d="m36.03,3.29l-.02.24c.21-.04.36-.11.43-.24h-.41Z"/><path d="m34.99,3.28l-.55.05c.23.16.41.15.55-.05Z"/><path d="m114.05,1.78v-.36c-.14-.02-.21.01-.21.09.02.1-.08.24.21.26Z"/><path d="m70.36,1.89l.07.22c.22-.04.08-.15.13-.22-.07-.02-.13-.02-.2,0Z"/><path d="m18.34,3.11c-.21-.06-.42-.15-.45.09.19.04.38.07.45-.09Z"/><path d="m145.28,2.43c.64,0,1.28-.15,1.93-.05.22-.01.32-.09.34-.21l.02-.37c-.36-.02-.48-.12-.35-.32.06-.09.14-.21-.1-.23-.14-.01-.44.08-.43.12.05.52-.89.55-1.26.85-.07.06-.1.14-.15.21Z"/><path d="m158.78,2.2c.44.11.88.25,1.31-.04-.74-.02-.15-.52-.67-.62l-.84-.2c.11.28.56.54.2.86Z"/><path d="m136.56,1.62c-.35-.21-.81-.23-1.28-.21.02.14-.05.31.07.4.16.13-.46.34.1.35.39,0,.31-.2.27-.36-.02-.07-.03-.33.23-.09.47.45.37-.18.61-.1Z"/><path d="m151.54,2.34l.63.1c.08-.14.61-.27.14-.42-.5-.16-.67.08-.76.31Z"/><path d="m150.05,2.22c-.18.07-.35.21-.23.28.34.24.72-.06,1.09-.03-.04-.35-.52-.22-.85-.26Z"/><path d="m138.84,2.54h.83c-.05-.23-.31-.33-.64-.3-.26.02-.17.19-.19.3Z"/><path d="m129.66,1.72c-.06.01-.12.02-.18.02l-.02.22c.25-.02.56.03.67-.18l-.47-.07Z"/><path d="m152.33,2.43c.09.28.38.2.68.12l-.03-.25c-.22.04-.44.09-.65.13Z"/><path d="m148.31,1.29l-.13-.06-.12.12c.05.01.12.04.16.03.04,0,.06-.05.09-.09Z"/><path d="m137.2,1.6h-.48c.06.08.11.19.19.2.23.02.23-.11.29-.2Z"/><path d="m149.86,1.88l.21.24c.31-.19.06-.22-.21-.24Z"/><path d="m152.98,2.3c.11-.02.28.01.27-.1,0-.02-.08-.07-.12-.07-.19,0-.13.1-.15.17Z"/><path d="m147.58,1.8l-.02.37c.27-.12.29-.24.02-.37Z"/><path d="m141.9,1.69c0,.05.04.05.07.06,0-.05-.04-.05-.07-.06Z"/><path d="m129.03,1.96v.12s.42-.13.42-.13c-.14,0-.28,0-.42,0Z"/><path d="m149.23,2.01l-.05-.05s.04.03.05.05Z"/><path d="m153.11,2.54l.06.14c.18-.08.14-.12-.06-.14Z"/><path d="m23.95,2.43c.25-.19.65-.35.37-.64-.12-.13-.27-.24-.53-.26-.38-.03-.43.14-.48.3.2.19.29.39.12.61-.08.1-.06.2.17.22.27.02.32-.1.36-.22Z"/><path d="m6.24,2.45c.56-.03.38-.29.43-.47-.21-.02-.5.06-.52-.17-.01-.12-.21-.26-.4-.22-.19.04-.36.18-.43.3-.11.2.25.11.36.16.22.11.38.27.56.4Z"/><path d="m16.94,1.75c-.37-.58-1.08-.37-1.74-.26.48.32,1.03.48,1.74.26Z"/><path d="m17.46,1.72l-.21.03s-.06.08-.11.1c-.4.14-.67.3-.26.57.11.07.4.15.35.03-.12-.28,1.2-.37.23-.72Z"/><path d="m22.06,1.58l-.6-.06c0,.16-.51.39.02.48.39.07.67-.14.58-.41Z"/><path d="m19.22,1.77l-.66-.33c.01.14-.35.28-.04.41.24.1.51.04.71-.08Z"/><path d="m7.53,1.86c.12.05.19.1.26.1.08,0,.15-.05.23-.08-.06-.04-.12-.1-.19-.1-.07,0-.16.04-.3.08Z"/><path d="m18.11,1.43l-.58.08-.08.05.02.12c.26-.04.64.02.64-.25Z"/><path d="m22.59,1.58c-.17-.1-.34-.22-.52,0h.52Z"/><path d="m8.8,1.28c.06.03.09.01.12,0-.02-.01-.04-.02-.12,0Z"/><path d="m79.51,3.3c.23-.02.5.01.64-.14.1-.37.81-.11,1.08-.34.11-.09.46.28.62.01.1-.16-.25-.31-.47-.44-.22-.13-.39-.16-.69-.02-.38.17-.82.29-1.16-.09-.2-.23-.57-.06-.79.03-.38.15-.07.25.15.35.35.16.69.34.63.64Z"/><path d="m87.4,1.97c-.02.11.04.24-.15.32-.05.14-.56.17-.31.38.09.07.29.15.42.14.45-.03.15-.25.25-.38.05-.07.09-.15.18-.21.16-.11.63-.18.45-.33-.2-.17-.54.1-.85.07Z"/><path d="m85.89,2.44s-.09-.04-.13-.06l-.12.11c.05.01.11.04.16.03.04,0,.06-.05.09-.08Z"/><path d="m75.55,3.19h-.21c.07,0,.14,0,.21,0Z"/><path d="m166.49.98c.04.1.06.23.34.12-.04-.11-.17-.12-.34-.12Z"/><path d="m66.38,3.17h.43c0-.14-.09-.36.04-.42.23-.11.44-.18.36-.36-.04-.09-.16-.05-.22,0-.18.16-.8.11-.64.44.05.11.02.23.03.35Z"/><path d="m65.15,2.82c.13.11.14.28.44.29.04,0,.15-.09.13-.13-.06-.19-.35-.15-.57-.16Z"/><path d="m60.36,2.94h.18c0-.08.04-.18-.2-.2l.02.2Z"/><path d="m68.66,2.6l.05-.2c-.25,0-.21.1-.24.19h.19Z"/><path d="m67.65,2.95l-.07-.16c-.2.09,0,.11.07.16Z"/><path d="m159.42,1.54c.52.1-.07.6.67.62.27,0,.46-.09.59-.21.29-.25.65-.49.09-.77-.88-.44-.9.24-1.35.36Z"/><path d="m162.91,1.1c-.3.04-.78-.21-.75.18.01.13.14.36.48.29.33-.08.81-.26.82-.4.03-.29-.39,0-.55-.06Z"/><path d="m162.6,2.05c.24.14.39.3.56.31.22,0,.6,0,.61-.23,0-.13-.14-.25-.37-.23-.25.01-.48.09-.8.15Z"/><path d="m165.45,1.09c.03.09.03.2.25.17.07,0,.1-.11.15-.17h-.4Z"/><path d="m161.77,1.55c.07-.04.02-.05-.02-.05l.02.05Z"/><path d="m165.05.98h.09s.09,0,.09,0c-.06-.06-.13-.07-.19,0Z"/><path d="m31.85,1.93c.04.2.26.27.56.21.39-.07.24-.28.27-.44-.37-.03-.39.35-.83.23Z"/><path d="m27.04,2.67c0-.18.11-.4-.4-.44.03.15-.07.32.17.44h.23Z"/><path d="m31.85,1.93l-.05-.05s.03.03.05.05Z"/><path d="m97.45,3.19l.38.04c-.07-.09.13-.26-.18-.26-.17,0-.21.12-.2.22Z"/><path d="m102.56,3.33c.34.01.69.04.69-.26-.25.06-.54.1-.69.26Z"/><path d="m37.47,2.09c-.42.11-.86.33-.97-.2-.05-.24-.59-.13-.89-.19.17.27.3.56.51.82.45.56,1.27.63,1.95.16.08-.06.13-.15.23-.18.39-.11.41-.52.03-.68q-.16-.07-.25.2c-.04.12-.03.29-.32.29-.09,0-.19-.14-.28-.22Z"/><path d="m40.62,1.87h-.23c-.4.42.22.8.19,1.21l.63-.23c.06-.38-.77-.58-.6-.98Z"/><path d="m39.56,3.18c.23,0,.46.03.63-.09,0-.02,0-.05-.02-.06-.28-.13-.22-.54-.57-.47-.51.1.06.4-.04.61Z"/><path d="m38.45,2.79c-.06.04-.13.07-.13.09.02.07.06.13.1.2.03-.03.08-.07.08-.1,0-.05-.03-.11-.05-.18Z"/><path d="m35.42,3.09c.14.03.28.07.31-.06-.13-.02-.31-.13-.31.06Z"/><path d="m36.02,3.04l.09-.06s-.08.03-.09.06Z"/><path d="m72.2,2.22h-.59c-.18.47-1.16.38-1.49.74.03.16-.05.37.42.35-.2-.23.14-.34.36-.41.27-.08.39.09.49.21l.6.02c1.13-.46,1.15-.55.2-.92Z"/><path d="m71.4,3.11c-.1-.13-.23-.3-.49-.21-.22.07-.56.18-.36.41.32,0,.73.09.86-.2Z"/><path d="m74.35,2.97c-.57-.58-.75.07-1.12.12.45.22.79.07,1.12-.12Z"/><path d="m75.56,3.19h-.22c.07.11.14.11.22,0Z"/><path d="m48.5,1.81c-.41,0-.43.17-.47.34.06.24-.15.19-.38.12-.13.24-.04.54-.63.61-.12.3.52.19.62.38.83-.37.91-.9.86-1.44Z"/><path d="m41.84,2.13l-.26.04c.15.11.19,0,.26-.04Z"/><path d="m119.42,2.22c-.1.11-.12.22-.15.34.42,0,.84-.01,1.26-.02.38-.01.38-.17.4-.33-.23-.02-.5.03-.63-.13l-.87.14Z"/><path d="m125.29,1.78c0-.12-.03-.26-.26-.28-.1,0-.24.1-.36.16.15.14.4.11.63.11Z"/><path d="m120.29,2.08c.14.16.41.11.63.13-.13-.17-.39-.14-.63-.13Z"/><path d="m122.8,2.65c0-.07.2-.14,0-.2-.02,0-.08,0-.1.01-.12.09-.05.14.09.19Z"/><path d="m56.81,2.21c-.35.09-.66-.73-1.04-.02-.06.51.7.24,1.05.37v-.35Z"/><path d="m52.45,2.55l.09-.03s-.05.02-.09.03Z"/><path d="m56.82,2.56l.05.05-.05-.05Z"/><path d="m129.03,1.96h.42s.02-.23.02-.23c-.3-.02-.44.06-.44.23Z"/><path d="m104.97,3.19c1.07.23,1.19-.15,1.19-.6l-.23-.5c-.79-.33-1.24.17-1.86.27-.07.41-.02.78.9.84Z"/><path d="m115.04,2.21h.09s-.04-.04-.09,0Z"/><path d="m113.01,2.16l.22.09s.04-.03.06-.04c-.09-.02-.18-.03-.28-.05Z"/><path d="m101.15,2.13l-.4-.12c.03.15.05.32.4.12Z"/><path d="m119.27,2.56l.08-.35c-.21,0-.43,0-.47.16-.03.16.17.19.39.19Z"/><path d="m49.77,2.08c-.02.13-.03.25.17.34-.02-.12.07-.26-.17-.34Z"/><path d="m50.78,2.78l-.04-.05.04.05Z"/><path d="m49.14,2.55c.04.09.04.21.14.26.13.06.26-.05.22-.11-.08-.14.34-.4-.3-.4l-.06.25Z"/><path d="m49.14,2.55l.06-.25c-.32.06-.29.15-.06.25Z"/><path d="m62.09,2.9s.06.05.09.07c0,0,.07-.02.08-.03,0-.03,0-.06,0-.09l-.16.05Z"/><path d="m89.5,2.68l.08-.03s-.06.02-.08.03Z"/><path d="m7.28,2.46l-.33.09.08.07c.09-.05.17-.1.25-.16Z"/><path d="m60.22,3.25l-.27-.08c.02.07.07.12.13.17l.14-.09Z"/><path d="m47.66,2.26c.23.07.44.12.38-.12l-.38.12Z"/>
                  </g>
                </mask>
              </defs>
              <path class="mask" d="m0,1.85c54.04.91,109.14.81,165.25-.42,3.99-.09,7.98-.18,11.96-.28"
                    mask="url(#path-mask)" stroke="black" stroke-width="2" fill="none"
                    stroke-dasharray="177.22418212890625" stroke-dashoffset="177.22418212890625">
              </path>
            </svg>
        