
            <svg xmlns="http://www.w3.org/2000/svg">
              <defs>
                <mask id="path-mask">
                  <g fill="white">
                    <path d="m243.13,6.43c4.58.07,1.67-.07,2.58-.1l3.29.1c2.7.11,5.83.24,8.4.35,5.26.25,15.13.45,19.34.43,2.89.09,4.72.12,5.94.11,3.85.14,9.57.22,12.54.4.81.08,4.19.24,1.36.22-2.04-.01-4.27-.05-7.55-.19-2.71-.11-5.17-.17-6.71-.16l-2.55-.07c-3.16-.05-7.44-.35-9.91-.24-.99-.03-2.81-.08-2.85-.08-2.5.08-8.34-.13-13.39-.27l-.08-.04c1.38.02,1.1,0-.46-.04-.25,0-.52-.01-.79-.02l-.16-.06c.43,0,.96.02,1.38.03.42,0,.73.01.73,0,0,0-.62-.03-.94-.04-1.46-.03-1.05,0-1.2,0l-5-.09c-.41,0-.82-.02-1.24-.03.62-.02,4.72.05,1.11-.07-3.83-.13-5.12-.1-5.9-.07-.73.04-2.35.01-4.92-.08-.24-.09-3.94-.14-6.5-.21l.13-.02c2.41,0,.53-.04-1.55-.09-2.81-.12-3.07-.04-4.84-.07l-.36-.02.4.02c-.16.05.89.13-4.22,0-3.18-.08-5.91-.12-5.36-.03l-3.15-.06-2.77-.15c1.72.03,2.48.03,2.62,0,2.06.01,2.23-.01.22-.09-2.74-.06-3.64-.11-2.66-.14.46-.01,1.1-.03-.71-.07-1.06-.01-3.3-.04-3.34-.04.33.14-6.93,0-9.75.03-.57.02-.82.02-1.22.03l-.5.03c-6.47-.11-13.26-.27-19.08-.26-1.47,0-3.53-.06-4.98-.11-2.63-.08-4.41-.09-5.85-.06l-12.46-.24-.22-.04c-.34-.06-2.34-.12-4.88-.15-1.96-.02-1.31.03-1.46.06-6.92-.07-13.85-.13-21.11-.2l.29.02c-.09.02.47.04-.91.03-.39.02-.54.05-2.32.02.62-.08-2.84-.14-5.65-.19-6.07-.1-13.11-.22-18.43-.21-3.68-.02-6.16-.03-9.75-.04-2.17-.02-.97.05-1.15.09l-20.86-.13.03-.07c1.37-.03,1.04-.07.37-.12-1.17-.08.61-.11,4.33-.08h3.29c1.96,0,4.33.02,5.19-.03l-3.61-.04c-.46-.04-2.58-.08.17-.1,1.44.05,2.9.06,4.4.03l5.19.04c2.13.13,6.33.24,10.95.34,3.26-.05,8.03-.05,8.71-.16,4.56.05,9.1.09,13.71.14.11.04-.4.08.49.12,1.18.05-3.6.05.74.1,3,.04,2.42-.03,2.09-.07-.15-.02-.17-.09,1.79,0,3.58.16,2.83-.01,5.92.04.47.02.81.06,1.43.07,1.79.03,1.77,0,2.27-.02,5.83.08,11.5.1,17.69.24,3.22.08,4.94,0,5.9-.05l28.59.47s-.32.04-.02.06c.88.07-3.7.09,1.24.17,4.37.08.6-.08,1.23-.11.19,0,1.63,0,2.5.01,8.06.07,16.76.26,25.12.44,2.44.05,6.39.06,8.33.19,2.21.13,16.64.57,21.28.64Zm-27.67-.74h-.91c.41.02.9.03,1.22.04.31,0,.46,0,.69,0-.34-.01-.67-.02-1-.04Zm-47.5-.77c-.18,0-.43,0-.65-.01.03.01.28.02.65.01Z"/><path d="m116.6,8.3c-10.68.15-21.21.31-31.82.46-1.42-.18-8.28.04-12.71.08-.89-.05-.78-.12-5.52.01-2.87.05-7.02.12-10.7.19-2.95.02,6.13-.34-4.68-.07-1.59.02-3.81.08-4.04.01-.11-.03-1.65-.05-3.06-.02-1.44.03-2.77.1-3.28.14-.84.07,1.93,0,2.8,0,1.7.02,2.92.03,4.34.05-.87.06-4.76.1-4.54.17-1.19-.04-3.88.02-6.27.06-1.2.02-2.32.03-3.14.04-.82,0-1.34,0-1.34-.04,0-.02.21-.04.55-.07.34-.02.81-.05,1.32-.08,1.02-.06,2.22-.13,2.95-.17,1.49-.11,7.95-.23,13.07-.3,2.31-.02,4.5-.04,6.8-.06,2.22-.03,4.94-.01,6.56-.09,1.73-.09-4.39.03-3.26-.06,3.52-.11,7.22-.18,11.31-.2.31.11,1.39.18,7.5-.01,4.55-.14,10.3-.07,14.69-.26l1.69-.03h3.21c5.39.03,11.19-.04,17.48-.24,3.73.04,7.95.02,13.39-.13l2.31-.04c-.28.01-.45.02-.84.04-3.06.09-5.1.17-1.94.2.83,0,3.1,0,2.71-.03-.92-.07,9.16-.25,1.77-.25.99-.02,2.22-.04,3.2-.06.97-.02,1.7-.05,1.68-.09l3.46-.05c.12.04-2.64.12-.29.13,1.87,0,3.89-.05,5.41-.11l2.18-.03c4.48-.06,4.76.02,5.4.08.37.04,1.43.05,3.56.02.8-.01,2.04-.05,2.29-.07.71-.05-1.03-.04-2.4-.03-4.93.01,3.96-.2-.33-.2,1.07-.09,3.83-.12,6.41-.16l.04.05s-3.89.17.19.14c3.02-.03,5.13-.12,4.52-.19l3.96-.06h5.48c1.54.02,2.3.07.99.15-.6.04-.45.06,1.29.04,2.1-.03,2.42-.07,2.75-.11h2.95s.07.1.07.1c-4.99.07-10.61.2-13.95.11-1.27-.03-3.12.02-3.42.08-.22.04.18.08-1.93.13-8.64.23-17.55.37-26.69.44-5.57-.05-17.16.13-24.1.39Zm-56.82.54c.59-.02,1.16-.03,1.74-.05-.49,0-.94,0-1.49,0-.56.01-1.22.03-2.29.06.93,0,1.49,0,2.04,0Z"/><path d="m284.72.81c-4.16.05-6.08,0-8.22-.05-1.07-.02-.37-.11-3.69-.06-2.68.04-2.06.09-1.56.14.48.05.74.09,1.1.14l-9.81.07s.26-.06-.01-.08c-.27-.02-1.1-.03-3.33-.02-3.36.02-4.89,0-4.77-.07.37-.04,4.29-.07,2.35-.12-.68-.02-2.23-.03-3.25-.02-3.42.03-1.15.08-1.9.12-.42.02-.74.04-1.36.07-1.23.04-4.82.08-3.47.11,1.56.04,4.13-.05,6.49-.05v.1c-9.3.08-18.32.1-27.22.1,1.46-.12,2.4-.24,10.06-.2,1.26,0,3.31-.01,3.83-.06.55-.05-1.03-.05-2.77-.05-.56-.05-1.13-.1-1.48-.16l2.53-.04-2.04-.03c6.05-.1,11.71-.12,17.04-.06,1.39.06,4.1.12,6.88.04,5.33-.15,14.96-.01,18.5-.23,5.18.03,10.64-.04,15.96-.05-.22.12,3.86.12,7.27.07,3.04-.04,4.84-.04,7.12-.02-.79.11-6.17.06-8.32.13-.81.03-3.54-.06-4.73.02-.74.05,1.93.08,3.58.11,1.68.03,3,.03,5.32-.02,2.92-.06,6.32-.11,8.93-.01,1.57.06,4.4,0,6.06-.03,2.9-.05.55-.07-1.14-.09-2.68-.04-5.32-.07-4.81-.16l1.7-.04c2.99.12,8.78.05,13.69.05,1.91,0,6.3-.06,5.01.07-.31.03,5.63-.04,5.81-.07.36-.07,1.95-.07,4.11-.08h1.59c2.97-.04,6.49-.1,5.27.04-1.49.08-1.44.08,1.08.09,1.11,0,2.58.02,2.82.04.84.07-3.63.06-4.35.11-4.52.03-9.3.12-13.14,0-.98-.03-3.86.03-3.69.04.79.05-5.45.09-1.05.13-.18.03-.67.04-2.48.04-5.91,0-11.84-.03-17.85.06-.85-.25-7.6-.02-11.51-.02-4.53.02-7.88.13-12.68.13,1.12-.07,4.56-.19-3.45-.1Zm-18.81-.02l.93-.04c-.41,0-.88,0-1.22,0-.3.01-.46.02-.69.03.34,0,.66,0,.98.01Z"/><path d="m396.54,11.46c5.7.18,12.63.51,17.89.64,4.63.26,11.74.46,17.24.7,1.57.06,2.17.08,3.29.12,3.44.1,4.3-.03.51-.19-3.99-.18-5.24-.25-6.26-.34-1.05-.09-3.01-.21-6.82-.28-.42-.01-1.99-.07-2.66-.09-6.54-.25-12.85-.49-19.31-.74-14.86-.57-29.72-1.14-44.58-1.71l.03.05c1.25.05,2.27.09,2.56.12,2.21.08,4.85.17,6.68.24,4.4.17,9.81.33,13.28.54,2.08.12,17.21.78,20.28.87.51.02,1.05.02.97.01-.74-.09,2.12.05,3.42.11,1.56.08,2.52.14,3.87.21.77.04,3.18.12,2.95.13-.15,0-1.53-.03-3.4-.1-3.9-.14-9.42-.37-9.93-.3Z"/><path d="m449.64.29c-3.89-.04-8.49-.1-11.05-.03,1.12.02,2.55.05,3.32.06,3,0,5.83,0,8.02.12,1.8.1-.73.1-2.56.12-3.24.04-5.73-.02-8.36-.1-1.64-.05-4.38-.08-5.72-.06-4.58.07-6.62-.03-9.34-.09-1.74-.01-3.95,0-4.4-.06-.09-.01.71-.03,1.03-.03,2.29.01,2.36.06,3.36.09l4.9-.15c-3.22-.16-7.42-.08-11.36-.06.1.05-.15.09-3.01.09.05.03-.21.07.2.1,1.25.1-3.46.07-4.87.12-.39.01-1.36.02-1.65,0-.59-.05.99-.07,2.76-.1,1-.02.25-.08.29-.12-1.57.04-6.02-.04-6.47.06.57.01,2.15.02.61.04l-.57-.05c-2.27-.02-.88-.11-3.7-.11-.99,0-1.8.07-2.69.11.04.03-.31.05-1.66.07.07,0,.15.02.25.03h1.49c2.47.06,10.25.12-.31.16-.69,0-1.01.04-1.5.07,4.55,0,9.32-.05,13.44.06.5,0,6.62-.03,10.7-.05,1.12-.04,2.51-.04,4.96-.04,7.17.05,14.67.09,21.53.14,2.75.14,7.7.1,10.6.26.71.04,1.38.09,2.05.13l.99.08c.16.02.33.04.49.06l.11.02h.04s-.03,0-.04-.02c0,0-.01-.02-.01-.03-.02-.03-.03-.09,0-.13.09-.11.02-.03,0-.04l-.11.02c-1.32.19-2.8.25-4.56.37-4.79.3-6.89.3-7,.2l-7.91.27c.36.06-1.81.16-3.39.26,3.62-.02,7.39-.04-.27.27-.98.04-.34.05.65.04,3.09-.16,7.63-.2,10.24-.35,6.02-.35,4.82-.19,5.63-.15l1.68-.08c.16-.05,1.06-.1,2.97-.23.11-.03.49-.07,1.07-.14.29-.03.63-.06,1.03-.14.05-.01.1-.02.17-.05.02,0,.06-.03.08-.06.01,0,.05-.08.04-.14-.01-.07-.02-.05-.04-.08-.08-.08-.11-.07-.14-.08-.12-.04-.22-.05-.33-.06-.22-.02-.44-.04-.67-.06l.14.07c-1.84-.13-1.54-.12-1.54-.15-3.6-.22-9.03-.3-9.59-.43Z"/><path d="m306.61,8.23c2.06.06,3.51.09,4.59.09,2.28.02,5.08.05.83-.14-6.67-.3-6.97-.16-10.44-.24l-6.37-.23c-2.97-.18-8.69-.26-12.54-.4l-.07-.07c3.69.11,7.96.16,10.72.29,3.48.17,7.09.26,11.16.36,16.01.42,32.09.94,48.2,1.54.28.04.26.07-1.74,0l-3.09-.11-1.6-.08c-.48-.03-.97-.05-1.45-.05-10.18-.33-11.6-.34-7.73-.11.12,0,.15.01.22.02,8.99.24,11.38.5,20.17.81,3.66.12,8.51.31,9.49.43-2.4-.09-5.1-.12-5.89-.19-1.52-.13-4.03-.19-6.48-.28-8.74-.34-17.26-.6-26.24-.88-12.78-.38-25.98-.77-39.07-1.15-2.6-.07-6.75-.16-6.95-.25,1.53-.02,4,.05,6.71.16,3.28.13,5.5.17,7.55.19,3.37.12,6.74.25,10.02.29Zm16.03.31s.28.04.84.07c.56.03,1.45.07,2.75.1,2.53.07,6.23.15,6.37.13.28-.05-3.01-.1-4.19-.15-2.3-.07-5.97-.24-5.78-.15Zm7.48.46c1.65.05,4.59.15,4.71.11.06-.02-1.01-.08-2.77-.14-1.89-.05-3.72-.1-6.16-.17,1.8.08,2.92.14,4.22.2Zm-9.71-.48l-.96-.03h.12c.72.03.75.03.84.03Z"/><path d="m202.79,7.01c3.97-.09,7.07-.13,11.55-.16,6.5-.05,14.61-.21,21.99-.33,3.7-.06,7.65-.08,11.11-.19l.03-.1c-.82-.03-2.92-.07-.42-.13,7.38-.16,6.39-.33,11.51-.49-2.73.04-5.14.1-7.27.17-.27,0-.51.01-.7.02-.28.05.88.09-2.07.16-2.32.05-3.98.06-4.31,0h-.38s.35,0,.35,0c3.43-.02,3.54-.13,6.38-.17.18,0,.25-.02.21-.02-3.25-.06-7.22.11-10.78.14-4.53.17-9.32.24-14.17.23-1.45,0-2.4-.03-4.01.06-2.49.13-6.1.15-9.59.17-4.98.15-2.68.21-1.47.28.32.02,1.36.04-.39.08-1.49.04-2.37.02-2.99,0l-1.77.03c.93.06-3.79.17-2.81.23Z"/><path d="m165.14,1.18c-3.15-.03-6.43-.05-10.76.03-5.42.14-11.16.2-17.29.17-1.16.05-3.34.08-5.29.12h-3.25c.39.03.99.08,1.13.08,5.94-.07,9.93.02,15.65-.04,4.16-.04,7.97-.07,9.1.03.04,0,.46,0,.69,0,.78-.02,1.57-.04,2.37-.05-.7-.12,3.51-.14,6.71-.15,10.53-.07,21.12-.13,31.81-.2,6.44,0,6.8-.04,3.72.11-.92.06-1.55.09-2.31.14,6.12-.07,13.24-.05,18.18-.21-1.15,0-2.27,0-3.47,0-1.97,0-4.79.1-5.65.03-.35-.03,2.74-.1,4.7-.15,1.04,0,3.01-.03,4.57-.04,1.3-.01,2.72-.02,3.34-.05.82-.05-.54-.06-1.89-.07-2.11-.02-2.68-.08-5.95-.06-4.14-.05-8.7-.05-14.14.02-6.22.15-13.49.19-20.81.24.1.03-.23.07-1.55.07-2.33.01-.84-.04-1.35-.07-3.08.12-6.28.27-8.26.05Z"/><path d="m347.86,9.34l-1.6-.08-.73-.02-.73-.02c-10.18-.33-11.6-.34-7.73-.11.12,0,.15.01.22.02,8.99.24,11.38.5,20.17.81,3.66.12,8.51.31,9.49.43,2.65.07,7.39.27,9.38.29-2.53-.14-.04-.11,1.29-.06,3.9.15,1.52.12,2.07.17.11.01,0,.01-.01.02,2.97.18,8.06.3,11.39.47,2.06.06,3.88.13,5.44.22.53-.07,6.04.16,9.94.3,1.87.07,3.25.11,3.4.1.23-.01-2.18-.09-2.95-.13-1.35-.07-2.31-.13-3.87-.21-1.3-.06-4.16-.21-3.42-.11.08.01-.46,0-.97-.01-3.08-.09-18.2-.75-20.28-.87-3.47-.2-8.88-.37-13.28-.54-1.83-.06-4.47-.16-6.67-.24-2.14-.06-2.24-.09-2.56-.12l-.03-.05-3.15-.12c.28.04.26.07-1.74,0-.39,0-.69,0-1.2-.01-1.67-.05-1.68-.07-1.89-.1Z"/><path d="m272.83,5.42l.1.04c1.29.06,2.32.13,3.93.18,3.45.11,9.78.04,14.95-.19.64-.03.97-.05,1.76-.09,2.94-.09,3.14-.21.21-.2q-1.22,0-1.92.1c-.33.04-.24.09-2.46.13-.68.01-1.44-.02-2.16-.03-4.19.04-3.92-.05-4.87-.11,4.79-.09,9.68-.17,14.61-.26-2.03.15,2.8.08,5.1.09l2.49-.12,5.03-.13c.08,0,.09.02.06.03-3.06.18,1.7.2,1.55.32l-3.04.06c-.05,0-.01-.01-.17-.01-2.15,0-1.76-.12-4.4-.05-3.89.11.46.11-.28.18l-1.81.11c-7.36.15-14.89.31-22.08.35l-3.13.05-.13-.07.66-.03-.87.03-1.96.03c-1,0-2.41,0-2.38.05l-3.18.08.44-.02h.48c-2.18-.04-7.6.05-9.14-.05-.73-.05-7.56.17-11.28.28-.62.02-1.01.04-1.51.06-.82-.03-2.92-.07-.42-.13,7.38-.16,6.39-.33,11.51-.49,4.93-.12,9.69-.19,14.26-.19Zm21.04.04c.14.02.49.03.76.04.21-.01.59-.03.59-.04.01-.02-.22-.03-.4-.04-.46.02-1,.04-.96.04Z"/><path d="m414.47.18c2.86,0,3.11-.04,3.01-.09l-2.67-.02h-2.06c-5.13-.03-10.09-.07-15.54-.03-2.22.02-5.44.02-8.09-.01-2.91-.04-8.41-.04-9.35-.02-9.87.13-19.42.09-28.9.05-3.48-.01-5.67.05-8.53.06l-43.7.16c-1.56,0-3.17,0-4.07.04-.22.12,3.86.12,7.27.07,3.04-.04,4.84-.04,7.12-.02,1.06-.05,3.11-.05,4.89-.06l1.7-.04c2.99.12,8.78.05,13.69.05,1.91,0,6.3-.06,5.01.07-.31.03,5.63-.04,5.81-.07.36-.07,1.95-.07,4.11-.08.52-.03,1.07-.03,1.62,0,2.93-.04,6.46-.09,5.23.05.8,0,1.6,0,2.4,0,2.51-.06,5.1-.11,8.58-.05,2.89-.09,5.69-.2,9.38-.03h4.6c1-.08,4.08-.06,6.56-.06,3.64,0,3,.05,3.25.1,4.2-.12,8.41-.09,12.61,0,.89-.04,1.7-.1,2.69-.11,2.82,0,1.43.09,3.7.11.4-.09,4.86-.01,6.42-.06h3.27Z"/><path d="m338.31,4.7c2.25.02,4.73,0,8.08-.13-1.91-.02-3.78-.04-1.52-.15,1.78-.09,3.13-.02,5.05-.08,2.51.06,3.95-.04,5.61-.13,1.9-.11,3.76-.16,5.05-.09,4.53-.11,3.83-.18,4.64-.27-.68-.06-4.33-.02-6.11-.04-3.02-.01-7.02.05-10.83.16-2.87.08-5.34.13-8.09.17-2.8.1.11.16-4.75.26-3.6.07-3-.02-3.57-.06l-3.2.07c.23.05.66.09.62.14-.01.02-.39.04-.93.05-.54.01-1.26.03-1.95.05-1.2.02-2.1.02-1.41-.02,1.02-.06,3.82-.14.86-.12-.74,0-3.34.12-5.09.18-.55.02-.84.06-1.97.05l2.01-.05c-1.22-.11-5.21,0-9.39.11-1.28.14,5.09.07,4.63.19,6.88-.2,6.81-.11,6.28,0,2.76-.07,5.03-.05,7.88-.14-.42-.11,2.64-.28,7.41-.36,6.6-.11-2.13.15.15.16.32,0,.37.01.54.02Z"/><path d="m11.47,3.87h2.6s5.03,0,5.03,0h1.85s-.1-.02-.16-.03c-1.09-.02-1.63-.03-.7-.05.13,0,.58,0,.74,0,1.42.02-.08.04-.09.06,2.62.01,4.56,0,5.78-.05,1.94-.08,4.45-.08,6.46-.05,1,.02,1.88.04,2.5.05.62.02.98.03.95.04-.39.12,3.76.13,6.77.17,3.79-.03,7.55-.05,11.4-.08,1.68,0,4.93.02,4.01-.05-.76-.06-4.29-.04-5.17-.06-2.76-.07-7.02.08-8.57-.07-2.1-.02-4.59-.03-4.91-.09-1.77,0-3.66,0-4.8-.05-3.89-.02-7.8-.05-11.65-.07-3.81,0-7.37,0-10.94,0-3.56-.01-7.15.05-10.98-.14l-.02.08c1.89.11,3.87.09,4.85.16-.12.04-.19.1-3.08.05l1.36.12,6.77.06Z"/><path d="m438.91,2.43c-.98.01-1.63,0-.65-.04,7.66-.31,3.9-.28.28-.27-.98.03-1.97.06-2.96.09l.06.1h.37s-.35,0-.35,0c-2.69.04-8.52.27-8.07.11-4.45.13-8.5.1-13.45.31-.71.03-3.82.06-3.98.01l-4.7.09c-2.04.13-7.97.29-6.82.39-.06,0-1.02.04-1.57.06-3.49-.12-4.95.16-7.69.18.02.01.01.02.01.03,8.04,0,9.95-.2,12.78-.38l.61-.02-.65.02c.81-.01,1.95-.03,2.9-.04.47,0,.9-.01,1.21-.02.31,0,.51,0,.52,0,.81.23,6.67-.06,11.43-.19,4.95-.13,10.67-.32,15.04-.33,2.15-.03,1.83.07,5.58-.05l.09-.07Z"/><path d="m183.68,7.05h2.95c7.2-.1,7.1.02,6.35.15,2.37,0,2.25-.06,3.41-.09-2.13-.13,1.4-.32,7.93-.44-1.51-.06-1.63-.14,0-.25-1.66-.06-3.04.02-4.48.07.96,0,1.2.03-.09.05-1.77.03-1.48-.01-1.66-.03-3.81-.06-9.42.1-13.47.17-6.64.11-13.88.16-20.17.35l.04.05,4.61-.05c1.45-.08,2.76-.07,4.07-.06h5.48c.4-.07.73-.12,3.68-.16,1.99-.03,3.13,0,4.08.01,2.22.05-.8.15-2.74.23Z"/><path d="m44.86,3.75c1.54.14,5.81,0,8.57.07.89.02,4.41,0,5.17.06.92.07-2.32.04-4.01.05-3.85.03-7.61.05-11.4.08l1.38.06h1.85c5.13-.07,11.65.02,17.42.02,1.37-.03,1.04-.07.37-.12-1.17-.08.61-.11,4.33-.08l.07-.03c.06-.05,1.16-.06,3.44-.04.47,0,.92,0,1.36,0-.46-.04-2.58-.08.17-.1l-.13-.04c-9.11-.08-18.21-.16-27.37-.15,1.47.08,4.17.17-1.22.21Z"/><path d="m88.62,1.81c-1.89.02-1.71-.12-5.07.02-2.52.1-4.9.02-7.4.07-.7.14-4.1.15-7.68.14-3.03,0-5.52.04-7.81.11-2.36.07-3.41.14-.9.17,3.36-.03,6.45-.02,10.06-.08,11.24-.21,12.47-.21,21.49-.2.22,0,.64,0,.7,0,4.58-.17,11.57-.06,16.24-.21-.45-.06-.5-.12-3.67-.12-.11.04-.86.06-3.02.07-4.57.01-8.85.03-12.94.04Z"/><path d="m44.86,3.75c5.39-.04,2.69-.13,1.22-.21-3.55-.05-5.93-.13-11.02-.05-3.66.06-10.99-.04-16.86-.05-3.94-.02-7.99-.03-12.04-.05l-3.04-.05c-.5-.01-1.01-.03-1.5-.06-.05,0-.13-.01-.16-.02,0,0-.05-.01,0,0,.04.01.07.05.09.09,0,.02.02.03.03.1,0,.07-.04.15-.09.18-.07.04-.02.01,0,.02.1-.02.23-.03.36-.04l.75-.05c2.01-.09,4.02-.13,6.02-.17,3.49-.06,5.81-.11,5.42-.2-.38-.08-3.2-.03-6.36.07l-3.28.1-1.64.07-.82.05-.4.04h-.09s-.03.02-.03.02c-.02.03.09-.06.04-.11,0-.02,0-.04-.02-.05,0,0,.1.01.16.02,3.83.19,7.42.13,10.99.14,3.57,0,7.12,0,10.94,0,3.85.02,7.77.05,11.65.07.94-.01,2-.02,2.8-.03,1.77.01,1.94.05,2,.08.32.06,2.81.07,4.91.09Z"/><path d="m402.18,3.13c-2.83.18-4.74.39-12.78.38-2.15.06-4.29.12-6.44.18-1.71.06-3.49.12-3.05.17,3.02.02,6.96-.13,10.26-.2,12.61-.28,25.21-.52,37.9-.89,3.39-.1,3.86-.15,5.16-.22-4.37.01-10.09.2-15.04.33-4.75.13-10.62.42-11.43.19-.01,0-.21,0-.52,0-.31,0-.74,0-1.21.02-.94.01-2.08.03-2.86.04Z"/><path d="m197.42,1.42c.76-.05,1.38-.08,2.31-.14,3.08-.15,2.72-.12-3.72-.11-10.69.07-21.27.13-31.81.2-3.2.01-7.41.03-6.71.15,5.98.08,12.51.02,19.69-.1,4.63-.08,8.17-.07,7.28.06,4.66-.09,8.53-.02,12.96-.06Z"/><path d="m108.25,1.82c-4.68.15-11.66.04-16.25.21-.06,0-.48,0-.7,0-9.01-.02-10.25,0-21.49.2-3.61.07-6.7.05-10.06.08,1.43.09,2.99.19,8.52.18l4.05-.11c1.5-.09,3.8-.1,7.05-.13,3.97-.04,8.77-.08,12.21-.11,6.93-.05,13.1-.22,19.71-.21l-1.75-.13c-.44,0-.88,0-1.3,0Z"/><path d="m27.14,2.92c2.08-.14,3.76-.26-4.56-.15-2.68.04-.99-.03-.79-.06,4.1-.13,8.62-.16,11.54-.15,7.42.01,9.11-.1,10.7-.25l1.52-.03c4.88,0,12.9-.06,5.29.2-1.37.05-1.34.11-1.95.16-4.2.05-8.42.11-12.61.16-2.72.03-4.76.07-5.04.14l-4.68.06c.18-.03.11-.06.59-.09Zm13.41-.28c.17,0,.44,0,.84-.02-.23,0-.46.01-.84.02Z"/><path d="m43.39,9.34c-1.19-.04-3.88.02-6.27.06-1.2.02-2.32.03-3.14.04-.82,0-1.34,0-1.34-.04,0-.02.21-.04.55-.07.34-.02.81-.05,1.32-.08,1.02-.06,2.22-.13,2.95-.17,1.49-.11,7.95-.23,13.07-.3,2.31-.02,4.5-.04,6.8-.06,2.22-.03,4.94-.01,6.56-.09,1.73-.09-4.39.03-3.26-.06-7.54,0-16.92.28-24.73.28-2.47,0-1.92.1-3.9.14-1.91.07,6.68,0-.37.14-2.37.15-8.58.31-7.63.44,1.46-.01,3.36-.03,4.31-.04,2.36.02,2.31.2,8.33-.06.06,0,2.17,0,3.52,0,3.93-.03,7.65-.1,10.95-.21-1.13-.12-5.49.08-7.71.07Z"/><path d="m22.37,9.17c-1.96.02-3.37.03-4.38,0-2.55-.06-7.36-.05-11.13.07-3.37.11-6.41.25-6.79.38-.69.23,3.53.23,12.96.05,2.3-.05,5.17-.04,7.78-.05,2.85-.13,1.76-.2-1.34-.22-3.13-.01-6,.07-8.23.18-.82.04-4.58.14-4.26.05.28-.08-1.89-.11-.51-.2.85-.06,1.26-.12,3.81-.16,2.65-.05,3.81-.02,4.11.03.32.05.72.08,3.66.03,1.43-.03,2.51-.06,3.23-.08.72-.03,1.08-.06,1.07-.09Z"/><path d="m111.3,1.94c-6.61-.01-12.78.16-19.71.21-3.43.03-8.24.07-12.21.11-3.26.02-5.56.04-7.05.13,5.57.11,13.9-.07,20.78-.13,10.27-.09,20.76-.26,30.76-.24l.82-.05c-1.48-.04-6.7-.05,1.25-.14,2.6-.03,4.07-.1-.41-.08-4.72.07-8.17.24-14.24.2Z"/><path d="m449.85,1.61c.11.1,2.2.1,7-.2,1.76-.12,3.23-.19,4.56-.37l.11-.02s.09-.07,0,.04c-.02.04-.01.1,0,.13,0,.01,0,.02.01.03,0,.02.05.04.04.03h-.04s-.11-.04-.11-.04c-.16-.03-.32-.05-.49-.06l-.99-.08c-.67-.04-1.34-.08-2.05-.13-2.91-.17-7.85-.12-10.6-.26-6.87-.04-14.36-.09-21.53-.14-2.45,0-3.84,0-4.96.04,6.6.12,13.74.15,21.43.21,4.9.04,9.89.08,15.23.28,1.16.05,2.42.09,3.69.21l.23.03c.06,0,.19.05.12.01-.03-.03-.05-.05-.07-.11-.03-.05-.02-.15.01-.21l.04-.06c.05-.04.05-.03.04-.03-.01,0-.05.01-.08.02l-.23.04c-.32.04-.65.08-.98.11-.67.05-1.35.1-2.04.14-2.76.16-5.62.29-8.33.39Z"/><path d="m138.76,7.45l3.46-.05,5.12.02c.73,0,1.45-.02,2.19-.03,2.37-.06,4.74-.12,7.1-.18-4.18-.11-12.52.07-18.51.15-11.9.2-23.92.4-35.89.6l-3.2.08c5.39.04,11.19-.03,17.48-.23,5.09-.11,10.48-.26,13.39-.13.77-.01,1.54-.03,2.31-.04.55-.01,1.1-.02,1.65-.03-.02-.03-.09-.04-.16-.05-.16,0-.33-.01-.5-.02h1.14s4.43-.1,4.43-.1Z"/><path d="m102.83,3.98c4.55.05,9.1.09,13.7.14,3.64.04,7.13.08,9.82.17,2.45.03,3.68.04,4.91.06,5.83.08,11.5.1,17.69.24,3.22.08,4.94,0,5.9-.05-17.55-.29-35.11-.51-52.67-.63l.64.06Z"/><path d="m21.79,2.71c4.1-.13,8.62-.16,11.54-.15,7.42.01,9.11-.1,10.7-.25-12.21.13-24.43.21-36.63.6-1.48.04-2.68.07-3.81.1-.57.02-1.11.03-1.68.07l-.43.04-.13.02s-.06.02-.11.03c-.06.02-.17.11-.19.24-.02.13.02.18.03.2.04.07.12.13.19.16.16.04.2.04.29.05.3.03.59.04.89.05,3.32.08,8.4.13,9.02,0l-6.77-.06c-.93-.02-1.85-.03-2.79-.08l-.35-.02c-.06,0-.12-.01-.2-.03-.02,0-.02.01-.13-.06-.04-.04-.06-.05-.08-.12-.04-.11.14-.26.14-.23.04-.01.1-.03.12-.03.25-.04.48-.05.71-.06l1.39-.06,5.56-.15,12.7-.25Z"/><path d="m223.45,6.05c-.16.05.89.13-4.22,0-3.18-.08-5.91-.12-5.36-.03,13.09.32,26.18.67,39.77.92l-.07-.04-.46-.04c-.25,0-.52-.01-.8-.02-2.28-.04-4.53-.07-5.19-.15-.41,0-.82-.02-1.24-.03l-4.8-.14c-.73.04-2.35.01-4.92-.08-2.83-.07-5.76-.07-8.33-.18-.85-.04.43-.04,1.83-.03l.13-.02-1.55-.09c-2.81-.12-3.07-.04-4.79-.07Z"/><path d="m45.55,2.28c4.88,0,12.9-.06,5.29.2-1.37.05-1.34.11-1.95.16,2.33-.02,1.55.03,1.7.06l3.12-.05c-.97-.06,3.06-.14,3.17-.2h-2.09c.16,0,.44,0,.45,0,.58,0,1.13,0,1.69,0,2.77.01,1.07.1,1.65.15,3.15.05,6.37.02,9.69-.1-5.53,0-7.09-.08-8.52-.18-2.51-.03-1.46-.1.9-.17,2.28-.07,4.78-.12,7.81-.11,3.57.01,6.97,0,7.68-.14-8.04.08-16.25.17-24.19.25-3.13.01-4.78.07-6.4.14Z"/><path d="m125.54,1.75c4.48-.02,3.01.05.41.08-7.95.09-2.74.11-1.25.14,1.37-.08,3.85-.05,5.76-.07-.21-.04,1.25-.11,2.42-.11,5.81.04,9.92-.13,14.98-.16,2.7-.08,2.85-.03,3.06.01,2.74.03,3.42-.02,4.21-.07-.24,0-.66,0-.69,0-1.13-.1-4.94-.08-9.1-.03-5.72.06-9.71-.03-15.65.04-.15,0-.75-.05-1.13-.08h-6.21s-3.29-.02-3.29-.02l-.38.1c7.04-.04,7.45.06,6.87.18Z"/><path d="m211.25.86c3.28-.02,3.84.04,5.95.06,1.34.01,2.7.02,1.89.07-.62.04-2.04.04-3.34.05-1.56.01-3.52.03-4.57.04-1.96.05-5.05.12-4.7.15.86.07,3.69-.02,5.65-.03,1.2,0,2.32,0,3.47,0,1.51.04,2.88-.02,4.31-.03,2.4-.04,4.95-.1,4.24-.15-2.75-.21,4.68-.25,11.33-.31-.81-.04-4.28,0-4.55-.06-5.46.03-10.63.05-16.15.08-3.95.03-3.1.08-3.55.12Z"/><path d="m147.86,1.63c-5.06.03-9.17.2-14.98.16-1.17,0-2.63.06-2.42.11,10.14-.09,20.23-.17,30.36-.26,5.08-.03,10.42-.05,15.46-.08,3.04-.03,5.51-.05,8.18-.08.89-.14-2.65-.14-7.28-.06-7.18.12-13.71.18-19.69.1-.79.02-1.58.04-2.37.05-.79.05-1.47.1-4.21.07h-3.06Z"/><path d="m21.79,2.71l-12.7.25-.12.07c1.73-.04,3.26-.06,2.99-.01-.27.05-2.02.08-3.6.12-.59.05-.63.09-.67.12,3.16-.1,5.98-.15,6.36-.07,4.06-.06,8.25-.13,12.52-.19.18-.03.11-.06.59-.09,2.08-.14,3.76-.26-4.56-.15-2.68.04-.99-.03-.79-.06Z"/><path d="m382.96,3.69l6.44-.18v-.03s-.34,0-.34,0h.33c2.74-.02,4.2-.3,7.69-.18.55-.02,1.51-.06,1.57-.06-1.15-.1,4.78-.26,6.82-.39-.34-.03-1.78,0-3.05.03-1.68.09-4.36.13-6.75.19-1.76.02-2.85.18-3.79.1-1-.08-3.91.05-5.54.06-2.79.13-4.06.12-5.01.07-1.66.02-3.64,0-4.68.11l-.71.07c1.95-.02,2.92.02,5.66-.04,1.87-.02,1.16.04,1.32.07,8.53-.12-1.13.15.02.18Z"/><path d="m249.01,6.43c2.7.11,5.83.24,8.4.35,5.26.25,15.13.45,19.34.43-3.93-.1-8.29-.21-5.53-.25-7.53-.22-15.06-.43-22.21-.53Z"/><path d="m382.94,3.51c8.52-.12-1.13.15.02.18-1.71.06-3.49.12-3.05.17-4.86.11-9.99.32-14.4.28-.22,0-.28,0-.21-.02,6.38-.24,6.9-.4,6.55-.55l4.09-.09c1.95-.02,2.92.02,5.66-.04-.18.04-.23.08,1.33.07Zm-5.09.22c1.03,0,2-.06,1.67-.07-.65-.02,2.61-.17-2.29-.07-2.44.07-2.24.09-.47.08.33.02.31.05,1.09.05Z"/><path d="m428.84.15c1.49.01,2.72.08,4.42.04,3.76-.1,4.11.01,5.33.07,1.12.02,2.55.05,3.32.06,3,0,5.83,0,8.02.12,1.8.1-.73.1-2.56.12-3.24.04-5.73-.02-8.36-.1-1.64-.05-4.38-.08-5.72-.06-4.58.07-6.62-.03-9.34-.09,1.63-.05,3.26-.1,4.89-.15Zm17.82.28s-.56,0-.6,0c-.07,0,.02.02.04.03h1.24c-.22,0-.42-.02-.69-.03Z"/><path d="m192.62,5.57c-6.47-.11-13.26-.27-19.08-.26-1.47,0-3.53-.06-4.98-.11-2.63-.08-4.41-.09-5.85-.06,5.46.19,12.07.25,18.26.34,8.02.11,15.53.36,23.62.44,1.17.01,2.62.04,3.15.02-1.64-.1-4.42-.17-7.64-.19-3.87-.02-5.7-.09-7.48-.18Z"/><path d="m22.37,9.17s-.35.06-1.07.09c-.72.02-1.8.04-3.23.08-2.95.05-3.34.01-3.66-.03-.31-.04-1.46-.07-4.11-.03-2.55.04-2.97.1-3.81.16-1.38.09.8.12.51.2-.32.09,3.44-.01,4.26-.05,2.23-.11,5.1-.19,8.23-.18,3.09.01,4.19.09,1.34.22,1.06,0,2.12,0,3.18-.05-.94-.13,5.27-.29,7.64-.44-1.68,0-3.22-.02-3.33-.07l-5.94.11Z"/><path d="m398.38.22c-4.2-.08-8.41-.12-12.61,0-2.47.1-10.05.09-11.4.22l.57.11c2.76.03,5.28.02,7.55-.03.36-.02-.67-.05,1-.06l.51.06c.46,0,.97,0,1.51,0,6.53-.02,5.21-.21,11.21-.24,1.35-.01,1.69-.04,1.66-.07Z"/><path d="m44.58,4.07l-1.38-.06c-3-.04-7.16-.05-6.77-.17.03,0-.33-.03-.95-.04-.62-.01-1.5-.03-2.5-.05-2.01-.02-4.52-.03-6.46.05-1.22.05-3.16.06-5.78.05.12,0,.17.02.21.03l-.12.1c7.83.07,15.57.16,23.75.1Z"/><path d="m119.65,4.64c.62-.08-2.84-.14-5.65-.19-6.07-.1-13.11-.22-18.43-.21-3.68-.02-6.16-.03-9.75-.04-2.17-.02-.97.05-1.15.09,7.65.08,15.08.19,23.12.21,3.48.04,7.88.09,11.86.14Z"/><path d="m435.59,2.22c.99-.03,1.97-.06,2.96-.09,1.58-.09,3.75-.2,3.39-.26-7.97.19-16.5.49-24.58.58-3.26.04-4.25.2-7.19.3.16.05,3.26.02,3.98-.01,4.96-.22,9-.19,13.46-.31,2.87-.28,5.3-.11,7.99-.21Z"/><path d="m353.4.28c-.8,0-1.61,0-2.4,0-1.48.08-1.43.08,1.09.09,1.11,0,2.58.02,2.82.04.84.07-3.63.06-4.35.11l3.36.06h5.26s10.66-.14,10.66-.14c-7.27-.09-7.11-.12,1.53-.26-3.7-.16-6.5-.05-9.39.03-2.83.02-4.22.21-8.58.05Z"/><path d="m235.49.71c-6.65.06-14.08.11-11.33.31.71.05-1.85.11-4.24.15.75.11,4.13,0,6.15,0,1.46-.12,2.4-.24,10.06-.2,1.26,0,3.31-.01,3.83-.06.55-.05-1.03-.05-2.69-.05h-.72s.64,0,.64,0l-1.69-.16Z"/><path d="m365.52,4.14c-.22,0-.28,0-.2-.02-.7-.04-5.66.09-4.74-.01-1.29-.07-3.15-.01-5.05.09-1.67.09-3.1.19-5.61.13-1.92.06-3.27,0-5.05.08-2.25.11-.38.13,1.52.15,6.48-.12,13.35-.16,19.12-.43Z"/><path d="m269.4,5.95c-2.18-.04-7.6.05-9.14-.06-.73-.05-7.56.17-11.28.28-.62.02-1.01.04-1.51.06l-.03.1c5.74-.01,11.07-.22,16.74-.27l4.18-.08c.55-.01.89-.02,1.03-.04Z"/><path d="m221.85,5.78c2.21.13,16.64.57,21.28.64,4.58.07,1.67-.07,2.58-.1-2.91-.06-5.84-.09-8.61-.21-.6-.02-2.63-.08-2.76-.08-3.72.02-8.4-.18-12.5-.25Z"/><path d="m43.39,9.34c2.22.01,6.59-.2,7.71-.07,2.28.03,4.54-.04,6.8-.1,3.77-.16,9.74-.19,14.17-.31-.89-.05-.78-.12-5.52.01-2.87.05-7.02.13-10.59.19l-1.97.07h-.63s2.49-.08,2.49-.08c-2.95.02,6.13-.34-4.68-.07-.38.06,1.04.11-3.23.19-.87.06-4.76.1-4.54.17Z"/><path d="m122.87,4.58c-.09.02.47.04-.91.03,9.69.13,19.89.37,28.29.29l-.22-.04-6.34-.09c-6.92-.06-13.85-.13-20.82-.19Z"/><path d="m72.07,8.85c-4.43.12-10.4.16-14.17.31.51.11,4.03-.04,5.84-.06,6.92-.07,14.06-.21,21.05-.34-1.42-.18-8.28.04-12.71.08Z"/><path d="m186.7,7.15c-4.99.07-10.61.2-13.95.11-1.27-.03-3.12.02-3.42.08-.22.04.18.08-1.93.13-.68.12,3.51.03,5.73,0,4.99-.07,10.05-.14,15.09-.22-.41-.04.86-.11-1.51-.11Z"/><path d="m212.22,6.38c3.48-.02,7.1-.04,9.59-.17,1.62-.09,2.57-.06,4.01-.06,4.85.02,9.64-.05,14.17-.23-4.51-.03-10.15.07-15.64.17-4.05.07-8.06.14-12.09.22l-.04.08Z"/><path d="m288.16.91c1.12-.07,4.56-.19-3.45-.1-4.16.05-6.08,0-8.22-.05-1.07-.02-.37-.11-3.69-.06-2.68.04-2.06.09-1.56.14.48.05.74.09,1.1.14l15.81-.07Z"/><path d="m322.33,5.01c.53-.11.6-.21-6.28,0l-4.82.16-3.04.06c-1.29.06-3.1.09-4.84.12l-1.81.11c-.15.07,1.98.01,3.67-.03,5.72-.14,11.42-.28,17.12-.43Z"/><path d="m353.93.59l-3.36-.06c-4.52.03-9.3.12-13.14,0-.98-.03-3.86.03-3.69.04.79.05-5.45.09-1.05.13,7.04-.05,14.72.05,21.24-.1Z"/><path d="m320.77,4.71c1.75-.06,4.34-.18,5.09-.18,2.96-.02.16.06-.86.12-.69.04.22.04,1.41.02.69-.02,1.4-.03,1.95-.05.54-.02.92-.04.93-.05.05-.05-.39-.09-.62-.14-5.77.02-12.34.17-18.86.32l-.2.09c.08,0,.09.02.06.03l1.74-.03c4.19-.12,8.18-.23,9.35-.11Z"/><path d="m396.72.29c-6,.03-4.68.22-11.21.24,3.34.08,6.74.15,11.13.02.49-.02.81-.07,1.5-.07,10.56-.04,2.79-.1.31-.16-.26.02.02.06-1.86.05l.37-.06c-.09-.01-.18-.02-.25-.03Z"/><path d="m253.23.57c1.39.06,4.1.12,6.88.04,5.33-.15,14.96-.01,18.5-.23-8.62.03-17.08.09-25.38.19Z"/><path d="m122.35,1.48h6.21s3.25.01,3.25.01c0-.04.66-.07,1.66-.08,1,0,2.32-.02,3.63-.03,6.13.03,11.87-.03,17.29-.17-.52-.03-2.19-.05-3.31-.03-9.28.16-19.7.11-28.72.31Z"/><path d="m71.94,8.36c.31.11,1.39.18,7.5-.01,4.55-.14,10.3-.07,14.69-.26-6.62-.06-14.65.15-22.19.27Z"/><path d="m83.17,3.8c2.13.13,6.33.24,10.95.34-.91-.12,1.48-.19,4.64-.25-3.23-.09-6.13-.06-9.11-.07-1.61.08-4.21,0-6.48-.03Z"/><path d="m140.71,7.92c-5.57-.05-17.16.13-24.1.39,6.87-.04,13.77-.2,20.66-.31.17-.07,1.86-.07,3.44-.08Z"/><path d="m460.63.8c.23.02.46.04.67.06.11.02.21.03.33.06.03.02.05,0,.13.08.02.02.03.02.04.07.02.05,0,.13-.03.15-.02.02-.05.05-.08.06-.07.03-.12.04-.17.05-.39.08-.72.11-1,.14-.55.06-.85.09-.83.12l1.02-.07.52-.05.27-.04.15-.04s.05-.01.11-.05c.04-.04.05,0,.11-.12.03-.06.03-.16,0-.21-.01-.02-.03-.04-.04-.06-.24-.18-.24-.12-.35-.16l-.23-.05c.13.02.25.03.43.08l.07.03c.08.06.14.06.18.24,0,.06-.01.13-.04.18-.03.05-.03.03-.05.05-.02.02-.05.04-.08.06-.04.02-.05.02-.08.03-.09.03-.15.04-.22.05-.27.05-.52.07-.77.09l-1.26.06c-1.91.13-2.82.18-2.97.23,1.46-.07,2.86-.13,4.27-.25l.53-.06.28-.04c.05-.01.1-.02.17-.04.04-.02.06,0,.16-.09.03-.03.02,0,.07-.09.05-.08.05-.21.02-.28-.03-.07-.08-.12-.14-.16-.22-.11-.27-.09-.38-.12l-.27-.04-.53-.05c-.7-.06-1.4-.1-2.1-.13-2.8-.13-5.68-.19-8.91-.21.57.14,5.99.21,9.59.43.47.03.94.06,1.41.09Z"/><path d="m176.3,1.12c7.32-.05,14.59-.1,20.81-.24-2.46-.04-4.77-.05-8.43.03-4.65.11-10.42.08-15.55.14l.29.07c.94,0,1.91,0,2.88,0Z"/><path d="m204.33,6.67c-6.54.12-10.06.31-7.93.44l6.39-.09c-.98-.06,3.75-.17,2.82-.23-1.86,0-1.08-.07-1.27-.11Z"/><path d="m369.84.45l-10.66.15c5.37.05,10.71.08,15.75-.04l-.56-.11h-4.53Z"/><path d="m371.86,3.57l4.09-.09.71-.07c-5.96.1-12.03.17-17.56.39,1.78.02,5.44-.03,6.11.04,1.15-.04,2.12-.07,3.09-.1.25-.05.41-.11,3.55-.17Z"/><path d="m212.22,6.38l.04-.08-7.93.12c-1.62.11-1.51.19,0,.25,3.87-.05,2.96.03,3.04.08.61.02,1.49.03,2.99,0,1.75-.04.71-.06.39-.08-1.21-.07-3.51-.13,1.47-.28Z"/><path d="m438.91,2.43l-.09.07c5.42-.15,11.37-.23,15.97-.58-.81-.03.39-.2-5.63.15-2.61.15-7.15.19-10.24.35Z"/><path d="m118.67,1.57l.38-.1c-6.17-.01-11.75.1-17.46.19l2.98.04c3.17,0,3.22.07,3.67.12.43,0,.86,0,1.3,0,0-.07.25-.13,1.51-.17,1.26-.05,3.54-.08,7.61-.08Z"/><path d="m48.89,2.65c-4.2.05-8.42.11-12.61.16-2.72.03-4.76.07-5.04.14,5.61,0,11.85-.16,17.69-.2.01-.03.02-.07-.04-.1Z"/><path d="m104.58,1.7l-2.98-.04c-4.55,0-9.27-.04-12.98.15,4.09-.01,8.37-.02,12.94-.04,2.16-.01,2.91-.03,3.02-.07Z"/><path d="m338.31,4.7c-.18,0-.23-.02-.54-.02-2.28-.01,6.46-.27-.15-.16-4.76.08-7.82.25-7.41.36,2.79-.04,5.76-.04,8.1-.18Z"/><path d="m192.62,5.57c1.78.09,3.61.16,7.48.18,3.21.02,6,.09,7.64.19,1.13.01,2.57.05,2.98.03-.92-.05-1.84-.1-2.77-.15-4.97-.09-9.89-.18-14.83-.27l-.5.03Z"/><path d="m271.21,6.97c-2.76.03,1.6.14,5.53.25,2.9.09,4.72.12,5.95.11l-.07-.07c-3.73-.09-7.46-.19-11.41-.28Z"/><path d="m63.84,4.09c-5.77,0-12.29-.09-17.42-.01,5.79.1,11.59.04,17.38.08l.03-.07Z"/><path d="m312.35.8c-.85-.25-7.6-.02-11.51-.02.25.05-.88.12,3.88.07,2.37-.02,5.07-.03,7.63-.05Z"/><path d="m331.87,4.35c.57.04-.03.13,3.57.06,4.85-.1,1.95-.17,4.75-.26-3.88-.02-5.55.14-8.31.2Z"/><path d="m156.63,7.21c-2.37.06-4.73.12-7.1.18,4.47-.06,4.75.02,5.39.08.37.04,1.43.05,3.56.02.8-.01,2.04-.05,2.29-.07.71-.05-1.03-.04-2.4-.03-4.93.01,3.96-.2-.33-.2-.45,0-.92,0-1.41.01Z"/><path d="m279.79,7.54c-3.16-.05-7.44-.35-9.91-.24q1.34.13,9.91.24Z"/><path d="m287.25,5.35c-4.19.04-3.92-.05-4.87-.11-3.28.05-6.89.05-9.55.17l.1.04c2.36-.02,6.49-.11,6.87-.05.85.14,4.2.02,7.44-.06Z"/><path d="m297,4.98c-2.03.15,2.8.08,5.1.09.83-.04,1.66-.08,2.49-.12l1.96-.18c-3.28.05-6.16.19-9.55.21Z"/><path d="m253.29.98v.1c2.97.01,5.96.02,9.25-.03-.02-.03.26-.06-.01-.08-.27-.02-1.1-.03-3.33-.02-3.36.02-4.89,0-4.77-.07-1.47.03-1.01.06-1.14.1Z"/><path d="m98.76,3.89c-3.16.06-5.55.13-4.64.25,3.26-.05,8.03-.05,8.71-.16l-.64-.06-3.43-.03Z"/><path d="m186.7,7.15c2.37,0,1.11.07,1.51.11l4.77-.06c.75-.13.85-.24-6.35-.16l.07.11Z"/><path d="m173.42,1.13l-.29-.07c-3.09.02-5.74.06-7.99.12,1.97.22,5.17.07,8.28-.05Z"/><path d="m183.44,5.02s-.32.04-.02.06c.88.07-3.7.09,1.24.17,4.37.08.6-.08,1.23-.11.19,0,1.63,0,2.5.01-1.06-.06-2.02-.12-4.96-.14Z"/><path d="m83.17,3.8c2.27.03,4.87.11,6.48.03l-3.49-.05c-1.32,0-2.44-.02-3.06-.05l-6.47-.02,1.35.05,5.19.04Z"/><path d="m379.69,10.78s.13,0,.01-.02c-.55-.05,1.83-.02-2.07-.17-1.33-.05-3.82-.08-1.29.06l3.35.13Z"/><path d="m56.88,2.45c-.11.07-4.14.14-3.17.2l4.88-.06c-.58-.05,1.12-.13-1.71-.15Z"/><path d="m28.31,9.06c.11.05,1.65.06,3.33.07,7.05-.14-1.55-.07.37-.14-.3,0-.71,0-1.23,0l-2.11.04c-.44,0-.56.02-.36.02Z"/><path d="m271.65,5.88l-3.18.08c1.41.06,5.28-.03,7.68-.03l.17-.07-.13-.07c-.86.01-1.51.02-2.16.03-.24.04-1.32.05-2.38.05Z"/><path d="m230.94.65c.27.06,3.73.02,4.76.05l2.53-.04-2.04-.03c-1.68-.01-3.43,0-5.25.02Z"/><path d="m381.34,3.31c.95.04,2.22.05,5.01-.07-1.34,0-1.88-.08-5.01.07Z"/><path d="m19.1,3.86l-5.03.02c-.23.09,2.54.08,5.01.08v-.09Z"/><path d="m395.68,3.07c2.38-.06,5.07-.1,6.75-.19-3.43,0-5.26.09-6.75.19Z"/><path d="m396.53,11.46c-1.57-.09-3.39-.16-5.44-.22,1.75.08,2.78.2,5.44.22Z"/><path d="m77.98,3.76l-1.35-.05-3.19-.02.13.04c1.44.05,2.9.06,4.4.03Z"/><path d="m250.77,5.78s-.04.01-.21.02c.23,0,.47-.01.74-.02.14-.03.3-.05.45-.08l-.97.08Z"/><path d="m83.1,3.73c.61.03,1.74.05,3.06.05.04-.06-1.01-.07-3.06-.05Z"/><path d="m198.1,6.51c.18.02-.11.07,1.66.03,1.29-.02,1.05-.05.09-.05l-1.75.02Z"/><path d="m276.33,5.87l-.17.07c1.64-.04,2.77-.08,3.3-.12l-3.13.05Z"/><path d="m268.37,5.99l-4.18.08c1.76.02,3.16,0,4.18-.08Z"/><path d="m48.97,2.65l-.04.1c1.06,0,1.61-.02,1.66-.05-.15-.03.63-.07-1.62-.06Z"/><path d="m384,.53l-.51-.06c-1.68.01-.64.04-1,.06.51,0,1.01,0,1.51,0Z"/><path d="m140.71,7.92c-1.58,0-3.27,0-3.44.08,1.45-.01,2.89-.02,3.44-.08Z"/><path d="m193.12,5.55c4.94.09,9.86.18,14.83.27,1.72.03,2.48.03,2.63,0l.22-.09c-2.74-.06-3.64-.11-2.66-.14.46-.01,1.1-.03-.71-.07-1.06-.01-3.3-.04-3.34-.04.33.14-6.93,0-9.75.03-.57.02-.82.02-1.22.03Z"/><path d="m296.59,7.95c3.37.12,6.74.25,10.02.29-5.66-.17-1.03-.14-5.01-.28l-6.37-.23c.81.08,4.19.24,1.36.22Z"/><path d="m126.35,4.3c-2.69-.09-6.18-.14-9.82-.17.11.04-.4.08.49.12,1.18.05-3.6.05.74.1,3,.04,2.42-.03,2.09-.07-.15-.02-.17-.09,1.79,0,3.58.16,2.83-.01,4.71.03Z"/><path d="m241.08,6.53l4.8.14c.62-.02,4.72.05,1.11-.07-3.83-.13-5.12-.1-5.9-.07Z"/><path d="m229.66,6.24c-1.39-.01-2.68,0-1.83.03,2.56.11,5.5.11,8.33.18-.24-.09-3.94-.14-6.5-.21Z"/><path d="m143.69,4.77l6.34.09c-.34-.06-2.34-.12-4.88-.15-1.96-.02-1.31.03-1.46.06Z"/><path d="m73.41,3.82c-.44,0-.9,0-1.37,0l-.19.06c1.93,0,4.29.04,5.16-.01l-3.61-.04Z"/><path d="m247.12,6.69c.66.08,2.92.12,5.19.15l-.16-.06c-1.7-.03-3.37-.06-5.03-.09Z"/><path d="m216.45,5.73c-.34-.01-.67-.02-1-.04h-.91c.41.02.9.03,1.22.04.31,0,.46,0,.69,0Z"/><path d="m131.27,4.35l-3.7-.04c.47.02.81.06,1.43.07,1.79.03,1.77,0,2.27-.02Z"/><path d="m228.24,6.13l1.55.09c2.41,0,.53-.04-1.55-.09Z"/><path d="m252.15,6.79c.43,0,.96.02,1.38.03.42,0,.73.01.73,0,0,0-.62-.03-.94-.04-1.46-.03-1.05,0-1.17.01Z"/><path d="m210.79,5.73l-.22.09c2.06.01,2.23-.01.22-.09Z"/><path d="m167.3,4.9s.28.02.51.02c-.03-.01-.28-.02-.51-.02Z"/><path d="m68.61,3.86l-.07.03h3.29c-1.05-.02-2.14-.03-3.22-.03Z"/><path d="m223.41,6.05l-.36-.02c.13,0,.27.01.36.02Z"/><path d="m253.11,6.86l.46.04c1.38.02,1.1,0-.46-.04Z"/><path d="m183.68,7.05c1.94-.09,4.96-.18,2.74-.23-.95-.02-2.09-.04-4.08-.01-2.95.04-3.29.09-3.68.15,1.54.03,2.3.08.99.16-.6.04-.45.06,1.29.04,2.1-.03,2.42-.07,2.75-.11Z"/><path d="m47.93,9.17c4.28-.08,2.85-.13,3.23-.19-1.58.02-3.81.08-4.04.01-.11-.03-1.65-.05-3.06-.02-1.44.03-2.77.1-3.28.14-.84.07,1.93,0,2.8,0,1.7.02,2.92.03,4.34.05Z"/><path d="m129.89,7.69c-2.91-.13-8.29.02-13.39.13,3.73.04,7.95.02,13.39-.13Z"/><path d="m133.85,7.62c-.55.01-1.09.02-1.65.03-.28.01-.45.02-.85.04-3.06.09-5.1.17-1.94.2.83,0,3.1,0,2.71-.03-.92-.07,9.16-.25,1.73-.24Z"/><path d="m169.11,7.03l-4.61.05s-3.89.17.19.14c3.02-.03,5.13-.12,4.41-.19Z"/><path d="m147.34,7.42l-5.12-.02c.12.04-2.64.12-.29.13,1.87,0,3.89-.05,5.41-.11Z"/><path d="m57.75,8.84c.93,0,1.49,0,2.04,0,.59-.02,1.16-.03,1.74-.05-.49,0-.94,0-1.49,0-.56.01-1.22.03-2.29.06Z"/><path d="m138.76,7.45l-4.43.09c-.21,0-.42.02-.64.02l.2.03c.99-.02,2.22-.04,3.2-.06.97-.02,1.7-.05,1.68-.09Z"/><path d="m173.18,6.96c-1.31-.01-2.62-.02-3.96.06l3.96-.06Z"/><path d="m67.39,8.52c.46,0,.68,0,.9-.02-.16,0-.33,0-.9.02Z"/><path d="m313.84.31c-1.78.01-3.83.01-4.89.06-.79.11-6.17.06-8.32.13-.81.03-3.54-.06-4.73.02-.74.05,1.93.08,3.58.11,1.68.03,3,.03,5.32-.02,2.92-.06,6.32-.11,8.93-.01,1.57.06,4.4,0,6.06-.03,2.9-.05.55-.07-1.14-.09-2.68-.04-5.32-.07-4.81-.16Z"/><path d="m253.29.98c.13-.03-.33-.06,1.14-.1.37-.04,4.29-.07,2.35-.12-.68-.02-2.23-.03-3.25-.02-3.42.03-1.15.08-1.9.12-.42.02-.74.04-1.36.07-1.23.04-4.82.08-3.47.11,1.56.04,4.13-.05,6.49-.05Z"/><path d="m264.92.78c.34,0,.66,0,.98.01l.93-.04c-.41,0-.88,0-1.22,0-.3.01-.46.02-.69.03Z"/><path d="m344.15.24h1.59c-.52,0-1.07,0-1.59,0Z"/><path d="m355.88,9.62c.32.03.42.06,2.56.12-.29-.03-1.31-.08-2.56-.12Z"/><path d="m414.47.18h-3.27s.71.1-.29.11c-1.77.03-3.35.05-2.76.1.29.03,1.26.02,1.65,0,1.41-.04,6.13-.02,4.87-.12-.41-.03-.15-.07-.2-.1Z"/><path d="m423.94.31c-1-.03-1.07-.08-3.36-.09-.32,0-1.12.02-1.03.03.45.06,2.66.05,4.39.06Z"/><path d="m460.63.8c-.47-.03-.94-.06-1.41-.09,0,.03-.3.02,1.54.15l-.14-.07Z"/><path d="m396.97.32l-.37.06c1.89,0,1.61-.03,1.86-.05h-1.49Z"/><path d="m404.78.23l.57.05c1.54-.02-.04-.03-.57-.05Z"/><path d="m301.6,7.95c3.98.14-.65.11,5.01.28,2.06.06,3.51.09,4.59.09,2.28.02,5.08.05.83-.14-6.67-.3-6.97-.16-10.44-.24Z"/><path d="m328.42,8.7c-2.3-.07-5.97-.24-5.78-.15.03.01.28.04.84.07.56.03,1.45.07,2.75.1,2.53.07,6.23.15,6.37.13.28-.05-3.01-.1-4.19-.15Z"/><path d="m325.9,8.81c1.8.08,2.92.14,4.22.2,1.65.05,4.59.15,4.71.11.06-.02-1.01-.08-2.77-.14-1.89-.05-3.72-.1-6.16-.17Z"/><path d="m347.86,9.34c.22.02.22.05,1.89.1.52,0,.81,0,1.2.01l-3.09-.11Z"/><path d="m319.57,8.5c.52,0,.2,0-.12-.01h.12Z"/><path d="m344.81,9.22l.73.02.73.02c-.48-.03-.97-.05-1.45-.05Z"/><path d="m244.21,5.97c.33.05,1.99.05,4.31,0,2.95-.07,1.79-.11,2.07-.16-2.88.04-2.99.15-6.38.16Z"/><path d="m207.37,6.75c-.08-.05.83-.13-3.09-.08.24.04-.54.1,1.32.11.59,0,1.18-.02,1.77-.03Z"/><path d="m244.18,5.97h-.35c.13,0,.25,0,.35,0Z"/><path d="m176.3,1.12h-2.91c.51.03-.97.09,1.35.07,1.32,0,1.65-.05,1.55-.07Z"/><path d="m137.09,1.37c-1.31.01-2.64.02-3.63.03-1,.02-1.66.04-1.66.08,1.95-.03,4.13-.06,5.29-.12Z"/><path d="m287.25,5.35c-3.24.08-6.59.2-7.44.06-.38-.06-4.52.03-6.87.05,1.29.06,2.32.13,3.93.18,3.45.11,9.78.04,14.95-.19.64-.03.97-.05,1.76-.09,2.94-.09,3.14-.21.21-.2q-1.22,0-1.92.1c-.33.04-.24.09-2.46.13-.68.01-1.44-.02-2.16-.03Z"/><path d="m311.42,4.82l-1.74.03c-3.06.18,1.7.2,1.55.32l4.82-.16c.46-.12-5.91-.05-4.63-.19Z"/><path d="m303.35,5.36c1.74-.03,3.55-.06,4.84-.12-.05,0,0-.01-.16-.01-2.15,0-1.76-.12-4.4-.05-3.89.11.46.11-.28.18Z"/><path d="m294.83,5.42c-.46.02-1,.04-.96.04.14.02.49.03.76.04.21-.01.59-.03.59-.04.01-.02-.22-.03-.4-.04Z"/><path d="m271.65,5.88c1.06,0,2.14-.01,2.38-.05-1.01,0-2.42,0-2.38.05Z"/><path d="m276.2,5.8l.66-.03c-.29,0-.58.02-.66.03Z"/><path d="m369.84.45h4.53c1.35-.14,8.93-.12,11.4-.23-.25-.05.39-.1-3.25-.1,1.54.06-1.1.1-2.77.12-2.04.03-3.02-.02-3.78-.06h-4.6c-8.64.14-8.79.17-1.53.26Z"/><path d="m375.97.19c.77.03,1.74.08,3.78.06,1.67-.02,4.32-.06,2.77-.12-2.48,0-5.56-.02-6.56.06Z"/><path d="m353.4.28c4.36.15,5.74-.03,8.58-.05-3.48-.05-6.07,0-8.58.05Z"/><path d="m344.12.24h1.65c-.55-.03-1.1-.03-1.65,0Z"/><path d="m371.86,3.57c-3.15.06-3.3.12-3.55.17.48.06-1.17.08-2.92.09-.98.09-.29.16-4.81.27-.92.11,4.03-.03,4.74.01,6.38-.24,6.9-.4,6.55-.55Z"/><path d="m320.81,4.71l-2.01.05c1.13,0,1.42-.03,2.01-.05Z"/><path d="m7.8,3.16c.77-.05.97-.09,1.18-.12-1.61.05-3.22.09-4.83.14-.8.03-1.6.06-2.41.12-.1,0-.2.02-.31.04-.02,0-.06.01-.09.02-.01,0,0-.01-.06.03-.05.05-.04.13-.03.13.02.04.09.07.1.07.06.01.11.02.16.02.21.02.41.03.61.04l1.2.04c2.9.05,2.96,0,3.08-.05-1.72-.03-3.84-.03-4.85-.16-.06,0-.15-.02-.19-.03-.01.04.11-.02.16-.01l.41-.04.83-.05,1.67-.08,3.34-.11Z"/><path d="m3.34,3.68l-1.2-.04c-.2,0-.4-.02-.61-.04-.05,0-.1-.01-.16-.02-.01,0-.08-.04-.1-.07-.01,0-.02-.08.02-.13.05-.04.05-.03.06-.03.03,0,.07-.02.09-.02.11-.02.21-.03.31-.04.81-.06,1.61-.09,2.41-.12l4.81-.14.12-.07-5.56.15-1.39.06c-.24.02-.46.03-.71.06-.03,0-.08.02-.12.03,0-.03-.18.12-.14.23.01.07.04.08.08.12.1.07.11.05.13.06.08.02.13.02.2.03l.35.02c.93.05,1.86.06,2.79.08l-1.37-.12Z"/><path d="m7.8,3.16l-3.34.11-1.67.08-.83.05-.41.04c-.05,0-.17.05-.16.01.04,0,.12.02.19.03l.02-.08c-.06,0-.15-.02-.16-.02.01,0,.02.03.02.04.05.04-.05.14-.04.12h.03s.09-.02.09-.02l.4-.04.82-.05,1.64-.07,3.28-.1.12-.11Z"/><path d="m39.95,3.66c-.06-.03-.23-.07-2-.08-.8,0-1.86.02-2.8.03,1.14.04,3.02.04,4.8.05Z"/><path d="m1.57,3.48c1.02.12,3.13.13,4.85.16-.98-.07-2.96-.05-4.85-.16Z"/><path d="m20.74,3.83s1.51-.03.09-.06c-.15,0-.6,0-.74,0-.93.02-.39.04.65.06Z"/><path d="m435.59,2.22c-2.69.1-5.11-.07-7.99.21-.45.16,5.38-.07,8.07-.11-.04-.03-.06-.06-.08-.1Z"/><path d="m402.13,3.13l.65-.02c-.2,0-.41.01-.65.02Z"/><path d="m435.67,2.32h.35c-.12,0-.25,0-.35,0Z"/><path d="m68.61,3.86l3.25.02.19-.06c-2.28-.02-3.38,0-3.43.04Z"/><path d="m118.67,1.57c-4.08,0-6.35.03-7.61.08-1.26.05-1.5.11-1.51.17l1.75.13c6.07.04,9.52-.13,14.24-.2.58-.12.17-.22-6.87-.18Z"/><path d="m41.39,2.62h-.69s.29.02.69,0Z"/><path d="m134.33,7.55h-1.14c.17.01.34.02.5.02.22,0,.43-.02.64-.02Z"/><path d="m56.93,2.45c-.56,0-1.11,0-1.69,0-.01,0-.3.01-.45.02.7,0,1.39,0,2.14-.01Z"/><path d="m147.86,1.63h3.06c-.21-.03-.36-.08-3.06,0Z"/><path d="m8.98,3.03c-.21.04-.42.08-.63.11,1.58-.04,3.33-.08,3.6-.12.27-.05-1.26-.03-2.97.01Z"/><path d="m381.61,3.44c-.18.04-.23.08,1.33.07-.17-.03.54-.08-1.33-.07Z"/><path d="m389.39,3.48h-.33c.12,0,.23,0,.33,0Z"/><path d="m376.76,3.68c.33.02.31.05,1.09.05,1.03,0,2-.06,1.67-.07-.65-.02,2.61-.17-2.3-.07-.16.03-.31.05-.47.08Z"/><path d="m376.76,3.68c.15-.03.31-.05.47-.08-2.44.07-2.24.09-.47.08Z"/><path d="m447.36.46c-.22,0-.43-.02-.69-.03-.03,0-.56,0-.6,0-.07,0,.02.02.04.03h1.25Z"/><path d="m237.18.87h-.64c.24,0,.48,0,.64,0Z"/><path d="m55.85,9.05l-2.49.06h.63c.66-.02,1.31-.04,1.86-.06Z"/><path d="m460.69,1.56c.26-.02.51-.05.77-.09.07-.01.13-.02.22-.05.03-.01.04-.01.08-.03.03-.02.05-.04.08-.06.02-.02.01,0,.05-.05.03-.04.05-.12.04-.18-.04-.19-.1-.18-.18-.24l-.07-.03c-.17-.05-.29-.06-.43-.08l.23.05c.1.05.11-.02.35.16.02.02.03.04.05.07.02.05.02.16-.01.22-.06.09-.07.07-.11.11-.06.03-.07.03-.11.05l-.15.04-.28.05-.54.07Z"/><path d="m461.84.95s.03.04.04.06c.02.05.03.14,0,.21-.06.11-.07.08-.11.12-.06.04-.07.03-.11.05l-.15.04-.27.04-.52.05-1.02.07c.15,0,.56,0,.98-.03l.54-.07.28-.05.15-.04s.05-.02.11-.05c.04-.03.05-.02.11-.11.04-.06.04-.16.01-.22-.01-.03-.03-.05-.05-.07Z"/><path d="m365.39,3.84c1.75-.02,3.39-.04,2.92-.09-.97.03-1.95.06-2.92.09Z"/>
                  </g>
                </mask>
              </defs>
              <path class="mask" d="m0,9.74c71.25-.74,171.08-2.02,290.71-4.38,100.73-1.99,171.34-3.38,170.96-4.25C460.7-1.1.89,2.2,1.35,3.46c.26.7,142.34-.99,348.98,6.03,34.69,1.18,64.48,2.38,87.63,3.37"
                    mask="url(#path-mask)" stroke="black" stroke-width="2" fill="none"
                    stroke-dasharray="1358.9256591796875" stroke-dashoffset="1358.9256591796875">
              </path>
            </svg>
        