
            <svg xmlns="http://www.w3.org/2000/svg">
              <defs>
                <mask id="path-mask">
                  <g fill="white">
                    <path d="m205.34,1.7c.81-.15.29-.45.45-.68l.58.1c.48.21,1.04.35,1.49.61.94.53,2.67.29,3.41-.35.51.05.83-.06,1.04-.25.68.17,1.69-.23,2.22.2.15.28.75.54.25.86-.36.21-.75.32-1.33.14-.48-.15-.92-.12-1.18.14h-.45c-.55.16-1.32-.66-1.75.09-.17,0-.5-.03-.5-.03-.43.65-1.47.37-2.36.31l-.02-.17c.24-.08.19-.12-.08-.14-.04.01-.09.01-.14.01l-.03-.25c.15-.02.37.01.37-.1,0-.02-.11-.07-.17-.07-.26,0-.18.1-.21.16l-.88.13c-.07.01-.14.01-.22.01.11-.14.83-.27.19-.42-.68-.16-.9.08-1.04.31-.12.24-.41.29-.87.14-.05-.35-.7-.22-1.15-.26l.02-.11c.42-.19.09-.22-.28-.24-.5-.23-.54.12-.85.13l-.06-.05.07.04c-.03.2.16.46-.74.38-.56-.05-1.04.03-.94.35l-.56.04-.49-.4c.3-.01.44-.09.46-.21.36-.12.39-.24.03-.37-.48-.02-.64-.12-.47-.32.08-.09.19-.21-.13-.23-.19-.01-.59.08-.59.12.07.52-1.21.55-1.71.85-.1.06-.14.14-.21.21l-.09.15c-1.14.03-2.34-.13-3.36.27-.26.1-.62-.02-.88-.09-.47-.13-.78-.07-1.03.12l-2.2-.2-.04-.16c-.06-.22-.42-.32-.86-.29-.35.02-.23.19-.25.3-1.22.09-2.44.19-3.72.24l.05.05c-.02.06.08.14-.16.16-.07.09-.09.19-.41.18.11-.33-.51-.41-1-.46-1.07-.12-2.32-.3-3.25-.1-.65.14-1.09.16-1.72.15-.38,0-.17.22-.2.35l-3.68.05v-.24c.24-.14.18-.28.06-.43-.21-.27.1-.4.76-.39l.58-.13c.35-.02.76.03.91-.18l-.64-.07c-.08-.12-.46-.24.03-.35.26.13.51.15.78,0h.92c.38.4,1.12.67,1.94.92.57-.27,1.41-.46,1.53-.87.8.05,1.61.13,2.42,0,.02.14-.07.31.09.4.21.13-.63.34.13.35.53,0,.42-.2.36-.36-.03-.07-.03-.33.31-.09.64.45.5-.18,1.04-.1.08.06.14.18.25.18.32.02.31-.11.4-.2,1.03.03,2.03-.19,3.12.01.57.11.87-.27,1.03-.51l5.04-.02c0,.08-.05.17,0,.24.16.2-.64.58.23.59.77,0,.1-.34.21-.53.03-.05.29-.08.44-.12,1.42-.29,2.95-.26,4.43-.26.43,0,1.12-.33,1.47.06.39.36,2.95.8,3.76.65Zm-4.89-.47l-.16.12c.07.01.16.04.22.03.06,0,.08-.05.12-.09-.06-.02-.12-.04-.18-.06Zm-8.38.47s-.08-.01-.12-.02c0,.05.05.05.12.02Z"/><path d="m20.56,3.15c-1.89.13-3.74-.1-5.61-.13-.24-.67-1.46-.3-2.24-.39-.16-.2-.13-.44-.97-.25-.51.12-1.24.06-1.89.08-.52-.09,1.09-.82-.82-.48-.28-.02-.67.06-.71-.17-.02-.12-.29-.26-.54-.22-.25.04-.49.18-.58.3-.15.2.34.11.49.16.3.11.51.27.76.4-.15.16-.84.07-.81.32-.42-.36-1.9.12-1.89-.38,0-.25.6-.53.86-.83.27-.31,1.41-.37,2.31-.32.41.03.79.14,1.2.15.39.02.87.22,1.16.03.31-.2-.77-.12-.57-.36.62-.17,1.28-.24,2-.09.05.39.24.68,1.32.35.81-.25,1.81.3,2.59-.09h.3s.56.12.56.12c.95.42,1.97.5,3.08.14.66.32,1.4.48,2.36.26h.41s-.08.07-.15.09c-.54.14-.9.3-.35.57.15.07.55.15.48.03-.16-.28,1.62-.37.32-.76.35-.04.87.02.86-.25h.61c.02.16-.47.3-.06.43.33.1.69.04.96-.08l.38.02c.79.05.84.31.95.57.06.15.25.26.63.27.14,0,.36-.06.41-.11.13-.15-.18-.19-.42-.25-.87-.22.7-.47-.05-.69.19-.24.68-.22,1.13-.22v.17c0,.17-.68.39.04.48.53.07.91-.14.8-.41h.7s.96.25.96.25c.27.19.4.39.17.61-.11.1-.08.2.23.22.37.02.43-.1.49-.22l.52.12v.37c-.87-.04-1.86.11-2.45-.37-.22-.18-.55-.08-.6.1-.04.13.03.28-.34.36-1.53.32-3.1.34-4.71.09-.98-.48-3.02-.46-4.25.04Zm-10.01-1.19c.1,0,.21-.05.31-.08-.09-.04-.17-.1-.26-.1-.1,0-.22.04-.4.08.16.05.26.1.36.1Z"/><path d="m112.69,2c.73-.1,1.07.13,1.45.33.19.1.07.39.65.28.47-.09.36-.29.27-.47-.09-.17-.13-.35-.19-.52l1.73-.06c0,.18-.19.43.59.4.59-.02.86.09.84.34-.07.14-.76.17-.41.38.12.07.39.15.57.14.6-.03.2-.25.33-.38.07-.07.13-.15.24-.21.22-.11.85-.18.61-.33-.27-.17-.73.1-1.15.07v-.34c1.64-.09,3.23.01,4.8.21-.26.38-.42.81-1.77.5-.22-.05-.58-.03-.67.12-.1.16.18.2.49.23.1.19.2.39.26.6l-.45.1.36.16c-1.07.24-2.07.18-3.01-.12-.25-.23-.72-.5-1.22-.27-.94.44-2.64-.23-3.26.48-.91-.18-1.88-.05-2.82-.07.04-.42-.68-.48-1.28-.36-.54.11-.85.07-1.26-.04.14-.37,1.09-.11,1.47-.34.14-.09.62.28.83.01.13-.16-.34-.31-.63-.44-.3-.13-.53-.16-.94-.02-.51.17-1.11.29-1.58-.09-.28-.23-.78-.06-1.07.03-.51.15-.1.25.2.35.47.16.94.34.85.64l-.3.11c-.53-.47-1.55-.29-2.42-.34-.34-.02-1.11.15-.88-.3.05-.11-.99.07-1.02.19-.06.25-.34.23-.73.23h-.28c-.52.09-1.15.27-.93-.21.26-.27.25-.26-.19-.35-.2-.04-.46-.1-.5-.18-.15-.26.64-.18.77-.36.8-.05,1.64-.32,2.32.13.17.12.68-.06.65-.09-.14-.17.96-.24.19-.43.03-.12.12-.14.44-.12,1.04.06,2.09.25,3.15.03.15.89,1.34.18,2.03.24.8,0,1.39-.33,2.24-.25-.2.24-.8.59.61.4Zm3.32.39l-.16.11c.07.01.16.04.22.03.05,0,.08-.05.12-.08-.06-.02-.12-.04-.17-.06Z"/><path d="m232.44,2.39c1-.21,2.23.13,3.15-.28.83.5,2.07.07,3.05.21.28.04.38.02.58-.05.6-.2.74-1.21.06-1.33-.71-.12-.93-.31-1.12-.59-.19-.29-.54-.58-1.21-.09-.07.05-.35.11-.47.1-1.16-.17-2.27.09-3.41.11-2.62.04-5.24.15-7.87.24v.27c.23,0,.41,0,.46.12.39-.06.85-.13,1.18-.13.78-.02,1.73-.29,2.35.09.37.22,3.05.61,3.59.46.09-.03.18-.1.17-.14-.14-.37.37-.2.6-.12.28.09.45.24.69.35.14.06.56-.04.52.1-.02.09-.27.17-.6.21-.69.07-1.66,0-1.74.49Z"/><path d="m83.59,3.63c.69-.08,1.5-.02,1.95-.34-.2-.04-.45-.13-.59-.11-.53.09-1.03.23-1.41-.08-.32-.25.13-.39.45-.56.57-.3,1.01-.16,1.47.05.29.13.77.18,1.01.08.81-.35,1.17-.02,1.65.16.31.02.7-.03.78.16.02.04-.13.13-.18.13-.4-.01-.42-.18-.59-.29l-.87.62c.57.5,1.31.18,2,.08-.02-.17.03-.32.53-.35,0-.12.04-.24-.04-.35-.22-.33.61-.28.86-.44.07-.04.24-.08.29,0,.1.18-.18.26-.49.36-.18.06-.05.28-.05.43.28-.17,1.06.1,1.14-.24-.1-.04-.38-.07-.11-.16l.1.16c.4.08.16.39.65.38.18,0,.32-.24.48-.38,0-.1.05-.19.29-.24-.01-.04-.03-.07-.04-.11h-.26c-.44-.2-1.81-.41.06-.57.12-.01.18-.16.27-.24-.8,0-1.64.19-2.37-.18-.09-.04-1.17.25-1.89.27-.2.15-.44.17-.88.19-1.27.05-2.59-.27-3.8.09-.49-.37-1.36.05-1.87-.16-.5-.2-.91-.26-1.53-.08-.85.25-1.22.06-1.23-.32l-1.4.04c.06.24-.32.39-.6.56.64.31,1.3.62-.05.91-.17.04-.06.14.11.19.55-.24,1.35.1,1.81-.1,1.06-.47.85,0,.99.22h.3c.03-.14.19-.22.53-.22.04-.18.27-.24.59-.25l-.02-.2c.32.02.27.12.27.21.63.2,1.59.24,1.69.68Z"/><path d="m216.56,2.16c.36,0,.62-.09.81-.21.4-.25.89-.49.13-.77-1.19-.44-1.23.24-1.84.36l-1.13-.2c-.53-.43-1.54-.04-2.22-.2l-.02-.31c.65.03,1.4-.33,1.89-.06.62.33,1.25.24,1.97.16,2.82-.31,5.66-.31,8.51-.21.05.15.05.29-.3.38h-.55s-.28-.12-.28-.12c-.09-.06-.17-.07-.26,0-1.8.09-2.04.23-1.35.75.02.02.03.04.04.05,1.58-.35,2.02.7,3.57.48.64-.09,1.5-.13,1.68.32-.42.01-.89.38-1.04.19-.27-.36-.71-.17-1.15-.17-1.54,0-3.05-.03-4.63.05-2.26.12-4.59-.02-6.9.07-.46.02-1.19.13-1.23-.25.27-.26.7-.29,1.18-.14.58.18.97.08,1.33-.14.6.11,1.19.25,1.77-.04Zm2.82-.88c.01.13.18.36.64.29.44-.08,1.1-.26,1.12-.4.05-.29-.53,0-.74-.06-.41.04-1.06-.21-1.02.18Zm1.34,1.07c.29,0,.81,0,.83-.23,0-.13-.18-.25-.49-.23-.33.01-.66.09-1.09.15.32.14.52.3.75.31Zm-1.73-.84h-.17s.02.04.02.04c.13,0,.13-.02.15-.04Z"/><path d="m35.77,3.33c.7-.1,1.25-.06,2.04.06,1.15.18,2.58.06,3.88.03.65-.02,1.35.14,1.96-.06v-.35c-.13-.16-.5-.41-.06-.47,1.3-.17,1.13-.8,2.04-1.07-.48,0-.91.08-1.28.2-.05,0-.09.01-.12.03-.05.16.15.37-.37.44-.41.06-.7-.01-.76-.21l-.07-.05.06.05c.6.12.63-.26,1.13-.23.03-.02.04-.04.04-.06-.57-.37-1.27-.01-1.9-.07-.8.36-1.65.34-2.5.03-.25-.09-.42-.22-.71-.01-.44.33-1.08.21-1.69.09-.88.25-.48.58-.27.89.06.08.24.2-.07.25-.26.04-.42-.04-.53-.14h-.31c.16.27-.67.39-.5.66Z"/><path d="m133.79,3.27c.56.2,1.14.36,1.9.19.95-.35,1.97-.41,3.05-.12.2-.16.59-.19.93-.26l.57.1c-.07-.11-.18-.32-.2-.32-1.05.08-1.75-.36-2.76-.32-.73.03-1.41.01-1.61-.37,0-.01-.08-.02-.12-.02l-.42.13c.12.43-.62.39-1.18.35-1.86-.11-3.73.13-5.61-.09-1.14-.13-1.2-.02-.66-.48.16-.14.27-.29.41-.44-1.08.09-2.34-.14-3.21.33.2.04.4.09.61.1.35.02.84-.24,1,.02.06.11-.48.31-.83.43-.18.06-.53.04-.81.05-.23,0-.48,0-.59.11-.14.14.1.21.33.28.37.1.47.35,1.05.34.73.25,1.54.39,2.5.26,1.1-.37,2.38-.37,3.67-.35-.02-.1.04-.23.27-.22.41,0,.15.17.24.26.54-.35,1.11-.78,1.46.04Z"/><path d="m223.82,1.09l-.28-.12h-.13s-.13,0-.13,0c-1.8.09-2.04.23-1.35.75.02.02.03.04.04.05,1.58-.35,2.02.7,3.57.48.64-.09,1.5-.13,1.68.32.46-.2,1.3-.1,1.65-.39-.45-.24-.02-.61.22-.6.69,0,.27.32.37.5.02.04,0,.08,0,.12.53.34,1.42-.06,2.02.15.36-.12.68-.12.96.04.08-.49,1.06-.41,1.75-.49.33-.04.57-.12.6-.21.04-.14-.39-.03-.52-.1-.24-.11-.41-.26-.69-.35-.23-.08-.74-.25-.6.12.02.04-.08.11-.17.14-.54.15-3.22-.23-3.59-.46-.62-.37-1.57-.1-2.35-.09-.32,0-.79.07-1.18.13-.38.12-.4-.01-.45-.12v-.27s-.57,0-.57,0c.05.15.05.29-.3.38-.07.06-.12.16-.21.17-.29.03-.3-.09-.34-.17Z"/><path d="m48.14,1.56l.02.14c.23.27.4.56.69.82.61.56,1.72.63,2.64.16.11-.06.17-.15.31-.18.52-.11.56-.52.04-.68q-.22-.07-.34.2c-.06.12-.04.29-.44.29-.12,0-.25-.14-.38-.22-.74-.1-.69-.39-.85-.63.85-.15,1.71-.13,2.58-.04-.36.38.49.48.9.68l.44-.23.89-.11s.02.06.01.1c-.54.43.29.81.27,1.22h-.54s0-.04-.03-.05c-.38-.13-.31-.54-.77-.47-.69.1.08.4-.05.61l-.32.27c-1.3-.05-2.63.06-3.9-.15h-.55s-.02-.24-.02-.24l.12-.06-.15.05h-.35c-.18-.02-.43-.13-.42.07l-.56.12.08-.04.09.04c-.38-.27-1.34-.24-1.61-.68-.13-.21-1.34.18-1.99.35-.11.03-.18.08-.27.13-.14-.16-.51-.41-.07-.47,1.3-.17,1.13-.8,2.04-1.07.87-.15,1.71-.13,2.52.09Zm3.7,1.32c.02.07.09.13.13.2.04-.03.1-.07.11-.1,0-.05-.04-.11-.07-.18-.08.04-.18.07-.17.09Z"/><path d="m89.8,3.17c-.5.03-.55.18-.53.35l.47.04.36-.02c.91.08,1.78.2,2.74.04.39-.07.96-.08,1.43.05.51.14,1.48.15,1.65.11,1.74-.41,3.43-.2,5.1.01.61.08,1-.11,1.5-.11h7.71c.28,0,.56.05.72-.09.04-.42-.68-.48-1.28-.36-.54.11-.85.07-1.26-.04-.19.16-.55.12-.86.14l-.3.11c-.53-.47-1.55-.29-2.42-.34-.34-.02-1.11.15-.88-.3.05-.11-.99.07-1.02.19-.06.25-.34.23-.73.23-.09.11-.19.11-.29,0-.52.1-1.14.27-.92-.21h-.42c-.44.18-.9.33-1.51.11-.51.28-1,.65-1.66.05l-.81-.02c-.18.29-.72.19-1.16.2-.64.02-.53-.19-.57-.35-.74.42-1.48.29-2.22,0-.16.13-.3.37-.48.38-.5.01-.25-.3-.65-.38-.07.34-.86.07-1.13.24h-.58Z"/><path d="m59.68,3.33c.4.22.83.34,1.43.12-.34-.2-.66-.41-.27-.64.31-.18.55.14.89.06.44.39.7.16.99-.04.34-.23.66-.28.89.04.8-.07.68-.37.82-.6-.12-.27-.76-.37-1.08-.58-.53-.25-1.24-.31-1.91-.2-.51.08-.94.09-1.43.03-.49.15.02.58-.84.59-.63,0-.53-.28-.63-.46l-.56.03c.04.17.11.35.11.52,0,.11-.27.16-.51.15-.21,0-.37-.07-.25-.15.18-.12.67-.23.15-.36-.13-.03-.59.19-.9.29-.1.04-.15.15-.35.04l.36-.04c-.21-.49-.92-.39-1.66-.26-.23.4.89.6.81.98,1.22-.22,1.2.1,1.11.46.49-.06.89.19,1.39.08-.07-.41.47-.77,1.31-.72,1.17.07-.38.36.02.56.06.03.06.07.1.11Z"/><path d="m164.48,2.91h.46s.89-.14.89-.14l.33-.02-.03-.1c-.19-.04-.29-.1-.13-.19.02-.01.1-.02.13-.01.25.07-.01.14-.01.2.46.02.8-.05,1.02-.24.68-.6,1.77-.12,1.75.02-.07.45.67.42,1.2.53.67-.16,1.33-.31,2.01-.47.3-.06.87-.02.7-.26-.14-.2-.76-.05-.91-.11-.49-.19-1.24.39-1.51-.1-.37-.03-.81-.02-.87-.25-.31,0-.64.03-.85-.11-.69-.03-1.38-.05-2.06-.1-1.35-.09-2.51.4-3.87.24v.28c.34-.01.68-.04.86.13-.02.16-.03.32-.54.33l.24.35h1.19Z"/><path d="m77.44,3.29c-.17-.05-.29-.15-.11-.19,1.35-.29.69-.6.05-.91l-.52.03v.35s.07.05.07.05l-.06-.05c-.47-.12-1.5.14-1.42-.37-.79.04-1.5-.41-2.37-.06-.13.05-.67-.09-.7-.29l-.83-.05c-.36.29-1.41.4-1.21.84,0,.02-.18.06-.28.09-.61-.7-.87.17-1.36.05v.12c1.42.65,1.76.05,2.26-.35l.11-.03-.12.03c.28.06.81.11.82.17.14.88,1.18.33,2.02.28.87-.05,1.88-.22,2.65.16.38.1.32.41.98.38l.02-.25Z"/><path d="m32.4,2.43l.52.12c1.27.09,1.25.47,1.11.87.42.14.4-.09.6-.12-.37-.55.26-1.02,1.41-1.07-.26-.28-.28-.56,0-.84-.29-.29-.54-.09-.79,0,.17.06.21.16-.02.17-.31.02-.26-.12-.29-.21-.67-.4-1.66-.14-2.38-.13-1.17.02-2.45-.19-3.56.12v.17s.82.06.82.06c.26-.21.49-.1.72,0l.96.25c.07-.16.13-.33.65-.3.35.02.55.13.72.26.39.3-.15.46-.49.64Z"/><path d="m170.36,2.03c.28.49,1.02-.09,1.51.1.16.06.78-.09.91.11.16.24-.41.19-.7.26-.68.16-1.34.31-2.01.47l.25.21h.33c.9-.36,2.05-.16,3.07-.27.24-.14.18-.28.06-.43-.21-.27.1-.4.76-.39v-.12c.02-.17.21-.25.62-.23.08,0,.16,0,.24-.02-.08-.12-.46-.24.03-.35l-.02-.12c-1.61-.06-3.21-.18-4.83.02.26.27.74.55-.21.77Z"/><path d="m147.29,3.27c.33-.01.31.48.9.11.44-.28.87.11,1.31,0,.12-.47.72-.38,1.35-.21.54.14.98.07,1.38-.09.42-.17.6-.36.16-.57-.59-.02-1.14-.18-1.78-.08-1.98.32-2.2.31-3.79-.05-.04,0-.11-.02-.12-.01-.81.45-2.04-.18-2.86.22.08.21.09.44.65.54.02-.15.15-.17.53-.15.81.05,1.56.14,2.28.29Z"/><path d="m170.36,2.03c.95-.22.47-.5.21-.77-.63-.13-1.05-.37-1.94,0-.64.26-1.94,0-2.97.04-1.39.05-2.85.16-4.26,0-.62-.07-1.03-.04-.95.29.07.33.57.31,1.12.25l1.16-.03c1.36.16,2.52-.33,3.87-.24.68.05,1.37.07,2.06.1.17-.06.35-.17.49-.16.31.02.34.16.36.28.06.23.5.22.87.25Z"/><path d="m70.96,2.55c-.5.4-.84,1-2.26.35l-1.14.15c-.3.09-.62.17-.54.36.53.31,1.23.08,1.81.08,2.22-.02,4.45.14,6.69-.04.6-.05.68-.16.91-.3-.77-.38-1.78-.22-2.65-.16-.84.05-1.88.6-2.02-.28-.01-.06-.53-.11-.81-.17Z"/><path d="m128.09,1.61c-.13.15-.24.3-.41.44-.54.46-.48.35.66.48,1.89.22,3.75-.02,5.61.09.57.03,1.31.08,1.18-.35-1.06-.45-2.21-.38-3.47-.15-.82.15-1.44.06-1.29-.41-.82.2-1.51-.14-2.29-.1Z"/><path d="m143.83,2.6c.82-.4,2.06.23,2.87-.22,0,0,.09,0,.12.01,1.59.36,1.81.37,3.79.05.64-.1,1.18.06,1.78.08-.25-.39-.53-.77-1.51-.96l-.71.25c-.26.25-.67.23-1.24.19-.7-.05-1.55,0-2.15-.03-1.22-.05-2.31.36-3.48.11l.31.5c.08,0,.15,0,.23.01Z"/><path d="m158.13,1.82c-.36.38-.66.73.81.77.47.01.18.17.14.27-.72.24-1.52.1-2.04-.05-1.31-.39-1.61-.05-1.89.39l-.27.03c-.86-.21-2.28-.31-.94-.94.24-.11.23-.32.34-.49.74-.01,1.49-.04,2.22-.03.48,0,.84-.01.89-.26l.83.03c-.03.1-.02.2-.1.29Zm-2.36.36s-.08-.01-.15.03c.04,0,.08,0,.15-.03Z"/><path d="m7.64,2.76c-.42-.36-1.9.12-1.89-.38,0-.25.6-.53.86-.83.27-.31,1.41-.37,2.31-.32.41.03.79.14,1.2.15.39.02.87.22,1.16.03.31-.2-.77-.12-.57-.36-1.32-.42-2.99.04-4.36-.35-.43-.12-.34.23-.69.27-.34.14,1.18.34-.07.45-.42.37-1.52.57-1.36,1.08.26.03.59.04.76.11.41.18.4.8,1.47.24,0,0,.38.15.62.18.69.11,1.35.07,1.93-.12-.19-.48-.97,0-1.36-.16Z"/><path d="m3.96,1.08c-.34-.02-.59-.09-.77-.23-.44-.34-1.29-.56-1.96-.35C.63.69.09,1.02.02,1.42c-.13.73.61.97,2.28.85.41-.03.91.15,1.37.24.51-.29.32-.59-.23-.8-.55-.21-1.06-.06-1.45.18-.15.09-.81.23-.75-.04.05-.24-.33-.46-.08-.69.15-.14.23-.32.68-.34.47-.02.67.14.72.3.05.18.12.32.64.31.5-.01.76-.12.76-.34Z"/><path d="m143.28,2.09c1.17.25,2.25-.17,3.48-.11.61.03,1.45-.01,2.15.03.58.04.98.06,1.24-.19-.99-.6-2.45-.25-3.67-.27-1.81-.03-3.66.25-5.43-.12l-.14.16c.26.18,1.18.39-.22.48-.46.03-.72.23.07.3.83-.1,1.44-.6,2.51-.27Z"/><path d="m79.38,1.59c.02.38.39.57,1.23.32.62-.18,1.03-.12,1.53.08.51.21,1.39-.21,1.87.16,1.21-.36,2.53-.04,3.8-.09.43-.02.68-.04.88-.19-1.16-.33-2.42-.35-3.78-.29-.87.03-1.74.06-2.69-.08-.82-.12-1.89.05-2.84.09Z"/><path d="m24.49,1.43h.61s.9.34.9.34l.39.02,1.26-.24c-.73-.61-2.21-.43-3.26-.46-2.1-.06-4.22.08-6.33.14l-.57.12c.95.42,1.97.5,3.08.14.9-.11,1.85-.32,2.36.26h.41s.29-.03.29-.03c0-.09-.02-.13-.03-.17l-.09-.09.2.04.78-.08Z"/><path d="m180.58,1.41c.8.05,1.61.13,2.42,0,.64-.02,1.26,0,1.73.21.43,0,.65-.01.87-.02,1.03.03,2.03-.19,3.12.01.57.11.87-.27,1.03-.51-3.1-.09-6.19-.09-9.29.1l.12.21Z"/><path d="m159.08,2.85c-.72.24-1.52.1-2.04-.05-1.31-.39-1.61-.05-1.89.39,2.16.11,4.31.32,6.46-.05.52-.09.85.17,1.27.13.58-.06,1.48.09,1.59-.36h-1.19s-1.96-.09-1.96-.09l-2.24.04Z"/><path d="m201.88,2.01c-.03.2.16.46-.74.38-.56-.05-1.04.03-.94.35,2.31.22,4.63.44,7.02.11l-.02-.17-.08-.14s-.09.01-.14.01c-.4.08-.8.16-.92-.12-.07.01-.14.01-.22.01l-.85-.1c-.12.24-.41.29-.87.14-.5-.03-1.01.26-1.47.03-.15-.08.07-.21.32-.28l.02-.11-.28-.24c-.5-.23-.54.12-.84.13Z"/><path d="m154.89,3.22c-.86-.21-2.28-.31-.94-.94.24-.11.23-.32.34-.49-.41-.03-.28-.17-.3-.27l-.55.04c.17.26-.54.37-.56.6l.37.05s-.08.04-.08.04c-.1-.03-.2-.06-.3-.09-.49-.16-.19-.39-.3-.59-.56-.29-1.13-.33-1.71,0,.98.18,1.26.56,1.51.96.44.21.26.4-.16.57-.4.16-.84.24-1.38.09-.63-.17-1.23-.26-1.35.21,1.42.06,2.87-.15,4.27.05.55.08.84-.06,1.13-.22Z"/><path d="m140.77,2.35c-.79-.07-.53-.27-.07-.3,1.4-.09.48-.29.22-.48-.24.23-.68.06-1.02.1.04.15-.22.37-.43.31-1.03-.3-1.75.18-2.64.15-.48.19-.5.03-.54-.12-.48-.19-.6-.02-.74.14.04,0,.12.01.12.02.2.38.87.4,1.61.37,1.01-.04,1.72.39,2.76.32.03,0,.13.21.2.32l1.1.22.58.13.07-.34c-1.24-.06-1.32-.42-1.22-.84Z"/><path d="m125.66,3.28c-.58.01-.68-.24-1.05-.34-.24-.07-.48-.14-.33-.28.11-.11.36-.1.59-.11.27-.01.62.01.81-.05.35-.12.89-.32.83-.43-.15-.26-.65,0-1-.02-.21-.01-.41-.07-.61-.1-.27-.19-.51,0-.76.01-.42.1-.87.24-.75.44.49.79-.82.79-2,.87.14.17.76.09.8.31.96-.13,1.88.1,2.85.06.7-.03.55-.2.62-.35Z"/><path d="m136.83,2.13c.89.04,1.62-.45,2.64-.15.21.06.46-.15.43-.31-1.79-.03-3.57,0-5.36.08-.9.04-1.84-.03-2.73-.11-.54-.05-.97,0-1.44.06-.16.47.47.56,1.29.41,1.27-.23,2.42-.3,3.47.15l.42-.13c.14-.15.26-.33.74-.13l.54.12Z"/><path d="m159.08,2.85l2.24-.04.02-.25c-.31,0-.58-.04-.53-.19.05-.15.36-.15.63-.16.1-.12.11-.25.11-.38-.56.06-1.05.08-1.12-.25-.72-.13-1.46-.13-2.21-.05-.03.1-.02.2-.1.29-.36.38-.66.73.81.77.47.01.18.17.14.27Z"/><path d="m67.56,3.05l1.14-.15v-.12s-.06-.05-.06-.05l.06.05c.48.12.75-.76,1.36-.05.1-.03.29-.07.28-.09-.2-.44.85-.55,1.21-.84-.06-.14-.31-.12-.54-.12-.3.19-.77.13-1.19.15-.31-.08-.5.42-.67.08-.17-.36-.69-.13-.98-.22-.49.24-.72.1-.88-.12-.29-.05-.64-.29-.83.04l-.13.19c.34.08.51.28,1,.28.33.08.2.22.23.34,1.5.22-.2.43,0,.64Z"/><path d="m206.37,1.12c.48.21,1.04.35,1.49.61.94.53,2.67.29,3.41-.35-.69.01-1.46.05-.98-.43-1.33-.08-2.66-.16-3.92.17Z"/><path d="m67.56,2.42c1.5.22-.2.43,0,.64-.3.09-.62.17-.54.36-.86.03-1.77.37-2.54-.09-.04-.02-.05-.05-.04-.08,1.13-.37,1.22-.9,1.16-1.45h.72c.34.08.51.28,1,.27-.03.13-.04.25.23.34Zm-.9.39c.18.06.35-.05.3-.11-.11-.14.46-.4-.4-.4-.43.06-.4.15-.08.25.06.09.05.21.19.26Z"/><path d="m87.26,3.45c-.26,0-.48-.24-.78-.04-.66.44-.72.05-.94-.12-.2-.04-.45-.13-.59-.11-.53.09-1.03.23-1.41-.08-.32-.25.13-.39.45-.56.57-.3,1.01-.16,1.47.05.29.13.77.18,1.01.08.81-.35,1.17-.02,1.65.16l-.86.62Zm-3.14-.47s.1-.02.11-.03c.01-.03,0-.06,0-.09l-.22.05s.07.05.12.07Z"/><path d="m196.44,2.58c-1.14.03-2.34-.13-3.36.27-.26.1-.62-.02-.88-.09-.47-.13-.78-.07-1.03.12.97.39,2.13.23,3.22.15,1.41-.11,2.75.33,4.17.04.21-.04.46-.04.55-.16-.29-.27-.79-.34-1.35-.17-.68.21-1.01.06-1.32-.16Z"/><path d="m3.96,1.08c0,.22-.26.33-.76.34-.52.01-.59-.13-.64-.31-.05-.17-.25-.32-.72-.3-.45.01-.53.2-.68.34-.25.23.14.45.08.69-.06.28.61.13.75.04.4-.24.9-.38,1.45-.18.54.2.73.51.23.8.19.08.37.13.56,0-.16-.5.94-.71,1.36-1.08-.3-.11-.57-.22-.58-.41l-1.05.05Z"/><path d="m92.64,2.95c.74.29,1.48.42,2.22,0,.44-.36,1.77-.27,2.01-.73l-.1-.4c-.49-.13-.93-.1-1.33.07-.06.07.12.18-.18.22l-.09-.22c-.08-.02-.17-.03-.27-.02-1.15.07-.92.73-1.98.84-.24.05-.3.14-.29.24Z"/><path d="m170.32,3.17l-.25-.21c-.53-.11-1.26-.09-1.2-.53.02-.14-1.07-.62-1.75-.02-.21.19-.55.26-1.02.24.02.03.03.06.04.1l-.02.37c1.38.14,2.75.39,4.19.06Z"/><path d="m183.57,3.16c.11-.33-.51-.41-1-.46-1.07-.12-2.32-.3-3.25-.1-.65.14-1.09.16-1.72.15-.38,0-.17.22-.2.35,1.35.08,2.66.24,4.08.02.61-.09,1.39.02,2.09.04Z"/><path d="m76.86,2.21l.52-.03c.28-.17.66-.32.6-.56-1.41-.18-2.91.12-4.34-.23-.57-.14-.75.33-1.27.45.03.2.57.34.7.29.88-.35,1.59.1,2.37.06.51-.71.93.11,1.41.02Z"/><path d="m100.57,2.97h.42c.26-.26.25-.25-.19-.34-.2-.04-.46-.1-.5-.18-.15-.26.64-.18.77-.36l-.59-.24-.93-.08-1.88.45c1.28.37,1.25.46-.27.92.65.6,1.15.23,1.66-.05.5-.05.74-.7,1.51-.12Z"/><path d="m121.38,3.26c1.17-.08,2.48-.08,2-.87-.13-.2.33-.34.75-.44-.13-.41-.73-.07-1.09-.12-.26.38-.42.81-1.77.5-.22-.05-.58-.03-.67.12-.1.16.18.2.48.22l.13-.02-.11.03.3.58Z"/><path d="m64.49,3.33s-.05-.05-.04-.08c-.12-.19-1-.08-.83-.38-.23-.32-.55-.27-.89-.04-.3.2-.55.43-.99.04-.34.07-.58-.25-.89-.06-.4.23-.07.44.27.64,1.14.04,2.35.4,3.38-.12Z"/><path d="m47.52,3.21c-.38-.27-1.34-.24-1.61-.68-.13-.21-1.34.18-1.99.35-.11.03-.18.08-.27.13v.35c1,.27,1.95-.18,2.95-.03l.74-.05c.1,0,.16-.03.18-.07Z"/><path d="m201.58,1.05c.39.36,2.95.8,3.76.65.81-.15.29-.45.45-.68-.51.06-1.03.21-1.52-.02-.11-.05-.47-.09-.49-.07-.65.43-1.48.05-2.2.12Z"/><path d="m7.64,2.76c.39.16,1.17-.31,1.36.16.4.21.8.09,1.2.01.67-.33,1.72-.14,2.5-.31-.16-.2-.13-.44-.97-.25-.51.12-1.24.06-1.87.09l-.35.15-.11-.07.44-.09c-.52-.09,1.09-.82-.82-.48-.07.19.18.44-.58.47-.15.16-.84.07-.81.32Z"/><path d="m184.14,2.83c-.02.06.08.14-.16.16,1.71.06,3.52.47,4.99-.3l-.04-.15h-1.12c-1.22.11-2.44.21-3.67.3Z"/><path d="m12.71,2.63c-.78.17-1.84-.02-2.5.31.09.38.71.08,1.03.12,1.22.14,2.48.05,3.72-.04-.24-.67-1.46-.3-2.24-.39Z"/><path d="m32.93,2.93c-.88-.04-1.87.11-2.46-.37-.22-.18-.55-.08-.6.1-.04.13.03.28-.34.36-.12.38.62.27,1.01.3.88.05,1.77.04,2.66.06-.07-.15.15-.33-.26-.45Z"/><path d="m37.45,1.66c.61.11,1.25.24,1.69-.09.29-.21.45-.08.71.01.85.31,1.7.34,2.5-.03-.79-.34-1.79-.29-2.76-.26-.71.03-1.42.07-2.13.1v.26Z"/><path d="m112.08,1.59c-.2.24-.8.59.61.4.73-.1,1.07.13,1.45.33.19.1.07.39.65.28.47-.09.36-.29.27-.47-.09-.17-.13-.35-.19-.52l-2.79-.03Z"/><path d="m56.86,3.3c.09-.35.11-.67-1.11-.46l-.85.23h-.54c-.23.13-.55.11-.85.1l-.32.27c-.03.24.35.18.65.15l3.02-.29Z"/><path d="m100.48,1.85l.59.24c.8-.05,1.64-.32,2.32.13.17.12.68-.06.65-.09-.14-.17.96-.24.19-.43-1.24.08-2.6-.36-3.75.15Z"/><path d="m56.6,2.13c.31-.1.77-.32.9-.29.52.13.03.24-.15.36-.12.08.04.15.25.15.24,0,.5-.04.51-.15,0-.17-.07-.35-.11-.52-1.02-.34-2.18-.27-3.33-.22l-.04.3s.02.06,0,.1h.31c.74-.12,1.44-.21,1.65.27Z"/><path d="m92.93,2.71c1.06-.11.83-.77,1.98-.84-.59-.3-1.19-.56-1.96-.09-.09.08-.14.23-.27.24-1.86.16-.49.37-.06.56.05-.08,0-.2.33-.19l-.07.2s.03.07.04.11Z"/><path d="m118.25,3.42c-.25-.23-.72-.5-1.22-.27-.94.44-2.64-.23-3.26.48,1.52.05,3.01-.02,4.48-.21Z"/><path d="m141.34,3.39l-1.1-.22-.57-.1c0,.29-.47.27-.93.26-1.08-.28-2.1-.23-3.05.12.09.13.39.25.59.21,1.64-.31,3.48.16,5.07-.28Z"/><path d="m12.7.98c.05.39.24.68,1.32.35.81-.25,1.81.3,2.59-.09-1.16-.54-2.58-.25-3.91-.26Z"/><path d="m177.12,1.36c.38.41,1.12.68,1.94.92-.17-.41.25-.74.81-1.06-.57-.21-1.08-.02-1.61.06-.28.33-.74.11-1.14.08Z"/><path d="m24.81,3.11c-.98-.48-3.02-.46-4.25.04,1.21.23,2.43.04,3.65.05.03-.24.33-.15.61-.09Z"/><path d="m81.66,2.94c-.33.01-.55.07-.55.23l.36.08.08.13-.27-.04-.22-.15c-.34,0-.5.08-.53.22,1.03.05,1.92.45,3.06.23-.1-.43-1.06-.48-1.69-.68h-.25Z"/><path d="m131.82,3.19c-1.29-.02-2.57-.02-3.67.35.43.21.84.3,1.49.08.82-.27,1.84-.02,2.74-.12l-.05-.27c-.17-.01-.34-.03-.51-.04Z"/><path d="m36.05,2.23c-1.15.05-1.78.53-1.41,1.07l1.13.02c-.17-.27.66-.39.5-.65-.33-.13-.19-.29-.22-.44Z"/><path d="m97.67,2.22l1.88-.45c-.95-.2-1.89-.35-2.78.05l.1.4h.8Z"/><path d="m65.61,1.81h.72s.13-.2.13-.2c-1.05-.08-2.12-.28-3.1.08.31.21.96.3,1.08.58.2-.05.37-.09.55-.12.05-.17.07-.34.63-.34Z"/><path d="m37.45,1.66v-.26s-1.39-.01-1.39-.01c-.29.28-.27.56,0,.84.68.03.52.25.53.43.11.09.26.18.53.14.31-.05.13-.17.07-.25-.21-.32-.61-.64.27-.89Z"/><path d="m77.44,3.29l-.02.25c.96.02,2.01.39,2.82-.13-.14-.22.07-.69-.99-.22-.46.21-1.26-.14-1.81.1Z"/><path d="m141.99,3.19l-.07.34c1.09.23,2.07-.01,3.08-.15l-.53-.24c-.56-.11-.57-.33-.65-.54-.08,0-.15-.01-.23-.01,0,.46-.17.84-1.61.6Z"/><path d="m154.29,1.79c.74-.01,1.49-.04,2.22-.03.48,0,.84-.01.89-.26-.99-.3-2.09,0-3.12-.08,0,.12,0,.24,0,.36Z"/><path d="m144.48,3.14l.53.24c.8.15,1.64.43,2.29-.1-.72-.15-1.48-.24-2.28-.29-.38-.02-.51,0-.53.15Z"/><path d="m59.68,3.33s-.04-.08-.1-.11c-.4-.2,1.14-.49-.02-.56-.84-.05-1.38.31-1.31.72.49.06,1.02.27,1.43-.05Z"/><path d="m196.44,2.58c.32.22.64.37,1.32.16.56-.17,1.06-.1,1.35.17.2-.03.45-.01.52-.13l-.5-.4c-.88-.1-1.74.04-2.62.05l-.09.15Z"/><path d="m210.29.95c-.48.48.29.44.98.43.51.05.83-.06,1.05-.25l-.02-.31c-.66.09-1.31.18-2.01.13Z"/><path d="m173.72,2.91c-1.02.11-2.17-.09-3.07.27,1.02.29,2.04-.04,3.07-.03v-.24Z"/><path d="m107.81,1.61c.15.89,1.34.18,2.03.24-.04-.17.15-.43-.68-.31-.42.06-.89.05-1.35.07Z"/><path d="m58.56,1.65c.1.18,0,.46.63.46.86,0,.35-.44.84-.59-.68-.34-.98.08-1.47.13Z"/><path d="m27.64,1.55l-1.26.24c.79.05.84.31.95.57.06.15.25.26.63.27.14,0,.36-.06.41-.11.13-.15-.18-.19-.42-.25-.87-.22.7-.47-.05-.69-.08-.02-.16-.02-.25-.02Z"/><path d="m211.83,2.48c-.55.16-1.32-.66-1.75.09q.24.44,1.75-.09Z"/><path d="m50.68,2.09c-.74-.1-.69-.39-.85-.63-.58-.02-1.21-.2-1.69.1l.02.14c.42.06,1.15-.05,1.21.19.15.53.74.31,1.31.2Z"/><path d="m52.41,1.43c-.36.38.49.48.9.68l.44-.23.35-.49c-.58-.07-1.09.22-1.69.05Z"/><path d="m118.23,1.97v-.34c-.53-.1-1.05-.19-1.63-.07,0,.18-.19.43.59.4.59-.02.86.09.84.34.26-.09.18-.21.2-.32Z"/><path d="m179.86,1.22c-.55.32-.97.65-.81,1.06.57-.27,1.41-.46,1.53-.87l-.12-.21-.6.03Z"/><path d="m32.93,2.93c.42.12.19.3.26.45l.84.05c.14-.41.16-.78-1.11-.87v.37Z"/><path d="m132.33,3.23l.05.27c.55.01,1.01-.07,1.41-.23-.35-.82-.91-.39-1.46-.04Z"/><path d="m194.8,1.08c0,.08-.05.17,0,.24.16.2-.64.58.23.59.77,0,.1-.34.21-.53.03-.05.29-.08.44-.12-.19-.15-.36-.31-.88-.17Z"/><path d="m177.12,1.36c.4.03.86.25,1.14-.08l-.62-.06c-.23.01-.43,0-.54-.1l-1.14.12.24.13h.92Z"/><path d="m229.46,2.2s.02-.08,0-.12c-.1-.18.31-.49-.37-.5-.23,0-.67.37-.22.6l.59.02Z"/><path d="m152.89,2.15c.02-.23.73-.34.56-.6l-.86.02c.1.2-.19.43.3.58Z"/><path d="m5,1.03c.02.18.29.3.58.41,1.25-.1-.27-.31.07-.45-.05-.03-.13-.05-.22-.03h-.37c-.08.02-.1.04-.06.07Z"/><path d="m47.92,3.09l-.56.12c.25.27.93.19,1.35.31l.03-.24-.02-.24c-.15-.01-.27-.01-.38-.01-.04.14-.23.1-.42.06Z"/><path d="m122.18,3.57c-.05-.22-.66-.14-.84-.29l-.45.1.36.16c.3.07.6.09.93.03Z"/><path d="m67.29,1.57c.17.22.39.36.88.12-.24-.12-.33-.44-.88-.12Z"/><path d="m165.82,2.77l-.89.13c-.04.32.45.24.89.2v-.34Z"/><path d="m69.82,1.83c.42-.01.89.05,1.19-.15-.6-.25-.93-.1-1.19.15Z"/><path d="m232.44,2.39c-.28-.15-.6-.16-.96-.04.31.05.5.51.96.04Z"/><path d="m176.2,1.37l-.24-.13h-.56s.02.13.02.13c.26.13.51.15.78,0Z"/><path d="m44.25,1.63s0,.04-.04.06c.04-.02.08-.03.13-.03l.08-.26-.17.23Z"/><path d="m177.1,1.12c.11.1.31.12.54.1,0-.2-.18-.23-.54-.1Z"/><path d="m34.96,1.36c.03.09-.02.22.29.21.23-.01.19-.11.02-.17l-.31-.04Z"/><path d="m48.75,3.29l-.03.24c.29-.04.49-.11.58-.24h-.55Z"/><path d="m47.34,3.28l-.74.05c.31.16.56.15.74-.05Z"/><path d="m154.28,1.78v-.36c-.18-.02-.28.01-.29.09.03.1-.11.24.29.26Z"/><path d="m95.18,1.89l.09.22c.3-.04.11-.15.18-.22-.09-.02-.18-.02-.27,0Z"/><path d="m24.81,3.11c-.28-.06-.58-.15-.61.09.25.04.51.07.61-.09Z"/><path d="m196.53,2.43c.87,0,1.74-.15,2.62-.05.3-.01.44-.09.46-.21l.03-.37c-.48-.02-.64-.12-.47-.32.08-.09.19-.21-.13-.23-.19-.01-.59.08-.59.12.07.52-1.21.55-1.71.85-.1.06-.14.14-.21.21Z"/><path d="m214.79,2.2c.6.11,1.19.25,1.77-.04-1-.02-.19-.52-.89-.62l-1.13-.2c.15.28.75.54.25.86Z"/><path d="m184.74,1.62c-.48-.21-1.09-.23-1.73-.21.02.14-.07.31.09.4.21.13-.63.34.13.35.53,0,.42-.2.36-.36-.03-.07-.03-.33.31-.09.64.45.5-.18.83-.1Z"/><path d="m204.99,2.34l.85.1c.11-.14.83-.27.19-.42-.68-.16-.9.08-1.04.31Z"/><path d="m202.98,2.22c-.25.07-.47.21-.32.28.46.24.97-.06,1.47-.03-.05-.35-.7-.22-1.15-.26Z"/><path d="m187.81,2.54h1.12c-.06-.23-.42-.33-.86-.3-.35.02-.23.19-.25.3Z"/><path d="m175.4,1.72c-.08.01-.16.02-.24.02l-.03.22c.34-.02.76.03.91-.18l-.64-.07Z"/><path d="m206.06,2.43c.12.28.52.2.92.12l-.03-.25c-.3.04-.59.09-.89.13Z"/><path d="m200.63,1.29c-.06-.02-.12-.04-.18-.06l-.16.12c.07.01.16.04.22.03.06,0,.08-.05.12-.09Z"/><path d="m185.6,1.6h-.65c.08.08.14.19.25.2.32.02.31-.11.4-.2Z"/><path d="m202.72,1.88l.28.24c.42-.19.09-.22-.28-.24Z"/><path d="m206.95,2.3c.15-.02.37.01.37-.1,0-.02-.11-.07-.17-.07-.26,0-.18.1-.2.17Z"/><path d="m199.64,1.8l-.03.37c.36-.12.39-.24.03-.37Z"/><path d="m191.96,1.69c0,.05.05.05.09.06,0-.05-.05-.05-.09-.06Z"/><path d="m174.55,1.96v.12s.57-.13.57-.13c-.19,0-.38,0-.57,0Z"/><path d="m201.87,2.01l-.06-.05s.05.03.06.05Z"/><path d="m207.12,2.54l.08.14c.24-.08.19-.12-.08-.14Z"/><path d="m32.4,2.43c.34-.19.88-.35.49-.64-.17-.13-.37-.24-.72-.26-.52-.03-.58.14-.65.3.27.19.4.39.17.61-.11.1-.08.2.23.22.37.02.43-.1.49-.22Z"/><path d="m8.45,2.45c.75-.03.51-.29.58-.47-.28-.02-.67.06-.71-.17-.02-.12-.29-.26-.54-.22-.25.04-.49.18-.58.3-.15.2.34.11.49.16.3.11.51.27.76.4Z"/><path d="m22.92,1.75c-.51-.58-1.46-.37-2.36-.26.65.32,1.4.48,2.36.26Z"/><path d="m23.62,1.72l-.29.03s-.08.08-.15.1c-.54.14-.9.3-.35.57.15.07.55.15.48.03-.16-.28,1.62-.37.31-.72Z"/><path d="m29.84,1.58l-.81-.06c-.01.16-.69.39.03.48.53.07.91-.14.78-.41Z"/><path d="m26,1.77l-.9-.33c.02.14-.47.28-.05.41.33.1.69.04.96-.08Z"/><path d="m10.19,1.86c.16.05.26.1.36.1.1,0,.21-.05.31-.08-.09-.04-.17-.1-.26-.1-.1,0-.22.04-.4.08Z"/><path d="m24.49,1.43l-.78.08-.11.05.03.12c.35-.04.87.02.86-.25Z"/><path d="m30.56,1.58c-.23-.1-.46-.22-.7,0h.7Z"/><path d="m11.9,1.28c.08.03.12.01.16,0-.03-.01-.06-.02-.16,0Z"/><path d="m107.55,3.3c.31-.02.67.01.86-.14.14-.37,1.09-.11,1.47-.34.14-.09.62.28.83.01.13-.16-.34-.31-.63-.44-.3-.13-.53-.16-.94-.02-.51.17-1.11.29-1.58-.09-.28-.23-.78-.06-1.07.03-.51.15-.1.25.2.35.47.16.94.34.85.64Z"/><path d="m118.23,1.97c-.02.11.06.24-.2.32-.06.14-.76.17-.41.38.12.07.39.15.57.14.6-.03.2-.25.33-.38.07-.07.13-.15.24-.21.22-.11.85-.18.61-.33-.27-.17-.73.1-1.15.07Z"/><path d="m116.18,2.45c-.06-.02-.12-.04-.17-.06l-.16.11c.07.01.16.04.22.03.05,0,.08-.05.12-.08Z"/><path d="m102.21,3.19h-.28c.09,0,.19,0,.28,0Z"/><path d="m225.23.98c.06.1.08.23.45.12-.05-.11-.23-.12-.45-.12Z"/><path d="m89.8,3.17h.58c0-.14-.12-.36.05-.42.31-.11.59-.18.49-.36-.05-.09-.22-.05-.29,0-.25.16-1.08.11-.86.44.07.11.03.23.04.35Z"/><path d="m88.13,2.82c.18.11.19.28.59.29.06,0,.2-.09.18-.13-.08-.19-.47-.15-.77-.16Z"/><path d="m81.66,2.94h.25c0-.08.05-.18-.27-.2l.02.2Z"/><path d="m92.89,2.6l.07-.2c-.33,0-.28.1-.33.19h.26Z"/><path d="m91.51,2.95l-.1-.16c-.27.09,0,.11.1.16Z"/><path d="m215.66,1.54c.7.1-.1.6.89.62.36,0,.62-.09.81-.21.4-.25.89-.49.13-.77-1.19-.44-1.23.24-1.84.36Z"/><path d="m220.39,1.1c-.41.04-1.06-.21-1.02.18.01.13.18.36.64.29.44-.08,1.1-.26,1.12-.4.05-.29-.53,0-.74-.06Z"/><path d="m219.96,2.05c.32.14.52.3.75.31.29,0,.81,0,.83-.23,0-.13-.18-.25-.49-.23-.33.01-.66.09-1.09.15Z"/><path d="m223.82,1.09c.04.09.04.2.34.17.09,0,.14-.11.21-.17h-.55Z"/><path d="m218.83,1.55c.09-.04.03-.05-.02-.05l.02.05Z"/><path d="m223.28.98h.13s.13,0,.13,0c-.09-.06-.17-.07-.26,0Z"/><path d="m43.09,1.93c.06.2.35.27.76.21.52-.07.32-.28.37-.44-.51-.03-.53.35-1.13.23Z"/><path d="m36.58,2.67c-.01-.18.15-.4-.54-.44.04.15-.1.32.23.44h.31Z"/><path d="m43.08,1.93l-.06-.05s.04.03.06.05Z"/><path d="m131.82,3.19l.51.04c-.09-.09.17-.26-.24-.26-.23,0-.29.12-.27.22Z"/><path d="m138.74,3.33c.46.01.94.04.93-.26-.34.06-.73.1-.93.26Z"/><path d="m50.68,2.09c-.57.11-1.17.33-1.31-.2-.07-.24-.8-.13-1.21-.19.23.27.4.56.69.82.61.56,1.72.63,2.64.16.11-.06.17-.15.31-.18.52-.11.56-.52.04-.68q-.22-.07-.34.2c-.06.12-.04.29-.44.29-.12,0-.25-.14-.38-.22Z"/><path d="m54.95,1.87h-.31c-.54.42.3.8.27,1.21l.85-.23c.08-.38-1.04-.58-.81-.98Z"/><path d="m53.52,3.18c.31,0,.63.03.85-.09,0-.02,0-.05-.03-.06-.38-.13-.31-.54-.77-.47-.69.1.08.4-.05.61Z"/><path d="m52.01,2.79c-.08.04-.18.07-.17.09.02.07.09.13.13.2.04-.03.1-.07.11-.1,0-.05-.04-.11-.07-.18Z"/><path d="m47.92,3.09c.19.03.38.07.42-.06-.18-.02-.43-.13-.42.06Z"/><path d="m48.72,3.04l.12-.06c-.05.02-.1.03-.12.06Z"/><path d="m97.67,2.22h-.8c-.24.47-1.58.38-2.01.74.04.16-.07.37.57.35-.27-.23.19-.34.49-.41.36-.08.53.09.67.21l.81.02c1.52-.46,1.55-.55.27-.92Z"/><path d="m96.59,3.11c-.14-.13-.31-.3-.67-.21-.3.07-.76.18-.49.41.44,0,.98.09,1.16-.2Z"/><path d="m100.57,2.97c-.77-.58-1.01.07-1.51.12.61.22,1.07.07,1.51-.12Z"/><path d="m102.21,3.19h-.29c.1.11.19.11.29,0Z"/><path d="m65.61,1.81c-.56,0-.58.17-.63.34.08.24-.21.19-.52.12-.17.24-.05.54-.85.61-.16.3.71.19.83.38,1.13-.37,1.22-.9,1.16-1.44Z"/><path d="m56.6,2.13l-.36.04c.2.11.25,0,.36-.04Z"/><path d="m161.55,2.22c-.13.11-.17.22-.21.34.57,0,1.14-.01,1.7-.02.51-.01.52-.17.54-.33-.3-.02-.68.03-.86-.13l-1.18.14Z"/><path d="m169.5,1.78c-.01-.12-.04-.26-.36-.28-.14,0-.33.1-.49.16.2.14.53.11.85.11Z"/><path d="m162.73,2.08c.18.16.55.11.86.13-.18-.17-.52-.14-.86-.13Z"/><path d="m166.11,2.65c0-.07.27-.14.01-.2-.03,0-.11,0-.13.01-.16.09-.07.14.12.19Z"/><path d="m76.86,2.21c-.48.09-.9-.73-1.41-.02-.08.51.95.24,1.42.37v-.35Z"/><path d="m70.95,2.55l.12-.03s-.07.02-.12.03Z"/><path d="m76.87,2.56l.06.05-.06-.05Z"/><path d="m174.55,1.96h.57s.03-.23.03-.23c-.4-.02-.6.06-.6.23Z"/><path d="m141.99,3.19c1.44.23,1.61-.15,1.61-.6l-.31-.5c-1.07-.33-1.68.17-2.51.27-.1.41-.03.78,1.22.84Z"/><path d="m155.62,2.21h.12s-.05-.04-.12,0Z"/><path d="m152.88,2.16c.1.03.2.06.3.09,0,0,.05-.03.08-.04-.12-.02-.25-.03-.38-.05Z"/><path d="m136.83,2.13l-.54-.12c.04.15.06.32.54.12Z"/><path d="m161.34,2.56l.11-.35c-.28,0-.59,0-.63.16-.05.16.22.19.53.19Z"/><path d="m67.33,2.08c-.03.13-.04.25.23.34-.03-.12.1-.26-.23-.34Z"/><path d="m68.7,2.78l-.06-.05.06.05Z"/><path d="m66.47,2.55c.06.09.05.21.19.26.18.06.35-.05.3-.11-.11-.14.46-.4-.4-.4l-.08.25Z"/><path d="m66.47,2.55l.08-.25c-.43.06-.4.15-.08.25Z"/><path d="m84,2.9s.07.05.12.07c0,0,.1-.02.11-.03.01-.03,0-.06,0-.09l-.22.05Z"/><path d="m121.08,2.68l.11-.03s-.08.02-.11.03Z"/><path d="m9.85,2.46l-.44.09.11.07c.12-.05.23-.1.33-.16Z"/><path d="m81.47,3.25l-.36-.08c.03.07.1.12.17.17l.19-.09Z"/><path d="m64.47,2.26c.31.07.6.12.52-.12l-.52.12Z"/>
                  </g>
                </mask>
              </defs>
              <path class="mask" d="m0,1.85c73.11.91,147.65.81,223.55-.42,5.4-.09,10.79-.18,16.18-.28"
                    mask="url(#path-mask)" stroke="black" stroke-width="2" fill="none"
                    stroke-dasharray="239.74049377441406" stroke-dashoffset="239.74049377441406">
              </path>
            </svg>
        