
            <svg xmlns="http://www.w3.org/2000/svg">
              <defs>
                <mask id="path-mask">
                  <g fill="white">
                    <path d="m156.81,6.36c2.96.08,1.08-.07,1.67-.1l2.12.11c1.74.11,3.75.24,5.42.35,3.39.25,9.76.46,12.48.43,1.87.09,3.04.12,3.83.11,2.48.14,6.17.23,8.09.41.52.09,2.7.24.87.23-1.32-.01-2.75-.05-4.87-.19-1.75-.11-3.34-.17-4.33-.16l-1.64-.07c-2.04-.05-4.8-.35-6.39-.25-.64-.03-1.81-.08-1.84-.08-1.61.08-5.38-.13-8.64-.27l-.05-.04c.89.02.71,0-.3-.04-.16,0-.33-.01-.51-.02l-.1-.06c.56.02,1.37.06,1.36.03,0,0-.4-.03-.6-.04-.94-.03-.68,0-.78,0l-3.23-.09c-.26,0-.53-.02-.8-.03.4-.02,3.05.05.72-.07-2.47-.13-3.3-.11-3.81-.07-.47.04-1.52.01-3.17-.08-.16-.09-2.54-.15-4.19-.21l.08-.02c1.56,0,.34-.04-1-.09-1.81-.12-1.98-.04-3.12-.08l-.23-.02.26.02c-.11.05.57.13-2.72,0-2.05-.08-3.81-.12-3.46-.03l-2.03-.06-1.78-.16c1.11.03,1.6.03,1.69,0,1.33.01,1.44-.01.14-.09-1.77-.06-2.35-.11-1.72-.14.3-.01.71-.03-.46-.07-.34,0-.88-.02-1.34-.03-.46,0-.82,0-.82,0,.21.14-4.47,0-6.29.02-.37,0-.53.02-.79.03l-.32.03c-4.17-.11-8.55-.28-12.31-.27-.95,0-2.28-.06-3.22-.11-1.7-.08-2.85-.09-3.77-.06l-8.04-.24-.14-.05c-.22-.06-1.51-.12-3.15-.15-1.26-.02-.85.03-.94.06-4.47-.07-8.94-.14-13.62-.21l.19.02c-.06.02.3.04-.59.03-.25.02-.35.05-1.5.02.4-.08-1.83-.14-3.64-.19-3.92-.1-8.46-.22-11.9-.22-2.38,0-3.98-.01-6.29-.05-1.4-.02-.62.05-.74.09l-13.46-.14.02-.07c.89-.03.67-.07.24-.12-.75-.08.39-.11,2.79-.08h2.12c1.27,0,2.79.03,3.35-.02l-2.33-.04c-.29-.04-1.66-.08.11-.1.93.05,1.87.06,2.84.03l3.35.04c1.37.13,4.09.24,7.06.35,2.11-.04,5.18-.05,5.62-.15,2.94.06,5.87.13,8.84.15.07.04-.26.08.31.12.76.05-2.32.05.48.1,1.94.04,1.56-.02,1.35-.07-.1-.02-.11-.09,1.15,0,2.31.16,1.83-.01,3.82.04.3.02.52.06.92.07,1.16.03,1.14,0,1.46-.02,3.76.08,7.42.1,11.41.25,2.08.08,3.19,0,3.81-.05l18.45.48s-.21.04-.01.06c.56.07-2.39.08.8.18,2.82.08.39-.08.8-.11.12-.01,1.05,0,1.62.02,5.2.08,10.82.26,16.21.44,1.57.05,4.13.06,5.37.2,1.42.14,10.73.57,13.72.65Zm-17.85-.75h-.59c.27.02.58.03.78.04.2,0,.3,0,.45,0-.22-.01-.43-.02-.64-.04Zm-30.65-.79c-.12,0-.28-.01-.42-.02.02.01.18.02.42.02Z"/><path d="m75.25,8.2c-6.89.2-13.69.29-20.53.45-.92-.18-5.35.04-8.2.08-.58-.05-.51-.12-3.56.01-1.85.08-4.53.13-6.91.19-1.91.02,3.95-.34-3.02-.07-1.02.02-2.46.08-2.61,0-.07-.03-1.07-.05-1.98-.02-.93.03-1.79.1-2.11.14-.54.07,1.25,0,1.81,0,1.1.02,1.89.04,2.8.05-.56.06-3.07.09-2.93.16-1.54-.07-6.94.2-6.94.05,0-.07,2.18-.21,3.11-.32.96-.11,5.13-.23,8.43-.29,1.49-.02,2.91-.04,4.39-.06,1.43-.03,3.19,0,4.23-.09,1.12-.09-2.83.03-2.11-.06,2.27-.11,4.66-.18,7.3-.2.2.11.9.18,4.84-.01,2.94-.14,6.65-.07,9.48-.25l1.09-.03h2.07c3.48.03,7.22-.03,11.28-.23,2.41.04,5.13.02,8.64-.13l1.49-.04c-.18.01-.29.02-.54.04-1.98.09-3.29.17-1.25.2.53,0,2,0,1.75-.03-.59-.07,5.91-.25,1.14-.25,1.28-.04,3.17-.07,3.14-.15l2.23-.05c.08.04-1.7.12-.19.13,1.21,0,2.51-.05,3.49-.11l1.41-.03c2.89-.05,3.07.02,3.48.08.24.04.92.06,2.3.02.51-.01,1.32-.05,1.48-.07.45-.05-.67-.04-1.55-.04-3.18,0,2.55-.2-.22-.2.69-.09,2.47-.12,4.14-.16l.03.05s-2.51.17.13.14c1.95-.03,3.31-.12,2.92-.19l2.56-.06h3.54c.99.02,1.48.07.64.15-.39.04-.29.06.83.04,1.35-.03,1.56-.07,1.77-.11h1.9s.05.1.05.1c-3.22.06-6.85.19-9.01.1-.82-.03-2.01.02-2.2.08-.14.04.12.08-1.24.13-5.58.22-11.32.37-17.23.43-3.59-.06-11.07.12-15.55.38Zm-36.67.51c.38-.02.75-.03,1.12-.05-.32,0-.61,0-.96,0-.36.01-.79.03-1.48.06.6,0,.96,0,1.32,0Z"/><path d="m184.24.77c-2.68.05-3.93,0-5.31-.06-.69-.02-.24-.11-2.38-.06-1.73.04-1.33.09-1.01.14.31.05.48.09.71.14l-6.33.06c-.02-.05.71-.13-2.16-.1-2.17.02-3.16,0-3.08-.07.24-.04,2.77-.07,1.52-.12-.44-.02-1.44-.03-2.1-.02-2.21.03-.74.08-1.23.12-.27.02-.47.05-.88.07-.79.04-3.11.08-2.24.11,1,.04,2.67-.05,4.19-.05v.1c-6,.07-11.83.09-17.57.09.94-.12,1.55-.24,6.49-.2.82,0,2.14-.01,2.47-.05.36-.05-.66-.05-1.79-.05-.36-.05-.73-.1-.96-.16l1.63-.04-1.32-.03c3.91-.1,7.56-.11,10.99-.06.9.06,2.65.12,4.44.04,3.44-.15,9.65,0,11.94-.22,3.34.03,6.87-.03,10.3-.05-.14.12,2.49.12,4.69.07,1.96-.04,3.12-.04,4.59-.02-.51.11-3.98.05-5.37.13-.52.03-2.28-.06-3.05.02-.47.05,1.25.08,2.31.11,1.08.03,1.93.03,3.43-.01,1.88-.06,4.08-.11,5.76,0,1.01.06,2.84,0,3.91-.03,1.87-.05.36-.07-.74-.1-1.73-.04-3.43-.08-3.11-.16l1.1-.04c1.93.12,5.67.05,8.83.05,1.23,0,4.06-.06,3.23.07-.2.03,3.64-.04,3.75-.07.23-.07,1.26-.07,2.65-.08h1.03c1.92-.04,4.19-.09,3.4.04-.96.08-.93.08.7.1.72,0,1.67.02,1.82.04.54.07-2.34.06-2.81.11-2.92.02-6,.11-8.48,0-.64-.03-2.49.03-2.38.04.51.05-3.52.08-.68.13-.12.03-.43.04-1.6.04-3.81,0-7.64-.03-11.52.05-.55-.25-4.9-.02-7.43-.02-2.92.02-5.08.13-8.19.12.72-.07,2.94-.19-2.23-.1Zm-12.14-.02l.6-.04c-.27,0-.57,0-.79,0-.19,0-.3.02-.45.03.22,0,.43,0,.64.01Z"/><path d="m255.74,11.46c3.67.19,8.14.51,11.53.65,2.98.26,7.57.47,11.11.71,1.01.06,1.4.08,2.12.12,2.22.1,2.78-.02.34-.19-2.57-.18-3.38-.26-4.03-.34-.68-.09-1.94-.21-4.4-.29-.27-.01-1.28-.07-1.72-.09-4.22-.25-8.28-.5-12.45-.75l-28.74-1.73.02.05c.81.05,1.47.09,1.65.12,1.42.08,3.13.17,4.3.24,2.83.17,6.32.34,8.56.54,1.34.12,11.09.79,13.07.88.33.02.68.02.62.01-.47-.09,1.37.05,2.21.11,1,.09,1.62.14,2.49.21.5.04,2.05.12,1.9.13-.09,0-.99-.03-2.19-.1-2.51-.14-6.07-.37-6.4-.3Z"/><path d="m290.68.32c-2.51-.04-5.48-.1-7.14-.03.72.02,1.65.05,2.15.06,1.94,0,3.76,0,5.18.13,1.16.1-.48.1-1.66.12-2.09.04-3.7-.02-5.39-.1-1.06-.05-2.83-.09-3.69-.07-2.96.07-4.27-.03-6.03-.09-1.13-.01-2.55,0-2.84-.06-.06-.01.46-.03.67-.03,1.48.01,1.52.06,2.17.1l3.17-.15c-2.08-.16-4.79-.09-7.33-.07.07.05-.1.09-1.94.09.03.03-.14.07.13.1.81.1-2.24.07-3.15.11-.25.01-.88.02-1.06,0-.38-.05.64-.07,1.78-.1.65-.02.16-.08.19-.12-1.01.04-3.88-.04-4.18.06.37.01,1.39.02.39.05l-.36-.05c-1.47-.02-.57-.11-2.39-.11-.64,0-1.16.07-1.74.1.02.03-.2.05-1.07.07.05,0,.1.02.16.03h.96c1.6.06,6.62.13-.2.16-.45,0-.65.04-.97.07,2.94,0,6.01-.04,8.68.07.33,0,4.27-.03,6.9-.05.73-.04,1.62-.04,3.2-.03,4.63.02,9.47.16,13.9.15,1.77.14,4.97.1,6.84.28.46.04.89.08,1.32.14.21.03.43.06.62.1.04,0,.1.03.1.03,0,0-.05-.04-.04-.07-.01-.03,0-.08.01-.11,0-.01.01-.02.02-.03.02-.02,0,0-.02,0-.08.03-.18.05-.29.07-.85.14-1.8.22-2.93.33-3.09.29-4.44.29-4.51.19l-5.1.26c.24.06-1.17.16-2.18.25,2.34-.02,4.77-.04-.17.27-.63.04-.22.05.42.04,1.99-.15,4.92-.19,6.61-.34,3.88-.35,3.11-.18,3.63-.15l1.08-.08c.1-.05.68-.1,1.92-.22.07-.03.31-.07.68-.13.19-.03.41-.06.66-.11.06-.02.13-.03.2-.05.08-.05.12.01.27-.17.04-.13-.03-.17-.07-.21l-.08-.04s-.08-.03-.12-.04c-.08-.02-.15-.03-.23-.05l.08.07c-1.19-.17-.99-.14-.99-.18-2.32-.24-5.82-.31-6.19-.45Z"/><path d="m197.76,8.19c1.33.06,2.26.09,2.96.1,1.47.02,3.28.06.54-.13-4.3-.3-4.5-.17-6.73-.24l-4.1-.23c-1.91-.18-5.61-.26-8.09-.41l-.05-.07c2.38.11,5.14.16,6.91.3,2.24.17,4.57.26,7.19.37,10.33.43,20.7.95,31.09,1.56.18.04.16.07-1.13,0l-2-.11-1.03-.08c-.31-.03-.62-.05-.94-.05-6.56-.33-7.48-.35-4.99-.11.07,0,.1.01.14.02,5.8.24,7.33.51,13,.81,2.36.12,5.49.31,6.12.43-1.55-.09-3.29-.13-3.8-.19-.97-.13-2.6-.19-4.17-.28-5.63-.34-11.13-.61-16.92-.89-8.25-.38-16.76-.78-25.2-1.17-1.68-.07-4.36-.16-4.48-.25.99-.02,2.58.05,4.33.16,2.11.13,3.55.17,4.87.19,2.17.12,4.34.25,6.46.29Zm10.35.32s.64.11,2.32.17c1.63.07,4.02.15,4.11.13.18-.05-1.94-.1-2.7-.15-1.48-.07-3.85-.24-3.73-.15Zm4.82.46c1.06.05,2.96.15,3.04.11.04-.02-.65-.08-1.78-.14-1.22-.05-2.4-.1-3.97-.17,1.16.09,1.88.16,2.72.2Zm-6.26-.48l-.62-.03h.08c.46.04.49.03.54.03Z"/><path d="m130.87,6.94c2.56-.09,4.56-.13,7.45-.16,4.2-.04,9.43-.2,14.19-.32,2.38-.06,4.94-.07,7.17-.18l.02-.1c-.53-.03-1.89-.08-.27-.13,4.76-.16,4.12-.33,7.42-.48-1.76.04-3.31.1-4.69.17-.18,0-.33.01-.45.02-.18.05.57.09-1.33.16-1.5.05-2.57.06-2.78,0h-.25s.23,0,.23,0c2.21-.02,2.28-.13,4.11-.16.11,0,.16-.02.14-.02-2.1-.06-4.66.1-6.95.14-2.92.17-6.01.24-9.15.22-.93,0-1.55-.03-2.59.06-1.6.13-3.94.15-6.19.17-3.21.15-1.73.21-.94.28.2.02.88.04-.25.08-.96.04-1.53.02-1.93,0l-1.14.03c.6.06-2.45.17-1.81.23Z"/><path d="m107.06,1.09c-2.03-.03-4.15-.06-6.95.02-3.49.14-7.2.2-11.16.16-.75.05-2.15.08-3.41.11h-2.1c.25.03.64.08.73.08,3.83-.07,6.41.03,10.1-.03,2.69-.04,5.14-.06,5.87.04.02,0,.29,0,.44,0,.51-.02,1.02-.04,1.53-.05-.45-.12,2.26-.13,4.33-.15,6.8-.04,13.63-.18,20.53-.19,4.16,0,4.39-.04,2.4.11-.59.05-1,.09-1.49.14,3.95-.06,8.55-.04,11.73-.2-.75,0-1.47,0-2.24,0-1.27,0-3.09.1-3.65.03-.23-.03,1.77-.1,3.03-.15.67,0,1.94-.03,2.95-.04.84-.01,1.75-.02,2.16-.05.53-.05-.35-.06-1.22-.07-1.36-.02-1.73-.08-3.84-.06-2.67-.05-5.61-.06-9.12.01-4.01.14-8.7.19-13.43.23.06.03-.15.07-1,.07-1.5.01-.55-.04-.87-.07-1.99.12-4.05.26-5.33.05Z"/><path d="m224.36,9.32l-1.03-.08-.47-.02-.47-.02c-6.56-.33-7.48-.35-4.99-.11.07,0,.1.01.14.02,5.8.24,7.33.51,13,.81,2.36.12,5.49.31,6.12.43,1.71.07,4.76.27,6.05.29-1.63-.14-.02-.11.84-.06,2.51.15.98.12,1.33.17.07.01,0,.01,0,.02,1.92.18,5.2.3,7.35.47,1.33.06,2.5.13,3.51.22.34-.07,3.9.16,6.41.3,1.21.07,2.1.11,2.19.1.15-.01-1.4-.09-1.9-.13-.87-.07-1.49-.13-2.49-.21-.84-.06-2.68-.21-2.21-.11.05.01-.29,0-.62-.01-1.98-.09-11.74-.76-13.07-.88-2.23-.21-5.72-.37-8.56-.54-1.18-.07-2.88-.16-4.3-.24-1.38-.06-1.44-.09-1.65-.12l-.02-.05-2.03-.13c.18.04.16.07-1.13,0-.25,0-.44,0-.78-.01-1.08-.05-1.08-.07-1.22-.1Z"/><path d="m176.06,5.38l.07.04c.84.06,1.5.13,2.54.18,2.23.11,6.32.04,9.65-.18.41-.03.62-.06,1.13-.09,1.9-.09,2.02-.21.13-.2q-.79,0-1.24.09c-.21.04-.15.09-1.59.13-.44.01-.93-.02-1.4-.03-2.71.03-2.53-.05-3.14-.11,3.09-.11,6.24-.18,9.43-.26-1.31.15,1.81.08,3.29.09l1.61-.12,3.25-.13s.06.02.04.03c-1.98.18,1.1.2,1.01.32l-1.96.06s0-.01-.11-.01c-1.39,0-1.14-.12-2.84-.05-2.51.11.3.11-.18.18l-1.17.11c-4.75.14-9.6.3-14.25.34l-2.02.05-.09-.07.43-.03-.56.03-1.27.03c-.65,0-1.56,0-1.53.05l-2.05.08.28-.02h.31c-1.41-.04-4.9.05-5.9-.06-.47-.05-4.88.16-7.28.27-.4.02-.65.04-.97.06-.53-.03-1.89-.08-.27-.13,4.76-.16,4.12-.33,7.42-.48,3.18-.12,6.26-.18,9.2-.19Zm13.58.05c.09.02.32.03.49.04.14-.01.38-.03.38-.04,0-.02-.15-.03-.26-.04-.3.02-.65.04-.62.04Z"/><path d="m267.98.19c1.84,0,2.01-.04,1.94-.09l-1.72-.02h-1.33c-3.31-.04-6.51-.08-10.03-.03-1.43.02-3.51.02-5.22-.02-1.88-.04-5.43-.04-6.03-.03-6.37.12-12.54.08-18.65.04-2.25-.01-3.66.04-5.5.05l-28.21.15c-1.01,0-2.04,0-2.63.04-.14.12,2.49.12,4.69.07,1.96-.04,3.12-.04,4.59-.02.68-.05,2.01-.05,3.15-.06l1.1-.04c1.93.12,5.67.05,8.83.05,1.23,0,4.06-.06,3.23.07-.2.03,3.64-.04,3.75-.07.23-.07,1.26-.07,2.65-.08.34-.03.69-.03,1.05,0,1.89-.03,4.17-.09,3.37.05.51,0,1.03,0,1.55,0,1.62-.06,3.29-.11,5.54-.05,1.86-.08,3.67-.19,6.06-.03h2.97c.64-.08,2.63-.05,4.23-.06,2.35,0,1.94.05,2.1.1,2.71-.12,5.42-.08,8.14,0,.58-.04,1.1-.1,1.74-.1,1.82,0,.93.09,2.39.11.26-.09,3.13-.01,4.15-.06h2.11Z"/><path d="m218.32,4.68c1.45.02,3.06,0,5.21-.13-1.23-.02-2.44-.04-.99-.15,1.15-.09,2.02-.02,3.26-.08,1.62.06,2.55-.03,3.62-.13,1.22-.1,2.42-.16,3.26-.09,2.92-.11,2.47-.18,2.99-.27-.44-.06-2.8-.02-3.95-.04-1.95-.01-4.53.05-6.99.16-1.85.08-3.44.13-5.22.17-1.81.1.07.16-3.06.26-2.32.07-1.94-.02-2.3-.06l-2.06.07c.15.05.43.09.4.14-.02.03-.97.07-1.86.1-.77.02-1.36.02-.91-.02.66-.05,2.46-.14.55-.12-.48,0-2.15.12-3.28.18-.36.02-.54.06-1.27.05l1.3-.05c-.79-.12-3.36-.01-6.06.11-.82.14,3.29.07,2.99.19,4.44-.2,4.39-.1,4.06,0,1.78-.07,3.25-.04,5.09-.13-.27-.11,1.7-.27,4.77-.35,4.26-.11-1.37.15.1.16.2,0,.24.01.35.02Z"/><path d="m7.32,3.72h1.68s3.24,0,3.24,0h1.19s-.06-.02-.1-.03c-.7-.02-1.05-.03-.45-.06.09,0,.38,0,.47,0,.92.02-.05.04-.06.06,1.69.01,2.94,0,3.73-.05,1.25-.08,2.87-.08,4.17-.05,1.3.03,2.27.07,2.23.09-.25.12,2.43.13,4.37.18,2.45-.02,4.87-.05,7.36-.07,1.09,0,3.18.02,2.59-.05-.49-.06-2.77-.04-3.34-.06-1.78-.07-4.53.07-5.53-.07-1.36-.02-2.96-.03-3.17-.09-1.14,0-2.36,0-3.1-.05-2.51-.02-5.03-.05-7.52-.07-4.82-.01-8.98-.02-13.85-.03v-.08c-.28.04.04.03.16.06l.45.03c.3.01.59.02.87.04.55.02,1.03.04,1.35.07-.08.04-.12.1-1.99.04l.88.13,4.37.07Z"/><path d="m283.22,2.46c-.63.01-1.05,0-.42-.04,4.94-.3,2.51-.28.17-.27l-1.91.09.04.1h.24s-.23,0-.23,0c-1.73.04-5.49.26-5.21.11-2.87.12-5.48.09-8.68.31-.46.03-2.46.06-2.57,0l-3.03.09c-1.31.13-5.14.29-4.4.39-.04,0-.66.04-1.01.06-2.25-.12-3.19.16-4.96.18.01.01,0,.02,0,.03,5.19.01,6.42-.2,8.24-.38l.4-.02-.42.02c.52-.01,1.26-.03,1.87-.04.31,0,.58-.01.78-.02.2,0,.33,0,.34,0,.53.23,4.31-.06,7.37-.18,3.2-.13,6.88-.32,9.7-.33,1.39-.03,1.19.07,3.6-.04l.06-.07Z"/><path d="m118.53,6.97h1.9c4.65-.09,4.59.02,4.1.15,1.53,0,1.45-.06,2.2-.09-1.38-.13.9-.32,5.11-.43-.97-.06-1.05-.14,0-.25-1.07-.06-1.96.02-2.89.07.62,0,.77.03-.06.05-1.14.03-.95-.01-1.07-.04-2.46-.06-6.08.1-8.69.16-4.28.1-8.96.15-13.02.34l.03.05,2.97-.05c.93-.08,1.78-.07,2.63-.06h3.54c.25-.06.47-.12,2.38-.15,1.28-.02,2.02,0,2.63.01,1.43.05-.52.15-1.77.23Z"/><path d="m28.87,3.62c1,.14,3.75,0,5.53.07.57.02,2.85,0,3.34.06.59.07-1.5.04-2.59.05-2.48.02-4.91.05-7.36.07l.89.07h1.19c3.31-.07,7.52.02,11.24.03.89-.03.67-.07.24-.12-.75-.08.39-.11,2.79-.08l.05-.03s.75-.06,2.22-.04c.3,0,.6,0,.88,0-.29-.04-1.66-.08.11-.1l-.09-.04c-5.88-.08-11.75-.17-17.66-.16.95.08,2.69.17-.79.21Z"/><path d="m57.68,1.7c-1.22.02-1.11-.12-3.27.02-1.62.1-3.16.02-4.78.07-.45.14-2.65.15-4.95.13-1.96-.01-3.57.04-5.04.11-1.53.07-2.2.14-.58.17,2.17-.03,4.17-.02,6.49-.08,7.25-.2,8.05-.21,13.87-.19.14,0,.42,0,.45,0,2.96-.17,7.47-.05,10.48-.2-.29-.06-.32-.12-2.37-.12-.07.04-.55.06-1.95.07-2.95.01-5.71.02-8.35.03Z"/><path d="m28.87,3.62c3.48-.04,1.73-.13.79-.21-2.29-.05-3.82-.13-7.11-.05-2.37.06-7.09-.04-10.88-.06-2.55-.02-5.15-.04-7.77-.06l-1.95-.06-.48-.03-.22-.03s-.04,0-.04,0h0s.11.04.11.12c0,.02.03.12-.03.19-.07.08-.07.06-.07.06h-.01s.04,0,.04,0c.29-.05.63-.07.94-.09,1.29-.08,2.59-.12,3.88-.16,2.25-.06,3.75-.1,3.5-.19-.24-.09-2.07-.03-4.1.06-1.41.07-2.84.09-4.22.25,4.87.01,9.04.02,13.85.03,2.48.02,5.01.05,7.52.07.61-.01,1.29-.04,1.81-.03,1.14.01,1.25.05,1.29.09.21.06,1.81.07,3.17.09Z"/><path d="m259.52,3.14c-1.82.18-3.05.39-8.24.38l-4.15.18c-1.1.06-2.25.12-1.96.17,1.95.03,4.49-.12,6.62-.19,8.13-.27,16.27-.5,24.45-.87,2.18-.1,2.49-.14,3.33-.22-2.82,0-6.51.2-9.7.33-3.07.13-6.85.41-7.37.18,0,0-.14,0-.34,0-.2,0-.47,0-.78.02-.61.01-1.34.03-1.85.04Z"/><path d="m127.9,1.35c.49-.05.9-.08,1.49-.14,1.99-.15,1.76-.12-2.4-.11-6.9,0-13.73.14-20.53.19-2.07.01-4.78.03-4.33.15,3.86.08,8.07.02,12.71-.09,2.99-.07,5.27-.07,4.7.07,3.01-.09,5.51-.02,8.36-.06Z"/><path d="m70.35,1.72c-3.02.15-7.53.03-10.48.2-.04,0-.31,0-.45,0-5.82-.02-6.61-.01-13.87.19-2.33.06-4.32.05-6.49.08.92.1,1.93.19,5.5.18l2.62-.11c.96-.09,2.45-.1,4.55-.12,2.56-.03,5.66-.07,7.88-.1,4.47-.05,8.45-.22,12.72-.2l-1.13-.13c-.29,0-.57,0-.84,0Z"/><path d="m18.01,2.78c1.34-.14,2.42-.26-2.94-.15-1.73.04-.64-.03-.51-.06,2.64-.13,5.56-.15,7.45-.15,4.79.02,5.88-.1,6.91-.24l.98-.03c3.15,0,8.33-.06,3.42.21-.89.05-.86.11-1.26.16-2.71.05-5.43.11-8.14.16-1.75.03-3.07.06-3.25.14l-3.02.06c.12-.03.07-.06.38-.09Zm8.65-.28c.11,0,.28,0,.54-.02-.15,0-.3,0-.54.02Z"/><path d="m28,9.2c-1.54-.07-6.94.2-6.94.05,0-.07,2.18-.21,3.11-.32.96-.11,5.13-.23,8.43-.29,1.49-.02,2.91-.04,4.39-.06,1.43-.03,3.19,0,4.23-.09,1.12-.09-2.83.03-2.11-.06-4.86,0-10.92.27-15.96.27-1.59,0-1.24.1-2.51.14-1.23.07,4.31,0-.24.14-1.53.15-5.53.3-4.92.44.95-.01,2.17-.03,2.78-.03,1.53.02,1.5.2,5.38-.06.04,0,1.4,0,2.27,0,2.53-.03,4.94-.1,7.07-.2-.73-.12-3.54.08-4.98.07Z"/><path d="m14.43,9.02c-1.26.02-2.17.02-2.83,0-1.64-.06-4.75-.05-7.18.06-2.17.11-4.14.25-4.38.38-.44.23,2.28.24,8.37.06,1.49-.04,3.34-.03,5.02-.05,1.84-.13,1.13-.2-.86-.22-2.02-.01-3.87.07-5.31.18-.53.04-2.96.14-2.75.05.18-.08-1.22-.11-.33-.2.55-.05.81-.12,2.46-.16,1.71-.05,2.46-.02,2.66.03.21.05.46.08,2.37.04,1.85-.05,2.79-.1,2.77-.17Z"/><path d="m72.32,1.84c-4.27-.02-8.25.15-12.72.2-2.22.03-5.32.07-7.88.1-2.1.02-3.59.04-4.55.12,3.6.11,8.97-.06,13.41-.12,6.63-.08,13.4-.25,19.85-.22l.53-.05c-.96-.04-4.32-.06.81-.14,1.68-.03,2.63-.1-.26-.08-3.05.06-5.27.23-9.19.19Z"/><path d="m290.26,1.64c.07.1,1.43.1,4.51-.19,1.13-.11,2.08-.19,2.93-.33.1-.02.21-.04.29-.07.02,0,.04-.02.02,0,0,0-.01.02-.02.03-.02.03-.02.07-.01.11,0,.03.05.08.04.07,0,0-.05-.02-.1-.03-.19-.05-.41-.08-.62-.1-.42-.05-.86-.1-1.32-.14-1.87-.17-5.06-.14-6.84-.28-4.43,0-9.27-.13-13.9-.15-1.58,0-2.48,0-3.2.03,4.26.12,8.87.16,13.83.22,3.16.05,6.38.09,9.82.3.37.03.76.06,1.16.09.2.02.39.04.6.06.18.02.44.07.51.09.04,0-.15-.01-.07-.31.07-.11.08-.08.07-.08-.02,0-.06.02-.11.03-.09.02-.19.04-.29.06-.21.03-.42.06-.63.09-.43.04-.87.09-1.31.13-1.77.16-3.62.28-5.36.38Z"/><path d="m89.54,7.36l2.23-.05,3.31.02c.47,0,.94-.02,1.41-.03,1.53-.06,3.06-.12,4.58-.18-2.7-.12-8.08.06-11.95.15-7.68.19-15.44.39-23.16.58l-2.06.08c3.48.04,7.22-.02,11.28-.22,3.29-.11,6.76-.25,8.64-.13l1.49-.04,1.06-.03s-.06-.04-.1-.05c-.11,0-.22-.01-.32-.02h.73s2.86-.1,2.86-.1Z"/><path d="m66.28,3.87c2.94.06,5.87.13,8.84.15,2.35.04,4.6.09,6.34.18,1.58.03,2.38.04,3.17.06,3.76.08,7.42.1,11.41.25,2.08.08,3.19,0,3.81-.05-11.33-.29-22.65-.52-33.99-.65l.42.06Z"/><path d="m14.55,2.57c2.64-.13,5.56-.15,7.45-.15,4.79.02,5.88-.1,6.91-.24-7.88.12-15.77.2-23.64.58-.96.04-1.73.07-2.46.1-.37.02-.72.04-1.08.05-.18.01-.36.03-.57.06l-.09.02s-.06.02-.09.04c-.02.02-.01-.02-.12.11-.09.13-.06.27-.03.31.03.07.09.13.15.16.05.03.03.01.06.02l.07.02.09.02c.11.02.21.02.31.03,2.16.1,5.43.14,5.83.03l-4.37-.07c-.61-.03-1.18-.02-1.82-.11l-.09-.03s-.13-.09-.14-.15c-.01-.04,0-.13.05-.18.06-.06.06-.04.07-.05.09-.04.12-.04.17-.05l.24-.03.45-.04.9-.06,3.59-.14,8.2-.24Z"/><path d="m144.11,5.98c-.11.05.57.13-2.72,0-2.05-.08-3.81-.12-3.46-.03,8.44.33,16.89.67,25.66.93l-.05-.04-.3-.04c-.16,0-.33-.01-.51-.02-1.47-.04-2.92-.07-3.35-.15-.26,0-.53-.02-.8-.03l-3.09-.14c-.47.04-1.52.01-3.17-.08-1.82-.07-3.72-.07-5.37-.18-.55-.04.28-.04,1.18-.03l.08-.02-1-.09c-1.81-.12-1.98-.04-3.09-.08Z"/><path d="m29.88,2.15c3.15,0,8.33-.06,3.42.21-.89.05-.86.11-1.26.16,1.5-.02,1,.03,1.1.06l2.01-.04c-.63-.06,1.98-.14,2.04-.2h-1.35c.1,0,.28,0,.29,0,.37,0,.73,0,1.09,0,1.79.02.69.1,1.07.15,2.03.05,4.11.03,6.25-.1-3.57,0-4.58-.09-5.5-.18-1.62-.03-.95-.1.58-.17,1.47-.07,3.08-.12,5.04-.11,2.31.01,4.5,0,4.95-.13-5.19.06-10.49.21-15.61.24-2.02.01-3.09.07-4.13.13Z"/><path d="m81.51,1.65c2.89-.02,1.94.05.26.08-5.13.09-1.76.1-.81.14.88-.08,2.48-.05,3.72-.07-.14-.04.81-.11,1.56-.11,3.75.04,6.4-.13,9.67-.15,1.74-.07,1.84-.03,1.97.01,1.77.03,2.21-.02,2.72-.07-.15,0-.42,0-.45,0-.73-.1-3.19-.08-5.87-.04-3.69.05-6.27-.04-10.1.03-.1,0-.48-.05-.73-.08h-4.01s-2.13-.02-2.13-.02l-.25.1c4.54-.04,4.81.06,4.44.18Z"/><path d="m136.82.79c2.11-.02,2.48.04,3.84.06.87.01,1.74.02,1.22.07-.4.03-1.32.04-2.16.05-1,.01-2.27.03-2.95.04-1.26.04-3.26.12-3.03.15.56.07,2.38-.02,3.65-.03.77,0,1.5,0,2.24,0,.98.04,1.86-.02,2.78-.03,1.55-.04,3.2-.1,2.74-.15-1.78-.21,3.02-.25,7.31-.31-.53-.04-2.76,0-2.93-.06-3.52.07-6.86.03-10.42.08-2.55.03-2,.07-2.29.12Z"/><path d="m95.91,1.54c-3.27.03-5.92.2-9.67.15-.76,0-1.7.06-1.56.11,6.54-.08,13.06-.17,19.6-.25,3.28-.02,6.72-.05,9.98-.08,1.96,0,3.56-.04,5.28-.07.57-.14-1.71-.14-4.7-.07-4.63.11-8.85.18-12.71.09-.51.02-1.02.04-1.53.05-.51.05-.95.1-2.71.07h-1.97Z"/><path d="m14.55,2.57l-8.2.24-.08.07c1.12-.04,2.1-.06,1.93,0-.17.05-1.3.08-2.32.12-.38.05-.4.09-.43.12,2.04-.09,3.86-.15,4.1-.06,2.62-.04,5.32-.1,8.08-.18.12-.03.07-.06.38-.09,1.34-.14,2.42-.26-2.94-.15-1.73.04-.64-.03-.51-.06Z"/><path d="m247.12,3.7l4.15-.18v-.03s-.22,0-.22,0h.21c1.77-.02,2.71-.3,4.96-.17.35-.02.97-.06,1.01-.06-.74-.1,3.08-.26,4.4-.39-.22-.03-1.15,0-1.97.03-1.08.09-2.81.13-4.35.19-1.13.02-1.84.18-2.44.1-.65-.08-2.52.05-3.57.06-1.8.13-2.62.11-3.23.07-1.07.02-2.35,0-3.02.11l-.46.07c1.26-.02,1.89.02,3.66-.04,1.21-.02.75.04.86.07,5.5-.12-.73.14.02.18Z"/><path d="m160.6,6.37c1.74.11,3.75.24,5.42.35,3.39.25,9.76.46,12.48.43-2.53-.11-5.35-.21-3.57-.25-4.86-.22-9.71-.44-14.33-.54Z"/><path d="m247.11,3.51c5.5-.12-.73.15.02.18-1.1.06-2.25.12-1.96.17-3.13.11-6.45.31-9.29.27-.14,0-.18,0-.13-.02,4.12-.24,4.45-.4,4.22-.55l2.64-.09c1.26-.02,1.89.02,3.65-.04-.12.04-.15.08.86.07Zm-3.28.22c.66,0,1.29-.05,1.08-.07-.42-.03,1.68-.17-1.48-.07-1.57.07-1.45.09-.3.08.22.02.2.05.71.05Z"/><path d="m277.26.17c.96.01,1.76.08,2.85.04,2.43-.1,2.65.01,3.44.07.72.02,1.65.05,2.15.06,1.94,0,3.76,0,5.18.13,1.16.1-.48.1-1.66.12-2.09.04-3.7-.02-5.39-.1-1.06-.05-2.83-.09-3.69-.07-2.96.07-4.27-.03-6.03-.09,1.05-.05,2.11-.1,3.16-.15Zm11.5.28s-.36,0-.38,0c-.04,0,.01.02.03.03h.8c-.14,0-.27-.02-.45-.03Z"/><path d="m124.22,5.49c-4.17-.11-8.55-.28-12.31-.27-.95,0-2.28-.06-3.22-.11-1.7-.08-2.85-.09-3.77-.06,3.52.19,7.79.26,11.78.34,5.18.11,10.02.37,15.24.45.76.01,1.69.04,2.03.02-1.06-.1-2.85-.18-4.93-.19-2.5-.02-3.68-.09-4.83-.19Z"/><path d="m14.43,9.02c.01.06-.93.12-2.77.17-1.9.05-2.16.01-2.37-.04-.2-.05-.95-.07-2.66-.03-1.65.04-1.91.1-2.46.16-.89.09.52.12.33.2-.21.09,2.22-.01,2.75-.05,1.44-.11,3.29-.19,5.31-.18,2,.01,2.71.09.86.22.68,0,1.37,0,2.05-.05-.61-.14,3.4-.29,4.93-.44-1.09,0-2.08-.02-2.15-.07l-3.83.11Z"/><path d="m257.6.23c-2.71-.09-5.43-.12-8.14,0-1.59.1-6.48.08-7.36.21l.36.11c1.78.03,3.41.02,4.87-.03.23-.02-.43-.05.65-.06l.33.06c.3,0,.62,0,.98,0,4.21-.02,3.36-.21,7.24-.24.87-.01,1.09-.04,1.07-.07Z"/><path d="m28.68,3.94l-.89-.07c-1.94-.05-4.62-.05-4.37-.18.04-.02-.93-.07-2.23-.09-1.3-.03-2.92-.03-4.17.05-.79.05-2.04.06-3.73.05.08,0,.11.02.14.03l-.08.1c5.05.07,10.05.17,15.33.11Z"/><path d="m77.13,4.53c.4-.08-1.83-.14-3.64-.19-3.92-.1-8.46-.22-11.9-.22-2.38,0-3.98-.01-6.29-.05-1.4-.02-.62.05-.74.09,4.94.09,9.73.2,14.92.22,2.24.01,5.08.09,7.65.14Z"/><path d="m281.07,2.25l1.91-.09c1.02-.09,2.42-.2,2.18-.25-5.14.18-10.64.48-15.86.57-2.1.04-2.74.19-4.63.29.1.05,2.11.02,2.57,0,3.2-.21,5.81-.18,8.68-.31,1.85-.27,3.42-.1,5.15-.2Z"/><path d="m228.57.27c-.52,0-1.04,0-1.55,0-.96.08-.93.08.7.1.72,0,1.67.02,1.82.04.54.07-2.34.06-2.81.11l2.17.06h3.39s6.88-.13,6.88-.13c-4.69-.09-4.59-.12.99-.26-2.39-.17-4.19-.06-6.06.03-1.83.02-2.72.21-5.54.05Z"/><path d="m152.47.66c-4.29.06-9.09.1-7.31.31.46.05-1.19.11-2.74.15.48.11,2.66,0,3.97,0,.94-.12,1.55-.24,6.49-.2.82,0,2.14-.01,2.47-.05.36-.05-.66-.05-1.74-.05h-.46s.41,0,.41,0l-1.09-.16Z"/><path d="m235.87,4.14c-.14,0-.18,0-.13-.02-.46-.04-3.65.09-3.06-.01-.83-.07-2.03-.01-3.26.09-1.07.09-2,.19-3.62.13-1.24.06-2.11,0-3.26.08-1.45.11-.25.13.99.15,4.18-.12,8.61-.15,12.34-.42Z"/><path d="m173.85,5.91c-1.41-.05-4.9.05-5.9-.06-.47-.05-4.88.16-7.28.27-.4.02-.65.04-.97.06l-.02.1c3.7,0,7.15-.22,10.8-.26l2.7-.08c.35,0,.57-.02.67-.04Z"/><path d="m143.08,5.71c1.42.14,10.73.57,13.72.65,2.96.08,1.08-.07,1.67-.1-1.88-.06-3.77-.09-5.55-.21-.39-.02-1.69-.08-1.78-.08-2.4.02-5.42-.18-8.06-.26Z"/><path d="m28,9.2c1.43.01,4.25-.19,4.98-.07,1.47.03,2.93-.04,4.39-.1,2.43-.16,6.29-.19,9.15-.31-.58-.05-.51-.12-3.56.01-1.85.08-4.53.13-6.83.19l-1.27.07h-.4s1.61-.08,1.61-.08c-1.91.02,3.95-.34-3.02-.07-.24.06.68.12-2.08.19-.56.06-3.07.09-2.93.16Z"/><path d="m79.21,4.48c-.06.02.3.04-.59.03,6.25.13,12.84.38,18.25.3l-.14-.05-4.09-.09c-4.47-.07-8.94-.13-13.44-.2Z"/><path d="m46.51,8.72c-2.86.12-6.71.15-9.15.31.33.11,2.6-.04,3.77-.05,4.47-.06,9.08-.2,13.58-.33-.92-.18-5.35.04-8.2.08Z"/><path d="m120.49,7.07c-3.22.06-6.85.19-9.01.1-.82-.03-2.01.02-2.2.08-.14.04.12.08-1.24.13-.43.12,2.27.03,3.7,0,3.22-.07,6.49-.14,9.74-.21-.26-.04.55-.11-.98-.11Z"/><path d="m136.94,6.32c2.25-.02,4.58-.04,6.19-.17,1.04-.09,1.66-.06,2.59-.06,3.13.02,6.22-.05,9.15-.22-2.91-.03-6.55.07-10.09.16-2.61.07-5.2.14-7.8.21l-.03.08Z"/><path d="m186.46.87c.72-.07,2.94-.19-2.23-.1-2.68.05-3.93,0-5.31-.06-.69-.02-.24-.11-2.38-.06-1.73.04-1.33.09-1.01.14.31.05.48.09.71.14l10.21-.06Z"/><path d="m208.01,4.99c.34-.11.38-.21-4.06,0l-3.11.16-1.96.06c-.83.06-2,.09-3.12.12l-1.17.11c-.09.07,1.28.01,2.37-.03,3.69-.14,7.36-.28,11.05-.42Z"/><path d="m228.91.58l-2.17-.06c-2.92.02-6,.11-8.48,0-.64-.03-2.49.03-2.38.04.51.05-3.52.08-.68.13,4.54-.04,9.5.06,13.71-.1Z"/><path d="m206.99,4.68c1.13-.06,2.8-.18,3.28-.18,1.91-.02.11.06-.55.12-.44.04.14.04.91.02.89-.03,1.84-.07,1.86-.1.03-.05-.25-.09-.4-.14-3.73.02-7.96.17-12.17.31l-.13.09s.06.02.04.03l1.12-.03c2.7-.12,5.28-.22,6.04-.11Z"/><path d="m256.53.3c-3.87.03-3.02.21-7.24.24,2.15.08,4.35.16,7.19.03.32-.02.52-.06.97-.07,6.82-.03,1.8-.1.2-.16-.16.02.02.06-1.2.05l.24-.06c-.06-.01-.11-.02-.16-.03Z"/><path d="m163.91.52c.9.06,2.65.12,4.44.04,3.44-.15,9.65,0,11.94-.22-5.57.02-11.03.08-16.38.18Z"/><path d="m79.44,1.38h4.01s2.1.02,2.1.02c-.01-.08,1.72-.1,3.41-.11,3.95.03,7.66-.03,11.16-.16-.34-.03-1.41-.05-2.14-.04-5.99.16-12.72.1-18.53.3Z"/><path d="m46.42,8.24c.2.11.9.18,4.84-.01,2.94-.14,6.65-.07,9.48-.25-4.27-.06-9.45.15-14.32.26Z"/><path d="m53.59,3.68c1.37.13,4.09.24,7.06.35-.59-.12.96-.19,3-.25-2.08-.09-3.95-.06-5.88-.07-1.04.08-2.72,0-4.18-.03Z"/><path d="m90.8,7.82c-3.59-.06-11.07.12-15.55.38,4.43-.04,8.89-.2,13.33-.3.11-.07,1.2-.07,2.22-.08Z"/><path d="m297.78.87c.08.01.15.03.23.05.04,0,.08.02.12.04l.08.04s.11.09.07.21c-.15.19-.19.13-.27.17-.07.02-.13.03-.2.05-.25.05-.46.08-.64.11-.35.05-.55.09-.53.11.44-.04.87-.07,1.34-.17.05,0,.11-.01.18-.03.03,0,.08-.03.13-.06.05-.06.08-.03.12-.19.02-.16-.03-.19-.08-.26.05.06.08.09.09.2,0,.06-.01.12-.04.16-.01.02-.03.04-.05.06-.08.08-.09.07-.14.09-.06.03-.11.04-.16.05-.09.02-.18.04-.26.05l-.5.07-.81.05c-1.23.12-1.82.17-1.91.22.94-.07,1.85-.12,2.76-.23.23-.03.45-.05.7-.11.06-.02.13-.03.22-.07.03-.02.05-.03.1-.06.05-.05.13-.09.13-.31,0-.12-.11-.22-.15-.25l-.09-.05c-.18-.07-.27-.08-.4-.11-.47-.08-.91-.12-1.37-.15-1.81-.14-3.67-.21-5.76-.23.36.14,3.87.22,6.19.45.3.03.6.06.91.11Z"/><path d="m114.27,1.04c4.72-.04,9.41-.09,13.43-.23-1.59-.04-3.08-.05-5.44.03-3,.11-6.72.07-10.03.14l.19.07c.61,0,1.23,0,1.86,0Z"/><path d="m131.86,6.6c-4.22.11-6.49.31-5.11.43l4.12-.09c-.63-.06,2.42-.17,1.81-.23-1.2,0-.7-.07-.82-.11Z"/><path d="m239.18.45l-6.88.14c3.47.05,6.91.08,10.17-.04l-.36-.11h-2.92Z"/><path d="m239.96,3.57l2.64-.09.46-.07c-3.85.1-7.76.17-11.33.38,1.15.02,3.51-.02,3.95.04.74-.04,1.37-.07,1.99-.1.16-.05.26-.11,2.29-.17Z"/><path d="m136.94,6.32l.03-.08-5.12.12c-1.05.11-.97.19,0,.25,2.5-.05,1.91.03,1.96.08.4.02.96.03,1.93,0,1.13-.04.46-.06.25-.08-.78-.07-2.27-.13.94-.28Z"/><path d="m283.22,2.46l-.06.07c3.5-.15,7.34-.22,10.3-.56-.52-.03.24-.2-3.63.15-1.69.15-4.61.19-6.61.34Z"/><path d="m77.07,1.46l.25-.1c-3.98-.01-7.58.1-11.27.19l1.92.04c2.05,0,2.08.07,2.37.12.28,0,.56,0,.84,0,0-.13.62-.25,5.88-.25Z"/><path d="m32.04,2.52c-2.71.05-5.43.11-8.14.16-1.75.03-3.07.06-3.25.14,3.62.01,7.65-.15,11.42-.19,0-.03.01-.07-.03-.1Z"/><path d="m67.98,1.59l-1.92-.04c-2.94,0-5.98-.04-8.38.14,2.64-.01,5.4-.02,8.35-.03,1.4-.01,1.88-.02,1.95-.07Z"/><path d="m218.32,4.68c-.11,0-.15-.02-.35-.02-1.47-.01,4.16-.27-.1-.16-3.07.08-5.05.24-4.77.35,1.8-.04,3.72-.04,5.23-.17Z"/><path d="m124.22,5.49c1.15.09,2.33.16,4.83.19,2.07.02,3.87.09,4.93.19.73.02,1.66.05,1.93.03-.59-.05-1.19-.1-1.79-.16-3.21-.13-6.38-.19-9.57-.28l-.32.03Z"/><path d="m174.93,6.91c-1.78.03,1.03.14,3.57.25,1.87.09,3.05.12,3.84.11l-.04-.07c-2.41-.09-4.81-.19-7.36-.29Z"/><path d="m41.12,3.97c-3.72,0-7.93-.1-11.24-.02,3.73.11,7.48.05,11.22.09l.02-.07Z"/><path d="m202.08.77c-.55-.25-4.9-.02-7.43-.02.16.05-.57.12,2.5.07,1.53-.02,3.27-.03,4.92-.05Z"/><path d="m214.16,4.33c.37.04-.02.13,2.3.06,3.13-.1,1.25-.17,3.06-.26-2.5-.02-3.58.13-5.36.2Z"/><path d="m101.07,7.12c-1.53.06-3.05.12-4.58.18,2.89-.05,3.07.02,3.48.08.24.04.92.06,2.3.02.51-.01,1.32-.05,1.48-.07.45-.05-.67-.04-1.55-.04-3.18,0,2.55-.2-.22-.2-.29,0-.59,0-.91.01Z"/><path d="m180.45,7.49c-2.04-.05-4.8-.35-6.39-.25q.86.14,6.39.25Z"/><path d="m185.36,5.31c-2.71.03-2.53-.05-3.14-.11-2.12.04-4.45.05-6.16.17l.07.04c1.52-.02,4.19-.11,4.44-.05.55.14,2.71.03,4.8-.05Z"/><path d="m191.65,4.95c-1.31.15,1.81.08,3.29.09l1.61-.12,1.26-.18c-2.12.04-3.97.18-6.16.2Z"/><path d="m163.96.93v.1c1.92.01,3.85.02,5.97-.03-.02-.05.71-.13-2.16-.1-2.17.02-3.16,0-3.08-.07-.95.03-.65.06-.73.1Z"/><path d="m63.65,3.78c-2.04.06-3.59.13-3,.25,2.1-.04,5.18-.05,5.62-.15l-.41-.06-2.21-.03Z"/><path d="m120.49,7.07c1.53,0,.71.07.98.11l3.08-.06c.48-.13.54-.24-4.1-.16l.05.11Z"/><path d="m112.41,1.05l-.19-.07c-1.99.02-3.7.06-5.16.12,1.28.22,3.34.07,5.35-.05Z"/><path d="m118.3,4.93s-.21.04-.01.06c.56.07-2.39.08.8.18,2.82.08.39-.08.8-.11.12-.01,1.05,0,1.62.02-.69-.06-1.3-.12-3.2-.14Z"/><path d="m53.59,3.68c1.46.03,3.14.11,4.18.03l-2.25-.05c-.85,0-1.58-.02-1.97-.05l-4.18-.02.87.05,3.35.04Z"/><path d="m244.88,10.77s.08,0,0-.02c-.35-.05,1.18-.02-1.33-.17-.86-.05-2.47-.08-.84.06l2.16.13Z"/><path d="m37.2,2.33c-.07.07-2.67.14-2.04.2l3.15-.06c-.38-.05.72-.13-1.1-.15Z"/><path d="m18.26,8.92c.07.05,1.06.06,2.15.07,4.55-.14-1-.07.24-.14-.2,0-.46,0-.79,0l-1.36.04c-.28,0-.36.02-.23.02Z"/><path d="m175.31,5.84l-2.05.08c.91.06,3.41-.03,4.96-.03l.11-.07-.09-.07c-.56.01-.98.02-1.4.03-.16.04-.85.05-1.54.05Z"/><path d="m149.53.59c.17.06,2.41.02,3.07.06l1.63-.04-1.32-.03c-1.09-.01-2.21,0-3.39.02Z"/><path d="m246.07,3.31c.61.04,1.43.06,3.23-.07-.87,0-1.22-.09-3.23.07Z"/><path d="m12.24,3.72h-3.24c-.15.1,1.64.1,3.24.09v-.09Z"/><path d="m255.32,3.08c1.54-.06,3.27-.1,4.35-.19-2.21,0-3.39.09-4.35.19Z"/><path d="m255.73,11.46c-1.01-.09-2.18-.16-3.51-.22,1.13.08,1.79.2,3.51.22Z"/><path d="m50.24,3.64l-.87-.05-2.06-.02.09.04c.93.05,1.87.06,2.84.03Z"/><path d="m161.82,5.73s-.02.01-.14.02c.15,0,.3-.01.48-.02.09-.03.19-.05.29-.08l-.63.08Z"/><path d="m53.55,3.61c.39.03,1.12.05,1.97.05.02-.06-.65-.07-1.97-.05Z"/><path d="m127.83,6.44c.11.02-.07.07,1.07.04.83-.02.68-.05.06-.05l-1.13.02Z"/><path d="m178.32,5.82l-.11.07c1.06-.04,1.79-.07,2.13-.12l-2.02.05Z"/><path d="m173.19,5.94l-2.7.08c1.13.02,2.04,0,2.7-.08Z"/><path d="m32.09,2.52l-.02.1c.68,0,1.04-.02,1.07-.04-.09-.03.41-.07-1.05-.06Z"/><path d="m248.32.53l-.33-.06c-1.08.01-.41.04-.65.06.33,0,.65,0,.98,0Z"/><path d="m90.8,7.82c-1.02,0-2.11,0-2.22.08.93-.01,1.86-.02,2.22-.08Z"/><path d="m124.54,5.47c3.19.09,6.36.15,9.57.28,1.11.03,1.6.03,1.7,0l.14-.09c-1.77-.06-2.35-.11-1.72-.14.3-.01.71-.03-.46-.07-.34,0-.88-.02-1.34-.03-.46,0-.82,0-.82,0,.21.14-4.47,0-6.29.02-.37,0-.53.02-.79.03Z"/><path d="m191.29,7.9c2.17.12,4.34.25,6.46.29-3.65-.17-.66-.14-3.23-.28l-4.1-.23c.52.09,2.7.24.87.23Z"/><path d="m81.46,4.2c-1.73-.09-3.99-.14-6.34-.18.07.04-.26.08.31.12.76.05-2.32.05.48.1,1.94.04,1.56-.02,1.35-.07-.1-.02-.11-.09,1.15,0,2.31.16,1.83-.01,3.04.03Z"/><path d="m155.49,6.47l3.09.14c.4-.02,3.05.05.72-.07-2.47-.13-3.3-.11-3.81-.07Z"/><path d="m148.12,6.17c-.9-.01-1.73,0-1.18.03,1.65.11,3.55.11,5.37.18-.16-.09-2.54-.15-4.19-.21Z"/><path d="m92.64,4.68l4.09.09c-.22-.06-1.51-.12-3.15-.15-1.26-.02-.85.03-.94.06Z"/><path d="m47.29,3.7c-.28,0-.58,0-.88,0l-.12.06c1.25,0,2.77.04,3.33-.01l-2.33-.04Z"/><path d="m159.38,6.63c.42.08,1.88.12,3.35.15l-.1-.06c-1.09-.03-2.17-.06-3.25-.09Z"/><path d="m139.6,5.65c-.22-.01-.43-.02-.64-.04h-.59c.27.02.58.03.78.04.2,0,.3,0,.45,0Z"/><path d="m84.63,4.25l-2.39-.04c.3.02.52.06.92.07,1.16.03,1.14,0,1.46-.02Z"/><path d="m147.2,6.06l1,.09c1.56,0,.34-.04-1-.09Z"/><path d="m162.63,6.72c.56.02,1.37.06,1.36.03,0,0-.4-.03-.6-.04-.94-.03-.68,0-.76,0Z"/><path d="m135.95,5.66l-.14.09c1.33.01,1.44-.01.14-.09Z"/><path d="m107.88,4.81s.18.02.33.02c-.02-.01-.18-.02-.33-.02Z"/><path d="m44.19,3.74l-.05.03h2.12c-.68-.02-1.38-.03-2.08-.03Z"/><path d="m144.08,5.98l-.23-.02c.09,0,.17.01.23.02Z"/><path d="m163.24,6.8l.3.04c.89.02.71,0-.3-.04Z"/><path d="m118.53,6.97c1.25-.08,3.2-.18,1.77-.23-.61-.02-1.35-.04-2.63-.01-1.91.04-2.12.09-2.38.14.99.03,1.48.08.64.16-.39.04-.29.06.83.04,1.35-.03,1.56-.07,1.77-.11Z"/><path d="m30.93,9.04c2.76-.07,1.84-.13,2.08-.19-1.02.02-2.46.08-2.61,0-.07-.03-1.07-.05-1.98-.02-.93.03-1.79.1-2.11.14-.54.07,1.25,0,1.81,0,1.1.02,1.89.04,2.8.05Z"/><path d="m83.82,7.59c-1.88-.13-5.35.02-8.64.13,2.41.04,5.13.02,8.64-.13Z"/><path d="m86.37,7.52l-1.06.03c-.18.01-.29.02-.55.04-1.98.09-3.29.17-1.25.2.53,0,2,0,1.75-.03-.59-.07,5.91-.25,1.11-.24Z"/><path d="m109.13,6.94l-2.97.05s-2.51.17.13.14c1.95-.03,3.31-.12,2.85-.19Z"/><path d="m95.08,7.33l-3.31-.02c.08.04-1.7.12-.18.13,1.21,0,2.51-.05,3.49-.11Z"/><path d="m37.26,8.71c.6,0,.96,0,1.32,0,.38-.02.75-.03,1.12-.05-.32,0-.61,0-.96,0-.36.01-.79.03-1.48.06Z"/><path d="m89.54,7.36l-2.86.09c-.13,0-.27.02-.41.02l.13.03c1.28-.04,3.17-.07,3.14-.15Z"/><path d="m111.75,6.88c-.85-.01-1.69-.02-2.56.06l2.56-.06Z"/><path d="m43.48,8.39c.29,0,.44,0,.58-.02-.11,0-.21,0-.58.02Z"/><path d="m203.03.28c-1.15.01-2.47.01-3.15.06-.51.11-3.98.05-5.37.13-.52.03-2.28-.06-3.05.02-.47.05,1.25.08,2.31.11,1.08.03,1.93.03,3.43-.01,1.88-.06,4.08-.11,5.76,0,1.01.06,2.84,0,3.91-.03,1.87-.05.36-.07-.74-.1-1.73-.04-3.43-.08-3.11-.16Z"/><path d="m163.96.93c.08-.03-.21-.06.73-.1.24-.04,2.77-.07,1.52-.12-.44-.02-1.44-.03-2.1-.02-2.21.03-.74.08-1.23.12-.27.02-.47.05-.88.07-.79.04-3.11.08-2.24.11,1,.04,2.67-.05,4.19-.05Z"/><path d="m171.46.73c.22,0,.43,0,.64.01l.6-.04c-.27,0-.57,0-.79,0-.19,0-.3.02-.45.03Z"/><path d="m222.6.22h1.03c-.33,0-.69,0-1.03,0Z"/><path d="m229.53,9.6c.21.03.27.06,1.65.12-.19-.03-.84-.08-1.65-.12Z"/><path d="m267.98.19h-2.11s.46.1-.19.11c-1.14.03-2.17.04-1.78.1.19.03.81.02,1.06,0,.91-.04,3.96-.02,3.15-.11-.27-.03-.1-.07-.13-.1Z"/><path d="m274.09.32c-.65-.03-.69-.08-2.17-.1-.21,0-.72.02-.67.03.29.06,1.71.05,2.83.06Z"/><path d="m297.78.87c-.31-.05-.61-.08-.91-.11,0,.04-.2,0,.99.18l-.08-.07Z"/><path d="m256.69.33l-.24.06c1.22,0,1.04-.03,1.2-.05h-.96Z"/><path d="m261.73.24l.36.05c.99-.02-.02-.03-.36-.05Z"/><path d="m194.52,7.91c2.57.14-.42.11,3.23.28,1.33.06,2.26.09,2.96.1,1.47.02,3.28.06.54-.13-4.3-.3-4.5-.17-6.73-.24Z"/><path d="m211.83,8.66c-1.48-.07-3.85-.24-3.73-.15.04.03.64.11,2.32.17,1.63.07,4.02.15,4.11.13.18-.05-1.94-.1-2.7-.15Z"/><path d="m210.2,8.77c1.16.09,1.88.16,2.72.2,1.06.05,2.96.15,3.04.11.04-.02-.65-.08-1.78-.14-1.22-.05-2.4-.1-3.97-.17Z"/><path d="m224.36,9.32c.14.02.14.05,1.22.1.34.02.52,0,.78.01l-2-.11Z"/><path d="m206.12,8.47c.33,0,.13,0-.08-.01h.08Z"/><path d="m222.4,9.19l.47.02.47.02c-.31-.03-.62-.05-.94-.05Z"/><path d="m157.59,5.91c.22.05,1.29.05,2.78,0,1.9-.07,1.15-.11,1.33-.16-1.86.03-1.92.15-4.12.16Z"/><path d="m133.82,6.68c-.05-.05.53-.13-2-.08.16.04-.35.1.86.11l1.14-.03Z"/><path d="m157.57,5.91h-.23c.08,0,.16,0,.23,0Z"/><path d="m114.27,1.04h-1.88c.33.03-.63.09.87.07.86,0,1.06-.05,1-.07Z"/><path d="m88.96,1.28c-1.69.02-3.43.03-3.41.11,1.26-.03,2.66-.06,3.41-.11Z"/><path d="m185.36,5.31c-2.09.08-4.25.19-4.8.05-.25-.06-2.91.03-4.44.05.84.06,1.5.13,2.54.18,2.23.11,6.32.04,9.65-.18.41-.03.62-.06,1.13-.09,1.9-.09,2.02-.21.13-.2q-.79,0-1.24.09c-.21.04-.15.09-1.59.13-.44.01-.93-.02-1.4-.03Z"/><path d="m200.96,4.79l-1.12.03c-1.97.18,1.1.2,1.01.32l3.11-.16c.29-.12-3.82-.05-2.99-.19Z"/><path d="m195.76,5.33c1.13-.03,2.29-.06,3.12-.12-.03,0,0-.01-.11-.01-1.39,0-1.14-.12-2.84-.05-2.51.11.3.11-.18.18Z"/><path d="m190.26,5.38c-.3.02-.65.04-.62.04.09.02.32.03.49.04.14-.01.38-.03.38-.04,0-.02-.15-.03-.26-.04Z"/><path d="m175.31,5.84c.68,0,1.38-.01,1.54-.05-.65,0-1.56,0-1.54.05Z"/><path d="m178.24,5.76l.43-.03c-.19,0-.37.02-.43.03Z"/><path d="m239.18.45h2.92c.87-.14,5.76-.12,7.36-.22-.16-.05.25-.1-2.09-.1,1,.06-.71.1-1.79.12-1.32.03-1.95-.02-2.44-.06h-2.97c-5.57.14-5.68.17-.99.26Z"/><path d="m243.13.19c.5.03,1.12.08,2.44.06,1.08-.02,2.79-.05,1.79-.12-1.6,0-3.59-.02-4.23.06Z"/><path d="m228.57.27c2.81.16,3.71-.03,5.54-.05-2.25-.06-3.92,0-5.54.05Z"/><path d="m222.58.22h1.07c-.35-.03-.71-.03-1.07,0Z"/><path d="m239.96,3.57c-2.03.06-2.13.12-2.29.17.31.06-.75.08-1.88.09-.63.09-.18.16-3.1.27-.59.1,2.6-.03,3.06.01,4.12-.24,4.45-.4,4.22-.55Z"/><path d="m207.02,4.68l-1.3.05c.73,0,.92-.03,1.3-.05Z"/><path d="m5.52,3c.49-.05.63-.09.76-.12-1.04.04-2.08.09-3.12.13-.52.03-1.04.06-1.56.1-.13.01-.26.03-.39.05l-.11.02s-.05.02-.07.03c-.02-.01-.09.11-.06.14.01.03.05.07.08.08.09.03.15.03.22.04.26.03.52.04.78.05,1.87.06,1.91,0,1.99-.04-.56-.02-1.17-.03-1.74-.05-.28-.01-.55-.03-.78-.05-.12-.01-.23-.02-.33-.04-.04,0-.12-.04-.1-.03.03-.01.08-.02.12-.02,1.42-.18,2.87-.21,4.3-.29Z"/><path d="m2.06,3.52c-.26-.01-.52-.02-.78-.05-.07,0-.13-.01-.22-.04-.03,0-.07-.05-.08-.08-.03-.03.04-.15.06-.14.02-.01.06-.03.07-.03l.11-.02c.13-.02.26-.04.39-.05.52-.05,1.04-.08,1.55-.1l3.1-.13.08-.07-3.59.14-.9.06-.45.04-.24.03c-.05.01-.07,0-.17.05-.01,0,0,0-.07.05-.05.05-.06.15-.05.18,0,.07.11.15.14.15l.09.03c.64.09,1.22.09,1.82.11l-.88-.13Z"/><path d="m5.52,3c-1.43.08-2.88.11-4.3.29v.08c1.39-.16,2.82-.19,4.23-.25l.08-.11Z"/><path d="m25.7,3.53s-.15-.07-1.29-.09c-.52,0-1.2.02-1.81.03.74.04,1.95.04,3.1.05Z"/><path d="m1.22,3.29s-.09.01-.12.02c-.01-.01.06.02.1.03.1.02.21.03.33.04.24.02.5.04.78.05.56.02,1.18.03,1.74.05-.32-.03-.79-.05-1.35-.07-.28-.01-.57-.02-.87-.04l-.45-.03c-.08,0-.15-.02-.23-.03-.04-.02-.07-.01-.04,0,.03-.01.07-.02.1-.03Z"/><path d="m13.3,3.7s.98-.03.06-.06c-.1,0-.39,0-.47,0-.6.02-.25.04.42.06Z"/><path d="m281.07,2.25c-1.74.1-3.3-.07-5.15.2-.29.16,3.47-.07,5.21-.11-.03-.03-.04-.06-.06-.1Z"/><path d="m259.49,3.14l.42-.02c-.13,0-.26.01-.42.02Z"/><path d="m281.13,2.34h.23c-.08,0-.16,0-.23,0Z"/><path d="m44.19,3.74l2.1.02.12-.06c-1.47-.02-2.18,0-2.22.04Z"/><path d="m77.07,1.46c-5.26,0-5.88.12-5.88.25l1.13.13c3.92.04,6.14-.13,9.19-.19.37-.12.11-.22-4.44-.18Z"/><path d="m27.2,2.49h-.45s.19.02.45,0Z"/><path d="m86.68,7.45h-.73c.11.01.22.02.32.02.14,0,.28-.02.41-.02Z"/><path d="m37.23,2.32c-.36,0-.72,0-1.09,0,0,0-.19.01-.29.02.45,0,.9,0,1.38,0Z"/><path d="m95.91,1.54h1.97c-.14-.03-.23-.07-1.97,0Z"/><path d="m6.28,2.88l-.4.11c1.02-.04,2.15-.07,2.32-.12.17-.05-.81-.03-1.92,0Z"/><path d="m246.25,3.45c-.12.04-.15.08.86.07-.11-.03.35-.08-.86-.07Z"/><path d="m251.27,3.48h-.21c.08,0,.15,0,.21,0Z"/><path d="m243.12,3.68c.22.02.2.05.71.05.66,0,1.29-.05,1.08-.07-.42-.03,1.68-.17-1.49-.07l-.3.08Z"/><path d="m243.12,3.68l.3-.08c-1.57.07-1.44.09-.3.08Z"/><path d="m289.21.49c-.14,0-.28-.02-.45-.03-.02,0-.36,0-.38,0-.04,0,.01.02.03.03h.8Z"/><path d="m153.56.81h-.41c.15,0,.31,0,.41,0Z"/><path d="m36.04,8.92l-1.61.06h.4c.42-.01.85-.04,1.2-.06Z"/><path d="m297.28,1.62l.5-.07c.08-.01.17-.03.26-.05.05-.01.1-.03.16-.05.04-.03.06-.01.14-.09.02-.02.03-.04.05-.06.02-.04.04-.1.04-.16,0-.11-.04-.14-.09-.2.05.07.1.11.08.26-.05.16-.07.13-.12.19-.05.03-.1.05-.13.06-.07.02-.12.03-.18.03-.24.07-.47.1-.7.14Z"/><path d="m297.98,1.48c-.46.1-.9.13-1.34.17.1,0,.37,0,.64-.03.23-.04.46-.08.7-.14Z"/><path d="m235.78,3.83c1.13-.02,2.19-.03,1.88-.09l-1.88.09Z"/>
                  </g>
                </mask>
              </defs>
              <path class="mask" d="m0,9.59c45.99-.71,110.44-1.95,187.7-4.27,65.05-1.95,110.66-3.32,110.44-4.18C297.59-1.07.83,2.05,1.08,3.32c.14.7,91.87-.94,224.95,6.15,22.34,1.19,41.52,2.4,56.42,3.4"
                    mask="url(#path-mask)" stroke="black" stroke-width="2" fill="none"
                    stroke-dasharray="877.0548095703125" stroke-dashoffset="877.0548095703125">
              </path>
            </svg>
        