
            <svg xmlns="http://www.w3.org/2000/svg">
              <defs>
                <mask id="path-mask">
                  <g fill="white">
                    <path d="m220.28,8.89c-5.38-.03-1.96.1-3.03.15l-3.87-.08c-3.16-.09-6.85-.2-9.86-.28-6.18-.21-17.76-.25-22.71-.12-3.4-.04-5.54-.03-6.98.01-4.52-.08-11.24-.02-14.72-.15-.96-.08-4.93-.16-1.6-.23,2.4-.04,5.01-.06,8.86.01,3.18.06,6.08.07,7.87.01l2.99.02c3.71-.02,8.74.25,11.63.07,1.16.01,3.31.04,3.35.04,2.93-.15,9.78-.01,15.71.07l.09.05c-1.63,0-1.29.02.54.04.3,0,.61,0,.93,0l.19.07c-.51,0-1.13,0-1.62-.01-.49,0-.86,0-.85.01,0,0,.73.03,1.1.03,1.71.02,1.23-.01,1.41-.03l5.87.03c.48,0,.96,0,1.46.01-.73.03-5.54,0-1.3.1,4.49.1,6.01.05,6.93,0,.85-.06,2.76-.05,5.77.04.29.1,4.63.13,7.63.18l-.15.03c-2.83.01-.62.05,1.82.09,3.29.11,3.6.02,5.68.05l.42.02-.47-.02c.19-.06-1.04-.15,4.95-.03,3.73.07,6.93.1,6.29,0l3.7.05,3.25.17c-2.02-.03-2.91-.02-3.07,0-2.42,0-2.62.03-.26.1,3.21.06,4.27.11,3.12.15-.54.02-1.29.04.84.08.62,0,1.61.02,2.44.03.83,0,1.46,0,1.48,0-.39-.16,8.13-.01,11.44-.04.67-.02.96-.02,1.43-.04l.59-.03c7.59.14,15.56.35,22.39.39,1.73,0,4.14.1,5.85.16,3.09.11,5.18.14,6.86.12l14.62.42.26.05c.4.08,2.75.17,5.72.24,2.3.05,1.54-.02,1.71-.05,8.13.21,16.25.42,24.77.63l-.34-.02c.11-.01-.54-.06,1.07-.01.46-.01.63-.04,2.72.03-.73.08,3.33.22,6.63.35,7.12.26,15.38.61,21.62.78,4.32.12,7.23.23,11.43.42,2.54.11,1.14-.02,1.35-.04l6.12.3,3.06.18,1.54.12.39.04.21.03s.09.02.15.04c.02,0,0,0,.04.02.05.02.1.07.14.12.08.13.07.22.04.28-.03.08-.11.17-.19.21-.1.04-.08.02-.1.03-.34.04-.55.03-.82.04l-12.25.04.04-.07c1.61-.05,1.22-.09.43-.13-1.37-.08.71-.12,5.08-.13l3.86-.05c1.15-.01,2.43,0,3.52-.05h.08s0,.03-.03,0c-.06-.01-.13-.03-.19-.03-.13-.01-.26-.03-.39-.04-.25-.02-.49-.04-.71-.05-.44-.03-.8-.04-1.05-.04.7.05,1.41.1,2.1.19.08.01.18.03.24.04,0,0,.03.02-.01-.02-.02-.04-.01-.06-.01-.09.05-.06.02-.02,0-.03h-.12s-.52.03-.52.03h-1.06c-.54-.03-3.03-.05.2-.1.42,0,.85.01,1.26,0h.15s.06-.01.06-.01h.03s-.1.02-.1.1c0,.03,0,.05,0,.11.01.05.07.09.08.09h-.02s-.04-.01-.06-.02l-.15-.02-.63-.07c-.85-.08-1.72-.12-2.6-.15l-6.08-.31c-2.49-.24-7.42-.54-12.83-.82-3.83-.07-9.42-.21-10.23-.11-5.34-.2-10.68-.4-16.08-.54-.13-.05.47-.08-.57-.14-1.39-.08,4.22.03-.87-.13-3.52-.11-2.84-.03-2.46.03.17.03.19.11-2.1-.04-4.2-.26-3.32-.05-6.95-.18-.55-.04-.95-.08-1.68-.1-2.1-.07-2.08-.03-2.66-.02-6.84-.19-13.48-.37-20.75-.57-3.78-.13-5.8-.07-6.92-.02l-33.55-.76s.38-.04.02-.07c-1.03-.08,4.34-.08-1.45-.21-5.13-.11-.71.09-1.45.13-.22,0-1.92-.02-2.94-.02-9.46-.15-19.67-.31-29.48-.47-2.86-.05-7.5-.03-9.78-.18-2.59-.15-19.53-.53-24.98-.55Zm32.48.62l1.07-.02c-.48-.01-1.05-.02-1.43-.03-.37,0-.54,0-.81.01.4.01.79.03,1.17.04Zm55.75.96c.21,0,.5.01.76.02-.04-.02-.33-.02-.76-.02Z"/><path d="m170.18,2.07c-12.53.15-24.89.3-37.35.45-1.67-.18-9.72.09-14.92.16-1.05-.02-.92-.16-6.48.09-3.36.14-8.23.33-12.55.51-3.46.13,7.18-.59-5.5.11-1.86.08-4.47.24-4.74.19-.13-.03-1.94.03-3.59.13-1.69.1-3.24.25-3.83.32-.99.12,2.26-.11,3.28-.14,2-.06,3.43-.1,5.1-.15-1.01.11-5.58.33-5.32.39-1.4.03-4.55.22-7.35.41-1.4.09-2.71.17-3.67.23-.96.06-1.57.08-1.57.04,0-.02.25-.06.64-.11.4-.04.94-.1,1.54-.17,1.2-.13,2.6-.27,3.45-.36,1.74-.21,9.3-.7,15.31-.97,2.71-.11,5.28-.21,7.98-.32,2.6-.11,5.8-.16,7.7-.29,2.03-.14-5.15.16-3.83.04,4.13-.21,8.47-.41,13.27-.44.37.11,1.63.18,8.81-.06,5.35-.17,12.09-.16,17.24-.32l1.98-.03h3.76c6.33.06,13.13,0,20.52-.21,4.38.04,9.34.02,15.71-.14l2.71-.04c-.32.01-.53.02-.99.04-3.6.09-5.99.18-2.28.21.97,0,3.64,0,3.18-.04-1.08-.07,10.75-.28,2.07-.27,1.17-.02,2.61-.05,3.75-.07,1.14-.03,1.99-.05,1.97-.09l4.06-.06c.14.04-3.1.14-.34.13,2.19,0,4.56-.06,6.35-.13l2.56-.04c5.26-.07,5.58,0,6.33.07.43.04,1.67.05,4.18.01.93-.02,2.4-.06,2.69-.08.83-.06-1.21-.04-2.82-.03-5.79.03,4.64-.22-.39-.21,1.25-.1,4.49-.14,7.53-.2l.05.05c-.06.05-4.57.2.23.14,3.55-.04,6.03-.15,5.31-.22l4.65-.08,6.43-.03c1.8.03,2.7.08,1.16.17-.71.04-.53.07,1.51.04,2.46-.03,2.84-.07,3.22-.12h3.46s.08.1.08.1c-5.85.07-12.45.23-16.38.15-1.49-.03-3.66.04-4.01.1-.25.05.21.08-2.27.15-10.14.27-20.6.46-31.33.55-6.53-.04-20.14.16-28.29.42Zm-66.68.87c.69-.03,1.36-.07,2.04-.1-.58.01-1.11.02-1.75.04-.66.03-1.43.07-2.69.13,1.09-.03,1.75-.05,2.39-.06Z"/><path d="m1.72,16.2c-.29.08-.57.16-.83.25-.13.05-.25.1-.35.17-.04.03-.08.07-.07.06,0-.02,0,0,.04.02.4.21.94.28,1.38.36.92.14,1.73.22,2.47.29,1.48.13,2.67.23,3.92.34,1.25.09.43.15,4.32.27,3.14.08,2.42-.01,1.83-.08-.56-.07-.86-.13-1.28-.2,3.83.12,7.67.19,11.51.25.02.03-.31.06.02.09.32.03,1.29.06,3.9.09,3.94.04,5.74.09,5.6.16-.44.04-5.04,0-2.77.09.8.03,2.62.07,3.82.08,4.02.02,1.35-.07,2.23-.1.49-.02.86-.03,1.6-.05,1.44-.02,5.66-.02,4.08-.08-1.82-.06-4.85,0-7.62-.03v-.11c10.91.04,21.51.08,31.95.12-1.71.12-2.82.26-11.81.17-1.48-.02-3.88-.01-4.49.03-.65.05,1.21.06,3.25.07.66.06,1.33.12,1.74.19l-2.97.03,2.4.05c-7.11.07-13.75.03-20-.11-1.63-.08-4.81-.19-8.08-.17-6.26.07-17.55-.4-21.72-.51-1.52-.13-3.05-.23-4.63-.53-.2-.04-.4-.09-.61-.17-.11-.05-.21-.07-.36-.2-.05-.02-.19-.2-.19-.37,0-.22.11-.31.17-.37.48-.36.83-.38,1.23-.52.78-.2,1.55-.35,2.33-.49,3.11-.54,6.26-.92,9.36-1.27-.24.15,4.52-.36,8.5-.77,3.55-.37,5.66-.54,8.32-.74-.92.19-7.22.67-9.71.99-.94.12-4.14.33-5.53.56-.85.14,2.26-.15,4.19-.3,1.96-.15,3.5-.3,6.21-.58,3.41-.36,7.38-.73,10.45-.86,1.84-.08,5.15-.39,7.09-.56,3.39-.3.64-.13-1.34,0-3.13.19-6.23.39-5.65.25l1.99-.19c3.52-.14,10.28-.7,16.03-1.08,2.23-.15,7.37-.54,5.87-.3-.36.05,6.6-.45,6.8-.5.41-.1,2.28-.22,4.81-.37l1.86-.11c3.48-.24,7.6-.53,6.18-.3-1.74.18-1.68.18,1.27.03,1.3-.06,3.03-.14,3.31-.13.99.02-4.25.3-5.09.4-5.3.32-10.89.75-15.39.9-1.16.04-4.52.31-4.31.31.93-.01-6.38.5-1.23.22-.21.05-.78.09-2.9.23-6.92.46-13.86.91-20.89,1.55-1.01-.2-8.89.69-13.45,1.12-5.29.53-9.19,1.01-14.77,1.79.32-.06.81-.16,1.22-.24.2-.04.39-.07.52-.1.13-.03.21-.05.21-.05,0,0-.09,0-.28.02-.2.03-.51.07-.97.13-.91.14-2.42.32-4.69.85Zm19,1.91h-1.09c.48.02,1.03.04,1.43.05.35,0,.54,0,.81,0-.4-.01-.78-.03-1.15-.04Z"/><path d="m40.23,12.77c-6.65.76-14.75,1.85-20.74,3.44-1.34.25-2.82.74-4.41,1.2-.8.2-1.58.59-2.4.89-.82.32-1.64.65-2.44,1.06-.81.4-1.61.85-2.36,1.38-.73.54-1.47,1.19-1.79,2.13-.17.47-.07,1.02.15,1.43.12.21.23.42.39.58.15.18.3.34.48.48.69.57,1.45.97,2.2,1.29,1.72.71,2.43.85,3.71,1.18,1.98.46,3.25.56,3.45.55.21-.03-.66-.13-2.83-.62-4.56-1.12-5.8-2.13-6.59-2.93-.09-.12-.19-.24-.31-.38-.07-.16-.19-.32-.25-.52-.15-.39-.11-.89.22-1.39.65-1.01,2.1-1.96,4.07-2.96.42-.25,2.14-.92,2.87-1.21,3.6-1.29,7.27-2.19,10.95-2.88,1.84-.38,3.69-.69,5.55-.97,1.85-.32,3.72-.54,5.6-.79,8.65-1.09,17.35-1.78,26.06-2.33,8.71-.55,17.42-.94,26.14-1.29l-.04-.06c-1.47.06-2.67.11-3,.09-2.59.12-5.69.27-7.83.37-5.16.23-11.5.64-15.57.8-1.22.06-6.27.34-11.45.74-2.59.2-5.22.44-7.42.66-2.2.24-3.98.44-4.87.54-.6.07-1.22.18-1.12.17.87-.03-2.46.36-3.98.55-1.82.25-2.93.4-4.51.62-.9.09-3.67.68-3.41.59.17-.03,1.75-.42,3.93-.74,4.52-.8,10.97-1.48,11.55-1.65Z"/><path d="m194.82,4.52c-4.56.11-9.97.22-12.97.39,1.31-.02,3-.04,3.9-.06,3.52-.11,6.83-.22,9.41-.17,2.12.04-.86.13-3,.23-3.8.17-6.72.19-9.81.2-1.93,0-5.15.07-6.72.14-5.37.25-7.77.22-10.96.26-2.05.06-4.63.15-5.16.11-.1,0,.83-.06,1.21-.08,2.69-.08,2.77-.03,3.94-.03l5.75-.35c-3.78-.05-8.71.19-13.33.37.12.05-.18.1-3.53.22.06.03-.24.08.24.1,1.47.05-4.06.22-5.71.33-.45.03-1.59.08-1.93.07-.7-.03,1.16-.12,3.24-.22,1.18-.06.3-.1.34-.14-1.84.11-7.06.22-7.59.34.67-.01,2.53-.07.72.02l-.66-.02c-2.66.07-1.04-.08-4.35.05-1.17.05-2.11.16-3.15.24.04.03-.36.07-1.94.15.08,0,.18.01.29.02l1.75-.07c2.9-.05,12.03-.33-.36.19-.81.03-1.18.09-1.76.14,5.34-.21,10.93-.48,15.77-.53.59-.02,7.76-.3,12.54-.49,1.32-.09,2.94-.14,5.82-.23,8.42-.26,17.22-.38,25.27-.65,3.24.05,9.03-.19,12.45-.18,3.34,0,6.03-.01,10.18-.12,5.64-.15,8.09-.11,8.22,0l9.29-.09c-.43-.07,2.13-.13,3.99-.2-4.25-.07-8.67-.13.33-.28,1.15-.02.4-.04-.76-.05-3.63.09-8.96.03-12.03.12-7.07.22-5.66.06-6.61,0l-1.97.03c-.18.04-1.25.08-3.49.11-.26.06-1.77.1-3.95.13l.16.06c-1.08.01-1.53.01-1.72,0-.18,0-.1-.03-.1-.04-4.22,0-10.59.11-11.26,0Z"/><path d="m145.74,8.15c-2.41-.01-4.12,0-5.39.06-2.67.1-5.96.21-.97.21,7.84.06,8.18-.05,12.25-.08l7.48.09c3.49.13,10.21.07,14.72.15l.09.08c-4.33-.04-9.35.02-12.58-.07-4.08-.11-8.32-.11-13.1-.11-9.39-.08-18.81.26-28.24.51-9.43.32-18.88.64-28.33.96-.33-.02-.31-.06,2.04-.17l3.63-.13,1.87-.04c.57,0,1.14-.03,1.7-.06,11.94-.45,13.6-.52,9.06-.5-.14,0-.18,0-.26,0-10.55.45-13.36.3-23.68.76-4.29.19-9.99.46-11.14.41,2.81-.13,5.98-.37,6.91-.36,1.79.01,4.73-.16,7.6-.27,10.26-.37,20.26-.72,30.8-1.1,7.5-.23,15.13-.46,22.81-.49,7.67.03,15.39.06,23.08.09,3.06.01,7.93.01,8.16.12-1.8.06-4.69.04-7.87-.01-3.85-.07-6.46-.06-8.86-.01-3.95-.05-7.91-.1-11.77-.04Zm-18.82.5s-.33-.03-.99-.03c-.66,0-1.7.02-3.23.07-2.96.1-7.31.28-7.47.32-.33.08,3.53-.11,4.92-.14,2.7-.09,7.01-.14,6.78-.23Zm-8.79-.01c-1.94.06-5.39.17-5.52.23-.07.03,1.19.02,3.25-.05,2.22-.08,4.37-.15,7.23-.26-2.11.03-3.42.02-4.96.07Zm11.41-.11l1.13-.02h-.14c-.84.02-.88.02-.99.02Z"/><path d="m271.32.64c4.66-.04,8.3-.03,13.55.05,7.63.11,17.14.29,25.8.54,4.33.15,8.97.3,13.03.44l.05-.1c-.95-.09-3.42-.26-.49-.16,8.66.3,7.51.06,13.52.26-3.2-.15-6.02-.25-8.53-.32-.32,0-.6-.02-.82-.03-.33.04,1.03.15-2.44.04-2.72-.09-4.67-.18-5.06-.26l-.45-.03.41.03c4.02.19,4.15.08,7.48.22.21,0,.29,0,.25,0-3.81-.27-8.47-.34-12.64-.5-5.32-.08-10.94-.23-16.63-.46-1.7-.06-2.81-.12-4.71-.09-2.92.04-7.17-.04-11.26-.11-5.84.05-3.15.16-1.73.27.37.03,1.6.07-.46.07-1.75,0-2.78-.03-3.5-.06h-2.08c1.09.08-4.45.13-3.3.21Z"/><path d="m138.98,18.1c3.7.02,7.54.02,12.63-.09,6.36-.18,13.1-.28,20.29-.29,1.36-.07,3.92-.11,6.21-.16l3.81-.02c-.45-.03-1.16-.08-1.33-.08-6.97.12-11.65.04-18.37.14-4.89.07-9.35.12-10.68.02-.04,0-.53,0-.81,0-.92.02-1.85.05-2.78.07.82.12-4.12.17-7.88.2-12.36.11-24.79.3-37.33.34-7.56.02-7.98.05-4.37-.11,1.09-.06,1.82-.1,2.71-.15-7.19.08-15.54.07-21.34.24,1.36,0,2.67,0,4.07.01,2.31,0,5.63-.11,6.63-.03.42.03-3.21.12-5.51.16-1.22,0-3.53.03-5.36.04-1.53.01-3.19.01-3.92.05-.96.05.64.06,2.21.08,2.48.02,3.14.09,6.99.07,4.86.05,10.21.06,16.59-.03,7.3-.17,15.83-.25,24.42-.33-.11-.03.27-.07,1.82-.09,2.73-.03.99.04,1.59.06,3.62-.14,7.37-.32,9.69-.09Z"/><path d="m97.34,9.66l1.87-.04.85-.03.85-.03c11.94-.45,13.6-.52,9.06-.5-.14,0-.18,0-.26,0-10.55.45-13.36.3-23.68.76-4.29.19-9.99.46-11.14.41-3.11.19-8.66.46-10.99.68,2.97-.12.06.13-1.5.22-4.57.29-1.79.04-2.44.04-.13,0,0-.02.01-.03-3.5.15-9.45.67-13.35,1-2.4.24-4.53.45-6.37.63-.6.17-7.05.85-11.57,1.65-2.18.32-3.76.71-3.93.74-.26.09,2.51-.5,3.41-.59,1.57-.22,2.69-.37,4.51-.62,1.52-.18,4.85-.58,3.98-.55-.1,0,.53-.1,1.12-.17.9-.1,2.68-.3,4.87-.54,2.2-.21,4.83-.45,7.42-.66,5.18-.41,10.23-.68,11.45-.74,4.08-.16,10.41-.57,15.57-.8,2.15-.1,5.24-.24,7.82-.37,2.51-.13,2.63-.1,3.01-.09l.04.06,3.7-.14c-.33-.02-.31-.06,2.04-.17.46-.03.8-.07,1.41-.09,1.96-.08,1.97-.05,2.22-.04Z"/><path d="m353.51,2.58l.12.05c1.51.17,2.71.31,4.59.53,4.03.42,11.44.93,17.5,1.27.75.04,1.13.04,2.06.11,3.45.26,3.69.16.26-.19q-1.43-.14-2.25-.12c-.39,0-.29.06-2.89-.14-.8-.06-1.68-.17-2.52-.26-4.9-.38-4.58-.44-5.68-.59,5.61.33,11.34.76,17.11,1.31-2.39-.1,3.27.42,5.94.81.97.09,1.94.19,2.91.33.24.04.49.08.73.14.12.03.25.06.37.1.07.02.12.04.2.08.05.04.07.02.13.11.08.11-.03.26-.07.27-.32.15-.53.13-.79.16l-.74.05c-.99.05-1.97.05-2.96.06-.09-.01-.11-.02-.07-.03,3.6-.14-1.99-.24-1.81-.38,1.19,0,2.38.02,3.56,0,.06,0,.01.01.19.01,1.26,0,1.78.01,2.33-.05.07,0,.13-.05.16-.02-.02.09-.03.02-.12,0-.14-.06-.32-.11-.53-.16-.42-.1-.96-.19-1.73-.3-4.53-.54.51.18-.36.14l-2.12-.18c-8.58-.94-17.4-1.5-25.82-2.13l-3.66-.23-.15-.08.78.03-1.02-.05-2.3-.14c-1.18-.08-2.83-.21-2.79-.14l-3.73-.17.52.02.57.04c-2.55-.23-8.9-.55-10.7-.77-.85-.11-8.87-.37-13.23-.48-.72-.01-1.19-.02-1.77-.03-.95-.09-3.42-.26-.49-.16,8.66.3,7.51.06,13.52.26,5.78.23,11.37.53,16.72.91Zm24.6,2.1c.16.03.57.09.88.13.12,0,.3.02.44.02.14,0,.25.01.26,0,.02-.02-.26-.06-.46-.09-.54-.03-1.17-.08-1.12-.07Z"/><path d="m153.56,5.74c3.35-.12,3.65-.17,3.53-.22l-3.13.09-2.42.09c-6.02.18-11.83.35-18.22.66-2.61.12-6.37.28-9.49.37-3.41.1-9.87.39-10.96.45-11.58.6-22.77,1.18-33.88,1.75-4.08.21-6.64.43-9.99.63-17.07,1.08-34.13,2.25-51.16,3.94-1.83.19-3.7.37-4.75.54-.24.15,4.52-.36,8.5-.77,3.55-.37,5.66-.54,8.32-.74,1.24-.15,3.63-.35,5.71-.52l1.99-.19c3.52-.14,10.28-.7,16.03-1.08,2.23-.15,7.37-.54,5.87-.3-.36.05,6.6-.45,6.8-.5.41-.1,2.28-.22,4.81-.37.61-.07,1.26-.11,1.9-.11,3.44-.24,7.56-.53,6.13-.3.93-.05,1.88-.11,2.82-.16,2.94-.22,5.97-.44,10.05-.59,3.38-.27,6.66-.55,11-.58l5.39-.25c1.17-.14,4.78-.28,7.69-.42,4.26-.2,3.52-.1,3.81-.06,4.92-.34,9.85-.51,14.79-.61,1.05-.08,1.99-.19,3.15-.24,3.31-.13,1.69.03,4.35-.05.47-.12,5.69-.23,7.53-.34l3.83-.12Z"/><path d="m353.88,5.44c-2.64-.13-5.55-.24-9.48-.27,2.24.11,4.43.23,1.78.24-2.09,0-3.67-.13-5.92-.16-2.94-.19-4.63-.15-6.59-.13-2.23.02-4.42,0-5.92-.14-5.31-.09-4.5.02-5.45.08.79.1,5.08.21,7.17.32,3.54.15,8.23.27,12.7.34,3.36.05,6.26.12,9.49.22,3.29.04-.12-.18,5.58-.04,4.22.11,3.52.18,4.18.25l3.75.09c-.27-.06-.77-.13-.72-.18.02-.02.46-.02,1.1,0,.64.01,1.48.03,2.28.05,1.41.04,2.46.08,1.66.09-1.19,0-4.48-.04-1.01.08.87.03,3.92.04,5.97.06.65,0,.99-.02,2.31.04l-2.36-.04c1.42.18,6.11.28,11.02.3,1.51-.09-5.97-.27-5.43-.39-8.08-.11-7.99-.22-7.37-.31-3.24-.06-5.9-.21-9.25-.26.48.14-3.11.16-8.7,0-7.75-.22,2.5-.05-.17-.18-.37-.02-.43-.03-.64-.05Z"/><path d="m343.12,15l3.05-.03,5.9-.1,2.17-.03c-.05,0-.11-.02-.18-.03-1.28,0-1.91-.01-.83-.05.16,0,.69-.01.86-.01,1.67,0-.09.04-.1.06,3.08-.03,5.35-.07,6.78-.14,2.28-.11,5.22-.15,7.58-.15,1.18,0,2.21.01,2.94.01.73,0,1.15.02,1.11.03-.46.14,4.42.08,7.95.08,4.45-.09,8.86-.18,13.38-.27,1.97-.04,5.78-.06,4.7-.12-.89-.06-5.03.03-6.07.02-3.24-.03-8.24.2-10.06.07-2.47.01-5.38.05-5.76-.02-2.08.02-4.29.05-5.63.02-4.56.03-9.16.07-13.67.1-8.95.06-16.7.27-25.74.36v.08c2.22-.04,4.53-.08,5.69-.04-.14.05-.22.1-3.62.15l1.6.08,7.95-.1Z"/><path d="m235.78,4.1c1.15,0,1.91.04.76.05-9,.15-4.58.21-.33.28,1.16,0,2.31-.02,3.47-.03l-.07-.11h-.43s.41,0,.41,0c3.15.02,10-.07,9.47.08,5.23-.02,9.97.12,15.8.03.84-.01,4.48.05,4.66.11l5.51.05c2.4-.08,9.36-.05,8.02-.2.07,0,1.2,0,1.84,0,4.09.25,5.82,0,9.03.08-.02-.01-.01-.02-.01-.04-9.43-.3-11.68-.13-15.01-.04h-.72s.77,0,.77,0c-.95-.01-2.29-.03-3.4-.05-.56,0-1.06-.02-1.42-.02-.37,0-.6-.01-.61-.02-.94-.28-7.83-.14-13.41-.14-5.82,0-12.52.06-17.66-.04-2.53-.02-2.15-.12-6.55-.09l-.11.08Z"/><path d="m248.91.6h3.46c8.45-.1,8.34.03,7.46.16,2.78.01,2.64-.06,4-.08-2.5-.14,1.64-.34,9.32-.38-1.77-.08-1.91-.17,0-.26-1.94-.09-3.57-.02-5.26.02,1.12.01,1.4.04-.11.05-2.08.02-1.73-.02-1.94-.05-4.47-.1-11.06.07-15.81.15-7.79.12-16.29.21-23.67.43l.05.05,5.41-.07c1.7-.09,3.24-.09,4.78-.08l6.43-.03c.46-.06.86-.12,4.32-.16,2.34-.03,3.68-.01,4.79.01,2.6.05-.95.15-3.22.25Z"/><path d="m382.3,14.35c1.81.13,6.82-.09,10.06-.07,1.04,0,5.18-.08,6.07-.02,1.08.06-2.73.08-4.7.12-4.52.09-8.93.18-13.38.27l1.62.05,2.17-.02c6.02-.16,13.67-.21,20.44-.24,1.61-.05,1.22-.09.43-.13-1.37-.08.71-.12,5.08-.13l.08-.04c.07-.05,1.36-.08,4.03-.08.55,0,1.08,0,1.6-.01-.54-.03-3.03-.06.2-.11l-.16-.04c-5.35,0-10.69.01-16.04.02-5.35.06-10.71.12-16.08.18,1.72.06,4.9.12-1.43.25Z"/><path d="m228.79,16.86c2.21-.04,2.01.11,5.95-.07,2.95-.14,5.75-.07,8.69-.15.83-.16,4.82-.2,9.01-.22,3.56-.02,6.48-.09,9.16-.19,2.77-.1,4-.18,1.06-.19-3.95.06-7.57.07-11.81.18-13.19.32-14.64.35-25.22.42-.25,0-.76,0-.82,0-5.38.23-13.58.18-19.06.4.53.06.59.12,4.31.09.13-.05,1-.07,3.54-.11,5.37-.06,10.39-.12,15.19-.17Z"/><path d="m382.3,14.35c6.32-.13,3.15-.18,1.43-.25-4.17,0-6.96-.04-12.93.12-4.3.12-12.9.13-19.78.2-9.26.12-18.98.24-28.33.36-4.1.04-6.82.08-6.36.18.44.09,3.75.04,7.46-.03,2.57-.04,5.14-.08,7.71-.12,9.04-.09,16.79-.3,25.74-.36,4.52-.03,9.11-.07,13.67-.1,1.1-.03,2.34-.06,3.28-.08,2.08-.01,2.27.03,2.35.06.38.06,3.29.03,5.76.02Z"/><path d="m278.9,4.37c3.32-.1,5.57-.27,15.01.04,2.52.02,5.04.03,7.56.05,2.01,0,4.09,0,3.58-.06-3.54-.15-8.17-.14-12.04-.18-14.8-.17-29.6-.3-44.5-.21-3.98.02-4.54.06-6.06.11,5.13.1,11.84.04,17.66.04,5.58,0,12.47-.14,13.41.14.02,0,.25.01.61.02.36,0,.86.01,1.42.02,1.11.02,2.44.04,3.36.05Z"/><path d="m101.1,17.96c-.89.05-1.62.09-2.71.15-3.61.17-3.19.13,4.37.11,12.54-.03,24.97-.23,37.33-.34,3.76-.03,8.69-.08,7.88-.2-7.02-.06-14.68.05-23.11.21-5.44.1-9.59.11-8.54-.04-5.47.11-10.01.05-15.21.1Z"/><path d="m205.75,17.05c5.49-.22,13.69-.16,19.07-.4.07,0,.57,0,.82,0,10.58-.07,12.02-.09,25.22-.42,4.24-.1,7.86-.12,11.81-.18-1.68-.09-3.51-.18-10-.12l-4.76.16c-1.75.11-4.45.15-8.28.2-4.66.08-10.3.17-14.33.24-8.14.12-15.37.39-23.13.42l2.06.13c.52,0,1.03-.01,1.53-.02Z"/><path d="m300.94,15.26c-2.44.15-4.41.29,5.35.16,3.15-.04,1.17.04.93.07-4.81.14-10.11.18-13.55.18-8.71,0-10.69.14-12.56.3l-1.79.03c-5.73.01-15.14.13-6.21-.2,1.61-.06,1.57-.12,2.29-.18,4.93-.07,9.88-.15,14.8-.22,3.19-.04,5.59-.08,5.92-.16l5.5-.07c-.21.03-.13.06-.69.1Zm-15.73.33c-.19,0-.52,0-.99.02.27,0,.54-.01.99-.02Z"/><path d="m84.28,4.12c-1.4.03-4.55.22-7.35.41-1.4.09-2.71.17-3.67.23-.96.06-1.57.08-1.57.04,0-.02.25-.06.64-.11.4-.04.94-.1,1.54-.17,1.2-.13,2.6-.27,3.45-.36,1.74-.21,9.3-.7,15.31-.97,2.71-.11,5.28-.21,7.98-.32,2.6-.11,5.8-.16,7.7-.29,2.03-.14-5.15.16-3.83.04-8.85.21-19.84.92-29,1.41-2.89.15-2.24.22-4.56.39-2.24.2,7.83-.44-.43.17-2.77.3-10.03.93-8.92,1,1.71-.12,3.94-.27,5.05-.35,2.77-.14,2.72.04,9.76-.6.07,0,2.55-.12,4.12-.2,4.6-.27,8.96-.52,12.83-.75-1.33-.09-6.44.33-9.04.43Z"/><path d="m59.64,5.3c-2.29.17-3.94.3-5.13.35-2.99.14-8.62.59-13.02,1.11-3.93.45-7.48.93-7.9,1.09-.79.3,4.15-.2,15.16-1.24,2.69-.25,6.05-.49,9.1-.71,3.33-.36,2.04-.36-1.58-.12-3.67.24-7.02.59-9.62.91-.95.11-5.35.58-4.98.46.33-.11-2.22.08-.62-.15.98-.14,1.46-.24,4.45-.54,3.1-.3,4.46-.38,4.82-.35.38.02.84.02,4.29-.28,1.67-.15,2.93-.27,3.78-.35.84-.08,1.26-.14,1.25-.18Z"/><path d="m202.17,16.94c7.76-.03,14.99-.3,23.13-.42,4.03-.07,9.67-.16,14.33-.24,3.82-.05,6.52-.09,8.28-.2-6.54-.07-16.32.2-24.39.34-6.02.11-12.11.22-18.17.33-6.05.08-12.06.16-17.93.18l-.97.06c1.74.03,7.86.01-1.47.17-3.05.05-4.78.13.48.09,5.54-.1,9.59-.31,16.71-.3Z"/><path d="m222.92,4.72c-.13-.12-2.58-.15-8.22,0-4.15.11-6.84.13-10.18.12-3.42-.01-9.21.23-12.45.18-8.05.27-16.85.39-25.27.65-2.88.09-4.5.15-5.82.23,7.75-.18,16.13-.37,25.15-.58,5.76-.14,11.6-.26,17.88-.32,5.47-.08,12.54-.18,18.91-.28Z"/><path d="m196.19,1.17l4.06-.06h6.01c.85,0,1.71-.02,2.57-.03,2.78-.07,5.56-.14,8.33-.21-4.91-.11-14.7.11-21.73.21-13.97.2-28.08.41-42.13.61l-3.75.08c6.33.06,13.13,0,20.52-.21,5.98-.11,12.3-.27,15.71-.14.9-.01,1.81-.03,2.71-.04.65-.01,1.29-.02,1.93-.04-.03-.03-.11-.04-.18-.05-.19,0-.39-.01-.59-.02h1.34s5.2-.11,5.2-.11Z"/><path d="m384.91,12.73c-5.34-.2-10.67-.4-16.07-.54-4.27-.13-8.37-.26-11.52-.42-2.87-.08-4.32-.12-5.76-.16-6.84-.19-13.48-.37-20.75-.57-3.78-.13-5.8-.07-6.92-.02,20.59.54,41.19,1.13,61.79,1.8l-.75-.09Z"/><path d="m307.22,15.49c-4.81.14-10.11.18-13.55.18-8.71,0-10.69.14-12.56.3,14.33-.17,28.68-.31,42.99-.63,3.47-.08,5.63-.03,8.44-.08,3.88-.07,9.85-.11,10.57-.25l-7.94.1-13.05.16-14.91.23Z"/><path d="m243.38,9.13c.19-.06-1.04-.15,4.95-.03,3.73.07,6.93.1,6.29,0-15.36-.32-30.73-.59-46.69-.67l.09.05.54.04c.3,0,.61,0,.93,0,2.67,0,5.32.02,6.1.1.48,0,.96,0,1.46.01l5.63.1c.85-.06,2.76-.05,5.77.04,3.32.05,6.77.02,9.77.13,1,.04-.51.05-2.14.05l-.15.03,1.82.09c3.29.11,3.6.02,5.62.05Z"/><path d="m279.33,16c-5.73.01-15.14.13-6.21-.2,1.61-.06,1.57-.12,2.29-.18-2.73.03-1.82-.03-1.99-.05l-3.66.07c1.14.06-3.6.18-3.72.25l2.45-.03c-.18,0-.52.02-.53.02-.68,0-1.33,0-1.98,0-3.25,0-1.26-.1-1.94-.15-3.69-.03-7.47.03-11.37.19,6.49-.06,8.33.03,10,.12,2.94.01,1.72.09-1.06.19-2.68.1-5.61.17-9.16.19-4.19.02-8.18.06-9.01.22,9.44-.14,19.07-.38,28.39-.47,3.68-.03,5.61-.1,7.51-.17Z"/><path d="m185.46,17.24c-5.25.05-3.53-.04-.48-.09,9.33-.15,3.21-.13,1.47-.17-1.6.09-4.52.08-6.76.12.25.04-1.47.13-2.84.13-6.82,0-11.64.21-17.58.27-3.17.1-3.34.05-3.59,0-3.21-.02-4.01.04-4.95.1.28,0,.77,0,.81,0,1.33.1,5.79.05,10.68-.02,6.72-.1,11.4-.02,18.37-.14.17,0,.88.05,1.33.08l7.28-.03h3.87s.45-.12.45-.12c-8.26.09-8.74-.01-8.06-.15Z"/><path d="m84.87,18.58c-3.85.03-4.51-.05-6.99-.07-1.58-.01-3.17-.03-2.21-.08.73-.04,2.4-.04,3.92-.05,1.83-.01,4.14-.03,5.36-.04,2.3-.05,5.93-.13,5.51-.16-1.01-.07-4.33.03-6.63.03-1.41,0-2.72,0-4.07-.01-1.77-.05-3.38.01-5.06.03-2.81.04-5.81.09-4.98.15,3.23.23-5.49.27-13.3.29.96.05,5.02.03,5.34.09,6.41-.02,12.48-.03,18.96-.04,4.64-.03,3.63-.08,4.16-.13Z"/><path d="m159.26,17.51c5.94-.06,10.77-.27,17.58-.27,1.38,0,3.09-.09,2.84-.13-11.9.16-23.74.31-35.64.47-5.96.05-12.23.11-18.14.16-3.57.04-6.47.08-9.61.11-1.05.15,3.11.14,8.54.04,8.43-.16,16.09-.26,23.11-.21.93-.02,1.86-.05,2.78-.07.93-.06,1.73-.12,4.94-.1h3.59Z"/><path d="m307.22,15.49l14.91-.23.15-.08c-2.03.03-3.83.04-3.51,0,.31-.05,2.37-.08,4.23-.11.69-.05.74-.09.78-.13-3.71.07-7.02.12-7.46.03-4.76.03-9.68.1-14.7.19-.21.03-.13.06-.69.1-2.44.15-4.41.29,5.35.16,3.15-.04,1.17.04.93.07Z"/><path d="m301.47,4.46l-7.56-.05v.04s.4.02.4.02l-.39-.02c-3.22-.07-4.94.17-9.03-.08-.64,0-1.78,0-1.84,0,1.34.15-5.62.12-8.02.2.4.04,2.08.05,3.58.06,1.97-.04,5.12,0,7.92.02,2.06.04,3.35-.09,4.45.02,1.17.12,4.58.09,6.5.14,3.28-.03,4.77.03,5.88.12,1.95.04,4.27.15,5.49.07l.84-.05c-2.29-.06-3.43-.14-6.64-.19-2.19-.06-1.35-.09-1.55-.13-10.01-.2,1.33-.11-.02-.2Z"/><path d="m213.38,8.97c-3.16-.09-6.85-.2-9.86-.28-6.18-.21-17.76-.25-22.7-.12,4.61.03,9.73.07,6.49.17,8.84.1,17.68.22,26.07.23Z"/><path d="m301.48,4.66c-10-.2,1.33-.11-.02-.2,2.01,0,4.09,0,3.58-.06,5.7.07,11.73.07,16.9.31.25.01.33.02.24.03-7.5-.03-8.11.13-7.7.3l-4.8-.08c-2.29-.06-3.42-.14-6.64-.19.21-.04.28-.07-1.55-.13Zm5.98-.03c-1.2-.04-2.35-.02-1.97,0,.76.05-3.07.08,2.69.16,2.87.03,2.63,0,.56-.07-.39-.03-.36-.07-1.28-.1Z"/><path d="m170.42,5.15c1.75-.05,3.2-.01,5.18-.13,4.41-.25,4.82-.14,6.25-.12,1.31-.02,3-.04,3.9-.06,3.52-.11,6.83-.22,9.41-.17,2.12.04-.86.13-3,.23-3.8.17-6.72.19-9.81.2-1.93,0-5.15.07-6.72.14-5.37.25-7.77.22-10.96.26,1.91-.12,3.82-.24,5.74-.35Zm20.92-.36s-.66.02-.7.02c-.08.01.02.02.05.03l1.46-.04c-.26,0-.5,0-.81,0Z"/><path d="m279.57,9.59c7.59.14,15.56.35,22.39.39,1.73,0,4.14.1,5.85.16,3.09.11,5.18.14,6.86.12-6.4-.27-14.16-.4-21.43-.52-9.41-.17-18.22-.47-27.72-.55-1.38-.01-3.08-.04-3.7-.02,1.92.11,5.19.19,8.96.21,4.55.02,6.69.11,8.78.22Z"/><path d="m59.64,5.3s-.41.09-1.25.18c-.84.08-2.11.19-3.78.35-3.45.3-3.91.3-4.29.28-.36-.02-1.72.05-4.82.35-2.98.29-3.46.4-4.45.54-1.6.23.94.04.62.15-.37.12,4.03-.35,4.98-.46,2.6-.32,5.95-.67,9.62-.91,3.62-.24,4.91-.24,1.58.12,1.24-.07,2.48-.16,3.72-.3-1.11-.07,6.15-.71,8.92-1-1.97.1-3.78.2-3.91.15l-6.95.55Z"/><path d="m134.69,6.49c-4.93.1-9.86.27-14.79.61-2.89.23-11.78.62-13.36.84l.67.09c3.24-.12,6.19-.26,8.85-.43.42-.04-.79-.02,1.17-.12l.6.04c.54-.02,1.14-.05,1.77-.07,7.66-.35,6.1-.49,13.14-.81,1.58-.08,1.98-.12,1.94-.15Z"/><path d="m381.97,14.7l-1.62-.05c-3.53,0-8.4.06-7.94-.08.04-.01-.39-.02-1.11-.03-.73,0-1.76,0-2.94-.01-2.36,0-5.3.04-7.58.15-1.43.07-3.7.11-6.78.14.14,0,.2.02.25.03l-.14.11c9.19-.05,18.28-.06,27.88-.25Z"/><path d="m365.2,11.55c-.73.08,3.33.22,6.63.35,7.12.26,15.38.61,21.62.78,4.32.12,7.23.23,11.43.42,2.54.11,1.14-.02,1.35-.04-8.97-.43-17.68-.79-27.12-1.05-4.08-.14-9.24-.31-13.91-.46Z"/><path d="m239.67,4.41c-1.16,0-2.32.02-3.47.03-1.86.06-4.41.13-3.99.2,9.36-.01,19.38-.13,28.85,0,3.82.05,5-.09,8.44-.11-.18-.06-3.83-.12-4.66-.11-5.82.09-10.57-.05-15.8-.03-3.38.22-6.22-.02-9.38.02Z"/><path d="m81.96,9c-.94.05-1.88.11-2.82.16-1.73.18-1.68.18,1.28.03,1.3-.06,3.03-.14,3.31-.13.99.02-4.25.3-5.09.4l3.95-.15,6.16-.32,12.48-.79c-8.52.32-8.34.28,1.78-.37-4.34.03-7.62.31-11,.58-3.32.19-4.94.48-10.05.59Z"/><path d="m56.41,18.66c7.81-.02,16.53-.06,13.3-.29-.83-.06,2.17-.11,4.98-.15-.88-.12-4.85,0-7.22-.01-1.71.12-2.82.26-11.81.17-1.48-.02-3.88-.01-4.49.03-.65.05,1.21.06,3.16.07h.84s-.75,0-.75,0l1.99.18Z"/><path d="m321.94,4.72c.25.01.33.02.24.03.82.07,6.64.16,5.56.23,1.51.13,3.69.16,5.92.14,1.96-.02,3.65-.05,6.59.13,2.25.03,3.83.17,5.92.16,2.65,0,.46-.12-1.78-.24-7.6-.2-15.66-.48-22.45-.45Z"/><path d="m349.46,2.85c-2.55-.23-8.9-.55-10.7-.77-.85-.11-8.87-.37-13.23-.48-.72-.01-1.19-.02-1.77-.03l-.05.1c6.72.35,12.99.5,19.63.88l4.9.25c.64.03,1.04.05,1.21.05Z"/><path d="m245.26,9.44c-2.59-.15-19.53-.53-24.98-.55-5.38-.03-1.96.1-3.03.15,3.42.03,6.86.03,10.1.14.7.01,3.09.06,3.24.07,4.36-.06,9.87.13,14.67.19Z"/><path d="m84.28,4.12c2.6-.1,7.72-.52,9.04-.43,2.67-.07,5.32-.22,7.97-.36,4.42-.28,11.42-.51,16.62-.64-1.05-.02-.92-.16-6.48.09-3.36.14-8.23.34-12.42.51l-2.31.15h-.74s2.92-.15,2.92-.15c-3.46.13,7.18-.59-5.5.11-.44.08,1.23.08-3.78.34-1.01.11-5.58.33-5.32.39Z"/><path d="m361.42,11.53c.11-.01-.54-.06,1.07-.01-11.37-.37-23.34-.82-33.19-.84l.26.05,7.44.19c8.13.2,16.25.41,24.43.61Z"/><path d="m117.91,2.69c-5.2.13-12.2.37-16.62.64.61.09,4.72-.16,6.84-.23,2.03-.06,4.08-.12,6.13-.18,2.06-.04,4.12-.08,6.19-.12,4.13-.09,8.28-.18,12.38-.27-1.67-.18-9.72.09-14.92.16Z"/><path d="m252.45.7c-5.85.07-12.45.23-16.38.15-1.49-.03-3.66.04-4.01.1-.25.05.21.08-2.27.15-.79.13,4.12.01,6.72-.02,5.86-.09,11.8-.17,17.71-.26-.48-.04,1.01-.12-1.78-.11Z"/><path d="m282.41.15c4.09.07,8.33.15,11.26.11,1.9-.03,3.02.03,4.71.09,5.69.23,11.31.38,16.63.46-5.29-.29-11.9-.45-18.35-.58-4.75-.09-9.47-.14-14.2-.16l-.05.08Z"/><path d="m5.7,15.59c.32-.06.81-.16,1.22-.24.2-.04.39-.07.52-.1.13-.03.21-.05.21-.05,0,0-.09,0-.28.02-.2.03-.51.07-.97.13-.91.14-2.42.32-4.69.85-.29.08-.57.16-.83.25-.13.05-.25.1-.35.17-.04.03-.08.07-.07.06,0-.02,0,0,.04.02.4.21.94.28,1.38.36.92.14,1.73.22,2.47.29,1.48.13,2.67.23,3.92.34,1.25.09.43.15,4.32.27,3.14.08,2.42-.01,1.83-.08-.56-.07-.86-.13-1.28-.2-3.09-.11-6.18-.23-9.25-.5-.77-.07-1.53-.15-2.28-.28-.36-.07-.77-.15-1.03-.28,0,0-.06-.04-.03-.01.02,0,.01.11,0,.12-.03.03.05-.04.11-.07.14-.07.32-.13.5-.19,1.45-.42,2.99-.64,4.51-.88Z"/><path d="m372.63,5.93c-.62.09-.71.2,7.37.31l5.65.02c1.19,0,2.38.02,3.56,0,.74-.04,1.71-.03,2.56-.19.01,0,.05-.02.03,0,.02.06.1.13.1.15,0,.01.02.02.04.02,0,0-.03,0-.04,0-.18.21-.1.13-.18.13-.08-.04-.21-.07-.32-.09-.23-.06-.48-.1-.73-.15-.5-.09-1.01-.16-1.51-.23l-2.12-.18c-.19.07,2.33.28,4.21.65.1.02.19.04.28.07.05.01.09.03.12.04l.05.02s-.06.03.08-.13l.08-.08s0-.02.01-.03c0-.03.08-.01.04-.02-.02,0-.11-.12-.16-.23-.04-.09-.04-.01-.09-.03-.08.02-.17.03-.27.04-.39.05-.81.07-1.22.08-.83.03-1.67.04-2.5.04l-5.02-.03-10.04-.18Z"/><path d="m82.6,9.31l-3.95.15c-5.3.32-10.89.75-15.39.9-1.16.04-4.52.31-4.31.31.93-.01-6.38.5-1.23.22,8.24-.58,17.25-.99,24.88-1.58Z"/><path d="m374.44,6.33c-2.05-.02-5.1-.03-5.97-.06-3.47-.13-.19-.08,1.01-.08.81,0-.25-.05-1.66-.09-.81-.02-1.64-.04-2.28-.05-.64,0-1.08,0-1.1,0-.06.05.45.12.72.18,6.77.27,14.48.49,22.13.53l.24-.09c-.09-.01-.11-.02-.07-.03l-2.04-.02c-4.92-.02-9.6-.12-10.98-.29Z"/><path d="m132.75,6.64c-7.03.32-5.48.45-13.14.81,3.92-.08,7.91-.17,13.06-.52.58-.05.95-.11,1.76-.14,12.39-.52,3.26-.24.36-.19-.3.04.03.06-2.18.14l.44-.08c-.11,0-.21-.02-.29-.02Z"/><path d="m35.59,18.63c-1.63-.08-4.81-.19-8.08-.17-6.26.07-17.55-.4-21.72-.51,10.13.61,20.06.63,29.8.68Z"/><path d="m189.21,17.51l-7.28.03-3.81.02s-.77.08-1.94.1c-1.17.02-2.73.04-4.26.06-7.19,0-13.93.11-20.29.29.61.03,2.57.05,3.89.02,10.89-.23,23.12-.24,33.7-.52Z"/><path d="m117.75,2.18c.37.11,1.63.18,8.81-.06,5.35-.17,12.09-.16,17.24-.32-7.77-.09-17.19.23-26.05.38Z"/><path d="m407.97,13.66c-2.49-.24-7.42-.54-12.83-.82,1.07.17-1.74.16-5.45.11,3.78.2,7.19.28,10.69.4,1.89-.02,4.94.17,7.59.31Z"/><path d="m198.47,1.65c-6.53-.04-20.14.16-28.29.42,8.06-.03,16.17-.21,24.25-.33.2-.08,2.18-.08,4.04-.09Z"/><path d="m207.73,4.5c1.09-.02,2.01-.04,2.66-.06.64-.02,1.01-.04.98-.07h-2.4s-.53-.02-.53-.02h1.78s1.47.01,1.47.01c2.24-.03,3.31-.07,3.49-.11-6.84.07-12.78.04-20.35.26.67.12,7.04.01,11.26,0,.55,0,1.1-.01,1.65-.02Z"/><path d="m125.88,18.22c-8.59.08-17.12.16-24.42.33,2.89.04,5.59.05,9.89-.06,5.45-.13,12.23-.12,18.25-.21l-.34-.08c-1.11,0-2.24.01-3.38.02Z"/><path d="m273.14.3c-7.67.04-11.81.24-9.32.38l7.5-.04c-1.15-.08,4.4-.13,3.31-.21-2.18-.03-1.27-.09-1.49-.13Z"/><path d="m101.24,8.2l-12.48.79c6.3-.28,12.56-.55,18.46-.96l-.67-.09-5.31.26Z"/><path d="m314.48,5.05l-4.8-.08-.84.05c7,.14,14.12.33,20.61.35-2.09-.11-6.38-.22-7.17-.32-1.35-.01-2.49-.02-3.63-.03-.3.05-.48.09-4.17.03Z"/><path d="m282.41.15l.05-.08-9.31-.02c-1.91.09-1.77.17,0,.26,4.54,0,3.47.07,3.57.13.72.03,1.75.06,3.5.06,2.06,0,.83-.05.46-.07-1.42-.1-4.11-.22,1.73-.27Z"/><path d="m235.78,4.1l.11-.08c-6.37.03-13.35-.02-18.75.2.95.06-.46.21,6.61,0,3.07-.09,8.39-.03,12.03-.12Z"/><path d="m193.52,17.39l-.45.11c7.24-.03,13.79-.18,20.49-.35h-3.5c-3.72.02-3.78-.05-4.31-.1-.5,0-1.01.01-1.53.02,0,.07-.29.14-1.77.2-1.48.06-4.15.1-8.94.13Z"/><path d="m275.41,15.61c4.93-.07,9.88-.15,14.8-.22,3.19-.04,5.59-.08,5.92-.16-6.59,0-13.91.2-20.77.27-.01.04-.03.07.05.11Z"/><path d="m210.06,17.14h3.5c5.34-.03,10.87-.04,15.23-.28-4.8.05-9.82.11-15.19.17-2.54.04-3.42.06-3.54.11Z"/><path d="m353.88,5.44c.21.02.27.03.64.05,2.67.13-7.58-.04.17.18,5.59.16,9.18.14,8.7,0-3.28-.1-6.76-.26-9.51-.23Z"/><path d="m279.57,9.59c-2.09-.11-4.24-.19-8.78-.22-3.77-.02-7.04-.1-8.96-.21-1.32-.01-3.02-.05-3.5-.02,1.08.06,2.17.12,3.26.17,5.84.1,11.61.2,17.41.31l.59-.03Z"/><path d="m187.31,8.73c3.24-.1-1.88-.14-6.49-.17-3.4-.04-5.55-.03-6.98.01l.09.08c4.38.03,8.76.05,13.39.08Z"/><path d="m404.58,14.44c-6.77.04-14.42.08-20.44.24,6.79.03,13.6-.17,20.4-.17l.04-.07Z"/><path d="m33.92,12.67c-1.01-.2-8.89.69-13.45,1.12.3.03-1.02.22,4.54-.33,2.78-.25,5.93-.53,8.91-.79Z"/><path d="m361.41,6.15c-.66-.07.04-.14-4.18-.25-5.69-.14-2.29.08-5.58.04,4.54.22,6.51.14,9.76.21Z"/><path d="m217.16.86c-2.78.07-5.55.14-8.33.21,5.25-.07,5.58,0,6.33.07.43.04,1.67.05,4.18.01.93-.02,2.4-.06,2.69-.08.83-.06-1.21-.04-2.82-.03-5.79.03,4.64-.22-.39-.21-.53,0-1.08.01-1.66.02Z"/><path d="m177.24,8.24c3.71-.02,8.74.25,11.63.07q-1.58-.13-11.63-.07Z"/><path d="m370.39,3.84c-4.9-.38-4.58-.44-5.68-.59-3.84-.26-8.07-.58-11.2-.67l.12.05c2.76.18,7.6.45,8.05.55.98.23,4.91.41,8.71.66Z"/><path d="m381.82,4.56c-2.39-.1,3.27.42,5.94.81.97.09,1.94.19,2.91.33.39.05.76.08,1.17.19.06.02.1.03.17.07.04.02.07.04.11.07.08.09.12.26.04.35-.14.16-.19.13-.25.17l-.16.05c-.21.05-.4.08-.6.11.25-.02.48-.03.77-.11.05-.02.07-.02.14-.05.04-.02.05-.03.1-.07.06-.06.12-.15.11-.24,0-.1-.06-.22-.11-.26l-.07-.05c-.05-.04-.1-.06-.13-.07-.14-.06-.26-.09-.38-.12-.48-.12-.94-.19-1.4-.26-.92-.13-1.82-.24-2.73-.34-1.82-.19-3.65-.37-5.63-.58Z"/><path d="m35.52,18.19v-.11c-3.49-.05-6.99-.1-10.85-.15.02.03-.31.06.02.09.32.03,1.29.06,3.9.09,3.94.04,5.74.09,5.59.16,1.73-.01,1.19-.05,1.34-.09Z"/><path d="m389.69,12.96c3.71.04,6.52.05,5.45-.11-3.83-.07-9.42-.21-10.22-.11l.75.09,4.02.14Z"/><path d="m252.45.7c2.78,0,1.3.07,1.78.11l5.6-.05c.88-.13,1-.26-7.46-.17l.08.11Z"/><path d="m129.26,18.19l.34.08c3.62-.03,6.73-.09,9.38-.17-2.32-.22-6.07-.05-9.72.09Z"/><path d="m290.33,10.26s.38-.04.02-.07c-1.03-.08,4.34-.08-1.45-.21-5.13-.11-.71.09-1.45.13-.22,0-1.92-.02-2.94-.02,1.25.07,2.37.14,5.82.17Z"/><path d="m407.97,13.66c-2.66-.14-5.7-.33-7.59-.31l4.09.19c1.55.06,2.87.13,3.58.19,2.53.11,5.06.22,7.58.38l-1.58-.14-6.08-.31Z"/><path d="m59.97,11.14s-.15.03-.01.03c.65,0-2.13.25,2.44-.04,1.56-.09,4.47-.34,1.5-.22l-3.92.24Z"/><path d="m266.04,15.87c.12-.07,4.86-.19,3.72-.25l-5.72.1c.68.05-1.31.15,2,.14Z"/><path d="m66.59,4.75c.13.04,1.93-.05,3.91-.15,8.26-.61-1.82.03.42-.17-.36.01-.84.04-1.44.09l-2.47.18c-.51.04-.65.06-.42.05Z"/><path d="m352.1,2.96l-3.73-.17c1.64.17,6.18.4,8.99.62l.21-.06-.15-.08c-1.01-.06-1.77-.11-2.53-.16-.29.02-1.55-.06-2.79-.14Z"/><path d="m61.75,18.75c-.31-.07-4.38-.04-5.58-.09l-2.97.03,2.4.05c1.98.02,4.02.03,6.16,0Z"/><path d="m391.16,6.71c.2-.03.39-.06.6-.11l.16-.05c.06-.04.11,0,.25-.17.08-.09.04-.26-.04-.35-.04-.03-.07-.05-.11-.07-.07-.04-.11-.04-.17-.07-.41-.11-.78-.14-1.17-.19.24.04.49.08.73.14.12.03.25.06.37.1.07.02.12.04.2.08.05.04.07.02.13.12.08.11-.03.26-.07.27-.32.15-.53.13-.79.16l-.74.05c-.99.05-1.97.05-2.96.06l-.24.09c1.29,0,2.56.02,3.86-.06Z"/><path d="m303.35,4.94c-1.11-.08-2.6-.15-5.88-.12,1.57.06,2.2.16,5.88.12Z"/><path d="m352.07,14.87l-5.9.1c-.27.1,2.99.04,5.88,0v-.1Z"/><path d="m286.52,4.66c-2.8-.02-5.95-.07-7.92-.02,4.02.11,6.17.08,7.92.02Z"/><path d="m40.25,12.77c1.84-.18,3.96-.39,6.37-.63-2.05.18-3.27.18-6.37.63Z"/><path d="m414.05,13.98l1.58.14c.61.05,1.26.08,1.83.17h.03s.05.03-.03-.01c-.1-.05-.09-.21-.09-.24,0-.07.07-.15.12-.16.06-.02,0,0,.01,0h-.04c-.05.01-.14.01-.21.02h-.46s-.93.02-.93.02l.16.04c.42,0,.85.01,1.26,0h.15s.06-.01.06-.01h.03s-.1.02-.1.1c0,.03,0,.05,0,.11,0,.05.07.09.09.1h-.02s-.04-.01-.06-.02l-.15-.02-.63-.07c-.85-.08-1.72-.12-2.6-.15Z"/><path d="m327.65,1.31s-.04.01-.25,0c.27,0,.55.02.87.03.17-.02.35-.04.53-.06l-1.14.02Z"/><path d="m408.05,13.74c-.72-.06-2.03-.13-3.58-.19-.04.06,1.18.12,3.58.19Z"/><path d="m265.83.07c.21.03-.14.07,1.94.05,1.52-.01,1.23-.04.11-.05h-2.05Z"/><path d="m357.57,3.35l-.21.06c1.92.11,3.25.17,3.87.17l-3.66-.23Z"/><path d="m348.24,2.8l-4.9-.25c2.06.15,3.7.24,4.9.25Z"/><path d="m275.32,15.61l.04-.11c-1.24.01-1.88.03-1.94.06.17.03-.74.08,1.9.05Z"/><path d="m117.85,7.52l-.6-.04c-1.96.1-.75.08-1.17.12.6-.03,1.19-.05,1.77-.08Z"/><path d="m198.46,1.65c-1.85,0-3.83.01-4.04.09,1.7-.02,3.39-.03,4.04-.09Z"/><path d="m278.98,9.62c-5.8-.1-11.57-.2-17.41-.31-2.02-.03-2.91-.02-3.08,0l-.26.1c3.21.06,4.27.11,3.12.15-.54.02-1.29.04.84.08.62,0,1.61.02,2.44.03.83,0,1.46,0,1.48,0-.39-.16,8.13-.01,11.44-.04.67-.02.96-.02,1.43-.04Z"/><path d="m157.51,8.19c-3.95-.05-7.91-.1-11.77-.04,6.64.03,1.22.14,5.89.18l7.48.09c-.96-.08-4.93-.16-1.6-.23Z"/><path d="m357.32,11.77c3.15.16,7.25.29,11.52.42-.13-.05.47-.08-.57-.14-1.39-.08,4.22.03-.87-.13-3.52-.11-2.84-.03-2.46.03.17.03.19.11-2.1-.04-4.2-.26-3.32-.05-5.53-.14Z"/><path d="m222.68,8.74l-5.63-.1c-.73.03-5.55,0-1.3.1,4.49.1,6.01.05,6.93,0Z"/><path d="m236.08,8.96c1.64,0,3.14-.01,2.14-.05-3.01-.11-6.46-.08-9.77-.13.29.1,4.63.13,7.63.18Z"/><path d="m336.99,10.92l-7.44-.19c.4.08,2.75.17,5.72.24,2.3.05,1.54-.02,1.71-.05Z"/><path d="m415.81,14.06c-.52,0-1.05,0-1.6.01l-.22.07c1.13-.01,2.4,0,3.49-.05h.08s0,.02-.03,0c-.06-.01-.13-.02-.19-.03-.13-.01-.26-.03-.38-.04-.25-.02-.49-.04-.71-.05-.44-.03-.8-.04-1.05-.04.7.05,1.41.1,2.1.19.08.01.18.03.24.04,0,0,.03.02-.01-.02-.02-.04-.01-.06-.01-.09.05-.06.02-.02,0-.03h-.12s-.52.03-.52.03h-1.06Z"/><path d="m215.59,8.62c-.78-.09-3.43-.1-6.1-.1l.19.07c1.99.01,3.95.02,5.91.03Z"/><path d="m251.59,9.47c.4.01.79.03,1.17.04l1.07-.02c-.48-.01-1.05-.02-1.43-.03-.37,0-.54,0-.81.01Z"/><path d="m351.56,11.61l4.34.12c-.55-.04-.95-.08-1.68-.1-2.1-.07-2.08-.03-2.66-.02Z"/><path d="m237.75,9.08l-1.82-.09c-2.83.01-.62.05,1.82.09Z"/><path d="m209.68,8.59c-.51,0-1.13,0-1.62-.01-.49,0-.86,0-.85.01,0,0,.73.03,1.1.03,1.71.02,1.23-.01,1.38-.03Z"/><path d="m258.23,9.43l.26-.1c-2.42,0-2.62.03-.26.1Z"/><path d="m309.28,10.49s-.33-.02-.59-.03c.04.02.33.02.59.03Z"/><path d="m410.17,14.14l-.08.04,3.86-.05c-1.23,0-2.51,0-3.78,0Z"/><path d="m243.43,9.13l.42.02c-.16,0-.31-.02-.42-.02Z"/><path d="m208.56,8.51l-.54-.04c-1.62,0-1.29.02.54.04Z"/><path d="m248.91.6c2.27-.09,5.82-.19,3.22-.25-1.11-.02-2.45-.04-4.79-.01-3.47.05-3.86.11-4.32.16,1.8.03,2.7.08,1.16.17-.71.04-.53.07,1.51.04,2.46-.03,2.84-.07,3.22-.12Z"/><path d="m89.6,3.73c5.01-.26,3.34-.26,3.78-.34-1.86.08-4.47.24-4.73.19-.13-.03-1.94.03-3.59.13-1.69.1-3.24.25-3.83.32-.99.12,2.26-.11,3.28-.14,2-.06,3.43-.1,5.1-.15Z"/><path d="m185.78,1.42c-3.41-.13-9.73.03-15.71.14,4.38.04,9.33.02,15.71-.14Z"/><path d="m190.42,1.35c-.64.01-1.28.02-1.93.04-.33.01-.53.02-.99.04-3.6.09-5.99.18-2.28.21.97,0,3.64,0,3.18-.04-1.08-.07,10.75-.28,2.03-.25Z"/><path d="m231.8.62l-5.41.07c-.06.05-4.57.2.23.14,3.55-.04,6.03-.15,5.18-.22Z"/><path d="m206.26,1.11h-6.01c.14.03-3.1.13-.34.13,2.19,0,4.56-.06,6.35-.13Z"/><path d="m101.1,3c1.09-.03,1.75-.05,2.39-.06.69-.03,1.36-.07,2.04-.1-.58.01-1.11.02-1.75.04-.66.03-1.43.07-2.69.13Z"/><path d="m196.19,1.17l-5.2.11c-.24,0-.49.02-.75.03l.24.03c1.17-.02,2.61-.05,3.75-.07,1.14-.03,1.99-.05,1.97-.09Z"/><path d="m236.58.54c-1.54,0-3.08-.01-4.65.08l4.65-.08Z"/><path d="m112.41,2.4c.53,0,.8-.02,1.06-.04-.19,0-.39.01-1.06.04Z"/><path d="m35.62,12.02c-2.08.17-4.48.36-5.71.52-.92.19-7.22.67-9.71.99-.94.12-4.14.33-5.53.56-.85.14,2.26-.15,4.19-.3,1.96-.15,3.5-.3,6.21-.58,3.41-.36,7.38-.73,10.45-.86,1.84-.08,5.15-.39,7.09-.56,3.39-.3.64-.13-1.34,0-3.13.19-6.23.39-5.65.25Z"/><path d="m35.52,18.19c-.15.03.39.08-1.34.09-.43.04-5.03,0-2.76.09.8.03,2.62.07,3.82.08,4.02.02,1.35-.07,2.23-.1.49-.02.86-.03,1.6-.05,1.44-.02,5.66-.02,4.08-.08-1.82-.06-4.85,0-7.62-.03Z"/><path d="m21.87,18.16c-.4-.01-.78-.03-1.15-.04h-1.09c.48.02,1.03.04,1.43.05.35,0,.54,0,.81,0Z"/><path d="m71.12,9.57l1.86-.11c-.6.04-1.25.08-1.86.11Z"/><path d="m87.92,10.04c-.38,0-.5-.04-3.01.09.34.01,1.54-.04,3.01-.09Z"/><path d="m153.56,5.74l-3.83.12s.84.09-.34.14c-2.07.1-3.93.19-3.24.22.34.02,1.48-.04,1.93-.07,1.65-.11,7.19-.28,5.71-.33-.48-.02-.18-.07-.24-.1Z"/><path d="m164.68,5.5c-1.18,0-1.25-.05-3.94.03-.38.01-1.31.07-1.21.08.53.04,3.12-.05,5.15-.11Z"/><path d="m207.73,4.5c-.55,0-1.1.01-1.65.02,0,.01-.08.03.1.04.18,0,.64.01,1.72,0l-.16-.06Z"/><path d="m133.05,6.67l-.44.08c2.21-.09,1.88-.11,2.18-.14l-1.75.07Z"/><path d="m142.2,6.21l.66.02c1.81-.09-.04-.03-.66-.02Z"/><path d="m151.63,8.34c-4.67-.04.75-.15-5.89-.18-2.42-.01-4.12,0-5.39.06-2.67.1-5.96.21-.97.21,7.84.06,8.18-.05,12.25-.08Z"/><path d="m120.15,8.88c2.7-.09,7.01-.14,6.78-.23-.04-.02-.33-.03-.99-.03-.66,0-1.7.02-3.23.07-2.96.1-7.31.28-7.47.32-.33.08,3.53-.11,4.92-.14Z"/><path d="m123.09,8.57c-2.11.03-3.42.02-4.96.07-1.94.06-5.39.17-5.52.23-.07.03,1.19.02,3.25-.05,2.22-.08,4.37-.15,7.23-.26Z"/><path d="m97.34,9.66c-.26-.01-.27-.04-2.22.04-.61.02-.95.06-1.41.09l3.63-.13Z"/><path d="m130.53,8.49c-.61.03-.23.02.14,0h-.14Z"/><path d="m100.92,9.55l-.85.03-.85.03c.57,0,1.14-.03,1.7-.06Z"/><path d="m319.95,1.09c.39.07,2.33.17,5.06.26,3.46.12,2.1,0,2.44-.04-3.37-.15-3.51-.04-7.49-.22Z"/><path d="m276.71.43c-.1-.06.97-.13-3.63-.13.28.05-.63.1,1.55.13.69,0,1.38,0,2.08,0Z"/><path d="m319.91,1.09l-.41-.03c.15.01.3.02.41.03Z"/><path d="m125.88,18.22l3.41-.02c-.6-.02,1.14-.09-1.59-.06-1.55.01-1.94.06-1.82.09Z"/><path d="m171.9,17.72c1.54-.02,3.09-.04,4.26-.06,1.17-.02,1.95-.06,1.94-.1-2.29.05-4.85.09-6.21.16Z"/><path d="m370.39,3.84c-3.8-.25-7.73-.43-8.71-.66-.44-.1-5.29-.38-8.05-.55,1.51.17,2.71.31,4.59.53,4.03.42,11.44.93,17.5,1.27.75.04,1.13.04,2.06.11,3.45.26,3.69.16.26-.19q-1.43-.14-2.25-.12c-.39,0-.29.06-2.89-.14-.8-.06-1.68-.17-2.52-.26Z"/><path d="m385.42,6.63l2.04.02c3.6-.14-1.99-.24-1.81-.38l-5.65-.02c-.54.12,6.93.29,5.43.39Z"/><path d="m389.17,5.88c.51.07,1.01.14,1.51.23.25.04.49.09.73.15.11.03.24.06.32.09.07,0,0,.08.18-.13.01,0,.04,0,.04,0-.02,0-.03-.01-.04-.02,0-.01-.08-.09-.1-.15.02,0-.02,0-.03,0-.85.16-1.82.15-2.56.19.06,0,.01.01.19.01,1.26,0,1.78.01,2.33-.05.07,0,.13-.05.16-.02-.02.09-.03.02-.12,0-.14-.06-.32-.11-.53-.16-.42-.1-.96-.19-1.73-.3-4.53-.54.51.18-.36.14Z"/><path d="m379.24,4.75c-.54-.03-1.17-.08-1.12-.07.16.03.57.09.88.13.12,0,.3.02.44.02.14,0,.25.01.26,0,.02-.02-.26-.06-.46-.09Z"/><path d="m352.1,2.96c1.24.08,2.51.17,2.79.14-1.18-.08-2.83-.21-2.79-.14Z"/><path d="m357.43,3.26l.78.03c-.34-.02-.68-.03-.78-.03Z"/><path d="m101.24,8.2l5.31-.26c1.58-.22,10.47-.6,13.35-.84-.29-.04.45-.13-3.81.06,1.81-.01-1.29.16-3.25.27-2.4.14-3.54.14-4.44.14l-5.39.25c-10.12.65-10.3.69-1.78.37Z"/><path d="m108.41,7.58c.9,0,2.04,0,4.44-.14,1.96-.11,5.06-.28,3.25-.27-2.91.13-6.52.27-7.69.42Z"/><path d="m81.96,9c5.11-.11,6.73-.39,10.05-.59-4.08.15-7.11.36-10.05.59Z"/><path d="m71.09,9.57l1.93-.12c-.64,0-1.29.04-1.93.12Z"/><path d="m314.48,5.05c3.69.07,3.88.02,4.17-.03-.56-.08,1.37-.03,3.43.03,1.16-.05.35-.16,5.66-.07,1.09-.07-4.73-.15-5.55-.23-7.49-.03-8.11.13-7.7.3Z"/><path d="m374.4,6.33l2.36.04c-1.32-.06-1.67-.04-2.36-.04Z"/><path d="m323.64,15.06c-.9.05-1.14.08-1.39.12,3.79-.06,7.55-.11,11.32-.17,3.4-.05,3.47-.1,3.62-.15-2.02.02-4.5.07-5.7.04l-7.85.15Z"/><path d="m323.64,15.06l7.85-.15v-.08c-2.56.04-5.13.08-7.7.12l-.14.12Z"/><path d="m376.54,14.33c-.07-.04-.27-.08-2.35-.06-.94.02-2.18.05-3.28.08,1.34.03,3.55,0,5.63-.02Z"/><path d="m331.49,14.91c1.2.03,3.68-.02,5.7-.04-1.16-.03-3.47,0-5.7.04Z"/><path d="m353.99,14.82s1.77-.06.1-.06c-.18,0-.71.01-.86.01-1.09.04-.45.05.76.05Z"/><path d="m239.67,4.41c3.16-.04,6,.2,9.38-.02.53-.16-6.32-.06-9.47-.08.05.04.07.07.09.11Z"/><path d="m278.95,4.38h-.77c.24,0,.48,0,.77,0Z"/><path d="m239.58,4.31h-.41c.15,0,.29,0,.41,0Z"/><path d="m410.17,14.14h3.81s.22-.08.22-.08c-2.67,0-3.97.02-4.03.08Z"/><path d="m193.52,17.39c4.79-.03,7.46-.07,8.94-.13,1.48-.06,1.76-.12,1.77-.2l-2.06-.13c-7.12,0-11.17.2-16.71.3-.68.14-.2.24,8.06.15Z"/><path d="m284.22,15.62h.81s-.34-.02-.81,0Z"/><path d="m190.98,1.27h-1.34c.2.01.4.02.59.03.25,0,.5-.02.75-.03Z"/><path d="m265.97,15.88c.65,0,1.3,0,1.98,0,.02,0,.35-.01.53-.02-.82,0-1.63.02-2.51.03Z"/><path d="m159.26,17.51h-3.59c.25.05.42.1,3.59,0Z"/><path d="m322.26,15.18c.24-.04.49-.08.74-.12-1.85.03-3.91.06-4.22.11-.32.05,1.48.04,3.49,0Z"/><path d="m303.03,4.78c.21-.04.28-.07-1.55-.13.2.04-.64.07,1.55.13Z"/><path d="m293.92,4.45l.39.02c-.14,0-.27-.01-.39-.02Z"/><path d="m308.74,4.72c-.39-.03-.36-.07-1.28-.1-1.2-.04-2.35-.02-1.97,0,.76.05-3.07.08,2.69.16.19-.02.37-.05.55-.07Z"/><path d="m308.74,4.72c-.18.02-.36.05-.55.07,2.86.03,2.63,0,.55-.07Z"/><path d="m192.15,4.79c-.26,0-.5,0-.82,0-.04,0-.66.02-.7.02-.08.01.02.02.05.03l1.46-.04Z"/><path d="m54.42,18.48h.75c-.28,0-.56,0-.75,0Z"/><path d="m98.88,3.29l-2.92.16h.74c.77-.06,1.54-.11,2.18-.16Z"/><path d="m208.97,4.39h2.4c-.17-.03-.66-.04-1.15-.04l-1.25.04Z"/><path d="m322.08,5.05c-2.05-.06-3.98-.11-3.43-.03,1.14,0,2.29.02,3.43.03Z"/>
                  </g>
                </mask>
              </defs>
              <path class="mask" d="m33.51,7.98c18.34-1.94,46.29-4.39,81.17-5.43,10.72-.32,18.48-.39,24.19-.45C247.56.98,263.25-.46,306.06.74c45.09,1.27,86.14,4.51,85.92,5.49-.31,1.38-81.56-3.26-188.06-1.52C96.77,6.47-.17,14.1.34,16.7c.65,3.34,162.62.82,204.88.27,28.33-.37,40.43-.7,65.97-1.15,14.26-.25,40.64-.65,69.4-1.01,27.48-.35,41.22-.51,57.37-.58,16.66-.08,19.65-.01,19.65-.13.02-.72-120.75-5.15-263.59-5.75-4.72-.02-8.65-.03-11.37-.04,0,0-10.35-.03-43.62,1.21-31.22,1.17-72.72,2.67-87.56,9.53-1.82.84-6.04,2.79-5.11,5.03,1.12,2.71,8.33,4,10.17,4.25"
                    mask="url(#path-mask)" stroke="black" stroke-width="2" fill="none"
                    stroke-dasharray="1594.96923828125" stroke-dashoffset="1594.96923828125">
              </path>
            </svg>
        