
            <svg xmlns="http://www.w3.org/2000/svg">
              <defs>
                <mask id="path-mask">
                  <g fill="white">
                    <path d="m147.85,6.67c2.79.07,1.02-.07,1.58-.1l2,.1c1.64.11,3.54.23,5.11.34,3.2.24,9.2.43,11.77.39,1.76.09,2.87.11,3.62.1,2.34.14,5.82.21,7.63.38.49.08,2.55.23.82.22-1.25,0-2.6-.05-4.59-.17-1.65-.1-3.15-.16-4.08-.14l-1.55-.06c-1.92-.04-4.52-.34-6.03-.23-.6-.03-1.71-.07-1.73-.08-1.52.09-5.07-.11-8.15-.24l-.05-.04c.84.01.67,0-.28-.04-.15,0-.31-.01-.48-.02l-.1-.06c.52.02,1.29.05,1.28.02,0,0-.38-.03-.57-.04-.89-.03-.64,0-.73.01l-3.05-.08c-.25,0-.5-.02-.75-.02.38-.02,2.88.04.68-.07-2.33-.12-3.12-.09-3.59-.06-.44.04-1.43.02-2.99-.07-.15-.09-2.4-.14-3.95-.2l.08-.02c1.47,0,.32-.04-.94-.09-1.71-.11-1.87-.03-2.94-.07l-.22-.02.25.02c-.1.05.54.13-2.57.01-1.93-.07-3.59-.11-3.26-.02l-1.92-.05-1.68-.15c1.05.03,1.51.02,1.59,0,1.25,0,1.36-.02.14-.09-1.67-.06-2.22-.1-1.62-.13.28-.01.67-.03-.43-.07-.32,0-.83-.02-1.26-.03-.43,0-.77,0-.77,0,.2.14-4.22.01-5.94.04-.35,0-.5.02-.74.03l-.3.03c-3.94-.1-8.07-.25-11.61-.23-.89,0-2.15-.06-3.03-.1-1.6-.07-2.69-.08-3.56-.05l-7.58-.22-.14-.04c-.21-.06-1.43-.11-2.97-.14-1.19-.02-.8.04-.89.06-4.21-.05-8.43-.11-12.85-.17l.18.02c-.06.02.28.04-.55.03-.24.02-.33.05-1.41.03.38-.08-1.73-.14-3.44-.18-3.69-.09-7.98-.19-11.22-.18-2.24.01-3.75,0-5.93-.02-1.32-.01-.59.06-.7.09l-12.7-.09.02-.07c.84-.03.64-.07.22-.12-.71-.08.37-.11,2.63-.09l2-.02c1.2,0,2.63.03,3.16-.02l-2.2-.04c-.28-.03-1.57-.08.11-.1.87.04,1.77.06,2.68.02l3.16.03c1.3.13,3.85.23,6.66.33,1.99-.05,4.89-.07,5.3-.17,2.77.05,5.54.11,8.34.12.07.04-.24.08.3.11.72.05-2.19.06.45.1,1.83.03,1.47-.03,1.27-.08-.09-.02-.1-.09,1.09,0,2.18.16,1.72-.02,3.61.03.29.02.49.06.87.07,1.09.03,1.08-.01,1.38-.03,3.55.07,7,.08,10.77.21,1.96.07,3.01,0,3.59-.06l17.4.42s-.2.04-.01.06c.53.07-2.25.09.75.17,2.66.07.37-.08.75-.12.11-.01.99,0,1.52.01,4.91.06,10.2.23,15.29.39,1.48.05,3.89.04,5.07.18,1.34.13,10.12.54,12.94.61Zm-16.83-.69h-.55c.25.02.55.03.74.04.19,0,.28,0,.42,0-.21-.01-.41-.02-.61-.03Zm-28.91-.69c-.11,0-.26,0-.4-.01.02.01.17.02.4.01Z"/><path d="m70.96,8.77c-6.5.22-12.91.34-19.36.51-.87-.17-5.04.06-7.74.1-.54-.04-.48-.12-3.36.02-1.74.08-4.27.14-6.51.21-1.8.03,3.73-.35-2.85-.06-.96.02-2.32.08-2.46.02-.07-.03-1.01-.05-1.86-.01-.88.04-1.68.1-1.99.15-.51.07,1.18,0,1.7,0,1.03.02,1.78.03,2.65.04-.53.06-2.9.1-2.76.17-1.45-.07-6.55.22-6.54.07,0-.07,2.06-.22,2.93-.33.91-.12,4.83-.25,7.95-.32,1.4-.02,2.74-.05,4.14-.07,1.35-.03,3.01-.02,3.99-.1,1.05-.09-2.67.04-1.99-.05,2.14-.11,4.39-.2,6.88-.22.19.11.85.18,4.57-.03,2.77-.15,6.27-.09,8.94-.28l1.03-.03,1.95-.02c3.28.03,6.81-.05,10.64-.26,2.27.03,4.84,0,8.15-.15l1.4-.04c-.17.01-.27.03-.51.04-1.86.09-3.1.18-1.18.2.5,0,1.89-.01,1.65-.04-.56-.07,5.57-.27,1.07-.25,1.21-.05,2.99-.08,2.96-.16l2.1-.06c.07.04-1.6.13-.17.13,1.14,0,2.37-.05,3.29-.12l1.33-.03c2.73-.06,2.9,0,3.29.07.23.04.87.05,2.17.02.48-.01,1.24-.05,1.39-.07.43-.06-.63-.04-1.46-.03-3,.02,2.4-.2-.21-.2.65-.09,2.33-.13,3.9-.18l.03.05s-2.37.18.12.14c1.84-.03,3.12-.13,2.75-.2l2.41-.07,3.34-.02c.94.03,1.4.07.6.16-.36.04-.27.07.78.04,1.28-.03,1.47-.07,1.67-.11h1.79s.05.09.05.09c-3.03.07-6.46.22-8.49.13-.78-.03-1.9.03-2.08.09-.13.04.11.08-1.17.14-5.26.24-10.68.4-16.24.49-3.39-.05-10.44.16-14.67.43Zm-34.58.63c.36-.02.71-.04,1.06-.05-.3,0-.58,0-.91,0-.34.02-.74.03-1.39.06.57,0,.91,0,1.24,0Z"/><path d="m173.82.99c-2.53.05-3.7,0-5-.04-.65-.02-.23-.11-2.24-.06-1.63.04-1.25.1-.95.14.29.05.45.09.67.14l-5.97.09c-.02-.05.67-.13-2.03-.09-2.04.03-2.98.01-2.9-.06.23-.04,2.61-.08,1.43-.12-.41-.02-1.36-.03-1.98-.02-2.08.03-.7.08-1.15.12-.25.02-.44.05-.83.07-.75.04-2.94.09-2.11.12.95.04,2.52-.06,3.95-.07v.1c-5.66.09-11.15.13-16.57.15.89-.12,1.46-.25,6.12-.22.77,0,2.01-.02,2.33-.06.33-.05-.63-.05-1.69-.04-.34-.05-.69-.1-.9-.16l1.54-.05-1.24-.03c3.68-.11,7.13-.14,10.37-.09.85.06,2.5.11,4.19.03,3.24-.16,9.1-.04,11.26-.26,3.15.02,6.48-.06,9.71-.08-.13.12,2.35.11,4.43.06,1.85-.05,2.95-.05,4.33-.03-.48.11-3.76.07-5.06.14-.49.03-2.15-.06-2.88.03-.45.05,1.18.07,2.18.1,1.02.03,1.82.03,3.24-.03,1.78-.07,3.84-.12,5.44-.03.96.06,2.68,0,3.69-.04,1.77-.06.34-.07-.69-.09-1.63-.03-3.24-.07-2.93-.15l1.04-.04c1.82.12,5.34.03,8.33.02,1.16,0,3.83-.08,3.05.06-.19.03,3.43-.05,3.53-.08.22-.07,1.19-.08,2.5-.08h.97c1.81-.05,3.95-.11,3.21.03-.91.08-.88.08.66.09.67,0,1.57.02,1.72.04.51.07-2.21.07-2.65.12-2.75.03-5.66.13-8,.02-.6-.03-2.35.03-2.24.05.48.04-3.32.1-.64.13-.11.03-.41.04-1.51.05-3.6.01-7.2,0-10.87.09-.52-.25-4.63,0-7,0-2.76.03-4.79.14-7.72.15.68-.08,2.77-.2-2.1-.09Zm-11.45.02l.56-.04c-.25,0-.54,0-.74,0-.18,0-.28.02-.42.03.21,0,.4,0,.6.01Z"/><path d="m241.16,11.44c3.46.17,7.68.49,10.88.61,2.81.25,7.14.44,10.48.67.95.05,1.32.07,2,.11,2.09.09,2.62-.03.32-.19-2.43-.17-3.19-.25-3.8-.33-.64-.09-1.83-.21-4.15-.27-.26-.01-1.21-.06-1.62-.08-3.98-.24-7.81-.47-11.74-.71l-27.1-1.63.02.05c.76.05,1.38.09,1.55.12,1.34.07,2.95.16,4.06.23,2.67.16,5.96.32,8.07.51,1.26.12,10.46.75,12.33.84.31.01.64.02.59.01-.45-.09,1.29.05,2.08.11.94.08,1.53.13,2.35.2.47.04,1.93.11,1.79.13-.09,0-.93-.03-2.07-.09-2.37-.13-5.72-.35-6.04-.28Z"/><path d="m274.2.19c-2.37-.03-5.17-.08-6.73-.01.68.02,1.55.04,2.02.05,1.83,0,3.55,0,4.88.11,1.1.1-.45.1-1.56.12-1.97.05-3.49-.01-5.09-.09-1-.05-2.67-.08-3.48-.05-2.79.08-4.03-.02-5.69-.07-1.06,0-2.4,0-2.68-.05-.05-.01.43-.04.63-.03,1.4,0,1.43.06,2.04.09l2.98-.16c-1.96-.15-4.52-.07-6.92-.05.06.05-.09.09-1.83.1.03.03-.13.07.12.1.76.09-2.11.08-2.97.12-.24.01-.83.02-1,0-.36-.05.6-.07,1.68-.1.61-.02.15-.08.18-.12-.95.05-3.66-.03-3.94.07.35.01,1.31.02.37.04l-.34-.04c-1.38-.02-.54-.11-2.26-.1-.6,0-1.1.07-1.64.11.02.03-.19.05-1.01.07.05,0,.1.02.15.03h.91c1.51.05,6.24.1-.19.16-.42,0-.62.05-.91.07,2.77,0,5.67-.06,8.18.04.31,0,4.03-.04,6.51-.07.68-.04,1.53-.04,3.02-.04,4.37,0,8.93.13,13.11.11,1.67.14,4.69.09,6.45.26.43.04.84.08,1.24.14.2.03.4.06.57.11.01,0,.04.01.04.02.03,0-.06,0-.03-.15.08-.11,0-.02-.02-.03-.08.03-.18.05-.28.06-.8.14-1.69.22-2.76.34-2.91.3-4.18.3-4.25.2l-4.81.28c.22.06-1.1.17-2.06.26,2.21-.02,4.5-.05-.16.27-.6.04-.2.05.39.03,1.88-.16,4.64-.21,6.23-.36,3.65-.36,2.93-.19,3.43-.16l1.02-.08c.09-.05.64-.11,1.81-.23.07-.03.29-.07.64-.13.18-.03.39-.07.62-.11.12-.03.23-.04.4-.13.02,0,.05-.03.09-.08.05-.09,0-.18-.04-.22-.06-.05-.11-.06-.14-.08-.08-.03-.15-.04-.22-.05l.08.07c-1.13-.17-.94-.14-.94-.18-2.19-.23-5.49-.3-5.84-.43Z"/><path d="m186.47,8.37c1.25.06,2.13.08,2.79.09,1.39.01,3.09.05.51-.14-4.06-.28-4.24-.15-6.35-.22l-3.87-.22c-1.8-.17-5.29-.24-7.63-.38l-.04-.07c2.24.1,4.85.14,6.52.27,2.11.17,4.31.25,6.79.35,9.74.4,19.52.88,29.32,1.46.17.04.15.07-1.06,0l-1.88-.1-.97-.08c-.29-.03-.59-.04-.88-.05-6.19-.31-7.05-.32-4.71-.1.07,0,.09.01.14.02,5.47.22,6.92.48,12.26.77,2.22.12,5.18.29,5.77.41-1.46-.09-3.1-.12-3.58-.18-.92-.12-2.45-.18-3.94-.27-5.31-.32-10.5-.57-15.96-.83-7.78-.35-15.8-.72-23.77-1.08-1.58-.06-4.11-.15-4.23-.24.93-.02,2.43.04,4.08.14,1.99.13,3.35.16,4.59.17,2.05.12,4.1.24,6.1.27Zm9.76.28s.6.1,2.19.17c1.54.06,3.79.14,3.88.12.17-.05-1.83-.09-2.55-.14-1.4-.06-3.63-.22-3.52-.14Zm4.54.44c1,.05,2.79.14,2.86.1.04-.02-.61-.08-1.68-.13-1.15-.05-2.27-.09-3.75-.16,1.09.08,1.77.15,2.57.19Zm-5.9-.46l-.59-.03h.07c.44.03.46.03.51.03Z"/><path d="m123.41,7.34c2.42-.1,4.3-.14,7.03-.18,3.96-.06,8.89-.23,13.38-.37,2.25-.07,4.66-.09,6.76-.21l.02-.1c-.5-.03-1.78-.07-.26-.13,4.49-.18,3.89-.34,7-.51-1.66.05-3.12.11-4.42.18-.17,0-.31.02-.43.02-.17.05.54.09-1.26.16-1.41.06-2.42.06-2.63.01h-.23s.22,0,.22,0c2.09-.02,2.15-.14,3.88-.18.11,0,.15-.02.13-.02-1.98-.05-4.39.12-6.56.16-2.75.18-5.67.26-8.62.25-.88,0-1.46-.02-2.44.07-1.51.14-3.71.16-5.83.19-3.03.16-1.63.21-.89.29.19.02.83.03-.24.08-.91.04-1.44.03-1.82.01l-1.08.03c.57.06-2.31.18-1.71.24Z"/><path d="m101.04,1.56c-1.92-.03-3.91-.04-6.55.05-3.29.15-6.79.22-10.52.2-.71.06-2.03.09-3.22.12h-1.98c.24.03.6.09.69.08,3.61-.08,6.04,0,9.53-.06,2.53-.05,4.85-.08,5.54.02.02,0,.28,0,.42,0,.48-.02.96-.04,1.44-.06-.42-.12,2.13-.14,4.08-.16,6.41-.07,12.86-.22,19.36-.25,3.92-.02,4.14-.05,2.27.11-.56.06-.94.1-1.4.14,3.73-.08,8.06-.07,11.07-.24-.7,0-1.38,0-2.11,0-1.2.01-2.92.11-3.44.04-.22-.03,1.67-.11,2.86-.16.64-.01,1.83-.03,2.78-.05.79-.01,1.65-.02,2.03-.06.5-.05-.33-.06-1.15-.06-1.28-.01-1.63-.08-3.62-.05-2.52-.04-5.29-.04-8.61.04-3.78.16-8.21.22-12.66.28.06.03-.14.07-.94.08-1.42.02-.51-.04-.83-.06-1.88.13-3.82.28-5.03.06Z"/><path d="m211.56,9.4l-.97-.08-.44-.02-.44-.02c-6.19-.31-7.05-.32-4.71-.1.07,0,.09.01.14.02,5.47.22,6.92.48,12.26.77,2.22.12,5.18.29,5.77.41,1.61.06,4.49.25,5.7.27-1.54-.14-.02-.11.79-.06,2.37.15.92.11,1.25.17.07.01,0,.01,0,.02,1.81.17,4.9.29,6.93.45,1.25.05,2.36.12,3.31.21.32-.07,3.68.15,6.05.28,1.14.06,1.98.1,2.07.09.14-.01-1.32-.09-1.79-.13-.82-.07-1.41-.12-2.35-.2-.79-.06-2.53-.2-2.08-.11.05.01-.28,0-.59-.01-1.87-.09-11.07-.72-12.33-.84-2.11-.2-5.4-.35-8.07-.51-1.11-.06-2.72-.15-4.05-.22-1.3-.06-1.36-.09-1.56-.12l-.02-.05-1.92-.12c.17.04.15.07-1.06,0-.24,0-.41,0-.73,0-1.02-.05-1.02-.07-1.15-.1Z"/><path d="m166.02,5.63l.06.04c.79.06,1.41.12,2.4.17,2.11.1,5.96.02,9.1-.21.39-.03.59-.06,1.07-.09,1.79-.1,1.91-.22.12-.2q-.74,0-1.17.1c-.2.04-.14.09-1.49.13-.41.01-.88-.02-1.32-.03-2.55.04-2.39-.04-2.97-.1,2.91-.12,5.89-.2,8.89-.29-1.23.15,1.71.08,3.11.08l1.51-.12,3.06-.14s.06.02.04.03c-1.86.19,1.04.2.95.32l-1.85.07s0-.01-.1-.01c-1.31,0-1.07-.12-2.68-.04-2.37.11.28.11-.17.18l-1.1.12c-4.48.16-9.06.33-13.44.38l-1.9.05-.08-.07.4-.03-.53.03-1.19.03c-.61.01-1.47,0-1.45.06l-1.93.09.27-.02h.29c-1.33-.04-4.62.06-5.57-.04-.44-.05-4.6.18-6.86.3-.37.03-.61.04-.92.06-.5-.03-1.78-.07-.26-.13,4.49-.18,3.89-.34,7-.51,3-.13,5.9-.2,8.68-.22Zm12.81,0c.09.02.3.03.46.04.13-.01.36-.03.36-.04,0-.02-.14-.03-.24-.04-.28.02-.61.04-.58.05Z"/><path d="m252.79.14c1.74,0,1.89-.05,1.83-.1h-1.63s-1.25,0-1.25,0c-3.13-.02-6.14-.05-9.46,0-1.35.02-3.31.03-4.93,0-1.77-.03-5.12-.02-5.69,0-6.01.14-11.82.12-17.59.1-2.12,0-3.45.06-5.19.07l-26.6.24c-.95,0-1.93,0-2.48.05-.13.12,2.35.11,4.43.06,1.85-.05,2.95-.05,4.33-.03.64-.05,1.89-.05,2.97-.07l1.04-.04c1.82.12,5.34.03,8.33.02,1.16,0,3.83-.08,3.05.06-.19.03,3.43-.05,3.53-.08.22-.07,1.19-.08,2.5-.08.32-.03.65-.04.99,0,1.79-.04,3.93-.1,3.18.04.48,0,.97,0,1.46,0,1.53-.06,3.1-.12,5.22-.07,1.76-.09,3.46-.21,5.71-.05h2.8c.61-.09,2.48-.07,3.99-.08,2.21-.01,1.83.05,1.98.09,2.56-.13,5.12-.1,7.67-.02.54-.04,1.03-.11,1.64-.11,1.72,0,.87.08,2.26.1.25-.1,2.96-.02,3.91-.07h1.99Z"/><path d="m205.87,4.79c1.37.01,2.88,0,4.92-.14-1.16-.01-2.3-.03-.93-.15,1.08-.09,1.91-.03,3.07-.09,1.53.06,2.4-.04,3.41-.14,1.15-.11,2.29-.16,3.07-.1,2.75-.12,2.33-.19,2.82-.28-.41-.06-2.64,0-3.72-.03-1.84,0-4.27.07-6.59.18-1.74.09-3.25.14-4.92.19-1.7.1.07.16-2.88.27-2.19.08-1.83-.01-2.17-.05l-1.94.08c.14.05.4.09.38.14-.02.03-.91.08-1.75.11-.73.03-1.28.03-.86-.01.62-.06,2.32-.15.52-.12-.45,0-2.03.13-3.09.19-.34.02-.51.06-1.2.05l1.22-.05c-.74-.11-3.17,0-5.72.13-.78.14,3.1.06,2.82.18,4.18-.21,4.14-.12,3.83,0,1.68-.08,3.06-.05,4.8-.15-.26-.11,1.6-.28,4.5-.37,4.02-.12-1.29.15.09.16.19,0,.22.01.33.02Z"/><path d="m6.86,4.52h1.58s3.06-.02,3.06-.02h1.13s-.06-.02-.09-.03c-.66-.01-.99-.03-.43-.05.08,0,.36,0,.45,0,.87.02-.05.04-.05.06,1.6,0,2.77,0,3.52-.06,1.18-.08,2.71-.08,3.93-.06,1.22.02,2.14.07,2.1.09-.24.12,2.29.12,4.12.16,2.31-.03,4.6-.06,6.94-.1,1.02-.01,3,.01,2.44-.06-.46-.06-2.61-.03-3.15-.05-1.68-.06-4.28.09-5.22-.05-1.28-.01-2.79-.02-2.99-.08-1.08,0-2.22,0-2.92-.04-2.36-.02-4.75-.03-7.09-.05-4.5,0-8.4,0-12.95,0v-.08c-.06,0-.18.06-.17.03.05.02.13.03.2.04l.43.03c.28.01.56.02.82.03.52.02.97.04,1.27.07-.07.04-.11.1-1.88.04l.83.13,4.12.06Z"/><path d="m267.07,2.36c-.6.02-.99,0-.39-.03,4.66-.32,2.37-.29.16-.27l-1.8.09.04.1h.22s-.21,0-.21,0c-1.63.04-5.18.28-4.91.12-2.71.13-5.17.11-8.18.33-.43.03-2.32.07-2.42.02l-2.86.1c-1.24.13-4.85.31-4.15.4.03,0-.62.04-.95.06-2.13-.12-3.01.17-4.68.2.01.01,0,.02,0,.03,4.9,0,6.05-.22,7.77-.4l.37-.02-.4.02c.49-.01,1.19-.03,1.77-.05.29,0,.55-.01.74-.02.19,0,.31,0,.32,0,.5.23,4.06-.07,6.95-.21,3.01-.14,6.49-.34,9.15-.36,1.31-.03,1.12.06,3.4-.06l.05-.07Z"/><path d="m111.78,7.41h1.8c4.38-.11,4.33,0,3.87.13,1.44,0,1.37-.06,2.07-.09-1.3-.12.84-.32,4.82-.45-.92-.06-.99-.14,0-.25-1.01-.06-1.85.03-2.72.08.58,0,.73.03-.06.05-1.08.04-.9,0-1.01-.03-2.32-.05-5.73.12-8.2.19-4.04.12-8.45.18-12.27.38l.03.05,2.8-.06c.88-.09,1.68-.08,2.48-.07l3.34-.02c.24-.05.44-.11,2.24-.15,1.21-.03,1.91-.01,2.48,0,1.35.05-.49.15-1.66.24Z"/><path d="m27.19,4.35c.94.14,3.54,0,5.22.05.54.02,2.69-.01,3.15.05.56.07-1.41.04-2.44.06-2.34.03-4.63.06-6.94.1l.84.06h1.13c3.12-.08,7.09,0,10.6-.01.84-.03.64-.07.22-.12-.71-.08.37-.11,2.63-.09l.04-.03s.71-.06,2.09-.05c.29,0,.56,0,.83,0-.28-.03-1.57-.08.1-.1l-.08-.04c-5.55-.06-11.08-.13-16.66-.1.89.08,2.54.16-.74.21Z"/><path d="m54.46,2.33c-1.15.03-1.05-.12-3.09.03-1.53.11-2.98.03-4.5.08-.43.14-2.5.16-4.67.15-1.84,0-3.36.05-4.75.12-1.44.08-2.07.14-.55.17,2.05-.04,3.93-.03,6.12-.1,6.84-.22,7.59-.24,13.08-.23.13,0,.39,0,.43,0,2.79-.18,7.04-.08,9.89-.24-.27-.05-.31-.12-2.23-.11-.07.04-.52.06-1.84.08-2.78.02-5.39.04-7.88.06Z"/><path d="m27.19,4.35c3.28-.05,1.64-.13.74-.21-2.16-.04-3.61-.12-6.7-.03-2.23.06-6.69-.02-10.26-.02-2.4-.01-4.86-.02-7.33-.04-.62-.01-1.23-.02-1.84-.05l-.45-.03c-.07,0-.15-.02-.19-.03h0s.11.06.11.13c0,.02.02.12-.03.18-.06.07-.07.06-.06.06h-.02s.08,0,.08,0c.28-.04.59-.07.89-.09,1.22-.08,2.44-.13,3.65-.17,2.12-.07,3.53-.12,3.29-.2-.23-.08-1.95-.02-3.87.07-1.33.07-2.67.11-3.98.26,4.55,0,8.45,0,12.95,0,2.34.02,4.73.03,7.09.05.57-.01,1.21-.04,1.7-.04,1.08,0,1.18.05,1.22.08.19.06,1.71.07,2.99.08Z"/><path d="m244.72,3.12c-1.72.18-2.87.4-7.77.4l-3.91.19c-1.04.06-2.12.13-1.85.17,1.84.02,4.23-.14,6.24-.22,7.67-.3,15.34-.56,23.06-.95,2.06-.11,2.35-.15,3.14-.23-2.66.02-6.14.22-9.15.36-2.89.14-6.45.44-6.95.21,0,0-.13,0-.32,0-.19,0-.45.01-.74.02-.57.02-1.26.03-1.74.05Z"/><path d="m120.69,1.75c.46-.05.85-.09,1.4-.14,1.87-.16,1.66-.12-2.27-.11-6.5.03-12.95.19-19.36.25-1.95.02-4.51.05-4.08.16,3.64.07,7.61,0,11.98-.14,2.82-.08,4.97-.09,4.43.05,2.84-.1,5.19-.03,7.89-.08Z"/><path d="m66.41,2.31c-2.85.16-7.1.06-9.89.24-.03,0-.29,0-.43,0-5.49,0-6.24,0-13.08.23-2.2.07-4.08.06-6.12.1.87.09,1.82.18,5.19.16l2.47-.12c.91-.09,2.31-.11,4.29-.14,2.42-.04,5.34-.09,7.43-.13,4.22-.06,7.97-.24,11.99-.24l-1.07-.12c-.27,0-.53,0-.79,0Z"/><path d="m17.06,3.54c1.26-.14,2.28-.27-2.78-.14-1.63.04-.61-.03-.48-.06,2.49-.14,5.24-.17,7.02-.17,4.52,0,5.54-.12,6.51-.26l.93-.03c2.97,0,7.85-.08,3.22.2-.84.05-.81.11-1.19.16-2.56.06-5.12.12-7.67.18-1.65.04-2.9.07-3.07.15l-2.85.07c.11-.03.07-.06.35-.09Zm8.16-.3c.1,0,.27,0,.51-.02-.14,0-.28,0-.51.02Z"/><path d="m26.41,9.93c-1.45-.07-6.55.22-6.54.07,0-.07,2.06-.22,2.93-.33.91-.12,4.83-.25,7.95-.32,1.4-.02,2.74-.05,4.14-.07,1.35-.03,3.01-.02,3.99-.1,1.05-.09-2.67.04-1.99-.05-4.59,0-10.29.31-15.05.33-1.5,0-1.16.1-2.37.15-1.16.07,4.07-.01-.23.14-1.44.15-5.22.32-4.64.45.89-.01,2.04-.03,2.62-.04,1.44.01,1.41.2,5.07-.07.04,0,1.32,0,2.14,0,2.39-.04,4.66-.11,6.66-.23-.69-.12-3.34.09-4.7.09Z"/><path d="m13.61,9.8c-1.19.03-2.05.03-2.67,0-1.55-.06-4.48-.04-6.77.09-2.05.11-3.9.27-4.13.39-.42.23,2.15.23,7.89.03,1.4-.05,3.15-.04,4.73-.06,1.74-.14,1.07-.21-.82-.21-1.91,0-3.65.09-5.01.2-.5.04-2.79.15-2.59.06.17-.08-1.15-.11-.32-.2.51-.06.76-.12,2.32-.17,1.61-.05,2.32-.03,2.5.02.2.05.44.08,2.23.03,1.74-.05,2.63-.11,2.62-.18Z"/><path d="m68.27,2.42c-4.02,0-7.78.18-11.99.24-2.09.04-5.01.09-7.43.13-1.98.03-3.38.05-4.29.14,3.39.1,8.46-.09,12.65-.16,6.25-.1,12.63-.29,18.72-.29l.5-.05c-.9-.04-4.08-.04.76-.15,1.58-.03,2.48-.11-.25-.08-2.87.07-4.97.25-8.66.22Z"/><path d="m273.7,1.52c.07.1,1.35.09,4.25-.2,1.07-.12,1.95-.2,2.76-.34.1-.02.2-.04.28-.06.03,0,.1-.08.02.03-.03.15.06.16.03.15,0,0-.02,0-.04-.02-.16-.05-.37-.08-.57-.11-.4-.05-.81-.1-1.24-.14-1.76-.17-4.77-.12-6.45-.26-4.18.02-8.74-.1-13.11-.11-1.49,0-2.34,0-3.02.04,4.02.1,8.36.13,13.04.17,2.98.04,6.02.07,9.26.27.35.03.71.06,1.09.09.18.02.37.04.56.06l.27.04.12.03h.03s-.01,0-.01,0c0,0-.08-.07-.08-.12-.02-.27.11-.24.08-.25.01,0-.01,0-.02,0l-.12.03-.28.06-.59.09c-.41.04-.82.09-1.23.14-1.67.16-3.41.29-5.05.39Z"/><path d="m84.44,7.89l2.1-.06h3.12c.44,0,.88-.01,1.33-.03l4.32-.19c-2.55-.11-7.62.09-11.27.19-7.24.22-14.56.44-21.84.66l-1.94.09c3.28.03,6.81-.05,10.64-.26,3.1-.12,6.38-.27,8.15-.15l1.41-.04,1-.04s-.06-.04-.1-.05c-.1,0-.2-.01-.31-.02h.69s2.7-.11,2.7-.11Z"/><path d="m62.47,4.48c2.77.05,5.54.11,8.34.12,2.22.03,4.34.07,5.98.16,1.49.02,2.24.04,2.99.05,3.55.07,7,.08,10.77.21,1.96.07,3.01,0,3.59-.06-10.68-.26-21.37-.45-32.06-.54l.39.06Z"/><path d="m13.79,3.34c2.49-.14,5.24-.17,7.02-.17,4.52,0,5.54-.12,6.51-.26-7.43.15-14.87.25-22.3.65-.9.04-1.63.07-2.32.1-.35.02-.68.04-1.02.06-.17.01-.34.03-.53.06-.05,0-.1.02-.18.04-.03.01-.07.03-.1.04-.03,0-.17.15-.15.27,0,.11.03.14.08.21.15.14.14.09.16.11l.07.02c.12.02.21.03.31.04,2.05.1,5.12.13,5.51.01l-4.12-.06-.85-.03-.43-.03c-.16-.02-.24,0-.5-.09-.06-.05-.12-.1-.11-.21,0-.06.05-.13.09-.16l.03-.02s.07-.03.09-.03l.12-.03.22-.03.43-.04.85-.06,3.38-.15,7.73-.27Z"/><path d="m135.88,6.33c-.1.05.54.13-2.57.01-1.93-.07-3.59-.11-3.26-.02,7.96.3,15.93.62,24.2.85l-.04-.04-.28-.04c-.15,0-.31-.01-.48-.02-1.38-.03-2.76-.06-3.16-.14-.25,0-.5-.02-.76-.02l-2.92-.13c-.44.04-1.43.02-2.99-.07-1.72-.07-3.51-.06-5.07-.16-.52-.04.26-.04,1.11-.03l.08-.02-.94-.09c-1.71-.11-1.87-.03-2.92-.07Z"/><path d="m28.26,2.87c2.97,0,7.85-.08,3.22.2-.84.05-.81.11-1.19.16,1.42-.02.95.03,1.03.05l1.9-.05c-.59-.06,1.86-.14,1.93-.21h-1.27c.1,0,.27,0,.28,0,.35,0,.69,0,1.03,0,1.69,0,.65.1,1.01.14,1.92.04,3.88.01,5.9-.12-3.37.02-4.32-.07-5.19-.16-1.53-.03-.89-.09.55-.17,1.39-.07,2.91-.13,4.75-.12,2.18,0,4.24-.01,4.67-.15-4.89.08-9.89.24-14.72.29-1.91.02-2.91.08-3.89.15Z"/><path d="m76.94,2.2c2.73-.03,1.83.05.25.08-4.84.1-1.66.11-.76.15.83-.08,2.34-.06,3.51-.08-.13-.04.76-.12,1.47-.11,3.53.03,6.04-.15,9.12-.19,1.64-.08,1.73-.04,1.86,0,1.67.03,2.08-.03,2.56-.08-.15,0-.4,0-.42,0-.69-.1-3.01-.07-5.54-.02-3.48.07-5.91-.02-9.53.06-.09,0-.45-.05-.69-.08h-5.78s-.23.09-.23.09c4.29-.06,4.54.04,4.18.17Z"/><path d="m129.1,1.17c1.99-.03,2.34.04,3.62.05.82,0,1.64.02,1.15.06-.38.04-1.24.05-2.03.06-.95.02-2.14.04-2.78.05-1.19.05-3.07.13-2.86.16.52.07,2.24-.03,3.44-.04.73,0,1.41,0,2.11,0,.92.04,1.75-.02,2.62-.04,1.46-.05,3.01-.11,2.58-.16-1.68-.2,2.84-.26,6.89-.33-.5-.04-2.6,0-2.77-.05-3.32.08-6.47.06-9.83.11-2.41.04-1.88.08-2.16.13Z"/><path d="m90.52,2.05c-3.08.04-5.58.21-9.12.19-.71,0-1.6.07-1.47.11,6.17-.1,12.31-.21,18.48-.31,3.09-.04,6.34-.07,9.41-.11,1.85-.01,3.36-.05,4.98-.09.54-.14-1.61-.14-4.43-.05-4.37.13-8.34.21-11.98.14-.48.02-.96.04-1.44.06-.48.05-.89.11-2.56.08h-1.86Z"/><path d="m13.79,3.34l-7.73.27-.07.07c1.05-.04,1.98-.06,1.82-.01-.16.05-1.23.09-2.19.13-.36.05-.38.09-.4.12,1.92-.1,3.64-.16,3.87-.07,2.47-.04,5.02-.12,7.62-.21.11-.03.07-.06.35-.09,1.26-.14,2.28-.27-2.78-.14-1.63.04-.61-.03-.48-.06Z"/><path d="m233.03,3.71l3.91-.19v-.03s-.21,0-.21,0h.2c1.67-.02,2.55-.31,4.68-.19.33-.02.99-.06.95-.06-.7-.1,2.91-.27,4.15-.4-.21-.03-1.08,0-1.86.04-1.02.1-2.65.14-4.1.2-1.07.02-1.73.19-2.3.11-.61-.08-2.38.05-3.37.07-1.7.13-2.47.12-3.05.08-1.01.02-2.22,0-2.84.12l-.43.07c1.19-.02,1.78.01,3.45-.05,1.14-.02.7.04.81.07,5.19-.13-.68.15.02.18Z"/><path d="m151.43,6.67c1.64.11,3.54.23,5.11.34,3.2.24,9.2.43,11.77.39-2.39-.1-5.04-.2-3.36-.24-4.58-.21-9.16-.41-13.51-.49Z"/><path d="m233.01,3.53c5.19-.13-.68.15.02.18-1.04.06-2.12.13-1.85.17-2.95.12-6.08.33-8.76.3-.13,0-.17,0-.13-.02,3.88-.25,4.19-.41,3.97-.56l2.49-.1c1.19-.02,1.78.01,3.45-.05-.11.04-.14.08.81.07Zm-3.09.23c.62,0,1.22-.06,1.02-.07-.4-.02,1.58-.17-1.4-.06-1.48.07-1.36.09-.28.08.2.02.19.05.67.05Z"/><path d="m261.54.09c.91,0,1.66.08,2.69.03,2.29-.11,2.5,0,3.24.06.68.02,1.55.04,2.02.05,1.83,0,3.55,0,4.88.11,1.1.1-.45.1-1.56.12-1.97.05-3.49-.01-5.09-.09-1-.05-2.67-.08-3.48-.05-2.79.08-4.03-.02-5.69-.07.99-.05,1.99-.11,2.98-.16Zm10.85.25s-.34,0-.36,0c-.04,0,.01.02.03.03h.76c-.13,0-.26-.02-.42-.03Z"/><path d="m117.11,5.91c-3.94-.1-8.07-.25-11.61-.23-.89,0-2.15-.06-3.03-.1-1.6-.07-2.69-.08-3.56-.05,3.32.18,7.34.23,11.11.3,4.88.1,9.45.33,14.37.4.71.01,1.59.04,1.92.02-1-.1-2.69-.17-4.65-.18-2.36-.01-3.47-.08-4.55-.17Z"/><path d="m13.61,9.8c.01.06-.88.12-2.62.18-1.79.05-2.03.02-2.23-.03-.19-.04-.89-.07-2.5-.02-1.55.05-1.8.11-2.32.17-.84.09.49.12.32.2-.2.09,2.1-.02,2.59-.06,1.35-.11,3.1-.2,5.01-.2,1.88,0,2.55.08.82.21.64,0,1.29,0,1.94-.05-.57-.13,3.2-.3,4.64-.45-1.03,0-1.96-.01-2.03-.06l-3.61.12Z"/><path d="m243,.21c-2.56-.08-5.12-.1-7.68.02-1.5.11-6.11.1-6.94.24l.34.11c1.68.03,3.21.01,4.6-.04.22-.02-.41-.05.61-.07l.31.06c.28,0,.59,0,.92,0,3.97-.03,3.17-.22,6.82-.26.82-.02,1.03-.04,1.01-.07Z"/><path d="m27.01,4.66l-.84-.06c-1.83-.04-4.36-.04-4.12-.16.04-.02-.88-.07-2.1-.09-1.22-.02-2.75-.02-3.93.06-.74.05-1.92.07-3.52.06.07,0,.1.02.13.03l-.07.1c4.77.05,9.48.13,14.46.06Z"/><path d="m72.7,5.1c.38-.08-1.73-.14-3.44-.18-3.69-.09-7.98-.19-11.22-.18-2.24.01-3.75,0-5.93-.02-1.32-.01-.59.06-.7.09,4.66.07,9.18.16,14.07.17,2.12,0,4.8.07,7.22.12Z"/><path d="m265.04,2.15l1.8-.09c.96-.1,2.28-.21,2.06-.26-4.85.2-10.04.51-14.95.62-1.98.04-2.59.2-4.37.31.1.05,1.99.01,2.42-.02,3.01-.22,5.48-.2,8.19-.33,1.74-.28,3.22-.11,4.86-.22Z"/><path d="m215.62.34c-.49,0-.98,0-1.46,0-.9.08-.87.08.66.09.67,0,1.57.02,1.72.04.51.07-2.21.07-2.65.12l2.05.05h3.2s6.48-.16,6.48-.16c-4.42-.08-4.33-.11.93-.26-2.25-.16-3.96-.04-5.71.05-1.72.03-2.57.21-5.22.07Z"/><path d="m143.85.98c-4.05.07-8.57.13-6.89.33.43.05-1.12.11-2.58.16.46.11,2.51-.01,3.75-.01.89-.12,1.46-.25,6.12-.22.77,0,2.01-.02,2.33-.06.33-.05-.63-.05-1.64-.04h-.44s.39,0,.39,0l-1.03-.15Z"/><path d="m222.42,4.19c-.13,0-.17,0-.12-.02-.43-.04-3.44.1-2.89,0-.79-.06-1.92,0-3.07.1-1.01.1-1.88.19-3.41.14-1.17.06-1.99,0-3.07.09-1.37.12-.23.14.93.15,3.94-.13,8.12-.18,11.63-.46Z"/><path d="m163.94,6.16c-1.33-.04-4.62.06-5.57-.04-.44-.05-4.6.18-6.86.3-.37.03-.61.04-.92.06l-.02.1c3.49-.02,6.74-.24,10.19-.3l2.54-.08c.33-.01.54-.02.63-.04Z"/><path d="m134.91,6.07c1.34.13,10.12.54,12.94.61,2.79.07,1.02-.07,1.58-.1-1.77-.05-3.55-.08-5.24-.2-.37-.02-1.6-.07-1.68-.08-2.26.02-5.11-.17-7.61-.23Z"/><path d="m26.41,9.93c1.35,0,4.01-.21,4.7-.09,1.39.02,2.76-.05,4.14-.11,2.29-.16,5.93-.21,8.62-.34-.54-.04-.48-.12-3.36.02-1.74.08-4.27.14-6.44.21l-1.2.08h-.38s1.51-.08,1.51-.08c-1.8.03,3.73-.35-2.85-.06-.23.06.64.11-1.96.2-.53.06-2.9.1-2.76.17Z"/><path d="m74.67,5.04c-.06.02.28.04-.55.03,5.9.11,12.11.34,17.22.24l-.14-.04-3.86-.07c-4.21-.05-8.43-.1-12.67-.15Z"/><path d="m43.86,9.39c-2.7.13-6.33.17-8.62.34.31.1,2.45-.05,3.55-.07,4.21-.08,8.56-.23,12.81-.38-.87-.17-5.04.06-7.74.1Z"/><path d="m113.62,7.5c-3.03.07-6.46.22-8.49.13-.78-.03-1.9.03-2.08.09-.13.04.11.08-1.17.14-.41.12,2.14.02,3.49-.01,3.04-.08,6.12-.16,9.18-.24-.25-.04.52-.11-.92-.1Z"/><path d="m129.14,6.69c2.12-.03,4.32-.05,5.83-.19.98-.09,1.56-.07,2.44-.07,2.95,0,5.87-.07,8.62-.25-2.75-.02-6.18.09-9.52.19-2.46.08-4.91.16-7.36.24l-.02.08Z"/><path d="m175.92,1.08c.68-.08,2.77-.2-2.1-.09-2.53.05-3.7,0-5-.04-.65-.02-.23-.11-2.24-.06-1.63.04-1.25.1-.95.14.29.05.45.09.67.14l9.62-.1Z"/><path d="m196.15,5.13c.32-.11.36-.21-3.83,0l-2.93.17-1.85.07c-.79.06-1.88.1-2.94.13l-1.1.12c-.09.07,1.21,0,2.23-.04,3.48-.15,6.94-.3,10.41-.46Z"/><path d="m215.94.65l-2.05-.05c-2.75.03-5.66.13-8,.02-.6-.03-2.35.03-2.24.05.48.04-3.32.1-.64.13,4.29-.06,8.96.03,12.93-.14Z"/><path d="m195.19,4.83c1.06-.07,2.64-.19,3.09-.19,1.8-.03.1.06-.52.12-.42.04.13.04.86.01.84-.03,1.73-.07,1.75-.11.03-.05-.24-.09-.38-.14-3.52.03-7.51.19-11.47.35l-.12.09s.06.02.04.03l1.06-.03c2.55-.13,4.97-.24,5.69-.13Z"/><path d="m241.99.28c-3.65.04-2.85.22-6.82.26,2.03.08,4.1.14,6.78,0,.3-.02.49-.07.91-.07,6.43-.06,1.7-.11.19-.16-.16.02.01.06-1.13.06l.23-.06c-.06-.01-.11-.02-.15-.03Z"/><path d="m154.65.8c.85.06,2.5.11,4.19.03,3.24-.16,9.1-.04,11.26-.26-5.25.04-10.4.12-15.45.23Z"/><path d="m74.99,1.94h5.75c-.01-.09,1.62-.11,3.22-.13,3.73.02,7.23-.05,10.52-.2-.32-.03-1.33-.05-2.02-.03-5.64.18-11.99.14-17.48.36Z"/><path d="m43.77,8.91c.19.11.85.18,4.57-.03,2.77-.15,6.27-.09,8.94-.28-4.03-.04-8.91.18-13.5.31Z"/><path d="m50.51,4.32c1.3.13,3.85.23,6.66.33-.55-.12.9-.19,2.83-.26-1.96-.08-3.73-.05-5.55-.05-.98.08-2.56,0-3.94-.02Z"/><path d="m85.63,8.35c-3.39-.05-10.44.16-14.67.43,4.18-.05,8.38-.23,12.57-.34.1-.07,1.13-.08,2.09-.08Z"/><path d="m280.9.74c.07.01.14.03.22.05.04.01.08.02.14.08.04.04.08.12.04.22-.03.05-.07.07-.09.08-.17.08-.28.09-.4.13-.23.04-.43.08-.6.11-.33.05-.52.09-.5.11.42-.04.83-.08,1.26-.17.05,0,.1-.01.16-.03.06-.03.1,0,.25-.13-.13.13-.16.11-.22.14l-.13.04-.24.05-.47.07-.77.05c-1.16.12-1.71.18-1.8.23.89-.07,1.74-.13,2.6-.23.22-.03.43-.06.66-.11.06-.01.12-.03.19-.05.04-.02.07-.03.14-.07.02,0,.1-.08.13-.15.03-.07.04-.16.03-.23-.01-.04-.04-.09-.07-.13-.2-.19-.23-.14-.31-.18-.06-.02-.12-.03-.18-.04-.45-.08-.87-.12-1.3-.16-1.71-.14-3.46-.2-5.43-.21.34.14,3.65.2,5.84.43.28.03.57.05.86.11Z"/><path d="m107.83,1.49c4.45-.06,8.88-.12,12.66-.28-1.5-.04-2.9-.04-5.13.05-2.83.12-6.34.1-9.46.17l.18.07c.57,0,1.16,0,1.75-.01Z"/><path d="m124.34,6.99c-3.98.13-6.12.33-4.82.45l3.89-.1c-.6-.06,2.28-.18,1.71-.24-1.13,0-.66-.07-.78-.11Z"/><path d="m225.63.49l-6.48.17c3.27.04,6.52.06,9.59-.07l-.34-.11-2.76.02Z"/><path d="m226.27,3.61l2.49-.1.43-.07c-3.63.11-7.32.19-10.68.42,1.08.02,3.31-.03,3.72.03.7-.04,1.29-.07,1.88-.11.15-.05.24-.11,2.16-.18Z"/><path d="m129.14,6.69l.02-.08-4.83.13c-.99.11-.91.19,0,.25,2.35-.06,1.8.02,1.85.07.37.02.91.03,1.82-.01,1.07-.05.43-.06.24-.08-.74-.07-2.14-.13.89-.29Z"/><path d="m267.07,2.36l-.05.07c3.3-.16,6.92-.25,9.71-.6-.5-.03.23-.2-3.43.16-1.59.15-4.35.2-6.23.36Z"/><path d="m72.75,2.03l.23-.1c-3.76,0-7.15.12-10.62.22l1.82.04c1.93,0,1.96.06,2.23.11.26,0,.52,0,.79,0,0-.13.58-.25,5.55-.27Z"/><path d="m30.29,3.23c-2.56.06-5.12.12-7.67.18-1.65.04-2.9.07-3.07.15,3.42,0,7.21-.18,10.77-.23,0-.03.01-.07-.03-.1Z"/><path d="m64.18,2.19l-1.82-.04c-2.77,0-5.64-.02-7.9.17,2.49-.02,5.09-.04,7.88-.06,1.32-.02,1.77-.03,1.84-.08Z"/><path d="m205.87,4.79c-.11,0-.14-.02-.33-.02-1.39,0,3.92-.28-.09-.16-2.9.09-4.76.26-4.5.37,1.7-.04,3.51-.05,4.93-.19Z"/><path d="m117.11,5.91c1.08.09,2.2.16,4.55.17,1.96.01,3.65.08,4.65.18.68.01,1.56.04,1.82.02-.56-.05-1.12-.1-1.69-.15-3.02-.12-6.02-.17-9.03-.25l-.3.03Z"/><path d="m164.94,7.16c-1.68.04.97.14,3.36.24,1.76.09,2.87.11,3.62.1l-.04-.07c-2.27-.09-4.54-.17-6.94-.26Z"/><path d="m38.74,4.65c-3.51,0-7.48-.07-10.6.02,3.52.09,7.05.02,10.58.05l.02-.07Z"/><path d="m190.64.93c-.52-.25-4.63,0-7,0,.15.05-.53.13,2.36.06,1.45-.02,3.09-.04,4.64-.06Z"/><path d="m201.94,4.45c.35.04-.01.13,2.17.05,2.95-.11,1.18-.17,2.88-.27-2.36-.01-3.38.15-5.06.22Z"/><path d="m95.31,7.61l-4.32.19c2.72-.06,2.89,0,3.28.07.23.04.87.05,2.17.02.48-.01,1.24-.05,1.39-.07.43-.06-.63-.04-1.46-.03-3,.02,2.4-.2-.21-.2-.27,0-.56.01-.86.02Z"/><path d="m170.15,7.72c-1.92-.04-4.52-.34-6.03-.23q.82.13,6.03.23Z"/><path d="m174.79,5.53c-2.55.04-2.39-.04-2.97-.1-2,.05-4.19.06-5.81.19l.06.04c1.43-.02,3.95-.12,4.18-.06.52.14,2.56.02,4.53-.07Z"/><path d="m180.72,5.15c-1.23.15,1.71.08,3.11.08l1.51-.12,1.19-.18c-2,.05-3.75.2-5.81.22Z"/><path d="m154.69,1.21v.1c1.81,0,3.63.01,5.63-.05-.02-.05.67-.13-2.03-.09-2.04.03-2.98.01-2.9-.06-.9.03-.62.07-.69.1Z"/><path d="m59.99,4.39c-1.92.06-3.38.14-2.83.26,1.99-.05,4.89-.07,5.3-.17l-.39-.06-2.09-.02Z"/><path d="m113.62,7.5c1.44,0,.67.07.92.1l2.9-.07c.45-.13.51-.24-3.87-.15l.05.11Z"/><path d="m106.08,1.5l-.18-.07c-1.88.02-3.49.07-4.86.14,1.2.21,3.15.06,5.04-.06Z"/><path d="m111.54,5.37s-.2.04-.01.06c.53.07-2.25.09.75.17,2.66.07.37-.08.75-.12.11-.01.99,0,1.52.01-.65-.06-1.23-.12-3.02-.13Z"/><path d="m50.51,4.32c1.38.02,2.96.1,3.94.02l-2.12-.04c-.8,0-1.49-.02-1.86-.05h-3.94s.82.04.82.04l3.16.03Z"/><path d="m230.91,10.79s.08-.01,0-.02c-.33-.05,1.11-.02-1.25-.17-.81-.05-2.33-.07-.79.06l2.03.13Z"/><path d="m35.15,3.03c-.06.07-2.52.15-1.93.21l2.97-.07c-.35-.05.68-.14-1.04-.14Z"/><path d="m17.22,9.68c.07.05,1,.06,2.03.06,4.29-.15-.94-.07.22-.14-.19,0-.43,0-.75.01l-1.29.04c-.27.01-.34.02-.22.02Z"/><path d="m165.31,6.09l-1.93.09c.86.05,3.21-.04,4.68-.04l.1-.07-.08-.07c-.52.01-.92.02-1.32.03-.15.04-.8.05-1.45.06Z"/><path d="m141.09.93c.16.06,2.27.01,2.9.05l1.54-.05-1.24-.03c-1.02,0-2.08,0-3.19.03Z"/><path d="m232.04,3.33c.58.04,1.35.05,3.05-.08-.82,0-1.15-.08-3.05.08Z"/><path d="m11.5,4.5l-3.06.03c-.14.09,1.55.08,3.05.07v-.09Z"/><path d="m240.76,3.07c1.45-.06,3.08-.11,4.1-.2-2.09.01-3.2.1-4.1.2Z"/><path d="m241.15,11.44c-.95-.08-2.06-.15-3.31-.21,1.06.07,1.69.19,3.31.21Z"/><path d="m47.35,4.3l-.82-.04-1.94-.02.08.04c.88.04,1.77.06,2.68.02Z"/><path d="m152.59,6.02s-.02.01-.13.02c.14,0,.28-.01.45-.02.09-.03.18-.06.27-.08l-.59.08Z"/><path d="m50.46,4.26c.37.03,1.06.04,1.86.05.02-.06-.61-.07-1.86-.05Z"/><path d="m120.54,6.85c.11.02-.07.07,1.01.03.79-.03.64-.05.06-.05l-1.07.02Z"/><path d="m168.16,6.06l-.1.07c1-.04,1.69-.08,2.01-.12l-1.9.05Z"/><path d="m163.31,6.2l-2.54.08c1.07.01,1.93-.01,2.54-.08Z"/><path d="m30.34,3.23l-.02.1c.64,0,.98-.02,1.01-.05-.09-.03.38-.08-.99-.05Z"/><path d="m234.25.54l-.31-.06c-1.02.02-.39.04-.61.07.31,0,.62,0,.92,0Z"/><path d="m85.63,8.35c-.96,0-1.99.01-2.09.08.88-.01,1.76-.03,2.09-.08Z"/><path d="m117.42,5.88c3.01.08,6,.13,9.03.25,1.05.03,1.51.02,1.6,0l.13-.09c-1.67-.06-2.22-.1-1.62-.13.28-.01.67-.03-.43-.07-.32,0-.83-.02-1.26-.03-.43,0-.77,0-.77,0,.2.14-4.22.01-5.94.04-.35,0-.5.02-.74.03Z"/><path d="m180.37,8.1c2.05.12,4.1.24,6.1.27-3.44-.16-.62-.14-3.04-.27l-3.87-.22c.49.08,2.55.23.82.22Z"/><path d="m76.79,4.75c-1.64-.08-3.76-.13-5.98-.16.07.04-.24.08.3.11.72.05-2.19.06.45.1,1.83.03,1.47-.03,1.27-.08-.09-.02-.1-.09,1.09,0,2.18.16,1.72-.02,2.87.02Z"/><path d="m146.6,6.78l2.92.13c.38-.02,2.88.04.68-.07-2.33-.12-3.12-.09-3.59-.06Z"/><path d="m139.66,6.51c-.85-.01-1.63,0-1.11.03,1.56.11,3.35.1,5.07.16-.15-.09-2.4-.14-3.95-.2Z"/><path d="m87.34,5.19l3.86.07c-.21-.06-1.43-.11-2.97-.14-1.19-.02-.8.04-.89.06Z"/><path d="m44.56,4.37c-.27,0-.54,0-.83,0l-.11.06c1.18,0,2.61.03,3.14-.02l-2.2-.04Z"/><path d="m150.28,6.93c.4.08,1.77.11,3.16.14l-.1-.06c-1.03-.03-2.05-.05-3.06-.08Z"/><path d="m131.62,6.02c-.21-.01-.41-.02-.61-.03h-.55c.25.02.55.03.74.04.19,0,.28,0,.42,0Z"/><path d="m79.78,4.8l-2.25-.04c.28.02.49.06.87.07,1.09.03,1.08-.01,1.38-.03Z"/><path d="m138.79,6.4l.94.09c1.47,0,.32-.04-.94-.09Z"/><path d="m153.34,7.01c.52.02,1.29.05,1.28.02,0,0-.38-.03-.57-.04-.89-.03-.64,0-.71.01Z"/><path d="m128.18,6.03l-.13.09c1.25,0,1.36-.02.13-.09Z"/><path d="m101.71,5.28s.17.02.31.02c-.02-.01-.17-.02-.31-.02Z"/><path d="m41.64,4.41l-.04.03,2-.02c-.64,0-1.3,0-1.96-.01Z"/><path d="m135.85,6.33l-.22-.02c.08,0,.16.01.22.02Z"/><path d="m153.92,7.09l.28.04c.84.01.67,0-.28-.04Z"/><path d="m111.78,7.41c1.18-.09,3.01-.19,1.66-.24-.58-.02-1.27-.03-2.48,0-1.8.04-2,.1-2.24.15.94.03,1.4.07.6.16-.36.04-.27.07.78.04,1.28-.03,1.47-.07,1.67-.11Z"/><path d="m29.17,9.76c2.6-.08,1.73-.13,1.96-.2-.96.02-2.32.08-2.46.02-.07-.03-1.01-.05-1.86-.01-.88.04-1.68.1-1.99.15-.51.07,1.18,0,1.7,0,1.03.02,1.78.03,2.65.04Z"/><path d="m79.04,8.13c-1.77-.12-5.05.03-8.15.15,2.27.03,4.84,0,8.15-.15Z"/><path d="m81.45,8.06l-1,.04c-.17.01-.27.03-.51.04-1.86.09-3.1.18-1.18.2.5,0,1.89-.01,1.65-.04-.56-.07,5.57-.27,1.05-.24Z"/><path d="m102.9,7.41l-2.8.06s-2.37.18.12.14c1.84-.03,3.12-.13,2.68-.2Z"/><path d="m89.66,7.84h-3.12c.08.03-1.6.12-.17.12,1.14,0,2.37-.05,3.29-.12Z"/><path d="m35.14,9.41c.57,0,.91,0,1.24,0,.36-.02.71-.04,1.06-.05-.3,0-.58,0-.91,0-.34.02-.74.03-1.39.06Z"/><path d="m84.44,7.89l-2.7.1c-.13,0-.26.02-.39.02l.12.03c1.21-.05,2.99-.08,2.96-.16Z"/><path d="m105.38,7.34c-.8,0-1.6-.02-2.41.07l2.41-.07Z"/><path d="m41,9.07c.28,0,.41,0,.55-.02-.1,0-.2,0-.55.02Z"/><path d="m191.54.44c-1.08.02-2.33.02-2.97.07-.48.11-3.76.07-5.06.14-.49.03-2.15-.06-2.88.03-.45.05,1.18.07,2.18.1,1.02.03,1.82.03,3.24-.03,1.78-.07,3.84-.12,5.44-.03.96.06,2.68,0,3.69-.04,1.77-.06.34-.07-.69-.09-1.63-.03-3.24-.07-2.93-.15Z"/><path d="m154.69,1.21c.08-.03-.2-.06.69-.1.22-.04,2.61-.08,1.43-.12-.41-.02-1.36-.03-1.98-.02-2.08.03-.7.08-1.15.12-.25.02-.44.05-.83.07-.75.04-2.94.09-2.11.12.95.04,2.52-.06,3.95-.07Z"/><path d="m161.77,1c.21,0,.4,0,.6.01l.56-.04c-.25,0-.54,0-.74,0-.18,0-.28.02-.42.03Z"/><path d="m209.99.32h.97c-.31,0-.65,0-.97,0Z"/><path d="m216.44,9.67c.2.03.25.06,1.56.12-.18-.03-.8-.07-1.56-.12Z"/><path d="m252.79.14h-1.99s.43.1-.18.12c-1.08.03-2.04.05-1.68.1.18.03.77.01,1,0,.86-.05,3.73-.03,2.97-.12-.25-.03-.09-.07-.12-.1Z"/><path d="m258.56.25c-.61-.03-.65-.08-2.04-.09-.2,0-.68.02-.63.03.27.06,1.62.05,2.67.05Z"/><path d="m280.9.74c-.29-.05-.58-.08-.86-.11,0,.04-.19,0,.94.18l-.08-.07Z"/><path d="m242.14.31l-.23.06c1.15,0,.98-.03,1.13-.06h-.91Z"/><path d="m246.89.2l.34.04c.94-.03-.02-.03-.34-.04Z"/><path d="m183.42,8.1c2.42.13-.4.11,3.04.27,1.25.06,2.14.08,2.79.09,1.39.01,3.09.05.51-.14-4.06-.28-4.24-.15-6.35-.22Z"/><path d="m199.74,8.79c-1.4-.06-3.63-.22-3.52-.14.04.03.6.1,2.19.17,1.54.06,3.79.14,3.88.12.17-.05-1.83-.09-2.55-.14Z"/><path d="m198.2,8.91c1.09.08,1.77.15,2.57.19,1,.05,2.79.14,2.86.1.04-.02-.61-.08-1.68-.13-1.15-.05-2.27-.09-3.75-.16Z"/><path d="m211.56,9.4c.13.02.13.05,1.15.1.32.02.49,0,.73,0l-1.88-.1Z"/><path d="m194.35,8.62c.32,0,.12,0-.07-.01h.07Z"/><path d="m209.71,9.28l.44.02.44.02c-.29-.03-.59-.04-.88-.05Z"/><path d="m148.6,6.22c.21.05,1.21.04,2.63-.01,1.8-.07,1.09-.11,1.26-.16-1.75.04-1.81.15-3.88.18Z"/><path d="m126.19,7.07c-.05-.05.5-.13-1.88-.07.15.04-.33.1.81.11l1.08-.03Z"/><path d="m148.59,6.22h-.22c.08,0,.15,0,.22,0Z"/><path d="m107.83,1.49h-1.77c.31.03-.59.1.83.08.81-.01,1-.05.94-.08Z"/><path d="m83.96,1.81c-1.59.02-3.23.04-3.22.12,1.19-.04,2.51-.07,3.22-.12Z"/><path d="m174.79,5.53c-1.97.09-4.01.21-4.53.07-.23-.06-2.75.04-4.18.06.79.06,1.41.12,2.4.17,2.11.1,5.96.02,9.1-.21.39-.03.59-.06,1.07-.09,1.79-.1,1.91-.22.12-.2q-.74,0-1.17.1c-.2.04-.14.09-1.49.13-.41.01-.88-.02-1.32-.03Z"/><path d="m189.5,4.96l-1.06.03c-1.86.19,1.04.2.95.32l2.93-.17c.27-.12-3.6-.04-2.82-.18Z"/><path d="m184.6,5.51c1.06-.04,2.16-.07,2.94-.13-.03,0,0-.01-.1-.01-1.31,0-1.07-.12-2.68-.04-2.37.11.28.11-.17.18Z"/><path d="m179.41,5.59c-.28.02-.61.04-.58.05.09.02.3.03.46.04.13-.01.36-.03.36-.04,0-.02-.14-.03-.24-.04Z"/><path d="m165.31,6.09c.64,0,1.3-.02,1.45-.06-.61.01-1.47,0-1.45.06Z"/><path d="m168.08,6l.4-.03c-.18,0-.35.02-.4.03Z"/><path d="m225.63.49l2.76-.02c.82-.13,5.44-.13,6.94-.24-.15-.04.24-.1-1.98-.09.94.06-.67.1-1.69.12-1.24.03-1.84-.02-2.3-.05h-2.8c-5.26.17-5.35.19-.93.27Z"/><path d="m229.36.22c.47.03,1.06.08,2.3.05,1.02-.02,2.63-.06,1.69-.12-1.51,0-3.39-.01-3.99.07Z"/><path d="m215.62.34c2.65.15,3.5-.04,5.22-.07-2.12-.05-3.69,0-5.22.07Z"/><path d="m209.97.32h1c-.33-.04-.67-.04-1,0Z"/><path d="m226.27,3.61c-1.92.07-2.01.12-2.16.18.29.06-.71.08-1.77.1-.6.09-.17.16-2.92.28-.56.11,2.45-.03,2.88,0,3.88-.25,4.19-.41,3.97-.56Z"/><path d="m195.21,4.83l-1.22.05c.69,0,.86-.03,1.22-.05Z"/><path d="m5.29,3.81c.46-.05.59-.09.72-.13-.98.05-1.96.09-2.94.14-.49.03-.98.06-1.47.11l-.37.04c-.07.01-.12.01-.21.05-.01.01-.01-.01-.06.06-.03.07-.01.1.01.13.08.07.06.03.09.05.04.01.07.01.1.02.25.03.5.04.74.05,1.77.06,1.8,0,1.88-.04-.52-.01-1.11-.03-1.64-.04-.26-.01-.52-.03-.74-.05-.11-.01-.22-.02-.31-.05-.07-.02-.04-.02,0-.03.04,0,.08-.01.12-.02,1.34-.17,2.7-.22,4.05-.3Z"/><path d="m1.91,4.34c-.25-.01-.49-.02-.74-.05-.04,0-.06,0-.1-.02-.03-.02-.01.02-.09-.05-.03-.03-.05-.06-.01-.13.05-.07.05-.04.06-.06.09-.04.14-.04.21-.05l.37-.04c.49-.05.98-.08,1.46-.11l2.93-.14.07-.07-3.38.15-.85.06-.43.04-.22.03-.12.03s-.05.01-.09.03l-.03.02s-.09.09-.09.16c0,.11.05.16.11.21.26.09.34.06.5.09l.43.03.85.03-.83-.13Z"/><path d="m5.29,3.81c-1.35.08-2.71.13-4.06.3v.08c1.31-.16,2.66-.19,3.98-.26l.07-.11Z"/><path d="m24.2,4.27s-.14-.07-1.22-.08c-.49,0-1.13.03-1.7.04.69.04,1.84.04,2.92.04Z"/><path d="m1.23,4.1s-.08,0-.12.02c-.05.01-.07.01,0,.03.09.02.2.04.31.05.22.02.47.04.74.05.53.01,1.11.03,1.64.04-.3-.03-.75-.05-1.27-.07-.26-.01-.54-.02-.82-.03l-.43-.03c-.07,0-.15-.02-.2-.04-.02.03.1-.03.16-.02Z"/><path d="m12.5,4.47s.92-.04.05-.06c-.09,0-.37,0-.45,0-.56.02-.23.04.39.05Z"/><path d="m265.04,2.15c-1.64.1-3.12-.06-4.86.22-.27.16,3.28-.08,4.91-.12-.03-.03-.04-.06-.05-.1Z"/><path d="m244.69,3.12l.4-.02c-.12,0-.25.01-.4.02Z"/><path d="m265.09,2.25h.21c-.08,0-.15,0-.21,0Z"/><path d="m41.64,4.41l1.98.02.11-.06c-1.39-.02-2.06,0-2.09.05Z"/><path d="m72.75,2.03c-4.97.02-5.54.14-5.55.27l1.07.12c3.69.03,5.79-.15,8.67-.22.35-.12.1-.22-4.18-.17Z"/><path d="m25.72,3.22h-.42s.18.02.42,0Z"/><path d="m81.74,7.99h-.69c.1.01.21.02.31.02.13,0,.26-.02.39-.02Z"/><path d="m35.18,3.02c-.34,0-.68,0-1.03,0,0,0-.18.01-.28.02.42,0,.85,0,1.3-.01Z"/><path d="m90.52,2.05h1.86c-.13-.04-.22-.08-1.86,0Z"/><path d="m6,3.68l-.38.11c.96-.04,2.03-.08,2.19-.13.16-.05-.77-.03-1.81.01Z"/><path d="m232.21,3.47c-.11.04-.14.08.81.07-.1-.03.33-.09-.81-.07Z"/><path d="m236.94,3.49h-.2c.07,0,.14,0,.2,0Z"/><path d="m229.26,3.71c.2.02.19.05.67.05.62,0,1.22-.06,1.02-.07-.4-.02,1.58-.17-1.4-.06l-.28.08Z"/><path d="m229.26,3.71l.28-.08c-1.48.07-1.36.09-.28.08Z"/><path d="m272.81.37c-.14,0-.26-.02-.42-.03-.02,0-.34,0-.36,0-.04,0,.01.02.03.03h.76Z"/><path d="m144.89,1.13h-.39c.15,0,.29,0,.39,0Z"/><path d="m33.99,9.62l-1.51.07h.38c.4-.02.8-.05,1.13-.07Z"/><path d="m280.32,1.48l.47-.07.24-.05.13-.04c.06-.03.09,0,.22-.14-.15.14-.19.11-.25.13-.06.01-.11.02-.16.03-.22.06-.44.1-.66.14Z"/><path d="m280.97,1.34c-.43.09-.84.12-1.26.17.09,0,.35,0,.6-.03.22-.04.43-.08.66-.14Z"/><path d="m222.34,3.89c1.07-.02,2.07-.04,1.77-.1l-1.77.1Z"/>
                  </g>
                </mask>
              </defs>
              <path class="mask" d="m0,10.41c43.37-.86,104.16-2.31,177.02-4.88,61.35-2.16,104.36-3.68,104.16-4.54C280.67-1.22.8,2.87,1.04,4.13c.13.7,86.63-1.24,212.11,5.42,21.06,1.12,39.14,2.26,53.19,3.21"
                    mask="url(#path-mask)" stroke="black" stroke-width="2" fill="none"
                    stroke-dasharray="827.1397094726562" stroke-dashoffset="827.1397094726562">
              </path>
            </svg>
        