
            <svg xmlns="http://www.w3.org/2000/svg">
              <defs>
                <mask id="path-mask">
                  <g fill="white">
                    <path d="m91.15,8.77c-2.35-.01-.86.11-1.33.16l-1.69-.07c-1.38-.08-2.98-.18-4.31-.26-2.7-.2-7.76-.22-9.92-.08-1.48-.04-2.42-.02-3.05.02-1.97-.07-4.91,0-6.43-.13-.42-.08-2.15-.16-.7-.23,1.05-.05,2.19-.06,3.87,0,1.39.06,2.65.06,3.44,0l1.31.02c1.62-.02,3.82.23,5.08.05.51.01,1.44.03,1.46.03,1.28-.16,4.28-.03,6.87.04l.04.05c-.71,0-.57.02.24.04.13,0,.26,0,.41,0l.08.07c-.44,0-1.09-.03-1.08,0,0,0,.32.03.48.03.75.01.54-.02.62-.03l2.57.02c.21,0,.42,0,.64.01-.32.03-2.42.02-.57.11,1.96.09,2.63.04,3.03-.02.37-.06,1.21-.06,2.52.02.12.1,2.02.11,3.33.16l-.06.03c-1.24.02-.27.06.79.09,1.44.1,1.57,0,2.48.03l.18.02-.21-.02c.09-.06-.45-.15,2.17-.05,1.63.06,3.03.08,2.75-.02l1.62.04,1.42.16c-.88-.02-1.27-.01-1.34.02-1.06,0-1.15.04-.12.11,1.4.05,1.87.1,1.36.14-.24.02-.57.05.36.08.27,0,.7.01,1.06.02.36,0,.65,0,.65,0-.17-.16,3.55-.05,5-.09.3,0,.42-.03.62-.04l.26-.04c3.32.11,6.79.29,9.78.29.75,0,1.81.08,2.55.13,1.35.09,2.26.12,3,.09l6.38.34.11.05c.17.07,1.2.15,2.5.2,1,.04.68-.02.75-.05,3.55.16,7.1.32,10.82.48l-.15-.02s-.24-.06.47-.02c.2-.01.28-.04,1.19.01-.32.08,1.45.2,2.89.3,3.11.22,6.71.5,9.44.62,1.89.09,3.16.17,4.99.31,1.11.09.5-.03.59-.06,3.56.28,7.11.54,10.67.99l-.03.07c-.71-.05-.54.01-.2.1.58.17-.32.06-2.22-.14l-1.68-.13c-1-.09-2.21-.21-2.66-.19l1.84.18c.23.06,1.31.19-.1.1-.73-.11-1.48-.18-2.25-.2l-2.65-.21c-1.08-.21-3.22-.45-5.58-.69-1.67-.03-4.12-.13-4.47-.03-2.33-.16-4.66-.33-7.02-.42-.05-.04.21-.08-.24-.14-.6-.07,1.85,0-.37-.13-1.54-.09-1.24-.01-1.08.05.08.03.08.1-.92-.02-1.83-.23-1.45-.03-3.04-.13-.24-.03-.41-.08-.73-.09-.92-.06-.91-.01-1.16,0-2.98-.16-5.89-.24-9.06-.45-1.65-.11-2.53-.04-3.03.02l-14.65-.6s.17-.04.01-.07c-.45-.08,1.9-.1-.63-.2-2.24-.08-.31.09-.64.13-.09.01-.84,0-1.28-.01-4.13-.06-8.59-.22-12.88-.36-1.25-.04-3.28,0-4.27-.14-1.13-.14-8.53-.47-10.91-.47Zm14.19.52l.47-.02c-.21,0-.46-.02-.62-.03-.16,0-.24,0-.35.01.18.01.34.02.51.03Zm24.35.73c.09,0,.22.01.33.02-.02-.02-.14-.02-.33-.02Z"/><path d="m73.62,2.03c-5.47.23-10.88.27-16.31.45-.73-.18-4.24.1-6.51.18-.46-.03-.41-.13-2.83.07-1.47.14-3.58.33-5.46.5-1.51.13,3.1-.59-2.4.11-.81.09-1.94.25-2.06.19-.06-.03-.85.03-1.57.13-.73.11-1.4.24-1.65.32-.42.12.98-.11,1.43-.14.87-.08,1.5-.12,2.22-.16-.44.09-2.42.34-2.3.4-1.23.03-5.45.83-5.47.69-.01-.08,1.69-.43,2.41-.64.74-.21,4.02-.71,6.64-.98,1.18-.13,2.3-.21,3.48-.32,1.14-.1,2.53-.17,3.36-.29.88-.14-2.25.15-1.68.03,1.8-.22,3.69-.39,5.79-.42.17.11.72.18,3.85-.07,1.17-.09,2.49-.13,3.8-.17,1.31-.03,2.61-.04,3.73-.14l.87-.03h1.64c2.77.06,5.74-.02,8.96-.23,1.92.04,4.08.01,6.86-.15l1.18-.05c-.14.02-.23.03-.43.05-1.57.1-2.61.18-.99.21.42,0,1.59-.01,1.39-.04-.47-.07,4.69-.29.9-.27,1.02-.05,2.52-.09,2.49-.17l1.77-.06c.06.04-1.35.14-.14.13.96,0,1.99-.07,2.77-.13l1.12-.04c2.3-.08,2.44,0,2.77.06.19.04.73.05,1.83,0,.41-.02,1.05-.06,1.17-.08.36-.06-.53-.04-1.23-.03-2.53.04,2.02-.23-.18-.21.54-.1,1.96-.15,3.29-.2l.02.05c-.02.05-1.99.2.1.14,1.55-.04,2.63-.15,2.31-.22l2.03-.08,2.81-.03c.79.03,1.18.08.51.17-.31.04-.23.07.66.04,1.08-.03,1.24-.07,1.41-.11h1.51s.04.11.04.11c-2.56.05-5.44.21-7.15.13-.65-.03-1.6.04-1.75.1-.11.05.09.08-.99.15-4.43.28-8.99.47-13.68.58-2.86-.04-8.8.18-12.36.45Zm-29.12.85c.3-.04.59-.07.89-.11-.25.01-.48.01-.76.04-.29.03-.62.07-1.17.13.48-.03.77-.05,1.04-.06Z"/><path d="m10.04,18.06c2.13.06,3.12.14,4.21.23.55.04.19.13,1.89.12,1.37,0,1.06-.07.8-.13-.25-.06-.38-.11-.56-.17l5.03.03c.02.06-.57.13,1.71.13,1.72,0,2.51.02,2.45.1-.19.05-2.2.06-1.21.12.35.02,1.14.05,1.67.04,1.76-.02.59-.08.97-.12.21-.02.38-.05.7-.07.63-.04,2.47-.07,1.78-.11-.8-.05-2.12.04-3.33.04v-.11c4.77-.03,9.39-.06,13.96-.09-.75.13-1.23.27-5.16.23-.65,0-1.7.01-1.96.06-.28.05.53.06,1.42.05.29.06.58.11.76.18l-1.3.05,1.05.04c-3.1.11-6.01.12-8.74.03-.71-.07-2.1-.15-3.53-.08-2.73.14-7.67-.13-9.5.03-2.66-.13-5.46-.19-8.19-.44.12-.14-1.96-.26-3.71-.69-.2-.05-.38-.12-.56-.19-.17-.09-.37-.17-.51-.42-.08-.13-.07-.29-.03-.43.05-.1.12-.21.18-.27.13-.14.26-.22.39-.31.52-.32,1.02-.5,1.58-.69-.17.14-.93.37-1.7.89-.1.06-.19.16-.27.25-.07.1-.17.28-.1.44.13.32.39.38.58.48.41.16.79.23,1.06.27.41.08,1.79.38,2.41.36.38-.01-.98-.19-1.8-.38-.42-.09-.79-.18-1.2-.3-.2-.06-.41-.13-.62-.24-.21-.09-.41-.36-.15-.59.53-.52,1.33-.81,2.06-1.1.74-.27,1.49-.47,2.15-.6.79-.16,2.18-.57,3-.8,1.44-.39.26-.14-.59.03-1.34.28-2.67.61-2.44.45l.84-.27c1.52-.27,4.4-1,6.87-1.49.96-.2,3.16-.67,2.54-.41-.15.06,2.84-.56,2.92-.6.17-.11.97-.25,2.06-.44l.8-.14c1.5-.29,3.27-.62,2.68-.38-.74.21-.72.2.56.02.56-.08,1.31-.18,1.44-.17.44,0-1.83.35-2.18.46-2.29.39-4.68.89-6.64,1.12-.5.06-1.94.39-1.85.38.41-.03-2.73.62-.51.23-.09.05-.33.11-1.24.29-2.96.59-5.95,1.18-8.88,2.12-.24-.06-1.19.19-2.26.65-.27.12-.54.25-.79.4-.24.14-.53.37-.53.52,0,.12.31.29.56.36.26.09.52.16.76.21,2.25.44,3.99.41,6.44.59-.58.03-2.34.07,1.76.21Zm9.64.33l-.48.03c.21,0,.45.01.63.02.15,0,.23-.01.35-.02-.18,0-.34-.01-.5-.02Z"/><path d="m12.86,14.1c-2.74,1.02-6.05,2.65-7.87,4.75-.85.82-1.91,2.04-2.28,3.66-.19.8-.11,1.69.22,2.44.31.76.84,1.38,1.37,1.86.62.55.9.7,1.41,1,.79.44,1.33.58,1.43.58.1-.02-.25-.16-1.1-.64-1.76-1.06-2.05-1.72-2.32-2.12-.12-.23-.31-.56-.46-1.07-.15-.51-.27-1.2-.08-2.13.02-.21.3-.94.48-1.23,1.71-2.85,4.54-4.68,7.52-6,3.48-1.52,7.21-2.38,10.94-3.11,3.74-.71,7.52-1.2,11.31-1.6l-.02-.06c-.64.07-1.16.12-1.31.11-1.12.14-2.47.31-3.4.43-2.23.31-4.97.76-6.73,1.04-.53.07-2.71.44-4.91,1.01-1.11.25-2.21.61-3.13.89-.92.31-1.64.6-2.01.74-.25.09-.49.21-.45.21.38-.08-.97.49-1.59.75-.73.34-1.16.58-1.78.89-.36.17-1.34.95-1.26.84.06-.04.59-.54,1.43-1.01,1.7-1.11,4.4-2.06,4.6-2.25Z"/><path d="m73.67,4.99c-1.99.15-4.35.29-5.65.49.57-.03,1.31-.05,1.7-.09,1.53-.14,2.98-.27,4.11-.25.93.02-.37.14-1.3.25-1.65.2-2.93.24-4.28.28-.84.02-2.25.11-2.93.19-2.33.29-3.38.28-4.78.34-.89.07-2.02.19-2.25.15-.05,0,.36-.07.52-.09,1.17-.1,1.21-.05,1.72-.06l2.49-.4c-1.66-.02-3.8.26-5.81.48.06.05-.07.11-1.53.25.03.03-.1.08.11.1.65.04-1.76.26-2.47.38-.2.03-.69.09-.84.08-.31-.03.5-.13,1.4-.25.51-.07.12-.1.14-.15-.8.13-3.08.28-3.29.41.29-.02,1.1-.09.32.02l-.29-.02c-1.16.1-.46-.07-1.9.09-.51.06-.91.17-1.36.26.02.03-.15.08-.84.17.04,0,.08.01.13.02l.76-.08c1.27-.08,5.24-.44-.14.19-.35.04-.51.11-.76.16,2.32-.26,4.74-.57,6.86-.67.26-.01,3.37-.41,5.45-.59.57-.1,1.28-.16,2.53-.28,3.67-.33,7.51-.52,11.01-.85,1.42.02,3.94-.26,5.43-.28,1.46-.02,2.63-.06,4.44-.2,2.46-.19,3.53-.17,3.59-.06l4.06-.15c-.19-.07.93-.15,1.74-.22-1.86-.04-3.79-.08.14-.28.5-.03.17-.05-.33-.05-1.59.12-3.91.09-5.25.21-3.08.27-2.47.1-2.89.05l-.86.04c-.08.05-.54.09-1.52.14-.11.06-.77.11-1.72.16l.07.06c-.94.05-.79,0-.79-.02-1.85.03-4.63.19-4.93.08Z"/><path d="m58.57,8.2c-1.06.04-1.8.1-2.35.15-1.16.12-2.59.27-.41.22,3.42-.05,3.57-.22,5.35-.24l3.27.08c1.52.13,4.46.06,6.43.13l.04.08c-1.89-.04-4.08.03-5.5-.05-1.78-.1-3.64-.11-5.72-.09-8.19.34-16.42,1.11-24.65,1.84-.15-.02-.14-.05.88-.18l1.58-.15.82-.05c.25,0,.5-.03.74-.07,5.2-.48,5.92-.57,3.93-.53-.06,0-.08,0-.12,0-4.59.49-5.83.33-10.32.86-1.86.22-4.34.54-4.85.52,1.22-.18,2.59-.42,3-.43.78-.02,2.06-.19,3.31-.33,4.47-.45,8.82-.82,13.42-1.22,3.27-.27,6.6-.51,9.95-.66,1.67-.09,3.38-.09,5.05-.06,1.68.01,3.36.03,5.04.04,1.34,0,3.46,0,3.56.11-.79.06-2.05.05-3.44,0-1.68-.07-2.82-.05-3.87,0-1.73-.03-3.46-.13-5.15.01Zm-8.2.69s-.51-.05-1.85.07c-1.29.12-3.18.31-3.25.36-.14.08,1.54-.13,2.14-.16,1.18-.1,3.06-.18,2.95-.27Zm-3.85.03c-.84.07-2.35.19-2.4.26-.03.03.52.02,1.42-.06.96-.09,1.9-.17,3.15-.29-.92.04-1.5.04-2.17.09Zm4.99-.16l.49-.03h-.06c-.37.02-.39.02-.43.03Z"/><path d="m117.79.66c2.03-.01,3.62.04,5.91.17,3.32.19,7.47.43,11.24.76,1.89.16,3.9.41,5.67.54l.03-.1c-.41-.09-1.47-.29-.2-.17,3.77.37,3.29.13,5.91.37-1.39-.18-2.62-.31-3.71-.4-.14-.01-.26-.02-.36-.03-.15.03.44.16-1.07.02-1.19-.11-2.03-.22-2.19-.3l-.19-.03.18.03c1.75.22,1.81.11,3.26.28.09,0,.13,0,.11,0-1.65-.3-3.68-.41-5.5-.6-2.33-.11-4.77-.32-7.25-.59-.74-.08-1.22-.15-2.06-.13-1.28.01-3.13-.11-4.92-.22-2.56,0-1.38.14-.77.25.16.03.69.08-.2.07-.77,0-1.21-.05-1.53-.09l-.91-.02c.48.09-1.95.1-1.45.18Z"/><path d="m71.35,17.75c1.62.01,3.3,0,5.52-.11,2.77-.19,5.72-.31,8.86-.32.59-.06,1.71-.12,2.71-.18l1.67-.04c-.2-.03-.51-.08-.58-.07-3.04.16-5.09.08-8.03.19-2.13.08-4.09.14-4.67.04-.02,0-.23,0-.35,0-.4.03-.81.05-1.21.08.36.12-1.79.17-3.44.22-5.4.13-10.83.36-16.31.43-3.3.04-3.49.08-1.91-.1.47-.06.79-.11,1.18-.16-3.14.11-6.79.12-9.32.31.59,0,1.17,0,1.78,0,1.01-.02,2.46-.13,2.9-.06.18.03-1.4.13-2.41.18-.53.03-1.54.05-2.34.06-.67.02-1.39.03-1.71.07-.42.05.28.06.97.07,1.08,0,1.37.08,3.05.04,2.13.03,4.46.02,7.25-.09,3.19-.19,6.91-.29,10.66-.4-.05-.03.11-.07.79-.09,1.19-.03.43.04.7.06,1.58-.15,3.21-.34,4.23-.12Z"/><path d="m37.49,10l.82-.05.37-.03.37-.03c5.2-.48,5.92-.57,3.93-.53-.06,0-.08,0-.12,0-4.59.49-5.83.33-10.32.86-1.86.22-4.34.54-4.85.52-1.35.22-3.75.58-4.75.83,1.29-.18.05.13-.63.26-1.97.37-.78.07-1.07.08-.06,0,0-.02,0-.03-.76.1-1.77.35-2.8.58-1.03.27-2.07.54-2.91.76-1,.35-1.91.59-2.67.87-.21.19-2.91,1.14-4.61,2.25-.84.47-1.37.98-1.43,1.01-.07.1.9-.68,1.26-.84.62-.31,1.05-.56,1.78-.89.62-.26,1.96-.84,1.59-.75-.04,0,.2-.12.45-.21.37-.14,1.1-.44,2.01-.74.93-.28,2.02-.64,3.13-.89,2.2-.57,4.38-.94,4.91-1.01,1.76-.27,4.49-.73,6.73-1.04.93-.12,2.27-.29,3.39-.43,1.09-.14,1.14-.12,1.31-.11l.02.06,1.61-.16c-.15-.02-.14-.05.88-.18.2-.03.34-.07.61-.1.85-.09.86-.06.97-.05Z"/><path d="m153.58,3.32l.05.05c.64.19,1.14.36,1.95.58,1.71.48,4.9,1.05,7.48,1.61.32.07.49.09.88.21.36.12.63.21.8.31.08.05.15.09.16.16,0,.05-.02.1-.02.11,0,.01.03.02.07-.05.06-.06,0-.21-.08-.27-.15-.15-.41-.28-.76-.42-.6-.23-.6-.21-.97-.24-.17,0-.14.04-1.25-.23-.34-.08-.71-.21-1.06-.32-2.1-.48-1.95-.52-2.41-.69,1.21.21,2.43.45,3.66.75.61.15,1.22.31,1.83.51.31.11.61.21.93.39.08.06.17.09.28.27.06.09.07.29-.03.41-.08.09-.14.12-.21.15-.22.08-.37.09-.54.11.56-.15.14-.08-.5-.09-.65,0-1.56-.04-2.15-.09l-1.28.02-2.58-.1s-.05-.02-.03-.03c1.58-.04-.85-.3-.77-.42l1.56.09s0,.01.08.02c1.1.1.89.21,2.24.25,1.99.04-.23-.13.15-.18l.93-.05c.47.01.94.02,1.4.02.23,0,.47,0,.69-.03.2,0,.5-.06.54-.09,0,.05.16.17.13.17,0,.01.04.02.04.01-.02,0-.03,0-.04.01-.04.01-.08.03-.1.06-.02.03-.08.07-.07.06,0,0,0,0-.03-.02-.06-.04-.16-.09-.25-.13-.2-.09-.42-.16-.64-.24-.44-.14-.89-.27-1.35-.38-1.83-.46-3.67-.83-5.48-1.19l-1.58-.28-.05-.08.34.04-.44-.06-.99-.16c-.51-.09-1.21-.24-1.21-.17l-1.61-.21.22.02.24.05c-1.09-.26-3.84-.63-4.61-.87-.36-.12-3.85-.44-5.75-.59-.31-.02-.52-.03-.77-.05-.41-.09-1.47-.29-.2-.17,3.77.37,3.29.13,5.91.37,2.52.28,4.94.64,7.24,1.08Zm10.45,2.61c.07.04.21.13.33.19.1.03.25.1.25.1.02-.01-.06-.08-.13-.14-.21-.09-.47-.17-.45-.16Z"/><path d="m55.69,6.54c1.46-.15,1.58-.2,1.53-.25l-1.37.12-1.05.11c-2.62.23-5.16.45-7.93.81-1.13.14-2.77.34-4.13.46-1.49.13-4.29.48-4.76.55-5.03.73-9.87,1.42-14.68,2.12-1.77.27-2.87.51-4.31.77-3.68.66-7.36,1.36-11,2.23-1.82.44-3.64.9-5.43,1.53-.45.16-.89.33-1.33.54-.22.11-.44.22-.66.37-.11.08-.22.16-.33.28-.1.11-.25.31-.23.6.03.12.09.27.15.34.06.07.13.13.2.19.13.08.26.15.38.2.24.1.48.17.72.23.47.12.94.2,1.41.27.8.12,1.63.21,2.1.22.12-.14-1.96-.26-3.71-.69-.2-.05-.38-.12-.56-.19-.17-.09-.37-.17-.51-.42-.08-.13-.07-.29-.03-.43.05-.1.12-.21.18-.27.13-.14.26-.22.39-.31.52-.32,1.02-.5,1.58-.69.5-.24,1.51-.56,2.39-.81l.84-.27c1.52-.27,4.4-1,6.87-1.49.96-.2,3.16-.67,2.54-.41-.15.06,2.84-.56,2.92-.6.17-.11.97-.25,2.06-.44.26-.08.54-.13.82-.14,1.48-.28,3.26-.62,2.66-.38.4-.06.81-.13,1.22-.19,1.26-.26,2.57-.51,4.35-.7,1.45-.3,2.86-.62,4.76-.69l2.34-.31c.5-.16,2.07-.33,3.33-.49,1.85-.24,1.53-.13,1.67-.1,2.12-.39,4.27-.6,6.42-.74.45-.09.85-.21,1.36-.26,1.44-.16.74.01,1.9-.09.2-.13,2.48-.27,3.27-.4l1.67-.16Z"/><path d="m143.16,5.12c-1.15-.13-2.42-.24-4.14-.25.97.11,1.93.22.77.23-.91,0-1.6-.12-2.58-.15-1.28-.18-2.02-.14-2.88-.12-.98.03-1.93,0-2.59-.12-2.32-.07-1.97.04-2.39.09.34.1,2.21.2,3.12.3,1.54.14,3.59.25,5.54.31,1.47.05,2.73.11,4.14.2,1.44.03-.04-.18,2.44-.04,1.84.1,1.53.17,1.82.25l1.64.09c-.11-.06-.33-.13-.3-.18.02-.03.77,0,1.48.04.61.04,1.07.09.72.09-.52,0-1.96-.05-.45.08.38.03,1.71.05,2.61.07.28,0,.43-.02,1.01.05l-1.03-.05c.61.19,2.66.29,4.8.37.66-.08-2.59-.34-2.35-.44-3.53-.15-3.48-.25-3.21-.34-1.42-.07-2.57-.22-4.03-.27.2.14-1.37.15-3.81,0-3.38-.21,1.1-.05-.07-.18-.16-.02-.19-.03-.28-.05Z"/><path d="m160.5,14.6l1.33-.03,2.58-.09.95-.02s-.05-.02-.08-.03c-.56,0-.84-.02-.36-.05.07,0,.3,0,.38-.01.73,0-.04.04-.04.06,1.34-.02,2.34-.06,2.96-.12.99-.11,2.28-.14,3.31-.13,1.03,0,1.81.04,1.77.06-.2.14,1.93.1,3.47.12,1.95-.08,3.87-.15,5.84-.23.86-.02,2.54-.14,2.05-.18-.4,0-2.2.1-2.65.09-1.42-.03-3.6.17-4.4.03-1.08,0-2.35.02-2.52-.04-.91.01-1.87.03-2.46,0-1.99.02-4,.04-5.98.06-3.91.04-7.29.26-11.24.3v.08c.97-.03,1.98-.06,2.49-.02-.06.05-.09.1-1.58.14l.7.09,3.47-.07Z"/><path d="m91.56,4.28c.5,0,.83.02.33.05-3.93.21-2,.24-.14.28l1.52-.05-.03-.11h-.19s.18,0,.18,0c1.38,0,4.37-.14,4.14.03,2.28-.05,4.36.06,6.9-.06.36-.02,1.96.02,2.04.08l2.41.02c1.05-.09,4.09-.1,3.5-.24-.03,0,.52-.01.81-.02,1.78.24,2.54-.02,3.95.04,0-.01,0-.02,0-.04-4.12-.26-5.11-.08-6.56.03h-.31s.34,0,.34,0c-.41,0-1-.02-1.49-.03-.49-.01-.87-.02-.89-.03-.41-.27-3.42-.11-5.86-.07-2.54.04-5.47.13-7.72.07-1.11,0-.94-.1-2.87-.04l-.05.08Z"/><path d="m108,.52h1.51c3.69-.06,3.64.07,3.26.2,1.21.02,1.15-.04,1.75-.06-1.09-.15.72-.35,4.07-.32-.77-.1-.83-.18,0-.26-.85-.1-1.56-.05-2.3-.02.49.02.61.05-.05.05-.91,0-.76-.03-.85-.06-1.96-.13-4.84.02-6.92.08-3.41.1-7.12.19-10.34.42l.02.05,2.36-.08c.74-.09,1.41-.09,2.09-.08l2.81-.03c.2-.06.37-.11,1.89-.16,1.02-.02,1.61,0,2.09.02,1.14.06-.41.15-1.4.24Z"/><path d="m177.62,14.06c.79.14,2.98-.06,4.4-.03.46.01,2.26-.08,2.65-.09.48.04-1.19.16-2.05.18-1.97.08-3.9.15-5.85.23l.71.06h.95c1.31-.08,2.81-.11,4.34-.15.39-.01.77-.03,1.16-.04l.59-.04c.21-.03.36,0,.68-.15.06-.03.2-.2.14-.34-.03-.1-.06-.12-.08-.14-.03-.03-.06-.05-.07-.06-.08-.05-.13-.07-.19-.09-.11-.04-.2-.06-.3-.09-.2-.05-.39-.08-.58-.12-.38-.07-.75-.12-1.12-.16-.71-.05-.54.01-.2.1.58.17-.32.06-2.22-.14l-.04.03s-.6.01-1.76-.11c-.24-.02-.47-.04-.7-.06.23.06,1.31.19-.1.1l.07.04c1.16.11,2.32.23,3.48.37l1.73.23c.55.09,1.19.17,1.63.34.01,0,.02.04-.05-.07-.03-.1-.03-.17.02-.24.08-.07.04-.03.05-.05.02,0-.09.02-.13.03-.13.02-.27.03-.41.05l-.86.05-1.75.05c-1.17.03-2.34.05-3.51.08.75.07,2.14.14-.62.24Z"/><path d="m110.57,16.28c.97-.04.88.11,2.6-.07,1.29-.14,2.51-.06,3.79-.13.36-.16,2.1-.19,3.93-.2,1.55,0,2.83-.08,4-.16,1.21-.09,1.74-.17.46-.19-1.72.05-3.31.06-5.16.15-5.76.29-6.39.31-11.01.39-.11,0-.33,0-.36.01-2.34.23-5.93.19-8.32.41.23.06.26.12,1.89.09.05-.05.44-.07,1.55-.11,2.34-.08,4.54-.14,6.63-.18Z"/><path d="m177.62,14.06c2.76-.1,1.37-.17.62-.24-1.82-.02-3.04-.08-5.65.07-1.88.1-5.64.08-8.64.15-4.05.09-8.29.19-12.38.28-1.79.03-2.98.06-2.78.16.2.09,1.64.05,3.26,0l3.37-.09c3.95-.04,7.33-.26,11.25-.3,1.97-.02,3.98-.04,5.98-.06.48-.02,1.02-.07,1.43-.07.91,0,.99.03,1.03.07.17.07,1.44.05,2.52.04Z"/><path d="m110.41,4.31c1.45-.11,2.44-.29,6.56-.03l3.3.02c.88,0,1.79,0,1.57-.07-1.54-.14-3.57-.11-5.26-.13-6.47-.1-12.94-.16-19.45.02-1.74.04-1.98.09-2.65.14,2.24.06,5.17-.03,7.72-.07,2.44-.04,5.45-.2,5.86.07.02,0,.4.02.89.03.48.01,1.07.02,1.47.03Z"/><path d="m54.79,17.7c-.39.05-.72.1-1.18.16-1.58.18-1.39.14,1.91.1,5.48-.07,10.91-.3,16.31-.43,1.64-.04,3.8-.09,3.44-.22-3.07-.04-6.41.08-10.09.26-2.37.11-4.19.14-3.73-.02-2.39.13-4.38.08-6.64.14Z"/><path d="m100.51,16.49c2.39-.22,5.98-.17,8.32-.41.03,0,.25,0,.36-.01,4.62-.08,5.25-.1,11.01-.39,1.85-.09,3.43-.1,5.16-.15-.74-.09-1.54-.18-4.38-.14l-2.08.15c-.76.1-1.94.14-3.61.18-2.03.08-4.5.17-6.26.24-3.55.13-6.71.39-10.1.45l.9.12c.23,0,.45-.02.67-.02Z"/><path d="m142.07,14.74c-1.06.16-1.92.28,2.34.16,1.37-.04.51.04.41.07-2.1.13-4.42.18-5.92.18-3.81,0-4.67.14-5.48.31l-.78.03c-2.5.02-6.61.13-2.72-.2.7-.06.68-.12,1-.18,2.16-.08,4.32-.15,6.46-.23,1.39-.05,2.44-.09,2.58-.17l2.4-.07c-.09.03-.05.06-.3.1Zm-6.87.34c-.08,0-.23,0-.43.02.12,0,.24,0,.43-.02Z"/><path d="m36.18,4.07c-1.23.03-5.45.83-5.47.69-.01-.08,1.69-.43,2.41-.64.74-.21,4.02-.71,6.64-.98,1.18-.13,2.3-.21,3.48-.32,1.14-.1,2.53-.17,3.36-.29.88-.14-2.25.15-1.68.03-3.87.21-8.64.92-12.62,1.42-1.26.16-.96.22-1.96.4-.96.2,3.4-.44-.17.17-1.18.3-4.3.94-3.8,1.01.74-.13,1.7-.29,2.18-.36,1.21-.14,1.2.03,4.22-.61.03,0,1.11-.13,1.79-.2,1.99-.26,3.89-.5,5.56-.75-.59-.08-2.79.33-3.93.44Z"/><path d="m25.46,5.28c-.99.18-1.7.3-2.22.36-1.3.15-3.74.61-5.6,1.13-1.67.46-3.16.94-3.32,1.09-.29.3,1.81-.21,6.53-1.27,1.15-.26,2.6-.5,3.92-.73,1.42-.36.85-.36-.72-.11-1.59.25-3.02.6-4.12.92-.4.11-2.28.59-2.13.47.13-.11-.98.09-.3-.14.41-.14.61-.25,1.88-.54,1.33-.31,1.92-.39,2.08-.36.17.02.38.02,1.86-.29,1.44-.3,2.17-.46,2.15-.53Z"/><path d="m98.94,16.39c3.39-.06,6.55-.32,10.1-.45,1.76-.07,4.22-.16,6.26-.24,1.67-.05,2.85-.08,3.61-.18-2.86-.09-7.13.18-10.65.32-5.26.21-10.63.51-15.76.61l-.42.07c.76.02,3.44-.02-.64.17-1.33.06-2.08.16.21.08,2.42-.13,4.18-.35,7.29-.38Z"/><path d="m85.96,4.99c-.06-.11-1.13-.13-3.59.06-1.81.14-2.98.18-4.44.2-1.49.02-4.02.3-5.43.28-3.5.33-7.34.52-11.01.85-1.25.11-1.96.18-2.53.28,3.38-.2,7.03-.49,10.96-.78,2.51-.18,5.06-.35,7.8-.46,2.39-.12,5.47-.28,8.25-.42Z"/><path d="m84.97,1.1l1.77-.06h2.63c.37-.01.75-.03,1.12-.04l3.64-.22c-2.15-.1-6.42.13-9.49.23-6.1.22-12.26.44-18.4.65l-1.64.08c2.77.06,5.74-.02,8.96-.22,2.61-.12,5.37-.28,6.86-.15l1.18-.05.84-.04s-.05-.04-.08-.05l-.26-.02h.58s2.27-.12,2.27-.12Z"/><path d="m163.03,11.82c-2.33-.16-4.65-.33-7.01-.42-1.86-.1-3.65-.21-5.02-.34-1.25-.06-1.88-.1-2.52-.13-2.98-.16-5.89-.24-9.06-.45-1.65-.11-2.53-.04-3.03.02,8.99.43,17.98.9,26.97,1.41l-.33-.09Z"/><path d="m144.82,14.97c-2.1.13-4.42.18-5.92.18-3.81,0-4.67.14-5.48.31,6.26-.19,12.52-.33,18.78-.59,1.51-.06,2.46,0,3.69-.05,1.69-.06,4.3-.07,4.62-.21l-3.47.07-5.7.11-6.51.19Z"/><path d="m101.24,8.95c.09-.06-.45-.15,2.17-.05,1.63.06,3.03.08,2.75-.02-6.71-.26-13.42-.49-20.4-.54l.04.05.24.04c.13,0,.26,0,.41,0,1.17,0,2.33,0,2.66.09.21,0,.42,0,.64.01l2.46.09c.37-.06,1.21-.06,2.52.02,1.45.04,2.96,0,4.27.1.44.03-.22.06-.94.06l-.06.03.79.09c1.44.1,1.57,0,2.46.03Z"/><path d="m132.64,15.49c-2.5.02-6.61.13-2.72-.2.7-.06.68-.12,1-.18-1.19.03-.8-.02-.87-.05l-1.6.07c.5.06-1.57.17-1.62.24l1.07-.02c-.08,0-.23.02-.23.02-.3,0-.58,0-.87,0-1.42,0-.55-.1-.85-.15-1.62-.03-3.27.01-4.97.17,2.84-.04,3.64.05,4.38.14,1.29.02.75.1-.46.19-1.17.09-2.45.16-4,.16-1.83.01-3.58.04-3.93.2,4.12-.12,8.33-.33,12.4-.41,1.61-.03,2.45-.1,3.28-.18Z"/><path d="m91.64,16.78c-2.29.07-1.54-.02-.21-.08,4.07-.19,1.4-.15.64-.17-.7.1-1.97.1-2.95.15.11.04-.64.14-1.24.14-2.98.03-5.08.22-7.68.3-1.38.1-1.46.06-1.57.01-1.4-.01-1.75.05-2.16.11.12,0,.34,0,.36,0,.58.1,2.53.04,4.67-.04,2.93-.11,4.98-.03,8.03-.19.08,0,.38.05.58.07l3.18-.06,1.69-.03.19-.11c-3.61.13-3.82.03-3.53-.11Z"/><path d="m47.72,18.38c-1.68.04-1.97-.03-3.05-.04-.69,0-1.39-.01-.97-.07.32-.04,1.05-.05,1.71-.07.8-.02,1.81-.03,2.34-.06,1-.06,2.59-.15,2.41-.18-.44-.07-1.89.04-2.9.06-.62,0-1.19,0-1.78,0-.78-.04-1.48.03-2.21.05-1.23.05-2.54.12-2.17.17,1.41.22-2.39.29-5.81.35.42.05,2.19,0,2.33.06,2.8-.08,5.45-.06,8.28-.13,2.03-.05,1.59-.09,1.82-.15Z"/><path d="m80.2,17.12c2.59-.08,4.7-.27,7.68-.3.6,0,1.35-.1,1.24-.14-5.2.18-10.37.36-15.56.54-2.6.09-5.34.16-7.92.21-1.56.03-2.83.08-4.19.14-.45.16,1.36.13,3.73.02,3.68-.18,7.03-.3,10.09-.26.41-.03.81-.05,1.21-.08.4-.06.75-.12,2.16-.11h1.57Z"/><path d="m144.82,14.97l6.51-.19.06-.08c-.89.02-1.67.03-1.53-.02.14-.05,1.04-.07,1.85-.1.3-.04.32-.08.34-.12-1.62.06-3.07.1-3.26,0-2.08.02-4.23.07-6.42.17-.09.03-.05.06-.3.1-1.06.16-1.92.28,2.34.16,1.37-.04.51.04.41.07Z"/><path d="m120.27,4.29l-3.3-.02v.04s.17.02.17.02l-.17-.02c-1.4-.06-2.16.2-3.95-.04-.28,0-.83.01-.81.02.58.14-2.46.15-3.5.24.17.04.91.04,1.56.04.86-.05,2.24-.02,3.46-.01.9.04,1.46-.11,1.94,0,.51.12,2,.07,2.84.12,1.43-.04,2.08.01,2.57.09.85.04,1.86.13,2.4.05l.37-.05c-1-.05-1.49-.13-2.9-.16-.96-.05-.59-.08-.68-.12-4.37-.16.58-.12,0-.2Z"/><path d="m88.13,8.87c-1.38-.08-2.98-.18-4.31-.26-2.7-.2-7.76-.22-9.92-.08,2.01.03,4.25.06,2.84.16,3.86.09,7.72.19,11.39.18Z"/><path d="m120.27,4.49c-4.37-.16.58-.12,0-.2.88,0,1.79,0,1.57-.07,2.49.05,5.13.03,7.38.25.11.01.14.02.1.03-3.28,0-3.55.16-3.38.33l-2.1-.06c-1-.05-1.49-.13-2.9-.16.09-.04.12-.07-.68-.12Zm2.61-.06c-.53-.03-1.03-.01-.86.01.33.05-1.34.09,1.17.15,1.25.02,1.15-.01.24-.07-.17-.03-.16-.07-.56-.09Z"/><path d="m63.03,5.81c.76-.06,1.4-.04,2.26-.17,1.91-.28,2.1-.18,2.73-.17.57-.03,1.31-.05,1.7-.09,1.53-.14,2.98-.27,4.11-.25.93.02-.37.14-1.3.25-1.65.2-2.93.24-4.28.28-.84.02-2.25.11-2.93.19-2.33.29-3.38.28-4.78.34.83-.13,1.66-.27,2.49-.4Zm9.13-.53s-.29.03-.3.03c-.03.01.01.02.03.03l.64-.06c-.11,0-.22,0-.36,0Z"/><path d="m117.05,9.27c3.32.11,6.79.29,9.78.29.75,0,1.81.08,2.55.13,1.35.09,2.26.12,3,.09-2.79-.24-6.18-.33-9.36-.42-4.11-.12-7.96-.39-12.11-.44-.6,0-1.34-.03-1.62,0,.84.11,2.27.17,3.91.18,1.99,0,2.92.08,3.83.18Z"/><path d="m25.46,5.28c.02.07-.71.23-2.15.53-1.48.3-1.69.31-1.86.29-.16-.02-.76.06-2.08.36-1.28.3-1.47.41-1.88.54-.67.23.43.04.3.14-.14.12,1.73-.36,2.13-.47,1.1-.32,2.53-.67,4.12-.92,1.57-.25,2.14-.25.72.11.54-.08,1.07-.16,1.6-.3-.5-.07,2.62-.71,3.8-1.01-.86.11-1.64.2-1.71.16l-3,.56Z"/><path d="m47.49,7.45c-2.15.15-4.3.36-6.43.74-1.24.26-5.1.73-5.77.96l.3.08c1.41-.15,2.69-.32,3.84-.52.18-.05-.35-.01.5-.13l.27.03c.24-.03.49-.06.77-.09,3.32-.42,2.63-.54,5.68-.92.69-.09.86-.14.84-.17Z"/><path d="m177.48,14.41l-.71-.06c-1.54-.02-3.67.02-3.47-.12.03-.02-.74-.06-1.77-.06-1.03,0-2.32.02-3.31.13-.63.07-1.62.1-2.96.12.06,0,.09.02.11.03l-.06.11c4.02-.03,7.99,0,12.18-.16Z"/><path d="m154.45,10.78c-.32.08,1.45.2,2.89.3,3.11.22,6.71.5,9.44.62,1.89.09,3.16.17,4.99.31,1.11.09.5-.03.59-.06-3.91-.32-7.71-.62-11.83-.81-1.78-.08-4.03-.25-6.07-.37Z"/><path d="m93.27,4.56l-1.52.05c-.81.08-1.92.15-1.74.22,4.09-.07,8.46-.25,12.6-.17,1.67.03,2.18-.11,3.69-.15-.08-.06-1.67-.1-2.04-.08-2.54.12-4.62,0-6.9.06-1.47.24-2.72.02-4.1.08Z"/><path d="m24.62,10.49c-.41.06-.81.13-1.22.19-.74.21-.71.2.57.02.56-.08,1.31-.18,1.44-.17.44,0-1.83.35-2.18.46l1.71-.2,2.67-.39,5.39-.92c-3.7.41-3.63.37.74-.39-1.9.07-3.31.39-4.77.69-1.44.23-2.11.53-4.34.7Z"/><path d="m35.28,18.59c3.41-.07,7.22-.14,5.81-.35-.36-.06.95-.12,2.17-.17-.38-.12-2.12.02-3.16.02-.75.13-1.23.27-5.16.23-.65,0-1.7.01-1.96.06-.28.05.53.06,1.38.05h.37s-.33,0-.33,0l.87.17Z"/><path d="m129.22,4.47c.11.01.14.02.1.03.36.07,2.9.14,2.42.21.66.13,1.61.15,2.59.12.86-.02,1.6-.06,2.88.12.98.02,1.67.16,2.58.15,1.16-.01.21-.13-.77-.23-3.32-.18-6.84-.44-9.81-.39Z"/><path d="m151.76,3.55c-1.09-.26-3.84-.63-4.61-.87-.36-.12-3.85-.44-5.75-.59-.31-.02-.52-.03-.77-.05l-.03.1c2.91.4,5.64.6,8.51,1.05l2.12.29c.28.04.45.06.53.06Z"/><path d="m102.05,9.25c-1.13-.14-8.53-.47-10.91-.47-2.35-.01-.86.11-1.33.16,1.49.02,3,.01,4.41.11.31.01,1.35.05,1.41.06,1.91-.07,4.31.1,6.41.14Z"/><path d="m36.18,4.07c1.13-.11,3.34-.52,3.93-.44,1.17-.06,2.31-.22,3.46-.36,1.91-.29,4.97-.5,7.23-.62-.46-.03-.41-.13-2.83.07-1.47.14-3.58.33-5.41.5l-1,.15h-.32s1.27-.15,1.27-.15c-1.51.13,3.1-.59-2.4.11-.19.08.55.07-1.63.34-.44.09-2.42.34-2.3.4Z"/><path d="m152.79,10.79s-.24-.06.47-.02c-4.96-.29-10.19-.67-14.5-.64l.11.05,3.25.15c3.55.15,7.1.31,10.67.46Z"/><path d="m50.8,2.66c-2.27.12-5.32.33-7.23.62.27.1,2.05-.17,2.98-.23,1.77-.14,3.57-.2,5.37-.29,1.8-.09,3.61-.19,5.4-.28-.73-.18-4.24.1-6.51.18Z"/><path d="m109.55.62c-2.56.05-5.44.21-7.15.13-.65-.03-1.6.04-1.75.1-.11.05.09.08-.99.15-.34.13,1.8.01,2.94-.02,2.56-.08,5.15-.16,7.73-.24-.21-.04.44-.11-.78-.12Z"/><path d="m122.64.26c1.79.11,3.64.23,4.92.22.83-.02,1.32.05,2.06.13,2.48.27,4.92.48,7.25.59-2.29-.33-5.18-.55-7.99-.73-2.07-.13-4.13-.22-6.2-.29l-.03.08Z"/><path d="m8.29,17.85c-.58.03-2.34.07,1.76.21,2.13.06,3.12.14,4.21.23.55.04.19.13,1.89.12,1.37,0,1.06-.07.8-.13-.25-.06-.38-.11-.56-.17-2.7-.05-5.4-.12-8.09-.26Z"/><path d="m151.35,5.61c-.28.09-.32.19,3.21.34l2.47.08,1.56.09c.66,0,1.59.05,2.48.09l.93-.05c.08-.07-1.01-.08-1.87-.12-2.93-.14-5.85-.28-8.77-.43Z"/><path d="m24.94,10.79l-1.71.2c-2.29.39-4.68.89-6.64,1.12-.5.06-1.94.39-1.85.38.41-.03-2.73.62-.51.23,3.54-.72,7.44-1.26,10.71-1.93Z"/><path d="m152.12,6.02c-.9-.02-2.23-.04-2.61-.07-1.51-.13-.08-.08.45-.08.35,0-.11-.05-.72-.09-.7-.04-1.46-.08-1.48-.04-.03.05.19.12.3.18,2.95.28,6.31.48,9.65.65l.11-.09s-.05-.02-.03-.03l-.89-.06c-2.15-.09-4.19-.19-4.78-.37Z"/><path d="m46.65,7.62c-3.05.38-2.36.5-5.68.92,1.71-.12,3.45-.24,5.67-.64.25-.05.41-.12.76-.16,5.38-.63,1.41-.27.14-.19-.13.04.02.06-.94.16l.18-.08s-.09-.01-.13-.02Z"/><path d="m26.18,18.72c-.71-.07-2.1-.15-3.53-.08-2.73.14-7.67-.13-9.5.03,4.43.13,8.77.13,13.03.06Z"/><path d="m93.29,17.03l-3.18.06-1.67.04c.01.09-1.37.15-2.71.18-3.14.01-6.09.13-8.86.32.27.03,1.12.04,1.7.01,4.75-.24,10.1-.28,14.72-.62Z"/><path d="m50.7,2.15c.17.11.72.18,3.85-.07,1.17-.09,2.49-.13,3.8-.17,1.31-.03,2.61-.04,3.73-.14-3.4-.11-7.51.2-11.39.37Z"/><path d="m173.08,12.53c-1.08-.21-3.22-.45-5.58-.69.46.16-.77.17-2.39.16,1.65.17,3.13.22,4.66.3.83-.04,2.15.12,3.31.22Z"/><path d="m85.98,1.58c-2.86-.04-8.8.18-12.36.45,3.52-.05,7.06-.22,10.59-.36.09-.08.95-.08,1.76-.09Z"/><path d="m79.31,4.88c.95-.05,1.61-.1,1.58-.15l-1.05.03-.23-.03.78-.02h.64c.98-.04,1.44-.08,1.52-.12-2.99.12-5.59.14-8.89.41.3.11,3.08-.04,4.93-.08l.72-.03Z"/><path d="m65.63,17.89c-3.75.1-7.48.2-10.66.4,1.26.03,2.45.03,4.32-.09,2.38-.15,5.34-.15,7.97-.26l-.15-.08c-.48.01-.98.02-1.48.03Z"/><path d="m118.58.34c-3.35-.03-5.16.17-4.07.32,1.09,0,2.18-.01,3.27.01-.5-.09,1.92-.1,1.45-.18-.95-.05-.55-.1-.65-.14Z"/><path d="m32.99,9.48l-5.39.92c2.73-.35,5.45-.69,7.99-1.15l-.3-.08-2.3.32Z"/><path d="m125.95,4.83l-2.1-.06-.37.05c3.06.11,6.16.28,9,.29-.91-.1-2.78-.2-3.12-.3-.59,0-1.09-.01-1.59-.02-.13.05-.21.1-1.83.04Z"/><path d="m122.64.26l.03-.08c-1.36-.04-2.71-.1-4.07-.1-.84.08-.78.16,0,.26,1.98.03,1.51.11,1.56.16.31.04.76.08,1.53.09.9,0,.37-.04.2-.07-.62-.11-1.79-.25.77-.25Z"/><path d="m91.56,4.28l.05-.08c-2.78.07-5.84.07-8.19.33.42.05-.19.22,2.89-.05,1.34-.11,3.67-.09,5.25-.21Z"/><path d="m95.17,16.89l-.19.11c3.17-.06,6.02-.25,8.94-.41h-1.53c-1.62.02-1.65-.04-1.89-.1-.22,0-.44.02-.67.02,0,.14-.49.28-4.67.38Z"/><path d="m130.92,15.11c2.16-.08,4.32-.15,6.46-.23,1.39-.05,2.44-.09,2.58-.17-2.88,0-6.08.21-9.07.28,0,.04,0,.07.02.11Z"/><path d="m102.39,16.58h1.53c2.33-.04,4.75-.05,6.65-.29-2.1.04-4.29.1-6.63.18-1.11.04-1.49.06-1.55.11Z"/><path d="m143.16,5.12c.09.02.12.03.28.05,1.16.13-3.32-.03.07.18,2.44.15,4.01.14,3.81,0-1.43-.1-2.95-.25-4.15-.22Z"/><path d="m117.05,9.27c-.91-.1-1.85-.18-3.83-.18-1.65,0-3.08-.07-3.91-.18-.58,0-1.32-.04-1.53,0,.47.05.94.11,1.42.16,2.55.08,5.07.16,7.6.24l.26-.04Z"/><path d="m76.74,8.69c1.42-.1-.82-.13-2.84-.16-1.49-.04-2.42-.02-3.05.02l.04.08c1.92,0,3.83,0,5.85.06Z"/><path d="m183,13.02c.37.05.74.1,1.12.16.19.03.38.07.58.12.1.03.2.05.3.09.06.02.11.04.19.09.01,0,.04.03.07.06.02.02.05.05.08.14.06.14-.08.31-.14.34-.32.14-.47.12-.68.15l-.59.04c-.39.01-.78.03-1.16.04-1.54.04-3.03.07-4.34.14,1.48.02,2.97,0,4.46-.05l1.12-.05.57-.05.3-.04.17-.04s.07-.02.12-.04c.06-.05.05.02.19-.15.05-.08.08-.16.07-.24,0-.09-.07-.22-.09-.22-.07-.08-.12-.1-.15-.12-.08-.04-.13-.06-.18-.08-.11-.04-.2-.06-.3-.08-.19-.04-.38-.08-.57-.11l-1.12-.17-.03.07Z"/><path d="m4.11,15.13c-.24-.06-1.19.19-2.26.65-.27.12-.54.25-.79.4-.24.14-.53.37-.53.52,0,.12.31.29.56.36.26.09.52.16.76.21-.06-.04.06-.05-.1-.11-.09-.03-.23-.07-.49-.16-.21-.06-.78-.31-.56-.38.32-.34.97-.62,1.55-.85.61-.24,1.24-.44,1.86-.64Z"/><path d="m146.43,5.82c-.29-.07.02-.14-1.82-.25-2.49-.14-1.01.08-2.44.04,1.98.21,2.84.13,4.26.2Z"/><path d="m94.13.77l-3.64.22c2.29-.08,2.44,0,2.77.06.19.04.73.05,1.83,0,.41-.02,1.05-.06,1.17-.08.36-.06-.53-.04-1.23-.03-2.53.04,2.02-.23-.18-.21-.23,0-.47.01-.72.02Z"/><path d="m72.34,8.21c1.62-.02,3.82.23,5.08.05q-.69-.13-5.08-.05Z"/><path d="m160.83,4.83c-2.1-.48-1.95-.52-2.41-.69-1.65-.32-3.47-.69-4.84-.82l.05.05c1.19.21,3.29.54,3.47.65.4.24,2.1.48,3.74.81Z"/><path d="m164.33,6.74c.56-.15.14-.08-.5-.09-.65,0-1.56-.04-2.15-.09l-1.28.02-1.01.1c1.69.09,3.15.12,4.94.06Z"/><path d="m26.15,18.27v-.11c-1.53-.03-3.05-.05-4.74-.02.02.06-.57.13,1.71.13,1.72,0,2.51.02,2.44.1.75-.03.52-.07.58-.1Z"/><path d="m165.11,12.01c1.62.01,2.85,0,2.39-.16-1.67-.03-4.12-.13-4.47-.03l.32.09,1.75.11Z"/><path d="m109.55.62c1.22,0,.57.08.78.12l2.44-.03c.38-.13.43-.26-3.26-.2l.04.11Z"/><path d="m67.11,17.86l.15.08c1.58-.04,2.94-.11,4.09-.19-1.02-.22-2.65-.04-4.25.12Z"/><path d="m121.74,9.89s.17-.04.01-.07c-.45-.08,1.9-.1-.63-.2-2.24-.08-.31.09-.64.13-.09.01-.84,0-1.28-.01.54.06,1.03.13,2.54.15Z"/><path d="m173.08,12.53c-1.16-.1-2.48-.26-3.31-.22l1.78.15c.67.05,1.25.1,1.56.15l3.31.23-.69-.1-2.65-.21Z"/><path d="m21.25,11.88s-.06.03,0,.03c.29-.01-.9.28,1.07-.08.67-.13,1.92-.44.63-.26l-1.69.31Z"/><path d="m126.83,15.36c.05-.07,2.12-.18,1.62-.24l-2.5.09c.3.05-.57.15.88.15Z"/><path d="m28.45,4.71c.06.04.85-.05,1.71-.16,3.57-.61-.8.03.16-.17-.16.02-.36.05-.62.09l-1.07.18c-.22.04-.28.06-.18.05Z"/><path d="m152.91,3.69l-1.61-.21c.7.19,2.66.47,3.87.71l.1-.06-.05-.08c-.43-.07-.76-.13-1.09-.19-.13.02-.67-.08-1.21-.18Z"/><path d="m37.61,18.65c-.14-.06-1.91-.02-2.44-.06l-1.3.05,1.05.04c.86.01,1.76,0,2.69-.03Z"/><path d="m121.08,4.77c-.48-.08-1.13-.14-2.57-.09.69.05.96.15,2.57.09Z"/><path d="m164.41,14.48l-2.58.09c-.12.1,1.31.05,2.57.01v-.1Z"/><path d="m113.74,4.56c-1.22,0-2.6-.04-3.46.01,1.76.09,2.7.05,3.46-.01Z"/><path d="m12.87,14.09c.76-.28,1.67-.52,2.67-.87-.86.28-1.42.28-2.67.87Z"/><path d="m175.74,12.75l.69.1,1.63.14-.07-.04c-.73-.11-1.48-.18-2.25-.2Z"/><path d="m142.36,1.81s-.02.01-.11,0c.12.01.24.02.38.04l.24-.05h-.5Z"/><path d="m173.11,12.61c-.31-.05-.89-.1-1.56-.15-.02.06.51.11,1.56.15Z"/><path d="m115.39.05c.09.03-.06.07.85.06.66,0,.54-.03.05-.05h-.9Z"/><path d="m155.26,4.13l-.1.06c.83.13,1.4.21,1.68.22l-1.58-.28Z"/><path d="m151.23,3.49l-2.12-.29c.88.17,1.6.28,2.12.29Z"/><path d="m130.88,15.11l.02-.11c-.54.01-.82.03-.85.06.08.03-.32.08.83.05Z"/><path d="m40.2,8.63l-.27-.03c-.85.12-.32.09-.5.13.26-.03.52-.06.77-.1Z"/><path d="m85.98,1.58c-.81.01-1.68.02-1.76.09.74-.02,1.48-.03,1.76-.09Z"/><path d="m116.79,9.31c-2.53-.08-5.05-.16-7.6-.24-.88-.02-1.27-.01-1.35.02l-.11.11c1.4.05,1.87.1,1.36.14-.24.02-.57.05.36.08.27,0,.7.01,1.06.02.36,0,.65,0,.65,0-.17-.16,3.55-.05,5-.09.3,0,.42-.03.62-.04Z"/><path d="m63.72,8.18c-1.73-.03-3.46-.13-5.15.01,2.91-.06.54.11,2.58.14l3.27.08c-.42-.08-2.15-.16-.7-.23Z"/><path d="m150.99,11.05c1.37.14,3.16.24,5.02.34-.05-.04.21-.08-.24-.14-.6-.07,1.85,0-.37-.13-1.54-.09-1.24-.01-1.08.05.08.03.08.1-.92-.02-1.83-.23-1.45-.03-2.41-.1Z"/><path d="m92.2,8.62l-2.46-.09c-.32.03-2.42.02-.57.11,1.96.09,2.63.04,3.03-.02Z"/><path d="m98.05,8.8c.72,0,1.37-.02.94-.06-1.31-.1-2.82-.06-4.27-.1.12.1,2.02.11,3.33.16Z"/><path d="m142.12,10.33l-3.25-.15c.17.07,1.2.15,2.5.2,1,.04.68-.02.75-.05Z"/><path d="m178.08,12.85c.23.02.46.04.7.06l.1-.06c-.99-.09-2.19-.21-2.64-.18l1.84.18Z"/><path d="m89.1,8.52c-.34-.09-1.5-.09-2.66-.09l.08.07c.87,0,1.73.01,2.58.02Z"/><path d="m104.82,9.26c.18.01.34.02.51.03l.47-.02c-.21,0-.46-.02-.62-.03-.16,0-.24,0-.35.01Z"/><path d="m148.48,10.93l1.89.1c-.24-.03-.41-.07-.73-.09-.92-.06-.91-.01-1.16,0Z"/><path d="m98.78,8.92l-.79-.09c-1.24.02-.27.06.79.09Z"/><path d="m86.52,8.5c-.44,0-1.09-.03-1.08,0,0,0,.32.03.48.03.75.01.54-.02.6-.03Z"/><path d="m107.73,9.2l.11-.11c-1.06,0-1.15.04-.11.11Z"/><path d="m130.02,10.04s-.14-.02-.26-.03c.02.02.14.02.26.03Z"/><path d="m180.54,13.01l.04-.03-1.68-.13c.54.05,1.09.11,1.64.16Z"/><path d="m101.26,8.94l.18.02c-.07,0-.14-.01-.18-.02Z"/><path d="m86.03,8.43l-.24-.04c-.71,0-.56.02.24.04Z"/><path d="m108,.52c.99-.09,2.54-.18,1.4-.24-.49-.02-1.07-.05-2.09-.02-1.51.04-1.68.1-1.89.16.79.03,1.18.08.51.17-.31.04-.23.07.66.04,1.08-.03,1.24-.07,1.41-.11Z"/><path d="m38.47,3.68c2.17-.27,1.44-.26,1.63-.34-.81.09-1.94.25-2.06.19-.06-.03-.85.03-1.57.13-.73.11-1.4.24-1.65.32-.42.12.98-.11,1.43-.14.87-.08,1.5-.12,2.22-.16Z"/><path d="m80.42,1.37c-1.49-.13-4.25.03-6.86.15,1.91.04,4.08.01,6.86-.15Z"/><path d="m82.45,1.28l-.84.04c-.14.02-.23.03-.43.05-1.57.1-2.61.18-.99.21.42,0,1.59-.01,1.39-.04-.47-.07,4.69-.29.88-.25Z"/><path d="m100.52.52l-2.36.08c-.02.05-1.99.2.1.14,1.55-.04,2.63-.15,2.26-.22Z"/><path d="m89.37,1.03h-2.63c.06.04-1.35.14-.14.13.96,0,1.99-.07,2.77-.13Z"/><path d="m43.46,2.95c.48-.03.77-.05,1.04-.06.3-.04.59-.07.89-.11-.25.01-.48.01-.76.04-.29.03-.62.07-1.17.13Z"/><path d="m84.97,1.1l-2.27.11c-.11,0-.22.02-.33.03l.11.03c1.02-.05,2.52-.09,2.49-.17Z"/><path d="m102.61.44c-.67,0-1.35-.01-2.03.08l2.03-.08Z"/><path d="m48.37,2.35c.23,0,.35-.01.46-.02-.08,0-.17,0-.46.02Z"/><path d="m4.7,14.41c-.88.25-1.89.57-2.39.81-.17.14-.93.37-1.7.89-.1.06-.19.16-.27.25-.07.1-.17.28-.1.44.13.32.39.38.58.48.41.16.79.23,1.06.27.41.08,1.79.38,2.41.36.38-.01-.98-.19-1.8-.38-.42-.09-.79-.18-1.2-.3-.2-.06-.41-.13-.62-.24-.21-.09-.41-.36-.15-.59.53-.52,1.33-.81,2.06-1.1.74-.27,1.49-.47,2.15-.6.79-.16,2.18-.57,3-.8,1.44-.39.26-.14-.59.03-1.34.28-2.67.61-2.44.45Z"/><path d="m26.15,18.27c-.06.03.17.07-.58.1-.19.05-2.2.06-1.21.12.35.02,1.14.05,1.67.04,1.76-.02.59-.08.97-.12.21-.02.38-.05.7-.07.63-.04,2.47-.07,1.78-.11-.8-.05-2.12.04-3.33.04Z"/><path d="m20.19,18.41c-.18,0-.34-.01-.5-.02l-.48.03c.21,0,.45.01.63.02.15,0,.23-.01.35-.02Z"/><path d="m19.93,11.2l.8-.14c-.26.05-.54.09-.8.14Z"/><path d="m33.39,10.43c-.17,0-.22-.03-1.31.11.15,0,.67-.04,1.31-.11Z"/><path d="m55.69,6.54l-1.67.16s.37.08-.14.15c-.9.12-1.71.23-1.4.25.15.01.65-.05.84-.08.71-.12,3.12-.34,2.47-.38-.21-.01-.09-.06-.11-.1Z"/><path d="m60.54,6.21c-.51.01-.55-.04-1.72.06-.16.01-.57.08-.52.09.23.04,1.36-.08,2.25-.15Z"/><path d="m79.31,4.88l-.72.03s-.15.07.79.02l-.07-.06Z"/><path d="m46.78,7.64l-.18.08c.96-.1.82-.12.94-.16l-.76.08Z"/><path d="m50.75,7.1l.29.02c.78-.11-.02-.03-.29-.02Z"/><path d="m61.15,8.33c-2.04-.03.33-.19-2.58-.14-1.06.04-1.8.1-2.35.15-1.16.12-2.59.27-.41.22,3.42-.05,3.57-.22,5.35-.24Z"/><path d="m47.42,9.15c1.18-.1,3.06-.18,2.95-.27-.04-.03-.51-.05-1.85.07-1.29.12-3.18.31-3.25.36-.14.08,1.54-.13,2.14-.16Z"/><path d="m48.69,8.82c-.92.04-1.5.04-2.17.09-.84.07-2.35.19-2.4.26-.03.03.52.02,1.42-.06.96-.09,1.9-.17,3.15-.29Z"/><path d="m37.49,10c-.11,0-.12-.04-.97.05-.27.03-.41.07-.61.1l1.58-.15Z"/><path d="m51.94,8.71c-.26.03-.1.02.06,0h-.06Z"/><path d="m39.05,9.89l-.37.03-.37.03c.25,0,.5-.03.74-.07Z"/><path d="m139,1.53c.16.08,1.01.19,2.19.3,1.51.15.92.02,1.07-.02-1.47-.18-1.53-.07-3.26-.29Z"/><path d="m120.14.5s.43-.13-1.58-.16c.12.05-.28.09.67.14l.91.02Z"/><path d="m138.99,1.53l-.18-.03c.06.01.13.02.18.03Z"/><path d="m65.63,17.89l1.49-.03c-.26-.02.5-.09-.7-.06-.68.02-.84.06-.79.09Z"/><path d="m85.73,17.31c1.34-.04,2.72-.1,2.71-.18-1,.06-2.11.12-2.71.18Z"/><path d="m160.83,4.83c-1.63-.33-3.34-.57-3.74-.81-.18-.11-2.28-.45-3.47-.65.64.19,1.14.36,1.95.58,1.71.48,4.9,1.05,7.48,1.61.32.07.49.09.88.21.36.12.63.21.8.31.08.05.15.09.16.16,0,.05-.02.1-.02.11,0,.01.03.02.07-.05.06-.06,0-.21-.08-.27-.15-.15-.41-.28-.76-.42-.6-.23-.6-.21-.97-.24-.17,0-.14.04-1.25-.23-.34-.08-.71-.21-1.06-.32Z"/><path d="m156.91,6.39l.89.06c1.58-.04-.85-.3-.77-.42l-2.47-.08c-.24.1,3.01.36,2.35.44Z"/><path d="m161.06,6.2c-.89-.04-1.81-.09-2.48-.09.02,0,0,.01.08.02,1.1.1.89.21,2.24.25,1.99.04-.23-.13.15-.18Z"/><path d="m164.48,6.09c-.21-.09-.47-.17-.45-.16.07.04.21.13.33.19.1.03.25.1.25.1.02-.01-.06-.08-.13-.14Z"/><path d="m152.91,3.69c.53.09,1.08.2,1.21.18-.51-.09-1.22-.24-1.21-.18Z"/><path d="m155.21,4.05l.34.04c-.15-.02-.29-.04-.34-.04Z"/><path d="m32.99,9.48l2.3-.32c.67-.24,4.53-.71,5.77-.96-.13-.03.19-.14-1.67.1.79-.03-.55.17-1.4.3-1.04.16-1.54.17-1.93.19l-2.34.31c-4.37.75-4.44.8-.74.39Z"/><path d="m36.07,8.79c.4-.01.9-.03,1.93-.19.85-.13,2.19-.33,1.4-.3-1.26.16-2.83.33-3.33.49Z"/><path d="m24.62,10.49c2.23-.17,2.91-.47,4.34-.7-1.78.19-3.08.45-4.34.7Z"/><path d="m19.91,11.21l.83-.14c-.28.01-.56.06-.83.14Z"/><path d="m125.95,4.83c1.61.05,1.69,0,1.82-.04-.24-.08.6-.04,1.5.02.51-.05.16-.16,2.48-.09.48-.07-2.06-.14-2.42-.21-3.28,0-3.55.16-3.38.33Z"/><path d="m152.1,6.02l1.03.05c-.58-.07-.73-.04-1.03-.05Z"/><path d="m151.99,14.58c-.39.04-.5.08-.6.12,1.65-.04,3.3-.08,4.94-.13,1.48-.04,1.52-.09,1.58-.14-.88.01-1.97.05-2.49.02l-3.43.13Z"/><path d="m175.1,14.01s-.12-.08-1.03-.07c-.41,0-.95.04-1.43.07.59.03,1.55.01,2.46,0Z"/><path d="m155.42,14.46c.53.04,1.61,0,2.49-.02-.51-.04-1.52,0-2.49.02Z"/><path d="m165.25,14.43s.77-.06.04-.06c-.08,0-.31,0-.38.01-.47.04-.2.05.33.05Z"/><path d="m93.27,4.56c1.38-.06,2.62.16,4.1-.08.23-.16-2.76-.03-4.14-.03.02.03.03.07.04.11Z"/><path d="m110.43,4.31h-.34c.1,0,.21,0,.34,0Z"/><path d="m93.23,4.46h-.18c.06,0,.13,0,.18,0Z"/><path d="m180.54,13.01l-1.66-.17-.1.06c1.16.12,1.72.16,1.76.11Z"/><path d="m95.17,16.89c4.18-.1,4.67-.24,4.67-.38l-.9-.12c-3.11.03-4.88.25-7.29.38-.29.14-.08.24,3.53.11Z"/><path d="m134.77,15.11h.36s-.15-.02-.36,0Z"/><path d="m82.7,1.21h-.58s.26.03.26.03c.11,0,.22-.02.33-.03Z"/><path d="m126.8,15.36c.29,0,.57,0,.87,0,0,0,.15-.01.23-.02-.36,0-.71.01-1.1.02Z"/><path d="m80.2,17.12h-1.57c.11.06.19.1,1.57,0Z"/><path d="m151.39,14.7l.32-.11c-.81.02-1.71.05-1.84.1-.14.05.65.04,1.52.02Z"/><path d="m120.95,4.61c.09-.04.12-.07-.68-.12.09.04-.28.07.68.12Z"/><path d="m116.97,4.31l.17.02c-.06,0-.12-.01-.17-.02Z"/><path d="m123.44,4.53c-.17-.03-.16-.07-.56-.09-.53-.03-1.03-.01-.86.01.33.05-1.34.09,1.17.15l.24-.07Z"/><path d="m123.44,4.53l-.24.07c1.25.02,1.15-.01.24-.07Z"/><path d="m72.52,5.29c-.11,0-.22,0-.36,0-.02,0-.29.03-.3.03-.03.01.01.02.03.03l.64-.06Z"/><path d="m34.41,18.42h.33c-.12,0-.24,0-.33,0Z"/><path d="m42.51,3.23l-1.27.16h.32c.33-.06.66-.12.94-.16Z"/><path d="m79.85,4.75l1.05-.03c-.08-.02-.29-.02-.5-.03l-.54.05Z"/><path d="m129.27,4.8c-.9-.05-1.74-.1-1.5-.02l1.5.02Z"/>
                  </g>
                </mask>
              </defs>
              <path class="mask" d="m14.3,7.99c7.71-1.94,19.44-4.39,34.1-5.43,4.5-.32,7.76-.39,10.16-.45C104.21,1,110.81-.44,128.79.76c18.94,1.27,36.18,4.51,36.09,5.49-.13,1.38-34.26-3.26-79-1.52C40.87,6.49.15,14.12.36,16.72c.27,3.34,68.31.82,86.06.27,11.9-.37,16.99-.7,27.71-1.15,5.99-.25,17.07-.65,29.15-1.01,32.6-.98,41.79-.59,41.8-1.06.04-1.17-56.32-4.79-120.18-5.4-1.94-.02-3.57-.03-4.78-.04,0,0-4.35-.03-18.32,1.21-13.11,1.17-30.55,2.67-36.78,9.53-.76.84-2.54,2.79-2.15,5.03.46,2.63,3.61,3.98,4.27,4.25"
                    mask="url(#path-mask)" stroke="black" stroke-width="2" fill="none"
                    stroke-dasharray="696.8987426757812" stroke-dashoffset="696.8987426757812">
              </path>
            </svg>
        