
            <svg xmlns="http://www.w3.org/2000/svg">
              <defs>
                <mask id="path-mask">
                  <g fill="white">
                    <path d="m350.85,1.7c1.38-.15.5-.45.77-.68l.99.1c.81.21,1.76.35,2.54.61,1.59.53,4.56.29,5.83-.35.87.05,1.42-.05,1.79-.25,1.16.17,2.88-.23,3.78.2.25.28,1.27.54.42.86-.61.21-1.28.32-2.27.14-.82-.15-1.56-.12-2.02.14h-.77c-.95.16-2.25-.66-2.99.09-.15,0-.36-.01-.54-.02-.18,0-.32-.01-.32,0-.75.65-2.51.37-4.03.31l-.02-.17c.42-.08.33-.12-.14-.14-.08.01-.16.01-.24.01l-.05-.25c.26-.02.64.01.64-.1,0-.02-.19-.07-.28-.07-.44,0-.31.1-.36.16l-1.51.13c-.12.01-.25.01-.37.01.19-.14,1.42-.27.33-.42-1.16-.16-1.54.08-1.78.31-.22.24-.71.29-1.48.14-.08-.35-1.19-.22-1.96-.26l.04-.11c.73-.19.16-.22-.47-.24-.85-.23-.92.12-1.46.13l-.11-.05.12.04c-.05.2.27.46-1.27.38-.96-.05-1.78.03-1.61.35l-.95.04-.84-.4c.52-.01.75-.09.79-.21.62-.12.67-.24.06-.37-.83-.02-1.1-.12-.81-.32.14-.09.33-.21-.22-.23-.32-.01-1.01.08-1.01.12.1.52-2.08.55-2.93.85-.17.06-.25.14-.36.21l-.15.15c-1.95.03-4-.13-5.75.27-.44.1-1.06-.02-1.5-.09-.8-.13-1.33-.07-1.76.12l-3.76-.2-.07-.16c-.11-.22-.71-.32-1.47-.29-.59.02-.39.19-.44.3-2.09.09-4.17.19-6.36.24l.09.05c-.03.06.14.14-.27.16-.12.09-.16.19-.7.18.19-.33-.86-.41-1.71-.46-1.83-.12-3.96-.3-5.56-.1-1.11.14-1.86.16-2.94.15-.65,0-.29.22-.34.35l-6.29.05v-.24c.42-.14.32-.28.12-.43-.35-.27.18-.4,1.3-.39l.99-.13c.59-.02,1.3.03,1.56-.18l-1.09-.07c-.14-.12-.78-.24.05-.35.43.13.88.15,1.33,0h1.56c.64.4,1.91.67,3.31.92.98-.27,2.42-.46,2.62-.87,1.37.05,2.74.13,4.13,0,.03.14-.12.31.15.4.36.13-1.08.34.23.35.91,0,.73-.2.63-.36-.05-.07-.05-.33.54-.09,1.08.45.85-.18,1.79-.1.14.06.25.18.43.18.54.02.53-.11.68-.2,1.76.03,3.46-.19,5.33.01.97.11,1.49-.27,1.77-.51l8.62-.02c0,.08-.1.17,0,.24.27.2-1.11.58.38.59,1.32,0,.18-.34.37-.53.05-.05.49-.08.75-.12,2.43-.29,5.05-.26,7.57-.26.73,0,1.92-.33,2.51.06.67.36,5.02.81,6.42.65Zm-8.35-.47l-.27.12c.12.01.27.04.37.03.09,0,.14-.05.21-.09-.1-.02-.2-.04-.3-.06Zm-14.32.47c-.05,0-.13-.01-.2-.02,0,.05.09.05.2.02Z"/><path d="m35.14,3.15c-3.22.13-6.39-.1-9.59-.13-.42-.67-2.49-.3-3.83-.39-.27-.2-.23-.44-1.66-.25-.87.12-2.12.06-3.23.08-.89-.09,1.85-.82-1.41-.48-.48-.02-1.15.06-1.22-.17-.03-.12-.5-.26-.92-.22-.43.04-.84.18-.99.3-.26.2.58.11.84.16.51.11.88.27,1.31.4-.26.16-1.44.07-1.37.32-.72-.36-3.24.12-3.24-.38,0-.25,1.02-.53,1.46-.83.45-.31,2.4-.37,3.94-.32.7.03,1.36.14,2.05.15.67.02,1.49.22,1.98.03.52-.2-1.32-.12-.98-.36,1.06-.17,2.18-.24,3.41-.09.09.39.41.68,2.26.35,1.37-.25,3.1.3,4.43-.09h.51s.97.12.97.12c1.62.42,3.37.5,5.27.14,1.12.32,2.39.48,4.03.26h.7c-.08.03-.14.07-.25.09-.92.14-1.54.3-.59.57.25.07.93.15.82.03-.27-.28,2.76-.37.54-.76.6-.04,1.48.02,1.47-.25h1.04c.04.16-.8.3-.09.43.56.1,1.17.04,1.63-.08h.66c1.35.06,1.43.33,1.62.58.11.15.43.26,1.07.27.24,0,.62-.06.69-.11.21-.15-.31-.19-.72-.25-1.49-.22,1.2-.47-.1-.69.32-.24,1.16-.22,1.94-.22v.17c0,.17-1.16.39.07.48.91.07,1.55-.14,1.37-.41h1.2s1.65.25,1.65.25c.46.19.69.39.29.61-.18.1-.14.2.39.22.63.02.73-.1.83-.22l.89.12.02.37c-1.5-.04-3.2.11-4.2-.37-.38-.18-.94-.08-1.03.1-.07.13.05.28-.58.36-2.61.32-5.29.34-8.05.09-1.67-.48-5.17-.46-7.27.04Zm-17.12-1.19c.18,0,.35-.05.53-.08-.15-.04-.28-.1-.45-.1-.17,0-.37.04-.69.08.28.05.45.1.61.1Z"/><path d="m192.54,2c1.25-.1,1.83.13,2.48.33.32.1.11.39,1.11.28.81-.09.62-.29.47-.47-.15-.17-.22-.35-.33-.52l2.96-.06c.01.18-.33.43,1.01.4,1.01-.02,1.47.09,1.44.34-.11.14-1.29.17-.71.38.21.07.67.15.98.14,1.03-.03.35-.25.57-.38.13-.07.22-.15.41-.21.37-.11,1.45-.18,1.05-.33-.47-.17-1.25.1-1.96.07v-.34c2.8-.09,5.52.01,8.21.21-.44.38-.72.81-3.03.5-.38-.05-1-.03-1.15.12-.17.16.31.2.83.23.17.19.34.39.45.6l-.76.1.62.16c-1.82.24-3.53.18-5.14-.12-.42-.23-1.24-.5-2.08-.27-1.6.44-4.51-.23-5.58.48-1.56-.18-3.21-.05-4.81-.07.07-.42-1.16-.48-2.19-.36-.92.11-1.46.07-2.15-.04.24-.37,1.86-.11,2.51-.34.24-.09,1.07.28,1.43.01.22-.16-.58-.31-1.08-.44-.51-.13-.9-.16-1.6-.02-.88.17-1.9.29-2.69-.09-.47-.23-1.33-.06-1.83.03-.87.15-.17.25.34.35.81.16,1.6.34,1.45.64l-.51.11c-.9-.47-2.65-.29-4.13-.34-.57-.02-1.9.15-1.51-.3.09-.11-1.7.07-1.75.19-.11.25-.59.23-1.24.23h-.48c-.89.09-1.96.27-1.59-.21.45-.27.43-.26-.33-.35-.33-.04-.78-.1-.85-.18-.25-.26,1.09-.18,1.31-.36,1.36-.05,2.8-.32,3.96.13.3.12,1.16-.06,1.11-.09-.24-.17,1.64-.24.32-.43.06-.12.2-.14.75-.12,1.78.06,3.57.25,5.38.03.26.89,2.29.18,3.47.24,1.37,0,2.37-.33,3.82-.25-.34.24-1.37.59,1.04.4Zm5.67.39l-.28.11c.12.01.27.04.37.03.09,0,.14-.05.21-.08-.1-.02-.2-.04-.3-.06Z"/><path d="m397.13,2.39c1.72-.21,3.81.13,5.39-.28,1.4.5,3.54.07,5.2.21.47.04.65.02.99-.05,1.04-.2,1.28-1.21.14-1.33-1.21-.12-1.59-.31-1.9-.59-.32-.29-.92-.58-2.06-.09-.13.05-.6.11-.8.1-1.97-.17-3.87.09-5.82.11-4.48.04-8.96.15-13.44.24v.27c.39,0,.7,0,.79.12.67-.06,1.46-.13,2.01-.13,1.33-.02,2.96-.29,4.01.09.63.22,5.2.61,6.12.46.15-.03.31-.1.29-.14-.23-.37.64-.2,1.03-.12.47.09.76.24,1.17.35.23.06.96-.04.89.1-.04.09-.46.17-1.02.21-1.18.07-2.84,0-2.99.49Z"/><path d="m142.83,3.63c1.17-.08,2.56-.02,3.33-.34-.34-.04-.77-.13-1-.11-.9.09-1.76.23-2.42-.08-.54-.25.22-.39.77-.56.98-.3,1.73-.16,2.52.05.49.13,1.32.18,1.73.08,1.38-.35,1.99-.02,2.82.16.53.02,1.19-.03,1.33.16.03.04-.21.13-.31.13-.69-.01-.71-.18-1.01-.29l-1.48.62c.97.5,2.24.18,3.43.08-.03-.17.05-.32.91-.35-.01-.12.06-.24-.06-.35-.38-.33,1.04-.28,1.47-.44.12-.04.41-.08.5,0,.18.18-.3.26-.83.36-.3.06-.08.28-.09.43.47-.17,1.81.1,1.95-.24-.17-.04-.65-.07-.18-.16l.17.16c.68.08.27.39,1.12.38.3,0,.54-.24.81-.38-.01-.1.09-.19.5-.24-.02-.04-.05-.07-.07-.11h-.45c-.75-.2-3.09-.41.09-.57.21-.01.3-.16.45-.24-1.37,0-2.81.19-4.05-.18-.15-.04-1.99.25-3.22.27-.34.15-.76.17-1.5.19-2.16.05-4.42-.27-6.49.09-.83-.37-2.32.05-3.2-.16-.86-.2-1.55-.26-2.61-.08-1.45.24-2.08.06-2.11-.32l-2.39.04c.11.24-.55.39-1.03.56,1.09.31,2.23.62-.09.91-.3.04-.1.14.19.19.93-.24,2.3.1,3.09-.1,1.82-.47,1.45,0,1.7.22h.51c.05-.14.32-.22.9-.22.07-.18.45-.24,1.01-.25l-.04-.2c.55.02.46.12.46.21,1.08.2,2.72.24,2.89.68Z"/><path d="m370,2.16c.62,0,1.06-.09,1.38-.21.68-.25,1.53-.49.24-.77-2.02-.44-2.1.24-3.14.36l-1.92-.2c-.9-.43-2.62-.04-3.78-.2l-.03-.31c1.11.03,2.4-.33,3.23-.06,1.05.33,2.14.24,3.37.16,4.82-.31,9.67-.31,14.54-.21.09.15.08.29-.52.38h-.93s-.48-.12-.48-.12c-.15-.06-.29-.07-.44,0-3.07.09-3.49.23-2.32.75.04.02.05.04.07.05,2.71-.35,3.44.7,6.09.48,1.1-.09,2.57-.13,2.87.32-.72.01-1.53.38-1.77.19-.46-.36-1.22-.17-1.96-.17-2.64,0-5.21-.03-7.91.05-3.85.12-7.84-.02-11.78.07-.78.02-2.04.13-2.1-.25.46-.26,1.2-.29,2.02-.14.99.18,1.66.08,2.27-.14,1.02.11,2.03.25,3.02-.04Zm4.83-.88c.02.13.3.36,1.09.29.76-.08,1.88-.26,1.92-.4.08-.29-.91,0-1.26-.06-.69.04-1.8-.21-1.74.18Zm2.27,1.07c.5,0,1.39,0,1.42-.23.02-.13-.31-.25-.84-.23-.57.01-1.12.09-1.86.15.54.14.88.3,1.28.31Zm-2.94-.84h-.29s.04.04.04.04c.22,0,.23-.02.25-.04Z"/><path d="m61.12,3.33c1.2-.1,2.13-.06,3.48.06,1.96.18,4.4.06,6.63.03,1.11-.02,2.31.14,3.35-.06v-.35c-.23-.16-.87-.41-.11-.47,2.23-.17,1.93-.8,3.48-1.07-.82,0-1.55.08-2.19.2-.08,0-.15.01-.21.03-.09.16.26.37-.63.44-.7.06-1.2-.01-1.3-.21l-.12-.05.11.05c1.03.12,1.07-.26,1.92-.23.05-.02.07-.04.06-.06-.98-.37-2.18-.01-3.25-.07-1.37.36-2.81.34-4.27.03-.44-.09-.72-.22-1.21-.01-.75.33-1.84.21-2.89.09-1.5.25-.81.58-.45.89.1.08.41.2-.12.25-.45.04-.72-.04-.9-.14h-.53c.28.27-1.15.39-.85.66Z"/><path d="m228.59,3.27c.95.2,1.94.36,3.25.19,1.63-.35,3.36-.41,5.21-.12.35-.16,1.01-.19,1.59-.26l.98.1c-.12-.11-.3-.32-.34-.32-1.79.08-2.99-.36-4.72-.32-1.26.03-2.4.01-2.74-.37-.01-.01-.14-.02-.21-.02l-.71.13c.21.43-1.06.39-2.02.35-3.18-.11-6.37.13-9.59-.09-1.94-.13-2.05-.02-1.12-.48.28-.14.47-.29.7-.44-1.85.09-3.99-.14-5.48.33.35.04.68.09,1.05.1.59.02,1.44-.24,1.7.02.11.11-.82.31-1.42.43-.31.06-.91.04-1.38.05-.39,0-.82,0-1.01.11-.25.14.16.21.57.28.64.1.81.35,1.79.34,1.25.25,2.62.39,4.26.26,1.87-.37,4.07-.37,6.27-.35-.03-.1.07-.23.47-.22.7,0,.26.17.41.26.93-.35,1.89-.78,2.49.04Z"/><path d="m382.43,1.09l-.48-.12h-.22s-.22,0-.22,0c-3.07.09-3.49.23-2.32.75.04.02.05.04.07.05,2.71-.35,3.44.7,6.09.48,1.1-.09,2.57-.13,2.87.32.8-.2,2.23-.1,2.82-.39-.77-.24-.02-.61.38-.61,1.18,0,.46.32.63.5.03.04,0,.08,0,.12.9.34,2.43-.06,3.44.15.62-.13,1.17-.12,1.64.04.15-.49,1.82-.41,2.99-.49.56-.04.98-.12,1.02-.21.07-.14-.66-.03-.89-.1-.41-.11-.7-.26-1.17-.35-.39-.08-1.26-.25-1.03.12.02.04-.14.11-.29.14-.93.15-5.49-.23-6.12-.46-1.05-.37-2.68-.1-4.01-.09-.55,0-1.35.07-2.01.13-.65.12-.68-.01-.77-.12v-.27s-.96,0-.96,0c.09.15.08.29-.52.38-.12.06-.2.16-.36.17-.5.03-.51-.09-.57-.17Z"/><path d="m82.25,1.56l.03.14c.39.27.7.56,1.18.82,1.04.56,2.95.63,4.51.16.19-.06.29-.15.53-.18.89-.11.95-.52.07-.68q-.37-.07-.58.2c-.1.12-.07.29-.74.29-.21,0-.43-.14-.65-.22-1.26-.1-1.18-.39-1.46-.63,1.44-.15,2.92-.13,4.41-.04-.61.38.84.48,1.53.68l.75-.23,1.52-.11s.03.06.02.1c-.93.43.51.81.46,1.22h-.92s0-.04-.05-.05c-.65-.13-.53-.54-1.32-.47-1.17.1.14.4-.09.61l-.55.27c-2.22-.05-4.49.06-6.66-.15h-.94s-.04-.24-.04-.24l.2-.06-.26.05h-.59c-.3-.02-.73-.13-.72.07l-.96.12.13-.04.15.04c-.66-.27-2.29-.24-2.75-.68-.22-.21-2.28.18-3.4.35-.19.03-.31.08-.45.13-.25-.16-.88-.41-.12-.47,2.23-.17,1.93-.8,3.48-1.07,1.49-.15,2.92-.13,4.3.09Zm6.34,1.32c.04.07.15.13.23.2.06-.03.18-.07.18-.1,0-.05-.07-.11-.12-.18-.14.04-.3.07-.29.09Z"/><path d="m153.43,3.18c-.86.03-.94.18-.91.35l.81.04.62-.02c1.55.08,3.04.2,4.68.04.67-.07,1.64-.08,2.44.05.88.14,2.54.15,2.82.11,2.98-.41,5.85-.2,8.71.01,1.05.08,1.71-.11,2.57-.11h13.17c.47,0,.95.05,1.23-.09.07-.42-1.16-.48-2.19-.36-.92.11-1.46.07-2.15-.04-.32.16-.94.12-1.47.14l-.51.11c-.9-.47-2.65-.29-4.13-.34-.57-.02-1.9.15-1.51-.3.09-.11-1.7.07-1.75.19-.11.25-.59.23-1.24.23-.16.11-.32.11-.49,0-.88.1-1.95.27-1.58-.21h-.72c-.76.18-1.54.33-2.59.11-.87.28-1.71.65-2.83.05l-1.39-.02c-.3.29-1.23.19-1.98.2-1.1.02-.9-.19-.98-.35-1.27.42-2.53.29-3.8,0-.27.13-.51.37-.81.38-.85.01-.43-.3-1.12-.38-.12.34-1.46.07-1.94.24h-.98Z"/><path d="m101.98,3.33c.68.22,1.43.34,2.44.12-.57-.2-1.14-.41-.46-.64.54-.18.94.14,1.52.06.76.39,1.19.16,1.69-.04.57-.23,1.13-.28,1.52.04,1.36-.07,1.16-.37,1.4-.6-.2-.27-1.3-.37-1.84-.58-.91-.25-2.11-.31-3.26-.2-.86.08-1.61.09-2.44.03-.84.15.03.58-1.43.59-1.08,0-.9-.28-1.07-.46l-.96.03c.07.17.2.35.18.52,0,.11-.45.16-.87.15-.36,0-.63-.07-.43-.15.31-.12,1.15-.23.26-.36-.22-.03-1.01.19-1.53.29-.17.04-.25.15-.59.04l.61-.04c-.36-.49-1.57-.39-2.83-.26-.39.4,1.53.6,1.39.98,2.08-.22,2.05.1,1.89.46.83-.06,1.52.19,2.38.08-.12-.41.8-.77,2.24-.72,1.99.07-.64.36.04.56.09.03.11.07.16.11Z"/><path d="m281.02,2.91h.78s1.51-.14,1.51-.14l.56-.02s-.03-.07-.05-.1c-.33-.04-.49-.1-.21-.19.04-.01.18-.02.22-.01.43.07-.02.14-.03.2.79.02,1.37-.05,1.74-.24,1.17-.6,3.03-.12,2.99.02-.12.45,1.14.42,2.04.53,1.14-.16,2.28-.31,3.43-.47.51-.06,1.48-.02,1.21-.26-.23-.2-1.29-.05-1.56-.11-.83-.19-2.12.39-2.58-.1-.63-.03-1.38-.02-1.48-.25-.53,0-1.1.03-1.45-.11-1.17-.03-2.35-.06-3.51-.1-2.3-.09-4.29.4-6.61.24v.28c.57-.01,1.17-.04,1.46.13-.04.16-.05.32-.93.33l.41.35h2.04Z"/><path d="m132.31,3.29c-.3-.05-.49-.15-.19-.19,2.31-.29,1.18-.6.09-.91l-.89.03.02.35.11.05-.1-.05c-.81-.12-2.57.14-2.43-.37-1.34.04-2.56-.41-4.06-.06-.21.05-1.15-.09-1.2-.29l-1.42-.05c-.62.29-2.4.4-2.06.84.02.02-.31.06-.47.09-1.05-.7-1.49.17-2.32.05,0,.04,0,.08,0,.12,2.42.65,3,.05,3.85-.35l.18-.03-.2.03c.49.06,1.38.11,1.4.17.24.88,2.01.33,3.44.28,1.49-.05,3.22-.22,4.53.16.65.1.55.41,1.68.38l.03-.25Z"/><path d="m55.37,2.43l.89.12c2.17.09,2.14.47,1.91.87.71.14.68-.09,1.03-.12-.64-.55.43-1.02,2.4-1.07-.45-.28-.49-.56,0-.84-.5-.29-.92-.09-1.35,0,.29.06.36.16-.03.17-.53.02-.44-.12-.5-.21-1.15-.4-2.84-.14-4.06-.13-2,.02-4.18-.19-6.08.12v.17s1.4.06,1.4.06c.44-.21.83-.1,1.23,0l1.65.25c.12-.16.22-.33,1.11-.3.6.02.94.13,1.23.26.67.3-.25.46-.83.64Z"/><path d="m291.08,2.03c.47.49,1.75-.09,2.58.1.27.06,1.33-.09,1.56.11.28.24-.7.19-1.21.26-1.16.16-2.29.31-3.43.47l.42.21h.56c1.54-.36,3.51-.16,5.25-.27.41-.14.31-.28.11-.43-.35-.27.18-.4,1.3-.39l.02-.12c.02-.17.35-.25,1.03-.23.14,0,.28,0,.41-.02-.14-.12-.78-.24.05-.35l-.04-.12c-2.75-.06-5.49-.18-8.25.02.44.27,1.26.55-.36.77Z"/><path d="m251.66,3.27c.57-.01.52.48,1.53.11.76-.28,1.48.11,2.23,0,.21-.47,1.24-.38,2.31-.21.91.14,1.67.07,2.35-.09.71-.17,1.03-.36.27-.57-1.01-.02-1.95-.18-3.03-.08-3.39.32-3.76.31-6.48-.05-.06,0-.19-.02-.21-.01-1.38.45-3.49-.18-4.9.22.14.21.15.44,1.11.54.03-.15.26-.17.91-.15,1.38.05,2.67.14,3.9.29Z"/><path d="m291.08,2.03c1.62-.22.81-.5.36-.77-1.07-.13-1.79-.37-3.32,0-1.1.26-3.31,0-5.08.04-2.38.05-4.87.16-7.28,0-1.05-.07-1.75-.04-1.63.29.11.33.97.31,1.92.25l1.98-.03c2.32.16,4.31-.33,6.61-.24,1.16.03,2.34.06,3.51.1.28-.06.6-.17.84-.16.53.02.58.16.6.28.1.23.85.22,1.48.25Z"/><path d="m121.24,2.55c-.85.4-1.43,1-3.85.35l-1.94.15c-.52.09-1.05.17-.92.36.91.31,2.1.08,3.09.08,3.8-.02,7.6.15,11.43-.04,1.02-.05,1.17-.16,1.56-.3-1.32-.38-3.04-.22-4.53-.16-1.43.05-3.2.6-3.44-.28-.02-.06-.91-.11-1.38-.17Z"/><path d="m218.86,1.61c-.23.15-.42.3-.7.44-.93.46-.82.35,1.12.48,3.22.22,6.41-.02,9.59.09.97.03,2.23.08,2.02-.35-1.8-.45-3.77-.38-5.94-.15-1.4.15-2.46.06-2.2-.41-1.4.2-2.57-.14-3.91-.1Z"/><path d="m245.74,2.6c1.41-.4,3.52.23,4.9-.22.02,0,.15,0,.21.01,2.72.36,3.09.37,6.48.05,1.09-.1,2.02.06,3.03.08-.43-.39-.9-.77-2.57-.96l-1.22.25c-.45.25-1.14.23-2.13.19-1.2-.05-2.64,0-3.68-.03-2.09-.05-3.95.36-5.94.11l.53.5c.13,0,.26,0,.39.01Z"/><path d="m270.19,1.82c-.63.38-1.13.73,1.38.77.81.01.3.17.24.27-1.23.24-2.6.1-3.48-.05-2.24-.39-2.75-.05-3.23.39l-.46.03c-1.47-.21-3.89-.31-1.6-.94.41-.11.4-.32.59-.49,1.27,0,2.54-.02,3.8-.03.82,0,1.44-.01,1.52-.26l1.41.03c-.05.1-.03.2-.18.29Zm-4.04.36s-.13-.01-.25.03c.07,0,.14,0,.25-.03Z"/><path d="m13.07,2.76c-.72-.36-3.24.12-3.24-.38,0-.25,1.02-.53,1.46-.83.45-.31,2.4-.37,3.94-.32.7.03,1.36.14,2.05.15.67.02,1.49.22,1.98.03.52-.2-1.32-.12-.98-.36-2.27-.42-5.1.04-7.45-.35-.74-.12-.58.23-1.18.27-.58.14,2.01.34-.12.45-.72.37-2.59.57-2.31,1.08.44.03,1.01.04,1.3.11.71.18.69.8,2.51.24,0,0,.17.03.38.08.21.04.47.09.67.11,1.18.11,2.31.07,3.3-.12-.34-.48-1.66,0-2.32-.16Z"/><path d="m6.75,1.08c-.59-.02-1.01-.09-1.32-.23-.76-.34-2.21-.56-3.35-.35C1.06.69.14,1.02.03,1.42c-.21.73,1.06.97,3.9.85.69-.03,1.56.15,2.34.24.86-.29.53-.59-.4-.8-.94-.21-1.81-.06-2.48.18-.25.09-1.38.23-1.28-.04.09-.24-.57-.46-.15-.69.26-.14.38-.32,1.15-.34.8-.02,1.15.14,1.24.3.1.18.21.32,1.1.31.86-.01,1.3-.12,1.3-.34Z"/><path d="m244.82,2.09c1.99.25,3.85-.17,5.94-.11,1.04.03,2.48-.01,3.68.03.98.04,1.68.06,2.13-.19-1.68-.6-4.19-.25-6.27-.27-3.09-.03-6.26.25-9.27-.12l-.25.16c.45.18,2.02.39-.38.48-.78.03-1.23.23.12.3,1.42-.1,2.46-.6,4.29-.27Z"/><path d="m135.62,1.59c.03.38.66.57,2.11.32,1.07-.18,1.76-.12,2.61.08.88.21,2.37-.21,3.2.16,2.07-.36,4.33-.04,6.49-.09.74-.02,1.16-.04,1.5-.19-1.99-.33-4.14-.35-6.46-.29-1.48.03-2.98.06-4.59-.08-1.41-.12-3.22.05-4.86.09Z"/><path d="m41.83,1.43h1.04s1.54.34,1.54.34h.66s2.14-.23,2.14-.23c-1.26-.61-3.77-.43-5.58-.46-3.59-.06-7.21.08-10.82.14l-.96.12c1.62.42,3.37.5,5.27.14,1.54-.11,3.16-.32,4.03.26h.7s.5-.03.5-.03c0-.09-.03-.13-.05-.17l-.15-.09.34.04,1.34-.08Z"/><path d="m308.55,1.41c1.37.05,2.74.13,4.13,0,1.1-.02,2.15,0,2.96.21.74,0,1.11-.01,1.48-.02,1.76.03,3.46-.19,5.33.01.97.11,1.49-.27,1.77-.51-5.29-.09-10.58-.09-15.87.1l.2.21Z"/><path d="m271.8,2.86c-1.23.24-2.6.1-3.48-.05-2.24-.39-2.75-.05-3.23.39,3.68.11,7.37.32,11.04-.05.89-.09,1.45.17,2.17.13,1-.06,2.53.09,2.71-.36h-2.04s-3.35-.09-3.35-.09l-3.83.04Z"/><path d="m344.92,2.01c-.05.2.27.46-1.27.38-.96-.05-1.78.03-1.61.35,3.95.22,7.9.44,11.99.11l-.02-.17-.14-.14c-.08.01-.16.01-.24.01-.69.08-1.37.16-1.57-.12-.12.01-.25.01-.37.01l-1.45-.1c-.22.24-.71.29-1.48.14-.85-.03-1.74.26-2.51.03-.26-.08.13-.21.55-.28l.04-.11-.47-.24c-.85-.23-.92.12-1.44.13Z"/><path d="m264.64,3.22c-1.47-.21-3.89-.31-1.6-.94.41-.11.4-.32.59-.49-.7-.03-.47-.17-.51-.27l-.94.04c.29.26-.92.37-.95.6l.63.05s-.14.04-.14.04c-.17-.03-.34-.06-.51-.09-.84-.16-.32-.39-.5-.59-.95-.29-1.92-.33-2.92,0,1.67.18,2.14.56,2.57.96.76.21.44.4-.27.57-.69.16-1.44.24-2.35.09-1.08-.17-2.1-.26-2.31.21,2.42.06,4.9-.15,7.29.05.95.08,1.44-.06,1.93-.22Z"/><path d="m240.52,2.35c-1.35-.07-.91-.27-.12-.3,2.4-.09.82-.29.38-.48-.41.23-1.16.06-1.74.1.06.15-.38.37-.73.31-1.75-.3-2.99.18-4.52.15-.81.19-.86.03-.92-.12-.83-.19-1.03-.02-1.27.14.07,0,.2.01.21.02.34.38,1.49.4,2.74.37,1.73-.04,2.93.39,4.72.32.04,0,.23.21.34.32l1.87.22.99.13.11-.34c-2.12-.06-2.25-.42-2.07-.84Z"/><path d="m214.69,3.28c-.99.01-1.16-.24-1.79-.34-.41-.07-.81-.14-.57-.28.19-.11.62-.1,1.01-.11.47-.01,1.06.01,1.38-.05.59-.12,1.52-.32,1.42-.43-.26-.26-1.11,0-1.7-.02-.36-.01-.7-.07-1.05-.1-.46-.19-.87,0-1.3.01-.72.1-1.49.24-1.28.44.83.79-1.41.79-3.41.87.25.17,1.29.09,1.37.31,1.65-.13,3.21.1,4.87.06,1.19-.03.93-.2,1.07-.35Z"/><path d="m233.8,2.13c1.53.04,2.76-.45,4.52-.15.35.06.79-.15.73-.31-3.06-.03-6.1,0-9.15.08-1.53.04-3.14-.03-4.66-.11-.92-.05-1.66,0-2.47.06-.27.47.8.56,2.2.41,2.16-.23,4.13-.3,5.94.15l.71-.13c.24-.15.44-.33,1.27-.13l.92.12Z"/><path d="m271.8,2.86l3.83-.04.04-.25c-.52,0-.98-.04-.9-.19.08-.15.61-.15,1.09-.16.18-.12.19-.25.2-.38-.95.06-1.8.08-1.92-.25-1.22-.13-2.49-.13-3.77-.05-.05.1-.03.2-.18.29-.63.38-1.13.73,1.38.77.81.01.3.17.24.27Z"/><path d="m115.44,3.05l1.94-.15v-.12s-.1-.05-.1-.05l.1.05c.83.12,1.27-.76,2.32-.05.17-.03.49-.07.47-.09-.34-.44,1.44-.55,2.06-.84-.1-.14-.53-.12-.92-.12-.51.19-1.32.13-2.03.15-.53-.08-.86.42-1.14.08-.3-.36-1.18-.13-1.67-.22-.84.24-1.23.1-1.51-.12-.5-.05-1.1-.29-1.41.04l-.22.19c.59.08.88.28,1.71.28.56.08.35.22.4.34,2.57.22-.34.43,0,.64Z"/><path d="m352.62,1.12c.81.21,1.76.35,2.54.61,1.59.53,4.56.29,5.83-.35-1.18.01-2.5.05-1.67-.43-2.27-.08-4.54-.16-6.69.17Z"/><path d="m115.44,2.42c2.57.22-.34.43,0,.64-.52.09-1.05.17-.92.36-1.46.03-3.01.37-4.34-.09-.06-.02-.09-.05-.06-.08,1.93-.37,2.08-.9,1.98-1.45h1.23c.59.08.88.28,1.71.27-.05.13-.07.25.4.34Zm-1.54.39c.31.06.6-.05.51-.11-.2-.14.79-.4-.69-.4-.74.06-.68.15-.14.25.1.09.09.21.33.26Z"/><path d="m149.1,3.45c-.45,0-.82-.24-1.33-.04-1.13.44-1.24.05-1.61-.12-.34-.04-.77-.13-1-.11-.9.09-1.76.23-2.42-.08-.54-.25.22-.39.77-.56.98-.3,1.73-.16,2.52.05.49.13,1.32.18,1.73.08,1.38-.35,1.99-.02,2.82.16l-1.48.62Zm-5.37-.47s.17-.02.18-.03c.02-.03,0-.06-.01-.09l-.37.05c.07.03.13.05.21.07Z"/><path d="m335.63,2.58c-1.95.03-4-.13-5.75.27-.44.1-1.06-.02-1.5-.09-.8-.13-1.33-.07-1.76.12,1.65.39,3.64.23,5.51.15,2.42-.11,4.68.33,7.12.04.35-.04.79-.04.95-.16-.5-.27-1.34-.34-2.3-.17-1.17.21-1.72.06-2.26-.16Z"/><path d="m6.75,1.08c0,.22-.44.33-1.3.34-.89.01-1.01-.13-1.1-.31-.09-.17-.44-.32-1.24-.3-.77.02-.9.2-1.15.34-.42.23.24.45.15.69-.1.28,1.04.13,1.28.04.67-.24,1.54-.38,2.48-.18.93.2,1.26.51.4.8.32.08.64.13.96,0-.28-.5,1.59-.71,2.31-1.08-.51-.11-.97-.22-1-.41l-1.79.05Z"/><path d="m158.28,2.95c1.27.29,2.53.42,3.8,0,.74-.36,3.03-.27,3.44-.73l-.17-.4c-.83-.13-1.59-.1-2.28.07-.11.07.2.18-.3.22l-.15-.22c-.14-.02-.29-.03-.46-.02-1.97.07-1.57.73-3.38.84-.41.05-.51.14-.5.24Z"/><path d="m291,3.17l-.42-.21c-.91-.11-2.16-.09-2.04-.53.04-.14-1.82-.62-2.99-.02-.37.19-.95.26-1.74.24.04.03.05.06.06.1l-.03.37c2.36.14,4.7.39,7.16.06Z"/><path d="m313.63,3.16c.19-.33-.86-.41-1.71-.46-1.83-.12-3.96-.3-5.56-.1-1.11.14-1.86.16-2.94.15-.65,0-.29.22-.34.35,2.31.08,4.55.24,6.97.02,1.05-.09,2.38.02,3.58.04Z"/><path d="m131.32,2.21l.89-.03c.48-.17,1.13-.32,1.02-.56-2.4-.18-4.98.12-7.41-.23-.98-.14-1.28.33-2.17.45.05.2.98.34,1.2.29,1.5-.35,2.71.1,4.06.06.87-.71,1.6.11,2.41.02Z"/><path d="m171.84,2.97h.72c.45-.26.43-.25-.33-.34-.33-.04-.78-.1-.85-.18-.25-.26,1.09-.18,1.31-.36l-1.01-.24-1.58-.08-3.21.45c2.19.37,2.14.46-.46.92,1.11.6,1.96.23,2.83-.05.85-.05,1.27-.7,2.59-.12Z"/><path d="m207.38,3.26c2.01-.08,4.24-.08,3.41-.87-.21-.2.56-.34,1.28-.44-.23-.41-1.24-.07-1.85-.12-.44.38-.72.81-3.03.5-.38-.05-1-.03-1.15.12-.17.16.31.2.81.22l.22-.02-.19.03.51.58Z"/><path d="m110.18,3.33c-.06-.02-.09-.05-.06-.08-.21-.19-1.71-.08-1.43-.38-.39-.32-.95-.27-1.52-.04-.5.2-.94.43-1.69.04-.58.07-.98-.25-1.52-.06-.68.23-.12.44.46.64,1.95.04,4.02.4,5.77-.12Z"/><path d="m81.21,3.21c-.66-.27-2.29-.24-2.75-.68-.22-.21-2.28.18-3.4.35-.19.03-.31.08-.45.13v.35c1.72.27,3.33-.18,5.03-.03l1.26-.05c.16,0,.27-.03.31-.07Z"/><path d="m344.43,1.05c.67.36,5.02.81,6.42.65,1.38-.15.5-.45.77-.68-.88.06-1.76.21-2.59-.02-.18-.05-.79-.09-.83-.07-1.12.43-2.53.05-3.77.12Z"/><path d="m13.07,2.76c.67.16,1.99-.31,2.32.16.69.21,1.37.09,2.05.01,1.14-.33,2.94-.14,4.28-.31-.27-.2-.23-.44-1.66-.25-.87.12-2.12.06-3.19.09l-.6.15-.19-.07.75-.09c-.89-.09,1.85-.82-1.41-.48-.12.19.31.44-.98.47-.26.16-1.44.07-1.37.32Z"/><path d="m314.6,2.83c-.03.06.14.14-.27.16,2.92.06,6,.47,8.53-.3l-.07-.15h-1.91c-2.09.11-4.17.21-6.27.3Z"/><path d="m21.72,2.63c-1.34.17-3.14-.02-4.28.31.15.38,1.21.08,1.76.12,2.09.14,4.24.05,6.35-.04-.42-.67-2.49-.3-3.83-.39Z"/><path d="m56.28,2.93c-1.5-.04-3.2.11-4.2-.37-.38-.18-.94-.08-1.03.1-.07.13.05.28-.58.36-.21.38,1.06.27,1.72.3,1.5.05,3.03.04,4.55.06-.12-.15.26-.33-.45-.45Z"/><path d="m63.98,1.66c1.05.11,2.14.24,2.89-.09.49-.21.77-.08,1.21.01,1.46.31,2.91.34,4.27-.03-1.36-.34-3.06-.29-4.71-.26-1.22.03-2.43.07-3.65.1v.26Z"/><path d="m191.5,1.59c-.34.24-1.37.59,1.04.4,1.25-.1,1.83.13,2.48.33.32.1.11.39,1.11.28.81-.09.62-.29.47-.47-.15-.17-.22-.35-.33-.52l-4.77-.03Z"/><path d="m97.16,3.3c.16-.35.18-.67-1.89-.46l-1.45.23h-.92c-.39.13-.93.11-1.46.1l-.55.27c-.05.24.6.18,1.11.15,1.72-.1,3.44-.19,5.16-.29Z"/><path d="m171.68,1.85l1.01.24c1.36-.05,2.8-.32,3.96.13.3.12,1.16-.06,1.11-.09-.24-.17,1.64-.24.32-.43-2.12.08-4.44-.36-6.4.15Z"/><path d="m96.7,2.13c.53-.1,1.31-.32,1.53-.29.89.13.05.24-.26.36-.21.08.06.15.43.15.41,0,.86-.04.87-.15.01-.17-.11-.35-.18-.52-1.74-.34-3.72-.27-5.68-.22l-.06.3s.03.06.02.1h.52c1.26-.12,2.47-.21,2.82.27Z"/><path d="m158.78,2.71c1.81-.11,1.41-.77,3.38-.84-1.01-.3-2.03-.56-3.36-.09-.15.08-.24.23-.45.24-3.18.16-.84.37-.09.56.08-.08,0-.2.56-.19l-.11.2s.05.07.07.11Z"/><path d="m202.04,3.42c-.42-.23-1.24-.5-2.08-.27-1.6.44-4.51-.23-5.58.48,2.6.05,5.15-.02,7.65-.21Z"/><path d="m241.49,3.39l-1.87-.22-.98-.1c0,.29-.8.27-1.59.26-1.85-.28-3.58-.23-5.21.12.16.13.66.25,1,.21,2.8-.31,5.94.16,8.66-.28Z"/><path d="m21.69.98c.09.39.41.68,2.26.35,1.37-.25,3.1.3,4.43-.09-1.99-.54-4.41-.25-6.69-.26Z"/><path d="m302.63,1.36c.64.41,1.91.68,3.31.92-.28-.41.44-.74,1.39-1.06-.97-.21-1.85-.02-2.75.06-.48.33-1.27.11-1.95.08Z"/><path d="m42.41,3.11c-1.67-.48-5.17-.46-7.27.04,2.07.23,4.15.04,6.23.05.05-.24.56-.15,1.04-.09Z"/><path d="m139.52,2.94c-.56.01-.95.07-.93.23l.62.08.14.13-.46-.04-.38-.15c-.57,0-.85.08-.9.22,1.76.05,3.28.45,5.23.23-.17-.43-1.81-.48-2.89-.68h-.42Z"/><path d="m225.22,3.19c-2.21-.02-4.4-.02-6.27.35.74.21,1.44.3,2.54.08,1.4-.27,3.14-.02,4.69-.12l-.09-.27c-.28-.01-.58-.03-.87-.04Z"/><path d="m61.6,2.23c-1.97.05-3.04.53-2.4,1.07l1.93.02c-.29-.27,1.13-.39.85-.65-.56-.13-.32-.29-.38-.44Z"/><path d="m166.89,2.22l3.21-.45c-1.62-.2-3.23-.35-4.75.05l.17.4h1.37Z"/><path d="m112.1,1.81h1.23s.22-.2.22-.2c-1.8-.08-3.63-.28-5.29.08.54.21,1.64.3,1.84.58.35-.05.64-.09.93-.12.08-.17.12-.34,1.07-.34Z"/><path d="m63.98,1.66v-.26s-2.38-.01-2.38-.01c-.49.28-.46.56,0,.84,1.17.03.89.25.91.43.18.09.45.18.9.14.53-.05.21-.17.12-.25-.36-.32-1.05-.64.45-.89Z"/><path d="m132.31,3.29l-.03.25c1.64.02,3.43.39,4.81-.13-.24-.22.12-.69-1.7-.22-.79.21-2.16-.14-3.09.1Z"/><path d="m242.6,3.19l-.11.34c1.86.23,3.54-.01,5.26-.15l-.9-.24c-.96-.11-.97-.33-1.11-.54-.13,0-.26,0-.39-.01,0,.46-.29.84-2.75.6Z"/><path d="m263.63,1.79c1.27,0,2.54-.02,3.8-.03.82,0,1.44-.01,1.52-.26-1.69-.3-3.57,0-5.33-.08,0,.12,0,.24.01.36Z"/><path d="m246.85,3.14l.9.24c1.37.15,2.79.43,3.91-.1-1.23-.15-2.52-.24-3.9-.29-.65-.02-.88,0-.91.15Z"/><path d="m101.98,3.33c-.05-.04-.07-.08-.16-.11-.69-.2,1.95-.49-.04-.56-1.44-.05-2.36.31-2.24.72.84.06,1.74.27,2.44-.05Z"/><path d="m335.63,2.58c.54.22,1.09.37,2.26.16.97-.17,1.81-.1,2.3.17.34-.03.77-.01.9-.13l-.84-.4c-1.5-.1-2.98.04-4.47.05l-.15.15Z"/><path d="m359.31.95c-.83.48.49.44,1.67.43.87.05,1.42-.06,1.79-.25l-.02-.31c-1.12.09-2.25.18-3.44.13Z"/><path d="m296.81,2.91c-1.74.11-3.71-.09-5.25.27,1.75.29,3.49-.04,5.24-.03v-.24Z"/><path d="m184.21,1.61c.26.89,2.29.18,3.47.24-.08-.17.27-.43-1.17-.31-.72.06-1.53.05-2.3.07Z"/><path d="m100.05,1.65c.17.18-.01.46,1.07.46,1.46,0,.59-.44,1.43-.59-1.17-.34-1.67.08-2.51.13Z"/><path d="m47.22,1.55l-2.14.24c1.35.05,1.43.31,1.62.57.11.15.43.26,1.07.27.24,0,.62-.06.69-.11.21-.15-.31-.19-.72-.25-1.49-.22,1.2-.47-.1-.69-.14-.02-.28-.02-.43-.02Z"/><path d="m361.91,2.48c-.95.16-2.25-.66-2.99.09q.41.44,2.99-.09Z"/><path d="m86.59,2.09c-1.26-.1-1.18-.39-1.46-.63-.99-.02-2.08-.2-2.88.1l.03.14c.71.06,1.96-.05,2.07.19.25.53,1.27.31,2.24.2Z"/><path d="m89.53,1.43c-.61.38.84.48,1.53.68l.75-.23.59-.49c-.99-.07-1.86.22-2.88.05Z"/><path d="m202.02,1.97v-.34c-.9-.1-1.8-.19-2.79-.07.01.18-.33.43,1.01.4,1.01-.02,1.47.09,1.44.34.44-.09.31-.21.34-.32Z"/><path d="m307.32,1.22c-.95.32-1.67.65-1.39,1.06.98-.27,2.42-.46,2.62-.87l-.2-.21-1.03.03Z"/><path d="m56.28,2.93c.71.12.33.3.45.45l1.44.05c.23-.41.26-.78-1.91-.87l.02.37Z"/><path d="m226.09,3.23l.09.27c.93.01,1.73-.07,2.41-.23-.6-.82-1.56-.39-2.5-.04Z"/><path d="m332.85,1.08c0,.08-.1.17,0,.24.27.2-1.11.58.38.59,1.32,0,.18-.34.37-.53.05-.05.49-.08.75-.12-.32-.15-.61-.31-1.5-.17Z"/><path d="m302.63,1.36c.68.03,1.47.25,1.95-.08l-1.05-.06c-.4.01-.74,0-.92-.1l-1.95.12.41.13h1.56Z"/><path d="m392.04,2.2s.04-.08,0-.12c-.17-.18.55-.49-.63-.5-.4,0-1.15.37-.38.61l1.01.02Z"/><path d="m261.22,2.15c.03-.23,1.25-.34.95-.6l-1.47.02c.18.2-.33.43.52.58Z"/><path d="m8.54,1.03c.03.18.49.3,1,.41,2.13-.1-.46-.31.11-.45-.09-.03-.21-.05-.37-.03h-.64c-.13.02-.17.04-.11.07Z"/><path d="m81.89,3.09l-.96.12c.42.27,1.59.19,2.31.31l.05-.24-.04-.24c-.26-.01-.46-.01-.65-.01-.07.14-.4.1-.72.06Z"/><path d="m208.75,3.57c-.08-.22-1.12-.14-1.43-.29l-.76.1.62.16c.51.07,1.03.09,1.58.03Z"/><path d="m114.96,1.57c.28.22.67.36,1.51.12-.4-.12-.57-.44-1.51-.12Z"/><path d="m283.32,2.77l-1.51.13c-.07.32.77.24,1.51.2v-.34Z"/><path d="m119.28,1.83c.72-.01,1.53.05,2.03-.15-1.03-.25-1.59-.1-2.03.15Z"/><path d="m397.12,2.39c-.47-.15-1.02-.16-1.64-.04.53.05.84.51,1.64.04Z"/><path d="m301.06,1.37l-.41-.13h-.96s.04.13.04.13c.43.13.88.15,1.33,0Z"/><path d="m75.6,1.63s-.01.04-.06.06c.07-.02.14-.03.22-.03l.14-.26-.29.23Z"/><path d="m302.6,1.12c.19.1.52.12.92.1,0-.2-.31-.23-.92-.1Z"/><path d="m59.72,1.36c.05.09-.04.22.5.21.39-.01.32-.11.03-.17l-.53-.04Z"/><path d="m83.3,3.29l-.05.24c.49-.04.84-.11,1-.24h-.94Z"/><path d="m80.89,3.28l-1.26.05c.53.16.95.15,1.26-.05Z"/><path d="m263.61,1.78v-.36c-.31-.02-.47.01-.49.09.04.1-.19.24.49.26Z"/><path d="m162.62,1.89l.15.22c.51-.04.19-.15.3-.22-.15-.02-.31-.02-.46,0Z"/><path d="m42.41,3.11c-.48-.06-.98-.15-1.04.09.44.04.87.07,1.04-.09Z"/><path d="m335.78,2.43c1.49,0,2.97-.15,4.47-.05.52-.01.75-.09.79-.21l.06-.37c-.83-.02-1.1-.12-.81-.32.14-.09.33-.21-.22-.23-.32-.01-1.01.08-1.01.12.1.52-2.08.55-2.93.85-.17.06-.25.14-.36.21Z"/><path d="m366.98,2.2c1.02.11,2.03.25,3.02-.04-1.71-.02-.32-.52-1.52-.62l-1.92-.2c.25.28,1.27.54.42.86Z"/><path d="m315.64,1.62c-.81-.21-1.86-.23-2.96-.21.03.14-.12.31.15.4.36.13-1.08.34.23.35.91,0,.73-.2.63-.36-.05-.07-.05-.33.54-.09,1.08.45.85-.18,1.42-.1Z"/><path d="m350.24,2.34l1.45.1c.19-.14,1.42-.27.33-.42-1.16-.16-1.54.08-1.78.31Z"/><path d="m346.8,2.22c-.42.07-.81.21-.55.28.78.24,1.66-.06,2.51-.03-.08-.35-1.19-.22-1.96-.26Z"/><path d="m320.88,2.54h1.91c-.11-.23-.71-.33-1.47-.3-.59.02-.39.19-.44.3Z"/><path d="m299.69,1.72c-.13.01-.27.02-.41.02l-.05.23c.58-.02,1.29.03,1.55-.18l-1.09-.07Z"/><path d="m352.06,2.43c.2.28.88.2,1.57.12l-.05-.25c-.51.04-1.01.09-1.52.13Z"/><path d="m342.8,1.29c-.1-.02-.2-.04-.3-.06l-.27.12c.12.01.27.04.37.03.09,0,.14-.05.21-.09Z"/><path d="m317.13,1.6h-1.11c.14.08.24.19.43.2.54.02.53-.11.68-.2Z"/><path d="m346.36,1.88l.47.24c.73-.19.16-.22-.47-.24Z"/><path d="m353.58,2.3c.26-.02.64.01.64-.1,0-.02-.19-.07-.28-.07-.44,0-.31.1-.35.17Z"/><path d="m341.1,1.8l-.06.37c.62-.12.67-.24.06-.37Z"/><path d="m327.99,1.69c0,.05.09.05.15.06-.01-.05-.09-.05-.15-.06Z"/><path d="m298.24,1.96l-.02.12.99-.13c-.32,0-.64,0-.97,0Z"/><path d="m344.91,2.01l-.11-.05s.08.03.11.05Z"/><path d="m353.87,2.54l.14.14c.42-.08.33-.12-.14-.14Z"/><path d="m55.37,2.43c.59-.19,1.5-.35.83-.64-.28-.13-.63-.24-1.23-.26-.89-.03-.99.14-1.11.3.46.19.69.39.29.61-.18.1-.14.2.39.22.63.02.73-.1.83-.22Z"/><path d="m14.45,2.45c1.29-.03.86-.29.98-.47-.48-.02-1.15.06-1.22-.17-.03-.12-.5-.26-.92-.22-.43.04-.84.18-.99.3-.26.2.58.11.84.16.51.11.88.27,1.31.4Z"/><path d="m39.16,1.75c-.87-.58-2.5-.37-4.03-.26,1.12.32,2.39.48,4.03.26Z"/><path d="m40.35,1.72l-.5.03c-.08.03-.14.08-.26.1-.92.14-1.54.3-.59.57.25.07.93.15.82.03-.27-.28,2.76-.37.53-.72Z"/><path d="m50.98,1.58l-1.39-.06c-.02.16-1.18.39.06.48.91.07,1.55-.14,1.33-.41Z"/><path d="m44.42,1.77l-1.54-.33c.04.14-.8.28-.09.41.56.1,1.17.04,1.63-.08Z"/><path d="m17.41,1.86c.28.05.45.1.61.1.18,0,.35-.05.53-.08-.15-.04-.28-.1-.45-.1-.17,0-.37.04-.69.08Z"/><path d="m41.83,1.43l-1.34.08-.19.05.06.12c.6-.04,1.48.02,1.47-.25Z"/><path d="m52.21,1.59c-.39-.1-.79-.22-1.2,0h1.2Z"/><path d="m20.32,1.28c.14.03.2.01.27,0-.05-.01-.1-.02-.27,0Z"/><path d="m183.76,3.3c.54-.02,1.15.01,1.47-.14.24-.37,1.86-.11,2.51-.34.24-.09,1.07.28,1.43.01.22-.16-.58-.31-1.08-.44-.51-.13-.9-.16-1.6-.02-.88.17-1.9.29-2.69-.09-.47-.23-1.33-.06-1.83.03-.87.15-.17.25.34.35.81.16,1.6.34,1.45.64Z"/><path d="m202.02,1.97c-.04.11.1.24-.34.32-.11.14-1.29.17-.71.38.21.07.67.15.98.14,1.03-.03.35-.25.57-.38.13-.07.22-.15.41-.21.37-.11,1.45-.18,1.05-.33-.47-.17-1.25.1-1.96.07Z"/><path d="m198.51,2.45c-.1-.02-.2-.04-.3-.06l-.28.11c.12.01.27.04.37.03.09,0,.14-.05.21-.08Z"/><path d="m174.63,3.19h-.48c.16,0,.32,0,.48,0Z"/><path d="m384.84.98c.1.1.13.23.77.12-.09-.11-.4-.12-.77-.12Z"/><path d="m153.43,3.18h.98c.01-.14-.21-.36.09-.42.53-.11,1.01-.18.83-.36-.09-.09-.38-.05-.5,0-.43.16-1.85.11-1.47.44.12.11.05.23.06.35Z"/><path d="m150.58,2.82c.3.11.32.28,1.01.29.1,0,.34-.09.31-.13-.14-.19-.8-.15-1.32-.17Z"/><path d="m139.52,2.94h.42c0-.08.09-.18-.47-.2l.04.2Z"/><path d="m158.71,2.6l.11-.2c-.57,0-.48.1-.56.19h.45Z"/><path d="m156.35,2.95l-.17-.16c-.46.09.01.11.17.16Z"/><path d="m368.48,1.54c1.2.1-.19.6,1.52.62.62,0,1.06-.09,1.38-.21.68-.25,1.53-.49.24-.77-2.02-.44-2.1.24-3.14.36Z"/><path d="m376.56,1.1c-.69.04-1.8-.21-1.74.18.02.13.3.36,1.09.29.76-.08,1.88-.26,1.92-.4.08-.29-.91,0-1.26-.06Z"/><path d="m375.81,2.05c.54.14.88.3,1.28.31.5,0,1.39,0,1.42-.23.02-.13-.31-.25-.84-.23-.57.01-1.12.09-1.86.15Z"/><path d="m382.43,1.09c.07.09.07.2.57.17.16,0,.24-.11.36-.17h-.93Z"/><path d="m373.9,1.55c.16-.04.06-.05-.04-.05l.04.05Z"/><path d="m381.51.98h.22s.22,0,.22,0c-.15-.06-.29-.07-.44,0Z"/><path d="m73.62,1.93c.1.2.6.27,1.3.21.89-.07.54-.28.63-.44-.87-.03-.9.35-1.93.23Z"/><path d="m62.51,2.67c-.02-.18.25-.4-.93-.44.07.15-.16.32.4.44h.53Z"/><path d="m73.61,1.93l-.11-.05s.08.03.11.05Z"/><path d="m225.22,3.19l.88.04c-.15-.09.29-.26-.41-.26-.4,0-.5.12-.47.22Z"/><path d="m237.05,3.33c.79.01,1.6.04,1.59-.26-.59.06-1.24.1-1.59.26Z"/><path d="m86.59,2.09c-.98.11-1.99.33-2.24-.2-.11-.24-1.36-.13-2.07-.19.39.27.7.56,1.18.82,1.04.56,2.95.63,4.51.16.19-.06.29-.15.53-.18.89-.11.95-.52.07-.68q-.37-.07-.58.2c-.1.12-.07.29-.74.29-.21,0-.43-.14-.65-.22Z"/><path d="m93.88,1.87h-.52c-.93.42.51.8.46,1.21l1.45-.23c.14-.38-1.78-.58-1.39-.98Z"/><path d="m91.44,3.18c.53,0,1.07.03,1.46-.09-.01-.02,0-.05-.05-.06-.65-.13-.53-.54-1.32-.47-1.17.1.14.4-.09.61Z"/><path d="m88.87,2.79c-.14.04-.3.07-.29.09.04.07.15.13.23.2.06-.03.18-.07.18-.1,0-.05-.07-.11-.12-.18Z"/><path d="m81.89,3.09c.32.03.64.07.72-.06-.3-.02-.73-.13-.72.06Z"/><path d="m83.26,3.04l.2-.06c-.09.02-.17.03-.2.06Z"/><path d="m166.89,2.22h-1.37c-.41.47-2.69.38-3.44.74.07.16-.12.37.98.35-.47-.23.33-.34.84-.41.62-.08.91.09,1.14.21l1.39.02c2.6-.46,2.65-.55.46-.92Z"/><path d="m165.04,3.11c-.23-.13-.52-.3-1.14-.21-.5.07-1.3.18-.84.41.75,0,1.68.09,1.98-.2Z"/><path d="m171.84,2.97c-1.31-.58-1.73.07-2.59.12,1.05.22,1.83.07,2.59-.12Z"/><path d="m174.64,3.19h-.5c.17.11.33.11.5,0Z"/><path d="m112.1,1.81c-.95,0-1,.17-1.07.34.14.24-.35.19-.88.12-.3.24-.09.54-1.45.61-.28.3,1.21.19,1.43.38,1.93-.37,2.08-.9,1.98-1.44Z"/><path d="m96.71,2.13l-.61.04c.34.11.43,0,.61-.04Z"/><path d="m276.02,2.22c-.23.11-.29.22-.35.34.97,0,1.94-.01,2.91-.02.87-.01.89-.17.93-.33-.52-.02-1.16.03-1.46-.13l-2.01.14Z"/><path d="m289.6,1.78c-.02-.12-.07-.26-.6-.28-.24,0-.56.11-.84.16.34.14.91.11,1.45.11Z"/><path d="m278.03,2.08c.31.16.94.11,1.46.13-.3-.17-.89-.14-1.46-.13Z"/><path d="m283.81,2.65c0-.07.46-.14.03-.2-.05,0-.18,0-.22.01-.28.09-.12.14.2.19Z"/><path d="m131.32,2.21c-.81.09-1.54-.73-2.41-.02-.14.51,1.62.24,2.43.37l-.02-.35Z"/><path d="m121.23,2.55l.2-.03c-.06,0-.12.02-.2.03Z"/><path d="m131.34,2.56l.1.05s-.07-.04-.1-.05Z"/><path d="m298.24,1.96h.98s.05-.23.05-.23c-.69-.02-1.02.06-1.03.23Z"/><path d="m242.6,3.19c2.46.23,2.74-.15,2.75-.6l-.53-.5c-1.83-.33-2.87.17-4.29.27-.17.41-.05.78,2.07.84Z"/><path d="m265.89,2.21h.21s-.09-.04-.21,0Z"/><path d="m261.21,2.16c.17.03.34.06.51.09,0,0,.09-.03.14-.04-.21-.02-.42-.03-.65-.05Z"/><path d="m233.8,2.13l-.92-.12c.06.15.11.32.92.12Z"/><path d="m275.66,2.56l.19-.35c-.48,0-1,0-1.08.16-.08.16.38.19.9.19Z"/><path d="m115.04,2.08c-.05.13-.07.25.4.34-.05-.12.16-.26-.4-.34Z"/><path d="m117.38,2.78l-.1-.05s.07.03.1.05Z"/><path d="m113.58,2.55c.1.09.09.21.33.26.31.06.6-.05.51-.11-.2-.14.79-.4-.69-.4l-.14.25Z"/><path d="m113.58,2.55l.14-.25c-.73.06-.67.15-.14.25Z"/><path d="m143.52,2.9c.07.03.13.05.21.07,0,0,.17-.02.18-.03.02-.03,0-.06-.01-.09l-.38.05Z"/><path d="m206.87,2.68l.19-.03c-.07,0-.14.02-.19.03Z"/><path d="m16.83,2.46l-.75.09.19.07c.2-.05.4-.1.56-.16Z"/><path d="m139.2,3.25l-.62-.08c.04.07.17.12.29.17l.32-.09Z"/><path d="m110.15,2.26c.53.07,1.02.12.88-.12l-.88.12Z"/>
                  </g>
                </mask>
              </defs>
              <path class="mask" d="m0,1.85c124.91.91,252.28.81,381.97-.42,9.23-.09,18.44-.18,27.64-.28"
                    mask="url(#path-mask)" stroke="black" stroke-width="2" fill="none"
                    stroke-dasharray="409.6160888671875" stroke-dashoffset="409.6160888671875">
              </path>
            </svg>
        